<?xml version="1.0" encoding="UTF-8" standalone="no"?>
<!-- Creator: CorelDRAW -->

<svg
   xmlns:dc="http://purl.org/dc/elements/1.1/"
   xmlns:cc="http://creativecommons.org/ns#"
   xmlns:rdf="http://www.w3.org/1999/02/22-rdf-syntax-ns#"
   xmlns:svg="http://www.w3.org/2000/svg"
   xmlns="http://www.w3.org/2000/svg"
   xmlns:sodipodi="http://sodipodi.sourceforge.net/DTD/sodipodi-0.dtd"
   xmlns:inkscape="http://www.inkscape.org/namespaces/inkscape"
   xml:space="preserve"
   width="300"
   height="360"
   style="fill-rule:evenodd"
   viewBox="0 0 84.666667 101.6"
   id="svg2"
   version="1.1"
   inkscape:version="0.48.1 "
   sodipodi:docname="наровля.svg"><metadata
   id="metadata24"><rdf:RDF><cc:Work
       rdf:about=""><dc:format>image/svg+xml</dc:format><dc:type
         rdf:resource="http://purl.org/dc/dcmitype/StillImage" /></cc:Work></rdf:RDF></metadata><sodipodi:namedview
   pagecolor="#ffffff"
   bordercolor="#666666"
   borderopacity="1"
   objecttolerance="10"
   gridtolerance="10"
   guidetolerance="10"
   inkscape:pageopacity="0"
   inkscape:pageshadow="2"
   inkscape:window-width="1280"
   inkscape:window-height="750"
   id="namedview22"
   showgrid="false"
   fit-margin-top="0"
   fit-margin-left="0"
   fit-margin-right="0"
   fit-margin-bottom="0"
   inkscape:zoom="1.4749999"
   inkscape:cx="56.101697"
   inkscape:cy="179.99999"
   inkscape:window-x="-8"
   inkscape:window-y="-8"
   inkscape:window-maximized="1"
   inkscape:current-layer="svg2" />
 <defs
   id="defs4"><style
     type="text/css"
     id="style6">
   
    .fil0 {fill:black}
    .fil1 {fill:#3C82C2}
    .fil2 {fill:black;fill-rule:nonzero}
    .fil3 {fill:#F8E73D;fill-rule:nonzero}
    .fil4 {fill:white;fill-rule:nonzero}
   
  </style><style
     id="style3021"
     type="text/css">
   
    .str0 {stroke:#FF6600;stroke-width:0.7056}
    .fil1 {fill:none}
    .fil0 {fill:#A90000}
   
  </style></defs>
 <path
   style="fill:#a90000"
   inkscape:connector-curvature="0"
   class="fil0"
   d="m 62.583336,48.550104 c 0.8283,0 1.5,0.6717 1.5,1.5 l 0,1.4998 c 0,0.8283 -0.6717,1.5 -1.5,1.5 l -1.5,0 0,-4.4998 1.5,0 z m 0,5.9998 c 1.6566,0 3,-1.3434 3,-3 l 0,-1.4998 c 0,-1.6566 -1.3434,-3 -3,-3 l -3,0 0,7.4998 3,0 z m -6,-7.4998 1.5,0 0,7.4998 -1.5,0 0,-7.4998 z m -3,0 1.5,0 0,7.4998 -1.5,0 -3,-4.7086 0,4.7086 -1.5,0 0,-7.4998 1.5,0 3,4.7086 0,-4.7086 z m -22.5,1e-4 4.5,0 0,1.5 -3,0 0,1.4999 3,0 0,1.5 -3,0 0,1.4999 3,0 0,1.5 -4.5,0 0,-7.4998 z m -6,-2e-4 1.5,0 0,6 3,0 0,1.5 -4.5,0 0,-7.5 z m 15.7504,6 1.4996,0 c 1.242399,0 2.25,-1.0076 2.25,-2.25 0,-1.2424 -1.0263,-2.2457 -2.25,-2.25 l -1.4996,0 0,1.5 1.4996,0 c 0.4141,0 0.75,0.3359 0.75,0.75 0,0.4141 -0.3359,0.75 -0.75,0.75 l -1.4996,0 0,1.5 z m 1.4996,-7.5 c 2.899,0 5.25,2.351 5.25,5.25 0,2.899 -2.351,5.25 -5.25,5.25 -2.899,0 -5.25,-2.351 -5.25,-5.25 0,-2.899 2.351,-5.25 5.25,-5.25 z m 0,1.5 c 2.0707,0 3.75,1.6793 3.75,3.75 0,2.0707 -1.6793,3.75 -3.75,3.75 -2.0707,0 -3.75,-1.6793 -3.75,-3.75 0,-2.0707 1.6793,-3.75 3.75,-3.75 z"
   id="path3025" /><g
   id="Слой_x0020_1"
   transform="matrix(1.4371231,0,0,1.4390691,-108.56459,-162.90147)">
  <metadata
   id="CorelCorpID_0Corel-Layer" />
  <path
   class="fil0"
   d="m 75.543,159.587 c 0.0692,0.5905 0.1576,1.1758 0.2674,1.7543 2.4227,12.7567 14.5716,22.4591 29.1896,22.4591 14.6177,0 26.7664,-9.702 29.1894,-22.4582 0.11,-0.5789 0.1984,-1.1644 0.2676,-1.7551 l 0,-46.3879 -58.914,0 0,46.3878 z"
   id="path10"
   inkscape:connector-curvature="0"
   style="fill:#000000" />
  <path
   class="fil1"
   d="m 132.33,166.341 c 0.906,-2.14 1.5199,-4.413 1.7984,-6.7779 l 0,-46.0389 -58.2574,0 0,46.0389 c 0.2786,2.3652 0.8925,4.6384 1.7988,6.7787 4.2436,10.0226 14.8811,17.1313 27.3299,17.1313 12.4491,0 23.0869,-7.1091 27.3303,-17.1321 z"
   id="path12"
   inkscape:connector-curvature="0"
   style="fill:#3c82c2" />
  <polygon
   class="fil2"
   points="102.615,116.435 108.023,116.435 106.743,120.783 111.091,119.503 111.091,124.911 106.743,123.631 108.023,127.979 102.615,127.979 103.895,123.631 99.5472,124.911 99.5472,119.503 103.895,120.783 "
   id="polygon14"
   style="fill:#000000;fill-rule:nonzero" />
  <polygon
   class="fil3"
   points="106.301,121.225 107.623,116.735 103.015,116.735 104.337,121.225 99.8472,119.903 99.8472,124.511 104.337,123.189 103.015,127.679 107.623,127.679 106.301,123.189 110.791,124.511 110.791,119.903 "
   id="polygon16"
   style="fill:#f8e73d;fill-rule:nonzero" />
  <path
   class="fil2"
   d="m 98.1683,142.036 c -1.6255,1.003 -2.6686,2.391 -3.3052,4.0456 -1.2775,3.3206 -0.9358,7.7166 -0.4958,11.1786 0.4026,3.1677 1.106,6.2575 2.177,9.2617 1.1862,3.3284 2.7413,6.5188 4.6811,9.4737 l -11.3094,0 -4.5055,-6.3324 6.2097,0 c -1.164,-1.5088 -2.2,-3.2809 -3.2283,-5.2066 -1.2205,-2.2862 -2.4891,-4.6294 -3.3524,-7.0801 -1.8691,-5.3075 -2.4375,-11.7833 -0.9403,-17.2741 2.4342,-8.9281 12.264,-12.6777 20.8512,-12.6777 6.4038,0 12.8104,2.0445 17.0602,6.1333 0.161,0.1551 0.3192,0.3132 0.474,0.474 4.7737,4.9618 4.787,13.9487 3.2584,20.3478 -0.0912,0.3822 -0.189,0.7587 -0.2925,1.1288 l 0,6e-4 c -0.8757,3.1286 -2.355,5.9642 -3.8699,8.8128 -1.0519,1.9778 -2.1089,3.7974 -3.2999,5.3412 l 6.2096,0 -4.5055,6.3324 -11.312,0 0.1569,-0.2353 1e-4,1e-4 c 1.8495,-2.819 3.3252,-5.9076 4.4674,-9.0735 0.4728,-1.3105 0.8755,-2.6145 1.194,-3.8736 l 0.003,-0.0123 c 0.1672,-0.6617 0.3147,-1.3117 0.4446,-1.9452 0.61,-2.9766 0.9707,-6.0395 0.9707,-9.0787 0,-2.0921 -0.2315,-4.031 -0.8719,-5.6955 -0.6364,-1.654 -1.679,-3.0416 -3.3034,-4.0445 l -1e-4,1e-4 -0.001,-6e-4 -0.002,-0.001 c -0.5465,-0.3371 -1.1292,-0.6274 -1.7377,-0.8703 -3.729,-1.489 -8.3808,-1.2545 -11.8255,0.8709 z"
   id="path18"
   inkscape:connector-curvature="0"
   style="fill:#000000;fill-rule:nonzero" />
  <path
   class="fil4"
   d="m 112.305,169.963 c -0.8808,1.9852 -1.9028,3.9113 -3.0765,5.7324 l 10.6021,0 4.0786,-5.7324 -11.6042,0 z m -14.705,0 -11.6094,0 4.0786,5.7324 10.6021,0 C 99.5393,173.94 98.4985,171.9811 97.6,169.963 z m -4.4922,-0.3 c -1.6458,-2.2636 -3.0963,-4.8935 -4.2494,-7.6883 -0.2528,-0.6127 -0.4881,-1.2232 -0.7045,-1.8292 -1.3526,-3.7865 -2.1466,-7.793 -2.1468,-11.5516 l -0.0012,0 0,-0.001 c 0,-2.1786 0.1663,-4.4094 0.697,-6.5078 0.5347,-2.1142 1.4385,-4.091 2.9117,-5.742 1.5146,-1.6972 3.5277,-3.1213 5.8838,-4.1635 0.4504,-0.1991 0.9206,-0.3868 1.4092,-0.5619 l 0,-0.001 c 0.6613,-0.2368 1.5115,-0.5612 2.2474,-0.6092 1.1888,-0.0774 2.0417,0.6814 2.951,1.3062 l 5.6882,0 c 1.204,-0.8273 2.131,-1.6137 3.7168,-1.1688 2.5951,0.7284 4.9083,1.8795 6.785,3.345 2.4995,1.9512 4.1,4.427 4.9013,7.5953 0.5307,2.0984 0.697,4.3292 0.697,6.5078 l -0.001,0 c 0,5.4066 -1.6462,11.3331 -4.2364,16.3829 -0.5052,0.985 -1.0449,1.9348 -1.6134,2.8381 -0.4021,0.6391 -0.8201,1.2567 -1.2512,1.8495 l 1.1046,0 c 1.3028,-1.6883 2.3692,-3.5114 3.3728,-5.3936 1.5226,-2.8555 3.0143,-5.7043 3.8923,-8.8412 l 2e-4,0 c 0.1038,-0.3714 0.2007,-0.7442 0.2899,-1.1178 1.5034,-6.2927 1.512,-15.1908 -3.1834,-20.0712 -0.1521,-0.158 -0.3075,-0.3134 -0.4658,-0.4658 -4.1913,-4.0325 -10.5207,-6.0489 -16.8528,-6.0489 -8.4437,0 -18.1652,3.6623 -20.563,12.4563 -1.4807,5.4303 -0.9136,11.8478 0.9345,17.0959 0.8528,2.4212 2.1039,4.7331 3.3087,6.9924 1.0087,1.8918 2.0812,3.6883 3.3736,5.3939 l 1.1041,0 z m 23.3345,-33.8691 1.1168,-1.1126 c -1.7462,-1.2844 -3.8566,-2.2998 -6.2099,-2.9603 -1.3791,-0.3869 -2.3325,0.4869 -3.375,1.1922 l -6.0482,0 c -0.8233,-0.557 -1.6655,-1.3588 -2.7461,-1.3011 -0.6767,0.0359 -1.4714,0.3543 -2.0707,0.5689 l -3e-4,-0.001 c -0.4614,0.1654 -0.9184,0.3484 -1.3691,0.5476 -1.2403,0.5486 -2.381,1.2057 -3.3983,1.9541 l 1.1164,1.1122 -3.0884,3.1024 -1.1238,-1.1199 c -0.9342,1.3404 -1.5572,2.8547 -1.9616,4.4537 -0.5132,2.0292 -0.6761,4.1979 -0.6781,6.3226 l 1.5763,-0.0914 0.2537,4.3698 -1.4989,0.0872 c 0.3488,2.3489 0.9605,4.727 1.7816,7.0256 0.0769,0.2152 0.1553,0.4282 0.2348,0.6396 l 1.2469,-0.5965 1.8898,3.9485 -1.3708,0.6566 c 0.93,1.8275 1.9853,3.5406 3.1319,5.0709 l 3.6164,0 c -0.44,-1.0069 -0.8445,-2.0265 -1.2063,-3.0417 -1.0782,-3.0248 -1.7856,-6.1343 -2.191,-9.3237 -0.4478,-3.5207 -0.7853,-7.9477 0.5132,-11.3228 0.6595,-1.7142 1.741,-3.1527 3.4272,-4.1932 3.5241,-2.1745 8.2774,-2.4184 12.0927,-0.8945 0.6237,0.249 1.2216,0.5467 1.7827,0.8928 l 1e-4,-1e-4 10e-4,6e-4 0.002,0.001 c 1.6862,1.0405 2.7677,2.479 3.4272,4.1932 0.6558,1.7045 0.8929,3.6783 0.8929,5.8021 0,3.0591 -0.3633,6.1424 -0.9777,9.1385 -0.1322,0.6447 -0.2807,1.2996 -0.447,1.958 l -0.003,0.0123 c -0.3208,1.2684 -0.7263,2.5818 -1.2023,3.9013 -0.3493,0.9684 -0.7298,1.9286 -1.142,2.876 l 3.6117,0 c 0.5154,-0.6878 1.0129,-1.4126 1.4884,-2.1683 0.5624,-0.8937 1.0934,-1.8276 1.5876,-2.7911 l 0.0565,-0.1113 -1.3712,-0.6568 1.8898,-3.9485 1.2478,0.597 c 0.9394,-2.4945 1.6351,-5.0967 2.0161,-7.6656 l -1.4995,-0.0873 0.2537,-4.3698 1.5763,0.0914 c -0.002,-2.1247 -0.1649,-4.2934 -0.6781,-6.3226 -0.4044,-1.599 -1.0274,-3.1133 -1.9616,-4.4537 l -1.1238,1.1199 -3.0884,-3.1024 z"
   id="path20"
   inkscape:connector-curvature="0"
   style="fill:#ffffff;fill-rule:nonzero" />
 </g>
</svg>