<?xml version="1.0" encoding="UTF-8" standalone="no"?>
<!-- Creator: CorelDRAW -->

<svg
   xmlns:dc="http://purl.org/dc/elements/1.1/"
   xmlns:cc="http://creativecommons.org/ns#"
   xmlns:rdf="http://www.w3.org/1999/02/22-rdf-syntax-ns#"
   xmlns:svg="http://www.w3.org/2000/svg"
   xmlns="http://www.w3.org/2000/svg"
   xmlns:sodipodi="http://sodipodi.sourceforge.net/DTD/sodipodi-0.dtd"
   xmlns:inkscape="http://www.inkscape.org/namespaces/inkscape"
   xml:space="preserve"
   width="300"
   height="355"
   style="fill-rule:evenodd"
   viewBox="0 0 84.666667 100.18889"
   id="svg2"
   version="1.1"
   inkscape:version="0.48.1 "
   sodipodi:docname="Петриков.svg"><metadata
   id="metadata26"><rdf:RDF><cc:Work
       rdf:about=""><dc:format>image/svg+xml</dc:format><dc:type
         rdf:resource="http://purl.org/dc/dcmitype/StillImage" /></cc:Work></rdf:RDF></metadata><sodipodi:namedview
   pagecolor="#ffffff"
   bordercolor="#666666"
   borderopacity="1"
   objecttolerance="10"
   gridtolerance="10"
   guidetolerance="10"
   inkscape:pageopacity="0"
   inkscape:pageshadow="2"
   inkscape:window-width="640"
   inkscape:window-height="480"
   id="namedview24"
   showgrid="false"
   fit-margin-top="0"
   fit-margin-left="0"
   fit-margin-right="0"
   fit-margin-bottom="0"
   inkscape:zoom="0.73521131"
   inkscape:cx="150.00001"
   inkscape:cy="177.50003"
   inkscape:window-x="0"
   inkscape:window-y="0"
   inkscape:window-maximized="0"
   inkscape:current-layer="svg2" />
 <defs
   id="defs4"><style
     type="text/css"
     id="style6">
   
    .fil0 {fill:black}
    .fil2 {fill:#006BFF}
    .fil3 {fill:#7F7F7F}
    .fil1 {fill:red}
    .fil5 {fill:yellow}
    .fil4 {fill:white}
   
  </style></defs>
 <path
   id="path3009"
   d="m 62.583292,47.844771 c 0.828322,0 1.500011,0.671689 1.500011,1.500012 l 0,1.499658 c 0,0.828322 -0.671689,1.500011 -1.500011,1.500011 l -1.500012,0 0,-4.499681 1.500012,0 z m 0,5.999692 c 1.656644,0 3.000022,-1.343378 3.000022,-3.000022 l 0,-1.499658 c 0,-1.656645 -1.343378,-3.000023 -3.000022,-3.000023 l -3.000023,0 0,7.499703 3.000023,0 z m -6.000045,-7.499703 1.500011,0 0,7.499703 -1.500011,0 0,-7.499703 z m -3.000022,0 1.500011,0 0,7.499703 -1.500011,0 -3.000022,-4.708525 0,4.708525 -1.500011,0 0,-7.499703 1.500011,0 3.000022,4.708525 0,-4.708525 z m -22.499884,0 4.499998,0 0,1.500011 -2.999987,0 0,1.500012 2.999987,0 0,1.500011 -2.999987,0 0,1.499658 2.999987,0 0,1.500011 -4.499998,0 0,-7.499703 z m -5.999974,-3.52e-4 1.499976,0 0,6.000044 3.000022,0 0,1.500011 -4.499998,0 0,-7.500055 z m 15.750399,6.000044 1.499588,0 c 1.242271,0 2.250157,-1.007533 2.250157,-2.250017 0,-1.24213 -1.026583,-2.24543 -2.250157,-2.250016 l -1.499588,0 0,1.500011 1.499588,0 c 0.41409,0 0.750146,0.336197 0.750146,0.750005 0,0.414161 -0.336056,0.750006 -0.750146,0.750006 l -1.499588,0 0,1.500011 z m 1.499588,-7.500055 c 2.898916,0 5.249827,2.351263 5.249827,5.250038 0,2.899128 -2.350911,5.250039 -5.249827,5.250039 -2.899022,0 -5.250004,-2.350911 -5.250004,-5.250039 0,-2.898775 2.350982,-5.250038 5.250004,-5.250038 z m 0,1.500011 c 2.070594,0 3.750168,1.679575 3.750168,3.750027 0,2.070806 -1.679574,3.750028 -3.750168,3.750028 -2.0707,0 -3.749993,-1.679222 -3.749993,-3.750028 0,-2.070452 1.679293,-3.750027 3.749993,-3.750027 z"
   style="fill:#a90000;stroke:none"
   inkscape:connector-curvature="0" /><path
   style="fill:#000000"
   inkscape:connector-curvature="0"
   id="path10"
   d="m 84.66667,57.910595 c 0,23.345574 -18.957223,42.278285 -42.333334,42.278285 C 18.957225,100.18888 2.3e-6,81.256311 2.3e-6,57.910595 l 0,-57.910599582 84.6666677,0 0,57.910599582 z"
   class="fil0" /><path
   style="fill:#ff0000"
   inkscape:connector-curvature="0"
   id="path12"
   d="m 84.097482,57.910595 0,-57.34215198 -83.52829202,0 0,57.34215198 c 0,23.031507 18.70251102,41.709842 41.76414602,41.709842 23.061635,0 41.764146,-18.678193 41.764146,-41.709842 z"
   class="fil1" /><path
   style="fill:#006bff"
   inkscape:connector-curvature="0"
   id="path14"
   d="m 84.097482,57.910595 0,-57.34215198 -41.763861,0 0,99.05199398 C 65.395113,99.620295 84.097482,80.942102 84.097482,57.910595 z"
   class="fil2" /><path
   style="fill:#7f7f7f"
   inkscape:connector-curvature="0"
   id="path16"
   d="m 55.887118,34.189276 -2.812499,0 -0.0028,0 0,-9.94e-4 c -4.513801,-9.95e-4 -8.227466,-3.710258 -8.227892,-8.21819 l -9.97e-4,0 0,-9.94e-4 c 0,-3.987518 2.949389,-7.43629 6.829683,-8.100094 0.762285,-4.351183 4.634896,-7.507062 8.955315,-7.509904 l 0,-9.95e-4 0.0057,0 c 4.40352,0 8.213093,3.239441 8.960437,7.510899 3.953862,0.677447 6.82641,4.181216 6.829256,8.094125 l 9.96e-4,0 0,0.0057 0,0.0014 -9.96e-4,0 c -9.96e-4,4.507931 -3.715088,8.216625 -8.228889,8.217052 l 0,9.95e-4 -9.96e-4,0 -2.812641,0 c -0.291993,0.794831 -0.778364,1.496438 -1.401624,2.046553 0.72984,0.342774 1.336737,0.801369 1.910051,1.359869 l -0.200069,0.179771 -1.43e-4,-1.42e-4 c -0.839267,0.813307 -1.920297,1.355606 -3.048284,1.641251 l 0,23.71336 4.009073,0 0,1.935137 -2.473547,0 0,1.522019 2.473547,0 0,1.531113 2.028158,0 0,-1.531113 2.473548,0 0,-1.522019 -2.473548,0 0,-1.935137 6.532852,0 0,8.045665 -1.494829,0 0,-2.521492 -1.524,0 0,2.521492 -1.612509,0 0,1.511928 1.612509,0 0,2.52135 1.524,0 -1.43e-4,-2.52135 1.494972,0 0,7.539037 -6.532852,0 0,-1.514345 2.473548,0 0,-1.522018 -2.473548,0 0,-1.531114 -2.028158,0 0,1.531114 -2.473547,0 0,1.522018 2.473547,0 0,1.514345 -4.009073,0 0,0.168686 0,0.250544 -0.251012,1.42e-4 -3.51203,0 -0.251154,-1.42e-4 1.42e-4,-0.250544 0,-40.978819 C 57.378959,39.100379 56.302055,38.478498 55.377979,37.57964 l 0.200212,-0.179914 1.42e-4,1.42e-4 c 0.497613,-0.482185 1.083164,-0.870577 1.709556,-1.164891 -0.623403,-0.550115 -1.109774,-1.251721 -1.401625,-2.046695 z m 4.747167,-6.784848 c 2.322855,0 4.279722,1.565362 4.871393,3.697183 l 2.688558,0 0.0014,0 0,9.95e-4 c 2.815914,-7.11e-4 5.137915,-2.320119 5.138057,-5.132514 l -9.96e-4,0 0,-9.94e-4 0,-0.0014 9.96e-4,0 C 73.333005,23.144766 71.021533,20.8363 68.194521,20.836158 l 0,9.95e-4 -9.97e-4,0 -1.55317,0 0,-1.392128 0,-0.0014 9.96e-4,0 c -7.12e-4,-3.287332 -2.715168,-5.997406 -6.00678,-5.997548 l 0,9.95e-4 -9.96e-4,0 -0.0014,0 0,-9.95e-4 c -3.291613,7.11e-4 -6.005215,2.711353 -6.005357,5.998685 l 9.96e-4,0 0,9.95e-4 0,1.392128 -1.553029,0 -0.0014,0 0,-9.94e-4 c -1.417419,4.26e-4 -2.701791,0.575411 -3.631844,1.503686 l 4.27e-4,4.26e-4 c -0.93048,0.92927 -1.50664,2.21254 -1.506782,3.628401 l 9.96e-4,0 0,9.95e-4 0,0.0014 -9.96e-4,0 c 7.11e-4,2.812252 2.323566,5.131376 5.139338,5.131518 l 0,-9.94e-4 9.96e-4,0 2.688415,0 c 0.591671,-2.131821 2.548396,-3.697184 4.871109,-3.697184 z m 2.007241,43.771176 2.057613,0 0,1.511928 -2.057613,0 0,-1.511928 z"
   class="fil3" /><path
   style="fill:#ffffff"
   inkscape:connector-curvature="0"
   id="path18"
   d="m 65.536272,33.687621 2.657822,0 9.96e-4,0 0,9.95e-4 c 4.236321,-1.42e-4 7.728145,-3.486715 7.728857,-7.717671 l -9.96e-4,0 0,-0.0028 0,-0.0057 9.96e-4,0 c -0.0014,-3.841142 -2.89375,-7.082715 -6.766076,-7.655283 l -0.02903,-0.188867 8.54e-4,-1.42e-4 c -0.637775,-4.110445 -4.271042,-7.25936 -8.495411,-7.25936 l -0.0057,0 0,-9.95e-4 c -4.250693,0.0014 -7.856355,3.178048 -8.517182,7.449079 -3.804593,0.568306 -6.765792,3.690504 -6.765792,7.661537 l 0,9.95e-4 -9.96e-4,0 c 1.43e-4,4.230955 3.491398,7.718097 7.727862,7.718808 l 0,-9.95e-4 0.0028,0 2.65768,0 c -0.09961,-0.395213 -0.152969,-0.808759 -0.152969,-1.234952 0,-0.289624 0.02519,-0.573706 0.072,-0.849972 l -2.57657,0 -9.96e-4,0 0,-9.94e-4 c -3.093251,-4.27e-4 -5.638373,-2.54153 -5.63937,-5.6309 l -9.96e-4,0 0,-0.0028 0,-9.94e-4 9.96e-4,0 c 2.85e-4,-1.555699 0.631799,-2.964028 1.651925,-3.982828 l 9.96e-4,0 c 1.019843,-1.018232 2.429151,-1.648498 3.98531,-1.649067 l 0,-9.95e-4 0.0028,0 1.051005,0 0,-0.890757 0,-9.95e-4 9.96e-4,0 c 4.27e-4,-3.564451 2.93644,-6.497072 6.505389,-6.498067 l 0,-9.94e-4 0.0028,0 9.96e-4,0 0,9.94e-4 c 3.568949,4.27e-4 6.505815,2.93248 6.506811,6.49693 l 9.96e-4,0 0,0.0028 0,0.890758 1.051147,0 9.96e-4,0 0,9.95e-4 c 3.10435,4.26e-4 5.638231,2.530444 5.639227,5.630899 l 9.96e-4,0 0,0.0014 0,9.94e-4 -9.96e-4,0 c -4.26e-4,3.089371 -2.544695,5.6309 -5.638088,5.631895 l 0,9.95e-4 -0.0014,0 -2.576713,0 c 0.04682,0.276265 0.072,0.560347 0.072,0.849971 0,0.426194 -0.05336,0.839739 -0.153111,1.234952 z m -2.074689,2.329072 c 1.051574,-0.833202 1.726915,-2.119741 1.726915,-3.564024 0,-2.511402 -2.039542,-4.548291 -4.554355,-4.548291 -2.514671,0 -4.554071,2.036889 -4.554071,4.548291 0,1.444425 0.675199,2.730822 1.726773,3.564024 0.854636,-0.322736 1.814144,-0.503644 2.82744,-0.503644 l 0.0028,0 0,9.94e-4 c 1.014293,2.85e-4 1.973089,0.181051 2.824879,0.50265 z m -2.824879,-0.0028 0,9.95e-4 -0.0028,0 c -1.611939,0 -3.297446,0.49597 -4.520915,1.573463 1.224465,1.075645 2.910256,1.575026 4.518639,1.575168 l 0,-9.95e-4 0.0028,0 c 1.612509,0 3.296309,-0.496965 4.520489,-1.573747 -1.225746,-1.076498 -2.904849,-1.574742 -4.518212,-1.574884 z m 1.502656,3.51258 c -0.483098,0.08953 -0.986829,0.137422 -1.504933,0.137422 l -0.0028,0 0,-9.95e-4 c -0.517677,-1.42e-4 -1.020839,-0.04747 -1.502656,-0.136569 l 0,40.618423 3.010007,0 0,-40.618281 z m 0.502023,24.10502 0,7.042924 2.559637,0 0,2.51467 -2.559637,0 0,6.536295 3.50705,0 0,-0.511603 -2.473547,0 0,-2.52476 2.473547,0 0,-1.531114 3.032205,0 0,1.531114 2.473548,0 0,2.52476 -2.473548,0 0,0.511603 5.528805,0 0,-6.536295 -0.490782,0 0,2.521349 -2.528047,0 0,-2.521349 -1.612509,0 0,-2.51467 1.612509,0 0,-2.521491 2.528047,0 0,2.521491 0.490782,0 0,-7.042924 -5.528805,0 0,0.932396 2.473548,0 0,2.524618 -2.473548,1.43e-4 0,1.531113 -3.032205,0 0,-1.531113 -2.473547,-1.43e-4 0,-2.524618 2.473547,0 0,-0.932396 -3.50705,0 z"
   class="fil4" /><path
   style="fill:#7f7f7f"
   inkscape:connector-curvature="0"
   id="path20"
   d="m 29.48492,57.342147 2.812499,0 0.0021,0 0,9.95e-4 c 4.513801,9.95e-4 8.227466,3.710257 8.227893,8.218189 l 9.96e-4,0 0,9.95e-4 c 0,3.987518 -2.949388,7.436289 -6.829683,8.100094 -0.762285,4.351182 -4.634895,7.507061 -8.955314,7.509903 l 0,9.95e-4 -0.0058,0 c -4.40352,0 -8.213093,-3.239441 -8.960437,-7.510898 -3.953862,-0.677448 -6.8264098,-4.181217 -6.8292558,-8.094126 l -9.961e-4,0 0,-0.0057 0,-0.0014 9.961e-4,0 c 9.961e-4,-4.507932 3.7150878,-8.216626 8.2288888,-8.217052 l 0,-9.95e-4 9.96e-4,0 2.812641,0 c 0.291993,-0.794832 0.778364,-1.496438 1.401624,-2.046554 -0.72984,-0.342774 -1.336737,-0.801369 -1.910051,-1.359868 l 0.200069,-0.179772 1.43e-4,1.42e-4 c 0.839267,-0.813306 1.920297,-1.355605 3.048284,-1.64125 l 0,-23.71336 -4.009073,0 0,-1.935138 2.473547,0 0,-1.522018 -2.473547,0 0,-1.531114 -2.028158,0 0,1.531114 -2.473547,0 0,1.522018 2.473547,0 0,1.935138 -6.532852,0 0,-8.045665 1.494829,0 0,2.521491 1.524,0 0,-2.521491 1.612509,0 0,-1.511929 -1.612509,0 0,-2.521349 -1.524,0 1.43e-4,2.521349 -1.494972,0 0,-7.539036 6.532852,0 0,1.514344 -2.473547,0 0,1.522019 2.473547,0 0,1.531113 2.028158,0 0,-1.531113 2.473547,0 0,-1.522019 -2.473547,0 0,-1.514344 4.009073,0 0,-0.168687 0,-0.250543 0.251012,-1.42e-4 3.51203,0 0.251154,1.42e-4 -1.42e-4,0.250543 0,40.978819 c 1.24766,0.315062 2.324563,0.936944 3.248639,1.835801 l -0.200212,0.179914 -1.42e-4,-1.42e-4 c -0.497613,0.482186 -1.083164,0.870578 -1.709555,1.164891 0.623402,0.550115 1.109773,1.251722 1.401624,2.046696 z m -4.747167,6.784849 c -2.322855,0 -4.279723,-1.565363 -4.871393,-3.697184 l -2.688558,0 -0.0021,0 0,-9.94e-4 c -2.815913,7.1e-4 -5.137914,2.320118 -5.138057,5.132513 l 9.96e-4,0 0,9.95e-4 0,0.0014 -9.96e-4,0 c 7.12e-4,2.822911 2.312183,5.131376 5.139196,5.131518 l 0,-9.94e-4 9.96e-4,0 1.553171,0 0,1.392128 0,0.0014 -9.96e-4,0 c 7.11e-4,3.287332 2.715167,5.997406 6.00678,5.997548 l 0,-9.94e-4 9.96e-4,0 0.0021,0 0,9.94e-4 c 3.291612,-7.1e-4 6.005215,-2.711353 6.005357,-5.998685 l -9.96e-4,0 0,-9.95e-4 0,-1.392128 1.553029,0 0.0021,0 0,9.95e-4 c 1.41742,-4.26e-4 2.701792,-0.575411 3.631844,-1.503686 l -4.27e-4,-4.26e-4 c 0.93048,-0.92927 1.50664,-2.212541 1.506782,-3.628402 l -9.96e-4,0 0,-9.94e-4 0,-0.0028 9.96e-4,0 c -7.11e-4,-2.812252 -2.323566,-5.131376 -5.139337,-5.131518 l 0,9.95e-4 -9.96e-4,0 -2.688416,0 c -0.591671,2.13182 -2.548396,3.697183 -4.871108,3.697183 z m -2.007241,-43.771176 -2.057613,0 0,-1.511929 2.057613,0 0,1.511929 z"
   class="fil3" /><path
   style="fill:#ffff00"
   inkscape:connector-curvature="0"
   id="path22"
   d="m 19.835624,57.843802 -2.657822,0 -9.96e-4,0 0,-9.95e-4 c -4.236322,1.42e-4 -7.7281459,3.486716 -7.7288574,7.717671 l 9.961e-4,0 0,0.0028 0,0.0057 -9.961e-4,0 c 0.00199,3.841143 2.8937504,7.082715 6.7660764,7.655284 l 0.02903,0.188867 -8.53e-4,1.42e-4 c 0.637774,4.110444 4.271042,7.25936 8.49541,7.25936 l 0.0058,0 0,9.94e-4 c 4.250693,-0.0014 7.856355,-3.178048 8.517182,-7.449079 3.804592,-0.568305 6.765791,-3.690504 6.765791,-7.661537 l 0,-9.95e-4 9.96e-4,0 c -1.42e-4,-4.230955 -3.491397,-7.718097 -7.727861,-7.718807 l 0,9.94e-4 -0.0021,0 -2.65768,0 c 0.09961,0.395214 0.152969,0.808759 0.152969,1.234953 0,0.289624 -0.02519,0.573706 -0.072,0.849971 l 2.576571,0 9.96e-4,0 0,9.95e-4 c 3.09325,4.26e-4 5.638373,2.541529 5.639369,5.6309 l 9.96e-4,0 0,0.0014 0,9.95e-4 -9.96e-4,0 c -2.85e-4,1.555699 -0.631798,2.964027 -1.651925,3.982828 l -9.96e-4,0 c -1.019842,1.018231 -2.429151,1.648498 -3.98531,1.649066 l 0,9.95e-4 -0.0021,0 -1.051006,0 0,0.890757 0,9.95e-4 -9.96e-4,0 c -4.26e-4,3.564451 -2.936439,6.497072 -6.505388,6.498067 l 0,9.95e-4 -0.0021,0 -9.96e-4,0 0,-9.95e-4 c -3.568949,-4.27e-4 -6.505816,-2.932479 -6.506812,-6.49693 l -9.96e-4,0 0,-0.0014 0,-0.890757 -1.051147,0 -9.96e-4,0 0,-9.95e-4 c -3.10435,-4.27e-4 -5.638231,-2.530445 -5.639227,-5.6309 l -9.96e-4,0 0,-0.0014 0,-9.95e-4 9.96e-4,0 c 4.27e-4,-3.089371 2.544696,-5.6309 5.638088,-5.631895 l 0,-9.94e-4 0.0021,0 2.576713,0 c -0.04682,-0.276266 -0.072,-0.560348 -0.072,-0.849972 0,-0.426193 0.05336,-0.839739 0.153112,-1.234952 z m 2.074689,-2.329072 c -1.051574,0.833202 -1.726916,2.119741 -1.726916,3.564024 0,2.511402 2.039542,4.548292 4.554356,4.548292 2.514671,0 4.55407,-2.03689 4.55407,-4.548292 0,-1.444425 -0.675199,-2.730822 -1.726773,-3.564024 -0.854635,0.322736 -1.814143,0.503645 -2.82744,0.503645 l -0.0024,0 0,-9.95e-4 c -1.014292,-2.84e-4 -1.973089,-0.181051 -2.824878,-0.50265 z m 2.824878,0.0028 0,-9.94e-4 0.0024,0 c 1.61194,0 3.297447,-0.495971 4.520916,-1.573463 -1.224465,-1.075645 -2.910257,-1.575027 -4.518639,-1.575169 l 0,9.95e-4 -0.0024,0 c -1.612509,0 -3.296308,0.496965 -4.520488,1.573747 1.225745,1.076498 2.904849,1.574742 4.518211,1.574884 z m -1.502655,-3.512579 c 0.483098,-0.08953 0.986829,-0.137423 1.504932,-0.137423 l 0.0024,0 0,9.95e-4 c 0.517676,1.42e-4 1.020838,0.04747 1.502656,0.13657 l 0,-40.618424 -3.010007,0 0,40.618282 z m -0.502024,-24.105021 0,-7.042924 -2.559637,0 0,-2.51467 2.559637,0 0,-6.536294 -3.50705,0 0,0.511602 2.473548,0 0,2.52476 -2.473548,0 0,1.531114 -3.032205,0 0,-1.531114 -2.473547,0 0,-2.52476 2.473547,0 0,-0.511602 -5.528804,0 0,6.536294 0.490782,0 0,-2.521349 2.528047,0 0,2.521349 1.612509,0 0,2.51467 -1.612509,0 0,2.521492 -2.528047,0 0,-2.521492 -0.490782,0 0,7.042924 5.528804,0 0,-0.932396 -2.473547,0 0,-2.524618 2.473547,-1.42e-4 0,-1.531114 3.032205,0 0,1.531114 2.473548,1.42e-4 0,2.524618 -2.473548,0 0,0.932396 3.50705,0 z"
   class="fil5" />
</svg>