<?xml version="1.0" encoding="UTF-8" standalone="no"?>
<!-- Created with Inkscape (http://www.inkscape.org/) -->
<svg id="svg2" xmlns:rdf="http://www.w3.org/1999/02/22-rdf-syntax-ns#" xmlns="http://www.w3.org/2000/svg" height="360" width="300" version="1.1" xmlns:cc="http://creativecommons.org/ns#" xmlns:xlink="http://www.w3.org/1999/xlink" xmlns:dc="http://purl.org/dc/elements/1.1/">
 <defs id="defs4">
  <linearGradient id="linearGradient5716" gradientUnits="userSpaceOnUse" x2="0.72" gradientTransform="matrix(-4.5859,-1.794475,-1.4543875,3.7167625,339.2572,387.36231)" x1="0.28">
   <stop id="stop3011" stop-color="#000" offset="0"/>
   <stop id="stop3013" stop-color="#4c4c4c" offset="0.48"/>
   <stop id="stop3015" stop-color="#191919" offset="1"/>
  </linearGradient>
  <linearGradient id="linearGradient5718" gradientUnits="userSpaceOnUse" x2="0.7" gradientTransform="matrix(-5.486975,-1.7558375,-1.3367125,4.1772375,340.52282,385.58357)" x1="0.3">
   <stop id="stop3033" stop-color="#000" offset="0"/>
   <stop id="stop3035" stop-color="#4c4c4c" offset="0.48"/>
   <stop id="stop3037" stop-color="#191919" offset="1"/>
  </linearGradient>
  <linearGradient id="linearGradient5720" gradientUnits="userSpaceOnUse" x2="0.77" gradientTransform="matrix(-5.481,0.3321875,0.26545,4.38,340.41695,382.25469)" x1="0.23">
   <stop id="stop3055" stop-color="#000" offset="0"/>
   <stop id="stop3057" stop-color="#4c4c4c" offset="0.48"/>
   <stop id="stop3059" stop-color="#191919" offset="1"/>
  </linearGradient>
  <linearGradient id="linearGradient5722" gradientUnits="userSpaceOnUse" x2="0.72" gradientTransform="matrix(-6.6951625,1.2173,1.072275,5.897525,340.70882,378.78156)" x1="0.28">
   <stop id="stop3077" stop-color="#000" offset="0"/>
   <stop id="stop3079" stop-color="#4c4c4c" offset="0.48"/>
   <stop id="stop3081" stop-color="#191919" offset="1"/>
  </linearGradient>
  <linearGradient id="linearGradient5724" gradientUnits="userSpaceOnUse" x2="0.76" gradientTransform="matrix(-6.727325,1.5524625,1.3821125,5.9891625,340.74432,376.07794)" x1="0.24">
   <stop id="stop3099" stop-color="#000" offset="0"/>
   <stop id="stop3101" stop-color="#4c4c4c" offset="0.48"/>
   <stop id="stop3103" stop-color="#191919" offset="1"/>
  </linearGradient>
  <linearGradient id="linearGradient5726" gradientUnits="userSpaceOnUse" x2="0.76" gradientTransform="matrix(-6.5879375,2.9164,2.7764125,6.2717125,339.86845,372.80719)" x1="0.24">
   <stop id="stop3121" stop-color="#000" offset="0"/>
   <stop id="stop3123" stop-color="#4c4c4c" offset="0.48"/>
   <stop id="stop3125" stop-color="#191919" offset="1"/>
  </linearGradient>
  <linearGradient id="linearGradient5728" gradientUnits="userSpaceOnUse" x2="0.76" gradientTransform="matrix(-6.937325,4.3076125,4.33135,6.97555,338.5337,369.24119)" x1="0.24">
   <stop id="stop3143" stop-color="#000" offset="0"/>
   <stop id="stop3145" stop-color="#4c4c4c" offset="0.48"/>
   <stop id="stop3147" stop-color="#191919" offset="1"/>
  </linearGradient>
  <linearGradient id="linearGradient5730" gradientUnits="userSpaceOnUse" x2="0.74" gradientTransform="matrix(-6.9114,6.1772875,6.2807,7.0271125,336.6387,365.64332)" x1="0.26">
   <stop id="stop3165" stop-color="#000" offset="0"/>
   <stop id="stop3167" stop-color="#4c4c4c" offset="0.48"/>
   <stop id="stop3169" stop-color="#191919" offset="1"/>
  </linearGradient>
  <linearGradient id="linearGradient5732" gradientUnits="userSpaceOnUse" x2="0.72" gradientTransform="matrix(-7.1706125,7.6244,7.5260625,7.078125,334.78557,362.14007)" x1="0.28">
   <stop id="stop3187" stop-color="#000" offset="0"/>
   <stop id="stop3189" stop-color="#4c4c4c" offset="0.48"/>
   <stop id="stop3191" stop-color="#191919" offset="1"/>
  </linearGradient>
  <linearGradient id="linearGradient5734" gradientUnits="userSpaceOnUse" x2="0.72" gradientTransform="matrix(-7.0151,8.9363625,8.399275,6.5935,332.31482,359.25582)" x1="0.28">
   <stop id="stop3209" stop-color="#000" offset="0"/>
   <stop id="stop3211" stop-color="#4c4c4c" offset="0.48"/>
   <stop id="stop3213" stop-color="#191919" offset="1"/>
  </linearGradient>
  <linearGradient id="linearGradient5736" gradientUnits="userSpaceOnUse" x2="0.72" gradientTransform="matrix(-7.67125,10.523013,9.69525,7.0678125,329.52732,355.76844)" x1="0.28">
   <stop id="stop3231" stop-color="#000" offset="0"/>
   <stop id="stop3233" stop-color="#4c4c4c" offset="0.48"/>
   <stop id="stop3235" stop-color="#191919" offset="1"/>
  </linearGradient>
  <linearGradient id="linearGradient5738" gradientUnits="userSpaceOnUse" x2="0.71" gradientTransform="matrix(-7.2355875,12.397662,10.915288,6.3704375,326.0722,352.90469)" x1="0.29">
   <stop id="stop3253" stop-color="#000" offset="0"/>
   <stop id="stop3255" stop-color="#4c4c4c" offset="0.48"/>
   <stop id="stop3257" stop-color="#191919" offset="1"/>
  </linearGradient>
  <linearGradient id="linearGradient5740" gradientUnits="userSpaceOnUse" x2="0.71" gradientTransform="matrix(-6.811275,13.218125,11.299937,5.8228375,322.8247,350.50269)" x1="0.29">
   <stop id="stop3275" stop-color="#000" offset="0"/>
   <stop id="stop3277" stop-color="#4c4c4c" offset="0.48"/>
   <stop id="stop3279" stop-color="#191919" offset="1"/>
  </linearGradient>
  <linearGradient id="linearGradient5742" gradientUnits="userSpaceOnUse" x2="0.7" gradientTransform="matrix(-5.6513375,14.650688,12.084,4.6612625,318.68582,348.70769)" x1="0.3">
   <stop id="stop3297" stop-color="#000" offset="0"/>
   <stop id="stop3299" stop-color="#4c4c4c" offset="0.48"/>
   <stop id="stop3301" stop-color="#191919" offset="1"/>
  </linearGradient>
  <linearGradient id="linearGradient5744" gradientUnits="userSpaceOnUse" x2="0.71" gradientTransform="matrix(-3.4275625,15.462538,11.923638,2.6431,313.85807,347.70281)" x1="0.29">
   <stop id="stop3319" stop-color="#000" offset="0"/>
   <stop id="stop3321" stop-color="#4c4c4c" offset="0.48"/>
   <stop id="stop3323" stop-color="#191919" offset="1"/>
  </linearGradient>
  <linearGradient id="linearGradient5746" gradientUnits="userSpaceOnUse" x2="0.75" gradientTransform="matrix(-1.7176625,14.909063,11.9892,1.381275,307.83482,346.99594)" x1="0.25">
   <stop id="stop3341" stop-color="#000" offset="0"/>
   <stop id="stop3343" stop-color="#4c4c4c" offset="0.48"/>
   <stop id="stop3345" stop-color="#191919" offset="1"/>
  </linearGradient>
  <linearGradient id="linearGradient5748" gradientUnits="userSpaceOnUse" x2="0.75" gradientTransform="matrix(-0.992375,15.49645,13.626575,0.872625,301.9412,345.73482)" x1="0.25">
   <stop id="stop3363" stop-color="#000" offset="0"/>
   <stop id="stop3365" stop-color="#4c4c4c" offset="0.48"/>
   <stop id="stop3367" stop-color="#191919" offset="1"/>
  </linearGradient>
  <linearGradient id="linearGradient5750" gradientUnits="userSpaceOnUse" x2="0.77" gradientTransform="matrix(0.829675,15.75545,16.986462,-0.8945,293.87207,345.33556)" x1="0.23">
   <stop id="stop3385" stop-color="#000" offset="0"/>
   <stop id="stop3387" stop-color="#4c4c4c" offset="0.48"/>
   <stop id="stop3389" stop-color="#191919" offset="1"/>
  </linearGradient>
  <linearGradient id="linearGradient5752" gradientUnits="userSpaceOnUse" x2="0.76" gradientTransform="matrix(1.3584875,16.811337,18.719925,-1.512725,286.57632,344.67794)" x1="0.24">
   <stop id="stop3407" stop-color="#000" offset="0"/>
   <stop id="stop3409" stop-color="#4c4c4c" offset="0.48"/>
   <stop id="stop3411" stop-color="#191919" offset="1"/>
  </linearGradient>
  <linearGradient id="linearGradient5754" gradientUnits="userSpaceOnUse" x2="0.73" gradientTransform="matrix(2.862675,19.60665,22.259737,-3.2500375,277.97745,344.36819)" x1="0.27">
   <stop id="stop3429" stop-color="#000" offset="0"/>
   <stop id="stop3431" stop-color="#4c4c4c" offset="0.48"/>
   <stop id="stop3433" stop-color="#191919" offset="1"/>
  </linearGradient>
  <linearGradient id="linearGradient5756" gradientUnits="userSpaceOnUse" x2="0.72" gradientTransform="matrix(4.7509625,21.181437,23.828425,-5.344675,269.38632,345.42056)" x1="0.28">
   <stop id="stop3451" stop-color="#000" offset="0"/>
   <stop id="stop3453" stop-color="#4c4c4c" offset="0.48"/>
   <stop id="stop3455" stop-color="#191919" offset="1"/>
  </linearGradient>
  <linearGradient id="linearGradient5758" gradientUnits="userSpaceOnUse" x2="0.69" gradientTransform="matrix(12.457838,23.135975,24.3792,-13.127263,259.01545,350.54344)" x1="0.31">
   <stop id="stop3473" stop-color="#000" offset="0"/>
   <stop id="stop3475" stop-color="#4c4c4c" offset="0.48"/>
   <stop id="stop3477" stop-color="#191919" offset="1"/>
  </linearGradient>
  <linearGradient id="linearGradient5760" gradientUnits="userSpaceOnUse" x2="0.69" gradientTransform="matrix(15.494125,23.671575,25.714838,-16.831525,251.65107,354.15057)" x1="0.31">
   <stop id="stop3495" stop-color="#000" offset="0"/>
   <stop id="stop3497" stop-color="#4c4c4c" offset="0.48"/>
   <stop id="stop3499" stop-color="#191919" offset="1"/>
  </linearGradient>
  <linearGradient id="linearGradient5762" gradientUnits="userSpaceOnUse" x2="0.72" gradientTransform="matrix(23.722312,19.956862,19.08505,-22.686,244.78345,362.65732)" x1="0.28">
   <stop id="stop3517" stop-color="#000" offset="0"/>
   <stop id="stop3519" stop-color="#4c4c4c" offset="0.48"/>
   <stop id="stop3521" stop-color="#191919" offset="1"/>
  </linearGradient>
  <linearGradient id="linearGradient5764" gradientUnits="userSpaceOnUse" x2="0.71" gradientTransform="matrix(29.473787,18.976275,16.865562,-26.19545,238.32395,370.40519)" y1="-0.013454" x1="0.27878">
   <stop id="stop3539" stop-color="#000" offset="0"/>
   <stop id="stop3541" stop-color="#4c4c4c" offset="0.48"/>
   <stop id="stop3543" stop-color="#191919" offset="1"/>
  </linearGradient>
  <linearGradient id="linearGradient5766" gradientUnits="userSpaceOnUse" x2="0.72" gradientTransform="matrix(31.7717,17.02055,13.5389,-25.272625,234.38882,376.26119)" x1="0.28">
   <stop id="stop3561" stop-color="#000" offset="0"/>
   <stop id="stop3563" stop-color="#4c4c4c" offset="0.48"/>
   <stop id="stop3565" stop-color="#191919" offset="1"/>
  </linearGradient>
  <linearGradient id="linearGradient5768" gradientUnits="userSpaceOnUse" x2="0.71" gradientTransform="matrix(37.504925,15.161563,10.618638,-26.26715,230.39257,384.08019)" x1="0.29">
   <stop id="stop3583" stop-color="#000" offset="0"/>
   <stop id="stop3585" stop-color="#4c4c4c" offset="0.48"/>
   <stop id="stop3587" stop-color="#191919" offset="1"/>
  </linearGradient>
  <linearGradient id="linearGradient5770" gradientUnits="userSpaceOnUse" x2="0.73" gradientTransform="matrix(42.007725,9.6940875,5.4712625,-23.708775,227.8832,393.54507)" x1="0.27">
   <stop id="stop3605" stop-color="#000" offset="0"/>
   <stop id="stop3607" stop-color="#4c4c4c" offset="0.48"/>
   <stop id="stop3609" stop-color="#191919" offset="1"/>
  </linearGradient>
  <linearGradient id="linearGradient5772" gradientUnits="userSpaceOnUse" x2="0.74" gradientTransform="matrix(44.201075,1.0279375,0.6603625,-28.395825,227.5732,409.60794)" x1="0.26">
   <stop id="stop3627" stop-color="#000" offset="0"/>
   <stop id="stop3629" stop-color="#4c4c4c" offset="0.48"/>
   <stop id="stop3631" stop-color="#191919" offset="1"/>
  </linearGradient>
  <linearGradient id="linearGradient5774" gradientUnits="userSpaceOnUse" x2="0.76" gradientTransform="matrix(47.64685,-6.715325,-5.79125,-41.090275,228.42932,429.53657)" x1="0.24">
   <stop id="stop3649" stop-color="#000" offset="0"/>
   <stop id="stop3651" stop-color="#4c4c4c" offset="0.48"/>
   <stop id="stop3653" stop-color="#191919" offset="1"/>
  </linearGradient>
  <linearGradient id="linearGradient5776" gradientUnits="userSpaceOnUse" x2="0.72" gradientTransform="matrix(55.5772,-17.043675,-16.944675,-55.254362,233.0342,452.86819)" x1="0.28">
   <stop id="stop3671" stop-color="#000" offset="0"/>
   <stop id="stop3673" stop-color="#4c4c4c" offset="0.48"/>
   <stop id="stop3675" stop-color="#191919" offset="1"/>
  </linearGradient>
  <linearGradient id="linearGradient5778" gradientUnits="userSpaceOnUse" x2="0.7" gradientTransform="matrix(57.862025,-34.228237,-35.487813,-59.991312,245.20895,474.83282)" x1="0.3">
   <stop id="stop3693" stop-color="#000" offset="0"/>
   <stop id="stop3695" stop-color="#4c4c4c" offset="0.48"/>
   <stop id="stop3697" stop-color="#191919" offset="1"/>
  </linearGradient>
  <linearGradient id="linearGradient5780" gradientUnits="userSpaceOnUse" x2="0.69" gradientTransform="matrix(55.790375,-53.404675,-53.708988,-56.108287,263.19695,492.06281)" x1="0.31">
   <stop id="stop3715" stop-color="#000" offset="0"/>
   <stop id="stop3717" stop-color="#4c4c4c" offset="0.48"/>
   <stop id="stop3719" stop-color="#191919" offset="1"/>
  </linearGradient>
  <linearGradient id="linearGradient5782" gradientUnits="userSpaceOnUse" x2="0.69" gradientTransform="matrix(45.996125,-66.012962,-60.928875,-42.453662,281.82582,500.97169)" x1="0.31">
   <stop id="stop3737" stop-color="#000" offset="0"/>
   <stop id="stop3739" stop-color="#4c4c4c" offset="0.48"/>
   <stop id="stop3741" stop-color="#191919" offset="1"/>
  </linearGradient>
  <linearGradient id="linearGradient5784" gradientUnits="userSpaceOnUse" x2="0.68" gradientTransform="matrix(43.015438,-69.915212,-60.748438,-37.375575,296.56632,507.89182)" x1="0.32">
   <stop id="stop3759" stop-color="#000" offset="0"/>
   <stop id="stop3761" stop-color="#4c4c4c" offset="0.48"/>
   <stop id="stop3763" stop-color="#191919" offset="1"/>
  </linearGradient>
  <linearGradient id="linearGradient5786" gradientUnits="userSpaceOnUse" x2="0.69" gradientTransform="matrix(27.307838,-76.9415,-54.242762,-19.251675,316.44607,508.87232)" x1="0.31">
   <stop id="stop3781" stop-color="#000" offset="0"/>
   <stop id="stop3783" stop-color="#4c4c4c" offset="0.48"/>
   <stop id="stop3785" stop-color="#191919" offset="1"/>
  </linearGradient>
  <linearGradient id="linearGradient5788" gradientUnits="userSpaceOnUse" x2="0.71" gradientTransform="matrix(11.187087,-78.309637,-43.021175,-6.1458875,336.29145,507.61582)" x1="0.29">
   <stop id="stop3803" stop-color="#000" offset="0"/>
   <stop id="stop3805" stop-color="#4c4c4c" offset="0.48"/>
   <stop id="stop3807" stop-color="#191919" offset="1"/>
  </linearGradient>
  <linearGradient id="linearGradient5790" gradientUnits="userSpaceOnUse" x2="0.58" gradientTransform="matrix(3.971875,-73.479775,-26.3627,-1.4250125,346.6202,530.66081)" x1="0.42">
   <stop id="stop3827" stop-color="#999" offset="0"/>
   <stop id="stop3829" stop-color="#000" offset="1"/>
  </linearGradient>
 </defs>
 <metadata id="metadata7">
  <rdf:RDF>
   <cc:Work rdf:about="">
    <dc:format>image/svg+xml</dc:format>
    <dc:type rdf:resource="http://purl.org/dc/dcmitype/StillImage"/>
    <dc:title/>
   </cc:Work>
  </rdf:RDF>
 </metadata>
 <g id="layer1" transform="translate(-209.85457,-170.31108)">
  <path id="path3035" d="m431.61,342.34c2.9349,0,5.315,2.38,5.315,5.315v5.3142c0,2.9349-2.38,5.315-5.315,5.315h-5.315v-15.944h5.315zm0,21.259c5.8698,0,10.63-4.7601,10.63-10.63v-5.3142c0-5.8698-4.7601-10.63-10.63-10.63h-10.63v26.574h10.63zm-21.26-26.574,5.315,0,0,26.574-5.315,0,0-26.574zm-10.63,0,5.315,0,0,26.574-5.315,0-10.63-16.684,0,16.684-5.315,0,0-26.574,5.315,0,10.63,16.684,0-16.684zm-79.724,0.00036,15.945,0,0,5.315-10.63,0,0,5.3146,10.63,0,0,5.315-10.63,0,0,5.3146,10.63,0,0,5.315-15.945,0,0-26.574zm-21.26-0.00071,5.315,0,0,21.26,10.63,0,0,5.315-15.945,0,0-26.575zm55.808,21.26,5.3136,0c4.4022,0,7.9724-3.5702,7.9724-7.9724s-3.6365-7.9572-7.9724-7.9724h-5.3136v5.315h5.3136c1.4673,0,2.6575,1.1902,2.6575,2.6575s-1.1902,2.6575-2.6575,2.6575h-5.3136v5.315zm5.3136-26.575c10.272,0,18.602,8.3303,18.602,18.602s-8.3303,18.602-18.602,18.602-18.602-8.3303-18.602-18.602,8.3303-18.602,18.602-18.602zm0,5.315c7.3371,0,13.287,5.9503,13.287,13.287,0,7.3371-5.9503,13.287-13.287,13.287-7.3371,0-13.287-5.9503-13.287-13.287,0-7.3371,5.9503-13.287,13.287-13.287z" fill-rule="evenodd" class="fil0" fill="#a90000"/>
  <g id="g5673" transform="matrix(1.8388212,0,0,1.8376934,-176.03046,-444.23807)">
   <path id="path2995" fill-rule="evenodd" fill="#000" d="m291.24,530.31c-5.4064-10.089-16.05-16.953-28.294-16.953l-35.604,0.00076c-9.6556,0-17.486-7.8304-17.486-17.486v-161.46h163.15v161.46c0,9.6559-7.8308,17.486-17.486,17.486l-35.604-0.00076c-12.244,0-22.888,6.8641-28.295,16.953h-0.37887z"/>
   <path id="path2997" fill-rule="evenodd" fill="#f7e336" d="m291.43,528.83c-3.3478-5.7278-8.4206-10.382-14.41-13.214-4.2662-2.0171-9.0365-3.1458-14.072-3.1461v-0.004h-0.002v0.004l-35.604,0.00075v-0.004h-0.002v0.004c-9.095-0.00099-16.594-7.5001-16.594-16.595h0.004v-0.001-160.57h161.36v160.57,0.001h0.004c-0.00037,9.0952-7.4986,16.594-16.594,16.595v-0.004h-0.002v0.004l-35.604-0.00075v-0.004h-0.002v0.004c-5.0354,0.00038-9.8058,1.129-14.072,3.1461-5.9896,2.8322-11.062,7.486-14.41,13.214"/>
   <path id="path3017" d="m336.41,387.02c-0.47975,0.0482-1.0392,0.60775-1.3482,1.215-0.38337,0.75725,0.76363,0.88762,1.2951,1.1949,0.39862,0.22563,0.85,0.19625,1.3096-0.15387,0.40138-0.30613,0.91938-1.1316,0.61225-1.8875l-1.8688-0.3685z" fill-rule="evenodd" stroke="#999" stroke-miterlimit="4" stroke-dasharray="none" stroke-width="0.88599998" fill="url(#linearGradient5716)"/>
   <path id="path3039" d="m337.08,385.31c-0.57938,0.13676-1.1582,0.85825-1.4238,1.591-0.32875,0.91374,1.0995,0.86912,1.8061,1.1192,0.52788,0.18675,1.0758,0.0776,1.5725-0.39363,0.43438-0.41,0.91588-1.4269,0.399-2.2212l-2.3539-0.0954z" fill-rule="evenodd" stroke="#999" stroke-miterlimit="4" stroke-dasharray="none" stroke-width="0.88599998" fill="url(#linearGradient5718)"/>
   <path id="path3061" d="m337.15,383.25c-0.55662,0.31812-0.85362,1.1795-0.80962,1.9528,0.0542,0.9595,1.5534,0.45137,2.4138,0.45487,0.6455,0.001,1.1802-0.28062,1.4991-0.88125,0.27888-0.52825,0.34125-1.633-0.56087-2.2052l-2.5424,0.67888z" fill-rule="evenodd" stroke="#999" stroke-miterlimit="4" stroke-dasharray="none" stroke-width="0.88599998" fill="url(#linearGradient5720)"/>
   <path id="path3083" d="m336.92,380.99c-0.56663,0.44475-0.70338,1.4655-0.47238,2.3322,0.28875,1.0796,1.8854,0.27887,2.8786,0.15338,0.73837-0.0925,1.2851-0.49538,1.5115-1.2235,0.197-0.63675,0.009-1.8999-1.1586-2.4134l-2.7591,1.1512z" fill-rule="evenodd" stroke="#999" stroke-miterlimit="4" stroke-dasharray="none" stroke-width="0.88599998" fill="url(#linearGradient5722)"/>
   <path id="path3105" d="m337.11,378.53c-0.72638,0.578-0.99963,2.0545-0.4185,2.9761,0.42387-0.455,1.692-0.56163,2.2579-0.57838,0.9985-0.0265,1.7496-0.23912,2.0246-1.1378,0.19375-0.63562,0.01-1.8985-1.1438-2.4126l-2.7202,1.1526z" fill-rule="evenodd" stroke="#999" stroke-miterlimit="4" stroke-dasharray="none" stroke-width="0.88599998" fill="url(#linearGradient5724)"/>
   <path id="path3127" d="m336.56,376.37c-0.68837,0.67325-0.49887,2.306,0.23213,3.206,0.38237-0.51763,1.4178-0.81701,2.007-0.88863,1.0424-0.1265,1.8056-0.42237,1.9792-1.384,0.123-0.68312-0.23313-1.979-1.5105-2.401l-2.7079,1.4676z" fill-rule="evenodd" stroke="#999" stroke-miterlimit="4" stroke-dasharray="none" stroke-width="0.88599998" fill="url(#linearGradient5726)"/>
   <path id="path3149" d="m335.59,373.71c-0.62263,0.78063-0.179,2.4622,0.7235,3.3211,0.32887-0.58675,1.3705-1.013,1.9786-1.1555,1.0825-0.24975,1.8408-0.64625,1.8772-1.6668,0.0269-0.72738-0.54287-2.0385-1.9478-2.3346l-2.6316,1.8358z" fill-rule="evenodd" stroke="#999" stroke-miterlimit="4" stroke-dasharray="none" stroke-width="0.88599998" fill="url(#linearGradient5728)"/>
   <path id="path3171" d="m334.43,370.95c-0.50675,0.99925,0.21038,2.9026,1.2589,3.7818,0.2385-0.72812,1.2221-1.3726,1.8141-1.6225,1.0514-0.44175,1.7548-1.0072,1.6289-2.2071-0.0858-0.8525-0.87163-2.3066-2.3396-2.4607l-2.3622,2.5086z" fill-rule="evenodd" stroke="#999" stroke-miterlimit="4" stroke-dasharray="none" stroke-width="0.88599998" fill="url(#linearGradient5730)"/>
   <path id="path3193" d="m332.56,368.45c-0.42913,1.1789,0.62425,3.2042,1.9112,4.0436,0.16825-0.84188,1.1781-1.694,1.8042-2.0526,1.1115-0.63325,1.8188-1.3589,1.5194-2.6788-0.21512-0.93938-1.3606-2.7564-3.0154-2.728l-2.2195,3.4158z" fill-rule="evenodd" stroke="#999" stroke-miterlimit="4" stroke-dasharray="none" stroke-width="0.88599998" fill="url(#linearGradient5732)"/>
   <path id="path3215" d="m330.36,366.09c-0.27812,1.3004,1.1214,3.2698,2.593,3.9618,0.052-0.90575,0.98788-1.9452,1.5924-2.413,1.0742-0.827,1.7096-1.6899,1.2032-3.0289-0.36075-0.9535-1.8542-2.7651-3.5855-2.4955l-1.8031,3.9756z" fill-rule="evenodd" stroke="#999" stroke-miterlimit="4" stroke-dasharray="none" stroke-width="0.88599998" fill="url(#linearGradient5734)"/>
   <path id="path3237" d="m327.32,363.18c-0.326,1.5254,1.3166,3.8356,3.043,4.6491,0.0595-1.0632,1.1582-2.2846,1.8684-2.8306,1.2596-0.97062,2.0044-1.9825,1.4106-3.5569-0.42312-1.1168-1.9985-2.7978-4.0295-2.4824l-2.2925,4.2208z" fill-rule="evenodd" stroke="#999" stroke-miterlimit="4" stroke-dasharray="none" stroke-width="0.88599998" fill="url(#linearGradient5736)"/>
   <path id="path3259" d="m324.17,361.17c-0.10763,1.6749,2.0045,3.8778,3.9714,4.4712-0.102-1.141,1.1828-2.4594,1.8535-3.1518,1.1899-1.2302,1.5148-2.581,0.636-4.1634-0.62575-1.1236-2.7184-2.6681-4.832-2.0119l-1.6289,4.8557z" fill-rule="evenodd" stroke="#999" stroke-miterlimit="4" stroke-dasharray="none" stroke-width="0.88599998" fill="url(#linearGradient5738)"/>
   <path id="path3281" d="m321.2,359.24c-0.006,1.7221,2.2918,3.8474,4.3422,4.3349-0.175-1.1629,0.73425-2.7305,1.3788-3.4809,1.1409-1.3351,1.7189-2.5984,0.71962-4.1634-0.70825-1.1138-3.2446-2.8761-5.3688-2.074l-1.0719,5.3834z" fill-rule="evenodd" stroke="#999" stroke-miterlimit="4" stroke-dasharray="none" stroke-width="0.88599998" fill="url(#linearGradient5740)"/>
   <path id="path3303" d="m317.56,357.89c0.24162,1.8301,2.9922,3.7545,5.2401,3.9745-0.35637-1.2098,0.23-3.0076,0.80575-3.8984,1.0176-1.5814,1.4479-3.0094,0.16163-4.5244-0.9185-1.079-3.64-2.553-5.7799-1.3948l-0.42762,5.843z" fill-rule="evenodd" stroke="#999" stroke-miterlimit="4" stroke-dasharray="none" stroke-width="0.88599998" fill="url(#linearGradient5742)"/>
   <path id="path3325" d="m313.72,356.59c0.44863,1.8666,3.5055,3.5599,5.8575,3.5429-0.49787-1.215-0.237-3.1542,0.26288-4.1406,0.88162-1.7486,1.1708-3.2722-0.327-4.7028-1.0665-1.0184-4.0092-2.425-6.0984-0.99062l0.305,6.2911z" fill-rule="evenodd" stroke="#999" stroke-miterlimit="4" stroke-dasharray="none" stroke-width="0.88599998" fill="url(#linearGradient5744)"/>
   <path id="path3347" d="m308.91,356.08c0.783,1.8719,4.2551,3.1206,6.7046,2.706-0.72638-1.1802-0.45675-3.3016-0.106-4.4121,0.6265-1.9729,0.6715-3.9246-1.1324-5.1636-1.2816-0.882-4.7438-1.7802-6.6799,0.0669l1.2136,6.8029z" fill-rule="evenodd" stroke="#999" stroke-miterlimit="4" stroke-dasharray="none" stroke-width="0.88599998" fill="url(#linearGradient5746)"/>
   <path id="path3369" d="m304.46,355.8c0.89863,1.1966,4.4948,2.335,5.9298,1.8089-0.61362-1.4113-0.119-3.3076,0.23388-4.4231,0.62825-1.9771,0.33337-4.0701-1.4751-5.311-1.2855-0.882-5.3178-2.2664-7.2578-0.415l2.5692,8.3402z" fill-rule="evenodd" stroke="#999" stroke-miterlimit="4" stroke-dasharray="none" stroke-width="0.88599998" fill="url(#linearGradient5748)"/>
   <path id="path3391" d="m298.89,355.74c1.1859,1.1888,5.288,1.8595,6.7131,1.0024-0.92337-1.4818-0.76037-3.7136-0.59637-5.035,0.29162-2.3468-0.42488-4.6551-2.5891-5.7306-1.5388-0.7635-6.0459-1.3974-7.7572,1.0435l4.2296,8.7198z" fill-rule="evenodd" stroke="#999" stroke-miterlimit="4" stroke-dasharray="none" stroke-width="0.88599998" fill="url(#linearGradient5750)"/>
   <path id="path3413" d="m292.93,355.29c1.2824,1.1519,5.5176,1.6218,7.7205,0.89363-1.0385-1.243-1.5644-3.8891-1.469-5.2501,0.16613-2.4144-0.93862-4.8444-3.2135-5.8251-1.6181-0.696-6.5335-1.1201-8.1495,1.4729l5.1115,8.7088z" fill-rule="evenodd" stroke="#999" stroke-miterlimit="4" stroke-dasharray="none" stroke-width="0.88599998" fill="url(#linearGradient5752)"/>
   <path id="path3435" d="m286.25,355.84c2.4368,1.7606,5.9978,1.3801,7.7361,0.1435-1.1856-1.7228-1.3008-3.9799-1.3975-5.468-0.1715-2.6409-1.6586-4.9181-4.1495-6.1001-1.8082-0.8575-6.732-0.50537-8.0225,2.532l5.8334,8.8926z" fill-rule="evenodd" stroke="#999" stroke-miterlimit="4" stroke-dasharray="none" stroke-width="0.88599998" fill="url(#linearGradient5754)"/>
   <path id="path3457" d="m280.42,357.62c1.5516,1.1041,5.597,0.76749,6.9468-0.55663-1.259-1.8004-1.4081-4.1822-1.5286-5.7526-0.21513-2.7858-1.7986-5.1665-4.4104-6.3769-1.8985-0.88187-6.992-0.19375-8.2966,3.0328l7.2889,9.6534z" fill-rule="evenodd" stroke="#999" stroke-miterlimit="4" stroke-dasharray="none" stroke-width="0.88599998" fill="url(#linearGradient5756)"/>
   <path id="path3479" d="m275.46,360.09c1.737,0.61975,5.4699-0.61301,6.7834-2.0094-1.5308-1.788-2.0721-3.1812-2.3386-4.8416-0.47587-2.9406-2.1838-5.5875-5.1356-6.6108-2.1459-0.7445-7.0172,0.979-8.161,4.5432l8.8519,8.9185z" fill-rule="evenodd" stroke="#999" stroke-miterlimit="4" stroke-dasharray="none" stroke-width="0.88599998" fill="url(#linearGradient5758)"/>
   <path id="path3501" d="m271.24,362.76c1.8989,0.225,4.8948-1.0594,5.8238-2.6705-1.8025-1.6412-2.5299-3.2181-2.9671-4.8522-0.77562-2.9026-2.8446-5.3901-6.1045-6.1302-2.3682-0.53825-7.6068,1.7171-8.5092,5.3992l11.757,8.2538z" fill-rule="evenodd" stroke="#999" stroke-miterlimit="4" stroke-dasharray="none" stroke-width="0.88599998" fill="url(#linearGradient5760)"/>
   <path id="path3523" d="m267.62,367.82c2.2061-0.82662,4.8484-2.5351,5.4238-4.6265-2.5175-1.3259-3.8012-2.8916-4.7735-4.6101-1.7249-3.0515-4.8246-5.3749-8.7211-5.2565-2.8311,0.0879-7.1309,3.4824-6.9045,6.0261l14.975,8.467z" fill-rule="evenodd" stroke="#999" stroke-miterlimit="4" stroke-dasharray="none" stroke-width="0.88599998" fill="url(#linearGradient5762)"/>
   <path id="path3545" d="m263.16,373.78c2.1246-1.2451,5.3508-4.1092,5.5336-6.5488-2.9406-0.98725-4.6641-2.716-6.0464-4.4409-2.4538-3.0596-6.4466-5.412-10.552-4.5216-2.9839,0.64775-6.4896,5.0722-5.7289,7.8609l16.794,7.6504z" fill-rule="evenodd" stroke="#999" stroke-miterlimit="4" stroke-dasharray="none" stroke-width="0.88599998" fill="url(#linearGradient5764)"/>
   <path id="path3567" d="m260.73,379.46c2.0416-1.9956,4.0422-4.3884,3.892-7.0179-3.2769-0.63887-5.3614-2.2404-7.0816-3.8866-3.0505-2.9207-7.9211-4.865-12.179-3.3339-3.0958,1.1125-5.6774,6.1268-4.4724,8.9942l19.841,5.2441z" fill-rule="evenodd" stroke="#999" stroke-miterlimit="4" stroke-dasharray="none" stroke-width="0.88599998" fill="url(#linearGradient5766)"/>
   <path id="path3589" d="m258.94,386.25c1.9858-2.453,3.7272-5.1582,3.2564-8.0659-3.6305-0.33663-6.0814-1.884-8.1401-3.5196-3.6531-2.9005-8.9659-4.6881-13.409-2.4988-3.2265,1.5912-6.0541,7.9318-4.4096,10.985l22.703,3.0992z" fill-rule="evenodd" stroke="#999" stroke-miterlimit="4" stroke-dasharray="none" stroke-width="0.88599998" fill="url(#linearGradient5768)"/>
   <path id="path3611" d="m258.15,394.33c1.8968-3.0532,3.487-6.3574,2.5476-9.5811-4.1562,0.13075-7.1436-1.2724-9.7044-2.8329-4.5394-2.7694-10.501-3.7335-15.217-0.631-3.4289,2.2539-5.8738,9.5672-3.5854,12.789l25.959,0.25612z" fill-rule="evenodd" stroke="#999" stroke-miterlimit="4" stroke-dasharray="none" stroke-width="0.88599998" fill="url(#linearGradient5770)"/>
   <path id="path3633" d="m257.8,404.25c2.02-3.3356,3.5915-7.8828,1.3819-11.446-4.4274,0.8745-8.347-0.303-11.382-1.6608-5.383-2.4084-11.953-2.486-16.422,1.9226-3.2491,3.2024-4.4684,13.228-1.4091,16.555l27.832-5.3706z" fill-rule="evenodd" stroke="#999" stroke-miterlimit="4" stroke-dasharray="none" stroke-width="0.88599998" fill="url(#linearGradient5772)"/>
   <path id="path3655" d="m260.51,411.97c0.60487-4.6109,1.7146-9.3756-0.9705-12.865-4.6261,2.0972-9.461,1.783-13.137,1.0775-6.52-1.2529-13.737,0.355-17.5,6.3348-2.7319,4.3476-1.0279,14.147,3.1801,17.003l28.427-11.551z" fill-rule="evenodd" stroke="#999" stroke-miterlimit="4" stroke-dasharray="none" stroke-width="0.88599998" fill="url(#linearGradient5774)"/>
   <path id="path3677" d="m265.21,422.67c0.0284-5.0899-0.48325-10.286-3.8789-13.708-4.7395,2.9142-9.2169,3.1311-13.308,2.8661-7.256-0.46625-15.166,2.1419-18.145,9.282-2.5059,6.0056,0.80788,16.154,5.7718,18.681l29.56-17.121z" fill-rule="evenodd" stroke="#999" stroke-miterlimit="4" stroke-dasharray="none" stroke-width="0.88599998" fill="url(#linearGradient5776)"/>
   <path id="path3699" d="m271.87,432.04c-1.0456-5.4979-2.6925-10.996-7.0812-13.974-4.4996,4.1456-9.2835,4.955-13.752,5.535-7.9261,1.0296-15.573,5.9605-17.618,14.218-1.486,6.0006,3.7078,14.971,9.5971,16.65l28.854-22.428z" fill-rule="evenodd" stroke="#999" stroke-miterlimit="4" stroke-dasharray="none" stroke-width="0.88599998" fill="url(#linearGradient5778)"/>
   <path id="path3721" d="m280.45,438.18c-2.0979-5.6816-4.8384-11.256-10.054-13.651-4.0608,5.7802-8.9582,7.3408-13.621,8.758-8.2792,2.514-15.626,8.746-16.335,17.925-0.51475,6.6702,7.4236,16.31,14.007,17.051l26.004-30.082z" fill-rule="evenodd" stroke="#999" stroke-miterlimit="4" stroke-dasharray="none" stroke-width="0.88599998" fill="url(#linearGradient5780)"/>
   <path id="path3743" d="m271.2,480.67c-7.0555,0.92912-16.954-6.3251-18.138-13.411-1.6302-9.7501,4.4206-19.069,12.399-23.826,4.4979-2.6805,9.608-4.253,11.942-11.713,6.0512,1.1501,10.348,6.2539,14,11.635l-20.204,37.315z" fill-rule="evenodd" stroke="#999" stroke-miterlimit="4" stroke-dasharray="none" stroke-width="0.88599998" fill="url(#linearGradient5782)"/>
   <path id="path3765" d="m289.87,489.91c-7.126,1.9974-18.551-3.179-20.699-10.332-3.3924-11.31,1.1785-19.739,8.6904-25.813,4.2335-3.4225,9.242-6.2851,11.11-14.362,6.4002,0.2895,11.576,4.9075,16.13,9.9058l-15.231,40.601z" fill-rule="evenodd" stroke="#999" stroke-miterlimit="4" stroke-dasharray="none" stroke-width="0.88599998" fill="url(#linearGradient5784)"/>
   <path id="path3787" d="m311.24,497.93c-3.2265-2.3952-17.718-1.1679-21.69-7.11-6.6065-9.8809-4.3086-22.443,2.8052-28.952,4.0288-3.69,7.5015-6.5622,8.1482-17.55,6.6114-0.9705,12.823,2.7304,18.476,6.9455l-7.7404,46.666z" fill-rule="evenodd" stroke="#999" stroke-miterlimit="4" stroke-dasharray="none" stroke-width="0.88599998" fill="url(#linearGradient5786)"/>
   <path id="path3809" d="m333.08,502.97c-11.789-4.095-18.991-0.0889-23.472-5.4166-7.8889-9.3745-6.0732-21.671,0.10837-30.86,3.2655-4.8569,5.9205-10.584,5.7341-18.526,6.6636-1.727,15.281-0.42875,21.506,2.9405l-3.8766,51.862z" fill-rule="evenodd" stroke="#999" stroke-miterlimit="4" stroke-dasharray="none" stroke-width="0.88599998" fill="url(#linearGradient5788)"/>
   <path id="path3813" stroke-linejoin="miter" d="m337.89,451.45c8.5865,7.9948,13.462,17.398,12.412,29.291-0.675,7.6726-5.2958,24.152-15.742,22.668-9.889-1.4066-11.907-15.671-9.4199-23.339,1.6289-5.018,5.3712-9.0056,7.3148-13.901,1.7065-4.2906,2.9488-9.2072,2.632-13.389-0.0836-2.4799,0.95988-3.0486,2.8035-1.329z" fill-rule="nonzero" stroke="#000" stroke-linecap="butt" stroke-miterlimit="10" stroke-dasharray="none" stroke-width="0.625" fill="#999"/>
   <path id="path3831" d="m336.65,466.43c-0.96063,2.918-2.2224,5.6906-3.8725,8.3781-2.7195,4.4274-4.8072,8.1805-3.9822,13.735,0.56612,3.7938,1.3811,8.1999,5.3772,9.7639,3.948,1.5439,7.025-1.2432,8.7771-4.6538,4.7364-9.22,5.0336-20.362,0.55025-29.484-0.45387-0.92375-1.8939-3.8218-3.274-5.5754-1.3886-1.7642-2.2798-2.5838-2.222,0.11687,0.0567,2.6256-0.52862,5.2179-1.3539,7.7191" stroke="#000" stroke-miterlimit="10" stroke-dasharray="none" stroke-width="0.625" fill="url(#linearGradient5790)"/>
  </g>
 </g>
</svg>
