<?xml version="1.0" encoding="UTF-8" standalone="no"?>
<!-- Creator: CorelDRAW -->

<svg
   xmlns:dc="http://purl.org/dc/elements/1.1/"
   xmlns:cc="http://creativecommons.org/ns#"
   xmlns:rdf="http://www.w3.org/1999/02/22-rdf-syntax-ns#"
   xmlns:svg="http://www.w3.org/2000/svg"
   xmlns="http://www.w3.org/2000/svg"
   xmlns:sodipodi="http://sodipodi.sourceforge.net/DTD/sodipodi-0.dtd"
   xmlns:inkscape="http://www.inkscape.org/namespaces/inkscape"
   xml:space="preserve"
   width="300"
   height="355"
   style="fill-rule:evenodd"
   viewBox="0 0 84.666667 100.18889"
   id="svg2"
   version="1.1"
   inkscape:version="0.48.1 "
   sodipodi:docname="VasileviÄy,_Belarus.svg"><metadata
   id="metadata18"><rdf:RDF><cc:Work
       rdf:about=""><dc:format>image/svg+xml</dc:format><dc:type
         rdf:resource="http://purl.org/dc/dcmitype/StillImage" /></cc:Work></rdf:RDF></metadata><sodipodi:namedview
   pagecolor="#ffffff"
   bordercolor="#666666"
   borderopacity="1"
   objecttolerance="10"
   gridtolerance="10"
   guidetolerance="10"
   inkscape:pageopacity="0"
   inkscape:pageshadow="2"
   inkscape:window-width="1280"
   inkscape:window-height="750"
   id="namedview16"
   showgrid="false"
   fit-margin-top="0"
   fit-margin-left="0"
   fit-margin-right="0"
   fit-margin-bottom="0"
   inkscape:zoom="1.4957746"
   inkscape:cx="35.343696"
   inkscape:cy="177.5"
   inkscape:window-x="-8"
   inkscape:window-y="-8"
   inkscape:window-maximized="1"
   inkscape:current-layer="svg2" />
 <defs
   id="defs4"><style
     type="text/css"
     id="style6">
   
    .fil0 {fill:black}
    .fil1 {fill:#006BFF}
    .fil2 {fill:white}
   
  </style></defs>
 <path
   id="path3001"
   d="m 62.583291,47.844777 c 0.82832,0 1.50001,0.67169 1.50001,1.50001 l 0,1.49966 c 0,0.82832 -0.67169,1.50001 -1.50001,1.50001 l -1.50001,0 0,-4.49968 1.50001,0 z m 0,5.99969 c 1.65664,0 3.00002,-1.34337 3.00002,-3.00002 l 0,-1.49966 c 0,-1.65664 -1.34338,-3.00002 -3.00002,-3.00002 l -3.00002,0 0,7.4997 3.00002,0 z m -6.00005,-7.4997 1.50001,0 0,7.4997 -1.50001,0 0,-7.4997 z m -3.00002,0 1.50001,0 0,7.4997 -1.50001,0 -3.00002,-4.70852 0,4.70852 -1.50001,0 0,-7.4997 1.50001,0 3.00002,4.70853 0,-4.70853 z m -22.49988,0 4.49999,0 0,1.50001 -2.99998,0 0,1.50001 2.99998,0 0,1.50001 -2.99998,0 0,1.49966 2.99998,0 0,1.50001 -4.49999,0 0,-7.4997 z m -5.99998,-3.5e-4 1.49998,0 0,6.00004 3.00002,0 0,1.50001 -4.5,0 0,-7.50005 z m 15.7504,6.00004 1.49959,0 c 1.24227,0 2.25016,-1.00753 2.25016,-2.25001 0,-1.24214 -1.02659,-2.24544 -2.25016,-2.25002 l -1.49959,0 0,1.50001 1.49959,0 c 0.41409,0 0.75015,0.3362 0.75015,0.75001 0,0.41416 -0.33606,0.75 -0.75015,0.75 l -1.49959,0 0,1.50001 z m 1.49959,-7.50005 c 2.89892,0 5.24983,2.35126 5.24983,5.25004 0,2.89912 -2.35091,5.25003 -5.24983,5.25003 -2.89902,0 -5.25,-2.35091 -5.25,-5.25003 0,-2.89878 2.35098,-5.25004 5.25,-5.25004 z m 0,1.50001 c 2.07059,0 3.75017,1.67957 3.75017,3.75003 0,2.0708 -1.67958,3.75002 -3.75017,3.75002 -2.0707,0 -3.74999,-1.67922 -3.74999,-3.75002 0,-2.07046 1.67929,-3.75003 3.74999,-3.75003 z"
   style="fill:#a90000;stroke:none"
   inkscape:connector-curvature="0" /><path
   style="fill:#000000"
   inkscape:connector-curvature="0"
   id="path10"
   d="m 84.666671,57.910597 c 0,23.34558 -18.95723,42.278293 -42.33334,42.278293 C 18.957222,100.18889 -1.3919578e-6,81.256317 -1.3919578e-6,57.910597 l 0,-57.910597 L 84.666671,0 l 0,57.910597 z"
   class="fil0" /><path
   style="fill:#3c82c2;fill-opacity:1"
   inkscape:connector-curvature="0"
   id="path12"
   d="m 84.097481,57.910597 0,-57.34215 -83.52829439,0 0,57.34215 c 0,23.03151 18.70251139,41.70984 41.76414439,41.70984 23.06164,0 41.76415,-18.67819 41.76415,-41.70984 z"
   class="fil1" /><path
   style="fill:#ffffff"
   inkscape:connector-curvature="0"
   id="path14"
   d="m 40.637151,5.204138 3.39236,0 0,13.535729 5.40287,-2.459102 0.97374,2.133382 -6.21966,2.83059 0.47229,12.78481 10.08344,-4.58993 c 0.37851,0.82965 0.75716,1.6593 1.13582,2.48895 l -11.11012,5.05705 0.45663,12.36146 14.82734,-6.74847 c 0.43272,0.94817 0.86531,1.89634 1.29803,2.84466 l -16.00057,7.28238 0.44097,11.9391 19.57166,-8.90729 c 0.48666,1.0667 0.97331,2.13353 1.46011,3.20036 l -20.89132,9.50772 0.42547,11.5176 24.3157,-11.0664 1.62232,3.55593 -25.50843,11.60969 0,8.36143 -8.90494,0 0,-8.36143 -25.508429,-11.60969 1.622327,-3.55593 24.315702,11.0664 0.42546,-11.51746 -20.891319,-9.50786 c 0.486798,-1.06683 0.973453,-2.13366 1.460109,-3.20036 l 19.57166,8.90729 0.44098,-11.9391 -16.000578,-7.28238 c 0.432725,-0.94832 0.865307,-1.89649 1.298032,-2.84466 l 14.827336,6.74847 0.45663,-12.36146 -11.11011,-5.05705 c 0.37865,-0.82965 0.7573,-1.6593 1.13581,-2.48895 l 10.08345,4.58993 0.47228,-12.78481 -6.21966,-2.83059 0.97374,-2.133382 5.40287,2.459102 0,-13.535729 z"
   class="fil2" />
</svg>