<?xml version="1.0" encoding="UTF-8" standalone="no"?>
<!-- Creator: CorelDRAW -->

<svg
   xmlns:dc="http://purl.org/dc/elements/1.1/"
   xmlns:cc="http://creativecommons.org/ns#"
   xmlns:rdf="http://www.w3.org/1999/02/22-rdf-syntax-ns#"
   xmlns:svg="http://www.w3.org/2000/svg"
   xmlns="http://www.w3.org/2000/svg"
   xmlns:xlink="http://www.w3.org/1999/xlink"
   xmlns:sodipodi="http://sodipodi.sourceforge.net/DTD/sodipodi-0.dtd"
   xmlns:inkscape="http://www.inkscape.org/namespaces/inkscape"
   xml:space="preserve"
   width="300"
   height="360"
   style="fill-rule:evenodd"
   viewBox="0 0 84.666667 101.6"
   id="svg2"
   version="1.1"
   inkscape:version="0.48.1 "
   sodipodi:docname="хойники.svg"><metadata
   id="metadata50"><rdf:RDF><cc:Work
       rdf:about=""><dc:format>image/svg+xml</dc:format><dc:type
         rdf:resource="http://purl.org/dc/dcmitype/StillImage" /><dc:title></dc:title></cc:Work></rdf:RDF></metadata><sodipodi:namedview
   pagecolor="#ffffff"
   bordercolor="#666666"
   borderopacity="1"
   objecttolerance="10"
   gridtolerance="10"
   guidetolerance="10"
   inkscape:pageopacity="0"
   inkscape:pageshadow="2"
   inkscape:window-width="1280"
   inkscape:window-height="750"
   id="namedview48"
   showgrid="false"
   inkscape:zoom="1.475"
   inkscape:cx="128.65458"
   inkscape:cy="180"
   inkscape:window-x="-8"
   inkscape:window-y="-8"
   inkscape:window-maximized="1"
   inkscape:current-layer="svg2"
   fit-margin-top="0"
   fit-margin-left="0"
   fit-margin-right="0"
   fit-margin-bottom="0" />
 <defs
   id="defs4"><linearGradient
   y2="153.509"
   x2="100.045"
   y1="143.36099"
   x1="109.955"
   gradientUnits="userSpaceOnUse"
   id="linearGradient3090">
   <stop
   id="stop3092"
   style="stop-color:#f2f2f2;stop-opacity:1"
   offset="0" />
   <stop
   id="stop3094"
   style="stop-color:#ffffff;stop-opacity:1"
   offset="1" />
  </linearGradient>
  <style
   type="text/css"
   id="style6">
   
    .str2 {stroke:black;stroke-width:0.0762}
    .str0 {stroke:black;stroke-width:0.1764}
    .str1 {stroke:#B2B2B2;stroke-width:0.1764}
    .fil6 {fill:none}
    .fil0 {fill:black}
    .fil2 {fill:#41A147}
    .fil3 {fill:#B2B2B2}
    .fil4 {fill:#FEED01}
    .fil5 {fill:gold}
    .fil1 {fill:url(#id0)}
   
  </style>
  <linearGradient
   id="id0"
   gradientUnits="userSpaceOnUse"
   x1="109.955"
   y1="143.36099"
   x2="100.045"
   y2="153.509">
   <stop
   offset="0"
   style="stop-color:#EFEFEF"
   id="stop9" />
   <stop
   offset="1"
   style="stop-color:white"
   id="stop11" />
  </linearGradient>
 
  
  
  
  
  
  
  
  
  
 
 <style
   id="style3118"
   type="text/css">
   
    .str0 {stroke:#FF6600;stroke-width:0.7056}
    .fil1 {fill:none}
    .fil0 {fill:#A90000}
   
  </style>
  
  
  
  
 <linearGradient
   inkscape:collect="always"
   xlink:href="#linearGradient3090"
   id="linearGradient3163"
   gradientUnits="userSpaceOnUse"
   x1="127.85233"
   y1="121.01962"
   x2="112.53152"
   y2="137.0907"
   gradientTransform="matrix(1.8388209,0,0,1.8413136,-150.74286,-222.51686)" /><filter
   id="filter3800"
   inkscape:label="Drop shadow"
   width="1.5"
   height="1.5"
   x="-.25"
   y="-.25"><feGaussianBlur
     id="feGaussianBlur3802"
     in="SourceAlpha"
     stdDeviation="2"
     result="blur" /><feColorMatrix
     id="feColorMatrix3804"
     result="bluralpha"
     type="matrix"
     values="1 0 0 0 0 0 1 0 0 0 0 0 1 0 0 0 0 0 0.5 0 " /><feOffset
     id="feOffset3806"
     in="bluralpha"
     dx="2"
     dy="2"
     result="offsetBlur" /><feMerge
     id="feMerge3808"><feMergeNode
       id="feMergeNode3810"
       in="offsetBlur" /><feMergeNode
       id="feMergeNode3812"
       in="SourceGraphic" /></feMerge></filter></defs>
 <path
   style="fill:#a90000"
   inkscape:connector-curvature="0"
   class="fil0"
   d="m 62.583334,48.5501 c 0.828299,0 1.5,0.6717 1.5,1.5 l 0,1.4998 c 0,0.8283 -0.671701,1.5 -1.5,1.5 l -1.5,0 0,-4.4998 1.5,0 z m 0,5.9998 c 1.6566,0 3,-1.3434 3,-3 l 0,-1.4998 c 0,-1.6566 -1.3434,-3 -3,-3 l -3,0 0,7.4998 3,0 z m -6,-7.4998 1.5,0 0,7.4998 -1.5,0 0,-7.4998 z m -3,0 1.5,0 0,7.4998 -1.5,0 -3,-4.7086 0,4.7086 -1.5,0 0,-7.4998 1.5,0 3,4.7086 0,-4.7086 z m -22.5,10e-5 4.5,0 0,1.5 -3,0 0,1.4999 3,0 0,1.5 -3,0 0,1.4999 3,0 0,1.5 -4.5,0 0,-7.4998 z m -6,-2e-4 1.5,0 0,6 3,0 0,1.5 -4.5,0 0,-7.5 z m 15.750399,6 1.499601,0 c 1.242399,0 2.25,-1.0076 2.25,-2.25 0,-1.2424 -1.0263,-2.2457 -2.25,-2.25 l -1.499601,0 0,1.5 1.499601,0 c 0.414099,0 0.75,0.3359 0.75,0.75 0,0.4141 -0.335901,0.75 -0.75,0.75 l -1.499601,0 0,1.5 z m 1.499601,-7.5 c 2.899,0 5.25,2.351 5.25,5.25 0,2.899 -2.351,5.25 -5.25,5.25 -2.899001,0 -5.25,-2.351 -5.25,-5.25 0,-2.899 2.350999,-5.25 5.25,-5.25 z m 0,1.5 c 2.0707,0 3.75,1.6793 3.75,3.75 0,2.0707 -1.6793,3.75 -3.75,3.75 -2.070701,0 -3.75,-1.6793 -3.75,-3.75 0,-2.0707 1.679299,-3.75 3.75,-3.75 z"
   id="path3122" /><path
   style="fill:#000000"
   inkscape:connector-curvature="0"
   id="path15"
   d="M -2.5980002e-7,66.755348 C 0.09947995,67.605114 0.22635859,68.447331 0.38431331,69.279789 3.8661207,87.637685 21.325541,101.6 42.333334,101.6 c 21.007426,0 38.466479,-13.961762 41.948838,-32.318922 0.157955,-0.833011 0.285017,-1.675596 0.384497,-2.52573 l 0,-66.75535164352 -84.66666925980001,0 0,66.75535164352 z"
   class="fil0" /><path
   inkscape:connector-curvature="0"
   style="fill:url(#linearGradient3163)"
   id="path17"
   d="m 81.610549,76.475642 c 1.302069,-3.079597 2.184151,-6.35069 2.584463,-9.753806 l 0,-66.25340946 -83.72298693,0 0,66.25340946 c 0.40031131,3.403668 1.28276143,6.674946 2.58501443,9.755095 6.0986334,14.42301 21.3860385,24.652979 39.2764785,24.652979 17.890992,0 33.178581,-10.230522 39.277031,-24.654268 z"
   class="fil1" /><path
   style="fill:#41a147;stroke:#000000;stroke-width:0.32455556;stroke-miterlimit:4;stroke-dasharray:none"
   inkscape:connector-curvature="0"
   id="path19"
   d="m 73.653971,61.715673 c -0.285753,8.749738 -6.497658,16.000462 -14.74624,17.85577 7.73077,2.228174 17.937697,-0.275092 23.985028,-5.872317 -0.169172,0.518329 -0.349744,1.033161 -0.542269,1.543205 -0.164022,0.43455 -0.339446,0.872414 -0.525167,1.312488 l -7.35e-4,0.0018 -0.0037,0.0092 -3.68e-4,-1.84e-4 C 78.151911,85.240479 71.180573,92.406688 62.322421,96.765813 56.125962,99.814661 49.239762,101.35713 42.335357,101.35805 28.002668,101.3586 13.822049,94.497683 5.9502403,82.397307 4.7478353,80.549365 3.7074304,78.600518 2.8477817,76.567708 l -3.678e-4,1.84e-4 -0.0011,-0.0018 0,-9.21e-4 C 1.5234629,73.435634 0.63512848,70.114825 0.24382739,66.738776 l -0.001471,-66.50125019 16.25830261,0 C 14.808208,7.1971388 9.2774028,12.653319 2.2806893,14.226906 10.908253,16.713416 20.423967,14.006869 26.465046,7.2612165 26.179293,16.010955 19.967388,23.2626 11.718989,25.117908 20.346001,27.60497 29.862451,24.897318 35.902978,18.152218 35.617225,26.901956 29.40532,34.153602 21.156737,36.008909 29.78375,38.495972 39.300199,35.78832 45.340542,29.04322 45.054789,37.792958 38.843069,45.044603 30.59467,46.899911 39.221682,49.386973 48.737948,46.679322 54.778474,39.934222 54.492722,48.68396 48.280817,55.935421 40.032418,57.790728 48.65943,60.277791 58.175696,57.570139 64.216223,50.825223 63.93047,59.574961 57.718197,66.82587 49.469615,68.680994 58.097178,71.16824 67.612709,68.462246 73.653971,61.716225 z"
   class="fil2 str0" />
<path
   style="fill:#000000;fill-opacity:1;fill-rule:evenodd;stroke:#000000;stroke-width:0.32458782000000003;stroke-opacity:1;filter:url(#filter3800)"
   d="m 21.957769,55.971102 0,2.231319 0.255764,0 0,1.049514 0.537986,0 0,0.617361 0,7.963958 -1.199445,0 0,-0.837847 -1.120069,0 0,0.837847 -0.696736,0 0,-1.190625 0.537986,0 0,-1.049514 0.264583,0 0,-2.231319 -0.564444,0 0,0.908403 -0.881945,0 0,-0.908403 -1.120069,0 0,0.908403 -0.890764,0 0,-0.908403 -1.12007,0 0,0.908403 -0.881943,0 0,-0.908403 -1.12007,0 0,0.908403 -0.890764,0 0,-0.908403 -0.617361,0 0,2.231319 0.255763,0 0,1.049514 0.537987,0 0,0.617361 0,8.784167 -0.379237,0 0,0.670278 -0.432152,0 0,2.892778 8.113889,0 0,-0.299862 10.900833,0 0,0.299862 8.113889,0 0,-2.892778 -0.432153,0 0,-0.670278 -0.379236,0 0,-9.401528 0.537986,0 0,-1.049514 0.264583,0 0,-2.231319 -0.590903,0 0,0.908403 -0.890763,0 0,-0.908403 -1.12007,0 0,0.908403 -0.881944,0 0,-0.908403 -1.12007,0 0,0.908403 -0.890764,0 0,-0.908403 -1.120069,0 0,0.908403 -0.881945,0 0,-0.908403 -0.590902,0 0,2.231319 0.255764,0 0,1.049514 0.537986,0 0,0.617361 0,0.573264 -0.687917,0 0,-0.837847 -1.128889,0 0,0.837847 -1.199444,0 0,-8.581319 0.537986,0 0,-1.049514 0.264583,0 0,-2.231319 -0.564444,0 0,0.908402 -0.881945,0 0,-0.908402 -1.120069,0 0,0.908402 -0.890764,0 0,-0.908402 -1.120069,0 0,0.908402 -0.881945,0 0,-0.908402 -1.120069,0 0,0.908402 -0.890764,0 0,-0.908402 -0.617361,0 z"
   inkscape:connector-curvature="0"
   id="path45" /><g
   id="g3166"><g
     transform="matrix(1.8388209,0,0,1.8413136,-150.74286,-222.51686)"
     id="_150881928">
   <polygon
   id="_151146776"
   class="fil4 str0"
   points="98.1746,152.456 94.0573,152.456 94.0573,153.025 94.3509,153.025 94.3509,158.133 97.881,158.133 97.881,153.025 98.1746,153.025 "
   style="fill:#feed01;stroke:#000000;stroke-width:0.17640001" />
   <polygon
   id="_151146656"
   class="fil5 str0"
   points="98.1746,152.456 94.0573,152.456 94.0573,153.025 94.3509,153.025 94.3509,153.36 97.881,153.36 97.881,153.025 98.1746,153.025 "
   style="fill:#ffd700;stroke:#000000;stroke-width:0.17640001" />
   <polygon
   id="_151149608"
   class="fil4 str0"
   points="96.9191,151.738 96.9191,151.243 97.5284,151.243 97.5284,151.738 98.0101,151.738 98.0101,151.243 98.3148,151.243 98.3148,152.456 93.9175,152.456 93.9175,151.243 94.2551,151.243 94.2551,151.738 94.7369,151.738 94.7369,151.243 95.3462,151.243 95.3462,151.738 95.8279,151.738 95.8279,151.243 96.4373,151.243 96.4373,151.738 "
   style="fill:#feed01;stroke:#000000;stroke-width:0.17640001" />
   <polygon
   id="_151146536"
   class="fil0"
   points="95.5846,155.776 95.5846,153.864 96.6472,153.864 96.6472,155.776 "
   style="fill:#000000" />
  </g><g
     transform="matrix(1.8388209,0,0,1.8413136,-150.74286,-222.51686)"
     id="_220122448">
   <polygon
   id="_150691592"
   class="fil5 str0"
   points="96.4207,157.684 97.1732,157.684 97.1732,157.233 97.7826,157.233 97.7826,157.684 98.5351,157.684 98.5351,157.233 99.1444,157.233 99.1444,157.684 99.856,157.684 99.856,163.917 92.3758,163.917 92.3758,157.684 93.0875,157.684 93.0875,157.233 93.6969,157.233 93.6969,157.684 94.4494,157.684 94.4494,157.233 95.0588,157.233 95.0588,157.684 95.8113,157.684 95.8113,157.233 96.4207,157.233 "
   style="fill:#ffd700;stroke:#000000;stroke-width:0.17640001" />
   <rect
   id="_220119496"
   class="fil6 str0"
   x="92.375801"
   y="162.50999"
   width="6.9316502"
   height="1.40773"
   style="fill:none;stroke:#000000;stroke-width:0.17640001" />
   <line
   id="_150691808"
   class="fil6 str0"
   x1="99.856003"
   y1="158.088"
   x2="92.375801"
   y2="158.088"
   style="fill:none;stroke:#000000;stroke-width:0.17640001" />
   <path
   id="_151139864"
   class="fil0 str2"
   d="m 97.6936,159.25 0.2153,0 0,-0.2077 0.3813,0 0,0.2077 0.2153,0 0,1.3544 -0.8119,0 0,-1.3544 z m -3.9672,0 0.2153,0 0,-0.2077 0.3813,0 0,0.2077 0.2153,0 0,1.3544 -0.8119,0 0,-1.3544 z"
   inkscape:connector-curvature="0"
   style="fill:#000000;stroke:#000000;stroke-width:0.0762" />
   <polygon
   id="_150738328"
   class="fil0 str0"
   points="96.5308,160.888 96.5308,161.165 96.9194,161.165 96.9194,163.917 95.3125,163.917 95.3125,161.165 95.701,161.165 95.701,160.888 "
   style="fill:#000000;stroke:#000000;stroke-width:0.17640001" />
  </g><g
     transform="matrix(1.8388209,0,0,1.8413136,-150.74286,-222.51686)"
     id="_150825008">
   <rect
   id="_151149368"
   class="fil5 str0"
   x="99.0811"
   y="162.50999"
   width="4.4100099"
   height="1.57191"
   style="fill:#ffd700;stroke:#000000;stroke-width:0.17640001" />
   <polygon
   id="_151147328"
   class="fil4 str0"
   points="103.258,162.146 103.051,162.146 103.051,157.038 103.345,157.038 103.345,156.469 99.2275,156.469 99.2275,157.038 99.5211,157.038 99.5211,162.146 99.3145,162.146 99.3145,162.51 103.258,162.51 "
   style="fill:#feed01;stroke:#000000;stroke-width:0.17640001" />
   <polygon
   id="_151140824"
   class="fil5 str0"
   points="99.2275,157.038 99.5211,157.038 99.5211,157.373 103.051,157.373 103.051,157.038 103.345,157.038 103.345,156.469 99.2275,156.469 "
   style="fill:#ffd700;stroke:#000000;stroke-width:0.17640001" />
   <line
   id="_150508744"
   class="fil6 str0"
   x1="99.521103"
   y1="161.72501"
   x2="103.051"
   y2="161.72501"
   style="fill:none;stroke:#000000;stroke-width:0.17640001" />
   <polygon
   id="_150508648"
   class="fil0"
   points="101.817,157.876 101.817,159.789 100.755,159.789 100.755,157.876 "
   style="fill:#000000" />
   <polygon
   id="_220119688"
   class="fil4 str0"
   points="102.682,155.256 102.682,155.751 103.164,155.751 103.164,155.256 103.485,155.256 103.485,156.469 99.0876,156.469 99.0876,155.256 99.4087,155.256 99.4087,155.751 99.8905,155.751 99.8905,155.256 100.5,155.256 100.5,155.751 100.982,155.751 100.982,155.256 101.591,155.256 101.591,155.751 102.073,155.751 102.073,155.256 "
   style="fill:#feed01;stroke:#000000;stroke-width:0.17640001" />
  </g><g
     transform="matrix(1.8388209,0,0,1.8413136,-150.74286,-222.51686)"
     id="_220130320">
   <rect
   id="_220116880"
   class="fil5 str0"
   x="88.7407"
   y="162.50999"
   width="4.4100099"
   height="1.57191"
   style="fill:#ffd700;stroke:#000000;stroke-width:0.17640001" />
   <polygon
   id="_220124848"
   class="fil4 str0"
   points="88.9741,162.51 92.9173,162.51 92.9173,162.146 92.7107,162.146 92.7107,157.038 93.0044,157.038 93.0044,156.469 88.887,156.469 88.887,157.038 89.1807,157.038 89.1807,162.146 88.9741,162.146 "
   style="fill:#feed01;stroke:#000000;stroke-width:0.17640001" />
   <polygon
   id="_150738856"
   class="fil5 str0"
   points="93.0044,156.469 88.887,156.469 88.887,157.038 89.1807,157.038 89.1807,157.373 92.7107,157.373 92.7107,157.038 93.0044,157.038 "
   style="fill:#ffd700;stroke:#000000;stroke-width:0.17640001" />
   <line
   id="_220129192"
   class="fil6 str0"
   x1="89.180702"
   y1="161.72501"
   x2="92.710701"
   y2="161.72501"
   style="fill:none;stroke:#000000;stroke-width:0.17640001" />
   <polygon
   id="_220123048"
   class="fil0"
   points="90.4144,159.789 90.4144,157.876 91.477,157.876 91.477,159.789 "
   style="fill:#000000" />
   <polygon
   id="_151147208"
   class="fil4 str0"
   points="91.7487,155.751 91.7487,155.256 92.358,155.256 92.358,155.751 92.8397,155.751 92.8397,155.256 93.1444,155.256 93.1444,156.469 88.7471,156.469 88.7471,155.256 89.0847,155.256 89.0847,155.751 89.5665,155.751 89.5665,155.256 90.1758,155.256 90.1758,155.751 90.6575,155.751 90.6575,155.256 91.2669,155.256 91.2669,155.751 "
   style="fill:#feed01;stroke:#000000;stroke-width:0.17638248;stroke-miterlimit:4;stroke-dasharray:none" />
  </g></g></svg>