<?xml version="1.0" encoding="UTF-8" standalone="no"?>
<!-- Creator: CorelDRAW -->

<svg
   xmlns:dc="http://purl.org/dc/elements/1.1/"
   xmlns:cc="http://creativecommons.org/ns#"
   xmlns:rdf="http://www.w3.org/1999/02/22-rdf-syntax-ns#"
   xmlns:svg="http://www.w3.org/2000/svg"
   xmlns="http://www.w3.org/2000/svg"
   xmlns:sodipodi="http://sodipodi.sourceforge.net/DTD/sodipodi-0.dtd"
   xmlns:inkscape="http://www.inkscape.org/namespaces/inkscape"
   xml:space="preserve"
   width="300"
   height="355"
   style="fill-rule:evenodd"
   viewBox="0 0 84.666667 100.18889"
   id="svg2"
   version="1.1"
   inkscape:version="0.48.1 "
   sodipodi:docname="чечерский.svg"><metadata
   id="metadata18"><rdf:RDF><cc:Work
       rdf:about=""><dc:format>image/svg+xml</dc:format><dc:type
         rdf:resource="http://purl.org/dc/dcmitype/StillImage" /></cc:Work></rdf:RDF></metadata><sodipodi:namedview
   pagecolor="#ffffff"
   bordercolor="#666666"
   borderopacity="1"
   objecttolerance="10"
   gridtolerance="10"
   guidetolerance="10"
   inkscape:pageopacity="0"
   inkscape:pageshadow="2"
   inkscape:window-width="640"
   inkscape:window-height="480"
   id="namedview16"
   showgrid="false"
   fit-margin-top="0"
   fit-margin-left="0"
   fit-margin-right="0"
   fit-margin-bottom="0"
   inkscape:zoom="0.73521127"
   inkscape:cx="150.00001"
   inkscape:cy="177.5"
   inkscape:window-x="0"
   inkscape:window-y="0"
   inkscape:window-maximized="0"
   inkscape:current-layer="svg2" />
 <defs
   id="defs4"><style
     type="text/css"
     id="style6">
   
    .fil0 {fill:black}
    .fil1 {fill:#DA251D}
    .fil2 {fill:white;fill-rule:nonzero}
   
  </style></defs>
 <path
   id="path3001"
   d="m 62.583292,47.844781 c 0.828322,0 1.500011,0.671689 1.500011,1.500012 l 0,1.499658 c 0,0.828322 -0.671689,1.500011 -1.500011,1.500011 l -1.500012,0 0,-4.499681 1.500012,0 z m 0,5.999692 c 1.656644,0 3.000022,-1.343378 3.000022,-3.000022 l 0,-1.499658 c 0,-1.656645 -1.343378,-3.000023 -3.000022,-3.000023 l -3.000023,0 0,7.499703 3.000023,0 z m -6.000045,-7.499703 1.500011,0 0,7.499703 -1.500011,0 0,-7.499703 z m -3.000022,0 1.500011,0 0,7.499703 -1.500011,0 -3.000022,-4.708525 0,4.708525 -1.500011,0 0,-7.499703 1.500011,0 3.000022,4.708525 0,-4.708525 z m -22.499884,0 4.499998,0 0,1.500011 -2.999987,0 0,1.500012 2.999987,0 0,1.500011 -2.999987,0 0,1.499658 2.999987,0 0,1.500011 -4.499998,0 0,-7.499703 z m -5.999974,-3.52e-4 1.499976,0 0,6.000044 3.000022,0 0,1.500011 -4.499998,0 0,-7.500055 z m 15.750399,6.000044 1.499588,0 c 1.242271,0 2.250157,-1.007533 2.250157,-2.250017 0,-1.24213 -1.026583,-2.24543 -2.250157,-2.250016 l -1.499588,0 0,1.500011 1.499588,0 c 0.41409,0 0.750146,0.336197 0.750146,0.750005 0,0.414161 -0.336056,0.750006 -0.750146,0.750006 l -1.499588,0 0,1.500011 z m 1.499588,-7.500055 c 2.898916,0 5.249827,2.351263 5.249827,5.250038 0,2.899128 -2.350911,5.250039 -5.249827,5.250039 -2.899022,0 -5.250004,-2.350911 -5.250004,-5.250039 0,-2.898775 2.350982,-5.250038 5.250004,-5.250038 z m 0,1.500011 c 2.070594,0 3.750168,1.679575 3.750168,3.750027 0,2.070806 -1.679574,3.750028 -3.750168,3.750028 -2.0707,0 -3.749993,-1.679222 -3.749993,-3.750028 0,-2.070452 1.679293,-3.750027 3.749993,-3.750027 z"
   style="fill:#a90000;stroke:none"
   inkscape:connector-curvature="0" /><path
   style="fill:#000000"
   inkscape:connector-curvature="0"
   id="path10"
   d="m 84.666671,57.910587 c 0,23.345648 -18.957162,42.278303 -42.333335,42.278303 C 18.957163,100.18889 1.0624e-6,81.256373 1.0624e-6,57.910587 l 0,-57.91058734759998 84.6666699376,0 0,57.91058734759998 z"
   class="fil0" /><path
   style="fill:#da251d"
   inkscape:connector-curvature="0"
   id="path12"
   d="m 84.096948,56.079648 0,-55.51080345 -83.52832726,0 0,57.11773145 3.62098446,-3.810393 4.0000642,3.791381 4.6884226,-4.933755 -3.9999265,-3.791105 c 2.7814355,-2.931432 5.5665965,-5.860246 8.3513425,-8.788509 l 4.000065,3.791243 4.688422,-4.933755 -3.99965,-3.790967 8.35148,-8.788234 3.999651,3.79083 4.68856,-4.933755 -3.99965,-3.790968 c 2.710531,-2.856623 5.424786,-5.710491 8.137938,-8.564635 2.713152,2.854144 5.427407,5.708012 8.137938,8.564635 l -3.999651,3.790968 4.688561,4.933755 3.99965,-3.79083 8.351481,8.788234 -3.99965,3.790967 4.688422,4.933755 4.000064,-3.791243 c 2.784747,2.928263 5.569907,5.857077 8.351343,8.788509 l -3.999926,3.791105 4.688422,4.933755 4.000064,-3.791381 2.093906,2.203465 z M 6.2188132,78.865268 C 13.45554,91.275703 26.919356,99.620874 42.332784,99.620874 c 15.826719,0 29.600227,-8.798015 36.68466,-21.76214 L 43.096324,40.058308 6.2188132,78.865268 z"
   class="fil1" /><path
   style="fill:#ffffff;fill-rule:nonzero"
   inkscape:connector-curvature="0"
   id="path14"
   d="m 84.096948,56.783643 -2.111839,-2.222339 -4.000202,3.791243 c -1.785455,-1.87902 -3.571875,-3.757627 -5.356778,-5.637199 l 4.000064,-3.791105 -7.682987,-8.085065 -4.000202,3.791381 C 63.160239,42.75085 61.373818,40.872243 59.588226,38.99336 l 3.999788,-3.791105 -7.683125,-8.084789 -3.999788,3.790967 c -1.784765,-1.879709 -3.571324,-3.758316 -5.356916,-5.637199 l 3.999788,-3.791105 -7.451649,-7.84218 -7.451649,7.84218 3.999788,3.791105 c -1.785593,1.878883 -3.572151,3.75749 -5.356916,5.637199 l -3.999788,-3.790967 -7.683126,8.084789 3.999789,3.791105 c -1.785593,1.878883 -3.572013,3.75749 -5.356778,5.637199 l -4.000202,-3.791381 -7.6829876,8.085065 4.0000646,3.791105 C 11.779616,54.59492 9.9931953,56.473527 8.2077406,58.352547 L 4.2075384,54.561304 0.57469043,58.384234 C 0.65594152,65.664044 2.60514,72.496382 5.9663692,78.426063 L 43.096324,39.353624 79.258163,77.407405 c 3.087679,-5.819191 4.838785,-12.453832 4.838785,-19.496818 l 0,-1.126944 z"
   class="fil2" />
</svg>