<?xml version="1.0" encoding="UTF-8" standalone="no"?>
<!-- Created with Inkscape (http://www.inkscape.org/) -->

<svg
   xmlns:dc="http://purl.org/dc/elements/1.1/"
   xmlns:cc="http://creativecommons.org/ns#"
   xmlns:rdf="http://www.w3.org/1999/02/22-rdf-syntax-ns#"
   xmlns:svg="http://www.w3.org/2000/svg"
   xmlns="http://www.w3.org/2000/svg"
   xmlns:sodipodi="http://sodipodi.sourceforge.net/DTD/sodipodi-0.dtd"
   xmlns:inkscape="http://www.inkscape.org/namespaces/inkscape"
   width="350"
   height="467"
   id="svg3298"
   version="1.1"
   inkscape:version="0.48.1 "
   sodipodi:docname="Островец_кон.svg">
  <defs
     id="defs3300">
 <style
   id="style3326"
   type="text/css">
   
    .str0 {stroke:#FF6600;stroke-width:0.7056}
    .fil1 {fill:none}
    .fil0 {fill:#A90000}
   
  </style>

  <linearGradient
   id="linearGradient3947"
   spreadMethod="pad"
   gradientTransform="matrix(127.07892,79.42432,-80.14981,128.2397,357.5174,393.6835)"
   gradientUnits="userSpaceOnUse"
   y2="0"
   x2="0.73000002"
   y1="0"
   x1="0.27000001">
  <stop
     id="stop3949"
     offset="0"
     style="stop-opacity:1;stop-color:#00824b" />
  <stop
     id="stop3951"
     offset="1"
     style="stop-opacity:1;stop-color:#40aa50" />
</linearGradient>
<linearGradient
   id="linearGradient3925"
   spreadMethod="pad"
   gradientTransform="matrix(83.82962,-101.79311,108.50832,89.3598,318.401,498.5325)"
   gradientUnits="userSpaceOnUse"
   y2="0"
   x2="0.63999999"
   y1="0"
   x1="0.36000001">
  <stop
     id="stop3927"
     offset="0"
     style="stop-opacity:1;stop-color:#00824b" />
  <stop
     id="stop3929"
     offset="1"
     style="stop-opacity:1;stop-color:#40aa50" />
</linearGradient>
<linearGradient
   id="linearGradient3903"
   spreadMethod="pad"
   gradientTransform="matrix(74.28695,138.53513,-124.57949,66.80349,342.4309,457.4149)"
   gradientUnits="userSpaceOnUse"
   y2="0"
   x2="0.69999999"
   y1="0"
   x1="0.30000001">
  <stop
     id="stop3905"
     offset="0"
     style="stop-opacity:1;stop-color:#00824b" />
  <stop
     id="stop3907"
     offset="1"
     style="stop-opacity:1;stop-color:#40aa50" />
</linearGradient>
<linearGradient
   id="linearGradient3881"
   spreadMethod="pad"
   gradientTransform="matrix(67.08818,-9.58402,12.60754,88.25277,323.9484,535.3019)"
   gradientUnits="userSpaceOnUse"
   y2="0"
   x2="0.70999998"
   y1="0"
   x1="0.28999999">
  <stop
     id="stop3883"
     offset="0"
     style="stop-opacity:1;stop-color:#00824b" />
  <stop
     id="stop3885"
     offset="1"
     style="stop-opacity:1;stop-color:#40aa50" />
</linearGradient>
<linearGradient
   id="linearGradient3859"
   spreadMethod="pad"
   gradientTransform="matrix(80.38995,16.55087,-16.40785,79.69529,350.8367,507.9716)"
   gradientUnits="userSpaceOnUse"
   y2="0"
   x2="0.67000002"
   y1="0"
   x1="0.33000001">
  <stop
     id="stop3861"
     offset="0"
     style="stop-opacity:1;stop-color:#00824b" />
  <stop
     id="stop3863"
     offset="1"
     style="stop-opacity:1;stop-color:#40aa50" />
</linearGradient>
<linearGradient
   id="linearGradient3837"
   spreadMethod="pad"
   gradientTransform="matrix(-97.04254,59.71848,-66.39743,-107.89583,376.5509,606.0487)"
   gradientUnits="userSpaceOnUse"
   y2="0"
   x2="0.67000002"
   y1="0"
   x1="0.33000001">
  <stop
     id="stop3839"
     offset="0"
     style="stop-opacity:1;stop-color:#00824b" />
  <stop
     id="stop3841"
     offset="1"
     style="stop-opacity:1;stop-color:#40aa50" />
</linearGradient>
<linearGradient
   id="linearGradient3815"
   spreadMethod="pad"
   gradientTransform="matrix(-63.7855,1.55574,-2.48213,-101.76753,302.4343,629.8889)"
   gradientUnits="userSpaceOnUse"
   y2="0"
   x2="0.75999999"
   y1="0"
   x1="0.23999999">
  <stop
     id="stop3817"
     offset="0"
     style="stop-opacity:1;stop-color:#00824b" />
  <stop
     id="stop3819"
     offset="1"
     style="stop-opacity:1;stop-color:#40aa50" />
</linearGradient>
<linearGradient
   id="linearGradient3793"
   spreadMethod="pad"
   gradientTransform="matrix(2.84006,106.5023,-61.15927,1.63091,249.1424,504.123)"
   gradientUnits="userSpaceOnUse"
   y2="0"
   x2="0.70999998"
   y1="0"
   x1="0.28999999">
  <stop
     id="stop3795"
     offset="0"
     style="stop-opacity:1;stop-color:#00824b" />
  <stop
     id="stop3797"
     offset="1"
     style="stop-opacity:1;stop-color:#40aa50" />
</linearGradient>
<linearGradient
   id="linearGradient3771"
   spreadMethod="pad"
   gradientTransform="matrix(-83.29127,-11.48845,11.71933,-84.96515,244.2753,600.2739)"
   gradientUnits="userSpaceOnUse"
   y2="0"
   x2="0.63999999"
   y1="0"
   x1="0.36000001">
  <stop
     id="stop3773"
     offset="0"
     style="stop-opacity:1;stop-color:#00824b" />
  <stop
     id="stop3775"
     offset="1"
     style="stop-opacity:1;stop-color:#40aa50" />
</linearGradient>
<linearGradient
   id="linearGradient3749"
   spreadMethod="pad"
   gradientTransform="matrix(-128.88539,76.63456,-77.72153,-130.71348,314.231,524.969)"
   gradientUnits="userSpaceOnUse"
   y2="0"
   x2="0.73000002"
   y1="0"
   x1="0.27000001">
  <stop
     id="stop3751"
     offset="0"
     style="stop-opacity:1;stop-color:#00824b" />
  <stop
     id="stop3753"
     offset="1"
     style="stop-opacity:1;stop-color:#40aa50" />
</linearGradient>
<linearGradient
   id="linearGradient3727"
   spreadMethod="pad"
   gradientTransform="matrix(-77.83439,-90.12403,91.81905,-79.29827,187.9435,564.9979)"
   gradientUnits="userSpaceOnUse"
   y2="0"
   x2="0.69999999"
   y1="0"
   x1="0.30000001">
  <stop
     id="stop3729"
     offset="0"
     style="stop-opacity:1;stop-color:#00824b" />
  <stop
     id="stop3731"
     offset="1"
     style="stop-opacity:1;stop-color:#40aa50" />
</linearGradient>
<linearGradient
   id="linearGradient3705"
   spreadMethod="pad"
   gradientTransform="matrix(-43.64709,-53.56688,54.83001,-44.67631,194.2109,602.6627)"
   gradientUnits="userSpaceOnUse"
   y2="0"
   x2="0.68000001"
   y1="0"
   x1="0.31999999">
  <stop
     id="stop3707"
     offset="0"
     style="stop-opacity:1;stop-color:#00824b" />
  <stop
     id="stop3709"
     offset="1"
     style="stop-opacity:1;stop-color:#40aa50" />
</linearGradient>
<linearGradient
   id="linearGradient3685"
   spreadMethod="pad"
   gradientTransform="matrix(-3.81445,-4.68137,4.96243,-4.04346,182.4358,567.0927)"
   gradientUnits="userSpaceOnUse"
   y2="0"
   x2="0.67000002"
   y1="0"
   x1="0.33000001">
  <stop
     id="stop3687"
     offset="0"
     style="stop-opacity:1;stop-color:#00824b" />
  <stop
     id="stop3689"
     offset="1"
     style="stop-opacity:1;stop-color:#40aa50" />
</linearGradient>
<linearGradient
   id="linearGradient3665"
   spreadMethod="pad"
   gradientTransform="matrix(-68.32155,-79.3018,78.44299,-67.58166,362.3443,591.8199)"
   gradientUnits="userSpaceOnUse"
   y2="0"
   x2="0.82999998"
   y1="0"
   x1="0.17">
  <stop
     id="stop3667"
     offset="0"
     style="stop-opacity:1;stop-color:#00824b" />
  <stop
     id="stop3669"
     offset="1"
     style="stop-opacity:1;stop-color:#40aa50" />
</linearGradient>
<linearGradient
   id="linearGradient3645"
   spreadMethod="pad"
   gradientTransform="matrix(-57.47628,-101.20823,95.20275,-54.06576,311.3912,617.6276)"
   gradientUnits="userSpaceOnUse"
   y2="0"
   x2="0.82999998"
   y1="0"
   x1="0.17">
  <stop
     id="stop3647"
     offset="0"
     style="stop-opacity:1;stop-color:#00824b" />
  <stop
     id="stop3649"
     offset="1"
     style="stop-opacity:1;stop-color:#40aa50" />
</linearGradient>
<linearGradient
   id="linearGradient3625"
   spreadMethod="pad"
   gradientTransform="matrix(45.12457,-126.65419,86.6995,30.88944,192.1275,589.985)"
   gradientUnits="userSpaceOnUse"
   y2="0"
   x2="0.69"
   y1="0"
   x1="0.31">
  <stop
     id="stop3627"
     offset="0"
     style="stop-opacity:1;stop-color:#00824b" />
  <stop
     id="stop3629"
     offset="1"
     style="stop-opacity:1;stop-color:#40aa50" />
</linearGradient>
<linearGradient
   id="linearGradient3605"
   spreadMethod="pad"
   gradientTransform="matrix(60.51155,-46.81082,44.90762,58.05131,172.3286,516.678)"
   gradientUnits="userSpaceOnUse"
   y2="0"
   x2="0.86000001"
   y1="0"
   x1="0.14">
  <stop
     id="stop3607"
     offset="0"
     style="stop-opacity:1;stop-color:#00824b" />
  <stop
     id="stop3609"
     offset="1"
     style="stop-opacity:1;stop-color:#40aa50" />
</linearGradient>
<linearGradient
   id="linearGradient3505"
   spreadMethod="pad"
   gradientTransform="matrix(-62.73595,-23.26619,24.0628,-64.88395,410.4536,332.0484)"
   gradientUnits="userSpaceOnUse"
   y2="0"
   x2="0.77999997"
   y1="0"
   x1="0.22">
  <stop
     id="stop3507"
     offset="0"
     style="stop-opacity:1;stop-color:#cccccc" />
  <stop
     id="stop3509"
     offset="1"
     style="stop-opacity:1;stop-color:#ffffff" />
</linearGradient>
<linearGradient
   id="linearGradient3487"
   spreadMethod="pad"
   gradientTransform="matrix(-23.4692,-140.8152,200.3395,-33.38992,192.4438,372.3483)"
   gradientUnits="userSpaceOnUse"
   y2="0"
   x2="0.60000002"
   y1="0"
   x1="0.40000001">
  <stop
     id="stop3489"
     offset="0"
     style="stop-opacity:1;stop-color:#cccccc" />
  <stop
     id="stop3491"
     offset="1"
     style="stop-opacity:1;stop-color:#ffffff" />
</linearGradient>
<linearGradient
   id="linearGradient3469"
   spreadMethod="pad"
   gradientTransform="matrix(-27.71373,-1.38569,0.35229,-7.04578,366.3142,290.9259)"
   gradientUnits="userSpaceOnUse"
   y2="0"
   x2="0.62"
   y1="0"
   x1="0.38">
  <stop
     id="stop3471"
     offset="0"
     style="stop-opacity:1;stop-color:#e5e5e5" />
  <stop
     id="stop3473"
     offset="1"
     style="stop-opacity:1;stop-color:#ffffff" />
</linearGradient>
<linearGradient
   id="linearGradient3447"
   spreadMethod="pad"
   gradientTransform="matrix(-56.91995,-10.54073,5.52264,-29.82225,334.2382,319.2576)"
   gradientUnits="userSpaceOnUse"
   y2="0"
   x2="0.57999998"
   y1="0"
   x1="0.41999999">
  <stop
     id="stop3449"
     offset="0"
     style="stop-opacity:1;stop-color:#e5e5e5" />
  <stop
     id="stop3451"
     offset="1"
     style="stop-opacity:1;stop-color:#ffffff" />
</linearGradient>
<radialGradient
   id="radialGradient3427"
   spreadMethod="pad"
   gradientTransform="matrix(270.09808,0,0,270.09808,296.1524,455.8796)"
   gradientUnits="userSpaceOnUse"
   r="0.41999999"
   cy="0"
   cx="0"
   fy="0"
   fx="0">
  <stop
     id="stop3429"
     offset="0"
     style="stop-opacity:1;stop-color:#ae6b37" />
  <stop
     id="stop3431"
     offset="1"
     style="stop-opacity:1;stop-color:#996633" />
</radialGradient>
<linearGradient
   id="linearGradient3405"
   spreadMethod="pad"
   gradientTransform="matrix(334.5171,0,0,60.33203,130.0365,324.2194)"
   gradientUnits="userSpaceOnUse"
   y2="0"
   x2="1"
   y1="0"
   x1="0">
  <stop
     id="stop3407"
     offset="0"
     style="stop-opacity:1;stop-color:#00824b" />
  <stop
     id="stop3409"
     offset="0.5"
     style="stop-opacity:1;stop-color:#40aa50" />
  <stop
     id="stop3411"
     offset="1"
     style="stop-opacity:1;stop-color:#00824b" />
</linearGradient>
<linearGradient
   id="linearGradient3385"
   spreadMethod="pad"
   gradientTransform="matrix(324.77896,0,0,257.91364,135.6497,195.7575)"
   gradientUnits="userSpaceOnUse"
   y2="0"
   x2="1"
   y1="0"
   x1="0">
  <stop
     id="stop3387"
     offset="0"
     style="stop-opacity:1;stop-color:#00a0cd" />
  <stop
     id="stop3389"
     offset="0.5"
     style="stop-opacity:1;stop-color:#00afe1" />
  <stop
     id="stop3391"
     offset="1"
     style="stop-opacity:1;stop-color:#00a0cd" />
</linearGradient>
<linearGradient
   id="linearGradient3365"
   spreadMethod="pad"
   gradientTransform="matrix(335.26431,0,0,436.82343,129.2343,354.0963)"
   gradientUnits="userSpaceOnUse"
   y2="0"
   x2="1"
   y1="0"
   x1="0">
  <stop
     id="stop3367"
     offset="0"
     style="stop-opacity:1;stop-color:#e5e5e5" />
  <stop
     id="stop3369"
     offset="0.49"
     style="stop-opacity:1;stop-color:#ffffff" />
  <stop
     id="stop3371"
     offset="1"
     style="stop-opacity:1;stop-color:#e5e5e5" />
</linearGradient>

  
  
  
 </defs>
  <sodipodi:namedview
     id="base"
     pagecolor="#ffffff"
     bordercolor="#666666"
     borderopacity="1.0"
     inkscape:pageopacity="0.0"
     inkscape:pageshadow="2"
     inkscape:zoom="1.137045"
     inkscape:cx="175"
     inkscape:cy="233.5"
     inkscape:document-units="px"
     inkscape:current-layer="layer1"
     showgrid="false"
     inkscape:window-width="1280"
     inkscape:window-height="750"
     inkscape:window-x="-8"
     inkscape:window-y="-8"
     inkscape:window-maximized="1"
     fit-margin-top="0"
     fit-margin-left="0"
     fit-margin-right="0"
     fit-margin-bottom="0" />
  <metadata
     id="metadata3303">
    <rdf:RDF>
      <cc:Work
         rdf:about="">
        <dc:format>image/svg+xml</dc:format>
        <dc:type
           rdf:resource="http://purl.org/dc/dcmitype/StillImage" />
        <dc:title></dc:title>
      </cc:Work>
    </rdf:RDF>
  </metadata>
  <g
     inkscape:label="Layer 1"
     inkscape:groupmode="layer"
     id="layer1"
     transform="translate(-141.92786,-363.27676)">
    <path
       sodipodi:nodetypes="ssssccsssssccscccccccccccccccccccccccccccccccccccccsscccsssccssssssssss"
       style="fill:#a90000"
       inkscape:connector-curvature="0"
       class="fil0"
       d="m 388.67983,588.80466 c 2.93492,0 5.31496,2.38004 5.31496,5.31496 l 0,5.31425 c 0,2.93493 -2.38004,5.31497 -5.31496,5.31497 l -5.31496,0 0,-15.94418 z m 0,21.25914 c 5.86984,0 10.62992,-4.76008 10.62992,-10.62993 l 0,-5.31425 c 0,-5.86984 -4.76008,-10.62992 -10.62992,-10.62992 l -10.62992,0 0,26.5741 z m -21.25984,-26.5741 5.31496,0 0,26.5741 -5.31496,0 z m -10.62993,0 5.31496,0 0,26.5741 -5.31496,0 -10.62992,-16.68402 0,16.68402 -5.31496,0 0,-26.5741 5.31496,0 10.62992,16.68402 z m -79.7244,3.6e-4 15.94488,0 0,5.31496 -10.62992,0 0,5.3146 10.62992,0 0,5.31496 -10.62992,0 0,5.31461 10.62992,0 0,5.31496 -15.94488,0 z m -21.25984,-7.1e-4 5.31496,0 0,21.25984 10.62992,0 0,5.31496 -15.94488,0 z m 55.8085,21.25984 5.31354,0 c 4.40221,0 7.97244,-3.57024 7.97244,-7.97244 0,-4.40221 -3.63649,-7.95721 -7.97244,-7.97244 l -5.31354,0 0,5.31496 5.31354,0 c 1.46729,0 2.65748,1.1902 2.65748,2.65748 0,1.46728 -1.19019,2.65748 -2.65748,2.65748 l -5.31354,0 z m 5.31354,-26.5748 c 10.27205,0 18.60236,8.33031 18.60236,18.60236 0,10.27205 -8.33031,18.60236 -18.60236,18.60236 -10.27204,0 -18.60236,-8.33031 -18.60236,-18.60236 0,-10.27205 8.33032,-18.60236 18.60236,-18.60236 z m -13.2874,18.60236 c 0,7.33712 5.95028,13.2874 13.2874,13.2874 7.33713,0 13.2874,-5.95028 13.2874,-13.2874 0,-7.33713 -5.95027,-13.2874 -13.2874,-13.2874 -7.33712,0 -13.2874,5.95027 -13.2874,13.2874 z"
       id="path3330" />
    <g
       transform="matrix(1.0090553,0,0,-1.0091384,17.400042,1021.4341)"
       inkscape:label="Островец"
       id="g3351">
      <path
         id="path3353"
         style="fill:#000000;fill-opacity:1;fill-rule:nonzero;stroke:none"
         d="m 470.2229,358.4358 c -6.7561,-43.7184 -23.7968,-76.1873 -52.3156,-102.6493 -33.7706,-31.3347 -78.5665,-50.5128 -121.0675,-66.3602 -42.5001,15.8474 -87.2974,35.0258 -121.0674,66.3602 -28.5188,26.462 -45.5595,58.9309 -52.3156,102.6493 l -0.0465,0.3011 0,0.1525 0,293.3079 346.8591,0 0,-293.3079 0,-0.1525 -0.0465,-0.3011 z"
         inkscape:connector-curvature="0" />
      <g
         id="g3355">
        <g
           id="g3357">
          <g
             id="g3363">
            <path
               id="path3373"
               style="fill:url(#linearGradient3365);stroke:none"
               d="m 463.5873,354.6547 c 0.2546,1.4522 0.4989,2.9171 0.7294,4.396 l 0,287.1938 -334.9537,0 0,-287.1938 c 0.2285,-1.4655 0.47,-2.9172 0.7223,-4.3566 19.0896,2.2207 22.7055,9.8728 48.0367,9.8728 29.6303,0 29.5453,-10.4706 59.2714,-10.4706 29.7263,0 29.6413,10.4706 59.2713,10.4706 29.6302,0 29.5452,-10.4706 59.2716,-10.4706 29.726,0 29.641,10.4706 59.2713,10.4706 25.4823,0 28.9887,-7.744 48.3797,-9.9122"
               inkscape:connector-curvature="0" />
          </g>
        </g>
      </g>
      <g
         id="g3375">
        <g
           id="g3377">
          <g
             id="g3383">
            <path
               id="path3393"
               style="fill:url(#linearGradient3385);stroke:none"
               d="m 413.8611,260.1349 c 19.7555,18.3311 33.8051,39.6762 42.5781,65.9126 -13.2698,3.001 -19.0092,8.6425 -40.7574,8.6425 -29.6303,0 -29.5452,-10.4706 -59.2713,-10.4706 -29.7264,0 -29.6413,10.4706 -59.2716,10.4706 -29.63,0 -29.5449,-10.4706 -59.2713,-10.4706 -29.7261,0 -29.641,10.4706 -59.2713,10.4706 -22.0502,0 -27.6446,-5.7991 -41.315,-8.7658 8.7755,-26.1803 22.8124,-47.4869 42.5373,-65.7893 27.5153,-25.5311 66.1561,-45.3286 117.0212,-64.3774 50.8658,19.0488 89.506,38.8463 117.0213,64.3774"
               inkscape:connector-curvature="0" />
          </g>
        </g>
      </g>
      <g
         id="g3395">
        <g
           id="g3397">
          <g
             id="g3403">
            <path
               id="path3413"
               style="fill:url(#linearGradient3405);stroke:none"
               d="m 456.4392,326.0475 c 2.99,8.9427 5.3671,18.4541 7.1481,28.6072 -19.391,2.1682 -22.8974,9.9122 -48.3797,9.9122 -29.6303,0 -29.5453,-10.4706 -59.2713,-10.4706 -29.7264,0 -29.6414,10.4706 -59.2716,10.4706 -29.63,0 -29.545,-10.4706 -59.2713,-10.4706 -29.7261,0 -29.6411,10.4706 -59.2714,10.4706 -25.3312,0 -28.9471,-7.6521 -48.0367,-9.8728 1.7898,-10.2144 4.1825,-19.7799 7.196,-28.7699 13.6704,2.9667 19.2648,8.7658 41.315,8.7658 29.6303,0 29.5452,-10.4706 59.2713,-10.4706 29.7264,0 29.6413,10.4706 59.2713,10.4706 29.6303,0 29.5452,-10.4706 59.2716,-10.4706 29.7261,0 29.641,10.4706 59.2713,10.4706 21.7482,0 27.4876,-5.6415 40.7574,-8.6425"
               inkscape:connector-curvature="0" />
          </g>
        </g>
      </g>
      <path
         id="path3415"
         style="fill:none;stroke:#000000;stroke-width:1.27559996;stroke-linecap:butt;stroke-linejoin:miter;stroke-miterlimit:10;stroke-opacity:1;stroke-dasharray:none"
         d="m 133.2941,325.1854 c 16.7701,2.5923 21.2278,9.5046 45.3022,9.5046 29.6303,0 29.5452,-10.4706 59.2713,-10.4706 29.7264,0 29.6413,10.4706 59.2713,10.4706 29.6303,0 29.5452,-10.4706 59.2716,-10.4706 29.7261,0 29.641,10.4706 59.2713,10.4706 23.1483,0 28.1602,-6.391 43.4197,-9.1868 M 126.474,354.3551 c 22.348,1.6126 24.796,10.2118 51.648,10.2118 29.6303,0 29.5453,-10.4706 59.2714,-10.4706 29.7263,0 29.6413,10.4706 59.2713,10.4706 29.6302,0 29.5452,-10.4706 59.2716,-10.4706 29.726,0 29.641,10.4706 59.2713,10.4706 26.852,0 29.3,-8.5992 51.6478,-10.2118"
         inkscape:connector-curvature="0" />
      <g
         id="g3417">
        <g
           id="g3419">
          <g
             id="g3425">
            <path
               id="path3433"
               style="fill:url(#radialGradient3427);fill-rule:evenodd;stroke:none"
               d="m 370.5718,465.0083 c -27.3577,3.4413 -31.0368,-25.6045 -19.7699,-37.6863 5.8016,-6.2215 15.9502,-8.3441 23.7038,-10.9823 11.554,-3.9316 28.0766,-8.1567 39.1539,-12.6689 9.8005,-3.992 16.1379,-10.4397 17.5206,-21.4959 0.1999,-1.5988 -1.0071,-2.9186 -2.6186,-2.9186 -1.6115,0 -2.3448,1.3309 -2.6187,2.9186 -1.9358,11.215 -21.0288,18.0187 -30.8231,18.699 -3.215,0.2231 -5.6355,-1.116 -5.5372,-4.3376 0.0514,-1.6866 1.3337,-3.0214 3.5314,-3.8497 4.0508,-1.5265 12.1536,-3.8137 16.6746,-4.7313 7.7011,-1.563 11.1503,-6.1569 11.5914,-11.6286 0.1293,-1.6061 -1.3071,-2.9185 -2.9186,-2.9185 -1.6114,0 -2.5503,1.3498 -2.9185,2.9185 -1.1098,4.7239 -15.1449,3.9036 -19.0942,4.3149 -6.4831,0.6752 -15.1495,0.6021 -20.4879,4.7483 -3.6267,2.8165 -4.9102,6.7436 -7.3423,10.1225 -1.4933,2.0742 -4.0836,3.6275 -6.9806,3.4155 -3.5346,-0.2585 -5.5636,-2.6019 -6.3876,-5.671 -0.9173,-3.4177 1.3082,-7.0869 3.6839,-9.4036 4.9955,-4.8717 13.4736,-5.3056 13.7361,-12.1598 0.0615,-1.6095 -1.1571,-2.9186 -2.7686,-2.9186 -1.6115,0 -2.3871,1.3094 -3.0685,2.7686 -2.1053,4.5091 -11.6212,4.1431 -18.7098,4.3291 -7.9112,0.2075 -10.6498,2.9492 -12.0053,7.6842 -0.9482,3.3114 -0.5819,7.0321 -2.2978,10.0853 -1.7078,3.0393 -5.2562,5.1288 -9.3543,5.1288 -5.7645,0 -10.4394,-4.1335 -10.4394,-9.2305 0,-3.5042 2.2099,-6.554 5.464,-8.1167 5.5783,-2.6793 13.87,-2.744 16.1045,-9.7333 0.3813,-1.1931 0.559,-2.3074 0.0561,-3.2911 -0.3911,-0.765 -1.2166,-1.5599 -2.5418,-1.5599 -1.2084,0 -2.2462,0.7356 -2.6892,1.7827 -1.2308,2.9092 -6.033,3.8438 -8.8917,4.4975 -5.2694,1.2053 -10.5404,1.1543 -15.8108,1.3479 -8.8396,0.3251 -16.7372,2.287 -17.0601,16.3939 -0.1048,4.585 -3.7199,8.3066 -8.3066,8.3066 -4.5867,0 -8.4387,-3.7222 -8.3067,-8.3066 0.2365,-8.2012 -0.7747,-15.5793 -12.4299,-15.7848 -10.7841,-0.1902 -24.332,2.5297 -28.4298,-3.9716 -0.8592,-1.3629 -1.307,-2.9185 -2.9185,-2.9185 -1.6115,0 -2.9481,1.3076 -2.9186,2.9185 0.061,3.3457 4.4314,8.5669 10.0092,12.293 4.6176,3.0844 12.4412,2.808 12.4412,10.0451 0,4.277 -3.7701,7.7454 -8.4189,7.7454 -2.9055,0 -5.468,-1.3552 -6.9806,-3.4154 -6.8774,-9.3668 -8.7687,-21.263 -25.704,-18.7351 -7.0166,1.0472 -14.0108,1.9239 -20.9866,2.7083 -3.9503,0.4442 -6.7036,-0.099 -7.2816,-2.5592 -0.3682,-1.5686 -1.3071,-2.9185 -2.9185,-2.9185 -1.6115,0 -3.0479,1.3124 -2.9186,2.9185 0.4411,5.4718 3.3395,9.9406 11.1416,10.8789 6.2079,0.7466 12.471,0.9708 18.7174,1.2444 3.2199,0.1408 5.8371,2.6138 5.8371,5.8371 0,3.2232 -2.6379,6.228 -5.8371,5.8371 -8.6,-1.0514 -17.058,-4.1454 -25.6337,-7.9076 -7.6269,-3.346 -9.9397,-9.0212 -9.8379,-15.8899 0.0238,-1.6109 -1.3071,-2.9185 -2.9185,-2.9185 -1.6115,0 -2.844,1.309 -2.9186,2.9185 -0.4124,8.8716 2.6444,17.9451 11.8987,22.6749 11.958,6.1121 31.7509,12.7758 45.9754,17.6381 7.7505,2.6489 16.3826,4.642 22.0544,10.9822 12.4447,13.9108 11.8565,38.7185 -17.4909,36.0369 l 0,93.886 146.9948,0 0,-95.3969 z"
               inkscape:connector-curvature="0" />
          </g>
        </g>
      </g>
      <path
         id="path3435"
         style="fill:none;stroke:#000000;stroke-width:1.13390005;stroke-linecap:butt;stroke-linejoin:miter;stroke-miterlimit:10;stroke-opacity:1;stroke-dasharray:none"
         d="m 370.5718,465.0083 c -27.3577,3.4413 -31.0368,-25.6045 -19.7699,-37.6863 5.8016,-6.2215 15.9502,-8.3441 23.7038,-10.9823 11.554,-3.9316 28.0766,-8.1567 39.1539,-12.6689 9.8005,-3.992 16.1379,-10.4397 17.5206,-21.4959 0.1999,-1.5988 -1.0071,-2.9186 -2.6186,-2.9186 -1.6115,0 -2.3448,1.3309 -2.6187,2.9186 -1.9358,11.215 -21.0288,18.0187 -30.8231,18.699 -3.215,0.2231 -5.6355,-1.116 -5.5372,-4.3376 0.0514,-1.6866 1.3337,-3.0214 3.5314,-3.8497 4.0508,-1.5265 12.1536,-3.8137 16.6746,-4.7313 7.7011,-1.563 11.1503,-6.1569 11.5914,-11.6286 0.1293,-1.6061 -1.3071,-2.9185 -2.9186,-2.9185 -1.6114,0 -2.5503,1.3498 -2.9185,2.9185 -1.1098,4.7239 -15.1449,3.9036 -19.0942,4.3149 -6.4831,0.6752 -15.1495,0.6021 -20.4879,4.7483 -3.6267,2.8165 -4.9102,6.7436 -7.3423,10.1225 -1.4933,2.0742 -4.0836,3.6275 -6.9806,3.4155 -3.5346,-0.2585 -5.5636,-2.6019 -6.3876,-5.671 -0.9173,-3.4177 1.3082,-7.0869 3.6839,-9.4036 4.9955,-4.8717 13.4736,-5.3056 13.7361,-12.1598 0.0615,-1.6095 -1.1571,-2.9186 -2.7686,-2.9186 -1.6115,0 -2.3871,1.3094 -3.0685,2.7686 -2.1053,4.5091 -11.6212,4.1431 -18.7098,4.3291 -7.9112,0.2075 -10.6498,2.9492 -12.0053,7.6842 -0.9482,3.3114 -0.5819,7.0321 -2.2978,10.0853 -1.7078,3.0393 -5.2562,5.1288 -9.3543,5.1288 -5.7645,0 -10.4394,-4.1335 -10.4394,-9.2305 0,-3.5042 2.2099,-6.554 5.464,-8.1167 5.5783,-2.6793 13.87,-2.744 16.1045,-9.7333 0.3813,-1.1931 0.559,-2.3074 0.0561,-3.2911 -0.3911,-0.765 -1.2166,-1.5599 -2.5418,-1.5599 -1.2084,0 -2.2462,0.7356 -2.6892,1.7827 -1.2308,2.9092 -6.033,3.8438 -8.8917,4.4975 -5.2694,1.2053 -10.5404,1.1543 -15.8108,1.3479 -8.8396,0.3251 -16.7372,2.287 -17.0601,16.3939 -0.1048,4.585 -3.7199,8.3066 -8.3066,8.3066 -4.5867,0 -8.4387,-3.7222 -8.3067,-8.3066 0.2365,-8.2012 -0.7747,-15.5793 -12.4299,-15.7848 -10.7841,-0.1902 -24.332,2.5297 -28.4298,-3.9716 -0.8592,-1.3629 -1.307,-2.9185 -2.9185,-2.9185 -1.6115,0 -2.9481,1.3076 -2.9186,2.9185 0.061,3.3457 4.4314,8.5669 10.0092,12.293 4.6176,3.0844 12.4412,2.808 12.4412,10.0451 0,4.277 -3.7701,7.7454 -8.4189,7.7454 -2.9055,0 -5.468,-1.3552 -6.9806,-3.4154 -6.8774,-9.3668 -8.7687,-21.263 -25.704,-18.7351 -7.0166,1.0472 -14.0108,1.9239 -20.9866,2.7083 -3.9503,0.4442 -6.7036,-0.099 -7.2816,-2.5592 -0.3682,-1.5686 -1.3071,-2.9185 -2.9185,-2.9185 -1.6115,0 -3.0479,1.3124 -2.9186,2.9185 0.4411,5.4718 3.3395,9.9406 11.1416,10.8789 6.2079,0.7466 12.471,0.9708 18.7174,1.2444 3.2199,0.1408 5.8371,2.6138 5.8371,5.8371 0,3.2232 -2.6379,6.228 -5.8371,5.8371 -8.6,-1.0514 -17.058,-4.1454 -25.6337,-7.9076 -7.6269,-3.346 -9.9397,-9.0212 -9.8379,-15.8899 0.0238,-1.6109 -1.3071,-2.9185 -2.9185,-2.9185 -1.6115,0 -2.844,1.309 -2.9186,2.9185 -0.4124,8.8716 2.6444,17.9451 11.8987,22.6749 11.958,6.1121 31.7509,12.7758 45.9754,17.6381 7.7505,2.6489 16.3826,4.642 22.0544,10.9822 12.4447,13.9108 11.8565,38.7185 -17.4909,36.0369 l 0,93.886 146.9948,0 0,-95.3969 z"
         inkscape:connector-curvature="0" />
      <g
         id="g3437">
        <g
           id="g3439">
          <g
             id="g3445">
            <path
               id="path3453"
               style="fill:url(#linearGradient3447);stroke:none"
               d="m 281.0154,299.5404 c 11.2882,-3.0302 22.5454,-6.1515 33.8123,-9.2835 0.0396,0.8071 0.0549,2.1031 -0.1276,3.3132 -0.0363,0.2406 -0.0805,0.4773 -0.133,0.7035 -0.1598,0.6883 -0.4025,1.3031 -0.7639,1.7158 l -0.0252,0.0284 -0.0252,0.0283 -0.002,0.0372 c -0.0408,0.6539 -0.0697,1.3433 -0.1176,1.9763 -0.0961,1.2691 -0.2756,2.4089 -0.8034,2.9976 -0.0584,0.0649 -0.1219,0.1239 -0.1899,0.1752 l -0.0394,0.0298 -0.003,0.0487 c -0.0247,0.3442 -0.0386,0.6934 -0.0519,1.0341 -0.0442,1.1299 -0.0853,2.1728 -0.5502,2.9699 l -0.0147,0.0252 3e-4,0.0292 0.0294,4.0323 c -6.0125,-0.8368 -13.6924,-2.7031 -21.7077,-5.7804 -1.565,-0.601 -3.1487,-1.2507 -4.7392,-1.9497 -1.5188,-0.6678 -3.0374,-1.3774 -4.5474,-2.1311"
               inkscape:connector-curvature="0" />
          </g>
        </g>
      </g>
      <path
         id="path3455"
         style="fill:#ffffff;fill-opacity:1;fill-rule:nonzero;stroke:none"
         d="m 345.9736,257.6296 c -3.4937,-1.4587 -6.9911,-2.7777 -10.4941,-3.9308 -2.4469,-0.8053 -4.8975,-1.5299 -7.3503,-2.1659 2.4455,-1.4701 5.0913,-2.886 7.7604,-3.9555 2.7216,-1.0908 5.4675,-1.8207 8.0467,-1.88 0.1387,0.9369 0.0196,1.4503 -0.1732,2.2763 -0.0362,0.1556 -0.0754,0.3234 -0.1182,0.5181 l -0.006,0.025 0.007,0.0244 c 0.0213,0.0833 0.04,0.1641 0.0556,0.2415 0.1485,0.7356 0.1457,1.5559 0.1434,2.3748 -3e-4,0.1843 -9e-4,0.3697 0,0.5528 l 0,0.0374 0.0229,0.0289 c 1.4109,1.7975 1.7564,3.8112 2.1019,5.8306 l 0.004,0.0224 z"
         inkscape:connector-curvature="0" />
      <path
         id="path3457"
         style="fill:#ffffff;fill-opacity:1;fill-rule:nonzero;stroke:none"
         d="m 309.0589,248.5157 -0.2982,-0.0358 c -3.0008,-0.3591 -6.0016,-0.7191 -8.6287,-1.4419 l -0.009,-0.003 -0.008,-8e-4 -0.0615,-0.007 -0.1012,-0.0102 0.3637,-0.3064 c 3.2944,-2.7796 4.9195,-4.1502 5.9553,-3.9719 0.991,0.1707 1.5185,1.8162 2.5574,5.0604 l 0.2302,0.7161 z"
         inkscape:connector-curvature="0" />
      <g
         id="g3459">
        <g
           id="g3461">
          <g
             id="g3467">
            <path
               id="path3475"
               style="fill:url(#linearGradient3469);stroke:none"
               d="m 338.8842,284.2719 c 3.0761,1.6307 10.339,5.6559 14.1125,5.258 2.4282,-0.2563 3.3463,-3.1714 3.9039,-5.2549 -5.9397,-0.4453 -12.534,-0.6341 -18.0164,-0.003"
               inkscape:connector-curvature="0" />
          </g>
        </g>
      </g>
      <g
         id="g3477">
        <g
           id="g3479">
          <g
             id="g3485">
            <path
               id="path3493"
               style="fill:url(#linearGradient3487);stroke:none"
               d="m 191.6688,296.1839 -0.178,0.2778 c -0.8617,1.3459 -1.2158,2.4457 -0.987,3.3531 0.2299,0.9133 1.0437,1.6186 2.5152,2.1691 8.1929,3.0642 16.6634,3.3973 25.1104,3.7295 l 0.7999,0.0315 c 4.9368,0.1956 9.8793,0.1786 14.8215,0.0541 4.9454,-0.1244 9.8847,-0.3566 14.8193,-0.5904 l 1.7509,-0.0805 c 5.6929,-0.2571 11.4166,-0.5162 17.0419,-1.9786 16.8384,-4.3778 33.575,-9.0309 50.3388,-13.6919 15.1155,-4.0479 36.303,-9.2245 47.9115,-1.6628 6.5094,-0.8465 10.2577,-8.1369 8.1796,-15.9812 -4.3787,-1.7702 -8.1833,-4.7038 -12.3568,-6.8817 -8.6278,-4.5034 -17.2766,-8.3758 -25.9565,-11.2331 -8.6831,-2.8582 -17.4016,-4.7038 -26.1666,-5.1525 l -0.5522,-0.0664 c -3.0008,-0.3591 -6.0016,-0.7191 -8.6287,-1.4419 l -0.009,-0.003 -0.008,-8e-4 -0.0615,-0.007 c -0.195,-0.0215 -0.4037,-0.0428 -0.6202,-0.0632 -0.2305,-0.0218 -0.442,-0.0405 -0.6367,-0.0561 -0.9961,-0.0805 -2.0313,-0.1335 -2.9931,-0.1635 0.1865,-0.5296 0.4068,-1.0591 0.6279,-1.5892 0.7231,-1.7314 1.4527,-3.4815 1.0666,-5.3951 l 0.0502,-0.3266 c 0.3064,-1.9993 0.6132,-3.9983 0.2676,-5.364 l 0,-0.001 c 0.0309,-0.3495 0.053,-0.6846 0.0655,-1.004 0.0127,-0.3221 0.017,-0.6336 0.0125,-0.9324 -0.023,-1.5397 -0.277,-2.7504 -0.7356,-3.562 l -0.0604,-0.1066 -0.0978,0.0732 -0.002,0.002 -3e-4,0 c -3.2598,2.467 -7.1688,6.9672 -11.1103,11.5058 -2.5634,2.9514 -5.141,5.9207 -7.5609,8.3528 l -0.8422,0.1166 c -10.3558,1.4331 -20.1804,2.7929 -28.9499,5.2049 l -0.006,0.002 c -0.5944,0.1636 -1.1675,0.3246 -1.7175,0.4825 -0.5746,0.165 -1.1381,0.3305 -1.6894,0.496 -2.787,0.8363 -5.4553,1.7283 -7.9855,2.6703 0.0714,-0.3135 0.1233,-0.6426 0.1573,-0.9836 0.0329,-0.3325 0.0482,-0.6769 0.0457,-1.0293 -0.003,-0.3532 -0.0233,-0.7166 -0.0613,-1.0862 l -0.001,-0.0122 3e-4,0 c -0.0272,-0.4011 -0.051,-0.7988 -0.0743,-1.1951 -0.1173,-1.9786 -0.2352,-3.9583 -0.7534,-5.5468 l -6e-4,-3e-4 -0.0195,-0.059 c -0.004,-0.3365 -0.006,-0.6749 -0.007,-1.012 -0.005,-1.6832 -0.0107,-3.3678 -0.4047,-4.8639 l -6e-4,-9e-4 -0.0286,-0.1046 -0.0108,-0.2429 c -0.0649,-1.4468 -0.1298,-2.8947 -0.6211,-3.9331 l -6e-4,-5e-4 -0.0209,-0.0437 -0.0377,-0.0785 -0.0842,0.0198 c -5.8388,1.3921 -7.6238,10.6968 -9.4264,20.0957 -0.3804,1.9834 -0.7613,3.9727 -1.1809,5.889 l -0.0215,-0.036 -0.002,8e-4 c -0.3682,0.2129 -0.7447,0.4363 -1.1254,0.6676 -0.3773,0.2293 -0.7526,0.4637 -1.1205,0.7001 -1.8411,1.1818 -3.5782,2.4636 -4.7849,3.6579 -1.4845,0.242 -2.9591,0.7293 -4.4362,1.5729 -5.3617,3.0614 -10.1835,6.3425 -14.2912,10.0029 -4.1105,3.6632 -7.5081,7.7082 -10.0182,12.2961 -0.4311,0.7883 -0.5289,1.5441 -0.4011,2.1935 0.1015,0.5162 0.3459,0.9672 0.6778,1.3169 0.3322,0.3501 0.7537,0.5996 1.2084,0.7132 0.4431,0.1109 0.9201,0.0939 1.3782,-0.0833"
               inkscape:connector-curvature="0" />
          </g>
        </g>
      </g>
      <g
         id="g3495">
        <g
           id="g3497">
          <g
             id="g3503">
            <path
               id="path3511"
               style="fill:url(#linearGradient3505);stroke:none"
               d="m 365.6132,287.7948 c 0.424,0.2514 0.8393,0.5119 1.2444,0.7818 2.8423,1.8935 5.233,4.2202 7.3414,6.6067 1.3788,1.5607 2.6703,3.1334 3.9379,4.6769 5.696,6.9361 10.9344,13.3146 21.513,15.5361 l 0.1069,0.0227 0.0209,-0.1075 c 0.1968,-1.0068 0.2605,-2.0148 0.2393,-3.0226 -0.0207,-0.9992 -0.1262,-1.9964 -0.2673,-2.9919 0.4368,-1.6053 0.0397,-2.9909 -0.3578,-4.3753 -0.0771,-0.2693 -0.1553,-0.5394 -0.2245,-0.8028 0.142,-0.7823 0.0916,-1.6038 -0.0995,-2.4502 -0.1899,-0.8422 -0.5193,-1.7122 -0.936,-2.5983 0.0462,-0.8654 -0.0541,-1.7308 -0.2381,-2.5942 -0.1834,-0.8623 -0.4521,-1.7258 -0.7409,-2.5881 -0.003,-0.9717 -0.1049,-1.9443 -0.262,-2.9154 -0.1536,-0.9496 -0.3605,-1.8936 -0.5802,-2.8364 0.591,-0.2539 1.135,-0.4594 1.641,-0.6505 1.493,-0.5635 2.6693,-1.0077 4.1283,-2.3621 0.9272,0.6571 2.5915,-0.0459 4.2333,-0.739 0.8793,-0.3713 1.7532,-0.7404 2.4851,-0.8884 l 0.0326,-0.007 0.0233,-0.0235 c 0.6168,-0.6248 1.4522,-0.7747 2.3354,-0.9326 l 0,3e-4 c 0.7679,-0.1372 1.5718,-0.2812 2.323,-0.7422 0.5043,0.001 0.9825,-0.0807 1.4318,-0.2457 0.4586,-0.1684 0.8887,-0.4241 1.2889,-0.7657 l 0.0672,-0.0572 -0.0431,-0.0774 c -2.7462,-4.8881 -6.6005,-7.7375 -11.1688,-9.2699 -4.5598,-1.5295 -9.8285,-1.7461 -15.4151,-1.3719 -2.1722,0.1454 -4.3174,0.5397 -6.4562,0.9326 -3.0798,0.5658 -6.1494,1.1299 -9.2656,0.9402 l -0.159,-0.0632 c 2.0781,7.8443 -1.6702,15.1347 -8.1796,15.9812"
               inkscape:connector-curvature="0" />
          </g>
        </g>
      </g>
      <path
         id="path3513"
         style="fill:none;stroke:#000000;stroke-width:1.13390005;stroke-linecap:butt;stroke-linejoin:miter;stroke-miterlimit:10;stroke-opacity:1;stroke-dasharray:none"
         d="m 196.6765,292.4974 c 2.196,-3.3735 3.9756,-5.3019 5.4972,-8.581 1.3173,-2.8392 -1.9216,-3.9557 -2.9497,-1.743 -2.249,4.8413 -4.6619,9.6914 -7.6425,14.3464 -1.6903,2.6402 -1.3966,4.2891 1.4749,5.3632 8.4353,3.1549 17.1731,3.4092 25.8772,3.7542 9.8702,0.3911 19.7589,-0.0678 29.6314,-0.5363 6.2634,-0.2971 12.5799,-0.4459 18.771,-2.0557 18.7104,-4.8646 37.2838,-10.0659 55.9108,-15.2405 5.3805,-1.4947 10.9313,-2.6425 16.2298,-3.2771 m 17.3503,-0.072 c 7.8653,1.3271 13.2242,5.8702 17.4526,10.6562 7.5549,8.5516 12.4963,17.4708 25.3922,20.179 0.3909,-1.9998 0.2534,-3.9999 -0.0317,-6.0006 0.5264,-1.9029 -0.1483,-3.5051 -0.5826,-5.1676 0.2892,-1.5494 -0.1967,-3.2547 -1.0343,-5.0312 0.0978,-1.7286 -0.3977,-3.4568 -0.9777,-5.1857 -0.004,-1.9437 -0.4045,-3.888 -0.8597,-5.8328 2.4414,-1.0596 3.8965,-1.215 5.8878,-3.0907 1.319,1.0928 4.5675,-1.1591 6.7039,-1.5913 1.188,-1.2033 3.0941,-0.7002 4.7053,-1.7073 1.006,0.01 1.8995,-0.3181 2.6807,-0.9851 -5.4635,-9.7248 -15.3332,-11.334 -26.4827,-10.5868 -5.3078,0.3552 -10.4533,2.1991 -15.7521,1.8717 -4.0346,-1.5863 -8.3571,-4.7716 -12.5425,-6.9562 -17.2431,-9.0006 -34.5704,-15.4769 -52.0835,-16.3735 -3.1875,-0.3835 -6.3995,-0.7415 -9.1989,-1.512 -1.448,-0.1621 -3.0989,-0.2571 -4.5471,-0.2968 m -17.0297,1.6336 c -10.7317,1.4865 -20.9143,2.8548 -29.9645,5.3442 -4.1207,1.1336 -8.0076,2.3791 -11.6044,3.7273 m -12.3191,5.6877 c -2.6638,1.5397 -5.4658,3.4358 -7.1385,5.1363 m 12.6958,29.0844 c 1.8065,-1.9129 3.3443,-3.7939 4.1482,-6.8347 1.446,-2.0718 2.761,-6.0533 2.0194,-8.8526 -1.927,-7.2756 -4.6896,-11.9372 -10.4581,-13.0135 -4.4363,-0.8277 -8.5728,-1.2977 -12.7375,1.0805 -10.7107,6.1164 -19.2603,13.1046 -24.2683,22.2571 -1.4539,2.6572 1.0007,4.8932 2.9498,3.8883"
         inkscape:connector-curvature="0" />
      <path
         id="path3515"
         style="fill:#000000;fill-opacity:1;fill-rule:evenodd;stroke:none"
         d="m 213.6969,302.3263 c 1.1698,0 2.1183,-0.9485 2.1183,-2.118 0,-1.1699 -0.9485,-2.1184 -2.1183,-2.1184 -1.1696,0 -2.1181,0.9485 -2.1181,2.1184 0,1.1695 0.9485,2.118 2.1181,2.118"
         inkscape:connector-curvature="0" />
      <path
         id="path3517"
         style="fill:#000000;fill-opacity:1;fill-rule:evenodd;stroke:none"
         d="m 219.8699,291.9169 c 1.1698,0 2.1183,-0.9485 2.1183,-2.118 0,-1.1699 -0.9485,-2.1184 -2.1183,-2.1184 -1.1696,0 -2.1181,0.9485 -2.1181,2.1184 0,1.1695 0.9485,2.118 2.1181,2.118"
         inkscape:connector-curvature="0" />
      <path
         id="path3519"
         style="fill:#000000;fill-opacity:1;fill-rule:evenodd;stroke:none"
         d="m 228.5847,294.5798 c 1.1699,0 2.1183,-0.9485 2.1183,-2.1181 0,-1.1698 -0.9484,-2.1183 -2.1183,-2.1183 -1.1696,0 -2.1181,0.9485 -2.1181,2.1183 0,1.1696 0.9485,2.1181 2.1181,2.1181"
         inkscape:connector-curvature="0" />
      <path
         id="path3521"
         style="fill:#000000;fill-opacity:1;fill-rule:evenodd;stroke:none"
         d="m 217.3887,283.6862 c 1.0695,0 1.9366,-0.8671 1.9366,-1.9366 0,-1.0695 -0.8671,-1.9366 -1.9366,-1.9366 -1.0695,0 -1.9366,0.8671 -1.9366,1.9366 0,1.0695 0.8671,1.9366 1.9366,1.9366"
         inkscape:connector-curvature="0" />
      <path
         id="path3523"
         style="fill:#000000;fill-opacity:1;fill-rule:evenodd;stroke:none"
         d="m 243.8357,277.3922 c 1.1698,0 2.1183,-0.9485 2.1183,-2.1181 0,-1.1698 -0.9485,-2.1183 -2.1183,-2.1183 -1.1696,0 -2.1181,0.9485 -2.1181,2.1183 0,1.1696 0.9485,2.1181 2.1181,2.1181"
         inkscape:connector-curvature="0" />
      <path
         id="path3525"
         style="fill:#000000;fill-opacity:1;fill-rule:evenodd;stroke:none"
         d="m 269.9802,271.9454 c 1.1698,0 2.1183,-0.9485 2.1183,-2.118 0,-1.1699 -0.9485,-2.1184 -2.1183,-2.1184 -1.1696,0 -2.1181,0.9485 -2.1181,2.1184 0,1.1695 0.9485,2.118 2.1181,2.118"
         inkscape:connector-curvature="0" />
      <path
         id="path3527"
         style="fill:#000000;fill-opacity:1;fill-rule:evenodd;stroke:none"
         d="m 273.8534,300.7528 c 1.1699,0 2.1183,-0.9485 2.1183,-2.1181 0,-1.1698 -0.9484,-2.1183 -2.1183,-2.1183 -1.1696,0 -2.118,0.9485 -2.118,2.1183 0,1.1696 0.9484,2.1181 2.118,2.1181"
         inkscape:connector-curvature="0" />
      <path
         id="path3529"
         style="fill:#000000;fill-opacity:1;fill-rule:evenodd;stroke:none"
         d="m 250.0087,304.9892 c 1.1698,0 2.1183,-0.9485 2.1183,-2.1181 0,-1.1698 -0.9485,-2.1183 -2.1183,-2.1183 -1.1696,0 -2.1181,0.9485 -2.1181,2.1183 0,1.1696 0.9485,2.1181 2.1181,2.1181"
         inkscape:connector-curvature="0" />
      <path
         id="path3531"
         style="fill:#000000;fill-opacity:1;fill-rule:evenodd;stroke:none"
         d="m 256.2423,271.5823 c 1.0695,0 1.9367,-0.8671 1.9367,-1.9366 0,-1.0695 -0.8672,-1.9367 -1.9367,-1.9367 -1.0695,0 -1.9366,0.8672 -1.9366,1.9367 0,1.0695 0.8671,1.9366 1.9366,1.9366"
         inkscape:connector-curvature="0" />
      <path
         id="path3533"
         style="fill:#000000;fill-opacity:1;fill-rule:evenodd;stroke:none"
         d="m 288.0757,267.467 c 1.0695,0 1.9366,-0.8672 1.9366,-1.9367 0,-1.0695 -0.8671,-1.9366 -1.9366,-1.9366 -1.0695,0 -1.9366,0.8671 -1.9366,1.9366 0,1.0695 0.8671,1.9367 1.9366,1.9367"
         inkscape:connector-curvature="0" />
      <path
         id="path3535"
         style="fill:#000000;fill-opacity:1;fill-rule:evenodd;stroke:none"
         d="m 318.0934,266.2566 c 1.0696,0 1.9367,-0.8672 1.9367,-1.9367 0,-1.0695 -0.8671,-1.9366 -1.9367,-1.9366 -1.0695,0 -1.9366,0.8671 -1.9366,1.9366 0,1.0695 0.8671,1.9367 1.9366,1.9367"
         inkscape:connector-curvature="0" />
      <path
         id="path3537"
         style="fill:#000000;fill-opacity:1;fill-rule:evenodd;stroke:none"
         d="m 334.5548,267.467 c 1.0695,0 1.9366,-0.8672 1.9366,-1.9367 0,-1.0695 -0.8671,-1.9366 -1.9366,-1.9366 -1.0695,0 -1.9366,0.8671 -1.9366,1.9366 0,1.0695 0.8671,1.9367 1.9366,1.9367"
         inkscape:connector-curvature="0" />
      <path
         id="path3539"
         style="fill:#000000;fill-opacity:1;fill-rule:evenodd;stroke:none"
         d="m 281.6606,292.28 c 1.671,0 3.026,-1.3549 3.026,-3.026 0,-1.671 -1.355,-3.0259 -3.026,-3.0259 -1.671,0 -3.026,1.3549 -3.026,3.0259 0,1.6711 1.355,3.026 3.026,3.026"
         inkscape:connector-curvature="0" />
      <path
         id="path3541"
         style="fill:#000000;fill-opacity:1;fill-rule:evenodd;stroke:none"
         d="m 267.499,285.3808 c 1.671,0 3.026,-1.355 3.026,-3.026 0,-1.671 -1.355,-3.026 -3.026,-3.026 -1.671,0 -3.026,1.355 -3.026,3.026 0,1.671 1.355,3.026 3.026,3.026"
         inkscape:connector-curvature="0" />
      <path
         id="path3543"
         style="fill:#000000;fill-opacity:1;fill-rule:evenodd;stroke:none"
         d="m 295.5801,281.8706 c 1.671,0 3.026,-1.3549 3.026,-3.0259 0,-1.6711 -1.355,-3.026 -3.026,-3.026 -1.671,0 -3.026,1.3549 -3.026,3.026 0,1.671 1.355,3.0259 3.026,3.0259"
         inkscape:connector-curvature="0" />
      <path
         id="path3545"
         style="fill:#000000;fill-opacity:1;fill-rule:evenodd;stroke:none"
         d="m 313.2468,286.2519 c 1.5981,0 2.8939,-1.2957 2.8939,-2.8939 0,-1.5982 -1.2958,-2.8939 -2.8939,-2.8939 -1.5982,0 -2.8939,1.2957 -2.8939,2.8939 0,1.5982 1.2957,2.8939 2.8939,2.8939"
         inkscape:connector-curvature="0" />
      <path
         id="path3547"
         style="fill:#000000;fill-opacity:1;fill-rule:evenodd;stroke:none"
         d="m 323.2366,276.531 c 1.6711,0 3.026,-1.3549 3.026,-3.026 0,-1.671 -1.3549,-3.0259 -3.026,-3.0259 -1.671,0 -3.026,1.3549 -3.026,3.0259 0,1.6711 1.355,3.026 3.026,3.026"
         inkscape:connector-curvature="0" />
      <path
         id="path3549"
         style="fill:#000000;fill-opacity:1;fill-rule:evenodd;stroke:none"
         d="m 261.2149,299.9432 c 1.671,0 3.026,-1.3549 3.026,-3.026 0,-1.671 -1.355,-3.026 -3.026,-3.026 -1.6711,0 -3.026,1.355 -3.026,3.026 0,1.6711 1.3549,3.026 3.026,3.026"
         inkscape:connector-curvature="0" />
      <path
         id="path3551"
         style="fill:#000000;fill-opacity:1;fill-rule:evenodd;stroke:none"
         d="m 246.4282,299.9432 c 1.671,0 3.026,-1.3549 3.026,-3.026 0,-1.671 -1.355,-3.026 -3.026,-3.026 -1.671,0 -3.026,1.355 -3.026,3.026 0,1.6711 1.355,3.026 3.026,3.026"
         inkscape:connector-curvature="0" />
      <path
         id="path3553"
         style="fill:#000000;fill-opacity:1;fill-rule:evenodd;stroke:none"
         d="m 242.6868,289.7878 c 1.1698,0 2.1183,-0.9485 2.1183,-2.118 0,-1.1699 -0.9485,-2.1184 -2.1183,-2.1184 -1.1696,0 -2.1181,0.9485 -2.1181,2.1184 0,1.1695 0.9485,2.118 2.1181,2.118"
         inkscape:connector-curvature="0" />
      <path
         id="path3555"
         style="fill:#000000;fill-opacity:1;fill-rule:evenodd;stroke:none"
         d="m 255.1459,283.7636 c 1.1698,0 2.1183,-0.9485 2.1183,-2.118 0,-1.1699 -0.9485,-2.1184 -2.1183,-2.1184 -1.1696,0 -2.1181,0.9485 -2.1181,2.1184 0,1.1695 0.9485,2.118 2.1181,2.118"
         inkscape:connector-curvature="0" />
      <path
         id="path3557"
         style="fill:#000000;fill-opacity:1;fill-rule:evenodd;stroke:none"
         d="m 310.0958,275.6421 c 1.1698,0 2.1183,-0.9485 2.1183,-2.1181 0,-1.1698 -0.9485,-2.1183 -2.1183,-2.1183 -1.1696,0 -2.1181,0.9485 -2.1181,2.1183 0,1.1696 0.9485,2.1181 2.1181,2.1181"
         inkscape:connector-curvature="0" />
      <path
         id="path3559"
         style="fill:#000000;fill-opacity:1;fill-rule:evenodd;stroke:none"
         d="m 370.0638,281.2555 c 1.1699,0 2.1184,-0.9484 2.1184,-2.118 0,-1.1699 -0.9485,-2.1184 -2.1184,-2.1184 -1.1695,0 -2.118,0.9485 -2.118,2.1184 0,1.1696 0.9485,2.118 2.118,2.118"
         inkscape:connector-curvature="0" />
      <path
         id="path3561"
         style="fill:#000000;fill-opacity:1;fill-rule:evenodd;stroke:none"
         d="m 353.6342,275.6421 c 1.1699,0 2.1184,-0.9485 2.1184,-2.1181 0,-1.1698 -0.9485,-2.1183 -2.1184,-2.1183 -1.1695,0 -2.118,0.9485 -2.118,2.1183 0,1.1696 0.9485,2.1181 2.118,2.1181"
         inkscape:connector-curvature="0" />
      <path
         id="path3563"
         style="fill:#000000;fill-opacity:1;fill-rule:evenodd;stroke:none"
         d="m 361.5267,273.3542 c 1.0696,0 1.9367,-0.8671 1.9367,-1.9366 0,-1.0695 -0.8671,-1.9366 -1.9367,-1.9366 -1.0695,0 -1.9366,0.8671 -1.9366,1.9366 0,1.0695 0.8671,1.9366 1.9366,1.9366"
         inkscape:connector-curvature="0" />
      <path
         id="path3565"
         style="fill:#000000;fill-opacity:1;fill-rule:evenodd;stroke:none"
         d="m 351.7532,283.1885 c 1.1698,0 2.1183,-0.9485 2.1183,-2.1181 0,-1.1698 -0.9485,-2.1183 -2.1183,-2.1183 -1.1696,0 -2.1181,0.9485 -2.1181,2.1183 0,1.1696 0.9485,2.1181 2.1181,2.1181"
         inkscape:connector-curvature="0" />
      <path
         id="path3567"
         style="fill:#000000;fill-opacity:1;fill-rule:evenodd;stroke:none"
         d="m 328.5575,285.4678 c 1.1699,0 2.1184,-0.9485 2.1184,-2.118 0,-1.1699 -0.9485,-2.1184 -2.1184,-2.1184 -1.1695,0 -2.118,0.9485 -2.118,2.1184 0,1.1695 0.9485,2.118 2.118,2.118"
         inkscape:connector-curvature="0" />
      <path
         id="path3569"
         style="fill:#000000;fill-opacity:1;fill-rule:evenodd;stroke:none"
         d="m 339.7944,280.3524 c 1.5981,0 2.8939,-1.2957 2.8939,-2.8939 0,-1.5982 -1.2958,-2.8939 -2.8939,-2.8939 -1.5982,0 -2.8939,1.2957 -2.8939,2.8939 0,1.5982 1.2957,2.8939 2.8939,2.8939"
         inkscape:connector-curvature="0" />
      <path
         id="path3571"
         style="fill:#000000;fill-opacity:1;fill-rule:evenodd;stroke:none"
         d="m 301.9445,267.8692 c 0.9535,0 1.7268,-0.7733 1.7268,-1.7272 0,-0.9535 -0.7733,-1.7268 -1.7268,-1.7268 -0.9539,0 -1.7272,0.7733 -1.7272,1.7268 0,0.9539 0.7733,1.7272 1.7272,1.7272"
         inkscape:connector-curvature="0" />
      <path
         id="path3573"
         style="fill:#000000;fill-opacity:1;fill-rule:evenodd;stroke:none"
         d="m 233.0093,304.3675 c 1.1698,0 2.1183,-0.9484 2.1183,-2.118 0,-1.1699 -0.9485,-2.1184 -2.1183,-2.1184 -1.1696,0 -2.1181,0.9485 -2.1181,2.1184 0,1.1696 0.9485,2.118 2.1181,2.118"
         inkscape:connector-curvature="0" />
      <path
         id="path3575"
         style="fill:#000000;fill-opacity:1;fill-rule:evenodd;stroke:none"
         d="m 222.1489,301.4473 c 1.4083,0 2.5501,-1.1418 2.5501,-2.5501 0,-1.4079 -1.1418,-2.5497 -2.5501,-2.5497 -1.408,0 -2.5498,1.1418 -2.5498,2.5497 0,1.4083 1.1418,2.5501 2.5498,2.5501"
         inkscape:connector-curvature="0" />
      <path
         id="path3577"
         style="fill:#000000;fill-opacity:1;fill-rule:evenodd;stroke:none"
         d="m 227.5121,287.1009 c 1.4082,0 2.55,-1.1418 2.55,-2.5501 0,-1.408 -1.1418,-2.5498 -2.55,-2.5498 -1.408,0 -2.5498,1.1418 -2.5498,2.5498 0,1.4083 1.1418,2.5501 2.5498,2.5501"
         inkscape:connector-curvature="0" />
      <path
         id="path3579"
         style="fill:#000000;fill-opacity:1;fill-rule:evenodd;stroke:none"
         d="m 254.8641,291.7936 c 1.4083,0 2.5501,-1.1418 2.5501,-2.55 0,-1.408 -1.1418,-2.5498 -2.5501,-2.5498 -1.4079,0 -2.5497,1.1418 -2.5497,2.5498 0,1.4082 1.1418,2.55 2.5497,2.55"
         inkscape:connector-curvature="0" />
      <path
         id="path3581"
         style="fill:#000000;fill-opacity:1;fill-rule:evenodd;stroke:none"
         d="m 281.5458,279.4584 c 1.4082,0 2.55,-1.1418 2.55,-2.5501 0,-1.408 -1.1418,-2.5497 -2.55,-2.5497 -1.408,0 -2.5498,1.1417 -2.5498,2.5497 0,1.4083 1.1418,2.5501 2.5498,2.5501"
         inkscape:connector-curvature="0" />
      <path
         id="path3583"
         style="fill:#000000;fill-opacity:1;fill-rule:evenodd;stroke:none"
         d="m 297.0989,294.207 c 1.4083,0 2.5501,-1.1418 2.5501,-2.55 0,-1.408 -1.1418,-2.5498 -2.5501,-2.5498 -1.4079,0 -2.5497,1.1418 -2.5497,2.5498 0,1.4082 1.1418,2.55 2.5497,2.55"
         inkscape:connector-curvature="0" />
      <path
         id="path3585"
         style="fill:#000000;fill-opacity:1;fill-rule:evenodd;stroke:none"
         d="m 361.1886,284.6874 c 1.4082,0 2.55,-1.1418 2.55,-2.55 0,-1.408 -1.1418,-2.5498 -2.55,-2.5498 -1.408,0 -2.5498,1.1418 -2.5498,2.5498 0,1.4082 1.1418,2.55 2.5498,2.55"
         inkscape:connector-curvature="0" />
      <path
         id="path3587"
         style="fill:none;stroke:#000000;stroke-width:1.13390005;stroke-linecap:butt;stroke-linejoin:miter;stroke-miterlimit:10;stroke-opacity:1;stroke-dasharray:none"
         d="m 210.4866,274.811 c 3.6706,-1.7323 8.4767,-1.9443 14.7487,1.8652 2.3989,1.457 4.8948,3.5022 7.1061,5.8994 2.5946,2.8131 2.4577,5.654 1.9293,8.2412 m -32.231,-7.7049 c 1.561,0.2084 3.0092,0.0437 4.6831,-0.6225 1.2237,-0.4869 2.7867,-0.7083 3.725,0.2991 1.0505,1.1279 1.9891,1.7671 3.4398,2.0032 1.6246,0.2642 1.9029,1.6101 1.8162,3.5215"
         inkscape:connector-curvature="0" />
      <path
         id="path3589"
         style="fill:none;stroke:#000000;stroke-width:1.13390005;stroke-linecap:butt;stroke-linejoin:miter;stroke-miterlimit:10;stroke-opacity:1;stroke-dasharray:none"
         d="m 224.0286,266.0839 c 2.9301,-11.387 3.5889,-26.9651 11.2087,-28.7821 0.5304,1.0808 0.5726,2.6495 0.6432,4.1893 0.5071,1.8145 0.4136,3.9286 0.4399,5.9825 0.6427,1.9049 0.6855,4.4082 0.8479,6.7916 0.2738,2.6203 -0.3518,4.8747 -1.8771,5.9193 -2.1453,2.2793 -4.4258,4.8296 -6.571,7.109 m 54.036,-16.4446 c 4.3526,-4.6449 7.8678,-3.4714 12.8928,-3.9898 0.7844,-2.3094 2.2601,-4.57 1.7396,-7.0974 0.3218,-2.1101 0.6854,-4.2622 0.3184,-5.6832 0.2205,-2.4664 -0.0156,-4.3466 -0.6424,-5.4553 -5.7072,4.3178 -13.4237,14.9035 -19.8068,20.9691 m 61.6264,34.6796 c 3.0761,1.6307 10.339,5.6559 14.1125,5.258 2.4282,-0.2563 3.3463,-3.1714 3.9039,-5.2549 -5.9397,-0.4453 -12.534,-0.6341 -18.0164,-0.003 z m -11.0628,-32.6787 c 5.0423,-3.056 10.9638,-5.9179 16.2076,-6.0057 0.1945,1.2053 -0.0136,1.7223 -0.2786,2.927 0.2497,0.9737 0.1953,2.1002 0.2021,3.1955 1.5613,1.9891 1.8306,4.2262 2.2218,6.448 m -65.4335,41.3646 c 11.3125,5.6831 22.9875,8.85 31.3775,10.0028 -0.0102,-1.3858 -0.0207,-2.7717 -0.0303,-4.1564 0.6193,-1.0619 0.5062,-2.5174 0.6165,-4.0504 1.0293,-0.7759 1.0213,-3.1074 1.1537,-5.2291 1.1503,-1.2651 1.15,-4.4087 1.0758,-5.8714 m -87.1512,-31.9107 c 2.3315,-6.6286 4.3049,-14.2776 8.0753,-16.8245 m -6.0641,16.8245 c 1.9978,-3.9291 4.335,-8.5025 6.5009,-10.4879 m -5.6965,13.3035 c 2.1906,-3.3752 4.381,-6.1095 6.5699,-7.9106 m 150.9726,19.9777 c 9.4499,-1.2963 18.1228,0.8626 25.545,8.5952 m -32.1148,-6.7181 c 9.8875,0.0173 19.5965,1.6297 27.218,8.2426 m -27.0839,-4.6225 c 7.143,0.8156 13.4223,1.4962 20.3394,6.3941 m -17.926,-3.0421 c 4.2794,1.5191 8.5513,3.094 12.6034,6.4358 m -12.3353,-2.8157 c 4.1993,3.0257 8.398,6.554 12.5978,8.2919 m -12.7318,-3.465 c 4.5249,3.4234 8.9889,7.3882 13.7548,8.6448 m -14.6934,-4.2202 c 5.2016,3.9242 10.3657,8.2865 15.8012,9.3997 m -22.9074,-11.1428 c 7.5218,7.8115 15.0276,15.7369 23.4638,16.2236 M 285.414,245.2944 c 4.0886,-4.5054 7.9302,-8.7495 12.3579,-11.3894 m -9.2515,11.5308 c 2.9342,-2.3465 5.8658,-5.002 8.801,-6.0746 m 38.5393,12.0979 c 2.5917,-1.3362 5.4406,-2.6535 8.0343,-3.0736 m -4.237,5.0468 c 1.4508,-0.8739 2.6374,-1.44 4.2044,-1.7427 m -30.157,44.428 c -3.5237,0.3038 -7.0472,0.3447 -10.5704,0 m 9.6319,5.2821 c -5.2407,-0.434 -10.3734,-1.4891 -15.3973,-3.0028 m -2.2793,2.5475 c 5.1092,3.2142 10.5758,3.9351 16.8576,4.4773 m -2.6453,-56.4998 c -2.6104,-8.0649 -2.1186,-8.1352 -9.7772,-1.6852 m 66.28,40.4974 c 6.5797,-1.0774 9.8458,-8.1626 8.0949,-15.7637"
         inkscape:connector-curvature="0" />
      <path
         id="path3591"
         style="fill:#ffffff;fill-opacity:1;fill-rule:evenodd;stroke:#000000;stroke-width:1.13390005;stroke-linecap:butt;stroke-linejoin:miter;stroke-miterlimit:10;stroke-opacity:1;stroke-dasharray:none"
         d="m 205.7689,300.1476 c 2.8741,0 5.2047,-2.3307 5.2047,-5.2047 0,-2.874 -2.3306,-5.2047 -5.2047,-5.2047 -2.874,0 -5.2047,2.3307 -5.2047,5.2047 0,2.874 2.3307,5.2047 5.2047,5.2047 z"
         inkscape:connector-curvature="0" />
      <path
         id="path3593"
         style="fill:#000000;fill-opacity:1;fill-rule:evenodd;stroke:none"
         d="m 205.2848,297.6058 c 1.4706,0 2.6628,-1.1923 2.6628,-2.6629 0,-1.4706 -1.1922,-2.6629 -2.6628,-2.6629 -1.4707,0 -2.6629,1.1923 -2.6629,2.6629 0,0.5783 0.1851,1.1137 0.4983,1.5505 l 1.3524,-0.3597 -0.002,1.3459 c 0.2566,0.0825 0.5298,0.1262 0.8139,0.1262"
         inkscape:connector-curvature="0" />
      <g
         id="g3595">
        <g
           id="g3597">
          <g
             id="g3603">
            <path
               id="path3611"
               style="fill:url(#linearGradient3605);stroke:none"
               d="m 233.6156,502.2541 c 4.6965,-3.6292 18.4499,0.0922 12.4957,11.8049 -4.7866,9.4161 -12.6011,16.1241 -19.4984,20.7233 -15.8159,18.5232 -43.9449,9.9935 -27.7962,-16.8268 7.0112,-11.645 17.8038,-17.9886 34.7989,-15.7014 z"
               inkscape:connector-curvature="0" />
          </g>
        </g>
      </g>
      <path
         id="path3613"
         style="fill:none;stroke:#000000;stroke-width:1.13390005;stroke-linecap:butt;stroke-linejoin:miter;stroke-miterlimit:10;stroke-opacity:1;stroke-dasharray:none"
         d="m 233.6156,502.2541 c 4.6965,-3.6292 18.4499,0.0922 12.4957,11.8049 -4.7866,9.4161 -12.6011,16.1241 -19.4984,20.7233 -15.8159,18.5232 -43.9449,9.9935 -27.7962,-16.8268 7.0112,-11.645 17.8038,-17.9886 34.7989,-15.7014 z"
         inkscape:connector-curvature="0" />
      <g
         id="g3615">
        <g
           id="g3617">
          <g
             id="g3623">
            <path
               id="path3631"
               style="fill:url(#linearGradient3625);stroke:none"
               d="m 263.5064,545.5358 c 3.5305,-5.8669 11.465,-16.4999 8.6564,-23.4822 -2.9344,-7.2961 -17.0708,-7.6978 -19.521,3.9404 -0.9621,4.5697 -2.0296,10.052 -3.6488,15.0151 -7.9968,8.4895 -12.5938,17.2749 -15.0599,26.441 -2.035,7.5649 -6.3635,31.6917 3.418,35.9949 8.6902,3.8214 22.0762,-16.7638 26.0306,-22.5657 8.5374,-12.5272 11.6067,-23.9482 0.1247,-35.3435 z"
               inkscape:connector-curvature="0" />
          </g>
        </g>
      </g>
      <path
         id="path3633"
         style="fill:none;stroke:#000000;stroke-width:1.13390005;stroke-linecap:butt;stroke-linejoin:miter;stroke-miterlimit:10;stroke-opacity:1;stroke-dasharray:none"
         d="m 263.5064,545.5358 c 3.5305,-5.8669 11.465,-16.4999 8.6564,-23.4822 -2.9344,-7.2961 -17.0708,-7.6978 -19.521,3.9404 -0.9621,4.5697 -2.0296,10.052 -3.6488,15.0151 -7.9968,8.4895 -12.5938,17.2749 -15.0599,26.441 -2.035,7.5649 -6.3635,31.6917 3.418,35.9949 8.6902,3.8214 22.0762,-16.7638 26.0306,-22.5657 8.5374,-12.5272 11.6067,-23.9482 0.1247,-35.3435 z"
         inkscape:connector-curvature="0" />
      <g
         id="g3635">
        <g
           id="g3637">
          <g
             id="g3643">
            <path
               id="path3651"
               style="fill:url(#linearGradient3645);stroke:none"
               d="m 314.6049,538.1359 c -3.6156,-6.8411 -6.5665,-14.1361 -7.5286,-20.4446 -1.7487,-11.4658 11.3287,-14.4255 21.5388,-6.7875 12.0589,9.021 15.6835,25.1441 17.5564,41.2398 9.4697,1.6637 22.2018,12.5983 20.8046,23.2538 -2.6788,20.4499 -26.1029,6.4133 -34.1785,-1.3542 -9.1922,-8.8409 -15.3765,-20.6903 -18.1927,-35.9073 z"
               inkscape:connector-curvature="0" />
          </g>
        </g>
      </g>
      <path
         id="path3653"
         style="fill:none;stroke:#000000;stroke-width:1.13390005;stroke-linecap:butt;stroke-linejoin:miter;stroke-miterlimit:10;stroke-opacity:1;stroke-dasharray:none"
         d="m 314.6049,538.1359 c -3.6156,-6.8411 -6.5665,-14.1361 -7.5286,-20.4446 -1.7487,-11.4658 11.3287,-14.4255 21.5388,-6.7875 12.0589,9.021 15.6835,25.1441 17.5564,41.2398 9.4697,1.6637 22.2018,12.5983 20.8046,23.2538 -2.6788,20.4499 -26.1029,6.4133 -34.1785,-1.3542 -9.1922,-8.8409 -15.3765,-20.6903 -18.1927,-35.9073 z"
         inkscape:connector-curvature="0" />
      <g
         id="g3655">
        <g
           id="g3657">
          <g
             id="g3663">
            <path
               id="path3671"
               style="fill:url(#linearGradient3665);stroke:none"
               d="m 365.1114,532.4148 c -8.456,-5.499 -15.1446,-11.8225 -19.8079,-19.0917 -3.3449,-5.214 -8.3052,-14.7804 -3.5028,-20.5679 5.4978,-6.6254 16.3642,1.1812 16.9974,6.12 14.0638,1.666 31.5649,3.7577 42.8142,47.1966 -1.9862,3.9725 -3.9725,7.9447 -5.9584,11.9171 -16.886,-2.7141 -25.577,-12.5302 -30.5425,-25.5741 z"
               inkscape:connector-curvature="0" />
          </g>
        </g>
      </g>
      <path
         id="path3673"
         style="fill:none;stroke:#000000;stroke-width:1.13390005;stroke-linecap:butt;stroke-linejoin:miter;stroke-miterlimit:10;stroke-opacity:1;stroke-dasharray:none"
         d="m 365.1114,532.4148 c -8.456,-5.499 -15.1446,-11.8225 -19.8079,-19.0917 -3.3449,-5.214 -8.3052,-14.7804 -3.5028,-20.5679 5.4978,-6.6254 16.3642,1.1812 16.9974,6.12 14.0638,1.666 31.5649,3.7577 42.8142,47.1966 -1.9862,3.9725 -3.9725,7.9447 -5.9584,11.9171 -16.886,-2.7141 -25.577,-12.5302 -30.5425,-25.5741 z"
         inkscape:connector-curvature="0" />
      <g
         id="g3675">
        <g
           id="g3677">
          <g
             id="g3683">
            <path
               id="path3691"
               style="fill:url(#linearGradient3685);stroke:none"
               d="m 180.1678,564.3091 c 1.4737,-1.4743 3.3684,-2.5274 5.684,-3.1578 l -5.684,3.1578 z"
               inkscape:connector-curvature="0" />
          </g>
        </g>
      </g>
      <path
         id="path3693"
         style="fill:none;stroke:#000000;stroke-width:1.13390005;stroke-linecap:butt;stroke-linejoin:miter;stroke-miterlimit:10;stroke-opacity:1;stroke-dasharray:none"
         d="m 180.1678,564.3091 c 1.4737,-1.4743 3.3684,-2.5274 5.684,-3.1578 l -5.684,3.1578 z"
         inkscape:connector-curvature="0" />
      <g
         id="g3695">
        <g
           id="g3697">
          <g
             id="g3703">
            <path
               id="path3711"
               style="fill:url(#linearGradient3705);stroke:none"
               d="m 225.1664,535.7307 c -2.7893,-4.4742 -9.7654,-4.833 -9.4734,-0.1576 0.235,3.7659 -1.1574,4.7464 -4.5788,2.2102 -6.2461,-4.6293 -10.6577,-2.4744 -12.7891,2.3686 -9.5788,-3.1858 -17.8475,0.4797 -24.4729,8.21 -1.7926,2.0917 -1.7875,4.9201 -0.7894,7.2632 0.8039,1.8873 0.4989,3.5674 -0.1579,5.368 -1.292,3.5427 -1.5463,7.1512 3.6314,8.6839 1.878,0.5559 3.2687,1.2612 3.9473,3.1578 1.1103,3.1031 3.7641,3.35 8.3681,1.7368 27.1197,-9.5028 39.3943,-22.098 36.3147,-38.8409"
               inkscape:connector-curvature="0" />
          </g>
        </g>
      </g>
      <path
         id="path3713"
         style="fill:none;stroke:#000000;stroke-width:1.13390005;stroke-linecap:butt;stroke-linejoin:miter;stroke-miterlimit:10;stroke-opacity:1;stroke-dasharray:none"
         d="m 225.1664,535.7307 c -2.7893,-4.4742 -9.7654,-4.833 -9.4734,-0.1576 0.235,3.7659 -1.1574,4.7464 -4.5788,2.2102 -6.2461,-4.6293 -10.6577,-2.4744 -12.7891,2.3686 -9.5788,-3.1858 -17.8475,0.4797 -24.4729,8.21 -1.7926,2.0917 -1.7875,4.9201 -0.7894,7.2632 0.8039,1.8873 0.4989,3.5674 -0.1579,5.368 -1.292,3.5427 -1.5463,7.1512 3.6314,8.6839 1.878,0.5559 3.2687,1.2612 3.9473,3.1578 1.1103,3.1031 3.7641,3.35 8.3681,1.7368 27.1197,-9.5028 39.3943,-22.098 36.3147,-38.8409 z"
         inkscape:connector-curvature="0" />
      <path
         id="path3715"
         style="fill:none;stroke:#000000;stroke-width:1.13390005;stroke-linecap:butt;stroke-linejoin:miter;stroke-miterlimit:10;stroke-opacity:1;stroke-dasharray:none"
         d="m 180.1678,564.3091 c 1.4737,-1.4743 3.3684,-2.5274 5.684,-3.1578"
         inkscape:connector-curvature="0" />
      <g
         id="g3717">
        <g
           id="g3719">
          <g
             id="g3725">
            <path
               id="path3733"
               style="fill:url(#linearGradient3727);stroke:none"
               d="m 233.9107,468.4856 c -4.8384,-0.0355 -8.0762,-4.4337 -12.9498,-6.0571 -6.1483,-2.0477 -13.0113,-3.2043 -11.4636,2.0704 1.0647,3.6289 -2.0613,6.6609 -8.566,0.9207 -4.7038,-4.1505 -11.0837,-6.5131 -18.0034,-5.0094 -3.1864,0.6928 -3.8687,2.7253 -1.9171,5.3966 1.8709,2.5617 -1.6713,5.9687 -5.851,2.5084 -5.3631,-4.439 -11.7694,-3.683 -17.2995,-1.4839 -2.5044,0.9961 -3.4101,2.8119 -2.5299,5.7486 0.6599,2.2 -0.9746,4.4252 -3.8761,4.743 -3.7891,0.4147 -5.0315,4.2142 -3.047,7.4032 1.5358,2.4679 -0.2888,4.7616 -0.9204,7.0994 -2.5024,9.2599 3.6167,12.687 6.2274,13.9564 3.0589,1.4864 2.4826,8.0367 6.8162,9.7375 5.7867,2.2714 11.8018,2.6776 17.1048,0.6032 4.4286,-1.7319 6.9908,-7.7709 9.0788,-13.4039 0.7422,-2.0024 1.7561,-6.8417 4.4788,-6.3252 1.5999,0.3036 2.4188,1.9534 2.5628,3.49 0.2523,2.6878 2.0132,3.926 4.6318,2.9843 4.6111,-1.6591 9.4277,-9.2437 10.849,-14.148 0.5729,-1.9777 1.5205,-3.1674 2.5334,-3.564 1.3016,-0.5105 2.7119,0.2897 3.5727,2.4072 1.3405,3.2976 5.4967,3.3832 9.4009,0.0737 3.9574,-3.3545 6.8831,-4.8637 13.7752,-9.8297 6.7051,-4.8308 2.0157,-9.273 -4.608,-9.3214 z"
               inkscape:connector-curvature="0" />
          </g>
        </g>
      </g>
      <path
         id="path3735"
         style="fill:none;stroke:#000000;stroke-width:1.13390005;stroke-linecap:butt;stroke-linejoin:miter;stroke-miterlimit:10;stroke-opacity:1;stroke-dasharray:none"
         d="m 233.9107,468.4856 c -4.8384,-0.0355 -8.0762,-4.4337 -12.9498,-6.0571 -6.1483,-2.0477 -13.0113,-3.2043 -11.4636,2.0704 1.0647,3.6289 -2.0613,6.6609 -8.566,0.9207 -4.7038,-4.1505 -11.0837,-6.5131 -18.0034,-5.0094 -3.1864,0.6928 -3.8687,2.7253 -1.9171,5.3966 1.8709,2.5617 -1.6713,5.9687 -5.851,2.5084 -5.3631,-4.439 -11.7694,-3.683 -17.2995,-1.4839 -2.5044,0.9961 -3.4101,2.8119 -2.5299,5.7486 0.6599,2.2 -0.9746,4.4252 -3.8761,4.743 -3.7891,0.4147 -5.0315,4.2142 -3.047,7.4032 1.5358,2.4679 -0.2888,4.7616 -0.9204,7.0994 -2.5024,9.2599 3.6167,12.687 6.2274,13.9564 3.0589,1.4864 2.4826,8.0367 6.8162,9.7375 5.7867,2.2714 11.8018,2.6776 17.1048,0.6032 4.4286,-1.7319 6.9908,-7.7709 9.0788,-13.4039 0.7422,-2.0024 1.7561,-6.8417 4.4788,-6.3252 1.5999,0.3036 2.4188,1.9534 2.5628,3.49 0.2523,2.6878 2.0132,3.926 4.6318,2.9843 4.6111,-1.6591 9.4277,-9.2437 10.849,-14.148 0.5729,-1.9777 1.5205,-3.1674 2.5334,-3.564 1.3016,-0.5105 2.7119,0.2897 3.5727,2.4072 1.3405,3.2976 5.4967,3.3832 9.4009,0.0737 3.9574,-3.3545 6.8831,-4.8637 13.7752,-9.8297 6.7051,-4.8308 2.0157,-9.273 -4.608,-9.3214 z"
         inkscape:connector-curvature="0" />
      <path
         id="path3737"
         style="fill:none;stroke:#000000;stroke-width:1.13390005;stroke-linecap:butt;stroke-linejoin:miter;stroke-miterlimit:10;stroke-opacity:1;stroke-dasharray:none"
         d="m 215.2868,478.2101 c -24.4704,3.0285 -46.362,9.0629 -59.9652,19.0199 m 61.4775,-31.8537 c 1.0862,3.9001 5.4479,10.9233 11.1719,13.4155 m -59.4547,-5.3782 c 3.6136,6.0562 8.0067,9.3841 12.7536,11.4715 -3.2731,5.0057 -3.4282,9.1605 -0.466,12.4662 m 12.8149,-29.3777 c 1.9803,4.9113 5.0584,9.1134 9.8719,11.7581 -2.0027,4.3183 -2.5877,8.9201 -1.7569,13.8059"
         inkscape:connector-curvature="0" />
      <g
         id="g3739">
        <g
           id="g3741">
          <g
             id="g3747">
            <path
               id="path3755"
               style="fill:url(#linearGradient3749);stroke:none"
               d="m 235.8703,476.0461 c -3.5569,1.1308 -7.7644,0.6565 -12.083,-0.3534 -9.6145,-2.2488 -19.2815,1.2305 -16.6878,9.6205 1.027,3.3225 -0.3923,7.0477 -8.5215,4.2335 -6.107,-2.1141 -12.2825,-0.3813 -18.1038,4.225 -2.5798,2.0413 -2.7297,4.0646 0.1021,5.6166 2.8341,1.554 1.919,5.9777 -3.6145,5.1336 -8.5666,-1.3077 -11.9304,2.6886 -16.2649,7.1362 -1.963,2.0137 -1.4505,5.15 0.6344,7.4177 1.5619,1.6991 1.4428,3.8868 -1.2523,5.3475 -3.7968,2.0577 -3.4631,7.3182 0.0629,9.3246 2.5651,1.4598 0.9006,5.0448 1.2909,7.4427 1.5463,9.4966 10.4817,9.3316 15.1155,8.7222 3.5155,-0.4627 2.7181,1.6696 3.1419,3.0991 0.8915,3.0072 5.2418,1.125 5.4873,-1.6243 0.4433,-4.9728 3.4812,-2.7825 4.625,-0.1358 0.5462,1.2646 1.7852,1.6217 3.5141,1.2515 1.7283,-0.3702 3.6887,-1.385 4.9017,-2.6161 3.4832,-3.5348 2.8329,-9.3806 2.431,-15.4091 -0.1432,-2.1418 -1.2311,-6.9749 1.5817,-7.7162 1.6526,-0.4351 3.0036,1.1866 3.5603,2.6275 0.8975,2.3212 4.7931,3.0231 6.8876,1.008 3.6885,-3.5496 6.4687,-12.8416 5.7799,-18.3549 -0.2883,-2.3074 0.5879,-5.4803 1.3838,-6.289 1.0234,-1.0395 2.7068,-0.9417 4.4258,0.593 2.6765,2.3905 6.6725,1.4692 8.9872,-3.2612 2.3465,-4.7951 2.0087,-10.0491 8.5264,-15.9237 5.5105,-4.9668 -0.5469,-12.8211 -5.9117,-11.1155 z"
               inkscape:connector-curvature="0" />
          </g>
        </g>
      </g>
      <path
         id="path3757"
         style="fill:none;stroke:#000000;stroke-width:1.13390005;stroke-linecap:butt;stroke-linejoin:miter;stroke-miterlimit:10;stroke-opacity:1;stroke-dasharray:none"
         d="m 235.8703,476.0461 c -3.5569,1.1308 -7.7644,0.6565 -12.083,-0.3534 -9.6145,-2.2488 -19.2815,1.2305 -16.6878,9.6205 1.027,3.3225 -0.3923,7.0477 -8.5215,4.2335 -6.107,-2.1141 -12.2825,-0.3813 -18.1038,4.225 -2.5798,2.0413 -2.7297,4.0646 0.1021,5.6166 2.8341,1.554 1.919,5.9777 -3.6145,5.1336 -8.5666,-1.3077 -11.9304,2.6886 -16.2649,7.1362 -1.963,2.0137 -1.4505,5.15 0.6344,7.4177 1.5619,1.6991 1.4428,3.8868 -1.2523,5.3475 -3.7968,2.0577 -3.4631,7.3182 0.0629,9.3246 2.5651,1.4598 0.9006,5.0448 1.2909,7.4427 1.5463,9.4966 10.4817,9.3316 15.1155,8.7222 3.5155,-0.4627 2.7181,1.6696 3.1419,3.0991 0.8915,3.0072 5.2418,1.125 5.4873,-1.6243 0.4433,-4.9728 3.4812,-2.7825 4.625,-0.1358 0.5462,1.2646 1.7852,1.6217 3.5141,1.2515 1.7283,-0.3702 3.6887,-1.385 4.9017,-2.6161 3.4832,-3.5348 2.8329,-9.3806 2.431,-15.4091 -0.1432,-2.1418 -1.2311,-6.9749 1.5817,-7.7162 1.6526,-0.4351 3.0036,1.1866 3.5603,2.6275 0.8975,2.3212 4.7931,3.0231 6.8876,1.008 3.6885,-3.5496 6.4687,-12.8416 5.7799,-18.3549 -0.2883,-2.3074 0.5879,-5.4803 1.3838,-6.289 1.0234,-1.0395 2.7068,-0.9417 4.4258,0.593 2.6765,2.3905 6.6725,1.4692 8.9872,-3.2612 2.3465,-4.7951 2.0087,-10.0491 8.5264,-15.9237 5.5105,-4.9668 -0.5469,-12.8211 -5.9117,-11.1155 z"
         inkscape:connector-curvature="0" />
      <path
         id="path3759"
         style="fill:none;stroke:#000000;stroke-width:1.13390005;stroke-linecap:butt;stroke-linejoin:miter;stroke-miterlimit:10;stroke-opacity:1;stroke-dasharray:none"
         d="m 242.1417,478.0692 c -31.0553,14.7668 -64.5299,43.4265 -70.4679,63.4456 m 42.6421,-61.9446 c 2.8911,3.5532 8.2534,6.7164 14.5157,5.3733 -3.3364,2.9401 -4.9399,10.0324 -1.4777,16.7233 m -58.1083,10.1443 c 3.7599,4.9661 14.1599,5.7569 21.1714,2.7156 -2.0897,7.0784 -1.7917,19.9256 2.3338,25.636 m -2.8763,-45.9419 c 4.0224,3.2558 11.4846,5.2696 20.48,2.7688 -2.3119,6.6756 -3.0237,16.0118 0.8374,23.3088"
         inkscape:connector-curvature="0" />
      <g
         id="g3761">
        <g
           id="g3763">
          <g
             id="g3769">
            <path
               id="path3777"
               style="fill:url(#linearGradient3771);stroke:none"
               d="m 236.2357,533.0546 c -1.7311,0.5811 -3.5677,0.9204 -5.2569,0.3999 -4.2267,-1.3011 -7.6614,-0.6347 -9.0124,1.5973 -1.2586,2.0793 -0.4944,4.0162 0.5411,5.7941 1.4267,2.448 -0.1151,3.9665 -2.4044,4.0637 -3.1393,0.1344 -6.5746,-2.857 -9.629,-3.1243 -3.2025,-0.2807 -5.9621,1.3855 -9.144,3.895 -1.9527,1.541 -1.703,3.621 0.3476,4.8189 1.9658,1.1481 0.8713,4.7744 -2.8962,3.773 -3.9257,-1.0438 -8.3548,0.8521 -11.734,4.7792 -1.3586,1.5792 -1.904,2.9718 -0.5012,4.71 1.0514,1.3025 0.8776,2.8803 -0.9881,4.0675 -2.4361,1.5499 -2.2876,4.4418 -0.0715,5.9864 1.7147,1.1951 0.8836,3.8753 1.1039,5.7028 0.8716,7.2414 5.3299,7.7573 8.5096,6.9029 2.6342,-0.7072 3.1694,0.8016 3.8355,1.6557 1.4122,1.8114 3.966,2.9152 4.6089,0.8226 0.6837,-2.2252 3.9625,-0.7852 4.6306,0.7747 1.243,2.9027 7.8795,-6.5933 7.6564,-13.4467 -0.053,-1.6322 -0.7061,-5.3197 1.2688,-5.8694 1.1605,-0.3226 2.4279,0.9204 2.9486,1.9352 0.9113,1.7757 2.4395,2.0449 3.9419,0.5208 2.6458,-2.6845 5.1928,-11.124 4.7959,-14.9908 -0.1599,-1.5588 0.1497,-2.6986 0.7217,-3.3106 0.735,-0.7869 1.9057,-0.7032 3.0696,0.4748 1.8122,1.8343 4.6338,0.5077 6.3485,-3.0829 1.7382,-3.6406 1.4984,-7.2635 5.8383,-12.0853 1.5471,-1.7192 0.9025,-4.2786 -0.47,-6.1231 -2.6938,-3.619 -4.7849,-1.7402 -8.0592,-0.6414 z"
               inkscape:connector-curvature="0" />
          </g>
        </g>
      </g>
      <path
         id="path3779"
         style="fill:none;stroke:#000000;stroke-width:1.13390005;stroke-linecap:butt;stroke-linejoin:miter;stroke-miterlimit:10;stroke-opacity:1;stroke-dasharray:none"
         d="m 236.2357,533.0546 c -1.7311,0.5811 -3.5677,0.9204 -5.2569,0.3999 -4.2267,-1.3011 -7.6614,-0.6347 -9.0124,1.5973 -1.2586,2.0793 -0.4944,4.0162 0.5411,5.7941 1.4267,2.448 -0.1151,3.9665 -2.4044,4.0637 -3.1393,0.1344 -6.5746,-2.857 -9.629,-3.1243 -3.2025,-0.2807 -5.9621,1.3855 -9.144,3.895 -1.9527,1.541 -1.703,3.621 0.3476,4.8189 1.9658,1.1481 0.8713,4.7744 -2.8962,3.773 -3.9257,-1.0438 -8.3548,0.8521 -11.734,4.7792 -1.3586,1.5792 -1.904,2.9718 -0.5012,4.71 1.0514,1.3025 0.8776,2.8803 -0.9881,4.0675 -2.4361,1.5499 -2.2876,4.4418 -0.0715,5.9864 1.7147,1.1951 0.8836,3.8753 1.1039,5.7028 0.8716,7.2414 5.3299,7.7573 8.5096,6.9029 2.6342,-0.7072 3.1694,0.8016 3.8355,1.6557 1.4122,1.8114 3.966,2.9152 4.6089,0.8226 0.6837,-2.2252 3.9625,-0.7852 4.6306,0.7747 1.243,2.9027 7.8795,-6.5933 7.6564,-13.4467 -0.053,-1.6322 -0.7061,-5.3197 1.2688,-5.8694 1.1605,-0.3226 2.4279,0.9204 2.9486,1.9352 0.9113,1.7757 2.4395,2.0449 3.9419,0.5208 2.6458,-2.6845 5.1928,-11.124 4.7959,-14.9908 -0.1599,-1.5588 0.1497,-2.6986 0.7217,-3.3106 0.735,-0.7869 1.9057,-0.7032 3.0696,0.4748 1.8122,1.8343 4.6338,0.5077 6.3485,-3.0829 1.7382,-3.6406 1.4984,-7.2635 5.8383,-12.0853 1.5471,-1.7192 0.9025,-4.2786 -0.47,-6.1231 -2.6938,-3.619 -4.7849,-1.7402 -8.0592,-0.6414 z"
         inkscape:connector-curvature="0" />
      <path
         id="path3781"
         style="fill:none;stroke:#000000;stroke-width:1.13390005;stroke-linecap:butt;stroke-linejoin:miter;stroke-miterlimit:10;stroke-opacity:1;stroke-dasharray:none"
         d="m 225.1389,549.032 c -13.9816,9.5984 -24.6506,19.5897 -30.4458,31.4654 m 31.3495,-43.8193 c 2.2731,2.4415 7.1886,5.1395 11.5288,5.0006 m -42.8945,18.9005 c 4.7807,2.4067 9.5613,2.8327 14.3422,1.2785 -1.048,4.9354 0.0831,8.2856 3.3928,10.053 m -3.0246,-25.0013 c 2.357,2.4818 8.7288,4.8036 14.0658,3.261 -1.3785,3.8866 -1.6424,8.0207 0.5446,12.6995"
         inkscape:connector-curvature="0" />
      <g
         id="g3783">
        <g
           id="g3785">
          <g
             id="g3791">
            <path
               id="path3799"
               style="fill:url(#linearGradient3793);stroke:none"
               d="m 241.7006,536.6957 c -2.094,1.9493 -4.9292,4.7338 -8.0266,5.8739 -6.5693,2.4182 -12.3636,6.9959 -9.2704,11.3567 1.552,2.1878 4.0428,5.406 -3.0319,5.7702 -5.7099,0.2946 -8.7033,3.9039 -11.3083,9.0278 -1.1993,2.3596 -0.3526,3.7933 2.1952,3.8738 2.4426,0.0769 3.1705,4.1777 -0.9616,5.1186 -4.3052,0.9805 -7.5336,4.5963 -9.0314,9.8231 -0.6024,2.1014 -0.0712,3.7579 2.0919,4.6474 1.6209,0.6665 2.1734,2.1841 0.8975,4.1789 -1.6662,2.6042 -0.2067,5.5 2.6606,5.8138 2.2187,0.2435 2.6433,2.7423 3.6941,4.294 4.163,6.1477 8.7457,4.426 11.4548,2.0882 2.2445,-1.936 3.4563,-0.8291 4.4969,-0.3804 2.2056,0.9513 4.3583,-0.9723 4.0277,-3.1889 -0.3512,-2.3573 1.5792,-2.8747 2.9452,-1.7859 1.6487,1.3142 3.3764,-1.1415 4.2237,-3.6893 1.2163,-3.6584 0.178,-6.5126 -2.0696,-10.6103 -0.7988,-1.4562 -3.1224,-4.4839 -1.4482,-5.9533 0.9839,-0.8638 2.7878,-0.3566 3.7604,0.3089 1.7008,1.1651 3.3137,0.6594 4.081,-1.4638 1.3516,-3.7375 -0.0266,-12.6519 -2.1829,-15.9684 -0.8697,-1.3374 -1.0891,-2.524 -0.8113,-3.3607 0.3569,-1.0761 1.5358,-1.5753 3.21,-1.0769 2.6061,0.7752 4.7503,-1.8148 4.7789,-5.9185 0.0292,-4.1593 -1.6101,-7.5878 0.8192,-13.9498 1.6849,-4.4127 -4.4195,-7.4124 -7.1949,-4.8291 z"
               inkscape:connector-curvature="0" />
          </g>
        </g>
      </g>
      <path
         id="path3801"
         style="fill:none;stroke:#000000;stroke-width:1.13390005;stroke-linecap:butt;stroke-linejoin:miter;stroke-miterlimit:10;stroke-opacity:1;stroke-dasharray:none"
         d="m 241.7006,536.6957 c -2.094,1.9493 -4.9292,4.7338 -8.0266,5.8739 -6.5693,2.4182 -12.3636,6.9959 -9.2704,11.3567 1.552,2.1878 4.0428,5.406 -3.0319,5.7702 -5.7099,0.2946 -8.7033,3.9039 -11.3083,9.0278 -1.1993,2.3596 -0.3526,3.7933 2.1952,3.8738 2.4426,0.0769 3.1705,4.1777 -0.9616,5.1186 -4.3052,0.9805 -7.5336,4.5963 -9.0314,9.8231 -0.6024,2.1014 -0.0712,3.7579 2.0919,4.6474 1.6209,0.6665 2.1734,2.1841 0.8975,4.1789 -1.6662,2.6042 -0.2067,5.5 2.6606,5.8138 2.2187,0.2435 2.6433,2.7423 3.6941,4.294 4.163,6.1477 8.7457,4.426 11.4548,2.0882 2.2445,-1.936 3.4563,-0.8291 4.4969,-0.3804 2.2056,0.9513 4.3583,-0.9723 4.0277,-3.1889 -0.3512,-2.3573 1.5792,-2.8747 2.9452,-1.7859 1.6487,1.3142 3.3764,-1.1415 4.2237,-3.6893 1.2163,-3.6584 0.178,-6.5126 -2.0696,-10.6103 -0.7988,-1.4562 -3.1224,-4.4839 -1.4482,-5.9533 0.9839,-0.8638 2.7878,-0.3566 3.7604,0.3089 1.7008,1.1651 3.3137,0.6594 4.081,-1.4638 1.3516,-3.7375 -0.0266,-12.6519 -2.1829,-15.9684 -0.8697,-1.3374 -1.0891,-2.524 -0.8113,-3.3607 0.3569,-1.0761 1.5358,-1.5753 3.21,-1.0769 2.6061,0.7752 4.7503,-1.8148 4.7789,-5.9185 0.0292,-4.1593 -1.6101,-7.5878 0.8192,-13.9498 1.6849,-4.4127 -4.4195,-7.4124 -7.1949,-4.8291 z"
         inkscape:connector-curvature="0" />
      <path
         id="path3803"
         style="fill:none;stroke:#000000;stroke-width:1.13390005;stroke-linecap:butt;stroke-linejoin:miter;stroke-miterlimit:10;stroke-opacity:1;stroke-dasharray:none"
         d="m 246.6218,536.3359 c -15.5466,22.5777 -27.6049,49.2772 -27.8997,67.8388 m 9.7639,-53.7988 c 3.564,0.4768 7.6848,-0.3875 11.0872,-3.4441 -0.004,4.0493 1.5676,8.6091 3.9685,11.361 m -34.4273,29.7346 c 5.0607,0.3523 9.9697,-1.7921 14.2188,-6.2161 2.2901,5.6906 5.0196,11.6257 9.7299,14.324 m -17.6082,-26.5288 c 4.3126,0.2573 10.1775,-1.5188 15.3445,-6.5552 1.1889,6.3343 3.4535,11.4993 8.1085,14.7719"
         inkscape:connector-curvature="0" />
      <g
         id="g3805">
        <g
           id="g3807">
          <g
             id="g3813">
            <path
               id="path3821"
               style="fill:url(#linearGradient3815);stroke:none"
               d="m 280.4391,532.6004 c -4.8188,6.2793 -12.09,6.3029 -17.0804,12.8909 -2.4797,3.2734 -3.0903,6.5279 0.8725,8.0546 4.6446,1.7892 5.2107,9.4023 -4.174,9.1437 -8.3055,-0.2287 -10.5049,5.5885 -13.254,13.1519 -1.2653,3.4821 0.1857,5.6852 3.606,5.3918 3.2791,-0.2815 4.7557,4.5082 -0.123,7.67 -5.4666,3.5427 -10.1614,7.2023 -11.5061,13.8399 -0.6089,3.0064 0.4144,4.9583 3.4367,5.8544 2.2652,0.6715 3.2218,2.7011 1.8014,5.6868 -1.8547,3.8985 -0.11,6.8239 3.7712,6.8057 3.0036,-0.0141 4.7055,2.7675 6.2034,4.8805 4.0952,5.7758 10.8918,4.2278 12.8072,1.8107 1.6954,-2.1396 5.7628,-0.6193 7.2195,-0.1587 3.0878,0.9757 5.6911,-2.0512 4.9306,-5.0908 -0.8093,-3.2332 4.3948,-8.0875 6.3794,-6.7855 2.3947,1.5706 4.3531,-2.1294 5.1208,-5.8207 1.1015,-5.2979 -1.359,-9.9349 -4.955,-15.2952 -1.2779,-1.9049 -4.822,-5.7574 -2.7933,-8.075 1.1923,-1.3621 3.079,-1.171 4.4762,-0.3969 2.4438,1.3538 4.5281,0.3923 5.2501,-2.6918 1.2708,-5.4306 -2.4021,-14.58 -5.764,-18.8637 -1.3558,-1.7271 -1.8195,-3.348 -1.5684,-4.5598 0.3229,-1.5576 1.8286,-2.442 4.14,-2.0134 3.5989,0.6672 6.0951,-3.2888 5.5434,-9.0182 -0.559,-5.8076 -3.435,-2.406 -1.3345,-11.7329 1.6339,-7.2555 -10.6044,-7.8066 -13.0057,-4.6783 z"
               inkscape:connector-curvature="0" />
          </g>
        </g>
      </g>
      <path
         id="path3823"
         style="fill:none;stroke:#000000;stroke-width:1.13390005;stroke-linecap:butt;stroke-linejoin:miter;stroke-miterlimit:10;stroke-opacity:1;stroke-dasharray:none"
         d="m 280.4391,532.6004 c -4.8188,6.2793 -12.09,6.3029 -17.0804,12.8909 -2.4797,3.2734 -3.0903,6.5279 0.8725,8.0546 4.6446,1.7892 5.2107,9.4023 -4.174,9.1437 -8.3055,-0.2287 -10.5049,5.5885 -13.254,13.1519 -1.2653,3.4821 0.1857,5.6852 3.606,5.3918 3.2791,-0.2815 4.7557,4.5082 -0.123,7.67 -5.4666,3.5427 -10.1614,7.2023 -11.5061,13.8399 -0.6089,3.0064 0.4144,4.9583 3.4367,5.8544 2.2652,0.6715 3.2218,2.7011 1.8014,5.6868 -1.8547,3.8985 -0.11,6.8239 3.7712,6.8057 3.0036,-0.0141 4.7055,2.7675 6.2034,4.8805 4.0952,5.7758 10.8918,4.2278 12.8072,1.8107 1.6954,-2.1396 5.7628,-0.6193 7.2195,-0.1587 3.0878,0.9757 5.6911,-2.0512 4.9306,-5.0908 -0.8093,-3.2332 4.3948,-8.0875 6.3794,-6.7855 2.3947,1.5706 4.3531,-2.1294 5.1208,-5.8207 1.1015,-5.2979 -1.359,-9.9349 -4.955,-15.2952 -1.2779,-1.9049 -4.822,-5.7574 -2.7933,-8.075 1.1923,-1.3621 3.079,-1.171 4.4762,-0.3969 2.4438,1.3538 4.5281,0.3923 5.2501,-2.6918 1.2708,-5.4306 -2.4021,-14.58 -5.764,-18.8637 -1.3558,-1.7271 -1.8195,-3.348 -1.5684,-4.5598 0.3229,-1.5576 1.8286,-2.442 4.14,-2.0134 3.5989,0.6672 6.0951,-3.2888 5.5434,-9.0182 -0.559,-5.8076 -3.435,-2.406 -1.3345,-11.7329 1.6339,-7.2555 -10.6044,-7.8066 -13.0057,-4.6783 z"
         inkscape:connector-curvature="0" />
      <path
         id="path3825"
         style="fill:none;stroke:#000000;stroke-width:1.13390005;stroke-linecap:butt;stroke-linejoin:miter;stroke-miterlimit:10;stroke-opacity:1;stroke-dasharray:none"
         d="m 278.3948,555.8567 c -9.4306,9.8533 -15.1736,40.4762 -15.8905,65.7734 m 4.2537,-74.3915 c 1.8987,2.3601 6.2992,3.3664 15.4168,0.3123 m -36.1556,55.046 c 7.3369,-1.6047 13.771,-6.8184 19.7946,-13.6723 1.3637,9.8195 6.6229,16.1325 14.5477,20.0486 m -27.6741,-34.0935 c 6.7467,1.1024 13.3291,1.0528 18.758,-7.0656 0.1635,6.8136 3.0348,10.9193 7.1359,13.7959"
         inkscape:connector-curvature="0" />
      <g
         id="g3827">
        <g
           id="g3829">
          <g
             id="g3835">
            <path
               id="path3843"
               style="fill:url(#linearGradient3837);stroke:none"
               d="m 286.3928,536.4193 c -0.6634,3.8423 -2.5317,6.499 -4.6378,10.5276 -3.5836,6.8544 -10.7785,16.4335 -4.0133,19.0267 3.3942,1.3005 6.4947,2.5307 1.1132,10.5295 -3.7698,5.6044 -6.1521,11.5634 -5.4477,19.2898 0.3246,3.5583 2.35,4.5374 5.3672,2.717 2.8927,-1.7456 6.1424,1.6263 3.0101,6.5673 -3.5099,5.5364 -6.55,9.2866 -4.951,15.5773 0.7242,2.8493 2.4973,4.0473 5.6562,3.4265 2.3675,-0.4658 4.1128,0.83 4.0828,4.034 -0.0389,4.183 3.736,6.6163 7.2938,4.8194 2.753,-1.3901 4.9201,0.8411 7.2587,1.8261 5.3926,2.2725 10.2835,-1.8162 11.6113,-5.3396 1.3064,-3.4674 3.0084,-3.6065 4.5428,-3.8815 3.2524,-0.5825 6.4275,-3.5872 5.6415,-7.1323 -0.6925,-3.1217 0.8654,-7.2754 3.2437,-7.073 2.87,0.2435 3.0897,-3.8177 2.2189,-7.3244 -1.2503,-5.0338 -5.4898,-7.8676 -11.0815,-10.7989 -1.9873,-1.0417 -6.8876,-2.7082 -6.0137,-5.6197 0.5137,-1.7107 2.3284,-2.4137 3.9425,-2.393 2.8227,0.0358 4.3268,-1.7433 3.6731,-4.7094 -1.1509,-5.2243 -6.3947,-12.2644 -11.3119,-14.3825 -1.9823,-0.854 -3.1011,-2.0265 -3.3874,-3.1773 -0.3686,-1.4794 0.6372,-2.9268 2.9432,-3.621 3.59,-1.0806 4.1944,-5.6075 1.2418,-10.2506 -2.9928,-4.7073 -7.5597,-4.6596 -9.1624,-13.6868 -1.296,-7.2981 -11.8743,-4.5136 -12.8341,1.0488 z"
               inkscape:connector-curvature="0" />
          </g>
        </g>
      </g>
      <path
         id="path3845"
         style="fill:none;stroke:#000000;stroke-width:1.13390005;stroke-linecap:butt;stroke-linejoin:miter;stroke-miterlimit:10;stroke-opacity:1;stroke-dasharray:none"
         d="m 286.3928,536.4193 c -0.6634,3.8423 -2.5317,6.499 -4.6378,10.5276 -3.5836,6.8544 -10.7785,16.4335 -4.0133,19.0267 3.3942,1.3005 6.4947,2.5307 1.1132,10.5295 -3.7698,5.6044 -6.1521,11.5634 -5.4477,19.2898 0.3246,3.5583 2.35,4.5374 5.3672,2.717 2.8927,-1.7456 6.1424,1.6263 3.0101,6.5673 -3.5099,5.5364 -6.55,9.2866 -4.951,15.5773 0.7242,2.8493 2.4973,4.0473 5.6562,3.4265 2.3675,-0.4658 4.1128,0.83 4.0828,4.034 -0.0389,4.183 3.736,6.6163 7.2938,4.8194 2.753,-1.3901 4.9201,0.8411 7.2587,1.8261 5.3926,2.2725 10.2835,-1.8162 11.6113,-5.3396 1.3064,-3.4674 3.0084,-3.6065 4.5428,-3.8815 3.2524,-0.5825 6.4275,-3.5872 5.6415,-7.1323 -0.6925,-3.1217 0.8654,-7.2754 3.2437,-7.073 2.87,0.2435 3.0897,-3.8177 2.2189,-7.3244 -1.2503,-5.0338 -5.4898,-7.8676 -11.0815,-10.7989 -1.9873,-1.0417 -6.8876,-2.7082 -6.0137,-5.6197 0.5137,-1.7107 2.3284,-2.4137 3.9425,-2.393 2.8227,0.0358 4.3268,-1.7433 3.6731,-4.7094 -1.1509,-5.2243 -6.3947,-12.2644 -11.3119,-14.3825 -1.9823,-0.854 -3.1011,-2.0265 -3.3874,-3.1773 -0.3686,-1.4794 0.6372,-2.9268 2.9432,-3.621 3.59,-1.0806 4.1944,-5.6075 1.2418,-10.2506 -2.9928,-4.7073 -7.5597,-4.6596 -9.1624,-13.6868 -1.296,-7.2981 -11.8743,-4.5136 -12.8341,1.0488 z"
         inkscape:connector-curvature="0" />
      <path
         id="path3847"
         style="fill:none;stroke:#000000;stroke-width:1.13390005;stroke-linecap:butt;stroke-linejoin:miter;stroke-miterlimit:10;stroke-opacity:1;stroke-dasharray:none"
         d="m 293.4051,531.0351 c -3.4064,30.8795 0.9763,64.1611 12.9472,97.1587 m -25.6807,-71.0255 c 4.5553,-1.3731 8.507,-5.4601 11.8553,-12.261 2.6623,3.9632 5.815,7.4364 9.6843,10.1937 m -17.9254,61.2584 c 7.2564,-2.2844 12.0614,-7.7545 13.2848,-17.8795 3.9725,3.488 10.5676,11.6198 22.3659,8.7446 m -40.0731,-19.0063 c 7.2108,-2.6915 11.1028,-8.701 13.4861,-16.2182 5.4499,5.4876 11.2765,9.2787 17.9329,9.3362"
         inkscape:connector-curvature="0" />
      <g
         id="g3849">
        <g
           id="g3851">
          <g
             id="g3857">
            <path
               id="path3865"
               style="fill:url(#linearGradient3859);stroke:none"
               d="m 353.7207,531.2262 c 2.4993,1.1906 4.9173,3.1927 9.1023,1.9293 4.2869,-1.2943 10.209,-0.4797 11.577,1.7813 1.2745,2.1052 0.5618,3.2952 -0.5479,5.0499 -2.2405,3.5419 0.3928,4.7126 3.2984,3.5113 2.3655,-0.9783 3.4446,-2.9637 4.7488,-3.4456 2.8696,-1.0607 4.9527,0.7543 10.9523,5.4856 1.9771,1.5591 1.7246,3.6672 -0.3521,4.8805 -1.9911,1.1624 -0.8824,4.8356 2.9333,3.8211 3.9756,-1.0574 8.2984,0.8628 11.721,4.8401 1.3756,1.599 1.6018,3.3378 0.1811,5.0981 -1.0647,1.3193 -0.8887,2.9174 1.0009,4.1193 2.4673,1.5696 2.8066,4.1718 0.5621,5.7359 -1.7365,1.2107 -1.2226,3.9039 -1.118,5.7759 0.3419,6.107 -4.4458,6.9018 -8.6187,6.9917 -2.7298,0.0586 -3.2102,0.8112 -3.8846,1.6769 -1.4301,1.8343 -5.813,2.952 -6.4641,0.8331 -0.2444,-0.7948 -11.1626,2.9557 -10.6484,-12.8347 0.0542,-1.6526 0.7152,-5.3878 -1.2849,-5.9439 -1.1755,-0.3271 -2.4591,0.9317 -2.9866,1.9598 -0.923,1.7981 -2.4707,2.071 -3.9923,0.5267 -2.6796,-2.7187 -5.2591,-11.2663 -4.8575,-15.1823 0.1622,-1.5789 -0.1513,-2.7335 -0.731,-3.3531 -0.7441,-0.7969 -1.9301,-0.7127 -3.1088,0.4804 -1.8354,1.8581 -4.6933,0.5145 -6.4298,-3.1221 -1.7603,-3.6867 -1.2787,-7.0418 -5.6906,-11.9069 -3.1909,-3.5183 1.3919,-10.254 4.6381,-8.7083 z"
               inkscape:connector-curvature="0" />
          </g>
        </g>
      </g>
      <path
         id="path3867"
         style="fill:none;stroke:#000000;stroke-width:1.13390005;stroke-linecap:butt;stroke-linejoin:miter;stroke-miterlimit:10;stroke-opacity:1;stroke-dasharray:none"
         d="m 353.7207,531.2262 c 2.4993,1.1906 4.9173,3.1927 9.1023,1.9293 4.2869,-1.2943 10.209,-0.4797 11.577,1.7813 1.2745,2.1052 0.5618,3.2952 -0.5479,5.0499 -2.2405,3.5419 0.3928,4.7126 3.2984,3.5113 2.3655,-0.9783 3.4446,-2.9637 4.7488,-3.4456 2.8696,-1.0607 4.9527,0.7543 10.9523,5.4856 1.9771,1.5591 1.7246,3.6672 -0.3521,4.8805 -1.9911,1.1624 -0.8824,4.8356 2.9333,3.8211 3.9756,-1.0574 8.2984,0.8628 11.721,4.8401 1.3756,1.599 1.6018,3.3378 0.1811,5.0981 -1.0647,1.3193 -0.8887,2.9174 1.0009,4.1193 2.4673,1.5696 2.8066,4.1718 0.5621,5.7359 -1.7365,1.2107 -1.2226,3.9039 -1.118,5.7759 0.3419,6.107 -4.4458,6.9018 -8.6187,6.9917 -2.7298,0.0586 -3.2102,0.8112 -3.8846,1.6769 -1.4301,1.8343 -5.813,2.952 -6.4641,0.8331 -0.2444,-0.7948 -11.1626,2.9557 -10.6484,-12.8347 0.0542,-1.6526 0.7152,-5.3878 -1.2849,-5.9439 -1.1755,-0.3271 -2.4591,0.9317 -2.9866,1.9598 -0.923,1.7981 -2.4707,2.071 -3.9923,0.5267 -2.6796,-2.7187 -5.2591,-11.2663 -4.8575,-15.1823 0.1622,-1.5789 -0.1513,-2.7335 -0.731,-3.3531 -0.7441,-0.7969 -1.9301,-0.7127 -3.1088,0.4804 -1.8354,1.8581 -4.6933,0.5145 -6.4298,-3.1221 -1.7603,-3.6867 -1.2787,-7.0418 -5.6906,-11.9069 -3.1909,-3.5183 1.3919,-10.254 4.6381,-8.7083 z"
         inkscape:connector-curvature="0" />
      <path
         id="path3869"
         style="fill:none;stroke:#000000;stroke-width:1.13390005;stroke-linecap:butt;stroke-linejoin:miter;stroke-miterlimit:10;stroke-opacity:1;stroke-dasharray:none"
         d="m 368.7375,548.9325 c 13.7361,7.6232 23.5789,18.8462 31.6528,31.705 m -29.7921,-42.0917 c -3.4025,4.3047 -6.8052,6.211 -10.207,7.0277 m 42.6274,16.6898 c -4.951,3.6045 -9.9017,2.9957 -14.8521,1.785 1.0046,4.8384 1.0567,9.2681 -0.9871,12.799 m 1.5937,-29.2468 c -4.2049,3.5039 -8.409,6.3516 -12.6134,5.9193 0.7419,5.078 0.667,9.4748 -1.2044,12.3721"
         inkscape:connector-curvature="0" />
      <g
         id="g3871">
        <g
           id="g3873">
          <g
             id="g3879">
            <path
               id="path3887"
               style="fill:url(#linearGradient3881);stroke:none"
               d="m 353.3961,534.5819 c 2.0464,2.033 4.8164,7.2592 7.8426,8.4486 6.4188,2.5217 12.0807,4.9745 9.0582,9.5227 -1.5163,2.2816 -3.9501,5.6381 2.9624,6.0185 5.5792,0.307 8.5037,4.0717 11.0492,9.4162 1.1718,2.4602 0.3444,4.8262 -2.1447,4.4747 -2.3683,-0.3344 -3.0977,3.9223 0.9394,4.9034 4.2066,1.0228 7.3613,4.7943 8.8248,10.2456 0.5885,2.1917 0.19,4.3718 -2.044,4.8472 -2.3582,0.5017 -2.8979,2.0843 -0.8771,4.3586 2.0676,2.3261 0.1809,6.5622 -2.5996,6.0638 -2.6535,-0.4748 -1.8814,1.9004 -2.7386,3.8979 -2.6022,6.0617 -9.3554,4.883 -11.3377,2.0333 -1.6665,-2.3961 -4.1034,0.006 -5.1197,0.4737 -2.1543,0.9921 -5.2744,-1.3053 -4.9512,-3.6161 0.3432,-2.458 -3.2854,-2.8531 -4.6197,-1.7176 -1.61,1.37 -2.8635,-1.0462 -3.6915,-3.7031 -1.1883,-3.8146 0.4065,-5.777 2.603,-10.0506 0.7801,-1.5176 3.051,-4.6766 1.4151,-6.2093 -0.9612,-0.9002 -2.7244,-0.3719 -3.6743,0.3223 -1.6619,1.215 -3.2377,0.6874 -3.9875,-1.5261 -1.3206,-3.8982 2.4925,-13.7773 4.6001,-17.2355 0.9638,-1.5818 0.6752,-3.5839 0.3549,-4.1692 -0.705,-1.2884 -3.2346,0.3713 -4.7305,0.8464 -2.5463,0.809 -4.6417,-1.8921 -4.6695,-6.1722 -0.0286,-4.3387 3.0966,-9.917 0.7231,-16.5526 -1.5876,-4.439 4.275,-7.4421 6.8128,-4.9206 z"
               inkscape:connector-curvature="0" />
          </g>
        </g>
      </g>
      <path
         id="path3889"
         style="fill:none;stroke:#000000;stroke-width:1.13390005;stroke-linecap:butt;stroke-linejoin:miter;stroke-miterlimit:10;stroke-opacity:1;stroke-dasharray:none"
         d="m 353.3961,534.5819 c 2.0464,2.033 4.8164,7.2592 7.8426,8.4486 6.4188,2.5217 12.0807,4.9745 9.0582,9.5227 -1.5163,2.2816 -3.9501,5.6381 2.9624,6.0185 5.5792,0.307 8.5037,4.0717 11.0492,9.4162 1.1718,2.4602 0.3444,4.8262 -2.1447,4.4747 -2.3683,-0.3344 -3.0977,3.9223 0.9394,4.9034 4.2066,1.0228 7.3613,4.7943 8.8248,10.2456 0.5885,2.1917 0.19,4.3718 -2.044,4.8472 -2.3582,0.5017 -2.8979,2.0843 -0.8771,4.3586 2.0676,2.3261 0.1809,6.5622 -2.5996,6.0638 -2.6535,-0.4748 -1.8814,1.9004 -2.7386,3.8979 -2.6022,6.0617 -9.3554,4.883 -11.3377,2.0333 -1.6665,-2.3961 -4.1034,0.006 -5.1197,0.4737 -2.1543,0.9921 -5.2744,-1.3053 -4.9512,-3.6161 0.3432,-2.458 -3.2854,-2.8531 -4.6197,-1.7176 -1.61,1.37 -2.8635,-1.0462 -3.6915,-3.7031 -1.1883,-3.8146 0.4065,-5.777 2.603,-10.0506 0.7801,-1.5176 3.051,-4.6766 1.4151,-6.2093 -0.9612,-0.9002 -2.7244,-0.3719 -3.6743,0.3223 -1.6619,1.215 -3.2377,0.6874 -3.9875,-1.5261 -1.3206,-3.8982 2.4925,-13.7773 4.6001,-17.2355 0.9638,-1.5818 0.6752,-3.5839 0.3549,-4.1692 -0.705,-1.2884 -3.2346,0.3713 -4.7305,0.8464 -2.5463,0.809 -4.6417,-1.8921 -4.6695,-6.1722 -0.0286,-4.3387 3.0966,-9.917 0.7231,-16.5526 -1.5876,-4.439 4.275,-7.4421 6.8128,-4.9206 z"
         inkscape:connector-curvature="0" />
      <path
         id="path3891"
         style="fill:none;stroke:#000000;stroke-width:1.13390005;stroke-linecap:butt;stroke-linejoin:miter;stroke-miterlimit:10;stroke-opacity:1;stroke-dasharray:none"
         d="m 348.7972,534.1343 c 7.177,20.9548 24.7127,29.5013 28.3572,70.9721 m -11.1367,-57.1272 c -3.7727,0.2554 -9.5409,-0.9371 -12.8654,-3.7372 0.7297,3.6179 0.3552,9.9703 -1.555,12.8659 m 34.7998,31.0125 c -4.074,0.5128 -10.0321,-1.8698 -13.4581,-5.7578 -0.2058,6.3703 -2.2918,12.996 -7.4749,16.3908 m 14.4473,-31.007 c -4.504,0.7038 -10.815,-0.2781 -15.8638,-5.8213 1.1605,6.1713 -0.9071,11.8486 -5.4553,14.9718"
         inkscape:connector-curvature="0" />
      <g
         id="g3893">
        <g
           id="g3895">
          <g
             id="g3901">
            <path
               id="path3909"
               style="fill:url(#linearGradient3903);stroke:none"
               d="m 298.9406,536.0258 c 0.3589,3.7968 0.0924,7.6986 -0.4618,12.1088 -0.9425,7.503 -4.2627,18.7344 2.8202,18.7996 3.5535,0.0329 6.8137,0.1009 4.6151,9.2662 -1.5401,6.4213 -1.6875,12.6938 1.5959,19.531 1.512,3.1484 3.7018,3.3542 5.8442,0.6562 2.054,-2.5869 6.1824,-0.6074 4.9998,4.9884 -1.325,6.2706 -2.0407,11.8931 1.572,17.1097 1.6365,2.3629 3.6695,2.8547 6.3516,1.2072 2.0098,-1.2344 4.0507,-0.6434 5.1174,2.3018 1.3927,3.8457 4.8926,3.6365 7.5385,0.7755 2.0477,-2.2135 4.7925,-0.883 7.2731,-0.8056 9.8246,0.3067 11.4061,-8.6848 11.7014,-13.4504 0.224,-3.6158 1.5239,-4.3305 2.8364,-5.1069 2.7813,-1.6446 2.497,-5.4839 -0.1001,-6.8624 -2.7621,-1.4663 -1.747,-3.9631 0.5012,-4.5904 2.7127,-0.7568 1.527,-4.5519 -0.468,-7.4667 -2.8641,-4.1845 -7.7156,-5.3331 -13.8388,-6.109 -2.1761,-0.2761 -7.2343,-0.1292 -7.4276,-3.0948 -0.1137,-1.7431 1.3088,-3.0065 2.7944,-3.5382 2.598,-0.9312 3.3687,-3.0739 1.7569,-5.569 -2.8383,-4.3925 -11.6019,-7.5265 -16.8295,-7.7885 -2.1082,-0.1057 -3.5326,-0.7973 -4.1882,-1.754 -0.8428,-1.23 -0.4156,-2.8985 1.4601,-4.3217 2.92,-2.2164 1.9284,-6.5688 -2.3624,-9.815 -4.3495,-3.2905 -9.5726,-4.0462 -14.2994,-11.6629 -0.9725,-1.567 -1.8669,-2.4329 -2.7859,-2.6813 -3.3295,-0.9002 -6.2606,5.2824 -6.0165,7.8724 z"
               inkscape:connector-curvature="0" />
          </g>
        </g>
      </g>
      <path
         id="path3911"
         style="fill:none;stroke:#000000;stroke-width:1.13390005;stroke-linecap:butt;stroke-linejoin:miter;stroke-miterlimit:10;stroke-opacity:1;stroke-dasharray:none"
         d="m 298.9406,536.0258 c 0.3589,3.7968 0.0924,7.6986 -0.4618,12.1088 -0.9425,7.503 -4.2627,18.7344 2.8202,18.7996 3.5535,0.0329 6.8137,0.1009 4.6151,9.2662 -1.5401,6.4213 -1.6875,12.6938 1.5959,19.531 1.512,3.1484 3.7018,3.3542 5.8442,0.6562 2.054,-2.5869 6.1824,-0.6074 4.9998,4.9884 -1.325,6.2706 -2.0407,11.8931 1.572,17.1097 1.6365,2.3629 3.6695,2.8547 6.3516,1.2072 2.0098,-1.2344 4.0507,-0.6434 5.1174,2.3018 1.3927,3.8457 4.8926,3.6365 7.5385,0.7755 2.0477,-2.2135 4.7925,-0.883 7.2731,-0.8056 9.8246,0.3067 11.4061,-8.6848 11.7014,-13.4504 0.224,-3.6158 1.5239,-4.3305 2.8364,-5.1069 2.7813,-1.6446 2.497,-5.4839 -0.1001,-6.8624 -2.7621,-1.4663 -1.747,-3.9631 0.5012,-4.5904 2.7127,-0.7568 1.527,-4.5519 -0.468,-7.4667 -2.8641,-4.1845 -7.7156,-5.3331 -13.8388,-6.109 -2.1761,-0.2761 -7.2343,-0.1292 -7.4276,-3.0948 -0.1137,-1.7431 1.3088,-3.0065 2.7944,-3.5382 2.598,-0.9312 3.3687,-3.0739 1.7569,-5.569 -2.8383,-4.3925 -11.6019,-7.5265 -16.8295,-7.7885 -2.1082,-0.1057 -3.5326,-0.7973 -4.1882,-1.754 -0.8428,-1.23 -0.4156,-2.8985 1.4601,-4.3217 2.92,-2.2164 1.9284,-6.5688 -2.3624,-9.815 -4.3495,-3.2905 -9.5726,-4.0462 -14.2994,-11.6629 -0.9725,-1.567 -1.8669,-2.4329 -2.7859,-2.6813 -3.3295,-0.9002 -6.2606,5.2824 -6.0165,7.8724 z"
         inkscape:connector-curvature="0" />
      <path
         id="path3913"
         style="fill:none;stroke:#000000;stroke-width:1.13390005;stroke-linecap:butt;stroke-linejoin:miter;stroke-miterlimit:10;stroke-opacity:1;stroke-dasharray:none"
         d="m 301.235,530.3781 c 10.4088,34.202 27.4583,66.8457 48.2978,82.0788 m -47.5523,-51.8947 c 2.9321,-3.8211 4.3373,-9.0022 4.2154,-15.544 4.602,2.2425 9.2041,3.74 13.8067,3.6017 m 7.5997,62.9685 c 2.4454,-6.7062 2.6427,-14.4743 1.3552,-21.5201 7.3097,1.588 15.0018,1.6461 22.3124,-0.8447 m -40.3869,0.6514 c 3.8052,-4.0734 5.4362,-12.0257 4.8293,-22.2607 7.9107,2.817 16.2505,3.4239 23.3981,0.5473"
         inkscape:connector-curvature="0" />
      <g
         id="g3915">
        <g
           id="g3917">
          <g
             id="g3923">
            <path
               id="path3931"
               style="fill:url(#linearGradient3925);stroke:none"
               d="m 358.293,469.902 c 4.7061,-0.7509 7.7848,-4.5175 12.5223,-6.3085 5.9771,-2.2589 14.2923,-3.4217 12.9495,1.9029 -0.9235,3.6633 2.8568,7.001 8.4552,0.3949 5.402,-6.3743 9.5332,-6.6625 16.3888,-5.3989 3.1564,0.5823 5.0434,3.278 3.2153,6.0154 -1.7526,2.6241 1.8468,5.2186 5.8394,1.6169 5.1233,-4.6216 9.8447,-4.3166 15.3575,-2.3094 2.4965,0.9085 3.9079,2.693 3.142,5.6574 -0.5741,2.2218 0.6505,4.3898 3.5146,4.6066 3.7401,0.2835 4.4031,4.7268 2.5597,7.9815 -1.4264,2.5195 0.4459,5.4372 1.1464,7.7514 2.7754,9.1683 -2.655,13.8288 -6.7748,15.379 -3.1252,1.1761 -2.0478,3.9685 -2.3959,5.4108 -0.7384,3.0577 -4.191,3.816 -6.067,1.7396 -1.9947,-2.2084 -5.3098,-1.9613 -5.2886,0.3223 0.0261,2.7564 -3.6178,2.6538 -6.6926,1.5548 -4.4141,-1.5786 -8.0563,-7.9835 -10.3011,-13.5413 -0.7974,-1.9749 -1.9593,-6.7768 -4.619,-6.1665 -1.5633,0.3585 -2.3125,2.0352 -2.4018,3.5764 -0.1571,2.6949 -1.8468,3.9929 -4.4541,3.1422 -4.591,-1.4986 -9.5857,-8.9126 -11.1498,-13.7653 -0.6307,-1.9565 -1.6033,-3.113 -2.6127,-3.4747 -1.2974,-0.4649 -2.6572,0.3835 -3.4319,2.5296 -1.2061,3.3415 -5.2906,3.5711 -9.2427,0.398 -4.0059,-3.2159 -6.004,-6.5517 -13.9147,-8.9665 -5.1236,-1.5645 -4.4438,-7.0246 -1.7297,-8.8946 1.6283,-1.1216 4.3433,-0.8917 5.9857,-1.154 z"
               inkscape:connector-curvature="0" />
          </g>
        </g>
      </g>
      <path
         id="path3933"
         style="fill:none;stroke:#000000;stroke-width:1.13390005;stroke-linecap:butt;stroke-linejoin:miter;stroke-miterlimit:10;stroke-opacity:1;stroke-dasharray:none"
         d="m 358.293,469.902 c 4.7061,-0.7509 7.7848,-4.5175 12.5223,-6.3085 5.9771,-2.2589 14.2923,-3.4217 12.9495,1.9029 -0.9235,3.6633 2.8568,7.001 8.4552,0.3949 5.402,-6.3743 9.5332,-6.6625 16.3888,-5.3989 3.1564,0.5823 5.0434,3.278 3.2153,6.0154 -1.7526,2.6241 1.8468,5.2186 5.8394,1.6169 5.1233,-4.6216 9.8447,-4.3166 15.3575,-2.3094 2.4965,0.9085 3.9079,2.693 3.142,5.6574 -0.5741,2.2218 0.6505,4.3898 3.5146,4.6066 3.7401,0.2835 4.4031,4.7268 2.5597,7.9815 -1.4264,2.5195 0.4459,5.4372 1.1464,7.7514 2.7754,9.1683 -2.655,13.8288 -6.7748,15.379 -3.1252,1.1761 -2.0478,3.9685 -2.3959,5.4108 -0.7384,3.0577 -4.191,3.816 -6.067,1.7396 -1.9947,-2.2084 -5.3098,-1.9613 -5.2886,0.3223 0.0261,2.7564 -3.6178,2.6538 -6.6926,1.5548 -4.4141,-1.5786 -8.0563,-7.9835 -10.3011,-13.5413 -0.7974,-1.9749 -1.9593,-6.7768 -4.619,-6.1665 -1.5633,0.3585 -2.3125,2.0352 -2.4018,3.5764 -0.1571,2.6949 -1.8468,3.9929 -4.4541,3.1422 -4.591,-1.4986 -9.5857,-8.9126 -11.1498,-13.7653 -0.6307,-1.9565 -1.6033,-3.113 -2.6127,-3.4747 -1.2974,-0.4649 -2.6572,0.3835 -3.4319,2.5296 -1.2061,3.3415 -5.2906,3.5711 -9.2427,0.398 -4.0059,-3.2159 -6.004,-6.5517 -13.9147,-8.9665 -5.1236,-1.5645 -4.4438,-7.0246 -1.7297,-8.8946 1.6283,-1.1216 4.3433,-0.8917 5.9857,-1.154 z"
         inkscape:connector-curvature="0" />
      <path
         id="path3935"
         style="fill:none;stroke:#000000;stroke-width:1.13390005;stroke-linecap:butt;stroke-linejoin:miter;stroke-miterlimit:10;stroke-opacity:1;stroke-dasharray:none"
         d="m 358.2139,476.9235 c 25.1464,-2.598 55.5449,6.8042 78.7955,21.249 m -62.0008,-31.7766 c -0.9884,3.9858 -3.5053,7.3598 -7.5504,10.1233 3.0671,2.4203 2.8744,4.8402 3.3336,7.2601 m 55.6424,-8.9538 c -4.5868,8.4226 -10.5483,10.4712 -15.8219,10.5291 6.5092,5.5026 7.7573,12.67 7.5322,20.4686 M 404.085,467.962 c -2.4914,5.5213 -6.5118,9.7047 -13.8955,10.9451 3.8725,3.5796 5.061,9.307 5.8661,15.3426"
         inkscape:connector-curvature="0" />
      <g
         id="g3937">
        <g
           id="g3939">
          <g
             id="g3945">
            <path
               id="path3953"
               style="fill:url(#linearGradient3947);stroke:none"
               d="m 370.5885,479.7264 c 4.3645,-0.6268 8.6732,-2.6822 12.0005,-1.9024 3.7426,0.8774 4.8512,4.2718 3.367,7.7602 -1.207,2.836 1.1996,8.5161 8.3222,2.2977 4.7549,-4.1508 11.996,1.4647 17.6809,5.963 2.5194,1.993 2.9511,4.4838 -0.0995,5.2818 -6.4279,1.6804 -2.128,6.7272 3.5299,5.6253 8.307,-1.6169 11.6516,2.2181 15.8851,6.5617 1.9168,1.9666 1.4165,5.0298 -0.6196,7.2439 -1.5254,1.66 -1.4091,3.7964 1.2231,5.2231 3.708,2.0101 3.3823,7.1476 -0.0615,9.1066 -2.5053,1.4258 -0.8796,4.9275 -1.2609,7.2686 -1.2271,7.5356 -7.2184,9.4552 -11.8491,8.7486 -3.5866,-0.548 -3.6419,-0.2053 -5.4654,2.732 -0.5193,0.8365 -1.321,1.5341 -2.9024,1.5786 -1.3791,0.0391 -4.0618,-2.9262 -6.5934,-2.8825 -1.2657,0.0215 -2.4942,0.7959 -3.5028,1.5426 -2.5407,1.8825 -3.8698,1.2846 -5.8782,-1.5937 -2.2345,-3.2023 -3.2527,-8.7295 -2.7213,-16.681 0.1398,-2.0905 1.2017,-5.3836 -1.5451,-6.107 -1.6138,-0.4246 -3.3418,0.3428 -3.8852,1.749 -0.8762,2.2672 -3.6609,2.3403 -5.7061,0.3728 -3.602,-3.4662 -7.3384,-12.9498 -6.6654,-18.3351 0.2815,-2.253 -0.5743,-5.3518 -1.3516,-6.1412 -0.9995,-1.0157 -3.403,-1.4752 -4.3222,0.5791 -1.5931,3.5589 -6.9256,4.2913 -9.1857,-2.9812 -1.5472,-4.9779 2.649,-10.336 -6.4899,-16.5725 -3.2188,-2.1963 -2.9954,-5.8567 -1.016,-7.8588 1.5392,-1.5582 4.3059,-1.7864 6.2856,-1.6526 3.8905,0.2622 7.9991,3.7661 12.827,3.0734 z"
               inkscape:connector-curvature="0" />
          </g>
        </g>
      </g>
      <path
         id="path3955"
         style="fill:none;stroke:#000000;stroke-width:1.13390005;stroke-linecap:butt;stroke-linejoin:miter;stroke-miterlimit:10;stroke-opacity:1;stroke-dasharray:none"
         d="m 370.5885,479.7264 c 4.3645,-0.6268 8.6732,-2.6822 12.0005,-1.9024 3.7426,0.8774 4.8512,4.2718 3.367,7.7602 -1.207,2.836 1.1996,8.5161 8.3222,2.2977 4.7549,-4.1508 11.996,1.4647 17.6809,5.963 2.5194,1.993 2.9511,4.4838 -0.0995,5.2818 -6.4279,1.6804 -2.128,6.7272 3.5299,5.6253 8.307,-1.6169 11.6516,2.2181 15.8851,6.5617 1.9168,1.9666 1.4165,5.0298 -0.6196,7.2439 -1.5254,1.66 -1.4091,3.7964 1.2231,5.2231 3.708,2.0101 3.3823,7.1476 -0.0615,9.1066 -2.5053,1.4258 -0.8796,4.9275 -1.2609,7.2686 -1.2271,7.5356 -7.2184,9.4552 -11.8491,8.7486 -3.5866,-0.548 -3.6419,-0.2053 -5.4654,2.732 -0.5193,0.8365 -1.321,1.5341 -2.9024,1.5786 -1.3791,0.0391 -4.0618,-2.9262 -6.5934,-2.8825 -1.2657,0.0215 -2.4942,0.7959 -3.5028,1.5426 -2.5407,1.8825 -3.8698,1.2846 -5.8782,-1.5937 -2.2345,-3.2023 -3.2527,-8.7295 -2.7213,-16.681 0.1398,-2.0905 1.2017,-5.3836 -1.5451,-6.107 -1.6138,-0.4246 -3.3418,0.3428 -3.8852,1.749 -0.8762,2.2672 -3.6609,2.3403 -5.7061,0.3728 -3.602,-3.4662 -7.3384,-12.9498 -6.6654,-18.3351 0.2815,-2.253 -0.5743,-5.3518 -1.3516,-6.1412 -0.9995,-1.0157 -3.403,-1.4752 -4.3222,0.5791 -1.5931,3.5589 -6.9256,4.2913 -9.1857,-2.9812 -1.5472,-4.9779 2.649,-10.336 -6.4899,-16.5725 -3.2188,-2.1963 -2.9954,-5.8567 -1.016,-7.8588 1.5392,-1.5582 4.3059,-1.7864 6.2856,-1.6526 3.8905,0.2622 7.9991,3.7661 12.827,3.0734 z"
         inkscape:connector-curvature="0" />
      <path
         id="path3957"
         style="fill:none;stroke:#000000;stroke-width:1.13390005;stroke-linecap:butt;stroke-linejoin:miter;stroke-miterlimit:10;stroke-opacity:1;stroke-dasharray:none"
         d="m 351.3214,478.6248 c 32.2269,14.8468 53.5474,37.8516 69.8449,61.6442 m 2.1676,-28.3978 c -5.0502,6.7527 -15.2784,5.9967 -22.1057,3.2647 3.3905,9.1964 3.7877,19.5829 -1.2588,24.8329 m 1.5845,-43.8483 c -7.1433,5.0862 -14.2872,3.8106 -21.4305,-0.3577 3.6051,8.4044 4.2169,16.8086 1.8355,25.2133"
         inkscape:connector-curvature="0" />
    </g>
  </g>
</svg>
