<?xml version="1.0" encoding="UTF-8" standalone="no"?>
<!-- Creator: CorelDRAW -->

<svg
   xmlns:dc="http://purl.org/dc/elements/1.1/"
   xmlns:cc="http://creativecommons.org/ns#"
   xmlns:rdf="http://www.w3.org/1999/02/22-rdf-syntax-ns#"
   xmlns:svg="http://www.w3.org/2000/svg"
   xmlns="http://www.w3.org/2000/svg"
   xmlns:sodipodi="http://sodipodi.sourceforge.net/DTD/sodipodi-0.dtd"
   xmlns:inkscape="http://www.inkscape.org/namespaces/inkscape"
   xml:space="preserve"
   width="300"
   height="360"
   style="fill-rule:evenodd"
   viewBox="0 0 84.666667 101.6"
   id="svg2"
   version="1.1"
   inkscape:version="0.48.1 "
   sodipodi:docname="волковысск.svg"><metadata
   id="metadata22"><rdf:RDF><cc:Work
       rdf:about=""><dc:format>image/svg+xml</dc:format><dc:type
         rdf:resource="http://purl.org/dc/dcmitype/StillImage" /></cc:Work></rdf:RDF></metadata><sodipodi:namedview
   pagecolor="#ffffff"
   bordercolor="#666666"
   borderopacity="1"
   objecttolerance="10"
   gridtolerance="10"
   guidetolerance="10"
   inkscape:pageopacity="0"
   inkscape:pageshadow="2"
   inkscape:window-width="1280"
   inkscape:window-height="750"
   id="namedview20"
   showgrid="false"
   fit-margin-top="0"
   fit-margin-left="0"
   fit-margin-right="0"
   fit-margin-bottom="0"
   inkscape:zoom="1.4749999"
   inkscape:cx="56.101677"
   inkscape:cy="180"
   inkscape:window-x="-8"
   inkscape:window-y="-8"
   inkscape:window-maximized="1"
   inkscape:current-layer="svg2" />
 <defs
   id="defs4"><style
     type="text/css"
     id="style6">
   
    .str0 {stroke:#3C82C2;stroke-width:0.25}
    .fil4 {fill:none}
    .fil0 {fill:black}
    .fil1 {fill:#3C82C2}
    .fil2 {fill:white}
    .fil3 {fill:white;fill-rule:nonzero}
   
  </style><style
     id="style3019"
     type="text/css">
   
    .str0 {stroke:#FF6600;stroke-width:0.7056}
    .fil1 {fill:none}
    .fil0 {fill:#A90000}
   
  </style></defs>
 <path
   style="fill:#a90000"
   inkscape:connector-curvature="0"
   class="fil0"
   d="m 62.58333,48.5501 c 0.8283,0 1.5,0.6717 1.5,1.5 l 0,1.4998 c 0,0.8283 -0.6717,1.5 -1.5,1.5 l -1.5,0 0,-4.4998 1.5,0 z m 0,5.9998 c 1.6566,0 3,-1.3434 3,-3 l 0,-1.4998 c 0,-1.6566 -1.3434,-3 -3,-3 l -3,0 0,7.4998 3,0 z m -6,-7.4998 1.5,0 0,7.4998 -1.5,0 0,-7.4998 z m -3,0 1.5,0 0,7.4998 -1.5,0 -3,-4.7086 0,4.7086 -1.5,0 0,-7.4998 1.5,0 3,4.7086 0,-4.7086 z m -22.5,10e-5 4.5,0 0,1.5 -3,0 0,1.4999 3,0 0,1.5 -3,0 0,1.4999 3,0 0,1.5 -4.5,0 0,-7.4998 z m -6,-2e-4 1.5,0 0,6 3,0 0,1.5 -4.5,0 0,-7.5 z m 15.7504,6 1.4996,0 c 1.2424,0 2.25,-1.0076 2.25,-2.25 0,-1.2424 -1.0263,-2.2457 -2.25,-2.25 l -1.4996,0 0,1.5 1.4996,0 c 0.4141,0 0.75,0.3359 0.75,0.75 0,0.4141 -0.3359,0.75 -0.75,0.75 l -1.4996,0 0,1.5 z m 1.4996,-7.5 c 2.899,0 5.25,2.351 5.25,5.25 0,2.899 -2.351,5.25 -5.25,5.25 -2.899,0 -5.25,-2.351 -5.25,-5.25 0,-2.899 2.351,-5.25 5.25,-5.25 z m 0,1.5 c 2.0707,0 3.75,1.6793 3.75,3.75 0,2.0707 -1.6793,3.75 -3.75,3.75 -2.0707,0 -3.75,-1.6793 -3.75,-3.75 0,-2.0707 1.6793,-3.75 3.75,-3.75 z"
   id="path3023" /><path
   style="fill:#000000"
   inkscape:connector-curvature="0"
   id="path10"
   d="m 42.333329,-2.2976e-6 c 14.754904,0 28.11946,2.5538587976 37.799965,6.6815619976 1.592563,0.6791365 3.086463,1.4019349 4.471632,2.1633517 l 0,20.7768506 c -3.151184,2.426764 -5.182985,6.240621 -5.182985,10.52957 0,4.288806 2.031801,8.10223 5.182985,10.528994 0,8.60643 0.848274,17.682334 -3.743882,25.456451 -4.635735,7.848184 -13.511833,11.68942 -21.507296,15.14937 C 53.257624,93.924304 46.787271,96.42816 42.33333,101.6 37.879388,96.42816 31.409035,93.924304 25.312911,91.286147 17.317448,87.826197 8.4413501,83.984961 3.8056152,76.136777 -0.78654094,68.36266 0.06173295,59.286756 0.06173295,50.680326 3.2129166,48.253562 5.2447181,44.440138 5.2447181,40.151332 c 0,-4.288949 -2.0318015,-8.102806 -5.18298515,-10.52957 l 0,-20.7768506 C 1.4469018,8.0834946 2.9408016,7.3606962 4.5333646,6.6815597 14.21387,2.5538565 27.578426,-2.2976e-6 42.333329,-2.2976e-6 z"
   class="fil0" /><path
   style="fill:#3c82c2"
   inkscape:connector-curvature="0"
   id="path12"
   d="M 42.333329,0.65708714 C 28.662428,0.65737533 13.040841,2.5953569 0.72015918,9.2362831 l 0,20.0687509 c 3.26552372,2.639165 5.18025242,6.62911 5.18039632,10.846586 0,4.207823 -1.937453,8.226299 -5.18097162,10.84702 -0.0268951,8.358437 -0.79779167,17.270788 3.65197872,24.804117 4.570295,7.737228 13.3395314,11.476874 21.2015254,14.878897 5.962512,2.580229 12.24086,5.025725 16.760241,9.932286 4.519669,-4.906561 10.797874,-7.352057 16.760529,-9.932286 7.861995,-3.402023 16.631231,-7.141669 21.201382,-14.878897 4.449914,-7.533329 3.678874,-16.44568 3.651979,-24.804117 -3.243375,-2.620721 -5.180972,-6.639197 -5.180972,-10.84702 1.44e-4,-4.217476 1.914873,-8.207421 5.180397,-10.846586 l 0,-20.0687509 C 71.626105,2.5953569 56.004375,0.65737533 42.333329,0.65708714 z"
   class="fil1" /><path
   style="fill:#ffffff;stroke:#3c82c2;stroke-width:0.35990304"
   inkscape:connector-curvature="0"
   id="path14"
   d="m 52.422582,24.50684 -0.852157,-1.673417 -0.749898,1.74172 1.602055,-0.0683 z m -1.351657,-2.613804 -0.736955,1.727454 -0.866108,-1.686818 1.603063,-0.04064 z M 53.866,21.99549 53.129046,23.722944 52.262938,22.036126 53.866,21.99549 z"
   class="fil2 str0" /><path
   style="fill:#ffffff;fill-rule:nonzero"
   inkscape:connector-curvature="0"
   id="path16"
   d="m 32.939466,18.532514 4.645802,-0.766605 c -0.0043,-0.117584 -0.0072,-0.240068 -0.0072,-0.365578 l 0,-2.88e-4 c 0.001,-0.12868 0.0058,-0.25981 0.01294,-0.39166 0.04056,-0.680433 0.178629,-1.42355 0.475914,-2.119402 l 0.043,-0.10058 0.05465,0.09453 c 0.2911,0.503769 0.5822,0.981167 0.871861,1.37153 0.241193,0.325375 0.482386,0.591381 0.721421,0.762858 l 0.0043,-0.03905 c 0.08414,-0.698157 0.225804,-1.383346 0.451176,-2.00686 l 0.03711,-0.10231 0.05983,0.09064 0.04257,0.06441 c 0.560914,0.847588 1.130601,1.708288 1.741853,2.314223 l -0.0315,-0.07738 c 0.701573,-0.287045 1.441836,-0.521493 2.174906,-0.673517 1.141675,-0.236898 2.268536,-0.275516 3.211734,-0.0072 0.949957,0.269897 1.714094,0.850038 2.12126,1.848785 0.08198,0.200585 0.149577,0.418606 0.201066,0.653343 0.891133,-0.141073 1.908832,-0.01009 2.844695,0.109515 0.663316,0.08516 1.285498,0.164992 1.787157,0.137902 l 0.01467,-8.65e-4 c 0.459373,-0.02695 0.791751,0.04409 1.017842,0.174936 0.128579,0.07436 0.223502,0.168739 0.288223,0.275805 0.06486,0.107065 0.09909,0.226378 0.106286,0.350591 0.01151,0.207502 -0.05048,0.430423 -0.168849,0.635619 -0.254137,0.440509 -0.551709,0.789084 -0.921337,1.026126 l -1.44e-4,0 c -0.37049,0.237474 -0.812461,0.362408 -1.353383,0.355779 -0.539196,-0.0072 -1.07681,-0.02277 -1.613993,-0.03847 -0.78758,-0.02291 -1.575592,-0.04611 -2.362021,-0.04121 -0.710779,0.0043 -1.30621,0.167298 -1.811176,0.42437 -0.483249,0.245688 -0.884661,0.579132 -1.226387,0.942405 0.165685,0.0928 0.348054,0.175656 0.542216,0.263556 0.08011,0.03631 0.163097,0.07407 0.255719,0.117584 0.416658,0.195542 0.733503,0.336038 1.064873,0.431575 0.330508,0.09525 0.677843,0.146693 1.156489,0.164561 1.05236,0.03948 2.106878,-0.01441 3.160964,-0.06758 l 0.569686,-0.02839 0.02301,-0.0012 0.05839,-0.0029 -0.0012,0.0585 c -0.0058,0.312694 -0.043,0.604493 -0.120956,0.860989 -0.01596,0.05288 -0.03366,0.103606 -0.0525,0.151735 -0.0197,0.05044 -0.04099,0.09828 -0.06328,0.14309 l -4.32e-4,5.77e-4 -0.01826,0.0353 -4.32e-4,7.2e-4 c -0.443409,0.834907 -2.054669,0.811996 -3.200371,0.795712 -0.260753,-0.0029 -0.497631,-0.0072 -0.689492,1.45e-4 l -0.02042,8.64e-4 c -0.356109,0.01513 -0.713799,0.02046 -1.068037,0.02565 -2.054238,0.03012 -4.006793,0.05894 -5.422021,2.068535 l -0.04099,0.05836 -0.04574,-0.0549 c -0.301023,-0.361687 -0.549983,-0.733606 -0.76989,-1.133479 -0.06098,-0.110812 -0.119517,-0.223641 -0.176472,-0.339064 -0.536895,0.633457 -1.095507,1.521681 -1.486708,2.297075 -0.07867,0.155915 -0.151015,0.308371 -0.215017,0.453334 -0.06386,0.144675 -0.11923,0.281136 -0.164247,0.405926 l 1.44e-4,0 -8.63e-4,0.0029 -0.02776,0.07882 -0.06113,-0.05706 c -0.172158,-0.160814 -0.373368,-0.335893 -0.586515,-0.521636 -0.11434,-0.09957 -0.232419,-0.202459 -0.352225,-0.308515 -0.337555,0.664582 -0.620888,1.317349 -0.831878,2.01565 1.167132,0.935632 2.379712,1.656701 3.646658,2.215372 1.288231,0.567892 2.633273,0.968486 4.04433,1.255963 1.349357,0.274796 2.656861,0.486909 3.964077,0.578267 1.305347,0.09121 2.610837,0.06182 3.957892,-0.145828 0.185246,-0.02853 0.292251,-0.04582 0.408461,-0.06441 1.491742,-0.239203 3.174195,-0.5091 4.626961,0.322781 0.608088,0.348142 1.197335,0.63951 1.791616,0.896581 0.594137,0.256928 1.192588,0.47956 1.819517,0.690377 1.506844,0.272202 3.000744,0.603196 4.282359,1.856421 1.279171,1.25092 2.341886,3.419171 2.984348,7.363869 l 7.19e-4,0.0043 0,0.0029 c 0.04042,1.114458 0.31368,2.090438 0.719264,2.986443 0.406447,0.897878 0.946793,1.717078 1.520076,2.51596 l 0.05393,0.07493 -0.09162,0.01153 -0.0072,8.64e-4 c -0.14066,0.01744 -0.280889,0.02896 -0.419823,0.03401 -0.138358,0.0058 -0.275423,0.0043 -0.410186,-0.0029 -0.647208,-0.03242 -1.258172,-0.200441 -1.832749,-0.478263 0.343164,0.903498 0.946218,1.718376 1.670372,2.460627 0.760254,0.779285 1.655702,1.480325 2.52483,2.121275 l 0.100102,0.07378 -0.121819,0.02435 c -0.905804,0.1807 -1.811895,0.170613 -2.718274,-0.02983 0.508562,0.554347 1.123985,0.975259 1.830304,1.281757 0.762268,0.33085 1.63154,0.529418 2.586819,0.620488 l 0.208545,0.01989 -0.191718,0.08473 -2.139526,0.945718 c 0.507699,0.06182 1.007919,0.07363 1.50253,0.08487 1.039991,0.02363 2.057258,0.04712 3.075963,0.530138 l 2.88e-4,2.88e-4 0.0029,0.0014 0,-1.44e-4 c 0.33928,0.161246 0.653967,0.351745 0.941759,0.571207 0.288079,0.21975 0.549983,0.469041 0.783841,0.748448 1.199348,1.432195 1.671378,3.657077 1.249686,6.774073 l -0.02819,0.208943 -0.07695,-0.196406 c -0.830008,-2.121852 -1.65412,-3.595403 -2.451048,-4.101334 l 1.43e-4,-1.44e-4 c -0.773054,-0.490367 -1.529999,-0.03819 -2.253146,1.667509 l -0.04933,0.116576 -0.05106,-0.116 -0.0014,-0.0029 1.44e-4,0 C 75.132822,65.12001 75.0169,64.875475 74.896375,64.631516 c -0.11923,-0.241797 -0.242918,-0.48201 -0.36934,-0.71617 -0.628223,-1.162875 -1.327208,-2.168971 -1.985058,-2.496507 -0.03207,0.101733 -0.05868,0.209231 -0.07939,0.320043 -0.02431,0.130265 -0.04128,0.26687 -0.05134,0.406213 -0.05106,0.716603 0.08097,1.51073 0.308071,2.059169 l 0.04789,0.115567 -0.117217,-0.04309 C 72.10317,64.07544 71.657171,63.864912 71.269853,63.635219 70.881816,63.405381 70.552747,63.155947 70.240361,62.87726 69.489025,62.207058 69.117959,61.490168 68.760556,60.799935 68.339727,59.986931 67.937739,59.210384 66.945785,58.59883 l -0.07407,-0.04568 c -0.716531,-0.441086 -1.49088,-0.918629 -2.045753,-1.772124 0.08025,1.053792 0.268232,1.879477 0.551709,2.537143 0.293976,0.682163 0.691074,1.184634 1.176193,1.574421 0.503528,0.35477 0.847986,0.694267 1.040279,1.069355 l 0,1.44e-4 c 0.194018,0.378691 0.232851,0.790957 0.123688,1.287665 -0.171006,0.777988 -0.496912,1.36519 -0.82368,1.954121 -0.406446,0.732164 -0.81505,1.468364 -0.920042,2.578355 l -2.87e-4,0.0029 -2.88e-4,0.0013 c -0.134763,0.714729 -0.222927,1.362308 -0.284196,1.982076 -0.06113,0.619768 -0.09607,1.215039 -0.123977,1.823423 l -0.0029,0.0634 -0.06199,-0.01153 c -0.385017,-0.07407 -0.84022,-0.355058 -1.236167,-0.695419 -0.07623,-0.06542 -0.151159,-0.134156 -0.223215,-0.204044 -0.05767,-0.05605 -0.112758,-0.113261 -0.165542,-0.169748 -0.188984,0.225226 -0.383147,0.487485 -0.544517,0.779861 -0.17187,0.311397 -0.307496,0.658243 -0.360998,1.031746 -0.09421,0.656225 -0.198478,1.049038 -0.446574,1.285503 -0.248959,0.237187 -0.632394,0.308227 -1.283773,0.319899 l -0.203798,0.0043 c -0.8733,0.01614 -1.747318,0.03228 -2.618172,-0.01671 -0.270821,-0.01513 -0.48742,-0.07608 -0.643037,-0.171766 -0.08227,-0.05043 -0.147564,-0.111244 -0.195889,-0.179835 -0.4506,0.100293 -0.747741,0.161679 -1.133764,0.156203 -0.978723,-0.01441 -1.591988,-0.157356 -1.927673,-0.382005 -0.243207,-0.162687 -0.345178,-0.368316 -0.336836,-0.598442 0.0086,-0.223064 0.122394,-0.467455 0.31253,-0.716746 0.488138,-0.639653 1.488434,-1.328012 2.471327,-1.782499 0.220195,-0.101734 0.451464,-0.204908 0.682733,-0.307794 0.620456,-0.276237 1.243358,-0.553627 1.83692,-0.898167 0.948663,-0.550745 1.657715,-1.528597 1.897757,-3.11469 0.04703,-0.310965 0.07623,-0.644697 0.08557,-1.001629 0.01007,-0.357653 -0.001,-0.741099 -0.03265,-1.15106 l -8.63e-4,-0.01153 C 61.3378,62.589207 60.971912,61.175312 60.413299,59.909839 60.304281,59.662998 60.187927,59.421777 60.065389,59.189634 59.959391,58.988905 59.848071,58.793075 59.731861,58.60517 59.040643,58.099673 58.312175,57.68683 57.594925,57.279896 57.199121,57.05539 56.806338,56.83247 56.426786,56.598454 53.287252,54.662345 53.076694,52.750878 52.894181,51.091151 l -0.0043,-0.04424 c -0.0338,-0.306354 -0.07824,-0.606944 -0.133181,-0.898311 -2.632411,0.333444 -3.985795,1.495599 -5.28582,2.612651 -0.795922,0.683748 -1.573003,1.351212 -2.611556,1.806276 -0.557462,0.244103 -1.126861,0.440077 -1.714238,0.579996 -0.587952,0.13992 -1.195609,0.22465 -1.829585,0.246409 -0.763418,0.02608 -1.528993,-0.09928 -2.292698,-0.224362 -1.065448,-0.174359 -2.128164,-0.348286 -3.165278,-0.103895 -0.30951,0.07291 -0.587234,0.180988 -0.833173,0.32451 -0.245364,0.143234 -0.459949,0.322205 -0.643612,0.537488 l -0.05465,-0.04683 c 0.02186,0.08545 0.04473,0.170901 0.06875,0.256063 0.410905,1.45626 1.129018,2.888456 2.277884,4.327136 l 0.06702,0.08387 -0.107293,0.0058 c -0.357546,0.01671 -0.714805,-0.0058 -1.071345,-0.05044 -0.320871,-0.0402 -0.643324,-0.09943 -0.966065,-0.164272 0.244788,0.585184 0.513451,1.125122 0.801962,1.625 0.303756,0.526536 0.629518,1.00869 0.972826,1.454675 l 0.05134,0.06657 -0.08184,0.02003 c -0.378976,0.09222 -0.758096,0.117008 -1.136929,0.07435 -0.339856,-0.03833 -0.679568,-0.131418 -1.019137,-0.278255 0.155618,0.439069 0.360711,0.879002 0.603054,1.318646 0.264349,0.479848 0.573427,0.960561 0.910119,1.441274 l 0.05408,0.07709 -0.09363,0.0086 c -0.782402,0.0745 -1.564373,-0.104184 -2.345482,-0.535615 -0.254856,2.425611 0.389188,5.471279 1.009213,7.549324 0.121963,0.408952 0.243207,0.780726 0.356252,1.10221 l 0,2.88e-4 c 0.112615,0.320907 0.217894,0.592966 0.307928,0.803349 l -1.44e-4,0 0.0013,0.0029 0.03509,0.0807 -0.08773,-0.0043 c -0.41033,-0.01945 -0.898325,-0.16557 -1.281328,-0.351457 -0.07551,-0.0366 -0.147276,-0.07522 -0.213291,-0.114126 -0.03754,-0.02219 -0.07306,-0.04525 -0.107149,-0.06801 -0.0062,1.361155 -0.07206,2.558181 -0.275855,3.445829 -0.213147,0.928427 -0.579323,1.524995 -1.187267,1.630475 -0.578316,0.100292 -2.617165,0.245976 -3.804432,-0.0281 -0.234721,-0.05404 -0.437944,-0.125366 -0.591548,-0.216581 -0.158638,-0.0941 -0.265787,-0.211104 -0.304188,-0.353185 -0.842808,0.09237 -1.466141,0.06095 -1.908113,-0.06095 l -1.43e-4,0 C 24.88676,78.92667 24.639527,78.758363 24.496278,78.545529 24.351735,78.330966 24.313334,78.072742 24.3572,77.790885 c 0.04674,-0.300013 0.187691,-0.627549 0.392496,-0.957103 0.427877,-0.688359 1.1411,-1.259565 1.737538,-1.73682 l 1.44e-4,1.44e-4 c 0.203654,-0.162975 0.39379,-0.315287 0.554297,-0.457801 l 7.19e-4,-7.2e-4 0.001,-8.65e-4 c 0.414069,-0.368028 0.682013,-0.704065 0.84511,-1.143134 0.164247,-0.442238 0.224653,-0.992983 0.223934,-1.788839 -0.0023,-1.76881 -0.468435,-2.991198 -1.062716,-4.536655 -0.07464,-0.194245 -0.152309,-0.395983 -0.215592,-0.562849 -0.864813,-2.278631 -1.637148,-4.517202 -2.323189,-6.744245 -0.673959,-2.187849 -1.2645,-4.363449 -1.777664,-6.55317 -0.296278,0.336038 -0.584789,0.723519 -0.853308,1.168495 -0.133612,0.221191 -0.262191,0.456216 -0.38401,0.705074 -0.12225,0.249867 -0.238604,0.515008 -0.347191,0.79528 l -0.001,0.0029 -0.04832,0.124645 -0.05293,-0.122772 c -0.267081,-0.620488 -0.422267,-1.319654 -0.486844,-2.071849 -0.06026,-0.702048 -0.04156,-1.452081 0.03811,-2.229204 -0.323748,0.348286 -0.594281,0.75277 -0.821522,1.181175 -0.253131,0.476967 -0.453477,0.985058 -0.615136,1.480181 l -0.03725,0.11427 -0.0617,-0.103175 c -0.749323,-1.25553 -1.224086,-3.011371 -1.036827,-4.80194 0.03639,-0.348286 0.09809,-0.698734 0.187547,-1.046588 0.05983,-0.233439 0.132893,-0.465726 0.219188,-0.69614 -0.529129,0.520772 -1.030212,1.109559 -1.499509,1.771836 l -0.07565,0.106921 -0.02287,-0.129256 c -0.328206,-1.861754 -0.125702,-4.238515 0.470592,-6.146669 0.11621,-0.37163 0.247521,-0.725968 0.392496,-1.055089 0.09622,-0.218165 0.199484,-0.425523 0.307927,-0.6202 -0.71725,0.442814 -1.412639,0.932461 -2.036548,1.371962 l -0.215736,0.151159 -0.07738,0.05461 -0.0085,-0.09467 c -0.180643,-2.0413 0.522656,-3.861986 1.724162,-5.441738 0.233138,-0.306642 0.485693,-0.604782 0.754069,-0.893555 0.178485,-0.192228 0.365169,-0.38042 0.558037,-0.565155 l -0.133613,0.06873 c -0.847554,0.4444 -1.654982,0.975548 -2.451623,1.527733 l -0.08644,0.06009 7.19e-4,-0.105336 c 0.01798,-2.486709 0.960457,-4.584351 2.408046,-6.126062 0.284627,-0.303183 0.589103,-0.58504 0.90983,-0.844129 0.282327,-0.227964 0.577885,-0.438204 0.882936,-0.629855 -0.273266,0.05591 -0.546819,0.115135 -0.820085,0.174647 -0.896167,0.194822 -1.79291,0.390075 -2.68994,0.462125 l -2.88e-4,0 -0.07508,0.0058 -0.116929,0.0086 0.06832,-0.09583 c 0.842089,-1.17815 1.933282,-2.159461 3.307664,-2.926066 1.327208,-0.740378 2.919052,-1.280603 4.806166,-1.605402 -0.683883,-0.254334 -1.478942,-0.362552 -2.237901,-0.465582 -0.434205,-0.05879 -0.857479,-0.116432 -1.244078,-0.199 l -1.43e-4,0 -0.04343,-0.01009 -0.119087,-0.02608 0.09852,-0.0719 c 1.090473,-0.79456 2.936167,-1.968819 5.062461,-2.675622 0.4145,-0.137902 0.839644,-0.258081 1.270828,-0.353762 0.309222,-0.06859 0.623046,-0.124645 0.938739,-0.166578 -0.513739,-0.05303 -1.027766,-0.114991 -1.541793,-0.179691 l -0.156912,-0.01974 0.135483,-0.08156 c 1.153324,-0.693547 2.898197,-1.498913 4.720015,-2.079342 0.354814,-0.112974 0.712504,-0.217589 1.0689,-0.310965 0.3272,-0.08574 0.653105,-0.161823 0.973832,-0.226955 l -0.730482,-0.805079 -0.0676,-0.0745 0.09924,-0.01643 z"
   class="fil3" /><path
   style="fill:none;stroke:#3c82c2;stroke-width:0.35990304"
   inkscape:connector-curvature="0"
   id="path18"
   d="m 39.708542,17.471948 c -2.253435,0.371774 -4.506869,0.743693 -6.760447,1.115611 0.265211,0.292088 0.530279,0.58432 0.795347,0.876552 -2.502538,0.49152 -5.24109,1.668085 -6.839982,2.629654 1.856049,0.23416 3.711954,0.425379 5.567427,0.318746 -0.152166,0.770063 -0.628942,1.667941 -1.007056,2.438436 1.168283,-0.127671 2.336709,-0.45708 3.504847,-0.924392 -0.07838,0.691673 -0.223071,1.360723 -0.641455,1.938846 1.263782,-0.05015 2.527275,-0.530139 3.790625,-1.147313 0.05825,0.736488 -0.116785,1.47312 -0.397673,2.209896 1.141963,-0.109803 2.28335,-0.361399 3.425168,-0.924248 0.371354,0.944566 0.760542,1.701227 1.358274,2.419414 1.675693,-2.379499 4.084458,-2.012768 6.53263,-2.117384 1.014534,-0.04337 3.333696,0.23099 3.864263,-0.767757 0.167267,-0.314855 0.241624,-0.718187 0.24939,-1.167486 -1.252707,0.0598 -2.505701,0.144242 -3.758121,0.09712 -0.967647,-0.03631 -1.403578,-0.207358 -2.242647,-0.601323 -0.31555,-0.148278 -0.60665,-0.267159 -0.861937,-0.417886 0.711353,-0.774386 1.684179,-1.425135 3.124576,-1.434357 1.325482,-0.0086 2.650964,0.06283 3.976733,0.07969 1.060127,0.01297 1.726895,-0.487629 2.226971,-1.35467 0.366464,-0.635331 0.174602,-1.435078 -1.19302,-1.354671 -1.227538,0.07205 -3.162546,-0.500886 -4.692545,-0.239059 -0.688342,-3.329686 -4.543113,-3.102875 -7.64554,-1.83279 m -13.255538,5.025726 c -3.149026,0.293528 -6.117409,2.127327 -7.63015,3.229825 1.126573,0.248426 2.59142,0.270905 3.716412,0.749024 -3.931429,0.639365 -6.596344,2.198368 -8.271606,4.542131 2.014831,-0.14626 4.03038,-0.933038 6.044635,-0.956238 -0.06717,0.982752 -0.36747,1.887691 -0.773629,2.757182 1.802834,-0.310101 3.902232,-1.037942 5.704778,-1.800944 0.0105,0.616309 -0.03883,1.444732 -0.211709,2.231222 1.166557,-0.24468 2.544966,-0.73692 3.711235,-1.434357 m -3.181387,-5.259309 c 1.034095,0.0902 2.068045,0.01009 3.101852,-0.23906 -0.472174,0.939955 -1.177199,1.802241 -1.988367,2.629655 1.343173,0.213698 2.884534,-0.169316 4.453942,-0.637492 0.03466,0.796576 -0.03251,1.593441 -0.238604,2.390595 1.431768,-0.408087 2.863392,-1.419948 4.294872,-2.310909 0.672521,0.749889 1.478942,1.376862 2.035828,1.896481 0.325905,-0.905083 1.163249,-2.360622 1.940905,-3.251151 m -7.317189,5.020249 c 1.034238,1.08708 2.068189,1.777456 3.101852,2.071849 0.05365,-1.88625 0.536176,-3.258789 1.267377,-4.690984 m -18.118515,0.913729 c -2.509585,1.483783 -4.359305,4.198167 -4.384618,7.681894 1.595727,-1.106101 3.23417,-2.126751 5.169753,-2.549968 0.12714,0.982608 0.09895,1.96536 0,2.948401 1.166413,-0.538641 2.333257,-1.239969 3.499525,-2.231223 0.174315,0.935777 0.146269,1.91824 0.07953,2.868715 1.1667,-0.595127 2.3334,-1.296455 3.499525,-2.231223 0.533587,0.82338 1.010795,1.646615 1.431624,2.470282 0.551853,-1.455684 1.336701,-2.755597 2.226971,-3.984325 0.712216,0.435466 1.389196,0.977276 1.988367,1.753103 0.17,-0.970648 0.60478,-1.852531 1.113485,-2.709341 m -16.056942,1.875443 c -2.117376,1.920401 -3.566978,4.316184 -3.317444,7.134463 1.278452,-0.89903 2.897047,-2.070264 4.404754,-2.611354 -0.100965,0.882892 -0.0443,1.93827 0.255719,2.82145 0.875025,-0.660259 1.965067,-1.4626 2.839661,-1.662753 M 39.708542,19.065678 c -0.0058,-1.351644 0.109162,-2.836436 0.556742,-4.074675 0.752919,1.137514 1.519501,2.310188 2.38604,2.879378 m -5.010684,-0.07969 c -0.03854,-0.853352 0.06415,-1.912044 0.477208,-2.879233 0.583638,1.009987 1.167132,1.913773 1.749763,2.241741 M 18.223539,41.474733 c -1.22236,1.930057 -1.789314,5.497505 -1.334975,8.074275 1.154763,-1.628746 2.497648,-2.817847 3.99615,-3.641947 m -2.264221,1.581338 c -1.052504,2.412354 -0.544949,5.104403 0.489145,6.837044 0.32533,-0.995865 0.804839,-2.042309 1.560059,-2.797241 -0.187115,1.660303 -0.101683,3.202446 0.427733,4.432327 0.780389,-2.015794 1.945219,-3.224205 2.99873,-3.911123 m -2.196912,-3.818467 c 0.387606,1.537243 1.625931,4.505817 4.049796,4.462444 m 12.646012,-3.42652 c 0.134763,1.73682 0.299586,3.562693 -0.960025,5.621429 m 3.346065,-7.454219 c 0.544518,3.061807 0.539053,5.756017 -0.888113,7.830172 m 3.274153,-7.909858 c 0.770609,2.773033 0.645626,5.448655 -0.381565,7.859568 m 2.926675,-7.540822 c 0.377681,2.231222 0.307495,4.314167 -0.275567,6.471466 M 22.759028,53.177266 c 1.039704,4.460282 2.397402,8.852695 4.126886,13.409668 0.695245,1.832501 1.279027,3.130685 1.281759,5.118813 0.0017,1.605114 -0.245507,2.224737 -1.088172,2.973618 -0.625634,0.555932 -1.713663,1.267635 -2.282774,2.183381 -0.800812,1.288529 -0.598884,2.51524 2.424872,2.166954 M 24.358351,47.912193 c 0.735084,1.200917 1.238037,2.473307 1.511159,3.904638 0.474907,4.298028 2.037267,9.146656 3.442283,14.009406 0.583782,2.020983 1.21632,3.961846 1.201937,6.088597 -0.01122,1.644164 -0.110169,2.760064 -1.260329,3.91242 -0.746591,0.748015 -1.340728,1.468652 -1.693096,2.074154 -0.274129,0.471203 -0.41033,0.874823 -0.34187,1.163596 0.222208,0.935488 3.8401,0.708533 4.641344,0.569478 1.164399,-0.202026 1.411345,-2.325463 1.417817,-5.127459 0.371785,0.283009 1.091049,0.557085 1.658866,0.584031 -0.644619,-1.503812 -2.058697,-6.165545 -1.670228,-9.568144 0.795346,0.455351 1.590693,0.645129 2.38604,0.569333 -0.675254,-0.964307 -1.239763,-1.928759 -1.561641,-2.892922 0.745727,0.349583 1.491167,0.433592 2.236463,0.252172 -0.689924,-0.896293 -1.307936,-1.936396 -1.821387,-3.186596 0.708333,0.144531 1.416954,0.266583 2.124999,0.23344 -2.307943,-2.890329 -2.883958,-5.753279 -2.728197,-8.840879 M 44.105673,19.840064 c 1.066886,-1.021371 2.648518,-1.522401 3.811191,-0.944999 m -1.028916,-0.213121 c 0.268519,1.195153 -1.419831,1.641282 -1.824408,0.454919 M 34.339736,55.892227 c 0.375812,-0.440077 0.876176,-0.731445 1.505981,-0.879866 1.791903,-0.422353 3.643205,0.389498 5.46862,0.326959 1.259322,-0.04323 2.415811,-0.33647 3.523687,-0.821794 2.748908,-1.204519 3.668231,-3.922074 8.002799,-4.434345 m -2.054238,-3.718319 c 1.055524,0.473796 1.908544,2.409472 2.158222,4.676143 0.182657,1.657709 0.367039,3.571626 3.511751,5.510905 2.433933,1.50093 5.32724,2.49449 6.601089,6.71701 1.132614,3.754056 -0.192868,6.036145 -2.045177,7.171785 -1.005042,0.61631 -2.04604,1.201494 -2.93142,1.980779 -0.869129,0.76502 -0.656269,1.446318 0.340862,1.50266 0.937877,0.05288 1.878198,0.02997 2.818088,0.01297 1.27428,-0.02306 1.49203,-0.270329 1.676987,-1.558426 0.109307,-0.761561 0.55099,-1.410581 0.957581,-1.88625 0.453477,0.500598 1.114636,0.997018 1.637292,1.097743 0.05624,-1.217489 0.138934,-2.38195 0.409035,-3.813281 0.190423,-2.012336 1.362445,-2.798394 1.744585,-4.539104 0.21286,-0.967766 -0.148857,-1.600935 -1.142681,-2.30111 -0.986058,-0.791245 -1.61198,-2.036689 -1.760837,-4.293128 -0.132175,-2.004556 -0.586515,-4.007093 -1.158934,-6.01064 1.494475,-3.687914 3.219644,-7.402775 1.022588,-10.655224 M 37.697451,31.348207 c 2.377698,1.922563 4.941792,2.951859 7.771673,3.528397 2.704754,0.551033 5.238789,0.849894 7.941242,0.433161 1.578324,-0.243239 3.430058,-0.647435 4.999897,0.251596 1.221065,0.69931 2.363172,1.168351 3.624796,1.592577 2.999737,0.541955 5.94554,1.312738 7.226292,9.175908 0.08184,2.245488 1.098959,3.928992 2.249695,5.53252 -1.000439,0.126087 -1.921057,-0.06773 -2.761852,-0.501463 0.672809,1.926742 2.520084,3.451593 4.261649,4.736232 -0.954416,0.190498 -1.908832,0.167731 -2.863248,-0.0683 1.07005,1.249335 2.645786,1.865788 4.567562,2.049082 -0.772622,0.341513 -1.545245,0.683027 -2.317867,1.02454 1.641175,0.242806 3.201378,-0.101157 4.75554,0.635907 2.400998,1.139676 3.530879,3.729415 2.94796,8.038538 -1.668358,-4.265029 -3.323485,-5.930232 -4.805303,-2.435553 -0.795203,-1.735091 -1.830304,-3.576238 -2.785152,-3.998303 -0.294839,0.853784 -0.160939,2.107874 0.159645,2.882115 -1.087741,-0.400738 -1.771624,-0.835339 -2.392081,-1.388966 -1.633409,-1.45698 -1.456937,-3.146248 -3.302342,-4.284194 -0.791895,-0.48835 -1.668359,-1.006673 -2.238621,-2.025161 m -2.361014,-0.08819 c 0.460524,2.301831 1.339001,3.974095 2.65873,4.986099 1.063291,0.815309 0.83346,2.172286 0.409035,3.620044 M 59.718198,58.47966 c 0.97714,1.535515 1.636861,3.61428 1.77148,5.335682 0.229831,2.940331 -0.637859,4.552362 -1.977004,5.329917 -0.81275,0.471923 -1.681878,0.81848 -2.524255,1.208267 -2.255592,1.043273 -4.596903,3.317581 -0.541641,3.37522 0.416945,0.0058 0.730338,-0.06715 1.255008,-0.184302 m -0.984188,-1.669381 c -0.446429,0.38359 -0.777512,1.253369 -0.681726,1.77587 m 3.582656,-1.404096 c -0.367758,0.455351 -0.700854,1.153653 -0.51489,1.609004 m 1.84066,-1.570962 c -0.482242,0.488926 -0.641168,1.151491 -0.546388,1.640418 m -33.88637,2.865688 c -0.74357,0.614148 -1.129881,1.619091 -1.109746,2.213642 m 3.978603,-1.323833 c -0.522656,0.523654 -0.859492,1.08852 -0.927665,1.83985 m 2.700152,-1.771548 c -0.522656,0.500887 -0.768595,1.197747 -0.836768,1.880775"
   class="fil4 str0" />
</svg>