<?xml version="1.0" encoding="UTF-8" standalone="no"?>
<svg
   xmlns:dc="http://purl.org/dc/elements/1.1/"
   xmlns:cc="http://creativecommons.org/ns#"
   xmlns:rdf="http://www.w3.org/1999/02/22-rdf-syntax-ns#"
   xmlns:svg="http://www.w3.org/2000/svg"
   xmlns="http://www.w3.org/2000/svg"
   xmlns:xlink="http://www.w3.org/1999/xlink"
   version="1.1"
   viewBox="0 0 350 467"
   id="svg2">
  <defs
     id="defs4">
    <linearGradient
       id="linearGradient4281">
      <stop
         offset="0"
         stop-color="#df212c"
         id="stop4283" />
      <stop
         offset="1"
         stop-color="#A00"
         id="stop4285" />
    </linearGradient>
    <style
       type="text/css"
       id="style3821">.str0 {stroke:#FF6600;stroke-width:0.7056}
    .fil1 {fill:none}
    .fil0 {fill:#A90000}</style>
    <linearGradient
       x1="0.22"
       gradientTransform="matrix(47.533369,-24.394128,-19.874708,-38.733381,244.72301,630.44017)"
       x2="0.78"
       gradientUnits="userSpaceOnUse"
       id="linearGradient4164">
      <stop
         offset="0"
         stop-color="#CCC"
         id="stop3557" />
      <stop
         offset="1"
         stop-color="#FFF"
         id="stop3559" />
    </linearGradient>
    <linearGradient
       x1="0.06"
       gradientTransform="matrix(-49.225018,24.614532,20.214624,40.432562,277.79321,564.83084)"
       x2="0.94"
       gradientUnits="userSpaceOnUse"
       id="linearGradient4169">
      <stop
         offset="0"
         stop-color="#CCC"
         id="stop3537" />
      <stop
         offset="1"
         stop-color="#FFF"
         id="stop3539" />
    </linearGradient>
    <linearGradient
       x1="0.15"
       gradientTransform="matrix(47.254694,-34.965883,-33.816502,-45.708873,272.23386,661.95398)"
       x2="0.85"
       gradientUnits="userSpaceOnUse"
       id="linearGradient4174">
      <stop
         offset="0"
         stop-color="#000"
         id="stop3511" />
      <stop
         offset="0.63"
         stop-color="#4c4c4c"
         id="stop3513" />
      <stop
         offset="1"
         stop-color="#000"
         id="stop3515" />
    </linearGradient>
    <linearGradient
       x1="0.2"
       gradientTransform="matrix(65.587816,-46.496449,-45.238859,-63.82435,254.31745,656.10062)"
       x2="0.8"
       gradientUnits="userSpaceOnUse"
       id="linearGradient4179">
      <stop
         offset="0"
         stop-color="#CCC"
         id="stop3489" />
      <stop
         offset="0.33"
         stop-color="#e5e5e5"
         id="stop3491" />
      <stop
         offset="0.58"
         stop-color="#FFF"
         id="stop3493" />
      <stop
         offset="1"
         stop-color="#e5e5e5"
         id="stop3495" />
    </linearGradient>
    <linearGradient
       x1="0.27"
       gradientTransform="matrix(-21.577801,-27.871707,-27.908207,21.609613,406.72156,640.14221)"
       x2="0.73"
       gradientUnits="userSpaceOnUse"
       id="linearGradient4184">
      <stop
         offset="0"
         stop-color="#CCC"
         id="stop3467" />
      <stop
         offset="0.33"
         stop-color="#e5e5e5"
         id="stop3469" />
      <stop
         offset="0.58"
         stop-color="#FFF"
         id="stop3471" />
      <stop
         offset="1"
         stop-color="#e5e5e5"
         id="stop3473" />
    </linearGradient>
    <linearGradient
       x1="0.22"
       gradientTransform="matrix(44.175748,-50.538531,-50.93701,-44.531379,296.1804,683.55681)"
       x2="0.78"
       gradientUnits="userSpaceOnUse"
       id="linearGradient4189">
      <stop
         offset="0"
         stop-color="#CCC"
         id="stop3445" />
      <stop
         offset="0.33"
         stop-color="#e5e5e5"
         id="stop3447" />
      <stop
         offset="0.58"
         stop-color="#FFF"
         id="stop3449" />
      <stop
         offset="1"
         stop-color="#e5e5e5"
         id="stop3451" />
    </linearGradient>
    <linearGradient
       x1="0.08"
       gradientTransform="matrix(55.468108,33.867526,31.5286,-51.64592,300.84053,614.17272)"
       x2="0.92"
       gradientUnits="userSpaceOnUse"
       id="linearGradient4194">
      <stop
         offset="0"
         stop-color="#4c4c4c"
         id="stop3415" />
      <stop
         offset="0.15"
         stop-color="#333"
         id="stop3417" />
      <stop
         offset="0.38"
         stop-color="#4c4c4c"
         id="stop3419" />
      <stop
         offset="0.84"
         stop-color="#000"
         id="stop3421" />
      <stop
         offset="1"
         stop-color="#191919"
         id="stop3423" />
    </linearGradient>
    <linearGradient
       x1="0.06"
       gradientTransform="matrix(47.995187,-37.176976,-36.50095,-47.130181,337.05454,647.67838)"
       x2="0.94"
       gradientUnits="userSpaceOnUse"
       id="linearGradient4199">
      <stop
         offset="0"
         stop-color="#4c4c4c"
         id="stop3389" />
      <stop
         offset="0.48"
         stop-color="#000"
         id="stop3391" />
      <stop
         offset="0.83"
         stop-color="#4c4c4c"
         id="stop3395" />
      <stop
         offset="1"
         stop-color="#4c4c4c"
         id="stop3397" />
    </linearGradient>
    <linearGradient
       x1="0.08"
       gradientTransform="matrix(37.978016,-0.8764867,-0.30427105,-13.186319,322.8632,599.90894)"
       x2="0.92"
       gradientUnits="userSpaceOnUse"
       id="linearGradient4204">
      <stop
         offset="0"
         stop-color="#000"
         id="stop3363" />
      <stop
         offset="0.5"
         stop-color="#333"
         id="stop3365" />
      <stop
         offset="0.79"
         stop-color="#000"
         id="stop3369" />
      <stop
         offset="1"
         stop-color="#000"
         id="stop3371" />
    </linearGradient>
    <linearGradient
       x1="0.24"
       gradientTransform="matrix(-20.156519,-7.0115372,-7.8209521,22.487087,426.24846,588.71816)"
       x2="0.76"
       gradientUnits="userSpaceOnUse"
       id="linearGradient4209">
      <stop
         offset="0"
         stop-color="#CCC"
         id="stop3067" />
      <stop
         offset="0.33"
         stop-color="#e5e5e5"
         id="stop3069" />
      <stop
         offset="0.58"
         stop-color="#FFF"
         id="stop3071" />
      <stop
         offset="1"
         stop-color="#e5e5e5"
         id="stop3073" />
    </linearGradient>
    <radialGradient
       r="0.29"
       gradientTransform="matrix(180.06248,0,0,-180.07728,335.15754,625.2345)"
       cx="0"
       cy="0"
       gradientUnits="userSpaceOnUse"
       id="radialGradient4214">
      <stop
         offset="0"
         stop-color="#666"
         id="stop3047" />
      <stop
         offset="0.79"
         stop-color="#000"
         id="stop3049" />
      <stop
         offset="1"
         stop-color="#000"
         id="stop3051" />
    </radialGradient>
    <radialGradient
       r="0.62"
       gradientTransform="matrix(143.29285,0,0,-143.30463,369.97364,514.10926)"
       cx="0"
       cy="0"
       gradientUnits="userSpaceOnUse"
       id="radialGradient4219">
      <stop
         offset="0"
         stop-color="#333"
         id="stop3249" />
      <stop
         offset="1"
         stop-color="#000"
         id="stop3251" />
    </radialGradient>
    <radialGradient
       r="0.62"
       gradientTransform="matrix(143.29285,0,0,-143.30463,294.49986,514.10926)"
       cx="0"
       cy="0"
       gradientUnits="userSpaceOnUse"
       id="radialGradient4224">
      <stop
         offset="0"
         stop-color="#333"
         id="stop3229" />
      <stop
         offset="1"
         stop-color="#000"
         id="stop3231" />
    </radialGradient>
    <linearGradient
       x1="0.35"
       gradientTransform="matrix(3.646447,122.87468,75.931556,-2.2537255,386.0406,495.54074)"
       x2="0.65"
       gradientUnits="userSpaceOnUse"
       id="linearGradient4229">
      <stop
         offset="0"
         stop-color="#000"
         id="stop3343" />
      <stop
         offset="1"
         stop-color="#4c4c4c"
         id="stop3345" />
    </linearGradient>
    <radialGradient
       r="0.58"
       gradientTransform="matrix(77.850749,0,0,-77.857149,444.35384,539.91593)"
       cx="0"
       cy="0"
       gradientUnits="userSpaceOnUse"
       id="radialGradient4234">
      <stop
         offset="0"
         stop-color="#333"
         id="stop3323" />
      <stop
         offset="1"
         stop-color="#000"
         id="stop3325" />
    </radialGradient>
    <linearGradient
       x1="0.35"
       gradientTransform="matrix(3.6464572,122.87496,75.930975,-2.2537051,164.84425,495.54053)"
       x2="0.65"
       gradientUnits="userSpaceOnUse"
       id="linearGradient4254">
      <stop
         offset="0"
         stop-color="#000"
         id="stop3301" />
      <stop
         offset="1"
         stop-color="#4c4c4c"
         id="stop3303" />
    </linearGradient>
    <radialGradient
       r="0.58"
       gradientTransform="matrix(77.850749,0,0,-77.857149,223.15688,539.91593)"
       cx="0"
       cy="0"
       gradientUnits="userSpaceOnUse"
       id="radialGradient4259">
      <stop
         offset="0"
         stop-color="#333"
         id="stop3281" />
      <stop
         offset="1"
         stop-color="#000"
         id="stop3283" />
    </radialGradient>
    <linearGradient
       x1="214.32"
       y1="459.29"
       x2="250.26"
       gradientUnits="userSpaceOnUse"
       xlink:href="#linearGradient4281"
       y2="459.29"
       id="linearGradient4287" />
    <linearGradient
       x1="210.71"
       y1="335.58"
       x2="256.04"
       gradientUnits="userSpaceOnUse"
       xlink:href="#linearGradient4281"
       y2="335.58"
       id="linearGradient4295" />
    <linearGradient
       x1="215.9"
       y1="301.77"
       x2="250.09"
       gradientUnits="userSpaceOnUse"
       xlink:href="#linearGradient4281"
       y2="301.77"
       id="linearGradient4303" />
    <linearGradient
       x1="435.82"
       y1="495.68"
       x2="472.55"
       gradientUnits="userSpaceOnUse"
       xlink:href="#linearGradient4281"
       y2="495.68"
       id="linearGradient4311" />
    <linearGradient
       x1="432.44"
       y1="408.35"
       x2="478.75"
       gradientUnits="userSpaceOnUse"
       xlink:href="#linearGradient4281"
       y2="408.35"
       id="linearGradient4319" />
    <linearGradient
       x1="438.39"
       y1="374.55"
       x2="473.31"
       gradientUnits="userSpaceOnUse"
       xlink:href="#linearGradient4281"
       y2="374.55"
       id="linearGradient4327" />
  </defs>
  <metadata
     id="metadata7">
    <rdf:RDF>
      <cc:Work
         rdf:about="">
        <dc:format>image/svg+xml</dc:format>
        <dc:type
           rdf:resource="http://purl.org/dc/dcmitype/StillImage" />
        <dc:title></dc:title>
      </cc:Work>
    </rdf:RDF>
  </metadata>
  <g
     transform="translate(-157.29023,-234.08481)"
     id="layer1">
    <path
       fill="#a90000"
       class="fil0"
       d="m404.04,459.61c2.9349,0,5.315,2.38,5.315,5.315v5.3142c0,2.9349-2.38,5.315-5.315,5.315h-5.315v-15.944zm0,21.259c5.8698,0,10.63-4.7601,10.63-10.63v-5.3142c0-5.8698-4.7601-10.63-10.63-10.63h-10.63v26.574zm-21.26-26.574,5.315,0,0,26.574-5.315,0zm-10.63,0,5.315,0,0,26.574-5.315,0-10.63-16.684,0,16.684-5.315,0,0-26.574,5.315,0,10.63,16.684zm-79.724,0.00036,15.945,0,0,5.315-10.63,0,0,5.3146,10.63,0,0,5.315-10.63,0,0,5.3146,10.63,0,0,5.315-15.945,0zm-21.26-0.00071,5.315,0,0,21.26,10.63,0,0,5.315-15.945,0zm55.808,21.26,5.3135,0c4.4022,0,7.9724-3.5702,7.9724-7.9724s-3.6365-7.9572-7.9724-7.9724h-5.3135v5.315h5.3135c1.4673,0,2.6575,1.1902,2.6575,2.6575s-1.1902,2.6575-2.6575,2.6575h-5.3135zm5.3135-26.575c10.272,0,18.602,8.3303,18.602,18.602s-8.3303,18.602-18.602,18.602-18.602-8.3303-18.602-18.602,8.3303-18.602,18.602-18.602zm-13.287,18.602c0,7.3371,5.9503,13.287,13.287,13.287,7.3371,0,13.287-5.9503,13.287-13.287,0-7.3371-5.9503-13.287-13.287-13.287-7.3371,0-13.287,5.9503-13.287,13.287z"
       id="path3825" />
    <path
       fill="#000"
       fill-rule="nonzero"
       d="m507.24,530.53c-6.8172,44.118-24.012,76.884-52.789,103.59-34.076,31.621-79.278,50.974-122.16,66.967-42.885-15.992-88.088-35.346-122.16-66.967-28.777-26.704-45.972-59.469-52.789-103.59l-0.0471-0.30363v-0.15385-295.99h350v295.99,0.15385l-0.047,0.30363z"
       id="path2995" />
    <path
       d="m488.78,575.3c5.752-13.642,9.8963-28.668,12.501-45.386v-289.82h-337.99v289.82c2.6047,16.718,6.749,31.744,12.501,45.386h312.98z"
       fill="#FFF"
       id="path3013" />
    <path
       d="m176.25,576.31c8.8601,20.617,21.43,38.076,37.969,53.424,27.765,25.765,66.747,45.745,118.07,64.968,51.326-19.223,90.308-39.204,118.07-64.968,16.539-15.348,29.109-32.807,37.969-53.424h-312.08z"
       fill="#3c82c2"
       id="path3033-1" />
    <path
       fill="url(#linearGradient4287)"
       stroke-width="1.16708326000000010"
       stroke-dasharray="none"
       stroke-miterlimit="10"
       stroke="#000"
       fill-rule="evenodd"
       d="m184.89,342.86,73.366,0,0,232.87-73.366,0,0-232.87z"
       id="path3097" />
    <path
       fill="url(#linearGradient4295)"
       stroke-width="1.16708326000000010"
       stroke-dasharray="none"
       stroke-miterlimit="4"
       stroke="#000"
       fill-rule="evenodd"
       d="m182.8,342.86,77.556,0,0-1.7483c0-1.5849,1.2852-2.8699,2.8696-2.8699h1.748l-0.0003-9.9366h-86.791l0.0003,9.9366h1.7475c1.585,0,2.8699,1.285,2.8699,2.8699v1.7483z"
       id="path3119" />
    <path
       fill="url(#linearGradient4303)"
       stroke-width="1.16708326000000010"
       stroke-dasharray="none"
       stroke-miterlimit="4"
       stroke="#000"
       fill-rule="evenodd"
       d="m223.66,275.25c9.1393,21.117,21.896,40.403,36.123,53.057h-76.411c14.227-12.654,26.984-31.941,36.123-53.057h4.164z"
       id="path3141" />
    <path
       fill="none"
       stroke-width="1.16708326"
       stroke-dasharray="none"
       stroke-miterlimit="10"
       stroke-linecap="butt"
       stroke="#000"
       d="m192.39,357.41,0,14.556m58.373-14.556,0,14.556m-29.186-14.556,0,14.556m-14.593-29.11,0,14.556m29.186-14.556,0,14.556m-51.276-0.00061,73.366,0m-73.366,14.554,73.366,0m-73.366,14.555,11.036,0m51.339,0,10.99,0m-73.366,14.554,73.366,0m-73.366,14.554,73.366,0m-73.366,14.554,73.366,0m-73.366,14.555,73.366,0m-73.366,14.554,73.366,0m-73.366,14.554,73.366,0m-73.366,14.555,73.366,0m-73.366,14.554,23.054,0m27.505,0,22.807,0m-73.366,29.109,17.668,0m38.277,0,17.42,0m-73.366,14.555,17.668,0m38.277,0,17.42,0m-73.366,14.554,17.668,0m38.277,0,17.42,0m-45.245-160.1,0-29.11m17.124,29.11,0-29.11m-34.247,29.11,0-29.11m51.37,29.11,0-29.11m-54.871,43.664,0,14.556m58.373-14.556,0,14.556m-58.373,14.553,0,14.556m58.373-14.556,0,14.556m-29.186-14.556,0,14.556m-14.593-29.11,0,14.556m29.186-14.556,0,14.556m-43.78,29.108,0,14.556m58.373-14.556,0,14.556m-29.186-14.556,0,14.556m-14.593-29.11,0,14.556m29.186-14.556,0,14.556m-43.78,29.108,0,14.556m58.373-14.556,0,14.556m-43.78-29.11,0,14.556m29.186-14.556,0,14.556m-43.78,29.108,0,14.556m58.373-14.556,0,14.556m-58.373,14.554,0,14.556m58.373-14.556,0,14.556m-65.869-58.219,17.668,0m38.277,0,17.42,0m-65.869-189.21,0,14.556m58.373-14.556,0,14.556m-29.186-14.556,0,14.556m-23.99-30.038,47.98,0m-37.275-15.707,26.571,0m-14.16-21.49c-3.0047,18.929-7.1967,37.626-15.529,52.679m17.279-52.679c3.0046,18.929,7.1967,37.626,15.529,52.679"
       stroke-linejoin="miter"
       id="path3145" />
    <path
       fill="#000"
       fill-rule="evenodd"
       d="m208.33,393.01c0-3.5986-1.6344-6.8165-4.2016-8.9501-2.5671,2.1336-4.2027,5.3515-4.2027,8.9501v36.997h8.4042v-36.997z"
       id="path3257" />
    <path
       fill="#000"
       fill-rule="evenodd"
       d="m242.85,393.01c0-3.5986-1.6344-6.8165-4.2016-8.9501-2.5671,2.1336-4.2027,5.3515-4.2027,8.9501v36.997h8.4042v-36.997z"
       id="path3259" />
    <path
       fill="#000"
       fill-rule="evenodd"
       d="m225.59,393.01c0-3.5986-1.6344-6.8165-4.2016-8.9501-2.5671,2.1336-4.2027,5.3515-4.2027,8.9501v36.997h8.4042v-36.997z"
       id="path3261" />
    <path
       fill="#FFF"
       fill-rule="nonzero"
       d="m237.23,519.02-0.003,56.272-27.969,0,0-56.279c0.003-8.4286,5.534-17.418,13.987-19.599,8.4282,2.2025,13.986,11.108,13.986,19.606"
       id="path3267" />
    <path
       fill="url(#radialGradient4259)"
       stroke-width="1.00035703"
       stroke-dasharray="none"
       stroke-miterlimit="4"
       stroke="#000"
       fill-rule="evenodd"
       d="m222.38,497.87,2.1893,0,0,17.466c1.0009,0.33978,1.7925,1.1318,2.132,2.1327h0.95501c0.33935-1.0018,1.1316-1.7943,2.1336-2.1335v-13.654h2.1894v13.654c1.0008,0.33978,1.7925,1.1318,2.1319,2.1327h5.1092v2.1896h-5.11c-0.33945,1.0001-1.131,1.7919-2.1311,2.1316v15.446c1.0008,0.33968,1.7925,1.1318,2.1319,2.1327h5.1092v2.1896h-5.11c-0.33945,1.0001-1.131,1.7918-2.1311,2.1316v15.446c1.0008,0.33968,1.7925,1.1317,2.1319,2.1327h5.1092v2.1896h-5.11c-0.33945,1.0001-1.131,1.7918-2.1311,2.1314v9.0916h7.242v1.0463h-7.242-2.1894-5.2206-2.1893-5.2203-2.1894-7.2417v-1.0463h7.2417v-9.0913c-1.0006-0.33968-1.7917-1.1314-2.1314-2.1318h-5.1097v-2.1896h5.1089c0.33904-1.0012,1.1313-1.7936,2.1322-2.133v-15.445c-1.0006-0.33979-1.7917-1.1314-2.1314-2.1319h-5.1097v-2.1896h5.1089c0.33904-1.0012,1.1313-1.7935,2.1322-2.133v-15.445c-1.0006-0.33978-1.7917-1.1314-2.1314-2.1319h-5.1097v-2.1896h5.1089c0.33904-1.0012,1.1313-1.7935,2.1322-2.133v-14.457h2.1894v14.456c1.0014,0.33938,1.7943,1.1317,2.1333,2.1335h0.95471c0.33944-1.0015,1.131-1.7941,2.1323-2.1332v-17.465zm7.4099,76.811,0-9.0907c-1.0011-0.33917-1.7934-1.1318-2.1328-2.1324h-0.95675c-0.33935,1.0001-1.131,1.7918-2.1311,2.1314v9.0916h5.2206zm-7.4099,0,0-9.091c-1.0006-0.33938-1.7917-1.1318-2.1314-2.1321h-0.95644c-0.33975,1.0009-1.1314,1.7929-2.1325,2.1324v9.0907h5.2203zm5.2763-13.413c0.33935-1.0018,1.1316-1.7944,2.1336-2.1336v-15.444c-1.0011-0.33906-1.7934-1.1316-2.1328-2.1324h-0.95675c-0.33965,0.99979-1.1308,1.7918-2.1311,2.1316v15.446c1.0009,0.33968,1.7925,1.1317,2.132,2.1327h0.95501zm-7.4086,0c0.33944-1.0015,1.131-1.7936,2.1323-2.1333v-15.445c-1.0006-0.33937-1.7917-1.1316-2.1314-2.1321h-0.95644c-0.33975,1.0009-1.1314,1.793-2.1325,2.1324v15.444c1.0014,0.33947,1.7943,1.1318,2.1333,2.1336h0.95471zm7.4086-21.9c0.33935-1.0018,1.1316-1.7944,2.1336-2.1335v-15.444c-1.0011-0.33907-1.7934-1.1317-2.1328-2.1324h-0.95675c-0.33965,0.9998-1.1308,1.7919-2.1311,2.1316v15.446c1.0009,0.33968,1.7925,1.1318,2.132,2.1327h0.95501zm-7.4086,0c0.33944-1.0015,1.131-1.7935,2.1323-2.1333v-15.445c-1.0006-0.33947-1.7917-1.1318-2.1314-2.1322h-0.95644c-0.33975,1.001-1.1314,1.793-2.1325,2.1324v15.444c1.0014,0.33937,1.7943,1.1316,2.1333,2.1335h0.95471z"
       id="path3285" />
    <path
       fill="url(#linearGradient4254)"
       stroke-width="1.00035703"
       stroke-dasharray="none"
       stroke-miterlimit="10"
       stroke="#000"
       fill-rule="evenodd"
       d="m240.84,575.73,0-58.219c0-11.152-8.352-20.733-19.139-22.077-10.787,1.344-19.138,10.925-19.138,22.077v58.219h7.4172v-56.714c0-8.3667,5.6425-16.9,13.266-18.863,7.6229,1.9632,13.267,10.497,13.267,18.863v56.714h4.3279z"
       id="path3305" />
    <path
       fill="#df212c"
       stroke-width="1.16708326000000010"
       stroke-dasharray="none"
       stroke-miterlimit="10"
       stroke-linecap="butt"
       stroke="#000"
       fill-rule="evenodd"
       d="m222.75,268.43c1.3209,0.58853,2.2428,1.9136,2.2428,3.4526,0,2.0862-1.6915,3.7779-3.7776,3.7779-2.0855,0-3.777-1.6917-3.777-3.7779,0-1.5389,0.92212-2.8641,2.2428-3.4526v-24.525h28.948l-7.7318,7.7325,7.7314,7.7321h-25.878v9.0604z"
       stroke-linejoin="miter"
       id="path3077" />
    <path
       fill="url(#linearGradient4319)"
       stroke-width="1.16708326000000010"
       stroke-dasharray="none"
       stroke-miterlimit="10"
       stroke="#000"
       fill-rule="evenodd"
       d="m404.12,415.63,77.556,0,0-1.7482c0-1.5849,1.2852-2.8696,2.8696-2.8696h1.7482l-0.00031-9.9369h-86.791l0.00031,9.9369h1.7474c1.585,0,2.8699,1.2847,2.8699,2.8696v1.7482z"
       id="path3167" />
    <path
       fill="url(#linearGradient4327)"
       stroke-width="1.16708326000000010"
       stroke-dasharray="none"
       stroke-miterlimit="4"
       stroke="#000"
       fill-rule="evenodd"
       d="m444.98,348.02c9.1393,21.116,21.896,40.403,36.123,53.057h-76.411c14.227-12.654,26.984-31.941,36.123-53.057h4.164z"
       id="path3189" />
    <path
       fill="url(#linearGradient4311)"
       stroke-width="1.16708326000000010"
       stroke-dasharray="none"
       stroke-miterlimit="4"
       stroke="#000"
       fill-rule="evenodd"
       d="m406.21,415.63,73.366,0,0,160.1-73.366,0,0-160.1z"
       id="path3211" />
    <path
       fill="none"
       stroke-width="1.16708326"
       stroke-dasharray="none"
       stroke-miterlimit="10"
       stroke-linecap="butt"
       stroke="#000"
       d="m406.21,430.18,73.366,0m-73.366,14.554,73.366,0m-73.366,14.554,73.366,0m-73.366,14.555,73.366,0m-73.366,14.554,73.366,0m-73.366,29.109,17.544,0m38.401,0,17.42,0m-73.366,14.555,17.544,0m38.401,0,17.42,0m-73.366,14.554,17.544,0m38.401,0,17.42,0m-65.87-116.44,0,14.556m58.373-14.556,0,14.556m-29.186-14.556,0,14.556m-14.593-29.11,0,14.556m29.186-14.556,0,14.556m-43.78,29.108,0,14.556m58.373-14.556,0,14.556m-29.186-14.556,0,14.556m-14.593-29.11,0,14.556m29.186-14.556,0,14.556m-43.78,29.108,0,14.556m58.373-14.556,0,14.556m-43.78-29.11,0,14.556m29.186-14.556,0,14.556m-43.78,29.108,0,14.556m58.373-14.556,0,14.556m-58.373,14.554,0,14.556m58.373-14.556,0,14.556m-65.869-58.219,22.93,0m27.505,0,22.931,0m-73.366,58.218,17.545,0m38.277,0,17.545,0m-36.683-72.932,0,7.3027m-29.187-94.471,0,14.556m58.373-14.556,0,14.556m-29.186-14.556,0,14.556m-23.99-30.038,47.98,0m-37.275-15.707,26.571,0m-14.16-21.49c-3.0046,18.929-7.1967,37.626-15.529,52.679m17.279-52.679c3.0047,18.929,7.1967,37.626,15.529,52.679"
       stroke-linejoin="miter"
       id="path3215" />
    <path
       fill="#000"
       fill-rule="evenodd"
       d="m431.99,430.05-8.4042,0,0,34.776,8.4042,0,0-34.776z"
       id="path3263" />
    <path
       fill="#000"
       fill-rule="evenodd"
       d="m461.99,430.05-8.4042,0,0,34.776,8.4042,0,0-34.776z"
       id="path3265" />
    <path
       fill="#FFF"
       fill-rule="nonzero"
       d="m458.43,519.02-0.003,56.272-27.969,0,0-56.279c0.003-8.4286,5.534-17.418,13.987-19.599,8.4282,2.2025,13.986,11.108,13.986,19.606"
       id="path3309" />
    <path
       fill="url(#radialGradient4234)"
       stroke-width="1.00035703"
       stroke-dasharray="none"
       stroke-miterlimit="4"
       stroke="#000"
       fill-rule="evenodd"
       d="m443.57,497.87,2.1894,0,0,17.466c1.0008,0.33978,1.7925,1.1318,2.1319,2.1327h0.95501c0.33945-1.0018,1.1317-1.7943,2.1337-2.1335v-13.654h2.1893v13.654c1.0009,0.33978,1.7925,1.1318,2.132,2.1327h5.1091v2.1896h-5.11c-0.33935,1.0001-1.131,1.7919-2.1311,2.1316v15.446c1.0009,0.33968,1.7925,1.1318,2.132,2.1327h5.1091v2.1896h-5.11c-0.33935,1.0001-1.131,1.7918-2.1311,2.1316v15.446c1.0009,0.33968,1.7925,1.1317,2.132,2.1327h5.1091v2.1896h-5.11c-0.33935,1.0001-1.131,1.7918-2.1311,2.1314v9.0916h7.242v1.0463h-7.242-2.1893-5.2206-2.1894-5.2203-2.1894-7.2417v-1.0463h7.2417v-9.0913c-1.0005-0.33968-1.7916-1.1314-2.1314-2.1318h-5.1097v-2.1896h5.1089c0.33914-1.0012,1.1314-1.7936,2.1322-2.133v-15.445c-1.0005-0.33979-1.7916-1.1314-2.1314-2.1319h-5.1097v-2.1896h5.1089c0.33914-1.0012,1.1314-1.7935,2.1322-2.133v-15.445c-1.0005-0.33978-1.7916-1.1314-2.1314-2.1319h-5.1097v-2.1896h5.1089c0.33914-1.0012,1.1314-1.7935,2.1322-2.133v-14.457h2.1894v14.456c1.0014,0.33938,1.7943,1.1317,2.1334,2.1335h0.95471c0.33934-1.0015,1.131-1.7941,2.1322-2.1332v-17.465zm7.41,76.811,0-9.0907c-1.0012-0.33917-1.7935-1.1318-2.1329-2.1324h-0.95665c-0.33945,1.0001-1.131,1.7918-2.1311,2.1314v9.0916h5.2206zm-7.41,0,0-9.091c-1.0006-0.33938-1.7917-1.1318-2.1314-2.1321h-0.95644c-0.33965,1.0009-1.1314,1.7929-2.1325,2.1324v9.0907h5.2203zm5.2763-13.413c0.33945-1.0018,1.1317-1.7944,2.1337-2.1336v-15.444c-1.0012-0.33906-1.7935-1.1316-2.1329-2.1324h-0.95665c-0.33975,0.99979-1.1308,1.7918-2.1311,2.1316v15.446c1.0008,0.33968,1.7925,1.1317,2.1319,2.1327h0.95501zm-7.4085,0c0.33934-1.0015,1.131-1.7936,2.1322-2.1333v-15.445c-1.0006-0.33937-1.7917-1.1316-2.1314-2.1321h-0.95644c-0.33965,1.0009-1.1314,1.793-2.1325,2.1324v15.444c1.0014,0.33947,1.7943,1.1318,2.1334,2.1336h0.95471zm7.4085-21.9c0.33945-1.0018,1.1317-1.7944,2.1337-2.1335v-15.444c-1.0012-0.33907-1.7935-1.1317-2.1329-2.1324h-0.95665c-0.33975,0.9998-1.1308,1.7919-2.1311,2.1316v15.446c1.0008,0.33968,1.7925,1.1318,2.1319,2.1327h0.95501zm-7.4085,0c0.33934-1.0015,1.131-1.7935,2.1322-2.1333v-15.445c-1.0006-0.33947-1.7917-1.1318-2.1314-2.1322h-0.95644c-0.33965,1.001-1.1314,1.793-2.1325,2.1324v15.444c1.0014,0.33937,1.7943,1.1316,2.1334,2.1335h0.95471z"
       id="path3327" />
    <path
       fill="url(#linearGradient4229)"
       stroke-width="1.00035703"
       stroke-dasharray="none"
       stroke-miterlimit="4"
       stroke="#000"
       fill-rule="evenodd"
       d="m462.04,575.73,0-58.219c0-11.152-8.3519-20.733-19.139-22.077-10.787,1.344-19.138,10.925-19.138,22.077v58.219h7.4172v-56.714c0-8.3667,5.6426-16.9,13.266-18.863,7.623,1.9632,13.267,10.497,13.267,18.863v56.714h4.3279z"
       id="path3347" />
    <path
       fill="#df212c"
       stroke-width="1.16708326000000010"
       stroke-dasharray="none"
       stroke-miterlimit="10"
       stroke-linecap="butt"
       stroke="#000"
       fill-rule="evenodd"
       d="m444.07,341.2c1.3209,0.58853,2.2428,1.9133,2.2428,3.4526,0,2.0862-1.6915,3.7779-3.7776,3.7779-2.0854,0-3.777-1.6917-3.777-3.7779,0-1.5392,0.92213-2.8641,2.2428-3.4526v-24.525h28.948l-7.7318,7.7324,7.7314,7.7321h-25.878v9.0605z"
       stroke-linejoin="miter"
       id="path3147" />
    <path
       fill="url(#radialGradient4224)"
       stroke-width="1.00035703"
       stroke-dasharray="none"
       stroke-miterlimit="4"
       stroke="#000"
       fill-rule="evenodd"
       d="m262.55,571.44,8.918,0,0-18.404c-1.0021-0.33937-1.7949-1.1314-2.1337-2.1338h-6.7843v20.538zm56.061-50.335c1.0003,0.33968,1.7913,1.1314,2.1311,2.1312h5.7155v-23.286h-5.7147c-0.33904,1.0013-1.1314,1.7933-2.1319,2.133v19.022zm2.1319,4.3208c-0.33904,1.0012-1.1314,1.7932-2.1319,2.133v19.022c1.0003,0.33968,1.7913,1.1314,2.1311,2.1312h5.7155v-23.286h-5.7147zm-4.3213,2.1338c-1.002-0.33948-1.7949-1.1314-2.1336-2.1338h-4.7831c-0.33915,1.0012-1.1314,1.7932-2.132,2.133v19.022c1.0003,0.33978,1.7917,1.1314,2.1314,2.1316h4.7845c0.33965-1.001,1.1317-1.793,2.1328-2.1321v-19.02zm-2.1328-4.3234c0.33965-1.001,1.1317-1.793,2.1328-2.1322v-19.02c-1.002-0.33887-1.7943-1.1318-2.1336-2.1339h-4.7831c-0.33915,1.001-1.1314,1.793-2.132,2.1328v19.022c1.0003,0.33968,1.7914,1.1314,2.1311,2.1312h4.7848zm-9.1052,4.3234c-1.0021-0.33948-1.7949-1.1314-2.1337-2.1338h-4.7833c-0.33914,1.0012-1.1314,1.7932-2.132,2.133v19.022c1.0003,0.33978,1.7917,1.1314,2.1314,2.1316h4.7845c0.33965-1.0012,1.1317-1.7933,2.1331-2.1324v-19.02zm-2.1328-4.3234c0.33965-1.001,1.1316-1.793,2.1328-2.1322v-19.02c-1.0021-0.33917-1.7943-1.1318-2.1337-2.1336h-4.7833c-0.33914,1.001-1.1314,1.793-2.132,2.1328v19.022c1.0003,0.33968,1.7914,1.1314,2.1311,2.1312h4.7852zm-9.1055,4.3234c-1.002-0.33948-1.7949-1.1314-2.1337-2.1338h-4.7833c-0.33914,1.0012-1.1314,1.7932-2.132,2.133v19.022c1.0003,0.33978,1.7917,1.1314,2.1314,2.1316h4.7845c0.33966-1.0012,1.1317-1.7933,2.1331-2.1324v-19.02zm-2.1328-4.3234c0.33965-1.001,1.1316-1.793,2.1328-2.1322v-19.02c-1.002-0.33917-1.7943-1.1318-2.1337-2.1336h-4.7833c-0.33914,1.001-1.1314,1.793-2.132,2.1328v19.022c1.0003,0.33968,1.7914,1.1314,2.1311,2.1312h4.7852zm-9.1055,4.3234c-1.002-0.33948-1.7949-1.1314-2.1337-2.1338h-4.7836c-0.33914,1.0012-1.1314,1.7932-2.132,2.133v19.022c1.0003,0.33968,1.7914,1.1314,2.1311,2.1312h4.7852c0.33965-1.0012,1.1316-1.7933,2.1331-2.1324v-19.02zm-2.1328-4.3234c0.33965-1.001,1.1316-1.793,2.1328-2.1322v-19.02c-1.002-0.33917-1.7943-1.1318-2.1337-2.1336h-4.7836c-0.33914,1.0013-1.1314,1.7933-2.132,2.133v19.022c1.0003,0.33968,1.7914,1.1314,2.1311,2.1312h4.7855zm-9.1058,4.3234c-1.0021-0.33948-1.7949-1.1314-2.1337-2.1338h-6.7843v23.286h6.7852c0.33965-1.001,1.1316-1.793,2.1328-2.1321v-19.02zm-2.1328-4.3234c0.33965-1.001,1.1316-1.793,2.1328-2.1322v-19.02c-1.0021-0.33887-1.7943-1.1318-2.1337-2.1339h-6.7843v23.286h6.7852zm6.4541,27.665c-0.33914,1.0012-1.1314,1.7932-2.132,2.133v18.405h9.0493v-18.405c-1.002-0.33907-1.7943-1.1317-2.1337-2.1335h-4.7836zm11.239,0c-0.33914,1.0009-1.1314,1.7929-2.132,2.1327v18.406h9.049v-18.405c-1.002-0.33907-1.7943-1.1317-2.1337-2.1335h-4.7833zm11.238,0c-0.33914,1.0009-1.1314,1.7929-2.132,2.1327v18.406h9.049v-18.405c-1.0021-0.33907-1.7943-1.1317-2.1337-2.1335h-4.7833zm11.238,0c-0.33915,1.0009-1.1314,1.7929-2.132,2.1327v18.406h9.0487v-18.404c-1.002-0.33886-1.7943-1.1316-2.1336-2.1338h-4.7831zm11.238,0c-0.33904,1.0012-1.1314,1.7932-2.1319,2.133v18.405h7.8466v-20.538h-5.7147zm-47.085-55.272c1.0003,0.33967,1.7914,1.1314,2.1311,2.1312h4.7852c0.33965-1.0013,1.1316-1.7933,2.1331-2.1325v-19.286l-0.0923-0.0329c-2.3865,2.0354-4.6928,4.171-6.9107,6.3981,0.17084,0.40607,0.26584,0.85174,0.26584,1.3198,0,1.4983-0.96805,2.7715-2.3121,3.2278v8.3744zm-4.3221,2.1312c0.33965-1.001,1.1316-1.793,2.1328-2.1322v-8.3726l-0.0453-0.0159c-2.9822,3.333-5.7791,6.8454-8.3707,10.521h6.2832zm15.561-2.1316c1.0003,0.33968,1.7917,1.1314,2.1314,2.1316h4.7845c0.33966-1.0013,1.1317-1.7933,2.1331-2.1325v-26.798c-0.31776-0.10773-0.61414-0.26067-0.88202-0.45179-2.007,1.3506-3.9724,2.7654-5.8914,4.2406,0.0237,0.16159,0.0365,0.32613,0.0365,0.49445,0,1.4982-0.96805,2.7714-2.3121,3.2278v19.288zm11.238,0c1.0003,0.33968,1.7917,1.1314,2.1314,2.1316h4.7845c0.33965-1.0013,1.1317-1.7933,2.1331-2.1325v-33.188c-0.40288-0.13655-0.77145-0.3464-1.0906-0.61368-1.9302,1.0039-3.8312,2.0637-5.6997,3.1761,0.0344,0.19479,0.0535,0.39456,0.0535,0.59912,0,1.4983-0.96805,2.7715-2.3121,3.2278v26.8zm11.238,0c1.0003,0.33968,1.7917,1.1314,2.1314,2.1316h4.7845c0.33965-1.001,1.1317-1.793,2.1328-2.1322v-37.054c-0.78906-0.26729-1.4485-0.81529-1.8586-1.5259-1.6439,0.65024-3.2711,1.3395-4.8797,2.0657l0.002,0.0975c0,1.4983-0.96805,2.7715-2.3121,3.2278v33.19zm11.238,0.00031c1.0003,0.33967,1.7913,1.1314,2.1311,2.1312h5.7155v-44.653c-1.8783,0.50545-3.741,1.0599-5.5842,1.662,0.032,0.18766,0.0496,0.37959,0.0496,0.57641,0,1.4983-0.96795,2.7714-2.312,3.2278v37.056zm-44.953-14.828c0.20842,0.0707,0.40726,0.16098,0.59541,0.26892,2.1377-2.1407,4.3557-4.1978,6.6484-6.1663-0.32153-0.52011-0.50683-1.1337-0.50683-1.7903,0-1.4988,0.96713-2.7712,2.3124-3.227v-13.57c-3.1658,2.7044-6.1849,5.6101-9.0493,8.6638v15.821zm-3.9516,5.0845c-0.348-0.53457-0.55-1.173-0.55-1.8586,0-1.4988,0.96703-2.7711,2.3123-3.2268v-13.423c-3.1799,3.5715-6.1563,7.3182-8.918,11.165v16.179c2.2465-3.0624,4.6345-6.0107,7.1557-8.8352zm15.19-15.998c0.47425,0.16139,0.90197,0.42317,1.2566,0.76173,1.8361-1.4025,3.7141-2.7509,5.6302-4.0426-0.0978-0.31758-0.15007-0.65553-0.15007-1.0051,0-1.4988,0.96703-2.7711,2.3123-3.2268v-14.355c-3.1297,1.9629-6.1479,4.1349-9.049,6.478v15.39zm11.238-7.512c0.45084,0.15335,0.85921,0.39752,1.2032,0.71215,1.8407-1.0945,3.7135-2.1391,5.6148-3.1305-0.0533-0.23989-0.0813-0.48976-0.0813-0.74585,0-1.4988,0.96713-2.7711,2.3123-3.2268v-13.855c-3.1072,1.3167-6.1242,2.8482-9.049,4.5624v15.684zm11.238-6.3903c0.61272,0.20812,1.1469,0.58568,1.5473,1.077,1.72-0.77415,3.4619-1.5073,5.2223-2.1962,0.18154-1.2859,1.0802-2.3411,2.2791-2.7475v-13.681c-3.0907,0.72742-6.1083,1.6689-9.0487,2.8044v14.743zm11.238-3.8659c0.44706,0.15181,0.8531,0.39344,1.1951,0.70461,2.1911-0.72477,4.4094-1.3849,6.6515-1.9758v-13.967c-2.6632,0.20089-5.2795,0.56806-7.8466,1.0812v14.157zm-60.349,123.61,0-98.537c16.759-23.86,41.788-44.506,72.484-44.768v143.3h-72.484z"
       id="path3233" />
    <path
       fill="url(#radialGradient4219)"
       stroke-width="1.00035703"
       stroke-dasharray="none"
       stroke-miterlimit="4"
       stroke="#000"
       fill-rule="evenodd"
       d="m401.93,571.44-8.9179,0,0-18.404c1.002-0.33937,1.7948-1.1314,2.1336-2.1338h6.7843v20.538zm-56.061-50.335c-1.0003,0.33968-1.7914,1.1314-2.1312,2.1312h-5.7155v-23.286h5.7147c0.33914,1.0013,1.1314,1.7933,2.132,2.133v19.022zm-2.132,4.3208c0.33914,1.0012,1.1314,1.7932,2.132,2.133v19.022c-1.0003,0.33968-1.7914,1.1314-2.1312,2.1312h-5.7155v-23.286h5.7147zm4.3213,2.1338c1.002-0.33948,1.7949-1.1314,2.1337-2.1338h4.783c0.33914,1.0012,1.1314,1.7932,2.132,2.133v19.022c-1.0003,0.33978-1.7917,1.1314-2.1314,2.1316h-4.7845c-0.33966-1.001-1.1316-1.793-2.1328-2.1321v-19.02zm2.1328-4.3234c-0.33966-1.001-1.1316-1.793-2.1328-2.1322v-19.02c1.002-0.33887,1.7943-1.1318,2.1337-2.1339h4.783c0.33914,1.001,1.1314,1.793,2.132,2.1328v19.022c-1.0003,0.33968-1.7914,1.1314-2.1311,2.1312h-4.7848zm9.1052,4.3234c1.002-0.33948,1.7949-1.1314,2.1337-2.1338h4.7833c0.33914,1.0012,1.1314,1.7932,2.132,2.133v19.022c-1.0003,0.33978-1.7917,1.1314-2.1314,2.1316h-4.7846c-0.33965-1.0012-1.1316-1.7933-2.1331-2.1324v-19.02zm2.1328-4.3234c-0.33965-1.001-1.1316-1.793-2.1328-2.1322v-19.02c1.002-0.33917,1.7943-1.1318,2.1337-2.1336h4.7833c0.33914,1.001,1.1314,1.793,2.132,2.1328v19.022c-1.0003,0.33968-1.7914,1.1314-2.1311,2.1312h-4.7852zm9.1056,4.3234c1.002-0.33948,1.7948-1.1314,2.1336-2.1338h4.7833c0.33915,1.0012,1.1314,1.7932,2.132,2.133v19.022c-1.0003,0.33978-1.7916,1.1314-2.1314,2.1316h-4.7845c-0.33965-1.0012-1.1316-1.7933-2.133-2.1324v-19.02zm2.1328-4.3234c-0.33976-1.001-1.1317-1.793-2.1328-2.1322v-19.02c1.002-0.33917,1.7943-1.1318,2.1336-2.1336h4.7833c0.33915,1.001,1.1314,1.793,2.132,2.1328v19.022c-1.0003,0.33968-1.7914,1.1314-2.1311,2.1312h-4.785zm9.1055,4.3234c1.002-0.33948,1.7948-1.1314,2.1336-2.1338h4.7836c0.33914,1.0012,1.1314,1.7932,2.132,2.133v19.022c-1.0003,0.33968-1.7914,1.1314-2.1311,2.1312h-4.7852c-0.33965-1.0012-1.1316-1.7933-2.133-2.1324v-19.02zm2.1328-4.3234c-0.33975-1.001-1.1317-1.793-2.1328-2.1322v-19.02c1.002-0.33917,1.7943-1.1318,2.1336-2.1336h4.7836c0.33914,1.0013,1.1314,1.7933,2.132,2.133v19.022c-1.0003,0.33968-1.7914,1.1314-2.1311,2.1312h-4.7854zm9.1058,4.3234c1.002-0.33948,1.7948-1.1314,2.1336-2.1338h6.7843v23.286h-6.7851c-0.33976-1.001-1.1317-1.793-2.1328-2.1321v-19.02zm2.1328-4.3234c-0.33976-1.001-1.1317-1.793-2.1328-2.1322v-19.02c1.002-0.33887,1.7943-1.1318,2.1336-2.1339h6.7843v23.286h-6.7851zm-6.4542,27.665c0.33914,1.0012,1.1314,1.7932,2.132,2.133v18.405h-9.0492v-18.405c1.002-0.33907,1.7943-1.1317,2.1336-2.1335h4.7836zm-11.239,0c0.33915,1.0009,1.1314,1.7929,2.132,2.1327v18.406h-9.0489v-18.405c1.002-0.33907,1.7943-1.1317,2.1336-2.1335h4.7833zm-11.238,0c0.33914,1.0009,1.1314,1.7929,2.132,2.1327v18.406h-9.049v-18.405c1.002-0.33907,1.7943-1.1317,2.1337-2.1335h4.7833zm-11.238,0c0.33914,1.0009,1.1314,1.7929,2.132,2.1327v18.406h-9.0487v-18.404c1.002-0.33886,1.7943-1.1316,2.1337-2.1338h4.783zm-11.238,0c0.33914,1.0012,1.1314,1.7932,2.132,2.133v18.405h-7.8467v-20.538h5.7147zm47.085-55.272c-1.0003,0.33967-1.7914,1.1314-2.1311,2.1312h-4.7852c-0.33965-1.0013-1.1316-1.7933-2.133-2.1325v-19.286l0.0923-0.0329c2.3864,2.0354,4.6927,4.171,6.9106,6.3981-0.17084,0.40607-0.26573,0.85174-0.26573,1.3198,0,1.4983,0.96795,2.7715,2.312,3.2278v8.3744zm4.3222,2.1312c-0.33976-1.001-1.1317-1.793-2.1328-2.1322v-8.3726l0.0453-0.0159c2.9821,3.333,5.7791,6.8454,8.3707,10.521h-6.2832zm-15.561-2.1316c-1.0003,0.33968-1.7916,1.1314-2.1314,2.1316h-4.7845c-0.33965-1.0013-1.1316-1.7933-2.133-2.1325v-26.798c0.31766-0.10773,0.61414-0.26067,0.88191-0.45179,2.007,1.3506,3.9724,2.7654,5.8914,4.2406-0.0237,0.16159-0.0363,0.32613-0.0363,0.49445,0,1.4982,0.96794,2.7714,2.312,3.2278v19.288zm-11.238,0c-1.0003,0.33968-1.7917,1.1314-2.1314,2.1316h-4.7846c-0.33965-1.0013-1.1316-1.7933-2.1331-2.1325v-33.188c0.40298-0.13655,0.77144-0.3464,1.0907-0.61368,1.9302,1.0039,3.8312,2.0637,5.6996,3.1761-0.0343,0.19479-0.0533,0.39456-0.0533,0.59912,0,1.4983,0.96794,2.7715,2.312,3.2278v26.8zm-11.238,0c-1.0003,0.33968-1.7917,1.1314-2.1314,2.1316h-4.7845c-0.33966-1.001-1.1316-1.793-2.1328-2.1322v-37.054c0.78905-0.26729,1.4485-0.81529,1.8586-1.5259,1.6439,0.65024,3.2711,1.3395,4.8797,2.0657l-0.002,0.0975c0,1.4983,0.96805,2.7715,2.3121,3.2278v33.19zm-11.238,0.00031c-1.0003,0.33967-1.7914,1.1314-2.1312,2.1312h-5.7155v-44.653c1.8783,0.50545,3.741,1.0599,5.5843,1.662-0.0321,0.18766-0.0497,0.37959-0.0497,0.57641,0,1.4983,0.96804,2.7714,2.3121,3.2278v37.056zm44.953-14.828c-0.20841,0.0707-0.40725,0.16098-0.59541,0.26892-2.1377-2.1407-4.3556-4.1978-6.6484-6.1663,0.32153-0.52011,0.50683-1.1337,0.50683-1.7903,0-1.4988-0.96713-2.7712-2.3123-3.227v-13.57c3.1657,2.7044,6.1848,5.6101,9.0492,8.6638v15.821zm3.9516,5.0845c0.348-0.53457,0.5501-1.173,0.5501-1.8586,0-1.4988-0.96713-2.7711-2.3123-3.2268v-13.423c3.1798,3.5715,6.1562,7.3182,8.9179,11.165v16.179c-2.2465-3.0624-4.6345-6.0107-7.1557-8.8352zm-15.19-15.998c-0.47415,0.16139-0.90187,0.42317-1.2566,0.76173-1.8361-1.4025-3.7141-2.7509-5.6301-4.0426,0.0978-0.31758,0.15008-0.65553,0.15008-1.0051,0-1.4988-0.96714-2.7711-2.3123-3.2268v-14.355c3.1296,1.9629,6.1478,4.1349,9.0489,6.478v15.39zm-11.238-7.512c-0.45083,0.15335-0.85921,0.39752-1.2032,0.71215-1.8407-1.0945-3.7135-2.1391-5.6148-3.1305,0.0534-0.23989,0.0815-0.48976,0.0815-0.74585,0-1.4988-0.96713-2.7711-2.3124-3.2268v-13.855c3.1072,1.3167,6.1243,2.8482,9.049,4.5624v15.684zm-11.238-6.3903c-0.61271,0.20812-1.1469,0.58568-1.5473,1.077-1.72-0.77415-3.4618-1.5073-5.2224-2.1962-0.18153-1.2859-1.0802-2.3411-2.2791-2.7475v-13.681c3.0907,0.72742,6.1083,1.6689,9.0487,2.8044v14.743zm-11.238-3.8659c-0.44706,0.15181-0.8532,0.39344-1.1952,0.70461-2.191-0.72477-4.4093-1.3849-6.6515-1.9758v-13.967c2.6632,0.20089,5.2795,0.56806,7.8467,1.0812v14.157zm60.349,123.61,0-98.537c-16.759-23.86-41.788-44.506-72.484-44.768v143.3h72.484z"
       id="path3253" />
    <path
       d="m419.79,591.58-1.8442,4.9182c-3.0768,7.199-6.5153,13.716-10.182,19.672-9.1736,14.9-21.433,29.837-35.607,40.281-14.137,10.416-31.504,14.865-49.012,12.833-15.898-1.8446-30.787-8.4794-43.083-18.506-5.8143-4.7401-10.932-10.261-15.864-15.895-8.0366-9.177-16.057-18.354-24.47-26.677l45.819-20.908c3.7259,9.0915,7.769,18.12,12.901,26.518,1.9112,3.1271,3.9692,6.1606,6.1944,9.0446,8.3754,10.856,20.215,16.727,33.96,17.647,23.48,1.5715,53.265-13.005,67.537-42.42,1.2064-2.4885,0.78091-4.6193,1.2652-7.2013l12.386,0.69301z"
       fill="url(#radialGradient4214)"
       fill-rule="evenodd"
       id="path3053" />
    <path
       d="m419.79,591.58-1.8442,4.9182c-1.4638,3.4252-3.0093,6.6948-4.6226,9.8244-3.3571-0.78139-7.0345-2.6531-8.9263-4.8628,0.60284-1.1023,1.1853-2.2239,1.742-3.3715,1.2064-2.4885,0.78091-4.6193,1.2652-7.2013l12.386,0.69301z"
       fill="url(#linearGradient4209)"
       fill-rule="evenodd"
       id="path3075" />
    <path
       fill="url(#linearGradient4204)"
       stroke-width="1.00035703"
       stroke-dasharray="none"
       stroke-miterlimit="4"
       stroke="#000"
       fill-rule="evenodd"
       d="m336.74,597.71c-2.6474-0.96721-4.1674-1.863-6.9565-0.33276l-6.4206-8.6118c0.72522-0.39975,1.3946-0.92709,2.1764-1.1993,3.6609-1.274,6.9438,0.002,10.299,1.3975,5.885,2.4479,6.5121,3.0857,12.382,0.21821,3.2647-1.5946,6.4653-3.1755,10.196-2.1251,0.79629,0.22422,1.3881,0.60177,2.1363,0.95703l-5.7811,8.5473c-2.8762-1.3595-4.3715-0.44455-6.924,0.75155-4.2382,1.9864-6.7332,1.9959-11.108,0.39742"
       id="path3373" />
    <path
       fill="url(#linearGradient4199)"
       stroke-width="1.00035703"
       stroke-dasharray="none"
       stroke-miterlimit="4"
       stroke="#000"
       fill-rule="evenodd"
       d="m319.93,615.46c16.287-4.5427,28.859-13.541,39.285-28.141,2.4957,1.0142,4.6175,2.4516,6.5696,4.0811-10.476,17.945-24.86,28.823-42.881,34.029l-0.36877-5.3239z"
       id="path3399" />
    <path
       fill="url(#linearGradient4194)"
       stroke-width="1.00035703"
       stroke-dasharray="none"
       stroke-miterlimit="4"
       stroke="#000"
       fill-rule="evenodd"
       d="m368.53,615.14c-17.786-1.7545-32.128-12.197-44.073-27.035-2.4301,1.1628-4.4613,2.7255-6.3116,4.47,12.008,17.983,28.153,28.404,47.447,32.158l0.71909-5.1925z"
       id="path3425" />
    <path
       fill="#FFF"
       stroke-width="0.86586159"
       stroke-dasharray="none"
       stroke-miterlimit="10"
       stroke-linecap="butt"
       stroke="#000"
       fill-rule="evenodd"
       d="m373.46,613.2c4.8538,0,8.7898,3.9364,8.7898,8.7905,0,4.8543-3.936,8.7905-8.7898,8.7905s-8.7898-3.9362-8.7898-8.7905c0-4.8542,3.936-8.7905,8.7898-8.7905zm0,2.6185c3.4081,0,6.1716,2.7637,6.1716,6.1721,0,3.4085-2.7634,6.172-6.1716,6.172s-6.1716-2.7636-6.1716-6.172,2.7633-6.1721,6.1716-6.1721z"
       stroke-linejoin="miter"
       id="path3429" />
    <path
       fill="#FFF"
       stroke-width="0.86586159"
       stroke-dasharray="none"
       stroke-miterlimit="10"
       stroke-linecap="butt"
       stroke="#000"
       fill-rule="evenodd"
       d="m315.68,613.02c-4.8538,0-8.7898,3.9364-8.7898,8.7905,0,4.8542,3.936,8.7905,8.7898,8.7905s8.7898-3.9364,8.7898-8.7905c0-4.8542-3.936-8.7905-8.7898-8.7905zm0,2.6185c-3.4079,0-6.1716,2.7639-6.1716,6.1721,0,3.4081,2.7636,6.1721,6.1716,6.1721,3.4078,0,6.1716-2.764,6.1716-6.1721,0-3.4082-2.7637-6.1721-6.1716-6.1721z"
       stroke-linejoin="miter"
       id="path3431" />
    <path
       d="m291.17,658.49c-3.8884-2.2738-7.6042-4.8545-11.108-7.7116-4.0431-3.2962-7.7486-6.9708-11.29-10.797,12.39-0.58803,31.286-10.771,33.158-20.825,0.87591,1.2578,1.7787,2.495,2.712,3.7046,3.814,4.9439,8.3474,8.8525,13.451,11.732,0.19273,9.39-15.706,21.604-26.924,23.897"
       fill="url(#linearGradient4189)"
       fill-rule="evenodd"
       id="path3453" />
    <path
       d="m394.62,634.68c-3.7452,4.5751-7.7626,8.9536-12.012,12.983-0.5781-5.3229-5.5856-13.202-10.245-14.833,4.4059-2.2805,8.6972-5.0565,12.752-8.3178,3.6834,0.82435,8.1508,6.0327,9.5046,10.168"
       fill="url(#linearGradient4184)"
       fill-rule="evenodd"
       id="path3475" />
    <path
       d="m257.01,626.71c-5.663-6.392-11.379-12.658-17.287-18.503l45.819-20.908c2.9091,7.0982,6.012,14.158,9.6753,20.909-2.504,11.075-26.395,21.04-38.207,18.502"
       fill="url(#linearGradient4179)"
       fill-rule="evenodd"
       id="path3497" />
    <path
       d="m257.01,626.71c11.812,2.5376,35.7-7.4256,38.207-18.5,2.0422,3.7632,4.261,7.436,6.7084,10.95-1.8757,10.053-20.769,20.234-33.158,20.822-3.9107-4.234-7.8478-8.8532-11.757-13.272"
       fill="url(#linearGradient4174)"
       fill-rule="evenodd"
       id="path3517" />
    <path
       fill="none"
       stroke-width="1.00035715"
       stroke-dasharray="none"
       stroke-miterlimit="10"
       stroke-linecap="butt"
       stroke="#000"
       d="m279.39,650.23c11.77-1.3398,29.274-12.486,29.9-22.179m8.8002,6.5457c0.19274,9.39-15.706,21.604-26.924,23.897m-22.398-18.509c12.39-0.58802,31.286-10.771,33.158-20.825m-6.7083-10.949c-2.504,11.075-26.395,21.04-38.207,18.502m162.78-35.13-1.8442,4.9182c-3.0768,7.199-6.5153,13.716-10.182,19.672-9.1736,14.9-21.433,29.837-35.607,40.281-14.137,10.416-31.504,14.865-49.012,12.833-15.898-1.8446-30.787-8.4794-43.083-18.506-5.8143-4.7401-10.932-10.261-15.864-15.895-8.0366-9.177-16.057-18.354-24.47-26.677m45.819-20.908c3.7259,9.0915,7.769,18.12,12.901,26.518,1.9112,3.1271,3.9692,6.1606,6.1944,9.0446,8.3754,10.856,20.215,16.727,33.96,17.647,23.48,1.5715,53.265-13.005,67.537-42.42,1.2064-2.4886,0.78091-4.6193,1.2652-7.2013m5.9191,15.436c-3.3571-0.78138-7.0345-2.6531-8.9263-4.8628m-19.3,23.05c3.6834,0.82436,8.1508,6.0327,9.5046,10.168m-12.012,12.983c-0.57-4.87-5.58-12.75-10.24-14.83m16.438,8.5486c-0.67044-4.563-5.7764-11.368-10-12.295"
       stroke-linejoin="miter"
       id="path3519" />
    <path
       fill="#FFF"
       stroke-width="1.00035715"
       stroke-dasharray="none"
       stroke-miterlimit="10"
       stroke-linecap="butt"
       stroke="#000"
       fill-rule="evenodd"
       d="m413.6,587.88c3.4338,0,6.2183,1.5493,6.2183,3.4601,0,1.9107-2.7845,3.46-6.2183,3.46-3.4339,0-6.2184-1.5493-6.2184-3.46,0-1.9108,2.7845-3.4601,6.2184-3.4601z"
       stroke-linejoin="miter"
       id="path3521" />
    <path
       fill="#e6e6e6"
       stroke-width="1.00035715"
       stroke-dasharray="none"
       stroke-miterlimit="10"
       stroke-linecap="butt"
       stroke="#000"
       fill-rule="evenodd"
       d="m413.6,589.66c1.9876,0,3.6,0.75419,3.6,1.6833,0,0.92903-1.6124,1.6832-3.6,1.6832-1.9877,0-3.6001-0.7542-3.6001-1.6832,0-0.92913,1.6124-1.6833,3.6001-1.6833z"
       stroke-linejoin="miter"
       id="path3523" />
    <path
       fill="url(#linearGradient4169)"
       stroke-width="1.00035703"
       stroke-dasharray="none"
       stroke-miterlimit="4"
       stroke="#000"
       fill-rule="evenodd"
       d="m258.8,589.25c12.723-5.6652,24.67-6.5984,26.68-2.0848,2.0093,4.5134-6.6783,12.768-19.402,18.433-12.723,5.6653-24.67,6.5987-26.679,2.0854-2.0096-4.5137,6.6781-12.768,19.401-18.433"
       id="path3541" />
    <path
       fill="url(#linearGradient4164)"
       stroke-width="1.00035703"
       stroke-dasharray="none"
       stroke-miterlimit="4"
       stroke="#000"
       fill-rule="evenodd"
       d="m260.46,591.07c10.525-4.6868,20.214-5.8952,21.637-2.6981,1.4232,3.1963-5.958,9.5886-16.483,14.275-10.525,4.6865-20.214,5.8947-21.637,2.6984-1.423-3.1969,5.958-9.5894,16.483-14.276"
       id="path3561" />
  </g>
</svg>
