<?xml version="1.0" encoding="UTF-8" standalone="no"?>
<!-- Creator: CorelDRAW -->
<svg id="svg2" xmlns:rdf="http://www.w3.org/1999/02/22-rdf-syntax-ns#" xmlns="http://www.w3.org/2000/svg" fill-rule="evenodd" xml:space="preserve" height="362" width="300" version="1.1" xmlns:cc="http://creativecommons.org/ns#" xmlns:xlink="http://www.w3.org/1999/xlink" viewBox="0 0 84.666667 102.16445" xmlns:dc="http://purl.org/dc/elements/1.1/"><metadata id="metadata154"><rdf:RDF><cc:Work rdf:about=""><dc:format>image/svg+xml</dc:format><dc:type rdf:resource="http://purl.org/dc/dcmitype/StillImage"/><dc:title/></cc:Work></rdf:RDF></metadata>
 <defs id="defs4"><style id="style6" type="text/css">
    .fil0 {fill:black}
    .fil4 {fill:#FFF500}
    .fil6 {fill:white}
    .fil2 {fill:black;fill-rule:nonzero}
    .fil5 {fill:#00923F;fill-rule:nonzero}
    .fil1 {fill:#0093DD;fill-rule:nonzero}
    .fil3 {fill:#FFF500;fill-rule:nonzero}
  </style><style id="style3151" type="text/css">
    .str0 {stroke:#FF6600;stroke-width:0.7056}
    .fil1 {fill:none}
    .fil0 {fill:#A90000}
  </style><linearGradient id="linearGradient4338" gradientUnits="userSpaceOnUse" x2="0.77" gradientTransform="matrix(19.99049,0,0,42.12737,287.456,411.277)" x1="0.23"><stop id="stop3126" stop-color="#fff500" offset="0"/><stop id="stop3128" stop-color="#ffd900" offset="0.5"/><stop id="stop3130" stop-color="#fff500" offset="1"/></linearGradient><linearGradient id="linearGradient4340" gradientUnits="userSpaceOnUse" x2="0.95" gradientTransform="matrix(-7.62803,0,0,-57.14929,256.9881,416.7349)" x1="0.05"><stop id="stop3146" stop-color="#ffe600" offset="0"/><stop id="stop3148" stop-color="#fff500" offset="0.5"/><stop id="stop3150" stop-color="#ffcf00" offset="1"/></linearGradient><linearGradient id="linearGradient4342" gradientUnits="userSpaceOnUse" x2="0.95" gradientTransform="matrix(-7.7142,0,0,-57.08296,249.042,416.7343)" x1="0.05"><stop id="stop3166" stop-color="#ffe600" offset="0"/><stop id="stop3168" stop-color="#fff500" offset="0.5"/><stop id="stop3170" stop-color="#ffcf00" offset="1"/></linearGradient><linearGradient id="linearGradient4344" gradientUnits="userSpaceOnUse" x2="0.95" gradientTransform="matrix(-7.7142,0,0,-58.47647,241.0104,416.7425)" x1="0.05"><stop id="stop3186" stop-color="#ffe600" offset="0"/><stop id="stop3188" stop-color="#fff500" offset="0.5"/><stop id="stop3190" stop-color="#ffcf00" offset="1"/></linearGradient><linearGradient id="linearGradient4346" gradientUnits="userSpaceOnUse" x2="0.95" gradientTransform="matrix(-7.7142,0,0,-58.87446,232.9784,416.7448)" x1="0.05"><stop id="stop3206" stop-color="#ffe600" offset="0"/><stop id="stop3208" stop-color="#fff500" offset="0.5"/><stop id="stop3210" stop-color="#ffcf00" offset="1"/></linearGradient><linearGradient id="linearGradient4348" gradientUnits="userSpaceOnUse" x2="0.95" gradientTransform="matrix(-7.7142,0,0,-49.18734,224.9464,416.6855)" x1="0.05"><stop id="stop3226" stop-color="#ffe600" offset="0"/><stop id="stop3228" stop-color="#fff500" offset="0.5"/><stop id="stop3230" stop-color="#ffcf00" offset="1"/></linearGradient><linearGradient id="linearGradient4350" gradientUnits="userSpaceOnUse" x2="0.95" gradientTransform="matrix(-4.76391,0,0,-32.35805,216.8195,416.5807)" x1="0.05"><stop id="stop3246" stop-color="#ffe600" offset="0"/><stop id="stop3248" stop-color="#fff500" offset="1"/></linearGradient><linearGradient id="linearGradient4352" gradientUnits="userSpaceOnUse" x2="0.95" gradientTransform="matrix(-7.62746,0,0,-57.14929,346.161,416.7349)" x1="0.05"><stop id="stop3264" stop-color="#ffe600" offset="0"/><stop id="stop3266" stop-color="#fff500" offset="0.5"/><stop id="stop3268" stop-color="#ffcf00" offset="1"/></linearGradient><linearGradient id="linearGradient4354" gradientUnits="userSpaceOnUse" x2="0.95" gradientTransform="matrix(-7.71307,0,0,-49.18734,378.2914,416.6853)" x1="0.05"><stop id="stop3284" stop-color="#ffe600" offset="0"/><stop id="stop3286" stop-color="#fff500" offset="0.5"/><stop id="stop3288" stop-color="#ffcf00" offset="1"/></linearGradient><linearGradient id="linearGradient4356" gradientUnits="userSpaceOnUse" x2="0.95" gradientTransform="matrix(-7.71307,0,0,-58.87559,370.2594,416.7456)" x1="0.05"><stop id="stop3304" stop-color="#ffe600" offset="0"/><stop id="stop3306" stop-color="#fff500" offset="0.5"/><stop id="stop3308" stop-color="#ffcf00" offset="1"/></linearGradient><linearGradient id="linearGradient4358" gradientUnits="userSpaceOnUse" x2="0.95" gradientTransform="matrix(-7.71307,0,0,-58.47761,362.2275,416.7434)" x1="0.05"><stop id="stop3324" stop-color="#ffe600" offset="0"/><stop id="stop3326" stop-color="#fff500" offset="0.5"/><stop id="stop3328" stop-color="#ffcf00" offset="1"/></linearGradient><linearGradient id="linearGradient4360" gradientUnits="userSpaceOnUse" x2="0.95" gradientTransform="matrix(-7.71307,0,0,-57.08353,354.1958,416.7346)" x1="0.05"><stop id="stop3344" stop-color="#ffe600" offset="0"/><stop id="stop3346" stop-color="#fff500" offset="0.5"/><stop id="stop3348" stop-color="#ffcf00" offset="1"/></linearGradient><linearGradient id="linearGradient4362" gradientUnits="userSpaceOnUse" x2="0.77" gradientTransform="matrix(-5.69083,0,0,-32.35748,383.22,416.5809)" x1="0.23"><stop id="stop3364" stop-color="#fff500" offset="0"/><stop id="stop3366" stop-color="#ffcf00" offset="1"/></linearGradient><linearGradient id="linearGradient4364" gradientUnits="userSpaceOnUse" x2="0.65" gradientTransform="matrix(0,20.90665,-61.37802,0,328.1839,469.9358)" x1="0.35"><stop id="stop3382" stop-color="#fff500" offset="0"/><stop id="stop3384" stop-color="#ffcf00" offset="1"/></linearGradient><linearGradient id="linearGradient4366" gradientUnits="userSpaceOnUse" x2="0.89" gradientTransform="matrix(0,5.07685,-29.01997,0,312.9007,489.3202)" x1="0.11"><stop id="stop3400" stop-color="#ffe600" offset="0"/><stop id="stop3402" stop-color="#fff500" offset="0.5"/><stop id="stop3404" stop-color="#ffcf00" offset="1"/></linearGradient><linearGradient id="linearGradient4368" gradientUnits="userSpaceOnUse" x2="0.89" gradientTransform="matrix(0,5.22482,-29.01883,0,312.8998,483.6821)" x1="0.11"><stop id="stop3420" stop-color="#ffe600" offset="0"/><stop id="stop3422" stop-color="#fff500" offset="0.5"/><stop id="stop3424" stop-color="#ffcf00" offset="1"/></linearGradient><linearGradient id="linearGradient4370" gradientUnits="userSpaceOnUse" x2="0.65" gradientTransform="matrix(0,21.33241,-33.65745,0,314.3883,498.2374)" x1="0.35"><stop id="stop3442" stop-color="#fff500" offset="0"/><stop id="stop3444" stop-color="#ffcf00" offset="1"/></linearGradient><linearGradient id="linearGradient4372" gradientUnits="userSpaceOnUse" x2="0.65" gradientTransform="matrix(0,21.47698,-99.33789,0,347.0751,455.669)" x1="0.35"><stop id="stop3460" stop-color="#fff500" offset="0"/><stop id="stop3462" stop-color="#ffcf00" offset="1"/></linearGradient><linearGradient id="linearGradient4374" gradientUnits="userSpaceOnUse" x2="0.89" gradientTransform="matrix(0,5.22539,-87.65065,0,343.7371,427.3532)" x1="0.11"><stop id="stop3478" stop-color="#ffe600" offset="0"/><stop id="stop3480" stop-color="#fff500" offset="0.5"/><stop id="stop3482" stop-color="#ffcf00" offset="1"/></linearGradient><linearGradient id="linearGradient4376" gradientUnits="userSpaceOnUse" x2="0.89" gradientTransform="matrix(0,5.21405,-87.65065,0,343.7371,449.888)" x1="0.11"><stop id="stop3498" stop-color="#ffe600" offset="0"/><stop id="stop3500" stop-color="#fff500" offset="0.5"/><stop id="stop3502" stop-color="#ffcf00" offset="1"/></linearGradient><linearGradient id="linearGradient4378" gradientUnits="userSpaceOnUse" x2="0.89" gradientTransform="matrix(0,5.22539,-87.65065,0,343.7371,444.2539)" x1="0.11"><stop id="stop3518" stop-color="#ffe600" offset="0"/><stop id="stop3520" stop-color="#fff500" offset="0.5"/><stop id="stop3522" stop-color="#ffcf00" offset="1"/></linearGradient><linearGradient id="linearGradient4380" gradientUnits="userSpaceOnUse" x2="0.89" gradientTransform="matrix(0,5.22539,-87.65065,0,343.7371,438.6203)" x1="0.11"><stop id="stop3538" stop-color="#ffe600" offset="0"/><stop id="stop3540" stop-color="#fff500" offset="0.5"/><stop id="stop3542" stop-color="#ffcf00" offset="1"/></linearGradient><linearGradient id="linearGradient4382" gradientUnits="userSpaceOnUse" x2="0.89" gradientTransform="matrix(0,5.22539,-87.65065,0,343.7371,432.9867)" x1="0.11"><stop id="stop3558" stop-color="#ffe600" offset="0"/><stop id="stop3560" stop-color="#fff500" offset="0.5"/><stop id="stop3562" stop-color="#ffcf00" offset="1"/></linearGradient><linearGradient id="linearGradient4384" gradientUnits="userSpaceOnUse" x2="0.89" gradientTransform="matrix(0,5.22539,-87.65065,0,343.7371,421.7196)" x1="0.11"><stop id="stop3578" stop-color="#ffe600" offset="0"/><stop id="stop3580" stop-color="#fff500" offset="0.5"/><stop id="stop3582" stop-color="#ffcf00" offset="1"/></linearGradient><linearGradient id="linearGradient4386" gradientUnits="userSpaceOnUse" x2="0.89" gradientTransform="matrix(0,5.22425,-87.65291,0,343.7382,387.9193)" x1="0.11"><stop id="stop3598" stop-color="#ffe600" offset="0"/><stop id="stop3600" stop-color="#fff500" offset="0.5"/><stop id="stop3602" stop-color="#ffcf00" offset="1"/></linearGradient><linearGradient id="linearGradient4388" gradientUnits="userSpaceOnUse" x2="0.89" gradientTransform="matrix(0,5.22425,-87.65291,0,343.7382,393.5529)" x1="0.11"><stop id="stop3618" stop-color="#ffe600" offset="0"/><stop id="stop3620" stop-color="#fff500" offset="0.5"/><stop id="stop3622" stop-color="#ffcf00" offset="1"/></linearGradient><linearGradient id="linearGradient4390" gradientUnits="userSpaceOnUse" x2="0.89" gradientTransform="matrix(0,5.22425,-87.65291,0,343.7382,410.4536)" x1="0.11"><stop id="stop3638" stop-color="#ffe600" offset="0"/><stop id="stop3640" stop-color="#fff500" offset="0.5"/><stop id="stop3642" stop-color="#ffcf00" offset="1"/></linearGradient><linearGradient id="linearGradient4392" gradientUnits="userSpaceOnUse" x2="0.89" gradientTransform="matrix(0,5.22425,-87.65291,0,343.7382,416.0871)" x1="0.11"><stop id="stop3658" stop-color="#ffe600" offset="0"/><stop id="stop3660" stop-color="#fff500" offset="0.5"/><stop id="stop3662" stop-color="#ffcf00" offset="1"/></linearGradient><linearGradient id="linearGradient4394" gradientUnits="userSpaceOnUse" x2="0.89" gradientTransform="matrix(0,5.22425,-87.65291,0,343.7382,404.82)" x1="0.11"><stop id="stop3678" stop-color="#ffe600" offset="0"/><stop id="stop3680" stop-color="#fff500" offset="0.5"/><stop id="stop3682" stop-color="#ffcf00" offset="1"/></linearGradient><linearGradient id="linearGradient4396" gradientUnits="userSpaceOnUse" x2="0.89" gradientTransform="matrix(0,5.22425,-87.65291,0,343.7382,399.1864)" x1="0.11"><stop id="stop3698" stop-color="#ffe600" offset="0"/><stop id="stop3700" stop-color="#fff500" offset="0.5"/><stop id="stop3702" stop-color="#ffcf00" offset="1"/></linearGradient><linearGradient id="linearGradient4398" gradientUnits="userSpaceOnUse" x2="0.89" gradientTransform="matrix(0,4.38917,-82.1503,0,340.7539,354.9529)" x1="0.11"><stop id="stop3718" stop-color="#ffe600" offset="0"/><stop id="stop3720" stop-color="#fff500" offset="0.5"/><stop id="stop3722" stop-color="#ffcf00" offset="1"/></linearGradient><linearGradient id="linearGradient4400" gradientUnits="userSpaceOnUse" x2="0.89" gradientTransform="matrix(0,5.22425,-87.65291,0,343.7382,359.7514)" x1="0.11"><stop id="stop3738" stop-color="#ffe600" offset="0"/><stop id="stop3740" stop-color="#fff500" offset="0.5"/><stop id="stop3742" stop-color="#ffcf00" offset="1"/></linearGradient><linearGradient id="linearGradient4402" gradientUnits="userSpaceOnUse" x2="0.89" gradientTransform="matrix(0,5.22425,-87.65291,0,343.7382,365.385)" x1="0.11"><stop id="stop3758" stop-color="#ffe600" offset="0"/><stop id="stop3760" stop-color="#fff500" offset="0.5"/><stop id="stop3762" stop-color="#ffcf00" offset="1"/></linearGradient><linearGradient id="linearGradient4404" gradientUnits="userSpaceOnUse" x2="0.89" gradientTransform="matrix(0,5.22425,-87.65291,0,343.7382,371.0186)" x1="0.11"><stop id="stop3778" stop-color="#ffe600" offset="0"/><stop id="stop3780" stop-color="#fff500" offset="0.5"/><stop id="stop3782" stop-color="#ffcf00" offset="1"/></linearGradient><linearGradient id="linearGradient4406" gradientUnits="userSpaceOnUse" x2="0.89" gradientTransform="matrix(0,5.22425,-87.65291,0,343.7382,376.6521)" x1="0.11"><stop id="stop3798" stop-color="#ffe600" offset="0"/><stop id="stop3800" stop-color="#fff500" offset="0.5"/><stop id="stop3802" stop-color="#ffcf00" offset="1"/></linearGradient><linearGradient id="linearGradient4408" gradientUnits="userSpaceOnUse" x2="0.89" gradientTransform="matrix(0,5.22425,-87.65291,0,343.7382,382.2857)" x1="0.11"><stop id="stop3818" stop-color="#ffe600" offset="0"/><stop id="stop3820" stop-color="#fff500" offset="0.5"/><stop id="stop3822" stop-color="#ffcf00" offset="1"/></linearGradient></defs>
 <path id="path3155" d="m62.583,48.832c0.8283,0,1.5,0.6717,1.5,1.5v1.4998c0,0.8283-0.6717,1.5-1.5,1.5h-1.5v-4.4998h1.5zm0,5.9998c1.6566,0,3-1.3434,3-3v-1.4998c0-1.6566-1.3434-3-3-3h-3v7.4998h3zm-6-7.4998,1.5,0,0,7.4998-1.5,0,0-7.4998zm-3,0,1.5,0,0,7.4998-1.5,0-3-4.7086,0,4.7086-1.5,0,0-7.4998,1.5,0,3,4.7086,0-4.7086zm-22.5,0.0001,4.5,0,0,1.5-3,0,0,1.4999,3,0,0,1.5-3,0,0,1.4999,3,0,0,1.5-4.5,0,0-7.4998zm-6-0.0002,1.5,0,0,6,3,0,0,1.5-4.5,0,0-7.5zm15.75,6,1.4996,0c1.2424,0,2.25-1.0076,2.25-2.25s-1.0263-2.2457-2.25-2.25h-1.4996v1.5h1.4996c0.4141,0,0.75,0.3359,0.75,0.75s-0.3359,0.75-0.75,0.75h-1.4996v1.5zm1.4996-7.5c2.899,0,5.25,2.351,5.25,5.25s-2.351,5.25-5.25,5.25-5.25-2.351-5.25-5.25,2.351-5.25,5.25-5.25zm0,1.5c2.0707,0,3.75,1.6793,3.75,3.75s-1.6793,3.75-3.75,3.75-3.75-1.6793-3.75-3.75,1.6793-3.75,3.75-3.75z" class="fil0" fill="#a90000"/>
<g id="g3102" transform="matrix(0.48659286,0,0,-0.48612746,-102.49509,256.22048)"><path id="path3104" fill-rule="evenodd" fill="#000" d="m210.64,527.06,0-124.26c7.2501-47.488,39.466-68.952,87-85.897,47.533,16.946,79.749,38.409,87,85.897v124.26h-174z"/><path id="path3106" fill-rule="nonzero" fill="#0094de" d="m212.06,525.65,0-122.74c3.5835-23.333,13.285-40.272,27.923-53.455,14.645-13.189,34.264-22.671,57.659-31.044,23.395,8.3727,43.014,17.855,57.659,31.044,14.638,13.182,24.339,30.122,27.923,53.455v122.74h-171.16z"/><path id="path3108" fill-rule="nonzero" fill="#000" d="m316.96,353.71,0,28.389-4.7231,5.4122-29.199,0-4.7231-5.4122,0-28.389-21.236,0.0003-0.0796,0.0615-0.001,0.001c-0.9224,0.726-1.4777,1.8545-1.4777,3.0374,0,1.0689,0.4533,2.0942,1.2215,2.8173-0.7682,0.7231-1.2215,1.7473-1.2215,2.8162,0,1.069,0.4533,2.0931,1.2215,2.8163-0.7682,0.7231-1.2215,1.7484-1.2215,2.8173,0,1.069,0.4533,2.0942,1.2215,2.8174-0.7682,0.7231-1.2215,1.7472-1.2215,2.8162,0,1.0689,0.4533,2.0942,1.2215,2.8173-0.7682,0.7232-1.2215,1.7473-1.2215,2.8163,0,1.0689,0.4533,2.0931,1.2215,2.8162-0.7682,0.7231-1.2215,1.7484-1.2215,2.8173,0,1.069,0.4533,2.0931,1.2215,2.8163-0.7682,0.7231-1.2215,1.7484-1.2215,2.8173s0.4533,2.0942,1.2215,2.8174c-0.7682,0.7231-1.2215,1.7472-1.2215,2.8162,0,1.0689,0.4533,2.0931,1.2215,2.8162-0.7682,0.7231-1.2215,1.7484-1.2215,2.8174,0,1.0689,0.4533,2.0942,1.2215,2.8173-0.7682,0.7231-1.2215,1.7473-1.2215,2.8162,0,1.069,0.4533,2.0943,1.2215,2.8174-0.7682,0.7231-1.2215,1.7473-1.2215,2.8162s0.4533,2.0931,1.2215,2.8162c-0.7682,0.7231-1.2215,1.7484-1.2215,2.8174,0,1.0692,0.4536,2.0936,1.222,2.8168-0.7679,0.7234-1.2208,1.7478-1.2208,2.8168,0,1.0689,0.4532,2.0942,1.2214,2.8173-0.7682,0.7231-1.2214,1.7473-1.2214,2.8162,0,1.069,0.4532,2.0931,1.2214,2.8162-0.7682,0.7232-1.2214,1.7485-1.2214,2.8174s0.4532,2.0942,1.2214,2.8174c-0.7682,0.7231-1.2214,1.7472-1.2214,2.8162,0,1.0689,0.4532,2.0942,1.2214,2.8173-0.7682,0.7232-1.2214,1.7473-1.2214,2.8163,0,1.0689,0.4532,2.0931,1.2214,2.8162-0.7682,0.7231-1.2214,1.7484-1.2214,2.8173,0,0.9309,0.3447,1.8289,0.9408,2.5226h-9.9525l37.877,28.604c-0.6826,0.7135-1.0707,1.6767-1.0707,2.6691,0.0009,1.0752,0.4451,2.0843,1.2232,2.8134-0.7745,0.7237-1.2235,1.7529-1.2235,2.8196,0.0009,1.1511,0.514,2.2343,1.3944,2.9665v2.6977h-5.3955l18.323,15.144,18.323-15.144h-5.3955v-2.6966c0.8739-0.7271,1.3944-1.8241,1.3944-2.9713-0.0009-1.072-0.4448-2.0877-1.2221-2.8154,0.7731-0.7282,1.2221-1.7469,1.2221-2.8176-0.0009-0.9984-0.3856-1.9502-1.071-2.6651l37.877-28.605h-9.9524c0.5961-0.6937,0.9408-1.5917,0.9408-2.5226,0-1.0689-0.4532-2.0942-1.2214-2.8173,0.7682-0.7231,1.2214-1.7473,1.2214-2.8162,0-1.069-0.4532-2.0931-1.2214-2.8163,0.7682-0.7231,1.2214-1.7484,1.2214-2.8173,0-1.069-0.4532-2.0931-1.2214-2.8162,0.7682-0.7232,1.2214-1.7485,1.2214-2.8174s-0.4532-2.0942-1.2214-2.8174c0.7682-0.7231,1.2214-1.7472,1.2214-2.8162,0-1.0689-0.4532-2.0931-1.2214-2.8162,0.7682-0.7231,1.2214-1.7484,1.2214-2.8173,0-1.069-0.4529-2.0934-1.2209-2.8168,0.7685-0.7232,1.2221-1.7476,1.2221-2.8168,0-1.069-0.4533-2.0943-1.2215-2.8174,0.7682-0.7231,1.2215-1.7473,1.2215-2.8162s-0.4533-2.0931-1.2215-2.8162c0.7682-0.7231,1.2215-1.7484,1.2215-2.8174,0-1.0689-0.4533-2.0931-1.2215-2.8162,0.7682-0.7231,1.2215-1.7484,1.2215-2.8173,0-1.069-0.4533-2.0943-1.2215-2.8174,0.7682-0.7231,1.2215-1.7473,1.2215-2.8162,0-1.069-0.4533-2.0931-1.2215-2.8162,0.7682-0.7232,1.2215-1.7485,1.2215-2.8174s-0.4533-2.0942-1.2215-2.8173c0.7682-0.7232,1.2215-1.7473,1.2215-2.8163,0-1.0689-0.4533-2.0942-1.2215-2.8173,0.7682-0.7231,1.2215-1.7473,1.2215-2.8162,0-1.069-0.4533-2.0931-1.2215-2.8163,0.7682-0.7231,1.2215-1.7484,1.2215-2.8173,0-1.069-0.4533-2.0931-1.2215-2.8162,0.7682-0.7232,1.2215-1.7484,1.2215-2.8174,0-1.0689-0.4533-2.0942-1.2215-2.8173,0.7682-0.7232,1.2215-1.7473,1.2215-2.8163,0-1.0689-0.4533-2.0931-1.2215-2.8162,0.7682-0.7231,1.2215-1.7484,1.2215-2.8173,0-1.1829-0.5553-2.3114-1.4777-3.0374l-0.001-0.001-0.0796-0.0615-21.236-0.0003zm-24.761,143.96,0-2.7088,10.878,0,0,2.7088-10.878,0zm-11.752-42.571-0.0003-20.398c0-9.4923,7.6983-17.191,17.191-17.191,9.4924,0,17.191,7.6984,17.191,17.191l-0.0003,20.398h-34.381zm23.555-55.758,0,5.2711-3.2839,5.4292-6.1611,0-3.2845-5.4292,0-5.2711,12.73,0z"/><path id="path3110" fill-rule="nonzero" fill="#000" d="m342,339.29-88.725,0c-4.7968,3.1408-9.2387,6.5106-13.297,10.166-14.638,13.183-24.34,30.122-27.923,53.455v13.374c0.3282,0.3288,0.7322,0.7294,0.8804,0.8598l0.1874-0.1721v0.0003c1.6597-1.4638,2.9347-3.3491,3.8265-5.3657,0.9612,2.1727,2.289,3.9574,4.0124,5.5378,1.734-1.5296,3.0833-3.4274,4.0201-5.537,0.961,2.1725,2.2887,3.9569,4.0119,5.537,1.734-1.5296,3.0832-3.4274,4.0201-5.537,0.9609,2.1725,2.2887,3.9569,4.0119,5.537,1.7339-1.5296,3.0832-3.4274,4.0201-5.537,0.9609,2.1725,2.2887,3.9569,4.0118,5.537,1.7306-1.5265,3.0892-3.4288,4.0198-5.537,0.9616,2.1728,2.2887,3.9566,4.0119,5.5367,1.6546-1.4596,2.9447-3.2236,3.8741-5.2189,0.1446-0.3101,0.2801-0.6233,0.4054-0.938h0.0003l0.002-0.004,0.0209-0.0525v-0.0527-51.372c5.459-0.6897,10.871-2.0854,15.758-4.4164,7.549,3.6009,16.197,4.9519,24.492,4.9519,8.2027-0.0009,16.995-1.3794,24.483-4.9516,4.9195,2.3465,10.308,3.7383,15.758,4.4226v51.366,0.0527l0.021,0.0525,0.002,0.004h0.0003c0.1253,0.3147,0.2608,0.6279,0.4054,0.938,0.9294,1.9953,2.2195,3.7593,3.8741,5.2189,1.7232-1.5801,3.0503-3.3639,4.0118-5.5367,0.9307,2.1082,2.2893,4.0105,4.0199,5.537,1.7231-1.5801,3.0509-3.3645,4.0118-5.537,0.9369,2.1096,2.2862,4.0074,4.0201,5.537,1.7232-1.5801,3.051-3.3645,4.0119-5.537,0.9368,2.1096,2.2861,4.0074,4.0201,5.537,1.7232-1.5801,3.0509-3.3645,4.0119-5.537,0.9368,2.1096,2.2861,4.0074,4.0201,5.537,1.7234-1.5804,3.0512-3.3651,4.0124-5.5378,0.8918,2.0166,2.1668,3.9019,3.8265,5.3657v-0.0003l0.1874,0.1721c0.1802-0.1588,0.5751-0.5599,0.8804-0.8703v-13.363c-3.5838-23.333-13.285-40.272-27.923-53.455-4.0584-3.655-8.4992-7.0248-13.296-10.166"/><path id="path3112" fill-rule="nonzero" fill="#000" d="m297.39,424.36c1.5386-0.0003,3.0727,0.3901,4.4036,1.1543,2.1688,1.2467,3.1266,3.0571,3.761,5.3541,0.9419-3.2434,0.6282-6.2873-2.0344-8.7923-1.5696-1.4762-3.7372-2.3904-6.1328-2.3915-2.3975,0.0005-4.5666,0.915-6.1364,2.3927-1.8562,1.7473-2.812,4.305-2.4832,6.8026v0.002l0.0219,0.1539v0.003c0.0932,0.6165,0.2758,1.22,0.4334,1.8224l0.2795-1.0248h0.0002c0.4989-1.8017,1.7643-3.3035,3.3591-4.2548,1.2923-0.771,2.8488-1.2214,4.5281-1.222zm1.3096,7.8993,2.6274,0.0003-1.3133-2.2751,1.3133-2.2754-2.6274,0.0006-1.3133-2.2751-1.3133,2.2751-2.6274-0.0006,1.3132,2.2754-1.3132,2.2751,2.6274-0.0003,1.3133,2.2748,1.3133-2.2748zm-5.6682,3.1295c-1.201-1.0522-1.8921-2.4095-2.1824-3.9631h-4.0433c0.3138,2.5234,1.3076,4.7698,3.1368,6.5664,0.6514,0.6398,1.385,1.1968,2.1832,1.6526l-0.0002,0.0006c1.0564,0.6032,2.2172,1.0213,3.4154,1.2322v5.4853l-2.9817-2.9817h-5.993l10.82,10.821,10.821-10.821h-5.9942l-2.9812,2.9812v-5.4851c1.9832-0.3475,3.7783-1.2455,5.2203-2.5308,2.0594-1.8345,3.1799-4.2241,3.515-6.9207l-4.0431-0.0003c-0.265,1.4082-0.8918,2.6688-1.8433,3.6419-2.4228,2.4764-6.4302,2.6167-9.0491,0.3215"/><g id="g3114"><g id="g3116"><g id="g3122"><path id="path3132" fill="url(#linearGradient4338)" d="m302.45,435.51c0.951-0.9462,1.6384-2.1583,1.942-3.5141h2.9325c-0.3558,2.2638-1.4967,4.3586-3.2018,5.8952-1.5516,1.3992-3.4004,2.1974-5.4541,2.5084v7.3369l3.7828-3.7828h4.3909l-9.4521,9.4521-9.4519-9.4521h4.3901l3.7834,3.7834v-7.3386c-1.3045-0.1897-2.5504-0.5814-3.7012-1.2391h-0.001c-0.771-0.4402-1.4782-0.9802-2.1041-1.6015-1.4828-1.4721-2.5095-3.403-2.8486-5.5619h2.9322c0.3384,1.5146,1.1738,2.8899,2.3573,3.8957,2.846,2.4199,7.0801,2.2297,9.7038-0.3816zm-5.0561-11.71c-1.8326-0.0005-3.5306,0.5066-4.9306,1.3714-1.3609,0.8408-2.4942,2.0622-3.1448,3.5286-0.2625-2.2862,0.6299-4.6103,2.3242-6.2048,1.4697-1.3833,3.5016-2.2399,5.7486-2.2402,2.2451,0.0009,4.2758,0.8569,5.745,2.2391,1.4655,1.3788,2.3732,3.2825,2.3734,5.3821h-0.001v0.002c0,0.2784-0.0167,0.5516-0.0473,0.8207-0.6937-1.5614-1.9287-2.8412-3.4036-3.6823-1.4108-0.8047-3.0345-1.2149-4.6638-1.2166zm-0.004,9.6115-0.9876-1.7113-1.9743,0.0005,0.9875-1.7104-0.9875-1.7104,1.9743,0.0003,0.9876-1.711,0.9876,1.711,1.9743-0.0003-0.9876,1.7104,0.9876,1.7104-1.9743-0.0005-0.9876,1.7113z"/></g></g></g><g id="g3134"><g id="g3136"><g id="g3142"><path id="path3152" fill="url(#linearGradient4340)" d="m255.53,413.4c-0.6778,1.0967-1.4894,2.1104-2.4359,2.9801-1.6545-1.5217-2.8995-3.4835-3.7329-5.5613v-50.785c2.4744-0.0243,4.8864-0.1774,7.2142-0.4464,0.0414,0.003,0.0833,0.003,0.1247-0.002l0.0431,0.0405c-0.7682,0.7231-1.2215,1.7473-1.2215,2.8162,0,1.069,0.4533,2.0931,1.2215,2.8163-0.7682,0.7231-1.2215,1.7484-1.2215,2.8173,0,1.069,0.4533,2.0942,1.2215,2.8174-0.7682,0.7231-1.2215,1.7472-1.2215,2.8162,0,1.0689,0.4533,2.0942,1.2215,2.8173-0.7682,0.7232-1.2215,1.7473-1.2215,2.8163,0,1.0689,0.4533,2.0931,1.2215,2.8162-0.7682,0.7231-1.2215,1.7484-1.2215,2.8173,0,1.069,0.4533,2.0931,1.2215,2.8163-0.7682,0.7231-1.2215,1.7484-1.2215,2.8173s0.4533,2.0942,1.2215,2.8174c-0.7682,0.7231-1.2215,1.7472-1.2215,2.8162,0,1.0689,0.4533,2.0931,1.2215,2.8162-0.7682,0.7231-1.2215,1.7484-1.2215,2.8174,0,1.0689,0.4533,2.0942,1.2215,2.8173-0.7682,0.7231-1.2215,1.7473-1.2215,2.8162,0,1.069,0.4533,2.0943,1.2215,2.8174-0.7682,0.7231-1.2215,1.7473-1.2215,2.8162,0,0.0856,0.003,0.1704,0.008,0.2551"/></g></g></g><g id="g3154"><g id="g3156"><g id="g3162"><path id="path3172" fill="url(#linearGradient4342)" d="m248.79,360.04,0,50.788c-0.8348,2.0778-2.0781,4.0354-3.7321,5.5551-1.6546-1.5217-2.8996-3.4835-3.733-5.5613v-51.167c2.3661,0.2526,4.8164,0.385,7.3259,0.3853v0.001h0.008,0.008v-0.001h0.1225z"/></g></g></g><g id="g3174"><g id="g3176"><g id="g3182"><path id="path3192" fill="url(#linearGradient4344)" d="m240.76,359.59,0,51.236c-0.8348,2.0778-2.0781,4.0354-3.7321,5.5551-1.6546-1.5217-2.8996-3.4835-3.7329-5.5613v-52.552c2.3604,0.5749,4.8597,1.0214,7.465,1.3224"/></g></g></g><g id="g3194"><g id="g3196"><g id="g3202"><path id="path3212" fill="url(#linearGradient4346)" d="m225.26,366.61c1.9828-3.0727,4.1525-5.9794,6.5027-8.7375,0.318,0.0873,0.6389,0.1718,0.9623,0.2543v52.7c-0.8348,2.0778-2.0781,4.0354-3.7321,5.5551-1.6545-1.5217-2.8995-3.4835-3.7329-5.5613v-44.211z"/></g></g></g><g id="g3214"><g id="g3216"><g id="g3222"><path id="path3232" fill="url(#linearGradient4348)" d="m217.23,382.66c2.0478-5.4703,4.5445-10.505,7.4651-15.163v43.326c-0.8348,2.0778-2.0781,4.0354-3.7321,5.5551-1.6546-1.5217-2.8996-3.4835-3.733-5.5613v-28.157z"/></g></g></g><g id="g3234"><g id="g3236"><g id="g3242"><path id="path3250" fill="url(#linearGradient4350)" d="m216.66,384.22,0,26.602c-0.8348,2.0778-2.0781,4.0354-3.7321,5.5551-0.1806-0.1658-0.5825-0.5769-0.8773-0.8875v-12.586c1.0352-6.7402,2.5818-12.947,4.6094-18.683"/></g></g></g><g id="g3252"><g id="g3254"><g id="g3260"><path id="path3270" fill="url(#linearGradient4352)" d="m339.75,413.4c0.6778,1.0967,1.4894,2.1104,2.4359,2.9801,1.6545-1.5217,2.8995-3.4835,3.7329-5.5613v-50.785c-2.4735-0.0241-4.8864-0.1771-7.2145-0.4464-0.0411,0.003-0.083,0.003-0.1244-0.002l-0.0431,0.0405c0.7682,0.7231,1.2215,1.7473,1.2215,2.8162,0,1.069-0.4533,2.0931-1.2215,2.8163,0.7682,0.7231,1.2215,1.7484,1.2215,2.8173,0,1.069-0.4533,2.0942-1.2215,2.8174,0.7682,0.7231,1.2215,1.7472,1.2215,2.8162,0,1.0689-0.4533,2.0942-1.2215,2.8173,0.7682,0.7232,1.2215,1.7473,1.2215,2.8163,0,1.0689-0.4533,2.0931-1.2215,2.8162,0.7682,0.7231,1.2215,1.7484,1.2215,2.8173,0,1.069-0.4533,2.0931-1.2215,2.8163,0.7682,0.7231,1.2215,1.7484,1.2215,2.8173s-0.4533,2.0942-1.2215,2.8174c0.7682,0.7231,1.2215,1.7472,1.2215,2.8162,0,1.0689-0.4533,2.0931-1.2215,2.8162,0.7682,0.7231,1.2215,1.7484,1.2215,2.8174,0,1.0689-0.4533,2.0942-1.2215,2.8173,0.7682,0.7231,1.2215,1.7473,1.2215,2.8162,0,1.069-0.4533,2.0943-1.2215,2.8174,0.7682,0.7231,1.2215,1.7473,1.2215,2.8162,0,0.0856-0.003,0.1704-0.008,0.2551"/></g></g></g><g id="g3272"><g id="g3274"><g id="g3280"><path id="path3290" fill="url(#linearGradient4354)" d="m370.58,367.5c2.9206,4.6588,5.4173,9.6939,7.4651,15.164v28.156c-0.8334,2.0778-2.0784,4.0396-3.733,5.5613-1.654-1.5197-2.8973-3.4773-3.7321-5.5551v-43.327z"/></g></g></g><g id="g3292"><g id="g3294"><g id="g3300"><path id="path3310" fill="url(#linearGradient4356)" d="m363.51,357.87c2.3502,2.7582,4.5202,5.6648,6.5027,8.7376v44.211c-0.8334,2.0778-2.0784,4.0396-3.7329,5.5613-1.6541-1.5197-2.8973-3.4773-3.7321-5.5551v-52.7c0.3237-0.0825,0.6443-0.1678,0.9623-0.2549"/></g></g></g><g id="g3312"><g id="g3314"><g id="g3320"><path id="path3330" fill="url(#linearGradient4358)" d="m361.98,358.27,0,52.553c-0.8334,2.0778-2.0783,4.0396-3.7329,5.5613-1.654-1.5197-2.8973-3.4773-3.7321-5.5551v-51.236c2.6053-0.3007,5.1046-0.7475,7.465-1.3223"/></g></g></g><g id="g3332"><g id="g3334"><g id="g3340"><path id="path3350" fill="url(#linearGradient4360)" d="m353.95,359.65,0,51.167c-0.8333,2.0778-2.0783,4.0396-3.7329,5.5613-1.654-1.5197-2.8973-3.4773-3.7321-5.5551v-50.788h0.131v0.001h0.004v-0.001c2.511-0.0003,4.9629-0.1327,7.3301-0.3855"/></g></g></g><g id="g3352"><g id="g3354"><g id="g3360"><path id="path3368" fill="url(#linearGradient4362)" d="m378.61,384.22,0,26.601c0.8348,2.0778,2.0781,4.0354,3.7321,5.5551,0.1837-0.1687,0.585-0.595,0.8773-0.9085v-12.565c-1.0352-6.7399-2.5818-12.946-4.6094-18.682"/></g></g></g><g id="g3370"><g id="g3372"><g id="g3378"><path id="path3386" fill="url(#linearGradient4364)" d="m322.8,469.94,5.3881,0-5.3881,4.0691,0-4.0691zm-7.107,0,6.5401,0,0,4.4971-6.5401,4.9391,0-9.4362zm-7.1081,0,6.5412,0,0,9.8643-4.5998,3.4738-1.9414,0,0-13.338zm-7.1071,0,6.5424,0,0,13.338-6.5424,0,0-13.338zm-7.1067,0,6.5421,0,0,13.338-6.5421,0,0-13.338zm-7.107,0,6.5423,0,0,13.338-6.5423,0,0-13.338zm-7.1059,0,6.5412,0,0,13.338-1.9417,0-4.5995-3.4736,0-9.8645zm-7.1068,0,6.5399,0,0,9.4365-6.5399-4.9391,0-4.4974zm-5.9555,0,5.3886,0,0,4.0694-5.3886-4.0694z"/></g></g></g><g id="g3388"><g id="g3390"><g id="g3396"><path id="path3406" fill="url(#linearGradient4366)" d="m311.39,492c0,0.9156-0.381,1.7623-1.029,2.3922h-25.456c-0.652-0.6185-1.0284-1.484-1.0287-2.3885,0-0.9794,0.4442-1.9151,1.19-2.5347h25.137c0.747,0.6224,1.1869,1.5536,1.1872,2.531"/></g></g></g><g id="g3408"><g id="g3410"><g id="g3416"><path id="path3426" fill="url(#linearGradient4368)" d="m311.39,486.37c0,0.9814-0.4431,1.9137-1.1923,2.535h-25.129c-0.7514-0.6239-1.1919-1.5491-1.1922-2.5313,0-0.9794,0.4442-1.9151,1.19-2.5347h25.137c0.747,0.6224,1.1869,1.5536,1.1872,2.531"/></g></g></g><path id="path3428" fill-rule="nonzero" fill="#ffde00" d="m303.64,497.67,0-2.7088,6.3569,0,0,2.7088-6.3569,0zm-18.368,0,0-2.7088,6.3569,0,0,2.7088-6.3569,0z"/><g id="g3430"><g id="g3432"><g id="g3438"><path id="path3446" fill="url(#linearGradient4370)" d="m314.39,498.24-2.253,1.8621,0-1.8621,2.253,0zm-2.8199,2.3307-6.5404,5.4057,0-7.7364,6.5404,0,0,2.3307zm-7.1073,5.8742-6.5396,5.4048,0-13.61,6.5396,0,0,8.2049zm-7.1065,5.4051-6.5401-5.4051,0-8.2049,6.5401,0,0,13.61zm-13.647-11.279,0-2.331,6.5401,0,0,7.7364-6.5401-5.4054zm-0.5669-2.331,0,1.8624-2.2533-1.8624,2.2533,0z"/></g></g></g><g id="g3448"><g id="g3450"><g id="g3456"><path id="path3464" fill="url(#linearGradient4372)" d="m340.56,460.59,0-4.9178,6.512,0-6.512,4.9178zm-7.107,5.3674,0-10.285,6.5401,0,0,5.3461-6.5401,4.9391zm-4.5247,3.4169-2.5823,0,0-13.702,6.5401,0,0,10.713-3.9578,2.9888zm-3.1493,0-6.5398,0,0-13.702,6.5398,0,0,13.702zm-7.1067,0-6.5401,0,0-13.702,6.5401,0,0,13.702zm-7.107,0-6.5401,0,0-13.702,6.5401,0,0,13.702zm-7.107,0-6.5401,0,0-13.702,6.5401,0,0,13.702zm-7.1071,0-6.5398,0,0-13.702,6.5398,0,0,13.702zm-7.1067,0-6.5401,0,0-13.702,6.5401,0,0,13.702zm-7.107,0-6.5401,0,0-13.702,6.5401,0,0,13.702zm-7.1071,0-6.5398,0,0-13.702,6.5398,0,0,13.702zm-7.1067,0-2.5826,0-3.9575-2.9885,0-10.714,6.5401,0,0,13.702zm-7.107-13.702,0,10.285-6.5404-4.9391,0-5.3461,6.5404,0zm-7.1073,0,0,4.9178-6.5121-4.9178,6.5121,0z"/></g></g></g><g id="g3466"><g id="g3468"><g id="g3474"><path id="path3484" fill="url(#linearGradient4374)" d="m280.01,432.58-22.73,0c-0.7472-0.6191-1.1917-1.5549-1.1917-2.5334s0.4445-1.9142,1.1917-2.5333h24.122c-0.7016,1.5812-1.1792,3.2828-1.3921,5.0667zm33.868-5.0667,24.122,0c0.7472,0.6191,1.1917,1.5548,1.1917,2.5333s-0.4445,1.9143-1.1917,2.5334h-22.73c-0.2135-1.7833-0.6905-3.4855-1.3921-5.0667"/></g></g></g><g id="g3486"><g id="g3488"><g id="g3494"><path id="path3504" fill="url(#linearGradient4376)" d="m315.4,450.05,22.602,0c0.7472,0.6191,1.1917,1.5548,1.1917,2.5333,0,0.9729-0.4397,1.9035-1.179,2.5226h-22.615v-5.0559zm-58.13,5.0559c-0.7393-0.6191-1.179-1.5497-1.179-2.5226,0-0.9785,0.4445-1.9142,1.1917-2.5333h22.602v5.0559h-22.615z"/></g></g></g><g id="g3506"><g id="g3508"><g id="g3514"><path id="path3524" fill="url(#linearGradient4378)" d="m315.4,444.41,22.602,0c0.7472,0.6191,1.1917,1.5548,1.1917,2.5334,0,0.9785-0.4445,1.9142-1.1917,2.5333h-22.602v-5.0667zm-35.515,5.0667-22.602,0c-0.7472-0.6191-1.1917-1.5548-1.1917-2.5333,0-0.9786,0.4445-1.9143,1.1917-2.5334h22.602v5.0667z"/></g></g></g><g id="g3526"><g id="g3528"><g id="g3534"><path id="path3544" fill="url(#linearGradient4380)" d="m315.4,438.78,22.602,0c0.7472,0.619,1.1917,1.5548,1.1917,2.5333s-0.4445,1.9142-1.1917,2.5333h-22.602v-5.0666zm-35.515,5.0666-22.602,0c-0.7472-0.6191-1.1917-1.5548-1.1917-2.5333s0.4445-1.9143,1.1917-2.5333h22.602v5.0666z"/></g></g></g><g id="g3546"><g id="g3548"><g id="g3554"><path id="path3564" fill="url(#linearGradient4382)" d="m315.33,433.15,22.672,0c0.7472,0.6191,1.1917,1.5548,1.1917,2.5333s-0.4445,1.9142-1.1917,2.5333h-22.602v-3.5076c0-0.5255-0.0249-1.0451-0.0694-1.559zm-35.446,5.0666-22.602,0c-0.7472-0.6191-1.1917-1.5548-1.1917-2.5333s0.4445-1.9142,1.1917-2.5333h22.672c-0.0445,0.5139-0.0694,1.0335-0.0694,1.559v3.5076z"/></g></g></g><g id="g3566"><g id="g3568"><g id="g3574"><path id="path3584" fill="url(#linearGradient4384)" d="m309.92,421.88,28.081,0c0.7472,0.6191,1.1917,1.5548,1.1917,2.5334,0,0.9785-0.4445,1.9142-1.1917,2.5333h-24.384c-0.9269-1.9043-2.1838-3.6176-3.6969-5.0667zm-28.254,5.0667-24.384,0c-0.7472-0.6191-1.1917-1.5548-1.1917-2.5333,0-0.9786,0.4445-1.9143,1.1917-2.5334h28.082c-1.5131,1.4491-2.7703,3.1621-3.6972,5.0667"/></g></g></g><g id="g3586"><g id="g3588"><g id="g3594"><path id="path3604" fill="url(#linearGradient4386)" d="m257.28,393.14c-0.7472-0.6191-1.1917-1.5548-1.1917-2.5333s0.4445-1.9142,1.1917-2.5333h80.722c0.7472,0.6191,1.1917,1.5548,1.1917,2.5333s-0.4445,1.9142-1.1917,2.5333h-80.722z"/></g></g></g><g id="g3606"><g id="g3608"><g id="g3614"><path id="path3624" fill="url(#linearGradient4388)" d="m257.28,398.78c-0.7472-0.6191-1.1917-1.5548-1.1917-2.5333s0.4445-1.9143,1.1917-2.5333h80.722c0.7472,0.619,1.1917,1.5548,1.1917,2.5333s-0.4445,1.9142-1.1917,2.5333h-80.722z"/></g></g></g><g id="g3626"><g id="g3628"><g id="g3634"><path id="path3644" fill="url(#linearGradient4390)" d="m257.28,415.68c-0.7472-0.6191-1.1917-1.5548-1.1917-2.5333s0.4445-1.9142,1.1917-2.5333h80.722c0.7472,0.6191,1.1917,1.5548,1.1917,2.5333s-0.4445,1.9142-1.1917,2.5333h-80.722z"/></g></g></g><g id="g3646"><g id="g3648"><g id="g3654"><path id="path3664" fill="url(#linearGradient4392)" d="m338,416.24c0.7472,0.619,1.1917,1.5548,1.1917,2.5333s-0.4445,1.9142-1.1917,2.5333h-28.701c-3.1195-2.7184-7.198-4.3645-11.66-4.3645-4.4617,0-8.5388,1.6461-11.658,4.3645h-28.702c-0.7472-0.6191-1.1917-1.5548-1.1917-2.5333s0.4445-1.9143,1.1917-2.5333h80.722z"/></g></g></g><g id="g3666"><g id="g3668"><g id="g3674"><path id="path3684" fill="url(#linearGradient4394)" d="m290.83,404.98,3.0651,5.0667-36.619,0c-0.7472-0.6191-1.1917-1.5549-1.1917-2.5334s0.4445-1.9142,1.1917-2.5333h33.554zm10.549,5.0667,3.0645-5.0667,33.554,0c0.7472,0.6191,1.1917,1.5548,1.1917,2.5333s-0.4445,1.9143-1.1917,2.5334h-36.618z"/></g></g></g><g id="g3686"><g id="g3688"><g id="g3694"><path id="path3704" fill="url(#linearGradient4396)" d="m290.71,399.34,0,5.0667-33.429,0c-0.7472-0.6191-1.1917-1.5548-1.1917-2.5333,0-0.9786,0.4445-1.9143,1.1917-2.5334h33.429zm13.863,5.0667,0-5.0667,33.429,0c0.7472,0.6191,1.1917,1.5548,1.1917,2.5334,0,0.9785-0.4445,1.9142-1.1917,2.5333h-33.429z"/></g></g></g><g id="g3706"><g id="g3708"><g id="g3714"><path id="path3724" fill="url(#linearGradient4398)" d="m317.52,359.34,0-2.3842c1.5639-0.5415,3.0991-1.1634,4.5961-1.8718,4.4861,2.1969,9.3858,3.5343,14.37,4.256h-18.967zm-39.774-2.3378,0,2.3378-19.147,0c5.0267-0.7348,9.9595-2.0909,14.544-4.2574,1.4922,0.7322,3.0314,1.3694,4.6035,1.9196"/></g></g></g><g id="g3726"><g id="g3728"><g id="g3734"><path id="path3744" fill="url(#linearGradient4400)" d="m317.52,364.98,0-5.0667,20.474,0c0.7472,0.6191,1.1917,1.5548,1.1917,2.5333,0,0.9786-0.4445,1.9143-1.1917,2.5334h-20.474zm-39.774-5.0667,0,5.0667-20.474,0c-0.7472-0.6191-1.1917-1.5548-1.1917-2.5334,0-0.9785,0.4445-1.9142,1.1917-2.5333h20.474z"/></g></g></g><g id="g3746"><g id="g3748"><g id="g3754"><path id="path3764" fill="url(#linearGradient4402)" d="m317.52,370.61,0-5.0666,20.474,0c0.7472,0.6191,1.1917,1.5548,1.1917,2.5333s-0.4445,1.9142-1.1917,2.5333h-20.474zm-39.774-5.0666,0,5.0666-20.474,0c-0.7472-0.6191-1.1917-1.5548-1.1917-2.5333s0.4445-1.9142,1.1917-2.5333h20.474z"/></g></g></g><g id="g3766"><g id="g3768"><g id="g3774"><path id="path3784" fill="url(#linearGradient4404)" d="m317.52,376.24,0-5.0666,20.474,0c0.7472,0.619,1.1917,1.5548,1.1917,2.5333s-0.4445,1.9142-1.1917,2.5333h-20.474zm-39.774-5.0666,0,5.0666-20.474,0c-0.7472-0.6191-1.1917-1.5548-1.1917-2.5333s0.4445-1.9143,1.1917-2.5333h20.474z"/></g></g></g><g id="g3786"><g id="g3788"><g id="g3794"><path id="path3804" fill="url(#linearGradient4406)" d="m317.52,381.88,0-5.0667,20.474,0c0.7472,0.6191,1.1917,1.5548,1.1917,2.5334,0,0.9785-0.4445,1.9142-1.1917,2.5333h-20.474zm-39.774-5.0667,0,5.0667-20.474,0c-0.7472-0.6191-1.1917-1.5548-1.1917-2.5333,0-0.9786,0.4445-1.9143,1.1917-2.5334h20.474z"/></g></g></g><g id="g3806"><g id="g3808"><g id="g3814"><path id="path3824" fill="url(#linearGradient4408)" d="m313.03,387.51,4.4932-5.0667,20.474,0c0.7472,0.6191,1.1917,1.5548,1.1917,2.5333s-0.4445,1.9143-1.1917,2.5334h-24.967zm-35.281-5.0667,4.4932,5.0667-24.967,0c-0.7472-0.6191-1.1917-1.5549-1.1917-2.5334s0.4445-1.9142,1.1917-2.5333h20.474z"/></g></g></g><path id="path3826" fill-rule="evenodd" fill="#000" d="m326.57,362.18c2.0976,0,3.7984-1.7008,3.7984-3.7982,0-2.0976-1.7008-3.7987-3.7984-3.7987-2.0974,0-3.7985,1.7011-3.7985,3.7987,0,2.0974,1.7011,3.7982,3.7985,3.7982"/><path id="path3828" fill-rule="evenodd" fill="#fff500" d="m326.57,361.61c1.7847,0,3.2318-1.4471,3.2318-3.2312,0-0.1502-0.0111-0.2973-0.0309-0.4419-0.5928-0.163-1.1753-0.3351-1.7476-0.5145-1.0485-0.3288-2.0631-0.6851-3.0385-1.0667-0.2313-0.0904-0.46-0.1814-0.6862-0.2744-0.5925,0.586-0.9598,1.3986-0.9598,2.2975,0,1.7841,1.447,3.2312,3.2312,3.2312"/><path id="path3830" fill-rule="evenodd" fill="#000" d="m326.57,367.81c2.0976,0,3.7984-1.7007,3.7984-3.7981,0-2.0976-1.7008-3.7987-3.7984-3.7987-2.0974,0-3.7985,1.7011-3.7985,3.7987,0,2.0974,1.7011,3.7981,3.7985,3.7981"/><path id="path3832" fill-rule="evenodd" fill="#fff500" d="m326.57,367.24c1.7847,0,3.2318-1.4471,3.2318-3.2312,0-1.7847-1.4471-3.2318-3.2318-3.2318-1.7842,0-3.2312,1.4471-3.2312,3.2318,0,1.7841,1.447,3.2312,3.2312,3.2312"/><path id="path3834" fill-rule="evenodd" fill="#000" d="m326.57,373.44c2.0976,0,3.7984-1.7007,3.7984-3.7981,0-2.0976-1.7008-3.7987-3.7984-3.7987-2.0974,0-3.7985,1.7011-3.7985,3.7987,0,2.0974,1.7011,3.7981,3.7985,3.7981"/><path id="path3836" fill-rule="evenodd" fill="#fff500" d="m326.57,372.88c1.7847,0,3.2318-1.4471,3.2318-3.2312,0-1.7847-1.4471-3.2318-3.2318-3.2318-1.7842,0-3.2312,1.4471-3.2312,3.2318,0,1.7841,1.447,3.2312,3.2312,3.2312"/><path id="path3838" fill-rule="evenodd" fill="#000" d="m326.57,379.08c2.0976,0,3.7984-1.7007,3.7984-3.7981,0-2.0976-1.7008-3.7987-3.7984-3.7987-2.0974,0-3.7985,1.7011-3.7985,3.7987,0,2.0974,1.7011,3.7981,3.7985,3.7981"/><path id="path3840" fill-rule="evenodd" fill="#fff500" d="m326.57,378.51c1.7847,0,3.2318-1.4471,3.2318-3.2312,0-1.7847-1.4471-3.2318-3.2318-3.2318-1.7842,0-3.2312,1.4471-3.2312,3.2318,0,1.7841,1.447,3.2312,3.2312,3.2312"/><path id="path3842" fill-rule="evenodd" fill="#000" d="m326.57,384.71c2.0976,0,3.7984-1.7008,3.7984-3.7982,0-2.0976-1.7008-3.7987-3.7984-3.7987-2.0974,0-3.7985,1.7011-3.7985,3.7987,0,2.0974,1.7011,3.7982,3.7985,3.7982"/><path id="path3844" fill-rule="evenodd" fill="#fff500" d="m326.57,384.14c1.7847,0,3.2318-1.447,3.2318-3.2312,0-1.7847-1.4471-3.2317-3.2318-3.2317-1.7842,0-3.2312,1.447-3.2312,3.2317,0,1.7842,1.447,3.2312,3.2312,3.2312"/><path id="path3846" fill-rule="evenodd" fill="#000" d="m326.57,390.34c2.0976,0,3.7984-1.7008,3.7984-3.7982,0-2.0976-1.7008-3.7987-3.7984-3.7987-2.0974,0-3.7985,1.7011-3.7985,3.7987,0,2.0974,1.7011,3.7982,3.7985,3.7982"/><path id="path3848" fill-rule="evenodd" fill="#fff500" d="m326.57,389.77c1.7847,0,3.2318-1.4471,3.2318-3.2313,0-1.7847-1.4471-3.2317-3.2318-3.2317-1.7842,0-3.2312,1.447-3.2312,3.2317,0,1.7842,1.447,3.2313,3.2312,3.2313"/><path id="path3850" fill-rule="evenodd" fill="#000" d="m326.57,395.97c2.0976,0,3.7984-1.7008,3.7984-3.7982,0-2.0976-1.7008-3.7987-3.7984-3.7987-2.0974,0-3.7985,1.7011-3.7985,3.7987,0,2.0974,1.7011,3.7982,3.7985,3.7982"/><path id="path3852" fill-rule="evenodd" fill="#fff500" d="m326.57,395.41c1.7847,0,3.2318-1.4471,3.2318-3.2313,0-1.7846-1.4471-3.2317-3.2318-3.2317-1.7842,0-3.2312,1.4471-3.2312,3.2317,0,1.7842,1.447,3.2313,3.2312,3.2313"/><path id="path3854" fill-rule="evenodd" fill="#000" d="m326.57,401.61c2.0976,0,3.7984-1.7008,3.7984-3.7981,0-2.0977-1.7008-3.7988-3.7984-3.7988-2.0974,0-3.7985,1.7011-3.7985,3.7988,0,2.0973,1.7011,3.7981,3.7985,3.7981"/><path id="path3856" fill-rule="evenodd" fill="#fff500" d="m326.57,401.04c1.7847,0,3.2318-1.4471,3.2318-3.2312,0-1.7847-1.4471-3.2318-3.2318-3.2318-1.7842,0-3.2312,1.4471-3.2312,3.2318,0,1.7841,1.447,3.2312,3.2312,3.2312"/><path id="path3858" fill-rule="evenodd" fill="#000" d="m326.57,407.24c2.0976,0,3.7984-1.7008,3.7984-3.7981,0-2.0977-1.7008-3.7987-3.7984-3.7987-2.0974,0-3.7985,1.701-3.7985,3.7987,0,2.0973,1.7011,3.7981,3.7985,3.7981"/><path id="path3860" fill-rule="evenodd" fill="#fff500" d="m326.57,406.67c1.7847,0,3.2318-1.4471,3.2318-3.2312,0-1.7847-1.4471-3.2318-3.2318-3.2318-1.7842,0-3.2312,1.4471-3.2312,3.2318,0,1.7841,1.447,3.2312,3.2312,3.2312"/><path id="path3862" fill-rule="evenodd" fill="#000" d="m326.57,412.87c2.0976,0,3.7984-1.7008,3.7984-3.7981,0-2.0977-1.7008-3.7987-3.7984-3.7987-2.0974,0-3.7985,1.701-3.7985,3.7987,0,2.0973,1.7011,3.7981,3.7985,3.7981"/><path id="path3864" fill-rule="evenodd" fill="#fff500" d="m326.57,412.31c1.7847,0,3.2318-1.4471,3.2318-3.2312,0-1.7847-1.4471-3.2318-3.2318-3.2318-1.7842,0-3.2312,1.4471-3.2312,3.2318,0,1.7841,1.447,3.2312,3.2312,3.2312"/><path id="path3866" fill-rule="evenodd" fill="#000" d="m326.57,418.51c2.0976,0,3.7984-1.7008,3.7984-3.7981,0-2.0976-1.7008-3.7987-3.7984-3.7987-2.0974,0-3.7985,1.7011-3.7985,3.7987,0,2.0973,1.7011,3.7981,3.7985,3.7981"/><path id="path3868" fill-rule="evenodd" fill="#fff500" d="m326.57,417.94c1.7847,0,3.2318-1.4471,3.2318-3.2312,0-1.7847-1.4471-3.2318-3.2318-3.2318-1.7842,0-3.2312,1.4471-3.2312,3.2318,0,1.7841,1.447,3.2312,3.2312,3.2312"/><path id="path3870" fill-rule="evenodd" fill="#000" d="m326.57,424.14c2.0976,0,3.7984-1.7007,3.7984-3.7981,0-2.0976-1.7008-3.7987-3.7984-3.7987-2.0974,0-3.7985,1.7011-3.7985,3.7987,0,2.0974,1.7011,3.7981,3.7985,3.7981"/><path id="path3872" fill-rule="evenodd" fill="#fff500" d="m326.57,423.57c1.7847,0,3.2318-1.4471,3.2318-3.2312,0-1.7847-1.4471-3.2318-3.2318-3.2318-1.7842,0-3.2312,1.4471-3.2312,3.2318,0,1.7841,1.447,3.2312,3.2312,3.2312"/><path id="path3874" fill-rule="evenodd" fill="#000" d="m326.57,429.77c2.0976,0,3.7984-1.7008,3.7984-3.7982,0-2.0976-1.7008-3.7987-3.7984-3.7987-2.0974,0-3.7985,1.7011-3.7985,3.7987,0,2.0974,1.7011,3.7982,3.7985,3.7982"/><path id="path3876" fill-rule="evenodd" fill="#fff500" d="m326.57,429.21c1.7847,0,3.2318-1.4471,3.2318-3.2312,0-1.7847-1.4471-3.2318-3.2318-3.2318-1.7842,0-3.2312,1.4471-3.2312,3.2318,0,1.7841,1.447,3.2312,3.2312,3.2312"/><path id="path3878" fill-rule="evenodd" fill="#000" d="m326.57,435.4c2.0976,0,3.7984-1.7008,3.7984-3.7982,0-2.0976-1.7008-3.7987-3.7984-3.7987-2.0974,0-3.7985,1.7011-3.7985,3.7987,0,2.0974,1.7011,3.7982,3.7985,3.7982"/><path id="path3880" fill-rule="evenodd" fill="#fff500" d="m326.57,434.84c1.7847,0,3.2318-1.447,3.2318-3.2312,0-1.7847-1.4471-3.2317-3.2318-3.2317-1.7842,0-3.2312,1.447-3.2312,3.2317,0,1.7842,1.447,3.2312,3.2312,3.2312"/><path id="path3882" fill-rule="evenodd" fill="#000" d="m326.57,441.04c2.0976,0,3.7984-1.7008,3.7984-3.7982,0-2.0976-1.7008-3.7987-3.7984-3.7987-2.0974,0-3.7985,1.7011-3.7985,3.7987,0,2.0974,1.7011,3.7982,3.7985,3.7982"/><path id="path3884" fill-rule="evenodd" fill="#fff500" d="m326.57,440.47c1.7847,0,3.2318-1.4471,3.2318-3.2313,0-1.7847-1.4471-3.2317-3.2318-3.2317-1.7842,0-3.2312,1.447-3.2312,3.2317,0,1.7842,1.447,3.2313,3.2312,3.2313"/><path id="path3886" fill-rule="evenodd" fill="#000" d="m326.57,446.67c2.0976,0,3.7984-1.7008,3.7984-3.7981,0-2.0977-1.7008-3.7987-3.7984-3.7987-2.0974,0-3.7985,1.701-3.7985,3.7987,0,2.0973,1.7011,3.7981,3.7985,3.7981"/><path id="path3888" fill-rule="evenodd" fill="#fff500" d="m326.57,446.1c1.7847,0,3.2318-1.4471,3.2318-3.2312,0-1.7847-1.4471-3.2318-3.2318-3.2318-1.7842,0-3.2312,1.4471-3.2312,3.2318,0,1.7841,1.447,3.2312,3.2312,3.2312"/><path id="path3890" fill-rule="evenodd" fill="#000" d="m326.57,452.3c2.0976,0,3.7984-1.7008,3.7984-3.7981,0-2.0977-1.7008-3.7987-3.7984-3.7987-2.0974,0-3.7985,1.701-3.7985,3.7987,0,2.0973,1.7011,3.7981,3.7985,3.7981"/><path id="path3892" fill-rule="evenodd" fill="#fff500" d="m326.57,451.74c1.7847,0,3.2318-1.4471,3.2318-3.2312,0-1.7847-1.4471-3.2318-3.2318-3.2318-1.7842,0-3.2312,1.4471-3.2312,3.2318,0,1.7841,1.447,3.2312,3.2312,3.2312"/><path id="path3894" fill-rule="evenodd" fill="#000" d="m330.04,455.67c0.2064-0.4683,0.3215-0.9862,0.3215-1.5304,0-2.0977-1.7008-3.7987-3.7984-3.7987-2.0974,0-3.7985,1.701-3.7985,3.7987,0,0.5442,0.1151,1.0621,0.3215,1.5304h6.9539z"/><path id="path3896" fill-rule="evenodd" fill="#fff500" d="m329.65,455.1c0.095-0.3042,0.1466-0.6282,0.1466-0.9635,0-1.7847-1.4471-3.2318-3.2318-3.2318-1.7842,0-3.2312,1.4471-3.2312,3.2318,0,0.3353,0.0515,0.6593,0.1465,0.9635h6.1699z"/><path id="path3898" fill-rule="evenodd" fill="#000" d="m268.71,362.18c2.0977,0,3.7985-1.7008,3.7985-3.7982,0-2.0976-1.7008-3.7987-3.7985-3.7987-2.0973,0-3.7984,1.7011-3.7984,3.7987,0,2.0974,1.7011,3.7982,3.7984,3.7982"/><path id="path3900" fill-rule="evenodd" fill="#fff500" d="m268.71,361.61c1.7846,0,3.2317-1.4471,3.2317-3.2312,0-0.9105-0.3773-1.7328-0.9833-2.3201-1.6968,0.695-3.5175,1.3121-5.4437,1.8408-0.0232,0.1567-0.036,0.3163-0.036,0.4793,0,1.7841,1.4471,3.2312,3.2313,3.2312"/><path id="path3902" fill-rule="evenodd" fill="#000" d="m268.71,367.81c2.0977,0,3.7985-1.7007,3.7985-3.7981,0-2.0976-1.7008-3.7987-3.7985-3.7987-2.0973,0-3.7984,1.7011-3.7984,3.7987,0,2.0974,1.7011,3.7981,3.7984,3.7981"/><path id="path3904" fill-rule="evenodd" fill="#fff500" d="m268.71,367.24c1.7846,0,3.2317-1.4471,3.2317-3.2312,0-1.7847-1.4471-3.2318-3.2317-3.2318-1.7842,0-3.2313,1.4471-3.2313,3.2318,0,1.7841,1.4471,3.2312,3.2313,3.2312"/><path id="path3906" fill-rule="evenodd" fill="#000" d="m268.71,373.44c2.0977,0,3.7985-1.7007,3.7985-3.7981,0-2.0976-1.7008-3.7987-3.7985-3.7987-2.0973,0-3.7984,1.7011-3.7984,3.7987,0,2.0974,1.7011,3.7981,3.7984,3.7981"/><path id="path3908" fill-rule="evenodd" fill="#fff500" d="m268.71,372.88c1.7846,0,3.2317-1.4471,3.2317-3.2312,0-1.7847-1.4471-3.2318-3.2317-3.2318-1.7842,0-3.2313,1.4471-3.2313,3.2318,0,1.7841,1.4471,3.2312,3.2313,3.2312"/><path id="path3910" fill-rule="evenodd" fill="#000" d="m268.71,379.08c2.0977,0,3.7985-1.7007,3.7985-3.7981,0-2.0976-1.7008-3.7987-3.7985-3.7987-2.0973,0-3.7984,1.7011-3.7984,3.7987,0,2.0974,1.7011,3.7981,3.7984,3.7981"/><path id="path3912" fill-rule="evenodd" fill="#fff500" d="m268.71,378.51c1.7846,0,3.2317-1.4471,3.2317-3.2312,0-1.7847-1.4471-3.2318-3.2317-3.2318-1.7842,0-3.2313,1.4471-3.2313,3.2318,0,1.7841,1.4471,3.2312,3.2313,3.2312"/><path id="path3914" fill-rule="evenodd" fill="#000" d="m268.71,384.71c2.0977,0,3.7985-1.7008,3.7985-3.7982,0-2.0976-1.7008-3.7987-3.7985-3.7987-2.0973,0-3.7984,1.7011-3.7984,3.7987,0,2.0974,1.7011,3.7982,3.7984,3.7982"/><path id="path3916" fill-rule="evenodd" fill="#fff500" d="m268.71,384.14c1.7846,0,3.2317-1.447,3.2317-3.2312,0-1.7847-1.4471-3.2317-3.2317-3.2317-1.7842,0-3.2313,1.447-3.2313,3.2317,0,1.7842,1.4471,3.2312,3.2313,3.2312"/><path id="path3918" fill-rule="evenodd" fill="#000" d="m268.71,390.34c2.0977,0,3.7985-1.7008,3.7985-3.7982,0-2.0976-1.7008-3.7987-3.7985-3.7987-2.0973,0-3.7984,1.7011-3.7984,3.7987,0,2.0974,1.7011,3.7982,3.7984,3.7982"/><path id="path3920" fill-rule="evenodd" fill="#fff500" d="m268.71,389.77c1.7846,0,3.2317-1.4471,3.2317-3.2313,0-1.7847-1.4471-3.2317-3.2317-3.2317-1.7842,0-3.2313,1.447-3.2313,3.2317,0,1.7842,1.4471,3.2313,3.2313,3.2313"/><path id="path3922" fill-rule="evenodd" fill="#000" d="m268.71,395.97c2.0977,0,3.7985-1.7008,3.7985-3.7982,0-2.0976-1.7008-3.7987-3.7985-3.7987-2.0973,0-3.7984,1.7011-3.7984,3.7987,0,2.0974,1.7011,3.7982,3.7984,3.7982"/><path id="path3924" fill-rule="evenodd" fill="#fff500" d="m268.71,395.41c1.7846,0,3.2317-1.4471,3.2317-3.2313,0-1.7846-1.4471-3.2317-3.2317-3.2317-1.7842,0-3.2313,1.4471-3.2313,3.2317,0,1.7842,1.4471,3.2313,3.2313,3.2313"/><path id="path3926" fill-rule="evenodd" fill="#000" d="m268.71,401.61c2.0977,0,3.7985-1.7008,3.7985-3.7981,0-2.0977-1.7008-3.7988-3.7985-3.7988-2.0973,0-3.7984,1.7011-3.7984,3.7988,0,2.0973,1.7011,3.7981,3.7984,3.7981"/><path id="path3928" fill-rule="evenodd" fill="#fff500" d="m268.71,401.04c1.7846,0,3.2317-1.4471,3.2317-3.2312,0-1.7847-1.4471-3.2318-3.2317-3.2318-1.7842,0-3.2313,1.4471-3.2313,3.2318,0,1.7841,1.4471,3.2312,3.2313,3.2312"/><path id="path3930" fill-rule="evenodd" fill="#000" d="m268.71,407.24c2.0977,0,3.7985-1.7008,3.7985-3.7981,0-2.0977-1.7008-3.7987-3.7985-3.7987-2.0973,0-3.7984,1.701-3.7984,3.7987,0,2.0973,1.7011,3.7981,3.7984,3.7981"/><path id="path3932" fill-rule="evenodd" fill="#fff500" d="m268.71,406.67c1.7846,0,3.2317-1.4471,3.2317-3.2312,0-1.7847-1.4471-3.2318-3.2317-3.2318-1.7842,0-3.2313,1.4471-3.2313,3.2318,0,1.7841,1.4471,3.2312,3.2313,3.2312"/><path id="path3934" fill-rule="evenodd" fill="#000" d="m268.71,412.87c2.0977,0,3.7985-1.7008,3.7985-3.7981,0-2.0977-1.7008-3.7987-3.7985-3.7987-2.0973,0-3.7984,1.701-3.7984,3.7987,0,2.0973,1.7011,3.7981,3.7984,3.7981"/><path id="path3936" fill-rule="evenodd" fill="#fff500" d="m268.71,412.31c1.7846,0,3.2317-1.4471,3.2317-3.2312,0-1.7847-1.4471-3.2318-3.2317-3.2318-1.7842,0-3.2313,1.4471-3.2313,3.2318,0,1.7841,1.4471,3.2312,3.2313,3.2312"/><path id="path3938" fill-rule="evenodd" fill="#000" d="m268.71,418.51c2.0977,0,3.7985-1.7008,3.7985-3.7981,0-2.0976-1.7008-3.7987-3.7985-3.7987-2.0973,0-3.7984,1.7011-3.7984,3.7987,0,2.0973,1.7011,3.7981,3.7984,3.7981"/><path id="path3940" fill-rule="evenodd" fill="#fff500" d="m268.71,417.94c1.7846,0,3.2317-1.4471,3.2317-3.2312,0-1.7847-1.4471-3.2318-3.2317-3.2318-1.7842,0-3.2313,1.4471-3.2313,3.2318,0,1.7841,1.4471,3.2312,3.2313,3.2312"/><path id="path3942" fill-rule="evenodd" fill="#000" d="m268.71,424.14c2.0977,0,3.7985-1.7007,3.7985-3.7981,0-2.0976-1.7008-3.7987-3.7985-3.7987-2.0973,0-3.7984,1.7011-3.7984,3.7987,0,2.0974,1.7011,3.7981,3.7984,3.7981"/><path id="path3944" fill-rule="evenodd" fill="#fff500" d="m268.71,423.57c1.7846,0,3.2317-1.4471,3.2317-3.2312,0-1.7847-1.4471-3.2318-3.2317-3.2318-1.7842,0-3.2313,1.4471-3.2313,3.2318,0,1.7841,1.4471,3.2312,3.2313,3.2312"/><path id="path3946" fill-rule="evenodd" fill="#000" d="m268.71,429.77c2.0977,0,3.7985-1.7008,3.7985-3.7982,0-2.0976-1.7008-3.7987-3.7985-3.7987-2.0973,0-3.7984,1.7011-3.7984,3.7987,0,2.0974,1.7011,3.7982,3.7984,3.7982"/><path id="path3948" fill-rule="evenodd" fill="#fff500" d="m268.71,429.21c1.7846,0,3.2317-1.4471,3.2317-3.2312,0-1.7847-1.4471-3.2318-3.2317-3.2318-1.7842,0-3.2313,1.4471-3.2313,3.2318,0,1.7841,1.4471,3.2312,3.2313,3.2312"/><path id="path3950" fill-rule="evenodd" fill="#000" d="m268.71,435.4c2.0977,0,3.7985-1.7008,3.7985-3.7982,0-2.0976-1.7008-3.7987-3.7985-3.7987-2.0973,0-3.7984,1.7011-3.7984,3.7987,0,2.0974,1.7011,3.7982,3.7984,3.7982"/><path id="path3952" fill-rule="evenodd" fill="#fff500" d="m268.71,434.84c1.7846,0,3.2317-1.447,3.2317-3.2312,0-1.7847-1.4471-3.2317-3.2317-3.2317-1.7842,0-3.2313,1.447-3.2313,3.2317,0,1.7842,1.4471,3.2312,3.2313,3.2312"/><path id="path3954" fill-rule="evenodd" fill="#000" d="m268.71,441.04c2.0977,0,3.7985-1.7008,3.7985-3.7982,0-2.0976-1.7008-3.7987-3.7985-3.7987-2.0973,0-3.7984,1.7011-3.7984,3.7987,0,2.0974,1.7011,3.7982,3.7984,3.7982"/><path id="path3956" fill-rule="evenodd" fill="#fff500" d="m268.71,440.47c1.7846,0,3.2317-1.4471,3.2317-3.2313,0-1.7847-1.4471-3.2317-3.2317-3.2317-1.7842,0-3.2313,1.447-3.2313,3.2317,0,1.7842,1.4471,3.2313,3.2313,3.2313"/><path id="path3958" fill-rule="evenodd" fill="#000" d="m268.71,446.67c2.0977,0,3.7985-1.7008,3.7985-3.7981,0-2.0977-1.7008-3.7987-3.7985-3.7987-2.0973,0-3.7984,1.701-3.7984,3.7987,0,2.0973,1.7011,3.7981,3.7984,3.7981"/><path id="path3960" fill-rule="evenodd" fill="#fff500" d="m268.71,446.1c1.7846,0,3.2317-1.4471,3.2317-3.2312,0-1.7847-1.4471-3.2318-3.2317-3.2318-1.7842,0-3.2313,1.4471-3.2313,3.2318,0,1.7841,1.4471,3.2312,3.2313,3.2312"/><path id="path3962" fill-rule="evenodd" fill="#000" d="m268.71,452.3c2.0977,0,3.7985-1.7008,3.7985-3.7981,0-2.0977-1.7008-3.7987-3.7985-3.7987-2.0973,0-3.7984,1.701-3.7984,3.7987,0,2.0973,1.7011,3.7981,3.7984,3.7981"/><path id="path3964" fill-rule="evenodd" fill="#fff500" d="m268.71,451.74c1.7846,0,3.2317-1.4471,3.2317-3.2312,0-1.7847-1.4471-3.2318-3.2317-3.2318-1.7842,0-3.2313,1.4471-3.2313,3.2318,0,1.7841,1.4471,3.2312,3.2313,3.2312"/><path id="path3966" fill-rule="evenodd" fill="#000" d="m272.19,455.67c0.2064-0.4683,0.3215-0.9862,0.3215-1.5304,0-2.0977-1.7008-3.7987-3.7985-3.7987-2.0973,0-3.7984,1.701-3.7984,3.7987,0,0.5442,0.1151,1.0621,0.3215,1.5304h6.9539z"/><path id="path3968" fill-rule="evenodd" fill="#fff500" d="m271.79,455.1c0.0949-0.3042,0.1465-0.6282,0.1465-0.9635,0-1.7847-1.4471-3.2318-3.2317-3.2318-1.7842,0-3.2313,1.4471-3.2313,3.2318,0,0.3353,0.0516,0.6593,0.1466,0.9635h6.1699z"/><path id="path3970" fill-rule="evenodd" fill="#FFF" d="m342,339.29c-12.512-8.1927-27.448-14.826-44.358-20.878-16.91,6.0517-31.848,12.685-44.36,20.878h88.718z"/><path id="path3972" fill-rule="nonzero" fill="#009140" d="m248.67,359.47,0-0.001-0.008,0-0.008,0,0,0.001c-5.9437-0.0006-11.547-0.75-16.478-2.0767,2.4177-2.7955,5.0205-5.4379,7.8032-7.9438,3.8158-3.4361,7.9694-6.6194,12.439-9.5986h90.438c4.47,2.9792,8.6244,6.1625,12.44,9.5986,2.7827,2.5059,5.3858,5.148,7.8035,7.9436-4.9326,1.3269-10.537,2.0766-16.483,2.0769v-0.001h-0.004v0.001c-6.7777,0-13.116-0.9757-18.519-2.6694-1.0486-0.3288-2.0631-0.6851-3.0385-1.0667-0.9791-0.3824-1.9139-0.7883-2.7992-1.2143l-0.006-0.003-0.1244-0.062-0.1247,0.0601c-2.6697,1.2849-5.7206,2.3621-9.055,3.1796h-0.001c-0.6488,0.159-1.309,0.3087-1.9791,0.4479-4.1182,0.8557-8.6142,1.3274-13.32,1.3277v-0.001h-0.008v0.001c-6.7774,0-13.115-0.9757-18.519-2.6697-1.0486-0.3285-2.0631-0.6848-3.0385-1.0664-0.9791-0.3829-1.914-0.7883-2.7992-1.2143l-0.006-0.003-0.1241-0.062-0.125,0.0601c-2.6697,1.2849-5.7209,2.3621-9.0553,3.1799-0.6443,0.1579-1.3051,0.3075-1.9803,0.4478-4.1179,0.8555-8.6142,1.3272-13.321,1.3275"/></g></svg>
