<?xml version="1.0" encoding="UTF-8" standalone="no"?>
<!-- Created with Inkscape (http://www.inkscape.org/) -->

<svg
   xmlns:dc="http://purl.org/dc/elements/1.1/"
   xmlns:cc="http://creativecommons.org/ns#"
   xmlns:rdf="http://www.w3.org/1999/02/22-rdf-syntax-ns#"
   xmlns:svg="http://www.w3.org/2000/svg"
   xmlns="http://www.w3.org/2000/svg"
   xmlns:xlink="http://www.w3.org/1999/xlink"
   xmlns:sodipodi="http://sodipodi.sourceforge.net/DTD/sodipodi-0.dtd"
   xmlns:inkscape="http://www.inkscape.org/namespaces/inkscape"
   width="322.57773"
   height="390.01221"
   id="svg2"
   version="1.1"
   inkscape:version="0.48.1 "
   sodipodi:docname="березовка.svg">
  <defs
     id="defs4">
    <linearGradient
       x1="0"
       y1="0"
       x2="1"
       y2="0"
       gradientUnits="userSpaceOnUse"
       gradientTransform="matrix(371.12145,0,0,181.48195,111.6952,166.6993)"
       spreadMethod="pad"
       id="linearGradient4695">
      <stop
         style="stop-opacity:1;stop-color:#ffbb00"
         offset="0"
         id="stop4697" />
      <stop
         id="stop4699"
         offset="0.36942726"
         style="stop-color:#ffcf00;stop-opacity:1;" />
      <stop
         style="stop-opacity:1;stop-color:#ffcf00"
         offset="0.62998068"
         id="stop4701" />
      <stop
         style="stop-opacity:1;stop-color:#ffbb00"
         offset="1"
         id="stop4703" />
    </linearGradient>
    <radialGradient
       id="radialGradient4679"
       spreadMethod="pad"
       gradientTransform="matrix(85.36422,0,0,85.36422,346.7871,592.7428)"
       gradientUnits="userSpaceOnUse"
       r="1.04"
       cy="0"
       cx="0"
       fy="0"
       fx="0">
      <stop
         id="stop4681"
         offset="0"
         style="stop-opacity:1;stop-color:#ffffff" />
      <stop
         style="stop-color:#ffffff;stop-opacity:1"
         offset="0.63999116"
         id="stop4683" />
      <stop
         id="stop4685"
         offset="1"
         style="stop-opacity:1;stop-color:#e6e6e6" />
    </radialGradient>
    <linearGradient
       x1="0.31"
       y1="0"
       x2="0.69"
       y2="0"
       gradientUnits="userSpaceOnUse"
       gradientTransform="matrix(0,54.12076,-16.78734,0,387.6216,481.4113)"
       spreadMethod="pad"
       id="linearGradient4445">
      <stop
         style="stop-opacity:1;stop-color:#e6e6e6"
         offset="0"
         id="stop4447" />
      <stop
         style="stop-opacity:1;stop-color:#ffffff"
         offset="1"
         id="stop4449" />
    </linearGradient>
    <linearGradient
       x1="0.25"
       y1="0"
       x2="0.75"
       y2="0"
       gradientUnits="userSpaceOnUse"
       gradientTransform="matrix(-244.91679,0,0,-208.63843,357.7793,578.2972)"
       spreadMethod="pad"
       id="linearGradient4411">
      <stop
         style="stop-opacity:1;stop-color:#f2f2f2"
         offset="0"
         id="stop4413" />
      <stop
         style="stop-opacity:1;stop-color:#ffffff"
         offset="1"
         id="stop4415" />
    </linearGradient>
    <linearGradient
       id="linearGradient3195"
       spreadMethod="pad"
       gradientTransform="matrix(-81.68995,0,0,-23.62224,433.3547,630.7914)"
       gradientUnits="userSpaceOnUse"
       y2="0"
       x2="0.63"
       y1="0"
       x1="0.37">
      <stop
         id="stop3197"
         offset="0"
         style="stop-opacity:1;stop-color:#f1f1f1" />
      <stop
         id="stop3199"
         offset="1"
         style="stop-opacity:1;stop-color:#ffffff" />
    </linearGradient>
    <linearGradient
       id="linearGradient3153"
       spreadMethod="pad"
       gradientTransform="matrix(0,-18.44447,38.70709,0,359.57,506.4296)"
       gradientUnits="userSpaceOnUse"
       y2="0"
       x2="0.79000002"
       y1="0"
       x1="0.20999999">
      <stop
         id="stop3155"
         offset="0"
         style="stop-opacity:1;stop-color:#e5e5e5" />
      <stop
         id="stop3157"
         offset="1"
         style="stop-opacity:1;stop-color:#ffffff" />
    </linearGradient>
    <linearGradient
       id="linearGradient3131"
       spreadMethod="pad"
       gradientTransform="matrix(41.71129,92.69175,-71.63636,32.23636,353.5126,270.8802)"
       gradientUnits="userSpaceOnUse"
       y2="0"
       x2="0.70999998"
       y1="0"
       x1="0.28999999">
      <stop
         id="stop3133"
         offset="0"
         style="stop-opacity:1;stop-color:#e5e5e5" />
      <stop
         id="stop3135"
         offset="1"
         style="stop-opacity:1;stop-color:#ffffff" />
    </linearGradient>
    <linearGradient
       id="linearGradient3109"
       spreadMethod="pad"
       gradientTransform="matrix(101.12179,227.0805,-176.69019,78.68235,421.5787,282.9844)"
       gradientUnits="userSpaceOnUse"
       y2="0"
       x2="0.77999997"
       y1="0"
       x1="0.22">
      <stop
         id="stop3111"
         offset="0"
         style="stop-opacity:1;stop-color:#e5e5e5" />
      <stop
         id="stop3113"
         offset="1"
         style="stop-opacity:1;stop-color:#ffffff" />
    </linearGradient>
    <linearGradient
       id="linearGradient3087"
       spreadMethod="pad"
       gradientTransform="matrix(-33.55297,60.22328,-52.77644,-29.40401,449.4937,371.0446)"
       gradientUnits="userSpaceOnUse"
       y2="0"
       x2="0.76999998"
       y1="0"
       x1="0.23">
      <stop
         id="stop3089"
         offset="0"
         style="stop-opacity:1;stop-color:#e5e5e5" />
      <stop
         id="stop3091"
         offset="1"
         style="stop-opacity:1;stop-color:#ffffff" />
    </linearGradient>
    <linearGradient
       id="linearGradient3065"
       spreadMethod="pad"
       gradientTransform="matrix(-73.33959,135.338,-116.91887,-63.35827,449.7109,440.9422)"
       gradientUnits="userSpaceOnUse"
       y2="0"
       x2="0.72000003"
       y1="0"
       x1="0.28">
      <stop
         id="stop3067"
         offset="0"
         style="stop-opacity:1;stop-color:#e5e5e5" />
      <stop
         id="stop3069"
         offset="1"
         style="stop-opacity:1;stop-color:#ffffff" />
    </linearGradient>
    <linearGradient
       inkscape:collect="always"
       xlink:href="#linearGradient4411"
       id="linearGradient4591"
       gradientUnits="userSpaceOnUse"
       gradientTransform="matrix(-186.98231,0,0,159.44004,337.91755,386.57214)"
       spreadMethod="pad"
       x1="0.25"
       y1="-5.5619571e-017"
       x2="0.62058568"
       y2="-5.5619571e-017" />
    <linearGradient
       inkscape:collect="always"
       xlink:href="#linearGradient3131"
       id="linearGradient4613"
       gradientUnits="userSpaceOnUse"
       gradientTransform="matrix(31.844584,-70.834394,-54.690951,-24.634803,333.32659,621.49808)"
       spreadMethod="pad"
       x1="0.28999999"
       y1="0"
       x2="0.70999998"
       y2="0" />
    <linearGradient
       inkscape:collect="always"
       xlink:href="#linearGradient3109"
       id="linearGradient4617"
       gradientUnits="userSpaceOnUse"
       gradientTransform="matrix(77.201675,-173.53334,-134.89455,-60.128506,385.29182,612.24814)"
       spreadMethod="pad"
       x1="0.22"
       y1="0"
       x2="0.77999997"
       y2="0" />
    <linearGradient
       inkscape:collect="always"
       xlink:href="#linearGradient3087"
       id="linearGradient4625"
       gradientUnits="userSpaceOnUse"
       gradientTransform="matrix(-25.616096,-46.022213,-40.2923,22.47034,406.60359,544.95314)"
       spreadMethod="pad"
       x1="0.23"
       y1="0"
       x2="0.76999998"
       y2="0" />
    <linearGradient
       inkscape:collect="always"
       xlink:href="#linearGradient3065"
       id="linearGradient4629"
       gradientUnits="userSpaceOnUse"
       gradientTransform="matrix(-55.991286,-103.42436,-89.261993,48.41795,406.76941,491.53788)"
       spreadMethod="pad"
       x1="0.28"
       y1="0"
       x2="0.72000003"
       y2="0" />
    <radialGradient
       inkscape:collect="always"
       xlink:href="#radialGradient4679"
       id="radialGradient4667"
       gradientUnits="userSpaceOnUse"
       gradientTransform="matrix(28.241953,4.4947058e-7,0,-58.462571,326.84864,378.1348)"
       spreadMethod="pad"
       cx="0.82873017"
       cy="0.10370061"
       fx="0.82873017"
       fy="0.10370061"
       r="1.04" />
    <linearGradient
       inkscape:collect="always"
       xlink:href="#linearGradient3195"
       id="linearGradient4670"
       gradientUnits="userSpaceOnUse"
       gradientTransform="matrix(-62.36639,0,0,18.051952,394.28223,346.45644)"
       spreadMethod="pad"
       x1="0.41071481"
       y1="0.46887556"
       x2="0.54630846"
       y2="0.46887556" />
    <linearGradient
       inkscape:collect="always"
       xlink:href="#linearGradient4445"
       id="linearGradient4673"
       gradientUnits="userSpaceOnUse"
       gradientTransform="matrix(0,-41.358709,-12.816335,0,359.36718,460.61168)"
       spreadMethod="pad"
       x1="0.31"
       y1="0"
       x2="0.69"
       y2="0" />
    <linearGradient
       inkscape:collect="always"
       xlink:href="#linearGradient3153"
       id="linearGradient4677"
       gradientUnits="userSpaceOnUse"
       gradientTransform="matrix(0,14.095136,29.55102,0,337.95112,441.49287)"
       spreadMethod="pad"
       x1="0.20999999"
       y1="0"
       x2="0.79000002"
       y2="0" />
    <linearGradient
       inkscape:collect="always"
       xlink:href="#linearGradient4695"
       id="linearGradient4693"
       gradientUnits="userSpaceOnUse"
       gradientTransform="matrix(371.12145,0,0,181.48195,111.6952,166.6993)"
       spreadMethod="pad"
       x1="0"
       y1="0"
       x2="1"
       y2="0" />
    <style
       id="style4759"
       type="text/css">
   
    .str0 {stroke:#FF6600;stroke-width:0.7056}
    .fil1 {fill:none}
    .fil0 {fill:#A90000}
   
  </style>
  </defs>
  <sodipodi:namedview
     id="base"
     pagecolor="#ffffff"
     bordercolor="#666666"
     borderopacity="1.0"
     inkscape:pageopacity="0.0"
     inkscape:pageshadow="2"
     inkscape:zoom="1.3615314"
     inkscape:cx="161.27114"
     inkscape:cy="195.00978"
     inkscape:document-units="px"
     inkscape:current-layer="layer1"
     showgrid="false"
     fit-margin-top="0"
     fit-margin-left="0"
     fit-margin-right="0"
     fit-margin-bottom="0"
     inkscape:window-width="1280"
     inkscape:window-height="750"
     inkscape:window-x="-8"
     inkscape:window-y="-8"
     inkscape:window-maximized="1" />
  <metadata
     id="metadata7">
    <rdf:RDF>
      <cc:Work
         rdf:about="">
        <dc:format>image/svg+xml</dc:format>
        <dc:type
           rdf:resource="http://purl.org/dc/dcmitype/StillImage" />
        <dc:title />
      </cc:Work>
    </rdf:RDF>
  </metadata>
  <g
     inkscape:label="Layer 1"
     inkscape:groupmode="layer"
     id="layer1"
     transform="translate(-129.39564,-311.75899)">
    <path
       style="fill:#a90000"
       inkscape:connector-curvature="0"
       class="fil0"
       d="m 363.77001,498.793 c 2.93492,0 5.31496,2.38004 5.31496,5.31496 l 0,5.31425 c 0,2.93493 -2.38004,5.31497 -5.31496,5.31497 l -5.31496,0 0,-15.94418 z m 0,21.25914 c 5.86984,0 10.62992,-4.76008 10.62992,-10.62993 l 0,-5.31425 c 0,-5.86984 -4.76008,-10.62992 -10.62992,-10.62992 l -10.62992,0 0,26.5741 z m -21.25984,-26.5741 5.31496,0 0,26.5741 -5.31496,0 z m -10.62993,0 5.31496,0 0,26.5741 -5.31496,0 -10.62992,-16.68402 0,16.68402 -5.31496,0 0,-26.5741 5.31496,0 10.62992,16.68402 z m -79.7244,3.6e-4 15.94488,0 0,5.31496 -10.62992,0 0,5.3146 10.62992,0 0,5.31496 -10.62992,0 0,5.31461 10.62992,0 0,5.31496 -15.94488,0 z m -21.25984,-7.1e-4 5.31496,0 0,21.25984 10.62992,0 0,5.31496 -15.94488,0 z m 55.8085,21.25984 5.31354,0 c 4.40221,0 7.97244,-3.57024 7.97244,-7.97244 0,-4.40221 -3.63649,-7.95721 -7.97244,-7.97244 l -5.31354,0 0,5.31496 5.31354,0 c 1.46729,0 2.65748,1.1902 2.65748,2.65748 0,1.46728 -1.19019,2.65748 -2.65748,2.65748 l -5.31354,0 z m 5.31354,-26.5748 c 10.27205,0 18.60236,8.33031 18.60236,18.60236 0,10.27205 -8.33031,18.60236 -18.60236,18.60236 -10.27204,0 -18.60236,-8.33031 -18.60236,-18.60236 0,-10.27205 8.33032,-18.60236 18.60236,-18.60236 z m -13.2874,18.60236 c 0,7.33712 5.95028,13.2874 13.2874,13.2874 7.33713,0 13.2874,-5.95028 13.2874,-13.2874 0,-7.33713 -5.95027,-13.2874 -13.2874,-13.2874 -7.33712,0 -13.2874,5.95027 -13.2874,13.2874 z"
       id="path4763"
       sodipodi:nodetypes="ssssccsssssccscccccccccccccccccccccccccccccccccccccsscccsssccssssssssss" />
    <path
       inkscape:connector-curvature="0"
       d="M 287.54038,643.90911 C 203.96174,614.92946 156.83511,554.66275 150.93531,475.84495 l 0,-162.99955 136.60507,0 0,331.06371 z"
       style="fill:#3d82c2;fill-opacity:1;fill-rule:evenodd;stroke:none"
       id="path2995" />
    <path
       id="path3013"
       style="fill:url(#linearGradient4591);fill-rule:evenodd;stroke:#000000;stroke-width:1.29999995;stroke-miterlimit:4;stroke-opacity:1;stroke-dasharray:none"
       d="m 164.65386,535.40318 c -3.09191,-7.54129 -5.69123,-15.35379 -7.79149,-23.4203 8.00633,-4.05779 15.07933,-8.92333 27.68576,-8.92333 21.62555,0 21.5641,9.09771 43.25745,9.09771 21.69487,0 21.63211,-9.09771 43.25591,-9.09771 9.28083,0 14.99497,2.38917 20.21072,5.11573 l 0,27.46549 c -5.21575,-2.72665 -10.92989,-5.11529 -20.21072,-5.11529 -21.6238,0 -21.56104,9.09765 -43.25591,9.09765 -21.69335,0 -21.6319,-9.09765 -43.25745,-9.09765 -8.47905,0 -14.45391,2.20172 -19.89427,4.8777 z M 151.4488,481.58221 c -0.19322,-1.90216 -0.36943,-3.81279 -0.51349,-5.73726 l 0,-21.47604 c 8.54715,-4.16455 15.68612,-9.55303 28.95347,-9.55303 21.62387,0 21.56196,9.09765 43.25569,9.09765 21.69403,0 21.63212,-9.09765 43.25599,-9.09765 12.07553,0 18.11497,4.04365 24.87175,7.61442 l 0,27.46595 c -6.75678,-3.57085 -12.79622,-7.6145 -24.87175,-7.6145 -21.62387,0 -21.56196,9.09771 -43.25599,9.09771 -21.69373,0 -21.63182,-9.09771 -43.25569,-9.09771 -13.00075,0 -20.1172,5.17404 -28.43998,9.30046 z m -0.51349,-58.32345 0,-27.46586 c 8.25414,-4.11327 15.36219,-9.22076 28.27912,-9.22076 21.62387,0 21.56195,9.09764 43.25576,9.09764 21.69395,0 21.63204,-9.09764 43.25591,-9.09764 12.47589,0 18.50815,4.31639 25.54611,7.96825 l 0,27.46586 c -7.03796,-3.65177 -13.07022,-7.96824 -25.54611,-7.96824 -21.62387,0 -21.56196,9.09772 -43.25591,9.09772 -21.69381,0 -21.63189,-9.09772 -43.25576,-9.09772 -12.91693,0 -20.02498,5.10756 -28.27912,9.22075"
       inkscape:connector-curvature="0" />
    <path
       inkscape:connector-curvature="0"
       d="M 287.54038,643.90911 C 203.96174,614.92946 156.83511,554.66275 150.93531,475.84495 l 0,-162.99955 273.21022,0 0,162.99955 c -5.89981,78.8178 -53.0265,139.08451 -136.60515,168.06416 z"
       style="fill:none;stroke:#000000;stroke-width:2.17000008;stroke-linecap:butt;stroke-linejoin:miter;stroke-miterlimit:10;stroke-opacity:1;stroke-dasharray:none"
       id="path3017" />
    <path
       inkscape:connector-curvature="0"
       d="m 287.54038,643.90911 c 83.57865,-28.97965 130.70534,-89.24636 136.60515,-168.06416 l 0,-162.99955 -136.60515,0 0,331.06371 z"
       style="fill:#de212b;fill-opacity:1;fill-rule:evenodd;stroke:#000000;stroke-width:1.29999995;stroke-linecap:butt;stroke-linejoin:miter;stroke-miterlimit:10;stroke-opacity:1;stroke-dasharray:none"
       id="path3019" />
    <g
       id="g3079">
      <path
         id="path3021"
         style="fill:#ffe600;fill-opacity:1;fill-rule:nonzero;stroke:none"
         d="m 389.5999,625.3163 c 7.72439,-6.59919 14.59271,-14.05313 18.58587,-21.44295 1.56492,-2.8956 2.43228,-7.12816 1.74693,-10.39502 -0.81896,-3.90349 -4.84288,-5.14913 -8.48555,-3.35939 -4.04645,1.98774 -6.99589,6.52376 -9.40825,10.12663 -1.83022,2.7336 -3.66151,5.52649 -6.07639,7.81441 -2.29677,2.17642 -5.5832,4.11931 -8.87071,3.38125 5.10773,3.98198 9.12845,8.31717 12.5081,13.87507"
         inkscape:connector-curvature="0" />
      <path
         id="path3023"
         style="fill:#ffe600;fill-opacity:1;fill-rule:nonzero;stroke:none"
         d="m 204.32665,614.38666 c -1.75793,0.47349 -4.13807,0.15054 -7.00789,-1.37815 l 0,2.3e-4 c -1.2939,-0.68907 -2.49481,-1.54581 -3.60799,-2.52818 -2.16821,-1.91323 -3.95186,-4.2441 -5.45358,-6.70641 -2.11781,-3.47203 -4.93465,-7.36017 -8.87566,-8.89558 -3.99301,-1.55537 -8.19315,-0.0262 -8.62274,4.66302 -0.28461,3.11455 1.03119,6.77549 2.61147,9.33569 l 6.1e-4,6.1e-4 0.001,0.002 c 2.26501,3.66851 5.03031,7.02439 7.98884,10.15047 3.33797,3.52591 7.13492,6.94896 11.13633,10.19097 2.74323,-6.15702 6.37009,-10.85559 11.82931,-14.83512"
         inkscape:connector-curvature="0" />
      <g
         transform="matrix(0.7634524,0,0,-0.76419306,63.436546,828.50285)"
         id="g3025">
        <g
           id="g3027">
          <g
             id="g3033">
            <path
               id="path3043"
               style="fill:url(#linearGradient4693);fill-rule:evenodd;stroke:none"
               d="m 453.168,309.7911 c 2.3666,-4.4377 0.3078,-12.4036 -1.5826,-15.8987 -8.9762,-16.5946 -28.7963,-33.4315 -46.9049,-44.4484 -36.7511,-22.358 -72.8472,-36.3039 -109.146,-37.1871 -34.0982,-0.8298 -68.3765,10.0037 -103.5434,32.1 -17.9484,11.2774 -38.1699,26.9314 -48.0872,42.9821 -1.1228,1.817 -2.3785,4.6153 -3.0583,7.5257 -0.7296,3.1246 -0.5865,6.3938 0.8252,8.6468 -7.7803,-11.9424 -17.6196,-25.1431 -26.9382,-37.4216 -4.1967,-5.5301 -2.4098,-12.8982 1.0505,-18.2832 9.4989,-14.783 42.0162,-37.7064 63.2696,-49.8589 38.7598,-22.1624 78.7603,-32.5649 118.6633,-31.1156 41.1701,1.4956 82.2374,15.5333 121.7311,37.3343 22.1618,12.2338 42.1979,26.7517 56.7983,42.3283 6.5532,6.9931 9.4825,19.5412 2.7258,27.6163 -9.5947,11.4641 -17.6406,24.5684 -25.8032,35.68"
               inkscape:connector-curvature="0" />
          </g>
        </g>
      </g>
      <path
         id="path3045"
         style="fill:#ffe600;fill-opacity:1;fill-rule:evenodd;stroke:none"
         d="m 413.03904,596.89053 c 4.20944,-3.43841 7.97716,-8.66503 12.86287,-13.99092 8.14382,-8.87694 18.83475,-18.75857 24.11563,-28.96192 -8.75298,6.8665 -20.45526,9.05744 -29.22183,16.22221 3.62938,-11.48705 8.50929,-24.58745 7.44107,-35.29769 -8.18337,14.98895 -17.99832,24.99423 -28.78453,36.2443 -4.55803,4.75419 -9.25701,9.37015 -13.70122,14.1608 -4.0718,4.3896 -8.53112,9.08159 -11.35009,14.43132 -5.28027,10.02025 3.41775,16.01956 11.56302,8.30182 4.61629,-4.37341 7.10331,-10.4009 11.54149,-14.90796 2.52726,-2.56669 5.01382,-4.32724 8.62228,-3.6977 1.59928,0.27901 2.6417,1.1401 3.27712,2.35876 1.21778,1.66021 2.43228,3.3785 3.63419,5.13698 z m -241.46458,-0.29329 c 0.82407,-1.3595 2.22905,-2.28402 4.36046,-2.38413 5.59817,-0.26258 9.80929,5.2834 12.39236,9.5181 2.31906,3.80194 5.28088,7.20771 9.03027,9.2047 9.20808,4.90437 13.29002,-2.67269 7.90746,-9.08381 -2.51795,-3.00083 -4.94916,-6.07381 -7.47901,-9.06256 -4.68058,-5.52947 -9.73028,-10.74532 -14.82701,-15.8875 -5.64856,-5.69867 -11.36269,-11.32733 -16.70327,-17.33534 -5.51763,-6.20769 -10.57672,-12.56165 -15.0536,-19.2423 -0.49495,9.98089 2.96631,21.09272 6.99291,32.36633 -8.95949,-5.2277 -17.91914,-8.52366 -26.87901,-9.88729 4.02766,3.8886 7.81744,7.89266 11.51095,12.00387 5.09261,5.66902 9.89068,11.37051 15.65436,16.41281 3.12519,2.7342 6.55225,5.45427 9.9545,8.07584 1.08701,-1.59304 2.1366,-3.16331 3.13993,-4.70476"
         inkscape:connector-curvature="0" />
      <path
         id="path3047"
         style="fill:none;stroke:#000000;stroke-width:1.29999995;stroke-linecap:butt;stroke-linejoin:miter;stroke-miterlimit:10;stroke-opacity:1;stroke-dasharray:none"
         d="m 168.43385,601.29855 c -3.40027,-2.62416 -6.82687,-5.34377 -9.95252,-8.07843 -5.76414,-5.04276 -10.56175,-10.74379 -15.65436,-16.41281 -3.69351,-4.11121 -7.48329,-8.11527 -11.51095,-12.00387 8.95987,1.36363 17.91952,4.65959 26.87901,9.88729 -4.0266,-11.27361 -7.48786,-22.38544 -6.99291,-32.36633 4.47688,6.68065 9.53597,13.03461 15.0536,19.2423 5.34058,6.00801 11.05471,11.63667 16.70327,17.33534 5.09673,5.14218 10.14643,10.35802 14.82701,15.8875 2.52985,2.98875 4.96106,6.06173 7.47901,9.06256 5.38256,6.41112 1.30062,13.98818 -7.90746,9.08381 -3.74939,-1.99699 -6.71121,-5.40277 -9.03027,-9.2047 -2.58307,-4.2347 -6.79419,-9.78068 -12.39236,-9.51811 -4.8719,0.22895 -5.94745,4.76437 -4.96946,8.95619 0.51899,2.22411 1.47766,4.36255 2.33486,5.75109 7.57139,12.26583 23.00954,24.22851 36.71229,32.84662 26.84825,16.88584 53.01811,25.16473 79.05046,24.5306 27.71241,-0.67494 55.27006,-11.33229 83.32778,-28.41812 13.82505,-8.41904 28.95675,-21.28568 35.80965,-33.96716 1.94795,-3.60478 4.13196,-13.43467 -2.07277,-14.51753 -3.60846,-0.62969 -6.09502,1.13101 -8.62228,3.6977 -4.43818,4.50706 -6.9252,10.53455 -11.54149,14.90796 -8.14527,7.71774 -16.84329,1.71843 -11.56302,-8.30182 2.81897,-5.34973 7.27829,-10.04172 11.35009,-14.43132 4.44421,-4.79065 9.14319,-9.40661 13.70122,-14.16081 10.78621,-11.25006 20.60116,-21.25534 28.78453,-36.2443 1.06822,10.71025 -3.81169,23.81065 -7.44107,35.2977 8.76657,-7.16477 20.46885,-9.35571 29.22183,-16.22221 -5.28088,10.20335 -15.97143,20.08451 -24.11563,28.96192 -4.88617,5.32627 -8.65343,10.55251 -12.88104,13.99421 m -3.61281,-5.10688 c 6.23244,8.46711 12.3751,18.48133 19.7002,27.24211 5.15842,6.17094 2.92203,15.76011 -2.08102,21.10419 -11.14671,11.90353 -26.44332,22.998 -43.3628,32.34699 -30.15156,16.66017 -61.50449,27.38769 -92.9359,28.53061 -30.46404,1.10755 -61.00252,-6.84197 -90.59378,-23.77832 -16.22596,-9.28686 -41.05137,-26.80477 -48.30333,-38.10183 -2.64177,-4.11518 -4.00598,-9.74583 -0.80201,-13.9719 7.11431,-9.38314 14.62615,-19.47102 20.54634,-28.56759 m 20.94776,32.7731 c 2.9341,-6.61669 5.99203,-10.73141 12.30082,-15.23502 m 171.87482,-2.88797 c 5.14872,3.98687 8.68465,7.27932 12.88257,14.20322"
         inkscape:connector-curvature="0" />
      <path
         id="path3049"
         style="fill:#000000;fill-opacity:1;fill-rule:evenodd;stroke:none"
         d="m 167.10812,585.01123 c 0.84056,2.12071 2.31455,0.92475 3.43339,1.78018 0.90546,0.69237 1.29176,2.6088 0.6923,3.35741 -0.59946,0.74868 -2.47252,0.92849 -3.57341,0.004 -1.21298,-1.01837 -1.82801,-3.38171 -0.55228,-5.14195 z m -0.48472,-6.05585 c 0.84048,2.12071 2.31448,0.92475 3.43332,1.78019 0.90553,0.69228 1.29176,2.60872 0.6923,3.3574 -0.59946,0.74868 -2.47244,0.92842 -3.57334,0.004 -1.21298,-1.01836 -1.82809,-3.3817 -0.55228,-5.14195 z m -6.67395,-0.71032 c 0.84056,2.12071 2.31456,0.92475 3.4334,1.78019 0.90545,0.69236 1.29176,2.6088 0.69229,3.3574 -0.59946,0.74869 -2.47251,0.92842 -3.57341,0.004 -1.21297,-1.01836 -1.82801,-3.38171 -0.55228,-5.14195 z m 1.15564,6.28006 c 0.84056,2.12072 2.31455,0.92475 3.4334,1.78019 0.90545,0.69236 1.29176,2.6088 0.6923,3.35741 -0.59947,0.74867 -2.47252,0.92849 -3.57342,0.004 -1.21297,-1.01837 -1.82801,-3.38171 -0.55228,-5.14195"
         inkscape:connector-curvature="0" />
      <path
         id="path3051"
         style="fill:#000000;fill-opacity:1;fill-rule:evenodd;stroke:none"
         d="m 407.057,579.62451 c -0.84056,2.12071 -2.31455,0.92475 -3.4334,1.78018 -0.90545,0.69236 -1.29176,2.60881 -0.69229,3.35741 0.59946,0.74868 2.47251,0.92842 3.57341,0.005 1.21297,-1.01836 1.82801,-3.38171 0.55228,-5.14195 z m 0.48479,-6.05585 c -0.84056,2.12071 -2.31455,0.92475 -3.43339,1.78019 -0.90546,0.69228 -1.29176,2.60872 -0.6923,3.35741 0.59946,0.74859 2.47251,0.92841 3.57334,0.005 1.21305,-1.01837 1.82808,-3.38172 0.55235,-5.14196 z m 6.67388,-0.71032 c -0.84056,2.12071 -2.31448,0.92475 -3.4334,1.78019 -0.90545,0.69228 -1.29176,2.6088 -0.6923,3.3574 0.59947,0.74869 2.47252,0.92842 3.57342,0.005 1.21297,-1.01837 1.82801,-3.38171 0.55228,-5.14195 z m -1.15564,6.28006 c -0.84056,2.12072 -2.31448,0.92475 -3.4334,1.78019 -0.90545,0.69236 -1.29176,2.60881 -0.6923,3.3574 0.59946,0.74869 2.47252,0.9285 3.57342,0.005 1.21297,-1.01837 1.82801,-3.38171 0.55228,-5.14195"
         inkscape:connector-curvature="0" />
      <path
         id="path3053"
         style="fill:#000000;fill-opacity:1;fill-rule:nonzero;stroke:none"
         d="m 162.58489,617.19797 6.14548,5.94038 c 0.91149,0.88126 1.53218,1.79455 1.85916,2.73183 0.40081,1.17388 0.42158,2.50587 0.0586,3.99299 -0.36264,1.48712 -1.17006,2.87933 -2.42418,4.1793 -1.03425,1.07185 -2.13233,1.88029 -3.29468,2.414 -0.88622,0.41809 -1.83015,0.62106 -2.83196,0.60891 -0.9992,-0.01 -1.99421,-0.25448 -2.98257,-0.73714 -0.74055,-0.35978 -1.57768,-0.9936 -2.51688,-1.90147 l -5.50273,-5.31916 0.5835,-0.60478 1.12572,1.08828 c 0.28568,0.27596 0.52571,0.42306 0.72565,0.43605 0.19736,0.0151 0.39021,-0.0745 0.57588,-0.26708 l 9.25159,-9.58963 c 0.1617,-0.16767 0.22873,-0.35787 0.20628,-0.57101 -0.0228,-0.21321 -0.13703,-0.41915 -0.34844,-0.62365 l -1.21365,-1.17304 0.5832,-0.60478 z m 3.72793,4.77193 c -0.23911,-0.2311 -0.46524,-0.35398 -0.67886,-0.36369 -0.21315,-0.01 -0.41944,0.0883 -0.61549,0.29178 l -9.167,9.5019 c -0.18827,0.19494 -0.26294,0.40441 -0.224,0.63343 0.0392,0.22895 0.21949,0.49864 0.5406,0.80906 l 1.01325,0.97954 c 0.90637,0.87607 1.9252,1.40956 3.05687,1.60045 0.74467,0.11937 1.50377,0.009 2.27814,-0.33166 1.05563,-0.45622 2.22516,-1.35499 3.52165,-2.6989 1.91459,-1.98446 2.97419,-3.77549 3.17047,-5.36532 0.16246,-1.35125 -0.35302,-2.5988 -1.54195,-3.74814 l -1.35368,-1.30845 z m 7.37465,6.57878 5.75612,5.00852 -0.55075,0.63428 -0.98813,-0.85979 c -0.43785,-0.38103 -0.76498,-0.56925 -0.97562,-0.55992 -0.2101,0.009 -0.46807,0.18975 -0.77864,0.54738 l -8.21689,9.46163 c -0.32791,0.37752 -0.48151,0.65919 -0.46334,0.84222 0.0229,0.24737 0.21247,0.52401 0.56694,0.83228 l 1.10632,0.96266 -0.55099,0.63443 -5.75635,-5.00867 0.55098,-0.63452 1.08922,0.94776 c 0.38027,0.33074 0.67543,0.49168 0.88561,0.47693 0.2101,-0.0147 0.48059,-0.20962 0.80849,-0.5872 l 8.21689,-9.46163 c 0.31293,-0.36047 0.45624,-0.63061 0.4283,-0.80195 -0.0431,-0.26509 -0.27874,-0.58185 -0.69941,-0.94767 l -0.97951,-0.85246 0.55076,-0.63428 z m 6.91955,5.81138 10.60031,8.2899 -3.34744,4.65516 -0.61076,-0.47763 c 0.94485,-1.76292 1.35559,-3.07106 1.23184,-3.92436 -0.13117,-0.98 -0.71437,-1.87747 -1.74602,-2.68438 l -2.09072,-1.63506 c -0.20452,-0.15988 -0.39264,-0.22919 -0.56098,-0.20573 -0.16857,0.0234 -0.33172,0.13343 -0.48212,0.326 l -3.68274,4.71821 1.11883,0.87493 c 0.62291,0.48717 1.27902,0.67042 1.97093,0.54739 0.68971,-0.12021 1.38697,-0.59806 2.084,-1.43485 l 0.6345,0.49627 -4.59201,5.88321 -0.63473,-0.49627 c 0.72451,-1.00904 1.06608,-1.86211 1.03486,-2.56073 -0.0338,-0.69534 -0.36569,-1.29431 -1.00043,-1.79058 l -1.11884,-0.87493 -3.88483,4.97712 c -0.22789,0.29177 -0.32095,0.55365 -0.27354,0.7846 0.0472,0.23116 0.24408,0.48175 0.59015,0.75234 l 1.35948,1.06315 -0.51724,0.66263 -6.26551,-4.89993 0.51701,-0.66263 1.33872,1.04687 c 0.27049,0.21168 0.50533,0.30804 0.70444,0.28924 0.19888,-0.0191 0.39448,-0.15207 0.58732,-0.39906 l 8.09618,-10.3727 c 0.18568,-0.23782 0.25469,-0.45033 0.21209,-0.64398 -0.0407,-0.19648 -0.21361,-0.40946 -0.51418,-0.64445 l -1.27535,-0.99758 0.51678,-0.66217 z m 11.21191,8.76209 11.40766,7.13527 -2.84302,4.97994 -0.65718,-0.41091 c 0.75544,-1.8521 1.02753,-3.19608 0.81521,-4.0318 -0.23285,-0.9609 -0.90637,-1.79249 -2.01673,-2.48699 l -2.24982,-1.40719 c -0.22033,-0.13778 -0.41463,-0.18715 -0.57954,-0.14619 -0.16513,0.0411 -0.31599,0.16744 -0.4454,0.37477 l -3.16977,5.07759 1.20411,0.75319 c 0.67024,0.41917 1.34177,0.53288 2.01712,0.33816 0.67329,-0.19174 1.31688,-0.73981 1.9226,-1.64508 l 0.68306,0.42718 -3.95254,6.33142 -0.68306,-0.42696 c 0.61511,-1.07942 0.86567,-1.96367 0.76177,-2.65511 -0.1062,-0.688 -0.49876,-1.24884 -1.18198,-1.67625 l -1.20411,-0.75296 -3.34377,5.35622 c -0.19614,0.31409 -0.26149,0.58439 -0.19003,0.80906 0.0709,0.22482 0.29302,0.45362 0.66543,0.68647 l 1.46293,0.9152 -0.44495,0.71292 -6.74311,-4.21758 0.44517,-0.71292 1.4404,0.90091 c 0.29126,0.18218 0.53496,0.25363 0.73086,0.21404 0.19582,-0.0399 0.37676,-0.19257 0.54251,-0.45821 l 6.96864,-11.1631 c 0.15971,-0.25585 0.20628,-0.47464 0.14375,-0.66263 -0.0608,-0.19112 -0.25514,-0.38477 -0.57869,-0.58728 l -1.37254,-0.85849 0.44502,-0.71269 z m 11.84397,7.90023 11.77817,5.75017 -2.16493,5.15822 -0.6726,-0.32822 c 0.50396,-1.71385 0.61717,-3.0275 0.34538,-3.94247 -0.27377,-0.91153 -0.8743,-1.59609 -1.80426,-2.04987 l -2.91616,-1.42392 c -0.23347,-0.11395 -0.44189,-0.13901 -0.6239,-0.0704 -0.182,0.0682 -0.33912,0.23399 -0.46639,0.49481 l -2.58367,5.30266 1.27611,0.62297 c 0.68306,0.33342 1.35757,0.36093 2.02216,0.0776 0.66336,-0.28008 1.25954,-0.92001 1.78762,-1.91621 l 0.69291,0.33838 -3.3585,6.89241 -0.69291,-0.33831 c 0.52113,-1.15699 0.68619,-2.08808 0.49319,-2.79053 -0.19132,-0.70558 -0.65749,-1.23914 -1.40216,-1.60258 l -1.16648,-0.56948 -2.88326,5.91722 c -0.10359,0.2129 -0.11207,0.41289 -0.0231,0.59675 0.0873,0.18701 0.3008,0.35918 0.63694,0.52317 l 2.29868,1.1223 c 2.50107,1.2211 4.7202,0.32753 6.65555,-2.67674 l 0.7239,0.35351 -2.9512,5.4205 -12.25195,-5.98133 0.36836,-0.75556 1.01211,0.49404 c 0.39799,0.19434 0.70917,0.26128 0.93729,0.20259 0.22835,-0.0585 0.40425,-0.21901 0.53151,-0.48029 l 5.74636,-11.79326 c 0.12704,-0.26082 0.15063,-0.49176 0.0718,-0.68739 -0.0789,-0.19602 -0.26836,-0.36498 -0.57022,-0.51254 l -1.2145,-0.59286 0.36813,-0.75533 z m 13.36515,7.00375 7.86746,3.34273 c 1.52133,0.64659 2.55794,1.4979 3.10396,2.54767 0.54602,1.04977 0.58129,2.13959 0.10391,3.2654 -0.28637,0.67493 -0.70856,1.20131 -1.26107,1.58516 -0.55747,0.38584 -1.21641,0.59966 -1.97452,0.64712 -0.762,0.0457 -1.84473,-0.14864 -3.24856,-0.58316 0.87041,0.68518 1.4333,1.23555 1.69341,1.64913 0.26362,0.41504 0.417,0.87447 0.46876,1.37815 0.0485,0.50192 -0.0485,1.44463 -0.29431,2.82606 -0.17315,0.98497 -0.21621,1.69307 -0.12124,2.12377 0.0684,0.32792 0.20819,0.53654 0.41532,0.62473 0.21102,0.0896 0.47326,0.0184 0.7888,-0.21711 0.31553,-0.23522 0.66199,-0.73973 1.0347,-1.51112 l 0.70292,0.2985 c -1.12388,2.27882 -2.48008,3.08054 -4.0718,2.4043 -0.49907,-0.21191 -0.88102,-0.52362 -1.13922,-0.93216 -0.25988,-0.41374 -0.37936,-0.90419 -0.35165,-1.47779 0.0124,-0.43063 0.26377,-1.47345 0.75162,-3.12196 0.28561,-0.95769 0.39516,-1.67511 0.33783,-2.15602 -0.0624,-0.47869 -0.27897,-0.93621 -0.65146,-1.36837 -0.3744,-0.43719 -0.89095,-0.79368 -1.55141,-1.07445 l -1.24397,-0.52837 -2.53848,5.98639 c -0.10886,0.25669 -0.12032,0.45943 -0.0351,0.62014 0.10993,0.20037 0.33951,0.3724 0.691,0.52187 l 1.46186,0.62106 -0.32837,0.77374 -7.07315,-3.00518 0.32805,-0.77398 1.49347,0.63451 c 0.3305,0.1403 0.59969,0.18019 0.80941,0.11562 0.21117,-0.0678 0.3631,-0.21099 0.46006,-0.43949 l 5.16514,-12.18024 c 0.11031,-0.26013 0.11291,-0.49153 0.0101,-0.68862 -0.10299,-0.19731 -0.31508,-0.36238 -0.63825,-0.49978 l -1.49339,-0.63443 0.32806,-0.77382 z m 1.6744,8.98011 1.799,0.76419 c 1.20848,0.51361 2.25066,0.68671 3.12627,0.51904 0.87911,-0.1659 1.56316,-0.83006 2.05979,-2.00134 0.34004,-0.80194 0.47983,-1.49385 0.42181,-2.07051 -0.0597,-0.57314 -0.26118,-1.0367 -0.60618,-1.38678 -0.3486,-0.35138 -1.13526,-0.78528 -2.36495,-1.30777 -0.80827,-0.34334 -1.33436,-0.50062 -1.57203,-0.46875 -0.24101,0.0306 -0.41913,0.18715 -0.53555,0.46142 l -2.32816,5.4905 z m 13.25369,-2.02435 12.53192,3.83526 -1.33223,5.43379 -0.71566,-0.21902 c 0.23004,-1.77177 0.13659,-3.08665 -0.27506,-3.94797 -0.41265,-0.85758 -1.11297,-1.43943 -2.10217,-1.74229 l -3.10298,-0.94943 c -0.24843,-0.076 -0.45814,-0.0682 -0.6271,0.0279 -0.16925,0.0959 -0.29843,0.2842 -0.38333,0.56191 l -1.72326,5.64189 1.35803,0.41549 c 0.72642,0.22222 1.39712,0.14359 2.0091,-0.24027 0.61137,-0.38033 1.10029,-1.10586 1.46598,-2.17244 l 0.73757,0.22566 -2.23989,7.33351 -0.7375,-0.22544 c 0.33394,-1.22439 0.35142,-2.16992 0.0511,-2.83347 -0.29934,-0.66692 -0.84315,-1.121 -1.63523,-1.3634 l -1.24115,-0.37996 -1.92298,6.29588 c -0.0692,0.22681 -0.0461,0.4255 0.0703,0.59317 0.11536,0.17087 0.35318,0.30759 0.7107,0.41694 l 2.44587,0.74868 c 2.66125,0.81425 4.71325,-0.41549 6.15542,-3.68608 l 0.77024,0.23575 -2.06789,5.81605 -13.03572,-3.98932 0.2456,-0.80409 1.07686,0.32968 c 0.42356,0.12952 0.74146,0.14711 0.95767,0.0534 0.21613,-0.0936 0.36485,-0.2797 0.44968,-0.55764 l 3.83268,-12.54781 c 0.0846,-0.27749 0.0718,-0.50949 -0.0367,-0.69038 -0.10856,-0.18104 -0.32195,-0.31844 -0.64313,-0.41679 l -1.29245,-0.39532 0.24568,-0.80385 z m 14.42833,4.43836 3.86078,0.82143 7.05873,14.79914 1.95551,-9.20945 c 0.19697,-0.92674 0.12918,-1.65608 -0.19827,-2.19049 -0.30103,-0.49366 -0.83163,-0.82533 -1.59386,-1.00338 l 0.17468,-0.82204 5.65291,1.20284 -0.17468,0.82212 c -0.5748,-0.12243 -1.02081,-0.13519 -1.33871,-0.0349 -0.31814,0.10056 -0.63,0.33884 -0.9334,0.7194 -0.29889,0.37805 -0.50167,0.8193 -0.60878,1.32382 l -2.73171,12.86427 -1.03081,-0.2194 -7.28509,-15.38626 -2.07384,9.76623 c -0.18804,0.8857 -0.10368,1.59105 0.24865,2.11919 0.3521,0.52813 0.99157,0.89854 1.92199,1.1119 l -0.17467,0.8225 -6.16839,-1.3125 0.17467,-0.82227 c 0.77926,0.13449 1.44476,0.0146 1.99811,-0.36781 0.55358,-0.38217 0.90591,-0.92047 1.05349,-1.61558 l 2.33181,-10.98077 -0.14475,-0.23789 c -0.28263,-0.47028 -0.49021,-0.76053 -0.62825,-0.86407 -0.19063,-0.14994 -0.45272,-0.2567 -0.78902,-0.32815 l -0.73169,-0.15582 0.17459,-0.82204 z m 17.07034,3.53637 13.34423,1.40391 -0.33095,6.25843 -0.76696,-0.0809 c -0.12071,-3.71245 -1.24543,-5.68262 -3.38294,-5.90744 -0.42891,-0.0451 -0.73299,-2.3e-4 -0.90805,0.13121 -0.17506,0.13129 -0.28026,0.36612 -0.31614,0.70818 l -1.38185,13.15933 c -0.0279,0.26601 0.031,0.47204 0.17361,0.61388 0.14215,0.14557 0.39019,0.23308 0.74703,0.27059 l 1.65509,0.17416 -0.0879,0.83618 -7.63819,-0.8037 0.0879,-0.83618 1.89054,0.19892 c 0.25041,0.0263 0.45059,-0.0139 0.59687,-0.12892 0.14605,-0.1118 0.23201,-0.27167 0.25362,-0.47678 l 1.40169,-13.34954 c 0.0294,-0.28114 -0.0355,-0.50299 -0.19063,-0.66935 -0.15216,-0.16201 -0.42158,-0.26342 -0.79727,-0.30285 -1.07838,-0.11348 -2.02781,0.30155 -2.85211,1.24449 -0.68382,0.77336 -1.24779,2.05101 -1.69555,3.82861 l -0.81224,-0.0854 1.0102,-6.18691 z m 14.74983,1.24686 7.61635,0.39945 -0.0439,0.83939 -1.30734,-0.0687 c -0.57961,-0.0303 -0.95309,0.023 -1.11326,0.15987 -0.15994,0.13695 -0.25232,0.43827 -0.27698,0.91138 l -0.6555,12.5194 c -0.0262,0.49978 0.026,0.81646 0.15299,0.94928 0.1701,0.18103 0.48976,0.28198 0.95867,0.30651 l 1.46361,0.0769 -0.044,0.83939 -7.61635,-0.39944 0.0439,-0.83962 1.44109,0.0756 c 0.50296,0.0265 0.83476,-0.0288 0.99119,-0.16981 0.15643,-0.14099 0.24973,-0.46141 0.27591,-0.96112 l 0.6555,-12.51947 c 0.0249,-0.47678 -0.0281,-0.7781 -0.15582,-0.89594 -0.19689,-0.18219 -0.57732,-0.28658 -1.13396,-0.31584 l -1.29611,-0.068 0.044,-0.83917 z m 15.50114,0.004 0.74788,-0.0262 6.46399,14.92958 c 0.25775,0.60265 0.75681,0.89097 1.49301,0.86514 l 0.51533,-0.018 0.0292,0.84031 -6.59211,0.23048 -0.0294,-0.84031 0.52259,-0.0182 c 0.68672,-0.0241 1.16861,-0.11348 1.4459,-0.27227 0.19064,-0.11356 0.28042,-0.27733 0.27309,-0.49131 -0.004,-0.12976 -0.0323,-0.26257 -0.0905,-0.40204 l -1.49607,-3.46531 -6.52736,0.22834 -0.70016,2.04315 c -0.18369,0.54158 -0.27156,0.97305 -0.26072,1.28606 0.0128,0.36284 0.19537,0.66981 0.54403,0.92154 0.34868,0.24783 0.8453,0.36047 1.49393,0.3377 l 0.55679,-0.0195 0.0294,0.84031 -5.98967,0.20924 -0.0293,-0.84031 c 0.64084,-0.0223 1.14357,-0.17737 1.50759,-0.47311 0.36027,-0.29154 0.68512,-0.83442 0.97058,-1.62812 l 5.12185,-14.23722 z m -0.21301,3.19968 -2.70689,7.47763 5.84835,-0.2045 -3.14146,-7.27313 z m 24.1022,-3.80232 0.79727,-1.57049 0.80872,-0.11395 0.90699,5.96507 -0.73315,0.10316 c -0.71459,-1.76704 -1.57943,-3.0113 -2.59306,-3.72528 -1.01822,-0.7172 -2.1092,-0.99208 -3.27346,-0.82832 -0.97516,0.13733 -1.73197,0.54067 -2.27012,1.21087 -0.53801,0.66981 -0.74773,1.42866 -0.62917,2.27217 0.0731,0.52225 0.25538,0.9674 0.54862,1.32749 0.29019,0.36428 0.68688,0.63642 1.1903,0.81638 0.5038,0.18394 1.42544,0.32432 2.76507,0.42138 1.87779,0.14099 3.21612,0.36543 4.00622,0.66737 0.7901,0.30155 1.41445,0.73852 1.86007,1.3047 0.44967,0.56566 0.7323,1.26291 0.84873,2.09153 0.20713,1.47557 -0.11963,2.77188 -0.9734,3.88355 -0.85766,1.11236 -2.07109,1.77674 -3.64373,1.99813 -1.69341,0.23805 -3.23711,-0.10401 -4.63813,-1.02203 l -1.036,1.70851 -0.79766,0.11218 -0.89209,-6.35304 0.79773,-0.11219 c 0.55595,1.70828 1.44148,2.99197 2.66124,3.85429 1.22313,0.85849 2.50772,1.19489 3.85704,1.00491 1.09273,-0.15352 1.93955,-0.60088 2.54032,-1.3452 0.59724,-0.74364 0.83445,-1.57959 0.70482,-2.50304 -0.0734,-0.5221 -0.2666,-0.96572 -0.58306,-1.32618 -0.31247,-0.35742 -0.771,-0.63253 -1.36833,-0.82227 -0.59793,-0.19365 -1.74732,-0.36391 -3.44958,-0.51797 -1.87069,-0.17287 -3.17047,-0.48022 -3.90254,-0.91734 -1.02868,-0.62695 -1.6396,-1.62904 -1.83351,-3.01024 -0.20254,-1.44134 0.0928,-2.68697 0.88232,-3.7356 0.78972,-1.04871 1.90031,-1.67557 3.333,-1.87724 0.68818,-0.0968 1.35903,-0.0678 2.01346,0.0912 0.65397,0.1549 1.35391,0.47311 2.09507,0.94752 z m 3.65006,-2.40255 7.91135,-1.97452 c 1.78908,-0.44644 3.25284,-0.38255 4.39573,0.19457 1.14289,0.57704 1.8739,1.52105 2.20073,2.83339 0.32607,1.30884 0.14193,2.41791 -0.55404,3.32011 -0.95614,1.24694 -2.31196,2.08939 -4.06011,2.52567 l -2.86684,0.71544 1.36581,5.48339 c 0.0794,0.31859 0.21446,0.5292 0.40036,0.62839 0.24369,0.12434 0.53884,0.14122 0.87583,0.057 l 1.8261,-0.45584 0.20316,0.81585 -7.6969,1.92095 -0.203,-0.81578 1.60752,-0.4012 c 0.31859,-0.0795 0.53625,-0.2006 0.65291,-0.36367 0.11665,-0.16316 0.14742,-0.35589 0.094,-0.57078 l -3.18971,-12.80558 c -0.0814,-0.32624 -0.23308,-0.54052 -0.45792,-0.6378 -0.22491,-0.0974 -0.59816,-0.0793 -1.11647,0.0501 l -1.18556,0.29589 -0.20293,-0.81554 z m 6.82924,6.82119 2.18149,-0.54456 c 1.38154,-0.34465 2.30585,-0.88257 2.77369,-1.60978 0.46815,-0.72712 0.53824,-1.75657 0.20866,-3.08008 -0.23095,-0.92696 -0.54534,-1.60457 -0.94699,-2.03214 -0.39669,-0.42458 -0.89293,-0.69473 -1.48156,-0.7998 -0.59259,-0.10416 -1.49721,-0.008 -2.71186,0.29482 -0.80376,0.2006 -1.29176,0.40533 -1.46514,0.60983 -0.17704,0.20557 -0.2188,0.49558 -0.12444,0.87385 l 1.56615,6.28786 z m 7.75301,-10.93896 12.53214,-3.83503 1.93108,5.25046 -0.71573,0.21894 c -0.79896,-1.59754 -1.61112,-2.63539 -2.43351,-3.11913 -0.82132,-0.47976 -1.72678,-0.57031 -2.71621,-0.26746 l -3.1029,0.94943 c -0.2482,0.076 -0.41791,0.19991 -0.50426,0.3743 -0.0867,0.17416 -0.0887,0.40273 -0.004,0.68044 l 1.72335,5.64188 1.35772,-0.41572 c 0.72673,-0.22223 1.23878,-0.66286 1.53179,-1.32373 0.29431,-0.65744 0.29431,-1.53259 0.001,-2.62157 l 0.73727,-0.22574 2.23989,7.3335 -0.73734,0.22575 c -0.40707,-1.20177 -0.9208,-1.99554 -1.54065,-2.37741 -0.62046,-0.38561 -1.32505,-0.45752 -2.11736,-0.21512 l -1.24114,0.37973 1.92306,6.29588 c 0.0692,0.22681 0.19933,0.3785 0.38951,0.45232 0.19132,0.0771 0.46487,0.0574 0.82239,-0.052 l 2.44587,-0.74845 c 2.66125,-0.81448 3.67534,-2.98287 3.04389,-6.50122 l 0.77017,-0.23568 1.53477,5.97897 -13.03572,3.98932 -0.24568,-0.80393 1.07708,-0.32967 c 0.42356,-0.12954 0.69665,-0.29292 0.82369,-0.49153 0.1268,-0.19862 0.14604,-0.43628 0.0612,-0.71399 l -3.83246,-12.54805 c -0.0848,-0.27748 -0.22507,-0.46249 -0.41593,-0.55175 -0.19109,-0.0894 -0.44494,-0.0838 -0.76605,0.0145 l -1.29222,0.3954 -0.2456,-0.8037 z m 25.98257,-8.0102 0.0848,-1.77522 0.64664,-0.27473 2.87028,6.01543 -0.6923,0.29413 c -1.18396,-1.53083 -2.2918,-2.55874 -3.32453,-3.08688 -1.28435,-0.66217 -2.51618,-0.74081 -3.69671,-0.23935 -1.27901,0.5435 -2.07392,1.55384 -2.39549,3.03507 -0.31767,1.48002 0.097,3.58269 1.24978,6.30154 0.97103,2.28967 2.17125,3.83877 3.60174,4.65042 1.21496,0.68349 2.52596,0.72423 3.9385,0.12418 1.23679,-0.52554 2.10628,-1.35995 2.60535,-2.51022 0.4993,-1.15004 0.54038,-2.57915 0.11475,-4.28674 l 0.73101,-0.31064 c 0.5551,1.90581 0.52716,3.56144 -0.0892,4.97321 -0.61482,1.41536 -1.70556,2.45145 -3.27277,3.11737 -1.2684,0.53899 -2.56925,0.71812 -3.8985,0.5273 -1.3326,-0.18914 -2.56855,-0.74739 -3.71312,-1.67664 -1.14465,-0.92888 -2.0172,-2.10665 -2.62269,-3.53447 -0.64428,-1.5196 -0.92172,-3.08291 -0.8298,-4.69505 0.0881,-1.61054 0.50273,-2.96989 1.24206,-4.07246 0.7375,-1.10648 1.69922,-1.90934 2.87974,-2.41103 0.65726,-0.27916 1.34437,-0.43842 2.05637,-0.4709 0.71374,-0.0377 1.55408,0.066 2.51404,0.30568 z m 2.47099,-3.12265 6.85504,-3.34678 0.36814,0.75556 -1.17687,0.57452 c -0.52151,0.25447 -0.82231,0.48236 -0.89614,0.67998 -0.0736,0.19731 -0.008,0.50559 0.19911,0.93147 l 5.49037,11.26795 c 0.21919,0.44973 0.41807,0.70122 0.59358,0.75602 0.23652,0.0756 0.56489,0.009 0.98684,-0.19731 l 1.3175,-0.64315 0.36813,0.75556 -6.85504,3.34678 -0.36813,-0.75556 1.29695,-0.63321 c 0.45273,-0.22116 0.71612,-0.43039 0.78475,-0.62969 0.0683,-0.19931 -0.005,-0.52462 -0.22422,-0.97435 l -5.49037,-11.26803 c -0.20926,-0.42909 -0.40165,-0.66675 -0.57022,-0.70795 -0.26057,-0.0639 -0.64383,0.0295 -1.14465,0.27404 l -1.16663,0.56956 -0.36814,-0.75541 z m 7.85448,-4.00139 11.40789,-7.13535 3.2252,4.74098 -0.65703,0.41114 c -1.33199,-1.49163 -2.41945,-2.32544 -3.26284,-2.5009 -0.96501,-0.21183 -2.00704,0.0297 -3.11718,0.72422 l -2.25005,1.40712 c -0.2201,0.13778 -0.3495,0.29115 -0.385,0.45729 -0.0357,0.16659 0.0117,0.35764 0.14108,0.5652 l 3.16978,5.0776 1.20412,-0.75319 c 0.67023,-0.41916 1.06669,-0.97373 1.18793,-1.6667 0.12291,-0.68969 -0.087,-1.50898 -0.63435,-2.45085 l 0.68298,-0.42718 3.95255,6.33164 -0.68299,0.42719 c -0.6994,-1.02654 -1.38352,-1.63958 -2.05002,-1.84912 -0.6642,-0.20618 -1.34001,-0.0987 -2.02307,0.32845 l -1.20427,0.75319 3.34377,5.35638 c 0.19628,0.31409 0.41005,0.4913 0.64313,0.52577 0.23308,0.0344 0.53587,-0.0648 0.90805,-0.29789 l 1.46316,-0.91497 0.44516,0.71284 -6.74311,4.21766 -0.44494,-0.71292 1.44041,-0.90113 c 0.29125,-0.18219 0.46204,-0.37002 0.51242,-0.56367 0.0502,-0.19341 -0.008,-0.42328 -0.17353,-0.68884 l -6.96864,-11.16318 c -0.15972,-0.25578 -0.33592,-0.39333 -0.5322,-0.41955 -0.19819,-0.029 -0.45724,0.0606 -0.78079,0.26319 l -1.37268,0.85842 -0.44494,-0.71284 z m 12.21401,-7.86293 6.24764,-4.37883 0.48174,0.68846 -1.07257,0.75166 c -0.47526,0.33312 -0.73689,0.60525 -0.77888,0.81188 -0.0418,0.20641 0.0708,0.50085 0.34218,0.88884 l 7.18378,10.26953 c 0.28676,0.40991 0.52258,0.6274 0.70444,0.65376 0.24537,0.0378 0.55915,-0.0797 0.94393,-0.34939 l 1.20068,-0.84153 0.48174,0.68885 -6.24763,4.37875 -0.48174,-0.68862 1.18205,-0.82861 c 0.41272,-0.28917 0.63992,-0.537 0.6765,-0.74471 0.0366,-0.20755 -0.0867,-0.51728 -0.37348,-0.92712 l -7.18402,-10.26945 c -0.27354,-0.39104 -0.50059,-0.59576 -0.67367,-0.61006 -0.26728,-0.0223 -0.63129,0.12999 -1.08769,0.44996 l -1.06349,0.74517 -0.48151,-0.68839 z m 18.1762,-10.71239 -0.34668,-1.74297 0.56113,-0.42328 4.23869,5.14172 -0.60053,0.45301 c -1.51881,-1.19855 -2.84218,-1.92775 -3.97186,-2.1901 -1.4062,-0.33158 -2.62047,-0.10958 -3.6448,0.66309 -1.10975,0.83702 -1.63669,2.00983 -1.5908,3.52492 0.0493,1.51287 0.95996,3.4527 2.73583,5.81168 1.49545,1.98668 3.03434,3.19892 4.61866,3.63994 1.34398,0.3691 2.62574,0.0912 3.85131,-0.83313 1.07318,-0.80951 1.71502,-1.82963 1.92153,-3.06648 0.20644,-1.23692 -0.0992,-2.63325 -0.92477,-4.18732 l 0.63413,-0.4783 c 0.99936,1.71477 1.37245,3.32798 1.11555,4.84712 -0.25446,1.52197 -1.06257,2.7916 -2.42228,3.8173 -1.10044,0.83006 -2.31929,1.31876 -3.65518,1.45571 -1.33871,0.13908 -2.67292,-0.10332 -4.0082,-0.72782 -1.33505,-0.62412 -2.46618,-1.55559 -3.39897,-2.79442 -0.99241,-1.31839 -1.63928,-2.76806 -1.93985,-4.35453 -0.30363,-1.58417 -0.22988,-3.00351 0.22094,-4.25235 0.44815,-1.25228 1.18747,-2.26408 2.21172,-3.0366 0.57,-0.43016 1.19824,-0.75097 1.8813,-0.95509 0.68336,-0.20924 1.52393,-0.3121 2.51313,-0.3121 z m 6.73281,-8.00247 0.54732,-0.51102 14.66363,7.02248 c 0.59076,0.28267 1.15495,0.17568 1.6938,-0.32731 l 0.37699,-0.35183 0.5729,0.61479 -4.82426,4.50317 -0.57289,-0.61503 0.38241,-0.35695 c 0.5025,-0.46898 0.80987,-0.85246 0.91286,-1.15485 0.0714,-0.21015 0.0299,-0.39379 -0.11582,-0.54999 -0.0885,-0.0951 -0.19605,-0.17874 -0.33195,-0.24416 l -3.40003,-1.63285 -4.77685,4.45868 0.81087,2.00181 c 0.21468,0.52989 0.43279,0.91283 0.64603,1.14186 0.24736,0.26532 0.58664,0.37857 1.01448,0.33808 0.4257,-0.0403 0.87407,-0.28291 1.34894,-0.72607 l 0.40745,-0.38041 0.5729,0.61502 -4.38321,4.09111 -0.57267,-0.6148 c 0.46899,-0.4378 0.7462,-0.88508 0.82759,-1.34719 0.0803,-0.45661 -0.0301,-1.07966 -0.33455,-1.86616 l -5.46594,-14.10838 z m 1.93642,2.55462 2.85799,7.421 4.27976,-3.99466 -7.13775,-3.42634 z"
         inkscape:connector-curvature="0" />
    </g>
    <g
       id="g4631"
       transform="translate(1.3335368,0)">
      <path
         inkscape:connector-curvature="0"
         d="m 364.61004,512.52744 -46.68633,-86.68525 c -2.28028,-4.23431 -3.29201,-7.6602 -1.45255,-11.74481 -6.24198,-1.77629 -11.7338,2.09863 -12.79554,7.53281 3.41645,0.21053 8.0784,3.08512 10.02482,6.615 l 47.50629,86.16102 3.40331,-1.87877 z"
         style="fill:url(#linearGradient4629);fill-rule:evenodd;stroke:#000000;stroke-width:1.10000002;stroke-miterlimit:4;stroke-opacity:1;stroke-dasharray:none"
         id="path3071" />
      <path
         id="path3075"
         style="fill:none;stroke:#000000;stroke-width:1.10000002;stroke-linecap:butt;stroke-linejoin:miter;stroke-miterlimit:10;stroke-opacity:1;stroke-dasharray:none"
         d="m 306.45864,422.4196 c 1.32428,-4.22331 4.7918,-6.44016 9.26113,-5.69133"
         inkscape:connector-curvature="0" />
      <path
         inkscape:connector-curvature="0"
         d="m 365.65964,522.40433 13.07748,23.91894 3.08732,-1.94962 -12.91112,-23.90617 c -1.31986,-2.43586 -0.74269,-5.01089 -1.85443,-7.27955 -0.99546,-2.03107 -3.21627,-2.98784 -5.24598,-1.99118 -2.02972,0.99666 -2.6333,3.45339 -1.63715,5.48576 1.13724,2.32062 4.10226,3.20464 5.48388,5.72182"
         style="fill:url(#linearGradient4625);fill-rule:evenodd;stroke:#000000;stroke-width:1.10000002;stroke-miterlimit:4;stroke-opacity:1;stroke-dasharray:none"
         id="path3093" />
      <path
         id="path3097"
         style="fill:#e6e6e6;fill-opacity:1;fill-rule:evenodd;stroke:#000000;stroke-width:1.10000002;stroke-linecap:butt;stroke-linejoin:miter;stroke-miterlimit:10;stroke-opacity:1;stroke-dasharray:none"
         d="m 379.94796,544.67582 c 0.94072,-0.47701 2.03276,-0.21443 2.4377,0.58621 0.40486,0.80042 -0.0299,1.83674 -0.97089,2.31329 -0.94026,0.47831 -2.03162,0.21512 -2.43762,-0.58613 -0.40509,-0.80042 0.0303,-1.83659 0.97081,-2.31337 z"
         inkscape:connector-curvature="0" />
    </g>
    <g
       id="g4705"
       transform="translate(1.3335368,0)">
      <path
         inkscape:connector-curvature="0"
         d="m 337.91234,542.29949 52.3946,-116.51989 c 1.58698,-3.52919 5.19261,-5.99394 9.25548,-7.93484 -2.20371,-4.88549 -9.00202,-8.06705 -14.99878,-6.9631 1.08807,3.7298 2.13247,8.74848 0.27392,13.03912 l -50.49947,116.5814 3.57425,1.7973 z"
         style="fill:url(#linearGradient4617);fill-rule:evenodd;stroke:#000000;stroke-width:1.10000002;stroke-miterlimit:10;stroke-opacity:1;stroke-dasharray:none"
         id="path3115" />
      <path
         id="path3119"
         style="fill:none;stroke:#000000;stroke-width:1.10000002;stroke-linecap:butt;stroke-linejoin:miter;stroke-miterlimit:10;stroke-opacity:1;stroke-dasharray:none"
         d="m 385.43359,413.90634 c 4.7844,-0.53074 8.90422,1.02677 11.21252,5.3495"
         inkscape:connector-curvature="0" />
      <path
         inkscape:connector-curvature="0"
         d="m 331.02569,547.86235 -16.95864,38.87993 3.46997,1.67901 17.30731,-38.81597 c 0.97142,-2.181 2.97304,-3.36306 3.92896,-5.50593 0.81735,-1.83238 0.20186,-4.08461 -1.62852,-4.90344 -1.83038,-0.81884 -3.9543,0.40578 -4.59187,1.8352 -0.92667,2.077 -0.56694,4.6301 -1.52721,6.8312"
         style="fill:url(#linearGradient4613);fill-rule:evenodd;stroke:#000000;stroke-width:1.10000002;stroke-miterlimit:10;stroke-opacity:1;stroke-dasharray:none"
         id="path3137" />
      <path
         id="path3141"
         style="fill:#e6e6e6;fill-opacity:1;fill-rule:evenodd;stroke:#000000;stroke-width:1.10000002;stroke-linecap:butt;stroke-linejoin:miter;stroke-miterlimit:10;stroke-opacity:1;stroke-dasharray:none"
         d="m 316.39696,586.24509 c -1.00654,-0.46638 -2.1434,-0.15031 -2.53917,0.7062 -0.396,0.85612 0.0991,1.92775 1.10563,2.39452 1.0057,0.46616 2.14294,0.14993 2.53856,-0.70596 0.39623,-0.85628 -0.099,-1.92814 -1.10502,-2.39476 z"
         inkscape:connector-curvature="0" />
    </g>
    <g
       id="g4711"
       transform="translate(1.3335368,0)">
      <path
         inkscape:connector-curvature="0"
         d="m 352.75516,444.35293 c 8.14336,0 14.74699,2.51603 14.74699,5.61744 0,3.10162 -6.60363,5.61765 -14.74699,5.61765 -8.14291,0 -14.74647,-2.51603 -14.74647,-5.61765 0,-3.10141 6.60356,-5.61744 14.74647,-5.61744"
         style="fill:url(#linearGradient4677);fill-rule:evenodd;stroke:#000000;stroke-width:1.10000002;stroke-miterlimit:4;stroke-opacity:1;stroke-dasharray:none"
         id="path3159" />
      <path
         id="path3163"
         style="fill:none;stroke:#000000;stroke-width:0.75999999;stroke-linecap:butt;stroke-linejoin:miter;stroke-miterlimit:10;stroke-opacity:1;stroke-dasharray:none"
         d="m 364.70265,446.67341 c -0.42394,0.9962 -1.48828,1.35323 -2.98693,0.6514 l -3.03625,-1.42263 m -0.24217,0.38516 2.95426,1.71156 c 2.42663,1.40612 -0.65817,4.41887 -2.67705,1.98965 l -2.04185,-2.45688 m -0.39967,0.13947 1.00004,2.21195 c 1.27787,2.82714 -2.70262,3.88119 -3.10984,1.4117 l -0.50755,-3.07626 m -3.15481,-0.23675 -0.93683,2.78816 c -0.83843,2.49479 3.13359,3.01298 3.35072,0.6135 l 0.28171,-3.11661 m -5.34577,-1.25809 -2.14202,2.00761 c -2.24745,2.10711 1.38414,4.64545 2.96609,1.61665 l 1.43247,-2.7433 m -3.42668,-2.59772 -3.56716,0.97679 c -3.15809,0.86514 -1.28825,4.73945 1.6541,2.46964 l 2.62788,-2.02755"
         inkscape:connector-curvature="0" />
      <path
         inkscape:connector-curvature="0"
         d="m 356.74885,420.93118 1.77007,3.17324 0,2.56157 -2.74843,3.19601 1.08204,1.4107 0,1.13315 -1.10174,1.05511 0.29454,0.87104 c -2.80516,8.97315 2.91074,9.99449 2.91463,11.3705 0,1.36905 -2.60711,2.47943 -6.20458,2.47943 -3.59739,0 -6.2045,-1.11038 -6.2045,-2.47943 0.004,-1.37601 5.71979,-2.39735 2.91463,-11.3705 l 0.29454,-0.87104 -1.10173,-1.05511 0,-1.13315 1.08204,-1.4107 -2.74843,-3.19601 0,-2.56157 1.77006,-3.17324 1.86634,-1.67817 4.25937,0 1.86115,1.67817 z"
         style="fill:url(#linearGradient4673);fill-rule:evenodd;stroke:#000000;stroke-width:1.10000002;stroke-miterlimit:4;stroke-opacity:1;stroke-dasharray:none"
         id="path3181" />
      <path
         inkscape:connector-curvature="0"
         d="m 358.71627,347.6955 c 5.59985,2.10016 10.52037,5.33407 14.87869,9.71221 l 0,2.66902 -41.67915,0.14405 0,-2.81307 c 4.35831,-4.37814 9.27892,-7.61205 14.87877,-9.71221 l 5.79269,-1.23906 6.129,1.23906 z"
         style="fill:url(#linearGradient4670);fill-rule:evenodd;stroke:#000000;stroke-width:1.10000002;stroke-miterlimit:4;stroke-opacity:1;stroke-dasharray:none"
         id="path3201" />
      <path
         inkscape:connector-curvature="0"
         d="m 330.19078,357.69887 -1.39498,3.67134 -1.62722,2.79717 0,7.0723 0.89645,1.92837 c 6.76151,5.06377 8.09527,13.8092 7.1537,22.49028 -0.5729,5.30617 -0.48823,10.56917 1.98146,15.85371 2.88387,6.17086 8.22254,9.68516 15.55542,9.68516 7.33288,0 12.67133,-3.5143 15.55527,-9.68516 2.46969,-5.28454 2.55428,-10.54754 1.98146,-15.85371 -0.94164,-8.68108 0.39211,-17.42651 7.1537,-22.49028 l 0.89638,-1.92837 0,-7.0723 -1.62723,-2.79717 -1.39498,-3.67134 c -14.74929,-2.31528 -30.38006,-2.31528 -45.12943,0"
         style="fill:url(#radialGradient4667);fill-rule:evenodd;stroke:#000000;stroke-width:1.10000002;stroke-miterlimit:4;stroke-opacity:1;stroke-dasharray:none"
         id="path3221" />
      <path
         id="path3225"
         style="fill:#ffffff;fill-opacity:1;fill-rule:evenodd;stroke:#000000;stroke-width:1.10000002;stroke-linecap:butt;stroke-linejoin:miter;stroke-miterlimit:10;stroke-opacity:1;stroke-dasharray:none"
         d="m 355.90829,344.18213 c 0.12925,-1.94227 0.8782,-4.07468 2.24745,-5.81024 l -0.23262,-2.87482 c -0.9886,-2.87474 -2.57704,-6.05997 -4.26228,-8.54658 l -0.90546,-0.38362 -0.90545,0.38362 c -1.68517,2.48661 -3.27369,5.67184 -4.2622,8.54658 l -0.23263,2.87482 c 1.36918,1.73556 2.1182,3.86797 2.24738,5.81024 l 2.98479,2.06614 3.32102,-2.06614 z"
         inkscape:connector-curvature="0" />
      <path
         id="path3227"
         style="fill:#ffffff;fill-opacity:1;fill-rule:evenodd;stroke:#000000;stroke-width:1.10000002;stroke-linecap:butt;stroke-linejoin:miter;stroke-miterlimit:10;stroke-opacity:1;stroke-dasharray:none"
         d="m 358.80299,346.99627 0,0.91282 c -4.03194,-0.33013 -8.06365,-0.29161 -12.09522,0 l 0,-0.91282 c 0,-4.18129 12.09378,-4.32924 12.09522,0 z"
         inkscape:connector-curvature="0" />
      <path
         id="path3229"
         style="fill:none;stroke:#000000;stroke-width:0.75999999;stroke-linecap:butt;stroke-linejoin:miter;stroke-miterlimit:10;stroke-opacity:1;stroke-dasharray:none"
         d="m 354.34107,333.57459 c 0,-1.51638 2.45191,-1.53175 2.45191,0 l 0,1.90124 m -4.90541,-0.14963 0,-1.76697 c 0,-1.51639 2.45198,-1.53198 2.45198,0 l 0,1.76735 m -4.90495,0.17806 0,-1.94541 c 0,-1.51639 2.4519,-1.53198 2.4519,0 m 1.22794,-1.15049 0,-1.6019 c 0,-1.51639 2.4519,-1.53175 2.4519,0 l 0,1.6437 m -4.90496,-0.0284 0,-1.61528 c 0,-1.51639 2.45199,-1.53198 2.45199,0 m -5.42586,7.35536 c 0.30836,-0.4161 0.68123,-0.73439 1.11884,-0.95425 0.80415,0.47441 1.51919,1.18664 2.01132,2.13767 l 0,4.5131 m 3.7448,-4.55772 c 0.45273,-1.06193 1.21077,-1.85409 2.13989,-2.32048 0.45142,0.25539 0.83788,0.54349 1.15953,0.86477 m -7.08881,1.45571 c 0.488,-0.95272 1.07104,-1.75619 1.91695,-2.23122 0.80247,0.56497 1.42659,1.3086 1.87244,2.23122 l 0,4.45157 m -6.64256,-8.20001 c 3.33055,-0.29376 6.71479,-0.3011 10.16529,0 m -6.19763,-5.84226 0,-1.47803 c 0,-1.51638 2.45198,-1.53197 2.45198,0 l 0,1.47841"
         inkscape:connector-curvature="0" />
      <path
         id="path3231"
         style="fill:none;stroke:#000000;stroke-width:0.75999999;stroke-linecap:butt;stroke-linejoin:miter;stroke-miterlimit:10;stroke-opacity:1;stroke-dasharray:none"
         d="m 341.61257,353.44507 6.01455,-5.59405 m -1.52981,5.67184 3.00228,-5.74963 m 0.82857,5.36119 0.95379,-5.51648 m 2.32471,5.43868 -0.61985,-5.51648 m 4.20838,5.74964 -2.42602,-5.67184 m 5.60336,5.74956 -3.74351,-5.74956 m 7.56444,5.79334 -5.62711,-5.56026"
         inkscape:connector-curvature="0" />
      <path
         id="path3233"
         style="fill:none;stroke:#000000;stroke-width:0.87;stroke-linecap:butt;stroke-linejoin:miter;stroke-miterlimit:10;stroke-opacity:1;stroke-dasharray:none"
         d="m 334.07042,370.2285 c -0.0742,-1.93081 -1.19114,-3.61394 -3.31239,-3.24132 -2.12103,0.37254 -2.04773,2.65205 -1.52637,3.98671 m 10.64573,-8.01088 c 0.14888,1.78233 -0.59579,3.46485 -2.49389,3.53959 -1.89818,0.0747 -2.64285,-1.45983 -2.56841,-3.24178 m 11.53867,6.14778 c 0,-1.85668 -0.81934,-3.68869 -2.86615,-3.53944 -2.04667,0.1491 -2.56818,2.20501 -2.41908,3.83793 m 12.28349,-7.04219 c 0.14895,1.85669 -0.59572,3.53959 -2.49389,3.53959 -1.89818,0 -2.64285,-1.68359 -2.56841,-3.46546 m 6.40239,6.64443 c 0,-2.01457 0.77582,-3.84962 2.97364,-3.76251 2.19791,0.087 2.66491,2.16534 2.51016,3.93705 m 7.023,-6.52048 c 0.1491,1.73945 -0.74467,3.46508 -2.64277,3.39057 -1.89817,-0.0743 -2.64261,-1.8751 -2.56818,-3.5444 m 6.84878,7.17042 c 0,-2.01456 1.29368,-3.48067 3.49158,-3.09529 2.1979,0.38531 2.29593,2.39254 1.9923,3.71719 m 4.16265,-3.32034 c -1.64577,-0.2654 -2.2957,-1.94571 -2.226,-3.51063"
         inkscape:connector-curvature="0" />
      <path
         id="path3235"
         style="fill:none;stroke:#000000;stroke-width:0.75999999;stroke-linecap:butt;stroke-linejoin:miter;stroke-miterlimit:10;stroke-opacity:1;stroke-dasharray:none"
         d="m 375.33754,357.83704 -1.5411,1.63468 -2.92761,-2.34195 -1.48522,1.92103 -2.98342,-2.41622 -1.55195,2.06981 -2.91677,-2.42356 -1.62241,2.2076 -2.8463,-2.27844 -1.76373,2.15105 -2.47596,-2.29251 -2.20416,2.28433 -1.97559,-2.14287 -2.6268,2.23947 -1.84191,-2.16863 -2.846,2.41622 -1.62272,-2.06247 -2.98708,2.44419 -1.48156,-1.949 -3.06869,2.50679 -1.40002,-1.79952"
         inkscape:connector-curvature="0" />
      <path
         id="path3237"
         style="fill:none;stroke:#000000;stroke-width:0.76389903;stroke-linecap:butt;stroke-linejoin:miter;stroke-miterlimit:10;stroke-opacity:1;stroke-dasharray:none"
         d="m 349.56591,429.8202 c 2.06628,0.20709 4.13287,0.20709 6.19954,0 m -6.04456,3.49648 c 1.96352,0.37522 3.9272,0.27168 5.89156,0"
         inkscape:connector-curvature="0" />
      <path
         id="path3239"
         style="fill:none;stroke:#000000;stroke-width:1.10000002;stroke-linecap:butt;stroke-linejoin:miter;stroke-miterlimit:10;stroke-opacity:1;stroke-dasharray:none"
         d="m 378.38158,371.14064 c -16.7745,-2.32215 -34.36101,-2.32215 -51.13551,0 m 51.13551,-6.99298 c -16.76717,-2.32781 -34.36834,-2.32781 -51.13551,0 m 49.44125,-2.79702 c -15.62428,-2.32391 -32.12263,-2.32391 -47.74692,0"
         inkscape:connector-curvature="0" />
      <path
         id="path3241"
         style="fill:none;stroke:#000000;stroke-width:0.75999999;stroke-linecap:butt;stroke-linejoin:miter;stroke-miterlimit:10;stroke-opacity:1;stroke-dasharray:none"
         d="m 348.26811,422.80712 1.35277,2.24551 -1.35277,2.2455 m 1.29307,-2.2455 1.35299,-2.24551 1.35275,2.24551 -1.35275,2.2455 -1.35299,-2.2455 z m 2.82111,0 1.35306,-2.24551 1.35276,2.24551 -1.35276,2.2455 -1.35306,-2.2455 z m 2.63291,0 1.35299,-2.24551 1.35277,2.24551 -1.35277,2.2455 -1.35299,-2.2455 z"
         inkscape:connector-curvature="0" />
      <path
         id="path3243"
         style="fill:none;stroke:#000000;stroke-width:0.75999999;stroke-linecap:butt;stroke-linejoin:miter;stroke-miterlimit:10;stroke-opacity:1;stroke-dasharray:none"
         d="m 376.40225,371.19956 -1.01974,1.85561 -2.15935,-2.40079 -1.1041,2.19629 -2.23448,-2.62217 -1.09692,2.34944 -2.23493,-2.48249 -1.43652,2.20997 -1.92153,-2.49608 -1.61401,2.3596 -2.09118,-2.52879 -1.63111,2.46062 -1.68907,-2.57089 -1.85961,2.61354 -1.93299,-2.57977 -1.93321,2.57977 -1.47858,-2.53705 -2.1208,2.42616 -1.50407,-2.39238 -2.1676,2.52879 -1.38544,-2.3596 -2.15003,2.49608 -1.20778,-2.20996 -2.46366,2.48248 -1.02104,-2.19652 -2.31044,2.46926 -1.02791,-2.19629 -2.23554,2.40079 -1.01975,-1.85562"
         inkscape:connector-curvature="0" />
      <path
         id="path3245"
         style="fill:none;stroke:#000000;stroke-width:1.29999995;stroke-linecap:butt;stroke-linejoin:miter;stroke-miterlimit:10;stroke-opacity:1;stroke-dasharray:none"
         d="m 329.51475,372.46988 1.24305,3.20449 m 1.9423,-3.35878 1.30932,3.43237 m 2.10911,-3.92191 1.04311,3.6468 m 2.53069,-3.8309 0.90958,3.59049 m 2.58658,-3.68258 0.66695,3.51033 m 3.06228,-3.60218 0.37653,3.47876 m 3.19727,-3.57084 0,3.50886 m 3.80688,-3.32493 0,3.31821 m 3.57387,-3.41006 -0.21949,3.46401 m 4.02637,-3.37216 -0.22743,3.50169 m 3.72358,-3.22551 -0.36813,3.40036 m 3.94193,-3.3085 -0.43891,3.5522 m 3.77962,-3.36803 -0.70161,3.63535 m 4.04394,-3.25149 -1.01158,3.29603"
         inkscape:connector-curvature="0" />
      <path
         id="path3247"
         style="fill:none;stroke:#000000;stroke-width:1.70000005;stroke-linecap:butt;stroke-linejoin:miter;stroke-miterlimit:10;stroke-opacity:1;stroke-dasharray:none"
         d="m 347.23387,398.00432 3.20986,-4.00468 m -5.31638,2.00227 3.04381,-3.79758 m -5.05474,1.93333 2.98868,-3.72873 m -4.88945,1.91629 3.02983,-3.78008 m -1.72135,-1.51914 -2.61689,2.95162 -2.53718,-2.49028 m 1.54218,4.74603 -3.24452,-3.18348 m 0.28331,7.46433 -0.69642,-0.69794 m 2.07369,-1.71889 -1.79816,-1.73343"
         inkscape:connector-curvature="0" />
      <path
         id="path3249"
         style="fill:none;stroke:#000000;stroke-width:1.69965804;stroke-linecap:butt;stroke-linejoin:miter;stroke-miterlimit:10;stroke-opacity:1;stroke-dasharray:none"
         d="m 357.33358,398.07325 -3.20979,-4.00468 m 5.31638,2.00219 -3.04388,-3.79758 m 5.05474,1.93333 -2.98861,-3.72865 m 4.88938,1.91621 -3.02976,-3.78007 m 1.72135,-1.51915 2.61681,2.9517 2.53726,-2.49028 m -1.54218,4.74595 3.24445,-3.18348 m -0.28332,7.46433 1.66059,-1.80273 m -3.03778,-0.6141 2.76225,-2.56196"
         inkscape:connector-curvature="0" />
      <path
         id="path3251"
         style="fill:#ffffff;fill-opacity:1;fill-rule:evenodd;stroke:#000000;stroke-width:0.75999999;stroke-linecap:butt;stroke-linejoin:miter;stroke-miterlimit:10;stroke-opacity:1;stroke-dasharray:none"
         d="m 354.05608,400.25395 c 0.70894,-0.72889 1.16381,-1.84774 1.16381,-3.10331 0,-2.19591 -1.38934,-3.97694 -3.10245,-3.97694 -1.71288,0 -3.10228,1.78103 -3.10228,3.97694 0,1.25534 0.45471,2.37442 1.16365,3.10331 l 3.87727,0 z"
         inkscape:connector-curvature="0" />
      <path
         id="path3253"
         style="fill:none;stroke:#000000;stroke-width:0.75999999;stroke-linecap:butt;stroke-linejoin:miter;stroke-miterlimit:10;stroke-opacity:1;stroke-dasharray:none"
         d="m 352.11744,394.20613 0.61008,1.77843 1.89527,0.72934 -1.81656,0.65056 -0.68879,1.85729 -0.6497,-1.85729 -1.85572,-0.65056 1.81633,-0.68991 0.68909,-1.81786 z"
         inkscape:connector-curvature="0" />
      <path
         id="path3255"
         style="fill:#ffffff;fill-opacity:1;fill-rule:evenodd;stroke:#000000;stroke-width:0.75999999;stroke-linecap:butt;stroke-linejoin:miter;stroke-miterlimit:10;stroke-opacity:1;stroke-dasharray:none"
         d="m 352.11721,399.5441 c 2.02582,0 3.66862,2.10603 3.66862,4.70245 0,2.59681 -1.6428,4.70285 -3.66862,4.70285 -2.02543,0 -3.66816,-2.10604 -3.66816,-4.70285 0,-2.59642 1.64273,-4.70245 3.66816,-4.70245 z"
         inkscape:connector-curvature="0" />
      <path
         id="path3257"
         style="fill:none;stroke:#000000;stroke-width:0.75999999;stroke-linecap:butt;stroke-linejoin:miter;stroke-miterlimit:10;stroke-opacity:1;stroke-dasharray:none"
         d="m 349.33092,405.895 2.16515,-0.35635 0.60946,2.66773 0.0238,0 0.60939,-2.66773 2.16431,0.35612 6.1e-4,-0.002 -1.54324,-1.64523 1.54324,-1.64523 -6.1e-4,-0.003 -2.16431,0.35634 -0.61458,-2.69018 -0.0134,0 -0.61465,2.69018 -2.16515,-0.35634 -6.1e-4,0.002 1.54393,1.64584 -1.54393,1.64592 6.1e-4,0.002 z"
         inkscape:connector-curvature="0" />
      <path
         id="path3259"
         style="fill:none;stroke:#000000;stroke-width:1.10000002;stroke-linecap:butt;stroke-linejoin:miter;stroke-miterlimit:10;stroke-opacity:1;stroke-dasharray:none"
         d="m 365.89333,386.60944 -1.17075,-3.67936 -1.1661,3.62564"
         inkscape:connector-curvature="0" />
      <path
         id="path3261"
         style="fill:none;stroke:#000000;stroke-width:1.10000002;stroke-linecap:butt;stroke-linejoin:miter;stroke-miterlimit:10;stroke-opacity:1;stroke-dasharray:none"
         d="m 338.91109,386.60944 1.17083,-3.67936 1.16602,3.62564"
         inkscape:connector-curvature="0" />
      <path
         id="path3263"
         style="fill:none;stroke:#000000;stroke-width:0.75999999;stroke-linecap:butt;stroke-linejoin:miter;stroke-miterlimit:10;stroke-opacity:1;stroke-dasharray:none"
         d="m 339.14784,380.03386 0.82002,-1.79646 0.91003,1.72585 -0.82002,1.79647 -0.91003,-1.72586 z"
         inkscape:connector-curvature="0" />
      <path
         id="path3265"
         style="fill:none;stroke:#000000;stroke-width:0.75999999;stroke-linecap:butt;stroke-linejoin:miter;stroke-miterlimit:10;stroke-opacity:1;stroke-dasharray:none"
         d="m 363.89003,380.00612 0.90866,-1.76933 0.89492,1.75436 -0.90919,1.76918 -0.89439,-1.75421 z"
         inkscape:connector-curvature="0" />
    </g>
  </g>
</svg>
