<?xml version="1.0" encoding="UTF-8" standalone="no"?>
<!-- Created with Inkscape (http://www.inkscape.org/) -->
<svg id="svg2" xmlns:rdf="http://www.w3.org/1999/02/22-rdf-syntax-ns#" xmlns="http://www.w3.org/2000/svg" height="360" width="300.05" version="1.1" xmlns:cc="http://creativecommons.org/ns#" xmlns:xlink="http://www.w3.org/1999/xlink" xmlns:dc="http://purl.org/dc/elements/1.1/">
 <defs id="defs4">
  <style id="style6" type="text/css"/>
  <style id="style3025" type="text/css">.str0 {stroke:#FF6600;stroke-width:0.7056}
    .fil1 {fill:none}
    .fil0 {fill:#A90000}</style>
 </defs>
 <metadata id="metadata7">
  <rdf:RDF>
   <cc:Work rdf:about="">
    <dc:format>image/svg+xml</dc:format>
    <dc:type rdf:resource="http://purl.org/dc/dcmitype/StillImage"/>
    <dc:title/>
   </cc:Work>
  </rdf:RDF>
 </metadata>
 <g id="layer1" transform="translate(-262.13211,-298.05794)">
  <path id="path3029" d="m483.91,470.09c2.9349,0,5.315,2.38,5.315,5.315v5.3142c0,2.9349-2.38,5.315-5.315,5.315h-5.315v-15.944zm0,21.259c5.8698,0,10.63-4.7601,10.63-10.63v-5.3142c0-5.8698-4.7601-10.63-10.63-10.63h-10.63v26.574zm-21.26-26.574,5.315,0,0,26.574-5.315,0zm-10.63,0,5.315,0,0,26.574-5.315,0-10.63-16.684,0,16.684-5.315,0,0-26.574,5.315,0,10.63,16.684zm-79.724,0.00036,15.945,0,0,5.315-10.63,0,0,5.3146,10.63,0,0,5.315-10.63,0,0,5.3146,10.63,0,0,5.315-15.945,0zm-21.26-0.00071,5.315,0,0,21.26,10.63,0,0,5.315-15.945,0zm55.808,21.26,5.3135,0c4.4022,0,7.9724-3.5702,7.9724-7.9724s-3.6365-7.9572-7.9724-7.9724h-5.3135v5.315h5.3135c1.4673,0,2.6575,1.1902,2.6575,2.6575s-1.1902,2.6575-2.6575,2.6575h-5.3135zm5.3135-26.575c10.272,0,18.602,8.3303,18.602,18.602s-8.3303,18.602-18.602,18.602-18.602-8.3303-18.602-18.602,8.3303-18.602,18.602-18.602zm-13.287,18.602c0,7.3371,5.9503,13.287,13.287,13.287,7.3371,0,13.287-5.9503,13.287-13.287,0-7.3371-5.9503-13.287-13.287-13.287-7.3371,0-13.287,5.9503-13.287,13.287z" stroke-dasharray="none" stroke-miterlimit="4" stroke-width="1.5" class="fil0" fill="#a90000"/>
  <path id="path2991" fill="#000" d="m262.13,298.06,0,181.09-0.003,0c0,81.806,72.468,154.9,150.03,178.91,77.558-24.005,150.02-97.1,150.02-178.91h-0.003v-181.09h-300.04z"/>
  <path id="path2993" fill="#3a82c2" d="m264.56,300.49,0,178.66,0.007,0,0,0.005-0.007,0,0,0.807c0.0785,13.105,2.0542,26.003,5.6388,38.516,2.9806,10.402,7.0702,20.52,12.102,30.253,25.863,50.026,76.594,90.077,129.86,106.78,10.486-3.2894,20.88-7.4865,31.012-12.492,10.348-5.1133,20.433-11.08,30.067-17.786,49.306-34.324,86.38-87.856,86.51-145.77v-0.30711-178.66h-295.19z"/>
  <path id="path2997" d="m343.28,466.02,32.852-13.594-4.0742,9.2831,71.624,0,8.3976-8.3976,33.374,0-12.707,12.707,12.707,12.709-33.374,0-8.3993-8.3993-71.624,0,4.076,9.2831-32.852-13.591z" stroke="#000" stroke-miterlimit="4" stroke-dasharray="none" stroke-width="1.5" fill="#FFF"/>
  <path id="path2999" d="m460.42,478.72-9.9451-9.9451m0-5.5262,9.9451-9.9451m8.343,25.416-9.9434-9.9451m-0.001-5.5262,9.9468-9.9451m8.343,25.416-9.9451-9.9451m-0.001-5.5262,9.9468-9.9451" stroke="#000" stroke-miterlimit="4" stroke-dasharray="none" stroke-width="1.5" fill="none"/>
  <path id="path3003" d="m414.37,399.47-13.594,32.852,9.2831-4.0743,0,63.347-8.3993,8.3993,0,33.374,12.709-12.709,12.707,12.707,0-33.374-8.3976-8.3976,0-63.349,9.2831,4.076-13.591-32.852z" stroke="#000" stroke-miterlimit="4" stroke-dasharray="none" stroke-width="1.5" fill="#FFF"/>
  <path id="path3005" d="m427.07,508.34-9.9451-9.9451m-5.5262,0-9.9451,9.9451m25.416,8.343-9.9451-9.9451m-5.5262,0-9.9451,9.9451m25.416,8.343-9.9451-9.9451m-5.5262,0-9.9451,9.9451" stroke="#000" stroke-miterlimit="4" stroke-dasharray="none" stroke-width="1.5" fill="none"/>
  <path id="path3009" d="m424.78,553.86c-1.5355-7.5667-5.0109-15.379-9.6977-21.726-4.6868,6.3468-8.1622,14.159-9.6977,21.726l9.6977,18.066,9.6977-18.066z" stroke="#000" stroke-miterlimit="4" stroke-dasharray="none" stroke-width="1.5" fill="#FFF"/>
  <path id="path3011" d="m432.49,593.22c2.9448-15.463,10.286-27.772,29.445-31.366-4.0128-5.736-18.111-9.4025-27.341-3.042-0.66198-7.8619,1.829-14.142,5.8418-20.598-11.452,0.85648-20.955,8.0359-25.355,20.131-4.4001-12.095-13.903-19.274-25.355-20.131,4.0128,6.456,6.5038,12.736,5.8418,20.598-9.2302-6.3605-23.328-2.694-27.341,3.042,19.158,3.5931,26.498,15.903,29.445,31.366l17.409,20.131,17.409-20.131z" stroke="#000" stroke-miterlimit="4" stroke-dasharray="none" stroke-width="1.5" fill="#FFF"/>
  <path id="path3013" d="m415.08,629.74c7.6452,0,12.624-4.4547,14.03-14.045,1.6959-11.58,6.3929-20.989,13.429-28.324-7.1146-0.78823-14.468,3.3406-21.342,10.767-1.1789-5.8913-2.6274-12.056-6.1165-17.321-3.489,5.2651-4.9376,11.429-6.1148,17.321-6.8757-7.4268-14.229-11.556-21.344-10.767,7.0361,7.3347,11.733,16.744,13.429,28.324,1.4059,9.5902,6.3844,14.045,14.03,14.045z" stroke="#000" stroke-miterlimit="4" stroke-dasharray="none" stroke-width="1.5" fill="#FFF"/>
  <path id="path352-2" fill-rule="nonzero" fill="#FFF" d="m375.07,329.68c-2.3062,0.0295-4.4172,0.16793-6.1847,0.5545-0.10578,0.0293-12.642,2.148-12.583,13.478,0.0969,10.607,10.658,25.064,17.36,32.033h78.098c4.2064-4.1808,16.038-21.67,16.123-31.777,0.0991-11.375-12.464-13.45-12.583-13.478-8.5582-1.8285-25.097,1.0269-32.587,2.7725-6.7974,0.88411-13.857,0.84508-21.199-0.17061-5.9185-1.403-17.556-3.5257-26.445-3.4123z"/>
  <path id="path293" d="m412.39,330.81c-2.4207,0.0684-11.073-0.51367-11.073-0.51367s7.5316,7.3116,9.5657,31.287c0.67507-0.11602,1.4139-0.19386,2.1656-0.2208,0.80263-0.0397,1.529,0.048,2.2555,0.1358,0.98547-24.032,8.1567-31.691,8.1567-31.691s-8.6877,0.99794-11.07,1.0026z" stroke-miterlimit="4" stroke-dasharray="none" stroke-width="1.5" fill="none"/>
  <path id="path295" d="m412.39,330.81c-2.4207,0.0684-11.073-0.51367-11.073-0.51367s7.5316,7.3116,9.5657,31.287c0.67507-0.11602,1.4139-0.19386,2.1656-0.2208,0.80263-0.0397,1.529,0.048,2.2555,0.1358,0.98547-24.032,8.1567-31.691,8.1567-31.691s-8.6877,0.99794-11.07,1.0026z" stroke="#000" stroke-dasharray="none" stroke-miterlimit="4" stroke-width="1.5" fill="none"/>
  <path id="path304" stroke-linejoin="round" d="m390.49,325.61c0.01-1.8985,1.5095-3.4685,3.3442-3.4976,1.8475,0.022,3.3667,1.5351,3.3705,3.4846-0.01,1.8985-1.5095,3.4686-3.3442,3.4976-1.8475-0.022-3.3667-1.5352-3.3705-3.4846z" fill-rule="nonzero" stroke="#000" stroke-miterlimit="4" stroke-dasharray="none" stroke-width="1.5" fill="#FFF"/>
  <path id="path306" stroke-linejoin="round" d="m382.77,324.63c-0.004-1.9494,1.5095-3.4685,3.3442-3.4976,1.8476,0.022,3.3667,1.5352,3.3705,3.4846,0.004,1.9494-1.5095,3.4685-3.3442,3.4976-1.8475-0.022-3.3667-1.5352-3.3705-3.4846z" fill-rule="nonzero" stroke="#000" stroke-miterlimit="4" stroke-dasharray="none" stroke-width="1.5" fill="#FFF"/>
  <path id="path308" stroke-linejoin="round" d="m374.67,324.07c0.01-1.8985,1.5095-3.4685,3.3442-3.4976,1.8475,0.022,3.3667,1.5352,3.3705,3.4846,0.004,1.9494-1.5095,3.4686-3.3442,3.4976-1.8475-0.022-3.3667-1.5352-3.3705-3.4846z" fill-rule="nonzero" stroke="#000" stroke-miterlimit="4" stroke-dasharray="none" stroke-width="1.5" fill="#FFF"/>
  <path id="path310" stroke-linejoin="round" d="m366.37,324.48c0.01-1.8985,1.5095-3.4686,3.3442-3.4976,1.8475,0.022,3.3667,1.5351,3.3705,3.4846,0.004,1.9494-1.5095,3.4686-3.3442,3.4976-1.8475-0.0218-3.3667-1.5351-3.3705-3.4846z" fill-rule="nonzero" stroke="#000" stroke-miterlimit="4" stroke-dasharray="none" stroke-width="1.5" fill="#FFF"/>
  <path id="path312" stroke-linejoin="round" d="m358.22,326.75c-0.004-1.9494,1.5095-3.4686,3.3442-3.4976,1.8475,0.022,3.3667,1.5352,3.3705,3.4846-0.01,1.8985-1.5095,3.4686-3.3442,3.4976-1.8475-0.0218-3.3667-1.5352-3.3705-3.4846z" fill-rule="nonzero" stroke="#000" stroke-miterlimit="4" stroke-dasharray="none" stroke-width="1.5" fill="#FFF"/>
  <path id="path314" stroke-linejoin="round" d="m351.86,331.82c-0.004-1.9494,1.5095-3.4685,3.3442-3.4976,1.8475,0.022,3.3667,1.5351,3.3705,3.4846-0.01,1.8985-1.5095,3.4686-3.3442,3.4976-1.8475-0.022-3.3667-1.5352-3.3705-3.4846z" fill-rule="nonzero" stroke="#000" stroke-miterlimit="4" stroke-dasharray="none" stroke-width="1.5" fill="#FFF"/>
  <path id="path316" stroke-linejoin="round" d="m347.86,338.73c0.01-1.8985,1.5095-3.4686,3.3442-3.4976,1.8475,0.022,3.3667,1.5352,3.3705,3.4846-0.01,1.8985-1.5095,3.4686-3.3442,3.4976-1.8475-0.022-3.3667-1.5352-3.3705-3.4846z" fill-rule="nonzero" stroke="#000" stroke-miterlimit="4" stroke-dasharray="none" stroke-width="1.5" fill="#FFF"/>
  <path id="path318" stroke-linejoin="round" d="m347.18,346.33c-0.004-1.9494,1.5095-3.4685,3.3442-3.4976,1.8475,0.022,3.3667,1.5351,3.3705,3.4846,0.004,1.9494-1.5095,3.4686-3.3442,3.4976-1.8475-0.022-3.3667-1.5352-3.3705-3.4846z" fill-rule="nonzero" stroke="#000" stroke-miterlimit="4" stroke-dasharray="none" stroke-width="1.5" fill="#FFF"/>
  <path id="path320" stroke-linejoin="round" d="m348.94,353.96c0.01-1.8985,1.5095-3.4686,3.3442-3.4976,1.8475,0.022,3.3667,1.5352,3.3705,3.4846-0.01,1.8985-1.5095,3.4686-3.3442,3.4976-1.8475-0.022-3.3795-1.5862-3.3705-3.4846z" fill-rule="nonzero" stroke="#000" stroke-miterlimit="4" stroke-dasharray="none" stroke-width="1.5" fill="#FFF"/>
  <path id="path322" stroke-linejoin="round" d="m352.4,361.27c0.01-1.8985,1.5095-3.4686,3.3442-3.4976,1.8475,0.0218,3.3667,1.5351,3.3705,3.4846-0.01,1.8985-1.5095,3.4686-3.3442,3.4976-1.8475-0.0218-3.3667-1.5352-3.3705-3.4846z" fill-rule="nonzero" stroke="#000" stroke-miterlimit="4" stroke-dasharray="none" stroke-width="1.5" fill="#FFF"/>
  <path id="path324" stroke-linejoin="round" d="m356.88,368.05c0.01-1.8985,1.5095-3.4686,3.3442-3.4976,1.8475,0.022,3.3667,1.5352,3.3705,3.4846-0.01,1.8985-1.5095,3.4685-3.357,3.4467-1.8475-0.022-3.3667-1.5352-3.3705-3.4846z" fill-rule="nonzero" stroke="#000" stroke-miterlimit="4" stroke-dasharray="none" stroke-width="1.5" fill="#FFF"/>
  <path id="path328" stroke-linejoin="round" d="m433.84,325.62c0.01-1.8985-1.523-3.4627-3.3705-3.4846-1.8475-0.0218-3.348,1.5482-3.3442,3.4976-0.01,1.8985,1.5229,3.4627,3.3705,3.4846,1.8475,0.022,3.348-1.5482,3.3442-3.4976z" fill-rule="nonzero" stroke="#000" stroke-miterlimit="4" stroke-dasharray="none" stroke-width="1.5" fill="#FFF"/>
  <path id="path330" stroke-linejoin="round" d="m441.5,324.61c-0.004-1.9494-1.523-3.4627-3.3705-3.4846-1.8476-0.0218-3.348,1.5482-3.3442,3.4976,0.004,1.9494,1.5229,3.4627,3.3705,3.4846,1.8475,0.022,3.348-1.5482,3.3442-3.4976z" fill-rule="nonzero" stroke="#000" stroke-miterlimit="4" stroke-dasharray="none" stroke-width="1.5" fill="#FFF"/>
  <path id="path332" stroke-linejoin="round" d="m449.6,324.09c-0.004-1.9494-1.5229-3.4627-3.3705-3.4846-1.8475-0.022-3.348,1.5482-3.3442,3.4976-0.01,1.8985,1.523,3.4627,3.3705,3.4846,1.8476,0.022,3.3989-1.561,3.3442-3.4976z" fill-rule="nonzero" stroke="#000" stroke-miterlimit="4" stroke-dasharray="none" stroke-width="1.5" fill="#FFF"/>
  <path id="path334" stroke-linejoin="round" d="m457.93,324.48c0.01-1.8985-1.5229-3.4627-3.3705-3.4846-1.8475-0.022-3.348,1.5482-3.3442,3.4976-0.01,1.8985,1.523,3.4627,3.3705,3.4846,1.8476,0.022,3.348-1.5482,3.3442-3.4976z" fill-rule="nonzero" stroke="#000" stroke-miterlimit="4" stroke-dasharray="none" stroke-width="1.5" fill="#FFF"/>
  <path id="path336" stroke-linejoin="round" d="m466.08,326.71c0.01-1.8985-1.472-3.4755-3.3704-3.4846-1.8476-0.022-3.348,1.5482-3.3442,3.4976-0.01,1.8985,1.523,3.4627,3.3705,3.4846,1.8476,0.022,3.348-1.5482,3.3442-3.4976z" fill-rule="nonzero" stroke="#000" stroke-miterlimit="4" stroke-dasharray="none" stroke-width="1.5" fill="#FFF"/>
  <path id="path338" stroke-linejoin="round" d="m472.46,331.82c0.01-1.8985-1.523-3.4627-3.3705-3.4846-1.8475-0.022-3.3479,1.5482-3.3442,3.4976-0.01,1.8985,1.4719,3.4755,3.3705,3.4846,1.8475,0.022,3.348-1.5482,3.3442-3.4976z" fill-rule="nonzero" stroke="#000" stroke-miterlimit="4" stroke-dasharray="none" stroke-width="1.5" fill="#FFF"/>
  <path id="path340" stroke-linejoin="round" d="m476.47,338.72c0.01-1.8985-1.5229-3.4627-3.3704-3.4846-1.8475-0.022-3.3479,1.5482-3.3442,3.4976,0.004,1.9494,1.523,3.4627,3.3705,3.4846,1.8475,0.0218,3.3479-1.5482,3.3441-3.4976z" fill-rule="nonzero" stroke="#000" stroke-miterlimit="4" stroke-dasharray="none" stroke-width="1.5" fill="#FFF"/>
  <path id="path342" stroke-linejoin="round" d="m477.14,346.29c0.01-1.8985-1.523-3.4627-3.3705-3.4846-1.8475-0.022-3.3989,1.561-3.3442,3.4976,0.004,1.9494,1.523,3.4627,3.3705,3.4846,1.8475,0.022,3.3479-1.5482,3.3442-3.4976z" fill-rule="nonzero" stroke="#000" stroke-miterlimit="4" stroke-dasharray="none" stroke-width="1.5" fill="#FFF"/>
  <path id="path344" stroke-linejoin="round" d="m475.38,353.94c0.01-1.8985-1.5229-3.4627-3.3705-3.4846-1.8475-0.0218-3.348,1.5482-3.3442,3.4976-0.01,1.8985,1.523,3.4626,3.3705,3.4846,1.8476,0.022,3.348-1.5482,3.3442-3.4976z" fill-rule="nonzero" stroke="#000" stroke-miterlimit="4" stroke-dasharray="none" stroke-width="1.5" fill="#FFF"/>
  <path id="path346" stroke-linejoin="round" d="m471.92,361.26c-0.004-1.9494-1.523-3.4627-3.3705-3.4846-1.8476-0.022-3.348,1.5482-3.3442,3.4976-0.01,1.8985,1.523,3.4627,3.3705,3.4846,1.8476,0.022,3.348-1.5482,3.3442-3.4976z" fill-rule="nonzero" stroke="#000" stroke-miterlimit="4" stroke-dasharray="none" stroke-width="1.5" fill="#FFF"/>
  <path id="path348" stroke-linejoin="round" d="m467.44,368.02c0.01-1.8985-1.523-3.4627-3.3705-3.4846-1.8476-0.022-3.348,1.5482-3.3442,3.4976,0.004,1.9494,1.5229,3.4627,3.3705,3.4846,1.8475,0.022,3.348-1.5482,3.3442-3.4976z" fill-rule="nonzero" stroke="#000" stroke-miterlimit="4" stroke-dasharray="none" stroke-width="1.5" fill="#FFF"/>
  <path id="path350" stroke-linejoin="round" d="m412.12,323.51c-4.7652,0.01-14.82-1.1945-14.82-1.1945,0.0637,0.0381,2.4394,3.015,4.9862,8.8201,0.39678,0.92933,0.8192,1.9606,1.2546,3.0427,0.14079,0.34378,0.23067,0.70032,0.37152,1.0441,2.075,5.6531,3.9497,13.09,4.6176,22.403,0.45847-0.11561,0.87883-0.16732,1.3501-0.23194,0.73883-0.0779,1.4268-0.14294,2.2294-0.1827,0.81548,0.0109,1.5928,0.0861,2.3192,0.17387,0.44607,0.0501,0.90495,0.15115,1.3638,0.25217,0.6446-9.2642,2.516-16.671,4.5182-22.268,0.545-1.4918,1.0647-2.8689,1.623-4.0931,2.575-5.9042,5.0156-8.9032,5.0536-8.9669,0,0-10.051,1.1789-14.816,1.1882z" fill-rule="nonzero" stroke="#000" stroke-miterlimit="4" stroke-dasharray="none" stroke-width="1.5" fill="#FFF"/>
  <path id="path352" stroke-linejoin="round" d="m368.22,366.22c-0.80472-1.0432-9.759-12.71-9.8537-22.113-0.0575-9.8999,11.992-11.745,12.094-11.771,9.0811-1.8014,27.626,1.4881,33.401,2.904-0.14082-0.34372-0.2307-0.70032-0.37153-1.044-0.4353-1.0822-0.85777-2.1134-1.2546-3.0428-6.9218-1.6684-24.115-4.1069-33.247-2.2927-3.9738,0.78492-14.147,4.7035-14.292,14.871-0.15876,10.117,9.3323,22.623,10.814,24.417,0.40667-0.53596,0.83904-0.96999,1.399-1.3278,0.41996-0.26834,0.85273-0.48577,1.3112-0.60135z" fill-rule="nonzero" stroke="#000" stroke-miterlimit="4" stroke-dasharray="none" stroke-width="1.5" fill="#FFF"/>
  <path id="path354" stroke-linejoin="round" d="m455.23,329.01c-9.1772-1.8042-26.437,0.65011-33.327,2.3326-0.55825,1.2243-1.078,2.6013-1.623,4.0931,5.7182-1.3872,24.34-4.6723,33.453-2.9062,0.11479,0.0253,12.223,1.8493,12.127,11.788-0.0842,9.123-8.5099,20.403-9.7299,22.01,1.071,0.38014,1.9515,1.0792,2.6668,1.9825,1.5253-1.9014,10.917-14.291,10.757-24.382-0.13444-10.206-10.322-14.085-14.312-14.867z" fill-rule="nonzero" stroke="#000" stroke-miterlimit="4" stroke-dasharray="none" stroke-width="1.5" fill="#FFF"/>
  <path id="path356" stroke-linejoin="round" d="m458.78,368.26c-0.66434-0.91609-1.5449-1.6152-2.6668-1.9825-2.8689-1.0647-7.046-0.0123-11.777,4.6479-2.4694-11.947-12.12-14.769-18.609-3.3276,0,0-1.914-8.0234-9.983-9.9444-0.40794-0.11383-0.90493-0.15114-1.3638-0.25221-0.72643-0.0878-1.5038-0.1627-2.3193-0.17389-0.81547-0.0109-1.5543,0.0668-2.2294,0.18271-0.4713,0.0646-0.9426,0.12926-1.3501,0.23199-8.1381,1.8888-10.059,9.9577-10.059,9.9577-6.5203-11.467-16.109-8.6711-18.609,3.336-4.6722-4.5651-8.7897-5.6401-11.642-4.7045-0.44563,0.16654-0.9422,0.34583-1.3112,0.60141-0.50899,0.34499-0.99229,0.79189-1.399,1.3278-0.0762,0.12762-0.21619,0.21702-0.29239,0.34457-1.0672,1.5693-1.4834,3.787-1.0837,6.2326,0.67968,2.2666,6.2778,17.813,6.2778,17.813s20.606-5.0855,41.665-6.0055c21.025,0.87664,41.65,5.9714,41.65,5.9714s5.6143-15.555,6.2852-17.837c0.44102-2.5491-0.0859-4.8543-1.2484-6.4574z" fill-rule="nonzero" stroke="#000" stroke-miterlimit="4" stroke-dasharray="none" stroke-width="1.5" fill="#FFF"/>
  <path id="path360" d="m408.01,339.45c1.1171,4.4319,2.0582,10.1,2.5686,17.068,0.68793-0.065,1.4905-0.10483,1.4905-0.10483s0.87927,0.0493,1.6057,0.13701c1.3144-18.643,5.9096-27.494,8.1203-30.761-2.7645,0.20924-7.8602,0.62682-9.6949,0.65588-1.8347,0.0289-6.8812-0.43262-9.6465-0.65662,1.38,2.0359,3.7325,6.2106,5.6071,13.648z" fill-rule="nonzero" stroke-dasharray="none" stroke-miterlimit="4" stroke-width="1.5" fill="#FFF"/>
  <path id="path362" d="m400.63,324.78s0.37026,0.39426,1.0346,1.3104c0.0895,0.14,0.19174,0.33091,0.33217,0.45804,1.3419,2.0997,3.5159,6.211,5.2622,13.139,1.1556,4.5847,2.1352,10.406,2.608,17.654,0.52222-0.0774,1.0573-0.10401,1.6434-0.14331,0.21659,0,0.38224,0.0123,0.59884,0.0109,0.2166,0,0.43319-0.001,0.64979-0.001,0.54793,0.0244,1.1087,0.0998,1.6695,0.17515,0.0244-0.54793,0.0998-1.1087,0.12421-1.6566,1.2917-17.229,5.518-25.825,7.7538-29.205,0.11438-0.19133,0.24144-0.33175,0.31767-0.4593,0.6353-0.9186,1.0296-1.2889,1.0296-1.2889s-9.0066,0.80744-11.504,0.7868c-2.4974-0.0206-11.418-0.80609-11.418-0.80609zm10.737,30.775c-1.2031-15.95-4.9278-24.709-7.3312-28.87,2.8162,0.21114,6.5755,0.50963,8.0408,0.51957,1.5162-0.003,5.287-0.30334,8.1025-0.52539-2.4128,4.1838-6.1163,12.919-7.3596,28.835-0.26757,0.0137-0.54793-0.0244-0.76453-0.024-0.21665,0-0.48415,0.0136-0.70075,0.0141z" fill-rule="nonzero" stroke-dasharray="none" stroke-miterlimit="4" stroke-width="1.5" fill="#000"/>
  <path id="path366" stroke-linejoin="round" d="m408.15,330.31c0.0299,2.2679,1.7917,4.0993,4.0596,4.0694,2.217-0.0171,4.0355-1.8298,4.0565-4.1106-0.0299-2.2679-1.7917-4.0992-4.0596-4.0693-2.217,0.0171-4.0355,1.8298-4.0565,4.1106z" fill-rule="nonzero" stroke="#000" stroke-miterlimit="4" stroke-dasharray="none" stroke-width="1.5" fill="#FFF"/>
  <path id="path368" stroke-linejoin="round" d="m408.74,338.45c0.004,1.9494,1.5358,3.5136,3.4342,3.5227,1.8985,0.01,3.4498-1.5739,3.4589-3.4724-0.004-1.9494-1.5358-3.5136-3.4852-3.5098-1.8985-0.01-3.4498,1.5739-3.4589,3.4723z" fill-rule="nonzero" stroke="#000" stroke-miterlimit="4" stroke-dasharray="none" stroke-width="1.5" fill="#FFF"/>
  <path id="path370" stroke-linejoin="round" d="m409.32,344.86c0.0158,1.5671,1.267,2.8771,2.847,2.9122,1.5671-0.0158,2.8642-1.3179,2.8484-2.8851s-1.267-2.8771-2.847-2.9122c-1.5672,0.0157-2.8642,1.3179-2.8485,2.885z" fill-rule="nonzero" stroke="#000" stroke-miterlimit="4" stroke-dasharray="none" stroke-width="1.5" fill="#FFF"/>
  <path id="path372" stroke-linejoin="round" d="m409.77,350.06c0.0154,1.3506,1.1005,2.4315,2.4129,2.4799,1.3505-0.0154,2.4314-1.1005,2.4161-2.451-0.0154-1.3506-1.0495-2.4443-2.4129-2.4799-1.3505,0.0154-2.4314,1.1005-2.4161,2.451z" fill-rule="nonzero" stroke="#000" stroke-miterlimit="4" stroke-dasharray="none" stroke-width="1.5" fill="#FFF"/>
  <path id="path374" stroke-linejoin="round" d="m410.34,354.68c-0.0109,1.0321,0.8445,1.8458,1.8256,1.8694,1.0321,0.0109,1.8458-0.84448,1.8566-1.8766,0.0109-1.0321-0.84452-1.8459-1.8256-1.8694-1.0321-0.0109-1.8459,0.84449-1.8566,1.8766z" fill-rule="nonzero" stroke="#000" stroke-miterlimit="4" stroke-dasharray="none" stroke-width="1.5" fill="#FFF"/>
  <path id="path376" d="m375.96,387.45c-1.9006-1.092-13.564-16.843-4.8249-17.637,6.841-0.58664,5.6743,15.419,4.8249,17.637zm16.405-3.0515c-1.8497-1.1049-12.619-15.673-4.2017-18.174,8.4681-2.5137,5.051,15.955,4.2017,18.174zm19.72-1.7201c-1.5449-1.6152-8.7387-18.764-0.0238-18.793,8.7279,0.0213,1.3452,16.943,0.0238,18.793zm19.931,1.6942c-0.87059-2.1644-4.2957-20.696,4.1949-18.177,8.4397,2.5319-2.3114,17.052-4.1949,18.177zm15.971,3.1799c-0.87058-2.1644-2.4059-18.572,5.215-17.784,8.7295,0.88766-3.3695,16.723-5.215,17.784z" fill-rule="nonzero" stroke-dasharray="none" stroke-miterlimit="4" stroke-width="1.5" fill="#000"/>
  <path id="path378" stroke-linejoin="round" d="m403.61,316.61c-1.0152-4.4575,1.7665-8.8969,6.224-9.9121s8.8969,1.7666,9.9121,6.224c1.0152,4.4575-1.7666,8.8969-6.224,9.9121-4.4575,1.0152-8.8969-1.7666-9.9121-6.224z" fill-rule="nonzero" stroke="#2b2a29" stroke-miterlimit="4" stroke-dasharray="none" stroke-width="1.5" fill="#FFF"/>
 </g>
</svg>
