<?xml version="1.0" encoding="UTF-8" standalone="no"?>
<!-- Created with Inkscape (http://www.inkscape.org/) -->

<svg
   xmlns:dc="http://purl.org/dc/elements/1.1/"
   xmlns:cc="http://creativecommons.org/ns#"
   xmlns:rdf="http://www.w3.org/1999/02/22-rdf-syntax-ns#"
   xmlns:svg="http://www.w3.org/2000/svg"
   xmlns="http://www.w3.org/2000/svg"
   xmlns:sodipodi="http://sodipodi.sourceforge.net/DTD/sodipodi-0.dtd"
   xmlns:inkscape="http://www.inkscape.org/namespaces/inkscape"
   id="svg2"
   version="1.1"
   inkscape:version="0.48.3.1 r9886"
   width="184"
   height="224"
   sodipodi:docname="Herb Lidy.svg">
  <metadata
     id="metadata8">
    <rdf:RDF>
      <cc:Work
         rdf:about="">
        <dc:format>image/svg+xml</dc:format>
        <dc:type
           rdf:resource="http://purl.org/dc/dcmitype/StillImage" />
        <dc:title />
      </cc:Work>
    </rdf:RDF>
  </metadata>
  <defs
     id="defs6" />
  <sodipodi:namedview
     pagecolor="#ffffff"
     bordercolor="#666666"
     borderopacity="1"
     objecttolerance="10"
     gridtolerance="10"
     guidetolerance="10"
     inkscape:pageopacity="0"
     inkscape:pageshadow="2"
     inkscape:window-width="1280"
     inkscape:window-height="962"
     id="namedview4"
     showgrid="false"
     inkscape:zoom="3.1193293"
     inkscape:cx="35.483351"
     inkscape:cy="138.01247"
     inkscape:window-x="-8"
     inkscape:window-y="-8"
     inkscape:window-maximized="1"
     inkscape:current-layer="svg2">
    <inkscape:grid
       type="xygrid"
       id="grid3030" />
  </sodipodi:namedview>
  <path
     style="fill:#ffffff;fill-opacity:1;stroke:#000000;stroke-width:1.04442751px;stroke-linecap:butt;stroke-linejoin:miter;stroke-opacity:1"
     d="m 91.355996,219.00496 0,-211.5581571 c -31.2725,0 -61.28783,9.0682201 -87.3482812,19.6050501 l 0.0225,42.953372 c 9.3817802,4.72193 13.1008412,13.04396 13.0819112,21.50109 0,10.418145 -3.985411,18.524765 -13.0819112,22.498815 -0.006,30.62107 -1.6793099,48.90324 13.2234312,62.70652 6.46703,6.21543 16.36823,11.51533 24.77643,15.29336 3.63756,1.60036 7.91384,2.75838 10.99996,3.99998 9.61955,3.8701 19.7454,7.81038 25.99991,11.99998 8.18251,5.48108 10.88644,8.99999 12.32601,10.99999 z"
     id="path3025-0-8-4"
     inkscape:connector-curvature="0"
     sodipodi:nodetypes="ccccccccsscc" />
  <path
     style="fill:#ffffff;fill-opacity:1;stroke:#000000;stroke-width:1.04442835px;stroke-linecap:butt;stroke-linejoin:miter;stroke-opacity:1"
     d="M 92.396806,219.1317 92.356006,7.4467929 c 31.272484,0 61.345094,9.0216801 87.405524,19.5585201 l -0.0225,42.953452 c -9.38177,4.72194 -13.10083,13.04399 -13.0819,21.50114 0,10.418155 3.98541,18.524795 13.0819,22.498845 -0.12001,30.66745 1.67931,48.90333 -13.22342,62.70664 -6.46703,6.21544 -16.36823,11.51535 -24.77642,15.29339 -3.63755,1.60036 -7.91385,2.75839 -10.99996,3.99999 -9.61955,3.87011 -19.7454,7.8104 -25.99991,12 -4.42264,2.88308 -9.427874,7.53768 -12.342504,11.17293 z"
     id="path3025-0-8-4-1"
     inkscape:connector-curvature="0"
     sodipodi:nodetypes="ccccccccsccc" />
  <path
     style="fill:#007bc4;fill-opacity:1;stroke:#007bc5;stroke-width:1px;stroke-linecap:butt;stroke-linejoin:miter;stroke-opacity:1"
     d="m 92.350176,213.95256 0.0293,-202.816127 c 29.999984,0 58.224864,8.19694 83.224864,18.26614 l 0.2635,38.131752 c -9,4.51238 -13.13998,14.00721 -13.2635,24.00721 0,10.000005 4,20.783275 13,24.783265 -0.0442,20.42276 2.09219,44.26677 -12.20416,57.45746 -6.20386,5.93959 -15.3973,11.19346 -23.46336,14.80379 -3.48955,1.52934 -8.44736,3.05489 -11.40794,4.24139 -8.1766,3.27691 -21.1727,8.17752 -27.17269,12.17752 -6.459714,4.30647 -7.622474,6.9476 -9.005824,8.9476 z"
     id="path3025"
     inkscape:connector-curvature="0"
     sodipodi:nodetypes="ccccccccsscc" />
  <path
     style="fill:#de2119;fill-opacity:1;stroke:#de2119;stroke-width:1.00000298px;stroke-linecap:butt;stroke-linejoin:miter;stroke-opacity:1"
     d="m 91.355946,214.00496 0.0233,-202.868527 c -30.00011,0 -58.27168,8.19657 -83.2717811,18.2658 l -0.26351,38.131822 c 9.0000511,4.51238 13.1400411,14.00723 13.2635611,24.00724 0,10.000025 -4.00001,20.783325 -13.0000511,24.783325 0.0442,20.4228 -2.0922,44.26685 12.2042111,57.45757 6.20388,5.9396 15.39736,11.19348 23.46345,14.80381 3.48957,1.52935 8.44739,3.0549 11.40798,4.2414 8.17663,3.27692 21.17279,8.17753 27.17281,12.17754 6.45974,4.30648 7.55539,7.00002 9.00004,9.00002 z"
     id="path3025-9"
     inkscape:connector-curvature="0"
     sodipodi:nodetypes="ccccccccssc" />
  <path
     style="fill:#f7c500;fill-opacity:1;stroke:#000000;stroke-width:0.80000001;stroke-linecap:butt;stroke-linejoin:miter;stroke-miterlimit:4;stroke-opacity:1;stroke-dasharray:none"
     d="m 68.376866,51.225622 c 1.64858,1.5704 1.80112,4.25822 0.12782,5.336795"
     id="path3805"
     inkscape:connector-curvature="0"
     sodipodi:nodetypes="cc" />
  <path
     style="fill:#f7c500;fill-opacity:1;stroke:#000000;stroke-width:0.80000001;stroke-linecap:butt;stroke-linejoin:miter;stroke-miterlimit:4;stroke-opacity:1;stroke-dasharray:none"
     d="m 56.246686,59.838723 c 2.4557,-1.08647 4.67703,-0.0365 6.85549,-0.29119 -2.53053,-1.53745 -5.68423,-5.984739 -3.61433,-5.784639 2.34717,0.48961 4.63478,0.68142 7.25129,2.517719 1.11934,0.32963 0.78696,0.305 1.39535,0.37915 2.11156,-0.002 -2.35647,-3.648639 -4.83376,-4.002589 -2.99115,-0.6151 -5.66706,-0.52366 -7.83213,-1.28761 -3.51997,-1.61206 -4.2671,-4.3883 -3.92972,-8.5769 0.53947,-3.02716 0.97274,-2.9675 1.56528,-0.27897 0.42329,1.68256 0.55132,4.08925 3.26536,5.3053 1.40298,0.76658 2.17969,1.25496 4.26463,1.47107 3.93684,0.44701 7.56037,2.92304 8.29442,3.44207 1.19056,0.84179 -0.67693,-2.96252 -4.45032,-4.09033 -3.04667,-0.91061 -5.93282,-1.33508 -6.18095,-4.27521 -0.0641,-2.97281 1.28903,-3.8253 3.30244,-4.49455 0.87128,-0.10612 0.42489,-3.07452 1.69786,-3.48018 2.26712,-0.72248 3.82824,2.13199 3.82824,2.13199 1.83297,3.36903 1.40169,-0.59637 2.67725,-2.03785 1.44583,-1.516611 5.21818,-1.368801 6.77637,-0.03732 0.95001,1.2172 1.36374,2.838882 2.30471,2.77509 0.97146,-0.06586 2.08964,-2.033799 3.4219,-1.919389 2.37776,0.0849 4.33375,2.782559 4.42689,4.301919 0.71508,1.27244 1.59989,-0.12156 1.97774,1.34935 0.20832,1.082369 -0.56638,7.695158 -0.81418,9.22969 -0.15759,0.975901 1.03398,2.20463 1.83101,3.781899 0.95099,1.88194 0.27418,4.37935 0.0562,4.49938 -0.0471,1.39019 -2.2076,-3.97028 -2.28551,-2.80024 -0.0988,1.48383 0.87046,6.90948 -0.67854,5.12536 -0.27203,-0.31332 -1.34151,-2.47996 -1.43946,-2.53262 -0.67073,-0.36064 1.5315,4.64602 0.82874,5.78577 -2.22695,5.44433 -1.9932,0.0164 -2.50106,-1.08281 -1.59744,-0.79861 0.55371,7.43838 -0.53087,10.61528 -0.94154,1.66149 -2.44189,2.90524 -3.29425,2.87111 -0.5772,0.32361 -0.67167,-2.10158 -1.07029,-3.70721 -0.46126,-1.858 -1.20379,-2.81655 -1.55204,-0.324 0.0115,1.70684 -0.29232,3.60027 -1.10415,4.96856 -1.22025,2.13032 -5.14623,3.41632 -7.42877,6.87214 -0.7829,1.67089 -0.25883,3.01504 -0.3314,4.50834 0.53396,4.84386 -1.61528,0.68451 -2.77782,-0.37538 -2.611336,-2.111931 1.221492,10.947027 3.4535,16.216457 3.07382,6.39173 5.39407,12.25082 9.91006,17.56782 0.92594,0.77296 4.183607,2.0336 4.358787,-1.01281 0.287807,-1.37639 -0.03374,-2.29005 -0.604957,-4.76806 l -8.55868,-18.39365 c -0.61856,-2.180797 -1.90922,-8.159737 0,-11.561737 0.8225,-2.04407 2.84165,-4.36116 5.40548,-5.85594 2.20337,-0.45272 3.75523,0.0222 5.25534,1.35137 2.66364,3.50447 2.7727,7.86589 2.47751,10.7359 -0.034,0.66674 1.71723,2.81834 1.42645,4.654716 -0.90944,2.028301 -2.48318,3.015011 -2.32736,5.931021 -0.077,1.62046 2.46734,3.64259 2.02705,4.50457 -1.70201,0.24711 -3.85661,-0.91284 -5.18025,-3.37843 -0.55623,-0.8248 -0.51677,-3.29355 -1.68037,-4.00396 -1.15209,-0.70338 -1.25778,-1.48413 -1.24761,-2.30244 0.17383,-1.796131 0.38093,-3.575267 2.28983,-4.579647 1.09338,-0.40125 1.71972,-4.15823 0.7883,-7.05716 -0.81124,-1.35969 -2.67222,-2.50752 -4.05412,-1.65167 -1.4264,0.94102 -1.81887,2.32352 -2.25228,4.65472 -0.64022,3.59262 0.27157,6.07667 0.97599,8.708837 l 4.50457,9.45959 c 2.56101,4.38783 3.34957,7.59122 4.35442,11.26142 0.39531,2.90868 0.28711,6.65168 -2.47751,8.85899 -0.94725,1.17299 -3.28651,1.00151 -5.13251,0.26544 -2.0149,-0.92574 -5.50599,-5.81727 -5.72372,-6.30056 -0.0817,-0.18125 1.69123,2.49235 1.34494,3.64635 -0.063,1.1477 -4.9544,4.13723 -5.41633,6.05507 -0.33279,1.38165 1.17638,2.94496 5.39294,4.59208 5.55616,1.49341 10.70771,5.36521 12.38679,8.74828 -0.54016,0.87503 -1.76198,1.14485 -2.86578,1.14435 -0.58027,0.0462 -4.505,-1.55515 -4.30456,-1.45383 0.72646,0.36721 1.39712,0.29967 2.72441,1.19664 0.50242,0.33954 0.87113,1.19625 1.17446,1.68741 0.45251,1.22875 3.03026,3.66463 1.18755,3.82135 -2.14183,0.003 -2.4325,-0.93882 -4.22861,-1.85213 -0.19778,-0.10057 2.10535,1.2004 2.2722,1.55349 1.48016,3.13249 -0.37281,9.54681 0.27819,9.91295 2.27399,0.62443 3.29263,1.72896 3.61277,3.31999 0.82155,2.77183 -0.6281,7.69652 -1.63225,7.99786 -0.44951,0.13489 0.45091,-2.66783 -1.14557,-3.49329 -3.10315,-1.20122 -4.28614,-6.17614 -5.93102,-2.55258 l -1.50152,4.72979 c -0.46529,1.68013 -2.63051,1.07931 -4.04744,1.61835 -1.55504,0.59158 -1.49173,2.60962 -2.17022,2.71864 -1.38771,0.40382 -0.94652,-1.15701 -0.97635,-2.85432 -0.0236,-1.34094 0.85886,-2.57095 -0.008,-2.57771 -1.60459,0.0795 -3.24047,-0.23527 -4.63274,-0.0675 -2.39602,0.55405 -3.88538,1.89276 -3.72288,1.27931 0.17296,-0.65294 1.45423,-3.74171 4.11381,-4.29419 0.8489,-0.17635 1.268,-1.49827 2.24962,-1.78467 0.20463,-0.20832 -2.25854,0.27405 -2.59185,-0.54489 -0.89527,-2.19969 -3.08052,-3.22742 -4.55327,-3.56609 -0.80426,-0.54636 5.40431,-2.06243 7.97993,-1.8172 2.19565,0.20905 3.17148,1.58634 6.15482,1.95448 1.72675,-0.52553 3.38073,-2.50181 3.93129,-4.55389 0.0626,-1.9812 -0.25004,-3.97887 -1.17546,-5.63072 -1.53783,-2.51002 -3.2312,-4.78672 -5.05209,-6.87214 -3.16987,-4.20381 -1.36271,-1.48753 -1.46132,1.26719 -2.38966,7.11984 -3.19038,-2.32407 -3.42241,-0.17591 l -0.75076,2.40244 c -3.8174,6.15756 -1.58652,-3.39108 -3.02881,-6.79706 -1.55276,-3.54147 -4.95462,-8.55712 -5.16738,-10.11174 -0.67181,-1.46438 -0.57708,-2.86068 0.40648,-4.69494 -2.08615,-1.40835 -4.71745,-2.68197 -7.60091,-2.49573 -1.51004,0.0193 -3.16506,0.44256 -4.05412,1.12615 -1.56453,0.73177 -1.90283,2.07666 -1.8769,3.60366 -0.0362,1.10112 0.99075,2.20223 2.17721,3.30335 l 5.93102,6.75686 c 2.16696,2.83965 2.7072,4.63324 3.07812,6.75686 0.08,1.47138 0.60984,3.47435 -1.12614,1.80183 -1.14642,-0.50589 -3.91377,-3.4432 -2.92797,-0.75077 2.17768,3.67715 0.73617,2.86419 -1.50153,1.8769 -2.34046,-0.10781 -2.28238,-0.30761 -4.80487,0.976 -1.38548,0.89059 -3.56178,0.9022 -2.42443,1.98685 1.96098,1.19082 4.14876,2.18882 3.87287,4.75179 -0.17921,0.47238 -0.96879,0.33192 -1.23893,0.82382 -0.29567,0.53837 -0.0847,1.70817 -0.58489,2.19744 -0.90271,1.52066 -2.9309,1.94676 -3.24904,1.13935 -0.24527,-0.62246 2.22359,-2.39573 0.93791,-3.31325 -0.67735,-0.48339 -2.04791,-1.07736 -2.08285,-2.12264 -0.0506,-1.51304 -0.39004,-2.81886 -0.86709,-3.02599 -0.5743,-0.24936 -1.42982,0.18446 -2.02132,1.09121 l -3.61654,3.6112 c -0.9021,0.80703 -2.44617,0.71431 -3.74093,0.81832 -2.54048,0.20882 -3.98011,0.0872 1.29451,-4.7389 0.7985,-0.79942 -1.31424,-0.73296 -1.7812,-1.28855 -0.35208,-0.4189 -0.52918,-1.08139 -1.31514,-1.10478 -1.65271,-0.30776 -2.9529,1.4309 -3.20427,0.96305 -0.5208,-0.96933 0.64812,-3.66304 3.95503,-3.44057 0.98776,-0.45367 -0.66985,-1.48297 -1.1128,-3.41779 -0.21761,-0.95054 -1.98223,-1.03976 -1.96532,-1.61231 -0.0843,-0.63057 1.34488,-0.53605 3.5412,-0.10436 0.98592,0.19379 2.37888,0.0368 3.36581,0.40466 1.76822,0.69463 2.8428,4.23686 5.70579,4.7298 1.82255,0.16227 2.86953,-1.32649 3.90396,-2.40243 1.99411,-1.76379 1.98603,-3.75003 2.25229,-5.7058 -0.11401,-2.07155 -2.54495,-3.8121 -3.90396,-5.70579 -1.83656,-1.79841 -1.37099,-4.34727 -1.71064,-5.41432 -0.12148,-0.38165 -1.88504,1.71878 -2.94409,2.56143 -1.31293,1.02906 -2.03736,1.01249 -3.52858,0.52553 -1.9008,-0.892 -2.97842,-1.85039 -2.76454,-2.31532 0.29839,-0.64864 2.9663,-0.27672 3.74053,-1.43849 1.10406,-0.78271 0.61237,-1.18488 0.29597,-1.33088 -0.80831,-0.37298 -4.15244,0.90082 -5.35717,-1.04957 -3.97897,-2.55558 0.8444,-1.06166 2.10213,-2.8529 2.47032,-3.0531 4.42104,-7.40447 6.86303,-9.18127 1.09032,-1.01601 2.97341,-1.84993 4.65473,-1.5766 1.62615,0.0108 8.7378,4.46831 10.88604,4.27933 2.52954,0.1367 4.10777,-0.56658 4.88529,-1.24141 1.94497,-1.0231 -8.01346,-12.92295 -8.56402,-14.07412 -2.83536,-0.93603 -4.1958,-3.346961 -4.18152,-6.361627 0.005,-1.03051 -0.91274,-0.93073 -1.29904,-1.97182 -0.29228,-1.78294 -0.83923,-0.73213 -1.72675,1.65167 -1.73122,3.785356 -2.54505,4.51278 -1.87691,0.30031 -0.10371,-2.78613 -5.61168,-4.57464 -5.10518,-2.25229 0.003,2.23825 1.01766,3.25749 1.20122,4.80488 -0.0524,3.013357 -0.88542,4.260717 -1.70255,5.309977 -0.7658,0.48225 0.16045,-1.96025 -0.61889,-2.56708 -1.24533,-0.969677 -1.25913,-2.344721 -1.04866,-4.349667 0.15893,-1.51395 -1.06126,-2.39836 -1.3597,-1.17105 -0.47225,0.78109 -0.47568,2.32513 -1.64372,3.463616 -0.94703,0.923064 -1.80214,0.796874 -2.20314,1.741991 -1.49459,3.52258 -1.32848,4.91505 -2.91,0.87556 -0.0211,-1.788327 -1.06959,-3.551977 0.45046,-4.955027 l 3.07812,-2.62767 c 1.735203,-1.326575 0.684257,-1.903226 -0.956611,-1.442225 -1.406373,0.39512 -2.926824,2.241841 -3.736749,1.905565 -4.32596,-1.3348 -1.60736,-4.92289 4.01768,-4.6676 1.32086,-0.64719 -4.14506,-4.12119 -3.11769,-7.26458 0.31231,-0.95556 -0.97016,-1.18986 -1.16166,-2.19502 -0.008,-1.21802 4.0138,-0.82556 5.93102,2.40243 1.3281,1.67641 1.12608,4.0884 1.66612,5.94924 -0.20212,2.27007 1.72394,-1.66673 3.56566,-2.38956 1.33506,-0.63249 3.00101,-0.85138 4.90195,-0.77652 2.94342,0.0872 2.76649,-4.65497 1.87846,-6.01143 -1.84926,-2.57945 -2.59968,-4.18586 0.12817,-6.21311 0.5221,-0.42134 1.44758,-0.85969 1.65741,-1.28194 0.80188,-1.61372 -0.0551,-2.05783 -0.68142,-1.75059 l -1.42645,0.41774 c -3.27108,2.15922 2.68986,-7.98164 0.84783,-6.48765 l -2.02706,1.77332 c -4.03426,3.18906 -0.86558,-0.97481 0,-3.42499 0.70308,-1.70173 0.44729,-4.98006 -0.60061,-3.82889 l -4.05099,1.96174 c -6.69022,3.10663 0.51628,-2.44048 3.02569,-6.054489 1.62139,-1.21582 -2.74036,-1.15937 -4.2891,-2.24162 -1.84737,-1.41274 -1.42255,-2.94394 -3.01905,-3.80091 -3.93168,-1.23876 0.12877,-2.37588 2.21897,-1.89734 l 3.70137,2.50549 c 2.24415,1.4937 2.94487,0.37171 2.11281,-0.30785 -3.10332,-1.41876 -2.92634,-3.40551 -2.8529,-4.80488 -0.12468,-0.65473 -1.25092,-1.30753 -3.06097,-1.64413 -0.50133,-0.0932 0.12189,-1.19868 1.39863,-1.35891 1.70172,-0.0747 3.02807,0.20875 4.7298,1.80183 1.95155,2.78237 -0.38651,6.11147 2.03772,5.0301 0.58673,-1.27258 0.48936,-2.82004 -0.52553,-5.0301 -2.22217,-1.82025 -4.9995,-5.27659 3.40419,-0.32607 1.13694,0.75361 1.85335,1.92725 1.77607,3.10388 -0.13063,1.93122 -2.28734,4.16421 -2.32736,5.63072 l 0.97599,5.705789 c 3.0669,9.53746 4.49042,9.1891 5.42253,9.04242 2.56784,-2.73911 2.37294,-4.16496 5.02593,-6.11075 z"
     id="path2989"
     inkscape:connector-curvature="0"
     sodipodi:nodetypes="cccccccccccssccscccscccsscsssccccsccccccccccccccccccsccccccccccscscccssccssccscccscsccsscscsccccccccccccccccccccccscssssccccscscscscccccsccscscccccccsccccccsscsscccsccscccccccsccccccccccccccsccccccccccc" />
  <path
     style="fill:#f7c500;fill-opacity:1;stroke:#000000;stroke-width:0.80000001;stroke-linecap:butt;stroke-linejoin:miter;stroke-miterlimit:4;stroke-opacity:1;stroke-dasharray:none"
     d="m 43.704856,90.076413 c 0.21046,1.76789 -0.841997,3.127336 -0.11906,4.3569"
     id="path3759"
     inkscape:connector-curvature="0"
     sodipodi:nodetypes="cc" />
  <path
     style="fill:#f7c500;fill-opacity:1;stroke:#000000;stroke-width:0.80000001;stroke-linecap:butt;stroke-linejoin:miter;stroke-miterlimit:4;stroke-opacity:1;stroke-dasharray:none"
     d="m 53.910416,82.992303 c -4.09286,4.24307 -7.97874,8.19598 -7.43216,12.53605"
     id="path3761"
     inkscape:connector-curvature="0"
     sodipodi:nodetypes="cc" />
  <path
     style="fill:#f7c500;fill-opacity:0;stroke:#000000;stroke-width:0.80000001;stroke-linecap:butt;stroke-linejoin:miter;stroke-miterlimit:4;stroke-opacity:1;stroke-dasharray:none"
     d="m 49.487556,101.3035 c 0.33188,-0.33968 1.45111,-0.65107 1.83188,-2.271861 0.38655,-1.645346 0.72962,-3.751366 1.29371,-4.831446 1.08442,-2.07641 0.81653,-4.53436 1.33371,-3.56715 0.2839,0.40686 0.17994,2.38354 0.69822,3.327 1.20339,2.19063 3.12402,3.42646 2.16847,-0.46031 -0.38124,-1.61138 0.0234,-4.13985 1.88003,-5.587 1.41977,-1.37541 1.4103,6.74718 3.52949,6.82088 0.593668,0.121216 0.62718,-0.81516 0.7265,-2.47661 0.15973,-2.67187 1.80961,-6.08851 1.99915,-5.66013 -0.17412,2.87533 -0.344225,4.849478 0.132342,7.129258"
     id="path3763"
     inkscape:connector-curvature="0"
     sodipodi:nodetypes="csscscccscc" />
  <path
     style="fill:#f7c500;fill-opacity:1;stroke:#000000;stroke-width:0.80000001;stroke-linecap:butt;stroke-linejoin:miter;stroke-miterlimit:4;stroke-opacity:1;stroke-dasharray:none"
     d="m 56.388846,65.416773 c -1.38358,0.73229 -2.29272,2.06636 -2.54817,3.50373 -0.12642,1.41109 -0.0128,2.97128 -2.28273,3.45065 -1.95175,0.34346 -1.78556,0.19807 -3.34448,1.32717 -1.9395,1.48436 -4.83032,3.575 -3.13212,3.98152 0.77263,-0.14156 2.10679,-0.49548 3.39756,-0.63704 0.46718,-0.0747 0.93279,-0.12463 1.32717,0.95556 0.0351,0.6273 3.49942,-2.03128 4.14078,-3.60991 -1.88872,3.77839 -9.24022,5.48159 -11.24532,10.00233"
     id="path3771"
     inkscape:connector-curvature="0"
     sodipodi:nodetypes="ccccccccc" />
  <path
     style="fill:#f7c500;fill-opacity:1;stroke:#000000;stroke-width:0.80000001;stroke-linecap:butt;stroke-linejoin:miter;stroke-miterlimit:4;stroke-opacity:1;stroke-dasharray:none"
     d="m 44.391216,71.787203 c 3.00951,0.0315 6.8028,-4.22585 6.68894,-5.83956"
     id="path3773"
     inkscape:connector-curvature="0"
     sodipodi:nodetypes="cc" />
  <path
     style="fill:#f7c500;fill-opacity:1;stroke:#000000;stroke-width:0.80000001;stroke-linecap:butt;stroke-linejoin:miter;stroke-miterlimit:4;stroke-opacity:1;stroke-dasharray:none"
     d="m 32.499746,153.54099 c 1.53286,-0.64675 2.65668,-1.70252 4.9151,-1.6237"
     id="path3791"
     inkscape:connector-curvature="0"
     sodipodi:nodetypes="cc" />
  <path
     style="fill:#f7c500;fill-opacity:1;stroke:#000000;stroke-width:0.80000001;stroke-linecap:butt;stroke-linejoin:miter;stroke-miterlimit:4;stroke-opacity:1;stroke-dasharray:none"
     d="m 30.037703,148.92803 c 2.10468,-0.32498 4.267233,-0.51371 5.976453,0.94085"
     id="path3793"
     inkscape:connector-curvature="0"
     sodipodi:nodetypes="cc" />
  <path
     style="fill:#f7c500;fill-opacity:1;stroke:#000000;stroke-width:0.80000001;stroke-linecap:butt;stroke-linejoin:miter;stroke-miterlimit:4;stroke-opacity:1;stroke-dasharray:none"
     d="m 77.570516,63.558733 c -1.72193,1.81597 -0.53868,14.46619 -3.50373,8.44081 -0.64196,-0.92076 -1.46655,-4.32804 -1.72823,-5.53907 -0.31036,-1.43632 0.1514,-1.13482 -0.0236,0.12421 0.59183,2.69826 0.71872,5.38311 0.47778,7.80377 -0.26012,0.96086 -1.01025,1.8595 -2.35495,0.35317 -0.41844,-0.46873 0.10895,2.60413 -0.2994,3.30983 -2.46035,4.4757 -2.34138,-2.97164 -3.18521,-1.64569 -1.2189,4.0913 -2.35401,6.30023 -2.86669,4.45929 -0.41299,-3.41066 -1.54341,-5.02694 -1.53952,-2.49508 -0.10357,1.55576 0.73689,3.62254 0,4.67165 -3.07286,4.43778 -0.94544,-3.80214 -2.91978,-4.35313"
     id="path3767"
     inkscape:connector-curvature="0"
     sodipodi:nodetypes="ccsccscccccc" />
  <path
     style="fill:#f7c500;fill-opacity:1;stroke:#000000;stroke-width:0.80000001;stroke-linecap:butt;stroke-linejoin:miter;stroke-miterlimit:4;stroke-opacity:1;stroke-dasharray:none"
     d="m 62.600016,59.471043 5.99882,0.26543 c 2.40173,-0.0543 2.57941,-1.24996 3.2383,-2.97286"
     id="path3775"
     inkscape:connector-curvature="0"
     sodipodi:nodetypes="ccc" />
  <path
     style="fill:#f7c500;fill-opacity:1;stroke:#000000;stroke-width:0.80000001;stroke-linecap:butt;stroke-linejoin:miter;stroke-miterlimit:4;stroke-opacity:1;stroke-dasharray:none"
     d="m 78.609166,39.013074 c -0.539,0.59403 -0.18235,1.4549 0.47621,2.14677"
     id="path3777"
     inkscape:connector-curvature="0"
     sodipodi:nodetypes="cc" />
  <path
     style="fill:#f7c500;fill-opacity:1;stroke:#000000;stroke-width:0.80000001;stroke-linecap:butt;stroke-linejoin:miter;stroke-miterlimit:4;stroke-opacity:1;stroke-dasharray:none"
     d="m 83.906076,41.296004 c 0.92073,0.639943 1.72265,0.54137 2.64256,0.28743"
     id="path3779"
     inkscape:connector-curvature="0"
     sodipodi:nodetypes="cc" />
  <path
     style="fill:#f7c500;fill-opacity:1;stroke:#000000;stroke-width:0.80000001;stroke-linecap:butt;stroke-linejoin:miter;stroke-miterlimit:4;stroke-opacity:1;stroke-dasharray:none"
     d="m 85.039116,45.474324 c 1.18379,0.686702 2.3123,0.643898 3.55738,0.19413"
     id="path3781"
     inkscape:connector-curvature="0"
     sodipodi:nodetypes="cc" />
  <path
     style="fill:#f7c500;fill-opacity:1;stroke:#000000;stroke-width:1px;stroke-linecap:butt;stroke-linejoin:miter;stroke-opacity:1"
     d="m 69.997306,171.83853 c 1.51927,-0.13966 2.62302,-4.54047 5.42996,-5.25105"
     id="path3789"
     inkscape:connector-curvature="0"
     sodipodi:nodetypes="cc" />
  <path
     style="fill:#f7c500;fill-opacity:1;stroke:#000000;stroke-width:0.80000001;stroke-linecap:butt;stroke-linejoin:miter;stroke-miterlimit:4;stroke-opacity:1;stroke-dasharray:none"
     d="m 76.614956,67.009383 c 0.34815,1.94723 0.38275,4.02657 1.27408,5.83955"
     id="path3807"
     inkscape:connector-curvature="0"
     sodipodi:nodetypes="cc" />
  <path
     style="fill:#f7c500;fill-opacity:1;stroke:#000000;stroke-width:1.05250847px;stroke-linecap:butt;stroke-linejoin:miter;stroke-opacity:1"
     d="m 113.57131,118.14777 c -0.60667,1.90433 0.64413,3.73104 3.11334,4.60968 l 4.11534,1.46437 c 2.46921,0.87863 4.50047,0.2555 5.03138,-1.41104 0.62444,-1.96007 -0.63658,-3.75468 -3.10578,-4.63331 l -4.11536,-1.46437 c -3.29227,-1.1715 -4.49025,-0.28759 -5.03892,1.43467 z"
     id="path3809"
     inkscape:connector-curvature="0"
     sodipodi:nodetypes="ccccccc" />
  <path
     style="fill:#f7c500;fill-opacity:1;stroke:#000000;stroke-width:1.05247247px;stroke-linecap:butt;stroke-linejoin:miter;stroke-opacity:1"
     d="m 139.31283,122.56075 c -0.60664,-1.90423 0.64412,-3.73088 3.11326,-4.6095 l 4.1152,-1.46431 c 2.46915,-0.87858 4.50034,-0.25548 5.03124,1.41097 0.62442,1.96002 -0.63657,3.75456 -3.10569,4.63315 l -4.11524,1.46433 c -3.29217,1.17144 -4.4901,0.28756 -5.03877,-1.43464 z"
     id="path3809-7"
     inkscape:connector-curvature="0"
     sodipodi:nodetypes="ccccccc" />
  <path
     style="fill:#f7c500;fill-opacity:1;stroke:#000000;stroke-width:1px;stroke-linecap:butt;stroke-linejoin:miter;stroke-opacity:1"
     d="m 162.57875,163.06795 c 4.22635,-1.68415 8.13077,-5.39299 6.32854,-12.21012 -0.60045,-1.91368 -1.34081,-3.7716 -3.93909,-4.88914 3.90443,-3.70884 7.62027,-5.18957 4.59228,-12.44286 -2.89493,-7.61005 -11.18265,-8.12501 -15.71177,-4.65561 0.1886,-2.22809 1.01511,-4.28494 -1.29212,-5.94393 -1.48868,-1.03442 -3.04977,-0.93765 -5.84823,0.17752 -3.25277,1.29619 -4.04447,2.01085 -4.37032,3.89448 -0.54587,2.80409 1.48073,3.71584 3.15004,5.20357 -5.63726,0.60203 -11.3361,6.67029 -8.37464,14.10196 2.96146,7.43168 6.67729,5.95094 12.06046,6.07303 -1.11555,2.4832 -0.37521,4.34113 0.36517,6.19904 3.52024,6.13253 8.90539,6.13955 13.03968,4.49206 z"
     id="path4035-1-1"
     inkscape:connector-curvature="0"
     sodipodi:nodetypes="ccccccccccccc" />
  <path
     style="fill:#f7c500;fill-opacity:1;stroke:#000000;stroke-width:1px;stroke-linecap:butt;stroke-linejoin:miter;stroke-opacity:1"
     d="m 102.76423,163.40157 c 4.23194,1.67001 9.61705,1.64498 12.97665,-4.55459 0.87423,-1.80509 1.60838,-3.66548 0.48213,-6.26001 5.38511,-0.025 9.10588,1.44326 11.87175,-5.91397 3.10727,-7.52586 -2.57516,-13.58073 -8.25109,-14.15817 1.66434,-1.49332 3.67584,-2.42473 3.13262,-5.21409 -0.37518,-1.77352 -1.57834,-2.77293 -4.38051,-3.87871 -3.25708,-1.28531 -4.3234,-1.30744 -5.85161,-0.15907 -2.31927,1.6679 -1.46829,3.72077 -1.27224,5.94823 -4.5178,-3.425 -12.826644,-2.91155 -15.763214,4.52999 -2.93657,7.44155 0.7842,8.90983 4.620714,12.68803 -2.514224,1.04379 -3.248364,2.90418 -3.982504,4.76456 -1.63931,6.87842 2.27751,10.57417 6.417304,12.2078 z"
     id="path4035-1-15"
     inkscape:connector-curvature="0"
     sodipodi:nodetypes="ccccccccccccc" />
  <path
     style="fill:#f7c500;fill-opacity:1;stroke:#000000;stroke-width:1px;stroke-linecap:butt;stroke-linejoin:miter;stroke-opacity:1"
     d="m 117.51543,116.31195 6,2 9,-21.999977 9,21.999977 6,-2 -12,-27.999977 8,-18 17,7 10,-24.999999 -23,-9 -15,35.999999 -15,-35.999999 -22.999984,9 10.999994,24.999999 15.99999,-7 8,18 z"
     id="path4109-2-7"
     inkscape:connector-curvature="0"
     sodipodi:nodetypes="ccccccccccccccccc" />
  <path
     style="fill:#007bc5;fill-opacity:1;stroke:#000000;stroke-width:1px;stroke-linecap:butt;stroke-linejoin:miter;stroke-opacity:1"
     d="m 101.61914,56.575753 1.95369,4.60251 4.6025,-1.95369 -1.95368,-4.602509 z"
     id="path4165-1-1"
     inkscape:connector-curvature="0"
     sodipodi:nodetypes="ccccc" />
  <path
     style="fill:#007bc5;fill-opacity:1;stroke:#000000;stroke-width:1px;stroke-linecap:butt;stroke-linejoin:miter;stroke-opacity:1"
     d="m 108.17533,59.224573 1.95369,4.60251 4.60251,-1.95369 -1.95369,-4.60251 z"
     id="path4165-1-8-8"
     inkscape:connector-curvature="0"
     sodipodi:nodetypes="ccccc" />
  <path
     style="fill:#007bc5;fill-opacity:1;stroke:#000000;stroke-width:1px;stroke-linecap:butt;stroke-linejoin:miter;stroke-opacity:1"
     d="m 152.94311,138.69142 c -2.14764,-1.26921 -6.07332,-2.87823 -8.84067,-1.7199 -2.76736,1.15833 -3.45394,4.69792 -2.52627,6.91417 1.00288,2.39601 2.17531,3.35733 4.92858,4.00503 2.40494,0.56576 5.11848,-0.0195 7.22939,-0.85787 -0.83681,5.77059 0.55673,14.27973 7.27986,11.04573 6.9641,-2.91497 2.03031,-9.52236 -2.6676,-12.97628 1.8449,-0.77223 4.38559,-2.47212 5.68494,-4.54769 1.54498,-2.81481 1.60903,-3.92569 0.62462,-6.27752 -0.94614,-2.26044 -3.94939,-4.25557 -6.71675,-3.09723 -3.6898,1.54444 -4.37638,5.08402 -4.9961,7.51156 z"
     id="path3849-4-9"
     inkscape:connector-curvature="0"
     sodipodi:nodetypes="cscsccccccc" />
  <path
     style="fill:#007bc5;fill-opacity:1;stroke:#000000;stroke-width:1px;stroke-linecap:butt;stroke-linejoin:miter;stroke-opacity:1"
     d="m 110.82415,52.668374 1.95369,4.602509 4.60251,-1.953689 -1.95369,-4.60251 z"
     id="path4165-1-5-9"
     inkscape:connector-curvature="0"
     sodipodi:nodetypes="ccccc" />
  <path
     style="fill:#007bc5;fill-opacity:1;stroke:#000000;stroke-width:1px;stroke-linecap:butt;stroke-linejoin:miter;stroke-opacity:1"
     d="m 112.11945,138.84163 c -0.64089,-2.41091 -2.31106,-6.31098 -5.09616,-7.42594 -2.7851,-1.11498 -5.75683,0.92682 -6.64974,3.1573 -0.965374,2.41137 -0.803734,3.91888 0.70478,6.31145 1.31767,2.08988 3.66252,3.57564 5.75527,4.45834 -4.64338,3.52687 -9.617334,10.57013 -2.5566,12.97954 7.00877,2.80583 8.12528,-5.36443 7.19845,-11.12125 1.85672,0.74331 4.86007,1.31324 7.24189,0.74484 3.07539,-0.92314 3.9001,-1.67014 4.84765,-4.03706 0.91075,-2.27493 0.16897,-5.80335 -2.61617,-6.91832 -3.71346,-1.48662 -6.68519,0.5552 -8.82937,1.8511 z"
     id="path3849-4-9-4"
     inkscape:connector-curvature="0"
     sodipodi:nodetypes="cscsccccccc" />
  <path
     style="fill:#007bc5;fill-opacity:1;stroke:#000000;stroke-width:1px;stroke-linecap:butt;stroke-linejoin:miter;stroke-opacity:1"
     d="m 105.52652,65.780773 1.95368,4.60251 4.60251,-1.95369 -1.95369,-4.60251 z"
     id="path4165-1-7-2"
     inkscape:connector-curvature="0"
     sodipodi:nodetypes="ccccc" />
  <path
     style="fill:#007bc5;fill-opacity:1;stroke:#000000;stroke-width:1px;stroke-linecap:butt;stroke-linejoin:miter;stroke-opacity:1"
     d="m 114.73153,61.873393 1.95369,4.60251 4.60251,-1.95369 -1.95369,-4.60251 z"
     id="path4165-1-6-7"
     inkscape:connector-curvature="0"
     sodipodi:nodetypes="ccccc" />
  <path
     style="fill:#007bc5;fill-opacity:1;stroke:#000000;stroke-width:1px;stroke-linecap:butt;stroke-linejoin:miter;stroke-opacity:1"
     d="m 149.62955,50.861704 -1.82932,4.653339 4.65334,1.82933 1.82932,-4.653339 z"
     id="path4165-1-9"
     inkscape:connector-curvature="0"
     sodipodi:nodetypes="ccccc" />
  <path
     style="fill:#007bc5;fill-opacity:1;stroke:#000000;stroke-width:1px;stroke-linecap:butt;stroke-linejoin:miter;stroke-opacity:1"
     d="m 152.45357,57.344373 -1.82934,4.65334 4.65334,1.82932 1.82934,-4.65334 z"
     id="path4165-1-8-5"
     inkscape:connector-curvature="0"
     sodipodi:nodetypes="ccccc" />
  <path
     style="fill:#007bc5;fill-opacity:1;stroke:#000000;stroke-width:1px;stroke-linecap:butt;stroke-linejoin:miter;stroke-opacity:1"
     d="m 158.93623,54.520354 -1.82932,4.653339 4.65334,1.82933 1.82932,-4.65334 z"
     id="path4165-1-5-4"
     inkscape:connector-curvature="0"
     sodipodi:nodetypes="ccccc" />
  <path
     style="fill:#007bc5;fill-opacity:1;stroke:#000000;stroke-width:1px;stroke-linecap:butt;stroke-linejoin:miter;stroke-opacity:1"
     d="m 145.97089,60.168383 -1.82932,4.65334 4.65334,1.82932 1.82932,-4.65333 z"
     id="path4165-1-7-3"
     inkscape:connector-curvature="0"
     sodipodi:nodetypes="ccccc" />
  <path
     style="fill:#007bc5;fill-opacity:1;stroke:#000000;stroke-width:1px;stroke-linecap:butt;stroke-linejoin:miter;stroke-opacity:1"
     d="m 155.27757,63.827033 -1.82932,4.65334 4.65334,1.82933 1.82932,-4.65334 z"
     id="path4165-1-6-1"
     inkscape:connector-curvature="0"
     sodipodi:nodetypes="ccccc" />
  <path
     style="fill:#f7c500;fill-opacity:1;stroke:#000000;stroke-width:0.80000001;stroke-linecap:butt;stroke-linejoin:miter;stroke-miterlimit:4;stroke-opacity:1;stroke-dasharray:none"
     d="m 66.601775,167.54767 c 1.74239,-1.27103 3.806771,-1.15234 5.931991,-1.46627"
     id="path3787-1"
     inkscape:connector-curvature="0"
     sodipodi:nodetypes="cc" />
  <path
     style="fill:none;stroke:#ffffe8;stroke-width:1px;stroke-linecap:butt;stroke-linejoin:miter;stroke-opacity:1"
     d="m 88.750626,8.5162531 c 2.23955,-0.0755 4.05282,-0.0667 5.86276,3e-5"
     id="path4960"
     inkscape:connector-curvature="0"
     sodipodi:nodetypes="cc" />
  <path
     style="fill:none;stroke:#ffffe8;stroke-width:1px;stroke-linecap:butt;stroke-linejoin:miter;stroke-opacity:1"
     d="m 89.156726,10.144133 c 2.52729,-0.0191 2.6663,9e-4 5.86276,3e-5"
     id="path4960-9"
     inkscape:connector-curvature="0"
     sodipodi:nodetypes="cc" />
  <path
     style="fill:#ffffff;fill-opacity:1;stroke:#ffffff;stroke-width:0.84002149px;stroke-linecap:butt;stroke-linejoin:miter;stroke-opacity:1"
     d="m 90.688656,8.8137531 c -0.008,0.0232 -0.20586,1.3886799 -0.20586,1.3886799 l 2.9808,0.0174 -0.0906,-1.5339399 z"
     id="path4980"
     inkscape:connector-curvature="0"
     sodipodi:nodetypes="ccccc" />
  <path
     style="fill:none;stroke:#ffffff;stroke-width:1px;stroke-linecap:butt;stroke-linejoin:miter;stroke-opacity:1"
     d="m 89.178796,212.69231 c 0.9127,1.26403 1.78147,2.48412 2.65143,3.7054 1.08413,-1.32494 1.95684,-3.07462 3.49131,-4.67704"
     id="path4982"
     inkscape:connector-curvature="0"
     sodipodi:nodetypes="ccc" />
  <path
     style="fill:none;stroke:#ffffff;stroke-width:1px;stroke-linecap:butt;stroke-linejoin:miter;stroke-opacity:1"
     d="m 89.285836,214.53678 c 0.9127,1.26403 1.78147,2.48412 2.65143,3.7054 1.08413,-1.32494 1.95684,-3.07462 3.49131,-4.67704"
     id="path4982-6"
     inkscape:connector-curvature="0"
     sodipodi:nodetypes="ccc" />
  <path
     style="fill:none;stroke:#ffffff;stroke-width:1px;stroke-linecap:butt;stroke-linejoin:miter;stroke-opacity:1"
     d="m 89.285836,213.86156 c 0.9127,1.26403 1.78147,2.48412 2.65143,3.7054 1.08413,-1.32494 1.95684,-3.07462 3.49131,-4.67704"
     id="path4982-9"
     inkscape:connector-curvature="0"
     sodipodi:nodetypes="ccc" />
  <path
     style="fill:none;stroke:#000000;stroke-width:1.00161421px;stroke-linecap:butt;stroke-linejoin:miter;stroke-opacity:1"
     d="M 7.9510049,29.404173 C 35.611616,17.682753 63.946816,10.845343 92.301466,10.624913 122.37629,11.077153 149.88167,18.72586 176,29 l -0.14692,38.708279 c -7.65328,3.069013 -13.07939,13.025629 -13.26961,24.525536 0.84086,11.353965 5.65825,21.048515 13.49273,24.302495 -0.099,10.86532 0.676,23.85375 -1.31995,35.73928 -1.74397,10.38503 -6.57968,19.95337 -17.23417,27.01396 -13.56906,9.32282 -33.36022,14.46712 -45.80624,20.83697 C 103,204 96,209 91.833106,215.17513 88,209 81,204 72.301656,200.30748 57.004336,192.81492 42.472826,189.79568 28.121696,180.36014 21.738686,176.46959 14.538561,169.65591 11.305481,161.08792 6.5907708,148.59349 7.6584533,132.55566 7.8384833,116.31524 15.506133,112.55541 19.789226,105.78498 21.102266,92.96074 20.827836,84.559703 19.444076,74.149336 7.8463149,67.546613 z"
     id="path3138"
     inkscape:connector-curvature="0"
     sodipodi:nodetypes="ccccccscccccscccc" />
  <path
     style="fill:#f7c500;fill-opacity:0;stroke:#000000;stroke-width:0.80000000999999998;stroke-linecap:butt;stroke-linejoin:miter;stroke-miterlimit:4;stroke-opacity:1;stroke-dasharray:none"
     d="m 58.777756,127.79385 c 3.54358,-2.02475 3.5645,-10.71463 0.31853,-13.37788"
     id="path3785"
     inkscape:connector-curvature="0"
     sodipodi:nodetypes="cc" />
  <path
     style="fill:#ffffff;fill-opacity:1;stroke:#000000;stroke-width:0.80000001;stroke-linecap:butt;stroke-linejoin:miter;stroke-miterlimit:4;stroke-opacity:1;stroke-dasharray:none"
     d="m 68.074696,39.786208 c 0.43216,2.077655 1.12723,2.937956 1.94861,4.095637 0.78836,0.98472 2.64527,3.265689 4.84047,3.802662 0.7729,0.189061 -0.0146,-1.724818 -0.60932,-3.323797 -1.44231,-4.125688 -3.79604,-2.159327 -5.03053,-2.215628 -0.463,-1.54e-4 -0.97516,-1.232831 -1.14923,-2.358874 z"
     id="path3801-1-4"
     inkscape:connector-curvature="0"
     sodipodi:nodetypes="ccsccc" />
  <path
     style="fill:#000000;fill-opacity:1;stroke:#000000;stroke-width:0.55416811px;stroke-linecap:butt;stroke-linejoin:miter;stroke-opacity:1"
     d="m 72.571929,42.279134 c -0.494907,-0.249084 -0.743817,0.246166 -0.992724,0.741421 -0.248909,0.495251 -0.497817,0.990503 -0.0029,1.239585 0.494907,0.249082 0.743817,-0.246168 0.992724,-0.741422 0.24891,-0.495252 0.497817,-0.990503 0.0029,-1.239584 z"
     id="path3066-0"
     inkscape:connector-curvature="0"
     sodipodi:nodetypes="ccccc" />
</svg>
