<?xml version="1.0" encoding="UTF-8" standalone="no"?>
<!-- Creator: CorelDRAW -->

<svg
   xmlns:dc="http://purl.org/dc/elements/1.1/"
   xmlns:cc="http://creativecommons.org/ns#"
   xmlns:rdf="http://www.w3.org/1999/02/22-rdf-syntax-ns#"
   xmlns:svg="http://www.w3.org/2000/svg"
   xmlns="http://www.w3.org/2000/svg"
   xmlns:sodipodi="http://sodipodi.sourceforge.net/DTD/sodipodi-0.dtd"
   xmlns:inkscape="http://www.inkscape.org/namespaces/inkscape"
   xml:space="preserve"
   width="300"
   height="359.93991"
   style="fill-rule:evenodd"
   viewBox="0 0 84.666667 101.58304"
   id="svg2"
   version="1.1"
   inkscape:version="0.48.1 "
   sodipodi:docname="брест_.svg"><metadata
   id="metadata24"><rdf:RDF><cc:Work
       rdf:about=""><dc:format>image/svg+xml</dc:format><dc:type
         rdf:resource="http://purl.org/dc/dcmitype/StillImage" /></cc:Work></rdf:RDF></metadata><sodipodi:namedview
   pagecolor="#ffffff"
   bordercolor="#666666"
   borderopacity="1"
   objecttolerance="10"
   gridtolerance="10"
   guidetolerance="10"
   inkscape:pageopacity="0"
   inkscape:pageshadow="2"
   inkscape:window-width="640"
   inkscape:window-height="480"
   id="namedview22"
   showgrid="false"
   fit-margin-top="0"
   fit-margin-left="0"
   fit-margin-right="0"
   fit-margin-bottom="0"
   inkscape:zoom="0.72512102"
   inkscape:cx="150"
   inkscape:cy="179.96996"
   inkscape:window-x="0"
   inkscape:window-y="0"
   inkscape:window-maximized="0"
   inkscape:current-layer="svg2" />
 <defs
   id="defs4"><style
     type="text/css"
     id="style6">
   
    .fil0 {fill:black;fill-rule:nonzero}
    .fil1 {fill:#1E85C7;fill-rule:nonzero}
    .fil2 {fill:#DF242E;fill-rule:nonzero}
    .fil3 {fill:white;fill-rule:nonzero}
   
  </style></defs>
 <g
   id="Слой_x0020_1"
   transform="matrix(1.2307651,0,0,1.2307651,-86.897802,-131.53433)">
  <metadata
   id="CorelCorpID_0Corel-Layer" />
  <path
   class="fil0"
   d="m 139.396,106.872 -10e-5,41.5192 7e-4,0 c 0,18.7553 -16.6144,35.5134 -34.396,41.0173 -17.7815,-5.5039 -34.3959,-22.262 -34.3959,-41.0173 l 7e-4,0 -1e-4,-41.5192 68.7907,0 z"
   id="path10"
   inkscape:connector-curvature="0"
   style="fill:#000000;fill-rule:nonzero" />
  <path
   class="fil1"
   d="m 139.044,107.225 -1e-4,41.1664 -7e-4,0 0,0.002 7e-4,0 0,0.1685 c -0.0299,5.5421 -1.5548,10.9724 -4.0903,15.8769 -5.9643,11.5361 -17.6711,20.7679 -29.9535,24.601 -12.2824,-3.8331 -23.9892,-13.0649 -29.9535,-24.601 -2.5355,-4.9045 -4.0604,-10.3348 -4.0903,-15.8769 l 0,-0.1685 7e-4,0 0,-0.002 -7e-4,0 -1e-4,-41.1664 68.0878,0 z"
   id="path12"
   inkscape:connector-curvature="0"
   style="fill:#1e85c7;fill-rule:nonzero" />
  <path
   class="fil2"
   d="m 139.044,140.165 -13.4059,0 0,8.1909 -13.7589,0 1e-4,-8.1909 -13.7581,0 0,8.1909 -13.759,0 1e-4,-8.1909 -13.4059,0 0,8.2261 7e-4,0 0,0.002 -7e-4,0 0,0.1685 c 0.0299,5.5421 1.5548,10.9724 4.0903,15.8769 5.9643,11.5361 17.6711,20.7679 29.9535,24.601 12.2824,-3.8331 23.9892,-13.0649 29.9535,-24.601 2.5355,-4.9045 4.0604,-10.3348 4.0903,-15.8769 l 0,-0.1685 -7e-4,0 0,-0.002 7e-4,0 0,-8.2261 z"
   id="path14"
   inkscape:connector-curvature="0"
   style="fill:#df242e;fill-rule:nonzero" />
  <g
   id="лилия">
   <path
   id="_158283264"
   class="fil0"
   d="m 104.44,133.338 c -0.1903,-0.0647 -0.3828,-0.1594 -0.578,-0.2769 l -10e-5,1e-4 c -1.0955,-0.7713 -1.3942,-2.2475 -1.6341,-3.4754 -0.284,-1.4529 -0.6116,-2.6779 -2.1373,-3.2308 0.5359,-0.3235 1.1226,-0.4737 1.7535,-0.4481 -0.2546,-1.2694 -0.8002,-2.4229 -1.6392,-3.413 -1.0079,-1.1897 -2.3737,-2.0789 -3.8862,-2.4916 0.7289,-0.66 1.6691,-1.0274 2.6627,-0.975 0.8488,0.0448 1.5742,0.3806 2.2759,0.8328 -0.1818,-0.6718 -0.2867,-1.3221 -0.2993,-2.0172 -0.0136,-0.7303 -0.139,-1.4011 -0.5081,-2.0388 1.1277,-0.0286 2.0127,0.3496 2.8456,1.0965 0.2234,-1.1866 0.8497,-2.1383 1.705,-2.9717 0.8553,0.8334 1.4816,1.7851 1.705,2.9717 0.8329,-0.7469 1.7179,-1.1251 2.8456,-1.0965 -0.3691,0.6377 -0.4945,1.3085 -0.5081,2.0388 -0.0126,0.6951 -0.1175,1.3454 -0.2993,2.0172 0.7017,-0.4522 1.4271,-0.788 2.2759,-0.8328 0.9936,-0.0524 1.9338,0.315 2.6627,0.975 -1.5125,0.4127 -2.8783,1.3019 -3.8862,2.4916 -0.839,0.9901 -1.3846,2.1436 -1.6392,3.413 0.6309,-0.0256 1.2176,0.1246 1.7535,0.4481 -1.5257,0.5529 -1.8533,1.7779 -2.1373,3.2308 -0.2399,1.2279 -0.5386,2.7041 -1.6341,3.4754 l -1e-4,-1e-4 c -0.1952,0.1175 -0.3877,0.2122 -0.578,0.2769 -0.3748,0.1274 -0.746,0.1274 -1.1208,0 z"
   inkscape:connector-curvature="0"
   style="fill:#000000;fill-rule:nonzero" />
   <path
   id="_158283192"
   class="fil3"
   d="m 105.983,132.849 c 1.0254,-0.7183 1.3073,-2.1718 1.5304,-3.3135 0.2586,-1.3225 0.4977,-2.5449 1.7773,-3.1928 -1.3688,-0.4704 -2.5841,0.062 -3.3687,1.2702 -0.021,-1.1036 0.0693,-2.2385 -0.9217,-3.2809 -0.991,1.0424 -0.9007,2.1773 -0.9217,3.2809 -0.7846,-1.2082 -1.9999,-1.7406 -3.3687,-1.2702 1.2796,0.6479 1.5187,1.8703 1.7773,3.1928 0.2231,1.1417 0.505,2.5952 1.5304,3.3135 0.5801,0.4061 1.3853,0.4061 1.9654,0 z m -0.9827,-13.4991 c 0.4022,-0.799 0.8568,-1.56 1.47,-2.2141 -0.0773,-0.5041 -0.1942,-0.9572 -0.4258,-1.4159 -0.2666,-0.528 -0.6349,-1.0098 -1.0442,-1.4223 -0.4093,0.4125 -0.7776,0.8943 -1.0442,1.4223 -0.2316,0.4587 -0.3485,0.9118 -0.4258,1.4159 0.6132,0.6541 1.0678,1.4151 1.47,2.2141 z m 0,4.6127 c 0.3902,0.3657 0.6766,0.7705 0.8668,1.2154 0.244,0.5707 0.2931,1.1543 0.2899,1.7655 0.4877,-0.5295 1.0301,-0.8748 1.7162,-1.0005 0.3148,-1.3406 0.792,-2.4906 1.6822,-3.5681 0.9417,-1.1397 2.1912,-2.0299 3.5755,-2.4858 -1.7117,-1.1505 -3.4296,-0.4688 -4.7393,0.4734 0.2026,-0.8622 0.3828,-1.6964 0.3877,-2.5302 0.003,-0.598 0.0658,-1.1581 0.3386,-1.7593 -2.1382,0.1362 -3.3341,2.2026 -4.1176,3.8951 -0.7835,-1.6925 -1.9794,-3.7589 -4.1176,-3.8951 0.2728,0.6012 0.3351,1.1613 0.3386,1.7593 0.005,0.8338 0.1851,1.668 0.3877,2.5302 -1.3097,-0.9422 -3.0276,-1.6239 -4.7393,-0.4734 1.3843,0.4559 2.6338,1.3461 3.5755,2.4858 0.8902,1.0775 1.3674,2.2275 1.6822,3.5681 0.6861,0.1257 1.2285,0.471 1.7162,1.0005 -0.003,-0.6112 0.0459,-1.1948 0.2899,-1.7655 0.1902,-0.4449 0.4766,-0.8497 0.8668,-1.2154 z"
   inkscape:connector-curvature="0"
   style="fill:#ffffff;fill-rule:nonzero" />
  </g>
  <g
   id="стрела">
   <path
   id="_158228392"
   class="fil0"
   d="m 115.927,166.948 6.03,0 0,-2e-4 0.0883,-2e-4 c 0.5785,-0.001 0.8065,-0.707 0.4051,-1.0838 l -0.0664,-0.0623 3e-4,-3e-4 -2.16,-2.0269 2.1691,-2.0354 -4e-4,-6e-4 0.0578,-0.0539 c 0.3988,-0.3728 0.1805,-1.0831 -0.4063,-1.0834 l -0.0882,-1e-4 0,-3e-4 -6.0293,0 -2.2274,2.091 -20.5982,0 0.7053,-2.0039 -6.0849,3.0868 6.085,3.0863 -0.7053,-2.0035 20.5984,0 2.2271,2.0907 z"
   inkscape:connector-curvature="0"
   style="fill:#000000;fill-rule:nonzero" />
   <path
   id="_158228320"
   class="fil3"
   d="m 122.367,166.183 c -0.022,-0.0458 -0.0552,-0.0882 -0.097,-0.1273 l -7e-4,0 -2.4313,-2.2815 2.4313,-2.2815 7e-4,0 c 0.0418,-0.0391 0.075,-0.0815 0.097,-0.1273 0.1079,-0.2243 -0.0687,-0.5008 -0.323,-0.501 l 0,7e-4 -7e-4,0 -0.1797,0 -1.9756,1.8546 -0.8535,0 1.9755,-1.8546 -1.2488,0 -1.9758,1.8548 -0.8537,0 1.9758,-1.8548 -1.2487,0 -1.9755,1.8546 -0.8535,0 1.9755,-1.8546 -0.7748,0 -2.2275,2.091 -21.075,0 0.6108,-1.7355 -5.0343,2.5538 5.0339,2.5533 -0.6108,-1.7354 21.0754,0 2.2275,2.091 0.7748,0 -1.9755,-1.8546 0.8535,0 1.9755,1.8546 1.2487,0 -1.9758,-1.8548 0.8537,0 1.9758,1.8548 1.2488,0 -1.9755,-1.8546 0.8535,0 1.9756,1.8546 0.1797,0 0.001,0 0,7e-4 c 0.254,-5e-4 0.4299,-0.2771 0.3222,-0.501 z"
   inkscape:connector-curvature="0"
   style="fill:#ffffff;fill-rule:nonzero" />
  </g>
 </g>
</svg>