<?xml version="1.0" encoding="UTF-8" standalone="no"?>
<!-- Creator: CorelDRAW -->

<svg
   xmlns:dc="http://purl.org/dc/elements/1.1/"
   xmlns:cc="http://creativecommons.org/ns#"
   xmlns:rdf="http://www.w3.org/1999/02/22-rdf-syntax-ns#"
   xmlns:svg="http://www.w3.org/2000/svg"
   xmlns="http://www.w3.org/2000/svg"
   xmlns:xlink="http://www.w3.org/1999/xlink"
   xmlns:sodipodi="http://sodipodi.sourceforge.net/DTD/sodipodi-0.dtd"
   xmlns:inkscape="http://www.inkscape.org/namespaces/inkscape"
   xml:space="preserve"
   width="300.00009"
   height="401.99991"
   style="fill-rule:evenodd"
   viewBox="0 0 84.666693 113.45331"
   id="svg2"
   version="1.1"
   inkscape:version="0.48.1 "
   sodipodi:docname="мосты_.svg"><metadata
   id="metadata75"><rdf:RDF><cc:Work
       rdf:about=""><dc:format>image/svg+xml</dc:format><dc:type
         rdf:resource="http://purl.org/dc/dcmitype/StillImage" /></cc:Work></rdf:RDF></metadata><sodipodi:namedview
   pagecolor="#ffffff"
   bordercolor="#666666"
   borderopacity="1"
   objecttolerance="10"
   gridtolerance="10"
   guidetolerance="10"
   inkscape:pageopacity="0"
   inkscape:pageshadow="2"
   inkscape:window-width="1280"
   inkscape:window-height="750"
   id="namedview73"
   showgrid="false"
   fit-margin-top="0"
   fit-margin-left="0"
   fit-margin-right="0"
   fit-margin-bottom="0"
   inkscape:zoom="1.3208958"
   inkscape:cx="109.87577"
   inkscape:cy="200.99994"
   inkscape:window-x="-8"
   inkscape:window-y="-8"
   inkscape:window-maximized="1"
   inkscape:current-layer="svg2" />
 <defs
   id="defs4"><linearGradient
     id="linearGradient4795"
     inkscape:collect="always"><stop
       id="stop4797"
       offset="0"
       style="stop-color:#b2b2b2;stop-opacity:1" /><stop
       style="stop-color:#e6e6e6;stop-opacity:1"
       offset="0.10018887"
       id="stop4809" /><stop
       style="stop-color:#ffffff;stop-opacity:1"
       offset="0.31375307"
       id="stop4799" /><stop
       id="stop4801"
       offset="0.5612511"
       style="stop-color:#cccccc;stop-opacity:1" /><stop
       id="stop4803"
       offset="0.69299096"
       style="stop-color:#b2b2b2;stop-opacity:1" /><stop
       style="stop-color:#b2b2b2;stop-opacity:1"
       offset="0.83574963"
       id="stop4805" /><stop
       id="stop4807"
       offset="1"
       style="stop-color:#cccccc;stop-opacity:1" /></linearGradient><style
     type="text/css"
     id="style6">
   
    .str3 {stroke:black;stroke-width:0.1764}
    .str2 {stroke:#1F1A17;stroke-width:0.25}
    .str0 {stroke:black;stroke-width:0.25}
    .str1 {stroke:black;stroke-width:0.3528}
    .fil2 {fill:none}
    .fil0 {fill:#00CCFF}
    .fil4 {fill:#CCCCCC}
    .fil6 {fill:#E5E5E5}
    .fil1 {fill:red}
    .fil5 {fill:white}
    .fil3 {fill:url(#id0)}
    .fil8 {fill:url(#id1)}
    .fil7 {fill:url(#id2)}
   
  </style><linearGradient
     id="id0"
     gradientUnits="userSpaceOnUse"
     x1="78.737297"
     y1="129.849"
     x2="131.09801"
     y2="129.849">
   <stop
   offset="0"
   style="stop-color:#FFCF00"
   id="stop9" />
   <stop
   offset="0.490196"
   style="stop-color:yellow"
   id="stop11" />
   <stop
   offset="1"
   style="stop-color:#FFCF00"
   id="stop13" />
  </linearGradient><linearGradient
     id="id1"
     gradientUnits="userSpaceOnUse"
     x1="93.1325"
     y1="159.392"
     x2="116.491"
     y2="159.392">
   <stop
   offset="0"
   style="stop-color:white"
   id="stop16" />
   <stop
   offset="0.490196"
   style="stop-color:#CCCCCC"
   id="stop18" />
   <stop
   offset="1"
   style="stop-color:white"
   id="stop20" />
  </linearGradient><linearGradient
     id="id2"
     gradientUnits="userSpaceOnUse"
     x1="92.184898"
     y1="173.037"
     x2="92.184898"
     y2="170.30901">
   <stop
   offset="0"
   style="stop-color:#CCCCCC"
   id="stop23" />
   <stop
   offset="1"
   style="stop-color:white"
   id="stop25" />
  </linearGradient><linearGradient
     inkscape:collect="always"
     xlink:href="#id2"
     id="linearGradient4690"
     gradientUnits="userSpaceOnUse"
     x1="92.184898"
     y1="173.037"
     x2="92.184898"
     y2="170.30901" /><linearGradient
     inkscape:collect="always"
     xlink:href="#id2"
     id="linearGradient4692"
     gradientUnits="userSpaceOnUse"
     x1="92.184898"
     y1="173.037"
     x2="92.184898"
     y2="170.30901" /><linearGradient
     inkscape:collect="always"
     xlink:href="#id2"
     id="linearGradient4694"
     gradientUnits="userSpaceOnUse"
     x1="92.184898"
     y1="173.037"
     x2="92.184898"
     y2="170.30901" /><linearGradient
     inkscape:collect="always"
     xlink:href="#id2"
     id="linearGradient4696"
     gradientUnits="userSpaceOnUse"
     x1="92.184898"
     y1="173.037"
     x2="92.184898"
     y2="170.30901" /><linearGradient
     inkscape:collect="always"
     xlink:href="#id2"
     id="linearGradient4700"
     gradientUnits="userSpaceOnUse"
     x1="92.184898"
     y1="173.037"
     x2="92.184898"
     y2="170.30901" /><linearGradient
     inkscape:collect="always"
     xlink:href="#id1"
     id="linearGradient4705"
     gradientUnits="userSpaceOnUse"
     x1="93.1325"
     y1="159.392"
     x2="116.491"
     y2="159.392"
     gradientTransform="matrix(1.6291118,0,0,1.6063393,-128.58658,-181.87553)" /><linearGradient
     inkscape:collect="always"
     xlink:href="#id0"
     id="linearGradient4731"
     gradientUnits="userSpaceOnUse"
     x1="78.737297"
     y1="129.849"
     x2="131.09801"
     y2="129.849"
     gradientTransform="matrix(1.6061819,0,0,1.6063393,-126.18324,-181.87553)" /><linearGradient
     inkscape:collect="always"
     xlink:href="#linearGradient4795"
     id="linearGradient4743"
     x1="33.930553"
     y1="90.907982"
     x2="42.581478"
     y2="91.661293"
     gradientUnits="userSpaceOnUse" /><linearGradient
     inkscape:collect="always"
     xlink:href="#linearGradient4795"
     id="linearGradient4793"
     gradientUnits="userSpaceOnUse"
     x1="41.931652"
     y1="87.835388"
     x2="49.93013"
     y2="87.643974" /><linearGradient
     inkscape:collect="always"
     xlink:href="#linearGradient4795"
     id="linearGradient4830"
     x1="26.48311"
     y1="88.361473"
     x2="34.769955"
     y2="90.03051"
     gradientUnits="userSpaceOnUse" /><linearGradient
     inkscape:collect="always"
     xlink:href="#linearGradient4795"
     id="linearGradient4838"
     x1="18.33914"
     y1="88.880844"
     x2="27.259172"
     y2="91.801659"
     gradientUnits="userSpaceOnUse" /><linearGradient
     inkscape:collect="always"
     xlink:href="#id2"
     id="linearGradient4846"
     x1="97.092476"
     y1="173.06575"
     x2="97.092476"
     y2="170.38405"
     gradientUnits="userSpaceOnUse" /><linearGradient
     inkscape:collect="always"
     xlink:href="#linearGradient4795"
     id="linearGradient4854"
     x1="49.009716"
     y1="90.901794"
     x2="58.54974"
     y2="89.617424"
     gradientUnits="userSpaceOnUse" /><linearGradient
     inkscape:collect="always"
     xlink:href="#linearGradient4795"
     id="linearGradient4862"
     x1="56.51025"
     y1="90.690964"
     x2="67.035522"
     y2="87.938736"
     gradientUnits="userSpaceOnUse" /><style
     id="style4913"
     type="text/css">
   
    .str0 {stroke:#FF6600;stroke-width:0.7056}
    .fil1 {fill:none}
    .fil0 {fill:#A90000}
   
  </style><style
     type="text/css"
     id="style5324">
   
    .str0 {stroke:#FF6600;stroke-width:0.7056}
    .fil1 {fill:none}
    .fil0 {fill:#A90000}
   
  </style><style
     type="text/css"
     id="style4913-5">
   
    .str0 {stroke:#FF6600;stroke-width:0.7056}
    .fil1 {fill:none}
    .fil0 {fill:#A90000}
   
  </style><style
     id="style6-4"
     type="text/css">
   
    .str3 {stroke:black;stroke-width:0.1764}
    .str2 {stroke:#1F1A17;stroke-width:0.25}
    .str0 {stroke:black;stroke-width:0.25}
    .str1 {stroke:black;stroke-width:0.3528}
    .fil2 {fill:none}
    .fil0 {fill:#00CCFF}
    .fil4 {fill:#CCCCCC}
    .fil6 {fill:#E5E5E5}
    .fil1 {fill:red}
    .fil5 {fill:white}
    .fil3 {fill:url(#id0)}
    .fil8 {fill:url(#id1)}
    .fil7 {fill:url(#id2)}
   
  </style><linearGradient
     inkscape:collect="always"
     xlink:href="#linearGradient4795"
     id="linearGradient3189"
     gradientUnits="userSpaceOnUse"
     x1="18.33914"
     y1="88.880844"
     x2="27.259172"
     y2="91.801659" /><linearGradient
     inkscape:collect="always"
     xlink:href="#linearGradient4795"
     id="linearGradient3191"
     gradientUnits="userSpaceOnUse"
     x1="26.48311"
     y1="88.361473"
     x2="34.769955"
     y2="90.03051" /><linearGradient
     inkscape:collect="always"
     xlink:href="#linearGradient4795"
     id="linearGradient3193"
     gradientUnits="userSpaceOnUse"
     x1="33.930553"
     y1="90.907982"
     x2="42.581478"
     y2="91.661293" /><linearGradient
     inkscape:collect="always"
     xlink:href="#linearGradient4795"
     id="linearGradient3195"
     gradientUnits="userSpaceOnUse"
     x1="56.51025"
     y1="90.690964"
     x2="67.035522"
     y2="87.938736" /><linearGradient
     inkscape:collect="always"
     xlink:href="#linearGradient4795"
     id="linearGradient3197"
     gradientUnits="userSpaceOnUse"
     x1="49.009716"
     y1="90.901794"
     x2="58.54974"
     y2="89.617424" /><linearGradient
     inkscape:collect="always"
     xlink:href="#linearGradient4795"
     id="linearGradient3199"
     gradientUnits="userSpaceOnUse"
     x1="41.931652"
     y1="87.835388"
     x2="49.93013"
     y2="87.643974" /><linearGradient
     inkscape:collect="always"
     xlink:href="#id2"
     id="linearGradient3201"
     gradientUnits="userSpaceOnUse"
     x1="92.184898"
     y1="173.037"
     x2="92.184898"
     y2="170.30901" /><linearGradient
     inkscape:collect="always"
     xlink:href="#id2"
     id="linearGradient3203"
     gradientUnits="userSpaceOnUse"
     x1="92.184898"
     y1="173.037"
     x2="92.184898"
     y2="170.30901" /><linearGradient
     inkscape:collect="always"
     xlink:href="#id2"
     id="linearGradient3205"
     gradientUnits="userSpaceOnUse"
     x1="92.184898"
     y1="173.037"
     x2="92.184898"
     y2="170.30901" /><linearGradient
     inkscape:collect="always"
     xlink:href="#id2"
     id="linearGradient3207"
     gradientUnits="userSpaceOnUse"
     x1="92.184898"
     y1="173.037"
     x2="92.184898"
     y2="170.30901" /><linearGradient
     inkscape:collect="always"
     xlink:href="#id2"
     id="linearGradient3209"
     gradientUnits="userSpaceOnUse"
     x1="97.092476"
     y1="173.06575"
     x2="97.092476"
     y2="170.38405" /><linearGradient
     inkscape:collect="always"
     xlink:href="#id2"
     id="linearGradient3211"
     gradientUnits="userSpaceOnUse"
     x1="92.184898"
     y1="173.037"
     x2="92.184898"
     y2="170.30901" /><linearGradient
     inkscape:collect="always"
     xlink:href="#id1"
     id="linearGradient3213"
     gradientUnits="userSpaceOnUse"
     gradientTransform="matrix(1.6291118,0,0,1.6063393,-128.58658,-181.87553)"
     x1="93.1325"
     y1="159.392"
     x2="116.491"
     y2="159.392" /><linearGradient
     inkscape:collect="always"
     xlink:href="#id1"
     id="linearGradient3216"
     gradientUnits="userSpaceOnUse"
     gradientTransform="matrix(1.6291118,0,0,1.6063393,-128.41649,-181.87553)"
     x1="93.1325"
     y1="159.392"
     x2="116.491"
     y2="159.392" /><linearGradient
     inkscape:collect="always"
     xlink:href="#linearGradient4795"
     id="linearGradient3227"
     gradientUnits="userSpaceOnUse"
     x1="41.931652"
     y1="87.835388"
     x2="49.93013"
     y2="87.643974"
     gradientTransform="translate(0.1700937,0)" /><linearGradient
     inkscape:collect="always"
     xlink:href="#linearGradient4795"
     id="linearGradient3230"
     gradientUnits="userSpaceOnUse"
     x1="49.009716"
     y1="90.901794"
     x2="58.54974"
     y2="89.617424"
     gradientTransform="translate(0.1700937,0)" /><linearGradient
     inkscape:collect="always"
     xlink:href="#linearGradient4795"
     id="linearGradient3233"
     gradientUnits="userSpaceOnUse"
     x1="56.51025"
     y1="90.690964"
     x2="67.035522"
     y2="87.938736"
     gradientTransform="translate(0.1700937,0)" /><linearGradient
     inkscape:collect="always"
     xlink:href="#linearGradient4795"
     id="linearGradient3236"
     gradientUnits="userSpaceOnUse"
     x1="33.930553"
     y1="90.907982"
     x2="42.581478"
     y2="91.661293"
     gradientTransform="translate(0.1700937,0)" /><linearGradient
     inkscape:collect="always"
     xlink:href="#linearGradient4795"
     id="linearGradient3239"
     gradientUnits="userSpaceOnUse"
     x1="26.48311"
     y1="88.361473"
     x2="34.769955"
     y2="90.03051"
     gradientTransform="translate(0.1700937,0)" /><linearGradient
     inkscape:collect="always"
     xlink:href="#linearGradient4795"
     id="linearGradient3242"
     gradientUnits="userSpaceOnUse"
     x1="18.33914"
     y1="88.880844"
     x2="27.259172"
     y2="91.801659"
     gradientTransform="translate(0.1700937,0)" /></defs>
 <path
   style="fill:#a90000"
   inkscape:connector-curvature="0"
   class="fil0"
   d="m 62.583349,54.476758 c 0.8283,0 1.5,0.6717 1.5,1.5 l 0,1.4998 c 0,0.8283 -0.6717,1.5 -1.5,1.5 l -1.5,0 0,-4.4998 1.5,0 z m 0,5.9998 c 1.6566,0 3,-1.3434 3,-3 l 0,-1.4998 c 0,-1.6566 -1.3434,-3 -3,-3 l -3,0 0,7.4998 3,0 z m -6,-7.4998 1.5,0 0,7.4998 -1.5,0 0,-7.4998 z m -3,0 1.5,0 0,7.4998 -1.5,0 -3,-4.7086 0,4.7086 -1.5,0 0,-7.4998 1.5,0 3,4.7086 0,-4.7086 z m -22.5,1e-4 4.5,0 0,1.5 -3,0 0,1.4999 3,0 0,1.5 -3,0 0,1.4999 3,0 0,1.5 -4.5,0 0,-7.4998 z m -6,-2e-4 1.5,0 0,6 3,0 0,1.5 -4.5,0 0,-7.5 z m 15.7504,6 1.4996,0 c 1.2424,0 2.25,-1.0076 2.25,-2.25 0,-1.2424 -1.0263,-2.2457 -2.25,-2.25 l -1.4996,0 0,1.5 1.4996,0 c 0.4141,0 0.75,0.3359 0.75,0.75 0,0.4141 -0.3359,0.75 -0.75,0.75 l -1.4996,0 0,1.5 z m 1.4996,-7.5 c 2.899,0 5.25,2.351 5.25,5.25 0,2.899 -2.351,5.25 -5.25,5.25 -2.899,0 -5.25,-2.351 -5.25,-5.25 0,-2.899 2.351,-5.25 5.25,-5.25 z m 0,1.5 c 2.0707,0 3.75,1.6793 3.75,3.75 0,2.0707 -1.6793,3.75 -3.75,3.75 -2.0707,0 -3.75,-1.6793 -3.75,-3.75 0,-2.0707 1.6793,-3.75 3.75,-3.75 z"
   id="path4917" /><path
   style="fill:#2aa5e0;fill-opacity:1"
   inkscape:connector-curvature="0"
   id="path29"
   d="m 0.28318611,53.16243 0,18.486556 C 3.7875538,94.603896 19.359005,104.97892 42.333349,113.16997 65.307533,104.97892 80.878985,94.603896 84.383352,71.648986 l 0,-18.486556 -84.10016589,0 z"
   class="fil0" /><polygon
   style="fill:#ed2124;fill-opacity:1"
   id="polygon31"
   points="78.7373,146.314 78.7373,146.319 131.098,146.319 131.098,146.225 131.098,113.4 78.7373,113.4 "
   class="fil1"
   transform="matrix(1.6061819,0,0,1.6063393,-126.18324,-181.87553)" /><line
   style="fill:none;stroke:#000000;stroke-width:0.40156516"
   id="line33"
   y2="53.16243"
   x2="0.2831814"
   y1="53.16243"
   x1="84.384003"
   class="fil2 str0" /><path
   style="fill:none;stroke:#000000;stroke-width:0.56668878"
   inkscape:connector-curvature="0"
   id="path35"
   d="m 0.28334673,0.28334662 0,71.36547838 C 3.7875538,94.603735 19.358845,104.97876 42.333349,113.16997 65.307694,104.97876 80.878985,94.603735 84.383352,71.648825 l 0,-71.36547838 -84.10000527,0 z"
   class="fil2 str1" /><g
   id="g4888"><path
     class="fil3"
     d="m 84.383995,43.018397 -5.178491,0 6.42e-4,-0.05204 c 0,-3.902762 -3.16466,-7.067893 -7.06704,-7.067893 -3.90254,0 -7.067361,3.165131 -7.067361,7.067893 l 6.43e-4,0.05204 -7.093863,0 c -1.323494,-7.43976 -7.82564,-13.090701 -15.645015,-13.090701 -7.818572,0 -14.320236,5.650941 -15.64373,13.090701 l -7.093863,0 6.43e-4,-0.05172 c 0,-3.902922 -3.164982,-7.068214 -7.067361,-7.068214 -3.9022192,0 -7.0672006,3.165292 -7.0672006,7.068214 l 6.425e-4,0.05172 -5.17881231,0 0,-19.956998 C 12.332923,15.059419 26.7884,10.394289 42.332868,10.394289 c 15.545431,0 30.002193,4.664809 42.051127,12.667591 l 0,19.956517 z M 80.020159,28.589455 c -2.526203,-1.461287 -5.155362,-2.780092 -7.874467,-3.944527 l 0,-5.02993 c 2.716214,1.212786 5.344891,2.586045 7.874467,4.10773 l 0,4.866727 z M 67.781856,22.936747 c -3.022995,-1.07432 -6.143003,-1.963108 -9.343642,-2.650942 l 0,-5.220764 c 3.198711,0.718355 6.318238,1.646177 9.343642,2.768526 l 0,5.10318 z M 54.074379,19.481671 c -3.123382,-0.481741 -6.314062,-0.774898 -9.55855,-0.865816 l 0,-5.297386 c 3.243524,0.09542 6.434044,0.401424 9.55855,0.905493 l 0,5.257709 z M 40.151994,18.615694 c -3.244006,0.09092 -6.434525,0.383112 -9.557425,0.865174 l 0,-5.257227 c 3.124184,-0.503909 6.314222,-0.810398 9.557425,-0.905333 l 0,5.297386 z m -13.921261,1.670271 c -3.200799,0.688156 -6.320647,1.576623 -9.343963,2.651103 l 0,-5.103501 c 3.025726,-1.122188 6.144931,-2.050974 9.343963,-2.769329 l 0,5.221727 z m -13.707798,4.358802 c -2.7195875,1.164596 -5.3487467,2.483561 -7.8752708,3.944848 l 0,-4.866726 c 2.5298971,-1.521846 5.1585744,-2.895748 7.8752708,-4.108534 l 0,5.030412 z m 46.761737,3.265688 c 0,-0.62085 0.503377,-1.124438 1.124327,-1.124438 0.62079,0 1.124328,0.503588 1.124328,1.124438 l 0,6.907259 -2.248655,0 0,-6.907259 z m -33.90136,0 0,6.907259 -2.248655,0 0,-6.907259 c 0,-0.62085 0.503538,-1.124438 1.124167,-1.124438 0.62111,0 1.124488,0.503588 1.124488,1.124438 z"
     id="path37"
     style="fill:url(#linearGradient4731)"
     inkscape:connector-curvature="0" /><path
     class="fil2 str0"
     d="m 40.655692,27.595934 -15.316711,0 m -2.15919,0 -9.51454,0 m 57.339248,0 -9.515503,0 m -2.15919,0 -15.317675,0 m 40.371864,15.422785 -5.178491,0 6.42e-4,-0.05205 c 0,-3.902762 -3.16466,-7.067893 -7.06704,-7.067893 -3.90254,0 -7.067361,3.165131 -7.067361,7.067893 l 6.43e-4,0.05205 -7.093863,0 C 56.655031,35.578958 50.152885,29.928017 42.33351,29.928017 c -7.818572,0 -14.320236,5.650941 -15.64373,13.090702 l -7.093863,0 6.43e-4,-0.05172 c 0,-3.902922 -3.164982,-7.068214 -7.067361,-7.068214 -3.9022192,0 -7.0672006,3.165292 -7.0672006,7.068214 l 6.425e-4,0.05172 -5.17881231,0 0,-19.956999 C 12.332923,15.059741 26.7884,10.39461 42.332868,10.39461 c 15.545431,0 30.002193,4.664809 42.051127,12.667592 l 0,19.956517 z M 0.28382859,26.562897 C 12.185797,18.199652 26.685765,13.286021 42.332868,13.286021 c 15.647906,0 30.148837,4.913631 42.051127,13.276876 m -2.769058,16.455822 6.43e-4,-0.05205 c 0,-5.233293 -4.243694,-9.477402 -9.476474,-9.477402 -5.23278,0 -9.476473,4.244109 -9.476473,9.477402 l 6.43e-4,0.05205 m -38.430312,0 c 1.337147,-8.795832 8.932942,-15.53812 18.100707,-15.53812 9.168247,0 16.764684,6.742288 18.10183,15.53812 m -57.3819723,0 -6.425e-4,-0.05205 c 0,-5.233293 4.2435326,-9.477402 9.4763128,-9.477402 5.23294,0 9.476634,4.244109 9.476634,9.477402 l -6.43e-4,0.05205 m 55.295221,-8.000695 -1.31209,2.020615 m -9.010841,-2.020454 1.312251,2.020936 m -11.332417,-2.266706 -1.924045,1.449882 m -4.528308,-6.819392 -1.075018,2.15651 m -7.095951,-4.078816 0,2.409348 m -8.170808,-0.486721 1.075018,2.15635 m -7.527211,3.213482 1.923884,1.449882 m -22.2669811,-1.204916 1.31209,2.020615 m 9.0108411,-2.020454 -1.312251,2.020936 M 75.722338,26.29496 74.185382,29.067983 M 62.758843,21.35386 61.818424,24.354823 m -12.61431,-5.461393 -0.316257,3.114049 m -13.423987,-3.11421 0.316257,3.11421 m -13.870665,-0.654101 0.940419,3.001124 m -13.9043953,1.940136 1.5371163,2.773184 m -10.19877341,6.163042 0,-3.902762 C 12.123156,23.31022 26.642559,18.584852 42.333028,18.584852 c 15.691112,0 30.211318,4.725368 42.050967,12.74325 l 0,3.902762 C 72.753953,26.758388 58.168697,21.712716 42.332868,21.712716 c -15.834866,0 -30.419319,5.045672 -42.04903941,13.518148 z m 71.85511741,-7.135519 0,5.393926 m -59.609587,-5.394248 0,5.394248 m 40.12387,-11.05049 0,5.157474 m -20.638635,-5.157634 0,5.157634 m 51.798403,7.221459 -6.834304,0 m -9.67837,0 -10.342687,0 m -29.246806,0 -10.342526,0 m -9.6775676,0 -6.836392,0 m 79.1658146,-6.224725 0,-4.871706 m -12.238303,-5.887876 0,5.10848 m 4.363836,1.704165 0,-5.031376 m -18.071313,-5.38718 0,5.259155 m 4.363835,0.801403 0,-5.220603 m -13.922385,-1.746573 0,5.297868 m -4.363835,-1.61e-4 0,-5.297707 m -9.557425,0.906136 0,5.259316 m -4.363836,0.801402 0,-5.220763 m -9.343963,2.765795 0,5.108802 m -4.363835,1.704165 0,-5.031697 m -7.8752708,4.106927 0,4.872028 m 20.7356478,-0.682213 0,6.907259 -2.248655,0 0,-6.907259 c 0,-0.62085 0.503538,-1.124437 1.124167,-1.124437 0.62111,0 1.124488,0.503587 1.124488,1.124437 z m 33.90136,0 0,6.907259 2.248655,0 0,-6.907259 c 0,-0.62085 -0.503538,-1.124437 -1.124328,-1.124437 -0.62095,0 -1.124327,0.503587 -1.124327,1.124437 z"
     id="path39"
     inkscape:connector-curvature="0"
     style="fill:none;stroke:#000000;stroke-width:0.40156516" /><path
     class="fil2 str2"
     d="m 25.382669,27.910776 0,6.907259 -2.248654,0 0,-6.907259 c 0,-0.62085 0.503538,-1.124437 1.124166,-1.124437 0.621111,0 1.124488,0.503587 1.124488,1.124437 z m 33.901361,0 0,6.907259 2.248654,0 0,-6.907259 c 0,-0.62085 -0.503538,-1.124437 -1.124327,-1.124437 -0.62095,0 -1.124327,0.503587 -1.124327,1.124437 z"
     id="path41"
     inkscape:connector-curvature="0"
     style="fill:none;stroke:#1f1a17;stroke-width:0.40156516" /></g><path
   style="fill:url(#linearGradient3242);fill-opacity:1"
   inkscape:connector-curvature="0"
   id="path50"
   d="m 26.130828,93.044622 7.453006,-32.634389 c -0.103439,-1.110302 -1.037915,-1.980456 -2.175092,-1.980456 -0.967082,0 -1.787199,0.629364 -2.074705,1.500482 L 18.19629,92.63115 l 7.934538,0.413472 z"
   class="fil4" /><path
   style="fill:url(#linearGradient3239);fill-opacity:1"
   inkscape:connector-curvature="0"
   id="path52"
   d="m 37.965177,60.614238 c 0,-1.206682 -1.068111,-2.185103 -2.18489,-2.185103 -1.116778,0 -1.904128,0.708235 -2.12273,1.665774 l -7.525926,32.949071 8.105437,0.422949 3.728109,-32.852691 z"
   class="fil5" /><path
   style="fill:url(#linearGradient3236);fill-opacity:1"
   inkscape:connector-curvature="0"
   id="path54"
   d="m 42.333991,93.889557 3.22e-4,-33.27548 c 0,-1.206682 -1.039361,-2.185103 -2.18489,-2.185103 -1.145529,0 -2.037923,0.785179 -2.155817,1.828014 l -3.75702,33.20978 8.097405,0.422789 z"
   class="fil6" /><path
   style="fill:url(#linearGradient3233);fill-opacity:1"
   inkscape:connector-curvature="0"
   id="path56"
   d="M 58.537154,93.044622 51.084149,60.410233 c 0.103438,-1.110302 1.037915,-1.980456 2.175092,-1.980456 0.967082,0 1.787198,0.629364 2.074705,1.500482 l 11.137747,32.700891 -7.934539,0.413472 z"
   class="fil4" /><path
   style="fill:url(#linearGradient3230);fill-opacity:1"
   inkscape:connector-curvature="0"
   id="path58"
   d="m 46.702806,60.614238 c 0,-1.206682 1.068111,-2.185103 2.184889,-2.185103 1.116779,0 1.904129,0.708235 2.12273,1.665774 l 7.525926,32.949071 -8.105436,0.422949 -3.728109,-32.852691 z"
   class="fil5" /><path
   style="fill:url(#linearGradient3227);fill-opacity:1"
   inkscape:connector-curvature="0"
   id="path60"
   d="m 42.333991,93.889557 -3.21e-4,-33.27548 c 0,-1.206682 1.03936,-2.185103 2.184889,-2.185103 1.145529,0 2.037924,0.785179 2.155818,1.828014 l 3.75702,33.20978 -8.097406,0.422789 z"
   class="fil6" /><g
   id="_203939280"
   transform="matrix(1.6061819,0,0,1.6063393,-126.01315,-181.87553)">
   <circle
   d="m 94.710398,171.673 c 0,1.3948 -1.130704,2.5255 -2.5255,2.5255 -1.394795,0 -2.5255,-1.1307 -2.5255,-2.5255 0,-1.39479 1.130705,-2.5255 2.5255,-2.5255 1.394796,0 2.5255,1.13071 2.5255,2.5255 z"
   sodipodi:ry="2.5255001"
   sodipodi:rx="2.5255001"
   sodipodi:cy="171.673"
   sodipodi:cx="92.184898"
   style="fill:url(#linearGradient3201);stroke:#000000;stroke-width:0.25"
   r="2.5255001"
   cy="171.673"
   cx="92.184898"
   class="fil7 str0"
   id="_203940360" />
   <circle
   d="m 119.9645,171.673 c 0,1.3948 -1.1307,2.5255 -2.5255,2.5255 -1.39479,0 -2.5255,-1.1307 -2.5255,-2.5255 0,-1.39479 1.13071,-2.5255 2.5255,-2.5255 1.3948,0 2.5255,1.13071 2.5255,2.5255 z"
   sodipodi:ry="2.5255001"
   sodipodi:rx="2.5255001"
   sodipodi:cy="171.673"
   sodipodi:cx="117.439"
   style="fill:url(#linearGradient3203);stroke:#000000;stroke-width:0.25"
   r="2.5255001"
   cy="171.673"
   cx="117.439"
   class="fil7 str0"
   id="_203937792" />
   <circle
   d="m 109.8625,171.673 c 0,1.3948 -1.13071,2.5255 -2.5255,2.5255 -1.3948,0 -2.5255,-1.1307 -2.5255,-2.5255 0,-1.39479 1.1307,-2.5255 2.5255,-2.5255 1.39479,0 2.5255,1.13071 2.5255,2.5255 z"
   sodipodi:ry="2.5255001"
   sodipodi:rx="2.5255001"
   sodipodi:cy="171.673"
   sodipodi:cx="107.337"
   style="fill:url(#linearGradient3205);stroke:#000000;stroke-width:0.25"
   r="2.5255001"
   cy="171.673"
   cx="107.337"
   class="fil7 str0"
   id="_203937744" />
   <circle
   d="m 104.8125,171.673 c 0,1.3948 -1.1307,2.5255 -2.5255,2.5255 -1.39479,0 -2.525497,-1.1307 -2.525497,-2.5255 0,-1.39479 1.130707,-2.5255 2.525497,-2.5255 1.3948,0 2.5255,1.13071 2.5255,2.5255 z"
   sodipodi:ry="2.5255001"
   sodipodi:rx="2.5255001"
   sodipodi:cy="171.673"
   sodipodi:cx="102.287"
   style="fill:url(#linearGradient3207);stroke:#000000;stroke-width:0.25"
   r="2.5255001"
   cy="171.673"
   cx="102.287"
   class="fil7 str0"
   id="_203939064" />
   <circle
   d="m 99.761302,171.673 c 0,1.3948 -1.130705,2.5255 -2.5255,2.5255 -1.394795,0 -2.5255,-1.1307 -2.5255,-2.5255 0,-1.39479 1.130705,-2.5255 2.5255,-2.5255 1.394795,0 2.5255,1.13071 2.5255,2.5255 z"
   sodipodi:ry="2.5255001"
   sodipodi:rx="2.5255001"
   sodipodi:cy="171.673"
   sodipodi:cx="97.235802"
   style="fill:url(#linearGradient3209);fill-opacity:1;stroke:#000000;stroke-width:0.25"
   r="2.5255001"
   cy="171.673"
   cx="97.235802"
   class="fil7 str0"
   id="_203939184" />
   <circle
   d="m 114.9135,171.673 c 0,1.3948 -1.1307,2.5255 -2.5255,2.5255 -1.39479,0 -2.5255,-1.1307 -2.5255,-2.5255 0,-1.39479 1.13071,-2.5255 2.5255,-2.5255 1.3948,0 2.5255,1.13071 2.5255,2.5255 z"
   sodipodi:ry="2.5255001"
   sodipodi:rx="2.5255001"
   sodipodi:cy="171.673"
   sodipodi:cx="112.388"
   style="fill:url(#linearGradient3211);stroke:#000000;stroke-width:0.25"
   r="2.5255001"
   cy="171.673"
   cx="112.388"
   class="fil7 str0"
   id="_203939256" />
  </g><path
   style="fill:none;stroke:#000000;stroke-width:0.40156516"
   inkscape:connector-curvature="0"
   id="path69"
   d="M 18.19629,92.630187 29.334037,59.929295 c 0.287506,-0.871118 1.107462,-1.500482 2.074705,-1.500482 1.137337,0 2.071653,0.870154 2.175092,1.980456 m 8.749836,0.204808 0,33.275319 M 37.964373,60.613917 c 0,-1.206682 -1.068111,-2.185104 -2.184889,-2.185104 -1.116778,0 -1.904128,0.708235 -2.12273,1.665774 L 26.130828,93.043658 M 42.333991,60.613917 c 0,-1.206682 -1.03936,-2.185104 -2.184889,-2.185104 -1.145529,0 -2.037924,0.785179 -2.155817,1.828015 l -3.75702,33.20978 M 66.471372,92.630187 55.333625,59.929295 c -0.287507,-0.871118 -1.107463,-1.500482 -2.074706,-1.500482 -1.137337,0 -2.071653,0.870154 -2.175091,1.980456 m -4.38054,0.204648 c 0,-1.206682 1.068111,-2.185104 2.184889,-2.185104 1.116778,0 1.904129,0.708235 2.12273,1.665774 l 7.525926,32.949071 M 42.33367,60.613917 c 0,-1.206682 1.03936,-2.185104 2.184889,-2.185104 1.145529,0 2.037924,0.785179 2.155818,1.828015 l 3.75702,33.20978"
   class="fil2 str0" /><path
   inkscape:connector-curvature="0"
   style="fill:url(#linearGradient3216);stroke:#000000;stroke-width:0.40442142"
   id="path71"
   d="m 20.837211,83.988081 42.99324,0 0.62786,1.817573 -44.248961,0 0.627861,-1.817573 z m 7.417183,-21.470813 28.158873,0 0.553735,1.603127 -29.266343,0 0.553735,-1.603127 z"
   class="fil8 str0" />
</svg>