<?xml version="1.0" encoding="UTF-8" standalone="no"?>
<!-- Created with Inkscape (http://www.inkscape.org/) -->

<svg
   xmlns:dc="http://purl.org/dc/elements/1.1/"
   xmlns:cc="http://creativecommons.org/ns#"
   xmlns:rdf="http://www.w3.org/1999/02/22-rdf-syntax-ns#"
   xmlns:svg="http://www.w3.org/2000/svg"
   xmlns="http://www.w3.org/2000/svg"
   xmlns:sodipodi="http://sodipodi.sourceforge.net/DTD/sodipodi-0.dtd"
   xmlns:inkscape="http://www.inkscape.org/namespaces/inkscape"
   width="350"
   height="419"
   id="svg2"
   version="1.1"
   inkscape:version="0.48.1 "
   sodipodi:docname="новогрудок_.svg">
  <defs
     id="defs4">
    <style
       id="style3006"
       type="text/css">
   
    .str0 {stroke:#FF6600;stroke-width:0.7056}
    .fil1 {fill:none}
    .fil0 {fill:#A90000}
   
  </style>
  </defs>
  <sodipodi:namedview
     id="base"
     pagecolor="#ffffff"
     bordercolor="#666666"
     borderopacity="1.0"
     inkscape:pageopacity="0.0"
     inkscape:pageshadow="2"
     inkscape:zoom="1.2673031"
     inkscape:cx="175"
     inkscape:cy="209.5"
     inkscape:document-units="px"
     inkscape:current-layer="layer2"
     showgrid="false"
     fit-margin-top="0"
     fit-margin-left="0"
     fit-margin-right="0"
     fit-margin-bottom="0"
     inkscape:window-width="1280"
     inkscape:window-height="750"
     inkscape:window-x="-8"
     inkscape:window-y="-8"
     inkscape:window-maximized="1" />
  <metadata
     id="metadata7">
    <rdf:RDF>
      <cc:Work
         rdf:about="">
        <dc:format>image/svg+xml</dc:format>
        <dc:type
           rdf:resource="http://purl.org/dc/dcmitype/StillImage" />
        <dc:title></dc:title>
      </cc:Work>
    </rdf:RDF>
  </metadata>
  <g
     inkscape:label="name"
     inkscape:groupmode="layer"
     id="layer1"
     transform="translate(-197.04501,-316.68109)"
     sodipodi:insensitive="true">
    <path
       sodipodi:nodetypes="ssssccsssssccscccccccccccccccccccccccccccccccccccccsscccsssccssssssssss"
       style="fill:#a90000"
       inkscape:connector-curvature="0"
       class="fil0"
       d="m 443.79698,518.209 c 2.93492,0 5.31496,2.38004 5.31496,5.31496 l 0,5.31425 c 0,2.93493 -2.38004,5.31497 -5.31496,5.31497 l -5.31496,0 0,-15.94418 z m 0,21.25914 c 5.86984,0 10.62992,-4.76008 10.62992,-10.62993 l 0,-5.31425 c 0,-5.86984 -4.76008,-10.62992 -10.62992,-10.62992 l -10.62992,0 0,26.5741 z m -21.25984,-26.5741 5.31496,0 0,26.5741 -5.31496,0 z m -10.62993,0 5.31496,0 0,26.5741 -5.31496,0 -10.62992,-16.68402 0,16.68402 -5.31496,0 0,-26.5741 5.31496,0 10.62992,16.68402 z m -79.7244,3.6e-4 15.94488,0 0,5.31496 -10.62992,0 0,5.3146 10.62992,0 0,5.31496 -10.62992,0 0,5.31461 10.62992,0 0,5.31496 -15.94488,0 z m -21.25984,-7.1e-4 5.31496,0 0,21.25984 10.62992,0 0,5.31496 -15.94488,0 z m 55.8085,21.25984 5.31354,0 c 4.40221,0 7.97244,-3.57024 7.97244,-7.97244 0,-4.40221 -3.63649,-7.95721 -7.97244,-7.97244 l -5.31354,0 0,5.31496 5.31354,0 c 1.46729,0 2.65748,1.1902 2.65748,2.65748 0,1.46728 -1.19019,2.65748 -2.65748,2.65748 l -5.31354,0 z m 5.31354,-26.5748 c 10.27205,0 18.60236,8.33031 18.60236,18.60236 0,10.27205 -8.33031,18.60236 -18.60236,18.60236 -10.27204,0 -18.60236,-8.33031 -18.60236,-18.60236 0,-10.27205 8.33032,-18.60236 18.60236,-18.60236 z m -13.2874,18.60236 c 0,7.33712 5.95028,13.2874 13.2874,13.2874 7.33713,0 13.2874,-5.95028 13.2874,-13.2874 0,-7.33713 -5.95027,-13.2874 -13.2874,-13.2874 -7.33712,0 -13.2874,5.95027 -13.2874,13.2874 z"
       id="path3010" />
  </g>
  <g
     inkscape:groupmode="layer"
     id="layer2"
     inkscape:label="shield"
     style="display:inline"
     transform="translate(-197.04501,-316.68109)"
     sodipodi:insensitive="true">
    <g
       id="g3027"
       transform="matrix(0.7985617,0,0,0.79818038,134.36306,184.58144)">
      <path
         inkscape:connector-curvature="0"
         style="fill:#000000;stroke:none"
         d="m 297.638,165.501 c 76.381,0 145.563,13.196 195.676,34.522 8.244,3.509 15.977,7.244 23.148,11.178 l 0,107.349 c -16.312,12.538 -26.83,32.244 -26.83,54.404 0,22.159 10.518,41.863 26.83,54.401 0,44.467 4.391,91.36 -19.381,131.528 -23.997,40.549 -69.945,60.396 -111.335,78.273 -31.557,13.63 -65.052,26.568 -88.108,53.289 C 274.581,663.724 241.087,650.786 209.529,637.156 168.14,619.279 122.191,599.432 98.1941,558.883 74.4222,518.715 78.8131,471.822 78.8131,427.355 c 16.3125,-12.538 26.8309,-32.242 26.8309,-54.401 0,-22.16 -10.5184,-41.866 -26.8309,-54.404 l 0,-107.349 c 7.1711,-3.934 14.9043,-7.669 23.1479,-11.178 50.113,-21.326 119.296,-34.522 195.677,-34.522 z"
         id="path3029" />
      <path
         inkscape:connector-curvature="0"
         style="fill:#df1f2c;stroke:none"
         d="m 297.635,168.893 c -70.769,0.002 -151.637,10.015 -215.4164,44.327 l 0,103.69 c 16.9044,13.637 26.8164,34.252 26.8174,56.043 0,21.74 -10.0298,42.503 -26.8199,56.043 -0.1392,43.187 -4.1307,89.234 18.9049,128.158 23.658,39.976 69.053,59.298 109.752,76.876 30.866,13.33 63.367,25.966 86.762,51.317 23.396,-25.351 55.896,-37.987 86.763,-51.317 40.698,-17.578 86.093,-36.9 109.752,-76.876 23.035,-38.924 19.044,-84.971 18.904,-128.158 -16.79,-13.54 -26.819,-34.303 -26.819,-56.043 10e-4,-21.791 9.912,-42.406 26.817,-56.043 l 0,-103.69 C 449.272,178.908 368.405,168.895 297.635,168.893 z"
         id="path3031" />
      <path
         inkscape:connector-curvature="0"
         style="fill:#419f46;stroke:none"
         d="m 145.02,601.063 c 20.549,13.479 43.884,23.478 65.853,32.967 30.866,13.33 63.367,25.966 86.762,51.317 23.396,-25.351 55.896,-37.987 86.763,-51.317 21.969,-9.489 45.304,-19.488 65.852,-32.967 -36.067,-20.924 -91.036,-34.296 -152.615,-34.296 -61.578,0 -116.548,13.372 -152.615,34.296 z"
         id="path3033" />
      <g
         id="g3035">
        <path
           inkscape:connector-curvature="0"
           style="fill:#000000;stroke:none"
           d="m 271.577,317.303 -32.642,30.486 c -11.228,-0.004 -22.083,1.138 -32.977,4.498 0.462,-4.511 0.984,-9.006 1.966,-13.44 -5.106,5.077 -10.729,9.304 -17.085,12.728 l -3.146,-5.617 c -9.424,7.116 -18.691,14.527 -27.088,22.85 l -0.412,0.408 c -2.949,-0.205 -4.943,-1.513 -6.598,-3.863 -5.338,2.772 -11.086,3.926 -16.978,4.87 5.493,-9.472 9.663,-19.282 13.324,-29.59 5.718,-16.098 12.295,-30.119 19.733,-42.058 11.896,-19.095 26.607,-32.082 44.626,-44.738 6.575,-4.619 13.195,-8.668 19.977,-11.731 12.01,-5.423 28.789,-0.533 29.382,14.342 0.183,4.574 -1.401,9.717 -5.367,14.932 -2.144,2.817 -5.784,5.188 -5.032,9.251 0.735,3.976 4.745,6.314 8.046,8.023 3.054,1.581 6.109,2.594 9.151,3.056 l 1.12,25.593 z m 68.541,-30.63 c 5.369,-0.775 10.986,-1.107 15.846,-3.748 13.271,-7.212 3.393,-21.861 -2.663,-30.36 -3.079,-4.321 -4.315,-8.738 -4.03,-12.618 0.939,-12.766 14.916,-13.926 24.443,-9.847 4.895,2.096 9.81,4.946 14.608,8.092 19.641,12.877 35.821,28.132 47.968,48.578 9.775,16.455 17.968,36.722 24.5,61.523 2.842,10.792 4.949,21.623 8.872,32.137 -5.029,-0.107 -9.195,-1.233 -13.423,-4.115 0.301,2.209 0.251,4.424 0.141,6.646 -13.548,-3.617 -22.208,-14.684 -30.923,-24.757 l -0.572,2.881 c -10.005,-5.628 -16.757,-13.855 -25.265,-21.927 -1.743,4.078 -3.033,8.434 -3.923,12.911 l -48.843,-26.561 -6.736,-38.835 z"
           id="path3037" />
        <path
           inkscape:connector-curvature="0"
           style="fill:#2e5fcc;stroke:none"
           d="m 239.318,345.241 30.245,-28.777 -0.554,-22.422 c -2.963,-0.564 -5.923,-1.601 -8.869,-3.126 -4.08,-2.112 -8.472,-4.911 -9.381,-9.826 -0.968,-5.234 2.714,-7.605 5.441,-11.163 3.628,-4.734 5.08,-9.335 4.918,-13.379 -0.52,-13.058 -15.468,-16.783 -25.794,-12.12 -6.621,2.99 -13.106,6.959 -19.559,11.492 -17.526,12.309 -32.464,25.598 -43.929,44.001 -7.341,11.783 -13.838,25.638 -19.493,41.559 -3.073,8.651 -6.444,17.255 -10.845,25.33 3.78,-0.773 7.334,-1.989 10.757,-3.681 -1.124,-10.221 6.474,-17.073 12.18,-24.261 5.246,-6.609 9.468,-14.582 9.385,-22.936 l 0.508,-0.04 c 0.063,8.682 -2.779,17.105 -7.69,24.074 -4.925,6.99 -12.692,12.905 -11.885,22.512 1.099,1.761 2.319,3.693 4.5,4.091 9.07,-8.924 19.084,-16.765 29.241,-24.395 l 3.338,5.961 c 3.872,-2.191 7.336,-4.825 10.579,-7.71 4.093,-8.881 10.583,-16.853 16.861,-24.24 5.782,-6.802 12.26,-13.009 13.856,-22.057 l 0.483,-0.036 c -1.118,9.264 -5.676,17.328 -11.33,24.93 -3.48,4.68 -7.147,8.942 -10.078,13.905 -1.481,5.209 -2.68,10.382 -3.311,15.819 9.886,-2.778 20.186,-3.562 30.426,-3.505 z m 158.305,-7.759 c -7.191,-7.63 -10.658,-20.302 -19.092,-26.264 l 1.596,-0.504 c 9.161,6.743 12.35,18.327 20.362,26.045 7.566,6.611 13.686,14.576 22.596,20.306 l 0.246,-1.239 c -4.876,-6.909 -8.736,-14.688 -12.464,-22.202 -4.664,-9.402 -9.475,-19.445 -15.398,-25.571 l 1.398,-0.357 c 6.194,5.84 11.527,15.218 16.282,24.802 3.828,7.715 7.65,16.271 13.217,22.906 7.587,9.046 16.625,20.28 27.577,24.2 -0.035,-2.044 -0.382,-4.01 -0.834,-5.963 -6.69,-7.934 -13.816,-22.729 -20.655,-36.93 -6.829,-14.181 -13.369,-28.327 -18.678,-33.477 l 1.705,-0.201 c 5.63,5.472 12.342,18.196 19.265,32.571 6.7,13.912 13.678,28.401 20.087,36.125 2.512,3.025 7.266,5.39 11.109,5.959 -3.345,-9.403 -5.083,-19.135 -7.614,-28.747 -6.469,-24.563 -14.572,-44.617 -24.231,-60.876 -11.951,-20.117 -27.851,-35.075 -47.17,-47.741 -4.697,-3.08 -9.487,-5.859 -14.209,-7.882 -7.82,-3.348 -20.104,-3.223 -20.906,7.684 -0.244,3.324 0.849,7.157 3.562,10.964 7.092,9.953 16.872,25.88 1.806,34.067 -4.674,2.54 -9.917,3.112 -15.09,3.813 l 6.07,34.688 45.298,25.57 c 0.997,-4.106 2.37,-8.074 4.165,-11.746 z"
           id="path3039" />
        <path
           inkscape:connector-curvature="0"
           style="fill:#ffffff;stroke:none"
           d="m 151.489,363.499 c -0.761,-6.885 1.485,-15.021 5.053,-23.345 16.587,-38.705 42.511,-66.634 66.871,-82.832 7.431,-4.942 15.144,-10.598 24.566,-8.374 7.997,1.887 14.277,9.003 1.553,25.377 -10.047,12.927 -0.397,21.64 13.81,25.319 l 4,-5.968 c -2.406,-0.603 -4.809,-1.521 -7.202,-2.76 -4.08,-2.112 -8.472,-4.911 -9.381,-9.826 -0.968,-5.234 2.714,-7.605 5.441,-11.163 3.628,-4.734 5.08,-9.335 4.918,-13.379 -0.52,-13.058 -15.468,-16.783 -25.794,-12.12 -6.621,2.99 -13.106,6.959 -19.559,11.492 -17.526,12.309 -32.464,25.598 -43.929,44.001 -7.341,11.783 -13.838,25.638 -19.493,41.559 -3.073,8.651 -6.444,17.255 -10.845,25.33 3.499,-0.715 6.805,-1.81 9.991,-3.311 z m 303.862,-25.163 c -21.652,-41.342 -47.371,-77.066 -80.106,-96.558 -9.044,-5.384 -22.901,-4.083 -11.258,16.288 12.65,22.134 5.229,33.954 -14.611,35.211 l -4.433,-4.692 c 4.227,-0.592 8.421,-1.354 12.237,-3.428 15.066,-8.187 5.286,-24.114 -1.806,-34.067 -2.713,-3.807 -3.806,-7.64 -3.562,-10.964 0.802,-10.907 13.086,-11.032 20.906,-7.684 4.722,2.023 9.512,4.802 14.209,7.882 19.319,12.666 35.219,27.624 47.17,47.741 8.23,13.854 15.331,30.464 21.254,50.271 z"
           id="path3041" />
        <path
           inkscape:connector-curvature="0"
           style="fill:#000000;stroke:none"
           d="m 209.707,269.22 c 6.42,-6.713 13.704,-13.273 22.064,-17.494 4.326,-2.184 9.402,-4.021 14.332,-3.63 3.506,0.277 6.741,1.64 8.856,4.062 3.175,3.639 2.985,8.607 1.321,12.84 -2.493,6.349 -8.132,10.947 -9.929,17.689 -1.256,4.708 0.045,8.744 6.173,11.871 -8.306,-2.052 -9.362,-7.281 -8.101,-12.276 1.758,-6.96 7.53,-11.742 10.022,-18.453 1.251,-3.37 1.321,-7.356 -1.036,-10.269 -1.693,-2.091 -4.383,-3.232 -7.367,-3.479 -4.607,-0.381 -9.396,1.408 -13.426,3.45 -8.676,4.397 -15.463,9.998 -23.67,17.999 l 0.761,-2.31 z m 159.615,5.469 c 1.506,-5.646 -2.803,-10.857 -5.69,-14.978 -3.185,-4.545 -8.585,-13.336 -3.921,-18.68 3.566,-4.085 11.77,-2.792 16.155,-0.099 24.718,15.18 43.394,37.549 58.769,61.899 l -0.207,1.078 c -15.208,-24.086 -35.15,-45.522 -59.602,-60.54 -3.589,-2.164 -11.197,-3.839 -13.884,-0.08 -3.223,4.51 1.612,11.352 4.106,14.972 3.128,4.54 7.561,10.129 5.33,17.129 l -1.056,-0.701 z"
           id="path3043" />
      </g>
      <g
         id="g3045">
        <path
           inkscape:connector-curvature="0"
           style="fill:#000000;stroke:none"
           d="m 346.936,336.55 c -5.605,18.461 -11.497,40.567 -18.09,51.117 l -0.989,12.527 c 12.732,19.943 23.21,46.454 26.777,89.341 3.186,1.784 6.373,4.146 9.56,8.571 -0.003,5.329 -0.66,11.153 -3.297,16.483 5.791,10.578 11.061,31.757 15.476,67.894 0.4,3.275 0.412,6.225 3.627,8.901 11.103,9.242 13.869,19.831 12.509,29.267 -7.896,2.251 -15.069,-4.431 -19.01,-10.513 -5.338,-8.234 -10.202,-11.548 -15.147,-13.846 0.33,-10.988 -1.193,-22.992 -4.945,-28.351 -18.928,-27.039 -20.779,-40.241 -19.469,-56.007 l -1.978,-5.605 c -12.762,-20.48 -22.771,-41.166 -29.377,-64.285 l -2.967,0.659 c -4.174,19.441 -6.814,39.79 -7.912,60.33 l -2.681,8.036 c 4.994,7.587 8.688,20.249 3.285,44.674 -2.644,11.951 -2.071,24.342 1.996,35.274 -0.959,0.628 -1.918,1.255 -2.877,1.883 -4.253,3.364 -8.404,6.61 -11.404,12.557 -3.852,7.634 -9.285,14.558 -19.373,15.779 -2.176,-5.767 -2.43,-15.951 -0.732,-20.308 1.697,-4.356 6.261,-6.979 9.762,-9.517 9.002,-6.526 7.258,-15.844 4.3,-25.102 -3.818,-11.954 -15.092,-37.375 -11.926,-50.678 -3.42,-2.113 -5.902,-5.535 -8.015,-8.953 1.554,-5.483 5.116,-10.873 8.259,-14.035 -8.923,-40.454 -4.28,-69.4 8.924,-92.932 l 1.221,-10.444 c -4.068,-11.731 -4.405,-25.814 -3.361,-38.318 -5.633,5.857 -10.853,12.331 -19.808,18.188 l -5.536,5.411 c -9.446,15.861 -34.814,24.292 -47.892,32.066 l -16.455,-3.017 c 14.584,-15.735 26.966,-38.781 47.577,-46.584 l 5.379,-3.839 c 6.964,-10.378 16.093,-21.089 25.215,-30.75 -1.793,-21.231 4.568,-33.052 28.256,-38.279 -0.826,-7.39 3.162,-13.689 9.835,-15.371 7.682,-0.968 15.363,-0.817 23.046,1.104 4.272,1.298 8.705,4.792 10.573,12.961 17.124,-0.306 28.025,10.708 26.817,31.878 -0.675,8.494 -4.938,14.759 -9.153,21.833 z"
           id="path3047" />
        <path
           inkscape:connector-curvature="0"
           style="fill:#ffffff;stroke:none"
           d="m 264.937,494.372 c 7.447,5.051 15.774,7.53 24.442,9.588 -7.941,5.194 -16.015,8.859 -25.622,9.252 l -6.875,-7.563 8.055,-11.277 z m 0.461,2.515 -6.158,8.622 5.299,5.83 c 7.227,-0.378 14.068,-2.884 20.222,-6.603 -6.74,-1.727 -13.487,-4.049 -19.363,-7.849 z m 88.325,-3.341 8.232,5.717 -1.914,12.921 c -7.524,-4.752 -15.137,-4.722 -23.7,-4.113 5.13,-6.146 10.251,-10.81 17.382,-14.525 z m -13.181,12.408 c 6.158,-0.279 12.573,0.195 18.085,3.216 l 1.34,-9.046 -6.378,-4.43 c -5.022,2.668 -9.284,6.008 -13.047,10.26 z m -50.856,18.206 c 1.752,6.425 2.203,14.055 1.617,22.454 -0.606,8.675 -2.426,17.167 -2.519,25.898 -0.063,5.869 0.566,11.616 2.009,17.31 -5.615,3.839 -9.761,9.079 -13.183,14.892 -3.71,6.304 -8.672,9.822 -15.247,12.686 -1.855,-7.781 -0.153,-14.298 4.868,-19.548 2.029,-2.123 4.517,-3.636 6.584,-5.708 12.498,-12.53 2.022,-30.078 -2.11,-44.036 -2.865,-9.684 -5.246,-19.43 -5.824,-29.494 l -0.061,-1.061 c 6.786,0.6 13.341,-0.192 19.55,-3.415 1.719,3.326 3.324,6.384 4.316,10.022 z m -14.869,68.981 c -2.039,2.044 -4.503,3.549 -6.509,5.632 -4.283,4.446 -6.281,10.045 -4.945,16.645 5.611,-2.528 9.87,-6.05 13.029,-11.418 3.322,-5.644 7.393,-10.976 12.79,-14.785 -1.385,-5.669 -1.869,-11.224 -1.81,-16.714 0.094,-8.751 1.905,-17.255 2.517,-25.947 0.581,-8.264 0.146,-15.75 -1.565,-22.023 -0.771,-2.829 -1.853,-5.595 -3.359,-8.117 -5.352,2.524 -11.305,3.496 -17.181,3.145 0.66,9.411 2.907,18.606 5.607,27.759 4.265,14.467 14.321,32.898 1.426,45.823 z m 84.925,-74.356 c 3.06,9.998 6.04,20.027 8.425,30.212 2.098,8.96 3.771,18.155 4.691,27.739 0.517,5.4 0.087,11.944 4.357,15.918 7.483,6.967 14.17,14.816 12.602,25.778 -7.417,-0.518 -10.941,-5.403 -14.903,-10.953 -3.852,-5.398 -7.663,-10.147 -13.588,-13.444 -0.072,-7.45 -0.86,-14.949 -3.305,-22.027 -2.741,-7.937 -8.645,-15.025 -12.606,-22.515 -5.925,-11.2 -9.788,-23.242 -8.079,-36.275 8.225,-1.017 15.798,0.264 22.406,5.567 z m -21.557,-4.705 c -1.465,12.329 2.761,24.222 8.581,35.007 4.11,7.617 9.735,14.195 12.59,22.461 1.988,5.758 3.248,12.748 3.372,21.654 6.324,3.633 10.023,8.813 13.338,13.458 3.649,5.112 6.816,9.548 12.527,10.249 1.047,-9.681 -5.789,-17.12 -12.342,-23.22 -4.654,-4.332 -4.244,-11.002 -4.802,-16.822 -0.914,-9.512 -2.576,-18.645 -4.661,-27.549 -2.374,-10.139 -5.184,-19.442 -8.164,-29.185 -5.895,-4.666 -13.106,-6.883 -20.439,-6.053 z m -1.792,-171.825 c -3.002,17.814 -10.358,26.204 -12.001,40.722 l 1.736,-0.638 c 1.389,-9.216 10.947,-18.87 10.265,-40.084 z m -59.658,49.39 -0.999,8.258 c 8.445,2.42 15.163,8.848 20.395,15.671 7.499,-7.224 16.483,-12.842 26.358,-16.132 l 0.682,-8.322 c -4.618,3.617 -9.597,5.622 -14.403,7.716 -5.134,2.235 -10.002,4.356 -13.571,8.173 -4.137,-6.322 -12.583,-10.348 -18.462,-15.364 z m 18.556,12.898 c 3.612,-3.259 8.098,-5.215 12.799,-7.262 5.491,-2.391 10.707,-4.927 15.1,-9.046 l 1.57,-0.211 -0.95,12.473 c -10.639,3.469 -19.87,9.131 -27.84,16.983 -5.652,-7.547 -12.432,-14.074 -21.786,-16.531 l 1.503,-12.434 c 5.852,6.243 13.951,9.667 19.604,16.028 z m 0.954,18.604 c 7.564,-8.225 16.213,-15.47 27.025,-18.918 10.355,20.003 18.71,40.949 22.88,63.159 -7.522,4.457 -14.558,5.24 -19.421,-2.971 -4.663,-7.873 -5.102,-17.386 -8.529,-25.729 -3.527,-8.585 -9.693,-15.602 -19.852,-13.285 -10.679,2.435 -14.251,16.58 -16.217,25.67 l -10e-4,0 -10e-4,0.006 c -1.667,7.764 -1.19,15.797 -4.341,23.328 -2.801,6.698 -9.834,7.66 -13.273,0.995 -1.86,-23.883 -0.345,-48.303 8.938,-70.699 9.893,3.232 17.065,9.923 22.792,18.444 z M 274.5,406.992 c -8.711,21.509 -9.938,45.006 -8.179,67.897 2.736,5.089 7.701,3.758 9.769,-1.187 3.096,-7.402 2.599,-15.364 4.239,-23.005 l 0.002,-0.009 0,-0.004 c 1.973,-9.12 5.273,-21.784 14.677,-26.081 -5.074,-7.667 -11.68,-14.475 -20.508,-17.611 z m 23.91,16.518 c 10.877,-2.247 17.698,5.253 21.489,14.48 3.386,8.245 3.818,17.733 8.413,25.492 3.037,5.127 7.665,7.559 15.791,2.972 -4.031,-21.008 -11.993,-41.033 -21.752,-59.998 -9.4,3.212 -17.245,9.914 -23.941,17.054 z m -0.969,-114.698 c 6.052,7.703 3.526,23.323 1.066,40.151 -2.038,13.944 -4.032,28.718 -1.066,40.506 -6.992,-10.429 -5.19,-25.556 -2.749,-41.508 2.023,-13.218 4.485,-27.001 2.749,-39.149 z m -20.459,74.952 -1.724,-1.388 c -6.662,-18.103 -3.363,-31.788 -1.621,-50.154 2.362,18.951 -1.047,27.477 3.345,51.542 z m -8.363,-57.669 c -1.979,6.175 -2.43,12.939 -1.89,19.371 -3.646,6.157 -8.926,11.253 -14.129,16.094 -7.496,3.153 -16.638,-0.367 -15.181,-9.919 6.937,-9.384 14.425,-18.393 22.657,-26.674 -0.263,-3.289 0.051,-6.26 0.737,-9.493 1.732,4.233 3.532,8.331 7.806,10.621 z m -7.221,-5.582 c -0.099,1.662 10e-4,3.329 0.145,4.985 -8.277,8.286 -15.8,17.292 -22.773,26.694 -1.087,8.023 6.544,10.853 13.046,8.166 4.933,-4.58 9.644,-9.411 13.12,-15.223 -0.486,-6.073 -0.135,-12.187 1.649,-18.04 -2.365,-1.218 -3.987,-3.933 -5.187,-6.582 z m -32.347,39.123 c -3.743,7.413 6.152,12.002 15.071,8.895 l 1.541,-1.544 c -8.688,1.887 -15.583,-3.549 -13.819,-8.968 l -2.793,1.617 z m -4.491,2.09 c -0.698,10.839 6.519,12.134 15.85,11.426 l -0.858,1.226 -0.008,0.014 c -5.35,7.282 -15.381,12.946 -24.639,17.879 -4.914,2.62 -9.948,5.088 -14.557,8.231 l -12.637,-1.003 c 10.113,-14.676 22.322,-27.422 36.849,-37.773 z m -33.833,36.117 9.576,0.958 c 4.636,-3.115 9.747,-5.534 14.668,-8.168 8.383,-4.485 17.272,-9.581 22.485,-15.867 -7.115,0.26 -14.272,-1.879 -14.437,-10.197 -12.652,9.219 -23.325,20.469 -32.292,33.274 z M 274.601,294.96 c -7.014,2.66 -10.992,8.362 -11.563,14.853 l 2.648,1.503 c -0.147,-6.808 4.031,-12.849 8.915,-16.356 z m 64.349,-6.411 c 8.499,1.338 11.457,6.846 11.41,16.132 l -1.569,-0.188 c 0.156,-7.093 -4.376,-13.394 -9.841,-15.944 z m -35.841,18.436 c 9.689,-5.288 22.642,-15.469 19.808,-28.331 l 1.37,-0.36 c 3.466,13.881 -10.249,26.407 -21.906,32.313 -5.291,-8.822 -15.921,-17.949 -14.94,-29.132 0.473,-5.391 4.253,-9.17 8.809,-11.523 -16.48,11.907 -0.513,26.031 6.859,37.033 z m 15.023,-22.735 0,2.253 c -1.665,8.207 -6.787,12.288 -11.757,12.141 -4.668,-0.139 -9.203,-4.008 -10.611,-11.695 l 0,-2.627 c 1.7,8.051 6.197,11.898 10.756,12.059 5.006,0.176 10.086,-4.096 11.612,-12.131 z"
           id="path3049" />
      </g>
      <path
         inkscape:connector-curvature="0"
         style="fill:#000000;stroke:none"
         d="m 201.011,403.141 -2.053,17.072 -53.451,-6.511 2.054,-17.072 53.45,6.511 z"
         id="path3051" />
      <path
         inkscape:connector-curvature="0"
         style="fill:#000000;stroke:none"
         d="m 168.142,452.783 c 4.667,0 8.455,3.788 8.455,8.455 0,4.667 -3.788,8.455 -8.455,8.455 -4.667,0 -8.456,-3.788 -8.456,-8.455 0,-4.667 3.789,-8.455 8.456,-8.455 z"
         id="path3053" />
      <path
         inkscape:connector-curvature="0"
         style="fill:#000000;stroke:none"
         d="m 179.8,417.222 c -0.306,9.168 -2.545,28.764 -6.742,39.447 l -7.547,-1.208 c -1.045,-5.487 2.888,-34.496 4.83,-39.346 l 9.459,1.107 z"
         id="path3055" />
      <path
         inkscape:connector-curvature="0"
         style="fill:#ffffff;stroke:none"
         d="m 176.925,414.57 20.043,3.981 1.563,-14.048 -20.762,-0.867 17.944,2.742 -1.143,9.503 -17.645,-1.311 z m -27.13,-16.057 -1.725,13.851 23.295,1.55 -20.466,-3.796 1.143,-8.878 22.949,2.144 -25.196,-4.871 z m 27.389,28.47 c -0.327,10.36 -1.886,18.821 -4.327,27.472 -2.18,-1.376 -4.059,-1.644 -6.239,-1.309 l 0,-1.308 c 1.141,-0.604 3.154,-0.638 4.226,-0.503 l 6.34,-24.352 z"
         id="path3057" />
      <path
         inkscape:connector-curvature="0"
         style="fill:#ffffff;stroke:none"
         d="m 168.142,455.785 c 3.011,0 5.453,2.441 5.453,5.453 0,3.012 -2.442,5.454 -5.453,5.454 -3.012,0 -5.454,-2.442 -5.454,-5.454 0,-3.012 2.442,-5.453 5.454,-5.453 z m 0.136,0.522 c 2.319,0 4.201,1.881 4.201,4.2 0,2.319 -1.882,4.201 -4.201,4.201 -2.319,0 -4.2,-1.882 -4.2,-4.201 0,-2.319 1.881,-4.2 4.2,-4.2 z"
         id="path3059" />
      <path
         inkscape:connector-curvature="0"
         style="fill:#000000;stroke:none"
         d="m 194.78,221.837 13.587,-18.403 7.44,21.534 -30.021,177.178 -9.773,3.969 -8.496,-5.809 27.263,-178.469 z"
         id="path3061" />
      <path
         inkscape:connector-curvature="0"
         style="fill:#808080;stroke:none"
         d="m 210.633,222.028 -28.557,179.468 1.928,-0.783 29.752,-175.586 -5.285,-15.295 -7.698,50.984 -2.274,1.669 8.034,-53.211 -9.85,13.341 -27.001,176.753 5.872,4.015 4.082,-25.886 1.969,0.305 -4.025,25.52 2.338,-0.949 29.332,-184.345 1.383,4 z"
         id="path3063" />
      <g
         id="g3065">
        <g
           id="g3067">
          <path
             inkscape:connector-curvature="0"
             style="fill:#000000;stroke:none"
             d="m 316.487,596.644 c -10.884,-10e-4 -20.723,-7.02 -24.366,-17.182 -0.229,-0.541 -0.251,-1.146 -0.07,-1.705 0.403,-1.238 1.731,-2.135 2.826,-2.69 13.61,-6.871 30.255,-7.575 44.53,-2.304 1.288,0.474 2.885,1.511 2.425,3.114 -2.422,11.936 -13.082,20.765 -25.345,20.767 z"
             id="path3069" />
          <path
             inkscape:connector-curvature="0"
             style="fill:#808080;stroke:none"
             d="m 338.811,576.976 c 0.503,-0.277 1.716,-0.966 1.685,-1.678 -0.028,-0.617 -1.19,-1.065 -1.576,-1.207 -13.91,-5.135 -30.141,-4.459 -43.406,2.238 -0.777,0.394 -2.233,1.183 -2.168,2.258 0.062,1.016 1.632,1.617 2.401,1.872 13.979,4.628 30.088,3.653 43.064,-3.483 z"
             id="path3071" />
          <path
             inkscape:connector-curvature="0"
             style="fill:#808080;stroke:none"
             d="m 316.487,595.233 c 10.674,-0.002 20.18,-7.108 23.336,-17.207 -0.112,0.067 -0.224,0.131 -0.331,0.191 -13.312,7.321 -29.845,8.336 -44.188,3.587 -0.245,-0.081 -0.503,-0.178 -0.762,-0.289 4.067,8.282 12.629,13.717 21.945,13.718 z"
             id="path3073" />
          <path
             inkscape:connector-curvature="0"
             style="fill:#000000;stroke:none"
             d="m 336.607,575.846 c -11.805,6.072 -27.291,6.688 -39.927,2.81 -0.77,-0.294 -0.73,-0.784 -0.067,-1.117 11.803,-6.072 27.291,-6.687 39.926,-2.81 1.004,0.264 1.307,0.605 0.068,1.117 z"
             id="path3075" />
        </g>
        <g
           id="g3077">
          <path
             inkscape:connector-curvature="0"
             style="fill:#000000;stroke:none"
             d="m 413.315,514.229 c 0.04,-1.382 1.417,-2.208 2.55,-2.662 7.588,-3.036 15.947,-4.424 24.255,-4.061 7.775,0.338 15.504,2.219 22.484,5.68 l 0.003,0 0.08,0.041 c 1.415,0.703 3.16,1.974 3.082,3.76 -0.014,0.331 -0.09,0.641 -0.224,0.943 -3.927,10.52 -14.312,17.653 -25.586,17.654 l 0,0.003 -0.004,0 -0.002,0 0,-0.003 c -12.222,0 -23.31,-8.391 -26.418,-20.196 -0.099,-0.38 -0.231,-0.761 -0.22,-1.159 z"
             id="path3079" />
          <path
             inkscape:connector-curvature="0"
             style="fill:#808080;stroke:none"
             d="m 415.573,517.174 c 3.682,10.099 13.578,16.999 24.38,16.999 l 0,-0.003 0.002,0 0.004,0 0,0.003 c 9.69,-10e-4 18.703,-5.539 23.097,-14.098 -6.758,3.065 -15.783,4.019 -23.124,3.728 -8.257,-0.326 -17.155,-2.418 -24.359,-6.629 z"
             id="path3081" />
          <path
             inkscape:connector-curvature="0"
             style="fill:#808080;stroke:none"
             d="m 416.54,516.097 0.034,0.019 0.002,-0.002 c 7.259,3.935 15.448,5.999 23.682,6.287 7.364,0.258 14.76,-0.895 21.582,-3.354 0.854,-0.309 2.468,-1.003 2.517,-2.121 0.05,-1.132 -1.465,-2.016 -2.301,-2.432 l -0.08,-0.04 0,-10e-4 c -6.808,-3.374 -14.335,-5.202 -21.918,-5.534 -8.109,-0.355 -16.265,0.998 -23.666,3.96 -0.509,0.204 -1.645,0.695 -1.665,1.389 -0.022,0.798 1.249,1.524 1.813,1.829 z"
             id="path3083" />
          <path
             inkscape:connector-curvature="0"
             style="fill:#000000;stroke:none"
             d="m 418.67,514.938 c 12.493,6.288 28.697,6.583 41.807,2.081 0.798,-0.337 0.744,-0.865 0.043,-1.21 -12.493,-6.289 -28.699,-6.583 -41.808,-2.081 -1.043,0.309 -1.351,0.686 -0.042,1.21 z"
             id="path3085" />
        </g>
        <path
           inkscape:connector-curvature="0"
           style="fill:#000000;stroke:none"
           d="m 292.092,577.822 18.404,-76.479 2.08,-0.888 29.243,74.464 -2.643,-1.268 -26.149,-66.586 4.694,76.975 -1.992,0.117 -4.673,-76.628 -16.583,68.911 -2.381,1.382 z"
           id="path3087" />
        <path
           inkscape:connector-curvature="0"
           style="fill:#000000;stroke:none"
           d="m 413.704,513.333 26.267,-80.164 1.728,-0.606 23.547,82.83 -2.544,-1.641 -20.769,-73.058 0.192,82.417 -1.992,0 -0.194,-83.431 -23.702,72.335 -2.533,1.318 z"
           id="path3089" />
        <path
           inkscape:connector-curvature="0"
           style="fill:#000000;stroke:none"
           d="m 343.805,406.731 -0.968,-14.517 30.351,59.162 2.591,12.959 -5.378,3.586 -26.596,-61.19 z"
           id="path3091" />
        <path
           inkscape:connector-curvature="0"
           style="fill:#999999;stroke:none"
           d="m 346.05,406.388 25.342,58.147 1.866,-1.244 -2.238,-11.192 -25.197,-49.116 0.227,3.405 z"
           id="path3093" />
        <path
           inkscape:connector-curvature="0"
           style="fill:#000000;stroke:none"
           d="m 305.859,496.263 133.971,-70.307 -10e-4,-0.001 c 6.093,-3.3 10.617,5.698 4.677,8.849 l -133.512,70.834 c -6.628,3.517 -11.45,-6.061 -5.135,-9.375 z"
           id="path3095" />
        <path
           inkscape:connector-curvature="0"
           style="fill:#999999;stroke:none"
           d="m 305.884,503.408 138.927,-74.587 c -1.165,-1.917 -2.856,-1.729 -4.223,-1.013 l -133.807,70.221 c -2.112,1.108 -2.585,3.462 -0.897,5.379 z"
           id="path3097" />
        <path
           inkscape:connector-curvature="0"
           style="fill:#000000;stroke:none"
           d="m 373.743,475.642 -25.608,-146.607 -0.173,-0.991 0.998,-0.165 4.966,-0.82 0.958,-0.158 0.183,0.958 27.847,146.096 c 1.29,6.777 -8.027,8.237 -9.171,1.687 z"
           id="path3099" />
        <path
           inkscape:connector-curvature="0"
           style="fill:#999999;stroke:none"
           d="m 380.249,477.178 -28.478,-147.742 -1.494,0.247 25.435,145.615 c 0.474,2.713 3.175,3.213 4.537,1.88 z"
           id="path3101" />
      </g>
      <g
         id="g3103">
        <path
           inkscape:connector-curvature="0"
           style="fill:#000000;stroke:none"
           d="m 177.574,421.405 c -1.202,-0.366 -2.282,-1.191 -3.012,-2.207 l -0.442,0.037 0,10e-4 c -1.287,0.111 -2.688,0.233 -3.915,-0.004 -3.883,-0.75 -4.739,-6.114 -0.336,-6.139 2.695,-0.015 5.547,-0.473 8.219,-0.208 3.892,0.386 7.699,3.493 7.975,7.501 0.288,4.259 -2.964,7.556 -7.214,7.472 l -0.211,-0.263 -0.001,10e-4 c -1.276,-1.592 -1.384,-4.292 -1.063,-6.191 z"
           id="path3105" />
        <path
           inkscape:connector-curvature="0"
           style="fill:#000000;stroke:none"
           d="m 167.86,415.133 c 0.846,3.245 2.463,6.376 5.098,8.511 1.094,0.886 2.094,1.72 2.261,3.298 0.212,2.01 -1.294,3.391 -3.255,3.34 0.648,1.85 0.203,3.963 -1.758,4.569 l 0,10e-4 c -0.214,0.063 -0.441,0.107 -0.679,0.133 0.614,1.38 -0.05,2.809 -1.346,3.444 -2.166,1.061 -5.002,-0.092 -6.769,-1.466 -1.397,-1.086 -2.604,-2.732 -3.147,-4.429 -0.575,-1.796 -0.411,-4.688 1.674,-5.415 -0.644,-2.188 -0.126,-5.532 2.785,-5.601 -0.747,-3.804 1.165,-6.536 5.136,-6.385 z"
           id="path3107" />
        <path
           inkscape:connector-curvature="0"
           style="fill:#ffcc99;stroke:none"
           d="m 160.544,428.433 c -1.326,0.045 -1.229,2.379 -0.922,3.605 0.071,0.283 0.154,0.507 0.232,0.63 l -0.002,10e-4 0.002,0.003 0.003,0.003 c 0.536,1.244 1.35,2.34 2.426,3.174 1.313,1.019 3.642,2.113 5.278,1.313 1.158,-0.568 0.898,-1.688 0.024,-2.405 -3.184,-0.619 -5.2,-3.952 -7.041,-6.324 z m 2.569,-5.48 c -2.49,-0.33 -2.182,3.086 -1.551,4.486 1.609,2.059 3.404,5.21 6.061,5.917 2.614,0.696 4.278,-0.499 2.61,-3.43 -1.415,-0.421 -2.685,-1.402 -3.859,-2.668 -1.16,-1.25 -2.23,-2.778 -3.261,-4.305 z m 3.662,-6.419 c -3.143,0.247 -3.031,3.637 -2.384,5.789 0.964,1.422 1.961,2.833 3.018,3.971 1.108,1.194 2.743,2.449 4.397,2.599 1.112,0.101 2.149,-0.425 2.007,-1.807 -0.127,-1.203 -0.935,-1.685 -1.73,-2.333 -2.562,-2.082 -4.38,-5.07 -5.308,-8.219 z m 12.543,3.741 c -0.553,1.956 -0.886,4.337 0.24,6.174 3.166,-0.117 5.309,-2.982 5.095,-5.987 -0.24,-3.311 -3.516,-5.855 -6.703,-6.171 -2.597,-0.257 -5.446,0.199 -8.075,0.214 -2.729,0.014 -1.505,2.932 0.596,3.337 1.55,0.299 3.247,-0.007 4.831,-0.119 1.084,1.808 2.209,2.311 4.016,2.552 z"
           id="path3109" />
        <path
           inkscape:connector-curvature="0"
           style="fill:#000000;stroke:none"
           d="m 361.583,347.775 -5.578,-8.367 c -5.266,-0.331 -7.105,-2.317 -10.121,-6.356 -1.194,-0.221 -2.37,-0.328 -3.573,-0.257 -2.905,0.167 -3.95,-3.235 -2.685,-5.498 -1.228,-1.291 -1.457,-4.043 -0.456,-5.512 -1.394,-1.539 -1.288,-4.026 -0.143,-5.656 -1.501,-1.859 -1.325,-5.449 1.333,-6.172 1.863,-0.506 5.443,-0.609 8.227,-0.336 1.178,0.115 2.403,0.164 3.434,0.779 3.994,2.382 9.024,10.011 10.999,13.935 l 6.018,4.787 -0.006,0.018 1.595,1.595 0.898,10.335 -8.176,7.472 -1.766,-0.767 z"
           id="path3111" />
        <path
           inkscape:connector-curvature="0"
           style="fill:#ffcc99;stroke:none"
           d="m 361.53,325.747 c -1.881,-4.128 -6.107,-11.441 -10.101,-14.049 -0.827,-0.539 -2.014,-0.577 -2.975,-0.671 -2.645,-0.259 -6.005,-0.246 -7.723,0.188 -1.892,0.478 -1.634,4.22 -0.205,4.086 3.281,-0.308 5.918,-0.334 9.152,0.425 l -0.101,1.525 c -3.095,-0.726 -5.678,-0.846 -8.827,-0.539 -1.486,0.145 -1.438,4.492 0.104,4.311 2.998,-0.353 5.635,-0.362 8.629,0.117 l -0.039,1.578 c -2.943,-0.471 -5.72,-0.617 -8.681,-0.264 -1.224,0.146 -0.841,4.042 0.31,3.914 2.765,-0.308 5.608,-0.218 8.359,0.231 l 0.029,1.541 c -2.685,-0.544 -5.772,-0.752 -8.475,-0.345 -1.177,1.124 -0.41,3.669 1.356,3.584 1.466,-0.071 2.907,0.103 4.353,0.387 2.666,3.689 6.06,5.262 10.538,5.469 l 5.851,8.875 1.023,0.41 6.052,-5.544 -0.747,-8.63 -7.882,-6.599 z"
           id="path3113" />
      </g>
      <path
         inkscape:connector-curvature="0"
         style="fill:#000000;stroke:none"
         d="m 367.365,326.705 c 16.509,10.012 36.127,15.12 34.021,41.274 -11.234,5.679 -23.113,0.286 -31.272,-8.151 -3.959,-4.094 -7.163,-8.138 -10.744,-11.129 6.352,-3.876 9.465,-13.127 7.995,-21.994 z"
         id="path3115" />
      <path
         inkscape:connector-curvature="0"
         style="fill:#ffffff;stroke:none"
         d="m 369.428,334.284 c 0.034,7.043 -2.574,11.042 -7.521,14.7 3.386,3.14 6.118,6.292 9.136,9.48 8.242,8.705 17.106,11.708 25.156,9.83 1.563,-0.364 2.674,-0.763 3.949,-1.462 1.113,-19.375 -11.691,-28.725 -28.373,-35.867 14.007,9.032 26.033,14.805 26.25,35.983 -8.465,2.995 -16.679,0.02 -24.64,-8.926 -2.825,-3.171 -5.869,-5.643 -9.256,-8.355 5.123,-3.193 6.86,-7.408 6.259,-14.606 l -0.96,-0.777 z"
         id="path3117" />
      <g
         id="g3119">
        <path
           inkscape:connector-curvature="0"
           style="fill:#000000;stroke:none"
           d="m 325.826,245.983 c -0.086,1.49 -0.46,2.939 -0.731,4.401 0.236,1.81 0.256,3.646 0.078,5.462 -0.471,4.791 -2.331,9.655 -5.457,14.207 -0.557,0.812 -1.155,1.593 -1.728,2.394 l 0.149,9.445 c -0.813,4.216 -2.628,8.933 -6.287,11.531 -3.08,2.186 -6.869,2.147 -9.909,-0.094 -3.622,-2.671 -5.397,-7.468 -6.128,-11.715 l -0.089,-11.59 c -1.175,-1.492 -2.299,-3.235 -3.539,-5.446 -3.537,-0.963 -5.929,-4.422 -6.745,-7.852 -0.458,-1.923 -0.248,-3.846 -0.296,-5.792 -0.032,-1.318 -0.221,-2.588 -0.51,-3.851 l -0.743,0.371 -3.677,-13.205 c 2.167,-1.771 4.396,-3.457 6.737,-4.993 -0.229,-3.632 -0.262,-6.641 -0.078,-9.268 0.406,-5.807 2.234,-10.144 5.279,-15.058 2.038,-3.29 3.945,-6.624 5.717,-10.066 2.61,2.203 5.349,4.189 8.148,6.144 5.49,3.836 11.102,7.757 16.216,14.799 2.721,3.747 4.912,7.921 5.567,12.557 l 10e-4,0.01 c 1.966,1.468 3.782,3.114 5.515,4.85 l -2.096,9.065 -2.529,1.012 c -0.44,1.306 -1.306,2.305 -2.865,2.682 z"
           id="path3121" />
        <path
           inkscape:connector-curvature="0"
           style="fill:#000000;stroke:none"
           d="m 284.753,245.282 c 6.633,-4.132 14.066,-9.09 21.924,-10.357 8.196,-1.321 15.282,2.275 21.663,6.994 l 1.668,-0.668 1.753,-7.58 c -15.833,-15.62 -33.9,-11.859 -49.938,1.09 l 2.93,10.521 z m 3.563,-16.897 c 12.078,-7.49 25.558,-9.424 37.848,-1.164 -0.817,-3.882 -2.764,-7.398 -5.076,-10.583 -4.981,-6.858 -10.49,-10.707 -15.88,-14.472 -2.337,-1.634 -4.653,-3.251 -6.894,-5.084 -1.98,3.779 -3.617,6.422 -4.961,8.59 -2.922,4.718 -4.678,8.835 -5.068,14.41 -0.167,2.377 -0.15,5.083 0.031,8.303 z"
           id="path3123" />
        <path
           inkscape:connector-curvature="0"
           style="fill:#ffffff;stroke:none"
           d="m 283.903,234.294 1.927,6.926 c 12.648,-8.396 24.994,-14.383 38.594,-4.286 l 0.025,0.691 c -13.636,-10.22 -28.372,-1.991 -39.286,6.541 l -2.631,-8.887 1.371,-0.985 z m 7.053,-3.603 c 11.568,-7.44 22.489,-8.122 34.395,-0.734 l 0,0.563 c -11.38,-6.478 -23.344,-5.832 -34.395,0.775 l 0,-0.604 z m 32.493,-6.481 c -5.525,-11.533 -16.229,-16.537 -24.479,-23.753 -5.804,8.747 -9.055,14.291 -6.767,25.583 l -3.354,1.892 c -1.444,-12.943 4.236,-20.005 9.836,-29.465 9.758,9.343 19.798,12.647 25.957,26.391 l -1.193,-0.648 z"
           id="path3125" />
        <path
           inkscape:connector-curvature="0"
           style="fill:#000000;stroke:none"
           d="m 291.624,262.873 c -0.926,-5.881 -0.702,-11.988 0.243,-17.847 l 0.371,-0.149 0.004,-0.001 c 0.651,-0.261 1.278,-0.594 1.853,-0.995 l 0,-0.003 c 1.434,-0.998 2.588,-2.433 3.269,-4.304 -3.499,1.756 -7.247,4.051 -11.468,6.662 0.725,2.79 0.687,4.701 0.653,6.424 -0.024,1.259 -0.047,2.41 0.27,3.739 0.628,2.641 2.27,5.306 4.805,6.474 z m 6.845,-23.839 0.082,0.07 0.009,0.008 c 1.098,0.939 2.357,1.679 3.695,2.218 3.464,1.396 7.462,1.482 10.801,0.489 l 0.003,0 0.006,-10e-4 0,-0.001 c 0.684,-0.203 1.367,-0.36 2.042,-0.47 3.801,-0.617 7.788,0.287 10.5,3.187 0.775,-0.226 1.421,-0.671 1.748,-1.588 -7.952,-5.909 -14.191,-7.74 -20.456,-6.73 -2.74,0.442 -5.504,1.428 -8.43,2.818 z"
           id="path3127" />
        <path
           inkscape:connector-curvature="0"
           style="fill:#ffcc99;stroke:none"
           d="m 316.608,274.517 c -1.285,1.985 -2.536,3.69 -5.294,4.273 -5.094,1.078 -10.973,-3.69 -14.165,-7.105 l 0.074,9.769 c 0.86,4.809 3.719,12.14 9.671,12.197 5.917,0.055 8.887,-7.134 9.829,-11.906 l -0.115,-7.228 z"
           id="path3129" />
        <path
           inkscape:connector-curvature="0"
           style="fill:#ffcc99;stroke:none"
           d="m 324.417,245.335 c -2.393,-2.425 -5.839,-3.044 -9.079,-2.503 -0.618,0.104 -1.244,0.25 -1.874,0.436 l -0.005,0.003 -0.01,0.003 0,-0.001 c -3.624,1.076 -7.965,0.93 -11.726,-0.616 -0.736,-0.302 -1.45,-0.658 -2.131,-1.068 l -0.003,0 c -0.407,-0.245 -0.806,-0.511 -1.192,-0.798 -1.05,2.356 -2.925,4.209 -5.259,5.242 -0.87,5.647 -0.994,11.723 0.003,17.36 1.426,2.563 2.958,5.083 4.963,7.243 2.757,2.971 8.352,7.736 12.916,6.77 2.805,-0.593 3.708,-2.603 5.058,-4.677 0.775,-1.191 1.666,-2.302 2.47,-3.473 3.787,-5.515 6.037,-12.193 5.117,-18.901 0.423,-1.59 0.7,-3.286 0.752,-5.02 z"
           id="path3131" />
        <path
           inkscape:connector-curvature="0"
           style="fill:#000000;stroke:none"
           d="m 313.149,273.527 c -1.303,-0.559 -3.165,-0.52 -4.47,0.012 l 0,-0.84 c 0.824,-1.173 3.684,-1.332 4.47,-0.053 l 0,0.881 z m -10.186,-27.543 c 7.845,0.149 7.342,7.484 6.744,13.173 l -0.292,0.093 c -0.185,-3.928 0.719,-10.966 -5.851,-11.563 l -0.601,-1.703 z m -4.411,4.545 c 2.517,-1.495 6.99,-1.901 8.541,1.7 l -1.011,-0.234 c -1.353,3.077 -5.832,2.614 -6.395,-0.469 l -1.16,0.544 0.025,-1.541 z m 8.944,18.694 -1.502,0.051 0,-0.88 3.117,-0.683 c 0.971,-0.124 1.372,0.388 2.271,0.401 0.815,0.011 1.167,-0.513 2.001,-0.349 l 2.533,0.726 -0.072,0.916 -1.131,-0.09 c -1.934,1.808 -5.848,1.853 -7.217,-0.092 z m 15.975,-18.683 c -2.313,-1.394 -6.425,-1.772 -7.85,1.586 l 0.929,-0.218 c 1.244,2.87 5.361,2.438 5.878,-0.437 l 1.066,0.507 -0.023,-1.438 z m -0.258,-2.842 c -2.281,-0.472 -7.181,-0.425 -8.145,2.22 -0.87,2.384 -0.622,7.768 -0.432,10.464 0.577,0.031 1.027,0.173 1.369,0.486 1.028,0.941 0.93,2.913 -0.341,3.626 -0.619,0.348 -1.33,0.321 -2.025,0.287 -1.361,1.113 -2.877,1.154 -4.195,0.034 -0.993,0.343 -2.619,0.392 -2.922,-1.471 l 1.018,-1.316 c -0.431,1.356 0.934,2.145 2.095,1.389 1.101,1.074 2.527,1.21 3.741,0.085 0.548,0.131 1.207,0.197 1.71,-0.085 0.523,-0.294 0.615,-1.409 0.175,-1.819 -0.376,-0.349 -1.16,-0.384 -1.65,-0.294 -0.027,-3.625 -0.781,-8.389 0.218,-11.838 1.008,-3.481 6.618,-3.795 9,-3.274 l 0.384,1.506 z"
           id="path3133" />
      </g>
    </g>
  </g>
</svg>
