<?xml version="1.0" encoding="UTF-8" standalone="no"?>
<!-- Creator: CorelDRAW -->

<svg
   xmlns:dc="http://purl.org/dc/elements/1.1/"
   xmlns:cc="http://creativecommons.org/ns#"
   xmlns:rdf="http://www.w3.org/1999/02/22-rdf-syntax-ns#"
   xmlns:svg="http://www.w3.org/2000/svg"
   xmlns="http://www.w3.org/2000/svg"
   xmlns:sodipodi="http://sodipodi.sourceforge.net/DTD/sodipodi-0.dtd"
   xmlns:inkscape="http://www.inkscape.org/namespaces/inkscape"
   xml:space="preserve"
   width="300.03116"
   height="368.37906"
   style="fill-rule:evenodd"
   viewBox="0 0 84.675461 103.96476"
   id="svg2"
   version="1.1"
   inkscape:version="0.48.1 "
   sodipodi:docname="слоним.svg"><metadata
   id="metadata49"><rdf:RDF><cc:Work
       rdf:about=""><dc:format>image/svg+xml</dc:format><dc:type
         rdf:resource="http://purl.org/dc/dcmitype/StillImage" /></cc:Work></rdf:RDF></metadata><sodipodi:namedview
   pagecolor="#ffffff"
   bordercolor="#666666"
   borderopacity="1"
   objecttolerance="10"
   gridtolerance="10"
   guidetolerance="10"
   inkscape:pageopacity="0"
   inkscape:pageshadow="2"
   inkscape:window-width="1280"
   inkscape:window-height="750"
   id="namedview47"
   showgrid="false"
   fit-margin-top="0"
   fit-margin-left="0"
   fit-margin-right="0"
   fit-margin-bottom="0"
   inkscape:zoom="1.442931"
   inkscape:cx="54.029909"
   inkscape:cy="184.41461"
   inkscape:window-x="-8"
   inkscape:window-y="-8"
   inkscape:window-maximized="1"
   inkscape:current-layer="svg2" />
 <defs
   id="defs4"><style
     type="text/css"
     id="style6">
   
    .str0 {stroke:black;stroke-width:0.3528}
    .str1 {stroke:black;stroke-width:0.4}
    .fil5 {fill:none}
    .fil2 {fill:black}
    .fil1 {fill:#0493DD}
    .fil3 {fill:#FCF504}
    .fil0 {fill:white}
    .fil4 {fill:#FCF504;fill-rule:nonzero}
   
  </style><style
     id="style3065"
     type="text/css">
   
    .str0 {stroke:#FF6600;stroke-width:0.7056}
    .fil1 {fill:none}
    .fil0 {fill:#A90000}
   
  </style></defs>
 <path
   style="fill:#a90000"
   inkscape:connector-curvature="0"
   class="fil0"
   d="m 62.587594,49.66896 c 0.8283,0 1.5,0.6717 1.5,1.5 l 0,1.4998 c 0,0.8283 -0.6717,1.5 -1.5,1.5 l -1.5,0 0,-4.4998 1.5,0 z m 0,5.9998 c 1.6566,0 3,-1.3434 3,-3 l 0,-1.4998 c 0,-1.6566 -1.3434,-3 -3,-3 l -3,0 0,7.4998 3,0 z m -6,-7.4998 1.5,0 0,7.4998 -1.5,0 0,-7.4998 z m -3,0 1.5,0 0,7.4998 -1.5,0 -3,-4.7086 0,4.7086 -1.5,0 0,-7.4998 1.5,0 3,4.7086 0,-4.7086 z m -22.499999,1e-4 4.499999,0 0,1.5 -3,0 0,1.4999 3,0 0,1.5 -3,0 0,1.4999 3,0 0,1.5 -4.499999,0 0,-7.4998 z m -6,-2e-4 1.5,0 0,6 3,0 0,1.5 -4.5,0 0,-7.5 z m 15.750399,6 1.4996,0 c 1.2424,0 2.25,-1.0076 2.25,-2.25 0,-1.2424 -1.0263,-2.2457 -2.25,-2.25 l -1.4996,0 0,1.5 1.4996,0 c 0.4141,0 0.75,0.3359 0.75,0.75 0,0.4141 -0.3359,0.75 -0.75,0.75 l -1.4996,0 0,1.5 z m 1.4996,-7.5 c 2.899,0 5.25,2.351 5.25,5.25 0,2.899 -2.351,5.25 -5.25,5.25 -2.899,0 -5.25,-2.351 -5.25,-5.25 0,-2.899 2.351,-5.25 5.25,-5.25 z m 0,1.5 c 2.070701,0 3.75,1.6793 3.75,3.75 0,2.0707 -1.679299,3.75 -3.75,3.75 -2.0707,0 -3.75,-1.6793 -3.75,-3.75 0,-2.0707 1.6793,-3.75 3.75,-3.75 z"
   id="path3069" /><g
   id="Слой_x0020_1"
   transform="matrix(1.2000066,0,0,1.1984411,-83.662962,-125.94867)">
  <metadata
   id="CorelCorpID_0Corel-Layer" />
  <path
   class="fil0 str0"
   d="m 105,105.262 c -14.2295,0 -26.8431,1.8493 -35.1013,4.7406 l 0,16.5801 c 2.25,2.1925 3.6482,5.2554 3.6482,8.6446 0,3.3892 -1.3982,6.4518 -3.6482,8.6443 0.0201,13.901 4.6883,24.1048 12.992,31.9016 6.7817,6.3675 16.7051,8.998 22.1093,15.7965 5.4042,-6.7985 15.3276,-9.429 22.1093,-15.7965 8.3037,-7.7968 12.9719,-18.0006 12.992,-31.9016 -2.25,-2.1925 -3.6482,-5.2551 -3.6482,-8.6443 0,-3.3892 1.3982,-6.4521 3.6482,-8.6446 l 0,-16.5801 C 131.8431,107.1113 119.2295,105.262 105,105.262 z"
   id="path10"
   inkscape:connector-curvature="0"
   style="fill:#ffffff;stroke:#000000;stroke-width:0.35280001" />
  <path
   class="fil1 str0"
   d="m 105,107.514 c -13.6989,0 -25.722,1.7776 -32.9797,4.4947 l 0,13.4192 c 2.3897,2.5701 3.8524,6.0141 3.8524,9.7994 0,3.7853 -1.4627,7.2289 -3.8524,9.799 0.2751,12.5886 4.59,22.3128 12.6791,29.3607 6.2841,5.4752 15.8259,8.53 20.3006,13.9835 4.4747,-5.4535 14.0165,-8.5083 20.3006,-13.9835 8.0891,-7.0479 12.404,-16.7721 12.6791,-29.3607 -2.3897,-2.5701 -3.8524,-6.0137 -3.8524,-9.799 0,-3.7853 1.4627,-7.2293 3.8524,-9.7994 l 0,-13.4192 C 130.722,109.2916 118.6989,107.514 105,107.514 z"
   id="path12"
   inkscape:connector-curvature="0"
   style="fill:#0493dd;stroke:#000000;stroke-width:0.35280001" />
  <polygon
   class="fil0 str0"
   points="91.5336,117.031 88.7263,117.031 87.9333,116.038 87.9333,119.243 90.4848,119.243 90.4848,121.568 87.9333,121.568 87.9333,123.155 90.4848,123.155 90.4848,125.48 87.9333,125.48 87.9333,128.372 86.2323,128.372 86.2323,125.48 83.6808,125.48 83.6808,123.155 86.2323,123.155 86.2323,121.568 83.6808,121.568 83.6808,119.243 86.2323,119.243 86.2323,116.038 85.4393,117.031 82.6321,117.031 87.0828,111.454 "
   id="polygon14"
   style="fill:#ffffff;stroke:#000000;stroke-width:0.35280001" />
  <path
   class="fil2"
   d="m 84.1818,169.126 c 0.2106,-0.7815 1.0425,-1.0657 1.8044,-1.0016 l -0.0451,1.1372 c -0.506,-0.3129 -1.1367,-0.2622 -1.7593,-0.1356 z"
   id="path16"
   inkscape:connector-curvature="0"
   style="fill:#000000" />
  <path
   class="fil2"
   d="m 84.9314,167.19 c 0.3947,-0.7066 1.2708,-0.7795 1.9941,-0.5316 l -0.3209,1.0919 c -0.4145,-0.4268 -1.0386,-0.5314 -1.6732,-0.5603 z"
   id="path18"
   inkscape:connector-curvature="0"
   style="fill:#000000" />
  <path
   class="fil2"
   d="m 89.0907,173.207 c -0.3339,-0.7373 0.1279,-1.4854 0.7569,-1.92 l 0.6878,0.9068 c -0.5896,0.0799 -1.0444,0.5198 -1.4447,1.0132 z"
   id="path20"
   inkscape:connector-curvature="0"
   style="fill:#000000" />
  <path
   class="fil2"
   d="m 96.2155,173.684 c 0.7833,-0.2037 1.0748,-1.0331 1.0175,-1.7955 l -1.1376,0.0351 c 0.3084,0.5087 0.2522,1.1389 0.1201,1.7604 z"
   id="path22"
   inkscape:connector-curvature="0"
   style="fill:#000000" />
  <path
   class="fil2"
   d="m 121.794,172.947 c 0.1007,-0.8031 -0.5618,-1.3809 -1.2913,-1.6099 l -0.3885,1.0697 c 0.5868,-0.0981 1.1514,0.1874 1.6798,0.5402 z"
   id="path24"
   inkscape:connector-curvature="0"
   style="fill:#000000" />
  <path
   class="fil2"
   d="m 108.568,170.937 c 0.11,-0.8019 0.8992,-1.1891 1.6631,-1.222 l 0.0992,1.1338 c -0.5415,-0.2463 -1.1607,-0.1162 -1.7623,0.0882 z"
   id="path26"
   inkscape:connector-curvature="0"
   style="fill:#000000" />
  <path
   class="fil2"
   d="m 108.846,173.077 c -0.0315,-0.8087 0.6781,-1.3277 1.4245,-1.4933 l 0.2954,1.0991 c -0.5762,-0.1481 -1.1632,0.088 -1.7199,0.3942 z"
   id="path28"
   inkscape:connector-curvature="0"
   style="fill:#000000" />
  <path
   class="fil2"
   d="m 111.41,175.374 c -0.393,-0.7076 0.006,-1.4908 0.5977,-1.9753 l 0.7595,0.8476 c -0.5811,0.1277 -0.9985,0.6033 -1.3572,1.1277 z"
   id="path30"
   inkscape:connector-curvature="0"
   style="fill:#000000" />
  <path
   class="fil2"
   d="m 88.2042,137.447 c 0.7698,-0.2499 1.4619,0.2923 1.8238,0.9657 l -0.9776,0.5827 c -0.0139,-0.5948 -0.4005,-1.0957 -0.8462,-1.5484 z"
   id="path32"
   inkscape:connector-curvature="0"
   style="fill:#000000" />
  <path
   class="fil2"
   d="m 85.0423,141.529 c 0.4136,-0.6957 1.2913,-0.7449 2.0077,-0.4777 l -0.3502,1.0829 c -0.4029,-0.4378 -1.0239,-0.5591 -1.6575,-0.6052 z"
   id="path34"
   inkscape:connector-curvature="0"
   style="fill:#000000" />
  <path
   class="fil2"
   d="m 86.4716,145.705 c -0.0841,-0.805 0.5902,-1.369 1.3243,-1.5829 l 0.3663,1.0776 c -0.5846,-0.1103 -1.155,0.1635 -1.6906,0.5053 z"
   id="path36"
   inkscape:connector-curvature="0"
   style="fill:#000000" />
  <path
   class="fil2"
   d="m 90.9333,146.984 c 0.7854,0.1955 1.4379,-0.3937 1.7519,-1.0909 l -1.016,-0.5128 c 0.0278,0.5943 -0.3229,1.121 -0.7359,1.6037 z"
   id="path38"
   inkscape:connector-curvature="0"
   style="fill:#000000" />
  <path
   class="fil3 str1"
   d="m 100.006,121.772 c 1.0733,1.4143 3.1749,1.2823 5.4866,1.2918 1.0507,0.004 2.1687,-0.0112 3.2831,0.1644 -0.801,0.053 -2.086,0.1627 -3.4585,0.3426 -2.4465,0.3208 -5.3087,0.997 -5.3112,-1.7988 z"
   id="path40"
   inkscape:connector-curvature="0"
   style="fill:#fcf504;stroke:#000000;stroke-width:0.40000001" />
  <path
   class="fil4"
   d="m 84.8172,130.832 c 0.0515,-0.1524 0.1675,-0.2871 0.3514,-0.361 0.1692,-0.0679 0.5739,-0.1307 1.0016,-0.167 l -0.0178,-0.0679 c -0.3409,0.0106 -0.6822,-0.006 -1.026,-0.0221 -0.0952,-0.005 -0.1904,-0.009 -0.2828,-0.0129 -0.3119,-0.0129 -0.5042,-0.19 -0.5825,-0.4081 -0.0602,-0.1672 -0.0527,-0.3598 0.0217,-0.5213 0.0941,-0.2041 0.2928,-0.3563 0.5895,-0.3414 0.1726,0.009 0.3393,0.0191 0.5047,0.0294 0.215,0.0134 0.4287,0.0269 0.642,0.0359 -0.0968,-0.0254 -0.1931,-0.0557 -0.2878,-0.0906 -0.3146,-0.116 -0.506,-0.3796 -0.572,-0.6523 -0.029,-0.1198 -0.0339,-0.2417 -0.0147,-0.3535 0.0196,-0.1139 0.0645,-0.2184 0.1344,-0.3011 0.1122,-0.1328 0.287,-0.2091 0.5242,-0.1804 0.4779,0.058 0.9487,0.1023 1.4158,0.1159 0.4651,0.0135 0.9287,-0.003 1.3951,-0.0659 0.3346,-0.1433 0.6447,-0.2136 0.9238,-0.2136 0.2947,0 0.5553,0.078 0.7745,0.2306 0.2184,0.1521 0.3948,0.3779 0.522,0.6735 0.1462,0.3396 0.2279,0.7733 0.2341,1.2949 1.6215,-0.4047 3.172,-0.5663 4.6512,-0.4495 1.4901,0.1178 2.9082,0.5183 4.2536,1.2374 0.6386,-0.6908 1.5274,-1.2578 2.7355,-1.6651 0.1095,-0.2902 0.2374,-0.5555 0.3824,-0.7963 0.1481,-0.2458 0.3147,-0.4672 0.4986,-0.6647 0.943,-1.0132 2.3347,-1.392 4.0329,-1.2469 l 2e-4,0 c 0.0292,0.003 0.0572,0.003 0.0833,0.003 0.2644,-0.005 0.4863,-0.1425 0.6467,-0.3301 0.1611,-0.1887 0.2601,-0.427 0.2784,-0.6327 -1.1132,0.4302 -2.0422,0.664 -2.6794,0.5878 -0.6727,-0.0804 -1.0261,-0.4949 -0.9405,-1.3683 l 0.002,-0.0187 0.0133,-0.0127 0.012,-0.0114 2e-4,-2e-4 c 0.0286,-0.0268 0.0594,-0.0535 0.0917,-0.0789 0.0326,-0.0257 0.0684,-0.0513 0.1068,-0.076 0.192,-0.1234 0.4482,-0.2201 0.7686,-0.2131 l 0.0579,10e-4 -0.01,0.0567 c -0.0548,0.3237 0.1104,0.4746 0.4036,0.5241 0.4439,0.0751 1.1701,-0.0675 1.896,-0.21 0.1525,-0.0299 0.305,-0.0598 0.4661,-0.0896 0.0441,-0.778 -0.2844,-1.1864 -0.8396,-1.396 -0.5778,-0.2182 -1.4016,-0.2274 -2.3094,-0.2108 l -0.0327,6e-4 c -0.1887,0.004 -0.38,0.0128 -0.5656,0.0214 -0.5443,0.025 -1.0424,0.048 -1.3677,-0.0574 l -2e-4,0 c -0.3374,-0.1095 -0.4927,-0.3462 -0.3353,-0.8321 l 0,-2e-4 0.0251,-0.0766 0,-2e-4 c 0.0995,-0.3013 0.1908,-0.5785 0.0115,-0.8466 l -4e-4,-6e-4 -8e-4,-10e-4 c -0.0325,-0.0486 -0.0629,-0.099 -0.0899,-0.15 l -10e-5,0 c -0.0273,-0.0513 -0.0516,-0.1042 -0.0715,-0.1572 -0.1057,-0.2806 -0.096,-0.5738 0.1717,-0.8028 l 4e-4,-2e-4 0.0121,-0.0102 c 0.0843,-0.071 0.176,-0.1372 0.2735,-0.198 0.0978,-0.0608 0.203,-0.1174 0.3142,-0.1691 0.528,-0.245 1.1927,-0.3789 1.8975,-0.378 l -0.0448,-0.0195 c 0.4535,-1.0407 1.28,-1.5989 2.3521,-1.8381 1.0572,-0.2359 2.3532,-0.1605 3.7654,0.0665 0.1198,-0.1278 0.2212,-0.2847 0.3091,-0.4625 0.0929,-0.1878 0.1708,-0.4 0.2393,-0.627 l 0.022,-0.0726 0.0579,0.0486 c 0.2453,0.2059 0.4142,0.4158 0.5272,0.6499 0.1058,0.2193 0.1623,0.4593 0.1866,0.7367 0.124,-0.0255 0.2482,-0.0688 0.3591,-0.1406 0.1258,-0.0814 0.236,-0.2006 0.3109,-0.3735 l 0.0256,-0.0589 0.0506,0.0391 c 0.1867,0.1444 0.3185,0.3116 0.4096,0.4948 l 1e-4,0 c 0.0857,0.1723 0.1356,0.359 0.162,0.5542 0.0466,0.0139 0.1007,0.0359 0.1596,0.0653 0.066,0.033 0.1382,0.0754 0.212,0.1261 l 2e-4,2e-4 c 0.3769,0.2592 0.8196,0.7479 0.8302,1.3767 l -0.0155,2e-4 c 0.3153,0.3628 0.5202,0.8736 0.5282,1.4776 l -0.0371,4e-4 c 0.415,0.4545 0.5934,1.0327 0.3769,1.7 0.1906,0.3819 0.2913,0.7862 0.3825,1.1524 l 0.0235,0.0942 0.014,0.056 -0.0577,0.005 -0.006,6e-4 -4e-4,2e-4 c -0.0284,0.002 -0.0587,0.003 -0.0895,0.002 -0.0305,-10e-4 -0.0608,-0.004 -0.0903,-0.008 -0.1045,-0.0154 -0.209,-0.0501 -0.3023,-0.0988 0.0461,0.1766 0.072,0.3558 0.0809,0.537 0.0247,0.5025 -0.084,1.018 -0.27,1.5218 -0.0519,0.1405 -0.1177,0.3154 -0.1827,0.4887 l 0,2e-4 c -0.3506,0.9335 -0.7043,1.8743 -0.8925,2.8887 l -0.0244,0.1317 -0.0676,-0.1155 c -0.377,-0.644 -0.753,-1.1126 -1.1282,-1.406 l 0.0167,0.1832 c 0.1247,1.3369 0.2504,2.6842 -0.7065,3.7447 -0.4284,0.4747 -0.7327,1.0071 -0.9042,1.6039 -0.1718,0.5978 -0.2111,1.2617 -0.1095,1.9984 l 0.0116,0.0841 -0.0792,-0.031 c -0.202,-0.0789 -0.4042,-0.202 -0.6062,-0.3952 -0.1831,-0.1752 -0.3656,-0.4078 -0.5477,-0.7175 -0.1021,0.2632 -0.1595,0.5265 -0.1895,0.7898 -0.0339,0.2967 -0.0337,0.5938 -0.025,0.8906 l 0.003,0.0924 -0.006,-0.004 c -0.0155,1.0142 -0.0725,2.0469 -0.1556,3.0919 -0.0866,1.0875 -0.202,2.1901 -0.3302,3.2989 0.4196,0.7054 0.7287,1.336 0.9787,1.9836 0.2515,0.6521 0.4432,1.3213 0.6269,2.102 0.4217,1.7916 1.0963,3.4025 1.9066,4.188 0.1561,0.1513 0.317,0.2717 0.4816,0.3561 0.1629,0.0835 0.3299,0.1321 0.4999,0.141 l 0.0151,7e-4 c 0.1468,0.006 0.2821,-0.005 0.4062,-0.0302 0.4953,-0.1004 0.8231,-0.4347 1.0327,-0.8868 0.2131,-0.4594 0.3055,-1.0404 0.328,-1.6244 0.032,-0.8268 -0.0756,-1.6589 -0.1783,-2.1653 -0.2288,-1.1289 -0.5978,-2.199 -0.9649,-3.2643 -0.5793,-1.6805 -1.1547,-3.3499 -1.1771,-5.2415 -0.0168,-1.4327 0.3643,-3.3397 1.4962,-4.3693 0.2233,-0.2032 0.4761,-0.3725 0.7608,-0.4973 0.2844,-0.1248 0.6007,-0.2051 0.9508,-0.2305 l 4e-4,0 0.0633,-0.004 6e-4,0 c 1.285,-0.0678 2.1012,0.5785 2.633,1.4954 0.5216,0.8993 0.7677,2.0587 0.9154,3.0543 0.4639,0.1518 0.8459,0.5056 1.0674,1.0085 0.0437,0.099 0.0814,0.2046 0.1121,0.316 0.0306,0.1107 0.0545,0.2271 0.0707,0.3484 l 6e-4,0.005 c 0.0897,0.6774 -0.1422,1.2896 -0.5579,1.6467 -0.0814,0.07 -0.17,0.1304 -0.2646,0.1794 -0.0145,0.008 -0.029,0.015 -0.0438,0.022 -0.0434,0.4347 0.008,1.0136 0.0841,1.5034 0.0149,0.0965 0.0313,0.1906 0.0479,0.2797 0.0166,0.0891 0.0337,0.1721 0.0502,0.2468 l 0.001,0.005 0.0288,0.1282 -0.1065,-0.0769 c -0.2446,-0.1765 -0.4377,-0.4227 -0.5911,-0.7202 -0.1473,-0.2855 -0.2583,-0.6189 -0.3439,-0.9836 -0.5712,-0.0515 -1.0928,-0.4509 -1.3926,-1.0365 -0.0597,-0.1168 -0.1108,-0.2408 -0.1513,-0.3698 -0.0405,-0.129 -0.0713,-0.265 -0.0906,-0.406 l -0.002,-0.0118 0,-2e-4 c -0.0896,-0.6764 0.1305,-1.2698 0.5071,-1.6619 0.0736,-0.0767 0.1534,-0.1458 0.2374,-0.206 l 2e-4,0 c 0.0739,-0.0528 0.152,-0.0992 0.2328,-0.1385 -0.0889,-0.3547 -0.2025,-0.7367 -0.3247,-1.0832 -0.0248,-0.0705 -0.0499,-0.1392 -0.0747,-0.2046 -0.0256,-0.0677 -0.0511,-0.132 -0.0757,-0.1918 l -9e-4,-0.002 -2e-4,-6e-4 c -0.1384,-0.3357 -0.3455,-0.5978 -0.5898,-0.776 -0.1977,-0.1442 -0.4204,-0.2339 -0.6513,-0.2634 -0.2306,-0.0295 -0.4701,7e-4 -0.7014,0.0961 -0.2779,0.1147 -0.545,0.3236 -0.7725,0.6355 -1.4767,2.0246 -0.4608,5.1045 0.5435,8.1494 l 0.0446,0.1353 c 0.08,0.2427 0.1666,0.4946 0.2552,0.7524 0.6198,1.8032 1.3463,3.9171 0.7885,5.6828 l -6e-4,0.002 c -0.1979,0.6255 -0.5233,1.1413 -0.9317,1.5394 -0.4651,0.4534 -1.0381,0.7544 -1.6527,0.8916 -0.6142,0.1373 -1.2703,0.1113 -1.9021,-0.0885 -0.5794,-0.1833 -1.1389,-0.5132 -1.6277,-0.9972 l -0.1203,0.3292 c -0.2534,0.6925 -0.5201,1.4212 -0.7084,2.1318 -0.5095,1.9219 -0.4489,3.7274 2.001,4.3768 1.0311,0.2733 1.9759,0.5877 2.7764,0.9856 0.804,0.3995 1.4632,0.8837 1.9192,1.4951 l 0.0784,0.105 -0.1284,-0.0263 c -0.5103,-0.1048 -1.0119,-0.1774 -1.4988,-0.2064 -0.4034,-0.0241 -0.797,-0.0187 -1.1773,0.0229 0.4713,0.1515 0.8984,0.3555 1.2598,0.6364 0.4198,0.3261 0.751,0.756 0.9602,1.3281 l 0.0361,0.0985 -0.0992,-0.0344 c -0.5187,-0.1801 -1.0372,-0.3341 -1.5529,-0.3096 0.5341,1.3088 0.9934,2.6234 1.3113,3.9523 0.3176,1.3277 0.4942,2.6696 0.4635,4.035 l 0.0548,-0.0206 c 0.4283,-0.1617 0.8571,-0.3236 1.3522,-0.3099 0.562,0.0154 1.0797,0.2418 1.3358,0.6904 0.0509,0.0892 0.0916,0.1875 0.12,0.2945 0.0282,0.1062 0.0445,0.2215 0.0469,0.3454 l 0,8e-4 2e-4,0.0511 0,6e-4 c -5e-4,0.0513 -0.006,0.1033 -0.0161,0.1549 -0.0604,0.3128 -0.2846,0.6417 -0.5642,0.8906 -0.2806,0.2497 -0.6196,0.4211 -0.9078,0.4178 -0.0403,-4e-4 -0.0795,-0.004 -0.1168,-0.0114 -0.4601,-0.0888 -0.9186,-0.3766 -1.2847,-0.7048 -0.0715,-0.0641 -0.1393,-0.1295 -0.2022,-0.1945 -0.0487,-0.0503 -0.0945,-0.1009 -0.1378,-0.1508 -0.5957,0.8292 -1.1735,1.5765 -1.8811,2.0601 -0.7264,0.4965 -1.5864,0.7137 -2.7354,0.4547 -0.5327,-0.0976 -0.891,-0.3397 -1.0816,-0.6383 -0.1142,-0.1789 -0.1684,-0.3782 -0.1641,-0.5789 0.002,-0.1143 0.0242,-0.2292 0.0643,-0.341 -0.6353,0.2103 -1.2039,0.0246 -1.5705,-0.3134 -0.1449,-0.1338 -0.2586,-0.2917 -0.3323,-0.4583 -0.0742,-0.1679 -0.1083,-0.3454 -0.0936,-0.5167 0.016,-0.1868 0.0894,-0.3662 0.2304,-0.5181 l -0.01,0.005 c -0.1925,-0.3559 -0.2724,-0.6735 -0.2606,-0.9464 0.0123,-0.2855 0.1246,-0.5219 0.3126,-0.7019 l 2e-4,0 c 0.1861,-0.1781 0.4462,-0.3008 0.7569,-0.361 0.467,-0.0906 1.0511,-0.0413 1.6714,0.1702 l 0.4778,0.1633 c 1.0635,0.3639 2.1962,0.7512 3.273,1.0663 -0.5562,-2.0533 -1.3017,-3.8358 -2.2787,-5.2858 -0.9743,-1.4456 -2.179,-2.5612 -3.6571,-3.2848 -0.0315,0.4176 -0.268,0.8152 -0.6342,1.1316 -0.0766,0.0662 -0.1592,0.1292 -0.2467,0.1878 -0.0875,0.0588 -0.18,0.1134 -0.2762,0.163 l -4e-4,2e-4 -0.0463,0.0234 -0.0933,0.0472 0.022,-0.1022 c 0.1249,-0.5775 0.1346,-1.2137 0.029,-1.9075 -0.4772,1.1578 -1.0861,1.7456 -1.826,1.7626 l -0.0783,0.002 0.0318,-0.0717 c 0.3585,-0.8078 0.661,-1.603 0.7158,-2.3699 0.0545,-0.7612 -0.1354,-1.4971 -0.7587,-2.1938 -1.4871,-1.6622 -2.5388,-3.3643 -2.9827,-5.1334 -0.0664,-0.2647 -0.119,-0.5312 -0.1576,-0.799 -0.5125,0.1781 -0.9866,0.2631 -1.461,0.2865 -0.477,0.0235 -0.9545,-0.0152 -1.4727,-0.0835 l -0.005,-6e-4 c -0.1379,-0.018 -0.2688,-0.027 -0.3925,-0.0275 -0.123,-4e-4 -0.2401,0.007 -0.3507,0.023 -0.5627,0.0794 -0.9588,0.3605 -1.2322,0.7529 -0.8415,1.2074 -0.5185,2.2936 -0.149,3.536 l 1e-4,0 0.0063,0.0211 0,2e-4 c 0.2288,0.7694 0.4003,1.5399 0.5216,2.311 0.1195,0.7604 0.1906,1.5205 0.2197,2.2803 0.779,0.3861 1.2428,0.936 1.4859,1.605 0.2445,0.6731 0.2642,1.4653 0.1565,2.3316 l -0.0161,0.1299 -0.0745,-0.1077 c -0.246,-0.3562 -0.4579,-0.619 -0.6926,-0.8453 -0.1918,-0.1849 -0.3998,-0.3466 -0.6553,-0.5154 0.0378,0.0677 0.0734,0.1359 0.1068,0.2044 0.063,0.1293 0.1184,0.2607 0.1654,0.3938 0.2417,0.6838 0.2665,1.4123 0.036,2.1849 l -0.0369,0.1237 -0.0559,-0.1165 c -0.1803,-0.3762 -0.3606,-0.6985 -0.5557,-0.9759 -0.3014,0.1349 -0.6035,0.2067 -0.9055,0.2146 -0.0631,0.002 -0.126,5e-4 -0.188,-0.003 -0.055,-0.003 -0.1098,-0.009 -0.1643,-0.0164 -0.3916,0.4787 -0.7833,0.9121 -1.1747,1.3116 -0.3797,0.3878 -0.7589,0.7435 -1.1375,1.0788 0.6927,0.3701 1.1687,0.7897 1.4141,1.2451 0.0498,0.0924 0.0903,0.1864 0.121,0.2816 0.0309,0.0955 0.0522,0.1924 0.0636,0.2903 l 0,2e-4 6e-4,0.005 c 0.048,0.4242 -0.0271,0.7887 -0.1842,1.0712 -0.1322,0.2376 -0.3227,0.4177 -0.5468,0.5268 -0.2244,0.1092 -0.4828,0.1477 -0.7506,0.1029 -0.3126,-0.0523 -0.6382,-0.2183 -0.9378,-0.518 -0.4377,-0.438 -0.6287,-1.0678 -0.6487,-1.6266 -0.0039,-0.1095 -0.0014,-0.2157 0.0069,-0.3164 0.0033,-0.0404 0.008,-0.0805 0.0132,-0.1195 -0.4924,0.5474 -0.9853,1.0633 -1.4788,1.4912 -0.5344,0.4632 -1.07,0.8236 -1.6067,1.0094 l -0.0019,8e-4 c -0.5648,0.1694 -1.0503,0.1475 -1.4026,-0.0145 l -2e-4,0 c -0.069,-0.0317 -0.1335,-0.0693 -0.1925,-0.1119 l -2e-4,0 c -0.0583,-0.0422 -0.1116,-0.0899 -0.159,-0.1423 l -10e-5,1e-4 -0.0015,-0.002 -8e-4,-8e-4 c -0.224,-0.249 -0.3302,-0.5018 -0.3459,-0.7471 -0.0196,-0.3073 0.1029,-0.6008 0.3128,-0.8604 0.1967,-0.2433 0.4709,-0.458 0.7758,-0.6263 -0.7484,0.1046 -1.5265,0.168 -2.2886,0.1914 l -2e-4,0 c -0.175,0.005 -0.3504,0.009 -0.5245,0.01 -0.1736,10e-4 -0.346,3e-4 -0.5161,-0.003 l -0.032,-6e-4 c -0.0905,-0.002 -0.1774,-0.007 -0.2599,-0.0168 l -2e-4,0 c -0.4391,-0.0501 -0.7874,-0.2055 -1.0247,-0.4267 -0.2404,-0.224 -0.3675,-0.5154 -0.3616,-0.8342 6e-4,-0.0375 0.0032,-0.0748 0.0073,-0.1114 l 0,-2e-4 c 0.0083,-0.073 0.0203,-0.1426 0.0356,-0.2081 0.1005,-0.4316 0.3448,-0.7054 0.6668,-0.8674 l -0.0339,-0.009 c 0.1041,-0.376 0.3622,-0.7912 0.7262,-1.1454 0.3205,-0.3118 0.7239,-0.5776 1.1773,-0.7293 0.4548,-0.1522 0.9601,-0.1898 1.4831,-0.045 0.4829,0.1336 0.9803,0.423 1.4659,0.9213 0.2662,0.2156 0.5114,0.4097 0.7408,0.5876 0.2308,0.179 0.442,0.3391 0.6404,0.4867 l 0.0016,10e-4 c 0.3792,0.3046 0.7578,0.5626 1.1321,0.6334 0.3675,0.0696 0.7364,-0.0427 1.1074,-0.4732 l 0.0015,-0.002 0.0026,-0.002 c 0.4,-0.3655 0.7962,-0.7445 1.1761,-1.1755 0.3778,-0.4286 0.7387,-0.9085 1.0695,-1.477 0.5415,-1.5091 0.8274,-2.969 0.6884,-4.3081 -0.1368,-1.3183 -0.6861,-2.5217 -1.8095,-3.5425 -0.4641,0.8344 -1.3046,1.4466 -2.1567,1.5278 -0.1707,0.0162 -0.3418,0.0112 -0.5102,-0.0172 -0.169,-0.0287 -0.3359,-0.081 -0.4967,-0.1593 l -4e-4,-4e-4 -0.0012,-6e-4 -0.0739,-0.037 0.0673,-0.0481 c 0.1056,-0.0754 0.21,-0.1469 0.3138,-0.218 0.718,-0.4917 1.4276,-0.978 1.8225,-2.249 -0.4159,0.379 -0.8238,0.6653 -1.2182,0.8105 -0.4442,0.1634 -0.8716,0.1497 -1.2751,-0.1077 l -0.0657,-0.042 0.0657,-0.042 c 0.8517,-0.544 1.4884,-1.2401 1.759,-2.1184 0.0527,-0.1714 0.0918,-0.3498 0.1156,-0.5346 0.0239,-0.1852 0.0328,-0.3782 0.0257,-0.5785 l -6e-4,-0.0151 c -0.0079,-0.2018 -0.0228,-0.409 -0.0374,-0.6153 -0.0829,-1.1655 -0.1645,-2.3142 0.9344,-3.2052 0.5843,-0.4738 1.3509,-0.6146 2.1694,-0.5744 0.8128,0.0399 1.6766,0.2584 2.4627,0.5051 0.0795,0.025 0.1669,0.0553 0.2546,0.0856 0.602,0.2084 1.2394,0.4291 1.6872,-0.4202 0.3042,-0.5769 0.6259,-1.1004 0.9613,-1.5906 0.3304,-0.4829 0.6741,-0.9336 1.0278,-1.3719 -0.9368,-1.371 -1.8629,-2.8871 -2.4737,-4.5064 -0.2462,-0.2871 -0.4538,-0.5858 -0.6188,-0.8976 -0.3008,-0.5684 -0.4602,-1.1789 -0.4555,-1.8389 -0.1811,-0.068 -0.3624,-0.1196 -0.5429,-0.1561 l -2e-4,0 c -0.1511,-0.0307 -0.3024,-0.0511 -0.4539,-0.0633 0.3407,0.4074 0.6119,0.8266 0.799,1.26 0.2014,0.4671 0.3052,0.951 0.293,1.4548 l -0.002,0.0745 -0.0681,-0.03 c -2.2427,-0.9859 -5.1828,0.1432 -6.5541,0.6698 l 0,2e-4 -0.1687,0.0645 c 0.0073,0.0787 0.0164,0.1702 0.0264,0.2685 0.0534,0.5268 0.1271,1.2526 0.0867,1.922 -0.06,0.9936 -0.3702,1.8628 -1.3579,1.8032 -0.0546,-0.003 -0.1057,-0.0123 -0.1531,-0.0261 -0.2546,-0.0748 -0.4073,-0.2917 -0.4904,-0.5729 -0.0803,-0.2715 -0.0956,-0.6048 -0.0763,-0.9251 0.0166,-0.2752 0.0589,-0.5413 0.1072,-0.7513 -0.4186,0.4006 -1.0748,0.9594 -1.7495,1.3034 -0.3476,0.1772 -0.7012,0.2979 -1.0314,0.3117 -0.3358,0.014 -0.6466,-0.0818 -0.902,-0.339 -0.1049,-0.1057 -0.2005,-0.2387 -0.2838,-0.4022 -0.0867,-0.17 -0.1367,-0.3285 -0.1546,-0.4757 l 0,-2e-4 c -0.0506,-0.415 0.1495,-0.7376 0.489,-0.9867 0.3308,-0.2428 0.7957,-0.4151 1.2867,-0.5347 l 0.0991,-0.0232 c -0.2026,0.004 -0.4195,0.01 -0.6356,0.0161 -0.5018,0.0148 -1.0017,0.0295 -1.3215,0.009 l -2e-4,0 -0.0204,-0.001 -2e-4,0 c -0.4226,-0.0303 -0.6844,-0.2673 -0.8018,-0.5782 -0.0563,-0.1494 -0.0789,-0.316 -0.0697,-0.4843 0.0093,-0.1677 0.0504,-0.3378 0.121,-0.4948 0.175,-0.3889 0.532,-0.7006 1.0422,-0.7113 0.6376,-0.0135 1.2887,0.0259 1.947,0.1002 0.3163,0.0357 0.6351,0.0798 0.9545,0.1298 -0.5986,-0.2755 -1.265,-0.5898 -1.5914,-1.0668 l -7e-4,-0.001 c -0.2131,-0.3122 -0.2478,-0.6442 -0.1625,-0.9432 0.0606,-0.2127 0.1822,-0.4086 0.3429,-0.5686 0.1602,-0.1595 0.3603,-0.2839 0.5783,-0.3542 0.3389,-0.1094 0.7218,-0.0884 1.0686,0.133 0.5538,0.3535 1.0617,0.9654 1.5243,1.7617 0.0894,0.1539 0.1774,0.3153 0.2639,0.4834 0.0794,0.1542 0.1574,0.3141 0.2338,0.4783 1.9575,-0.895 3.5231,-1.8799 4.6774,-2.9588 1.16,-1.0842 1.9049,-2.2636 2.2147,-3.5421 l 0.0098,0.002 c 0.0217,-0.24 0.0484,-0.456 0.0777,-0.6372 -0.0499,0.0298 -0.1001,0.0615 -0.1492,0.0953 -0.3251,0.2241 -0.6563,0.5507 -0.9158,0.9531 l -0.0887,0.1377 -0.0031,-0.1639 c -0.0064,-0.3447 0.0028,-0.682 0.0306,-1.0105 -0.2348,-0.1583 -0.4966,-0.3147 -0.78,-0.4648 -0.2896,-0.1534 -0.6021,-0.3003 -0.9317,-0.4365 -1.6951,-0.7005 -3.8523,-1.1211 -5.7811,-0.7068 -0.4163,0.0892 -0.7315,0.2692 -1.0459,0.4489 l -2e-4,0 c -0.2649,0.1512 -0.5299,0.3027 -0.8574,0.4027 l 0,2e-4 -0.0086,0.003 -2e-4,0 c -0.0681,0.0205 -0.1379,0.0378 -0.2079,0.0509 -0.0696,0.0131 -0.1392,0.0221 -0.2074,0.0264 -0.355,0.0223 -0.6901,-0.079 -0.9335,-0.3707 l 0.0062,-0.005 -0.2504,0.0321 c -0.309,0.04 -0.6851,0.0889 -0.9576,0.1129 l 0,-2e-4 c -0.3137,0.0278 -0.5481,-0.0965 -0.677,-0.2692 l 0,-2e-4 c -0.0528,-0.0708 -0.0882,-0.15 -0.1041,-0.2302 l 0,-2e-4 c -0.0161,-0.0813 -0.0124,-0.1645 0.0126,-0.2416 l 10e-5,0 c 0.0497,-0.1535 0.183,-0.2834 0.412,-0.333 0.0772,-0.0167 0.1598,-0.0328 0.2459,-0.0486 l -0.0148,-0.0563 c -0.3392,0.0383 -0.6649,0.0613 -1.0506,0.0571 -0.2338,-0.002 -0.4097,-0.0931 -0.5223,-0.2237 -0.0703,-0.0815 -0.1161,-0.179 -0.1356,-0.2801 -0.0195,-0.1012 -0.0132,-0.2068 0.0199,-0.3049 z"
   id="path42"
   inkscape:connector-curvature="0"
   style="fill:#fcf504;fill-rule:nonzero" />
  <path
   class="fil5 str1"
   d="m 92.2263,169.533 c -1.2264,-0.2635 -3.6451,1.1559 -2.4237,2.5137 0.3213,0.3572 0.9361,0.4873 1.7055,0.2565 1.0602,-0.3672 2.1203,-1.4275 3.1806,-2.6163 -0.1388,0.6328 -0.0105,1.5941 0.5851,2.1901 1.085,1.0853 2.5052,0.3672 2.3344,-1.1422 -0.0768,-0.6779 -0.6355,-1.2968 -1.637,-1.8174 0.7929,-0.6983 1.5857,-1.482 2.3788,-2.4542 0.4381,0.0658 0.8764,-0.005 1.3148,-0.2134 m 4.4118,-13.4919 c -1.026,0.3591 -1.893,0.3412 -2.9241,0.2052 -1.0011,-0.1321 -1.6362,0.2075 -2.0273,0.7687 -0.8601,1.2342 -0.5254,2.3362 -0.1495,3.5999 0.457,1.5363 0.6836,3.0727 0.7404,4.6089 1.5648,0.7609 1.8554,2.1803 1.6416,3.8988 -0.4959,-0.7182 -0.855,-1.0602 -1.539,-1.4877 0.5558,0.8893 0.7268,1.864 0.4104,2.9241 -0.3933,-0.8207 -0.7866,-1.385 -1.3338,-1.7955 m -6.9255,3.1806 c -1.3852,-0.2159 -2.6451,-0.8627 -3.7368,-1.1042 -1.1075,-0.245 -2.5214,-0.2488 -2.6757,1.1042 -0.0816,0.7151 0.5253,1.3139 1.5903,1.3338 1.2152,0.0228 2.5309,-0.0599 3.7449,-0.2565 m 12.7737,-23.4441 c -0.7184,0.8888 -1.3942,1.8253 -2.0007,2.9754 -0.5321,1.009 -1.3099,0.5759 -2.0007,0.3591 -1.5664,-0.4917 -3.4388,-0.8697 -4.5859,0.0603 -1.2711,1.0307 -0.9323,2.4237 -0.8786,3.7798 0.0576,1.4546 -0.7209,2.523 -1.9227,3.2906 0.7779,0.4961 1.65,0.0515 2.565,-0.8208 -0.4411,1.6151 -1.3486,2.0555 -2.2059,2.6676 1.1194,0.5459 2.5047,-0.2056 3.1293,-1.3851 2.3304,2.0776 2.2702,4.9163 1.1799,7.9515 -0.6667,1.1468 -1.4534,1.933 -2.2572,2.6676 -0.7695,0.8929 -1.5391,0.464 -2.3085,-0.1539 -0.4018,-0.2991 -0.8464,-0.6411 -1.3851,-1.0773 -2.1006,-2.1587 -4.4061,-0.3427 -4.7709,0.9747 m 22.3155,-39.4497 c -0.1586,1.687 0.7601,2.1427 1.0632,3.7783 1.164,-1.5155 2.4703,-3.3095 2.0499,-5.2796 -0.1635,-0.7663 -0.3487,-1.3976 -0.215,-1.9938 0.3719,0.8129 0.8684,1.1784 1.6549,1.2584 0.487,0.0495 0.9785,0.241 1.468,0.6691 0.1228,-0.7104 0.0785,-1.4967 -0.2736,-2.1077 -0.3635,-0.6308 -0.6277,-1.2853 -0.7713,-2.019 m -3.8475,9.2853 c -0.2052,2.1376 0.2052,3.5227 1.2312,4.1553 -0.0176,-0.5985 -7e-4,-1.1968 0.2565,-1.7955 0.3933,0.7013 0.7865,1.0262 1.1799,1.1799 -0.2052,-1.4876 0.1589,-2.6814 1.026,-3.6423 1.0123,-1.1219 0.7934,-2.5803 0.6669,-4.0014 0.4104,0.2908 0.8208,0.7867 1.2312,1.4877 0.2222,-1.197 0.6717,-2.2879 1.0773,-3.3858 0.3681,-0.9964 0.4297,-2.0351 -0.2565,-2.9241 m -15.0822,13.4406 c -2.1297,3.6341 -0.2142,6.0452 3.5397,7.9002 -0.5486,-3.2025 -0.498,-6.1354 1.6929,-8.1054 0.6317,0.9077 1.3491,1.6953 2.6676,1.6416 -0.7182,-1.2312 -0.7524,-2.5308 -0.1026,-3.8988 m -2.052,-4.8222 c 0.1197,0.855 -0.171,1.8639 -0.5643,2.7189 1.3509,-0.2394 1.881,-1.2483 2.8215,-1.4877 m -2.1033,-2.8215 c -2.0178,0 -3.42,0.684 -4.2066,2.052 1.026,-0.0941 1.8982,-0.0601 2.9241,0.2565 -2.5749,0.9469 -5.0068,1.7724 -5.8701,3.8872 1.9397,-0.5946 2.956,0.4353 4.5876,-1.1683 m -3.1806,9.2853 c 0.8905,2.4084 2.4895,4.5922 3.7962,6.4125 -1.8818,3.839 -0.6554,7.3062 2.3085,10.6191 1.2676,1.417 0.7725,2.992 0.0513,4.617 0.7524,-0.0173 1.368,-0.65 1.8468,-1.8981 0.1368,0.7694 0.1368,1.4705 0,2.1033 0.6922,-0.3414 1.171,-0.9233 1.1799,-1.539 3.0352,1.4534 4.9333,4.5313 6.0534,8.721 -1.2674,-0.3673 -2.6133,-0.8376 -3.838,-1.2552 -1.8066,-0.616 -3.2907,0.1603 -2.4206,1.7682 m 5.7969,0.1539 c -1.8897,-0.7141 -3.6682,-0.928 -5.2839,-0.4104 -1.5903,0.5301 -0.3287,2.6735 1.3329,1.9858 m 4.2588,-0.8059 c -0.6066,-0.0602 -1.9709,-0.2153 -3.022,-0.0236 -1.7191,0.3133 -1.863,2.1235 -0.1586,2.4347 2.267,0.5109 3.3895,-0.8547 4.6019,-2.5469 0.3846,0.4601 1.0107,0.9606 1.6378,1.0818 0.5973,0.1154 1.5379,-0.7287 1.5457,-1.4033 0.0102,-0.878 -0.6772,-1.3113 -1.4545,-1.3326 -0.5326,-0.0148 -0.9915,0.1796 -1.4574,0.3535 0.0776,-2.7728 -0.7061,-5.4488 -1.7955,-8.1054 0.5472,-0.0432 1.0944,0.1178 1.6416,0.3078 -0.4113,-1.1248 -1.3022,-1.6899 -2.4111,-2.0007 0.909,-0.1372 1.8983,-0.0569 2.9241,0.1539 -0.9021,-1.2096 -2.6119,-1.9172 -4.6683,-2.4624 -3.5808,-0.9493 -2.1422,-4.3172 -1.1799,-6.9768 1.9936,2.0449 5.2346,1.4246 6.0868,-1.2695 0.6336,-2.0019 -0.4042,-4.469 -1.0429,-6.4065 -1.0223,-3.1007 -2.0948,-6.2538 -0.5808,-8.3296 0.8638,-1.1844 2.2898,-0.922 2.8013,0.3182 0.1832,0.4444 0.3617,1.0168 0.4882,1.5287 -0.6453,0.2929 -1.1079,1.0534 -0.9862,1.9725 0.1308,0.9871 0.8339,1.7333 1.6268,1.7836 0.1719,0.7501 0.4484,1.3673 0.924,1.7105 -0.121,-0.5432 -0.2492,-1.4579 -0.1822,-2.0734 m -0.2251,0.0705 c 0.728,-0.1723 1.2112,-0.9655 1.0895,-1.8845 -0.1126,-0.8508 -0.601,-1.448 -1.2463,-1.6458 -0.2931,-1.9955 -0.9764,-4.6713 -3.501,-4.5379 -2.4955,0.1319 -3.2483,3.0541 -3.2248,5.0507 0.0364,3.08 1.5494,5.5786 2.141,8.4966 0.2683,1.3226 0.5693,4.8517 -1.6395,4.7663 -1.2684,-0.0491 -2.3582,-2.2111 -2.9497,-4.7243 -0.3666,-1.5575 -0.7634,-2.6679 -1.6086,-4.086 0.2578,-2.2272 0.4646,-4.4292 0.4892,-6.5402 m -10.983,-2.3341 c -0.4363,0.1984 -0.943,0.6171 -1.3092,1.1849 -0.0502,-2.7201 0.8767,-4.9725 4.1409,-6.0645 0.781,-2.0965 2.5313,-2.8978 4.8716,-2.6978 0.6441,0.055 1.07,-0.6245 1.0657,-1.0839 -2.2751,0.89 -3.7878,0.9772 -3.6233,-0.7015 0.1891,-0.1817 0.5031,-0.3755 0.9439,-0.3659 -0.1658,0.9797 1.4698,0.5306 2.8621,0.2744 0.1182,-1.6606 -1.3705,-1.7317 -3.197,-1.6983 -1.2983,0.0237 -2.6042,0.2801 -2.2532,-0.8025 0.1113,-0.3434 0.2392,-0.6545 0.0305,-0.9665 -0.226,-0.338 -0.3451,-0.7511 0,-1.0463 0.5809,-0.4967 1.5569,-0.7707 2.6088,-0.7417 1.1924,0.0328 2.5513,0.5455 3.8461,1.9616 m -3.9887,-2.0129 c 0.8929,-2.0486 3.2563,-2.197 6.0896,-1.7383 0.2631,-0.2703 0.4402,-0.6698 0.5785,-1.1284 0.4797,0.4026 0.6583,0.8171 0.7003,1.4074 0.2949,-0.0493 0.6025,-0.1872 0.7612,-0.5535 0.3613,0.2793 0.5078,0.6446 0.5567,1.0489 0.3275,0.0758 1.1832,0.6686 1.1977,1.5297 m -1.0097,-0.5283 c 0.8126,0.1055 1.5075,0.8936 1.5224,2.0059 m -1.2179,-0.732 c 1.1381,0.4316 1.924,1.2958 1.5599,2.4168 m -4.0097,-3.2402 c 1.2846,0.8107 2.7567,1.7367 3.6353,2.7156 0.4851,0.5405 0.6357,1.2254 0.7796,1.7981 -0.1957,0.019 -0.4181,-0.0535 -0.5744,-0.1696 m -16.3511,15.1009 c -0.672,-1.2499 -0.5491,-4.1236 -0.3374,-5.1815 m -8.3386,9.2303 c -0.9464,-0.043 -4.8516,0.2454 -3.8706,2.1688 0.8957,1.7564 3.1672,-0.1697 4.0152,-1.012 -0.1905,0.6486 -0.3774,2.3321 0.5225,2.3864 1.7404,0.1052 1.2917,-2.8329 1.1886,-3.977 1.2688,-0.4818 4.4157,-1.7935 6.7962,-0.7471 0.0242,-0.9921 -0.4096,-1.9078 -1.1568,-2.7715 0.3857,0.0202 0.7713,0.0925 1.1568,0.241 m -8.6037,2.0967 c -1.3327,-0.2528 -2.6586,-0.4366 -3.9283,-0.4097 -1.293,0.0273 -1.5578,2.078 -0.2892,2.169 0.5739,0.0412 1.774,-0.0412 2.4823,-0.0241 m 9.9051,-8.5314 c -0.6244,2.5769 -2.9982,4.7499 -6.9649,6.5552 -0.5905,-1.2814 -1.2647,-2.2624 -2.0244,-2.7474 -1.0634,-0.679 -2.4813,0.6055 -1.7593,1.6629 0.3798,0.5564 1.2452,0.8917 1.9039,1.205 m -2.226,-10.2928 c -0.5368,-0.6952 -0.5366,-1.3458 -0.0976,-1.9764 -0.8946,0.3701 -1.8774,0.4708 -2.7572,0.1464 -0.7653,-0.2822 -0.7586,-1.4888 0.0488,-1.3908 0.9568,0.1162 1.8871,0.1771 2.8304,0.0488 1.4313,-0.616 2.3911,0.1282 2.3912,2.0008 3.2776,-0.8295 6.2625,-0.6667 8.9548,0.7808 m -2.8548,1.5372 c 0.5693,0.0487 1.1061,0.4553 1.6104,1.22 m -0.0976,0.5856 c -1.7173,-1.1649 -4.8528,-2.2059 -7.548,-1.627 -0.7751,0.1663 -1.196,0.6352 -1.9076,0.8527 -0.483,0.1475 -0.9802,0.1139 -1.3048,-0.2749 M 87.31,131.5664 c 1.0307,-0.144 0.977,0.9453 0.5368,1.0004 -0.3269,0.0409 -0.8574,0.1144 -1.22,0.1464 -0.7696,0.0681 -1.0212,-0.8288 -0.3416,-0.976 0.2947,-0.0638 0.659,-0.1197 1.0248,-0.1708 z m -2.1228,-1.0492 c -0.5638,0.2265 -0.43,1.0659 0.2684,1.0736 0.6293,0.007 1.1001,-0.0589 1.7324,-0.1464 0.8099,-0.1121 0.4972,-1.1098 -0.2196,-1.1224 -0.6029,-0.0106 -1.5094,0.086 -1.7812,0.1952 z M 84.87,128.98 c -0.77,-0.0388 -0.8192,1.138 -0.0244,1.1712 0.6584,0.0275 1.3036,0.0811 1.952,-0.0244 0.6282,-0.1022 0.5297,-1.0896 -0.0732,-1.0736 -0.6221,0.0165 -1.2251,-0.0415 -1.8544,-0.0732 z"
   id="path44"
   inkscape:connector-curvature="0"
   style="fill:none;stroke:#000000;stroke-width:0.40000001" />
  <path
   id="глаз"
   class="fil2"
   d="m 107.944,118.484 c 0.4216,0 0.7634,0.3418 0.7634,0.7633 0,0.1374 -0.0366,0.2662 -0.1002,0.3775 -0.4636,-0.306 -0.9256,-0.5167 -1.376,-0.6506 0.1099,-0.2868 0.3875,-0.4902 0.7128,-0.4902 z"
   inkscape:connector-curvature="0"
   style="fill:#000000" />
 </g>
</svg>