<?xml version="1.0" encoding="UTF-8" standalone="no"?>
<!-- Creator: CorelDRAW -->

<svg
   xmlns:dc="http://purl.org/dc/elements/1.1/"
   xmlns:cc="http://creativecommons.org/ns#"
   xmlns:rdf="http://www.w3.org/1999/02/22-rdf-syntax-ns#"
   xmlns:svg="http://www.w3.org/2000/svg"
   xmlns="http://www.w3.org/2000/svg"
   xmlns:xlink="http://www.w3.org/1999/xlink"
   xmlns:sodipodi="http://sodipodi.sourceforge.net/DTD/sodipodi-0.dtd"
   xmlns:inkscape="http://www.inkscape.org/namespaces/inkscape"
   xml:space="preserve"
   width="300.0141"
   height="359.06879"
   style="fill-rule:evenodd"
   viewBox="0 0 84.670646 101.33719"
   id="svg2"
   version="1.1"
   inkscape:version="0.48.1 "
   sodipodi:docname="сморгонь.svg"><metadata
   id="metadata69"><rdf:RDF><cc:Work
       rdf:about=""><dc:format>image/svg+xml</dc:format><dc:type
         rdf:resource="http://purl.org/dc/dcmitype/StillImage" /></cc:Work></rdf:RDF></metadata><sodipodi:namedview
   pagecolor="#ffffff"
   bordercolor="#666666"
   borderopacity="1"
   objecttolerance="10"
   gridtolerance="10"
   guidetolerance="10"
   inkscape:pageopacity="0"
   inkscape:pageshadow="2"
   inkscape:window-width="1280"
   inkscape:window-height="750"
   id="namedview67"
   showgrid="false"
   fit-margin-top="0"
   fit-margin-left="0"
   fit-margin-right="0"
   fit-margin-bottom="0"
   inkscape:zoom="1.4813967"
   inkscape:cx="150.02243"
   inkscape:cy="179.55086"
   inkscape:window-x="-8"
   inkscape:window-y="-8"
   inkscape:window-maximized="1"
   inkscape:current-layer="svg2" />
 <defs
   id="defs4"><linearGradient
     y2="99.842102"
     x2="125.853"
     y1="98.802299"
     x1="131.847"
     gradientUnits="userSpaceOnUse"
     id="linearGradient5590">
   <stop
   id="stop5592"
   style="stop-color:#F3C70D"
   offset="0" />
   <stop
   id="stop5594"
   style="stop-color:#FFE600"
   offset="0.62779099" />
   <stop
   id="stop5596"
   style="stop-color:#FFE600"
   offset="1" />
  </linearGradient><style
     type="text/css"
     id="style6">
   
    .str5 {stroke:#1F1A17;stroke-width:0.5}
    .str4 {stroke:black;stroke-width:0.53}
    .str1 {stroke:black;stroke-width:0.535}
    .str6 {stroke:black;stroke-width:0.553}
    .str2 {stroke:black;stroke-width:0.7056}
    .str3 {stroke:black;stroke-width:0.7056;stroke-linecap:round}
    .str0 {stroke:black}
    .fil4 {fill:none}
    .fil6 {fill:black}
    .fil1 {fill:#3A88CD}
    .fil2 {fill:#DF212C}
    .fil0 {fill:white}
    .fil3 {fill:#2C2825;fill-rule:nonzero}
    .fil5 {fill:url(#id0)}
   
  </style><linearGradient
     id="id0"
     gradientUnits="userSpaceOnUse"
     x1="131.847"
     y1="98.802299"
     x2="125.853"
     y2="99.842102">
   <stop
   offset="0"
   style="stop-color:#F3C70D"
   id="stop9" />
   <stop
   offset="0.54902"
   style="stop-color:#FFE600"
   id="stop11" />
   <stop
   offset="1"
   style="stop-color:#FFE600"
   id="stop13" />
  </linearGradient><style
     id="style3834"
     type="text/css">
   
    .str0 {stroke:#FF6600;stroke-width:0.7056}
    .fil1 {fill:none}
    .fil0 {fill:#A90000}
   
  </style><linearGradient
     id="linearGradient5322"
     spreadMethod="pad"
     gradientTransform="matrix(2.06212,-22.34638,13.20042,1.21813,182.5322,497.7845)"
     gradientUnits="userSpaceOnUse"
     y2="0"
     x2="0.95"
     y1="0"
     x1="0.05"><stop
       id="stop5324"
       offset="0"
       style="stop-opacity:1;stop-color:#a90000" /><stop
       id="stop5326"
       offset="0.39"
       style="stop-opacity:1;stop-color:#c20000" /><stop
       id="stop5328"
       offset="1"
       style="stop-opacity:1;stop-color:#ff0000" /></linearGradient><linearGradient
     id="linearGradient5304"
     spreadMethod="pad"
     gradientTransform="matrix(-2.36143,26.81031,-17.04422,-1.50124,199.565,473.8484)"
     gradientUnits="userSpaceOnUse"
     y2="0"
     x2="0.94"
     y1="0"
     x1="0.06"><stop
       id="stop5306"
       offset="0"
       style="stop-opacity:1;stop-color:#ffcf00" /><stop
       id="stop5308"
       offset="1"
       style="stop-opacity:1;stop-color:#ffe600" /></linearGradient><linearGradient
     id="linearGradient5280"
     spreadMethod="pad"
     gradientTransform="matrix(4.3253,-9.05272,8.92611,4.26481,175.2565,522.6129)"
     gradientUnits="userSpaceOnUse"
     y2="0"
     x2="0.78"
     y1="0"
     x1="0.22"><stop
       id="stop5282"
       offset="0"
       style="stop-opacity:1;stop-color:#ffbb00" /><stop
       id="stop5284"
       offset="0.22"
       style="stop-opacity:1;stop-color:#e69900" /><stop
       id="stop5286"
       offset="0.46"
       style="stop-opacity:1;stop-color:#ffe600" /><stop
       id="stop5288"
       offset="0.71"
       style="stop-opacity:1;stop-color:#ffff00" /><stop
       id="stop5290"
       offset="1"
       style="stop-opacity:1;stop-color:#ffe600" /></linearGradient><linearGradient
     id="linearGradient5256"
     spreadMethod="pad"
     gradientTransform="matrix(7.2047,-6.40492,6.43374,7.23712,167.521,514.8369)"
     gradientUnits="userSpaceOnUse"
     y2="0"
     x2="0.72"
     y1="0"
     x1="0.28"><stop
       id="stop5258"
       offset="0"
       style="stop-opacity:1;stop-color:#ffbb00" /><stop
       id="stop5260"
       offset="0.22"
       style="stop-opacity:1;stop-color:#e69900" /><stop
       id="stop5262"
       offset="0.46"
       style="stop-opacity:1;stop-color:#ffe600" /><stop
       id="stop5264"
       offset="0.71"
       style="stop-opacity:1;stop-color:#ffff00" /><stop
       id="stop5266"
       offset="1"
       style="stop-opacity:1;stop-color:#ffe600" /></linearGradient><linearGradient
     id="linearGradient5232"
     spreadMethod="pad"
     gradientTransform="matrix(18.45344,19.69878,-19.41557,18.18814,174.4075,473.22)"
     gradientUnits="userSpaceOnUse"
     y2="0"
     x2="0.75"
     y1="0"
     x1="0.25"><stop
       id="stop5234"
       offset="0"
       style="stop-opacity:1;stop-color:#ffbb00" /><stop
       id="stop5236"
       offset="0.22"
       style="stop-opacity:1;stop-color:#e69900" /><stop
       id="stop5238"
       offset="0.46"
       style="stop-opacity:1;stop-color:#ffe600" /><stop
       id="stop5240"
       offset="0.71"
       style="stop-opacity:1;stop-color:#ffff00" /><stop
       id="stop5242"
       offset="1"
       style="stop-opacity:1;stop-color:#ffe600" /></linearGradient><linearGradient
     id="linearGradient5212"
     spreadMethod="pad"
     gradientTransform="matrix(9.14568,-13.01899,13.38641,9.40378,168.0245,520.5067)"
     gradientUnits="userSpaceOnUse"
     y2="0"
     x2="0.67"
     y1="0"
     x1="0.33"><stop
       id="stop5214"
       offset="0"
       style="stop-opacity:1;stop-color:#000000" /><stop
       id="stop5216"
       offset="0.45"
       style="stop-opacity:1;stop-color:#4c4c4c" /><stop
       id="stop5218"
       offset="1"
       style="stop-opacity:1;stop-color:#191919" /></linearGradient><radialGradient
     id="radialGradient5188"
     spreadMethod="pad"
     gradientTransform="matrix(32.61628,0,0,32.61628,183.5929,505.273)"
     gradientUnits="userSpaceOnUse"
     r="0.84"
     cy="0"
     cx="0"
     fy="0"
     fx="0"><stop
       id="stop5190"
       offset="0"
       style="stop-opacity:1;stop-color:#000000" /><stop
       id="stop5192"
       offset="0.44"
       style="stop-opacity:1;stop-color:#4c4c4c" /><stop
       id="stop5194"
       offset="0.44"
       style="stop-opacity:1;stop-color:#4c4c4c" /><stop
       id="stop5196"
       offset="0.65"
       style="stop-opacity:1;stop-color:#000000" /><stop
       id="stop5198"
       offset="1"
       style="stop-opacity:1;stop-color:#000000" /></radialGradient><radialGradient
     id="radialGradient5164"
     spreadMethod="pad"
     gradientTransform="matrix(21.12605,0,0,21.12605,184.6984,504.5411)"
     gradientUnits="userSpaceOnUse"
     r="1.47"
     cy="0"
     cx="0"
     fy="0"
     fx="0"><stop
       id="stop5166"
       offset="0"
       style="stop-opacity:1;stop-color:#000000" /><stop
       id="stop5168"
       offset="0.44"
       style="stop-opacity:1;stop-color:#4c4c4c" /><stop
       id="stop5170"
       offset="0.44"
       style="stop-opacity:1;stop-color:#4c4c4c" /><stop
       id="stop5172"
       offset="0.65"
       style="stop-opacity:1;stop-color:#000000" /><stop
       id="stop5174"
       offset="1"
       style="stop-opacity:1;stop-color:#000000" /></radialGradient><linearGradient
     id="linearGradient5126"
     spreadMethod="pad"
     gradientTransform="matrix(-22.43539,2.79527,-1.74325,-13.99163,161.7684,535.7123)"
     gradientUnits="userSpaceOnUse"
     y2="0"
     x2="0.95"
     y1="0"
     x1="0.05"><stop
       id="stop5128"
       offset="0"
       style="stop-opacity:1;stop-color:#a90000" /><stop
       id="stop5130"
       offset="0.39"
       style="stop-opacity:1;stop-color:#c20000" /><stop
       id="stop5132"
       offset="1"
       style="stop-opacity:1;stop-color:#ff0000" /></linearGradient><linearGradient
     id="linearGradient5108"
     spreadMethod="pad"
     gradientTransform="matrix(27.17793,-3.50121,2.29938,17.84881,134.3038,523.3887)"
     gradientUnits="userSpaceOnUse"
     y2="0"
     x2="0.93"
     y1="0"
     x1="0.07"><stop
       id="stop5110"
       offset="0"
       style="stop-opacity:1;stop-color:#ffcf00" /><stop
       id="stop5112"
       offset="1"
       style="stop-opacity:1;stop-color:#ffe600" /></linearGradient><linearGradient
     id="linearGradient5084"
     spreadMethod="pad"
     gradientTransform="matrix(-7.94098,-1.85723,1.91146,-8.17284,186.7,536.146)"
     gradientUnits="userSpaceOnUse"
     y2="0"
     x2="0.84"
     y1="0"
     x1="0.16"><stop
       id="stop5086"
       offset="0"
       style="stop-opacity:1;stop-color:#ffbb00" /><stop
       id="stop5088"
       offset="0.22"
       style="stop-opacity:1;stop-color:#e69900" /><stop
       id="stop5090"
       offset="0.46"
       style="stop-opacity:1;stop-color:#ffe600" /><stop
       id="stop5092"
       offset="0.71"
       style="stop-opacity:1;stop-color:#ffff00" /><stop
       id="stop5094"
       offset="1"
       style="stop-opacity:1;stop-color:#ffe600" /></linearGradient><linearGradient
     id="linearGradient5060"
     spreadMethod="pad"
     gradientTransform="matrix(-7.98586,-5.79969,5.72957,-7.8893,181.5792,546.4071)"
     gradientUnits="userSpaceOnUse"
     y2="0"
     x2="0.72"
     y1="0"
     x1="0.28"><stop
       id="stop5062"
       offset="0"
       style="stop-opacity:1;stop-color:#ffbb00" /><stop
       id="stop5064"
       offset="0.22"
       style="stop-opacity:1;stop-color:#e69900" /><stop
       id="stop5066"
       offset="0.46"
       style="stop-opacity:1;stop-color:#ffe600" /><stop
       id="stop5068"
       offset="0.71"
       style="stop-opacity:1;stop-color:#ffff00" /><stop
       id="stop5070"
       offset="1"
       style="stop-opacity:1;stop-color:#ffe600" /></linearGradient><linearGradient
     id="linearGradient5036"
     spreadMethod="pad"
     gradientTransform="matrix(15.14808,-22.04452,23.66867,16.26413,138.5782,547.8049)"
     gradientUnits="userSpaceOnUse"
     y2="0"
     x2="0.75"
     y1="0"
     x1="0.25"><stop
       id="stop5038"
       offset="0"
       style="stop-opacity:1;stop-color:#ffbb00" /><stop
       id="stop5040"
       offset="0.22"
       style="stop-opacity:1;stop-color:#e69900" /><stop
       id="stop5042"
       offset="0.46"
       style="stop-opacity:1;stop-color:#ffe600" /><stop
       id="stop5044"
       offset="0.71"
       style="stop-opacity:1;stop-color:#ffff00" /><stop
       id="stop5046"
       offset="1"
       style="stop-opacity:1;stop-color:#ffe600" /></linearGradient><linearGradient
     id="linearGradient5016"
     spreadMethod="pad"
     gradientTransform="matrix(-11.89087,-4.97729,5.8657,-14.01332,185.7688,543.4835)"
     gradientUnits="userSpaceOnUse"
     y2="0"
     x2="0.71"
     y1="0"
     x1="0.29"><stop
       id="stop5018"
       offset="0"
       style="stop-opacity:1;stop-color:#000000" /><stop
       id="stop5020"
       offset="0.45"
       style="stop-opacity:1;stop-color:#4c4c4c" /><stop
       id="stop5022"
       offset="1"
       style="stop-opacity:1;stop-color:#191919" /></linearGradient><radialGradient
     id="radialGradient4992"
     spreadMethod="pad"
     gradientTransform="matrix(31.7418,0,0,31.7418,168.7782,532.6115)"
     gradientUnits="userSpaceOnUse"
     r="0.82"
     cy="0"
     cx="0"
     fy="0"
     fx="0"><stop
       id="stop4994"
       offset="0"
       style="stop-opacity:1;stop-color:#000000" /><stop
       id="stop4996"
       offset="0.44"
       style="stop-opacity:1;stop-color:#4c4c4c" /><stop
       id="stop4998"
       offset="0.44"
       style="stop-opacity:1;stop-color:#4c4c4c" /><stop
       id="stop5000"
       offset="0.65"
       style="stop-opacity:1;stop-color:#000000" /><stop
       id="stop5002"
       offset="1"
       style="stop-opacity:1;stop-color:#000000" /></radialGradient><radialGradient
     id="radialGradient4968"
     spreadMethod="pad"
     gradientTransform="matrix(22.12129,0,0,22.12129,167.6849,531.7608)"
     gradientUnits="userSpaceOnUse"
     r="1.47"
     cy="0"
     cx="0"
     fy="0"
     fx="0"><stop
       id="stop4970"
       offset="0"
       style="stop-opacity:1;stop-color:#000000" /><stop
       id="stop4972"
       offset="0.44"
       style="stop-opacity:1;stop-color:#4c4c4c" /><stop
       id="stop4974"
       offset="0.44"
       style="stop-opacity:1;stop-color:#4c4c4c" /><stop
       id="stop4976"
       offset="0.65"
       style="stop-opacity:1;stop-color:#000000" /><stop
       id="stop4978"
       offset="1"
       style="stop-opacity:1;stop-color:#000000" /></radialGradient><linearGradient
     id="linearGradient4930"
     spreadMethod="pad"
     gradientTransform="matrix(14.3527,19.37185,-18.97805,14.06093,211.0918,536.2843)"
     gradientUnits="userSpaceOnUse"
     y2="0"
     x2="0.92"
     y1="0"
     x1="0.08"><stop
       id="stop4932"
       offset="0"
       style="stop-opacity:1;stop-color:#a90000" /><stop
       id="stop4934"
       offset="0.39"
       style="stop-opacity:1;stop-color:#c20000" /><stop
       id="stop4936"
       offset="1"
       style="stop-opacity:1;stop-color:#ff0000" /></linearGradient><linearGradient
     id="linearGradient4912"
     spreadMethod="pad"
     gradientTransform="matrix(-17.69997,-23.68273,23.08375,-17.25231,206.7902,573.8023)"
     gradientUnits="userSpaceOnUse"
     y2="0"
     x2="0.9"
     y1="0"
     x1="0.1"><stop
       id="stop4914"
       offset="0"
       style="stop-opacity:1;stop-color:#ffcf00" /><stop
       id="stop4916"
       offset="1"
       style="stop-opacity:1;stop-color:#ffe600" /></linearGradient><linearGradient
     id="linearGradient4888"
     spreadMethod="pad"
     gradientTransform="matrix(2.89333,9.91418,-9.27526,2.70687,196.145,516.5731)"
     gradientUnits="userSpaceOnUse"
     y2="0"
     x2="0.77"
     y1="0"
     x1="0.23"><stop
       id="stop4890"
       offset="0"
       style="stop-opacity:1;stop-color:#ffbb00" /><stop
       id="stop4892"
       offset="0.22"
       style="stop-opacity:1;stop-color:#e69900" /><stop
       id="stop4894"
       offset="0.46"
       style="stop-opacity:1;stop-color:#ffe600" /><stop
       id="stop4896"
       offset="0.71"
       style="stop-opacity:1;stop-color:#ffff00" /><stop
       id="stop4898"
       offset="1"
       style="stop-opacity:1;stop-color:#ffe600" /></linearGradient><linearGradient
     id="linearGradient4864"
     spreadMethod="pad"
     gradientTransform="matrix(-0.80136,6.97297,-6.55872,-0.75376,205.566,518.4482)"
     gradientUnits="userSpaceOnUse"
     y2="0"
     x2="0.81"
     y1="0"
     x1="0.19"><stop
       id="stop4866"
       offset="0"
       style="stop-opacity:1;stop-color:#ffbb00" /><stop
       id="stop4868"
       offset="0.22"
       style="stop-opacity:1;stop-color:#e69900" /><stop
       id="stop4870"
       offset="0.46"
       style="stop-opacity:1;stop-color:#ffe600" /><stop
       id="stop4872"
       offset="0.71"
       style="stop-opacity:1;stop-color:#ffff00" /><stop
       id="stop4874"
       offset="1"
       style="stop-opacity:1;stop-color:#ffe600" /></linearGradient><linearGradient
     id="linearGradient4840"
     spreadMethod="pad"
     gradientTransform="matrix(-18.02268,-1.59653,1.95623,-22.08329,225.6202,550.3323)"
     gradientUnits="userSpaceOnUse"
     y2="0"
     x2="0.86"
     y1="0"
     x1="0.14"><stop
       id="stop4842"
       offset="0"
       style="stop-opacity:1;stop-color:#ffbb00" /><stop
       id="stop4844"
       offset="0.22"
       style="stop-opacity:1;stop-color:#e69900" /><stop
       id="stop4846"
       offset="0.46"
       style="stop-opacity:1;stop-color:#ffe600" /><stop
       id="stop4848"
       offset="0.71"
       style="stop-opacity:1;stop-color:#ffff00" /><stop
       id="stop4850"
       offset="1"
       style="stop-opacity:1;stop-color:#ffe600" /></linearGradient><linearGradient
     id="linearGradient4820"
     spreadMethod="pad"
     gradientTransform="matrix(1.31601,11.16948,-14.40665,1.69741,202.4439,515.8553)"
     gradientUnits="userSpaceOnUse"
     y2="0"
     x2="0.74"
     y1="0"
     x1="0.26"><stop
       id="stop4822"
       offset="0"
       style="stop-opacity:1;stop-color:#000000" /><stop
       id="stop4824"
       offset="0.45"
       style="stop-opacity:1;stop-color:#4c4c4c" /><stop
       id="stop4826"
       offset="1"
       style="stop-opacity:1;stop-color:#191919" /></linearGradient><radialGradient
     id="radialGradient4796"
     spreadMethod="pad"
     gradientTransform="matrix(23.95219,0,0,23.95219,201.6272,535.2568)"
     gradientUnits="userSpaceOnUse"
     r="1.14"
     cy="0"
     cx="0"
     fy="0"
     fx="0"><stop
       id="stop4798"
       offset="0"
       style="stop-opacity:1;stop-color:#000000" /><stop
       id="stop4800"
       offset="0.44"
       style="stop-opacity:1;stop-color:#4c4c4c" /><stop
       id="stop4802"
       offset="0.44"
       style="stop-opacity:1;stop-color:#4c4c4c" /><stop
       id="stop4804"
       offset="0.65"
       style="stop-opacity:1;stop-color:#000000" /><stop
       id="stop4806"
       offset="1"
       style="stop-opacity:1;stop-color:#000000" /></radialGradient><radialGradient
     id="radialGradient4772"
     spreadMethod="pad"
     gradientTransform="matrix(20.74422,0,0,20.74422,201.2119,536.5052)"
     gradientUnits="userSpaceOnUse"
     r="1.53"
     cy="0"
     cx="0"
     fy="0"
     fx="0"><stop
       id="stop4774"
       offset="0"
       style="stop-opacity:1;stop-color:#000000" /><stop
       id="stop4776"
       offset="0.44"
       style="stop-opacity:1;stop-color:#4c4c4c" /><stop
       id="stop4778"
       offset="0.44"
       style="stop-opacity:1;stop-color:#4c4c4c" /><stop
       id="stop4780"
       offset="0.65"
       style="stop-opacity:1;stop-color:#000000" /><stop
       id="stop4782"
       offset="1"
       style="stop-opacity:1;stop-color:#000000" /></radialGradient><linearGradient
     inkscape:collect="always"
     xlink:href="#linearGradient5590"
     id="linearGradient5588"
     gradientUnits="userSpaceOnUse"
     x1="143.16818"
     y1="97.101692"
     x2="130.27458"
     y2="99.307625" /></defs>
 <path
   style="fill:#a90000"
   inkscape:connector-curvature="0"
   class="fil0"
   d="m 62.589663,48.414047 c 0.8283,0 1.5,0.6717 1.5,1.5 l 0,1.4998 c 0,0.8283 -0.6717,1.5 -1.5,1.5 l -1.5,0 0,-4.4998 1.5,0 z m 0,5.9998 c 1.6566,0 3,-1.3434 3,-3 l 0,-1.4998 c 0,-1.6566 -1.3434,-3 -3,-3 l -3,0 0,7.4998 3,0 z m -6,-7.4998 1.5,0 0,7.4998 -1.5,0 0,-7.4998 z m -3,0 1.5,0 0,7.4998 -1.5,0 -3,-4.7086 0,4.7086 -1.5,0 0,-7.4998 1.5,0 3,4.7086 0,-4.7086 z m -22.5,1e-4 4.5,0 0,1.5 -3,0 0,1.4999 3,0 0,1.5 -3,0 0,1.4999 3,0 0,1.5 -4.5,0 0,-7.4998 z m -6,-2e-4 1.5,0 0,6 3,0 0,1.5 -4.5,0 0,-7.5 z m 15.7504,6 1.4996,0 c 1.2424,0 2.25,-1.0076 2.25,-2.25 0,-1.2424 -1.0263,-2.2457 -2.25,-2.25 l -1.4996,0 0,1.5 1.4996,0 c 0.4141,0 0.75,0.3359 0.75,0.75 0,0.4141 -0.3359,0.75 -0.75,0.75 l -1.4996,0 0,1.5 z m 1.4996,-7.5 c 2.899,0 5.25,2.351 5.25,5.25 0,2.899 -2.351,5.25 -5.25,5.25 -2.899,0 -5.25,-2.351 -5.25,-5.25 0,-2.899 2.351,-5.25 5.25,-5.25 z m 0,1.5 c 2.0707,0 3.75,1.6793 3.75,3.75 0,2.0707 -1.6793,3.75 -3.75,3.75 -2.0707,0 -3.75,-1.6793 -3.75,-3.75 0,-2.0707 1.6793,-3.75 3.75,-3.75 z"
   id="path3838" /><g
   id="Слой_x0020_1"
   transform="matrix(0.61161639,0,0,0.61161639,-21.731496,-39.602161)">
  <metadata
   id="CorelCorpID_0Corel-Layer" />
  <path
   class="fil0 str0"
   d="m 36.0417,173.45 c 0.1614,1.3774 0.3676,2.7426 0.6239,4.0922 5.6515,29.758 33.9917,52.3911 68.0916,52.3911 34.0991,0 62.4388,-22.6321 68.0912,-52.3891 0.2565,-1.3502 0.4627,-2.7161 0.6242,-4.0942 l 0,-108.211 -137.431,0 0,108.211 z"
   id="path17"
   inkscape:connector-curvature="0"
   style="fill:#ffffff;stroke:#000000" />
  <path
   class="fil1 str1"
   d="m 46.5969,119.9 c 0.0399,0.3186 0.0908,0.6344 0.1541,0.9465 1.3961,6.8828 8.3969,12.1176 16.8205,12.1176 8.4235,0 15.4242,-5.2346 16.8205,-12.1171 0.0633,-0.3123 0.1143,-0.6282 0.1542,-0.947 l 0,-25.0281 -33.9493,0 0,25.0281 z"
   id="path19"
   inkscape:connector-curvature="0"
   style="fill:#3a88cd;stroke:#000000;stroke-width:0.53500003" />
  <path
   class="fil2 str1"
   d="m 43.3715,195.737 c 0.3698,0.6527 0.7537,1.2975 1.1471,1.9367 l 1.9108,0 2.6411,2.4629 -1.7831,1.6628 c 0.3828,0.5234 0.7764,1.0397 1.1755,1.552 l 2.0275,-1.8907 7.6647,7.1475 -2.6246,2.4475 c 0.4741,0.4406 0.9553,0.8745 1.4432,1.3023 l 2.6013,-2.4258 7.6648,7.1475 -1.7569,1.6383 c 0.5646,0.3578 1.1332,0.711 1.7098,1.0537 l 1.4669,-1.3679 5.2266,4.8738 c 1.7452,0.7997 3.5322,1.5344 5.3577,2.1993 l 7.585,-7.0731 7.6647,7.1475 -3.3738,3.1461 c 0.7983,0.1465 1.6012,0.2808 2.4092,0.4017 l 2.3846,-2.2237 3.0389,2.8338 c 1.0017,0.0763 2.0092,0.1334 3.0225,0.1704 l -4.6415,-4.3283 7.6647,-7.1474 7.6647,7.1474 -4.6224,4.3105 c 1.0206,-0.0438 2.0358,-0.107 3.0444,-0.1908 l 2.9979,-2.7956 2.3153,2.159 c 0.8045,-0.1251 1.6055,-0.2595 2.4003,-0.4099 l -3.2956,-3.0732 7.6648,-7.1475 7.4478,6.9453 c 2.045,-0.757 4.0411,-1.6015 5.9837,-2.5273 l 4.7377,-4.418 1.2763,1.1901 c 0.5743,-0.3452 1.1421,-0.6985 1.7043,-1.0587 l -1.5608,-1.4555 7.6648,-7.1475 2.3683,2.2085 c 0.4855,-0.43 0.9619,-0.8686 1.4335,-1.3114 l -2.3819,-2.2211 7.6647,-7.1475 1.7484,1.6304 c 0.3968,-0.5148 0.7853,-1.0352 1.1656,-1.5612 l -1.4941,-1.3933 2.6411,-2.4629 1.4284,0 c 0.3936,-0.6392 0.7772,-1.284 1.147,-1.9367 l -122.771,0 z m 117.356,1.9367 -2.4424,0 1.2212,1.1388 1.2212,-1.1388 z m -5.2822,0 -10.0472,0 -2.6411,2.4629 7.6646,7.1475 7.6648,-7.1475 -2.6411,-2.4629 z m -12.8871,0 -2.4424,0 1.2212,1.1388 1.2212,-1.1388 z m -5.2821,0 -10.0473,0 -2.6411,2.4629 7.6647,7.1475 7.6648,-7.1475 -2.6411,-2.4629 z m -12.8871,0 -2.4424,0 1.2212,1.1388 1.2212,-1.1388 z m -5.2822,0 -10.0473,0 -2.6411,2.4629 7.6647,7.1475 7.6648,-7.1475 -2.6411,-2.4629 z m -12.8871,0 -2.4424,0 1.2212,1.1388 1.2212,-1.1388 z m -5.2821,0 -10.0474,0 -2.6411,2.4629 7.6648,7.1475 7.6648,-7.1475 -2.6411,-2.4629 z m -12.8872,0 -2.4424,0 1.2212,1.1388 1.2212,-1.1388 z m -5.2822,0 -10.0472,0 -2.6411,2.4629 7.6647,7.1475 7.6647,-7.1475 -2.6411,-2.4629 z m -12.887,0 -2.4424,0 1.2212,1.1388 1.2212,-1.1388 z m -5.2822,0 -10.0473,0 -2.6411,2.4629 7.6648,7.1475 7.6647,-7.1475 -2.6411,-2.4629 z m -12.8871,0 -2.4424,0 1.2212,1.1388 1.2212,-1.1388 z m 89.6252,3.787 7.6647,7.1474 -7.6648,7.1475 -7.6647,-7.1474 7.6648,-7.1475 z m -72.6772,0 -7.6647,7.1474 7.6648,7.1475 7.6647,-7.1474 -7.6648,-7.1475 z m 18.1693,0 -7.6647,7.1474 7.6647,7.1476 7.6647,-7.1475 -7.6647,-7.1475 z m -9.0846,8.4715 -7.6647,7.1475 7.6647,7.1475 7.6647,-7.1474 -7.6647,-7.1476 z m 27.2539,-8.4716 -7.6648,7.1475 7.6648,7.1475 7.6648,-7.1475 -7.6648,-7.1475 z m -9.0847,8.4716 -7.6647,7.1475 7.6648,7.1475 7.6647,-7.1474 -7.6648,-7.1476 z m 27.254,-8.4715 -7.6647,7.1475 7.6647,7.1475 7.6647,-7.1476 -7.6647,-7.1474 z m -9.0846,8.4715 -7.6648,7.1476 7.6647,7.1474 7.6648,-7.1475 -7.6647,-7.1475 z m 18.1693,1e-4 -7.6648,7.1475 7.6647,7.1474 7.6647,-7.1475 -7.6646,-7.1474 z"
   id="path21"
   inkscape:connector-curvature="0"
   style="fill:#df212c;stroke:#000000;stroke-width:0.53500003" />
  <path
   class="fil2 str1"
   d="m 108.006,216.111 -2.0396,0 0,-1.7982 -1.9367,0 0,1.7982 -2.0397,0 0,1.9367 2.0397,0 0,1.7981 1.9367,0 0,-1.7981 2.0396,0 0,-1.9367 z m 0,-16.9431 -2.0396,0 0,-1.7982 -1.9367,0 0,1.7982 -2.0397,0 0,1.9367 2.0397,0 0,1.7981 1.9367,0 0,-1.7981 2.0396,0 0,-1.9367 z m -18.1692,16.9431 -2.0396,0 0,-1.7982 -1.9367,0 0,1.7982 -2.0397,0 0,1.9367 2.0397,0 0,1.7981 1.9367,0 0,-1.7981 2.0396,0 0,-1.9367 z m 36.3386,0 -2.0396,0 0,-1.7982 -1.9367,0 0,1.7982 -2.0397,0 0,1.9367 2.0397,0 0,1.7981 1.9367,0 0,-1.7981 2.0396,0 0,-1.9367 z m 18.1692,0 -2.0396,0 0,-1.7982 -1.9367,0 0,1.7982 -2.0397,0 0,1.9367 2.0397,0 0,1.7981 1.8241,0 0.1126,-0.066 0,-1.7321 2.0396,0 0,-1.9367 z m -54.5078,-16.9431 -2.0396,0 0,-1.7982 -1.9367,0 0,1.7982 -2.0397,0 0,1.9367 2.0397,0 0,1.7981 1.9367,0 0,-1.7981 2.0396,0 0,-1.9367 z m 36.3386,0 -2.0396,0 0,-1.7982 -1.9367,0 0,1.7982 -2.0397,0 0,1.9367 2.0397,0 0,1.7981 1.9367,0 0,-1.7981 2.0396,0 0,-1.9367 z m 18.1692,0 -2.0396,0 0,-1.7982 -1.9367,0 0,1.7982 -2.0397,0 0,1.9367 2.0397,0 0,1.7981 1.9367,0 0,-1.7981 2.0396,0 0,-1.9367 z m -72.677,0 -2.0396,0 0,-1.7982 -1.9367,0 0,1.7982 -2.0397,0 0,1.9367 2.0397,0 0,1.7981 1.9367,0 0,-1.7981 2.0396,0 0,-1.9367 z m -18.1693,0 -2.0396,0 0,-1.7982 -1.9367,0 0,1.7982 -2.0397,0 0,1.9367 2.0397,0 0,1.7981 1.9367,0 0,-1.7981 2.0396,0 0,-1.9367 z m 109.016,0 -2.0396,0 0,-1.7982 -1.9367,0 0,1.7982 -2.0397,0 0,1.9367 2.0397,0 0,1.7981 1.9367,0 0,-1.7981 2.0396,0 0,-1.9367 z m -90.8463,16.9431 -2.0396,0 0,-1.7982 -1.9367,0 0,1.7982 -2.0397,0 0,1.9367 2.0397,0 0,1.7981 1.9367,0 0,-1.7981 2.0396,0 0,-1.9367 z m -9.0846,-8.4716 -2.0396,0 0,-1.7982 -1.9367,0 0,1.7982 -2.0397,0 0,1.9367 2.0397,0 0,1.7981 1.9367,0 0,-1.7981 2.0396,0 0,-1.9367 z m 18.1692,0 -2.0396,0 0,-1.7982 -1.9367,0 0,1.7982 -2.0397,0 0,1.9367 2.0397,0 0,1.7981 1.9367,0 0,-1.7981 2.0396,0 0,-1.9367 z m 18.1693,0 -2.0396,0 0,-1.7982 -1.9367,0 0,1.7982 -2.0397,0 0,1.9367 2.0397,0 0,1.7981 1.9367,0 0,-1.7981 2.0396,0 0,-1.9367 z m 18.1692,0 -2.0396,0 0,-1.7982 -1.9367,0 0,1.7982 -2.0397,0 0,1.9367 2.0397,0 0,1.7981 1.9367,0 0,-1.7981 2.0396,0 0,-1.9367 z m 18.1693,0 -2.0396,0 0,-1.7982 -1.9367,0 0,1.7982 -2.0397,0 0,1.9367 2.0397,0 0,1.7981 1.9367,0 0,-1.7981 2.0396,0 0,-1.9367 z m 18.1693,0 -2.0396,0 0,-1.7982 -1.9367,0 0,1.7982 -2.0397,0 0,1.9367 2.0397,0 0,1.7981 1.9367,0 0,-1.7981 2.0396,0 0,-1.9367 z m -72.6771,16.9431 -2.0396,0 0,-1.7982 -1.9367,0 0,1.741 c 1.3047,0.53 2.6307,1.0239 3.9763,1.4807 l 0,-1.4235 z m 18.1693,0 -2.0396,0 0,-1.7982 -1.9367,0 0,1.7982 -2.0397,0 0,1.9367 2.0397,0 0,1.7981 1.9367,0 0,-1.7981 2.0396,0 0,-1.9367 z m 18.1692,0 -2.0396,0 0,-1.7982 -1.9367,0 0,1.7982 -2.0397,0 0,1.9367 2.0397,0 0,1.7981 1.9367,0 0,-1.7981 2.0396,0 0,-1.9367 z m 16.1297,-0.2536 0,-1.5446 -1.9367,0 0,1.7982 -2.0397,0 0,1.2599 c 1.3461,-0.4675 2.672,-0.9726 3.9764,-1.5135 z"
   id="path23"
   inkscape:connector-curvature="0"
   style="fill:#df212c;stroke:#000000;stroke-width:0.53500003" />
  <path
   class="fil3"
   d="m 116.112,93.7916 -0.0862,-0.0244 -0.0151,5e-4 c -4.3727,0.1503 -8.8435,0.0218 -13.225,-0.1041 l -0.6571,-0.0189 c -0.5388,0.087 -0.9498,0.045 -1.2874,-0.0705 -0.3381,-0.1158 -0.6015,-0.3049 -0.8458,-0.5122 -1.987,-1.2051 -3.0488,-3.1246 -4.1783,-5.1666 l -0.1094,-0.1979 c -0.7037,-0.2731 -1.0935,-0.7359 -1.1979,-1.2119 -0.0495,-0.2257 -0.0349,-0.4545 0.0406,-0.6676 0.0753,-0.2125 0.2116,-0.4096 0.4053,-0.5724 0.4688,-0.3941 1.2767,-0.5877 2.376,-0.3145 1.0488,-0.5325 2.0953,-1.0266 3.1415,-1.5201 2.9735,-1.4029 5.9474,-2.8061 8.919,-5.0726 -0.0167,-0.3541 -0.0113,-0.6863 0.0147,-0.9955 0.0263,-0.3121 0.0739,-0.6026 0.1408,-0.8711 0.345,-1.3828 1.2055,-2.1748 2.3631,-2.3867 l 1e-4,0 0.2286,-0.0411 0,-1e-4 c 0.7156,-0.1277 1.2377,-0.221 1.9795,-0.6795 l -1e-4,-1e-4 0.002,-0.001 2e-4,0 c 0.2372,-0.1464 0.5461,-0.2851 0.9151,-0.4125 0.3682,-0.1271 0.7969,-0.2436 1.2744,-0.3458 0.9424,-0.2019 2.0783,-0.3495 3.3222,-0.4196 -0.0416,-1.2502 0.5611,-2.1977 1.4339,-2.755 0.4488,-0.2866 0.9693,-0.47 1.5096,-0.5379 0.5403,-0.0679 1.1009,-0.0208 1.6305,0.1533 1.1069,0.364 2.0788,1.2821 2.4484,2.8617 1.1343,-1.1055 2.4724,-1.6238 3.6944,-1.6223 0.6961,8e-4 1.3551,0.1703 1.9171,0.4956 0.5626,0.3256 1.0286,0.8075 1.3385,1.4326 0.587,1.1839 0.6141,2.8821 -0.3213,5.0071 0.7911,0.721 1.3306,1.5503 1.6179,2.4874 0.288,0.9394 0.323,1.9868 0.105,3.1415 1.4668,1.3861 2.3311,3.1594 2.6874,5.2584 0.3567,2.1016 0.2041,4.5302 -0.3624,7.2243 l 0.3001,6.9013 c 0.7757,3.9433 0.9602,7.7689 0.4169,11.449 -0.5431,3.6786 -1.8137,7.2123 -3.9476,10.5731 -0.2245,2.2172 -0.286,4.3875 -0.1993,6.515 0.0867,2.1304 0.3221,4.2181 0.691,6.2677 0.6495,3.6086 1.7782,7.0793 3.2174,10.4675 1.4396,3.3893 3.1898,6.6959 5.0819,9.9758 l 6e-4,10e-4 3e-4,6e-4 c 0.1093,0.1896 0.2276,0.4273 0.3573,0.6879 0.3219,0.647 0.7157,1.4383 1.1899,1.9426 0.5105,0.5428 1.1188,0.7519 1.8393,0.0743 l 0.0518,-0.0487 0.0117,0.0701 c 0.2724,1.6245 -0.2334,2.5388 -1.1837,3.047 -0.9355,0.5003 -2.3014,0.6021 -3.777,0.602 l -2e-4,10e-4 c -0.0424,0.3253 -0.0794,0.6543 -0.1162,0.983 -0.1914,1.7073 -0.3832,3.415 -1.3868,4.8561 -0.6169,1.0966 -1.1245,2.1929 -1.1959,3.2863 -0.0713,1.0907 0.292,2.1824 1.4155,3.2749 l 0.003,0.002 0.001,0.002 5.7825,7.8852 c 1.2733,1.5634 1.9521,3.0603 1.6801,4.4504 -0.2721,1.3901 -1.4947,2.6686 -4.0232,3.793 l -0.003,0.001 c -1.7041,0.6113 -3.4083,1.1092 -5.1121,1.4589 -1.7045,0.3498 -3.4095,0.5518 -5.114,0.5711 -1.4097,0.016 -2.8172,0.3471 -4.2262,0.8549 -1.4107,0.5084 -2.824,1.1946 -4.2431,1.9196 -1.0141,0.5181 -2.0292,0.7082 -3.0477,0.6831 -1.0168,-0.025 -2.0374,-0.2646 -3.0646,-0.6058 -1.9815,-0.6582 -3.642,-1.4724 -4.8898,-2.4773 -1.251,-1.0074 -2.0883,-2.2069 -2.4201,-3.6332 l 0,-1e-4 c -0.0509,-0.2189 -0.0694,-0.4196 -0.0592,-0.6023 0.0213,-0.381 0.1676,-0.684 0.4055,-0.9142 0.2364,-0.2289 0.5628,-0.3852 0.9465,-0.4745 0.3443,-0.08 0.7356,-0.1064 1.1496,-0.0832 l 0.1109,0.006 c 2.8616,0.161 5.774,0.3248 8.5913,-0.2309 2.5321,-0.4995 4.2759,-1.2989 5.2162,-2.1678 0.4305,-0.3978 0.6918,-0.8095 0.7818,-1.2125 0.0895,-0.4 0.0102,-0.7931 -0.2393,-1.1564 -0.3302,-0.4809 -0.9578,-0.9113 -1.8858,-1.2407 -6.5475,-2.3239 -10.1974,-5.3639 -12.0943,-9.3618 -1.2747,-2.6864 -1.7565,-5.804 -1.7939,-9.4264 -1.9929,1.0988 -3.7191,2.4326 -4.8477,4.2911 -1.148,1.8902 -1.6793,4.3261 -1.2472,7.6135 0.239,1.1359 0.2208,2.2087 -0.3854,3.1366 -0.6047,0.9255 -1.7941,1.704 -3.8963,2.2518 -1.2959,0.469 -2.5926,0.9031 -3.8882,1.2826 -1.2976,0.3802 -2.5945,0.7063 -3.8886,0.9589 l -3e-4,0 -0.0094,0.002 c -1.068,0.2077 -2.3514,0.3223 -3.6868,0.4414 -2.5928,0.2314 -5.3836,0.4805 -7.1737,1.4661 -1.421,0.7824 -2.5016,1.3342 -3.5757,1.6595 -1.0757,0.3258 -2.1443,0.4246 -3.539,0.3006 -2.9418,-0.2615 -4.8043,-1.6304 -5.5587,-3.0338 -0.2826,-0.5256 -0.4103,-1.0569 -0.3817,-1.5375 0.0287,-0.4834 0.2153,-0.916 0.5609,-1.2412 0.6214,-0.5848 1.7573,-0.8205 3.4136,-0.3758 0.5583,-0.33 1.1161,-0.6515 1.6726,-0.9638 0.563,-0.316 1.1268,-0.6241 1.6901,-0.9232 2.8992,-1.5397 5.8058,-2.8572 8.6308,-3.8901 0.9811,-0.3587 1.8598,-0.9216 2.5464,-1.6129 0.6365,-0.6407 1.1081,-1.3923 1.3432,-2.1934 0.2347,-0.7999 0.2341,-1.6503 -0.0729,-2.4903 -0.2269,-0.6207 -0.6216,-1.2367 -1.2122,-1.8233 l -1e-4,0 -0.0029,-0.003 10e-5,-1e-4 c -0.3189,-0.3176 -0.5842,-0.7052 -0.7979,-1.1459 -0.2133,-0.4399 -0.3756,-0.9327 -0.4893,-1.4618 -0.5838,-2.7145 0.1044,-6.3957 1.6931,-8.7978 l 0.002,-0.003 10e-5,-2e-4 c 0.3092,-0.4672 0.6608,-0.9178 1.0536,-1.3485 0.3929,-0.4306 0.8277,-0.8419 1.3036,-1.2306 2.4377,-1.9909 5.9614,-3.3964 10.5292,-3.8529 -0.3998,-0.5205 -0.7771,-1.0478 -1.1317,-1.5821 -2.5754,-3.88 -3.9729,-8.1171 -4.4114,-12.6445 -0.352,-0.1377 -0.7093,-0.2808 -1.0721,-0.4297 -1.2253,0.0967 -2.3594,0.0937 -3.4383,-0.018 -1.0816,-0.112 -2.1076,-0.3338 -3.1141,-0.6741 -1.0732,-0.3629 -2.0615,-0.408 -2.9675,-0.2613 -0.9069,0.1468 -1.7326,0.4861 -2.4792,0.8917 -1.6488,0.8957 -3.3416,1.49 -5.0223,2.08 -0.3629,0.1274 -0.726,0.2549 -1.0708,0.3789 -3.9455,1.419 -7.0421,1.8118 -9.0571,1.4943 -0.8696,-0.137 -1.5396,-0.4066 -1.9909,-0.7831 -0.4552,-0.3798 -0.6887,-0.868 -0.6819,-1.4387 0.0068,-0.5755 0.2593,-1.2341 0.7763,-1.9489 1.3605,-1.881 3.6577,-2.6747 5.7934,-3.4124 0.6049,-0.209 1.197,-0.4136 1.7512,-0.6373 3.0917,-1.2481 6.1823,-2.6116 9.2731,-4.086 2.7684,-1.3208 5.5355,-2.7292 8.3016,-4.2226 -1.7407,-1.755 -2.7521,-4.4833 -3.2902,-7.8278 -0.5386,-3.3481 -0.6036,-7.3147 -0.4527,-11.541 l 0,-9e-4 c 0.1362,-2.2873 0.0686,-4.2109 -0.3255,-5.5517 -0.3885,-1.3218 -1.0952,-2.0744 -2.2383,-2.0454 -0.0365,0.0376 -0.0736,0.0745 -0.1103,0.1104 -0.9418,0.9192 -1.9726,1.2804 -2.9335,1.252 -0.9613,-0.0284 -1.8526,-0.4469 -2.5153,-1.0866 -0.0285,-0.0275 -0.057,-0.0558 -0.0848,-0.0843 -0.1292,-0.1323 -0.2495,-0.274 -0.359,-0.4231 -0.468,-0.6365 -0.7491,-1.4154 -0.7307,-2.2133 0.0184,-0.7985 0.3364,-1.6159 1.0661,-2.3281 0.1496,-0.146 0.3163,-0.2876 0.5007,-0.4231 0.3933,-0.2893 0.799,-0.5413 1.2131,-0.7558 1.8257,-0.946 3.8174,-1.1658 5.6972,-0.6802 1.8792,0.4854 3.6465,1.6758 5.0244,3.5499 0.3598,0.4894 0.6934,1.026 0.9954,1.6088 1.004,1.9373 2.0694,3.7203 3.1442,5.519 1.7355,2.9043 3.4962,5.8509 5.0636,9.5554 0.1655,-0.1934 0.3365,-0.3844 0.5133,-0.5728 2.839,-3.0256 7.1317,-5.3965 13.1499,-6.9892 0.8054,-1.3043 1.5524,-3.3337 1.4781,-5.4053 -0.0144,-0.4039 -0.0601,-0.8095 -0.1426,-1.2111 -0.0793,-0.3866 -0.1929,-0.7701 -0.3457,-1.1461 z"
   id="path25"
   inkscape:connector-curvature="0"
   style="fill:#2c2825;fill-rule:nonzero" />
  <path
   class="fil4 str2"
   d="m 127.678,88.3376 c 0.5038,3.3613 -1.4534,8.2933 -11.6477,5.3914 -4.5984,0.1591 -9.3058,0.0091 -13.9043,-0.1224 -1.0675,0.1734 -1.624,-0.1642 -2.1076,-0.5748 -2.0484,-1.2408 -3.112,-3.2481 -4.2844,-5.3648 -2.157,-0.8258 -1.332,-3.4336 1.602,-2.6957 4.0316,-2.0485 8.0638,-3.536 12.0949,-6.6147 -0.126,-2.5415 0.8964,-3.943 2.4865,-4.2341 0.8427,-0.1542 1.396,-0.2156 2.2214,-0.7259 1.6751,-1.0357 6.9934,-1.6824 11.9561,-0.8133 3.5512,-4.4562 10.0957,-2.0187 7.1427,4.6468 1.594,1.4412 2.1697,3.3187 1.7273,5.6325 2.9396,2.7648 3.461,7.0836 2.3281,12.4666 0.1001,2.303 0.2002,4.6061 0.3004,6.9092 1.5509,7.8802 0.738,15.2876 -3.5297,22.0043 -0.4509,4.445 -0.2473,8.6992 0.4912,12.8022 1.3002,7.2237 4.5178,13.8927 8.3041,20.4561 0.6676,1.1573 1.7561,4.3037 3.446,2.7146 0.5382,3.2096 -1.9902,3.608 -4.9566,3.6048 -0.2678,2.0302 -0.3034,4.1378 -1.502,5.8578 -1.2393,2.2029 -2.0404,4.4056 0.2253,6.6088 1.9275,2.6285 3.8551,5.257 5.7827,7.8855 2.534,3.1105 2.7038,5.9482 -2.3281,8.1859 -3.4047,1.2214 -6.8091,1.989 -10.2136,2.0277 -2.8287,0.0322 -5.6458,1.3275 -8.4863,2.7787 -2.016,1.03 -4.035,0.7554 -6.0831,0.0751 -3.9546,-1.3137 -6.625,-3.2477 -7.2847,-6.0831 -0.3514,-1.5102 0.8648,-2.1141 2.4032,-2.0277 2.8998,0.163 5.8534,0.3385 8.7116,-0.2253 6.4193,-1.2664 7.7935,-4.4611 3.8783,-5.8507 -13.0739,-4.6404 -14.5727,-12.1337 -13.6413,-24.4146 2.3977,-4.2472 3.9769,-8.8583 3.755,-14.269 m -0.4372,-50.6377 c 1.1638,2.8002 0.1455,6.0368 -0.9819,7.8552 -12.0374,3.182 -17.165,9.4733 -17.5651,17.8924 m -5.7823,2.9457 c -3.4848,-3.4967 -4.0112,-10.8621 -3.7094,-19.3107 0.2731,-4.5827 -0.2723,-7.7106 -2.6184,-7.637 -1.9318,2.0015 -4.2722,1.5632 -5.6001,0.2027 -1.3279,-1.3605 -1.7083,-3.727 0.4724,-5.3304 4.3006,-3.1621 10.0091,-1.8187 12.8738,3.7094 2.6544,5.1221 5.7372,9.1642 8.2916,15.274 m -4.6913,26.0749 c 0.8456,9.146 5.5914,17.1104 16.0377,23.3474 m -0.2182,5.455 c -4.0846,2.2252 -7.0859,5.4061 -6.2187,12.001 0.4752,2.2552 -0.0692,4.2555 -4.2549,5.3459 -2.5911,0.938 -5.1858,1.7354 -7.7733,2.2406 -3.1453,0.614 -8.1586,0.4144 -10.8812,1.9134 -2.8371,1.5622 -4.3142,2.2027 -7.0931,1.9556 -7.0889,-0.6303 -7.8705,-7.7074 -1.9638,-6.1096 4.0004,-2.3656 8.0796,-4.3486 12.001,-5.7823 3.4942,-1.2775 5.6929,-5.1288 2.6184,-8.1825 -2.2599,-2.2447 -1.7926,-8.0332 0.4079,-11.3606 2.2005,-3.3274 6.5382,-5.7955 12.9023,-6.4227 m 17.2902,-77.5788 c -0.1784,-3.8815 5.9003,-4.8517 6.9498,-0.297"
   id="path27"
   inkscape:connector-curvature="0"
   style="fill:none;stroke:#000000;stroke-width:0.70560002" />
  <path
   class="fil4 str3"
   d="m 128.641,76.7448 c -0.3426,-5.0517 2.6,-5.5239 3.3858,-2.8512 m -11.1517,52.2409 c 7.0941,-0.9611 10.1921,2.2691 11.3718,12.5262 m 4.1737,13.6578 c 4.2552,10.2919 1.3457,17.7471 -5.455,20.2926 m 10.5827,10.1463 c 0.1482,2.2033 1.7207,2.4054 0.2998,5.4155 -0.9899,2.097 -4.4792,1.3699 -6.6276,2.6579 m -34.1483,-19.9653 c 0.1455,2.5135 2.168,2.7087 1.5189,4.9934 -0.8977,3.1597 -5.5917,2.3204 -9.3741,4.171 m 9.6008,-48.004 c 8.3143,0.7199 10.8344,-3.0095 7.6496,-7.7717 m 6.3152,2.4258 c -0.0727,1.2728 -0.0632,2.553 -0.2182,3.8185 -0.9312,7.6023 -6.7316,10.374 -20.8381,4.5822 -2.4536,0.1946 -4.5379,-0.0104 -6.5458,-0.6894 -2.1593,-0.7301 -3.9768,-0.1818 -5.4771,0.6331 -1.9964,1.0845 -4.0596,1.7271 -6.0877,2.4565 -9.0391,3.251 -13.6055,1.1081 -10.91,-2.6184 1.7385,-2.4035 5.0234,-3.0257 7.5279,-4.0367 6.1872,-2.4977 12.3648,-5.4551 18.547,-8.8371 2.2548,-1.2373 7.3462,-3.6019 9.6008,-4.2549 1.346,-3.2184 3.4917,-5.1823 5.8914,-6.6551"
   id="path29"
   inkscape:connector-curvature="0"
   style="fill:none;stroke:#000000;stroke-width:0.70560002;stroke-linecap:round" />
  <g
   id="_159346328">
   <path
   id="_159346112"
   class="fil2 str4"
   d="m 68.9547,185.892 c 0.5148,-1.0789 1.1954,-1.5886 1.8883,-1.7386 1.1684,0.2855 1.8168,-2.4243 -0.2675,-1.9377 -1.515,0.354 -2.0289,1.8379 -1.6208,3.6763 z"
   inkscape:connector-curvature="0"
   style="fill:#df212c;stroke:#000000;stroke-width:0.52999997" />
   <path
   id="_159347264"
   class="fil2 str4"
   d="m 71.0944,188.967 c 0.0352,-1.1949 0.4519,-1.9361 1.0253,-2.3532 1.1841,-0.2107 0.6827,-2.9516 -1.0275,-1.6645 -1.2429,0.9357 -1.1137,2.5008 0.0022,4.0177 z"
   inkscape:connector-curvature="0"
   style="fill:#df212c;stroke:#000000;stroke-width:0.52999997" />
   <path
   id="_159346376"
   class="fil2 str4"
   d="m 73.8254,190.298 c -0.2995,-1.1572 -0.1062,-1.9853 0.328,-2.5458 1.0784,-0.5327 -0.1678,-3.0248 -1.451,-1.3118 -0.9325,1.2454 -0.3718,2.7123 1.123,3.8576 z"
   inkscape:connector-curvature="0"
   style="fill:#df212c;stroke:#000000;stroke-width:0.52999997" />
   <path
   id="_159346544"
   class="fil2 str4"
   d="m 76.1838,190.536 c -0.5919,-1.0386 -0.622,-1.8884 -0.3496,-2.5429 0.9014,-0.7964 -0.9536,-2.8756 -1.7437,-0.8864 -0.5742,1.446 0.3509,2.715 2.0933,3.4293 z"
   inkscape:connector-curvature="0"
   style="fill:#df212c;stroke:#000000;stroke-width:0.52999997" />
   <path
   id="_159346256"
   class="fil2 str4"
   d="m 80.9074,190.141 c -0.8109,-0.8784 -1.0318,-1.6995 -0.914,-2.3986 0.6986,-0.9791 -1.5774,-2.5864 -1.8987,-0.4703 -0.2333,1.5382 0.9541,2.5659 2.8127,2.8689 z"
   inkscape:connector-curvature="0"
   style="fill:#df212c;stroke:#000000;stroke-width:0.52999997" />
  </g>
  <g
   id="_159346664">
   <path
   id="_159346520"
   class="fil2 str1"
   d="m 109.396,193.331 c 0.6474,-1.0049 1.3871,-1.4244 2.0935,-1.4853 1.1228,0.4312 2.1092,-2.1746 -0.0199,-1.956 -1.5477,0.1591 -2.2455,1.566 -2.0736,3.4413 z"
   inkscape:connector-curvature="0"
   style="fill:#df212c;stroke:#000000;stroke-width:0.53500003" />
   <path
   id="_159346928"
   class="fil2 str1"
   d="m 111.165,196.568 c 0.2477,-1.1695 0.7898,-1.8245 1.4284,-2.1327 1.2027,0.004 1.198,-2.7826 -0.7142,-1.821 -1.3899,0.6991 -1.5417,2.2622 -0.7142,3.9537 z"
   inkscape:connector-curvature="0"
   style="fill:#df212c;stroke:#000000;stroke-width:0.53500003" />
   <path
   id="_159346688"
   class="fil2 str1"
   d="m 113.817,198.052 c -0.1786,-1.182 0.099,-1.9857 0.5887,-2.4984 1.1276,-0.4187 0.145,-3.0261 -1.3079,-1.4545 -1.056,1.1426 -0.6495,2.6595 0.7192,3.9529 z"
   inkscape:connector-curvature="0"
   style="fill:#df212c;stroke:#000000;stroke-width:0.53500003" />
   <path
   id="_159346064"
   class="fil2 str1"
   d="m 116.78,198.885 c -0.5542,-1.0592 -0.5537,-1.9095 -0.2579,-2.5538 0.9295,-0.7634 -0.8494,-2.908 -1.7107,-0.9486 -0.6258,1.4244 0.253,2.7259 1.9686,3.5024 z"
   inkscape:connector-curvature="0"
   style="fill:#df212c;stroke:#000000;stroke-width:0.53500003" />
   <path
   id="_159346616"
   class="fil2 str1"
   d="m 119.97,199.212 c -0.4892,-1.0907 -0.4373,-1.9395 -0.1031,-2.5648 0.9738,-0.7059 -0.6723,-2.9539 -1.6503,-1.0501 -0.7107,1.384 0.0879,2.7362 1.7534,3.6149 z"
   inkscape:connector-curvature="0"
   style="fill:#df212c;stroke:#000000;stroke-width:0.53500003" />
  </g>
  <g
   id="_160596224">
   <path
   id="_159347600"
   class="fil2 str1"
   d="m 64.7679,135.875 c 0.6573,0.7938 1.3335,1.0769 1.9444,1.0566 0.9169,-0.4843 2.0287,1.6451 0.1837,1.6764 -1.3412,0.0226 -2.0828,-1.1101 -2.1281,-2.733 z"
   inkscape:connector-curvature="0"
   style="fill:#df212c;stroke:#000000;stroke-width:0.53500003" />
   <path
   id="_159346592"
   class="fil2 str1"
   d="m 65.5247,133.267 c 0.3893,0.9543 0.9496,1.427 1.5386,1.5906 1.0199,-0.1874 1.4427,2.1773 -0.327,1.6545 -1.2863,-0.3803 -1.6545,-1.6832 -1.2116,-3.2451 z"
   inkscape:connector-curvature="0"
   style="fill:#df212c;stroke:#000000;stroke-width:0.53500003" />
   <path
   id="_159347504"
   class="fil2 str1"
   d="m 66.7999,131.636 c 0.2623,0.9967 0.7566,1.538 1.3194,1.7766 1.0355,-0.0536 1.1482,2.3459 -0.5387,1.5981 -1.2262,-0.5438 -1.4224,-1.8834 -0.7807,-3.3747 z"
   inkscape:connector-curvature="0"
   style="fill:#df212c;stroke:#000000;stroke-width:0.53500003" />
   <path
   id="_159347144"
   class="fil2 str1"
   d="m 68.2272,130.496 c 0.0928,1.0264 0.4901,1.6424 1.0053,1.9714 1.0301,0.1194 0.742,2.5042 -0.797,1.4861 -1.1186,-0.7402 -1.0892,-2.0938 -0.2083,-3.4575 z"
   inkscape:connector-curvature="0"
   style="fill:#df212c;stroke:#000000;stroke-width:0.53500003" />
   <path
   id="_160597928"
   class="fil2 str1"
   d="m 71.1252,129.311 c 0.1844,1.014 0.6353,1.592 1.1779,1.8734 1.0366,0.0266 0.9633,2.4277 -0.6607,1.5516 -1.1804,-0.637 -1.2724,-1.9878 -0.5172,-3.425 z"
   inkscape:connector-curvature="0"
   style="fill:#df212c;stroke:#000000;stroke-width:0.53500003" />
  </g>
  <g
   id="_160596728">
   <path
   id="_160597880"
   class="fil2 str1"
   d="m 78.3984,95.8934 c 0.1844,-1.014 0.6353,-1.592 1.1779,-1.8734 1.0366,-0.0266 0.9633,-2.4277 -0.6607,-1.5516 -1.1804,0.637 -1.2724,1.9878 -0.5172,3.425 z"
   inkscape:connector-curvature="0"
   style="fill:#df212c;stroke:#000000;stroke-width:0.53500003" />
   <path
   id="_160597304"
   class="fil2 str1"
   d="m 81.3377,98.3326 c -0.3493,-0.9696 -0.2492,-1.6958 0.0789,-2.2115 0.8834,-0.5432 -0.3848,-2.5834 -1.35,-1.0107 -0.7014,1.1433 -0.1033,2.3579 1.2711,3.2222 z"
   inkscape:connector-curvature="0"
   style="fill:#df212c;stroke:#000000;stroke-width:0.53500003" />
   <path
   id="_160597904"
   class="fil2 str1"
   d="m 83.5364,98.5596 c -0.5943,-0.842 -0.6907,-1.5687 -0.5114,-2.1531 0.7073,-0.7583 -1.0573,-2.3882 -1.57,-0.6156 -0.3725,1.2886 0.5269,2.3006 2.0814,2.7687 z"
   inkscape:connector-curvature="0"
   style="fill:#df212c;stroke:#000000;stroke-width:0.53500003" />
   <path
   id="_160597616"
   class="fil2 str1"
   d="m 85.7634,98.5211 c -0.6868,-0.7684 -0.8658,-1.4793 -0.7545,-2.0804 0.6159,-0.8342 -1.3236,-2.2516 -1.6301,-0.4319 -0.2226,1.3227 0.7866,2.2252 2.3846,2.5123 z"
   inkscape:connector-curvature="0"
   style="fill:#df212c;stroke:#000000;stroke-width:0.53500003" />
   <path
   id="_160597808"
   class="fil2 str1"
   d="m 89.1428,96.6699 c -0.9341,-0.4354 -1.3789,-1.0181 -1.5136,-1.6144 0.2369,-1.0095 -2.1043,-1.5471 -1.6684,0.2459 0.317,1.3033 1.6004,1.7347 3.182,1.3685 z"
   inkscape:connector-curvature="0"
   style="fill:#df212c;stroke:#000000;stroke-width:0.53500003" />
  </g>
  <path
   class="fil5 str1"
   d="m 138.331,101.671 c -3.3463,2.4626 -21.5381,2.2526 -23.87,0.1302 -0.2133,-2.6402 0.3726,-4.9405 2.1266,-6.4232 6.5742,1.931 13.5745,2.3822 20.9622,-0.2604 l 1.0835,-0.2504 c 0.4503,-0.2284 0.9595,-0.3572 1.4988,-0.3572 1.8335,0 3.3201,1.4866 3.3201,3.3201 0,1.8332 -1.4866,3.3201 -3.3201,3.3201 l -1.0998,0.0322 -0.7013,0.4886 z"
   id="path55"
   style="fill:url(#linearGradient5588);stroke:#000000;stroke-width:0.53500002999999996"
   inkscape:connector-curvature="0" />
  <circle
   class="fil0 str5"
   cx="140.132"
   cy="97.830498"
   r="1.2803"
   id="circle57"
   sodipodi:cx="140.132"
   sodipodi:cy="97.830498"
   sodipodi:rx="1.2803"
   sodipodi:ry="1.2803"
   style="fill:#ffffff;stroke:#1f1a17;stroke-width:0.5"
   d="m 141.4123,97.830498 c 0,0.70709 -0.57321,1.2803 -1.2803,1.2803 -0.70709,0 -1.2803,-0.57321 -1.2803,-1.2803 0,-0.70709 0.57321,-1.2803 1.2803,-1.2803 0.70709,0 1.2803,0.57321 1.2803,1.2803 z" />
  <path
   class="fil2 str6"
   d="m 94.1892,88.3872 c 0.6483,2.6483 2.4907,2.5668 5.4485,1.5318 2.7263,-0.9539 5.8423,-1.3071 8.7117,-1.113 3.5345,0.2392 3.3182,1.8888 -0.1326,1.9787 -2.4582,0.064 -4.9263,0.7679 -7.3748,1.6601 -1.2636,0.4605 -2.5793,0.9256 -3.8542,1.0669 -1.3697,0.1519 -2.9508,-0.3244 -3.5864,-1.6281 -0.4887,-1.0025 -0.2512,-2.2785 0.7878,-3.4964 z"
   id="path59"
   inkscape:connector-curvature="0"
   style="fill:#df212c;stroke:#000000;stroke-width:0.55299997" />
  <path
   class="fil2 str1"
   d="m 115.8,76.74 c 1.7495,0 3.2869,0.7457 4.1657,1.871 -0.7731,1.3372 -2.3803,2.257 -4.2377,2.257 -1.8076,0 -3.3783,-0.8712 -4.1738,-2.1503 0.8633,-1.1845 2.4416,-1.9777 4.2458,-1.9777 z"
   id="path61"
   inkscape:connector-curvature="0"
   style="fill:#df212c;stroke:#000000;stroke-width:0.53500003" />
  <path
   class="fil6"
   d="m 116.98,76.8561 c 0.0441,0.1536 0.068,0.3161 0.068,0.4839 0,0.9674 -0.7846,1.752 -1.752,1.752 -0.9674,0 -1.752,-0.7846 -1.752,-1.752 0,-0.0528 0.002,-0.1052 0.007,-0.1568 0.6746,-0.2834 1.4389,-0.4432 2.2489,-0.4432 0.4067,0 0.8018,0.0401 1.18,0.1161 z"
   id="path63"
   inkscape:connector-curvature="0"
   style="fill:#000000" />
  <circle
   class="fil0"
   cx="114.685"
   cy="77.8964"
   r="0.74234998"
   id="circle65"
   sodipodi:cx="114.685"
   sodipodi:cy="77.8964"
   sodipodi:rx="0.74234998"
   sodipodi:ry="0.74234998"
   style="fill:#ffffff"
   d="m 115.42735,77.8964 c 0,0.409989 -0.33236,0.74235 -0.74235,0.74235 -0.40999,0 -0.74235,-0.332361 -0.74235,-0.74235 0,-0.409988 0.33236,-0.74235 0.74235,-0.74235 0.40999,0 0.74235,0.332362 0.74235,0.74235 z" />
 </g>
<g
   transform="matrix(0.21576348,0,0,-0.21576348,-21.731277,142.04724)"
   inkscape:label="сморгонь"
   id="g4748"><path
     id="path4752"
     style="fill:#000000;fill-opacity:1;fill-rule:nonzero;stroke:none"
     d="m 191.1557,533.3448 c -3.4078,1.8326 -4.9101,4.1599 -5.0782,6.1878 -0.1656,2.0043 0.9731,3.761 2.8063,4.5388 1.9604,0.8323 4.8226,0.6148 7.8551,-1.4893 2.0092,-1.3938 3.8106,-4.0283 5.0051,-7.0764 3.1898,0.6933 6.3071,2.1758 8.1094,4.676 l 0.132,-0.0952 c -0.5796,-0.8808 -0.3758,-2.0696 0.4811,-2.7068 0.1672,-0.1231 0.3461,-0.2169 0.5323,-0.2818 -2.2011,-2.2142 -5.2662,-3.6077 -8.3738,-4.3345 0.6679,-2.6453 0.8958,-5.5496 0.2571,-8.2386 l -0.0385,0.0292 c -0.8867,0.6577 -2.1391,0.47 -2.799,-0.4155 -0.0246,-0.0358 -0.049,-0.0712 -0.0723,-0.1078 l -0.2191,0.0805 0.006,0.019 0.002,0.006 c 0.9434,2.5586 0.6903,5.5551 0.0241,8.1437 -2.7405,-0.2997 -6.1186,-0.2713 -8.6301,1.0652 z m 1.3672,2.5427 c 1.7994,-0.9578 4.3415,-0.9485 6.3119,-0.8033 -0.9598,2.2424 -2.287,4.1241 -3.7468,5.1372 -2.1087,1.4627 -3.9266,1.6872 -5.0752,1.2005 -0.6877,-0.2917 -1.127,-0.8949 -1.063,-1.6555 0.095,-1.148 1.1452,-2.5721 3.5731,-3.8789"
     inkscape:connector-curvature="0" /><path
     id="path4754"
     style="fill:#ffcf00;fill-opacity:1;fill-rule:nonzero;stroke:none"
     d="m 191.3508,533.7077 c -3.2706,1.7509 -4.7053,3.956 -4.8626,5.8589 -0.1522,1.8261 0.8873,3.4174 2.5569,4.1264 1.8453,0.7826 4.5578,0.5641 7.4576,-1.4477 1.2626,-0.8764 2.441,-2.2598 3.4311,-3.9336 1.2577,-2.128 2.124,-4.5252 2.5798,-6.9526 0.4079,-2.1713 0.4853,-4.4594 -8e-4,-6.6052 -0.7368,0.3512 -1.6215,0.2168 -2.2196,-0.3405 0.6648,2.1127 0.603,4.472 0.1826,6.6714 -0.4167,2.1792 -1.1642,4.2893 -2.3001,6.2024 -0.8314,1.3992 -1.8079,2.5473 -2.8527,3.2709 -2.2397,1.5546 -4.2064,1.7793 -5.4718,1.2416 -0.8503,-0.3606 -1.3901,-1.1276 -1.3124,-2.0664 0.1063,-1.2739 1.2189,-2.8316 3.7891,-4.2086 1.8643,-0.9978 4.5589,-1.0137 6.6753,-0.8368 0.2939,-0.6602 0.5184,-1.33 0.686,-2.0078 -2.6592,-0.284 -5.9576,-0.2461 -8.3384,1.0276 z m 10.5738,1.4153 c 2.9534,0.6624 5.8782,2.0075 7.7564,4.1802 -0.1117,-0.7129 0.1661,-1.4638 0.7855,-1.9235 0.0462,-0.0326 0.0918,-0.0644 0.1392,-0.0936 -2.1206,-2.084 -5.0789,-3.418 -8.0484,-4.1199 -0.1741,0.6543 -0.4014,1.2753 -0.6327,1.9568"
     inkscape:connector-curvature="0" /><path
     id="path4756"
     style="fill:#000000;fill-opacity:1;fill-rule:evenodd;stroke:none"
     d="m 199.8122,524.3108 c 0.7532,1.0174 2.1889,1.2311 3.2051,0.4768 1.0168,-0.7523 1.2317,-2.1886 0.4771,-3.2051 -0.7537,-1.0168 -2.1886,-1.2303 -3.2051,-0.4763 -1.0177,0.7532 -1.2303,2.1889 -0.4771,3.2046 z m 0.4674,-0.3467 c 0.5621,0.76 1.6328,0.9185 2.3916,0.3558 0.7583,-0.5616 0.9179,-1.6322 0.3552,-2.3902 -0.5613,-0.7586 -1.6325,-0.9193 -2.391,-0.3557 -0.7586,0.5606 -0.9179,1.6324 -0.3558,2.3901"
     inkscape:connector-curvature="0" /><path
     id="path4758"
     style="fill:#000000;fill-opacity:1;fill-rule:evenodd;stroke:none"
     d="m 209.8157,540.3515 c 0.7531,1.0174 2.1894,1.2311 3.2051,0.4774 1.0173,-0.7532 1.2305,-2.1887 0.4776,-3.2052 -0.754,-1.0173 -2.1889,-1.2305 -3.206,-0.4779 -1.017,0.7534 -1.2291,2.1895 -0.4767,3.2057 z m 0.4682,-0.3472 c 0.5613,0.7591 1.6328,0.9184 2.3905,0.3571 0.7591,-0.5627 0.9193,-1.6327 0.356,-2.3907 -0.5618,-0.7597 -1.6333,-0.919 -2.3907,-0.3563 -0.7586,0.5612 -0.9184,1.633 -0.3558,2.3899"
     inkscape:connector-curvature="0" /><path
     id="path4760"
     style="fill:#000000;fill-opacity:1;fill-rule:evenodd;stroke:none"
     d="m 191.3511,527.7314 c 1.9346,-1.3025 4.0047,-3.5003 5.9241,-3.7491 8.5178,-1.1027 16.7176,8.1462 12.9121,15.0219 -0.9649,1.7424 -2.5946,2.56 -4.7962,2.5824 -1.4035,-0.1259 -2.6819,0.1604 -3.7032,0.9172 -3.3761,2.5008 -2.6669,9.182 1.584,14.9193 4.2508,5.7374 10.4357,8.3617 13.8115,5.8615 1.1945,-0.8864 1.8765,-2.2938 2.0724,-4.0008 0.3855,-1.2104 0.8422,-2.2433 1.3856,-3.2692 1.8672,-3.5249 2.9588,-5.832 3.4619,-9.9023 1.7878,-14.4994 -11.6172,-29.8493 -26.8259,-26.0036 -0.9865,0.2498 -2.1107,0.1548 -3.1249,0.2333 -1.9083,0.1469 -3.892,0.4048 -5.6311,0.7818 l 2.9297,6.6076 z"
     inkscape:connector-curvature="0" /><g
     id="g4762"><g
       id="g4764"><g
         id="g4770"><path
           id="path4784"
           style="fill:url(#radialGradient4772);fill-rule:evenodd;stroke:none"
           d="m 210.9521,537.9574 c -0.1387,0.3894 -0.3082,0.7749 -0.5157,1.152 -0.0717,0.1301 -0.1471,0.2556 -0.2262,0.3775 -0.8512,1.3096 -2.1021,2.0639 -3.7471,2.2697 2.9996,0.6738 6.3916,3.0385 9.0355,6.6076 2.5786,3.4789 3.8539,7.3063 3.7051,10.3374 0.3424,-1.0041 0.7387,-1.8907 1.203,-2.7717 1.8428,-3.492 2.9203,-5.777 3.4079,-9.8127 0.0167,-0.1335 0.0289,-0.2688 0.0428,-0.4023 0.0697,-0.6902 0.1054,-1.3836 0.1091,-2.0746 -3.3809,-3.6063 -7.8165,-5.4128 -13.0144,-5.6829"
           inkscape:connector-curvature="0" /></g></g></g><g
     id="g4786"><g
       id="g4788"><g
         id="g4794"><path
           id="path4808"
           style="fill:url(#radialGradient4796);fill-rule:evenodd;stroke:none"
           d="m 201.1714,523.9261 c 1.0046,0.2243 1.9783,0.5732 2.8987,1.0248 5.1095,2.5027 8.6066,8.1513 6.882,13.0065 5.1979,0.2701 9.6335,2.0766 13.0144,5.6829 0.0448,-11.0107 -8.2497,-21.8648 -18.951,-23.6852 -1.0429,-0.1772 -2.1096,-0.2696 -3.1927,-0.267 -0.3847,1.3682 -0.5984,2.7836 -0.6514,4.238"
           inkscape:connector-curvature="0" /></g></g></g><g
     id="g4810"><g
       id="g4812"><g
         id="g4818"><path
           id="path4828"
           style="fill:url(#linearGradient4820);fill-rule:evenodd;stroke:none"
           d="m 191.8655,527.1582 c 1.7779,-1.3382 3.6105,-3.2082 5.3643,-3.4296 1.3354,-0.169 2.6635,-0.0868 3.9416,0.1975 0.053,-1.4544 0.2667,-2.8698 0.6514,-4.238 -1.5154,0.004 -3.064,0.1907 -4.6321,0.5848 -0.9762,0.2454 -2.0897,0.1491 -3.0957,0.2256 -1.6175,0.1202 -3.3747,0.3608 -4.9261,0.6602 0.8711,0.2489 1.8182,1.1687 2.4203,2.463 0.6259,1.3462 0.7007,2.7181 0.2763,3.5365"
           inkscape:connector-curvature="0" /></g></g></g><g
     id="g4830"><g
       id="g4832"><g
         id="g4838"><path
           id="path4852"
           style="fill:url(#linearGradient4840);fill-rule:evenodd;stroke:none"
           d="m 211.3367,536.3456 c -0.1862,1.4774 -0.8087,3.0484 -1.91,4.0878 4.1361,-1.4485 12.8863,4.066 13.9,8.4646 0.788,-3.2936 0.8425,-6.723 0.1449,-10.0412 -2.2405,-2.8488 -8.97,-5.0034 -12.1349,-2.5112"
           inkscape:connector-curvature="0" /></g></g></g><g
     id="g4854"><g
       id="g4856"><g
         id="g4862"><path
           id="path4876"
           style="fill:url(#linearGradient4864);fill-rule:evenodd;stroke:none"
           d="m 199.3649,523.6668 c 1.4865,0.0972 2.9344,0.4816 4.28,1.0839 0.0658,-1.7237 0.4587,-3.3505 1.1968,-4.8234 -1.5914,-0.2557 -3.2363,-0.3127 -4.9144,-0.1378 -0.4442,1.086 -0.6185,2.5019 -0.5624,3.8773"
           inkscape:connector-curvature="0" /></g></g></g><g
     id="g4878"><g
       id="g4880"><g
         id="g4886"><path
           id="path4900"
           style="fill:url(#linearGradient4888);fill-rule:evenodd;stroke:none"
           d="m 191.865,527.1582 c 1.542,-1.1599 3.1246,-2.7196 4.6604,-3.259 -0.0419,-0.9915 -0.3798,-2.4111 -0.9008,-3.4489 -0.5162,0.0142 -1.0358,0.009 -1.5296,0.0482 -1.6175,0.1202 -3.3747,0.3608 -4.9261,0.6602 0.8711,0.2489 1.8182,1.1687 2.4203,2.463 0.6259,1.3462 0.7007,2.7181 0.2758,3.5365"
           inkscape:connector-curvature="0" /></g></g></g><g
     id="g4902"><g
       id="g4904"><g
         id="g4910"><path
           id="path4918"
           style="fill:url(#linearGradient4912);fill-rule:evenodd;stroke:none"
           d="m 203.6234,557.1629 c 4.1062,5.5437 10.0182,8.1275 13.1998,5.7697 3.1822,-2.3579 2.4318,-8.7653 -1.6747,-14.3085 -4.1083,-5.5437 -10.0182,-8.1266 -13.201,-5.7688 -3.1821,2.357 -2.4312,8.7648 1.6759,14.3076"
           inkscape:connector-curvature="0" /></g></g></g><g
     id="g4920"><g
       id="g4922"><g
         id="g4928"><path
           id="path4938"
           style="fill:url(#linearGradient4930);fill-rule:evenodd;stroke:none"
           d="m 204.7567,556.3244 c 3.4455,4.6514 8.1912,6.9792 10.5947,5.1971 2.4055,-1.7819 1.5605,-6.9988 -1.8856,-11.6501 -3.4463,-4.6525 -8.1915,-6.9795 -10.597,-5.1976 -2.4041,1.7813 -1.5588,6.9984 1.8879,11.6506"
           inkscape:connector-curvature="0" /></g></g></g><path
     id="path4940"
     style="fill:#000000;fill-opacity:1;fill-rule:evenodd;stroke:none"
     d="m 187.8197,525.3746 c 0.8461,1.8179 2.3754,2.8996 3.4146,2.4154 1.0414,-0.4833 1.1993,-2.3499 0.3549,-4.1683 -0.8453,-1.8176 -2.3749,-2.899 -3.4158,-2.4151 -1.04,0.4836 -1.199,2.3508 -0.3537,4.168"
     inkscape:connector-curvature="0" /><path
     id="path4942"
     style="fill:#ffcf00;fill-opacity:1;fill-rule:evenodd;stroke:none"
     d="m 188.2162,525.1901 c 0.7433,1.5993 2.0132,2.5866 2.8352,2.2039 0.8215,-0.3821 0.8847,-1.9887 0.1418,-3.588 -0.7436,-1.5991 -2.0132,-2.5855 -2.8347,-2.2043 -0.8223,0.3824 -0.8852,1.9894 -0.1423,3.5884"
     inkscape:connector-curvature="0" /><path
     id="path4944"
     style="fill:#000000;fill-opacity:1;fill-rule:evenodd;stroke:none"
     d="m 188.7673,524.9486 c 0.4552,0.9782 1.2231,1.5857 1.7152,1.3575 0.4904,-0.229 0.5222,-1.2075 0.0666,-2.1844 -0.4546,-0.9779 -1.2211,-1.5857 -1.7132,-1.3569 -0.4916,0.2287 -0.5213,1.2061 -0.0686,2.1838"
     inkscape:connector-curvature="0" /><path
     id="path4946"
     style="fill:#e6a800;fill-opacity:1;fill-rule:evenodd;stroke:none"
     d="m 189.1641,524.7646 c 0.3529,0.7603 0.8612,1.2719 1.1333,1.1455 0.2736,-0.1273 0.2086,-0.8456 -0.1437,-1.6041 -0.354,-0.7594 -0.8603,-1.2708 -1.133,-1.1452 -0.2741,0.127 -0.2084,0.8456 0.1434,1.6038"
     inkscape:connector-curvature="0" /><path
     id="path4948"
     style="fill:#000000;fill-opacity:1;fill-rule:nonzero;stroke:none"
     d="m 175.4583,524.4245 c 0.078,-3.8679 -1.2104,-6.3193 -2.8939,-7.4636 -1.6645,-1.1297 -3.7533,-1.0004 -5.3319,0.2137 -1.6886,1.3 -2.9055,3.899 -2.5631,7.5742 0.227,2.4352 1.6356,5.2973 3.7032,7.8375 -2.1702,2.4361 -4.9952,4.4226 -8.0578,4.7627 l 0.019,0.163 c 1.0514,-0.0725 1.9882,0.6897 2.1197,1.7476 0.0256,0.2058 0.0193,0.409 -0.0155,0.6041 3.0115,-0.8295 5.7299,-2.8148 7.8893,-5.1639 1.9781,1.8791 4.3949,3.5064 7.0498,4.2718 l -0.007,-0.0473 c -0.1361,-1.0956 0.6417,-2.0954 1.7376,-2.2323 0.0423,-0.006 0.0853,-0.009 0.1284,-0.0111 l 0.0377,-0.2316 -0.019,-0.003 -0.006,6e-4 c -2.6909,-0.436 -5.1769,-2.13 -7.1045,-3.9819 1.6076,-2.2399 3.2423,-5.1956 3.3137,-8.0404 z m -2.8868,-0.0587 c -0.051,2.039 -1.3067,4.2477 -2.4026,5.8915 -1.4814,-1.9372 -2.4664,-4.017 -2.6314,-5.7863 -0.2387,-2.556 0.4583,-4.2495 1.4482,-5.01 0.5919,-0.4561 1.3317,-0.5423 1.9638,-0.1128 0.9536,0.6474 1.6767,2.2618 1.622,5.0176"
     inkscape:connector-curvature="0" /><path
     id="path4950"
     style="fill:#ffcf00;fill-opacity:1;fill-rule:nonzero;stroke:none"
     d="m 175.0459,524.4165 c 0.0819,-3.7088 -1.133,-6.0414 -2.7122,-7.1141 -1.5165,-1.0292 -3.4132,-0.9065 -4.8509,0.1993 -1.5891,1.2223 -2.7321,3.6918 -2.4038,7.2074 0.1423,1.5295 0.7687,3.2354 1.7388,4.9203 1.2345,2.1408 2.899,4.0737 4.7891,5.6631 1.69,1.4227 3.6442,2.6138 5.7518,3.246 0.0567,-0.8153 0.6094,-1.5197 1.3875,-1.7669 -2.1673,-0.4575 -4.1913,-1.6721 -5.8991,-3.1187 -1.6937,-1.4337 -3.1644,-3.122 -4.2716,-5.0504 -0.811,-1.4123 -1.3308,-2.8282 -1.4476,-4.0913 -0.254,-2.717 0.5181,-4.5394 1.6067,-5.3773 0.7336,-0.563 1.6659,-0.6562 2.4457,-0.1276 1.0562,0.7186 1.868,2.4531 1.8034,5.3688 -0.0474,2.1141 -1.3581,4.4686 -2.5509,6.2238 0.4283,0.5808 0.9025,1.1058 1.4102,1.5848 1.5545,-2.1767 3.1434,-5.0686 3.2029,-7.7672 z m -6.429,8.5136 c -2.029,2.2459 -4.6358,4.1338 -7.452,4.7021 0.6769,0.2509 1.1928,0.8618 1.2886,1.6274 0.007,0.0567 0.0117,0.1125 0.0136,0.1681 2.8582,-0.8226 5.4726,-2.7431 7.5442,-4.985 -0.4856,-0.4734 -0.9139,-0.976 -1.3944,-1.5126"
     inkscape:connector-curvature="0" /><path
     id="path4952"
     style="fill:#000000;fill-opacity:1;fill-rule:evenodd;stroke:none"
     d="m 179.0722,536.4031 c -1.256,0.1565 -2.1475,1.3023 -1.9908,2.5574 0.1574,1.2558 1.3017,2.1476 2.5572,1.9902 1.2552,-0.1559 2.1472,-1.3013 1.991,-2.5571 -0.157,-1.2552 -1.3019,-2.1472 -2.5574,-1.9905 z m 0.0717,0.5777 c -0.9365,0.1165 -1.6018,0.9709 -1.4848,1.9072 0.1163,0.9371 0.9715,1.6024 1.9078,1.4853 0.9365,-0.117 1.6007,-0.9703 1.4853,-1.9077 -0.1171,-0.9371 -0.9711,-1.6021 -1.9083,-1.4848"
     inkscape:connector-curvature="0" /><path
     id="path4954"
     style="fill:#000000;fill-opacity:1;fill-rule:evenodd;stroke:none"
     d="m 160.185,537.2325 c -1.2549,0.1571 -2.1461,1.3028 -1.9899,2.558 0.1561,1.2552 1.3016,2.1473 2.5577,1.9905 1.2546,-0.1556 2.1461,-1.3022 1.9899,-2.558 -0.1562,-1.2543 -1.3014,-2.1458 -2.5577,-1.9905 z m 0.0723,0.5783 c -0.9366,0.1165 -1.6025,0.9714 -1.4845,1.9086 0.1165,0.9363 0.9705,1.601 1.9077,1.4845 0.9371,-0.1168 1.6015,-0.9712 1.485,-1.9075 -0.1165,-0.9368 -0.9703,-1.6024 -1.9082,-1.4856"
     inkscape:connector-curvature="0" /><path
     id="path4956"
     style="fill:#000000;fill-opacity:1;fill-rule:evenodd;stroke:none"
     d="m 180.2523,527.3538 c 0.182,2.3253 1.08,5.2072 0.3537,7.0019 -3.2258,7.9605 -15.3107,10.5565 -19.4286,3.863 -1.0443,-1.6954 -0.9556,-3.5169 0.1071,-5.4451 0.8,-1.1613 1.1784,-2.4156 1.0205,-3.6773 -0.5199,-4.169 -6.6855,-6.8341 -13.7718,-5.9517 -7.0852,0.8836 -12.4098,4.9797 -11.8905,9.15 0.1828,1.4746 1.0757,2.7612 2.465,3.7689 0.8646,0.9318 1.5392,1.8363 2.1668,2.8151 2.1509,3.3577 3.6235,5.4423 6.9219,7.8798 11.7496,8.6819 31.7058,4.5501 35.8305,-10.5857 0.2665,-0.9814 0.9025,-1.9129 1.3328,-2.8358 0.8088,-1.734 1.5602,-3.5878 2.0855,-5.2863 l -7.1929,-0.6968 z"
     inkscape:connector-curvature="0" /><g
     id="g4958"><g
       id="g4960"><g
         id="g4966"><path
           id="path4980"
           style="fill:url(#radialGradient4968);fill-rule:evenodd;stroke:none"
           d="m 161.7123,539.3999 c -0.2707,-0.3124 -0.5227,-0.6491 -0.7492,-1.0154 -0.0785,-0.1267 -0.1517,-0.2545 -0.2186,-0.3821 -0.7211,-1.3847 -0.7642,-2.8454 -0.134,-4.3804 -2.0608,2.2828 -5.7878,4.0743 -10.1957,4.6239 -4.2985,0.5355 -8.257,-0.2347 -10.8238,-1.8538 0.7058,0.7911 1.2849,1.5723 1.8227,2.4105 2.1353,3.3203 3.5963,5.3808 6.8717,7.7897 0.1086,0.0805 0.2191,0.1567 0.3297,0.2347 0.5666,0.4008 1.152,0.7721 1.7529,1.114 4.8031,-1.1707 8.5556,-4.1468 11.3443,-8.5411"
           inkscape:connector-curvature="0" /></g></g></g><g
     id="g4982"><g
       id="g4984"><g
         id="g4990"><path
           id="path5004"
           style="fill:url(#radialGradient4992);fill-rule:evenodd;stroke:none"
           d="m 178.7394,537.7759 c -0.6894,0.7651 -1.4717,1.4417 -2.3167,2.022 -4.6908,3.2199 -11.3281,3.4897 -14.7104,-0.398 -2.7887,4.3943 -6.5412,7.3704 -11.3443,8.5411 9.5678,5.4499 23.0967,3.5603 29.9413,-4.8654 0.6675,-0.8206 1.271,-1.705 1.8005,-2.6498 -1.002,-1.0075 -2.1288,-1.8882 -3.3704,-2.6499"
           inkscape:connector-curvature="0" /></g></g></g><g
     id="g5006"><g
       id="g5008"><g
         id="g5014"><path
           id="path5024"
           style="fill:url(#linearGradient5016);fill-rule:evenodd;stroke:none"
           d="m 180.4972,528.0834 c 0.292,2.206 1.0202,4.7211 0.3501,6.3573 -0.5074,1.2453 -1.232,2.3618 -2.1079,3.3352 1.2416,0.7617 2.3684,1.6424 3.3704,2.6499 0.7413,-1.3213 1.3402,-2.761 1.7677,-4.3206 0.2662,-0.9709 0.8972,-1.8927 1.3258,-2.8057 0.6882,-1.4687 1.3427,-3.1187 1.8456,-4.618 -0.6452,0.637 -1.9128,1.0109 -3.3361,0.8989 -1.4791,-0.1165 -2.7113,-0.7254 -3.2156,-1.497"
           inkscape:connector-curvature="0" /></g></g></g><g
     id="g5026"><g
       id="g5028"><g
         id="g5034"><path
           id="path5048"
           style="fill:url(#linearGradient5036);fill-rule:evenodd;stroke:none"
           d="m 162.9272,540.5258 c -1.1942,-0.8881 -2.2572,-2.2028 -2.6212,-3.6725 -0.771,4.314 -9.8739,9.2267 -14.2024,7.9469 2.4814,2.306 5.4405,4.0382 8.6743,5.0615 3.5827,-0.5516 8.7658,-5.3538 8.1493,-9.3359"
           inkscape:connector-curvature="0" /></g></g></g><g
     id="g5050"><g
       id="g5052"><g
         id="g5058"><path
           id="path5072"
           style="fill:url(#linearGradient5060);fill-rule:evenodd;stroke:none"
           d="m 179.8523,536.33 c -0.8141,1.2478 -1.8601,2.3193 -3.0478,3.1958 1.4698,0.9036 2.6938,2.0454 3.613,3.4137 1.0052,-1.262 1.863,-2.6665 2.5365,-4.2137 -0.7282,-0.9212 -1.8754,-1.7679 -3.1017,-2.3958"
           inkscape:connector-curvature="0" /></g></g></g><g
     id="g5074"><g
       id="g5076"><g
         id="g5082"><path
           id="path5096"
           style="fill:url(#linearGradient5084);fill-rule:evenodd;stroke:none"
           d="m 180.4972,528.0831 c 0.2528,1.9129 0.8339,4.0581 0.5479,5.6606 0.8847,0.4509 2.2873,0.8537 3.4478,0.9104 0.2407,-0.4578 0.4998,-0.907 0.7104,-1.3546 0.6882,-1.4687 1.3427,-3.1187 1.8456,-4.618 -0.6452,0.637 -1.9128,1.0109 -3.3361,0.8989 -1.4791,-0.1156 -2.7113,-0.7254 -3.2156,-1.4973"
           inkscape:connector-curvature="0" /></g></g></g><g
     id="g5098"><g
       id="g5100"><g
         id="g5106"><path
           id="path5114"
           style="fill:url(#linearGradient5108);fill-rule:evenodd;stroke:none"
           d="m 148.5876,523.5786 c -6.8465,0.8538 -12.0013,4.7313 -11.5109,8.6616 0.4884,3.9296 6.4389,6.425 13.2845,5.5717 6.8451,-0.8523 12.0005,-4.7313 11.511,-8.6609 -0.4907,-3.9303 -6.4392,-6.4253 -13.2846,-5.5724"
           inkscape:connector-curvature="0" /></g></g></g><g
     id="g5116"><g
       id="g5118"><g
         id="g5124"><path
           id="path5134"
           style="fill:url(#linearGradient5126);fill-rule:evenodd;stroke:none"
           d="m 148.7619,524.9775 c -5.7455,0.7158 -10.1041,3.704 -9.7344,6.6745 0.3699,2.9701 5.3294,4.7976 11.0738,4.0824 5.7453,-0.7157 10.1035,-3.7051 9.7342,-6.6753 -0.3702,-2.9693 -5.3289,-4.7971 -11.0736,-4.0816"
           inkscape:connector-curvature="0" /></g></g></g><path
     id="path5136"
     style="fill:#000000;fill-opacity:1;fill-rule:evenodd;stroke:none"
     d="m 184.0391,525.4362 c -1.9993,-0.1574 -3.693,0.6431 -3.7826,1.7875 -0.0901,1.144 1.4573,2.1997 3.4563,2.3567 1.9996,0.1579 3.6927,-0.6437 3.7823,-1.7878 0.0904,-1.1432 -1.4573,-2.1991 -3.456,-2.3564"
     inkscape:connector-curvature="0" /><path
     id="path5138"
     style="fill:#ffcf00;fill-opacity:1;fill-rule:evenodd;stroke:none"
     d="m 184.0042,525.8718 c -1.758,-0.1377 -3.2414,0.4828 -3.3125,1.3856 -0.0709,0.904 1.2977,1.7493 3.0549,1.8865 1.7588,0.1394 3.2425,-0.4813 3.3131,-1.3848 0.0711,-0.9039 -1.2969,-1.7489 -3.0555,-1.8873"
     inkscape:connector-curvature="0" /><path
     id="path5140"
     style="fill:#000000;fill-opacity:1;fill-rule:evenodd;stroke:none"
     d="m 183.943,526.4705 c -1.0749,-0.0836 -1.9811,0.2852 -2.0237,0.8263 -0.0422,0.5406 0.7943,1.048 1.8698,1.133 1.0752,0.0845 1.9803,-0.2857 2.0225,-0.8263 0.0425,-0.54 -0.7937,-1.0482 -1.8686,-1.133"
     inkscape:connector-curvature="0" /><path
     id="path5142"
     style="fill:#e6a800;fill-opacity:1;fill-rule:evenodd;stroke:none"
     d="m 183.909,526.9068 c -0.8345,-0.0655 -1.5302,0.1244 -1.5543,0.4243 -0.0238,0.3019 0.6339,0.597 1.4687,0.6628 0.8342,0.0652 1.5301,-0.1248 1.5536,-0.4244 0.0241,-0.3013 -0.6344,-0.5978 -1.468,-0.6627"
     inkscape:connector-curvature="0" /><path
     id="path5144"
     style="fill:#000000;fill-opacity:1;fill-rule:nonzero;stroke:none"
     d="m 190.1968,513.6205 c 3.7613,0.906 6.4318,0.1715 7.9095,-1.2285 1.4596,-1.3836 1.7816,-3.4504 0.9334,-5.2529 -0.9076,-1.9273 -3.185,-3.6729 -6.8468,-4.1264 -2.4281,-0.3008 -5.5267,0.4632 -8.4503,1.9375 -1.9134,-2.6419 -3.2494,-5.8255 -2.9257,-8.8909 l -0.1632,-0.0153 c -0.1545,1.042 -1.0996,1.794 -2.1617,1.6946 -0.2078,-0.0182 -0.4037,-0.0686 -0.5851,-0.1452 0.1647,3.1195 1.5205,6.2011 3.352,8.8149 -2.2595,1.5265 -4.3671,3.5396 -5.6826,5.9678 l 0.0459,0.005 c 1.1007,0.1021 1.9108,1.0769 1.8088,2.1759 -0.003,0.0428 -0.009,0.0856 -0.0153,0.1284 l 0.2171,0.0865 0.007,-0.0187 8e-4,-0.007 c 1.0026,-2.5344 3.1901,-4.5992 5.4113,-6.0854 1.8448,2.0517 4.381,4.2815 7.1445,4.9598 z m 0.6758,-2.8071 c -1.9797,-0.4873 -3.8696,-2.1875 -5.2393,-3.6083 2.2085,-1.0332 4.4518,-1.55 6.2144,-1.3314 2.5489,0.3138 4.0524,1.3589 4.5856,2.4883 0.3172,0.6754 0.2432,1.417 -0.3124,1.9437 -0.8354,0.7903 -2.5682,1.1523 -5.2483,0.5077"
     inkscape:connector-curvature="0" /><path
     id="path5146"
     style="fill:#ffcf00;fill-opacity:1;fill-rule:nonzero;stroke:none"
     d="m 190.2926,513.2183 c 3.6057,0.8756 6.1435,0.1888 7.53,-1.124 1.3308,-1.2603 1.6171,-3.1393 0.8447,-4.7806 -0.853,-1.8139 -3.0206,-3.4594 -6.5234,-3.8925 -1.5259,-0.1891 -3.3256,0.0572 -5.1797,0.6446 -2.3548,0.748 -4.601,1.9581 -6.5577,3.4631 -1.7518,1.347 -3.3341,3.0004 -4.4036,4.9243 0.7849,0.2293 1.3535,0.9193 1.4283,1.7342 0.9122,-2.0208 2.5322,-3.7372 4.3104,-5.095 1.764,-1.347 3.7267,-2.4216 5.8496,-3.09 1.5525,-0.4895 3.0464,-0.6936 4.3069,-0.5383 2.7066,0.3356 4.3217,1.4794 4.9068,2.7218 0.3937,0.8374 0.2838,1.7683 -0.3988,2.4166 -0.9292,0.8787 -2.7975,1.2991 -5.6316,0.6117 -2.0543,-0.4992 -4.0734,-2.2833 -5.5318,-3.8271 -0.6596,0.2971 -1.2736,0.646 -1.8502,1.0403 1.7929,1.9846 4.2772,4.1551 6.9001,4.7909 z m -6.9384,-8.1026 c -1.7586,-2.4633 -3.0421,-5.4147 -2.9948,-8.2868 -0.3917,0.6066 -1.0978,0.9797 -1.8674,0.9097 -0.0556,-0.005 -0.112,-0.0122 -0.1664,-0.0224 0.1907,2.967 1.5074,5.9334 3.253,8.437 0.5667,-0.3722 1.1489,-0.6834 1.7756,-1.0375"
     inkscape:connector-curvature="0" /><path
     id="path5148"
     style="fill:#000000;fill-opacity:1;fill-rule:evenodd;stroke:none"
     d="m 177.7215,514.5837 c 0.1162,-1.2603 -0.8113,-2.3768 -2.071,-2.4931 -1.26,-0.117 -2.3765,0.811 -2.4931,2.0722 -0.1159,1.26 0.8119,2.3748 2.0719,2.4908 1.2594,0.1173 2.376,-0.8102 2.4922,-2.0699 z m -0.5797,-0.0553 c 0.0868,-0.9382 -0.6046,-1.7719 -1.5449,-1.8581 -0.9396,-0.0864 -1.773,0.6049 -1.86,1.5449 -0.0854,0.9403 0.606,1.7734 1.5457,1.8598 0.94,0.0868 1.7731,-0.6055 1.8592,-1.5466"
     inkscape:connector-curvature="0" /><path
     id="path5150"
     style="fill:#000000;fill-opacity:1;fill-rule:evenodd;stroke:none"
     d="m 180.9578,495.9575 c 0.1168,-1.2594 -0.8107,-2.376 -2.0715,-2.4925 -1.2597,-0.1156 -2.3763,0.8116 -2.4923,2.0719 -0.115,1.2591 0.811,2.3768 2.0725,2.4911 1.2591,0.117 2.3748,-0.8099 2.4913,-2.0705 z m -0.5794,-0.0532 c 0.0873,-0.9403 -0.6052,-1.7723 -1.5446,-1.8593 -0.9405,-0.0881 -1.7719,0.6055 -1.8581,1.5452 -0.0887,0.9402 0.6038,1.7722 1.5432,1.8595 0.9394,0.0862 1.7728,-0.6058 1.8595,-1.5454"
     inkscape:connector-curvature="0" /><path
     id="path5152"
     style="fill:#000000;fill-opacity:1;fill-rule:evenodd;stroke:none"
     d="m 186.3077,517.6738 c -2.31,-0.3187 -5.3178,-0.0596 -6.9137,-1.1549 -7.0861,-4.856 -7.0308,-17.2162 0.3883,-19.8039 1.8811,-0.656 3.6414,-0.1792 5.2968,1.271 0.9627,1.0307 2.107,1.6674 3.3727,1.7858 4.1833,0.3858 8.1082,-5.0672 8.7641,-12.1767 0.6554,-7.1096 -2.2042,-13.1891 -6.3887,-13.5752 -1.4797,-0.1369 -2.9285,0.4592 -4.2086,1.5996 -1.0967,0.6458 -2.1251,1.1109 -3.2142,1.5137 -3.7414,1.3825 -6.0928,2.3729 -9.1806,5.0726 -10.9981,9.6166 -11.2393,29.9948 2.6601,37.2668 0.9022,0.4697 1.6761,1.2906 2.486,1.908 1.5202,1.1628 3.1694,2.293 4.7162,3.1706 l 2.2216,-6.8774 z"
     inkscape:connector-curvature="0" /><g
     id="g5154"><g
       id="g5156"><g
         id="g5162"><path
           id="path5176"
           style="fill:url(#radialGradient5164);fill-rule:evenodd;stroke:none"
           d="m 178.5152,496.9845 c 0.3626,-0.1975 0.7455,-0.371 1.1514,-0.5145 0.1409,-0.0487 0.2812,-0.0929 0.4213,-0.1312 1.506,-0.4079 2.9429,-0.1363 4.3064,0.8084 -1.7864,-2.5032 -2.7397,-6.527 -2.3312,-10.9505 0.3982,-4.3123 1.9987,-8.0147 4.1306,-10.1755 -0.9249,0.5199 -1.8119,0.9184 -2.7454,1.2651 -3.7006,1.3725 -6.0273,2.3593 -9.0813,5.0414 -0.1015,0.0887 -0.2007,0.1803 -0.2999,0.2721 -0.512,0.4692 -1.0006,0.9601 -1.4655,1.4729 0.1159,4.9434 2.2184,9.2452 5.9136,12.9118"
           inkscape:connector-curvature="0" /></g></g></g><g
     id="g5178"><g
       id="g5180"><g
         id="g5186"><path
           id="path5200"
           style="fill:url(#radialGradient5188);fill-rule:evenodd;stroke:none"
           d="m 176.4522,513.9641 c -0.5999,-0.8365 -1.0925,-1.7459 -1.4806,-2.6955 -2.1382,-5.2719 -0.9796,-11.814 3.5436,-14.2841 -3.6952,-3.6666 -5.7977,-7.9684 -5.9136,-12.9118 -7.3735,8.178 -8.4257,21.7979 -1.6628,30.2879 0.6599,0.8277 1.3926,1.6073 2.2019,2.3284 1.1991,-0.7636 2.3023,-1.6753 3.3115,-2.7249"
           inkscape:connector-curvature="0" /></g></g></g><g
     id="g5202"><g
       id="g5204"><g
         id="g5210"><path
           id="path5220"
           style="fill:url(#linearGradient5212);fill-rule:evenodd;stroke:none"
           d="m 185.5423,517.7588 c -2.217,-0.1891 -4.8297,-0.0159 -6.2838,-1.0196 -1.1081,-0.7642 -2.0427,-1.7116 -2.8063,-2.7751 -1.0092,1.0496 -2.1124,1.9613 -3.3115,2.7249 1.1319,1.0069 2.4115,1.9006 3.8424,2.6518 0.892,0.4689 1.656,1.2835 2.4556,1.8961 1.2867,0.9873 2.759,1.9789 4.1154,2.7921 -0.4842,-0.7667 -0.5769,-2.0846 -0.1633,-3.4497 0.4312,-1.4205 1.2901,-2.4939 2.1515,-2.8205"
           inkscape:connector-curvature="0" /></g></g></g><g
     id="g5222"><g
       id="g5224"><g
         id="g5230"><path
           id="path5244"
           style="fill:url(#linearGradient5232);fill-rule:evenodd;stroke:none"
           d="m 177.1543,497.9299 c 1.1234,-0.9765 2.6351,-1.7328 4.1485,-1.7728 -4.0484,-1.6787 -6.8956,-11.6232 -4.7183,-15.5767 -2.7836,1.9304 -5.11,4.4502 -6.8031,7.3888 -0.2291,3.617 3.3511,9.709 7.3729,9.9607"
           inkscape:connector-curvature="0" /></g></g></g><g
     id="g5246"><g
       id="g5248"><g
         id="g5254"><path
           id="path5268"
           style="fill:url(#linearGradient5256);fill-rule:evenodd;stroke:none"
           d="m 177.6257,515.3615 c -1.0437,-1.0632 -1.8666,-2.315 -2.4676,-3.6615 -1.1987,1.2408 -2.5761,2.1923 -4.1085,2.7981 1.0162,1.2512 2.2045,2.3896 3.5725,3.3789 1.0556,-0.5139 2.1274,-1.4539 3.0036,-2.5155"
           inkscape:connector-curvature="0" /></g></g></g><g
     id="g5270"><g
       id="g5272"><g
         id="g5278"><path
           id="path5292"
           style="fill:url(#linearGradient5280);fill-rule:evenodd;stroke:none"
           d="m 185.5434,517.7591 c -1.9224,-0.163 -4.1422,-0.0564 -5.6471,-0.6781 -0.6288,0.7674 -1.3235,2.0498 -1.6269,3.1717 0.3943,0.3331 0.7784,0.6826 1.1693,0.9842 1.2867,0.9873 2.759,1.9789 4.1154,2.7921 -0.4842,-0.7667 -0.5769,-2.0846 -0.1633,-3.4497 0.4312,-1.4205 1.2901,-2.4939 2.1526,-2.8202"
           inkscape:connector-curvature="0" /></g></g></g><g
     id="g5294"><g
       id="g5296"><g
         id="g5302"><path
           id="path5310"
           style="fill:url(#linearGradient5304);fill-rule:evenodd;stroke:none"
           d="m 196.7808,487.5554 c 0.6344,-6.8704 -2.05,-12.7369 -5.9933,-13.1001 -3.9424,-0.3639 -7.6555,4.9119 -8.2893,11.7814 -0.6339,6.87 2.05,12.7363 5.993,13.1009 3.9433,0.3631 7.6561,-4.9125 8.2896,-11.7822"
           inkscape:connector-curvature="0" /></g></g></g><g
     id="g5312"><g
       id="g5314"><g
         id="g5320"><path
           id="path5330"
           style="fill:url(#linearGradient5322);fill-rule:evenodd;stroke:none"
           d="m 195.3777,487.4247 c 0.5326,-5.7643 -1.4539,-10.6625 -4.4346,-10.9381 -2.9794,-0.2738 -5.8277,4.1783 -6.36,9.9426 -0.5313,5.7651 1.4536,10.6631 4.4339,10.938 2.9806,0.275 5.8286,-4.1768 6.3607,-9.9425"
           inkscape:connector-curvature="0" /></g></g></g><path
     id="path5332"
     style="fill:#000000;fill-opacity:1;fill-rule:evenodd;stroke:none"
     d="m 187.3689,521.7849 c 0.5826,-1.9194 0.163,-3.7449 -0.9343,-4.0766 -1.0987,-0.3342 -2.4618,0.9516 -3.0438,2.871 -0.5817,1.9176 -0.1627,3.7434 0.9352,4.0768 1.0987,0.3328 2.461,-0.9533 3.0429,-2.8712"
     inkscape:connector-curvature="0" /><path
     id="path5334"
     style="fill:#ffcf00;fill-opacity:1;fill-rule:evenodd;stroke:none"
     d="m 186.9506,521.6573 c 0.5127,-1.6872 0.2233,-3.2692 -0.6435,-3.5311 -0.8671,-0.2645 -1.9848,0.8912 -2.4973,2.5787 -0.5123,1.6883 -0.224,3.2697 0.6437,3.5322 0.8674,0.2636 1.9862,-0.8912 2.4971,-2.5798"
     inkscape:connector-curvature="0" /><path
     id="path5336"
     style="fill:#000000;fill-opacity:1;fill-rule:evenodd;stroke:none"
     d="m 186.3785,521.4691 c 0.3135,-1.0321 0.1463,-1.9959 -0.3722,-2.1524 -0.5196,-0.1579 -1.1936,0.5508 -1.5066,1.5823 -0.3129,1.0324 -0.1465,1.9967 0.3736,2.1544 0.5196,0.1561 1.1934,-0.5534 1.5052,-1.5843"
     inkscape:connector-curvature="0" /><path
     id="path5338"
     style="fill:#e6a800;fill-opacity:1;fill-rule:evenodd;stroke:none"
     d="m 185.961,521.3424 c 0.2426,-0.8005 0.2066,-1.5214 -0.0819,-1.6087 -0.2892,-0.0865 -0.7189,0.4907 -0.9618,1.2926 -0.2435,0.8005 -0.2064,1.5214 0.0819,1.6087 0.2883,0.0864 0.7186,-0.4919 0.9618,-1.2926"
     inkscape:connector-curvature="0" /></g></svg>