<?xml version="1.0" encoding="UTF-8" standalone="no"?>
<!-- Created with Inkscape (http://www.inkscape.org/) -->
<svg id="svg2998" xmlns:rdf="http://www.w3.org/1999/02/22-rdf-syntax-ns#" xmlns="http://www.w3.org/2000/svg" height="365" width="300" version="1.1" xmlns:cc="http://creativecommons.org/ns#" xmlns:dc="http://purl.org/dc/elements/1.1/">
 <defs id="defs3000">
  <linearGradient id="linearGradient3140" x1="0.37" gradientUnits="userSpaceOnUse" gradientTransform="matrix(127.83244,-128.90455,128.90656,127.83444,168.2535,429.1605)" x2="0.63">
   <stop id="stop3142" stop-color="#000" offset="0"/>
   <stop id="stop3144" stop-color="#a5dcdc" offset="0.52"/>
   <stop id="stop3146" stop-color="#000" offset="1"/>
  </linearGradient>
  <linearGradient id="linearGradient3120" x1="0.42" gradientUnits="userSpaceOnUse" gradientTransform="matrix(128.27328,-127.92131,127.9149,128.26686,174.2502,432.6695)" x2="0.58">
   <stop id="stop3122" stop-color="#000" offset="0"/>
   <stop id="stop3124" stop-color="#a5dcdc" offset="0.52"/>
   <stop id="stop3126" stop-color="#000" offset="1"/>
  </linearGradient>
  <radialGradient id="radialGradient3100" cx="0" gradientUnits="userSpaceOnUse" cy="0" r="0.65" gradientTransform="matrix(9.74126,0,0,9.74126,238.5357,372.9566)">
   <stop id="stop3102" stop-color="#a5dcdc" offset="0"/>
   <stop id="stop3104" stop-color="#333" offset="1"/>
  </radialGradient>
  <linearGradient id="linearGradient3074" x1="0.37" gradientUnits="userSpaceOnUse" gradientTransform="matrix(118.54489,135.7546,-136.46411,119.16445,307.2234,298.6662)" x2="0.63">
   <stop id="stop3076" stop-color="#000" offset="0"/>
   <stop id="stop3078" stop-color="#a5dcdc" offset="0.52"/>
   <stop id="stop3080" stop-color="#000" offset="1"/>
  </linearGradient>
  <linearGradient id="linearGradient3054" x1="0.42" gradientUnits="userSpaceOnUse" gradientTransform="matrix(117.70389,136.31105,-136.83948,118.16019,303.2158,304.295)" x2="0.58">
   <stop id="stop3056" stop-color="#000" offset="0"/>
   <stop id="stop3058" stop-color="#a5dcdc" offset="0.52"/>
   <stop id="stop3060" stop-color="#000" offset="1"/>
  </linearGradient>
  <radialGradient id="radialGradient3034" cx="0" gradientUnits="userSpaceOnUse" cy="0" r="0.64" gradientTransform="matrix(9.74041,0,0,9.74041,357.9925,376.5152)">
   <stop id="stop3036" stop-color="#a5dcdc" offset="0"/>
   <stop id="stop3038" stop-color="#333" offset="1"/>
  </radialGradient>
  <style id="style3025" type="text/css">.str0 {stroke:#FF6600;stroke-width:0.7056}
    .fil1 {fill:none}
    .fil0 {fill:#A90000}</style>
 </defs>
 <metadata id="metadata3003">
  <rdf:RDF>
   <cc:Work rdf:about="">
    <dc:format>image/svg+xml</dc:format>
    <dc:type rdf:resource="http://purl.org/dc/dcmitype/StillImage"/>
    <dc:title/>
   </cc:Work>
  </rdf:RDF>
 </metadata>
 <g id="layer1" transform="translate(-110.80395,-412.68769)">
  <path id="path3029" d="m332.56,587.22c2.9349,0,5.315,2.38,5.315,5.315v5.3142c0,2.9349-2.38,5.315-5.315,5.315h-5.315v-15.944zm0,21.259c5.8698,0,10.63-4.7601,10.63-10.63v-5.3142c0-5.8698-4.7601-10.63-10.63-10.63h-10.63v26.574zm-21.26-26.574,5.315,0,0,26.574-5.315,0zm-10.63,0,5.315,0,0,26.574-5.315,0-10.63-16.684,0,16.684-5.315,0,0-26.574,5.315,0,10.63,16.684zm-79.724,0.00036,15.945,0,0,5.315-10.63,0,0,5.3146,10.63,0,0,5.315-10.63,0,0,5.3146,10.63,0,0,5.315-15.945,0zm-21.26-0.00071,5.315,0,0,21.26,10.63,0,0,5.315-15.945,0zm55.808,21.26,5.3135,0c4.4022,0,7.9724-3.5702,7.9724-7.9724s-3.6365-7.9572-7.9724-7.9724h-5.3135v5.315h5.3135c1.4673,0,2.6575,1.1902,2.6575,2.6575s-1.1902,2.6575-2.6575,2.6575h-5.3135zm5.3135-26.575c10.272,0,18.602,8.3303,18.602,18.602s-8.3303,18.602-18.602,18.602-18.602-8.3303-18.602-18.602,8.3303-18.602,18.602-18.602zm-13.287,18.602c0,7.3371,5.9503,13.287,13.287,13.287,7.3371,0,13.287-5.9503,13.287-13.287,0-7.3371-5.9503-13.287-13.287-13.287-7.3371,0-13.287,5.9503-13.287,13.287z" class="fil0" fill="#a90000"/>
  <g id="g3014" transform="matrix(1.863361,0,0,-1.8627248,-293.80272,1383.0643)">
   <path id="path3016" fill-rule="evenodd" fill="#000" d="m378.14,520.94,0-166.21c0-9.2977-7.6071-16.905-16.905-16.905h-46.754c-7.8698-0.0298-14.512-5.508-16.34-12.839h-1.0003c-1.8269,7.331-8.4719,12.809-16.342,12.839h-46.754c-9.2977,0-16.905,7.6071-16.905,16.905v166.21h161"/>
   <path id="path3018" fill-rule="evenodd" fill="#FFF" d="m377.43,520.24v-165.5c0-8.9328-7.2675-16.2-16.2-16.2h-46.754c-7.9806-0.0303-14.719-5.4147-16.84-12.725-2.1215,7.3106-8.86,12.695-16.838,12.725h-46.756c-8.9331,0-16.201,7.2675-16.201,16.2v165.5h159.59"/>
   <path id="path3020" fill-rule="nonzero" fill="#de212b" d="m297.64,329.2c3.0591,6.2283,9.3875,10.318,16.254,10.554,0.1786,0.006,0.375,0.01,0.5867,0.0107v0.005h46.754,0.005v-0.005c8.1887,0.002,14.966,6.7799,14.966,14.969h-0.005v0.003h0.005v164.27h-157.13v-164.27h0.005v-0.003h-0.005c0.0002-8.189,6.7773-14.967,14.966-14.969v0.005h0.005,46.754v-0.005c0.2117-0.0008,0.4085-0.005,0.587-0.0107,6.8661-0.2359,13.194-4.3257,16.254-10.554"/>
   <path id="path3022" fill-rule="evenodd" fill="#000" d="m353.79,378.45c2.2515,2.6455,6.2215,2.9656,8.8662,0.7143,2.6453-2.2499,2.9659-6.2201,0.7149-8.8659-2.2504-2.6447-6.2201-2.9645-8.8654-0.7138-2.6453,2.2502-2.9659,6.2204-0.7157,8.8654"/>
   <g id="g3024">
    <g id="g3026">
     <g id="g3032">
      <path id="path3040" fill-rule="evenodd" fill="url(#radialGradient3034)" d="m354.87,371.22c1.743-2.0489,4.8178-2.2969,6.8661-0.5539,2.0489,1.7428,2.2969,4.8175,0.5539,6.8664-1.7427,2.0483-4.8175,2.2963-6.8661,0.5533-2.0486-1.7427-2.2966-4.8172-0.5539-6.8658"/>
     </g>
    </g>
   </g>
   <path id="path3042" fill-rule="nonzero" fill="#000" d="m228.67,489.45c2.8236,3.3182,6.7023,4.7457,9.0629,3.4662l10.689-9.19c3.8191,0.9981,6.4389-1.3351,6.0191-5.22,10.662-9.2392,22.047-19.045,33.735-28.649,4.0553,0.97,7.0526-1.3847,6.838-5.563,5.7566-4.6355,11.567-9.1865,17.382-13.564,3.1464,0.6279,5.4711-0.8921,5.6276-4.1293,5.2806-3.7593,10.688-7.3105,16.157-10.798,3.1306,1.5188,6.736,0.4094,6.2719-3.9809,1.7005-1.0815,3.4359-2.1921,5.2232-3.3554,1.6384,0.4921,3.6994,0.498,5.053-0.6537,0.9641-0.8198,1.4502-2.1007,1.5046-3.7026,2.2754-1.5437,4.6545-3.1958,7.1669-4.9924,2.1274,0.5165,3.9069,0.33,5.104-0.6874,3.778-3.2142,0.326-13.48-7.7096-22.925-8.0337-9.445-17.614-14.496-21.392-11.283-0.9884,0.8402-1.4816,2.1668-1.5273,3.833-2.4052,2.7028-4.574,5.2651-6.5735,7.719-1.2076-0.0156-2.2366,0.2906-3.0172,0.9542-1.1611,0.9887-1.6314,2.6478-1.4845,4.7324-1.4414,1.8709-2.806,3.6902-4.1298,5.4732-3.8818-0.6753-4.9088,2.3697-4.195,5.6551-4.0433,5.4071-8.0263,10.587-12.416,15.587-3.2272-0.2171-4.8234,2.0923-4.6576,5.0749-5.1174,5.3912-10.354,10.665-15.678,15.854-3.9921-0.6292-6.4633,2.0163-6.1617,5.9378-10.733,10.232-21.743,20.185-32.724,30.14-1.5746-0.364-3.0064-0.2098-4.0819,0.5482-1.5315,1.0806-1.8649,2.9577-1.6888,4.6899l-10.266,9.4006-0.1171,0.1082,0.0159,0.0185c-1.6401,2.1251-0.8541,6.1812,1.9692,9.5006"/>
   <g id="g3044">
    <g id="g3046">
     <g id="g3052">
      <path id="path3062" fill="url(#linearGradient3054)" d="m328.97,375.97c1.647-2.0056,3.3339-3.9756,5.0386-5.9315l0.001,0.009c0.0287-0.0266,0.0545-0.0516,0.0822-0.0762,2.9549-2.5138,10.742,1.7838,17.39,9.5975,6.6473,7.8132,9.6404,16.188,6.6861,18.703-1.8014,1.5322-4.0515,2.8432-6.0125,4.1823-0.5273-4.3013-3.4492-10.181-8.1516-15.709-5.023-5.9034-10.769-9.8685-15.034-10.775zm11.216,34.346c-0.4161-1.7022-1.1307-3.3364-1.9377-4.8855-3.2638-6.26-9.3402-13.247-15.341-16.782-0.9694-0.572-1.8986-1.0168-2.7652-1.3204,1.2839-1.7257,2.6079-3.486,4.0043-5.2943,2.2957-1.8969,8.9671,2.1275,14.814,9.0003,5.6103,6.5946,8.5175,13.435,6.7637,15.712-1.9003,1.2418-3.7394,2.4239-5.5389,3.5699zm-24.786-16.583,0.2024-0.0947,0.007-0.003c1.6361-0.7651,4.2755,0.8104,5.5723,1.6486,4.6925,3.0348,9.0757,8.2672,11.458,13.368,0.9352,2.0038,1.7113,4.4923,0.6438,6.0477-5.1897,3.3123-10.323,6.6798-15.346,10.23-0.0672-0.4566-0.1664-0.9306-0.2968-1.4156-1.5293-5.6582-6.9432-12.021-12.283-14.436-0.5723-0.2588-1.1336-0.4638-1.6756-0.6166,4.1171-4.7418,7.956-9.6843,11.718-14.728zm-16.323,19.806c0.7447-0.2517,1.9018,0.0332,3.2514,0.7432,3.9645,2.0846,8.2678,7.1436,9.6905,11.39,0.5233,1.5647,0.5941,2.8293,0.1105,3.4892-5.8019,4.3554-11.593,8.8815-17.334,13.493-0.6134-2.9186-2.2456-5.6481-4.1641-7.8781-1.931-2.2374-4.4609-4.3027-7.2941-5.2713,5.3456-5.224,10.602-10.536,15.74-15.967zm-10.254,33.96c-11.98,9.8036-23.671,19.862-34.689,29.408-0.5457-1.9996-1.7084-4.2117-3.4067-6.2669-1.7013-2.048-3.8545-3.9152-6.3439-4.9518,11.209-10.158,22.438-20.319,33.372-30.784,2.6033-1.6948,6.7961,1.9234,8.3194,3.6652,1.6274,1.8689,4.5346,6.3567,2.7488,8.9303zm-49.166,41.951c0.0856-2.1005-0.8935-4.6982-2.8131-6.954-1.982-2.3301-4.483-3.727-6.6146-3.9109,2.8476-2.6201,5.7733-5.2872,8.7599-8.002,2.3456-1.5122,6.1988,2.1204,7.4854,3.6876,1.0281,1.2578,3.712,5.4165,2.1169,7.4404-3.0404,2.6382-6.0222,5.224-8.9345,7.7389"/>
     </g>
    </g>
   </g>
   <g id="g3064">
    <g id="g3066">
     <g id="g3072">
      <path id="path3082" fill="url(#linearGradient3074)" d="m289.69,448.67c2.789-3.0459-0.3697-8.4989-2.4784-10.944-2.0696-2.3978-6.8612-6.2144-10.235-3.9999,0.3106-3.3353,3.4052-3.8288,6.1656-2.7854,2.1263,0.8045,4.4294,2.4526,6.4213,4.76,1.7799,2.0684,3.3109,4.6128,3.8631,7.3275,0.5936,2.8936-0.3447,5.8672-3.7366,5.6413zm70.515-50.681c1.6838-3.9288-1.3476-11.931-7.602-19.282-6.0704-7.136-13.233-11.372-17.442-10.671,0.0714-1.1905,0.4461-2.1311,1.1574-2.7362,3.1838-2.7069,11.87,2.2722,19.401,11.122,7.5271,8.8486,11.052,18.223,7.869,20.931-0.8093,0.6877-1.9741,0.8787-3.384,0.6367zm-13.233,9.4116c1.7912-3.0504-1.08-10.405-6.9332-17.283-5.8504-6.8786-12.65-10.892-15.948-9.6123,0.0683-1.1602,0.4362-2.0795,1.1338-2.6734,2.994-2.5472,10.923,1.8536,17.706,9.8263,6.7827,7.9736,9.8566,16.504,6.861,19.052-0.6957,0.5935-1.6623,0.809-2.8197,0.6908zm-12.038,7.1773c0.5255-1.5749,0.1034-3.9436-1.1004-6.6209-2.3531-5.2294-6.9327-10.565-11.654-13.703-1.7337-1.1531-4.1723-2.5324-6.361-2.1464-0.5326-1.493-0.1465-2.7215,0.4028-3.2995,1.0446-1.1021,3.403-0.4564,5.9675,1.0556,5.7461,3.3863,11.659,10.189,14.792,16.191,0.6707,1.2872,1.7655,3.6023,2.045,5.5925,0.1998,1.4222-0.003,2.6677-0.9582,3.1615-0.6553,0.3367-2.0219,0.4802-3.1339-0.2313zm-21.369,14.88c0.4507-1.0624,0.3583-2.545-0.2069-4.2327-1.539-4.5972-6.0798-9.936-10.371-12.193-1.5755-0.8288-3.0259-1.1585-4.1476-0.8849,0.3586-3.1,3.3514-2.9495,5.9343-1.7793,4.953,2.2393,10.083,8.2678,11.501,13.516,0.5976,2.2144,0.6585,5.7297-2.7099,5.5738zm-63.824,53.083c0.5984-0.79,0.8113-1.8774,0.671-3.1164h0.001c-0.2531-2.2476-1.4972-4.4164-2.9131-6.1271-1.8205-2.1892-5.9262-5.688-9.0536-4.0294,0.1749-3.0249,2.8686-3.2806,5.2299-2.3412,2.3428,0.9323,4.3724,2.6963,5.9601,4.6117,1.7062,2.0628,2.8205,4.2778,3.2491,6.213,0.5465,2.4735-0.1315,5.0975-3.1448,4.7894"/>
     </g>
    </g>
   </g>
   <path id="path3084" stroke-linejoin="miter" d="m229.75,488.53c2.5673,3.0172,5.9952,4.3177,7.6563,2.9043,1.6614-1.4133,0.9275-5.0065-1.6392-8.0228-2.566-3.0172-5.995-4.3172-7.6564-2.9036-1.6605,1.4122-0.9275,5.0057,1.6393,8.0221z" fill-rule="evenodd" stroke="#000" stroke-linecap="butt" stroke-miterlimit="10" stroke-dasharray="none" stroke-width="0.21600001" fill="#abbfbf"/>
   <path id="path3086" fill-rule="evenodd" fill="#000" d="m230.87,487.58c2.0293,2.3854,4.5232,3.5986,5.5684,2.7091,1.0454-0.8895,0.248-3.5447-1.7819-5.9307-2.0299-2.3853-4.5224-3.5977-5.5692-2.7085-1.0434,0.8895-0.2478,3.5448,1.7827,5.9301"/>
   <path id="path3088" fill-rule="evenodd" fill="#000" d="m245.09,376.66c2.477-2.4349,2.5118-6.4173,0.078-8.8945-2.435-2.4769-6.4174-2.5118-8.8945-0.0777-2.4767,2.4341-2.5118,6.4174-0.0777,8.8946,2.4341,2.4766,6.4173,2.5115,8.8942,0.0776"/>
   <g id="g3090">
    <g id="g3092">
     <g id="g3098">
      <path id="path3106" fill-rule="evenodd" fill="url(#radialGradient3100)" d="m244.09,375.65c1.9177-1.8856,1.9449-4.97,0.0601-6.8891-1.8856-1.9179-4.97-1.9445-6.889-0.0598-1.9179,1.8853-1.9446,4.97-0.0598,6.8888,1.8853,1.9176,4.97,1.9443,6.8887,0.0601"/>
     </g>
    </g>
   </g>
   <path id="path3108" fill-rule="nonzero" fill="#000" d="m364.77,493.5c3.1077-3.054,4.2534-7.0248,2.8089-9.2877l-9.9329-10.002c0.7211-3.8818-1.7935-6.3275-5.6375-5.6299-9.9808-9.9734-20.578-20.626-30.995-31.596,0.6769-4.1139-1.8862-6.9344-6.0387-6.4208-5.036-5.4091-9.9921-10.879-14.775-16.365,0.4008-3.1831-1.2815-5.393-4.5215-5.317-4.129-4.9978-8.0578-10.137-11.929-15.341,1.2904-3.2303-0.0739-6.7481-4.42-5.9706-1.2011-1.618-2.4333-3.2698-3.7213-4.9691,0.3733-1.6696,0.2316-3.7256-1.0146-4.9935-0.8866-0.9026-2.1991-1.2946-3.8001-1.2351-1.7033-2.1586-3.5215-4.4132-5.4938-6.7907,0.3637-2.1583,0.049-3.9206-1.0519-5.0411-3.4767-3.5379-13.469,0.6412-22.314,9.3328-8.8441,8.691-13.196,18.609-9.72,22.146,0.9099,0.9258,2.2677,1.3218,3.9322,1.2481,2.8692,2.2054,5.5803,4.1851,8.17,6.0038,0.0723,1.2053,0.4507,2.2096,1.169,2.9404,1.0693,1.0879,2.7587,1.4366,4.8266,1.142,1.9701,1.3034,3.882,2.5342,5.7546,3.727-0.3946,3.9201,2.7167,4.7257,5.942,3.7786,5.6823,3.6459,11.135,7.2462,16.436,11.265,0.0153,3.2352,2.433,4.6627,5.396,4.2823,5.7447,4.7185,11.38,9.5641,16.937,14.501-0.341,4.0272,2.4758,6.3026,6.365,5.7206,10.976,9.9734,21.692,20.24,32.409,30.48-0.2511,1.597,0.006,3.0127,0.8394,4.032,1.1868,1.4494,3.084,1.6478,4.7982,1.3482l10.113,9.5658,0.1157,0.1085,0.0173-0.017c2.2373,1.4837,6.2268,0.4082,9.3344-2.6456"/>
   <g id="g3110">
    <g id="g3112">
     <g id="g3118">
      <path id="path3128" fill="url(#linearGradient3120)" d="m244.39,401.59c-2.1183-1.4987-4.2044-3.0401-6.277-4.6006l0.008-0.002c-0.0275-0.0255-0.055-0.0505-0.0814-0.0771-2.7193-2.7672,1.0089-10.842,8.3259-18.033,7.3165-7.1901,15.456-10.777,18.175-8.0096,1.6577,1.6869,3.1269,3.8367,4.6027,5.6974-4.252,0.8342-9.9077,4.17-15.084,9.2565-5.5289,5.4335-9.0711,11.449-9.6695,15.768zm33.454-13.65c-1.6679,0.5371-3.2459,1.3668-4.7335,2.2835-6.0103,3.7038-12.543,10.266-15.64,16.503-0.5009,1.0082-0.8765,1.9663-1.1191,2.8527-1.8125-1.1565-3.6627-2.3513-5.5667-3.6141-2.0571-2.1541,1.4794-9.0964,7.9158-15.422,6.1755-6.0687,12.789-9.4581,15.186-7.873,1.376,1.8071,2.6858,3.5569,3.958,5.2691zm-14.763,25.911-0.1094-0.195-0.003-0.006c-0.8805-1.5778,0.5014-4.3234,1.245-5.6778,2.6898-4.8971,7.5951-9.6443,12.512-12.386,1.931-1.0766,4.3583-2.0281,5.9862-1.0754,3.676,4.9393,7.4027,9.8186,11.304,14.574-0.4507,0.0987-0.9159,0.2316-1.3904,0.3972-5.5344,1.9309-11.492,7.7865-13.519,13.286-0.2174,0.5893-0.3824,1.1636-0.4938,1.7158-5.0252-3.7676-10.231-7.2414-15.531-10.632zm20.926,14.86c-0.3048-0.7237-0.1038-1.8987,0.5076-3.2956,1.7949-4.1031,6.5325-8.7585,10.666-10.481,1.5239-0.6349,2.7797-0.796,3.4727-0.3611,4.7603,5.4748,9.6892,10.927,14.701,16.322-2.867,0.8217-5.4737,2.6458-7.5597,4.7177-2.0937,2.0871-3.9728,4.7588-4.7345,7.6541-5.5941-4.957-11.269-9.8204-17.054-14.556zm34.608,7.7941c10.636,11.247,21.508,22.187,31.818,32.492-1.9556,0.6872-4.0785,2.0058-6.006,3.8478-1.9202,1.8425-3.6292,4.1241-4.4847,6.6804-10.935-10.45-21.876-20.923-33.097-31.078-1.8771-2.4749,1.431-6.916,3.0586-8.5609,1.7482-1.7569,6.016-4.9785,8.7112-3.3815zm45.366,46.033c-2.1008,0.0649-4.6213,1.228-6.734,3.304-2.1821,2.1442-3.3965,4.7387-3.4265,6.8783-2.8174-2.6529-5.688-5.3793-8.6091-8.1643-1.6767-2.2309,1.6704-6.3343,3.1405-7.7301,1.1812-1.1157,5.1372-4.091,7.2703-2.6453,2.8494,2.8446,5.6421,5.6333,8.3588,8.3574"/>
     </g>
    </g>
   </g>
   <g id="g3130">
    <g id="g3132">
     <g id="g3138">
      <path id="path3148" fill="url(#linearGradient3140)" d="m319.72,435.56c-3.2375-2.5631-8.4495,0.978-10.737,3.2567-2.2425,2.2357-5.7064,7.2885-3.2558,10.495-3.3489-0.0709-4.0632-3.1218-3.2199-5.9505,0.6494-2.1775,2.1285-4.5938,4.2877-6.7456,1.9346-1.9236,4.3633-3.6329,7.0307-4.3781,2.8438-0.7991,5.8768-0.0771,5.8947,3.3225zm-55.605-66.7c-4.0393-1.3977-11.804,2.1994-18.688,8.9643-6.6824,6.5668-10.394,14.015-9.3926,18.162-1.1934,0.0141-2.1581-0.2928-2.8129-0.9593-2.9293-2.9806,1.4159-12.003,9.7027-20.146,8.2874-8.1439,17.384-12.331,20.313-9.35,0.7441,0.7574,1.0179,1.9057,0.8776,3.3295zm10.336,12.524c-3.1708-1.5675-10.3,1.8233-16.742,8.1533-6.4414,6.3301-9.9564,13.399-8.4441,16.597-1.1625,0.015-2.1062-0.286-2.7479-0.9391-2.7556-2.8041,1.0655-11.027,8.5323-18.365,7.4661-7.3372,15.755-11.014,18.51-8.2102,0.642,0.6531,0.9263,1.6018,0.8912,2.7637zm8.0218,11.493c-1.6084-0.4122-3.9402,0.1789-6.5254,1.5721-5.0471,2.7215-10.04,7.6717-12.831,12.606-1.0256,1.8119-2.2261,4.3432-1.6846,6.4987-1.4517,0.6386-2.7049,0.3401-3.3203-0.1647-1.1743-0.9638-0.6993-3.3625,0.6248-6.0285,2.9665-5.9743,9.328-12.359,15.09-15.915,1.2353-0.7625,3.4656-2.0194,5.4312-2.4409,1.404-0.301,2.6608-0.1882,3.2215,0.7302,0.383,0.6282,0.6236,1.9817-0.006,3.1422zm16.373,20.246c-1.0919-0.3722-2.5647-0.1738-4.2074,0.5108-4.4745,1.8646-9.474,6.7774-11.417,11.219-0.7138,1.6313-0.9386,3.1011-0.5851,4.1998-3.1181-0.1352-3.1825-3.13-2.2017-5.7909,1.88-5.1012,7.5252-10.649,12.658-12.44,2.1648-0.7552,5.6659-1.0678,5.7529,2.302zm57.521,59.854c-0.8309-0.5394-1.9299-0.6735-3.1559-0.4448v-0.001c-2.2235,0.4136-4.2976,1.81-5.9025,3.3443-2.054,1.9727-5.2492,6.319-3.3707,9.3198-3.0288,0.0422-3.4764-2.6269-2.7088-5.0488,0.7608-2.4035,2.3751-4.5544,4.1723-6.275,1.9347-1.8499,4.064-3.1213,5.9633-3.6865,2.429-0.7228,5.0947-0.2341,5.0023,2.7924"/>
     </g>
    </g>
   </g>
   <path id="path3150" stroke-linejoin="miter" d="m363.78,492.49c2.8253-2.7765,3.8761-6.2895,2.3476-7.8449-1.529-1.5562-5.0598-0.5664-7.8851,2.2099-2.8253,2.7765-3.8764,6.2892-2.3474,7.8454,1.5285,1.5554,5.0596,0.5658,7.8849-2.2104z" fill-rule="evenodd" stroke="#000" stroke-linecap="butt" stroke-miterlimit="10" stroke-dasharray="none" stroke-width="0.21600001" fill="#abbfbf"/>
   <path id="path3152" fill-rule="evenodd" fill="#000" d="m362.75,491.44c2.2337-2.1948,3.2646-4.769,2.3028-5.7478s-3.5535,0.007-5.7872,2.2023c-2.2337,2.1951-3.2647,4.769-2.3029,5.7478s3.5536-0.007,5.7873-2.2023"/>
  </g>
 </g>
</svg>
