<?xml version="1.0" encoding="UTF-8" standalone="no"?>
<!-- Creator: CorelDRAW -->

<svg
   xmlns:dc="http://purl.org/dc/elements/1.1/"
   xmlns:cc="http://creativecommons.org/ns#"
   xmlns:rdf="http://www.w3.org/1999/02/22-rdf-syntax-ns#"
   xmlns:svg="http://www.w3.org/2000/svg"
   xmlns="http://www.w3.org/2000/svg"
   xmlns:xlink="http://www.w3.org/1999/xlink"
   xmlns:sodipodi="http://sodipodi.sourceforge.net/DTD/sodipodi-0.dtd"
   xmlns:inkscape="http://www.inkscape.org/namespaces/inkscape"
   xml:space="preserve"
   width="299.99997"
   height="378.00003"
   style="fill-rule:evenodd"
   viewBox="0 0 84.666659 106.68001"
   id="svg2"
   version="1.1"
   inkscape:version="0.48.1 "
   sodipodi:docname="горки.svg"><metadata
   id="metadata112"><rdf:RDF><cc:Work
       rdf:about=""><dc:format>image/svg+xml</dc:format><dc:type
         rdf:resource="http://purl.org/dc/dcmitype/StillImage" /></cc:Work></rdf:RDF></metadata><sodipodi:namedview
   pagecolor="#ffffff"
   bordercolor="#666666"
   borderopacity="1"
   objecttolerance="10"
   gridtolerance="10"
   guidetolerance="10"
   inkscape:pageopacity="0"
   inkscape:pageshadow="2"
   inkscape:window-width="596"
   inkscape:window-height="477"
   id="namedview110"
   showgrid="false"
   inkscape:zoom="0.69047615"
   inkscape:cx="149.99999"
   inkscape:cy="189.00001"
   inkscape:window-x="0"
   inkscape:window-y="0"
   inkscape:window-maximized="0"
   inkscape:current-layer="svg2"
   fit-margin-top="0"
   fit-margin-left="0"
   fit-margin-right="0"
   fit-margin-bottom="0" />
 <defs
   id="defs4"><style
     type="text/css"
     id="style6">
   
    .fil0 {fill:black}
    .fil6 {fill:#391D23}
    .fil1 {fill:#FCDB00}
    .fil2 {fill:black;fill-rule:nonzero}
    .fil3 {fill:#009933;fill-rule:nonzero}
    .fil4 {fill:url(#id0);fill-rule:nonzero}
    .fil5 {fill:url(#id1);fill-rule:nonzero}
   
  </style><radialGradient
     id="id0"
     gradientUnits="userSpaceOnUse"
     cx="107.17"
     cy="128.83"
     r="5.0288"
     fx="107.17"
     fy="128.83">
   <stop
   offset="0"
   style="stop-color:#33CC33"
   id="stop9" />
   <stop
   offset="0.658824"
   style="stop-color:#199933"
   id="stop11" />
   <stop
   offset="1"
   style="stop-color:#006633"
   id="stop13" />
  </radialGradient><radialGradient
     id="id1"
     gradientUnits="userSpaceOnUse"
     cx="105.177"
     cy="139.526"
     r="18.060801"
     fx="105.177"
     fy="139.526">
   <stop
   offset="0"
   style="stop-color:#33CC33"
   id="stop16" />
   <stop
   offset="0.411765"
   style="stop-color:#199933"
   id="stop18" />
   <stop
   offset="1"
   style="stop-color:#006633"
   id="stop20" />
  </radialGradient><radialGradient
     inkscape:collect="always"
     xlink:href="#id1"
     id="radialGradient4277"
     gradientUnits="userSpaceOnUse"
     gradientTransform="matrix(1.0200803,0,0,0.80644044,-64.775508,-65.313116)"
     cx="132.07886"
     cy="151.03935"
     fx="132.07886"
     fy="151.03935"
     r="11.83815" /><radialGradient
     inkscape:collect="always"
     xlink:href="#id0"
     id="radialGradient4280"
     gradientUnits="userSpaceOnUse"
     gradientTransform="matrix(1.0200803,0,0,1.2780134,-64.775508,-132.77359)"
     cx="134.47653"
     cy="136.49245"
     fx="134.47653"
     fy="136.49245"
     r="1.8847365" /><radialGradient
     inkscape:collect="always"
     xlink:href="#id0"
     id="radialGradient4283"
     gradientUnits="userSpaceOnUse"
     gradientTransform="matrix(1.0200803,0,0,1.2780168,-64.775508,-132.77404)"
     cx="130.41348"
     cy="136.49245"
     fx="130.41348"
     fy="136.49245"
     r="1.8847317" /><radialGradient
     inkscape:collect="always"
     xlink:href="#id0"
     id="radialGradient4286"
     gradientUnits="userSpaceOnUse"
     gradientTransform="matrix(1.0200803,0,0,1.2780405,-64.775508,-131.78135)"
     cx="134.47653"
     cy="132.64549"
     fx="134.47653"
     fy="132.64549"
     r="1.8847365" /><radialGradient
     inkscape:collect="always"
     xlink:href="#id0"
     id="radialGradient4289"
     gradientUnits="userSpaceOnUse"
     gradientTransform="matrix(1.0200803,0,0,1.2780438,-64.775508,-131.78179)"
     cx="130.41348"
     cy="132.64549"
     fx="130.41348"
     fy="132.64549"
     r="1.8847317" /><radialGradient
     inkscape:collect="always"
     xlink:href="#id0"
     id="radialGradient4292"
     gradientUnits="userSpaceOnUse"
     gradientTransform="matrix(1.0200803,0,0,1.2780134,-64.775508,-130.78218)"
     cx="134.47653"
     cy="128.79945"
     fx="134.47653"
     fy="128.79945"
     r="1.8847365" /><radialGradient
     inkscape:collect="always"
     xlink:href="#id0"
     id="radialGradient4295"
     gradientUnits="userSpaceOnUse"
     gradientTransform="matrix(1.0200803,0,0,1.2780168,-64.775508,-130.7826)"
     cx="130.41348"
     cy="128.79945"
     fx="130.41348"
     fy="128.79945"
     r="1.8847317" /><radialGradient
     inkscape:collect="always"
     xlink:href="#id0"
     id="radialGradient4298"
     gradientUnits="userSpaceOnUse"
     gradientTransform="matrix(1.0200803,0,0,1.2780405,-64.775508,-129.78974)"
     cx="134.47653"
     cy="124.9525"
     fx="134.47653"
     fy="124.9525"
     r="1.8847365" /><radialGradient
     inkscape:collect="always"
     xlink:href="#id0"
     id="radialGradient4301"
     gradientUnits="userSpaceOnUse"
     gradientTransform="matrix(1.0200803,0,0,1.2780438,-64.775508,-129.79015)"
     cx="130.41348"
     cy="124.9525"
     fx="130.41348"
     fy="124.9525"
     r="1.8847317" /><radialGradient
     inkscape:collect="always"
     xlink:href="#id0"
     id="radialGradient4304"
     gradientUnits="userSpaceOnUse"
     gradientTransform="matrix(1.0200803,0,0,1.2780168,-64.775508,-133.76963)"
     cx="130.41348"
     cy="140.33846"
     fx="130.41348"
     fy="140.33846"
     r="1.8847317" /><radialGradient
     inkscape:collect="always"
     xlink:href="#id0"
     id="radialGradient4307"
     gradientUnits="userSpaceOnUse"
     gradientTransform="matrix(1.0200803,0,0,1.2780405,-64.775508,-133.77012)"
     cx="134.47653"
     cy="140.3275"
     fx="134.47653"
     fy="140.3275"
     r="1.8847365" /><radialGradient
     inkscape:collect="always"
     xlink:href="#id0"
     id="radialGradient4310"
     gradientUnits="userSpaceOnUse"
     gradientTransform="matrix(1.0200803,0,0,2.0253503,-64.775508,-219.95745)"
     cx="132.45013"
     cy="121.76175"
     fx="132.45013"
     fy="121.76175"
     r="1.5293466" /><radialGradient
     inkscape:collect="always"
     xlink:href="#id1"
     id="radialGradient4350"
     gradientUnits="userSpaceOnUse"
     gradientTransform="matrix(1.0200803,0,0,0.80644044,-64.775508,-65.274401)"
     cx="78.606552"
     cy="151.22136"
     fx="78.606552"
     fy="151.22136"
     r="11.83815" /><radialGradient
     inkscape:collect="always"
     xlink:href="#id0"
     id="radialGradient4353"
     gradientUnits="userSpaceOnUse"
     gradientTransform="matrix(1.0200803,0,0,1.2780134,-64.775508,-132.8207)"
     cx="81.003929"
     cy="136.67445"
     fx="81.003929"
     fy="136.67445"
     r="1.8847365" /><radialGradient
     inkscape:collect="always"
     xlink:href="#id0"
     id="radialGradient4356"
     gradientUnits="userSpaceOnUse"
     gradientTransform="matrix(1.0200803,0,0,1.2780168,-64.775508,-132.82115)"
     cx="76.941078"
     cy="136.67445"
     fx="76.941078"
     fy="136.67445"
     r="1.8847317" /><radialGradient
     inkscape:collect="always"
     xlink:href="#id0"
     id="radialGradient4359"
     gradientUnits="userSpaceOnUse"
     gradientTransform="matrix(1.0200803,0,0,1.2780405,-64.775508,-131.82847)"
     cx="81.003929"
     cy="132.8275"
     fx="81.003929"
     fy="132.8275"
     r="1.8847365" /><radialGradient
     inkscape:collect="always"
     xlink:href="#id0"
     id="radialGradient4362"
     gradientUnits="userSpaceOnUse"
     gradientTransform="matrix(1.0200803,0,0,1.2780438,-64.775508,-131.82891)"
     cx="76.941078"
     cy="132.8275"
     fx="76.941078"
     fy="132.8275"
     r="1.8847317" /><radialGradient
     inkscape:collect="always"
     xlink:href="#id0"
     id="radialGradient4365"
     gradientUnits="userSpaceOnUse"
     gradientTransform="matrix(1.0200803,0,0,1.2780134,-64.775508,-130.82929)"
     cx="81.003929"
     cy="128.98145"
     fx="81.003929"
     fy="128.98145"
     r="1.8847365" /><radialGradient
     inkscape:collect="always"
     xlink:href="#id0"
     id="radialGradient4368"
     gradientUnits="userSpaceOnUse"
     gradientTransform="matrix(1.0200803,0,0,1.2780168,-64.775508,-130.82972)"
     cx="76.941078"
     cy="128.98145"
     fx="76.941078"
     fy="128.98145"
     r="1.8847317" /><radialGradient
     inkscape:collect="always"
     xlink:href="#id0"
     id="radialGradient4371"
     gradientUnits="userSpaceOnUse"
     gradientTransform="matrix(1.0200803,0,0,1.2780405,-64.775508,-129.83711)"
     cx="81.003929"
     cy="125.1355"
     fx="81.003929"
     fy="125.1355"
     r="1.8847365" /><radialGradient
     inkscape:collect="always"
     xlink:href="#id0"
     id="radialGradient4374"
     gradientUnits="userSpaceOnUse"
     gradientTransform="matrix(1.0200803,0,0,1.2780438,-64.775508,-129.83753)"
     cx="76.941078"
     cy="125.1355"
     fx="76.941078"
     fy="125.1355"
     r="1.8847317" /><radialGradient
     inkscape:collect="always"
     xlink:href="#id0"
     id="radialGradient4377"
     gradientUnits="userSpaceOnUse"
     gradientTransform="matrix(1.0200803,0,0,1.2780168,-64.775508,-133.817)"
     cx="76.941078"
     cy="140.52145"
     fx="76.941078"
     fy="140.52145"
     r="1.8847317" /><radialGradient
     inkscape:collect="always"
     xlink:href="#id0"
     id="radialGradient4380"
     gradientUnits="userSpaceOnUse"
     gradientTransform="matrix(1.0200803,0,0,1.2780405,-64.775508,-133.8175)"
     cx="81.003929"
     cy="140.5105"
     fx="81.003929"
     fy="140.5105"
     r="1.8847365" /><radialGradient
     inkscape:collect="always"
     xlink:href="#id0"
     id="radialGradient4383"
     gradientUnits="userSpaceOnUse"
     gradientTransform="matrix(1.0200803,0,0,2.0253503,-64.775508,-220.14158)"
     cx="78.977547"
     cy="121.94475"
     fx="78.977547"
     fy="121.94475"
     r="1.5293466" /><radialGradient
     inkscape:collect="always"
     xlink:href="#id1"
     id="radialGradient4423"
     gradientUnits="userSpaceOnUse"
     gradientTransform="matrix(1.0200803,0,0,0.80644044,-64.775508,-67.758891)"
     cx="104.70385"
     cy="139.54137"
     fx="104.70385"
     fy="139.54137"
     r="11.83815" /><radialGradient
     inkscape:collect="always"
     xlink:href="#id0"
     id="radialGradient4426"
     gradientUnits="userSpaceOnUse"
     gradientTransform="matrix(1.0200803,0,0,1.2780134,-64.775508,-129.79722)"
     cx="107.10153"
     cy="124.99445"
     fx="107.10153"
     fy="124.99445"
     r="1.8847365" /><radialGradient
     inkscape:collect="always"
     xlink:href="#id0"
     id="radialGradient4429"
     gradientUnits="userSpaceOnUse"
     gradientTransform="matrix(1.0200803,0,0,1.2780168,-64.775508,-129.79763)"
     cx="103.03848"
     cy="124.99445"
     fx="103.03848"
     fy="124.99445"
     r="1.8847317" /><radialGradient
     inkscape:collect="always"
     xlink:href="#id0"
     id="radialGradient4432"
     gradientUnits="userSpaceOnUse"
     gradientTransform="matrix(1.0200803,0,0,1.2780405,-64.775508,-128.80467)"
     cx="107.10153"
     cy="121.1475"
     fx="107.10153"
     fy="121.1475"
     r="1.8847365" /><radialGradient
     inkscape:collect="always"
     xlink:href="#id0"
     id="radialGradient4435"
     gradientUnits="userSpaceOnUse"
     gradientTransform="matrix(1.0200803,0,0,1.2780438,-64.775508,-128.80507)"
     cx="103.03848"
     cy="121.1475"
     fx="103.03848"
     fy="121.1475"
     r="1.8847317" /><radialGradient
     inkscape:collect="always"
     xlink:href="#id0"
     id="radialGradient4438"
     gradientUnits="userSpaceOnUse"
     gradientTransform="matrix(1.0200803,0,0,1.2780134,-64.775508,-127.80581)"
     cx="107.10153"
     cy="117.30145"
     fx="107.10153"
     fy="117.30145"
     r="1.8847365" /><radialGradient
     inkscape:collect="always"
     xlink:href="#id0"
     id="radialGradient4441"
     gradientUnits="userSpaceOnUse"
     gradientTransform="matrix(1.0200803,0,0,1.2780168,-64.775508,-127.8062)"
     cx="103.03848"
     cy="117.30145"
     fx="103.03848"
     fy="117.30145"
     r="1.8847317" /><radialGradient
     inkscape:collect="always"
     xlink:href="#id0"
     id="radialGradient4444"
     gradientUnits="userSpaceOnUse"
     gradientTransform="matrix(1.0200803,0,0,1.2780405,-64.775508,-126.81331)"
     cx="107.10153"
     cy="113.4555"
     fx="107.10153"
     fy="113.4555"
     r="1.8847365" /><radialGradient
     inkscape:collect="always"
     xlink:href="#id0"
     id="radialGradient4447"
     gradientUnits="userSpaceOnUse"
     gradientTransform="matrix(1.0200803,0,0,1.2780438,-64.775508,-126.81369)"
     cx="103.03848"
     cy="113.4555"
     fx="103.03848"
     fy="113.4555"
     r="1.8847317" /><radialGradient
     inkscape:collect="always"
     xlink:href="#id0"
     id="radialGradient4450"
     gradientUnits="userSpaceOnUse"
     gradientTransform="matrix(1.0200803,0,0,1.2780168,-64.775508,-130.79348)"
     cx="103.03848"
     cy="128.84145"
     fx="103.03848"
     fy="128.84145"
     r="1.8847317" /><radialGradient
     inkscape:collect="always"
     xlink:href="#id0"
     id="radialGradient4453"
     gradientUnits="userSpaceOnUse"
     gradientTransform="matrix(1.0200803,0,0,1.2780405,-64.775508,-130.7937)"
     cx="107.10153"
     cy="128.83051"
     fx="107.10153"
     fy="128.83051"
     r="1.8847365" /><radialGradient
     inkscape:collect="always"
     xlink:href="#id0"
     id="radialGradient4456"
     gradientUnits="userSpaceOnUse"
     gradientTransform="matrix(1.0200803,0,0,2.0253503,-64.775508,-208.3892)"
     cx="105.07514"
     cy="110.26475"
     fx="105.07514"
     fy="110.26475"
     r="1.5293466" /></defs>
 <path
   id="path4151"
   d="m 62.583292,51.090338 c 0.82832,0 1.50001,0.67169 1.50001,1.50001 l 0,1.49966 c 0,0.82832 -0.67169,1.50001 -1.50001,1.50001 l -1.50002,0 0,-4.49968 1.50002,0 z m 0,5.99969 c 1.65664,0 3.00002,-1.34337 3.00002,-3.00002 l 0,-1.49966 c 0,-1.65664 -1.34338,-3.00002 -3.00002,-3.00002 l -3.00003,0 0,7.4997 3.00003,0 z m -6.00005,-7.4997 1.50001,0 0,7.4997 -1.50001,0 0,-7.4997 z m -3.00002,0 1.50001,0 0,7.4997 -1.50001,0 -3.00002,-4.70852 0,4.70852 -1.50001,0 0,-7.4997 1.50001,0 3.00002,4.70853 0,-4.70853 z m -22.499885,0 4.499998,0 0,1.50001 -2.999987,0 0,1.50001 2.999987,0 0,1.50001 -2.999987,0 0,1.49966 2.999987,0 0,1.50001 -4.499998,0 0,-7.4997 z m -5.999974,-3.5e-4 1.499976,0 0,6.00004 3.000022,0 0,1.50001 -4.499998,0 0,-7.50005 z m 15.750399,6.00004 1.49959,0 c 1.24227,0 2.25016,-1.00753 2.25016,-2.25001 0,-1.24214 -1.02659,-2.24544 -2.25016,-2.25002 l -1.49959,0 0,1.50001 1.49959,0 c 0.41409,0 0.75014,0.3362 0.75014,0.75001 0,0.41416 -0.33605,0.75 -0.75014,0.75 l -1.49959,0 0,1.50001 z m 1.49959,-7.50005 c 2.89891,0 5.24982,2.35126 5.24982,5.25004 0,2.89912 -2.35091,5.25003 -5.24982,5.25003 -2.89902,0 -5.25001,-2.35091 -5.25001,-5.25003 0,-2.89878 2.35099,-5.25004 5.25001,-5.25004 z m 0,1.50001 c 2.07059,0 3.75017,1.67957 3.75017,3.75003 0,2.0708 -1.67958,3.75002 -3.75017,3.75002 -2.0707,0 -3.74999,-1.67922 -3.74999,-3.75002 0,-2.07046 1.67929,-3.75003 3.74999,-3.75003 z"
   style="fill:#a90000;stroke:none"
   inkscape:connector-curvature="0" /><path
   style="fill:#000000"
   inkscape:connector-curvature="0"
   id="path24"
   d="m 42.234992,106.68001 c -2.80583,-5.23091 -8.329054,-8.789902 -14.683644,-8.789902 l -18.4767144,3.1e-4 c -5.010635,0 -9.0746349919578,-4.0599 -9.0746349919578,-9.06629 l 0,-88.824128 L 84.666662,0 l 0,88.824128 c 0,5.00629 -4.064,9.06639 -9.07463,9.06629 l -18.47672,-3.1e-4 c -6.35459,0 -11.87781,3.558992 -14.68375,8.789902 l -0.19657,0 z"
   class="fil0" /><path
   style="fill:#fcdb00"
   inkscape:connector-curvature="0"
   id="path26"
   d="m 42.332922,105.91156 c -1.7374,-2.9696 -4.36982,-5.38265 -7.478207,-6.851052 -2.213778,-1.04596 -4.689411,-1.63105 -7.302449,-1.63126 l 0,-0.002 -0.0012,0 0,0.002 -18.4768164,4.1e-4 0,-0.002 -0.0012,0 0,0.002 c -4.720014,-5.1e-4 -8.61141599,-3.88868 -8.61151799,-8.60441 l 0.0017,0 0,-6.1e-4 0,-88.361025 83.73951039,0 0,88.361025 0,6.1e-4 0.002,0 c -10e-5,4.71573 -3.8915,8.6039 -8.61152,8.60441 l 0,-0.002 -10e-4,0 0,0.002 -18.47671,-4.1e-4 0,-0.002 -0.001,0 0,0.002 c -2.61304,2.1e-4 -5.08867,0.5853 -7.30245,1.63126 -3.10839,1.468402 -5.74081,3.881452 -7.47831,6.851052 z"
   class="fil1" /><path
   id="_157559376"
   class="fil2"
   d="m 38.960542,45.471678 c 0.91695,0.31176 1.79156,0.84661 2.5607,1.60578 l -0.0245,-2.62972 0,-0.004 c 0.0213,-1.37749 -0.31469,-2.50202 -0.83779,-3.29564 -0.10017,-0.15206 -0.20779,-0.29239 -0.32133,-0.42009 -0.112,-0.12607 -0.22992,-0.23971 -0.35213,-0.33989 l -0.008,-0.006 -10e-5,1.1e-4 c -0.50066,-0.40746 -1.10873,-0.59967 -1.70139,-0.50347 -0.11568,0.0188 -0.23013,0.0482 -0.34224,0.0886 -0.11037,0.0397 -0.22227,0.0922 -0.33489,0.15787 l -1e-4,-2.1e-4 -6.2e-4,3.1e-4 -7.1e-4,0 c -0.52534,0.30707 -1.02294,0.91968 -1.397917,1.81735 -0.07569,0.18131 -0.145158,0.37006 -0.207484,0.56543 -0.06212,0.19496 -0.119962,0.40603 -0.172802,0.63289 l -2.04e-4,-1e-4 -1.02e-4,5.1e-4 -0.242779,1.05105 -0.169436,-1.06511 c -0.182594,-1.14828 -0.06794,-2.21299 0.240943,-3.06144 0.06019,-0.1651 0.128531,-0.32378 0.204221,-0.47441 0.07702,-0.15359 0.159234,-0.29485 0.245635,-0.42275 l 8.16e-4,-8.1e-4 7.14e-4,-10e-4 4.08e-4,3e-4 c 0.365291,-0.5533 0.852887,-0.93222 1.396287,-1.12677 -0.27236,-0.56288 -0.83198,-0.6702 -1.378436,-0.45444 l 0,8.1e-4 -0.0015,6.1e-4 -2.04e-4,-4.1e-4 c -0.305514,0.11782 -0.63551,0.32022 -0.973564,0.58357 -0.06967,0.0542 -0.137099,0.10875 -0.201772,0.16327 -0.05712,0.048 -0.125062,0.10762 -0.202486,0.17733 l -9.18e-4,4.1e-4 2.04e-4,3.1e-4 c -0.648261,0.58397 -1.302643,1.35364 -1.857158,2.15174 -0.110169,0.15868 -0.214727,0.31553 -0.312451,0.46901 -0.09619,0.15094 -0.191061,0.30748 -0.283786,0.46769 l -0.0016,0.002 -3.06e-4,4.1e-4 -0.581343,0.96809 0.193815,-1.11108 c 0.277258,-1.58978 0.704059,-2.86454 1.234195,-3.8468 0.104864,-0.19425 0.212789,-0.37576 0.323468,-0.54473 0.11129,-0.1701 0.227171,-0.33011 0.346827,-0.48013 l 7.14e-4,-6.1e-4 -1.02e-4,-1e-4 c 0.874923,-1.0958 2.037712,-1.65827 3.287513,-1.56043 l 0,0 c 0.24247,0.0191 0.48801,0.0632 0.73486,0.1331 0.24574,0.0696 0.49301,0.16511 0.74028,0.2872 l 9.1e-4,8.2e-4 0,0 2.1e-4,-3.1e-4 c 0.80474,0.39767 1.46024,0.96381 2.02516,1.61567 0.39141,0.45158 0.73875,0.94343 1.06191,1.44821 l -0.035,-2.448 1.16697,0 0.0285,2.41631 c 0.33418,-0.49073 0.6906,-0.97115 1.08873,-1.415 0.55727,-0.62127 1.19288,-1.16642 1.95601,-1.55971 0.62051,-0.31981 1.24705,-0.48399 1.85899,-0.48216 0.12323,4.1e-4 0.24288,0.007 0.35836,0.02 0.1173,0.013 0.23533,0.0329 0.35386,0.0595 l 0.002,0 0.002,4.1e-4 -1e-4,4.1e-4 c 0.5995,0.13534 1.17513,0.44241 1.70639,0.93151 0.10242,0.0942 0.2032,0.19527 0.30194,0.30289 l 0,8.1e-4 c 0.0995,0.10844 0.19627,0.22259 0.29011,0.34223 l 3.1e-4,-3e-4 10e-4,0.001 0,8.1e-4 c 0.55074,0.70342 1.03722,1.63819 1.43107,2.81857 0.0772,0.23125 0.15006,0.46871 0.2182,0.71229 0.0696,0.24878 0.13495,0.50448 0.19595,0.76722 l 2.1e-4,10e-4 0.3914,1.69404 -0.78383,-1.55268 c -0.44832,-0.8883 -0.92501,-1.63238 -1.41974,-2.23654 -0.0975,-0.11914 -0.19372,-0.23063 -0.28848,-0.33448 -0.0983,-0.10773 -0.19555,-0.20873 -0.29154,-0.30249 l -0.002,-8.1e-4 -3.1e-4,-3.1e-4 4.1e-4,-4.1e-4 c -0.59083,-0.57735 -1.20033,-0.96493 -1.81248,-1.16978 -0.11404,-0.0381 -0.23227,-0.0707 -0.35438,-0.0975 -0.12057,-0.0265 -0.23839,-0.046 -0.35315,-0.0582 l 0,-1e-4 -0.002,-2e-4 -9.2e-4,0 c -0.55074,-0.0584 -1.09944,0.0286 -1.63416,0.2555 -0.10742,0.0456 -0.21208,0.0954 -0.31347,0.1493 -0.1014,0.0539 -0.20514,0.11507 -0.31092,0.18294 l -0.002,0.002 c -0.32673,0.21005 -0.69946,0.50285 -1.0516,0.83866 0.0578,-0.0372 0.11721,-0.0721 0.17852,-0.10477 0.42139,-0.22441 0.92205,-0.3355 1.5344,-0.28597 0.74181,0.0599 1.37956,0.41092 1.85379,0.93558 0.0917,0.10151 0.17709,0.20913 0.25564,0.32205 0.0778,0.11201 0.14995,0.23094 0.21574,0.35559 l 0,8.1e-4 10e-4,0.002 3.1e-4,-1e-4 c 0.19769,0.37556 0.34214,0.80676 0.4215,1.28291 0.0153,0.0918 0.0284,0.1862 0.0389,0.28271 0.0102,0.0939 0.0182,0.1912 0.0236,0.29158 l 3e-4,0.005 0.0516,0.97054 -0.44812,-0.86373 c -0.32,-0.6168 -0.68009,-1.05575 -1.05742,-1.34274 -0.0723,-0.055 -0.14465,-0.10406 -0.21646,-0.14706 -0.071,-0.0426 -0.14393,-0.0807 -0.2183,-0.11425 l -6.1e-4,-4.1e-4 0,10e-5 c -0.62225,-0.28077 -1.26643,-0.17672 -1.81635,0.14483 -0.10742,0.0628 -0.2133,0.13564 -0.31653,0.21697 l -4.1e-4,-4e-4 c -0.10038,0.0791 -0.19769,0.16673 -0.29052,0.26141 l -8.2e-4,0.002 -5.1e-4,5.1e-4 -4.1e-4,-4.1e-4 c -0.52044,0.53128 -0.92939,1.29259 -1.12453,2.16743 -0.038,0.17081 -0.0684,0.34927 -0.0897,0.53424 -0.0214,0.18549 -0.0335,0.37108 -0.0351,0.55534 l -2e-4,0.0683 0,0.002 -0.0206,3.17986 c 0.25033,-0.38891 0.51759,-0.7611 0.81668,-1.10772 0.46485,-0.53862 1.00457,-1.01089 1.67262,-1.38044 0.66204,-0.36608 1.37252,-0.58306 2.09709,-0.6172 0.14179,-0.007 0.28399,-0.006 0.42588,10e-4 0.14108,0.007 0.28399,0.0221 0.42813,0.0445 l 0.002,3e-4 c 0.73282,0.11405 1.46636,0.42489 2.16624,0.96565 0.13669,0.10559 0.27083,0.21871 0.40191,0.33938 0.1322,0.12158 0.26308,0.25224 0.39202,0.39186 l 0.002,0.002 c 0.73833,0.79943 1.41975,1.89553 1.99762,3.33345 0.11241,0.27976 0.22054,0.57093 0.32377,0.87362 0.10436,0.30605 0.20392,0.62321 0.29828,0.95148 l 3e-4,0.001 0.28481,0.99612 -0.65091,-0.80707 c -0.85381,-1.05859 -1.71976,-1.9634 -2.57193,-2.65459 -0.15995,-0.12974 -0.32429,-0.25519 -0.4927,-0.37596 -0.1676,-0.12006 -0.32908,-0.2284 -0.48383,-0.32399 l -10e-5,1e-4 -5.1e-4,-3.1e-4 -0.002,-0.002 c -0.65652,-0.40522 -1.29795,-0.66449 -1.91163,-0.74908 l -7.1e-4,0 c -0.11945,-0.0165 -0.23595,-0.0264 -0.34918,-0.0296 -0.11567,-0.003 -0.23002,4.1e-4 -0.34295,0.0106 l -0.003,3.1e-4 c -0.5842,0.0536 -1.13728,0.28954 -1.64661,0.73562 -0.0991,0.0867 -0.198,0.18314 -0.29644,0.28924 -0.0976,0.10528 -0.19351,0.21891 -0.28725,0.34091 l -0.002,0.003 c -0.45873,0.59814 -0.87278,1.40256 -1.23083,2.43812 -0.0669,0.19375 -0.13475,0.40563 -0.2034,0.63616 -0.0651,0.21861 -0.12874,0.44884 -0.19055,0.69058 l -8.2e-4,8.1e-4 -1e-4,1.1e-4 6.1e-4,1e-4 c -0.0771,0.30157 -0.12741,0.60334 -0.15781,0.89736 -0.0174,0.16847 -0.0289,0.33408 -0.0351,0.49613 l -1.88633,0 c -0.0354,-0.99704 -0.35754,-2.07276 -0.85921,-3.02679 -0.11017,-0.20943 -0.22911,-0.41326 -0.35571,-0.60904 -0.12761,-0.19752 -0.26103,-0.38453 -0.39875,-0.5585 l -0.005,-0.006 c -0.5741,-0.7237 -1.29336,-1.29972 -2.14594,-1.50722 -0.16311,-0.0396 -0.33244,-0.0659 -0.50759,-0.0772 -0.17464,-0.0112 -0.35478,-0.007 -0.54044,0.0136 l -0.002,2.1e-4 c -0.65305,0.0737 -1.323753,0.33887 -1.992313,0.76008 -0.132917,0.0838 -0.264507,0.17275 -0.394363,0.26641 -0.130367,0.0941 -0.261651,0.19476 -0.393139,0.30146 l -0.0024,0.002 c -1.073328,0.87168 -2.121155,2.11597 -3.061975,3.58345 -0.183818,0.28669 -0.363148,0.58132 -0.537378,0.88248 -0.171883,0.29739 -0.341727,0.6066 -0.508714,0.92672 l -6.12e-4,-3.1e-4 -0.42721,0.85365 0.03101,-0.95638 c 0.07467,-2.29992 0.623065,-4.1718 1.467079,-5.61023 0.164743,-0.28088 0.341217,-0.54566 0.527688,-0.79403 0.187593,-0.24989 0.384162,-0.48185 0.58828,-0.69567 l 0.0039,-0.004 c 0.658972,-0.68956 1.408323,-1.20769 2.203578,-1.55278 l -1.02e-4,-3e-4 c 0.15648,-0.068 0.313369,-0.12872 0.470053,-0.18223 0.159643,-0.0546 0.318877,-0.10212 0.477194,-0.14238 l 8.16e-4,0 3.06e-4,-10e-5 0,-2e-4 c 0.821572,-0.20872 1.671502,-0.24399 2.505412,-0.10457 0.16321,0.0273 0.3251,0.0611 0.48474,0.10131 0.16036,0.0403 0.32031,0.0873 0.47934,0.14125 l 0.007,0.002 z"
   inkscape:connector-curvature="0"
   style="fill:#000000;fill-rule:nonzero" /><path
   id="_161044408"
   class="fil2"
   d="m 42.410452,18.294928 c -1.12107,-0.83224 -1.80799,-2.08702 -1.76872,-3.47389 0.039,-1.35975 0.7215,-2.46176 1.7676,-3.24457 1.09607,0.81318 1.78289,2.03667 1.77024,3.39938 l 0,8.2e-4 -2e-4,0.0192 c -0.0206,1.37932 -0.70896,2.50732 -1.76892,3.2991 z"
   inkscape:connector-curvature="0"
   style="fill:#000000;fill-rule:nonzero" /><path
   id="_201773552"
   class="fil2"
   d="m 43.568242,32.578368 c -1.01753,1.04789 -1.37895,2.48184 -1.14065,3.92384 1.38231,-0.15919 2.6266,-0.76355 3.44124,-1.96513 0.6657,-0.98094 0.84738,-2.15887 0.65417,-3.32703 -1.12453,0.12984 -2.13808,0.52619 -2.95476,1.36832 z"
   inkscape:connector-curvature="0"
   style="fill:#000000;fill-rule:nonzero" /><path
   id="_201772304"
   class="fil2"
   d="m 41.240422,32.589578 c 1.01753,1.04789 1.37894,2.48194 1.14065,3.92394 -1.38231,-0.15929 -2.62661,-0.76355 -3.44124,-1.96513 -0.66571,-0.98093 -0.84738,-2.15897 -0.65418,-3.32703 1.12454,0.12984 2.13809,0.52619 2.95477,1.36822 z"
   inkscape:connector-curvature="0"
   style="fill:#000000;fill-rule:nonzero" /><path
   id="_201771848"
   class="fil2"
   d="m 41.240422,16.908878 c 1.01753,1.04789 1.37894,2.48184 1.14065,3.92384 -1.38231,-0.15919 -2.62661,-0.76355 -3.44124,-1.96513 -0.66571,-0.98093 -0.84738,-2.15887 -0.65418,-3.32702 1.12454,0.12984 2.13809,0.52618 2.95477,1.36831 z"
   inkscape:connector-curvature="0"
   style="fill:#000000;fill-rule:nonzero" /><path
   id="_201772496"
   class="fil2"
   d="m 43.568242,16.908878 c -1.01753,1.04789 -1.37895,2.48184 -1.14065,3.92384 1.38231,-0.15919 2.6266,-0.76355 3.44124,-1.96513 0.6657,-0.98093 0.84738,-2.15887 0.65417,-3.32702 -1.12453,0.12984 -2.13808,0.52618 -2.95476,1.36831 z"
   inkscape:connector-curvature="0"
   style="fill:#000000;fill-rule:nonzero" /><path
   id="_201771992"
   class="fil2"
   d="m 41.240422,20.829558 c 1.01753,1.0479 1.37894,2.48185 1.14065,3.92385 -1.38231,-0.15919 -2.62661,-0.76355 -3.44124,-1.96513 -0.66571,-0.98094 -0.84738,-2.15898 -0.65418,-3.32703 1.12454,0.12984 2.13809,0.52619 2.95477,1.36831 z"
   inkscape:connector-curvature="0"
   style="fill:#000000;fill-rule:nonzero" /><path
   id="_201773072"
   class="fil2"
   d="m 43.568242,20.829558 c -1.01753,1.0479 -1.37895,2.48185 -1.14065,3.92385 1.38231,-0.15919 2.6266,-0.76355 3.44124,-1.96513 0.6657,-0.98094 0.84738,-2.15898 0.65417,-3.32703 -1.12453,0.12984 -2.13808,0.52619 -2.95476,1.36831 z"
   inkscape:connector-curvature="0"
   style="fill:#000000;fill-rule:nonzero" /><path
   id="_201771800"
   class="fil2"
   d="m 41.240422,24.749228 c 1.01753,1.048 1.37894,2.48194 1.14065,3.92394 -1.38231,-0.15919 -2.62661,-0.76354 -3.44124,-1.96513 -0.66571,-0.98093 -0.84738,-2.15897 -0.65418,-3.32702 1.12454,0.12984 2.13809,0.52619 2.95477,1.36821 z"
   inkscape:connector-curvature="0"
   style="fill:#000000;fill-rule:nonzero" /><path
   id="_201771680"
   class="fil2"
   d="m 43.568242,24.749228 c -1.01753,1.048 -1.37895,2.48194 -1.14065,3.92394 1.38231,-0.15919 2.6266,-0.76354 3.44124,-1.96513 0.6657,-0.98093 0.84738,-2.15897 0.65417,-3.32702 -1.12453,0.12984 -2.13808,0.52619 -2.95476,1.36821 z"
   inkscape:connector-curvature="0"
   style="fill:#000000;fill-rule:nonzero" /><path
   id="_201772688"
   class="fil2"
   d="m 41.240422,28.669908 c 1.01753,1.0479 1.37894,2.48195 1.14065,3.92385 -1.38231,-0.15919 -2.62661,-0.76355 -3.44124,-1.96514 -0.66571,-0.98093 -0.84738,-2.15887 -0.65418,-3.32692 1.12454,0.12974 2.13809,0.52609 2.95477,1.36821 z"
   inkscape:connector-curvature="0"
   style="fill:#000000;fill-rule:nonzero" /><path
   id="_201773360"
   class="fil2"
   d="m 43.568242,28.669908 c -1.01753,1.0479 -1.37895,2.48195 -1.14065,3.92385 1.38231,-0.15919 2.6266,-0.76355 3.44124,-1.96514 0.6657,-0.98093 0.84738,-2.15887 0.65417,-3.32692 -1.12453,0.12974 -2.13808,0.52609 -2.95476,1.36821 z"
   inkscape:connector-curvature="0"
   style="fill:#000000;fill-rule:nonzero" /><path
   id="_161044384"
   class="fil2"
   d="m 38.282182,31.488888 -1.51665,-10.89159 0.32642,-0.0451 1.51666,10.8916 -0.32643,0.045 z m -0.002,-7.82455 -0.98825,-7.16944 0.32642,-0.0438 0.98826,7.16944 -0.32643,0.0438 z m -0.0445,-7.88234 -0.50892,-4.72398 0.32765,-0.0349 0.50892,4.72408 -0.32765,0.0348 z m 1.18268,0.28384 -0.79526,-6.44819 0.32765,-0.0399 0.79516,6.44809 -0.32755,0.0399 z m 1.02804,0.46504 -0.77751,-8.36114 0.32765,-0.0297 0.7774,8.36114 -0.32754,0.0297 z m 0.80423,-3.7349 -0.38723,-5.97417 0.32898,-0.0206 0.38722,5.97408 -0.32897,0.0207 z m 1.10168,-0.91672 0,-5.913846 0.3302,0 0,5.913846 -0.3302,0 z m 0.89104,1.03495 0.40885,-6.06387 0.32888,0.0219 -0.40885,6.06386 -0.32888,-0.0219 z m 0.88339,3.59363 0.57125,-8.66178 0.32887,0.0206 -0.57124,8.66189 -0.32888,-0.0207 z m 1.06588,-0.50988 0.80077,-7.31324 0.32765,0.0349 -0.80077,7.31314 -0.32765,-0.0347 z m 1.07242,-0.26223 0.9248,-5.96408 0.3251,0.0502 -0.92481,5.96409 -0.32509,-0.0502 z m -0.0287,15.67795 1.6152,-10.96222 0.32642,0.0477 -1.61519,10.96222 -0.32643,-0.0477 z m 0.006,-7.75556 0.92073,-7.41332 0.32754,0.0399 -0.92062,7.41332 -0.32765,-0.0399 z"
   inkscape:connector-curvature="0"
   style="fill:#000000;fill-rule:nonzero" /><path
   id="_161044888"
   class="fil3"
   d="m 42.409432,18.033008 c 0.96204,-0.71443 1.54185,-1.83968 1.5598,-3.03963 0.018,-1.22706 -0.57206,-2.42242 -1.5598,-3.1553 -0.99285,0.73705 -1.57766,1.921 -1.5595,3.15449 0.0181,1.19679 0.6045,2.33141 1.5595,3.04044 z"
   inkscape:connector-curvature="0"
   style="fill:url(#radialGradient4456);fill-opacity:1;fill-rule:nonzero" /><path
   id="_201772784"
   class="fil4"
   d="m 46.344902,31.448128 c -1.03589,0.11863 -2.01731,0.60965 -2.7178,1.38268 -0.83147,0.91755 -1.22389,2.20168 -1.01988,3.43486 1.17687,-0.13474 2.27845,-0.75479 2.98129,-1.70321 0.66356,-0.89329 0.93684,-2.02364 0.75639,-3.11433 z"
   style="fill:url(#radialGradient4453);fill-opacity:1;fill-rule:nonzero"
   inkscape:connector-curvature="0" /><path
   id="_201772832"
   class="fil3"
   d="m 38.463762,31.459338 c 1.03589,0.11863 2.01741,0.60965 2.7178,1.38268 0.83146,0.91755 1.22389,2.20168 1.01987,3.43475 -1.17686,-0.13473 -2.27845,-0.75468 -2.98128,-1.7031 -0.66346,-0.89339 -0.93685,-2.02363 -0.75639,-3.11433 z"
   inkscape:connector-curvature="0"
   style="fill:url(#radialGradient4450);fill-opacity:1;fill-rule:nonzero" /><path
   id="_201772208"
   class="fil3"
   d="m 38.463762,15.778638 c 1.03589,0.11863 2.01741,0.60966 2.7178,1.38269 0.83146,0.91754 1.22389,2.20167 1.01987,3.43485 -1.17686,-0.13473 -2.27845,-0.75479 -2.98128,-1.70321 -0.66346,-0.89329 -0.93685,-2.02363 -0.75639,-3.11433 z"
   inkscape:connector-curvature="0"
   style="fill:url(#radialGradient4447);fill-opacity:1;fill-rule:nonzero" /><path
   id="_201772472"
   class="fil3"
   d="m 46.344902,15.778638 c -1.03589,0.11863 -2.01731,0.60966 -2.7178,1.38269 -0.83147,0.91754 -1.22389,2.20167 -1.01988,3.43485 1.17687,-0.13473 2.27845,-0.75479 2.98129,-1.70321 0.66356,-0.89329 0.93684,-2.02363 0.75639,-3.11433 z"
   inkscape:connector-curvature="0"
   style="fill:url(#radialGradient4444);fill-opacity:1;fill-rule:nonzero" /><path
   id="_201772976"
   class="fil3"
   d="m 38.463762,19.698298 c 1.03589,0.11863 2.01741,0.60966 2.7178,1.38269 0.83146,0.91754 1.22389,2.20168 1.01987,3.43475 -1.17686,-0.13473 -2.27845,-0.75478 -2.98128,-1.70311 -0.66346,-0.89339 -0.93685,-2.02373 -0.75639,-3.11433 z"
   inkscape:connector-curvature="0"
   style="fill:url(#radialGradient4441);fill-opacity:1;fill-rule:nonzero" /><path
   id="_201772424"
   class="fil3"
   d="m 46.344902,19.698298 c -1.03589,0.11863 -2.01731,0.60966 -2.7178,1.38269 -0.83147,0.91754 -1.22389,2.20168 -1.01988,3.43475 1.17687,-0.13473 2.27845,-0.75478 2.98129,-1.70311 0.66356,-0.89339 0.93684,-2.02373 0.75639,-3.11433 z"
   inkscape:connector-curvature="0"
   style="fill:url(#radialGradient4438);fill-opacity:1;fill-rule:nonzero" /><path
   id="_201771896"
   class="fil3"
   d="m 38.463762,23.617968 c 1.03589,0.11873 2.01741,0.60976 2.7178,1.38279 0.83146,0.91744 1.22389,2.20167 1.01987,3.43475 -1.17686,-0.13473 -2.27845,-0.75479 -2.98128,-1.70321 -0.66346,-0.89329 -0.93685,-2.02363 -0.75639,-3.11433 z"
   inkscape:connector-curvature="0"
   style="fill:url(#radialGradient4435);fill-opacity:1;fill-rule:nonzero" /><path
   id="_201771704"
   class="fil3"
   d="m 46.344902,23.617968 c -1.03589,0.11873 -2.01731,0.60976 -2.7178,1.38279 -0.83147,0.91744 -1.22389,2.20167 -1.01988,3.43475 1.17687,-0.13473 2.27845,-0.75479 2.98129,-1.70321 0.66356,-0.89329 0.93684,-2.02363 0.75639,-3.11433 z"
   inkscape:connector-curvature="0"
   style="fill:url(#radialGradient4432);fill-opacity:1;fill-rule:nonzero" /><path
   id="_201773408"
   class="fil3"
   d="m 38.463762,27.538648 c 1.03589,0.11863 2.01741,0.60966 2.7178,1.38269 0.83146,0.91754 1.22389,2.20168 1.01987,3.43475 -1.17686,-0.13473 -2.27845,-0.75468 -2.98128,-1.70311 -0.66346,-0.89339 -0.93685,-2.02363 -0.75639,-3.11433 z"
   inkscape:connector-curvature="0"
   style="fill:url(#radialGradient4429);fill-opacity:1;fill-rule:nonzero" /><path
   id="_201771968"
   class="fil3"
   d="m 46.344902,27.538648 c -1.03589,0.11863 -2.01731,0.60966 -2.7178,1.38269 -0.83147,0.91754 -1.22389,2.20168 -1.01988,3.43475 1.17687,-0.13473 2.27845,-0.75468 2.98129,-1.70311 0.66356,-0.89339 0.93684,-2.02363 0.75639,-3.11433 z"
   inkscape:connector-curvature="0"
   style="fill:url(#radialGradient4426);fill-opacity:1;fill-rule:nonzero" /><path
   id="_160115856"
   class="fil5"
   d="m 42.922532,49.382168 c -0.9802,-1.9371 -2.43973,-3.1712 -4.02963,-3.71196 -1.09444,-0.3723 -2.25182,-0.41632 -3.357181,-0.13544 -1.107094,0.28138 -2.162673,0.8888 -3.051469,1.81888 -1.427704,1.49398 -2.427077,3.81968 -2.529289,6.96602 1.185844,-2.27333 2.646701,-4.22786 4.16254,-5.459 0.956529,-0.7767 1.938153,-1.26844 2.891719,-1.37596 1.4122,-0.15939 2.54888,0.59651 3.38402,1.6495 0.90787,1.14451 1.55613,2.70524 1.65416,4.14052 l 1.48514,0 c 0.0246,-0.40817 0.0817,-0.83377 0.18963,-1.2558 0.44261,-1.72961 1.00692,-2.98735 1.66212,-3.8415 0.70069,-0.91347 1.50655,-1.36995 2.38087,-1.45036 0.86543,-0.0795 1.78911,0.21341 2.73656,0.7982 1.18187,0.72951 2.40678,1.91754 3.60497,3.40316 -0.67162,-2.33743 -1.56909,-3.98886 -2.57234,-5.07487 -0.89308,-0.96667 -1.86848,-1.48257 -2.83929,-1.63371 -0.96918,-0.15093 -1.93836,0.0602 -2.8196,0.54759 -1.28663,0.71158 -2.08484,1.82674 -2.80512,3.06012 l 0.0254,-3.93598 c -0.005,-1.40775 0.53391,-2.68241 1.3108,-3.4746 0.69978,-0.7134 1.69996,-1.10109 2.66047,-0.66775 0.57421,0.25918 1.12729,0.80187 1.59306,1.69985 -0.0359,-0.67876 -0.19912,-1.27924 -0.46036,-1.77536 -0.43608,-0.82878 -1.20461,-1.42753 -2.15716,-1.50458 -1.14025,-0.0921 -1.97549,0.37933 -2.50644,1.12178 -0.17362,0.24266 -0.33337,0.53659 -0.46128,0.83948 l -0.1014,-0.2714 c 0.391,-0.94741 1.49207,-1.99754 2.31069,-2.52404 0.77046,-0.49561 1.58051,-0.708 2.39678,-0.62138 0.89614,0.095 1.79411,0.55045 2.64904,1.38615 0.71794,0.70179 1.407,1.67407 2.04047,2.92895 -0.43404,-1.87239 -1.06037,-3.26506 -1.80605,-4.21716 -0.65377,-0.83478 -1.39812,-1.32744 -2.18206,-1.50406 -0.78168,-0.17621 -1.60907,-0.0392 -2.43044,0.38422 -1.47697,0.76131 -2.46451,2.11505 -3.3428,3.47358 l -0.0315,-2.68201 c -0.13914,0.0194 -0.40722,0.0128 -0.74711,-0.0586 l 0.0406,2.84375 c -0.86319,-1.43874 -1.84686,-2.86474 -3.40074,-3.63257 -1.6812,-0.83082 -3.352906,-0.36231 -4.506209,1.08203 -0.821879,1.02925 -1.482585,2.60068 -1.862361,4.77708 0.650608,-1.12514 1.578677,-2.31429 2.494811,-3.14001 0.496065,-0.4471 0.992334,-0.79056 1.444637,-0.96473 0.624702,-0.24052 1.277342,-0.17326 1.671912,0.57725 0.64143,-0.19374 1.32111,-0.11853 1.93285,0.14227 -0.41426,-0.6118 -0.91818,-1.22818 -1.56225,-1.61291 -0.93236,-0.55707 -1.628971,-0.25825 -2.133299,0.008 0.508408,-0.56104 1.308869,-0.745 2.241119,-0.18803 0.76832,0.45903 1.35711,1.2184 1.8187,1.97216 0.80994,0.45342 1.62999,1.27965 2.37199,2.55319 l -0.0747,0.29311 c -0.79597,-1.42927 -2.23867,-3.24927 -4.09491,-3.05533 -0.77097,0.0803 -1.50951,0.55157 -1.939679,1.20454 -0.595931,0.88147 -0.904302,2.26497 -0.658564,3.80929 0.377532,-1.62218 1.094543,-2.6926 1.877153,-3.15 0.86625,-0.50641 1.85889,-0.34335 2.61865,0.27497 0.9347,0.7608 1.62682,2.24448 1.59632,4.22704 l 0.0248,2.82561 c 0.50269,0.51987 0.9452,1.15633 1.33477,1.87106 l -0.14352,0.2397 z m -0.64673,1.01498 c -0.54962,-1.44893 -1.4223,-2.47074 -2.37526,-3.11708 -1.6559,-1.12311 -3.833768,-1.13962 -5.520368,-0.0451 -0.53238,0.34549 -0.886246,0.72625 -1.24256,1.10069 0.807495,-1.5748 2.862345,-2.29626 4.535688,-2.10558 0.80158,0.0914 1.60734,0.37638 2.34486,0.87658 0.91766,0.62229 1.81604,1.60201 2.38045,2.93241 l -0.12281,0.35803 z m 1.2445,-1.91316 c 0.56818,-1.15113 1.32151,-1.9583 2.14063,-2.4743 1.77545,-1.11883 4.29322,-0.94475 5.70052,0.92488 -1.56889,-1.5218 -3.71075,-1.93058 -5.58872,-0.74744 -0.78801,0.49653 -1.60968,1.31399 -2.15951,2.59955 l -0.0929,-0.30269 z"
   style="fill:url(#radialGradient4423);fill-opacity:1;fill-rule:nonzero"
   inkscape:connector-curvature="0" /><path
   id="_157103360"
   class="fil2"
   d="m 12.339095,57.375388 c 0.91695,0.31176 1.791567,0.84661 2.560707,1.60578 l -0.02448,-2.62972 0,-0.004 c 0.02132,-1.37748 -0.314695,-2.50202 -0.837792,-3.29563 -0.100172,-0.15206 -0.20779,-0.2924 -0.321325,-0.4201 -0.112005,-0.12607 -0.229926,-0.2397 -0.352132,-0.33989 l -0.0076,-0.006 -1.02e-4,10e-5 c -0.500656,-0.40746 -1.108726,-0.59967 -1.701392,-0.50346 -0.115677,0.0188 -0.23013,0.0482 -0.342237,0.0886 -0.110373,0.0397 -0.222276,0.0922 -0.334893,0.15787 l -1.02e-4,-2e-4 -6.12e-4,3e-4 -7.14e-4,0 c -0.525341,0.30707 -1.0229364,0.91969 -1.3979184,1.81736 -0.07569,0.1813 -0.145157,0.37005 -0.207484,0.56542 -0.06212,0.19497 -0.119961,0.40603 -0.172802,0.6329 l -2.04e-4,-1e-4 -1.02e-4,5.1e-4 -0.242779,1.05105 -0.169435,-1.06512 c -0.182594,-1.14828 -0.06794,-2.21299 0.240943,-3.06143 0.06019,-0.16511 0.12853,-0.32379 0.20422,-0.47442 0.07702,-0.15359 0.159234,-0.29484 0.245635,-0.42275 l 8.16e-4,-8.1e-4 7.14e-4,-0.001 4.08e-4,3.1e-4 c 0.365291,-0.5533 0.8528904,-0.93222 1.3962864,-1.12678 -0.272361,-0.56288 -0.831977,-0.6702 -1.3784344,-0.45444 l 0,8.1e-4 -0.0015,6.2e-4 -2.04e-4,-4.1e-4 c -0.305514,0.11781 -0.63551,0.32022 -0.973565,0.58357 -0.06967,0.0542 -0.137099,0.10874 -0.201772,0.16326 -0.05712,0.048 -0.125062,0.10763 -0.202486,0.17734 l -9.18e-4,4e-4 2.04e-4,3.1e-4 c -0.648261,0.58398 -1.302642,1.35364 -1.857158,2.15174 -0.110169,0.15868 -0.214727,0.31553 -0.312451,0.46901 -0.09619,0.15094 -0.191061,0.30748 -0.283786,0.46769 l -0.0016,0.002 -3.06e-4,4.1e-4 -0.581344,0.96809 0.193815,-1.11108 c 0.277258,-1.58978 0.70406,-2.86453 1.234196,-3.84679 0.104864,-0.19425 0.212788,-0.37577 0.323467,-0.54474 0.111291,-0.1701 0.227172,-0.3301 0.346827,-0.48012 l 7.14e-4,-6.2e-4 -1.02e-4,-10e-5 c 0.874923,-1.09579 2.037713,-1.65826 3.2875154,-1.56042 l 0,0 c 0.242473,0.019 0.488007,0.0632 0.734866,0.1331 0.245737,0.0696 0.493005,0.1651 0.740272,0.2872 l 9.18e-4,8.1e-4 0,0 2.04e-4,-3.1e-4 c 0.804742,0.39768 1.460245,0.96382 2.025166,1.61567 0.391405,0.45159 0.738742,0.94343 1.061903,1.44822 l -0.03499,-2.44801 1.166971,0 0.02846,2.41631 c 0.334178,-0.49072 0.690594,-0.97115 1.088731,-1.41499 0.55727,-0.62128 1.192882,-1.16642 1.956004,-1.55971 0.620515,-0.31982 1.247049,-0.484 1.858995,-0.48217 0.123225,4.1e-4 0.242881,0.007 0.358354,0.02 0.117309,0.013 0.235332,0.0329 0.353866,0.0595 l 0.0016,0 0.0016,4.1e-4 -1.02e-4,4e-4 c 0.599501,0.13535 1.175133,0.44242 1.70639,0.93151 0.102416,0.0942 0.2032,0.19527 0.301944,0.30289 l 0,8.2e-4 c 0.09946,0.10843 0.196264,0.22258 0.290111,0.34223 l 3.06e-4,-3.1e-4 0.0011,0.001 0,8.2e-4 c 0.550741,0.70342 1.037218,1.63819 1.431071,2.81857 0.07722,0.23124 0.150054,0.46871 0.218195,0.71229 0.06957,0.24877 0.134957,0.50448 0.195957,0.76721 l 2.04e-4,10e-4 0.391405,1.69404 -0.78383,-1.55268 c -0.448325,-0.88829 -0.925008,-1.63238 -1.419747,-2.23653 -0.09752,-0.11914 -0.193714,-0.23064 -0.288479,-0.33449 -0.09834,-0.10772 -0.195549,-0.20872 -0.291539,-0.30248 l -0.0017,-8.2e-4 -3.06e-4,-3e-4 4.08e-4,-4.1e-4 c -0.590831,-0.57735 -1.200329,-0.96494 -1.812479,-1.16979 -0.114045,-0.0381 -0.232272,-0.0707 -0.354376,-0.0975 -0.120573,-0.0265 -0.238392,-0.046 -0.353151,-0.0582 l 0,-1.1e-4 -0.0018,-2e-4 -9.18e-4,0 c -0.550741,-0.0584 -1.099442,0.0286 -1.634168,0.2555 -0.107415,0.0456 -0.212075,0.0954 -0.313471,0.14931 -0.101396,0.0539 -0.205138,0.11506 -0.31092,0.18294 l -0.0024,0.002 c -0.326731,0.21005 -0.699469,0.50286 -1.0516,0.83867 0.05784,-0.0372 0.117207,-0.0722 0.178514,-0.10477 0.421395,-0.22442 0.92205,-0.33551 1.534404,-0.28598 0.741803,0.0599 1.379557,0.41093 1.853792,0.93559 0.09171,0.1015 0.177086,0.20913 0.255632,0.32205 0.07783,0.112 0.149952,0.23094 0.215747,0.35558 l 0,8.2e-4 0.0012,0.002 3.06e-4,-10e-5 c 0.197691,0.37556 0.342134,0.80676 0.421497,1.28291 0.0153,0.0918 0.02836,0.1862 0.03887,0.28272 0.0102,0.0939 0.01816,0.19119 0.02356,0.29158 l 3.06e-4,0.005 0.05162,0.97054 -0.448122,-0.86373 c -0.319999,-0.61679 -0.680087,-1.05574 -1.057415,-1.34274 -0.07232,-0.055 -0.144647,-0.10405 -0.216461,-0.14706 -0.071,-0.0426 -0.143933,-0.0807 -0.218297,-0.11425 l -6.12e-4,-4e-4 0,1e-4 c -0.622249,-0.28078 -1.26643,-0.17672 -1.816355,0.14482 -0.107414,0.0628 -0.213299,0.13565 -0.316531,0.21698 l -4.08e-4,-4.1e-4 c -0.100376,0.0791 -0.197692,0.16673 -0.290519,0.26141 l -8.16e-4,0.002 -5.1e-4,5.1e-4 -4.08e-4,-4.1e-4 c -0.520445,0.53129 -0.929395,1.2926 -1.124537,2.16744 -0.03805,0.17081 -0.06834,0.34926 -0.08966,0.53424 -0.02142,0.18548 -0.03346,0.37107 -0.03509,0.55533 l -2.04e-4,0.0683 0,0.002 -0.02061,3.17986 c 0.250328,-0.38891 0.517589,-0.76111 0.816676,-1.10772 0.464851,-0.53862 1.004575,-1.0109 1.672626,-1.38045 0.662032,-0.36608 1.372518,-0.58305 2.097081,-0.61719 0.141791,-0.007 0.28399,-0.006 0.425884,10e-4 0.141077,0.007 0.28399,0.0221 0.428127,0.0445 l 0.0018,3.1e-4 c 0.732826,0.11404 1.466366,0.42488 2.166243,0.96565 0.136691,0.10558 0.270831,0.21871 0.401912,0.33937 0.132202,0.12159 0.263078,0.25224 0.392016,0.39187 l 0.0017,0.002 c 0.738334,0.79942 1.419747,1.89552 1.997623,3.33344 0.112413,0.27976 0.220541,0.57093 0.323773,0.87362 0.104355,0.30605 0.203914,0.62321 0.298272,0.95148 l 3.06e-4,0.001 0.284806,0.99612 -0.650913,-0.80706 c -0.853807,-1.0586 -1.719753,-1.9634 -2.571928,-2.65459 -0.159949,-0.12974 -0.324284,-0.2552 -0.492699,-0.37597 -0.167599,-0.12005 -0.329078,-0.22839 -0.483824,-0.32399 l -1.02e-4,1e-4 -5.1e-4,-3e-4 -0.0023,-0.002 c -0.656523,-0.40522 -1.29795,-0.66449 -1.91163,-0.74908 l -7.14e-4,0 c -0.119451,-0.0165 -0.235945,-0.0264 -0.349174,-0.0296 -0.115677,-0.003 -0.230028,4e-4 -0.342951,0.0106 l -0.0031,3e-4 c -0.5842,0.0536 -1.137287,0.28954 -1.646613,0.73563 -0.09905,0.0867 -0.197998,0.18314 -0.296436,0.28923 -0.09762,0.10528 -0.193509,0.21892 -0.287254,0.34091 l -0.0024,0.003 c -0.45873,0.59814 -0.87278,1.40256 -1.230828,2.43812 -0.06692,0.19374 -0.134753,0.40562 -0.203404,0.63615 -0.06508,0.21861 -0.128735,0.44884 -0.190551,0.69058 l -8.17e-4,8.2e-4 -1.02e-4,1e-4 6.13e-4,10e-5 c -0.07712,0.30157 -0.127409,0.60334 -0.157807,0.89737 -0.01744,0.16846 -0.02887,0.33407 -0.03509,0.49612 l -1.886332,0 c -0.0354,-0.99704 -0.357538,-2.07275 -0.859214,-3.02678 -0.110168,-0.20944 -0.22911,-0.41327 -0.355702,-0.60905 -0.127612,-0.19751 -0.261038,-0.38453 -0.398749,-0.5585 l -0.0046,-0.006 c -0.574101,-0.7237 -1.293359,-1.29973 -2.145942,-1.50723 -0.163111,-0.0396 -0.332445,-0.0659 -0.507592,-0.0772 -0.174638,-0.0112 -0.354784,-0.007 -0.540439,0.0137 l -0.0024,2e-4 c -0.6530564,0.0737 -1.3237584,0.33887 -1.9923194,0.76009 -0.132916,0.0838 -0.264507,0.17274 -0.394363,0.2664 -0.130366,0.0941 -0.261651,0.19476 -0.393139,0.30147 l -0.0024,0.002 c -1.073329,0.87168 -2.121155,2.11596 -3.061975,3.58344 -0.183819,0.28669 -0.363149,0.58133 -0.537379,0.88249 -0.171883,0.29739 -0.341726,0.6066 -0.508714,0.92671 l -6.12e-4,-3e-4 -0.427209,0.85364 0.03101,-0.95637 c 0.07467,-2.29993 0.623065,-4.17181 1.46708,-5.61024 0.164743,-0.28088 0.341217,-0.54565 0.527687,-0.79402 0.187593,-0.2499 0.384162,-0.48186 0.588281,-0.69568 l 0.0039,-0.004 c 0.658972,-0.68956 1.408323,-1.2077 2.203577,-1.55279 l -1.02e-4,-3e-4 c 0.156481,-0.068 0.313369,-0.12872 0.470053,-0.18223 0.159643,-0.0546 0.318877,-0.10211 0.477194,-0.14237 l 8.16e-4,0 3.06e-4,-10e-5 0,-2.1e-4 c 0.821573,-0.20872 1.6715044,-0.24398 2.5054194,-0.10456 0.163213,0.0273 0.3251,0.0611 0.484742,0.1013 0.160357,0.0403 0.320306,0.0873 0.479336,0.14126 l 0.007,0.002 z"
   inkscape:connector-curvature="0"
   style="fill:#000000;fill-rule:nonzero" /><path
   id="_157102808"
   class="fil2"
   d="m 15.788496,30.198638 c -1.121068,-0.83224 -1.80799,-2.08702 -1.768717,-3.47388 0.03897,-1.35976 0.721503,-2.46177 1.767595,-3.24458 1.096076,0.81318 1.782896,2.03668 1.770247,3.39939 l 0,8.1e-4 -2.04e-4,0.0192 c -0.02061,1.37932 -0.708955,2.50732 -1.768921,3.2991 z"
   inkscape:connector-curvature="0"
   style="fill:#000000;fill-rule:nonzero" /><path
   id="_157103240"
   class="fil2"
   d="m 16.946695,44.482078 c -1.01753,1.0479 -1.378944,2.48184 -1.140653,3.92384 1.38231,-0.15919 2.626604,-0.76354 3.44124,-1.96513 0.665705,-0.98093 0.847381,-2.15887 0.654178,-3.32702 -1.124537,0.12984 -2.138088,0.52619 -2.954765,1.36831 z"
   inkscape:connector-curvature="0"
   style="fill:#000000;fill-rule:nonzero" /><path
   id="_157102928"
   class="fil2"
   d="m 14.618872,44.493288 c 1.01753,1.0479 1.378945,2.48195 1.140654,3.92395 -1.382311,-0.1593 -2.626605,-0.76355 -3.441241,-1.96513 -0.665704,-0.98094 -0.847381,-2.15898 -0.654178,-3.32703 1.124537,0.12984 2.138089,0.52619 2.954765,1.36821 z"
   inkscape:connector-curvature="0"
   style="fill:#000000;fill-rule:nonzero" /><path
   id="_157103024"
   class="fil2"
   d="m 14.618872,28.812598 c 1.01753,1.04789 1.378945,2.48184 1.140654,3.92384 -1.382311,-0.15919 -2.626605,-0.76355 -3.441241,-1.96513 -0.665704,-0.98094 -0.847381,-2.15888 -0.654178,-3.32703 1.124537,0.12984 2.138089,0.52619 2.954765,1.36832 z"
   inkscape:connector-curvature="0"
   style="fill:#000000;fill-rule:nonzero" /><path
   id="_157102520"
   class="fil2"
   d="m 16.946695,28.812598 c -1.01753,1.04789 -1.378944,2.48184 -1.140653,3.92384 1.38231,-0.15919 2.626604,-0.76355 3.44124,-1.96513 0.665705,-0.98094 0.847381,-2.15888 0.654178,-3.32703 -1.124537,0.12984 -2.138088,0.52619 -2.954765,1.36832 z"
   inkscape:connector-curvature="0"
   style="fill:#000000;fill-rule:nonzero" /><path
   id="_157518136"
   class="fil2"
   d="m 14.618872,32.733278 c 1.01753,1.04789 1.378945,2.48184 1.140654,3.92384 -1.382311,-0.15919 -2.626605,-0.76355 -3.441241,-1.96513 -0.665704,-0.98094 -0.847381,-2.15897 -0.654178,-3.32703 1.124537,0.12984 2.138089,0.52619 2.954765,1.36832 z"
   inkscape:connector-curvature="0"
   style="fill:#000000;fill-rule:nonzero" /><path
   id="_161045680"
   class="fil2"
   d="m 16.946695,32.733278 c -1.01753,1.04789 -1.378944,2.48184 -1.140653,3.92384 1.38231,-0.15919 2.626604,-0.76355 3.44124,-1.96513 0.665705,-0.98094 0.847381,-2.15897 0.654178,-3.32703 -1.124537,0.12984 -2.138088,0.52619 -2.954765,1.36832 z"
   inkscape:connector-curvature="0"
   style="fill:#000000;fill-rule:nonzero" /><path
   id="_161044072"
   class="fil2"
   d="m 14.618872,36.652938 c 1.01753,1.048 1.378945,2.48195 1.140654,3.92395 -1.382311,-0.15919 -2.626605,-0.76355 -3.441241,-1.96513 -0.665704,-0.98094 -0.847381,-2.15898 -0.654178,-3.32703 1.124537,0.12984 2.138089,0.52619 2.954765,1.36821 z"
   inkscape:connector-curvature="0"
   style="fill:#000000;fill-rule:nonzero" /><path
   id="_158384168"
   class="fil2"
   d="m 16.946695,36.652938 c -1.01753,1.048 -1.378944,2.48195 -1.140653,3.92395 1.38231,-0.15919 2.626604,-0.76355 3.44124,-1.96513 0.665705,-0.98094 0.847381,-2.15898 0.654178,-3.32703 -1.124537,0.12984 -2.138088,0.52619 -2.954765,1.36821 z"
   inkscape:connector-curvature="0"
   style="fill:#000000;fill-rule:nonzero" /><path
   id="_157560168"
   class="fil2"
   d="m 14.618872,40.573628 c 1.01753,1.04789 1.378945,2.48194 1.140654,3.92384 -1.382311,-0.15919 -2.626605,-0.76355 -3.441241,-1.96513 -0.665704,-0.98094 -0.847381,-2.15887 -0.654178,-3.32693 1.124537,0.12974 2.138089,0.52609 2.954765,1.36822 z"
   inkscape:connector-curvature="0"
   style="fill:#000000;fill-rule:nonzero" /><path
   id="_157560144"
   class="fil2"
   d="m 16.946695,40.573628 c -1.01753,1.04789 -1.378944,2.48194 -1.140653,3.92384 1.38231,-0.15919 2.626604,-0.76355 3.44124,-1.96513 0.665705,-0.98094 0.847381,-2.15887 0.654178,-3.32693 -1.124537,0.12974 -2.138088,0.52609 -2.954765,1.36822 z"
   inkscape:connector-curvature="0"
   style="fill:#000000;fill-rule:nonzero" /><path
   id="_157559640"
   class="fil2"
   d="m 11.661047,43.392608 -1.516655,-10.8916 0.326426,-0.045 1.516655,10.89159 -0.326426,0.0451 z m -0.0025,-7.82456 -0.988254,-7.16944 0.326426,-0.0438 0.988254,7.16944 -0.326426,0.0438 z m -0.04448,-7.88233 -0.508919,-4.72398 0.32765,-0.0349 0.508918,4.72408 -0.327649,0.0348 z m 1.182681,0.28383 -0.795255,-6.44818 0.32765,-0.0399 0.795152,6.44808 -0.327547,0.04 z m 1.028037,0.46504 -0.777506,-8.36114 0.32765,-0.0296 0.777403,8.36113 -0.327547,0.0297 z m 0.804231,-3.73489 -0.387223,-5.97418 0.328976,-0.0206 0.387223,5.97407 -0.328976,0.0207 z m 1.101687,-0.91673 0,-5.91384 0.3302,0 0,5.91384 -0.3302,0 z m 0.89104,1.03495 0.408848,-6.06386 0.328874,0.0219 -0.408848,6.06386 -0.328874,-0.0219 z m 0.883389,3.59364 0.571245,-8.66179 0.328874,0.0206 -0.571245,8.66189 -0.328874,-0.0207 z m 1.065882,-0.50988 0.800763,-7.31325 0.32765,0.0349 -0.800763,7.31314 -0.32765,-0.0348 z m 1.072411,-0.26223 0.924804,-5.96409 0.3251,0.0502 -0.924805,5.96409 -0.325099,-0.0502 z m -0.02867,15.67794 1.615195,-10.96222 0.326426,0.0477 -1.615195,10.96222 -0.326426,-0.0477 z m 0.006,-7.75555 0.920724,-7.41333 0.327548,0.0399 -0.920622,7.41333 -0.32765,-0.0399 z"
   inkscape:connector-curvature="0"
   style="fill:#000000;fill-rule:nonzero" /><path
   id="_157559256"
   class="fil3"
   d="m 15.787782,29.936718 c 0.962038,-0.71443 1.541851,-1.83967 1.559805,-3.03962 0.01795,-1.22707 -0.572061,-2.42243 -1.559805,-3.1553 -0.992844,0.73705 -1.577656,1.921 -1.559499,3.15448 0.01806,1.19679 0.6045,2.33142 1.559499,3.04044 z"
   inkscape:connector-curvature="0"
   style="fill:url(#radialGradient4383);fill-opacity:1;fill-rule:nonzero" /><path
   id="_157559232"
   class="fil3"
   d="m 19.723252,43.351838 c -1.035892,0.11863 -2.017311,0.60966 -2.7178,1.38269 -0.831468,0.91754 -1.223892,2.20167 -1.019876,3.43485 1.176866,-0.13473 2.278451,-0.75479 2.981286,-1.70321 0.663563,-0.89329 0.936842,-2.02363 0.75639,-3.11433 z"
   inkscape:connector-curvature="0"
   style="fill:url(#radialGradient4380);fill-opacity:1;fill-rule:nonzero" /><path
   id="_157559400"
   class="fil3"
   d="m 11.842316,43.363048 c 1.035891,0.11863 2.017412,0.60966 2.717799,1.38269 0.831468,0.91754 1.223893,2.20167 1.019877,3.43475 -1.176867,-0.13473 -2.278452,-0.75469 -2.981287,-1.70311 -0.66346,-0.89339 -0.936842,-2.02363 -0.756389,-3.11433 z"
   inkscape:connector-curvature="0"
   style="fill:url(#radialGradient4377);fill-opacity:1;fill-rule:nonzero" /><path
   id="_161043712"
   class="fil3"
   d="m 11.842316,27.682348 c 1.035891,0.11863 2.017412,0.60966 2.717799,1.38269 0.831468,0.91754 1.223893,2.20168 1.019877,3.43485 -1.176867,-0.13473 -2.278452,-0.75478 -2.981287,-1.70321 -0.66346,-0.89328 -0.936842,-2.02363 -0.756389,-3.11433 z"
   inkscape:connector-curvature="0"
   style="fill:url(#radialGradient4374);fill-opacity:1;fill-rule:nonzero" /><path
   id="_161045344"
   class="fil3"
   d="m 19.723252,27.682348 c -1.035892,0.11863 -2.017311,0.60966 -2.7178,1.38269 -0.831468,0.91754 -1.223892,2.20168 -1.019876,3.43485 1.176866,-0.13473 2.278451,-0.75478 2.981286,-1.70321 0.663563,-0.89328 0.936842,-2.02363 0.75639,-3.11433 z"
   inkscape:connector-curvature="0"
   style="fill:url(#radialGradient4371);fill-opacity:1;fill-rule:nonzero" /><path
   id="_161043976"
   class="fil3"
   d="m 11.842316,31.602018 c 1.035891,0.11863 2.017412,0.60966 2.717799,1.38268 0.831468,0.91755 1.223893,2.20168 1.019877,3.43476 -1.176867,-0.13474 -2.278452,-0.75479 -2.981287,-1.70311 -0.66346,-0.89339 -0.936842,-2.02374 -0.756389,-3.11433 z"
   inkscape:connector-curvature="0"
   style="fill:url(#radialGradient4368);fill-opacity:1;fill-rule:nonzero" /><path
   id="_161045056"
   class="fil3"
   d="m 19.723252,31.602018 c -1.035892,0.11863 -2.017311,0.60966 -2.7178,1.38268 -0.831468,0.91755 -1.223892,2.20168 -1.019876,3.43476 1.176866,-0.13474 2.278451,-0.75479 2.981286,-1.70311 0.663563,-0.89339 0.936842,-2.02374 0.75639,-3.11433 z"
   inkscape:connector-curvature="0"
   style="fill:url(#radialGradient4365);fill-opacity:1;fill-rule:nonzero" /><path
   id="_201773576"
   class="fil3"
   d="m 11.842316,35.521678 c 1.035891,0.11873 2.017412,0.60976 2.717799,1.38279 0.831468,0.91744 1.223893,2.20168 1.019877,3.43475 -1.176867,-0.13473 -2.278452,-0.75478 -2.981287,-1.70321 -0.66346,-0.89329 -0.936842,-2.02363 -0.756389,-3.11433 z"
   inkscape:connector-curvature="0"
   style="fill:url(#radialGradient4362);fill-opacity:1;fill-rule:nonzero" /><path
   id="_157559280"
   class="fil3"
   d="m 19.723252,35.521678 c -1.035892,0.11873 -2.017311,0.60976 -2.7178,1.38279 -0.831468,0.91744 -1.223892,2.20168 -1.019876,3.43475 1.176866,-0.13473 2.278451,-0.75478 2.981286,-1.70321 0.663563,-0.89329 0.936842,-2.02363 0.75639,-3.11433 z"
   inkscape:connector-curvature="0"
   style="fill:url(#radialGradient4359);fill-opacity:1;fill-rule:nonzero" /><path
   id="_158384120"
   class="fil3"
   d="m 11.842316,39.442368 c 1.035891,0.11863 2.017412,0.60965 2.717799,1.38268 0.831468,0.91755 1.223893,2.20168 1.019877,3.43475 -1.176867,-0.13473 -2.278452,-0.75468 -2.981287,-1.7031 -0.66346,-0.89339 -0.936842,-2.02363 -0.756389,-3.11433 z"
   inkscape:connector-curvature="0"
   style="fill:url(#radialGradient4356);fill-opacity:1;fill-rule:nonzero" /><path
   id="_161045128"
   class="fil3"
   d="m 19.723252,39.442368 c -1.035892,0.11863 -2.017311,0.60965 -2.7178,1.38268 -0.831468,0.91755 -1.223892,2.20168 -1.019876,3.43475 1.176866,-0.13473 2.278451,-0.75468 2.981286,-1.7031 0.663563,-0.89339 0.936842,-2.02363 0.75639,-3.11433 z"
   inkscape:connector-curvature="0"
   style="fill:url(#radialGradient4353);fill-opacity:1;fill-rule:nonzero" /><path
   id="_160115808"
   class="fil3"
   d="m 16.301189,61.285888 c -0.980196,-1.93711 -2.439727,-3.1712 -4.029624,-3.71196 -1.094444,-0.3723 -2.251827,-0.41633 -3.3571864,-0.13545 -1.107093,0.28139 -2.162672,0.8888 -3.051468,1.81888 -1.427705,1.49398 -2.427077,3.81969 -2.529289,6.96602 1.185843,-2.27332 2.6467,-4.22786 4.162539,-5.45899 0.95653,-0.7767 1.938153,-1.26844 2.8917244,-1.37596 1.412199,-0.1594 2.548875,0.59651 3.384014,1.6495 0.907872,1.14451 1.556133,2.70524 1.654163,4.14051 l 1.485135,0 c 0.02458,-0.40817 0.08171,-0.83377 0.189632,-1.2558 0.442613,-1.72961 1.006922,-2.98734 1.662119,-3.8415 0.700693,-0.91346 1.506557,-1.36994 2.380868,-1.45035 0.865436,-0.0795 1.789119,0.21341 2.736569,0.7982 1.181865,0.72951 2.406778,1.91754 3.604964,3.40316 -0.671621,-2.33743 -1.569088,-3.98887 -2.572337,-5.07488 -0.89308,-0.96667 -1.868481,-1.48256 -2.839291,-1.6337 -0.969178,-0.15094 -1.938357,0.0602 -2.819604,0.54759 -1.286627,0.71157 -2.08484,1.82673 -2.805119,3.06011 l 0.0254,-3.93597 c -0.0055,-1.40776 0.53391,-2.68241 1.310803,-3.4746 0.699775,-0.71341 1.699964,-1.1011 2.660472,-0.66775 0.574203,0.25917 1.12729,0.80187 1.593059,1.69984 -0.03591,-0.67875 -0.19912,-1.27924 -0.460362,-1.77536 -0.436084,-0.82878 -1.204613,-1.42753 -2.157164,-1.50458 -1.140246,-0.0921 -1.975487,0.37933 -2.506439,1.12178 -0.173618,0.24267 -0.333362,0.53659 -0.461281,0.83948 l -0.101395,-0.2714 c 0.390996,-0.9474 1.492071,-1.99754 2.310685,-2.52403 0.770467,-0.49562 1.580513,-0.70801 2.396781,-0.62138 0.896141,0.095 1.794117,0.55044 2.649047,1.38615 0.717932,0.70179 1.406996,1.67406 2.040466,2.92894 -0.434044,-1.87239 -1.060373,-3.26506 -1.806052,-4.21715 -0.653769,-0.83479 -1.398122,-1.32745 -2.182054,-1.50407 -0.781687,-0.17621 -1.609074,-0.0392 -2.430443,0.38422 -1.476974,0.76131 -2.464514,2.11505 -3.342803,3.47358 l -0.03152,-2.682 c -0.139139,0.0194 -0.407216,0.0128 -0.747106,-0.0586 l 0.0406,2.84374 c -0.863192,-1.43874 -1.846856,-2.86474 -3.400744,-3.63257 -1.681194,-0.83081 -3.3529024,-0.36231 -4.5062054,1.08204 -0.821878,1.02924 -1.482584,2.60067 -1.86236,4.77708 0.650607,-1.12515 1.578676,-2.3143 2.49481,-3.14002 0.496065,-0.4471 0.992334,-0.79055 1.444638,-0.96473 0.6246974,-0.24052 1.2773444,-0.17325 1.6719114,0.57725 0.641427,-0.19374 1.321106,-0.11853 1.932849,0.14228 -0.414255,-0.6118 -0.918175,-1.22819 -1.562253,-1.61292 -0.932354,-0.55707 -1.6289674,-0.25825 -2.1332944,0.008 0.508408,-0.56105 1.3088654,-0.745 2.2411164,-0.18804 0.768325,0.45903 1.357115,1.2184 1.818701,1.97217 0.809944,0.45342 1.629987,1.27965 2.371993,2.55318 l -0.07467,0.29311 c -0.795969,-1.42926 -2.238668,-3.24927 -4.094908,-3.05532 -0.770977,0.0803 -1.509515,0.55156 -1.9396834,1.20454 -0.595931,0.88146 -0.904301,2.26496 -0.658564,3.80929 0.377532,-1.62219 1.0945464,-2.69261 1.8771524,-3.15 0.866252,-0.50642 1.858892,-0.34336 2.618648,0.27496 0.9347,0.7608 1.626824,2.24449 1.596324,4.22705 l 0.02479,2.8256 c 0.502695,0.51987 0.945206,1.15633 1.334775,1.87106 l -0.143525,0.23971 z m -0.646731,1.01497 c -0.54962,-1.44893 -1.422298,-2.47073 -2.375257,-3.11708 -1.655897,-1.12311 -3.8337684,-1.13962 -5.5203694,-0.0451 -0.53238,0.3455 -0.886246,0.72625 -1.24256,1.10069 0.807496,-1.5748 2.862346,-2.29626 4.5356854,-2.10557 0.801579,0.0914 1.607341,0.37637 2.344859,0.87657 0.917664,0.6223 1.816049,1.60201 2.380459,2.93241 l -0.122817,0.35803 z m 1.244498,-1.91315 c 0.568184,-1.15114 1.321514,-1.95831 2.140638,-2.4743 1.77545,-1.11883 4.293212,-0.94476 5.700515,0.92488 -1.568884,-1.5218 -3.710746,-1.93059 -5.588714,-0.74745 -0.788012,0.49653 -1.609687,1.31399 -2.15951,2.59955 l -0.09293,-0.30268 z"
   inkscape:connector-curvature="0"
   style="fill:url(#radialGradient4350);fill-opacity:1;fill-rule:nonzero" /><path
   id="_157430192"
   class="fil2"
   d="m 66.885232,57.188888 c 0.91695,0.31176 1.79157,0.84661 2.56071,1.60578 l -0.0245,-2.62972 0,-0.004 c 0.0213,-1.37749 -0.31469,-2.50202 -0.83779,-3.29564 -0.10017,-0.15206 -0.20779,-0.29239 -0.32133,-0.42009 -0.112,-0.12607 -0.22992,-0.23971 -0.35213,-0.33989 l -0.007,-0.006 -1e-4,1.1e-4 c -0.50066,-0.40746 -1.10873,-0.59967 -1.70139,-0.50347 -0.11568,0.0188 -0.23013,0.0482 -0.34224,0.0886 -0.11037,0.0397 -0.22228,0.0922 -0.33489,0.15787 l -1e-4,-2.1e-4 -6.2e-4,3.1e-4 -7.1e-4,0 c -0.52534,0.30707 -1.02294,0.91968 -1.39792,1.81735 -0.0757,0.18131 -0.14516,0.37006 -0.20748,0.56543 -0.0621,0.19496 -0.11996,0.40603 -0.1728,0.63289 l -2.1e-4,-10e-5 -10e-5,5.1e-4 -0.24278,1.05105 -0.16944,-1.06511 c -0.18259,-1.14828 -0.0679,-2.21299 0.24095,-3.06144 0.0602,-0.1651 0.12853,-0.32378 0.20422,-0.47442 0.077,-0.15358 0.15923,-0.29484 0.24563,-0.42274 l 8.2e-4,-8.2e-4 7.1e-4,-10e-4 4.1e-4,3e-4 c 0.36529,-0.5533 0.85289,-0.93222 1.39629,-1.12678 -0.27236,-0.56287 -0.83198,-0.67019 -1.37844,-0.45444 l 0,8.2e-4 -0.001,6.1e-4 -2e-4,-4.1e-4 c -0.30552,0.11782 -0.63551,0.32022 -0.97357,0.58357 -0.0697,0.0542 -0.13709,0.10874 -0.20177,0.16327 -0.0571,0.048 -0.12506,0.10762 -0.20248,0.17733 l -9.2e-4,4.1e-4 2e-4,3.1e-4 c -0.64826,0.58397 -1.30264,1.35363 -1.85716,2.15173 -0.11016,0.15869 -0.21472,0.31553 -0.31245,0.46902 -0.0962,0.15094 -0.19106,0.30748 -0.28378,0.46769 l -0.002,0.002 -3.1e-4,4e-4 -0.58134,0.9681 0.19381,-1.11108 c 0.27726,-1.58978 0.70406,-2.86454 1.2342,-3.8468 0.10486,-0.19425 0.21279,-0.37576 0.32346,-0.54474 0.1113,-0.17009 0.22718,-0.3301 0.34683,-0.48012 l 7.2e-4,-6.1e-4 -1.1e-4,-1e-4 c 0.87493,-1.0958 2.03772,-1.65827 3.28752,-1.56043 l 0,0 c 0.24247,0.0191 0.48801,0.0632 0.73486,0.1331 0.24574,0.0696 0.49301,0.16511 0.74028,0.2872 l 9.2e-4,8.2e-4 0,0 2e-4,-3.1e-4 c 0.80474,0.39767 1.46024,0.96381 2.02516,1.61566 0.39141,0.45159 0.73875,0.94343 1.06191,1.44822 l -0.035,-2.44801 1.16697,0 0.0285,2.41632 c 0.33418,-0.49073 0.6906,-0.97116 1.08873,-1.415 0.55727,-0.62127 1.19289,-1.16642 1.95601,-1.55971 0.62051,-0.31981 1.24705,-0.484 1.85899,-0.48216 0.12323,4.1e-4 0.24288,0.007 0.35836,0.02 0.11731,0.013 0.23533,0.0329 0.35386,0.0595 l 0.002,0 0.002,4.1e-4 -1e-4,4.1e-4 c 0.5995,0.13534 1.17513,0.44241 1.70639,0.9315 0.10242,0.0942 0.2032,0.19527 0.30194,0.3029 l 0,8.1e-4 c 0.0995,0.10844 0.19627,0.22259 0.29011,0.34223 l 3.1e-4,-3e-4 0.001,10e-4 0,8.1e-4 c 0.55074,0.70342 1.03722,1.63819 1.43107,2.81857 0.0772,0.23125 0.15006,0.46871 0.2182,0.71229 0.0696,0.24878 0.13495,0.50448 0.19595,0.76722 l 2.1e-4,10e-4 0.3914,1.69404 -0.78383,-1.55269 c -0.44832,-0.88829 -0.92501,-1.63237 -1.41974,-2.23653 -0.0975,-0.11914 -0.19372,-0.23063 -0.28848,-0.33448 -0.0983,-0.10773 -0.19555,-0.20873 -0.29154,-0.30249 l -0.002,-8.1e-4 -3.1e-4,-3.1e-4 4.1e-4,-4.1e-4 c -0.59083,-0.57735 -1.20033,-0.96493 -1.81248,-1.16978 -0.11404,-0.0381 -0.23227,-0.0707 -0.35437,-0.0975 -0.12058,-0.0265 -0.2384,-0.046 -0.35316,-0.0582 l 0,-10e-5 -0.002,-2e-4 -9.1e-4,0 c -0.55075,-0.0584 -1.09945,0.0286 -1.63417,0.2555 -0.10742,0.0455 -0.21208,0.0954 -0.31347,0.1493 -0.1014,0.0539 -0.20514,0.11507 -0.31092,0.18294 l -0.002,0.002 c -0.32674,0.21005 -0.69947,0.50285 -1.05161,0.83866 0.0578,-0.0372 0.11721,-0.0721 0.17852,-0.10477 0.42139,-0.22442 0.92205,-0.3355 1.5344,-0.28597 0.74181,0.0599 1.37956,0.41092 1.8538,0.93558 0.0917,0.10151 0.17708,0.20913 0.25563,0.32205 0.0778,0.11201 0.14995,0.23094 0.21574,0.35559 l 0,8.1e-4 0.001,0.002 3.1e-4,-1e-4 c 0.19769,0.37556 0.34214,0.80676 0.4215,1.28291 0.0153,0.0918 0.0284,0.1862 0.0389,0.28271 0.0102,0.0939 0.0182,0.19119 0.0236,0.29158 l 3e-4,0.005 0.0516,0.97054 -0.44812,-0.86374 c -0.32,-0.61679 -0.68009,-1.05574 -1.05742,-1.34273 -0.0723,-0.055 -0.14465,-0.10406 -0.21646,-0.14706 -0.071,-0.0426 -0.14393,-0.0807 -0.2183,-0.11425 l -6.1e-4,-4.1e-4 0,1e-4 c -0.62225,-0.28077 -1.26643,-0.17672 -1.81635,0.14482 -0.10742,0.0628 -0.2133,0.13565 -0.31653,0.21698 l -4.1e-4,-4.1e-4 c -0.10038,0.0791 -0.19769,0.16674 -0.29052,0.26142 l -8.2e-4,0.002 -5.1e-4,5.1e-4 -4.1e-4,-4.1e-4 c -0.52044,0.53128 -0.92939,1.29259 -1.12453,2.16743 -0.038,0.17081 -0.0684,0.34927 -0.0897,0.53424 -0.0214,0.18549 -0.0335,0.37108 -0.0351,0.55534 l -2e-4,0.0683 0,0.002 -0.0206,3.17986 c 0.25033,-0.38891 0.51759,-0.7611 0.81668,-1.10772 0.46485,-0.53862 1.00457,-1.0109 1.67262,-1.38044 0.66204,-0.36608 1.37252,-0.58306 2.09709,-0.6172 0.14179,-0.007 0.28399,-0.006 0.42588,10e-4 0.14108,0.007 0.28399,0.0221 0.42813,0.0445 l 0.002,3e-4 c 0.73282,0.11405 1.46636,0.42489 2.16624,0.96565 0.13669,0.10558 0.27083,0.21871 0.40191,0.33938 0.1322,0.12158 0.26308,0.25224 0.39202,0.39186 l 0.002,0.002 c 0.73833,0.79943 1.41975,1.89553 1.99762,3.33345 0.11241,0.27976 0.22054,0.57093 0.32378,0.87362 0.10435,0.30605 0.20391,0.62321 0.29827,0.95148 l 3e-4,10e-4 0.28481,0.99612 -0.65091,-0.80707 c -0.85381,-1.05859 -1.71976,-1.9634 -2.57193,-2.65459 -0.15995,-0.12974 -0.32429,-0.25519 -0.4927,-0.37596 -0.1676,-0.12006 -0.32908,-0.2284 -0.48383,-0.32399 l -1e-4,10e-5 -5.1e-4,-3.1e-4 -0.002,-0.002 c -0.65652,-0.40522 -1.29795,-0.66449 -1.91163,-0.74908 l -7.1e-4,0 c -0.11945,-0.0165 -0.23595,-0.0264 -0.34918,-0.0296 -0.11567,-0.003 -0.23002,4.1e-4 -0.34295,0.0106 l -0.003,3.1e-4 c -0.5842,0.0536 -1.13728,0.28954 -1.64661,0.73562 -0.0991,0.0867 -0.198,0.18314 -0.29644,0.28924 -0.0976,0.10528 -0.19351,0.21891 -0.28725,0.3409 l -0.002,0.003 c -0.45873,0.59814 -0.87278,1.40256 -1.23083,2.43812 -0.0669,0.19374 -0.13475,0.40563 -0.2034,0.63616 -0.0651,0.21861 -0.12874,0.44883 -0.19055,0.69058 l -8.2e-4,8.1e-4 -1e-4,10e-5 6.1e-4,1.1e-4 c -0.0771,0.30156 -0.12741,0.60334 -0.15781,0.89736 -0.0174,0.16847 -0.0289,0.33408 -0.0351,0.49613 l -1.88633,0 c -0.0354,-0.99704 -0.35754,-2.07276 -0.85921,-3.02679 -0.11017,-0.20944 -0.22911,-0.41327 -0.35571,-0.60905 -0.12761,-0.19751 -0.26103,-0.38452 -0.39875,-0.55849 l -0.005,-0.006 c -0.5741,-0.7237 -1.29336,-1.29972 -2.14594,-1.50722 -0.16311,-0.0396 -0.33244,-0.0659 -0.50759,-0.0772 -0.17464,-0.0112 -0.35478,-0.007 -0.54044,0.0136 l -0.002,2.1e-4 c -0.65305,0.0737 -1.32376,0.33886 -1.99232,0.76008 -0.13291,0.0838 -0.2645,0.17275 -0.39436,0.26641 -0.13037,0.0941 -0.26165,0.19476 -0.39314,0.30146 l -0.002,0.002 c -1.07333,0.87168 -2.12116,2.11597 -3.06198,3.58345 -0.18381,0.28669 -0.36314,0.58132 -0.53737,0.88248 -0.17189,0.29739 -0.34173,0.6066 -0.50872,0.92672 l -6.1e-4,-3.1e-4 -0.42721,0.85365 0.031,-0.95638 c 0.0747,-2.29992 0.62307,-4.1718 1.46708,-5.61023 0.16474,-0.28088 0.34122,-0.54566 0.52769,-0.79403 0.18759,-0.24989 0.38416,-0.48185 0.58828,-0.69567 l 0.004,-0.004 c 0.65897,-0.68956 1.40832,-1.20769 2.20358,-1.55278 l -1.1e-4,-3.1e-4 c 0.15648,-0.068 0.31337,-0.12871 0.47006,-0.18222 0.15964,-0.0546 0.31887,-0.10212 0.47719,-0.14238 l 8.2e-4,0 3e-4,-1e-4 0,-2e-4 c 0.82158,-0.20872 1.67151,-0.24399 2.50542,-0.10457 0.16322,0.0273 0.3251,0.0611 0.48474,0.10131 0.16036,0.0402 0.32031,0.0873 0.47934,0.14125 l 0.007,0.002 z"
   inkscape:connector-curvature="0"
   style="fill:#000000;fill-rule:nonzero" /><path
   id="_157430264"
   class="fil2"
   d="m 70.335152,30.012138 c -1.12107,-0.83224 -1.80799,-2.08702 -1.76872,-3.47389 0.039,-1.35975 0.7215,-2.46176 1.76759,-3.24458 1.09608,0.81319 1.7829,2.03668 1.77025,3.39939 l 0,8.2e-4 -2e-4,0.0192 c -0.0206,1.37932 -0.70896,2.50732 -1.76892,3.2991 z"
   inkscape:connector-curvature="0"
   style="fill:#000000;fill-rule:nonzero" /><path
   id="_160116648"
   class="fil2"
   d="m 71.492942,44.296598 c -1.01753,1.04789 -1.37895,2.48184 -1.14066,3.92384 1.38231,-0.15919 2.62661,-0.76355 3.44124,-1.96513 0.66571,-0.98094 0.84738,-2.15888 0.65418,-3.32703 -1.12453,0.12984 -2.13809,0.52619 -2.95476,1.36832 z"
   inkscape:connector-curvature="0"
   style="fill:#000000;fill-rule:nonzero" /><path
   id="_160114728"
   class="fil2"
   d="m 69.165112,44.307808 c 1.01753,1.04789 1.37895,2.48194 1.14066,3.92394 -1.38231,-0.15929 -2.62661,-0.76355 -3.44124,-1.96513 -0.66571,-0.98094 -0.84738,-2.15898 -0.65418,-3.32703 1.12454,0.12984 2.13809,0.52619 2.95476,1.36822 z"
   inkscape:connector-curvature="0"
   style="fill:#000000;fill-rule:nonzero" /><path
   id="_160116336"
   class="fil2"
   d="m 69.165112,28.627108 c 1.01753,1.04789 1.37895,2.48184 1.14066,3.92384 -1.38231,-0.15919 -2.62661,-0.76355 -3.44124,-1.96513 -0.66571,-0.98093 -0.84738,-2.15887 -0.65418,-3.32703 1.12454,0.12984 2.13809,0.52619 2.95476,1.36832 z"
   inkscape:connector-curvature="0"
   style="fill:#000000;fill-rule:nonzero" /><path
   id="_160116000"
   class="fil2"
   d="m 71.492942,28.627108 c -1.01753,1.04789 -1.37895,2.48184 -1.14066,3.92384 1.38231,-0.15919 2.62661,-0.76355 3.44124,-1.96513 0.66571,-0.98093 0.84738,-2.15887 0.65418,-3.32703 -1.12453,0.12984 -2.13809,0.52619 -2.95476,1.36832 z"
   inkscape:connector-curvature="0"
   style="fill:#000000;fill-rule:nonzero" /><path
   id="_160115760"
   class="fil2"
   d="m 69.165112,32.546768 c 1.01753,1.0479 1.37895,2.48185 1.14066,3.92385 -1.38231,-0.15919 -2.62661,-0.76355 -3.44124,-1.96513 -0.66571,-0.98094 -0.84738,-2.15898 -0.65418,-3.32703 1.12454,0.12984 2.13809,0.52619 2.95476,1.36831 z"
   inkscape:connector-curvature="0"
   style="fill:#000000;fill-rule:nonzero" /><path
   id="_160114752"
   class="fil2"
   d="m 71.492942,32.546768 c -1.01753,1.0479 -1.37895,2.48185 -1.14066,3.92385 1.38231,-0.15919 2.62661,-0.76355 3.44124,-1.96513 0.66571,-0.98094 0.84738,-2.15898 0.65418,-3.32703 -1.12453,0.12984 -2.13809,0.52619 -2.95476,1.36831 z"
   inkscape:connector-curvature="0"
   style="fill:#000000;fill-rule:nonzero" /><path
   id="_157560000"
   class="fil2"
   d="m 69.165112,36.467458 c 1.01753,1.04799 1.37895,2.48194 1.14066,3.92394 -1.38231,-0.15919 -2.62661,-0.76355 -3.44124,-1.96513 -0.66571,-0.98093 -0.84738,-2.15897 -0.65418,-3.32703 1.12454,0.12984 2.13809,0.52619 2.95476,1.36822 z"
   inkscape:connector-curvature="0"
   style="fill:#000000;fill-rule:nonzero" /><path
   id="_157559784"
   class="fil2"
   d="m 71.492942,36.467458 c -1.01753,1.04799 -1.37895,2.48194 -1.14066,3.92394 1.38231,-0.15919 2.62661,-0.76355 3.44124,-1.96513 0.66571,-0.98093 0.84738,-2.15897 0.65418,-3.32703 -1.12453,0.12984 -2.13809,0.52619 -2.95476,1.36822 z"
   inkscape:connector-curvature="0"
   style="fill:#000000;fill-rule:nonzero" /><path
   id="_157559544"
   class="fil2"
   d="m 69.165112,40.387118 c 1.01753,1.0479 1.37895,2.48195 1.14066,3.92385 -1.38231,-0.1592 -2.62661,-0.76355 -3.44124,-1.96514 -0.66571,-0.98093 -0.84738,-2.15887 -0.65418,-3.32692 1.12454,0.12974 2.13809,0.52609 2.95476,1.36821 z"
   inkscape:connector-curvature="0"
   style="fill:#000000;fill-rule:nonzero" /><path
   id="_157559808"
   class="fil2"
   d="m 71.492942,40.387118 c -1.01753,1.0479 -1.37895,2.48195 -1.14066,3.92385 1.38231,-0.1592 2.62661,-0.76355 3.44124,-1.96514 0.66571,-0.98093 0.84738,-2.15887 0.65418,-3.32692 -1.12453,0.12974 -2.13809,0.52609 -2.95476,1.36821 z"
   inkscape:connector-curvature="0"
   style="fill:#000000;fill-rule:nonzero" /><path
   id="_157559760"
   class="fil2"
   d="m 66.206882,43.206098 -1.51665,-10.89159 0.32642,-0.0451 1.51666,10.89159 -0.32643,0.0451 z m -0.002,-7.82455 -0.98825,-7.16944 0.32642,-0.0438 0.98826,7.16944 -0.32643,0.0438 z m -0.0445,-7.88234 -0.50892,-4.72398 0.32765,-0.0348 0.50892,4.72408 -0.32765,0.0348 z m 1.18268,0.28384 -0.79526,-6.44819 0.32765,-0.0399 0.79515,6.44809 -0.32754,0.04 z m 1.02803,0.46504 -0.7775,-8.36114 0.32765,-0.0297 0.7774,8.36114 -0.32755,0.0297 z m 0.80423,-3.7349 -0.38722,-5.97417 0.32898,-0.0206 0.38722,5.97407 -0.32898,0.0207 z m 1.10169,-0.91672 0,-5.91385 0.3302,0 0,5.91385 -0.3302,0 z m 0.89104,1.03495 0.40885,-6.06387 0.32887,0.0219 -0.40884,6.06386 -0.32888,-0.0219 z m 0.88339,3.59363 0.57125,-8.66178 0.32887,0.0206 -0.57124,8.66189 -0.32888,-0.0207 z m 1.06588,-0.50988 0.80077,-7.31324 0.32765,0.0349 -0.80077,7.31314 -0.32765,-0.0348 z m 1.07241,-0.26223 0.92481,-5.96408 0.3251,0.0502 -0.92481,5.96409 -0.3251,-0.0503 z m -0.0287,15.67795 1.61519,-10.96222 0.32643,0.0477 -1.6152,10.96222 -0.32642,-0.0477 z m 0.006,-7.75556 0.92072,-7.41332 0.32755,0.0399 -0.92062,7.41332 -0.32765,-0.0399 z"
   inkscape:connector-curvature="0"
   style="fill:#000000;fill-rule:nonzero" /><path
   id="_157560048"
   class="fil3"
   d="m 70.334132,29.750218 c 0.96203,-0.71443 1.54185,-1.83968 1.5598,-3.03963 0.018,-1.22706 -0.57206,-2.42243 -1.5598,-3.1553 -0.99285,0.73705 -1.57766,1.921 -1.5595,3.15449 0.0181,1.19679 0.6045,2.33141 1.5595,3.04044 z"
   inkscape:connector-curvature="0"
   style="fill:url(#radialGradient4310);fill-opacity:1;fill-rule:nonzero" /><path
   id="_161045152"
   class="fil3"
   d="m 74.269602,43.165338 c -1.0359,0.11862 -2.01732,0.60965 -2.7178,1.38268 -0.83147,0.91754 -1.2239,2.20168 -1.01988,3.43485 1.17687,-0.13473 2.27845,-0.75478 2.98129,-1.70321 0.66356,-0.89328 0.93684,-2.02363 0.75639,-3.11432 z"
   inkscape:connector-curvature="0"
   style="fill:url(#radialGradient4307);fill-opacity:1;fill-rule:nonzero" /><path
   id="_161043688"
   class="fil3"
   d="m 66.388462,43.176548 c 1.03589,0.11863 2.01741,0.60965 2.7178,1.38268 0.83146,0.91755 1.22389,2.20168 1.01987,3.43475 -1.17687,-0.13473 -2.27845,-0.75468 -2.98129,-1.7031 -0.66346,-0.89339 -0.93684,-2.02364 -0.75638,-3.11433 z"
   inkscape:connector-curvature="0"
   style="fill:url(#radialGradient4304);fill-opacity:1;fill-rule:nonzero" /><path
   id="_161044552"
   class="fil3"
   d="m 66.388462,27.495848 c 1.03589,0.11863 2.01741,0.60966 2.7178,1.38268 0.83146,0.91755 1.22389,2.20168 1.01987,3.43486 -1.17687,-0.13473 -2.27845,-0.75479 -2.98129,-1.70321 -0.66346,-0.89329 -0.93684,-2.02363 -0.75638,-3.11433 z"
   inkscape:connector-curvature="0"
   style="fill:url(#radialGradient4301);fill-opacity:1;fill-rule:nonzero" /><path
   id="_161045440"
   class="fil3"
   d="m 74.269602,27.495848 c -1.0359,0.11863 -2.01732,0.60966 -2.7178,1.38268 -0.83147,0.91755 -1.2239,2.20168 -1.01988,3.43486 1.17687,-0.13473 2.27845,-0.75479 2.98129,-1.70321 0.66356,-0.89329 0.93684,-2.02363 0.75639,-3.11433 z"
   inkscape:connector-curvature="0"
   style="fill:url(#radialGradient4298);fill-opacity:1;fill-rule:nonzero" /><path
   id="_161044264"
   class="fil3"
   d="m 66.388462,31.416528 c 1.03589,0.11863 2.01741,0.60966 2.7178,1.38269 0.83146,0.91754 1.22389,2.20168 1.01987,3.43475 -1.17687,-0.13473 -2.27845,-0.75479 -2.98129,-1.70311 -0.66346,-0.89339 -0.93684,-2.02373 -0.75638,-3.11433 z"
   inkscape:connector-curvature="0"
   style="fill:url(#radialGradient4295);fill-opacity:1;fill-rule:nonzero" /><path
   id="_161045464"
   class="fil3"
   d="m 74.269602,31.416528 c -1.0359,0.11863 -2.01732,0.60966 -2.7178,1.38269 -0.83147,0.91754 -1.2239,2.20168 -1.01988,3.43475 1.17687,-0.13473 2.27845,-0.75479 2.98129,-1.70311 0.66356,-0.89339 0.93684,-2.02373 0.75639,-3.11433 z"
   inkscape:connector-curvature="0"
   style="fill:url(#radialGradient4292);fill-opacity:1;fill-rule:nonzero" /><path
   id="_157665848"
   class="fil3"
   d="m 66.388462,35.336198 c 1.03589,0.11873 2.01741,0.60976 2.7178,1.38278 0.83146,0.91745 1.22389,2.20168 1.01987,3.43476 -1.17687,-0.13474 -2.27845,-0.75479 -2.98129,-1.70321 -0.66346,-0.89329 -0.93684,-2.02363 -0.75638,-3.11433 z"
   inkscape:connector-curvature="0"
   style="fill:url(#radialGradient4289);fill-opacity:1;fill-rule:nonzero" /><path
   id="_157666040"
   class="fil3"
   d="m 74.269602,35.336198 c -1.0359,0.11873 -2.01732,0.60976 -2.7178,1.38278 -0.83147,0.91745 -1.2239,2.20168 -1.01988,3.43476 1.17687,-0.13474 2.27845,-0.75479 2.98129,-1.70321 0.66356,-0.89329 0.93684,-2.02363 0.75639,-3.11433 z"
   inkscape:connector-curvature="0"
   style="fill:url(#radialGradient4286);fill-opacity:1;fill-rule:nonzero" /><path
   id="_157666640"
   class="fil3"
   d="m 66.388462,39.256878 c 1.03589,0.11863 2.01741,0.60966 2.7178,1.38269 0.83146,0.91754 1.22389,2.20167 1.01987,3.43475 -1.17687,-0.13473 -2.27845,-0.75468 -2.98129,-1.70311 -0.66346,-0.89339 -0.93684,-2.02363 -0.75638,-3.11433 z"
   inkscape:connector-curvature="0"
   style="fill:url(#radialGradient4283);fill-opacity:1;fill-rule:nonzero" /><path
   id="_157665824"
   class="fil3"
   d="m 74.269602,39.256878 c -1.0359,0.11863 -2.01732,0.60966 -2.7178,1.38269 -0.83147,0.91754 -1.2239,2.20167 -1.01988,3.43475 1.17687,-0.13473 2.27845,-0.75468 2.98129,-1.70311 0.66356,-0.89339 0.93684,-2.02363 0.75639,-3.11433 z"
   inkscape:connector-curvature="0"
   style="fill:url(#radialGradient4280);fill-opacity:1;fill-rule:nonzero" /><path
   id="_157103288"
   class="fil3"
   d="m 70.847232,61.100398 c -0.9802,-1.9371 -2.43973,-3.1712 -4.02963,-3.71196 -1.09444,-0.3723 -2.25182,-0.41633 -3.35718,-0.13545 -1.1071,0.28139 -2.16268,0.88881 -3.05147,1.81889 -1.42771,1.49397 -2.42708,3.81968 -2.52929,6.96601 1.18584,-2.27332 2.6467,-4.22785 4.16254,-5.45899 0.95653,-0.7767 1.93815,-1.26844 2.89172,-1.37596 1.4122,-0.1594 2.54888,0.59651 3.38402,1.6495 0.90787,1.14451 1.55613,2.70524 1.65416,4.14052 l 1.48513,0 c 0.0246,-0.40818 0.0817,-0.83377 0.18964,-1.25581 0.44261,-1.7296 1.00692,-2.98734 1.66212,-3.84149 0.70069,-0.91347 1.50655,-1.36995 2.38086,-1.45036 0.86544,-0.0795 1.78912,0.21341 2.73657,0.7982 1.18187,0.72951 2.40678,1.91754 3.60497,3.40316 -0.67162,-2.33743 -1.56909,-3.98887 -2.57234,-5.07488 -0.89308,-0.96666 -1.86848,-1.48256 -2.83929,-1.6337 -0.96918,-0.15094 -1.93836,0.0602 -2.81961,0.54759 -1.28662,0.71158 -2.08484,1.82673 -2.80511,3.06011 l 0.0254,-3.93597 c -0.005,-1.40775 0.53391,-2.68241 1.3108,-3.4746 0.69977,-0.71341 1.69996,-1.10109 2.66047,-0.66775 0.5742,0.25917 1.12729,0.80187 1.59306,1.69985 -0.0359,-0.67876 -0.19912,-1.27924 -0.46036,-1.77537 -0.43609,-0.82877 -1.20462,-1.42753 -2.15717,-1.50457 -1.14024,-0.0921 -1.97548,0.37933 -2.50644,1.12178 -0.17361,0.24266 -0.33336,0.53658 -0.46128,0.83948 l -0.10139,-0.2714 c 0.391,-0.94741 1.49207,-1.99755 2.31068,-2.52404 0.77047,-0.49561 1.58052,-0.70801 2.39678,-0.62138 0.89615,0.095 1.79412,0.55045 2.64905,1.38615 0.71793,0.70179 1.407,1.67406 2.04047,2.92895 -0.43405,-1.87239 -1.06038,-3.26506 -1.80605,-4.21716 -0.65377,-0.83479 -1.39813,-1.32745 -2.18206,-1.50406 -0.78169,-0.17622 -1.60907,-0.0392 -2.43044,0.38422 -1.47698,0.7613 -2.46452,2.11505 -3.3428,3.47358 l -0.0315,-2.68201 c -0.13914,0.0194 -0.40722,0.0128 -0.74711,-0.0586 l 0.0406,2.84375 c -0.86319,-1.43874 -1.84686,-2.86474 -3.40075,-3.63257 -1.68119,-0.83082 -3.3529,-0.36231 -4.5062,1.08203 -0.82188,1.02925 -1.48259,2.60068 -1.86236,4.77708 0.65061,-1.12514 1.57867,-2.31429 2.49481,-3.14001 0.49606,-0.4471 0.99233,-0.79056 1.44464,-0.96473 0.62469,-0.24052 1.27734,-0.17326 1.67191,0.57725 0.64142,-0.19374 1.3211,-0.11853 1.93285,0.14227 -0.41426,-0.6118 -0.91818,-1.22818 -1.56226,-1.61291 -0.93235,-0.55707 -1.62896,-0.25826 -2.13329,0.008 0.50841,-0.56104 1.30886,-0.745 2.24112,-0.18803 0.76832,0.45902 1.35711,1.2184 1.8187,1.97216 0.80994,0.45342 1.62998,1.27965 2.37199,2.55318 l -0.0747,0.29311 c -0.79597,-1.42926 -2.23867,-3.24926 -4.09491,-3.05532 -0.77098,0.0803 -1.50951,0.55157 -1.93968,1.20454 -0.59593,0.88147 -0.9043,2.26497 -0.65856,3.80929 0.37753,-1.62219 1.09454,-2.6926 1.87715,-3.15 0.86625,-0.50642 1.85889,-0.34335 2.61864,0.27497 0.9347,0.7608 1.62683,2.24448 1.59633,4.22704 l 0.0248,2.8256 c 0.50269,0.51987 0.9452,1.15633 1.33477,1.87107 l -0.14352,0.2397 z m -0.64673,1.01498 c -0.54962,-1.44894 -1.4223,-2.47074 -2.37526,-3.11709 -1.6559,-1.1231 -3.83377,-1.13961 -5.52037,-0.045 -0.53238,0.34549 -0.88625,0.72625 -1.24256,1.10068 0.8075,-1.57479 2.86235,-2.29625 4.53569,-2.10557 0.80157,0.0914 1.60734,0.37638 2.34485,0.87658 0.91767,0.62229 1.81605,1.602 2.38046,2.93241 l -0.12281,0.35803 z m 1.24449,-1.91316 c 0.56819,-1.15113 1.32152,-1.9583 2.14064,-2.4743 1.77545,-1.11883 4.29321,-0.94476 5.70052,0.92488 -1.56889,-1.5218 -3.71075,-1.93058 -5.58872,-0.74745 -0.78801,0.49654 -1.60968,1.314 -2.15951,2.59956 l -0.0929,-0.30269 z"
   inkscape:connector-curvature="0"
   style="fill:url(#radialGradient4277);fill-opacity:1;fill-rule:nonzero" /><path
   style="fill:#000000"
   inkscape:connector-curvature="0"
   id="path106"
   d="m 0.46321761,85.212558 c 0.460158,-0.82949 0.93796399,-1.69292 1.42137999,-2.56674 1.891229,-3.41845 3.872734,-7.00006 5.281465,-9.41505 2.8762194,-4.93046 5.3143134,-7.96193 7.8122854,-8.39313 2.519191,-0.43477 5.044399,1.75284 8.061491,7.26952 l 6.12e-4,0.001 c 1.558785,2.85037 3.111959,5.77697 4.634429,8.64588 l 0.200344,0.3774 c 0.907361,-5.07213 1.798095,-10.07352 2.581823,-14.58807 1.03987,-5.99038 3.291901,-10.15301 6.032959,-12.43235 1.548176,-1.28729 3.253236,-1.97613 4.986456,-2.05675 1.73291,-0.0805 3.49031,0.44721 5.14304,1.59243 2.89826,2.00824 5.47834,5.92179 7.03713,11.78885 l 0,7.2e-4 4.1e-4,0.002 2e-4,0 c 0.91736,3.45299 1.88205,7.10513 2.86469,10.82636 l 0.99019,3.74926 0.20045,-0.37983 c 1.60642,-3.04819 3.8861,-7.37378 6.40539,-10.65485 2.40351,-3.13002 4.57965,-4.55806 6.74987,-4.43077 2.1638,0.12699 4.29046,1.8038 6.6038,4.88368 l 2e-4,-2e-4 10e-4,0.002 7.2e-4,10e-4 c 2.15838,2.87442 4.84456,7.72559 6.72885,11.22496 l 0,8.16393 0,6.1e-4 0.002,0 c -1e-4,4.71572 -3.8915,8.6039 -8.61151,8.60441 l 0,-0.002 -0.001,0 0,0.002 -18.47672,-4.1e-4 0,-0.002 -10e-4,0 0,0.002 c -2.61304,2e-4 -5.08867,0.5853 -7.30245,1.63126 -3.10839,1.468392 -5.74081,3.881442 -7.47831,6.851052 -1.7374,-2.96961 -4.36982,-5.38266 -7.478207,-6.851052 -2.213778,-1.04596 -4.689411,-1.63106 -7.302449,-1.63126 l 0,-0.002 -0.0012,0 0,0.002 -18.4768164,4.1e-4 0,-0.002 -0.0012,0 0,0.002 c -4.720014,-5.1e-4 -8.61141599,-3.88869 -8.61151799,-8.60441 l 0.0017,0 0,-6.1e-4 0,-3.61117 z"
   class="fil0" /><path
   style="fill:#391d23"
   inkscape:connector-curvature="0"
   id="path108"
   d="m 0.46321761,85.954498 c 0.55665799,-1.00234 1.14187799,-2.06104 1.73637999,-3.13563 1.893371,-3.42242 3.877224,-7.00821 5.277182,-9.40811 2.8227664,-4.83894 5.1914954,-7.80988 7.5619574,-8.21907 2.349143,-0.40542 4.755206,1.72787 7.686101,7.08709 l 6.12e-4,10e-4 c 1.545932,2.82683 3.104309,5.76321 4.631777,8.64161 l 0.415479,0.78281 -0.520037,2.90428 c -0.790767,4.416 -1.578269,8.81425 -2.285592,12.82004 l -15.8928514,3e-4 0,-0.002 -0.0012,0 0,0.002 c -4.720014,-5.1e-4 -8.61141599,-3.88868 -8.61151799,-8.6044 l 0.0017,0 0,-6.2e-4 0,-2.86942 z M 25.332061,97.428538 c 0.721809,-4.08997 1.49605,-8.41485 2.273555,-12.75675 1.129535,-6.30835 2.265905,-12.65422 3.205603,-18.06776 1.024262,-5.90059 3.228962,-9.98964 5.907893,-12.2173 1.48636,-1.23593 3.11829,-1.89695 4.77286,-1.974 1.65487,-0.077 3.33719,0.42988 4.92372,1.52924 2.83195,1.96228 5.35838,5.80662 6.8937,11.58523 l 2.1e-4,0 4.1e-4,0.002 0,7.2e-4 c 0.91735,3.45299 1.88204,7.10513 2.86469,10.82636 1.86929,7.07894 3.80469,14.4089 5.60248,21.07274 l -4.66227,-1e-4 0,-0.002 -10e-4,0 0,0.002 c -2.61304,2e-4 -5.08868,0.5853 -7.30245,1.63125 -3.10839,1.468402 -5.74081,3.881452 -7.47831,6.851062 -1.73741,-2.96961 -4.36982,-5.38266 -7.478213,-6.851062 -2.213778,-1.04595 -4.689411,-1.63105 -7.302449,-1.63125 l 0,-0.002 -0.0012,0 0,0.002 -2.218981,0 z m 36.817451,1e-4 c -1.45361,-5.38612 -2.987,-11.16972 -4.50212,-16.90246 l 0.38283,-0.72502 c 1.60041,-3.03678 3.87162,-7.34627 6.37316,-10.6043 2.32466,-3.02739 4.40205,-4.40998 6.44344,-4.29033 2.0475,0.12016 4.09093,1.74836 6.33888,4.74161 l 7.1e-4,10e-4 10e-4,0.002 2.1e-4,-2e-4 c 2.26713,3.01965 5.12978,8.25188 7.01478,11.76653 l 0,7.40629 0,6.2e-4 0.002,0 c -1e-4,4.71572 -3.8915,8.60389 -8.61151,8.6044 l 0,-0.002 -0.001,0 0,0.002 -13.44211,-3e-4 z"
   class="fil6" />
</svg>