<?xml version="1.0" encoding="UTF-8" standalone="no"?>
<!-- Created with Inkscape (http://www.inkscape.org/) -->
<svg id="svg3099" xmlns:rdf="http://www.w3.org/1999/02/22-rdf-syntax-ns#" xmlns="http://www.w3.org/2000/svg" height="365" width="300" version="1.1" xmlns:cc="http://creativecommons.org/ns#" xmlns:dc="http://purl.org/dc/elements/1.1/">
 <metadata id="metadata3104">
  <rdf:RDF>
   <cc:Work rdf:about="">
    <dc:format>image/svg+xml</dc:format>
    <dc:type rdf:resource="http://purl.org/dc/dcmitype/StillImage"/>
    <dc:title/>
   </cc:Work>
  </rdf:RDF>
 </metadata>
 <path id="path3046" d="m221.75,174.53c2.9349,0,5.315,2.38,5.315,5.315v5.3142c0,2.9349-2.38,5.315-5.315,5.315h-5.315v-15.944h5.315zm0,21.259c5.8698,0,10.63-4.7601,10.63-10.63v-5.3142c0-5.8698-4.7601-10.63-10.63-10.63h-10.63v26.574h10.63zm-21.26-26.574,5.315,0,0,26.574-5.315,0,0-26.574zm-10.63,0,5.315,0,0,26.574-5.315,0-10.63-16.684,0,16.684-5.315,0,0-26.574,5.315,0,10.63,16.684,0-16.684zm-79.724,0.00035,15.945,0,0,5.315-10.63,0,0,5.3146,10.63,0,0,5.315-10.63,0,0,5.3146,10.63,0,0,5.315-15.945,0,0-26.574zm-21.26-0.0007,5.315,0,0,21.26,10.63,0,0,5.315-15.945,0,0-26.575zm55.809,21.26,5.3135,0c4.4022,0,7.9724-3.5702,7.9724-7.9724s-3.6365-7.9572-7.9724-7.9724h-5.3135v5.315h5.3135c1.4673,0,2.6575,1.1902,2.6575,2.6575s-1.1902,2.6575-2.6575,2.6575h-5.3135v5.315zm5.31-26.58c10.272,0,18.602,8.3303,18.602,18.602s-8.3303,18.602-18.602,18.602-18.602-8.3303-18.602-18.602,8.3303-18.602,18.602-18.602zm0,5.315c7.3371,0,13.287,5.9503,13.287,13.287,0,7.3371-5.9503,13.287-13.287,13.287-7.3371,0-13.287-5.9503-13.287-13.287,0-7.3371,5.9503-13.287,13.287-13.287z" fill-rule="evenodd" class="fil0" fill="#a90000"/>
 <g id="g3013" transform="matrix(2.2517789,0,0,2.2510022,-520.21497,-767.49946)">
  <g id="g3015">
   <path id="path3017" fill="#000" d="m364.25,340.96,0,137.54c0,7.693-6.295,13.989-13.989,13.989h-38.69c-6.512,0.024-12.009,4.557-13.52,10.624h-0.828c-1.512-6.067-7.011-10.6-13.523-10.624h-38.689c-7.694,0-13.989-6.295-13.989-13.989v-137.54h133.23z"/>
   <path id="path3019" fill="#f8e73b" d="m363.67,341.54v136.95c0,7.392-6.014,13.406-13.406,13.406h-38.69c-6.604,0.025-12.18,4.48-13.935,10.53-1.756-6.05-7.332-10.505-13.934-10.53h-38.692c-7.391,0-13.405-6.014-13.405-13.406v-136.95h132.06z"/>
   <path id="path3021" fill="#3a82c2" d="m297.64,499.63c2.531-5.154,7.768-8.538,13.45-8.734,0.147-0.004,0.31-0.008,0.485-0.008v-0.004h38.69,0.004v0.004c6.777-0.002,12.385-5.611,12.385-12.387h-0.004v-0.002h0.004v-135.93h-130.03v135.93h0.004v0.002h-0.004c0,6.776,5.608,12.385,12.385,12.387v-0.004h0.004,38.69v0.004c0.175,0,0.338,0.004,0.485,0.008,5.682,0.196,10.919,3.58,13.451,8.734z"/>
   <path id="path3023" d="m306.86,383.11c0,4.944-4.128,8.953-9.219,8.953s-9.22-4.009-9.22-8.953c0-8.896,9.642-6.844,3.571-18.332,1.459,0.657,2.769,2.291,3.684,4.37,0.739-4.868,0.702-9.628-0.03-14.602,0.951,1.634,1.639,3.659,1.995,5.862,0.356-2.203,0.932-4.228,1.883-5.862-0.732,4.868-0.769,9.841-0.03,14.708,0.915-2.078,2.337-3.819,3.796-4.476-5.972,11.299,3.57,9.589,3.57,18.332z" stroke="#000" stroke-width="0.70866102" fill="#f8e73b"/>
   <path id="path3025" d="m294.86,471c0.091,2.17-0.141,4.894-1.287,6.651,1.132-0.584,2.368-2.269,2.934-3.609-0.011,2.492,0.354,4.984,1.132,7.475,0.778-2.491,1.142-4.983,1.132-7.475,0.566,1.34,1.801,3.025,2.934,3.609-1.146-1.757-1.378-4.481-1.287-6.651h-5.558z" stroke="#000" stroke-width="0.70866102" fill="#f8e73b"/>
   <path id="path3027" d="m302.32,415.88c6.762,7.208,10.645,17.705,10.852,28.012,0.219,10.954-3.195,21.911-12.54,28.096h-5.987c-9.345-6.185-12.76-17.142-12.541-28.096,0.207-10.307,4.09-20.804,10.851-28.012h9.365z" stroke="#000" stroke-width="0.70866102" fill="#f8e73b"/>
   <g id="g3029" stroke="#000" stroke-width="0.70866102" fill="#f8e73b">
    <path id="path3031" d="m291.09,414.82c-7.128,2.509-13.907,5.813-19.984,10.792-0.933,0.764-4.215-1.688-3.069-2.52,6.92-5.022,13.905-8.095,22.387-9.87l0.666,1.598z"/>
    <path id="path3033" d="m258.71,430.54c1.115,0.263,3.322-0.14,5.068-1.867,1.48-1.465,2.945-2.893,4.448-4.254,0.468,0.538,1.235,1.053,1.892,1.251-1.582,1.484-3.139,2.952-4.475,4.715-1.364,1.8-1.314,4.171-0.805,5.127-2.331-0.162-3.012-1.079-2.374-3.292-1.968,1.164-3.379,0.361-3.754-1.68z"/>
    <path id="path3035" d="m266.6,457.87c1-0.125,2-0.408,3.002-1.801,2.673-3.062,2.913-9.087,3.001-15.21,0.036-2.475,0.938-3.332,1.902-4.102,0.753-0.603,0.841-1.408,0.2-2.001-2.056-1.901-2.218-3.225-0.701-4.703,5.923-5.768,11.54-10.726,17.311-15.81,0.401,0.533,0.801,1.067,1.201,1.601-7.84,5.942-14.361,15.834-15.115,22.609-0.504,4.534-2.106,9.036-3.797,13.513-0.559,1.48-0.991,3.041-1.201,4.703-0.238,1.127,0.028,2.412,0.801,3.286-1.41,0.294-2.438-0.174-2.802-1.59-1.743,1.134-2.82,0.399-3.802-0.495z"/>
    <path id="path3037" d="m266.53,375.21c0.403-1.988,2.016-2.91,4.841-3.112-0.144-1.21,0.404-2.594,1.989-3.113-0.414,1.054-0.435,1.878-0.272,2.681,0.177,0.875,0.5,1.861,0.822,2.698,0.809,2.094,2.344,3.607,5.243,3.699,0.952,0.031,1.599,0.278,1.729,0.951,0.952,4.933,4.97,9.28,10.634,13.315-0.346,0.49-0.692,1.152-1.038,1.642-5.015-2.521-9.131-5.926-11.498-10.461-0.518-0.992-1.271-1.652-2.162-1.729-1.094-0.095-1.735-0.506-2.161-1.124-1.044-1.514-1.944-3.088-2.421-4.755-0.865-3.025-3.987-2.427-5.706-0.692z"/>
    <path id="path3039" d="m304.19,414.82c7.128,2.509,13.908,5.813,19.984,10.792,0.934,0.764,4.215-1.688,3.07-2.52-6.921-5.022-13.906-8.095-22.388-9.87l-0.666,1.598z"/>
    <path id="path3041" d="m336.56,430.54c-1.114,0.263-3.321-0.14-5.067-1.867-1.481-1.465-2.945-2.893-4.449-4.254-0.467,0.538-1.234,1.053-1.891,1.251,1.581,1.484,3.139,2.952,4.475,4.715,1.363,1.8,1.314,4.171,0.805,5.127,2.331-0.162,3.012-1.079,2.373-3.292,1.969,1.164,3.379,0.361,3.754-1.68z"/>
    <path id="path3043" d="m328.68,457.87c-1.001-0.125-2.001-0.408-3.002-1.801-2.673-3.062-2.914-9.087-3.002-15.21-0.036-2.475-0.938-3.332-1.901-4.102-0.754-0.603-0.842-1.408-0.2-2.001,2.055-1.901,2.218-3.225,0.7-4.703-5.922-5.768-11.54-10.726-17.311-15.81-0.4,0.533-0.8,1.067-1.2,1.601,7.839,5.942,14.361,15.834,15.114,22.609,0.505,4.534,2.106,9.036,3.797,13.513,0.559,1.48,0.991,3.041,1.201,4.703,0.239,1.127-0.028,2.412-0.8,3.286,1.409,0.294,2.437-0.174,2.801-1.59,1.744,1.134,2.821,0.399,3.803-0.495z"/>
    <path id="path3045" d="m328.75,375.21c-0.403-1.988-2.017-2.91-4.842-3.112,0.144-1.21-0.403-2.594-1.988-3.113,0.414,1.054,0.434,1.878,0.272,2.681-0.177,0.875-0.5,1.861-0.823,2.698-0.808,2.094-2.344,3.607-5.242,3.699-0.952,0.031-1.599,0.278-1.729,0.951-0.953,4.933-4.97,9.28-10.634,13.315,0.346,0.49,0.691,1.152,1.037,1.642,5.015-2.521,9.131-5.926,11.499-10.461,0.518-0.992,1.271-1.652,2.161-1.729,1.095-0.095,1.736-0.506,2.162-1.124,1.043-1.514,1.944-3.088,2.421-4.755,0.864-3.025,3.987-2.427,5.706-0.692z"/>
   </g>
   <g id="g3047" stroke="#000" stroke-width="0.70866102" fill="#f8e73b">
    <path id="path3049" d="m246.12,406.76c-5.534,7.465,0.536,15.332,7.686,15.527,11.804,0.321,23.828-1.701,36.381-8.622l-0.369-4.933-43.698-1.972z"/>
    <path id="path3051" d="m289.33,393.94c-11.444-0.011-21.48-2.842-30.336-8.032-10.947-6.417-19.121-0.726-19.419,10.051-0.506,18.295,27.778,19.918,48.969,14.011l0.786-16.03z"/>
    <path id="path3053" d="m349.15,406.76c5.533,7.465-0.536,15.332-7.687,15.527-11.803,0.321-23.827-1.701-36.381-8.622l0.37-4.933,43.698-1.972z"/>
    <path id="path3055" d="m305.95,393.94c11.445-0.011,21.481-2.842,30.337-8.032,10.947-6.417,19.12-0.726,19.418,10.051,0.506,18.295-27.778,19.918-48.968,14.011l-0.787-16.03z"/>
   </g>
   <path id="path3057" d="m285.16,428.24c8.264,1.685,16.528,1.685,24.793,0m-27.224,9.042c9.95,2.204,19.899,2.204,29.849,0m-30.432,6.32c10.37,3.241,20.741,3.241,31.113,0m-30.627,8.459c10.046,2.982,20.093,2.981,30.141,0m-28.488,6.223c8.977,3.111,17.954,3.111,26.932,0m-23.724,6.417c6.903,2.852,13.806,2.852,20.71,0" stroke="#000" stroke-width="0.70866102" fill="none"/>
   <path id="path3059" d="m252.36,383.34c-5.584,4.477-1.878,13.476,10.826,12.406,3.562-0.301,7.125,0.38,11.02,1.172,4.535,0.922,9.166,1.369,13.75,0.683m-34.133,13.969c0.829,4.46,0.146,8.009-2.145,10.648m16.774-9.182c0.488,3.082-0.456,6.542-2.243,8.791m-13.459-28.23c-3.795,5.73-3.648,11.753-0.682,17.485m3.511,0.879c8.011-4.195,19.182-4.507,31.11-1.661m-36.864-7.912c12.19-2.422,24.38-1.16,36.571,2.149m-20.382-8.889c-0.521,1.79-0.261,4.33,1.072,5.568m4.194,0.391c-2.098,1.416-1.74,5.258,0.293,6.935" stroke="#000" stroke-width="0.70866102" fill="none"/>
   <path id="path3061" d="m342.92,383.34c5.584,4.477,1.878,13.476-10.825,12.406-3.562-0.301-7.126,0.38-11.02,1.172-4.535,0.922-9.166,1.369-13.751,0.683m34.133,13.969c-0.829,4.46-0.146,8.009,2.146,10.648m-16.774-9.182c-0.488,3.082,0.456,6.542,2.243,8.791m13.458-28.23c3.795,5.73,3.648,11.753,0.683,17.485m-3.511,0.879c-8.012-4.195-19.182-4.507-31.11-1.661m36.864-7.912c-12.19-2.422-24.38-1.16-36.571,2.149m20.382-8.889c0.52,1.79,0.26,4.33-1.073,5.568m-4.193,0.391c2.097,1.416,1.74,5.258-0.293,6.935" stroke="#000" stroke-width="0.70866102" fill="none"/>
   <path id="path3063" d="m305.58,387.66c-1.687-1.212-2.817-3.417-2.817-5.938,0-1.916,0.654-3.651,1.709-4.906m-1.367-1.585c-1.523,1.632-2.473,3.937-2.473,6.491,0,2.197,0.736,4.402,2.121,6.088l-1.717,1.599m-8.859-14.178c1.523,1.632,2.473,3.937,2.473,6.491,0,2.197-0.736,4.402-2.121,6.088l1.717,1.599m-4.544-1.749c1.687-1.212,2.816-3.417,2.816-5.938,0-1.916-0.653-3.651-1.708-4.906" stroke="#000" stroke-width="0.70866102" fill="none"/>
   <path id="path3065" d="m308.98,403.16c0,9.958-5.672,14.937-11.344,14.937s-11.345-4.979-11.345-14.937c0-9.781,5.673-14.671,11.345-14.671s11.344,4.89,11.344,14.671z" stroke="#000" stroke-width="0.70866102" fill="#f8e73b"/>
  </g>
 </g>
</svg>
