<?xml version="1.0" encoding="UTF-8" standalone="no"?>
<!-- Created with Inkscape (http://www.inkscape.org/) -->
<svg id="svg4044" xmlns:rdf="http://www.w3.org/1999/02/22-rdf-syntax-ns#" xmlns="http://www.w3.org/2000/svg" height="360" width="300" version="1.1" xmlns:cc="http://creativecommons.org/ns#" xmlns:xlink="http://www.w3.org/1999/xlink" xmlns:dc="http://purl.org/dc/elements/1.1/">
 <defs id="defs4046">
  <linearGradient id="linearGradient4293" y2="88.271" gradientUnits="userSpaceOnUse" x2="-18.639" gradientTransform="matrix(3.543307,0,0,3.543307,28.828671,417.28239)" y1="94.431" x1="-18.679">
   <stop id="stop3818" stop-color="#e6e6e6" offset="0"/>
   <stop id="stop3820" stop-color="#FFF" offset="1"/>
  </linearGradient>
  <linearGradient id="linearGradient4295" y2="49.037" gradientUnits="userSpaceOnUse" x2="-92.956" gradientTransform="matrix(3.543307,0,0,3.543307,-366.3008,201.93911)" y1="53.847" x1="-92.924">
   <stop id="stop3810" stop-color="#e6e6e6" offset="0"/>
   <stop id="stop3812" stop-color="#FFF" offset="1"/>
  </linearGradient>
  <linearGradient id="linearGradient4297" y2="48.246" gradientUnits="userSpaceOnUse" x2="38.962" gradientTransform="matrix(3.543307,0,0,3.543307,225.00002,352.60555)" y1="34.07" x1="38.962">
   <stop id="stop3802" stop-color="#e6e6e6" offset="0"/>
   <stop id="stop3804" stop-color="#FFF" offset="1"/>
  </linearGradient>
  <linearGradient id="linearGradient4299" y2="158.18" gradientUnits="userSpaceOnUse" x2="105" gradientTransform="matrix(4.8873468,0,0,4.8873468,-138.17141,-193.4093)" y1="171.78" x1="105">
   <stop id="stop9" stop-color="#e6e6e6" offset="0"/>
   <stop id="stop11" stop-color="#FFF" offset="1"/>
  </linearGradient>
 </defs>
 <metadata id="metadata4049">
  <rdf:RDF>
   <cc:Work rdf:about="">
    <dc:format>image/svg+xml</dc:format>
    <dc:type rdf:resource="http://purl.org/dc/dcmitype/StillImage"/>
    <dc:title/>
   </cc:Work>
  </rdf:RDF>
 </metadata>
 <g id="layer1" transform="translate(-150,-520.26143)">
  <path id="path4029" d="m371.75,692.29c2.9349,0,5.315,2.38,5.315,5.315v5.3142c0,2.9349-2.38,5.315-5.315,5.315h-5.315v-15.944zm0,21.259c5.8698,0,10.63-4.7601,10.63-10.63v-5.3142c0-5.8698-4.7601-10.63-10.63-10.63h-10.63v26.574zm-21.26-26.574,5.315,0,0,26.574-5.315,0zm-10.63,0,5.315,0,0,26.574-5.315,0-10.63-16.684,0,16.684-5.315,0,0-26.574,5.315,0,10.63,16.684zm-79.724,0.00036,15.945,0,0,5.315-10.63,0,0,5.3146,10.63,0,0,5.315-10.63,0,0,5.3146,10.63,0,0,5.315-15.945,0zm-21.26-0.00071,5.315,0,0,21.26,10.63,0,0,5.315-15.945,0zm55.808,21.26,5.3135,0c4.4022,0,7.9724-3.5702,7.9724-7.9724s-3.6365-7.9572-7.9724-7.9724h-5.3135v5.315h5.3135c1.4673,0,2.6575,1.1902,2.6575,2.6575s-1.1902,2.6575-2.6575,2.6575h-5.3135zm5.31-26.58c10.272,0,18.602,8.3303,18.602,18.602s-8.3303,18.602-18.602,18.602-18.602-8.3303-18.602-18.602,8.3303-18.602,18.602-18.602zm-13.287,18.602c0,7.3371,5.9503,13.287,13.287,13.287,7.3371,0,13.287-5.9503,13.287-13.287,0-7.3371-5.9503-13.287-13.287-13.287-7.3371,0-13.287,5.9503-13.287,13.287z" class="fil0" fill="#a90000"/>
  <g id="g3984" transform="matrix(1,0,0,1.001354,-75,167.17843)">
   <path id="path18" d="m225,588.82c0.35237,3.0067,0.8025,5.987,1.3616,8.9331,12.34,64.96,74.2,114.37,148.64,114.37,74.436,0,136.3-49.404,148.64-114.36,0.5601-2.9476,1.0102-5.9293,1.3626-8.9375v-236.21h-300v236.21z" fill-rule="evenodd" class="fil0" fill="#000"/>
   <path id="path20" d="m514.17,623.21c4.6141-10.897,7.7396-22.472,9.1579-34.514v-234.44h-296.66v234.44c1.4183,12.044,4.5448,23.62,9.1594,34.518,21.609,51.036,75.777,87.235,139.17,87.235s117.56-36.201,139.17-87.24z" fill-rule="evenodd" class="fil1" fill="#FFF"/>
   <path id="path22" d="m382.63,365.93,12.418,0-7.3926,16.893,18.409,1.0586-7.0744,17.412,18.41,1.0596-7.0744,17.411,18.41,1.0601-7.0744,17.411,18.41,1.0601-7.0744,17.411,18.41,1.0601-7.0749,17.411,18.411,1.0601-7.0749,17.411,18.411,1.0606-7.0749,17.411,18.41,1.0596-7.0744,17.411,18.411,1.0601-7.0749,17.411,18.41,1.0596-7.0744,17.412,18.411,1.0606-7.3926,16.893,11.302,0.6505,0,2.5556c-1.4183,12.043-4.5438,23.617-9.1579,34.514-21.608,51.039-75.777,87.24-139.17,87.24-63.391,0-117.56-36.199-139.17-87.235-4.6146-10.899-7.7411-22.474-9.1594-34.518v-2.5556l11.3-0.65002-7.3902-16.891,18.414-1.062-7.0744-17.414,18.407-1.0586-7.074-17.409,18.408-1.063-7.074-17.412,18.41-1.0591-7.0759-17.412,18.413-1.0566-7.0744-17.414,18.41-1.0581-7.0754-17.41,18.413-1.0591-7.0783-17.415,18.414-1.0581-7.0725-17.41,18.408-1.0615-7.0764-17.411,18.412-1.0586-7.0725-17.412,18.409-1.0606-7.3916-16.891h12.413l7.6277-11.677,7.6282,11.677z" fill-rule="evenodd" class="fil2" fill="#41a147"/>
   <polygon id="polygon24" fill-rule="evenodd" transform="matrix(4.8873467,0,0,4.8873467,-138.1714,-193.40929)" class="fil3 str0" stroke="#000" points="113.42,163.48,113.42,155.52,107.22,157.28,108.98,151.07,101.02,151.07,102.78,157.28,96.576,155.52,96.576,163.48,102.78,161.72,101.02,167.92,108.98,167.92,107.22,161.72" stroke-width="0.25" fill="#ffe600"/>
   <polygon id="polygon26" fill-rule="evenodd" transform="matrix(4.8873467,0,0,4.8873467,-138.1714,-193.40929)" class="fil3 str0" stroke="#000" points="111.61,133.11,111.61,126.87,106.74,128.24,108.12,123.38,101.88,123.38,103.26,128.24,98.39,126.87,98.39,133.11,103.26,131.73,101.88,136.6,108.12,136.6,106.74,131.73" stroke-width="0.25" fill="#ffe600"/>
   <rect id="rect28" fill-rule="evenodd" class="fil4 str0" transform="matrix(0.87806544,-0.47854058,0.47854058,0.87806544,0,0)" height="21.736" width="21.736" stroke="#000" y="730.07" x="-37.219" stroke-width="1.1811" fill="url(#linearGradient4293)"/>
   <rect id="rect30" fill-rule="evenodd" class="fil5 str0" transform="matrix(-0.87806544,-0.47854058,-0.47854058,0.87806544,0,0)" height="21.736" width="21.736" stroke="#000" y="371.16" x="-695.77" stroke-width="1.1811" fill="url(#linearGradient4295)"/>
   <path id="path32" d="m430.13,657.12,3.188,1.7374c18.787-31.313,31.214-65.946,30.808-96.618-0.6031-45.631-39.092-88.928-89.124-88.928s-88.519,43.297-89.122,88.928c-0.40516,30.672,12.021,65.305,30.808,96.618l3.188-1.7374c-39.102-74.242-39.125-131.73,13.638-165.53,6.4669-4.1435,14.524-3.6948,23.37,0,5.7871,3.6122,11.843,5.5379,18.118,5.5384,6.2754,0.00048,12.333-1.9251,18.12-5.5379,8.8461-3.6948,16.903-4.1435,23.37,0,52.762,33.803,52.74,91.289,13.638,165.53z" fill-rule="evenodd" class="fil6" fill="url(#linearGradient4297)"/>
   <path id="path34" d="m375,520.13c49.499-0.00048,68.854,49.487,39.231,128.32l15.897,8.6638c39.102-74.242,39.125-131.73-13.638-165.53-6.4669-4.1435-14.524-3.6948-23.37,0-5.7876,3.6127-11.845,5.5383-18.12,5.5378-6.2754-0.00049-12.331-1.9261-18.118-5.5383-8.8461-3.6948-16.903-4.1435-23.37,0-52.762,33.803-52.74,91.289-13.638,165.53l15.897-8.6638c-29.62-78.83-10.27-128.32,39.23-128.32zm78.879,44.945c-0.86457-0.0758-1.6118,0.38316-1.6646,1.018l-1.4579,17.061c-0.0542,0.63487,0.60652,1.213,1.4667,1.2873l4.1396,0.35482c1.0522-6.6874,1.5835-13.147,1.5786-19.372l-4.0624-0.34894zm-22.292-56.609c-0.69791,0.51562-0.9545,1.3538-0.57426,1.865l10.196,13.756c0.37975,0.51171,1.2575,0.5078,1.9515-0.005l3.3913-2.5121c-3.2457-5.4445-7.2113-10.569-11.905-15.368l-3.0595,2.2648zm11.662,109.58c-0.80495-0.32453-1.6529-0.1036-1.889,0.48825l-6.3726,15.893c-0.23705,0.59137,0.22627,1.3372,1.0273,1.6588l3.6738,1.4745c2.7535-6.1282,5.2055-12.126,7.353-17.992l-3.7926-1.5229zm-147.13-52.98c0.86653-0.0763,1.6123,0.38317,1.6636,1.0171l1.4618,17.062c0.0508,0.63291-0.60847,1.2111-1.4682,1.2859l-4.1406,0.3558c-1.0522-6.6874-1.583-13.147-1.5786-19.371l4.0619-0.34944zm22.295-56.608c0.69498,0.51366,0.95206,1.3518,0.57328,1.8626l-10.197,13.758c-0.38171,0.51073-1.257,0.50584-1.951-0.005l-3.3923-2.5135c3.2457-5.4445,7.2103-10.569,11.904-15.368l3.0629,2.2677zm-11.67,109.58c0.80397-0.32453,1.6539-0.10264,1.8904,0.48874l6.3721,15.896c0.2346,0.5904-0.22678,1.3303-1.0278,1.6544l-3.6748,1.4774c-2.7535-6.1278-5.2045-12.125-7.3515-17.991l3.7916-1.5258z" fill-rule="evenodd" class="fil7" fill="url(#linearGradient4299)"/>
   <path id="path36" d="m375,520.13c49.499-0.00048,68.854,49.487,39.231,128.32l19.085,10.401c18.787-31.313,31.214-65.946,30.808-96.618-0.6031-45.631-39.092-88.928-89.124-88.928s-88.519,43.298-89.122,88.928c-0.40516,30.672,12.021,65.305,30.808,96.618l19.07-10.4c-29.62-78.83-10.27-128.32,39.23-128.32zm78.879,44.945c-0.86457-0.0758-1.6118,0.38316-1.6646,1.018l-1.4579,17.061c-0.0542,0.63487,0.60652,1.213,1.4667,1.2873l4.1396,0.35482c1.0522-6.6874,1.5835-13.147,1.5786-19.372l-4.0624-0.34894zm-22.292-56.609c-0.69791,0.51562-0.9545,1.3538-0.57426,1.865l10.196,13.756c0.37975,0.51171,1.2575,0.5078,1.9515-0.005l3.3913-2.5121c-3.2457-5.4445-7.2113-10.569-11.905-15.368l-3.0595,2.2648zm11.662,109.58c-0.80495-0.32453-1.6529-0.1036-1.889,0.48825l-6.3726,15.893c-0.23705,0.59137,0.22627,1.3372,1.0273,1.6588l3.6738,1.4745c2.7535-6.1282,5.2055-12.126,7.353-17.992l-3.7926-1.5229zm-147.13-52.98c0.86653-0.0763,1.6123,0.38317,1.6636,1.0171l1.4618,17.062c0.0508,0.63291-0.60847,1.2111-1.4682,1.2859l-4.1406,0.3558c-1.0522-6.6874-1.583-13.147-1.5786-19.371l4.0619-0.34944zm22.295-56.608c0.69498,0.51366,0.95206,1.3518,0.57328,1.8626l-10.197,13.758c-0.38171,0.51073-1.257,0.50584-1.951-0.005l-3.3923-2.5135c3.2457-5.4445,7.2103-10.569,11.904-15.368l3.0629,2.2677zm-11.67,109.58c0.80397-0.32453,1.6539-0.10264,1.8904,0.48874l6.3721,15.896c0.2346,0.5904-0.22678,1.3303-1.0278,1.6544l-3.6748,1.4774c-2.7535-6.1278-5.2045-12.125-7.3515-17.991l3.7916-1.5258z" class="fil8 str0" stroke="#000" stroke-width="1.22183669" fill="none"/>
   <path id="path38" d="m429.95,657.46c39.283-74.407,39.384-132.02-13.46-165.87-6.467-4.1435-14.524-3.6948-23.37,0-5.7876,3.6127-11.845,5.5383-18.12,5.5378-6.2754-0.00049-12.331-1.9261-18.118-5.5383-8.8461-3.6948-16.903-4.1435-23.37,0-52.843,33.855-52.742,91.464-13.46,165.87" class="fil8 str0" stroke="#000" stroke-width="1.22183669" fill="none"/>
  </g>
 </g>
</svg>
