<?xml version="1.0" encoding="UTF-8" standalone="no"?>
<!-- Creator: CorelDRAW -->

<svg
   xmlns:dc="http://purl.org/dc/elements/1.1/"
   xmlns:cc="http://creativecommons.org/ns#"
   xmlns:rdf="http://www.w3.org/1999/02/22-rdf-syntax-ns#"
   xmlns:svg="http://www.w3.org/2000/svg"
   xmlns="http://www.w3.org/2000/svg"
   xmlns:sodipodi="http://sodipodi.sourceforge.net/DTD/sodipodi-0.dtd"
   xmlns:inkscape="http://www.inkscape.org/namespaces/inkscape"
   xml:space="preserve"
   width="339.99973"
   height="416.54395"
   style="fill-rule:evenodd"
   viewBox="0 0 95.955479 117.55796"
   id="svg2"
   version="1.1"
   inkscape:version="0.48.1 "
   sodipodi:docname="Coat_of_Arms_of_Pružany,_Belarus.svg"><metadata
   id="metadata29"><rdf:RDF><cc:Work
       rdf:about=""><dc:format>image/svg+xml</dc:format><dc:type
         rdf:resource="http://purl.org/dc/dcmitype/StillImage" /></cc:Work></rdf:RDF></metadata><sodipodi:namedview
   pagecolor="#ffffff"
   bordercolor="#666666"
   borderopacity="1"
   objecttolerance="10"
   gridtolerance="10"
   guidetolerance="10"
   inkscape:pageopacity="0"
   inkscape:pageshadow="2"
   inkscape:window-width="640"
   inkscape:window-height="480"
   id="namedview27"
   showgrid="false"
   fit-margin-top="0"
   fit-margin-left="0"
   fit-margin-right="0"
   fit-margin-bottom="0"
   inkscape:zoom="0.62658452"
   inkscape:cx="169.99986"
   inkscape:cy="208.27196"
   inkscape:window-x="0"
   inkscape:window-y="0"
   inkscape:window-maximized="0"
   inkscape:current-layer="svg2" />
 <defs
   id="defs4"><style
     type="text/css"
     id="style6">
   
    .fil5 {fill:#0093DD}
    .fil3 {fill:#0A0B0C}
    .fil6 {fill:#EE9BA0}
    .fil4 {fill:#F8C300}
    .fil0 {fill:black;fill-rule:nonzero}
    .fil1 {fill:#0093DD;fill-rule:nonzero}
    .fil2 {fill:#DFDFDF;fill-rule:nonzero}
   
  </style></defs>
 <g
   id="Слой_x0020_1"
   transform="matrix(0.80116923,0,0,0.80116923,-36.144511,-60.143213)">
  <metadata
   id="CorelCorpID_0Corel-Layer" />
  <path
   class="fil0"
   d="m 164.781,88.4964 0.002,0.0011 0.0998,0.0478 1e-4,0.1107 2e-4,32.9821 c -1.7483,1.2719 -3.2359,2.8485 -4.3777,4.6866 -0.2175,0.35 -0.423,0.7107 -0.6158,1.0809 -1.1795,2.2656 -1.8466,4.8401 -1.8467,7.5692 l 7e-4,0 0,0.001 c 0,3.9316 1.382,7.5401 3.6861,10.3668 0.4473,0.5488 0.9307,1.0693 1.446,1.5574 0.5418,0.5131 1.1208,0.9737 1.7074,1.4159 l 2e-4,14.8196 7e-4,0 c 0,11.3549 -4.6351,21.6056 -12.0957,29.0354 -1.4504,1.4444 -3.0078,2.7824 -4.6585,4.0008 -1.6514,1.2189 -3.3962,2.3186 -5.2207,3.2859 l 0,-1e-4 -0.001,7e-4 c -5.7353,3.0401 -11.5954,5.8596 -17.4543,8.6784 -2.821,1.3571 -5.6423,2.7146 -8.4917,4.1177 l 10e-5,2e-4 c -3.2661,1.6615 -6.2574,3.7843 -8.8951,6.29 -0.5128,0.4872 -1.0128,0.9893 -1.4986,1.5052 -0.5332,0.566 -1.0608,1.1454 -1.5471,1.7526 -2.414,-2.858 -5.1743,-5.3446 -8.2894,-7.3963 -0.5942,-0.3913 -1.1986,-0.7679 -1.8135,-1.126 -0.6134,-0.3573 -1.2407,-0.6993 -1.8807,-1.0249 l 10e-5,-2e-4 c -2.8499,-1.4034 -5.6714,-2.761 -8.4929,-4.1184 -5.8589,-2.8187 -11.7189,-5.6381 -17.4543,-8.6783 -6.5476,-3.4713 -12.0623,-8.6405 -15.9292,-14.9244 -0.7499,-1.2187 -1.4396,-2.4831 -2.0641,-3.7886 -2.551,-5.3323 -3.9818,-11.2999 -3.982,-17.6083 l -7e-4,0 0,-0.001 7e-4,0 2e-4,-14.8219 c 1.7488,-1.2555 3.2335,-2.8366 4.3777,-4.6865 0.2168,-0.3505 0.4232,-0.7108 0.6158,-1.0809 1.1795,-2.2656 1.8466,-4.8401 1.8467,-7.5692 l -7e-4,0 0,-10e-4 c 0,-3.9317 -1.382,-7.5405 -3.6861,-10.3674 -0.4474,-0.5489 -0.9307,-1.0694 -1.446,-1.5575 -0.5414,-0.513 -1.1203,-0.9847 -1.7074,-1.4159 l 2e-4,-32.9793 1e-4,-0.1114 0.1005,-0.0478 c 7.5857,-3.6019 15.5477,-6.5413 23.8107,-8.7415 1.6044,-0.4271 3.2226,-0.8271 4.8538,-1.1989 10.0048,-2.2809 20.4193,-3.4865 31.1157,-3.4867 l 0,-7e-4 0.003,0 c 15.4006,0 30.2191,2.4998 44.0752,7.1115 2.6973,0.8977 5.3553,1.8744 7.9707,2.9266 2.6194,1.0539 5.1987,2.1845 7.7349,3.3887 l 7e-4,7e-4 z"
   id="path10"
   inkscape:connector-curvature="0"
   style="fill:#000000;fill-rule:nonzero" />
  <path
   class="fil1"
   d="m 164.532,88.7677 c -2.5001,-1.1847 -5.0404,-2.2972 -7.6174,-3.3341 -2.6147,-1.052 -5.2658,-2.0262 -7.9499,-2.9196 -13.8188,-4.5992 -28.6,-7.0923 -43.965,-7.0923 l -0.003,0 0,-7e-4 c -10.6685,10e-5 -21.0572,1.2029 -31.0385,3.4785 -1.6224,0.3698 -3.2365,0.7689 -4.8414,1.1961 -8.2047,2.1847 -16.1125,5.1006 -23.6495,8.672 l -2e-4,32.6921 c 0.5619,0.4137 1.0958,0.8602 1.5986,1.3364 0.5245,0.4969 1.0179,1.0284 1.4762,1.5907 2.3541,2.8883 3.7661,6.5744 3.7661,10.5892 l 0,0.001 -7e-4,0 c -2e-4,2.789 -0.6812,5.4188 -1.8853,7.7318 -0.1952,0.375 -0.4054,0.7435 -0.6296,1.1043 -1.1312,1.8211 -2.6027,3.4103 -4.3254,4.6788 l -10e-5,14.6436 7e-4,0 0,0.001 -7e-4,0 c 10e-5,6.2542 1.4187,12.1705 3.9476,17.4567 0.6158,1.2873 1.3,2.5408 2.0475,3.7556 3.8344,6.2312 9.3019,11.3564 15.7928,14.7976 5.7429,3.0441 11.593,5.8588 17.4419,8.6727 2.8511,1.3717 5.7024,2.7436 8.4978,4.1201 l 7e-4,7e-4 0.0012,6e-4 0.0013,0 c 0.6406,0.3259 1.2735,0.6711 1.8973,1.0345 0.6226,0.3626 1.2334,0.7419 1.8315,1.137 3.0207,1.9949 5.7429,4.4059 8.0909,7.142 0.4224,-0.4963 0.8545,-0.9785 1.2948,-1.4459 0.49,-0.5203 0.9945,-1.027 1.5124,-1.519 2.6632,-2.5299 5.6824,-4.6728 8.9779,-6.3492 l 0.006,-0.003 0.001,-6e-4 c 2.7938,-1.3758 5.6429,-2.7466 8.4923,-4.1173 5.849,-2.8141 11.6991,-5.6287 17.4419,-8.6728 l 0,1e-4 0.001,-7e-4 c 1.8093,-0.9593 3.539,-2.0493 5.1753,-3.2571 1.6371,-1.2084 3.1817,-2.5352 4.6199,-3.9676 7.396,-7.3654 11.9909,-17.528 11.9909,-28.786 l 7e-4,0 -1e-4,-14.6437 c -0.5619,-0.4137 -1.0958,-0.8606 -1.5987,-1.3368 -0.5245,-0.4968 -1.0179,-1.0284 -1.4762,-1.5906 -2.3542,-2.8881 -3.7661,-6.5739 -3.7661,-10.5886 l 0,-0.001 7e-4,0 c 2e-4,-2.789 0.6812,-5.4188 1.8853,-7.7318 0.1953,-0.375 0.4055,-0.7436 0.6296,-1.1043 1.1313,-1.8211 2.6027,-3.4103 4.3253,-4.6788 l -2e-4,-32.6922 z"
   id="path12"
   inkscape:connector-curvature="0"
   style="fill:#0093dd;fill-rule:nonzero" />
  <path
   class="fil0"
   d="m 105.003,215.924 c -2.6102,-2.4907 -5.5117,-4.6698 -8.6584,-6.4356 -3.2468,-1.8216 -6.6979,-3.334 -10.053,-4.9445 -5.8515,-2.8088 -11.7043,-5.6183 -17.4308,-8.675 -5.8837,-3.1406 -10.8386,-7.8031 -14.313,-13.4651 -0.6768,-1.1028 -1.2966,-2.2417 -1.8552,-3.4123 -2.2914,-4.8021 -3.5765,-10.175 -3.5767,-15.8543 l -7e-4,0 0,-0.001 7e-4,0 10e-5,-12.8312 1e-4,-0.0789 0.0578,-0.052 c 1.7426,-1.5653 3.2147,-3.4257 4.3371,-5.5019 0.2194,-0.4059 0.4248,-0.8183 0.6151,-1.2357 1.1751,-2.5772 1.8301,-5.4417 1.8302,-8.4586 l -7e-4,0 0,-0.001 7e-4,0 c 0,-4.3444 -1.3575,-8.3721 -3.671,-11.6825 -0.4495,-0.6432 -0.9359,-1.2601 -1.4554,-1.847 -0.5178,-0.5851 -1.0707,-1.1418 -1.6549,-1.6666 l -10e-4,-9e-4 -0.0579,-0.0521 3e-4,-28.6286 c 7.2113,-3.2702 14.7132,-5.9019 22.3869,-7.8542 1.4987,-0.3813 3.0087,-0.738 4.5292,-1.0693 9.3304,-2.0333 19.0216,-3.105 28.9647,-3.1052 l 0,-7e-4 0.003,0 c 14.314,0 28.1105,2.2226 41.0657,6.3394 2.5255,0.8025 5.0126,1.6745 7.4586,2.6131 2.4803,0.9517 4.9445,1.9696 7.3591,3.078 l 3e-4,28.6276 c -1.7715,1.591 -3.2618,3.4578 -4.395,5.5537 -0.2195,0.406 -0.4248,0.8182 -0.6151,1.2356 -1.175,2.5772 -1.83,5.4415 -1.8301,8.4583 l 7e-4,0 0,10e-4 c 0,4.3452 1.3573,8.3732 3.6704,11.683 0.4495,0.6433 0.9358,1.2601 1.4554,1.8471 0.5178,0.5851 1.0707,1.1418 1.6549,1.6666 l 0.001,9e-4 0.0578,0.0521 2e-4,12.91 7e-4,0 c 0,10.2218 -4.1637,19.4515 -10.8675,26.153 -1.3031,1.3026 -2.7025,2.51 -4.186,3.6104 -1.4823,1.0995 -3.0498,2.0929 -4.6897,2.9684 l 10e-5,1e-4 -10e-4,6e-4 -0.001,6e-4 c -5.7265,3.0567 -11.5793,5.8663 -17.4308,8.6751 -2.8298,1.3583 -5.6598,2.7168 -8.5123,4.1217 l -0.004,0.002 -0.001,6e-4 c -3.6761,1.8651 -7.2519,4.3226 -10.1874,7.2556 z"
   id="path14"
   inkscape:connector-curvature="0"
   style="fill:#000000;fill-rule:nonzero" />
  <path
   class="fil2"
   d="m 105,215.435 c 0.3835,-0.3632 0.771,-0.7167 1.162,-1.0607 0.4295,-0.3779 0.8736,-0.7529 1.3311,-1.1239 2.3223,-1.8829 4.85,-3.5322 7.5446,-4.8988 l 0.005,-0.003 0.001,-6e-4 c 2.8021,-1.3801 5.6572,-2.7506 8.5123,-4.121 5.8476,-2.807 11.6965,-5.6146 17.4157,-8.6674 l -1e-4,-10e-5 0.001,-6e-4 0.001,-6e-4 c 1.6236,-0.8667 3.1767,-1.8511 4.647,-2.9417 1.4696,-1.0901 2.8561,-2.2864 4.1474,-3.5772 6.6391,-6.6368 10.7627,-15.7785 10.7627,-25.9036 l 7e-4,0 -1e-4,-12.7525 c -0.5704,-0.5162 -1.1132,-1.0652 -1.6256,-1.6441 -0.5276,-0.5962 -1.0223,-1.2236 -1.4802,-1.8789 -2.3539,-3.3682 -3.7352,-7.4657 -3.7352,-11.8842 l 0,-0.001 7e-4,0 c 2e-4,-3.0688 0.6664,-5.9826 1.8617,-8.6043 0.1955,-0.4288 0.4041,-0.8479 0.6249,-1.2564 1.1298,-2.0895 2.6068,-3.9636 4.3536,-5.5444 l -2e-4,-28.2431 c -2.3426,-1.0572 -4.7211,-2.05 -7.1332,-2.9756 -2.453,-0.9413 -4.9338,-1.8115 -7.4394,-2.6077 -12.9184,-4.1051 -26.6792,-6.3214 -40.9595,-6.3214 l -0.003,0 0,-7e-4 c -9.914,1e-4 -19.5805,1.0696 -28.8903,3.0984 -1.5139,0.3299 -3.0198,0.6857 -4.5168,1.0665 -7.656,1.9478 -15.051,4.5493 -22.1224,7.7403 l -2e-4,28.2432 c 0.5704,0.5162 1.1132,1.0652 1.6256,1.6441 0.5277,0.5961 1.0223,1.2236 1.4802,1.8788 2.3534,3.3675 3.7344,7.4647 3.7344,11.8837 l 7e-4,0 0,0.001 -7e-4,0 c -2e-4,3.0689 -0.6665,5.9829 -1.8618,8.6046 -0.1956,0.4289 -0.4041,0.8481 -0.6249,1.2565 -1.1297,2.0896 -2.6067,3.9637 -4.3536,5.5446 l -10e-5,12.7526 7e-4,0 0,0.001 -7e-4,0 c 10e-5,5.6234 1.2734,10.945 3.5437,15.7027 0.5553,1.1638 1.1691,2.2921 1.8372,3.3807 3.4417,5.6088 8.3499,10.2274 14.178,13.3383 5.7195,3.053 11.5689,5.8608 17.417,8.668 2.857,1.3714 5.714,2.7429 8.5178,4.1238 l 7e-4,7e-4 0.0012,6e-4 6e-4,0 c 0.5277,0.2676 1.0456,0.5442 1.5533,0.829 0.5045,0.283 1.0091,0.5805 1.5131,0.8915 2.5112,1.5498 4.8467,3.3525 6.9699,5.3623 z"
   id="path16"
   inkscape:connector-curvature="0"
   style="fill:#dfdfdf;fill-rule:nonzero" />
  <g
   id="_158915744">
   <path
   id="path19"
   class="fil3"
   d="m 97.2296,186.618 c -1.4651,-1.4923 -1.9941,-3.6061 -1.7531,-6.2808 0.4112,-4.5658 4.1829,-5.9446 8.2424,-6.1597 3.5687,-0.1889 14.2692,1.9475 15.2437,-1.6504 0.6891,-2.5428 -0.8244,-3.7958 -4.5405,-3.7447 -2.3417,0.0364 -5.8336,0.6552 -10.1893,1.8564 -3.9008,0.9751 -9.4869,0.8918 -13.1789,-0.91 -2.7869,-1.3562 -4.4782,-3.6265 -5.0052,-6.8212 -0.598,-3.6251 0.826,-6.925 3.3603,-8.8852 4.0621,-3.1419 12.5925,-1.6509 17.2115,-0.7582 3.5353,0.7069 7.5106,1.4978 11.1018,0.7159 1.8984,-0.3913 5.8714,-1.6716 5.2415,-4.3315 -0.503,-4.6736 -6.2538,-3.7579 -10.0219,-2.5722 -4.0039,1.2982 -7.1828,2.1354 -9.5245,2.5237 -4.0646,0.6915 -7.7651,0.643 -11.1017,-0.1699 -9.4131,-2.4699 -12.3696,-7.8092 -9.3665,-16.4925 1.6664,-4.8184 6.1523,-7.079 10.9923,-7.6644 5.9861,-0.6882 11.9476,0.2039 18.513,1.3852 3.3366,0.728 5.7895,0.9079 7.2091,0.7017 3.2933,-0.4097 4.7021,-3.2209 3.1659,-5.9379 -1.3275,-2.3481 -3.8435,-3.2883 -6.8879,-3.3731 -2.1719,0 -5.5113,0.563 -10.7164,2.2253 -7.1949,2.3416 -11.8418,2.8148 -13.9529,1.3952 -2.6451,0.8736 -5.2901,3.1425 -7.9351,6.8188 -2.5358,3.458 -4.9746,5.6297 -7.3162,6.5398 l -1.1769,-0.1335 c -0.1214,-0.3276 -0.3155,-0.6309 -0.5825,-0.91 -0.279,-0.2669 -0.279,-0.5945 0,-0.9827 l 0.085,-0.0486 0.364,0 0,-0.6309 c -0.7887,-0.1577 -1.1284,-0.4853 -1.0313,-0.9949 2.1354,-0.7887 3.8583,-1.82 5.1808,-3.1182 1.7472,-1.6501 2.4873,-3.4701 2.2204,-5.4599 -3.1668,2.1718 -5.7633,2.1475 -7.8137,-0.0485 -2.0141,-2.1597 -2.0263,-4.283 -0.0486,-6.3578 1.0313,-1.0556 2.6208,-1.3953 4.7926,-1.0434 1.9534,0.3033 2.9969,0.728 3.1546,1.274 -0.364,-1.8079 -2.1233,-3.8462 -5.2779,-6.103 -2.1111,-1.5045 -3.2274,-2.645 -3.3366,-3.4215 l 0.1699,-0.182 0.364,-0.364 c -0.2512,-0.4763 0.2296,-1.5722 0.7519,-1.8467 1.1841,-0.6221 2.7344,0.1929 4.6494,2.5407 0.5703,0.6993 1.4392,1.2787 2.2789,2.0602 2.099,2.3175 3.5307,3.5671 4.283,3.7491 l 0.0849,0.4004 0.0485,0.449 0.9464,-0.0364 0.4489,-0.0486 0.4975,0 c 0.8921,-3.8394 6.4156,-3.7649 9.6579,-5.1443 -0.1213,-1.2012 -0.8736,-2.5723 -2.2567,-4.1132 -0.9586,-1.0555 -1.3104,-1.8199 -1.0314,-2.2931 0.505,-0.0934 4.4756,0.7948 5.7903,1.5786 0.4811,-1.0611 1.0503,-4.0753 2.5574,-4.0423 0.8428,0.2279 1.482,2.4628 1.9897,4.0895 1.6836,-0.5424 3.1463,-2.426 5.8603,-1.7714 0.0474,1.2403 -2.7747,3.7453 -3.1724,6.3671 6.0784,0.1192 10.3805,0.64 13.6716,1.4273 4.6225,1.1056 8.5588,3.0971 10.855,7.4689 1.7525,3.3439 1.9991,8.0983 0.0266,11.435 -2.1958,3.7142 -5.3398,5.8596 -9.2356,6.5705 -2.9484,0.546 -7.6803,0.0849 -14.1714,-1.3589 -8.3112,-1.8321 -13.5041,-1.4074 -15.5789,1.274 -0.5096,3.3972 0.3519,5.3628 2.5844,5.9088 1.286,0.3276 3.9263,0.234 7.5055,-0.6032 7.4667,-1.4581 21.6979,-6.1169 27.377,1.5496 4.9311,6.4765 1.277,16.2264 -6.5397,18.3208 -2.6572,0.7159 -7.1585,0.546 -13.5041,-0.5338 -5.8498,-1.029 -10.1839,-1.3052 -12.9927,-0.8193 -2.2585,0.3904 -4.1105,3.3054 -1.3234,4.8638 1.6663,0.9316 3.7141,1.3103 6.1505,1.1364 6.4011,-0.5526 12.9134,-3.6493 19.3965,-1.5259 2.8501,0.9334 4.8311,2.9812 5.0988,6.696 0.6767,9.3965 -10.1657,9.8995 -16.7301,8.7344 -3.5405,-0.463 -7.3133,-1.8112 -8.2141,2.4872 -0.3233,0.966 -0.1291,1.7126 0.6702,2.2962 2.9725,2.1704 8.1036,1.8405 10.9636,-0.215 1.4476,-1.0403 2.277,-0.8662 3.7058,-0.7477 0,0.8341 -0.3232,1.5588 -0.6163,2.1584 -0.4571,0.9353 -1.1179,1.6452 -2.4932,2.5989 -4.0781,3.0892 -10.9114,3.0378 -15.8457,-0.9464 l 0,0 z"
   inkscape:connector-curvature="0"
   style="fill:#0a0b0c" />
   <path
   id="path21"
   class="fil4"
   d="m 97.6785,108.177 c -0.3393,-1.6005 -1.2148,-3.3559 -2.258,-4.6018 1.3441,0.2894 3.3565,1.2563 4.3725,1.627 0.1577,-0.9343 0.6761,-2.7035 1.8166,-3.662 0.9873,0.9047 1.1775,2.2504 1.8018,3.6084 1.5502,-0.6645 3.0724,-2.1133 4.8612,-2.1133 -2.0136,1.4674 -2.5385,4.1095 -2.6955,5.2751 -3.0943,-1.1218 -6.798,-0.4939 -7.8986,-0.1334 l 0,0 z"
   inkscape:connector-curvature="0"
   style="fill:#f8c300" />
   <path
   id="path18"
   class="fil5"
   d="m 101.404,188.042 c -1.9889,-0.7226 -3.9989,-2.0644 -4.6643,-3.9137 -1.2354,-3.434 -0.0515,-6.8755 2.5283,-8.2607 1.7108,-0.8372 5.2658,-1.0677 10.6529,-0.6673 3.2152,0.2305 5.5084,0.2912 6.8551,0.1698 l 0.1821,0.0971 0.1334,0.1335 0.2669,0.1334 0.0486,-0.2669 0.0485,-0.2669 0.1335,-0.4975 0.0485,0.085 c 0.3883,0.6673 0.91,0.9342 1.5773,0.8129 -0.1577,-0.3883 -0.3519,-0.6916 -0.5945,-0.8979 l 1.7714,0 0.1335,-0.728 -0.8614,0 0,-0.4488 1.7592,0 -0.0849,-0.449 -0.0971,-0.4489 0,-0.0971 -0.182,0.0486 -0.4004,0.1334 -0.4125,0.1334 0.0971,-0.3154 0.0485,-0.182 0.0364,-0.1334 c 0.4004,-0.0608 0.7401,-0.182 1.0434,-0.364 0.4732,-0.2306 0.5096,-0.4854 0.085,-0.7644 l -0.9464,0.4489 -0.4975,0.2305 -0.4488,0.2184 0.1334,-0.8978 0.0971,0.0849 0.0849,0.0971 0.0849,0.0849 c 0.1577,-0.0849 0.2669,-0.2791 0.3276,-0.5824 l 1.4802,-0.2669 -0.1334,-0.364 -0.1335,-0.3155 -0.0485,-0.2305 c -0.4247,0.2063 -0.8736,0.4732 -1.3468,0.7765 -0.3275,0.2063 -0.5581,0.3276 -0.6794,0.3519 l -0.0486,-0.267 -0.0485,-0.2305 0.0971,-0.0849 c 0.3276,-0.364 0.8007,-0.6067 1.3953,-0.728 l 0.1334,-0.0364 -0.0364,-0.4489 -0.0485,-0.4611 c -0.182,0.182 -0.4247,0.3033 -0.728,0.3641 l -0.1335,-0.1336 -0.0485,-0.097 c 0.182,-0.3034 0.2427,-0.5945 0.182,-0.8978 l -0.0364,-0.267 c -0.2062,0.2062 -0.4853,0.4246 -0.8129,0.631 -0.4004,0.2669 -0.6794,0.5702 -0.8614,0.8978 l -0.1335,-0.0364 -0.4125,0 c 0.0606,-0.2184 0.2062,-0.5338 0.4125,-0.9586 0.2669,-0.5095 0.3883,-0.8736 0.364,-1.0798 -0.0971,0.0364 -0.2912,0.2427 -0.5945,0.631 -0.3276,0.4488 -0.6067,0.7644 -0.813,0.9463 l -0.0364,-0.1334 -0.0485,-0.1335 0,-0.1334 c 0.2427,-0.2791 0.3155,-0.7159 0.2184,-1.3104 l -0.0364,-0.182 c -0.3276,0.2426 -0.5703,0.5338 -0.728,0.8614 l -0.1335,0.3154 -0.2305,0.0486 -0.2184,0.0364 -0.4125,0.1334 -0.2669,-0.2668 0.2305,-0.7159 0.2184,-0.728 -0.6309,0 -0.2669,1.4923 c -2.0748,0.0365 -4.2611,0.3544 -6.3601,0.8033 -3.2355,0.868 -5.6146,1.5984 -8.7258,1.7821 -3.904,0.2305 -9.4658,-0.4722 -11.6608,-4.0742 -1.4303,-2.3472 -1.7801,-4.8172 -1.0421,-7.4098 1.2297,-4.3199 4.8958,-5.8486 9.1596,-5.9376 6.2524,-0.288 18.1175,4.1111 24.1376,1.2473 l 0.0849,0.0485 0.2669,0.0485 0.2791,0.085 0.0364,-0.182 0.0485,-0.1335 0.1335,-0.2669 0.4125,0.0364 0.4004,0.0485 0.8129,0.1335 c 0.1577,-0.1456 0.2548,-0.4611 0.3155,-0.9464 l -0.182,-0.0486 -0.5824,0 c 0.3033,-0.4731 0.8372,-0.7158 1.6259,-0.7158 0.4488,0 0.8129,-0.0364 1.0797,-0.0971 l 0,-0.1698 0.0486,-0.2305 0.0485,-0.3155 c -0.4853,-0.0607 -0.7765,-0.1578 -0.8614,-0.3154 0.3033,-0.2427 0.7401,-0.4733 1.3103,-0.6795 l 0.1335,-0.9464 -0.5824,0.182 c -0.5217,0.182 -0.9827,0.2669 -1.4074,0.2669 l -0.0364,-0.0849 -0.0485,-0.182 0,-0.182 0.2305,0 c 1.1769,0 1.8927,-0.4368 2.1597,-1.3104 -0.9585,0.6309 -1.9292,0.6916 -2.8877,0.182 0,-0.6915 -0.0485,-1.1648 -0.1334,-1.3953 l -0.4975,0 -0.182,0.0364 -0.182,-0.5823 -0.2184,-0.546 -0.182,0.097 -0.1335,0.0485 c -0.6673,-0.5702 -0.9221,-1.1647 -0.7765,-1.7714 0.085,-0.3518 0.1335,-0.6673 0.1335,-0.9464 -0.449,0.2063 -0.728,0.6188 -0.8493,1.2255 -0.0364,0.2426 -0.0728,0.4368 -0.1335,0.5824 -3.8986,-0.4963 -6.1391,0.5793 -11.233,2.2319 -5.5916,1.9493 -15.1478,2.8301 -20.5116,-0.2602 -3.0776,-1.7732 -4.7588,-3.7025 -5.2655,-6.2108 -0.4153,-2.0557 -0.1689,-5.6012 1.3165,-8.5306 2.0745,-4.0912 5.9186,-5.4788 10.8251,-6.2509 4.4258,-0.696 9.2034,0.2766 13.5362,1.0637 3.4547,0.6281 10.9115,2.7433 13.8075,-0.4975 l 0.097,0.5824 0.085,0.5823 0.7279,0.2306 0.7159,0.2305 c -0.0607,-0.4853 -0.3155,-1.0677 -0.7644,-1.7593 -0.1577,-0.279 -0.2548,-0.4732 -0.3154,-0.5945 0.3518,-0.2063 0.6066,-0.5945 0.7643,-1.1648 0.3883,0.5096 1.1405,0.8129 2.2568,0.8979 l -0.0849,-0.3155 -0.0971,-0.3155 0,-0.1334 -0.5824,-0.1335 0,-0.4125 0.8129,-0.182 0.8129,-0.1335 c 0.085,-0.2063 0.085,-0.4974 0,-0.8614 -1.0555,0.1213 -1.8321,0.5096 -2.3538,1.1769 l -0.5823,0 c 0.3186,-0.2188 0.3524,-1.288 -0.2768,-2.8907 0.2063,-0.0243 1.1503,-0.0455 1.3565,-0.2275 0.2791,-0.2063 0.546,-0.3397 0.813,-0.4004 l -0.1335,-0.9464 c -0.182,0 -0.3882,0.0607 -0.6309,0.182 -0.1578,0.0849 -1.5543,0.6293 -1.6392,0.6658 0,-0.1578 1.3116,-0.8357 1.3722,-1.0783 0.085,-0.3276 0.1335,-0.6673 0.1335,-0.9949 -0.3276,0.0971 -0.7401,0.3276 -1.2254,0.6794 -0.4732,0.364 -0.8979,0.5703 -1.2618,0.6309 -0.0243,-0.3882 0.0364,-0.7037 0.182,-0.9463 l 0.364,-0.0485 0.2184,-0.0365 0.182,0 -0.085,-0.6309 -0.097,-0.6794 c -0.5703,0.5096 -1.1042,1.0556 -1.6138,1.6258 l -0.1456,-0.5945 0.2791,-0.0364 0.1335,-0.0485 0.1334,0 -0.0849,-0.3155 -0.0971,-0.3154 -0.0485,-0.3155 c -0.4489,0.2063 -0.7159,0.5096 -0.8129,0.8978 l -0.0364,0.2791 c -0.4246,-0.0607 -0.6795,-0.1699 -0.7644,-0.3276 0.0849,-0.1092 0.2184,-0.2305 0.4004,-0.3518 l 0.0485,-0.0486 c -0.4004,-0.5096 -0.8008,-0.5824 -1.2254,-0.2305 -0.2063,0.182 -0.0888,0.2163 -0.2344,0.2405 -0.8047,-0.8359 -2.5768,-1.2866 -5.5409,-1.0898 l -0.7159,-0.0486 c -0.2426,-0.3033 -0.4975,-0.8978 -0.7765,-1.8078 -0.182,0.2062 -0.2548,0.5702 -0.2184,1.0798 0,0.2791 0,0.4975 0,0.6795 l -1.0799,0 c 0.1457,-0.3276 0.2063,-0.7159 0.1699,-1.1648 l 0,-0.182 -0.4004,0 c -0.182,0.2063 -0.2426,0.4368 -0.182,0.6673 0.0607,0.2791 0.0607,0.546 0,0.813 l -0.4489,0 -0.1334,0.0485 c -0.085,-0.2427 -0.1335,-0.6067 -0.1335,-1.0799 0,-0.3276 -0.0121,-0.6188 -0.0486,-0.8614 -0.5459,0.4004 -0.6187,1.0798 -0.2305,2.0384 -0.546,0.2669 -1.553,0.5702 -3.0211,0.8978 l -0.0485,0 c 0.4852,-1.0192 0.5823,-1.6986 0.279,-2.0262 -0.6431,0.4732 -0.8857,1.2861 -0.728,2.4266 -4.1386,2.2248 -11.9464,3.4701 -12.8125,2.4023 -0.097,-0.3276 0.4126,-1.0434 1.5288,-2.1232 0.9949,-0.995 1.7229,-1.6137 2.1718,-1.8564 -0.0971,-0.5703 -2.1112,-1.3589 -6.0544,-2.3903 -1.5409,-0.4246 -2.4266,-0.6915 -2.6571,-0.8128 0.5526,-1.8628 4.7908,-2.0535 6.4911,-2.3053 0,-0.9586 1.2983,-1.6986 3.8826,-2.2082 2.7009,-0.5648 4.3665,-0.596 6.9993,0.029 0.3507,0.0832 4.0198,0.2639 4.4179,0.2864 3.3315,0.2099 10.506,0.7241 14.8469,2.9881 3.402,1.7743 6.1665,5.5322 6.5559,9.5211 0.1706,3.2191 -0.6277,5.5053 -1.8776,7.2678 -2.0073,2.8306 -5.2293,5.0674 -9.1369,5.3991 -3.0875,0.262 -7.2861,-0.313 -12.4761,-1.3979 -6.1151,-1.4846 -10.8851,-1.8826 -13.9278,-0.7618 -0.2063,-0.3033 -0.3883,-0.5945 -0.546,-0.8978 -0.085,-0.2427 -0.3033,-0.3882 -0.6309,-0.4489 0,0.182 0.0607,0.4489 0.182,0.8129 0.2427,0.5945 0.2669,1.0798 0.0849,1.4438 l -0.1335,-0.0485 -0.2668,0 c 0.0849,-0.2063 -0.0486,-0.8857 -0.4004,-2.0262 l -0.0971,-0.364 c -0.2427,0.1213 -0.4125,0.2305 -0.4975,0.3155 0.0364,0.2426 0.1092,0.5702 0.2306,0.9948 0.2426,0.813 0.1941,1.5288 -0.1335,2.1597 l -0.4975,0.0485 -0.546,0.0486 0,-0.449 -0.5459,0 c -0.085,-0.4489 -0.267,-0.8128 -0.5339,-1.0919 l -0.0971,-0.085 -0.1334,0.085 -0.085,0.0485 -0.0485,0.3155 c -0.0849,0.6309 -0.0122,1.1526 0.2305,1.5773 0.3519,0.0364 0.8008,-0.0122 1.3468,-0.1335 l -0.2669,1.8928 0.4489,0 0,0.9949 -0.5824,0 -0.1335,0.182 -0.1455,0.3154 -0.1699,0.267 -0.8615,-0.1821 -0.8614,-0.1334 c 0.0607,0.3034 0.2184,0.643 0.4489,0.9949 0.1577,0.2791 0.2548,0.4853 0.3155,0.6309 0.3275,-0.3033 0.7037,-0.5823 1.1284,-0.8493 0.643,0.1092 0.9221,0.6188 0.8614,1.5288 -0.364,0.1213 -0.6067,0.2305 -0.7159,0.3154 0.1092,-0.3882 0.1699,-0.7765 0.1699,-1.1769 -0.0849,-0.0606 -0.3276,-0.0606 -0.7159,0 l -0.5823,0.0971 0,0.9464 0.0849,0.0849 0.1335,0.0485 c 0.1213,-0.1213 0.2669,-0.2305 0.4489,-0.3154 0.0606,0.2063 0.0242,0.546 -0.1335,0.9949 0.5096,0.0606 1.0556,-0.0849 1.6259,-0.4125 0.364,-0.2305 0.6552,-0.3276 0.8614,-0.267 l -0.1335,0.267 -0.1455,0.3155 -0.0364,0.1455 -0.364,0.085 -0.182,0.0485 0,1.0313 c 0.182,-0.0242 0.3761,-0.1334 0.5824,-0.3155 0.4004,-0.3518 0.8614,-0.4853 1.4073,-0.4004 -0.1576,0.3034 -0.1941,0.5946 -0.1334,0.8979 l 0.5824,0 c 0.0849,-0.182 0.1941,-0.3276 0.3154,-0.4489 6.8164,0.2901 12.9914,-2.4339 19.5827,-3.2289 3.2292,-0.3895 6.2419,-0.3259 8.8579,0.1773 4.7775,0.919 8.0086,4.3364 8.1701,8.922 0.109,3.0982 -1.643,7.2368 -4.9731,9.7289 -4.5298,3.3899 -12.6306,1.7648 -18.0446,0.8625 0.1213,-0.4732 0.1174,-0.5432 0.081,-0.9315 l -0.4489,0.1335 0,1.0798 c -0.2791,0.0364 -0.6673,-0.0242 -1.1769,-0.182 0.0606,-0.3882 0.0243,-0.7886 -0.1335,-1.2134 l -0.3154,0 -0.0849,0.0365 0,1.0435 c -0.6067,-0.1578 -0.9586,-0.6552 -1.0435,-1.4924 -0.0607,-0.3883 -0.1456,-0.631 -0.2669,-0.7159 l 0,0.0364 c -0.1578,0.4247 -0.1578,0.9586 0,1.5895 l -0.2306,-0.0486 -0.6794,0 -0.1335,-0.364 -0.0849,-0.4004 -0.2305,-0.8129 -0.267,0.1335 -0.097,0.3155 -0.0849,0.3154 -0.1335,0.5823 -0.182,0 -0.1335,0.0486 -0.2305,0.0486 -0.1334,-0.728 -0.0486,-0.364 -0.0364,-0.3519 -0.546,0 -0.1334,1.2133 c -0.5703,0.0364 -0.91,-0.2183 -0.995,-0.7643 -0.0606,-0.2427 -0.1213,-0.3883 -0.182,-0.449 l -0.1334,0.182 -0.0971,0.1335 c -0.0849,0.1213 -0.0971,0.4246 -0.0364,0.8978 l -0.2791,0.0486 -0.3154,0.0485 -0.2669,-1.274 -0.2306,-0.0364 -0.2184,0 0,1.3104 -0.728,0 0,-1.1769 c -0.5095,0.0606 -0.7522,0.3155 -0.7158,0.7644 l 0,0.546 c -0.0606,-0.0364 -0.1577,-0.2184 -0.279,-0.546 -0.1821,-0.4489 -0.3398,-0.7523 -0.4854,-0.8979 l -0.1456,1.8927 c -0.4246,-0.6672 -0.7037,-1.2496 -0.8493,-1.7592 -0.2791,0.2063 -0.3155,0.6066 -0.1335,1.1769 0.1092,0.3519 0.1578,0.6309 0.1335,0.8129 l -0.182,0 -0.2305,0.0364 -0.364,0.0486 c -0.1092,-0.3883 -0.4368,-0.8251 -0.9828,-1.3104 0,0.0606 0.0485,0.2548 0.1334,0.5824 0.267,1.0556 0.3155,1.65 0.1335,1.7714 -0.3033,-0.3034 -0.5702,-0.7644 -0.8128,-1.359 l -0.631,0 c 0.3883,0.995 0.6794,1.5774 0.8615,1.7594 l -0.4125,0.0485 -0.449,0.0364 -0.2305,-0.3155 -0.2184,-0.3518 c -0.1213,0.1456 -0.1577,0.364 -0.0971,0.6673 l 0.0486,0.364 c 0.2669,0.182 0.7158,0.3397 1.3589,0.4489 -0.0607,0.4004 -0.3883,0.5218 -0.9585,0.364 -0.182,-0.0606 -0.2912,-0.0849 -0.3519,-0.0849 l 0,-0.449 -0.2791,0.085 -0.2669,0.0849 -0.1335,0.9949 0.085,0 0.91,-0.0364 0.8978,-0.0485 0,0.6795 -0.182,-0.0486 -0.1334,-0.097 c -0.3276,0.2062 -0.6674,0.2912 -0.995,0.2305 l -0.0364,0.0849 -0.0485,0.182 0,0.2306 c 0.2669,0.0606 0.5339,0.0242 0.8129,-0.085 0.3033,-0.1213 0.5824,-0.182 0.8493,-0.182 l 0.279,0.5338 c -0.4488,0.2428 -0.8492,0.352 -1.1768,0.3155 l -0.0485,0.2305 0,0.7644 c 0.1577,0.1214 0.4125,0.1214 0.7765,0 l 0,-0.4489 1.0798,0 c -0.1213,0.1577 -0.4853,0.2549 -1.0798,0.3155 l 0,0.4489 -0.0486,0.4125 c 0.6916,0 1.2497,-0.3154 1.6744,-0.9464 l 0.2669,0.085 0.2669,0.1334 0,0.182 0.0486,0.182 0.0485,0.085 -0.4611,0 -0.0364,0.2305 -0.0485,0.2669 -0.0849,0.546 0.3154,-0.0485 0.1335,-0.0486 0.182,0 0.0849,-0.1698 c 0.182,-0.364 0.3276,-0.6188 0.449,-0.7765 l 0.4489,0 c 0.0971,0.182 0.1092,0.5823 0.0485,1.1769 l 0.0971,0.097 0.1335,0.0364 c 0.4489,-0.3882 0.6915,-0.728 0.7158,-1.0313 l 0.7644,0.1335 c -0.1456,0.3033 -0.2063,0.5945 -0.1699,0.8978 l 0.2184,0 0.2791,0.0486 0.0849,0.0485 c 0.4732,-0.7886 3.6399,-1.5409 9.4759,-2.2568 4.158,-0.5262 8.5349,-1.7185 12.5467,-0.2907 2.2511,0.8013 3.9937,2.7593 4.1921,4.6659 0.7618,3.1713 3e-4,6.3404 -2.8697,8.0677 -2.1391,1.2873 -4.9505,1.8459 -6.7809,1.8159 -2.0262,0 -3.4361,-0.0145 -4.067,-0.3179 l -0.4004,-1.3952 c -0.085,0.2426 -0.1942,0.6672 -0.3155,1.2618 -0.4489,0 -0.7886,-0.0728 -0.9949,-0.2306 l -0.0849,-0.5823 -0.0971,-0.4975 0,-0.1334 -0.1335,0.182 -0.0849,0.0848 c -0.0971,0.1214 -0.1092,0.4248 -0.0485,0.91 l -1.0799,-0.1456 -0.182,-0.3154 -0.2305,-0.3154 -0.1334,0.182 -0.0971,0.1819 -0.2184,-0.0485 -0.6795,0 c 0.182,-0.3033 0.2427,-0.5946 0.182,-0.8978 l -0.0485,-0.267 -0.3154,0.631 -0.182,0.4004 -0.4975,0 -0.1335,0.0485 -0.0485,-0.3155 -0.0364,-0.267 -0.0971,-0.6308 c -0.2669,0.2669 -0.4004,0.546 -0.4004,0.8492 l 0,0.449 -0.6794,0 -0.2306,0.0485 -0.3518,-0.5823 0,0.3639 -0.0485,0.4853 -1.8928,0.1456 -0.097,0.2184 -0.085,0.182 -0.546,0 c 0.0607,0.182 0.0364,0.5824 -0.0849,1.2255 l -0.1335,0.0364 -0.097,0.0485 -0.1335,-0.546 -0.7644,0 0.0485,0.2306 0.0364,0.2669 c 0.1578,0.546 0.2306,1.0434 0.2306,1.4924 -0.2063,-0.1578 -0.546,-0.2548 -0.9949,-0.3156 -0.085,0.0365 -0.1457,0.0972 -0.182,0.1821 l 0.1334,0.1335 c 0.3276,0.3032 0.546,0.6916 0.6309,1.1768 l -0.5338,0.1336 0,0.1819 0.0364,0.182 0.0485,0.3155 0.182,-0.0486 0.5824,-0.0849 0.546,-0.0971 0,0.449 c -0.4732,0.1213 -0.7523,0.3882 -0.8129,0.8129 l -0.0486,0.2305 c 0.1578,0 0.3155,-0.0606 0.4975,-0.182 0.3033,-0.2062 0.6067,-0.3154 0.91,-0.3154 -0.182,0.2062 -0.2791,0.4974 -0.2791,0.8614 l 0,0.3519 0.0971,-0.1335 0.0849,-0.1335 c 0.182,-0.3033 0.4732,-0.4003 0.8615,-0.3154 -0.1578,0.3882 -0.1942,0.7037 -0.1335,0.9464 0.1214,-0.0364 0.2669,-0.0971 0.449,-0.182 0.2426,-0.085 0.4731,-0.1456 0.6794,-0.182 l 0.0364,0.097 0.0485,0.267 0.097,0.2668 c 1.85,0.0814 5.3071,0.9864 9.4046,-1.0943 0.5724,-0.2907 1.1057,-0.6845 1.6487,-1.1139 0.6134,-0.1951 1.1147,-0.2164 1.7593,-0.0849 -0.5108,1.4985 -2.128,3.1634 -3.4701,3.9191 -3.5583,1.9315 -6.8127,1.9477 -10.5916,0.5751 l 0,0 z"
   inkscape:connector-curvature="0"
   style="fill:#0093dd" />
   <path
   id="path20"
   class="fil6"
   d="m 75.39,134.264 c -0.0364,-0.364 -0.0364,-0.7765 0,-1.2254 0,-0.5096 -0.0485,-0.9343 -0.1334,-1.2619 0.7158,-0.2427 1.5773,-0.7037 2.5722,-1.3953 1.1041,-0.7522 1.735,-1.3953 1.8927,-1.9413 l 0.5824,-0.3154 0.6309,-0.2791 c -0.1455,-0.6309 0.0486,-1.6501 0.5946,-3.0575 0.3509,-0.4102 1.0844,-2.7703 -0.0486,-4.3436 -0.5702,1.1161 -1.3831,1.8805 -2.4387,2.3052 l -0.1335,0.4489 c -3.8936,1.2341 -6.1984,-1.4728 -6.0973,-3.6644 0.167,-3.6224 3.4417,-3.994 6.0925,-2.7157 l -0.0437,0.9203 0.6309,0.097 0,1.5773 -0.1334,-0.9099 -0.5824,0 c 0,0.1577 -0.0122,0.3639 -0.0485,0.643 -0.085,0.5096 0.1698,0.9949 0.7643,1.4439 l -0.1334,0.1334 -0.1821,0.085 0.91,0 -0.0485,-0.085 -0.0849,-0.1334 0.6309,-1.3104 -0.2791,-0.728 c -0.2305,-0.6673 -0.3518,-1.2012 -0.3518,-1.6258 l 0.1334,0.182 c 0.3883,0.5095 1.0192,0.7643 1.8928,0.7643 0.8129,-0.9342 0.2791,-2.5479 -1.5773,-4.8653 -0.9602,-1.1647 -1.6951,-1.7091 -2.9362,-2.4873 -0.3883,-0.7887 -1.2133,-1.4196 -2.4873,-1.8927 -0.5702,-0.2063 -0.9585,-0.4126 -1.1647,-0.5946 l 0.2669,-1.4438 0.6309,-0.2669 c 0.1022,-0.6877 0.2215,-1.4048 0.4125,-0.182 l 0.6673,-0.0364 0.631,-0.0486 c 0.279,0.3883 0.5217,0.8493 0.728,1.3953 0.3033,0.8372 1.1283,1.4924 2.4872,1.9414 l 0.3155,0.728 0.2184,-0.1821 0.8614,0.7159 c 0,0.4721 -0.319,0.6867 0.0486,1.1768 l 0.4003,-0.7279 c 2.0505,1.7107 3.3124,3.2395 3.7977,4.562 l 0.3155,-0.5824 2.7905,-0.1334 c 2.3995,0.5573 4.5793,1.2402 6.3674,2.1467 -0.6179,0.8081 -1.7987,2.1824 -1.9873,3.1797 -0.3034,-0.0971 -0.5096,-0.2184 -0.631,-0.364 -0.279,0.0607 -1.0676,0.5217 -2.3901,1.3953 -1.5954,1.1352 -4.3572,2.3884 -5.3863,4.1985 -1.698,2.9866 -2.9441,4.385 -4.8647,6.3794 -0.7011,0.728 -1.5402,1.415 -2.4766,2.1497 l -0.5945,0 c -0.3034,-0.0364 -0.6431,0.0485 -1.0314,0.2305 l 0,0 z"
   inkscape:connector-curvature="0"
   style="fill:#ee9ba0" />
   <path
   id="path22"
   class="fil3"
   d="m 124.044,148.387 0.1335,-1.1769 -0.5824,-0.1335 0.4489,0 0.182,0.0485 0.2184,-0.8129 0.2305,-0.8129 c -0.4246,0.0849 -0.7765,0.3033 -1.0798,0.6309 l -0.0486,0.0486 0,-0.0486 -0.4974,-0.0849 -0.4974,-0.097 c -0.1821,-1.4196 0.1577,-1.8685 0.9948,-1.3468 0,1.0192 0.0486,1.553 0.1335,1.6137 0,-0.3034 0.1941,-0.5582 0.5824,-0.7644 0.2427,-0.1213 0.4125,-0.2305 0.4975,-0.3155 0.0606,0.3034 -0.0486,0.9464 -0.3519,1.9413 0.0607,0.0607 0.2305,0.0364 0.5339,-0.0849 0.279,-0.1213 0.4974,-0.1941 0.6794,-0.2305 -0.0849,0.4246 -0.4853,0.8736 -1.1769,1.3589 l -0.4004,0.2669 0,0 z m -2.3538,-2.9362 c 0.1577,-0.6673 0.4126,-1.3346 0.7765,-2.0262 0.2305,0.2062 0.1578,0.825 -0.2305,1.8442 l -0.0849,0.182 -0.4611,0 z m -2.6086,-0.8129 c 0,-0.7159 0.0849,-1.2619 0.2669,-1.6259 l 0.182,-0.3154 0,0.1334 c 0.0364,1.4196 -0.1213,2.0141 -0.4489,1.8079 l 0,0 z M 91.5881,133.8516 c -0.6309,-0.267 -0.9585,-0.7159 -0.9949,-1.3468 l 0,-0.279 0.546,-0.1335 c 0.0606,0.2062 0.2062,0.4974 0.4125,0.8614 0.182,0.3519 0.3276,0.6916 0.4489,0.9949 l -0.1335,-0.0485 -0.1456,-0.0485 -0.1334,0 0,0 z m -9.9249,-5.7754 c -0.4246,-0.3033 -0.6309,-0.5217 -0.6309,-0.6794 0.085,-0.0243 0.267,-0.0364 0.5339,-0.0364 0.5217,0 0.8978,-0.0485 1.1284,-0.1456 -0.2306,0.2791 -0.4732,0.5581 -0.7159,0.8614 l -0.3155,0 z m 43.3757,-5.4113 -0.0485,-0.279 0,-0.2184 c 0.7158,-0.3276 1.1405,-0.5703 1.2618,-0.728 l 0.1334,0.0971 0.182,0.0363 0,0.5946 c -0.7158,0.3276 -1.2254,0.4974 -1.5287,0.4974 l 0,0 z m -45.5477,-0.364 -0.4004,-0.0849 c -0.2063,-0.0607 -0.4247,-0.0485 -0.6309,0.0364 l -0.1335,0.0485 -0.0971,-0.2669 -0.0485,-0.1456 c 0.4853,-0.1092 0.8615,-0.3034 1.1284,-0.5824 0.2184,0.3033 0.3276,0.6431 0.3276,1.0434 l -0.0485,-0.0485 -0.0971,0 0,0 z m -2.7906,0 c -0.2791,-0.91 -0.4004,-1.6743 -0.364,-2.3053 l 0,-0.4489 c -0.7159,-0.7158 -0.8372,-1.3953 -0.364,-2.0262 l 0.3155,0.3154 c 0.0363,-0.1213 0.1213,-0.2305 0.279,-0.3154 0.2306,0.2305 0.3276,0.7158 0.2669,1.4438 l 0,0.3155 0.4004,-0.1335 0.2791,-0.097 c 0.2305,-0.085 0.4246,-0.1214 0.5824,-0.085 l 0.0485,0.3519 0.0364,0.364 c -0.5703,0.0364 -0.9949,0.1092 -1.2982,0.2305 0.2669,0.2063 0.4368,0.6067 0.4974,1.1769 0.0607,0.6552 -0.1698,1.0556 -0.6794,1.2133 l 0,0 z m 31.182,-5.0959 c -0.0607,-0.279 -0.0122,-0.8007 0.1334,-1.5894 l 0.4125,0 0.0364,0.0485 0.0486,0.0971 0.097,0.1335 c -0.0607,0.1213 -0.1577,0.3761 -0.2791,0.7643 -0.1213,0.3883 -0.2305,0.6309 -0.3154,0.7159 l -0.0364,-0.085 -0.097,-0.0849 0,0 z m -24.5938,-2.8876 -0.4489,-0.1457 -0.0485,-0.2669 -0.0486,-0.1334 0,-0.1335 -0.3154,0.0364 -0.3155,0.0485 c 0.1577,-0.2062 0.3033,-0.4004 0.4489,-0.5823 0.085,0.3275 0.5703,0.7279 1.4439,1.1769 l -0.7159,0 0,0 z"
   inkscape:connector-curvature="0"
   style="fill:#0a0b0c" />
   <path
   id="path24"
   class="fil3"
   d="m 97.3726,113.522 c 1.6622,-1.4776 4.8635,-2.401 6.9567,-1.3544 -0.5965,2.4805 -5.3718,2.4037 -6.9567,1.3544 z"
   inkscape:connector-curvature="0"
   style="fill:#0a0b0c" />
  </g>
 </g>
</svg>