<?xml version="1.0" encoding="UTF-8" standalone="no"?>
<!-- Creator: CorelDRAW -->

<svg
   xmlns:dc="http://purl.org/dc/elements/1.1/"
   xmlns:cc="http://creativecommons.org/ns#"
   xmlns:rdf="http://www.w3.org/1999/02/22-rdf-syntax-ns#"
   xmlns:svg="http://www.w3.org/2000/svg"
   xmlns="http://www.w3.org/2000/svg"
   xmlns:sodipodi="http://sodipodi.sourceforge.net/DTD/sodipodi-0.dtd"
   xmlns:inkscape="http://www.inkscape.org/namespaces/inkscape"
   xml:space="preserve"
   width="300"
   height="393"
   style="fill-rule:evenodd"
   viewBox="0 0 84.666667 110.91334"
   id="svg2"
   version="1.1"
   inkscape:version="0.48.1 "
   sodipodi:docname="соляногорск.svg"><metadata
   id="metadata22"><rdf:RDF><cc:Work
       rdf:about=""><dc:format>image/svg+xml</dc:format><dc:type
         rdf:resource="http://purl.org/dc/dcmitype/StillImage" /></cc:Work></rdf:RDF></metadata><sodipodi:namedview
   pagecolor="#ffffff"
   bordercolor="#666666"
   borderopacity="1"
   objecttolerance="10"
   gridtolerance="10"
   guidetolerance="10"
   inkscape:pageopacity="0"
   inkscape:pageshadow="2"
   inkscape:window-width="640"
   inkscape:window-height="480"
   id="namedview20"
   showgrid="false"
   fit-margin-top="0"
   fit-margin-left="0"
   fit-margin-right="0"
   fit-margin-bottom="0"
   inkscape:zoom="0.66412215"
   inkscape:cx="150"
   inkscape:cy="196.5"
   inkscape:window-x="138"
   inkscape:window-y="138"
   inkscape:window-maximized="0"
   inkscape:current-layer="svg2" />
 <defs
   id="defs4"><style
     type="text/css"
     id="style6">
   
    .fil0 {fill:black;fill-rule:nonzero}
    .fil1 {fill:#1599D3;fill-rule:nonzero}
    .fil3 {fill:#DD232D;fill-rule:nonzero}
    .fil4 {fill:#F8E73D;fill-rule:nonzero}
    .fil2 {fill:white;fill-rule:nonzero}
   
  </style></defs>
 <path
   id="path3005"
   d="m 62.58329,53.207008 c 0.828322,0 1.500011,0.671689 1.500011,1.500011 l 0,1.499658 c 0,0.828322 -0.671689,1.500011 -1.500011,1.500011 l -1.500011,0 0,-4.49968 1.500011,0 z m 0,5.999692 c 1.656644,0 3.000022,-1.343378 3.000022,-3.000023 l 0,-1.499658 c 0,-1.656645 -1.343378,-3.000023 -3.000022,-3.000023 l -3.000023,0 0,7.499704 3.000023,0 z m -6.000045,-7.499704 1.500011,0 0,7.499704 -1.500011,0 0,-7.499704 z m -3.000022,0 1.500011,0 0,7.499704 -1.500011,0 -3.000023,-4.708526 0,4.708526 -1.500011,0 0,-7.499704 1.500011,0 3.000023,4.708526 0,-4.708526 z m -22.499886,0 4.499999,0 0,1.500012 -2.999987,0 0,1.500011 2.999987,0 0,1.500011 -2.999987,0 0,1.499658 2.999987,0 0,1.500012 -4.499999,0 0,-7.499704 z m -5.999974,-3.52e-4 1.499976,0 0,6.000044 3.000023,0 0,1.500012 -4.499999,0 0,-7.500056 z m 15.7504,6.000044 1.499588,0 c 1.242271,0 2.250157,-1.007533 2.250157,-2.250016 0,-1.242131 -1.026583,-2.245431 -2.250157,-2.250017 l -1.499588,0 0,1.500011 1.499588,0 c 0.41409,0 0.750146,0.336197 0.750146,0.750006 0,0.414161 -0.336056,0.750005 -0.750146,0.750005 l -1.499588,0 0,1.500011 z m 1.499588,-7.500055 c 2.898916,0 5.249827,2.351264 5.249827,5.250039 0,2.899127 -2.350911,5.250039 -5.249827,5.250039 -2.899022,0 -5.250004,-2.350912 -5.250004,-5.250039 0,-2.898775 2.350982,-5.250039 5.250004,-5.250039 z m 0,1.500011 c 2.070594,0 3.750169,1.679575 3.750169,3.750028 0,2.070805 -1.679575,3.750028 -3.750169,3.750028 -2.0707,0 -3.749993,-1.679223 -3.749993,-3.750028 0,-2.070453 1.679293,-3.750028 3.749993,-3.750028 z"
   style="fill:#a90000;stroke:none"
   inkscape:connector-curvature="0" /><path
   style="fill:#000000;fill-rule:nonzero"
   inkscape:connector-curvature="0"
   id="path10"
   d="M 42.333333,110.91334 C 30.450638,105.36821 0.01309586,89.483509 0.00258069,61.937773 l -0.00258267348,0 0,-0.01474 0,-61.92303039944 84.66666998348,0 0,61.92303039944 0,0.01474 -0.0018,0 C 84.65357,89.483509 54.216028,105.36821 42.333333,110.91334 z"
   class="fil0" /><path
   style="fill:#1599d3;fill-rule:nonzero"
   inkscape:connector-curvature="0"
   id="path12"
   d="M 42.08429,109.38178 C 29.825631,103.56684 1.308491,88.026225 1.2983447,61.937404 l 0.00258,0 0,-0.01474 0,-60.6225883 22.4218466,0 0,20.9933973 2.278656,1.917304 0,-22.9107013 2.436383,0 0,24.8285573 2.278656,1.728578 0,-26.5571353 2.436014,0 0,28.3712293 2.277733,1.759724 0,-30.1309533 2.436937,0 0,32.2180003 2.277733,2.24352 0,-34.4615203 1.939404,0 0,38.9275493 c -0.386848,-0.640084 -0.817417,-1.249205 -1.282851,-1.829575 -0.64161,-0.800059 -1.355719,-1.551647 -2.11687,-2.263425 l 9.23e-4,-9.21e-4 c -2.185495,-2.0465 -4.595499,-3.829447 -6.994249,-5.614421 l -0.62021,-0.461679 3.69e-4,-5.53e-4 c -2.473279,-1.842108 -5.003192,-3.618973 -7.346599,-5.62677 l 0,8.88543 c -0.0039,3.001558 0.453813,5.94543 2.090859,8.566586 1.28488,2.057927 3.20067,3.614366 5.090264,5.090632 2.355029,1.839713 4.840852,3.508023 7.155297,5.400077 1.464929,1.197601 2.797404,2.424874 4.023067,3.831659 l 0,2.06364 c -0.386664,-0.640084 -0.817232,-1.249021 -1.282667,-1.829207 -0.64161,-0.800059 -1.355719,-1.551647 -2.116869,-2.263425 3.69e-4,-1.84e-4 7.38e-4,-5.53e-4 9.22e-4,-9.21e-4 -2.185495,-2.0465 -4.595498,-3.829447 -6.994248,-5.614421 -0.206614,-0.153893 -0.413412,-0.307786 -0.620211,-0.461679 1.85e-4,-1.84e-4 3.69e-4,-3.69e-4 3.69e-4,-5.53e-4 -2.473278,-1.842108 -5.003191,-3.618973 -7.346598,-5.626769 0,2.961932 0,5.923681 0,8.88543 -0.0039,3.001558 0.453812,5.945429 2.090858,8.566586 1.28488,2.057926 3.20067,3.614365 5.090265,5.090632 2.355029,1.839712 4.840852,3.508022 7.155296,5.400076 1.464929,1.197601 2.79722,2.424874 4.022883,3.831659 l 0,2.064193 c -0.386848,-0.640084 -0.817417,-1.249205 -1.282851,-1.829576 -0.64161,-0.800059 -1.355719,-1.551646 -2.11687,-2.263424 l 9.23e-4,-9.22e-4 c -2.185495,-2.0465 -4.595499,-3.829447 -6.994249,-5.614421 l -0.62021,-0.461679 3.69e-4,-5.53e-4 C 28.598123,64.297219 26.06821,62.520355 23.724803,60.512558 l 0,8.88543 c -0.0039,3.001558 0.453813,5.945429 2.090859,8.566586 1.28488,2.057927 3.20067,3.614365 5.090264,5.090632 2.355029,1.839712 4.840852,3.508023 7.155297,5.400077 1.464929,1.1976 2.797404,2.424874 4.023067,3.831658 l 0,17.094289 z"
   class="fil1" /><path
   style="fill:#ffffff;fill-rule:nonzero"
   inkscape:connector-curvature="0"
   id="path14"
   d="m 76.769591,82.738942 c 2.564779,-3.855618 4.562108,-8.101221 5.658637,-12.745471 l -39.845483,30.435609 0,8.4232 34.186846,-26.113338 z m 6.595779,-23.13426 0,-8.423383 -40.782625,31.151255 0,8.423383 40.782625,-31.151255 z m 0,-18.096892 0,-8.423198 -40.782625,31.151254 0,8.423199 L 83.36537,41.50779 z m 0,-18.096524 0,-8.423013 -40.782625,31.151439 0,8.422829 40.782625,-31.151255 z m 0,-18.0963386 0,-4.013197 -5.773751,0 -35.008874,26.7412536 0,8.423383 L 83.36537,5.3149274 z m -18.43752,-4.013197 -11.02783,0 -11.317275,8.644546 0,8.4235666 L 64.92785,1.3017304 z"
   class="fil2" /><path
   style="fill:#dd232d;fill-rule:nonzero"
   inkscape:connector-curvature="0"
   id="path16"
   d="M 42.91259,109.22512 C 51.268091,105.23699 66.661008,96.929717 75.860675,84.058183 L 42.91259,109.22512 z M 82.595733,69.24004 c 0.497534,-2.335118 0.770928,-4.768101 0.77185,-7.30153 l -0.0018,0 0,-0.01474 0,-1.694666 -40.782625,31.151439 0,8.42283 40.013357,-30.563881 z m 0.769268,-18.683712 0,-8.423567 -40.782625,31.151255 0,8.423567 40.782625,-31.151255 z m 0,-18.096892 0,-8.423198 -40.782625,31.151439 0,8.423198 40.782625,-31.151439 z m 0,-18.096155 0,-8.4233823 -40.782625,31.1514393 0,8.423198 40.782625,-31.151255 z m -6.591905,-13.0615506 -11.027277,0 -23.163443,17.6932686 0,8.423014 34.19072,-26.1162826 z m -23.691784,0 -10.498936,0 0,8.0195747 10.498936,-8.0195747 z"
   class="fil3" /><path
   style="fill:#f8e73d;fill-rule:nonzero"
   inkscape:connector-curvature="0"
   id="path18"
   d="m 38.36524,1.3009932 1.283404,0 0,33.2757148 -1.283404,-1.264134 0,-32.0115808 z m -4.71467,0 1.283404,0 0,29.1202358 -1.283404,-0.991365 0,-28.1288708 z m -4.71467,0 1.282482,0 0,25.5571068 -1.282482,-0.972751 0,-24.5843558 z m -4.715039,0 1.282482,0 0,21.8441398 -1.282482,-1.079278 0,-20.7648618 z M 42.08429,55.487169 c -2.290094,-2.5725 -5.013892,-4.566106 -7.749865,-6.568189 -2.094732,-1.532663 -4.197213,-3.071224 -6.108207,-4.87555 -2.802385,-2.644748 -4.006095,-6.192027 -4.006279,-10.012074 l 9.22e-4,0 0,-0.0037 0,-8.518114 c 2.11687,1.813909 4.317676,3.280961 6.552796,4.946322 l 9.22e-4,0 0.620948,0.462232 c 2.516446,1.87215 4.832366,3.595382 6.949421,5.577561 1.481716,1.385405 2.78984,2.937605 3.739342,4.741193 l 0,14.249752 z m 1.84e-4,18.041048 c -2.290093,-2.5725 -5.013891,-4.566105 -7.749865,-6.568188 -2.094732,-1.532664 -4.197212,-3.071225 -6.108206,-4.875551 -2.802385,-2.644747 -4.006095,-6.192027 -4.00628,-10.012074 3.69e-4,0 7.38e-4,0 9.23e-4,0 0,-9.22e-4 0,-0.0018 0,-0.0037 0,-2.839371 0,-5.678743 0,-8.518114 2.116869,1.813909 4.317676,3.280961 6.552795,4.946323 3.69e-4,0 7.38e-4,0 9.22e-4,0 0.206983,0.154077 0.413966,0.308154 0.620949,0.462231 2.516446,1.87215 4.832366,3.595383 6.94942,5.577561 1.481717,1.385405 2.789841,2.937605 3.739342,4.741194 0,4.749855 0,9.499711 0,14.249751 z M 42.08429,91.56945 C 39.794196,88.996949 37.070398,87.003344 34.334425,85.001261 32.239693,83.468598 30.137212,81.930036 28.226218,80.12571 25.423833,77.480963 24.220123,73.933684 24.219939,70.113636 l 9.22e-4,0 0,-0.0037 0,-8.518114 c 2.11687,1.81391 4.317676,3.280961 6.552796,4.946323 l 9.22e-4,0 0.620948,0.462232 c 2.516446,1.872149 4.832366,3.595382 6.949421,5.57756 1.481716,1.385406 2.78984,2.937605 3.739342,4.741194 l 0,14.249752 z"
   class="fil4" />
</svg>