<?xml version="1.0" encoding="UTF-8" standalone="no"?>
<!-- Created with Inkscape (http://www.inkscape.org/) -->

<svg
   xmlns:dc="http://purl.org/dc/elements/1.1/"
   xmlns:cc="http://creativecommons.org/ns#"
   xmlns:rdf="http://www.w3.org/1999/02/22-rdf-syntax-ns#"
   xmlns:svg="http://www.w3.org/2000/svg"
   xmlns="http://www.w3.org/2000/svg"
   xmlns:xlink="http://www.w3.org/1999/xlink"
   version="1.1"
   width="681.24292"
   height="816.84216"
   viewBox="0 0 19226.189 23053.102"
   id="svg2"
   xml:space="preserve"
   style="fill-rule:evenodd"><metadata
   id="metadata382"><rdf:RDF><cc:Work
       rdf:about=""><dc:format>image/svg+xml</dc:format><dc:type
         rdf:resource="http://purl.org/dc/dcmitype/StillImage" /><dc:title></dc:title></cc:Work></rdf:RDF></metadata>
 <defs
   id="defs4">
  <style
   type="text/css"
   id="style6" />
  <linearGradient
   x1="2845.8501"
   y1="12158.4"
   x2="18953.4"
   y2="12158.4"
   id="id0"
   gradientUnits="userSpaceOnUse">
   <stop
   id="stop9"
   style="stop-color:#ffffff;stop-opacity:1"
   offset="0" />
   <stop
   id="stop11"
   style="stop-color:#f0f0f0;stop-opacity:1"
   offset="0.231373" />
   <stop
   id="stop13"
   style="stop-color:#e1e2e2;stop-opacity:1"
   offset="0.470588" />
   <stop
   id="stop15"
   style="stop-color:#fefefe;stop-opacity:1"
   offset="0.78823501" />
   <stop
   id="stop17"
   style="stop-color:#e1e2e2;stop-opacity:1"
   offset="1" />
  </linearGradient>
  <linearGradient
   x1="11557.1"
   y1="17085.699"
   x2="14455.9"
   y2="17085.699"
   id="id1"
   gradientUnits="userSpaceOnUse">
   <stop
   id="stop20"
   style="stop-color:#e1e2e2;stop-opacity:1"
   offset="0" />
   <stop
   id="stop22"
   style="stop-color:#e1e2e2;stop-opacity:1"
   offset="0.52156901" />
   <stop
   id="stop24"
   style="stop-color:#fefefe;stop-opacity:1"
   offset="0.92941201" />
   <stop
   id="stop26"
   style="stop-color:#fefefe;stop-opacity:1"
   offset="0.96078402" />
   <stop
   id="stop28"
   style="stop-color:#fefefe;stop-opacity:1"
   offset="1" />
  </linearGradient>
  <linearGradient
   x1="14472.6"
   y1="20072.9"
   x2="15607.7"
   y2="20072.9"
   id="id2"
   gradientUnits="userSpaceOnUse">
   <stop
   id="stop31"
   style="stop-color:#e1e2e2;stop-opacity:1"
   offset="0" />
   <stop
   id="stop33"
   style="stop-color:#e1e2e2;stop-opacity:1"
   offset="0.16078401" />
   <stop
   id="stop35"
   style="stop-color:#f0f0f0;stop-opacity:1"
   offset="0.30980399" />
   <stop
   id="stop37"
   style="stop-color:#fefefe;stop-opacity:1"
   offset="0.50980401" />
   <stop
   id="stop39"
   style="stop-color:#f0f0f0;stop-opacity:1"
   offset="0.709804" />
   <stop
   id="stop41"
   style="stop-color:#e1e2e2;stop-opacity:1"
   offset="0.81960797" />
   <stop
   id="stop43"
   style="stop-color:#e1e2e2;stop-opacity:1"
   offset="1" />
  </linearGradient>
  <linearGradient
   x1="13022"
   y1="4400.52"
   x2="13022"
   y2="11693.5"
   id="id3"
   gradientUnits="userSpaceOnUse">
   <stop
   id="stop46"
   style="stop-color:#fefefe;stop-opacity:1"
   offset="0" />
   <stop
   id="stop48"
   style="stop-color:#f0f0f0;stop-opacity:1"
   offset="0.34902" />
   <stop
   id="stop50"
   style="stop-color:#e1e2e2;stop-opacity:1"
   offset="0.69019598" />
   <stop
   id="stop52"
   style="stop-color:#f0f0f0;stop-opacity:1"
   offset="0.76862699" />
   <stop
   id="stop54"
   style="stop-color:#fefefe;stop-opacity:1"
   offset="0.98039198" />
   <stop
   id="stop56"
   style="stop-color:#fefefe;stop-opacity:1"
   offset="1" />
  </linearGradient>
  <linearGradient
   x1="9489.8896"
   y1="11923"
   x2="10504.1"
   y2="12508.5"
   id="id4"
   gradientUnits="userSpaceOnUse">
   <stop
   id="stop59"
   style="stop-color:#fdc400;stop-opacity:1"
   offset="0" />
   <stop
   id="stop61"
   style="stop-color:#fdc400;stop-opacity:1"
   offset="0.0117647" />
   <stop
   id="stop63"
   style="stop-color:#ffd900;stop-opacity:1"
   offset="0.30980399" />
   <stop
   id="stop65"
   style="stop-color:#ffed00;stop-opacity:1"
   offset="0.52156901" />
   <stop
   id="stop67"
   style="stop-color:#fdc400;stop-opacity:1"
   offset="1" />
  </linearGradient>
  <linearGradient
   x1="9629.5898"
   y1="12465.7"
   x2="11317.9"
   y2="13440.4"
   id="id5"
   xlink:href="#id4"
   gradientUnits="userSpaceOnUse">
  </linearGradient>
  <linearGradient
   x1="10790.4"
   y1="12313.1"
   x2="11718.5"
   y2="12849"
   id="id6"
   xlink:href="#id4"
   gradientUnits="userSpaceOnUse">
  </linearGradient>
  <linearGradient
   x1="10518.8"
   y1="12517.4"
   x2="10598.1"
   y2="12563.2"
   id="id7"
   xlink:href="#id4"
   gradientUnits="userSpaceOnUse">
  </linearGradient>
  <linearGradient
   x1="10527.5"
   y1="12425.5"
   x2="10632"
   y2="12485.8"
   id="id8"
   xlink:href="#id4"
   gradientUnits="userSpaceOnUse">
  </linearGradient>
  <linearGradient
   x1="10542.6"
   y1="12323.9"
   x2="10665.4"
   y2="12394.8"
   id="id9"
   xlink:href="#id4"
   gradientUnits="userSpaceOnUse">
  </linearGradient>
  <linearGradient
   x1="10559.7"
   y1="12197.9"
   x2="10708.2"
   y2="12283.6"
   id="id10"
   xlink:href="#id4"
   gradientUnits="userSpaceOnUse">
  </linearGradient>
  <linearGradient
   x1="10572.1"
   y1="11707.7"
   x2="10896.5"
   y2="11895"
   id="id11"
   xlink:href="#id4"
   gradientUnits="userSpaceOnUse">
  </linearGradient>
  <linearGradient
   x1="10584.8"
   y1="12040.6"
   x2="10758.4"
   y2="12140.8"
   id="id12"
   xlink:href="#id4"
   gradientUnits="userSpaceOnUse">
  </linearGradient>
  <linearGradient
   x1="9384.7998"
   y1="12207.3"
   x2="9527.2598"
   y2="12289.5"
   id="id13"
   xlink:href="#id4"
   gradientUnits="userSpaceOnUse">
  </linearGradient>
  <linearGradient
   x1="9387.5303"
   y1="12058.5"
   x2="9530.1201"
   y2="12140.9"
   id="id14"
   xlink:href="#id4"
   gradientUnits="userSpaceOnUse">
  </linearGradient>
  <linearGradient
   x1="9415"
   y1="12358.5"
   x2="9557.5303"
   y2="12440.8"
   id="id15"
   xlink:href="#id4"
   gradientUnits="userSpaceOnUse">
  </linearGradient>
  <linearGradient
   x1="9435.5996"
   y1="11921.2"
   x2="9578.1104"
   y2="12003.5"
   id="id16"
   xlink:href="#id4"
   gradientUnits="userSpaceOnUse">
  </linearGradient>
  <linearGradient
   x1="9465.5195"
   y1="12504.4"
   x2="9608.0596"
   y2="12586.7"
   id="id17"
   xlink:href="#id4"
   gradientUnits="userSpaceOnUse">
  </linearGradient>
  <linearGradient
   x1="9541.3604"
   y1="11812.4"
   x2="9683.8701"
   y2="11894.7"
   id="id18"
   xlink:href="#id4"
   gradientUnits="userSpaceOnUse">
  </linearGradient>
  <linearGradient
   x1="9682.7998"
   y1="11748.4"
   x2="9825.3096"
   y2="11830.7"
   id="id19"
   xlink:href="#id4"
   gradientUnits="userSpaceOnUse">
  </linearGradient>
  <linearGradient
   x1="9843.6904"
   y1="11744.9"
   x2="9986.21"
   y2="11827.2"
   id="id20"
   xlink:href="#id4"
   gradientUnits="userSpaceOnUse">
  </linearGradient>
  <linearGradient
   x1="9999.3496"
   y1="11776"
   x2="10141.8"
   y2="11858.2"
   id="id21"
   xlink:href="#id4"
   gradientUnits="userSpaceOnUse">
  </linearGradient>
  <linearGradient
   x1="10146.3"
   y1="11823.4"
   x2="10288.8"
   y2="11905.7"
   id="id22"
   xlink:href="#id4"
   gradientUnits="userSpaceOnUse">
  </linearGradient>
  <linearGradient
   x1="10283.7"
   y1="11877.7"
   x2="10426.2"
   y2="11960"
   id="id23"
   xlink:href="#id4"
   gradientUnits="userSpaceOnUse">
  </linearGradient>
  <linearGradient
   x1="10959.3"
   y1="12047.9"
   x2="11101.8"
   y2="12130.1"
   id="id24"
   xlink:href="#id4"
   gradientUnits="userSpaceOnUse">
  </linearGradient>
  <linearGradient
   x1="11106"
   y1="12065.1"
   x2="11248.6"
   y2="12147.4"
   id="id25"
   xlink:href="#id4"
   gradientUnits="userSpaceOnUse">
  </linearGradient>
  <linearGradient
   x1="11258"
   y1="12092.9"
   x2="11400.5"
   y2="12175.2"
   id="id26"
   xlink:href="#id4"
   gradientUnits="userSpaceOnUse">
  </linearGradient>
  <linearGradient
   x1="11383"
   y1="12987.3"
   x2="11525.5"
   y2="13069.6"
   id="id27"
   xlink:href="#id4"
   gradientUnits="userSpaceOnUse">
  </linearGradient>
  <linearGradient
   x1="11409.7"
   y1="12139.2"
   x2="11552.2"
   y2="12221.5"
   id="id28"
   xlink:href="#id4"
   gradientUnits="userSpaceOnUse">
  </linearGradient>
  <linearGradient
   x1="11496.6"
   y1="12882.7"
   x2="11639"
   y2="12965"
   id="id29"
   xlink:href="#id4"
   gradientUnits="userSpaceOnUse">
  </linearGradient>
  <linearGradient
   x1="11549.7"
   y1="12218.6"
   x2="11692.3"
   y2="12300.9"
   id="id30"
   xlink:href="#id4"
   gradientUnits="userSpaceOnUse">
  </linearGradient>
  <linearGradient
   x1="11594.9"
   y1="12763.8"
   x2="11737.4"
   y2="12846.1"
   id="id31"
   xlink:href="#id4"
   gradientUnits="userSpaceOnUse">
  </linearGradient>
  <linearGradient
   x1="11644.1"
   y1="12341.9"
   x2="11786.6"
   y2="12424.2"
   id="id32"
   xlink:href="#id4"
   gradientUnits="userSpaceOnUse">
  </linearGradient>
  <linearGradient
   x1="11662.8"
   y1="12631.5"
   x2="11805.4"
   y2="12713.9"
   id="id33"
   xlink:href="#id4"
   gradientUnits="userSpaceOnUse">
  </linearGradient>
  <linearGradient
   x1="11685.6"
   y1="12487.9"
   x2="11828.1"
   y2="12570.1"
   id="id34"
   xlink:href="#id4"
   gradientUnits="userSpaceOnUse">
  </linearGradient>
  <linearGradient
   x1="7107.2798"
   y1="5879.1001"
   x2="8652.4902"
   y2="5389.1499"
   id="id35"
   gradientUnits="userSpaceOnUse">
   <stop
   id="stop100"
   style="stop-color:#fefefe;stop-opacity:1"
   offset="0" />
   <stop
   id="stop102"
   style="stop-color:#f0f0f0;stop-opacity:1"
   offset="0.43921599" />
   <stop
   id="stop104"
   style="stop-color:#e1e2e2;stop-opacity:1"
   offset="0.870588" />
   <stop
   id="stop106"
   style="stop-color:#e1e2e2;stop-opacity:1"
   offset="1" />
  </linearGradient>
  <linearGradient
   x1="9642.6504"
   y1="13741.1"
   x2="11434.8"
   y2="14775.8"
   id="id36"
   xlink:href="#id4"
   gradientUnits="userSpaceOnUse">
  </linearGradient>
  <linearGradient
   x1="14820.4"
   y1="8822.4199"
   x2="9806.04"
   y2="5222.3599"
   id="id37"
   gradientUnits="userSpaceOnUse">
   <stop
   id="stop110"
   style="stop-color:#c6c7c7;stop-opacity:1"
   offset="0" />
   <stop
   id="stop112"
   style="stop-color:#e3e3e3;stop-opacity:1"
   offset="0.32941201" />
   <stop
   id="stop114"
   style="stop-color:#fefefe;stop-opacity:1"
   offset="0.65098" />
   <stop
   id="stop116"
   style="stop-color:#fefefe;stop-opacity:1"
   offset="1" />
  </linearGradient>
  <linearGradient
   x1="10429.9"
   y1="12083"
   x2="10984.6"
   y2="12403.3"
   id="id38"
   xlink:href="#id4"
   gradientUnits="userSpaceOnUse">
  </linearGradient>
  <linearGradient
   x1="2389.6599"
   y1="13339.3"
   x2="3154.6299"
   y2="13339.3"
   id="id39"
   xlink:href="#id2"
   gradientUnits="userSpaceOnUse">
  </linearGradient>
  <linearGradient
   x1="3757.3601"
   y1="15279.9"
   x2="3008.52"
   y2="15337.5"
   id="id40"
   xlink:href="#id2"
   gradientUnits="userSpaceOnUse">
  </linearGradient>
  <linearGradient
   x1="6690.1401"
   y1="6241.0601"
   x2="9255.0596"
   y2="10634.9"
   id="id41"
   gradientUnits="userSpaceOnUse">
   <stop
   id="stop122"
   style="stop-color:#fefefe;stop-opacity:1"
   offset="0" />
   <stop
   id="stop124"
   style="stop-color:#fefefe;stop-opacity:1"
   offset="0.109804" />
   <stop
   id="stop126"
   style="stop-color:#f0f0f0;stop-opacity:1"
   offset="0.239216" />
   <stop
   id="stop128"
   style="stop-color:#e1e2e2;stop-opacity:1"
   offset="0.470588" />
   <stop
   id="stop130"
   style="stop-color:#fefefe;stop-opacity:1"
   offset="0.92941201" />
   <stop
   id="stop132"
   style="stop-color:#fefefe;stop-opacity:1"
   offset="0.96078402" />
   <stop
   id="stop134"
   style="stop-color:#fefefe;stop-opacity:1"
   offset="1" />
  </linearGradient>
  <linearGradient
   x1="6450.0298"
   y1="5715.6401"
   x2="8152.7798"
   y2="8152.3301"
   id="id42"
   xlink:href="#id35"
   gradientUnits="userSpaceOnUse">
  </linearGradient>
  <linearGradient
   x1="10509.1"
   y1="12166.3"
   x2="10873.6"
   y2="12376.8"
   id="id43"
   xlink:href="#id4"
   gradientUnits="userSpaceOnUse">
  </linearGradient>
  <linearGradient
   x1="13735.9"
   y1="19936.801"
   x2="12982.7"
   y2="19802.9"
   id="id44"
   xlink:href="#id2"
   gradientUnits="userSpaceOnUse">
  </linearGradient>
  <linearGradient
   x1="5145.8301"
   y1="11940.8"
   x2="3147.6499"
   y2="11598.3"
   id="id45"
   xlink:href="#id1"
   gradientUnits="userSpaceOnUse">
  </linearGradient>
  <linearGradient
   x1="9661.8896"
   y1="6688.5498"
   x2="9915.9805"
   y2="9314.3203"
   id="id46"
   xlink:href="#id35"
   gradientUnits="userSpaceOnUse">
  </linearGradient>
 <linearGradient
   x1="7107.2798"
   y1="5879.1001"
   x2="8652.4902"
   y2="5389.1499"
   id="linearGradient3359"
   xlink:href="#id35"
   gradientUnits="userSpaceOnUse" /><linearGradient
   x1="11557.1"
   y1="17085.699"
   x2="14455.9"
   y2="17085.699"
   id="linearGradient3361"
   xlink:href="#id1"
   gradientUnits="userSpaceOnUse" /><linearGradient
   x1="14472.6"
   y1="20072.9"
   x2="15607.7"
   y2="20072.9"
   id="linearGradient3363"
   xlink:href="#id2"
   gradientUnits="userSpaceOnUse" /><linearGradient
   x1="9489.8896"
   y1="11923"
   x2="10504.1"
   y2="12508.5"
   id="linearGradient3365"
   xlink:href="#id4"
   gradientUnits="userSpaceOnUse" /></defs>
 <g
   transform="translate(-919.90514,-934.3238)"
   id="__x0023_Layer_x0020_1">
  <metadata
   id="CorelCorpID_0Corel-Layer" />
  <path
   d="m 20102,7610 0,-4633 c 0,0 -3767,-2038 -9569,-1998 -4,0 4,0 0,0 -4,0 4,0 0,0 C 4732,939 964,2977 964,2977 l 0,4633 c 0,0 1192,1045 1192,2453 0,1408 -1192,2453 -1192,2453 l 0,2316 c 47,6880 7184,6148 9569,9107 11,-15 -12,15 0,0 12,15 -11,-15 0,0 2385,-2959 9522,-2227 9569,-9107 l 0,-2316 c 0,0 -1192,-1045 -1192,-2453 0,-1408 1192,-2453 1192,-2453 z"
   id="path143"
   style="fill:#006cb5;stroke:#2b2a29;stroke-width:88.19000244" />
  <path
   d="m 10557,19088 c -3400,0 -6091,1205 -6412,1354 2241,1340 5086,1837 6427,3501 -6,-8 -3,-4 0,0 3,-4 6,-8 0,0 1312,-1628 4062,-2139 6278,-3414 45,-46 69,-72 69,-72 0,0 -2739,-1369 -6363,-1369 z"
   id="path145"
   style="fill:#009845;fill-rule:nonzero;stroke:#2b2a29;stroke-width:88.19000244" />
  <path
   d="m 8323,5196 c 3,-4 -2,3 0,0 24,-54 -346,-288 -330,-592 6,-113 -36,-101 -36,-101 -161,215 -292,501 -46,786 154,-58 288,-93 411,-92 z"
   id="path147"
   style="fill:#fefefe;fill-rule:nonzero;stroke:#363130;stroke-width:70.55999756" />
  <path
   d="m 8323,5196 c -123,0 -258,34 -411,92 -776,-119 -921,533 -838,796 4,6 10,11 16,16 24,-40 46,-75 68,-100 84,-95 358,-334 513,-310 128,20 149,23 322,6 44,-4 98,-10 167,-18 l 394,-113 c 79,-91 143,-113 215,-209 -153,-106 -292,-159 -446,-160 z"
   id="path149"
   style="fill:url(#linearGradient3359);fill-rule:nonzero;stroke:#363130;stroke-width:70.55999756" />
  <path
   d="m 8637,5721 c -4,-9 -79,-149 -83,-156 l -394,113 c -69,7 -123,13 -167,18 -173,18 -194,14 -322,-6 -155,-24 -430,215 -513,310 -22,25 -44,60 -68,100 -69,115 -155,273 -302,366 -19,12 -43,27 -70,44 -89,57 -257,165 -381,248 -209,139 -372,255 -409,292 -96,96 -374,521 -263,716 48,84 309,162 363,151 85,-18 340,-231 449,-246 66,-9 254,9 263,72 17,119 -183,85 -418,334 -41,43 -134,113 -48,167 96,60 296,43 415,31 2,0 -2,0 0,0 85,-18 311,-208 447,-333 60,-55 101,-96 105,-104 191,0 615,-148 615,-148 393,9 893,-123 1044,-520 148,-391 -50,-1020 -263,-1449 z"
   id="path151"
   style="fill:url(#id42);fill-rule:nonzero;stroke:#363130;stroke-width:70.55999756" />
  <path
   d="m 14752,4574 c -573,-296 -1262,-131 -1262,-131 0,0 722,-245 1110,-871 -66,-113 -723,-68 -865,-42 -1182,215 -3259,1838 -3199,2674 60,835 338,904 376,1898 30,788 -686,1504 -1021,1719 -7,4 -13,11 -18,18 25,131 25,295 15,502 0,9 -7,125 -8,134 -2,32 -4,65 -7,99 53,15 186,-16 202,-21 7,-2 122,-43 131,-47 0,0 0,0 0,0 529,-229 1245,-987 1415,-1796 143,-680 -119,-1611 -36,-1874 84,-263 193,-523 382,-716 843,-866 2549,-1466 2784,-1546 -1,-1 1,1 0,0 z"
   id="path153"
   style="fill:url(#id37);fill-rule:nonzero;stroke:#363130;stroke-width:70.55999756" />
  <path
   d="m 10607,8137 c -208,-173 -601,-296 -625,-304 21,6 338,96 554,-215 -412,-161 -743,-510 -743,-510 0,0 340,233 654,36 -269,-349 -546,-528 -546,-528 0,0 170,-18 251,36 -45,-474 -618,-707 -618,-707 0,0 188,-9 278,9 -116,-304 -698,-519 -698,-519 l -8,-3 c -64,118 -134,192 -133,235 24,728 609,1158 764,2077 155,919 -346,1480 -358,1814 0,0 -43,346 88,561 0,0 185,230 408,455 6,-84 11,-161 14,-234 10,-206 9,-370 -15,-501 -32,-173 -106,-289 -251,-367 9,-36 251,72 510,-125 -331,-304 -466,-564 -466,-564 0,0 278,510 779,0 -134,-161 -501,-412 -501,-412 0,0 358,224 662,-233 z"
   id="path155"
   style="fill:url(#id46);fill-rule:nonzero;stroke:#363130;stroke-width:70.55999756" />
  <path
   d="m 16170,4448 c -704,-48 -1418,125 -1418,125 0,0 18,-6 0,0 -235,80 -1940,680 -2784,1546 -188,193 -298,454 -382,716 -84,263 179,1194 36,1874 -170,809 -886,1567 -1415,1796 -124,54 -238,78 -333,67 115,115 239,228 355,307 7,5 13,9 20,14 9,23 4,130 -3,230 203,57 531,388 743,474 203,84 465,95 501,36 32,-53 88,-273 -135,-528 -17,-19 -35,-39 -56,-59 15,16 -17,-14 0,0 -9,-9 -1,-1 3,2 55,43 122,69 192,95 437,161 771,0 771,0 0,0 107,-310 -227,-585 537,298 1015,-95 1015,-95 0,0 48,-310 -621,-645 895,298 1241,-418 1158,-597 72,12 788,48 1110,-657 -382,-119 -1325,-227 -1611,-215 51,-90 1707,60 2077,-668 -215,-239 -967,-287 -967,-287 0,0 991,0 1289,-692 -167,-131 -883,-227 -883,-227 0,0 907,-24 1194,-716 -394,-179 -1253,-203 -1253,-203 0,0 1265,-155 1623,-1110 z"
   id="path157"
   style="fill:url(#id3);fill-rule:nonzero;stroke:#363130;stroke-width:70.55999756" />
  <path
   d="m 5738,11042 c -475,-103 -565,-255 -968,-497 -403,-242 -779,-89 -868,107 -90,197 -304,555 -967,1155 -594,538 -584,944 -576,1140 1,23 2,42 2,57 197,233 745,-221 750,-286 -18,-54 -42,-195 21,-266 63,-72 191,-30 269,-98 152,-134 448,-779 761,-949 92,-50 260,-107 421,0 161,107 850,1092 1298,1173 72,-186 -139,-992 -142,-1535 z"
   id="path159"
   style="fill:url(#id45);fill-rule:nonzero;stroke:#363130;stroke-width:70.55999756" />
  <path
   d="m 14403,18724 c 53,-158 -382,-1194 -239,-1647 125,-395 69,-654 52,-714 -60,-47 -123,-91 -189,-133 -528,-161 -1719,-430 -1934,-1558 -69,26 -221,81 -536,57 23,247 84,450 145,601 65,96 122,193 159,279 215,513 676,476 1086,859 549,513 883,1337 573,2184 -86,236 -467,565 -443,791 239,-60 777,56 777,56 0,0 -19,-54 -22,-128 -5,-126 38,-310 309,-385 84,-48 215,-119 263,-263 z"
   id="path161"
   style="fill:url(#linearGradient3361);fill-rule:nonzero;stroke:#363130;stroke-width:70.55999756" />
  <path
   d="m 18208,13374 c -850,-197 -940,501 -1065,555 -115,49 -154,-69 -161,-134 -45,-412 93,-738 680,-1325 734,-734 45,-1419 -304,-1535 -162,-54 -262,-519 -1101,-452 -1012,81 -904,1065 -904,1182 0,116 -81,492 -448,600 -427,125 -680,-480 -1307,-752 -516,-223 -1021,-305 -1343,-81 -63,-9 -859,-304 -859,-304 l -39,-20 c 223,254 166,475 135,528 -36,60 -269,60 -501,-36 -211,-87 -539,-418 -743,-474 7,-100 12,-207 3,-230 -121,-80 -254,-200 -375,-321 -224,-224 -408,-455 -408,-455 -131,-215 -88,-561 -88,-561 12,-334 513,-895 358,-1814 -155,-919 -740,-1349 -764,-2077 -1,-44 69,-118 133,-235 92,-169 172,-428 11,-815 -358,191 -275,645 -346,740 -72,96 -136,118 -215,209 4,8 79,147 83,156 213,429 411,1058 263,1449 -150,398 -651,530 -1044,520 -108,272 -551,636 -830,984 -214,267 -418,525 -477,1038 -84,143 -158,251 -203,304 -340,242 -480,456 -564,698 -32,93 -45,191 -44,327 4,544 214,1349 142,1535 -233,-27 -734,-134 -806,-179 -72,-45 -224,-179 -304,-179 -81,0 -269,-36 -367,54 -98,90 -403,833 -779,1289 -376,457 -358,412 -519,573 -260,295 -232,892 -179,913 242,99 667,-302 680,-421 9,-81 65,-188 116,-197 54,-9 152,-15 260,-98 92,-72 251,-707 680,-1182 27,81 1012,636 1987,627 322,152 752,233 859,206 140,-35 151,-175 151,-175 0,0 616,589 1574,679 558,52 1417,135 2059,214 79,10 156,18 227,25 341,32 501,-27 573,-54 215,1128 1405,1397 1934,1558 66,42 129,86 189,133 521,403 833,961 921,1210 98,278 125,722 54,1110 -71,387 -511,697 -475,1019 510,-189 761,-9 826,-12 6,0 10,-2 13,-5 36,-42 -96,-286 57,-439 152,-152 307,-33 412,-322 27,-331 -295,-788 -331,-1710 -6,-143 179,-492 54,-716 -125,-224 -1092,-859 -985,-1200 107,-340 277,-483 322,-1182 45,-698 -249,-904 -197,-1164 18,-89 63,-125 143,-143 743,54 895,-582 895,-582 0,0 -72,591 394,457 -1173,904 -680,2381 197,2471 877,90 1047,-546 1271,-591 188,-38 403,251 340,555 663,-358 826,-1573 81,-1746 z"
   id="path163"
   style="fill:url(#id0);fill-rule:nonzero;stroke:#363130;stroke-width:70.55999756" />
  <g
   id="_332632288">
   <path
   d="m 7857,7690 c -9,-3 3,1 0,0 5,2 0,0 0,0 z"
   id="path166"
   style="fill:none" />
   <path
   d="m 7857,7690 c -9,-3 3,1 0,0 5,2 0,0 0,0 z"
   id="path168"
   style="fill:none;stroke:#363130;stroke-width:35.27999878" />
  </g>
  <path
   d="m 7857,7690 c -3,-1 -4,-1 0,0 z"
   id="path170"
   style="fill:#ffffff;fill-rule:nonzero;stroke:#363130;stroke-width:70.55999756;stroke-linejoin:round" />
  <path
   d="m 8596,5640 c 0,0 0,0 0,-1 0,0 0,0 0,1"
   id="path172"
   style="fill:none;stroke:#363130;stroke-width:70.55999756;stroke-linejoin:round" />
  <path
   d="m 7857,7690 c 17,-3 -19,3 0,0 z"
   id="path174"
   style="fill:#ffffff;fill-rule:nonzero;stroke:#363130;stroke-width:70.55999756;stroke-linejoin:round" />
  <path
   d="m 8637,5721 c -14,-28 -28,-55 -41,-81 14,26 28,53 41,81"
   id="path176"
   style="fill:none;stroke:#363130;stroke-width:70.55999756;stroke-linejoin:round" />
  <path
   d="m 8595,5639 c -14,-26 -27,-51 -41,-75 14,24 27,49 41,75"
   id="path178"
   style="fill:none;stroke:#363130;stroke-width:70.55999756;stroke-linejoin:round" />
  <g
   id="_332632648">
   <path
   d="m 8624,5695 c 4,9 9,17 13,26 -3,-6 -8,-15 -13,-26 z"
   id="path181"
   style="fill:none" />
   <path
   d="m 8624,5695 c 4,9 9,17 13,26 -3,-6 -8,-15 -13,-26 z"
   id="path183"
   style="fill:none;stroke:#363130;stroke-width:35.27999878" />
  </g>
  <g
   id="_332632816">
   <path
   d="m 8554,5564 c 4,8 9,16 13,24 -6,-10 -11,-19 -13,-24 z"
   id="path186"
   style="fill:none" />
   <path
   d="m 8554,5564 c 4,8 9,16 13,24 -6,-10 -11,-19 -13,-24 z"
   id="path188"
   style="fill:none;stroke:#363130;stroke-width:35.27999878" />
  </g>
  <path
   d="m 7778,5427 c -6,-48 133,-139 133,-139"
   id="path190"
   style="fill:none;stroke:#363130;stroke-width:70.55999756;stroke-linejoin:round" />
  <path
   d="m 7993,5695 c 44,-4 98,-10 167,-18 -69,7 -123,13 -167,18"
   id="path192"
   style="fill:none;stroke:#363130;stroke-width:70.55999756;stroke-linejoin:round" />
  <g
   id="_332633128">
   <path
   d="m 9466,10118 c -40,-35 -74,-64 -114,-95 l 114,95 z"
   id="path195"
   style="fill:none" />
   <path
   d="m 9466,10118 c -40,-35 -74,-64 -114,-95 l 114,95 z"
   id="path197"
   style="fill:none;stroke:#363130;stroke-width:35.27999878" />
  </g>
  <g
   id="_332633296">
   <path
   d="m 7857,7690 c 0,0 629,-144 525,-795 -212,119 -1122,656 -1122,656 0,0 108,403 -269,854 -322,385 -520,537 -627,656 -278,310 9,642 185,650 60,-513 263,-771 477,-1038 279,-348 722,-712 830,-984 z"
   id="path200"
   style="fill:none" />
   <path
   d="m 7857,7690 c 0,0 629,-144 525,-795 -212,119 -1122,656 -1122,656 0,0 108,403 -269,854 -322,385 -520,537 -627,656 -278,310 9,642 185,650 60,-513 263,-771 477,-1038 279,-348 722,-712 830,-984 z"
   id="path202"
   style="fill:none;stroke:#363130;stroke-width:35.27999878" />
  </g>
  <path
   d="m 6337,6758 c 6,-8 -6,8 0,0"
   id="path204"
   style="fill:none;stroke:#363130;stroke-width:70.55999756;stroke-linejoin:round" />
  <path
   d="m 8554,5564 c 3,5 80,151 83,156 -4,-9 -79,-149 -83,-156"
   id="path206"
   style="fill:none;stroke:#363130;stroke-width:70.55999756;stroke-linejoin:round" />
  <path
   d="m 9982,7833 c -1,0 -1,0 -1,0 0,0 0,0 1,0"
   id="path208"
   style="fill:none;stroke:#363130;stroke-width:70.55999756;stroke-linejoin:round" />
  <path
   d="m 7264,6395 c 269,107 537,-58 537,-58"
   id="path210"
   style="fill:none;stroke:#363130;stroke-width:56.43999863;stroke-linejoin:round" />
  <path
   d="m 6113,7385 -116,143 c 125,-112 94,-224 148,-251 54,-27 107,-18 103,36 -11,135 -134,72 -134,72 z"
   id="path212"
   style="fill:#363130;fill-rule:nonzero" />
  <path
   d="m 5997,7528 c 125,-112 94,-224 148,-251 54,-27 107,-18 103,36 -11,135 -134,72 -134,72"
   id="path214"
   style="fill:none;stroke:#363130;stroke-width:56.43999863;stroke-linejoin:round" />
  <path
   d="m 7367,6422 c 0,0 -98,-161 0,-197 98,-36 322,118 331,143 -69,61 -331,54 -331,54 z"
   id="path216"
   style="fill:#363130;fill-rule:nonzero;stroke:#363130;stroke-width:56.43999863;stroke-linejoin:round" />
  <path
   d="m 11300,11047 c -15,-15 17,15 0,0 15,16 -17,-14 0,0"
   id="path218"
   style="fill:none;stroke:#363130;stroke-width:70.55999756;stroke-linejoin:round" />
  <g
   id="_332634160">
   <path
   d="m 11300,11047 c -15,-15 17,15 0,0 15,16 -17,-14 0,0 z"
   id="path221"
   style="fill:none" />
   <path
   d="m 11300,11047 c -15,-15 17,15 0,0 15,16 -17,-14 0,0 z"
   id="path223"
   style="fill:none;stroke:#363130;stroke-width:35.27999878" />
  </g>
  <path
   d="m 11300,11047 c 1,1 2,2 3,2 -4,-4 -13,-11 -3,-2"
   id="path225"
   style="fill:none;stroke:#363130;stroke-width:70.55999756;stroke-linejoin:round" />
  <path
   d="m 11303,11050 c -1,-1 -2,-2 -3,-2 7,6 6,5 3,2"
   id="path227"
   style="fill:none;stroke:#363130;stroke-width:70.55999756;stroke-linejoin:round" />
  <path
   d="m 11300,11047 c -17,-14 15,16 0,0"
   id="path229"
   style="fill:none;stroke:#363130;stroke-width:70.55999756;stroke-linejoin:round" />
  <path
   d="m 11729,13603 c 275,12 275,835 364,1068"
   id="path231"
   style="fill:none;stroke:#363130;stroke-width:70.55999756;stroke-linejoin:round" />
  <path
   d="m 11300,11047 c -17,-14 15,16 0,0"
   id="path233"
   style="fill:none;stroke:#363130;stroke-width:70.55999756;stroke-linejoin:round" />
  <path
   d="m 10249,10894 c -140,-93 -270,-216 -375,-321 -224,-224 -408,-455 -408,-455 l -114,-95 C 8284,9208 7090,9724 6550,9712 c -176,-9 -346,-274 -149,-615 105,-182 277,-318 591,-692 377,-450 269,-854 269,-854 0,0 910,-537 1122,-656 104,651 -525,795 -525,795 393,9 893,-123 1044,-520 148,-391 -50,-1020 -263,-1449 -3,-6 -80,-151 -83,-156 l -394,113 c -69,7 -123,13 -167,18 -16,106 273,397 275,764 -48,125 -1146,719 -1179,697 -33,-22 -270,-492 -371,-646 -1,-1 -1,-2 -2,-3 -175,70 -311,167 -379,251 152,331 495,659 552,925 57,266 -199,592 -199,592 -71,71 -406,435 -624,811 -379,654 66,994 388,961 152,-16 1459,-175 1826,-128 367,46 707,289 752,337 31,33 486,480 770,756 124,121 217,174 226,181 33,24 203,119 203,119 0,0 9,-91 15,-188 7,-100 12,-207 3,-230 z"
   id="path235"
   style="fill:url(#id41);fill-rule:nonzero;stroke:#363130;stroke-width:70.55999756;stroke-linejoin:round" />
  <path
   d="m 5881,12577 c 0,0 653,54 770,-331"
   id="path237"
   style="fill:none;stroke:#363130;stroke-width:70.55999756;stroke-linejoin:round" />
  <path
   d="m 11861,15632 c 0,0 -80,-108 -158,-303 -61,-151 -122,-355 -145,-601 -32,-341 9,-764 220,-1244 525,-1194 298,-1910 -251,-2304 -10,-13 -21,-24 -31,-36 -71,-22 -137,-52 -192,-95 -4,-4 -13,-11 -3,-2 21,20 39,39 56,59 182,200 153,450 135,528 -78,24 -275,60 -501,-36 -210,-89 -539,-418 -743,-474 -7,97 -15,188 -15,188 0,0 -170,-95 -203,-119 -10,-7 -102,-60 -226,-181 -2,1 -4,1 -6,2 -794,658 -877,2446 -585,3390 74,241 546,1405 274,1969 292,-66 322,-179 346,-263 66,-227 -12,-478 -12,-501 0,-24 -6,-119 60,-107 136,25 66,382 72,537 6,155 167,310 191,310 224,-370 -18,-812 137,-794 72,8 -54,609 197,782 233,-310 36,-782 131,-764 95,18 -6,567 239,788 245,-173 54,-716 131,-704 155,30 -36,573 227,728 227,-155 66,-621 131,-621 155,0 -60,549 263,668 215,48 18,-639 143,-621 125,18 -83,537 454,752 167,-72 -334,-931 -334,-931 z"
   id="path239"
   style="fill:#e32e2d;fill-rule:nonzero;stroke:#363130;stroke-width:70.55999756;stroke-linejoin:round" />
  <path
   d="m 3698,14768 c -50,-76 -91,-141 -91,-141 -13,119 -439,519 -680,421 30,155 54,597 36,841 101,101 842,-304 877,-913 -35,-47 -93,-133 -141,-208 z"
   id="path241"
   style="fill:url(#id40);fill-rule:nonzero;stroke:#363130;stroke-width:70.55999756;stroke-linejoin:round" />
  <path
   d="m 2362,13003 c 0,158 -43,602 -106,839 81,119 884,-140 1034,-731 -52,-107 -178,-393 -178,-393 -5,64 -553,518 -750,286 z"
   id="path243"
   style="fill:url(#id39);fill-rule:nonzero;stroke:#363130;stroke-width:70.55999756;stroke-linejoin:round" />
  <path
   d="m 13077,19444 c -34,154 -188,561 -301,779 53,133 893,53 1167,-492 -22,-89 -89,-231 -89,-231 0,0 -538,-116 -777,-56 z"
   id="path245"
   style="fill:url(#id44);fill-rule:nonzero;stroke:#363130;stroke-width:70.55999756;stroke-linejoin:round" />
  <path
   d="m 14716,19701 c -25,156 -143,578 -243,802 61,130 895,-1 1135,-561 -30,-97 -35,-116 -66,-253 -65,2 -316,-178 -826,12 z"
   id="path247"
   style="fill:url(#linearGradient3363);fill-rule:nonzero;stroke:#363130;stroke-width:70.55999756;stroke-linejoin:round" />
  <g
   id="_332634688">
   <path
   d="m 9282,7331 c 161,483 197,1638 -457,2390"
   id="path250"
   style="fill:none;stroke:#363130;stroke-width:56.43999863;stroke-linejoin:round" />
   <path
   d="m 9041,6051 c 206,367 451,301 555,466"
   id="path252"
   style="fill:none;stroke:#363130;stroke-width:56.43999863;stroke-linejoin:round" />
   <path
   d="m 11347,5725 c 668,-776 2143,-1283 2143,-1283"
   id="path254"
   style="fill:none;stroke:#363130;stroke-width:59.97000122;stroke-linejoin:round" />
   <path
   d="m 14546,5558 c -454,60 -1981,573 -2244,1003 -263,430 489,967 -95,2483"
   id="path256"
   style="fill:none;stroke:#363130;stroke-width:59.97000122;stroke-linejoin:round" />
   <path
   d="m 14606,6477 c -1886,72 -2244,776 -2244,776"
   id="path258"
   style="fill:none;stroke:#363130;stroke-width:59.97000122;stroke-linejoin:round" />
   <path
   d="m 12445,7934 c 0,0 549,-549 1755,-537"
   id="path260"
   style="fill:none;stroke:#363130;stroke-width:59.97000122;stroke-linejoin:round" />
   <path
   d="m 12338,8626 c 394,-251 752,-275 752,-275"
   id="path262"
   style="fill:none;stroke:#363130;stroke-width:59.97000122;stroke-linejoin:round" />
   <path
   d="m 12720,9068 c 334,167 871,155 871,155"
   id="path264"
   style="fill:none;stroke:#363130;stroke-width:59.97000122;stroke-linejoin:round" />
   <path
   d="m 12171,9378 c -107,370 263,442 263,442"
   id="path266"
   style="fill:none;stroke:#363130;stroke-width:59.97000122;stroke-linejoin:round" />
   <line
   class="fil11 str5"
   x1="11741"
   y1="10393"
   x2="12040"
   y2="10560"
   id="line268"
   style="fill:none;stroke:#363130;stroke-width:59.97000122;stroke-linejoin:round" />
   <line
   class="fil11 str5"
   x1="11037"
   y1="10882"
   x2="11300"
   y2="11047"
   id="line270"
   style="fill:none;stroke:#363130;stroke-width:59.97000122;stroke-linejoin:round" />
   <path
   d="m 16659,10921 c 152,-81 439,-112 698,13"
   id="path272"
   style="fill:none;stroke:#363130;stroke-width:59.97000122;stroke-linejoin:round" />
   <path
   d="m 17026,12147 c -537,-483 -1030,-197 -1101,98"
   id="path274"
   style="fill:none;stroke:#363130;stroke-width:59.97000122;stroke-linejoin:round" />
   <path
   d="m 16749,12505 c -224,9 -430,179 -430,179"
   id="path276"
   style="fill:none;stroke:#363130;stroke-width:59.97000122;stroke-linejoin:round" />
   <path
   d="m 14600,15459 c 143,-99 161,-161 161,-161"
   id="path278"
   style="fill:none;stroke:#363130;stroke-width:56.43999863;stroke-linejoin:round" />
   <path
   d="m 12708,11896 c -812,155 -72,1038 -382,1492"
   id="path280"
   style="fill:none;stroke:#363130;stroke-width:56.43999863;stroke-linejoin:round" />
   <path
   d="m 8363,12374 c 12,310 -406,645 -418,740 -25,202 -285,694 -285,694"
   id="path282"
   style="fill:none;stroke:#363130;stroke-width:59.97000122;stroke-linejoin:round" />
   <path
   d="m 8542,13305 c -537,537 -824,406 -824,406"
   id="path284"
   style="fill:none;stroke:#363130;stroke-width:56.43999863;stroke-linejoin:round" />
   <path
   d="m 4860,13060 c -90,-9 -197,90 -197,90"
   id="path286"
   style="fill:none;stroke:#363130;stroke-width:56.43999863;stroke-linejoin:round" />
   <path
   d="m 6659,11144 c -591,412 -295,1361 -295,1361"
   id="path288"
   style="fill:none;stroke:#363130;stroke-width:56.43999863;stroke-linejoin:round" />
   <path
   d="m 7510,9936 c 0,0 -358,134 -421,322"
   id="path290"
   style="fill:none;stroke:#363130;stroke-width:56.43999863;stroke-linejoin:round" />
  </g>
  <g
   id="_333228056">
   <path
   d="m 10673,12101 c -45,-10 -202,-61 -202,-61 0,0 105,170 31,622 13,1 27,3 41,6 15,3 28,8 41,13 130,-439 298,-547 298,-547 0,0 -165,-22 -209,-33 z"
   id="path293"
   style="fill:none" />
   <path
   d="m 10673,12101 c -45,-10 -202,-61 -202,-61 0,0 105,170 31,622 13,1 27,3 41,6 15,3 28,8 41,13 130,-439 298,-547 298,-547 0,0 -165,-22 -209,-33 z"
   id="path295"
   style="fill:none;stroke:#363130;stroke-width:35.27999878" />
  </g>
  <path
   d="m 7552,6276 c 0,14 -14,25 -31,25 -17,0 -31,-11 -31,-25 0,-14 14,-25 31,-25 17,0 31,11 31,25 z"
   id="path297"
   style="fill:#fefefe;fill-rule:nonzero" />
  <path
   d="m 10886,14926 c 174,-67 539,-852 56,-1285 -483,-433 -1286,-311 -1286,-311 l -5,267 c 0,0 195,-31 245,99 66,174 100,950 51,994 -49,44 -224,27 -224,27 l -15,372 1500,221 1,-319 c 0,0 -239,-18 -323,-65 z m -666,-139 0,0 c 0,-36 19,-324 17,-350 24,11 75,18 110,-2 123,136 264,262 305,298 -87,145 -342,140 -432,54 z m 17,-599 0,0 c -5,-72 10,-447 10,-447 0,0 332,-58 365,160 23,154 -282,280 -374,287 z m 549,391 0,0 c -48,-107 -220,-240 -220,-240 0,0 158,-88 247,-290 144,152 89,429 -27,530 z"
   id="path299"
   style="fill:url(#id36);fill-rule:nonzero;stroke:#363130;stroke-width:56.43999863;stroke-linejoin:round" />
  <g
   id="_333228536">
   <g
   id="g302">
    <path
   d="m 10293,11903 c 9,-35 44,-57 78,-49 34,9 55,44 46,80 -9,35 -44,57 -78,49 -34,-9 -55,-44 -46,-80 z"
   id="path304"
   style="fill:url(#id23);fill-rule:nonzero;stroke:#2b2a29;stroke-width:24.69000053;stroke-linejoin:round" />
    <path
   d="m 10155,11849 c 9,-36 44,-57 78,-49 34,9 55,44 46,80 -9,36 -44,57 -78,49 -34,-9 -55,-44 -46,-80 z"
   id="path306"
   style="fill:url(#id22);fill-rule:nonzero;stroke:#2b2a29;stroke-width:24.69000053;stroke-linejoin:round" />
    <path
   d="m 10008,11801 c 9,-35 44,-57 78,-49 34,9 55,44 46,80 -9,36 -44,57 -78,49 -34,-9 -55,-44 -46,-80 z"
   id="path308"
   style="fill:url(#id21);fill-rule:nonzero;stroke:#2b2a29;stroke-width:24.69000053;stroke-linejoin:round" />
    <path
   d="m 9853,11770 c 9,-35 44,-57 78,-49 34,9 55,44 46,80 -9,36 -44,57 -78,49 -34,-9 -55,-44 -46,-80 z"
   id="path310"
   style="fill:url(#id20);fill-rule:nonzero;stroke:#2b2a29;stroke-width:24.69000053;stroke-linejoin:round" />
    <path
   d="m 9692,11774 c 9,-36 44,-57 78,-49 34,9 55,44 46,80 -9,35 -44,57 -78,49 -34,-9 -55,-44 -46,-80 z"
   id="path312"
   style="fill:url(#id19);fill-rule:nonzero;stroke:#2b2a29;stroke-width:24.69000053;stroke-linejoin:round" />
    <path
   d="m 9551,11838 c 9,-36 44,-57 78,-49 34,9 55,44 46,80 -9,35 -44,57 -78,49 -34,-9 -55,-44 -46,-80 z"
   id="path314"
   style="fill:url(#id18);fill-rule:nonzero;stroke:#2b2a29;stroke-width:24.69000053;stroke-linejoin:round" />
    <path
   d="m 9445,11947 c 9,-35 44,-57 78,-49 34,9 55,44 46,80 -9,35 -44,57 -78,49 -34,-9 -55,-44 -46,-80 z"
   id="path316"
   style="fill:url(#id16);fill-rule:nonzero;stroke:#2b2a29;stroke-width:24.69000053;stroke-linejoin:round" />
    <path
   d="m 9397,12084 c 9,-36 44,-57 78,-49 34,9 55,44 46,80 -9,36 -44,57 -78,49 -34,-9 -55,-44 -46,-80 z"
   id="path318"
   style="fill:url(#id14);fill-rule:nonzero;stroke:#2b2a29;stroke-width:24.69000053;stroke-linejoin:round" />
    <path
   d="m 9394,12233 c 9,-35 44,-57 78,-49 34,9 55,44 46,80 -9,35 -44,57 -78,49 -34,-9 -55,-45 -46,-80 z"
   id="path320"
   style="fill:url(#id13);fill-rule:nonzero;stroke:#2b2a29;stroke-width:24.69000053;stroke-linejoin:round" />
    <path
   d="m 9424,12384 c 9,-35 44,-57 78,-49 34,9 55,44 46,80 -9,35 -44,57 -78,49 -34,-9 -55,-44 -46,-80 z"
   id="path322"
   style="fill:url(#id15);fill-rule:nonzero;stroke:#2b2a29;stroke-width:24.69000053;stroke-linejoin:round" />
    <path
   d="m 9475,12530 c 9,-35 44,-57 78,-49 34,9 55,44 46,80 -9,35 -44,57 -78,48 -34,-9 -55,-44 -46,-80 z"
   id="path324"
   style="fill:url(#id17);fill-rule:nonzero;stroke:#2b2a29;stroke-width:24.69000053;stroke-linejoin:round" />
   </g>
   <g
   id="g326">
    <path
   d="m 11093,12105 c 9,-35 -12,-71 -46,-80 -34,-9 -69,13 -78,49 -9,35 12,71 46,80 34,9 69,-13 78,-49 z"
   id="path328"
   style="fill:url(#id24);fill-rule:nonzero;stroke:#2b2a29;stroke-width:24.69000053;stroke-linejoin:round" />
    <path
   d="m 11239,12122 c 9,-36 -12,-71 -46,-80 -34,-9 -69,13 -78,49 -9,36 12,71 46,80 34,9 69,-13 78,-49 z"
   id="path330"
   style="fill:url(#id25);fill-rule:nonzero;stroke:#2b2a29;stroke-width:24.69000053;stroke-linejoin:round" />
    <path
   d="m 11391,12150 c 9,-36 -12,-71 -46,-80 -34,-9 -69,13 -78,49 -9,35 12,71 46,80 34,9 70,-13 78,-49 z"
   id="path332"
   style="fill:url(#id26);fill-rule:nonzero;stroke:#2b2a29;stroke-width:24.69000053;stroke-linejoin:round" />
    <path
   d="m 11543,12196 c 9,-35 -12,-71 -46,-80 -34,-9 -69,13 -78,49 -9,35 12,71 46,80 34,9 69,-13 78,-49 z"
   id="path334"
   style="fill:url(#id28);fill-rule:nonzero;stroke:#2b2a29;stroke-width:24.69000053;stroke-linejoin:round" />
    <path
   d="m 11683,12275 c 9,-35 -11,-71 -46,-80 -34,-9 -69,13 -78,49 -9,35 12,71 46,80 34,9 69,-13 78,-49 z"
   id="path336"
   style="fill:url(#id30);fill-rule:nonzero;stroke:#2b2a29;stroke-width:24.69000053;stroke-linejoin:round" />
    <path
   d="m 11777,12399 c 9,-35 -12,-71 -46,-80 -34,-9 -69,13 -78,49 -9,35 11,71 46,80 34,9 69,-13 78,-49 z"
   id="path338"
   style="fill:url(#id32);fill-rule:nonzero;stroke:#2b2a29;stroke-width:24.69000053;stroke-linejoin:round" />
    <path
   d="m 11819,12545 c 9,-35 -12,-71 -46,-80 -34,-9 -69,13 -78,49 -9,36 12,71 46,80 34,9 69,-13 78,-49 z"
   id="path340"
   style="fill:url(#id34);fill-rule:nonzero;stroke:#2b2a29;stroke-width:24.69000053;stroke-linejoin:round" />
    <path
   d="m 11796,12688 c 9,-35 -12,-71 -46,-80 -34,-9 -70,13 -78,49 -9,36 12,71 46,80 34,9 69,-13 78,-49 z"
   id="path342"
   style="fill:url(#id33);fill-rule:nonzero;stroke:#2b2a29;stroke-width:24.69000053;stroke-linejoin:round" />
    <path
   d="m 11728,12821 c 9,-35 -12,-71 -46,-80 -34,-9 -69,13 -78,49 -9,35 12,71 46,80 34,9 69,-13 78,-49 z"
   id="path344"
   style="fill:url(#id31);fill-rule:nonzero;stroke:#2b2a29;stroke-width:24.69000053;stroke-linejoin:round" />
    <path
   d="m 11630,12940 c 9,-36 -12,-71 -46,-80 -34,-9 -69,13 -78,49 -9,35 12,71 46,80 34,9 69,-13 78,-49 z"
   id="path346"
   style="fill:url(#id29);fill-rule:nonzero;stroke:#2b2a29;stroke-width:24.69000053;stroke-linejoin:round" />
    <path
   d="m 11516,13044 c 9,-35 -12,-71 -46,-80 -34,-9 -69,13 -78,49 -9,36 12,71 46,80 34,9 69,-13 78,-49 z"
   id="path348"
   style="fill:url(#id27);fill-rule:nonzero;stroke:#2b2a29;stroke-width:24.69000053;stroke-linejoin:round" />
   </g>
   <path
   d="m 10702,11965 c -88,-22 -268,-91 -268,-91 1,1 31,67 51,186 0,0 0,0 0,0 3,19 6,40 9,62 1,7 1,14 2,21 12,114 12,260 -19,435 9,0 17,1 26,2 14,2 27,4 42,7 15,4 29,9 42,14 8,3 16,7 24,11 55,-168 124,-296 187,-390 17,-25 33,-48 49,-68 75,-97 134,-141 135,-142 0,0 -191,-25 -279,-47 z"
   id="path350"
   style="fill:url(#id38);fill-rule:nonzero;stroke:#2b2a29;stroke-width:24.69000053;stroke-linejoin:round" />
   <path
   d="m 9693,12549 c -10,-23 -121,-280 -79,-454 45,-183 276,-161 278,-161 176,9 503,156 603,209 -1,-7 -1,-14 -2,-21 -3,-22 -6,-43 -9,-62 0,0 0,0 0,0 -120,-63 -426,-188 -603,-197 -77,-4 -283,21 -333,208 -50,186 67,461 86,501 10,-8 20,-14 32,-18 9,-3 18,-5 27,-5 z"
   id="path352"
   style="fill:url(#linearGradient3365);fill-rule:nonzero;stroke:#2b2a29;stroke-width:24.69000053;stroke-linejoin:round" />
   <path
   d="m 11472,12267 c -161,-76 -491,-111 -626,-112 -16,20 -32,43 -49,68 112,1 471,27 631,102 2,1 217,91 169,274 -44,168 -252,337 -282,361 18,12 31,29 40,49 37,-28 268,-213 312,-400 45,-189 -125,-308 -195,-341 z"
   id="path354"
   style="fill:url(#id6);fill-rule:nonzero;stroke:#2b2a29;stroke-width:24.69000053;stroke-linejoin:round" />
   <path
   d="m 11355,13008 c -8,-20 -21,-37 -40,-49 -48,-33 -130,-33 -239,31 10,-232 -155,-329 -328,-148 0,0 2,-157 -138,-230 -7,-4 -16,-7 -24,-11 -13,-5 -27,-10 -42,-14 -15,-4 -29,-6 -42,-7 -9,-1 -18,-2 -26,-2 -159,-3 -232,137 -232,137 -67,-242 -257,-235 -359,-25 -65,-106 -136,-145 -193,-141 -9,1 -19,2 -27,5 -11,4 -22,10 -32,18 -2,2 -5,3 -7,5 -27,24 -45,63 -49,110 2,45 33,358 33,358 0,0 404,2 797,83 384,114 741,304 741,304 0,0 176,-261 199,-300 20,-45 21,-90 7,-125 z"
   id="path356"
   style="fill:url(#id5);fill-rule:nonzero;stroke:#2b2a29;stroke-width:31.75;stroke-linejoin:round" />
   <g
   id="g358">
    <path
   d="m 10552,12240 c 0,87 -9,196 -32,327 13,2 28,5 28,5 0,0 16,5 29,10 111,-338 237,-480 293,-530 -52,-9 -148,-25 -182,-33 -34,-8 -125,-40 -175,-57 16,44 40,132 40,278 z"
   id="path360"
   style="fill:url(#id43);fill-rule:nonzero" />
    <path
   d="m 10484,11935 c 0,0 5,9 13,29 1,3 2,7 4,10 15,45 36,131 36,267 0,90 -9,202 -34,338 10,1 20,3 31,5 0,0 0,0 0,0 4,1 7,2 11,3 4,1 8,2 12,3 0,0 0,0 0,0 10,3 20,7 30,11 3,-10 7,-20 10,-30 0,0 0,0 0,0 104,-312 222,-451 279,-503 3,-3 6,-5 8,-7 16,-14 25,-19 25,-19 0,0 -170,-27 -216,-39 -46,-12 -207,-68 -207,-68 z m 55,618 0,0 c 52,-300 24,-479 -1,-567 51,17 119,40 146,47 28,7 99,19 152,28 -64,66 -173,210 -270,498 -5,-1 -10,-3 -14,-4 -4,-1 -9,-2 -13,-3 z"
   id="path362"
   style="fill:#363130;fill-rule:nonzero" />
   </g>
   <g
   id="g364">
    <path
   d="m 10597,12072 c -10,42 14,84 56,94 41,10 83,-15 94,-57 10,-42 -14,-84 -56,-94 -41,-10 -83,15 -94,57 z"
   id="path366"
   style="fill:url(#id12);fill-rule:nonzero;stroke:#2b2a29;stroke-width:24.69000053;stroke-linejoin:round" />
    <path
   d="m 10570,12225 c -9,36 12,72 47,81 35,9 71,-13 80,-48 9,-36 -12,-72 -48,-81 -35,-9 -71,13 -80,48 z"
   id="path368"
   style="fill:url(#id10);fill-rule:nonzero;stroke:#2b2a29;stroke-width:24.69000053;stroke-linejoin:round" />
    <path
   d="m 10551,12346 c -7,29 10,59 39,67 29,7 59,-11 66,-40 7,-29 -10,-59 -39,-67 -29,-7 -59,11 -66,40 z"
   id="path370"
   style="fill:url(#id9);fill-rule:nonzero;stroke:#2b2a29;stroke-width:24.69000053;stroke-linejoin:round" />
    <path
   d="m 10535,12444 c -6,25 9,50 33,57 25,6 50,-9 56,-34 6,-25 -8,-50 -33,-57 -25,-6 -50,9 -56,34 z"
   id="path372"
   style="fill:url(#id8);fill-rule:nonzero;stroke:#2b2a29;stroke-width:24.69000053;stroke-linejoin:round" />
    <path
   d="m 10524,12532 c -5,19 7,38 25,43 19,5 38,-7 43,-26 5,-19 -7,-38 -25,-43 -19,-5 -38,7 -43,26 z"
   id="path374"
   style="fill:url(#id7);fill-rule:nonzero;stroke:#2b2a29;stroke-width:24.69000053;stroke-linejoin:round" />
   </g>
   <path
   d="m 9737,12977 c -30,-29 -172,-374 -7,-348 129,21 33,311 7,348 z m 317,20 0,0 c -29,-29 -160,-348 7,-355 168,-7 19,318 -7,355 z m 372,60 0,0 c -21,-37 -74,-387 87,-347 161,41 -54,319 -87,347 z m 360,124 0,0 c -6,-44 17,-402 162,-316 144,86 -122,304 -162,316 z m 280,133 0,0 c -6,-44 42,-354 179,-304 157,57 -140,293 -179,304 z"
   id="path376"
   style="fill:#2b2a29;fill-rule:nonzero" />
   <path
   d="m 10577,11798 c 2,-87 74,-156 161,-154 87,2 156,74 154,161 -2,87 -74,156 -161,154 -87,-2 -156,-74 -154,-161 z"
   id="path378"
   style="fill:url(#id11);fill-rule:nonzero;stroke:#2b2a29;stroke-width:31.75;stroke-linejoin:round" />
  </g>
 </g>
</svg>