<?xml version="1.0" encoding="UTF-8" standalone="no"?>
<!-- Creator: CorelDRAW -->

<svg
   xmlns:dc="http://purl.org/dc/elements/1.1/"
   xmlns:cc="http://creativecommons.org/ns#"
   xmlns:rdf="http://www.w3.org/1999/02/22-rdf-syntax-ns#"
   xmlns:svg="http://www.w3.org/2000/svg"
   xmlns="http://www.w3.org/2000/svg"
   xmlns:sodipodi="http://sodipodi.sourceforge.net/DTD/sodipodi-0.dtd"
   xmlns:inkscape="http://www.inkscape.org/namespaces/inkscape"
   xml:space="preserve"
   width="300"
   height="360"
   style="fill-rule:evenodd"
   viewBox="0 0 84.666667 101.6"
   id="svg2"
   version="1.1"
   inkscape:version="0.48.1 "
   sodipodi:docname="жодино.svg"><metadata
   id="metadata75"><rdf:RDF><cc:Work
       rdf:about=""><dc:format>image/svg+xml</dc:format><dc:type
         rdf:resource="http://purl.org/dc/dcmitype/StillImage" /></cc:Work></rdf:RDF></metadata><sodipodi:namedview
   pagecolor="#ffffff"
   bordercolor="#666666"
   borderopacity="1"
   objecttolerance="10"
   gridtolerance="10"
   guidetolerance="10"
   inkscape:pageopacity="0"
   inkscape:pageshadow="2"
   inkscape:window-width="640"
   inkscape:window-height="480"
   id="namedview73"
   showgrid="false"
   fit-margin-top="0"
   fit-margin-left="0"
   fit-margin-right="0"
   fit-margin-bottom="0"
   inkscape:zoom="0.72499998"
   inkscape:cx="150"
   inkscape:cy="180"
   inkscape:window-x="0"
   inkscape:window-y="0"
   inkscape:window-maximized="0"
   inkscape:current-layer="svg2" />
 <defs
   id="defs4"><style
     type="text/css"
     id="style6">
   
    .fil2 {fill:black}
    .fil8 {fill:#1F1A17;fill-rule:nonzero}
    .fil0 {fill:black;fill-rule:nonzero}
    .fil1 {fill:#DF212C;fill-rule:nonzero}
    .fil5 {fill:white;fill-rule:nonzero}
    .fil4 {fill:url(#id0)}
    .fil3 {fill:url(#id1)}
    .fil7 {fill:url(#id2);fill-rule:nonzero}
    .fil6 {fill:url(#id3);fill-rule:nonzero}
   
  </style><linearGradient
     id="id0"
     gradientUnits="userSpaceOnUse"
     x1="109.012"
     y1="112.807"
     x2="130.32401"
     y2="112.247">
   <stop
   offset="0"
   style="stop-color:white"
   id="stop9" />
   <stop
   offset="0.588235"
   style="stop-color:#CCCCCC"
   id="stop11" />
   <stop
   offset="1"
   style="stop-color:white"
   id="stop13" />
  </linearGradient><radialGradient
     id="id1"
     gradientUnits="userSpaceOnUse"
     cx="99.25"
     cy="78.057701"
     r="7.9162998"
     fx="99.25"
     fy="78.057701"
     gradientTransform="matrix(1.2524215,-3.4031184e-7,3.6317476e-7,1.336562,-25.052859,-26.271219)">
   <stop
   offset="0"
   style="stop-color:#CCCCCC"
   id="stop16" />
   <stop
   offset="1"
   style="stop-color:white"
   id="stop18" />
  </radialGradient><linearGradient
     id="id2"
     gradientUnits="userSpaceOnUse"
     x1="76.737701"
     y1="143.519"
     x2="136.6532"
     y2="137.03574">
   <stop
   offset="0"
   style="stop-color:white"
   id="stop21" />
   <stop
   offset="0.17267244"
   style="stop-color:white"
   id="stop23" />
   <stop
   offset="0.40249854"
   style="stop-color:#CCCCCC"
   id="stop25" />
   <stop
   offset="0.69106883"
   style="stop-color:white"
   id="stop27" />
   <stop
   offset="0.85240102"
   style="stop-color:#CCCCCC"
   id="stop29" />
   <stop
   offset="1"
   style="stop-color:#CCCCCC"
   id="stop31" />
  </linearGradient><linearGradient
     id="id3"
     gradientUnits="userSpaceOnUse"
     x1="62.780998"
     y1="158.04401"
     x2="140.49934"
     y2="145.07828">
   <stop
   offset="0"
   style="stop-color:white"
   id="stop34" />
   <stop
   offset="0.2"
   style="stop-color:#CCCCCC"
   id="stop36" /><stop
   id="stop3054"
   style="stop-color:#ffffff;stop-opacity:1"
   offset="0.46441233" />
   <stop
   offset="0.65111107"
   style="stop-color:white"
   id="stop38" />
   <stop
   offset="0.79529351"
   style="stop-color:#CCCCCC"
   id="stop40" />
   <stop
   offset="1"
   style="stop-color:white"
   id="stop42" />
  </linearGradient><style
     id="style3076"
     type="text/css">
   
    .str0 {stroke:#FF6600;stroke-width:0.7056}
    .fil1 {fill:none}
    .fil0 {fill:#A90000}
   
  </style></defs>
 <path
   style="fill:#a90000"
   inkscape:connector-curvature="0"
   class="fil0"
   d="m 62.583333,48.550101 c 0.8283,0 1.5,0.6717 1.5,1.5 l 0,1.4998 c 0,0.8283 -0.6717,1.5 -1.5,1.5 l -1.5,0 0,-4.4998 1.5,0 z m 0,5.9998 c 1.6566,0 3,-1.3434 3,-3 l 0,-1.4998 c 0,-1.6566 -1.3434,-3 -3,-3 l -3,0 0,7.4998 3,0 z m -6,-7.4998 1.5,0 0,7.4998 -1.5,0 0,-7.4998 z m -3,0 1.5,0 0,7.4998 -1.5,0 -3,-4.7086 0,4.7086 -1.5,0 0,-7.4998 1.5,0 3,4.7086 0,-4.7086 z m -22.5,1e-4 4.5,0 0,1.5 -3,0 0,1.4999 3,0 0,1.5 -3,0 0,1.4999 3,0 0,1.5 -4.5,0 0,-7.4998 z m -6,-2e-4 1.5,0 0,6 3,0 0,1.5 -4.5,0 0,-7.5 z m 15.7504,6 1.4996,0 c 1.2424,0 2.25,-1.0076 2.25,-2.25 0,-1.2424 -1.0263,-2.2457 -2.25,-2.25 l -1.4996,0 0,1.5 1.4996,0 c 0.4141,0 0.75,0.3359 0.75,0.75 0,0.4141 -0.3359,0.75 -0.75,0.75 l -1.4996,0 0,1.5 z m 1.4996,-7.5 c 2.899,0 5.25,2.351 5.25,5.25 0,2.899 -2.351,5.25 -5.25,5.25 -2.899,0 -5.25,-2.351 -5.25,-5.25 0,-2.899 2.351,-5.25 5.25,-5.25 z m 0,1.5 c 2.0707,0 3.75,1.6793 3.75,3.75 0,2.0707 -1.6793,3.75 -3.75,3.75 -2.0707,0 -3.75,-1.6793 -3.75,-3.75 0,-2.0707 1.6793,-3.75 3.75,-3.75 z"
   id="path3080" /><g
   id="Слой_x0020_1"
   transform="matrix(0.57398991,0,0,0.57451572,-17.935636,-34.336564)">
  <metadata
   id="CorelCorpID_0Corel-Layer" />
  <path
   class="fil0"
   d="m 31.2486,59.7661 10e-5,88.96 -0.0014,0 c 0,40.1855 35.6251,76.0917 73.7527,87.8846 38.1276,-11.7929 73.7528,-47.6991 73.7528,-87.8846 l -0.002,0 1e-4,-88.96 -147.503,0 z"
   id="path46"
   inkscape:connector-curvature="0"
   style="fill:#000000;fill-rule:nonzero" />
  <path
   class="fil1"
   d="m 31.9984,60.5331 10e-5,88.1884 -0.0015,0 c 0,39.8369 35.263,75.4316 73.003,87.1222 37.74,-11.6906 73.003,-47.2853 73.003,-87.1222 l -10e-4,0 1e-4,-88.1884 -146.003,0 z"
   id="path48"
   inkscape:connector-curvature="0"
   style="fill:#df212c;fill-rule:nonzero" />
  <circle
   id="нимб"
   class="fil2"
   cx="99.25"
   cy="78.057701"
   r="9.7049999"
   sodipodi:cx="99.25"
   sodipodi:cy="78.057701"
   sodipodi:rx="9.7049999"
   sodipodi:ry="9.7049999"
   style="fill:#000000"
   d="m 108.955,78.057701 c 0,5.359924 -4.34508,9.705 -9.705,9.705 -5.359923,0 -9.705,-4.345076 -9.705,-9.705 0,-5.359923 4.345077,-9.705 9.705,-9.705 5.35992,0 9.705,4.345077 9.705,9.705 z" />
  <path
   id="нимб_0"
   class="fil3"
   d="m 99.25,68.8527 c 5.0829,0 9.205,4.1221 9.205,9.205 0,5.083 -4.1221,9.205 -9.205,9.205 -5.083,0 -9.205,-4.122 -9.205,-9.205 0,-5.0829 4.122,-9.205 9.205,-9.205 z"
   style="fill:url(#id1)"
   inkscape:connector-curvature="0" />
  <path
   class="fil0"
   d="m 123.322,94.0959 11.6179,0 0,22.7081 0,7e-4 -0.001,0 c -1e-4,1.4187 -0.2171,2.7678 -0.6167,4.0292 l 0.8834,2.1533 c 0.2573,0.3515 0.452,0.752 0.6212,1.1518 0.5068,1.1977 0.9301,2.8999 0.9457,4.4718 0.0132,1.319 -0.2942,2.3302 -0.9081,3.1143 -0.3734,0.4768 -0.8568,0.8651 -1.4473,1.1835 -3.0148,4.7473 -4.8924,7.0627 -6.8077,7.5972 -1.9541,0.5453 -3.8439,-0.7408 -6.8898,-3.1896 -0.3885,-0.3123 -0.7729,-0.6566 -1.1661,-1.0274 -0.925,0.6701 -1.8573,0.9591 -2.7918,0.9792 0.0462,1.0805 0.1575,2.1587 0.3462,3.2238 0.5245,2.9589 1.6538,5.7956 3.6859,8.0541 0.2046,0.2275 0.3803,0.402 0.5342,0.5549 0.568,0.5642 0.87,0.8642 1.0076,1.9754 0.1585,1.2807 0.3093,2.5634 0.4043,3.8547 0.0948,1.2881 0.1328,2.5777 0.0653,3.8692 -0.0733,1.4031 0.2277,2.5973 0.8161,3.6646 0.594,1.0773 1.4822,2.0309 2.5752,2.942 l 0.004,0.004 c 0.8166,0.6812 1.5262,1.3826 2.1331,2.1023 0.6105,0.7239 1.1195,1.4681 1.5313,2.2304 2.1191,3.9228 1.6674,8.3068 -0.7305,12.9217 -1.299,2.5001 -1.3944,3.7147 -0.8176,4.184 0.5914,0.4812 1.9204,0.2624 3.4052,-0.1504 l 9e-4,0 0.004,-0.001 -1e-4,-2e-4 c 0.3092,-0.0858 0.6478,-0.1628 1.0099,-0.2286 2.8349,-0.5149 5.9586,-0.2795 8.5835,0.9586 1.418,0.6687 2.8822,1.7175 3.3482,3.2935 0.5901,1.9952 0.2427,3.099 -0.1153,4.2363 -0.2175,0.6911 -0.4393,1.3955 -0.4328,2.3268 l 6e-4,0.0384 0,0 c 0.0587,2.4101 4.175,4.0749 6.3145,4.9401 0.5302,0.2143 1.0578,0.4349 1.586,0.654 l -14.5051,0.462 c -0.4869,0.6448 -1.0415,1.24 -1.6638,1.7562 -1.6749,1.3893 -3.8255,2.2054 -6.5011,2.0314 -0.9683,-0.0627 -1.841,0.3019 -2.4261,1.0933 -0.5286,0.7152 -0.8398,1.7447 -0.9208,2.9904 -0.0308,0.4743 -0.0191,0.9484 -0.0133,1.4232 l -6.5259,-6.5259 c 0.78,-0.4336 1.4844,-1.3795 2.0377,-2.0671 0.5706,-0.7092 1.1014,-1.5088 1.5894,-2.426 0.6428,-1.2084 0.8774,-2.2464 0.7915,-3.0929 -0.0953,-0.9401 -0.6238,-1.6949 -1.454,-2.1366 -0.7126,-0.3791 -1.6429,-0.5487 -2.7041,-0.4855 l 0.988,7.4857 -5.3129,0 0.6154,4.8146 -34.4859,0 0.6154,-4.8146 -5.4897,0 5.781,-43.7996 c -0.7124,-2.7127 -1.9449,-5.3551 -3.5467,-7.9567 -1.6622,-2.6997 -3.7231,-5.3571 -6.0141,-8.0039 -0.5587,-0.6455 -1.0075,-1.3287 -1.0744,-2.0319 -0.0696,-0.7307 0.261,-1.4518 1.2766,-2.123 1.3492,-0.8916 2.2699,-1.9797 2.8888,-3.164 0.6213,-1.1887 0.9415,-2.4794 1.0873,-3.7688 0.1003,-0.8876 0.0265,-1.9674 -0.7555,-2.5474 -0.957,-0.7096 -2.4312,-0.4037 -3.4588,-0.0636 -3.4255,1.134 -6.0068,1.0451 -7.8808,0.2321 -0.9426,-0.4089 -1.7047,-0.9993 -2.304,-1.7089 -0.5981,-0.7081 -1.0341,-1.5335 -1.3257,-2.4145 -0.7009,-2.1172 -0.5691,-4.568 0.1441,-6.4832 -0.573,0.0745 -1.1626,0.1333 -1.7632,0.1747 -3.613,0.2488 -7.6297,-0.1383 -10.892,-1.5763 -3.2965,-1.4532 -5.8241,-3.9729 -6.408,-7.9813 -0.3104,-2.1304 0.1539,-4.1914 1.3604,-5.9927 0.1942,-0.29 0.4029,-0.5662 0.6236,-0.8258 1.5371,-1.8074 3.4964,-2.4048 5.959,-2.4457 0.2478,-0.004 0.5038,-0.008 0.7764,-0.0164 0.5902,-0.0174 1.3381,-0.0921 1.9079,-0.3575 0.5145,-0.2397 0.8795,-0.6498 0.8036,-1.3482 -0.0466,-0.4292 -0.1596,-0.7845 -0.3244,-1.0748 -0.2824,-0.4972 -0.7245,-0.8112 -1.2491,-0.985 -0.5454,-0.1807 -1.1805,-0.2129 -1.8236,-0.143 -1.1215,0.1218 -2.1052,0.5271 -3.0728,1.0766 0.0846,-2.1803 0.4266,-4.3617 1.7052,-6.1943 0.7557,-1.0831 1.7278,-1.8669 2.8471,-2.3668 1.1144,-0.4977 2.3728,-0.7128 3.7066,-0.6608 2.4135,0.094 5.0795,1.0629 7.5877,2.8129 3.2024,2.2343 6.5002,2.7895 9.7871,1.8226 0.6412,-0.1886 1.283,-0.4354 1.9244,-0.739 1.0525,-0.4982 1.9564,-1.104 2.8978,-1.7656 1.7035,-1.2934 3.7958,-2.1211 6.2515,-2.2784 1.0168,-0.0651 2.0964,-0.0147 3.2368,0.166 1.0943,0.1734 2.2437,0.467 3.446,0.8932 l 3.1114,-10.3584 6e-4,-0.0013 -2e-4,0 c 0.2259,-0.7521 0.3917,-1.5285 0.7424,-2.2367 l 5e-4,-5e-4 -2e-4,-1e-4 c 0.2314,-0.4675 0.5349,-0.898 0.8966,-1.2738 0.8681,-0.9017 2.0659,-1.4842 3.3992,-1.5535 0.9395,-0.0486 1.8845,0.164 2.7088,0.6152 0.9155,0.5014 1.6603,1.2755 2.1243,2.2127 l -4e-4,2e-4 0.001,0.001 c 0.3503,0.7082 0.5165,1.4847 0.7422,2.2368 l 3.106,10.3404 c 0.9907,-0.3486 1.9444,-0.6069 2.8596,-0.7818 0.9751,-0.1864 1.9104,-0.2788 2.8042,-0.2857 0.5166,-0.0041 1.0183,0.0209 1.5052,0.0726 l 0.069,-0.0134 0.0121,-0.0023 0.005,0.0252 c 3.757,0.4242 6.6148,2.4591 8.4732,5.314 z"
   id="path52"
   inkscape:connector-curvature="0"
   style="fill:#000000;fill-rule:nonzero" />
  <path
   id="щит"
   class="fil4"
   d="m 119.668,130.459 c 7.6642,0 14.7735,-5.7122 14.7735,-13.7131 l 0,-22.1499 -29.547,0 0,22.1498 c 0,8.001 7.1092,13.7132 14.7735,13.7132 z"
   style="fill:url(#id0)"
   inkscape:connector-curvature="0" />
  <g
   id="трубы">
   <path
   id="_155770840"
   class="fil0"
   d="m 123.407,107.09 c -0.1445,-0.0953 -0.1762,-0.2938 -0.0641,-0.4208 0.0299,-0.0339 0.0684,-0.061 0.1105,-0.0775 l 2e-4,-1e-4 c 0.0953,-0.037 0.2038,-0.0173 0.2833,0.0488 0.0306,0.0254 0.0572,0.0568 0.0798,0.0915 l 1e-4,2e-4 c 0.083,0.1278 0.1045,0.2623 0.0911,0.4061 l -1e-4,7e-4 1e-4,0 0,5e-4 0,7e-4 -1e-4,5e-4 -10e-5,0 c -0.02,0.2078 -0.1008,0.4354 -0.2205,0.6399 -0.1154,0.1957 -0.2809,0.3859 -0.4599,0.5257 l 0.3322,0.5131 c 0.3896,-0.2675 0.6794,-0.6928 0.8406,-1.1335 l 1e-4,-1e-4 c 0.0179,-0.0488 0.0341,-0.0987 0.0487,-0.1489 0.0323,-0.111 0.0559,-0.2224 0.067,-0.3382 l 1e-4,-4e-4 10e-5,-9e-4 -10e-5,0 c 0.0228,-0.2403 -0.0118,-0.503 -0.1313,-0.7148 -0.1807,-0.3209 -0.5095,-0.5395 -0.8804,-0.5181 l -2e-4,1e-4 -0.004,2e-4 c -0.248,0.0155 -0.466,0.1313 -0.6172,0.3054 -0.1519,0.1745 -0.2309,0.4062 -0.2175,0.6386 l 2e-4,0 0,4e-4 -2e-4,2e-4 c 0.0115,0.1946 0.0881,0.374 0.2107,0.5168 0.1778,0.2064 0.4475,0.33 0.7198,0.3364 0.1162,-0.1935 0.21,-0.4222 0.226,-0.6495 -0.1386,0.0503 -0.2869,0.061 -0.4146,-0.023 z m 1.1743,0.2731 c 0.3482,-0.2483 0.7962,-0.7848 0.8815,-1.3015 l -0.6074,-0.0758 c -0.0482,0.2072 -0.1982,0.4144 -0.335,0.5799 0.0815,0.202 0.1038,0.4237 0.0833,0.64 l -1e-4,4e-4 -1e-4,8e-4 1e-4,10e-5 c -0.005,0.0515 -0.0126,0.1036 -0.0223,0.1561 z m 4.8107,-4.7914 c -0.1463,0.553 -0.4217,0.9416 -0.4155,1.5025 0.005,0.4801 0.0336,0.9383 -0.0234,1.4637 -0.8369,0.7532 -2.506,0.7364 -3.2825,-0.0133 0.0112,-0.523 -0.1298,-0.9734 -0.5096,-1.3606 -0.1379,-0.1406 -0.3043,-0.2716 -0.4613,-0.4069 0.2061,0.1419 0.4467,0.245 0.6917,0.3066 0.5728,0.1442 1.192,0.1225 1.7646,2e-4 0.646,-0.1381 1.3043,-0.4198 1.7897,-0.8749 0.1865,-0.1749 0.3474,-0.3846 0.4463,-0.6173 z m -0.5477,4.034 c -0.4025,1.7938 -1.7167,3.3773 -3.0221,3.9474 -0.9075,-0.3832 -1.3878,-1.0881 -1.55,-2.0807 0.4761,-0.4482 1.0087,-1.2515 1.242,-1.9173 0.9284,0.7098 2.5378,0.7016 3.3301,0.0506 z m -8.5053,2.8371 c 0.1393,0.0775 0.2664,0.2086 0.3298,0.3249 0.9863,0.0199 2.0856,-0.264 2.9591,-0.7991 0.1415,0.762 0.6134,1.481 1.2872,1.8868 -1.2907,0.3153 -2.8495,0.2223 -4.415,-0.2882 -0.0913,0.0887 -0.2287,0.1582 -0.3667,0.1797 0.0666,-0.0288 0.1294,-0.0758 0.1845,-0.1374 0.1192,-0.1333 0.1836,-0.3067 0.2097,-0.4812 0.0272,-0.1951 -0.001,-0.3792 -0.069,-0.5196 -0.0317,-0.0655 -0.0721,-0.1219 -0.1196,-0.1659 z m -0.7561,0.5531 c -0.0416,0.2962 0.0512,0.5659 0.2165,0.6809 0.2513,0.1749 0.4903,-0.0766 0.5869,-0.3087 0.0759,-0.1822 0.1038,-0.3968 0.0606,-0.5906 -0.0397,-0.1783 -0.1803,-0.4113 -0.3885,-0.3935 -0.2231,0.019 -0.4281,0.2749 -0.4755,0.6119 z m 7.9066,-9.2768 c 0.7347,0.0235 1.7112,0.2922 1.8915,1.1216 l 1e-4,0.002 0.002,0.006 c 0.1793,0.8531 -0.6412,1.5041 -1.3208,1.8211 -0.6161,0.2874 -1.3345,0.4326 -2.014,0.4007 -0.7206,-0.034 -1.6586,-0.3104 -1.8347,-1.1195 l -1e-4,-0.002 -0.002,-0.006 c -0.1749,-0.8324 0.6064,-1.4753 1.269,-1.7965 0.6115,-0.2964 1.3289,-0.4492 2.0089,-0.4274 z m -1.4742,1.1148 c -0.2949,0.1226 -1.0601,0.5224 -0.9735,0.9345 l -9e-4,1e-4 0,2e-4 1e-4,7e-4 5e-4,-1e-4 c 0.0858,0.3945 0.8876,0.4601 1.2011,0.4591 0.5068,-0.002 1.067,-0.1294 1.5189,-0.3533 0.2667,-0.1321 0.867,-0.4931 0.7916,-0.8519 l 9e-4,-1e-4 0,-2e-4 -2e-4,-7e-4 -4e-4,1e-4 c -0.0858,-0.3943 -0.8879,-0.46 -1.2013,-0.459 -0.4441,0.002 -0.9261,0.1 -1.3368,0.2706 z m -6.1934,8.2024 c 0.0214,-0.1517 0.1212,-0.263 0.2226,-0.2488 0.1011,0.0144 0.1661,0.1486 0.145,0.3002 -0.0213,0.1518 -0.1212,0.263 -0.2225,0.2488 -0.1011,-0.0144 -0.1661,-0.1486 -0.1451,-0.3002 z"
   inkscape:connector-curvature="0"
   style="fill:#000000;fill-rule:nonzero" />
   <path
   id="_155770768"
   class="fil0"
   d="m 114.784,107.712 c -0.0102,0.1728 -0.1663,0.2995 -0.3323,0.2659 -0.0443,-0.009 -0.087,-0.0288 -0.1224,-0.0569 l -1e-4,-2e-4 c -0.0797,-0.064 -0.117,-0.1678 -0.0995,-0.2697 0.007,-0.0392 0.0206,-0.078 0.0394,-0.1149 l 1e-4,-10e-5 c 0.0692,-0.1358 0.1749,-0.2217 0.3062,-0.282 l 6e-4,-3e-4 -10e-5,0 5e-4,-3e-4 6e-4,-3e-4 5e-4,-2e-4 0,1e-4 c 0.19,-0.0866 0.4275,-0.1304 0.6644,-0.129 0.2272,0.002 0.4747,0.0503 0.6852,0.1354 l 0.2783,-0.5442 c -0.4264,-0.2037 -0.9397,-0.242 -1.402,-0.1613 l -1e-4,0 c -0.0511,0.009 -0.1025,0.0199 -0.1533,0.0323 -0.1122,0.0275 -0.2205,0.0627 -0.3264,0.1111 l -4e-4,1e-4 -8e-4,4e-4 0,0 c -0.2195,0.1004 -0.4296,0.2618 -0.5533,0.4712 -0.1875,0.3169 -0.2125,0.7109 -0.008,1.0214 l 2e-4,2e-4 0.002,0.004 c 0.1374,0.207 0.3467,0.3379 0.5731,0.3817 0.2271,0.0444 0.4673,-0.003 0.6618,-0.1309 l -1e-4,-10e-5 4e-4,-2e-4 2e-4,0 c 0.1628,-0.1072 0.2798,-0.2633 0.3422,-0.4408 0.0898,-0.2572 0.0621,-0.5525 -0.0686,-0.7916 -0.2256,-0.004 -0.4706,0.0292 -0.6755,0.129 0.113,0.0949 0.1964,0.218 0.1874,0.3706 z m -0.3506,-1.1535 c -0.3891,-0.1774 -1.0778,-0.2971 -1.5679,-0.1127 l 0.2381,0.5639 c 0.2036,-0.0618 0.4579,-0.0355 0.6697,2e-4 0.1342,-0.1716 0.315,-0.3018 0.5126,-0.3921 l 4e-4,-2e-4 7e-4,-3e-4 10e-5,-1e-4 c 0.047,-0.0215 0.096,-0.0409 0.1463,-0.0587 z m -6.5548,-1.7705 c 0.552,-0.1498 1.0263,-0.1056 1.5089,-0.3914 0.4132,-0.2447 0.7959,-0.4983 1.2793,-0.7116 1.0707,0.3481 1.8908,1.8021 1.6298,2.8494 -0.4586,0.2517 -0.7781,0.5991 -0.9235,1.1215 -0.0528,0.1898 -0.0831,0.3994 -0.1218,0.603 0.0199,-0.2494 -0.0112,-0.5093 -0.0803,-0.7523 -0.1615,-0.5681 -0.4899,-1.0936 -0.8822,-1.5283 -0.4425,-0.4904 -1.0156,-0.9196 -1.6525,-1.1125 -0.2447,-0.074 -0.5068,-0.1085 -0.7577,-0.0778 z m 3.7674,-1.5427 c 1.7547,-0.5483 3.7831,-0.202 4.9296,0.6435 0.1219,0.9775 -0.2484,1.746 -1.0269,2.3827 -0.6262,-0.1882 -1.5883,-0.2478 -2.2815,-0.117 0.1506,-1.1589 -0.6613,-2.5486 -1.6212,-2.9092 z m 6.7097,5.9473 c -0.003,-0.1594 0.0474,-0.3351 0.1164,-0.4481 -0.4759,-0.8641 -1.2714,-1.6742 -2.1716,-2.1631 0.5891,-0.5036 0.9759,-1.2718 0.9904,-2.0582 0.9185,0.9602 1.6173,2.3566 1.9579,3.9676 0.1225,0.0347 0.2514,0.119 0.3391,0.2278 -0.0583,-0.0434 -0.1304,-0.0742 -0.2113,-0.0911 -0.1751,-0.0366 -0.3574,-0.006 -0.5216,0.059 -0.1826,0.074 -0.3278,0.1906 -0.4155,0.3196 -0.0409,0.0601 -0.0695,0.1233 -0.0838,0.1865 z m 0.8569,0.3782 c 0.2774,-0.1121 0.4646,-0.3273 0.4815,-0.5279 0.0258,-0.3051 -0.3115,-0.3864 -0.5607,-0.354 -0.1958,0.0254 -0.3956,0.1086 -0.5419,0.2428 -0.1346,0.1236 -0.266,0.3618 -0.1465,0.5332 0.1281,0.1838 0.4521,0.2333 0.7676,0.1059 z m -11.9872,-2.2089 c -0.347,-0.648 -0.6025,-1.6281 0.0256,-2.1989 l 0.002,-10e-4 0.004,-0.005 c 0.6492,-0.5818 1.6232,-0.1968 2.2375,0.2332 0.557,0.3899 1.0419,0.9394 1.354,1.5439 0.3309,0.641 0.5606,1.5916 -0.0521,2.1486 l -0.002,10e-4 -0.004,0.005 c -0.6334,0.5677 -1.5808,0.2125 -2.1902,-0.2007 -0.5625,-0.3814 -1.0536,-0.9263 -1.3747,-1.5261 z m 1.7026,0.7192 c 0.2536,0.1942 0.9825,0.657 1.296,0.3759 l 6e-4,7e-4 2e-4,-1e-4 5e-4,-4e-4 -3e-4,-4e-4 c 0.2987,-0.2715 -0.0454,-0.9987 -0.203,-1.2697 -0.2548,-0.4381 -0.6456,-0.8593 -1.0654,-1.1388 -0.2478,-0.1649 -0.8606,-0.5042 -1.1335,-0.2596 l -6e-4,-7e-4 -2e-4,1e-4 -5e-4,5e-4 3e-4,3e-4 c -0.2986,0.2715 0.0455,0.999 0.2031,1.2699 0.2234,0.3838 0.5497,0.752 0.9028,1.0223 z m 10.2002,1.2625 c -0.1421,0.0574 -0.2884,0.0266 -0.3268,-0.0683 -0.0381,-0.0948 0.0457,-0.2182 0.1874,-0.2757 0.1422,-0.0574 0.2885,-0.0266 0.3268,0.0683 0.0381,0.0947 -0.0456,0.2181 -0.1874,0.2757 z"
   inkscape:connector-curvature="0"
   style="fill:#000000;fill-rule:nonzero" />
   <path
   id="_155770696"
   class="fil0"
   d="m 119.661,114.898 c 0.1548,-0.0775 0.3425,-0.006 0.3964,0.1549 0.0144,0.0429 0.0186,0.0898 0.0119,0.1344 l 0,3e-4 c -0.0157,0.101 -0.0869,0.1851 -0.1839,0.2209 -0.0374,0.0138 -0.0778,0.0212 -0.1192,0.0234 l -2e-4,0 c -0.1522,0.008 -0.2794,-0.0407 -0.3973,-0.1242 l -5e-4,-4e-4 0,1e-4 -5e-4,-3e-4 -6e-4,-4e-4 -4e-4,-3e-4 1e-4,0 c -0.17,-0.1213 -0.3267,-0.3051 -0.4439,-0.5109 -0.1119,-0.1978 -0.1938,-0.4362 -0.2254,-0.6612 l -0.6104,0.0311 c 0.0368,0.4712 0.2603,0.9348 0.5613,1.2948 l 1e-4,2e-4 c 0.0332,0.0398 0.0684,0.0788 0.1046,0.1165 0.08,0.0835 0.1646,0.1597 0.2594,0.2272 l 3e-4,2e-4 7e-4,6e-4 0,-1e-4 c 0.1967,0.1399 0.4416,0.2413 0.6847,0.2437 0.3682,0.004 0.7219,-0.1715 0.8889,-0.5034 l 0,-2e-4 0.002,-0.004 c 0.1105,-0.2226 0.1192,-0.4693 0.0441,-0.6873 -0.0751,-0.2188 -0.2363,-0.4031 -0.4443,-0.5076 l -1e-4,1e-4 -4e-4,-2e-4 0,-2e-4 c -0.1743,-0.0873 -0.368,-0.1107 -0.5529,-0.0759 -0.2677,0.0508 -0.5095,0.2225 -0.6513,0.4551 0.1095,0.1974 0.2607,0.393 0.4495,0.5205 0.0257,-0.1452 0.0906,-0.279 0.2273,-0.3476 z m -0.8237,0.8804 c 0.0409,0.4257 0.2816,1.082 0.6864,1.4142 l 0.3693,-0.4882 c -0.1553,-0.1453 -0.2598,-0.3787 -0.3347,-0.58 -0.2157,-0.0304 -0.4188,-0.1219 -0.5959,-0.2478 l -3e-4,-3e-4 -7e-4,-5e-4 -1e-4,0 c -0.0421,-0.03 -0.0834,-0.0627 -0.124,-0.0974 z m 1.7441,6.5619 c -0.4057,-0.4032 -0.6046,-0.836 -1.0934,-1.1111 -0.4185,-0.2354 -0.8295,-0.44 -1.2559,-0.7521 -0.2339,-1.1013 0.6152,-2.5384 1.6527,-2.8361 0.4474,0.2713 0.9079,0.3743 1.4331,0.239 0.1907,-0.0491 0.3874,-0.1277 0.5831,-0.196 -0.226,0.1075 -0.4355,0.2643 -0.6114,0.4457 -0.4113,0.424 -0.7021,0.9711 -0.8825,1.5281 -0.2034,0.6285 -0.2885,1.3395 -0.1372,1.9874 0.0583,0.249 0.1594,0.4932 0.3115,0.6951 z m -3.2197,-2.4913 c -1.3522,-1.2455 -2.0665,-3.1753 -1.9075,-4.5909 0.7856,-0.5943 1.6363,-0.6578 2.5769,-0.302 0.1501,0.6364 0.5795,1.4994 1.0395,2.0343 -1.0789,0.4491 -1.8765,1.847 -1.7089,2.8586 z m 1.7956,-8.7844 c -0.1367,0.0819 -0.3138,0.1265 -0.4462,0.1232 -0.5104,0.8442 -0.8142,1.9382 -0.7875,2.9623 -0.7307,-0.2585 -1.5893,-0.2093 -2.2777,0.1713 0.3723,-1.2755 1.2323,-2.5789 2.4572,-3.6794 -0.0312,-0.1234 -0.0227,-0.2772 0.0277,-0.4075 -0.008,0.0721 9e-4,0.15 0.0267,0.2285 0.0559,0.1699 0.1738,0.3124 0.3119,0.4222 0.1554,0.1212 0.329,0.1886 0.4845,0.2001 0.0726,0.005 0.1416,-0.002 0.2034,-0.0207 z m -0.1009,-0.9313 c -0.2357,-0.1841 -0.5157,-0.2386 -0.6979,-0.153 -0.2771,0.1303 -0.1789,0.463 -0.0261,0.6626 0.1198,0.1569 0.2917,0.2883 0.4812,0.3479 0.1742,0.0548 0.4463,0.0495 0.535,-0.1397 0.0951,-0.2028 -0.0241,-0.5082 -0.2922,-0.7178 z m 4.0807,11.4858 c -0.3877,0.6244 -1.1087,1.3358 -1.9171,1.0772 l -0.002,-9e-4 -0.006,-0.001 c -0.8285,-0.2712 -0.982,-1.3073 -0.9167,-2.0543 0.0591,-0.6773 0.2925,-1.372 0.6599,-1.9445 0.3898,-0.6072 1.0981,-1.2813 1.8869,-1.0292 l 0.002,9e-4 0.006,0.001 c 0.8083,0.2648 0.9744,1.2628 0.9212,1.9972 -0.049,0.6778 -0.2754,1.3756 -0.6342,1.9536 z m -0.2284,-1.8342 c 0.0413,-0.3166 0.0776,-1.1793 -0.3225,-1.3103 l 3e-4,-9e-4 -2e-4,-10e-5 -6e-4,-2e-4 -1e-4,5e-4 c -0.3846,-0.123 -0.8423,0.5386 -0.9982,0.8107 -0.252,0.4396 -0.4214,0.9887 -0.4535,1.492 -0.0189,0.297 -0.006,0.9974 0.342,1.1114 l -4e-4,9e-4 2e-4,10e-5 6e-4,2e-4 2e-4,-4e-4 c 0.3844,0.1229 0.8423,-0.5389 0.9982,-0.8109 0.2206,-0.3853 0.3764,-0.852 0.434,-1.293 z m -4.0068,-9.4648 c 0.1207,0.0944 0.1672,0.2365 0.1042,0.3171 -0.063,0.0804 -0.2118,0.0696 -0.3325,-0.0244 -0.1208,-0.0944 -0.1672,-0.2366 -0.1042,-0.3171 0.063,-0.0804 0.2118,-0.0696 0.3325,0.0244 z"
   inkscape:connector-curvature="0"
   style="fill:#000000;fill-rule:nonzero" />
  </g>
  <g
   id="руки">
   <path
   id="руки_1"
   class="fil2"
   d="m 104.395,103.769 0,-6.1597 1.2716,-0.7563 c 0.3789,-0.2252 0.9245,-0.2682 1.1802,0.1508 0.0526,0.0863 0.0856,0.1852 0.096,0.2911 l 0.2008,-0.1216 c 0.3322,-0.2012 0.6631,-0.1861 0.8993,-0.0438 0.2144,0.1291 0.341,0.3619 0.342,0.611 6e-4,0.1544 -0.0458,0.3228 -0.1522,0.4896 0.2705,0.0962 0.4511,0.3404 0.454,0.6282 0.002,0.2261 -0.1043,0.4879 -0.3586,0.7369 0.1728,0.1264 0.263,0.3304 0.2666,0.542 0.005,0.2785 -0.1382,0.5992 -0.4697,0.831 l -2.3823,1.8526 c -0.2843,0.2211 -0.5911,0.4301 -0.9072,0.6454 -0.1451,0.0988 -0.2923,0.199 -0.4405,0.3028 z m 20.6775,17.7564 c -0.075,-0.1807 -0.0812,-0.3836 -0.0159,-0.5687 0.155,-0.4391 0.5827,-0.5978 1.0118,-0.61 l 5.3266,-0.153 c 0.6924,-0.0199 1.3003,-0.113 1.8018,-0.3589 0.4871,-0.2389 0.8829,-0.6297 1.1713,-1.2511 l 0.2186,-0.4711 0.2316,0.4642 c 0.4767,0.9557 0.7259,1.9862 0.7205,2.9529 -0.004,0.7568 -0.1645,1.4755 -0.4937,2.0915 -0.3338,0.6245 -0.8383,1.1415 -1.5259,1.4845 -0.5857,0.2922 -1.304,0.4568 -2.1622,0.4521 l -5.0552,-0.0283 c -0.4209,-0.002 -0.7718,-0.2688 -0.8827,-0.6721 -0.0461,-0.168 -0.0478,-0.352 0.008,-0.5177 -0.1681,-0.0564 -0.3065,-0.1392 -0.4132,-0.2382 -0.1308,-0.1212 -0.2153,-0.267 -0.2512,-0.4213 -0.0468,-0.2008 -0.007,-0.4104 0.1009,-0.5839 -0.2831,-0.1521 -0.4835,-0.4519 -0.494,-0.7752 -0.0138,-0.4223 0.3007,-0.7172 0.7025,-0.7957 z"
   inkscape:connector-curvature="0"
   style="fill:#000000" />
   <path
   id="руки_2"
   class="fil5"
   d="m 125.656,121.495 4.9432,-0.0827 0.008,0.498 -5.2559,0.0879 c -0.1997,0.003 -0.4914,0.0564 -0.4834,0.3072 0.007,0.2318 0.2553,0.4244 0.4785,0.4211 l 5.254,-0.0781 0.006,0.498 -5.1826,0.0771 c -0.1113,0.0766 -0.2077,0.2005 -0.1744,0.3433 0.0508,0.2187 0.3242,0.3152 0.5181,0.3425 l 4.8359,0.0182 0,0.498 -4.6403,-0.0175 c -0.0937,0.0649 -0.0899,0.2223 -0.0635,0.3184 0.0516,0.1879 0.2086,0.3041 0.4042,0.305 l 5.0552,0.0283 c 0.7741,0.004 1.4174,-0.142 1.9375,-0.4014 0.5909,-0.2948 1.0237,-0.7376 1.3091,-1.2716 0.2901,-0.5428 0.4315,-1.182 0.4352,-1.8591 0.004,-0.741 -0.1568,-1.5265 -0.4676,-2.2826 -0.3108,0.4814 -0.6998,0.8125 -1.1576,1.037 -0.5747,0.2818 -1.2487,0.3879 -2.0069,0.4096 l -5.3203,0.1528 c -0.218,0.006 -0.4773,0.0405 -0.5611,0.2782 -0.0503,0.1426 0.0215,0.279 0.129,0.3724 z m -32.6799,-15.4587 -0.7356,3.116 c 1.2299,-0.3977 2.5609,-0.7629 3.879,-1.1244 1.4715,-0.4035 2.927,-0.8028 4.2164,-1.2427 0.6407,-0.2186 1.1324,-0.7019 1.5105,-1.2481 0.8365,-1.2087 1.8101,-1.8718 2.7075,-2.4831 0.3052,-0.2079 0.6014,-0.4097 0.8819,-0.6278 l 2.2651,-1.7614 c 0.163,-0.1267 0.511,-0.3675 0.3698,-0.6238 -0.0562,-0.1022 -0.1934,-0.0781 -0.2843,-0.0447 l -0.3604,0.2406 c -0.8975,0.5987 -1.9212,1.2816 -2.7206,1.8763 l -0.2969,-0.4004 c 0.8075,-0.6007 1.8373,-1.2877 2.7402,-1.89 0.2184,-0.1457 0.3945,-0.2633 0.6151,-0.4112 l 0,-9e-4 5e-4,-3e-4 4e-4,6e-4 c 0.019,-0.0127 0.0372,-0.0254 0.0548,-0.0381 0.1302,-0.0941 0.4829,-0.3961 0.3416,-0.6045 -0.1395,-0.2056 -0.5223,-0.0147 -0.6588,0.0797 l -0.007,-0.0097 c -0.1992,0.1203 -0.3966,0.2422 -0.5925,0.3657 -0.9346,0.5894 -1.841,1.2228 -2.7228,1.8886 l -0.3008,-0.3984 c 0.8982,-0.6782 1.8225,-1.3224 2.7747,-1.9226 0.2953,-0.1861 0.5933,-0.368 0.8949,-0.5461 0.154,-0.1097 0.4346,-0.3722 0.3091,-0.5942 -0.0934,-0.1649 -0.3245,-0.1127 -0.4572,-0.0324 l -0.2518,0.1525 0,9e-4 c -0.2599,0.1573 -0.5319,0.3224 -0.7832,0.4758 -0.989,0.6046 -2.0263,1.2611 -2.8841,1.9162 l 2e-4,3e-4 -4e-4,3e-4 -3e-4,-3e-4 -0.001,0.001 -0.1113,-0.1458 -0.1938,-0.2494 4e-4,-3e-4 0.002,-0.001 c 0.9159,-0.6997 2.0172,-1.392 3.0529,-2.0234 0.1181,-0.0943 0.2893,-0.2995 0.1902,-0.4623 -0.1035,-0.1698 -0.3786,-0.0534 -0.5005,0.0191 l -4.0767,2.4246 c -0.6243,0.3713 -0.8031,0.9005 -1.0061,1.5018 -0.3957,1.172 -0.9874,2.2494 -2.0037,3.003 -1.0046,0.745 -2.3927,1.1108 -3.5591,1.3817 -0.7696,0.1787 -1.5413,0.3154 -2.2985,0.4426 z"
   inkscape:connector-curvature="0"
   style="fill:#ffffff;fill-rule:nonzero" />
  </g>
  <path
   class="fil6"
   d="m 82.6001,158.391 0.9977,-7.5588 c -0.1471,-1.4381 -0.3785,-2.882 -0.7651,-4.2765 -0.2904,-1.0474 -0.6202,-1.8585 -0.9653,-2.4909 -0.3854,-0.7062 -0.7641,-1.253 -1.1022,-1.7412 -0.9231,-1.3328 -1.5571,-2.2483 -1.3354,-4.7559 0.1429,-1.6169 0.8763,-2.8668 1.6162,-4.1277 0.5843,-0.9959 1.1729,-1.999 1.4513,-3.183 0.1802,-0.7663 0.2398,-1.4746 0.1924,-2.1161 -0.0749,-1.0108 -0.4168,-1.856 -0.9722,-2.5011 -0.5558,-0.6454 -1.329,-1.0956 -2.2661,-1.316 -0.5936,-0.1395 -1.2531,-0.1872 -1.9652,-0.1345 -1.3742,0.1017 -2.3794,0.686 -3.4328,1.2983 -1.0017,0.5822 -2.0456,1.1889 -3.4974,1.4655 -1.0788,0.2055 -2.1628,0.2024 -3.0209,-0.1021 -0.429,-0.1523 -0.8034,-0.3798 -1.0958,-0.6935 -0.2948,-0.3162 -0.5035,-0.7168 -0.5978,-1.2123 -0.1279,-0.6714 -0.0429,-1.5178 0.3289,-2.5653 l 0.0802,-0.226 0.2284,0.0707 c 1.2615,0.3908 2.4443,0.3214 3.4199,-0.183 0.1899,-0.0982 0.3714,-0.2121 0.5431,-0.3414 0.1719,-0.1293 0.3365,-0.276 0.4927,-0.4396 l 10e-4,-10e-4 c 0.6025,-0.6313 1.0083,-1.3406 1.2381,-2.0791 0.3115,-1.001 0.3003,-2.0581 0.0187,-3.0492 -0.2823,-0.9934 -0.8362,-1.9201 -1.6091,-2.6578 -0.6387,-0.6097 -1.4274,-1.0905 -2.3362,-1.3733 -1.0873,-0.3383 -2.3773,-0.4127 -3.8889,-0.1984 -1.5272,0.2165 -3.2786,0.7279 -5.273,1.5592 l -0.0156,0.006 c -2.539,0.8635 -4.4119,0.6456 -5.5978,-0.1234 -0.5714,-0.3706 -0.9836,-0.8678 -1.2351,-1.4348 -0.2501,-0.564 -0.3403,-1.1961 -0.2693,-1.8398 0.1511,-1.3691 1.0345,-2.7934 2.6612,-3.7145 l 0.0127,-0.007 c 1.1079,-0.548 1.9767,-1.4644 2.5447,-2.568 0.4745,-0.9218 0.7392,-1.9728 0.7588,-3.0487 0.0196,-1.0765 -0.2059,-2.1783 -0.7118,-3.201 -0.8293,-1.6767 -2.1974,-2.7046 -3.8178,-3.5385 1.5553,-0.6824 3.1207,-1.1998 4.8508,-0.9672 1.4642,0.1969 2.9243,0.9062 4.3784,2.3198 l 0.0117,0.0127 c 3.2092,3.5888 6.4165,3.6881 9.6219,0.2978 l 0.3633,0.3418 c -3.4505,3.6495 -6.8993,3.5507 -10.3459,-0.2961 -1.3706,-1.3321 -2.7354,-1.999 -4.0958,-2.1819 -1.2051,-0.162 -2.4154,0.0543 -3.6291,0.5231 1.4694,0.863 2.4871,2.0089 3.1098,3.2678 0.542,1.0955 0.7836,2.276 0.7625,3.4295 -0.021,1.1542 -0.3048,2.2813 -0.8134,3.2694 -0.6141,1.1932 -1.5565,2.1861 -2.7612,2.7837 -1.472,0.8361 -2.2701,2.1118 -2.4047,3.3319 -0.0614,0.5561 0.0157,1.1003 0.2302,1.5839 0.2132,0.4807 0.5635,0.9027 1.0496,1.218 1.0669,0.6918 2.7868,0.8763 5.159,0.0711 2.0296,-0.8454 3.8192,-1.3665 5.3875,-1.5889 1.5862,-0.2249 2.9485,-0.1442 4.1057,0.2159 0.9843,0.3063 1.839,0.8275 2.5316,1.4886 0.8384,0.8002 1.4394,1.8059 1.7458,2.8843 0.3071,1.0809 0.3186,2.236 -0.0226,3.3324 -0.2518,0.8089 -0.6953,1.585 -1.3534,2.2745 l -10e-4,0.001 c -0.1734,0.1816 -0.3589,0.3465 -0.5552,0.4942 -0.1962,0.1478 -0.4012,0.2767 -0.6134,0.3864 -1.0316,0.5334 -2.2588,0.636 -3.5618,0.2839 -0.2765,0.8552 -0.3372,1.5425 -0.2339,2.0845 0.0755,0.3967 0.2405,0.7151 0.4728,0.9643 0.2346,0.2517 0.5413,0.4364 0.8966,0.5626 0.7712,0.2737 1.7644,0.2728 2.7631,0.0826 1.3665,-0.2603 2.3732,-0.8454 3.3392,-1.4069 1.1044,-0.6419 2.1581,-1.2544 3.6476,-1.3647 0.7625,-0.0565 1.472,-0.005 2.1137,0.1462 1.0412,0.2448 1.9044,0.7498 2.5298,1.4761 0.6256,0.7267 1.0101,1.6704 1.0932,2.7921 0.0511,0.6903 -0.0122,1.4485 -0.2041,2.2646 -0.295,1.2545 -0.9037,2.2918 -1.5079,3.3217 -0.7104,1.2106 -1.4146,2.4108 -1.5479,3.9187 -0.206,2.3307 0.3859,3.1854 1.2476,4.4297 0.3443,0.4972 0.73,1.0541 1.1295,1.7861 0.3624,0.6641 0.7072,1.5102 1.0083,2.5964 0.2002,0.7218 0.3816,1.5501 0.5363,2.5021 l 3.4497,-26.1368 c -1.7664,-0.5157 -3.3382,-1.2556 -4.7546,-2.1746 -3.0839,-2.0009 -5.4227,-4.8446 -7.4303,-8.0651 -2.1362,-3.4266 -2.9375,-7.5223 -2.547,-11.338 0.0761,-0.7427 0.1971,-1.4745 0.362,-2.188 0.1649,-0.7133 0.3744,-1.4107 0.6274,-2.0852 l 0,-10e-4 0.0014,-0.0037 3e-4,2e-4 c 0.5703,-1.519 1.3619,-2.9144 2.3644,-4.1082 -0.8829,0.4798 -1.8118,0.8789 -2.7765,1.1626 -3.4359,1.0107 -6.8773,0.4343 -10.2129,-1.8929 -2.4291,-1.6948 -5.0009,-2.6328 -7.3201,-2.7231 -1.2592,-0.049 -2.4428,0.1521 -3.4859,0.6179 -1.0383,0.4637 -1.9403,1.1912 -2.642,2.1969 -0.8686,1.2449 -1.4332,2.9184 -1.5753,5.0487 0.7227,-0.3465 1.6071,-0.6173 2.482,-0.7123 0.7097,-0.0771 1.4165,-0.0396 2.0326,0.1645 0.6369,0.211 1.1765,0.5973 1.5264,1.2135 0.1977,0.3483 0.3326,0.768 0.3869,1.2682 0.105,0.966 -0.3901,1.5284 -1.0888,1.854 -0.6436,0.2998 -1.4627,0.3835 -2.1051,0.4024 -0.2652,0.008 -0.5278,0.0122 -0.7823,0.0164 -2.3121,0.0383 -4.144,0.5749 -5.5859,2.27 -0.2111,0.2483 -0.4087,0.5095 -0.5904,0.7808 -1.1386,1.7 -1.5734,3.6357 -1.2804,5.6451 0.5547,3.8082 2.9673,6.207 6.1151,7.5946 3.1822,1.4027 7.1144,1.7793 10.6576,1.5353 0.8699,-0.0599 1.7315,-0.1684 2.5938,-0.294 -0.9559,2.2032 -1.2344,4.6256 -0.4669,6.9442 0.2726,0.8236 0.6779,1.5925 1.232,2.2485 0.5528,0.6545 1.2543,1.1985 2.1204,1.5742 1.7678,0.767 4.2291,0.8421 7.5272,-0.2497 0.9503,-0.3146 1.827,-0.4411 2.5672,-0.3574 0.5206,0.0589 0.9757,0.2215 1.3448,0.4952 0.3738,0.2772 0.6549,0.6638 0.8213,1.1667 0.1642,0.496 0.2159,1.1058 0.1334,1.8358 -0.152,1.3437 -0.488,2.6933 -1.142,3.9446 -0.6562,1.2558 -1.6301,2.408 -3.0548,3.3495 -0.8338,0.551 -1.1082,1.1104 -1.0559,1.6601 0.055,0.5772 0.4553,1.1749 0.9553,1.7526 2.3059,2.664 4.3823,5.342 6.0609,8.0684 1.409,2.2884 2.5374,4.61 3.2856,6.9851 z m 29.138,-22.9745 7.9226,60.0263 c 1.1695,-0.075 2.2037,0.1138 3.0039,0.5395 0.9766,0.5195 1.6038,1.4247 1.7157,2.5292 0.0955,0.9416 -0.1549,2.0765 -0.8462,3.3761 -0.5016,0.9429 -1.0502,1.7685 -1.6421,2.5041 -0.5315,0.6605 -1.0973,1.2467 -1.6948,1.7792 l 5.2964,5.2964 c 0.003,-0.0845 0.008,-0.1676 0.0132,-0.2496 0.0872,-1.341 0.4313,-2.4617 1.0184,-3.256 0.6869,-0.9292 1.7179,-1.3681 2.8578,-1.2944 2.5348,0.1649 4.5692,-0.6058 6.1514,-1.9182 1.8743,-1.5549 2.4966,-3.4394 2.3078,-5.9543 -0.1779,-2.3727 -1.4698,-4.2825 -3.7172,-5.1525 -1.2522,-0.4847 -2.8622,-0.7047 -4.8904,-0.5526 -2.3738,0.1781 -4.2716,0.0167 -5.7041,-0.4468 -2.6413,-0.8547 -3.7816,-2.9303 -3.2509,-5.6295 0.3076,-1.5645 1.1339,-3.392 2.4641,-5.4358 1.0175,-1.5635 1.8189,-3.4055 2.0898,-5.0362 0.156,-0.9385 0.1357,-1.8014 -0.1224,-2.4898 -0.2482,-0.662 -0.7242,-1.1668 -1.4867,-1.4232 -0.5875,-0.1974 -1.3455,-0.2518 -2.3004,-0.1242 -0.2175,0.029 -0.4618,0.0955 -0.704,0.1614 -0.8117,0.2207 -1.6039,0.4362 -2.116,-0.4338 -0.7218,-1.2262 -1.1077,-2.5351 -1.1006,-3.9782 0.007,-1.4337 0.4024,-2.9942 1.2422,-4.7318 1.4286,-2.9559 2.0845,-6.4191 0.9313,-8.8214 -0.2194,-0.4571 -0.5057,-0.8763 -0.8661,-1.2463 -0.3601,-0.3697 -0.7953,-0.6906 -1.3127,-0.9513 l -10e-4,-0.001 -0.001,-6e-4 -2e-4,4e-4 c -2.4924,-1.2544 -3.033,-7.0071 -3.5301,-12.2985 -0.026,-0.2767 -0.0506,-0.5392 -0.0867,-0.9169 l 0.4961,-0.0469 c 0.0219,0.2297 0.0549,0.5799 0.0867,0.9189 0.4847,5.1587 1.0117,10.7673 3.2586,11.8981 l 0.001,9e-4 10e-4,6e-4 2e-4,-3e-4 c 0.568,0.2861 1.0473,0.64 1.4455,1.0489 0.3981,0.4087 0.7147,0.8726 0.9579,1.3792 1.2254,2.5527 0.5546,6.1785 -0.9313,9.253 -0.8069,1.6696 -1.1868,3.1588 -1.1934,4.517 -0.007,1.3486 0.3553,2.5741 1.0323,3.7242 0.3178,0.5399 0.929,0.3737 1.5554,0.2034 0.2524,-0.0687 0.507,-0.1379 0.7704,-0.1731 1.0336,-0.1381 1.866,-0.0752 2.5231,0.1456 0.9198,0.3092 1.4947,0.9202 1.7953,1.7221 0.2906,0.7752 0.3172,1.7244 0.1478,2.7437 -0.2824,1.6999 -1.1121,3.6112 -2.164,5.2276 -1.2943,1.9887 -2.0964,3.757 -2.3919,5.26 -0.482,2.4516 0.5112,4.2821 2.913,5.0592 1.3709,0.4435 3.2052,0.5966 5.5147,0.4234 2.105,-0.1579 3.7876,0.0751 5.1072,0.5858 2.4258,0.939 3.8434,3.0169 4.0355,5.5802 0.1021,1.3613 -0.127,2.7916 -0.5899,4.1141 l 11.9281,-0.38 c -2.3319,-0.9588 -5.9939,-2.6382 -6.0552,-5.1585 l 0,-0.002 -6e-4,-0.0404 0,-0.003 c -0.001,-0.1973 0.006,-0.3842 0.0211,-0.5627 -0.4215,0.1255 -0.7459,0.3203 -0.9732,0.5584 -0.2326,0.2435 -0.3646,0.534 -0.3948,0.841 -0.0307,0.312 0.0428,0.6456 0.2212,0.9696 0.2427,0.4409 0.6788,0.8621 1.3112,1.1911 l -0.2305,0.4434 c -0.7242,-0.3767 -1.2299,-0.8706 -1.5182,-1.3943 -0.2275,-0.4132 -0.3203,-0.8462 -0.2798,-1.2586 0.0411,-0.4174 0.2181,-0.8099 0.5296,-1.136 0.3243,-0.3396 0.793,-0.6058 1.4034,-0.7495 0.0874,-0.5036 0.2266,-0.9455 0.3642,-1.3825 0.3351,-1.0647 0.6603,-2.098 0.1134,-3.9473 -0.4233,-1.4316 -1.7974,-2.3768 -3.0826,-2.9829 -2.5313,-1.194 -5.5493,-1.4162 -8.2827,-0.9196 -0.3428,0.0623 -0.6664,0.136 -0.965,0.2189 l -9e-4,0 -0.004,0.001 1e-4,2e-4 c -1.6222,0.451 -3.099,0.6697 -3.8525,0.0566 -0.768,-0.6249 -0.7476,-2.0369 0.6887,-4.8012 2.3207,-4.4663 2.7662,-8.6937 0.7344,-12.4549 -0.3954,-0.732 -0.8849,-1.4474 -1.4727,-2.1444 -0.5912,-0.701 -1.28,-1.3823 -2.0706,-2.0418 l -0.004,-0.004 c -1.1394,-0.9498 -2.0679,-1.9486 -2.6943,-3.0846 -0.6319,-1.1461 -0.9551,-2.427 -0.8766,-3.9302 0.0662,-1.2653 0.0284,-2.5358 -0.0653,-3.8086 -0.0934,-1.2695 -0.2439,-2.5491 -0.4024,-3.8294 -0.1165,-0.9407 -0.3757,-1.1982 -0.8631,-1.6824 -0.1625,-0.1615 -0.348,-0.3457 -0.5537,-0.5744 -2.1015,-2.3357 -3.2675,-5.2584 -3.807,-8.3022 -0.1036,-0.5848 -0.1845,-1.18 -0.2448,-1.7812 -0.0514,-0.513 -0.0872,-1.028 -0.1085,-1.5428 -0.3255,-0.0252 -0.6513,-0.0805 -0.9771,-0.1612 -1.1937,-0.2958 -2.3777,-0.934 -3.5476,-1.6756 z m -0.9383,-7.1088 0.8527,6.4607 c 1.2476,0.8125 2.5062,1.5305 3.7523,1.8393 1.2664,0.3139 2.5322,0.2036 3.7821,-0.67 -0.2741,-0.2652 -0.554,-0.5421 -0.8441,-0.8289 -0.8076,-0.7985 -1.6941,-1.6747 -2.7413,-2.5836 l 0.3262,-0.377 c 1.0607,0.9206 1.9524,1.802 2.7647,2.6051 0.8341,0.8245 1.5842,1.5661 2.3401,2.1738 2.9172,2.3453 4.7118,3.5813 6.4445,3.0978 1.6826,-0.4695 3.4017,-2.5365 6.1055,-6.738 -0.1378,0.0526 -0.2799,0.1026 -0.4263,0.1504 l -2e-4,-4e-4 -7e-4,7e-4 c -0.4904,0.1597 -0.9784,0.2618 -1.4598,0.3114 -0.3723,0.0385 -0.7402,0.0455 -1.1016,0.0238 -0.9703,1.3715 -1.9107,2.1613 -2.947,2.4235 -2.2644,0.5729 -4.8644,-1.3765 -9.1047,-5.2794 -2.7965,-0.1968 -5.4795,-1.1198 -7.7424,-2.6092 z m 14.3512,1.6891 c 1.1946,1.7365 3.0631,3.0255 5.1797,3.2533 l 0.0263,0.003 c 1.0645,-1.5768 2.1927,-3.9156 3.5618,-7.0963 l 0.459,0.1973 c -1.3051,3.032 -2.4048,5.3198 -3.4539,6.9318 0.238,0.003 0.4785,-0.008 0.7208,-0.0329 0.4456,-0.0459 0.8989,-0.1409 1.3563,-0.2899 l 1e-4,4e-4 8e-4,-7e-4 c 1.0968,-0.3575 1.9251,-0.8483 2.4703,-1.5446 0.543,-0.6935 0.8147,-1.6035 0.8027,-2.8038 -0.015,-1.5035 -0.4208,-3.134 -0.9067,-4.2823 -0.0926,-0.2186 -0.1895,-0.4218 -0.2883,-0.6049 -0.0155,-0.0287 -0.0311,-0.0569 -0.0466,-0.0844 -0.3338,0.6145 -0.8344,1.1234 -1.5139,1.4624 -0.5109,0.2549 -1.1229,0.4126 -1.8405,0.4456 -0.4362,0.5088 -0.9084,0.9875 -1.4121,1.4334 -1.4756,1.3062 -3.2212,2.3312 -5.1158,3.0127 z m -5.8313,0.9558 c 3.8498,3.5139 6.2385,5.2572 8.2061,4.7593 0.8651,-0.2189 1.6706,-0.8716 2.5048,-1.997 -2.2118,-0.3205 -4.145,-1.712 -5.3677,-3.5512 -1.5923,0.5164 -3.28,0.7929 -4.9947,0.7929 l 0,0.001 -4e-4,0 -8e-4,0 0,-0.001 c -0.1159,0 -0.2317,-0.002 -0.3473,-0.004 z"
   id="path62"
   style="fill:url(#id3);fill-rule:nonzero"
   inkscape:connector-curvature="0" />
  <path
   class="fil5"
   d="m 96.0486,79.8537 -0.3549,1.1752 c 0.4532,2.5311 1.3409,4.1789 2.3468,4.9337 0.6732,0.5051 1.3466,0.5962 2.087,0.1344 0.6848,-0.4272 1.3309,-1.2714 1.8369,-2.528 0.1484,-0.3685 0.2841,-0.7713 0.4046,-1.208 0.1145,-0.4155 0.2161,-0.8646 0.302,-1.3474 l -0.3501,-1.1595 c -0.2963,0.0717 -0.5928,0.0915 -0.8821,0.0657 -0.8431,-0.075 -1.6141,-0.5389 -2.1372,-1.1919 -0.0403,-0.0503 -0.0793,-0.1019 -0.117,-0.1549 -0.5237,0.7343 -1.319,1.2402 -2.1844,1.3392 -0.3175,0.0363 -0.641,0.0163 -0.9516,-0.0585 z"
   id="path64"
   inkscape:connector-curvature="0"
   style="fill:#ffffff;fill-rule:nonzero" />
  <path
   class="fil5"
   d="m 101.049,85.9838 c -0.217,0.2193 -0.442,0.4004 -0.6722,0.543 -0.9319,0.5774 -1.7604,0.49 -2.6346,-0.1658 -0.1443,-0.1083 -0.2861,-0.2326 -0.4249,-0.3729 l -0.4451,4.3116 c 0.7689,0.0944 1.5376,0.134 2.3062,0.1247 l 0.0059,0 c 0.7699,0.0093 1.54,-0.0304 2.3101,-0.1252 l -0.4454,-4.3154 z"
   id="path66"
   inkscape:connector-curvature="0"
   style="fill:#ffffff;fill-rule:nonzero" />
  <path
   class="fil7"
   d="m 109.607,94.0959 c 0.0412,-2.0997 1.2179,-3.6434 2.9392,-4.5552 0.2394,-0.1268 0.4891,-0.2411 0.7477,-0.3429 l -0.0338,0 c -0.859,0.0066 -1.7634,0.0965 -2.7124,0.2779 -0.9503,0.1817 -1.9421,0.455 -2.9741,0.8284 l -1e-4,-2e-4 -5.6153,2.2296 1.4674,4.1577 -0.4707,0.166 -1.6268,-4.6093 4.187,-1.6625 -0.914,-0.457 c -1.8061,0.5751 -3.6131,0.8156 -5.4203,0.794 -1.8072,0.0216 -3.6141,-0.2189 -5.4203,-0.794 l -0.9387,0.4694 4.156,1.6501 -1.6268,4.6093 -0.4707,-0.166 1.4674,-4.1577 -5.6116,-2.2281 0,0 -0.0012,-4e-4 -0.0029,-9e-4 c -1.2236,-0.4427 -2.3888,-0.7447 -3.494,-0.9198 -1.1013,-0.1745 -2.1445,-0.2232 -3.1274,-0.1602 -5.0311,0.3223 -8.474,3.59 -10.0858,7.8837 l 0,0.001 -0.0014,0.0037 -3e-4,-1e-4 c -0.244,0.6507 -0.447,1.327 -0.6076,2.0218 -0.1606,0.6948 -0.2784,1.4064 -0.3522,2.1275 -0.3798,3.7112 0.3988,7.6935 2.4747,11.0235 1.9732,3.1654 4.2661,5.9566 7.278,7.9108 2.8885,1.874 6.4475,2.9833 11.0341,2.9221 l -4.1411,-4.6127 c -1.0093,-0.1917 -1.9905,-0.5254 -2.9114,-0.9802 -2.4268,-1.1988 -4.4567,-3.2462 -5.6093,-5.7945 l 0.4551,-0.2051 c 1.1044,2.4417 3.0494,4.4035 5.3749,5.5523 0.8322,0.4111 1.7155,0.7191 2.6248,0.9064 l 2.8129,-11.9166 c -3.4692,0.2973 -7.7081,-0.5223 -9.9688,-3.4205 -0.35,-0.4488 -0.6438,-0.9418 -0.8711,-1.4793 l -9e-4,-0.002 0.459,-0.1934 9e-4,0.002 c 0.2097,0.4959 0.4811,0.9512 0.8047,1.3661 0.6103,0.7825 1.4001,1.4087 2.2649,1.8883 0.4406,-0.3127 0.8521,-0.6753 1.2005,-1.089 0.8923,-1.0593 1.2234,-2.2831 0.747,-3.3835 l 0.457,-0.1973 c 0.558,1.2887 0.1903,2.698 -0.8231,3.9011 -0.3214,0.3816 -0.689,0.7225 -1.086,1.024 0.7159,0.3427 1.4954,0.6073 2.3128,0.7952 0.5106,-0.3295 0.9633,-0.7053 1.3303,-1.1543 0.3942,-0.4821 0.6898,-1.051 0.8519,-1.7408 l 0.4863,0.1133 c -0.181,0.7701 -0.5111,1.4053 -0.9515,1.9439 -0.2994,0.3663 -0.6496,0.6871 -1.0386,0.9748 1.3302,0.2323 2.7386,0.2712 4.1214,0.1214 0.8024,-0.0867 1.6076,-0.2439 2.411,-0.4304 1.0923,-0.2537 2.4261,-0.593 3.3735,-1.2958 0.9334,-0.6921 1.4652,-1.6864 1.8279,-2.7608 0.2348,-0.6953 0.4415,-1.3074 1.2249,-1.7733 l 2.8051,-1.6683 0,-3.5132 5.2119,0 z m -4.2356,-4.1389 -2.3985,-7.9432 c -0.1413,0.5916 -0.3184,1.1762 -0.5457,1.7407 -0.2725,0.6767 -0.5876,1.2458 -0.9315,1.7065 l 0.4924,4.7698 c 0.9028,-0.139 1.7836,-0.3574 2.6519,-0.6395 l 0.7314,0.3657 z m 17.3517,4.1389 c -0.7277,-1.0579 -1.6041,-1.9895 -2.623,-2.7486 -0.2214,0.052 -0.4328,0.1173 -0.6336,0.1952 -0.2113,0.082 -0.412,0.1786 -0.6009,0.2887 -0.8714,0.5077 -1.471,1.2988 -1.7146,2.2647 l 5.5721,0 z m -6.0851,0 c 0.2555,-1.1531 0.9502,-2.0978 1.9776,-2.6963 0.2091,-0.1218 0.4332,-0.2296 0.6712,-0.3219 0.0928,-0.036 0.1876,-0.0695 0.2843,-0.1005 -0.5712,-0.3745 -1.1829,-0.6973 -1.8344,-0.961 -0.3268,0.0504 -0.6319,0.1265 -0.9152,0.2258 -0.2923,0.1025 -0.5643,0.2309 -0.8156,0.3822 -1.2127,0.7303 -1.9149,1.9951 -2.0923,3.4717 l 2.7244,0 z m -3.2271,0 c 0.1831,-1.6518 0.9676,-3.0746 2.3372,-3.8994 0.2778,-0.1673 0.581,-0.3101 0.9093,-0.4252 0.0666,-0.0234 0.134,-0.0454 0.2024,-0.0664 -0.6557,-0.2015 -1.3473,-0.3463 -2.074,-0.4284 -0.3382,0.0696 -0.6677,0.1586 -0.9853,0.2668 -0.3587,0.1223 -0.7009,0.2688 -1.0219,0.4388 -1.562,0.8273 -2.631,2.222 -2.6733,4.1138 l 3.3056,0 z m -22.1816,-4.1305 0.972,0.386 0.1828,-0.0914 3.3313,-11.0325 c 0.4122,0.1363 0.7915,0.2386 1.2281,0.1886 1.1165,-0.1277 1.7429,-0.9191 2.2381,-1.8262 0.5129,0.9144 1.1042,1.7225 2.268,1.8119 0.3864,0.0296 0.7883,-0.0351 1.2032,-0.1773 l 3.3336,11.04 0.1492,0.0746 0.991,-0.3935 -3.1168,-10.3761 c -0.2175,-0.7245 -0.3737,-1.4767 -0.711,-2.1587 l 4e-4,-2e-4 -0.001,-0.001 c -0.4187,-0.8457 -1.0902,-1.5441 -1.9153,-1.9959 -0.743,-0.4066 -1.5974,-0.5992 -2.4441,-0.5554 -1.2024,0.0625 -2.2828,0.5882 -3.0662,1.4019 -0.3259,0.3386 -0.6002,0.7276 -0.8087,1.1488 l -5e-4,5e-4 2e-4,1e-4 c -0.3377,0.682 -0.4938,1.4341 -0.7112,2.1586 l -6e-4,0.0012 2e-4,1e-4 -3.1227,10.3959 z m 4.1628,-7.938 -2.393,7.9251 0.7225,-0.3612 c 0.8694,0.2826 1.7517,0.5011 2.6557,0.64 l 0.492,-4.7664 c -0.6035,-0.8091 -1.1216,-1.9565 -1.4772,-3.4375 z m -13.1822,120.897 0.581,-4.5457 -4.966,0 -0.6,4.5457 4.985,0 z m 32.5465,-4.5447 0.5808,4.5447 4.8082,0 -0.5999,-4.5447 -4.7891,0 z m -22.5417,-69.8025 -10.1181,79.1618 33.3539,0 -10.1181,-79.1618 0.4941,-0.0625 8.8659,69.365 4.7871,0 -8.2911,-62.8185 -0.1051,-0.0695 0.08,-0.1208 -0.9165,-6.9441 c -0.4088,-0.2952 -0.8022,-0.6094 -1.178,-0.9421 -2.8322,-2.5068 -4.6726,-6.0475 -4.6727,-10.1802 l -0.001,0 0,-4e-4 0,-13.0351 c -0.7315,0.5124 -1.4872,1.1108 -2.1381,2.0513 -0.44,0.6356 -1.0165,1.1838 -1.7605,1.4376 -1.2859,0.4388 -2.7577,0.8425 -4.2457,1.2505 -1.4124,0.3874 -2.8397,0.7789 -4.1441,1.2124 l -2.0014,8.4788 4.1234,4.5929 1.1546,-12.8034 0.4961,0.043 -1.2231,13.5633 c -2.3194,0.0784 -4.6214,-0.0789 -6.8724,-0.6719 l -9.8933,74.9572 4.9639,0 8.8661,-69.366 0.4941,0.0625 z"
   id="path68"
   style="fill:url(#id2);fill-rule:nonzero"
   inkscape:connector-curvature="0" />
  <path
   class="fil8"
   d="m 128.036,196.559 c 0.9111,-0.5061 1.8986,-0.6417 2.8079,-0.4798 1.5506,0.2759 2.8397,1.4206 3.1994,2.9692 0.3666,1.5775 -0.2909,3.529 -1.5052,4.6302 -1.1059,1.0029 -2.6076,1.3261 -4.0988,1.2023 -0.9014,-0.0748 -1.7028,-0.0631 -2.399,0.1434 -0.6788,0.2014 -1.2677,0.5937 -1.7675,1.2826 l -0.4043,-0.293 c 0.5705,-0.7863 1.2476,-1.2356 2.0312,-1.4681 0.7664,-0.2273 1.6246,-0.2422 2.5806,-0.1629 1.366,0.1134 2.7326,-0.1745 3.7238,-1.0734 1.0819,-0.9811 1.6781,-2.7505 1.3529,-4.1498 -0.3143,-1.353 -1.446,-2.3476 -2.799,-2.5883 -0.8035,-0.143 -1.6758,-0.0235 -2.4798,0.4231 l -0.2422,-0.4355 z m -43.5794,5.8525 6.2982,0 6.297,-92.853 0.498,0.0332 -6.2947,92.8198 14.8086,0 -4.9485,-92.8237 0.498,-0.0254 4.9498,92.8491 6.5287,0 0,0.5 -28.6351,0 0,-0.5 z"
   id="path70"
   inkscape:connector-curvature="0"
   style="fill:#1f1a17;fill-rule:nonzero" />
  <path
   id="лицо"
   class="fil2"
   d="m 101.899,81.514 c -0.4861,-0.2161 -1.3681,-0.2771 -1.8383,0 0.3874,0.9442 1.6009,0.5428 1.8383,0 z m -3.1395,3.521 0.3938,0.0853 0.3847,-0.0895 0.0906,0.3891 -0.4723,0.1099 -0.4812,-0.1042 0.0844,-0.3906 z m -0.639,-0.3822 0.6866,-0.0676 0.3413,0.0631 0.339,-0.0685 0.6647,0.073 -0.0422,0.3969 -0.607,-0.0667 -0.3522,0.0712 -0.3604,-0.0666 -0.6307,0.0621 -0.0391,-0.3969 z m 1.0045,-3.7249 -0.1281,2.8067 -0.3984,-0.0172 0.1281,-2.8067 0.3984,0.0172 z m 0.5587,-0.5778 0.0068,-0.0061 0,-8e-4 c 0.6954,-0.6119 1.653,-0.6742 2.3833,-0.0074 l -0.2688,0.2953 c -0.5781,-0.5278 -1.306,-0.4672 -1.8504,0.0121 l -4e-4,-4e-4 -0.0064,0.0057 -0.2641,-0.2984 z m -1.1809,0.3392 -0.0042,-0.0037 C 97.9447,80.1968 97.134,80.1219 96.5511,80.6541 l -0.2688,-0.2953 c 0.7351,-0.6713 1.7766,-0.5927 2.4804,0.0284 l 0.0042,0.0037 -0.2641,0.2984 z m -2.1327,0.8247 c 0.486,-0.2161 1.368,-0.2771 1.8383,0 -0.3875,0.9442 -1.6009,0.5428 -1.8383,0 z"
   inkscape:connector-curvature="0"
   style="fill:#000000" />
 </g>
</svg>