<?xml version="1.0" encoding="UTF-8" standalone="no"?>
<!-- Creator: CorelDRAW -->

<svg
   xmlns:dc="http://purl.org/dc/elements/1.1/"
   xmlns:cc="http://creativecommons.org/ns#"
   xmlns:rdf="http://www.w3.org/1999/02/22-rdf-syntax-ns#"
   xmlns:svg="http://www.w3.org/2000/svg"
   xmlns="http://www.w3.org/2000/svg"
   xmlns:sodipodi="http://sodipodi.sourceforge.net/DTD/sodipodi-0.dtd"
   xmlns:inkscape="http://www.inkscape.org/namespaces/inkscape"
   xml:space="preserve"
   width="300"
   height="359"
   style="fill-rule:evenodd"
   viewBox="0 0 84.666667 101.31778"
   id="svg2"
   version="1.1"
   inkscape:version="0.48.1 "
   sodipodi:docname="заславль.svg"><metadata
   id="metadata20"><rdf:RDF><cc:Work
       rdf:about=""><dc:format>image/svg+xml</dc:format><dc:type
         rdf:resource="http://purl.org/dc/dcmitype/StillImage" /></cc:Work></rdf:RDF></metadata><sodipodi:namedview
   pagecolor="#ffffff"
   bordercolor="#666666"
   borderopacity="1"
   objecttolerance="10"
   gridtolerance="10"
   guidetolerance="10"
   inkscape:pageopacity="0"
   inkscape:pageshadow="2"
   inkscape:window-width="640"
   inkscape:window-height="480"
   id="namedview18"
   showgrid="false"
   fit-margin-top="0"
   fit-margin-left="0"
   fit-margin-right="0"
   fit-margin-bottom="0"
   inkscape:zoom="0.72701949"
   inkscape:cx="149.99998"
   inkscape:cy="179.5"
   inkscape:window-x="0"
   inkscape:window-y="0"
   inkscape:window-maximized="0"
   inkscape:current-layer="svg2" />
 <defs
   id="defs4"><style
     type="text/css"
     id="style6">
   
    .fil0 {fill:black}
    .fil1 {fill:#D40028}
    .fil3 {fill:#FCDB00}
    .fil2 {fill:black;fill-rule:nonzero}
   
  </style></defs>
 <path
   id="path3003"
   d="m 62.583283,48.409221 c 0.828323,0 1.500012,0.671689 1.500012,1.500012 l 0,1.499658 c 0,0.828322 -0.671689,1.500011 -1.500012,1.500011 l -1.500011,0 0,-4.499681 1.500011,0 z m 0,5.999692 c 1.656645,0 3.000023,-1.343378 3.000023,-3.000022 l 0,-1.499658 c 0,-1.656645 -1.343378,-3.000023 -3.000023,-3.000023 l -3.000022,0 0,7.499703 3.000022,0 z m -6.000044,-7.499703 1.500011,0 0,7.499703 -1.500011,0 0,-7.499703 z m -3.000022,0 1.500011,0 0,7.499703 -1.500011,0 -3.000022,-4.708525 0,4.708525 -1.500011,0 0,-7.499703 1.500011,0 3.000022,4.708525 0,-4.708525 z m -22.499884,0 4.499998,0 0,1.500011 -2.999987,0 0,1.500012 2.999987,0 0,1.500011 -2.999987,0 0,1.499658 2.999987,0 0,1.500011 -4.499998,0 0,-7.499703 z m -5.999974,-3.52e-4 1.499976,0 0,6.000044 3.000022,0 0,1.500011 -4.499998,0 0,-7.500055 z m 15.750399,6.000044 1.499588,0 c 1.242271,0 2.250157,-1.007533 2.250157,-2.250017 0,-1.24213 -1.026583,-2.24543 -2.250157,-2.250016 l -1.499588,0 0,1.500011 1.499588,0 c 0.41409,0 0.750146,0.336197 0.750146,0.750005 0,0.414161 -0.336056,0.750006 -0.750146,0.750006 l -1.499588,0 0,1.500011 z m 1.499588,-7.500055 c 2.898916,0 5.249827,2.351263 5.249827,5.250038 0,2.899128 -2.350911,5.250039 -5.249827,5.250039 -2.899022,0 -5.250004,-2.350911 -5.250004,-5.250039 0,-2.898775 2.350982,-5.250038 5.250004,-5.250038 z m 0,1.500011 c 2.070593,0 3.750168,1.679575 3.750168,3.750027 0,2.070806 -1.679575,3.750028 -3.750168,3.750028 -2.0707,0 -3.749993,-1.679222 -3.749993,-3.750028 0,-2.070452 1.679293,-3.750027 3.749993,-3.750027 z"
   style="fill:#a90000;stroke:none"
   inkscape:connector-curvature="0" /><path
   style="fill:#000000"
   inkscape:connector-curvature="0"
   id="path10"
   d="M -5.13656e-6,66.569947 C 0.09944253,67.417279 0.22637863,68.257139 0.38440112,69.08737 3.866077,87.394127 21.325547,101.31778 42.333328,101.31778 c 21.007349,0 38.466531,-13.922934 41.948783,-32.229117 0.157878,-0.830662 0.284958,-1.670953 0.38455,-2.518716 l 0,-66.56994815264 -84.66666613656,0 0,66.56994815264 z"
   class="fil0" /><path
   style="fill:#d40028"
   inkscape:connector-curvature="0"
   id="path12"
   d="m 81.609976,76.261962 c 1.302031,-3.07115 2.184251,-6.333008 2.584488,-9.726938 l 0,-66.06910709 -83.72284828,0 0,66.06925109 c 0.4002373,3.394217 1.28260148,6.656362 2.58491978,9.727944 6.0986896,14.3831 21.3859985,24.584578 39.2765045,24.584578 17.890938,0 33.178535,-10.202053 39.276936,-24.585728 z"
   class="fil1" /><path
   style="fill:#000000;fill-rule:nonzero"
   inkscape:connector-curvature="0"
   id="path14"
   d="m 38.162426,53.102586 7.960995,0 c -0.879054,3.439775 -1.447676,6.9241 -1.807904,10.453983 2.204831,-2.892515 4.637485,-5.598202 7.238668,-8.140057 -2.396531,-7.127742 -5.727668,-13.91747 -9.411261,-20.462167 -3.683594,6.544697 -7.014731,13.334425 -9.411261,20.462167 2.601182,2.541855 5.033836,5.247542 7.238667,8.140057 -0.360228,-3.529883 -0.928849,-7.014208 -1.807904,-10.453983 z m -14.990405,8.985235 c 0.301654,-1.445899 0.648785,-2.88303 1.034918,-4.308665 -1.088455,0.0115 -1.983628,0.865872 -2.138772,1.917996 -0.132981,0.901225 0.254016,1.766235 0.981956,2.308465 l 0.0014,0 c 0.03915,0.02802 0.07959,0.05504 0.120459,0.0822 z m 12.653457,15.543153 -6.18173,0 c 1.17495,4.032016 4.99872,6.302397 8.874301,7.112939 l -5.614116,-3.307702 2.921545,-3.805237 z m 4.822133,0 -4.809612,0 4.817527,4.61233 c 0.0072,-1.5373 0.0058,-3.075031 -0.0072,-4.61233 z m 1.495313,14.741808 c -3.503552,0.0086 -7.040924,-0.636793 -10.243542,-2.085278 -5.08061,-2.29783 -8.995481,-6.498278 -9.889646,-12.65653 l -4.765717,0 c -4.577183,0 -7.7998056,-2.727532 -7.6599169,-6.978424 l 0,-56.645692 c 9.4629279,4.533432 18.8661299,9.012253 26.5880759,16.329983 0.760609,-1.334664 1.536186,-2.661137 2.323564,-3.98028 l 0,-10.402102 -7.161672,0 0,-6.3401935 7.163111,0 0,-6.1070907 7.291486,0 0,6.1070907 7.16311,0 0,6.3401935 -7.161671,0 0,10.402102 c 0.787378,1.319143 1.562955,2.645616 2.323564,3.98028 7.721946,-7.31773 17.125148,-11.796551 26.588075,-16.329983 l 0,56.645692 c 0.139889,4.250892 -3.082733,6.978424 -7.659917,6.978424 l -4.765716,0 c -0.894166,6.158252 -4.809036,10.3587 -9.889646,12.65653 -3.202618,1.448485 -6.739991,2.094045 -10.243542,2.085278 z M 17.067863,26.05074 l 0,30.475956 c 1.598647,-3.490361 5.304403,-5.343399 8.921075,-4.49003 1.788043,-5.117913 4.014174,-10.074293 6.489716,-14.895438 C 27.998903,32.618431 22.657369,29.05262 17.067863,26.05074 z m 0.909277,44.675822 4.019355,0 c 0.05786,-0.851644 0.110674,-1.705156 0.197025,-2.554501 -2.250454,-0.876076 -4.08858,-2.299123 -5.125657,-4.560737 l 0,6.054348 c 0,0.820171 0.108515,1.018639 0.909277,1.06089 z m 12.614311,-7.613204 c -0.531779,2.506932 -0.878766,5.060427 -1.106158,7.613204 l 9.10745,0 c -2.574846,-2.624633 -5.150411,-5.280884 -8.001292,-7.613204 z m 15.101654,7.613204 9.107449,0 c -0.227391,-2.552777 -0.574379,-5.106272 -1.106157,-7.613204 -2.850882,2.33232 -5.426447,4.988571 -8.001292,7.613204 z m 20.615603,0 c 0.800762,-0.04225 0.909276,-0.240719 0.909276,-1.06089 l 0,-6.054348 c -1.037076,2.261614 -2.875203,3.684661 -5.125656,4.560737 0.08635,0.849345 0.139169,1.702857 0.197024,2.554501 l 4.019356,0 z M 67.217984,26.05074 c -5.589505,3.00188 -10.93104,6.567691 -15.41079,11.090488 2.475541,4.821145 4.701672,9.777525 6.489716,14.895438 3.616671,-0.853369 7.322428,0.999669 8.921074,4.49003 l 0,-30.475956 z M 43.638237,77.630974 c -0.01439,1.537299 -0.01482,3.07503 -0.0072,4.61233 l 4.817527,-4.61233 -4.809612,0 z m 4.822132,0 2.921546,3.805237 -5.614116,3.307702 c 3.87558,-0.810542 7.69935,-3.080923 8.874301,-7.112939 l -6.181731,0 z M 61.113826,62.087821 c 0.04087,-0.02716 0.08131,-0.05418 0.12046,-0.0822 l 0.0014,0 c 0.72794,-0.54223 1.114936,-1.40724 0.981956,-2.308465 -0.155144,-1.052124 -1.050317,-1.906211 -2.138773,-1.917996 0.386134,1.425635 0.733265,2.862766 1.034918,4.308665 z"
   class="fil2" /><path
   style="fill:#fcdb00"
   inkscape:connector-curvature="0"
   id="path16"
   d="M 42.143212,92.014362 C 32.838018,92.055607 23.587514,87.22124 22.322471,77.272553 l -5.078164,0 c -3.851114,0 -7.2841459,-2.116751 -7.2868803,-6.315619 l -0.01324,0 0,-0.0029 0,-56.373068 c 5.6316738,2.752107 11.3220668,5.407208 16.6074728,8.800994 3.22104,2.068176 6.560236,4.546079 9.707014,7.528127 0.847824,-1.495336 1.715364,-2.981186 2.597153,-4.457408 l 0,-10.857385 -7.161672,0 0,-5.6216278 7.161672,0 0,-6.1070908 6.574772,0 0,6.1070908 7.161671,0 0,5.6216278 -7.161671,0 0,10.857385 c 0.881788,1.476222 1.749329,2.962072 2.597152,4.457408 3.146778,-2.982048 6.485975,-5.459951 9.707014,-7.528127 5.285406,-3.393786 10.975799,-6.048887 16.607473,-8.800994 l 0,56.373068 0,0.0029 -0.01295,0 c -0.0029,4.198868 -3.435765,6.315619 -7.28688,6.315619 l -5.078164,0 C 60.699197,87.22124 51.448693,92.055607 42.143499,92.014362 z M 38.6257,53.462731 c 0.887401,3.47053 1.460917,7.285827 1.823015,11.33322 -2.709553,-3.690266 -5.418818,-6.643715 -8.128227,-9.278409 0.413333,-1.241825 0.858185,-2.481207 1.332253,-3.717715 2.278517,-5.94254 5.225536,-11.816671 8.490471,-17.574108 3.264934,5.757437 6.211953,11.631568 8.49047,17.574108 0.474068,1.236508 0.91892,2.47589 1.332254,3.717715 -2.70941,2.634694 -5.418675,5.588143 -8.128228,9.278409 0.362099,-4.047393 0.935614,-7.86269 1.823015,-11.33322 l -7.035023,0 z m -8.260345,9.008229 c 3.11857,2.481495 6.164028,5.643903 9.082263,8.615747 l -10.354646,0 c 0.228254,-2.695627 0.662744,-5.930611 1.272383,-8.615747 z m -8.034681,8.615747 -4.353246,0 c -1.086585,0 -1.269073,-0.206515 -1.269073,-1.420173 l 0,-8.653832 c 0.232284,1.984823 1.185312,3.879393 2.80713,5.219231 l 0.01972,0.02055 0.0052,0.0043 0.0058,-0.0072 c 0.89359,0.73265 1.955565,1.295718 3.034521,1.686905 -0.101894,0.868027 -0.18551,2.279722 -0.249986,3.150911 z m -5.622319,-11.966132 0,-33.668257 c 1.932105,1.0241 4.033027,2.21347 6.196986,3.603033 3.362367,2.159002 6.851095,4.794558 10.011113,8.019913 -2.087538,4.048543 -3.981793,8.158739 -5.578568,12.323403 -0.391027,1.020076 -0.764207,2.043601 -1.117959,3.070001 -0.939788,-0.2686 -1.912389,-0.342613 -2.862682,-0.22793 -1.923615,0.23181 -3.762029,1.225586 -5.059886,2.925569 l -0.01972,0.02055 -0.004,0.0057 0.0073,0.0057 c -0.893014,1.180317 -1.411265,2.539268 -1.572597,3.922364 z m 12.468953,18.151978 11.825206,0 c 0.02044,1.915553 0.01972,3.854387 0.0072,5.806587 l -5.137314,-4.91844 -2.436252,3.173187 6.872539,4.048974 C 35.113801,84.855434 30.3347,82.163974 29.17774,77.272553 z M 23.423879,62.652182 c 0.349002,-1.738642 0.765646,-3.46981 1.242736,-5.192788 -0.24423,-0.04311 -0.492921,-0.04944 -0.738878,-0.01983 -0.635256,0.0766 -1.243311,0.402109 -1.677657,0.958854 l 0.0023,0.0014 -0.004,0.0057 -0.01972,0.02041 -0.005,0.0072 -0.0048,-0.0043 c -0.426862,0.565799 -0.593663,1.267982 -0.518106,1.94602 0.07354,0.66065 0.386709,1.292988 0.921798,1.744966 l 0.0017,-0.0014 0.0052,0.0043 0.0033,0.0072 0.01123,0.01006 -0.0037,0.0057 c 0.229406,0.188839 0.495223,0.359139 0.783636,0.509032 z m 37.438665,0 c 0.288413,-0.149893 0.55423,-0.320193 0.783637,-0.509032 l -0.0043,-0.0057 0.01151,-0.01006 0.0029,-0.0072 0.0058,-0.0043 0.0014,0.0014 c 0.535089,-0.451978 0.848255,-1.084316 0.921798,-1.744965 0.07556,-0.678039 -0.09125,-1.380222 -0.518107,-1.94602 l -0.0043,0.0043 -0.0058,-0.0072 -0.01972,-0.02041 -0.0043,-0.0057 0.0029,-0.0014 c -0.434346,-0.556744 -1.042402,-0.882255 -1.677658,-0.958854 -0.245957,-0.0296 -0.494648,-0.02328 -0.738877,0.01983 0.477089,1.722977 0.893733,3.454145 1.242736,5.192787 z m -5.753429,14.620371 c -1.15696,4.891421 -5.936061,7.582881 -11.130943,8.110308 l 6.872539,-4.048974 -2.436252,-3.173187 -5.137314,4.91844 c -0.01295,-1.9522 -0.01439,-3.891034 0.0072,-5.806587 l 11.825206,0 z M 67.578068,59.120575 c -0.161332,-1.383096 -0.679583,-2.742047 -1.572597,-3.922363 l 0.0072,-0.0057 -0.0043,-0.0057 -0.01972,-0.02055 c -1.297857,-1.699983 -3.136272,-2.69376 -5.059886,-2.925569 -0.950294,-0.114683 -1.922895,-0.04067 -2.862683,0.227929 -0.353751,-1.0264 -0.726932,-2.049925 -1.117958,-3.070001 -1.596776,-4.164663 -3.491031,-8.27486 -5.578568,-12.323403 3.160018,-3.225355 6.648745,-5.86091 10.011113,-8.019913 2.163958,-1.389563 4.26488,-2.578933 6.196986,-3.603033 l 0,33.668257 z m -5.622319,11.966132 c -0.06447,-0.871189 -0.148092,-2.282883 -0.249986,-3.150911 1.078957,-0.391187 2.140931,-0.954255 3.034521,-1.686905 l 0.0058,0.0072 0.0058,-0.0043 0.01972,-0.02055 c 1.621818,-1.339838 2.574846,-3.234409 2.80713,-5.219231 l 0,8.653831 c 0,1.213658 -0.182488,1.420174 -1.269073,1.420174 l -4.353246,0 z M 53.921068,62.47096 c 0.609639,2.685136 1.044129,5.92012 1.272384,8.615747 l -10.354647,0 c 2.918235,-2.971844 5.963694,-6.134252 9.082263,-8.615747 z"
   class="fil3" />
</svg>