<?xml version="1.0" encoding="UTF-8" standalone="no"?>
<!-- Created with Inkscape (http://www.inkscape.org/) -->
<svg id="svg4098" xmlns:rdf="http://www.w3.org/1999/02/22-rdf-syntax-ns#" xmlns="http://www.w3.org/2000/svg" height="420" width="350" version="1.1" xmlns:cc="http://creativecommons.org/ns#" xmlns:dc="http://purl.org/dc/elements/1.1/">
 <metadata id="metadata4103">
  <rdf:RDF>
   <cc:Work rdf:about="">
    <dc:format>image/svg+xml</dc:format>
    <dc:type rdf:resource="http://purl.org/dc/dcmitype/StillImage"/>
    <dc:title/>
   </cc:Work>
  </rdf:RDF>
 </metadata>
 <g id="layer1" transform="translate(-200,-322.36219)">
  <path id="path4002" d="m446.75,524.39c2.9349,0,5.315,2.38,5.315,5.315v5.3142c0,2.9349-2.38,5.315-5.315,5.315h-5.315v-15.944h5.315zm0,21.259c5.8698,0,10.63-4.7601,10.63-10.63v-5.3142c0-5.8698-4.7601-10.63-10.63-10.63h-10.63v26.574h10.63zm-21.26-26.574,5.315,0,0,26.574-5.315,0,0-26.574zm-10.63,0,5.315,0,0,26.574-5.315,0-10.63-16.684,0,16.684-5.315,0,0-26.574,5.315,0,10.63,16.684,0-16.684zm-79.724,0.00035,15.945,0,0,5.315-10.63,0,0,5.3146,10.63,0,0,5.315-10.63,0,0,5.3146,10.63,0,0,5.315-15.945,0,0-26.574zm-21.26-0.0007,5.315,0,0,21.26,10.63,0,0,5.315-15.945,0,0-26.575zm55.809,21.26,5.3135,0c4.4022,0,7.9724-3.5702,7.9724-7.9724s-3.6365-7.9572-7.9724-7.9724h-5.3135v5.315h5.3135c1.4673,0,2.6575,1.1902,2.6575,2.6575s-1.1902,2.6575-2.6575,2.6575h-5.3135v5.315zm5.31-26.58c10.272,0,18.602,8.3303,18.602,18.602s-8.3303,18.602-18.602,18.602-18.602-8.3303-18.602-18.602,8.3303-18.602,18.602-18.602zm0,5.315c7.3371,0,13.287,5.9503,13.287,13.287,0,7.3371-5.9503,13.287-13.287,13.287-7.3371,0-13.287-5.9503-13.287-13.287,0-7.3371,5.9503-13.287,13.287-13.287z" fill-rule="evenodd" class="fil0" fill="#a90000"/>
  <path id="path10" d="m200,598.32c0.41095,3.5127,0.93595,6.9941,1.589,10.436,14.393,75.888,86.568,133.61,173.41,133.61,86.841,0,159.02-57.716,173.41-133.6,0.65303-3.4431,1.1784-6.9264,1.5897-10.441v-275.96h-350v275.96z" fill-rule="evenodd" class="fil0" fill="#000"/>
  <path id="path12" d="m537.37,638.5c5.3828-12.731,9.0295-26.253,10.684-40.321v-273.88h-346.1v273.88c1.6545,14.07,5.3023,27.593,10.686,40.326,25.211,59.623,88.407,101.91,162.36,101.91,73.958,0,137.16-42.292,162.37-101.92z" fill-rule="evenodd" class="fil1" fill="#3c82c2"/>
  <path id="рушник" d="m472.05,442.95c17.173,9.8762,30.904,44.742,36.306,71.53,4.4771,22.199,8.0726,46.041,12.074,66.289-6.4998,1.9581-15.848-0.38486-25.418-2.1128-0.315-31.354-7.2698-57.079-15.471-80.21-6.2095-17.514-15.296-31.019-26.903-45.619l-3.1467-13.353c7.3798-1.0735,14.859,0.086,22.558,3.4759zm-182.33,28.71c-15.033,32.469-27.241,65.682-33.66,100.95-10.616,0.51392-21.068,1.6663-27.883-1.093,6.9012-19.596,13.814-42.812,21.479-64.285,9.2499-25.914,18.81-50.056,27.139-65.766l3.867-3.2681,7.6274,11.023,3.5687,17.403-2.1372,5.0335z" fill-rule="evenodd" class="fil2 str0" stroke="#000" stroke-dasharray="none" stroke-miterlimit="4" stroke-width="0.99999994" fill="#ffe600"/>
  <g id="рука" fill-rule="evenodd" transform="matrix(3.6790558,0,0,3.6840391,-7.0569,30.560868)" stroke-miterlimit="4" stroke-dasharray="none" stroke-width="0.27162498">
   <path id="рука_0" d="m77.52,108.65c0.0166-0.323-0.1428-0.792-0.1684-1.0276-0.0504-0.4636,0.3289-0.7365,0.5506-0.3308,0.2753,0.5043,0.5343,0.9976,0.8753,1.431,0.2513,0.3195,0.3337,0.8139,0.3948,1.5193,0.0916,1.0554,0.6416,0.8269,1.2056,0.4869l0.4144,0.3514-1.2096,2.3436-0.5824-0.2011c-0.1897-0.5559-0.5281-0.9671-0.9252-1.3226-0.2856-0.2288-0.6488-0.3985-1.1426-0.3588-1.0399-0.0333-1.607-0.6788-2.2212-1.1965-0.3178-0.2845-0.6693-0.396-0.7857-0.8164-0.232-0.839-0.1629-1.6257-0.0708-2.4592,0.0328-0.2965,0.0999-0.8638,0.58-0.5077,0.5107,0.8546,1.0639,1.1335,1.4778,1.3781,0.491,0.2937,1.0394,0.1821,1.6074,0.7104z" class="fil3" fill="#FC9"/>
   <path id="_160264168" d="m75.356,109.98c-0.6222-0.3278-1.0477-0.6917-1.5717-1.2829m1.7586,0.5496c-0.5538-0.2734-1.2252-0.8369-1.7798-1.4478m1.9237,0.8127c-0.5186-0.366-1.2754-0.887-1.7954-1.725m5.1085,6.3288c-0.1897-0.5559-0.5281-0.9671-0.9252-1.3226-0.2856-0.2288-0.6488-0.3985-1.1426-0.3588-1.0399-0.0333-1.607-0.6788-2.2212-1.1965-0.3178-0.2845-0.6693-0.396-0.7857-0.8164-0.232-0.839-0.1629-1.6257-0.0708-2.4592,0.0328-0.2965,0.0999-0.8638,0.58-0.5077,0.5107,0.8546,1.0639,1.1335,1.4778,1.3781,0.491,0.2937,1.0394,0.1821,1.6074,0.7104m2.8579,2.0788c-0.564,0.34-1.114,0.5685-1.2056-0.4869-0.0611-0.7054-0.1435-1.1998-0.3948-1.5193-0.341-0.4334-0.6-0.9267-0.8753-1.431-0.2217-0.4057-0.6011-0.1329-0.5506,0.3308,0.0257,0.2357,0.0864,0.4763,0.1455,0.7237,0.1181,0.4947-0.275,0.7792,0.1429,1.6013" class="fil4 str1" stroke="#000" stroke-linecap="round" fill="none"/>
  </g>
  <g id="рука_1" fill-rule="evenodd" transform="matrix(3.6790558,0,0,3.6840391,-7.0569,30.560868)" stroke-miterlimit="4" stroke-dasharray="none" stroke-width="0.27162498">
   <path id="рука_2" d="m128.05,110.21c-0.1332-0.5147,0.2049-1.0568,0.2893-1.6155,0.0591-0.3921-0.3178-0.5399-0.5249-0.2551-0.388,0.5335-0.7349,1.1962-1.1084,1.885-0.2901,0.5352-0.6361,1.1056-0.9388,1.595-0.384,0.6205-0.6824,0.7492-1.0761,0.6888l-0.5929-0.0918,0.3161,2.0048,0.618,0.0513c0.481-0.3317,0.9622-0.6633,1.4435-0.9949,0.5538,0.001,1.1072-0.002,1.6607-0.2327,0.7283-0.3031,1.3959-0.8102,2.0401-1.247,0.2057-0.2725,0.4479-0.5382,0.6778-0.8063,0.4205-0.4903,0.6818-0.8566,0.7286-1.4278,0.03-0.366,0.044-0.8964-0.2778-1.3373-0.5683-0.2718-1.1478,0.0491-1.7854,0.8651-0.5258,0.6464-1.0156,0.9525-1.4698,0.9184z" class="fil3" fill="#FC9"/>
   <path id="_158408416" d="m124.7,112.51c0.3937,0.0604,0.6921-0.0683,1.0761-0.6888,0.3027-0.4894,0.6487-1.0598,0.9388-1.595,0.3735-0.6888,0.7204-1.3515,1.1084-1.885,0.2071-0.2848,0.5843-0.137,0.5249,0.2551-0.0844,0.559-0.4219,1.0775-0.2887,1.5922,0.1917,0.7392-0.0354,1.2675-0.4199,1.7857m-2.5984,2.5001c0.481-0.3317,0.9622-0.6633,1.4435-0.9949,0.5538,0.001,1.1072-0.002,1.6607-0.2327,0.7283-0.3031,1.3959-0.8102,2.0401-1.247,0.2057-0.2725,0.4479-0.5382,0.6778-0.8063,0.4205-0.4903,0.6818-0.8566,0.7286-1.4278,0.03-0.366,0.044-0.8964-0.2778-1.3373-0.5683-0.2718-1.1478,0.0491-1.7854,0.8651-0.5258,0.6464-1.0156,0.9525-1.4698,0.9184m1.6804-0.1661,1.4806-1.6418m-1.2766,2.2346,1.609-1.667m-1.3982,2.2269,1.4176-1.4208" class="fil4 str1" stroke="#000" stroke-linecap="round" fill="none"/>
  </g>
  <ellipse id="ellipse21" d="m 112.9282,95.618401 c 0,7.361739 -4.77274,13.329599 -10.6602,13.329599 -5.887468,0 -10.660202,-5.96786 -10.660202,-13.329599 0,-7.361735 4.772734,-13.329601 10.660202,-13.329601 5.88746,0 10.6602,5.967866 10.6602,13.329601 z" fill-rule="evenodd" cx="102.27" cy="95.618" rx="10.66" ry="13.33" transform="matrix(3.6790558,0,0,3.6840391,-7.0569,30.560868)" class="fil2 str0" stroke="#000" stroke-dasharray="none" stroke-miterlimit="4" stroke-width="0.27162" fill="#ffe600"/>
  <ellipse id="ellipse23" d="m 112.0507,95.618401 c 0,6.745829 -4.37987,12.214399 -9.7827,12.214399 -5.402838,0 -9.782702,-5.46857 -9.782702,-12.214399 0,-6.745827 4.379864,-12.214401 9.782702,-12.214401 5.40283,0 9.7827,5.468574 9.7827,12.214401 z" cx="102.27" cy="95.618" rx="9.7827" ry="12.214" transform="matrix(3.6790558,0,0,3.6840391,-7.0569,30.560868)" class="fil4 str0" stroke="#000" stroke-dasharray="none" stroke-miterlimit="4" stroke-width="0.27162" fill="none"/>
  <path id="path25" d="m372.85,353.98c0.30133-2.0649-2.9686-3.4623-1.7211-6.7849,5.2213-0.0211,8.2054,1.1376,7.9184,4.0208-0.0887,1.4828-0.51801,2.5147-1.2913,3.099-0.63317,0.61634-0.94773,1.3417-0.43046,2.1776,0.57651,1.509-0.42897,3.2117-1.6353,4.9425l1.3808,1.0264,2.2045-1.6129c0.31678-0.72504,0.8907-1.5352,1.2049-2.2616,1.2075-1.0592,1.6081-2.4558,1.2056-4.1884-0.25505-0.97443-0.28605-1.9544-0.0864-2.9321-0.12898-6.2095-4.1393-7.4171-9.5534-6.7013-1.9205-0.35994-2.4653-1.0875-1.635-2.3449,4.7074-0.24204,9.038,0.32896,12.823,2.0947,3.6007,2.682,3.2574,5.8915,1.1195,7.2867v2.6809c0.91644,1.2563,1.4046,2.5965,1.635,3.8535l0.63645,3.2545-4.5289,3.6089-23.513-0.062-3.4704-2.5306c-0.96134-2.9034-2.8531-5.1919-1.4632-8.46v-2.4282c-2.1379-1.3963-2.4812-4.6062,1.1184-7.2881,3.7869-1.7658,8.1164-2.3368,12.824-2.0948,0.83074,1.2577,0.28623,1.985-1.635,2.3464-5.4141-0.71692-9.4243,0.49145-9.5534,6.7005,0.19941,0.97848,0.0828,1.9573-0.17292,2.9321-0.40321,1.7326-0.002,3.1281,1.2056,4.1884,0.31418,0.72612,0.63059,1.4522,0.94589,2.1776l1.4418,1.4073,2.0879-0.65319c-1.0342-1.7308-1.8671-3.4335-1.2914-4.9425,0.51765-0.83591,0.46062-1.5613-0.17217-2.1776-0.77334-0.58429-1.2019-1.6162-1.291-3.099-0.28584-2.8831,2.696-4.0418,7.9181-4.0208,1.2483,3.3226-2.022,4.72-1.7214,6.7849l3.8924,2.0855,3.6036-2.0855z" fill-rule="evenodd" stroke="#000" stroke-dasharray="none" stroke-miterlimit="4" stroke-width="0.99999994" class="fil5 str0" fill="#df212c"/>
  <path id="path27" d="m383.75,374.17c0.78398-6.3826,2.9955-11.825,8.0682-15.802l-5.6636-0.72318c-0.37163,2.2167-1.376,4.927-3.7585,5.4561-2.8075,0.62331-3.2957-2.182-3.4856-4.8818-2.1412,2.0818-4.4546,5.1087-6.6043,3.7938-1.5919-0.97444-0.59601-5.2343,1.0644-7.3806l-4.0871-6.1324-4.2129,6.1579c1.3708,2.798,2.5485,5.6484,1.0599,7.2388-2.6555,2.8367-5.2677-2.2771-7.6473-3.6244,0.32964,3.2526-0.86899,5.2188-2.8086,4.5756-1.3267-0.43951-2.9631-2.9962-4.7765-4.7922l-4.7452,0.76001c3.9863,3.4048,7.6903,7.3581,9.059,15.08l28.538,0.27489z" fill-rule="evenodd" stroke="#000" stroke-dasharray="none" stroke-miterlimit="4" stroke-width="0.99999994" class="fil2 str0" fill="#ffe600"/>
  <path id="path29" d="m389.31,410.68c4.0484-13.932-0.55518-32.182-6.6356-38.066-4.8795-4.7207-12.256-5.154-18.506-3.9136-9.3246,1.849-13.224,9.6625-14.164,19.12-0.97826,9.8393,1.1663,21.511,5.9314,28.775,11.432,17.391,27.64,10.732,33.375-5.9155z" fill-rule="evenodd" stroke="#000" stroke-dasharray="none" stroke-miterlimit="4" stroke-width="0.99999994" class="fil2 str0" fill="#ffe600"/>
  <path id="path31" d="m453.08,639.58c13.572-18.622,13.373-26.265,16.395-34.383,2.7254-7.322,9.3717-15.822,7.3449-41.078l-199.88,0.52682c-2.5345,6.6493-1.8263,22.648,1.3903,27.366l16.561,25.065c1.2056,13.68,9.0626,25.141,18.402,31.003l139.79-8.5002z" fill-rule="evenodd" stroke="#000" stroke-dasharray="none" stroke-miterlimit="4" stroke-width="0.99999994" class="fil2 str0" fill="#ffe600"/>
  <path id="path33" d="m452.35,453.63c9.3551,15.516,14.109,31.215,18.299,47.113,4.9906,18.936,7.6808,39.266,12.778,57.56-12.035,10.647-25.902,21.632-17.794,32.707,6.8806,9.3983,6.2312,17.269-6.8681,25.805-5.6234,3.6642-7.375,12.044-9.365,20.104l-133.83,14.74c-3.377-2.4513-3.0161-8.0857-3.9285-12.123-2.3226-10.277-7.4-17.645-14.887-21.464-17.221-8.7846-25.35-16.319-18.079-26.474,4.5926-6.4143,7.7124-10.77,7.3828-15.24-0.45216-6.1251-5.8615-11.079-16.717-15.363,5.2397-29.967,12.893-59.486,20.697-88.824l30.485-28.997c4.5028-2.8654,9.1921-6.541,12.745-10.514,4.884-5.4623,10.834-7.0233,17.245-10.516,1.0548-0.57617,2.1254-1.0094,3.2431-1.4652l8.4239-0.74893,5.0072-0.62595c2.2255,3.4966,9.507,2.6503,13.744-1.1796l7.4634-1.0776c3.1776-0.36006,7.134,1.8718,11.648,3.9209,4.846,2.1972,9.1053,5.2347,13.487,8.1944,5.3122,3.5875,10.735,7.2977,16.047,11.037l22.775,13.429z" fill-rule="evenodd" stroke="#000" stroke-dasharray="none" stroke-miterlimit="4" stroke-width="0.99999994" class="fil2 str0" fill="#ffe600"/>
  <path id="path35" d="m445.57,634.5c0.64385-9.2517,3.2004-17.654,11.146-22.058,8.7396-4.8441,10.738-10.701,5.4641-18.907-11.828-18.403,6.3993-25.854,16.611-35.923-4.5153-18.323-7.7941-36.645-12.327-54.967-3.5672-14.422-8.1557-31.787-16.474-44.194l-65.572,0.51909c-3.9366-3.1944-7.6381-5.8646-10.148-6.443l-2.9271-1.59-2.3255,1.387c-1.6339,2.952-4.3766,4.9167-7.9052,6.646l-68.699,17.376c-7.0027,26.36-13.523,53.798-18.612,83.897,9.4846,1.9661,18.104,8.7584,18.18,16.062,0.0625,6.0868-6.6411,10.909-9.6711,15.867-5.2596,8.6056,0.52095,14.833,12.374,19.742,9.382,4.0646,17.556,12.553,19.905,23.696,0.67694,3.2088,0.2222,7.7995,1.8053,10.09l129.18-11.199z" fill-rule="evenodd" stroke="#000" stroke-dasharray="none" stroke-miterlimit="4" stroke-width="0.99999994" class="fil5 str0" fill="#df212c"/>
  <path id="path37" d="m346.29,631.21c-19.966-1.7824-31.522,4.5174-30.789,22.631-14.319,11.357-12.508,23.625-3.3638,36.309-0.51728,13.098,5.175,20.89,17.077,23.377,11.385,14.184,23.803,10.856,34.67,6.7145,11.47,11.692,27.684,13.35,43.209-5.4712,15.637,2.6761,31.531,3.5411,38.81-20.393,36.926-22.316,11.965-71.768-26.132-64.66-24.494,0.49734-48.987,0.99506-73.481,1.4924z" fill-rule="evenodd" stroke="#000" stroke-dasharray="none" stroke-miterlimit="4" stroke-width="1.20000005" class="fil6 str0" fill="#FFF"/>
  <path id="path39" d="m371.93,685.51c-0.82521,5.6299-2.9554,11.09-9.9073,14.057-4.1007,1.7499-6.3824-0.47119-5.661-3.8543,0.61661-2.8919,1.3381-5.7445,1.4153-8.6159-0.75531-11.804,12.093-11.08,14.153-1.587zm41.044-2.4941c0.82557,4.2326,3.2199,7.3696,3.7743,10.656,0.93119,5.5194-3.8023,8.0511-9.4353,4.5344-6.449-4.0252-9.0038-9.8441-12.03-14.964-2.2332-7.4864,11.482-11.32,17.691-0.22712z" fill-rule="evenodd" stroke="#000" stroke-dasharray="none" stroke-miterlimit="4" stroke-width="0.99999994" class="fil2 str0" fill="#ffe600"/>
  <path id="path41" d="m411.8,595.28c2.4763,8.4261,3.6963,18.171,6.8405,28.794,5.0819,17.171,14.702,30.171,27.834,41.491-1.7148,2.8257-1.9712,5.7928-9.6711,7.0288-4.0069,0.64286-7.8633,2.2668-11.794,3.8542-3.4598,2.4178-6.7227,4.559-8.4916,7.2554-6.7625-1.2854-13.524-1.8085-20.286-0.68045-3.2269,0.53823-6.14,0.68705-6.8408-1.8136-4.484,0.22748-8.4144-0.0748-12.266-0.45351-2.0412,3.0279-4.4035,5.6384-8.9637,4.9882-2.6004-0.37081-5.1098-1.1679-7.7841,0.22641-2.4444,1.2747-5.0326,1.897-7.5483,0-5.4259-1.5119-9.2782-4.8375-11.558-9.976,8.7683-15.982,6.9641-45.822-0.94367-72.099-1.7236-5.7287-3.4204-9.9012-2.8307-15.191l43.698-8.0223,30.606,14.597z" fill-rule="evenodd" stroke="#000" stroke-dasharray="none" stroke-miterlimit="4" stroke-width="0.99999994" class="fil1 str0" fill="#3c82c2"/>
  <path id="path43" d="m436.48,655.82c3.0522,3.4092,6.3898,6.6416,9.9916,9.7465-1.7148,2.8256-1.9712,5.7928-9.6711,7.0288-4.0069,0.6429-7.8633,2.2668-11.794,3.8542-3.4598,2.4178-6.7228,4.559-8.4916,7.2554-6.7625-1.2854-13.524-1.8085-20.286-0.68049-3.2269,0.53826-6.14,0.68708-6.8408-1.8136-4.484,0.22748-8.4144-0.0748-12.266-0.45348-2.0411,3.0279-4.4035,5.6384-8.9636,4.9882-2.6004-0.37081-5.1098-1.1679-7.7842,0.22642-2.4444,1.2747-5.0326,1.8969-7.5483,0-5.4259-1.5119-9.2782-4.8375-11.558-9.976,1.4896-2.7148,2.6743-5.8315,3.5753-9.261,4.2114,3.9423,8.0924,9.3007,13.644,7.4473,6.5653-0.64286,12.305-0.56737,16.984,1.8136,1.3362-0.52938,2.3586-1.6626,3.0665-3.4008,4.8854,2.1272,10.41-5.351,15.332,1.3602,7.155,0.83111,10.263-3.0327,14.62-3.5617,1.2774,3.8074,3.5628,4.7274,5.4137,6.8066,1.2351-1.947,4.4575-4.1199,7.2543-5.2571-0.76447-2.2742-1.3215-4.7472-1.6706-7.4204,3.6721-6.9242,13.089-4.0009,16.993-8.7028z" fill-rule="evenodd" stroke="#000" stroke-dasharray="none" stroke-miterlimit="4" stroke-width="0.99999994" class="fil2 str0" fill="#ffe600"/>
  <path id="path45" d="m451.08,441.43,2.025,11.09-2.9613,4.2543,0.1575,1.215-0.1575,14.128c-5.2224,9.8087-9.6906,15.608-16.183,17.865-8.0866,2.8102-17.561-0.40388-28.695-7.8385l-4.5646-1.6272-1.0861,4.6275c2.4414,11.239,5.1916,22.406,8.2867,33.485,3.54,12.671,6.8085,26.392,11.642,38.646,3.2685,8.288,7.7845,15.977,13.397,23.139-2.969,5.9118-7.6837,9.4146-13.599,11.268-20.853,10.649-41.197,12.591-41.588-2.2841-12.653-3.1443-4.5874,6.8037-12.808,6.5469-8.9088-0.609-14.021-5.4822-21.031-5.9391-12.655-1.5834-17.923-6.1884-18.468-18.54-0.50992-11.536,4.0054-25.136,8.0233-38.376,5.8059-19.127,14.323-40.575,13.153-47.573l-2.3973-4.464-5.5355,0.48301c-19.466,8.9883-33.893,11.717-44.112-2.1187-4.8762-6.6033-8.0251-13.147-8.4754-19.702-0.3065-4.464-0.45657-9.398-2.607-12.076,3.6967-2.3681,5.9417-5.263,4.998-9.3217l0.40983-0.11491,13.831,2.7815c49.486,32.985,92.674,29.461,131.55-0.0329l14.916-0.95972,1.8759,1.439z" fill-rule="evenodd" stroke="#000" stroke-dasharray="none" stroke-miterlimit="4" stroke-width="0.99999994" class="fil2 str0" fill="#ffe600"/>
  <path id="path47" d="m433.94,477.13,16.513-19.136-4.0503-15.648c-4.491,1.7772-8.7289,3.4295-12.758,4.9632l-0.17568,10.532,0.47126,19.288zm-128.86-31.074c-2.4061-0.84587-4.877-1.7201-7.4361-2.6293-3.398,4.094-7.5825,7.738-11.572,11.37,1.3878,2.8323,5.6724,10.811,10.612,13.844,4.0687,2.4967,8.9567,3.9714,14.525,4.5936-0.00073-5.2357-0.76708-11.052-2.5433-17.472l-3.5845-9.7056z" fill-rule="evenodd" stroke="#000" stroke-dasharray="none" stroke-miterlimit="4" stroke-width="0.99999994" class="fil1 str0" fill="#3c82c2"/>
  <path id="path49" d="m288.46,438.57c3.3273-0.87902,7.2393,2.7078,10.591,6.5259,4.203,4.7878,8.5752,9.4558,12.918,14.126,4.8832,5.2505,10.9,11.47,17.586,16.492,38.739,29.103,80.905,14.132,107.55-22.613,2.0227-2.7907,3.6408-6.8298,6.1598-8.9802,2.8653-2.4455,6.6756-2.6054,13.422-3.0471l1.3039-2.3305c-12.83-0.60495-21.646-0.229-28.309,1.3822-6.8813,1.6641-13.901,5.1374-20.437,7.9719-11.712,5.0873-22.322,11.986-33.782,12.542-14.496,0.70292-29.314-7.7125-42.358-13.211-3.5488-1.4953-7.1521-3.0555-10.157-3.9136-3.5595-1.0153-6.7452-0.2166-10.333-0.50876-2.8424-0.23148-5.2331-1.3436-7.1708-2.7796-2.7788-2.0594-5.8456-3.3108-8.2569-2.9528l-8.7227,1.2964z" fill-rule="evenodd" stroke="#000" stroke-dasharray="none" stroke-miterlimit="4" stroke-width="0.99999994" class="fil2 str0" fill="#ffe600"/>
  <path id="path51" d="m310.24,444.62c2.2188,4.3202,4.2666,8.5749,6.9273,12.404,11.856,17.065,33.654,30.088,55.072,30.419,24.726,0.38196,44.259-16.345,57.141-35.285l6.921-9.6227c-9.9007,3.0194-19.805,7.4001-29.704,12.625-11.269,5.9431-21.103,11.064-34.517,10.308-11.303-0.63661-20.333-5.266-30.248-9.9038-11.771-5.5051-22.909-10.361-31.592-10.945z" fill-rule="evenodd" stroke="#000" stroke-dasharray="none" stroke-miterlimit="4" stroke-width="0.99999994" class="fil1 str0" fill="#3c82c2"/>
  <path id="path53" d="m274.64,455.41c-2.8914,17.907-4.1014,35.268-4.8424,52.478-5.5197,24.481-11.086,35.809-14.542,48.043h-16.696c11.13-35.557,22.791-70.823,36.074-100.52l0.007,0.002z" fill-rule="evenodd" stroke="#000" stroke-dasharray="none" stroke-miterlimit="4" stroke-width="0.99999994" class="fil1 str0" fill="#3c82c2"/>
  <path id="path55" d="m467.79,445.87c7.5089,10.546,14.355,31.736,14.385,50.971,7.1153,16.107,14.22,48.671,15.497,62.506,5.047,0.63848,10.095,1.2765,15.143,1.915-2.6434-20.667-6.9247-46.679-13.826-68.754-5.246-16.782-16.044-37.79-30.029-47.448l-1.1714,0.81086z" fill-rule="evenodd" stroke="#000" stroke-dasharray="none" stroke-miterlimit="4" stroke-width="0.99999994" class="fil1 str0" fill="#3c82c2"/>
  <path id="path57" d="m515.1,570.99c0.43708,3.5179,0.87452,7.0362,1.3119,10.554m-5.0734-10.693c0.35054,3.5252,0.7016,7.0505,1.0526,10.576m-5.005-10.853c0.27117,3.484,0.54195,6.968,0.81309,10.452m-4.9744-11.075c0.21536,3.4947,0.43042,6.9894,0.64604,10.484m-4.8071-11.108c0.17529,3.3502,0.35054,6.7005,0.52608,10.051" stroke="#000" stroke-dasharray="none" stroke-miterlimit="4" stroke-width="0.99999994" class="fil4 str0" fill="none"/>
  <path id="path59" d="m252.78,563.26-0.9102,9.4617m-3.7151-9.1656-1.0614,9.6087m-3.0319-9.7572-1.4418,9.9049m-2.7288-10.126-1.9712,10.126m-2.1986-10.569-2.6541,10.126" stroke="#000" stroke-dasharray="none" stroke-miterlimit="4" stroke-width="0.99999994" class="fil4 str0" fill="none"/>
  <path id="path61" d="m370.16,471.84c0.0923,1.0094-0.7726,1.614-1.6681,1.1616-1.2406-0.6274-2.1578-1.7429-3.3354-2.4776-0.81675-0.50949-1.5323-0.12029-1.6677,0.92876-0.28878,2.2333-0.1637,4.499,0.15856,6.737,0.18029,1.2526,0.80903,1.4884,1.7476,0.92982,0.83846-0.49953,1.7369-0.90109,2.6206-1.317,0.70527-0.33194,1.3215,0.004,1.1913,0.92987-0.16593,1.1789-0.67988,2.3666-1.4293,3.4066-0.64347,0.89299-0.57945,1.2128,0.47644,1.7031,1.8138,0.8407,3.4635,0.96302,5.2426,0.62003,0.96024-0.18478,1.5577-0.68043,1.4297-1.5487-0.21228-1.4272-0.65192-2.843-0.6361-4.2588,0.007-0.90701,0.53604-1.2883,1.1924-0.851,0.86568,0.5773,1.5691,1.3425,2.3814,1.7794,1.1482,0.6193,1.8638,0.25877,1.9068-1.0061,0.0736-2.1809-0.0255-4.2352-0.31897-6.1954-0.19314-1.2912-0.45951-1.6213-1.6677-1.1616-0.99592,0.37783-1.9208,0.89374-3.0176,1.6272-0.84288,0.56402-1.2649,0.10212-0.95324-0.7744,0.45767-1.2872,0.85464-2.5976,1.3509-3.8716,0.21852-0.55886-0.0149-0.81011-0.79467-1.0072-1.3694-0.34725-2.689-0.40264-4.0503-0.31047-0.92454,0.0624-1.3664,0.31996-1.1913,1.085,0.29802,1.3012,0.91019,2.5446,1.032,3.8716z" fill-rule="evenodd" stroke="#000" stroke-dasharray="none" stroke-miterlimit="4" stroke-width="0.99999994" class="fil2 str0" fill="#ffe600"/>
  <path id="path63" d="m257.82,515.34c-0.48085-1.5488-0.81196-3.3591-0.90725-4.9178-0.0511-0.84215,0.38631-1.2238,1.564-0.97956,1.7652,0.36626,3.4992,0.67675,5.2471,1.7418,0.85723,0.52165,1.0872,1.3579,0.33481,2.231-0.82079,0.95306-1.6574,1.9113-2.5544,2.7947-0.70639,0.69552-1.0938,1.5432,0.33516,1.5241,1.2766-0.0166,2.2972-0.58577,3.5595-0.78138,0.83736-0.13022,1.0986,0.13351,0.9481,0.87017-0.38408,1.884-0.74722,3.9438-1.6195,6.0956-0.29544,0.73166-0.64752,0.62116-1.171,0.10871-0.60042-0.58758-1.3671-1.2002-1.9116-1.597-0.57173-0.41707-0.87525-0.28481-0.78254,0.43542,0.19276,1.4939,0.62802,3.2166,0.90799,4.699,0.14163,0.74934-0.25274,0.96447-1.2851,0.92581-1.7976-0.0678-3.5039-0.45757-5.1349-1.1973-1.2189-0.55406-1.0393-1.4611-0.33516-2.5044,0.55075-0.81528,1.0143-1.7738,1.7729-2.5217,0.64236-0.63368,0.33991-1.145-0.72661-1.1977-1.1136-0.055-2.0003,0.35965-3.1125,0.67233-0.82337,0.23149-1.3189-0.14386-1.3392-1.1969-0.0389-2.0483,0.1446-4.0919,0.55885-6.1498,0.16264-0.80829,0.57172-0.93094,1.4506-0.48999,1.0544,0.52901,2.2711,1.4998,3.4749,2.2513,0.67327,0.42037,0.9709-0.0248,0.72588-0.81635z" fill-rule="evenodd" stroke="#000" stroke-dasharray="none" stroke-miterlimit="4" stroke-width="0.99999994" class="fil2 str0" fill="#ffe600"/>
  <path id="path65" d="m499.85,517.83c0.61438-1.4824,1.2946-3.0334,1.5603-4.5697,0.14386-0.83074-0.20916-1.2595-1.3057-1.1524-1.643,0.16122-3.2519,0.27078-4.9601,1.1277-0.83772,0.41963-1.1424,1.2238-0.56067,2.1769,0.63463,1.0404,1.1129,1.8792,1.8248,2.8592,0.55993,0.77147,0.81342,1.6582-0.48015,1.4751-1.156-0.16412-1.8458-0.63661-2.9679-0.97592-0.74468-0.22489-1.0121,0.008-0.96063,0.75521,0.13146,1.9142,0.22323,4.0009,0.76638,6.2378,0.18397,0.76001,0.51578,0.69077,1.05,0.24183,0.61218-0.51429,1.5489-0.68816,2.0886-1.0197,0.56692-0.34806,0.82669-0.1823,0.65927,0.52165-0.34643,1.4611-1.1107,2.7759-1.5356,4.2157-0.21454,0.7276,0.11824,0.98622,1.0592,1.0662,1.6383,0.13933,3.2309-0.0521,4.7953-0.59978,1.1696-0.41008,1.1115-1.3318,0.59271-2.448-0.40512-0.87274-0.54489-1.5315-1.1468-2.3611-0.50992-0.70255-0.17692-1.1748,0.79688-1.1052,1.0165,0.0732,1.6022,0.23978,2.575,0.67787,0.72036,0.32411,1.213,0.008,1.3528-1.0345,0.2716-2.0295,0.34023-4.079,0.20215-6.17-0.0541-0.82119-0.41091-0.98956-1.2593-0.65244-1.0173,0.40429-2.4031,1.0205-3.5815,1.628-0.65931,0.34062-0.87783-0.13766-0.56473-0.89411z" fill-rule="evenodd" stroke="#000" stroke-dasharray="none" stroke-miterlimit="4" stroke-width="0.99999994" class="fil2 str0" fill="#ffe600"/>
  <polyline id="polyline67" transform="matrix(3.6790558,0,0,3.6840391,-7.0569,30.560868)" class="fil4 str0" stroke="#000" points="96.701,86.043,96.324,87.994,96.684,88.525,95.298,88.612,95.573,89.971,94.511,90.111,95.183,91.816,93.809,92.336,94.989,93.517,93.346,94.342,94.749,95.482,93.524,96.546,95.123,97.24,93.801,98.692,95.64,99.552,94.185,101.2,96.039,101.42,95.458,103.34,97.786,103.02" stroke-dasharray="none" stroke-miterlimit="4" stroke-width="0.27162498" fill="none"/>
  <polyline id="polyline69" transform="matrix(3.6790558,0,0,3.6840391,-7.0569,30.560868)" class="fil4 str0" stroke="#000" points="108.16,86.61,107.77,88.392,108.87,88.49,108.76,89.617,109.8,89.63,109.11,91.082,110.37,90.887,109.69,92.676,111.13,93.094,110.42,94.458,111.66,95.339,110.35,96.419,111.31,97.869,109.4,98.415,110.95,100.03,109.16,100.42,109.86,101.99,108.01,101.93" stroke-dasharray="none" stroke-miterlimit="4" stroke-width="0.27162498" fill="none"/>
  <path id="path71" d="m450.15,471.51c2.5003,10.768,2.8914,23.047,2.7924,34.215-0.2497,27.953-2.9918,61.993,5.4395,75.664m-162.65-100.69c1.6166,33.179,2.5441,69.559-3.8748,97.551" stroke="#000" stroke-dasharray="none" stroke-miterlimit="4" stroke-width="0.99999994" class="fil4 str0" fill="none"/>
  <path id="path73" d="m438.69,662.61c-5.8972,6.0458-12.738-0.83153-17.691,9.2956" stroke="#000" stroke-dasharray="none" stroke-miterlimit="4" stroke-width="0.99999994" class="fil4 str0" fill="none"/>
  <path id="path75" d="m387.42,490.16c6.7992,10.769,10.486,27.119,12.582,42.555,0.77961,5.7471,1.721,11.556,2.7328,17.344,2.6448,15.264,4.0315,30.077,16.452,41.649m-45.87-100.62c0.23216,10.096,0.10006,20.192,0.18981,30.291,0.20605,22.826,1.4919,45.307,4.2177,68.006m-11.652-98.668c-1.6228,18.644-2.3796,37.291-1.9058,55.936,0.41426,16.413-0.90505,32.824,0.62213,49.24m-9.5817-107.22c-1.7917,6.3303-4.175,12.489-5.8526,18.843-6.2971,23.85-8.7525,57.555-5.3663,82.431" stroke="#000" stroke-dasharray="none" stroke-miterlimit="4" stroke-width="0.99999994" class="fil4 str0" fill="none"/>
  <path id="path77" d="m433.47,457.84,0.7796,31.902m-125.58-33.982c3.7681,13.62,2.9907,24.523,0,32.929" stroke="#000" stroke-dasharray="none" stroke-miterlimit="4" stroke-width="0.99999994" class="fil4 str0" fill="none"/>
  <path id="path79" d="m358.49,640.17c1.8237,19.363,2.384,37.36-5.8972,45.799m37.034-43.532c1.0802,10.505,1.8241,21.009,4.246,31.515-1.2564,3.2526-3.0658,5.4432-4.9535,7.4819m-15.097-42.398c4.5635,6.5119,5.1911,19.172,4.7176,33.556m-3.0665,3.4008c0.86458,1.1332,1.4146,2.8713,1.6512,5.2147m32.316-48.293c2.3535,10.814,8.6314,20.758,10.049,31.605m1.6706,7.4204c2.0717,1.1229,3.0386,2.7763,3.8483,4.5063m-11.058,0.73606c1.1869,1.3329,2.1769,3.1484,2.5669,6.5193m-14.39-48.53c1.8855,16.271,5.1864,23.019,6.3644,35.209" stroke="#000" stroke-dasharray="none" stroke-miterlimit="4" stroke-width="0.99999994" class="fil4 str0" fill="none"/>
  <g id="лицо" fill-rule="evenodd" transform="matrix(3.6790558,0,0,3.6840391,-7.0569,30.560868)" stroke-miterlimit="4" stroke-dasharray="none" stroke-width="0.27162498">
   <path id="лицо_3" d="m105.46,105.2c0.0772-0.3504,0.1314-0.7025,0.1576-1.0556,0.0925-1.2493,0.001-2.484-0.1879-3.708-0.2685,1.4658-1.1694,2.4035-2.521,2.9416-0.183,0.073-0.3857,0.066-0.5679-0.025-0.287-0.1435-0.5476-0.3246-0.7873-0.5346,0.216,0.8074,0.193,1.8469,0.0702,2.7061l-0.001,0.007,0.104-0.013c0.6045,0.9485,2.5817,0.7197,3.7336-0.3184zm-1.2261-10.104c0.4286,1.7657,0.9178,3.5413,1.1957,5.3403-0.2686,1.4656-1.1694,2.4032-2.5209,2.9413-0.183,0.073-0.3857,0.066-0.5679-0.025-1.1235-0.5617-1.8751-1.7659-2.4529-2.828-0.1251-0.2312-0.1495-0.4045-0.2008-0.6616-0.0283-0.1414-0.0617-0.2828-0.0999-0.424-0.0775-0.2845-0.0443-0.3519,0.0035-0.6402,0.0864-0.5224,0.0035-1.0689-0.1151-1.6031-0.0999-0.4491-0.0684-0.955-0.0256-1.3822l-0.0006-0.0385c1.5597-0.5251,3.2085-0.8322,4.7845-0.679z" class="fil3" fill="#FC9"/>
   <path id="_161393112" d="m101.54,102.77c0.2307,0.8142,0.2093,1.8791,0.0839,2.7562,0.6049,0.9491,2.6868,0.7133,3.8384-0.3263m-0.0235-4.8105c-0.2573,1.4939-1.1633,2.4462-2.5299,2.9903-0.183,0.073-0.3857,0.066-0.5679-0.025-1.0979-0.5492-1.8087-1.6439-2.4529-2.828-0.1251-0.2312-0.1495-0.4045-0.2008-0.6616-0.0283-0.1414-0.0617-0.2828-0.0999-0.424-0.0775-0.2845-0.0443-0.3519,0.0035-0.6402,0.0864-0.5224,0.0035-1.0689-0.1151-1.6031-0.0999-0.4491-0.0684-0.955-0.0256-1.3822m-0.3301,0.079c1.6854-0.5898,3.3972-0.96,5.112-0.8047" class="fil4 str0" stroke="#000" fill="none"/>
   <path id="_161393760" d="m101.36,101.21c0.2555-0.0971,0.32588-0.16032,0.50818-0.0741,0.1884,0.0893,0.2279,0.0877,0.3582-0.0483,0.0911-0.095,0.1711-0.0593,0.3064-0.0613,0.1969-0.003,0.4615-0.0397,0.7003-0.0881,0.2479-0.0497,0.2026-0.0338,0.0663,0.1442-0.2051,0.2677-0.4955,0.5824-0.8624,0.6952-0.6335,0.1949-0.92948-0.18258-1.077-0.56758zm0.48308-4.4406c0.5854-0.5112,1.4456-0.5272,2.5812-0.1004m-4.8783,0.5026c0.3716-0.1792,0.7552-0.3275,1.1612-0.4022,0.1889-0.0345,0.4035,0.1059,0.4906,0.3999,0.294,0.9916-0.1791,2.4246-0.1264,2.6429,0.0861,0.3558,0.7176,0.3921,1.1709,0.1627" class="fil4 str0" stroke="#000" fill="none"/>
   <path id="_161394024" d="m100.71,97.826c0.0114,0.0321,0.0187,0.0673,0.0187,0.1038,0.0005,0.1748-0.1387,0.3015-0.3102,0.3015-0.1709,0-0.3096-0.1348-0.3096-0.3015,0-0.0135,0.002-0.0273,0.004-0.0404-0.1301,0.0563-0.2583,0.1409-0.3826,0.2514l-0.0375-0.2664c0.4294-0.2884,1.0509-0.3183,1.4434-0.0729v0.2c-0.1448-0.0885-0.287-0.147-0.4261-0.1755zm-0.8988,0.4965c0.4544,0.0915,0.9641,0.1157,1.2504-0.1636,0.0411,0.4044-0.5575,0.4558-1.0826,0.3391l-0.1678-0.1755zm3.4766-0.7825c0.0251,0.0439,0.0406,0.0948,0.0406,0.1487,0,0.1667-0.1387,0.3014-0.3101,0.3014-0.1708,0-0.3094-0.1347-0.3094-0.3014,0-0.0422,0.009-0.0828,0.0253-0.1191-0.1868,0.0419-0.3666,0.1193-0.5309,0.2367l-0.2399-0.1636c0.1692-0.4889,0.8807-0.7105,1.1637-0.6729-0.2684,0.112-0.7353,0.3267-0.8221,0.5152,0.4478-0.2475,1.3242-0.3526,1.8168,0.2949l-0.1651-0.0644c0.0156,0.0622-0.007,0.131-0.0594,0.1985-0.3568,0.4629-1.432,0.4821-1.7843,0.0079,0.6132,0.2511,1.1362,0.2789,1.7965-0.2262-0.2026-0.08-0.4128-0.135-0.6217-0.1557z" class="fil0" fill="#000"/>
  </g>
  <path id="path86" d="m376.4,380.88c1.9322,0.17444,3.8656,0.53343,5.7971,1.1022,1.8484,0.54563,1.3811,1.8652,0.7851,2.9657-0.3551,0.65464-0.60482,1.3657-0.98154,2.0093-1.0633,1.8133-0.91941,3.1963,0.58899,4.2109,0.81346,0.54633,1.6887,1.0153,2.4539,1.6261,1.2332,0.98585,1.3631,2.3018,0.49115,3.6369-0.56696,0.8672-0.95323,1.8457-1.5713,2.6783-1.4315,1.9286-1.1449,3.4468,0.19594,5.0711,2.0437,2.4742,4.0569,4.9757,6.0855,7.4642-2.7328,8.3381-5.353,17.802-16.656,28.344l-2.8465-1.6265c4.9991-6.9709,10.117-15.492,10.755-24.119,0.84141-11.377-2.4469-22.424-5.098-33.363z" fill-rule="evenodd" stroke="#000" stroke-dasharray="none" stroke-miterlimit="4" stroke-width="0.99999994" class="fil5 str0" fill="#df212c"/>
  <path id="path88" d="m357.59,383.84c0.46393,3.5153,0.70859,7.1043,0.65487,10.863-0.0677,4.7358-0.17695,9.916,1.0526,15.511,1.7968,8.1753,6.084,18.203,11.964,28.319l-2.2578,1.8184c-4.2707-3.2884-11.555-12.856-15.273-19.622,1.6699-3.2004,3.2306-5.9902,4.359-8.8904,1.6026-4.1187-0.52684-6.5543-3.3777-9.3858-1.0014-0.99506-1.1567-2.0299-0.39256-3.2526,0.51139-0.81714,0.93743-1.6866,1.4727-2.4886,0.80792-1.2117,0.70822-2.0104-0.19754-2.7744-0.57908-0.48813-0.98341-1.1461-1.4712-1.7223-2.0279-2.3913-1.9061-6.3387,0.49005-7.2723,0.98856-0.38527,1.9826-0.75488,2.9767-1.1034z" fill-rule="evenodd" stroke="#000" stroke-dasharray="none" stroke-miterlimit="4" stroke-width="0.99999994" class="fil5 str0" fill="#df212c"/>
  <g id="пряжка" fill-rule="evenodd" transform="matrix(3.6790558,0,0,3.6840391,-7.0569,30.560868)" stroke="#000" stroke-miterlimit="4" stroke-dasharray="none" fill="#ffe600">
   <ellipse id="_162011992" d="m 103.62233,112.952 c 0,0.39903 -0.3328,0.7225 -0.74333,0.7225 -0.41053,0 -0.74334,-0.32347 -0.74334,-0.7225 0,-0.39902 0.33281,-0.72249 0.74334,-0.72249 0.41053,0 0.74333,0.32347 0.74333,0.72249 z" cx="102.88" cy="112.95" rx="0.74334" ry="0.72249" stroke-width="0.27162" class="fil2 str0"/>
   <circle id="_162011632" stroke-width="0.079504" d="m 0.2145,0 c 0,0.11846508 -0.0960349,0.2145 -0.2145,0.2145 -0.11846508,0 -0.2145,-0.0960349 -0.2145,-0.2145 0,-0.11846508 0.0960349,-0.2145 0.2145,-0.2145 0.11846508,0 0.2145,0.0960349 0.2145,0.2145 z" cx="0" cy="0" transform="matrix(3.46112,-0.167894,0.172737,3.36408,102.805,111.51)" r="0.2145" class="fil2 str0"/>
   <circle id="_49988928" stroke-width="0.079504" d="m 0.2145,0 c 0,0.11846508 -0.0960349,0.2145 -0.2145,0.2145 -0.11846508,0 -0.2145,-0.0960349 -0.2145,-0.2145 0,-0.11846508 0.0960349,-0.2145 0.2145,-0.2145 0.11846508,0 0.2145,0.0960349 0.2145,0.2145 z" cx="0" cy="0" transform="matrix(3.46112,-0.167894,0.172737,3.36408,102.953,114.394)" r="0.2145" class="fil2 str0"/>
   <circle id="_158408392" stroke-width="0.079504" d="m 0.2145,0 c 0,0.11846508 -0.0960349,0.2145 -0.2145,0.2145 -0.11846508,0 -0.2145,-0.0960349 -0.2145,-0.2145 0,-0.11846508 0.0960349,-0.2145 0.2145,-0.2145 0.11846508,0 0.2145,0.0960349 0.2145,0.2145 z" cx="0" cy="0" transform="matrix(1.58097,-2.99733,3.08379,1.53664,101.557,112.293)" r="0.2145" class="fil2 str0"/>
   <circle id="_158408896" stroke-width="0.079504" d="m 0.2145,0 c 0,0.11846508 -0.0960349,0.2145 -0.2145,0.2145 -0.11846508,0 -0.2145,-0.0960349 -0.2145,-0.2145 0,-0.11846508 0.0960349,-0.2145 0.2145,-0.2145 0.11846508,0 0.2145,0.0960349 0.2145,0.2145 z" cx="0" cy="0" transform="matrix(1.58097,-2.99733,3.08379,1.53664,104.201,113.611)" r="0.2145" class="fil2 str0"/>
   <circle id="_162011344" stroke-width="0.079504" d="m 0.2145,0 c 0,0.11846508 -0.0960349,0.2145 -0.2145,0.2145 -0.11846508,0 -0.2145,-0.0960349 -0.2145,-0.2145 0,-0.11846508 0.0960349,-0.2145 0.2145,-0.2145 0.11846508,0 0.2145,0.0960349 0.2145,0.2145 z" cx="0" cy="0" transform="matrix(-1.88016,-2.82943,-2.91105,1.82744,104.127,112.169)" r="0.2145" class="fil2 str0"/>
   <circle id="_162011776" stroke-width="0.079504" d="m 0.2145,0 c 0,0.11846508 -0.0960349,0.2145 -0.2145,0.2145 -0.11846508,0 -0.2145,-0.0960349 -0.2145,-0.2145 0,-0.11846508 0.0960349,-0.2145 0.2145,-0.2145 0.11846508,0 0.2145,0.0960349 0.2145,0.2145 z" cx="0" cy="0" transform="matrix(-1.88016,-2.82943,-2.91105,1.82744,101.631,113.735)" r="0.2145" class="fil2 str0"/>
  </g>
  <path id="path98" d="m257.8,563.19c-9.2201,0.0744-19.841,0.9479-26.367-1.257l1.4396-4.0642c8.832,2.0711,17.496,1.1634,25.988,1.0348l-1.0607,4.2864z" fill-rule="evenodd" stroke="#000" stroke-dasharray="none" stroke-miterlimit="4" stroke-width="0.99999994" class="fil0 str2" fill="#000"/>
  <path id="path100" d="m518.5,570.47c-6.1731,1.4408-15.392-0.68821-23.747-1.8196l-0.35096-4.9451c7.6882,1.1019,14.875,2.2609,23.125,1.2172l0.97311,5.5474z" fill-rule="evenodd" stroke="#000" stroke-dasharray="none" stroke-miterlimit="4" stroke-width="0.99999994" class="fil0 str2" fill="#000"/>
  <g id="_158436624" fill-rule="evenodd" transform="matrix(3.6790558,0,0,3.6840391,-7.0569,30.560868)" stroke-miterlimit="4" stroke-dasharray="none" fill="#ffe600">
   <rect id="_161393160" transform="matrix(2.73109,0.0258642,-0.0266103,2.65451,71.0027,143.621)" rx="0.0688" ry="0.0688" height="0.275" width="0.275" y="0" x="0" stroke-width="0.10088" class="fil2"/>
   <rect id="_161393952" transform="matrix(2.59137,0.838569,-0.862758,2.51871,65.3666,143.387)" rx="0.0688" ry="0.0688" height="0.275" width="0.275" y="0" x="0" stroke-width="0.10088" class="fil2"/>
   <rect id="_158431000" transform="matrix(2.70071,0.395655,-0.407068,2.62499,66.4018,143.574)" rx="0.0688" ry="0.0688" height="0.275" width="0.275" y="0" x="0" stroke-width="0.10088" class="fil2"/>
   <rect id="_161392776" transform="matrix(2.72989,0.0827297,-0.0851161,2.65335,67.4143,143.67)" rx="0.0688" ry="0.0688" height="0.275" width="0.275" y="0" x="0" stroke-width="0.10088" class="fil2"/>
   <rect id="_158954920" transform="matrix(2.73006,0.0772702,-0.0794991,2.65352,68.5145,143.713)" rx="0.0688" ry="0.0688" height="0.275" width="0.275" y="0" x="0" stroke-width="0.10088" class="fil2"/>
   <rect id="_49989024" transform="matrix(2.73006,0.0772702,-0.0794991,2.65352,69.7304,143.693)" rx="0.0688" ry="0.0688" height="0.275" width="0.275" y="0" x="0" stroke-width="0.10088" class="fil2"/>
  </g>
  <g id="_161393280" fill-rule="evenodd" transform="matrix(3.6790558,0,0,3.6840391,-7.0569,30.560868)" stroke-miterlimit="4" stroke-dasharray="none" fill="#ffe600">
   <rect id="_158436360" transform="matrix(-2.48021,-0.287112,-0.282191,2.63857,137.34,145.119)" rx="0.0688" ry="0.0688" height="0.275" width="0.275" y="0" x="0" stroke-width="0.10553" class="fil2"/>
   <rect id="_158954368" transform="matrix(-2.44726,0.535782,0.491907,2.59951,142.479,145.533)" rx="0.0688" ry="0.0688" height="0.275" width="0.275" y="0" x="0" stroke-width="0.10553" class="fil2"/>
   <rect id="_161393232" transform="matrix(-2.49533,0.0835128,0.0663101,2.65283,141.518,145.6)" rx="0.0688" ry="0.0688" height="0.275" width="0.275" y="0" x="0" stroke-width="0.10553" class="fil2"/>
   <rect id="_161394408" transform="matrix(-2.48569,-0.230516,-0.228989,2.64412,140.589,145.579)" rx="0.0688" ry="0.0688" height="0.275" width="0.275" y="0" x="0" stroke-width="0.10553" class="fil2"/>
   <rect id="_158408848" transform="matrix(-2.48521,-0.235956,-0.234103,2.64364,139.586,145.496)" rx="0.0688" ry="0.0688" height="0.275" width="0.275" y="0" x="0" stroke-width="0.10553" class="fil2"/>
   <rect id="_158436192" transform="matrix(-2.48521,-0.235956,-0.234103,2.64364,138.485,145.337)" rx="0.0688" ry="0.0688" height="0.275" width="0.275" y="0" x="0" stroke-width="0.10553" class="fil2"/>
  </g>
 </g>
</svg>
