<?xml version="1.0" encoding="UTF-8" standalone="no"?>
<!-- Creator: CorelDRAW -->

<svg
   xmlns:dc="http://purl.org/dc/elements/1.1/"
   xmlns:cc="http://creativecommons.org/ns#"
   xmlns:rdf="http://www.w3.org/1999/02/22-rdf-syntax-ns#"
   xmlns:svg="http://www.w3.org/2000/svg"
   xmlns="http://www.w3.org/2000/svg"
   xmlns:sodipodi="http://sodipodi.sourceforge.net/DTD/sodipodi-0.dtd"
   xmlns:inkscape="http://www.inkscape.org/namespaces/inkscape"
   xml:space="preserve"
   width="300"
   height="360"
   style="fill-rule:evenodd"
   viewBox="0 0 84.666667 101.6"
   id="svg2"
   version="1.1"
   inkscape:version="0.48.1 "
   sodipodi:docname="воложин.svg"><metadata
   id="metadata22"><rdf:RDF><cc:Work
       rdf:about=""><dc:format>image/svg+xml</dc:format><dc:type
         rdf:resource="http://purl.org/dc/dcmitype/StillImage" /></cc:Work></rdf:RDF></metadata><sodipodi:namedview
   pagecolor="#ffffff"
   bordercolor="#666666"
   borderopacity="1"
   objecttolerance="10"
   gridtolerance="10"
   guidetolerance="10"
   inkscape:pageopacity="0"
   inkscape:pageshadow="2"
   inkscape:window-width="640"
   inkscape:window-height="480"
   id="namedview20"
   showgrid="false"
   fit-margin-top="0"
   fit-margin-left="0"
   fit-margin-right="0"
   fit-margin-bottom="0"
   inkscape:zoom="0.725"
   inkscape:cx="150"
   inkscape:cy="180"
   inkscape:window-x="0"
   inkscape:window-y="0"
   inkscape:window-maximized="0"
   inkscape:current-layer="svg2" />
 <defs
   id="defs4"><style
     type="text/css"
     id="style6">
   
    .fil0 {fill:black;fill-rule:nonzero}
    .fil1 {fill:#CE2123;fill-rule:nonzero}
    .fil2 {fill:#EFEA44;fill-rule:nonzero}
   
  </style></defs>
 <path
   id="path3005"
   d="m 62.583288,48.550341 c 0.828322,0 1.500011,0.671689 1.500011,1.500012 l 0,1.499658 c 0,0.828322 -0.671689,1.500011 -1.500011,1.500011 l -1.500011,0 0,-4.499681 1.500011,0 z m 0,5.999692 c 1.656644,0 3.000022,-1.343378 3.000022,-3.000022 l 0,-1.499658 c 0,-1.656645 -1.343378,-3.000023 -3.000022,-3.000023 l -3.000022,0 0,7.499703 3.000022,0 z m -6.000044,-7.499703 1.500011,0 0,7.499703 -1.500011,0 0,-7.499703 z m -3.000022,0 1.500011,0 0,7.499703 -1.500011,0 -3.000023,-4.708525 0,4.708525 -1.500011,0 0,-7.499703 1.500011,0 3.000023,4.708525 0,-4.708525 z m -22.499884,0 4.499998,0 0,1.500011 -2.999987,0 0,1.500012 2.999987,0 0,1.500011 -2.999987,0 0,1.499658 2.999987,0 0,1.500011 -4.499998,0 0,-7.499703 z m -5.999974,-3.52e-4 1.499976,0 0,6.000044 3.000022,0 0,1.500011 -4.499998,0 0,-7.500055 z m 15.750398,6.000044 1.499588,0 c 1.242272,0 2.250158,-1.007533 2.250158,-2.250017 0,-1.24213 -1.026583,-2.24543 -2.250158,-2.250016 l -1.499588,0 0,1.500011 1.499588,0 c 0.414091,0 0.750147,0.336197 0.750147,0.750005 0,0.414161 -0.336056,0.750006 -0.750147,0.750006 l -1.499588,0 0,1.500011 z m 1.499588,-7.500055 c 2.898916,0 5.249827,2.351263 5.249827,5.250038 0,2.899128 -2.350911,5.250039 -5.249827,5.250039 -2.899022,0 -5.250003,-2.350911 -5.250003,-5.250039 0,-2.898775 2.350981,-5.250038 5.250003,-5.250038 z m 0,1.500011 c 2.070594,0 3.750169,1.679575 3.750169,3.750027 0,2.070806 -1.679575,3.750028 -3.750169,3.750028 -2.0707,0 -3.749992,-1.679222 -3.749992,-3.750028 0,-2.070452 1.679292,-3.750027 3.749992,-3.750027 z"
   style="fill:#a90000;stroke:none"
   inkscape:connector-curvature="0" /><path
   style="fill:#000000;fill-rule:nonzero"
   inkscape:connector-curvature="0"
   id="path10"
   d="M 7.4896368e-4,-1.8543e-7 8.5614807e-4,51.108907 l -8.57475149e-4,0 C -1.327079e-6,68.186607 10.792985,83.815299 25.026215,93.454293 30.31957,97.038945 36.172052,99.868246 42.333172,101.6 48.494559,99.868246 54.346935,97.039053 59.640504,93.454293 73.87368,83.815299 84.666666,68.186607 84.666666,51.108907 l -5.35e-4,0 5.3e-5,-51.10890718543 -84.66495271,0 z"
   class="fil0" /><path
   style="fill:#ce2123;fill-rule:nonzero"
   inkscape:connector-curvature="0"
   id="path12"
   d="M 84.221047,0.45534441 84.22094,51.11759 l -0.0011,0 c 0,16.919951 -10.707989,32.414211 -24.828997,41.977251 -5.220416,3.535286 -10.985864,6.328084 -17.057914,8.049819 C 36.261337,99.422657 30.495942,96.630127 25.275633,93.094841 11.154571,83.531801 0.44658245,68.037541 0.44658245,51.11759 l -8.0388e-4,0 -1.0719e-4,-50.66224559 83.77532262,0 z"
   class="fil1" /><polygon
   style="fill:#000000;fill-rule:nonzero"
   id="polygon14"
   points="160.079,93.4938 160.078,146.656 131.855,173.491 103.983,146.99 76.1104,173.491 47.8871,146.656 47.8866,93.4938 76.1104,120.33 103.983,93.828 131.855,120.33 "
   class="fil0"
   transform="matrix(0.53592197,0,0,0.53601483,-13.606685,-27.968718)" /><polygon
   style="fill:#efea44;fill-rule:nonzero"
   id="polygon16"
   points="48.5898,146.352 76.1104,172.52 103.983,146.018 131.855,172.52 159.375,146.352 159.376,95.1334 131.855,121.301 103.983,94.7993 76.1105,121.301 48.5894,95.1334 "
   class="fil2"
   transform="matrix(0.53592197,0,0,0.53601483,-13.606685,-27.968718)" /><path
   style="fill:#000000;fill-rule:nonzero"
   inkscape:connector-curvature="0"
   id="path18"
   d="m 70.067348,41.896527 -10.41918,9.908449 -0.663258,-0.697249 10.419181,-9.908448 0.663257,0.697248 z m 0,-5.833557 -10.41918,9.908342 -0.663258,-0.697248 10.419181,-9.908342 0.663257,0.697248 z m 0,-5.833717 -10.41918,9.908288 -0.663258,-0.697248 10.419181,-9.908288 0.663257,0.697248 z m 0,17.501099 -10.41918,9.908555 -0.663258,-0.697248 10.419181,-9.908556 0.663257,0.697249 z m -25.356451,-6.531073 10.41918,9.908448 -0.663257,0.697249 -10.41918,-9.908449 0.663257,-0.697248 z m 0,-5.833557 10.41918,9.908342 -0.663257,0.697248 -10.41918,-9.908342 0.663257,-0.697248 z m 0,-5.833717 10.41918,9.908288 -0.663257,0.697248 -10.41918,-9.908288 0.663257,-0.697248 z m 0,17.501098 10.41918,9.908556 -0.663257,0.697248 -10.41918,-9.908555 0.663257,-0.697249 z m -4.518305,-5.136576 -10.41918,9.908449 -0.663257,-0.697249 10.41918,-9.908448 0.663257,0.697248 z m 0,-5.833557 -10.41918,9.908342 -0.663257,-0.697248 10.41918,-9.908342 0.663257,0.697248 z m 0,-5.833717 -10.41918,9.908288 -0.663257,-0.697248 10.41918,-9.908288 0.663257,0.697248 z m 0,17.501099 -10.41918,9.908555 -0.663257,-0.697248 10.41918,-9.908556 0.663257,0.697249 z m -25.356451,-6.531073 10.419181,9.908448 -0.663258,0.697249 -10.41918,-9.908449 0.663257,-0.697248 z m 0,-5.833557 10.419181,9.908342 -0.663258,0.697248 -10.41918,-9.908342 0.663257,-0.697248 z m 0,-5.833717 10.419181,9.908288 -0.663258,0.697248 -10.41918,-9.908288 0.663257,-0.697248 z m 0,17.501098 10.419181,9.908556 -0.663258,0.697248 -10.41918,-9.908555 0.663257,-0.697249 z"
   class="fil0" />
</svg>