<?xml version="1.0" encoding="UTF-8" standalone="no"?>
<!-- Creator: CorelDRAW -->

<svg
   xmlns:dc="http://purl.org/dc/elements/1.1/"
   xmlns:cc="http://creativecommons.org/ns#"
   xmlns:rdf="http://www.w3.org/1999/02/22-rdf-syntax-ns#"
   xmlns:svg="http://www.w3.org/2000/svg"
   xmlns="http://www.w3.org/2000/svg"
   xmlns:sodipodi="http://sodipodi.sourceforge.net/DTD/sodipodi-0.dtd"
   xmlns:inkscape="http://www.inkscape.org/namespaces/inkscape"
   xml:space="preserve"
   width="300"
   height="360"
   style="fill-rule:evenodd"
   viewBox="0 0 84.666667 101.6"
   id="svg2"
   version="1.1"
   inkscape:version="0.48.1 "
   sodipodi:docname="фаниполь.svg"><metadata
   id="metadata31"><rdf:RDF><cc:Work
       rdf:about=""><dc:format>image/svg+xml</dc:format><dc:type
         rdf:resource="http://purl.org/dc/dcmitype/StillImage" /></cc:Work></rdf:RDF></metadata><sodipodi:namedview
   pagecolor="#ffffff"
   bordercolor="#666666"
   borderopacity="1"
   objecttolerance="10"
   gridtolerance="10"
   guidetolerance="10"
   inkscape:pageopacity="0"
   inkscape:pageshadow="2"
   inkscape:window-width="1280"
   inkscape:window-height="750"
   id="namedview29"
   showgrid="false"
   fit-margin-top="0"
   fit-margin-left="0"
   fit-margin-right="0"
   fit-margin-bottom="0"
   inkscape:zoom="1.475"
   inkscape:cx="150.00001"
   inkscape:cy="180.00001"
   inkscape:window-x="-8"
   inkscape:window-y="-8"
   inkscape:window-maximized="1"
   inkscape:current-layer="svg2" />
 <defs
   id="defs4">
  <style
   type="text/css"
   id="style6">
   
    .fil0 {fill:black}
    .fil2 {fill:#49A348}
    .fil4 {fill:#FFCC00}
    .fil1 {fill:white}
    .fil3 {fill:black;fill-rule:nonzero}
    .fil5 {fill:url(#id0)}
   
  </style>
  <radialGradient
   id="id0"
   gradientUnits="userSpaceOnUse"
   cx="97.519798"
   cy="134.286"
   r="7.5632"
   fx="97.519798"
   fy="134.286">
   <stop
   offset="0"
   style="stop-color:white"
   id="stop9" />
   <stop
   offset="1"
   style="stop-color:#FFCC00"
   id="stop11" />
  </radialGradient>
 </defs>
 <g
   id="Слой_x0020_1"
   transform="matrix(1.3794752,0,0,1.3813432,-102.51156,-154.33002)">
  <metadata
   id="CorelCorpID_0Corel-Layer" />
  <path
   class="fil0"
   d="m 74.312,160.051 c 0.0721,0.6151 0.1641,1.2248 0.2786,1.8276 2.5239,13.2897 15.1805,23.3976 30.4094,23.3976 15.2285,0 27.8849,-10.1074 30.4092,-23.3968 0.1146,-0.603 0.2067,-1.2129 0.2788,-1.8284 l 0,-48.3264 -61.376,0 0,48.3264 z"
   id="path15"
   inkscape:connector-curvature="0"
   style="fill:#000000" />
  <path
   class="fil1"
   d="m 76.5276,167.086 c -0.9439,-2.2295 -1.5834,-4.5974 -1.8735,-7.0612 l 0,-47.9629 60.6918,0 0,47.9629 c -0.2901,2.4641 -0.9298,4.8323 -1.8739,7.062 -4.4209,10.4414 -15.503,17.8472 -28.472,17.8472 -12.9694,0 -24.0517,-7.4062 -28.4724,-17.848 z"
   id="path17"
   inkscape:connector-curvature="0"
   style="fill:#ffffff" />
  <polygon
   class="fil2"
   points="135.346,112.062 105,184.934 74.6541,112.062 "
   id="polygon19"
   style="fill:#49a348" />
  <path
   class="fil3"
   d="m 104.821,123.674 c 0.7105,-1.878 2.1064,-3.3716 3.8129,-4.3878 1.95,0.2441 3.2085,1.8507 3.4419,3.5752 -4.2421,0.7486 -6.1744,4.1235 -6.4577,8.1802 -0.7414,-1.2048 -1.27007,-2.74612 -1.4291,-4.1845 -5.109442,1.84267 -9.741719,-1.84897 -9.9615,-6.1857 4.4195,-0.9303 8.4668,-0.5585 10.5935,3.0026 z"
   id="path21"
   inkscape:connector-curvature="0"
   style="fill:#000000;fill-rule:nonzero"
   sodipodi:nodetypes="ccccccc" />
  <path
   class="fil4"
   d="m 104.793,124.76 c 0.4835,-2.1325 1.8967,-3.9579 3.8386,-5.114 1.2654,0.1594 2.2789,1.032 2.5297,2.1552 -1.0467,-0.2098 -1.9985,-0.6493 -2.7868,-1.2575 0.4621,0.6504 1.0627,1.2122 1.7636,1.6521 -2.815,1.1801 -4.8354,3.6529 -5.1315,6.5772 -0.3126,-0.9165 -0.5584,-1.804 -0.4991,-2.7613 -1.0861,-2.2823 -3.4515,-3.8578 -6.2554,-3.9363 2.2915,0.5605 4.1173,2.149 4.8371,4.1854 -3.9531,0.8749 -8.0546,-1.6227 -8.5989,-5.3606 3.9586,-1.0724 9.1283,-0.1485 10.3027,3.8598 z"
   id="path23"
   inkscape:connector-curvature="0"
   style="fill:#ffcc00" />
  <path
   class="fil3"
   d="m 112.326,128.031 8e-4,0 0,0.001 c 2.1114,2e-4 4.0243,0.8209 5.4094,2.147 1.3883,1.3294 2.2472,3.1675 2.2477,5.1989 l 10e-4,0 0,10e-4 c 0,1.366 -0.4214,2.6856 -1.0691,3.9691 -0.6347,1.2577 -1.4869,2.4787 -2.3692,3.6741 l -0.004,0.007 -8e-4,0.001 -10e-4,-0.001 c -0.3202,0.4348 -0.6444,0.9655 -0.9766,1.5084 -0.7179,1.1737 -1.471,2.405 -2.4762,3.1314 -0.0349,0.0252 -0.0665,0.0478 -0.0928,0.066 l 5e-4,8e-4 c -0.1458,0.1014 -0.302,0.1997 -0.4683,0.2946 -0.1591,0.0907 -0.3252,0.1758 -0.4982,0.2546 -0.8528,0.389 -1.8352,0.6052 -2.9505,0.6001 -0.0497,-2e-4 -0.096,-9e-4 -0.1383,-0.002 -0.1975,-0.005 -0.3896,-0.017 -0.5764,-0.0367 -0.1917,-0.02 -0.38,-0.0477 -0.5645,-0.0823 -0.8409,-0.1575 -1.6258,-0.4631 -2.3233,-0.8868 -0.1206,0.073 -0.2461,0.1439 -0.3755,0.2116 -0.1647,0.0864 -0.3293,0.165 -0.4928,0.2348 -0.8346,0.3565 -1.7598,0.5566 -2.7337,0.5613 -0.0467,2e-4 -0.093,1e-4 -0.138,-4e-4 -0.22,-0.003 -0.4348,-0.0139 -0.6435,-0.0335 -0.211,-0.0197 -0.4162,-0.0481 -0.6157,-0.084 -0.9985,-0.1804 -1.8642,-0.5601 -2.6013,-1.0905 l -7e-4,9e-4 -9e-4,-6e-4 -0.0116,-0.009 c -1.002,-0.7249 -1.7555,-1.9566 -2.4738,-3.1308 -0.3315,-0.5421 -0.6555,-1.0717 -0.9829,-1.5154 -0.8823,-1.1954 -1.7345,-2.4164 -2.3692,-3.6741 -0.6477,-1.2835 -1.0691,-2.6031 -1.0691,-3.9691 l 0,-6e-4 0.0015,0 c 2e-4,-2.0319 0.8594,-3.8706 2.2481,-5.2 1.385,-1.3258 3.2974,-2.1462 5.4081,-2.1466 l 0,-0.001 0.0015,0 0.0021,0 0,0.001 c 2.3143,3e-4 4.6213,0.5641 6.5418,1.8804 2.0226,-1.331 4.7602,-1.8819 7.1556,-1.8819 z"
   id="path25"
   inkscape:connector-curvature="0"
   style="fill:#000000;fill-rule:nonzero" />
  <path
   class="fil5"
   d="m 104.729,130.659 c 1.6339,-1.2958 3.8356,-2.0735 6.4675,-2.0735 3.8009,0 6.8832,2.951 6.8832,6.5899 0,2.4598 -1.5311,4.7795 -3.1769,7.0096 -0.9878,1.3386 -1.8715,3.3596 -3.19,4.3127 -0.9486,0.6856 -2.1381,1.0897 -3.5812,1.0828 -1.2624,-0.006 -2.4343,-0.3799 -3.4026,-1.0154 -0.9684,0.6355 -2.1403,1.0094 -3.4027,1.0154 -1.4431,0.007 -2.6326,-0.3972 -3.5812,-1.0828 -1.3185,-0.9531 -2.2022,-2.9741 -3.19,-4.3127 -1.6458,-2.2301 -3.1769,-4.5498 -3.1769,-7.0096 0,-3.6389 3.0823,-6.5899 6.8832,-6.5899 2.6319,0 4.8336,0.7777 6.4676,2.0735 z"
   id="path27"
   style="fill:url(#id0)"
   inkscape:connector-curvature="0" />
 </g>
</svg>