<?xml version="1.0" encoding="UTF-8" standalone="no"?>
<!-- Creator: CorelDRAW -->

<svg
   xmlns:dc="http://purl.org/dc/elements/1.1/"
   xmlns:cc="http://creativecommons.org/ns#"
   xmlns:rdf="http://www.w3.org/1999/02/22-rdf-syntax-ns#"
   xmlns:svg="http://www.w3.org/2000/svg"
   xmlns="http://www.w3.org/2000/svg"
   xmlns:sodipodi="http://sodipodi.sourceforge.net/DTD/sodipodi-0.dtd"
   xmlns:inkscape="http://www.inkscape.org/namespaces/inkscape"
   xml:space="preserve"
   width="300"
   height="360"
   style="fill-rule:evenodd"
   viewBox="0 0 84.666667 101.6"
   id="svg2"
   version="1.1"
   inkscape:version="0.48.1 "
   sodipodi:docname="копыль.svg"><metadata
   id="metadata44"><rdf:RDF><cc:Work
       rdf:about=""><dc:format>image/svg+xml</dc:format><dc:type
         rdf:resource="http://purl.org/dc/dcmitype/StillImage" /><dc:title></dc:title></cc:Work></rdf:RDF></metadata><sodipodi:namedview
   pagecolor="#ffffff"
   bordercolor="#666666"
   borderopacity="1"
   objecttolerance="10"
   gridtolerance="10"
   guidetolerance="10"
   inkscape:pageopacity="0"
   inkscape:pageshadow="2"
   inkscape:window-width="1280"
   inkscape:window-height="750"
   id="namedview42"
   showgrid="false"
   fit-margin-top="0"
   fit-margin-left="0"
   fit-margin-right="0"
   fit-margin-bottom="0"
   inkscape:zoom="1.4749999"
   inkscape:cx="149.99999"
   inkscape:cy="179.99998"
   inkscape:window-x="-8"
   inkscape:window-y="-8"
   inkscape:window-maximized="1"
   inkscape:current-layer="svg2" />
 <defs
   id="defs4">
  <style
   type="text/css"
   id="style6">
   
    .str2 {stroke:black;stroke-width:0.12}
    .str0 {stroke:black;stroke-width:0.1764}
    .str1 {stroke:black;stroke-width:0.25}
    .str3 {stroke:black;stroke-width:0.52}
    .fil4 {fill:none}
    .fil0 {fill:black}
    .fil1 {fill:#FEED01}
    .fil2 {fill:black;fill-rule:nonzero}
    .fil3 {fill:#FEED01;fill-rule:nonzero}
   
  </style>
 
  
  
  
  
  
  
  
  
  
  
  
  
  
  
  
  
  
 </defs>
 <path
   style="fill:#a90000;fill-rule:evenodd"
   inkscape:connector-curvature="0"
   class="fil0"
   d="m 62.583336,48.550101 c 0.828296,0 1.499999,0.671698 1.499999,1.5 l 0,1.499799 c 0,0.8283 -0.671703,1.5 -1.499999,1.5 l -1.5,0 0,-4.499799 1.5,0 z m 0,5.999799 c 1.656599,0 2.999999,-1.3434 2.999999,-3 l 0,-1.499799 c 0,-1.656602 -1.3434,-3.000002 -2.999999,-3.000002 l -3,0 0,7.499801 3,0 z m -6.000002,-7.499801 1.500002,0 0,7.499801 -1.500002,0 0,-7.499801 z m -3,0 1.5,0 0,7.499801 -1.5,0 -3,-4.708601 0,4.708601 -1.5,0 0,-7.499801 1.5,0 3,4.708601 0,-4.708601 z m -22.5,1.01e-4 4.500002,0 0,1.5 -3.000002,0 0,1.499901 3.000002,0 0,1.5 -3.000002,0 0,1.499898 3.000002,0 0,1.5 -4.500002,0 0,-7.499799 z m -5.999999,-2e-4 1.499999,0 0,5.999999 3,0 0,1.5 -4.499999,0 0,-7.499999 z m 15.750398,5.999999 1.499602,0 c 1.242399,0 2.25,-1.007598 2.25,-2.25 0,-1.242398 -1.026301,-2.245698 -2.25,-2.249999 l -1.499602,0 0,1.499999 1.499602,0 c 0.414099,0 0.75,0.335901 0.75,0.75 0,0.414102 -0.335901,0.75 -0.75,0.75 l -1.499602,0 0,1.5 z M 42.333335,45.55 c 2.899001,0 5.25,2.350999 5.25,5.249999 0,2.899001 -2.350999,5.25 -5.25,5.25 -2.899,0 -5.249999,-2.350999 -5.249999,-5.25 0,-2.899 2.350999,-5.249999 5.249999,-5.249999 z m 0,1.5 c 2.070699,0 3.75,1.679301 3.75,3.749999 0,2.070701 -1.679301,3.75 -3.75,3.75 -2.070701,0 -3.749999,-1.679299 -3.749999,-3.75 0,-2.070698 1.679298,-3.749999 3.749999,-3.749999 z"
   id="path3035" /><path
   style="fill:#000000"
   inkscape:connector-curvature="0"
   id="path10"
   d="m 42.33342,2.9512e-6 c 14.7549,0 28.1194,2.5539969488 37.799823,6.6815855488 1.592578,0.6791554 3.08648,1.4018327 4.471696,2.1633751 l 0,20.7767474 c -3.151192,2.426834 -5.182985,6.240815 -5.182985,10.529596 0,4.288959 2.031793,8.102403 5.182985,10.529058 0,8.606396 0.848219,17.682399 -3.743962,25.456508 C 76.225357,83.98513 67.349178,87.826334 59.353753,91.28623 53.257659,93.924405 46.787419,96.428253 42.33342,101.60001 37.879421,96.428253 31.409002,93.924405 25.312908,91.28623 17.317483,87.826334 8.441304,83.98513 3.8056842,76.136873 -0.78649689,68.362764 0.06172216,59.286761 0.06172216,50.680365 3.212914,48.25371 5.244707,44.440266 5.244707,40.151307 c 0,-4.288781 -2.031793,-8.102762 -5.18298484,-10.529596 l 0,-20.7767474 C 1.446938,8.0834212 2.9408404,7.3607439 4.5334186,6.6815885 14.213841,2.5539999 27.578341,2.9512e-6 42.33342,2.9512e-6 z"
   class="fil0" /><path
   style="fill:#feed01"
   inkscape:connector-curvature="0"
   id="path12"
   d="M 42.33342,0.65730792 C 28.662346,0.65748702 13.040814,2.5955516 0.72009745,9.236481 l 0,20.068756 c 3.26559865,2.63925 5.18030345,6.629109 5.18048215,10.846607 0,4.207826 -1.9375861,8.226342 -5.18101843,10.847144 -0.0268141,8.35834 -0.79780856,17.270643 3.65207903,24.804038 4.5701935,7.737214 13.3394738,11.476867 21.2013648,14.878913 5.96256,2.580146 12.240811,5.025607 16.760415,9.932291 4.519425,-4.906684 10.797677,-7.352145 16.760415,-9.932291 C 66.955726,87.279893 75.725006,83.54024 80.2952,75.803026 84.745087,68.269631 83.974093,59.357328 83.947279,50.998988 80.703847,48.378186 78.76626,44.35967 78.76626,40.151844 c 1.79e-4,-4.217498 1.914884,-8.207357 5.180483,-10.846607 l 0,-20.068756 C 71.626026,2.5955516 56.004316,0.65748702 42.33342,0.65730792 z"
   class="fil1" /><g
   id="g3037"><path
     class="fil0 str0"
     d="m 52.056209,37.086689 -2.548769,3.663356 c -3.087374,-1.406489 -6.376748,-1.51807 -9.107852,-0.640469 -0.872709,-1.198731 -1.566301,-2.624026 -2.191426,-4.078336 4.36444,-1.465414 9.623577,-1.133537 13.848047,1.055449 z"
     id="path14"
     inkscape:connector-curvature="0"
     style="fill:#000000;stroke:#000000;stroke-width:0.31563482" /><path
     class="fil0 str0"
     d="M 61.201601,52.333657 C 52.922483,52.123212 41.263359,45.816845 37.577137,36.249745 c -1.482819,0.566858 -2.843545,1.350251 -4.000841,2.346417 3.649219,8.504846 14.721114,17.449567 25.573849,17.409985 l 0.752403,-2.215494 1.299053,-1.456996 z"
     id="path16"
     inkscape:connector-curvature="0"
     style="fill:#000000;stroke:#000000;stroke-width:0.31563482" /><path
     class="fil0 str0"
     d="m 32.812809,50.304429 c 2.933104,-0.328473 5.694777,-1.237775 8.236216,-2.729875 1.159084,1.062076 2.409514,2.060392 3.728946,2.969872 -2.789201,1.838663 -6.085011,3.085752 -10.080131,3.457568 l -0.422948,-2.158898 -1.462083,-1.538667 z m 11.91493,-5.438795 c 2.371617,-2.140092 4.484925,-4.897728 6.285223,-8.273446 1.351788,0.582978 2.618128,1.341296 3.741281,2.278001 -1.791539,3.191779 -3.827265,6.205353 -6.336885,8.69738 -1.288327,-0.804348 -2.529999,-1.707202 -3.689619,-2.701935 z"
     id="path18"
     inkscape:connector-curvature="0"
     style="fill:#000000;stroke:#000000;stroke-width:0.31563482" /><path
     class="fil1 str1"
     d="m 31.758837,49.840555 c 1.797616,0 3.25523,1.460578 3.25523,3.261629 0,1.801052 -1.457614,3.261451 -3.25523,3.261451 -1.797617,0 -3.255231,-1.460399 -3.255231,-3.261451 0,-1.801051 1.457614,-3.261629 3.255231,-3.261629 z m 0,0.931868 c 1.284216,0 2.325139,1.043091 2.325139,2.329761 0,1.28667 -1.040923,2.329582 -2.325139,2.329582 -1.284216,0 -2.325139,-1.042912 -2.325139,-2.329582 0,-1.28667 1.040923,-2.329761 2.325139,-2.329761 z"
     id="path20"
     inkscape:connector-curvature="0"
     style="fill:#feed01;stroke:#000000;stroke-width:0.44732827" /><path
     class="fil1 str1"
     d="m 62.317067,51.950378 c 1.797438,0 3.255231,1.460579 3.255231,3.26163 0,1.801051 -1.457793,3.261451 -3.255231,3.261451 -1.797616,0 -3.255409,-1.4604 -3.255409,-3.261451 0,-1.801051 1.457793,-3.26163 3.255409,-3.26163 z m 0,0.931869 c 1.284217,0 2.32514,1.043091 2.32514,2.329761 0,1.28667 -1.040923,2.329582 -2.32514,2.329582 -1.284216,0 -2.325317,-1.042912 -2.325317,-2.329582 0,-1.28667 1.041101,-2.329761 2.325317,-2.329761 z"
     id="path22"
     inkscape:connector-curvature="0"
     style="fill:#feed01;stroke:#000000;stroke-width:0.44732827" /><path
     class="fil2"
     d="m 29.961041,49.367725 c -1.045749,-1.547801 -2.012844,-3.174049 -2.69857,-4.91725 -1.05147,1.92302 -3.390731,3.234943 -5.166717,4.401794 -2.45778,1.615143 -5.419664,2.581041 -7.324716,2.693159 l 3.988149,4.801909 c 4.462758,-0.641903 8.310223,-3.682162 11.201854,-6.979612 z m 43.865528,-3.23369 -5.37e-4,-7.16e-4 0,-3.58e-4 c -0.387016,-0.509725 -0.975139,-0.855392 -1.613314,-0.93366 -0.99802,1.247268 -2.01052,2.402835 -3.064135,3.478164 -1.020366,1.0413 -2.080238,2.00881 -3.204463,2.911485 1.483713,0.535516 2.967247,2.293045 3.424159,3.769384 0.850186,-1.273953 1.665155,-2.634055 2.418631,-4.151588 0.750258,-1.511264 1.439202,-3.178884 2.039659,-5.072711 z M 58.86663,56.982075 c -6.933587,4.141021 -15.676053,4.887698 -22.620902,0.06251 -2.204118,3.636312 -5.159389,6.583617 -9.038672,8.39631 11.297848,9.415939 26.983912,7.818347 36.52079,-2.576385 -0.873782,-2.352327 -2.592207,-4.691939 -4.861216,-5.882431 z"
     id="path24"
     inkscape:connector-curvature="0"
     style="fill:#000000;fill-rule:nonzero" /><path
     class="fil3"
     d="m 36.146516,56.936583 c -0.574537,-0.741841 -1.269916,-1.529891 -2.139765,-1.92696 -0.5538,-0.985421 -1.253469,-2.193823 -2.269723,-2.750831 -0.346259,-1.040762 -0.915612,-1.998601 -1.681422,-2.785397 -2.90057,3.304256 -6.746425,6.335561 -11.211329,7.004328 0.214692,1.496936 1.349464,2.531967 2.600252,3.241391 0.418836,1.55604 1.246498,2.721099 2.885553,3.100975 0.270823,1.444459 1.378423,2.269762 2.776868,2.511729 3.886791,-1.80535 6.839023,-4.753909 9.039566,-8.395235 z m 33.138818,-1.353296 c -0.323914,-1.400221 -1.963864,-3.436254 -3.471888,-3.890458 -0.779932,0.34316 -1.623504,0.858616 -1.927754,1.703441 -0.79906,0.280832 -1.853926,0.6822 -2.147273,1.57001 -1.134236,0.401726 -1.991214,1.004942 -2.748444,1.920691 2.266327,1.214313 3.983859,3.550164 4.865327,5.913059 0.959766,-0.352653 1.822107,-1.623024 2.134581,-2.548445 0.912215,-0.545008 1.446173,-1.52416 1.834799,-2.479491 0.795484,-0.5545 1.202701,-1.275386 1.460652,-2.188807 z"
     id="path26"
     inkscape:connector-curvature="0"
     style="fill:#feed01;fill-rule:nonzero" /><path
     class="fil4 str1"
     d="m 65.804687,51.617248 c 1.175351,0.330802 3.197133,2.429342 3.54804,3.950815 m -5.53997,-2.230538 c 1.302629,0.230325 3.560554,3.136079 4.072703,4.51033 m -6.220154,-2.914351 c 1.48711,0.761005 3.569313,3.303361 4.434515,5.339036 m -7.244989,-3.376972 c 2.199828,1.13318 4.065552,3.56682 4.952563,5.979685 m 8.378688,-17.755115 c -2.010878,2.516923 -4.077172,4.65988 -6.433237,6.530602 -0.82927,0.377369 -1.623504,0.874735 -1.922391,1.690188 -0.793519,0.284593 -1.861792,0.715334 -2.148524,1.571442 -1.587215,0.593186 -2.227715,1.325893 -2.778655,1.966542 -6.913208,4.05756 -15.524285,4.951458 -22.644677,0.08884 -0.737388,-0.964287 -1.47549,-1.678546 -2.201795,-2.012213 -0.702886,-1.27073 -1.456541,-2.302538 -2.262394,-2.745278 -0.341611,-1.035927 -0.969955,-2.06863 -1.754893,-2.852561 -1.011785,-1.494607 -2.065221,-3.247838 -2.760421,-5.059457 m 46.642037,1.770604 c -1.216287,3.867891 -2.797782,6.792629 -4.523358,9.372238 -0.246154,0.911809 -0.540215,1.697888 -1.516248,2.377581 -0.518048,1.28864 -1.137811,2.065048 -1.833905,2.480565 -0.404177,1.104344 -1.110282,2.221225 -2.253277,2.59734 -10.014884,10.823144 -25.49287,11.825937 -36.67667,2.561698 -1.362871,-0.348175 -2.541975,-0.961779 -2.84855,-2.579429 -1.763831,-0.416771 -2.475119,-1.62392 -2.885017,-3.112259 -1.4106,-0.808288 -2.41309,-1.852812 -2.612944,-3.298524 l -4.115069,-5.006981 m 4.092724,4.958802 c 3.681396,-0.523874 7.614844,-2.82677 11.307144,-7.053581 m -8.724411,10.450075 c 3.661911,-0.955869 7.148994,-3.586342 10.491817,-7.610231 M 24.206916,62.88779 c 3.945962,-1.268581 7.154357,-4.112903 9.812527,-7.980256 m -6.883355,10.488582 c 4.331726,-2.012213 7.064976,-5.087577 9.106422,-8.482816"
     id="path28"
     inkscape:connector-curvature="0"
     style="fill:none;stroke:#000000;stroke-width:0.44732827" /><path
     class="fil4 str1"
     d="m 77.62255,40.674106 -3.733058,5.426437 C 73.462791,45.532252 72.8239,45.182645 72.144968,45.120675 l 2.065221,-6.50105"
     id="path30"
     inkscape:connector-curvature="0"
     style="fill:none;stroke:#000000;stroke-width:0.44732827" /><ellipse
     class="fil4 str1"
     transform="matrix(1.1953239,0.7195967,-0.76837205,1.2812289,75.917174,39.646059)"
     rx="1.4274"
     ry="0.5431"
     id="ellipse32"
     cx="0"
     cy="0"
     sodipodi:cx="0"
     sodipodi:cy="0"
     sodipodi:rx="1.4274"
     sodipodi:ry="0.5431"
     style="fill:none;stroke:#000000;stroke-width:0.30983451;stroke-miterlimit:4;stroke-dasharray:none"
     d="M 1.4274,0 C 1.4274,0.29994585 0.78833125,0.5431 0,0.5431 -0.78833125,0.5431 -1.4274,0.29994585 -1.4274,0 c 0,-0.29994585 0.63906875,-0.5431 1.4274,-0.5431 0.78833125,0 1.4274,0.24315415 1.4274,0.5431 z" /><ellipse
     class="fil4 str2"
     transform="matrix(0.90055121,0.54213869,-0.37125538,0.61905232,75.917174,39.646059)"
     rx="1.4274"
     ry="0.5431"
     id="ellipse34"
     cx="0"
     cy="0"
     sodipodi:cx="0"
     sodipodi:cy="0"
     sodipodi:rx="1.4274"
     sodipodi:ry="0.5431"
     style="fill:none;stroke:#000000;stroke-width:0.12"
     d="M 1.4274,0 C 1.4274,0.29994585 0.78833125,0.5431 0,0.5431 -0.78833125,0.5431 -1.4274,0.29994585 -1.4274,0 c 0,-0.29994585 0.63906875,-0.5431 1.4274,-0.5431 0.78833125,0 1.4274,0.24315415 1.4274,0.5431 z" /><path
     class="fil4 str1"
     d="m 23.609856,33.071219 3.704635,11.119379 c -1.415606,3.027006 -9.079966,7.268861 -12.734727,7.334771 L 7.2550487,41.063295"
     id="path36"
     inkscape:connector-curvature="0"
     style="fill:none;stroke:#000000;stroke-width:0.44732222;stroke-miterlimit:4;stroke-dasharray:none" /><ellipse
     class="fil4 str1"
     transform="matrix(0.64434437,-0.31486878,0.39255291,0.8063914,15.432452,37.066988)"
     rx="12.6912"
     ry="3.3710999"
     id="ellipse38"
     cx="0"
     cy="0"
     sodipodi:cx="0"
     sodipodi:cy="0"
     sodipodi:rx="12.6912"
     sodipodi:ry="3.3710999"
     style="fill:none;stroke:#000000;stroke-width:0.55776167;stroke-miterlimit:4;stroke-dasharray:none"
     d="M 12.6912,0 C 12.6912,1.8618071 7.0091564,3.3710999 0,3.3710999 -7.0091564,3.3710999 -12.6912,1.8618071 -12.6912,0 c 0,-1.8618071 5.6820436,-3.3710999 12.6912,-3.3710999 7.0091564,0 12.6912,1.5092928 12.6912,3.3710999 z" /><ellipse
     class="fil4 str3"
     transform="matrix(0.49182225,-0.24033541,0.20326868,0.41756059,15.38526,36.970273)"
     rx="12.6912"
     ry="3.3710999"
     id="ellipse40"
     cx="0"
     cy="0"
     sodipodi:cx="0"
     sodipodi:cy="0"
     sodipodi:rx="12.6912"
     sodipodi:ry="3.3710999"
     style="fill:none;stroke:#000000;stroke-width:1.774382;stroke-miterlimit:4;stroke-dasharray:none"
     d="M 12.6912,0 C 12.6912,1.8618071 7.0091564,3.3710999 0,3.3710999 -7.0091564,3.3710999 -12.6912,1.8618071 -12.6912,0 c 0,-1.8618071 5.6820436,-3.3710999 12.6912,-3.3710999 7.0091564,0 12.6912,1.5092928 12.6912,3.3710999 z" /></g>
</svg>