<?xml version="1.0" encoding="UTF-8" standalone="no"?>
<!-- Created with Inkscape (http://www.inkscape.org/) -->
<svg id="svg5013" xmlns:rdf="http://www.w3.org/1999/02/22-rdf-syntax-ns#" xmlns="http://www.w3.org/2000/svg" height="360" width="300" version="1.1" xmlns:cc="http://creativecommons.org/ns#" xmlns:xlink="http://www.w3.org/1999/xlink" xmlns:dc="http://purl.org/dc/elements/1.1/">
 <defs id="defs5015">
  <linearGradient id="id0" y2="166.21" gradientUnits="userSpaceOnUse" x2="89.922" y1="166.21" x1="119.74">
   <stop id="stop3842" stop-color="#E5E5E5" offset="0"/>
   <stop id="stop3844" stop-color="#FFF" offset="1"/>
  </linearGradient>
 </defs>
 <metadata id="metadata5018">
  <rdf:RDF>
   <cc:Work rdf:about="">
    <dc:format>image/svg+xml</dc:format>
    <dc:type rdf:resource="http://purl.org/dc/dcmitype/StillImage"/>
    <dc:title/>
   </cc:Work>
  </rdf:RDF>
 </metadata>
 <g id="layer1" transform="translate(-167.14285,-552.36217)" fill-rule="evenodd">
  <path id="path3035" class="fil0" fill="#a90000" d="m388.89,724.39c2.9349,0,5.315,2.38,5.315,5.315v5.3142c0,2.9349-2.38,5.315-5.315,5.315h-5.315v-15.944h5.315zm0,21.259c5.8698,0,10.63-4.7601,10.63-10.63v-5.3142c0-5.8698-4.7601-10.63-10.63-10.63h-10.63v26.574h10.63zm-21.26-26.574,5.315,0,0,26.574-5.315,0,0-26.574zm-10.63,0,5.315,0,0,26.574-5.315,0-10.63-16.684,0,16.684-5.315,0,0-26.574,5.315,0,10.63,16.684,0-16.684zm-79.724,0.00035,15.945,0,0,5.315-10.63,0,0,5.3146,10.63,0,0,5.315-10.63,0,0,5.3146,10.63,0,0,5.315-15.945,0,0-26.574zm-21.26-0.00071,5.315,0,0,21.26,10.63,0,0,5.315-15.945,0,0-26.575zm55.808,21.26,5.3136,0c4.4022,0,7.9724-3.5702,7.9724-7.9724s-3.6365-7.9572-7.9724-7.9725h-5.3136v5.315h5.3136c1.4673,0,2.6575,1.1902,2.6575,2.6575s-1.1902,2.6575-2.6575,2.6575h-5.3136v5.315zm5.3136-26.575c10.272,0,18.602,8.3303,18.602,18.602s-8.3303,18.602-18.602,18.602-18.602-8.3303-18.602-18.602,8.3303-18.602,18.602-18.602zm0,5.315c7.3371,0,13.287,5.9503,13.287,13.287,0,7.3371-5.9503,13.287-13.287,13.287-7.3371,0-13.287-5.9503-13.287-13.287,0-7.3371,5.9503-13.287,13.287-13.287z"/>
  <path id="path10" class="fil0" fill="#000" d="m317.14,552.36c52.281,0,99.636,9.0496,133.94,23.675,5.643,2.4064,10.936,4.9671,15.845,7.6655v73.618c-11.166,8.599-18.365,22.113-18.365,37.31s7.1993,28.709,18.365,37.308c0,30.495,3.0055,62.654-13.266,90.2-16.425,27.809-47.876,41.419-76.207,53.679-21.6,9.3479-44.526,18.22-60.308,36.545-15.782-18.325-38.709-27.197-60.309-36.545-28.33-12.259-59.781-25.87-76.207-53.679-16.272-27.546-13.266-59.705-13.266-90.2,11.166-8.5984,18.365-22.111,18.365-37.308,0-15.196-7.1993-28.711-18.365-37.31v-73.618c4.9082-2.6984,10.202-5.259,15.845-7.6655,34.301-14.625,81.655-23.675,133.94-23.675z"/>
  <path id="path12" class="fil1" fill="#feed01" d="m317.14,554.69c-48.441,0.00064-103.79,6.8678-147.45,30.399v71.11c11.571,9.3517,18.355,23.489,18.356,38.433,0,14.91-6.8655,29.148-18.358,38.435-0.095,29.616-2.8269,61.195,12.94,87.888,16.194,27.415,47.266,40.666,75.123,52.721,21.127,9.1422,43.373,17.807,59.387,35.193,16.014-17.386,38.259-26.051,59.387-35.193,27.857-12.054,58.929-25.305,75.123-52.721,15.767-26.693,13.035-58.272,12.94-87.888-11.492-9.2863-18.358-23.525-18.358-38.435,0.00063-14.944,6.785-29.081,18.356-38.433v-71.11c-43.65-23.52-99.01-30.39-147.45-30.39z"/>
  <g id="g3011" transform="matrix(3.0768412,0,0,3.0768412,185.83998,628.47591)">
   <g id="g3037">
    <path id="path14" d="m52.056,37.087-2.5488,3.6634c-3.0874-1.4065-6.3767-1.5181-9.1079-0.64047-0.87271-1.1987-1.5663-2.624-2.1914-4.0783,4.3644-1.4654,9.6236-1.1335,13.848,1.0554z" stroke="#000" stroke-width="0.31563482" class="fil0 str0" fill="#000"/>
    <path id="path16" d="M61.202,52.334c-8.28-0.211-19.939-6.517-23.625-16.084-1.4828,0.56686-2.8435,1.3503-4.0008,2.3464,3.6492,8.5048,14.721,17.45,25.574,17.41l0.7524-2.2155,1.2991-1.457z" stroke="#000" stroke-width="0.31563482" class="fil0 str0" fill="#000"/>
    <path id="path18" d="m32.813,50.304c2.9331-0.32847,5.6948-1.2378,8.2362-2.7299,1.1591,1.0621,2.4095,2.0604,3.7289,2.9699-2.7892,1.8387-6.085,3.0858-10.08,3.4576l-0.42295-2.1589-1.4621-1.5387zm11.915-5.4388c2.3716-2.1401,4.4849-4.8977,6.2852-8.2734,1.3518,0.58298,2.6181,1.3413,3.7413,2.278-1.7915,3.1918-3.8273,6.2054-6.3369,8.6974-1.2883-0.80435-2.53-1.7072-3.6896-2.7019z" stroke="#000" stroke-width="0.31563482" class="fil0 str0" fill="#000"/>
    <path id="path20" d="m31.759,49.841c1.7976,0,3.2552,1.4606,3.2552,3.2616,0,1.8011-1.4576,3.2615-3.2552,3.2615s-3.2552-1.4604-3.2552-3.2615,1.4576-3.2616,3.2552-3.2616zm0,0.93187c1.2842,0,2.3251,1.0431,2.3251,2.3298s-1.0409,2.3296-2.3251,2.3296-2.3251-1.0429-2.3251-2.3296,1.0409-2.3298,2.3251-2.3298z" stroke="#000" stroke-width="0.44732827" class="fil1 str1" fill="#feed01"/>
    <path id="path22" d="m62.317,51.95c1.7974,0,3.2552,1.4606,3.2552,3.2616,0,1.8011-1.4578,3.2615-3.2552,3.2615-1.7976,0-3.2554-1.4604-3.2554-3.2615s1.4578-3.2616,3.2554-3.2616zm0,0.93187c1.2842,0,2.3251,1.0431,2.3251,2.3298s-1.0409,2.3296-2.3251,2.3296-2.3253-1.0429-2.3253-2.3296,1.0411-2.3298,2.3253-2.3298z" stroke="#000" stroke-width="0.44732827" class="fil1 str1" fill="#feed01"/>
    <path id="path24" class="fil2" fill-rule="nonzero" fill="#000" d="m29.961,49.368c-1.0457-1.5478-2.0128-3.174-2.6986-4.9172-1.0515,1.923-3.3907,3.2349-5.1667,4.4018-2.4578,1.6151-5.4197,2.581-7.3247,2.6932l3.9881,4.8019c4.4628-0.6419,8.3102-3.6822,11.202-6.9796zm43.866-3.2337-0.000537-0.000716,0-0.000358c-0.38702-0.50972-0.97514-0.85539-1.6133-0.93366-0.99802,1.2473-2.0105,2.4028-3.0641,3.4782-1.0204,1.0413-2.0802,2.0088-3.2045,2.9115,1.4837,0.53552,2.9672,2.293,3.4242,3.7694,0.85019-1.274,1.6652-2.6341,2.4186-4.1516,0.75026-1.5113,1.4392-3.1789,2.0397-5.0727zm-14.96,10.848c-6.9336,4.141-15.676,4.8877-22.621,0.06251-2.2041,3.6363-5.1594,6.5836-9.0387,8.3963,11.298,9.4159,26.984,7.8183,36.521-2.5764-0.87378-2.3523-2.5922-4.6919-4.8612-5.8824z"/>
    <path id="path26" class="fil3" fill-rule="nonzero" fill="#feed01" d="m36.147,56.937c-0.57454-0.74184-1.2699-1.5299-2.1398-1.927-0.5538-0.98542-1.2535-2.1938-2.2697-2.7508-0.34626-1.0408-0.91561-1.9986-1.6814-2.7854-2.9006,3.3043-6.7464,6.3356-11.211,7.0043,0.21469,1.4969,1.3495,2.532,2.6003,3.2414,0.41884,1.556,1.2465,2.7211,2.8856,3.101,0.27082,1.4445,1.3784,2.2698,2.7769,2.5117,3.8868-1.8054,6.839-4.7539,9.0396-8.3952zm33.139-1.3533c-0.32391-1.4002-1.9639-3.4363-3.4719-3.8905-0.77993,0.34316-1.6235,0.85862-1.9278,1.7034-0.79906,0.28083-1.8539,0.6822-2.1473,1.57-1.1342,0.40173-1.9912,1.0049-2.7484,1.9207,2.2663,1.2143,3.9839,3.5502,4.8653,5.9131,0.95977-0.35265,1.8221-1.623,2.1346-2.5484,0.91222-0.54501,1.4462-1.5242,1.8348-2.4795,0.79548-0.5545,1.2027-1.2754,1.4607-2.1888z"/>
    <path id="path28" d="m65.805,51.617c1.1754,0.3308,3.1971,2.4293,3.548,3.9508m-5.54-2.2305c1.3026,0.23032,3.5606,3.1361,4.0727,4.5103m-6.2202-2.9144c1.4871,0.761,3.5693,3.3034,4.4345,5.339m-7.245-3.377c2.1998,1.1332,4.0656,3.5668,4.9526,5.9797m8.3787-17.755c-2.0109,2.5169-4.0772,4.6599-6.4332,6.5306-0.82927,0.37737-1.6235,0.87474-1.9224,1.6902-0.79352,0.28459-1.8618,0.71533-2.1485,1.5714-1.5872,0.59319-2.2277,1.3259-2.7787,1.9665-6.9132,4.0576-15.524,4.9515-22.645,0.08884-0.73739-0.96429-1.4755-1.6785-2.2018-2.0122-0.70289-1.2707-1.4565-2.3025-2.2624-2.7453-0.34161-1.0359-0.96996-2.0686-1.7549-2.8526-1.0118-1.4946-2.0652-3.2478-2.7604-5.0595m46.642,1.7706c-1.2163,3.8679-2.7978,6.7926-4.5234,9.3722-0.24615,0.91181-0.54022,1.6979-1.5162,2.3776-0.51805,1.2886-1.1378,2.065-1.8339,2.4806-0.40418,1.1043-1.1103,2.2212-2.2533,2.5973-10.015,10.823-25.493,11.826-36.677,2.5617-1.3629-0.34818-2.542-0.96178-2.8486-2.5794-1.7638-0.41677-2.4751-1.6239-2.885-3.1123-1.4106-0.80829-2.4131-1.8528-2.6129-3.2985l-4.1151-5.007m4.0927,4.9588c3.6814-0.52387,7.6148-2.8268,11.307-7.0536m-8.7244,10.45c3.6619-0.95587,7.149-3.5863,10.492-7.6102m-7.619,10.678c3.946-1.2686,7.1544-4.1129,9.8125-7.9803m-6.8834,10.489c4.3317-2.0122,7.065-5.0876,9.1064-8.4828" stroke="#000" stroke-width="0.44732827" class="fil4 str1" fill="none"/>
    <path id="path30" d="m77.623,40.674-3.7331,5.4264c-0.427-0.568-1.066-0.917-1.745-0.979l2.0652-6.501" stroke="#000" stroke-width="0.44732827" class="fil4 str1" fill="none"/>
    <ellipse id="ellipse32" ry="0.5431" d="M 1.4274,0 C 1.4274,0.29994585 0.78833125,0.5431 0,0.5431 -0.78833125,0.5431 -1.4274,0.29994585 -1.4274,0 c 0,-0.29994585 0.63906875,-0.5431 1.4274,-0.5431 0.78833125,0 1.4274,0.24315415 1.4274,0.5431 z" rx="1.4274" transform="matrix(1.1953239,0.7195967,-0.76837205,1.2812289,75.917174,39.646059)" stroke="#000" cy="0" cx="0" stroke-dasharray="none" stroke-miterlimit="4" stroke-width="0.30983" class="fil4 str1" fill="none"/>
    <ellipse id="ellipse34" ry="0.5431" d="M 1.4274,0 C 1.4274,0.29994585 0.78833125,0.5431 0,0.5431 -0.78833125,0.5431 -1.4274,0.29994585 -1.4274,0 c 0,-0.29994585 0.63906875,-0.5431 1.4274,-0.5431 0.78833125,0 1.4274,0.24315415 1.4274,0.5431 z" rx="1.4274" transform="matrix(0.90055121,0.54213869,-0.37125538,0.61905232,75.917174,39.646059)" stroke="#000" cy="0" cx="0" stroke-width="0.12" class="fil4 str2" fill="none"/>
    <path id="path36" d="m23.61,33.071,3.7046,11.119c-1.4156,3.027-9.08,7.2689-12.735,7.3348l-7.325-10.462" class="fil4 str1" stroke="#000" stroke-miterlimit="4" stroke-dasharray="none" stroke-width="0.44732222" fill="none"/>
    <ellipse id="ellipse38" ry="3.3711" d="M 12.691,0 C 12.691,1.8618071 7.0090458,3.3710999 0,3.3710999 -7.0090458,3.3710999 -12.691,1.8618071 -12.691,0 c 0,-1.8618071 5.6819542,-3.3710999 12.691,-3.3710999 7.0090458,0 12.691,1.5092928 12.691,3.3710999 z" rx="12.691" transform="matrix(0.64434437,-0.31486878,0.39255291,0.8063914,15.432452,37.066988)" stroke="#000" cy="0" cx="0" stroke-dasharray="none" stroke-miterlimit="4" stroke-width="0.55776" class="fil4 str1" fill="none"/>
    <ellipse id="ellipse40" ry="3.3711" d="M 12.691,0 C 12.691,1.8618071 7.0090458,3.3710999 0,3.3710999 -7.0090458,3.3710999 -12.691,1.8618071 -12.691,0 c 0,-1.8618071 5.6819542,-3.3710999 12.691,-3.3710999 7.0090458,0 12.691,1.5092928 12.691,3.3710999 z" rx="12.691" transform="matrix(0.49182225,-0.24033541,0.20326868,0.41756059,15.38526,36.970273)" stroke="#000" cy="0" cx="0" stroke-dasharray="none" stroke-miterlimit="4" stroke-width="1.7744" class="fil4 str3" fill="none"/>
   </g>
  </g>
  <g id="Слой_x0020_1" transform="matrix(1.7790662,0,0,1.7790662,130.78268,386.54979)">
   <g id="_157861864">
    <g id="g3863" fill="#000">
     <circle id="_157016112" d="m 101.246,133.49001 c 0,0.84996 -0.68903,1.539 -1.538999,1.539 -0.849967,0 -1.539,-0.68904 -1.539,-1.539 0,-0.84997 0.689033,-1.539 1.539,-1.539 0.849969,0 1.538999,0.68903 1.538999,1.539 z" cy="133.49" cx="99.707" r="1.539" class="fil0"/>
     <circle id="_157016424" d="m 72.694998,152.89999 c 0,0.84997 -0.689034,1.539 -1.539,1.539 -0.849966,0 -1.539,-0.68903 -1.539,-1.539 0,-0.84996 0.689034,-1.539 1.539,-1.539 0.849966,0 1.539,0.68904 1.539,1.539 z" cy="152.9" cx="71.156" r="1.539" class="fil0"/>
     <circle id="_157015728" d="m 98.64,133.02 c 0,0.93668 -0.759325,1.696 -1.696,1.696 -0.936675,0 -1.696,-0.75932 -1.696,-1.696 0,-0.93667 0.759325,-1.696 1.696,-1.696 0.936675,0 1.696,0.75933 1.696,1.696 z" cy="133.02" cx="96.944" r="1.696" class="fil0"/>
     <circle id="_157015848" d="m 71.724497,147.28 c 0,0.98003 -0.794471,1.7745 -1.7745,1.7745 -0.980029,0 -1.7745,-0.79447 -1.7745,-1.7745 0,-0.98003 0.794471,-1.7745 1.7745,-1.7745 0.980029,0 1.7745,0.79447 1.7745,1.7745 z" cy="147.28" cx="69.95" r="1.7745" class="fil0"/>
     <circle id="_156419000" d="m 72.118997,150.14999 c 0,0.93668 -0.759326,1.696 -1.696,1.696 -0.936675,0 -1.696,-0.75932 -1.696,-1.696 0,-0.93667 0.759325,-1.696 1.696,-1.696 0.936674,0 1.696,0.75933 1.696,1.696 z" cy="150.15" cx="70.423" r="1.696" class="fil0"/>
     <circle id="_156418544" d="m 95.912501,132.48 c 0,0.98003 -0.794471,1.7745 -1.774501,1.7745 -0.980029,0 -1.7745,-0.79447 -1.7745,-1.7745 0,-0.98003 0.794471,-1.7745 1.7745,-1.7745 0.98003,0 1.774501,0.79447 1.774501,1.7745 z" cy="132.48" cx="94.138" r="1.7745" class="fil0"/>
     <circle id="_156418088" d="m 71.720996,144.12 c 0,1.02338 -0.829616,1.853 -1.853,1.853 -1.023383,0 -1.853,-0.82962 -1.853,-1.853 0,-1.02339 0.829617,-1.853 1.853,-1.853 1.023384,0 1.853,0.82961 1.853,1.853 z" cy="144.12" cx="69.868" r="1.853" class="fil0"/>
     <circle id="_156418400" d="m 92.960002,132 c 0,1.02338 -0.829616,1.853 -1.853,1.853 -1.023383,0 -1.853,-0.82962 -1.853,-1.853 0,-1.02338 0.829617,-1.853 1.853,-1.853 1.023384,0 1.853,0.82962 1.853,1.853 z" cy="132" cx="91.107" r="1.853" class="fil0"/>
     <circle id="_156418760" d="m 72.138501,140.78 c 0,1.06674 -0.864762,1.9315 -1.9315,1.9315 -1.066738,0 -1.9315,-0.86476 -1.9315,-1.9315 0,-1.06674 0.864762,-1.9315 1.9315,-1.9315 1.066738,0 1.9315,0.86476 1.9315,1.9315 z" cy="140.78" cx="70.207" r="1.9315" class="fil0"/>
     <circle id="_156418160" d="m 89.851498,131.57001 c 0,1.06674 -0.864762,1.9315 -1.9315,1.9315 -1.066738,0 -1.9315,-0.86476 -1.9315,-1.9315 0,-1.06674 0.864762,-1.9315 1.9315,-1.9315 1.066738,0 1.9315,0.86476 1.9315,1.9315 z" cy="131.57" cx="87.92" r="1.9315" class="fil0"/>
     <circle id="_156418112" d="m 73.642503,137.57001 c 0,1.10981 -0.899684,2.0095 -2.0095,2.0095 -1.109816,0 -2.0095,-0.89969 -2.0095,-2.0095 0,-1.10982 0.899684,-2.0095 2.0095,-2.0095 1.109816,0 2.0095,0.89968 2.0095,2.0095 z" cy="137.57" cx="71.633" r="2.0095" class="fil0"/>
     <circle id="_156418784" d="m 86.516504,131.42 c 0,1.10981 -0.899684,2.0095 -2.0095,2.0095 -1.109816,0 -2.0095,-0.89969 -2.0095,-2.0095 0,-1.10982 0.899684,-2.0095 2.0095,-2.0095 1.109816,0 2.0095,0.89968 2.0095,2.0095 z" cy="131.42" cx="84.507" r="2.0095" class="fil0"/>
     <circle id="_156418640" d="m 76.070002,134.69 c 0,1.15317 -0.934829,2.088 -2.088,2.088 -1.15317,0 -2.088,-0.93483 -2.088,-2.088 0,-1.15317 0.93483,-2.088 2.088,-2.088 1.153171,0 2.088,0.93483 2.088,2.088 z" cy="134.69" cx="73.982" r="2.088" class="fil0"/>
     <circle id="_156418184" d="m 83.012004,131.69 c 0,1.15317 -0.93483,2.088 -2.088,2.088 -1.153171,0 -2.088,-0.93483 -2.088,-2.088 0,-1.15317 0.934829,-2.088 2.088,-2.088 1.15317,0 2.088,0.93483 2.088,2.088 z" cy="131.69" cx="80.924" r="2.088" class="fil0"/>
     <circle id="_156418256" d="m 79.269999,132.64999 c 0,1.15317 -0.934829,2.088 -2.088,2.088 -1.15317,0 -2.088,-0.93483 -2.088,-2.088 0,-1.15317 0.93483,-2.088 2.088,-2.088 1.153171,0 2.088,0.93483 2.088,2.088 z" cy="132.65" cx="77.182" r="2.088" class="fil0"/>
    </g>
    <g id="g3880" fill="#FFF">
     <circle id="_156418352" d="m 100.64696,133.49001 c 0,0.51912 -0.42083,0.93996 -0.939959,0.93996 -0.519126,0 -0.93996,-0.42084 -0.93996,-0.93996 0,-0.51913 0.420834,-0.93996 0.93996,-0.93996 0.519129,0 0.939959,0.42083 0.939959,0.93996 z" cy="133.49" cx="99.707" r="0.93996" class="fil1"/>
     <circle id="_156418424" d="m 72.095958,152.89999 c 0,0.51913 -0.420834,0.93996 -0.93996,0.93996 -0.519125,0 -0.93996,-0.42083 -0.93996,-0.93996 0,-0.51912 0.420835,-0.93996 0.93996,-0.93996 0.519126,0 0.93996,0.42084 0.93996,0.93996 z" cy="152.9" cx="71.156" r="0.93996" class="fil1"/>
     <circle id="_155868192" d="m 98.0409,133.02 c 0,0.60581 -0.491099,1.0969 -1.0969,1.0969 -0.605801,0 -1.0969,-0.49109 -1.0969,-1.0969 0,-0.6058 0.491099,-1.0969 1.0969,-1.0969 0.605801,0 1.0969,0.4911 1.0969,1.0969 z" cy="133.02" cx="96.944" r="1.0969" class="fil1"/>
     <circle id="_155868840" d="m 71.125497,147.28 c 0,0.64921 -0.526289,1.1755 -1.1755,1.1755 -0.649211,0 -1.1755,-0.52629 -1.1755,-1.1755 0,-0.64921 0.526289,-1.1755 1.1755,-1.1755 0.649211,0 1.1755,0.52629 1.1755,1.1755 z" cy="147.28" cx="69.95" r="1.1755" class="fil1"/>
     <circle id="_155868504" d="m 71.519897,150.14999 c 0,0.60581 -0.491099,1.0969 -1.0969,1.0969 -0.605802,0 -1.0969,-0.49109 -1.0969,-1.0969 0,-0.6058 0.491098,-1.0969 1.0969,-1.0969 0.605801,0 1.0969,0.4911 1.0969,1.0969 z" cy="150.15" cx="70.423" r="1.0969" class="fil1"/>
     <circle id="_155868216" d="m 95.313501,132.48 c 0,0.64921 -0.52629,1.1755 -1.175501,1.1755 -0.64921,0 -1.1755,-0.52629 -1.1755,-1.1755 0,-0.64922 0.52629,-1.1755 1.1755,-1.1755 0.649211,0 1.175501,0.52628 1.175501,1.1755 z" cy="132.48" cx="94.138" r="1.1755" class="fil1"/>
     <circle id="_155868696" d="m 71.121996,144.12 c 0,0.69256 -0.561435,1.254 -1.254,1.254 -0.692565,0 -1.254,-0.56144 -1.254,-1.254 0,-0.69257 0.561435,-1.254 1.254,-1.254 0.692565,0 1.254,0.56143 1.254,1.254 z" cy="144.12" cx="69.868" r="1.254" class="fil1"/>
     <circle id="_155868648" d="m 92.361002,132 c 0,0.69257 -0.561435,1.254 -1.254,1.254 -0.692565,0 -1.254,-0.56143 -1.254,-1.254 0,-0.69257 0.561435,-1.254 1.254,-1.254 0.692565,0 1.254,0.56143 1.254,1.254 z" cy="132" cx="91.107" r="1.254" class="fil1"/>
     <circle id="_155868936" d="m 71.539501,140.78 c 0,0.73592 -0.596581,1.3325 -1.3325,1.3325 -0.73592,0 -1.3325,-0.59658 -1.3325,-1.3325 0,-0.73592 0.59658,-1.3325 1.3325,-1.3325 0.735919,0 1.3325,0.59658 1.3325,1.3325 z" cy="140.78" cx="70.207" r="1.3325" class="fil1"/>
     <circle id="_155868432" d="m 89.252498,131.57001 c 0,0.73592 -0.59658,1.3325 -1.3325,1.3325 -0.735919,0 -1.3325,-0.59658 -1.3325,-1.3325 0,-0.73592 0.596581,-1.3325 1.3325,-1.3325 0.73592,0 1.3325,0.59658 1.3325,1.3325 z" cy="131.57" cx="87.92" r="1.3325" class="fil1"/>
     <circle id="_155868888" d="m 73.043903,137.57001 c 0,0.77922 -0.631681,1.4109 -1.4109,1.4109 -0.779218,0 -1.4109,-0.63168 -1.4109,-1.4109 0,-0.77922 0.631682,-1.4109 1.4109,-1.4109 0.779219,0 1.4109,0.63168 1.4109,1.4109 z" cy="137.57" cx="71.633" r="1.4109" class="fil1"/>
     <circle id="_155868288" d="m 85.916897,131.42 c 0,0.77922 -0.631682,1.4109 -1.4109,1.4109 -0.779219,0 -1.4109,-0.63168 -1.4109,-1.4109 0,-0.77922 0.631681,-1.4109 1.4109,-1.4109 0.779218,0 1.4109,0.63168 1.4109,1.4109 z" cy="131.42" cx="84.506" r="1.4109" class="fil1"/>
     <circle id="_155868312" d="m 75.471402,134.69 c 0,0.82258 -0.666827,1.4894 -1.4894,1.4894 -0.822573,0 -1.4894,-0.66682 -1.4894,-1.4894 0,-0.82257 0.666827,-1.4894 1.4894,-1.4894 0.822573,0 1.4894,0.66683 1.4894,1.4894 z" cy="134.69" cx="73.982" r="1.4894" class="fil1"/>
     <circle id="_155868456" d="m 82.413404,131.69 c 0,0.82258 -0.666827,1.4894 -1.4894,1.4894 -0.822573,0 -1.4894,-0.66682 -1.4894,-1.4894 0,-0.82257 0.666827,-1.4894 1.4894,-1.4894 0.822573,0 1.4894,0.66683 1.4894,1.4894 z" cy="131.69" cx="80.924" r="1.4894" class="fil1"/>
     <circle id="_155868120" d="m 78.671399,132.64999 c 0,0.82258 -0.666827,1.4894 -1.4894,1.4894 -0.822573,0 -1.4894,-0.66682 -1.4894,-1.4894 0,-0.82257 0.666827,-1.4894 1.4894,-1.4894 0.822573,0 1.4894,0.66683 1.4894,1.4894 z" cy="132.65" cx="77.182" r="1.4894" class="fil1"/>
    </g>
   </g>
   <g id="_157989456">
    <g id="g3898" fill="#000">
     <circle id="_157861840" d="m 111.329,133.49001 c 0,0.84996 -0.68903,1.539 -1.539,1.539 -0.84997,0 -1.539,-0.68904 -1.539,-1.539 0,-0.84997 0.68903,-1.539 1.539,-1.539 0.84997,0 1.539,0.68903 1.539,1.539 z" cy="133.49" cx="109.79" r="1.539" class="fil0"/>
     <circle id="_157861768" d="m 139.879,152.89999 c 0,0.84997 -0.68904,1.539 -1.539,1.539 -0.84997,0 -1.539,-0.68903 -1.539,-1.539 0,-0.84996 0.68903,-1.539 1.539,-1.539 0.84996,0 1.539,0.68904 1.539,1.539 z" cy="152.9" cx="138.34" r="1.539" class="fil0"/>
     <circle id="_157861000" d="m 114.246,133.02 c 0,0.93668 -0.75932,1.696 -1.696,1.696 -0.93667,0 -1.696,-0.75932 -1.696,-1.696 0,-0.93667 0.75933,-1.696 1.696,-1.696 0.93668,0 1.696,0.75933 1.696,1.696 z" cy="133.02" cx="112.55" r="1.696" class="fil0"/>
     <circle id="_157861624" d="m 141.3245,147.28 c 0,0.98003 -0.79447,1.7745 -1.7745,1.7745 -0.98003,0 -1.7745,-0.79447 -1.7745,-1.7745 0,-0.98003 0.79447,-1.7745 1.7745,-1.7745 0.98003,0 1.7745,0.79447 1.7745,1.7745 z" cy="147.28" cx="139.55" r="1.7745" class="fil0"/>
     <circle id="_157861696" d="m 140.76601,150.14999 c 0,0.93668 -0.75933,1.696 -1.696,1.696 -0.93668,0 -1.696,-0.75932 -1.696,-1.696 0,-0.93667 0.75932,-1.696 1.696,-1.696 0.93667,0 1.696,0.75933 1.696,1.696 z" cy="150.15" cx="139.07" r="1.696" class="fil0"/>
     <circle id="_157861480" d="m 117.1345,132.48 c 0,0.98003 -0.79447,1.7745 -1.7745,1.7745 -0.98003,0 -1.7745,-0.79447 -1.7745,-1.7745 0,-0.98003 0.79447,-1.7745 1.7745,-1.7745 0.98003,0 1.7745,0.79447 1.7745,1.7745 z" cy="132.48" cx="115.36" r="1.7745" class="fil0"/>
     <circle id="_157861504" d="m 141.483,144.12 c 0,1.02338 -0.82961,1.853 -1.853,1.853 -1.02338,0 -1.853,-0.82962 -1.853,-1.853 0,-1.02339 0.82962,-1.853 1.853,-1.853 1.02339,0 1.853,0.82961 1.853,1.853 z" cy="144.12" cx="139.63" r="1.853" class="fil0"/>
     <circle id="_157862272" d="m 120.243,132 c 0,1.02338 -0.82962,1.853 -1.853,1.853 -1.02338,0 -1.853,-0.82962 -1.853,-1.853 0,-1.02338 0.82962,-1.853 1.853,-1.853 1.02338,0 1.853,0.82962 1.853,1.853 z" cy="132" cx="118.39" r="1.853" class="fil0"/>
     <circle id="_157862056" d="m 141.22149,140.78 c 0,1.06674 -0.86476,1.9315 -1.9315,1.9315 -1.06673,0 -1.9315,-0.86476 -1.9315,-1.9315 0,-1.06674 0.86477,-1.9315 1.9315,-1.9315 1.06674,0 1.9315,0.86476 1.9315,1.9315 z" cy="140.78" cx="139.29" r="1.9315" class="fil0"/>
     <circle id="_157862176" d="m 123.5115,131.57001 c 0,1.06674 -0.86476,1.9315 -1.9315,1.9315 -1.06674,0 -1.9315,-0.86476 -1.9315,-1.9315 0,-1.06674 0.86476,-1.9315 1.9315,-1.9315 1.06674,0 1.9315,0.86476 1.9315,1.9315 z" cy="131.57" cx="121.58" r="1.9315" class="fil0"/>
     <circle id="_157862104" d="m 139.8695,137.57001 c 0,1.10981 -0.89968,2.0095 -2.0095,2.0095 -1.10982,0 -2.0095,-0.89969 -2.0095,-2.0095 0,-1.10982 0.89968,-2.0095 2.0095,-2.0095 1.10982,0 2.0095,0.89968 2.0095,2.0095 z" cy="137.57" cx="137.86" r="2.0095" class="fil0"/>
     <circle id="_157861912" d="m 126.9995,131.42 c 0,1.10981 -0.89969,2.0095 -2.0095,2.0095 -1.10982,0 -2.0095,-0.89969 -2.0095,-2.0095 0,-1.10982 0.89968,-2.0095 2.0095,-2.0095 1.10981,0 2.0095,0.89968 2.0095,2.0095 z" cy="131.42" cx="124.99" r="2.0095" class="fil0"/>
     <circle id="_157862320" d="m 137.59799,134.69 c 0,1.15317 -0.93482,2.088 -2.088,2.088 -1.15317,0 -2.088,-0.93483 -2.088,-2.088 0,-1.15317 0.93483,-2.088 2.088,-2.088 1.15318,0 2.088,0.93483 2.088,2.088 z" cy="134.69" cx="135.51" r="2.088" class="fil0"/>
     <circle id="_157862536" d="m 130.65801,131.69 c 0,1.15317 -0.93483,2.088 -2.088,2.088 -1.15317,0 -2.088,-0.93483 -2.088,-2.088 0,-1.15317 0.93483,-2.088 2.088,-2.088 1.15317,0 2.088,0.93483 2.088,2.088 z" cy="131.69" cx="128.57" r="2.088" class="fil0"/>
     <circle id="_157861648" d="m 134.398,132.64999 c 0,1.15317 -0.93483,2.088 -2.088,2.088 -1.15317,0 -2.088,-0.93483 -2.088,-2.088 0,-1.15317 0.93483,-2.088 2.088,-2.088 1.15317,0 2.088,0.93483 2.088,2.088 z" cy="132.65" cx="132.31" r="2.088" class="fil0"/>
    </g>
    <g id="g3915" fill="#FFF">
     <circle id="_157862488" d="m 110.72996,133.49001 c 0,0.51912 -0.42083,0.93996 -0.93996,0.93996 -0.51912,0 -0.93996,-0.42084 -0.93996,-0.93996 0,-0.51913 0.42084,-0.93996 0.93996,-0.93996 0.51913,0 0.93996,0.42083 0.93996,0.93996 z" cy="133.49" cx="109.79" r="0.93996" class="fil1"/>
     <circle id="_157862248" d="m 139.27996,152.89999 c 0,0.51913 -0.42084,0.93996 -0.93996,0.93996 -0.51913,0 -0.93996,-0.42083 -0.93996,-0.93996 0,-0.51912 0.42083,-0.93996 0.93996,-0.93996 0.51912,0 0.93996,0.42084 0.93996,0.93996 z" cy="152.9" cx="138.34" r="0.93996" class="fil1"/>
     <circle id="_157862080" d="m 113.6469,133.02 c 0,0.60581 -0.4911,1.0969 -1.0969,1.0969 -0.6058,0 -1.0969,-0.49109 -1.0969,-1.0969 0,-0.6058 0.4911,-1.0969 1.0969,-1.0969 0.6058,0 1.0969,0.4911 1.0969,1.0969 z" cy="133.02" cx="112.55" r="1.0969" class="fil1"/>
     <circle id="_157860952" d="m 140.7255,147.28 c 0,0.64921 -0.52629,1.1755 -1.1755,1.1755 -0.64921,0 -1.1755,-0.52629 -1.1755,-1.1755 0,-0.64921 0.52629,-1.1755 1.1755,-1.1755 0.64921,0 1.1755,0.52629 1.1755,1.1755 z" cy="147.28" cx="139.55" r="1.1755" class="fil1"/>
     <circle id="_157989432" d="m 140.16691,150.14999 c 0,0.60581 -0.4911,1.0969 -1.0969,1.0969 -0.6058,0 -1.0969,-0.49109 -1.0969,-1.0969 0,-0.6058 0.4911,-1.0969 1.0969,-1.0969 0.6058,0 1.0969,0.4911 1.0969,1.0969 z" cy="150.15" cx="139.07" r="1.0969" class="fil1"/>
     <circle id="_157988616" d="m 116.5355,132.48 c 0,0.64921 -0.52629,1.1755 -1.1755,1.1755 -0.64921,0 -1.1755,-0.52629 -1.1755,-1.1755 0,-0.64922 0.52629,-1.1755 1.1755,-1.1755 0.64921,0 1.1755,0.52628 1.1755,1.1755 z" cy="132.48" cx="115.36" r="1.1755" class="fil1"/>
     <circle id="_157989648" d="m 140.884,144.12 c 0,0.69256 -0.56143,1.254 -1.254,1.254 -0.69256,0 -1.254,-0.56144 -1.254,-1.254 0,-0.69257 0.56144,-1.254 1.254,-1.254 0.69257,0 1.254,0.56143 1.254,1.254 z" cy="144.12" cx="139.63" r="1.254" class="fil1"/>
     <circle id="_157989576" d="m 119.644,132 c 0,0.69257 -0.56144,1.254 -1.254,1.254 -0.69257,0 -1.254,-0.56143 -1.254,-1.254 0,-0.69257 0.56143,-1.254 1.254,-1.254 0.69256,0 1.254,0.56143 1.254,1.254 z" cy="132" cx="118.39" r="1.254" class="fil1"/>
     <circle id="_157989360" d="m 140.62249,140.78 c 0,0.73592 -0.59658,1.3325 -1.3325,1.3325 -0.73592,0 -1.3325,-0.59658 -1.3325,-1.3325 0,-0.73592 0.59658,-1.3325 1.3325,-1.3325 0.73592,0 1.3325,0.59658 1.3325,1.3325 z" cy="140.78" cx="139.29" r="1.3325" class="fil1"/>
     <circle id="_157987992" d="m 122.9125,131.57001 c 0,0.73592 -0.59658,1.3325 -1.3325,1.3325 -0.73592,0 -1.3325,-0.59658 -1.3325,-1.3325 0,-0.73592 0.59658,-1.3325 1.3325,-1.3325 0.73592,0 1.3325,0.59658 1.3325,1.3325 z" cy="131.57" cx="121.58" r="1.3325" class="fil1"/>
     <circle id="_157988352" d="m 139.2709,137.57001 c 0,0.77922 -0.63168,1.4109 -1.4109,1.4109 -0.77922,0 -1.4109,-0.63168 -1.4109,-1.4109 0,-0.77922 0.63168,-1.4109 1.4109,-1.4109 0.77922,0 1.4109,0.63168 1.4109,1.4109 z" cy="137.57" cx="137.86" r="1.4109" class="fil1"/>
     <circle id="_157989216" d="m 126.4009,131.42 c 0,0.77922 -0.63168,1.4109 -1.4109,1.4109 -0.77922,0 -1.4109,-0.63168 -1.4109,-1.4109 0,-0.77922 0.63168,-1.4109 1.4109,-1.4109 0.77922,0 1.4109,0.63168 1.4109,1.4109 z" cy="131.42" cx="124.99" r="1.4109" class="fil1"/>
     <circle id="_157988376" d="m 136.99939,134.69 c 0,0.82258 -0.66682,1.4894 -1.4894,1.4894 -0.82257,0 -1.4894,-0.66682 -1.4894,-1.4894 0,-0.82257 0.66683,-1.4894 1.4894,-1.4894 0.82258,0 1.4894,0.66683 1.4894,1.4894 z" cy="134.69" cx="135.51" r="1.4894" class="fil1"/>
     <circle id="_157989096" d="m 130.05941,131.69 c 0,0.82258 -0.66683,1.4894 -1.4894,1.4894 -0.82258,0 -1.4894,-0.66682 -1.4894,-1.4894 0,-0.82257 0.66682,-1.4894 1.4894,-1.4894 0.82257,0 1.4894,0.66683 1.4894,1.4894 z" cy="131.69" cx="128.57" r="1.4894" class="fil1"/>
     <circle id="_157989264" d="m 133.7994,132.64999 c 0,0.82258 -0.66683,1.4894 -1.4894,1.4894 -0.82258,0 -1.4894,-0.66682 -1.4894,-1.4894 0,-0.82257 0.66682,-1.4894 1.4894,-1.4894 0.82257,0 1.4894,0.66683 1.4894,1.4894 z" cy="132.65" cx="132.31" r="1.4894" class="fil1"/>
    </g>
   </g>
   <path id="path3932" class="fil2" fill-rule="nonzero" fill="#000" d="m77.496,180.74c-3.4739-0.1148-5.9398-1.9893-5.918-5.6414,0.0365-6.4135-0.2251-12.369-4.1176-17.789l-0.0135-0.019-0.0119-0.02c-1.0894-1.8523-0.2117-4.1284,1.9003-4.7309,1.0893-0.3107,2.0894-0.2766,2.9968-0.001-1.5571-5.525-2.0021-11.278,1.6968-15.39,5.0436-5.6071,13.651-4.2228,20.114-3.1833,3.4787,0.5595,6.9819,0.9395,10.509,0.9501,3.592,0.0108,7.1595-0.3804,10.702-0.9501,6.4634-1.0395,15.071-2.4238,20.114,3.1833,3.7111,4.1258,3.251,9.9032,1.6813,15.445,0.8446-0.2553,1.7253-0.3105,2.5858-0.117,2.2406,0.5039,3.569,2.6826,2.3266,4.7948l-0.0119,0.02-0.0135,0.019c-3.9253,5.4659-4.1543,11.367-4.1176,17.789,0.0218,3.6522-2.4441,5.5265-5.918,5.6413-9.0044,0.2971-18.224-0.1477-27.252-0.145-9.0284,0.003-18.247,0.4421-27.252,0.145z"/>
   <path id="path3934" class="fil3" fill-rule="nonzero" fill="#feed01" d="m136.32,152.92c1.631-5.5146,2.2244-11.289-1.3767-15.293-4.7881-5.3231-13.179-3.9735-19.481-2.9601-2.5965,0.4176-5.2071,0.7397-7.8306,0.8807,0.0514,0.5974,0.1087,1.1942,0.1724,1.79,2.8608-0.1632,5.7022-0.538,8.5357-1.0024,5.491-0.9004,13.247-2.1723,17.362,2.5934,3.4935,4.0458,2.1538,10.324,0.1829,15.89,0.6921-0.8181,1.5297-1.4726,2.4346-1.8988zm-34.467-17.376c-2.6202-0.1421-5.2276-0.4596-7.8211-0.8768-6.3012-1.0134-14.692-2.363-19.481,2.9601-3.5914,3.9927-3.0109,9.7472-1.3899,15.248,0.9422,0.4631,1.7687,1.1837,2.4752,2.0205-1.9859-5.5854-3.3542-11.903,0.1555-15.967,4.115-4.7657,11.871-3.4938,17.362-2.5934,2.8263,0.4632,5.6606,0.8338,8.5142,0.9984,0.0683-0.5956,0.1294-1.1925,0.1844-1.7899z"/>
   <path id="path3936" d="m112.6,154.63c1.838,1.2387,3.1974,3.3592,3.8282,6.751,0.8275-4.1692,4.181-8.8152,8.7325-9.0179,2.8969-0.129,6.2968,1.6896,7.0031,5.0228,2.3567-5.9728,4.8445-13.554,1.006-17.999-3.8577-4.4677-11.387-3.2331-16.717-2.359-2.8451,0.4659-5.6991,0.8418-8.5714,1.0075,0.2639,2.2716,0.6318,4.5293,1.1607,6.7637,0.8156,3.4464,2.0118,6.6923,3.5582,9.831z" fill-rule="nonzero" class="fil4" fill="#e12713"/>
   <path id="path3938" d="m101.59,138.03c-2.8631-0.1672-5.7074-0.5386-8.5435-1.003-5.3303-0.8741-12.86-2.1087-16.717,2.359-3.8988,4.5153-1.271,12.265,1.117,18.28,0.5018-4.1894,4.4646-5.9131,8.3894-4.9475,3.956,0.9734,6.2322,4.3192,7.3622,8.0775,0.7645-2.9337,2.0209-4.9308,3.657-6.0941,1.5093-3.0922,2.6571-6.3006,3.4773-9.68,0.5601-2.3083,0.9659-4.6421,1.2579-6.9914z" fill-rule="nonzero" class="fil5" fill="#e12713"/>
   <path id="path3940" class="fil3" fill-rule="nonzero" fill="#feed01" d="m101.01,145.18c-0.7415,3.0553-1.7377,6.0324-3.0553,8.8795,0.2658-0.12,0.5392-0.222,0.8202-0.3067,0.1409-0.0425,0.2922-0.081,0.4521-0.1156,1.1116-2.8297,1.9729-5.7248,2.589-8.7292,0.6787-3.3093,1.0678-6.6582,1.3206-10.022-0.1715-0.006-0.3431-0.0118-0.5145-0.0189-0.2873,3.4842-0.7948,6.9451-1.6121,10.313zm5.3465-10.291c0.2528,3.3628,0.6425,6.711,1.3211,10.019,0.6097,2.9727,1.4595,5.8387,2.5543,8.6401,0.4382,0.1224,0.8611,0.2745,1.2665,0.4592-1.4182-3.014-2.4237-6.017-3.1429-9.0561-0.7805-3.2977-1.2235-6.638-1.4901-10.081-0.1696,0.007-0.3392,0.0128-0.5089,0.0181z"/>
   <path id="path3942" class="fil3" fill-rule="nonzero" fill="#feed01" d="m109.38,153.36c-1.0447-2.7324-1.8176-5.496-2.3933-8.3025-0.6807-3.3182-1.0851-6.6916-1.339-10.143-0.3328,0.006-0.6661,0.008-0.9993,0.007-0.2689-0.0008-0.5373-0.004-0.8059-0.008-0.2539,3.4518-0.6587,6.8256-1.3394,10.144-0.586,2.857-1.3758,5.6694-2.4492,8.4498,1.2576-0.1627,2.843-0.1899,4.4066-0.2264,1.7917-0.0419,3.5551-0.159,4.7631,0.0506,0.0523,0.009,0.1044,0.0187,0.1564,0.0285z"/>
   <path id="path3944" class="fil6" fill-rule="nonzero" fill="url(#id0)" d="m77.527,179.75c8.9919,0.2968,18.206-0.3731,27.221-0.3758,9.015-0.003,18.231,0.6731,27.221,0.3758,2.9361-0.0971,5.3181-1.5343,5.2994-4.6413-0.0428-6.6368-0.0988-12.711,3.9435-18.354,0.8819-1.5221-0.1227-2.947-1.6961-3.3006-3.993-0.898-6.2863,3.4443-7.4164,6.4577-0.4086-4.714-3.243-6.5501-7.0761-6.2726-5.6174,0.4067-7.6347,5.8821-8.7889,10.702-0.9598-6.1118-2.3351-8.9792-7.3747-9.7437-1.2798-0.1941-2.8839-0.2024-4.4932-0.1865-1.8236,0.0181-3.6545,0.0951-5.0276,0.4643-3.9478,1.0618-5.138,3.6406-6.0777,8.7396-0.8574-4.7342-2.829-8.5897-7.6296-9.7788-4.526-1.1212-7.4494,1.3382-8.2354,5.7438-0.8778-3.1004-4.2621-7.1991-7.9209-5.982-1.3983,0.4651-1.9127,1.9123-1.1916,3.1569,4.1498,5.793,4.1175,11.566,4.0737,18.354-0.0187,3.107,2.2331,4.5443,5.1692,4.6414z"/>
   <g id="хвосты" fill="#000" fill-rule="nonzero">
    <path id="_157988256" class="fil2" d="m85.555,167.27c0.6625,2.4171,1.6384,0.9641,2.1259-0.2697,0.5586-1.414,1.1248-3.9489,1.2314-6.4003,0.7455,2.0748,0.3416,5.0272-0.0907,6.6656-0.693,2.6306-1.2686,4.9036-1.342,7.66-1.552-2.29-2.475-4.5103-3.1047-7.2763-0.522-2.2925-1.1989-4.9108-2.6918-6.4164,2.4086,0.6586,3.376,4.2274,3.8719,6.0371z"/>
    <path id="_157989336" class="fil2" d="m104.36,167.01c0.5505,2.445,1.5923,1.0385,2.1361-0.1715,0.6232-1.3867,1.3056-3.8929,1.525-6.3367,0.6491,2.1069,0.1096,5.0376-0.3977,6.6543-0.8135,2.5959-1.4932,4.8399-1.6935,7.59-1.4449-2.359-2.2646-4.6195-2.7662-7.4116-0.4158-2.3141-0.9713-4.9608-2.3933-6.5336,2.3757,0.7689,3.1777,4.3785,3.5896,6.2091z"/>
    <path id="_157988952" class="fil2" d="m72.32,166.58c0.3454,2.3933,1.3932,1.1097,1.9712-0.0187,0.6624-1.2933,1.4521-3.6608,1.8131-6.0002,0.458,2.0743-0.2284,4.8607-0.7995,6.3834-0.9159,2.4451-1.6861,4.5604-2.0495,7.196-1.1717-2.3717-1.7762-4.6056-2.0542-7.3298-0.2304-2.2579-0.5673-4.8458-1.7693-6.4585,2.1296,0.9036,2.6297,4.436,2.8882,6.2278z"/>
    <path id="_157987968" class="fil2" d="m123.94,167.27c-0.6625,2.4171-1.6384,0.9641-2.1259-0.2697-0.5586-1.414-1.1248-3.9489-1.2314-6.4003-0.7455,2.0748-0.3416,5.0272,0.0907,6.6656,0.693,2.6306,1.2686,4.9036,1.342,7.66,1.552-2.29,2.475-4.5103,3.1047-7.2763,0.522-2.2925,1.1989-4.9108,2.6918-6.4164-2.4086,0.6586-3.376,4.2274-3.8719,6.0371z"/>
    <path id="_157989696" class="fil2" d="m137.18,166.58c-0.3454,2.3933-1.3932,1.1097-1.9712-0.0187-0.6624-1.2933-1.4521-3.6608-1.8131-6.0002-0.458,2.0743,0.2284,4.8607,0.7995,6.3834,0.9159,2.4451,1.6861,4.5604,2.0495,7.196,1.1717-2.3717,1.7762-4.6056,2.0542-7.3298,0.2304-2.2579,0.5673-4.8458,1.7693-6.4585-2.1296,0.9036-2.6297,4.436-2.8882,6.2278z"/>
    <path id="_157988856" class="fil2" d="m67.768,156.94c2.0702-2.7611,6.1317-0.2742,7.359,2.0934-1.9199-1.8354-5.0076-3.2371-6.4028-1.3762l-0.9562-0.7172zm10.452,7.9639c0.0139-2.9486,0.1642-6.7757,3.2646-8.2738,3.2276-1.5611,7.0053-0.2553,8.9944,2.7069-2.5381-2.2338-5.4516-3.2354-8.6632-1.5302h-0.0016c-2.7924,1.5487-2.874,3.6282-3.5942,7.0971zm30.76-6.8895c-3.3857-0.8039-8.4829-0.7407-10.515,1.0613l-0.0087,0.008-0.0002-0.0002c-1.2276,1.1041-1.9639,2.0467-2.895,5.2444,0.1065-1.9088,0.5442-4.7421,2.1007-6.1372l0.0023-0.002,0.0087-0.008c2.3327-2.0682,7.9215-2.2028,11.584-1.3331,3.7556,0.8916,4.8948,3.341,4.9298,7.1632-0.8438-3.0679-2.0163-5.2387-5.2064-5.996zm8.4461,6.2544c0.9731-4.5046,2.912-8.3961,7.8646-8.582,4.4176-0.1658,5.8986,2.7877,5.8964,6.8304-0.6925-3.3571-1.9513-5.6715-5.7918-5.6224-4.3518,0.0557-6.4362,3.6644-7.9692,7.374zm16.353-4.6971c1.2068-3.4315,5.2136-5.6538,7.9425-2.3587l-0.9234,0.764c-2.3244-2.7153-5.4525-0.6667-7.0191,1.5947z"/>
   </g>
   <g id="_157738824">
    <circle id="_157737768" d="m 106.71,151.87 c 0,1.08247 -0.87752,1.96 -1.96,1.96 -1.08248,0 -1.96,-0.87753 -1.96,-1.96 0,-1.08248 0.87752,-1.96 1.96,-1.96 1.08248,0 1.96,0.87752 1.96,1.96 z" cy="151.87" cx="104.75" r="1.96" class="fil0" fill="#000"/>
    <circle id="_157739232" d="m 106.602,148.42 c 0,1.02283 -0.82917,1.852 -1.852,1.852 -1.02283,0 -1.852,-0.82917 -1.852,-1.852 0,-1.02283 0.82917,-1.852 1.852,-1.852 1.02283,0 1.852,0.82917 1.852,1.852 z" cy="148.42" cx="104.75" r="1.852" class="fil0" fill="#000"/>
    <circle id="_157739088" d="m 106.4935,145.17999 c 0,0.96291 -0.78059,1.7435 -1.7435,1.7435 -0.96291,0 -1.7435,-0.78059 -1.7435,-1.7435 0,-0.96291 0.78059,-1.7435 1.7435,-1.7435 0.96291,0 1.7435,0.78059 1.7435,1.7435 z" cy="145.18" cx="104.75" r="1.7435" class="fil0" fill="#000"/>
    <circle id="_157738680" d="m 106.3855,142.14999 c 0,0.90327 -0.73224,1.6355 -1.6355,1.6355 -0.90326,0 -1.6355,-0.73223 -1.6355,-1.6355 0,-0.90326 0.73224,-1.6355 1.6355,-1.6355 0.90326,0 1.6355,0.73224 1.6355,1.6355 z" cy="142.15" cx="104.75" r="1.6355" class="fil0" fill="#000"/>
    <circle id="_157738776" d="m 106.2775,139.35001 c 0,0.84361 -0.68389,1.5275 -1.5275,1.5275 -0.84361,0 -1.5275,-0.68389 -1.5275,-1.5275 0,-0.84362 0.68389,-1.5275 1.5275,-1.5275 0.84361,0 1.5275,0.68388 1.5275,1.5275 z" cy="139.35" cx="104.75" r="1.5275" class="fil0" fill="#000"/>
    <circle id="_157737720" d="m 106.1695,136.75999 c 0,0.78397 -0.63553,1.4195 -1.4195,1.4195 -0.78397,0 -1.4195,-0.63553 -1.4195,-1.4195 0,-0.78396 0.63553,-1.4195 1.4195,-1.4195 0.78397,0 1.4195,0.63554 1.4195,1.4195 z" cy="136.76" cx="104.75" r="1.4195" class="fil0" fill="#000"/>
    <circle id="_157739160" d="m 106.1109,151.87 c 0,0.7516 -0.6093,1.3609 -1.3609,1.3609 -0.7516,0 -1.3609,-0.6093 -1.3609,-1.3609 0,-0.75161 0.6093,-1.3609 1.3609,-1.3609 0.7516,0 1.3609,0.60929 1.3609,1.3609 z" cy="151.87" cx="104.75" r="1.3609" class="fil1" fill="#FFF"/>
    <circle id="_157739352" d="m 105.57046,136.75999 c 0,0.45313 -0.36733,0.82046 -0.82046,0.82046 -0.45313,0 -0.82046,-0.36733 -0.82046,-0.82046 0,-0.45312 0.36733,-0.82046 0.82046,-0.82046 0.45313,0 0.82046,0.36734 0.82046,0.82046 z" cy="136.76" cx="104.75" r="0.82046" class="fil1" fill="#FFF"/>
    <circle id="_157738992" d="m 106.003,148.42 c 0,0.69201 -0.56099,1.253 -1.253,1.253 -0.69201,0 -1.253,-0.56099 -1.253,-1.253 0,-0.69201 0.56099,-1.253 1.253,-1.253 0.69201,0 1.253,0.56099 1.253,1.253 z" cy="148.42" cx="104.75" r="1.253" class="fil1" fill="#FFF"/>
    <circle id="_157739184" d="m 105.895,145.17999 c 0,0.63237 -0.51263,1.145 -1.145,1.145 -0.63237,0 -1.145,-0.51263 -1.145,-1.145 0,-0.63236 0.51263,-1.145 1.145,-1.145 0.63237,0 1.145,0.51264 1.145,1.145 z" cy="145.18" cx="104.75" r="1.145" class="fil1" fill="#FFF"/>
    <circle id="_157738944" d="m 105.6785,139.35001 c 0,0.51279 -0.4157,0.9285 -0.9285,0.9285 -0.5128,0 -0.9285,-0.41571 -0.9285,-0.9285 0,-0.5128 0.4157,-0.9285 0.9285,-0.9285 0.5128,0 0.9285,0.4157 0.9285,0.9285 z" cy="139.35" cx="104.75" r="0.9285" class="fil1" fill="#FFF"/>
    <circle id="_157737504" d="m 105.787,142.14999 c 0,0.57272 -0.46428,1.037 -1.037,1.037 -0.57272,0 -1.037,-0.46428 -1.037,-1.037 0,-0.57272 0.46428,-1.037 1.037,-1.037 0.57272,0 1.037,0.46428 1.037,1.037 z" cy="142.15" cx="104.75" r="1.037" class="fil1" fill="#FFF"/>
   </g>
   <g id="_157739016">
    <polygon id="_157738560" class="fil2" points="102.77,117.82,101.66,113.88,107.84,113.88,106.72,117.82,110.66,116.7,110.66,122.88,106.72,121.77,107.84,125.7,101.66,125.7,102.77,121.77,98.839,122.88,98.839,116.7" fill="#000" fill-rule="nonzero"/>
    <polygon id="_157737384" class="fil3" points="99.544,117.64,99.544,121.95,103.79,120.75,102.59,125,106.91,125,105.7,120.75,109.95,121.95,109.95,117.64,105.7,118.84,106.91,114.59,102.59,114.59,103.79,118.84" fill="#feed01" fill-rule="nonzero"/>
    <circle id="_157737528" d="m 110.347,129.88 c 0,3.09114 -2.50586,5.59701 -5.597,5.59701 -3.09114,0 -5.597,-2.50587 -5.597,-5.59701 0,-3.09113 2.50586,-5.597 5.597,-5.597 3.09114,0 5.597,2.50587 5.597,5.597 z" cy="129.88" cx="104.75" r="5.597" class="fil0" fill="#000"/>
    <path id="_157737792" d="m104.8,124.99,0.0144,0.0002,0.0144,0.0001,0.002,0c0.0281,0.0004,0.056,0.001,0.0841,0.002l0.0144,0.0005,0.0143,0.0006c0.0286,0.001,0.0572,0.002,0.0858,0.004l0.0144,0.0009,0.0143,0.0009,0.0144,0.0009c0.0334,0.002,0.0666,0.005,0.0999,0.007l0.0144,0.001,0.0141,0.001,0.0144,0.001,0.0712,0.007,0.0144,0.002,0.0141,0.001,0.0144,0.002,0.0286,0.004v4.4067h4.2657l0.0009,0.01c0.0369,0.4153,0.0208,0.8356-0.0476,1.247h-9.6499c-0.0136-0.082-0.0254-0.1645-0.0347-0.2465v-0.001c-0.0382-0.334-0.0417-0.6726-0.0111-1.0089h4.2191v-4.4002c0.0295-0.004,0.0587-0.008,0.0881-0.0112h0.001c0.0871-0.01,0.1708-0.0176,0.2504-0.0225h0.001c0.1193-0.008,0.2389-0.0108,0.3585-0.01z" class="fil7" fill="#feed01"/>
    <path id="_157738872" d="m106.06,125.17c1.6994,0.4721,3.0271,1.8388,3.4435,3.5608l-3.4435-0.0001v-3.5607zm3.3413,6.2287c-0.6378,1.9605-2.4799,3.3783-4.6529,3.3783s-4.0151-1.4178-4.6529-3.3783h9.3058zm-9.408-2.668c0.4127-1.7066,1.7204-3.0643,3.3979-3.5479v3.5479h-3.3979z" class="fil8" fill="#feed01"/>
    <circle id="_157738632" d="m 106.733,119.79 c 0,1.09518 -0.88782,1.983 -1.983,1.983 -1.09518,0 -1.983,-0.88782 -1.983,-1.983 0,-1.09518 0.88782,-1.983 1.983,-1.983 1.09518,0 1.983,0.88782 1.983,1.983 z" cy="119.79" cx="104.75" r="1.983" class="fil0" fill="#000"/>
    <circle id="_157737456" d="m 106.134,119.79 c 0,0.76436 -0.61964,1.384 -1.384,1.384 -0.76436,0 -1.384,-0.61964 -1.384,-1.384 0,-0.76436 0.61964,-1.384 1.384,-1.384 0.76436,0 1.384,0.61964 1.384,1.384 z" cy="119.79" cx="104.75" r="1.384" class="fil1" fill="#FFF"/>
   </g>
  </g>
 </g>
</svg>
