<?xml version="1.0" encoding="UTF-8" standalone="no"?>
<!-- Creator: CorelDRAW -->

<svg
   xmlns:dc="http://purl.org/dc/elements/1.1/"
   xmlns:cc="http://creativecommons.org/ns#"
   xmlns:rdf="http://www.w3.org/1999/02/22-rdf-syntax-ns#"
   xmlns:svg="http://www.w3.org/2000/svg"
   xmlns="http://www.w3.org/2000/svg"
   xmlns:sodipodi="http://sodipodi.sourceforge.net/DTD/sodipodi-0.dtd"
   xmlns:inkscape="http://www.inkscape.org/namespaces/inkscape"
   xml:space="preserve"
   width="300"
   height="360"
   style="fill-rule:evenodd"
   viewBox="0 0 84.666667 101.6"
   id="svg2"
   version="1.1"
   inkscape:version="0.48.1 "
   sodipodi:docname="логойск.svg"><metadata
   id="metadata28"><rdf:RDF><cc:Work
       rdf:about=""><dc:format>image/svg+xml</dc:format><dc:type
         rdf:resource="http://purl.org/dc/dcmitype/StillImage" /></cc:Work></rdf:RDF></metadata><sodipodi:namedview
   pagecolor="#ffffff"
   bordercolor="#666666"
   borderopacity="1"
   objecttolerance="10"
   gridtolerance="10"
   guidetolerance="10"
   inkscape:pageopacity="0"
   inkscape:pageshadow="2"
   inkscape:window-width="1280"
   inkscape:window-height="750"
   id="namedview26"
   showgrid="false"
   fit-margin-top="0"
   fit-margin-left="0"
   fit-margin-right="0"
   fit-margin-bottom="0"
   inkscape:zoom="1.475"
   inkscape:cx="56.1017"
   inkscape:cy="180"
   inkscape:window-x="-8"
   inkscape:window-y="-8"
   inkscape:window-maximized="1"
   inkscape:current-layer="svg2" />
 <defs
   id="defs4"><style
     type="text/css"
     id="style6">
   
    .fil0 {fill:black;fill-rule:nonzero}
    .fil1 {fill:#3C82C2;fill-rule:nonzero}
    .fil2 {fill:#F8E73D;fill-rule:nonzero}
   
  </style><style
     id="style3025"
     type="text/css">
   
    .str0 {stroke:#FF6600;stroke-width:0.7056}
    .fil1 {fill:none}
    .fil0 {fill:#A90000}
   
  </style></defs>
 <g
   id="Слой_x0020_1"
   transform="matrix(1.3647022,0,0,1.3649291,-100.96026,-151.89204)">
  <metadata
   id="CorelCorpID_0Corel-Layer" />
  <path
   class="fil0"
   d="m 73.9803,111.282 1e-4,37.4444 -7e-4,0 c 0,16.9146 14.9839,32.0279 31.0202,36.9917 16.0364,-4.9638 31.0202,-20.0771 31.0202,-36.9917 l -6e-4,0 1e-4,-37.4444 -62.0393,0 z"
   id="path10"
   inkscape:connector-curvature="0"
   style="fill:#000000;fill-rule:nonzero" />
  <path
   class="fil1"
   d="m 74.482,111.786 1e-4,36.9408 0.0013,0 0,8e-4 -0.0013,0 0,0.1669 c 0.0162,2.7098 0.4247,5.3767 1.1659,7.9638 0.6164,2.1509 1.4619,4.2429 2.5023,6.2555 5.3476,10.3437 15.837,18.6248 26.8507,22.0782 2.1681,-0.68 4.3175,-1.548 6.4125,-2.5831 2.1397,-1.0571 4.2248,-2.2906 6.217,-3.6775 10.1946,-7.0972 17.8603,-18.1657 17.8873,-30.1412 l 0,-0.0634 1e-4,-36.9408 -61.0359,0 z"
   id="path12"
   inkscape:connector-curvature="0"
   style="fill:#3c82c2;fill-rule:nonzero" />
  <path
   class="fil0"
   d="m 77.2697,161.286 8.8802,-5.0604 c 0.6673,-0.3801 1.3294,-0.7527 2.0397,-0.9512 0.7415,-0.2071 1.513,-0.2195 2.3501,0.1493 0.5277,0.2326 1.0316,0.5221 1.5345,0.8029 l 4.4688,2.4258 -6.9903,5.3022 0.3767,0.5233 11.4203,-8.6315 c 1.2431,-0.9345 2.7193,-2.0358 4.3565,-1.9412 1.744,0.1009 3.2985,1.3112 4.689,2.2846 l 3.8871,2.7214 c -2.3831,1.8078 -4.7177,3.6754 -7.049,5.5491 l -1e-4,-1e-4 -0.007,0.006 -0.001,0.001 c -0.8885,0.7141 -1.7775,1.4277 -2.6689,2.1381 l 0.4519,0.4495 c 0.8735,-0.6675 1.716,-1.3747 2.5733,-2.0626 l 0.004,-0.004 0.003,-0.002 4e-4,6e-4 c 3.2807,-2.6329 6.634,-5.3238 10.0032,-7.7257 l 8e-4,-6e-4 c 0.6798,-0.4845 1.3108,-0.9002 1.9186,-1.2164 1.8442,-0.9595 3.5341,-0.8644 5.2683,0.2801 1.5163,1.0007 2.9262,2.1546 4.4639,3.1239 0.9644,0.6081 1.9526,1.1818 2.9695,1.698 l 0.001,0 c 0.157,0.0798 0.3151,0.1582 0.4729,0.2366 -3.1251,6.9285 -8.58,13.0402 -15.0564,17.5489 -1.9922,1.3869 -4.0773,2.6204 -6.217,3.6775 -2.095,1.0351 -4.2444,1.9031 -6.4125,2.5831 -11.0137,-3.4534 -21.5031,-11.7345 -26.8507,-22.0782 -0.3114,-0.6024 -0.6051,-1.2116 -0.8806,-1.8277 z"
   id="path14"
   inkscape:connector-curvature="0"
   style="fill:#000000;fill-rule:nonzero" />
  <path
   class="fil2"
   d="m 132.542,161.702 c -1.1556,-0.5601 -2.3274,-1.2261 -3.4858,-1.9565 -1.5452,-0.9742 -2.9533,-2.1267 -4.4708,-3.1281 -1.1727,-0.7741 -2.184,-1.0105 -3.1734,-0.8655 -1.1456,0.168 -2.2841,0.8461 -3.6152,1.795 -3.3636,2.3982 -6.7153,5.0879 -9.9947,7.7195 -0.9438,0.7573 -1.8563,1.5266 -2.8253,2.2532 l -0.9487,-0.9436 c 3.2147,-2.5567 6.3853,-5.1712 9.6585,-7.6533 l -3.7278,-2.6099 -3e-4,4e-4 c -0.9773,-0.6608 -1.7807,-1.1734 -2.4804,-1.5236 -1.2447,-0.6229 -2.328,-0.7504 -3.6079,-0.1445 -0.6622,0.3132 -1.4069,0.8041 -2.3091,1.4824 l 3e-4,4e-4 -11.7062,8.8479 -0.7874,-1.0938 6.8296,-5.1803 -3.992,-2.167 -0.0016,-8e-4 c -0.5927,-0.331 -1.0762,-0.5985 -1.5055,-0.7877 -1.5032,-0.6625 -2.7773,0.0465 -4.0743,0.7853 l -8.9082,5.0763 c 0.2327,0.5066 0.478,1.0087 0.735,1.5059 5.3476,10.3437 15.837,18.6248 26.8507,22.0782 2.1681,-0.68 4.3175,-1.548 6.4125,-2.5831 2.1397,-1.0571 4.2248,-2.2906 6.217,-3.6775 6.3767,-4.4393 11.7637,-10.4324 14.911,-17.2293 z"
   id="path16"
   inkscape:connector-curvature="0"
   style="fill:#f8e73d;fill-rule:nonzero" />
  <polygon
   class="fil0"
   points="112.509,120.609 108.717,124.257 109.641,129.437 105,126.957 100.359,129.437 101.283,124.257 97.4905,120.609 102.703,119.888 105,115.153 107.297,119.888 "
   id="polygon18"
   style="fill:#000000;fill-rule:nonzero" />
  <polygon
   class="fil2"
   points="101.663,124.134 100.833,128.785 105,126.559 109.167,128.785 108.337,124.134 111.743,120.858 107.062,120.21 105,115.959 102.938,120.21 98.2572,120.858 "
   id="polygon20"
   style="fill:#f8e73d;fill-rule:nonzero" />
  <path
   class="fil0"
   d="m 105.001,133.87 c 6.3361,0 12.6715,-2.151 17.4443,-6.3499 1.0497,-0.9236 1.9777,-1.9403 2.8658,-3.016 -0.2425,3.235 -0.9815,6.3143 -2.4742,9.2066 -3.4564,6.6962 -10.1485,11.2362 -17.8366,11.2362 l -0.008,0 0,-7e-4 c -7.5418,-0.003 -14.3439,-4.5076 -17.8145,-11.2075 -1.5025,-2.9004 -2.244,-5.9596 -2.4861,-9.2021 0.7763,0.8752 1.5274,1.7527 2.3868,2.5521 4.8107,4.4729 11.38,6.7813 17.9222,6.7813 z"
   id="path22"
   inkscape:connector-curvature="0"
   style="fill:#000000;fill-rule:nonzero" />
  <path
   class="fil2"
   d="m 105.001,134.221 c -6.6319,1e-4 -13.286,-2.3412 -18.162,-6.8749 -0.6029,-0.5608 -1.1732,-1.1505 -1.7081,-1.7668 0.2842,2.8655 1.103,5.5616 2.348,7.9731 3.4047,6.5941 10.0938,11.0395 17.5137,11.042 l 0,-7e-4 0.008,0 c 7.5515,0 14.1263,-4.4626 17.5238,-11.0446 1.2793,-2.4787 2.0713,-5.196 2.3463,-7.9707 -0.6319,0.7279 -1.3147,1.4202 -2.0436,2.0725 -4.8514,4.342 -11.338,6.5701 -17.8258,6.5701 z"
   id="path24"
   inkscape:connector-curvature="0"
   style="fill:#f8e73d;fill-rule:nonzero" />
 </g>
</svg>