<?xml version="1.0" encoding="UTF-8" standalone="no"?>
<!-- Creator: CorelDRAW -->

<svg
   xmlns:dc="http://purl.org/dc/elements/1.1/"
   xmlns:cc="http://creativecommons.org/ns#"
   xmlns:rdf="http://www.w3.org/1999/02/22-rdf-syntax-ns#"
   xmlns:svg="http://www.w3.org/2000/svg"
   xmlns="http://www.w3.org/2000/svg"
   xmlns:sodipodi="http://sodipodi.sourceforge.net/DTD/sodipodi-0.dtd"
   xmlns:inkscape="http://www.inkscape.org/namespaces/inkscape"
   xml:space="preserve"
   width="300"
   height="360"
   style="fill-rule:evenodd"
   viewBox="0 0 84.666667 101.6"
   id="svg2"
   version="1.1"
   inkscape:version="0.48.1 "
   sodipodi:docname="Coat_of_Arms_of_Stolin,_Belarus.svg"><metadata
   id="metadata20"><rdf:RDF><cc:Work
       rdf:about=""><dc:format>image/svg+xml</dc:format><dc:type
         rdf:resource="http://purl.org/dc/dcmitype/StillImage" /></cc:Work></rdf:RDF></metadata><sodipodi:namedview
   pagecolor="#ffffff"
   bordercolor="#666666"
   borderopacity="1"
   objecttolerance="10"
   gridtolerance="10"
   guidetolerance="10"
   inkscape:pageopacity="0"
   inkscape:pageshadow="2"
   inkscape:window-width="1280"
   inkscape:window-height="750"
   id="namedview18"
   showgrid="false"
   fit-margin-top="0"
   fit-margin-left="0"
   fit-margin-right="0"
   fit-margin-bottom="0"
   inkscape:zoom="1.475"
   inkscape:cx="150"
   inkscape:cy="180"
   inkscape:window-x="-8"
   inkscape:window-y="-8"
   inkscape:window-maximized="1"
   inkscape:current-layer="svg2" />
 <defs
   id="defs4"><style
     type="text/css"
     id="style6">
   
    .fil2 {fill:#F8E335}
    .fil3 {fill:white}
    .fil0 {fill:black;fill-rule:nonzero}
    .fil1 {fill:#3C82C2;fill-rule:nonzero}
   
  </style><style
     id="style3017"
     type="text/css">
   
    .str0 {stroke:#FF6600;stroke-width:0.7056}
    .fil1 {fill:none}
    .fil0 {fill:#A90000}
   
  </style></defs>
 <path
   style="fill:#a90000"
   inkscape:connector-curvature="0"
   class="fil0"
   d="m 62.583334,48.5501 c 0.828299,0 1.5,0.6717 1.5,1.5 l 0,1.4998 c 0,0.8283 -0.671701,1.5 -1.5,1.5 l -1.5,0 0,-4.4998 1.5,0 z m 0,5.9998 c 1.6566,0 3,-1.3434 3,-3 l 0,-1.4998 c 0,-1.6566 -1.3434,-3 -3,-3 l -3,0 0,7.4998 3,0 z m -6,-7.4998 1.5,0 0,7.4998 -1.5,0 0,-7.4998 z m -3,0 1.5,0 0,7.4998 -1.5,0 -3,-4.7086 0,4.7086 -1.5,0 0,-7.4998 1.5,0 3,4.7086 0,-4.7086 z m -22.5,10e-5 4.5,0 0,1.5 -3,0 0,1.4999 3,0 0,1.5 -3,0 0,1.4999 3,0 0,1.5 -4.5,0 0,-7.4998 z m -6,-2e-4 1.5,0 0,6 3,0 0,1.5 -4.5,0 0,-7.5 z m 15.750399,6 1.499601,0 c 1.242399,0 2.25,-1.0076 2.25,-2.25 0,-1.2424 -1.0263,-2.2457 -2.25,-2.25 l -1.499601,0 0,1.5 1.499601,0 c 0.414099,0 0.75,0.3359 0.75,0.75 0,0.4141 -0.335901,0.75 -0.75,0.75 l -1.499601,0 0,1.5 z m 1.499601,-7.5 c 2.899,0 5.25,2.351 5.25,5.25 0,2.899 -2.351,5.25 -5.25,5.25 -2.899001,0 -5.25,-2.351 -5.25,-5.25 0,-2.899 2.350999,-5.25 5.25,-5.25 z m 0,1.5 c 2.0707,0 3.75,1.6793 3.75,3.75 0,2.0707 -1.6793,3.75 -3.75,3.75 -2.070701,0 -3.75,-1.6793 -3.75,-3.75 0,-2.0707 1.679299,-3.75 3.75,-3.75 z"
   id="path3021" /><g
   id="_157518072"
   transform="matrix(1.8405757,0,0,1.8408932,-150.92702,-222.27129)">
   <path
   style="fill:#000000;fill-rule:nonzero"
   inkscape:connector-curvature="0"
   d="m 82.0004,120.741 0,27.7631 -5e-4,0 c 0,12.5413 11.1099,23.7471 23.0001,27.4275 11.8902,-3.6804 23,-14.8862 23,-27.4275 l -4e-4,0 0,-27.7631 -45.9992,0 z"
   class="fil0"
   id="_157142392" />
   <path
   style="fill:#3c82c2;fill-rule:nonzero"
   inkscape:connector-curvature="0"
   d="m 82.3724,121.115 0,27.3897 0.001,0 0,6e-4 -0.001,0 0,0.1238 c 0.012,2.0092 0.3149,3.9865 0.8645,5.9047 0.457,1.5948 1.0839,3.146 1.8553,4.6381 3.965,7.6694 11.7424,13.8094 19.9086,16.3699 1.6076,-0.5042 3.2012,-1.1478 4.7545,-1.9152 1.5866,-0.7838 3.1325,-1.6984 4.6097,-2.7267 7.5588,-5.2622 13.2426,-13.469 13.2626,-22.3482 l 0,-0.047 0,-27.3897 -45.2552,0 z"
   class="fil1"
   id="_158712944" />
  </g>
<g
   style="fill-rule:evenodd;stroke:#000000;stroke-width:0.11392102;stroke-miterlimit:4;stroke-opacity:1;stroke-dasharray:none"
   id="_156897592-4"
   transform="matrix(2.1532611,0,0,1.8408932,-184.3663,-222.5403)"><path
     style="fill:#f8c300;stroke:#000000;stroke-width:0.11392102000000000;stroke-miterlimit:4;stroke-opacity:1;stroke-dasharray:none;fill-opacity:1"
     inkscape:connector-curvature="0"
     d="m 92.7608,149.626 c 0.5063,0.051 0.9985,0.1306 1.4927,-0.0622 0.232,-0.0905 0.5778,0.005 0.3421,0.311 -0.1716,0.2231 -0.0853,0.3998 0.2954,0.2643 0.2971,-0.1057 0.5714,-0.2295 0.8552,-0.3265 0.6418,-0.2194 0.6311,0.3151 0.3853,0.4752 -0.4681,0.3046 0.0921,0.428 0.3455,0.2928 0.1958,-0.1046 0.3771,-0.2057 0.5753,-0.2765 0.639,-0.2284 0.8728,0.2379 0.5908,0.4725 -0.5725,0.4764 -0.1924,0.6852 0.1244,0.6064 0.2425,-0.0603 0.4846,-0.0816 0.7308,-0.0535 0.7533,0.0861 0.6255,0.5179 0.4042,0.691 -0.2464,0.1928 -0.2597,0.275 -0.0932,0.4043 0.2931,0.2277 0.3165,0.4024 0.1554,0.6064 -0.148,0.1875 -0.3023,0.3611 -0.3887,0.5442 -0.206,0.4365 -1.2158,0.1536 -1.3648,-0.1711 -0.2503,-0.5454 -0.4581,-0.4051 -0.5943,-0.2487 -0.4001,0.4589 -0.6578,0.1396 -0.7463,-0.0933 -0.0887,-0.2333 -0.1821,-0.4823 -0.2177,-0.7464 -0.086,-0.6383 -0.407,-0.3782 -0.4233,-0.0932 -0.0259,0.4534 -0.4716,0.495 -0.634,-0.0156 -0.0761,-0.239 -0.1664,-0.4735 -0.2333,-0.7152 -0.0767,-0.2773 -0.1704,-0.3591 -0.3109,-0.2333 -0.2711,0.2427 -0.4207,-0.0287 -0.4976,-0.2798 -0.2596,-0.8484 -0.4981,-0.9637 -0.793,-0.9951 -0.3621,-0.0386 -0.7343,0.0947 -1.0908,0.0113 -0.0533,0.1493 -0.0211,0.3302 0.0818,0.5051 0.2061,0.3171 0.4212,0.6286 0.6184,0.9514 0.1517,0.2484 0.3167,0.4768 0.4994,0.6897 0.3048,0.3552 0.4933,0.8019 0.5708,1.2606 0.0979,0.5789 0.2142,0.9703 0.5471,1.1892 0.1618,0.1064 0.1198,0.1045 0.2827,0.1605 0.0895,0.0308 0.1797,0.0849 0.2461,0.2114 0.0851,0.1623 0.2246,0.264 0.4522,0.3827 0.3452,0.1799 0.6564,0.3458 1.0262,0.3826 0.5024,0.0501 0.5645,0.2936 0.5218,0.487 -0.0745,0.3367 0.0567,0.4457 0.4696,0.3653 0.3502,-0.0682 0.6523,-0.0935 0.9566,-0.087 0.6502,0.0141 0.8849,0.6228 0.5566,0.8001 -0.3902,0.2108 -0.4692,0.3857 0.0522,0.5218 0.2389,0.0624 0.6208,0.2702 0.8058,0.4484 0.3559,0.343 0.2282,0.8439 -0.1101,0.8561 -0.8051,0.0292 -0.7242,0.4339 -0.1739,0.6436 0.2076,0.0791 0.2399,0.2003 0.3827,0.2957 0.376,0.2511 0.4346,0.4767 0.1217,0.6957 -0.1568,0.1097 -0.1256,0.1837 -0.0522,0.3305 0.1205,0.2405 0.0952,0.5311 -0.1217,0.5218 -0.208,-0.009 -0.2738,0.0716 -0.1913,0.3478 0.0915,0.3066 -0.1121,0.6769 -0.4001,0.4871 -0.2086,-0.1376 -0.2457,-0.1107 -0.2783,0.1043 -0.0407,0.2687 -0.2795,0.1976 -0.3826,-0.087 -0.0419,-0.1155 -0.0947,-0.228 -0.1218,-0.3478 -0.0543,-0.2408 -0.1954,-0.3285 -0.4696,-0.3131 -0.2473,0.0139 -0.4878,-0.0394 -0.5149,-0.2615 -0.0407,-0.3351 0.1719,-0.3698 0.3062,-0.556 0.2808,-0.3893 0.0454,-0.5649 -0.5392,-0.3305 -0.4904,0.1967 -0.9195,0.38 -0.5914,-0.5218 0.1981,-0.5446 0.0646,-0.8189 -0.3827,-0.7305 -0.5517,0.1091 -0.6928,-0.1614 -0.4522,-0.9044 0.0898,-0.2774 0.0742,-0.5607 0.1218,-0.8349 0.0756,-0.4356 0.0055,-0.6419 -0.2435,-0.6436 -0.4097,-0.003 -0.3929,-0.3547 -0.4349,-0.8175 -0.0327,-0.3611 -0.1546,-0.5597 -0.2672,-0.7136 -0.0916,-0.1251 -0.2726,-0.2121 -0.4031,-0.236 0.0022,0.1267 -0.0646,0.2312 -0.1715,0.2352 -0.3444,0.013 -0.2357,0.1779 0,0.4157 0.4148,0.4186 0.1241,0.6357 -0.0714,0.666 -0.2946,0.0456 -0.1626,0.558 0.1427,0.8086 0.3218,0.2642 0.8078,1.0773 0.0952,1.0703 -0.523,-0.005 -0.5469,0.2691 -0.2855,0.6898 0.2903,0.4669 0.1721,0.6967 -0.1664,0.7373 -0.3272,0.0392 -0.3723,0.2858 -0.3568,0.4994 0.0479,0.658 -1.1753,0.6974 -1.1654,-0.3805 0.0059,-0.65 -0.0758,-0.6481 -0.4519,-0.4281 -0.4205,0.2459 -0.676,-0.1024 -0.2141,-0.8325 0.3224,-0.5094 0.4434,-0.9618 -0.1902,-0.6421 -0.5634,0.2842 -0.6803,-0.1665 -0.1428,-0.8087 0.3,-0.3584 0.5039,-0.5942 0,-0.7135 -0.3188,-0.0756 -0.4746,-0.2617 0.119,-0.6898 0.1731,-0.1248 0.3439,-0.1052 0.5232,-0.0951 0.506,0.0285 0.5,-0.244 0.0952,-0.3806 -0.373,-0.1257 -0.3313,-0.4457 0.1427,-0.6626 0.2876,-0.1315 0.6807,-0.1721 0.761,-0.7168 0.1291,-0.8752 -0.1886,-1.4999 -0.5708,-1.9741 -0.4745,-0.5887 -0.9237,-1.1634 -1.3081,-1.7838 -0.1189,-0.1982 -0.111,-0.3964 0.0238,-0.5946 0.0496,-0.1323 0.0944,-0.2448 0.066,-0.3827 -0.1529,-0.7421 -0.968,-1.6416 -1.3847,-2.9553 -0.2367,-0.746 -0.3673,-1.8883 -0.5918,-2.7006 -0.0803,-0.2902 -0.1765,-0.4761 -0.2756,-0.7538 -0.078,-0.2185 -0.0797,-0.3946 -0.192,-0.604 -0.3727,-0.6947 -0.8018,-1.3141 -1.3166,-1.819 0.045,-0.1856 0.2282,-0.2239 0.5597,-0.4975 0.0881,0.228 0.1162,0.4784 0.2644,0.6841 0.4184,0.581 0.7652,1.1754 1.0253,1.787 0.1124,0.2641 0.2937,0.5937 0.6497,0.5062 0.2861,-0.0704 0.5714,0.0229 0.7741,-0.1242 0.1347,-0.0978 0.2216,-0.2646 0.3293,-0.3772 0.1758,-0.4409 0.7329,-0.6383 1.0889,-0.3025 0.0791,0.0146 0.1595,0.0326 0.2408,0.0543 0.7859,0.209 1.3448,0.673 1.2482,1.0362 -0.0967,0.3631 -0.8123,0.4881 -1.5981,0.2791 -0.0812,-0.0216 -0.16,-0.046 -0.2358,-0.0726 -0.3123,0.075 -0.6211,-0.0983 -0.7443,-0.3941 -0.4758,0.0113 -0.3366,0.3168 -0.0275,0.5936 0.1656,0.1484 0.3806,0.2196 0.5745,0.297 0.3632,-0.2104 0.8446,-0.0818 0.9845,0.3222 0.0633,0.0495 0.1262,0.1028 0.1882,0.1596 0.5995,0.5494 0.8798,1.2196 0.626,1.4967 -0.2539,0.277 -0.946,0.0562 -1.5456,-0.4932 -0.0619,-0.0568 -0.1203,-0.1148 -0.1752,-0.1736 -0.3967,-0.0997 -0.5746,-0.536 -0.4252,-0.9105 -0.1498,-0.2544 -0.2845,-0.2936 -0.4931,-0.4267 -0.1665,-0.1062 -0.128,-0.3204 -0.2757,-0.4206 -0.2064,-0.1401 -0.5723,-0.1694 -0.8832,-0.1802 0.0887,0.3082 0.1467,0.5708 0.1887,0.8886 0.1122,0.8498 0.247,1.6255 0.482,2.3323 0.1728,0.5198 0.459,1.0061 0.6778,1.5082 0.3988,0.9148 0.9923,1.5011 1.9902,1.6015 z"
     class="fil2"
     id="_158713064-8" /><path
     style="fill:#ffffff;stroke:#000000;stroke-width:0.11392102;stroke-miterlimit:4;stroke-opacity:1;stroke-dasharray:none"
     inkscape:connector-curvature="0"
     d="m 103.859,170.559 c 0.0961,-2.2937 0.3121,-4.7766 0.0185,-7.0528 -0.1641,-1.2719 -0.2518,-2.5517 -0.4134,-3.824 -0.1024,-0.8058 -0.1086,-1.0682 -0.0334,-1.4038 0.0509,-0.2271 0.2268,-1.1499 0.391,-2.0507 0.3503,-1.9218 0.3261,-1.8304 0.9083,-3.4318 0.3231,-0.8883 0.5428,-1.6468 0.434,-2.5898 -0.1125,-0.9755 -1.0708,-1.7273 -1.9011,-2.1301 -0.7464,-0.362 -1.6575,-0.5239 -3.3124,-0.6237 -0.4869,-0.0294 -1.0211,-0.0475 -1.5084,0.0322 -0.313,0.0511 -0.6201,0.1125 -0.9257,0.1956 -0.4445,0.1209 -1.025,0.1979 -1.4528,0.0455 -0.3494,-0.1246 -0.4163,-0.3446 -0.8367,-0.33 l -8.2399,-0.1722 c -0.4303,-0.009 -0.4621,-0.2875 -0.0085,-0.2951 l 8.2371,-0.1393 c 0.4095,-0.008 0.538,-0.3042 0.8844,-0.4018 0.3862,-0.1088 0.926,-0.0527 1.3074,0.003 0.3956,0.0577 0.6496,0.2408 1.0275,0.3012 0.4721,0.0755 1.0093,0.1233 1.527,0.1177 0.9075,-0.01 2.3472,-0.2648 3.1724,-0.6857 0.4991,-0.2546 1.1829,-0.9919 1.4804,-1.5962 0.3207,-0.6514 0.3992,-1.5568 0.2015,-2.3244 -0.2448,-0.9503 -0.4113,-1.9133 -0.6774,-2.8608 -0.942,-3.3538 -1.1172,-4.1994 -0.9556,-5.7281 0.1254,-1.1865 0.1976,-2.3719 0.2902,-3.5638 0.2057,-2.6493 0.3475,-4.9817 -0.1261,-7.5444 -0.0305,-0.165 -0.2391,-0.7902 -0.0295,-0.7902 0.1857,0 1.2554,1.5055 1.3794,1.7064 0.3583,0.5806 0.3548,0.6631 0.3773,1.3418 l -0.2364,3.698 c -0.0208,0.3258 0.2952,1.1002 0.3772,0.5705 l 0.6274,-4.0529 c 0.3324,0.3349 0.7598,0.8675 0.6567,1.4928 l -0.4834,2.9335 c -0.0579,0.3518 0.1913,1.1019 0.2865,0.734 l 0.834,-3.2233 c 0.3505,0.4527 0.7205,0.9971 0.4747,1.7735 l -0.5496,1.7358 c -0.1777,0.5612 0.0462,1.0994 0.1499,0.8521 l 1.0268,-2.4499 c 0.3295,0.4038 0.4645,1.0342 0.2491,1.5705 l -0.5723,1.4249 c -0.135,0.3361 -0.0603,1.0866 0.0839,0.8043 l 1.0436,-2.0425 c 0.2393,0.3684 0.5051,1.0101 0.1992,1.6704 l -0.5373,1.1597 c -0.1145,0.2471 -0.1848,1.2202 0.0663,0.7839 l 0.9327,-1.621 c 0.2614,0.5456 0.4753,1.2123 0.1163,1.9533 l -0.4336,0.8949 c -0.1095,0.2259 -0.1885,1.1881 -0.003,0.8797 l 0.8824,-1.4657 c 0.2244,0.6295 0.4997,1.8017 0.1197,2.4971 l -0.4401,0.8056 c -0.1183,0.2165 -0.2724,1.2377 -0.0652,0.9288 l 0.8891,-1.3249 c 0.1806,1.1742 0.3941,2.3613 0.863,3.4027 0.4054,0.9002 0.9376,1.2078 0.1273,2.0558 -0.1147,0.1615 -0.8237,0.9903 -0.7194,1.1689 0.0413,0.0708 0.1663,0.0718 0.3514,-0.0505 l 0.9078,-0.8157 c 0.3545,0.3677 0.7496,0.6941 0.5002,1.0497 l -0.5169,0.8025 c -0.258,0.4005 -0.001,0.4724 0.2671,0.2352 l 0.8696,-0.7692 c 0.2443,0.4635 0.4692,0.94 0.5885,1.403 2.0859,0.1718 4.2892,0.2791 6.3618,0.2974 0.0837,-0.2522 0.1096,-0.392 0.4757,-0.3529 0.7986,0.0856 1.4105,0.3096 2.4957,0.3671 0.2511,0.0133 0.251,0.3801 0,0.3934 -1.0849,0.0574 -1.6968,0.2814 -2.495,0.367 -0.3677,0.0393 -0.4201,-0.1098 -0.4764,-0.3528 -2.0454,0.018 -4.218,0.1258 -6.2794,0.294 -0.0474,0.6169 -0.2492,1.1264 -0.541,1.6598 l -0.8929,-0.79 c -0.1766,-0.1562 -0.3308,0.0447 -0.223,0.2121 l 0.5369,0.8336 c 0.2816,0.3776 -0.2403,0.7452 -0.4441,1.0204 l -0.9434,-0.7076 c -0.1687,-0.1116 -0.2755,-0.1053 -0.311,-0.0364 -0.1208,0.235 0.6595,0.9903 0.8024,1.1615 0.5399,0.6468 0.006,1.3328 -0.2128,2.0053 -0.2564,0.7491 -0.617,1.9431 -0.8257,3.221 l -0.844,-1.226 c -0.1643,-0.2388 -0.0378,0.7066 0.0842,0.9243 l 0.4722,0.8424 c 0.4,0.7135 0.1312,1.7657 -0.1144,2.4419 l -0.9318,-1.5087 c -0.1138,-0.1844 -0.1061,0.623 0.007,0.851 l 0.4334,0.8721 c 0.4048,0.8145 0.3369,1.2952 0.0244,2.1607 l -1.047,-1.7702 c -0.1677,-0.2836 -0.1763,0.4962 -0.0684,0.7243 l 0.6241,1.3185 c 0.3467,0.7322 0.2045,1.2336 -0.1323,1.7569 l -1.1804,-2.2522 c -0.1145,-0.2185 -0.261,0.3575 -0.1099,0.7244 l 0.6711,1.6291 c 0.3048,0.7394 0.2585,1.0441 -0.18,1.6836 l -1.227,-2.854 c -0.0673,-0.1565 -0.3212,0.2645 -0.19,0.6685 l 0.6809,2.0962 c 0.3114,0.9587 0.1157,1.3947 -0.3927,2.0649 l -0.9994,-3.7653 c -0.103,-0.3881 -0.3214,0.4147 -0.2646,0.7511 l 0.5157,3.0504 c 0.1551,0.9179 -0.0599,1.2625 -0.5953,1.8456 l -0.7519,-4.7343 c -0.0445,-0.2804 -0.3664,0.2493 -0.3474,0.5392 l 0.2495,3.8046 c 0.0491,0.7482 -0.0543,1.5594 -0.5082,2.1756 -0.5206,0.7066 -0.8886,1.1357 -0.9576,1.0727 -0.1372,2e-4 -0.1425,-0.0631 -0.0969,-1.1503 l -1e-4,-1e-4 z"
     class="fil3"
     id="_158714240-8" /><path
     style="fill:#f8c300;stroke:#000000;stroke-width:0.11392102000000000;stroke-miterlimit:4;stroke-opacity:1;stroke-dasharray:none;fill-opacity:1"
     inkscape:connector-curvature="0"
     d="m 95.9237,147.665 c -0.2376,-0.1239 -0.3395,-0.2814 -0.6972,-0.269 l -8.2399,-0.1722 c -0.4303,-0.009 -0.4621,-0.2875 -0.0085,-0.2951 l 8.2371,-0.1393 c 0.3456,-0.006 0.4911,-0.2187 0.7363,-0.3434 -0.2388,0.367 -0.2177,0.9088 -0.0278,1.219 z"
     class="fil2"
     id="_158039096-2" /><path
     style="fill:#f8c300;stroke:#000000;stroke-width:0.11392102000000000;stroke-miterlimit:4;stroke-opacity:1;stroke-dasharray:none;fill-opacity:1"
     inkscape:connector-curvature="0"
     d="m 103.859,170.559 c 0.0961,-2.2937 0.3121,-4.7766 0.0185,-7.0528 l -0.0109,-0.0851 c 5.3333,-3.9767 6.4204,-8.7906 6.0454,-14.8511 1.2821,0.0166 1.9712,-0.5989 1.9709,-1.5196 -3e-4,-0.9207 -0.8983,-1.4514 -1.9408,-1.3841 -0.166,-6.3984 -1.6846,-11.9761 -6.5014,-15.1853 0.0107,-0.1436 0.0215,-0.2872 0.0327,-0.4309 0.2057,-2.6493 0.3475,-4.9817 -0.1261,-7.5444 -0.0305,-0.165 -0.2391,-0.7902 -0.0295,-0.7902 0.1857,0 1.2554,1.5055 1.3794,1.7064 0.3583,0.5806 0.3548,0.6631 0.3773,1.3418 l -0.2364,3.698 c -0.0208,0.3258 0.2952,1.1002 0.3772,0.5705 l 0.6274,-4.0529 c 0.3324,0.3349 0.7598,0.8675 0.6567,1.4928 l -0.4834,2.9335 c -0.0579,0.3518 0.1913,1.1019 0.2865,0.734 l 0.834,-3.2233 c 0.3505,0.4527 0.7205,0.9971 0.4747,1.7735 l -0.5496,1.7358 c -0.1777,0.5612 0.0462,1.0994 0.1499,0.8521 l 1.0268,-2.4499 c 0.3295,0.4038 0.4645,1.0342 0.2491,1.5705 l -0.5723,1.4249 c -0.135,0.3361 -0.0603,1.0866 0.0839,0.8043 l 1.0436,-2.0425 c 0.2393,0.3684 0.5051,1.0101 0.1992,1.6704 l -0.5373,1.1597 c -0.1145,0.2471 -0.1848,1.2202 0.0663,0.7839 l 0.9327,-1.621 c 0.2614,0.5456 0.4753,1.2123 0.1163,1.9533 l -0.4336,0.8949 c -0.1095,0.2259 -0.1885,1.1881 -0.003,0.8797 l 0.8824,-1.4657 c 0.2244,0.6295 0.4997,1.8017 0.1197,2.4971 l -0.4401,0.8056 c -0.1183,0.2165 -0.2724,1.2377 -0.0652,0.9288 l 0.8891,-1.3249 c 0.1806,1.1742 0.3941,2.3613 0.863,3.4027 0.4054,0.9002 0.9376,1.2078 0.1273,2.0558 -0.1147,0.1615 -0.8237,0.9903 -0.7194,1.1689 0.0413,0.0708 0.1663,0.0718 0.3514,-0.0505 l 0.9078,-0.8157 c 0.3545,0.3677 0.7496,0.6941 0.5002,1.0497 l -0.5169,0.8025 c -0.258,0.4005 -0.001,0.4724 0.2671,0.2352 l 0.8696,-0.7692 c 0.2443,0.4635 0.4692,0.94 0.5885,1.403 2.0859,0.1718 4.2892,0.2791 6.3618,0.2974 0.0837,-0.2522 0.1096,-0.392 0.4757,-0.3529 0.7986,0.0856 1.4105,0.3096 2.4957,0.3671 0.2511,0.0133 0.251,0.3801 0,0.3934 -1.0849,0.0574 -1.6968,0.2814 -2.495,0.367 -0.3677,0.0393 -0.4201,-0.1098 -0.4764,-0.3528 -2.0454,0.018 -4.218,0.1258 -6.2794,0.294 -0.0474,0.6169 -0.2492,1.1264 -0.541,1.6598 l -0.8929,-0.79 c -0.1766,-0.1562 -0.3308,0.0447 -0.223,0.2121 l 0.5369,0.8336 c 0.2816,0.3776 -0.2403,0.7452 -0.4441,1.0204 l -0.9434,-0.7076 c -0.1687,-0.1116 -0.2755,-0.1053 -0.311,-0.0364 -0.1208,0.235 0.6595,0.9903 0.8024,1.1615 0.5399,0.6468 0.006,1.3328 -0.2128,2.0053 -0.2564,0.7491 -0.617,1.9431 -0.8257,3.221 l -0.844,-1.226 c -0.1643,-0.2388 -0.0378,0.7066 0.0842,0.9243 l 0.4722,0.8424 c 0.4,0.7135 0.1312,1.7657 -0.1144,2.4419 l -0.9318,-1.5087 c -0.1138,-0.1844 -0.1061,0.623 0.007,0.851 l 0.4334,0.8721 c 0.4048,0.8145 0.3369,1.2952 0.0244,2.1607 l -1.047,-1.7702 c -0.1677,-0.2836 -0.1763,0.4962 -0.0684,0.7243 l 0.6241,1.3185 c 0.3467,0.7322 0.2045,1.2336 -0.1323,1.7569 l -1.1804,-2.2522 c -0.1145,-0.2185 -0.261,0.3575 -0.1099,0.7244 l 0.6711,1.6291 c 0.3048,0.7394 0.2585,1.0441 -0.18,1.6836 l -1.227,-2.854 c -0.0673,-0.1565 -0.3212,0.2645 -0.19,0.6685 l 0.6809,2.0962 c 0.3114,0.9587 0.1157,1.3947 -0.3927,2.0649 l -0.9994,-3.7653 c -0.103,-0.3881 -0.3214,0.4147 -0.2646,0.7511 l 0.5157,3.0504 c 0.1551,0.9179 -0.0599,1.2625 -0.5953,1.8456 l -0.7519,-4.7343 c -0.0445,-0.2804 -0.3664,0.2493 -0.3474,0.5392 l 0.2495,3.8046 c 0.0491,0.7482 -0.0543,1.5594 -0.5082,2.1756 -0.5206,0.7066 -0.8886,1.1357 -0.9576,1.0727 -0.1372,2e-4 -0.1425,-0.0631 -0.0969,-1.1503 l -1e-4,-1e-4 z"
     class="fil2"
     id="_157518456-4" /></g></svg>