<?xml version="1.0" encoding="UTF-8" standalone="no"?>
<!-- Created with Inkscape (http://www.inkscape.org/) -->
<svg id="svg3929" xmlns:rdf="http://www.w3.org/1999/02/22-rdf-syntax-ns#" xmlns="http://www.w3.org/2000/svg" height="360" width="300" version="1.1" xmlns:cc="http://creativecommons.org/ns#" xmlns:dc="http://purl.org/dc/elements/1.1/">
 <defs id="defs3931">
  <style id="style4545" type="text/css">.str0 {stroke:#FF6600;stroke-width:0.7056}
    .fil1 {fill:none}
    .fil0 {fill:#A90000}</style>
 </defs>
 <metadata id="metadata3934">
  <rdf:RDF>
   <cc:Work rdf:about="">
    <dc:format>image/svg+xml</dc:format>
    <dc:type rdf:resource="http://purl.org/dc/dcmitype/StillImage"/>
    <dc:title/>
   </cc:Work>
  </rdf:RDF>
 </metadata>
 <g id="layer1" transform="translate(-289.476,-265.2505)">
  <path id="path4549" d="m511.23,437.28c2.9349,0,5.315,2.38,5.315,5.315v5.3142c0,2.9349-2.38,5.315-5.315,5.315h-5.315v-15.944zm0,21.259c5.8698,0,10.63-4.7601,10.63-10.63v-5.3142c0-5.8698-4.7601-10.63-10.63-10.63h-10.63v26.574zm-21.26-26.574,5.315,0,0,26.574-5.315,0zm-10.63,0,5.315,0,0,26.574-5.315,0-10.63-16.684,0,16.684-5.315,0,0-26.574,5.315,0,10.63,16.684zm-79.724,0.00036,15.945,0,0,5.315-10.63,0,0,5.3146,10.63,0,0,5.315-10.63,0,0,5.3146,10.63,0,0,5.315-15.945,0zm-21.26-0.00071,5.315,0,0,21.26,10.63,0,0,5.315-15.945,0zm55.808,21.26,5.3135,0c4.4022,0,7.9724-3.5702,7.9724-7.9724s-3.6365-7.9572-7.9724-7.9724h-5.3135v5.315h5.3135c1.4673,0,2.6575,1.1902,2.6575,2.6575s-1.1902,2.6575-2.6575,2.6575h-5.3135zm5.3135-26.575c10.272,0,18.602,8.3303,18.602,18.602s-8.3303,18.602-18.602,18.602-18.602-8.3303-18.602-18.602,8.3303-18.602,18.602-18.602zm-13.287,18.602c0,7.3371,5.9503,13.287,13.287,13.287,7.3371,0,13.287-5.9503,13.287-13.287,0-7.3371-5.9503-13.287-13.287-13.287-7.3371,0-13.287,5.9503-13.287,13.287z" class="fil0" fill="#a90000"/>
  <path id="path3943" fill="#000" d="m289.48,265.25,0,181.1-0.002,0c0,81.804,72.453,154.9,150,178.9,77.544-24.006,150-97.1,150-178.9h-0.002v-181.1h-300z"/>
  <path id="path3945" fill="#3a82c2" d="m291.9,267.69,0,178.66,0.007,0,0,0.005-0.007,0,0,0.80625c0.0795,13.107,2.055,26.005,5.6383,38.516,2.9815,10.402,7.0689,20.52,12.101,30.254,25.857,50.026,76.579,90.076,129.84,106.78,10.484-3.2886,20.877-7.4857,31.007-12.491,10.348-5.1146,20.43-11.079,30.063-17.788,49.298-34.324,86.366-87.854,86.496-145.77v-0.3066-178.66h-295.14z"/>
  <path id="path3947" fill="#eee942" d="m301.93,498.77c2.239,5.8346,4.8208,11.562,7.7161,17.161,25.857,50.026,76.579,90.076,129.84,106.78,10.484-3.2886,20.877-7.4857,31.007-12.494,10.348-5.1123,20.43-11.076,30.063-17.785,34.027-23.692,62.226-56.538,76.475-93.659h-275.1z"/>
  <path id="path3949" fill="#df1f2c" d="m327.92,544.58c27.93,36.429,68.936,64.761,111.57,78.129,10.484-3.2886,20.877-7.4857,31.007-12.494,10.348-5.1123,20.43-11.076,30.063-17.785,19.158-13.338,36.466-29.579,50.479-47.851h-223.11z"/>
  <path id="path3951" fill="#eee942" d="m337.1,366.96c-13.572,8.1193-27.086,16.225-39.566,26.684,1.719,1.0674,4.2758,1.8578,6.617,1.3491-1.2171,1.0697-2.3866,2.3029-3.581,3.9177-2.1731,2.932-3.2517,5.8891-2.8975,9.6523,3.2063-2.0667,7.1098-4.113,10.514-5.026-2.8816,4.3538-3.6786,9.0414-1.8688,14.231,9.3192-13.665,19.822-25.612,31.371-33.329-3.2063,6.5545-7.3891,11.715-10.736,18.966,2.65-0.0477,5.577-1.349,8.2883-3.6338-0.0636,1.6443,0.41555,3.1206,1.5827,4.4333-0.002,4.1698-1.124,7.8877-2.8884,10.915-1.3625,2.3347-1.7803,4.4673-0.74254,6.3501l10.307-5.6074c-1.7144-4.1221-1.962-9.3457-1.3716-14.742,0.24752-0.17715,0.4973-0.31796,0.74936-0.41562,1.996,3.0751,5.2182,3.2159,8.336,2.5596-6.5148-4.8443-4.4689-13.05-0.27931-16.734,0.34516-0.15443,0.68578-0.31114,1.0264-0.46785,1.4851,5.2418,1.5895,10.568-1.3057,15.807,1.8234-0.0432,3.6468-0.30206,5.468-1.0152,0.002,4.8421-0.90603,9.2208-2.7249,12.203l12.698-0.82442c-2.5183-1.5489-4.2145-5.8118-5.6678-10.565,0.0431-1.0947,0.21799-2.1894,0.82201-3.2841,1.9052-0.13854,3.8126-0.83578,5.7178-2.0917-6.3877-3.5611-8.0953-8.5508-7.5503-14.299,2.3184-1.5784,4.3826-3.4249,6.156-5.78,0.51093,2.9048,1.7644,5.0896,3.7649,6.1343,0.80613-4.9261,3.3653-6.2752,4.8799-10.179,1.3942,1.8601,2.7885,2.7435,5.0184,3.0683,0.0772-9.4911,6.0675-12.055,12.015-14.222,6.3309-2.3052,14.349-1.9441,22.424,0.27708-1.2444-5.403-7.4958-11.283-13.663-13.945-1.0741-8.5031-11.842-10.404-22.449-8.9256-3.5106,0.49057-6.9712,0.42016-10.457-0.41789-0.0227,2.6277,1.1853,4.9965,3.4856,7.2517-3.4856,1.0697-6.5534,1.5353-10.178,1.533,1.0446,1.9986,2.1141,3.627,3.9034,4.8807-1.1422,0.2907-2.2867,0.33386-3.4402,0.37019-2.0641-1.8578-2.9134-4.5832-3.1768-6.8679-0.74709-6.4796,3.2744-12.141,3.3789-18.721,0.0636-3.895-0.65853-7.3244-1.9597-10.411-2.9429-6.9701-10.318-9.8136-16.74-17.781-1.7667-2.1894-3.2586-4.5604-5.0729-6.7226-2.7022-3.2137-6.5852-5.8822-9.6371-12.737-3.0542,3.5975-2.1322,9.6432,0.23843,12.589-1.7008,3.3272-1.5441,6.8134,0.23843,9.2367-3.3494-3.0206-6.583-6.0844-9.846-9.0936-4.4984-4.1471-7.5412-4.7262-14.101-11.753-1.4215,4.0744-0.50411,8.678,3.5106,11.821-1.2398,4.4923,1.635,10.007,5.9063,12.777-3.5447-1.7261-7.8114-3.6929-13.107-7.2949-1.1354,4.5014,0.50184,8.4963,4.2668,11.349,0.99687,5.3599,6.5171,9.3253,12.124,11.483-6.4217,0.33385-10.968-1.0288-16.62-2.7026,0.39512,5.7278,3.9034,9.3662,8.89,10.27,2.8521,4.8125,7.7955,8.326,12.614,8.3328-5.3227,2.4369-12.739,2.3824-19.052,2.9002,2.4002,4.5218,5.9789,7.8718,10.514,7.7854,3.522,4.7421,8.4427,6.0821,14.821,3.9927-5.5248,4.3606-11.953,6.4455-17.837,8.8097,3.1745,4.1653,7.6888,4.5786,12.462,3.5475,4.3462,3.9154,9.8188,2.907,15.017-0.70859,0.31791,0.45195,0.72211,0.76537,1.1944,1.0742-0.47004,1.3672-1.1013,2.6232-1.803,3.7451z"/>
  <path id="path3953" d="m326.11,317.98c-5.0229-3.1387-7.221-9.1686-3.9557-15.448-2.2594-1.3808-4.5211-3.2659-6.7805-5.6528m9.9823,32.218c-4.4643-3.3249-8.2996-7.0882-7.7229-13.942-2.5115-1.4899-4.9616-2.714-6.969-4.7103m19.59,33.159c-5.7768-3.359-9.3556-7.5038-8.0998-13.375-2.7-0.75402-4.9616-1.9464-7.1575-3.2046m21.286,28.262c-5.4862-0.74494-8.8151-3.3681-9.4191-8.5917-2.5115,0.43606-5.0229,0.12264-7.5344-0.64046m26.561,17.897c-4.3213,0.45196-8.2883,0.24982-9.7961-4.5196-2.1981,1.1038-4.8458,1.8056-7.0439,2.1099m34.734-0.98113c-9.955-4.7444-11.52-14.842-10.418-24.544,1.5328-13.491-3.4924-21.544-12.691-26.595-8.5699-4.7081-15.403-11.381-22.381-17.887-4.4757-4.1721-7.5412-4.7262-14.101-11.753-1.4215,4.0744-0.50411,8.678,3.5106,11.821-1.2398,4.4923,1.635,10.197,5.8132,12.732m7.2437,5.4621c-4.4802-5.4666-10.843-6.3092-20.258-12.712-1.1354,4.5014,0.50184,8.4963,4.2668,11.349,0.99687,5.3599,6.5171,9.3253,11.915,11.485m36.553,41.962c-4.2145,1.8941-6.2196,0.25664-7.9114-1.885m-0.37694-7.1586c-3.7672,1.0674-6.2787-0.12491-7.5344-3.5793m2.4479-5.4644c-3.7672-0.75175-6.2787-3.2659-7.5344-7.5356m4.7096-3.5793c-3.422-1.5058-5.7473-3.6429-5.6519-7.1586m5.4635-1.6965c-4.1441-1.6943-5.7768-5.4008-4.898-11.115m-10.096,22.97c-4.8958,0.13173-9.8392-3.3817-12.691-8.1943-4.9866-0.90391-8.4949-4.5423-8.89-10.27,5.8836,1.742,10.566,3.1455,17.648,2.6527m10.082,30.66c-6.3218,2.0576-11.243,0.71768-14.765-4.0245-4.5347,0.0863-8.1134-3.2636-10.514-7.7854,6.7351-0.55189,14.721-0.45423,19.996-3.2523m15.028,26.611c-5.2455,3.6838-10.718,4.6922-15.064,0.77673-4.7732,1.0311-9.2874,0.61775-12.462-3.5475,5.8836-2.3643,12.312-4.4492,17.896-8.8415m19.871,23.336c-2.2367,0.62684-4.428,0.97659-6.2923-0.62229-3.942,3.3704-7.3754,3.1864-10.58,1.3854,3.279-3.4635,6.1946-7.0882,7.8137-11.29m14.864,12.466c-2.3003,2.0054-4.7845,2.4165-7.4663,0.76311,1.015-1.6284,2.055-3.2432,2.6954-5.0578m11.833-19.396c-2.0528-1.8646-2.902-4.59-3.1654-6.8747-0.74709-6.4796,3.2744-12.141,3.3789-18.721,0.0636-3.895-0.65853-7.3244-1.9597-10.411-2.9429-6.9701-10.318-9.8136-16.74-17.781-1.7667-2.1894-3.2586-4.5604-5.0729-6.7226-2.7022-3.2137-6.5852-5.8822-9.6371-12.737-3.0542,3.5975-2.1322,9.6432,0.23843,12.589-1.7008,3.3272-1.5441,6.8134,0.19529,9.3616m-24.018,94.288c-2.2753,0.46331-4.8322-0.32705-6.5512-1.3945,12.48-10.459,25.993-18.564,39.595-26.774m-29,36.674c-3.3471,0.90618-7.2506,2.9525-10.457,5.0192-0.35424-3.7633,0.72438-6.7203,2.8975-9.6523,2.3888-3.2273,4.7845-4.7966,7.9522-7.1972l13.829-10.481m12.828,18.546c-2.65,2.278-5.577,3.5793-8.227,3.627,3.3471-7.2517,7.5299-12.412,10.736-18.966-11.213,8.0534-21.195,20.522-31.371,33.329-2.0051-5.7551-0.80839-10.89,2.9588-15.648,1.526-1.9259,2.8203-3.091,4.2055-4.3061l14.447-12.677m27.606-32.212c2.927-1.3945,5.8563-0.51101,8.7833-1.2559-1.7894-1.2537-2.8589-2.8821-3.9034-4.8807,3.6242,0.002,6.692-0.46331,10.178-1.533-2.3003-2.2552-3.5083-4.624-3.4856-7.2517,3.4856,0.83805,6.9463,0.90846,10.457,0.41789,10.607-1.4785,21.375,0.42243,22.449,8.9256,6.1674,2.6618,12.419,8.5417,13.663,13.945-8.0748-2.2212-16.093-2.5823-22.424-0.27708-5.9471,2.1667-11.937,4.7308-12.015,14.222-2.2299-0.32477-3.6241-1.2082-5.0184-3.0683-1.5146,3.9041-4.0738,5.2531-4.8799,10.179-2.0005-1.0447-3.254-3.2296-3.7649-6.1343-3.7127,4.9306-8.688,7.6265-14.64,10.318-4.1896,3.6838-6.2355,11.889,0.27931,16.734-3.1178,0.65636-6.34,0.51555-8.336-2.5596-1.6736,0.64728-3.195,3.2137-4.3326,4.9829-4.1078-2.7958-4.0397-6.5136-1.4147-11.208m14.78-8.5054c1.5328,5.2986,1.6736,10.597-1.2557,15.896,1.9052-0.0454,3.8104-0.32477,5.7155-1.1151,1.3488,0.69724,2.6954,1.349,4.0442,1.6738-0.002-1.349,0.0908-2.6958,0.83564-4.0449,1.9052-0.13854,3.8126-0.83578,5.7178-2.0917-6.4626-3.602-8.1339-8.6689-7.5299-14.501m38.621-22.312-4.462-5.4394,6.4149-6.8316m13.245,13.804c-5.3931-3.761-12.875-6.0866-18.822-5.8573m7.5571-4.6399-2.6931-0.9675m-13.152-5.1282c-2.046,0-3.8353,0.91981-4.8186,2.2961,0.89695,1.608,2.8385,2.7231,5.0911,2.7231,2.0437,0,3.8353-0.92208,4.8186-2.2961-0.89922-1.6102-2.8407-2.7231-5.091-2.7231zm4.9412,2.5096c-0.51092-1.9532-2.9747-4.3242-4.8799-4.7421m-44.028,58.829c-0.65625,5.5552-0.4428,10.608,1.3193,14.846l-10.307,5.6074c-1.0377-1.8828-0.61992-4.0154,0.74254-6.3501,1.8075-3.1024,2.9406-6.8407,2.8861-11.135m23.502-2.3915c1.4783,4.8875,3.195,9.055,5.7723,10.64l-12.698,0.82442c1.8961-3.1069,2.8021-7.204,2.7204-12.289" stroke="#000" stroke-dasharray="none" stroke-miterlimit="4" stroke-width="1.20000005" fill="none"/>
  <path id="path3955" fill="#eee942" d="m538.48,366.96c13.572,8.1193,27.086,16.225,39.566,26.684-1.719,1.0674-4.2759,1.8578-6.617,1.3491,1.2149,1.0697,2.3866,2.3029,3.581,3.9177,2.1731,2.932,3.2517,5.8891,2.8975,9.6523-3.2063-2.0667-7.112-4.113-10.514-5.026,2.8816,4.3538,3.6764,9.0414,1.8688,14.231-9.3192-13.665-19.822-25.612-31.371-33.329,3.2063,6.5545,7.3891,11.715,10.736,18.966-2.65-0.0477-5.577-1.349-8.2883-3.6338,0.0636,1.6443-0.41555,3.1206-1.5827,4.4333,0.002,4.1698,1.124,7.8877,2.8884,10.915,1.3602,2.3347,1.7803,4.4673,0.74255,6.3501l-10.309-5.6074c1.7167-4.1221,1.9642-9.3457,1.3715-14.742-0.24524-0.17715-0.49503-0.31796-0.74935-0.41562-1.9937,3.0751-5.2182,3.2159-8.3337,2.5596,6.5148-4.8443,4.4666-13.05,0.27931-16.734-0.34516-0.15443-0.68804-0.31114-1.0264-0.46785-1.4851,5.2418-1.5918,10.568,1.3057,15.807-1.8234-0.0432-3.6468-0.30206-5.4703-1.0152-0.002,4.8421,0.9083,9.2208,2.7272,12.203l-12.7-0.82442c2.5183-1.5489,4.2168-5.8118,5.6701-10.565-0.0431-1.0947-0.218-2.1894-0.82429-3.2841-1.9052-0.13854-3.8104-0.83578-5.7155-2.0917,6.3854-3.5611,8.0953-8.5508,7.548-14.299-2.3185-1.5784-4.3803-3.4249-6.1538-5.78-0.51092,2.9048-1.7644,5.0896-3.7649,6.1343-0.80612-4.9261-3.3653-6.2752-4.8799-10.179-1.3942,1.8601-2.7885,2.7435-5.0184,3.0683-0.0772-9.4911-6.0675-12.055-12.015-14.222-6.3309-2.3052-14.351-1.9441-22.424,0.27708,1.2444-5.403,7.4935-11.283,13.663-13.945,1.0718-8.5031,11.842-10.404,22.449-8.9256,3.5106,0.49057,6.9713,0.42016,10.457-0.41789,0.0227,2.6277-1.1853,4.9965-3.4856,7.2517,3.4856,1.0697,6.5512,1.5353,10.178,1.533-1.0468,1.9986-2.1141,3.627-3.9034,4.8807,1.1422,0.2907,2.2867,0.33386,3.4402,0.37019,2.0641-1.8578,2.9111-4.5832,3.1768-6.8679,0.74708-6.4796-3.2744-12.141-3.3812-18.721-0.0613-3.895,0.65853-7.3244,1.962-10.411,2.9406-6.9701,10.318-9.8136,16.74-17.781,1.7644-2.1894,3.2585-4.5604,5.0729-6.7226,2.6999-3.2137,6.5852-5.8822,9.6349-12.737,3.0564,3.5975,2.1345,9.6432-0.23616,12.589,1.7008,3.3272,1.5418,6.8134-0.23843,9.2367,3.3494-3.0206,6.583-6.0844,9.846-9.0936,4.4984-4.1471,7.5412-4.7262,14.101-11.753,1.4215,4.0744,0.50411,8.678-3.5106,11.821,1.2398,4.4923-1.6372,10.007-5.9063,12.777,3.5447-1.7261,7.8114-3.6929,13.107-7.2949,1.1331,4.5014-0.50184,8.4963-4.2668,11.349-0.99686,5.3599-6.5194,9.3253-12.126,11.483,6.424,0.33385,10.97-1.0288,16.622-2.7026-0.39511,5.7278-3.9057,9.3662-8.89,10.27-2.8521,4.8125-7.7955,8.326-12.616,8.3328,5.325,2.4369,12.741,2.3824,19.052,2.9002-2.3979,4.5218-5.9766,7.8718-10.511,7.7854-3.522,4.7421-8.4427,6.0821-14.824,3.9927,5.527,4.3606,11.953,6.4455,17.837,8.8097-3.1723,4.1653-7.6888,4.5786-12.46,3.5475-4.3462,3.9154-9.8188,2.907-15.017-0.70859-0.31791,0.45195-0.7221,0.76537-1.1967,1.0742,0.47005,1.3672,1.1036,2.6232,1.8053,3.7451z"/>
  <path id="path3957" d="m560.2,296.88c-2.2594,2.387-4.5211,4.272-6.7805,5.6528,3.2654,6.2797,1.0673,12.31-3.9557,15.448m15.446-7.5356c-2.0074,1.9963-4.4575,3.2205-6.969,4.7103,0.57678,6.8543-3.2586,10.618-7.7251,13.942m10.362-2.0736c-2.1981,1.2582-4.4575,2.4506-7.1574,3.2046,1.2557,5.8709-2.323,10.016-8.0998,13.375m10.925,2.4506c-2.5115,0.7631-5.0229,1.0765-7.5344,0.64046-0.60403,5.2236-3.9352,7.8468-9.4191,8.5917m7.2324,6.2547c-2.1981-0.30433-4.8458-1.0061-7.0439-2.1099-1.5078,4.7694-5.4771,4.9715-9.7961,4.5196m32.374-59.617c4.1759-2.5346,7.053-8.2397,5.8132-12.732,4.0147-3.1432,4.9321-7.7468,3.5106-11.821-6.5602,7.0269-9.628,7.581-14.101,11.753-6.9781,6.5068-13.811,13.179-22.383,17.887-9.1966,5.051-14.222,13.104-12.689,26.595,1.1013,9.7023-0.46324,19.8-10.418,24.544m47.1-40.642c5.3953-2.1598,10.918-6.1252,11.915-11.485,3.7649-2.8526,5.3999-6.8475,4.2668-11.349-9.4146,6.4023-15.78,7.2449-20.258,12.712m-24.565,50.199c-1.6917,2.1417-3.6968,3.7792-7.9114,1.885m15.823-12.623c-1.2557,3.4544-3.7672,4.6468-7.5344,3.5793m12.621-16.579c-1.2557,4.2697-3.7672,6.7839-7.5344,7.5356m8.4768-18.274c0.0954,3.5157-2.2299,5.6529-5.6519,7.1586m5.0865-19.97c0.87879,5.7142-0.75389,9.4207-4.898,11.115m18.925-3.9563c7.0848,0.49284,11.767-0.91072,17.651-2.6527-0.39511,5.7278-3.9057,9.3662-8.89,10.27-2.8521,4.8125-7.7955,8.326-12.691,8.1943m-0.86743-0.21349c5.2727,2.798,13.261,2.7004,19.994,3.2523-2.3979,4.5218-5.9766,7.8718-10.511,7.7854-3.522,4.7421-8.4427,6.0821-14.765,4.0245m-0.11581-0.0636c5.5838,4.3924,12.012,6.4773,17.894,8.8415-3.1723,4.1653-7.6888,4.5786-12.46,3.5475-4.3462,3.9154-9.8188,2.907-15.064-0.77673m-1.1831,1.1969c1.6168,4.2016,4.5347,7.8263,7.8114,11.29-3.2018,1.801-6.6352,1.985-10.577-1.3854-1.8666,1.5989-4.0556,1.2491-6.2923,0.62229m-1.0355-2.3552c0.64036,1.8146,1.6804,3.4294,2.6954,5.0578-2.684,1.6534-5.166,1.2423-7.4663-0.76311m25.701-74.986c1.7371-2.5482,1.8961-6.0344,0.19529-9.3616,2.3707-2.9457,3.2926-8.9914,0.23616-12.589-3.0496,6.8543-6.9349,9.5229-9.6349,12.737-1.8144,2.1621-3.3062,4.5332-5.0729,6.7226-6.4217,7.9671-13.797,10.811-16.74,17.781-1.3034,3.0865-2.0233,6.5159-1.962,10.411,0.10673,6.5795,4.1283,12.241,3.3812,18.721-0.26568,2.2848-1.1127,5.0101-3.1654,6.8747m23.736,14.824c13.602,8.2102,27.115,16.316,39.595,26.774-1.719,1.0674-4.2759,1.8578-6.5534,1.3945m-18.264-13.806,13.829,10.481c3.1677,2.4006,5.5634,3.9699,7.9522,7.1972,2.1731,2.932,3.2517,5.8891,2.8975,9.6523-3.2063-2.0667-7.112-4.113-10.457-5.0192m-19.799-18.408,14.447,12.677c1.3852,1.215,2.6772,2.3802,4.2032,4.3061,3.7695,4.758,4.9662,9.8931,2.9611,15.648-10.175-12.807-20.158-25.275-31.371-33.329,3.2063,6.5545,7.3891,11.715,10.736,18.966-2.65-0.0477-5.577-1.349-8.227-3.627m-1.9506-5.2986c2.625,4.6944,2.6931,8.4123-1.4147,11.208-1.1376-1.7692-2.6613-4.3356-4.3349-4.9829-1.9937,3.0751-5.2182,3.2159-8.3337,2.5596,6.5148-4.8443,4.4689-13.05,0.27931-16.734-5.9517-2.6913-10.927-5.3871-14.64-10.318-0.51092,2.9048-1.7644,5.0896-3.7649,6.1343-0.80612-4.9261-3.3653-6.2752-4.8799-10.179-1.3942,1.8601-2.7885,2.7435-5.0184,3.0683-0.0772-9.4911-6.0675-12.055-12.015-14.222-6.3309-2.3052-14.351-1.9441-22.424,0.27708,1.2444-5.403,7.4935-11.283,13.663-13.945,1.0718-8.5031,11.842-10.404,22.449-8.9256,3.5106,0.49057,6.9713,0.42016,10.457-0.41789,0.0227,2.6277-1.1853,4.9965-3.4856,7.2517,3.4856,1.0697,6.5534,1.5353,10.178,1.533-1.0468,1.9986-2.1141,3.627-3.9034,4.8807,2.927,0.74493,5.8563-0.13854,8.7833,1.2559m-3.9034,28.866c0.60402,5.8323-1.0695,10.899-7.5299,14.501,1.9052,1.2559,3.8103,1.9532,5.7155,2.0917,0.74708,1.3491,0.83791,2.6958,0.83791,4.0449,1.3466-0.32477,2.6954-0.97658,4.042-1.6738,1.9074,0.79035,3.8126,1.0697,5.7178,1.1151-2.9293-5.2986-2.7885-10.597-1.2557-15.896m-48.102-38.766,6.4149,6.8316-4.462,5.4394m3.6241-4.3242c-5.9471-0.22938-13.429,2.0963-18.822,5.8573m13.958-11.465-2.6931,0.9675m10.754-3.3726c0.98324,1.374,2.7726,2.2961,4.8186,2.2961,2.2503,0,4.1918-1.1151,5.091-2.7231-0.98324-1.3763-2.7749-2.2961-4.8186-2.2961-2.2503,0-4.1918,1.1129-5.0911,2.7231zm5.0298-4.9556c-1.9052,0.41789-4.369,2.789-4.8799,4.7421m54.267,57.055c-0.0545,4.2947,1.0786,8.033,2.8861,11.135,1.3602,2.3347,1.7803,4.4673,0.74255,6.3501l-10.309-5.6074c1.7644-4.2379,1.9778-9.2912,1.3193-14.846m-13.936-0.24756c-0.0818,5.0851,0.82429,9.1822,2.7204,12.289l-12.7-0.82442c2.5796-1.5853,4.2963-5.7528,5.7746-10.64" stroke="#000" stroke-dasharray="none" stroke-miterlimit="4" stroke-width="1.2" fill="none"/>
  <path id="path3959" d="m420.91,316.54c0-31.001,33.769-31.001,33.769,0v28.65c0,13.824-6.097,21.851-13.107,23.988v26.4c3.8512-5.9436,7.3709-10.486,10.773-13.62,9.1444-8.4214,22.076-5.9186,27.801,5.5257,3.5492,7.0973,2.9611,16.232-5.1751,22.614-0.62901-10.411-6.3082-15.814-15.609-15.696-6.969,0.0863-11.676,4.6036-13.89,10.082l-3.8989,9.6523v55.254c20.219-35.271,49.416-69.46,89.445-55.47,28.53,9.9703,29.554,40.401,1.0786,52.413-5.0797,2.144-5.9926,5.6937-3.0519,9.3344,3.5015,4.3333,7.4481,4.6081,11.665,3.9495-8.6085,12.216-33.848,5.9867-33.133-7.9535,0.4814-9.4139,8.1793-10.193,9.1921-20.742,1.4964-15.612-17.605-20.347-37.797-3.7928-15.859,13.322-29.2,29.507-33.56,51.516h-15.237c-4.3576-22.01-17.701-38.194-33.557-51.516-20.192-16.554-39.293-11.819-37.797,3.7928,1.0128,10.549,8.7107,11.328,9.1921,20.742,0.71529,13.94-24.524,20.17-33.135,7.9535,4.2191,0.65863,8.1657,0.38382,11.667-3.9495,2.9406-3.6406,2.0255-7.1904-3.0519-9.3344-28.475-12.012-27.451-42.443,1.0764-52.413,40.031-13.99,69.227,20.199,89.448,55.47v-55.254l-3.9012-9.6523c-2.2117-5.478-6.919-9.9953-13.888-10.082-9.301-0.1181-14.98,5.2849-15.609,15.696-8.1362-6.3819-8.7266-15.516-5.1751-22.614,5.7223-11.444,18.657-13.947,27.799-5.5257,3.4039,3.1342,6.9236,7.6764,10.775,13.622v-26.354c-7.0099-2.0463-13.107-10.023-13.107-24.035v-28.65z" stroke="#000" stroke-dasharray="none" stroke-miterlimit="4" stroke-width="1.2" fill="#eee942"/>
  <path id="path3961" d="m540.3,479.98c-9.628,6.6749-20.058,2.6799-22.64-1.985-2.0096-3.6293-1.7212-8.4418,0.629-12.984,2.6159-5.0578,6.9803-7.4198,10.763-11.263,16.499-16.761-2.3253-40.12-31.595-27.265-26.661,11.71-46.399,34.383-59.664,67.135-13.264-32.752-33.003-55.425-59.662-67.135-29.272-12.855-48.097,10.504-31.598,27.265,3.7854,3.8428,8.1498,6.2047,10.766,11.263,2.3502,4.5423,2.6386,9.3548,0.629,12.984-2.5841,4.6649-13.011,8.6598-22.64,1.985m65.394-70.203c-8.9014-22.346,18.289-32.237,28.555-7.2904m45.67,7.2904c8.9014-22.346-18.289-32.237-28.555-7.2904m-3.0814-103.05c4.185,1.7806,7.162,9.5251,7.162,18.108v26.727c0,9.2481-2.9452,16.854-7.4958,19.371" stroke="#000" stroke-dasharray="none" stroke-miterlimit="4" stroke-width="1.2" fill="none"/>
  <path id="path3963" d="m437.79,283.71c3.2472,0,5.8813,2.6345,5.8813,5.8822,0,3.2455-2.6341,5.8822-5.8813,5.8822-3.2449,0-5.879-2.6368-5.879-5.8822,0-3.2477,2.6341-5.8822,5.879-5.8822z" stroke="#000" stroke-dasharray="none" stroke-miterlimit="4" stroke-width="1.2" fill="#eee942"/>
  <path id="path3965" fill="#000" d="m386.28,344.7c1.2285,0,2.2254,0.99702,2.2254,2.2257s-0.99686,2.2257-2.2254,2.2257-2.2254-0.99703-2.2254-2.2257,0.99687-2.2257,2.2254-2.2257z"/>
  <path id="path3967" fill="#000" d="m489.3,344.7c1.2285,0,2.2254,0.99702,2.2254,2.2257s-0.99686,2.2257-2.2254,2.2257-2.2254-0.99703-2.2254-2.2257,0.99687-2.2257,2.2254-2.2257z"/>
 </g>
</svg>
