<?xml version="1.0" encoding="UTF-8" standalone="no"?>
<!-- Created with Inkscape (http://www.inkscape.org/) -->
<svg id="svg3977" xmlns:rdf="http://www.w3.org/1999/02/22-rdf-syntax-ns#" xmlns="http://www.w3.org/2000/svg" height="360" width="300" version="1.1" xmlns:cc="http://creativecommons.org/ns#" xmlns:dc="http://purl.org/dc/elements/1.1/">
 <metadata id="metadata3982">
  <rdf:RDF>
   <cc:Work rdf:about="">
    <dc:format>image/svg+xml</dc:format>
    <dc:type rdf:resource="http://purl.org/dc/dcmitype/StillImage"/>
    <dc:title/>
   </cc:Work>
  </rdf:RDF>
 </metadata>
 <g id="layer1" transform="translate(-224.99999,-352.36218)">
  <path id="path3097" d="m446.75,524.39c2.9349,0,5.315,2.38,5.315,5.315v5.3142c0,2.9349-2.38,5.315-5.315,5.315h-5.315v-15.944h5.315zm0,21.259c5.8698,0,10.63-4.7601,10.63-10.63v-5.3142c0-5.8698-4.7601-10.63-10.63-10.63h-10.63v26.574h10.63zm-21.26-26.574,5.315,0,0,26.574-5.315,0,0-26.574zm-10.63,0,5.315,0,0,26.574-5.315,0-10.63-16.684,0,16.684-5.315,0,0-26.574,5.315,0,10.63,16.684,0-16.684zm-79.724,0.00035,15.945,0,0,5.315-10.63,0,0,5.3146,10.63,0,0,5.315-10.63,0,0,5.3146,10.63,0,0,5.315-15.945,0,0-26.574zm-21.26-0.00071,5.315,0,0,21.26,10.63,0,0,5.315-15.945,0,0-26.575zm55.808,21.26,5.3136,0c4.4022,0,7.9724-3.5702,7.9724-7.9724s-3.6365-7.9572-7.9724-7.9724h-5.3136v5.315h5.3136c1.4673,0,2.6575,1.1902,2.6575,2.6575s-1.1902,2.6575-2.6575,2.6575h-5.3136v5.315zm5.31-26.58c10.272,0,18.602,8.3303,18.602,18.602s-8.3303,18.602-18.602,18.602-18.602-8.3303-18.602-18.602,8.3303-18.602,18.602-18.602zm0,5.315c7.3371,0,13.287,5.9503,13.287,13.287,0,7.3371-5.9503,13.287-13.287,13.287-7.3371,0-13.287-5.9503-13.287-13.287,0-7.3371,5.9503-13.287,13.287-13.287z" fill-rule="evenodd" class="fil0" fill="#a90000"/>
  <path id="path10" d="m225,588.9c0.35234,3.0108,0.80237,5.995,1.3619,8.9452,12.337,65.047,74.201,114.52,148.64,114.52,74.435,0,136.3-49.471,148.64-114.52,0.55998-2.9514,1.0104-5.9369,1.3628-8.9493v-236.53h-300v236.53z" fill-rule="evenodd" class="fil0" fill="#000"/>
  <path id="path12" d="m518.37,611.91,0.00041-0.001c2.3482-7.4681,4.022-15.199,4.9552-23.133v-234.76h-296.66v234.76c0.91599,7.7894,2.5465,15.384,4.8285,22.726l0.12712,0.40807h286.74z" fill-rule="evenodd" class="fil1" fill="#3c82c2"/>
  <path id="path14" d="m514.17,623.34c1.5782-3.7328,2.981-7.5438,4.2023-11.427h-286.74c1.2217,3.8846,2.625,7.6969,4.2039,11.431,21.61,51.106,75.777,87.354,139.17,87.354s117.56-36.25,139.17-87.358z" fill-rule="evenodd" class="fil2" fill="#41a147"/>
  <rect id="rect16" fill-rule="evenodd" class="fil3 str0" height="37.001" width="50.03" stroke="#000" stroke-dasharray="none" stroke-miterlimit="4" y="520.41" x="403.75" stroke-width="1.5" fill="#FFF"/>
  <rect id="rect18" fill-rule="evenodd" class="fil0 str0" height="11.46" width="50.03" stroke="#000" stroke-dasharray="none" stroke-miterlimit="4" y="511.57" x="403.75" stroke-width="1.5" fill="#000"/>
  <polygon id="polygon20" fill-rule="evenodd" transform="matrix(4.0874442,0,0,4.0929881,-54.86528,-76.266992)" class="fil3 str0" stroke="#000" points="88.16,153.46,88.16,151.65,90.002,151.65,90.002,153.46,91.947,153.46,91.947,151.65,93.788,151.65,93.788,153.46,95.734,153.46,95.734,151.65,97.575,151.65,97.575,153.46,99.477,153.46,99.477,168.14,86.258,168.14,86.258,153.46" stroke-dasharray="none" stroke-miterlimit="4" stroke-width="0.36672887" fill="#FFF"/>
  <polygon id="polygon22" fill-rule="evenodd" transform="matrix(4.0874442,0,0,4.0929881,-54.86528,-76.266992)" class="fil3 str0" stroke="#000" points="123.1,153.46,123.1,151.65,121.26,151.65,121.26,153.46,119.32,153.46,119.32,151.65,117.48,151.65,117.48,153.46,115.53,153.46,115.53,151.65,113.69,151.65,113.69,153.46,111.79,153.46,111.79,168.14,125.01,168.14,125.01,153.46" stroke-dasharray="none" stroke-miterlimit="4" stroke-width="0.36672887" fill="#FFF"/>
  <polygon id="polygon24" fill-rule="evenodd" transform="matrix(4.0874442,0,0,4.0929881,-54.86528,-76.266992)" class="fil3 str0" stroke="#000" points="75.326,168.14,90.163,168.14,87.772,142.54,77.717,142.54" stroke-dasharray="none" stroke-miterlimit="4" stroke-width="0.36672887" fill="#FFF"/>
  <polygon id="polygon26" fill-rule="evenodd" transform="matrix(4.0874442,0,0,4.0929881,-54.86528,-76.266992)" class="fil3 str0" stroke="#000" points="116.1,168.14,112.66,138.43,99.032,138.43,95.59,168.14" stroke-dasharray="none" stroke-miterlimit="4" stroke-width="0.36672887" fill="#FFF"/>
  <polygon id="polygon28" fill-rule="evenodd" transform="matrix(4.0874442,0,0,4.0929881,-54.86528,-76.266992)" class="fil0 str0" stroke="#000" points="114.09,132.49,105.84,124.29,97.602,132.49,97.602,134.8,114.09,134.8" stroke-dasharray="none" stroke-miterlimit="4" stroke-width="0.36672887" fill="#000"/>
  <polygon id="polygon30" fill-rule="evenodd" transform="matrix(4.0874442,0,0,4.0929881,-54.86528,-76.266992)" class="fil3 str0" stroke="#000" points="113.27,133.72,113.27,131.3,114.93,131.3,114.93,135.89,112.66,138.43,99.032,138.43,96.758,135.89,96.758,131.3,98.423,131.3,98.423,133.72,100.88,133.72,100.88,131.3,102.55,131.3,102.55,133.72,105.01,133.72,105.01,131.3,106.68,131.3,106.68,133.72,109.14,133.72,109.14,131.3,110.8,131.3,110.8,133.72" stroke-dasharray="none" stroke-miterlimit="4" stroke-width="0.36672887" fill="#FFF"/>
  <polygon id="polygon32" fill-rule="evenodd" transform="matrix(4.0874442,0,0,4.0929881,-54.86528,-76.266992)" class="fil3 str0" stroke="#000" points="136.03,168.14,121.2,168.14,123.59,142.54,133.64,142.54" stroke-dasharray="none" stroke-miterlimit="4" stroke-width="0.36672887" fill="#FFF"/>
  <polygon id="polygon34" fill-rule="evenodd" transform="matrix(4.0874442,0,0,4.0929881,-54.86528,-76.266992)" class="fil0 str0" stroke="#000" points="121.47,142.54,127.19,135.97,130.04,135.97,135.76,142.54" stroke-dasharray="none" stroke-miterlimit="4" stroke-width="0.36672887" fill="#000"/>
  <polygon id="polygon36" fill-rule="evenodd" transform="matrix(4.0874442,0,0,4.0929881,-54.86528,-76.266992)" class="fil0 str0" stroke="#000" points="75.6,142.54,81.324,135.97,84.165,135.97,89.89,142.54" stroke-dasharray="none" stroke-miterlimit="4" stroke-width="0.36672887" fill="#000"/>
  <polygon id="polygon38" fill-rule="evenodd" transform="matrix(4.0874442,0,0,4.0929881,-54.86528,-76.266992)" class="fil3 str0" stroke="#000" points="127.22,135.97,128.62,126.34,130.02,135.97" stroke-dasharray="none" stroke-miterlimit="4" stroke-width="0.36672887" fill="#FFF"/>
  <polygon id="polygon40" fill-rule="evenodd" transform="matrix(4.0874442,0,0,4.0929881,-54.86528,-76.266992)" class="fil3 str0" stroke="#000" points="84.144,135.97,82.745,126.34,81.345,135.97" stroke-dasharray="none" stroke-miterlimit="4" stroke-width="0.36672887" fill="#FFF"/>
  <circle id="circle42" stroke-width="0.36673" d="m 83.546997,126.229 c 0,0.44304 -0.359157,0.8022 -0.8022,0.8022 -0.443043,0 -0.8022,-0.35916 -0.8022,-0.8022 0,-0.44305 0.359157,-0.8022 0.8022,-0.8022 0.443043,0 0.8022,0.35915 0.8022,0.8022 z" fill-rule="evenodd" cx="82.745" cy="126.23" transform="matrix(4.0874442,0,0,4.0929881,-54.86528,-76.266992)" class="fil3 str0" stroke="#000" stroke-dasharray="none" stroke-miterlimit="4" r="0.8022" fill="#FFF"/>
  <circle id="circle44" stroke-width="0.36673" d="m 106.6472,124.176 c 0,0.44305 -0.35916,0.8022 -0.8022,0.8022 -0.44304,0 -0.8022,-0.35915 -0.8022,-0.8022 0,-0.44304 0.35916,-0.8022 0.8022,-0.8022 0.44304,0 0.8022,0.35916 0.8022,0.8022 z" fill-rule="evenodd" cx="105.84" cy="124.18" transform="matrix(4.0874442,0,0,4.0929881,-54.86528,-76.266992)" class="fil3 str0" stroke="#000" stroke-dasharray="none" stroke-miterlimit="4" r="0.8022" fill="#FFF"/>
  <circle id="circle46" stroke-width="0.36673" d="m 129.41721,126.229 c 0,0.44304 -0.35916,0.8022 -0.8022,0.8022 -0.44305,0 -0.8022,-0.35916 -0.8022,-0.8022 0,-0.44305 0.35915,-0.8022 0.8022,-0.8022 0.44304,0 0.8022,0.35915 0.8022,0.8022 z" fill-rule="evenodd" cx="128.62" cy="126.23" transform="matrix(4.0874442,0,0,4.0929881,-54.86528,-76.266992)" class="fil3 str0" stroke="#000" stroke-dasharray="none" stroke-miterlimit="4" r="0.8022" fill="#FFF"/>
  <line id="line48" stroke-width="1.5" x1="230.73" class="fil4 str0" y1="611.91" stroke="#000" stroke-dasharray="none" x2="519.27" stroke-miterlimit="4" y2="611.91" fill="none"/>
  <line id="line50" stroke-width="1.5" x1="283.35" class="fil4 str0" y1="406.77" stroke="#000" stroke-dasharray="none" x2="283.35" stroke-miterlimit="4" y2="437.12" fill="none"/>
  <line id="line52" stroke-width="1.5" x1="377.77" class="fil4 str0" y1="389.11" stroke="#000" stroke-dasharray="none" x2="377.77" stroke-miterlimit="4" y2="428.71" fill="none"/>
  <line id="line54" stroke-width="1.5" x1="470.84" class="fil4 str0" y1="406.77" stroke="#000" stroke-dasharray="none" x2="470.84" stroke-miterlimit="4" y2="437.12" fill="none"/>
  <path id="path56" d="m441.4,602.44,58.879,0m-57.996-9.4626,57.113,0m-56.23-9.463,55.347,0m-54.464-9.4626,53.581,0m-52.699-9.463,51.817,0m-50.934-9.4626,50.051,0m-49.168-9.4626,48.285,0m-53.918,60.383,0,5.8579m12.455-9.4654,0,9.4654m12.454-9.4654,0,9.4654m12.455-9.4654,0,9.4654m12.455-9.465,0,9.465m-43.592-18.928,0,9.4671m12.455-9.4671,0,9.4671m12.454-9.4671,0,9.4671m12.455-9.4671,0,9.4671m12.455-9.4667,0,9.4671m-43.591-18.93,0,9.4671m12.454-9.4671,0,9.4671m12.455-9.4671,0,9.4671m12.455-9.4667,0,9.4671m-43.592-18.93,0,9.4671m12.455-9.4671,0,9.4671m12.454-9.4671,0,9.4671m12.455-9.4671,0,9.4671m12.455-9.4667,0,9.4671m-43.591-18.93,0,9.4671m12.454-9.4671,0,9.4671m12.455-9.4671,0,9.4671m12.455-9.4667,0,9.4671m-43.592-18.93,0,9.4671m12.455-9.4671,0,9.4671m12.454-9.4671,0,9.4671m12.455-9.4671,0,9.4671m-31.136-18.93,0,9.4671m12.454-9.4671,0,9.4671m12.455-9.4671,0,9.4671m12.455-9.4667,0,9.4671" stroke="#000" stroke-dasharray="none" stroke-miterlimit="4" stroke-width="1.5" class="fil4 str0" fill="none"/>
  <path id="path58" d="m253.91,602.44,58.879,0m-57.996-9.4626,57.113,0m-56.23-9.463,55.347,0m-54.464-9.4626,53.581,0m-52.699-9.463,51.817,0m-50.934-9.4626,50.051,0m-49.168-9.4626,48.285,0m-42.35,56.775,0,9.4654m12.455-9.4654,0,9.4654m12.454-9.4654,0,9.4654m12.455-9.4654,0,9.4654m-43.593-18.927,0,9.4671m12.455-9.4675,0,9.4671m12.455-9.4671,0,9.4671m12.454-9.4671,0,9.4671m12.455-9.4671,0,9.4671m-43.591-18.93,0,9.4671m12.455-9.4671,0,9.4671m12.454-9.4671,0,9.4671m12.455-9.4671,0,9.4671m-43.593-18.929,0,9.4671m12.455-9.4675,0,9.4671m12.455-9.4671,0,9.4671m12.454-9.4671,0,9.4671m12.455-9.4671,0,9.4671m-43.591-18.93,0,9.4671m12.455-9.4671,0,9.4671m12.454-9.4671,0,9.4671m12.455-9.4671,0,9.4671m-43.593-18.929,0,9.4671m12.455-9.4675,0,9.4671m12.455-9.4671,0,9.4671m12.454-9.4671,0,9.4671m12.455-5.632,0,5.632m-43.591-18.93,0,9.4671m12.455-9.4671,0,9.4671m12.454-9.4671,0,9.4671m12.455-9.4671,0,9.4671" stroke="#000" stroke-dasharray="none" stroke-miterlimit="4" stroke-width="1.5" class="fil4 str0" fill="none"/>
  <path id="path60" d="m336.95,602.44,81.643,0m-80.548-9.4626,79.454,0m-78.359-9.463,77.264,0m-76.169-9.4626,75.074,0m-73.98-9.463,72.885,0m-71.791-9.4626,70.696,0m-69.601-9.4626,68.506,0m-75.657,61.807,0,4.4339m12.454-9.465,0,9.465m12.455-9.4654,0,9.4654m12.455-9.4654,0,9.4654m12.454-9.4654,0,9.4654m12.455-9.4654,0,9.4654m12.455-9.465,0,9.465m-68.502-18.927,0,9.4671m12.454-9.4671,0,9.4671m12.455-9.4675,0,9.4671m12.455-9.4671,0,9.4671m12.454-9.4671,0,9.4671m12.455-9.4671,0,9.4671m12.455-9.4667,0,9.4671m-68.501-18.93,0,9.4671m12.455-9.4675,0,9.4671m12.455-9.4671,0,9.4671m12.454-9.4671,0,9.4671m12.455-9.4671,0,9.4671m12.455-9.4667,0,9.4671m-68.502-18.93,0,9.4671m12.454-9.4671,0,9.4671m12.455-9.4675,0,9.4671m12.455-9.4671,0,9.4671m12.454-9.4671,0,9.4671m12.455-9.4671,0,9.4671m-56.046-18.93,0,9.4671m12.455-9.4675,0,9.4671m12.455-9.4671,0,9.4671m12.454-9.4671,0,9.4671m12.455-9.4671,0,9.4671m12.455-9.4667,0,9.4671m-68.502-18.93,0,9.4671m12.454-9.4671,0,9.4671m12.455-9.4675,0,9.4671m12.455-9.4671,0,9.4671m12.454-9.4671,0,9.4671m12.455-9.4671,0,9.4671m-56.046-18.929,0,9.4671m12.455-9.4675,0,9.4671m12.455-9.4671,0,9.4671m12.454-9.4671,0,9.4671m12.455-9.4671,0,9.4671m12.455-9.4667,0,9.4671" stroke="#000" stroke-dasharray="none" stroke-miterlimit="4" stroke-width="1.5" class="fil4 str0" fill="none"/>
  <path id="path62" d="m357.18,499.58c2.0216,0,3.6611,1.6794,3.6611,3.7504l0.67116,15.527h-8.665l0.67116-15.527c0-2.071,1.6395-3.7504,3.6615-3.7504z" fill-rule="evenodd" stroke="#000" stroke-dasharray="none" stroke-miterlimit="4" stroke-width="1.5" class="fil0 str0" fill="#000"/>
  <path id="path64" d="m293.06,521.39c2.0216,0,3.6611,1.6794,3.6611,3.7504l0.67116,15.527h-8.665l0.67116-15.527c0-2.071,1.6395-3.7504,3.6615-3.7504z" fill-rule="evenodd" stroke="#000" stroke-dasharray="none" stroke-miterlimit="4" stroke-width="1.5" class="fil0 str0" fill="#000"/>
  <path id="path66" d="m431.19,526.52c-0.68219,0-1.2352,0.56688-1.2352,1.2656l-0.22646,5.2398h2.9238l-0.22645-5.2398c0-0.69867-0.55344-1.2656-1.2356-1.2656z" fill-rule="evenodd" stroke="#000" stroke-dasharray="none" stroke-miterlimit="4" stroke-width="1.5" class="fil0 str0" fill="#000"/>
  <path id="path68" d="m426.53,526.52c-0.68178,0-1.2324,0.56565-1.2324,1.2651l-0.22933,5.2423h2.9242l-0.22889-5.2423c0-0.69949-0.55099-1.2651-1.2336-1.2651z" fill-rule="evenodd" stroke="#000" stroke-dasharray="none" stroke-miterlimit="4" stroke-width="1.5" class="fil0 str0" fill="#000"/>
  <path id="path70" d="m419.98,526.52c-0.68219,0-1.2352,0.56688-1.2352,1.2656l-0.22645,5.2398h2.9238l-0.22645-5.2398c0-0.69867-0.55344-1.2656-1.2356-1.2656z" fill-rule="evenodd" stroke="#000" stroke-dasharray="none" stroke-miterlimit="4" stroke-width="1.5" class="fil0 str0" fill="#000"/>
  <path id="path72" d="m415.33,526.52c-0.68178,0-1.2324,0.56565-1.2324,1.2651l-0.22929,5.2423h2.9242l-0.2289-5.2423c0-0.69949-0.55099-1.2651-1.2336-1.2651z" fill-rule="evenodd" stroke="#000" stroke-dasharray="none" stroke-miterlimit="4" stroke-width="1.5" class="fil0 str0" fill="#000"/>
  <path id="path74" d="m461.13,521.39c-2.0216,0-3.6611,1.6794-3.6611,3.7504l-0.67116,15.527h8.665l-0.67116-15.527c0-2.071-1.6395-3.7504-3.6615-3.7504z" fill-rule="evenodd" stroke="#000" stroke-dasharray="none" stroke-miterlimit="4" stroke-width="1.5" class="fil0 str0" fill="#000"/>
  <path id="path76" d="m442.4,526.52c-0.68219,0-1.2352,0.56688-1.2352,1.2656l-0.22645,5.2398h2.9238l-0.22646-5.2398c0-0.69867-0.55344-1.2656-1.2356-1.2656z" fill-rule="evenodd" stroke="#000" stroke-dasharray="none" stroke-miterlimit="4" stroke-width="1.5" class="fil0 str0" fill="#000"/>
  <path id="path78" d="m437.74,526.52c-0.68178,0-1.2324,0.56565-1.2324,1.2651l-0.22929,5.2423h2.9242l-0.2289-5.2423c0-0.69949-0.55098-1.2651-1.2336-1.2651z" fill-rule="evenodd" stroke="#000" stroke-dasharray="none" stroke-miterlimit="4" stroke-width="1.5" class="fil0 str0" fill="#000"/>
  <path id="path80" d="m369.99,499.58c2.0216,0,3.6611,1.6794,3.6611,3.7504l0.67116,15.527h-8.665l0.67116-15.527c0-2.071,1.6395-3.7504,3.6615-3.7504z" fill-rule="evenodd" stroke="#000" stroke-dasharray="none" stroke-miterlimit="4" stroke-width="1.5" class="fil0 str0" fill="#000"/>
  <polygon id="polygon82" fill-rule="evenodd" transform="matrix(4.0874442,0,0,4.0929881,-54.86528,-76.266992)" class="fil3 str0" stroke="#000" points="82.745,123.59,70.444,121,82.745,118.4" stroke-dasharray="none" stroke-miterlimit="4" stroke-width="0.36672887" fill="#FFF"/>
  <polygon id="polygon84" fill-rule="evenodd" transform="matrix(4.0874442,0,0,4.0929881,-54.86528,-76.266992)" class="fil5 str0" stroke="#000" points="82.745,120.44,82.745,121.55,81.357,121.55,81.357,123.3,79.803,122.97,79.803,121.55,73.072,121.55,70.444,121,73.072,120.44,79.803,120.44,79.803,119.02,81.357,118.69,81.357,120.44" stroke-dasharray="none" stroke-miterlimit="4" stroke-width="0.36672887" fill="#df212c"/>
  <polygon id="polygon86" fill-rule="evenodd" transform="matrix(4.0874442,0,0,4.0929881,-54.86528,-76.266992)" class="fil3 str0" stroke="#000" points="105.89,119.92,92.568,117.03,105.89,114.15" stroke-dasharray="none" stroke-miterlimit="4" stroke-width="0.36672887" fill="#FFF"/>
  <polygon id="polygon88" fill-rule="evenodd" transform="matrix(4.0874442,0,0,4.0929881,-54.86528,-76.266992)" class="fil5 str0" stroke="#000" points="105.89,116.42,105.89,117.65,104.38,117.65,104.38,119.59,102.7,119.23,102.7,117.65,95.414,117.65,92.568,117.03,95.414,116.42,102.7,116.42,102.7,114.84,104.38,114.47,104.38,116.42" stroke-dasharray="none" stroke-miterlimit="4" stroke-width="0.36672887" fill="#df212c"/>
  <polygon id="polygon90" fill-rule="evenodd" transform="matrix(4.0874442,0,0,4.0929881,-54.86528,-76.266992)" class="fil3 str0" stroke="#000" points="128.62,123.59,116.32,121,128.62,118.4" stroke-dasharray="none" stroke-miterlimit="4" stroke-width="0.36672887" fill="#FFF"/>
  <polygon id="polygon92" fill-rule="evenodd" transform="matrix(4.0874442,0,0,4.0929881,-54.86528,-76.266992)" class="fil5 str0" stroke="#000" points="128.62,120.44,128.62,121.55,127.23,121.55,127.23,123.3,125.67,122.97,125.67,121.55,118.94,121.55,116.32,121,118.94,120.44,125.67,120.44,125.67,119.02,127.23,118.69,127.23,120.44" stroke-dasharray="none" stroke-miterlimit="4" stroke-width="0.36672887" fill="#df212c"/>
 </g>
</svg>
