<?xml version="1.0" encoding="UTF-8" standalone="no"?>
<!-- Creator: CorelDRAW -->

<svg
   xmlns:dc="http://purl.org/dc/elements/1.1/"
   xmlns:cc="http://creativecommons.org/ns#"
   xmlns:rdf="http://www.w3.org/1999/02/22-rdf-syntax-ns#"
   xmlns:svg="http://www.w3.org/2000/svg"
   xmlns="http://www.w3.org/2000/svg"
   xmlns:sodipodi="http://sodipodi.sourceforge.net/DTD/sodipodi-0.dtd"
   xmlns:inkscape="http://www.inkscape.org/namespaces/inkscape"
   xml:space="preserve"
   width="250"
   height="290"
   style="fill-rule:evenodd"
   viewBox="0 0 70.555555 81.844447"
   id="svg2"
   version="1.1"
   inkscape:version="0.48.1 "
   sodipodi:docname="Coat_of_Arms_of_Navapołack,_Belarus.svg"><metadata
   id="metadata29"><rdf:RDF><cc:Work
       rdf:about=""><dc:format>image/svg+xml</dc:format><dc:type
         rdf:resource="http://purl.org/dc/dcmitype/StillImage" /></cc:Work></rdf:RDF></metadata><sodipodi:namedview
   pagecolor="#ffffff"
   bordercolor="#666666"
   borderopacity="1"
   objecttolerance="10"
   gridtolerance="10"
   guidetolerance="10"
   inkscape:pageopacity="0"
   inkscape:pageshadow="2"
   inkscape:window-width="709"
   inkscape:window-height="480"
   id="namedview27"
   showgrid="false"
   fit-margin-top="0"
   fit-margin-left="0"
   fit-margin-right="0"
   fit-margin-bottom="0"
   inkscape:zoom="0.9"
   inkscape:cx="125"
   inkscape:cy="145"
   inkscape:window-x="0"
   inkscape:window-y="0"
   inkscape:window-maximized="0"
   inkscape:current-layer="svg2" />
 <defs
   id="defs4"><style
     type="text/css"
     id="style6">
   
    .fil0 {fill:blue}
    .fil2 {fill:yellow}
    .fil3 {fill:white}
    .fil1 {fill:white;fill-rule:nonzero}
   
  </style></defs>
 <path
   id="_50117184-1"
   class="fil0"
   d="M -1.4319927e-6,67.996102 C 9.2560901,76.587274 21.652729,81.844447 35.277605,81.844447 c 13.625108,0 26.021974,-5.257173 35.277952,-13.848345 L 70.555557,0 -1.4319927e-6,0 l 0,67.996102 z"
   inkscape:connector-curvature="0"
   style="fill:#1d518b;fill-rule:evenodd;fill-opacity:1" /><path
   style="fill:#ffffff;fill-rule:nonzero"
   d="M -6.8098271e-7,50.539265 0.09468171,50.536965 l 0,-2.29e-4 0.04545213,-0.0017 0,-6.87e-4 c 0.86542226,-0.04294 2.06389296,-0.741552 3.42390776,-1.53416 2.194067,-1.278956 4.7514075,-2.769374 7.8525704,-2.748995 2.703887,0.01775 4.510523,1.161147 6.323456,2.308213 1.590023,1.006243 3.186687,2.016609 5.382471,1.977339 2.102705,-0.03755 3.438906,-0.953579 4.798806,-1.885634 1.691231,-1.15943 3.41326,-2.339697 6.473894,-2.399918 3.062237,-0.06022 4.978211,1.157026 6.869569,2.358817 1.550181,0.984949 3.081471,1.957762 5.228483,1.926735 2.138654,-0.03103 3.486762,-0.927933 4.861775,-1.842929 1.712412,-1.13928 3.460544,-2.302374 6.59136,-2.353321 3.269462,-0.05324 5.338622,1.23442 7.28814,2.447889 1.434776,0.892785 2.793417,1.738286 4.462437,1.748361 0.306259,0.0018 0.591565,-0.0093 0.858553,-0.0316 l 0,4.276278 c -0.145973,0.0056 -0.296984,0.0082 -0.45349,0.0073 -1.669021,-0.01008 -3.027662,-0.855577 -4.462438,-1.748362 -1.949518,-1.213469 -4.018678,-2.501012 -7.28814,-2.447889 -3.130816,0.05095 -4.878948,1.213927 -6.59136,2.353436 -1.375013,0.914767 -2.723121,1.811788 -4.861775,1.842815 -2.147012,0.03103 -3.678302,-0.941787 -5.228483,-1.92685 -1.891358,-1.201791 -3.807332,-2.418809 -6.869569,-2.358702 -3.060634,0.06022 -4.782663,1.240602 -6.473894,2.399803 -1.3599,0.93217 -2.696101,1.848196 -4.798806,1.885749 -2.195784,0.03927 -3.792448,-0.970982 -5.382471,-1.977225 -1.812933,-1.147151 -3.619569,-2.290552 -6.323456,-2.308298 -3.1011628,-0.02049 -5.6585034,1.470153 -7.8525704,2.748995 -1.3600147,0.792493 -2.5584855,1.491219 -3.42390771,1.534152 l 0,5.73e-4 -0.0454521,0.0018 0,1.14e-4 c -0.17356534,0.0048 -0.34014682,0.0047 -0.49974447098272,7.19e-4 l 0,-4.250289 z"
   id="path3826" /><path
   style="fill:#ffffff;fill-rule:nonzero"
   d="M -6.8098271e-7,67.995974 C 0.06823476,68.059284 0.13715713,68.121797 0.20573604,68.184766 l 0.0283933,-10e-4 0.0133952,0 C 1.6760036,68.112556 3.1009336,67.282051 4.7178616,66.339692 6.6632585,65.205793 8.9308275,63.884247 11.407682,63.90039 c 2.040079,0.01351 3.570797,0.982201 5.106896,1.954212 1.878993,1.189083 3.765772,2.382745 6.643681,2.33134 2.800974,-0.05003 4.416299,-1.157369 6.060017,-2.284056 1.413138,-0.968691 2.852035,-1.954899 5.221614,-2.001496 2.362251,-0.04648 3.986736,0.98575 5.590497,2.004588 1.838579,1.168245 3.654603,2.32218 6.489694,2.280964 2.824787,-0.04087 4.448699,-1.121305 6.105126,-2.223376 1.437409,-0.956441 2.904814,-1.932804 5.35694,-1.972875 2.589512,-0.04213 4.363976,1.062344 6.035859,2.102705 1.716305,1.068182 3.34159,2.079693 5.670067,2.093546 0.233558,0.0014 0.457956,-0.0033 0.674569,-0.01294 0.06423,-0.05896 0.128915,-0.11758 0.192914,-0.176999 l 0,-3.661587 c -0.146088,0.0056 -0.29687,0.0085 -0.45349,0.0076 -1.669021,-0.01 -3.027662,-0.855462 -4.462438,-1.748247 -1.949518,-1.213469 -4.018678,-2.501126 -7.28814,-2.447889 -3.130816,0.05095 -4.878948,1.213927 -6.59136,2.353321 -1.375013,0.914882 -2.723121,1.811788 -4.861775,1.842815 -2.147012,0.03103 -3.678302,-0.941787 -5.228483,-1.926621 -1.891358,-1.201791 -3.807332,-2.419038 -6.869569,-2.358816 -3.060634,0.06022 -4.782663,1.240488 -6.473894,2.399803 -1.3599,0.93217 -2.696101,1.848196 -4.798806,1.885634 -2.195784,0.03927 -3.792448,-0.970981 -5.382471,-1.977225 -1.812933,-1.14718 -3.619569,-2.290467 -6.323456,-2.308212 -3.1011628,-0.02038 -5.6585034,1.470038 -7.8525704,2.748995 -1.3600147,0.792492 -2.5584855,1.491219 -3.42390769,1.534152 l 0,5.73e-4 -0.0454521,0.0017 0,2.29e-4 c -0.17356536,0.0048 -0.34026133,0.0046 -0.49974449098271,5.16e-4 l 0,3.65323 z"
   id="path3824" /><path
   style="fill:#ffffff;fill-rule:nonzero"
   d="m 70.555556,61.749411 0,-4.416183 c -0.150438,0.0041 -0.304311,0.0062 -0.462421,0.0053 -2.328477,-0.01397 -3.953762,-1.025363 -5.670067,-2.093431 -1.671883,-1.040705 -3.446347,-2.144951 -6.035859,-2.102819 -2.452126,0.03996 -3.919531,1.016318 -5.35694,1.972645 -1.656427,1.1023 -3.280339,2.182732 -6.105126,2.223605 -2.83509,0.0411 -4.651115,-1.112718 -6.489694,-2.28085 -1.603761,-1.019066 -3.228246,-2.05107 -5.590497,-2.004702 -2.369579,0.0466 -3.808476,1.03292 -5.221614,2.001611 -1.643718,1.126572 -3.259043,2.233795 -6.060017,2.283941 -2.877909,0.05152 -4.764688,-1.142257 -6.643681,-2.331454 -1.536099,-0.972011 -3.066817,-1.940817 -5.106896,-1.954098 -2.4768542,-0.01614 -4.7444231,1.305404 -6.6898201,2.439303 -1.616928,0.942244 -3.0418579,1.772976 -4.4703371,1.843959 l -0.0133952,0 -0.0588473,0.0023 -0.009045,0 c -0.19623413,0.0056 -0.38674381,0.0058 -0.57130006098275,0.0018 l 0,4.417214 C 0.15959689,61.761552 0.32606388,61.761752 0.49974368,61.75698 l 0,-2.29e-4 0.0454521,-0.0017 0,-5.72e-4 C 1.410618,61.711429 2.6090888,61.012705 3.9691035,60.220097 c 2.194067,-1.278842 4.7514076,-2.769259 7.8525705,-2.74888 2.703887,0.01786 4.510523,1.161033 6.323456,2.308212 1.590023,1.006359 3.186687,2.016495 5.382471,1.97734 2.102705,-0.03755 3.438906,-0.953579 4.798806,-1.885748 1.691231,-1.159202 3.41326,-2.339583 6.473894,-2.399804 3.062237,-0.06022 4.978211,1.157026 6.869569,2.358816 1.550181,0.984835 3.081471,1.957648 5.228483,1.926736 2.138654,-0.03114 3.486762,-0.927934 4.861775,-1.84293 1.712412,-1.13928 3.460544,-2.302373 6.59136,-2.353321 3.269462,-0.05312 5.338622,1.234306 7.28814,2.447889 1.434776,0.892785 2.793417,1.738287 4.462438,1.748362 0.156506,9.16e-4 0.307517,-0.0017 0.45349,-0.0073 z"
   id="_160033752"
   inkscape:connector-curvature="0" /><path
   id="_160033320"
   class="fil2"
   d="m 62.799042,38.409614 -55.0426426,0 c 5.0750676,3.683455 10.6651066,6.34269 17.1424366,5.832069 5.65816,-0.446049 8.869118,-2.583558 10.379113,-5.499249 1.509996,2.915691 4.720496,5.0532 10.378656,5.499249 6.477329,0.510621 12.067369,-2.148614 17.142437,-5.832069 z"
   inkscape:connector-curvature="0"
   style="fill:#ffcb05;fill-opacity:1" /><path
   id="_160034136"
   class="fil2"
   d="m 35.27772,27.828084 c 0.33385,-1.1584 0.786654,-2.326531 1.315708,-3.491342 -0.33843,-1.295901 -0.791233,-2.603709 -1.315708,-3.906822 -0.524474,1.303113 -0.977278,2.610921 -1.315707,3.906822 0.529054,1.164811 0.981858,2.332942 1.315707,3.491342 z"
   inkscape:connector-curvature="0"
   style="fill:#ffcb05;fill-opacity:1" /><path
   id="_159703344"
   class="fil3"
   d="m 34.957953,19.690206 c -0.576452,-1.547089 -1.286742,-3.027661 -1.965662,-4.365121 -0.612058,1.328415 -1.304487,2.791928 -1.812933,4.317723 0.86153,1.277468 1.75878,2.588138 2.441936,3.908082 0.339574,-1.278957 0.828442,-2.573255 1.336659,-3.860684 z"
   inkscape:connector-curvature="0"
   style="fill:#ffffff" /><path
   id="_159703128"
   class="fil3"
   d="m 25.732773,32.011397 c -2.2773,-5.740592 -2.573598,-13.18959 -1.783624,-19.625703 2.104651,2.044888 4.280629,4.498273 6.195801,7.136557 -1.149813,3.260875 -1.809384,6.610251 -1.54022,9.63047 0.289428,3.247366 2.360992,5.694568 5.288361,4.957374 -0.4662,0.438607 -0.07602,0.497912 -1.66467,1.076082 -1.58865,0.578169 -5.50818,-0.492532 -6.495648,-3.17478 z"
   inkscape:connector-curvature="0"
   style="fill:#ffffff" /><path
   id="_159702384"
   class="fil3"
   d="m 32.83567,13.488796 c -0.823519,-1.371464 -1.684591,-2.673662 -2.54841,-3.8703005 -0.587329,2.0722505 -1.092111,4.3529855 -1.451034,6.7014985 0.575422,0.718418 1.136533,1.4563 1.675661,2.208493 0.668845,-1.739432 1.465688,-3.440624 2.323783,-5.039691 z m 5.629882,15.713843 c 0.05266,-0.407352 0.05942,-0.829588 0.01637,-1.260295 6.87e-4,0.424754 -0.0045,0.845272 -0.01637,1.260295 z"
   inkscape:connector-curvature="0"
   style="fill:#ffffff" /><path
   id="_160035048"
   class="fil3"
   d="m 22.595775,22.078561 c -1.581665,-1.268194 -3.566446,-2.744072 -5.947131,-4.216744 1.300366,8.823094 3.46936,13.567747 7.203648,16.631816 1.771831,1.453896 4.766978,2.109688 6.744317,1.253196 -2.175634,0.115291 -4.534909,-1.297732 -5.631026,-3.342735 -1.514346,-2.82513 -2.157889,-6.528963 -2.369808,-10.325533 z"
   inkscape:connector-curvature="0"
   style="fill:#ffffff" /><path
   id="_159703440"
   class="fil3"
   d="m 30.77899,20.516817 c 1.580521,2.303976 2.936757,4.722556 3.856104,7.114918 0.160971,0.418915 0.428532,1.042537 0.558477,1.469924 -0.164177,0.871262 -0.222452,1.810644 -0.07156,2.760559 -0.26321,1.598953 -2.130067,2.215934 -3.566103,1.359213 -1.25354,-0.747842 -2.103849,-2.454873 -2.106483,-4.317952 -0.0037,-2.667136 0.533863,-5.556838 1.329561,-8.386662 z"
   inkscape:connector-curvature="0"
   style="fill:#ffffff" /><path
   id="_159703656"
   class="fil3"
   d="m 35.597488,19.690206 c 0.576452,-1.547089 1.286742,-3.027661 1.965662,-4.365121 0.612058,1.328415 1.304487,2.791928 1.812933,4.317723 -0.86153,1.277468 -1.75878,2.588138 -2.441936,3.908082 -0.339574,-1.278957 -0.828442,-2.573255 -1.336659,-3.860684 z"
   inkscape:connector-curvature="0"
   style="fill:#ffffff" /><path
   id="_160109872"
   class="fil3"
   d="m 44.822668,32.011397 c 2.2773,-5.740592 2.573598,-13.18959 1.783624,-19.625703 -2.104652,2.044888 -4.280629,4.498273 -6.195801,7.136557 1.149813,3.260875 1.809384,6.610251 1.54022,9.63047 -0.289428,3.247366 -2.360992,5.694568 -5.288361,4.957374 0.466199,0.438607 0.07602,0.497912 1.66467,1.076082 1.588649,0.578169 5.50818,-0.492532 6.495648,-3.17478 z"
   inkscape:connector-curvature="0"
   style="fill:#ffffff" /><path
   id="_159703848"
   class="fil3"
   d="M 35.27772,18.651448 C 35.923438,16.97739 36.637506,15.324169 37.52159,13.741587 36.813934,11.74696 36.115436,9.836368 35.27772,8.1019743 34.440005,9.836368 33.741507,11.74696 33.033851,13.741587 c 0.884084,1.582582 1.598152,3.235803 2.243869,4.909861 z"
   inkscape:connector-curvature="0"
   style="fill:#ffffff" /><path
   id="_160110304"
   class="fil3"
   d="m 37.719771,13.488796 c 0.823519,-1.371464 1.684591,-2.673662 2.54841,-3.8703005 0.587329,2.0722505 1.092111,4.3529855 1.451034,6.7014985 -0.575422,0.718418 -1.136533,1.4563 -1.675661,2.208493 -0.668845,-1.739432 -1.465688,-3.440624 -2.323783,-5.039691 z"
   inkscape:connector-curvature="0"
   style="fill:#ffffff" /><path
   id="_160136120"
   class="fil3"
   d="m 47.959666,22.078561 c 1.581665,-1.268194 3.566446,-2.744072 5.94713,-4.216744 -1.300365,8.823094 -3.469359,13.567747 -7.203647,16.631816 -1.771831,1.453896 -4.766978,2.109688 -6.744317,1.253196 2.175634,0.115291 4.534909,-1.297732 5.631026,-3.342735 1.514346,-2.82513 2.157889,-6.528963 2.369808,-10.325533 z"
   inkscape:connector-curvature="0"
   style="fill:#ffffff" /><path
   id="_159703368"
   class="fil3"
   d="m 35.27772,33.186855 c 0.286452,1.751797 1.446683,3.263166 3.181421,3.894572 l 0.04705,0.01637 -6.45695,0 0.04706,-0.01637 c 1.734738,-0.631406 2.894969,-2.142775 3.18142,-3.894572 z"
   inkscape:connector-curvature="0"
   style="fill:#ffffff" /><path
   id="_160110016"
   class="fil3"
   d="m 39.776451,20.516817 c -1.580521,2.303976 -2.936757,4.722556 -3.856104,7.114918 -0.160971,0.418915 -0.428532,1.042537 -0.558477,1.469924 0.164177,0.871262 0.222452,1.810644 0.07155,2.760559 0.263211,1.598953 2.130068,2.215934 3.566104,1.359213 1.25354,-0.747842 2.103849,-2.454873 2.106482,-4.317952 0.0037,-2.667136 -0.533862,-5.556838 -1.32956,-8.386662 z"
   inkscape:connector-curvature="0"
   style="fill:#ffffff" />
</svg>