<?xml version="1.0"?>
<svg 
   xmlns:rdf="http://www.w3.org/1999/02/22-rdf-syntax-ns#"
   xmlns:svg="http://www.w3.org/2000/svg"
   xmlns="http://www.w3.org/2000/svg"
   width="500" height="590">
	<defs>
	</defs>
	<path
		d="M30 70 L30 190 C70 210 70 290 30 310 L30 420 C30 510 200 540 200 540 C225.5 544.5
			240 560 250 570 C260 560 274.5 544.5 300 540 C300 540 470 510 470 420 L470 310
			C430 290 430 210 470 190 L470 70 C400 0 100 0 30 70 z"
		 style="fill:none;stroke:rgb(0,0,0);stroke-width:2"/>
	<path
		d="M36 75 L36 186 C76 212 76 290 36 314 L36 417 C36 505 201 534 201 534 C225 537 240
			552 250 562 C260 552 274 537 300 534 C299 534 464 505 464 417 L464 314 C424
			290 424 212 464 186 L464 75 C397 10 103 10 36 75 z"
		 style="fill:rgb(96,96,255);stroke:rgb(0,0,0);stroke-width:2"/>
	<path
		d="M143 160 C154 202 154 244 143 286 C164 265 199 254 227 244 C217 272 206 307 185 328
			C227 317 269 317 311 328 C290 307 280 272 269 244 C297 254 332 265 353 286
			C343 244 343 202 353 160 C332 181 297 191 269 202 C280 174 290 139 311 118 C269
			128 227 128 185 118 C206 139 217 174 227 202 C199 191 164 181 143 160 z"
		 style="fill:rgb(255,255,255);stroke:rgb(0,0,0);stroke-width:2"/>
	<path
		d="M113 225 C102 241 99 268 99 292 C99 378 165 441 249 441 C327 441 400 376 399 292
			C401 268 392 242 385 225 C385 420 113 420 113 225 z"
		 style="fill:rgb(255,192,0);stroke:rgb(0,0,0);stroke-width:2"/>
</svg>
