<?xml version="1.0" encoding="UTF-8" standalone="no"?>
<!-- Created with Inkscape (http://www.inkscape.org/) -->
<svg
   xmlns:dc="http://purl.org/dc/elements/1.1/"
   xmlns:cc="http://creativecommons.org/ns#"
   xmlns:rdf="http://www.w3.org/1999/02/22-rdf-syntax-ns#"
   xmlns:svg="http://www.w3.org/2000/svg"
   xmlns="http://www.w3.org/2000/svg"
   xmlns:sodipodi="http://sodipodi.sourceforge.net/DTD/sodipodi-0.dtd"
   xmlns:inkscape="http://www.inkscape.org/namespaces/inkscape"
   id="svg2"
   sodipodi:version="0.32"
   inkscape:version="0.46"
   width="200"
   height="241"
   version="1.0"
   sodipodi:docname="Coat_of_Arms_of_Połack,_Belarus.svg"
   inkscape:output_extension="org.inkscape.output.svg.inkscape">
  <metadata
     id="metadata7">
    <rdf:RDF>
      <cc:Work
         rdf:about="">
        <dc:format>image/svg+xml</dc:format>
        <dc:type
           rdf:resource="http://purl.org/dc/dcmitype/StillImage" />
      </cc:Work>
    </rdf:RDF>
  </metadata>
  <defs
     id="defs5">
    <inkscape:perspective
       sodipodi:type="inkscape:persp3d"
       inkscape:vp_x="0 : 526.18109 : 1"
       inkscape:vp_y="0 : 1000 : 0"
       inkscape:vp_z="744.09448 : 526.18109 : 1"
       inkscape:persp3d-origin="372.04724 : 350.78739 : 1"
       id="perspective9" />
  </defs>
  <sodipodi:namedview
     inkscape:window-height="968"
     inkscape:window-width="1280"
     inkscape:pageshadow="2"
     inkscape:pageopacity="0.0"
     guidetolerance="10.0"
     gridtolerance="10.0"
     objecttolerance="10.0"
     borderopacity="1.0"
     bordercolor="#666666"
     pagecolor="#ffffff"
     id="base"
     showgrid="false"
     inkscape:zoom="0.70710678"
     inkscape:cx="367.36449"
     inkscape:cy="143.27765"
     inkscape:window-x="0"
     inkscape:window-y="22"
     inkscape:current-layer="svg2"
     showguides="true"
     inkscape:guide-bbox="true" />
  <path
     style="fill:#f58220;fill-opacity:1"
     d=""
     id="path3391" />
  <g
     id="g2500">
    <path
       id="path2567"
       d="M 82.107384,130.85731 C 81.392722,129.02765 80.019514,123.2865 79.474556,119.84997 C 78.563043,114.10185 78.341928,106.34692 78.931904,100.81726 C 79.390887,96.515312 80.533859,90.705625 81.428058,88.129455 C 82.924972,83.816859 85.900204,78.594273 89.013158,74.814919 L 89.62368,74.073687 L 91.664745,74.524455 C 92.787318,74.772378 94.280094,75.10435 94.982014,75.262171 L 96.258229,75.54912 L 96.012091,78.468331 C 95.209283,87.989515 93.085513,99.09326 90.040586,109.68929 C 87.930171,117.03328 86.183036,122.26232 84.750095,125.5233 C 82.604418,130.40626 82.227978,131.16607 82.107384,130.85731 L 82.107384,130.85731 z"
       style="fill:#ffffff;fill-opacity:1" />
    <path
       sodipodi:nodetypes="ccccccsccccccscccccsccssscc"
       id="path3333"
       d="M 6.2275117,121.8285 C 18.207512,107.58918 18.475122,92.454832 6.9847117,79.005162 L 2.3916317,73.628942 L 2.6589717,48.406262 L 2.9263017,23.183572 L 13.426302,19.235782 C 47.557742,6.403052 70.033022,2.734382 107.9263,3.810392 C 139.70903,4.712882 153.8428,7.261862 181.5332,17.085162 L 197.14,22.621772 L 197.7773,30.805122 C 198.1276,35.305962 198.417,46.799662 198.4203,56.346682 L 198.4263,73.704872 L 193.5705,79.846692 C 187.0871,88.047262 186.4493,89.436292 185.7554,96.867672 C 184.9427,105.56963 187.2167,112.37356 193.7602,120.81922 L 198.9263,127.48713 L 198.1553,143.7378 C 201.76266,153.64712 197.3974,160.71819 195.10064,169.20437 C 195.34135,169.48338 192.68854,168.10449 187.14624,169.84475 C 183.36061,170.97655 179.4942,170.6517 175.67496,171.50614 C 171.98395,172.33189 164.83968,168.96379 163.54214,168.25279 C 159.08752,168.30413 53.634247,168.78766 41.287688,168.77821 C 40.938043,168.87014 38.561985,168.71995 36.365312,169.54105 C 32.688986,170.91524 28.281467,173.41814 25.690479,172.68343 C 22.059005,171.65368 18.501693,170.1772 14.769299,169.00038 C 12.001453,168.12768 9.2712103,170.72155 6.3133629,170.40416 C 5.1353102,157.91099 -4.2621213,134.33832 6.2275117,121.8285 z"
       style="fill:#0065b3;fill-opacity:1" />
    <path
       sodipodi:nodetypes="ccccssssscc"
       id="path2559"
       d="M 57.831147,132.24944 C 57.487753,131.68786 56.613938,130.237 55.88933,129.02529 L 53.953126,126.20348 C 61.780118,115.46804 64.003944,103.46676 66.67858,91.01702 C 66.71368,90.980902 70.755566,92.421409 70.999351,92.584743 C 71.027979,92.603928 70.699146,94.069038 70.268621,95.840557 C 69.838105,97.612085 69.098367,100.89857 68.624778,103.14386 C 65.866236,116.22212 64.226592,121.46348 60.067656,130.49793 C 59.361,132.03299 58.709193,133.28477 58.619165,133.27971 C 58.529153,133.27462 58.174542,132.81098 57.831147,132.24944 L 57.831147,132.24944 z"
       style="fill:#ffffff;fill-opacity:1" />
    <path
       sodipodi:nodetypes="cccsscccccc"
       id="path2557"
       d="M 60.416791,134.27306 L 58.8847,133.37851 L 59.739317,131.48811 C 64.284931,121.43344 66.237502,115.01099 69.188463,100.40771 C 69.885212,96.959755 70.520386,93.874237 70.59998,93.550983 C 70.770842,92.857086 70.779385,108.62122 70.614998,121.24957 L 70.63183,130.80408 L 69.545391,131.25313 C 67.374759,131.82019 65.782814,133.09411 63.128796,134.58801 L 61.993066,135.477 L 60.416791,134.27306 z"
       style="fill:#ffffff;fill-opacity:1" />
    <path
       sodipodi:nodetypes="cccsssscc"
       id="path2551"
       d="M 82.68311,132.44581 C 82.68311,132.09915 83.95304,129.13096 85.19962,126.19358 C 91.558251,109.39126 94.585917,90.257295 97.190129,75.094966 C 97.480828,75.020393 100.3425,75.418777 100.44244,75.806081 C 100.66016,76.649831 100.32336,76.156761 100.12847,83.745871 C 99.924134,91.703331 99.174194,97.865951 97.945584,103.87772 C 97.086594,108.08094 93.591164,121.37825 91.915001,126.83228 C 89.95302,133.2163 86.42784,142.44385 85.82845,142.44385 C 84.624194,139.26922 84.003819,135.57284 82.68311,132.44581 z"
       style="fill:#ffffff;fill-opacity:1" />
    <path
       sodipodi:nodetypes="cssssscccc"
       id="path2563"
       d="M 87.58424,138.71783 C 90.403342,132.34021 97.129874,111.09875 98.880684,101.34363 C 99.97935,95.222031 100.50746,89.723421 100.66734,82.070411 C 100.73109,79.019111 100.67998,76.139188 100.61898,76.085091 C 100.40469,75.895046 101.47183,75.740902 101.94768,76.524063 C 102.17605,76.899913 101.95555,77.660009 101.9815,78.418128 C 102.14648,83.238398 101.7672,94.05506 101.7672,104.38669 L 101.5797,132.87579 C 95.817317,133.49456 91.762609,136.20623 87.86381,139.94294 C 87.968457,139.41123 87.776946,139.37839 87.58424,138.71783 z"
       style="fill:#ffffff;fill-opacity:1" />
    <path
       sodipodi:nodetypes="ccccssscc"
       id="path2549"
       d="M 119.83184,134.51807 C 117.36182,133.53833 112.56211,132.7264 109.14505,132.71025 L 106.04888,132.69562 L 106.08415,114.3541 C 106.11729,97.114244 106.15518,96.176224 106.71504,98.737572 C 109.1936,110.07705 112.30723,120.50763 116.50069,126.73786 C 117.49342,128.21277 121.35479,133.10282 122.38855,135.06848 C 122.63745,135.54176 121.61617,135.22584 119.83184,134.51808 L 119.83184,134.51807 z"
       style="fill:#ffffff;fill-opacity:1" />
    <path
       sodipodi:nodetypes="cssccccccccssscccscccsccccsscccssccccccsccccccccssssc"
       id="path2498"
       d="M 93.063602,236.32469 C 83.181932,229.19956 69.631202,222.1388 52.689352,215.28724 C 25.516282,204.29801 15.511712,197.52385 9.332172,185.92984 C 3.7192517,175.39892 2.0371117,166.68353 1.4527217,145.10541 L 0.93253168,125.89756 L 5.0485717,120.9814 C 17.043582,106.65468 17.116772,92.368812 5.2610317,79.506852 L 1.1893517,75.089602 L 1.1893517,48.570762 L 1.1893517,22.051912 L 14.439352,17.023392 C 44.090382,5.770482 58.984652,2.897412 91.689352,2.122072 C 126.65066,1.293232 146.83169,3.620172 170.18935,11.173352 C 182.8563,15.269472 197.22304,20.715052 198.93935,22.070772 C 199.88203,22.815402 200.18935,29.456192 200.18935,49.082002 L 200.18935,75.105852 L 195.63236,79.977642 C 189.43629,86.601742 187.23613,91.790202 187.22108,99.813262 C 187.20634,107.66901 189.88331,114.02153 196.20954,121.14318 L 200.50001,125.97309 L 199.85947,144.38076 C 198.34673,187.85315 191.01948,198.13921 149.68935,214.81011 C 131.92395,221.97595 120.36723,227.89023 109.5636,235.34493 L 100.43785,241.64185 L 93.063602,236.32469 z M 108.50003,234.4809 C 117.92923,227.71576 129.94242,221.53101 147.68935,214.30507 C 168.39422,205.87476 176.83007,201.23862 183.48773,194.63116 C 194.05311,184.14545 197.59903,172.43448 198.75409,144.21159 L 199.454,127.10992 L 194.8369,121.44136 C 189.14516,114.45345 187.73588,111.7466 186.32965,105.10119 C 185.12253,99.396712 186.05985,91.898152 188.59215,87.001232 C 189.39229,85.453932 192.10399,81.900032 194.61815,79.103682 L 199.18935,74.019402 L 199.07742,57.666332 C 199.01586,48.672142 198.67836,37.085992 198.32742,31.919332 L 197.68935,22.525402 L 186.18935,18.083122 C 159.27315,7.685792 141.76914,4.195902 111.62241,3.216232 C 70.746602,1.887902 46.912732,5.688772 12.507752,19.022392 L 2.1893517,23.021282 L 2.1893517,48.754502 L 2.1893517,74.487732 L 6.3170717,78.826862 C 18.328702,91.453712 18.247032,108.1164 6.1089417,121.28467 L 1.8851717,125.86692 L 2.4815317,144.59009 C 3.3365617,171.43436 6.7568317,183.09114 16.987462,194.02851 C 23.286252,200.76242 31.545592,205.40666 52.189352,213.82254 C 71.714002,221.78219 82.314972,227.24134 92.689352,234.67867 C 96.539352,237.43871 99.99951,239.7231 100.37859,239.75509 C 100.75767,239.78709 104.41232,237.4137 108.50003,234.4809 z"
       style="fill:#000000" />
    <path
       sodipodi:nodetypes="cssscssscc"
       id="path2547"
       d="M 111.59102,116.2285 C 109.88182,112.33041 108.27553,104.92518 107.07853,99.467933 C 106.14686,95.220409 106.29349,93.337817 106.14432,85.725417 C 105.98011,77.346447 105.41,77.866799 106.0961,77.633504 C 106.71054,77.424576 106.79228,77.695705 108.56933,77.376438 C 109.17396,80.053133 110.42583,89.740199 111.35123,93.174097 C 112.92908,99.02901 113.00613,99.558408 112.58956,101.68091 C 111.83547,105.52321 112.15951,111.13399 113.42112,116.07943 C 114.07723,118.65141 117.61122,128.25039 116.34102,125.35351 L 111.59102,116.2285 z"
       style="fill:#ffffff;fill-opacity:1" />
    <path
       id="path2555"
       d="M 75.252206,110.60833 C 75.221552,99.57336 75.20803,90.52122 75.222166,90.492481 C 75.257048,90.421526 79.670831,91.284368 79.787168,91.384888 C 79.837991,91.428786 79.646388,92.556216 79.361367,93.890276 C 77.628643,102.00064 77.513676,111.11874 79.040862,119.31008 C 79.678164,122.72837 81.249207,128.37869 82.137296,130.4465 C 82.212303,130.62115 81.453976,130.67193 78.77104,130.67193 L 75.307966,130.67193 L 75.252206,110.60833 z"
       style="fill:#ffffff;fill-opacity:1" />
    <path
       sodipodi:nodetypes="ccccccsccccccsccccccscccccccccccsccssssccsssscccccccccc"
       id="path2496"
       d="M 91.59375,2.96875 C 64.327528,3.1948497 37.253853,8.8983629 12.03125,19.25 C 8.7439698,20.521213 5.44353,21.791287 2.15625,23.0625 C 2.1562501,40.21875 2.15625,57.375 2.15625,74.53125 C 10.28146,82.020693 17.13484,92.483154 14.9375,104.03125 C 13.75817,112.83768 7.81449,119.7461 1.875,125.90625 C 2.4969699,140.17422 2.1695063,154.57847 4.6601563,168.6875 C 4.6959763,168.89044 5.30668,171.60968 5.34375,171.8125 C 6.5796924,171.19265 7.0072075,171.08831 8.1875,170.71875 C 11.83155,169.29804 11.48874,169.43807 16.96875,169.78125 C 20.56188,171.08931 23.41824,173.4387 27.6875,173.25 L 27.71875,173.25 L 27.75,173.25 C 29.73979,172.86672 31.49103,171.88349 33.21875,171.0625 C 34.946458,170.24152 36.63927,169.57469 38.5,169.65625 L 38.53125,169.65625 L 38.5625,169.65625 C 41.560358,169.34824 42.62618,170.0011 44.78125,170.625 L 45.0625,169.6875 C 42.910662,168.81599 40.766277,168.57443 38.46875,168.65625 C 36.383368,168.58991 34.54869,169.33123 32.8125,170.15625 C 31.080998,170.97905 29.40632,171.89241 27.65625,172.25 C 23.75887,172.42227 21.07421,170.15552 17.25,168.78125 L 17.15625,168.78125 L 17.09375,168.78125 C 12.201066,168.47131 9.4601603,169.25598 6.7143083,170.27053 C 3.547178,156.2341 3.7349787,140.25878 3.3563132,125.92103 C 9.864948,118.99712 16.192843,111.05493 16.208027,101.28125 C 17.404576,90.650068 10.823961,81.105268 3.5697015,74.12592 C 3.5606765,57.678245 3.2515805,41.890099 3.5630389,24.381282 C 65.019325,-5.5458636 146.92254,0.32678399 196.33303,23.747398 C 197.56108,40.039065 197.87639,57.523974 197.70304,73.815641 C 186.09177,86.947341 185.09148,91.799167 184.86455,100.67817 C 184.64188,109.34731 187.98557,114.52837 198.23116,127.92678 C 197.82212,142.30977 197.80652,157.53877 195.10859,169.34565 C 194.27042,169.25726 191.72358,168.89421 190.96875,168.90625 C 187.13711,168.96737 182.79272,170.15446 178.46875,170.75 C 174.14478,171.34555 169.86527,171.35944 166.09375,169.21875 C 166.06194,169.20071 165.85457,169.09938 165.46875,168.9375 C 165.08293,168.77563 164.496,168.55312 163.53125,168.25 L 163.21875,169.1875 C 164.16223,169.48394 164.74675,169.69816 165.09375,169.84375 C 165.44075,169.98935 165.51342,170.04815 165.59375,170.09375 C 169.64936,172.3957 174.18422,172.35733 178.59375,171.75 C 183.00328,171.14268 187.33395,169.96422 190.96875,169.90625 C 192.52398,169.88145 194.77154,170.11858 196.03125,170.60156 C 197.31269,164.92176 197.74905,159.04307 198.3125,153.28125 C 198.81074,144.56774 199.06553,135.87216 199.4375,127.15625 C 193.02484,119.43923 185.65327,111.30107 185.8125,100.59375 C 185.03384,91.43768 191.83929,81.41918 196.51138,77.21875 C 198.64229,74.554068 199.51963,72.158316 199.125,68.875 C 199.08113,53.420627 198.93117,37.972271 197.65625,22.5625 C 175.51006,13.625527 152.63203,5.636824 128.59375,4.1875 C 118.10079,3.3265058 107.55691,3.032112 97.03125,3 C 95.212237,2.9661811 93.411498,2.9536767 91.59375,2.96875 z"
       style="fill:#ffffff" />
    <path
       id="path2535"
       d="M 137.14667,95.775546 C 130.93603,93.412688 127.75136,91.700014 125.77554,89.660299 C 124.88337,88.739292 123.95642,87.368111 124.22593,87.368111 C 124.26845,87.368111 127.01455,88.08987 130.32838,88.972029 C 133.64219,89.854189 136.71043,90.662174 137.14667,90.767571 L 137.93982,90.959193 L 137.99566,93.497639 C 138.02639,94.893779 137.98179,96.028375 137.89653,96.018961 C 137.81127,96.009558 137.47384,95.900017 137.14667,95.775534 L 137.14667,95.775546 z"
       style="fill:#ffffff;fill-opacity:1" />
    <path
       id="path2533"
       d="M 82.37161,129.42544 C 82.23144,128.95414 81.98004,128.11111 81.81294,127.55206 C 80.46523,123.043 79.56115,117.92584 79.11917,112.30507 C 78.97269,110.44235 78.97183,104.42183 79.11776,102.53815 C 79.41658,98.6811 80.00702,94.738121 80.86749,90.853501 C 81.83643,86.479191 84.06075,81.785681 87.45667,76.949731 C 88.98067,74.779481 89.59051,74.029441 89.80642,74.059781 C 90.1639,74.110021 96.117104,75.384881 96.150604,75.418381 C 96.198614,75.466391 95.876874,79.567981 95.668104,81.569181 C 94.974634,88.216901 93.480534,96.508861 91.674787,103.7314 C 90.11448,109.97223 86.90472,120.60186 85.83626,123.06662 C 83.99667,127.31024 82.73904,130.16646 82.68613,130.22094 C 82.65331,130.25472 82.51178,129.89675 82.37161,129.42544 L 82.37161,129.42544 z"
       style="fill:#ffffff" />
    <path
       sodipodi:nodetypes="csscccccc"
       id="path2561"
       d="M 53.098098,124.17539 C 52.101004,122.71164 50.30378,116.72769 49.739952,112.99426 C 49.498453,111.39513 49.453949,110.16918 49.531434,107.24902 C 49.659257,102.43106 50.227069,98.90287 51.341478,96.002061 L 56.136386,86.787669 C 61.245123,88.097234 64.235899,89.679446 67.489889,91.285413 C 63.94204,108.68214 60.028959,116.52605 54.505562,125.6338 C 54.465962,125.6338 53.346467,124.53999 53.098109,124.17539 L 53.098098,124.17539 z"
       style="fill:#ffffff;fill-opacity:1" />
    <path
       sodipodi:nodetypes="ccccccccscccccsscccccccccccccccccccccsccscccccccccsccccscccccccccccccccccccccccccccc"
       id="path3369"
       d="M 83.18559,190.89514 C 72.38353,186.99362 58.44406,190.78706 50.10064,181.14931 C 41.91883,172.61127 45.14199,160.08929 44.85599,149.56806 C 44.41522,144.68254 46.19576,140.9937 42.84451,137.77204 C 38.81597,134.40465 34.87371,129.85847 32.19683,125.66426 C 27.42974,121.00389 24.86461,104.30194 36.12779,114.13026 C 46.12226,123.64028 55.87824,134.12346 69.09185,139.13255 C 84.5638,145.27546 101.6582,145.86039 118.05564,144.63902 C 118.64023,144.45135 119.8955,144.62445 120.29989,144.25571 C 125.54406,139.47398 122.72467,127.73446 130.85578,124.43542 C 140.10733,120.92849 153.06935,128.02648 161.07709,120.18716 C 164.39726,112.19191 177.01372,111.4202 173.73289,120.83077 C 170.76752,129.03614 163.5678,136.17408 164.04211,145.45747 C 162.62148,156.61581 164.14551,168.39478 163.78896,179.5929 C 161.14471,179.85909 159.83986,179.55698 157.7153,180.27311 C 152.78151,181.93615 147.50405,185.80588 139.94489,189.83157 C 138.53394,190.58298 137.32733,188.84069 135.38528,188.89064 C 125.81099,189.30901 115.08804,193.84418 106.03479,188.45879 C 98.251084,186.32772 90.964479,191.90709 83.18559,190.89514 z M 58.18484,133.19245 C 47.3402,126.72021 40.70731,110.80293 35.00271,100.36777 L 35.64145,95.908221 L 58.18484,133.19245 z M 137.90631,123.60793 C 137.9213,120.09337 138.40789,106.23131 137.95718,90.754441 C 135.9122,90.245701 121.90993,87.001661 124.6315,86.155161 C 126.70994,83.928811 134.88576,86.528501 137.89093,87.262991 C 137.83754,85.433091 137.74129,84.495151 137.66792,82.684531 C 137.23472,82.320241 131.0067,77.357171 130.24458,75.523881 C 128.11683,74.752001 126.87747,74.331661 127.14668,71.148661 C 130.41085,70.884521 133.98901,70.995981 135.68155,71.030301 C 135.35748,62.512361 136.00702,52.856581 135.98828,50.426861 C 138.36454,50.217011 136.73056,50.389481 139.92913,49.992921 C 140.11845,53.174911 139.60435,61.023731 140.01916,70.639111 C 142.66334,70.971321 150.42018,69.785101 149.95308,72.408331 C 149.3705,73.218071 149.68909,74.667531 147.62035,75.347291 C 146.01652,77.895921 143.21865,80.867001 141.60529,82.588571 C 141.68027,84.493361 141.53501,85.816831 141.60588,87.725981 C 141.62828,88.329441 150.41808,89.621171 155.03367,91.159871 C 155.04678,91.520861 156.03532,93.201101 155.18257,94.221271 C 152.32695,93.794811 141.73468,91.270101 141.74624,91.596941 C 142.26008,106.12916 142.56426,119.14378 142.24523,123.70504 C 139.66691,123.83771 140.1362,123.70026 137.90631,123.60793 z M 101.27862,29.501531 C 102.4734,29.361651 102.72373,29.372321 104.76745,29.106441 C 104.75742,29.601781 105.09172,50.327351 105.11406,55.747461 C 106.63995,55.856801 110.70447,55.987701 111.85501,56.033321 C 112.03997,59.078171 111.9413,58.874831 111.91995,59.805101 C 109.86069,58.773881 106.79004,65.588791 106.07847,66.549251 C 106.39416,95.917281 105.85286,133.26792 105.92973,144.75032 C 104.38642,143.69198 101.86033,145.94522 101.89783,144.36616 C 102.04606,138.08058 102.01701,128.34207 102.12665,123.01291 C 102.51632,114.60057 101.9587,70.011561 101.5642,66.384041 C 101.40047,66.221101 96.686054,60.741561 94.019214,59.416291 C 93.992194,58.521071 93.833624,58.147631 94.075844,55.859831 C 97.769764,55.878681 101.21736,56.760171 101.20499,55.894051 C 101.06484,46.086421 101.05139,32.686101 101.27862,29.501531 z M 71.08897,139.55354 C 71.27663,121.38632 71.83588,103.0227 70.79019,84.626891 C 72.11179,84.653001 73.39456,84.586671 74.94919,84.646791 C 75.12148,100.67218 74.75982,124.24081 74.74217,140.35957 C 74.26101,140.20874 71.57014,139.70436 71.08897,139.55354 z M 60.03667,73.334441 C 63.31716,73.319261 79.85861,73.758461 84.01598,73.583741 C 84.04196,73.945431 83.88558,74.908821 83.77401,76.214631 C 81.87271,76.282011 76.36728,83.292351 75.35288,84.453911 C 73.59653,84.519931 71.75792,84.500321 70.26751,84.419701 C 69.26526,83.553181 61.84446,76.252361 60.06183,76.264271 C 60.01384,74.710931 60.06784,74.487391 60.03667,73.334441 z M 124.37767,80.700711 C 113.93584,78.250641 96.980094,76.001721 87.03952,72.793271 C 86.96067,70.959521 86.80261,70.352591 89.94531,69.972981 C 99.518484,71.323991 118.52294,74.916151 126.16264,78.132391 C 125.63802,80.007821 125.50591,79.456361 124.37767,80.700711 z M 70.89135,92.284041 C 68.68523,91.508011 55.48318,85.839441 53.23994,85.048041 C 53.3407,84.020131 54.13317,83.582411 55.08492,83.012761 C 57.4532,83.734541 68.45083,87.390761 70.93346,88.353451 C 70.78455,89.846751 70.96586,89.074161 70.89135,92.284041 z M 69.19751,73.134221 C 69.21138,65.583611 69.04694,58.695351 68.58698,55.461461 C 73.86195,55.103231 68.74865,55.522891 73.93673,55.086411 C 74.0531,62.178311 73.96143,65.946041 74.07569,73.169531 C 71.42999,73.228341 71.37954,73.114491 69.19751,73.134221 z"
       style="fill:#f58220;fill-opacity:1" />
    <path
       sodipodi:nodetypes="csssssssscscssssssssccccccc"
       id="path2690"
       d="M 45.18625,177.69746 C 39.91583,177.50022 37.30424,178.23763 35.06125,179.03761 C 32.81825,179.83759 31.0017,180.68008 27.0925,180.86169 C 22.99924,181.05185 20.73595,179.48657 14.8425,177.99527 C 14.68765,177.95609 14.60621,177.96739 14.43625,177.95805 C 14.26628,177.94871 14.06261,177.92842 13.81125,177.92082 C 13.30851,177.90563 12.66766,177.89634 12.030001,177.88359 C 11.392341,177.87085 10.747991,177.86133 10.248751,177.84637 C 9.9991205,177.83889 9.7841005,177.81779 9.6237505,177.80914 C 9.4633905,177.80049 9.3257905,177.79798 9.3737505,177.80914 C 9.3737505,177.80914 9.0793905,178.09679 9.0444705,178.2746 C 9.0037905,178.48169 9.1862505,178.96316 9.1862505,178.96316 C 9.3287605,178.99634 9.4200005,178.99108 9.5925005,179.00038 C 9.7649905,179.00969 9.9643205,179.03002 10.217501,179.03761 C 10.723841,179.05277 11.361111,179.06209 11.998751,179.07483 C 12.63639,179.08758 13.28452,179.09709 13.78,179.11206 C 14.02773,179.11954 14.24765,179.14064 14.405,179.14929 C 14.56234,179.15794 14.69143,179.16642 14.62375,179.14929 C 20.42617,180.61756 22.8035,182.25365 27.12375,182.05293 C 31.14536,181.86609 33.14551,180.93797 35.3425,180.1544 C 37.52812,179.37487 39.9617,178.70459 45.0925,178.8887 L 45.155,178.8887 L 48.92062,179.91243 L 48.9675,178.70257 L 45.28,177.73469 L 45.24875,177.69746 L 45.18625,177.69746 z"
       style="fill:#0066b3;fill-opacity:1;fill-rule:evenodd;stroke:none;stroke-width:1px;stroke-linecap:butt;stroke-linejoin:miter;stroke-opacity:1" />
    <path
       sodipodi:nodetypes="cssccsscsc"
       id="path2696"
       d="M 191.32013,177.69135 C 183.27495,180.48671 174.21455,183.32275 166.44513,178.28339 C 166.47205,178.30089 166.25538,178.15366 165.97638,178.09838 C 165.69738,178.0431 165.24497,178.00312 164.40607,178.02438 L 164.39044,179.20845 C 165.20732,179.18777 165.68617,179.21891 165.82013,179.24546 C 165.95409,179.272 165.75545,179.19619 165.94513,179.31946 C 174.13943,184.6344 183.54064,181.6022 191.60138,178.80143 C 191.60138,178.80143 191.73073,178.32611 191.67796,178.13393 C 191.62997,177.95912 191.32013,177.69135 191.32013,177.69135 z"
       style="fill:#0066b3;fill-opacity:1;fill-rule:evenodd;stroke:none;stroke-width:1px;stroke-linecap:butt;stroke-linejoin:miter;stroke-opacity:1" />
    <path
       sodipodi:nodetypes="ccsccscc"
       id="path2708"
       d="M 101.35138,229.43604 C 98.806774,229.46801 96.285494,230.54261 94.226384,232.74225 C 94.226384,232.74225 94.242014,233.26354 94.329054,233.43926 C 94.428124,233.63926 94.820134,233.87333 94.820134,233.87333 C 98.554154,229.88446 104.13578,229.9907 108.03888,233.52531 C 108.03888,233.52531 108.45613,233.37207 108.5487,233.1722 C 108.6447,232.96495 108.57013,232.35073 108.57013,232.35073 C 106.44205,230.42356 103.89599,229.40406 101.35138,229.43604 z"
       style="fill:#0066b3;fill-opacity:1;fill-rule:evenodd;stroke:none;stroke-width:1px;stroke-linecap:butt;stroke-linejoin:miter;stroke-opacity:1" />
    <path
       sodipodi:nodetypes="ccsccscsc"
       id="path2726"
       d="M 158.97638,137.52958 C 158.21752,137.57108 157.3729,137.53993 156.15095,137.64441 C 151.27936,139.26373 146.44917,141.8951 141.91388,142.77958 C 136.28373,143.87758 130.31491,144.49279 126.57013,144.52958 L 126.57013,145.52958 C 130.41145,145.49185 136.40908,144.85845 142.10138,143.74833 C 147.35007,142.72473 154.20207,140.39569 159.32013,138.46708 C 159.32013,138.46708 159.47774,138.03329 159.40926,137.86356 C 159.34788,137.71146 158.97638,137.52958 158.97638,137.52958 z"
       style="fill:#000000;fill-opacity:1;fill-rule:evenodd;stroke:none;stroke-width:1px;stroke-linecap:butt;stroke-linejoin:miter;stroke-opacity:1" />
    <path
       sodipodi:nodetypes="cc"
       id="path2866"
       d="M 71.07197,139.54095 C 70.7803,121.89512 71.26203,102.79087 70.97037,85.145041"
       style="fill:none;fill-rule:evenodd;stroke:#000000;stroke-width:1px;stroke-linecap:butt;stroke-linejoin:miter;stroke-opacity:1" />
    <path
       sodipodi:nodetypes="csc"
       id="path2870"
       d="M 74.96378,84.212901 C 74.96318,84.749781 74.96268,85.288411 74.96229,85.828681 C 74.94958,103.59126 75.05318,123.13674 75.03317,140.78744"
       style="fill:none;fill-rule:evenodd;stroke:#000000;stroke-width:1.0007509px;stroke-linecap:butt;stroke-linejoin:miter;stroke-opacity:1" />
    <path
       sodipodi:nodetypes="cc"
       id="path2876"
       d="M 101.95206,76.390601 C 101.84789,98.3906 102.06414,122.62241 101.95997,144.62241"
       style="fill:none;fill-rule:evenodd;stroke:#000000;stroke-width:1px;stroke-linecap:butt;stroke-linejoin:miter;stroke-opacity:1" />
    <path
       sodipodi:nodetypes="cc"
       id="path2878"
       d="M 105.94513,145.04521 C 105.82013,122.87854 106.07013,99.24312 105.94513,77.076451"
       style="fill:none;fill-rule:evenodd;stroke:#000000;stroke-width:1px;stroke-linecap:butt;stroke-linejoin:miter;stroke-opacity:1" />
    <path
       sodipodi:nodetypes="cssc"
       id="path2880"
       d="M 58.60176,132.7955 C 58.38261,132.45985 57.8934,132.07037 57.66481,131.71612 C 51.45564,122.09354 41.89406,105.85379 35.99088,96.337811 C 35.89685,96.186241 34.927,95.148301 34.96018,95.473241"
       style="fill:none;fill-rule:evenodd;stroke:#000000;stroke-width:1px;stroke-linecap:butt;stroke-linejoin:miter;stroke-opacity:1" />
    <path
       sodipodi:nodetypes="cccc"
       id="path2886"
       d="M 34.95899,95.449201 C 34.96168,96.746631 34.9209,98.60369 34.96452,99.94133 C 35.41033,101.82443 36.45608,103.85436 37.97993,106.98092 C 41.43703,112.81885 47.54577,124.13685 52.90322,129.53284"
       style="fill:none;fill-rule:evenodd;stroke:#000000;stroke-width:1px;stroke-linecap:butt;stroke-linejoin:miter;stroke-opacity:1" />
    <path
       id="path2888"
       d="M 60.07013,73.342081 C 68.02846,73.342081 75.9868,73.342081 83.94513,73.342081 C 83.94513,74.217081 83.94513,75.092081 83.94513,75.967081"
       style="fill:none;fill-rule:evenodd;stroke:#000000;stroke-width:1px;stroke-linecap:butt;stroke-linejoin:miter;stroke-opacity:1" />
    <path
       sodipodi:nodetypes="ccc"
       id="path2892"
       d="M 84.45336,76.319981 C 76.41169,76.319981 68.11591,76.181871 60.07425,76.181871 C 60.08024,75.295821 60.05861,73.724771 60.07013,72.844251"
       style="fill:none;fill-rule:evenodd;stroke:#000000;stroke-width:1px;stroke-linecap:butt;stroke-linejoin:miter;stroke-opacity:1" />
    <path
       sodipodi:nodetypes="csc"
       id="path2894"
       d="M 61.30908,76.244811 C 61.63921,76.511621 62.05201,76.860741 62.39166,77.156101 C 65.18134,79.582051 68.25287,82.853561 70.96441,85.045071"
       style="fill:none;fill-rule:evenodd;stroke:#000000;stroke-width:1px;stroke-linecap:butt;stroke-linejoin:miter;stroke-opacity:1" />
    <path
       sodipodi:nodetypes="csc"
       id="path2898"
       d="M 82.36812,76.277621 C 79.94771,78.872971 78.2119,81.231071 75.97178,83.743681 C 75.65505,84.098941 75.32737,84.459221 74.98515,84.826181"
       style="fill:none;fill-rule:evenodd;stroke:#000000;stroke-width:1.03270566px;stroke-linecap:butt;stroke-linejoin:miter;stroke-opacity:1" />
    <path
       sodipodi:nodetypes="cc"
       id="path2902"
       d="M 70.59981,84.739171 C 72.59981,84.614171 73.1856,84.798531 75.1856,84.673531"
       style="fill:none;fill-rule:evenodd;stroke:#000000;stroke-width:1px;stroke-linecap:butt;stroke-linejoin:miter;stroke-opacity:1" />
    <path
       sodipodi:nodetypes="cssssscccsscc"
       id="path2553"
       d="M 82.077888,129.43934 C 81.500348,127.92032 80.67343,122.86364 79.9911,119.18959 C 79.51084,116.60357 79.36486,113.91934 79.35659,107.52233 C 79.3473,100.33993 79.45453,98.6388 80.14764,94.971191 C 81.16575,89.583931 82.11469,86.555861 83.84615,83.169451 C 85.24428,80.434981 88.88297,74.792211 89.49011,74.416981 C 89.67288,74.304021 91.243952,74.487691 92.981354,74.825161 L 96.140274,75.438741 L 95.932914,77.780341 C 94.943564,88.952091 92.801904,99.93662 89.22771,112.17119 C 87.01979,119.72897 86.131447,123.29229 84.161617,127.72557 C 82.808037,130.77193 82.519796,131.29727 82.166276,130.36743 L 82.077888,129.43934 z"
       style="fill:#ffffff;fill-opacity:1" />
    <path
       sodipodi:nodetypes="ccssszc"
       id="path2904"
       d="M 87.32836,72.967081 C 99.870044,75.592081 111.90346,78.217081 124.44513,80.842081 C 125.63973,79.679401 126.44565,79.232711 125.6996,77.959811 C 125.34503,77.354821 120.69805,75.641471 116.98472,74.931571 C 109.04342,73.413391 100.11312,71.129001 92.899394,70.010821 C 89.58535,69.497131 88.31737,69.825341 87.8951,70.427331 C 87.47651,71.024091 87.23931,73.005471 87.32836,72.967081 z"
       style="fill:none;fill-rule:evenodd;stroke:#000000;stroke-width:1px;stroke-linecap:butt;stroke-linejoin:miter;stroke-opacity:1" />
    <path
       id="path2543"
       d="M 66.080599,54.95714 C 64.700264,54.660307 61.70313,54.408956 59.420275,54.398567 C 57.137432,54.388179 55.26964,54.211621 55.26964,54.006197 C 55.26964,53.800784 55.724805,53.065975 56.281115,52.373296 C 58.267212,49.900345 61.330034,49.257654 68.938036,49.717403 L 73.80271,50.011387 L 73.80271,52.547129 L 73.80271,55.082883 L 72.354809,55.333617 C 70.388808,55.674076 69.037513,55.592989 66.080599,54.95714 L 66.080599,54.95714 z"
       style="fill:#ffffff;fill-opacity:1" />
    <path
       sodipodi:nodetypes="ccc"
       id="path2906"
       d="M 73.98997,72.969031 C 73.86497,65.594031 74.12635,56.939621 74.00135,49.564621 C 65.59151,49.910471 58.05119,47.001591 55.32225,54.533691"
       style="fill:none;fill-rule:evenodd;stroke:#000000;stroke-width:1px;stroke-linecap:butt;stroke-linejoin:miter;stroke-opacity:1" />
    <path
       sodipodi:nodetypes="cccsc"
       id="path2910"
       d="M 69.07013,73.092081 C 69.1118,67.425411 68.82201,61.515681 68.86367,55.849011 C 67.01738,55.456531 65.76374,55.310221 63.76892,54.899521 C 60.80231,54.619171 57.9082,55.026001 54.85739,54.739171 C 54.85739,54.739171 54.85739,54.739171 54.85739,54.739171"
       style="fill:none;fill-rule:evenodd;stroke:#000000;stroke-width:1px;stroke-linecap:butt;stroke-linejoin:miter;stroke-opacity:1" />
    <path
       id="path2541"
       d="M 82.783186,29.897325 L 81.48339,29.398802 L 84.066284,27.323061 C 85.486867,26.1814 86.921094,25.241979 87.253461,25.235463 C 87.585838,25.228933 90.235879,24.962189 93.142475,24.642683 C 96.049067,24.323177 99.828588,24.058031 101.5414,24.053452 L 104.6556,24.045121 L 104.6556,26.649886 C 104.6556,28.082501 104.61314,29.258584 104.56123,29.263401 C 101.42992,29.553846 87.304346,30.429102 85.970362,30.415341 C 84.932296,30.404642 83.498058,30.171527 82.783186,29.897336 L 82.783186,29.897325 z"
       style="fill:#ffffff;fill-opacity:1" />
    <path
       sodipodi:nodetypes="ccccc"
       id="path2920"
       d="M 80.73932,29.717081 C 83.48099,27.394641 84.28211,27.083071 86.34398,25.277501 C 86.76512,24.884931 92.278064,24.481861 94.782594,24.194241 C 97.432074,23.986631 99.823944,23.720741 104.88642,23.869791 C 104.88642,34.242051 104.93062,45.895941 104.93062,56.268201"
       style="fill:none;fill-rule:evenodd;stroke:#000000;stroke-width:1px;stroke-linecap:butt;stroke-linejoin:miter;stroke-opacity:1" />
    <path
       sodipodi:nodetypes="cccccc"
       id="path2926"
       d="M 100.46723,29.516801 C 100.46723,38.559271 100.47638,46.988731 100.47638,56.029581 L 101.47638,56.029581 C 101.47638,46.987101 101.44513,38.507931 101.44513,29.467081 L 101.12196,29.474151 L 100.46723,29.516801 z"
       style="fill:#000000;fill-opacity:1;fill-rule:evenodd;stroke:none;stroke-width:1px;stroke-linecap:butt;stroke-linejoin:miter;stroke-opacity:1" />
    <path
       sodipodi:nodetypes="cc"
       id="path2936"
       d="M 95.739324,59.922231 C 98.155994,62.547231 99.777164,64.973361 102.19383,67.598361"
       style="fill:none;fill-rule:evenodd;stroke:#000000;stroke-width:1px;stroke-linecap:butt;stroke-linejoin:miter;stroke-opacity:1" />
    <path
       sodipodi:nodetypes="cc"
       id="path2938"
       d="M 105.92304,67.210411 C 107.54804,64.627081 108.41415,62.667831 110.03915,60.084501"
       style="fill:none;fill-rule:evenodd;stroke:#000000;stroke-width:1px;stroke-linecap:butt;stroke-linejoin:miter;stroke-opacity:1" />
    <path
       sodipodi:nodetypes="cc"
       id="path2940"
       d="M 102.07294,66.544631 C 101.90627,67.836291 102.12631,70.829441 101.95964,72.121111"
       style="fill:none;fill-rule:evenodd;stroke:#000000;stroke-width:1px;stroke-linecap:butt;stroke-linejoin:miter;stroke-opacity:1" />
    <path
       sodipodi:nodetypes="cc"
       id="path2942"
       d="M 105.94513,72.967081 C 106.02846,71.050411 105.90188,68.448741 105.98521,66.532071"
       style="fill:none;fill-rule:evenodd;stroke:#000000;stroke-width:1px;stroke-linecap:butt;stroke-linejoin:miter;stroke-opacity:1" />
    <path
       id="path2944"
       d="M 98.695134,56.842081 C 98.695134,56.842081 98.695134,56.842081 98.695134,56.842081 z"
       style="fill:none;fill-rule:evenodd;stroke:#000000;stroke-width:1px;stroke-linecap:butt;stroke-linejoin:miter;stroke-opacity:1" />
    <path
       id="path2948"
       d="M 141.44513,123.59208 C 141.44513,123.59208 141.44513,123.59208 141.44513,123.59208 z"
       style="fill:none;fill-rule:evenodd;stroke:#000000;stroke-width:1px;stroke-linecap:butt;stroke-linejoin:miter;stroke-opacity:1" />
    <path
       id="path2537"
       d="M 142.79633,96.035628 L 142.28932,96.020347 L 142.28932,94.029879 L 142.28932,92.039401 L 142.43233,92.066241 C 142.51098,92.081005 144.8569,92.565378 147.64548,93.142625 C 150.43406,93.719872 153.25989,94.303242 153.92512,94.438988 C 155.31905,94.723455 155.30185,94.663948 154.09368,95.022887 C 152.24444,95.572278 150.25822,95.887954 147.80149,96.022906 C 147.02153,96.065747 144.04676,96.073308 142.79633,96.035628 L 142.79633,96.035628 z"
       style="fill:#ffffff;fill-opacity:1" />
    <path
       sodipodi:nodetypes="csc"
       id="path2952"
       d="M 142.00763,123.37333 C 142.00763,113.55239 141.9722,106.70586 141.97617,97.087211 C 141.97631,96.748601 141.97638,92.094061 141.97638,91.748331"
       style="fill:none;fill-rule:evenodd;stroke:#000000;stroke-width:1px;stroke-linecap:butt;stroke-linejoin:miter;stroke-opacity:1" />
    <path
       sodipodi:nodetypes="cc"
       id="path2956"
       d="M 138.03888,123.74833 C 137.95555,113.58166 138.05971,100.53999 137.97638,90.373331"
       style="fill:none;fill-rule:evenodd;stroke:#000000;stroke-width:1px;stroke-linecap:butt;stroke-linejoin:miter;stroke-opacity:1" />
    <path
       id="path2958"
       d="M 154.44513,94.842081 C 154.44513,94.842081 154.44513,94.842081 154.44513,94.842081 z"
       style="fill:none;fill-rule:evenodd;stroke:#000000;stroke-width:1px;stroke-linecap:butt;stroke-linejoin:miter;stroke-opacity:1" />
    <path
       sodipodi:nodetypes="cccccc"
       id="path2980"
       d="M 149.22985,75.254341 C 149.60095,72.660931 149.61972,72.388991 149.64973,70.853781 C 147.63224,70.835991 144.26457,70.934191 142.69446,70.898501 C 137.28843,70.983861 132.35116,70.756721 126.94513,70.842081 C 127.01546,72.406081 127.01064,71.857751 126.98919,73.922441 C 127.62688,74.829461 128.64611,75.245751 130.57013,75.592081"
       style="fill:none;fill-rule:evenodd;stroke:#000000;stroke-width:1px;stroke-linecap:butt;stroke-linejoin:miter;stroke-opacity:1" />
    <path
       id="path2982"
       d="M 136.19513,70.092081 C 136.2324,70.110711 136.1118,70.092081 136.19513,70.092081 z"
       style="fill:none;fill-rule:evenodd;stroke:#000000;stroke-width:1px;stroke-linecap:butt;stroke-linejoin:miter;stroke-opacity:1" />
    <path
       sodipodi:nodetypes="csccccccc"
       id="path2539"
       d="M 122.65373,49.087424 C 122.65373,47.569384 123.63098,46.212547 125.2114,45.536333 C 125.68926,45.331858 129.19354,45.164581 132.99871,45.164581 L 139.91719,45.164581 L 139.91719,47.576153 L 139.91719,50.319181 C 136.58047,50.428018 133.00681,50.490389 129.54426,50.510771 L 122.65373,50.510771 L 122.65373,49.087424 z"
       style="fill:#ffffff;fill-opacity:1" />
    <path
       sodipodi:nodetypes="cc"
       id="path2984"
       d="M 135.98419,50.412391 C 136.19252,56.829051 135.9243,64.191031 136.13263,70.607701"
       style="fill:none;fill-rule:evenodd;stroke:#000000;stroke-width:1px;stroke-linecap:butt;stroke-linejoin:miter;stroke-opacity:1" />
    <path
       sodipodi:nodetypes="cccscc"
       id="path2986"
       d="M 139.90473,70.561211 C 139.9464,62.436211 139.96596,53.029581 140.00763,44.904581 C 126.60854,44.990771 140.07113,44.891191 126.61553,44.983821 C 124.69607,45.519031 124.75536,45.353571 123.25855,46.729861 C 121.81989,48.052671 122.30104,48.838678 122.29024,50.916363 C 125.95584,50.586773 131.71963,50.839509 136.35138,50.904581"
       style="fill:none;fill-rule:evenodd;stroke:#000000;stroke-width:1px;stroke-linecap:butt;stroke-linejoin:miter;stroke-opacity:1" />
    <path
       sodipodi:nodetypes="cc"
       id="path2990"
       d="M 71.21029,92.775791 C 65.50196,90.359121 58.73297,87.500511 53.02463,85.083841"
       style="fill:none;fill-rule:evenodd;stroke:#000000;stroke-width:1px;stroke-linecap:butt;stroke-linejoin:miter;stroke-opacity:1" />
    <path
       sodipodi:nodetypes="cc"
       id="path2996"
       d="M 36.92866,98.025141 C 43.21956,99.62755 52.54035,92.250181 56.16081,86.813101"
       style="fill:none;fill-rule:evenodd;stroke:#000000;stroke-width:1px;stroke-linecap:butt;stroke-linejoin:miter;stroke-opacity:1" />
    <path
       sodipodi:nodetypes="csc"
       id="path2998"
       d="M 52.69664,123.77081 C 48.24846,112.02232 49.33924,105.49434 50.67847,97.899391 C 50.70799,97.731971 52.90319,90.890561 55.1869,88.158491"
       style="fill:none;fill-rule:evenodd;stroke:#000000;stroke-width:1px;stroke-linecap:butt;stroke-linejoin:miter;stroke-opacity:1" />
    <path
       sodipodi:nodetypes="ccc"
       id="path3000"
       d="M 54.29608,125.73983 C 58.56481,119.75386 61.1108,113.34414 63.13595,106.3547 C 64.29157,101.52228 65.57576,95.909721 66.34786,91.137211"
       style="fill:none;fill-rule:evenodd;stroke:#000000;stroke-width:1px;stroke-linecap:butt;stroke-linejoin:miter;stroke-opacity:1" />
    <path
       sodipodi:nodetypes="csc"
       id="path3002"
       d="M 58.80864,133.20191 C 61.41967,127.71882 63.49678,122.98013 65.34121,116.67584 C 67.90408,107.91592 68.44,101.90703 70.7911,92.905121"
       style="fill:none;fill-rule:evenodd;stroke:#000000;stroke-width:1px;stroke-linecap:butt;stroke-linejoin:miter;stroke-opacity:1" />
    <path
       sodipodi:nodetypes="cc"
       id="path3004"
       d="M 62.58269,135.39386 C 65.16235,132.409 69.85072,130.5643 71.1687,130.98853"
       style="fill:none;fill-rule:evenodd;stroke:#000000;stroke-width:1px;stroke-linecap:butt;stroke-linejoin:miter;stroke-opacity:1" />
    <path
       sodipodi:nodetypes="cc"
       id="path3006"
       d="M 85.81125,143.29983 C 88.74055,136.39536 99.483184,132.69729 101.8353,132.92223"
       style="fill:none;fill-rule:evenodd;stroke:#000000;stroke-width:1px;stroke-linecap:butt;stroke-linejoin:miter;stroke-opacity:1" />
    <path
       sodipodi:nodetypes="ccc"
       id="path3008"
       d="M 85.64487,143.00002 C 89.67046,135.90485 92.420584,126.26878 94.422064,118.77342 C 98.565184,103.94132 100.64633,94.918641 100.41848,75.687821"
       style="fill:none;fill-rule:evenodd;stroke:#000000;stroke-width:1px;stroke-linecap:butt;stroke-linejoin:miter;stroke-opacity:1" />
    <path
       sodipodi:nodetypes="cccc"
       id="path3010"
       d="M 96.730444,75.344751 C 96.364904,81.126661 95.912874,84.851491 95.027354,90.175251 C 93.216974,101.63179 90.28724,111.31426 86.98298,121.77253 C 85.78188,124.63016 84.0608,128.471 82.82641,131.31435"
       style="fill:none;fill-rule:evenodd;stroke:#000000;stroke-width:1px;stroke-linecap:butt;stroke-linejoin:miter;stroke-opacity:1" />
    <path
       sodipodi:nodetypes="ccccc"
       id="path3012"
       d="M 82.47638,130.77958 C 81.8939,134.77704 79.18545,137.8281 77.97638,141.59208 L 78.91388,141.84208 C 80.53348,137.73131 82.90548,134.14545 84.01413,129.79956 L 82.47638,130.77958 z"
       style="fill:#000000;fill-opacity:1;fill-rule:evenodd;stroke:none;stroke-width:1px;stroke-linecap:butt;stroke-linejoin:miter;stroke-opacity:1" />
    <path
       sodipodi:nodetypes="cc"
       id="path3016"
       d="M 98.240844,144.755 C 96.739264,141.94786 95.564254,138.20023 94.061254,135.39386"
       style="fill:none;fill-rule:evenodd;stroke:#000000;stroke-width:1px;stroke-linecap:butt;stroke-linejoin:miter;stroke-opacity:1" />
    <path
       sodipodi:nodetypes="cc"
       id="path3018"
       d="M 112.66388,144.87333 C 115.0114,141.78372 116.07728,137.59811 117.35138,134.24833"
       style="fill:none;fill-rule:evenodd;stroke:#000000;stroke-width:1px;stroke-linecap:butt;stroke-linejoin:miter;stroke-opacity:1" />
    <path
       id="path2545"
       d="M 113.01683,98.105501 C 112.80855,97.760772 110.24227,86.132646 109.13402,80.512044 C 108.87989,79.223287 108.77089,78.068643 108.89178,77.946161 C 109.08023,77.755214 123.35202,80.591913 123.76842,80.903081 C 123.85081,80.964679 123.10487,81.931696 122.1107,83.05204 C 118.91827,86.649677 115.74763,92.049909 113.62636,97.502552 C 113.41657,98.04182 113.14228,98.313138 113.01683,98.105501 L 113.01683,98.105501 z"
       style="fill:#ffffff;fill-opacity:1" />
    <path
       sodipodi:nodetypes="cc"
       id="path3020"
       d="M 119.46121,129.80991 C 123.89201,118.01723 127.73684,105.87563 130.69735,93.640331"
       style="fill:none;fill-rule:evenodd;stroke:#000000;stroke-width:1px;stroke-linecap:butt;stroke-linejoin:miter;stroke-opacity:1" />
    <path
       sodipodi:nodetypes="cccc"
       id="path3026"
       d="M 105.88316,132.75369 C 114.38752,132.58553 119.9757,134.29046 124.22102,136.97689 C 118.66988,130.46475 113.51639,119.13607 113.15564,112.07043 C 110.89158,99.0928 116.85717,88.534581 124.51054,80.685831"
       style="fill:none;fill-rule:evenodd;stroke:#000000;stroke-width:1px;stroke-linecap:butt;stroke-linejoin:miter;stroke-opacity:1" />
    <path
       sodipodi:nodetypes="ccc"
       id="path3028"
       d="M 108.67866,77.730941 C 110.04593,85.941231 112.58814,97.093301 115.21128,105.60549 C 115.54962,106.77565 120.51758,122.73193 125.36969,131.20858"
       style="fill:none;fill-rule:evenodd;stroke:#000000;stroke-width:1px;stroke-linecap:butt;stroke-linejoin:miter;stroke-opacity:1" />
    <path
       sodipodi:nodetypes="cc"
       id="path3030"
       d="M 127.85546,125.91756 C 130.22863,123.365 134.13244,105.33441 135.09066,95.491671"
       style="fill:none;fill-rule:evenodd;stroke:#000000;stroke-width:1px;stroke-linecap:butt;stroke-linejoin:miter;stroke-opacity:1" />
    <path
       sodipodi:nodetypes="cc"
       id="path3032"
       d="M 118.44589,128.1417 C 111.00347,119.03915 107.19293,102.84304 105.97439,90.598106"
       style="fill:none;fill-rule:evenodd;stroke:#000000;stroke-width:1px;stroke-linecap:butt;stroke-linejoin:miter;stroke-opacity:1" />
    <path
       sodipodi:nodetypes="cscc"
       id="path3034"
       d="M 85.72178,142.98291 C 83.57934,136.95964 82.10064,130.31715 82.03698,130.12651 C 78.15757,118.51047 77.33237,105.07191 79.87061,93.128691 C 80.86439,85.909291 84.79504,79.239531 89.31883,73.517551"
       style="fill:none;fill-rule:evenodd;stroke:#000000;stroke-width:1px;stroke-linecap:butt;stroke-linejoin:miter;stroke-opacity:1" />
    <path
       sodipodi:nodetypes="cc"
       id="path3036"
       d="M 74.85636,90.109471 C 79.99178,91.282271 76.51506,90.499251 80.43441,91.375171"
       style="fill:none;fill-rule:evenodd;stroke:#000000;stroke-width:1px;stroke-linecap:butt;stroke-linejoin:miter;stroke-opacity:1" />
    <path
       sodipodi:nodetypes="cc"
       id="path3038"
       d="M 75.05106,130.87999 C 77.21334,130.95004 81.88546,130.8359 83.01077,130.82952"
       style="fill:none;fill-rule:evenodd;stroke:#000000;stroke-width:1px;stroke-linecap:butt;stroke-linejoin:miter;stroke-opacity:1" />
    <path
       sodipodi:nodetypes="cc"
       id="path3042"
       d="M 73.76705,69.929821 C 85.42985,61.104941 93.102814,46.721721 101.06385,34.767551"
       style="fill:none;fill-rule:evenodd;stroke:#000000;stroke-width:1px;stroke-linecap:butt;stroke-linejoin:miter;stroke-opacity:1" />
    <path
       sodipodi:nodetypes="cc"
       id="path3046"
       d="M 110.91767,55.819711 C 109.36476,54.923431 106.73594,50.752591 104.72064,45.744541"
       style="fill:none;fill-rule:evenodd;stroke:#000000;stroke-width:0.88441288px;stroke-linecap:butt;stroke-linejoin:miter;stroke-opacity:1" />
    <path
       sodipodi:nodetypes="csc"
       id="path3048"
       d="M 135.74515,70.324421 C 121.65783,62.935891 113.46329,50.360391 105.52362,36.919721 C 105.38419,36.683691 105.02606,36.033321 104.88669,35.796741"
       style="fill:none;fill-rule:evenodd;stroke:#000000;stroke-width:1px;stroke-linecap:butt;stroke-linejoin:miter;stroke-opacity:1" />
    <path
       sodipodi:nodetypes="cc"
       id="path3050"
       d="M 158.72638,121.43583 C 152.4958,114.5663 149.15657,105.51655 147.00763,96.592081"
       style="fill:none;fill-rule:evenodd;stroke:#000000;stroke-width:1px;stroke-linecap:butt;stroke-linejoin:miter;stroke-opacity:1" />
    <path
       sodipodi:nodetypes="cc"
       id="path3052"
       d="M 144.69513,96.592081 C 145.07822,106.81273 147.37795,114.70775 150.44513,124.02958"
       style="fill:none;fill-rule:evenodd;stroke:#000000;stroke-width:1px;stroke-linecap:butt;stroke-linejoin:miter;stroke-opacity:1" />
    <path
       sodipodi:nodetypes="csccccccsssscccsccccscccsssccsccccsccccscssc"
       id="path3237"
       d="M 161.63263,198.34504 C 159.01554,198.20733 156.51,199.00212 154.03888,199.84841 C 150.74406,200.9768 147.51527,202.18234 144.25763,201.66017 C 137.41757,198.81067 129.73732,197.44311 122.68732,200.58083 C 117.77402,203.73359 113.38485,202.27661 109.38263,200.31099 L 109.38263,200.34954 C 103.70245,197.58073 97.380334,198.10753 91.85138,201.08195 L 91.82013,201.08195 C 89.20864,202.7074 86.53596,202.61673 83.75763,201.89146 C 80.99854,201.17121 78.17779,199.82305 75.41388,199.07745 C 75.39349,199.06948 75.37176,199.08527 75.35138,199.07745 C 71.336,197.53665 67.47576,198.95526 63.75763,200.31099 C 60.02063,201.67359 56.40859,202.9309 52.72638,201.39034 L 52.72638,201.42888 C 45.89969,196.77429 37.72539,198.30745 30.94513,201.85291 C 30.94513,201.85291 30.89084,202.37946 30.96183,202.57901 C 31.02212,202.74847 31.32013,203.00936 31.32013,203.00936 C 37.96063,199.53698 45.88978,198.08183 52.35138,202.54678 L 52.38263,202.54678 L 52.41388,202.58533 C 56.44151,204.27041 60.29877,202.86972 64.03888,201.50598 C 67.77899,200.14224 71.40925,198.78982 75.10138,200.23389 L 75.13263,200.27244 L 75.16388,200.27244 C 77.83663,200.98561 80.65156,202.33272 83.53888,203.08645 C 86.41714,203.83781 89.38879,203.97297 92.257634,202.19985 C 92.266754,202.19494 92.279744,202.20474 92.288884,202.19985 C 97.605344,199.34916 103.63877,198.82369 109.03888,201.46743 L 109.07013,201.50598 C 113.44191,203.32228 118.60134,204.79013 123.03888,201.69872 C 123.06881,201.67787 123.10277,201.68144 123.13263,201.66017 C 129.87915,198.70057 137.32652,200.04313 144.03888,202.85516 L 144.10138,202.89371 L 144.13263,202.89371 C 147.66765,203.46035 151.01469,202.16473 154.28888,201.0434 C 157.56307,199.92208 160.75663,198.95505 164.03888,200.00261 L 164.03888,200.04115 L 164.07013,200.04115 C 166.20968,200.55947 168.32855,201.4492 170.53888,202.04565 C 170.53888,202.04565 170.8629,201.72408 170.89711,201.52318 C 170.93418,201.30546 170.72638,200.81212 170.72638,200.81212 C 168.60038,200.23842 166.50615,199.3482 164.28888,198.80762 C 164.27857,198.80432 164.26793,198.81087 164.25763,198.80762 C 163.37473,198.52885 162.49493,198.39041 161.63263,198.34504 z"
       style="fill:#0066b3;fill-opacity:1;fill-rule:evenodd;stroke:none;stroke-width:1px;stroke-linecap:butt;stroke-linejoin:miter;stroke-opacity:1" />
    <path
       sodipodi:nodetypes="csccccccccccccc"
       id="path3239"
       d="M 73.00763,219.12333 C 72.63768,219.40367 72.54877,219.72498 72.84376,219.98797 C 73.79247,220.83372 76.71987,221.47282 78.66252,222.42888 C 81.65293,223.65692 84.79484,224.7059 87.97355,224.27491 C 91.281079,224.45166 94.026064,221.62148 97.262624,221.23484 C 100.85293,220.56576 104.60139,220.05206 108.10549,221.57799 C 110.31694,222.18997 112.20614,224.01478 114.44831,224.37476 C 117.95967,224.98085 121.42546,223.67903 124.59841,221.94147 C 125.50349,221.3297 129.11044,220.35891 126.59604,219.68686 C 124.70361,220.39393 122.99444,221.6935 121.06158,222.33525 C 117.96611,223.55344 114.389,223.93158 111.46394,221.87566 C 107.66504,219.57935 103.27871,218.7696 99.104124,219.71982 C 96.337864,219.94946 93.665284,220.94351 91.150261,222.33307 C 86.76537,224.11699 82.12681,222.60138 77.9024,220.88951 C 76.27774,220.27267 74.65459,219.64599 73.00763,219.12333 z"
       style="fill:#0066b3;fill-opacity:1;fill-rule:evenodd;stroke:none;stroke-width:1px;stroke-linecap:butt;stroke-linejoin:miter;stroke-opacity:1" />
    <path
       sodipodi:nodetypes="csscsscccccczccccccccccccccscscssc"
       id="path3241"
       d="M 130.47638,208.79015 C 127.0786,208.6698 123.93215,210.29397 121.03888,212.01285 C 121.03031,212.01794 121.0162,212.00776 121.00763,212.01285 C 116.01829,213.85226 110.95,211.06069 105.91388,209.45022 C 101.99143,208.14793 97.838054,208.6489 94.163884,210.77036 C 94.154944,210.77553 94.141574,210.76518 94.132634,210.77036 C 89.7008,212.88058 84.74778,212.90643 80.19513,211.31395 L 80.19513,211.35278 C 75.73932,209.35344 70.58552,207.32414 65.82013,210.11029 L 65.78888,210.11029 C 61.997,212.62327 57.31259,213.63428 53.50763,210.92567 L 53.44513,210.88685 L 53.29669,210.98391 C 52.81613,211.29817 53.05136,211.93508 53.07013,212.05168 C 57.25959,214.98744 62.2787,213.87324 66.25763,211.23629 C 70.61017,208.69152 75.4524,210.52854 79.88263,212.51761 L 79.91388,212.51761 C 84.66324,214.1789 89.87015,214.16866 94.538884,211.93519 L 94.538884,211.89637 L 94.570134,211.89637 C 98.041254,209.88333 101.96361,209.42536 105.66388,210.65388 L 105.69513,210.65388 C 110.62068,212.22899 115.88607,215.20166 121.32013,213.17768 L 121.35138,213.17768 L 121.38263,213.13885 C 124.28081,211.41167 127.32686,209.90014 130.50763,210.03264 L 130.53888,210.03264 C 133.14781,209.82154 135.68396,210.9363 138.28888,211.93519 C 140.8938,212.93409 143.60399,213.83339 146.50763,212.98354 C 146.50763,212.98354 146.65758,212.45407 146.60781,212.23897 C 146.56693,212.06224 146.25763,211.74106 146.25763,211.74106 C 143.64218,212.50656 141.14826,211.72016 138.57013,210.73153 C 136.0112,209.75028 133.38572,208.58035 130.53888,208.79015 C 130.51752,208.79173 130.49777,208.78842 130.47638,208.79015 z"
       style="fill:#0066b3;fill-opacity:1;fill-rule:evenodd;stroke:none;stroke-width:1px;stroke-linecap:butt;stroke-linejoin:miter;stroke-opacity:1" />
    <path
       sodipodi:nodetypes="cccc"
       id="path3176"
       d="M 141.60138,96.506831 C 146.16827,96.690721 150.43212,96.791621 154.5956,94.809491 C 155.51686,93.055881 155.10277,91.166441 154.28645,90.755161 C 149.0326,89.650151 146.56916,88.860291 142.07013,87.904581"
       style="fill:none;fill-rule:evenodd;stroke:#000000;stroke-width:1px;stroke-linecap:butt;stroke-linejoin:miter;stroke-opacity:1" />
    <path
       sodipodi:nodetypes="cc"
       id="path3190"
       d="M 124.38263,87.279581 C 125.44513,87.904581 155.04738,94.602801 155.04738,94.602801"
       style="fill:none;fill-rule:evenodd;stroke:#000000;stroke-width:1px;stroke-linecap:butt;stroke-linejoin:miter;stroke-opacity:1" />
    <path
       sodipodi:nodetypes="ccc"
       id="path3192"
       d="M 127.75763,84.920211 L 137.94513,87.123331 L 137.91388,82.904581"
       style="fill:none;fill-rule:evenodd;stroke:#000000;stroke-width:1px;stroke-linecap:butt;stroke-linejoin:miter;stroke-opacity:1" />
    <path
       sodipodi:nodetypes="cc"
       id="path3194"
       d="M 141.97638,88.404581 L 141.91388,82.638961"
       style="fill:none;fill-rule:evenodd;stroke:#000000;stroke-width:1px;stroke-linecap:butt;stroke-linejoin:miter;stroke-opacity:1" />
    <path
       sodipodi:nodetypes="cc"
       id="path3196"
       d="M 144.38263,79.435831 C 144.43083,81.584981 144.43224,83.858761 145.44735,88.490751"
       style="fill:none;fill-rule:evenodd;stroke:#000000;stroke-width:1px;stroke-linecap:butt;stroke-linejoin:miter;stroke-opacity:1" />
    <path
       sodipodi:nodetypes="cc"
       id="path3198"
       d="M 141.82013,82.935831 L 147.82013,74.967081"
       style="fill:none;fill-rule:evenodd;stroke:#000000;stroke-width:1px;stroke-linecap:butt;stroke-linejoin:miter;stroke-opacity:1" />
    <path
       sodipodi:nodetypes="cc"
       id="path3200"
       d="M 129.94513,75.467081 L 137.96076,83.123331"
       style="fill:none;fill-rule:evenodd;stroke:#000000;stroke-width:1px;stroke-linecap:butt;stroke-linejoin:miter;stroke-opacity:1" />
    <path
       sodipodi:nodetypes="ccc"
       id="path3204"
       d="M 137.78888,96.058611 C 133.36356,94.437881 124.62329,92.045251 124.05,87.069561 C 124.95638,85.719871 126.44054,85.119081 127.94513,84.935831"
       style="fill:none;fill-rule:evenodd;stroke:#000000;stroke-width:1px;stroke-linecap:butt;stroke-linejoin:miter;stroke-opacity:1" />
    <path
       sodipodi:nodetypes="cc"
       id="path3210"
       d="M 128.41388,74.967081 L 149.69513,74.818641"
       style="fill:none;fill-rule:evenodd;stroke:#000000;stroke-width:1px;stroke-linecap:butt;stroke-linejoin:miter;stroke-opacity:1" />
    <path
       sodipodi:nodetypes="cc"
       id="path3212"
       d="M 93.969544,59.882531 L 112.37641,59.878621"
       style="fill:none;fill-rule:evenodd;stroke:#000000;stroke-width:1px;stroke-linecap:butt;stroke-linejoin:miter;stroke-opacity:1" />
    <path
       sodipodi:nodetypes="cc"
       id="path3214"
       d="M 111.92342,60.379041 L 111.91237,56.148121"
       style="fill:none;fill-rule:evenodd;stroke:#000000;stroke-width:1px;stroke-linecap:butt;stroke-linejoin:miter;stroke-opacity:1" />
    <path
       sodipodi:nodetypes="ccc"
       id="path3216"
       d="M 112.41011,55.860861 L 93.969544,55.949241 L 93.963064,60.382941"
       style="fill:none;fill-rule:evenodd;stroke:#000000;stroke-width:1px;stroke-linecap:butt;stroke-linejoin:miter;stroke-opacity:1" />
    <path
       sodipodi:nodetypes="ccccc"
       id="path3218"
       d="M 100.83039,44.904581 C 99.231754,50.369371 96.984984,52.483921 94.426824,55.601421 L 95.093384,56.279581 C 97.713554,53.154511 99.891534,51.263671 101.51835,45.570891 L 100.83039,44.904581 z"
       style="fill:#000000;fill-opacity:1;fill-rule:evenodd;stroke:none;stroke-width:1px;stroke-linecap:butt;stroke-linejoin:miter;stroke-opacity:1" />
    <path
       sodipodi:nodetypes="ccccccccc"
       id="path3220"
       d="M 81.32013,28.654581 L 79.82013,29.654581 C 81.12965,30.243481 83.49064,30.797271 84.63263,31.310831 L 84.75763,31.342081 L 84.85138,31.342081 C 90.856285,31.367641 96.468314,30.534171 101.19513,30.435831 L 101.16388,29.468981 C 96.372724,29.568661 90.837812,30.354801 84.97638,30.342081 C 83.70762,29.791421 81.52636,29.467371 81.32013,28.654581 z"
       style="fill:#000000;fill-opacity:1;fill-rule:evenodd;stroke:none;stroke-width:1px;stroke-linecap:butt;stroke-linejoin:miter;stroke-opacity:1" />
    <path
       id="path3224"
       d="M 53.33299,85.537241 L 53.33299,83.857871 L 55.05657,82.973981 L 71.27583,88.100511 L 71.27583,88.100511"
       style="fill:none;fill-rule:evenodd;stroke:#000000;stroke-width:1px;stroke-linecap:butt;stroke-linejoin:miter;stroke-opacity:1" />
    <path
       id="path3228"
       d="M 102.00763,67.060831 L 106.00763,66.998331"
       style="fill:none;fill-rule:evenodd;stroke:#000000;stroke-width:1px;stroke-linecap:butt;stroke-linejoin:miter;stroke-opacity:1" />
    <path
       sodipodi:nodetypes="cc"
       id="path3230"
       d="M 137.89826,82.888951 L 141.63263,82.842081"
       style="fill:none;fill-rule:evenodd;stroke:#000000;stroke-width:1px;stroke-linecap:butt;stroke-linejoin:miter;stroke-opacity:1" />
    <path
       sodipodi:nodetypes="cscccssczcssccc"
       id="path2893"
       d="M 50.69368,170.42574 C 50.69368,170.42574 50.10668,170.44087 49.98108,170.62378 C 49.88158,170.76869 50.03743,171.20699 50.03743,171.20699 C 54.58689,175.07118 59.35801,177.5428 65.00618,179.23824 C 76.85614,183.48958 89.6415,185.43373 102.19368,185.11324 C 113.80378,185.02228 127.05394,183.48474 138.00618,181.83199 C 140.2612,181.49169 142.37804,180.9242 144.34993,180.39449 C 147.96217,179.42411 151.02137,178.07014 153.37727,176.23824 C 153.37727,176.23824 153.42891,175.70737 153.31392,175.55455 C 153.19893,175.40173 152.60384,175.51949 152.60384,175.51949 C 150.38244,177.24681 147.6105,178.48267 144.09993,179.42574 C 142.12726,179.95567 140.06399,180.53384 137.88118,180.86324 C 126.95782,182.51163 113.69146,184.02291 102.16243,184.11324 C 89.73064,184.43065 77.04435,182.47624 65.31868,178.26949 C 59.77814,176.60635 55.14101,174.20318 50.69368,170.42574 z"
       style="fill:#000000;fill-opacity:1;fill-rule:evenodd;stroke:none;stroke-width:1px;stroke-linecap:butt;stroke-linejoin:miter;stroke-opacity:1" />
    <path
       sodipodi:nodetypes="csccsscccscccccssc"
       id="path2905"
       d="M 50.41388,163.62333 C 50.41388,163.62333 49.9834,163.69123 49.86081,163.83406 C 49.72774,163.98909 49.78888,164.40458 49.78888,164.40458 C 51.69551,165.92253 53.76642,167.42841 56.03888,168.52958 C 62.42428,171.25812 68.95464,173.90415 75.78888,175.46708 C 75.79862,175.46931 75.81039,175.46486 75.82013,175.46708 C 83.7119,177.69589 91.909872,177.87529 99.976384,177.96708 L 100.00763,177.96708 C 114.84012,177.41757 136.01784,176.8588 152.07013,168.96708 C 152.07013,168.96708 152.17266,168.51317 152.08353,168.35131 C 152.00206,168.20339 151.60138,168.06083 151.60138,168.06083 C 135.84543,175.80686 114.81715,176.44852 99.976384,176.99833 L 99.976384,176.96708 C 91.907803,176.87527 83.80978,176.68941 76.07013,174.49833 L 76.03888,174.49833 C 69.3074,172.96212 62.85017,170.34649 56.47638,167.62333 C 56.46861,167.61957 56.45289,167.6271 56.44513,167.62333 C 54.29186,166.57639 52.2918,165.11843 50.41388,163.62333 z"
       style="fill:#000000;fill-opacity:1;fill-rule:evenodd;stroke:none;stroke-width:1px;stroke-linecap:butt;stroke-linejoin:miter;stroke-opacity:1" />
    <path
       sodipodi:nodetypes="csccccscscscsc"
       id="path2911"
       d="M 50.28888,155.46708 C 50.28888,155.46708 49.89508,155.54781 49.77963,155.70671 C 49.65832,155.87368 49.72638,156.27958 49.72638,156.27958 C 63.83664,166.24493 81.27779,170.24664 98.226384,171.15458 L 98.257634,171.15458 L 98.288884,171.15458 C 113.42457,170.80092 137.36695,170.09273 150.72638,163.06083 C 151.12799,162.84944 151.53137,162.62837 151.91388,162.40458 C 151.91388,162.40458 152.12782,161.98059 152.04801,161.819 C 151.95542,161.6315 151.41388,161.52958 151.41388,161.52958 C 151.04565,161.74501 150.64618,161.98195 150.25763,162.18583 C 137.35615,168.95532 113.51076,169.68225 98.288884,170.15458 C 98.268324,170.15348 98.246954,170.15569 98.226384,170.15458 C 81.41761,169.24667 64.16774,165.26901 50.28888,155.46708 z"
       style="fill:#000000;fill-opacity:1;fill-rule:evenodd;stroke:none;stroke-width:1px;stroke-linecap:butt;stroke-linejoin:miter;stroke-opacity:1" />
    <path
       sodipodi:nodetypes="cscscssccsccccsc"
       id="path2919"
       d="M 49.25763,147.24833 C 49.25763,147.24833 48.8213,147.33826 48.74795,147.43362 C 48.6338,147.58201 48.63263,148.06083 48.63263,148.06083 C 48.65068,148.07499 48.67713,148.07801 48.69513,148.09208 C 57.10477,154.66769 67.1893,158.63335 77.38263,161.31083 C 87.11099,164.16032 97.264674,165.32691 107.38263,164.99833 C 107.39313,164.99858 107.40338,164.99809 107.41388,164.99833 C 116.73454,165.21388 125.829,163.26634 134.88263,161.77958 C 140.87684,161.03585 146.36845,159.35904 151.47638,156.15458 C 151.47638,156.15458 151.50977,155.71142 151.39324,155.58329 C 151.26768,155.44522 150.78888,155.43583 150.78888,155.43583 C 144.34905,159.17127 139.53988,159.97152 134.72638,160.77958 C 125.63014,162.27334 116.55848,164.21535 107.38263,163.99833 C 97.353874,164.32709 87.26227,163.16266 77.63263,160.34208 C 67.51725,157.68508 57.57771,153.76754 49.32013,147.31083 C 49.30243,147.29699 49.27524,147.26213 49.25763,147.24833 z"
       style="fill:#000000;fill-opacity:1;fill-rule:evenodd;stroke:none;stroke-width:1px;stroke-linecap:butt;stroke-linejoin:miter;stroke-opacity:1" />
    <path
       sodipodi:nodetypes="cscccccccccccc"
       id="path2931"
       d="M 34.63263,120.68583 C 34.63263,120.68583 34.16323,120.59377 34.01581,120.7412 C 33.86182,120.89519 33.94513,121.40458 33.94513,121.40458 C 34.75798,122.16099 35.5743,122.92472 36.38263,123.68583 C 42.87805,130.59845 50.36308,136.5349 58.60138,141.24833 C 72.10514,149.79302 88.20123,153.18661 103.97638,153.37333 C 120.90829,153.73467 137.44856,150.11902 153.94513,147.27958 L 153.78888,146.27958 C 137.26266,149.12412 120.75155,152.73133 103.97638,152.37333 C 88.33667,152.18821 72.40238,148.82097 59.10138,140.40458 L 59.10138,140.37333 C 50.94398,135.70618 43.50176,129.84623 37.07013,122.99833 L 37.07013,122.96708 C 36.26032,122.20457 35.44686,121.44352 34.63263,120.68583 z"
       style="fill:#000000;fill-opacity:1;fill-rule:evenodd;stroke:none;stroke-width:1px;stroke-linecap:butt;stroke-linejoin:miter;stroke-opacity:1" />
    <path
       id="path3158"
       d="M 155.44368,127.92574 C 153.33257,127.92574 152.94368,128.39241 152.94368,130.92574 C 152.94368,133.45907 153.33257,133.92573 155.44368,133.92574 C 157.55479,133.92574 157.94368,133.45907 157.94368,130.92574 C 157.94368,128.39241 157.55479,127.92574 155.44368,127.92574 z"
       style="fill:#000000" />
    <path
       id="path3160"
       d="M 134.44368,131.48824 C 132.33257,131.48824 131.94368,131.95491 131.94368,134.48824 C 131.94368,137.02157 132.33257,137.48823 134.44368,137.48824 C 136.55479,137.48824 136.94368,137.02157 136.94368,134.48824 C 136.94368,131.95491 136.55479,131.48824 134.44368,131.48824 z"
       style="fill:#000000" />
    <path
       sodipodi:nodetypes="csssc"
       id="path3164"
       d="M 87.57319,154.50508 C 85.39782,154.48786 85.37967,154.51093 85.3652,156.89506 C 85.35365,158.81029 85.35685,158.87986 87.63245,158.87986 C 89.78232,158.87986 89.76851,158.80535 89.77337,156.7872 C 89.7788,154.54876 89.71075,154.50507 87.57319,154.50508 z"
       style="fill:#000000" />
    <path
       sodipodi:nodetypes="csssc"
       id="path3166"
       d="M 103.16697,156.00513 C 100.97618,155.98755 100.9579,156.01111 100.94333,158.44631 C 100.9317,160.40256 100.93492,160.47362 103.22665,160.47362 C 105.39175,160.47362 105.37785,160.39752 105.38274,158.33614 C 105.38822,156.04975 105.31968,156.00512 103.16697,156.00513 z"
       style="fill:#000000" />
    <path
       sodipodi:nodetypes="csssc"
       id="path3168"
       d="M 117.10443,155.99027 C 114.99165,155.94214 114.97368,155.96444 114.92561,158.29652 C 114.88707,160.16995 114.88917,160.23805 117.09957,160.27081 C 119.18783,160.30174 119.17547,160.22865 119.20899,158.25445 C 119.24622,156.06476 119.18073,156.02104 117.10443,155.99027 z"
       style="fill:#000000" />
    <path
       sodipodi:nodetypes="csssc"
       id="path3170"
       d="M 130.667,154.4895 C 128.46081,154.47192 128.4424,154.49548 128.42772,156.93068 C 128.41602,158.88693 128.41926,158.95799 130.72711,158.95799 C 132.90745,158.95799 132.89345,158.88189 132.89837,156.82051 C 132.90388,154.53412 132.83487,154.48949 130.667,154.4895 z"
       style="fill:#000000" />
    <path
       sodipodi:nodetypes="csssc"
       id="path3172"
       d="M 145.21371,151.5205 C 143.08459,151.50488 143.06683,151.52581 143.05266,153.68866 C 143.04136,155.42613 143.04449,155.71021 145.27172,155.71021 C 147.37588,155.71021 147.36237,155.42165 147.36712,153.59081 C 147.37244,151.56013 147.30584,151.52049 145.21371,151.5205 z"
       style="fill:#000000" />
    <path
       sodipodi:nodetypes="cc"
       id="path2748"
       d="M 165.18845,139.58672 C 162.55733,152.46844 163.94706,166.44087 163.93638,179.48349"
       style="fill:none;fill-rule:evenodd;stroke:#000000;stroke-width:1px;stroke-linecap:butt;stroke-linejoin:miter;stroke-opacity:1" />
    <path
       sodipodi:nodetypes="csscscscc"
       id="path2742"
       d="M 98.265594,144.83335 C 98.861434,144.81778 114.72924,144.91181 119.70044,144.87002 C 120.31122,144.86489 120.61932,144.03209 121.0172,143.49099 C 123.0658,140.70501 124.9142,136.19068 125.51621,129.7128 C 126.47681,127.02355 128.94599,123.93431 131.49223,123.9055 C 133.75784,123.87986 149.7897,123.82876 151.56161,123.83337 C 158.79387,123.37879 163.3076,118.00427 164.48699,115.80325 C 165.97928,113.01828 176.26675,112.97082 174.23022,120.60635 C 169.30824,128.93692 166.80442,132.45781 165.18845,140.02866"
       style="fill:none;fill-rule:evenodd;stroke:#000000;stroke-width:1px;stroke-linecap:butt;stroke-linejoin:miter;stroke-opacity:1" />
    <path
       id="path3154"
       d="M 144.90371,130.56878 C 142.7926,130.56878 142.40371,131.03545 142.40371,133.56878 C 142.40371,136.10211 142.7926,136.56877 144.90371,136.56878 C 147.01482,136.56878 147.40371,136.10211 147.40371,133.56878 C 147.40371,131.03545 147.01482,130.56878 144.90371,130.56878 z"
       style="fill:#000000" />
    <path
       sodipodi:nodetypes="cscccscccccsssscccccsscccccccccssssssccsscsccscccccccccccccccccsssccc"
       id="path2714"
       d="M 43.89871,139.18139 C 43.89821,139.3153 44.16292,139.89066 44.16252,140.02359 C 44.13987,147.44577 44.26877,153.35117 44.22638,160.43583 C 43.90674,166.78946 44.24655,173.06891 47.57013,178.52958 L 47.60138,178.52958 C 50.91272,183.2637 54.84806,186.04362 59.25763,187.59208 C 61.53545,188.39196 63.94126,188.84799 66.44513,189.12333 L 66.44513,189.15458 C 68.57776,189.45278 70.75404,189.58901 72.94513,189.43583 C 73.21314,189.43728 73.45651,189.46769 73.72638,189.46708 L 73.72638,189.37333 C 74.12156,189.32744 74.51851,189.35677 74.91388,189.27958 C 74.92412,189.27977 74.93489,189.27935 74.94513,189.27958 C 76.59623,189.3172 78.20195,189.92822 79.85138,190.52958 C 81.48335,191.12457 83.18533,191.70116 85.07013,191.62333 C 85.10211,191.62201 85.13179,191.62504 85.16388,191.62333 C 89.47502,192.08502 93.583204,190.71659 97.476384,189.40458 C 100.59606,188.46703 103.97061,188.52897 106.94513,189.84208 L 106.97638,189.87333 L 107.00763,189.87333 C 112.38481,191.59842 118.4559,192.75244 124.00763,190.49833 C 124.01732,190.49511 124.02918,190.50154 124.03888,190.49833 C 127.70275,189.2847 131.6445,188.74185 135.35138,189.74833 L 135.38263,189.74833 L 135.41388,189.74833 C 136.90971,189.9636 138.3894,190.3105 139.91388,190.59208 L 139.91388,190.52958 L 140.00763,190.65458 L 150.53888,184.18583 L 150.57013,184.15458 L 159.60138,180.02958 C 159.60894,180.05045 159.59077,180.07309 159.60138,180.09208 C 159.69687,180.263 159.8005,180.30665 159.88263,180.34208 C 159.96476,180.37751 160.03272,180.39148 160.10138,180.40458 C 160.2387,180.43078 160.37556,180.4287 160.53888,180.43583 C 161.19215,180.46434 162.17515,180.41269 163.00763,180.43583 C 163.56765,180.4514 164.01456,180.17468 164.25763,179.90458 C 164.5007,179.63448 164.40781,179.42955 164.4295,179.41239 L 164.03888,178.62333 C 163.73259,178.86565 163.63761,179.10389 163.50763,179.24833 C 163.37765,179.39277 163.31345,179.44346 163.03888,179.43583 C 162.3321,179.41618 161.67249,179.43731 161.10138,179.43583 C 159.30904,174.49551 157.34509,167.6891 157.16388,159.77958 C 157.04474,154.57957 157.67843,148.12532 160.293,142.34614 L 159.10138,142.74833 C 156.40037,148.71859 156.04332,154.54854 156.16388,159.81083 C 156.33846,167.43077 158.15509,173.88509 159.88263,178.81083 L 159.53888,178.96708 L 150.10138,183.27958 L 150.07013,183.27958 L 150.07013,183.31083 L 139.88263,189.56083 C 138.45475,189.29178 137.01355,188.96056 135.53888,188.74833 L 135.53888,188.77958 C 131.57847,187.72166 127.46488,188.30803 123.69513,189.56083 L 123.66388,189.56083 C 118.18922,191.41096 112.8158,190.83136 107.50763,188.68583 C 104.2952,187.27646 100.22806,187.25233 96.913884,188.24833 C 92.994284,189.56924 89.25804,191.08375 85.19513,190.62333 L 85.13263,190.62333 L 85.10138,190.62333 C 83.42113,190.71293 81.84322,190.19295 80.19513,189.59208 C 77.28822,188.71933 75.2395,188.3698 72.75763,188.43583 C 67.98738,188.39902 63.52976,188.04504 59.57013,186.65458 C 55.34008,185.16916 51.61375,182.56474 48.41388,177.99833 C 48.40884,177.99005 48.4189,177.97536 48.41388,177.96708 C 45.26589,172.77753 44.91068,166.7423 45.22638,160.46708 C 45.29035,153.79649 45.106,147.39771 45.29375,140.02958 C 45.24465,139.15764 44.51019,138.06389 43.89871,139.18139 z"
       style="fill:#000000;fill-opacity:1;fill-rule:evenodd;stroke:none;stroke-width:1px;stroke-linecap:butt;stroke-linejoin:miter;stroke-opacity:1" />
    <path
       sodipodi:nodetypes="csssc"
       id="path3150"
       d="M 59.64111,145.53767 C 57.41949,145.52095 57.40096,145.54336 57.38617,147.8594 C 57.37439,149.71994 57.37765,149.78752 59.70163,149.78752 C 61.8972,149.78752 61.8831,149.71514 61.88806,147.75462 C 61.89361,145.58011 61.82411,145.53766 59.64111,145.53767 z"
       style="fill:#000000" />
    <path
       sodipodi:nodetypes="csssc"
       id="path3162"
       d="M 72.7766,151.55183 C 70.46249,151.53559 70.44319,151.55735 70.42779,153.80531 C 70.41551,155.61115 70.41891,156.11424 72.83964,156.11424 C 75.12662,156.11424 75.11194,155.60649 75.1171,153.70361 C 75.12288,151.59302 75.05049,151.55182 72.7766,151.55183 z"
       style="fill:#000000" />
    <path
       sodipodi:nodetypes="cccss"
       id="path2716"
       d="M 44.56137,139.31272 C 32.39755,130.70297 19.85192,104.81405 33.80256,112.34574 C 42.42987,118.59306 50.73191,128.73982 56.11776,131.85595 C 67.91117,140.00404 82.9504,143.65474 97.247984,144.74641 C 97.602564,144.77348 97.978954,144.80997 98.332894,144.8338"
       style="fill:none;fill-rule:evenodd;stroke:#000000;stroke-width:1px;stroke-linecap:butt;stroke-linejoin:miter;stroke-opacity:1" />
    <path
       sodipodi:nodetypes="cc"
       id="path2499"
       d="M 77.66388,81.592081 C 78.15411,84.095471 78.74475,86.663411 80.38263,89.904581"
       style="fill:none;fill-rule:evenodd;stroke:#000000;stroke-width:1px;stroke-linecap:butt;stroke-linejoin:miter;stroke-opacity:1" />
    <path
       sodipodi:nodetypes="cc"
       id="path2515"
       d="M 132.85138,85.967081 C 133.64072,83.568721 134.12055,81.696521 134.50227,79.950341"
       style="fill:none;fill-rule:evenodd;stroke:#000000;stroke-width:1px;stroke-linecap:butt;stroke-linejoin:miter;stroke-opacity:1" />
    <path
       sodipodi:nodetypes="ccsccccczccccccccz"
       id="path3235"
       d="M 101.41166,187.28302 C 96.674714,187.49432 88.94089,193.40726 82.15119,190.50435 C 75.41931,187.74643 68.15456,187.04608 60.67002,190.45393 C 52.54825,194.15193 43.69964,184.17473 35.54467,189.41359 C 29.11728,191.95318 22.03099,191.269 15.83085,188.04898 C 16.67129,191.88473 23.587,191.70172 26.98072,192.23946 C 31.52487,192.71625 35.74618,190.30738 40.0386,189.13379 C 47.79177,188.62425 55.41473,195.76221 62.96658,190.79816 C 68.43946,187.94194 74.37417,188.34901 80.80414,191.00939 C 87.23412,193.66978 93.866374,190.64385 99.989174,188.6427 C 106.79721,187.75249 113.00691,193.92368 119.93266,192.01812 C 126.62269,189.295 134.04177,187.73123 140.7539,191.46418 C 149.6036,196.37409 158.70078,184.34837 167.38461,190.48012 C 172.30281,193.51916 183.19311,195.11933 185.04961,188.60539 C 178.76811,194.68012 170.74533,190.85106 164.22262,187.72551 C 156.17927,185.52115 147.79381,195.34124 139.9691,190.22054 C 133.55302,187.10392 127.86379,188.54181 120.2996,190.71185 C 111.93896,192.76563 106.14861,187.07171 101.41166,187.28302 z"
       style="fill:#0066b3;fill-opacity:1;fill-rule:evenodd;stroke:none;stroke-width:1px;stroke-linecap:butt;stroke-linejoin:miter;stroke-opacity:1" />
  </g>
</svg>
