<?xml version="1.0" encoding="UTF-8" standalone="no"?>
<!-- Creator: CorelDRAW -->

<svg
   xmlns:dc="http://purl.org/dc/elements/1.1/"
   xmlns:cc="http://creativecommons.org/ns#"
   xmlns:rdf="http://www.w3.org/1999/02/22-rdf-syntax-ns#"
   xmlns:svg="http://www.w3.org/2000/svg"
   xmlns="http://www.w3.org/2000/svg"
   xmlns:sodipodi="http://sodipodi.sourceforge.net/DTD/sodipodi-0.dtd"
   xmlns:inkscape="http://www.inkscape.org/namespaces/inkscape"
   xml:space="preserve"
   width="300"
   height="356"
   style="fill-rule:evenodd"
   viewBox="0 0 84.666667 100.47111"
   id="svg2"
   version="1.1"
   inkscape:version="0.48.1 "
   sodipodi:docname="барань.svg"><metadata
   id="metadata44"><rdf:RDF><cc:Work
       rdf:about=""><dc:format>image/svg+xml</dc:format><dc:type
         rdf:resource="http://purl.org/dc/dcmitype/StillImage" /></cc:Work></rdf:RDF></metadata><sodipodi:namedview
   pagecolor="#ffffff"
   bordercolor="#666666"
   borderopacity="1"
   objecttolerance="10"
   gridtolerance="10"
   guidetolerance="10"
   inkscape:pageopacity="0"
   inkscape:pageshadow="2"
   inkscape:window-width="1280"
   inkscape:window-height="750"
   id="namedview42"
   showgrid="false"
   fit-margin-top="0"
   fit-margin-left="0"
   fit-margin-right="0"
   fit-margin-bottom="0"
   inkscape:zoom="1.491573"
   inkscape:cx="150"
   inkscape:cy="178"
   inkscape:window-x="-8"
   inkscape:window-y="-8"
   inkscape:window-maximized="1"
   inkscape:current-layer="svg2" />
 <defs
   id="defs4"><style
     type="text/css"
     id="style6">
   
    .fil0 {fill:black}
    .fil1 {fill:#3C82C2}
    .fil6 {fill:white}
    .fil2 {fill:black;fill-rule:nonzero}
    .fil5 {fill:#383431;fill-rule:nonzero}
    .fil7 {fill:#996633;fill-rule:nonzero}
    .fil3 {fill:#F8E73D;fill-rule:nonzero}
    .fil4 {fill:white;fill-rule:nonzero}
   
  </style><style
     id="style3041"
     type="text/css">
   
    .str0 {stroke:#FF6600;stroke-width:0.7056}
    .fil1 {fill:none}
    .fil0 {fill:#A90000}
   
  </style></defs>
 <path
   style="fill:#a90000"
   inkscape:connector-curvature="0"
   class="fil0"
   d="m 62.583333,47.985655 c 0.8283,0 1.5,0.6717 1.5,1.5 l 0,1.4998 c 0,0.8283 -0.6717,1.5 -1.5,1.5 l -1.5,0 0,-4.4998 1.5,0 z m 0,5.9998 c 1.6566,0 3,-1.3434 3,-3 l 0,-1.4998 c 0,-1.6566 -1.3434,-3 -3,-3 l -3,0 0,7.4998 3,0 z m -6,-7.4998 1.5,0 0,7.4998 -1.5,0 0,-7.4998 z m -3,0 1.5,0 0,7.4998 -1.5,0 -3,-4.7086 0,4.7086 -1.5,0 0,-7.4998 1.5,0 3,4.7086 0,-4.7086 z m -22.5,10e-5 4.5,0 0,1.5 -3,0 0,1.4999 3,0 0,1.5 -3,0 0,1.4999 3,0 0,1.5 -4.5,0 0,-7.4998 z m -6,-2e-4 1.5,0 0,6 3,0 0,1.5 -4.5,0 0,-7.5 z m 15.7504,6 1.4996,0 c 1.2424,0 2.25,-1.0076 2.25,-2.25 0,-1.2424 -1.0263,-2.2457 -2.25,-2.25 l -1.4996,0 0,1.5 1.4996,0 c 0.4141,0 0.75,0.3359 0.75,0.75 0,0.4141 -0.3359,0.75 -0.75,0.75 l -1.4996,0 0,1.5 z m 1.4996,-7.5 c 2.899,0 5.25,2.351 5.25,5.25 0,2.899 -2.351,5.25 -5.25,5.25 -2.899,0 -5.25,-2.351 -5.25,-5.25 0,-2.899 2.351,-5.25 5.25,-5.25 z m 0,1.5 c 2.0707,0 3.75,1.6793 3.75,3.75 0,2.0707 -1.6793,3.75 -3.75,3.75 -2.0707,0 -3.75,-1.6793 -3.75,-3.75 0,-2.0707 1.6793,-3.75 3.75,-3.75 z"
   id="path3045" /><g
   id="Слой_x0020_1"
   transform="matrix(1.8141018,0,0,1.8168441,-148.1479,-219.56543)">
  <metadata
   id="CorelCorpID_0Corel-Layer" />
  <path
   class="fil0"
   d="m 128.336,152.814 c 0,12.8857 -10.4499,23.3357 -23.3357,23.3357 -12.8858,0 -23.3357,-10.4499 -23.3357,-23.3357 l 0,-31.9641 46.6714,0 0,31.9641 z"
   id="path10"
   inkscape:connector-curvature="0"
   style="fill:#000000" />
  <path
   class="fil1"
   d="m 128.022,152.814 0,-31.6504 -46.0438,0 0,31.6504 c 0,12.7124 10.3095,23.022 23.0219,23.022 12.7124,0 23.0219,-10.3096 23.0219,-23.022 z"
   id="path12"
   inkscape:connector-curvature="0"
   style="fill:#3c82c2" />
  <path
   class="fil2"
   d="m 112.268,161.464 0,13.1989 c -2.285,0.7601 -4.7284,1.1729 -7.2683,1.1729 -2.5397,0 -4.9828,-0.4128 -7.2677,-1.1727 l 1e-4,-13.1982 -15.7543,-9.0959 0,-16.7846 23.0222,13.292 23.0216,-13.2916 0,16.7839 -15.7536,9.0953 z"
   id="path14"
   inkscape:connector-curvature="0"
   style="fill:#000000;fill-rule:nonzero" />
  <path
   class="fil3"
   d="m 112.018,174.745 0,-13.4237 16.0036,-9.2396 0,-16.2091 -23.0221,13.2918 -23.0217,-13.2916 0,16.2086 16.0034,9.2396 -2e-4,13.4238 c 2.2131,0.708 4.571,1.0914 7.0187,1.0914 2.4475,0 4.8053,-0.3834 7.0183,-1.0912 z"
   id="path16"
   inkscape:connector-curvature="0"
   style="fill:#f8e73d;fill-rule:nonzero" />
  <path
   class="fil2"
   d="m 102.909,135.76 c -2.638,0.0191 -6.0536,0.6152 -7.963,2.6846 l -0.0012,0.001 -8e-4,9e-4 -1e-4,-10e-5 -6e-4,7e-4 -10e-5,-1e-4 c -0.0325,0.0359 -0.0844,0.0509 -0.133,0.0342 -0.065,-0.0223 -0.0995,-0.0932 -0.0772,-0.1582 0.5151,-1.4859 0.7391,-3.0827 0.7392,-4.6511 l -5e-4,0 0,-0.004 c 0,-1.57 -0.2214,-3.1612 -0.7365,-4.6486 -0.0187,-0.0466 -0.0081,-0.1025 0.031,-0.1386 0.0506,-0.0466 0.1297,-0.0433 0.1763,0.007 1.8877,2.0513 5.319,2.67 7.966,2.689 -0.0191,-2.6377 -0.6156,-6.0546 -2.6853,-7.9635 l -8e-4,-7e-4 -9e-4,-8e-4 10e-5,-1e-4 -7e-4,-6e-4 2e-4,-2e-4 c -0.0357,-0.0324 -0.051,-0.0844 -0.0343,-0.1329 0.0223,-0.065 0.0932,-0.0995 0.1582,-0.0772 1.4361,0.4978 2.9751,0.723 4.4913,0.7384 1.6244,0.0152 3.2731,-0.2032 4.8122,-0.7362 0.0466,-0.0187 0.1025,-0.008 0.1386,0.031 0.0466,0.0506 0.0433,0.1297 -0.007,0.1763 -2.037,1.8742 -2.6703,5.3841 -2.689,7.9665 2.6376,-0.0191 6.0546,-0.6162 7.9635,-2.6858 l 7e-4,-8e-4 8e-4,-9e-4 1e-4,1e-4 6e-4,-7e-4 2e-4,2e-4 c 0.0324,-0.0357 0.0844,-0.051 0.1329,-0.0343 0.065,0.0223 0.0995,0.0932 0.0772,0.1582 -0.515,1.4859 -0.7391,3.0826 -0.7392,4.6511 l 5e-4,0 0,0.004 c 0,1.5713 0.2218,3.1634 0.7377,4.6519 l -10e-5,0 6e-4,10e-4 7e-4,0.002 3e-4,9e-4 c 0.015,0.0451 0.003,0.0966 -0.0337,0.1309 -0.0506,0.0466 -0.1297,0.0433 -0.1763,-0.007 -1.8531,-2.014 -5.3598,-2.6699 -7.966,-2.6888 0.019,2.6361 0.6153,6.056 2.6854,7.9635 l 7e-4,5e-4 9e-4,8e-4 -1e-4,1e-4 7e-4,6e-4 -3e-4,3e-4 c 0.0358,0.0325 0.0511,0.0842 0.0344,0.1328 -0.0223,0.065 -0.0932,0.0995 -0.1582,0.0772 -1.4856,-0.5153 -3.083,-0.7391 -4.6511,-0.7392 l 0,5e-4 -0.004,0 c -1.5686,0 -3.1576,0.2214 -4.6434,0.7349 -0.0478,0.0218 -0.1063,0.0113 -0.1438,-0.0294 -0.0466,-0.0506 -0.0433,-0.1297 0.007,-0.1763 2.0365,-1.8747 2.6704,-5.3831 2.689,-7.9658 z"
   id="path18"
   inkscape:connector-curvature="0"
   style="fill:#000000;fill-rule:nonzero" />
  <path
   class="fil4"
   d="m 103.159,135.634 0,0.002 -5e-4,0.0102 c -0.002,2.6051 -0.5855,5.8552 -2.4094,7.897 1.3765,-0.4107 2.8154,-0.5969 4.2509,-0.5969 l 0.004,0 0,5e-4 c 1.4309,3e-4 2.8745,0.1837 4.2471,0.5963 -1.8449,-2.0619 -2.4099,-5.253 -2.4099,-7.909 0,-0.069 0.056,-0.125 0.125,-0.125 l 0.002,0 0,1e-4 0.007,4e-4 c 2.6015,0.001 5.8861,0.6109 7.8999,2.4099 -0.4045,-1.381 -0.5964,-2.8117 -0.5964,-4.2514 l 0,-0.004 5e-4,0 c 3e-4,-1.4303 0.1836,-2.875 0.596,-4.2473 -2.0634,1.8446 -5.2509,2.4095 -7.9087,2.4096 -0.0687,0 -0.1245,-0.0558 -0.1245,-0.1245 l -5e-4,0 0,-0.002 5e-4,0 0,-0.001 c 4e-4,-2.6076 0.5833,-5.8618 2.4093,-7.9056 -1.4333,0.4221 -2.923,0.6088 -4.417,0.5951 -1.3767,-0.0141 -2.7643,-0.1984 -4.0849,-0.5952 1.8446,2.0634 2.4101,5.2508 2.4101,7.9087 0,0.069 -0.056,0.125 -0.125,0.125 l -0.002,0 -0.01,-5e-4 c -2.6509,-0.002 -5.8469,-0.5777 -7.8969,-2.4093 0.4062,1.3795 0.5964,2.8125 0.5964,4.2508 l 0,0.004 -5e-4,0 c -3e-4,1.4304 -0.1837,2.8753 -0.596,4.2477 2.0638,-1.845 5.2499,-2.4105 7.9087,-2.4105 0.069,0 0.125,0.056 0.125,0.125 z"
   id="path20"
   inkscape:connector-curvature="0"
   style="fill:#ffffff;fill-rule:nonzero" />
  <path
   class="fil0"
   d="m 99.8785,152.505 c 0.2685,1.2292 1.101,1.8176 2.1639,2.4963 2.658,1.6961 4.7547,1.4721 7.2076,-0.4516 1.4326,-1.1236 2.9376,-1.8615 4.5869,-1.8298 l 0.1697,-0.3547 c 0.9782,0.148 1.0886,1.7309 0.0627,2.0209 l -0.1809,-0.3315 c -1.5973,0.0723 -2.838,1.5584 -3.9609,2.6572 -3.5443,3.4684 -7.3593,3.7004 -10.8603,1.2855 -0.8171,-0.5636 -1.6733,-1.2816 -2.7414,-1.2138 -1.3964,0.337 -2.1564,-0.6054 -1.8595,-1.9808 0.3268,-1.513 1.7574,-3.1375 3.2414,-3.6317 0.68,-0.2263 1.306,-0.1843 1.72,0.1804 l 1e-4,-2e-4 0.0013,0.001 0.0019,0.002 c 0.1204,0.1069 0.2162,0.2354 0.2877,0.381 0.1172,0.2387 0.161,0.5058 0.1598,0.7698 z"
   id="path22"
   inkscape:connector-curvature="0"
   style="fill:#000000" />
  <path
   class="fil4"
   d="m 112.952,153.993 c 0.2759,-0.0995 0.5639,-0.1641 0.8653,-0.1837 -0.0775,-0.2726 -0.0918,-0.5608 -0.0408,-0.8408 -0.3236,-0.003 -0.6417,0.026 -0.955,0.0823 -0.0225,0.1364 -0.0269,0.2745 -0.0141,0.4112 0.0172,0.1828 0.0655,0.3627 0.1446,0.531 z m -2.894,2.2361 0.1404,-0.1412 0.183,-0.1848 c -0.0945,-0.3377 -0.2747,-0.6396 -0.5159,-0.8809 -0.1222,-0.1223 -0.2605,-0.2291 -0.4108,-0.3169 l -0.0518,0.0407 c -0.1081,0.0848 -0.2158,0.1661 -0.3228,0.2445 0.1546,0.0942 0.2971,0.2067 0.4244,0.334 0.2504,0.2504 0.4422,0.5593 0.5535,0.9046 z m 0.5221,-0.5245 c 0.1077,-0.1067 0.2169,-0.2132 0.3277,-0.3181 -0.0972,-0.3221 -0.2727,-0.6102 -0.5046,-0.8422 -0.1048,-0.1049 -0.2215,-0.1986 -0.3474,-0.2784 -0.1301,0.089 -0.2595,0.1817 -0.3883,0.2776 0.1355,0.0875 0.2613,0.1893 0.3748,0.3029 0.2391,0.2391 0.4246,0.5316 0.5378,0.8582 z m -11.7179,1.8446 c 0.1423,0.1014 0.2845,0.2012 0.4286,0.2989 1.2145,-0.4724 2.0792,-1.6062 2.2244,-2.8923 -0.1487,-0.0992 -0.2919,-0.1987 -0.4284,-0.3008 -0.1931,1.2688 -1.0427,2.3796 -2.2246,2.8942 z m 0.6804,0.4642 c 0.1567,0.0998 0.314,0.1942 0.4717,0.2829 1.1973,-0.4945 2.0374,-1.6324 2.1625,-2.919 -0.089,-0.0532 -0.1784,-0.1084 -0.2686,-0.166 l -0.1613,-0.1036 c -0.0202,0.1377 -0.0478,0.2736 -0.0827,0.4068 -0.2875,1.0969 -1.0612,2.0284 -2.1216,2.4989 z m -4.8325,-3.1579 c -0.2932,1.3581 0.5068,2.0647 1.818,1.6087 1.3708,-0.4768 2.714,-1.9886 3.0344,-3.4042 0.2666,-1.1772 -0.3045,-2.0525 -1.6055,-1.7062 -1.4765,0.3928 -2.9306,2.037 -3.2469,3.5017 z"
   id="path24"
   inkscape:connector-curvature="0"
   style="fill:#ffffff;fill-rule:nonzero" />
  <path
   class="fil2"
   d="m 97.6454,152.041 c 1.0339,-0.4672 1.6581,0.0814 1.3196,1.1676 -0.3202,1.0278 -1.3499,2.1914 -2.3308,2.6346 -0.4701,0.2123 -1.1417,0.2883 -1.3534,-0.2555 l 0,-5e-4 c -0.037,-0.0952 -0.057,-0.2033 -0.0602,-0.3214 -0.033,-1.2055 1.3571,-2.7427 2.4248,-3.2248 z"
   id="path26"
   inkscape:connector-curvature="0"
   style="fill:#000000;fill-rule:nonzero" />
  <path
   class="fil5"
   d="m 98.7268,153.134 c 0.2737,-0.8787 -0.1436,-1.2432 -0.9788,-0.8658 -0.934,0.4217 -1.9378,1.5543 -2.2143,2.5416 -0.2052,0.7321 0.1492,1.1886 0.9979,0.8054 0.9544,-0.4313 1.8836,-1.4813 2.1952,-2.4812 z m 1.5649,5.3124 c 2.1189,1.102 4.3276,1.2157 6.4944,0.2082 0.4975,-0.2313 0.9932,-0.5213 1.4849,-0.8713 0.4945,-0.3519 0.9864,-0.7653 1.4735,-1.241 l 0.008,-0.008 0.1045,-0.1033 c -0.0902,-0.3578 -0.2761,-0.6775 -0.5291,-0.9305 -0.1383,-0.1384 -0.297,-0.2569 -0.4707,-0.3505 -1.0633,0.7398 -2.0771,1.1567 -3.1167,1.2321 -1.0672,0.0775 -2.1498,-0.2056 -3.3275,-0.8677 -0.0757,0.5921 -0.2907,1.1513 -0.6171,1.6349 -0.3712,0.55 -0.8866,1.0028 -1.5044,1.2971 z m -0.4865,-5.3345 c -0.1563,0.689 -0.5576,1.4577 -1.1703,2.1507 l -0.0013,0.002 -9e-4,0.001 c -0.5258,0.594 -1.125,1.04 -1.7026,1.3054 0.624,0.1151 1.1719,0.4504 1.6898,0.8086 1.2236,-0.4696 2.0948,-1.6087 2.2396,-2.902 -0.4526,-0.3716 -0.8309,-0.8179 -1.0543,-1.3652 z m 11.3037,2.0886 c 0.4964,-0.451 1.0274,-0.8578 1.6116,-1.1147 -0.0875,-0.1906 -0.1413,-0.3937 -0.1607,-0.6002 l 0,-5e-4 c -0.0119,-0.1266 -0.0111,-0.2541 0.003,-0.381 -0.3281,0.0754 -0.6507,0.1809 -0.9688,0.3129 -0.4461,0.1851 -0.8834,0.4217 -1.3132,0.6997 0.1069,0.0753 0.2073,0.1598 0.2994,0.252 0.2326,0.2327 0.4145,0.5158 0.5285,0.8318 z m 3.1011,-1.1094 c 0.2369,-0.1594 0.3459,-0.4888 0.3298,-0.7665 -0.0146,-0.2517 -0.152,-0.5332 -0.3785,-0.6612 -0.1212,0.2158 -0.1705,0.4284 -0.1646,0.6759 0.006,0.2603 0.0731,0.5307 0.2133,0.7518 z"
   id="path28"
   inkscape:connector-curvature="0"
   style="fill:#383431;fill-rule:nonzero" />
  <path
   class="fil0"
   d="m 109.048,153.594 c 0.1636,0 0.2965,0.1328 0.2965,0.2964 0,0.1636 -0.1329,0.2965 -0.2965,0.2965 -0.1636,0 -0.2965,-0.1329 -0.2965,-0.2965 0,-0.1636 0.1329,-0.2964 0.2965,-0.2964 z m 0,-0.5291 c 0.4559,0 0.8255,0.3697 0.8255,0.8255 0,0.4559 -0.3696,0.8255 -0.8255,0.8255 -0.4558,0 -0.8255,-0.3696 -0.8255,-0.8255 0,-0.4558 0.3697,-0.8255 0.8255,-0.8255 z"
   id="path30"
   inkscape:connector-curvature="0"
   style="fill:#000000" />
  <path
   class="fil6"
   d="m 109.048,153.417 c 0.2615,0 0.4735,0.2122 0.4735,0.4735 0,0.2615 -0.212,0.4735 -0.4735,0.4735 -0.2613,0 -0.4735,-0.212 -0.4735,-0.4735 0,-0.2613 0.2122,-0.4735 0.4735,-0.4735 z m 0,-0.1755 c 0.3584,0 0.649,0.2906 0.649,0.649 0,0.3584 -0.2906,0.649 -0.649,0.649 -0.3584,0 -0.649,-0.2906 -0.649,-0.649 0,-0.3584 0.2906,-0.649 0.649,-0.649 z"
   id="path32"
   inkscape:connector-curvature="0"
   style="fill:#ffffff" />
  <path
   class="fil0"
   d="m 102.104,153.928 c 0.1636,0 0.2965,0.1328 0.2965,0.2964 0,0.1636 -0.1329,0.2965 -0.2965,0.2965 -0.1636,0 -0.2965,-0.1329 -0.2965,-0.2965 0,-0.1636 0.1329,-0.2964 0.2965,-0.2964 z m 0,-0.5291 c 0.4559,0 0.8255,0.3697 0.8255,0.8255 0,0.4559 -0.3696,0.8255 -0.8255,0.8255 -0.4558,0 -0.8255,-0.3696 -0.8255,-0.8255 0,-0.4558 0.3697,-0.8255 0.8255,-0.8255 z"
   id="path34"
   inkscape:connector-curvature="0"
   style="fill:#000000" />
  <path
   class="fil6"
   d="m 102.104,153.751 c 0.2615,0 0.4735,0.2122 0.4735,0.4735 0,0.2615 -0.212,0.4735 -0.4735,0.4735 -0.2613,0 -0.4735,-0.212 -0.4735,-0.4735 0,-0.2613 0.2122,-0.4735 0.4735,-0.4735 z m 0,-0.1755 c 0.3584,0 0.649,0.2906 0.649,0.649 0,0.3584 -0.2906,0.649 -0.649,0.649 -0.3584,0 -0.649,-0.2906 -0.649,-0.649 0,-0.3584 0.2906,-0.649 0.649,-0.649 z"
   id="path36"
   inkscape:connector-curvature="0"
   style="fill:#ffffff" />
  <path
   class="fil2"
   d="m 107.816,154.603 -0.003,0 0,-5e-4 c -0.4322,-2e-4 -0.8655,-0.0606 -1.2868,-0.1547 l -4e-4,0 c -0.3151,-0.0707 -0.6362,-0.1662 -0.9419,-0.286 -0.6929,0.3021 -1.4634,0.5095 -2.2161,0.5493 -0.4345,0.023 -0.8756,0.0129 -1.3095,-0.008 l 0.0447,-0.9518 c 0.4101,0.0199 0.8278,0.0325 1.2386,0.008 0.3877,-0.0228 0.7728,-0.1009 1.1454,-0.2079 -0.0838,-0.0661 -0.1647,-0.1362 -0.2406,-0.2113 l 3e-4,-3e-4 c -0.5405,-0.5341 -0.7467,-1.2241 -0.5553,-1.9189 0.0146,-0.0528 0.0318,-0.1055 0.051,-0.1574 l -5e-4,-2e-4 c 0.2815,-0.7594 1.0266,-1.2654 1.8166,-1.2654 l 0.002,0 7e-4,0 c 0.763,-6e-4 1.483,0.4699 1.7854,1.1852 0.0218,0.0519 0.0413,0.1036 0.0579,0.1549 l 2e-4,0 c 0.2608,0.8041 -0.0826,1.6334 -0.7218,2.1675 0.37,0.0869 0.7527,0.1418 1.1332,0.1418 l 0.0182,0 0,4e-4 c 0.3821,-8e-4 0.7196,-0.0842 1.0762,-0.2163 l 0.3285,0.8961 c -0.4616,0.1708 -0.9316,0.2754 -1.4229,0.2754 z m -2.2439,-1.4895 c 0.558,-0.3111 1.2043,-0.8482 0.8946,-1.5644 -0.1548,-0.3596 -0.5102,-0.5961 -0.9056,-0.5955 l -7e-4,0 -0.002,0 c -0.4204,0 -0.803,0.2748 -0.9355,0.6762 -0.2231,0.6754 0.3584,1.1863 0.9487,1.4837 z"
   id="path38"
   inkscape:connector-curvature="0"
   style="fill:#000000;fill-rule:nonzero" />
  <path
   class="fil7"
   d="m 104.376,151.585 c 0.1558,-0.5243 0.6551,-0.8829 1.1834,-0.8825 0.4888,-7e-4 0.9412,0.2941 1.1365,0.7478 0.2779,0.6445 -0.0608,1.1927 -0.5269,1.5672 -0.3562,0.2856 -0.7922,0.4926 -1.2135,0.6447 l 0.003,0.002 c -0.5193,0.1734 -1.0454,0.3142 -1.5956,0.344 -0.0312,0.002 -0.0631,0.003 -0.0951,0.004 l -10e-4,0 c -0.3087,0.007 -0.6176,0.0108 -0.9262,-8e-4 l -0.0213,0.4538 c 0.3579,0.0135 0.7224,0.0178 1.0802,-0.005 0.9212,-0.0592 2.2725,-0.4362 3.0143,-1.0775 0.6317,-0.5466 1.0492,-1.2789 0.7032,-2.1025 -0.2622,-0.6207 -0.8836,-1.0305 -1.5545,-1.0309 l 0,5e-4 -0.001,0 c -0.6988,0 -1.3382,0.4372 -1.5844,1.101 l -5e-4,0 c -0.0164,0.0442 -0.0313,0.09 -0.0442,0.137 -0.169,0.6131 0.0232,1.2136 0.4901,1.675 l 5e-4,0 c 0.0617,0.0611 0.1256,0.1182 0.1907,0.171 0.0545,0.0442 0.1106,0.0858 0.1678,0.1263 0.178,-0.061 0.3548,-0.131 0.5242,-0.2101 -0.6256,-0.3635 -1.1519,-0.9154 -0.9291,-1.6644 z m 4.542,2.5928 -0.1568,-0.4274 c -0.2993,0.0994 -0.6117,0.1451 -0.9267,0.1463 l -5e-4,5e-4 -0.0182,0 c -0.4719,0 -0.9271,-0.0851 -1.379,-0.1999 -0.162,0.1164 -0.3355,0.2231 -0.517,0.3203 0.2164,0.0738 0.4366,0.1365 0.6608,0.1868 l 0,1e-4 c 0.4033,0.09 0.8189,0.1487 1.2326,0.1488 l 0,-5e-4 0.003,0 c 0.3717,0 0.7509,-0.0557 1.1022,-0.175 z"
   id="path40"
   inkscape:connector-curvature="0"
   style="fill:#996633;fill-rule:nonzero" />
 </g>
</svg>