<?xml version="1.0" encoding="UTF-8" standalone="no"?>
<!-- Creator: CorelDRAW -->
<svg id="svg2" xmlns:rdf="http://www.w3.org/1999/02/22-rdf-syntax-ns#" xmlns="http://www.w3.org/2000/svg" fill-rule="evenodd" xml:space="preserve" height="360" width="300" version="1.1" xmlns:cc="http://creativecommons.org/ns#" xmlns:dc="http://purl.org/dc/elements/1.1/" viewBox="0 0 84.666667 101.6"><metadata id="metadata24"><rdf:RDF><cc:Work rdf:about=""><dc:format>image/svg+xml</dc:format><dc:type rdf:resource="http://purl.org/dc/dcmitype/StillImage"/><dc:title/></cc:Work></rdf:RDF></metadata>
 <defs id="defs4">
  <style id="style6" type="text/css">
    .fil0 {fill:black}
    .fil2 {fill:#1E85C7}
    .fil4 {fill:#231F20}
    .fil3 {fill:#DF212C}
    .fil5 {fill:white}
    .fil1 {fill:#FFE600;fill-rule:nonzero}
  </style>
 </defs>
 <g id="Слой_x0020_1" transform="matrix(0.73096457,0,0,0.73235994,-34.417947,-57.95545)">
  <path id="path10" fill="#000" class="fil0" d="m105,79.135c20.186,0,38.469,3.4873,51.712,9.1234,2.1787,0.9273,4.2224,1.9142,6.1175,2.9539v28.37c-4.311,3.3136-7.0906,8.5214-7.0906,14.378,0,5.8562,2.7796,11.063,7.0906,14.377,0,11.752,1.1604,24.144-5.1219,34.76-6.3419,10.716-18.485,15.961-29.423,20.686-8.3399,3.6023-17.192,7.0212-23.285,14.083-6.0933-7.0618-14.945-10.481-23.285-14.083-10.938-4.7243-23.081-9.9694-29.423-20.686-6.2823-10.615-5.1219-23.008-5.1219-34.76,4.311-3.3136,7.0906-8.5207,7.0906-14.377,0-5.8562-2.7796-11.064-7.0906-14.378v-28.37c1.8951-1.0397,3.9388-2.0266,6.1175-2.9539,13.243-5.634,31.526-9.121,51.712-9.121z"/>
  <path id="path12" d="m105,80.032c-18.703,0.0004-40.074,2.6466-56.929,11.714v27.403c4.4674,3.6038,7.087,9.052,7.0871,14.811,0,5.7455-2.6506,11.232-7.0877,14.811-0.0368,11.413-1.0916,23.582,4.996,33.869,6.2523,10.565,18.249,15.671,29.005,20.316,8.1572,3.523,16.746,6.8622,22.929,13.562,6.1829-6.6997,14.772-10.039,22.929-13.562,10.756-4.6454,22.752-9.7516,29.005-20.316,6.0876-10.286,5.0329-22.456,4.9961-33.869-4.4372-3.5785-7.0878-9.0655-7.0878-14.811,0.0002-5.7587,2.6197-11.207,7.0871-14.811v-27.403c-16.87-9.069-38.24-11.715-56.94-11.715z" fill-rule="nonzero" class="fil1" fill="#ffe600"/>
  <path id="path3013" fill="#1e85c7" d="m117.91,207.42c3.2815-1.6185,6.6844-3.0261,10.015-4.4646,10.756-4.6454,22.752-9.7516,29.005-20.316,3.5183-5.9449,4.6506-12.518,4.9729-19.212l-43.98,43.99z"/><path id="path3011" fill="#1e85c7" d="m155.6,139.25-50.603,50.603,0-16.299,56.929-56.929,0,2.5208c-4.4674,3.6038-7.0869,9.052-7.0871,14.811,0,1.8076,0.2628,3.5891,0.7606,5.2941z"/><path id="path3009" fill="#1e85c7" d="m105,143.08,53.201-53.201c-3.7801-1.7651-7.7473-3.2425-11.829-4.4703l-41.372,41.372v16.299z"/><path id="path14" fill="#1e85c7" d="m105,80.032c5.0572,0.0001,10.31,0.1941,15.615,0.6558l-15.615,15.615v-16.271z"/>
  <path id="path3005" fill="#df212c" d="m105,189.15,0,15.592,56.408-56.408c-2.9173-2.5331-4.9942-5.9165-5.959-9.6334l-50.45,50.45z"/><path id="path3003" fill="#df212c" d="m105,142.37,0,15.592,56.929-56.929,0-9.2897c-1.3746-0.7395-2.78-1.4358-4.2108-2.0919l-52.72,52.722z"/><path id="path16" fill="#df212c" d="m105,95.596,14.963-14.963c4.5886,0.3807,9.2211,0.9603,13.806,1.7865l-28.769,28.769v-15.592z"/>
  <path id="path18" fill="#231f20" class="fil4" d="m105.22,211.92c-1.2881-2.0246-2.4791-2.9869-4.0124-3.478-1.3695-0.4384-2.8294-0.4726-4.2469-0.5525,0.2502-1.1309,0.9491-2.7237,0.5713-3.9076-0.4212-1.3123-2.3493-1.1249-3.4153-1.1158,1.6862-0.8661,3.0738-2.0482,3.4817-4.0824,0.2442-1.2442,0.0042-2.633-0.9798-3.4689-0.7487-0.6382-1.9022-0.943-3.4885-0.6488-2.0595,0.3843-2.8859,2.3151-2.5215,4.2889,0.2477,1.3229,0.918,2.4399,1.7175,3.4708-1.7804-0.124-4.6582-0.1909-5.6469-2.1695-0.6429-1.2817-0.4672-3.2087-0.0611-6.084-0.8055,0.6078-1.3034,1.1479-1.6008,1.7789-0.4789,1.0164-0.4229,2.2065-0.4229,3.3105-0.689-1.2954-1.3517-2.6414-1.1787-4.1785,0.2748-2.4425,2.5986-4.4229,4.1268-6.0129-1.3126-0.7206-2.1365-1.196-2.7346-1.8503-0.8972-0.9822-1.3036-2.3007-1.5383-3.6224,1.2575,1.2471,2.6595,2.3414,4.4089,2.7008,1.214,0.2514,2.4569,0.0624,3.4834-0.9591,0.9778-0.9739,1.2036-2.3628,0.7844-3.699-0.2221-0.7076-0.6271-1.3583-1.1841-1.8165-1.3951-1.1443-2.8237-0.4547-2.7022,1.4583,0.0714,1.1502,0.7142,2.0369,1.4363,2.845-1.185,0.0262-2.407-0.2692-3.3507-1.0963-1.9318-1.6932-1.003-4.653,0.4712-6.3194,0.7699-0.8717,1.6564-1.3281,2.4427-1.7328,2.4989-1.2829,2.2768-2.7855,1.3269-5.4352,1.4339,0.4119,3.0317,0.7656,4.5112,0.3708,1.0045-0.2692,1.6939-0.8414,2.2528-1.542,1.2393-1.5509,1.4344-3.6387,1.0802-5.0021-0.2648-0.9873-0.9542-1.8807-1.8486-0.8449-0.7932,0.918-0.6175,1.64-0.3795,2.6222,0.0938,0.4001,0.1793,0.8002,0.2599,1.2033-0.4242-0.4343-0.8459-0.9117-1.4383-1.0856-0.3203-0.0962-0.6445-0.0856-0.9655,0.0339-0.4852,3.1802-3.6944,2.7934-6.4666,2.4577-0.3938-0.0458-0.7808-0.0939-1.1265-0.1243-1.567-0.066-2.742-0.057-3.8235,0.2193-1.0013,0.2549-1.9378,0.7416-3.0496,1.6079l0.7321,0.1641,0.0109,0.002,0.9763,0.3654,0.5798,1.2728,0.8775,0.5472,0.0165,0.009,0.0106,0.0125c1.0599,1.0572,1.567,1.7345,1.5993,2.4761,0.0557,1.2261-1.0681,2.4956-1.7193,3.4707,0.2445-0.9757,0.6587-2.1473,0.1397-3.0946-0.2971-0.5401-0.8757-0.9661-1.7372-1.4332l-0.1071,0.0463c-1.3182,0.6008-1.6479,0.7505-2.8603-0.1391-1.0341,0.8957-1.5001,0.6046-2.4642-0.1764-0.2429,0.6312-0.6833,1.2395-1.413,1.182-0.0574,0.836-0.1203,1.2888-0.3508,1.6471-0.2419,0.376-0.6451,0.6132-1.406,1.0446-0.8776,1.1836-1.1248,2.5741-1.3824,4.0055-0.107,0.578-0.2179,1.1547-0.3333,1.7309-0.2158-1.22-0.4791-2.4527-0.4961-3.6971-0.0105-0.8859,0.111-1.7701,0.4548-2.822-0.1412-0.2477-0.2361-0.5026-0.2667-0.77-0.0216-0.2122-0.0018-0.4296,0.0713-0.6524l-0.494,0.082-0.5195-0.5188c-0.4191,0.4385-0.8362,0.8307-1.3015,1.0215-0.5251,0.2157-1.0927,0.1818-1.7604-0.3084l-0.6416-0.3209c-0.8773,0.004-1.4556,0.148-1.9573,0.4492-0.7864,0.4665-1.3983,1.2651-2.0185,1.9448,0.33-1.0764,0.6411-2.2135,1.4117-3.05,0.5515-0.5989,1.2966-1.0036,2.4082-1.2336,0.8152-0.8093,1.3329-1.2122,1.9485-1.3708,0.4029-0.1052,0.8368-0.1017,1.4203-0.0428-0.3858-0.25-0.6621-0.6431-0.6932-1.1302l-1.1996,0.1997-0.0395,0.007-0.0376-0.0142-0.917-0.3423-0.0068-0.004-0.0128-0.007c-0.9942-0.5418-1.6619-0.8218-2.3209-0.8413-0.9752-0.0264-1.8984,0.5056-2.7563,0.9305,0.1645-0.3282,0.324-0.6551,0.5233-0.9626,0.5909-0.8913,1.4109-1.5348,2.312-1.8397,0.9201-0.3175,1.9159-0.2707,2.795,0.164,0.1097,0.0535,0.2169,0.1141,0.3243,0.1819,0.3475-0.1943,0.5803-0.2995,0.8294-0.3494,0.2685-0.0536,0.5428-0.0392,0.992-0.002,1.0673,0.0891,1.8285,0.1497,2.3676-0.0303,0.8929-0.2964,1.0821-1.2858,1.1978-2.1249,0.3124,1.1084,0.9933,1.4868,2.0957,1.7237,1.4827,0.3227,3.5204,0.189,5.5497-0.2531,2.0309-0.442,4.0509-1.1944,5.4909-2.1088,1.076-0.6828,1.823-1.4493,1.9912-2.2372,0.0375-0.1711-0.2504-0.2817-0.6822-0.3744-1.087-0.2353-2.3371-0.1957-3.277-0.8663,0.5827-2.001,1.1295-4.1218,1.9073-6.1206,0.6564-1.687,1.4792-3.2573,2.6162-4.6465,1.6396,0.282,3.6646-0.9472,4.8067-2.0628,0.2844-0.2796,0.5069-0.5525,0.6394-0.7948,0.2602-0.4823,0.1037-0.7595-0.4281-0.795-0.5199-0.0349-1.1106,0.5329-1.6492,1.0555-0.343,0.3367-0.6778,0.6303-1.0837,0.8766l-0.0623-3.2049c-0.061-1.2389-0.2082-2.0253-0.4-2.3836-0.1226-0.2283-0.2252-0.2082-0.3723-0.009-0.2649,0.3547-0.5515,1.1625-0.8128,2.3831-0.489,2.2945-1.8018,3.8739-3.5123,5.045-1.9208,1.3126-4.1619,2.0419-6.3432,2.715,0.7573-0.9114,1.4857-1.8401,2.0705-2.886,0.4584-0.8183,0.8324-1.6899,1.2484-2.8007,0.3506-0.9354,0.5299-1.6434,0.5175-2.0107-0.0034-0.1883-0.0283-0.1904-0.1701-0.0852-0.2296,0.1682-0.566,0.5613-1.0161,1.2226-0.8142,1.1962-1.5008,2.3356-2.7038,3.239-2.5468,1.9196-5.5784,1.6944-8.4348,0.8253,0.9666-0.4821,1.9941-0.9339,2.8385-1.6343,0.6141-0.5085,1.1195-1.15,1.8015-2.2431,0.5917-0.9432,1.5461-2.4606-0.2039-1.3974-1.6208,0.9792-3.3015,1.981-5.1774,2.2941-3.9037,0.6509-7.3455-1.4544-9.9307-3.9574,0.4979,0.004,0.9958,0.0162,1.4937,0.0233,3.1857,0.0642,5.6591,0.1141,8.2897-1.9022,0.835-0.6415,1.585-1.3671,1.895-1.8556,0.335-0.5133-0.0732-0.3829-0.4602-0.2637h-0.0021l-0.0106,0.004c-0.7246,0.2237-1.3396,0.7444-2.0863,0.9072-5.5621,1.3028-8.8584-1.2118-10.847-6.5816,0.9479,0.3399,1.9036,0.6125,2.8958,0.7827,2.5092,0.4296,5.693,0.4227,8.7323-0.5992,0.4209-0.1441,0.7609-0.3048,0.9132-0.4543,0.0413-0.0395,0.0629-0.0731,0.0629-0.0928-0.0018-0.0142-0.0267-0.0356-0.0789-0.0657v-0.002c-0.1936-0.1074-0.6089-0.1928-1.3267-0.2338-3.2754-0.1787-6.9043-1.6462-8.5875-4.7934-1.0205-1.9124-1.0107-4.0686-0.8022-6.1804,1.5111,2.1014,3.7521,3.2356,6.223,3.6404,0.1604,0.026,1.0869,0.118,1.2805-0.0393-0.1474-0.2402-0.5098-0.3992-0.7413-0.5084-2.2042-1.0409-4.1254-2.4998-5.2187-4.8414-1.2317-2.6274-1.4699-5.6903-0.9381-8.5314,1.6801,2.6206,3.3642,5.5572,6.5472,6.3545,0.6016,0.152,0.996,0.1982,1.2054,0.1533,0.1619-0.0353,0.0999-0.135,0.0286-0.2529-0.1955-0.3158-0.7095-0.7899-1.4704-1.3708-2.5609-1.9487-3.7823-4.369-4.2463-7.0501-0.5187-2.9813-0.1788-6.2707,0.3456-9.0308,2.1019,4.3382,3.9564,8.2098,8.4407,10.357,0.7433,0.1946,1.2068,0.23,1.4576,0.1641,0.2818-0.0744,0.1778-0.3267,0.0714-0.5241-0.2612-0.4795-0.9003-1.1088-1.5004-1.5848l-0.032-0.0234h-0.0021c-1.3721-1.0922-2.5039-2.4802-3.2233-4.125-1.8769-4.3034-0.5506-9.0241,1.6707-12.828,0.1918,0.6348,0.3832,1.2699,0.5713,1.9059,1.4683,4.9733,2.1688,7.344,7.6131,9.5048,1.9796,0.7882,4.2392,1.5126,6.0475,2.7327,2.4434,1.6322,4.6516,4.8977,3.6049,8.0524-0.3992,1.1997-1.246,2.3241-2.4766,3.4902-1.3803,1.3075-3.0976,3.1372-3.4152,5.1431-0.4923,3.1303,2.4477,3.5352,4.5324,3.1496,1.1092-1.8576,2.0271-3.4711,3.7269-4.8273,1.8957,0.3634,3.7593-0.6877,4.8693-2.2444,1.4392-2.0311,1.1077-4.1768-1.5919-4.7081,0.9021-0.8811,1.5821-1.9033,1.6854-3.2281,0.1262-1.6011-0.6636-3.1722-2.0095-3.9539-0.9542-0.5519-1.9596-0.5873-3.0068-0.3815,0.2176-0.874,0.6413-2.2922-0.0699-3.0645-0.4836-0.5239-1.4542-0.7485-2.9582-0.9838l-0.0433-0.007-0.032-0.027c-0.9654-0.8256-1.6531-1.3102-2.4125-1.5703-0.9777-0.3346-2.061-0.2763-3.0712-0.212,0.1941-0.7774,0.453-1.508,1.0908-2.0095l-0.5325-0.048c-1.7044,0.5081-3.4651,0.8129-5.0036,0.5331-2.0411-0.3714-3.1837-1.6282-3.9197-3.576,1.3405,1.0105,2.7229,1.8965,4.452,1.7562,1.2284-0.0981,2.4822-0.6668,3.9629-1.5299l-0.257-0.226-0.018-0.029c-0.6335-1.0299-1.3771-1.4758-2.1991-1.515-1.1019-0.054-2.145,0.5471-3.0675,1.1017,0.3065-1.6932,0.795-3.3938,2.1278-4.5299,1.0491-0.8963,2.4907-1.3367,4.4231-1.4292l0.7487-0.7203v-0.0017c1.9878-1.8598,3.8914-2.7742,5.8361-2.8239,1.9453-0.0517,3.9185,0.7593,6.048,2.3546l0.0056,0.0019c1.3588,1.0997,2.3855,1.8256,3.5136,2.2071,1.4483,0.4925,2.961,0.341,4.4393,0.1231-0.4252,0.9082-0.8954,1.7379-1.6027,2.4421-0.5232,0.5243-1.1339,0.9628-1.895,1.4744,1.1338,0.5918,2.4052,0.3471,3.6985,0.0981,0.6013-0.1153,1.2011-0.2104,1.8068-0.2945-0.774,0.4995-1.4665,0.9739-1.9392,1.8291-0.3172,0.5742-0.5214,1.2496-0.6217,2.0089l3.0857,2.3959-0.0001,111.2z"/>
  <path id="path20" fill="#FFF" class="fil5" d="m82.527,98.792c0.4317-0.2338,0.944-0.3959,1.5547-0.5779l-2.7258-1.8359c-1.5724,0.925-2.8992,1.5402-4.2141,1.6456-1.2052,0.0945-2.3903-0.2337-3.7299-1.1377,0.7677,1.4193,1.909,2.1179,3.227,2.3566,1.4901,0.2729,3.2181-0.0301,4.8909-0.5312l0.0247-0.0067h0.0307l0.9418,0.0854v0.0018zm5.3763,4.02c-0.172-2.5051-2.0076-7.1091-4.427-7.9795l-0.7522-0.3098c0.1505-0.3766,0.3334-0.7115,0.5158-1.0538,0.5119-0.9623,0.6234-0.9162-0.1413-1.6185-0.57-0.5203-0.9383-1.0288-1.1195-1.9237-1.8001,0.1036-3.141,0.5208-4.1152,1.3513-0.944,0.8059-1.5528,2.0111-1.9039,3.7029,0.9458-0.5282,1.8393-0.8452,2.663-0.806,0.9152,0.0461,1.7335,0.522,2.425,1.6294l3.7354,2.5187-0.3063,0.0928-0.1016,0.0283c-1.5583,0.4563-2.4914,0.731-2.9498,2.2964,1.193-0.059,2.015-0.007,2.774,0.251,0.7913,0.2692,1.5006,0.7649,2.4786,1.5972,0.453,0.0736,0.8615,0.1428,1.225,0.2233zm5.6341,62.542-0.2311-0.1158-0.5572,0.041-0.9957,0.2388-0.8361,0.0392-0.3205-0.4385c-0.8757-2.2248-1.0224-2.5919-3.505-1.5491l-0.2559,0.082c-0.3562,0.3851-0.8219,0.754-1.3628,1.0981-1.4704,0.9305-3.5242,1.6988-5.5893,2.148-2.0685,0.4511-4.1512,0.5866-5.677,0.255-0.8308-0.1801-1.5022-0.501-1.9232-0.9822-0.2778,0.7861-0.6538,1.1871-1.2109,1.3726-0.5983,0.1996-1.3841,0.1355-2.4878,0.0463-0.4225-0.0357-0.6746-0.0481-0.9077-0.002-0.2309,0.0463-0.4564,0.1551-0.8164,0.3602l-0.0306,0.0178c-0.3132,0.8057-0.5355,1.2407-0.1128,2.0232l0.197,0.0749,1.336-0.2211,0.1843-0.0321-0.0087,0.1872c-0.0179,0.3833,0.1217,0.6775,0.3686,0.9057,0.2668,0.2406,0.1004,0.3458,0.5699,0.4777l0.0266,0.2282c-1.1535-0.1658-1.3557-0.1212-1.9196,0.0209-0.3942,0.1038-0.7541,0.3267-1.2126,0.7313,0.4855,0.7666,0.5158,1.2139,0.1935,2.0572l0.0196,0.2919c0.5443,0.3855,1.0045,0.4122,1.4186,0.2411,0.4511-0.1854,0.8737-0.6026,1.305-1.0606l0.1098-0.1124,0.1089,0.1087,0.5177,0.517,0.6107-0.1016,0.2953-0.0486-0.1361,0.2643c-0.1339,0.262-0.1751,0.5116-0.1505,0.7505,0.0235,0.2014,0.095,0.3993,0.1989,0.5953,0.627-0.6256,1.2123-0.0908,1.6029,0.5973,0.5731-0.3299,0.8936-0.5366,1.0727-0.8165,0.206-0.319,0.2559-0.7736,0.3132-1.6596l0.0127-0.1693,0.1667,0.0302c0.2883,0.0518,0.5353-0.0249,0.745-0.2121,0.2254-0.1996,0.4152-0.5259,0.5748-0.9502l0.0735-0.1924,0.4262,0.3315c0.8665,0.6846,1.0927,0.8592,2.0668,0.0268l0.0911-0.0789,0.0988,0.0718c1.1497,0.8627,1.4307,0.7343,2.6502,0.1799l0.1737-0.0806,0.0699-0.0317,0.0197,0.0108,0.1453-0.6008,0.3132-0.5313,0.2148-0.2424-0.1308-0.082-0.0196-0.041-0.5465-1.1997-0.8467-0.319-1.0229-0.2247-0.0609-0.2656c1.2577-1.0196,2.2909-1.5776,3.4119-1.8611,1.1154-0.2852,2.3137-0.2976,3.9074-0.2317l0.0092,0.002c0.3796,0.0355,0.7575,0.082,1.1426,0.1265,2.6003,0.3155,5.6106,0.6774,6.1122-2.0964zm-6.93-72.012c-0.1238-0.1855-0.2433-0.4264-0.3364-0.6937-0.1041-0.2974-0.1578-0.5704-0.1597-0.7803-0.6968,0.3257-1.2144,0.8196-1.1817,1.7291,0.578-0.1036,1.1461-0.168,1.6778-0.2551zm-0.0036-1.6739c0.1684,0.1925,0.3456,0.5079,0.4764,0.8734,0.0862,0.2497,0.1397,0.4833,0.1559,0.6772,1.2698-0.3062,2.2061-0.9409,2.3316-2.9535-0.263,0.8465-1.7443,0.9783-2.9639,1.4029z"/>
 </g>
</svg>
