<?xml version="1.0" encoding="UTF-8" standalone="no"?>
<!-- Created with Inkscape (http://www.inkscape.org/) -->

<svg
   xmlns:dc="http://purl.org/dc/elements/1.1/"
   xmlns:cc="http://creativecommons.org/ns#"
   xmlns:rdf="http://www.w3.org/1999/02/22-rdf-syntax-ns#"
   xmlns:svg="http://www.w3.org/2000/svg"
   xmlns="http://www.w3.org/2000/svg"
   xmlns:sodipodi="http://sodipodi.sourceforge.net/DTD/sodipodi-0.dtd"
   xmlns:inkscape="http://www.inkscape.org/namespaces/inkscape"
   width="300"
   height="360"
   id="svg3074"
   version="1.1"
   inkscape:version="0.48.1 "
   sodipodi:docname="Новый документ 2">
  <defs
     id="defs3076" />
  <sodipodi:namedview
     id="base"
     pagecolor="#ffffff"
     bordercolor="#666666"
     borderopacity="1.0"
     inkscape:pageopacity="0.0"
     inkscape:pageshadow="2"
     inkscape:zoom="1.475"
     inkscape:cx="150"
     inkscape:cy="180"
     inkscape:document-units="px"
     inkscape:current-layer="layer1"
     showgrid="false"
     fit-margin-top="0"
     fit-margin-left="0"
     fit-margin-right="0"
     fit-margin-bottom="0"
     inkscape:window-width="1280"
     inkscape:window-height="750"
     inkscape:window-x="-8"
     inkscape:window-y="-8"
     inkscape:window-maximized="1" />
  <metadata
     id="metadata3079">
    <rdf:RDF>
      <cc:Work
         rdf:about="">
        <dc:format>image/svg+xml</dc:format>
        <dc:type
           rdf:resource="http://purl.org/dc/dcmitype/StillImage" />
        <dc:title></dc:title>
      </cc:Work>
    </rdf:RDF>
  </metadata>
  <g
     inkscape:label="Layer 1"
     inkscape:groupmode="layer"
     id="layer1"
     transform="translate(-225,-352.36218)">
    <path
       style="fill:#a90000;fill-rule:evenodd"
       inkscape:connector-curvature="0"
       class="fil0"
       d="m 446.75198,524.3901 c 2.93491,0 5.31496,2.38003 5.31496,5.31496 l 0,5.31425 c 0,2.93492 -2.38005,5.31496 -5.31496,5.31496 l -5.31496,0 0,-15.94417 5.31496,0 z m 0,21.25913 c 5.86984,0 10.62992,-4.76008 10.62992,-10.62992 l 0,-5.31425 c 0,-5.86985 -4.76008,-10.62993 -10.62992,-10.62993 l -10.62992,0 0,26.5741 10.62992,0 z m -21.25985,-26.5741 5.31497,0 0,26.5741 -5.31497,0 0,-26.5741 z m -10.62992,0 5.31496,0 0,26.5741 -5.31496,0 -10.62992,-16.68402 0,16.68402 -5.31496,0 0,-26.5741 5.31496,0 10.62992,16.68402 0,-16.68402 z m -79.72441,3.6e-4 15.94489,0 0,5.31496 -10.62993,0 0,5.31461 10.62993,0 0,5.31496 -10.62993,0 0,5.3146 10.62993,0 0,5.31496 -15.94489,0 0,-26.57409 z m -21.25984,-7.1e-4 5.31496,0 0,21.25984 10.62992,0 0,5.31496 -15.94488,0 0,-26.5748 z m 55.8085,21.25984 5.31355,0 c 4.4022,0 7.97244,-3.57023 7.97244,-7.97244 0,-4.4022 -3.6365,-7.9572 -7.97244,-7.97244 l -5.31355,0 0,5.31496 5.31355,0 c 1.46728,0 2.65748,1.1902 2.65748,2.65748 0,1.46729 -1.1902,2.65748 -2.65748,2.65748 l -5.31355,0 0,5.31496 z m 5.31355,-26.5748 c 10.27205,0 18.60236,8.33031 18.60236,18.60236 0,10.27205 -8.33031,18.60236 -18.60236,18.60236 -10.27205,0 -18.60236,-8.33031 -18.60236,-18.60236 0,-10.27205 8.33031,-18.60236 18.60236,-18.60236 z m 0,5.31496 c 7.33712,0 13.2874,5.95028 13.2874,13.2874 0,7.33713 -5.95028,13.2874 -13.2874,13.2874 -7.33713,0 -13.2874,-5.95027 -13.2874,-13.2874 0,-7.33712 5.95027,-13.2874 13.2874,-13.2874 z"
       id="path3035" />
    <g
       style="fill-rule:evenodd"
       id="Слой_x0020_1"
       transform="matrix(4.6848501,0,0,4.6856271,-116.90832,-202.94086)">
      <metadata
         id="CorelCorpID_0Corel-Layer" />
      <path
         class="fil0"
         d="m 72.9823,118.512 0,38.6489 -6e-4,0 c 0,17.4588 15.4658,33.0583 32.0181,38.1818 16.5522,-5.1235 32.0181,-20.723 32.0181,-38.1818 l -7e-4,0 1e-4,-38.6489 -64.035,0 z"
         id="path10"
         inkscape:connector-curvature="0"
         style="fill:#000000;fill-rule:nonzero" />
      <path
         class="fil1"
         d="m 73.5001,119.032 0,38.1291 0.0014,0 0,9e-4 -0.0014,0 0,0.1723 c 0.0168,2.7969 0.4385,5.5497 1.2035,8.2199 0.6362,2.2201 1.5089,4.3795 2.5828,6.4568 5.5196,10.6764 16.3464,19.224 27.7145,22.7884 2.2379,-0.7018 4.4564,-1.5978 6.6188,-2.6661 2.2085,-1.0911 4.3606,-2.3643 6.417,-3.7959 10.5225,-7.3255 18.4349,-18.7501 18.4627,-31.1108 l 0,-0.0655 1e-4,-38.1291 -62.9994,0 z"
         id="path12"
         inkscape:connector-curvature="0"
         style="fill:#df212c;fill-rule:nonzero" />
      <path
         class="fil2"
         d="m 105.001,194.799 c 2.2379,-0.7018 4.4564,-1.5978 6.6188,-2.6661 2.2085,-1.0911 4.3606,-2.3643 6.417,-3.7959 10.5225,-7.3255 18.4349,-18.7501 18.4627,-31.1108 l 0,-0.0655 10e-5,-38.1291 -31.4986,0 0,75.7674 z"
         id="path14"
         inkscape:connector-curvature="0"
         style="fill:#3c82c2;fill-rule:nonzero" />
      <path
         class="fil0"
         d="m 120.18,137.597 0.003,0 0,5e-4 c 1.9834,2e-4 3.7801,0.1684 5.081,0.4399 1.1902,0.2484 1.9814,0.5988 2.1564,1.0054 0.8448,0.8581 1.5953,2.1425 2.1841,3.7163 0.1172,0.3132 0.228,0.638 0.3317,0.9722 0.637,2.0534 1.0164,4.5014 1.0166,7.0942 l 5e-4,0 0,0.002 -5e-4,0 c 0,3.734 -0.7168,7.074 -1.8483,9.4588 -0.2211,0.466 -0.4582,0.8959 -0.7084,1.2849 -0.0543,0.0844 -0.7929,1.0457 -0.7926,1.046 l -8e-4,9e-4 -0.0159,0.0177 c -2.2879,1.1439 -4.8797,1.4949 -7.4073,1.4949 -2.4593,0 -5.2234,-0.1864 -7.3939,-1.4887 l -0.0156,-0.009 c -0.9807,-1.081 -1.6415,-2.4631 -2.1211,-3.8268 -0.1081,-0.3076 -0.2108,-0.6276 -0.3073,-0.9588 -0.5896,-2.0235 -0.9352,-4.4253 -0.9354,-7.0172 l -5e-4,0 0,-0.002 c 0,-3.7343 0.7874,-7.1699 1.9992,-9.5612 0.237,-0.4678 0.4901,-0.8956 0.7561,-1.2773 0.2474,-0.3549 0.5074,-0.6719 0.7773,-0.9461 0.1748,-0.4068 0.9668,-0.7573 2.1578,-1.0058 1.3001,-0.2713 3.095,-0.4393 5.0763,-0.4397 l 0,-5e-4 0.007,0 z"
         id="path16"
         inkscape:connector-curvature="0"
         style="fill:#000000;fill-rule:nonzero" />
      <path
         class="fil3"
         d="m 112.945,139.4 c -0.5326,0.5884 -0.9595,1.2732 -1.3171,1.9792 -1.1952,2.3586 -1.9718,5.7533 -1.9718,9.4488 l 0,0.002 -5e-4,0 c 10e-5,2.5676 0.3422,4.9455 0.9256,6.9478 0.4827,1.6578 1.182,3.3642 2.3484,4.6599 0.5099,0.3027 1.0626,0.5433 1.6411,0.7345 -0.4105,-0.6245 -0.7184,-1.3219 -0.9745,-2.0191 -0.8829,-2.4029 -1.4365,-5.8464 -1.4365,-9.6683 l 0,-0.003 5e-4,0 c 2e-4,-2.6464 0.2656,-5.111 0.7218,-7.1732 0.305,-1.3782 0.7068,-2.8627 1.4202,-4.115 -0.7342,-0.2204 -1.2166,-0.4913 -1.3572,-0.7939 z m 2.0119,23.8919 c 0.5583,0.1611 1.1363,0.2799 1.719,0.3668 -0.3127,-0.7002 -0.5184,-1.4567 -0.6901,-2.2009 -0.5549,-2.4025 -0.9029,-5.8453 -0.9029,-9.6667 l 0,-0.005 5e-4,0 c 2e-4,-2.6474 0.1671,-5.112 0.4538,-7.1732 0.1835,-1.3192 0.4008,-2.727 0.8517,-4.0066 -0.6177,-0.0801 -1.2366,-0.1827 -1.8393,-0.3429 -0.7205,1.2406 -1.121,2.7268 -1.4244,4.0991 -0.4525,2.0456 -0.7159,4.4917 -0.716,7.1194 l 5e-4,0 0,0.003 c 0,3.793 0.5476,7.2055 1.4209,9.5823 0.2849,0.7756 0.6352,1.5551 1.1263,2.2245 z m 1.9354,0.3976 c 0.6472,0.0879 1.2984,0.1382 1.9331,0.1649 -0.1225,-0.7389 -0.1953,-1.4877 -0.2581,-2.2335 -0.2024,-2.3978 -0.3292,-5.8336 -0.3292,-9.648 l 0,-0.013 5e-4,0 c 2e-4,-2.6443 0.0613,-5.1042 0.1658,-7.1602 0.0667,-1.3187 0.1357,-2.6778 0.3091,-3.9989 -0.7379,-0.032 -1.4348,-0.0877 -2.0712,-0.1629 -0.4581,1.277 -0.6747,2.6895 -0.8581,4.0094 -0.2854,2.0522 -0.4517,4.505 -0.4518,7.139 l 5e-4,0 0,0.005 c 0,3.8041 0.3453,7.2267 0.8961,9.6111 0.1767,0.7658 0.3894,1.5434 0.7224,2.2579 l -2e-4,1e-4 6e-4,10e-4 -0.0595,0.028 z m 2.1876,0.1744 c 0.3748,0.0123 0.743,0.0173 1.1,0.0173 0.3671,0 0.7341,-0.007 1.1008,-0.0236 0.2626,-1.55 0.345,-3.1392 0.4249,-4.7083 0.105,-2.0592 0.1665,-4.5208 0.1666,-7.1634 l -5e-4,0 0,-0.013 c 0,-3.799 -0.1259,-7.2194 -0.3263,-9.6091 -0.0424,-0.5078 -0.0897,-1.0349 -0.1539,-1.553 -0.3917,0.014 -0.7939,0.0214 -1.2045,0.0215 l 0,5e-4 -0.007,0 -0.004,0 0,-5e-4 c -0.4131,-1e-4 -0.8183,-0.008 -1.2125,-0.0217 -0.1748,1.3215 -0.2437,2.6819 -0.3105,4.0013 l 0,4e-4 c -0.1045,2.056 -0.1657,4.5118 -0.1658,7.1476 l 5e-4,0 0,0.013 c 0,3.8086 0.1265,7.237 0.3282,9.6274 0.0636,0.7559 0.1371,1.5152 0.2636,2.2636 z m 2.4558,-0.0188 c 0.6288,-0.0345 1.2552,-0.0956 1.8751,-0.1902 0.3316,-0.713 0.5437,-1.4887 0.72,-2.2527 0.5508,-2.3844 0.8961,-5.807 0.8961,-9.6111 l 0,-0.005 5e-4,0 c -1e-4,-2.634 -0.1664,-5.0868 -0.4518,-7.139 -0.1834,-1.3199 -0.4005,-2.7324 -0.8586,-4.0094 -0.6377,0.0754 -1.3357,0.1312 -2.0753,0.1632 0.0635,0.5148 0.1105,1.0377 0.1527,1.5421 0.2011,2.3969 0.3273,5.8249 0.3273,9.6297 l 0,0.013 -5e-4,0 c -2e-4,2.6511 -0.0616,5.1168 -0.1666,7.176 -0.0791,1.5607 -0.162,3.1407 -0.4189,4.6832 z m 2.1705,-0.238 c 0.5957,-0.1017 1.1847,-0.2359 1.7634,-0.4084 0.4563,-0.648 0.7878,-1.3914 1.0596,-2.1313 0.8733,-2.3768 1.4209,-5.7893 1.4209,-9.5823 l 0,-0.003 5e-4,0 c -10e-5,-2.6277 -0.2635,-5.0738 -0.716,-7.1194 -0.3034,-1.3723 -0.7042,-2.8585 -1.4248,-4.0991 -0.6029,0.1598 -1.2215,0.2628 -1.8395,0.3429 0.4509,1.2796 0.6688,2.6874 0.8523,4.0066 0.2867,2.0612 0.4536,4.5258 0.4538,7.1732 l 5e-4,0 0,0.005 c 0,3.8214 -0.348,7.2642 -0.9029,9.6667 -0.1674,0.7259 -0.3678,1.4636 -0.6678,2.1493 z m 2.1424,-0.5276 c 0.5391,-0.1782 1.0684,-0.3914 1.5846,-0.6453 0.5977,-0.665 1.0642,-1.4486 1.4461,-2.2538 1.1171,-2.3547 1.8249,-5.6567 1.8249,-9.3524 l -5e-4,0 0,-0.002 5e-4,0 c -10e-5,-2.5667 -0.3755,-4.9894 -1.0058,-7.021 -0.4864,-1.5685 -1.1716,-3.1764 -2.2836,-4.4045 -0.1409,0.3025 -0.6235,0.5734 -1.3577,0.7936 0.7135,1.2522 1.1158,2.7368 1.4207,4.1149 0.4562,2.0622 0.7216,4.5268 0.7218,7.1732 l 5e-4,0 0,0.003 c 0,3.8219 -0.5536,7.2654 -1.4365,9.6683 -0.2435,0.6628 -0.5342,1.3257 -0.915,1.9261 z"
         id="path18"
         inkscape:connector-curvature="0"
         style="fill:#fff000;fill-rule:nonzero" />
      <path
         class="fil3"
         d="m 120.184,137.847 0,5e-4 -0.004,0 -0.007,0 0,-5e-4 c -0.4013,1e-4 -0.7945,0.007 -1.1776,0.0202 0.0175,0.1232 0.0361,0.2456 0.0555,0.368 0.3663,-0.0109 0.7434,-0.0165 1.1292,-0.0165 0.3857,0 0.763,0.005 1.129,0.0164 0.019,-0.1217 0.0368,-0.2444 0.0535,-0.3679 -0.3836,-0.0134 -0.7773,-0.0202 -1.179,-0.0202 z m 3.2645,0.5221 c 0.005,0.551 -0.8576,0.9312 -0.9528,-0.0785 -0.3007,-0.0196 -0.613,-0.0354 -0.935,-0.0472 0.0186,-0.1214 0.0362,-0.2434 0.0526,-0.3664 0.7197,0.0306 1.3997,0.084 2.0224,0.1562 -0.045,0.1137 -0.0921,0.2254 -0.1414,0.3407 l -0.0458,-0.005 z m -4.6486,-0.1257 c -0.0191,-0.1218 -0.0373,-0.2439 -0.0546,-0.3664 -0.7192,0.0307 -1.3987,0.0839 -2.021,0.1562 0.0443,0.115 0.0909,0.2286 0.1394,0.341 0.5857,-0.0603 1.2384,-0.1051 1.9362,-0.1308 z m -2.1955,0.159 c -0.047,-0.1116 -0.092,-0.2242 -0.135,-0.3381 -0.4812,0.0616 -0.9248,0.1348 -1.3215,0.2176 -0.1679,0.035 -0.3268,0.0714 -0.4766,0.109 0.0664,0.1065 0.1354,0.2109 0.207,0.3132 0.4406,-0.1189 1.0295,-0.2216 1.7261,-0.3017 z m -1.9775,0.3765 c -0.0716,-0.1051 -0.1406,-0.2122 -0.207,-0.3213 -0.7977,0.2247 -1.2678,0.487 -1.2683,0.7569 l 5e-4,0 0,7e-4 0,9e-4 -5e-4,0 c 8e-4,0.2713 0.4758,0.5343 1.2807,0.7596 0.0667,-0.1088 0.1363,-0.2159 0.2082,-0.3204 -0.4062,-0.1328 -0.6352,-0.282 -0.6352,-0.4401 0,-0.1563 0.2236,-0.3045 0.6216,-0.4363 z m 0.2657,0.9508 c -0.0721,0.102 -0.1416,0.2063 -0.2084,0.3128 0.1455,0.0365 0.2999,0.0718 0.4626,0.1058 0.3993,0.0833 0.8461,0.1567 1.331,0.2185 0.0434,-0.1139 0.089,-0.2269 0.1365,-0.3383 -0.6932,-0.0793 -1.2808,-0.1811 -1.7217,-0.2988 z m 1.9814,0.3269 c -0.049,0.1122 -0.0961,0.2262 -0.1408,0.3411 0.6207,0.0718 1.2983,0.125 2.0153,0.1556 0.0174,-0.1225 0.036,-0.245 0.0553,-0.3667 -0.6951,-0.0256 -1.3458,-0.07 -1.9298,-0.13 z m 2.1812,0.1383 c -0.0196,0.1221 -0.0386,0.2449 -0.0562,0.3679 0.3832,0.0133 0.7766,0.0206 1.178,0.0206 l 0,-5e-4 0.003,0 0.007,0 0,5e-4 c 0.3994,-1e-4 0.7909,-0.007 1.1722,-0.0206 -0.0168,-0.1235 -0.0349,-0.2464 -0.054,-0.3679 -0.3649,0.0108 -0.7409,0.0168 -1.1253,0.0168 -0.3844,0 -0.7604,-0.006 -1.1253,-0.0168 z m 2.5017,-0.008 c 0.0188,0.1212 0.0368,0.2438 0.0534,0.3668 0.7178,-0.0305 1.3961,-0.0838 2.0175,-0.1557 -0.0447,-0.1149 -0.0918,-0.2289 -0.1408,-0.3411 -0.5843,0.0599 -1.2347,0.1044 -1.9301,0.13 z m 2.1898,-0.1581 c 0.0474,0.1114 0.0931,0.2243 0.1365,0.3382 0.4845,-0.0616 0.9309,-0.1349 1.3299,-0.2182 0.1631,-0.034 0.3177,-0.0695 0.4637,-0.106 -0.0668,-0.1065 -0.1363,-0.2108 -0.2084,-0.3128 -0.4411,0.1177 -1.0285,0.2195 -1.7217,0.2988 z m 1.9738,-0.3732 c 0.0719,0.1045 0.1414,0.2117 0.2082,0.3205 0.8052,-0.2253 1.2802,-0.4885 1.2807,-0.7599 l -5e-4,0 0,-7e-4 0,-9e-4 5e-4,0 c -8e-4,-0.2699 -0.4708,-0.5322 -1.2682,-0.7568 -0.0664,0.1092 -0.1355,0.2163 -0.2071,0.3214 0.3979,0.1317 0.6216,0.2799 0.6216,0.4363 0,0.1581 -0.2289,0.3074 -0.6352,0.4401 z m -0.2378,-0.9512 c 0.0717,-0.1024 0.1407,-0.2068 0.2071,-0.3134 -0.1493,-0.0374 -0.3081,-0.0737 -0.4756,-0.1086 -0.397,-0.0829 -0.8411,-0.1561 -1.3227,-0.2177 -0.043,0.1139 -0.0881,0.2265 -0.135,0.338 0.6966,0.0799 1.2858,0.1829 1.7262,0.3017 z"
         id="path20"
         inkscape:connector-curvature="0"
         style="fill:#fff000;fill-rule:nonzero" />
      <path
         class="fil4"
         d="m 120.231,139.645 c -0.0533,2.0466 -0.1346,4.0303 1.0708,3.0931 0.2223,-0.1729 0.2414,0.0389 0.2088,0.1811 -0.4557,1.9848 0.8845,3.1896 1.301,1.8364 0.2507,-0.8146 0.6782,-0.6665 0.759,0.1012 0.3105,2.9474 0.2427,5.7904 -0.3036,8.5008 -0.322,1.5977 1.9274,2.4823 2.0836,0.506 0.2384,-3.0149 0.1447,-6.0399 -0.3632,-9.0574 -0.0691,-0.4109 0.1835,-0.458 0.3542,-0.1518 0.283,0.5078 0.9089,0.4593 0.8602,-0.1012 -0.0249,-0.2873 -0.1758,-0.4747 -0.2391,-0.7623 -0.1351,-0.6139 0.5216,-0.8103 0.7451,-0.2497 0.7804,1.9578 1.0328,4.0028 0.9063,6.1226 -0.1054,1.7678 2.1146,1.7473 1.9273,0.1012 -0.3608,-3.1713 -1.2911,-5.625 -2.3941,-7.8436 -0.2094,-0.4213 -0.0284,-0.8642 0.2345,-0.888 0.5556,-0.0503 0.671,-0.5303 -0.1829,-1.0752 -0.4036,-0.2576 -0.7968,-0.4497 -0.8442,-0.8716 l -3.7961,-0.6869 -2.3276,1.2453 z"
         id="path22"
         inkscape:connector-curvature="0"
         style="fill:#000000" />
      <ellipse
         class="fil4"
         cx="120.18"
         cy="139.215"
         rx="6.1752"
         ry="0.99650002"
         id="ellipse24"
         sodipodi:cx="120.18"
         sodipodi:cy="139.215"
         sodipodi:rx="6.1752"
         sodipodi:ry="0.99650002"
         style="fill:#000000"
         d="m 126.3552,139.215 c 0,0.55035 -2.76473,0.9965 -6.1752,0.9965 -3.41047,0 -6.1752,-0.44615 -6.1752,-0.9965 0,-0.55036 2.76473,-0.9965 6.1752,-0.9965 3.41047,0 6.1752,0.44614 6.1752,0.9965 z" />
      <path
         class="fil4"
         d="m 110.451,144.074 c -0.1818,0.622 -0.34,1.2779 -0.4716,1.9613 0.5752,0.3706 1.2738,0.6997 2.0753,0.9793 4.5961,1.6032 11.6546,1.6032 16.251,3e-4 0.8018,-0.2796 1.5005,-0.6088 2.0759,-0.9795 -0.1316,-0.6834 -0.2898,-1.3391 -0.4715,-1.9612 -0.4278,0.3991 -1.2032,0.7947 -2.2278,1.1521 -4.1829,1.4587 -10.8216,1.4587 -15.0042,-3e-4 -1.0244,-0.3573 -1.7994,-0.7531 -2.2271,-1.152 z m -0.7848,9.5109 c 0.0877,0.8859 0.2165,1.737 0.3817,2.5442 0.4425,0.2337 0.9337,0.4488 1.4686,0.6427 4.8875,1.7717 12.4253,1.7716 17.313,2e-4 0.5416,-0.1963 1.0385,-0.4143 1.4853,-0.6513 0.1655,-0.8101 0.2943,-1.6645 0.3818,-2.5538 -0.4408,0.5016 -1.3219,0.9922 -2.5129,1.4239 -4.4625,1.6173 -11.5592,1.6173 -16.0214,-2e-4 -1.1763,-0.4264 -2.0503,-0.9106 -2.4961,-1.4057 z"
         id="path26"
         inkscape:connector-curvature="0"
         style="fill:#000000" />
      <path
         class="fil5"
         d="m 79.1518,163.833 10.0427,-13.8226 -7.9797,-10.9832 8.2431,0 0,-2.8508 -2.5479,0 0,-2.2316 2.5479,0 0,-2.5479 2.2316,0 0,2.5479 2.5478,0 0,2.2316 -2.5478,0 0,2.8509 8.243,0 -7.9796,10.9831 10.0427,13.8226 -2.7584,0 -8.6635,-11.9243 -8.6634,11.9243 -2.7585,0 z m 6.443,-22.5738 4.9789,6.8529 4.979,-6.8529 -9.9579,0 z"
         id="path28"
         inkscape:connector-curvature="0"
         style="fill:#ffffff" />
      <path
         class="fil5"
         d="m 86.2792,148.434 c -0.0334,2.1799 -1.8114,3.9377 -3.9992,3.9377 -2.1878,0 -3.9658,-1.7578 -3.9992,-3.9377 0.8403,1.1164 2.3173,1.8577 3.9992,1.8577 1.6819,0 3.1589,-0.7413 3.9992,-1.8577 z"
         id="path30"
         inkscape:connector-curvature="0"
         style="fill:#ffffff" />
    </g>
  </g>
</svg>
