<?xml version="1.0" encoding="UTF-8" standalone="no"?>
<!-- Creator: CorelDRAW -->

<svg
   xmlns:dc="http://purl.org/dc/elements/1.1/"
   xmlns:cc="http://creativecommons.org/ns#"
   xmlns:rdf="http://www.w3.org/1999/02/22-rdf-syntax-ns#"
   xmlns:svg="http://www.w3.org/2000/svg"
   xmlns="http://www.w3.org/2000/svg"
   xmlns:xlink="http://www.w3.org/1999/xlink"
   xmlns:sodipodi="http://sodipodi.sourceforge.net/DTD/sodipodi-0.dtd"
   xmlns:inkscape="http://www.inkscape.org/namespaces/inkscape"
   xml:space="preserve"
   width="300"
   height="360"
   style="fill-rule:evenodd"
   viewBox="0 0 84.666667 101.6"
   id="svg2"
   version="1.1"
   inkscape:version="0.48.1 "
   sodipodi:docname="с_дороги.svg"><metadata
   id="metadata97"><rdf:RDF><cc:Work
       rdf:about=""><dc:format>image/svg+xml</dc:format><dc:type
         rdf:resource="http://purl.org/dc/dcmitype/StillImage" /></cc:Work></rdf:RDF></metadata><sodipodi:namedview
   pagecolor="#ffffff"
   bordercolor="#666666"
   borderopacity="1"
   objecttolerance="10"
   gridtolerance="10"
   guidetolerance="10"
   inkscape:pageopacity="0"
   inkscape:pageshadow="2"
   inkscape:window-width="1280"
   inkscape:window-height="750"
   id="namedview95"
   showgrid="false"
   fit-margin-top="0"
   fit-margin-left="0"
   fit-margin-right="0"
   fit-margin-bottom="0"
   inkscape:zoom="1.475"
   inkscape:cx="150"
   inkscape:cy="180"
   inkscape:window-x="-8"
   inkscape:window-y="-8"
   inkscape:window-maximized="1"
   inkscape:current-layer="svg2" />
 <defs
   id="defs4"><linearGradient
     inkscape:collect="always"
     id="linearGradient4284"><stop
       style="stop-color:#efea44;stop-opacity:1;"
       offset="0"
       id="stop4286" /><stop
       style="stop-color:#efea44;stop-opacity:0;"
       offset="1"
       id="stop4288" /></linearGradient><linearGradient
     inkscape:collect="always"
     id="linearGradient4257"><stop
       style="stop-color:#efea44;stop-opacity:1;"
       offset="0"
       id="stop4259" /><stop
       style="stop-color:#efea44;stop-opacity:0;"
       offset="1"
       id="stop4261" /></linearGradient><linearGradient
     inkscape:collect="always"
     id="linearGradient4246"><stop
       style="stop-color:#efea44;stop-opacity:1;"
       offset="0"
       id="stop4248" /><stop
       style="stop-color:#efea44;stop-opacity:0;"
       offset="1"
       id="stop4250" /></linearGradient><linearGradient
     inkscape:collect="always"
     id="linearGradient4238"><stop
       style="stop-color:#efea44;stop-opacity:1;"
       offset="0"
       id="stop4240" /><stop
       style="stop-color:#efea44;stop-opacity:0;"
       offset="1"
       id="stop4242" /></linearGradient><linearGradient
     inkscape:collect="always"
     id="linearGradient4230"><stop
       style="stop-color:#efea44;stop-opacity:1;"
       offset="0"
       id="stop4232" /><stop
       style="stop-color:#efea44;stop-opacity:0;"
       offset="1"
       id="stop4234" /></linearGradient><linearGradient
     inkscape:collect="always"
     id="linearGradient4222"><stop
       style="stop-color:#efea44;stop-opacity:1;"
       offset="0"
       id="stop4224" /><stop
       style="stop-color:#efea44;stop-opacity:0;"
       offset="1"
       id="stop4226" /></linearGradient><linearGradient
     y2="145.17101"
     x2="38.490002"
     y1="151.65401"
     x1="30.100401"
     gradientUnits="userSpaceOnUse"
     id="linearGradient3950">
   <stop
   id="stop3952"
   style="stop-color:#EFEA44"
   offset="0" />
   <stop
   id="stop3954"
   style="stop-color:#e9cf35;stop-opacity:1"
   offset="1" />
  </linearGradient><linearGradient
     y2="145.17101"
     x2="38.490002"
     y1="151.65401"
     x1="30.100401"
     gradientUnits="userSpaceOnUse"
     id="linearGradient3944">
   <stop
   id="stop3946"
   style="stop-color:#EFEA44"
   offset="0" />
   <stop
   id="stop3948"
   style="stop-color:#e9cf1a;stop-opacity:1"
   offset="1" />
  </linearGradient><linearGradient
     id="linearGradient3938"
     gradientUnits="userSpaceOnUse"
     x1="94.658096"
     y1="197.46899"
     x2="98.669899"
     y2="194.55099">
   <stop
   offset="0"
   style="stop-color:#e9cf1a;stop-opacity:1"
   id="stop3940" />
   
   <stop
   offset="1"
   style="stop-color:#EFEA44"
   id="stop3942" />
  </linearGradient><linearGradient
     y2="145.17101"
     x2="38.490002"
     y1="151.65401"
     x1="30.100401"
     gradientUnits="userSpaceOnUse"
     id="linearGradient3924">
   <stop
   id="stop3926"
   style="stop-color:#EFEA44"
   offset="0" />
   <stop
   id="stop3928"
   style="stop-color:#e9cf1a;stop-opacity:1"
   offset="1" />
  </linearGradient><linearGradient
     y2="194.55099"
     x2="98.669899"
     y1="197.46899"
     x1="94.658096"
     gradientUnits="userSpaceOnUse"
     id="linearGradient3916">
   <stop
   id="stop3918"
   style="stop-color:#EFEA44"
   offset="0" /><stop
   offset="0.5"
   style="stop-color:#e9cf1a;stop-opacity:1"
   id="stop3920" />
   
   <stop
   id="stop3922"
   style="stop-color:#EFEA44"
   offset="1" />
  </linearGradient><linearGradient
     y2="145.17101"
     x2="38.490002"
     y1="151.65401"
     x1="30.100401"
     gradientUnits="userSpaceOnUse"
     id="linearGradient3904">
   <stop
   id="stop3906"
   style="stop-color:#EFEA44"
   offset="0" />
   <stop
   id="stop3908"
   style="stop-color:#e9cf1a;stop-opacity:1"
   offset="1" />
  </linearGradient><linearGradient
     y2="145.17101"
     x2="38.490002"
     y1="151.65401"
     x1="30.100401"
     gradientUnits="userSpaceOnUse"
     id="linearGradient3898">
   <stop
   id="stop3900"
   style="stop-color:#EFEA44"
   offset="0" />
   <stop
   id="stop3902"
   style="stop-color:#e9cf1a;stop-opacity:1"
   offset="1" />
  </linearGradient><linearGradient
     y2="145.17101"
     x2="38.490002"
     y1="151.65401"
     x1="30.100401"
     gradientUnits="userSpaceOnUse"
     id="linearGradient3892">
   <stop
   id="stop3894"
   style="stop-color:#EFEA44"
   offset="0" />
   <stop
   id="stop3896"
   style="stop-color:#e9cf1a;stop-opacity:1"
   offset="1" />
  </linearGradient><linearGradient
     y2="145.17101"
     x2="38.490002"
     y1="151.65401"
     x1="30.100401"
     gradientUnits="userSpaceOnUse"
     id="linearGradient3886">
   <stop
   id="stop3888"
   style="stop-color:#EFEA44"
   offset="0" />
   <stop
   id="stop3890"
   style="stop-color:#e9cf1a;stop-opacity:1"
   offset="1" />
  </linearGradient><linearGradient
     y2="145.17101"
     x2="38.490002"
     y1="151.65401"
     x1="30.100401"
     gradientUnits="userSpaceOnUse"
     id="linearGradient3879">
   <stop
   id="stop3881"
   style="stop-color:#EFEA44"
   offset="0" />
   <stop
   id="stop3884"
   style="stop-color:#e9cf1a;stop-opacity:1"
   offset="1" />
  </linearGradient><linearGradient
     y2="176.84"
     x2="164.239"
     y1="218.569"
     x1="60.051998"
     gradientUnits="userSpaceOnUse"
     id="linearGradient3871">
   <stop
   id="stop3873"
   style="stop-color:#e9cf1a;stop-opacity:1"
   offset="0" />
   <stop
   id="stop3875"
   style="stop-color:#EFEA44"
   offset="0.478431" />
   <stop
   id="stop3877"
   style="stop-color:#e9cf1a;stop-opacity:1"
   offset="1" />
  </linearGradient><linearGradient
     y2="194.55099"
     x2="98.669899"
     y1="197.46899"
     x1="94.658096"
     gradientUnits="userSpaceOnUse"
     id="linearGradient3863">
   <stop
   id="stop3865"
   style="stop-color:#EFEA44"
   offset="0" /><stop
   offset="0.5"
   style="stop-color:#e9cf1a;stop-opacity:1"
   id="stop3867" />
   
   <stop
   id="stop3869"
   style="stop-color:#EFEA44"
   offset="1" />
  </linearGradient><linearGradient
     y2="176.84"
     x2="164.239"
     y1="218.569"
     x1="60.051998"
     gradientUnits="userSpaceOnUse"
     id="linearGradient3855">
   <stop
   id="stop3857"
   style="stop-color:#e9cf1a;stop-opacity:1"
   offset="0" />
   <stop
   id="stop3859"
   style="stop-color:#EFEA44"
   offset="0.478431" />
   <stop
   id="stop3861"
   style="stop-color:#e9cf1a;stop-opacity:1"
   offset="1" />
  </linearGradient><style
     type="text/css"
     id="style6">
   
    .fil0 {fill:black;fill-rule:nonzero}
    .fil1 {fill:#CE2123;fill-rule:nonzero}
    .fil6 {fill:#EDC735;fill-rule:nonzero}
    .fil2 {fill:#EFEA44;fill-rule:nonzero}
    .fil4 {fill:url(#id0);fill-rule:nonzero}
    .fil5 {fill:url(#id1);fill-rule:nonzero}
    .fil3 {fill:url(#id2);fill-rule:nonzero}
   
  </style><linearGradient
     id="id1"
     gradientUnits="userSpaceOnUse"
     x1="30.100401"
     y1="151.65401"
     x2="38.490002"
     y2="145.17101">
   <stop
   offset="0"
   style="stop-color:#EFEA44"
   id="stop16" />
   <stop
   offset="1"
   style="stop-color:#EDC735"
   id="stop18" />
  </linearGradient><linearGradient
     inkscape:collect="always"
     xlink:href="#linearGradient3904"
     id="linearGradient4147"
     gradientUnits="userSpaceOnUse"
     x1="30.100401"
     y1="151.65401"
     x2="36.224979"
     y2="146.96385"
     gradientTransform="matrix(0.47732958,0,0,0.47740772,-7.7862492,-20.095237)" /><linearGradient
     inkscape:collect="always"
     xlink:href="#linearGradient3855"
     id="linearGradient4150"
     gradientUnits="userSpaceOnUse"
     x1="60.051998"
     y1="218.569"
     x2="164.239"
     y2="176.84"
     gradientTransform="matrix(0.47732958,0,0,0.47740772,-7.7862492,-20.095237)" /><linearGradient
     inkscape:collect="always"
     xlink:href="#linearGradient3863"
     id="linearGradient4154"
     gradientUnits="userSpaceOnUse"
     x1="77.424408"
     y1="186.24706"
     x2="132.73648"
     y2="209.37997"
     gradientTransform="matrix(0.47732958,0,0,0.47740772,-7.7862492,-20.095237)" /><linearGradient
     inkscape:collect="always"
     xlink:href="#linearGradient3898"
     id="linearGradient4158"
     gradientUnits="userSpaceOnUse"
     x1="40.923122"
     y1="166.29135"
     x2="45.89151"
     y2="161.29025"
     gradientTransform="matrix(0.47732958,0,0,0.47740772,-7.7862492,-20.095237)" /><linearGradient
     inkscape:collect="always"
     xlink:href="#id1"
     id="linearGradient4164"
     gradientUnits="userSpaceOnUse"
     x1="29.625141"
     y1="132.7334"
     x2="59.894798"
     y2="132.7334"
     gradientTransform="matrix(0.47732958,0,0,0.47740772,-7.7862492,-20.095237)" /><linearGradient
     inkscape:collect="always"
     xlink:href="#linearGradient3886"
     id="linearGradient4167"
     gradientUnits="userSpaceOnUse"
     x1="167.59891"
     y1="163.03683"
     x2="173.49301"
     y2="159.27959"
     gradientTransform="matrix(0.47732958,0,0,0.47740772,-7.7862492,-20.095237)" /><linearGradient
     inkscape:collect="always"
     xlink:href="#linearGradient3892"
     id="linearGradient4170"
     gradientUnits="userSpaceOnUse"
     x1="149.30632"
     y1="163.34433"
     x2="154.85059"
     y2="160.6747"
     gradientTransform="matrix(0.47732958,0,0,0.47740772,-7.7862492,-20.095237)" /><linearGradient
     inkscape:collect="always"
     xlink:href="#linearGradient3879"
     id="linearGradient4173"
     gradientUnits="userSpaceOnUse"
     x1="152.25555"
     y1="159.33435"
     x2="121.73776"
     y2="129.27559"
     gradientTransform="matrix(0.47732958,0,0,0.47740772,-7.7862492,-20.095237)" /><linearGradient
     inkscape:collect="always"
     xlink:href="#linearGradient3898"
     id="linearGradient4176"
     gradientUnits="userSpaceOnUse"
     x1="68.413284"
     y1="73.984383"
     x2="38.478188"
     y2="73.984383"
     gradientTransform="matrix(0.47732958,0,0,0.47740772,-7.7862492,-20.095237)" /><linearGradient
     inkscape:collect="always"
     xlink:href="#linearGradient3871"
     id="linearGradient4179"
     gradientUnits="userSpaceOnUse"
     x1="156.8166"
     y1="68.690247"
     x2="142.95831"
     y2="107.37981"
     gradientTransform="matrix(0.47732958,0,0,0.47740772,-7.7862492,-20.095237)" /><linearGradient
     inkscape:collect="always"
     xlink:href="#linearGradient3924"
     id="linearGradient4182"
     gradientUnits="userSpaceOnUse"
     x1="105.72997"
     y1="76.750679"
     x2="74.305611"
     y2="76.750679"
     gradientTransform="matrix(0.47732958,0,0,0.47740772,-7.7862492,-20.095237)" /><radialGradient
     inkscape:collect="always"
     xlink:href="#linearGradient3938"
     id="radialGradient4185"
     gradientUnits="userSpaceOnUse"
     gradientTransform="matrix(0.24693387,0,0,0.23570543,7.0845123,-5.9030694)"
     cx="65.158539"
     cy="64.727409"
     fx="65.158539"
     fy="64.727409"
     r="9.4474802" /><linearGradient
     inkscape:collect="always"
     xlink:href="#linearGradient3950"
     id="linearGradient4188"
     gradientUnits="userSpaceOnUse"
     x1="60.866299"
     y1="69.340706"
     x2="66.145401"
     y2="69.340706"
     gradientTransform="matrix(0.47732958,0,0,0.47740772,-7.7862492,-20.095237)" /><linearGradient
     inkscape:collect="always"
     xlink:href="#linearGradient3916"
     id="linearGradient4191"
     gradientUnits="userSpaceOnUse"
     x1="73.685699"
     y1="74.997398"
     x2="120.04631"
     y2="74.997398"
     gradientTransform="matrix(0.47732958,0,0,0.47740772,-7.7862492,-20.095237)" /><radialGradient
     inkscape:collect="always"
     xlink:href="#linearGradient3944"
     id="radialGradient4195"
     gradientUnits="userSpaceOnUse"
     gradientTransform="matrix(1.080635,0,0,1.1656535,-48.888397,-63.400178)"
     cx="68.128258"
     cy="62.92075"
     fx="68.128258"
     fy="62.92075"
     r="6.2218456" /><style
     id="style4226"
     type="text/css">
   
    .str0 {stroke:#FF6600;stroke-width:0.7056}
    .fil1 {fill:none}
    .fil0 {fill:#A90000}
   
  </style><style
     id="style3261"
     type="text/css">
   
    .fil6 {fill:#1F1A17;fill-rule:nonzero}
    .fil0 {fill:black;fill-rule:nonzero}
    .fil1 {fill:#CE2123;fill-rule:nonzero}
    .fil2 {fill:#EFEA44;fill-rule:nonzero}
    .fil4 {fill:url(#id0);fill-rule:nonzero}
    .fil5 {fill:url(#id1);fill-rule:nonzero}
    .fil3 {fill:url(#id2);fill-rule:nonzero}
   
  </style><radialGradient
     inkscape:collect="always"
     xlink:href="#linearGradient4222"
     id="radialGradient4228"
     cx="24.210249"
     cy="19.182295"
     fx="24.210249"
     fy="19.182295"
     r="7.0239484"
     gradientTransform="matrix(0.23439351,0.87476861,-0.97670555,0.26170744,37.270979,-6.7460417)"
     gradientUnits="userSpaceOnUse" /><radialGradient
     inkscape:collect="always"
     xlink:href="#linearGradient4230"
     id="radialGradient4236"
     cx="25.439888"
     cy="35.621922"
     fx="25.439888"
     fy="35.621922"
     r="11.529224"
     gradientTransform="matrix(0.71876701,0.15457098,-0.12951335,0.60224716,11.089851,9.508285)"
     gradientUnits="userSpaceOnUse" /><radialGradient
     inkscape:collect="always"
     xlink:href="#linearGradient4238"
     id="radialGradient4244"
     cx="42.895252"
     cy="35.933823"
     fx="42.895252"
     fy="35.933823"
     r="11.487437"
     gradientTransform="matrix(0,0.91336049,-0.6111199,0,62.612875,-3.0666227)"
     gradientUnits="userSpaceOnUse" /><radialGradient
     inkscape:collect="always"
     xlink:href="#linearGradient4246"
     id="radialGradient4252"
     cx="57.141251"
     cy="32.917164"
     fx="57.141251"
     fy="32.917164"
     r="15.215553"
     gradientTransform="matrix(-0.01530161,-0.93100815,0.57165034,-0.00939537,39.198496,87.324662)"
     gradientUnits="userSpaceOnUse" /><linearGradient
     inkscape:collect="always"
     xlink:href="#linearGradient4257"
     id="linearGradient4263"
     x1="74.135765"
     y1="56.590092"
     x2="62.208355"
     y2="41.191799"
     gradientUnits="userSpaceOnUse" /><linearGradient
     inkscape:collect="always"
     xlink:href="#linearGradient4284"
     id="linearGradient4290"
     x1="15.865095"
     y1="48.746624"
     x2="25.665043"
     y2="44.396446"
     gradientUnits="userSpaceOnUse" /></defs>
 
<path
   style="fill:#a90000"
   inkscape:connector-curvature="0"
   class="fil0"
   d="m 62.583334,48.5501 c 0.828299,0 1.5,0.6717 1.5,1.5 l 0,1.4998 c 0,0.8283 -0.671701,1.5 -1.5,1.5 l -1.5,0 0,-4.4998 1.5,0 z m 0,5.9998 c 1.6566,0 3,-1.3434 3,-3 l 0,-1.4998 c 0,-1.6566 -1.3434,-3 -3,-3 l -3,0 0,7.4998 3,0 z m -6,-7.4998 1.5,0 0,7.4998 -1.5,0 0,-7.4998 z m -3,0 1.5,0 0,7.4998 -1.5,0 -3,-4.7086 0,4.7086 -1.5,0 0,-7.4998 1.5,0 3,4.7086 0,-4.7086 z m -22.5,10e-5 4.5,0 0,1.5 -3,0 0,1.4999 3,0 0,1.5 -3,0 0,1.4999 3,0 0,1.5 -4.5,0 0,-7.4998 z m -6,-2e-4 1.5,0 0,6 3,0 0,1.5 -4.5,0 0,-7.5 z m 15.750399,6 1.499601,0 c 1.242399,0 2.25,-1.0076 2.25,-2.25 0,-1.2424 -1.0263,-2.2457 -2.25,-2.25 l -1.499601,0 0,1.5 1.499601,0 c 0.414099,0 0.75,0.3359 0.75,0.75 0,0.4141 -0.335901,0.75 -0.75,0.75 l -1.499601,0 0,1.5 z m 1.499601,-7.5 c 2.899,0 5.25,2.351 5.25,5.25 0,2.899 -2.351,5.25 -5.25,5.25 -2.899001,0 -5.25,-2.351 -5.25,-5.25 0,-2.899 2.350999,-5.25 5.25,-5.25 z m 0,1.5 c 2.0707,0 3.75,1.6793 3.75,3.75 0,2.0707 -1.6793,3.75 -3.75,3.75 -2.070701,0 -3.75,-1.6793 -3.75,-3.75 0,-2.0707 1.679299,-3.75 3.75,-3.75 z"
   id="path4230" /><image
   id="image29"
   href="с_дороги_Images\с_дороги_ImgID1.png"
   height="101.05146"
   width="83.858688"
   y="0.27403218"
   x="0.40396246" /><path
   style="fill:#000000;fill-rule:nonzero"
   inkscape:connector-curvature="0"
   id="path31"
   d="M 8.101022e-4,-2.86672e-7 8.5783516e-4,51.108883 l -8.59193242e-4,0 C -1.358082e-6,74.196034 20.448464,94.824631 42.333357,101.6 64.218202,94.824869 84.666667,74.196273 84.666667,51.108883 l -9.55e-4,0 4.8e-5,-51.108883286672 -84.66490216484,0 z"
   class="fil0" /><path
   style="fill:#ce2123;fill-rule:nonzero"
   inkscape:connector-curvature="0"
   id="path33"
   d="m 0.68549165,0.68746683 4.773e-5,50.42141617 0.001814,0 0,9.55e-4 -0.001814,0 0,0.227819 c 0.0221004,3.698669 0.57966902,7.338807 1.59122592,10.869905 0.8411024,2.935819 1.994999,5.791338 3.4148158,8.538294 7.2978439,14.118379 21.6127199,25.421484 36.6432079,30.135074 2.95887,-0.928129 5.892156,-2.112912 8.751169,-3.525656 2.920112,-1.44287 5.765521,-3.126544 8.484343,-5.019608 13.912582,-9.687081 24.373975,-24.794791 24.410825,-41.14042 l 0,-0.08655 4.8e-5,-50.42141613 -83.29592101,0 z"
   class="fil1" /><path
   style="fill:#000000;fill-rule:nonzero"
   inkscape:connector-curvature="0"
   id="path35"
   d="m 27.637143,7.2204096 c 0.03399,0.4749729 -0.07432,0.929656 -0.386971,1.2974032 0.255896,0.4568314 0.798381,1.2849429 0.733655,1.8093272 -0.02697,0.218319 -0.161671,0.382499 -0.495229,0.437974 0.04754,0.265105 -0.0159,0.52343 -0.181386,0.736258 0.376948,0.376198 0.584061,0.906216 0.185204,1.3556 -0.319667,0.360013 -0.788596,0.456783 -1.240913,0.518035 0.106301,0.0049 0.214273,0.01213 0.3253,0.02153 0.237137,0.02019 0.473749,0.04865 0.711603,0.0845 L 37.532949,5.2271368 C 37.367602,4.7001742 37.329606,4.1153497 37.428079,3.600561 c 0.233939,-1.2228321 1.331845,-2.1874344 2.593284,-2.0584866 0.726448,0.074189 1.440819,0.4997981 1.737671,1.1867878 0.173986,0.4026457 0.199858,0.9145223 0.0092,1.3209872 -0.25203,0.536845 -0.76578,0.7359717 -1.291845,0.8991497 0.115562,-0.4387377 0.207305,-0.9590644 -0.371648,-1.1115961 -0.0652,-0.017187 -0.133796,-0.025828 -0.202818,-0.025828 l 0,-5.729e-4 -0.01709,1.91e-4 0,4.77e-5 c -0.196755,0.00482 -0.397711,0.092808 -0.551173,0.2293944 -0.08921,0.079441 -0.153127,0.1678566 -0.194511,0.2616195 0.166683,0.1345812 0.225204,0.4077062 0.0053,0.6043027 l -7.64e-4,6.683e-4 c 0.0068,0.017712 0.01413,0.035376 0.02201,0.05304 0.154225,0.3447839 0.493177,0.5422875 0.838763,0.6492745 0.93065,0.288593 2.349894,0.1529137 3.39305,0.053183 0.71776,-0.068603 1.423588,-0.1166307 2.145358,-0.045927 1.21194,0.1187313 2.297483,0.528013 3.072475,1.3576044 l 4.77e-4,5.728e-4 4.77e-4,6.207e-4 -4.7e-5,4.77e-5 c 0.846496,0.9072656 1.455616,2.5119285 1.059528,3.6958994 -0.149881,0.448047 -0.439095,0.840954 -0.508594,1.316404 l -9.6e-5,0 -0.0014,0.01055 c -0.0347,0.244433 -0.04988,0.515982 -0.0536,0.797223 l 1.310031,-0.07748 -0.434083,-1.010625 4.465513,1.19605 -4.178161,1.666296 c 0.02038,0.168573 -0.01838,0.346025 -0.132698,0.502663 0.231028,0.350942 0.08606,0.869025 -0.30339,1.023896 0.03446,0.06569 0.05776,0.137875 0.06859,0.21216 l 9.5e-5,0 c 0.03919,0.269163 -0.08673,0.5399 -0.33814,0.657486 0.192268,0.392047 0.05862,0.879576 -0.418475,0.948896 l -0.0231,0.0032 c -0.01694,0.51603 -0.02291,1.105772 0.03327,1.501448 l 0.0014,0.01055 9.6e-5,0 c 0.0695,0.475451 0.358713,0.868357 0.508594,1.316404 0.396089,1.183971 -0.213032,2.788634 -1.059528,3.6959 l 4.8e-5,4.8e-5 -4.78e-4,6.2e-4 -4.77e-4,5.73e-4 c -0.774992,0.829592 -1.860535,1.238873 -3.072475,1.357604 -0.72177,0.0707 -1.427597,0.02268 -2.145358,-0.04593 -1.043156,-0.09973 -2.4624,-0.23541 -3.393049,0.05318 -0.277424,0.08589 -0.550457,0.229967 -0.727164,0.461844 0.159571,0.228106 0.01823,0.498844 -0.196946,0.574751 0.0033,0.194496 0.08186,0.379683 0.253271,0.53231 0.153461,0.136586 0.354417,0.224573 0.551172,0.229394 l 0,4.8e-5 0.01709,1.91e-4 0,-5.73e-4 c 0.06902,0 0.137614,-0.0086 0.202817,-0.02583 0.578953,-0.152532 0.48721,-0.672859 0.371649,-1.111597 0.526065,0.163178 1.039814,0.362305 1.291844,0.89915 0.190646,0.406465 0.164775,0.918342 -0.0092,1.320987 -0.296851,0.68699 -1.011223,1.112599 -1.737671,1.186788 -1.261439,0.128948 -2.359344,-0.835654 -2.593283,-2.058487 -0.123772,-0.647126 -0.03193,-1.404819 0.257614,-2.019339 L 31.23678,19.701327 c -0.821245,1.349823 -1.688696,2.681313 -2.696816,3.900421 l 0.196135,3.560555 c 1.827456,0.02688 3.987611,0.618529 5.073631,2.055097 1.779914,0.637053 3.793195,0.868548 5.941321,0.861005 2.206504,-0.0078 4.558402,-0.26859 6.947151,-0.601486 0.543821,-0.806676 1.614615,-1.392217 2.757533,-1.70955 2.115715,-0.587545 4.471384,-0.196166 6.493114,0.512307 0.874945,0.306448 1.717814,0.695774 2.528844,1.143296 0.751794,0.12952 1.717814,0.239993 2.368271,0.252119 0.782104,0.01466 1.559006,-0.06034 2.306791,-0.255366 0.476852,-0.124269 0.804491,-0.497029 0.923203,-0.972384 0.199523,-0.798225 -0.151743,-1.369301 -0.626639,-1.955271 1.082679,0.221565 2.142924,0.8125 2.2445,2.116301 0.786448,-0.486001 1.544065,-1.208749 1.792324,-2.12203 -1.068168,0.442987 -2.319058,0.383645 -3.243263,-0.383501 l -0.0024,0 -0.04048,-0.03471 -3.34e-4,-2.86e-4 -4.78e-4,0 C 64.03042,25.922714 63.878486,25.756051 63.74598,25.577691 l -0.0014,-0.0019 c -0.187304,-0.252501 -0.335515,-0.535221 -0.436709,-0.832885 -0.259476,-0.76242 -0.217233,-1.62629 0.187543,-2.395537 l 1.91e-4,9.6e-5 c 0.0088,-0.01695 0.0159,-0.02993 0.02172,-0.04058 0.386351,-0.707423 1.033801,-1.212281 1.772707,-1.440864 0.738858,-0.228583 1.569698,-0.18132 2.322733,0.21512 l 4.78e-4,5.25e-4 0.04105,0.02201 9.55e-4,5.73e-4 c 0.48153,0.2631 0.83609,0.607311 1.091223,1.001459 0.173652,0.268255 0.300765,0.559378 0.390551,0.863248 0.320145,-0.900868 0.331553,-2.115489 -0.512939,-2.748532 l -0.0024,-0.0018 -2.39e-4,3.35e-4 c -0.109213,-0.08164 -0.22635,-0.152819 -0.348832,-0.212924 -0.124058,-0.06092 -0.255706,-0.111952 -0.39227,-0.152532 -0.699192,-0.207672 -1.510366,-0.134247 -2.100154,0.282005 l -0.400432,0.282625 0.186158,-0.453824 9.55e-4,-0.0019 4.77e-4,-0.0017 c 0.04778,-0.112572 0.103629,-0.220801 0.166588,-0.323778 0.06234,-0.101926 0.13265,-0.199938 0.20993,-0.29308 l -3.34e-4,-2.87e-4 c 0.249595,-0.300862 0.56721,-0.541141 0.924539,-0.699593 -0.06492,1.43e-4 -0.129499,0.0031 -0.1937,0.0088 -0.69924,0.06283 -1.35175,0.453585 -1.72273,1.076364 l -0.221815,0.37233 -0.04277,-0.431624 c -0.0432,-0.436065 0.02157,-0.835177 0.165729,-1.186359 0.182531,-0.444418 0.491745,-0.810495 0.869742,-1.076363 0.376661,-0.264866 0.822678,-0.430956 1.280198,-0.476262 0.251982,-0.02497 0.50764,-0.01322 0.757474,0.03858 -0.393844,-0.498366 -0.854229,-0.876187 -1.379673,-1.145111 -0.584061,-0.298952 -1.251033,-0.465377 -1.998197,-0.515075 0.16191,0.08832 0.36931,0.110568 0.545015,0.147806 -0.691842,0.545438 -1.16688,0.631324 -2.017529,0.392906 -0.465253,-0.128231 -0.961628,-0.265152 -1.597193,0.01881 -0.139857,0.161125 -0.283724,0.318288 -0.455706,0.446329 -0.214703,0.159836 -0.464251,0.272886 -0.721007,0.266441 -0.323629,-0.0081 -0.565874,-0.17392 -0.694848,-0.46046 -0.110645,-0.246008 -0.163772,-0.595518 -0.135562,-0.893134 -0.712032,0.112811 -1.226498,0.33872 -1.826645,0.886403 0.432556,-1.45533 1.082106,-1.814818 2.38746,-1.89445 -0.123104,-0.0018 -0.249596,-0.01184 -0.380241,-0.03294 -0.09948,-0.01604 -0.213223,-0.08059 -0.329119,-0.177452 -0.202578,-0.169432 -0.432651,-0.451867 -0.603058,-0.740603 -0.177614,-0.301005 -0.29351,-0.617861 -0.257281,-0.842624 0.01227,-0.076 0.04043,-0.143223 0.08683,-0.198745 l 0.0014,-0.0017 0.0088,-0.01017 0.0019,-0.0022 c 0.369596,-0.410236 1.607311,-0.328647 2.488223,-0.270595 0.239285,0.01576 0.451124,0.02984 0.603583,0.0318 0.26721,-0.396821 0.799098,-0.570932 1.402156,-0.631945 0.608022,-0.06154 1.29132,-0.0092 1.832325,0.04034 l 0.0033,2.87e-4 c 0.194894,0.018 0.385778,0.05323 0.576089,0.08832 0.463726,0.0855 0.925399,0.170626 1.360438,-0.02349 0.338522,-0.151004 0.624251,-0.421122 0.900768,-0.682455 l 0.03174,-0.02998 0.135275,-0.127754 0.0885,0.164133 c 0.03967,0.07362 0.07451,0.148855 0.104344,0.224954 0.145872,0.372044 0.173509,0.767863 0.0769,1.119139 -0.079,0.2874 -0.240192,0.544531 -0.486447,0.735065 0.0737,0.0012 0.148784,-0.0044 0.225873,-0.01824 l 9.5e-5,5.73e-4 c 0.216183,-0.03877 0.453654,-0.142268 0.731173,-0.338196 l 0.223247,-0.15764 0.0014,0.273984 1.44e-4,0.02487 0,5.73e-4 c 9.5e-5,0.26668 -0.04487,0.516555 -0.134941,0.736211 -0.02969,0.07252 -0.06492,0.142506 -0.105347,0.209295 -0.152841,0.252215 -0.376183,0.447713 -0.669693,0.560047 0.207542,0.09448 0.450026,0.137016 0.66554,0.101115 l 0.226923,-0.03781 -0.06697,0.220181 -3.34e-4,0.0011 0,5.73e-4 c -0.01862,0.06073 -0.04143,0.118063 -0.06811,0.17158 -0.02721,0.05452 -0.05904,0.107083 -0.09528,0.157067 -0.135179,0.186762 -0.329357,0.33452 -0.570695,0.429667 0.03064,0.02693 0.061,0.054 0.09098,0.08159 0.09718,0.08947 0.193605,0.184471 0.288116,0.283676 0.409883,0.430383 0.780768,0.938679 1.043156,1.439146 0.23308,-0.407468 0.585779,-0.714107 0.992034,-0.907362 0.299716,-0.142554 0.629741,-0.223522 0.962917,-0.237749 0.332747,-0.01423 0.669264,0.03862 0.982488,0.163322 0.492938,0.196262 0.926831,0.569642 1.197429,1.138712 l 0.186349,0.391952 -0.382675,-0.205094 -0.0014,-7.16e-4 c -0.11327,-0.06039 -0.231218,-0.109183 -0.351983,-0.146374 -0.119619,-0.03685 -0.24277,-0.06235 -0.367496,-0.07658 -0.429931,-0.04908 -0.869647,0.03877 -1.248646,0.25231 0.562342,-0.05753 1.140245,0.08966 1.607741,0.42876 l 0.260097,0.188719 -0.314369,0.06698 c -1.715761,0.365694 -1.714043,1.419285 -1.712277,2.514363 3.82e-4,0.239324 9.55e-4,0.480654 -0.01432,0.71382 -0.04105,0.635477 -0.106731,1.201492 -0.263915,1.73003 -0.267782,0.900296 -0.959862,1.719241 -1.615761,2.366462 -0.03685,0.491969 -0.145872,0.977063 -0.323486,1.437571 -0.461578,1.196001 -1.359148,2.176836 -2.464071,2.869363 0.45795,0.297139 0.786592,0.752538 0.942201,1.262075 0.248498,0.81398 0.0024,1.457287 -0.397806,2.124894 l -0.07804,-0.348364 c -0.0127,-0.05667 -0.02663,-0.112096 -0.04157,-0.165947 -0.202388,-0.727474 -0.603488,-1.158287 -1.110889,-1.370542 -0.517569,-0.216505 -1.150508,-0.212256 -1.801394,-0.06631 -0.335324,0.07505 -0.661197,0.171246 -1.001486,0.231017 -0.546876,0.0962 -1.146498,0.152007 -1.74273,0.171581 0.51165,0.594945 0.950984,1.292772 1.372609,2.168911 0.347066,0.721172 0.667689,1.518347 0.946354,2.434779 0.2716,0.893278 0.502675,1.897505 0.678762,3.051686 0.268641,0.08794 0.564061,0.193159 0.86559,0.321391 0.335133,0.142458 0.679669,0.313943 1.006879,0.522379 0.134416,0.0856 0.256851,0.184757 0.379429,0.28401 0.209691,0.169766 0.420336,0.340296 0.662724,0.41291 0.401244,0.120354 0.879146,0.05867 1.348695,-0.0019 0.47795,-0.06159 1.019385,-0.112763 1.503302,-0.03141 0.55733,0.09376 1.011461,0.436923 1.255615,1.780922 0.311792,1.716089 0.924731,3.080234 1.866693,3.86304 0.180001,0.149572 0.372938,0.278281 0.578762,0.384265 0.204488,0.105316 0.421912,0.188003 0.652319,0.246199 l 9.55e-4,2.87e-4 c 1.256236,0.316951 2.093138,0.886212 2.40092,1.598265 0.166922,0.38608 0.137041,0.747812 0.06936,1.154325 -0.365921,-0.284201 -0.854038,-0.676392 -1.362156,-0.530735 0.60745,0.313753 1.112703,0.787532 1.436953,1.323518 0.198808,0.328647 0.330312,0.682359 0.376518,1.038839 0.138712,1.069871 -0.515278,1.765501 -1.378576,2.287786 0.05236,-0.462513 0.148832,-1.10921 -0.278188,-1.427784 -0.296803,-0.221517 -0.704013,-0.06994 -0.752939,0.305398 -0.042,0.322011 0.149643,0.801615 0.799575,1.393076 0.665588,0.504667 1.036569,1.238109 0.94979,1.979141 -0.09065,0.774976 -0.704157,1.428881 -1.300294,1.864707 -0.457424,0.334472 -0.959671,0.56611 -1.470891,0.801615 -0.438904,0.202469 -1.157047,0.533647 -1.540008,0.339103 l 9.5e-5,-2.39e-4 -1.91e-4,-9.5e-5 -9.54e-4,-4.78e-4 c -0.372604,-0.190485 -0.395515,-1.61254 -0.359716,-2.7323 0.02229,-0.703698 0.0473,-1.411121 0.131027,-2.110667 0.05671,-0.47144 -0.123676,-1.044425 -0.314799,-1.651353 -0.18191,-0.577902 -0.322627,-1.148452 -0.441911,-1.745259 -0.06306,-0.315042 -0.122197,-0.610509 -0.189739,-0.853844 l 0,-4.78e-4 -2.86e-4,-9.54e-4 -1.43e-4,4.7e-5 c -0.563249,-2.026357 -1.586883,-3.395467 -2.866603,-4.322879 -1.284112,-0.930563 -2.829658,-1.42024 -4.429332,-1.68396 -0.391506,-0.06459 -0.763394,-0.11009 -1.118909,-0.141886 0.346351,1.466501 0.943347,2.568502 1.812087,3.216057 0.172029,0.128232 0.355228,0.238943 0.549454,0.331226 0.194034,0.09214 0.399572,0.16609 0.616423,0.220849 l 9.55e-4,2.86e-4 c 1.258432,0.317524 2.09624,0.967562 2.402591,1.722535 0.161289,0.397442 0.136945,0.764234 0.06768,1.180295 -0.371076,-0.281527 -0.857905,-0.658297 -1.362156,-0.530734 0.892416,0.460937 1.68063,1.337314 1.813471,2.362357 0.138712,1.06987 -0.515277,1.765501 -1.378576,2.287785 0.05241,-0.46256 0.148927,-1.109114 -0.278187,-1.427783 -0.296756,-0.221517 -0.704014,-0.06989 -0.75294,0.305398 -0.165251,1.267183 1.938054,1.760775 1.749365,3.372217 -0.09064,0.774976 -0.704109,1.428833 -1.300293,1.864707 -0.574085,0.419784 -1.277859,0.74509 -1.945405,1.009144 -0.76578,0.303058 -1.182441,0.364883 -1.338957,-0.440934 -0.171743,-0.884016 -0.07757,-2.517896 -0.03742,-3.214816 0.0059,-0.10269 0.01074,-0.184995 0.01289,-0.231542 l 0,-4.78e-4 c 0.01294,-0.275512 0.03532,-0.550546 0.06812,-0.824435 0.05671,-0.47144 -0.123676,-1.044425 -0.314799,-1.651354 -0.05742,-0.182417 -0.115895,-0.367985 -0.167781,-0.549257 l -9.55e-4,-0.0029 c -0.114988,-0.40212 -0.197089,-0.811927 -0.273271,-1.192994 -0.06305,-0.315041 -0.122196,-0.610509 -0.189738,-0.853843 l 0,-4.78e-4 -2.87e-4,-9.55e-4 -1.43e-4,4.8e-5 c -0.563249,-2.026309 -1.586834,-3.395419 -2.86665,-4.322879 -1.284065,-0.930563 -2.829658,-1.42024 -4.429285,-1.68396 -1.40712,-0.23202 -2.562544,-0.233596 -3.605127,-0.234933 -0.807928,-9.54e-4 -1.549316,-0.0019 -2.289177,-0.107512 -0.589645,-0.08412 -1.217,-0.336811 -1.853232,-0.720886 -0.11833,-0.07142 -0.241624,-0.150765 -0.369406,-0.237462 -0.07757,-0.05266 -0.154941,-0.106987 -0.232077,-0.162892 -2.245931,0.872033 -4.415156,1.668636 -6.620848,2.067271 -1.857337,0.335618 -3.825892,0.252692 -5.688146,0.174254 -1.470938,-0.06197 -2.875147,-0.121214 -4.093769,0.03289 0.0017,0.06421 0.0046,0.127707 0.0077,0.189627 0.03103,0.63204 0.05599,1.141434 -1.065638,1.2066 -0.642343,0.03719 -1.283062,-0.06583 -1.906025,-0.214117 -0.598333,-0.142554 -1.199481,-0.03036 -1.809079,0.08335 -0.150693,0.02812 -0.302054,0.05638 -0.449597,0.0804 l -5.25e-4,0 -0.0012,1.91e-4 0,9.5e-5 c -1.45638,0.236794 -2.991233,0.0083 -4.444559,-0.491348 -0.525349,-0.180508 -1.039624,-0.396535 -1.53891,-0.639917 -0.43332,0.57203 -0.956808,0.89385 -1.62526,1.139954 -0.446351,0.77426 -0.66597,1.635981 -0.198712,2.460034 0.401673,0.708378 0.546399,1.33889 0.463916,1.87416 -0.04573,0.297043 -0.169452,0.531498 -0.31456,0.783426 -0.246875,-0.322728 -0.498666,-0.646172 -0.843775,-0.871174 0.211123,0.49617 0.370837,0.987375 0.389453,1.454375 0.03141,0.786529 -0.357138,1.282222 -0.959289,1.725208 -0.127829,-0.396821 -0.273272,-0.794836 -0.662916,-1.010433 l 0,-4.78e-4 c -0.162435,-0.0899 -0.337185,-0.12699 -0.504632,-0.118492 -0.533655,0.02674 -0.821532,0.501517 -0.811031,1.046573 0.005,0.266059 0.06043,0.530782 0.134893,0.785383 0.311076,0.02229 0.561722,0.107131 0.758906,0.23732 0.429215,0.283246 0.59165,0.781325 0.578858,1.275585 -0.02496,0.962836 -0.704109,1.972697 -1.327167,2.667086 -0.340145,0.37911 -0.726018,0.726901 -1.140245,1.054881 l -0.0034,0.0029 c -0.709694,0.526342 -1.204064,0.457261 -1.482872,-0.206909 -0.307209,-0.732486 -0.322484,-1.586425 -0.268975,-2.368037 -0.276517,-0.298714 -0.42005,-0.597237 -0.463774,-0.919201 -0.04511,-0.332419 0.01833,-0.682263 0.151982,-1.07918 0.260765,-0.774356 0.13981,-1.635981 0.02363,-2.463949 -0.01833,-0.130905 -0.03666,-0.261333 -0.05652,-0.41692 l -2.86e-4,-0.0024 c -0.177281,-1.390498 0.345109,-1.986208 0.909647,-2.629849 0.736949,-0.840476 1.397048,-1.742156 1.933089,-2.724852 0.487783,-0.894137 0.876329,-1.850671 1.178908,-2.913762 0.388929,-1.366341 1.452658,-2.123319 2.661113,-2.358347 0.652271,-0.126799 1.23299,-0.0043 1.871132,-0.02101 0.243581,-0.0064 0.479525,-0.04115 0.717092,-0.08698 -1.492657,-0.37868 -2.924885,-1.097943 -4.14723,-2.028649 -0.410408,0.437114 -0.982535,0.74361 -1.584209,0.790874 -0.57208,0.641254 -1.233134,1.489559 -0.930889,2.416303 0.168832,0.517701 0.272651,1.110307 0.159476,1.653454 -0.08487,0.407324 -0.283534,0.686178 -0.541482,0.982457 -0.177997,-0.366028 -0.36048,-0.733823 -0.654276,-1.023657 0.10802,0.528013 0.166731,1.040892 0.09203,1.502211 -0.125967,0.778604 -0.606638,1.186454 -1.28583,1.501256 -0.03967,-0.402216 -0.07499,-0.852363 -0.343487,-1.173181 -0.19308,-0.230684 -0.490551,-0.275083 -0.75356,-0.175543 -0.26487,0.100208 -0.4859214,0.3529 -0.5717453,0.819327 -0.048353,0.26267 -0.047208,0.533885 -0.024917,0.79918 0.3000971,0.08369 0.5288339,0.216696 0.6962329,0.383597 0.758381,0.756119 0.2095,2.0318 -0.4201455,2.667994 -0.6432493,0.807869 -1.5125619,1.391166 -2.4252638,1.853821 l -0.00391,0.0019 C 7.1006103,53.298466 6.7561215,53.329497 6.5053803,53.186514 6.2520137,53.042098 6.1123471,52.732977 6.086619,52.259293 l 4.78e-5,0 c -0.030692,-0.332467 -0.015609,-0.675819 0.032888,-1.026857 0.045728,-0.330891 0.1210508,-0.668657 0.2152279,-1.010911 -0.4225321,-0.69501 -0.2982355,-1.34691 0.092411,-2.020962 0.4096442,-0.706898 0.462771,-1.574872 0.5137021,-2.408999 0.00835,-0.136443 0.016659,-0.272743 0.025203,-0.39157 l 0.00224,-0.0306 c 0.1031032,-1.398041 0.7340375,-1.878026 1.4158073,-2.396682 0.889265,-0.675914 1.7162385,-1.42955 2.4366725,-2.285064 0.656137,-0.779225 1.227357,-1.639228 1.735379,-2.620396 0.653273,-1.261741 1.846454,-1.791663 3.077487,-1.781113 0.238999,0.0019 0.477807,0.02416 0.712558,0.06493 0.236087,0.04101 0.470312,0.100924 0.698524,0.178121 l 5.72e-4,0 0.0014,4.77e-4 -4.8e-5,1.91e-4 c 0.681483,0.230827 1.073896,0.206718 1.764926,0.164276 0.395754,-0.02425 0.791747,-0.03409 1.188121,-0.02602 0.0222,-0.563389 0.07141,-1.128592 0.14296,-1.692458 0.08807,-0.693626 0.28172,-1.317836 0.506256,-1.918176 -0.206063,-0.990621 -0.475802,-1.805318 -0.797809,-2.51274 -0.328641,-0.722032 -0.712891,-1.334164 -1.140244,-1.908485 -0.59418,-0.798608 -0.822392,-1.833198 -0.993514,-2.794268 -0.200097,-1.12377 -0.119524,-2.265538 -0.127113,-3.39962 -0.611841,-0.451867 -0.870029,-0.974246 -0.897141,-1.547374 -0.02496,-0.528538 0.150693,-1.092261 0.425778,-1.679282 -1.961252,-0.06221 -3.399875,-1.041799 -4.975159,-2.121457 -0.573081,-0.391665 -0.755803,-0.7322 -1.056664,-1.293106 -0.02821,-0.05261 -0.05761,-0.107321 -0.0884,-0.164181 l -6.21e-4,-0.0011 c -0.141194,-0.260808 -0.252078,-0.541047 -0.299906,-0.834843 -0.110932,-0.681786 0.159953,-1.193758 0.600767,-1.485359 0.475563,-0.314516 1.088216,-0.275178 1.611751,-0.464995 2.278962,-0.826584 3.518683,-0.310649 5.518025,0.521472 0.740434,0.308024 1.379053,0.495311 2.19142,0.563819 0.118521,0.01 0.239238,0.01843 0.361816,0.02521 l 0.02296,-0.665793 c -0.239047,-0.0264 -0.426017,-0.104075 -0.560051,-0.223856 -0.160765,-0.1437 -0.235419,-0.342397 -0.24086,-0.5547 -0.162102,-0.0085 -0.314561,-0.05333 -0.445492,-0.128136 -0.56702,-0.324017 -0.481912,-0.926076 -0.254751,-1.441867 0.100048,0.09787 0.199762,0.217125 0.331983,0.271167 0.164297,0.06717 0.294703,-0.004 0.372603,-0.144034 C 19.95438,10.702908 19.762971,10.295297 19.597671,9.878377 19.450272,9.5068583 19.297956,9.1230703 19.194137,8.7295908 19.08774,8.326611 19.031272,7.9130804 19.079721,7.4913862 19.204829,6.4023237 20.053664,5.549578 20.926032,4.9757817 21.070329,4.880873 21.213098,4.7948919 21.351571,4.7183634 l 9.6e-5,1.91e-4 0.0014,-7.639e-4 5.73e-4,-5.728e-4 c 2.093949,-1.1565202 4.151049,-0.3895647 6.144091,0.3535681 0.464441,0.1730603 0.94473,0.4028366 1.111032,0.9147609 0.0947,0.2917916 0.03294,0.6392967 -0.151695,0.8841591 -0.03022,0.040102 -0.06329,0.076433 -0.09881,0.1092787 L 28.357958,6.978698 C 28.160009,7.1615452 27.904209,7.2287164 27.637143,7.2204096 z M 67.014399,22.272168 c -0.121528,-0.06393 -0.246923,-0.112477 -0.373845,-0.146373 -0.127113,-0.03394 -0.254607,-0.05309 -0.380097,-0.0582 -0.64998,-0.0265 -1.275473,0.312606 -1.585403,0.901202 l -2.39e-4,-1.43e-4 -9.54e-4,0.0018 c -0.04425,0.08436 -0.08076,0.170674 -0.109643,0.257896 -0.02873,0.08675 -0.05021,0.175304 -0.06453,0.264484 -0.07337,0.456879 0.04339,0.923927 0.316279,1.291245 l 0.0033,0.0043 2.86e-4,-1.91e-4 c 0.08864,0.118588 0.185491,0.219035 0.288594,0.302199 0.103437,0.0834 0.213509,0.150288 0.328355,0.201657 0.602008,0.269258 1.351893,0.125224 2.002779,-0.280763 l 4.78e-4,-2.39e-4 -4.8e-5,-4.8e-5 c 0.03618,-0.02258 0.06334,-0.03986 0.08205,-0.05218 l -1.91e-4,-2.39e-4 c 0.02282,-0.01504 0.04993,-0.03351 0.08134,-0.05533 0.124774,-0.08675 0.244106,-0.179792 0.357186,-0.277565 l 0.0033,-0.03795 c 0.0029,-0.03533 0.0053,-0.06469 0.0066,-0.08555 0.0094,-0.145418 0.0115,-0.2895 0.0053,-0.430478 l -2.86e-4,-0.0065 c -0.0048,-0.103597 -0.01432,-0.207529 -0.02916,-0.310888 -0.0147,-0.102356 -0.03442,-0.201943 -0.05938,-0.297711 -0.127065,-0.487004 -0.397281,-0.910035 -0.872129,-1.184544 l -9.5e-5,1.43e-4 z m -6.8061,-8.066711 c 0.0663,-0.0019 0.133891,-0.0033 0.203295,-0.0042 0.506542,-0.007 1.029552,-0.0518 1.511941,-0.183992 -0.03103,-0.005 -0.06549,-0.0087 -0.103485,-0.01093 -0.330121,-0.01886 -0.6506,0.04063 -0.974993,0.100828 -0.208545,0.03872 -0.418666,0.07777 -0.636758,0.09835 z m -9.979959,0.179983 0.240145,-0.810972 -1.34144,0.07935 0.0024,0.0582 c 0.399525,0.08703 0.933466,0.255795 1.099099,0.673431 z m -18.426735,4.804106 6.308769,5.968026 c 0.886163,-0.948895 2.418104,-1.000312 3.852193,-1.048339 0.583201,-0.01953 1.149744,-0.03853 1.64168,-0.120116 l 0,-9.5e-5 0.0019,-2.87e-4 4.77e-4,0 c 0.581101,-0.09663 1.140532,-0.258898 1.637718,-0.525148 0.893704,-0.478554 1.530271,-1.318601 1.77328,-2.299482 0.17895,-0.722175 0.102912,-1.465165 0.06663,-2.198797 -0.01594,-0.321868 -0.03198,-0.643689 -0.04544,-0.965557 -0.274417,-0.0013 -0.516423,-0.05037 -0.739813,-0.128996 -0.27308,-0.09605 -0.512986,-0.234025 -0.749694,-0.381926 -0.186636,-0.116631 -0.385587,-0.151052 -0.596137,-0.141933 -0.22277,0.0096 -0.46573,0.06822 -0.721293,0.132242 l 4.8e-5,9.5e-5 -0.0019,5.25e-4 -4.78e-4,0 c -0.704299,0.176307 -1.416045,0.325831 -2.132374,0.444133 -1.821203,0.301148 -3.573671,0.376101 -4.570813,0.0075 -1.854664,0.574942 -3.779686,1.120189 -5.72447,1.25816 z m -3.205412,-5.783794 2.068269,-0.126322 0.412795,0.582867 15.988297,-0.945554 c 0.0074,-0.154585 0.01513,-0.309265 0.02277,-0.463849 0.03628,-0.733633 0.112316,-1.476622 -0.06664,-2.198797 C 46.778679,9.273215 46.142113,8.4331684 45.248408,7.9546149 44.751222,7.6883646 44.191792,7.5260937 43.610691,7.4294664 l -4.78e-4,0 -0.0019,-2.865e-4 0,-9.54e-5 C 43.116368,7.3474955 42.549826,7.3284947 41.966624,7.3089687 40.44442,7.2579815 38.81181,7.2032706 37.958392,6.0754426 c -0.03322,-0.043921 -0.06496,-0.08918 -0.09542,-0.1359657 l -9.266876,7.4662751 z m 7.430303,1.022798 c 0.489645,0.01313 0.97929,0.02478 1.469078,0.03332 0.06974,-0.04722 0.139953,-0.09142 0.210311,-0.132624 l -1.679389,0.0993 z m 5.627048,-0.332753 c 0.141146,0.03075 0.282293,0.06249 0.423534,0.09419 0.657761,0.147663 1.34607,0.329985 2.025167,0.296805 0.301051,-0.0147 0.603535,-0.05925 0.911413,-0.118827 0.274703,-0.05314 0.425539,-0.164037 0.608022,-0.399543 0.02907,-0.03748 0.05881,-0.07538 0.08945,-0.11262 l -4.057588,0.239993 z"
   class="fil0" /><path
   style="fill:#efea44;fill-rule:nonzero"
   inkscape:connector-curvature="0"
   id="path37"
   d="m 48.204033,15.122367 c -0.107494,-0.07944 -0.204345,-0.17053 -0.285013,-0.262002 -0.05241,0.0017 -0.110502,0.0082 -0.168689,0.01485 l -4.77e-4,0 -0.06668,0.0072 c -0.0054,0.0867 0.0071,0.155205 0.03561,0.222281 0.161719,0.01022 0.323534,0.01614 0.485349,0.01766 z"
   class="fil2" /><path
   style="fill:#efea44;fill-rule:nonzero"
   inkscape:connector-curvature="0"
   id="path39"
   d="m 47.739114,16.827715 c 0.523583,0.03853 1.051844,0.02888 1.568505,-0.07347 0.182292,-0.0412 0.358475,-0.122312 0.317329,-0.404126 l 0,-5.73e-4 c -0.0092,-0.06335 -0.03341,-0.123219 -0.07045,-0.169957 -0.587831,0.09457 -1.212417,0.09591 -1.807599,0.06154 -0.284727,-0.01623 -0.303057,0.565298 -0.0078,0.586591 z"
   class="fil2" /><path
   style="fill:#efea44;fill-rule:nonzero"
   inkscape:connector-curvature="0"
   id="path41"
   d="m 49.289958,17.048086 c -0.543583,0.09916 -1.098049,0.103407 -1.647217,0.05839 -0.26845,0.203137 -0.135323,0.480081 0.171314,0.523907 0.430551,0.06159 0.866735,0.06426 1.297334,0.0016 0.30931,-0.04488 0.303725,-0.363976 0.178569,-0.58387 z"
   class="fil2" /><path
   style="fill:#efea44;fill-rule:nonzero"
   inkscape:connector-curvature="0"
   id="path43"
   d="m 49.141986,14.00824 c 0.007,0.15511 0.01403,0.305828 0.01938,0.448716 0.07604,0.06488 0.149261,0.132862 0.210121,0.213258 0.10444,0.138018 0.11432,0.264531 0.06831,0.370993 0.149261,-0.02182 0.29814,-0.04798 0.446112,-0.0792 0.448022,-0.530352 -0.367066,-0.858808 -0.743918,-0.953765 z"
   class="fil2" /><path
   style="fill:#efea44;fill-rule:nonzero"
   inkscape:connector-curvature="0"
   id="path45"
   d="m 47.725749,15.953533 c 0.564108,0.03542 1.309745,0.05848 1.843972,-0.07242 0.264775,-0.06421 0.537855,-0.313944 0.357711,-0.635143 -0.705016,0.146802 -1.428027,0.188337 -2.146217,0.148998 -0.292174,-0.01556 -0.349358,0.540903 -0.05547,0.558567 z"
   class="fil2" /><path
   style="fill:url(#radialGradient4195);fill-opacity:1;fill-rule:nonzero"
   inkscape:connector-curvature="0"
   id="path47"
   d="m 26.383198,10.131069 c -0.02344,0.133101 -0.01671,0.31867 0.145251,0.301101 0.111314,-0.01217 0.216517,-0.01022 0.318475,4.8e-5 0.178139,0.01795 0.337185,0.07696 0.516422,0.06154 0.147829,-0.0127 0.317663,-0.05061 0.336279,-0.201276 0.05103,-0.4142939 -0.448833,-1.2242161 -0.703154,-1.6561269 -0.345014,0.023011 -0.807833,-0.016518 -1.078765,0.3717574 L 25.540663,8.8345728 25.358133,8.0294724 C 25.285197,7.9226763 25.234409,7.7983593 25.213597,7.6544209 l 0,-0.00115 -4.29e-4,-0.00315 0.283056,-0.038002 2.86e-4,0.00201 1.44e-4,0 c 0.09079,0.6676547 1.006449,0.800374 1.532466,0.7220792 C 27.304396,8.0103761 27.387642,7.610022 27.347499,7.1841743 26.997282,7.1096987 26.656374,6.932103 26.427924,6.7400896 25.94711,7.4735789 25.200471,7.7173432 24.348533,7.5912121 c -0.185252,0.2991437 -0.552605,0.3295546 -0.697045,0.5520743 -0.113413,0.1745403 -0.119857,0.3438291 -0.02411,0.5156004 0.111409,0.1997473 0.350551,0.4093771 0.71103,0.637387 0.1695,0.107178 0.285491,0.2353143 0.349692,0.3705639 0.181528,0.3817833 -0.0694,0.7380243 -0.41795,0.9037803 -0.0389,0.01848 -0.08005,0.0327 -0.122721,0.04278 l -5.25e-4,0 c -0.243056,0.05734 -0.573082,-0.0081 -0.864874,-0.141742 -0.293176,-0.134247 -0.555993,-0.341442 -0.662867,-0.5663492 -0.01833,-0.038622 -0.03236,-0.077435 -0.04143,-0.1158668 l 0,-5.252e-4 c -0.02611,-0.1107586 -0.03255,-0.2330704 -0.03905,-0.3582467 -0.0082,-0.1573059 -0.01675,-0.3207225 -0.07714,-0.4470446 -0.119093,-0.2489204 -0.39351,-0.2735069 -0.578714,-0.095147 -0.211075,0.2034235 -0.09098,0.4046508 -0.02606,0.6594911 0.06244,0.2452443 0.117996,0.4574038 0.122101,0.7071358 0.0029,0.190295 0.01055,0.388801 0.220383,0.466476 0.168593,0.0623 0.324059,0.01174 0.478189,-0.05333 0.300288,0.234551 0.535468,0.543338 0.521816,0.938488 0.253033,0.588739 0.56912,1.031296 1.05509,1.285325 0.241624,0.0044 0.498523,0.05132 0.685397,0.216934 0.429835,0.06693 0.957094,0.04722 1.613422,-0.07056 0.275085,-0.04932 0.556375,-0.179935 0.725589,-0.370516 0.319047,-0.359488 0.05403,-0.758839 -0.241004,-1.023896 -0.261959,-0.06526 -0.526924,-0.01776 -0.746925,0.147853 -0.232555,0.175113 -0.458571,0.303774 -0.682343,0.365456 -0.306159,0.08436 -0.645302,0.03514 -0.894086,-0.167427 -0.453559,-0.369132 -0.350981,-1.044855 0.0064,-1.393458 0.224297,0.368845 0.546685,0.447808 0.987881,0.159359 0.163342,-0.106796 0.312365,-0.182322 0.450742,-0.234073 -0.10401,-0.100256 -0.117184,-0.27451 -0.05107,-0.439932 l 0.274799,0.04927 z m 0.819193,0.657295 c -0.384346,-0.08842 -0.758334,-0.171437 -1.337,0.206908 -0.373081,0.243908 -0.733179,0.32965 -1.096665,0.03604 -0.09843,0.241663 -0.09184,0.559951 0.125824,0.737069 0.17728,0.144273 0.4211,0.173395 0.637856,0.113671 0.186683,-0.05146 0.381959,-0.163846 0.587258,-0.318478 0.271171,-0.204188 0.607879,-0.278186 0.935662,-0.205238 0.140621,-0.163799 0.191457,-0.359011 0.147065,-0.569977 z"
   class="fil2" /><path
   style="fill:#efea44;fill-rule:nonzero"
   inkscape:connector-curvature="0"
   id="path49"
   d="m 46.044117,13.549833 c 0.32487,-0.193588 0.801007,-0.171341 1.162679,-0.176497 0.299095,-0.0044 0.665064,-0.04598 0.960817,0.05094 l 2.690468,-0.15912 -0.256994,0.86788 2.947701,-1.175617 -3.064886,-0.820855 0.362007,0.842959 -19.909178,1.177383 -0.412747,-0.582724 -2.689752,0.161889 c 0.09914,0.128852 0.14697,0.296614 0.135084,0.473063 -0.01069,0.158977 -0.06964,0.325736 -0.184297,0.439836 0.123199,0.156542 0.136708,0.375911 0.08024,0.561336 l -0.0033,0.01017 2.740206,-0.17602 0.357663,-0.602537 15.084283,-0.892084 z"
   class="fil2" /><path
   style="fill:url(#linearGradient4191);fill-opacity:1.0;fill-rule:nonzero"
   inkscape:connector-curvature="0"
   id="path51"
   d="m 37.777246,5.0302539 0.884348,-0.7124833 c 0.06649,-0.053565 0.13456,-0.082735 0.200049,-0.092856 0.05633,-0.1444636 0.14907,-0.2797609 0.281863,-0.3979671 0.201147,-0.1790279 0.468786,-0.2945128 0.734658,-0.3010055 l 0.0022,0 0.02043,-2.387e-4 0.0011,-5.729e-4 c 0.09189,0 0.185013,0.012031 0.275563,0.035853 0.440909,0.1162488 0.715087,0.4984137 0.684156,0.9559612 C 41.190296,4.3719564 41.398793,4.1654298 41.50982,3.9289698 41.665573,3.596885 41.637697,3.1668838 41.497266,2.8419124 41.241752,2.2506429 40.615018,1.8899137 39.992246,1.8263229 38.876488,1.712318 37.914955,2.5769511 37.708845,3.6543171 c -0.08339,0.4357778 -0.05857,0.9257413 0.0684,1.3759368 z m 0.320049,0.7205515 c 0.02611,0.040245 0.05337,0.07925 0.08186,0.1172036 0.792129,1.0549755 2.34746,1.1071562 3.796537,1.1556608 0.594084,0.01986 1.17108,0.039243 1.679102,0.1235531 l 4.77e-4,0 0.0019,2.865e-4 0,9.55e-5 c 0.609311,0.1013536 1.198097,0.2727907 1.725546,0.5552252 0.96454,0.5164596 1.654138,1.4242027 1.916478,2.4829979 0.186159,0.751153 0.112125,1.517679 0.07446,2.280529 -0.0071,0.144511 -0.01442,0.288974 -0.02134,0.433438 l 1.474519,-0.08722 c 0.0033,-0.301149 0.01881,-0.592559 0.05599,-0.854369 l 0.0014,-0.01112 0,-5.73e-4 C 48.95745,11.446232 49.248717,11.048599 49.405185,10.58093 49.767956,9.4965941 49.183466,8.0015918 48.406707,7.1697089 L 48.40623,7.169136 48.405753,7.1685153 C 47.68341,6.39564 46.66159,6.0132364 45.51619,5.9010456 44.812797,5.8322034 44.124106,5.8800396 43.424484,5.9469722 42.355553,6.0491375 40.901082,6.1882541 39.914966,5.8810422 39.497303,5.7509963 39.104031,5.5036514 38.913052,5.0936536 L 38.097391,5.7508054 z M 38.790951,26.82425 c -0.03508,-0.01819 -0.06988,-0.04254 -0.10339,-0.07424 l -0.780004,-0.73793 c -0.238474,0.54014 -0.310169,1.190799 -0.202865,1.7518 0.206111,1.077366 1.167643,1.941999 2.283401,1.827995 0.622772,-0.06359 1.249506,-0.42432 1.50502,-1.01559 0.140431,-0.324971 0.168307,-0.754972 0.01255,-1.087057 -0.111027,-0.23646 -0.319524,-0.442987 -0.648166,-0.587976 0.03093,0.457548 -0.243247,0.839713 -0.684156,0.955962 -0.09055,0.02382 -0.183677,0.03585 -0.275562,0.03585 l -0.0011,-4.78e-4 -0.02043,-2.38e-4 -0.0022,0 C 39.608139,27.885862 39.3405,27.770377 39.139354,27.591349 38.89792,27.376468 38.788469,27.105444 38.790951,26.824346 z M 39.071,26.06627 c 0.211457,-0.259662 0.518284,-0.429046 0.839718,-0.529111 0.986115,-0.307212 2.440586,-0.168095 3.509518,-0.06593 0.699622,0.06693 1.388313,0.114769 2.091706,0.04593 1.1454,-0.112191 2.16722,-0.494594 2.889562,-1.26747 l 4.78e-4,-6.2e-4 4.77e-4,-5.73e-4 c 0.776759,-0.831883 1.361249,-2.326886 0.998478,-3.411222 -0.156469,-0.467668 -0.447735,-0.865301 -0.52091,-1.365577 l 0,-5.73e-4 -0.0014,-0.01112 c -0.05747,-0.404747 -0.05322,-0.992006 -0.0369,-1.510662 -0.355897,0.0276 -0.714706,0.01466 -1.068121,-0.03585 -0.191695,-0.02745 -0.359095,-0.128995 -0.462293,-0.265868 0.01527,0.434632 0.03661,0.869359 0.05814,1.30423 0.03766,0.76285 0.111696,1.529376 -0.07446,2.280529 -0.26234,1.058795 -0.951938,1.966538 -1.916478,2.482997 -0.527449,0.282435 -1.116235,0.453872 -1.725547,0.555226 l 0,9.5e-5 -0.0019,2.87e-4 -4.77e-4,0 c -0.508022,0.08431 -1.085018,0.103692 -1.679103,0.123553 -1.35953,0.0455 -2.81233,0.09424 -3.640879,0.971381 l 0.740338,0.700357 z M 27.581629,15.589797 c -0.02229,0.01365 -0.04578,0.02607 -0.07026,0.03666 l -5.72e-4,5.73e-4 -0.0033,0.0014 -5.73e-4,0 c -0.03833,0.01618 -0.07881,0.02836 -0.120764,0.03771 L 38.883362,26.54301 c 0.104201,0.09863 0.235085,-0.03843 0.130502,-0.137398 L 27.581629,15.589797 z m 0.193366,-2.133917 0.328499,-0.02005 10.856384,-8.7468729 c 0.100287,-0.09677 -0.0012,-0.2436689 -0.119285,-0.1485215 L 27.774995,13.45588 z m 21.079495,0.49975 -0.01112,-0.0011 c -0.05041,-0.0052 -0.09909,-0.009 -0.14549,-0.01136 0.0495,0.08942 0.09704,0.173299 0.167161,0.249541 L 48.85449,13.95563 z m -1.563445,2.303731 c 0.02253,-0.0528 0.05255,-0.10312 0.09069,-0.149476 l 0.0074,-0.0088 c -0.04053,-0.04917 -0.07084,-0.103072 -0.09208,-0.159597 -0.0029,0.105984 -0.0048,0.211969 -0.006,0.317858 z m 0.0038,0.796459 c 0.02573,-0.03743 0.05714,-0.07424 0.09485,-0.11009 -0.04129,-0.05261 -0.07437,-0.110711 -0.0989,-0.171676 9.55e-4,0.09395 0.0024,0.18786 0.0038,0.281766 z"
   class="fil2" /><path
   style="fill:url(#linearGradient4188);fill-opacity:1;fill-rule:nonzero"
   inkscape:connector-curvature="0"
   id="path53"
   d="m 23.786907,12.928392 c -0.289692,-0.22992 -0.514561,-0.532167 -0.703059,-0.896381 -0.112029,0.207004 -0.304584,0.381878 -0.542485,0.410714 -0.242006,0.489056 -0.697092,0.831023 -1.251176,0.860384 l -0.02315,0.670949 c 0.31499,0.01127 0.641102,0.01337 0.975757,0.0087 0.23141,-0.404555 0.460719,-0.641922 0.741102,-0.794931 0.217185,-0.118493 0.508452,-0.211205 0.803012,-0.259471 z"
   class="fil2" /><path
   style="fill:url(#radialGradient4185);fill-opacity:1;fill-rule:nonzero"
   inkscape:connector-curvature="0"
   id="path55"
   d="m 20.489466,12.49438 c -5.25e-4,0.136109 0.04138,0.271407 0.145538,0.364453 0.215753,0.192682 0.659001,0.198745 0.936282,0.106224 0.366351,-0.122408 0.625111,-0.441937 0.787785,-0.812357 0.257806,0.01848 0.426064,-0.104409 0.514036,-0.347028 0.109404,-0.302104 -0.01332,-0.604064 -0.245347,-0.810972 -0.168975,0.05352 -0.359477,0.05738 -0.526924,-0.0045 -0.339191,-0.125558 -0.402198,-0.41544 -0.40721,-0.730577 -0.0036,-0.224334 -0.05833,-0.4214077 -0.114273,-0.6411585 -0.09327,-0.3658375 -0.201863,-0.6397263 0.10549,-0.9358146 0.316422,-0.3046816 0.858763,-0.2553176 1.046974,0.1790279 0.07184,0.1656605 0.08215,0.3634028 0.09212,0.5545091 0.0058,0.1106153 0.01146,0.2187482 0.03227,0.3073551 l 9.5e-5,-4.78e-5 c 0.0048,0.020242 0.01203,0.040341 0.02129,0.059915 0.0769,0.161889 0.285252,0.3197681 0.52301,0.4286641 0.238999,0.10947 0.50005,0.165327 0.680911,0.122837 l -4.8e-5,-9.5e-5 c 0.02496,-0.0059 0.04749,-0.01346 0.06678,-0.02263 0.201624,-0.09586 0.392747,-0.2895 0.281434,-0.5233824 C 24.388056,9.7011155 24.30753,9.614657 24.186241,9.5379376 23.785332,9.2843863 23.51397,9.0414813 23.377931,8.7976214 23.226331,8.5257855 23.235257,8.2598216 23.41206,7.987747 23.48428,7.8765587 23.589149,7.8240916 23.710534,7.7634131 l 0,-5.729e-4 c 0.236374,-0.1181107 0.365253,-0.2556518 0.482819,-0.4882926 1.035137,0.1826562 1.734472,-0.081207 2.176814,-0.9999305 0.346398,0.3982058 1.280198,0.9702357 1.794568,0.4945944 l 0,-5.729e-4 c 0.03623,-0.033466 0.06878,-0.073139 0.0969,-0.1194951 C 28.363877,6.4803321 28.398245,6.2627297 28.33686,6.0739627 28.200153,5.65308 27.775998,5.4790172 27.398144,5.3382296 25.465818,4.6177736 23.471392,3.8741634 21.49119,4.9678567 l -9.5e-5,-1.91e-4 -0.0014,7.639e-4 -5.72e-4,5.729e-4 c -0.136946,0.075717 -0.273606,0.1577355 -0.406446,0.2451011 -0.79905,0.5255782 -1.603971,1.3104365 -1.718769,2.3097463 -0.04391,0.3821171 0.0084,0.7612266 0.106588,1.132984 0.100621,0.3813055 0.248832,0.7547816 0.392269,1.1163225 0.178044,0.4490496 0.390456,0.8732746 0.671651,1.2673746 -0.05809,0.111522 -0.09948,0.233452 -0.189309,0.325401 l -5.73e-4,5.73e-4 c -0.200049,0.204426 -0.491458,0.200224 -0.722772,0.06206 -0.103533,0.430956 0.179571,0.791924 0.616662,0.803907 0.261433,0.0072 0.557759,-0.114722 0.804014,-0.411669 l 0.22043,0.18237 c -0.23222,0.280047 -0.506064,0.435539 -0.773417,0.491204 z"
   class="fil2" /><path
   style="fill:url(#linearGradient4182);fill-opacity:1;fill-rule:nonzero"
   inkscape:connector-curvature="0"
   id="path57"
   d="m 46.176337,13.80348 c -0.13728,0.09223 -0.234798,0.21808 -0.32888,0.339485 -0.232985,0.300623 -0.446876,0.441697 -0.800338,0.509298 -0.312938,0.05996 -0.621818,0.104744 -0.931605,0.11983 -0.708213,0.03466 -1.415282,-0.149429 -2.101252,-0.303488 -0.526399,-0.118159 -1.058717,-0.237129 -1.587646,-0.30029 l -1.873089,0.110806 c -0.330551,0.09892 -0.654944,0.250162 -0.970316,0.469579 -1.585211,-0.02759 -3.169516,-0.08484 -4.75425,-0.131049 l -1.700964,0.10059 -0.357186,0.601868 -0.04931,0.0048 -2.815672,0.17941 3.611142,3.416091 c 2.171372,-0.102309 4.342315,-0.757456 6.403329,-1.4116 l 0.09947,0.267683 c 0.98349,0.213879 2.477436,0.122359 4.031096,-0.134581 0.708309,-0.117013 1.411893,-0.265153 2.108317,-0.439502 l -4.8e-5,-1.43e-4 0.0019,-5.25e-4 4.77e-4,0 c 0.269262,-0.06746 0.52616,-0.129282 0.778859,-0.140167 0.264965,-0.01146 0.517711,0.03337 0.759479,0.184422 0.223199,0.139451 0.447449,0.268876 0.692605,0.355096 0.191361,0.06736 0.398952,0.109756 0.63461,0.112382 -0.02181,-0.59824 -0.03227,-1.197386 -0.01556,-1.799636 -0.281386,0.213449 -0.663202,0.2895 -1.197047,0.249445 l 0.02129,-0.285298 c 1.049505,0.07872 1.294948,-0.337671 1.538052,-1.280026 0.230264,0.01427 0.453558,-0.03285 0.682724,-0.01838 0.188259,0.230397 0.461339,0.496647 0.781866,0.503951 0.08134,0.0018 0.426351,-0.08011 0.304536,-0.240995 -0.178855,-0.236269 -0.482102,-0.358342 -0.625063,-0.63056 l 1.91e-4,-9.6e-5 -4.77e-4,-0.001 c -0.147018,-0.280716 -0.237185,-0.4258 -0.37394,-0.489964 -0.266589,-0.125081 -0.63671,-0.06674 -0.933943,-0.0623 -0.431315,0.0062 -0.824396,0.01184 -1.033562,0.144845 z"
   class="fil2" /><path
   inkscape:connector-curvature="0"
   id="path63"
   style="fill:url(#linearGradient4179);fill-opacity:1;fill-rule:nonzero"
   d="m 67.799844,26.368374 c -0.253843,1.157379 -1.142392,2.072427 -2.17352,2.610465 l -0.0019,9.55e-4 -0.220479,0.120784 c 0.03618,-0.947654 -0.332651,-1.712891 -1.228551,-2.093719 0.232985,0.458884 0.302962,1.009097 0.177853,1.509754 -0.14401,0.576613 -0.551745,1.028957 -1.129027,1.179388 -0.77356,0.201753 -1.575999,0.279331 -2.382877,0.264245 -0.573607,-0.01069 -1.148551,-0.06817 -1.716525,-0.160838 0.659908,0.406942 1.282107,0.876329 1.817528,1.438907 0.659096,-0.01055 1.334613,-0.06684 1.946025,-0.17435 0.336183,-0.05901 0.656996,-0.153534 0.98812,-0.227676 0.705397,-0.158212 1.397621,-0.160122 1.973614,0.08083 0.539192,0.225575 0.972607,0.658822 1.216857,1.367057 0.15179,-0.413913 0.152172,-0.856613 0.02893,-1.260214 -0.205825,-0.674004 -0.666496,-1.040939 -1.252656,-1.331728 1.22225,-0.709667 2.259105,-1.632592 2.781208,-2.985422 0.136946,-0.354905 0.230455,-0.725612 0.279047,-1.102621 -0.338426,0.301197 -0.701674,0.558042 -1.103538,0.764044 z m -0.210979,-1.117039 c -0.67924,0.424607 -1.482347,0.653094 -2.268891,0.30134 -0.998239,-0.446519 -1.414327,-1.731319 -0.898955,-2.714302 l 9.55e-4,-0.0022 0,-5.73e-4 c 0.485205,-0.92154 1.640057,-1.298405 2.574525,-0.888599 0.944683,0.414486 1.265544,1.3968 1.261868,2.359063 0.233414,-0.24534 0.526924,-0.634618 0.677713,-0.936244 -0.08597,-0.387464 -0.20382,-0.760129 -0.42931,-1.108541 -0.230694,-0.356337 -0.551746,-0.667846 -0.988311,-0.906359 l 0,-4.7e-5 -0.03928,-0.02105 -9.5e-5,1.91e-4 c -0.383964,-0.202134 -0.790267,-0.304156 -1.191558,-0.31781 -1.025972,-0.03485 -2.023495,0.517939 -2.520109,1.427258 l -0.01971,0.03657 0,5.73e-4 c -0.492174,0.935337 -0.395802,2.087274 0.225682,2.925173 l 0.0014,0.0019 c 0.08749,0.117728 0.183246,0.228153 0.286588,0.329506 l 9.6e-5,9.6e-5 4.77e-4,4.77e-4 -4.8e-5,4.8e-5 c 0.01895,0.01857 0.03933,0.03771 0.06095,0.05762 0.0069,0.0064 0.01446,0.01346 0.02296,0.02101 l 9.55e-4,0 c 0.657044,0.565394 1.467693,0.771348 2.317626,0.617575 1.358289,-0.245627 3.203215,-1.80632 3.746082,-3.101909 0.258617,-0.617145 0.347019,-1.289383 0.397759,-2.074194 0.01504,-0.232736 0.01465,-0.465281 0.01432,-0.695869 -0.0019,-1.138522 -0.0033,-2.236417 1.601775,-2.709337 -0.352174,-0.175686 -0.74936,-0.245721 -1.137859,-0.204235 -0.09551,0.01022 -0.191695,0.02755 -0.2874,0.05199 -0.09418,0.02406 -0.187447,0.05528 -0.278617,0.09352 l -1.91e-4,-4.77e-4 -0.0019,8.11e-4 -0.600911,0.25379 0.440385,-0.481513 c 0.51437,-0.562386 1.26478,-0.822669 1.989939,-0.739934 0.137948,0.01571 0.275849,0.04435 0.41184,0.08579 -0.22487,-0.301722 -0.513511,-0.512354 -0.82979,-0.638294 -0.274894,-0.10947 -0.571554,-0.155731 -0.866114,-0.143175 -0.294131,0.01256 -0.586161,0.08441 -0.852177,0.210919 -0.430933,0.204951 -0.792176,0.55427 -0.980912,1.028384 l -0.12506,0.314182 -0.137805,-0.308596 c -0.247448,-0.55408 -0.657474,-1.141339 -1.120293,-1.627245 -0.0895,-0.09395 -0.181433,-0.184518 -0.274655,-0.270308 -0.09389,-0.08646 -0.18697,-0.166424 -0.278093,-0.238656 l -0.25203,-0.189053 0.308642,-0.06493 c 0.294082,-0.06182 0.522485,-0.202564 0.663106,-0.396821 0.01112,-0.01537 0.02162,-0.03103 0.03174,-0.04726 -0.215037,-0.0076 -0.434226,-0.06564 -0.624299,-0.159597 -0.05127,-0.02535 -0.101098,-0.05376 -0.148545,-0.08469 -0.04797,-0.03127 -0.09294,-0.06488 -0.13413,-0.100303 l -0.0019,-0.0017 -0.0014,-0.0011 -0.229548,-0.203042 0.303343,-0.04535 c 0.370885,-0.05543 0.637474,-0.242571 0.799957,-0.510683 0.03193,-0.05275 0.06043,-0.109708 0.0852,-0.170148 0.04797,-0.11706 0.08067,-0.245101 0.09828,-0.381592 -0.216898,0.124365 -0.415945,0.197265 -0.605254,0.231161 l 0,5.73e-4 c -0.261385,0.04674 -0.499716,0.01838 -0.737092,-0.0528 l -0.396661,-0.11897 0.385444,-0.151243 c 0.04883,-0.01914 0.09518,-0.04063 0.138903,-0.06421 0.286207,-0.154298 0.466112,-0.40169 0.544442,-0.686512 0.08024,-0.291839 0.05585,-0.624401 -0.06792,-0.940111 l -0.0092,-0.02244 c -0.259619,0.242714 -0.533368,0.480511 -0.868835,0.63013 -0.516041,0.230254 -1.021056,0.137159 -1.528266,0.04364 -0.184536,-0.03399 -0.369692,-0.06817 -0.550409,-0.08488 l -0.0033,-2.86e-4 c -0.527975,-0.04836 -1.193992,-0.09954 -1.778578,-0.04034 -0.439143,0.0444 -0.830219,0.150383 -1.070173,0.366792 0.364012,0.04927 0.735279,0.04468 1.095281,0.124699 0.156277,0.03476 0.383486,0.0992 0.446685,0.268972 0.05461,0.146898 -0.06597,0.368367 -0.206016,0.430526 -0.13981,0.06216 -0.333224,0.0053 -0.562199,-0.09563 -0.756949,-0.333899 -1.388695,-0.478028 -2.224451,-0.523191 -0.741866,-0.04025 -1.561441,-0.04631 -1.788458,0.205667 l -1.44e-4,-1.43e-4 -0.0055,0.0063 1.43e-4,9.5e-5 c -0.01227,0.0147 -0.02019,0.03514 -0.0242,0.06001 -0.02468,0.153153 0.07389,0.402312 0.221481,0.652426 0.154893,0.262431 0.361052,0.516698 0.540432,0.6667 0.07838,0.06555 0.145252,0.10756 0.190407,0.114816 0.448021,0.07242 0.858716,-0.0038 1.262871,-0.07882 0.341672,-0.0634 0.679192,-0.126035 1.042106,-0.105316 0.213032,0.01217 0.363057,0.06813 0.457329,0.146707 l 4.77e-4,0 c 0.141338,0.117968 0.147734,0.236795 0.02134,0.382165 -0.660576,0.759222 -1.567455,0.837182 -2.460347,0.913854 -0.08878,0.0076 -0.174369,0.0159 -0.257281,0.02525 -0.0411,0.259519 0.0029,0.588835 0.104249,0.814792 0.08411,0.186666 0.192268,0.257084 0.404202,0.272313 0.201338,0.01447 0.405015,-0.06755 0.581006,-0.190199 0.38678,-0.28759 0.633034,-0.730768 1.019862,-1.029769 0.24573,-0.189865 0.531602,-0.33175 0.888024,-0.370134 l 0.03017,0.284249 c -0.364727,0.03929 -0.676089,0.226291 -0.932749,0.477837 0.492174,-0.09424 0.902821,0.019 1.293706,0.126752 0.424107,0.116965 0.821962,0.226673 1.27657,-0.0044 -0.251314,-0.127945 -0.332507,-0.326833 -0.427448,-0.569404 0.6148,-0.0081 1.116474,-0.01833 1.518481,-0.540378 -0.422724,0.03709 -0.701245,-0.09901 -1.065591,-0.259948 0.529359,-0.182561 1.069266,-0.355383 1.276809,-0.925121 -0.466208,0.225193 -0.933752,0.220324 -1.402776,-0.01418 l 0.127542,-0.255127 c 0.658715,0.329412 1.170317,0.02788 1.70063,-0.343447 -0.0641,0.595996 -0.249214,1.179149 -0.862773,1.515292 0.295371,0.01876 0.559382,-0.08226 0.83504,-0.16948 -0.226159,0.455018 -0.508785,0.860862 -0.944158,1.085578 0.541387,0.08789 1.039147,0.244528 1.492037,0.47631 0.683106,0.349653 1.262059,0.868834 1.73347,1.580028 l 0.257042,0.387798 -0.430456,-0.176879 c -0.331744,-0.1363 -0.689264,-0.18089 -1.039623,-0.146182 -0.408356,0.04044 -0.806783,0.18891 -1.143682,0.425847 -0.335467,0.235983 -0.609359,0.559522 -0.770171,0.951092 -0.07971,0.194162 -0.131934,0.405701 -0.150216,0.631945 0.429549,-0.492637 1.038765,-0.797558 1.683112,-0.855467 0.153461,-0.0138 0.308784,-0.01361 0.463725,0.0013 0.156087,0.01504 0.311935,0.04478 0.465206,0.08999 l 4.77e-4,0 9.55e-4,2.86e-4 0.619144,0.185808 -0.639813,0.09281 c -0.548642,0.07958 -1.046688,0.366792 -1.39552,0.787197 l -4.78e-4,0 c -0.03475,0.04192 -0.06835,0.0856 -0.100382,0.130667 0.591268,-0.24472 1.284876,-0.259376 1.898006,-0.07729 0.150597,0.04473 0.29728,0.101784 0.437043,0.170387 0.141289,0.06937 0.273844,0.149572 0.394656,0.23985 l 0,5.25e-4 0.0029,0.002 c 0.774467,0.580576 0.938382,1.587094 0.765016,2.504099 -0.239524,1.268329 -1.011653,2.154971 -1.971324,2.755072 z M 61.815564,14.328199 c -0.458523,0.08866 -0.935996,0.151911 -1.40039,0.158308 -0.96244,0.01327 -1.864593,0.01184 -2.330228,0.874611 0.520672,-0.348698 1.130317,-0.429762 1.746406,-0.482707 0.70745,-0.06077 1.424161,-0.122312 1.984212,-0.550212 z" /><path
   style="fill:url(#linearGradient4176);fill-opacity:1;fill-rule:nonzero"
   inkscape:connector-curvature="0"
   id="path65"
   d="m 18.221292,17.278531 c -1.660821,0.137875 -3.389279,0.307976 -5.024133,-0.141981 l 0.07494,-0.275273 c 1.517096,0.41754 3.173335,0.278758 4.840599,0.139021 1.034803,-0.0867 2.064785,-0.116106 3.098919,-0.179983 0.396279,-0.02449 0.78578,-0.0486 1.176713,-0.03939 0.259286,0.0061 0.485683,0.12551 0.706352,0.24195 0.142961,0.07543 0.283439,0.149572 0.413607,0.179123 l 4.7e-5,-2.86e-4 0.01103,0.0024 -4.8e-5,2.39e-4 c 0.561244,0.117824 1.117428,0.09018 1.739437,0.0592 0.341242,-0.01685 0.702486,0.05271 0.91442,-0.276419 0.07585,-0.117824 0.115466,-0.267205 0.08067,-0.405367 l -0.35079,-0.074 0.117805,-0.262335 c 0.246875,0.04349 0.525397,0.146325 0.667689,-0.156686 0.05795,-0.123362 0.0536,-0.26372 0.0337,-0.394816 l -0.508881,-0.07257 0.122721,-0.263481 c 0.321339,0.04044 0.745064,0.140024 1.059577,0.0078 l -9.6e-5,-1.91e-4 0.0033,-0.0014 9.6e-5,2.87e-4 c 0.09518,-0.04158 0.161958,-0.134152 0.193271,-0.236842 0.03723,-0.122121 0.03098,-0.30683 -0.110407,-0.357817 l -1.100578,-0.0401 0.009,-0.285299 1.126259,0.04096 c 0.112889,-0.02268 0.161147,-0.20032 0.167495,-0.295133 0.01213,-0.179697 -0.07031,-0.350036 -0.256994,-0.398063 -0.289643,-0.04803 -0.581149,-0.08536 -0.873704,-0.110233 -0.605492,-0.05147 -1.605259,-0.0982 -2.146121,0.264245 l -0.10129,-0.259424 0.0027,-0.0029 0.0022,-0.0022 c 0.124344,-0.127468 0.370026,-0.178503 0.535755,-0.214738 -0.08091,-0.190724 -0.283057,-0.264245 -0.475134,-0.282625 -0.397998,-0.03772 -0.924301,0.0761 -1.250985,0.254315 -0.333177,0.181749 -0.531698,0.504095 -0.707737,0.82687 -0.605636,0.01003 -1.212035,0.0067 -1.816048,-0.04416 -0.936855,-0.07906 -1.462156,-0.245722 -2.277531,-0.585016 -1.936287,-0.805864 -3.136914,-1.305519 -5.311055,-0.516984 -0.492509,0.178598 -1.111271,0.143652 -1.551416,0.434727 -0.351649,0.232593 -0.566925,0.646028 -0.476566,1.201206 0.04258,0.261476 0.144106,0.513308 0.269739,0.745281 l 6.2e-4,0.0011 c 0.03079,0.05686 0.06019,0.11157 0.0884,0.16418 0.280383,0.522714 0.450694,0.840142 0.966067,1.192374 1.556047,1.066433 2.989802,2.055479 4.95344,2.074288 0.29413,-0.566205 0.660529,-1.09164 0.962965,-1.653883 z"
   class="fil2" /><path
   style="fill:url(#linearGradient4173);fill-opacity:1;fill-rule:nonzero"
   inkscape:connector-curvature="0"
   id="path67"
   d="m 53.573036,40.880232 c -2.090465,0.600149 -4.054437,1.367677 -5.954066,2.109999 l -0.520575,0.203184 c 0.02458,0.01704 0.04907,0.03409 0.0736,0.0507 0.114941,0.07796 0.234082,0.154298 0.35709,0.228583 0.604443,0.364883 1.195806,0.60435 1.745833,0.682788 0.724682,0.103312 1.454089,0.104314 2.248891,0.105317 1.05485,0.0014 2.22383,0.0029 3.65095,0.238274 1.639628,0.270308 3.226557,0.77426 4.55129,1.734279 1.329124,0.96317 2.391326,2.381978 2.97405,4.478418 l 0,4.78e-4 2.86e-4,9.55e-4 1.44e-4,-4.8e-5 c 0.07294,0.262765 0.132172,0.558615 0.195275,0.87399 0.07523,0.376293 0.156278,0.780944 0.267734,1.170652 l 9.55e-4,0.0029 c 0.05346,0.186714 0.109977,0.366076 0.16549,0.542479 0.200622,0.6371 0.389978,1.238586 0.326064,1.770036 -0.0262,0.218558 -0.04573,0.437974 -0.059,0.657725 1.076569,0.126656 2.105978,-0.205476 3.011234,-0.775453 -0.600338,-0.599672 -0.776138,-1.115798 -0.727785,-1.4866 0.07704,-0.590172 0.736949,-0.848736 1.207167,-0.497793 0.250884,0.187191 0.443678,0.545152 0.441625,1.10391 0.544585,-0.410237 0.850029,-1.011818 0.760911,-1.69876 -0.143485,-1.106154 -1.081151,-1.903855 -2.05309,-2.321443 0.136469,-0.166806 0.240383,-0.297855 0.464251,-0.357244 0.293414,-0.07791 0.721054,-0.0168 1.197715,0.289882 -1.43e-4,-0.189006 -0.03881,-0.376341 -0.109929,-0.551502 -0.273223,-0.673336 -1.042058,-1.25859 -2.206885,-1.552482 l -9.55e-4,-2.86e-4 c -0.234798,-0.05929 -0.457807,-0.139594 -0.66893,-0.23985 -0.210932,-0.100208 -0.410121,-0.22061 -0.597569,-0.360347 -0.943394,-0.70327 -1.582061,-1.892588 -1.94044,-3.469227 -0.297472,-0.02096 -0.583583,-0.0328 -0.859957,-0.03905 0.0069,0.08097 0.01523,0.162796 0.02539,0.244767 0.01585,0.128137 0.03523,0.251976 0.05785,0.370087 0.116277,0.606546 0.32425,1.121049 0.613464,1.399282 l -0.197997,0.205858 c -0.33413,-0.321486 -0.569502,-0.890556 -0.696233,-1.551384 -0.02468,-0.128614 -0.0452,-0.258803 -0.06129,-0.389183 -0.01141,-0.0919 -0.02076,-0.186857 -0.0284,-0.284105 -0.357949,-0.0038 -0.700147,4.77e-4 -1.030889,0.0043 -0.811317,0.0097 -1.555426,0.01862 -2.298962,-0.08741 -1.249076,-0.178121 -2.672855,-1.117898 -3.994676,-2.46161 -0.1116,-0.113432 -0.221338,-0.228678 -0.329357,-0.345547 z"
   class="fil2" /><path
   style="fill:url(#linearGradient4170);fill-opacity:1;fill-rule:nonzero"
   inkscape:connector-curvature="0"
   id="path69"
   d="m 66.827524,55.1552 c -0.971413,0.627648 -2.084498,0.993915 -3.24608,0.862342 -0.061,1.034781 -0.181194,2.18013 -0.01499,3.207081 0.09742,0.602346 0.407258,0.491874 0.943347,0.283437 0.660099,-0.256511 1.36879,-0.582342 1.933614,-0.995347 0.525922,-0.384456 1.104016,-0.975153 1.185066,-1.666678 0.07317,-0.624593 -0.238665,-1.248517 -0.800959,-1.690835 z"
   class="fil2" /><path
   style="fill:url(#linearGradient4167);fill-opacity:1;fill-rule:nonzero"
   inkscape:connector-curvature="0"
   id="path71"
   d="m 75.490101,54.353632 c -0.968645,0.627553 -2.084068,0.995825 -3.246318,0.862438 -0.021,0.375147 -0.04248,0.750246 -0.05685,1.125727 -0.04033,1.051109 -0.04348,2.356819 0.205347,2.485385 l 4.77e-4,0 c 0.260145,0.132146 0.900339,-0.163131 1.291607,-0.343591 0.493749,-0.227628 0.979623,-0.449336 1.42163,-0.772493 0.525826,-0.384409 1.104016,-0.975153 1.185066,-1.666678 0.07317,-0.624545 -0.23876,-1.248469 -0.801006,-1.690788 z"
   class="fil2" /><path
   style="fill:url(#linearGradient4164);fill-opacity:1;fill-rule:nonzero"
   inkscape:connector-curvature="0"
   id="path73"
   d="m 6.5237575,49.974849 c 1.0893615,-0.307546 2.0589611,-0.866113 2.8975337,-1.624237 -0.035847,-0.336763 -0.046349,-0.681022 0.015131,-1.015589 0.112602,-0.611607 0.4240596,-0.93381 0.7960904,-1.052398 0.366732,-0.116678 0.767068,-0.03667 1.029266,0.276563 0.174034,0.208006 0.298903,0.515552 0.362675,0.92154 0.471935,-0.273603 0.692557,-0.660542 0.765445,-1.11088 0.1137,-0.702267 -0.0916,-1.42807 -0.253366,-2.107755 l 0.289262,0.173585 1.43e-4,-2.86e-4 c 0.382484,0.21913 0.657092,0.596759 0.864635,0.975964 0.379238,-0.598001 0.260812,-1.38749 0.0536,-2.022776 -0.354465,-1.086723 0.393797,-2.0339 1.068311,-2.783335 0.682199,-0.03361 1.235806,-0.37572 1.678768,-0.901871 1.418528,1.074549 2.962117,1.896264 4.712055,2.245774 -0.420098,-1.054069 -0.65924,-2.162371 -0.759814,-3.29631 -0.04978,-0.561718 -0.06544,-1.129737 -0.05241,-1.700192 -0.387831,-0.0078 -0.775041,0.0024 -1.162346,0.02607 -0.726686,0.04459 -1.139242,0.06994 -1.873996,-0.17898 l -5.72e-4,0 -0.0014,-4.78e-4 4.8e-5,-1.91e-4 c -0.213605,-0.07223 -0.433033,-0.128327 -0.654371,-0.166758 -0.223008,-0.03872 -0.446494,-0.05972 -0.666639,-0.06159 -1.130364,-0.0096 -2.22469,0.474305 -2.821352,1.626719 -0.517186,0.99888 -1.100197,1.876165 -1.771179,2.673006 -0.734944,0.872701 -1.5758556,1.638845 -2.4824954,2.328699 -0.6280225,0.47779 -1.2092667,0.919917 -1.3028711,2.189679 l -0.00224,0.0306 c -0.00993,0.138544 -0.017566,0.262813 -0.025203,0.388228 -0.052984,0.867498 -0.1082106,1.770133 -0.5516975,2.535417 -0.3106461,0.535938 -0.4578068,1.059559 -0.1510271,1.63178 z"
   class="fil2" /><path
   style="fill:#e9cf1a;fill-opacity:1;fill-rule:nonzero"
   inkscape:connector-curvature="0"
   id="path75"
   d="m 30.383936,45.302937 c 1.230174,-0.15024 2.631136,-0.09114 4.098065,-0.02931 1.847791,0.07782 3.801071,0.160123 5.626666,-0.169766 2.448271,-0.442462 4.87005,-1.388875 7.40615,-2.379878 1.866025,-0.729192 3.793959,-1.482589 5.843994,-2.079731 -0.3253,-0.365646 -0.63461,-0.745663 -0.928454,-1.136803 l -4.77e-4,0 -0.0019,-0.0029 3.35e-4,-2.38e-4 c -0.821819,-1.094553 -1.408839,-1.848427 -1.943973,-2.453971 -0.531506,-0.601486 -1.014707,-1.059129 -1.63199,-1.564561 l 0.181195,-0.221517 c 0.626638,0.51307 1.119242,0.98007 1.664448,1.597024 0.54153,0.612801 1.132512,1.371688 1.958769,2.472065 l 4.78e-4,0 0.0019,0.0024 -3.34e-4,2.39e-4 c 0.445396,0.592892 0.927022,1.160244 1.44712,1.689021 1.280246,1.301413 2.64727,2.210015 3.831334,2.378827 0.72597,0.103502 1.457621,0.09476 2.255334,0.08522 1.053037,-0.0126 2.219965,-0.02664 3.644507,0.208293 1.639675,0.270308 3.226557,0.77426 4.551338,1.734279 1.329076,0.963122 2.39123,2.38193 2.974002,4.478419 l 0,4.77e-4 2.86e-4,9.55e-4 1.43e-4,-4.8e-5 c 0.07294,0.262765 0.132173,0.558615 0.195276,0.87399 0.11728,0.58683 0.255275,1.147832 0.434083,1.716138 0.200622,0.637101 0.389978,1.238587 0.326064,1.770037 -0.02625,0.218605 -0.04611,0.437974 -0.05933,0.657772 1.075758,0.128041 2.108269,-0.204378 3.01152,-0.775358 -0.600528,-0.599767 -0.77609,-1.115892 -0.727737,-1.486743 0.07704,-0.590219 0.736949,-0.848735 1.207167,-0.497793 0.250884,0.187192 0.443678,0.545152 0.441625,1.10391 0.544585,-0.410236 0.850029,-1.011818 0.760911,-1.69876 -0.04081,-0.314564 -0.158998,-0.630274 -0.338426,-0.926935 -0.404537,-0.6688 -1.010507,-1.091974 -1.714664,-1.394508 0.136469,-0.166806 0.240336,-0.297854 0.464251,-0.357244 0.293414,-0.07791 0.721006,-0.0168 1.197668,0.289834 -4.78e-4,-0.178502 -0.03733,-0.355859 -0.108211,-0.519849 -0.271839,-0.628937 -1.041438,-1.139381 -2.208556,-1.433846 l -9.55e-4,-2.87e-4 c -0.251409,-0.0635 -0.489358,-0.154059 -0.713799,-0.269687 -0.223103,-0.114912 -0.433176,-0.255222 -0.630218,-0.418926 -0.996759,-0.828302 -1.641536,-2.251216 -1.965118,-4.032042 -0.20382,-1.122147 -0.566495,-1.443251 -1.011461,-1.539783 -0.446017,-0.09663 -0.9917,-0.03351 -1.430891,0.02306 -0.499907,0.06445 -1.008693,0.130093 -1.466118,-0.0071 -0.29561,-0.08856 -0.528977,-0.277469 -0.761245,-0.46552 -0.116946,-0.09467 -0.233749,-0.189244 -0.352508,-0.264913 -0.310694,-0.197886 -0.641627,-0.362353 -0.965542,-0.500037 -0.325491,-0.138401 -0.642772,-0.249303 -0.925542,-0.34001 l -0.08477,-0.02717 -0.01313,-0.08808 c -0.175991,-1.180009 -0.408403,-2.19832 -0.681961,-3.097994 -0.273366,-0.899055 -0.588786,-1.682863 -0.930697,-2.393341 -1.287978,-2.676348 -3.755486,-4.315813 -6.455453,-5.261463 -1.966693,-0.689138 -4.263221,-1.078511 -6.323089,-0.506672 -1.424399,0.395484 -2.726316,1.214716 -2.901543,2.346315 l -0.281911,-0.04363 c 0.02998,-0.193732 0.0885,-0.379014 0.171313,-0.555177 -2.32259,0.319624 -4.609953,0.565919 -6.768629,0.573557 -2.039152,0.0072 -3.961406,-0.199174 -5.68657,-0.758075 0.07804,0.138591 0.14697,0.283771 0.205777,0.435873 l -0.266255,0.102929 C 33.17407,27.996859 30.143457,27.316888 28.030653,27.467462 l -0.02415,-0.285012 0.004,-2.87e-4 c 0.143056,-0.01017 0.289882,-0.0168 0.439525,-0.01943 l -0.198378,-3.6008 -0.0031,-0.05567 c 1.041915,-1.253243 1.931466,-2.614571 2.776005,-4.005499 l -4.012146,-3.79563 c 0.02177,0.177309 0.0054,0.353568 -0.06549,0.50462 -0.07427,0.158213 -0.203963,0.285156 -0.405587,0.353616 0.03446,0.200082 -0.01847,0.408613 -0.127638,0.578284 -0.280765,0.435921 -0.689073,0.384982 -1.141534,0.407324 -0.641722,0.03199 -1.21552,0.06054 -1.812134,-0.06498 l -0.0011,0 -0.01103,-0.0024 -0.0011,-5.73e-4 c -0.168354,-0.03795 -0.325395,-0.120832 -0.485301,-0.20519 -0.191743,-0.10121 -0.388594,-0.204998 -0.579859,-0.209486 -0.373893,-0.0088 -0.760243,0.01513 -1.153229,0.03939 -0.891508,0.05509 -1.780391,0.08464 -2.671422,0.147519 -0.337043,0.661401 -0.776091,1.263841 -1.10478,1.928584 -0.299429,0.605592 -0.497998,1.179531 -0.473511,1.698855 0.0232,0.491253 0.251171,0.94269 0.793083,1.339177 0.729599,-0.121023 1.300198,-0.555273 1.76149,-1.097943 1.579865,1.085244 4.051287,1.288572 5.716785,0.22887 l -9.5e-5,-9.6e-5 0.0026,-0.0017 0.155514,0.239468 -0.0026,0.0017 -0.0011,5.73e-4 c -1.669269,1.062948 -4.19883,0.948514 -5.820891,-0.09004 -0.449167,0.489772 -1.050411,0.865779 -1.707312,0.991289 0.0049,1.100902 -0.07065,2.209539 0.123485,3.29989 0.119332,0.670471 0.265109,1.385246 0.557234,2.018766 0.301673,-1.102382 1.196236,-1.889436 2.332233,-2.029842 1.256618,-0.155492 2.49061,0.506768 3.011615,1.675415 l -0.260622,0.116392 c -0.47079,-1.056074 -1.582013,-1.647868 -2.716339,-1.507558 -1.151796,0.142363 -1.973185,0.999739 -2.159678,2.137163 0.05475,0.09033 0.113366,0.178312 0.176469,0.263147 0.438141,0.588835 0.832415,1.217199 1.170507,1.95995 0.283677,0.623208 0.527593,1.326048 0.724109,2.152536 0.03971,-0.09944 0.07952,-0.198459 0.119476,-0.297425 0.154321,-0.382499 0.308069,-0.763423 0.438618,-1.150744 0.30005,-0.890317 0.208832,-1.801689 -0.141051,-2.622066 -0.06845,-0.160505 -0.146874,-0.317619 -0.234034,-0.470247 -0.08654,-0.151577 -0.182913,-0.300194 -0.287782,-0.444657 l 0,-5.73e-4 -6.21e-4,-8.6e-4 0.2316,-0.16671 3.34e-4,4.77e-4 2.87e-4,-1.91e-4 c 0.109452,0.150766 0.211409,0.30831 0.304584,0.471488 0.0926,0.162128 0.175896,0.329029 0.248545,0.499368 0.37585,0.881295 0.473034,1.862702 0.148879,2.824583 -0.134034,0.397681 -0.288832,0.781278 -0.44425,1.166403 -0.33437,0.828684 -0.671985,1.665437 -0.793656,2.623928 -0.153796,1.211995 -0.203677,2.429576 -0.09838,3.617462 0.101385,1.143439 0.347114,2.260143 0.782821,3.318699 1.015662,-0.201179 2.014426,-0.325496 3.007844,-0.382403 0.605445,-0.03476 1.208885,-0.04464 1.812612,-0.0316 0.422914,-0.67219 1.330938,-0.905451 2.077911,-0.755259 l -0.05594,0.279761 c -0.582629,-0.117156 -1.271654,0.02421 -1.67409,0.485476 0.320049,0.01155 0.640337,0.02936 0.961389,0.05309 0.521626,0.03853 0.893179,0.290073 1.119052,0.635668 0.545444,0.834652 0.211695,2.141795 -0.797523,2.425232 l -0.07723,-0.275274 c 0.823394,-0.231256 1.074899,-1.320653 0.635326,-1.993272 -0.179953,-0.275321 -0.478427,-0.475928 -0.899766,-0.507055 -1.032894,-0.07639 -2.057338,-0.09047 -3.086079,-0.03146 -1.029123,0.05901 -2.063735,0.191154 -3.11658,0.407181 -0.531555,0.10904 -1.022775,0.23899 -1.554567,0.23751 -0.587498,-0.0014 -1.120388,-0.100303 -1.71896,0.01595 -1.108932,0.215693 -2.084402,0.907839 -2.439631,2.155831 -0.30783,1.081519 -0.704539,2.057293 -1.203539,2.972006 -0.546065,1.000981 -1.217906,1.920325 -1.968889,2.776317 -0.520671,0.593608 -1.002392,1.143009 -0.841389,2.406039 l 2.87e-4,0.0024 c 0.01513,0.118588 0.03575,0.265582 0.05651,0.413578 0.120717,0.860241 0.24635,1.755381 -0.03594,2.593709 -0.120334,0.357292 -0.178139,0.666891 -0.139666,0.950566 0.03174,0.233644 0.130836,0.455256 0.316851,0.679304 1.006306,-0.518465 1.845165,-1.259736 2.516004,-2.16958 l -0.01155,-0.03538 -5.25e-4,-0.0019 c -0.09718,-0.309265 -0.16907,-0.633759 -0.175323,-0.959065 -0.01418,-0.737165 0.42931,-1.336598 1.140101,-1.337696 0.200002,-3.34e-4 0.405826,0.04912 0.598142,0.155492 l 2.39e-4,-4.3e-4 c 0.267686,0.148092 0.508213,0.405558 0.66745,0.791065 0.410312,-0.36283 0.550218,-0.786768 0.531936,-1.244029 -0.02821,-0.707757 -0.37141,-1.375507 -0.664013,-2.006545 0.567163,0.189006 0.931461,0.385173 1.356093,0.888265 0.254226,-0.659157 -0.02229,-1.414225 -0.350264,-1.992652 -0.542915,-0.957537 -0.271983,-1.94305 0.253127,-2.834656 0.76411,-0.276467 1.251272,-0.607693 1.729604,-1.268568 0.562485,0.273077 1.129028,0.527726 1.721442,0.731341 1.412895,0.485762 2.900731,0.708616 4.305847,0.480176 l 5.25e-4,0 0.0012,-1.91e-4 0,-9.5e-5 c 0.151504,-0.02463 0.298044,-0.05204 0.443964,-0.07925 0.640099,-0.119399 1.271415,-0.237224 1.926502,-0.08116 0.595516,0.141838 1.210269,0.242953 1.824401,0.207434 0.838191,-0.0487 0.819384,-0.43215 0.796043,-0.907839 -0.0211,-0.431051 -0.01322,-0.81145 0.217949,-1.19519 1.224589,-0.75884 2.475049,-1.89698 2.894192,-3.313114 l 0.274083,0.08059 c -0.435516,1.471371 -1.696334,2.634909 -2.957868,3.437861 -0.0894,0.159979 -0.128736,0.329077 -0.143915,0.497888 z"
   class="fil2" /><path
   style="fill:url(#linearGradient4158);fill-opacity:1;fill-rule:nonzero"
   inkscape:connector-curvature="0"
   id="path77"
   d="m 14.301652,55.367646 c -0.703154,0.979068 -1.588887,1.77801 -2.66011,2.334095 -0.05332,0.726662 -0.06148,1.558067 0.225872,2.240283 0.19962,0.473445 0.555278,0.520565 1.066784,0.141265 l 4.8e-5,4.8e-5 c 0.400861,-0.31762 0.77356,-0.653667 1.101008,-1.01855 0.531602,-0.592415 1.232895,-1.651019 1.254518,-2.48357 0.01026,-0.393241 -0.10716,-0.80343 -0.451315,-1.03058 -0.14024,-0.09257 -0.317663,-0.156829 -0.536805,-0.182991 z"
   class="fil2" /><path
   style="fill:#000000;fill-rule:nonzero"
   inkscape:connector-curvature="0"
   id="path79"
   d="m 18.353226,65.876345 45.929606,19.032336 c 1.541727,0.638724 2.649657,-2.073763 1.07466,-2.723706 L 18.791366,62.966832 c -1.188503,-0.490489 -2.564691,-1.050345 -3.808756,-1.192756 -2.206503,-0.252501 -3.359493,1.126635 -3.566081,3.142727 -0.0643,0.627123 -0.04835,1.289001 -6.68e-4,1.954221 l 2.86e-4,0.0038 c 0.02348,0.323874 0.08702,0.744757 0.15728,1.210945 0.197805,1.31206 0.45122,2.992965 0.0023,3.672029 -0.1895,0.286588 -0.481148,0.338053 -0.764873,0.150479 -0.444537,-0.293987 -0.6685,-0.877236 -0.9038709,-1.338078 0.021814,1.422818 0.1147019,2.84683 1.2092669,3.946873 0.56764,0.57055 1.377096,0.951903 2.192852,0.783474 0.914277,-0.188815 1.407931,-0.962311 1.626787,-1.808421 0.345777,-1.336455 0.291505,-2.840815 0.179237,-4.220475 -0.07475,-0.918914 -0.152316,-1.871343 0.07127,-2.681313 0.02449,-0.0887 0.05313,-0.172201 0.08559,-0.250543 l 0,-4.78e-4 c 0.531172,-1.282699 2.08951,-0.874038 3.081258,-0.463133 z"
   class="fil0" /><path
   inkscape:connector-curvature="0"
   style="fill:url(#linearGradient4154);fill-rule:nonzero"
   id="path81"
   d="M 64.391234,84.644675 18.461627,65.612339 c -1.151844,-0.477312 -2.849085,-0.840954 -3.45367,0.618243 l -1.91e-4,-9.6e-5 c -0.03623,0.08746 -0.06859,0.182131 -0.09675,0.284058 -0.237471,0.860432 -0.157996,1.837303 -0.08129,2.779754 0.109738,1.348534 0.167781,2.819713 -0.170359,4.126521 -0.190837,0.737595 -0.604108,1.43442 -1.407502,1.600271 -0.720338,0.14876 -1.434232,-0.203471 -1.93328,-0.705083 -0.681722,-0.685128 -0.993037,-1.639418 -1.085829,-2.58101 0.139046,0.184232 0.280717,0.319625 0.42024,0.411908 0.413559,0.273459 0.885304,0.185759 1.160866,-0.231066 0.509979,-0.771443 0.2474,-2.512883 0.04248,-3.872254 -0.06969,-0.462369 -0.132697,-0.879767 -0.155084,-1.188602 l -2.86e-4,-0.0038 c -0.04673,-0.651852 -0.06263,-1.298263 -3.82e-4,-1.904952 0.19012,-1.855063 1.20793,-3.121244 3.249421,-2.887601 1.207166,0.138162 2.562114,0.68952 3.732669,1.172609 l 46.566126,19.218143 c 1.226785,0.506291 0.333749,2.689095 -0.85757,2.195503 z"
   class="fil3" /><path
   style="fill:#000000;fill-rule:nonzero"
   inkscape:connector-curvature="0"
   id="path83"
   d="M 65.745418,66.685551 19.815811,85.717887 c -1.541727,0.638724 -2.649656,-2.073763 -1.07466,-2.723706 L 65.307277,63.776038 c 1.188503,-0.490489 2.564692,-1.050345 3.808756,-1.192756 2.206504,-0.252501 3.359493,1.126635 3.566082,3.142728 0.0643,0.627122 0.04835,1.289 4.77e-4,1.95422 l -2.86e-4,0.0038 c -0.02348,0.323873 -0.08702,0.744756 -0.157281,1.210944 -0.197805,1.31206 -0.451219,2.992965 -0.0024,3.672029 0.1895,0.286588 0.481148,0.338053 0.764873,0.150479 0.444537,-0.293987 0.6685,-0.877236 0.903871,-1.338078 -0.02181,1.422818 -0.114702,2.84683 -1.209267,3.946873 -0.56764,0.57055 -1.377096,0.951903 -2.192852,0.783474 C 69.874987,75.920956 69.381333,75.14746 69.162477,74.30135 68.8167,72.964895 68.870972,71.460536 68.98324,70.080875 c 0.07475,-0.918914 0.152316,-1.871343 -0.07126,-2.681313 -0.02449,-0.0887 -0.05313,-0.172201 -0.08559,-0.250543 l 0,-4.78e-4 c -0.531172,-1.282699 -2.08951,-0.874038 -3.081257,-0.463133 z"
   class="fil0" /><path
   inkscape:connector-curvature="0"
   style="fill:url(#linearGradient4150);fill-rule:nonzero"
   id="path85"
   d="M 19.707123,85.453404 65.63673,66.421067 c 1.151844,-0.477312 2.849085,-0.840953 3.45367,0.618243 l 1.91e-4,-9.5e-5 c 0.03623,0.08746 0.06859,0.182131 0.09676,0.284058 0.237472,0.860431 0.157996,1.837303 0.08129,2.779754 -0.109738,1.348533 -0.167781,2.819713 0.170359,4.126521 0.190837,0.737595 0.604109,1.434419 1.407502,1.600271 0.720338,0.14876 1.434232,-0.203471 1.93328,-0.705084 0.681722,-0.685128 0.993037,-1.639418 1.08583,-2.581009 -0.139047,0.184232 -0.280718,0.319624 -0.420241,0.411907 -0.413559,0.273459 -0.885304,0.18576 -1.160866,-0.231065 -0.509979,-0.771443 -0.2474,-2.512883 -0.04248,-3.872254 0.06969,-0.462369 0.132697,-0.879767 0.155084,-1.188602 l 2.87e-4,-0.0038 c 0.04673,-0.651853 0.06262,-1.298263 3.81e-4,-1.904953 -0.19012,-1.855063 -1.20793,-3.121243 -3.249421,-2.8876 -1.207166,0.138162 -2.562114,0.68952 -3.732669,1.172609 L 18.849553,83.258092 c -1.226785,0.506291 -0.333749,2.689094 0.85757,2.195503 z"
   class="fil4" /><path
   inkscape:connector-curvature="0"
   style="fill:url(#linearGradient4147);fill-rule:nonzero"
   id="path87"
   d="m 9.6970923,48.485337 c -0.8840144,0.819231 -1.9111799,1.42616 -3.0716159,1.757863 -0.098187,0.349749 -0.176421,0.69353 -0.222531,1.027524 -0.046062,0.333279 -0.06043,0.657104 -0.031265,0.967563 l 5.25e-4,0.0056 c 0.020048,0.369275 0.1116474,0.600436 0.2745123,0.693292 0.1649651,0.0941 0.4209092,0.06025 0.7677369,-0.101306 l -4.78e-5,-9.6e-5 c 0.8778091,-0.445039 1.716334,-1.003511 2.3342372,-1.781638 l 0.0042,-0.0053 0.00644,-0.0065 C 10.269745,50.530265 10.825165,49.407736 10.187167,48.771638 10.068216,48.65305 9.9070695,48.554704 9.6970923,48.485337 z"
   class="fil5" /><path
   style="fill:url(#linearGradient4263);fill-opacity:1;fill-rule:nonzero"
   d="m 63.985069,39.405279 -6.103056,3.986388 c 0.01786,0.0029 0.03514,0.0063 0.05292,0.0088 0.725972,0.103502 1.460063,0.09775 2.257778,0.08819 1.053036,-0.0126 2.217888,-0.02327 3.64243,0.211667 1.639675,0.270307 3.226054,0.768593 4.550834,1.728611 1.329077,0.963123 2.38938,2.38379 2.972152,4.480278 l 0.0088,0 c 0.07294,0.262766 0.130926,0.55775 0.194028,0.873125 0.11728,0.58683 0.253345,1.151486 0.432152,1.719791 0.200621,0.6371 0.390235,1.241259 0.32632,1.772709 -0.02625,0.218604 -0.04852,0.432841 -0.06174,0.652639 1.075757,0.128041 2.113,-0.205134 3.01625,-0.776111 -0.60053,-0.599768 -0.780367,-1.110816 -0.732014,-1.481667 0.07704,-0.59022 0.738048,-0.853652 1.208264,-0.502708 0.250884,0.187192 0.443024,0.543672 0.440972,1.10243 0.544584,-0.410235 0.847589,-1.00639 0.758472,-1.693333 -0.04081,-0.314565 -0.15571,-0.629381 -0.335139,-0.926042 -0.404537,-0.668802 -1.006816,-1.090938 -1.710972,-1.393472 0.136469,-0.166807 0.234696,-0.302206 0.458611,-0.361597 0.293415,-0.07791 0.722783,-0.01559 1.199445,0.291041 -4.77e-4,-0.178502 -0.03495,-0.356356 -0.105834,-0.520347 -0.271839,-0.628938 -1.046562,-1.143104 -2.21368,-1.437569 -0.251409,-0.0635 -0.489935,-0.148954 -0.714375,-0.264584 -0.223105,-0.114912 -0.429139,-0.25963 -0.626181,-0.423333 -0.996761,-0.828302 -1.643154,-2.249658 -1.966736,-4.030486 -0.203821,-1.122147 -0.56927,-1.438052 -1.014236,-1.534583 -0.446018,-0.09663 -0.989559,-0.03893 -1.42875,0.01764 -0.499906,0.06445 -1.006602,0.128374 -1.464028,-0.0088 -0.295611,-0.08856 -0.535023,-0.270561 -0.767291,-0.458611 -0.116945,-0.09467 -0.2252,-0.188914 -0.343959,-0.264583 -0.310693,-0.197886 -0.646224,-0.365024 -0.970139,-0.502709 -0.325489,-0.138401 -0.643272,-0.253249 -0.926041,-0.343958 l -0.03528,-0.0088 z"
   id="path89"
   inkscape:connector-curvature="0" /><path
   style="fill:#1f1a17;fill-rule:nonzero"
   inkscape:connector-curvature="0"
   id="path95"
   d="m 67.995072,42.095712 0.149595,-0.02779 c 0.254369,-0.04745 0.510457,-0.09524 0.751842,-0.109947 0.667259,-0.04072 1.207023,0.152006 1.26922,1.171176 0.02807,0.459839 0.103962,0.829258 0.224488,1.132221 0.118091,0.296756 0.280192,0.531307 0.482962,0.726375 l -0.197997,0.205859 c -0.231075,-0.222329 -0.415658,-0.489343 -0.550074,-0.827014 -0.131934,-0.331703 -0.214703,-0.730243 -0.244632,-1.220636 -0.04792,-0.784954 -0.459047,-0.933714 -0.967165,-0.902682 -0.225634,0.0137 -0.47227,0.05977 -0.717188,0.105459 -0.03914,0.0073 -0.07714,0.01442 -0.15074,0.02779 l -0.05031,-0.280811 z"
   class="fil7" /><path
   style="fill:url(#radialGradient4228);fill-rule:nonzero;fill-opacity:1"
   inkscape:connector-curvature="0"
   class="fil2"
   d="m 28.028791,27.445584 -0.0031,-0.03719 -0.01914,-0.226005 0.004,-2.86e-4 c 0.143056,-0.01017 0.289883,-0.01681 0.439525,-0.01943 l -0.198378,-3.6008 -0.0031,-0.05567 c 1.041915,-1.253244 1.931467,-2.614572 2.776006,-4.0055 l -4.012146,-3.795629 c 0.02177,0.177309 0.0054,0.353568 -0.06549,0.504619 -0.07427,0.158213 -0.203963,0.285157 -0.405587,0.353616 0.03446,0.200081 -0.01847,0.408613 -0.127638,0.578284 -0.280765,0.435921 -0.689073,0.384981 -1.141533,0.407324 -0.641722,0.03199 -1.21552,0.06054 -1.812134,-0.06498 l -0.0011,0 -0.01103,-0.0024 -0.0011,-5.73e-4 c -0.168354,-0.03795 -0.325396,-0.120832 -0.485301,-0.20519 -0.191743,-0.10121 -0.388594,-0.204999 -0.57986,-0.209486 -0.373892,-0.0088 -0.760243,0.01513 -1.153228,0.03939 -0.891509,0.05509 -1.780392,0.08464 -2.671423,0.147519 -0.337042,0.6614 -0.77609,1.263841 -1.104779,1.928584 -0.299429,0.605591 -0.497998,1.179532 -0.473511,1.698855 0.0232,0.491253 0.251171,0.942689 0.793083,1.339177 0.729598,-0.121023 1.300198,-0.555273 1.761489,-1.097943 1.579866,1.085243 4.051287,1.288571 5.716786,0.22887 l -9.6e-5,-9.6e-5 0.0026,-0.0017 0.155514,0.239468 -0.0026,0.0017 -0.0011,5.73e-4 c -1.66927,1.062948 -4.19883,0.948513 -5.820891,-0.09004 -0.449167,0.489772 -1.050412,0.865778 -1.707313,0.991289 0.0049,1.100902 -0.07064,2.209538 0.123485,3.29989 0.119333,0.670471 0.265109,1.385246 0.557235,2.018766 0.301672,-1.102382 1.196236,-1.889436 2.332232,-2.029842 1.231129,-0.152341 2.440443,0.480368 2.978966,1.605045 0.01117,0.0233 0.02205,0.04664 0.03265,0.07037 l -0.135085,0.06034 0.356661,0.923211 3.906513,-0.994154 z"
   id="path3344" /><path
   style="fill:url(#radialGradient4236);fill-opacity:1;fill-rule:nonzero"
   inkscape:connector-curvature="0"
   class="fil2"
   d="m 34.056604,30.124319 -0.0035,0.0014 -0.04912,0.019 c -0.829933,-2.14781 -3.860547,-2.827781 -5.97335,-2.677207 l -0.0019,-0.02182 -3.906513,0.994154 -0.356661,-0.923211 -0.125537,0.05605 c -0.47079,-1.056074 -1.582014,-1.647868 -2.71634,-1.507558 -1.151796,0.142363 -1.973185,0.999739 -2.159677,2.137163 0.05475,0.09033 0.113366,0.178312 0.176468,0.263147 0.438141,0.588835 0.832416,1.217199 1.170508,1.95995 0.283677,0.623208 0.527592,1.326048 0.724109,2.152536 0.03971,-0.09944 0.07952,-0.198459 0.119476,-0.297425 0.15432,-0.382499 0.308068,-0.763423 0.438618,-1.150744 0.300049,-0.890317 0.208831,-1.801689 -0.141051,-2.622066 -0.06845,-0.160505 -0.146874,-0.317619 -0.234035,-0.470247 -0.08654,-0.151577 -0.182913,-0.300194 -0.287782,-0.444657 l 0,-5.73e-4 -6.2e-4,-8.6e-4 0.2316,-0.16671 3.34e-4,4.77e-4 2.86e-4,-1.91e-4 c 0.109452,0.150766 0.21141,0.30831 0.304584,0.471488 0.0926,0.162128 0.175896,0.329029 0.248546,0.499368 0.375849,0.881296 0.473034,1.862702 0.148879,2.824583 -0.134034,0.397681 -0.288832,0.781279 -0.444251,1.166403 -0.334369,0.828685 -0.671984,1.665437 -0.793655,2.623928 -0.153796,1.211995 -0.203677,2.429576 -0.09838,3.617463 0.101385,1.143439 0.347114,2.260143 0.78282,3.318699 1.015662,-0.201179 2.014427,-0.325496 3.007845,-0.382403 0.605445,-0.03476 1.208885,-0.04464 1.812611,-0.03161 0.422914,-0.67219 1.330938,-0.905451 2.077911,-0.755259 l -0.05594,0.279761 c -0.582628,-0.117156 -1.271653,0.0242 -1.67409,0.485476 0.32005,0.01155 0.640338,0.02936 0.96139,0.05309 0.521625,0.03853 0.893179,0.290073 1.119051,0.635668 0.545445,0.834652 0.211696,2.141795 -0.797522,2.425232 l -0.07723,-0.275274 c 0.823393,-0.231257 1.074898,-1.320653 0.635326,-1.993272 -0.179954,-0.275321 -0.478428,-0.475928 -0.899767,-0.507055 -1.032893,-0.07638 -2.057338,-0.09047 -3.086079,-0.03146 -1.029122,0.05901 -2.063734,0.191154 -3.11658,0.407182 -0.531554,0.10904 -1.022774,0.23899 -1.554567,0.23751 -0.587497,-0.0014 -1.120388,-0.100303 -1.718959,0.01595 -1.108932,0.215693 -2.084403,0.90784 -2.439631,2.155831 -0.30783,1.081519 -0.704539,2.057293 -1.203539,2.972006 -0.546065,1.000982 -1.217907,1.920325 -1.968889,2.776317 -0.520671,0.593608 -1.002392,1.143009 -0.841389,2.406039 l 2.86e-4,0.0024 c 0.01513,0.118589 0.03575,0.265582 0.05652,0.413578 0.120717,0.860242 0.24635,1.755381 -0.03594,2.593709 -0.120335,0.357292 -0.178139,0.666891 -0.139666,0.950566 0.03174,0.233644 0.130836,0.455256 0.316851,0.679304 1.006306,-0.518464 1.845165,-1.259735 2.516004,-2.16958 l -0.01155,-0.03538 -5.25e-4,-0.0019 c -0.09718,-0.309265 -0.16907,-0.633759 -0.175323,-0.959065 -0.01418,-0.737165 0.42931,-1.336598 1.140101,-1.337696 0.200001,-3.34e-4 0.405826,0.04913 0.598142,0.155492 l 2.39e-4,-4.3e-4 c 0.267686,0.148092 0.508212,0.405558 0.66745,0.791065 0.410312,-0.36283 0.550217,-0.786768 0.531936,-1.244029 -0.02821,-0.707757 -0.371411,-1.375507 -0.664014,-2.006545 0.567163,0.189006 0.931461,0.385173 1.356094,0.888265 0.254225,-0.659157 -0.02229,-1.414225 -0.350265,-1.992652 -0.542914,-0.957537 -0.271982,-1.94305 0.253128,-2.834656 0.764109,-0.276467 1.251272,-0.607693 1.729604,-1.268568 0.562485,0.273077 1.129027,0.527726 1.721441,0.731341 1.412896,0.485762 2.900732,0.708616 4.305847,0.480176 l 5.25e-4,0 0.0012,-1.91e-4 0,-9.5e-5 c 0.151505,-0.02463 0.298045,-0.05204 0.443964,-0.07925 0.640099,-0.119399 1.271415,-0.237224 1.926503,-0.08116 0.595516,0.141838 1.210269,0.242953 1.824401,0.207434 0.838191,-0.0487 0.819384,-0.43215 0.796042,-0.907839 -0.0211,-0.431051 -0.01322,-0.81145 0.217949,-1.19519 1.224589,-0.75884 2.475049,-1.89698 2.894193,-3.313114 l 0.104964,0.03084 0.0253,0.0074 c 0.810362,-3.561939 1.084063,-7.284812 0.714705,-11.200654 z"
   id="path3346" /><path
   style="fill:url(#radialGradient4252);fill-rule:nonzero;fill-opacity:1"
   inkscape:connector-curvature="0"
   class="fil2"
   d="m 48.93721,35.382488 0.03203,-0.03915 0.06439,-0.07872 c 0.626638,0.51307 1.119242,0.98007 1.664448,1.597024 0.541531,0.6128 1.132512,1.371687 1.95877,2.472065 l 4.77e-4,0 0.0019,0.0024 -3.35e-4,2.39e-4 c 0.445397,0.592892 0.927022,1.160243 1.44712,1.68902 1.280246,1.301414 2.64727,2.210016 3.831334,2.378827 0.725971,0.103502 1.457621,0.09477 2.255334,0.08522 1.053037,-0.0126 2.219965,-0.02664 3.644507,0.208293 1.639675,0.270308 3.226557,0.774259 4.551338,1.734279 1.329076,0.963122 2.39123,2.381929 2.974002,4.478417 l 0,4.79e-4 2.86e-4,9.54e-4 1.43e-4,-4.8e-5 c 0.07294,0.262766 0.132173,0.558616 0.195276,0.87399 0.11728,0.58683 0.255275,1.147832 0.434083,1.716138 0.200622,0.6371 0.389978,1.238586 0.326064,1.770038 -0.02625,0.218604 -0.04611,0.437973 -0.05933,0.657772 1.075758,0.128041 2.108269,-0.204378 3.01152,-0.775358 -0.600528,-0.599767 -0.77609,-1.115893 -0.727737,-1.486743 0.07704,-0.590219 0.736949,-0.848736 1.207167,-0.497793 0.250884,0.187191 0.443678,0.545152 0.441625,1.10391 0.544585,-0.410237 0.850029,-1.011818 0.760911,-1.69876 -0.04081,-0.314564 -0.158998,-0.630274 -0.338427,-0.926935 -0.404536,-0.6688 -1.010506,-1.091975 -1.714663,-1.394508 0.136469,-0.166806 0.240336,-0.297855 0.464251,-0.357244 0.293414,-0.07791 0.721006,-0.0168 1.197668,0.289834 -4.78e-4,-0.178503 -0.03733,-0.35586 -0.108211,-0.519849 -0.271839,-0.628938 -1.041438,-1.139381 -2.208556,-1.433847 l -9.55e-4,-2.87e-4 c -0.251409,-0.06349 -0.489358,-0.154058 -0.713799,-0.269688 -0.223103,-0.114912 -0.433176,-0.255222 -0.630218,-0.418925 -0.996759,-0.828302 -1.641536,-2.251216 -1.965118,-4.032042 -0.20382,-1.122147 -0.566495,-1.443252 -1.011461,-1.539783 -0.446017,-0.09663 -0.9917,-0.03351 -1.430891,0.02306 -0.499907,0.06445 -1.008693,0.130094 -1.466118,-0.0071 -0.29561,-0.08856 -0.528977,-0.277469 -0.761245,-0.46552 -0.116946,-0.09467 -0.233748,-0.189245 -0.352508,-0.264913 -0.310694,-0.197885 -0.641626,-0.362352 -0.965542,-0.500037 -0.325491,-0.1384 -0.642772,-0.249302 -0.925542,-0.340009 l -0.08477,-0.02716 -0.01313,-0.08808 C 63.747307,38.12194 63.514895,37.10363 63.241338,36.203955 62.967971,35.304901 62.652552,34.521093 62.31064,33.810614 61.022662,31.134266 58.555155,29.4948 55.855188,28.549151 c -1.966694,-0.689138 -4.263222,-1.078512 -6.32309,-0.506672 -1.424399,0.395485 -2.726315,1.214715 -2.901543,2.346316 l -0.0033,-4.77e-4 -0.0905,-0.01399 c 0.413511,2.055908 1.295043,3.643814 2.400538,5.007816 z"
   id="path3348" /><path
   style="fill:url(#radialGradient4244);fill-rule:nonzero;fill-opacity:1"
   inkscape:connector-curvature="0"
   class="fil2"
   d="m 30.383935,45.303021 c 1.230174,-0.15024 2.631136,-0.09114 4.098065,-0.02931 1.847791,0.07782 3.801071,0.160123 5.626666,-0.169766 2.448271,-0.442462 4.87005,-1.388875 7.40615,-2.379878 1.866025,-0.729191 3.793959,-1.482588 5.843994,-2.079731 -0.3253,-0.365646 -0.63461,-0.745663 -0.928454,-1.136803 l -4.77e-4,0 -0.0019,-0.0029 3.34e-4,-2.38e-4 c -0.821818,-1.094553 -1.408838,-1.848427 -1.943972,-2.453971 -0.531506,-0.601486 -1.014707,-1.059129 -1.63199,-1.564561 l 0.08477,-0.103645 c -1.105495,-1.364002 -1.987028,-2.951908 -2.400538,-5.007816 l -0.188116,-0.02912 c 0.02998,-0.193732 0.0885,-0.379014 0.171314,-0.555178 -2.32259,0.319625 -4.609954,0.56592 -6.768629,0.573558 -2.039152,0.0072 -3.961406,-0.199174 -5.68657,-0.758076 0.07804,0.138592 0.146969,0.283772 0.205776,0.435874 l -0.213652,0.08259 c 0.369357,3.915842 0.09566,7.638715 -0.714706,11.200654 l 0.14382,0.0423 c -0.435516,1.471371 -1.696334,2.634909 -2.957869,3.437861 -0.0894,0.159979 -0.128735,0.329077 -0.143914,0.497888 z"
   id="path3350" /><path
   style="fill:url(#linearGradient4290);fill-rule:nonzero;fill-opacity:1"
   d="m 24.904357,41.814489 c -0.256848,0.0058 -0.518925,0.02053 -0.776111,0.03528 -1.029123,0.05901 -2.060417,0.189667 -3.113264,0.405694 -0.531554,0.10904 -1.020428,0.239604 -1.552222,0.238125 -0.587497,-0.0014 -1.121221,-0.107433 -1.719792,0.0088 -1.108933,0.215694 -2.087759,0.912771 -2.442986,2.160764 -0.307831,1.081517 -0.700444,2.057439 -1.199444,2.972152 -0.546067,1.00098 -1.224574,1.922134 -1.975556,2.778125 -0.520672,0.59361 -0.998849,1.13586 -0.837847,2.398889 l 0,0.0088 c 0.01513,0.118587 0.03215,0.266516 0.05292,0.414513 0.120718,0.860242 0.247013,1.75459 -0.03528,2.592917 -0.120334,0.357293 -0.170764,0.668824 -0.132292,0.9525 0.03174,0.233643 0.122665,0.45505 0.308681,0.679097 1.006305,-0.518464 1.851521,-1.259738 2.522361,-2.169583 l -0.01764,-0.03528 0,-0.0088 c -0.09718,-0.309265 -0.161316,-0.627194 -0.16757,-0.9525 -0.01418,-0.737165 0.426918,-1.339458 1.137709,-1.340556 0.199999,-3.33e-4 0.407407,0.05239 0.599722,0.15875 l 0,-0.0088 c 0.267685,0.148093 0.50222,0.408243 0.661458,0.79375 0.410312,-0.362831 0.556269,-0.78628 0.537986,-1.243542 -0.02821,-0.707757 -0.377675,-1.370976 -0.670277,-2.002014 0.567162,0.189007 0.93356,0.378853 1.358194,0.881945 0.254226,-0.659159 -0.0248,-1.414769 -0.352778,-1.993195 -0.542913,-0.957537 -0.269347,-1.939436 0.255764,-2.831041 0.764108,-0.276468 1.250278,-0.609126 1.728611,-1.27 0.562486,0.273078 1.127379,0.528399 1.719792,0.732014 1.412895,0.48576 2.907594,0.704689 4.312708,0.47625 0.151506,-0.02463 0.295052,-0.05217 0.440972,-0.07937 0.6401,-0.1194 1.27637,-0.235439 1.931459,-0.07937 0.09905,0.02359 0.199836,0.04084 0.299861,0.06174 l -0.176389,-1.91382 c -0.01481,0.0047 -0.02898,0.01339 -0.0441,0.01764 l -0.07937,-0.273403 c 0.823391,-0.231255 1.074572,-1.320574 0.635,-1.993194 -0.179954,-0.275322 -0.478246,-0.480402 -0.899584,-0.511528 -0.774669,-0.05729 -1.540151,-0.07909 -2.310694,-0.06174 z"
   id="path3328"
   inkscape:connector-curvature="0" /></svg>