<?xml version="1.0" encoding="UTF-8" standalone="no"?>
<!-- Creator: CorelDRAW -->

<svg
   xmlns:dc="http://purl.org/dc/elements/1.1/"
   xmlns:cc="http://creativecommons.org/ns#"
   xmlns:rdf="http://www.w3.org/1999/02/22-rdf-syntax-ns#"
   xmlns:svg="http://www.w3.org/2000/svg"
   xmlns="http://www.w3.org/2000/svg"
   xmlns:sodipodi="http://sodipodi.sourceforge.net/DTD/sodipodi-0.dtd"
   xmlns:inkscape="http://www.inkscape.org/namespaces/inkscape"
   xml:space="preserve"
   width="300"
   height="355.99997"
   style="fill-rule:evenodd"
   viewBox="0 0 84.666667 100.47111"
   id="svg2"
   version="1.1"
   inkscape:version="0.48.1 "
   sodipodi:docname="столбцы.svg"><metadata
   id="metadata21"><rdf:RDF><cc:Work
       rdf:about=""><dc:format>image/svg+xml</dc:format><dc:type
         rdf:resource="http://purl.org/dc/dcmitype/StillImage" /></cc:Work></rdf:RDF></metadata><sodipodi:namedview
   pagecolor="#ffffff"
   bordercolor="#666666"
   borderopacity="1"
   objecttolerance="10"
   gridtolerance="10"
   guidetolerance="10"
   inkscape:pageopacity="0"
   inkscape:pageshadow="2"
   inkscape:window-width="1280"
   inkscape:window-height="750"
   id="namedview19"
   showgrid="false"
   fit-margin-top="0"
   fit-margin-left="0"
   fit-margin-right="0"
   fit-margin-bottom="0"
   inkscape:zoom="1.3615384"
   inkscape:cx="57.411317"
   inkscape:cy="177.50353"
   inkscape:window-x="-8"
   inkscape:window-y="-8"
   inkscape:window-maximized="1"
   inkscape:current-layer="svg2" />
 <defs
   id="defs4"><style
     type="text/css"
     id="style6">
   
    .fil0 {fill:black}
    .fil2 {fill:#3C82C2}
    .fil1 {fill:#F8E335}
    .fil3 {fill:black;fill-rule:nonzero}
    .fil4 {fill:white;fill-rule:nonzero}
   
  </style><style
     id="style3018"
     type="text/css">
   
    .str0 {stroke:#FF6600;stroke-width:0.7056}
    .fil1 {fill:none}
    .fil0 {fill:#A90000}
   
  </style></defs>
 
<path
   style="fill:#a90000"
   inkscape:connector-curvature="0"
   class="fil0"
   d="m 62.609264,47.97936 c 0.829361,0 1.501921,0.673578 1.501921,1.504195 l 0,1.503994 c 0,0.830617 -0.67256,1.504195 -1.501921,1.504195 l -1.501921,0 0,-4.512384 1.501921,0 z m 0,6.016579 c 1.658722,0 3.003842,-1.347157 3.003842,-3.00839 l 0,-1.503994 c 0,-1.661233 -1.34512,-3.00839 -3.003842,-3.00839 l -3.003842,0 0,7.520774 3.003842,0 z m -6.007684,-7.520774 1.501921,0 0,7.520774 -1.501921,0 0,-7.520774 z m -3.003842,0 1.501921,0 0,7.520774 -1.501921,0 -3.003842,-4.721768 0,4.721768 -1.501922,0 0,-7.520774 1.501922,0 3.003842,4.721768 0,-4.721768 z m -22.528816,1e-4 4.505763,0 0,1.504195 -3.003842,0 0,1.504095 3.003842,0 0,1.504195 -3.003842,0 0,1.504095 3.003842,0 0,1.504195 -4.505763,0 0,-7.520775 z m -6.007684,-2.01e-4 1.501921,0 0,6.016781 3.003842,0 0,1.504195 -4.505763,0 0,-7.520976 z m 15.770571,6.016781 1.501521,0 c 1.243991,0 2.252881,-1.010418 2.252881,-2.256293 0,-1.245875 -1.027614,-2.251981 -2.252881,-2.256293 l -1.501521,0 0,1.504195 1.501521,0 c 0.41463,0 0.75096,0.33684 0.75096,0.752098 0,0.415258 -0.33633,0.752097 -0.75096,0.752097 l -1.501521,0 0,1.504196 z m 1.501521,-7.520976 c 2.902712,0 5.256723,2.357575 5.256723,5.264683 0,2.907108 -2.354011,5.264683 -5.256723,5.264683 -2.902713,0 -5.256724,-2.357575 -5.256724,-5.264683 0,-2.907108 2.354011,-5.264683 5.256724,-5.264683 z m 0,1.504195 c 2.073352,0 3.754802,1.683997 3.754802,3.760488 0,2.076491 -1.68145,3.760488 -3.754802,3.760488 -2.073352,0 -3.754803,-1.683997 -3.754803,-3.760488 0,-2.076491 1.681451,-3.760488 3.754803,-3.760488 z"
   id="path3022" /><path
   id="path3009"
   d="m 84.66667,58.073687 c 0,23.411068 -18.95766,42.397423 -42.333336,42.397423 C 18.957155,100.47111 -2.8548925e-6,81.485257 -2.8548925e-6,58.073687 l 0,-58.073687 L 84.66667,0 l 0,58.073687 z"
   style="fill:#000000;stroke:none"
   inkscape:connector-curvature="0" /><path
   id="path3011-7"
   d="m 84.097411,58.073685 0,-57.5035682 -83.52816175,0 0,57.5035682 c 0,23.096347 18.70265075,41.827313 41.76408375,41.827313 23.061428,0 41.764078,-18.730966 41.764078,-41.827313 z"
   style="fill:#f8e335;fill-opacity:1;fill-rule:evenodd;stroke:none"
   inkscape:connector-curvature="0" /><path
   style="fill:#3c82c2;fill-opacity:1;stroke:none"
   d="m 17.015601,0.56702929 0,90.76710071 c 7.025181,5.37291 15.798199,8.569947 25.317731,8.569947 9.519532,0 18.292548,-3.197037 25.317731,-8.569947 l 0,-90.76710071 -50.635462,0 z"
   id="path3011"
   inkscape:connector-curvature="0" /><g
   id="_158039792"
   transform="matrix(1.0779944,0,0,1.0781655,-71.047157,-109.7896)">
   <path
   style="fill:#000000;fill-rule:nonzero"
   inkscape:connector-curvature="0"
   d="m 85.065,154.029 8.7784,-32.2363 0.0319,-1.1155 c -0.555,-0.1584 -1.1334,-0.2163 -1.7088,-0.1675 0.0096,0.2847 -0.0165,0.5535 -0.3195,0.6678 -0.3969,0.1493 -0.8968,0.1569 -1.3108,0.1755 -1.1288,0.0506 -2.0733,-0.2831 -3.1341,-0.5519 -0.548,-0.1389 -1.1167,-0.1906 -1.6759,-0.266 0.5754,-0.1029 1.1508,-0.2236 1.7333,-0.2786 1.1457,-0.1083 2.3042,-0.0266 3.4436,-0.2114 l 7e-4,-0.2821 c 0,-0.2542 0.1348,-0.4454 0.3772,-0.5244 0.8513,-0.2778 1.7549,-0.3212 2.6431,-0.2665 l 0.0226,-0.7894 0.3294,0 0.0204,4.0605 0.0223,0.015 c 2.5757,1.7417 5.2461,2.824 7.9677,3.5485 2.6493,0.7052 5.3505,1.0726 8.061,1.379 l 1.3831,-2.1454 0.2803,0.1738 -0.003,0.004 10e-5,0 -0.002,0.003 -1.2722,2.1142 0.002,0.0315 2e-4,0.003 c 0.0725,1.1814 0.1889,2.4211 0.3442,3.7006 0.1551,1.2779 0.3491,2.5923 0.5768,3.9248 1.1651,6.8174 3.2178,14.1311 5.517,19.5345 l 5.3172,0 0,1.0144 -0.6849,0 0,1.3218 3.3844,0 0,0.9518 c 0.4487,0.0859 0.8117,0.2014 1.1556,0.3234 l -0.1098,0.3114 c -0.3341,-0.1185 -0.6855,-0.2305 -1.1149,-0.3121 -0.4326,-0.0822 -0.9465,-0.1349 -1.605,-0.1349 -1.5015,0 -2.2528,0.2751 -3.0046,0.5503 -0.7804,0.2857 -1.5614,0.5717 -3.1295,0.5717 -1.5682,0 -2.3492,-0.286 -3.1295,-0.5717 -0.7519,-0.2752 -1.5031,-0.5503 -3.0047,-0.5503 -1.5015,0 -2.2528,0.2751 -3.0046,0.5503 -0.7803,0.2857 -1.5614,0.5717 -3.1295,0.5717 -1.5681,0 -2.3491,-0.286 -3.1295,-0.5717 -0.7518,-0.2752 -1.5031,-0.5503 -3.0046,-0.5503 l 0,7e-4 c -1.5033,0 -2.2537,0.2747 -3.0046,0.5496 -0.7804,0.2857 -1.5615,0.5717 -3.1296,0.5717 -1.5681,0 -2.3491,-0.286 -3.1295,-0.5717 -0.7518,-0.2752 -1.5031,-0.5503 -3.0046,-0.5503 -1.5013,0 -2.2526,0.275 -3.0043,0.5502 l -0.0021,8e-4 -0.1137,-0.3101 0.0021,-8e-4 c 0.4953,-0.1814 0.9906,-0.3625 1.6881,-0.4703 l -0.6604,-2.1897 -2e-4,-7e-4 c -0.0141,-0.0469 -0.0291,-0.0928 -0.0445,-0.1402 -0.0655,-0.2006 -0.1391,-0.4266 -0.1391,-0.6385 l -7e-4,0 0,-3e-4 7e-4,0 c 10e-5,-0.2198 0.0892,-0.4189 0.2333,-0.5629 0.1058,-0.1058 0.2416,-0.1819 0.3937,-0.2147 z m 8.7382,-30.83 -8.3959,30.8314 c 0.3543,0.0799 0.6219,0.399 0.6222,0.776 l 6e-4,0 0,5e-4 0,4e-4 -6e-4,0 c -1e-4,0.1909 -0.0687,0.3753 -0.1927,0.5192 l 0.1019,0.3379 6.9333,0.0851 0.9312,-32.5505 z m 0.4986,0.0983 0.1435,28.5563 0.7994,-1.2401 c 0.1153,-1.1578 0.2169,-2.3111 0.3038,-3.4571 0.1167,-1.5388 0.2065,-3.0551 0.2663,-4.5415 0.2911,-7.2333 -0.1092,-13.9236 -1.513,-19.3176 z m 23.1859,32.7542 c -0.0777,-0.1685 -0.1547,-0.3374 -0.2305,-0.5067 l -3.5171,0 0,-1.0144 3.0755,0 c -0.0746,-0.1766 -0.1488,-0.3551 -0.2228,-0.5356 -0.9602,-0.2083 -1.9262,-0.399 -2.897,-0.5724 -1.0034,-0.1793 -2.0025,-0.3386 -2.9963,-0.4783 -4.9741,-0.6993 -9.9901,-0.9422 -14.914,-0.7669 l -1.3275,2.206 0.0069,1.3858 23.0228,0.2825 z m 2.7879,-0.5067 0,1.3218 1.2002,0 0,-1.3218 -1.2002,0 z m -2.657,0 c 0.0772,0.1709 0.1556,0.3413 0.235,0.5112 l 0.7264,0.009 -1.5625,2.7268 c 0.1167,0.004 0.2383,0.006 0.3653,0.006 0.6327,0 1.1323,-0.0484 1.5548,-0.1248 l 0,-1.806 1.0072,0 0,-1.3218 -2.3262,0 z"
   class="fil3"
   id="_158040656" />
   <path
   style="fill:#ffffff;fill-rule:nonzero"
   inkscape:connector-curvature="0"
   d="m 110.148,127.496 c -2.6686,-0.3042 -5.3286,-0.673 -7.9454,-1.3696 -2.625,-0.6988 -5.2032,-1.7264 -7.697,-3.3474 1.506,5.5 1.939,12.389 1.6387,19.8494 -0.0605,1.5033 -0.1501,3.023 -0.2662,4.5531 -0.0709,0.9351 -0.1519,1.8777 -0.2423,2.8261 L 110.148,127.496 z m 3.606,25.6013 c 0.8969,0.1602 1.7933,0.336 2.6885,0.5276 -2.1339,-5.3034 -4.0145,-12.1583 -5.1107,-18.5728 -0.229,-1.3397 -0.4238,-2.6597 -0.5794,-3.9416 -0.1364,-1.1233 -0.2429,-2.22 -0.3165,-3.2782 L 95.9883,151.841 c 4.8748,-0.1616 9.8364,0.0851 14.7565,0.7768 1.0121,0.1423 2.0157,0.3021 3.0092,0.4795 z m -19.2991,0.6523 11.7672,-19.5544 -11.7737,18.2635 0.0065,1.2909 z m -1.2532,2.0045 0.9339,0.0114 -0.0072,-1.4266 -0.1324,-26.3534 -0.7943,27.7686 z m -2.2985,-35.3747 c -0.6693,0.104 -1.3361,0.1209 -1.9999,0.1377 -0.3765,0.01 -0.7519,0.0192 -1.1245,0.0448 0.3582,0.1021 0.7129,0.2167 1.0757,0.3023 0.6326,0.1492 1.3684,0.2594 2.3882,0.0911 0.2344,-0.0387 0.1304,-0.283 -0.0384,-0.3215 -0.1384,-0.0315 -0.3011,0.0133 -0.3011,-0.2544 z m 2.9819,-0.0405 0.0296,-1.0359 c -0.8495,-0.0531 -1.7172,-0.0155 -2.5315,0.2502 -0.1058,0.0344 -0.1499,0.0996 -0.1499,0.2104 l 7e-4,0.2233 0,0 0,0.3459 c 0.8801,-0.2167 1.7789,-0.2268 2.6511,0.006 z m 22.7623,38.4347 1.367,-2.3855 -31.9758,-0.3924 0.5075,1.6828 c 0.0544,-7e-4 0.1097,-0.001 0.1661,-0.001 1.5624,0 2.3401,0.2848 3.1183,0.5697 0.7522,0.2754 1.5051,0.551 3.0158,0.551 1.5108,0 2.2637,-0.2756 3.0158,-0.551 0.7791,-0.2853 1.5578,-0.5703 3.1184,-0.5703 l 0,6e-4 c 1.5624,0 2.3401,0.2848 3.1183,0.5697 0.7522,0.2754 1.505,0.551 3.0158,0.551 1.5108,0 2.2636,-0.2756 3.0158,-0.551 0.7782,-0.2849 1.5559,-0.5697 3.1183,-0.5697 1.5625,0 2.3402,0.2848 3.1184,0.5697 0.619,0.2266 1.2385,0.4534 2.2803,0.5266 z m -30.4434,-1.0854 -0.7422,-2.4611 c 0.131,-0.1153 0.2383,-0.2291 0.2383,-0.4192 l -6e-4,0 0,-4e-4 0,-5e-4 6e-4,0 c -1e-4,-0.2551 -0.211,-0.4658 -0.466,-0.4658 l 0,7e-4 -3e-4,0 -5e-4,0 0,-7e-4 c -0.1282,1e-4 -0.2447,0.0525 -0.3293,0.1369 -0.0842,0.0843 -0.1364,0.2007 -0.1364,0.3291 l 6e-4,0 0,3e-4 -6e-4,0 c 0,0.1573 0.0654,0.3582 0.1235,0.5365 0.0171,0.0524 0.0338,0.1035 0.0472,0.1479 l 2e-4,6e-4 0.6756,2.2403 c 0.1824,-0.02 0.3782,-0.0352 0.5899,-0.0446 z m 35.9569,-2.8277 -8.0899,0 0,0.3554 8.0899,0 0,-0.3554 z m -2.216,2.6555 0,-0.318 -0.6765,0 0,1.4065 c 0.4282,-0.1006 0.7793,-0.229 1.1303,-0.3575 0.7782,-0.2849 1.5559,-0.5697 3.1183,-0.5697 0.5268,0 0.9645,0.0326 1.3433,0.0867 l 0,-0.566 -3.0536,0 0,0.318 -0.3308,0 0,-0.318 -1.2002,0 0,0.318 -0.3308,0 z"
   class="fil4"
   id="_158039912" />
  </g></svg>