<?xml version="1.0" encoding="UTF-8" standalone="no"?>
<!-- Creator: CorelDRAW -->

<svg
   xmlns:dc="http://purl.org/dc/elements/1.1/"
   xmlns:cc="http://creativecommons.org/ns#"
   xmlns:rdf="http://www.w3.org/1999/02/22-rdf-syntax-ns#"
   xmlns:svg="http://www.w3.org/2000/svg"
   xmlns="http://www.w3.org/2000/svg"
   xmlns:sodipodi="http://sodipodi.sourceforge.net/DTD/sodipodi-0.dtd"
   xmlns:inkscape="http://www.inkscape.org/namespaces/inkscape"
   xml:space="preserve"
   width="300"
   height="360"
   style="fill-rule:evenodd"
   viewBox="0 0 84.666667 101.6"
   id="svg2"
   version="1.1"
   inkscape:version="0.48.1 "
   sodipodi:docname="браслав.svg"><metadata
   id="metadata29"><rdf:RDF><cc:Work
       rdf:about=""><dc:format>image/svg+xml</dc:format><dc:type
         rdf:resource="http://purl.org/dc/dcmitype/StillImage" /></cc:Work></rdf:RDF></metadata><sodipodi:namedview
   pagecolor="#ffffff"
   bordercolor="#666666"
   borderopacity="1"
   objecttolerance="10"
   gridtolerance="10"
   guidetolerance="10"
   inkscape:pageopacity="0"
   inkscape:pageshadow="2"
   inkscape:window-width="1280"
   inkscape:window-height="750"
   id="namedview27"
   showgrid="false"
   fit-margin-top="0"
   fit-margin-left="0"
   fit-margin-right="0"
   fit-margin-bottom="0"
   inkscape:zoom="1.475"
   inkscape:cx="56.101692"
   inkscape:cy="180"
   inkscape:window-x="-8"
   inkscape:window-y="-8"
   inkscape:window-maximized="1"
   inkscape:current-layer="svg2" />
 <defs
   id="defs4"><style
     type="text/css"
     id="style6">
   
    .fil0 {fill:black}
    .fil4 {fill:#3C82C2}
    .fil5 {fill:#FDD07F}
    .fil2 {fill:black;fill-rule:nonzero}
    .fil1 {fill:#3C82C2;fill-rule:nonzero}
    .fil3 {fill:#F8E73D;fill-rule:nonzero}
    .fil6 {fill:#FDD07F;fill-rule:nonzero}
   
  </style><style
     id="style3026"
     type="text/css">
   
    .str0 {stroke:#FF6600;stroke-width:0.7056}
    .fil1 {fill:none}
    .fil0 {fill:#A90000}
   
  </style></defs>
 <path
   style="fill:#a90000"
   inkscape:connector-curvature="0"
   class="fil0"
   d="m 62.583334,48.5501 c 0.828299,0 1.5,0.6717 1.5,1.5 l 0,1.4998 c 0,0.8283 -0.671701,1.5 -1.5,1.5 l -1.5,0 0,-4.4998 1.5,0 z m 0,5.9998 c 1.6566,0 3,-1.3434 3,-3 l 0,-1.4998 c 0,-1.6566 -1.3434,-3 -3,-3 l -3,0 0,7.4998 3,0 z m -6,-7.4998 1.5,0 0,7.4998 -1.5,0 0,-7.4998 z m -3,0 1.5,0 0,7.4998 -1.5,0 -3,-4.7086 0,4.7086 -1.5,0 0,-7.4998 1.5,0 3,4.7086 0,-4.7086 z m -22.5,10e-5 4.5,0 0,1.5 -3,0 0,1.4999 3,0 0,1.5 -3,0 0,1.4999 3,0 0,1.5 -4.5,0 0,-7.4998 z m -6,-2e-4 1.5,0 0,6 3,0 0,1.5 -4.5,0 0,-7.5 z m 15.750399,6 1.499601,0 c 1.242399,0 2.25,-1.0076 2.25,-2.25 0,-1.2424 -1.0263,-2.2457 -2.25,-2.25 l -1.499601,0 0,1.5 1.499601,0 c 0.414099,0 0.75,0.3359 0.75,0.75 0,0.4141 -0.335901,0.75 -0.75,0.75 l -1.499601,0 0,1.5 z m 1.499601,-7.5 c 2.899,0 5.25,2.351 5.25,5.25 0,2.899 -2.351,5.25 -5.25,5.25 -2.899001,0 -5.25,-2.351 -5.25,-5.25 0,-2.899 2.350999,-5.25 5.25,-5.25 z m 0,1.5 c 2.0707,0 3.75,1.6793 3.75,3.75 0,2.0707 -1.6793,3.75 -3.75,3.75 -2.070701,0 -3.75,-1.6793 -3.75,-3.75 0,-2.0707 1.679299,-3.75 3.75,-3.75 z"
   id="path3030" /><g
   id="Слой_x0020_1"
   transform="matrix(0.90221403,0,0,0.90393632,-51.728795,-84.392942)">
  <metadata
   id="CorelCorpID_0Corel-Layer" />
  <g
   id="_158342424">
   <path
   id="_158342520"
   class="fil0"
   d="m 104.257,93.3616 c 16.3542,0 31.1671,2.8253 41.8969,7.3917 1.7651,0.7512 3.4209,1.5508 4.9563,2.3932 l 0,22.9848 c -3.4927,2.6846 -5.7447,6.9039 -5.7447,11.6486 0,4.7447 2.252,8.9634 5.7447,11.648 0,9.521 0.9401,19.5614 -4.1497,28.1618 -5.1381,8.6822 -14.9763,12.9317 -23.8383,16.7593 -6.7569,2.9185 -13.9285,5.6885 -18.8652,11.4099 -4.9367,-5.7214 -12.1083,-8.4914 -18.8652,-11.4099 -8.862,-3.8276 -18.7002,-8.0771 -23.8383,-16.7593 -5.0898,-8.6004 -4.1497,-18.6408 -4.1497,-28.1618 3.4927,-2.6846 5.7447,-6.9033 5.7447,-11.648 0,-4.7447 -2.252,-8.964 -5.7447,-11.6486 l 0,-22.9848 c 1.5354,-0.8424 3.1912,-1.642 4.9563,-2.3932 10.7298,-4.5664 25.5427,-7.3917 41.8969,-7.3917 z"
   inkscape:connector-curvature="0"
   style="fill:#000000" />
   <path
   id="_158342448"
   class="fil1"
   d="m 104.257,94.0879 c -15.1527,3e-4 -32.4675,2.1443 -46.1236,9.4909 l 0,22.2014 c 3.6195,2.9198 5.7418,7.3338 5.7419,11.9995 0,4.6549 -2.1474,9.1004 -5.7424,11.9997 -0.0298,9.2467 -0.8844,19.1061 4.0478,27.44 5.0655,8.5596 14.7852,12.6966 23.4993,16.4603 6.6089,2.8543 13.5676,5.5597 18.577,10.9877 5.0093,-5.428 11.9681,-8.1334 18.5769,-10.9877 8.7141,-3.7637 18.4338,-7.9007 23.4994,-16.4603 4.9321,-8.3339 4.0775,-18.1933 4.0477,-27.44 -3.5949,-2.8993 -5.7424,-7.3448 -5.7424,-11.9997 1e-4,-4.6657 2.1225,-9.0797 5.7419,-11.9995 l 0,-22.2014 c -13.656,-7.3466 -30.9708,-9.4906 -46.1235,-9.4909 z"
   inkscape:connector-curvature="0"
   style="fill:#3c82c2;fill-rule:nonzero" />
  </g>
  <path
   class="fil2"
   d="m 106.313,173.787 c -0.5438,2.6514 -1.6028,4.7803 -3.3401,6.1507 l -0.3343,0.2637 0.0504,-0.4222 c 0.3198,-2.6765 -0.0125,-5.0506 -0.3321,-7.3355 -0.3143,-2.2466 -0.6164,-4.4088 -0.2868,-6.7008 -1.0121,2.0452 -1.6833,4.5799 -2.3383,7.055 l -0.1302,0.4912 -0.1275,0.4812 -0.2033,-0.4543 c -0.5765,-1.2889 -0.8841,-2.7602 -0.9959,-4.3492 -0.1002,-1.4253 -0.0429,-2.9464 0.1182,-4.5157 -0.7213,0.8354 -1.0334,1.7659 -1.3714,2.7748 -0.4576,1.366 -0.9624,2.8723 -2.5555,4.5069 l -0.2563,0.2629 -0.0448,-0.3642 c -0.1783,-1.4508 -0.211,-2.9158 -0.0647,-4.3972 0.1238,-1.2542 0.3763,-2.5191 0.7772,-3.795 -0.8484,0.8362 -1.6893,1.7034 -2.5081,2.6504 -0.9855,1.14 -1.9415,2.3978 -2.8447,3.861 l -0.2565,0.4155 -0.0673,-0.4837 c -0.2144,-1.5415 -0.1002,-3.0754 0.3144,-4.608 0.2615,-0.9668 0.643,-1.9335 1.1365,-2.9012 -0.686,0.7576 -1.3778,1.4395 -2.0751,2.0466 -1.1281,0.9821 -2.2732,1.7714 -3.4348,2.3741 l -0.5587,0.2899 0.3279,-0.5379 c 0.7094,-1.1636 1.1621,-2.4208 1.6306,-3.7225 0.3626,-1.0073 0.7353,-2.0417 1.2428,-3.0842 -1.5513,1.725 -3.1001,3.0764 -4.6547,4.1136 -1.9499,1.3009 -3.9087,2.1084 -5.8944,2.5405 l -0.6004,0.1306 0.4405,-0.429 c 1.4243,-1.3871 2.4023,-2.9258 3.3793,-4.4632 1.3107,-2.0624 2.6206,-4.123 5.0069,-5.846 -1.0961,0.308 -2.2164,0.684 -3.3363,1.103 -1.4646,0.5478 -2.9353,1.1724 -4.3558,1.8165 l -0.4833,0.2191 0.2565,-0.4645 c 1.341,-2.4281 3.8245,-4.2075 6.4245,-6.0704 l 0.1542,-0.1105 c -1.7065,-0.0211 -3.1189,0.3799 -4.4861,0.768 -1.338,0.3798 -2.6344,0.7478 -4.1364,0.7107 l -0.3881,-0.01 0.2627,-0.2852 c 1.0185,-1.1059 2.1658,-2.0854 3.462,-2.945 0.9729,-0.6453 2.0305,-1.2235 3.1811,-1.737 -1.1492,0.1271 -2.2827,0.2227 -3.3999,0.2618 -1.527,0.0534 -3.0243,0.002 -4.492,-0.2151 l -0.4877,-0.0723 0.4229,-0.2529 c 0.3366,-0.2013 0.6795,-0.4142 1.0383,-0.6368 1.6208,-1.0056 3.567,-2.2128 5.765,-2.9275 -1.8571,0.0682 -3.6732,0.0261 -5.4069,-0.1931 -2.3047,-0.2913 -4.4613,-0.896 -6.3712,-1.9707 l -0.4379,-0.2464 0.4957,-0.0809 c 1.0865,-0.1772 2.202,-0.3923 3.3245,-0.6085 2.8194,-0.543 5.6854,-1.0947 8.489,-1.1205 -0.9268,-0.2732 -1.823,-0.62 -2.6937,-1.0343 -1.378,-0.6556 -2.6928,-1.4808 -3.9665,-2.4527 l -0.5987,-0.4568 0.7386,0.1439 c 1.4262,0.2779 2.8108,0.2037 4.1977,0.1291 1.2212,-0.0655 2.445,-0.1309 3.7106,0.0381 -0.4344,-0.2705 -0.8646,-0.5544 -1.2931,-0.8373 -1.7789,-1.1743 -3.5378,-2.3354 -5.5041,-2.4435 l -0.3932,-0.0216 0.2788,-0.2788 c 1.4655,-1.465 3.5341,-1.7633 6.096,-1.074 0.4903,0.1319 1.0013,0.3013 1.5315,0.5063 l 0.1392,0.0546 c -1.11,-0.8595 -2.112,-1.7699 -2.997,-2.7348 -1.2288,-1.3396 -2.2336,-2.784 -2.9929,-4.3424 l -0.2569,-0.5272 0.505,0.2984 c 1.0145,0.5996 2.0455,1.015 3.1153,1.4462 1.4059,0.5664 2.8789,1.1603 4.4817,2.2308 -0.7423,-0.8491 -1.4284,-1.7124 -2.0395,-2.5939 -0.9496,-1.37 -1.7205,-2.7859 -2.245,-4.2638 l -0.2083,-0.5869 0.4847,0.3912 c 0.9956,0.8036 2.0151,1.3447 3.0899,1.9151 l -2e-4,3e-4 c 1.1328,0.601 2.327,1.2351 3.6291,2.2433 -0.9713,-1.3239 -1.8135,-2.6317 -2.6345,-3.9068 -1.4698,-2.2828 -2.873,-4.4618 -4.8254,-6.4287 l -0.4819,-0.4855 0.6562,0.1927 c 3.3234,0.9762 6.4348,2.7624 8.9272,5.5796 0.4848,0.5481 0.9462,1.135 1.3807,1.762 0.1153,0.1665 0.2292,0.3363 0.3408,0.5087 -0.191,-0.6148 -0.3609,-1.2172 -0.5281,-1.8105 -0.4721,-1.675 -0.9243,-3.2791 -1.775,-4.8728 l -0.2637,-0.4941 0.4986,0.2543 c 1.3269,0.6767 2.5345,1.5298 3.5994,2.5961 0.686,0.6871 1.3125,1.4627 1.8723,2.3359 -0.2664,-0.9986 -0.4292,-1.9839 -0.4986,-2.9564 -0.1079,-1.5107 0.0086,-2.9922 0.3074,-4.4492 l 0.1299,-0.6331 0.2092,0.6117 c 0.4607,1.3468 1.2035,2.4859 1.9767,3.6716 0.7154,1.0972 1.4569,2.2343 2.0357,3.621 0.7249,-2.6093 0.4436,-5.0659 0.1638,-7.5083 -0.0384,-0.3354 -0.0768,-0.6703 -0.1167,-1.0469 l -0.0625,-0.5901 0.3739,0.4613 c 0.8272,1.0206 1.5604,2.1879 2.1879,3.578 0.4196,0.9294 0.7926,1.9592 1.115,3.1117 -0.0798,-3.1032 0.2363,-5.8278 0.8365,-8.1594 0.14,-0.5444 0.295,-1.0655 0.463,-1.5626 0.1691,-0.5004 0.3521,-0.9788 0.547,-1.4347 l -3e-4,-1e-4 0.002,-0.005 0.2205,-0.5248 0.1144,0.5579 c 0.1999,0.9746 0.4663,1.9949 0.7421,3.0515 0.7559,2.8957 1.5828,6.0644 1.3368,9.3857 0.4215,-0.6453 0.8258,-1.7368 1.254,-2.8934 0.7175,-1.9386 1.5015,-4.0563 2.6315,-4.7351 l 0.002,-0.001 0.001,-7e-4 0.3089,-0.1802 -0.0464,0.3552 c -0.1518,1.1621 -0.139,2.3227 -0.1262,3.4846 0.0156,1.415 0.0309,2.8329 -0.2461,4.2737 0.4387,-0.7264 0.8641,-1.5507 1.297,-2.3899 0.938,-1.8183 1.9127,-3.7077 3.1704,-4.8902 l -2e-4,-2e-4 9e-4,-9e-4 0.3832,-0.3832 -0.0849,0.5355 c -0.191,1.2041 -0.1921,2.3185 -0.193,3.4226 -0.001,1.7007 -0.003,3.3789 -0.6833,5.3433 0.7995,-0.8444 1.5741,-1.7605 2.3393,-2.7243 0.9576,-1.2061 1.8985,-2.4835 2.8575,-3.79 l 0.4251,-0.5791 -0.1089,0.7093 c -0.0646,0.421 -0.1191,0.7976 -0.172,1.1643 -0.3292,2.2793 -0.6112,4.2291 -1.7389,6.5173 1.8084,-1.8825 3.5862,-3.0109 5.5065,-4.2294 1.7158,-1.0886 3.5471,-2.2506 5.6129,-4.0922 l 0.5976,-0.5328 -0.3193,0.7347 c -0.2224,0.5117 -0.4332,1.0234 -0.6446,1.5368 -1.3437,3.2631 -2.7243,6.6156 -6.881,9.6317 0.6528,-0.2534 1.3087,-0.4863 1.9667,-0.7197 1.8555,-0.6581 3.7297,-1.3231 5.5809,-2.4741 l 0.5714,-0.3553 -0.324,0.5896 c -1.0303,1.8748 -2.7047,3.6258 -4.6728,5.2042 -0.3772,0.3025 -0.7705,0.6025 -1.1761,0.8985 -0.1518,0.1108 -0.3045,0.2206 -0.4577,0.3288 1.089,-0.3341 2.2095,-0.9359 3.3366,-1.541 1.4724,-0.7905 2.9564,-1.5874 4.4344,-1.8282 l 0.003,-7e-4 0.004,-6e-4 0.6202,-0.093 -0.4817,0.4024 c -1.3004,1.0863 -2.0938,2.0234 -2.8549,2.9223 -0.9448,1.1159 -1.8417,2.1749 -3.5831,3.3916 1.2799,-0.1701 2.5717,-0.403 3.8629,-0.7292 1.535,-0.3877 3.0699,-0.9079 4.5848,-1.6122 l 0.4351,-0.2023 -0.2015,0.4359 c -0.6683,1.4458 -1.824,2.5659 -3.2504,3.5167 -1.1092,0.7392 -2.3812,1.3755 -3.7139,1.9834 2.1592,-0.2505 4.3177,-0.3148 6.4525,-0.185 0.497,0.0301 0.9942,0.0712 1.4907,0.1227 0.4993,0.0519 0.9933,0.1141 1.4813,0.1864 l 7e-4,0 0.1283,0.0193 1.1001,0.1655 -1.098,0.1824 c -1.962,0.3259 -3.1562,1.034 -4.3654,1.7509 -1.0823,0.6418 -2.1768,1.2908 -3.8306,1.6924 1.3955,0.059 2.7914,0.1831 4.187,0.4149 2.0181,0.3351 4.0363,0.8942 6.0539,1.8028 l 0.5461,0.246 -0.593,0.0889 c -1.5908,0.2385 -3.0037,0.6209 -4.3181,0.9765 -2.2175,0.5998 -4.16,1.1255 -6.2382,0.7808 0.8677,0.4186 1.7462,0.7868 2.6498,1.1122 1.4186,0.5106 2.9021,0.9162 4.5077,1.2437 l 0.5434,0.1109 -0.5082,0.2226 c -1.5826,0.6932 -3.157,0.9358 -4.7304,0.9496 -1.3956,0.0123 -2.785,-0.1551 -4.1778,-0.3466 0.9011,0.8369 2.0821,1.3738 3.2784,1.9174 1.7753,0.8066 3.5842,1.6287 4.6505,3.4733 l 0.1775,0.3071 -0.3512,-0.0439 c -0.6662,-0.0833 -1.2723,-0.1488 -1.8546,-0.2116 -2.2537,-0.2432 -4.1628,-0.4498 -6.1962,-1.2772 1.1402,0.9245 2.1261,1.8711 3.0018,2.8327 1.2087,1.3272 2.2085,2.6835 3.1164,4.0523 l 0.4252,0.641 -0.6616,-0.3922 c -1.3492,-0.7998 -2.7242,-1.4322 -4.1055,-2.0674 -1.1815,-0.5435 -2.3681,-1.0894 -3.5493,-1.7434 1.693,1.6557 3.1681,3.5842 4.6705,5.5484 1.3845,1.8102 2.7928,3.6514 4.4115,5.3295 l 3e-4,-3e-4 9e-4,9e-4 0.3299,0.3299 -0.4656,-0.0295 c -2.4362,-0.1544 -4.7313,-1.1196 -6.9037,-2.7139 -1.8436,-1.353 -3.5998,-3.1608 -5.2791,-5.3106 0.7735,1.5442 2.0322,3.3799 3.2913,5.2164 0.3767,0.5494 0.7536,1.099 1.1346,1.6668 l 7e-4,0 0.002,0.002 0.2496,0.3744 -0.4377,-0.1057 c -2.6984,-0.652 -5.0833,-2.9104 -7.2479,-5.0513 0.7258,1.5541 1.3127,3.0332 1.6702,4.3879 0.4323,1.6385 0.531,3.1011 0.1396,4.3044 l -0.1294,0.3976 -0.1937,-0.3707 c -0.8212,-1.5715 -1.8742,-2.8715 -2.9174,-4.1595 -0.6816,-0.8415 -1.3595,-1.6783 -1.9698,-2.5858 0.2035,1.1501 0.247,2.3315 0.2894,3.4935 0.061,1.6719 0.1206,3.3045 0.6609,4.7163 l 0.1569,0.41 -0.3967,-0.1881 c -1.1391,-0.5401 -2.0822,-1.5978 -2.8997,-2.9861 -0.556,-0.9442 -1.0545,-2.0415 -1.5174,-3.2321 0.4854,3.3297 0.7129,6.4818 -0.9619,8.3233 l -0.2539,0.2791 -0.0506,-0.3742 c -0.4768,-3.5237 -1.1503,-4.9868 -1.7551,-6.3011 -0.205,-0.4454 -0.4026,-0.8742 -0.5825,-1.3589 0.1568,2.7561 0.0578,5.2899 -0.389,7.468 z"
   id="path13"
   inkscape:connector-curvature="0"
   style="fill:#000000;fill-rule:nonzero" />
  <path
   class="fil3"
   d="m 103.086,179.383 c 1.4719,-1.3185 2.3907,-3.2697 2.8824,-5.6668 0.53,-2.5834 0.5637,-5.6813 0.2582,-9.0638 0.1187,-0.0107 0.2372,-0.0217 0.3553,-0.0343 0.2609,1.2579 0.6272,2.0533 1.0224,2.9118 0.5916,1.2856 1.2475,2.7112 1.7275,6.0021 1.5188,-2.071 0.9524,-5.6883 0.3858,-9.3057 l -0.0266,-0.1699 c 0.1136,-0.0293 0.2263,-0.0607 0.3392,-0.0918 0.6269,1.8193 1.3041,3.4945 2.0964,4.8399 0.6859,1.1648 1.4575,2.0833 2.3569,2.634 -0.422,-1.3546 -0.4768,-2.8587 -0.5329,-4.3959 -0.0533,-1.4593 -0.108,-2.9489 -0.4827,-4.3477 0.1099,-0.0516 0.2195,-0.1038 0.3283,-0.1572 0.7179,1.2136 1.5852,2.2843 2.459,3.363 0.9674,1.1945 1.9429,2.399 2.7448,3.8293 0.2286,-1.0526 0.1092,-2.3017 -0.2571,-3.6897 -0.4182,-1.585 -1.1568,-3.3464 -2.0663,-5.2017 0.0987,-0.0689 0.1966,-0.1387 0.2941,-0.2092 l 0.3325,0.3294 c 2.1028,2.0852 4.4161,4.3785 6.9861,5.1866 -0.2805,-0.414 -0.5741,-0.8423 -0.8679,-1.2708 -1.6077,-2.3448 -3.2144,-4.6879 -3.8391,-6.4668 0.0923,-0.092 0.1829,-0.1854 0.2736,-0.279 1.9132,2.6181 3.9249,4.7967 6.0521,6.3578 1.9817,1.4544 4.0637,2.3716 6.2594,2.607 -1.5004,-1.6007 -2.8208,-3.3269 -4.1205,-5.0262 -1.8683,-2.4426 -3.694,-4.829 -5.9362,-6.6836 0.0679,-0.0979 0.1354,-0.196 0.2017,-0.295 1.6623,1.0873 3.3558,1.866 5.0391,2.6402 1.1685,0.5373 2.3321,1.0723 3.4793,1.7066 -0.7863,-1.1427 -1.6497,-2.2739 -2.6602,-3.3835 -1.1814,-1.2973 -2.5644,-2.5655 -4.2603,-3.7884 0.0511,-0.1084 0.1023,-0.2168 0.1516,-0.3262 2.5859,1.4306 4.8287,1.673 7.6007,1.9721 0.4857,0.0523 0.9871,0.1063 1.4942,0.1667 -1.0309,-1.5356 -2.679,-2.2846 -4.2984,-3.0204 -1.3532,-0.615 -2.6875,-1.2211 -3.6633,-2.2707 0.0349,-0.1271 0.0694,-0.2544 0.1021,-0.3824 1.5415,0.2156 3.0764,0.4231 4.6026,0.4097 1.3539,-0.012 2.7072,-0.1975 4.0643,-0.7061 -1.4073,-0.3087 -2.7245,-0.6821 -3.9926,-1.1385 -1.4115,-0.5082 -2.761,-1.1196 -4.1032,-1.86 0.0119,-0.1246 0.0235,-0.2491 0.0333,-0.3744 l 0.0438,0.0169 c 2.6196,1.0121 4.9187,0.39 7.6421,-0.3467 1.1581,-0.3133 2.392,-0.6472 3.763,-0.8877 -1.8063,-0.7569 -3.6121,-1.2391 -5.4175,-1.5389 -1.994,-0.3311 -3.9881,-0.4412 -5.982,-0.4543 l -0.0364,-2e-4 c -0.008,-0.1155 -0.0169,-0.2308 -0.0266,-0.3458 l 0.0465,-0.005 c 2.6866,-0.2729 4.1134,-1.1189 5.5195,-1.9527 1.0202,-0.6049 2.0297,-1.2034 3.4907,-1.5837 -0.1986,-0.0242 -0.3965,-0.047 -0.5943,-0.0676 -0.4891,-0.0508 -0.9813,-0.0913 -1.4755,-0.1213 -2.4946,-0.1517 -5.0228,-0.0358 -7.548,0.3356 -0.029,-0.1166 -0.0589,-0.2328 -0.0897,-0.3486 1.7008,-0.7496 3.3466,-1.5116 4.7253,-2.4304 1.2253,-0.8167 2.2413,-1.7584 2.8992,-2.929 -1.3865,0.6101 -2.7871,1.0726 -4.1874,1.4263 -1.5161,0.3829 -3.0322,0.6385 -4.5293,0.8152 -0.0518,-0.1181 -0.1045,-0.2356 -0.1584,-0.3526 2.0646,-1.3453 3.0305,-2.4857 4.0537,-3.6942 0.6633,-0.7834 1.3504,-1.5951 2.3717,-2.5102 -1.2082,0.3287 -2.4385,0.9891 -3.6609,1.6454 -1.4493,0.7781 -2.8877,1.5503 -4.3002,1.781 -0.0647,-0.0992 -0.1291,-0.1986 -0.1954,-0.2967 l 0.0327,-0.0201 10e-4,-8e-4 2e-4,3e-4 c 0.4126,-0.2769 0.8168,-0.5591 1.2089,-0.8453 0.3923,-0.2864 0.7807,-0.5828 1.1623,-0.8889 1.7263,-1.3845 3.2205,-2.9004 4.2374,-4.5118 -1.6873,0.9592 -3.3786,1.5592 -5.0551,2.1538 -1.2467,0.4423 -2.4854,0.8818 -3.6998,1.4619 -0.0833,-0.0894 -0.1669,-0.1783 -0.2516,-0.2663 l 0.0204,-0.0122 c 5.3828,-3.2271 6.9157,-6.9496 8.4029,-10.5612 0.1154,-0.2802 0.2302,-0.5595 0.3466,-0.8375 -1.8522,1.5749 -3.5134,2.6287 -5.0792,3.6222 -2.264,1.4366 -4.3274,2.7458 -6.4681,5.3276 l -0.0149,0.0179 c -0.0935,-0.0687 -0.1866,-0.1378 -0.2812,-0.205 l 0.0102,-0.0168 c 1.7411,-2.8574 2.0616,-5.0762 2.449,-7.7588 l 0.067,-0.4637 c -0.8187,1.1126 -1.627,2.1983 -2.4445,3.228 -0.9432,1.1879 -1.9021,2.3056 -2.9083,3.3111 -0.1099,-0.0553 -0.2197,-0.1108 -0.3307,-0.1642 0.9526,-2.2449 0.9545,-4.1008 0.956,-5.9851 9e-4,-0.956 0.001,-1.9192 0.1236,-2.9473 -1.0465,1.1498 -1.9056,2.8155 -2.7358,4.4249 -0.5976,1.1585 -1.1806,2.2888 -1.8145,3.1911 -0.1207,-0.0342 -0.2424,-0.0664 -0.3639,-0.0986 0.5007,-1.7259 0.4821,-3.4322 0.4633,-5.1347 -0.0114,-1.0384 -0.0231,-2.0755 0.0815,-3.1215 -0.8698,0.8036 -1.5459,2.6303 -2.1704,4.3175 -0.5249,1.4179 -1.0146,2.7406 -1.5846,3.344 -0.1339,-0.0145 -0.2683,-0.0273 -0.4028,-0.0394 l 5e-4,-0.004 6e-4,-0.005 c 0.3839,-3.4624 -0.4852,-6.7919 -1.2757,-9.8201 -0.2253,-0.8627 -0.444,-1.7012 -0.6263,-2.513 -0.1136,0.2893 -0.2224,0.5865 -0.3255,0.8916 -0.1669,0.4937 -0.3196,1.0067 -0.4562,1.5378 -0.706,2.7427 -1.0137,6.0415 -0.7354,9.8749 -0.1187,0.008 -0.2371,0.0165 -0.3553,0.0263 -0.3994,-1.8658 -0.9105,-3.4399 -1.5224,-4.7955 -0.5171,-1.1453 -1.1055,-2.1346 -1.7597,-3.0126 l 0.0483,0.4255 c 0.2951,2.5761 0.5918,5.1677 -0.2693,7.9643 -0.1384,0.0349 -0.276,0.0717 -0.4133,0.1092 -0.5841,-1.5351 -1.3884,-2.7685 -2.1619,-3.9546 -0.6712,-1.0292 -1.3197,-2.0238 -1.7904,-3.1569 -0.2058,1.2272 -0.2769,2.4724 -0.1864,3.7395 0.1047,1.4671 0.4261,2.9637 1.0036,4.4944 -0.1081,0.0484 -0.2152,0.0984 -0.3223,0.1486 -0.7318,-1.479 -1.6248,-2.7173 -2.6558,-3.7497 -0.9041,-0.9052 -1.9157,-1.6535 -3.0197,-2.2685 0.709,1.4621 1.1207,2.923 1.5488,4.442 0.3037,1.0778 0.6161,2.1855 1.0478,3.338 -0.1002,0.0688 -0.2006,0.1375 -0.2996,0.2079 -0.3685,-0.6889 -0.7661,-1.3384 -1.1893,-1.9493 -0.4268,-0.6159 -0.8795,-1.1917 -1.3545,-1.7288 -2.2815,-2.5788 -5.0937,-4.2772 -8.1118,-5.2718 1.7354,1.86 3.0369,3.8812 4.3951,5.9905 1.085,1.6852 2.2068,3.4275 3.6119,5.1813 -0.0836,0.0822 -0.1666,0.165 -0.2489,0.2485 l -0.0024,-0.002 c -1.7742,-1.6487 -3.3471,-2.4834 -4.8159,-3.2628 l -7e-4,0 c -0.9139,-0.4851 -1.7881,-0.9489 -2.6513,-1.5746 0.5004,1.2423 1.1763,2.4415 1.9848,3.6078 0.9288,1.3398 2.0315,2.6362 3.2428,3.9046 -0.0687,0.0967 -0.1358,0.1947 -0.203,0.2926 l -0.0075,-0.006 c -2.1602,-1.7964 -4.0839,-2.5718 -5.8949,-3.3014 -0.9057,-0.365 -1.7837,-0.7187 -2.6525,-1.1825 0.7083,1.3326 1.6038,2.578 2.672,3.7425 1.1963,1.3042 2.6093,2.5079 4.2182,3.6201 -0.0518,0.1077 -0.1017,0.2164 -0.1518,0.3251 -0.5497,-0.2669 -1.0816,-0.5003 -1.5944,-0.6986 -0.5146,-0.199 -1.0136,-0.3642 -1.4957,-0.4939 -2.2691,-0.6105 -4.1206,-0.416 -5.4686,0.7187 1.8954,0.2334 3.577,1.3433 5.2765,2.4652 0.6853,0.4524 1.374,0.907 2.0788,1.3043 -0.0317,0.1152 -0.064,0.2303 -0.0938,0.3462 -1.5682,-0.368 -3.0752,-0.2871 -4.5789,-0.2063 -1.1791,0.0633 -2.3562,0.1268 -3.5681,-0.0216 1.0749,0.7744 2.1801,1.4416 3.3292,1.9883 1.3484,0.6416 2.758,1.1176 4.2504,1.4061 -0.0121,0.1168 -0.0221,0.2343 -0.0323,0.3516 l -0.0058,-4e-4 c -3.2897,-0.2483 -6.724,0.4133 -10.0916,1.0619 -0.9458,0.1822 -1.8861,0.3637 -2.8256,0.5248 1.7556,0.9017 3.7114,1.424 5.7925,1.6871 2.2483,0.2842 4.646,0.2659 7.0958,0.0957 0.008,0.1201 0.0166,0.2399 0.0266,0.3595 -2.8371,0.5193 -5.3396,2.0718 -7.3401,3.313 -0.2114,0.1312 -0.4171,0.259 -0.6154,0.3806 1.2904,0.1581 2.6029,0.1929 3.9383,0.1461 1.4976,-0.0524 3.0255,-0.2068 4.5831,-0.4032 0.0289,0.1161 0.0587,0.2318 0.0894,0.3472 -1.5737,0.614 -2.9834,1.3372 -4.2483,2.1762 -1.1558,0.7666 -2.1905,1.6298 -3.1193,2.5946 1.2833,-0.032 2.4396,-0.3601 3.6297,-0.698 1.4773,-0.4194 3.0062,-0.8531 4.9112,-0.7716 0.0611,0.1356 0.1242,0.2701 0.1879,0.4042 l -0.4668,0.3355 c -2.3919,1.7138 -4.6834,3.356 -6.0382,5.4787 1.2619,-0.5629 2.5628,-1.1071 3.8683,-1.5954 1.4414,-0.5393 2.8835,-1.0076 4.2766,-1.3539 0.0708,0.1043 0.143,0.2078 0.2155,0.3108 -2.8694,1.7841 -4.3053,4.0429 -5.7425,6.3043 -0.8865,1.395 -1.7738,2.7909 -2.9992,4.0875 1.7429,-0.4484 3.4655,-1.2029 5.181,-2.3474 1.9155,-1.2779 3.8239,-3.0425 5.7432,-5.4099 l 8e-4,-10e-4 c 0.0835,0.0861 0.167,0.1721 0.2519,0.2568 -0.9735,1.5244 -1.526,3.0588 -2.0576,4.5355 -0.4036,1.1214 -0.7954,2.2098 -1.35,3.2432 0.95,-0.5444 1.8909,-1.2202 2.8226,-2.0314 1.1069,-0.9638 2.1993,-2.1171 3.2766,-3.4668 0.0958,0.0687 0.1925,0.1359 0.2894,0.203 -0.9585,1.4974 -1.6529,2.9872 -2.0554,4.4754 -0.3584,1.3247 -0.4856,2.6486 -0.363,3.9762 0.8354,-1.303 1.7111,-2.4416 2.6107,-3.4822 0.9803,-1.1337 1.9883,-2.1502 3.0031,-3.1359 0.11,0.0512 0.2203,0.1019 0.3312,0.1513 -0.526,1.482 -0.8445,2.9458 -0.9874,4.3938 -0.1308,1.3246 -0.1149,2.6387 0.0221,3.9438 1.336,-1.4731 1.7962,-2.8461 2.2156,-4.0982 0.388,-1.1582 0.743,-2.2166 1.7004,-3.175 0.1337,0.0375 0.2679,0.074 0.4026,0.109 -0.1949,1.7067 -0.2728,3.359 -0.1648,4.8951 0.0955,1.3559 0.3358,2.621 0.7684,3.7523 0.7613,-2.8767 1.5448,-5.8317 2.8694,-8.0448 0.1215,0.0111 0.2431,0.0224 0.3651,0.0315 l -0.0104,0.0444 c -0.6162,2.6451 -0.2725,5.1009 0.0867,7.6687 0.3054,2.1834 0.6224,4.4473 0.3805,6.9881 z"
   id="path15"
   inkscape:connector-curvature="0"
   style="fill:#f8e73d;fill-rule:nonzero" />
  <polygon
   class="fil4"
   points="122.502,153.552 104.184,121.824 85.8662,153.552 "
   id="polygon17"
   style="fill:#3c82c2" />
  <polygon
   class="fil2"
   points="104.184,121.326 122.934,153.802 85.434,153.802 "
   id="polygon19"
   style="fill:#000000;fill-rule:nonzero" />
  <polygon
   class="fil1"
   points="86.0441,153.449 122.325,153.449 104.185,122.029 "
   id="polygon21"
   style="fill:#3c82c2;fill-rule:nonzero" />
  <g
   id="глаз">
   <path
   id="_158341992"
   class="fil0"
   d="m 92.9244,143.929 c 1.5579,-0.5107 3.2174,-1.3383 4.6057,-2.0846 2.1609,-1.1618 4.2909,-2.307 7.0433,-2.6576 3.1277,-0.3984 6.457,0.3844 8.6099,2.8348 0.1186,0.135 0.2326,0.275 0.3415,0.4187 l 0.0156,0.0206 c 0.6278,0.829 0.9862,1.0047 1.0052,2.0836 0.0163,0.9215 -0.1666,1.3873 -1.1318,1.4761 -0.772,0.0713 -1.436,0.2982 -2.1077,1.019 -2.4766,2.6574 -6.2026,3.8637 -9.7907,3.4061 -3.374,-0.4302 -5.8561,-2.1374 -7.5892,-4.7435 -0.7957,-0.1548 -1.1759,-0.9881 -1.0018,-1.7732 z m 15.6019,-2.5291 c 0.2149,0.5427 0.3339,1.1343 0.3339,1.7533 0,2.6308 -2.1333,4.7641 -4.7641,4.7641 -2.6306,0 -4.7639,-2.1333 -4.7639,-4.7641 l 2e-4,-0.009 c -0.2859,0.1508 -0.5713,0.3042 -0.8569,0.4578 -0.8663,0.4657 -1.7377,0.9346 -2.6624,1.357 1.3128,2.0172 3.5932,3.209 5.9523,3.5099 2.9523,0.3765 6.0386,-0.5987 8.0797,-2.7889 0.6823,-0.7322 1.4871,-1.3077 2.4661,-1.5463 -0.294,-0.3587 -0.5493,-0.7328 -0.8765,-1.0654 -0.8076,-0.8208 -1.8183,-1.3613 -2.9084,-1.6686 z m -4.4301,0.0949 c 0.9158,0 1.6585,0.7427 1.6585,1.6585 0,0.9158 -0.7427,1.6585 -1.6585,1.6585 -0.9158,0 -1.6585,-0.7427 -1.6585,-1.6585 0,-0.9158 0.7427,-1.6585 1.6585,-1.6585 z"
   inkscape:connector-curvature="0"
   style="fill:#000000" />
   <path
   id="_158341920"
   class="fil5"
   d="m 104.915,141.155 c 0.7855,0.3229 1.3392,1.0959 1.3392,1.9974 0,1.1919 -0.9667,2.1586 -2.1586,2.1586 -1.1917,0 -2.1584,-0.9667 -2.1584,-2.1586 0,-0.5464 0.2038,-1.0459 0.5388,-1.4263 -0.9188,0.3144 -1.7847,0.7174 -2.6354,1.1528 -0.0057,0.0904 -0.0089,0.1817 -0.0089,0.2735 0,2.3547 1.9094,4.2641 4.2639,4.2641 2.3547,0 4.2641,-1.9094 4.2641,-4.2641 0,-0.6825 -0.1605,-1.328 -0.4459,-1.9002 -0.9836,-0.1963 -2.0116,-0.218 -2.9988,-0.0972 z"
   inkscape:connector-curvature="0"
   style="fill:#fdd07f" />
   <path
   id="_158341848"
   class="fil6"
   d="m 98.4788,143.045 c 1.9348,-0.954 3.8638,-2.0447 6.2623,-2.3692 1.7764,-0.2373 3.6938,-0.0347 5.3048,0.7787 0.3156,0.1594 0.6217,0.3439 0.9146,0.5546 0.9366,0.6736 1.4997,1.518 2.2394,2.421 l -0.7715,0.188 c -0.8755,0.2133 -1.6121,0.7513 -2.2181,1.4017 -1.1122,1.1934 -2.5169,2.0452 -4.0428,2.5351 -1.0126,0.3251 -2.0807,0.4908 -3.1529,0.491 -0.4362,1e-4 -0.8732,-0.0272 -1.307,-0.0823 l -0.005,-6e-4 c -1.791,-0.2284 -3.5416,-0.9455 -4.9019,-2.1253 -0.5781,-0.5014 -1.0285,-1.0695 -1.4485,-1.6832 -0.3079,0.1354 -0.6188,0.2643 -0.931,0.3896 1.0821,1.5862 2.4578,2.8122 4.1635,3.5805 1.2995,0.5854 2.7321,0.8805 4.1555,0.9146 2.0946,0.0503 4.1822,-0.4779 5.9643,-1.539 0.823,-0.4898 1.5796,-1.0967 2.2329,-1.7971 l 8e-4,8e-4 4e-4,-4e-4 0.002,-0.004 c 0.2165,-0.2323 0.4338,-0.4205 0.6543,-0.573 0.5296,-0.3663 1.1309,-0.5431 1.7737,-0.6023 0.6557,-0.0602 0.6893,-0.3691 0.6787,-0.9722 -0.0121,-0.6906 -0.2061,-0.9269 -0.5512,-1.3472 -0.4257,-0.5182 -0.7624,-0.984 -1.2622,-1.4407 -1.3958,-1.2757 -3.1912,-1.947 -5.0589,-2.1272 -1.3328,-0.1283 -2.6794,-0.007 -3.9777,0.3118 -2.0026,0.4921 -3.7054,1.407 -5.4275,2.3329 l -0.0037,0.002 c -0.7012,0.3768 -1.4721,0.775 -2.2666,1.1442 -0.618,0.2873 -1.3712,0.6059 -1.9962,0.8347 -0.0846,0.3902 0.0699,0.7609 0.5181,0.9033 1.501,-0.5925 3.0158,-1.4104 4.4571,-2.1209 z"
   inkscape:connector-curvature="0"
   style="fill:#fdd07f;fill-rule:nonzero" />
  </g>
 </g>
</svg>