<?xml version="1.0" encoding="UTF-8" standalone="no"?>
<!-- Created with Inkscape (http://www.inkscape.org/) -->
<svg id="svg3885" xmlns:rdf="http://www.w3.org/1999/02/22-rdf-syntax-ns#" xmlns="http://www.w3.org/2000/svg" height="360" width="300" version="1.1" xmlns:cc="http://creativecommons.org/ns#" xmlns:dc="http://purl.org/dc/elements/1.1/">
 <defs id="defs3887">
  <linearGradient id="linearGradient3968" x1="108" gradientUnits="userSpaceOnUse" y1="154.78" gradientTransform="matrix(8.8973127,0,0,8.9143109,-559.89455,-800.58806)" x2="108" y2="142.63">
   <stop id="stop9" stop-color="#F5EF37" offset="0"/>
   <stop id="stop11" stop-color="#FB0" offset="0.50196"/>
   <stop id="stop13" stop-color="#F5EF37" offset="1"/>
  </linearGradient>
 </defs>
 <metadata id="metadata3890">
  <rdf:RDF>
   <cc:Work rdf:about="">
    <dc:format>image/svg+xml</dc:format>
    <dc:type rdf:resource="http://purl.org/dc/dcmitype/StillImage"/>
    <dc:title/>
   </cc:Work>
  </rdf:RDF>
 </metadata>
 <g id="layer1" transform="translate(-225,-352.36217)">
  <path id="path3040" class="fil0" fill-rule="evenodd" fill="#a90000" d="m446.75,524.39c2.935,0,5.315,2.38,5.315,5.315v5.3142c0,2.9349-2.38,5.315-5.315,5.315h-5.315v-15.944h5.315zm0,21.259c5.8698,0,10.63-4.7601,10.63-10.63v-5.3142c0-5.8698-4.7601-10.63-10.63-10.63h-10.63v26.574h10.63zm-21.26-26.574,5.3149,0,0,26.574-5.3149,0,0-26.574zm-10.63,0,5.315,0,0,26.574-5.315,0-10.63-16.684,0,16.684-5.315,0,0-26.574,5.315,0,10.63,16.684,0-16.684zm-79.724,0.00035,15.945,0,0,5.315-10.63,0,0,5.3146,10.63,0,0,5.315-10.63,0,0,5.3146,10.63,0,0,5.315-15.945,0,0-26.574zm-21.26-0.00071,5.315,0,0,21.26,10.63,0,0,5.315-15.945,0,0-26.575zm55.808,21.26,5.3135,0c4.4022,0,7.9724-3.5702,7.9724-7.9724s-3.6365-7.9572-7.9724-7.9724h-5.3135v5.315h5.3135c1.4673,0,2.6575,1.1902,2.6575,2.6575s-1.1902,2.6575-2.6575,2.6575h-5.3135v5.315zm5.3135-26.575c10.272,0,18.602,8.3303,18.602,18.602s-8.3303,18.602-18.602,18.602-18.602-8.3303-18.602-18.602,8.3303-18.602,18.602-18.602zm0,5.315c7.3371,0,13.287,5.9503,13.287,13.287,0,7.3371-5.9503,13.287-13.287,13.287-7.3371,0-13.287-5.9503-13.287-13.287,0-7.3371,5.9503-13.287,13.287-13.287z"/>
  <path id="path19" d="m375,352.36c52.282,0,99.637,9.0498,133.94,23.676,5.6427,2.406,10.936,4.9671,15.844,7.6654v73.618c-11.166,8.5987-18.365,22.113-18.365,37.31,0,15.196,7.1988,28.709,18.365,37.307,0,30.496,3.0055,62.654-13.266,90.2-16.425,27.808-47.876,41.419-76.206,53.678-21.601,9.3484-44.527,18.22-60.31,36.545-15.781-18.325-38.708-27.197-60.308-36.545-28.331-12.259-59.781-25.87-76.206-53.678-16.271-27.546-13.267-59.704-13.267-90.2,11.166-8.5987,18.365-22.111,18.365-37.307,0-15.197-7.1988-28.711-18.365-37.31v-73.618c4.9086-2.6984,10.202-5.2594,15.845-7.6654,34.301-14.626,81.655-23.676,133.94-23.676z" fill-rule="evenodd" class="fil1" stroke-miterlimit="4" stroke-dasharray="none" stroke-width="0.33866668" fill="#000"/>
  <path id="path21" d="m375,354.69c-48.44,0.0009-103.79,6.8685-147.45,30.399v71.109c11.571,9.352,18.355,23.49,18.356,38.433,0,14.909-6.8652,29.148-18.358,38.434-0.0952,29.617-2.8267,61.196,12.94,87.889,16.194,27.415,47.266,40.665,75.123,52.72,21.128,9.1425,43.374,17.807,59.387,35.193,16.015-17.386,38.26-26.05,59.388-35.193,27.858-12.055,58.93-25.305,75.124-52.72,15.767-26.693,13.035-58.272,12.939-87.889-11.493-9.286-18.358-23.525-18.358-38.434,0.00089-14.943,6.7852-29.081,18.356-38.433v-71.109c-43.656-23.53-99.008-30.398-147.45-30.399z" fill-rule="evenodd" class="fil2" stroke-miterlimit="4" stroke-dasharray="none" stroke-width="0.33866668" fill="#df212c"/>
  <path id="path23" d="m376.49,366.3c6.4283-0.57942,11.57,1.4842,15.251,7.5388,5.4683,8.9945,7.3296,18.842,6.4737,28.545l77.787,117.67v9.9573l-77.787,117.66c0.85592,9.7024-1.0054,19.55-6.4737,28.545-3.6808,6.0555-8.8226,8.1182-15.251,7.5397-5.9523-0.53665-10.864-5.394-10.864-11.227,0-7.1083,6.9986-12.097,13.577-10.118,0.25626-0.34853,0.50361-0.6953,0.74561-1.0385-3.7912-2.6458-4.8562-6.2686-1.0988-9.8771,1.791-1.7205,7.714-5.9842,7.577-8.3634-1.7581-30.746-59.903-38.731-60.208-74.336-0.0979-11.399,7.948-20.813,23.615-28.46v-30.616c-15.667-7.6467-23.713-17.061-23.615-28.46,0.30516-35.605,58.45-43.59,60.208-74.336,0.13707-2.3792-5.7859-6.6429-7.577-8.3634-3.7573-3.6085-2.6923-7.2313,1.0988-9.877-0.242-0.34408-0.48935-0.68998-0.74561-1.0385-6.5787,1.9781-13.577-3.0104-13.577-10.119,0-5.8318,4.9113-10.69,10.864-11.226zm96.22,158.73-75.807-114.67c-2.4628,10.263-7.5885,20.439-14.683,28.478-10.557,11.963-27.335,25.466-29.686,39.041-1.4378,8.3037,2.4832,16.107,14.498,21.296v51.704c-12.015,5.189-15.936,12.993-14.498,21.297,2.3507,13.574,19.329,27.278,29.886,39.241,7.0938,8.0389,12.02,18.014,14.483,28.277l75.807-114.67z" fill-rule="evenodd" class="fil3 str0" stroke="#000" stroke-miterlimit="4" stroke-dasharray="none" stroke-width="1.88803136" fill="url(#linearGradient3968)"/>
  <path id="path25" d="m410.28,526.5c2.9094,31.203,74.744,35.306,74.688,14.625-0.0167-6.9193-5.8508-11.663-11.916-14.849v-3.1271c6.0653-3.1869,11.898-7.9302,11.916-14.849,0.0556-20.682-71.778-16.578-74.688,14.625v3.5764z" fill-rule="evenodd" class="fil4 str0" stroke="#000" stroke-miterlimit="4" stroke-dasharray="none" stroke-width="1.88803136" fill="#f5ef37"/>
  <path id="path27" d="m464.9,495.83-9.6598,28.89,9.6598,28.892m-9.1029-58.029-9.7426,29.137,9.7426,29.139m-9.4988-57.34-9.4294,28.201,9.4294,28.203m-9.9436-54.138-8.6713,25.934,8.6713,25.936m-10.633-47.543-7.2237,21.606,7.2246,21.607m47.828-48.897-9.1251,27.289,9.1251,27.291" class="fil5 str0" stroke="#000" stroke-miterlimit="4" stroke-dasharray="none" stroke-width="1.88803136" fill="none"/>
  <rect id="rect29" y="520.34" fill-rule="evenodd" height="8.7515" width="153.23" stroke="#000" stroke-dasharray="none" x="324.39" stroke-miterlimit="4" stroke-width="1.888" class="fil4 str0" fill="#f5ef37"/>
  <polygon id="polygon31" fill-rule="evenodd" transform="matrix(8.8973129,0,0,8.914311,-559.89456,-800.58807)" stroke="#000" points="99.64,149.48,96.998,149.41,96.998,147.98,99.64,147.87" stroke-dasharray="none" stroke-miterlimit="4" stroke-width="0.212" class="fil4 str0" fill="#f2f2f2"/>
  <polygon id="polygon33" fill-rule="evenodd" transform="matrix(8.8973129,0,0,8.914311,-559.89456,-800.58807)" stroke="#000" points="97.436,148.67,99.019,152.52,92.438,148.67,99.019,144.83" stroke-dasharray="none" stroke-miterlimit="4" stroke-width="0.212" class="fil4 str0" fill="#f2f2f2"/>
  <line id="line35" y2="524.72" stroke-width="1.888" class="fil5 str0" x2="307.56" stroke="#000" stroke-dasharray="none" y1="524.72" stroke-miterlimit="4" x1="263.04" fill="none"/>
 </g>
</svg>
