<?xml version="1.0" encoding="UTF-8" standalone="no"?>
<!-- Creator: CorelDRAW -->

<svg
   xmlns:dc="http://purl.org/dc/elements/1.1/"
   xmlns:cc="http://creativecommons.org/ns#"
   xmlns:rdf="http://www.w3.org/1999/02/22-rdf-syntax-ns#"
   xmlns:svg="http://www.w3.org/2000/svg"
   xmlns="http://www.w3.org/2000/svg"
   xmlns:sodipodi="http://sodipodi.sourceforge.net/DTD/sodipodi-0.dtd"
   xmlns:inkscape="http://www.inkscape.org/namespaces/inkscape"
   xml:space="preserve"
   width="300"
   height="360"
   style="fill-rule:evenodd"
   viewBox="0 0 84.666667 101.6"
   id="svg2"
   version="1.1"
   inkscape:version="0.48.1 "
   sodipodi:docname="глубокое.svg"><metadata
   id="metadata38"><rdf:RDF><cc:Work
       rdf:about=""><dc:format>image/svg+xml</dc:format><dc:type
         rdf:resource="http://purl.org/dc/dcmitype/StillImage" /></cc:Work></rdf:RDF></metadata><sodipodi:namedview
   pagecolor="#ffffff"
   bordercolor="#666666"
   borderopacity="1"
   objecttolerance="10"
   gridtolerance="10"
   guidetolerance="10"
   inkscape:pageopacity="0"
   inkscape:pageshadow="2"
   inkscape:window-width="640"
   inkscape:window-height="480"
   id="namedview36"
   showgrid="false"
   fit-margin-top="0"
   fit-margin-left="0"
   fit-margin-right="0"
   fit-margin-bottom="0"
   inkscape:zoom="0.72499999"
   inkscape:cx="150.00002"
   inkscape:cy="180"
   inkscape:window-x="0"
   inkscape:window-y="0"
   inkscape:window-maximized="0"
   inkscape:current-layer="svg2" />
 <defs
   id="defs4"><style
     type="text/css"
     id="style6">
   
    .fil0 {fill:black}
    .fil2 {fill:#3C82C2}
    .fil3 {fill:#F8E73D}
    .fil1 {fill:white}
    .fil4 {fill:black;fill-rule:nonzero}
    .fil5 {fill:#F8E73D;fill-rule:nonzero}
    .fil6 {fill:white;fill-rule:nonzero}
   
  </style></defs>
 <path
   id="path3021"
   d="m 62.583294,48.550331 c 0.828322,0 1.500011,0.671689 1.500011,1.500012 l 0,1.499658 c 0,0.828322 -0.671689,1.500011 -1.500011,1.500011 l -1.500012,0 0,-4.499681 1.500012,0 z m 0,5.999692 c 1.656644,0 3.000022,-1.343378 3.000022,-3.000022 l 0,-1.499658 c 0,-1.656645 -1.343378,-3.000023 -3.000022,-3.000023 l -3.000023,0 0,7.499703 3.000023,0 z m -6.000045,-7.499703 1.500011,0 0,7.499703 -1.500011,0 0,-7.499703 z m -3.000022,0 1.500011,0 0,7.499703 -1.500011,0 -3.000022,-4.708525 0,4.708525 -1.500011,0 0,-7.499703 1.500011,0 3.000022,4.708525 0,-4.708525 z m -22.499884,0 4.499998,0 0,1.500011 -2.999987,0 0,1.500012 2.999987,0 0,1.500011 -2.999987,0 0,1.499658 2.999987,0 0,1.500011 -4.499998,0 0,-7.499703 z m -5.999974,-3.52e-4 1.499976,0 0,6.000044 3.000022,0 0,1.500011 -4.499998,0 0,-7.500055 z m 15.750399,6.000044 1.499588,0 c 1.242271,0 2.250157,-1.007533 2.250157,-2.250017 0,-1.24213 -1.026583,-2.24543 -2.250157,-2.250016 l -1.499588,0 0,1.500011 1.499588,0 c 0.41409,0 0.750146,0.336197 0.750146,0.750005 0,0.414161 -0.336056,0.750006 -0.750146,0.750006 l -1.499588,0 0,1.500011 z m 1.499588,-7.500055 c 2.898916,0 5.249827,2.351263 5.249827,5.250038 0,2.899128 -2.350911,5.250039 -5.249827,5.250039 -2.899022,0 -5.250004,-2.350911 -5.250004,-5.250039 0,-2.898775 2.350982,-5.250038 5.250004,-5.250038 z m 0,1.500011 c 2.070594,0 3.750168,1.679575 3.750168,3.750027 0,2.070806 -1.679574,3.750028 -3.750168,3.750028 -2.0707,0 -3.749993,-1.679222 -3.749993,-3.750028 0,-2.070452 1.679293,-3.750027 3.749993,-3.750027 z"
   style="fill:#a90000;stroke:none"
   inkscape:connector-curvature="0" /><path
   style="fill:#000000"
   inkscape:connector-curvature="0"
   id="path10"
   d="M 3.18912e-6,66.75526 C 0.09937045,67.605172 0.22645974,68.447332 0.38433129,69.279758 3.8659658,87.637663 21.325442,101.6 42.333338,101.6 c 21.007356,0 38.466472,-13.961796 41.948827,-32.31898 0.157871,-0.832967 0.284961,-1.675488 0.384508,-2.525579 l 0,-66.75544305384 -84.66666981088,0 0,66.75526205384 z"
   class="fil0" /><polygon
   style="fill:#ffffff"
   id="polygon12"
   points="95.0216,133.795 101.54,133.795 101.54,129.796 108.46,129.796 108.46,133.795 114.979,133.795 114.979,129.796 121.898,129.796 121.898,133.795 128.255,133.795 128.255,120.577 81.7453,120.577 81.7453,133.796 88.1022,133.796 88.1022,129.796 95.0216,129.796 "
   class="fil1"
   transform="matrix(1.8001316,0,0,1.8025691,-146.68048,-216.88079)" /><path
   style="fill:#3c82c2"
   inkscape:connector-curvature="0"
   id="path14"
   d="m 81.610409,76.474713 c 1.302216,-3.079689 2.18428,-6.350631 2.584629,-9.753882 l 0,-28.744848 0,-13.266909 0,-0.05498 -11.803103,0 0,-7.208654 -11.735777,0 0,7.209555 -12.454571,0 0,-7.209555 -11.735958,0 0,7.209555 -12.45457,0 0,-7.209555 -11.735778,0 0,7.210457 -11.80328331,0 0,0.05227 0,13.268711 0,28.743947 c 0.40034927,3.403792 1.28277381,6.675094 2.58498901,9.755144 6.0986658,14.423076 21.3861033,24.653015 39.2765313,24.653015 17.890968,0 33.178586,-10.23048 39.276891,-24.654277 z"
   class="fil2" /><circle
   d="m 125.40445,151.698 c 0,2.22043 -1.80001,4.02045 -4.02045,4.02045 -2.22043,0 -4.02045,-1.80002 -4.02045,-4.02045 0,-2.22044 1.80002,-4.02045 4.02045,-4.02045 2.22044,0 4.02045,1.80001 4.02045,4.02045 z"
   style="fill:#000000"
   sodipodi:ry="4.0204501"
   sodipodi:rx="4.0204501"
   sodipodi:cy="151.698"
   sodipodi:cx="121.384"
   id="circle16"
   r="4.0204501"
   cy="151.698"
   cx="121.384"
   class="fil0"
   transform="matrix(1.8001316,0,0,1.8025691,-146.68048,-216.88079)" /><circle
   d="m 125.2045,151.698 c 0,2.11 -1.71049,3.8205 -3.8205,3.8205 -2.11,0 -3.8205,-1.7105 -3.8205,-3.8205 0,-2.11001 1.7105,-3.8205 3.8205,-3.8205 2.11001,0 3.8205,1.71049 3.8205,3.8205 z"
   style="fill:#f8e73d"
   sodipodi:ry="3.8204999"
   sodipodi:rx="3.8204999"
   sodipodi:cy="151.698"
   sodipodi:cx="121.384"
   id="circle18"
   r="3.8204999"
   cy="151.698"
   cx="121.384"
   class="fil3"
   transform="matrix(1.8001316,0,0,1.8025691,-146.68048,-216.88079)" /><circle
   d="m 109.02045,142.966 c 0,2.22044 -1.80002,4.02045 -4.02045,4.02045 -2.22043,0 -4.02045,-1.80001 -4.02045,-4.02045 0,-2.22043 1.80002,-4.02045 4.02045,-4.02045 2.22043,0 4.02045,1.80002 4.02045,4.02045 z"
   style="fill:#000000"
   sodipodi:ry="4.0204501"
   sodipodi:rx="4.0204501"
   sodipodi:cy="142.966"
   sodipodi:cx="105"
   id="circle20"
   r="4.0204501"
   cy="142.966"
   cx="105"
   class="fil0"
   transform="matrix(1.8001316,0,0,1.8025691,-146.68048,-216.88079)" /><circle
   d="m 92.636753,151.698 c 0,2.22043 -1.800017,4.02045 -4.020451,4.02045 -2.220433,0 -4.02045,-1.80002 -4.02045,-4.02045 0,-2.22044 1.800017,-4.02045 4.02045,-4.02045 2.220434,0 4.020451,1.80001 4.020451,4.02045 z"
   style="fill:#000000"
   sodipodi:ry="4.0204501"
   sodipodi:rx="4.0204501"
   sodipodi:cy="151.698"
   sodipodi:cx="88.616302"
   id="circle22"
   r="4.0204501"
   cy="151.698"
   cx="88.616302"
   class="fil0"
   transform="matrix(1.8001316,0,0,1.8025691,-146.68048,-216.88079)" /><circle
   d="m 92.436802,151.698 c 0,2.11 -1.710496,3.8205 -3.8205,3.8205 -2.110003,0 -3.820499,-1.7105 -3.820499,-3.8205 0,-2.11001 1.710496,-3.8205 3.820499,-3.8205 2.110004,0 3.8205,1.71049 3.8205,3.8205 z"
   style="fill:#f8e73d"
   sodipodi:ry="3.8204999"
   sodipodi:rx="3.8204999"
   sodipodi:cy="151.698"
   sodipodi:cx="88.616302"
   id="circle24"
   r="3.8204999"
   cy="151.698"
   cx="88.616302"
   class="fil3"
   transform="matrix(1.8001316,0,0,1.8025691,-146.68048,-216.88079)" /><circle
   d="m 108.8205,142.966 c 0,2.11001 -1.7105,3.8205 -3.8205,3.8205 -2.11,0 -3.8205,-1.71049 -3.8205,-3.8205 0,-2.11 1.7105,-3.8205 3.8205,-3.8205 2.11,0 3.8205,1.7105 3.8205,3.8205 z"
   style="fill:#f8e73d"
   sodipodi:ry="3.8204999"
   sodipodi:rx="3.8204999"
   sodipodi:cy="142.966"
   sodipodi:cx="105"
   id="circle26"
   r="3.8204999"
   cy="142.966"
   cx="105"
   class="fil3"
   transform="matrix(1.8001316,0,0,1.8025691,-146.68048,-216.88079)" /><path
   id="_49532560"
   class="fil4"
   d="m 72.210122,84.368163 c -0.41943,-0.385389 -0.834001,-0.798358 -1.226249,-1.216373 0.298281,-0.361596 0.576762,-0.7295 0.834361,-1.095602 l 0.0036,-0.009 0.0018,-0.0036 -1.769709,-1.230614 c -0.163812,0.232712 -0.336625,0.467587 -0.518618,0.700478 -3.310262,-3.730416 -7.11358,-7.104645 -11.163877,-9.909984 1.269633,-1.923341 2.45034,-3.904364 3.533119,-5.925405 l 3.6e-4,1.8e-4 0.0011,-0.0018 -3.6e-4,-1.8e-4 0.0036,-0.0054 -1.893198,-1.0244 -0.0011,0.0018 -0.0036,0.009 c -1.069638,1.997607 -2.241163,3.945283 -3.500536,5.834376 C 39.564376,59.14914 24.57288,45.681605 13.785591,28.318719 c -1.977985,1.682698 -1.405543,4.311565 -0.146531,6.165327 10.745346,15.834308 24.873319,28.297992 40.804483,38.951536 -1.317696,1.785805 -2.711898,3.512666 -4.170365,5.176257 3.676949,2.760454 7.670181,7.185942 12.153409,8.392401 1.978885,0.532299 3.840581,0.0014 5.464839,-1.035035 0.27326,0.442711 0.53698,0.8984 0.792418,1.367609 l 3.526098,-2.968471 z M 56.251596,74.652135 c 4.099619,2.809845 7.636878,5.671964 10.430322,9.51414 -1.112661,0.665869 -2.369153,1.004933 -3.739593,0.719406 -3.448332,-0.717603 -6.979471,-3.848485 -9.873542,-6.19507 1.103841,-1.304339 2.166458,-2.65266 3.182813,-4.038476 z"
   inkscape:connector-curvature="0"
   style="fill:#000000;fill-rule:nonzero" /><path
   id="_159277096"
   class="fil5"
   d="m 71.668283,84.353743 -2.882371,2.426618 C 68.596538,86.44274 68.398344,86.109265 68.195109,85.779755 l -0.009,-0.01442 c 0.949389,-0.649105 1.810932,-1.465668 2.562307,-2.338292 0.298102,0.316531 0.604304,0.626573 0.919328,0.92616 z m -16.202625,-11.717781 -3.490635,-2.451314 0.599804,-0.853697 3.490635,2.451855 c 1.36828,-1.975796 2.641153,-4.016845 3.801878,-6.113593 l 0,-0.0014 c 0.107828,-0.195038 0.205035,-0.373853 0.292521,-0.534282 l 1.257392,0.68029 -0.009,0.01622 0.0036,0.0018 c -2.435218,4.492183 -5.321729,8.726778 -8.61831,12.624834 l 1.8e-4,1.8e-4 -0.243018,0.277956 c 3.439151,2.632112 6.216754,5.533887 10.086677,6.451575 3.210715,0.757079 5.779683,-1.503162 7.499529,-3.874983 l 1.180706,0.821071 c -2.023348,2.763338 -5.276906,5.561827 -9.02244,4.460817 -4.51455,-1.329575 -7.863695,-5.230514 -11.501941,-8.035312 1.645681,-1.89432 3.209635,-3.871378 4.671702,-5.92162 z m 2.706498,-0.732204 c 4.071178,2.82048 7.80465,6.142435 11.092591,9.848337 l 5.4e-4,-5.41e-4 0.04338,0.04957 c -0.672889,0.825938 -1.451806,1.597257 -2.32487,2.172457 l -0.0144,-0.01911 c -2.828367,-3.890485 -6.57228,-6.895548 -10.508088,-9.593453 0.586303,-0.807371 1.156404,-1.626819 1.710305,-2.457263 z"
   inkscape:connector-curvature="0"
   style="fill:#f8e73d;fill-rule:nonzero" /><path
   id="_158667112"
   class="fil6"
   d="m 54.657039,73.145368 -0.0144,-0.009 C 46.693617,67.820759 39.193728,62.052898 32.340627,55.638456 25.491667,49.22798 19.290393,42.173445 13.935182,34.281978 c -1.074319,-1.581754 -1.6428,-3.879669 -0.221956,-5.400317 5.361872,8.555174 11.743878,16.164178 18.87582,23.039718 7.229508,6.969453 15.231093,13.185252 23.721594,18.868031 -0.108548,0.16151 -0.219616,0.324643 -0.333925,0.49102 l -3.488295,-2.450413 -1.012934,1.441695 3.488115,2.449511 c -0.102067,0.141682 -0.203955,0.283545 -0.306922,0.424505 z"
   inkscape:connector-curvature="0"
   style="fill:#ffffff;fill-rule:nonzero" /><path
   id="_158911576"
   class="fil4"
   d="m 12.457454,84.368163 c 0.419431,-0.385389 0.834001,-0.798358 1.22625,-1.216373 -0.298282,-0.361596 -0.576763,-0.7295 -0.834361,-1.095602 l -0.0043,-0.009 -0.002,-0.0036 1.769709,-1.230614 c 0.163812,0.232712 0.336625,0.467587 0.518618,0.700478 3.310262,-3.730416 7.11358,-7.104645 11.163877,-9.909984 -1.269633,-1.923341 -2.45034,-3.904364 -3.533119,-5.925405 l -3.6e-4,1.8e-4 -0.0011,-0.0018 3.6e-4,-1.8e-4 -0.0034,-0.0054 1.893198,-1.0244 0.0011,0.0018 0.0041,0.009 c 1.069638,1.997607 2.241164,3.945283 3.500536,5.834376 C 45.10302,59.14914 60.094516,45.681605 70.881805,28.318719 c 1.977985,1.682698 1.405543,4.311565 0.146531,6.165327 -10.745346,15.834308 -24.873319,28.297992 -40.804483,38.951536 1.317696,1.785805 2.711898,3.512666 4.170365,5.176257 -3.676949,2.760454 -7.670181,7.185942 -12.153409,8.392401 -1.978885,0.532299 -3.840581,0.0014 -5.464839,-1.035035 -0.27326,0.442711 -0.53698,0.8984 -0.792418,1.367609 l -3.526098,-2.968471 z m 15.958527,-9.716028 c -4.09962,2.809845 -7.636879,5.671964 -10.430323,9.51414 1.112661,0.665869 2.369153,1.004933 3.739593,0.719406 3.448333,-0.717603 6.979471,-3.848485 9.873542,-6.19507 -1.10384,-1.304339 -2.166458,-2.65266 -3.182812,-4.038476 z"
   inkscape:connector-curvature="0"
   style="fill:#000000;fill-rule:nonzero" /><path
   id="_159246984"
   class="fil5"
   d="m 12.997673,84.353743 2.882371,2.426618 c 0.189374,-0.337621 0.387568,-0.671096 0.590803,-1.000606 l 0.0085,-0.01442 c -0.949389,-0.649105 -1.810932,-1.465668 -2.562307,-2.338292 -0.298102,0.316531 -0.604305,0.626573 -0.919328,0.92616 z m 16.202625,-11.717781 3.490635,-2.451314 -0.599804,-0.853697 -3.490635,2.451855 c -1.36828,-1.975796 -2.641153,-4.016845 -3.801878,-6.113593 l 0,-0.0014 c -0.107828,-0.195038 -0.205035,-0.373853 -0.292521,-0.534282 l -1.257392,0.68029 0.0088,0.01622 -0.0041,0.0018 c 2.435218,4.492183 5.321729,8.726778 8.61831,12.624834 l -1.8e-4,1.8e-4 0.243018,0.277956 c -3.439151,2.632112 -6.216755,5.533887 -10.086677,6.451575 -3.210715,0.757079 -5.779683,-1.503162 -7.499529,-3.874983 l -1.180706,0.821071 c 2.023348,2.763338 5.276906,5.561827 9.02244,4.460817 4.51455,-1.329575 7.863694,-5.230514 11.50194,-8.035312 -1.64568,-1.89432 -3.209634,-3.871378 -4.671701,-5.92162 z M 26.4938,71.903758 c -4.071178,2.82048 -7.804651,6.142435 -11.092591,9.848337 l -5.4e-4,-5.41e-4 -0.04338,0.04957 c 0.672889,0.825938 1.451806,1.597257 2.32487,2.172457 l 0.01386,-0.01911 c 2.828367,-3.890485 6.57228,-6.895548 10.508088,-9.593453 C 27.617802,73.55365 27.047701,72.734202 26.4938,71.903758 z"
   inkscape:connector-curvature="0"
   style="fill:#f8e73d;fill-rule:nonzero" /><path
   id="_160084816"
   class="fil6"
   d="m 30.010177,73.145368 0.01404,-0.009 c 7.949021,-5.315596 15.44891,-11.083457 22.302011,-17.497899 6.84896,-6.410476 13.050234,-13.465011 18.405445,-21.356478 1.074319,-1.581754 1.6428,-3.879669 0.221956,-5.400317 -5.361872,8.555174 -11.743878,16.164178 -18.87582,23.039718 -7.229508,6.969453 -15.231093,13.185252 -23.721594,18.868031 0.108548,0.16151 0.219616,0.324643 0.333925,0.49102 l 3.488295,-2.450413 1.012934,1.441695 -3.488115,2.449511 c 0.102067,0.141682 0.203955,0.283545 0.306922,0.424505 z"
   inkscape:connector-curvature="0"
   style="fill:#ffffff;fill-rule:nonzero" />
</svg>