<?xml version="1.0" encoding="UTF-8" standalone="no"?>
<!-- Creator: CorelDRAW -->

<svg
   xmlns:dc="http://purl.org/dc/elements/1.1/"
   xmlns:cc="http://creativecommons.org/ns#"
   xmlns:rdf="http://www.w3.org/1999/02/22-rdf-syntax-ns#"
   xmlns:svg="http://www.w3.org/2000/svg"
   xmlns="http://www.w3.org/2000/svg"
   xmlns:sodipodi="http://sodipodi.sourceforge.net/DTD/sodipodi-0.dtd"
   xmlns:inkscape="http://www.inkscape.org/namespaces/inkscape"
   xml:space="preserve"
   width="300"
   height="360"
   style="fill-rule:evenodd"
   viewBox="0 0 84.666667 101.6"
   id="svg2"
   version="1.1"
   inkscape:version="0.48.1 "
   sodipodi:docname="докшицы.svg"><metadata
   id="metadata20"><rdf:RDF><cc:Work
       rdf:about=""><dc:format>image/svg+xml</dc:format><dc:type
         rdf:resource="http://purl.org/dc/dcmitype/StillImage" /></cc:Work></rdf:RDF></metadata><sodipodi:namedview
   pagecolor="#ffffff"
   bordercolor="#666666"
   borderopacity="1"
   objecttolerance="10"
   gridtolerance="10"
   guidetolerance="10"
   inkscape:pageopacity="0"
   inkscape:pageshadow="2"
   inkscape:window-width="640"
   inkscape:window-height="480"
   id="namedview18"
   showgrid="false"
   fit-margin-top="0"
   fit-margin-left="0"
   fit-margin-right="0"
   fit-margin-bottom="0"
   inkscape:zoom="0.725"
   inkscape:cx="150"
   inkscape:cy="180"
   inkscape:window-x="0"
   inkscape:window-y="0"
   inkscape:window-maximized="0"
   inkscape:current-layer="svg2" />
 <defs
   id="defs4"><style
     type="text/css"
     id="style6">
   
    .fil0 {fill:black}
    .fil4 {fill:#F8E73D}
    .fil3 {fill:#41A147;fill-rule:nonzero}
    .fil2 {fill:#482B34;fill-rule:nonzero}
    .fil1 {fill:white;fill-rule:nonzero}
   
  </style></defs>
 <path
   id="path3003"
   d="m 62.583288,34.104381 c 0.828322,0 1.500011,0.671689 1.500011,1.500012 l 0,1.499658 c 0,0.828322 -0.671689,1.500011 -1.500011,1.500011 l -1.500011,0 0,-4.499681 1.500011,0 z m 0,5.999692 c 1.656644,0 3.000022,-1.343378 3.000022,-3.000022 l 0,-1.499658 c 0,-1.656645 -1.343378,-3.000023 -3.000022,-3.000023 l -3.000022,0 0,7.499703 3.000022,0 z m -6.000044,-7.499703 1.500011,0 0,7.499703 -1.500011,0 0,-7.499703 z m -3.000023,0 1.500011,0 0,7.499703 -1.500011,0 -3.000022,-4.708525 0,4.708525 -1.500011,0 0,-7.499703 1.500011,0 3.000022,4.708525 0,-4.708525 z m -22.499884,0 4.499998,0 0,1.500011 -2.999986,0 0,1.500012 2.999986,0 0,1.500011 -2.999986,0 0,1.499658 2.999986,0 0,1.500011 -4.499998,0 0,-7.499703 z m -5.999973,-3.52e-4 1.499975,0 0,6.000044 3.000023,0 0,1.500011 -4.499998,0 0,-7.500055 z m 15.750398,6.000044 1.499588,0 c 1.242272,0 2.250158,-1.007533 2.250158,-2.250017 0,-1.24213 -1.026584,-2.24543 -2.250158,-2.250016 l -1.499588,0 0,1.500011 1.499588,0 c 0.414091,0 0.750147,0.336197 0.750147,0.750005 0,0.414161 -0.336056,0.750006 -0.750147,0.750006 l -1.499588,0 0,1.500011 z m 1.499588,-7.500055 c 2.898916,0 5.249827,2.351263 5.249827,5.250038 0,2.899128 -2.350911,5.250039 -5.249827,5.250039 -2.899022,0 -5.250004,-2.350911 -5.250004,-5.250039 0,-2.898775 2.350982,-5.250038 5.250004,-5.250038 z m 0,1.500011 c 2.070594,0 3.750169,1.679575 3.750169,3.750027 0,2.070806 -1.679575,3.750028 -3.750169,3.750028 -2.0707,0 -3.749992,-1.679222 -3.749992,-3.750028 0,-2.070452 1.679292,-3.750027 3.749992,-3.750027 z"
   style="fill:#a90000;stroke:none"
   inkscape:connector-curvature="0" /><path
   id="_158271576"
   class="fil0"
   d="M 42.235158,101.6 C 39.429226,96.367469 33.905964,92.807571 27.551414,92.807571 l -18.4768536,2.9e-4 c -5.0107127,0 -9.074561976268,-4.061044 -9.074561976268,-9.068945 l 0,-83.73891633412002 84.666667576268,0 0,83.73891633412002 c 0,5.007901 -4.063849,9.068945 -9.074562,9.068945 l -18.476854,-2.9e-4 c -6.354549,0 -11.877811,3.559898 -14.683744,8.792429 l -0.196565,0 z"
   inkscape:connector-curvature="0"
   style="fill:#000000" /><path
   id="_156927128"
   class="fil1"
   d="m 31.993675,65.287269 c 0.237967,-0.133258 0.460055,-0.291804 0.665756,-0.473465 0.845789,-0.746863 1.40351,-1.88386 1.621247,-3.27382 0.212952,-1.359526 0.101364,-2.96651 -0.384285,-4.687113 -0.655169,-2.320586 -1.993278,-4.858339 -4.137081,-7.282763 -1.373347,-1.553072 -3.141493,-2.791225 -5.043413,-3.821558 l 2.9e-4,-5.79e-4 c -1.884591,-1.020986 -3.90622,-1.839948 -5.801977,-2.560217 -0.790467,-0.300354 -1.575351,-0.632881 -2.364875,-0.967292 -1.73385,-0.734399 -3.490395,-1.478581 -5.255495,-1.877047 l -0.0012,0 -7.97e-4,-1.45e-4 7.2e-5,-2.9e-4 C 8.6120409,39.738287 5.9676531,38.819545 3.8030415,37.400962 2.5330161,36.568595 1.4285957,35.562971 0.58034115,34.345542 l 0,-2.578042 c 1.59485495,2.013565 3.58182545,3.58026 5.88318455,4.86747 2.8839495,1.612997 6.2582613,2.785282 9.9708163,3.848441 l 0.0015,4.34e-4 c 0.788292,0.225791 1.572813,0.48332 2.347546,0.769761 0.779808,0.288325 1.545551,0.603823 2.291136,0.943814 3.855248,1.757921 7.308229,4.213503 9.568042,7.010669 l 0.397626,-0.319556 C 28.730009,46.02905 25.210394,43.523396 21.28641,41.7341 20.519363,41.384327 19.741512,41.063394 18.959311,40.774199 18.171962,40.483048 17.375405,40.221606 16.575802,39.992555 l -0.0015,-4.35e-4 C 12.89515,38.938527 9.5554241,37.77914 6.7133834,36.18962 4.270564,34.823282 2.1932502,33.137461 0.58034115,30.923828 l 0,-10.558105 C 2.8084686,22.89768 6.368107,24.54314 10.182606,25.578836 l 3.63e-4,-0.0014 0.0012,3.63e-4 0,0.0014 c 0.375584,0.102026 0.761609,0.22637 1.151695,0.369772 0.394218,0.144923 0.795107,0.310064 1.196504,0.492087 2.062014,0.935336 4.135558,2.315297 5.42197,3.734966 l -2.9e-4,2.9e-4 4.35e-4,5.07e-4 0.0064,0.0065 c 0.882261,0.97519 3.084793,2.520798 5.47403,4.197344 1.819118,1.276558 3.747576,2.629925 5.259048,3.845253 4.192258,3.370918 7.229269,6.768357 9.039106,10.61832 1.806357,3.842354 2.396561,8.150058 1.701005,13.350706 -0.358835,2.683112 -1.424755,4.658926 -2.774827,5.963454 -0.776546,0.75034 -1.646987,1.278514 -2.529465,1.590896 -0.876315,0.310209 -1.763143,0.407597 -2.579349,0.298615 -0.512767,-0.06848 -0.997764,-0.218545 -1.434761,-0.448973 0.141461,-0.167386 0.276685,-0.341294 0.40495,-0.520855 0.04358,0.01515 0.08715,0.02964 0.131164,0.04377 1.167429,0.374265 2.503652,0.382816 3.780711,-0.130286 1.269953,-0.510058 2.479,-1.534376 3.399761,-3.225125 0.316347,-0.580926 0.598687,-1.2404 0.837379,-1.983929 l -0.485649,-0.155793 c -0.229048,0.713458 -0.498483,1.343585 -0.799385,1.896106 -0.858333,1.576114 -1.9745,2.526522 -3.141928,2.995421 -1.157858,0.465132 -2.369443,0.458321 -3.428692,0.120287 0.115648,-0.185647 0.224191,-0.376076 0.32512,-0.570201 0.202438,0.02565 0.400526,0.04261 0.594409,0.05123 1.43215,0.06398 2.634164,-0.328759 3.582188,-1.162286 0.93664,-0.823454 1.616462,-2.074506 2.016045,-3.737067 0.213605,-0.888743 0.347524,-1.89596 0.397699,-3.018682 0.535534,-11.966398 -5.754268,-16.940242 -11.96888,-21.854449 l -0.422206,-0.334049 c -1.112541,-0.880917 -2.267281,-1.676474 -3.420136,-2.470871 -1.333323,-0.918525 -2.664834,-1.835962 -3.904407,-2.865716 -0.961945,-0.798962 -1.754514,-1.570172 -2.401926,-2.315876 -0.643713,-0.741428 -1.142413,-1.4559 -1.520318,-2.146098 l -0.447655,0.243616 c 0.395668,0.722588 0.914815,1.467205 1.582238,2.235951 0.663726,0.764471 1.476162,1.555101 2.461962,2.373845 1.262122,1.048449 2.600303,1.970524 3.94037,2.893686 1.150172,0.792514 2.302229,1.586187 3.394179,2.450872 l 0.422205,0.334049 c 6.112523,4.833485 12.299003,9.725592 11.774998,21.433012 -0.0488,1.09149 -0.178004,2.06668 -0.383778,2.922887 -0.373771,1.555173 -1.000301,2.717242 -1.858126,3.471423 -0.846297,0.744109 -1.927588,1.094317 -3.22241,1.036492 -0.125799,-0.0058 -0.253483,-0.01485 -0.383343,-0.02811 0.122537,-0.278108 0.229774,-0.561868 0.319827,-0.849106 1.010089,-0.08637 1.887999,-0.649619 2.574274,-1.400467 l -5.8e-4,-5.08e-4 c 0.796195,-0.870989 1.335789,-2.000595 1.517345,-2.918177 0.02494,-0.126084 0.04358,-0.253544 0.05539,-0.380714 C 36.357194,56.479766 34.971448,51.79816 32.006872,47.726175 29.054186,43.670276 24.537098,40.226244 18.778407,37.131115 16.773382,36.053464 14.769155,35.2253 12.720917,34.378874 12.112151,34.12736 11.499471,33.874179 10.899551,33.619983 8.9860299,32.809137 7.275527,31.903293 5.87789,30.862815 4.4950443,29.833424 3.4202792,28.672805 2.7616293,27.342408 l -0.4576615,0.225646 c 0.6966433,1.407062 1.8240482,2.627679 3.2701196,3.70417 1.4312075,1.065404 3.1772387,1.990668 5.1276656,2.817166 0.62479,0.264703 1.227174,0.513681 1.825281,0.760775 2.03236,0.839832 4.02107,1.66162 6.009491,2.730357 5.693145,3.059913 10.152663,6.456266 13.056624,10.44521 2.892215,3.97264 4.244101,8.541133 3.737787,13.961558 -0.0093,0.09971 -0.02589,0.209777 -0.04945,0.328831 -0.165968,0.838962 -0.66097,1.87357 -1.391909,2.67304 l -0.001,0 c -0.560911,0.613678 -1.259585,1.085766 -2.050269,1.212284 0.07178,-0.303687 0.124131,-0.609475 0.155381,-0.914104 z M 84.087121,30.923901 c -1.612909,2.21356 -3.69015,3.899381 -6.13297,5.265719 -2.84204,1.58952 -6.181766,2.748907 -9.860896,3.8025 l -0.0015,4.35e-4 c -0.799602,0.229051 -1.59616,0.490493 -2.383509,0.781644 -0.782201,0.289195 -1.560052,0.610128 -2.327099,0.959901 -3.923984,1.789296 -7.443599,4.29495 -9.753803,7.154433 l 0.397626,0.319556 c 2.259813,-2.797166 5.712794,-5.252748 9.568042,-7.010669 0.745585,-0.339991 1.511327,-0.655489 2.291135,-0.943814 0.774733,-0.286441 1.559254,-0.54397 2.347546,-0.769761 l 0.0015,-4.34e-4 c 3.712555,-1.063159 7.086867,-2.235444 9.970816,-3.848441 2.301287,-1.287138 4.28833,-2.853977 5.883112,-4.867398 l 0,2.578043 c -0.848254,1.217356 -1.952602,2.223052 -3.222628,3.055347 -2.164611,1.418583 -4.808999,2.337325 -7.488843,2.942018 l 7.3e-5,2.9e-4 -7.25e-4,1.45e-4 -0.0015,0 c -1.765101,0.398466 -3.521645,1.142648 -5.255495,1.877047 -0.789525,0.334411 -1.574408,0.666938 -2.364875,0.967292 -1.895757,0.720269 -3.917386,1.539231 -5.801977,2.560217 l 2.9e-4,5.79e-4 c -1.901921,1.030333 -3.670066,2.268486 -5.043414,3.821558 -2.143802,2.424424 -3.481911,4.962177 -4.13708,7.282763 -0.48565,1.720603 -0.597237,3.327587 -0.384285,4.687113 0.217737,1.38996 0.775458,2.526957 1.621247,3.27382 0.205701,0.181661 0.427789,0.340207 0.665755,0.473465 0.03125,0.304629 0.0836,0.610417 0.155382,0.914104 -0.790684,-0.126518 -1.489358,-0.598606 -2.050269,-1.212284 l -7.25e-4,0 c -0.730939,-0.79947 -1.225941,-1.834078 -1.391909,-2.67304 -0.02356,-0.119055 -0.04017,-0.229124 -0.04945,-0.328831 -0.506314,-5.420425 0.845572,-9.988918 3.737787,-13.961559 2.903961,-3.988944 7.363479,-7.385296 13.056624,-10.445209 1.98842,-1.068738 3.977131,-1.890526 6.009491,-2.730357 0.598107,-0.247094 1.200491,-0.496073 1.825281,-0.760775 1.950427,-0.826499 3.696458,-1.751762 5.127665,-2.817167 1.446072,-1.076491 2.573477,-2.297108 3.27012,-3.704169 L 81.90605,27.342336 c -0.658649,1.330397 -1.733415,2.491016 -3.11626,3.520407 -1.397637,1.040477 -3.10814,1.946321 -5.021661,2.757168 -0.59992,0.254195 -1.212601,0.507376 -1.821366,0.758891 -2.048239,0.846425 -4.052466,1.67459 -6.05749,2.75224 -5.758691,3.09513 -10.275779,6.539162 -13.228465,10.595061 -2.964577,4.071985 -4.350323,8.753591 -3.83161,14.307055 0.01182,0.127171 0.03045,0.254631 0.0554,0.380714 0.181556,0.917583 0.72115,2.047188 1.517345,2.918178 l -5.8e-4,5.07e-4 c 0.686275,0.750848 1.564185,1.314093 2.574274,1.400467 0.09005,0.287239 0.19729,0.570999 0.319826,0.849107 -0.129859,0.01326 -0.257543,0.02246 -0.383342,0.02811 -1.294823,0.05782 -2.376113,-0.292383 -3.22241,-1.036492 -0.857826,-0.754182 -1.484355,-1.91625 -1.858127,-3.471423 -0.205773,-0.856208 -0.33498,-1.831397 -0.383777,-2.922888 -0.524005,-11.70742 5.662475,-16.599527 11.774997,-21.433012 l 0.422206,-0.334048 c 1.09195,-0.864686 2.244007,-1.658359 3.394179,-2.450872 1.340066,-0.923163 2.678248,-1.845238 3.94037,-2.893686 0.9858,-0.818745 1.798236,-1.609374 2.461961,-2.373845 0.667424,-0.768747 1.186571,-1.513363 1.582239,-2.235951 l -0.447655,-0.243616 c -0.377905,0.690197 -0.876605,1.40467 -1.520319,2.146098 -0.647411,0.745703 -1.43998,1.516913 -2.401925,2.315876 -1.239573,1.029753 -2.571084,1.947191 -3.904408,2.865715 -1.152854,0.794398 -2.307594,1.589955 -3.420135,2.470872 l -0.422206,0.334048 c -6.214612,4.914208 -12.504414,9.888052 -11.96888,21.85445 0.05017,1.122721 0.184094,2.129939 0.397698,3.018682 0.399584,1.662561 1.079406,2.913612 2.016046,3.737067 0.948024,0.833527 2.150038,1.226269 3.582188,1.162286 0.193883,-0.0086 0.391971,-0.02558 0.594409,-0.05123 0.100929,0.194125 0.209472,0.384554 0.32512,0.570201 -1.059249,0.338034 -2.270834,0.344846 -3.428692,-0.120286 -1.167428,-0.4689 -2.283595,-1.419307 -3.141928,-2.995422 -0.300902,-0.55252 -0.570337,-1.182647 -0.799385,-1.896105 l -0.485649,0.155792 c 0.238692,0.74353 0.521032,1.403004 0.837378,1.983929 0.920762,1.690749 2.129809,2.715068 3.399762,3.225126 1.277058,0.513101 2.613282,0.504551 3.780711,0.130286 0.04401,-0.01413 0.08759,-0.02862 0.131092,-0.04377 0.128264,0.17956 0.263489,0.353541 0.404949,0.520927 -0.436925,0.230356 -0.921921,0.380424 -1.434688,0.4489 -0.816206,0.108983 -1.703035,0.01159 -2.579349,-0.298614 C 49.65541,69.43686 48.784969,68.908687 48.008423,68.158346 46.65835,66.853818 45.592431,64.878005 45.233596,62.194893 44.53804,56.994244 45.128244,52.686541 46.9346,48.844187 c 1.809837,-3.849963 4.846848,-7.247402 9.039107,-10.618321 1.511472,-1.215327 3.43993,-2.568695 5.259048,-3.845252 2.389237,-1.676547 4.591769,-3.222155 5.474029,-4.197345 l 0.0065,-0.0065 4.35e-4,-5.07e-4 -2.9e-4,-2.9e-4 c 1.286412,-1.41967 3.359955,-2.79963 5.42197,-3.734966 0.401397,-0.182024 0.802286,-0.347164 1.196504,-0.492088 0.390085,-0.143401 0.77611,-0.267746 1.151695,-0.369772 l 0,-0.0014 0.0014,-3.62e-4 3.62e-4,0.0014 c 3.814427,-1.035623 7.374065,-2.681083 9.602193,-5.21304 l 0,10.558105 z"
   inkscape:connector-curvature="0"
   style="fill:#ffffff;fill-rule:nonzero" /><path
   id="_156926960"
   class="fil2"
   d="m 47.161981,95.39583 c 0.07367,-0.595345 0.132905,-1.19656 0.173146,-1.805745 0.108832,-1.645823 0.07968,-3.347658 -0.176699,-5.140723 -0.3555,-2.486379 -0.130367,-4.627839 0.4929,-6.561552 0.625297,-1.940017 1.65373,-3.679533 2.900191,-5.352601 1.168734,-1.568579 1.966814,-3.183605 2.503218,-4.789501 0.120433,-0.360715 0.227815,-0.720994 0.323161,-1.079825 0.582953,-0.09775 1.133423,-0.290209 1.627628,-0.574838 0.295465,0.293977 0.612101,0.560201 0.946284,0.791209 0.151321,0.104635 0.296044,0.16456 0.430616,0.186661 0.34941,0.05768 0.65343,-0.138329 0.801778,-0.44861 0.182282,-0.381076 0.09883,-0.810847 0.210197,-1.209603 0.178729,-0.638605 0.655532,-1.095331 1.308599,-1.298297 0.530603,-0.165067 1.099127,-0.164633 1.626468,-0.09558 0.332152,0.04333 0.638565,0.122751 0.99073,0.05551 0.488041,-0.09369 0.851009,-0.390134 1.074475,-0.77121 1.182002,0.792151 2.603711,1.254675 4.133528,1.254675 4.104018,7.2e-5 7.432288,-3.32621 7.432288,-7.42776 0,-0.160068 -0.0058,-0.318831 -0.01573,-0.476363 0.867758,-0.516072 1.845147,-0.722081 2.838488,-0.628678 0.04452,0.08464 0.102669,0.160575 0.179163,0.226588 0.520163,0.449553 2.17527,0.146445 2.622491,-0.367163 0.236879,-0.272166 0.276105,-0.604693 0.239272,-1.040985 -0.19004,-2.7384 -1.398,-5.217822 -3.397731,-7.030379 0.07439,-0.224994 0.155236,-0.447669 0.243767,-0.667083 0.322727,-0.799252 0.74689,-1.55155 1.321867,-2.180517 0.620512,-0.678894 1.270098,-1.248008 1.903661,-1.803065 0.929534,-0.814325 1.825861,-1.599737 2.570431,-2.661808 0.667713,-0.952582 1.191138,-2.112331 1.620885,-3.353165 l 0,42.593495 0,5.08e-4 0.0022,0 c -7.3e-5,4.652983 -3.839732,8.490989 -8.49567,8.490989 l -18.478956,-2.89e-4 c -2.631119,0 -5.123606,0.589403 -7.352168,1.642561 -0.910828,0.43035 -1.781124,0.94106 -2.600521,1.523145 z M 0.58026865,41.144261 c 0.42989155,1.241269 0.95302655,2.401454 1.62095725,3.354325 0.7445702,1.062071 1.6408966,1.847483 2.5704311,2.661808 0.6335625,0.555057 1.2831491,1.124171 1.9036604,1.803065 0.5749773,0.628967 0.9991408,1.381265 1.3218677,2.180517 0.088531,0.219342 0.1696654,0.442017 0.2441296,0.666938 -1.9998042,1.812557 -3.208054,4.292051 -3.3980937,7.030524 -0.036833,0.436292 0.00239,0.768819 0.2392717,1.040985 0.4472207,0.513608 2.1023285,0.816716 2.6224908,0.367163 0.076494,-0.06601 0.1346447,-0.141952 0.1791638,-0.226588 0.9933402,-0.0934 1.970729,0.112606 2.8384877,0.628678 -0.01001,0.157532 -0.01573,0.316295 -0.01573,0.476363 0,4.10155 3.32827,7.427832 7.432288,7.42776 1.529817,0 2.951526,-0.462524 4.133528,-1.254675 0.223465,0.381076 0.586433,0.677517 1.074475,0.77121 0.352165,0.06724 0.658578,-0.01217 0.99073,-0.05551 0.527341,-0.06906 1.095865,-0.06949 1.626468,0.09558 0.653067,0.202966 1.12987,0.659692 1.308599,1.298297 0.11137,0.398756 0.02792,0.828527 0.210197,1.209603 0.148348,0.310281 0.452368,0.50629 0.801777,0.44861 0.134573,-0.0221 0.279296,-0.08203 0.430617,-0.186661 0.334183,-0.231008 0.651109,-0.497232 0.946719,-0.791209 0.494349,0.284774 1.044747,0.47716 1.627772,0.574911 0.0952,0.35883 0.202149,0.719037 0.322582,1.079752 0.536404,1.605896 1.334484,3.220922 2.503218,4.789501 1.24646,1.673068 2.274894,3.412584 2.900191,5.352601 0.623266,1.933713 0.848399,4.075173 0.4929,6.561552 -0.256384,1.793065 -0.285531,3.4949 -0.176699,5.140723 0.04024,0.609185 0.09991,1.2104 0.173508,1.805818 -0.819397,-0.582085 -1.690056,-1.092868 -2.600956,-1.523218 -2.228563,-1.053158 -4.721049,-1.642561 -7.352168,-1.642561 l -18.4789566,2.89e-4 c -4.6559381,0 -8.49559695,-3.838006 -8.49566946,-8.490989 l 0.002248,0 0,-5.08e-4 0,-42.594655 z"
   inkscape:connector-curvature="0"
   style="fill:#482b34;fill-rule:nonzero" /><path
   id="_159403176"
   class="fil3"
   d="m 38.235042,95.943641 c -0.111007,-0.787876 -0.199175,-1.58481 -0.252757,-2.39457 -0.10615,-1.604954 -0.07787,-3.263167 0.171623,-5.008263 0.370363,-2.590723 0.134064,-4.827688 -0.518422,-6.851978 -0.650457,-2.017986 -1.712244,-3.816848 -2.996915,-5.541146 -1.12494,-1.50974 -1.89293,-3.063754 -2.408959,-4.608637 -0.0894,-0.267674 -0.171043,-0.53513 -0.24587,-0.802224 0.76654,0.03007 1.570348,-0.09319 2.3627,-0.373685 0.966657,-0.342164 1.917944,-0.918669 2.763951,-1.73611 1.447231,-1.398438 2.588195,-3.503595 2.968565,-6.348079 0.712739,-5.328979 0.103249,-9.752911 -1.75698,-13.709827 C 36.465447,44.619887 33.36869,41.149768 29.101895,37.718924 27.568888,36.486278 25.634413,35.128781 23.809639,33.848165 21.453755,32.194951 19.281675,30.670574 18.44872,29.754224 l 2.9e-4,-2.18e-4 -4.35e-4,-5.07e-4 -0.0064,-0.0065 c -1.3471,-1.489668 -3.504968,-2.930134 -5.6421,-3.899599 -0.415898,-0.188546 -0.831288,-0.3597 -1.239863,-0.509913 -0.412562,-0.151735 -0.816641,-0.282021 -1.205204,-0.387598 l -3.63e-4,0.0014 -0.0012,-3.62e-4 0,-0.0014 C 6.6390642,23.941056 3.1854304,22.351464 1.0559119,19.922113 0.88921922,19.731901 0.73064731,19.536399 0.58034115,19.335028 l 0,-18.75540718 83.50656285,0 0,18.75555218 c -0.150307,0.201371 -0.308806,0.396728 -0.475499,0.58694 -2.129518,2.429351 -5.583152,4.018943 -9.297519,5.027393 l 0,0.0014 -0.0014,3.62e-4 -3.63e-4,-0.0014 c -0.388563,0.105577 -0.792642,0.235863 -1.205205,0.387598 -0.408574,0.150213 -0.823964,0.321367 -1.239862,0.509913 -2.137132,0.969465 -4.295,2.409931 -5.6421,3.899599 l -0.0065,0.0065 -4.35e-4,5.07e-4 2.9e-4,2.18e-4 c -0.832956,0.91635 -3.005035,2.440727 -5.36092,4.093941 -1.824773,1.280616 -3.759249,2.638113 -5.292255,3.870759 -4.266796,3.430844 -7.363552,6.900963 -9.220083,10.850198 -1.860229,3.956916 -2.46972,8.380848 -1.75698,13.709827 0.38037,2.844484 1.521333,4.949641 2.968565,6.348079 0.846007,0.817441 1.797293,1.393946 2.763951,1.73611 0.792352,0.2805 1.59616,0.403757 2.3627,0.373685 -0.07483,0.267094 -0.156469,0.53455 -0.24587,0.802224 -0.516029,1.544883 -1.284019,3.098897 -2.408959,4.608637 -1.284672,1.724298 -2.346458,3.52316 -2.996915,5.541146 -0.652487,2.02429 -0.888786,4.261255 -0.518422,6.851978 0.249495,1.745096 0.277773,3.403309 0.171623,5.008263 -0.05358,0.80976 -0.14175,1.606621 -0.252758,2.394497 -1.628425,1.290471 -3.025482,2.871803 -4.098725,4.659142 -1.073242,-1.787339 -2.470299,-3.368599 -4.098725,-4.659069 z M 31.976419,64.528522 c -0.0076,-0.02413 -0.01581,-0.04753 -0.02516,-0.06985 -0.13624,-0.326585 -0.46368,-0.480421 -0.805548,-0.441727 -0.419958,0.04732 -0.740437,0.345933 -1.137846,0.462813 -0.636608,0.186952 -1.276841,0.02478 -1.795118,-0.421075 -0.421263,-0.362163 -0.722166,-0.844323 -0.943021,-1.327788 -0.139285,-0.304484 -0.234269,-0.606287 -0.477963,-0.869105 -0.338171,-0.364121 -0.782346,-0.514696 -1.224274,-0.502015 0.0025,-0.0771 0.0041,-0.154344 0.0041,-0.232023 0,-4.101477 -3.328197,-7.427614 -7.432287,-7.427614 -1.61755,0 -3.114521,0.516797 -4.334807,1.394018 -0.897776,-0.461943 -1.590214,-1.180763 -2.03729,-2.072042 0.04822,-0.08268 0.08186,-0.172241 0.09738,-0.272021 0.105788,-0.679039 -1.028506,-1.921177 -1.701294,-2.028058 -0.356515,-0.05645 -0.6594476,0.08652 -1.0101619,0.34883 -0.1289167,0.09348 -0.2550782,0.189705 -0.3787744,0.287963 C 8.7199307,51.205351 8.6623605,51.052674 8.6013825,50.901664 8.2513206,50.034732 7.7883661,49.215625 7.1571237,48.525065 6.5176881,47.825448 5.850555,47.241044 5.1999534,46.670988 4.2999291,45.88246 3.4320253,45.122046 2.7340768,44.126423 1.756253,42.731535 1.0949204,40.829488 0.58034115,38.8865 l 0,-3.463018 c 0.80750585,0.977219 1.77952915,1.810746 2.86582285,2.522682 2.2350881,1.464813 4.9532876,2.410728 7.703027,3.031146 l 0.0012,0 7.98e-4,1.44e-4 -7.3e-5,2.9e-4 c 1.710576,0.386149 3.43935,1.118592 5.145865,1.841397 0.806056,0.34144 1.607399,0.680923 2.387787,0.977436 1.867842,0.70969 3.860251,1.516841 5.720335,2.524566 l 0.0013,0 c 1.842537,0.99816 3.55043,2.191676 4.866062,3.679532 2.073399,2.344861 3.365901,4.793125 3.996853,7.027988 0.460272,1.630606 0.567727,3.142664 0.368914,4.411904 -0.194028,1.238805 -0.679024,2.24153 -1.409673,2.886729 -0.08085,0.07137 -0.165098,0.138619 -0.252178,0.201226 z M 84.087121,38.886717 c -0.514507,1.942916 -1.175912,3.84489 -2.153663,5.239706 -0.697948,0.995623 -1.565852,1.756037 -2.465877,2.544565 -0.650601,0.570056 -1.317734,1.15446 -1.95717,1.854077 -0.631242,0.69056 -1.094197,1.509667 -1.444259,2.376599 -0.06098,0.15101 -0.118548,0.303687 -0.172928,0.457161 -0.123696,-0.09826 -0.249858,-0.194487 -0.378774,-0.287963 -0.350715,-0.262311 -0.653647,-0.405278 -1.010162,-0.34883 -0.672789,0.106881 -1.807082,1.349019 -1.701295,2.028058 0.01552,0.09978 0.04916,0.189342 0.09738,0.272021 -0.447076,0.891279 -1.139514,1.610099 -2.03729,2.072042 -1.220286,-0.877221 -2.717257,-1.394018 -4.334807,-1.394018 -4.10409,0 -7.432288,3.326137 -7.432288,7.427614 0,0.07768 0.0015,0.154924 0.0044,0.232023 -0.441928,-0.01268 -0.886103,0.137894 -1.224274,0.502015 -0.243695,0.262818 -0.338678,0.564621 -0.477963,0.869105 -0.220855,0.483465 -0.521758,0.965625 -0.943021,1.327788 -0.518277,0.445857 -1.15851,0.608027 -1.795118,0.421075 -0.397409,-0.11688 -0.717888,-0.415495 -1.137846,-0.462813 -0.341869,-0.03869 -0.669308,0.115142 -0.805548,0.441727 -0.0094,0.02232 -0.01755,0.04543 -0.02516,0.06956 -0.08708,-0.06261 -0.171333,-0.129561 -0.252178,-0.200936 -0.730649,-0.645199 -1.215645,-1.647924 -1.409673,-2.886729 -0.198813,-1.26924 -0.09136,-2.781298 0.368914,-4.411904 0.630952,-2.234863 1.923454,-4.683127 3.996853,-7.027988 1.315632,-1.487856 3.023524,-2.681372 4.866062,-3.679532 l 0.0014,0 c 1.860084,-1.007725 3.852492,-1.814876 5.720335,-2.524566 0.780388,-0.296513 1.581731,-0.635996 2.387787,-0.977436 1.706515,-0.722805 3.435289,-1.455248 5.145865,-1.841397 l -7.3e-5,-2.9e-4 7.25e-4,-1.44e-4 0.0015,0 c 2.74974,-0.620418 5.46794,-1.566333 7.703028,-3.031146 1.086221,-0.711864 2.058317,-1.545608 2.86575,-2.522754 l 0,3.463307 z"
   inkscape:connector-curvature="0"
   style="fill:#41a147;fill-rule:nonzero" /><g
   id="кувшины"
   transform="matrix(0.72506588,0,0,0.72461702,-33.79815,-56.805627)">
    <path
   id="_157190464"
   class="fil4"
   d="m 71.6313,153.207 c 5.2713,-1e-4 9.546,4.2747 9.546,9.5459 0,5.2713 -4.2747,9.5461 -9.546,9.5461 -5.2712,0 -9.546,-4.2749 -9.546,-9.5461 -10e-5,-5.2712 4.2748,-9.5458 9.546,-9.5459 z m 6.2447,17.6734 c 2.1899,-1.6853 3.6798,-4.2354 3.958,-7.1389 0.4457,-0.0424 0.8971,0.0833 1.2239,0.4355 0.2805,0.3029 0.4014,0.7373 0.5723,1.0985 0.3491,0.7388 0.8231,1.4598 1.4711,2.0119 0.9073,0.7725 2.0523,1.0493 3.1575,0.7244 0.3229,-0.095 0.6511,-0.2401 0.9818,-0.4385 0.4502,-0.2706 0.8683,-0.2889 0.8397,0.3311 -0.1378,2.9497 -1.8753,6.0843 -4.3038,7.7644 -0.5106,0.3527 -0.7167,-0.0115 -0.7258,-0.5367 -0.0069,-0.3857 -0.0578,-0.7408 -0.1484,-1.065 -0.3101,-1.1094 -1.1517,-1.9338 -2.2875,-2.2939 -0.8116,-0.257 -1.6743,-0.2768 -2.4858,-0.1814 -0.3969,0.0466 -0.8294,0.1742 -1.2347,0.0967 -0.4724,-0.0906 -0.8182,-0.4072 -1.0183,-0.8081 z m -15.5386,-18.779 c 0.6363,1.1654 1.5674,2.1214 2.7255,2.7828 -1.9119,1.5978 -3.2323,3.8788 -3.5862,6.4676 -1.1744,-0.6311 -2.4785,-0.9138 -3.8036,-0.8361 0.156,-3.6418 1.6584,-6.3522 4.6643,-8.4143 z m -2.6566,-2.6712 c 0.3379,-0.2529 0.607,-0.3945 0.8616,-0.3542 0.5216,0.0831 1.8181,1.4378 1.7328,1.9859 -0.034,0.2195 -0.2881,0.4229 -0.6348,0.6701 l -0.0012,7e-4 c -2.8474,1.949 -4.5047,4.9389 -4.6486,8.3863 l 0,0.001 c -0.0259,0.4252 -0.0637,0.7483 -0.2319,0.8936 -0.4196,0.3628 -2.2555,-0.0188 -2.6023,-0.4172 -0.1692,-0.1945 -0.1917,-0.4977 -0.1562,-0.9183 0.2833,-4.1246 2.3329,-7.8222 5.6806,-10.2482 z"
   inkscape:connector-curvature="0"
   style="fill:#f8e73d" />
    <path
   id="_158271816"
   class="fil4"
   d="m 138.369,153.207 c -5.2713,-1e-4 -9.546,4.2747 -9.546,9.5459 0,5.2713 4.2747,9.5461 9.546,9.5461 5.2712,0 9.546,-4.2749 9.546,-9.5461 1e-4,-5.2712 -4.2748,-9.5458 -9.546,-9.5459 z m -6.2447,17.6734 c -2.1899,-1.6853 -3.6798,-4.2354 -3.958,-7.1389 -0.4457,-0.0424 -0.8971,0.0833 -1.2239,0.4355 -0.2805,0.3029 -0.4014,0.7373 -0.5723,1.0985 -0.3491,0.7388 -0.8231,1.4598 -1.4711,2.0119 -0.9073,0.7725 -2.0523,1.0493 -3.1575,0.7244 -0.3229,-0.095 -0.6511,-0.2401 -0.9818,-0.4385 -0.4502,-0.2706 -0.8683,-0.2889 -0.8397,0.3311 0.1378,2.9497 1.8753,6.0843 4.3038,7.7644 0.5106,0.3527 0.7167,-0.0115 0.7258,-0.5367 0.007,-0.3857 0.0578,-0.7408 0.1484,-1.065 0.3101,-1.1094 1.1517,-1.9338 2.2875,-2.2939 0.8116,-0.257 1.6743,-0.2768 2.4858,-0.1814 0.3969,0.0466 0.8294,0.1742 1.2347,0.0967 0.4724,-0.0906 0.8182,-0.4072 1.0183,-0.8081 z m 15.5386,-18.779 c -0.6363,1.1654 -1.5674,2.1214 -2.7255,2.7828 1.9119,1.5978 3.2323,3.8788 3.5862,6.4676 1.1744,-0.6311 2.4785,-0.9138 3.8036,-0.8361 -0.156,-3.6418 -1.6584,-6.3522 -4.6643,-8.4143 z m 2.6566,-2.6712 c -0.3379,-0.2529 -0.607,-0.3945 -0.8616,-0.3542 -0.5216,0.0831 -1.8181,1.4378 -1.7328,1.9859 0.034,0.2195 0.2881,0.4229 0.6348,0.6701 l 10e-4,7e-4 c 2.8474,1.949 4.5047,4.9389 4.6486,8.3863 l 0,0.001 c 0.0259,0.4252 0.0637,0.7483 0.2319,0.8936 0.4196,0.3628 2.2555,-0.0188 2.6023,-0.4172 0.1692,-0.1945 0.1917,-0.4977 0.1562,-0.9183 -0.2833,-4.1246 -2.3329,-7.8222 -5.6806,-10.2482 z"
   inkscape:connector-curvature="0"
   style="fill:#f8e73d" />
   </g>
</svg>