<?xml version="1.0" encoding="UTF-8" standalone="no"?>
<!-- Creator: CorelDRAW -->

<svg
   xmlns:dc="http://purl.org/dc/elements/1.1/"
   xmlns:cc="http://creativecommons.org/ns#"
   xmlns:rdf="http://www.w3.org/1999/02/22-rdf-syntax-ns#"
   xmlns:svg="http://www.w3.org/2000/svg"
   xmlns="http://www.w3.org/2000/svg"
   xmlns:sodipodi="http://sodipodi.sourceforge.net/DTD/sodipodi-0.dtd"
   xmlns:inkscape="http://www.inkscape.org/namespaces/inkscape"
   xml:space="preserve"
   width="300"
   height="360"
   style="fill-rule:evenodd"
   viewBox="0 0 84.666667 101.6"
   id="svg2"
   version="1.1"
   inkscape:version="0.48.1 "
   sodipodi:docname="дубровно.svg"><metadata
   id="metadata31"><rdf:RDF><cc:Work
       rdf:about=""><dc:format>image/svg+xml</dc:format><dc:type
         rdf:resource="http://purl.org/dc/dcmitype/StillImage" /></cc:Work></rdf:RDF></metadata><sodipodi:namedview
   pagecolor="#ffffff"
   bordercolor="#666666"
   borderopacity="1"
   objecttolerance="10"
   gridtolerance="10"
   guidetolerance="10"
   inkscape:pageopacity="0"
   inkscape:pageshadow="2"
   inkscape:window-width="640"
   inkscape:window-height="480"
   id="namedview29"
   showgrid="false"
   fit-margin-top="0"
   fit-margin-left="0"
   fit-margin-right="0"
   fit-margin-bottom="0"
   inkscape:zoom="0.725"
   inkscape:cx="150"
   inkscape:cy="180"
   inkscape:window-x="0"
   inkscape:window-y="0"
   inkscape:window-maximized="0"
   inkscape:current-layer="svg2" />
 <defs
   id="defs4"><style
     type="text/css"
     id="style6">
   
    .fil0 {fill:black;fill-rule:nonzero}
    .fil1 {fill:#3A88CD;fill-rule:nonzero}
    .fil3 {fill:#F6E726;fill-rule:nonzero}
    .fil2 {fill:white;fill-rule:nonzero}
   
  </style></defs>
 <path
   id="path3014"
   d="m 62.583288,48.550341 c 0.828322,0 1.500011,0.671689 1.500011,1.500012 l 0,1.499658 c 0,0.828322 -0.671689,1.500011 -1.500011,1.500011 l -1.500011,0 0,-4.499681 1.500011,0 z m 0,5.999692 c 1.656645,0 3.000022,-1.343378 3.000022,-3.000022 l 0,-1.499658 c 0,-1.656645 -1.343377,-3.000023 -3.000022,-3.000023 l -3.000022,0 0,7.499703 3.000022,0 z m -6.000044,-7.499703 1.500011,0 0,7.499703 -1.500011,0 0,-7.499703 z m -3.000022,0 1.500011,0 0,7.499703 -1.500011,0 -3.000022,-4.708525 0,4.708525 -1.500011,0 0,-7.499703 1.500011,0 3.000022,4.708525 0,-4.708525 z m -22.499884,0 4.499998,0 0,1.500011 -2.999987,0 0,1.500012 2.999987,0 0,1.500011 -2.999987,0 0,1.499658 2.999987,0 0,1.500011 -4.499998,0 0,-7.499703 z m -5.999974,-3.52e-4 1.499976,0 0,6.000044 3.000022,0 0,1.500011 -4.499998,0 0,-7.500055 z m 15.750399,6.000044 1.499587,0 c 1.242272,0 2.250158,-1.007533 2.250158,-2.250017 0,-1.24213 -1.026583,-2.24543 -2.250158,-2.250016 l -1.499587,0 0,1.500011 1.499587,0 c 0.414091,0 0.750147,0.336197 0.750147,0.750005 0,0.414161 -0.336056,0.750006 -0.750147,0.750006 l -1.499587,0 0,1.500011 z m 1.499587,-7.500055 c 2.898916,0 5.249827,2.351263 5.249827,5.250038 0,2.899128 -2.350911,5.250039 -5.249827,5.250039 -2.899022,0 -5.250003,-2.350911 -5.250003,-5.250039 0,-2.898775 2.350981,-5.250038 5.250003,-5.250038 z m 0,1.500011 c 2.070594,0 3.750169,1.679575 3.750169,3.750027 0,2.070806 -1.679575,3.750028 -3.750169,3.750028 -2.070699,0 -3.749992,-1.679222 -3.749992,-3.750028 0,-2.070452 1.679293,-3.750027 3.749992,-3.750027 z"
   style="fill:#a90000;stroke:none"
   inkscape:connector-curvature="0" /><path
   style="fill:#000000;fill-rule:nonzero"
   inkscape:connector-curvature="0"
   id="path10"
   d="M 8.0034541e-4,-1.3097e-7 8.5762499e-4,51.108933 l -8.5919373e-4,0 C -1.56874e-6,74.196157 20.448466,94.82482 42.333333,101.6 64.2182,94.82482 84.666667,74.196157 84.666667,51.108933 l -5.73e-4,0 5.7e-5,-51.10893313097002 -84.6649497,0 z"
   class="fil0" /><path
   style="fill:#3a88cd;fill-rule:nonzero"
   inkscape:connector-curvature="0"
   id="path12"
   d="m 0.68546319,0.68746919 5.728e-5,50.42146381 0.001833,0 0,0.0011 -0.001833,0 0,0.227839 c 0.0221099,3.698642 0.57966933,7.338792 1.59122683,10.869921 0.8410933,2.935838 1.9949905,5.791356 3.4148368,8.538312 7.2978199,14.118443 21.6127319,25.421584 36.6431809,30.13522 2.958891,-0.928143 5.892178,-2.112939 8.751174,-3.525689 2.920113,-1.442883 5.765534,-3.126553 8.484366,-5.019614 13.912581,-9.687131 24.374009,-24.794899 24.41084,-41.140571 l 0,-0.08656 5.7e-5,-50.42146381 -83.29596793,0 z"
   class="fil1" /><path
   style="fill:#000000;fill-rule:nonzero"
   inkscape:connector-curvature="0"
   id="path14"
   d="m 4.5652957,4.5831287 5.73e-5,46.5258043 0.017012,0 0,0.0011 -0.017012,0 0,0.208475 c 0.020678,3.306613 0.5301798,6.598216 1.4542713,9.824052 0.7731598,2.698832 1.8292807,5.314825 3.1257468,7.823057 6.6387039,12.843302 19.5133779,23.204725 33.1873889,27.830706 2.367594,-0.802277 4.722014,-1.783124 7.033875,-2.925526 2.721525,-1.344805 5.398601,-2.931427 7.982311,-4.730419 12.965921,-9.028076 22.715822,-22.979751 22.752366,-37.947104 l 0,-0.08439 5.8e-5,-46.5258043 -75.5363034,0 z"
   class="fil0" /><path
   style="fill:#3a88cd;fill-rule:nonzero"
   inkscape:connector-curvature="0"
   id="path16"
   d="m 5.2479537,5.2685929 0,6.9693351 13.5998913,0 0,-6.9693351 -13.5998913,0 z M 19.5352,12.237928 l 14.740499,0 0,-6.9693351 -14.740499,0 0,6.9693351 z m 15.427854,0 14.7405,0 0,-6.9693351 -14.7405,0 0,6.9693351 z m 15.427855,0 14.740557,0 0,-6.9693351 -14.740557,0 0,6.9693351 z m 15.427912,0 13.599891,0 0,-6.9693351 -13.599891,0 0,6.9693351 z m -60.5708673,0.684834 0,6.968704 5.8859353,0 0,-6.968704 -5.8859353,0 z m 6.5732903,6.968704 14.740614,0 0,-6.968704 -14.740614,0 0,6.968704 z m 15.427969,0 14.740499,0 0,-6.968704 -14.740499,0 0,6.968704 z m 15.427854,0 14.7405,0 0,-6.968704 -14.7405,0 0,6.968704 z m 15.427855,0 14.740557,0 0,-6.968704 -14.740557,0 0,6.968704 z m 15.427912,0 5.885878,0 0,-6.968704 -5.885878,0 0,6.968704 z M 5.2481256,20.5763 l 0,6.968705 13.5998914,0 0,-6.968705 -13.5998914,0 z m 14.2872464,6.968705 14.740499,0 0,-6.968705 -14.740499,0 0,6.968705 z m 15.427854,0 0.754544,0 c 0.242235,-0.432418 0.712214,-0.615056 1.467159,-0.615056 l 9.857473,0 c 0.754945,0 1.224637,0.182638 1.466873,0.615056 l 1.194451,0 0,-6.968705 -14.7405,0 0,6.968705 z m 15.427855,0 14.740556,0 0,-6.968705 -14.740556,0 0,6.968705 z m 15.427911,0 13.599892,0 0,-6.968705 -13.599892,0 0,6.968705 z m -60.5708664,0.684834 0,6.969965 5.8858784,0 0,-6.969965 -5.8858784,0 z m 6.5732334,6.969965 13.843329,0 0.897285,-1.358038 0,-5.611927 -14.740614,0 0,6.969965 z m 23.707045,-6.969965 -8.279076,0 0,4.571671 0.869389,-1.315816 c 0.888578,-1.344919 2.845707,-1.269183 3.865799,-0.129073 l 0.97381,1.088322 c 0.2872,-1.044037 1.540019,-1.981516 2.630794,-1.878167 -0.04834,-0.192376 -0.07303,-0.392774 -0.07315,-0.590536 l -0.0012,0 0,-0.0011 0,-1.427014 c 0,-0.11263 0.0044,-0.218673 0.01363,-0.318184 z m 21.889278,5.237256 0,-5.237256 -8.719098,0 c 0.0092,0.09951 0.01386,0.205553 0.01386,0.318184 l 0,1.427014 0,0.0011 -0.0011,0 c -1.15e-4,0.197762 -0.0248,0.398159 -0.07315,0.590536 1.090775,-0.103349 2.343594,0.83413 2.630793,1.878166 l 0.973811,-1.088321 c 1.020092,-1.140111 2.977221,-1.215847 3.865799,0.129072 l 1.309182,1.981402 z m 1.144847,1.732709 14.283064,0 0,-6.969965 -14.740557,0 0,6.277569 0.457493,0.692396 z m 14.970419,0 5.885821,0 0,-6.969965 -5.885821,0 0,6.969965 z m -68.2847079,0.684834 0,6.968705 13.5998339,0 0,-6.968705 -13.5998339,0 z m 14.2871889,6.968705 6.64151,0 c -0.217891,-0.844843 -0.171438,-1.8466 0.298312,-2.456615 L 25.939344,40.2401 C 24.5746,39.840967 23.848352,37.949624 24.640243,36.750448 l 0.572051,-0.86581 -5.676865,0 0,6.968705 z m 38.514791,0 7.081475,0 0,-6.968705 -6.116543,0 0.572051,0.86581 c 0.79189,1.199176 0.06564,3.090519 -1.299101,3.489652 l -0.535908,0.156628 c 0.46975,0.610015 0.515917,1.611772 0.298026,2.456615 z m 7.76883,0 13.599834,0 0,-6.968705 -13.599834,0 0,6.968705 z m -60.5708671,0.684834 0,6.968704 5.8858781,0 0,-6.968704 -5.8858781,0 z m 6.5732331,6.968704 14.740614,0 0,-0.319444 c -0.917104,-0.132108 -1.519799,-0.953004 -1.790732,-1.970745 -0.215314,-0.809209 -0.224994,-1.711169 -0.0074,-2.52095 0.26257,-0.976779 0.853409,-1.750641 1.798121,-1.87175 l 0,-0.05666 c -0.04645,-0.07173 -0.09039,-0.148321 -0.131399,-0.229156 l -14.609215,0 0,6.968704 z m 15.427969,0 0.62051,0 c 0.046,-0.106386 0.09646,-0.206985 0.151046,-0.300596 l -0.771556,0 0,0.300596 z m 29.10788,0 1.060474,0 0,-0.300825 -0.01575,2.29e-4 -1.195597,0 c 0.05459,0.09361 0.104879,0.19421 0.150875,0.300596 z m 1.747829,0 14.740557,0 0,-6.968704 -14.740557,0 0,0.397472 c 0.691192,0.271092 1.139233,0.944983 1.358328,1.760093 0.217605,0.809781 0.207925,1.711741 -0.0074,2.52095 -0.224937,0.844957 -0.678591,1.554196 -1.350939,1.846313 l 0,0.443876 z m 15.427912,0 5.88582,0 0,-6.968704 -5.88582,0 0,6.968704 z m -68.2847086,0.684834 0,0.122484 c 0.014377,2.291794 0.2695577,4.579692 0.7397658,6.846164 l 12.8600678,0 0,-6.968648 -13.5998336,0 z m 14.2871886,6.968648 7.535244,0 c -0.02033,-0.587958 0.01483,-1.179698 0.108716,-1.751959 0.149099,-0.909292 0.459325,-1.670665 0.943853,-2.025972 -0.601951,-0.770767 -0.717541,-2.107609 -0.472613,-3.190717 l -8.1152,0 0,6.968648 z m 37.621001,0 7.975265,0 0,-6.968648 -8.555049,0 c 0.244984,1.083108 0.129509,2.41995 -0.472442,3.190717 0.484528,0.355307 0.794754,1.11668 0.943853,2.025972 0.09388,0.572261 0.128707,1.164001 0.108373,1.751959 z m 8.66262,0 12.872899,0 c 0.469291,-2.287268 0.72115,-4.614925 0.726935,-6.967788 l 0,-0.0011 -13.599834,0 0,6.968647 z M 6.1366464,58.845197 c 0.1601538,0.705802 0.3410427,1.409312 0.5417503,2.109958 0.4738167,1.653879 1.0550327,3.275333 1.733853,4.858689 l 2.7218113,0 0,-6.968647 -4.9974146,0 z m 5.6847696,6.968647 14.740614,0 0,-6.968647 -14.740614,0 0,6.968647 z m 15.427969,0 0.763479,0 c -0.08947,-0.220964 -0.160096,-0.467708 -0.211991,-0.730207 -0.146006,-0.739201 -0.153796,-1.536437 -0.01638,-2.277529 0.09251,-0.498186 0.25581,-0.939827 0.494093,-1.254001 -0.495926,-0.283696 -0.83989,-0.99769 -1.029199,-1.881088 l 0,6.142825 z m 28.964795,0 1.203559,0 0,-6.968647 -0.310284,0 c -0.01747,0.161383 -0.03901,0.321793 -0.06478,0.480598 -0.168917,1.039912 -0.534819,1.906467 -1.093925,2.226312 0.238283,0.314174 0.401587,0.755815 0.494093,1.254001 0.137414,0.741092 0.129624,1.538328 -0.01638,2.277529 -0.05189,0.262499 -0.122807,0.509243 -0.212278,0.730207 z m 1.890914,0 14.740557,0 0,-6.968647 -14.740557,0 0,6.968647 z m 15.427912,0 2.735214,0 c 0.973696,-2.265097 1.742044,-4.593956 2.276291,-6.968647 l -5.011505,0 0,6.968647 z M 8.7131393,66.498678 c 0.3265509,0.726426 0.6737797,1.444602 1.0403118,2.153727 0.8523199,1.648952 1.8096339,3.255855 2.8584229,4.81492 l 6.236372,0 0,-6.968647 -10.1351067,0 z m 10.8224617,6.968647 14.740499,0 0,-6.634422 -5.10109,0 c -0.288747,0 -0.535736,-0.123286 -0.740453,-0.334225 l -8.898956,0 0,6.968647 z m 15.427854,0 14.7405,0 0,-6.645479 c -0.167142,-0.03437 -0.306217,-0.148608 -0.419459,-0.323168 l -14.321041,0 0,6.968647 z m 15.427855,0 14.740556,0 0,-6.968647 -9.339034,0 c -0.204603,0.210939 -0.451306,0.334225 -0.740053,0.334225 l -4.661469,0 0,6.634422 z m 15.427911,0 6.240955,0 c 1.508343,-2.233874 2.823482,-4.56365 3.907212,-6.968647 l -10.148167,0 0,6.968647 z m -52.738514,0.684834 c 1.711514,2.457531 3.651803,4.79 5.77447,6.968648 l 7.707082,0 0,-6.968648 -13.481552,0 z m 14.168907,6.968648 14.740499,0 0,-6.968648 -14.740499,0 0,6.968648 z m 15.427854,0 14.7405,0 0,-6.968648 -14.7405,0 0,6.968648 z m 15.427855,0 7.6848,0 c 2.134467,-2.182085 4.083806,-4.514783 5.799329,-6.968648 l -13.484129,0 0,6.968648 z m -38.569722,0.686266 c 2.579758,2.561969 5.411546,4.900396 8.414542,6.967272 l 6.325957,0 0,-6.968704 -14.740499,0 0,0.0011 z m 15.427854,6.967272 14.7405,0 0,-6.968704 -14.7405,0 0,6.968704 z m 15.427855,0 6.283455,0 c 0.09468,-0.06514 0.189309,-0.130504 0.283706,-0.196215 2.90545,-2.02305 5.646621,-4.295996 8.149624,-6.772489 l -14.716785,0 0,6.968704 z m -21.425657,0.684834 c 4.111528,2.711895 8.519765,4.916666 13.02446,6.495153 l 0,-6.495153 -13.02446,0 z m 13.711815,6.495325 c 2.148099,-0.754669 4.284685,-1.657947 6.387075,-2.696827 2.234648,-1.104191 4.442146,-2.376009 6.594884,-3.798498 l -12.981959,0 0,6.495325 z m 6.343027,-30.14066 -13.812971,0 c 0.04279,-0.185101 0.07486,-0.38842 0.09715,-0.604515 0.07383,-0.7164 0.06106,-1.451878 -0.01151,-2.167877 -0.05951,-0.586469 -0.176422,-1.115018 -0.346542,-1.481095 0.26887,-0.349808 0.388298,-2.007984 0.388298,-3.636828 l -0.0012,0 c 0,-0.838483 -0.02704,-1.668659 -0.07733,-2.30222 -0.04531,-0.570943 -0.125156,-1.021407 -0.24172,-1.247928 0.574228,-1.038022 0.70746,-3.500823 0.116163,-4.459098 0.23731,-0.477505 0.325348,-1.481783 0.341787,-2.569073 0.02033,-1.347898 -0.0303,-2.830827 -0.05138,-3.412999 l 7.44e-4,0 0,-5.73e-4 -8.02e-4,0 -3.43e-4,-0.0085 c 0.0049,-3.699444 3.02734,-6.685008 6.693062,-6.685008 3.665721,0 6.688135,2.985564 6.693062,6.685008 l -3.44e-4,0.0085 -5.73e-4,0 0,5.73e-4 5.73e-4,0 c -0.02108,0.582172 -0.07171,2.065101 -0.05138,3.412999 0.01644,1.08729 0.104478,2.091568 0.341787,2.569073 -0.591297,0.958275 -0.458065,3.421076 0.116163,4.459098 -0.116564,0.226521 -0.196411,0.676985 -0.24172,1.247928 -0.05029,0.633561 -0.07733,1.463737 -0.07733,2.30222 l -0.0011,0 c 0,1.628844 0.119428,3.28702 0.388299,3.636828 -0.170121,0.366077 -0.287028,0.894626 -0.346542,1.481095 -0.07257,0.715999 -0.08535,1.451477 -0.01151,2.167877 0.02228,0.216095 0.05459,0.419414 0.09737,0.604515 z"
   class="fil1" /><path
   style="fill:#ffffff;fill-rule:nonzero"
   inkscape:connector-curvature="0"
   id="path18"
   d="m 28.768955,61.055697 5.43967,0 c 0.257701,0 0.298713,0.06159 0.350093,-0.236203 0.100124,-0.579938 0.145719,-1.733282 0.145719,-2.895735 l 0.0012,0 c 0,-0.807376 -0.02704,-1.619392 -0.07733,-2.252952 -0.04353,-0.55009 0.06673,-0.874174 -0.624519,-0.874174 l -5.243258,0.0011 c -0.482638,0.0087 -0.803862,0.752264 -0.961152,1.711627 -0.145776,0.888898 -0.138903,1.826893 0.0053,2.715504 0.166111,1.022553 0.497875,1.829413 0.964245,1.829413 l 0,0.0011 z m 5.398715,0.627774 -4.989452,0 5.7e-5,0.0069 c -0.388585,0.0057 -0.648291,0.540465 -0.776139,1.229138 -0.123552,0.666272 -0.114845,1.379235 0.01638,2.043674 0.138101,0.69887 0.398552,1.242143 0.756091,1.242143 l 5.239764,0 c 0.111008,0 0.202369,-0.454475 0.264746,-1.059849 0.06959,-0.675496 0.05688,-1.367262 -0.01151,-2.042299 -0.05086,-0.501853 -0.114158,-0.944468 -0.179113,-1.199749 -0.06272,-0.246801 -0.08701,-0.21999 -0.320823,-0.21999 z m 0.191199,-11.476957 -5.514477,0 c -0.854783,0.476818 -0.822134,2.956749 -0.245328,3.763666 0.11559,0.158118 0.218521,0.198621 0.400441,0.198621 0.0078,-0.0017 0.01558,-0.0034 0.02349,-0.0057 l 0.0016,0.0057 5.238676,0 c 0.688099,-2.29e-4 0.993686,-3.962287 0.0956,-3.962287 z m -0.207581,-5.770101 -6.443208,0 3.43e-4,0.0075 c -0.06908,0.0034 -0.135924,5.73e-4 -0.200936,-0.0075 l -0.682315,0 0,-0.0011 c -0.757579,0 -1.237811,0.620899 -1.453469,1.423233 -0.190111,0.707635 -0.180774,1.491579 0.0074,2.198527 0.226082,0.849311 0.717885,1.519365 1.44608,1.519365 l 7.191795,0 c 0.746697,0 0.702019,-0.244396 0.776654,-0.991388 0.119085,-1.191729 0.0677,-2.379962 -0.01191,-3.628063 -0.02469,-0.38756 -0.285825,-0.520471 -0.630419,-0.520471 z m 0.642677,-0.630181 c 0.0054,-0.32397 0.03208,-0.642726 0.07824,-0.955181 l -7.665383,-2.240233 c -0.921399,0.318584 -0.528347,3.008766 0.347974,3.195414 l 7.239165,0 z m 3.092353,-5.853343 c 0.55607,-0.39369 1.169477,-0.711874 1.825443,-0.939426 L 35.966936,31.371574 C 35.113757,30.676428 33.052838,32.1821 33.63308,33.19944 l 4.253238,4.753449 z m -0.497302,0.38527 -4.006477,-4.47766 -0.0073,0.008 C 33.263225,33.766373 33.173125,33.659013 33.102556,33.547586 L 31.516771,31.77529 c -0.74767,-0.835619 -2.211966,-0.943953 -2.873946,0.05769 l -3.478589,5.264755 c -0.55922,0.846561 -0.01226,2.258451 0.949581,2.539454 l 1.118499,0.326892 c 0.01197,-0.0011 0.02377,-0.0023 0.03591,-0.0034 l 0.001,0.01415 7.722147,2.256847 c 0.359945,-1.514953 1.210833,-2.890522 2.397608,-3.89354 z m 18.069016,22.717538 -5.43967,0 c -0.2577,0 -0.298713,0.06159 -0.350092,-0.236203 -0.100125,-0.579938 -0.14572,-1.733282 -0.14572,-2.895735 l -0.0011,0 c 0,-0.807376 0.02704,-1.619392 0.07733,-2.252952 0.04353,-0.55009 -0.06673,-0.874174 0.624519,-0.874174 l 5.243259,0.0011 c 0.482638,0.0087 0.803861,0.752264 0.961151,1.711627 0.145777,0.888898 0.138903,1.826893 -0.0052,2.715504 -0.166111,1.022553 -0.497874,1.829413 -0.964244,1.829413 l 0,0.0011 z m -5.398715,0.627774 4.989453,0 -5.7e-5,0.0069 c 0.388584,0.0057 0.64829,0.540465 0.776138,1.229138 0.123552,0.666272 0.114845,1.379235 -0.01638,2.043674 -0.138101,0.69887 -0.398551,1.242143 -0.756091,1.242143 l -5.239764,0 c -0.111008,0 -0.202369,-0.454475 -0.264746,-1.059849 -0.06959,-0.675496 -0.05688,-1.367262 0.01151,-2.042299 0.05086,-0.501853 0.114158,-0.944468 0.179113,-1.199749 0.06272,-0.246801 0.08701,-0.21999 0.320823,-0.21999 z m -0.191199,-11.476957 5.514477,0 c 0.854783,0.476818 0.822134,2.956749 0.245329,3.763666 -0.115591,0.158118 -0.218522,0.198621 -0.400442,0.198621 -0.0078,-0.0017 -0.01558,-0.0034 -0.02349,-0.0057 l -0.0017,0.0057 -5.238676,0 c -0.6881,-2.29e-4 -0.993686,-3.962287 -0.0956,-3.962287 z m 0.207581,-5.770101 6.443209,0 -3.44e-4,0.0075 c 0.06908,0.0034 0.135924,5.73e-4 0.200937,-0.0075 l 0.682314,0 0,-0.0011 c 0.75758,0 1.237812,0.620899 1.453469,1.423233 0.190111,0.707635 0.180775,1.491579 -0.0074,2.198527 -0.226082,0.849311 -0.717885,1.519365 -1.44608,1.519365 l -7.191795,0 c -0.746697,0 -0.702019,-0.244396 -0.776654,-0.991388 -0.119084,-1.191729 -0.0677,-2.379962 0.01191,-3.628063 0.02469,-0.38756 0.285825,-0.520471 0.630419,-0.520471 z m -0.642677,-0.630181 c -0.0057,-0.32397 -0.03208,-0.642726 -0.07824,-0.955181 l 7.665383,-2.240233 c 0.9214,0.318584 0.528347,3.008766 -0.347973,3.195414 l -7.239166,0 z M 46.34067,37.952889 c -0.556071,-0.39369 -1.169478,-0.711874 -1.825443,-0.939426 l 3.744824,-5.641889 c 0.853179,-0.695146 2.914099,0.810526 2.333857,1.827866 l -4.253238,4.753449 z m 0.497301,0.38527 4.006478,-4.47766 0.0073,0.008 c 0.111982,-0.102147 0.202083,-0.209507 0.272651,-0.320934 l 1.585785,-1.772296 c 0.747671,-0.835619 2.211966,-0.943953 2.873946,0.05769 l 3.478589,5.264755 c 0.559221,0.846561 0.01226,2.258451 -0.949581,2.539454 l -1.118498,0.326892 c -0.01197,-0.0011 -0.02377,-0.0023 -0.03592,-0.0034 l -0.0011,0.01415 -7.722147,2.256847 c -0.359945,-1.514953 -1.210833,-2.890522 -2.397609,-3.89354 z m -4.724477,-1.72784 c 0.611058,0 1.204188,0.07511 1.771371,0.21598 l 3.804624,-5.732062 -0.02005,-0.01667 c 0.160784,-0.192778 0.272136,-0.358744 0.344308,-0.612191 0.04617,-0.162014 0.06965,-0.328725 0.06971,-0.488906 l -0.0011,0 0,-0.0011 0,-1.427015 c 0,-0.817859 -0.199964,-0.987893 -1.040026,-0.987893 l -9.857472,0 c -0.840063,0 -1.040026,0.170034 -1.040026,0.987893 l 0,1.427015 0,0.0011 -0.0012,0 c 5.7e-5,0.160181 0.02354,0.326892 0.06971,0.488906 0.07217,0.253447 0.183524,0.419413 0.344307,0.612191 l -0.02005,0.01667 3.804625,5.732062 c 0.567182,-0.140874 1.160312,-0.21598 1.771371,-0.21598 z"
   class="fil2" /><path
   id="_49861688"
   class="fil0"
   d="m 9.173438,58.347641 c 0.3860072,-1.491007 2.209216,-1.963814 3.552823,-2.006551 0.782898,-0.02464 1.568487,0.07562 2.326468,0.270462 0.547707,-0.262098 1.157735,-0.385384 1.765013,-0.336116 0.865265,0.06995 1.63012,0.476703 2.194094,1.089697 -0.0015,-0.05001 0.0041,-0.09957 0.01552,-0.148322 0.07796,-0.332334 0.367162,-0.538059 0.627555,-0.762804 0.604414,-0.52179 0.486648,-0.883284 -0.277748,-1.05412 -1.303512,-0.291315 -2.071803,-0.769507 -2.448073,-1.273136 -0.341042,-0.456365 -0.413386,-1.046443 -0.08294,-1.53002 0.224135,-0.327866 0.607851,-0.570256 1.076627,-0.649086 0.61839,-0.103922 0.699784,-0.319673 0.185471,-0.691651 -0.639813,-0.462839 -0.773561,-0.992248 -0.640959,-1.475997 0.06444,-0.235286 0.193434,-0.454875 0.357425,-0.646508 0.160211,-0.18722 0.354847,-0.34952 0.555268,-0.474296 0.47038,-0.292977 0.993973,-0.379884 1.254423,-0.131078 0.411268,0.393118 0.754029,0.328496 0.965848,-0.204063 0.316814,-0.796548 1.099998,-1.085572 1.85752,-1.05263 0.461731,0.01999 0.951929,0.156571 1.325908,0.435912 0.378217,0.282608 0.571364,0.672689 0.406971,1.109003 -0.18633,0.494749 -0.269271,1.044839 0.408919,1.011267 0.999357,-0.04893 1.491331,0.646737 1.19468,1.576367 -0.164163,0.51417 -0.545645,1.0461 -1.024159,1.366632 -0.673436,0.451095 -0.538485,1.043865 0.311716,0.76544 1.601881,-0.524826 1.756306,0.700932 1.344466,1.941929 -0.238168,0.717661 -0.6704,1.169443 -1.257917,1.613891 -0.584423,0.441986 0.06404,0.563611 0.48344,0.50953 1.205678,-0.15554 1.621986,0.1175 1.679437,0.563495 0.04577,0.355308 -0.179399,0.78194 -0.386866,1.174943 -0.265834,0.503514 -0.765427,1.162339 -0.576805,1.720163 0.509043,0.02904 1.270346,0.06147 1.885243,0.07476 0.127447,0.17032 0.270703,0.305294 0.429367,0.39604 -0.238283,0.314173 -0.401587,0.755815 -0.494093,1.254001 -0.01409,0.07614 -0.02681,0.15279 -0.03786,0.229958 -0.516662,-0.109365 -1.12669,-0.217813 -1.528964,-0.310163 -0.424843,0.173013 -0.825055,0.706375 -1.036073,1.062942 -0.249109,0.420846 -0.386065,0.955296 -0.475936,1.556144 -0.06782,0.45373 -0.170865,0.775924 -0.296422,0.995857 -0.225109,0.39455 -0.604529,0.54608 -1.023242,0.352042 -0.197672,-0.09155 -0.389502,-0.248005 -0.558935,-0.418841 -0.177509,-0.178914 -0.373348,-0.283237 -0.451993,0.0153 -0.115132,0.437231 0.06679,0.946645 0.209873,1.356091 0.354503,1.012241 0.638953,1.824658 0.277748,2.55962 -0.240402,0.489249 -0.619708,0.97317 -1.148283,1.164515 -0.585799,0.21197 -0.991453,-0.0389 -1.280314,-0.518409 -0.07687,-0.127583 -0.154368,-0.256082 -0.280899,-0.33411 -0.160898,-0.09922 -0.258445,-0.08937 -0.266923,0.10862 -0.0099,0.229959 0.09188,0.60801 0.3828,1.17563 0.196984,0.38441 0.120688,0.790876 -0.113929,1.121263 -0.252202,0.355364 -0.665016,0.59615 -1.095358,0.654757 -0.477482,0.06497 -0.993915,-0.0896 -1.386166,-0.601879 -0.252202,-0.329356 -0.371286,-0.04314 -0.604127,0.207042 -0.857934,0.921725 -1.600392,0.631842 -2.245303,0.03122 -0.761188,-0.708552 -2.051697,-2.261717 -1.692497,-3.303863 0.188679,-0.547168 0.672921,-0.933984 1.142785,-1.214357 0.706143,-0.421362 0.730315,-0.442616 0.03929,-0.907918 -0.765141,-0.515144 -1.005944,-1.371272 -0.06914,-1.826663 0.511507,-0.248578 1.323961,-0.333022 2.242267,-0.121625 0.384518,0.08851 1.493221,0.143624 0.697436,-0.458485 -0.357081,-0.270061 -0.752654,-0.74831 -0.32466,-1.153974 0.292985,-0.277681 0.786105,-0.364359 1.172226,-0.411164 0.577665,-0.07024 1.248466,-0.05001 1.762264,0.05454 0.383773,0.07814 0.801628,0.07362 1.089056,0.0099 0.409607,-0.09075 0.0197,-0.337662 -0.0252,-0.667304 -0.0492,-0.361151 0.15139,-0.635737 0.497703,-0.730092 0.200478,-0.05465 0.462991,-0.05918 0.782553,-0.0063 0.351812,0.05821 0.693771,0.07362 1.01866,0.02727 0.09795,-0.01398 0.390475,-0.172612 0.48533,-0.198334 -1.400829,-0.244396 -2.9267,-0.424341 -4.337954,-0.578391 -0.137414,0.302257 -0.390303,0.716114 -0.595135,0.97867 -0.896884,1.14962 -2.329102,1.733396 -3.721283,1.373334 l -0.0013,-3.44e-4 c -0.117538,-0.03042 -0.231066,-0.06651 -0.340184,-0.10776 -0.635459,-0.23987 -1.182937,-0.677559 -1.576162,-1.230914 -0.729513,-0.189169 -1.438233,-0.468167 -2.09059,-0.846963 C 9.7781959,60.939572 8.8549636,59.577753 9.173438,58.347641 z m 10.31674,-0.331647 c 0.137929,0.237922 0.2514,0.492973 0.336575,0.761143 0.15265,0.480828 0.21835,1.001758 0.183008,1.535807 0.931252,0.147806 1.867429,0.287362 2.806757,0.407669 -0.156201,-0.132051 -0.2813,-0.266509 -0.373749,-0.408013 -0.193949,-0.296758 -0.245959,-0.611962 -0.140564,-0.976378 0.06616,-0.228928 0.128191,-0.297732 -0.132774,-0.399477 -0.408175,-0.159608 -0.865667,-0.22423 -1.287359,-0.347401 -0.654706,-0.191232 -1.100398,-0.383608 -1.391894,-0.57335 z"
   inkscape:connector-curvature="0"
   style="fill:#000000;fill-rule:nonzero" /><path
   id="_158949056"
   class="fil3"
   d="m 17.120636,56.724067 c -0.368307,-0.07373 -0.738162,-0.07373 -1.095815,-0.0092 l 0.876435,1.023814 1.292399,-0.562465 c -0.322828,-0.220162 -0.689704,-0.375874 -1.073019,-0.452183 z m -1.530911,0.102662 c -0.110149,0.03707 -0.218407,0.08032 -0.323859,0.12913 0.02537,0.475041 0.0093,0.979243 -0.05132,1.500688 l 0.01008,0.0118 1.289879,-0.561319 -0.924779,-1.080301 z m -0.451592,2.160774 c -0.02314,0.13503 -0.0492,0.270634 -0.07796,0.406065 -0.0854,0.402284 -0.194349,0.799069 -0.326379,1.189551 l 0.0034,0.004 1.289879,-0.561318 -0.888979,-1.038308 z m -0.600004,2.125139 c -0.196182,0.487989 -0.431602,0.960911 -0.710954,1.406734 0.06965,0.09539 0.144287,0.186534 0.223505,0.273098 l 1.488868,-0.648112 -0.915385,-1.069187 -0.08603,0.03747 z m -0.170292,1.980886 c 0.350895,0.288508 0.767661,0.495322 1.210948,0.59489 0.431487,0.09774 0.866582,0.09315 1.283177,0.0011 l -1.048675,-1.225013 -1.44545,0.629091 z m 2.917421,0.469942 c 0.419344,-0.157659 0.810277,-0.405549 1.147825,-0.72717 l -0.942993,-1.101498 -1.289879,0.561147 1.085047,1.267521 z m 1.42546,-1.022897 c 0.195667,-0.232708 0.36235,-0.489821 0.496843,-0.762518 0.0771,-0.156342 0.144516,-0.319902 0.201509,-0.48965 l -0.242522,-0.283294 -1.289707,0.561376 0.833877,0.974086 z m 0.890067,-2.163408 c 0.04405,-0.48902 -0.0056,-0.966811 -0.135867,-1.408281 l -1.100513,0.47888 0.915156,1.069186 0.321224,-0.139785 z M 19.329108,58.589 c -0.182836,-0.432476 -0.447755,-0.817802 -0.78032,-1.128309 l -1.373793,0.597926 0.915614,1.069359 1.238499,-0.538976 z m -2.112929,2.8259 -0.915271,-1.069244 -1.289879,0.561376 0.915271,1.069129 1.289879,-0.561261 z m -1.7177,-2.626649 0.915442,1.069302 1.289936,-0.561262 -0.915729,-1.069416 -1.289649,0.561376 z m 1.188837,1.388975 0.915672,1.069358 1.289764,-0.561261 -0.91527,-1.069129 -1.290166,0.561032 z M 9.5633974,58.448584 c -0.2700159,1.043006 0.5733686,2.232729 2.0219116,3.073905 0.593531,0.344651 1.238958,0.603254 1.900881,0.782512 0.49289,-0.788356 0.846019,-1.666025 1.078402,-2.564376 0.232212,-0.897663 0.347573,-1.83497 0.298198,-2.761621 -0.767833,-0.190601 -1.596611,-0.285357 -2.403337,-0.22337 -1.084761,0.08335 -2.5857148,0.494233 -2.8960556,1.69295 z m 18.6391766,3.055859 c -2.682059,-0.09006 -5.59358,-0.439752 -8.223916,-0.796319 -0.03649,0.245656 -0.07057,0.39329 -0.153795,0.6213 2.58623,0.358286 5.456854,0.694574 8.004134,1.263053 0.09674,-0.410476 0.245729,-0.772028 0.449416,-1.040542 -0.02566,-0.01467 -0.05098,-0.03054 -0.07584,-0.04749 z M 26.135068,62.62834 C 25.87582,62.572312 25.616,62.518288 25.355779,62.466384 c -0.314465,0.260494 -0.867786,0.719666 -1.218279,0.992763 -0.05241,0.495264 -0.05144,0.999695 -0.01799,1.49874 l -0.37289,0.38252 c -0.04903,-0.512967 -0.06616,-1.031433 -0.03992,-1.546061 -0.800539,0.623534 -1.671246,1.312035 -2.535882,2.121931 -0.05688,1.024558 -0.06759,2.072147 0.204889,3.066915 l -0.266808,0.498186 c -0.357711,-1.014704 -0.402733,-2.093516 -0.361262,-3.158005 -0.715938,0.707979 -1.419102,1.506303 -2.065445,2.427569 0.117423,0.971967 0.218121,1.953902 0.261424,2.934348 l -0.389329,0.37215 c -0.02761,-0.93175 -0.117538,-1.865218 -0.219209,-2.790667 -0.372546,0.577016 -0.722238,1.199863 -1.039338,1.875531 l -0.212851,-0.485296 c 0.496156,-1.001929 1.060474,-1.886187 1.66191,-2.67586 -0.645255,-0.163847 -1.327684,-0.330157 -1.996423,-0.324141 l 0.39122,-0.389223 c 0.633798,0.04715 1.267597,0.20922 1.87625,0.367109 0.477139,-0.59426 0.974211,-1.133522 1.476782,-1.6285 -0.480461,-0.04566 -0.943738,-0.198335 -1.388629,-0.379426 l 0.448098,-0.259749 c 0.433435,0.156858 0.88812,0.269946 1.350538,0.245885 0.949925,-0.888611 1.905348,-1.631708 2.769411,-2.303652 0.332794,-0.258775 0.87128,-0.703854 1.16816,-0.943151 l -0.04726,-0.0089 c -0.302608,0.175992 -0.842239,0.476932 -1.175606,0.524367 -0.367449,0.05236 -0.74979,0.03569 -1.140208,-0.02887 -0.262455,-0.04343 -0.467344,-0.04268 -0.612089,-0.0034 -0.152307,0.04148 -0.225796,0.127583 -0.203973,0.287935 0.03294,0.24176 0.253634,0.419528 0.263257,0.64731 0.006,0.137608 -0.06604,0.248921 -0.196984,0.332907 l 2.29e-4,3.43e-4 c -0.08861,0.05677 -0.210617,0.101918 -0.353931,0.133713 -0.335715,0.07448 -0.818238,0.08084 -1.256427,-0.0084 -0.473989,-0.09647 -1.090203,-0.115896 -1.618836,-0.05248 -0.490771,0.05884 -1.466644,0.241646 -0.667364,0.846275 1.164265,0.881221 -0.08638,1.391151 -1.030574,1.173797 -0.824483,-0.189799 -1.53853,-0.121453 -1.976948,0.09161 -0.647202,0.314517 -0.382628,0.791506 0.118053,1.128653 0.948436,0.638487 0.90496,1.01459 -0.05671,1.588512 -0.404164,0.241187 -0.817837,0.565673 -0.967509,0.999638 -0.293042,0.850227 0.978393,2.312704 1.585155,2.877517 0.484585,0.451324 1.040312,0.6716 1.675371,-0.01071 0.18444,-0.198106 0.439964,-0.530955 0.749159,-0.514112 0.157806,0.0086 0.301176,0.115724 0.470724,0.337089 0.290178,0.378967 0.666448,0.494118 1.011901,0.447084 0.319162,-0.04337 0.633455,-0.225204 0.820645,-0.488963 0.151619,-0.213516 0.204144,-0.469885 0.08403,-0.704312 -0.326379,-0.636883 -0.439621,-1.084884 -0.42702,-1.376256 0.022,-0.509701 0.462132,-0.692225 0.881075,-0.433908 0.21119,0.130218 0.313491,0.299909 0.415048,0.468396 0.190512,0.31635 0.398895,0.491941 0.797217,0.347802 0.423984,-0.153363 0.731976,-0.571459 0.924092,-0.9624 0.286856,-0.583719 0.02709,-1.32567 -0.296651,-2.25003 -0.170464,-0.487816 -0.356279,-1.07165 -0.219381,-1.591434 0.161242,-0.611561 0.729283,-0.598384 1.127663,-0.196902 0.139762,0.140931 0.293214,0.267826 0.442198,0.336802 0.227687,0.105412 0.382685,0.02779 0.503832,-0.184643 0.101671,-0.178111 0.187304,-0.453615 0.24739,-0.855383 0.09692,-0.647883 0.248021,-1.22994 0.52806,-1.703034 0.173271,-0.292747 0.613121,-0.738743 0.897228,-0.933755 z m -2.452139,-1.802716 c 0.327811,0.03741 0.655794,0.07184 0.984063,0.103178 -1.55136,-1.590232 -2.925612,-3.348663 -3.372392,-5.514478 -0.587403,-0.358516 -1.352543,-0.912501 -1.850761,-1.41401 l -0.02915,-0.6323 5.72e-4,5.73e-4 0.0016,5.73e-4 c 0.490886,0.599301 1.148628,1.085686 1.786837,1.508537 -0.07733,-0.578105 -0.08672,-1.140455 -0.04983,-1.692206 -0.432862,-0.545392 -0.815547,-1.124872 -1.164723,-1.725892 l 0.161413,-0.531872 c 0.319907,0.577302 0.666391,1.138678 1.059615,1.669061 0.08071,-0.655216 0.216575,-1.297369 0.370027,-1.935684 l 0.441568,-0.22423 c -0.5264,2.101135 -0.749217,4.24856 0.09886,6.288454 0.278952,-0.674751 0.7837,-1.472961 1.354433,-1.949033 l 7.45e-4,-5.73e-4 9.74e-4,-5.73e-4 0.08712,0.462953 c -0.52617,0.510446 -0.998039,1.337014 -1.205162,2.009645 0.359773,0.724364 0.857131,1.479377 1.528677,2.272946 0.218006,-0.633733 0.702763,-0.863977 1.26101,-0.899268 l 0.257185,0.369171 c -0.486761,0.03254 -1.124455,0.166311 -1.158479,0.940229 0.311658,0.34362 0.655737,0.694287 1.035615,1.052974 0.220068,0.01822 0.440422,0.03495 0.660605,0.04984 -0.127676,-0.656705 0.339382,-1.304359 0.644166,-1.881661 0.179228,-0.339438 0.373692,-0.707979 0.344251,-0.936505 -0.0275,-0.213288 -0.32764,-0.330788 -1.229449,-0.214491 -0.869676,0.112115 -1.704068,-0.529867 -0.777055,-1.231143 0.519812,-0.393232 0.907938,-0.782282 1.118956,-1.418192 0.3112,-0.937307 0.406055,-1.839037 -0.837656,-1.431826 -1.275903,0.417809 -1.732937,-0.765784 -0.660663,-1.48396 0.40405,-0.270691 0.726191,-0.719609 0.864693,-1.153402 0.212335,-0.665527 -0.07303,-1.087404 -0.79212,-1.052172 -0.996034,0.04898 -1.095357,-0.785491 -0.805179,-1.555972 0.08999,-0.238781 -0.03574,-0.467307 -0.271219,-0.643242 -0.308736,-0.230703 -0.721207,-0.340526 -1.101715,-0.356968 -0.604643,-0.02624 -1.224981,0.192548 -1.465956,0.798381 -0.316928,0.797235 -0.999701,0.938453 -1.617919,0.347859 -0.11771,-0.112458 -0.441168,-0.01913 -0.763423,0.181607 -0.167772,0.104495 -0.329816,0.239239 -0.462017,0.393748 -0.128363,0.149983 -0.227973,0.317095 -0.2754,0.490108 -0.09027,0.329355 0.01489,0.70013 0.489397,1.043349 0.80936,0.585495 0.602008,1.255377 -0.355936,1.416474 -0.357481,0.0601 -0.645884,0.238781 -0.809818,0.478593 -0.233758,0.342073 -0.16508,0.741779 0.07343,1.060937 0.325119,0.435168 1.015395,0.854295 2.211278,1.121549 1.179559,0.263759 1.222977,1.07503 0.420318,1.769603 -0.206149,0.178341 -0.426504,0.373181 -0.463793,0.532101 -0.05441,0.232021 0.242923,0.518925 1.501069,0.877326 0.446093,0.127124 0.918707,0.201199 1.35386,0.360406 0.494323,0.180804 0.549712,0.419356 0.414991,0.900241 -0.06874,0.244853 -0.03534,0.453271 0.09016,0.645247 0.161127,0.246572 0.468489,0.481056 0.902325,0.73416 z"
   inkscape:connector-curvature="0"
   style="fill:#f6e726;fill-rule:nonzero" /><path
   id="_159097792"
   class="fil0"
   d="m 75.053435,58.347641 c -0.386007,-1.491007 -2.209216,-1.963814 -3.552824,-2.006551 -0.782897,-0.02464 -1.568486,0.07562 -2.326467,0.270462 -0.547707,-0.262098 -1.157735,-0.385384 -1.765013,-0.336116 -0.865266,0.06995 -1.63012,0.476703 -2.194095,1.089697 0.0017,-0.05001 -0.004,-0.09957 -0.01552,-0.148322 -0.07796,-0.332334 -0.367162,-0.538059 -0.627555,-0.762804 -0.604415,-0.52179 -0.486648,-0.883284 0.277748,-1.05412 1.303512,-0.291315 2.071803,-0.769507 2.448072,-1.273136 0.341043,-0.456365 0.413387,-1.046443 0.08294,-1.53002 -0.224135,-0.327866 -0.607851,-0.570256 -1.076627,-0.649086 -0.61839,-0.103922 -0.699785,-0.319673 -0.185471,-0.691651 0.639813,-0.462839 0.773561,-0.992248 0.640958,-1.475997 -0.06444,-0.235286 -0.193433,-0.454875 -0.357424,-0.646508 -0.160211,-0.18722 -0.354847,-0.34952 -0.555268,-0.474296 -0.47038,-0.292977 -0.993973,-0.379884 -1.254423,-0.131078 -0.411268,0.393118 -0.754029,0.328496 -0.965849,-0.204063 -0.316813,-0.796548 -1.099997,-1.085572 -1.857519,-1.05263 -0.461731,0.01999 -0.95193,0.156571 -1.325908,0.435912 -0.378217,0.282608 -0.571364,0.672689 -0.406971,1.109003 0.18633,0.494749 0.269271,1.044839 -0.408919,1.011267 -0.999357,-0.04893 -1.491332,0.646737 -1.194681,1.576367 0.164164,0.51417 0.545646,1.0461 1.024159,1.366632 0.673436,0.451095 0.538486,1.043865 -0.311715,0.76544 -1.601881,-0.524826 -1.756307,0.700932 -1.344466,1.941929 0.238168,0.717661 0.6704,1.169443 1.257916,1.613891 0.584424,0.441986 -0.06404,0.563611 -0.483439,0.50953 -1.205678,-0.15554 -1.621986,0.1175 -1.679438,0.563495 -0.04577,0.355308 0.1794,0.78194 0.386867,1.174943 0.265834,0.503514 0.765427,1.162339 0.576805,1.720163 -0.509044,0.02904 -1.270346,0.06147 -1.885243,0.07476 -0.127447,0.17032 -0.270703,0.305294 -0.429368,0.39604 0.238284,0.314173 0.401588,0.755815 0.494094,1.254001 0.01409,0.07614 0.02681,0.15279 0.03786,0.229958 0.516662,-0.109365 1.126689,-0.217813 1.528964,-0.310163 0.424842,0.173013 0.825055,0.706375 1.036073,1.062942 0.249109,0.420846 0.386064,0.955296 0.475936,1.556144 0.06782,0.45373 0.170865,0.775924 0.296422,0.995857 0.225109,0.39455 0.604528,0.54608 1.023242,0.352042 0.197672,-0.09155 0.389501,-0.248005 0.558934,-0.418841 0.17751,-0.178914 0.373349,-0.283237 0.451994,0.0153 0.115132,0.437231 -0.06679,0.946645 -0.209873,1.356091 -0.354503,1.012241 -0.638954,1.824658 -0.277749,2.55962 0.240403,0.489249 0.619708,0.97317 1.148284,1.164515 0.585799,0.21197 0.991453,-0.0389 1.280313,-0.518409 0.07687,-0.127583 0.154369,-0.256082 0.2809,-0.33411 0.160898,-0.09922 0.258445,-0.08937 0.266922,0.10862 0.0099,0.229959 -0.09188,0.60801 -0.382799,1.17563 -0.196985,0.38441 -0.120688,0.790876 0.113929,1.121263 0.252202,0.355364 0.665016,0.59615 1.095357,0.654757 0.477483,0.06497 0.993916,-0.0896 1.386166,-0.601879 0.252202,-0.329356 0.371287,-0.04314 0.604128,0.207042 0.857934,0.921725 1.600392,0.631842 2.245302,0.03122 0.761189,-0.708552 2.051698,-2.261717 1.692498,-3.303863 -0.188679,-0.547168 -0.672921,-0.933984 -1.142785,-1.214357 -0.706143,-0.421362 -0.730315,-0.442616 -0.03929,-0.907918 0.76514,-0.515144 1.005944,-1.371272 0.06914,-1.826663 -0.511506,-0.248578 -1.32396,-0.333022 -2.242266,-0.121625 -0.384518,0.08851 -1.493222,0.143624 -0.697436,-0.458485 0.35708,-0.270061 0.752653,-0.74831 0.32466,-1.153974 -0.292985,-0.277681 -0.786105,-0.364359 -1.172226,-0.411164 -0.577665,-0.07024 -1.248466,-0.05001 -1.762264,0.05454 -0.383773,0.07814 -0.801628,0.07362 -1.089057,0.0099 -0.409606,-0.09075 -0.0197,-0.337662 0.0252,-0.667304 0.0492,-0.361151 -0.15139,-0.635737 -0.497702,-0.730092 -0.200479,-0.05465 -0.462991,-0.05918 -0.782554,-0.0063 -0.351811,0.05821 -0.69377,0.07362 -1.01866,0.02727 -0.09795,-0.01398 -0.390475,-0.172612 -0.48533,-0.198334 1.40083,-0.244396 2.926701,-0.424341 4.337955,-0.578391 0.137414,0.302257 0.390303,0.716114 0.595135,0.97867 0.896884,1.14962 2.329102,1.733396 3.721282,1.373334 l 0.0011,-3.44e-4 c 0.117538,-0.03042 0.231066,-0.06651 0.340183,-0.10776 0.63546,-0.23987 1.182938,-0.677559 1.576163,-1.230914 0.729512,-0.189169 1.438233,-0.468167 2.09059,-0.846963 1.605031,-0.932036 2.528263,-2.293855 2.209789,-3.523967 z m -10.31674,-0.331647 c -0.13793,0.237922 -0.2514,0.492973 -0.336575,0.761143 -0.15265,0.480828 -0.21835,1.001758 -0.183008,1.535807 -0.931252,0.147806 -1.867429,0.287362 -2.806757,0.407669 0.156201,-0.132051 0.2813,-0.266509 0.373749,-0.408013 0.193949,-0.296758 0.245959,-0.611962 0.140564,-0.976378 -0.06616,-0.228928 -0.128192,-0.297732 0.132774,-0.399477 0.408175,-0.159608 0.865667,-0.22423 1.287359,-0.347401 0.654705,-0.191232 1.100398,-0.383608 1.391894,-0.57335 z"
   inkscape:connector-curvature="0"
   style="fill:#000000;fill-rule:nonzero" /><path
   id="_49100424"
   class="fil3"
   d="m 67.106466,56.724067 c 0.368307,-0.07373 0.738161,-0.07373 1.095815,-0.0092 l -0.876435,1.023814 -1.292399,-0.562465 c 0.322828,-0.220162 0.689704,-0.375874 1.073019,-0.452183 z m 1.530911,0.102662 c 0.110149,0.03707 0.218407,0.08032 0.323859,0.12913 -0.02537,0.475041 -0.0093,0.979243 0.05132,1.500688 l -0.01008,0.0118 -1.289879,-0.561319 0.924779,-1.080301 z m 0.451592,2.160774 c 0.02314,0.13503 0.0492,0.270634 0.07796,0.406065 0.0854,0.402284 0.194349,0.799069 0.326379,1.189551 l -0.0034,0.004 -1.289879,-0.561318 0.888979,-1.038308 z m 0.600004,2.125139 c 0.196182,0.487989 0.431601,0.960911 0.710954,1.406734 -0.06965,0.09539 -0.144287,0.186534 -0.223505,0.273098 l -1.488868,-0.648112 0.915385,-1.069187 0.08603,0.03747 z m 0.170292,1.980886 c -0.350895,0.288508 -0.767661,0.495322 -1.210948,0.59489 -0.431487,0.09774 -0.866582,0.09315 -1.283177,0.0011 l 1.048675,-1.225013 1.44545,0.629091 z M 66.941844,63.56347 C 66.5225,63.405811 66.131567,63.157921 65.794018,62.8363 l 0.942994,-1.101498 1.289879,0.561147 -1.085047,1.267521 z m -1.42546,-1.022897 c -0.195667,-0.232708 -0.36235,-0.489821 -0.496843,-0.762518 -0.0771,-0.156342 -0.144516,-0.319902 -0.201509,-0.48965 l 0.242521,-0.283294 1.289707,0.561376 -0.833876,0.974086 z m -0.890067,-2.163408 c -0.04405,-0.48902 0.0057,-0.966811 0.135867,-1.408281 l 1.100513,0.47888 -0.915156,1.069186 -0.321224,-0.139785 z M 64.897994,58.589 c 0.182836,-0.432476 0.447754,-0.817802 0.78032,-1.128309 l 1.373793,0.597926 -0.915614,1.069359 L 64.897994,58.589 z m 2.112929,2.8259 0.915271,-1.069244 1.289879,0.561376 -0.915271,1.069129 -1.289879,-0.561261 z m 1.7177,-2.626649 -0.915442,1.069302 -1.289936,-0.561262 0.915728,-1.069416 1.28965,0.561376 z m -1.188837,1.388975 -0.915672,1.069358 -1.289764,-0.561261 0.91527,-1.069129 1.290166,0.561032 z m 7.123918,-1.728642 c 0.270016,1.043006 -0.573368,2.232729 -2.021912,3.073905 -0.593531,0.344651 -1.238957,0.603254 -1.90088,0.782512 -0.492891,-0.788356 -0.846019,-1.666025 -1.078402,-2.564376 -0.232212,-0.897663 -0.347573,-1.83497 -0.298198,-2.761621 0.767833,-0.190601 1.596611,-0.285357 2.403337,-0.22337 1.084761,0.08335 2.585715,0.494233 2.896055,1.69295 z m -18.639176,3.055859 c 2.682059,-0.09006 5.59358,-0.439752 8.223915,-0.796319 0.03649,0.245656 0.07057,0.39329 0.153796,0.6213 -2.58623,0.358286 -5.456854,0.694574 -8.004134,1.263053 -0.09674,-0.410476 -0.245729,-0.772028 -0.449416,-1.040542 0.02566,-0.01467 0.05098,-0.03054 0.07584,-0.04749 z m 2.067506,1.123897 c 0.259247,-0.05603 0.519068,-0.110052 0.779289,-0.161956 0.314465,0.260494 0.867785,0.719666 1.218279,0.992763 0.05241,0.495264 0.05144,0.999695 0.01799,1.49874 l 0.37289,0.38252 c 0.04903,-0.512967 0.06616,-1.031433 0.03992,-1.546061 0.800539,0.623534 1.671246,1.312035 2.535882,2.121931 0.05688,1.024558 0.06759,2.072147 -0.20489,3.066915 l 0.266809,0.498186 c 0.357711,-1.014704 0.402733,-2.093516 0.361262,-3.158005 0.715938,0.707979 1.419102,1.506303 2.065445,2.427569 -0.117424,0.971967 -0.218121,1.953902 -0.261424,2.934348 l 0.389329,0.37215 c 0.02761,-0.93175 0.117538,-1.865218 0.219209,-2.790667 0.372546,0.577016 0.722238,1.199863 1.039338,1.875531 l 0.212851,-0.485296 c -0.496156,-1.001929 -1.060474,-1.886187 -1.66191,-2.67586 0.645254,-0.163847 1.327683,-0.330157 1.996423,-0.324141 l -0.39122,-0.389223 c -0.633799,0.04715 -1.267597,0.20922 -1.87625,0.367109 -0.477139,-0.59426 -0.974211,-1.133522 -1.476782,-1.6285 0.480461,-0.04566 0.943738,-0.198335 1.388629,-0.379426 l -0.448098,-0.259749 c -0.433435,0.156858 -0.88812,0.269946 -1.350538,0.245885 -0.949925,-0.888611 -1.905348,-1.631708 -2.769411,-2.303652 -0.332794,-0.258775 -0.87128,-0.703854 -1.16816,-0.943151 l 0.04726,-0.0089 c 0.302608,0.175992 0.842239,0.476932 1.175606,0.524367 0.367449,0.05236 0.74979,0.03569 1.140207,-0.02887 0.262455,-0.04343 0.467345,-0.04268 0.61209,-0.0034 0.152306,0.04148 0.225796,0.127583 0.203973,0.287935 -0.03294,0.24176 -0.253634,0.419528 -0.263257,0.64731 -0.006,0.137608 0.06604,0.248921 0.196984,0.332907 l -2.29e-4,3.43e-4 c 0.08861,0.05677 0.210617,0.101918 0.353931,0.133713 0.335715,0.07448 0.818238,0.08084 1.256427,-0.0084 0.473989,-0.09647 1.090202,-0.115896 1.618836,-0.05248 0.490771,0.05884 1.466643,0.241646 0.667364,0.846275 -1.164265,0.881221 0.08638,1.391151 1.030574,1.173797 0.824483,-0.189799 1.53853,-0.121453 1.976948,0.09161 0.647202,0.314517 0.382627,0.791506 -0.118053,1.128653 -0.948436,0.638487 -0.90496,1.01459 0.05671,1.588512 0.404165,0.241187 0.817838,0.565673 0.96751,0.999638 0.293042,0.850227 -0.978393,2.312704 -1.585155,2.877517 -0.484586,0.451324 -1.040312,0.6716 -1.675371,-0.01071 -0.18444,-0.198106 -0.439964,-0.530955 -0.749159,-0.514112 -0.157806,0.0086 -0.301176,0.115724 -0.470724,0.337089 -0.290178,0.378967 -0.666448,0.494118 -1.011901,0.447084 -0.319162,-0.04337 -0.633455,-0.225204 -0.820645,-0.488963 -0.151619,-0.213516 -0.204144,-0.469885 -0.08403,-0.704312 0.326379,-0.636883 0.439621,-1.084884 0.427019,-1.376256 -0.022,-0.509701 -0.462131,-0.692225 -0.881074,-0.433908 -0.21119,0.130218 -0.313491,0.299909 -0.415048,0.468396 -0.190512,0.31635 -0.398895,0.491941 -0.797217,0.347802 -0.423984,-0.153363 -0.731976,-0.571459 -0.924092,-0.9624 -0.286856,-0.583719 -0.02709,-1.32567 0.296651,-2.25003 0.170464,-0.487816 0.356279,-1.07165 0.219381,-1.591434 -0.161242,-0.611561 -0.729284,-0.598384 -1.127663,-0.196902 -0.139762,0.140931 -0.293214,0.267826 -0.442198,0.336802 -0.227687,0.105412 -0.382685,0.02779 -0.503832,-0.184643 -0.101671,-0.178111 -0.187304,-0.453615 -0.24739,-0.855383 -0.09692,-0.647883 -0.248021,-1.22994 -0.528061,-1.703034 -0.17327,-0.292747 -0.61312,-0.738743 -0.897227,-0.933755 z m 2.452139,-1.802716 c -0.327811,0.03741 -0.655794,0.07184 -0.984063,0.103178 1.55136,-1.590232 2.925612,-3.348663 3.372392,-5.514478 0.587402,-0.358516 1.352543,-0.912501 1.850761,-1.41401 l 0.02915,-0.6323 -5.73e-4,5.73e-4 -0.0017,5.73e-4 c -0.490886,0.599301 -1.148627,1.085686 -1.786836,1.508537 0.07733,-0.578105 0.08672,-1.140455 0.04983,-1.692206 0.432862,-0.545392 0.815546,-1.124872 1.164723,-1.725892 l -0.161414,-0.531872 c -0.319907,0.577302 -0.666391,1.138678 -1.059615,1.669061 -0.08071,-0.655216 -0.216574,-1.297369 -0.370026,-1.935684 l -0.441568,-0.22423 c 0.526399,2.101135 0.749216,4.24856 -0.09887,6.288454 -0.278952,-0.674751 -0.783699,-1.472961 -1.354433,-1.949033 l -5.73e-4,-5.73e-4 -0.0011,-5.73e-4 -0.08712,0.462953 c 0.526171,0.510446 0.99804,1.337014 1.205163,2.009645 -0.359773,0.724364 -0.857132,1.479377 -1.528678,2.272946 -0.218006,-0.633733 -0.702763,-0.863977 -1.26101,-0.899268 l -0.257185,0.369171 c 0.486762,0.03254 1.124455,0.166311 1.158479,0.940229 -0.311658,0.34362 -0.655736,0.694287 -1.035614,1.052974 -0.220069,0.01822 -0.440423,0.03495 -0.660606,0.04984 0.127676,-0.656705 -0.339381,-1.304359 -0.644166,-1.881661 -0.179228,-0.339438 -0.373692,-0.707979 -0.34425,-0.936505 0.02749,-0.213288 0.327639,-0.330788 1.229449,-0.214491 0.869676,0.112115 1.704067,-0.529867 0.777055,-1.231143 -0.519813,-0.393232 -0.907939,-0.782282 -1.118957,-1.418192 -0.3112,-0.937307 -0.406055,-1.839037 0.837656,-1.431826 1.275903,0.417809 1.732937,-0.765784 0.660663,-1.48396 -0.40405,-0.270691 -0.72619,-0.719609 -0.864692,-1.153402 -0.212336,-0.665527 0.07303,-1.087404 0.792119,-1.052172 0.996035,0.04898 1.095357,-0.785491 0.805179,-1.555972 -0.08999,-0.238781 0.03574,-0.467307 0.271219,-0.643242 0.308737,-0.230703 0.721207,-0.340526 1.101715,-0.356968 0.604644,-0.02624 1.224981,0.192548 1.465957,0.798381 0.316928,0.797235 0.9997,0.938453 1.617919,0.347859 0.117709,-0.112458 0.441167,-0.01913 0.763422,0.181607 0.167772,0.104495 0.329816,0.239239 0.462017,0.393748 0.128364,0.149983 0.227973,0.317095 0.2754,0.490108 0.09027,0.329355 -0.01489,0.70013 -0.489396,1.043349 -0.809361,0.585495 -0.602009,1.255377 0.355935,1.416474 0.357482,0.0601 0.645885,0.238781 0.809819,0.478593 0.233758,0.342073 0.165079,0.741779 -0.07343,1.060937 -0.325119,0.435168 -1.015395,0.854295 -2.211278,1.121549 -1.179558,0.263759 -1.222976,1.07503 -0.420318,1.769603 0.20615,0.178341 0.426504,0.373181 0.463793,0.532101 0.05442,0.232021 -0.242923,0.518925 -1.501069,0.877326 -0.446093,0.127124 -0.918707,0.201199 -1.35386,0.360406 -0.494323,0.180804 -0.549712,0.419356 -0.41499,0.900241 0.06874,0.244853 0.03534,0.453271 -0.09016,0.645247 -0.161128,0.246572 -0.46849,0.481056 -0.902326,0.73416 z"
   inkscape:connector-curvature="0"
   style="fill:#f6e726;fill-rule:nonzero" /><path
   id="_158878704"
   class="fil0"
   d="m 41.839296,7.7786579 c -1.534233,0.1321087 -2.304243,1.8513549 -2.570306,3.1692341 -0.15477,0.76796 -0.186904,1.559409 -0.121147,2.3394 -0.349692,0.496468 -0.57291,1.077494 -0.62555,1.684587 -0.07526,0.864951 0.198245,1.687049 0.708606,2.345416 -0.04909,-0.0099 -0.09887,-0.0126 -0.148813,-0.0095 -0.340641,0.02148 -0.59164,0.27241 -0.856616,0.49177 -0.615125,0.509071 -0.951872,0.332678 -0.992884,-0.449605 -0.06994,-1.334034 -0.41333,-2.171429 -0.847108,-2.626419 -0.393052,-0.412425 -0.962755,-0.582115 -1.494539,-0.336803 -0.360575,0.166367 -0.663526,0.504373 -0.819384,0.95352 -0.205519,0.592541 -0.431774,0.636826 -0.71273,0.06766 -0.349692,-0.70815 -0.849284,-0.928255 -1.348304,-0.878127 -0.242694,0.02435 -0.48069,0.114922 -0.696921,0.244739 -0.211304,0.126781 -0.403706,0.291659 -0.560137,0.46851 -0.367219,0.41506 -0.540261,0.916912 -0.338293,1.215274 0.31899,0.471088 0.198187,0.798324 -0.362179,0.918459 -0.838057,0.179659 -1.253621,0.90385 -1.34733,1.6564 -0.05722,0.458657 -0.0043,0.964863 0.208784,1.380152 0.215543,0.420158 0.567927,0.675668 1.025476,0.586297 0.518782,-0.101345 1.074909,-0.09143 0.928789,0.571802 -0.214799,0.977353 0.388985,1.578487 1.354948,1.440879 0.534247,-0.07619 1.122222,-0.363729 1.517967,-0.782226 0.556986,-0.588932 1.118842,-0.357025 0.702648,0.434997 -0.784386,1.492266 0.398208,1.848834 1.690378,1.649582 0.747212,-0.115265 1.264619,-0.466219 1.800698,-0.971566 0.533158,-0.502654 0.544958,0.157087 0.42175,0.561663 -0.354275,1.163083 -0.154483,1.619162 0.275686,1.750182 0.342589,0.104323 0.800712,-0.04663 1.22269,-0.185731 0.54072,-0.178227 1.273497,-0.56109 1.791992,-0.282092 -0.05625,0.506837 -0.151161,1.262996 -0.240517,1.871635 0.06536,0.06863 0.123438,0.139156 0.173156,0.211454 l 1.694101,0 c -0.01925,-0.516747 -0.02486,-1.166692 -0.04771,-1.558779 0.241376,-0.390139 0.833876,-0.695948 1.220571,-0.844613 0.456404,-0.175534 1.006116,-0.221423 1.613451,-0.209965 0.458638,0.0087 0.793437,-0.03919 1.031204,-0.12638 0.426447,-0.156227 0.639069,-0.505118 0.517579,-0.950426 -0.05728,-0.210194 -0.179572,-0.425429 -0.319735,-0.621014 -0.146807,-0.204866 -0.217032,-0.415403 0.09039,-0.443189 0.450275,-0.04068 0.922144,0.223657 1.301908,0.432992 0.93887,0.518351 1.692382,0.93427 2.477113,0.700531 0.522389,-0.15554 1.062708,-0.448918 1.339425,-0.938281 0.306618,-0.542414 0.126932,-0.984227 -0.297682,-1.349044 -0.112955,-0.09705 -0.226712,-0.194898 -0.28256,-0.332678 -0.07097,-0.175247 -0.04502,-0.269774 0.151562,-0.24514 0.228374,0.02853 0.584137,0.191918 1.095243,0.573464 0.346083,0.258316 0.759527,0.250812 1.124341,0.07453 0.392365,-0.189512 0.698582,-0.556506 0.828091,-0.971108 0.1436,-0.460031 0.07733,-0.995112 -0.362351,-1.467346 -0.282675,-0.303575 0.01936,-0.373296 0.304728,-0.561261 1.051767,-0.692454 0.889723,-1.47296 0.405081,-2.209068 -0.571651,-0.868732 -1.887706,-2.400299 -2.974987,-2.219724 -0.570906,0.09487 -1.032923,0.507925 -1.387655,0.924589 -0.533101,0.626113 -0.558075,0.64645 -0.901638,-0.112573 -0.380222,-0.840431 -1.184198,-1.220602 -1.789243,-0.372666 -0.330331,0.463011 -0.549024,1.250163 -0.493635,2.191022 0.02314,0.39392 -0.107285,1.496506 -0.568271,0.611332 -0.206722,-0.397128 -0.612261,-0.866956 -1.0835,-0.512565 -0.322599,0.242733 -0.490256,0.714567 -0.600749,1.087576 -0.165538,0.557996 -0.257414,1.222893 -0.239944,1.746974 0.01306,0.391514 -0.06106,0.80285 -0.171781,1.07566 -0.157748,0.388822 -0.336174,-0.03684 -0.653675,-0.136061 -0.347859,-0.108735 -0.652071,0.04331 -0.802716,0.369114 -0.08729,0.188595 -0.135523,0.44674 -0.136669,0.77071 -0.0011,0.356625 -0.04302,0.696349 -0.142912,1.00909 -0.03007,0.0943 -0.235248,0.356339 -0.276374,0.445595 -0.0074,-1.422202 0.06942,-2.956977 0.152821,-4.374425 0.320881,-0.08513 0.770984,-0.265535 1.063969,-0.423767 1.282833,-0.692855 2.097062,-2.007983 1.97414,-3.440956 l -1.14e-4,-0.0013 c -0.01037,-0.121052 -0.02704,-0.239068 -0.04955,-0.353531 -0.13054,-0.666674 -0.470781,-1.279495 -0.950784,-1.759521 -0.0649,-0.750945 -0.221786,-1.496391 -0.486532,-2.202881 C 44.293726,8.8070547 43.105061,7.6695795 41.839296,7.7786579 z M 39.792811,17.897462 c 0.211591,0.175705 0.444089,0.330099 0.694286,0.458828 0.448557,0.230646 0.951185,0.38229 1.483541,0.436428 -0.0095,0.943037 -0.02795,1.88951 -0.06581,2.835926 -0.104249,-0.176049 -0.215944,-0.32185 -0.340011,-0.4366 -0.260164,-0.240729 -0.562314,-0.344537 -0.939156,-0.301341 -0.23668,0.02704 -0.314866,0.07677 -0.371688,-0.197533 -0.0893,-0.429153 -0.07675,-0.891075 -0.127905,-1.327503 -0.07939,-0.677501 -0.194808,-1.149105 -0.333253,-1.468205 z"
   inkscape:connector-curvature="0"
   style="fill:#000000;fill-rule:nonzero" /><path
   id="_158948480"
   class="fil3"
   d="m 38.9142,15.345404 c -0.01128,-0.375531 0.05035,-0.74029 0.173614,-1.082192 l 0.863261,1.034928 -0.769895,1.180786 C 39.017933,16.123848 38.925541,15.736115 38.9142,15.345404 z m 0.356393,-1.492668 c 0.05487,-0.102433 0.115591,-0.202002 0.18129,-0.297846 0.46408,0.104209 0.963787,0.17244 1.488009,0.19948 l 0.0099,0.01192 -0.768349,1.178494 -0.91086,-1.092045 z m 2.205436,-0.08519 c 0.137013,-3.44e-4 0.274999,-0.0034 0.41333,-0.0092 0.410809,-0.01719 0.820129,-0.05849 1.2271,-0.123572 l 0.0034,0.0041 -0.768348,1.178495 -0.875462,-1.049766 z m 2.195068,-0.237521 c 0.513798,-0.112115 1.019291,-0.265477 1.505365,-0.466677 0.08243,0.08462 0.15981,0.173414 0.231982,0.265936 l -0.887089,1.360273 -0.901523,-1.080931 0.05127,-0.0786 z m 1.981244,0.162243 c 0.225968,0.394092 0.360403,0.839572 0.384632,1.293359 0.02446,0.441814 -0.05258,0.870107 -0.212851,1.265574 l -1.032865,-1.238304 0.861084,-1.320629 z m -0.02297,2.955488 c -0.225281,0.38716 -0.53482,0.73141 -0.908168,1.010694 l -0.928731,-1.113585 0.768176,-1.178495 1.068723,1.281386 z m -1.246003,1.235153 c -0.261997,0.154222 -0.54324,0.275733 -0.834506,0.362927 -0.16697,0.04996 -0.339496,0.0892 -0.516318,0.117099 l -0.238856,-0.286389 0.768405,-1.178322 0.821275,0.984685 z m -2.281102,0.517206 c -0.489454,-0.03804 -0.952216,-0.166597 -1.365717,-0.368712 l 0.655507,-1.005482 0.901524,1.080702 -0.191314,0.293492 z M 40.384681,17.834157 C 39.988765,17.581741 39.653049,17.256282 39.402394,16.87657 l 0.81841,-1.255147 0.901638,1.081217 -0.737761,1.131517 z m 3.138062,-1.612746 -0.90158,-1.080816 0.768462,-1.178494 0.901409,1.080816 -0.768291,1.178494 z m -2.303212,-2.131727 0.901638,1.081045 -0.768348,1.178552 -0.901638,-1.081332 0.768348,-1.178265 z m 1.171196,1.403927 0.901638,1.081217 -0.768291,1.178322 -0.901466,-1.080701 0.768119,-1.178838 z M 41.873893,8.1800254 c 1.073248,-0.092407 2.105598,0.9375936 2.693401,2.5063986 0.24086,0.642669 0.388241,1.32229 0.454628,2.004947 -0.859366,0.354677 -1.783457,0.556621 -2.707835,0.636081 -0.923633,0.0794 -1.866914,0.03695 -2.772217,-0.166196 -0.05992,-0.788985 -0.01529,-1.622141 0.180373,-2.407345 0.262971,-1.055896 0.918192,-2.4676143 2.15165,-2.5738856 z m -0.07538,18.7499236 c 0.344422,-2.622294 0.481664,-5.495343 0.567011,-8.101998 0.24825,0.0049 0.399525,-0.0041 0.638152,-0.04812 -0.07675,2.574057 -0.220756,5.5677 -0.09445,8.150121 l -1.110709,0 z m 1.433937,-1.710653 c -0.01203,-0.265019 -0.02194,-0.530268 -0.02978,-0.795516 0.309252,-0.266681 0.854153,-0.735822 1.181792,-1.035959 0.497015,0.03082 0.994145,0.115896 1.480448,0.232021 l 0.439335,-0.303976 c -0.497531,-0.133828 -1.00583,-0.23712 -1.517508,-0.297044 0.748128,-0.685522 1.571981,-1.429478 2.514573,-2.147139 1.01952,0.114636 2.054046,0.278712 2.989365,0.713192 l 0.535564,-0.18006 c -0.940703,-0.521903 -1.996767,-0.746018 -3.053059,-0.88271 0.817265,-0.587958 1.72148,-1.14836 2.737448,-1.632224 0.938641,0.277852 1.889883,0.540809 2.849258,0.746935 l 0.431774,-0.321965 c -0.913953,-0.182523 -1.819257,-0.426746 -2.714651,-0.681282 0.630934,-0.271206 1.303282,-0.512279 2.022198,-0.71239 L 52.656259,17.63038 c -1.070441,0.322308 -2.036232,0.731467 -2.914958,1.192988 -0.05401,-0.663694 -0.104192,-1.364397 0.01317,-2.022878 l -0.4489,0.320933 c -0.05917,0.63293 -0.0052,1.284938 0.0492,1.911509 -0.665416,0.37152 -1.279855,0.771799 -1.851619,1.184968 0.03506,-0.481458 -0.03821,-0.963775 -0.142627,-1.432686 L 47.0298,19.183831 c 0.08237,0.453558 0.118111,0.920808 0.0173,1.372819 -1.034355,0.788699 -1.926198,1.607074 -2.732637,2.347192 -0.31057,0.285071 -0.839089,0.741894 -1.124513,0.994826 l -0.0011,-0.04812 c 0.223906,-0.269087 0.610543,-0.751118 0.712902,-1.071937 0.112841,-0.353645 0.160154,-0.733472 0.161528,-1.129283 0.0011,-0.26605 0.03586,-0.467994 0.09887,-0.604171 0.06627,-0.14328 0.163419,-0.201371 0.317902,-0.153133 0.232841,0.07276 0.371286,0.320017 0.594218,0.367509 0.134664,0.02887 0.256441,-0.02366 0.361033,-0.138811 l 3.44e-4,2.86e-4 c 0.07074,-0.07791 0.135581,-0.190715 0.190798,-0.32672 0.129395,-0.318642 0.216059,-0.793454 0.201166,-1.240481 -0.0161,-0.48352 0.06742,-1.094451 0.218063,-1.605183 0.13982,-0.474182 0.482695,-1.406104 0.945514,-0.517092 0.674697,1.295135 1.38588,0.14666 1.329001,-0.820666 -0.04972,-0.844728 0.136669,-1.537525 0.419802,-1.934367 0.417912,-0.585839 0.844072,-0.245427 1.093009,0.304549 0.471354,1.041745 0.849399,1.061567 1.575475,0.208819 0.305129,-0.358344 0.694057,-0.712219 1.146738,-0.787496 0.887031,-0.147291 2.116881,1.350304 2.572597,2.042815 0.364184,0.553126 0.48871,1.137876 -0.289777,1.650442 -0.226083,0.148894 -0.596796,0.345396 -0.631737,0.653095 -0.01781,0.157087 0.06392,0.316294 0.253864,0.520415 0.325233,0.349349 0.37604,0.739602 0.272135,1.072452 -0.096,0.307585 -0.327639,0.587156 -0.618849,0.727801 -0.235763,0.11389 -0.497244,0.122999 -0.708376,-0.03455 -0.573426,-0.428007 -0.996207,-0.614368 -1.285583,-0.650517 -0.506123,-0.06325 -0.75947,0.340411 -0.574629,0.796605 0.09319,0.229958 0.243438,0.359145 0.392594,0.487358 0.280155,0.240614 0.418485,0.475385 0.209987,0.844155 -0.221844,0.392602 -0.68535,0.626628 -1.102746,0.750946 -0.623317,0.185616 -1.311474,-0.194268 -2.168777,-0.66759 -0.452509,-0.24938 -0.99718,-0.529982 -1.532344,-0.481572 -0.629789,0.05706 -0.711469,0.619467 -0.382054,1.079212 0.115647,0.161326 0.215142,0.333823 0.258331,0.492228 0.06599,0.242104 -0.03632,0.382061 -0.266007,0.466104 -0.192516,0.07058 -0.478399,0.109136 -0.884511,0.101402 -0.654878,-0.01237 -1.253965,0.03959 -1.766961,0.23689 -0.3175,0.122083 -0.830496,0.481572 -1.070097,0.729233 z m -1.368466,-2.718712 c -0.01776,0.329527 -0.03849,0.65871 -0.06232,0.987665 -1.309125,-1.794983 -2.813631,-3.443305 -4.874321,-4.244894 -0.255581,-0.63906 -0.674181,-1.485965 -1.085563,-2.060862 l -0.618505,-0.134056 6.31e-4,5.73e-4 4.58e-4,0.0017 c 0.508986,0.584005 0.87884,1.313696 1.189353,2.013597 -0.557044,-0.172612 -1.109849,-0.275618 -1.659962,-0.331188 -0.465511,-0.517779 -0.973009,-0.991789 -1.507312,-1.436295 l -0.551259,0.07052 c 0.515802,0.41168 1.0115,0.846963 1.46882,1.32315 -0.659402,-0.02962 -1.315082,-0.0026 -1.969959,0.04228 l -0.294646,0.398102 c 2.159153,-0.168945 4.313324,-0.03082 6.182987,1.14561 -0.711699,0.162644 -1.58275,0.527347 -2.147183,1.010867 l -9.16e-4,5.15e-4 -9.74e-4,9.17e-4 0.441798,0.163045 c 0.59101,-0.433793 1.484515,-0.761372 2.182237,-0.853493 0.654076,0.475499 1.315483,1.091816 1.985883,1.886358 -0.661063,0.109365 -0.968884,0.549059 -1.096675,1.093707 l 0.321052,0.315147 c 0.113242,-0.474583 0.351411,-1.081275 1.120045,-0.985774 0.286799,0.364645 0.575145,0.762404 0.865438,1.196827 -0.01873,0.220048 -0.03895,0.440152 -0.06095,0.659799 -0.62618,-0.235401 -1.342462,0.117271 -1.962398,0.321621 -0.364528,0.120192 -0.760272,0.250525 -0.980627,0.183382 -0.205691,-0.06267 -0.271505,-0.378222 -0.0066,-1.248215 0.255524,-0.838942 -0.23834,-1.768801 -1.084188,-0.971509 -0.474275,0.447085 -0.922545,0.765039 -1.58464,0.867128 -0.975872,0.150671 -1.88066,0.09395 -1.27195,-1.064718 0.624577,-1.188634 -0.466084,-1.836631 -1.352829,-0.898866 -0.334169,0.353359 -0.83044,0.596208 -1.281173,0.660486 -0.691536,0.09848 -1.059844,-0.253275 -0.905189,-0.956499 0.214226,-0.974144 -0.59187,-1.211149 -1.399855,-1.053432 -0.25037,0.04898 -0.454743,-0.113031 -0.588892,-0.374671 -0.17602,-0.342932 -0.215543,-0.76796 -0.168287,-1.145954 0.07486,-0.600676 0.393969,-1.175973 1.031376,-1.312665 0.838802,-0.179659 1.091806,-0.829432 0.612605,-1.537525 -0.09125,-0.134859 0.0547,-0.438262 0.306274,-0.722645 0.130998,-0.148035 0.290866,-0.285357 0.465282,-0.389967 0.169147,-0.101631 0.350494,-0.171982 0.528977,-0.189913 0.339725,-0.03415 0.687756,0.131363 0.947003,0.656533 0.442313,0.89583 1.137286,0.802907 1.455761,-0.114922 0.118855,-0.342532 0.343047,-0.597182 0.60682,-0.718864 0.376212,-0.173529 0.758782,-0.03919 1.033667,0.249265 0.374838,0.393118 0.672978,1.14372 0.737131,2.367587 0.06341,1.207253 0.855986,1.385251 1.674511,0.709468 0.210159,-0.173586 0.438991,-0.3584 0.601837,-0.368598 0.237825,-0.01507 0.471124,0.325975 0.614724,1.626438 0.05098,0.46112 0.04525,0.939541 0.129681,1.395219 0.09583,0.517664 0.321797,0.61202 0.818354,0.559314 0.252832,-0.02698 0.452737,0.04068 0.621082,0.196444 0.216231,0.199996 0.396146,0.542184 0.573369,1.012241 z"
   inkscape:connector-curvature="0"
   style="fill:#f6e726;fill-rule:nonzero" />
</svg>