<?xml version="1.0" encoding="UTF-8" standalone="no"?>
<!-- Creator: CorelDRAW -->

<svg
   xmlns:dc="http://purl.org/dc/elements/1.1/"
   xmlns:cc="http://creativecommons.org/ns#"
   xmlns:rdf="http://www.w3.org/1999/02/22-rdf-syntax-ns#"
   xmlns:svg="http://www.w3.org/2000/svg"
   xmlns="http://www.w3.org/2000/svg"
   xmlns:sodipodi="http://sodipodi.sourceforge.net/DTD/sodipodi-0.dtd"
   xmlns:inkscape="http://www.inkscape.org/namespaces/inkscape"
   xml:space="preserve"
   width="300"
   height="360"
   style="fill-rule:evenodd"
   viewBox="0 0 84.666667 101.6"
   id="svg2"
   version="1.1"
   inkscape:version="0.48.1 "
   sodipodi:docname="ганцевичи.svg"><metadata
   id="metadata23"><rdf:RDF><cc:Work
       rdf:about=""><dc:format>image/svg+xml</dc:format><dc:type
         rdf:resource="http://purl.org/dc/dcmitype/StillImage" /></cc:Work></rdf:RDF></metadata><sodipodi:namedview
   pagecolor="#ffffff"
   bordercolor="#666666"
   borderopacity="1"
   objecttolerance="10"
   gridtolerance="10"
   guidetolerance="10"
   inkscape:pageopacity="0"
   inkscape:pageshadow="2"
   inkscape:window-width="1280"
   inkscape:window-height="750"
   id="namedview21"
   showgrid="false"
   fit-margin-top="0"
   fit-margin-left="0"
   fit-margin-right="0"
   fit-margin-bottom="0"
   inkscape:zoom="1.475"
   inkscape:cx="33.728806"
   inkscape:cy="180.00001"
   inkscape:window-x="-8"
   inkscape:window-y="-8"
   inkscape:window-maximized="1"
   inkscape:current-layer="svg2" />
 <defs
   id="defs4">
  <style
   type="text/css"
   id="style6">
   
    .str0 {stroke:black;stroke-width:0.25}
    .fil3 {fill:#F0E824}
    .fil0 {fill:black;fill-rule:nonzero}
    .fil1 {fill:#3C82C2;fill-rule:nonzero}
    .fil2 {fill:white;fill-rule:nonzero}
   
  </style>
 
  
  
  
  
  
  
 
   
   
  
 <style
   id="style3805"
   type="text/css">
   
    .str0 {stroke:#FF6600;stroke-width:0.7056}
    .fil1 {fill:none}
    .fil0 {fill:#A90000}
   
  </style>
  
  
  
  
 </defs>
 <path
   style="fill:#a90000"
   inkscape:connector-curvature="0"
   class="fil0"
   d="m 62.583334,48.5501 c 0.828299,0 1.5,0.6717 1.5,1.5 l 0,1.4998 c 0,0.8283 -0.671701,1.5 -1.5,1.5 l -1.5,0 0,-4.4998 1.5,0 z m 0,5.9998 c 1.6566,0 3,-1.3434 3,-3 l 0,-1.4998 c 0,-1.6566 -1.3434,-3 -3,-3 l -3,0 0,7.4998 3,0 z m -6,-7.4998 1.5,0 0,7.4998 -1.5,0 0,-7.4998 z m -3,0 1.5,0 0,7.4998 -1.5,0 -3,-4.7086 0,4.7086 -1.5,0 0,-7.4998 1.5,0 3,4.7086 0,-4.7086 z m -22.5,10e-5 4.5,0 0,1.5 -3,0 0,1.4999 3,0 0,1.5 -3,0 0,1.4999 3,0 0,1.5 -4.5,0 0,-7.4998 z m -6,-2e-4 1.5,0 0,6 3,0 0,1.5 -4.5,0 0,-7.5 z m 15.750399,6 1.499601,0 c 1.242399,0 2.25,-1.0076 2.25,-2.25 0,-1.2424 -1.0263,-2.2457 -2.25,-2.25 l -1.499601,0 0,1.5 1.499601,0 c 0.414099,0 0.75,0.3359 0.75,0.75 0,0.4141 -0.335901,0.75 -0.75,0.75 l -1.499601,0 0,1.5 z m 1.499601,-7.5 c 2.899,0 5.25,2.351 5.25,5.25 0,2.899 -2.351,5.25 -5.25,5.25 -2.899001,0 -5.25,-2.351 -5.25,-5.25 0,-2.899 2.350999,-5.25 5.25,-5.25 z m 0,1.5 c 2.0707,0 3.75,1.6793 3.75,3.75 0,2.0707 -1.6793,3.75 -3.75,3.75 -2.070701,0 -3.75,-1.6793 -3.75,-3.75 0,-2.0707 1.679299,-3.75 3.75,-3.75 z"
   id="path3809" /><g
   id="g3777"><path
     style="fill:#000000;fill-rule:nonzero"
     inkscape:connector-curvature="0"
     d="m 8.2078875e-4,-4.9055e-6 0,51.1089259055 -8.238435e-4,0 C -3.05475e-6,74.196179 20.448479,94.824816 42.333332,101.6 64.218186,94.824816 84.666668,74.196179 84.666668,51.108921 l -9.61e-4,0 1.37e-4,-51.1089259055 -84.66502321125,0 z"
     class="fil0"
     id="_158964960" /><path
     style="fill:#3c82c2;fill-rule:nonzero"
     inkscape:connector-curvature="0"
     d="m 0.68543474,0.68801915 1.373e-4,50.42145085 0.001785,0 0,0.0012 -0.001785,0 0,0.227831 c 0.0221065,3.698576 0.57957386,7.338786 1.59111646,10.869819 0.8411442,2.935844 1.9950743,5.79135 3.4148313,8.538365 7.2978802,14.1185 21.6128472,25.421596 36.6431862,30.135179 2.958971,-0.928078 5.892266,-2.112962 8.751277,-3.525678 2.920113,-1.44279 5.765532,-3.126595 8.484352,-5.019554 13.91252,-9.687131 24.37396,-24.794959 24.410758,-41.140542 l 0,-0.08666 1.37e-4,-50.42145085 -83.29579526,0 z"
     class="fil1"
     id="_158964696" /><path
     class="fil2 str0"
     d="m 70.324788,70.506667 c 2.112747,-0.744192 3.863003,-0.553303 5.867002,0.06345 l 0.03515,-0.351977 c -0.826177,-0.686517 -2.760424,-2.535392 -2.08858,-3.49588 -3.808079,-1.636288 -7.765686,-3.423778 -11.311646,-5.656354 -0.965682,-0.609471 -2.249367,-1.793257 -1.167798,-2.979652 0.15351,-0.168229 0.231088,-0.297594 0.221889,-0.38837 -0.01236,-0.117554 -0.143487,-0.200502 -0.30853,-0.3436 -1.285196,-1.112374 -3.380367,-3.386012 -3.900762,-5.097146 -0.456409,-1.500469 -0.330223,-2.342852 0.185365,-3.343714 0.124126,-1.611569 0.335854,-4.573643 0.463961,-6.322406 1.017996,-0.96804 2.157372,-1.797514 3.247454,-2.678899 2.565861,-2.072449 4.949377,-4.473667 4.075691,-8.61884 l -3.603354,1.197107 c 1.022115,-0.977241 2.043681,-1.942398 3.025154,-2.964409 l 0.0014,-9.61e-4 0.0041,-0.0041 -6.87e-4,-4.12e-4 c 0.701778,-0.732107 2.812053,-3.116982 2.742026,-4.216997 -0.04572,-0.716039 -1.258284,-0.394961 -1.662653,-0.351153 2.330653,-1.450618 2.365117,-3.458934 2.596892,-6.327761 -2.776902,2.981575 -6.561777,6.887107 -10.053775,9.117074 -1.514087,0.967079 -2.980665,1.459819 -4.678195,1.921249 -1.799137,0.49068 -3.834442,1.236932 -3.902684,3.422404 -0.04984,1.588086 0.465472,3.005882 0.631751,4.555379 0.587126,5.47343 -6.336455,9.925399 -10.86375,6.381732 -3.344942,-2.746191 -6.385748,-5.689176 -9.138758,-9.035226 -0.310452,-0.357058 -0.517786,-0.822607 -0.754092,-1.23446 l -4.12e-4,2.74e-4 c -0.07923,-0.137742 -0.160237,-0.273973 -0.241111,-0.403064 -0.31512,-0.500568 -0.654819,-1.00869 -1.102303,-1.40269 l -0.0011,0 c -0.458613,-0.407616 -1.011,-0.634485 -1.62188,-0.684611 -0.385421,-0.0041 -0.841968,-0.02211 -1.162443,-0.131013 -1.324328,-0.446872 -2.125928,-0.963508 -3.058107,-1.670895 -1.253203,-0.951424 -2.430613,-2.000077 -3.680246,-2.954659 -0.228205,-0.173722 -0.412883,-0.324236 -0.558429,-0.397433 -0.837849,-0.421741 -1.082942,0.245272 -0.713036,0.799399 0.329263,0.495212 0.793773,0.929175 1.230685,1.324549 2.687514,2.43143 6.0282,5.148507 9.035229,7.489162 0.182481,0.155183 2.735709,2.956581 5.475675,5.962738 1.461773,1.577374 2.875489,3.202265 4.334653,4.790762 3.2237,3.51112 7.18268,7.23469 11.415313,9.468365 1.12743,0.594502 2.441323,1.256571 3.742995,1.912048 l 4.12e-4,-6.87e-4 c 1.233569,0.620183 2.45986,1.238169 3.500786,1.784605 l 8.24e-4,1.38e-4 c 0.321573,0.168778 0.623649,0.329867 0.898264,0.480381 1.448042,0.791708 2.785003,1.782545 4.158899,2.696614 1.817399,1.211527 4.015825,2.693731 5.639758,3.971314 1.091456,0.858176 3.21299,2.688924 3.043141,3.718076 z"
     id="path13"
     inkscape:connector-curvature="0"
     style="fill:#ffffff;fill-rule:nonzero;stroke:#000000;stroke-width:0.22577778;stroke-miterlimit:4;stroke-dasharray:none" /><path
     class="fil2 str0"
     d="M 37.567398,69.035861 C 37.010754,68.6203 36.477865,68.22891 35.941268,67.843286 l -6.86e-4,-1.37e-4 C 34.511488,66.81743 32.485107,65.4271 31.173411,64.807192 30.34641,64.416213 29.513641,64.215711 29.852103,65.426276 l 9.62e-4,8.24e-4 c 0.01483,0.05205 0.03144,0.105469 0.04916,0.160676 0.844027,2.593755 1.636427,3.728239 3.500785,7.682523 -0.393522,0.184435 -0.566804,0.38013 -0.58383,0.582555 -0.05987,0.224397 0.143349,0.741445 0.473298,1.388133 0.581359,1.14039 1.273113,2.224336 1.846233,3.368022 0.20857,0.417072 0.532615,0.841696 -0.06371,0.577061 -0.608271,-0.269579 -1.166288,-0.742132 -1.706729,-1.126107 1.62915,2.3651 2.279025,3.506451 2.943455,6.165025 0.221339,0.884956 0.228617,0.794043 -0.423456,0.227693 -0.429222,-0.372439 -0.853639,-0.752706 -1.288491,-1.118142 -2.603345,-2.187532 -4.925073,-4.575016 -7.226343,-7.057533 -1.609653,-1.737776 -3.311439,-3.449322 -4.829645,-5.274989 -2.004411,-2.408496 -4.014315,-5.272654 -5.447116,-8.108796 -0.986553,-1.954208 -1.881247,-4.09491 -2.137599,-6.297274 -0.469179,-3.125085 1.10546,-4.490421 4.072945,-3.96376 2.643713,0.464039 5.094922,1.700422 7.722983,2.22516 1.162031,0.2325 2.071005,0.206408 2.450523,-0.341265 l 2.74e-4,4.12e-4 c 0.334206,-0.479969 0.149253,-1.288981 -0.495267,-2.272677 -1.750256,-2.671346 -4.448068,-5.189706 -6.800691,-7.627179 -1.500905,-1.460369 -3.125525,-2.98336 -4.710462,-4.458835 -1.030217,-0.958839 -2.025831,-1.9207 -2.955813,-2.84191 C 13.323881,36.404982 12.460081,35.524558 11.685393,34.722276 10.148376,33.135975 8.6016096,31.535804 7.1929745,29.831674 6.7438425,29.289083 6.3019878,28.721085 6.1285687,28.392729 5.8594465,27.882685 6.4670311,27.617912 6.8755202,27.971537 l 6.6258988,5.724882 c 1.593862,-0.340716 3.250886,0.665914 4.277121,1.822921 0.168888,0.191163 0.310589,0.378482 0.417551,0.550968 l 2.75e-4,0 9.61e-4,0.0014 0,6.86e-4 c 0.29013,0.474201 0.597149,0.941124 0.922705,1.39088 2.773469,3.83055 6.431196,7.287836 10.199045,10.31528 2.610485,2.097031 5.295803,3.873946 7.624534,5.06144 1.687781,0.860785 3.405357,2.056656 5.120599,3.381617 3.530719,2.727377 6.737804,5.891738 10.362029,8.60703 2.875351,2.061051 6.90477,4.30173 9.200135,5.543469 0.236443,1.861785 1.243043,3.642819 3.195003,4.860663 l -0.02623,0.05576 C 64.091726,75.097065 61.425356,74.54747 61.255919,75.605049 58.811438,72.968722 56.199717,70.406279 53.451787,68.600525 51.155873,67.05199 48.607038,66.533432 45.902085,66.29173 42.816517,66.020641 40.487786,66.140667 37.412927,64.831636 l 0.154471,4.204088 z"
     id="path15"
     inkscape:connector-curvature="0"
     style="fill:#ffffff;fill-rule:nonzero;stroke:#000000;stroke-width:0.22577778;stroke-miterlimit:4;stroke-dasharray:none" /><polygon
     transform="matrix(1.3730725,0,0,1.3733015,-101.83928,-153.07231)"
     class="fil3 str0"
     points="83.0099,115.612 85.812,116 83.7731,117.961 84.2702,120.745 81.7754,119.412 79.2806,120.745 79.7775,117.961 77.7386,116 80.5406,115.612 81.7753,113.067 "
     id="polygon17"
     style="fill:#f0e824;stroke:#000000;stroke-width:0.16441882;stroke-miterlimit:4;stroke-dasharray:none" /><path
     class="fil3 str0"
     d="m 17.917769,11.70739 c 0.172046,0.641744 0.264591,1.316173 0.264591,2.012024 0,4.279483 -3.470029,7.75009 -7.748934,7.75009 -4.2787689,0 -7.7487977,-3.470607 -7.7487977,-7.75009 0,-0.695851 0.092545,-1.37028 0.2645911,-2.012024 1.263364,2.746329 4.1389897,4.665518 7.4842066,4.665518 3.345353,0 6.220979,-1.919189 7.484343,-4.665518 z"
     id="path19"
     inkscape:connector-curvature="0"
     style="fill:#f0e824;stroke:#000000;stroke-width:0.22577778;stroke-miterlimit:4;stroke-dasharray:none" /></g>
</svg>