<?xml version="1.0" encoding="UTF-8" standalone="no"?>
<!-- Creator: CorelDRAW -->

<svg
   xmlns:dc="http://purl.org/dc/elements/1.1/"
   xmlns:cc="http://creativecommons.org/ns#"
   xmlns:rdf="http://www.w3.org/1999/02/22-rdf-syntax-ns#"
   xmlns:svg="http://www.w3.org/2000/svg"
   xmlns="http://www.w3.org/2000/svg"
   xmlns:xlink="http://www.w3.org/1999/xlink"
   xmlns:sodipodi="http://sodipodi.sourceforge.net/DTD/sodipodi-0.dtd"
   xmlns:inkscape="http://www.inkscape.org/namespaces/inkscape"
   xml:space="preserve"
   width="300"
   height="357.99997"
   style="fill-rule:evenodd"
   viewBox="0 0 84.666668 101.03555"
   id="svg2"
   version="1.1"
   inkscape:version="0.48.1 "
   sodipodi:docname="дисна.svg"><metadata
   id="metadata36"><rdf:RDF><cc:Work
       rdf:about=""><dc:format>image/svg+xml</dc:format><dc:type
         rdf:resource="http://purl.org/dc/dcmitype/StillImage" /></cc:Work></rdf:RDF></metadata><sodipodi:namedview
   pagecolor="#ffffff"
   bordercolor="#666666"
   borderopacity="1"
   objecttolerance="10"
   gridtolerance="10"
   guidetolerance="10"
   inkscape:pageopacity="0"
   inkscape:pageshadow="2"
   inkscape:window-width="640"
   inkscape:window-height="480"
   id="namedview34"
   showgrid="false"
   fit-margin-top="0"
   fit-margin-left="0"
   fit-margin-right="0"
   fit-margin-bottom="0"
   inkscape:zoom="0.72905033"
   inkscape:cx="149.99999"
   inkscape:cy="178.99999"
   inkscape:window-x="0"
   inkscape:window-y="0"
   inkscape:window-maximized="0"
   inkscape:current-layer="svg2" />
 <defs
   id="defs4"><linearGradient
     y2="139.446"
     x2="184.729"
     y1="141.289"
     x1="111.604"
     gradientUnits="userSpaceOnUse"
     id="linearGradient3799">
   <stop
   id="stop3801"
   style="stop-color:#E5E5E5"
   offset="0" />
   <stop
   id="stop3803"
   style="stop-color:white"
   offset="0.49661008" />
   <stop
   id="stop3805"
   style="stop-color:#E5E5E5"
   offset="1" />
  </linearGradient><style
     type="text/css"
     id="style6">
   
    .fil0 {fill:black}
    .fil1 {fill:#3C82C2}
    .fil2 {fill:black;fill-rule:nonzero}
    .fil3 {fill:#A3723D;fill-rule:nonzero}
    .fil4 {fill:white;fill-rule:nonzero}
    .fil6 {fill:url(#id0)}
    .fil5 {fill:url(#id1);fill-rule:nonzero}
   
  </style><linearGradient
     id="id0"
     gradientUnits="userSpaceOnUse"
     x1="111.604"
     y1="141.289"
     x2="184.729"
     y2="139.446">
   <stop
   offset="0"
   style="stop-color:#E5E5E5"
   id="stop9" />
   <stop
   offset="0.490196"
   style="stop-color:white"
   id="stop11" />
   <stop
   offset="1"
   style="stop-color:#E5E5E5"
   id="stop13" />
  </linearGradient><linearGradient
     inkscape:collect="always"
     xlink:href="#linearGradient3799"
     id="linearGradient3014"
     gradientUnits="userSpaceOnUse"
     x1="107.97649"
     y1="130.66559"
     x2="188.35652"
     y2="129.85901" /><linearGradient
     inkscape:collect="always"
     xlink:href="#id0"
     id="linearGradient3797"
     x1="132.6405"
     y1="109.16599"
     x2="150.34511"
     y2="75.222878"
     gradientUnits="userSpaceOnUse" /><linearGradient
     inkscape:collect="always"
     xlink:href="#id0"
     id="linearGradient3817"
     gradientUnits="userSpaceOnUse"
     x1="132.6405"
     y1="109.16599"
     x2="150.34511"
     y2="75.222878" /><linearGradient
     inkscape:collect="always"
     xlink:href="#linearGradient3799"
     id="linearGradient3819"
     gradientUnits="userSpaceOnUse"
     x1="107.97649"
     y1="130.66559"
     x2="188.35652"
     y2="129.85901" /><linearGradient
     inkscape:collect="always"
     xlink:href="#linearGradient3799"
     id="linearGradient3842"
     gradientUnits="userSpaceOnUse"
     x1="107.97649"
     y1="130.66559"
     x2="188.35652"
     y2="129.85901"
     gradientTransform="matrix(0.95301999,0,0,0.95301999,4.8766589,7.479772)" /><linearGradient
     inkscape:collect="always"
     xlink:href="#id0"
     id="linearGradient3846"
     gradientUnits="userSpaceOnUse"
     x1="132.6405"
     y1="109.16599"
     x2="150.34511"
     y2="75.222878"
     gradientTransform="matrix(0.95301999,0,0,0.95301999,4.8766589,7.479772)" /><linearGradient
     inkscape:collect="always"
     xlink:href="#id0"
     id="linearGradient3869"
     gradientUnits="userSpaceOnUse"
     gradientTransform="matrix(0.95301999,0,0,0.95301999,4.8766589,7.479772)"
     x1="132.6405"
     y1="109.16599"
     x2="150.34511"
     y2="75.222878" /><linearGradient
     inkscape:collect="always"
     xlink:href="#linearGradient3799"
     id="linearGradient3871"
     gradientUnits="userSpaceOnUse"
     gradientTransform="matrix(0.95301999,0,0,0.95301999,4.8766589,7.479772)"
     x1="107.97649"
     y1="130.66559"
     x2="188.35652"
     y2="129.85901" /><linearGradient
     inkscape:collect="always"
     xlink:href="#linearGradient3799"
     id="linearGradient3874"
     gradientUnits="userSpaceOnUse"
     gradientTransform="matrix(0.95429904,0,0,0.95301999,-99.058946,-50.696477)"
     x1="107.97649"
     y1="130.66559"
     x2="188.35652"
     y2="129.85901" /><linearGradient
     inkscape:collect="always"
     xlink:href="#id0"
     id="linearGradient3878"
     gradientUnits="userSpaceOnUse"
     gradientTransform="matrix(0.95429904,0,0,0.95301999,-99.058946,-50.696477)"
     x1="132.6405"
     y1="109.16599"
     x2="150.34511"
     y2="75.222878" /></defs>
 <path
   id="path3827"
   d="m 62.610471,48.268111 c 0.829431,0 1.502023,0.67169 1.502023,1.50001 l 0,1.49966 c 0,0.82832 -0.672592,1.50001 -1.502023,1.50001 l -1.502023,0 0,-4.49968 1.502023,0 z m 0,5.99969 c 1.658863,0 3.004046,-1.34337 3.004046,-3.00002 l 0,-1.49966 c 0,-1.65664 -1.345183,-3.00002 -3.004046,-3.00002 l -3.004047,0 0,7.4997 3.004047,0 z m -6.008093,-7.4997 1.502023,0 0,7.4997 -1.502023,0 0,-7.4997 z m -3.004056,0 1.502033,0 0,7.4997 -1.502033,0 -3.004047,-4.70852 0,4.70852 -1.502023,0 0,-7.4997 1.502023,0 3.004047,4.70853 0,-4.70853 z m -22.530077,0 4.506039,0 0,1.50001 -3.004016,0 0,1.50001 3.004016,0 0,1.50001 -3.004016,0 0,1.49966 3.004016,0 0,1.50001 -4.506039,0 0,-7.4997 z m -6.008023,-3.5e-4 1.501983,0 0,6.00004 3.004046,0 0,1.50001 -4.506029,0 0,-7.50005 z m 15.771529,6.00004 1.501602,0 c 1.243937,0 2.25318,-1.00753 2.25318,-2.25001 0,-1.24214 -1.027958,-2.24544 -2.25318,-2.25002 l -1.501602,0 0,1.50001 1.501602,0 c 0.414646,0 0.751157,0.3362 0.751157,0.75001 0,0.41416 -0.336511,0.75 -0.751157,0.75 l -1.501602,0 0,1.50001 z m 1.501602,-7.50005 c 2.902811,0 5.256876,2.35126 5.256876,5.25004 0,2.89912 -2.354065,5.25003 -5.256876,5.25003 -2.902911,0 -5.257046,-2.35091 -5.257046,-5.25003 0,-2.89878 2.354135,-5.25004 5.257046,-5.25004 z m 0,1.50001 c 2.073379,0 3.755203,1.67957 3.755203,3.75003 0,2.0708 -1.681824,3.75002 -3.755203,3.75002 -2.073479,0 -3.755023,-1.67922 -3.755023,-3.75002 0,-2.07046 1.681544,-3.75003 3.755023,-3.75003 z"
   style="fill:#a90000;stroke:none"
   inkscape:connector-curvature="0" /><path
   style="fill:#000000"
   inkscape:connector-curvature="0"
   id="path18"
   d="m 84.506198,8.797893 0,20.660806 c -3.143654,2.413142 -5.170871,6.205875 -5.170871,10.470735 0,4.264857 2.027217,8.056927 5.170871,10.470067 l 0,0.22977 c 0.218342,3.12543 0.172541,5.89786 0.102497,8.46597 -0.156129,5.71659 -0.871849,11.61445 -3.837714,16.61914 -4.624818,7.80438 -13.480237,11.62427 -21.456939,15.06486 -3.682736,1.58859 -7.506901,3.12238 -10.964806,5.24924 -2.207388,1.35767 -4.246431,2.95913 -6.015893,5.007069 -1.769461,-2.047939 -3.808514,-3.649399 -6.015903,-5.007069 -3.457905,-2.12686 -7.28207,-3.66065 -10.964806,-5.24924 -7.976691,-3.44059 -16.8321101,-7.26048 -21.4569288,-15.06486 -2.96587516,-5.00469 -3.68159444,-10.90255 -3.83771369,-16.61914 -0.07009394,-2.56811 -0.11585528,-5.34054 0.10248737,-8.46597 l 0,-0.22948 c 3.14384372,-2.41324 5.17087052,-6.2054 5.17087052,-10.470357 0,-4.264955 -2.0270268,-8.057689 -5.17087052,-10.470926 l 0,-20.660997 C 1.5424912,8.040337 3.0329188,7.321569 4.6217283,6.646259 14.279623,2.541602 27.612803,0.00228 42.329999,0.001899 l 0,-0.0019 0.004,0 0.002,0 0,0.0019 c 14.718247,1.91e-4 28.052288,2.539703 37.710463,6.644551 1.58891,0.67531 3.078757,1.394173 4.460769,2.151443 z"
   class="fil0" /><path
   style="fill:#3c82c2"
   inkscape:connector-curvature="0"
   id="path20"
   d="m 1.1109628,9.363605 0,19.631735 c 3.1593946,2.595836 5.1746856,6.530475 5.1746856,10.934094 0,4.409247 -2.0205381,8.347887 -5.186902,10.943627 -0.20317227,3.03489 -0.15794165,5.72126 -0.090321,8.19988 0.063485,2.32212 0.2184428,4.67799 0.5881383,6.98906 0.1019166,0.637 0.2199648,1.27047 0.3569984,1.89899 0.3384937,0.13352 0.7336734,0.21643 1.220556,0.21643 1.2618712,0 1.9061147,-0.55561 2.5496973,-1.11046 0.7511268,-0.64776 1.5017729,-1.29515 3.0375312,-1.29515 1.5356584,0 2.2864044,0.64739 3.0375314,1.29515 0.643582,0.55485 1.287926,1.11046 2.549797,1.11046 1.261962,0 1.906205,-0.55561 2.549788,-1.11046 0.751127,-0.64776 1.501783,-1.29515 3.037531,-1.29515 1.535568,0 2.286314,0.64739 3.037441,1.29515 0.643583,0.55485 1.287926,1.11046 2.549788,1.11046 1.261971,0 1.906214,-0.55561 2.549797,-1.11046 0.751127,-0.64776 1.501783,-1.29515 3.037531,-1.29515 1.535659,0 2.286405,0.64739 3.037532,1.29515 0.643582,0.55485 1.287926,1.11046 2.549697,1.11046 1.261971,0 1.906215,-0.55561 2.549797,-1.11046 0.751127,-0.64776 1.501773,-1.29515 3.037532,-1.29515 1.535748,0 2.286404,0.64739 3.037531,1.29515 0.643582,0.55485 1.287826,1.11046 2.549797,1.11046 1.261771,0 1.906115,-0.55561 2.549688,-1.11046 0.751136,-0.64776 1.501883,-1.29515 3.037541,-1.29515 1.535748,0 2.286404,0.64739 3.037531,1.29515 0.643583,0.55485 1.287826,1.11046 2.549788,1.11046 1.261871,0 1.906214,-0.55561 2.549797,-1.11046 0.751127,-0.64776 1.501873,-1.29515 3.037531,-1.29515 1.535658,0 2.286315,0.64739 3.037531,1.29515 0.643583,0.55485 1.287827,1.11046 2.549698,1.11046 1.261871,0 1.906215,-0.55561 2.549797,-1.11046 0.751127,-0.64776 1.501873,-1.29515 3.037532,-1.29515 1.535748,0 2.286404,0.64739 3.037531,1.29515 0.643582,0.55485 1.287826,1.11046 2.549697,1.11046 0.538221,0 0.963942,-0.1014 1.325427,-0.26036 0.12692,-0.58563 0.237618,-1.17527 0.334007,-1.76824 0.38,-2.3388 0.538412,-4.72459 0.602638,-7.07588 0.06769,-2.47862 0.112801,-5.1649 -0.09032,-8.19979 -3.166454,-2.59574 -5.186902,-6.53438 -5.186902,-10.943717 0,-4.403715 2.015201,-8.338353 5.174686,-10.934189 l 0,-19.631926 C 82.342147,8.719935 81.045449,8.104856 79.672599,7.521322 70.122449,3.462315 56.921155,0.951202 42.334885,0.951107 l 0,0.0019 -0.002,0 -0.004,0 0,-0.0019 C 27.743559,0.951393 14.543126,3.46241 4.9933564,7.521132 3.6201158,8.104761 2.323518,8.720031 1.1098413,9.363605 z"
   class="fil1" /><path
   style="fill:#000000;fill-rule:nonzero"
   inkscape:connector-curvature="0"
   id="path22"
   d="m 20.011806,50.868771 c 1.15661,0.432 2.146797,1.07729 3.136974,1.72258 2.655529,1.73031 5.241676,2.62052 8.414248,3.29564 2.704955,0.57572 5.695634,0.94797 8.715611,1.16573 l 6.71e-4,-0.11169 c -2.621363,-1.07815 -5.031544,-2.65321 -7.072599,-4.63854 -4.131257,-4.01831 -6.696035,-9.62407 -6.696035,-15.8248 l 0,-0.0014 0.002,0 c 2.9e-4,-6.101329 2.488425,-11.731294 6.836122,-15.960321 l 7.129185,1.580775 0.05778,-10.170725 c -0.155649,0.04346 -0.310236,0.09826 -0.463021,0.166874 -0.706376,0.317355 -1.379729,0.602308 -2.08171,0.677025 -0.734905,0.07815 -1.46972,-0.07443 -2.242606,-0.652247 l -1.9e-4,1.91e-4 -0.01001,-0.0068 c -0.682705,-0.506912 -1.505218,-0.458975 -2.246892,-0.0346 -0.651883,0.372917 -1.284581,0.468123 -1.896001,0.354047 l 9e-5,-2.86e-4 c -0.999439,-0.186792 -1.732051,-0.904988 -2.480224,-1.53217 1.19354,0.0012 1.83531,-0.01944 2.817096,-0.785765 0.539553,-0.421426 1.06719,-0.779857 1.679471,-0.922428 0.635371,-0.147909 1.328,-0.06118 2.155278,0.427143 l -9e-5,1.91e-4 5.71e-4,3.81e-4 0.002,0.0014 c 0.103438,0.06071 0.218723,0.110836 0.342589,0.1501 0.926151,0.293435 2.07398,0.02278 2.846675,-0.532929 0.826037,-0.594017 1.515812,-1.029452 2.239161,-1.334323 0.294505,-0.124083 0.592815,-0.225484 0.905344,-0.306586 l 0.03475,-0.08615 0.752379,-0.07891 0.443454,15.299782 12.751922,2.827515 -0.819268,0.490901 -0.003,0.0015 c -2.145456,1.259606 -4.209893,2.670457 -6.124018,4.260666 -2.034858,1.690563 -3.911203,3.599843 -5.420135,5.717548 l 0.605211,20.879431 c 0.114904,0.12008 0.231711,0.23959 0.3508,0.35834 2.094498,0.0552 4.142522,0.0459 6.054175,-0.0116 1.160906,-0.0347 1.981596,-0.51921 2.65648,-1.44916 l 17.273292,-1.40704 -0.248784,0.57991 -5.81e-4,9.5e-4 c -0.273496,0.63805 -0.566849,1.29678 -0.877566,1.97142 -0.303276,0.65844 -0.621443,1.32651 -0.952296,1.99915 -1.692068,3.43964 -3.66336,6.88071 -5.648881,9.7047 l -0.01192,0.0164 -0.957924,1.21929 -0.112892,0.14353 -0.185328,8.6e-4 -32.94765,0.13942 -0.152024,5.7e-4 -0.110408,-0.1033 -1.012987,-0.94912 c -1.875103,-1.31488 -3.474988,-2.94921 -4.842881,-4.8705 -1.368174,-1.92176 -2.505508,-4.13325 -3.455421,-6.60128 l -9.52e-4,-0.003 -5.7e-4,-0.002 2.8e-4,-9e-5 c -0.139898,-0.36301 -0.297739,-0.72811 -0.471993,-1.09445 -1.216731,-2.55705 -3.105382,-4.66665 -5.151885,-6.59471 2.246421,-0.0386 4.360575,0.11427 6.495636,0.91204 z m 20.311203,-1.61041 0.03144,-5.52399 c -0.162428,0.91794 -0.248784,1.86067 -0.248784,2.82875 l 0,9.5e-4 -0.002,0 c 0,0.94692 0.0741,1.84257 0.218913,2.6939 z"
   class="fil2" /><path
   style="fill:#a3723d;fill-rule:nonzero"
   inkscape:connector-curvature="0"
   id="path24"
   d="m 15.403499,50.712471 c 1.592054,1.61613 2.97684,3.46156 3.953469,5.5136 0.176066,0.36997 0.341257,0.75384 0.494132,1.15106 l 9.62e-4,0.003 5.7e-4,0.002 -2.9e-4,9e-5 c 0.925771,2.40457 2.033235,4.55801 3.36477,6.42841 1.100395,1.54561 2.353294,2.8967 3.78303,4.0348 0.333337,-0.16945 0.612371,-0.3875 0.881101,-0.6147 -0.373611,-0.30049 -0.726604,-0.61918 -1.058989,-0.95321 -2.039814,-2.05052 -3.307023,-4.68543 -3.752199,-7.23037 l -5.81e-4,-0.003 c -0.170529,-0.97418 -0.414165,-1.93568 -0.740052,-2.86973 -0.716971,-2.05319 -1.724231,-3.65893 -2.7753,-4.66408 -1.332005,-0.47404 -2.740172,-0.73097 -4.151104,-0.79711 z m 12.808788,16.23422 c 0.707518,-0.60545 1.457503,-1.17517 2.898404,-1.17517 1.535659,0 2.286405,0.64739 3.037532,1.29516 0.643582,0.55485 1.287916,1.11046 2.549697,1.11046 1.261961,0 1.906205,-0.55561 2.549788,-1.11046 0.456541,-0.3937 0.912693,-0.78758 1.545201,-1.03574 -5.014551,-0.25084 -10.010307,-0.77147 -14.983453,-1.60851 0.393658,0.54532 0.832726,1.06624 1.316935,1.55304 0.340016,0.34185 0.702171,0.66664 1.085896,0.97122 z m 15.84738,-0.79005 c 0.491659,0.24483 0.877476,0.57743 1.263113,0.91004 0.643573,0.55485 1.287826,1.11046 2.549787,1.11046 1.261772,0 1.906115,-0.55561 2.549698,-1.11046 0.378667,-0.32651 0.757145,-0.65311 1.236197,-0.89651 -2.536049,0.0574 -5.069044,0.055 -7.598795,-0.0135 z m 10.962133,-0.0972 c 0.596529,0.24912 1.036078,0.62823 1.475527,1.00725 0.643583,0.55485 1.287836,1.11046 2.549798,1.11046 0.693679,0 1.200699,-0.16821 1.623646,-0.41161 0.442693,-0.67007 0.890073,-1.39237 1.330103,-2.14525 -2.328211,0.19146 -4.654789,0.33918 -6.979074,0.43915 z m 6.64029,0.95064 c 0.597781,-0.51463 1.209861,-1.01706 2.23087,-1.18222 1.415036,-2.24818 2.783881,-4.73127 4.004337,-7.21227 0.323313,-0.6572 0.638515,-1.31945 0.943324,-1.98123 0.209661,-0.45535 0.415687,-0.91442 0.617427,-1.37492 l -2.618309,0.21328 c -0.08271,0.42638 -0.199637,0.88907 -0.346314,1.37931 -0.185899,0.62127 -0.421134,1.29306 -0.695302,1.99677 -1.017664,2.61175 -2.570315,5.64359 -4.136033,8.16128 z m 4.734095,-11.50124 -12.603723,1.02669 c -0.758186,0.96512 -1.821752,1.44087 -3.042017,1.47737 -6.015613,0.18117 -13.366956,-0.10988 -19.345359,-1.38216 -3.264555,-0.69475 -5.935926,-1.62042 -8.670761,-3.40276 -0.727365,-0.47403 -1.45492,-0.94816 -2.234205,-1.3246 0.853905,1.03174 1.642542,2.43582 2.234014,4.12962 0.05698,0.16326 0.112131,0.32889 0.165482,0.49748 5.643144,2.09512 12.465528,3.03289 19.780993,3.19224 7.364991,0.16048 15.230233,-0.46784 22.896588,-1.49758 0.193249,-0.52006 0.363497,-1.02126 0.505307,-1.49548 0.130065,-0.43458 0.235706,-0.8438 0.313681,-1.22082 z m -0.991619,3.17079 c -7.611682,1.01383 -15.414981,1.62957 -22.732359,1.47023 -7.231772,-0.15754 -13.988879,-1.07282 -19.619145,-3.10761 0.179891,0.63405 0.325987,1.27829 0.439649,1.92739 l 5.71e-4,0.003 c 0.07911,0.45211 0.185138,0.90689 0.317495,1.36072 6.659476,1.41352 13.31782,2.1767 19.974913,2.43077 6.695744,0.2556 13.391579,-0.003 20.087513,-0.63137 0.554353,-1.12762 1.082181,-2.27944 1.531363,-3.45337 z m -3.142793,6.48893 c 0.479924,-0.8399 0.947721,-1.71153 1.38765,-2.58564 -6.626181,0.61231 -13.252542,0.86153 -19.878813,0.6086 -6.605754,-0.25208 -13.210456,-1.00306 -19.813827,-2.3896 0.357579,1.07491 0.863548,2.1359 1.51438,3.12866 6.089001,1.04633 12.208253,1.61518 18.349734,1.79206 6.120784,0.17631 12.270857,-0.0368 18.440876,-0.55408 z"
   class="fil3" /><path
   style="fill:#ffffff;fill-rule:nonzero"
   inkscape:connector-curvature="0"
   id="path26"
   d="m 42.23362,11.058456 -0.07811,-2.69028 c -1.013849,0.289051 -1.904493,0.874205 -2.752389,1.483947 -0.964603,0.693703 -2.369626,1.005246 -3.520599,0.640239 -0.178169,-0.05651 -0.345082,-0.129039 -0.496045,-0.217479 l -1.9e-4,3.81e-4 -0.004,-0.002 -0.003,-0.0014 c -0.63423,-0.374251 -1.143163,-0.445918 -1.594738,-0.3408 -0.474476,0.110455 -0.920033,0.416947 -1.384205,0.779475 -0.38812,0.302965 -1.045912,0.611934 -1.508562,0.736113 0.199928,0.100258 0.638526,0.197942 0.842079,0.235872 l 0.002,0 c 0.435344,0.0812 0.894079,0.0087 1.377236,-0.267703 2.403121,-1.375017 2.838665,0.80616 4.79698,0.598115 0.587848,-0.06261 1.20127,-0.323455 1.849048,-0.614507 0.780907,-0.350806 1.632708,-0.41666 2.474406,-0.339942 z"
   class="fil4" /><path
   inkscape:connector-curvature="0"
   style="fill:url(#linearGradient3878);fill-opacity:1;fill-rule:nonzero"
   id="path28"
   d="m 39.343997,46.563981 -0.002,0 0,-9.6e-4 c 0,-6.902434 4.162269,-12.558798 9.31119,-16.836333 1.70142,-1.413519 3.518596,-2.686849 5.405334,-3.840766 L 33.5868,21.346688 c -4.027708,3.99668 -6.314313,9.445095 -6.314403,15.129478 l 0.002,0 0,0.0014 c 0,5.988205 2.476589,11.401645 6.465656,15.281775 2.688072,2.6147 6.047105,4.5013 9.683368,5.42516 -2.691597,-2.84 -4.079147,-6.72747 -4.079437,-10.62017 z"
   class="fil5" /><path
   style="fill:#a3723d;fill-rule:nonzero"
   inkscape:connector-curvature="0"
   id="path30"
   d="M 43.538138,56.033181 42.989322,37.116882 c -0.749214,1.18832 -1.379629,2.437634 -1.8583,3.746226 l -0.06309,11.092863 c 0.579927,1.48033 1.411883,2.82218 2.470201,4.07721 z M 42.567046,22.560073 42.255659,11.825065 c -0.155078,-0.0162 -0.309094,-0.02773 -0.461398,-0.03297 -0.166624,-0.0057 -0.332576,-0.0038 -0.497868,0.0072 l -0.05958,10.465779 1.330192,0.29496 z"
   class="fil3" /><path
   inkscape:connector-curvature="0"
   style="fill:url(#linearGradient3874)"
   id="path32"
   d="m 2.1559234,68.829381 c 0.2951556,1.18651 0.6630386,2.35187 1.1214831,3.48482 1.2409733,-0.0294 1.8859878,-0.58535 2.5301411,-1.14077 0.7328022,-0.63204 1.4651338,-1.26351 2.9535487,-1.26351 1.4883247,0 2.2207567,0.63147 2.9535587,1.26351 0.661897,0.57067 1.324565,1.1421 2.63377,1.1421 1.309295,0 1.971863,-0.57143 2.63377,-1.1421 0.732802,-0.63204 1.465134,-1.26351 2.953559,-1.26351 1.488134,0 2.220646,0.63147 2.953458,1.26351 0.661897,0.57067 1.324566,1.1421 2.63377,1.1421 1.309295,0 1.971863,-0.57143 2.63377,-1.1421 0.732802,-0.63204 1.465134,-1.26351 2.953549,-1.26351 1.488325,0 2.220756,0.63147 2.953559,1.26351 0.661907,0.57067 1.324565,1.1421 2.63368,1.1421 1.309294,0 1.971862,-0.57143 2.63377,-1.1421 0.732802,-0.63204 1.465133,-1.26351 2.953548,-1.26351 1.488425,0 2.220757,0.63147 2.953559,1.26351 0.661897,0.57067 1.324475,1.1421 2.63377,1.1421 1.309105,0 1.971773,-0.57143 2.63367,-1.1421 0.732812,-0.63204 1.465234,-1.26351 2.953559,-1.26351 1.488424,0 2.220746,0.63147 2.953558,1.26351 0.661897,0.57067 1.324465,1.1421 2.63377,1.1421 1.309205,0 1.971863,-0.57143 2.63377,-1.1421 0.732802,-0.63204 1.465224,-1.26351 2.953549,-1.26351 1.488325,0 2.220656,0.63156 2.953559,1.26351 0.661907,0.57067 1.324475,1.1421 2.633679,1.1421 1.309195,0 1.971863,-0.57143 2.633771,-1.1421 0.732802,-0.63204 1.465223,-1.26351 2.953548,-1.26351 1.488425,0 2.220757,0.63147 2.953559,1.26351 0.660465,0.56943 1.321611,1.13953 2.625088,1.142 0.461779,-1.14162 0.832146,-2.31602 1.128553,-3.51197 -0.323704,0.0863 -0.691197,0.13685 -1.119971,0.13685 -1.542337,0 -2.295367,-0.64938 -3.047645,-1.29801 -0.642341,-0.55399 -1.284291,-1.1076 -2.539584,-1.1076 -1.255282,0 -1.897243,0.55361 -2.539574,1.1076 -0.752278,0.64863 -1.505317,1.29801 -3.047745,1.29801 -1.542347,0 -2.295376,-0.64938 -3.047654,-1.29801 -0.642431,-0.55399 -1.284482,-1.1076 -2.539584,-1.1076 -1.255283,0 -1.897233,0.55361 -2.539574,1.1076 -0.752278,0.64863 -1.505317,1.29801 -3.047745,1.29801 -1.542437,0 -2.295476,-0.64938 -3.047745,-1.29801 -0.642341,-0.55399 -1.284301,-1.1076 -2.539583,-1.1076 -1.255283,0 -1.897243,0.55361 -2.539584,1.1076 -0.752269,0.64863 -1.505308,1.29801 -3.047645,1.29801 -1.542437,0 -2.295467,-0.64938 -3.047745,-1.29801 -0.642341,-0.55399 -1.284291,-1.1076 -2.539584,-1.1076 -1.255282,0 -1.897243,0.55361 -2.539574,1.1076 -0.752278,0.64863 -1.505317,1.29801 -3.047744,1.29801 -1.542338,0 -2.295377,-0.64938 -3.047655,-1.29801 -0.642341,-0.55399 -1.284292,-1.1076 -2.539584,-1.1076 -1.255282,0 -1.897233,0.55361 -2.539574,1.1076 -0.752278,0.64863 -1.505317,1.29801 -3.047745,1.29801 -1.542437,0 -2.295476,-0.64938 -3.047745,-1.29801 -0.642341,-0.55399 -1.284301,-1.1076 -2.539483,-1.1076 -1.255293,0 -1.897243,0.55361 -2.539584,1.1076 -0.752278,0.64863 -1.505308,1.29801 -3.047745,1.29801 -1.542437,0 -2.295467,-0.64938 -3.047745,-1.29801 -0.642341,-0.55399 -1.284291,-1.1076 -2.5395837,-1.1076 -1.2552825,0 -1.8972429,0.55361 -2.5395738,1.1076 -0.7522783,0.64863 -1.5053176,1.29801 -3.0476548,1.29801 -0.3841949,0 -0.7194442,-0.0404 -1.0179443,-0.11093 z m 1.3291414,3.98143 c 0.3572889,0.82675 0.7652557,1.63501 1.2304792,2.4201 0.1181384,0.19938 0.2398115,0.39541 0.3636775,0.58954 0.2615706,-0.17621 0.4951837,-0.37711 0.7284163,-0.5782 0.7328122,-0.63204 1.4651337,-1.26351 2.9535586,-1.26351 1.4883246,0 2.2207466,0.63147 2.9535586,1.26351 0.661897,0.57067 1.324565,1.1421 2.63376,1.1421 1.309305,0 1.971873,-0.57143 2.63377,-1.1421 0.732812,-0.63204 1.465144,-1.26351 2.953559,-1.26351 1.488134,0 2.220656,0.63147 2.953458,1.26351 0.661908,0.57067 1.324576,1.1421 2.63377,1.1421 1.309305,0 1.971873,-0.57143 2.63377,-1.1421 0.732813,-0.63204 1.465134,-1.26351 2.953559,-1.26351 1.488325,0 2.220747,0.63147 2.953559,1.26351 0.661897,0.57067 1.324565,1.1421 2.63367,1.1421 1.309295,0 1.971873,-0.57143 2.63377,-1.1421 0.732812,-0.63204 1.465133,-1.26351 2.953558,-1.26351 1.488325,0 2.220657,0.63147 2.953459,1.26351 0.661897,0.57067 1.324475,1.1421 2.63377,1.1421 1.309105,0 1.971773,-0.57143 2.63367,-1.1421 0.732812,-0.63204 1.465234,-1.26351 2.953559,-1.26351 1.488424,0 2.220746,0.63147 2.953558,1.26351 0.661897,0.57067 1.324465,1.1421 2.63377,1.1421 1.309205,0 1.971863,-0.57143 2.63377,-1.1421 0.732802,-0.63204 1.465224,-1.26351 2.953549,-1.26351 1.488325,0 2.220656,0.63157 2.953559,1.26351 0.661907,0.57067 1.324475,1.1421 2.633679,1.1421 1.309195,0 1.971863,-0.57143 2.633771,-1.1421 0.732802,-0.63204 1.465223,-1.26351 2.953548,-1.26351 1.488425,0 2.220757,0.63147 2.953559,1.26351 0.253269,0.21834 0.506348,0.43668 0.795977,0.62318 0.133889,-0.20871 0.265105,-0.4198 0.392416,-0.63452 0.464262,-0.78338 0.870887,-1.59011 1.227415,-2.41514 -1.35052,-0.0584 -2.048496,-0.66025 -2.7458,-1.26151 -0.660766,-0.56981 -1.321041,-1.13924 -2.623567,-1.13924 -1.302516,0 -1.962801,0.56943 -2.623556,1.13924 -0.733854,0.6328 -1.468669,1.26637 -2.963763,1.26637 -1.495013,0 -2.229818,-0.63357 -2.963672,-1.26637 -0.660755,-0.56981 -1.32113,-1.13924 -2.623566,-1.13924 -1.302516,0 -1.962801,0.56943 -2.623556,1.13924 -0.733854,0.6328 -1.468669,1.26637 -2.963763,1.26637 -1.495104,0 -2.229909,-0.63357 -2.963772,-1.26637 -0.660756,-0.56981 -1.321031,-1.13924 -2.623556,-1.13924 -1.302526,0 -1.962801,0.56943 -2.623557,1.13924 -0.733853,0.6328 -1.468668,1.26637 -2.963672,1.26637 -1.495104,0 -2.229909,-0.63357 -2.963762,-1.26637 -0.660766,-0.56981 -1.321041,-1.13924 -2.623567,-1.13924 -1.302516,0 -1.962801,0.56943 -2.623556,1.13924 -0.733854,0.6328 -1.468669,1.26637 -2.963762,1.26637 -1.495014,0 -2.229819,-0.63357 -2.963673,-1.26637 -0.660755,-0.56981 -1.32104,-1.13924 -2.623566,-1.13924 -1.302516,0 -1.962801,0.56943 -2.623556,1.13924 -0.733854,0.6328 -1.468669,1.26637 -2.963763,1.26637 -1.495104,0 -2.229908,-0.63357 -2.963772,-1.26637 -0.660756,-0.56981 -1.321031,-1.13924 -2.623456,-1.13924 -1.302526,0 -1.962811,0.56943 -2.623567,1.13924 -0.733853,0.6328 -1.468658,1.26637 -2.963762,1.26637 -1.495104,0 -2.229909,-0.63357 -2.963762,-1.26637 -0.660766,-0.56981 -1.321041,-1.13924 -2.6235667,-1.13924 -1.3025158,0 -1.9628007,0.56943 -2.6235564,1.13924 -0.6809827,0.58725 -1.3631169,1.17488 -2.6524751,1.25655 z m 1.8715685,3.43421 c 0.5160917,0.76747 1.0769334,1.49281 1.6761365,2.18108 0.4544391,-0.22786 1.001252,-0.37844 1.7284266,-0.37844 1.4883246,0 2.2207466,0.63147 2.9535586,1.26351 0.661897,0.57067 1.324565,1.1421 2.63376,1.1421 1.309305,0 1.971873,-0.57143 2.63377,-1.1421 0.732812,-0.63204 1.465144,-1.26351 2.953559,-1.26351 1.488134,0 2.220656,0.63147 2.953458,1.26351 0.661908,0.57067 1.324576,1.1421 2.63377,1.1421 1.309305,0 1.971873,-0.57143 2.63377,-1.1421 0.732813,-0.63204 1.465134,-1.26351 2.953559,-1.26351 1.488325,0 2.220747,0.63147 2.953559,1.26351 0.661897,0.57067 1.324565,1.1421 2.63367,1.1421 1.309295,0 1.971873,-0.57143 2.63377,-1.1421 0.732812,-0.63204 1.465133,-1.26351 2.953558,-1.26351 1.488325,0 2.220657,0.63147 2.953459,1.26351 0.661897,0.57067 1.324475,1.1421 2.63377,1.1421 1.309105,0 1.971773,-0.57143 2.63367,-1.1421 0.732812,-0.63204 1.465234,-1.26351 2.953559,-1.26351 1.488424,0 2.220746,0.63147 2.953558,1.26351 0.661897,0.57067 1.324465,1.1421 2.63377,1.1421 1.309205,0 1.971863,-0.57143 2.63377,-1.1421 0.732802,-0.63204 1.465224,-1.26351 2.953549,-1.26351 1.488325,0 2.220656,0.63157 2.953559,1.26351 0.661907,0.57067 1.324475,1.1421 2.633679,1.1421 1.309195,0 1.971863,-0.57143 2.633771,-1.1421 0.732802,-0.63204 1.465223,-1.26351 2.953548,-1.26351 0.762963,0 1.327149,0.16583 1.794656,0.41266 0.598732,-0.68503 1.159574,-1.40723 1.675946,-2.17089 -0.307572,-0.20127 -0.577354,-0.43381 -0.847035,-0.66635 -0.660766,-0.56981 -1.321041,-1.13924 -2.623567,-1.13924 -1.302516,0 -1.962801,0.56943 -2.623556,1.13924 -0.733854,0.63281 -1.468669,1.26637 -2.963763,1.26637 -1.495013,0 -2.229818,-0.63356 -2.963672,-1.26637 -0.660755,-0.56981 -1.32113,-1.13924 -2.623566,-1.13924 -1.302516,0 -1.962801,0.56943 -2.623556,1.13924 -0.733854,0.63281 -1.468669,1.26637 -2.963763,1.26637 -1.495104,0 -2.229909,-0.63356 -2.963772,-1.26637 -0.660756,-0.56981 -1.321031,-1.13924 -2.623556,-1.13924 -1.302526,0 -1.962801,0.56943 -2.623557,1.13924 -0.733853,0.63281 -1.468668,1.26637 -2.963672,1.26637 -1.495104,0 -2.229909,-0.63356 -2.963762,-1.26637 -0.660766,-0.56981 -1.321041,-1.13924 -2.623467,-1.13924 -1.302525,0 -1.9628,0.56943 -2.623556,1.13924 -0.733864,0.63281 -1.468668,1.26637 -2.963772,1.26637 -1.495004,0 -2.229819,-0.63356 -2.963673,-1.26637 -0.660755,-0.56981 -1.32103,-1.13924 -2.623556,-1.13924 -1.302526,0 -1.962801,0.56943 -2.623556,1.13924 -0.733864,0.63281 -1.468669,1.26637 -2.963773,1.26637 -1.495093,0 -2.229908,-0.63356 -2.963762,-1.26637 -0.660756,-0.56981 -1.321041,-1.13924 -2.623466,-1.13924 -1.302526,0 -1.962801,0.56943 -2.623557,1.13924 -0.733853,0.63281 -1.468668,1.26637 -2.963772,1.26637 -1.495094,0 -2.229909,-0.63356 -2.963762,-1.26637 -0.660756,-0.56981 -1.321031,-1.13924 -2.6235566,-1.13924 -1.3025257,0 -1.9628007,0.56943 -2.6235563,1.13924 -0.2501253,0.21567 -0.500631,0.43124 -0.7810068,0.62194 z m 2.0291296,2.57821 c 2.0568969,2.25761 4.5324451,4.10284 7.1950331,5.69267 1.157752,-0.0635 1.779956,-0.59983 2.401489,-1.13571 0.732812,-0.63205 1.465144,-1.26352 2.953559,-1.26352 1.488134,0 2.220656,0.63147 2.953458,1.26352 0.661908,0.57067 1.324576,1.1421 2.63377,1.1421 1.309305,0 1.971873,-0.57143 2.63377,-1.1421 0.732813,-0.63205 1.465134,-1.26352 2.953559,-1.26352 1.488325,0 2.220747,0.63147 2.953559,1.26352 0.661897,0.57067 1.324565,1.1421 2.63367,1.1421 1.309295,0 1.971873,-0.57143 2.63377,-1.1421 0.732812,-0.63205 1.465133,-1.26352 2.953558,-1.26352 1.488325,0 2.220657,0.63147 2.953459,1.26352 0.661897,0.57067 1.324475,1.1421 2.63377,1.1421 1.309105,0 1.971773,-0.57143 2.63367,-1.1421 0.732812,-0.63205 1.465234,-1.26352 2.953559,-1.26352 1.488424,0 2.220746,0.63147 2.953558,1.26352 0.661897,0.57067 1.324465,1.1421 2.63377,1.1421 1.309205,0 1.971863,-0.57143 2.63377,-1.1421 0.732802,-0.63205 1.465224,-1.26352 2.953549,-1.26352 1.488325,0 2.220656,0.63157 2.953559,1.26352 0.637374,0.54951 1.275329,1.09959 2.490818,1.13962 2.652665,-1.58344 5.119812,-3.42049 7.172704,-5.6658 -0.38793,-0.18308 -0.848187,-0.30125 -1.442524,-0.30125 -1.302516,0 -1.962801,0.56943 -2.623556,1.13924 -0.733854,0.63281 -1.468669,1.26637 -2.963763,1.26637 -1.495013,0 -2.229818,-0.63356 -2.963672,-1.26637 -0.660755,-0.56981 -1.32113,-1.13924 -2.623566,-1.13924 -1.302516,0 -1.962801,0.56943 -2.623556,1.13924 -0.733854,0.63281 -1.468669,1.26637 -2.963763,1.26637 -1.495104,0 -2.229909,-0.63356 -2.963772,-1.26637 -0.660756,-0.56981 -1.321031,-1.13924 -2.623556,-1.13924 -1.302526,0 -1.962801,0.56943 -2.623557,1.13924 -0.733853,0.63281 -1.468668,1.26637 -2.963672,1.26637 -1.495104,0 -2.229909,-0.63356 -2.963762,-1.26637 -0.660766,-0.56981 -1.321041,-1.13924 -2.623467,-1.13924 -1.302525,0 -1.9628,0.56943 -2.623556,1.13924 -0.733864,0.63281 -1.468668,1.26637 -2.963772,1.26637 -1.495004,0 -2.229819,-0.63356 -2.963673,-1.26637 -0.660755,-0.56981 -1.32103,-1.13924 -2.623556,-1.13924 -1.302526,0 -1.962801,0.56943 -2.623556,1.13924 -0.733864,0.63281 -1.468669,1.26637 -2.963773,1.26637 -1.495093,0 -2.229908,-0.63356 -2.963762,-1.26637 -0.660756,-0.56981 -1.321041,-1.13924 -2.623466,-1.13924 -1.302526,0 -1.962801,0.56943 -2.623557,1.13924 -0.733853,0.63281 -1.468668,1.26637 -2.963772,1.26637 -1.495094,0 -2.229909,-0.63356 -2.963762,-1.26637 -0.660756,-0.56981 -1.321031,-1.13924 -2.6235566,-1.13924 -0.5601708,0 -1.0017326,0.10512 -1.3754335,0.27047 z m 7.9024521,6.10676 c 0.979402,0.56209 1.980654,1.09235 2.993071,1.59812 0.439639,-0.20757 0.966315,-0.34252 1.654558,-0.34252 1.488134,0 2.220656,0.63147 2.953458,1.26352 0.661908,0.57066 1.324576,1.1421 2.63377,1.1421 1.309305,0 1.971873,-0.57144 2.63377,-1.1421 0.732813,-0.63205 1.465134,-1.26352 2.953559,-1.26352 1.488325,0 2.220747,0.63147 2.953559,1.26352 0.661897,0.57066 1.324565,1.1421 2.63367,1.1421 1.309295,0 1.971873,-0.57144 2.63377,-1.1421 0.732812,-0.63205 1.465133,-1.26352 2.953558,-1.26352 1.488325,0 2.220657,0.63147 2.953459,1.26352 0.661897,0.57066 1.324475,1.1421 2.63377,1.1421 1.309105,0 1.971773,-0.57144 2.63367,-1.1421 0.732812,-0.63205 1.465234,-1.26352 2.953559,-1.26352 1.488424,0 2.220746,0.63147 2.953558,1.26352 0.661897,0.57066 1.324465,1.1421 2.63377,1.1421 1.309205,0 1.971863,-0.57144 2.63377,-1.1421 0.732802,-0.63205 1.465224,-1.26352 2.953549,-1.26352 0.713817,0 1.25348,0.14505 1.702952,0.36596 1.019577,-0.50843 2.028269,-1.04127 3.014631,-1.6066 -0.942754,-0.19137 -1.518575,-0.6877 -2.094017,-1.18394 -0.660755,-0.56981 -1.32113,-1.13924 -2.623566,-1.13924 -1.302516,0 -1.962801,0.56943 -2.623556,1.13924 -0.733854,0.63281 -1.468669,1.26638 -2.963763,1.26638 -1.495104,0 -2.229909,-0.63357 -2.963772,-1.26638 -0.660756,-0.56981 -1.321031,-1.13924 -2.623556,-1.13924 -1.302526,0 -1.962801,0.56943 -2.623557,1.13924 -0.733853,0.63281 -1.468668,1.26638 -2.963672,1.26638 -1.495104,0 -2.229909,-0.63357 -2.963762,-1.26638 -0.660766,-0.56981 -1.321041,-1.13924 -2.623467,-1.13924 -1.302525,0 -1.9628,0.56943 -2.623556,1.13924 -0.733864,0.63281 -1.468668,1.26638 -2.963772,1.26638 -1.495004,0 -2.229819,-0.63357 -2.963673,-1.26638 -0.660755,-0.56981 -1.32103,-1.13924 -2.623556,-1.13924 -1.302526,0 -1.962801,0.56943 -2.623556,1.13924 -0.733864,0.63281 -1.468669,1.26638 -2.963773,1.26638 -1.495093,0 -2.229908,-0.63357 -2.963762,-1.26638 -0.660756,-0.56981 -1.321041,-1.13924 -2.623466,-1.13924 -1.302526,0 -1.962801,0.56943 -2.623557,1.13924 -0.560941,0.48376 -1.122824,0.9677 -2.024072,1.16898 z m 3.613453,1.90432 c 2.241174,1.09388 4.524434,2.07673 6.730481,3.0287 0.969759,0.41847 1.967286,0.84018 2.976559,1.27562 0.608836,-0.48299 1.315213,-0.88412 2.501693,-0.88412 1.488325,0 2.220747,0.63147 2.953559,1.26352 0.661897,0.57066 1.324565,1.14209 2.63367,1.14209 1.309295,0 1.971873,-0.57143 2.63377,-1.14209 0.732812,-0.63205 1.465133,-1.26352 2.953558,-1.26352 1.488325,0 2.220657,0.63147 2.953459,1.26352 0.661897,0.57066 1.324475,1.14209 2.63377,1.14209 1.309105,0 1.971773,-0.57143 2.63367,-1.14209 0.732812,-0.63205 1.465234,-1.26352 2.953559,-1.26352 1.208529,0 1.918431,0.41619 2.534997,0.91109 1.030551,-0.44497 2.049737,-0.87554 3.039544,-1.30259 2.19364,-0.94663 4.463442,-1.92367 6.6924,-3.0103 -0.310717,-0.1016 -0.667054,-0.16202 -1.092294,-0.16202 -1.302516,0 -1.962801,0.56943 -2.623556,1.13924 -0.733854,0.63281 -1.468669,1.26638 -2.963763,1.26638 -1.495104,0 -2.229909,-0.63357 -2.963772,-1.26638 -0.660756,-0.56981 -1.321031,-1.13924 -2.623556,-1.13924 -1.302526,0 -1.962801,0.56943 -2.623557,1.13924 -0.733853,0.63281 -1.468668,1.26638 -2.963672,1.26638 -1.495104,0 -2.229909,-0.63357 -2.963762,-1.26638 -0.660766,-0.56981 -1.321041,-1.13924 -2.623467,-1.13924 -1.302525,0 -1.9628,0.56943 -2.623556,1.13924 -0.733864,0.63281 -1.468668,1.26638 -2.963772,1.26638 -1.495004,0 -2.229819,-0.63357 -2.963673,-1.26638 -0.660755,-0.56981 -1.32103,-1.13924 -2.623556,-1.13924 -1.302526,0 -1.962801,0.56943 -2.623556,1.13924 -0.733864,0.63281 -1.468669,1.26638 -2.963773,1.26638 -1.495093,0 -2.229908,-0.63357 -2.963762,-1.26638 -0.660756,-0.56981 -1.321041,-1.13924 -2.623466,-1.13924 -0.398705,0 -0.737389,0.0533 -1.034176,0.14362 z m 10.240876,4.53552 c 2.592735,1.12771 5.242436,2.35577 7.674085,3.85135 0.547003,0.33651 1.083993,0.6875 1.609908,1.05613 0.33572,-0.20004 0.620482,-0.44515 0.904773,-0.69027 0.732802,-0.63204 1.465133,-1.26351 2.953548,-1.26351 1.488425,0 2.220757,0.63147 2.953559,1.26351 0.299081,0.25789 0.598061,0.51558 0.956973,0.72096 0.539843,-0.37978 1.091813,-0.74097 1.654086,-1.08682 2.412945,-1.48405 5.040226,-2.70477 7.613875,-3.82543 -0.501292,-0.36024 -1.096679,-0.63614 -2.003935,-0.63614 -1.302526,0 -1.962801,0.56943 -2.623557,1.13924 -0.733853,0.63281 -1.468668,1.26638 -2.963672,1.26638 -1.495104,0 -2.229909,-0.63357 -2.963762,-1.26638 -0.660766,-0.56981 -1.321041,-1.13924 -2.623467,-1.13924 -1.302525,0 -1.9628,0.56943 -2.623556,1.13924 -0.733864,0.63281 -1.468668,1.26638 -2.963772,1.26638 -1.495004,0 -2.229819,-0.63357 -2.963673,-1.26638 -0.660755,-0.56981 -1.32103,-1.13924 -2.623556,-1.13924 -0.885306,0 -1.474106,0.26275 -1.967857,0.61022 z m 9.72917,5.22579 c 1.224841,0.89317 2.384886,1.8886 3.461339,3.02422 1.062894,-1.12132 2.207008,-2.10589 3.414767,-2.99058 -0.304519,-0.20013 -0.571907,-0.43076 -0.839395,-0.66139 -0.660766,-0.56981 -1.321041,-1.13924 -2.623567,-1.13924 -1.302516,0 -1.962801,0.56943 -2.623556,1.13924 -0.252599,0.21786 -0.505778,0.43562 -0.789588,0.62775 z"
   class="fil6" />
</svg>