<?xml version="1.0" encoding="UTF-8" standalone="no"?>
<!-- Creator: CorelDRAW -->

<svg
   xmlns:dc="http://purl.org/dc/elements/1.1/"
   xmlns:cc="http://creativecommons.org/ns#"
   xmlns:rdf="http://www.w3.org/1999/02/22-rdf-syntax-ns#"
   xmlns:svg="http://www.w3.org/2000/svg"
   xmlns="http://www.w3.org/2000/svg"
   xmlns:xlink="http://www.w3.org/1999/xlink"
   xmlns:sodipodi="http://sodipodi.sourceforge.net/DTD/sodipodi-0.dtd"
   xmlns:inkscape="http://www.inkscape.org/namespaces/inkscape"
   xml:space="preserve"
   width="300"
   height="360"
   style="fill-rule:evenodd"
   viewBox="0 0 84.666667 101.6"
   id="svg2"
   version="1.1"
   inkscape:version="0.48.1 "
   sodipodi:docname="миоры.svg"><metadata
   id="metadata42"><rdf:RDF><cc:Work
       rdf:about=""><dc:format>image/svg+xml</dc:format><dc:type
         rdf:resource="http://purl.org/dc/dcmitype/StillImage" /></cc:Work></rdf:RDF></metadata><sodipodi:namedview
   pagecolor="#ffffff"
   bordercolor="#666666"
   borderopacity="1"
   objecttolerance="10"
   gridtolerance="10"
   guidetolerance="10"
   inkscape:pageopacity="0"
   inkscape:pageshadow="2"
   inkscape:window-width="640"
   inkscape:window-height="480"
   id="namedview40"
   showgrid="false"
   fit-margin-top="0"
   fit-margin-left="0"
   fit-margin-right="0"
   fit-margin-bottom="0"
   inkscape:zoom="0.725"
   inkscape:cx="150"
   inkscape:cy="180"
   inkscape:window-x="0"
   inkscape:window-y="0"
   inkscape:window-maximized="0"
   inkscape:current-layer="svg2" />
 <defs
   id="defs4"><style
     type="text/css"
     id="style6">
   
    .fil0 {fill:black}
    .fil1 {fill:#367FC1}
    .fil6 {fill:#B2B2B2}
    .fil2 {fill:white}
    .fil3 {fill:black;fill-rule:nonzero}
    .fil7 {fill:#E5E5E5;fill-rule:nonzero}
    .fil4 {fill:white;fill-rule:nonzero}
    .fil8 {fill:url(#id0)}
    .fil5 {fill:url(#id1);fill-rule:nonzero}
   
  </style><radialGradient
     id="id0"
     gradientUnits="userSpaceOnUse"
     cx="94.3899"
     cy="61.568901"
     r="1.0773"
     fx="94.3899"
     fy="61.568901">
   <stop
   offset="0"
   style="stop-color:#7F7F7F"
   id="stop9" />
   <stop
   offset="1"
   style="stop-color:black"
   id="stop11" />
  </radialGradient><linearGradient
     id="id1"
     gradientUnits="userSpaceOnUse"
     x1="84.493698"
     y1="80.127998"
     x2="109.646"
     y2="55.6898">
   <stop
   offset="0"
   style="stop-color:#F5E535"
   id="stop14" />
   <stop
   offset="1"
   style="stop-color:#DBC935"
   id="stop16" />
  </linearGradient><linearGradient
     inkscape:collect="always"
     xlink:href="#id1"
     id="linearGradient3044"
     gradientUnits="userSpaceOnUse"
     x1="84.493698"
     y1="80.127998"
     x2="109.646"
     y2="55.6898"
     gradientTransform="matrix(0.42205872,0,0,0.42263054,-2.0959872,-11.764386)" /></defs>
 <path
   id="path3025"
   d="m 62.583288,48.550341 c 0.828322,0 1.500011,0.671689 1.500011,1.500012 l 0,1.499658 c 0,0.828322 -0.671689,1.500011 -1.500011,1.500011 l -1.500011,0 0,-4.499681 1.500011,0 z m 0,5.999692 c 1.656644,0 3.000022,-1.343378 3.000022,-3.000022 l 0,-1.499658 c 0,-1.656645 -1.343378,-3.000023 -3.000022,-3.000023 l -3.000022,0 0,7.499703 3.000022,0 z m -6.000044,-7.499703 1.500011,0 0,7.499703 -1.500011,0 0,-7.499703 z m -3.000023,0 1.500011,0 0,7.499703 -1.500011,0 -3.000022,-4.708525 0,4.708525 -1.500011,0 0,-7.499703 1.500011,0 3.000022,4.708525 0,-4.708525 z m -22.499884,0 4.499998,0 0,1.500011 -2.999986,0 0,1.500012 2.999986,0 0,1.500011 -2.999986,0 0,1.499658 2.999986,0 0,1.500011 -4.499998,0 0,-7.499703 z m -5.999973,-3.52e-4 1.499975,0 0,6.000044 3.000023,0 0,1.500011 -4.499998,0 0,-7.500055 z m 15.750398,6.000044 1.499588,0 c 1.242272,0 2.250158,-1.007533 2.250158,-2.250017 0,-1.24213 -1.026584,-2.24543 -2.250158,-2.250016 l -1.499588,0 0,1.500011 1.499588,0 c 0.414091,0 0.750147,0.336197 0.750147,0.750005 0,0.414161 -0.336056,0.750006 -0.750147,0.750006 l -1.499588,0 0,1.500011 z m 1.499588,-7.500055 c 2.898916,0 5.249827,2.351263 5.249827,5.250038 0,2.899128 -2.350911,5.250039 -5.249827,5.250039 -2.899022,0 -5.250004,-2.350911 -5.250004,-5.250039 0,-2.898775 2.350982,-5.250038 5.250004,-5.250038 z m 0,1.500011 c 2.070594,0 3.750169,1.679575 3.750169,3.750027 0,2.070806 -1.679575,3.750028 -3.750169,3.750028 -2.0707,0 -3.749992,-1.679222 -3.749992,-3.750028 0,-2.070452 1.679292,-3.750027 3.749992,-3.750027 z"
   style="fill:#a90000;stroke:none"
   inkscape:connector-curvature="0" /><path
   style="fill:#000000"
   inkscape:connector-curvature="0"
   id="path20"
   d="M -1.390608e-6,66.755297 C 0.09943564,67.60508 0.22643311,68.447256 0.38432528,69.279838 3.8660143,87.637599 21.325486,101.6 42.333332,101.6 c 21.007382,0 38.466559,-13.961768 41.948796,-32.318979 0.158019,-0.83292 0.285059,-1.675518 0.384538,-2.525682 l 0,-66.755339025506003 -84.666667390608,0 0,66.755339025506003 z"
   class="fil0" /><path
   style="fill:#367fc1"
   inkscape:connector-curvature="0"
   id="path22"
   d="m 84.200249,66.627662 0,-66.167037 -83.73391771,0 0,66.167037 C 0.57834567,66.584512 0.6899802,66.54115 0.80161474,66.497873 2.8944773,65.68676 4.9857783,64.876197 9.1815062,64.876197 l 0,-0.0013 c 4.1927318,0 6.2855518,0.811155 8.3799338,1.622901 2.043566,0.79201 4.088905,1.584738 8.196,1.584738 4.107138,0 6.152435,-0.792728 8.196001,-1.58478 2.092862,-0.811113 4.184163,-1.621676 8.379891,-1.621676 4.195728,0 6.287029,0.810563 8.379892,1.621676 2.043566,0.792052 4.088862,1.58478 8.196,1.58478 4.107138,0 6.152435,-0.792728 8.196001,-1.58478 2.092862,-0.811113 4.184163,-1.621676 8.379891,-1.621676 4.195728,0 6.287029,0.810563 8.379892,1.621676 0.111634,0.04328 0.223227,0.08664 0.335241,0.129748 z M 16.866267,93.277688 c 7.072438,4.930154 15.897053,7.857842 25.467065,7.857842 9.570055,0 18.394839,-2.927688 25.467446,-7.857885 -0.161058,0.06166 -0.321314,0.123831 -0.481443,0.185873 -2.097758,0.813057 -4.197247,1.62679 -8.410068,1.62679 -4.21278,0 -6.312311,-0.813733 -8.410069,-1.62679 -2.041751,-0.791291 -4.081941,-1.582033 -8.165823,-1.582033 -4.083883,0 -6.124072,0.790742 -8.165824,1.582033 -2.097758,0.813057 -4.197289,1.62679 -8.410068,1.62679 -4.212822,0 -6.312311,-0.813733 -8.410069,-1.626747 -0.160087,-0.06204 -0.320089,-0.124169 -0.481147,-0.185873 z M 5.55197,81.344545 c 1.0981546,1.800111 2.3481659,3.511933 3.7357684,5.11962 4.1217836,0.01361 6.1971726,0.817748 8.2737436,1.622605 2.043566,0.79201 4.088905,1.584738 8.196001,1.584738 4.107137,0 6.152434,-0.792728 8.196,-1.58478 2.092863,-0.811113 4.184164,-1.621676 8.379892,-1.621676 4.195727,0 6.287028,0.810563 8.379891,1.621676 2.043566,0.792052 4.088863,1.58478 8.196001,1.58478 4.107137,0 6.152434,-0.792728 8.196,-1.58478 2.074925,-0.804139 4.148668,-1.607644 8.272773,-1.62138 1.388024,-1.608024 2.638416,-3.320228 3.736866,-5.120803 -1.017542,-0.160303 -2.197956,-0.257509 -3.629748,-0.257509 -4.083882,0 -6.124072,0.790742 -8.165823,1.582033 -2.097758,0.813057 -4.197247,1.62679 -8.410068,1.62679 -4.21278,0 -6.312311,-0.813733 -8.410069,-1.62679 -2.041751,-0.791291 -4.081941,-1.582033 -8.165823,-1.582033 -4.083883,0 -6.12403,0.790742 -8.165782,1.582033 -2.097758,0.813057 -4.197289,1.62679 -8.410068,1.62679 -4.212822,0 -6.31231,-0.813733 -8.410069,-1.626747 C 15.307266,81.87837 13.268638,81.08822 9.1815906,81.08822 l 0,-0.0013 c -1.4318342,0 -2.6120792,0.09716 -3.6296206,0.257509 z m 76.063423,-4.866506 c 0.651574,-1.54108 1.197971,-3.129959 1.631468,-4.759369 -1.915345,-0.735884 -3.946883,-1.425998 -7.761787,-1.425998 -4.083882,0 -6.124072,0.790742 -8.165823,1.582033 -2.097759,0.813057 -4.197248,1.626789 -8.410069,1.626789 -4.212779,0 -6.31231,-0.813732 -8.410069,-1.626789 -2.041751,-0.791291 -4.08194,-1.582033 -8.165823,-1.582033 -4.083882,0 -6.124072,0.790742 -8.165823,1.582033 -2.097759,0.813057 -4.19729,1.626789 -8.410069,1.626789 -4.212821,0 -6.31231,-0.813732 -8.410068,-1.626747 -2.04019,-0.790741 -4.078818,-1.580892 -8.165866,-1.580892 l 0,-0.0013 c -3.8149466,0 -5.8463996,0.690071 -7.7617865,1.425997 0.4335809,1.62979 0.9801892,3.219093 1.6319323,4.760468 l 0.003,0.0068 c 1.5341412,-0.467767 3.3791709,-0.815381 6.1268998,-0.815381 l 0,-0.0013 c 4.1927318,0 6.2855518,0.811155 8.3799338,1.622901 2.043566,0.79201 4.088905,1.584738 8.196,1.584738 4.107138,0 6.152435,-0.792728 8.196001,-1.58478 2.092862,-0.811112 4.184121,-1.621676 8.379849,-1.621676 4.195728,0 6.287029,0.810564 8.379892,1.621676 2.043566,0.792052 4.088862,1.58478 8.196,1.58478 4.107138,0 6.152434,-0.792728 8.196001,-1.58478 2.092862,-0.811112 4.184163,-1.621676 8.379891,-1.621676 2.747645,0 4.592716,0.347614 6.126858,0.815339 l 0.0034,-0.0079 z"
   class="fil1" /><path
   style="fill:#ffffff"
   inkscape:connector-curvature="0"
   id="path24"
   d="m 83.395805,71.139243 c 0.316882,-1.276978 0.564757,-2.578088 0.739785,-3.899738 -0.16224,-0.06213 -0.32334,-0.124719 -0.484608,-0.187226 -2.041751,-0.791291 -4.081941,-1.582033 -8.165824,-1.582033 -4.083882,0 -6.124072,0.790742 -8.165823,1.582033 -2.097758,0.813057 -4.197247,1.62679 -8.410068,1.62679 -4.21278,0 -6.312311,-0.813733 -8.410069,-1.62679 -2.041751,-0.791291 -4.081941,-1.582033 -8.165823,-1.582033 -4.083883,0 -6.124072,0.790742 -8.165824,1.582033 -2.097758,0.813057 -4.197289,1.62679 -8.410068,1.62679 -4.212822,0 -6.312311,-0.813733 -8.410069,-1.626747 C 15.307224,66.26158 13.268596,65.47143 9.1815484,65.47143 l 0,-0.0013 c -4.0838824,0 -6.124072,0.790742 -8.1658233,1.582033 -0.16126861,0.06251 -0.32236843,0.125098 -0.48465,0.187225 0.17502775,1.32165 0.42294504,2.622718 0.7398267,3.899739 1.947379,-0.746366 4.027833,-1.440663 7.9106466,-1.440663 l 0,-0.0013 c 4.1927316,0 6.2855516,0.811155 8.3799336,1.622901 2.043566,0.79201 4.088905,1.584738 8.196001,1.584738 4.107137,0 6.152434,-0.792728 8.196,-1.58478 2.092863,-0.811113 4.184164,-1.621676 8.379892,-1.621676 4.195727,0 6.287028,0.810563 8.379891,1.621676 2.043566,0.792052 4.088863,1.58478 8.196001,1.58478 4.107137,0 6.152434,-0.792728 8.196,-1.58478 2.092863,-0.811113 4.184164,-1.621676 8.379891,-1.621676 3.882814,0 5.963268,0.694298 7.910647,1.440663 z M 9.8195746,87.067005 c 1.6341274,1.817438 3.4459824,3.49562 5.4114254,5.012018 0.839813,0.252226 1.585042,0.541178 2.330482,0.830089 2.043566,0.792009 4.088905,1.584737 8.196001,1.584737 4.107137,0 6.152434,-0.792728 8.196,-1.58478 2.092863,-0.811112 4.184164,-1.621675 8.379892,-1.621675 4.195727,0 6.287028,0.810563 8.379891,1.621675 2.043566,0.792052 4.088863,1.58478 8.196001,1.58478 4.107137,0 6.152434,-0.792728 8.196,-1.58478 0.745187,-0.288825 1.490416,-0.577609 2.330271,-0.829708 1.966076,-1.516863 3.778354,-3.19551 5.412903,-5.013582 -3.664652,0.07785 -5.596415,0.826285 -7.529106,1.575313 -2.097758,0.813057 -4.197247,1.62679 -8.410068,1.62679 -4.21278,0 -6.312311,-0.813733 -8.410069,-1.62679 -2.041751,-0.791291 -4.081941,-1.582032 -8.165823,-1.582032 -4.083883,0 -6.124072,0.790741 -8.165824,1.582032 -2.097758,0.813057 -4.197289,1.62679 -8.410068,1.62679 -4.212822,0 -6.312311,-0.813733 -8.410069,-1.626747 -1.93113,-0.748479 -3.861078,-1.496281 -7.5278394,-1.57413 z M 3.2937449,77.035658 c 0.5706233,1.289319 1.2156979,2.543475 1.9291882,3.759087 1.096002,-0.186802 2.3778788,-0.3018 3.9586575,-0.3018 l 0,-0.0013 c 4.1927314,0 6.2855514,0.811155 8.3799334,1.622901 2.043566,0.79201 4.088905,1.584738 8.196001,1.584738 4.107138,0 6.152434,-0.792728 8.196,-1.58478 2.092863,-0.811113 4.184122,-1.621676 8.37985,-1.621676 4.195727,0 6.287028,0.810563 8.379891,1.621676 2.043566,0.792052 4.088863,1.58478 8.196001,1.58478 4.107137,0 6.152434,-0.792728 8.196,-1.58478 2.092863,-0.811113 4.184164,-1.621676 8.379891,-1.621676 1.580779,0 2.862825,0.11504 3.958827,0.301843 0.71349,-1.215612 1.358522,-2.469853 1.929146,-3.759172 -1.479991,-0.443973 -3.26129,-0.771005 -5.887973,-0.771005 -4.083882,0 -6.124072,0.790742 -8.165823,1.582033 -2.097758,0.813057 -4.197247,1.62679 -8.410068,1.62679 -4.21278,0 -6.312311,-0.813733 -8.410069,-1.62679 -2.041751,-0.791291 -4.081941,-1.582033 -8.165823,-1.582033 -4.083883,0 -6.12403,0.790742 -8.165782,1.582033 -2.097758,0.813057 -4.197289,1.62679 -8.410068,1.62679 -4.212822,0 -6.31231,-0.813733 -8.410069,-1.626748 C 15.307266,77.05586 13.268638,76.26571 9.1815906,76.26571 l 0,-0.0013 c -2.6267668,0 -4.4078124,0.327031 -5.8878457,0.771047 z"
   class="fil2" /><path
   style="fill:#000000;fill-rule:nonzero"
   inkscape:connector-curvature="0"
   id="path26"
   d="m 18.6861,32.848494 c 0.290925,0.94403 0.706526,1.857546 1.35886,2.703145 0.73396,0.951341 1.241275,1.98294 1.575925,3.137228 0.340222,1.173476 0.847832,2.199412 1.41014,2.871437 0.378123,0.451834 1.031934,1.035529 1.656117,0.666615 0.182245,-0.107728 0.359298,-0.289967 0.526138,-0.556562 l 0.0051,0.003 c 0.101463,-0.437634 0.230486,-0.851981 0.387239,-1.242449 0.45308,-1.128762 1.175391,-2.122662 2.130425,-2.877353 1.143231,-2.295053 2.624024,-4.380735 4.573977,-6.085373 1.965739,-1.7185 4.404732,-3.047631 7.450054,-3.811028 1.092499,-0.273823 2.213403,-0.646245 3.319239,-1.064142 1.106469,-0.418151 2.203146,-0.884227 3.242888,-1.343542 1.977598,-0.87362 4.028804,-1.915616 5.768108,-3.275936 1.727022,-1.350728 3.151428,-3.018512 3.896024,-5.152881 0.46017,-1.319115 0.522382,-2.46905 0.287675,-3.417095 -0.453586,-1.832314 -2.062221,-2.886778 -3.880197,-3.007396 -1.231398,-0.08174 -2.618494,0.232784 -3.975624,1.005987 -1.287448,0.73356 -2.645549,1.875085 -4.035937,3.190438 l -0.01481,0.0216 -0.0046,-0.0032 c -0.99897,0.945974 -2.014401,1.981081 -3.032576,3.018935 -0.752995,0.767581 -1.507467,1.536685 -2.258689,2.273245 l -0.0052,0.0057 1.27e-4,1.27e-4 -4.64e-4,4.65e-4 -8.5e-5,-8.5e-5 c -0.876447,0.963682 -2.469254,2.924307 -3.90417,3.123874 -0.363266,0.0505 -0.680358,-0.08191 -0.864207,-0.401415 -0.434932,0.254804 -1.002094,0.553688 -1.51536,0.482686 -0.301476,-0.04171 -0.523564,-0.252183 -0.52445,-0.566324 -0.0021,-0.683648 0.786886,-1.182352 1.213335,-1.640568 0.905991,-0.973318 1.696844,-2.089062 2.403075,-3.265201 0.384622,-0.640581 0.74409,-1.298701 1.083636,-1.961724 C 36.6455,15.43844 36.4446,15.059214 36.4446,14.633202 c 0,-0.454624 0.22884,-0.855658 0.577503,-1.09419 -0.773043,-0.928942 -0.748859,-2.06379 -0.08272,-3.0377 0.274296,-0.400992 0.652334,-0.7827114 1.112589,-1.1293107 l 8.44e-4,-6.34e-4 C 40.081733,7.8436847 42.926283,7.043476 45.870016,6.215416 46.692777,5.9840258 47.523304,5.7503534 48.315804,5.5076366 50.28648,4.904078 52.36398,4.785192 54.28937,5.1500489 c 1.673969,0.3172265 3.234278,0.9993945 4.512061,2.0457432 1.280948,1.0489267 2.277808,2.4633866 2.821251,4.2425769 0.510902,1.672645 0.619118,3.665263 0.182414,5.975911 l -2.53e-4,0.0014 c -0.673142,3.55893 -3.286783,6.410376 -5.235639,8.536588 -0.704205,0.7683 -1.483663,1.625944 -2.016596,2.529571 -0.242389,-0.10794 -0.423621,-0.195678 -0.628404,-0.35501 -0.496678,0.854263 -1.075616,1.402584 -1.626698,1.924448 -0.613378,0.580863 -1.098661,1.142286 -1.498435,1.886496 -0.157302,-0.179914 -0.322538,-0.346811 -0.45996,-0.54363 -0.296876,0.75727 -0.777095,1.341514 -1.224013,1.885144 -0.338913,0.412318 -0.65609,0.790953 -0.88417,1.275288 -0.168402,-0.109166 -0.339842,-0.212119 -0.483891,-0.353869 -0.538504,1.563141 -1.121705,2.892737 -0.906455,4.575187 0.178742,1.396075 1.24043,2.319734 1.543891,3.642948 0.660099,0.371366 1.348899,0.548913 2.068087,0.523048 0.758102,-0.0273 1.556215,-0.280331 2.39683,-0.770117 0.785155,-0.457498 1.602599,-0.703131 2.427048,-0.828314 2.471196,-0.375338 3.74058,0.438479 5.820865,-1.666179 0.70028,-0.70854 1.481553,-1.333061 2.172083,-2.050265 0.918949,-0.954427 1.353036,-2.151739 1.316233,-3.476348 l -2.54e-4,-0.0091 0,-8.45e-4 c -0.01553,-0.586907 0.03862,-1.176308 0.153588,-1.751846 0.28261,-1.412896 0.916796,-2.70716 1.649363,-3.795603 -0.420877,-2.190959 -0.776968,-4.381495 -1.02594,-6.586612 -0.249901,-2.213359 -0.391502,-4.442988 -0.382048,-6.704991 -1.185521,-1.932352 -1.452009,-4.149007 -1.805947,-6.3345561 l -2.53e-4,-0.00156 c -0.03533,-0.2184155 -0.05934,-0.4269836 -0.07247,-0.6246479 -0.01325,-0.1990168 -0.01595,-0.3920744 -0.0089,-0.577736 0.03752,-0.9808832 0.361029,-1.7081036 0.868934,-2.0433764 l -4.22e-4,-8.452e-4 4.22e-4,-3.382e-4 0.0017,0 c 0.105684,-0.06948 0.218711,-0.1221402 0.337479,-0.1583174 0.117627,-0.035839 0.240573,-0.055703 0.367233,-0.059929 0.611352,-0.020709 1.32231,0.3242845 1.963248,0.9586529 0.721763,0.7144569 1.123816,1.4199963 1.566429,2.1967913 0.563364,0.9887864 1.194933,2.0972197 2.665892,3.4787147 1.42124,1.334794 2.416075,2.820805 3.196672,4.43538 0.774942,1.602869 1.337167,3.331512 1.897661,5.165095 1.11166,3.636524 1.926149,7.485843 2.329384,11.536884 0.403446,4.053153 0.395722,8.307141 -0.137042,12.75051 -0.316544,2.640595 -0.792711,4.152387 -1.325476,5.05483 -0.522297,0.884819 -1.095791,1.197988 -1.632565,1.398442 -0.10408,0.292883 -0.227574,0.53429 -0.370568,0.724009 -0.130542,0.173151 -0.278052,0.304505 -0.442191,0.394102 0.07103,1.444256 -0.05297,2.744098 -0.344695,3.957597 -0.302405,1.258002 -0.784058,2.419518 -1.414276,3.550308 -0.219724,0.394272 -0.473466,0.668855 -0.715263,0.825736 -0.163168,0.105869 -0.325661,0.161952 -0.475407,0.169052 -0.162999,0.0077 -0.30899,-0.03973 -0.426575,-0.141074 -0.342881,0.487251 -0.699773,0.940057 -1.102038,1.363026 -0.481737,0.506396 -1.027164,0.967824 -1.689205,1.391384 -0.481696,0.30814 -0.853952,0.480827 -1.115333,0.528373 -0.157681,0.02865 -0.289447,0.01559 -0.394667,-0.03745 -0.129783,-0.06542 -0.207357,-0.17666 -0.232723,-0.331765 -0.02174,-0.132918 0.0013,-0.300829 0.06867,-0.501029 l 2.53e-4,8.5e-5 0.0013,-0.0034 0,-8.46e-4 c 0.504023,-1.496534 0.679515,-3.181013 0.848507,-4.803914 0.04254,-0.408599 0.08475,-0.813353 0.12742,-1.17766 0.134299,-1.145878 0.258215,-2.294588 0.370188,-3.444397 -0.115349,-0.02806 -0.230613,-0.06766 -0.345793,-0.118801 0.243528,1.420672 0.152363,2.370154 -0.136705,2.923166 -0.1787,0.341824 -0.431555,0.544517 -0.73147,0.623 -0.289532,0.07578 -0.613631,0.03001 -0.947859,-0.122394 -0.547242,-0.249479 -1.139095,-0.800166 -1.646578,-1.573327 0.05643,0.508678 0.161015,1.059112 0.336634,1.571256 0.05829,0.16994 0.123537,0.333963 0.196299,0.488392 0.07238,0.153753 0.153756,0.301547 0.244921,0.440592 l 0,8.46e-4 8.44e-4,0.0013 -2.11e-4,1.27e-4 c 0.182709,0.278598 0.268978,0.466077 0.196089,0.665812 -0.06871,0.188663 -0.259609,0.303618 -0.627264,0.429055 -1.349364,0.460583 -2.518382,-0.254466 -3.309025,-1.214852 -0.07378,-0.0896 -0.144091,-0.181224 -0.210776,-0.273822 0.06175,0.295377 0.159454,0.602375 0.293458,0.913643 0.05748,0.133509 0.120244,0.2652 0.188069,0.394187 0.07183,0.136552 0.147594,0.268793 0.226983,0.395709 l 4.22e-4,-2.53e-4 0.0025,0.0038 c 0.06732,0.107348 0.111718,0.216091 0.131344,0.32327 l 1.69e-4,-4.2e-5 c 0.02427,0.133044 0.01055,0.260552 -0.04381,0.377832 -0.05271,0.113518 -0.141094,0.212541 -0.267289,0.291869 -0.120203,0.07561 -0.277588,0.134058 -0.474183,0.169982 -1.244356,0.227544 -2.318749,-0.07561 -3.145984,-0.840401 -0.09847,-0.09103 -0.193556,-0.189001 -0.284974,-0.293433 0.0021,0.0396 0.0042,0.07912 0.0054,0.118295 0.0089,0.286839 -0.01144,0.561802 -0.07838,0.809464 1.613108,0.955229 3.423993,1.24452 5.432233,0.867703 0.407118,-0.07637 0.82196,-0.179914 1.244398,-0.310422 0.425267,-0.131439 0.857623,-0.289798 1.296776,-0.47491 l 0.013,-0.0055 0.280205,-0.118463 0.039,0.302773 c 0.0831,0.645399 -0.03402,1.288304 -0.351364,1.928632 -0.298016,0.601276 -0.772283,1.199045 -1.422549,1.793052 -0.03731,0.577356 -0.876067,1.530261 -1.897576,2.280261 -0.209425,0.153753 -0.426954,0.300448 -0.646636,0.434591 -0.174606,0.106672 -0.350815,0.205314 -0.525252,0.293517 l -0.07407,0.02341 c -0.592318,0.04252 -1.23448,0.06589 -1.937334,0.06589 -4.107138,0 -6.152435,-0.792728 -8.196001,-1.58478 -2.092862,-0.811113 -4.184163,-1.621676 -8.379891,-1.621676 -4.195728,0 -6.287029,0.810563 -8.379892,1.621676 l -0.08673,0.03347 c -1.049913,-2.446946 -2.375515,-4.833752 -3.620968,-7.076272 -0.443246,-0.798053 -0.876278,-1.578103 -1.283734,-2.33664 -0.132189,0.788375 -0.654064,2.122451 -1.6581,2.095952 -0.03558,-8.46e-4 -0.06567,-0.0034 -0.09015,-0.0071 l 4.3e-5,-1.7e-4 c -0.554754,-0.08613 -0.718471,-0.770835 -0.897973,-1.209737 -0.283201,0.446636 -0.690192,1.007213 -1.234943,1.152978 -0.08623,0.02312 -0.173171,0.03368 -0.260284,0.03182 l -0.0018,0 -0.0075,-2.11e-4 -9.29e-4,0 c -0.614349,-0.02075 -0.806554,-0.575919 -1.016106,-1.181337 -0.07796,-0.22522 -0.158779,-0.459188 -0.264927,-0.658754 -0.137971,0.321706 -0.372846,0.653556 -0.713996,0.778401 -0.07255,0.02654 -0.147003,0.04209 -0.222425,0.04564 l -0.0027,0 -0.009,3.38e-4 -0.0018,0 c -0.556021,0.01568 -1.130274,-0.711034 -1.731032,-1.471261 -0.153292,-0.19403 -0.308398,-0.390596 -0.466628,-0.578328 -0.46494,0.676547 -1.038813,0.411135 -1.484338,-0.06994 0.634987,2.306928 1.387729,4.533853 2.318832,6.609138 0.707455,1.576919 0.967654,2.605095 0.908608,3.190649 -0.04174,0.413967 -0.228882,0.647893 -0.529008,0.726037 -0.256865,0.0669 -0.585269,-0.0038 -0.962209,-0.190775 -0.920426,-0.456145 -2.238727,-1.652654 -3.513513,-3.201511 -0.0093,0.01162 -0.01891,0.02295 -0.02862,0.03385 -0.450759,0.505635 -1.163068,0.107813 -1.589136,-0.207596 -0.533482,-0.394822 -1.130273,-1.029909 -1.672998,-1.738533 l -0.006,0.0087 c -0.288561,0.409318 -0.783932,0.287008 -1.150912,0.07413 -0.394962,-0.229065 -0.85087,-0.653217 -1.292766,-1.177237 C 8.1745585,56.812322 6.4128854,52.622574 5.795709,48.121347 5.1800941,43.631658 5.7053462,38.835098 7.0730697,33.807442 l -8.864e-4,-2.53e-4 c 0.2185843,-0.803548 0.4932179,-1.580807 0.7678937,-2.358236 0.1896732,-0.53691 0.379473,-1.074031 0.5498159,-1.618379 0.5512931,-1.761736 1.144581,-3.381594 1.8564251,-4.954879 0.71214,-1.573918 1.543469,-3.101727 2.57076,-4.678646 l 9.28e-4,-0.0027 2.54e-4,-3.8e-4 5.9e-4,4.23e-4 c 0.346257,-0.531458 0.705894,-1.06317 1.077305,-1.594163 0.379389,-0.542361 0.758229,-1.066677 1.13576,-1.5732 1.990683,-2.670644 4.205351,-5.227897 6.472735,-7.6080255 0.937308,-0.9839684 1.817765,-1.67797 2.451275,-1.8945682 0.363097,-0.1241688 0.666684,-0.103798 0.887125,0.087231 0.206134,0.1786459 0.311691,0.4952807 0.290377,0.9700216 -0.04567,1.0156657 -0.677362,2.9109101 -2.192891,5.9735871 -0.06821,0.281598 -0.138688,0.557703 -0.210734,0.827806 -0.07812,0.293094 -0.160635,0.590077 -0.246609,0.889384 -0.446116,1.552787 -1.003487,3.231475 -1.569467,4.820186 l -2.96e-4,-8.5e-5 -1.69e-4,4.65e-4 0,9.3e-4 c -0.218879,0.614505 -0.476757,1.306478 -0.736154,2.002508 -0.735227,1.973008 -1.482566,3.979024 -1.96882,6.031191 -0.05398,0.227925 -0.103826,0.456779 -0.15249,0.685887 0.116446,1.014821 0.330514,2.061212 0.630345,3.034319 z"
   class="fil3" /><path
   style="fill:#ffffff;fill-rule:nonzero"
   inkscape:connector-curvature="0"
   id="path28"
   d="M 60.373346,57.756647 C 59.800486,56.544585 59.393832,55.286118 59.407,53.918232 58.731242,52.532046 58.753442,51.4581 58.771844,50.572731 c 0.01102,-0.529049 0.02055,-0.987138 -0.131978,-1.386651 l 0.315194,-0.120196 c 0.175028,0.458512 0.164814,0.948045 0.153081,1.51344 -0.02452,1.182182 0.101209,2.178576 0.636338,3.26182 -0.02452,1.697073 0.525885,2.694228 1.06785,3.870071 l 2.54e-4,4.22e-4 -3.8e-4,1.69e-4 c 0.08188,0.175138 0.178404,0.353404 0.288013,0.528626 l 4.22e-4,-2.53e-4 c 0.111381,0.177758 0.235973,0.352643 0.372129,0.51806 0.683397,0.830131 1.679498,1.453089 2.803061,1.069552 0.224028,-0.07645 0.330809,-0.120154 0.34077,-0.147583 0.0058,-0.01597 -0.04765,-0.101981 -0.147847,-0.254635 l -8.45e-4,-8.45e-4 -4.22e-4,-8.45e-4 -4.22e-4,2.95e-4 C 64.365473,59.2692 64.273802,59.10243 64.191331,58.927292 64.109157,58.752914 64.037449,58.573339 63.975111,58.39165 63.655401,57.4592 63.557188,56.415556 63.557188,55.677981 l 0,-0.0292 c -0.193261,-0.40974 -0.351406,-0.863899 -0.477264,-1.362687 -0.152996,-0.606475 -0.258722,-1.279979 -0.321566,-2.020174 -0.847959,-1.159614 -0.653558,-2.38165 -0.490222,-3.407755 0.08479,-0.53281 0.160636,-1.009326 0.06432,-1.362645 l -2.53e-4,-8.45e-4 0.324479,-0.0885 2.53e-4,8.45e-4 c 0.115517,0.423814 0.03435,0.93376 -0.05639,1.503973 -0.18444,1.159191 -0.271637,2.224981 0.486043,3.230799 0.0571,0.694255 0.149873,1.386102 0.320427,2.062395 0.1416,0.560873 0.292486,0.738209 0.591768,1.374817 0.53707,1.142455 1.269426,1.947313 1.917329,2.242731 0.236817,0.107983 0.45595,0.143145 0.639587,0.09509 0.173298,-0.04535 0.324226,-0.171588 0.437717,-0.388693 0.465742,-0.891074 0.16148,-2.334273 -0.02642,-3.229193 -0.349845,-0.727981 -0.564884,-1.475488 -0.689476,-2.222868 -0.13873,-0.832202 -0.164645,-1.663854 -0.139617,-2.467613 -0.618231,-0.844627 -0.59582,-1.540446 -0.57172,-2.290192 0.01494,-0.463203 0.03056,-0.948637 -0.120878,-1.498564 l 0.324479,-0.08985 c 0.164898,0.598868 0.148438,1.110673 0.132695,1.59898 -0.02722,0.846234 0.04419,1.467416 0.575688,2.17118 -0.02853,0.843402 -0.0073,1.686381 0.131767,2.520611 0.116699,0.700299 0.316164,1.400555 0.638068,2.083146 0.215377,0.154007 0.423199,0.291784 0.682638,0.366505 0.181316,-1.918954 0.328404,-3.840359 0.432484,-5.756819 0.163674,-3.014751 0.221918,-6.019654 0.141896,-8.986225 l -0.005,0.0056 c -0.445694,0.499169 -0.856694,0.797673 -1.210886,0.935155 -0.40391,0.156754 -0.745693,0.114406 -0.999224,-0.07629 -0.02363,-0.01783 -0.04254,-0.03313 -0.05668,-0.04573 l 0,-8.46e-4 -0.0013,-0.0013 -8.44e-4,0 c -0.05263,-0.0475 -0.0991,-0.104432 -0.138688,-0.171207 -0.03668,-0.06187 -0.06728,-0.132368 -0.09112,-0.211569 -0.105388,-0.350234 -0.07833,-0.903753 0.134426,-1.710851 0.118008,-0.447608 0.159285,-0.909036 0.200773,-1.373929 0.01342,-0.150245 0.02697,-0.301463 0.03866,-0.414854 0.163294,-1.579371 0.265855,-2.911291 0.279783,-4.180112 0.01169,-1.0641 -0.03887,-2.088725 -0.167811,-3.184479 -0.578052,0.943649 -1.060718,2.022752 -1.292766,3.18283 -0.05445,0.272428 -0.09496,0.544433 -0.119358,0.814452 -0.02478,0.274245 -0.03444,0.552843 -0.02701,0.834822 l 4.2e-5,0 2.54e-4,0.0091 c 0.02515,0.903796 -0.138815,1.651345 -0.407667,2.275528 -0.269273,0.625113 -0.643091,1.125465 -1.037378,1.534952 -0.31169,0.323735 -0.659129,0.638298 -1.028304,0.972557 -0.363392,0.32906 -0.74869,0.677899 -1.149181,1.083118 -0.752784,0.761622 -1.629991,1.321734 -2.574643,1.564493 -0.188618,0.04843 -0.377067,0.0841 -0.564546,0.106038 -0.188027,0.02198 -0.380443,0.0309 -0.576827,0.02582 l -8.44e-4,0 -0.009,-2.54e-4 c -0.776462,-0.02189 -1.569679,-0.01648 -2.35437,0.1027 -0.772452,0.11728 -1.535619,0.34588 -2.263797,0.770159 -0.907046,0.5285 -1.777163,0.801815 -2.61267,0.831906 -0.896031,0.03221 -1.710731,-0.225769 -2.476514,-0.677815 -1.360802,-0.472923 -2.466933,-0.634199 -3.382378,-0.519793 -0.974239,0.12176 -1.734915,0.560493 -2.361081,1.271526 l -0.253236,-0.223233 c 0.681119,-0.773456 1.510084,-1.250902 2.573461,-1.383777 0.309285,-0.03867 0.638195,-0.04772 0.988926,-0.02603 -0.09328,-0.555083 -0.285269,-1.07027 -0.586155,-1.546828 -0.657525,-1.041531 -0.588139,-2.021695 -0.510902,-3.178139 l 0.336296,0.02248 c -0.07179,1.072256 -0.151181,2.008763 0.459496,2.976037 0.341192,0.540418 0.551672,1.126015 0.64786,1.757044 0.596115,0.06792 1.252248,0.218669 1.977978,0.458005 -0.138562,-0.463837 -0.37424,-0.856588 -0.616712,-1.260496 -0.372256,-0.620041 -0.759284,-1.264637 -0.884171,-2.239941 -0.06888,-0.538094 -0.07403,-1.02695 -0.03237,-1.476671 0.042,-0.453272 0.130754,-0.864787 0.249394,-1.245662 0.306626,-0.984518 0.680992,-1.824369 0.991121,-2.930055 0.141136,0.219895 0.273283,0.471825 0.454599,0.661586 l 0,8.45e-4 c 0.0114,0.01192 0.02305,0.02375 0.03512,0.03529 0.192543,-0.303364 0.430289,-0.592655 0.67829,-0.894329 0.753628,-0.916812 1.174463,-1.726107 1.455385,-2.861758 0.155107,0.337978 0.29236,0.702328 0.507441,1.007763 0.359637,-0.563705 0.799928,-0.980757 1.259424,-1.415855 0.773929,-0.732926 1.362912,-1.460315 1.854906,-2.407219 0.152236,0.204426 0.288519,0.437803 0.529219,0.548405 0.405978,-0.627733 1.08161,-1.364758 1.864022,-2.218387 3.630423,-3.960809 6.643205,-8.52822 4.951931,-14.065271 C 60.666086,9.8888361 59.72173,8.5493509 58.507931,7.5554084 57.291051,6.5589301 55.802788,5.9088398 54.204367,5.6059405 52.350179,5.2545655 50.349029,5.3692251 48.450272,5.9507648 47.61506,6.2065408 46.80133,6.4354797 45.995367,6.6621788 43.093122,7.4785319 40.288669,8.2674563 38.330527,9.7418875 l -8.44e-4,6.339e-4 c -0.418766,0.3153666 -0.76114,0.6603176 -1.007412,1.0203566 -0.266403,0.389454 -0.418555,0.794504 -0.430162,1.195411 -0.01148,0.396131 0.114336,0.795433 0.402897,1.179646 0.05183,0.06897 0.108807,0.137313 0.171272,0.205356 0.09674,-0.02257 0.197565,-0.03444 0.301181,-0.03444 0.100281,0 0.197819,0.0112 0.291727,0.03237 0.100576,-0.413839 0.494188,-0.823664 0.885141,-1.230826 0.06842,-0.07126 0.136874,-0.142554 0.207864,-0.218374 l -4.2e-5,-4.2e-5 0.0078,-0.0084 c 0.0566,-0.06065 0.110917,-0.121929 0.172031,-0.191029 0.301013,-0.340175 0.755654,-0.853967 1.246171,-1.149809 0.596875,-0.359996 1.225912,-0.419714 1.707143,0.380368 0.141432,0.235067 0.190011,0.47136 0.173171,0.702623 0.202419,-0.06386 0.449577,-0.177885 0.704416,-0.295376 0.726405,-0.334935 1.506918,-0.694763 1.972787,-0.22429 l 8.44e-4,8.87e-4 0.003,0.003 8.44e-4,9.3e-4 c 0.07099,0.07273 0.131936,0.163051 0.179333,0.270061 0.04411,0.09961 0.07698,0.215626 0.09543,0.347275 0.05314,0.379353 -0.01874,0.905021 -0.30021,1.564071 1.049534,-0.928308 2.079019,-1.72598 3.074867,-2.293404 1.439431,-0.820115 2.91689,-1.1532744 4.233164,-1.0659167 1.04869,0.069608 1.996633,0.4051337 2.745619,0.9735297 0.754472,0.57258 1.306018,1.37917 1.555286,2.386172 0.255261,1.031091 0.191446,2.270751 -0.300337,3.680478 -0.777559,2.228869 -2.256917,3.964148 -4.048387,5.365295 -1.779189,1.391511 -3.861711,2.450454 -5.866025,3.335865 -1.04181,0.460244 -2.144143,0.928561 -3.266439,1.352671 -1.122845,0.424321 -2.260927,0.802449 -3.370055,1.080455 -2.970491,0.744633 -5.346218,2.038178 -7.257848,3.709344 -1.913825,1.673067 -3.366341,3.727305 -4.487582,5.990534 -0.04448,0.700214 -0.173339,2.004029 0.341826,2.475558 0.137295,-0.340006 0.332244,-0.653302 0.560662,-0.939254 l 0.262437,0.209963 c -0.252518,0.316212 -0.461479,0.672786 -0.583792,1.060042 -0.242009,0.766398 -0.10695,1.537065 0.317388,2.266737 l 0.0013,0.0021 3.8e-4,8.45e-4 -8.4e-5,4.2e-5 c 0.130036,0.223107 0.295652,0.448665 0.457596,0.669109 0.17431,0.237307 0.344738,0.469247 0.47144,0.698608 0.345244,-0.315874 0.415052,-0.695776 0.480302,-1.051335 0.09817,-0.535135 0.190011,-0.914362 0.635283,-1.19165 0.07914,0.664164 0.420328,0.643286 0.637013,1.08819 0.70104,-0.575412 1.040375,-1.360279 1.111365,-2.2541 l 0.336297,0.02646 c -0.09458,1.189663 -0.578221,2.060578 -1.536927,2.763793 -0.09585,-0.47098 -0.558426,-0.559352 -0.687829,-0.989801 -0.07529,0.161614 -0.128475,0.423518 -0.164139,0.617886 -0.128179,0.698566 -0.357061,1.098121 -0.941655,1.50803 -0.161648,-0.373352 -0.371707,-0.688338 -0.612871,-1.01668 -0.167389,-0.227925 -0.338745,-0.461132 -0.478573,-0.701482 l -0.0013,-0.0021 -3.8e-4,-8.45e-4 1.27e-4,-8.5e-5 c -0.451434,-0.777175 -0.606119,-1.600882 -0.378207,-2.427843 -0.657737,-0.423983 -0.632877,-1.638835 -0.583918,-2.491365 -0.332878,0.291319 -0.631147,0.612856 -0.893794,0.964358 -0.337394,0.451581 -0.618527,0.95523 -0.841585,1.510862 -1.162561,2.895696 -0.742402,7.183789 1.483409,12.877003 l -4.2e-5,0 2.96e-4,4.23e-4 c 0.728642,1.863547 1.890105,3.954765 3.131127,6.189255 1.190036,2.142652 2.452963,4.416405 3.484643,6.757144 1.474125,-0.57034 2.977582,-1.128804 5.244502,-1.393075 -0.647987,-2.791686 -1.887151,-5.759271 -4.4799,-7.234125 l 0.166206,-0.293221 c 2.691511,1.53098 3.982842,4.591839 4.651088,7.490789 0.775743,-0.07776 1.63898,-0.12176 2.616637,-0.12176 3.991747,0 6.078574,0.733602 8.074321,1.503381 0.297129,-0.750423 0.0072,-1.3323 -0.258089,-1.864181 -0.226519,-0.454243 -0.345413,-0.824848 -0.367782,-1.325581 0.399647,0.200031 0.800941,0.371746 1.260816,0.289967 -0.116741,-0.358264 -0.09931,-0.672151 -0.08146,-0.993985 0.02148,-0.388143 0.0436,-0.789473 -0.214786,-1.291939 -0.516178,-0.265919 -0.94022,-0.624056 -1.266767,-1.076736 -1.222029,0.241956 -2.269621,-0.01078 -3.053088,-0.915798 -0.338154,-0.390595 -0.584172,-0.853122 -0.770975,-1.332765 -0.626757,-0.376353 -1.036365,-0.808535 -1.311927,-1.277781 -1.605723,0.113772 -2.791328,-1.128128 -2.817833,-2.699638 -1.087055,-0.895723 -1.049534,-2.940282 -1.018259,-4.63651 0.01414,-0.76661 0.02693,-1.459597 -0.06728,-1.915573 l -2.53e-4,-0.0013 0.329712,-0.06737 2.53e-4,0.0013 c 0.101505,0.491181 0.08838,1.201961 0.07386,1.988265 -0.02427,1.316959 -0.21449,3.541644 1.018428,4.465472 -0.01043,1.371183 0.86387,2.563973 2.311447,2.535826 -0.301308,-0.669278 -0.384622,-1.400514 -0.469287,-2.144216 l 0,-4.23e-4 c -0.0072,-0.06365 -0.01503,-0.130762 -0.02562,-0.221459 -0.137718,-0.69827 -0.145484,-1.445734 -0.08943,-2.175025 0.05402,-0.7033 0.167768,-1.39092 0.28088,-2.000353 C 43.623186,49.203662 43.507542,48.604794 43.533667,48.032003 43.105236,47.7944 42.85449,47.474089 42.715,47.102131 42.432938,46.350187 42.586272,45.480963 42.659246,44.704633 l 0.33503,0.0317 c -0.06719,0.713443 -0.212675,1.515891 0.04782,2.205667 0.186423,0.49359 0.591515,0.880001 1.407903,1.064606 0.112014,-0.289671 0.342205,-0.587499 0.581048,-0.896695 0.319583,-0.413756 0.537154,-0.85308 0.826898,-1.278458 0.330261,0.83385 0.314476,1.72746 0.990614,2.4147 0.38956,0.39592 0.904007,0.571946 1.5433,0.527908 0.114926,-0.439029 0.33216,-0.76158 0.549309,-1.083878 0.241122,-0.357969 0.412605,-0.711964 0.581091,-1.105729 0.228587,0.723797 0.45595,1.53753 1.072071,2.033149 0.344104,0.276781 0.753966,0.373901 1.229584,0.291446 0.08331,-0.333963 0.24644,-0.663741 0.419315,-1.01313 0.263829,-0.533402 0.451096,-1.046771 0.598184,-1.619436 0.355837,0.685887 0.718639,1.428703 1.363798,1.889835 0.385846,0.275724 0.814616,0.378931 1.29762,0.263848 0.0742,-0.272216 0.220652,-0.485433 0.387238,-0.728065 0.423157,-0.616238 0.608145,-1.204962 0.730331,-1.933789 0.567036,0.506946 1.067851,1.098967 1.719974,1.50334 0.422734,0.262199 0.842049,0.38565 1.277402,0.273526 0.05453,-0.322087 0.160425,-0.647301 0.271047,-0.987645 0.268007,-0.824722 0.358707,-1.5407 0.357483,-2.395386 0.279699,0.384425 0.526476,0.803041 0.896411,1.110124 0.491318,0.407881 1.06536,0.514679 1.676417,0.274752 -0.0322,-0.322552 0.0089,-0.645737 0.0498,-0.968289 0.05326,-0.419756 0.04524,-0.825693 0.05837,-1.245703 0.333342,0.258988 0.673521,0.591175 1.104907,0.658331 0.314054,0.04894 0.543401,-0.107052 0.650351,-0.401161 0.153587,-0.422672 0.05744,-0.889679 -0.02748,-1.316282 0.228207,0.01145 0.45367,0.02861 0.677404,-0.03466 0.463673,-0.1311 0.711126,-0.575116 0.581132,-1.036163 l 0.324479,-0.09112 c 0.180093,0.638257 -0.173382,1.270893 -0.814615,1.452201 -0.109187,0.0309 -0.229389,0.05089 -0.360312,0.05765 0.06445,0.441733 0.03638,0.806929 -0.06407,1.083244 -0.161987,0.445284 -0.545005,0.692861 -1.018301,0.619154 -0.220442,-0.03436 -0.463801,-0.135199 -0.719484,-0.307928 -0.0076,0.201298 -0.03309,0.402851 -0.05871,0.604699 -0.04909,0.386707 -0.07652,0.743915 -0.01237,1.129903 -0.799548,0.367773 -1.560562,0.36435 -2.26253,-0.218458 -0.130247,-0.108109 -0.247833,-0.229023 -0.357906,-0.357503 -0.05124,0.535093 -0.210354,1.024964 -0.36048,1.486899 -0.118219,0.364181 -0.23859,0.758157 -0.287717,1.140426 -0.643598,0.216725 -1.186408,0.110476 -1.758002,-0.243984 -0.438814,-0.272132 -0.871466,-0.671729 -1.322014,-1.117436 -0.159538,0.702666 -0.438013,1.108307 -0.674577,1.452793 -0.179754,0.261819 -0.316459,0.491857 -0.376814,0.805914 -0.645243,0.188916 -1.222197,0.140356 -1.780243,-0.258523 -0.396187,-0.283163 -0.750674,-0.718049 -1.072916,-1.269286 -0.11366,0.311183 -0.255767,0.598487 -0.391797,0.87345 -0.184524,0.373056 -0.356851,0.737913 -0.436029,1.147738 -0.626884,0.140144 -1.205779,0.105784 -1.725924,-0.312535 -0.367909,-0.295926 -0.672973,-0.757566 -0.914939,-1.385003 -0.07876,0.133086 -0.163084,0.258312 -0.247538,0.383622 -0.26214,0.389116 -0.4573,0.743196 -0.553108,1.206779 -0.354023,0.03821 -0.701124,0.05063 -1.051137,-0.03242 0.03727,0.375888 0.151013,0.726967 0.306794,1.06896 -0.179248,0.757819 -0.244287,1.522864 -0.165489,2.298983 0.08061,0.793996 0.305064,1.555238 0.625407,2.28398 -0.01258,0.23866 -0.03478,0.476601 -0.05753,0.714457 -0.111719,1.167982 -0.150295,2.191677 0.818583,3.045772 0.107921,0.498999 0.277251,0.975389 0.569231,1.398949 0.66643,0.966767 1.823631,1.479207 3.411121,1.562169 0.317725,0.01648 0.79845,-0.135707 0.736661,-0.546123 -0.10906,-0.09551 -0.218247,-0.200031 -0.328657,-0.314648 -0.859903,-0.892765 -1.433227,-2.094684 -1.626404,-3.572496 -0.03731,-0.285487 -0.06044,-0.581963 -0.06863,-0.889004 -0.0078,-0.291234 -0.0021,-0.589696 0.01701,-0.894751 -0.508581,-0.812169 -0.480767,-1.835104 -0.455486,-2.76282 0.01975,-0.725657 0.03782,-1.389356 -0.212802,-1.785488 l -4.22e-4,3.39e-4 -2.53e-4,-3.81e-4 4.22e-4,-3.38e-4 -0.0017,-0.0025 0.123073,-0.07857 0.158905,-0.10608 2.53e-4,3.8e-4 0.0013,0.0034 c 0.308145,0.482856 0.288646,1.196721 0.267374,1.977362 -0.02461,0.905232 -0.06111,1.871831 0.463083,2.665489 l -0.0038,0.05655 -2.54e-4,0.0038 c -0.02169,0.317311 -0.02832,0.622789 -0.02047,0.915967 0.0078,0.293813 0.03009,0.578412 0.06601,0.853334 0.183342,1.402753 0.724548,2.540474 1.535407,3.382312 0.749956,0.778485 1.584831,1.091824 2.634575,1.251747 0.694455,0.105827 0.683524,-0.324453 0.664447,-0.936211 -0.01182,-0.378297 -0.07648,-0.751691 -0.143542,-1.123225 -0.478362,-0.877255 -0.793344,-1.908473 -0.923549,-2.997169 -0.05453,-0.456653 -0.07572,-0.917827 -0.06487,-1.377607 -0.765488,-0.89306 -0.768696,-2.2317 -0.771355,-3.376311 -0.0017,-0.699031 -0.003,-1.321692 -0.18157,-1.674885 l 0,-8.45e-4 -2.53e-4,-4.22e-4 0.2916,-0.145977 0.0094,-0.0047 c 0.213815,0.423222 0.215377,1.084385 0.217107,1.826778 0.0025,1.099769 -0.02152,2.373915 0.775322,3.250874 -0.01486,0.489491 0.0017,0.976868 0.05964,1.4634 0.08348,0.698228 0.245385,1.37076 0.47967,1.990252 0.383398,0.695861 0.715263,1.441001 1.308255,1.988984 0.718133,0.66391 1.657341,0.925857 2.750599,0.725952 0.290756,-0.05308 0.525674,-0.169728 0.34364,-0.460075 l -0.0025,-0.0038 0,-8.45e-4 C 61.051383,60.455608 60.899189,60.171389 60.77198,59.875928 60.45531,59.140593 60.325864,58.383831 60.373304,57.756816 z m 6.496159,-29.115863 0.01042,0.05418 -0.0025,0.0036 c 0.18233,1.322158 0.253616,2.52581 0.239772,3.786643 -0.01414,1.290925 -0.117374,2.635059 -0.28164,4.223728 -0.06419,0.622408 -0.09175,1.251493 -0.252095,1.859532 -0.122229,0.46371 -0.546989,2.088724 0.538589,1.667489 0.579908,-0.225093 1.043287,-0.785248 1.410309,-1.274612 0.724084,-0.965457 1.033791,-1.857968 0.991585,-3.442748 1.070214,-1.242661 1.207721,-2.569636 0.51757,-4.047913 0.729824,-0.93152 0.854838,-2.182591 0.689855,-3.372338 -0.159327,-1.148879 -0.56463,-2.438705 -1.34451,-3.330752 0.444259,-0.983461 0.483131,-2.160233 -0.01654,-3.136468 -0.09049,-0.176828 -0.198536,-0.342964 -0.324352,-0.494013 -0.124803,-0.149822 -0.267543,-0.285064 -0.428347,-0.401245 l -0.0021,-0.0013 -0.0013,-9.72e-4 0.168993,-0.228263 0.03081,-0.04281 4.22e-4,4.64e-4 8.4e-5,-1.26e-4 0.0013,9.72e-4 -8.5e-5,1.27e-4 c 0.183385,0.132748 0.346131,0.287008 0.488491,0.457877 0.141854,0.170321 0.263491,0.357292 0.365207,0.556055 0.500351,0.977503 0.518246,2.247042 0.111424,3.23156 0.732356,0.901049 1.11702,2.200849 1.268919,3.324412 0.170428,1.260665 0.04356,2.570608 -0.61764,3.481504 0.649675,1.460357 0.460212,2.900851 -0.568978,4.124578 0.02554,1.252212 -0.197692,2.493098 -0.912322,3.531078 0.103489,3.158529 0.04841,6.358434 -0.125731,9.566158 -0.175872,3.23828 -0.472453,6.482096 -0.849436,9.698061 -0.04769,0.40712 -0.08745,0.788121 -0.127419,1.17225 -0.171567,1.647879 -0.34976,3.358265 -0.870285,4.90374 l -2.53e-4,-8.5e-5 -0.0013,0.0034 0,8.46e-4 c -0.04212,0.124971 -0.05921,0.217189 -0.05115,0.275428 0.01836,0.0021 0.04816,-4.23e-4 0.08939,-0.0081 0.203095,-0.03694 0.51871,-0.188028 0.948535,-0.462949 0.626293,-0.400696 1.143779,-0.838753 1.602092,-1.320551 0.458989,-0.482602 0.860283,-1.011862 1.253093,-1.593064 l 0.05238,-0.07751 c 0.489082,-1.577934 0.450801,-3.246226 0.387028,-4.882059 0.59084,-1.02788 1.016149,-2.144259 1.111112,-3.334513 0.08602,-1.077623 -0.112521,-2.112561 -0.509509,-3.111998 0.567922,-1.118449 0.976981,-2.313775 1.033242,-3.576933 0.052,-1.166714 -0.211663,-2.27202 -0.723747,-3.316424 0.306795,-0.799153 0.600927,-1.69234 0.56978,-2.563255 -0.0203,-0.568057 -0.199972,-1.011312 -0.585227,-1.421095 0.711844,-1.637947 1.173703,-3.444861 0.295441,-5.140582 l 0.299408,-0.154514 c 0.88932,1.71719 0.523142,3.534206 -0.199127,5.228363 0.307554,0.362617 0.502925,0.835075 0.525801,1.47591 0.02338,0.65288 -0.13451,1.484152 -0.540024,2.558859 0.514194,1.075088 0.745524,2.190874 0.693991,3.347276 -0.05149,1.155852 -0.385213,2.349657 -1.000786,3.581075 0.388041,1.004551 0.563111,2.042024 0.477053,3.119775 -0.08682,1.087851 -0.4397,2.215767 -1.107482,3.391018 0.05934,1.55173 0.08323,3.125099 -0.326504,4.629115 -0.178616,0.656641 0.332244,0.510368 0.664236,0.12607 0.833481,-0.964781 1.357594,-2.626987 1.649194,-3.840148 0.329332,-1.370168 0.395807,-2.751747 0.313463,-4.1545 1.147367,-0.641553 1.581243,-3.253959 1.461927,-4.476038 -0.05107,-0.523301 -0.155951,-1.037051 -0.293035,-1.544207 0.526813,-0.893779 0.836858,-1.850066 0.906751,-2.886863 0.06888,-1.022174 -0.08965,-2.037713 -0.347819,-3.023668 0.335326,-0.833681 0.543316,-1.706032 0.532512,-2.609067 -0.01047,-0.872732 -0.227617,-1.699905 -0.596538,-2.487265 0.362928,-1.272499 0.651701,-2.837711 0.263533,-4.146386 -0.106949,-0.3608 -0.279149,-0.713358 -0.554669,-0.975558 l -0.01397,-0.01314 -4.3e-5,4.2e-5 c -0.88531,-0.822185 -0.912111,-2.048913 -0.604346,-3.12362 l 8.45e-4,-6.34e-4 0.0021,-0.0079 0.323128,0.09374 -0.0021,0.0071 4.22e-4,1.27e-4 c -0.272228,0.950707 -0.278137,2.052716 0.509382,2.784163 l 8.45e-4,8.45e-4 0.01532,0.01441 8.44e-4,4.22e-4 c 0.318739,0.303322 0.521749,0.70685 0.645666,1.124832 0.330092,1.11287 0.203812,2.668151 -0.228334,4.214387 0.372636,0.816057 0.56425,1.652823 0.574506,2.510383 0.0103,0.859884 -0.161521,1.738617 -0.515249,2.635862 0.26231,1.021709 0.397368,2.031754 0.330556,3.02333 -0.06702,0.993647 -0.336127,1.967303 -0.880963,2.913277 0.395385,1.509382 0.435312,3.104179 -0.09475,4.591289 1.848406,-0.921166 2.150389,-4.235308 2.354919,-5.941763 0.529008,-4.412009 0.536985,-8.632355 0.137042,-12.6506 C 77.426418,29.297172 76.61826,25.477564 75.515336,21.869651 74.961468,20.057707 74.406165,18.350111 73.643083,16.771755 72.885657,15.205106 71.921632,13.7644 70.546101,12.472546 69.025254,11.044224 68.374988,9.902952 67.794953,8.8848773 67.369138,8.1374974 66.982321,7.4587105 66.306521,6.7897709 65.755692,6.2445775 65.16768,5.9472992 64.682439,5.9637395 c -0.08656,0.00292 -0.169499,0.016145 -0.247538,0.039896 -0.07639,0.023287 -0.148986,0.057013 -0.216516,0.1012201 l 4.22e-4,8.03e-4 -4.22e-4,3.381e-4 -0.0017,0 c -0.383778,0.252733 -0.630049,0.8476278 -0.661619,1.6737437 -0.0063,0.165967 -0.0034,0.3430915 0.0089,0.5305704 0.01258,0.1889158 0.03474,0.3836217 0.06698,0.582892 l 2.53e-4,0.00156 c 0.03123,0.1928886 0.06892,0.432182 0.106064,0.6683057 0.313842,1.9950275 0.604008,3.8393875 1.671226,5.5501535 l 0.03482,0.05591 -3.37e-4,0.06754 c -0.01245,2.260566 0.128812,4.495648 0.379853,6.719361 0.250787,2.221473 0.611647,4.430689 1.038264,6.642273 l 0.0021,-2.96e-4 0.006,0.04281 z M 43.86798,48.186263 c 8.44e-4,0.520935 0.119823,1.019216 0.354192,1.483941 -0.128095,0.687366 -0.242895,1.377057 -0.296497,2.074947 -0.05415,0.704651 -0.04693,1.424433 0.08551,2.091767 l 0.0021,0.01323 c 0.102898,0.878396 0.169963,1.789799 0.630513,2.570904 0.311269,0.52795 0.759917,0.909543 1.284072,1.216035 l 0.02178,0.05811 2.11e-4,-8.5e-5 c 0.174732,0.460921 0.407287,0.911488 0.731386,1.285811 0.665671,0.768934 1.556721,1.004297 2.600641,0.829962 -0.20837,-0.362067 -0.351955,-0.758452 -0.443541,-1.16553 -0.566361,-0.515821 -0.80111,-1.080244 -0.880246,-1.667447 -0.09923,-0.736433 0.04069,-1.474938 0.08441,-2.209808 -0.334566,-0.769779 -0.541206,-1.540911 -0.619625,-2.31348 -0.07791,-0.767328 -0.02921,-1.533726 0.146033,-2.299237 -0.169035,-0.385143 -0.276238,-0.795094 -0.298143,-1.215612 -0.245722,-0.105615 -0.466417,-0.257931 -0.662252,-0.456948 -0.397579,-0.404119 -0.685423,-0.999606 -0.863068,-1.786628 -0.132695,0.21178 -0.292191,0.418362 -0.447973,0.620041 -0.266446,0.344909 -0.506428,0.65774 -0.604177,1.081681 -0.280416,-0.05219 -0.557497,-0.109504 -0.825209,-0.211654 z M 60.102933,68.057886 C 59.342763,67.704525 58.6562,67.204088 58.05215,66.624704 l 0.232132,-0.244365 0.03398,0.03237 0.0017,0.0017 c 0.713237,0.675659 1.54465,1.238646 2.477907,1.56107 0.135143,-0.07088 0.271383,-0.148258 0.406738,-0.230925 0.207779,-0.126874 0.414377,-0.266257 0.613968,-0.412783 0.86387,-0.634284 1.593103,-1.376043 1.701235,-1.795123 -1.117696,0.177462 -2.280848,0.134016 -3.34988,-0.266849 l 0.120033,-0.315621 c 0.01646,0.0063 0.03292,0.01243 0.04947,0.01851 l 0.0025,8.46e-4 c 1.039488,0.378423 2.144733,0.384551 3.218198,0.200707 l 0.03883,-0.02088 c 0.648831,-0.5793 1.114953,-1.154753 1.398154,-1.72615 0.225295,-0.454581 0.334988,-0.907641 0.329332,-1.358842 -0.357779,0.14268 -0.709565,0.267652 -1.055653,0.37462 -0.440249,0.136003 -0.872058,0.243816 -1.295129,0.323186 -2.155961,0.404499 -4.100301,0.0806 -5.832599,-0.971628 -0.207568,0.158275 -0.496594,0.167277 -0.783594,0.123493 -0.780851,-0.118971 -1.533635,-0.3171 -2.18103,-0.784191 -0.123326,0.46371 -0.634313,0.65233 -1.071228,0.629635 -0.719821,-0.03761 -1.358522,-0.160304 -1.910913,-0.369844 0.139195,0.417643 0.119823,0.768722 0.100914,1.11063 -0.02452,0.443298 0.01912,0.784783 0.197482,1.189156 -0.450041,0.159078 -0.823985,0.199735 -1.314924,0.04378 0.05917,0.201763 0.163421,0.41067 0.271595,0.627606 0.302616,0.606644 0.633425,1.27085 0.277123,2.139018 2.038417,0.790065 4.083756,1.578778 8.180511,1.578778 0.419231,0 0.816853,-0.0084 1.193667,-0.02489 z M 18.243613,32.98475 c -0.182793,-0.593162 -0.317641,-1.195706 -0.430753,-1.800491 -0.05769,0.365153 -0.110157,0.728024 -0.156921,1.088697 -0.08049,0.62059 -0.14751,1.25517 -0.200858,1.902302 -0.269442,3.268624 -0.150042,6.589909 0.372931,9.798562 l 0,8.45e-4 1.27e-4,8.46e-4 1.26e-4,-4.3e-5 c 0.179755,1.102094 0.547411,2.105968 0.829177,2.875621 0.0596,0.162797 0.115222,0.314691 0.175323,0.48687 0.14025,0.401753 0.234496,0.768385 0.150084,1.050702 -0.08137,0.272174 -0.289026,0.445326 -0.698971,0.469204 -0.05432,0.474107 0.03541,0.926787 0.219892,1.363238 -0.0064,0.131057 -0.0071,0.261608 5.49e-4,0.392666 l 0,8.45e-4 c 0.04837,0.831145 0.370314,1.639426 0.861169,2.30752 0.05221,0.564423 0.155993,1.119464 0.342205,1.656036 0.354234,1.020737 0.862941,1.460442 1.503373,2.270836 0.211156,0.267187 0.991289,1.603883 1.54503,1.224023 0.203095,-0.139426 0.380402,-0.443213 0.460931,-0.838415 l 0.0154,-0.07548 c -0.120667,-0.19255 -0.278854,-0.370816 -0.437928,-0.55018 l -2.96e-4,2.96e-4 C 22.674935,56.474767 22.555112,56.339652 22.446305,56.194563 21.77329,55.297149 21.419479,54.03733 21.393058,52.921712 20.755411,52.124166 20.61246,51.090115 20.645929,50.099131 c -0.28088,-0.625028 -0.413702,-1.392905 -0.443246,-2.170038 -0.01152,-0.304252 -0.0076,-0.60956 0.01009,-0.913474 l 0,-4.23e-4 2.53e-4,-0.0043 0.336296,0.01978 -2.53e-4,0.0043 -4.2e-5,0 c -0.01697,0.293813 -0.0211,0.58826 -0.01005,0.882411 0.02743,0.72105 0.140967,1.45313 0.4462,2.113068 -0.03836,0.995675 0.08412,1.978587 0.742148,2.768272 0.01443,1.082442 0.326927,2.30359 0.978839,3.180464 0.103531,0.139215 0.222003,0.272808 0.339926,0.405768 l 0,4.22e-4 c 0.48389,0.545616 0.949632,1.224699 1.185267,1.905515 0.155065,0.448072 0.297341,0.858954 0.593542,0.868928 l 0,4.2e-5 0.0066,1.69e-4 c 0.639925,0.01061 1.106131,-0.968289 1.362363,-1.431027 0.05504,-0.504367 -0.276955,-0.886552 -0.612196,-1.272287 -0.990361,-1.139623 -1.370805,-2.567987 -1.462476,-4.083202 -0.596749,-0.703215 -0.922493,-1.726404 -0.737294,-2.642794 -0.265982,-0.490885 -0.253742,-1.095458 -0.173931,-1.631903 l 0.33368,0.04886 c -0.07774,0.522202 -0.08314,1.059704 0.198072,1.526246 l -0.01536,0.06652 -2.53e-4,0.0013 c -0.201913,0.87793 0.140166,1.838104 0.724717,2.497577 0.08146,1.481278 0.417669,2.879931 1.387434,3.995718 0.400154,0.460456 0.79634,0.916432 0.693189,1.570495 l 0.01393,0.0254 0.0012,0.0021 c 0.113787,0.207089 0.200393,0.427702 0.282568,0.636988 0.143627,0.365998 0.270962,0.690325 0.456499,0.718895 l 9.28e-4,0 c 0.0138,0.0021 0.02401,0.0034 0.0303,0.0034 0.156921,0.0042 0.388125,-0.09598 0.614391,-0.348036 0.250281,-0.278767 0.479037,-0.732884 0.584762,-1.421138 0.0287,-0.186887 0.04845,-0.387256 0.05698,-0.601107 -0.580668,-1.110969 -1.092625,-2.171729 -1.483494,-3.171462 l 4.2e-5,0 -2.95e-4,-4.23e-4 c -1.788812,-4.57599 -2.427302,-8.279078 -2.028161,-11.114422 -0.04486,0.03356 -0.09028,0.06377 -0.136156,0.09087 -0.37711,0.222895 -0.775786,0.235236 -1.173957,0.07802 -0.368963,-0.145681 -0.733284,-0.440043 -1.073379,-0.846402 -0.601181,-0.718472 -1.140825,-1.804886 -1.499026,-3.04032 -0.188703,-0.650682 -0.401969,-1.187634 -0.648705,-1.666305 -0.246144,-0.47753 -0.526349,-0.897963 -0.849224,-1.316494 -0.69053,-0.895089 -1.129091,-1.857673 -1.435,-2.850305 z m -0.297551,15.862972 c -0.165574,-0.0175 -0.349676,-0.05908 -0.55315,-0.133762 -0.08163,-0.02996 -0.167135,-0.06547 -0.256738,-0.107306 0.4286,2.296236 0.904303,4.592303 1.480455,6.826878 0.291938,0.334131 0.579529,0.838626 0.975251,1.036459 0.15536,0.07768 0.324141,0.0077 0.520609,-0.366125 -0.638448,-0.896399 -0.966134,-1.969543 -1.073084,-3.057267 -0.501195,-0.697256 -0.820946,-1.553463 -0.87134,-2.413136 l -4.2e-5,0 c -0.007,-0.119393 -0.0082,-0.237222 -0.0039,-0.352601 -0.195498,-0.477107 -0.268092,-0.955018 -0.218036,-1.43314 z M 24.104616,7.9645993 c -0.562351,0.1922546 -1.37684,0.8428943 -2.264471,1.7747102 -2.253034,2.3650825 -4.454999,4.9079235 -6.436523,7.5662695 -0.394751,0.529641 -0.771649,1.050364 -1.1285,1.560521 -0.364279,0.520766 -0.721256,1.0488 -1.069708,1.583724 l -9.28e-4,0.0027 -2.54e-4,3.8e-4 -5.91e-4,-3.8e-4 c -1.011801,1.553421 -1.831608,3.060479 -2.5348,4.614576 -0.703825,1.555576 -1.290782,3.158318 -1.836504,4.902219 -0.1731285,0.553307 -0.3642366,1.094105 -0.5552182,1.634692 -0.2703286,0.765215 -0.5406572,1.530219 -0.7570045,2.325525 l -9.286e-4,0 c -1.3518118,4.968994 -1.8715349,9.70478 -1.2646567,14.130821 0.6052744,4.41446 2.3337315,8.524373 5.478702,12.254215 0.409608,0.485729 0.823352,0.873788 1.171297,1.075552 0.386691,0.224248 0.712013,0.132072 0.641234,-0.26182 C 11.1946,57.055968 9.0634142,52.493545 8.9262029,47.720144 8.5798615,46.987599 8.4112913,46.225849 8.3728839,45.443137 8.3351941,44.674034 8.4231933,43.886251 8.5907928,43.086803 8.1591956,42.285622 7.9908786,41.484061 8.015569,40.682458 8.0400484,39.886053 8.2543698,39.093748 8.5888514,38.304147 8.4328585,37.813431 8.3560438,37.295793 8.4045383,36.736991 8.4547633,36.157226 8.6397516,35.53355 9.0104458,34.850241 9.1184506,34.651055 9.1879215,34.45263 9.2178455,34.254797 9.247263,34.060091 9.2380621,33.865512 9.1894831,33.670891 l 0.3270955,-0.08191 c 0.059679,0.238913 0.07099,0.47753 0.034946,0.71602 -0.035622,0.235363 -0.117881,0.470726 -0.2456382,0.706343 -0.3460881,0.637918 -0.5184991,1.217683 -0.5650522,1.75472 -0.046342,0.5345 0.031865,1.027583 0.187183,1.494125 l 0.02047,0.06145 -0.02507,0.05807 c -0.333553,0.773879 -0.5479588,1.54518 -0.5715519,2.311958 -0.025788,0.839007 0.1894621,1.612294 0.5945541,2.343402 -0.1689501,0.786093 -0.2767861,1.586133 -0.2372392,2.392174 0.037859,0.77223 0.2157142,1.513313 0.5512087,2.210864 0.118092,4.517202 2.042131,8.840206 4.242197,12.736014 0.220652,0.390849 0.451813,0.739603 0.725856,1.09474 0.508623,0.658839 1.060254,1.243928 1.549589,1.60608 0.243696,0.180379 0.466459,0.301421 0.652165,0.341866 0.224873,0.0489 0.43261,-0.01847 0.416319,-0.255395 -1.992497,-3.020414 -3.180593,-6.456612 -3.47194,-10.071117 -0.745567,-0.814409 -0.899154,-2.053773 -0.783636,-3.118549 -0.37559,-0.526132 -0.53821,-1.053026 -0.576997,-1.579962 -0.03815,-0.518483 0.04453,-1.031937 0.16034,-1.543996 -0.289194,-0.724388 -0.435016,-1.495309 -0.438856,-2.288671 -0.0041,-0.915249 0.184608,-1.852728 0.236184,-2.761806 0.0341,-0.601445 0.04465,-1.199763 0.03229,-1.798504 l 0.336297,-0.0066 c 0.01258,0.610955 0.0021,1.217725 -0.03229,1.823608 -0.05111,0.901344 -0.240362,1.833837 -0.236184,2.741943 0.0038,0.782542 0.158103,1.538628 0.454642,2.262087 -0.117079,0.50665 -0.214617,1.025091 -0.176125,1.548181 0.04191,0.56979 0.252686,1.056111 0.591093,1.511834 l -0.0079,0.06597 -2.53e-4,0.0021 c -0.124718,1.039164 0.002,2.20685 0.768147,2.996747 0.256654,3.307295 1.25381,6.452512 2.95057,9.275092 0.383145,0.637496 0.877334,1.190719 1.371311,1.747112 1.050293,1.18307 2.075812,2.073172 2.815385,2.439677 0.319836,0.158487 0.774436,0.342796 0.825631,-0.164783 0.05149,-0.510496 -0.198536,-1.458541 -0.870538,-2.956428 -1.024041,-2.282416 -1.833634,-4.741027 -2.507746,-7.284925 -0.68458,-2.583709 -1.21861,-5.205244 -1.701825,-7.833161 -0.51449,-0.554533 -0.90118,-1.218951 -1.171678,-1.923941 -0.315615,-0.82227 -0.503685,-1.781726 -0.511155,-2.854573 -0.270244,-0.293559 -0.465573,-0.630861 -0.585986,-1.011947 -0.03727,0.01965 -0.0712,0.04053 -0.101674,0.06276 -0.181528,0.13279 -0.286747,0.338273 -0.31532,0.616237 -0.05694,0.552843 -0.104038,0.612477 -0.343092,0.914531 -0.237661,0.300532 -0.475027,0.613913 -0.556273,0.997323 l -0.329713,-0.06999 c 0.09281,-0.437549 0.350605,-0.792728 0.622199,-1.13603 0.187859,-0.237392 0.224915,-0.284262 0.271848,-0.740153 0.03874,-0.377071 0.189758,-0.66184 0.45249,-0.85401 0.05183,-0.03787 0.106443,-0.07126 0.163674,-0.100079 l 6.75e-4,0 c 0.01684,-0.0085 0.03393,-0.01648 0.05103,-0.02422 -0.08467,-0.439832 -0.08137,-0.931056 0.0099,-1.473629 -0.462914,-0.609475 -0.653474,-1.318396 -0.672593,-2.089654 -0.01929,-0.779753 0.137675,-1.620788 0.363435,-2.485659 l 0.325744,0.08453 c -0.218964,0.838752 -0.371285,1.650583 -0.352883,2.393188 0.01865,0.751944 0.221665,1.414967 0.694033,2.006861 -0.183511,1.008269 -0.111634,1.998281 0.638491,2.774104 -5.91e-4,0.979742 0.136747,1.952215 0.489082,2.870211 0.267922,0.698651 0.567964,1.298828 1.069792,1.721163 0.329796,0.277457 0.778234,0.503691 1.213419,0.544433 0.347987,0.03263 0.496214,-0.02308 0.528966,-0.132706 0.04849,-0.162122 -0.03052,-0.443889 -0.142825,-0.765596 -0.04351,-0.124633 -0.106232,-0.295926 -0.173466,-0.479601 -0.287928,-0.786431 -0.663561,-1.812197 -0.850955,-2.960992 l 0,-8.45e-4 -1.26e-4,-8.45e-4 -1.27e-4,4.2e-5 c -0.529515,-3.248803 -0.650688,-6.608124 -0.378418,-9.911151 0.05212,-0.632593 0.120413,-1.273851 0.204488,-1.922335 0.08407,-0.648315 0.181443,-1.283318 0.291938,-1.903443 l 0,-9.3e-4 0.0038,-0.02105 8.86e-4,0 c 0.451941,-2.528683 1.359831,-4.965064 2.249953,-7.353814 0.240025,-0.644047 0.478868,-1.284966 0.732525,-1.997098 l 2.96e-4,8.4e-5 1.68e-4,-4.65e-4 0,-9.29e-4 c 0.563913,-1.582878 1.118329,-3.252227 1.560436,-4.791109 0.08669,-0.301885 0.168655,-0.596628 0.244752,-0.882115 0.08251,-0.309281 0.149451,-0.53636 0.219555,-0.739434 -0.12877,0.08393 -0.256274,0.155443 -0.381879,0.225896 -0.247622,0.138919 -0.488153,0.273865 -0.709481,0.498577 l -0.240067,-0.236419 c 0.256274,-0.260214 0.516642,-0.406275 0.784692,-0.556647 0.263787,-0.147921 0.53593,-0.300617 0.809382,-0.579131 0.07411,-0.163431 0.161311,-0.348458 0.269738,-0.579384 1.119553,-2.384059 1.599433,-3.8959349 1.637165,-4.7349411 0.01444,-0.3212837 -0.03343,-0.5152289 -0.130753,-0.5995437 -0.08302,-0.071932 -0.233525,-0.067283 -0.435523,0.00178 z"
   class="fil4" /><path
   inkscape:connector-curvature="0"
   style="fill:url(#linearGradient3044);fill-rule:nonzero"
   id="path30"
   d="m 43.728616,13.07733 -4.22e-4,2.54e-4 -0.0025,8.87e-4 c -0.594976,0.231644 -1.262589,1.16963 -1.878077,2.034501 l -0.07036,0.09881 c -0.503938,0.707357 -1.037294,1.33995 -1.608593,1.948538 -0.567711,0.604785 -1.17193,1.185056 -1.821943,1.791869 l 2.54e-4,2.54e-4 -2.54e-4,2.53e-4 -0.0064,0.0055 c -0.370989,0.346262 -0.731259,0.713232 -1.090388,1.079061 -0.256148,0.260932 -0.511958,0.521526 -0.770426,0.773625 l -0.09589,0.09361 c -0.538505,0.525879 -1.074942,1.049814 -1.69503,1.47815 0.01338,0.02531 0.0276,0.04805 0.04288,0.06838 0.07939,0.105742 0.202673,0.145849 0.367233,0.122943 0.219386,-0.03051 0.498958,-0.158656 0.835001,-0.38003 0.718513,-0.473388 1.660337,-1.353981 2.797194,-2.604798 l 0.0073,-0.0082 4.64e-4,-4.65e-4 0.0018,-8.88e-4 c 0.750969,-0.73618 1.506327,-1.506128 2.260209,-2.274597 1.015811,-1.035488 2.028963,-2.068228 3.028524,-3.015512 0.787098,-1.157585 0.997874,-1.994943 0.927474,-2.49745 -0.01207,-0.08613 -0.03305,-0.160811 -0.0609,-0.223783 -0.02461,-0.05558 -0.05411,-0.10029 -0.0869,-0.13389 l -0.0013,-0.0014 c -0.238041,-0.240012 -0.865938,0.04941 -1.450278,0.318833 -0.373986,0.172391 -0.733032,0.337977 -1.03358,0.379649 -0.0084,0.01876 -0.01714,0.03736 -0.02621,0.056 -0.177392,0.364096 -0.476674,0.695861 -0.754895,0.965161 -0.636717,0.61628 -1.324209,0.984899 -1.995747,1.109194 -0.132653,0.02455 -0.26501,0.0396 -0.396313,0.04509 -0.03351,0.0014 -0.06677,0.0021 -0.100028,0.0022 0.02608,0.103755 0.03988,0.212414 0.03988,0.324284 0,0.73132 -0.592275,1.324397 -1.322605,1.324397 -0.139322,0 -0.273579,-0.02172 -0.39969,-0.06175 -0.343471,0.67063 -0.707328,1.336654 -1.096298,1.98442 -0.722564,1.203313 -1.532326,2.345557 -2.461066,3.343303 -0.119105,0.12793 -0.2472,0.248549 -0.375801,0.36959 -0.201069,0.189297 -0.403699,0.38003 -0.555303,0.58733 l -2.95e-4,2.96e-4 4.2e-5,4.2e-5 c -0.105599,0.144371 -0.158947,0.272301 -0.158652,0.367351 4.2e-5,0.02937 0.0066,0.05215 0.01958,0.06606 0.0179,0.01919 0.05284,0.03347 0.105853,0.04078 0.172411,0.02388 0.446791,-0.03613 0.831793,-0.218923 0.922452,-0.437972 1.650798,-1.149217 2.382944,-1.864181 l 0.09589,-0.09361 c 0.255599,-0.249309 0.509172,-0.507621 0.763167,-0.766356 0.36297,-0.369717 0.726996,-0.740491 1.09883,-1.087851 l -2.96e-4,-2.96e-4 2.54e-4,-2.53e-4 0.0064,-0.0055 c 0.646256,-0.603178 1.246086,-1.17897 1.806284,-1.775767 0.558342,-0.59481 1.078656,-1.211766 1.568666,-1.899513 l 0.07036,-0.09881 c 0.653178,-0.917869 1.361604,-1.913164 2.085814,-2.196833 l -8.4e-5,-1.69e-4 8.44e-4,-2.54e-4 8.5e-5,1.69e-4 0.0021,-8.03e-4 0.06339,0.16415 0.106823,0.266891 z"
   class="fil5" /><path
   style="fill:#000000;fill-rule:nonzero"
   inkscape:connector-curvature="0"
   id="path32"
   d="m 14.585715,43.878306 c 0.140123,0.813563 -0.29734,1.424983 -0.700111,1.987885 -0.2759,0.385565 -0.533693,0.745985 -0.53209,1.096853 l -0.336296,0.0013 c -0.0022,-0.461682 0.28586,-0.86428 0.594048,-1.294983 0.363434,-0.507959 0.758228,-1.059703 0.642035,-1.734306 l 0.332414,-0.0568 z m 0.604641,-1.964091 c 0.07715,-0.382143 0.276238,-0.59574 0.481485,-0.815889 0.20052,-0.215118 0.408088,-0.43776 0.464518,-0.85646 l 0.333679,0.04488 c -0.07086,0.525752 -0.315362,0.788037 -0.551546,1.041404 -0.172833,0.185408 -0.340559,0.365322 -0.398424,0.652077 l -0.329712,-0.06602 z m -1.783409,7.141442 c -0.03697,-0.563198 0.238252,-0.946651 0.552348,-1.384242 0.33292,-0.46388 0.714504,-0.995464 0.746749,-1.884425 l 0.336296,0.01192 c -0.03592,0.99073 -0.449366,1.566691 -0.810057,2.069284 -0.276195,0.384762 -0.518204,0.721979 -0.48904,1.166333 l -0.336296,0.02113 z m 1.495903,-8.81975 c 0.06373,-0.367731 0.299704,-0.592021 0.559523,-0.83888 0.279656,-0.26575 0.591811,-0.562394 0.673986,-1.109109 l 0.333679,0.05021 c -0.09927,0.660656 -0.455992,0.999606 -0.775533,1.303266 -0.217275,0.206455 -0.41463,0.394019 -0.459242,0.651316 l -0.332413,-0.0568 z m 1.763361,2.056097 c -0.01549,0.338231 -0.178995,0.576215 -0.342121,0.813648 -0.100703,0.146611 -0.201406,0.293095 -0.24969,0.451454 l -0.321862,-0.09771 c 0.06394,-0.20954 0.179207,-0.377324 0.294597,-0.545278 0.135692,-0.197537 0.271722,-0.39554 0.28278,-0.63665 l 0.336296,0.01454 z m -0.519639,-6.074215 c 0.08547,1.025344 -0.323803,1.480686 -0.688757,1.88675 -0.22023,0.245041 -0.421763,0.469331 -0.441811,0.799659 l -0.336297,-0.01978 c 0.02726,-0.44913 0.266277,-0.715091 0.527489,-1.005734 0.318866,-0.354756 0.676434,-0.752663 0.60308,-1.633171 l 0.336296,-0.02772 z M 8.9446891,54.13052 c 0.1278415,0.181139 0.2800359,0.24783 0.4353113,0.315831 0.2106073,0.0923 0.4259417,0.186634 0.6318216,0.487589 L 9.7335168,55.124124 C 9.5822088,54.902919 9.4119503,54.828325 9.2454481,54.755379 9.0462364,54.668148 8.8510764,54.582607 8.6690003,54.324676 L 8.9446891,54.13052 z m -1.511941,-4.947102 c 0.2878863,0.803082 0.7366191,1.357278 1.3459031,1.662375 L 8.6283138,51.146959 C 7.9386277,50.801628 7.4345208,50.184925 7.1162041,49.297021 l 0.316544,-0.113603 z M 7.0515869,46.096355 c 0.1430779,1.084555 0.5206516,1.755354 1.1325946,2.012356 l -0.130585,0.311732 C 7.3233083,48.11374 6.8779941,47.353512 6.7179073,46.139971 l 0.3336796,-0.04362 z m 1.1704954,5.869704 c 0.00886,0.237603 0.1231146,0.421405 0.3286994,0.590542 0.2287558,0.18824 0.5702435,0.361645 1.0027271,0.563071 L 9.4123723,53.426079 C 8.9577307,53.214341 8.5955621,53.029482 8.3371355,52.816773 8.055538,52.585086 7.8987431,52.324957 7.8857859,51.977978 l 0.3362964,-0.01192 z m -0.7164446,-12.973531 -0.036255,0.203707 0,8.46e-4 C 7.1238011,41.134884 6.6445535,43.8218 7.9955634,45.694772 L 7.7225758,45.891548 C 6.2872807,43.901762 6.7809628,41.13387 7.1369694,39.137659 l 1.266e-4,0 0.036128,-0.203074 0.3324135,0.05815 z m 8.0563413,8.951441 c -0.150717,5.388751 1.422422,10.953062 4.719292,16.692596 l -0.291474,0.1677 c -1.457327,-2.537093 -2.581142,-5.041433 -3.371025,-7.512849 -0.149114,0.283965 -0.190222,0.621562 -0.21238,0.936591 l -0.336297,-0.02375 c 0.03216,-0.456737 0.11096,-0.962921 0.421342,-1.321481 -0.319288,-1.046306 -0.578685,-2.086696 -0.778066,-3.121169 -0.246144,0.426688 -0.41712,0.900753 -0.546144,1.37579 l -6.33e-4,0 -2.53e-4,8.45e-4 -0.324479,-0.0885 2.11e-4,-8.45e-4 -5.91e-4,-1.69e-4 c 0.167642,-0.61759 0.402138,-1.253184 0.783341,-1.768413 -0.176547,-1.008312 -0.296116,-2.010792 -0.358285,-3.007862 -0.201407,0.20299 -0.406063,0.453018 -0.592149,0.752452 -0.0536,0.08622 -0.10505,0.175349 -0.153671,0.267102 l 0,8.45e-4 c -0.05001,0.09433 -0.09745,0.191579 -0.141516,0.291277 l -0.309538,-0.133466 2.53e-4,-4.23e-4 6.75e-4,-0.0021 c 0.04875,-0.110265 0.09965,-0.214866 0.152068,-0.313761 l 2.95e-4,1.69e-4 c 0.05364,-0.101347 0.108934,-0.197242 0.165194,-0.287727 0.266193,-0.428336 0.56999,-0.764834 0.85488,-1.013722 -0.02891,-0.635044 -0.03499,-1.267891 -0.01735,-1.898329 l 0.336296,0.0092 z M 11.790673,34.644547 c -0.755823,3.173194 -1.165515,6.474404 -1.060169,9.936509 0.105304,3.462147 0.725688,7.088951 2.029849,10.91418 l -0.319161,0.108278 c -0.645032,-1.891948 -1.124026,-3.73635 -1.457368,-5.53739 -0.225295,0.252353 -0.339758,0.599882 -0.358159,0.93469 l -4.3e-5,0 -2.11e-4,0.0042 -0.336296,-0.01716 2.53e-4,-0.0048 0,-8.45e-4 c 0.02659,-0.486532 0.228967,-1.007678 0.624056,-1.308253 -0.127884,-0.734828 -0.231583,-1.462386 -0.312408,-2.183014 -0.449155,0.331047 -0.560747,0.90088 -0.560198,1.42397 l -0.3362966,0 c -0.00131,-0.699834 0.1973124,-1.426632 0.8564416,-1.79897 -0.07728,-0.76065 -0.129192,-1.513609 -0.15747,-2.259044 -0.4986626,0.240857 -0.6579475,0.936507 -0.7556963,1.424265 l -0.3297123,-0.06602 c 0.1303317,-0.650386 0.3650386,-1.482926 1.0735486,-1.716683 -0.02191,-0.785459 -0.01764,-1.562465 0.01093,-2.331526 -0.4539661,0.365068 -0.7355214,0.830004 -0.8866607,1.39299 l -0.3257449,-0.08715 c 0.1983254,-0.738463 0.60232,-1.306098 1.2311456,-1.738576 0.03263,-0.665431 0.08323,-1.324904 0.15059,-1.978629 -0.519723,0.280711 -0.9083545,0.803505 -1.2030359,1.308253 l -6.753e-4,0.0013 -6.331e-4,8.45e-4 -0.2653061,-0.158909 -0.023593,-0.01386 1.266e-4,-2.12e-4 -8.44e-5,-4.2e-5 6.331e-4,-8.45e-4 8.44e-5,4.2e-5 c 0.3600161,-0.616491 0.8576655,-1.25965 1.5349008,-1.527683 0.06837,-0.601741 0.166587,-1.298701 0.277841,-1.890933 -0.537323,0.335949 -0.9979574,0.959329 -1.4177792,1.541672 l -0.2426838,-0.2338 c 0.4545994,-0.694044 0.982088,-1.314972 1.688826,-1.756156 l 0.04166,-0.05169 c 0.1435,-0.810775 0.310973,-1.613096 0.500055,-2.40705 l 0.328446,0.07793 z m 13.9452,19.679664 c 0.281133,0.452933 0.659847,0.699749 1.003529,0.923659 0.568851,0.370605 1.053248,0.68631 1.006863,1.658487 l -0.336296,-0.01589 c 0.03714,-0.779288 -0.372678,-1.046391 -0.853909,-1.359941 -0.374155,-0.243773 -0.78638,-0.512397 -1.106427,-1.028048 l 0.28624,-0.178266 z m -0.413195,-2.309338 c 0.172411,0.748099 0.653853,1.267047 1.4442,1.556591 l -0.114715,0.316973 c -0.905401,-0.331681 -1.458129,-0.931182 -1.657931,-1.798251 l 0.328446,-0.07531 z m -7.548309,-31.3643 c -0.06719,0.340176 -0.01777,0.538939 0.03689,0.759045 0.06888,0.277246 0.145146,0.584244 0.05917,1.175166 l -0.33368,-0.04759 c 0.07665,-0.526851 0.0087,-0.800166 -0.05259,-1.047025 -0.06424,-0.258607 -0.12227,-0.492068 -0.04086,-0.904345 l 0.331063,0.06475 z m 0.664193,-1.951496 c -0.233862,0.415403 -0.135396,0.760988 -0.01988,1.166545 0.106612,0.374324 0.226139,0.793784 0.157935,1.361124 l -0.33503,-0.03964 c 0.06014,-0.500437 -0.04951,-0.885453 -0.147383,-1.22901 -0.136325,-0.478587 -0.252476,-0.886298 0.05027,-1.424096 l 0.29409,0.16508 z m 1.332482,-2.621535 c -0.666768,0.773076 -0.577292,1.425152 -0.48216,2.118182 0.07399,0.53915 0.151097,1.101164 -0.07348,1.769512 l -0.319161,-0.10701 c 0.199465,-0.593627 0.127757,-1.116252 0.05896,-1.617619 -0.105725,-0.770244 -0.205162,-1.494971 0.561254,-2.383594 l 0.254586,0.220529 z m -2.583506,1.101967 c -1.103599,0.525287 -1.47864,1.378452 -1.265163,2.563508 -0.638744,0.530739 -0.842134,1.165488 -0.755738,1.975924 l -0.335031,0.03567 c -0.08762,-0.821255 0.09306,-1.577595 0.726363,-2.14392 -0.195539,-1.253945 0.347903,-2.194594 1.485816,-2.736237 l 0.143753,0.305055 z m 0.02439,5.813875 c -1.271832,0.891243 -1.616274,2.39754 -1.633114,3.866604 l -0.336296,-0.0026 c 0.01819,-1.58309 0.410367,-3.182493 1.776867,-4.140047 l 0.192543,0.276063 z m -3.081704,-1.091402 c -0.551504,0.678956 -0.482962,1.340035 -0.408722,2.056056 0.06529,0.630142 0.134722,1.299842 -0.163674,2.077651 l -0.313927,-0.120196 c 0.269189,-0.701609 0.203939,-1.33099 0.142571,-1.923138 -0.08171,-0.787994 -0.157174,-1.515468 0.482582,-2.30304 l 0.26117,0.212667 z m 0.940009,5.887878 c -0.708847,0.861532 -0.946973,1.793813 -0.648577,2.882129 -0.777095,0.841204 -0.797691,1.756621 -0.383314,2.775879 l -0.312577,0.12679 c -0.424633,-1.044447 -0.454051,-2.100686 0.323635,-2.992985 -0.27839,-1.11752 0.04292,-2.13289 0.761014,-3.005749 l 0.259819,0.213936 z m -3.221743,-0.07472 c -0.517781,0.808492 -0.267796,1.503043 -0.01781,2.197509 0.220864,0.613745 0.441811,1.227615 0.212676,1.942833 l -0.320512,-0.103037 c 0.194274,-0.606433 -0.0072,-1.166376 -0.208708,-1.726192 -0.278136,-0.772654 -0.556273,-1.545391 0.05082,-2.493352 l 0.283539,0.182239 z m 61.634501,22.701388 c 0.604177,0.662685 0.651954,1.51437 0.507188,2.356672 l -0.332413,-0.0568 c 0.126786,-0.737533 0.107583,-1.489519 -0.424043,-2.072665 l 0.249268,-0.227206 z m 0.208117,-8.659911 c -0.104459,1.083582 0.344358,1.677843 0.755865,2.222614 0.393486,0.520976 0.756203,1.001254 0.661409,1.792122 l -0.335031,-0.03964 c 0.07871,-0.656472 -0.244667,-1.084639 -0.595482,-1.54911 -0.449071,-0.594557 -0.93887,-1.243041 -0.821791,-2.457681 l 0.33503,0.0317 z m 0.303461,5.765568 c -0.199296,0.75 0.06892,1.260834 0.352588,1.801082 0.28088,0.534881 0.575603,1.096262 0.515375,1.931802 l -0.336296,-0.02375 c 0.05335,-0.740533 -0.218289,-1.25796 -0.477137,-1.750916 -0.315152,-0.600262 -0.613125,-1.16777 -0.380275,-2.044095 l 0.325745,0.08588 z m 0.0021,-7.907375 c -0.17507,0.861532 0.202039,1.415601 0.594259,1.991857 0.393654,0.578244 0.801278,1.177111 0.764686,2.11459 l -0.336297,-0.01192 c 0.03225,-0.826877 -0.343682,-1.379213 -0.706695,-1.912488 -0.432948,-0.636059 -0.849224,-1.24769 -0.645665,-2.249409 l 0.329712,0.06737 z m -3.324219,-0.353446 c 0.09614,1.407106 0.157681,2.814297 0.181907,4.221276 0.685424,0.492534 1.222916,1.149851 1.477586,1.964852 l -0.321862,0.100417 c -0.205416,-0.657529 -0.618147,-1.209315 -1.149562,-1.637482 0.0095,0.803167 0.0066,1.606291 -0.0089,2.409416 0.739278,0.351629 1.152938,0.869605 1.176531,1.710132 l -0.336297,0.0092 c -0.01802,-0.64206 -0.291727,-1.051378 -0.848422,-1.346628 -0.03347,1.371521 -0.10446,2.743041 -0.215757,4.114435 0.311986,0.259115 0.597003,0.53691 0.793893,0.875395 0.218711,0.375972 0.325112,0.818382 0.234918,1.376634 l -0.332414,-0.05283 c 0.07614,-0.471276 -0.01199,-0.841923 -0.193978,-1.154754 -0.135143,-0.232362 -0.324014,-0.437423 -0.537281,-0.629762 -0.07285,0.835921 -0.160846,1.671842 -0.264419,2.507805 0.372635,0.402471 0.503051,0.867281 0.467345,1.411629 l -0.336296,-0.02113 c 0.02114,-0.321918 -0.01633,-0.645483 -0.190771,-0.921799 -0.153925,1.175969 -0.339039,2.351981 -0.557075,3.528035 0.397622,0.239505 0.651448,0.752494 0.523648,1.213203 l -0.324478,-0.08985 c 0.0758,-0.273315 -0.06044,-0.58023 -0.267839,-0.758495 -0.120202,0.628536 -0.249774,1.257114 -0.389054,1.885693 0.376857,0.281599 0.494358,0.750803 0.494316,1.200778 l -0.336297,0 c 0,-0.285487 -0.04782,-0.600981 -0.242979,-0.822693 -0.182836,0.802914 -0.381541,1.605912 -0.596791,2.408867 l -0.325745,-0.08715 c 1.044806,-3.897541 1.700432,-7.795674 2.028288,-11.694103 0.327939,-3.900076 0.327981,-7.799688 0.06154,-11.698624 l 0.336296,-0.02248 z M 68.118799,23.561399 c 0.100576,0.504367 0.194231,1.010045 0.279192,1.517286 0.634565,0.597473 1.182904,1.326595 1.60644,2.083146 L 69.71034,27.32691 c -0.33579,-0.599839 -0.755443,-1.168066 -1.220214,-1.674039 0.08454,0.550687 0.157892,1.103404 0.217698,1.658613 0.527911,0.381974 0.901813,0.972558 1.183199,1.547716 l -0.302025,0.14792 c -0.213941,-0.437338 -0.481738,-0.872647 -0.832891,-1.21409 0.09408,1.012622 0.140462,2.030317 0.125774,3.047377 0.546904,0.571439 0.900758,1.44117 1.076756,2.186352 l -0.328446,0.07658 c -0.142614,-0.603728 -0.413491,-1.222417 -0.761267,-1.736124 -0.02203,0.631283 -0.06804,1.266497 -0.141474,1.90636 0.443246,0.396681 0.670524,1.021244 0.699646,1.604009 l -0.336296,0.01589 c -0.02085,-0.417981 -0.158314,-0.853418 -0.417289,-1.185774 -0.07196,0.537459 -0.163548,1.078215 -0.276871,1.622605 0.231246,0.329441 0.399985,0.752409 0.483131,1.140173 l -0.329713,0.06999 c -0.04491,-0.209413 -0.14983,-0.487969 -0.261338,-0.718852 -0.164603,0.711414 -0.366769,1.429083 -0.611099,2.153768 l -0.319161,-0.10701 c 0.842682,-2.499437 1.178388,-4.914222 1.18953,-7.274571 0.01118,-2.362251 -0.303333,-4.675181 -0.760254,-6.966388 l 0.331063,-0.06602 z m 2.889625,-6.951934 c 1.336153,1.299208 2.477147,2.960062 1.757199,4.894019 0.792837,1.211513 1.125546,2.574496 0.270751,3.858701 0.230781,0.680774 0.27725,1.227066 0.180557,1.591754 -0.30325,1.143173 -1.551488,0.332314 -1.957593,-0.191917 l 0.242684,-0.233799 c 0.678965,0.619999 1.123182,0.696326 1.304963,0.44989 0.206091,-0.279401 0.07293,-0.968922 -0.145188,-1.66546 0.907637,-1.297602 0.550491,-2.540474 -0.273283,-3.76792 0.746833,-1.882143 -0.298522,-3.413756 -1.614839,-4.693608 l 0.234749,-0.24166 z m -20.828809,34.41696 c 0.101125,0.410205 0.05761,0.793869 0.0095,1.217852 -0.07753,0.683436 -0.08513,1.288051 0.115265,1.958512 -0.01541,0.188071 -0.02604,0.376226 -0.02904,0.564931 -0.003,0.179406 -1.27e-4,0.363631 0.0082,0.550476 0.0425,0.950623 0.230782,1.929815 0.554585,2.679224 l -0.308609,0.133382 c -0.218331,-0.505339 -0.37808,-1.107123 -0.476125,-1.734307 -0.159074,0.156839 -0.30194,0.333245 -0.419821,0.523217 l 1.26e-4,8.5e-5 -2.53e-4,4.22e-4 -1.27e-4,-8.4e-5 -8.44e-4,0.0017 -0.287802,-0.174588 2.54e-4,-4.23e-4 0.0013,-0.0021 c 0.175998,-0.284093 0.39741,-0.53915 0.652714,-0.754818 -0.02465,-0.218838 -0.04187,-0.438818 -0.05162,-0.657233 -0.0085,-0.190311 -0.01123,-0.381213 -0.0082,-0.57034 8.44e-4,-0.05194 0.0021,-0.103249 0.0038,-0.153964 -0.279318,0.321875 -0.507694,0.686225 -0.731596,1.047616 l -0.286241,-0.176997 c 0.295526,-0.476939 0.600463,-0.958865 1.007834,-1.349629 -0.143246,-0.539107 -0.155444,-0.992801 -0.129234,-1.398442 -0.294681,0.316762 -0.541375,0.696242 -0.722649,1.090302 l -0.307596,-0.137355 2.95e-4,-8.45e-4 0.0013,-0.0034 c 0.246483,-0.535896 0.612787,-1.092796 1.076841,-1.451609 l 0.0025,-0.02109 c 0.04461,-0.3933 0.085,-0.749155 -0.0017,-1.100277 l 0.327096,-0.08055 z m 3.545335,0.02988 c 0.162198,0.575919 0.182625,1.136454 0.202884,1.692804 0.02334,0.642864 0.04664,1.280275 0.299324,1.907332 l 0.01161,0.02887 2.53e-4,0.03318 3.8e-4,0.05769 0,4.23e-4 c 0.013,1.471895 0.25792,2.986645 0.813645,4.349122 l -0.311311,0.126789 c -0.25332,-0.62114 -0.451138,-1.312141 -0.590798,-2.027359 -0.189842,0.225347 -0.347565,0.476136 -0.469413,0.744295 l -8.45e-4,8.45e-4 -2.53e-4,4.23e-4 -0.306414,-0.141201 c 0.171946,-0.378424 0.411422,-0.725826 0.702094,-1.022724 -0.09298,-0.574101 -0.149366,-1.15488 -0.16743,-1.736251 -0.3509,0.447143 -0.676561,0.980546 -0.865432,1.524556 l 0,8.45e-4 -2.53e-4,8.45e-4 -0.317895,-0.112251 2.54e-4,-8.45e-4 2.11e-4,8.5e-5 c 0.232554,-0.669743 0.650392,-1.357574 1.127192,-1.866168 -0.216559,-0.623802 -0.238885,-1.237716 -0.261381,-1.856531 l -0.0034,-0.09027 c -0.255683,0.319762 -0.495075,0.744759 -0.689475,1.189325 -0.05077,0.116054 -0.09868,0.234179 -0.143078,0.352516 -0.0433,0.115505 -0.08361,0.232573 -0.120286,0.349473 l 0,8.45e-4 -2.54e-4,8.45e-4 -0.321862,-0.101685 2.54e-4,-8.45e-4 1.68e-4,4.2e-5 c 0.03744,-0.11935 0.07994,-0.242378 0.126787,-0.367308 0.04588,-0.122267 0.09598,-0.245675 0.149662,-0.368407 0.262394,-0.600008 0.60768,-1.172039 0.974913,-1.531317 -0.0233,-0.348079 -0.06609,-0.697214 -0.164518,-1.046602 l 0.324479,-0.09112 z m 3.747502,0.03808 8.44e-4,0.0017 2.53e-4,-1.27e-4 c 0.188576,0.406951 0.271848,0.971374 0.359088,1.563437 0.09923,0.673377 0.184608,1.416235 0.542472,2.012609 0.02313,0.840823 0.11978,1.67611 0.341825,2.488998 0.2074,0.759467 0.515081,1.473586 0.938659,2.156768 l -0.28624,0.178266 C 58.976754,58.86284 58.679456,58.20248 58.466231,57.504802 58.289136,57.832256 58.171001,58.19145 58.08659,58.55339 l -1.27e-4,-4.2e-5 -1.27e-4,4.23e-4 -0.328446,-0.07531 2.54e-4,-0.0013 0,-4.23e-4 c 0.115475,-0.494604 0.291727,-0.998042 0.585395,-1.413952 -0.14848,-0.592951 -0.240194,-1.212485 -0.282062,-1.864773 -0.32604,0.509481 -0.577629,1.061859 -0.832975,1.608701 l -0.304642,-0.14268 c 0.315405,-0.675491 0.626673,-1.370591 1.076123,-1.970431 -0.227869,-0.435267 -0.34364,-0.982235 -0.432568,-1.534402 -0.338955,0.482771 -0.605865,1.028641 -0.825378,1.576919 l -2.53e-4,4.23e-4 -0.312577,-0.125437 2.54e-4,-8.45e-4 c 0.268766,-0.671222 0.602531,-1.362012 1.067808,-1.914052 -0.08302,-0.563239 -0.162915,-1.099389 -0.329712,-1.459428 l 0,-8.45e-4 -0.0013,-0.0025 0.305992,-0.139975 z m 6.677222,-3.521696 c 0.231162,0.406613 0.28987,0.901809 0.354318,1.446453 0.08251,0.697045 0.185326,1.354996 0.528418,1.981165 -0.01118,0.526809 0.01524,1.052984 0.08505,1.575356 0.169372,1.266201 0.574211,2.4248 1.148295,3.148132 l -0.263787,0.209963 c -0.404416,-0.509523 -0.729106,-1.215147 -0.953937,-2.017596 -0.10505,0.180886 -0.201111,0.378508 -0.284594,0.571016 l 0,8.46e-4 c -0.05255,0.121252 -0.101632,0.244027 -0.147341,0.368026 l -8.44e-4,8.46e-4 -2.53e-4,8.45e-4 -0.315616,-0.117576 c 0.163084,-0.44186 0.36411,-0.887651 0.635621,-1.271146 -0.142825,-0.634875 -0.221201,-1.285769 -0.238759,-1.936155 -0.325491,0.494436 -0.611647,1.029993 -0.826222,1.583639 l -8.44e-4,0.0021 -2.53e-4,8.45e-4 -0.312999,-0.124126 4.22e-4,-0.0013 -4.2e-5,-4.2e-5 2.53e-4,-4.23e-4 4.2e-5,0 c 0.272017,-0.701398 0.647143,-1.387031 1.097142,-1.986025 -0.269231,-0.537375 -0.3731,-1.079652 -0.441094,-1.58981 -0.390742,0.517976 -0.728853,1.097361 -0.948661,1.711062 l 3.8e-4,1.27e-4 -2.53e-4,8.45e-4 -3.8e-4,-1.26e-4 -4.2e-5,8.4e-5 -0.01849,-0.0066 -0.298986,-0.105573 2.53e-4,-8.45e-4 8.44e-4,-8.46e-4 c 0.269611,-0.75262 0.700069,-1.45499 1.208059,-2.067593 -0.05592,-0.465781 -0.116362,-0.887482 -0.298733,-1.208216 l 0.292824,-0.166432 z m -7.258523,-40.2893691 0.0025,0.00216 c 0.217867,0.1740815 0.475365,0.3330751 0.741388,0.4973516 0.954486,0.5894428 2.013938,1.2440553 1.983803,2.8784521 1.31218,0.833216 1.439389,2.795828 0.835549,4.104038 0.504023,1.046476 0.387746,2.780149 -0.452278,3.558634 0.07863,1.258805 -0.409101,2.460048 -1.482439,3.200623 l -0.191277,-0.27733 c 1.001757,-0.691254 1.425588,-1.812197 1.33168,-2.978827 l -2.53e-4,-0.0031 -0.0072,-0.08896 c 0.907552,-0.718514 0.968624,-2.370661 0.466881,-3.327497 l -4.2e-5,0 -4.22e-4,-8.45e-4 -0.04259,-0.07747 c 0.633215,-1.273597 0.5916,-3.120535 -0.801405,-3.920786 0.06479,-1.4468335 -0.703361,-2.092782 -1.81671,-2.7802751 -0.276744,-0.1708695 -0.54454,-0.3362871 -0.774309,-0.5198355 l -0.0025,-0.00216 0.209679,-0.264144 z m -10.714679,42.1952641 2.54e-4,8.45e-4 0,8.45e-4 c 0.09104,0.370647 0.06884,0.797208 0.04423,1.269075 -0.03402,0.653049 -0.04647,1.280529 0.121933,1.920095 -0.173171,0.548955 -0.226308,1.102179 -0.162619,1.674251 0.06111,0.548786 0.222172,1.100065 0.445441,1.652739 l -0.312577,0.12679 c -0.22386,-0.554154 -0.388378,-1.109828 -0.459031,-1.667447 -0.164434,0.199608 -0.315489,0.418911 -0.425688,0.654274 l 3.37e-4,1.69e-4 -2.53e-4,4.23e-4 -2.95e-4,-1.27e-4 -1.27e-4,2.54e-4 -0.305571,-0.141455 2.54e-4,-4.22e-4 8.44e-4,-8.46e-4 c 0.168275,-0.359405 0.415812,-0.69472 0.694286,-0.973233 -0.01313,-0.444903 0.03942,-0.89006 0.174522,-1.335386 l -0.0068,-0.02777 c -0.364321,0.314691 -0.676264,0.705497 -0.95744,1.096896 l 1.27e-4,8.4e-5 -3.8e-4,4.23e-4 -1.27e-4,-8.5e-5 -0.0013,0.0021 -0.275351,-0.193607 3.8e-4,-4.22e-4 0.0021,-0.0025 c 0.331865,-0.461893 0.70526,-0.936084 1.159775,-1.277232 -0.06242,-0.424194 -0.05943,-0.832413 -0.04343,-1.215316 -0.410198,0.294108 -0.74067,0.739941 -0.969806,1.190296 l -0.0013,0.0013 -4.22e-4,8.46e-4 -0.298902,-0.155528 c 0.285311,-0.561085 0.732103,-1.154204 1.29074,-1.444467 0.02068,-0.406655 0.03338,-0.774428 -0.03984,-1.073228 l -1.69e-4,4.2e-5 -2.53e-4,-8.45e-4 0.327096,-0.08191 z m 14.995536,0.322425 8.44e-4,0.0038 0,4.23e-4 c 0.08306,0.395244 0.129276,0.834273 0.175703,1.276175 0.07749,0.737068 0.123748,1.636468 0.567542,2.266906 0.02119,0.86821 0.07859,1.739632 0.255852,2.591824 0.164265,0.789558 0.425224,1.518427 0.833777,2.148062 l -0.282273,0.183591 c -0.356681,-0.549716 -0.60654,-1.166756 -0.779795,-1.829357 -0.12054,0.242041 -0.211578,0.509439 -0.262858,0.775781 l -2.54e-4,0.0013 -0.331063,-0.06339 2.54e-4,-0.0013 c 0.07719,-0.401456 0.229093,-0.859081 0.487224,-1.17132 -0.135101,-0.658416 -0.205374,-1.355503 -0.238505,-2.071524 -0.320723,0.495788 -0.616037,1.030923 -0.774436,1.602531 l -0.324478,-0.08985 c 0.203052,-0.732842 0.609663,-1.412009 1.041809,-2.031121 -0.238421,-0.396216 -0.356048,-0.919939 -0.434889,-1.480643 -0.343767,0.405133 -0.639757,0.926744 -0.771566,1.450045 l -2.53e-4,8.45e-4 -0.327095,-0.08191 2.53e-4,-8.45e-4 c 0.165067,-0.655458 0.560114,-1.347431 1.044849,-1.800533 -0.01363,-0.121252 -0.02634,-0.243097 -0.03912,-0.364772 -0.04541,-0.432563 -0.0907,-0.862251 -0.170259,-1.241182 l -1.26e-4,4.3e-5 -8.45e-4,-0.0038 0.329713,-0.06999 z"
   class="fil3" /><circle
   d="m 100.3632,56.085999 c 0,0.24897 -0.20183,0.4508 -0.450801,0.4508 -0.24897,0 -0.4508,-0.20183 -0.4508,-0.4508 0,-0.24897 0.20183,-0.4508 0.4508,-0.4508 0.248971,0 0.450801,0.20183 0.450801,0.4508 z"
   style="fill:#b2b2b2"
   sodipodi:ry="0.4508"
   sodipodi:rx="0.4508"
   sodipodi:cy="56.085999"
   sodipodi:cx="99.912399"
   id="circle34"
   r="0.4508"
   cy="56.085999"
   cx="99.912399"
   class="fil6"
   transform="matrix(0.42205872,0,0,0.42263054,-2.0959872,-11.764386)" /><path
   style="fill:#e5e5e5;fill-rule:nonzero"
   inkscape:connector-curvature="0"
   id="path36"
   d="m 38.822395,13.835022 c 0.102265,0.01014 0.205584,0.0131 0.309411,0.0087 0.108975,-0.0045 0.219555,-0.0172 0.331063,-0.03782 0.583116,-0.10794 1.188348,-0.435943 1.758128,-0.987476 0.246608,-0.238702 0.510015,-0.529007 0.658833,-0.8344 0.130965,-0.26875 0.169541,-0.552631 0.0081,-0.821086 -0.296286,-0.492576 -0.692346,-0.450524 -1.070595,-0.222388 -0.131218,0.07912 -0.261718,0.178476 -0.387618,0.287135 0.244878,0.178181 0.40429,0.467049 0.40429,0.793193 0,0.541051 -0.438182,0.979826 -0.978501,0.979826 -0.310509,0 -0.587295,-0.14492 -0.766543,-0.370858 -0.313126,0.332695 -0.584256,0.654486 -0.591473,0.899316 0.124845,0.08296 0.234707,0.186422 0.324943,0.305815 z"
   class="fil7" /><circle
   d="m 97.421402,62.460602 c 0,1.64139 -1.33061,2.972 -2.972,2.972 -1.64139,0 -2.972,-1.33061 -2.972,-2.972 0,-1.64139 1.33061,-2.972 2.972,-2.972 1.64139,0 2.972,1.33061 2.972,2.972 z"
   sodipodi:ry="2.9719999"
   sodipodi:rx="2.9719999"
   sodipodi:cy="62.460602"
   sodipodi:cx="94.449402"
   style="fill:url(#id0)"
   id="circle38"
   r="2.9719999"
   cy="62.460602"
   cx="94.449402"
   class="fil8"
   transform="matrix(0.42205872,0,0,0.42263054,-2.0959872,-11.764386)" />
</svg>