<?xml version="1.0" encoding="UTF-8" standalone="no"?>
<!-- Creator: CorelDRAW -->

<svg
   xmlns:dc="http://purl.org/dc/elements/1.1/"
   xmlns:cc="http://creativecommons.org/ns#"
   xmlns:rdf="http://www.w3.org/1999/02/22-rdf-syntax-ns#"
   xmlns:svg="http://www.w3.org/2000/svg"
   xmlns="http://www.w3.org/2000/svg"
   xmlns:sodipodi="http://sodipodi.sourceforge.net/DTD/sodipodi-0.dtd"
   xmlns:inkscape="http://www.inkscape.org/namespaces/inkscape"
   xml:space="preserve"
   width="300"
   height="365"
   style="fill-rule:evenodd"
   viewBox="0 0 84.666667 103.01111"
   id="svg2"
   version="1.1"
   inkscape:version="0.48.1 "
   sodipodi:docname="поставы_.svg"><metadata
   id="metadata53"><rdf:RDF><cc:Work
       rdf:about=""><dc:format>image/svg+xml</dc:format><dc:type
         rdf:resource="http://purl.org/dc/dcmitype/StillImage" /></cc:Work></rdf:RDF></metadata><sodipodi:namedview
   pagecolor="#ffffff"
   bordercolor="#666666"
   borderopacity="1"
   objecttolerance="10"
   gridtolerance="10"
   guidetolerance="10"
   inkscape:pageopacity="0"
   inkscape:pageshadow="2"
   inkscape:window-width="640"
   inkscape:window-height="480"
   id="namedview51"
   showgrid="false"
   fit-margin-top="0"
   fit-margin-left="0"
   fit-margin-right="0"
   fit-margin-bottom="0"
   inkscape:zoom="0.71506849"
   inkscape:cx="150"
   inkscape:cy="182.5"
   inkscape:window-x="0"
   inkscape:window-y="0"
   inkscape:window-maximized="0"
   inkscape:current-layer="svg2" />
 <defs
   id="defs4"><style
     type="text/css"
     id="style6">
   
    .fil0 {fill:black}
    .fil6 {fill:#F0E043}
    .fil1 {fill:white}
    .fil3 {fill:black;fill-rule:nonzero}
    .fil2 {fill:#3C82C2;fill-rule:nonzero}
    .fil5 {fill:#F0E043;fill-rule:nonzero}
    .fil4 {fill:white;fill-rule:nonzero}
   
  </style></defs>
 <path
   id="path3036"
   d="m 62.58329,49.255891 c 0.828322,0 1.500011,0.671689 1.500011,1.500012 l 0,1.499658 c 0,0.828322 -0.671689,1.500011 -1.500011,1.500011 l -1.500011,0 0,-4.499681 1.500011,0 z m 0,5.999692 c 1.656644,0 3.000022,-1.343378 3.000022,-3.000022 l 0,-1.499658 c 0,-1.656645 -1.343378,-3.000023 -3.000022,-3.000023 l -3.000022,0 0,7.499703 3.000022,0 z m -6.000044,-7.499703 1.500011,0 0,7.499703 -1.500011,0 0,-7.499703 z m -3.000022,0 1.500011,0 0,7.499703 -1.500011,0 -3.000023,-4.708525 0,4.708525 -1.500011,0 0,-7.499703 1.500011,0 3.000023,4.708525 0,-4.708525 z m -22.499884,0 4.499998,0 0,1.500011 -2.999987,0 0,1.500012 2.999987,0 0,1.500011 -2.999987,0 0,1.499658 2.999987,0 0,1.500011 -4.499998,0 0,-7.499703 z m -5.999974,-3.52e-4 1.499976,0 0,6.000044 3.000022,0 0,1.500011 -4.499998,0 0,-7.500055 z m 15.750398,6.000044 1.499588,0 c 1.242272,0 2.250158,-1.007533 2.250158,-2.250017 0,-1.24213 -1.026583,-2.24543 -2.250158,-2.250016 l -1.499588,0 0,1.500011 1.499588,0 c 0.414091,0 0.750147,0.336197 0.750147,0.750005 0,0.414161 -0.336056,0.750006 -0.750147,0.750006 l -1.499588,0 0,1.500011 z m 1.499588,-7.500055 c 2.898916,0 5.249827,2.351263 5.249827,5.250038 0,2.899128 -2.350911,5.250039 -5.249827,5.250039 -2.899022,0 -5.250003,-2.350911 -5.250003,-5.250039 0,-2.898775 2.350981,-5.250038 5.250003,-5.250038 z m 0,1.500011 c 2.070594,0 3.750169,1.679575 3.750169,3.750027 0,2.070806 -1.679575,3.750028 -3.750169,3.750028 -2.0707,0 -3.749992,-1.679222 -3.749992,-3.750028 0,-2.070452 1.679292,-3.750027 3.749992,-3.750027 z"
   style="fill:#a90000;stroke:none"
   inkscape:connector-curvature="0" /><path
   style="fill:#000000"
   inkscape:connector-curvature="0"
   id="path10"
   d="m 84.666669,-2.2107e-6 0,87.3747282107 c 0,4.887566 -4.000538,8.886918 -8.889963,8.886918 l -24.587242,0 c -4.138451,0.0147 -7.631843,2.895518 -8.592443,6.749466 l -0.52627,0 c -0.9606,-3.853948 -4.455095,-6.733842 -8.593546,-6.749466 l -24.5872417,0 C 4.0005385,96.261644 -2.5979999e-7,92.262475 -2.5979999e-7,87.374726 l 0,-87.3747282107 c 28.22222325979999,0 56.44444625979999,0 84.66666925979998,0 z"
   class="fil0" /><path
   style="fill:#ffffff"
   inkscape:connector-curvature="0"
   id="path12"
   d="m 84.295227,0.37131235 c 0,0.73509255 0,87.00433265 0,87.00433265 0,4.695842 -3.821805,8.516338 -8.519257,8.516338 l -24.587426,0 c -4.196925,0.01654 -7.7407,2.846439 -8.856129,6.689727 -1.115429,-3.843288 -4.659204,-6.673734 -8.854658,-6.689727 l -24.5885293,0 c -4.6976357,0 -8.51944108,-3.820496 -8.51944108,-8.516338 0,0 0,-86.2692401 0,-87.00433265 0.73185068,0 83.19377438,0 83.92544038,0 z"
   class="fil1" /><path
   style="fill:#3c82c2;fill-rule:nonzero"
   inkscape:connector-curvature="0"
   id="path14"
   d="m 42.333334,100.79903 c 1.608785,-3.274182 4.936867,-5.424314 8.547576,-5.548391 0.09378,-0.0037 0.197305,-0.0055 0.308554,-0.0055 l 0,-0.0018 24.587426,0 0.0018,0 0,0.0018 c 4.306335,-9.19e-4 7.870338,-3.564252 7.870522,-7.869111 l -0.0018,0 0,-0.0013 0.0018,0 0,-86.355819 -82.6336695,0 0,86.355819 0.00257,0 0,0.0013 -0.00257,0 c 1.839e-4,4.304859 3.5641866,7.868192 7.8705212,7.869111 l 0,-0.0018 0.00276,0 24.587426,0 0,0.0018 c 0.111249,3.68e-4 0.214774,0.0018 0.308554,0.0055 3.610709,0.124077 6.938791,2.274209 8.547575,5.548391 z"
   class="fil2" /><path
   style="fill:#000000;fill-rule:nonzero"
   inkscape:connector-curvature="0"
   id="path16"
   d="M 63.231534,86.626582 C 51.378311,88.41312 39.383682,88.719914 27.360919,87.404137 l -0.01011,-0.0011 C 20.660072,86.671618 14.021193,85.4665 7.4926433,83.831245 l 0.049648,-0.165805 1.839e-4,0 c 1.1534924,-3.887038 2.5331597,-7.708637 4.1619877,-11.42215 4.15978,-9.483043 9.879616,-18.11721 17.448939,-25.472179 l -3.68e-4,-3.68e-4 0.0015,-0.0015 0.002,-0.0011 c 0.561208,-0.545208 1.126829,-1.079386 1.69576,-1.601616 3.551499,-3.257826 7.391141,-6.207387 11.483069,-8.756222 l 0.08642,0.05478 0.0018,0.0013 c 3.333598,2.128073 6.517516,4.491251 9.510197,7.076851 7.634601,6.596532 13.914542,14.5377 18.634979,23.665972 2.745544,5.309798 4.890896,10.901759 6.60339,16.62368 -4.589145,1.16578 -9.259199,2.088001 -13.940837,2.793682 z M 76.764336,83.601288 C 75.079609,78.012636 72.964413,72.545856 70.281389,67.357378 65.580076,58.26587 59.325695,50.357054 51.722538,43.787727 48.766817,41.234296 45.624088,38.898691 42.334254,36.793043 37.668798,39.716869 33.331019,43.16311 29.383622,46.998311 l 3.68e-4,3.68e-4 -0.0015,0.0015 -0.002,0.0011 c -7.539165,7.325007 -13.236017,15.9248 -17.379616,25.371079 -1.601429,3.651015 -2.9606851,7.40699 -4.100754,11.226751 6.407371,1.594447 12.921394,2.76372 19.484882,3.482269 l 0.01011,0.0011 c 11.993526,1.312653 23.960756,1.006226 35.788236,-0.776451 4.565976,-0.688219 9.098853,-1.595366 13.580979,-2.704714 z"
   class="fil3" /><path
   style="fill:#ffffff;fill-rule:nonzero"
   inkscape:connector-curvature="0"
   id="path18"
   d="M 76.969365,83.716726 C 60.693593,87.765341 44.062562,89.068619 27.378572,87.242376 20.745577,86.516475 14.169586,85.333415 7.6969363,83.71452 11.842926,69.73949 18.774361,57.080421 29.268328,46.884527 c 3.971118,-3.858179 8.369761,-7.349271 13.067213,-10.284126 12.001432,7.661395 21.546568,18.028241 28.090196,30.681979 2.719984,5.259983 4.844374,10.768306 6.543628,16.434346 z M 18.500561,62.390403 19.831499,61.05992 19.535449,60.763971 c -0.350663,0.536936 -0.695994,1.079019 -1.034888,1.626432 z m 1.399159,-2.179176 0.390381,0.390248 1.990708,-1.990025 -0.752997,-0.752739 c -0.555876,0.772591 -1.098512,1.55658 -1.628092,2.352516 z m 2.013692,-2.883937 0.825999,0.825715 1.990155,-1.989474 -1.096121,-1.095746 c -0.586216,0.741343 -1.159744,1.49445 -1.720033,2.259505 z m 2.127148,-2.769419 1.147608,1.147215 1.990892,-1.990209 -1.326342,-1.325887 c -0.617108,0.711012 -1.220977,1.434156 -1.812158,2.168881 z m 2.24042,-2.657656 1.356682,1.356217 1.990707,-1.990025 -1.44329,-1.442796 c -0.647265,0.680498 -1.282394,1.372393 -1.904099,2.076604 z m 2.353139,-2.544424 1.452852,1.452171 1.990524,-1.989842 -1.449175,-1.448678 c -0.153174,0.146871 -0.30598,0.294111 -0.457866,0.442269 -0.520019,0.50734 -1.031763,1.022218 -1.536335,1.54408 z m 2.464388,-2.433213 1.43759,1.437097 1.990891,-1.990209 -1.342339,-1.341879 c -0.706843,0.618735 -1.402469,1.250337 -2.086142,1.894991 z m 2.577291,-2.3209 1.309792,1.309343 1.990708,-1.990025 -1.124623,-1.124238 c -0.736264,0.588405 -1.461495,1.190229 -2.175877,1.80492 z m 2.687621,-2.210241 1.071481,1.071114 1.990523,-1.989842 -0.795842,-0.795569 c -0.765501,0.557891 -1.52144,1.129201 -2.266162,1.714297 z m 2.798317,-2.099214 0.722289,0.722042 1.990708,-1.990026 -0.356916,-0.356793 c -0.795106,0.527561 -1.58065,1.069092 -2.356081,1.624777 z m 2.909567,-1.988371 0.262032,0.261942 0.261296,-0.261207 -0.261848,-0.170768 -0.26148,0.170033 z m 1.076629,0.364513 -0.355996,0.355874 1.990708,1.990026 0.722473,-0.722226 c -0.773041,-0.553479 -1.55932,-1.094458 -2.357185,-1.623674 z m 2.889707,2.008224 -0.796393,0.79612 1.990707,1.989842 1.071481,-1.071114 C 47.560367,41.807812 46.805715,41.23595 46.037639,40.676589 z m 2.777539,2.120169 -1.124623,1.124238 1.990708,1.990025 1.310344,-1.309894 c -0.712727,-0.613405 -1.43851,-1.214861 -2.176429,-1.804369 z m 2.667394,2.230461 -1.342707,1.342247 1.990891,1.990209 1.437223,-1.43673 c -0.682571,-0.64355 -1.377461,-1.275888 -2.085407,-1.895726 z m 2.555409,2.342774 -1.448623,1.448127 1.990524,1.990026 1.45322,-1.452906 c -0.65223,-0.673697 -1.317515,-1.335262 -1.995121,-1.985247 z m 2.444345,2.45325 -1.443842,1.443348 1.990707,1.990025 1.356682,-1.356217 c -0.621889,-0.704211 -1.256098,-1.396658 -1.903547,-2.077156 z m 2.331625,2.566115 -1.326158,1.325703 1.990708,1.990025 1.148343,-1.14795 c -0.591181,-0.734541 -1.195785,-1.45695 -1.812893,-2.167778 z m 2.21964,2.67806 -1.096488,1.096113 1.990155,1.989474 0.826366,-0.826083 c -0.560288,-0.764687 -1.133633,-1.518346 -1.720033,-2.259504 z m 2.105634,2.790925 -0.753365,0.753107 1.990892,1.990209 0.391117,-0.390983 c -0.529581,-0.795937 -1.072768,-1.579925 -1.628644,-2.352333 z m 1.993098,2.904893 -0.296969,0.296868 1.333329,1.332872 c -0.339631,-0.548516 -0.684777,-1.091885 -1.03636,-1.62974 z m 3.639578,6.154999 -1.487422,1.486912 1.990892,1.990209 0.843651,-0.843361 c -0.274904,-0.561935 -0.556244,-1.121297 -0.843651,-1.676982 -0.165862,-0.320764 -0.33393,-0.639139 -0.50347,-0.956778 z m 1.646297,3.251575 -0.684226,0.683991 1.847832,1.847198 c -0.3742,-0.849795 -0.762192,-1.693709 -1.163606,-2.531189 z m 1.851509,4.13593 -0.545027,-0.545024 -1.990708,1.990026 1.990708,1.989842 1.375254,-1.374783 C 72.83165,75.675927 72.554724,74.988812 72.269707,74.30574 z m 1.08472,2.722545 -1.171145,1.170743 1.990707,1.990026 0.236657,-0.236575 c -0.335953,-0.980308 -0.688087,-1.955468 -1.056219,-2.924194 z m 1.288278,3.609104 -0.0092,0.0092 0.02041,0.0204 -0.01103,-0.03051 z m 0.453453,1.390407 -0.922169,-0.921853 -1.990707,1.990026 0.33724,0.337124 c 0.937798,-0.206613 1.875229,-0.422784 2.81266,-0.648697 -0.07815,-0.252568 -0.157035,-0.504768 -0.237024,-0.7566 z m -3.328817,1.569264 -0.04266,-0.04265 -0.0662,0.06618 0.108859,-0.02353 z m -1.268419,0.265802 0.767156,-0.766893 -1.990707,-1.990026 -1.990892,1.99021 1.171697,1.171295 c 0.680915,-0.129776 1.361831,-0.2647 2.042746,-0.404586 z m -2.814867,0.549619 -0.858178,-0.857883 -1.228332,1.227911 c 0.695442,-0.118012 1.391252,-0.241538 2.08651,-0.370028 z m -4.187731,0.710277 -1.568882,-1.56816 -1.990707,1.990025 0.07135,0.07132 c 1.163054,-0.149997 2.325557,-0.313779 3.488243,-0.493187 z m -4.698923,0.643918 0.22213,-0.222053 -1.990708,-1.990025 -1.990707,1.990025 0.568012,0.567817 c 1.063941,-0.102939 2.127515,-0.218193 3.191273,-0.345764 z m -4.030143,0.424071 -0.187744,-0.187679 -0.225072,0.224994 0.412816,-0.03731 z m -1.413686,0.120953 0.76734,-0.767077 -1.990891,-1.990025 -1.990156,1.98929 0.932466,0.932146 c 0.760352,-0.04853 1.520889,-0.103306 2.281241,-0.164334 z m -3.146406,0.216539 -0.525903,-0.525723 -0.585297,0.585096 c 0.370523,-0.01838 0.740677,-0.03805 1.1112,-0.05937 z m -2.072352,0.103122 1.087847,-1.087289 -1.990524,-1.989842 -1.990891,1.990025 1.149998,1.149605 c 0.581252,-0.01654 1.162319,-0.03787 1.74357,-0.0625 z m -2.636869,0.08639 -0.715301,-0.715056 -0.740861,0.740607 c 0.485633,-0.0055 0.970714,-0.01471 1.456162,-0.02555 z m -2.381641,0.03382 1.207738,-1.207324 -1.990707,-1.990025 -1.990708,1.990025 1.207921,1.207508 c 0.522042,0.0037 1.043715,0.0018 1.565756,-1.84e-4 z m -2.491602,-0.0092 -0.740677,-0.740423 -0.715117,0.714872 c 0.485264,0.01103 0.970529,0.01949 1.455794,0.02555 z m -2.349461,-0.04908 1.150182,-1.149788 -1.990707,-1.990025 -1.990524,1.989657 1.088398,1.088026 c 0.580884,0.02445 1.161767,0.04503 1.742651,0.06213 z m -2.704354,-0.106431 -0.585297,-0.585096 -0.526087,0.525906 c 0.370523,0.02114 0.740861,0.04099 1.111384,0.05919 z m -1.976733,-0.111394 0.932834,-0.932147 -1.990156,-1.989474 -1.991075,1.990026 0.767708,0.767444 c 0.760352,0.06085 1.520337,0.115806 2.280689,0.164151 z m -3.281927,-0.248156 -0.224888,-0.224811 -0.188295,0.188047 0.413183,0.03676 z m -1.252053,-0.114887 0.568563,-0.568368 -1.990891,-1.99021 -1.990708,1.990026 0.223049,0.222972 c 0.548336,0.06581 1.096305,0.128857 1.645193,0.188047 0.514686,0.05551 1.02974,0.107902 1.544794,0.157533 z m -4.402322,-0.496495 0.07208,-0.07206 -1.990707,-1.990026 -1.568698,1.567977 c 1.16048,0.179224 2.322982,0.344109 3.487323,0.494106 z m -5.589096,-0.834723 -1.22778,-1.22736 -0.857443,0.857332 c 0.694339,0.128306 1.38923,0.252016 2.085223,0.370028 z m -2.857895,-0.514693 1.171513,-1.171112 -1.990892,-1.990209 -1.990707,1.990209 0.766604,0.766342 c 0.68018,0.139887 1.361279,0.27481 2.043482,0.40477 z m -3.203042,-0.647227 -0.06565,-0.06562 -0.04229,0.04228 0.107939,0.02335 z m -0.861304,-0.187128 0.337056,-0.33694 -1.990708,-1.990026 -0.9218005,0.921485 c -0.079989,0.251649 -0.1597935,0.503665 -0.2379434,0.756783 0.9354079,0.225363 1.8733909,0.441718 2.8133959,0.648698 z m -2.131561,-2.76611 0.01931,-0.0193 -0.0096,-0.0092 -0.0097,0.02886 z m 0.241621,-0.713953 0.236288,0.236208 1.990708,-1.990026 -1.170961,-1.17056 c -0.365926,0.962844 -0.717876,1.938005 -1.056035,2.924378 z m 1.310711,-3.586494 1.374887,1.374231 1.990524,-1.989841 -1.990524,-1.990026 -0.54282,0.542634 c -0.284466,0.681601 -0.562128,1.368901 -0.832067,2.063002 z m 1.51905,-3.66664 1.846544,-1.845911 -0.683122,-0.682888 c -0.399391,0.832884 -0.787567,1.675695 -1.163422,2.528799 z m 1.462782,-3.146431 0.842364,0.842075 1.990892,-1.990209 -1.487239,-1.486729 c -0.462279,0.86634 -0.910584,1.744995 -1.346017,2.634863 z m 3.291858,-1.606579 1.990523,-1.989842 -1.990707,-1.990025 -0.696729,0.696491 c -0.314991,0.547964 -0.624096,1.10126 -0.927686,1.659334 l 1.624599,1.624042 z m 2.449125,-2.448286 1.990708,-1.990026 -1.990708,-1.990025 -1.990707,1.990025 1.990707,1.990026 z m 2.44931,-2.448471 1.990707,-1.990025 -1.990707,-1.990026 -1.990708,1.990026 1.990708,1.990025 z m 2.449309,-2.44847 1.990156,-1.989474 -1.990708,-1.990025 -1.990155,1.989474 1.990707,1.990025 z m 2.448758,-2.447919 1.990891,-1.990209 -1.990707,-1.990025 -1.990892,1.990209 1.990708,1.990025 z m 2.449493,-2.448654 1.990708,-1.990025 -1.990708,-1.990026 -1.990707,1.990026 1.990707,1.990025 z m 2.44931,-2.44847 1.990523,-1.989842 -1.990707,-1.990025 -1.990524,1.989841 1.990708,1.990026 z m 2.449125,-2.448287 1.990892,-1.990209 -1.990708,-1.990025 -1.990891,1.990209 1.990707,1.990025 z M 37.4349,48.358756 39.425607,46.368731 37.4349,44.378705 35.444192,46.368731 37.4349,48.358756 z m 2.449309,-2.44847 1.990524,-1.989842 -1.990708,-1.990025 -1.990524,1.989842 1.990708,1.990025 z M 42.333334,43.462 44.324042,41.471974 42.333334,39.481949 40.342627,41.471974 42.333334,43.462 z m 2.44931,-1.531581 -1.990708,1.990025 1.990708,1.989842 1.990707,-1.990025 -1.990707,-1.989842 z m -2.44931,2.44847 -1.990523,1.989842 1.990523,1.990025 1.990708,-1.990025 -1.990708,-1.989106 z m -2.449125,2.448287 -1.990708,1.990025 1.990524,1.990026 1.990708,-1.990026 -1.990524,-1.990025 z m -2.449309,2.44847 -1.990892,1.990209 1.990524,1.990026 1.990891,-1.99021 -1.990523,-1.990025 z m -2.449494,2.448654 -1.990523,1.989842 1.990523,1.990025 1.990524,-1.989841 -1.990524,-1.990026 z m -2.449125,2.448287 -1.990708,1.990025 1.990524,1.990025 1.990707,-1.990025 -1.990523,-1.990025 z m -2.44931,2.44847 -1.990891,1.990209 1.990707,1.989842 1.990708,-1.990026 -1.990524,-1.990025 z m -2.449493,2.448654 -1.990156,1.989474 1.990708,1.989842 1.990155,-1.989474 -1.990707,-1.989842 z m -2.448758,2.447919 -1.990707,1.990025 1.990523,1.990026 1.990892,-1.99021 -1.990708,-1.989841 z m -2.449309,2.44847 -1.990708,1.990025 1.990524,1.990026 1.990707,-1.990026 -1.990523,-1.990025 z m -2.44931,2.44847 -1.990523,1.989842 1.990523,1.990025 1.990524,-1.989841 -1.990524,-1.990026 z m -2.449125,2.448287 -1.990892,1.990209 1.990524,1.990025 1.990891,-1.990209 -1.990523,-1.990025 z m -2.449494,2.448654 -1.990707,1.990025 1.990523,1.990026 1.990708,-1.990026 -1.990524,-1.990025 z m 55.874596,1.990025 -1.990707,-1.990025 -1.990708,1.990025 1.990708,1.990026 1.990707,-1.990026 z m -2.449309,-2.448286 -1.990892,-1.990209 -1.990707,1.989841 1.990891,1.990209 1.990708,-1.989841 z m -2.449494,-2.448654 -1.990523,-1.989842 -1.990708,1.989842 1.990524,1.989841 1.990707,-1.989841 z m -2.449125,-2.448287 -1.990708,-1.990025 -1.990707,1.989841 1.990707,1.990026 1.990708,-1.989842 z m -2.44931,-2.44847 -1.990891,-1.990209 -1.990524,1.989841 1.990708,1.99021 1.990707,-1.989842 z m -2.449493,-2.448654 -1.990156,-1.989474 -1.990523,1.989842 1.990155,1.989474 1.990524,-1.989842 z m -2.448758,-2.447919 -1.990707,-1.990025 -1.990708,1.989841 1.990892,1.990026 1.990523,-1.989842 z m -2.449309,-2.44847 -1.990708,-1.990209 -1.990707,1.990025 1.990707,1.990025 1.990708,-1.989841 z m -2.44931,-2.448654 -1.990523,-1.989842 -1.990708,1.990026 1.990524,1.989841 1.990707,-1.990025 z m -2.449125,-2.448287 -1.990892,-1.990209 -1.990707,1.990025 1.990891,1.99021 1.990708,-1.990026 z m -2.449494,-2.448654 -1.990707,-1.990025 -1.990708,1.990025 1.990708,1.990026 1.990707,-1.990026 z m -1.532105,-2.44847 1.990707,1.990025 1.990708,-1.990025 -1.990708,-1.990026 -1.990707,1.990026 z m 2.449309,2.44847 1.990892,1.990209 1.990707,-1.990025 -1.990891,-1.990209 -1.990708,1.990025 z m 2.449494,2.448654 1.990523,1.989842 1.990708,-1.990026 -1.990524,-1.989841 -1.990707,1.990025 z m 2.449125,2.448287 1.990708,1.990025 1.990707,-1.990025 -1.990707,-1.990026 -1.990708,1.990026 z m 2.44931,2.44847 1.990707,1.990209 1.990708,-1.990025 -1.990708,-1.990209 -1.990707,1.990025 z m 2.449309,2.448654 1.990156,1.989474 1.990707,-1.990025 -1.990155,-1.989474 -1.990708,1.990025 z m 2.448758,2.447919 1.990891,1.990025 1.990708,-1.990025 -1.990892,-1.990026 -1.990707,1.990026 z m 2.449493,2.44847 1.990708,1.990026 1.990707,-1.990026 -1.990707,-1.990025 -1.990708,1.990025 z m 2.44931,2.44847 1.990523,1.989842 1.624966,-1.624409 C 68.147438,65.764035 67.838332,65.211474 67.52371,64.66351 l -0.697649,-0.69741 -1.990707,1.990025 z m 8.880034,14.690638 -1.990708,-1.990025 -1.990708,1.990025 1.990708,1.990026 1.990708,-1.990026 z m -2.44931,-2.44847 -1.990707,-1.989842 -1.990708,1.990026 1.990708,1.989842 1.990707,-1.990026 z m -2.449309,-2.448286 -1.990708,-1.990026 -1.990707,1.990026 1.990707,1.990025 1.990708,-1.990025 z m -2.44931,-2.448471 -1.990891,-1.990209 -1.990708,1.990025 1.990892,1.99021 1.990707,-1.990026 z m -2.449493,-2.448654 -1.990524,-1.989841 -1.990707,1.990025 1.990523,1.989842 1.990708,-1.990026 z m -2.449126,-2.448286 -1.990707,-1.990026 -1.990708,1.990026 1.990708,1.990025 1.990707,-1.990025 z m -2.449309,-2.448471 -1.990708,-1.990025 -1.990707,1.989842 1.990707,1.990209 1.990708,-1.990026 z m -2.44931,-2.44847 -1.990155,-1.989474 -1.990708,1.989842 1.990156,1.989474 1.990707,-1.989842 z m -2.448757,-2.447919 -1.990892,-1.990209 -1.990707,1.990026 1.990891,1.990025 1.990708,-1.989842 z m -2.449494,-2.448654 -1.990707,-1.990025 -1.990708,1.990025 1.990708,1.990026 1.990707,-1.990026 z m -2.449309,-2.44847 -1.990524,-1.989842 -1.990707,1.990026 1.990523,1.989841 1.990708,-1.990025 z m -2.449126,-2.448286 -1.990891,-1.99021 -1.990708,1.990026 1.990892,1.990209 1.990707,-1.990025 z m -2.449493,-2.448655 -1.990707,-1.990025 -1.990708,1.990025 1.990708,1.990026 1.990707,-1.990026 z m 24.492727,29.381092 -1.990708,-1.989841 -1.990891,1.990209 1.990707,1.989842 1.990892,-1.99021 z m -2.44931,-2.448286 -1.990707,-1.990026 -1.990892,1.99021 1.990708,1.990025 1.990891,-1.990209 z m -2.449309,-2.44847 -1.990892,-1.99021 -1.990891,1.99021 1.990891,1.990209 1.990892,-1.990209 z m -2.449494,-2.448655 -1.990523,-1.989841 -1.990892,1.990209 1.990524,1.989842 1.990891,-1.99021 z m -2.449125,-2.448286 -1.990708,-1.990025 -1.990891,1.990209 1.990707,1.990025 1.990892,-1.990209 z m -2.44931,-2.44847 -1.990707,-1.990026 -1.990891,1.990026 1.990707,1.990209 1.990891,-1.990209 z m -2.449309,-2.448471 -1.990156,-1.989474 -1.990891,1.990026 1.990156,1.989474 1.990891,-1.990026 z m -2.448758,-2.447918 -1.990891,-1.99021 -1.990892,1.99021 1.990892,1.990025 1.990891,-1.990025 z m -2.449493,-2.448654 -1.990708,-1.990026 -1.990891,1.990209 1.990707,1.990026 1.990892,-1.990209 z m -2.44931,-2.448471 -1.990523,-1.989841 -1.990892,1.990209 1.990524,1.989842 1.990891,-1.99021 z m -2.449125,-2.448286 -1.990891,-1.990209 -1.990892,1.990209 1.990892,1.990209 1.990891,-1.990209 z m -2.449493,-2.448654 -1.990708,-1.990026 -1.990891,1.99021 1.990707,1.990025 1.990892,-1.990209 z m 24.492542,29.381275 -1.990707,-1.989841 -1.990524,1.989841 1.902628,1.901793 0.210177,-0.03401 1.868426,-1.867786 z m -2.449309,-2.448286 -1.990708,-1.990026 -1.990523,1.989842 1.990707,1.990026 1.990524,-1.989842 z m -2.44931,-2.44847 -1.990891,-1.99021 -1.990524,1.989842 1.990892,1.990209 1.990523,-1.989841 z m -2.449493,-2.448654 -1.990524,-1.989842 -1.990523,1.989842 1.990523,1.989841 1.990524,-1.989841 z m -2.449125,-2.448287 -1.990708,-1.990025 -1.990524,1.989841 1.990708,1.990026 1.990524,-1.989842 z m -2.44931,-2.44847 -1.990707,-1.990026 -1.990524,1.989658 1.990707,1.990209 1.990524,-1.989841 z m -2.449309,-2.44847 -1.990156,-1.989474 -1.990524,1.989657 1.990156,1.989474 1.990524,-1.989657 z m -2.448758,-2.447919 -1.990892,-1.99021 -1.990523,1.989842 1.990891,1.990026 1.990524,-1.989658 z m -2.449493,-2.448654 -1.990708,-1.990026 -1.990524,1.989842 1.990708,1.990025 1.990524,-1.989841 z m -2.44931,-2.448471 -1.990523,-1.989841 -1.990524,1.989841 1.990524,1.989842 1.990523,-1.989842 z m -2.449125,-2.448286 -1.990892,-1.990209 -1.990523,1.989841 1.990891,1.99021 1.990524,-1.989842 z m -2.449494,-2.448654 -1.990707,-1.990026 -1.990524,1.989842 1.990708,1.990025 1.990523,-1.989841 z m 22.043601,26.932621 -1.990707,-1.990025 -1.990708,1.990025 1.990708,1.990026 1.990707,-1.990026 z m -2.449309,-2.44847 -1.990892,-1.990209 -1.990707,1.990025 1.990891,1.99021 1.990708,-1.990026 z m -2.449493,-2.448654 -1.990524,-1.989842 -1.990708,1.990026 1.990524,1.989842 1.990708,-1.990026 z m -2.449126,-2.448286 -1.990708,-1.990026 -1.990707,1.990026 1.990707,1.990025 1.990708,-1.990025 z m -2.449309,-2.448471 -1.990708,-1.990025 -1.990707,1.989841 1.990707,1.99021 1.990708,-1.990026 z m -2.44931,-2.44847 -1.990156,-1.989474 -1.990707,1.989842 1.990156,1.989474 1.990707,-1.989842 z m -2.448758,-2.447919 -1.990891,-1.990209 -1.990708,1.990025 1.990892,1.990026 1.990707,-1.989842 z m -2.449493,-2.448654 -1.990707,-1.990025 -1.990708,1.990025 1.990708,1.990026 1.990707,-1.990026 z m -2.449309,-2.44847 -1.990524,-1.989842 -1.990708,1.990026 1.990524,1.989841 1.990708,-1.990025 z m -2.449126,-2.448287 -1.990891,-1.990209 -1.990708,1.990026 1.990892,1.990209 1.990707,-1.990026 z m -2.449493,-2.448654 -1.990708,-1.990025 -1.990707,1.990025 1.990707,1.990026 1.990708,-1.990026 z m 19.594107,24.484335 -1.990891,-1.990209 -1.990707,1.990026 1.990891,1.990209 1.990707,-1.990026 z m -2.449493,-2.448654 -1.990524,-1.989841 -1.990707,1.990025 1.990524,1.989842 1.990707,-1.990026 z m -2.449125,-2.448286 -1.990708,-1.990026 -1.990707,1.990026 1.990707,1.990025 1.990708,-1.990025 z m -2.44931,-2.44847 -1.990707,-1.990026 -1.990892,1.990026 1.990892,1.990025 1.990707,-1.990025 z m -2.449309,-2.448471 -1.990156,-1.989474 -1.990892,1.990026 1.990156,1.989474 1.990892,-1.990026 z m -2.448758,-2.447183 -1.990892,-1.99021 -1.990707,1.990026 1.990707,1.990209 1.990892,-1.990025 z m -2.449493,-2.448654 -1.990708,-1.990026 -1.990707,1.990026 1.990707,1.990025 1.990708,-1.990025 z m -2.44931,-2.448471 -1.990523,-1.989841 -1.990708,1.990025 1.990524,1.989842 1.990707,-1.990026 z m -2.449125,-2.448286 -1.990892,-1.990209 -1.990707,1.990025 1.990707,1.990209 1.990892,-1.990025 z m -2.449494,-2.448654 -1.990707,-1.990026 -1.990708,1.990026 1.990708,1.990025 1.990707,-1.990025 z m 17.144615,22.035865 -1.990524,-1.989842 -1.990156,1.98929 1.990524,1.989842 1.990156,-1.98929 z m -2.449126,-2.448287 -1.990707,-1.990025 -1.990156,1.98929 1.990707,1.990025 1.990156,-1.98929 z m -2.449309,-2.44847 -1.990892,-1.990209 -1.990156,1.989474 1.990892,1.990025 1.990156,-1.98929 z m -2.449494,-2.448654 -1.990155,-1.989474 -1.990156,1.989474 1.990156,1.989474 1.990155,-1.989474 z m -2.448757,-2.447919 -1.990708,-1.990025 -1.990156,1.98929 1.990708,1.990209 1.990156,-1.989474 z m -2.44931,-2.44847 -1.990707,-1.990026 -1.990156,1.98929 1.990707,1.990026 1.990156,-1.98929 z m -2.449309,-2.448471 -1.990524,-1.990025 -1.99034,1.989474 1.990524,1.989842 1.99034,-1.989291 z m -2.449126,-2.44847 -1.990891,-1.990209 -1.990156,1.989474 1.990707,1.990209 1.99034,-1.989474 z m -2.449493,-2.448654 -1.990708,-1.990025 -1.990156,1.989474 1.990708,1.990025 1.990156,-1.989474 z m 14.69604,19.587027 -1.990707,-1.990025 -1.990892,1.990025 1.990708,1.990026 1.990891,-1.990026 z m -2.449309,-2.44847 -1.990891,-1.99021 -1.990708,1.990026 1.990708,1.990209 1.990891,-1.990025 z m -2.449493,-2.448654 -1.990156,-1.989474 -1.990708,1.990025 1.990156,1.989474 1.990708,-1.990025 z m -2.448758,-2.447919 -1.990708,-1.990026 -1.990891,1.990026 1.990891,1.990025 1.990708,-1.990025 z m -2.44931,-2.44847 -1.990707,-1.990026 -1.990892,1.990026 1.990708,1.990025 1.990891,-1.990025 z m -2.449309,-2.448471 -1.990524,-1.990025 -1.990891,1.990209 1.990524,1.989842 1.990891,-1.990026 z m -2.449126,-2.44847 -1.990891,-1.990209 -1.990891,1.990209 1.990891,1.990209 1.990891,-1.990209 z m -2.449493,-2.448654 -1.990707,-1.990026 -1.990892,1.99021 1.990708,1.990025 1.990891,-1.990209 z m 12.245996,17.139108 -1.990708,-1.990025 -1.990707,1.989841 1.990707,1.99021 1.990708,-1.990026 z m -2.44931,-2.44847 -1.990156,-1.989474 -1.990707,1.989841 1.990156,1.989474 1.990707,-1.989841 z m -2.448758,-2.447919 -1.990891,-1.990209 -1.990708,1.990025 1.990708,1.990026 1.990891,-1.989842 z m -2.449493,-2.448654 -1.990707,-1.990026 -1.990708,1.990026 1.990708,1.990025 1.990707,-1.990025 z m -2.449309,-2.44847 -1.990524,-1.989842 -1.990708,1.990025 1.990524,1.989842 1.990708,-1.990025 z m -2.449126,-2.448287 -1.990891,-1.990209 -1.990708,1.990025 1.990892,1.99021 1.990707,-1.990026 z m -2.449493,-2.448654 -1.990708,-1.990025 -1.990707,1.990025 1.990707,1.990025 1.990708,-1.990025 z m 9.79687,14.690454 -1.990156,-1.989474 -1.990708,1.989658 1.990156,1.989474 1.990708,-1.989658 z m -2.448758,-2.447919 -1.990891,-1.990209 -1.990524,1.989842 1.990707,1.990025 1.990708,-1.989658 z m -2.449493,-2.448654 -1.990708,-1.990025 -1.990524,1.989841 1.990708,1.990026 1.990524,-1.989842 z m -2.44931,-2.44847 -1.990523,-1.989842 -1.990524,1.989842 1.990524,1.989842 1.990523,-1.989842 z m -2.449125,-2.448287 -1.990892,-1.990209 -1.990523,1.989842 1.990891,1.990209 1.990524,-1.989842 z m -2.449494,-2.448654 -1.990707,-1.990025 -1.990524,1.989841 1.990708,1.990026 1.990523,-1.989842 z m 7.348296,12.242352 -1.990891,-1.99021 -1.990891,1.99021 1.990707,1.990025 1.991075,-1.990025 z m -2.449493,-2.448654 -1.990707,-1.990026 -1.990892,1.990209 1.990708,1.990026 1.990891,-1.990209 z m -2.449309,-2.448471 -1.990524,-1.989841 -1.990891,1.990209 1.990523,1.989842 1.990892,-1.99021 z m -2.449126,-2.448286 -1.990891,-1.990209 -1.990892,1.990209 1.990892,1.990209 1.990891,-1.990209 z m -2.449493,-2.448654 -1.990708,-1.990026 -1.990891,1.99021 1.990707,1.990025 1.990892,-1.990209 z m 4.898435,9.794065 -1.990708,-1.990026 -1.990707,1.990026 1.990707,1.990025 1.990708,-1.990025 z m -2.44931,-2.448471 -1.990523,-1.989841 -1.990708,1.990025 1.990524,1.989842 1.990707,-1.990026 z m -2.449125,-2.448286 -1.990892,-1.990209 -1.990707,1.990025 1.990891,1.990209 1.990708,-1.990025 z m -2.449494,-2.448654 -1.990707,-1.990026 -1.990708,1.990026 1.990708,1.990025 1.990707,-1.990025 z m 2.44931,7.345411 -1.990524,-1.989842 -1.990707,1.989842 1.868609,1.867969 0.209994,0.03382 1.902628,-1.901792 z m -2.449126,-2.448287 -1.990891,-1.990209 -1.990708,1.989842 1.990892,1.990209 1.990707,-1.989842 z m -2.449493,-2.448654 -1.990708,-1.990025 -1.990523,1.989841 1.990707,1.990026 1.990524,-1.989842 z m -2.449126,2.448287 -1.990707,-1.990026 -1.990708,1.990026 1.990708,1.990209 1.990707,-1.990209 z"
   class="fil4" /><g
   id="g21"
   transform="matrix(1.8388209,0,0,1.8381909,-150.74286,-220.90827)">
    <path
   id="_161299488"
   class="fil3"
   d="m 115.088,136.131 c 0.1601,0.0358 0.4201,-0.0651 0.5472,-0.1034 0.0873,-0.0263 0.161,-0.016 0.2111,0.0165 0.144,0.093 0.05,0.2682 -0.0553,0.3475 0.0551,0.127 -0.0392,0.2794 -0.1439,0.3471 0.0441,0.1435 -0.0575,0.2947 -0.1809,0.3606 0.0905,0.3256 -0.2253,0.6723 -0.5155,0.7426 -0.3847,0.0933 -0.8078,-0.01 -1.1994,-0.0524 -0.3333,0.3406 -0.6868,0.6562 -1.0608,0.9462 -0.3253,0.2523 -0.6667,0.4857 -1.0242,0.6998 -0.1186,0.071 -1.2335,0.8197 -1.4795,0.5903 -0.1565,-0.1458 0.1383,-0.4332 -0.0576,-0.3015 -0.0169,0.01 -0.0338,0.0196 -0.046,0.0289 l -3e-4,2e-4 0,0 -6e-4,4e-4 0,0 0,0 c -0.0921,0.0709 -0.2218,0.1162 -0.3223,0.0342 -0.1138,-0.0929 -0.1068,-0.2728 -0.0694,-0.3997 0.078,-0.2639 0.0632,-0.5383 0.0805,-0.8094 0.0429,-0.6744 0.1524,-1.3013 0.3248,-1.8832 0.0914,-0.3085 0.2013,-0.605 0.3299,-0.8898 -0.3854,-0.5104 -0.5007,-1.5575 0.0367,-2.0054 0.0349,-0.0291 0.0721,-0.0533 0.1112,-0.0719 -0.009,-0.1061 0.0372,-0.2172 0.1079,-0.2948 0.0495,-0.0543 0.1172,-0.0966 0.192,-0.1002 0.0144,-0.1424 0.0901,-0.2777 0.241,-0.3065 0.0249,-0.1121 0.1763,-0.2566 0.3038,-0.2127 l 0,-1e-4 c 0.0454,0.0157 0.0752,0.0517 0.0767,0.1123 0.009,0.3524 0.046,0.7108 0.1775,1.0399 0.1032,-0.1072 0.2105,-0.2117 0.3222,-0.3136 0.0134,-0.0123 0.0268,-0.0244 0.0402,-0.0365 l -0.0102,-0.1093 c -0.039,-0.4171 -0.0819,-0.8747 0.0197,-1.1758 0.0567,-0.168 0.2082,-0.3748 0.4095,-0.3495 0.0396,-0.1248 0.1528,-0.2584 0.2978,-0.2362 l 2e-4,0 c 0.0423,-0.1344 0.1285,-0.2849 0.2909,-0.2764 0.0574,-0.1101 0.1913,-0.1826 0.3034,-0.1045 0.0372,0.0259 0.0594,0.0648 0.0564,0.1055 -0.0148,0.2066 -0.0293,0.4133 -0.028,0.6107 10e-4,0.1618 0.0127,0.3188 0.0431,0.4665 0.0997,-0.069 0.1998,-0.1373 0.3001,-0.2053 -0.01,-0.3759 -0.0625,-0.8175 0.1128,-1.1565 0.0867,-0.1678 0.2287,-0.2788 0.4617,-0.243 0.0511,-0.1654 0.2277,-0.3152 0.4075,-0.2481 0.0554,-0.1304 0.1831,-0.2682 0.3385,-0.2237 l 2e-4,1e-4 c 0.0152,0.004 0.0295,0.0104 0.0427,0.0179 0.0578,-0.0738 0.1504,-0.1388 0.2471,-0.1021 0.0276,0.0105 0.0508,0.028 0.068,0.0496 l -2e-4,2e-4 c 0.0545,0.0683 0.0291,0.13 0.0139,0.2034 -0.0271,0.1307 -0.0158,0.2753 -0.002,0.4134 0.1056,-0.1052 0.2041,-0.2135 0.2932,-0.325 l 0.004,-0.005 c 0.1996,-0.251 0.3756,-0.5136 0.5272,-0.7907 0.2665,-0.4874 0.4482,-1.0238 0.5861,-1.5608 0.0598,-0.2334 0.108,-0.4759 0.1353,-0.7384 0.011,-0.1054 0.0691,-0.202 0.1863,-0.1898 0.0593,0.006 0.1218,0.041 0.1706,0.0801 l 4e-4,3e-4 c 0.1481,0.1204 0.1967,0.3085 0.1979,0.4914 0.0223,-6e-4 0.0441,0.002 0.0652,0.008 l 0,-1e-4 c 0.1704,0.0457 0.2459,0.2554 0.2018,0.4134 0.2309,0.0938 0.2804,0.3811 0.1575,0.575 0.142,0.0941 0.1892,0.2581 0.1623,0.4006 0.1891,-0.0938 0.4194,-0.1067 0.5901,0.0266 0.1817,-0.1909 0.5244,-0.1911 0.715,-0.0138 0.1716,-0.181 0.4041,-0.1911 0.6031,-0.0445 0.1815,-0.1447 0.4871,-0.2591 0.6727,-0.0573 0.202,0.2196 -0.0151,0.388 -0.2236,0.4873 -0.2178,0.1038 -0.4499,0.1885 -0.6743,0.2751 -0.3786,0.1461 -0.8265,0.3189 -1.2378,0.541 l -1e-4,1e-4 c -0.654,0.3533 -1.1976,1.0176 -1.5879,1.7196 0.1568,-0.0243 0.3082,-0.0717 0.4533,-0.1386 0.1229,-0.0566 0.2315,-0.1066 0.3447,0.0177 0.007,0.008 0.0151,0.0173 0.0227,0.0272 l -10e-5,0 c 0.0772,0.1007 0.0403,0.2377 -0.002,0.3442 0.1475,0.2372 0.0709,0.5131 -0.1142,0.6984 -0.3827,0.3835 -1.0646,0.6499 -1.5137,0.9166 -0.3116,0.6888 -0.6633,1.3292 -1.0557,1.9197 z"
   inkscape:connector-curvature="0"
   style="fill:#000000;fill-rule:nonzero" />
    <path
   id="_161299560"
   class="fil5"
   d="m 110.612,135.773 c 0.4746,-0.0335 0.9555,0.0522 1.389,0.2503 0.3119,-0.2156 0.6126,-0.4471 0.9051,-0.6882 0.1477,-0.122 0.3303,-0.037 0.3883,0.1322 0.0839,0.2451 0.108,0.5047 0.1291,0.7612 0.0116,0.1407 -0.0631,0.2431 -0.1879,0.3005 -0.086,0.0395 -0.1755,0.0702 -0.2654,0.0991 l -1e-4,-1e-4 c -0.0282,0.009 -0.0567,0.0173 -0.0851,0.0258 0.3026,0.3174 0.5304,0.7042 0.6607,1.1235 0.1579,-0.1572 0.3117,-0.3203 0.4611,-0.4892 0.9441,-1.067 1.6662,-2.3142 2.2078,-3.6294 0.1664,-0.404 0.3231,-0.8237 0.5246,-1.2233 0.3848,-0.7632 0.8392,-1.3437 1.4555,-1.7731 0.4607,-0.321 1.008,-0.5205 1.5292,-0.7216 l 3e-4,0 c 0.0519,-0.0201 0.0784,-0.0302 0.1051,-0.0404 0.1874,-0.0717 0.3776,-0.1444 0.5578,-0.2302 l 1e-4,0 0.015,-0.007 1e-4,-10e-5 c 0.0528,-0.0249 0.1185,-0.056 0.1597,-0.0939 0.0402,-0.037 0.0556,-0.0832 0.002,-0.1415 l -10e-5,-2e-4 -6e-4,-7e-4 0,0 c -0.0177,-0.019 -0.0375,-0.0329 -0.0586,-0.0424 -0.1742,-0.0784 -0.3766,0.0895 -0.4975,0.2008 -0.2197,-0.2406 -0.4428,-0.1851 -0.6032,0.0934 -0.1782,-0.2812 -0.5442,-0.322 -0.6931,0.006 -0.2537,-0.3161 -0.5151,-0.1658 -0.8029,0.0135 0.0305,-0.2621 0.112,-0.4926 -0.2017,-0.6249 0.1627,-0.2593 0.1957,-0.4632 -0.1536,-0.5342 0.1727,-0.1966 0.0174,-0.5086 -0.2103,-0.2818 0.013,-0.2054 0.0522,-0.4676 -0.1279,-0.6142 -0.0567,-0.0452 -0.0969,-0.0867 -0.1065,0.006 -0.1296,1.0541 -0.502,2.0789 -1.0913,2.9161 -0.3034,0.431 -0.6724,0.7865 -1.0894,1.112 -0.3352,0.2617 -0.6934,0.5034 -1.0312,0.7315 -0.6221,0.42 -1.2405,0.851 -1.796,1.3579 -0.6213,0.567 -1.1293,1.245 -1.488,2.0064 z m 0.9345,-1.7082 c -0.135,-0.3181 -0.1847,-0.6642 -0.2006,-1.007 -0.004,-0.0937 0.005,-0.1612 -0.0665,-0.0202 -0.0208,0.041 -0.0262,0.0904 -0.0364,0.1368 -0.2251,-0.0267 -0.2307,0.1711 -0.2475,0.3324 -0.2301,-0.0889 -0.3047,0.1804 -0.2496,0.3144 -0.2315,0.0705 -0.3754,0.2883 -0.4412,0.5128 -0.121,0.4123 -0.0228,0.9451 0.1821,1.2844 0.276,-0.5662 0.6337,-1.0897 1.0597,-1.5536 z m 1.729,-1.4483 c -0.0585,-0.2558 -0.0606,-0.522 -0.0493,-0.7829 0.003,-0.0812 0.009,-0.1651 0.0144,-0.2499 l -1e-4,-2e-4 0,-2e-4 1e-4,0 c 7e-4,-0.0112 0.003,-0.0238 0.004,-0.037 l 10e-5,1e-4 c 0.004,-0.029 0.009,-0.0613 0.003,-0.0698 -9e-4,-0.001 -0.0104,0.004 -0.036,0.0214 l 0,0 c -0.0457,0.0314 -0.0744,0.0859 -0.101,0.1328 -0.1802,-0.0561 -0.2422,0.1948 -0.2821,0.3217 -0.1847,-0.1358 -0.2331,0.0725 -0.2871,0.213 -0.1385,-0.0733 -0.2396,-0.0133 -0.3088,0.1175 -0.0159,0.03 -0.0298,0.063 -0.0416,0.0978 l 0,0 -1e-4,4e-4 -1e-4,1e-4 c -0.0881,0.2618 -0.0516,0.6854 -0.0149,1.0778 0.3499,-0.3015 0.7209,-0.5776 1.0991,-0.8426 z m 1.9895,-1.46 c -0.0157,-0.181 -0.0432,-0.3641 -0.006,-0.5447 0.008,-0.038 0.049,-0.1034 -0.0172,-0.0754 -0.068,0.0289 -0.1161,0.0933 -0.1541,0.154 -0.1498,-0.2018 -0.2846,0.0711 -0.3583,0.2089 -0.1511,-0.1924 -0.3128,0.0565 -0.3378,0.2237 -0.0838,-0.0205 -0.1731,-0.0399 -0.2584,-0.0149 -0.0652,0.0192 -0.1208,0.0646 -0.1642,0.1485 l -3e-4,5e-4 c -0.1475,0.2859 -0.1144,0.6448 -0.1,0.9536 0.4826,-0.3261 0.969,-0.6568 1.3967,-1.0542 z m 1.0186,2.8003 c 0.3232,-0.1722 0.6571,-0.328 0.9626,-0.5315 0.1886,-0.1256 0.4974,-0.3397 0.4539,-0.6128 -0.0113,-0.0714 -0.0472,-0.1389 -0.1068,-0.1994 0.0464,-0.066 0.1408,-0.2459 0.0222,-0.2978 -0.0623,-0.0272 -0.2482,0.0777 -0.304,0.0978 -0.1349,0.0483 -0.2743,0.0811 -0.4177,0.0963 -0.2408,0.4635 -0.4037,0.9675 -0.6102,1.4474 z m -2.3676,3.6975 c 0.3275,0.045 0.6712,0.116 0.9992,0.037 0.2786,-0.067 0.5442,-0.3891 0.3648,-0.6662 0.1391,-0.067 0.2698,-0.1549 0.1876,-0.3387 0.1369,-0.0749 0.2512,-0.1739 0.1272,-0.3282 0.0587,-0.0341 0.1942,-0.1199 0.1707,-0.1824 -0.012,-0.032 -0.1299,0.007 -0.1902,0.0271 l -1e-4,1e-4 c -0.0133,0.004 -0.0242,0.008 -0.0325,0.0103 -0.159,0.0425 -0.3539,0.1007 -0.5184,0.0579 -0.3335,0.4883 -0.7029,0.9524 -1.1083,1.3831 z m -1.7325,-1.5396 c 0.1997,0.1093 0.3853,0.2417 0.5536,0.3946 0.1432,-0.04 0.288,-0.0812 0.4234,-0.1434 0.0562,-0.0258 0.0893,-0.0577 0.0839,-0.123 -0.0198,-0.2413 -0.0407,-0.4865 -0.1197,-0.7171 -0.0173,-0.0507 -0.054,-0.0942 -0.1045,-0.0524 -0.2711,0.2236 -0.5492,0.439 -0.8367,0.6413 z m 1.2167,1.8048 c -0.1282,-0.4696 -0.3858,-0.8992 -0.738,-1.235 -0.5565,-0.5302 -1.3574,-0.807 -2.1353,-0.7234 -0.0636,0.1469 -0.1219,0.2962 -0.1748,0.4472 0.6487,0.0192 1.2553,0.2955 1.7232,0.7389 0.3601,0.3412 0.652,0.7604 0.8092,1.2338 0.177,-0.1479 0.349,-0.3018 0.5157,-0.4615 z m -3.0891,1.606 c 0.1501,0.1116 -0.0762,0.3325 -0.018,0.3866 l 0,0 5e-4,5e-4 c 0.0857,0.0725 0.6768,-0.2506 1.0365,-0.4582 0.4904,-0.2833 0.9626,-0.594 1.4047,-0.9505 -0.1351,-0.4497 -0.4021,-0.852 -0.7355,-1.1803 l -1e-4,0 -0.002,-0.002 0,0 c -0.009,-0.009 -0.0179,-0.0176 -0.0252,-0.0246 -0.01,-0.009 -0.0185,-0.0178 -0.0254,-0.0243 l -1e-4,-10e-5 c -0.4499,-0.4252 -1.0183,-0.6818 -1.6545,-0.6859 -0.1093,0.341 -0.1932,0.6901 -0.2542,1.0429 -0.0533,0.3078 -0.0907,0.6274 -0.1118,0.9589 l 0,0 0,2e-4 0,1e-4 c -0.004,0.0691 -0.007,0.1397 -0.01,0.2102 -0.008,0.2125 -0.0151,0.4243 -0.0767,0.6328 l 0,0 -10e-4,0.004 0,0 c -0.003,0.01 -0.005,0.0205 -0.008,0.0322 -0.002,0.0116 -0.005,0.024 -0.006,0.0369 l -10e-5,0 c -0.008,0.0608 -0.006,0.1303 0.034,0.1626 0.0361,0.0294 0.0978,-0.0119 0.1269,-0.0338 l 6e-4,-8e-4 0.003,-0.002 0,-1e-4 c 0.0831,-0.0638 0.2418,-0.1651 0.3221,-0.1055 z"
   inkscape:connector-curvature="0"
   style="fill:#f0e043;fill-rule:nonzero" />
    <g
   id="g25">
     <circle
   id="_161298984"
   class="fil0"
   transform="matrix(0.0584534,-0.0748165,0.0748169,0.058453,111.047,137.62)"
   r="5.3600001"
   cx="0"
   cy="0"
   sodipodi:cx="0"
   sodipodi:cy="0"
   sodipodi:rx="5.3600001"
   sodipodi:ry="5.3600001"
   style="fill:#000000"
   d="M 5.3600001,0 C 5.3600001,2.9602463 2.9602463,5.3600001 0,5.3600001 -2.9602463,5.3600001 -5.3600001,2.9602463 -5.3600001,0 c 0,-2.9602463 2.3997538,-5.3600001 5.3600001,-5.3600001 2.9602463,0 5.3600001,2.3997538 5.3600001,5.3600001 z" />
     <circle
   id="_161299008"
   class="fil6"
   transform="matrix(0.040681,-0.052069,0.052069,0.0406805,111.047,137.62)"
   r="5.3600001"
   cx="0"
   cy="0"
   sodipodi:cx="0"
   sodipodi:cy="0"
   sodipodi:rx="5.3600001"
   sodipodi:ry="5.3600001"
   style="fill:#f0e043"
   d="M 5.3600001,0 C 5.3600001,2.9602463 2.9602463,5.3600001 0,5.3600001 -2.9602463,5.3600001 -5.3600001,2.9602463 -5.3600001,0 c 0,-2.9602463 2.3997538,-5.3600001 5.3600001,-5.3600001 2.9602463,0 5.3600001,2.3997538 5.3600001,5.3600001 z" />
     <path
   id="_161299272"
   class="fil3"
   d="m 110.046,138.842 2e-4,-1e-4 3e-4,-2e-4 2e-4,-3e-4 7e-4,-3e-4 0,10e-5 c 0.0192,-0.0107 0.0384,-0.0193 0.0574,-0.0261 0.0193,-0.007 0.039,-0.012 0.0584,-0.0154 l 2e-4,2e-4 c 0.1082,-0.019 0.21,0.0168 0.2564,0.1003 l 2e-4,4e-4 1e-4,0 c 0.009,0.0172 0.0161,0.0355 0.0199,0.0547 0.004,0.0186 0.005,0.0376 0.003,0.0564 l -2e-4,0 c -0.007,0.0874 -0.0701,0.18 -0.1692,0.2354 l 0,1e-4 -2e-4,1e-4 -10e-4,7e-4 c -0.0682,0.0377 -0.1421,0.0518 -0.2065,0.0442 -0.0714,-0.008 -0.1322,-0.0433 -0.1655,-0.1025 l 0,0 -2e-4,-3e-4 -4e-4,-9e-4 -1e-4,1e-4 c -0.033,-0.0598 -0.0305,-0.1301 3e-4,-0.1956 0.0274,-0.0582 0.0782,-0.1131 0.1461,-0.151 l -10e-5,0 z"
   inkscape:connector-curvature="0"
   style="fill:#000000;fill-rule:nonzero" />
     <path
   id="_161561784"
   class="fil5"
   d="m 110.055,139.132 c 0.0707,0.0333 0.174,-0.0241 0.2132,-0.0818 0.0101,-0.0148 0.0166,-0.0303 0.0187,-0.0447 l 1e-4,-1e-4 c 0.005,-0.033 -0.0169,-0.0496 -0.0485,-0.0542 l -6e-4,-1e-4 -1e-4,-1e-4 c -0.0101,-0.001 -0.0206,-0.002 -0.0313,-9e-4 l 0,1e-4 c -0.061,0.005 -0.1242,0.0406 -0.1578,0.0917 -0.018,0.0274 -0.033,0.0716 0.006,0.0901 z"
   inkscape:connector-curvature="0"
   style="fill:#f0e043;fill-rule:nonzero" />
    </g>
   </g><g
   id="g31"
   transform="matrix(1.8388209,0,0,1.8381909,-150.74286,-220.90827)">
    <path
   id="_161561208"
   class="fil3"
   d="m 94.8536,136.196 c -0.1605,0.0344 -0.4196,-0.0688 -0.5463,-0.1082 -0.0871,-0.0271 -0.1608,-0.0174 -0.2113,0.0146 -0.1447,0.0918 -0.0523,0.2678 0.0523,0.3481 -0.0562,0.1265 0.0368,0.2797 0.1409,0.3482 -0.0454,0.1431 0.0549,0.2953 0.1777,0.3622 -0.0933,0.3248 0.2194,0.6743 0.5091,0.7472 0.3838,0.0965 0.8078,-0.003 1.1998,-0.042 0.3303,0.3434 0.681,0.6621 1.0525,0.9554 0.3231,0.2552 0.6624,0.4915 1.018,0.7087 0.118,0.072 1.2263,0.8304 1.4743,0.6032 0.1577,-0.1444 -0.1345,-0.4344 0.0602,-0.301 0.0169,0.01 0.0336,0.0199 0.0458,0.0293 l 2e-4,2e-4 10e-5,0 5e-4,4e-4 1e-4,0 0,0 c 0.0915,0.0717 0.2207,0.1182 0.3219,0.037 0.1147,-0.0919 0.1093,-0.2719 0.0729,-0.3991 -0.0757,-0.2646 -0.0585,-0.5388 -0.0734,-0.81 -0.0371,-0.6747 -0.141,-1.3026 -0.3083,-1.886 -0.0887,-0.3092 -0.1961,-0.6068 -0.3222,-0.8927 0.3898,-0.507 0.5143,-1.553 -0.0192,-2.0055 -0.0347,-0.0295 -0.0716,-0.054 -0.1105,-0.073 0.0099,-0.1059 -0.0354,-0.2174 -0.1054,-0.2957 -0.0489,-0.0547 -0.1163,-0.0976 -0.1911,-0.1018 -0.0132,-0.1426 -0.0877,-0.2785 -0.2383,-0.3086 -0.024,-0.1123 -0.174,-0.2582 -0.3019,-0.2154 l 0,-1e-4 c -0.0456,0.0153 -0.0757,0.0511 -0.0777,0.1117 -0.0117,0.3522 -0.0522,0.7103 -0.1866,1.0382 -0.1022,-0.108 -0.2086,-0.2135 -0.3194,-0.3164 -0.0133,-0.0123 -0.0266,-0.0246 -0.04,-0.0368 l 0.0112,-0.1092 c 0.0427,-0.4168 0.0896,-0.874 -0.0094,-1.1759 -0.0552,-0.1685 -0.2049,-0.3766 -0.4064,-0.353 -0.0385,-0.1253 -0.1505,-0.2598 -0.2958,-0.2389 l -1e-4,0 c -0.0412,-0.1347 -0.1261,-0.286 -0.2885,-0.2789 -0.0564,-0.1106 -0.1897,-0.1843 -0.3025,-0.1072 -0.0375,0.0256 -0.0599,0.0643 -0.0573,0.105 0.013,0.2068 0.0256,0.4136 0.0226,0.611 -0.0025,0.1618 -0.0154,0.3186 -0.0471,0.4661 -0.0991,-0.0698 -0.1986,-0.139 -0.2983,-0.2079 0.0128,-0.3758 0.0696,-0.817 -0.1027,-1.1575 -0.0853,-0.1685 -0.2263,-0.2807 -0.4596,-0.247 -0.0496,-0.1658 -0.2249,-0.3171 -0.4053,-0.2517 -0.0543,-0.1308 -0.1807,-0.2697 -0.3366,-0.2266 l -2e-4,1e-4 c -0.0152,0.004 -0.0295,0.0102 -0.0428,0.0176 -0.0571,-0.0743 -0.1492,-0.1401 -0.2462,-0.1043 -0.0277,0.0103 -0.051,0.0276 -0.0684,0.049 l 1e-4,2e-4 c -0.055,0.0678 -0.0302,0.1297 -0.0156,0.2033 0.026,0.1309 0.0134,0.2754 -0.0013,0.4134 -0.1047,-0.1062 -0.2022,-0.2153 -0.2903,-0.3276 l -0.0042,-0.005 c -0.1975,-0.2527 -0.3712,-0.5169 -0.5203,-0.7953 -0.2622,-0.4897 -0.4393,-1.0276 -0.5724,-1.5658 -0.0578,-0.2339 -0.1039,-0.4769 -0.1289,-0.7395 -0.0101,-0.1056 -0.0674,-0.2027 -0.1847,-0.1915 -0.0593,0.006 -0.1221,0.04 -0.1712,0.0786 l -4e-4,3e-4 c -0.1492,0.1191 -0.1994,0.3068 -0.2022,0.4896 -0.0223,-8e-4 -0.0442,0.002 -0.0652,0.007 l -1e-4,-1e-4 c -0.1708,0.0442 -0.2481,0.2532 -0.2054,0.4116 -0.2317,0.0918 -0.2837,0.3787 -0.1625,0.5737 -0.1428,0.0927 -0.1915,0.2564 -0.1658,0.399 -0.1882,-0.0954 -0.4184,-0.1103 -0.5903,0.0216 -0.18,-0.1926 -0.5227,-0.1958 -0.7149,-0.0201 -0.1699,-0.1825 -0.4024,-0.1946 -0.6027,-0.0498 -0.1802,-0.1462 -0.4847,-0.2634 -0.6721,-0.0631 -0.204,0.2178 0.0117,0.3881 0.2193,0.4892 0.2169,0.1057 0.4482,0.1925 0.6719,0.281 0.3774,0.1494 0.8237,0.326 1.233,0.5518 l 1e-4,10e-5 c 0.6509,0.3589 1.1887,1.028 1.5729,1.7333 -0.1566,-0.0256 -0.3076,-0.0743 -0.4522,-0.1425 -0.1223,-0.0577 -0.2305,-0.1087 -0.3447,0.0146 -0.0076,0.008 -0.0153,0.0173 -0.023,0.0271 l 10e-5,0 c -0.078,0.1 -0.0423,0.2373 -10e-4,0.3442 -0.1495,0.2359 -0.0753,0.5124 0.1081,0.6994 0.3794,0.3868 1.0589,0.6591 1.5057,0.9297 0.3056,0.6915 0.6516,1.3349 1.0389,1.9289 z"
   inkscape:connector-curvature="0"
   style="fill:#000000;fill-rule:nonzero" />
    <path
   id="_161561592"
   class="fil5"
   d="m 99.3332,135.878 c -0.4742,-0.0377 -0.9559,0.0438 -1.3912,0.2381 -0.3099,-0.2183 -0.6086,-0.4524 -0.899,-0.6961 -0.1466,-0.1232 -0.3299,-0.0398 -0.3894,0.1289 -0.0861,0.2443 -0.1124,0.5037 -0.1358,0.76 -0.0128,0.1406 0.061,0.2437 0.1853,0.3021 0.0857,0.0403 0.1749,0.0718 0.2646,0.1014 l 0,0 c 0.0282,0.009 0.0566,0.0177 0.0849,0.0265 -0.3054,0.3148 -0.5365,0.6996 -0.6705,1.1177 -0.1565,-0.1586 -0.3089,-0.323 -0.4568,-0.4932 -0.9347,-1.0753 -1.6459,-2.3287 -2.176,-3.6485 -0.1628,-0.4055 -0.3159,-0.8265 -0.5139,-1.2279 -0.3782,-0.7665 -0.8275,-1.351 -1.44,-1.7858 -0.4579,-0.325 -1.0034,-0.5292 -1.5228,-0.7348 l -3e-4,-1e-4 c -0.0517,-0.0204 -0.0782,-0.0308 -0.1047,-0.0412 -0.1868,-0.0734 -0.3764,-0.1477 -0.5558,-0.2351 l -1e-4,0 -0.015,-0.007 -1e-4,0 c -0.0526,-0.0255 -0.118,-0.0571 -0.1588,-0.0953 -0.0399,-0.0374 -0.055,-0.0837 -8e-4,-0.1416 l 2e-4,-1e-4 6e-4,-7e-4 0,0 c 0.0178,-0.0189 0.0377,-0.0326 0.059,-0.0419 0.1748,-0.0769 0.3757,0.0927 0.4957,0.2051 0.2217,-0.2387 0.4443,-0.1812 0.6024,0.0987 0.1805,-0.2797 0.5469,-0.3173 0.6929,0.0125 0.2565,-0.3138 0.5166,-0.1613 0.8028,0.0205 -0.0282,-0.2623 -0.1077,-0.4935 0.2072,-0.6231 -0.1605,-0.2607 -0.1917,-0.4649 0.1582,-0.5329 -0.171,-0.198 -0.013,-0.5087 0.2128,-0.2799 -0.0113,-0.2055 -0.0482,-0.4681 0.1332,-0.613 0.0571,-0.0447 0.0977,-0.0859 0.1065,0.007 0.1204,1.0552 0.4838,2.0833 1.0657,2.9256 0.2997,0.4336 0.6656,0.7923 1.0797,1.1215 0.3329,0.2646 0.689,0.5094 1.0248,0.7404 0.6184,0.4254 1.233,0.8618 1.7841,1.3736 0.6163,0.5724 1.1184,1.2548 1.4704,2.0193 z m -0.9196,-1.7164 c 0.1378,-0.3168 0.1906,-0.6625 0.2095,-1.0052 0.0052,-0.0936 -0.0038,-0.1612 0.0666,-0.0195 0.0204,0.0411 0.0254,0.0906 0.0353,0.137 0.2253,-0.0247 0.2292,0.1732 0.2445,0.3346 0.2308,-0.0869 0.3031,0.1831 0.2469,0.3166 0.2308,0.0724 0.3728,0.2916 0.4367,0.5166 0.1173,0.4133 0.0145,0.9453 -0.1933,1.2828 -0.2711,-0.5686 -0.6242,-1.0952 -1.0462,-1.5629 z m -1.7162,-1.4633 c 0.0607,-0.2552 0.0651,-0.5214 0.0561,-0.7825 -0.0027,-0.0812 -0.0072,-0.1651 -0.0122,-0.2499 l 1e-4,-2e-4 0,-2e-4 -1e-4,0 c -7e-4,-0.0112 -0.0024,-0.0239 -0.0041,-0.037 l -1e-4,0 c -0.0039,-0.029 -0.0082,-0.0614 -0.0023,-0.0698 8e-4,-10e-4 0.0103,0.004 0.0358,0.0217 l -1e-4,1e-4 c 0.0454,0.0317 0.0737,0.0865 0.0999,0.1336 0.1806,-0.0545 0.2405,0.197 0.2793,0.3242 0.1858,-0.1342 0.2324,0.0745 0.2852,0.2155 0.1391,-0.0721 0.2396,-0.0113 0.3077,0.1201 0.0157,0.0302 0.0293,0.0633 0.0408,0.0982 l 0,0 1e-4,4e-4 0,1e-4 c 0.0859,0.2625 0.0457,0.6859 0.0056,1.0779 -0.3473,-0.3046 -0.7159,-0.5839 -1.0917,-0.8522 z m -1.9767,-1.4773 c 0.0172,-0.1809 0.0464,-0.3637 0.0111,-0.5446 -0.0074,-0.0381 -0.0481,-0.1038 0.0178,-0.0752 0.0678,0.0294 0.1153,0.0943 0.1529,0.1553 0.1515,-0.2005 0.2839,0.0736 0.3564,0.212 0.1527,-0.1911 0.3123,0.0593 0.3359,0.2266 0.0839,-0.0197 0.1734,-0.0384 0.2585,-0.0125 0.065,0.0197 0.1202,0.0656 0.1629,0.1498 l 2e-4,6e-4 c 0.145,0.2871 0.1088,0.6457 0.0917,0.9543 -0.4797,-0.3302 -0.9632,-0.6652 -1.3874,-1.0663 z m -1.043,2.7913 c -0.3217,-0.175 -0.6543,-0.3337 -0.9579,-0.5398 -0.1875,-0.1273 -0.4944,-0.3441 -0.4486,-0.6168 0.012,-0.0713 0.0484,-0.1385 0.1086,-0.1985 -0.0459,-0.0663 -0.1387,-0.2471 -0.0196,-0.2979 0.0625,-0.0267 0.2474,0.0799 0.3031,0.1004 0.1344,0.0495 0.2735,0.0835 0.4168,0.1 0.2367,0.4656 0.3953,0.9709 0.5976,1.4526 z m 2.3352,3.7181 c -0.3279,0.042 -0.6721,0.11 -0.9994,0.0282 -0.2781,-0.0694 -0.5409,-0.3938 -0.359,-0.6694 -0.1386,-0.0681 -0.2685,-0.1572 -0.1846,-0.3402 -0.1363,-0.0761 -0.2497,-0.1762 -0.1244,-0.3294 -0.0584,-0.0346 -0.1932,-0.1216 -0.1691,-0.1838 0.0123,-0.0319 0.1298,0.008 0.19,0.0288 l 0,0 c 0.0133,0.005 0.0242,0.008 0.0325,0.0106 0.1586,0.0439 0.3529,0.1038 0.5178,0.0624 0.3292,0.4912 0.6946,0.9585 1.0962,1.3928 z m 1.7459,-1.5245 c -0.2006,0.1076 -0.3874,0.2384 -0.5571,0.3897 -0.1428,-0.0412 -0.2872,-0.0837 -0.422,-0.147 -0.056,-0.0263 -0.0889,-0.0584 -0.0829,-0.1237 0.022,-0.2412 0.0449,-0.4861 0.126,-0.7161 0.0178,-0.0505 0.0548,-0.0937 0.1049,-0.0515 0.2692,0.226 0.5454,0.4438 0.8311,0.6486 z m -1.2324,1.7942 c 0.1323,-0.4685 0.3937,-0.8958 0.7488,-1.2285 0.5611,-0.5254 1.3643,-0.7952 2.1415,-0.7049 0.0623,0.1475 0.1192,0.2973 0.1709,0.4488 -0.6489,0.0136 -1.2579,0.2846 -1.7297,0.7238 -0.363,0.3381 -0.6585,0.7547 -0.8198,1.2267 -0.1758,-0.1494 -0.3465,-0.3049 -0.5117,-0.4659 z m 3.075,1.6329 c -0.1511,0.1102 0.0733,0.333 0.0146,0.3867 l 0,0 -5e-4,5e-4 c -0.0863,0.0717 -0.6746,-0.2565 -1.0325,-0.4673 -0.4879,-0.2875 -0.9573,-0.6023 -1.3963,-0.9627 0.1389,-0.4485 0.4095,-0.8484 0.7458,-1.1738 l 0,0 0.002,-0.002 0,0 c 0.0093,-0.009 0.018,-0.0174 0.0253,-0.0243 0.0099,-0.009 0.0187,-0.0177 0.0257,-0.0242 l 1e-4,0 c 0.4536,-0.4213 1.0242,-0.673 1.6604,-0.6715 0.1064,0.342 0.1872,0.6917 0.2451,1.0451 0.0506,0.3082 0.0852,0.6281 0.1034,0.9598 l 0,0 0,2e-4 0,2e-4 c 0.0038,0.0691 0.0057,0.1397 0.0076,0.2102 0.006,0.2126 0.0115,0.4245 0.0712,0.6335 l 1e-4,0 10e-4,0.004 0,0 c 0.003,0.01 0.005,0.0206 0.008,0.0323 0.002,0.0116 0.004,0.0241 0.006,0.037 l 1e-4,0 c 0.008,0.0608 0.004,0.1303 -0.0355,0.1623 -0.0364,0.0291 -0.0977,-0.0128 -0.1266,-0.0349 l -6e-4,-9e-4 -0.0033,-0.002 0,0 c -0.0825,-0.0646 -0.2404,-0.1672 -0.3211,-0.1083 z"
   inkscape:connector-curvature="0"
   style="fill:#f0e043;fill-rule:nonzero" />
    <g
   id="g35">
     <circle
   id="_161561736"
   class="fil0"
   transform="matrix(-0.0577983,-0.0753238,-0.0753242,0.0577979,98.8817,137.721)"
   r="5.3600001"
   cx="0"
   cy="0"
   sodipodi:cx="0"
   sodipodi:cy="0"
   sodipodi:rx="5.3600001"
   sodipodi:ry="5.3600001"
   style="fill:#000000"
   d="M 5.3600001,0 C 5.3600001,2.9602463 2.9602463,5.3600001 0,5.3600001 -2.9602463,5.3600001 -5.3600001,2.9602463 -5.3600001,0 c 0,-2.9602463 2.3997538,-5.3600001 5.3600001,-5.3600001 2.9602463,0 5.3600001,2.3997538 5.3600001,5.3600001 z" />
     <circle
   id="_161560824"
   class="fil6"
   transform="matrix(-0.0402251,-0.052422,-0.052422,0.0402246,98.8817,137.721)"
   r="5.3600001"
   cx="0"
   cy="0"
   sodipodi:cx="0"
   sodipodi:cy="0"
   sodipodi:rx="5.3600001"
   sodipodi:ry="5.3600001"
   style="fill:#f0e043"
   d="M 5.3600001,0 C 5.3600001,2.9602463 2.9602463,5.3600001 0,5.3600001 -2.9602463,5.3600001 -5.3600001,2.9602463 -5.3600001,0 c 0,-2.9602463 2.3997538,-5.3600001 5.3600001,-5.3600001 2.9602463,0 5.3600001,2.3997538 5.3600001,5.3600001 z" />
     <path
   id="_161561016"
   class="fil3"
   d="m 99.8726,138.952 -2e-4,-1e-4 -3e-4,-2e-4 -2e-4,-2e-4 -6e-4,-4e-4 -1e-4,1e-4 c -0.0191,-0.0108 -0.0382,-0.0196 -0.0571,-0.0265 -0.0193,-0.007 -0.0389,-0.0124 -0.0583,-0.0159 l -2e-4,10e-5 c -0.1081,-0.0198 -0.2102,0.015 -0.2573,0.0981 l -1e-4,4e-4 -1e-4,0 c -0.0097,0.0171 -0.0164,0.0354 -0.0204,0.0545 -0.0039,0.0186 -0.0051,0.0376 -0.0037,0.0564 l 2e-4,0 c 0.0065,0.0875 0.0685,0.1806 0.1672,0.2369 l 0,0 10e-5,1e-4 0.0012,7e-4 c 0.0678,0.0384 0.1416,0.0531 0.2061,0.0461 0.0715,-0.008 0.1325,-0.0422 0.1663,-0.1011 l 10e-5,1e-4 2e-4,-4e-4 4e-4,-9e-4 1e-4,1e-4 c 0.0335,-0.0594 0.0316,-0.1298 0.001,-0.1956 -0.0268,-0.0584 -0.0772,-0.1137 -0.1446,-0.1522 l 0,-1e-4 z"
   inkscape:connector-curvature="0"
   style="fill:#000000;fill-rule:nonzero" />
     <path
   id="_161561424"
   class="fil5"
   d="m 99.8601,139.241 c -0.071,0.0327 -0.1738,-0.0256 -0.2125,-0.0837 -0.01,-0.0149 -0.0164,-0.0305 -0.0183,-0.0449 l -1e-4,-1e-4 c -0.0045,-0.033 0.0173,-0.0494 0.049,-0.0538 l 6e-4,0 0,-1e-4 c 0.0101,-0.001 0.0207,-0.001 0.0314,-6e-4 l 0,1e-4 c 0.0609,0.005 0.1238,0.0416 0.1569,0.093 0.0179,0.0276 0.0324,0.0719 -0.007,0.0901 z"
   inkscape:connector-curvature="0"
   style="fill:#f0e043;fill-rule:nonzero" />
    </g>
   </g><g
   id="g41"
   transform="matrix(1.8388209,0,0,1.8381909,-150.74286,-220.90827)">
    <path
   id="_161561160"
   class="fil3"
   d="m 103.05,132.5 c -0.1457,-0.0646 -0.2904,-0.2938 -0.3675,-0.3972 -0.053,-0.071 -0.1164,-0.1055 -0.1744,-0.1092 -0.1662,-0.0106 -0.1941,0.1806 -0.1578,0.3034 -0.1164,0.0673 -0.1309,0.2409 -0.0883,0.3543 -0.1174,0.0865 -0.1255,0.2634 -0.0673,0.3861 -0.2589,0.202 -0.2128,0.6554 -0.0268,0.8782 0.2465,0.2952 0.6367,0.4592 0.967,0.6526 0.0633,0.4587 0.1569,0.9095 0.2812,1.3523 0.1081,0.3852 0.2398,0.7648 0.3952,1.1387 0.0515,0.1241 0.4892,1.3535 0.814,1.3166 0.2065,-0.0234 0.1425,-0.4182 0.2193,-0.2021 0.008,0.0174 0.0151,0.0348 0.0193,0.0491 l 1e-4,3e-4 0,1e-4 2e-4,6e-4 0,0 0,10e-5 c 0.031,0.1086 0.106,0.219 0.2319,0.213 0.1427,-0.007 0.2412,-0.1513 0.2853,-0.272 0.0918,-0.2512 0.262,-0.4569 0.4053,-0.6787 0.3564,-0.5514 0.6335,-1.1042 0.8353,-1.6584 0.107,-0.2938 0.1927,-0.5889 0.2569,-0.8857 0.5961,-0.1757 1.2917,-0.9267 1.131,-1.5873 -0.0104,-0.0429 -0.0254,-0.0833 -0.0452,-0.1205 0.0683,-0.0776 0.0965,-0.1911 0.0862,-0.2926 -0.007,-0.071 -0.0357,-0.1432 -0.092,-0.1892 0.0711,-0.1196 0.0902,-0.269 -0.011,-0.3787 0.0454,-0.102 0.0108,-0.3024 -0.1141,-0.3418 l 0,-1e-4 c -0.0446,-0.014 -0.0887,-0.003 -0.1249,0.0433 -0.2105,0.2702 -0.447,0.5285 -0.74,0.7094 -0.0185,-0.1433 -0.0419,-0.287 -0.0702,-0.4312 -0.003,-0.0172 -0.007,-0.0345 -0.0103,-0.0517 l 0.0712,-0.0795 c 0.2717,-0.3031 0.5697,-0.6357 0.6645,-0.9295 0.0529,-0.164 0.0541,-0.4131 -0.1177,-0.5098 0.0413,-0.1204 0.0301,-0.2902 -0.096,-0.3567 l -10e-5,-1e-4 c 0.0447,-0.1294 0.0644,-0.2968 -0.0673,-0.384 0.0188,-0.1192 -0.0438,-0.2533 -0.1766,-0.2572 -0.044,-0.001 -0.0838,0.0164 -0.105,0.0498 -0.1079,0.17 -0.2162,0.3398 -0.3313,0.4931 -0.0944,0.1258 -0.1942,0.2417 -0.3034,0.3395 -0.038,-0.1115 -0.0766,-0.2228 -0.1157,-0.3339 0.2248,-0.288 0.5216,-0.6023 0.5807,-0.9684 0.0293,-0.1811 -0.0174,-0.3499 -0.22,-0.4568 0.0557,-0.1586 0.004,-0.3777 -0.1748,-0.4294 0.0322,-0.1338 0.0122,-0.3153 -0.135,-0.3704 l -2e-4,0 c -0.0144,-0.005 -0.029,-0.009 -0.0437,-0.0107 -0.002,-0.0911 -0.0372,-0.1954 -0.1339,-0.2226 -0.0276,-0.008 -0.0558,-0.008 -0.0818,-6e-4 l 0,2e-4 c -0.082,0.0219 -0.0978,0.0847 -0.1284,0.1509 -0.0544,0.1177 -0.1469,0.2241 -0.2373,0.3242 -0.0216,-0.1433 -0.0359,-0.2849 -0.041,-0.4234 l -2e-4,-0.007 c -0.0108,-0.3114 0.004,-0.6184 0.0455,-0.9224 0.0737,-0.5347 0.242,-1.0587 0.4449,-1.5578 0.0882,-0.2168 0.1908,-0.4341 0.3213,-0.6548 0.0524,-0.0888 0.0629,-0.1978 -0.0357,-0.256 -0.0499,-0.0295 -0.1188,-0.0384 -0.1796,-0.0361 l -5e-4,0 c -0.1852,0.008 -0.332,0.1272 -0.4386,0.2693 -0.0171,-0.0134 -0.0357,-0.0239 -0.0554,-0.0317 l 10e-5,-1e-4 c -0.1596,-0.0628 -0.3398,0.0573 -0.3967,0.2062 -0.2346,-0.0603 -0.4394,0.1355 -0.4555,0.358 -0.1653,-0.009 -0.2971,0.0921 -0.3584,0.2189 -0.0935,-0.1825 -0.2659,-0.3258 -0.4763,-0.3204 -0.0314,-0.2542 -0.299,-0.4525 -0.5504,-0.4243 -0.0293,-0.2406 -0.2051,-0.3829 -0.4452,-0.3835 -0.0581,-0.2179 -0.2305,-0.484 -0.4922,-0.4337 -0.2848,0.0546 -0.2126,0.3117 -0.1072,0.5098 0.1101,0.207 0.2423,0.4074 0.3675,0.6048 0.2112,0.333 0.4611,0.7269 0.6538,1.1382 l 1e-4,2e-4 c 0.3064,0.6541 0.3467,1.4872 0.2456,2.2611 -0.1084,-0.1096 -0.1993,-0.2342 -0.2739,-0.3704 -0.0632,-0.1152 -0.1191,-0.2171 -0.2793,-0.1855 -0.0107,0.002 -0.0219,0.005 -0.0335,0.008 l 0,0 c -0.1184,0.034 -0.1689,0.1623 -0.1974,0.27 -0.2524,0.0999 -0.3521,0.3597 -0.3148,0.6114 0.0772,0.5209 0.4556,1.1232 0.6522,1.5912 -0.155,0.718 -0.2507,1.4215 -0.2858,2.1096 z"
   inkscape:connector-curvature="0"
   style="fill:#000000;fill-rule:nonzero" />
    <path
   id="_161561400"
   class="fil5"
   d="m 106.753,134.809 c -0.3512,-0.3006 -0.7764,-0.5118 -1.2295,-0.6078 -0.1189,-0.3487 -0.2198,-0.7033 -0.3088,-1.0608 -0.0448,-0.1806 -0.2366,-0.2198 -0.3797,-0.1212 -0.2073,0.1428 -0.3762,0.3316 -0.541,0.5197 -0.0905,0.1032 -0.0914,0.2264 -0.027,0.3434 0.0442,0.0805 0.0964,0.1563 0.1499,0.2308 l 1e-4,0 c 0.017,0.0232 0.0343,0.0463 0.0515,0.0693 -0.4198,0.073 -0.8214,0.2433 -1.1656,0.4954 -0.0324,-0.2141 -0.0582,-0.4304 -0.0772,-0.6487 -0.1202,-1.3792 0.0371,-2.7707 0.3747,-4.111 0.1036,-0.4117 0.2239,-0.8301 0.2977,-1.2587 0.1408,-0.8185 0.1216,-1.5347 -0.1113,-2.2264 -0.1742,-0.5171 -0.4863,-0.9893 -0.777,-1.4477 l -1e-4,-3e-4 c -0.029,-0.0456 -0.0439,-0.0689 -0.0588,-0.0922 -0.1049,-0.1644 -0.2114,-0.3311 -0.3025,-0.5024 l -10e-5,0 -0.008,-0.0143 0,-10e-5 c -0.0268,-0.05 -0.0602,-0.1123 -0.0704,-0.1657 -0.01,-0.0521 0.005,-0.0971 0.0803,-0.1117 l 2e-4,0 9e-4,-1e-4 0,-1e-4 c 0.0248,-0.005 0.0483,-0.004 0.0703,8e-4 0.1814,0.0395 0.2423,0.2876 0.2724,0.4445 0.3107,-0.0609 0.4528,0.1115 0.4171,0.4218 0.3017,-0.1167 0.6111,0.0631 0.5374,0.4058 0.3809,-0.1001 0.4982,0.1684 0.6193,0.4749 0.1277,-0.2223 0.1973,-0.4495 0.5188,-0.3714 0.0229,-0.2966 0.1151,-0.4749 0.4289,-0.3284 -0.0212,-0.2534 0.2805,-0.4073 0.3272,-0.0984 0.1086,-0.168 0.2296,-0.3954 0.455,-0.4057 0.0704,-0.003 0.1259,-0.0117 0.0799,0.0661 -0.5084,0.8981 -0.8102,1.9138 -0.8342,2.9083 -0.0122,0.512 0.0704,1.0031 0.2078,1.4984 0.1104,0.3982 0.2503,0.7941 0.3823,1.1676 0.2429,0.6877 0.4766,1.3819 0.6173,2.099 0.1573,0.8021 0.1619,1.6253 0.002,2.4273 z m 0.258,-1.8744 c 0.2893,-0.1703 0.5283,-0.4118 0.739,-0.6704 0.0576,-0.0706 0.0892,-0.1288 0.0636,0.0227 -0.007,0.044 -0.0318,0.0858 -0.0506,0.1279 0.1911,0.1093 0.0812,0.2671 10e-4,0.4026 0.231,0.0637 0.1336,0.3172 0.0131,0.39 0.14,0.1889 0.1264,0.4422 0.048,0.6556 -0.1439,0.3919 -0.5287,0.7513 -0.885,0.8977 0.1119,-0.6018 0.1353,-1.2175 0.0709,-1.8261 z m -0.5127,-2.1308 c 0.1936,-0.166 0.3491,-0.3727 0.4913,-0.5829 0.0442,-0.0655 0.0887,-0.134 0.1332,-0.2035 l 1e-4,-1e-4 2e-4,-1e-4 -10e-5,-1e-4 c 0.006,-0.009 0.0118,-0.0201 0.0179,-0.0314 l -1e-4,-1e-4 c 0.0136,-0.025 0.0287,-0.0529 0.0381,-0.0562 0.001,-4e-4 0.006,0.009 0.0157,0.0376 l 0,0 c 0.0175,0.0509 0.009,0.1101 0.002,0.1621 0.1731,0.0604 0.0765,0.2922 0.0342,0.4144 0.2228,7e-4 0.1402,0.1914 0.101,0.3323 0.1506,0.0228 0.1949,0.1281 0.1733,0.2703 -0.005,0.0327 -0.0132,0.0665 -0.0241,0.1005 l 0,0 -10e-5,3e-4 0,1e-4 c -0.0826,0.2554 -0.3561,0.5652 -0.6116,0.8504 -0.099,-0.4379 -0.229,-0.868 -0.3711,-1.2936 z m -0.7094,-2.2906 c 0.1169,-0.1324 0.2443,-0.2594 0.32,-0.4218 0.0159,-0.0341 0.0215,-0.109 0.057,-0.0489 0.0364,0.0619 0.0367,0.14 0.0313,0.2094 0.2337,-0.071 0.1811,0.2202 0.159,0.3703 0.2292,-0.0629 0.2116,0.225 0.1345,0.3701 0.0772,0.0324 0.1582,0.0689 0.2103,0.1378 0.0399,0.0527 0.057,0.1203 0.0424,0.2108 l -10e-5,7e-4 c -0.0501,0.3085 -0.2835,0.5696 -0.4733,0.8024 -0.1883,-0.5336 -0.3769,-1.0732 -0.4811,-1.6308 z m -2.4148,1.5978 c -0.1529,-0.3214 -0.3235,-0.6362 -0.4444,-0.9717 -0.0746,-0.2072 -0.192,-0.553 -1e-4,-0.7411 0.0501,-0.0492 0.1172,-0.0812 0.1987,-0.0939 0.002,-0.0784 0.0323,-0.2735 0.1549,-0.2454 0.0643,0.0148 0.1488,0.2042 0.1809,0.2521 0.0773,0.1157 0.1672,0.222 0.2704,0.3168 -0.08,0.5012 -0.2441,0.989 -0.3604,1.4832 z m -0.2893,4.2566 c -0.2817,-0.1543 -0.5911,-0.2976 -0.8016,-0.5489 -0.1789,-0.2134 -0.2001,-0.6186 0.1003,-0.7312 -0.0699,-0.1328 -0.1211,-0.277 0.0494,-0.373 -0.0637,-0.1377 -0.0956,-0.2811 0.0904,-0.3299 -0.0261,-0.0605 -0.0823,-0.2059 -0.0279,-0.2411 0.0279,-0.0181 0.0974,0.0806 0.133,0.1312 l 0,1e-4 c 0.008,0.0111 0.0142,0.0203 0.0194,0.0268 0.0996,0.1251 0.2181,0.2833 0.3713,0.345 -0.0219,0.5742 -0.002,1.1502 0.0657,1.721 z m 2.2433,-0.2005 c -0.2191,-0.03 -0.4407,-0.034 -0.6605,-0.012 -0.0887,-0.114 -0.1779,-0.2299 -0.2477,-0.3568 -0.0289,-0.0526 -0.0364,-0.0967 0.006,-0.1446 0.1551,-0.177 0.3131,-0.3563 0.5082,-0.4907 0.0428,-0.0296 0.0966,-0.0424 0.1119,0.0194 0.0824,0.3314 0.1751,0.6605 0.2825,0.9847 z m -1.9938,0.7059 c 0.3717,-0.2926 0.8213,-0.4791 1.2905,-0.5377 0.7412,-0.0923 1.5267,0.1547 2.0859,0.6698 -0.0353,0.1515 -0.0761,0.3018 -0.1221,0.4504 -0.5177,-0.3602 -1.1513,-0.4952 -1.7731,-0.4195 -0.4784,0.0582 -0.9488,0.2168 -1.3453,0.4956 -0.0527,-0.2179 -0.0981,-0.4376 -0.1359,-0.6586 z m 1.4837,3.0406 c -0.1818,2e-4 -0.1327,0.3036 -0.2095,0.3122 l 0,0 -7e-4,1e-4 c -0.1088,0.007 -0.3836,-0.587 -0.5444,-0.9572 -0.2192,-0.5048 -0.4083,-1.0205 -0.5474,-1.5545 0.3655,-0.2732 0.8067,-0.4329 1.2569,-0.4964 l 10e-5,0 0.003,-4e-4 0,0 c 0.0125,-0.002 0.0241,-0.003 0.0338,-0.005 0.013,-0.002 0.0248,-0.003 0.034,-0.004 l 1e-4,0 c 0.5972,-0.072 1.1895,0.0563 1.6887,0.4211 -0.1118,0.3295 -0.2481,0.6506 -0.4045,0.9614 -0.1364,0.2711 -0.2921,0.5423 -0.4673,0.8135 l 0,0 -10e-5,1e-4 -1e-4,10e-5 c -0.0365,0.0565 -0.0753,0.1131 -0.1141,0.1696 -0.117,0.1704 -0.2336,0.3402 -0.306,0.5386 l 0,0 -10e-4,0.004 -1e-4,0 c -0.003,0.009 -0.008,0.0192 -0.0124,0.0298 -0.005,0.0105 -0.0102,0.0215 -0.0163,0.0325 l 1e-4,1e-4 c -0.0288,0.0522 -0.071,0.1049 -0.1206,0.1073 -0.0452,0.002 -0.0695,-0.0659 -0.0796,-0.0998 l 0,-0.001 -10e-4,-0.004 0,-1e-4 c -0.028,-0.0978 -0.0934,-0.2687 -0.1905,-0.2685 z"
   inkscape:connector-curvature="0"
   style="fill:#f0e043;fill-rule:nonzero" />
    <g
   id="g45">
     <circle
   id="_161561328"
   class="fil0"
   transform="matrix(-0.00238382,-0.0922289,-0.0922293,0.0023838,105.344,136)"
   r="5.3600001"
   cx="0"
   cy="0"
   sodipodi:cx="0"
   sodipodi:cy="0"
   sodipodi:rx="5.3600001"
   sodipodi:ry="5.3600001"
   style="fill:#000000"
   d="M 5.3600001,0 C 5.3600001,2.9602463 2.9602463,5.3600001 0,5.3600001 -2.9602463,5.3600001 -5.3600001,2.9602463 -5.3600001,0 c 0,-2.9602463 2.3997538,-5.3600001 5.3600001,-5.3600001 2.9602463,0 5.3600001,2.3997538 5.3600001,5.3600001 z" />
     <circle
   id="_161561256"
   class="fil6"
   transform="matrix(-0.00165903,-0.0641872,-0.0641872,0.00165901,105.344,136)"
   r="5.3600001"
   cx="0"
   cy="0"
   sodipodi:cx="0"
   sodipodi:cy="0"
   sodipodi:rx="5.3600001"
   sodipodi:ry="5.3600001"
   style="fill:#f0e043"
   d="M 5.3600001,0 C 5.3600001,2.9602463 2.9602463,5.3600001 0,5.3600001 -2.9602463,5.3600001 -5.3600001,2.9602463 -5.3600001,0 c 0,-2.9602463 2.3997538,-5.3600001 5.3600001,-5.3600001 2.9602463,0 5.3600001,2.3997538 5.3600001,5.3600001 z" />
     <path
   id="_161561088"
   class="fil3"
   d="m 105.42,137.534 -1e-4,-2e-4 -1e-4,-4e-4 0,-2e-4 -3e-4,-7e-4 -1e-4,1e-4 c -0.009,-0.0194 -0.0188,-0.0373 -0.0297,-0.0535 -0.0112,-0.0166 -0.0235,-0.032 -0.0368,-0.0459 l -2e-4,0 c -0.0736,-0.0773 -0.1737,-0.1083 -0.2582,-0.0698 l -4e-4,2e-4 -1e-4,-2e-4 c -0.0173,0.008 -0.0331,0.0185 -0.0471,0.0313 -0.0137,0.0124 -0.0255,0.0266 -0.0351,0.0422 l 2e-4,1e-4 c -0.045,0.0725 -0.0494,0.1811 -0.004,0.2817 l -10e-5,0 10e-5,2e-4 5e-4,0.001 c 0.0314,0.0688 0.0809,0.1226 0.1357,0.1539 0.0606,0.0347 0.1282,0.0426 0.1884,0.0156 l 0,1e-4 4e-4,-2e-4 8e-4,-4e-4 1e-4,1e-4 c 0.0603,-0.0276 0.099,-0.084 0.1128,-0.153 0.0123,-0.0612 0.004,-0.1335 -0.0267,-0.2023 l 0,0 z"
   inkscape:connector-curvature="0"
   style="fill:#000000;fill-rule:nonzero" />
     <path
   id="_162613800"
   class="fil5"
   d="m 105.245,137.754 c -0.0746,-0.0149 -0.122,-0.1195 -0.1193,-0.1872 7e-4,-0.0174 0.005,-0.0333 0.0113,-0.0458 l 0,-10e-5 c 0.0153,-0.0286 0.0418,-0.0289 0.0693,-0.0143 l 4e-4,3e-4 1e-4,0 c 0.009,0.005 0.0171,0.0106 0.025,0.0174 l 0,1e-4 c 0.045,0.0388 0.0735,0.1035 0.0701,0.1628 -0.002,0.0319 -0.0155,0.075 -0.0569,0.0668 z"
   inkscape:connector-curvature="0"
   style="fill:#f0e043;fill-rule:nonzero" />
    </g>
   </g>
</svg>