<?xml version="1.0" encoding="UTF-8" standalone="no"?>
<!-- Creator: CorelDRAW -->

<svg
   xmlns:dc="http://purl.org/dc/elements/1.1/"
   xmlns:cc="http://creativecommons.org/ns#"
   xmlns:rdf="http://www.w3.org/1999/02/22-rdf-syntax-ns#"
   xmlns:svg="http://www.w3.org/2000/svg"
   xmlns="http://www.w3.org/2000/svg"
   xmlns:sodipodi="http://sodipodi.sourceforge.net/DTD/sodipodi-0.dtd"
   xmlns:inkscape="http://www.inkscape.org/namespaces/inkscape"
   xml:space="preserve"
   width="300"
   height="360"
   style="fill-rule:evenodd"
   viewBox="0 0 84.666667 101.6"
   id="svg2"
   version="1.1"
   inkscape:version="0.48.1 "
   sodipodi:docname="сенно.svg"><metadata
   id="metadata22"><rdf:RDF><cc:Work
       rdf:about=""><dc:format>image/svg+xml</dc:format><dc:type
         rdf:resource="http://purl.org/dc/dcmitype/StillImage" /></cc:Work></rdf:RDF></metadata><sodipodi:namedview
   pagecolor="#ffffff"
   bordercolor="#666666"
   borderopacity="1"
   objecttolerance="10"
   gridtolerance="10"
   guidetolerance="10"
   inkscape:pageopacity="0"
   inkscape:pageshadow="2"
   inkscape:window-width="640"
   inkscape:window-height="480"
   id="namedview20"
   showgrid="false"
   fit-margin-top="0"
   fit-margin-left="0"
   fit-margin-right="0"
   fit-margin-bottom="0"
   inkscape:zoom="0.72500001"
   inkscape:cx="150"
   inkscape:cy="180"
   inkscape:window-x="23"
   inkscape:window-y="23"
   inkscape:window-maximized="0"
   inkscape:current-layer="svg2" />
 <defs
   id="defs4"><style
     type="text/css"
     id="style6">
   
    .fil0 {fill:black}
    .fil2 {fill:black;fill-rule:nonzero}
    .fil1 {fill:#5A9844;fill-rule:nonzero}
    .fil3 {fill:#F8E73D;fill-rule:nonzero}
   
  </style></defs>
 <path
   id="path3005"
   d="m 62.583288,48.550341 c 0.828322,0 1.500011,0.671689 1.500011,1.500012 l 0,1.499658 c 0,0.828322 -0.671689,1.500011 -1.500011,1.500011 l -1.500011,0 0,-4.499681 1.500011,0 z m 0,5.999692 c 1.656644,0 3.000022,-1.343378 3.000022,-3.000022 l 0,-1.499658 c 0,-1.656645 -1.343378,-3.000023 -3.000022,-3.000023 l -3.000022,0 0,7.499703 3.000022,0 z m -6.000044,-7.499703 1.500011,0 0,7.499703 -1.500011,0 0,-7.499703 z m -3.000023,0 1.500012,0 0,7.499703 -1.500012,0 -3.000022,-4.708525 0,4.708525 -1.500011,0 0,-7.499703 1.500011,0 3.000022,4.708525 0,-4.708525 z m -22.499883,0 4.499997,0 0,1.500011 -2.999986,0 0,1.500012 2.999986,0 0,1.500011 -2.999986,0 0,1.499658 2.999986,0 0,1.500011 -4.499997,0 0,-7.499703 z m -5.999974,-3.52e-4 1.499976,0 0,6.000044 3.000022,0 0,1.500011 -4.499998,0 0,-7.500055 z m 15.750398,6.000044 1.499588,0 c 1.242272,0 2.250158,-1.007533 2.250158,-2.250017 0,-1.24213 -1.026584,-2.24543 -2.250158,-2.250016 l -1.499588,0 0,1.500011 1.499588,0 c 0.414091,0 0.750147,0.336197 0.750147,0.750005 0,0.414161 -0.336056,0.750006 -0.750147,0.750006 l -1.499588,0 0,1.500011 z m 1.499588,-7.500055 c 2.898916,0 5.249827,2.351263 5.249827,5.250038 0,2.899128 -2.350911,5.250039 -5.249827,5.250039 -2.899022,0 -5.250003,-2.350911 -5.250003,-5.250039 0,-2.898775 2.350981,-5.250038 5.250003,-5.250038 z m 0,1.500011 c 2.070594,0 3.750169,1.679575 3.750169,3.750027 0,2.070806 -1.679575,3.750028 -3.750169,3.750028 -2.0707,0 -3.749992,-1.679222 -3.749992,-3.750028 0,-2.070452 1.679292,-3.750027 3.749992,-3.750027 z"
   style="fill:#a90000;stroke:none"
   inkscape:connector-curvature="0" /><path
   style="fill:#000000"
   inkscape:connector-curvature="0"
   id="path10"
   d="M 42.234806,101.6 C 39.428963,96.367486 33.905688,92.807545 27.551221,92.807545 l -18.4767117,3.36e-4 c -5.0106694,0 -9.074511065491,-4.061116 -9.074511065491,-9.068989 l 0,-83.73889163028398 84.666668765491,0 0,83.73889163028398 c 0,5.007873 -4.063842,9.068989 -9.074511,9.068989 l -18.476712,-3.36e-4 c -6.354467,0 -11.877742,3.559941 -14.683585,8.792455 l -0.196631,0 z"
   class="fil0" /><path
   style="fill:#5a9844;fill-rule:nonzero"
   inkscape:connector-curvature="0"
   id="path12"
   d="m 42.333417,100.83097 c -1.737481,-2.970573 -4.369955,-5.384298 -7.478204,-6.853119 -2.213844,-1.046234 -4.689385,-1.631556 -7.302475,-1.631724 l 0,-0.0017 -0.0012,0 0,0.0017 -18.4767115,3.37e-4 0,-0.0017 -0.00126,0 0,0.0017 C 4.3536026,92.346043 0.46220259,88.456674 0.46211831,83.739566 l 0.00177,0 0,-5.89e-4 0,-83.2756216 83.73905676,0 0,83.2756216 0,5.89e-4 0.0017,0 c -8.4e-5,4.717108 -3.891484,8.606477 -8.611464,8.606898 l 0,-0.0017 -0.0017,0 0,0.0017 -18.476712,-3.37e-4 0,-0.0017 -8.42e-4,0 0,0.0017 c -2.61309,1.68e-4 -5.088631,0.58549 -7.302475,1.631724 -3.108249,1.468821 -5.740723,3.882546 -7.478204,6.853119 z"
   class="fil1" /><path
   id="_161947608"
   class="fil2"
   d="m 72.252805,64.387566 0.589892,0.516336 c 0.07906,2.336148 -1.777093,2.674673 -3.60838,1.981536 -1.659688,4.768741 -4.985722,8.452923 -8.961741,11.44481 -4.913155,3.697238 -10.561252,6.292312 -16.201763,8.654741 6.379162,0.23551 12.461397,-2.05069 18.039961,-4.944784 3.136904,-1.627344 6.159269,-3.530713 8.785085,-5.518482 1.474436,-1.11623 2.825313,-2.260088 4.002484,-3.39746 1.113539,-1.075967 2.182323,-2.235155 3.067203,-3.509571 0.951801,-1.372461 1.405746,-3.083614 0.287993,-4.50434 l -8.4e-5,8.5e-5 -8.43e-4,-0.0017 c -0.534013,-0.692211 -1.269461,-1.405058 -2.061125,-1.931081 -0.298528,-0.19828 -0.614755,-0.376176 -0.942192,-0.523496 -0.04366,-0.04869 -0.09153,-0.09645 -0.144291,-0.142603 L 74.421895,61.9137 c 0.340501,-0.549103 0.258326,-1.302044 -0.258409,-1.754112 l -0.581211,-0.508503 -8.43e-4,-8.42e-4 -0.0051,-0.0042 c -0.507464,-0.439012 -1.26314,-0.433958 -1.767569,-0.01904 L 35.895679,28.19702 c 0.41863,-2.633821 -1.805412,-4.676424 -4.429206,-3.876229 L 11.128807,6.5220951 C 10.540516,6.0073591 9.8683647,6.0076961 9.3311491,6.2838055 9.1292928,6.3874939 8.946653,6.531529 8.7957876,6.7022653 8.6443323,6.8735071 8.5245671,7.0716185 8.4490501,7.2831227 l -2.529e-4,-8.42e-5 C 8.2539365,7.8288557 8.3435286,8.4606728 8.91589,8.9583099 L 8.9163114,8.9578045 28.554181,26.14414 c -1.475278,1.044381 -3.02582,2.07259 -4.433672,3.204571 -0.100549,0.08086 -0.201014,0.157933 -0.285633,0.256146 -0.479398,0.55542 -0.339321,1.358816 0.117658,1.922069 0.475942,0.591723 1.327194,0.930416 1.965717,0.333218 0.314879,-0.294472 0.649817,-0.599051 1.002285,-0.912307 0.280155,-0.248818 0.558877,-0.491404 0.835744,-0.728009 0.54733,0.81561 1.235748,1.538059 1.986029,2.169034 -0.704937,0.708889 -1.42631,1.401689 -2.145407,2.096258 -0.585172,0.565359 -0.300382,1.379452 0.19031,1.878521 0.498193,0.506145 1.367228,0.853177 1.963441,0.276784 1.016108,-0.982219 1.977938,-2.109567 2.904117,-3.306996 0.549015,-0.709983 1.085809,-1.444647 1.613754,-2.188323 l 35.373804,30.957945 c -0.337298,0.553061 -0.240373,1.295305 0.257904,1.737518 l 7.59e-4,8.43e-4 0.0059,0.0051 0.581296,0.508588 8.42e-4,8.42e-4 0.0051,0.0042 c 0.504262,0.436317 1.254206,0.434212 1.758551,0.02704 z M 32.384476,29.496284 c -0.407842,0.503785 -0.839367,0.988198 -1.277551,1.46562 -0.704432,-0.571424 -1.352648,-1.221435 -1.889442,-1.953571 0.453945,-0.365394 0.912441,-0.725566 1.374308,-1.080937 l 1.792685,1.568888 z"
   inkscape:connector-curvature="0"
   style="fill:#000000;fill-rule:nonzero" /><path
   id="_161682784"
   class="fil3"
   d="m 75.576901,63.293404 c 0.1303,0.07387 0.257903,0.152543 0.382473,0.235258 0.75281,0.500164 1.452437,1.178392 1.96066,1.837247 l 8.4e-5,-8.4e-5 8.43e-4,0.0017 c 1.00473,1.266666 0.542357,2.796555 -0.307968,4.018832 -0.869203,1.247125 -1.914979,2.381549 -3.006098,3.435785 -1.163939,1.124568 -2.502006,2.257392 -3.964557,3.364609 -6.478699,4.904437 -15.37588,9.290011 -22.390278,10.236179 6.67828,-1.858474 11.938172,-4.253416 16.235644,-6.957822 4.771308,-3.0025 8.342941,-6.396169 11.379043,-9.838356 1.16571,-1.321669 2.017045,-2.896958 0.865664,-4.546034 -0.3346,-0.479275 -0.740926,-0.872971 -1.152055,-1.277448 0.02925,-0.168968 0.03017,-0.340883 -0.0034,-0.509598 z m -2.270314,-3.325105 0.580284,0.507745 c 0.395874,0.346358 0.42335,0.951053 0.09237,1.33363 l -0.0042,0.0051 8.5e-5,8.4e-5 -1.871405,2.136353 -0.0051,0.0059 8.4e-5,8.4e-5 c -0.340585,0.382409 -0.941771,0.420903 -1.329048,0.086 l -0.0051,-0.0042 -8.5e-5,8.5e-5 -0.580368,-0.507829 -0.0059,-0.0051 -8.4e-5,8.4e-5 c -0.382642,-0.340378 -0.421159,-0.941198 -0.08605,-1.32824 l 0.0042,-0.0051 -8.4e-5,-8.5e-5 1.871405,-2.136268 0.0051,-0.0059 -8.5e-5,-8.4e-5 c 0.340501,-0.382325 0.94194,-0.420987 1.329049,-0.08608 l 0.0051,0.0042 8.4e-5,-8.4e-5 z m 2.128972,4.281212 c 0.339826,0.33465 0.671225,0.671069 0.949525,1.067797 1.030183,1.4684 0.198401,2.860739 -0.834311,4.03273 -3.01065,3.416917 -6.555565,6.782201 -11.286838,9.759516 -4.659128,2.931914 -10.46104,5.498434 -17.999421,7.406436 5.383703,-2.314416 10.286154,-4.859542 14.259982,-7.849829 4.210071,-3.168098 7.376896,-6.835265 8.970254,-11.254532 1.967065,0.63148 3.685835,-0.104952 3.768516,-2.195398 0.440881,0.222707 0.934101,0.151279 1.355344,-0.09046 0.349351,-0.200554 0.642485,-0.511704 0.816949,-0.876256 z m -2.180974,0.457206 -0.710163,-0.621541 1.614428,-1.843059 0.669539,0.585911 c 0.382473,0.33465 0.419642,0.771304 0.265321,1.155734 -0.129289,0.322015 -0.383738,0.606043 -0.68412,0.778463 -0.369072,0.211842 -0.80911,0.247219 -1.155005,-0.05551 z M 71.518453,59.931322 69.90394,61.774382 34.512184,30.80077 c 0.470801,-0.668879 1.041646,-1.341801 1.277973,-2.137616 L 71.518453,59.931322 z M 27.854385,29.585147 c -0.755507,0.640241 -1.49913,1.292863 -2.222441,1.969407 -0.446107,0.417196 -1.032375,0.103604 -1.351805,-0.290598 -0.390143,-0.48138 -0.463468,-1.130043 0.04172,-1.534689 1.900061,-1.521887 3.312717,-2.415157 4.56018,-3.297899 l 1.387456,1.214191 c -0.546402,0.421239 -1.08682,0.850228 -1.622856,1.284523 0.700723,1.005214 1.544558,1.855863 2.506051,2.602908 0.770678,-0.836498 1.527365,-1.681251 2.194796,-2.603918 0.638861,-0.883584 0.884628,-2.186639 -0.0081,-2.968808 l -1.491797,-1.305497 c 2.354258,-0.556683 4.129245,1.464862 3.581831,3.731772 -0.215847,0.894366 -0.901821,1.665501 -1.422433,2.401175 -0.551207,0.7788 -1.111432,1.548167 -1.68472,2.289484 -0.914295,1.182099 -1.862808,2.294033 -2.862987,3.260837 -0.413152,0.399255 -1.04173,0.06755 -1.372453,-0.268528 -0.320273,-0.325722 -0.599079,-0.894366 -0.198401,-1.281323 0.832288,-0.803901 1.663986,-1.608813 2.477226,-2.432088 -0.984754,-0.796825 -1.861375,-1.688327 -2.511276,-2.770949 z m 5.228118,-3.291749 c 0.189466,0.165851 0.320104,0.357813 0.380872,0.603684 0.149432,0.602252 -0.125834,1.329503 -0.456558,1.786877 -0.119512,0.165262 -0.239783,0.325974 -0.361402,0.482981 L 9.1925889,8.641938 l 0,-8.423e-4 C 8.7729471,8.2762068 8.7052684,7.8182426 8.8456828,7.4248835 l 0,-8.423e-4 C 8.9032476,7.2626545 8.9946939,7.1112071 9.110245,6.9805647 9.2263861,6.8490801 9.3674747,6.7379793 9.5239028,6.6576229 9.9190184,6.4545418 10.415273,6.4558895 10.852277,6.8382985 L 33.082503,26.293398 z"
   inkscape:connector-curvature="0"
   style="fill:#f8e73d;fill-rule:nonzero" /><path
   id="_162072320"
   class="fil2"
   d="m 12.391694,64.387566 -0.589892,0.516336 c -0.07906,2.336148 1.777093,2.674673 3.608379,1.981536 1.659688,4.768741 4.985722,8.452923 8.961742,11.44481 4.913155,3.697238 10.561251,6.292312 16.201763,8.654741 -6.379162,0.23551 -12.461397,-2.05069 -18.039961,-4.944784 C 19.39682,80.412861 16.374456,78.509492 13.748639,76.521723 12.274204,75.405493 10.923327,74.261635 9.7461553,73.124263 8.632617,72.048296 7.5638326,70.889108 6.6789523,69.614692 5.7271519,68.242231 5.2732072,66.531078 6.3909596,65.110352 l 8.43e-5,8.5e-5 9.271e-4,-0.0017 c 0.5340129,-0.692211 1.2694606,-1.405058 2.0611246,-1.931081 0.2985281,-0.19828 0.6147554,-0.376176 0.9421923,-0.523496 0.043658,-0.04869 0.091531,-0.09645 0.1442914,-0.142603 L 10.222688,61.9137 C 9.882187,61.364597 9.9643623,60.611656 10.481097,60.159588 l 0.581211,-0.508503 8.43e-4,-8.42e-4 0.005,-0.0042 c 0.507464,-0.439012 1.263139,-0.433958 1.767569,-0.01904 L 48.74882,28.19702 c -0.41863,-2.633821 1.805412,-4.676424 4.429206,-3.876229 L 73.515692,6.5219266 c 0.58829,-0.5147359 1.260442,-0.514399 1.797658,-0.2382896 0.201856,0.1036884 0.384496,0.2477235 0.535361,0.4184599 0.151455,0.1712417 0.271221,0.3693531 0.346738,0.5808573 l 2.52e-4,-8.42e-5 c 0.194861,0.5458172 0.105269,1.1776344 -0.467092,1.6752714 L 75.728187,8.957636 56.090318,26.143972 c 1.475278,1.044381 3.02582,2.072589 4.433672,3.20457 0.100549,0.08086 0.201014,0.157934 0.285633,0.256147 0.479398,0.555419 0.339321,1.358815 -0.117658,1.922068 -0.475943,0.591723 -1.327194,0.930417 -1.965717,0.333218 -0.314879,-0.294471 -0.649817,-0.599051 -1.002286,-0.912306 -0.280154,-0.248819 -0.558876,-0.491404 -0.835743,-0.728009 -0.54733,0.815609 -1.235748,1.538059 -1.98603,2.169034 0.704938,0.708888 1.42631,1.401689 2.145407,2.096258 0.585173,0.565359 0.300383,1.379452 -0.190309,1.878521 -0.498193,0.506144 -1.367228,0.853176 -1.963442,0.276783 -1.016107,-0.982218 -1.977938,-2.109567 -2.904116,-3.306995 -0.549015,-0.709984 -1.08581,-1.444647 -1.613754,-2.188323 L 15.002171,62.102883 c 0.337298,0.553061 0.240373,1.295305 -0.257904,1.737518 l -7.59e-4,8.42e-4 -0.0062,0.0051 -0.581296,0.508587 -8.43e-4,8.42e-4 -0.005,0.0042 c -0.504261,0.436317 -1.254206,0.434211 -1.758551,0.02704 z M 52.260022,29.496284 c 0.407843,0.503785 0.839368,0.988198 1.277552,1.46562 0.704432,-0.571424 1.352647,-1.221435 1.889442,-1.953571 -0.453945,-0.365394 -0.912441,-0.725566 -1.374308,-1.080937 l -1.792686,1.568888 z"
   inkscape:connector-curvature="0"
   style="fill:#000000;fill-rule:nonzero" /><path
   id="_162102288"
   class="fil3"
   d="m 9.0676825,63.293404 c -0.1303005,0.07387 -0.257904,0.152543 -0.3824733,0.235258 -0.7528099,0.500164 -1.4524376,1.178392 -1.9606601,1.837247 l -8.43e-5,-8.4e-5 -9.271e-4,0.0017 c -1.0047298,1.266666 -0.5423569,2.796555 0.3079677,4.018832 0.8692038,1.247125 1.914979,2.381549 3.0060986,3.435785 1.163939,1.124568 2.502005,2.257392 3.964557,3.364609 6.478699,4.904437 15.37588,9.290011 22.390278,10.236179 -6.67828,-1.858474 -11.938172,-4.253416 -16.235645,-6.957822 -4.771307,-3.0025 -8.34294,-6.396169 -11.3790428,-9.838356 -1.1657091,-1.321669 -2.017045,-2.896958 -0.8656639,-4.546034 0.3346009,-0.479275 0.740926,-0.872971 1.1520553,-1.277448 -0.029246,-0.168968 -0.030173,-0.340883 0.00354,-0.509598 z m 2.2703135,-3.325105 -0.580284,0.507745 c -0.395874,0.346358 -0.42335,0.951053 -0.09237,1.33363 l 0.0043,0.0051 -8.4e-5,8.4e-5 1.871405,2.136353 0.0054,0.0059 -8.4e-5,8.4e-5 c 0.340584,0.382409 0.94177,0.420903 1.329048,0.086 l 0.005,-0.0042 8.5e-5,8.5e-5 0.580368,-0.507829 0.0062,-0.0051 8.4e-5,8.4e-5 c 0.382642,-0.340378 0.421159,-0.941198 0.08605,-1.32824 l -0.0043,-0.0051 8.4e-5,-8.5e-5 -1.871405,-2.136268 -0.0054,-0.0059 8.4e-5,-8.4e-5 C 12.3316,59.668268 11.730162,59.629606 11.343053,59.964509 l -0.005,0.0042 -8.4e-5,-8.4e-5 z m -2.1289721,4.281212 c -0.3398264,0.33465 -0.6712245,0.671069 -0.9495248,1.067797 -1.0301831,1.4684 -0.1984006,2.860739 0.8343109,4.03273 3.010649,3.416917 6.555565,6.782201 11.286838,9.759516 4.659128,2.931914 10.46104,5.498434 17.999421,7.406436 -5.383703,-2.314416 -10.286154,-4.859542 -14.259982,-7.849829 -4.210071,-3.168098 -7.376896,-6.835265 -8.970254,-11.254532 -1.967065,0.63148 -3.685835,-0.104952 -3.768516,-2.195398 -0.440881,0.222707 -0.934101,0.151279 -1.355344,-0.09046 C 9.6766224,64.925213 9.3834884,64.614063 9.2090239,64.249511 z m 2.1809741,0.457206 0.710163,-0.621541 -1.614428,-1.843059 -0.6695391,0.585911 c -0.3824732,0.33465 -0.4196417,0.771304 -0.2653208,1.155734 0.1292891,0.322015 0.3837375,0.606043 0.6841199,0.778463 0.369072,0.211842 0.80911,0.247219 1.155005,-0.05551 z m 1.736132,-4.775395 1.614513,1.84306 L 50.132399,30.80077 C 49.661598,30.131891 49.090753,29.458969 48.854426,28.663154 L 13.12613,59.931322 z M 56.790198,29.585147 c 0.755507,0.640241 1.49913,1.292863 2.222441,1.969407 0.446107,0.417196 1.032375,0.103604 1.351805,-0.290598 0.390143,-0.48138 0.463468,-1.130043 -0.04172,-1.534689 -1.900061,-1.521887 -3.312718,-2.415157 -4.56018,-3.297899 l -1.387456,1.214191 c 0.546402,0.421239 1.08682,0.850228 1.622856,1.284523 -0.700723,1.005214 -1.544558,1.855863 -2.506051,2.602908 -0.770678,-0.836498 -1.527365,-1.681251 -2.194796,-2.603918 -0.638861,-0.883584 -0.884628,-2.186639 0.0084,-2.968808 l 1.491797,-1.305497 c -2.354258,-0.556683 -4.129244,1.464862 -3.581831,3.731772 0.215847,0.894366 0.901821,1.665501 1.422433,2.401175 0.551207,0.7788 1.111432,1.548167 1.68472,2.289484 0.914295,1.182099 1.862808,2.294033 2.862987,3.260837 0.413152,0.399255 1.04173,0.06755 1.372454,-0.268528 0.320272,-0.325722 0.599078,-0.894366 0.1984,-1.281323 -0.832288,-0.803901 -1.663986,-1.608813 -2.477226,-2.432088 0.984755,-0.796825 1.861375,-1.688327 2.511276,-2.770949 z M 51.56208,26.293398 c -0.189466,0.165851 -0.320104,0.357813 -0.380872,0.603684 -0.149432,0.602252 0.125834,1.329503 0.456558,1.786877 0.119512,0.165262 0.239783,0.325974 0.361402,0.482981 l 23.452826,-20.525002 0,-8.423e-4 C 75.871636,8.2762068 75.939315,7.8182426 75.7989,7.4248835 l 0,-8.423e-4 C 75.741335,7.2626545 75.649889,7.1112071 75.534338,6.9805647 75.418197,6.8490801 75.277108,6.7379793 75.12068,6.6576229 74.725565,6.4545418 74.22931,6.4558895 73.792306,6.8382985 L 51.56208,26.293398 z"
   inkscape:connector-curvature="0"
   style="fill:#f8e73d;fill-rule:nonzero" />
</svg>