<?xml version="1.0" encoding="UTF-8" standalone="no"?>
<!-- Creator: CorelDRAW -->

<svg
   xmlns:dc="http://purl.org/dc/elements/1.1/"
   xmlns:cc="http://creativecommons.org/ns#"
   xmlns:rdf="http://www.w3.org/1999/02/22-rdf-syntax-ns#"
   xmlns:svg="http://www.w3.org/2000/svg"
   xmlns="http://www.w3.org/2000/svg"
   xmlns:sodipodi="http://sodipodi.sourceforge.net/DTD/sodipodi-0.dtd"
   xmlns:inkscape="http://www.inkscape.org/namespaces/inkscape"
   xml:space="preserve"
   width="300"
   height="360"
   style="fill-rule:evenodd"
   viewBox="0 0 84.666668 101.6"
   id="svg2"
   version="1.1"
   inkscape:version="0.48.1 "
   sodipodi:docname="талачин.svg"><metadata
   id="metadata30"><rdf:RDF><cc:Work
       rdf:about=""><dc:format>image/svg+xml</dc:format><dc:type
         rdf:resource="http://purl.org/dc/dcmitype/StillImage" /></cc:Work></rdf:RDF></metadata><sodipodi:namedview
   pagecolor="#ffffff"
   bordercolor="#666666"
   borderopacity="1"
   objecttolerance="10"
   gridtolerance="10"
   guidetolerance="10"
   inkscape:pageopacity="0"
   inkscape:pageshadow="2"
   inkscape:window-width="640"
   inkscape:window-height="480"
   id="namedview28"
   showgrid="false"
   fit-margin-top="0"
   fit-margin-left="0"
   fit-margin-right="0"
   fit-margin-bottom="0"
   inkscape:zoom="0.725"
   inkscape:cx="150"
   inkscape:cy="180"
   inkscape:window-x="0"
   inkscape:window-y="0"
   inkscape:window-maximized="0"
   inkscape:current-layer="svg2" />
 <defs
   id="defs4"><style
     type="text/css"
     id="style6">
   
    .fil0 {fill:black}
    .fil1 {fill:#DF242E}
    .fil2 {fill:black;fill-rule:nonzero}
    .fil5 {fill:#F4E855;fill-rule:nonzero}
    .fil3 {fill:#F8E73D;fill-rule:nonzero}
    .fil4 {fill:white;fill-rule:nonzero}
   
  </style></defs>
 <path
   id="path3013"
   d="m 62.583289,48.550331 c 0.828322,0 1.500011,0.671689 1.500011,1.500012 l 0,1.499658 c 0,0.828322 -0.671689,1.500011 -1.500011,1.500011 l -1.500011,0 0,-4.499681 1.500011,0 z m 0,5.999692 c 1.656645,0 3.000022,-1.343378 3.000022,-3.000022 l 0,-1.499658 c 0,-1.656645 -1.343377,-3.000023 -3.000022,-3.000023 l -3.000022,0 0,7.499703 3.000022,0 z m -6.000044,-7.499703 1.500011,0 0,7.499703 -1.500011,0 0,-7.499703 z m -3.000022,0 1.500011,0 0,7.499703 -1.500011,0 -3.000022,-4.708525 0,4.708525 -1.500011,0 0,-7.499703 1.500011,0 3.000022,4.708525 0,-4.708525 z m -22.499884,0 4.499998,0 0,1.500011 -2.999987,0 0,1.500012 2.999987,0 0,1.500011 -2.999987,0 0,1.499658 2.999987,0 0,1.500011 -4.499998,0 0,-7.499703 z m -5.999974,-3.52e-4 1.499976,0 0,6.000044 3.000022,0 0,1.500011 -4.499998,0 0,-7.500055 z m 15.750399,6.000044 1.499587,0 c 1.242272,0 2.250158,-1.007533 2.250158,-2.250017 0,-1.24213 -1.026583,-2.24543 -2.250158,-2.250016 l -1.499587,0 0,1.500011 1.499587,0 c 0.414091,0 0.750147,0.336197 0.750147,0.750005 0,0.414161 -0.336056,0.750006 -0.750147,0.750006 l -1.499587,0 0,1.500011 z m 1.499587,-7.500055 c 2.898916,0 5.249827,2.351263 5.249827,5.250038 0,2.899128 -2.350911,5.250039 -5.249827,5.250039 -2.899022,0 -5.250003,-2.350911 -5.250003,-5.250039 0,-2.898775 2.350981,-5.250038 5.250003,-5.250038 z m 0,1.500011 c 2.070594,0 3.750169,1.679575 3.750169,3.750027 0,2.070806 -1.679575,3.750028 -3.750169,3.750028 -2.070699,0 -3.749992,-1.679222 -3.749992,-3.750028 0,-2.070452 1.679293,-3.750027 3.749992,-3.750027 z"
   style="fill:#a90000;stroke:none"
   inkscape:connector-curvature="0" /><path
   style="fill:#000000"
   inkscape:connector-curvature="0"
   id="path10"
   d="M -2.6528001e-7,66.755337 C 0.09941444,67.605069 0.22644827,68.447252 0.38434222,69.27984 3.8660412,87.637625 21.325477,101.6 42.333334,101.6 c 21.007364,0 38.466517,-13.96181 41.94878,-32.31896 0.158035,-0.832941 0.285069,-1.675547 0.384554,-2.525703 l 0,-66.755338020276 -84.66666826527999,0 0,66.755338020276 z"
   class="fil0" /><path
   style="fill:#df242e"
   inkscape:connector-curvature="0"
   id="path12"
   d="m 81.601087,76.468275 c 1.301762,-3.079044 2.183742,-6.349144 2.583867,-9.751601 l 0,-66.23734254 -83.70281758,0 0,66.23741354 c 0.40012483,3.402809 1.28231588,6.673333 2.58435968,9.752659 6.0972007,14.419625 21.3809269,24.647176 39.2670489,24.647176 17.886616,0 33.170694,-10.228045 39.267542,-24.648305 z"
   class="fil1" /><path
   id="_158829624"
   class="fil2"
   d="m 38.933787,24.191897 c -4.93e-4,-0.777134 0.218417,-1.428755 0.580284,-1.980827 -0.397096,-0.525545 -0.579931,-1.221473 -0.580284,-1.868508 -4.93e-4,-0.767821 0.213203,-1.413022 0.56732,-1.960861 -0.388148,-0.523427 -0.566967,-1.211242 -0.56732,-1.851152 -4.93e-4,-0.766268 0.212358,-1.410411 0.565206,-1.957615 -0.386668,-0.523145 -0.564853,-1.209478 -0.565206,-1.848259 -2.81e-4,-0.423949 0.06461,-0.810364 0.182554,-1.163831 -0.331077,-0.555953 -0.521381,-1.20581 -0.521381,-1.9000449 0,-1.5477063 0.945532,-2.8743722 2.289568,-3.4327938 l 0,-0.3028106 c 0,-0.7987228 0.636156,-1.4463226 1.420693,-1.4463226 0.784538,0 1.420694,0.6475998 1.420694,1.4463226 l 0,0.3028811 c 1.343965,0.5584922 2.289568,1.8850876 2.289568,3.4327233 0,0.9730579 -0.374127,1.8588419 -0.985622,2.5212579 0.335938,0.418799 0.524129,0.959159 0.524129,1.507985 0,0.877318 -0.403225,1.478918 -0.962019,1.92749 0.606705,0.428535 0.962019,1.167217 0.962019,1.921845 0,0.860315 -0.387795,1.455494 -0.92975,1.901244 0.586977,0.43171 0.92975,1.157481 0.92975,1.898634 0,0.865677 -0.392657,1.463043 -0.939966,1.90971 0.593247,0.430792 0.939966,1.160586 0.939966,1.906041 0,0.336958 -0.05954,0.61952 -0.164517,0.882046 l 0.67695,0 7.694248,-1.091657 0,7.264773 -7.489289,-1.155294 -0.589865,47.270056 c -0.01663,1.310862 -0.107236,2.61474 -0.252377,3.9177 -0.369969,3.320757 -1.100889,7.020944 -1.864713,9.552926 l -2.81e-4,-7.1e-5 -0.03347,0.11239 -2.82e-4,-7e-5 c -0.184879,0.624105 -0.501372,1.69128 -1.225316,1.857007 -0.723945,-0.165727 -1.040438,-1.232902 -1.225317,-1.857007 l -2.82e-4,7e-5 -0.03347,-0.11239 -2.81e-4,7.1e-5 C 40.28191,89.263574 39.55099,85.563387 39.181021,82.24263 39.03588,80.93967 38.945272,79.635792 38.928644,78.32493 l -0.589865,-47.270056 -7.489289,1.155294 0,-7.264773 7.694248,1.091657 0.953141,0 C 39.111691,25.514259 38.93414,24.829478 38.933787,24.191897 z"
   inkscape:connector-curvature="0"
   style="fill:#000000;fill-rule:nonzero" /><path
   id="_158829600"
   class="fil3"
   d="m 38.27572,26.620801 -6.929015,-1.094901 0,6.104116 6.929015,-1.068797 0,-3.940418 z m 8.059144,0 6.929015,-1.094901 0,6.104116 -6.929015,-1.068797 0,-3.940418 z m -4.029713,5.933874 3.532287,-1.926925 0,-3.970755 -7.064574,0 0,3.970755 3.532287,1.926925 z M 39.828238,21.795234 c 0.07863,-0.09129 0.161346,-0.179697 0.247656,-0.264994 1.030151,-1.018352 2.2945,-1.358485 3.509318,-2.008343 0.788131,-0.42155 1.471704,-1.003042 1.471704,-1.98252 0,-0.654726 -0.332274,-1.302396 -0.907344,-1.61332 -0.118931,0.07281 -0.241244,0.140964 -0.365389,0.20566 -1.161271,0.604916 -2.387997,0.941521 -3.360654,1.903078 -0.595291,0.588548 -0.99295,1.335697 -0.993513,2.307767 -2.12e-4,0.490197 0.12337,1.028653 0.398222,1.452672 z m 4.363186,-2.045735 c -0.132037,0.08262 -0.268512,0.159237 -0.407241,0.231553 -1.161271,0.604915 -2.387997,0.941521 -3.360654,1.903078 -0.595291,0.588548 -0.99295,1.335697 -0.993513,2.307767 -2.12e-4,0.479332 0.117944,1.004524 0.380185,1.423957 0.08391,-0.09877 0.172831,-0.193878 0.265693,-0.285737 1.030151,-1.018352 2.2945,-1.358485 3.509318,-2.008342 0.788131,-0.42155 1.471704,-1.003043 1.471704,-1.98252 0,-0.63864 -0.316281,-1.270507 -0.865492,-1.589756 z m 0.569785,6.411654 c 0.184385,-0.281151 0.295707,-0.611195 0.295707,-1.006147 0,-0.643719 -0.321283,-1.280665 -0.878597,-1.597375 -0.128021,0.07951 -0.259986,0.153381 -0.394136,0.223298 -1.161271,0.604916 -2.387997,0.941521 -3.360654,1.903079 -0.150356,0.148653 -0.28824,0.307255 -0.410201,0.477145 l 4.747881,0 z m -1.523138,-20.0970408 0,-0.1389175 c 0,-0.5244154 -0.417739,-0.9496342 -0.932779,-0.9496342 -0.51504,0 -0.932779,0.4252188 -0.932779,0.9496342 l 0,0.1389881 c 0.298103,-0.077325 0.610579,-0.118669 0.932779,-0.118669 0.322129,0 0.634746,0.041273 0.932779,0.1185984 z m -0.932779,0.3784427 c 1.774739,0 3.213892,1.4411018 3.213892,3.2182442 0,1.7771429 -1.439153,3.2182439 -3.213892,3.2182439 -1.774739,0 -3.213892,-1.441101 -3.213892,-3.2182439 0,-1.7771424 1.439153,-3.2182442 3.213892,-3.2182442 z m -2.813345,5.6405171 c -0.04044,0.202344 -0.06179,0.415765 -0.06193,0.641603 -2.12e-4,0.480673 0.118719,1.007628 0.382369,1.427697 0.08335,-0.09793 0.171422,-0.192397 0.263509,-0.28348 0.293171,-0.289829 0.605225,-0.524415 0.92975,-0.727182 -0.590641,-0.221182 -1.109838,-0.58876 -1.513697,-1.058638 z m 5.177034,0.441375 c -0.641863,0.531965 -1.465504,0.851637 -2.363689,0.851637 -0.215598,0 -0.426969,-0.01848 -0.632562,-0.05383 -0.442892,0.239596 -0.865704,0.521382 -1.249201,0.90053 -0.595291,0.588547 -0.99295,1.335696 -0.993513,2.307766 -2.12e-4,0.482014 0.119354,1.010592 0.384624,1.431225 0.08265,-0.09694 0.169942,-0.190633 0.261254,-0.280869 1.030151,-1.018352 2.2945,-1.358485 3.509318,-2.008342 0.788131,-0.421551 1.471704,-1.003043 1.471704,-1.982521 0,-0.420633 -0.137391,-0.838161 -0.387935,-1.165595 z"
   inkscape:connector-curvature="0"
   style="fill:#f8e73d;fill-rule:nonzero" /><polygon
   id="_158829744"
   class="fil2"
   points="148.46,79.2402 152.573,76.9993 152.573,72.8021 144.346,72.8021 144.346,76.9993 "
   style="fill:#000000;fill-rule:nonzero"
   transform="matrix(0.70456917,0,0,0.70552323,-62.295188,-24.071607)" /><polygon
   id="_158829528"
   class="fil3"
   points="148.46,78.4396 151.868,76.5831 151.868,73.5049 145.052,73.5049 145.052,76.5831 "
   style="fill:#f8e73d;fill-rule:nonzero"
   transform="matrix(0.70456917,0,0,0.70552323,-62.295188,-24.071607)" /><path
   id="_158830176"
   class="fil4"
   d="m 42.552455,32.984409 3.221149,-1.757176 -0.587329,47.068206 c -0.01642,1.302326 -0.10639,2.59816 -0.250685,3.892725 -0.366517,3.289714 -1.090533,6.955189 -1.84724,9.463465 l 0,7.06e-4 -0.03375,0.113307 0,7.05e-4 c -0.105262,0.355443 -0.264284,0.891782 -0.502146,1.223942 l 0,-60.006444 z m -0.495171,60.006868 c -0.238004,-0.33209 -0.397096,-0.868782 -0.502429,-1.224365 l 0,-7.06e-4 -0.03375,-0.113307 0,-7.05e-4 c -0.756707,-2.508277 -1.480722,-6.173752 -1.847239,-9.463466 -0.144296,-1.294564 -0.234269,-2.590399 -0.250686,-3.892724 l -0.587329,-47.068206 3.221432,1.757317 0,60.006726 z"
   inkscape:connector-curvature="0"
   style="fill:#ffffff;fill-rule:nonzero" /><path
   id="_158529312"
   class="fil2"
   d="m 20.436733,43.689948 c 3.233198,0 6.10016,1.91345 7.85813,4.850261 0.712813,1.190994 1.216157,2.504537 1.509892,3.860482 l 2.12e-4,-7.1e-5 0.179312,0.837739 c 0.680192,-1.840146 1.128227,-3.533331 1.128509,-5.515217 l 7.04e-4,0 0,-0.0021 0,-0.0014 -7.04e-4,0 c -4.93e-4,-5.993702 -4.234743,-12.158564 -10.676055,-12.158564 -6.441312,0 -10.6755615,6.164862 -10.6760547,12.158564 l -7.046e-4,0 0,0.0014 0,0.0021 7.046e-4,0 c 2.818e-4,1.981886 0.4483177,3.675071 1.1285087,5.515217 l 0.179313,-0.837739 2.11e-4,7.1e-5 c 0.293735,-1.355945 0.797079,-2.669488 1.509892,-3.860482 1.75797,-2.936811 4.624933,-4.850261 7.85813,-4.850261 z"
   inkscape:connector-curvature="0"
   style="fill:#000000;fill-rule:nonzero" /><path
   id="_158529000"
   class="fil5"
   d="m 20.436733,43.192131 c -3.415751,0 -6.437367,2.00933 -8.283408,5.093384 -0.593107,0.991119 -1.047906,2.063655 -1.362003,3.174925 -0.358203,-1.211031 -0.535402,-2.47434 -0.535473,-3.737298 l 7.05e-4,0 0,-0.0021 0,-0.0014 -7.05e-4,0 c 3.53e-4,-5.718054 4.016115,-11.662581 10.180884,-11.662723 6.164769,1.42e-4 10.180531,5.944669 10.180884,11.662723 l -7.05e-4,0 0,0.0014 0,0.0021 7.05e-4,0 c -7.1e-5,1.262958 -0.17727,2.526267 -0.535473,3.737298 -0.314097,-1.11127 -0.768896,-2.183806 -1.362003,-3.174925 -1.846041,-3.084054 -4.867657,-5.093384 -8.283408,-5.093384 z"
   inkscape:connector-curvature="0"
   style="fill:#f4e855;fill-rule:nonzero" /><path
   id="_158529744"
   class="fil2"
   d="m 64.173569,43.689948 c -3.233198,0 -6.10016,1.91345 -7.858131,4.850261 -0.712812,1.190994 -1.216156,2.504537 -1.509891,3.860482 l -2.12e-4,-7.1e-5 -0.179312,0.837739 c -0.680192,-1.840146 -1.128227,-3.533331 -1.128509,-5.515217 l -7.04e-4,0 0,-0.0021 0,-0.0014 7.04e-4,0 c 4.93e-4,-5.993702 4.234743,-12.158564 10.676055,-12.158564 6.441312,0 10.675561,6.164862 10.676055,12.158564 l 7.04e-4,0 0,0.0014 0,0.0021 -7.04e-4,0 c -2.82e-4,1.981886 -0.448318,3.675071 -1.128509,5.515217 l -0.179313,-0.837739 -2.11e-4,7.1e-5 c -0.293735,-1.355945 -0.797079,-2.669488 -1.509892,-3.860482 -1.75797,-2.936811 -4.624933,-4.850261 -7.85813,-4.850261 z"
   inkscape:connector-curvature="0"
   style="fill:#000000;fill-rule:nonzero" /><path
   id="_158529096"
   class="fil5"
   d="m 64.173569,43.192131 c 3.415751,0 6.437367,2.00933 8.283408,5.093384 0.593107,0.991119 1.047906,2.063655 1.362003,3.174925 0.358203,-1.211031 0.535402,-2.47434 0.535472,-3.737298 l -7.04e-4,0 0,-0.0021 0,-0.0014 7.04e-4,0 C 74.3541,42.001561 70.338338,36.057034 64.173569,36.056892 58.0088,36.057034 53.993038,42.001561 53.992685,47.719615 l 7.05e-4,0 0,0.0014 0,0.0021 -7.05e-4,0 c 7.1e-5,1.262958 0.17727,2.526267 0.535473,3.737298 0.314097,-1.11127 0.768896,-2.183806 1.362003,-3.174925 1.846041,-3.084054 4.867657,-5.093384 8.283408,-5.093384 z"
   inkscape:connector-curvature="0"
   style="fill:#f4e855;fill-rule:nonzero" /><path
   id="_158529384"
   class="fil2"
   d="m 20.436733,72.666211 c 3.233198,0 6.10016,-1.91345 7.85813,-4.850261 0.712813,-1.190994 1.216157,-2.504537 1.509892,-3.860482 l 2.12e-4,7.1e-5 0.179312,-0.837739 c 0.680192,1.840146 1.128227,3.533331 1.128509,5.515217 l 7.04e-4,0 0,0.0021 0,0.0014 -7.04e-4,0 c -4.93e-4,5.993702 -4.234743,12.158564 -10.676055,12.158564 -6.441312,0 -10.6755615,-6.164862 -10.6760547,-12.158564 l -7.046e-4,0 0,-0.0014 0,-0.0021 7.046e-4,0 C 9.7609601,66.651131 10.208996,64.957946 10.889187,63.1178 l 0.179313,0.837739 2.11e-4,-7.1e-5 c 0.293735,1.355945 0.797079,2.669488 1.509892,3.860482 1.75797,2.936811 4.624933,4.850261 7.85813,4.850261 z"
   inkscape:connector-curvature="0"
   style="fill:#000000;fill-rule:nonzero" /><path
   id="_158529624"
   class="fil5"
   d="m 20.436733,73.163605 c -3.415751,0 -6.437367,-2.009331 -8.283408,-5.093384 -0.593107,-0.991119 -1.047906,-2.063656 -1.362003,-3.174925 -0.358203,1.21103 -0.535402,2.47434 -0.535473,3.737297 l 7.05e-4,0 0,0.0021 0,0.0014 -7.05e-4,0 c 3.53e-4,5.718054 4.016115,11.662581 10.180884,11.662722 6.164769,-1.41e-4 10.180531,-5.944668 10.180884,-11.662722 l -7.05e-4,0 0,-0.0014 0,-0.0021 7.05e-4,0 c -7.1e-5,-1.262957 -0.17727,-2.526267 -0.535473,-3.737297 -0.314097,1.111269 -0.768896,2.183806 -1.362003,3.174925 -1.846041,3.084053 -4.867657,5.093384 -8.283408,5.093384 z"
   inkscape:connector-curvature="0"
   style="fill:#f4e855;fill-rule:nonzero" /><path
   id="_158528976"
   class="fil2"
   d="m 64.173569,72.666211 c -3.233198,0 -6.10016,-1.91345 -7.858131,-4.850261 -0.712812,-1.190994 -1.216156,-2.504537 -1.509891,-3.860482 l -2.12e-4,7.1e-5 -0.179312,-0.837739 c -0.680192,1.840146 -1.128227,3.533331 -1.128509,5.515217 l -7.04e-4,0 0,0.0021 0,0.0014 7.04e-4,0 c 4.93e-4,5.993702 4.234743,12.158564 10.676055,12.158564 6.441312,0 10.675561,-6.164862 10.676055,-12.158564 l 7.04e-4,0 0,-0.0014 0,-0.0021 -7.04e-4,0 C 74.849342,66.651131 74.401306,64.957946 73.721115,63.1178 l -0.179313,0.837739 -2.11e-4,-7.1e-5 c -0.293735,1.355945 -0.797079,2.669488 -1.509892,3.860482 -1.75797,2.936811 -4.624933,4.850261 -7.85813,4.850261 z"
   inkscape:connector-curvature="0"
   style="fill:#000000;fill-rule:nonzero" /><path
   id="_158528904"
   class="fil5"
   d="m 64.173569,73.163605 c 3.415751,0 6.437367,-2.009331 8.283408,-5.093384 0.593107,-0.991119 1.047906,-2.063656 1.362003,-3.174925 0.358203,1.21103 0.535402,2.47434 0.535472,3.737297 l -7.04e-4,0 0,0.0021 0,0.0014 7.04e-4,0 C 74.3541,74.354175 70.338338,80.298702 64.173569,80.298843 58.0088,80.298702 53.993038,74.354175 53.992685,68.636121 l 7.05e-4,0 0,-0.0014 0,-0.0021 -7.05e-4,0 c 7.1e-5,-1.262957 0.17727,-2.526267 0.535473,-3.737297 0.314097,1.111269 0.768896,2.183806 1.362003,3.174925 1.846041,3.084053 4.867657,5.093384 8.283408,5.093384 z"
   inkscape:connector-curvature="0"
   style="fill:#f4e855;fill-rule:nonzero" />
</svg>