<?xml version="1.0" encoding="UTF-8" standalone="no"?>
<!-- Creator: CorelDRAW -->

<svg
   xmlns:dc="http://purl.org/dc/elements/1.1/"
   xmlns:cc="http://creativecommons.org/ns#"
   xmlns:rdf="http://www.w3.org/1999/02/22-rdf-syntax-ns#"
   xmlns:svg="http://www.w3.org/2000/svg"
   xmlns="http://www.w3.org/2000/svg"
   xmlns:xlink="http://www.w3.org/1999/xlink"
   xmlns:sodipodi="http://sodipodi.sourceforge.net/DTD/sodipodi-0.dtd"
   xmlns:inkscape="http://www.inkscape.org/namespaces/inkscape"
   xml:space="preserve"
   width="300.05191"
   height="360"
   style="fill-rule:evenodd"
   viewBox="0 0 84.681318 101.6"
   id="svg2"
   version="1.1"
   inkscape:version="0.48.1 "
   sodipodi:docname="иваново.svg"><metadata
   id="metadata95"><rdf:RDF><cc:Work
       rdf:about=""><dc:format>image/svg+xml</dc:format><dc:type
         rdf:resource="http://purl.org/dc/dcmitype/StillImage" /></cc:Work></rdf:RDF></metadata><sodipodi:namedview
   pagecolor="#ffffff"
   bordercolor="#666666"
   borderopacity="1"
   objecttolerance="10"
   gridtolerance="10"
   guidetolerance="10"
   inkscape:pageopacity="0"
   inkscape:pageshadow="2"
   inkscape:window-width="640"
   inkscape:window-height="480"
   id="namedview93"
   showgrid="false"
   fit-margin-top="0"
   fit-margin-left="0"
   fit-margin-right="0"
   fit-margin-bottom="0"
   inkscape:zoom="0.72500001"
   inkscape:cx="150.02595"
   inkscape:cy="180"
   inkscape:window-x="0"
   inkscape:window-y="0"
   inkscape:window-maximized="0"
   inkscape:current-layer="svg2" />
 <defs
   id="defs4"><style
     type="text/css"
     id="style6">
   
    .fil11 {fill:black}
    .fil0 {fill:black;fill-rule:nonzero}
    .fil1 {fill:#00CCFF;fill-rule:nonzero}
    .fil6 {fill:lime;fill-rule:nonzero}
    .fil2 {fill:#FF99CC;fill-rule:nonzero}
    .fil3 {fill:yellow;fill-rule:nonzero}
    .fil4 {fill:white;fill-rule:nonzero}
    .fil10 {fill:url(#id0);fill-rule:nonzero}
    .fil9 {fill:url(#id1);fill-rule:nonzero}
    .fil5 {fill:url(#id2);fill-rule:nonzero}
    .fil8 {fill:url(#id3);fill-rule:nonzero}
    .fil7 {fill:url(#id4);fill-rule:nonzero}
   
  </style><linearGradient
     id="id0"
     gradientUnits="userSpaceOnUse"
     x1="77.368698"
     y1="174.08099"
     x2="132.631"
     y2="173.483">
   <stop
   offset="0"
   style="stop-color:#FFCF00"
   id="stop9" />
   <stop
   offset="0.501961"
   style="stop-color:yellow"
   id="stop11" />
   <stop
   offset="1"
   style="stop-color:#FFCF00"
   id="stop13" />
  </linearGradient><linearGradient
     id="id1"
     gradientUnits="userSpaceOnUse"
     x1="105"
     y1="196.263"
     x2="105"
     y2="154.564">
   <stop
   offset="0"
   style="stop-color:#FFCF00"
   id="stop16" />
   <stop
   offset="1"
   style="stop-color:#FFE600"
   id="stop18" />
  </linearGradient><linearGradient
     id="id2"
     gradientUnits="userSpaceOnUse"
     x1="105"
     y1="178.158"
     x2="105"
     y2="165.61099">
   <stop
   offset="0"
   style="stop-color:#B8B8B8"
   id="stop21" />
   <stop
   offset="1"
   style="stop-color:white"
   id="stop23" />
  </linearGradient><linearGradient
     id="id3"
     gradientUnits="userSpaceOnUse"
     x1="104.928"
     y1="167.418"
     x2="105.072"
     y2="179.146">
   <stop
   offset="0"
   style="stop-color:#BABABA"
   id="stop26" />
   <stop
   offset="1"
   style="stop-color:white"
   id="stop28" />
  </linearGradient><radialGradient
     id="id4"
     gradientUnits="userSpaceOnUse"
     cx="105.547"
     cy="101.885"
     r="2.1856"
     fx="105.547"
     fy="101.885">
   <stop
   offset="0"
   style="stop-color:white"
   id="stop31" />
   <stop
   offset="0.301961"
   style="stop-color:white"
   id="stop33" />
   <stop
   offset="1"
   style="stop-color:#CCCCCC"
   id="stop35" />
  </radialGradient><linearGradient
     inkscape:collect="always"
     xlink:href="#id0"
     id="linearGradient3088"
     gradientUnits="userSpaceOnUse"
     x1="77.368698"
     y1="174.08099"
     x2="132.631"
     y2="173.483"
     gradientTransform="matrix(0.8429206,0,0,0.8429206,-46.166004,-74.311627)" /><linearGradient
     inkscape:collect="always"
     xlink:href="#id1"
     id="linearGradient3091"
     gradientUnits="userSpaceOnUse"
     x1="105"
     y1="196.263"
     x2="105"
     y2="154.564"
     gradientTransform="matrix(0.8429206,0,0,0.8429206,-46.166004,-74.311627)" /><linearGradient
     inkscape:collect="always"
     xlink:href="#id3"
     id="linearGradient3094"
     gradientUnits="userSpaceOnUse"
     x1="104.928"
     y1="159.76115"
     x2="105.072"
     y2="179.146"
     gradientTransform="matrix(0.8429206,0,0,0.8429206,-46.166004,-74.311627)" /><radialGradient
     inkscape:collect="always"
     xlink:href="#id4"
     id="radialGradient3098"
     gradientUnits="userSpaceOnUse"
     cx="105.547"
     cy="101.885"
     fx="105.547"
     fy="101.885"
     r="2.1856"
     gradientTransform="matrix(0.8429206,0,0,0.8429206,-46.166004,-74.311627)" /><linearGradient
     inkscape:collect="always"
     xlink:href="#id2"
     id="linearGradient3109"
     gradientUnits="userSpaceOnUse"
     x1="105"
     y1="178.158"
     x2="105"
     y2="165.61099"
     gradientTransform="matrix(0.8429206,0,0,0.8429206,-46.166004,-74.311627)" /><radialGradient
     inkscape:collect="always"
     xlink:href="#id4"
     id="radialGradient3894"
     cx="42.613758"
     cy="67.629814"
     fx="42.613758"
     fy="67.629814"
     r="0.97893023"
     gradientTransform="matrix(1.1609767,-0.00432297,0.00464817,1.2483119,-7.2054771,-16.650988)"
     gradientUnits="userSpaceOnUse" /><linearGradient
     inkscape:collect="always"
     xlink:href="#id3"
     id="linearGradient3902"
     x1="104.72907"
     y1="124.61909"
     x2="104.85709"
     y2="115.45925"
     gradientUnits="userSpaceOnUse" /><linearGradient
     inkscape:collect="always"
     xlink:href="#id2"
     id="linearGradient3910"
     x1="42.017204"
     y1="41.864388"
     x2="42.19849"
     y2="34.189953"
     gradientUnits="userSpaceOnUse" /><linearGradient
     inkscape:collect="always"
     xlink:href="#id2"
     id="linearGradient3918"
     x1="105.07068"
     y1="176.88538"
     x2="105.00656"
     y2="172.97693"
     gradientUnits="userSpaceOnUse" /><linearGradient
     inkscape:collect="always"
     xlink:href="#id2"
     id="linearGradient3926"
     x1="105.17083"
     y1="157.47961"
     x2="105.0847"
     y2="141.91071"
     gradientUnits="userSpaceOnUse" /><linearGradient
     inkscape:collect="always"
     xlink:href="#id3"
     id="linearGradient3937"
     x1="104.99271"
     y1="108.81898"
     x2="104.80562"
     y2="121.19394"
     gradientUnits="userSpaceOnUse" /><linearGradient
     inkscape:collect="always"
     xlink:href="#id3"
     id="linearGradient3945"
     x1="105.20554"
     y1="141.46507"
     x2="105.30521"
     y2="153.71602"
     gradientUnits="userSpaceOnUse" /><linearGradient
     inkscape:collect="always"
     xlink:href="#id2"
     id="linearGradient3953"
     x1="112.72068"
     y1="125.37148"
     x2="101.4846"
     y2="125.37148"
     gradientUnits="userSpaceOnUse" /><linearGradient
     inkscape:collect="always"
     xlink:href="#id2"
     id="linearGradient3961"
     x1="113.82134"
     y1="138.52399"
     x2="101.82664"
     y2="138.36777"
     gradientUnits="userSpaceOnUse" /><linearGradient
     inkscape:collect="always"
     xlink:href="#id3"
     id="linearGradient3969"
     x1="104.94948"
     y1="126.28912"
     x2="104.85249"
     y2="135.10146"
     gradientUnits="userSpaceOnUse" /><linearGradient
     inkscape:collect="always"
     xlink:href="#id3"
     id="linearGradient3977"
     x1="42.791935"
     y1="54.070744"
     x2="42.744968"
     y2="55.896339"
     gradientUnits="userSpaceOnUse" /><linearGradient
     inkscape:collect="always"
     xlink:href="#id2"
     id="linearGradient3987"
     x1="44.072113"
     y1="13.113358"
     x2="42.089336"
     y2="13.113358"
     gradientUnits="userSpaceOnUse" /><linearGradient
     inkscape:collect="always"
     xlink:href="#id2"
     id="linearGradient3995"
     x1="44.035427"
     y1="68.098778"
     x2="42.280853"
     y2="68.082741"
     gradientUnits="userSpaceOnUse" /></defs>
 <path
   id="path4003"
   d="m 62.590615,48.550331 c 0.828322,0 1.500011,0.671689 1.500011,1.500012 l 0,1.499658 c 0,0.828322 -0.671689,1.500011 -1.500011,1.500011 l -1.500011,0 0,-4.499681 1.500011,0 z m 0,5.999692 c 1.656644,0 3.000022,-1.343378 3.000022,-3.000022 l 0,-1.499658 c 0,-1.656645 -1.343378,-3.000023 -3.000022,-3.000023 l -3.000023,0 0,7.499703 3.000023,0 z m -6.000045,-7.499703 1.500011,0 0,7.499703 -1.500011,0 0,-7.499703 z m -3.000022,0 1.500011,0 0,7.499703 -1.500011,0 -3.000022,-4.708525 0,4.708525 -1.500011,0 0,-7.499703 1.500011,0 3.000022,4.708525 0,-4.708525 z m -22.499884,0 4.499998,0 0,1.500011 -2.999987,0 0,1.500012 2.999987,0 0,1.500011 -2.999987,0 0,1.499658 2.999987,0 0,1.500011 -4.499998,0 0,-7.499703 z m -5.999974,-3.52e-4 1.499976,0 0,6.000044 3.000022,0 0,1.500011 -4.499998,0 0,-7.500055 z m 15.750399,6.000044 1.499588,0 c 1.242271,0 2.250157,-1.007533 2.250157,-2.250017 0,-1.24213 -1.026583,-2.24543 -2.250157,-2.250016 l -1.499588,0 0,1.500011 1.499588,0 c 0.41409,0 0.750146,0.336197 0.750146,0.750005 0,0.414161 -0.336056,0.750006 -0.750146,0.750006 l -1.499588,0 0,1.500011 z m 1.499588,-7.500055 c 2.898916,0 5.249827,2.351263 5.249827,5.250038 0,2.899128 -2.350911,5.250039 -5.249827,5.250039 -2.899022,0 -5.250004,-2.350911 -5.250004,-5.250039 0,-2.898775 2.350982,-5.250038 5.250004,-5.250038 z m 0,1.500011 c 2.070594,0 3.750169,1.679575 3.750169,3.750027 0,2.070806 -1.679575,3.750028 -3.750169,3.750028 -2.0707,0 -3.749993,-1.679222 -3.749993,-3.750028 0,-2.070452 1.679293,-3.750027 3.749993,-3.750027 z"
   style="fill:#a90000;stroke:none"
   inkscape:connector-curvature="0" /><path
   style="fill:#000000;fill-rule:nonzero"
   inkscape:connector-curvature="0"
   id="path39"
   d="M 7.57262e-4,2.1982e-7 8.4155406e-4,51.108889 l -8.429206e-4,0 c 0,17.07774 10.79486236654,32.706415 25.03052736654,42.345381 5.2943,3.584688 11.147793,6.413951 17.309964,8.14573 6.162424,-1.731779 12.015834,-4.560957 17.310302,-8.14573 14.235665,-9.638966 25.030527,-25.267641 25.030527,-42.345381 l -8.43e-4,0 8.5e-5,-51.10888878018 -84.679803738,0 z"
   class="fil0" /><path
   style="fill:#1eb1dd;fill-opacity:1;fill-rule:nonzero"
   inkscape:connector-curvature="0"
   id="path41"
   d="m 84.235499,0.45543022 -8.5e-5,50.66214078 -8.43e-4,0 c 0,16.919946 -10.709812,32.414175 -24.833283,41.977193 C 54.179985,96.630058 48.413565,99.422822 42.34049,101.14457 36.267585,99.422569 30.501249,96.630058 25.28003,93.094764 11.156559,83.531746 0.44674655,68.037517 0.44674655,51.117571 l -8.4292e-4,0 -8.429e-5,-50.66214078 83.78967966,0 z"
   class="fil1" /><path
   style="fill:#000000;fill-rule:nonzero"
   inkscape:connector-curvature="0"
   id="path43"
   d="m 50.060969,93.149723 c 1.575756,-0.52455 3.07902,-1.204618 4.490996,-2.021577 7.266145,-4.203898 12.153483,-12.043902 12.153483,-21.018984 l 0,-0.0017 -6.75e-4,0 c -1.68e-4,-2.311879 -0.324271,-4.547388 -0.929235,-6.663456 -0.584397,-2.044588 -1.442996,-4.011459 -2.541828,-5.832336 l 2.611959,-2.193533 -2.572931,-3.179665 -1.166602,0.356893 -6.102156,3.535546 c 1.376321,1.609304 2.496816,3.4231 3.246088,5.405228 0.730222,1.93189 1.129682,4.022249 1.129766,6.203559 l -6.74e-4,0 0,0.0017 c 0,4.587763 -1.76339,8.770167 -4.657474,11.924882 l 0,-23.298916 -6.607401,-2.162513 0,-9.992739 0.73216,-1.101697 -2.12534,-1.290512 0,-8.913632 0.780376,-0.844607 -1.015972,-1.292618 -3.654314,-13.079178 0,-1.415769 -0.58937,0 0,-1.854594 0.630252,0 0,-0.766974 c 0.520925,-1.159774 0.04055,-1.829812 -0.481645,-2.557505 -0.322333,-0.449192 -0.662535,-0.922745 -0.747586,-1.55443 0.16673,-0.1019934 0.27808,-0.2860029 0.27808,-0.4958059 0,-0.221098 -0.124078,-0.4133682 -0.306402,-0.5112313 l 0,-1.2072309 0.480802,0.3289919 0.308172,-0.4516368 -0.788974,-0.5398907 0,-1.2126256 1.542966,0 0,-0.5478983 -1.542966,0 0,-0.5625653 0.411767,0 0,-0.5457068 -0.411767,0 0,-0.425422 -0.547898,0 0,0.425422 -0.411767,0 0,0.5457068 0.411767,0 0,0.5625653 -1.543051,0 0,0.5478983 1.543051,0 0,0.8377788 -0.480887,-0.3290762 -0.308171,0.4516369 0.789058,0.5398906 0,1.5819934 c -0.182324,0.097779 -0.306402,0.2901333 -0.306402,0.5113999 0,0.209803 0.111434,0.3937282 0.277911,0.4958059 -0.08513,0.6316 -0.425254,1.105238 -0.747586,1.55443 -0.52219,0.727693 -1.00257,1.397731 -0.481645,2.557505 l 0,0.766974 0.630251,0 0,1.854594 -0.58937,0 0,1.415769 -3.654313,13.079178 -1.015973,1.292618 0.780376,0.844607 0,8.913632 -2.12534,1.290512 0.732161,1.101697 0,9.992739 -6.607402,2.162513 0,23.298916 C 26.065211,76.511566 24.301821,72.329162 24.301821,67.741399 l 0,-0.0017 -6.74e-4,0 c 8.4e-5,-2.18131 0.399544,-4.271669 1.129766,-6.203559 0.749272,-1.982128 1.869767,-3.795924 3.246087,-5.405228 l -6.102155,-3.535546 -1.166602,-0.356893 -2.572931,3.179665 2.611958,2.193533 c -1.098831,1.820877 -1.95743,3.787748 -2.541827,5.832336 -0.604964,2.116068 -0.929067,4.351577 -0.929235,6.663456 l -6.75e-4,0 0,0.0017 c 0,8.975082 4.887338,16.815086 12.153482,21.018984 1.411977,0.816959 2.915241,1.497027 4.490997,2.021577 4.977446,1.657182 10.447579,1.662492 15.440957,0 z M 24.482712,59.958628 c -0.586167,1.070678 -1.344459,1.784042 -1.693259,1.59312 -0.348885,-0.19109 -0.156446,-1.214143 0.429721,-2.284989 0.586167,-1.070593 1.344458,-1.784126 1.693343,-1.593036 0.348885,0.190922 0.156446,1.214143 -0.429805,2.284905 z m -1.355669,12.305545 c 0.295359,1.184472 0.221856,2.222951 -0.164117,2.319128 -0.385889,0.09626 -0.938255,-0.786192 -1.233614,-1.970664 -0.295275,-1.184388 -0.221857,-2.222951 0.164116,-2.319128 0.385974,-0.09626 0.938339,0.786192 1.233615,1.970664 z M 42.34049,86.916156 c 1.220718,0 2.21056,0.322502 2.21056,0.720276 0,0.397774 -0.989842,0.720276 -2.21056,0.720276 -1.220717,0 -2.210559,-0.322502 -2.210559,-0.720276 0,-0.397774 0.989842,-0.720276 2.210559,-0.720276 z M 60.198269,59.958628 c -0.586251,-1.070762 -0.77869,-2.093899 -0.429805,-2.284905 0.348885,-0.191005 1.107176,0.522358 1.693343,1.59312 0.586167,1.070678 0.77869,2.093815 0.429805,2.284821 -0.348885,0.191006 -1.107176,-0.522358 -1.693343,-1.593036 z m 1.355669,12.305545 c 0.295275,-1.184472 0.847726,-2.066925 1.233615,-1.970664 0.385973,0.09618 0.459391,1.13474 0.164116,2.319128 -0.295359,1.184472 -0.847725,2.066841 -1.233698,1.970664 -0.385889,-0.09626 -0.459392,-1.13474 -0.164033,-2.319128 z m -32.115275,10.29872 c 0.921313,0.800859 1.456736,1.69368 1.195768,1.993844 -0.260884,0.300164 -1.219538,-0.105786 -2.14085,-0.906645 -0.921312,-0.800859 -1.456736,-1.69368 -1.195767,-1.993844 0.260968,-0.300249 1.219537,0.105786 2.140849,0.906645 z m 25.803654,0 c 0.921228,-0.800859 1.879882,-1.206894 2.14085,-0.906645 0.260968,0.300164 -0.274539,1.192985 -1.195767,1.993844 -0.921312,0.800859 -1.879966,1.206809 -2.14085,0.906645 -0.260968,-0.300164 0.274455,-1.192985 1.195767,-1.993844 z"
   class="fil0" /><path
   style="fill:url(#linearGradient3977);fill-rule:nonzero;fill-opacity:1"
   inkscape:connector-curvature="0"
   id="path45"
   d="m 49.114369,56.320836 5.382891,0 -5.382891,-1.761788 0,1.761788 z m -13.547589,0 0,-1.761788 -5.38289,1.761788 5.38289,0 z"
   class="fil2" /><path
   id="polygon49"
   transform="matrix(0.8429206,0,0,0.8429206,-46.166004,-74.311627)"
   style="fill:url(#linearGradient3937);fill-rule:nonzero;fill-opacity:1"
   d="m 103.621,109.233 -4.2808,15.322 2.5018,0 2.293,-15.322 z m 4.537,15.322 2.502,0 -4.281,-15.322 -0.514,0 z" /><path
   style="fill:url(#linearGradient3910);fill-rule:nonzero;fill-opacity:1"
   inkscape:connector-curvature="0"
   id="path51"
   d="m 39.290129,41.740838 0,-9.520366 -2.505497,0 0.512327,0.554473 0,8.965893 1.99317,0 z m 6.100554,0 1.99317,0 0,-8.965893 0.512327,-0.554473 -2.505497,0 0,9.520366 z"
   class="fil3" /><path
   style="fill:url(#linearGradient3995);fill-rule:nonzero;fill-opacity:1"
   inkscape:connector-curvature="0"
   id="path55"
   d="m 41.858508,69.407178 0,1.11569 0.963796,0 0,-1.11569 -0.963796,0 z m -0.372486,-0.564757 0,0.22742 0.191258,0 0,1.69e-4 1.326252,0 0,-1.69e-4 0.191258,0 0,-0.22742 -1.708768,0 z m 0.854468,-3.19981 c -0.05445,0 -0.09862,0.04417 -0.09862,0.09862 0,0.05445 0.04417,0.09862 0.09862,0.09862 0.05445,0 0.09862,-0.04417 0.09862,-0.09862 0,-0.05445 -0.04417,-0.09862 -0.09862,-0.09862 z"
   class="fil4" /><path
   inkscape:connector-curvature="0"
   style="fill:url(#linearGradient3109);fill-rule:nonzero"
   id="path57"
   d="m 29.296631,56.657161 0,12.413102 1.906518,0 0,-11.254592 4.040961,8.5e-5 0,15.85188 1.016141,-0.504825 0,-15.347055 12.160816,0 0,15.347055 1.016141,0.504825 0,-15.85188 4.040961,-8.5e-5 0,11.254592 1.906518,0 0,-12.413102 -26.088056,0 z m 26.088056,23.365591 0,-10.61667 -1.906518,0 0,12.323837 m -22.27502,2.53e-4 0,-12.32409 -1.906518,0 0,10.616417 c 0.463691,0.478442 0.953934,0.931764 1.468874,1.357018 0.145572,0.1202 0.291397,0.237029 0.437644,0.350655 z m 5.057102,2.759047 0,-10.382168 -1.016141,0 0,9.988693 c 0.137565,0.05808 0.291398,0.120369 0.460825,0.186538 0.172209,0.06718 0.328655,0.126101 0.46858,0.176255 l 2.53e-4,-7.59e-4 0.0014,5.06e-4 0.0013,0.0017 0.0837,0.02959 z m 13.176957,-0.393981 0,-9.988187 -1.016141,0 0,10.382084 0.08227,-0.029 0.0017,-0.0017 0.0017,-5.06e-4 2.53e-4,7.59e-4 c 0.314073,-0.112699 0.624352,-0.234248 0.930838,-0.363805 z"
   class="fil5" /><polygon
   style="fill:url(#linearGradient3945);fill-rule:nonzero;fill-opacity:1"
   id="polygon59"
   points="110.665,141.226 99.3353,141.226 99.3353,154.976 110.665,154.976 "
   class="fil6"
   transform="matrix(0.8429206,0,0,0.8429206,-46.166004,-74.311627)" /><polygon
   style="fill:url(#linearGradient3926);fill-rule:nonzero;fill-opacity:1"
   id="polygon61"
   points="112.638,154.976 112.638,140.489 113.252,139.565 96.7483,139.565 97.3623,140.489 97.3623,154.976 98.9353,154.976 98.9353,140.826 111.065,140.826 111.065,154.976 "
   class="fil3"
   transform="matrix(0.8429206,0,0,0.8429206,-46.166004,-74.311627)" /><polygon
   style="fill:url(#linearGradient3961);fill-rule:nonzero;fill-opacity:1"
   id="polygon63"
   points="111.121,138.079 98.8789,138.079 97.0878,139.167 112.912,139.167 "
   class="fil2"
   transform="matrix(0.8429206,0,0,0.8429206,-46.166004,-74.311627)" /><polygon
   style="fill:url(#linearGradient3969);fill-rule:nonzero;fill-opacity:1"
   id="polygon65"
   points="108.219,126.385 101.781,126.385 101.781,137.679 108.219,137.679 "
   class="fil6"
   transform="matrix(0.8429206,0,0,0.8429206,-46.166004,-74.311627)" /><polygon
   style="fill:url(#linearGradient3953);fill-rule:nonzero;fill-opacity:1"
   id="polygon67"
   points="110.826,124.955 99.1739,124.955 98.3635,125.986 111.637,125.986 "
   class="fil2"
   transform="matrix(0.8429206,0,0,0.8429206,-46.166004,-74.311627)" /><polygon
   style="fill:url(#linearGradient3902);fill-rule:nonzero;fill-opacity:1"
   id="polygon69"
   points="105.461,109.233 104.539,109.233 102.246,124.555 107.754,124.555 "
   class="fil6"
   transform="matrix(0.8429206,0,0,0.8429206,-46.166004,-74.311627)" /><path
   id="path73"
   style="fill:url(#linearGradient3987);fill-rule:nonzero;fill-opacity:1"
   d="m 41.776745,14.419253 0,1.854594 1.128334,0 0,-1.854594 -1.128334,0 z m -0.630252,-0.633371 0,0.296203 2.388837,0 0,-0.296203 -2.388837,0 z m 1.194419,-4.9851164 c -0.134699,0 -0.243941,0.1092425 -0.243941,0.2439412 0,0.1348673 0.109242,0.2441098 0.243941,0.2441098 0.134867,0 0.24411,-0.1092425 0.24411,-0.2441098 0,-0.1346987 -0.109243,-0.2439412 -0.24411,-0.2439412 z m 1.153705,7.8100804 -2.307073,0 0,0.815105 2.307073,0 z" /><path
   inkscape:connector-curvature="0"
   style="fill:url(#radialGradient3098);fill-rule:nonzero"
   id="path75"
   d="m 42.340659,9.7641396 c -0.12745,0.6209794 -0.460403,1.0850074 -0.77751,1.5268664 -0.452227,0.630167 -0.869051,1.21153 -0.475576,2.157708 l 2.505835,0 c 0.393475,-0.946178 -0.02335,-1.527541 -0.475576,-2.157708 -0.317107,-0.441859 -0.649723,-0.905887 -0.777173,-1.5268664 z"
   class="fil7" /><path
   inkscape:connector-curvature="0"
   style="fill:url(#linearGradient3094);fill-rule:nonzero"
   id="path79"
   d="m 53.141001,81.986082 0,-23.832568 -3.366625,0 0,25.795899 c 0.365996,-0.163611 0.725839,-0.338854 1.079275,-0.52573 0.163527,-0.08648 0.308678,-0.165549 0.435537,-0.237113 0.131665,-0.07426 0.27454,-0.157795 0.427783,-0.249842 l 0.0017,-7.58e-4 c 0.490074,-0.294685 0.964723,-0.611708 1.422766,-0.949888 z m -18.234059,1.963331 0,-25.795899 -3.366625,0 0,23.833243 c 0.09736,0.07207 0.194715,0.142285 0.292157,0.21132 0.361865,0.256248 0.738904,0.502381 1.129682,0.737303 l 9.27e-4,5.9e-4 c 0.624604,0.375521 1.27399,0.714206 1.943859,1.013443 z m 7.752931,-17.912737 c 0.04274,0.333881 0.251865,0.598305 0.460656,0.861971 0.375353,0.474058 0.749862,0.947527 0.411683,1.805704 l 0,0.365828 4.551687,0 0,-10.916665 -11.48648,0 0,10.916665 4.551687,0 0,-0.365828 c -0.338179,-0.858177 0.03633,-1.331646 0.411683,-1.805704 0.208791,-0.26375 0.418004,-0.528175 0.46074,-0.86214 -0.07165,-0.07755 -0.115733,-0.181059 -0.115733,-0.295022 0,-0.180301 0.109917,-0.335061 0.266279,-0.400893 l 0,-0.780882 -0.455599,-0.294937 0.183083,-0.281873 0.272516,0.176423 0,-0.426012 -0.896278,0 0,-0.337168 0.896278,0 0,-0.277827 -0.233236,0 0,-0.337168 0.233236,0 0,-0.221941 0.337168,0 0,0.221941 0.233321,0 0,0.337168 -0.233321,0 0,0.277827 0.896278,0 0,0.337168 -0.896278,0 0,0.644244 0.455599,0.294938 -0.183083,0.281873 -0.272516,-0.176423 0,0.562649 c 0.15653,0.06592 0.266447,0.220508 0.266447,0.400893 0,0.114047 -0.044,0.217558 -0.115817,0.295191 z m -1.13828,3.370839 -4.924174,-1.68e-4 0,3.588566 4.924174,-2.446409 0,-1.141989 z m 6.562306,15.197437 0,-10.497311 -11.48648,0 0,10.497311 c 1.045306,0.345766 2.118597,0.593838 3.204279,0.744721 l 0,-8.225725 c 0.646857,-0.655708 1.54541,-1.062165 2.538877,-1.062165 0.99355,0 1.892104,0.406457 2.538961,1.06208 l 0,8.22522 c 0.07047,-0.0099 0.140768,-0.01972 0.211151,-0.03034 0.581026,-0.08766 1.157078,-0.20306 1.725122,-0.345851 0.429552,-0.108062 0.852698,-0.230791 1.26809,-0.367935 z m -4.924174,-15.197437 0,1.141989 4.924174,2.446409 0,-3.588566 -4.924174,1.68e-4 z"
   class="fil8" /><path
   inkscape:connector-curvature="0"
   style="fill:url(#linearGradient3091);fill-rule:nonzero"
   id="path81"
   d="m 49.955604,92.831099 c 1.551395,-0.516373 3.033502,-1.18717 4.427777,-1.993929 7.165331,-4.145568 11.984898,-11.87692 11.984898,-20.727839 l 0,-0.0017 6.75e-4,0 c -8.5e-5,-2.277318 -0.320142,-4.482061 -0.917435,-6.57124 -0.603278,-2.110842 -1.509671,-4.124158 -2.655537,-5.996453 l 2.579758,-2.16639 -2.222866,-2.746994 -0.673746,0.203312 2.101991,2.597629 -2.508363,2.106627 c 0.635562,0.966408 1.197537,1.981453 1.677749,3.033671 1.293125,2.832803 2.012136,5.968552 2.012136,9.266648 l 0,0.0017 -6.75e-4,0 c -1.68e-4,2.752641 -0.500441,5.391825 -1.416865,7.835537 -0.373076,0.994983 -0.815273,1.957514 -1.320266,2.881608 -2.598134,4.753145 -6.870056,8.505996 -12.047949,10.510293 -1.773926,0.685884 -2.345342,0.43874 -3.901542,-0.234754 l -2.53e-4,5.9e-4 -0.20955,-0.09053 -6.74e-4,-6.75e-4 -8.43e-4,-5.06e-4 -1.69e-4,3.38e-4 c -0.171366,-0.07384 -0.348547,-0.143128 -0.530534,-0.207527 -2.470432,-0.872845 -5.514724,-0.872845 -7.985155,0 -0.181987,0.0644 -0.359169,0.133687 -0.530535,0.207527 l -1.68e-4,-3.38e-4 -0.0011,5.06e-4 -6.74e-4,6.75e-4 -0.20955,0.09053 -2.53e-4,-5.9e-4 c -1.5562,0.673494 -2.127616,0.920638 -3.901543,0.234754 -5.177892,-2.004297 -9.449814,-5.757148 -12.047948,-10.510293 -0.504994,-0.924094 -0.94719,-1.886625 -1.320267,-2.881608 -0.916423,-2.443712 -1.416696,-5.082896 -1.416865,-7.835537 l -6.74e-4,0 0,-0.0017 c 0,-3.298096 0.719011,-6.433845 2.012136,-9.266648 0.480212,-1.052218 1.042187,-2.067263 1.677749,-3.033671 l -2.508363,-2.106627 2.101991,-2.597629 -0.673747,-0.203312 -2.222866,2.746994 2.579759,2.16639 c -1.145866,1.872295 -2.052259,3.885611 -2.655537,5.996453 -0.597294,2.089179 -0.917351,4.293922 -0.917435,6.57124 l 6.74e-4,0 0,0.0017 c 0,8.850919 4.819568,16.582271 11.984898,20.727839 1.394275,0.806759 2.876383,1.477556 4.427778,1.993929 4.907484,1.633917 10.30875,1.638553 15.230227,0 z"
   class="fil9" /><polygon
   style="fill:url(#linearGradient3918);fill-rule:nonzero;fill-opacity:1"
   id="polygon53"
   points="105.817,172.225 104.183,172.225 97.2304,175.679 112.77,175.679 "
   class="fil2"
   transform="matrix(0.8429206,0,0,0.8429206,-46.166004,-74.311627)" /><path
   inkscape:connector-curvature="0"
   style="fill:url(#linearGradient3088);fill-rule:nonzero"
   id="path83"
   d="m 46.444839,90.212987 c 0.191933,0.06786 0.376196,0.139841 0.551608,0.215451 l 6.74e-4,6.74e-4 8.43e-4,5.06e-4 1.68e-4,-3.37e-4 0.209551,0.09053 0,6.75e-4 c 1.463984,0.633539 2.00143,0.866101 3.64757,0.229611 5.103716,-1.975553 9.31402,-5.673867 11.874138,-10.357555 0.497829,-0.910944 0.933366,-1.858977 1.300542,-2.838114 0.902853,-2.407381 1.395708,-5.007117 1.395792,-7.718371 l -6.74e-4,0 0,-0.0017 c 0,-3.250386 -0.7078,-6.338678 -1.98061,-9.12706 -0.493278,-1.08113 -1.074556,-2.122389 -1.733888,-3.110967 l -6.74e-4,0 -0.08438,-0.126606 2.485267,-2.087072 -1.961307,-2.423734 -5.628518,3.26126 c 1.294304,1.547518 2.330169,3.310824 3.043449,5.197533 0.743793,1.967882 1.150671,4.098111 1.150839,6.322073 l 6.75e-4,0 0,0.0017 c 0,6.556742 -3.533945,12.301499 -8.825716,15.483103 -1.028195,0.618113 -2.123486,1.139881 -3.272724,1.551901 -4.036831,1.447463 -8.517965,1.447463 -12.554796,0 -1.149238,-0.41202 -2.244529,-0.933788 -3.272724,-1.551901 -5.291771,-3.181604 -8.825716,-8.926361 -8.825716,-15.483103 l 0,-0.0017 6.75e-4,0 c 1.68e-4,-2.223962 0.407046,-4.354191 1.150839,-6.322073 0.71328,-1.886709 1.749145,-3.650015 3.043449,-5.197533 l -5.628518,-3.26126 -1.961307,2.423734 2.485267,2.087072 -0.08438,0.126606 -6.74e-4,0 c -0.659333,0.988578 -1.240611,2.029837 -1.733888,3.110967 -1.27281,2.788382 -1.98061,5.876674 -1.98061,9.12706 l 0,0.0017 -6.75e-4,0 c 8.5e-5,2.711254 0.49294,5.31099 1.395793,7.718371 0.367176,0.979137 0.802713,1.92717 1.300542,2.838114 2.560118,4.683688 6.770422,8.382002 11.874138,10.357555 1.64614,0.63649 2.183586,0.403928 3.64757,-0.229611 l 0,-6.75e-4 0.20955,-0.09053 1.69e-4,3.37e-4 0.0011,-5.06e-4 6.74e-4,-6.74e-4 c 0.175412,-0.07561 0.359674,-0.147596 0.551607,-0.215451 2.542586,-0.89889 5.66645,-0.89889 8.209036,0 z M 24.77765,60.120469 c -0.675517,1.233699 -1.638132,2.006825 -2.149869,1.726639 -0.511822,-0.280187 -0.37923,-1.507732 0.296286,-2.741431 0.675348,-1.233614 1.637964,-2.006741 2.149869,-1.726554 0.511737,0.280187 0.379062,1.507816 -0.296286,2.741346 z m -1.324397,12.0627 c 0.340203,1.364688 0.15712,2.585659 -0.40907,2.726932 -0.566105,0.141189 -1.301132,-0.851013 -1.641335,-2.215617 -0.340287,-1.364688 -0.157036,-2.585743 0.40907,-2.726848 0.566105,-0.141189 1.301132,0.850928 1.641335,2.215533 z m 6.205918,10.126342 c 1.061406,0.922661 1.611749,2.027983 1.228979,2.468324 -0.382855,0.440342 -1.553924,0.04923 -2.615414,-0.873518 -1.061406,-0.922661 -1.611749,-2.027983 -1.228979,-2.468325 0.382855,-0.440341 1.553925,-0.04923 2.615414,0.873519 z m 12.681151,4.270741 c 1.406413,0 2.546884,0.473048 2.546884,1.056601 0,0.58347 -1.140471,1.056601 -2.546884,1.056601 -1.406413,0 -2.546885,-0.473131 -2.546885,-1.056601 0,-0.583553 1.140472,-1.056601 2.546885,-1.056601 z m 12.68115,-4.270825 c 1.061406,-0.922661 2.23256,-1.313776 2.61533,-0.873435 0.38277,0.440342 -0.167488,1.545664 -1.228978,2.468325 -1.061406,0.922661 -2.23256,1.31386 -2.61533,0.873518 -0.38277,-0.440426 0.167573,-1.545663 1.228978,-2.468408 z m 4.881606,-22.188874 c -0.675432,-1.233614 -0.808108,-2.461243 -0.296286,-2.74143 0.511737,-0.280187 1.474436,0.49294 2.149869,1.726638 0.675348,1.233615 0.808023,2.46116 0.296286,2.741347 -0.511821,0.280186 -1.474521,-0.49294 -2.149869,-1.726555 z m 1.324313,12.062616 c 0.340203,-1.364605 1.075229,-2.356722 1.641335,-2.215617 0.56619,0.141189 0.749356,1.362244 0.409069,2.726848 -0.340203,1.364688 -1.075229,2.356806 -1.641335,2.215617 -0.566105,-0.141105 -0.749272,-1.36216 -0.409069,-2.726848 z"
   class="fil10" /><path
   style="fill:#000000"
   inkscape:connector-curvature="0"
   id="path85"
   d="m 40.292362,61.943116 0,6.024438 -2.289035,0 0,-6.024691 c 0.160155,-0.478778 0.611876,-0.823702 1.144433,-0.823702 0.532726,0 0.984531,0.345092 1.144602,0.823955 z"
   class="fil11" /><path
   style="fill:#000000"
   inkscape:connector-curvature="0"
   id="path87"
   d="m 46.677485,61.943116 0,6.024438 -2.289035,0 0,-6.024691 c 0.160155,-0.478778 0.611876,-0.823702 1.144434,-0.823702 0.532725,0 0.984531,0.345092 1.144601,0.823955 z"
   class="fil11" /><path
   style="fill:#000000"
   inkscape:connector-curvature="0"
   id="path89"
   d="m 44.229644,47.504729 0,5.376317 -3.77797,0 0,-5.376738 c 0.26434,-0.790154 1.009903,-1.359462 1.888816,-1.359462 0.879251,0 1.624983,0.569561 1.889154,1.359883 z"
   class="fil11" /><path
   style="fill:#000000"
   inkscape:connector-curvature="0"
   id="path91"
   d="m 43.485345,35.388589 0,5.845485 -2.289035,0 0,-5.845738 c 0.160155,-0.478779 0.611876,-0.823702 1.144433,-0.823702 0.532726,0 0.984532,0.345091 1.144602,0.823955 z"
   class="fil11" />
<path
   style="fill:url(#radialGradient3894);fill-rule:nonzero;fill-opacity:1"
   inkscape:connector-curvature="0"
   id="path77"
   d="m 43.246799,68.505253 c 0.215029,-0.634466 -0.08707,-1.016393 -0.389935,-1.398911 -0.22152,-0.279681 -0.442871,-0.560121 -0.515952,-0.930163 l -4.22e-4,0 -4.21e-4,0 c -0.07308,0.370042 -0.294432,0.650482 -0.515952,0.930163 -0.302861,0.382518 -0.604964,0.764445 -0.389935,1.398911 l 1.812617,0 z"
   class="fil2" /></svg>