<?xml version="1.0" encoding="UTF-8" standalone="no"?>
<!-- Creator: CorelDRAW -->

<svg
   xmlns:dc="http://purl.org/dc/elements/1.1/"
   xmlns:cc="http://creativecommons.org/ns#"
   xmlns:rdf="http://www.w3.org/1999/02/22-rdf-syntax-ns#"
   xmlns:svg="http://www.w3.org/2000/svg"
   xmlns="http://www.w3.org/2000/svg"
   xmlns:sodipodi="http://sodipodi.sourceforge.net/DTD/sodipodi-0.dtd"
   xmlns:inkscape="http://www.inkscape.org/namespaces/inkscape"
   xml:space="preserve"
   width="300"
   height="355"
   style="fill-rule:evenodd"
   viewBox="0 0 84.666667 100.18889"
   id="svg2"
   version="1.1"
   inkscape:version="0.48.1 "
   sodipodi:docname="Новолукомль.svg"><metadata
   id="metadata24"><rdf:RDF><cc:Work
       rdf:about=""><dc:format>image/svg+xml</dc:format><dc:type
         rdf:resource="http://purl.org/dc/dcmitype/StillImage" /></cc:Work></rdf:RDF></metadata><sodipodi:namedview
   pagecolor="#ffffff"
   bordercolor="#666666"
   borderopacity="1"
   objecttolerance="10"
   gridtolerance="10"
   guidetolerance="10"
   inkscape:pageopacity="0"
   inkscape:pageshadow="2"
   inkscape:window-width="640"
   inkscape:window-height="480"
   id="namedview22"
   showgrid="false"
   fit-margin-top="0"
   fit-margin-left="0"
   fit-margin-right="0"
   fit-margin-bottom="0"
   inkscape:zoom="0.73521124"
   inkscape:cx="150.00001"
   inkscape:cy="177.50001"
   inkscape:window-x="0"
   inkscape:window-y="0"
   inkscape:window-maximized="0"
   inkscape:current-layer="svg2" />
 <defs
   id="defs4"><style
     type="text/css"
     id="style6">
   
    .fil0 {fill:black}
    .fil1 {fill:#0C76BC}
    .fil4 {fill:#F7E846}
    .fil2 {fill:black;fill-rule:nonzero}
    .fil3 {fill:white;fill-rule:nonzero}
   
  </style></defs>
 <path
   id="path3007"
   d="m 62.583292,47.844781 c 0.828322,0 1.500011,0.671689 1.500011,1.500012 l 0,1.499658 c 0,0.828322 -0.671689,1.500011 -1.500011,1.500011 l -1.500012,0 0,-4.499681 1.500012,0 z m 0,5.999692 c 1.656644,0 3.000022,-1.343378 3.000022,-3.000022 l 0,-1.499658 c 0,-1.656645 -1.343378,-3.000023 -3.000022,-3.000023 l -3.000023,0 0,7.499703 3.000023,0 z m -6.000045,-7.499703 1.500011,0 0,7.499703 -1.500011,0 0,-7.499703 z m -3.000022,0 1.500011,0 0,7.499703 -1.500011,0 -3.000022,-4.708525 0,4.708525 -1.500011,0 0,-7.499703 1.500011,0 3.000022,4.708525 0,-4.708525 z m -22.499884,0 4.499998,0 0,1.500011 -2.999987,0 0,1.500012 2.999987,0 0,1.500011 -2.999987,0 0,1.499658 2.999987,0 0,1.500011 -4.499998,0 0,-7.499703 z m -5.999974,-3.52e-4 1.499976,0 0,6.000044 3.000022,0 0,1.500011 -4.499998,0 0,-7.500055 z m 15.750399,6.000044 1.499588,0 c 1.242271,0 2.250157,-1.007533 2.250157,-2.250017 0,-1.24213 -1.026583,-2.24543 -2.250157,-2.250016 l -1.499588,0 0,1.500011 1.499588,0 c 0.41409,0 0.750146,0.336197 0.750146,0.750005 0,0.414161 -0.336056,0.750006 -0.750146,0.750006 l -1.499588,0 0,1.500011 z m 1.499588,-7.500055 c 2.898916,0 5.249827,2.351263 5.249827,5.250038 0,2.899128 -2.350911,5.250039 -5.249827,5.250039 -2.899022,0 -5.250004,-2.350911 -5.250004,-5.250039 0,-2.898775 2.350982,-5.250038 5.250004,-5.250038 z m 0,1.500011 c 2.070594,0 3.750168,1.679575 3.750168,3.750027 0,2.070806 -1.679574,3.750028 -3.750168,3.750028 -2.0707,0 -3.749993,-1.679222 -3.749993,-3.750028 0,-2.070452 1.679293,-3.750027 3.749993,-3.750027 z"
   style="fill:#a90000;stroke:none"
   inkscape:connector-curvature="0" /><path
   style="fill:#000000"
   inkscape:connector-curvature="0"
   id="path10"
   d="m 84.66667,57.910596 c 0,23.345574 -18.957223,42.278294 -42.333334,42.278294 C 18.957225,100.18889 2.3e-6,81.256313 2.3e-6,57.910596 l 0,-57.91059925 84.6666677,0 0,57.91059925 z"
   class="fil0" /><path
   style="fill:#0c76bc"
   inkscape:connector-curvature="0"
   id="path12"
   d="m 84.097482,57.910596 0,-57.34215165 -83.52829202,0 0,57.34215165 c 0,23.031507 18.70251102,41.709843 41.76414602,41.709843 23.061635,0 41.764146,-18.678194 41.764146,-41.709843 z"
   class="fil1" /><path
   style="fill:#0c76bc"
   inkscape:connector-curvature="0"
   id="path14"
   d="m 78.957717,0.56844435 -7.246043,0 0,86.98200465 c 2.851345,-2.818932 5.298141,-6.045725 7.246043,-9.584595 l 0,-77.39740965 z m -14.492087,0 -7.246044,0 0,96.31989265 c 2.543842,-0.969913 4.968439,-2.180991 7.246044,-3.605379 l 0,-92.71451365 z m -14.492088,0 -7.246044,0 0,99.04702065 c 2.472409,-0.02317 4.893876,-0.259923 7.246044,-0.694359 l 0,-98.35266165 z"
   class="fil1" /><path
   style="fill:#000000;fill-rule:nonzero"
   inkscape:connector-curvature="0"
   id="path16"
   d="m 34.998926,45.849559 2.493042,0.86404 -5.360467,3.91163 1.972235,1.750961 -6.451458,1.565221 1.15104,2.371421 -6.56003,-1.019653 0.154676,2.630918 -5.669963,-3.449198 -0.865165,2.489942 -3.916723,-5.353639 -1.75324,1.969671 L 8.6254724,47.137803 6.251106,48.287347 7.2720864,41.735846 4.6377435,41.890322 8.0914321,36.227589 5.5982477,35.363548 10.959,31.45206 8.9867643,29.700958 15.438222,28.135879 14.28704,25.764316 l 6.560173,1.019795 -0.154677,-2.63106 5.669963,3.44934 0.865165,-2.489943 3.916581,5.353782 1.753382,-1.969671 1.567116,6.443069 2.374651,-1.149685 -1.021122,6.551643 2.634485,-0.154476 -3.453831,5.662449 z M 21.545179,37.147763 c -2.151387,0 -3.895947,1.742292 -3.895947,3.890882 0,2.14859 1.74456,3.890882 3.895947,3.890882 2.151387,0 3.895947,-1.742292 3.895947,-3.890882 0,-2.14859 -1.74456,-3.890882 -3.895947,-3.890882 z"
   class="fil2" /><path
   style="fill:#ffffff;fill-rule:nonzero"
   inkscape:connector-curvature="0"
   id="path18"
   d="m 19.432781,46.690861 -2.528474,7.277409 4.910667,2.987476 -0.57986,-9.855744 0.52408,-0.03212 0.452504,7.689959 5.681631,0.883226 -4.31245,-8.883983 0.471856,-0.229795 3.364753,6.931508 5.587716,-1.355464 -7.388199,-6.559459 0.347774,-0.392655 5.764591,5.118018 4.643006,-3.387948 -9.339516,-3.236456 0.171041,-0.495686 7.286883,2.525186 2.991365,-4.904282 -9.868576,0.579106 -0.03216,-0.523398 7.699971,-0.451773 0.884376,-5.674387 -8.89555,4.306844 -0.230094,-0.471243 6.940532,-3.360378 -1.357228,-5.58045 -6.567999,7.378592 -0.393166,-0.347322 5.124681,-5.757095 -3.392359,-4.636969 -3.24067,9.327372 -0.496331,-0.170818 2.528616,-7.277409 -4.910809,-2.987476 0.57986,9.855744 -0.52408,0.03212 -0.452362,-7.689959 -5.681773,-0.883226 4.31245,8.883983 -0.471856,0.229795 -3.364753,-6.931507 -5.587716,1.355463 7.388199,6.559459 -0.347774,0.392655 -5.764591,-5.118018 -4.6430058,3.387948 9.3395158,3.236456 -0.171041,0.495686 -7.2868826,-2.525328 -2.9913659,4.904424 9.8685765,-0.579106 0.03216,0.523398 -7.6999713,0.451916 -0.8843754,5.674244 8.8955497,-4.306844 0.230094,0.471243 -6.9406745,3.360378 1.3573705,5.580451 6.567999,-7.378592 0.393166,0.347321 -5.124681,5.757095 3.392216,4.636969 3.240813,-9.327372 0.496331,0.170818 z M 21.545179,36.62337 c 2.441673,0 4.421877,1.977629 4.421877,4.416128 0,2.438498 -1.980204,4.416127 -4.421877,4.416127 -2.441673,0 -4.421877,-1.977629 -4.421877,-4.416127 0,-2.438499 1.980204,-4.416128 4.421877,-4.416128 z"
   class="fil3" /><path
   style="fill:#f7e846"
   inkscape:connector-curvature="0"
   id="path20"
   d="m 49.973258,0.56844435 0,98.35251965 c -2.352311,0.434578 -4.773493,0.671336 -7.246044,0.694501 l 0,-99.04702065 7.246044,0 z m 28.984175,0 -7.246044,0 0,86.98157765 c 2.85163,-2.819216 5.298141,-6.046293 7.246044,-9.585305 l 0,-77.39627265 z m -14.492088,0 -7.246044,0 0,96.31960865 c 2.543842,-0.970198 4.96844,-2.181133 7.246044,-3.605521 l 0,-92.71408765 z"
   class="fil4" />
</svg>