<?xml version="1.0" encoding="UTF-8" standalone="no"?>
<!-- Creator: CorelDRAW -->

<svg
   xmlns:dc="http://purl.org/dc/elements/1.1/"
   xmlns:cc="http://creativecommons.org/ns#"
   xmlns:rdf="http://www.w3.org/1999/02/22-rdf-syntax-ns#"
   xmlns:svg="http://www.w3.org/2000/svg"
   xmlns="http://www.w3.org/2000/svg"
   xmlns:sodipodi="http://sodipodi.sourceforge.net/DTD/sodipodi-0.dtd"
   xmlns:inkscape="http://www.inkscape.org/namespaces/inkscape"
   xml:space="preserve"
   width="300"
   height="353"
   style="fill-rule:evenodd"
   viewBox="0 0 84.66667 99.624445"
   id="svg2"
   version="1.1"
   inkscape:version="0.48.1 "
   sodipodi:docname="чашники_флаг.svg"><metadata
   id="metadata51"><rdf:RDF><cc:Work
       rdf:about=""><dc:format>image/svg+xml</dc:format><dc:type
         rdf:resource="http://purl.org/dc/dcmitype/StillImage" /><dc:title></dc:title></cc:Work></rdf:RDF></metadata><sodipodi:namedview
   pagecolor="#ffffff"
   bordercolor="#666666"
   borderopacity="1"
   objecttolerance="10"
   gridtolerance="10"
   guidetolerance="10"
   inkscape:pageopacity="0"
   inkscape:pageshadow="2"
   inkscape:window-width="1280"
   inkscape:window-height="750"
   id="namedview49"
   showgrid="false"
   fit-margin-top="0"
   fit-margin-left="0"
   fit-margin-right="0"
   fit-margin-bottom="0"
   inkscape:zoom="1.5042493"
   inkscape:cx="150"
   inkscape:cy="176.49999"
   inkscape:window-x="-8"
   inkscape:window-y="-8"
   inkscape:window-maximized="1"
   inkscape:current-layer="svg2" />
 <defs
   id="defs4"><style
     type="text/css"
     id="style6">
   
    .fil3 {fill:black}
    .fil2 {fill:#3E9F47}
    .fil4 {fill:#8CBC43}
    .fil0 {fill:#E4212B}
    .fil8 {fill:#F8E335}
    .fil1 {fill:white}
    .fil6 {fill:black;fill-rule:nonzero}
    .fil7 {fill:#F8E335;fill-rule:nonzero}
    .fil5 {fill:white;fill-rule:nonzero}
   
  </style><style
     id="style3048"
     type="text/css">
   
    .str0 {stroke:#FF6600;stroke-width:0.7056}
    .fil1 {fill:none}
    .fil0 {fill:#A90000}
   
  </style><style
     id="style3123"
     type="text/css">
   
    .str0 {stroke:#FF6600;stroke-width:0.7056}
    .fil1 {fill:none}
    .fil0 {fill:#A90000}
   
  </style></defs>
 <path
   style="fill:#a90000"
   inkscape:connector-curvature="0"
   class="fil0"
   d="m 62.583334,47.562324 c 0.8283,0 1.5,0.6717 1.5,1.5 l 0,1.4998 c 0,0.8283 -0.6717,1.5 -1.5,1.5 l -1.5,0 0,-4.4998 1.5,0 z m 0,5.9998 c 1.6566,0 3,-1.3434 3,-3 l 0,-1.4998 c 0,-1.6566 -1.3434,-3 -3,-3 l -3,0 0,7.4998 3,0 z m -6,-7.4998 1.5,0 0,7.4998 -1.5,0 0,-7.4998 z m -3,0 1.5,0 0,7.4998 -1.5,0 -3,-4.7086 0,4.7086 -1.5,0 0,-7.4998 1.5,0 3,4.7086 0,-4.7086 z m -22.5,1e-4 4.5,0 0,1.5 -3,0 0,1.4999 3,0 0,1.5 -3,0 0,1.4999 3,0 0,1.5 -4.5,0 0,-7.4998 z m -6,-2e-4 1.5,0 0,6 3,0 0,1.5 -4.5,0 0,-7.5 z m 15.7504,6 1.4996,0 c 1.2424,0 2.25,-1.0076 2.25,-2.25 0,-1.2424 -1.0263,-2.2457 -2.25,-2.25 l -1.4996,0 0,1.5 1.4996,0 c 0.4141,0 0.75,0.3359 0.75,0.75 0,0.4141 -0.3359,0.75 -0.75,0.75 l -1.4996,0 0,1.5 z m 1.4996,-7.5 c 2.899,0 5.25,2.351 5.25,5.25 0,2.899 -2.351,5.25 -5.25,5.25 -2.899,0 -5.25,-2.351 -5.25,-5.25 0,-2.899 2.351,-5.25 5.25,-5.25 z m 0,1.5 c 2.0707,0 3.75,1.6793 3.75,3.75 0,2.0707 -1.6793,3.75 -3.75,3.75 -2.0707,0 -3.75,-1.6793 -3.75,-3.75 0,-2.0707 1.6793,-3.75 3.75,-3.75 z"
   id="path3127" /><g
   id="_137756912"
   transform="matrix(1.5612515,0,0,1.5630699,-44.080531,-119.52014)">
   <path
   style="fill:#000000"
   inkscape:connector-curvature="0"
   d="m 82.4641,76.4651 0,43.9204 c -2.1491,11.2394 -13.4717,19.8159 -27.115,19.8159 -13.6432,0 -24.9658,-8.5764 -27.115,-19.8157 l 0,-43.9207 54.23,1e-4 z"
   class="fil3"
   id="_137628520" />
   <path
   style="fill:#e4212b"
   inkscape:connector-curvature="0"
   d="m 81.9664,76.9628 0,43.3763 c -2.127,10.9861 -13.2353,19.3646 -26.6173,19.3646 -13.382,0 -24.4902,-8.3784 -26.6173,-19.3644 l 0,-43.3765 53.2346,0 z"
   class="fil0"
   id="_137628640" />
   <path
   style="fill:#000000"
   inkscape:connector-curvature="0"
   d="m 36.9933,122.995 c -2.1767,1.0611 -3.9863,2.7584 -5.1874,4.8495 4.622,7.0761 13.4331,11.8591 23.5432,11.8591 10.1102,0 18.9214,-4.7831 23.5434,-11.8593 -1.2011,-2.091 -3.0107,-3.7882 -5.1873,-4.8494 l 0,-25.9779 0.7989,-1.124 0,-1.4782 -1.2836,0 0,1.0105 -0.8152,0 0,-1.0105 -0.1736,0 c -0.2454,-0.7119 -0.8298,-1.2486 -1.4512,-1.819 -0.6024,-0.5531 -1.2408,-1.1392 -1.6125,-1.937 0.0925,-0.1187 0.1475,-0.268 0.1475,-0.43 0,-0.2894 -0.1756,-0.5378 -0.4261,-0.6444 0.079,-0.2718 0.1975,-0.512 0.3784,-0.7394 -0.0508,-0.3027 -0.1265,-0.5982 -0.2165,-0.8914 -0.1276,-0.416 -0.2818,-0.8225 -0.4359,-1.2292 -0.1542,0.4066 -0.3084,0.8132 -0.436,1.2292 -0.0901,0.2933 -0.1654,0.5888 -0.2166,0.8914 0.1811,0.2272 0.2996,0.4677 0.3786,0.7394 -0.2505,0.1067 -0.4261,0.355 -0.4261,0.6444 0,0.162 0.0551,0.3112 0.1476,0.4299 -0.3717,0.7979 -1.0102,1.384 -1.6127,1.9371 -0.6214,0.5704 -1.2057,1.1071 -1.4512,1.819 l -0.1736,0 0,1.0105 -0.8152,0 0,-1.0105 -1.2836,0 0,1.4782 0.7989,1.124 0,3.525 -0.6571,0 0,0.8237 -1.0411,0 0,-0.8237 -1.2918,0 0,0.8237 -1.041,0 -1e-4,-0.8237 -1.2917,0 0,0.8237 -1.0411,0 -1e-4,-0.8237 -1.2917,0 0,0.8237 -1.0411,0 0,-0.8237 -1.2918,0 0,0.8237 -1.0411,0 0,-0.8237 -1.2917,0 -10e-5,0.8237 -1.041,0 0,-0.8237 -1.2918,0 0,0.8237 -1.0412,0 1e-4,-0.8237 -0.6571,0 0,-3.525 0.7988,-1.124 0,-1.4782 -1.2835,0 0,1.0105 -0.8153,0 0,-1.0105 -0.1736,0 c -0.2454,-0.7119 -0.8298,-1.2486 -1.4512,-1.819 -0.6024,-0.5531 -1.2409,-1.1392 -1.6126,-1.9371 0.0924,-0.1187 0.1476,-0.2679 0.1476,-0.4299 0,-0.2894 -0.1757,-0.5377 -0.4261,-0.6444 0.0789,-0.2717 0.1975,-0.5122 0.3786,-0.7394 -0.0512,-0.3026 -0.1266,-0.5981 -0.2166,-0.8914 -0.1276,-0.416 -0.2818,-0.8226 -0.436,-1.2292 -0.1541,0.4067 -0.3084,0.8132 -0.436,1.2292 -0.09,0.2932 -0.1657,0.5887 -0.2165,0.8914 0.1809,0.2274 0.2995,0.4676 0.3784,0.7394 -0.2504,0.1066 -0.426,0.355 -0.426,0.6444 0,0.162 0.055,0.3113 0.1475,0.43 -0.3718,0.7978 -1.0101,1.3839 -1.6125,1.937 -0.6214,0.5704 -1.2058,1.1071 -1.4513,1.819 l -0.1735,0 0,1.0105 -0.8152,0 0,-1.0105 -1.2836,0 0,1.4782 0.7989,1.124 0,25.978 z"
   class="fil3"
   id="_137628352" />
   <path
   style="fill:#8cbc43"
   inkscape:connector-curvature="0"
   d="m 42.2692,122.015 c 4.4092,0 8.2551,2.4149 10.2881,5.9937 -4.57,1.0586 -8.145,4.7162 -9.0842,9.3307 -4.8301,-2.0393 -8.8476,-5.283 -11.5228,-9.2755 2.0247,-3.609 5.8871,-6.0489 10.3189,-6.0489 z m 36.4789,6.0486 c -2.6958,4.0235 -6.7546,7.287 -11.6347,9.3233 -0.9171,-4.6006 -4.4526,-8.2577 -8.9868,-9.3521 2.0292,-3.5931 5.8828,-6.0198 10.3026,-6.0198 4.4317,0 8.2941,2.4397 10.3189,6.0486 z m -11.8554,9.414 c -3.5,1.4267 -7.4131,2.2259 -11.5436,2.2259 -4.1746,0 -8.1279,-0.8156 -11.6563,-2.2711 1.08,-5.417 5.8616,-9.5009 11.5956,-9.5009 5.75,0 10.542,4.1067 11.6043,9.5461 z"
   class="fil4"
   id="_137628784" />
   <path
   style="fill:#ffffff;fill-rule:nonzero"
   inkscape:connector-curvature="0"
   d="m 40.276,118.649 3.6142,0 0,-21.5436 -3.6142,0 0,21.5436 z m 1.8536,-29.1188 c 0.076,-0.2691 0.1875,-0.5221 0.3582,-0.7479 -0.0861,-0.4748 -0.2409,-0.9396 -0.4046,-1.3926 -0.1638,0.4531 -0.3186,0.9177 -0.4047,1.3925 0.1707,0.2257 0.282,0.4789 0.358,0.748 0.031,-0.002 0.0621,-0.002 0.0931,0 z m 0.1717,1.3639 c -0.0686,0.0225 -0.142,0.0347 -0.2182,0.0347 -0.0762,0 -0.1496,-0.0122 -0.2183,-0.0347 -0.2898,0.9369 -0.7203,1.504 -1.1087,2.0156 -0.3546,0.4672 -0.6728,0.8864 -0.8011,1.505 l 0.6711,0 0,1.0105 0.8153,0 0,-1.0105 1.2834,0 0,1.0105 0.8153,0 0,-1.0105 0.671,0 c -0.1283,-0.6186 -0.4464,-1.0378 -0.801,-1.505 -0.3884,-0.5116 -0.819,-1.0787 -1.1088,-2.0156 z m -2.5844,3.5206 c 0.1315,-0.6946 0.4725,-1.1439 0.8536,-1.6458 0.3276,-0.4316 0.6862,-0.9038 0.9572,-1.6134 -0.3926,0.6402 -0.935,1.1379 -1.4515,1.6121 -0.5754,0.5282 -1.1179,1.0264 -1.3605,1.6471 l 1.0012,0 z m 2.3662,-4.6526 c -0.2576,0 -0.4665,0.2089 -0.4665,0.4666 0,0.2576 0.2089,0.4665 0.4665,0.4665 0.2576,0 0.4665,-0.2089 0.4665,-0.4665 0,-0.2577 -0.2089,-0.4666 -0.4665,-0.4666 z m 3.3673,4.6526 C 45.2078,93.794 44.6655,93.2958 44.09,92.7676 c -0.5165,-0.4742 -1.0588,-0.972 -1.4514,-1.6123 0.271,0.7097 0.6295,1.182 0.9572,1.6136 0.381,0.5019 0.7219,0.9512 0.8534,1.6458 l 1.0012,0 z m -9.0219,1.2446 0.8153,0 0,-1.0114 -0.8153,0 0,1.0114 z m 0.7989,2.0284 0.899,0 0,-2e-4 1.0164,0 0,2e-4 0.8991,0 0,-0.5823 -2.8145,0 0,0.5823 z m 2.8145,20.9613 0,-20.7272 -0.8991,0 0,1.1204 -1.0164,0 0,-1.1204 -0.899,0 0,20.7272 0.899,0 0,-1.2211 1.0164,0 0,1.2211 0.8991,0 z m -1.1333,-20.7272 -0.5481,0 0,0.8863 0.5481,0 0,-0.8863 z m 5.2157,0 0,20.7272 0.8992,0 0,-1.2211 1.0164,0 0,1.2211 0.8989,0 0,-20.7272 -0.8989,0 0,1.1204 -1.0164,0 0,-1.1204 -0.8992,0 z m 1.6814,0 -0.5481,0 0,0.8863 0.5481,0 0,-0.8863 z m -1.6814,-0.2341 2.8145,0 0,-0.5823 -2.8145,0 0,0.5823 z m -4.1589,-0.8164 -0.5145,-0.9779 -2.9697,0 0.695,0.9779 2.7892,0 z m -0.6228,-1.212 0,-1e-4 0,-1.0113 -0.8153,0 0,1.0114 0.8153,0 z m 0.2341,-1.0114 0,0.9829 0.015,0.0285 0.8003,0 0,-1.0114 -0.8153,0 z m 2.0988,1.0114 0.8152,0 0,-1.0114 -0.8152,0 0,1.0114 z m 2.8991,0 0.015,-0.0285 0,-0.9829 -0.8154,0 0,1.0114 0.8004,0 z m 0.2491,-1.0114 0,1.0113 0,1e-4 0.8152,0 0,-1.0114 -0.8152,0 z m 2.0987,1.0114 0.8153,0 0,-1.0114 -0.8153,0 0,1.0114 z m -2.207,0.2341 -0.5146,0.9779 2.7848,0 0.0044,0 0.6951,-0.9779 -2.9697,0 z m -0.7786,0.9779 0.5146,-0.9779 -4.7365,0 0.5144,0.9779 3.7075,0 z m 3.002,25.8483 0,-2.357 -9.7114,0 0,2.5215 c 1.5342,-0.7074 3.2418,-1.1027 5.0419,-1.1027 1.6556,0 3.2332,0.3341 4.6695,0.9382 z m -9.7114,-2.5911 9.7114,0 0,-0.5056 -9.7114,0 0,0.5056 z m 9.7114,-1.2454 -9.7114,0 0,0.5056 9.7114,0 0,-0.5056 z m -1.1331,-0.2341 0,-0.9869 -0.5481,0 0,0.9869 0.5481,0 z m -6.8971,0 0,-0.9869 -0.5481,0 0,0.9869 0.5481,0 z m 13.8869,9.307 c 0.8044,-0.1692 1.6383,-0.2581 2.493,-0.2581 0.8929,0 1.7628,0.0979 2.6004,0.2822 0.1371,-0.246 0.2825,-0.4866 0.4358,-0.7215 l -5.9517,0 c 0.1484,0.2273 0.2894,0.4598 0.4225,0.6974 z m 5.6854,-0.9306 c 0.1181,-0.1719 0.2405,-0.3407 0.3671,-0.5061 l -6.998,0 c 0.1266,0.1654 0.249,0.3341 0.3671,0.5061 l 6.2638,0 z m 0.5507,-0.7402 c 0.1391,-0.1727 0.2828,-0.3414 0.431,-0.5061 l -8.2272,0 c 0.1482,0.1647 0.2918,0.3334 0.4308,0.5061 l 7.3654,0 z m 0.6462,-0.7393 c 1.0839,-1.1432 2.3895,-2.0744 3.8477,-2.7245 l 0,-18.9699 -1.86,0 0,1.6435 -1.0155,0 0,-1.6435 -2.8569,0 0,1.6435 -1.0154,0 0,-1.6435 -2.8568,0 0,1.6435 -1.0155,0 0,-1.6435 -2.8569,0 0,1.6435 -1.0155,0 0,-1.6435 -1.86,0 0,18.9699 c 1.458,0.6502 2.7633,1.5813 3.8471,2.7245 l 8.6577,0 z m 5.2149,-6.8969 0.5482,0 0,-0.9869 -0.5482,0 0,0.9869 z m 5.5298,0 0,-21.5436 -3.6142,0 0,21.5436 3.6142,0 z m -6.6629,0.2341 0,0.5056 9.7115,0 0,-0.5056 -9.7115,0 z m 9.7115,1.2454 0,-0.5056 -9.7115,0 0,0.5056 9.7115,0 z m -9.7115,2.5911 c 1.4363,-0.6041 3.014,-0.9382 4.6696,-0.9382 1.8,0 3.5077,0.3953 5.0419,1.1027 l 0,-2.5215 -9.7115,0 0,2.357 z m 2.8145,-24.7978 -0.8991,0 0,1.1204 -1.0164,0 0,-1.1204 -0.899,0 0,20.7272 0.899,0 0,-1.2211 1.0164,0 0,1.2211 0.8991,0 0,-20.7272 z m 4.0825,20.7272 0.8991,0 0,-1.2211 1.0164,0 0,1.2211 0.899,0 0,-20.7272 -0.899,0 0,1.1204 -1.0164,0 0,-1.1204 -0.8991,0 0,20.7272 z m 1.1332,0 0.5482,0 0,-0.9869 -0.5482,0 0,0.9869 z m -10.9066,-14.7975 0,1.4094 0.5491,0 0,-1.4094 -0.5491,0 z m -3.8723,0 0,1.4094 0.5491,0 0,-1.4094 -0.5491,0 z m -3.8723,0 0,1.4094 0.5491,0 0,-1.4094 -0.5491,0 z m -3.8724,0 0,1.4094 0.5491,0 0,-1.4094 -0.5491,0 z m 15.6265,-5.9297 0,0.8863 0.5482,0 0,-0.8863 -0.5482,0 z m 0.3554,-3.5071 1.0012,0 c 0.1315,-0.6946 0.4724,-1.1439 0.8534,-1.6458 0.3277,-0.4316 0.6861,-0.9039 0.9572,-1.6136 -0.3926,0.6403 -0.9349,1.1381 -1.4515,1.6123 -0.5754,0.5282 -1.1177,1.0264 -1.3603,1.6471 z m 3.3673,-4.6526 c -0.2577,0 -0.4666,0.2089 -0.4666,0.4666 0,0.2576 0.2089,0.4665 0.4666,0.4665 0.2576,0 0.4665,-0.2089 0.4665,-0.4665 0,-0.2577 -0.2089,-0.4666 -0.4665,-0.4666 z m 0,-0.2335 c 0.0156,0 0.0312,6e-4 0.0466,0.0016 0.076,-0.2691 0.1873,-0.5223 0.358,-0.748 -0.0421,-0.2317 -0.1083,-0.488 -0.1918,-0.7601 -0.0623,-0.2029 -0.1343,-0.4149 -0.2129,-0.6324 -0.0786,0.2175 -0.1505,0.4295 -0.2128,0.6324 -0.0835,0.272 -0.1498,0.5284 -0.1919,0.7602 0.1708,0.2258 0.2823,0.4788 0.3583,0.7479 0.0154,-10e-4 0.0308,-0.0016 0.0465,-0.0016 z m 2.3661,4.8861 1.0012,0 c -0.2425,-0.6207 -0.785,-1.1189 -1.3604,-1.6471 -0.5165,-0.4742 -1.059,-0.9719 -1.4516,-1.6121 0.2711,0.7096 0.6297,1.1818 0.9573,1.6134 0.381,0.5019 0.722,0.9512 0.8535,1.6458 z m -2.5844,-3.5206 c -0.2898,0.9369 -0.7203,1.504 -1.1087,2.0156 -0.3547,0.4672 -0.6727,0.8864 -0.801,1.505 l 0.5539,0 0.1171,0 0,0.1166 0,0.8939 0.8152,0 0,-1.0105 1.2835,0 0,1.0105 0.8152,0 0,-1.0105 0.6712,0 c -0.1283,-0.6186 -0.4465,-1.0378 -0.8012,-1.505 -0.3883,-0.5116 -0.8188,-1.0787 -1.1086,-2.0156 -0.0687,0.0225 -0.1421,0.0347 -0.2183,0.0347 -0.0763,0 -0.1496,-0.0122 -0.2183,-0.0347 z m -4.8716,12.7233 0,-0.5056 -16.3525,0 0,0.5056 16.3525,0 z m 0,-0.7397 0,-0.5057 -16.3525,0 0,0.5057 16.3525,0 z m 0,-0.7398 0,-1.3619 -0.4229,0 0,0.8237 -1.5094,0 0,-0.8237 -0.8235,0 0,0.8237 -1.5094,0 0,-0.8237 -0.8235,0 0,0.8237 -1.5094,0 0,-0.8237 -0.8235,0 0,0.8237 -1.5093,0 0,-0.8237 -0.8235,0 0,0.8237 -1.5094,0 0,-0.8237 -0.8235,0 0,0.8237 -1.5094,0 0,-0.8237 -0.8235,0 0,0.8237 -1.5094,0 0,-0.8237 -0.4229,0 0,1.3619 16.3525,0 z m 9.9456,-4.4502 0,-0.5823 -2.8145,0 0,0.5823 0.8991,0 0,-2e-4 1.0164,0 0,2e-4 0.4928,0 0.4062,0 z m -6.897,0 0,-0.5823 -2.8145,0 0,0.5823 2.8145,0 z m 4.159,-0.8164 2.7892,0 0.695,-0.9779 -2.9697,0 -0.5145,0.9779 z m -3.9715,0 3.7075,0 0.5145,-0.9779 -4.7366,0 0.5146,0.9779 z m -0.7786,-0.9779 -2.9696,0 0.695,0.9779 0.0045,0 2.7847,0 -0.5146,-0.9779 z m 8.287,-0.2341 0,-1.0114 -0.8154,0 0,1.0114 0.8154,0 z m -2.9141,0 0.8153,0 0,-1.0114 -0.8153,0 0,1.0113 0,1e-4 z m -0.2341,-1.0114 -0.8154,0 0,1.0114 0.8004,0 0.015,-0.0285 0,-0.9829 z m -2.0988,1.0114 0,-1.0114 -0.8153,0 0,1.0114 0.8153,0 z m -2.8992,0 0.8005,0 0,-1.0114 -0.8154,0 0,0.9829 0.0149,0.0285 z m -0.2491,-1.0114 -0.8152,0 0,1.0114 0.8152,0 0,-1e-4 0,-1.0113 z m -2.0986,1.0114 0,-1.0114 -0.8154,0 0,1.0114 0.8154,0 z m 8.0137,2.2625 0,0.8863 0.5482,0 0,-0.8863 -0.5482,0 z"
   class="fil5"
   id="_137628376" />
   <path
   style="fill:#000000;fill-rule:nonzero"
   inkscape:connector-curvature="0"
   d="m 43.1093,103.765 -2.0528,0 0,-2.4719 c 0.0746,-0.4995 0.5068,-0.8855 1.0266,-0.8855 l 0.0014,0 0,4e-4 c 0.5021,7e-4 0.949,0.3719 1.0246,0.882 l 2e-4,2.475 z"
   class="fil6"
   id="_137628160" />
   <path
   style="fill:#000000;fill-rule:nonzero"
   inkscape:connector-curvature="0"
   d="m 51.7647,110.845 -2.0528,0 0,-2.472 c 0.0746,-0.4995 0.5068,-0.8855 1.0266,-0.8855 l 0.0014,0 0,5e-4 c 0.5021,6e-4 0.949,0.3719 1.0246,0.882 l 2e-4,2.475 z"
   class="fil6"
   id="_137627944" />
   <path
   style="fill:#000000;fill-rule:nonzero"
   inkscape:connector-curvature="0"
   d="m 56.3314,110.845 -2.0528,0 0,-2.472 c 0.0746,-0.4995 0.5068,-0.8855 1.0266,-0.8855 l 0.0014,0 0,5e-4 c 0.5021,6e-4 0.949,0.3719 1.0246,0.882 l 2e-4,2.475 z"
   class="fil6"
   id="_137628088" />
   <path
   style="fill:#000000;fill-rule:nonzero"
   inkscape:connector-curvature="0"
   d="m 60.8981,110.845 -2.0528,0 0,-2.472 c 0.0746,-0.4995 0.5068,-0.8855 1.0266,-0.8855 l 0.0014,0 0,5e-4 c 0.5021,6e-4 0.949,0.3719 1.0246,0.882 l 2e-4,2.475 z"
   class="fil6"
   id="_137627872" />
   <path
   style="fill:#000000;fill-rule:nonzero"
   inkscape:connector-curvature="0"
   d="m 67.5892,103.765 2.0527,0 0,-2.4719 c -0.0745,-0.4995 -0.5068,-0.8855 -1.0265,-0.8855 l -0.0014,0 0,4e-4 c -0.5021,7e-4 -0.949,0.3719 -1.0246,0.882 l -2e-4,2.475 z"
   class="fil6"
   id="_137627920" />
   <polygon
   style="fill:#000000;fill-rule:nonzero"
   points="41.5751,97.6879 41.5751,97.6877 42.5915,97.6877 42.5915,97.6879 42.5915,97.6879 42.5915,99.0424 41.5751,99.0424 41.5751,97.6879 "
   class="fil6"
   id="_137725936" />
   <polygon
   style="fill:#000000;fill-rule:nonzero"
   points="69.1233,97.6879 69.1233,97.6877 68.1069,97.6877 68.1069,97.6879 68.1069,97.6879 68.1069,99.0424 69.1233,99.0424 69.1233,97.6879 "
   class="fil6"
   id="_137725912" />
   <path
   style="fill:#ffffff;fill-rule:nonzero"
   inkscape:connector-curvature="0"
   d="m 42.876,103.532 -10e-5,-2.2198 c -0.0607,-0.3892 -0.4082,-0.6705 -0.7914,-0.6709 l 0,5e-4 -0.0014,0 c -0.3922,0 -0.7318,0.288 -0.7925,0.6682 l 0,2.222 1.5854,0 z"
   class="fil5"
   id="_137725552" />
   <path
   style="fill:#ffffff;fill-rule:nonzero"
   inkscape:connector-curvature="0"
   d="m 51.5314,110.612 -10e-5,-2.2198 c -0.0607,-0.3892 -0.4082,-0.6704 -0.7914,-0.6708 l 0,4e-4 -0.0014,0 c -0.3922,0 -0.7318,0.2881 -0.7925,0.6682 l 0,2.222 1.5854,0 z"
   class="fil5"
   id="_137725672" />
   <path
   style="fill:#ffffff;fill-rule:nonzero"
   inkscape:connector-curvature="0"
   d="m 56.0981,110.612 -1e-4,-2.2198 c -0.0607,-0.3892 -0.4082,-0.6704 -0.7914,-0.6708 l 0,4e-4 -0.0014,0 c -0.3922,0 -0.7318,0.2881 -0.7925,0.6682 l 0,2.222 1.5854,0 z"
   class="fil5"
   id="_137725264" />
   <path
   style="fill:#ffffff;fill-rule:nonzero"
   inkscape:connector-curvature="0"
   d="m 60.6648,110.612 -10e-5,-2.2198 c -0.0607,-0.3892 -0.4082,-0.6704 -0.7914,-0.6708 l 0,4e-4 -0.0014,0 c -0.3922,0 -0.7318,0.2881 -0.7925,0.6682 l 0,2.222 1.5854,0 z"
   class="fil5"
   id="_137725360" />
   <path
   style="fill:#ffffff;fill-rule:nonzero"
   inkscape:connector-curvature="0"
   d="m 67.8224,103.532 1e-4,-2.2198 c 0.0608,-0.3892 0.4083,-0.6705 0.7915,-0.6709 l 0,5e-4 0.0014,0 c 0.3922,0 0.7317,0.288 0.7924,0.6682 l 0,2.222 -1.5854,0 z"
   class="fil5"
   id="_137725480" />
   <polygon
   style="fill:#ffffff;fill-rule:nonzero"
   points="42.3574,98.8083 42.3574,97.922 41.8092,97.922 41.8092,98.8083 "
   class="fil5"
   id="_137726008" />
   <polygon
   style="fill:#ffffff;fill-rule:nonzero"
   points="68.3411,98.8083 68.3411,97.922 68.8892,97.922 68.8892,98.8083 "
   class="fil5"
   id="_137725384" />
   <polygon
   style="fill:#000000;fill-rule:nonzero"
   points="56.3819,79.9084 55.7813,80.5708 55.7813,80.9362 56.1466,80.9362 56.8091,80.3356 57.2389,80.3356 57.2389,82.4885 56.8091,82.4885 56.1466,81.8879 55.7813,81.8879 55.7813,82.2532 56.3819,82.9157 56.3819,83.3455 54.229,83.3455 54.229,82.9157 54.8296,82.2532 54.8296,81.8879 54.4643,81.8879 53.8018,82.4885 53.372,82.4885 53.372,80.3356 53.8018,80.3356 54.4643,80.9362 54.8296,80.9362 54.8296,80.5708 54.229,79.9084 54.229,79.4786 56.3819,79.4786 "
   class="fil6"
   id="_137725768" />
   <path
   style="fill:#000000"
   inkscape:connector-curvature="0"
   d="m 58.3788,88.6784 c -0.1593,0.1244 -0.2617,0.3183 -0.2617,0.5361 0,0.1471 0.0468,0.2832 0.1263,0.3945 l -0.5066,1.0548 0.371,0.2079 -0.0189,0.0692 0.4897,0.1269 0.0357,-0.1308 4e-4,0 0.3142,0.0062 0.0131,0.0712 0.4091,-0.0867 0.0367,0.0873 0.4651,-0.2027 -0.5118,-1.19 c 0.0854,-0.1136 0.136,-0.2548 0.136,-0.4078 0,-0.2177 -0.1024,-0.4116 -0.2616,-0.5361 l 0,-1.0856 0.5343,0 0,-3.3105 0.8537,-0.5095 0,-0.6033 -10.5961,0 0,0.6033 0.8536,0.5095 0,3.3105 0.5344,0 0,1.0856 c -0.1592,0.1245 -0.2617,0.3184 -0.2617,0.5361 0,0.153 0.0507,0.2942 0.136,0.4078 l -0.5117,1.19 0.4651,0.2027 0.0366,-0.0873 0.4092,0.0867 0.0131,-0.0712 0.3142,-0.0062 4e-4,0 0.0356,0.1308 0.4898,-0.1269 -0.019,-0.0692 0.371,-0.2079 -0.5065,-1.0548 c 0.0794,-0.1113 0.1263,-0.2474 0.1263,-0.3945 0,-0.2178 -0.1025,-0.4117 -0.2617,-0.5361 l 0,-1.0856 0.5344,0 0,-3.2721 1.5862,0 0,3.2721 0.5344,0 0,1.4381 c -0.1605,0.1244 -0.2639,0.3191 -0.2639,0.5378 0,0.156 0.0527,0.2997 0.141,0.4144 l -0.5168,1.3104 0.4651,0.2211 0.0366,-0.0952 0.4092,0.0945 0.0131,-0.0776 0.3142,-0.0068 4e-4,0 0.0356,0.1427 0.4898,-0.1384 -0.0189,-0.0755 0.3709,-0.2267 L 55.852,89.97 c 0.0824,-0.1125 0.1312,-0.2512 0.1312,-0.4013 0,-0.2166 -0.1015,-0.4097 -0.2594,-0.5343 l 0,-1.4416 0.5344,0 0,-3.2725 1.5862,0 0,3.2725 0.5344,0 0,1.0856 z"
   class="fil3"
   id="_137726128" />
   <polygon
   style="fill:#f8e335;fill-rule:nonzero"
   points="56.8757,82.3126 57.063,82.3126 57.063,80.5115 56.8757,80.5115 56.2132,81.1121 55.6054,81.1121 55.6054,80.5042 56.206,79.8417 56.206,79.6544 54.4049,79.6544 54.4049,79.8417 55.0055,80.5042 55.0055,81.1121 54.3976,81.1121 53.7352,80.5115 53.5479,80.5115 53.5479,82.3126 53.7352,82.3126 54.3976,81.712 55.0055,81.712 55.0055,82.3199 54.4049,82.9823 54.4049,83.1696 56.206,83.1696 56.206,82.9823 55.6054,82.3199 55.6054,81.712 56.2132,81.712 "
   class="fil7"
   id="_137725744" />
   <path
   style="fill:#f8e335"
   inkscape:connector-curvature="0"
   d="m 55.3032,88.8887 c 0.0863,0 0.1688,0.0161 0.2447,0.0454 l 0,-1.3413 -0.4849,0 0,1.3396 c 0.0746,-0.0283 0.1556,-0.0437 0.2402,-0.0437 z"
   class="fil8"
   id="_137757056" />
   <path
   style="fill:#f8e335"
   inkscape:connector-curvature="0"
   d="m 58.7971,88.5344 c -0.0854,0 -0.1672,0.0158 -0.2425,0.0445 l 0,-0.9861 0.485,0 0,0.9862 c -0.0753,-0.0288 -0.157,-0.0446 -0.2425,-0.0446 z"
   class="fil8"
   id="_137756984" />
   <path
   style="fill:#f8e335"
   inkscape:connector-curvature="0"
   d="m 51.8138,88.5344 c 0.0854,0 0.1671,0.0158 0.2424,0.0445 l 0,-0.9861 -0.4849,0 0,0.9862 c 0.0753,-0.0288 0.157,-0.0446 0.2425,-0.0446 z"
   class="fil8"
   id="_137757704" />
   <path
   style="fill:#f8e335;fill-rule:nonzero"
   inkscape:connector-curvature="0"
   d="m 59.2077,89.7564 0.4148,0.965 -0.1414,0.0617 -0.1311,-0.2533 -0.1409,0.0379 0.0252,0.2052 -0.1526,0.0324 -0.0507,-0.205 -0.1498,0.0144 -0.0202,0.1519 -0.1553,-0.0031 -0.0085,-0.1539 -0.1529,-0.0244 -0.0891,0.2695 -0.1505,-0.039 0.0495,-0.2332 -0.1323,-0.0564 -0.11,0.1466 -0.1358,-0.0761 0.414,-0.8374 c 0.1135,0.0849 0.2544,0.1353 0.407,0.1353 0.1543,0 0.2965,-0.0515 0.4106,-0.1381 z"
   class="fil7"
   id="_137757320" />
   <path
   style="fill:#f8e335;fill-rule:nonzero"
   inkscape:connector-curvature="0"
   d="m 51.4032,89.7564 -0.4149,0.965 0.1415,0.0617 0.1311,-0.2533 0.1409,0.0379 -0.0252,0.2052 0.1525,0.0324 0.0507,-0.205 0.1499,0.0144 0.0202,0.1519 0.1553,-0.0031 0.0084,-0.1539 0.153,-0.0244 0.0891,0.2695 0.1505,-0.039 -0.0495,-0.2332 0.1323,-0.0564 0.1099,0.1466 0.1358,-0.0761 -0.4139,-0.8374 c -0.1135,0.0849 -0.2544,0.1353 -0.407,0.1353 -0.1543,0 -0.2965,-0.0515 -0.4106,-0.1381 z"
   class="fil7"
   id="_137757128" />
   <path
   style="fill:#f8e335;fill-rule:nonzero"
   inkscape:connector-curvature="0"
   d="m 54.9025,90.1181 -0.4247,1.0763 0.1414,0.0672 0.1311,-0.2761 0.1409,0.0412 -0.0252,0.2239 0.1526,0.0353 0.0507,-0.2236 0.1498,0.0158 0.0202,0.1656 0.1553,-0.0033 0.0085,-0.1679 0.1529,-0.0266 0.0891,0.2939 0.1505,-0.0425 -0.0495,-0.2544 0.1323,-0.0615 0.1099,0.1599 0.1359,-0.083 -0.4219,-0.9391 c -0.1121,0.0814 -0.25,0.1296 -0.3991,0.1296 -0.1498,0 -0.2883,-0.0486 -0.4007,-0.1307 z"
   class="fil7"
   id="_137757248" />
   <polygon
   style="fill:#f8e335;fill-rule:nonzero"
   points="54.5286,87.4176 56.0823,87.4176 56.0823,84.1448 58.0203,84.1448 58.0203,87.4176 59.574,87.4176 59.574,84.1832 60.4276,83.6736 60.4276,83.3453 50.1833,83.3453 50.1833,83.6736 51.0369,84.1832 51.0369,87.4176 52.5906,87.4176 52.5906,84.1451 54.5286,84.1451 "
   class="fil7"
   id="_137757608" />
   <circle
   d="m 52.318288,89.2145 c 0,0.278621 -0.225867,0.504487 -0.504487,0.504487 -0.278621,0 -0.504487,-0.225866 -0.504487,-0.504487 0,-0.27862 0.225866,-0.504487 0.504487,-0.504487 0.27862,0 0.504487,0.225867 0.504487,0.504487 z"
   style="fill:#f8e335"
   sodipodi:ry="0.50448698"
   sodipodi:rx="0.50448698"
   sodipodi:cy="89.2145"
   sodipodi:cx="51.813801"
   r="0.50448698"
   cy="89.2145"
   cx="51.813801"
   class="fil8"
   id="_137757776" />
   <circle
   d="m 55.807687,89.568703 c 0,0.27862 -0.225867,0.504487 -0.504487,0.504487 -0.278621,0 -0.504487,-0.225867 -0.504487,-0.504487 0,-0.278621 0.225866,-0.504487 0.504487,-0.504487 0.27862,0 0.504487,0.225866 0.504487,0.504487 z"
   style="fill:#f8e335"
   sodipodi:ry="0.50448698"
   sodipodi:rx="0.50448698"
   sodipodi:cy="89.568703"
   sodipodi:cx="55.3032"
   r="0.50448698"
   cy="89.568703"
   cx="55.3032"
   class="fil8"
   id="_137757536" />
   <circle
   d="m 59.301587,89.2145 c 0,0.278621 -0.225866,0.504487 -0.504487,0.504487 -0.27862,0 -0.504487,-0.225866 -0.504487,-0.504487 0,-0.27862 0.225867,-0.504487 0.504487,-0.504487 0.278621,0 0.504487,0.225867 0.504487,0.504487 z"
   style="fill:#f8e335"
   sodipodi:ry="0.50448698"
   sodipodi:rx="0.50448698"
   sodipodi:cy="89.2145"
   sodipodi:cx="58.7971"
   r="0.50448698"
   cy="89.2145"
   cx="58.7971"
   class="fil8"
   id="_137757680" />
  </g>
</svg>