<?xml version="1.0" encoding="UTF-8" standalone="no"?>
<!-- Creator: CorelDRAW -->

<svg
   xmlns:dc="http://purl.org/dc/elements/1.1/"
   xmlns:cc="http://creativecommons.org/ns#"
   xmlns:rdf="http://www.w3.org/1999/02/22-rdf-syntax-ns#"
   xmlns:svg="http://www.w3.org/2000/svg"
   xmlns="http://www.w3.org/2000/svg"
   xmlns:sodipodi="http://sodipodi.sourceforge.net/DTD/sodipodi-0.dtd"
   xmlns:inkscape="http://www.inkscape.org/namespaces/inkscape"
   xml:space="preserve"
   width="300"
   height="347"
   style="fill-rule:evenodd"
   viewBox="0 0 84.666667 97.931113"
   id="svg2"
   version="1.1"
   inkscape:version="0.48.1 "
   sodipodi:docname="гомель.svg"><metadata
   id="metadata144"><rdf:RDF><cc:Work
       rdf:about=""><dc:format>image/svg+xml</dc:format><dc:type
         rdf:resource="http://purl.org/dc/dcmitype/StillImage" /></cc:Work></rdf:RDF></metadata><sodipodi:namedview
   pagecolor="#ffffff"
   bordercolor="#666666"
   borderopacity="1"
   objecttolerance="10"
   gridtolerance="10"
   guidetolerance="10"
   inkscape:pageopacity="0"
   inkscape:pageshadow="2"
   inkscape:window-width="1280"
   inkscape:window-height="750"
   id="namedview142"
   showgrid="false"
   inkscape:zoom="1.5302594"
   inkscape:cx="59.492465"
   inkscape:cy="173.5"
   inkscape:window-x="-8"
   inkscape:window-y="-8"
   inkscape:window-maximized="1"
   inkscape:current-layer="svg2"
   fit-margin-top="0"
   fit-margin-left="0"
   fit-margin-right="0"
   fit-margin-bottom="0" />
 <defs
   id="defs4">
  <style
   type="text/css"
   id="style6">
   
    .fil0 {fill:black}
    .fil2 {fill:black;fill-rule:nonzero}
    .fil1 {fill:#3C82C2;fill-rule:nonzero}
    .fil3 {fill:#F8E73D;fill-rule:nonzero}
   
  </style>
 
 <style
   id="style3246"
   type="text/css">
   
    .str0 {stroke:#FF6600;stroke-width:0.7056}
    .fil1 {fill:none}
    .fil0 {fill:#A90000}
   
  </style>
  
  
  
  
 </defs>
 <path
   style="fill:#a90000"
   inkscape:connector-curvature="0"
   class="fil0"
   d="m 62.583333,46.715657 c 0.8283,0 1.5,0.6717 1.5,1.5 l 0,1.4998 c 0,0.8283 -0.6717,1.5 -1.5,1.5 l -1.5,0 0,-4.4998 1.5,0 z m 0,5.9998 c 1.6566,0 3,-1.3434 3,-3 l 0,-1.4998 c 0,-1.6566 -1.3434,-3 -3,-3 l -3,0 0,7.4998 3,0 z m -6,-7.4998 1.5,0 0,7.4998 -1.5,0 0,-7.4998 z m -3,0 1.5,0 0,7.4998 -1.5,0 -3,-4.7086 0,4.7086 -1.5,0 0,-7.4998 1.5,0 3,4.7086 0,-4.7086 z m -22.5,1e-4 4.5,0 0,1.5 -3,0 0,1.4999 3,0 0,1.5 -3,0 0,1.4999 3,0 0,1.5 -4.5,0 0,-7.4998 z m -6,-2e-4 1.5,0 0,6 3,0 0,1.5 -4.5,0 0,-7.5 z m 15.7504,6 1.4996,0 c 1.2424,0 2.25,-1.0076 2.25,-2.25 0,-1.2424 -1.0263,-2.2457 -2.25,-2.25 l -1.4996,0 0,1.5 1.4996,0 c 0.4141,0 0.75,0.3359 0.75,0.75 0,0.4141 -0.3359,0.75 -0.75,0.75 l -1.4996,0 0,1.5 z m 1.4996,-7.5 c 2.899,0 5.25,2.351 5.25,5.25 0,2.899 -2.351,5.25 -5.25,5.25 -2.899,0 -5.25,-2.351 -5.25,-5.25 0,-2.899 2.351,-5.25 5.25,-5.25 z m 0,1.5 c 2.0707,0 3.75,1.6793 3.75,3.75 0,2.0707 -1.6793,3.75 -3.75,3.75 -2.0707,0 -3.75,-1.6793 -3.75,-3.75 0,-2.0707 1.6793,-3.75 3.75,-3.75 z"
   id="path3250" /><g
   id="Слой_x0020_1"
   transform="matrix(0.38647344,0,0,0.38665296,1.8582016,-8.7224655)">
  <metadata
   id="CorelCorpID_0Corel-Layer" />
  <path
   class="fil0"
   d="M 104.475,275.838 C 97.2149,262.7938 82.9233,253.9192 66.4811,253.9192 l -47.8088,8e-4 c -12.9651,0 -23.4804,-10.124 -23.4804,-22.6081 l 0,-208.753 219.075,0 0,208.753 c 0,12.4841 -10.5152,22.6081 -23.4804,22.6081 l -47.8087,-8e-4 c -16.4423,0 -30.7338,8.8746 -37.994,21.9188 l -0.5088,0 z"
   id="path10"
   inkscape:connector-curvature="0"
   style="fill:#000000" />
  <path
   class="fil1"
   d="m 104.73,273.92 c -4.4957,-7.4054 -11.3073,-13.4225 -19.3499,-17.0842 -5.7284,-2.6081 -12.1339,-4.0673 -18.8953,-4.0677 l 0,-0.004 -0.003,0 0,0.004 -47.8088,8e-4 0,-0.004 -0.0032,0 0,0.004 C 6.4568,252.7679 -3.6123,243.072 -3.6125,231.3127 l 0.0046,0 0,-0.001 0,-207.599 216.676,0 0,207.599 0,0.001 0.005,0 c -2e-4,11.7593 -10.0693,21.4552 -22.2823,21.4562 l 0,-0.004 -0.003,0 0,0.004 -47.8087,-8e-4 0,-0.004 -0.003,0 0,0.004 c -6.7614,4e-4 -13.1669,1.4596 -18.8952,4.0677 -8.0426,3.6617 -14.8542,9.6788 -19.35,17.0842 z"
   id="path12"
   inkscape:connector-curvature="0"
   style="fill:#3c82c2;fill-rule:nonzero" />
  <path
   class="fil2"
   d="m 51.8548,79.8649 c 0.0571,-1.0559 0.1615,-2.0979 0.3084,-3.1341 0.4069,-2.8673 1.1999,-5.9288 2.1147,-7.9733 l -2.4758,-5.5999 1.0054,-0.4426 0.3268,0.7391 -0.1886,-0.8164 1.07,-0.245 0.1725,0.7466 -0.0293,-0.729 1.0958,-0.043 0.2532,6.3095 c 0.6919,0.571 1.2453,1.3411 1.7543,2.0744 0.316,-0.8606 0.6585,-1.7423 1.1841,-2.6489 l -2.5011,-5.7605 1.0054,-0.434 0.3254,0.7495 -0.1807,-0.7874 1.07,-0.245 0.1757,0.7657 -0.0325,-0.7723 1.0958,-0.043 0.2719,6.4539 c 1.9925,2.4367 3.4413,5.3504 5.3486,7.8735 l 0,0.0013 6e-4,-5e-4 c 2.049,2.7101 4.6331,4.9208 7.129,7.1973 2.8717,1.9751 5.2196,4.4763 7.4314,7.1422 l -2.4907,0.586 c 1.4989,1.5196 2.5621,3.1664 3.434,5.0975 -0.7213,-0.0104 -1.4584,-0.0547 -2.1722,0.0697 1.3649,1.744 1.9356,3.7457 2.3794,5.8661 -0.8058,-0.3291 -1.5941,-0.6668 -2.457,-0.8247 1.0936,2.5315 1.7914,5.0014 2.0391,7.7465 -0.9624,-0.3567 -1.8545,-0.6104 -2.8939,-0.6775 -0.4445,2.4247 -0.8104,4.8595 -0.9052,7.3286 -0.095,2.4761 0.0815,4.997 0.7225,7.5933 1.2017,-0.0546 2.3833,0.1672 3.5705,0.6351 1.3022,0.5131 2.6115,1.3242 3.9628,2.3913 1.7507,1.3826 3.6282,2.273 5.5674,2.815 1.9523,0.5457 3.9698,0.7399 5.9858,0.728 2.134,-0.0126 4.2616,0.0881 6.3797,0.3139 2.1243,0.2263 4.2446,0.5781 6.3579,1.0667 3.8292,0.8852 7.5795,1.2952 11.2814,1.2977 3.7057,0.002 7.3688,-0.4028 11.0185,-1.1476 l 0.003,-6e-4 c 1.5692,-0.3201 3.1461,-0.4919 4.7279,-0.5166 l 0.002,0 c 1.5827,-0.0247 3.1661,0.0974 4.7475,0.3646 8.114,1.3715 16.2603,6.557 24.1483,15.3668 4.5418,5.0727 8.7399,9.287 13.239,12.0807 4.4549,2.7663 9.2187,4.1401 14.9359,3.5736 2.0081,-0.199 3.7769,-0.0659 5.0455,0.4561 0.5981,0.246 1.0919,0.5806 1.4569,1.0093 0.3772,0.4429 0.6103,0.9761 0.6725,1.6041 0.0664,0.671 -0.0652,1.4464 -0.4291,2.3312 -0.7991,1.9421 -1.8582,3.4733 -3.1806,4.6147 -1.3314,1.1491 -2.9196,1.8981 -4.7683,2.2682 l -0.003,0 1e-4,6e-4 c -0.8687,0.1737 -1.7791,0.3006 -2.7171,0.3831 -0.9208,0.0808 -1.8835,0.1182 -2.8733,0.1147 -4.7699,-0.0176 -9.9075,-1.0275 -13.8867,-2.7357 -0.2371,1.665 -1.0521,3.4306 -2.6587,4.1743 0.5461,1.3513 0.9887,2.7001 1.2135,4.1493 0.2248,1.4495 0.2466,2.8963 0.038,4.2165 -0.2133,1.3495 -0.6663,2.571 -1.3873,3.5383 l -9e-4,-7e-4 c -0.8369,1.1222 -2.0234,1.9008 -3.6008,2.1455 -3.0326,0.4702 -6.6659,0.1722 -9.9442,-0.0966 -0.8872,-0.0727 -1.7489,-0.1434 -2.513,-0.1932 l -0.009,-6e-4 c -2.582,-0.1679 -5.1643,-0.4061 -7.7464,-0.6861 -2.5578,-0.2773 -5.143,-0.6 -7.7369,-0.9374 -0.8595,-0.1118 -1.9638,-0.3515 -3.1599,-0.611 -2.483,-0.5388 -5.3715,-1.1656 -6.8507,-0.8489 l -0.004,9e-4 c -0.3602,0.0776 -0.6612,0.2896 -0.9346,0.5725 -1.1117,1.1503 -1.3807,2.4406 -3.3758,2.6827 -0.6611,0.0801 -1.327,-0.0685 -1.8956,-0.411 -0.9308,1.1175 -2.0673,1.6674 -3.0971,1.8823 -1.0199,0.2125 -2.0996,0.1332 -3.0461,-0.3296 -0.4176,-0.2041 -0.789,-0.4716 -1.1103,-0.7881 -0.6183,0.5268 -1.4753,0.6635 -2.2621,0.5443 -1.4427,-0.2186 -2.685,-1.2106 -3.4203,-2.4407 -1.0909,-1.8249 -1.9129,-3.7657 -2.1015,-5.7456 -4.4706,-0.4054 -8.9681,-0.4532 -13.4507,-0.2476 0.6023,3.477 -0.5055,5.0641 -2.4712,5.7799 -2.6652,0.9703 -5.8811,0.3557 -8.6885,0.4219 -3.2471,0.0771 -6.5012,0.1352 -9.7628,0.1681 -3.2536,0.0329 -6.508,0.0407 -9.7621,0.0175 -2.7219,-0.0193 -5.4265,-0.146 -8.1185,-0.3474 -2.7052,-0.2023 -5.4064,-0.4794 -8.1047,-0.7987 -2.0583,-0.2436 -3.9488,-0.6834 -5.8581,-1.1274 l -0.002,0 c -1.1361,-0.2643 -2.2793,-0.5302 -3.4394,-0.7512 -0.6794,-0.1293 -1.3698,-0.2216 -2.0609,-0.2552 -1.4834,-0.0726 -1.779,0.1958 -2.4105,0.7694 -2.0809,1.891 -4.181,2.1388 -6.8906,2.4812 -1.2625,1.4637 -2.6958,2.1952 -4.1088,2.3951 -0.9171,0.1296 -1.8204,0.034 -2.6595,-0.2317 -0.9067,-0.287 -1.7501,-0.7755 -2.4592,-1.4076 -0.8341,0.3682 -1.6725,0.6348 -2.5152,0.5689 -1.0052,-0.0786 -1.9622,-0.6104 -2.8278,-1.9544 -1.1212,-1.7409 -1.959,-3.7912 -1.9633,-5.8886 -0.0022,-1.2374 0.2923,-2.5304 0.746,-3.6662 -0.3858,-0.3959 -0.6565,-0.8938 -0.8261,-1.4174 -0.503,-1.5532 -0.2197,-3.6492 0.8383,-5.1502 0.7396,-1.0494 1.5328,-2.065 2.4299,-3.0249 0.901,-0.9641 1.9057,-1.8704 3.0643,-2.6962 l 0.0049,-0.004 c 0.2514,-0.1787 0.506,-0.3348 0.7618,-0.4681 0.2602,-0.1356 0.5265,-0.2517 0.7961,-0.348 1.3854,-0.4951 2.8701,-0.4759 4.2139,-0.005 1.8169,0.6363 3.5813,0.8831 5.3417,0.7195 1.7645,-0.1638 3.5339,-0.74 5.3573,-1.749 2.0922,-1.1577 4.4769,-1.4924 6.832,-1.5758 0.3481,-0.6944 0.2087,-1.4148 0.0298,-2.3397 -0.2414,-1.2482 -0.5448,-2.8193 -0.014,-5.1448 l -1.6103,1.0247 c -0.1319,-2.281 -0.0445,-4.5036 0.2132,-6.7759 l -2.0631,0.8596 c -0.037,-3.8164 0.5569,-7.3833 1.858,-10.9765 1.1567,-3.1948 2.7281,-6.1951 4.3702,-9.0584 1.8712,-3.263 3.5145,-6.5736 4.7292,-9.8916 1.1462,-3.1315 1.9118,-6.2692 2.1273,-9.3794 -0.3822,0.1586 -0.7341,0.3387 -1.0549,0.5397 l 0,0.002 -0.0077,0.005 -3e-4,-5e-4 c -1.3013,0.8169 -2.6822,1.0704 -4.0259,0.6592 -0.5519,-0.1689 -1.0679,-0.4437 -1.5314,-0.7861 l -0.0223,-0.0166 -0.0019,0 c -1.4152,-1.0569 -2.3147,-3.1153 -1.8794,-4.8671 -0.3453,-0.0464 -0.6844,-0.1223 -1.0162,-0.2294 -1.9184,-0.6192 -3.5585,-2.2665 -4.8167,-5.3217 -0.4636,-0.331 -0.852,-0.6922 -1.1573,-1.0709 -1.2156,-1.508 -0.9961,-3.3122 0.4904,-4.51 0.2585,-0.2082 0.4709,-0.382 0.6902,-0.5612 l -8e-4,-9e-4 c 1.1081,-0.9057 2.3334,-1.907 3.6031,-2.6858 l 0.0011,-5e-4 -10e-5,-1e-4 c 2.154,-1.3209 3.5468,-2.4409 4.5866,-4.8026 0.5218,-1.1853 1.2632,-2.409 2.2291,-3.4521 1.9071,-2.0602 4.6156,-3.4532 7.2409,-4.4208 z"
   id="path14"
   inkscape:connector-curvature="0"
   style="fill:#000000;fill-rule:nonzero" />
  <path
   class="fil3"
   d="m 49.5486,111.038 c -0.1812,3.3515 -0.9835,6.7204 -2.21,10.0711 -1.2364,3.3774 -2.9036,6.7375 -4.7996,10.0438 -1.6213,2.8269 -3.17,5.7817 -4.2998,8.9022 -1.0448,2.8852 -1.7359,5.9206 -1.8024,9.1416 l 2.2698,-0.9457 c -0.2733,2.1875 -0.5373,4.3858 -0.498,6.5944 l 2.4263,-1.544 c -0.8051,2.476 -1.243,4.6209 -0.7367,7.2392 0.217,1.287 0.152,1.9643 0.2794,2.5457 0.1639,0.7475 0.5784,1.3369 1.6029,2.8603 0.9791,1.5116 2.118,3.2683 4.0177,4.1664 1.3361,-0.0697 2.6731,-0.1177 4.0106,-0.1497 -0.1877,-1.7769 0.4284,-3.6217 1.9005,-4.7294 -0.8628,1.3622 -1.1273,3.1226 -0.8241,4.7067 1.1062,-0.0199 2.2126,-0.03 3.3187,-0.0342 0.0363,-2.6077 1.662,-5.3374 4.24,-5.6379 -2.291,1.0417 -3.4617,4.103 -3.0441,6.4886 l -0.1062,0.1425 c -6.9957,0.0125 -14.0441,-0.007 -20.879,1.6143 -2.2249,0.5278 -4.4386,1.4635 -6.6999,1.7699 -0.9038,0.1225 -1.8101,0.1211 -3.0751,0.009 -3.3366,-0.2955 -6.7039,-0.291 -9.3336,0.7211 -3.1011,1.1934 -4.9878,4.1745 -4.9821,7.439 0.0041,1.901 0.7933,3.7754 1.8071,5.3496 0.6673,1.036 1.359,1.4425 2.0622,1.4974 0.539,0.0421 1.1134,-0.1098 1.701,-0.3439 -0.6731,-0.8228 -1.1301,-1.7855 -1.2706,-2.779 -0.0945,-0.6684 -0.1441,-1.3248 -0.0854,-1.9387 0.0312,-0.3267 0.0928,-0.6399 0.1939,-0.935 0.4172,-1.2179 1.3509,-0.5293 1.0608,0.0439 -0.1472,0.2908 -0.2281,0.6238 -0.2625,0.9849 -0.0498,0.5208 -0.004,1.1041 0.0814,1.7081 0.1623,1.148 0.8576,2.2611 1.8501,3.0814 0.5637,0.4659 1.2223,0.835 1.9323,1.0598 0.7053,0.2234 1.4603,0.3044 2.2219,0.1967 1.5562,-0.2201 2.7517,-1.1643 3.7259,-2.3428 2.6181,-0.3636 4.6977,-0.4294 6.7385,-2.2835 0.8401,-0.7631 1.2332,-1.1201 3.1291,-1.0272 0.739,0.0362 1.4712,0.1325 2.1977,0.2708 1.2122,0.2309 2.3509,0.4958 3.4824,0.759 l -10e-5,4e-4 c 1.8773,0.4366 3.7362,0.869 5.7508,1.1074 2.6901,0.3184 5.3782,0.5943 8.0617,0.7949 2.6967,0.2017 5.3814,0.3284 8.0483,0.3474 3.2492,0.0231 6.4998,0.0153 9.7503,-0.0175 3.2427,-0.0328 6.4928,-0.0909 9.7472,-0.1681 2.6756,-0.0632 5.8466,0.556 8.3721,-0.3635 3.593,-1.3082 1.3994,-6.6507 0.5515,-8.9798 l 2.1946,0.2778 c -0.3432,-3.1386 -1.8454,-6.3159 -3.8096,-8.759 1.0798,-0.7381 2.1685,-1.0657 3.5241,-1.3664 -2.1169,-2.5219 -4.5024,-4.6174 -7.2206,-6.43 1.1076,-0.7673 2.2716,-1.4696 3.553,-1.9019 -1.6436,-1.469 -4.0451,-3.4988 -5.6875,-4.653 3.2121,0.756 5.3022,2.936 7.6749,5.1159 -0.6503,0.1773 -1.2994,0.3431 -1.9321,0.5779 l -0.0019,0 c -0.6414,0.2377 -1.2469,0.526 -1.8167,0.865 2.7778,1.9674 5.0768,4.3768 7.1937,7.022 -1.2699,0.1743 -2.7147,0.3706 -3.884,1.019 2.0466,2.9521 3.267,6.0538 3.4916,9.6517 l -1.7949,-0.2271 c 0.2362,0.7042 0.4248,1.3551 0.5692,1.9572 4.5372,-0.214 9.0908,-0.1716 13.6167,0.2319 0.0332,-1.9179 0.7092,-3.8428 2.348,-5.7001 2.4858,-2.8169 5.4215,-4.2602 8.5899,-4.7891 2.3351,-0.3898 4.7901,-0.2799 7.2796,0.1426 -5.4679,-3.837 -8.4681,-7.8121 -9.4063,-12.046 -1.3393,-6.0446 1.3415,-12.4081 5.4561,-16.3544 -3.5294,5.018 -5.478,11.6517 -4.4835,16.1396 1.5457,6.9752 8.1802,11.007 13.7985,14.5122 -4.0972,-1.0065 -8.2184,-2.121 -12.4804,-1.4096 -2.9535,0.493 -5.6903,1.8386 -8.0079,4.4649 -1.6284,1.8455 -2.1919,3.7546 -2.0848,5.6395 0.1089,1.917 0.9066,3.8303 1.9874,5.6383 0.583,0.9754 1.5649,1.7904 2.7133,1.9643 0.5048,0.0765 1.0896,0.022 1.486,-0.3315 -0.0746,-0.116 -0.1442,-0.2355 -0.2088,-0.3584 -0.427,-0.8118 -0.6346,-1.7648 -0.5896,-2.7419 0.0244,-0.5281 0.1226,-1.0644 0.3,-1.5899 0.3477,-1.0302 1.2693,-0.4838 1.0794,-0.0377 -0.233,0.5464 -0.3577,1.1141 -0.3834,1.6706 -0.0369,0.8007 0.1309,1.5773 0.4764,2.2341 0.3388,0.6442 0.8485,1.1727 1.5016,1.4921 0.7455,0.3644 1.6029,0.4148 2.4053,0.2476 0.8411,-0.1755 1.7712,-0.627 2.5377,-1.5463 -0.138,-0.1569 -0.2637,-0.3288 -0.3756,-0.5148 l 0,-0.002 c -0.4247,-0.7059 -0.6501,-1.6136 -0.5627,-2.645 0.0883,-1.0468 1.1136,-0.8417 1.0189,-0.1282 -0.1202,0.9014 0.0489,1.6784 0.3984,2.26 l 8e-4,-5e-4 c 0.2338,0.3886 0.5473,0.689 0.9054,0.8774 0.3493,0.1838 0.7461,0.2621 1.1558,0.2124 1.435,-0.174 1.901,-1.4783 2.7742,-2.3819 0.4023,-0.4162 0.863,-0.732 1.4464,-0.8577 l 0.004,-9e-4 c 1.6895,-0.3618 4.6897,0.2892 7.2687,0.8489 1.1905,0.2583 2.2897,0.4969 3.0779,0.5994 2.5559,0.3325 5.1211,0.6524 7.7133,0.9334 2.5677,0.2785 5.1358,0.5153 7.7036,0.6823 l 0.009,6e-4 c 0.8402,0.0547 1.6721,0.123 2.5286,0.1932 3.23,0.2649 6.8097,0.5585 9.7136,0.1082 1.2962,-0.2011 2.2692,-0.8384 2.9533,-1.7561 l 0,-0.002 c 0.6224,-0.835 1.0157,-1.9036 1.2037,-3.0931 0.1926,-1.2189 0.1714,-2.5613 -0.038,-3.9117 -0.5449,-3.5144 -2.3244,-6.7285 -4.231,-9.1831 -0.5427,-0.6986 0.1608,-0.8618 0.7236,-0.3087 1.1265,1.1068 2.1771,2.8815 2.8402,4.2927 l 0.0201,-0.009 c 2.9915,-1.7705 2.4396,-6.1353 1.1605,-8.0456 -0.5696,-0.8511 0.5021,-0.584 0.8447,-0.0951 0.6909,0.9857 1.1575,2.7762 1.1501,3.8176 3.9029,1.7423 9.0421,2.7771 13.8081,2.7947 0.9355,0.003 1.8688,-0.0341 2.7873,-0.1147 0.9013,-0.0792 1.7749,-0.201 2.6077,-0.3675 l 0.003,0 -1e-4,-6e-4 c 1.6805,-0.3364 3.1167,-1.0107 4.3113,-2.0418 1.2037,-1.0389 2.173,-2.4457 2.9112,-4.2397 0.2991,-0.7271 0.4094,-1.3428 0.3587,-1.8546 -0.0415,-0.4185 -0.1933,-0.7697 -0.4381,-1.0571 -0.2569,-0.3017 -0.623,-0.5449 -1.0781,-0.7321 -1.1125,-0.4578 -2.7166,-0.5692 -4.5689,-0.3857 -5.9614,0.5908 -10.9239,-0.8388 -15.5609,-3.7182 -4.5928,-2.8518 -8.8529,-7.1256 -13.4538,-12.2643 -7.7324,-8.636 -15.6837,-13.7134 -23.5701,-15.0464 -1.5292,-0.2584 -3.0532,-0.3765 -4.5698,-0.353 -1.518,0.0237 -3.0337,0.189 -4.5443,0.4972 l -0.003,6e-4 c -3.7114,0.7574 -7.4405,1.1695 -11.2177,1.167 -3.7811,-0.003 -7.6059,-0.42 -11.504,-1.3211 -2.0747,-0.4797 -4.1559,-0.825 -6.2407,-1.0471 -2.0913,-0.2229 -4.1822,-0.3224 -6.2703,-0.3101 -2.1021,0.0124 -4.2095,-0.1912 -6.2554,-0.763 -2.0592,-0.5755 -4.0549,-1.5227 -5.919,-2.9948 -1.2726,-1.005 -2.4986,-1.766 -3.7088,-2.2429 -1.1844,-0.4668 -2.3541,-0.66 -3.5388,-0.5415 l -0.4223,0.0423 -0.1089,-0.4114 c -0.7517,-2.8402 -0.9592,-5.588 -0.8558,-8.2826 0.1079,-2.8084 0.5639,-5.5752 1.0797,-8.3321 0.8618,0.0381 1.7259,0.0743 2.5677,0.2768 -0.3651,-2.6308 -1.4164,-5.0522 -2.4924,-7.4573 0.912,0.0566 1.7917,0.1209 2.6768,0.3823 -0.5237,-1.8902 -1.4414,-3.3369 -2.7523,-4.7525 0.7812,-0.2968 1.5109,-0.5445 2.3553,-0.5875 -0.9646,-1.8294 -2.3866,-3.2355 -3.8636,-4.6559 l 2.6859,-0.632 C 75.941,87.4991 73.8959,85.5048 71.5609,83.904 l -0.03,-0.0206 -0.0246,-0.0224 c -2.5505,-2.3268 -5.1834,-4.5857 -7.2777,-7.3556 l 0,-0.0013 -6e-4,5e-4 c -1.8386,-2.4321 -3.2726,-5.1421 -5.1041,-7.5652 -1.5316,2.879 -0.8905,6.1685 -0.1501,9.2126 0.6202,2.5498 1.7237,4.6716 4.3352,5.46 1.7205,0.5193 1.5303,2.3164 0.3207,3.4208 -2.4392,2.227 -9.2019,1.1025 -5.6657,-2.2449 0.9543,-0.9032 0.8549,-1.9771 0.4276,-3.3139 -0.2146,-0.6715 -0.3886,-1.3543 -0.5288,-2.0469 -1.8854,0.2723 -3.7867,0.6835 -5.6898,1.385 -2.3791,0.8771 -5.0407,2.2181 -6.8287,4.1497 -0.8798,0.9501 -1.5612,2.0787 -2.0455,3.1787 -1.1238,2.5528 -2.6534,3.8245 -4.981,5.2518 l -0.0011,5e-4 1e-4,1e-4 c -1.1994,0.7358 -2.4021,1.7186 -3.4899,2.6076 l -0.0019,0 c -0.2538,0.2074 -0.5042,0.4121 -0.6953,0.5661 -1.0611,0.8551 -1.2097,2.0261 -0.338,3.1076 0.2346,0.2911 0.5353,0.5735 0.897,0.8385 0.0407,6e-4 0.0806,-4e-4 0.1198,-0.002 0.0898,-0.005 0.1805,-0.0162 0.2698,-0.0346 0.274,-0.0566 0.5436,-0.1845 0.7589,-0.4086 0.5868,-0.6104 1.6002,-0.4795 0.9252,0.4505 -0.3834,0.5283 -0.9214,0.8155 -1.4713,0.9319 1.1005,2.4602 2.4564,3.7944 4.0018,4.2932 1.4616,0.4717 3.1293,0.2127 4.9349,-0.5371 0.9584,-0.3978 1.5636,0.3896 0.9229,0.6832 -1.4401,0.6603 -2.8213,1.0547 -4.122,1.0864 -0.4796,1.4059 0.32,3.1665 1.4528,4.0124 l -7e-4,9e-4 0.0211,0.0157 c 0.3719,0.2748 0.7834,0.4981 1.2266,0.6337 1.0527,0.3221 2.1538,0.111 3.2079,-0.5512 l 0.0019,-0.002 0.0077,-0.005 9e-4,0.001 c 0.3972,-0.2487 0.8186,-0.4642 1.2634,-0.6449 0.4476,-0.1819 0.9259,-0.3334 1.4338,-0.4531 2.5545,-0.6025 5.8586,-0.3947 9.8607,0.7405 2.7143,0.7698 5.61,1.7883 8.4245,0.7885 -0.6142,-0.6675 -1.009,-1.3839 -1.3824,-2.2025 0.8729,-0.1164 1.7217,-0.2393 2.5697,-0.5 l -0.0221,-0.0183 -10e-4,10e-4 c -0.6528,-0.5418 -1.1255,-1.1437 -1.4948,-1.8975 0.4996,-0.5711 1.0891,-1.0408 1.6178,-1.5819 -1.677,-0.4652 -3.0449,-1.2133 -4.8303,-1.4206 l 0.3177,-0.6355 -8e-4,-4e-4 c 0.4986,-1.0048 1.112,-1.9551 1.79,-2.8472 -1.4416,-0.1491 -2.8953,-0.1209 -4.3485,-0.0925 l -0.002,0 -1.2727,0.0243 c 0.552,-1.2143 1.1641,-2.2725 2.0765,-3.2588 -0.0891,-0.0377 -0.1799,-0.0736 -0.2716,-0.1076 l -0.0019,0 C 60.72,96.2504 57.7418,95.9838 55.7378,96.405 c 2.2379,-1.1012 4.9453,-1.2344 7.2827,-0.368 l -2e-4,6e-4 c 0.3359,0.1246 0.6693,0.2775 0.9969,0.4624 l 0.0078,0.0044 0.5776,0.3258 c -0.7581,0.744 -1.5599,1.5673 -2.1144,2.4837 1.9971,-0.0375 3.9149,0.0479 5.8859,0.3597 -0.8994,1.0817 -1.7704,2.1896 -2.4577,3.4217 1.7454,0.3564 3.2491,1.245 5.0489,1.5377 -0.622,0.9314 -1.3557,1.6508 -2.1509,2.4179 0.2073,0.3031 0.5189,0.6423 0.9159,0.9718 l 0,0.002 c 0.4564,0.3784 0.9917,0.6942 1.4872,1.0162 -1.0199,0.4443 -2.0537,0.8487 -3.1523,1.0532 0.443,0.6539 1.0355,1.1938 1.5956,1.7451 -3.6916,1.7256 -6.7074,0.9114 -10.4256,-0.1548 -3.0263,-0.8583 -6.5728,-1.4986 -9.6866,-0.6468 z m -10.6454,53.0281 -0.0029,-0.001 c -2.1829,0.079 -4.4236,0.3765 -6.3639,1.4501 -1.9471,1.0775 -3.8455,1.6935 -5.7479,1.8702 -1.9065,0.1771 -3.8088,-0.0871 -5.7597,-0.7703 -1.1313,-0.3961 -2.3819,-0.412 -3.5497,0.005 -0.2272,0.0811 -0.4516,0.179 -0.6711,0.2934 -0.224,0.1168 -0.4396,0.2482 -0.6446,0.3939 l -0.0049,0.004 c -1.0992,0.7834 -2.0542,1.6452 -2.9121,2.5632 -0.8617,0.922 -1.6275,1.9031 -2.3439,2.9195 -0.8819,1.2511 -1.1208,2.9889 -0.7055,4.2714 0.0828,0.2556 0.1951,0.505 0.3468,0.7274 1.0093,-1.8255 2.5499,-2.9931 4.4068,-3.7078 2.809,-1.0811 6.3182,-1.0937 9.775,-0.7875 1.1973,0.106 2.0398,0.1093 2.8563,-10e-4 2.2235,-0.3011 4.413,-1.2351 6.6023,-1.7543 3.2361,-0.7675 6.5607,-1.0995 9.8734,-1.324 -1.3758,-1.0465 -2.2961,-2.4664 -3.1131,-3.7277 -0.7053,-1.0889 -1.3272,-2.0487 -2.0413,-2.4235 z M 57.3175,72.6407 c -0.683,-1.0506 -1.3733,-2.2131 -2.3006,-3.074 -0.8054,1.951 -1.4968,4.7033 -1.8655,7.3012 -0.1244,0.8764 -0.2155,1.7591 -0.2596,2.6433 1.6066,-0.509 3.2069,-0.8363 4.795,-1.0671 -0.2946,-1.8775 -0.3718,-3.8212 -0.3693,-5.8034 z"
   id="path16"
   inkscape:connector-curvature="0"
   style="fill:#f8e73d;fill-rule:nonzero" />
  <path
   class="fil2"
   d="m 163.392,180.638 c 0.3591,1.9671 -0.361,3.0923 -1.5335,3.5602 -1.4607,0.5828 -2.931,0.3315 -4.3703,0.0844 -1.3522,-0.2321 -2.7072,-0.5804 -4.0879,-0.5742 1.1325,-0.5421 3.1931,-0.6652 4.7012,-0.5363 1.2667,0.1082 2.619,0.3124 3.6248,-0.4167 1.2792,-0.9273 0.2186,-3.6097 -0.2461,-5.3144 0.8746,0.9484 1.6703,1.8737 1.9118,3.197 z"
   id="path18"
   inkscape:connector-curvature="0"
   style="fill:#000000;fill-rule:nonzero" />
  <path
   class="fil2"
   d="m 43.6648,93.332 c 0.3225,-1.05 1.4067,-1.7462 2.4633,-1.6802 1.2176,0.0761 2.4444,0.1135 3.6621,0.0162 0.7868,-0.063 1.6302,-0.1856 2.2874,-0.3797 -0.152,0.5816 -0.6357,1.054 -1.1819,1.2349 0.1554,0.8896 -0.1401,1.8312 -0.7861,2.4772 l -0.0019,0 c -0.462,0.4619 -1.0849,0.7643 -1.7781,0.8173 -0.7863,0.0592 -1.5859,-0.2239 -2.1676,-0.7788 -0.691,-0.6589 -0.8494,-1.4134 -0.9091,-2.2775 -0.5859,-0.0225 -1.1104,0.2445 -1.5881,0.5706 z m 2.5792,-0.6732 c -0.0144,0.5717 0.1612,1.1307 0.4997,1.5382 0.3896,0.4692 1.0011,0.6906 1.5879,0.6197 1.0516,-0.128 1.7713,-1.1502 1.574,-2.1693 -1.2142,0.112 -2.4461,0.0838 -3.6616,0.0114 z"
   id="path20"
   inkscape:connector-curvature="0"
   style="fill:#000000;fill-rule:nonzero" />
  <circle
   class="fil0"
   cx="42.765499"
   cy="102.86"
   r="0.69569403"
   id="circle22"
   d="m 43.461193,102.86 c 0,0.38422 -0.311473,0.69569 -0.695694,0.69569 -0.384221,0 -0.695694,-0.31147 -0.695694,-0.69569 0,-0.38422 0.311473,-0.69569 0.695694,-0.69569 0.384221,0 0.695694,0.31147 0.695694,0.69569 z"
   sodipodi:cx="42.765499"
   sodipodi:cy="102.86"
   sodipodi:rx="0.69569403"
   sodipodi:ry="0.69569403"
   style="fill:#000000" />
  <circle
   class="fil0"
   cx="41.330101"
   cy="101.051"
   r="0.69569403"
   id="circle24"
   d="m 42.025795,101.051 c 0,0.38422 -0.311473,0.6957 -0.695694,0.6957 -0.384221,0 -0.695694,-0.31148 -0.695694,-0.6957 0,-0.38422 0.311473,-0.69569 0.695694,-0.69569 0.384221,0 0.695694,0.31147 0.695694,0.69569 z"
   sodipodi:cx="41.330101"
   sodipodi:cy="101.051"
   sodipodi:rx="0.69569403"
   sodipodi:ry="0.69569403"
   style="fill:#000000" />
  <circle
   class="fil0"
   cx="42.997002"
   cy="99.427498"
   r="0.69569403"
   id="circle26"
   d="m 43.692696,99.427498 c 0,0.384221 -0.311473,0.695692 -0.695694,0.695692 -0.384222,0 -0.695694,-0.311471 -0.695694,-0.695692 0,-0.384221 0.311472,-0.695694 0.695694,-0.695694 0.384221,0 0.695694,0.311473 0.695694,0.695694 z"
   sodipodi:cx="42.997002"
   sodipodi:cy="99.427498"
   sodipodi:rx="0.69569403"
   sodipodi:ry="0.69569403"
   style="fill:#000000" />
  <circle
   class="fil0"
   cx="39.2463"
   cy="101.979"
   r="0.69569403"
   id="circle28"
   d="m 39.941994,101.979 c 0,0.38422 -0.311473,0.69569 -0.695694,0.69569 -0.384221,0 -0.695694,-0.31147 -0.695694,-0.69569 0,-0.38422 0.311473,-0.6957 0.695694,-0.6957 0.384221,0 0.695694,0.31148 0.695694,0.6957 z"
   sodipodi:cx="39.2463"
   sodipodi:cy="101.979"
   sodipodi:rx="0.69569403"
   sodipodi:ry="0.69569403"
   style="fill:#000000" />
  <ellipse
   class="fil0"
   cx="79.383499"
   cy="146.192"
   rx="1.4075"
   ry="1.1823"
   id="ellipse30"
   d="m 80.790999,146.192 c 0,0.65297 -0.630159,1.1823 -1.4075,1.1823 -0.777341,0 -1.4075,-0.52933 -1.4075,-1.1823 0,-0.65296 0.630159,-1.1823 1.4075,-1.1823 0.777341,0 1.4075,0.52934 1.4075,1.1823 z"
   sodipodi:cx="79.383499"
   sodipodi:cy="146.192"
   sodipodi:rx="1.4075"
   sodipodi:ry="1.1823"
   style="fill:#000000" />
  <ellipse
   class="fil0"
   cx="43.914501"
   cy="158.015"
   rx="1.4075"
   ry="1.1823"
   id="ellipse32"
   d="m 45.322001,158.015 c 0,0.65297 -0.630159,1.1823 -1.4075,1.1823 -0.777341,0 -1.4075,-0.52933 -1.4075,-1.1823 0,-0.65297 0.630159,-1.1823 1.4075,-1.1823 0.777341,0 1.4075,0.52933 1.4075,1.1823 z"
   sodipodi:cx="43.914501"
   sodipodi:cy="158.015"
   sodipodi:rx="1.4075"
   sodipodi:ry="1.1823"
   style="fill:#000000" />
  <ellipse
   class="fil0"
   cx="74.203903"
   cy="151.259"
   rx="1.4075"
   ry="1.1823"
   id="ellipse34"
   d="m 75.611403,151.259 c 0,0.65297 -0.630159,1.1823 -1.4075,1.1823 -0.777341,0 -1.4075,-0.52933 -1.4075,-1.1823 0,-0.65296 0.630159,-1.1823 1.4075,-1.1823 0.777341,0 1.4075,0.52934 1.4075,1.1823 z"
   sodipodi:cx="74.203903"
   sodipodi:cy="151.259"
   sodipodi:rx="1.4075"
   sodipodi:ry="1.1823"
   style="fill:#000000" />
  <ellipse
   class="fil0"
   cx="84.225304"
   cy="150.92101"
   rx="1.4075"
   ry="1.1823"
   id="ellipse36"
   d="m 85.632804,150.92101 c 0,0.65296 -0.63016,1.1823 -1.4075,1.1823 -0.777341,0 -1.4075,-0.52934 -1.4075,-1.1823 0,-0.65297 0.630159,-1.1823 1.4075,-1.1823 0.77734,0 1.4075,0.52933 1.4075,1.1823 z"
   sodipodi:cx="84.225304"
   sodipodi:cy="150.92101"
   sodipodi:rx="1.4075"
   sodipodi:ry="1.1823"
   style="fill:#000000" />
  <ellipse
   class="fil0"
   cx="56.300499"
   cy="158.015"
   rx="1.4075"
   ry="1.1823"
   id="ellipse38"
   d="m 57.707999,158.015 c 0,0.65297 -0.630159,1.1823 -1.4075,1.1823 -0.777341,0 -1.4075,-0.52933 -1.4075,-1.1823 0,-0.65297 0.630159,-1.1823 1.4075,-1.1823 0.777341,0 1.4075,0.52933 1.4075,1.1823 z"
   sodipodi:cx="56.300499"
   sodipodi:cy="158.015"
   sodipodi:rx="1.4075"
   sodipodi:ry="1.1823"
   style="fill:#000000" />
  <ellipse
   class="fil0"
   cx="52.922501"
   cy="161.843"
   rx="1.4075"
   ry="1.1823"
   id="ellipse40"
   d="m 54.330001,161.843 c 0,0.65297 -0.63016,1.1823 -1.4075,1.1823 -0.777341,0 -1.4075,-0.52933 -1.4075,-1.1823 0,-0.65296 0.630159,-1.1823 1.4075,-1.1823 0.77734,0 1.4075,0.52934 1.4075,1.1823 z"
   sodipodi:cx="52.922501"
   sodipodi:cy="161.843"
   sodipodi:rx="1.4075"
   sodipodi:ry="1.1823"
   style="fill:#000000" />
  <ellipse
   class="fil0"
   cx="64.632896"
   cy="154.299"
   rx="1.4075"
   ry="1.1823"
   id="ellipse42"
   d="m 66.040396,154.299 c 0,0.65296 -0.630159,1.1823 -1.4075,1.1823 -0.77734,0 -1.4075,-0.52934 -1.4075,-1.1823 0,-0.65297 0.63016,-1.1823 1.4075,-1.1823 0.777341,0 1.4075,0.52933 1.4075,1.1823 z"
   sodipodi:cx="64.632896"
   sodipodi:cy="154.299"
   sodipodi:rx="1.4075"
   sodipodi:ry="1.1823"
   style="fill:#000000" />
  <ellipse
   class="fil0"
   cx="100.102"
   cy="156.88901"
   rx="1.4075"
   ry="1.1823"
   id="ellipse44"
   d="m 101.5095,156.88901 c 0,0.65296 -0.63016,1.1823 -1.4075,1.1823 -0.777343,0 -1.407503,-0.52934 -1.407503,-1.1823 0,-0.65297 0.63016,-1.1823 1.407503,-1.1823 0.77734,0 1.4075,0.52933 1.4075,1.1823 z"
   sodipodi:cx="100.102"
   sodipodi:cy="156.88901"
   sodipodi:rx="1.4075"
   sodipodi:ry="1.1823"
   style="fill:#000000" />
  <ellipse
   class="fil0"
   cx="107.759"
   cy="157.00101"
   rx="1.4075"
   ry="1.1823"
   id="ellipse46"
   d="m 109.1665,157.00101 c 0,0.65296 -0.63016,1.1823 -1.4075,1.1823 -0.77734,0 -1.4075,-0.52934 -1.4075,-1.1823 0,-0.65297 0.63016,-1.1823 1.4075,-1.1823 0.77734,0 1.4075,0.52933 1.4075,1.1823 z"
   sodipodi:cx="107.759"
   sodipodi:cy="157.00101"
   sodipodi:rx="1.4075"
   sodipodi:ry="1.1823"
   style="fill:#000000" />
  <ellipse
   class="fil0"
   cx="123.41"
   cy="159.25301"
   rx="1.4075"
   ry="1.1823"
   id="ellipse48"
   d="m 124.8175,159.25301 c 0,0.65296 -0.63016,1.1823 -1.4075,1.1823 -0.77734,0 -1.4075,-0.52934 -1.4075,-1.1823 0,-0.65297 0.63016,-1.1823 1.4075,-1.1823 0.77734,0 1.4075,0.52933 1.4075,1.1823 z"
   sodipodi:cx="123.41"
   sodipodi:cy="159.25301"
   sodipodi:rx="1.4075"
   sodipodi:ry="1.1823"
   style="fill:#000000" />
  <ellipse
   class="fil0"
   cx="150.09599"
   cy="148.106"
   rx="1.4075"
   ry="1.1823"
   id="ellipse50"
   d="m 151.50349,148.106 c 0,0.65297 -0.63016,1.1823 -1.4075,1.1823 -0.77734,0 -1.4075,-0.52933 -1.4075,-1.1823 0,-0.65296 0.63016,-1.1823 1.4075,-1.1823 0.77734,0 1.4075,0.52934 1.4075,1.1823 z"
   sodipodi:cx="150.09599"
   sodipodi:cy="148.106"
   sodipodi:rx="1.4075"
   sodipodi:ry="1.1823"
   style="fill:#000000" />
  <ellipse
   class="fil0"
   cx="160.681"
   cy="151.371"
   rx="1.4075"
   ry="1.1823"
   id="ellipse52"
   d="m 162.0885,151.371 c 0,0.65297 -0.63016,1.1823 -1.4075,1.1823 -0.77734,0 -1.4075,-0.52933 -1.4075,-1.1823 0,-0.65296 0.63016,-1.1823 1.4075,-1.1823 0.77734,0 1.4075,0.52934 1.4075,1.1823 z"
   sodipodi:cx="160.681"
   sodipodi:cy="151.371"
   sodipodi:rx="1.4075"
   sodipodi:ry="1.1823"
   style="fill:#000000" />
  <ellipse
   class="fil0"
   cx="154.713"
   cy="151.371"
   rx="1.4075"
   ry="1.1823"
   id="ellipse54"
   d="m 156.1205,151.371 c 0,0.65297 -0.63016,1.1823 -1.4075,1.1823 -0.77734,0 -1.4075,-0.52933 -1.4075,-1.1823 0,-0.65296 0.63016,-1.1823 1.4075,-1.1823 0.77734,0 1.4075,0.52934 1.4075,1.1823 z"
   sodipodi:cx="154.713"
   sodipodi:cy="151.371"
   sodipodi:rx="1.4075"
   sodipodi:ry="1.1823"
   style="fill:#000000" />
  <ellipse
   class="fil0"
   cx="146.944"
   cy="153.623"
   rx="1.4075"
   ry="1.1823"
   id="ellipse56"
   d="m 148.3515,153.623 c 0,0.65297 -0.63016,1.1823 -1.4075,1.1823 -0.77734,0 -1.4075,-0.52933 -1.4075,-1.1823 0,-0.65297 0.63016,-1.1823 1.4075,-1.1823 0.77734,0 1.4075,0.52933 1.4075,1.1823 z"
   sodipodi:cx="146.944"
   sodipodi:cy="153.623"
   sodipodi:rx="1.4075"
   sodipodi:ry="1.1823"
   style="fill:#000000" />
  <ellipse
   class="fil0"
   cx="140.86301"
   cy="155.425"
   rx="1.4075"
   ry="1.1823"
   id="ellipse58"
   d="m 142.27051,155.425 c 0,0.65297 -0.63016,1.1823 -1.4075,1.1823 -0.77734,0 -1.4075,-0.52933 -1.4075,-1.1823 0,-0.65296 0.63016,-1.1823 1.4075,-1.1823 0.77734,0 1.4075,0.52934 1.4075,1.1823 z"
   sodipodi:cx="140.86301"
   sodipodi:cy="155.425"
   sodipodi:rx="1.4075"
   sodipodi:ry="1.1823"
   style="fill:#000000" />
  <ellipse
   class="fil0"
   cx="128.815"
   cy="161.843"
   rx="1.4075"
   ry="1.1823"
   id="ellipse60"
   d="m 130.2225,161.843 c 0,0.65297 -0.63016,1.1823 -1.4075,1.1823 -0.77734,0 -1.4075,-0.52933 -1.4075,-1.1823 0,-0.65296 0.63016,-1.1823 1.4075,-1.1823 0.77734,0 1.4075,0.52934 1.4075,1.1823 z"
   sodipodi:cx="128.815"
   sodipodi:cy="161.843"
   sodipodi:rx="1.4075"
   sodipodi:ry="1.1823"
   style="fill:#000000" />
  <ellipse
   class="fil0"
   cx="135.45799"
   cy="160.041"
   rx="1.4075"
   ry="1.1823"
   id="ellipse62"
   d="m 136.86549,160.041 c 0,0.65297 -0.63016,1.1823 -1.4075,1.1823 -0.77734,0 -1.4075,-0.52933 -1.4075,-1.1823 0,-0.65297 0.63016,-1.1823 1.4075,-1.1823 0.77734,0 1.4075,0.52933 1.4075,1.1823 z"
   sodipodi:cx="135.45799"
   sodipodi:cy="160.041"
   sodipodi:rx="1.4075"
   sodipodi:ry="1.1823"
   style="fill:#000000" />
  <ellipse
   class="fil0"
   cx="128.759"
   cy="180.65401"
   rx="1.9141999"
   ry="1.6079299"
   id="ellipse64"
   d="m 130.6732,180.65401 c 0,0.88803 -0.85701,1.60793 -1.9142,1.60793 -1.05718,0 -1.9142,-0.7199 -1.9142,-1.60793 0,-0.88804 0.85702,-1.60793 1.9142,-1.60793 1.05719,0 1.9142,0.71989 1.9142,1.60793 z"
   sodipodi:cx="128.759"
   sodipodi:cy="180.65401"
   sodipodi:rx="1.9141999"
   sodipodi:ry="1.6079299"
   style="fill:#000000" />
  <ellipse
   class="fil0"
   cx="130.56"
   cy="168.043"
   rx="1.9141999"
   ry="1.6079299"
   id="ellipse66"
   d="m 132.4742,168.043 c 0,0.88803 -0.85702,1.60793 -1.9142,1.60793 -1.05719,0 -1.9142,-0.7199 -1.9142,-1.60793 0,-0.88804 0.85701,-1.60793 1.9142,-1.60793 1.05718,0 1.9142,0.71989 1.9142,1.60793 z"
   sodipodi:cx="130.56"
   sodipodi:cy="168.043"
   sodipodi:rx="1.9141999"
   sodipodi:ry="1.6079299"
   style="fill:#000000" />
  <ellipse
   class="fil0"
   cx="90.699799"
   cy="153.743"
   rx="1.9141999"
   ry="1.6079299"
   id="ellipse68"
   d="m 92.613999,153.743 c 0,0.88803 -0.857017,1.60793 -1.9142,1.60793 -1.057184,0 -1.9142,-0.7199 -1.9142,-1.60793 0,-0.88804 0.857016,-1.60793 1.9142,-1.60793 1.057183,0 1.9142,0.71989 1.9142,1.60793 z"
   sodipodi:cx="90.699799"
   sodipodi:cy="153.743"
   sodipodi:rx="1.9141999"
   sodipodi:ry="1.6079299"
   style="fill:#000000" />
  <ellipse
   class="fil0"
   cx="103.987"
   cy="152.729"
   rx="1.9141999"
   ry="1.6079299"
   id="ellipse70"
   d="m 105.9012,152.729 c 0,0.88804 -0.85702,1.60793 -1.9142,1.60793 -1.05718,0 -1.9142,-0.71989 -1.9142,-1.60793 0,-0.88803 0.85702,-1.60793 1.9142,-1.60793 1.05718,0 1.9142,0.7199 1.9142,1.60793 z"
   sodipodi:cx="103.987"
   sodipodi:cy="152.729"
   sodipodi:rx="1.9141999"
   sodipodi:ry="1.6079299"
   style="fill:#000000" />
  <ellipse
   class="fil0"
   cx="95.203796"
   cy="160.724"
   rx="1.9141999"
   ry="1.6079299"
   id="ellipse72"
   d="m 97.117996,160.724 c 0,0.88803 -0.857016,1.60793 -1.9142,1.60793 -1.057183,0 -1.9142,-0.7199 -1.9142,-1.60793 0,-0.88804 0.857017,-1.60793 1.9142,-1.60793 1.057184,0 1.9142,0.71989 1.9142,1.60793 z"
   sodipodi:cx="95.203796"
   sodipodi:cy="160.724"
   sodipodi:rx="1.9141999"
   sodipodi:ry="1.6079299"
   style="fill:#000000" />
  <ellipse
   class="fil0"
   cx="104.887"
   cy="162.52499"
   rx="1.9141999"
   ry="1.6079299"
   id="ellipse74"
   d="m 106.8012,162.52499 c 0,0.88804 -0.85702,1.60793 -1.9142,1.60793 -1.05718,0 -1.9142,-0.71989 -1.9142,-1.60793 0,-0.88803 0.85702,-1.60793 1.9142,-1.60793 1.05718,0 1.9142,0.7199 1.9142,1.60793 z"
   sodipodi:cx="104.887"
   sodipodi:cy="162.52499"
   sodipodi:rx="1.9141999"
   sodipodi:ry="1.6079299"
   style="fill:#000000" />
  <ellipse
   class="fil0"
   cx="111.643"
   cy="166.804"
   rx="1.9141999"
   ry="1.6079299"
   id="ellipse76"
   d="m 113.5572,166.804 c 0,0.88804 -0.85702,1.60793 -1.9142,1.60793 -1.05719,0 -1.9142,-0.71989 -1.9142,-1.60793 0,-0.88803 0.85701,-1.60793 1.9142,-1.60793 1.05718,0 1.9142,0.7199 1.9142,1.60793 z"
   sodipodi:cx="111.643"
   sodipodi:cy="166.804"
   sodipodi:rx="1.9141999"
   sodipodi:ry="1.6079299"
   style="fill:#000000" />
  <ellipse
   class="fil0"
   cx="104.887"
   cy="169.73199"
   rx="1.9141999"
   ry="1.6079299"
   id="ellipse78"
   d="m 106.8012,169.73199 c 0,0.88804 -0.85702,1.60793 -1.9142,1.60793 -1.05718,0 -1.9142,-0.71989 -1.9142,-1.60793 0,-0.88803 0.85702,-1.60793 1.9142,-1.60793 1.05718,0 1.9142,0.7199 1.9142,1.60793 z"
   sodipodi:cx="104.887"
   sodipodi:cy="169.73199"
   sodipodi:rx="1.9141999"
   sodipodi:ry="1.6079299"
   style="fill:#000000" />
  <ellipse
   class="fil0"
   cx="98.244003"
   cy="167.48"
   rx="1.9141999"
   ry="1.6079299"
   id="ellipse80"
   d="m 100.1582,167.48 c 0,0.88803 -0.857013,1.60793 -1.914197,1.60793 -1.057183,0 -1.9142,-0.7199 -1.9142,-1.60793 0,-0.88804 0.857017,-1.60793 1.9142,-1.60793 1.057184,0 1.914197,0.71989 1.914197,1.60793 z"
   sodipodi:cx="98.244003"
   sodipodi:cy="167.48"
   sodipodi:rx="1.9141999"
   sodipodi:ry="1.6079299"
   style="fill:#000000" />
  <ellipse
   class="fil0"
   cx="99.257401"
   cy="174.686"
   rx="1.9141999"
   ry="1.6079299"
   id="ellipse82"
   d="m 101.1716,174.686 c 0,0.88804 -0.85702,1.60793 -1.914199,1.60793 -1.057184,0 -1.9142,-0.71989 -1.9142,-1.60793 0,-0.88803 0.857016,-1.60793 1.9142,-1.60793 1.057179,0 1.914199,0.7199 1.914199,1.60793 z"
   sodipodi:cx="99.257401"
   sodipodi:cy="174.686"
   sodipodi:rx="1.9141999"
   sodipodi:ry="1.6079299"
   style="fill:#000000" />
  <ellipse
   class="fil0"
   cx="139.56799"
   cy="181.104"
   rx="1.9141999"
   ry="1.6079299"
   id="ellipse84"
   d="m 141.48219,181.104 c 0,0.88804 -0.85701,1.60793 -1.9142,1.60793 -1.05718,0 -1.9142,-0.71989 -1.9142,-1.60793 0,-0.88803 0.85702,-1.60793 1.9142,-1.60793 1.05719,0 1.9142,0.7199 1.9142,1.60793 z"
   sodipodi:cx="139.56799"
   sodipodi:cy="181.104"
   sodipodi:rx="1.9141999"
   sodipodi:ry="1.6079299"
   style="fill:#000000" />
  <ellipse
   class="fil0"
   cx="147.112"
   cy="183.91901"
   rx="1.9141999"
   ry="1.6079299"
   id="ellipse86"
   d="m 149.0262,183.91901 c 0,0.88803 -0.85702,1.60793 -1.9142,1.60793 -1.05718,0 -1.9142,-0.7199 -1.9142,-1.60793 0,-0.88804 0.85702,-1.60793 1.9142,-1.60793 1.05718,0 1.9142,0.71989 1.9142,1.60793 z"
   sodipodi:cx="147.112"
   sodipodi:cy="183.91901"
   sodipodi:rx="1.9141999"
   sodipodi:ry="1.6079299"
   style="fill:#000000" />
  <ellipse
   class="fil0"
   cx="139.118"
   cy="174.686"
   rx="1.9141999"
   ry="1.6079299"
   id="ellipse88"
   d="m 141.0322,174.686 c 0,0.88804 -0.85702,1.60793 -1.9142,1.60793 -1.05719,0 -1.9142,-0.71989 -1.9142,-1.60793 0,-0.88803 0.85701,-1.60793 1.9142,-1.60793 1.05718,0 1.9142,0.7199 1.9142,1.60793 z"
   sodipodi:cx="139.118"
   sodipodi:cy="174.686"
   sodipodi:rx="1.9141999"
   sodipodi:ry="1.6079299"
   style="fill:#000000" />
  <ellipse
   class="fil0"
   cx="147.901"
   cy="175.812"
   rx="1.9141999"
   ry="1.6079299"
   id="ellipse90"
   d="m 149.8152,175.812 c 0,0.88803 -0.85702,1.60793 -1.9142,1.60793 -1.05718,0 -1.9142,-0.7199 -1.9142,-1.60793 0,-0.88804 0.85702,-1.60793 1.9142,-1.60793 1.05718,0 1.9142,0.71989 1.9142,1.60793 z"
   sodipodi:cx="147.901"
   sodipodi:cy="175.812"
   sodipodi:rx="1.9141999"
   sodipodi:ry="1.6079299"
   style="fill:#000000" />
  <ellipse
   class="fil0"
   cx="158.55701"
   cy="172.869"
   rx="2.0669899"
   ry="1.73627"
   id="ellipse92"
   d="m 160.624,172.869 c 0,0.95892 -0.92543,1.73627 -2.06699,1.73627 -1.14157,0 -2.06699,-0.77735 -2.06699,-1.73627 0,-0.95891 0.92542,-1.73627 2.06699,-1.73627 1.14156,0 2.06699,0.77736 2.06699,1.73627 z"
   sodipodi:cx="158.55701"
   sodipodi:cy="172.869"
   sodipodi:rx="2.0669899"
   sodipodi:ry="1.73627"
   style="fill:#000000" />
  <ellipse
   class="fil0"
   cx="165.088"
   cy="161.271"
   rx="2.0669899"
   ry="1.73627"
   id="ellipse94"
   d="m 167.15499,161.271 c 0,0.95891 -0.92543,1.73627 -2.06699,1.73627 -1.14157,0 -2.06699,-0.77736 -2.06699,-1.73627 0,-0.95892 0.92542,-1.73627 2.06699,-1.73627 1.14156,0 2.06699,0.77735 2.06699,1.73627 z"
   sodipodi:cx="165.088"
   sodipodi:cy="161.271"
   sodipodi:rx="2.0669899"
   sodipodi:ry="1.73627"
   style="fill:#000000" />
  <ellipse
   class="fil0"
   cx="139.64101"
   cy="167.577"
   rx="2.0669899"
   ry="1.73627"
   id="ellipse96"
   d="m 141.708,167.577 c 0,0.95891 -0.92543,1.73627 -2.06699,1.73627 -1.14157,0 -2.06699,-0.77736 -2.06699,-1.73627 0,-0.95892 0.92542,-1.73627 2.06699,-1.73627 1.14156,0 2.06699,0.77735 2.06699,1.73627 z"
   sodipodi:cx="139.64101"
   sodipodi:cy="167.577"
   sodipodi:rx="2.0669899"
   sodipodi:ry="1.73627"
   style="fill:#000000" />
  <ellipse
   class="fil0"
   cx="151.23801"
   cy="167.689"
   rx="2.0669899"
   ry="1.73627"
   id="ellipse98"
   d="m 153.305,167.689 c 0,0.95891 -0.92543,1.73627 -2.06699,1.73627 -1.14157,0 -2.06699,-0.77736 -2.06699,-1.73627 0,-0.95892 0.92542,-1.73627 2.06699,-1.73627 1.14156,0 2.06699,0.77735 2.06699,1.73627 z"
   sodipodi:cx="151.23801"
   sodipodi:cy="167.689"
   sodipodi:rx="2.0669899"
   sodipodi:ry="1.73627"
   style="fill:#000000" />
  <ellipse
   class="fil0"
   cx="155.968"
   cy="162.62199"
   rx="2.0669899"
   ry="1.73627"
   id="ellipse100"
   d="m 158.03499,162.62199 c 0,0.95892 -0.92542,1.73627 -2.06699,1.73627 -1.14156,0 -2.06699,-0.77735 -2.06699,-1.73627 0,-0.95891 0.92543,-1.73627 2.06699,-1.73627 1.14157,0 2.06699,0.77736 2.06699,1.73627 z"
   sodipodi:cx="155.968"
   sodipodi:cy="162.62199"
   sodipodi:rx="2.0669899"
   sodipodi:ry="1.73627"
   style="fill:#000000" />
  <ellipse
   class="fil0"
   cx="150.153"
   cy="159.373"
   rx="1.9141999"
   ry="1.6079299"
   id="ellipse102"
   d="m 152.0672,159.373 c 0,0.88804 -0.85702,1.60793 -1.9142,1.60793 -1.05718,0 -1.9142,-0.71989 -1.9142,-1.60793 0,-0.88803 0.85702,-1.60793 1.9142,-1.60793 1.05718,0 1.9142,0.7199 1.9142,1.60793 z"
   sodipodi:cx="150.153"
   sodipodi:cy="159.373"
   sodipodi:rx="1.9141999"
   sodipodi:ry="1.6079299"
   style="fill:#000000" />
  <ellipse
   class="fil0"
   cx="158.823"
   cy="156.895"
   rx="1.9141999"
   ry="1.6079299"
   id="ellipse104"
   d="m 160.7372,156.895 c 0,0.88804 -0.85702,1.60793 -1.9142,1.60793 -1.05719,0 -1.9142,-0.71989 -1.9142,-1.60793 0,-0.88803 0.85701,-1.60793 1.9142,-1.60793 1.05718,0 1.9142,0.7199 1.9142,1.60793 z"
   sodipodi:cx="158.823"
   sodipodi:cy="156.895"
   sodipodi:rx="1.9141999"
   sodipodi:ry="1.6079299"
   style="fill:#000000" />
  <ellipse
   class="fil0"
   cx="161.187"
   cy="166.692"
   rx="1.9141999"
   ry="1.6079299"
   id="ellipse106"
   d="m 163.1012,166.692 c 0,0.88804 -0.85702,1.60793 -1.9142,1.60793 -1.05719,0 -1.9142,-0.71989 -1.9142,-1.60793 0,-0.88803 0.85701,-1.60793 1.9142,-1.60793 1.05718,0 1.9142,0.7199 1.9142,1.60793 z"
   sodipodi:cx="161.187"
   sodipodi:cy="166.692"
   sodipodi:rx="1.9141999"
   sodipodi:ry="1.6079299"
   style="fill:#000000" />
  <ellipse
   class="fil0"
   cx="121.721"
   cy="152.722"
   rx="1.4075"
   ry="1.1823"
   id="ellipse108"
   d="m 123.1285,152.722 c 0,0.65297 -0.63016,1.1823 -1.4075,1.1823 -0.77734,0 -1.4075,-0.52933 -1.4075,-1.1823 0,-0.65297 0.63016,-1.1823 1.4075,-1.1823 0.77734,0 1.4075,0.52933 1.4075,1.1823 z"
   sodipodi:cx="121.721"
   sodipodi:cy="152.722"
   sodipodi:rx="1.4075"
   sodipodi:ry="1.1823"
   style="fill:#000000" />
  <ellipse
   class="fil0"
   cx="127.802"
   cy="152.83501"
   rx="1.4075"
   ry="1.1823"
   id="ellipse110"
   d="m 129.2095,152.83501 c 0,0.65296 -0.63016,1.1823 -1.4075,1.1823 -0.77734,0 -1.4075,-0.52934 -1.4075,-1.1823 0,-0.65297 0.63016,-1.1823 1.4075,-1.1823 0.77734,0 1.4075,0.52933 1.4075,1.1823 z"
   sodipodi:cx="127.802"
   sodipodi:cy="152.83501"
   sodipodi:rx="1.4075"
   sodipodi:ry="1.1823"
   style="fill:#000000" />
  <ellipse
   class="fil0"
   cx="83.340599"
   cy="173.319"
   rx="2.0669899"
   ry="1.73627"
   id="ellipse112"
   d="m 85.407589,173.319 c 0,0.95892 -0.925423,1.73627 -2.06699,1.73627 -1.141567,0 -2.06699,-0.77735 -2.06699,-1.73627 0,-0.95892 0.925423,-1.73627 2.06699,-1.73627 1.141567,0 2.06699,0.77735 2.06699,1.73627 z"
   sodipodi:cx="83.340599"
   sodipodi:cy="173.319"
   sodipodi:rx="2.0669899"
   sodipodi:ry="1.73627"
   style="fill:#000000" />
  <ellipse
   class="fil0"
   cx="67.914398"
   cy="161.94701"
   rx="2.0669899"
   ry="1.73627"
   id="ellipse114"
   d="m 69.981388,161.94701 c 0,0.95891 -0.925423,1.73627 -2.06699,1.73627 -1.141567,0 -2.06699,-0.77736 -2.06699,-1.73627 0,-0.95892 0.925423,-1.73627 2.06699,-1.73627 1.141567,0 2.06699,0.77735 2.06699,1.73627 z"
   sodipodi:cx="67.914398"
   sodipodi:cy="161.94701"
   sodipodi:rx="2.0669899"
   sodipodi:ry="1.73627"
   style="fill:#000000" />
  <ellipse
   class="fil0"
   cx="49.222801"
   cy="180.976"
   rx="2.0669899"
   ry="1.73627"
   id="ellipse116"
   d="m 51.289791,180.976 c 0,0.95891 -0.925423,1.73627 -2.06699,1.73627 -1.141567,0 -2.06699,-0.77736 -2.06699,-1.73627 0,-0.95892 0.925423,-1.73627 2.06699,-1.73627 1.141567,0 2.06699,0.77735 2.06699,1.73627 z"
   sodipodi:cx="49.222801"
   sodipodi:cy="180.976"
   sodipodi:rx="2.0669899"
   sodipodi:ry="1.73627"
   style="fill:#000000" />
  <ellipse
   class="fil0"
   cx="62.0592"
   cy="182.215"
   rx="2.0669899"
   ry="1.73627"
   id="ellipse118"
   d="m 64.12619,182.215 c 0,0.95891 -0.925423,1.73627 -2.06699,1.73627 -1.141567,0 -2.06699,-0.77736 -2.06699,-1.73627 0,-0.95892 0.925423,-1.73627 2.06699,-1.73627 1.141567,0 2.06699,0.77735 2.06699,1.73627 z"
   sodipodi:cx="62.0592"
   sodipodi:cy="182.215"
   sodipodi:rx="2.0669899"
   sodipodi:ry="1.73627"
   style="fill:#000000" />
  <ellipse
   class="fil0"
   cx="74.670403"
   cy="182.10201"
   rx="2.0669899"
   ry="1.73627"
   id="ellipse120"
   d="m 76.737392,182.10201 c 0,0.95891 -0.925422,1.73626 -2.066989,1.73626 -1.141567,0 -2.06699,-0.77735 -2.06699,-1.73626 0,-0.95892 0.925423,-1.73627 2.06699,-1.73627 1.141567,0 2.066989,0.77735 2.066989,1.73627 z"
   sodipodi:cx="74.670403"
   sodipodi:cy="182.10201"
   sodipodi:rx="2.0669899"
   sodipodi:ry="1.73627"
   style="fill:#000000" />
  <ellipse
   class="fil0"
   cx="81.313797"
   cy="165.325"
   rx="2.0669899"
   ry="1.73627"
   id="ellipse122"
   d="m 83.380787,165.325 c 0,0.95891 -0.925423,1.73627 -2.06699,1.73627 -1.141567,0 -2.06699,-0.77736 -2.06699,-1.73627 0,-0.95892 0.925423,-1.73627 2.06699,-1.73627 1.141567,0 2.06699,0.77735 2.06699,1.73627 z"
   sodipodi:cx="81.313797"
   sodipodi:cy="165.325"
   sodipodi:rx="2.0669899"
   sodipodi:ry="1.73627"
   style="fill:#000000" />
  <ellipse
   class="fil0"
   cx="44.758999"
   cy="164.10201"
   rx="1.9141999"
   ry="1.6079299"
   id="ellipse124"
   d="m 46.673199,164.10201 c 0,0.88803 -0.857017,1.60792 -1.9142,1.60792 -1.057184,0 -1.9142,-0.71989 -1.9142,-1.60792 0,-0.88804 0.857016,-1.60793 1.9142,-1.60793 1.057183,0 1.9142,0.71989 1.9142,1.60793 z"
   sodipodi:cx="44.758999"
   sodipodi:cy="164.10201"
   sodipodi:rx="1.9141999"
   sodipodi:ry="1.6079299"
   style="fill:#000000" />
  <ellipse
   class="fil0"
   cx="77.525597"
   cy="155.319"
   rx="1.9141999"
   ry="1.6079299"
   id="ellipse126"
   d="m 79.439797,155.319 c 0,0.88804 -0.857017,1.60793 -1.9142,1.60793 -1.057184,0 -1.9142,-0.71989 -1.9142,-1.60793 0,-0.88803 0.857016,-1.60793 1.9142,-1.60793 1.057183,0 1.9142,0.7199 1.9142,1.60793 z"
   sodipodi:cx="77.525597"
   sodipodi:cy="155.319"
   sodipodi:rx="1.9141999"
   sodipodi:ry="1.6079299"
   style="fill:#000000" />
  <ellipse
   class="fil0"
   cx="63.788399"
   cy="167.92999"
   rx="1.9141999"
   ry="1.6079299"
   id="ellipse128"
   d="m 65.702599,167.92999 c 0,0.88804 -0.857017,1.60793 -1.9142,1.60793 -1.057184,0 -1.9142,-0.71989 -1.9142,-1.60793 0,-0.88803 0.857016,-1.60793 1.9142,-1.60793 1.057183,0 1.9142,0.7199 1.9142,1.60793 z"
   sodipodi:cx="63.788399"
   sodipodi:cy="167.92999"
   sodipodi:rx="1.9141999"
   sodipodi:ry="1.6079299"
   style="fill:#000000" />
  <ellipse
   class="fil0"
   cx="75.836601"
   cy="170.858"
   rx="1.9141999"
   ry="1.6079299"
   id="ellipse130"
   d="m 77.750801,170.858 c 0,0.88804 -0.857016,1.60793 -1.9142,1.60793 -1.057183,0 -1.9142,-0.71989 -1.9142,-1.60793 0,-0.88803 0.857017,-1.60793 1.9142,-1.60793 1.057184,0 1.9142,0.7199 1.9142,1.60793 z"
   sodipodi:cx="75.836601"
   sodipodi:cy="170.858"
   sodipodi:rx="1.9141999"
   sodipodi:ry="1.6079299"
   style="fill:#000000" />
  <ellipse
   class="fil0"
   cx="83.268204"
   cy="180.65401"
   rx="1.9141999"
   ry="1.6079299"
   id="ellipse132"
   d="m 85.182404,180.65401 c 0,0.88803 -0.857017,1.60793 -1.9142,1.60793 -1.057184,0 -1.9142,-0.7199 -1.9142,-1.60793 0,-0.88804 0.857016,-1.60793 1.9142,-1.60793 1.057183,0 1.9142,0.71989 1.9142,1.60793 z"
   sodipodi:cx="83.268204"
   sodipodi:cy="180.65401"
   sodipodi:rx="1.9141999"
   sodipodi:ry="1.6079299"
   style="fill:#000000" />
  <ellipse
   class="fil0"
   cx="67.391602"
   cy="176.14999"
   rx="1.9141999"
   ry="1.6079299"
   id="ellipse134"
   d="m 69.305802,176.14999 c 0,0.88804 -0.857017,1.60793 -1.9142,1.60793 -1.057184,0 -1.9142,-0.71989 -1.9142,-1.60793 0,-0.88803 0.857016,-1.60793 1.9142,-1.60793 1.057183,0 1.9142,0.7199 1.9142,1.60793 z"
   sodipodi:cx="67.391602"
   sodipodi:cy="176.14999"
   sodipodi:rx="1.9141999"
   sodipodi:ry="1.6079299"
   style="fill:#000000" />
  <ellipse
   class="fil0"
   cx="54.893002"
   cy="175.812"
   rx="1.9141999"
   ry="1.6079299"
   id="ellipse136"
   d="m 56.807202,175.812 c 0,0.88803 -0.857017,1.60793 -1.9142,1.60793 -1.057184,0 -1.9142,-0.7199 -1.9142,-1.60793 0,-0.88804 0.857016,-1.60793 1.9142,-1.60793 1.057183,0 1.9142,0.71989 1.9142,1.60793 z"
   sodipodi:cx="54.893002"
   sodipodi:cy="175.812"
   sodipodi:rx="1.9141999"
   sodipodi:ry="1.6079299"
   style="fill:#000000" />
  <ellipse
   class="fil0"
   cx="43.2952"
   cy="176.938"
   rx="1.9141999"
   ry="1.6079299"
   id="ellipse138"
   d="m 45.2094,176.938 c 0,0.88804 -0.857016,1.60793 -1.9142,1.60793 -1.057183,0 -1.9142,-0.71989 -1.9142,-1.60793 0,-0.88803 0.857017,-1.60793 1.9142,-1.60793 1.057184,0 1.9142,0.7199 1.9142,1.60793 z"
   sodipodi:cx="43.2952"
   sodipodi:cy="176.938"
   sodipodi:rx="1.9141999"
   sodipodi:ry="1.6079299"
   style="fill:#000000" />
  <ellipse
   class="fil0"
   cx="143.62399"
   cy="161.759"
   rx="1.9141999"
   ry="1.6079299"
   id="ellipse140"
   d="m 145.53819,161.759 c 0,0.88804 -0.85701,1.60793 -1.9142,1.60793 -1.05718,0 -1.9142,-0.71989 -1.9142,-1.60793 0,-0.88803 0.85702,-1.60793 1.9142,-1.60793 1.05719,0 1.9142,0.7199 1.9142,1.60793 z"
   sodipodi:cx="143.62399"
   sodipodi:cy="161.759"
   sodipodi:rx="1.9141999"
   sodipodi:ry="1.6079299"
   style="fill:#000000" />
 </g>
</svg>