<?xml version="1.0" encoding="UTF-8" standalone="no"?>
<!-- Created with Inkscape (http://www.inkscape.org/) -->
<svg id="svg3960" xmlns:rdf="http://www.w3.org/1999/02/22-rdf-syntax-ns#" xmlns="http://www.w3.org/2000/svg" height="360" width="300" version="1.1" xmlns:cc="http://creativecommons.org/ns#" xmlns:xlink="http://www.w3.org/1999/xlink" xmlns:dc="http://purl.org/dc/elements/1.1/">
 <defs id="defs3962">
  <radialGradient id="radialGradient3053" gradientUnits="userSpaceOnUse" cy="161.22" cx="94.604" gradientTransform="matrix(2.771838,-7.1194036e-8,7.119404e-8,2.771838,62.19258,146.43111)" r="10.87">
   <stop id="stop15" stop-color="#FF0" offset="0"/>
   <stop id="stop19" stop-color="#FB0" offset="1"/>
  </radialGradient>
  <radialGradient id="radialGradient3861" gradientUnits="userSpaceOnUse" cx="94.604" cy="161.22" r="10.87" gradientTransform="matrix(-2.771838,-7.1194036e-8,-7.119404e-8,2.771838,687.80752,146.43109)">
   <stop id="stop15-4" stop-color="#FF0" offset="0"/>
   <stop id="stop19-9" stop-color="#FB0" offset="1"/>
  </radialGradient>
  <linearGradient id="linearGradient3063" y2="128.66" xlink:href="#id0" gradientUnits="userSpaceOnUse" x2="100.25" gradientTransform="matrix(4.8652469,0,0,4.8652469,-135.85143,-191.07037)" y1="129.84" x1="101.18"/>
  <linearGradient id="id0" y2="129.13" gradientUnits="userSpaceOnUse" x2="101.14" y1="130.2" x1="101.7">
   <stop id="stop9" stop-color="#FF0" offset="0"/>
   <stop id="stop11" stop-color="#FB0" offset="1"/>
  </linearGradient>
  <linearGradient id="linearGradient3844" y2="28.314" xlink:href="#id0" gradientUnits="userSpaceOnUse" x2="37.455" gradientTransform="matrix(3.5433071,0,0,3.5433071,224.98061,352.37192)" y1="27.134" x1="38.717"/>
 </defs>
 <metadata id="metadata3965">
  <rdf:RDF>
   <cc:Work rdf:about="">
    <dc:format>image/svg+xml</dc:format>
    <dc:type rdf:resource="http://purl.org/dc/dcmitype/StillImage"/>
    <dc:title/>
   </cc:Work>
  </rdf:RDF>
 </metadata>
 <g id="layer1" transform="translate(-224.99425,-353.0625)">
  <path id="path3029" d="m446.74,524.78c2.9349,0,5.315,2.38,5.315,5.315v5.3142c0,2.9349-2.38,5.315-5.315,5.315h-5.315v-15.944zm0,21.259c5.8698,0,10.63-4.7601,10.63-10.63v-5.3142c0-5.8698-4.7601-10.63-10.63-10.63h-10.63v26.574zm-21.26-26.574,5.315,0,0,26.574-5.315,0zm-10.63,0,5.315,0,0,26.574-5.315,0-10.63-16.684,0,16.684-5.315,0,0-26.574,5.315,0,10.63,16.684zm-79.724,0.00035,15.945,0,0,5.315-10.63,0,0,5.3146,10.63,0,0,5.315-10.63,0,0,5.3146,10.63,0,0,5.315-15.945,0zm-21.26-0.00071,5.315,0,0,21.26,10.63,0,0,5.315-15.945,0zm55.809,21.26,5.3135,0c4.4022,0,7.9724-3.5702,7.9724-7.9724s-3.6365-7.9572-7.9724-7.9724h-5.3135v5.315h5.3135c1.4673,0,2.6575,1.1902,2.6575,2.6575s-1.1902,2.6575-2.6575,2.6575h-5.3135zm5.3135-26.575c10.272,0,18.602,8.3303,18.602,18.602s-8.3303,18.602-18.602,18.602-18.602-8.3303-18.602-18.602,8.3303-18.602,18.602-18.602zm-13.287,18.602c0,7.3371,5.9503,13.287,13.287,13.287,7.3371,0,13.287-5.9503,13.287-13.287,0-7.3371-5.9503-13.287-13.287-13.287-7.3371,0-13.287,5.9503-13.287,13.287z" fill-rule="evenodd" class="fil0" fill="#a90000"/>
  <path id="щит" d="m374.99,712.33c9.169-15.674,23.464-25.129,40.682-31.474,33.595-12.381,70.642-15.068,92.539-47.971,12.793-19.224,17.055-43.334,15.857-70.57-11.128-11.707-18.307-30.132-18.307-50.856,0-20.7,7.1622-39.105,18.268-50.814v-85.382c-49.68-14.184-99.359-21.401-149.04-21.473-49.679,0.072-99.358,7.2895-149.04,21.473v85.382c11.106,11.709,18.268,30.115,18.268,50.814,0,20.724-7.1787,39.149-18.307,50.856-1.1978,27.236,3.0641,51.346,15.857,70.57,21.897,32.903,58.944,35.59,92.539,47.971,17.218,6.3453,31.512,15.8,40.681,31.474z" fill-rule="evenodd" class="fil0 str0" stroke="#000" stroke-width="1.45907545" fill="#3c82c2"/>
  <path id="_158253176" d="m359.89,443.17,4.5996,2.4745c-3.7487,4.1306-13.481,6.479-16.862,0.40283,4.5446,1.7344,8.1921,0.42035,12.262-2.8773z" fill-rule="nonzero" class="fil1" fill="#000"/>
  <path id="_48675496" d="m349.07,447.1c3.3171,3.5283,11.346,1.8274,14.282-1.4386l-3.7336-1.5063c-2.891,2.6423-6.768,3.7725-10.548,2.945z" fill-rule="nonzero" class="fil2" fill="#e60000"/>
  <path id="_158281688" d="m352.76,450.06c3.286,0.15626,8.865-0.50453,11.462-3.81l3.286-0.80228,1.9777,3.6022c-5.0165,5.1172-11.706,6.786-16.725,1.01z" fill-rule="nonzero" class="fil1" fill="#000"/>
  <path id="_159040976" d="m368.46,448.91-1.3949-2.5406-2.1329,0.16157c-1.9004,3.3302-7.6234,3.9749-10.24,4.2688,4.4571,3.9165,10.025,1.9495,13.768-1.8897z" fill-rule="nonzero" class="fil3" fill="url(#linearGradient3844)"/>
  <path id="_158281376" d="m360.75,433.12,7.3772,13.112c-4.405,0.83147-7.8228,0.34795-10.851-2.1913-2.7469-2.3032-5.867-2.3353-9.008,0.0588-1.6912-9.568,5.7425-12.498,12.482-10.98z" fill-rule="nonzero" class="fil1" fill="#000"/>
  <path id="_158281424" d="m348.79,442.86c3.212-2.111,6.5705-1.4275,9.224,0.86552,2.4302,2.0993,5.5765,2.4088,8.6728,2.0882l-6.4722-11.934c-1.4411-0.24023-2.7932-0.42859-4.2659-0.27283v0.0005c-5.0598,0.53663-7.4521,4.4556-7.1587,9.2522z" fill-rule="nonzero" class="fil4" fill="url(#linearGradient3063)"/>
  <path id="_158221176" d="m441.74,597.82c0.98131,0.64123,1.5262,1.6152,1.6629,2.7075,3.7676,2.5951,3.0033,6.767,0.64169,9.8964l-0.25051-0.91952c-0.54588-1.8858-1.572-3.9988-3.4164-4.8682-0.0928,0.20197-0.18284,0.41354-0.26965,0.63393-2.8073,1.084-5.3061-0.26114-6.2781-3.088-1.2805-0.59209-2.565-1.1755-3.7735-1.9077,0.1878,0.23988,0.38289,0.47632,0.58383,0.70742l0.0005-0.0005c1.0339,1.1886,1.8405,1.6897,2.0624,3.5536,0.0996,0.84122,0.0634,1.7067-0.28842,2.4502,1.9077,3.5448,0.37123,6.5564-3.4509,8.4918,0.45244-2.2667,0.69473-4.5743-1.339-6.0718-0.0602,0.0631-0.12011,0.12756-0.17964,0.19275-1.644,0.25548-3.1566-0.47048-4.0854-1.8249-0.95602-1.3934-1.1005-3.194-0.34689-4.7168l-2.2132-3.5113c-1.4693-2.3314-2.7275-3.05-5.0005-1.0776-0.14598,4.0372-5.8106,5.3138-7.6083,2.2978-2.2803,0.40238-4.0635,2.1451-5.5289,3.8596-1.1925-3.6806-0.45489-6.7938,2.7868-8.6597,0.65148-3.4344,3.7214-3.7438,6.8624-3.8314,1.6469-0.0486,3.3128-0.96137,2.2118-2.7333l-7.9216-12.749,7.4506-3.5015,9.7534,14.543c2.2322,3.3273,6.5549,2.581,9.9382,2.0921,2.5796-0.37268,7.1208-1.39,9.2678,0.90152,5.055-0.0843,6.9378,3.215,6.9617,7.6895-1.8201-1.9967-3.648-2.8267-6.4562-2.4491-0.27567,0.88157-0.85918,1.5418-1.7773,1.894z" fill-rule="nonzero" class="fil1" fill="#000"/>
  <path id="_158295352-4" d="m442.68,595.84c-0.85093-1.2148-0.722-3.3264-0.29629-4.6376-1.4109-1.6216-5.1421-1.0825-8.5239-0.59354-3.7608,0.54344-8.2899,1.211-10.749-2.455l-9.3549-13.948-5.9526,2.7975,7.4268,11.953c1.4601,2.3504-0.59499,3.9433-2.8982,4.0075-2.3533,0.0663-5.4126,0.2778-6.032,3.0704,1.68,0.64659,2.8272,2.6472,2.7358,4.4142,2.1241,2.2069,5.976,0.75557,5.9278-2.364,2.7533-2.5212,4.6162-2.0385,6.5398,1.0134l2.4735,3.9243c-0.77457,1.388-0.84316,2.9459,0.0712,4.2776,0.66604,0.97157,1.7792,1.6337,2.9834,1.5092,1.1774-1.2806,2.7727-2.2701,4.5923-2.0668,0.26469-0.47873,0.34441-1.2942,0.24768-2.1115-0.21543-1.8137-1.5476-2.635-2.5849-3.9875-1.1876-1.5481-1.9957-2.9858-2.6253-4.8813l0.79059-0.26114c0.32173,0.96867,0.76142,1.9354,1.3122,2.8758,1.7676,1.3608,3.7385,2.2706,5.7473,3.1989,0.71227,2.2871,2.5304,3.8781,4.9582,3.032,0.67578-1.6615,1.5481-2.8695,3.1439-3.719-0.017-1.2319-0.88401-2.4307-2.092-2.7606-0.86991-0.23634-1.6099-0.4826-2.4769-0.84948-1.6868-0.71323-3.954-1.8575-5.5965-2.9182l0.86648-0.46513c1.6046,1.0363,3.4106,1.9198,5.0536,2.6151,1.3764,0.58234,3.5954,1.3754,4.3121-0.67047z" fill-rule="nonzero" class="fil7" fill="url(#radialGradient3861)"/>
  <path id="_48676072" d="m443.17,591.52c-0.33272,1.1063-0.46658,2.5581,0.0709,3.6017,1.9767-0.28665,4.0951-0.0797,5.7352,1.1394-0.57749-3.2947-2.6705-4.746-5.8062-4.7412zm0.11657,9.9664c-1.1725,0.62423-1.9383,1.3915-2.5295,2.4078,1.7734,0.85337,2.8759,2.6715,3.5385,4.4741,1.3384-2.5747,1.1034-5.18-1.0091-6.8819zm-11.488,6.1332c-1.4386-0.19134-2.5684,0.32705-3.5682,1.1993,1.5486,1.1988,2.0993,2.9294,1.8814,4.9494,2.3173-1.6804,2.7834-3.8912,1.6868-6.1487zm-23.619-7.6988c-0.12685-1.445-1.0173-2.6569-2.4273-3.159-2.1081,1.3229-3.1001,3.6801-2.671,6.118,1.3657-1.4323,3.1176-2.6496,5.0983-2.959z" fill-rule="nonzero" class="fil5" fill="#FB0"/>
  <path id="_158207592" d="m308.26,597.82c-0.9818,0.64123-1.5267,1.6152-1.6634,2.7075-3.7672,2.5951-3.0028,6.767-0.64172,9.8964l0.25055-0.91952h0.00049c0.54539-1.8858,1.5715-3.9988,3.4164-4.8682,0.0929,0.20197,0.18245,0.41354,0.26904,0.63393,2.8077,1.084,5.3065-0.26114,6.2786-3.088,1.2805-0.59209,2.5645-1.1755,3.7735-1.9077-0.1878,0.23988-0.38289,0.47632-0.58383,0.70742l-0.00099-0.0005c-1.0339,1.1886-1.8405,1.6897-2.0624,3.5536-0.0992,0.84122-0.0634,1.7067,0.28914,2.4502-1.9077,3.5448-0.3712,6.5564,3.4504,8.4918-0.45198-2.2667-0.69473-4.5743,1.3394-6.0718,0.0599,0.0631,0.11976,0.12756,0.17965,0.19275,1.644,0.25548,3.1561-0.47048,4.0849-1.8249,0.95602-1.3934,1.101-3.194,0.34725-4.7168l2.2132-3.5113c1.4693-2.3314,2.727-3.05,5-1.0776,0.14599,4.0372,5.811,5.3138,7.6088,2.2978,2.2803,0.40238,4.0634,2.1451,5.5289,3.8596,1.192-3.6806,0.45489-6.7938-2.7868-8.6597-0.65193-3.4344-3.7219-3.7438-6.8624-3.8314-1.6469-0.0486-3.3132-0.96137-2.2117-2.7333l7.9211-12.749-7.4501-3.5015-9.7539,14.543c-2.2317,3.3273-6.5549,2.581-9.9382,2.0921-2.5791-0.37268-7.1203-1.39-9.2673,0.90152-5.0555-0.0843-6.9383,3.215-6.9617,7.6895,1.8201-1.9967,3.6475-2.8267,6.4557-2.4491,0.27635,0.88157,0.85969,1.5418,1.7778,1.894z" fill-rule="nonzero" class="fil1" fill="#000"/>
  <path id="_158281304" d="m306.83,591.52c0.33229,1.1063,0.46658,2.5581-0.0715,3.6017-1.9768-0.28665-4.0946-0.0797-5.7352,1.1394,0.57799-3.2947,2.671-4.746,5.8067-4.7412zm-0.11675,9.9664c1.1725,0.62423,1.9378,1.3915,2.529,2.4078-1.7729,0.85337-2.8754,2.6715-3.538,4.4741-1.3389-2.5747-1.1034-5.18,1.009-6.8819zm11.488,6.1332c1.4382-0.19134,2.5679,0.32705,3.5682,1.1993-1.5486,1.1988-2.0998,2.9294-1.8818,4.9494-2.3169-1.6804-2.7834-3.8912-1.6863-6.1487zm23.619-7.6988c0.12756-1.445,1.0173-2.6569,2.4273-3.159,2.1086,1.3229,3.1002,3.6801,2.671,6.118-1.3657-1.4323-3.1172-2.6496-5.0983-2.959z" fill-rule="nonzero" class="fil5" fill="#FB0"/>
  <path id="_158295352" d="m307.32,595.84c0.85092-1.2148,0.722-3.3264,0.29629-4.6376,1.4109-1.6216,5.1421-1.0825,8.5239-0.59354,3.7608,0.54344,8.2899,1.211,10.749-2.455l9.3549-13.948,5.9526,2.7975-7.4268,11.953c-1.4601,2.3504,0.59499,3.9433,2.8982,4.0075,2.3533,0.0663,5.4126,0.2778,6.032,3.0704-1.68,0.64659-2.8272,2.6472-2.7358,4.4142-2.1241,2.2069-5.976,0.75557-5.9278-2.364-2.7533-2.5212-4.6162-2.0385-6.5398,1.0134l-2.4735,3.9243c0.77457,1.388,0.84316,2.9459-0.0712,4.2776-0.66604,0.97157-1.7792,1.6337-2.9834,1.5092-1.1774-1.2806-2.7727-2.2701-4.5923-2.0668-0.26469-0.47873-0.34441-1.2942-0.24768-2.1115,0.21543-1.8137,1.5476-2.635,2.5849-3.9875,1.1876-1.5481,1.9957-2.9858,2.6253-4.8813l-0.79059-0.26114c-0.32173,0.96867-0.76142,1.9354-1.3122,2.8758-1.7676,1.3608-3.7385,2.2706-5.7473,3.1989-0.71227,2.2871-2.5304,3.8781-4.9582,3.032-0.67578-1.6615-1.5481-2.8695-3.1439-3.719,0.017-1.2319,0.88401-2.4307,2.092-2.7606,0.86991-0.23634,1.6099-0.4826,2.4769-0.84948,1.6868-0.71323,3.954-1.8575,5.5965-2.9182l-0.86648-0.46513c-1.6046,1.0363-3.4106,1.9198-5.0536,2.6151-1.3764,0.58234-3.5954,1.3754-4.3121-0.67047z" fill-rule="nonzero" class="fil7" fill="url(#radialGradient3053)"/>
  <path id="path40" d="m359.6,460.44c0.39603,0.95552,1.5569,1.5574,2.3373,1.6965-1.8089,3.3336-2.7678,7.3081-5.56,8.2962,0.44958,1.0368,1.3098,1.6298,2.6248,1.9573-3.6548,3.4008-6.3846,9.9728-11.517,9.4634-3.7817-0.37513-6.4104-2.3334-2.4642-5.5449,4.4444-3.6178,6.4927-9.7383,2.4642-14.787-4.1418-5.1912-9.2814-9.2148-14.171-12.323-3.2967-2.095-6.498-5.0735-5.8329-9.9154-2.5105,0.94433-2.9955,2.9547-3.4422,4.4556-11.325-6.6449-20.932-16.333-20.523-22.241-2.0692,1.3253-2.9595,3.6129-3.0739,5.6238-13.622-11.095-25.061-22.962-30.599-33.68-1.9476-3.7696-3.1682-3.1439-4.4245-0.30798-2.9858,6.7379-0.16154,14.653,3.2368,21.357,3.6995,7.2969,8.9618,14.875,15.494,22.07-6.2903-1.8551-13.187-7.439-18.089-14.59-2.5688-3.7487-4.3889-2.1952-4.1914,1.3486,0.63005,11.285,9.2673,23.672,22.006,36.305-4.3836-1.4893-11.246-6.0461-13.615-8.4543-3.4966-3.5555-5.0034-1.7641-3.6986,2.5581,4.0922,13.554,15.967,21.984,26.308,30.289-4.3826-0.79257-10.856-3.2082-14.876-5.8364-2.1222-1.3876-3.8703-1.77-2.2589,2.7255,3.9097,10.908,15.696,17.004,28.85,21.696-3.4368,0.78332-6.9023,0.86992-10.312,0.35079-2.5002-0.38095-4.0625-0.43884-1.2285,3.3595,6.1677,8.2665,19.307,9.9304,32.277,12.185-5.1168,1.01-10.215,0.32492-15.354-0.31465-1.5476-0.19275-1.7598,0.84657-0.42668,2.5319,6.7972,8.593,18.146,6.8517,28.2,7.835-1.335,2.8992-4.1539,4.2498-5.2681,6.5749,7.8652,1.1341,15.472-3.1147,23.595,0.73757,4.3914,2.0823,2.778,11.135-3.0627,8.1449-6.2756-3.2116-10.886-2.0979-14.272,3.6085-4.1024,6.914-7.2828,15.341-11.002,16.332,0.88986,0.58188,1.7792,1.1633,2.6691,1.7452-1.1463,2.2847-3.7531,4.4809-6.3608,5.4992,1.7899,1.7165,4.2007,2.1884,6.7014,2.4823,0.0964,2.1572-0.22961,4.0036-0.84313,5.8057,2.8637-0.0283,5.4851-0.74633,7.995-1.4868,1.1127,3.8163,3.4709,6.3886,6.0071,8.7823,0.27425-2.11,0.99155-4.2201,2.6837-6.3297,1.227,2.3577,2.9853,4.0065,5.2758,4.947-0.1513-2.4224,0.0284-4.8443,0.94291-7.2663,0.74388,0.63737,1.4883,1.2742,2.2322,1.9111,0.35659-3.2398,1.1146-6.8999,3.1424-9.17,3.212-3.5964,5.2233-1.3774,5.2296,1.6673,0.0248,10.57-1.1287,19.797-6.7106,26.412,1.3954,0.82662,4.3997,1.3141,6.7272,1.209-4.1345,7.9484-10.405,14.213-17.518,17.539,2.2881,1.57,5.7084,2.8311,8.6261,3.573-6.8128,4.3841-18.355,3.989-28.636,2.1563,3.3852,11.394,15.77,17.297,35.189,17.591-3.0856,4.8073-9.4176,7.9829-15.147,9.2332,3.4675,5.4579,14.303,7.0327,23.631,4.0883-1.7306,2.9065-5.034,5.5318-8.1162,7.3086,7.4716,6.9962,12.219,15.641,13.55,26.338,1.3307-10.697,6.0786-19.342,13.55-26.338-3.0826-1.7768-6.3861-4.4021-8.1167-7.3086,9.3281,2.9444,20.164,1.3696,23.631-4.0883-5.9166-1.2508-12.261-4.4259-15.148-9.2332,19.42-0.29445,31.805-6.1969,35.19-17.591-10.281,1.8327-21.823,2.2278-28.636-2.1563,2.9177-0.74193,6.3375-2.003,8.6261-3.573-7.1135-3.3254-13.384-9.5904-17.518-17.539,2.3271,0.10524,5.3313-0.38239,6.7272-1.209-5.5824-6.6157-6.7325-15.842-6.7106-26.412,0.004-3.0447,2.0176-5.2637,5.2297-1.6673,2.0278,2.2701,2.7853,5.9302,3.1424,9.17,0.74388-0.63688,1.4878-1.2737,2.2317-1.9111,0.91272,2.4219,1.0942,4.8438,0.94337,7.2663,2.2901-0.94046,4.0489-2.5893,5.2759-4.947,1.6916,2.1096,2.4093,4.2197,2.6837,6.3297,2.5358-2.3937,4.894-4.966,6.0071-8.7823,2.51,0.74052,5.1314,1.4581,7.9946,1.4868-0.61349-1.8021-0.93898-3.6485-0.84313-5.8057,2.5012-0.29374,4.912-0.76578,6.7018-2.4823-2.6078-1.0183-5.2146-3.2144-6.3608-5.4992,0.88937-0.58189,1.7792-1.1633,2.6686-1.7452-3.7195-0.99156-6.8994-9.4182-11.002-16.332-3.3862-5.7065-7.996-6.8201-14.272-3.6085-5.8412,2.9897-7.4545-6.0626-3.0632-8.1449,8.1235-3.8523,15.731,0.39653,23.596-0.73757-1.1141-2.3251-3.933-3.6757-5.2681-6.5749,10.054-0.98327,21.403,0.75802,28.2-7.835,1.3331-1.6853,1.1214-2.7245-0.42669-2.5319-5.1386,0.63978-10.237,1.3248-15.354,0.31465,12.969-2.2541,26.109-3.918,32.277-12.185,2.834-3.7983,1.2723-3.7404-1.2285-3.3595-3.4091,0.51913-6.8746,0.43253-10.311-0.35079,13.154-4.692,24.941-10.788,28.85-21.696,1.6114-4.4955-0.13642-4.1131-2.2585-2.7255-4.0197,2.6282-10.493,5.0438-14.876,5.8364,10.341-8.305,22.216-16.735,26.308-30.289,1.3049-4.3223-0.20126-6.1137-3.698-2.5581-2.3689,2.4083-9.2323,6.9651-13.615,8.4543,12.738-12.634,21.375-25.02,22.005-36.305,0.19807-3.5438-1.6221-5.0973-4.1914-1.3486-4.9013,7.1514-11.798,12.735-18.089,14.59,6.5326-7.1952,11.795-14.773,15.494-22.07,3.3989-6.7048,6.2226-14.62,3.2373-21.357-1.2567-2.836-2.4774-3.4616-4.425,0.30798-5.5381,10.719-16.977,22.585-30.599,33.68-0.11374-2.0108-1.0047-4.2984-3.0739-5.6238,0.40964,5.9084-9.1968,15.596-20.522,22.241-0.4466-1.5009-0.93168-3.5112-3.4426-4.4556,0.66507,4.8419-2.5362,7.8204-5.8329,9.9154-4.8896,3.1079-10.029,7.1315-14.171,12.323-4.0279,5.0492-1.9796,11.17,2.4648,14.787,3.9457,3.211,1.3292,5.7658-2.4648,5.5449-6.8454-0.39799-9.0177-5.0282-9.3232-9.5753,1.3516,0.10807,2.3553-0.18107,3.1113-1.0208-2.3329-1.8254-1.9767-5.8981-2.6306-9.6346,0.78378,0.11728,2.0755-0.0847,2.7557-0.86407-1.3774-0.88402-1.8551-2.7143-2.4059-4.5067-2.1845-7.1072-1.1784-14.161-5.8787-20.081,4.1019-2.5567,6.8186-5.8592,6.2324-10.547-4.7942,1.5637-9.318,1.9748-14.383,0.79887-11.532-2.6769-17.875,1.7014-21.414,6.8717,3.1692,2.5421,2.3995,5.0511,3.6854,8.3823,0.82417,2.1349,2.1601,5.1859,6.8614,7.5986-4.28,2.5766-6.7116,10.455-9.5286,11.165z" fill-rule="evenodd" class="fil8" fill="#000"/>
  <circle id="circle42" d="m 103.61496,128.94901 c 0,0.26507 -0.21489,0.47995 -0.47996,0.47995 -0.26507,0 -0.47995,-0.21488 -0.47995,-0.47995 0,-0.26508 0.21488,-0.47996 0.47995,-0.47996 0.26507,0 0.47996,0.21488 0.47996,0.47996 z" fill-rule="evenodd" cx="103.14" cy="128.95" transform="matrix(4.8652469,0,0,4.8652469,-135.85143,-191.07036)" class="fil9" r="0.47995" fill="#e60000"/>
  <path id="path44" d="m375,654.4c-1.0553,3.1697-3.9778,7.1081-7.0473,8.5011,3.554,2.7455,5.6286,7.5115,7.0473,12.015,1.4192-4.5033,3.4942-9.2693,7.0478-12.015-3.069-1.3929-5.9916-5.3314-7.0478-8.5011zm0-22.775c-4.8399,8.5307-11.228,15.888-20.349,18.314,5.7833,3.428,15.575,0.55024,20.349-6.0013,5.1231,6.2032,13.698,9.081,20.35,6.0013-9.3608-2.545-15.51-9.783-20.35-18.314zm0-6.3754c-11.693,10.836-30.595,14.274-41.818,2.6029,16.189,1.5121,30.872-2.365,41.818-17.439,10.947,15.074,25.63,18.952,41.819,17.439-11.223,11.671-30.125,8.233-41.819-2.6029zm0-18.361c-5.9877,6.9053-11.795,10.592-19.337,9.1078,7.5416-5.0292,15.561-14.076,19.337-25.132,3.8951,11.176,11.796,20.103,19.337,25.132-7.5411,1.4844-13.349-2.2025-19.337-9.1078z" fill-rule="evenodd" class="fil10" fill="#FFF"/>
  <path id="path46" d="m363.22,433.73c2.6477-1.6829,5.9901-1.3813,7.9809,0.55027l-0.57947,1.5938c-1.586-1.9651-4.9222-2.2088-6.8678-0.90056l-0.53369-1.2436z" fill-rule="nonzero" class="fil11" fill="#FFF"/>
  <path id="path48" d="m300.77,433.64c1.2231,4.5378,3.8426,7.6798,6.6615,10.622-3.4251,0.13606-6.9169,0.10523-9.2605,1.3311-0.48945,5.3863,4.5602,10.265,8.0257,15.087-3.1386,1.6002-7.0439,2.7435-9.0829,5.993,3.4884,7.0152,8.773,7.7406,13.511,10.381-2.311,2.6063-5.0452,4.7874-5.6607,9.0883,3.338,3.8718,8.088,4.2123,12.556,5.2593-1.4177,3.3687-3.4018,6.5958-2.5601,10.529,4.7237,2.2818,8.3429,1.0572,11.999,1.012-0.0886,3.0062-0.46024,6.0125,0.58092,9.0192,3.3789,0.95552,7.3329,0.18886,11.252-0.47629-0.0574,3.2855,0.0177,6.5043,1.0256,9.2586,3.9496,1.3311,8.6942,0.0106,11.85-2.6929m-27.512-70.339c0.0723,1.9748,0.67479,3.4198,1.8074,4.3354-3.1707,0.73803-5.811,2.2044-7.9221,4.0002,0.42474,3.2378,2.8433,6.4061,4.8652,9.1107-2.5932,1.3837-5.3172,2.238-5.7833,4.1535,0.83923,2.9298,4.2693,5.3416,7.7824,7.7362-1.3521,2.2195-2.1738,4.4391-2.4657,6.659,3.014,2.9114,6.028,2.292,9.0421,2.3786-1.0889,3.4957-1.9782,6.0611-1.4712,8.4938,1.8994,1.4683,5.1226,1.6454,8.0821,1.5267-0.0354,3.2033-0.13713,5.9434,0.88696,8.6173,2.9907,0.63734,5.5838-0.33094,8.5745-1.8113,0.37902,2.185,0.82321,5.363,1.7345,7.5484,2.9118-0.23775,5.8232-2.33,6.9476-5.6797m-1.0874-21.564c2.8398-0.26716,5.6807-1.049,8.521-2.9634,0.94678,2.6964,2.3046,5.0837,4.5694,6.7919,2.6346-0.49379,5.2691-3.1833,7.9036-5.4335,2.2229,2.202,4.6512,4.0956,7.5334,5.3099,1.605-1.1526,3.2106-3.1284,4.8161-5.9274,1.77,1.4815,3.5404,2.1402,5.3104,1.9758m-30.874-12.812c1.6566,0.43448,3.3132-0.33874,4.9703-1.2664,1.1521,1.4002,2.5105,3.1293,4.3242,4.1987,1.789-0.95896,3.4543-1.7744,5.2438-3.8037,1.3555,1.627,2.9376,2.945,4.6225,3.5837,1.4936-0.68549,2.9872-2.2356,4.4814-3.9092,1.1341,0.81836,2.3091,1.5121,3.774,1.3384m-25.56-10.16c1.8215,0.0719,3.6426-0.26752,5.4646-1.5136,1.5652,1.6882,2.9649,2.8817,4.2007,3.5818,1.9218-0.65778,3.2942-2.221,4.873-3.557,1.5822,1.5652,3.0408,2.6355,4.623,3.213,1.5773-0.68357,2.9055-2.2341,4.4809-3.9088,0.64073,0.93997,1.6104,1.3861,2.9094,1.338m-19.603-7.4589c0.53423,0.55513,1.3151,0.86312,1.9733,1.0485,1.1312-0.25583,2.2624-1.6688,3.3935-3.2471,1.6644,1.1964,3.3283,2.2682,4.9932,2.4725,1.6192-0.93026,2.3713-2.7284,2.9994-4.6502m40.751,0.23882c-0.0726,1.9748-0.67482,3.4198-1.8074,4.3354,3.1707,0.73804,5.8111,2.2044,7.9221,4.0002-0.42473,3.2378-2.8432,6.4061-4.8652,9.1106,2.5932,1.3837,5.3172,2.238,5.7833,4.1535-0.83926,2.9298-4.2693,5.3416-7.7824,7.7362,1.3521,2.2195,2.1738,4.4391,2.4657,6.659-3.014,2.9114-6.028,2.292-9.0421,2.3786,1.0888,3.4957,1.9782,6.0611,1.4712,8.4938-1.8994,1.4683-5.1226,1.6454-8.0821,1.5267,0.0354,3.2033,0.13712,5.9434-0.88693,8.6173-2.9907,0.63734-5.5839-0.33094-8.5745-1.8113-0.37899,2.185-0.82318,5.363-1.7344,7.5484-2.9118-0.23775-5.8232-2.33-6.9476-5.6797m55.466-71.141c-1.2232,4.5378-3.8426,7.6798-6.6615,10.622,3.4251,0.13607,6.9169,0.10524,9.2605,1.3312,0.48944,5.3863-4.5602,10.265-8.0257,15.087,3.1386,1.6002,7.0439,2.7435,9.083,5.993-3.4884,7.0152-8.773,7.7406-13.511,10.381,2.311,2.6063,5.0453,4.7874,5.6607,9.0883-3.338,3.8718-8.088,4.2123-12.556,5.2593,1.4177,3.3687,3.4018,6.5958,2.5601,10.529-4.7236,2.2818-8.3429,1.0572-11.999,1.012,0.0886,3.0062,0.46027,6.0125-0.58089,9.0192-3.3789,0.95552-7.3329,0.18886-11.252-0.47629,0.0574,3.2855-0.0177,6.5043-1.0256,9.2586-3.9496,1.3311-8.6942,0.0106-11.85-2.6929m17.82,46.227c-1.5637,0.20091-3.3818,0.17965-4.9465-0.12685-0.54298,2.6005-1.0514,4.8409-2.7907,7.1033-2.4944,0.30047-4.9888,0.14209-7.4838-0.57072-0.48603,1.5428-1.3316,3.107-2.1563,4.3126m-38.933-23.531c1.5121,2.0872,2.9921,4.206,5.02,5.7775,0.79887-0.38824,1.6727-0.94531,2.5572-2.1781,2.0755,2.328,4.459,4.5539,7.293,6.6298,2.3675-1.6576,5.1144-4.1204,7.4823-7.293,0.97837,0.97891,1.8308,1.9257,3.3146,2.4628,1.516-1.1035,2.8102-2.8724,4.0727-4.7358m-55.729,12.15c1.5637,0.2009,3.3818,0.17964,4.9465-0.12686,0.54294,2.6005,1.0514,4.8409,2.7907,7.1033,2.4944,0.30048,4.9888,0.14209,7.4837-0.57072,0.48604,1.5428,1.3316,3.107,2.1563,4.3126" stroke="#FFF" stroke-width="1.21631181" class="fil12 str1" fill="none"/>
 </g>
</svg>
