<?xml version="1.0" encoding="UTF-8" standalone="no"?>
<!-- Created with Inkscape (http://www.inkscape.org/) -->
<svg id="svg3107" xmlns:rdf="http://www.w3.org/1999/02/22-rdf-syntax-ns#" xmlns="http://www.w3.org/2000/svg" height="360" width="300" version="1.1" xmlns:cc="http://creativecommons.org/ns#" xmlns:dc="http://purl.org/dc/elements/1.1/">
 <metadata id="metadata3112">
  <rdf:RDF>
   <cc:Work rdf:about="">
    <dc:format>image/svg+xml</dc:format>
    <dc:type rdf:resource="http://purl.org/dc/dcmitype/StillImage"/>
    <dc:title/>
   </cc:Work>
  </rdf:RDF>
 </metadata>
 <g id="layer1" transform="translate(-225,-352.36218)">
  <path id="path3057" d="m446.75,524.39c2.9349,0,5.315,2.38,5.315,5.315v5.3142c0,2.9349-2.38,5.315-5.315,5.315h-5.315v-15.944h5.315zm0,21.259c5.8698,0,10.63-4.7601,10.63-10.63v-5.3142c0-5.8698-4.7601-10.63-10.63-10.63h-10.63v26.574h10.63zm-21.26-26.574,5.315,0,0,26.574-5.315,0,0-26.574zm-10.63,0,5.315,0,0,26.574-5.315,0-10.63-16.684,0,16.684-5.315,0,0-26.574,5.315,0,10.63,16.684,0-16.684zm-79.724,0.00035,15.945,0,0,5.315-10.63,0,0,5.3146,10.63,0,0,5.315-10.63,0,0,5.3146,10.63,0,0,5.315-15.945,0,0-26.574zm-21.26-0.00071,5.315,0,0,21.26,10.63,0,0,5.315-15.945,0,0-26.575zm55.808,21.26,5.3136,0c4.4022,0,7.9724-3.5702,7.9724-7.9724s-3.6365-7.9572-7.9724-7.9724h-5.3136v5.315h5.3136c1.4673,0,2.6575,1.1902,2.6575,2.6575s-1.1902,2.6575-2.6575,2.6575h-5.3136v5.315zm5.3136-26.575c10.272,0,18.602,8.3303,18.602,18.602s-8.3303,18.602-18.602,18.602-18.602-8.3303-18.602-18.602,8.3303-18.602,18.602-18.602zm0,5.315c7.3371,0,13.287,5.9503,13.287,13.287,0,7.3371-5.9503,13.287-13.287,13.287-7.3371,0-13.287-5.9503-13.287-13.287,0-7.3371,5.9503-13.287,13.287-13.287z" fill-rule="evenodd" class="fil0" fill="#a90000"/>
  <path id="path10" d="m225,352.36,0,181.09-0.003,0c0,81.805,72.455,154.9,150,178.91,77.545-24.006,150-97.1,150-178.91h-0.003v-181.09h-299.99z" fill-rule="nonzero" class="fil0" fill="#000"/>
  <path id="path12" d="m227.43,354.8,0.00049,178.66,0.006,0,0,0.004-0.006,0,0,0.80773c0.0782,13.105,2.054,26.003,5.6381,38.515,2.9802,10.403,7.0687,20.521,12.1,30.254,25.858,50.026,76.58,90.077,129.84,106.78,10.485-3.2883,20.878-7.4864,31.008-12.492,10.347-5.1127,20.429-11.078,30.062-17.786,49.297-34.325,86.365-87.856,86.495-145.77v-0.30667l0.00049-178.66h-295.14z" fill-rule="nonzero" class="fil1" fill="#f8e73d"/>
  <path id="path14" d="m227.43,354.8,0.00049,178.66,0.006,0,0,0.004-0.006,0,0,0.80773c0.0782,13.105,2.054,26.003,5.6381,38.515,2.9802,10.403,7.0687,20.521,12.1,30.254,3.2459,6.2796,6.8835,12.401,10.869,18.34l266.54-266.58h-295.14z" fill-rule="nonzero" class="fil2" fill="#41a147"/>
  <path id="path16" d="m303.15,447.4,9.3826-29.363c4.2188-11.987,3.3674-23.457-7.3631-33.304-3.5458-3.2528-6.5968-6.9284-8.2558-11.81v74.477h6.2363zm0,17.845,9.3826,29.363c4.2188,11.987,3.3674,23.457-7.3631,33.304-3.5458,3.2528-6.5968,6.9284-8.2558,11.81v-74.477h6.2363z" fill-rule="evenodd" stroke-dasharray="none" stroke-miterlimit="4" stroke-width="1" class="fil3" fill="#FFF"/>
  <path id="path18" d="m310.44,465.25c1.1487,6.1771,9.5998,18.374,19.466,17.655,4.9326-0.35964,4.8986-5.3368,3.589-9.3404-1.2955-3.9575-1.088-8.6042,5.5511-9.7011-4.0895,4.8046-2.0093,9.8031,1.1463,15.51,3.1274,5.6566,1.3538,15.158-9.4822,15.306-9.6149,0.13122-23.274-15.126-24.896-29.429h4.6255z" fill-rule="evenodd" stroke-dasharray="none" stroke-miterlimit="4" stroke-width="1" class="fil3" fill="#FFF"/>
  <path id="path20" d="m283.39,465.25c-1.1487,6.1771-9.5998,18.374-19.466,17.655-4.9326-0.35964-4.8986-5.3368-3.589-9.3404,1.2955-3.9575,1.088-8.6042-5.5512-9.7011,4.0895,4.8046,2.0093,9.8031-1.1463,15.51-3.1274,5.6566-1.3538,15.158,9.4822,15.306,9.6149,0.13122,23.274-15.126,24.896-29.429h-4.6255z" fill-rule="evenodd" stroke-dasharray="none" stroke-miterlimit="4" stroke-width="1" class="fil3" fill="#FFF"/>
  <path id="path22" d="m296.91,372.93c-1.6589,4.8814-4.71,8.557-8.2558,11.81-10.731,9.8464-11.582,21.316-7.3632,33.304l9.3826,29.363h6.2363v-74.477zm0,166.8c-1.6589-4.8814-4.71-8.557-8.2558-11.81-10.731-9.8464-11.582-21.316-7.3632-33.304l9.3826-29.363h6.2363v74.477z" fill-rule="evenodd" stroke-dasharray="none" stroke-miterlimit="4" stroke-width="1" class="fil4" fill="#e5e5e5"/>
  <path id="path24" d="m310.44,447.4c1.1487-6.1771,9.5998-18.374,19.466-17.655,4.9326,0.35964,4.8986,5.3368,3.589,9.3404-1.2955,3.9575-1.088,8.6042,5.5511,9.701-4.0895-4.8046-2.0093-9.8031,1.1463-15.51,3.1274-5.6566,1.3538-15.158-9.4822-15.306-9.6149-0.13122-23.274,15.126-24.896,29.429h4.6255z" fill-rule="evenodd" stroke-dasharray="none" stroke-miterlimit="4" stroke-width="1" class="fil4" fill="#e5e5e5"/>
  <path id="path26" d="m283.39,447.4c-1.1487-6.1771-9.5998-18.374-19.466-17.655-4.9326,0.35964-4.8986,5.3368-3.589,9.3404,1.2955,3.9575,1.088,8.6042-5.5512,9.701,4.0895-4.8046,2.0093-9.8031-1.1463-15.51-3.1274-5.6566-1.3538-15.158,9.4822-15.306,9.6149-0.13122,23.274,15.126,24.896,29.429h-4.6255z" fill-rule="evenodd" stroke-dasharray="none" stroke-miterlimit="4" stroke-width="1" class="fil4" fill="#e5e5e5"/>
  <path id="path28" d="m303.15,447.4,9.3826-29.363c4.2188-11.987,3.3674-23.457-7.3631-33.304-3.5458-3.2528-6.5968-6.9284-8.2558-11.81-1.6589,4.8814-4.71,8.557-8.2558,11.81-10.731,9.8464-11.582,21.316-7.3632,33.304l9.3826,29.363h12.473zm-6.2363-73.532,0,73.532" stroke="#000" stroke-dasharray="none" stroke-miterlimit="4" stroke-width="1" class="fil5 str0" fill="none"/>
  <path id="path30" d="m339.04,448.79,0.0802,0.0146c-1.2629-4.2472,1.8266-8.054,5.0871-11.178,13.338-12.78,1.4281-29.595-14.426-29.114-19.403,0.58855-27.117,22.689-27.397,38.892h3.4243c1.6215-14.303,15.281-29.56,24.896-29.429,10.836,0.14775,12.61,9.6491,9.4822,15.306-3.1556,5.7071-5.2358,10.706-1.1463,15.51z" fill-rule="evenodd" stroke-dasharray="none" stroke-miterlimit="4" stroke-width="1" class="fil3" fill="#FFF"/>
  <path id="path32" d="m254.78,448.79-0.0802,0.0146c1.2629-4.2472-1.8266-8.054-5.0871-11.178-13.338-12.78-1.4281-29.595,14.426-29.114,19.403,0.58855,27.117,22.689,27.397,38.892h-3.4243c-1.6215-14.303-15.281-29.56-24.896-29.429-10.836,0.14775-12.61,9.6491-9.4822,15.306,3.1556,5.7071,5.2358,10.706,1.1463,15.51z" fill-rule="evenodd" stroke-dasharray="none" stroke-miterlimit="4" stroke-width="1" class="fil3" fill="#FFF"/>
  <path id="path34" d="m296.91,538.78,0-73.532m6.2363,0,9.3826,29.363c4.2188,11.987,3.3674,23.457-7.3631,33.304-3.5458,3.2528-6.5968,6.9284-8.2558,11.81-1.6589-4.8814-4.71-8.557-8.2558-11.81-10.731-9.8464-11.582-21.316-7.3632-33.304l9.3826-29.363h12.473z" stroke="#000" stroke-dasharray="none" stroke-miterlimit="4" stroke-width="1" class="fil5 str0" fill="none"/>
  <path id="path36" d="m339.04,463.87,0.0802-0.0146c-1.2629,4.2472,1.8266,8.054,5.0871,11.178,13.338,12.78,1.4281,29.595-14.426,29.114-19.403-0.58855-27.117-22.689-27.397-38.892h3.4243c1.6215,14.303,15.281,29.56,24.896,29.429,10.836-0.14774,12.61-9.649,9.4822-15.306-3.1556-5.7071-5.2358-10.706-1.1463-15.51z" fill-rule="evenodd" stroke-dasharray="none" stroke-miterlimit="4" stroke-width="1" class="fil4" fill="#e5e5e5"/>
  <path id="path38" d="m254.78,463.87-0.0802-0.0146c1.2629,4.2472-1.8266,8.054-5.0871,11.178-13.338,12.78-1.4281,29.595,14.426,29.114,19.403-0.58855,27.117-22.689,27.397-38.892h-3.4243c-1.6215,14.303-15.281,29.56-24.896,29.429-10.836-0.14774-12.61-9.649-9.4822-15.306,3.1556-5.7071,5.2358-10.706,1.1463-15.51z" fill-rule="evenodd" stroke-dasharray="none" stroke-miterlimit="4" stroke-width="1" class="fil4" fill="#e5e5e5"/>
  <path id="path40" d="m254.81,448.73c4.2197-4.8396,2.0059-9.6962-1.175-15.448-3.1279-5.657-1.3538-15.157,9.4822-15.306,9.6348-0.1317,23.331,15.101,24.906,29.429m-4.6362,0c-1.1487-6.1771-9.5998-18.374-19.466-17.655-4.9326,0.35964-4.8986,5.3368-3.589,9.3404,1.3008,3.9735,1.087,8.6421-5.6313,9.7147,1.2629-4.2472-1.8266-8.054-5.0871-11.178-13.338-12.78-1.4281-29.595,14.426-29.114,19.403,0.58855,27.117,22.689,27.397,38.892h-8.0498z" stroke="#000" stroke-dasharray="none" stroke-miterlimit="4" stroke-width="1" class="fil5 str0" fill="none"/>
  <path id="path42" d="m339.01,448.73c-4.2197-4.8396-2.0059-9.6962,1.175-15.448,3.1279-5.657,1.3538-15.157-9.4822-15.306-9.6348-0.1317-23.331,15.101-24.906,29.429m4.6362,0c1.1487-6.1771,9.5998-18.374,19.466-17.655,4.9326,0.35964,4.8986,5.3368,3.589,9.3404-1.3008,3.9735-1.087,8.6421,5.6313,9.7147-1.2629-4.2472,1.8266-8.054,5.0871-11.178,13.338-12.78,1.4281-29.595-14.426-29.114-19.403,0.58855-27.117,22.689-27.397,38.892h8.0497z" stroke="#000" stroke-dasharray="none" stroke-miterlimit="4" stroke-width="1" class="fil5 str0" fill="none"/>
  <path id="path44" d="m283.39,465.25c-1.1487,6.1771-9.5998,18.374-19.466,17.655-4.9326-0.35964-4.8986-5.3368-3.589-9.3404,1.3008-3.9735,1.087-8.6421-5.6313-9.7147,1.2629,4.2472-1.8266,8.054-5.0871,11.178-13.338,12.78-1.4281,29.595,14.426,29.114,19.403-0.58854,27.117-22.689,27.397-38.892h-8.0498zm-28.577-1.3248c4.2197,4.8396,2.0059,9.6962-1.175,15.448-3.1279,5.657-1.3538,15.157,9.4822,15.306,9.6348,0.13171,23.331-15.101,24.906-29.429" stroke="#000" stroke-dasharray="none" stroke-miterlimit="4" stroke-width="1" class="fil5 str0" fill="none"/>
  <path id="path46" d="m339.01,463.93c-4.2197,4.8396-2.0059,9.6962,1.175,15.448,3.1279,5.657,1.3538,15.157-9.4822,15.306-9.6348,0.13171-23.331-15.101-24.906-29.429m4.6362,0c1.1487,6.1771,9.5998,18.374,19.466,17.655,4.9326-0.35964,4.8986-5.3368,3.589-9.3404-1.3008-3.9735-1.087-8.6421,5.6313-9.7147-1.2629,4.2472,1.8266,8.054,5.0871,11.178,13.338,12.78,1.4281,29.595-14.426,29.114-19.403-0.58855-27.117-22.689-27.397-38.892h8.0497z" stroke="#000" stroke-dasharray="none" stroke-miterlimit="4" stroke-width="1" class="fil5 str0" fill="none"/>
  <path id="path48" d="m282.7,461.44,28.428,0c3.6332,0,3.9933-10.231,0-10.231h-28.428c-4.211,0-3.9131,10.231,0,10.231z" fill-rule="evenodd" stroke="#000" stroke-dasharray="none" stroke-miterlimit="4" stroke-width="1" class="fil6 str0" fill="#f8e73d"/>
  <path id="path50" d="m283.18,445.96,27.455,0c1.984,0,1.9821,5.2585,0,5.2585h-27.455c-1.9821,0-1.984-5.2585,0-5.2585z" fill-rule="evenodd" stroke="#000" stroke-dasharray="none" stroke-miterlimit="4" stroke-width="1" class="fil6 str0" fill="#f8e73d"/>
  <path id="path52" d="m283.18,461.44,27.455,0c1.984,0,1.9821,5.2585,0,5.2585h-27.455c-1.9821,0-1.984-5.2585,0-5.2585z" fill-rule="evenodd" stroke="#000" stroke-dasharray="none" stroke-miterlimit="4" stroke-width="1" class="fil6 str0" fill="#f8e73d"/>
 </g>
</svg>
