<?xml version="1.0" encoding="UTF-8" standalone="no"?>
<!-- Created with Inkscape (http://www.inkscape.org/) -->
<svg id="svg3103" xmlns:rdf="http://www.w3.org/1999/02/22-rdf-syntax-ns#" xmlns="http://www.w3.org/2000/svg" height="360" width="300" version="1.1" xmlns:cc="http://creativecommons.org/ns#" xmlns:dc="http://purl.org/dc/elements/1.1/">
 <metadata id="metadata3108">
  <rdf:RDF>
   <cc:Work rdf:about="">
    <dc:format>image/svg+xml</dc:format>
    <dc:type rdf:resource="http://purl.org/dc/dcmitype/StillImage"/>
    <dc:title/>
   </cc:Work>
  </rdf:RDF>
 </metadata>
 <g id="layer1" fill-rule="evenodd" transform="translate(-224.99999,-352.36218)">
  <path id="path3053" d="m446.75,524.39c2.9349,0,5.315,2.38,5.315,5.315v5.3143c0,2.9349-2.38,5.315-5.315,5.315h-5.315v-15.944h5.315zm0,21.259c5.8698,0,10.63-4.7601,10.63-10.63v-5.3143c0-5.8698-4.7601-10.63-10.63-10.63h-10.63v26.574h10.63zm-21.26-26.574,5.315,0,0,26.574-5.315,0,0-26.574zm-10.63,0,5.315,0,0,26.574-5.315,0-10.63-16.684,0,16.684-5.315,0,0-26.574,5.315,0,10.63,16.684,0-16.684zm-79.724,0.00036,15.945,0,0,5.315-10.63,0,0,5.3146,10.63,0,0,5.315-10.63,0,0,5.3146,10.63,0,0,5.315-15.945,0,0-26.574zm-21.26-0.00071,5.315,0,0,21.26,10.63,0,0,5.315-15.945,0,0-26.575zm55.808,21.26,5.3136,0c4.4022,0,7.9724-3.5702,7.9724-7.9724s-3.6365-7.9572-7.9724-7.9724h-5.3136v5.315h5.3136c1.4673,0,2.6575,1.1902,2.6575,2.6575s-1.1902,2.6575-2.6575,2.6575h-5.3136v5.315zm5.3136-26.575c10.272,0,18.602,8.3303,18.602,18.602s-8.3303,18.602-18.602,18.602-18.602-8.3303-18.602-18.602,8.3303-18.602,18.602-18.602zm0,5.315c7.3371,0,13.287,5.9503,13.287,13.287,0,7.3371-5.9503,13.287-13.287,13.287-7.3371,0-13.287-5.9503-13.287-13.287,0-7.3371,5.9503-13.287,13.287-13.287z" class="fil0" fill="#a90000"/>
  <g id="Слой_x0020_1" transform="matrix(6.4904159,0,0,6.4992157,-307.07132,-433.46254)">
   <path id="path10" fill="#000" class="fil0" d="m81.978,157.3c0.0543,0.4633,0.1236,0.9225,0.2098,1.3764,1.9008,10.008,11.432,17.621,22.901,17.621,11.468,0,21-7.6118,22.901-17.62,0.0862-0.4541,0.1556-0.9134,0.2099-1.3769v-36.394h-46.222v36.394z"/>
   <path id="path12" fill="#41a147" class="fil1" d="m126.53,162.6c0.7109-1.679,1.1925-3.4623,1.411-5.3178v-36.121h-45.707v36.121c0.2185,1.8556,0.7002,3.6391,1.4112,5.3183,3.3294,7.8634,11.675,13.441,21.442,13.441,9.7672,0,18.113-5.5776,21.442-13.441z"/>
   <path id="path3168" fill="#000" d="m113.18,174.7-30.942-30.942,0,9.7581,22.522,22.522c0.1105,0.001,0.2209,0.003,0.3318,0.003,2.8467,0,5.5725-0.4744,8.0887-1.3405z"/>
   <path id="path3166" fill="#000" d="m127.49,159.74c0.2016-0.8025,0.3534-1.6226,0.4517-2.4572v-6.8493l-29.271-29.271h-9.7582l38.578,38.578z"/>
   <path id="path3164" fill="#000" d="m127.94,140.68,0-9.7581-9.7551-9.7551-9.7581,0,19.513,19.513z"/>
   <path id="path14" fill="#000" d="m82.236,124.25,0,9.7582,37.338,37.338c1.8789-1.3972,3.5117-3.0607,4.8309-4.9273l-42.164-42.17z"/>
   <path id="path16" d="m104.45,122.82c1.7132,0,3.1025,1.3893,3.1025,3.1025s-1.3893,3.1025-3.1025,3.1025-3.1025-1.3893-3.1025-3.1025,1.3893-3.1025,3.1025-3.1025zm0,2.1413c0.5308,0,0.9612,0.4304,0.9612,0.9612s-0.4304,0.9612-0.9612,0.9612-0.9612-0.4304-0.9612-0.9612,0.4304-0.9612,0.9612-0.9612z" class="fil2 str0" stroke="#000" stroke-width="0.25" fill="#fcdb00"/>
   <rect id="rect18" class="fil2 str0" height="2.0118" width="2.1168" stroke="#000" y="128.83" x="103.39" stroke-width="0.25" fill="#fcdb00"/>
   <path id="path20" d="m121.88,159.61,0-0.78c-0.0321-0.8926-2.8468-2.8194-4.5375-6.3003-1.6528-3.4027-1.4841-7.7764-1.6234-11.442-0.2291-6.0243-5.1871-10.84-11.268-10.84-6.0805,0-11.038,4.8156-11.268,10.84-0.1393,3.6651,0.0294,8.0388-1.6234,11.442-1.6907,3.4809-4.5054,5.4077-4.5375,6.3003v0.78h34.857z" class="fil2 str0" stroke="#000" stroke-width="0.25" fill="#fcdb00"/>
   <path id="path22" d="m104.45,155.63c9.6239,0,17.429,1.5118,17.429,3.376v4.8108h-34.857v-4.8108c0-1.8642,7.8047-3.376,17.429-3.376z" class="fil3 str0" stroke="#000" stroke-width="0.25" fill="#f8c300"/>
   <ellipse id="ellipse24" d="m 121.8796,163.819 c 0,1.86451 -7.80305,3.376 -17.4286,3.376 -9.625554,0 -17.428604,-1.51149 -17.428604,-3.376 0,-1.86451 7.80305,-3.376 17.428604,-3.376 9.62555,0 17.4286,1.51149 17.4286,3.376 z" rx="17.429" ry="3.376" stroke="#000" class="fil4 str0" cy="163.82" cx="104.45" stroke-width="0.25" fill="#c4bf66"/>
   <path id="path26" d="m106.7,160.47,0,1.9376-4.503,0,0-1.9378c1.5005-0.0374,3.0025-0.0374,4.503,0.0002z" class="fil3 str0" stroke="#000" stroke-width="0.25" fill="#f8c300"/>
   <path id="path28" fill="#fffb9c" class="fil5" d="m103.09,160.61,0,1.8013-0.7425,0,0-1.7872c0.2461-0.006,0.4934-0.0104,0.7425-0.0141z"/>
   <circle id="circle30" stroke-width="0.25" d="m 109.83175,166.74899 c 0,2.97171 -2.40905,5.38075 -5.38075,5.38075 -2.97171,0 -5.380754,-2.40904 -5.380754,-5.38075 0,-2.9717 2.409044,-5.38075 5.380754,-5.38075 2.9717,0 5.38075,2.40905 5.38075,5.38075 z" cx="104.45" stroke="#000" cy="166.75" r="5.3808" class="fil3 str0" fill="#f8c300"/>
   <path id="path32" d="m110.83,133.99c-1.5777-1.0662-3.4795-1.6895-5.5266-1.6895-5.3307,0-9.678,4.2219-9.8784,9.5031-0.1222,3.213,0.0262,7.0475-1.423,10.031-0.9739,2.0056-2.4689,3.8678-3.3223,4.8258,1.853-0.4535,4.6153-0.8726,6.6525-1.0059,2.0322-4.5532,0.71988-9.4874,1.3168-14.143,0.6889-5.3721,5.8945-8.5889,12.181-7.5216z" class="fil3" fill="#f8c300"/>
   <circle id="circle34" d="m 102.9152,163.50301 c 0,0.40107 -0.32513,0.7262 -0.7262,0.7262 -0.40107,0 -0.7262,-0.32513 -0.7262,-0.7262 0,-0.40107 0.32513,-0.7262 0.7262,-0.7262 0.40107,0 0.7262,0.32513 0.7262,0.7262 z" cx="102.19" cy="163.5" r="0.7262" class="fil5" fill="#fffb9c"/>
   <circle id="circle36" d="m 101.31025,165.39101 c 0,0.18073 -0.14651,0.32725 -0.32725,0.32725 -0.18073,0 -0.32725,-0.14652 -0.32725,-0.32725 0,-0.18074 0.14652,-0.32725 0.32725,-0.32725 0.18074,0 0.32725,0.14651 0.32725,0.32725 z" cx="100.98" cy="165.39" r="0.32725" class="fil5" fill="#fffb9c"/>
   <circle id="circle38" d="m 102.88502,124.315 c 0,0.0911 -0.0739,0.16502 -0.16502,0.16502 -0.0911,0 -0.16501,-0.0739 -0.16501,-0.16502 0,-0.0911 0.0739,-0.16501 0.16501,-0.16501 0.0911,0 0.16502,0.0739 0.16502,0.16501 z" cx="102.72" cy="124.32" r="0.16501" class="fil5" fill="#fffb9c"/>
   <circle id="circle40" d="m 96.615597,138.25301 c 0,0.40107 -0.325131,0.7262 -0.7262,0.7262 -0.40107,0 -0.7262,-0.32513 -0.7262,-0.7262 0,-0.40107 0.32513,-0.7262 0.7262,-0.7262 0.401069,0 0.7262,0.32513 0.7262,0.7262 z" cx="95.889" cy="138.25" r="0.7262" class="fil5" fill="#fffb9c"/>
   <circle id="circle42" d="m 88.681098,160.11099 c 0,0.16017 -0.129837,0.29 -0.29,0.29 -0.160163,0 -0.29,-0.12983 -0.29,-0.29 0,-0.16016 0.129837,-0.29 0.29,-0.29 0.160163,0 0.29,0.12984 0.29,0.29 z" cx="88.391" cy="160.11" r="0.29" class="fil5" fill="#fffb9c"/>
   <path id="path44" fill="#fffb9c" class="fil5" d="m96.389,135.77,1.0218-1.2297c0.2563-0.3085,0.7097-0.3599,1.0214-0.1076s0.3638,0.7129,0.1076,1.0213l-1.0217,1.2303c-0.2562,0.3083-0.71,0.3594-1.0217,0.1074-0.3114-0.2525-0.3635-0.7133-0.1074-1.0217z"/>
   <path id="path46" fill="#fffb9c" class="fil5" d="m103.07,123.76,0.2916-0.2081c0.0731-0.0522,0.1742-0.0374,0.2274,0.035,0.0531,0.0725,0.0381,0.1752-0.035,0.2274l-0.2916,0.2082c-0.0731,0.0522-0.1743,0.0373-0.2275-0.035-0.053-0.0725-0.038-0.1753,0.0351-0.2275z"/>
   <path id="path48" fill="#fffb9c" class="fil5" d="m88.072,159,0.0082-0.6294c0.002-0.1579,0.128-0.286,0.2859-0.286s0.2879,0.1281,0.2859,0.286l-0.008,0.6296c-0.002,0.1578-0.1282,0.2858-0.286,0.2859-0.1579-0.0002-0.288-0.1283-0.286-0.2861z"/>
  </g>
 </g>
</svg>
