<?xml version="1.0" encoding="UTF-8" standalone="no"?>
<!-- Creator: CorelDRAW -->

<svg
   xmlns:dc="http://purl.org/dc/elements/1.1/"
   xmlns:cc="http://creativecommons.org/ns#"
   xmlns:rdf="http://www.w3.org/1999/02/22-rdf-syntax-ns#"
   xmlns:svg="http://www.w3.org/2000/svg"
   xmlns="http://www.w3.org/2000/svg"
   xmlns:sodipodi="http://sodipodi.sourceforge.net/DTD/sodipodi-0.dtd"
   xmlns:inkscape="http://www.inkscape.org/namespaces/inkscape"
   xml:space="preserve"
   width="300"
   height="355"
   style="fill-rule:evenodd"
   viewBox="0 0 84.666667 100.18889"
   id="svg2"
   version="1.1"
   inkscape:version="0.48.1 "
   sodipodi:docname="ветковский.svg"><metadata
   id="metadata20"><rdf:RDF><cc:Work
       rdf:about=""><dc:format>image/svg+xml</dc:format><dc:type
         rdf:resource="http://purl.org/dc/dcmitype/StillImage" /></cc:Work></rdf:RDF></metadata><sodipodi:namedview
   pagecolor="#ffffff"
   bordercolor="#666666"
   borderopacity="1"
   objecttolerance="10"
   gridtolerance="10"
   guidetolerance="10"
   inkscape:pageopacity="0"
   inkscape:pageshadow="2"
   inkscape:window-width="640"
   inkscape:window-height="480"
   id="namedview18"
   showgrid="false"
   fit-margin-top="0"
   fit-margin-left="0"
   fit-margin-right="0"
   fit-margin-bottom="0"
   inkscape:zoom="0.73521126"
   inkscape:cx="149.99999"
   inkscape:cy="177.5"
   inkscape:window-x="0"
   inkscape:window-y="0"
   inkscape:window-maximized="0"
   inkscape:current-layer="svg2" />
 <defs
   id="defs4"><style
     type="text/css"
     id="style6">
   
    .fil0 {fill:black}
    .fil1 {fill:#DA251D}
    .fil2 {fill:black;fill-rule:nonzero}
    .fil3 {fill:white;fill-rule:nonzero}
   
  </style></defs>
 <path
   id="path3003"
   d="m 62.583288,47.844781 c 0.828322,0 1.500011,0.671689 1.500011,1.500012 l 0,1.499658 c 0,0.828322 -0.671689,1.500011 -1.500011,1.500011 l -1.500011,0 0,-4.499681 1.500011,0 z m 0,5.999692 c 1.656644,0 3.000022,-1.343378 3.000022,-3.000022 l 0,-1.499658 c 0,-1.656645 -1.343378,-3.000023 -3.000022,-3.000023 l -3.000022,0 0,7.499703 3.000022,0 z m -6.000044,-7.499703 1.500011,0 0,7.499703 -1.500011,0 0,-7.499703 z m -3.000023,0 1.500011,0 0,7.499703 -1.500011,0 -3.000022,-4.708525 0,4.708525 -1.500011,0 0,-7.499703 1.500011,0 3.000022,4.708525 0,-4.708525 z m -22.499884,0 4.499998,0 0,1.500011 -2.999986,0 0,1.500012 2.999986,0 0,1.500011 -2.999986,0 0,1.499658 2.999986,0 0,1.500011 -4.499998,0 0,-7.499703 z m -5.999973,-3.52e-4 1.499975,0 0,6.000044 3.000023,0 0,1.500011 -4.499998,0 0,-7.500055 z m 15.750398,6.000044 1.499588,0 c 1.242272,0 2.250158,-1.007533 2.250158,-2.250017 0,-1.24213 -1.026584,-2.24543 -2.250158,-2.250016 l -1.499588,0 0,1.500011 1.499588,0 c 0.414091,0 0.750147,0.336197 0.750147,0.750005 0,0.414161 -0.336056,0.750006 -0.750147,0.750006 l -1.499588,0 0,1.500011 z m 1.499588,-7.500055 c 2.898916,0 5.249827,2.351263 5.249827,5.250038 0,2.899128 -2.350911,5.250039 -5.249827,5.250039 -2.899022,0 -5.250004,-2.350911 -5.250004,-5.250039 0,-2.898775 2.350982,-5.250038 5.250004,-5.250038 z m 0,1.500011 c 2.070594,0 3.750169,1.679575 3.750169,3.750027 0,2.070806 -1.679575,3.750028 -3.750169,3.750028 -2.0707,0 -3.749992,-1.679222 -3.749992,-3.750028 0,-2.070452 1.679292,-3.750027 3.749992,-3.750027 z"
   style="fill:#a90000;stroke:none"
   inkscape:connector-curvature="0" /><path
   style="fill:#000000"
   inkscape:connector-curvature="0"
   id="path10"
   d="m 84.666666,57.910583 c 0,23.345566 -18.957201,42.278307 -42.333334,42.278307 C 18.9572,100.18889 -1.85864e-6,81.256331 -1.85864e-6,57.910583 l 0,-57.91058399426997 84.66666785864,0 0,57.91058399426997 z"
   class="fil0" /><path
   style="fill:#da251d"
   inkscape:connector-curvature="0"
   id="path12"
   d="m 84.096188,57.910583 0,-57.34230316 -83.52826299,0 0,57.34230316 c 0,23.031574 18.70258299,41.710029 41.76413099,41.710029 23.061549,0 41.764132,-18.678273 41.764132,-41.710029 z"
   class="fil1" /><polygon
   style="fill:#000000;fill-rule:nonzero"
   id="polygon14"
   points="114.886,147.347 124.533,129.944 124.533,149.45 124.533,149.478 124.519,149.503 114.886,166.881 105.348,149.673 95.8094,166.881 86.1767,149.503 86.1625,149.478 86.1625,149.45 86.1625,129.944 95.8094,147.347 105.348,130.139 "
   class="fil2"
   transform="matrix(1.8226151,0,0,1.8202461,-149.0418,-220.2121)" /><polygon
   style="fill:#ffffff;fill-rule:nonzero"
   id="polygon16"
   points="86.3825,130.793 86.3825,149.422 95.8094,166.429 105.348,149.221 114.886,166.429 124.313,149.422 124.313,130.793 114.886,147.799 105.348,130.591 95.8095,147.799 "
   class="fil3"
   transform="matrix(1.8226151,0,0,1.8202461,-149.0418,-220.2121)" />
</svg>