<?xml version="1.0" encoding="UTF-8" standalone="no"?>
<!-- Creator: CorelDRAW -->

<svg
   xmlns:dc="http://purl.org/dc/elements/1.1/"
   xmlns:cc="http://creativecommons.org/ns#"
   xmlns:rdf="http://www.w3.org/1999/02/22-rdf-syntax-ns#"
   xmlns:svg="http://www.w3.org/2000/svg"
   xmlns="http://www.w3.org/2000/svg"
   xmlns:sodipodi="http://sodipodi.sourceforge.net/DTD/sodipodi-0.dtd"
   xmlns:inkscape="http://www.inkscape.org/namespaces/inkscape"
   xml:space="preserve"
   width="300"
   height="356"
   style="fill-rule:evenodd"
   viewBox="0 0 84.666667 100.47111"
   id="svg2"
   version="1.1"
   inkscape:version="0.48.1 "
   sodipodi:docname="житковицы.svg"><metadata
   id="metadata22"><rdf:RDF><cc:Work
       rdf:about=""><dc:format>image/svg+xml</dc:format><dc:type
         rdf:resource="http://purl.org/dc/dcmitype/StillImage" /></cc:Work></rdf:RDF></metadata><sodipodi:namedview
   pagecolor="#ffffff"
   bordercolor="#666666"
   borderopacity="1"
   objecttolerance="10"
   gridtolerance="10"
   guidetolerance="10"
   inkscape:pageopacity="0"
   inkscape:pageshadow="2"
   inkscape:window-width="640"
   inkscape:window-height="480"
   id="namedview20"
   showgrid="false"
   fit-margin-top="0"
   fit-margin-left="0"
   fit-margin-right="0"
   fit-margin-bottom="0"
   inkscape:zoom="0.73314605"
   inkscape:cx="149.99999"
   inkscape:cy="178.00001"
   inkscape:window-x="0"
   inkscape:window-y="0"
   inkscape:window-maximized="0"
   inkscape:current-layer="svg2" />
 <defs
   id="defs4"><style
     type="text/css"
     id="style6">
   
    .fil0 {fill:black}
    .fil1 {fill:#DD232D}
    .fil2 {fill:white}
    .fil3 {fill:black;fill-rule:nonzero}
    .fil4 {fill:white;fill-rule:nonzero}
   
  </style></defs>
 <path
   id="path3005"
   d="m 62.583287,47.985891 c 0.828322,0 1.500011,0.671689 1.500011,1.500012 l 0,1.499658 c 0,0.828322 -0.671689,1.500011 -1.500011,1.500011 l -1.500011,0 0,-4.499681 1.500011,0 z m 0,5.999692 c 1.656644,0 3.000022,-1.343378 3.000022,-3.000022 l 0,-1.499658 c 0,-1.656645 -1.343378,-3.000023 -3.000022,-3.000023 l -3.000022,0 0,7.499703 3.000022,0 z m -6.000044,-7.499703 1.500011,0 0,7.499703 -1.500011,0 0,-7.499703 z m -3.000023,0 1.500011,0 0,7.499703 -1.500011,0 -3.000022,-4.708525 0,4.708525 -1.500011,0 0,-7.499703 1.500011,0 3.000022,4.708525 0,-4.708525 z m -22.499884,0 4.499998,0 0,1.500011 -2.999986,0 0,1.500012 2.999986,0 0,1.500011 -2.999986,0 0,1.499658 2.999986,0 0,1.500011 -4.499998,0 0,-7.499703 z m -5.999973,-3.52e-4 1.499975,0 0,6.000044 3.000023,0 0,1.500011 -4.499998,0 0,-7.500055 z m 15.750398,6.000044 1.499588,0 c 1.242272,0 2.250158,-1.007533 2.250158,-2.250017 0,-1.24213 -1.026584,-2.24543 -2.250158,-2.250016 l -1.499588,0 0,1.500011 1.499588,0 c 0.414091,0 0.750147,0.336197 0.750147,0.750005 0,0.414161 -0.336056,0.750006 -0.750147,0.750006 l -1.499588,0 0,1.500011 z m 1.499588,-7.500055 c 2.898916,0 5.249827,2.351263 5.249827,5.250038 0,2.899128 -2.350911,5.250039 -5.249827,5.250039 -2.899022,0 -5.250004,-2.350911 -5.250004,-5.250039 0,-2.898775 2.350982,-5.250038 5.250004,-5.250038 z m 0,1.500011 c 2.070594,0 3.750169,1.679575 3.750169,3.750027 0,2.070806 -1.679575,3.750028 -3.750169,3.750028 -2.0707,0 -3.749992,-1.679222 -3.749992,-3.750028 0,-2.070452 1.679292,-3.750027 3.749992,-3.750027 z"
   style="fill:#a90000;stroke:none"
   inkscape:connector-curvature="0" /><path
   style="fill:#000000"
   inkscape:connector-curvature="0"
   id="path10"
   d="m 84.666664,58.073654 c 0,23.411373 -18.957289,42.397456 -42.333333,42.397456 C 18.957288,100.47111 -1.8141e-6,81.48517 -1.8141e-6,58.073654 l 0,-58.07365743463 84.6666658141,0 0,58.07365743463 z"
   class="fil0" /><path
   style="fill:#dd232d"
   inkscape:connector-curvature="0"
   id="path12"
   d="M 0.63306484,60.376853 C 1.8277782,82.402014 20.043443,99.90046 42.333046,99.90046 c 22.184044,0 40.331288,-17.333645 41.680554,-39.21146 -0.825186,0.185544 -1.487964,0.431457 -2.150741,0.677227 -1.37512,0.510137 -2.751954,1.020846 -5.516479,1.020846 -2.764381,0 -4.141216,-0.510709 -5.516336,-1.020846 -1.339124,-0.49669 -2.677535,-0.993237 -5.357783,-0.993237 -2.680392,0 -4.018802,0.496547 -5.357927,0.993237 -1.37512,0.510137 -2.751954,1.020846 -5.516336,1.020846 -2.764524,0 -4.141359,-0.510709 -5.516479,-1.020846 -1.339124,-0.49669 -2.677535,-0.993237 -5.357784,-0.993237 -2.680248,0 -4.018659,0.496547 -5.357783,0.993237 -1.37512,0.510137 -2.751955,1.020846 -5.516479,1.020846 -2.764382,0 -4.141216,-0.510709 -5.516336,-1.020846 -1.339125,-0.49669 -2.677535,-0.993237 -5.357784,-0.993237 -2.680392,0 -4.018659,0.496404 -5.357784,0.993237 -1.37512,0.510137 -2.751954,1.020846 -5.516478,1.020846 -2.7645248,0 -4.1413591,-0.510709 -5.5164793,-1.020846 C 4.3149074,60.895144 3.0460601,60.42449 0.63306484,60.376853 z M 84.097162,41.523811 l 0,-40.95430918 -83.52823229,0 0,40.66919918 c 2.52526749,0.04034 3.83968069,0.527876 5.15452239,1.015553 1.3412672,0.497548 2.6839627,0.995669 5.3776389,0.995669 2.693675,0 4.036371,-0.498121 5.377638,-0.995669 1.372978,-0.509279 2.745384,-1.018414 5.496624,-1.018414 2.751098,0 4.123504,0.509135 5.496624,1.018414 1.341267,0.497548 2.683963,0.995669 5.377496,0.995669 2.693676,0 4.036371,-0.498121 5.377638,-0.995669 1.373121,-0.509279 2.745527,-1.018414 5.496624,-1.018414 2.751098,0 4.123504,0.509135 5.496625,1.018414 1.341267,0.497548 2.683962,0.995669 5.377638,0.995669 2.693533,0 4.036228,-0.498121 5.377496,-0.995669 1.37312,-0.509279 2.745526,-1.018414 5.496767,-1.018414 2.751097,0 4.123503,0.509135 5.496624,1.018414 1.341267,0.497548 2.683962,0.995669 5.377495,0.995669 2.693676,0 4.036372,-0.498121 5.377639,-0.995669 0.723913,-0.268516 1.447683,-0.536602 2.373143,-0.730443 z"
   class="fil1" /><path
   style="fill:#ffffff"
   inkscape:connector-curvature="0"
   id="path14"
   d="m 84.096733,58.073654 0,-16.134552 c -0.864467,0.187546 -1.549242,0.441327 -2.234302,0.695394 -1.375121,0.510138 -2.751955,1.020847 -5.516479,1.020847 -2.764382,0 -4.141216,-0.510709 -5.516336,-1.020847 -1.339125,-0.496689 -2.677535,-0.993236 -5.357784,-0.993236 -2.680392,0 -4.018802,0.496547 -5.357927,0.993236 -1.37512,0.510138 -2.751954,1.020847 -5.516336,1.020847 -2.764524,0 -4.141358,-0.510709 -5.516478,-1.020847 -1.339125,-0.496689 -2.677535,-0.993236 -5.357784,-0.993236 -2.680249,0 -4.018659,0.496547 -5.357784,0.993236 -1.37512,0.510138 -2.751954,1.020847 -5.516479,1.020847 -2.764381,0 -4.141216,-0.510709 -5.516336,-1.020847 -1.339124,-0.496689 -2.677535,-0.993236 -5.357783,-0.993236 -2.680392,0 -4.01866,0.496404 -5.357784,0.993236 -1.37512,0.510138 -2.751955,1.020847 -5.516479,1.020847 -2.7645243,0 -4.1413586,-0.510709 -5.5164788,-1.020847 C 4.3031945,42.159265 3.0232057,41.684749 0.56850119,41.644264 l 0,16.42939 c 0,0.636455 0.0167123,1.268762 0.0448517,1.898208 2.49627097,0.04549 3.80254227,0.530451 5.10967067,1.015267 1.3412672,0.497548 2.6839627,0.995668 5.3776384,0.995668 2.693676,0 4.036371,-0.49812 5.377638,-0.995668 1.372978,-0.509279 2.745384,-1.018415 5.496625,-1.018415 2.751097,0 4.123503,0.509136 5.496624,1.018415 1.341267,0.497548 2.683962,0.995668 5.377495,0.995668 2.693676,0 4.036372,-0.49812 5.377639,-0.995668 1.37312,-0.509279 2.745526,-1.018415 5.496624,-1.018415 2.751097,0 4.123504,0.509136 5.496624,1.018415 1.341267,0.497548 2.683963,0.995668 5.377638,0.995668 2.693533,0 4.036229,-0.49812 5.377496,-0.995668 1.37312,-0.509279 2.745527,-1.018415 5.496767,-1.018415 2.751097,0 4.123504,0.509136 5.496624,1.018415 1.341267,0.497548 2.683963,0.995668 5.377496,0.995668 2.693675,0 4.036371,-0.49812 5.377638,-0.995668 0.708915,-0.262937 1.417829,-0.526016 2.316293,-0.718856 0.03757,-0.726866 0.05685,-1.458311 0.05685,-2.194619 z"
   class="fil2" /><path
   style="fill:#000000;fill-rule:nonzero"
   inkscape:connector-curvature="0"
   id="path16"
   d="m 43.762017,27.257997 0,-5.01568 2.35543,0 0,2.855967 3.531861,0 0,-2.855967 2.529695,0 0,-3.537198 -2.529695,0 0,-2.855967 -3.531861,0 0,2.855967 -2.35543,0 0,-7.828445 2.575689,3.074127 5.110243,0 -9.452006,-11.2813826 -9.451719,11.2813826 5.110956,0 2.574976,-3.073411 0,7.827729 -7.865053,0 0,3.537198 7.865053,0 0,5.01568 c 0,1.719532 -1.392547,3.114326 -3.109626,3.114326 -1.717079,0 -3.109626,-1.394651 -3.109626,-3.114326 l -3.531717,0 c 0,3.672816 2.97407,6.651381 6.641343,6.651381 1.927054,0 3.661988,-0.823143 4.875271,-2.136539 1.213282,1.313396 2.948787,2.136539 4.875841,2.136539 3.667273,0 6.641344,-2.978565 6.641344,-6.651381 l -3.531718,0 c 0,1.719675 -1.392547,3.114326 -3.109626,3.114326 -1.717079,0 -3.109625,-1.394651 -3.109625,-3.114326 z"
   class="fil3" /><path
   style="fill:#ffffff;fill-rule:nonzero"
   inkscape:connector-curvature="0"
   id="path18"
   d="m 43.352352,27.235109 0.0016,-5.398212 3.167761,0 0,2.855966 2.723387,0 0,-2.855966 2.529695,0 0,-2.727503 -2.529695,0 0,-2.855966 -2.723387,0 0,2.855966 -3.167047,0 0.0027,-9.3448356 3.167619,3.7808226 4.057083,0 -8.58611,-10.2480906 -8.585966,10.2480906 4.057797,0 3.167047,-3.7801074 0.0027,9.3441204 -7.868195,0 0,2.727503 7.86891,0 0.0016,5.396924 -2.86e-4,0.0236 2.86e-4,0.02346 c 0.02357,1.93526 -1.64823,3.501435 -3.519291,3.501435 -1.87106,0 -3.295032,-1.364324 -3.495722,-3.120048 l -2.722387,0 c 0.20869,3.257525 2.912793,5.836678 6.218109,5.836678 1.974048,0 3.733979,-0.920278 4.875842,-2.354985 1.141862,1.434707 2.901222,2.354985 4.87527,2.354985 3.305317,0 6.00942,-2.579153 6.218109,-5.836678 l -2.722387,0 c -0.20069,1.755724 -1.624376,3.120048 -3.495722,3.120048 -1.871346,0 -3.544287,-1.566748 -3.51929,-3.502722 l 2.85e-4,-0.02217 -2.85e-4,-0.02232 z"
   class="fil4" />
</svg>