<?xml version="1.0" encoding="UTF-8" standalone="no"?>
<!-- Created with Inkscape (http://www.inkscape.org/) -->
<svg id="svg3259" xmlns:rdf="http://www.w3.org/1999/02/22-rdf-syntax-ns#" xmlns="http://www.w3.org/2000/svg" height="360" width="300" version="1.1" xmlns:cc="http://creativecommons.org/ns#" xmlns:dc="http://purl.org/dc/elements/1.1/">
 <defs id="defs3261">
  <linearGradient id="linearGradient3147" gradientUnits="userSpaceOnUse" x2="0.9" x1="0.1" gradientTransform="matrix(35.868957,-0.59662747,-0.86015875,-51.852512,334.52193,480.66511)">
   <stop id="stop3383" stop-color="#999" offset="0"/>
   <stop id="stop3385" stop-color="#bfbfbf" offset="0.62"/>
   <stop id="stop3387" stop-color="#e5e5e5" offset="1"/>
  </linearGradient>
  <linearGradient id="linearGradient3151" gradientUnits="userSpaceOnUse" x2="0.95" x1="0.05" gradientTransform="matrix(-55.410629,4.6238055,6.3580291,76.399569,394.78005,439.39398)">
   <stop id="stop3359" stop-color="#e69423" offset="0"/>
   <stop id="stop3361" stop-color="#f4ec2c" offset="0.24"/>
   <stop id="stop3363" stop-color="#e69423" offset="1"/>
  </linearGradient>
  <radialGradient id="radialGradient3156" gradientUnits="userSpaceOnUse" cy="0" cx="0" gradientTransform="matrix(56.447755,0,0,-56.524173,347.59412,474.71377)" r="1.03">
   <stop id="stop3337" stop-color="#e5e5e5" offset="0"/>
   <stop id="stop3339" stop-color="#999" offset="1"/>
  </radialGradient>
  <radialGradient id="radialGradient3159" gradientUnits="userSpaceOnUse" cy="0" cx="0" gradientTransform="matrix(0.9302162,0,0,-0.93147551,304.95585,482.70125)" r="0.63">
   <stop id="stop3319" stop-color="#FFF" offset="0"/>
   <stop id="stop3321" stop-color="#CCC" offset="1"/>
  </radialGradient>
  <radialGradient id="radialGradient3162" gradientUnits="userSpaceOnUse" cy="0" cx="0" gradientTransform="matrix(10.852461,0,0,-10.867153,311.86321,475.65112)" r="0.62">
   <stop id="stop3301" stop-color="#FFF" offset="0"/>
   <stop id="stop3303" stop-color="#CCC" offset="1"/>
  </radialGradient>
  <radialGradient id="radialGradient3165" gradientUnits="userSpaceOnUse" cy="0" cx="0" gradientTransform="matrix(2.1516467,0,0,-2.1545595,312.74724,472.77591)" r="0.51">
   <stop id="stop3283" stop-color="#FFF" offset="0"/>
   <stop id="stop3285" stop-color="#CCC" offset="1"/>
  </radialGradient>
  <radialGradient id="radialGradient3168" gradientUnits="userSpaceOnUse" cy="0" cx="0" gradientTransform="matrix(0.71699388,0,0,-0.71796453,312.56998,471.58344)" r="0.51">
   <stop id="stop3265" stop-color="#FFF" offset="0"/>
   <stop id="stop3267" stop-color="#CCC" offset="1"/>
  </radialGradient>
  <radialGradient id="radialGradient3171" gradientUnits="userSpaceOnUse" cy="0" cx="0" gradientTransform="matrix(0.69878582,0,0,-0.69973183,312.85067,475.20632)" r="0.51">
   <stop id="stop3247" stop-color="#FFF" offset="0"/>
   <stop id="stop3249" stop-color="#CCC" offset="1"/>
  </radialGradient>
  <radialGradient id="radialGradient3174" gradientUnits="userSpaceOnUse" cy="0" cx="0" gradientTransform="matrix(1.0004112,0,0,-1.0017656,306.68951,482.80459)" r="0.63">
   <stop id="stop3229" stop-color="#FFF" offset="0"/>
   <stop id="stop3231" stop-color="#CCC" offset="1"/>
  </radialGradient>
  <radialGradient id="radialGradient3177" gradientUnits="userSpaceOnUse" cy="0" cx="0" gradientTransform="matrix(2.2426411,0,0,-2.2456771,299.36432,481.38294)" r="0.66">
   <stop id="stop3211" stop-color="#FFF" offset="0"/>
   <stop id="stop3213" stop-color="#CCC" offset="1"/>
  </radialGradient>
  <linearGradient id="linearGradient3191" gradientUnits="userSpaceOnUse" x2="0.95" x1="0.05" gradientTransform="matrix(-36.759478,6.8670945,3.8414416,20.618942,379.66071,411.8332)">
   <stop id="stop3167" stop-color="#f4c815" offset="0"/>
   <stop id="stop3169" stop-color="#f4ec2c" offset="0.51"/>
   <stop id="stop3171" stop-color="#f2c117" offset="1"/>
  </linearGradient>
  <radialGradient id="radialGradient3194" gradientUnits="userSpaceOnUse" cy="0" cx="0" gradientTransform="matrix(33.89907,0,0,-33.944962,358.81386,408.89759)" r="0.94">
   <stop id="stop3147" stop-color="#FFF" offset="0"/>
   <stop id="stop3149" stop-color="#b2b2b2" offset="1"/>
  </radialGradient>
  <linearGradient id="linearGradient3203" gradientUnits="userSpaceOnUse" x2="0.99" x1="0.01" gradientTransform="matrix(0,-34.748854,-30.015066,0,416.452,487.54716)">
   <stop id="stop3113" stop-color="#999" offset="0"/>
   <stop id="stop3115" stop-color="#e5e5e5" offset="0.73"/>
   <stop id="stop3117" stop-color="#999" offset="1"/>
  </linearGradient>
  <linearGradient id="linearGradient3206" gradientUnits="userSpaceOnUse" x2="0.96" x1="0.04" gradientTransform="matrix(92.95936,-5.9514406,-6.7160674,-105.18656,324.39811,623.97351)">
   <stop id="stop3091" stop-color="#999" offset="0"/>
   <stop id="stop3093" stop-color="#e5e5e5" offset="0.62"/>
   <stop id="stop3095" stop-color="#999" offset="1"/>
  </linearGradient>
  <linearGradient id="linearGradient3209" gradientUnits="userSpaceOnUse" x2="0.97" x1="0.03" gradientTransform="matrix(101.18887,2.0231417,0.71419617,-35.817695,318.46375,602.0295)">
   <stop id="stop3069" stop-color="#ededed" offset="0"/>
   <stop id="stop3071" stop-color="#FFF" offset="0.27"/>
   <stop id="stop3073" stop-color="#ededed" offset="1"/>
  </linearGradient>
  <linearGradient id="linearGradient3213" gradientUnits="userSpaceOnUse" x2="0.72" x1="0.28" gradientTransform="matrix(-52.18285,-39.878399,-37.000012,48.547524,395.35083,611.18558)">
   <stop id="stop3049" stop-color="#e5e5e5" offset="0"/>
   <stop id="stop3051" stop-color="#FFF" offset="1"/>
  </linearGradient>
  <linearGradient id="linearGradient3216" gradientUnits="userSpaceOnUse" x2="0.67" x1="0.33" gradientTransform="matrix(-75.213131,-19.724299,-17.385439,66.474133,459.68421,578.20918)">
   <stop id="stop3031" stop-color="#e5e5e5" offset="0"/>
   <stop id="stop3033" stop-color="#FFF" offset="1"/>
  </linearGradient>
  <radialGradient id="radialGradient3219" gradientUnits="userSpaceOnUse" cy="0" cx="0" gradientTransform="matrix(10.836867,0,0,-10.851538,357.5964,396.60223)" r="0.91">
   <stop id="stop3011" stop-color="#f4ec2c" offset="0"/>
   <stop id="stop3013" stop-color="#f4c815" offset="1"/>
  </radialGradient>
 </defs>
 <metadata id="metadata3264">
  <rdf:RDF>
   <cc:Work rdf:about="">
    <dc:format>image/svg+xml</dc:format>
    <dc:type rdf:resource="http://purl.org/dc/dcmitype/StillImage"/>
    <dc:title/>
   </cc:Work>
  </rdf:RDF>
 </metadata>
 <g id="layer1" transform="translate(-224.99775,-352.35654)">
  <path id="path3029" d="m446.75,524.39c2.9349,0,5.315,2.38,5.315,5.315v5.3142c0,2.9349-2.38,5.315-5.315,5.315h-5.315v-15.944zm0,21.259c5.8698,0,10.63-4.7601,10.63-10.63v-5.3142c0-5.8698-4.7601-10.63-10.63-10.63h-10.63v26.574zm-21.26-26.574,5.315,0,0,26.574-5.315,0zm-10.63,0,5.315,0,0,26.574-5.315,0-10.63-16.684,0,16.684-5.315,0,0-26.574,5.315,0,10.63,16.684zm-79.724,0.00036,15.945,0,0,5.315-10.63,0,0,5.3146,10.63,0,0,5.315-10.63,0,0,5.3146,10.63,0,0,5.315-15.945,0zm-21.26-0.00071,5.315,0,0,21.26,10.63,0,0,5.315-15.945,0zm55.808,21.26,5.3135,0c4.4022,0,7.9724-3.5702,7.9724-7.9724s-3.6365-7.9572-7.9724-7.9724h-5.3135v5.315h5.3135c1.4673,0,2.6575,1.1902,2.6575,2.6575s-1.1902,2.6575-2.6575,2.6575h-5.3135zm5.3135-26.575c10.272,0,18.602,8.3303,18.602,18.602s-8.3303,18.602-18.602,18.602-18.602-8.3303-18.602-18.602,8.3303-18.602,18.602-18.602zm-13.287,18.602c0,7.3371,5.9503,13.287,13.287,13.287,7.3371,0,13.287-5.9503,13.287-13.287,0-7.3371-5.9503-13.287-13.287-13.287-7.3371,0-13.287,5.9503-13.287,13.287z" class="fil0" fill="#a90000"/>
  <path id="path2995" d="m225,588.89c0.35246,3.0105,0.80216,5.995,1.3619,8.9448,12.337,65.047,74.201,114.52,148.64,114.52,74.436,0,136.3-49.471,148.64-114.52,0.55978-2.9512,1.0102-5.9364,1.3626-8.9487v-236.52h-300v236.53z" fill-rule="evenodd" fill="#000"/>
  <path id="path2997" d="m514.17,623.34c4.6139-10.913,7.7393-22.502,9.1577-34.562v-234.76h-296.66v234.76c1.4183,12.06,4.5451,23.652,9.1598,34.565,21.609,51.105,75.777,87.354,139.17,87.354s117.56-36.25,139.17-87.358" fill-rule="evenodd" fill="#3d82c2"/>
  <path id="path3015" d="m363.03,403.14-3.7326-7.489c-1.2773-2.562-3.9354-2.0426-4.1459,0.85538l-0.60587,8.3441,8.4844-1.7105z" fill-rule="evenodd" stroke="#000" stroke-miterlimit="7.83148575" stroke-dasharray="none" stroke-width="1" fill="url(#radialGradient3219)"/>
  <path id="path3035" d="m380.21,596.88c2.1616,5.152,5.2576,10.728,8.6715,15.441-0.75263,4.9913-2.7534,5.0438-3.657,6.9174-1.4906,3.0918,1.5484,6.5819,5.392,9.1616,6.717-4.3774,13.46-9.8973,20.537-16.714l5.6931,5.3201c4.7628-1.7048,0.97186-15.506,1.103-24.589-12.609-0.72908-25.049,1.9911-37.74,4.462" fill-rule="evenodd" fill="url(#linearGradient3216)"/>
  <path id="path3053" d="m365.28,599.45c-4.9045,11.963-9.7856,24.781-15.988,25.403l-3.0584-6.071c-8.1913,3.6119-14.879,4.1295-21.856,4.9959-3.1981-6.8531-3.1871-10.903,0.10067-11.712,1.4842-0.56949,2.7278-1.3806,3.8595-2.3037,0.10595-3.0282,0.49464-7.595,1.7387-10.665,10.617,3.0718,22.963,2.1475,35.204,0.35294" fill-rule="evenodd" fill="url(#linearGradient3213)"/>
  <path id="path3055" stroke-linejoin="miter" d="m416.91,616.99c4.7637-1.7041,0.90627-15.485,1.0363-24.567m-27.474,35.832c-3.856-2.5829-6.7462-5.9109-5.2503-9.0126,0.94847-1.9659,3.1039-1.9268,3.7501-7.6979,0.25294-2.258,1.2493-3.5671,2.7562-4.6464m-11.39-9.62c2.1574,5.1417,5.1178,10.336,8.539,15.056m-60.535-2.6961c0.10801-3.0764,0.48501-7.6107,1.7793-10.687m-5.8218,24.613c-3.18-6.8547-3.1261-10.687,0.16167-11.496,2.9227-1.1215,4.9104-3.1792,6.9537-5.1821m17.788,17.974c6.2437-0.54537,11.085-13.261,16.009-25.261" stroke="#000" stroke-linecap="butt" stroke-miterlimit="8.82926846" stroke-dasharray="none" stroke-width="1" fill="none"/>
  <path id="path3075" d="m418.75,592.47c-16.063-1.1137-31.833,3.4865-48.19,6.1539-18.403,3.0001-37.668,5.0356-51.424-4.6964,2.184-7.8396,6.1658-14.241,8.4564-21.704,15.833,10.217,50.249-5.7438,81.637-3.8417,3.7067,7.246,7.5405,15.979,9.5207,24.089z" fill-rule="evenodd" stroke="#000" stroke-miterlimit="8.82926846" stroke-dasharray="none" stroke-width="1" fill="url(#linearGradient3209)"/>
  <path id="path3097" d="m404.17,553.8c1.6997,5.3596,5.6702,10.098,6.8234,15.428-13.451,1.697-26.939,3.3535-40.349,6.0202-19.046,3.7885-36.83,5.6397-45.051-3.6971,2.9858-9.892,13.457-21.896,13.848-38.641,0.13392-5.7458,1.4729-9.6434,5.2893-12.817l48.689-1.7188c4.0988,5.961,6.5482,22.185,10.75,35.426z" fill-rule="evenodd" stroke="#000" stroke-miterlimit="8.82926846" stroke-dasharray="none" stroke-width="1" fill="url(#linearGradient3206)"/>
  <path id="path3116-1" stroke-linejoin="miter" d="m388.93,518.56,7.6331,7.6331m-5.0322-7.7152,3.5672,3.5672m-55.471,7.9742,10.09-10.104m-10.281,12.99,13.071-13.089m-13.24,15.953,16.029-16.051m-16.429,19.147,19.219-19.245m-19.922,22.644,22.713-22.743m-23.8,26.528,26.59-26.626m-28.186,30.919,30.975-31.017m-33.196,35.937,35.987-36.036m-38.772,41.52,41.562-41.618m-44.313,47.069,47.103-47.167m-48.996,51.76,51.788-51.858m-50.958,53.721,53.747-53.82m-52.278,55.044,55.068-55.142m-53.44,56.22,56.23-56.31m-54.447,57.217,57.238-57.316m-55.31,58.079,58.099-58.177m-56.021,58.792,58.225-58.304m-56.01,58.781,56.944-57.021m-54.589,57.359,55.393-55.468m-52.911,55.678,53.63-53.702m-51.024,53.786,51.68-51.75m-48.955,51.716,49.568-49.635m-46.733,49.492,47.314-47.378m-44.375,47.131,44.934-44.995m-41.904,44.656,42.449-42.507m-39.331,42.079,39.868-39.922m-36.671,39.416,37.205-37.255m-33.943,36.684,34.48-34.526m-31.16,33.897,31.704-31.747m-28.361,31.094,28.914-28.953m-25.612,28.343,26.18-26.216m-22.922,25.649,23.51-23.542m-20.288,23.012,20.9-20.929m-17.711,20.431,18.354-18.379m-15.192,17.908,15.947-15.969m-12.807,15.52,13.667-13.686m-10.546,13.256,11.465-11.48m-8.3587,11.066,9.3001-9.3127m-6.2072,8.9106,7.1328-7.1427m-4.047,6.7482,4.9228-4.9295m-1.8417,4.5389,2.6166-2.6199m-70.034-40.379,6.6134-6.6226m51.96,13.884-15.163-15.183m16.06,18.777-18.66-18.685m19.549,22.27-22.148-22.178m23.062,25.789-25.662-25.697m26.639,29.371-29.24-29.279m30.328,33.064-32.928-32.972m34.403,37.144-37.002-37.053m39.82,42.569-42.42-42.477m44.78,47.536-47.38-47.444m47.134,49.893-49.734-49.801m47.342,50.103-49.944-50.011m47.555,50.313-50.154-50.221m47.765,50.525-50.365-50.433m47.981,50.741-50.581-50.65m48.199,50.961-50.8-50.869m48.426,51.186-51.024-51.094m48.655,51.416-50.045-50.113m47.684,50.445-48.894-48.961m46.54,49.3-47.541-47.606m45.198,47.955-45.966-46.028m43.635,46.387-44.163-44.223m41.844,44.596-42.145-42.203m39.836,42.586-39.95-40.004m37.656,40.402-37.836-37.888m35.555,38.298-35.866-35.915m33.601,36.34-34.022-34.068m31.771,34.51-32.288-32.331m30.032,32.768-30.63-30.671m28.358,31.091-29.024-29.064m26.735,29.465-27.463-27.5m25.1,27.85-25.92-25.96m23.581,26.308-24.403-24.436m22.025,24.75-22.882-22.913m20.461,23.184-21.347-21.375m18.876,21.596-19.781-19.808m17.246,19.965-18.163-18.187m15.546,18.262-16.466-16.489m13.739,16.453-14.652-14.673m11.771,14.482-12.667-12.684m9.5464,12.255-10.407-10.421m6.8478,9.5517-7.6499-7.66m71.502-38.909-11.608-11.623" stroke="#000" stroke-linecap="butt" stroke-miterlimit="4" stroke-dasharray="none" stroke-width="0.40000001" fill="none"/>
  <path id="path3119" d="m386.44,455.84,4.7102,28.812c4.6756,0.40599,11.821,3.6002,16.532,2.7521,6.3308-7.6543,3.1176-27.084-0.90284-34.024-7.2681-0.22596-14.837,0.0994-20.339,2.4598z" fill-rule="evenodd" stroke="#000" stroke-miterlimit="8.82926846" stroke-dasharray="none" stroke-width="1" fill="url(#linearGradient3203)"/>
  <path id="path3123" stroke-linejoin="miter" d="m386.53,456.4,0.98149-0.98282m-0.60266,3.2989,4.3553-4.3614m-3.9769,6.6779,7.2142-7.224m-6.8351,9.54,9.8241-9.8374m-9.4453,12.155,12.283-12.3m-11.905,14.615,14.638-14.658m-14.259,16.974,16.92-16.943m-16.542,19.259,18.153-18.178m-17.774,20.494,18.59-18.615m-18.212,20.93,18.913-18.939m-18.534,21.255,19.145-19.171m-18.767,21.488,19.292-19.318m-18.89,21.64,19.36-19.38m-17.398,20.118,17.76-17.784m-15.563,18.277,15.832-15.853m-13.692,16.406,13.85-13.868m-11.711,14.422,11.733-11.749m-9.5446,12.253,9.3723-9.385m-7.0672,9.7722,6.573-6.5822m-3.9918,6.6914,2.686-2.6894m-1.3977-29.206-2.2783-2.2816m3.685,6.383-6.4015-6.4104m7.2642,9.9697-9.9106-9.924m10.481,13.191-13.044-13.062m13.398,16.112-15.866-15.887m16.033,18.751-18.394-18.418m18.393,21.112-20.635-20.664m20.468,23.192-22.58-22.61m22.247,24.973-24.216-24.249m23.708,26.436-23.282-23.314m22.589,25.314-22.062-22.092m21.164,23.889-20.637-20.665m19.357,22.079-18.83-18.855m16.172,18.889-15.645-15.666m12.456,15.168-11.928-11.944m8.3718,11.078-7.8453-7.8559m4.2358,6.9367-3.7086-3.7134" stroke="#000" stroke-linecap="butt" stroke-miterlimit="10" stroke-dasharray="none" stroke-width="0.40000001" fill="none"/>
  <path id="path3125" stroke-linejoin="miter" d="m395.94,362.08c-1.6433-1.3227-5.0274-1.1151-5.8899,1.0531,2.4012,16.855,17.764,28.507,37.875,39.069,16.009,8.4082,26.694,17.201,32.308,35.675,3.343,10.999,5.0767,22.047,3.4011,33.416-3.0092,20.412-12.24,32.43-29.022,43.368-17.56,11.446-29.599,23.211-31.565,40.238,2.09,1.57,4.6343,1.0903,6.1247-0.403,3.6689-24.009,20.657-30.72,37.896-43.344,13.685-10.022,20.448-23.24,22.586-38.897,1.5828-11.596-0.10801-24.028-3.3887-35.271-4.5224-15.496-14.227-27.526-30.074-35.069-20-9.521-34.488-18.176-40.251-39.835z" fill-rule="evenodd" stroke="#000" stroke-linecap="butt" stroke-miterlimit="8.82926846" stroke-dasharray="none" stroke-width="1" fill="#e6e6e6"/>
  <path id="path3127" stroke-linejoin="miter" d="m467.54,450.37c-0.438-0.47396-1.0478-0.55203-2.0217-0.60347-5.2684-0.2813-10.114,1.2777-11.985,4.0096l-3.8301,0.44204,2.0985,13.141,3.7785-0.5897c1.0076,0.52586,1.7071,0.83448,2.8342,1.0173,1.7584,0.28704,3.6033,0.39841,5.558,0.32355l0.10205-1.4483,0.78451,0.49072,5.1677-0.30656,0.0436,0.53045c1.3353-0.64963,1.3984-2.461,0.68452-3.8996,1.5335-0.61908,2.1263-2.0777,1.4704-4.0663,1.4679-1.0402,1.8201-2.8888,0.81455-4.453,1.5718-1.2999,1.4243-4.6307-1.6961-4.6769-0.6453-0.009-1.3025-0.0161-1.9449-0.005l0.15226,1.1521-1.3548,0.33389-0.65655-1.3909z" fill-rule="evenodd" stroke="#000" stroke-linecap="butt" stroke-miterlimit="8.82926846" stroke-dasharray="none" stroke-width="1" fill="#edc480"/>
  <path id="path3129" d="m405.32,478.45c1.6025,0.81037,3.6396,1.5544,5.0327,1.5682,3.1215-0.58257,6.2416-1.2673,9.3638-2.0373-1.9827-7.6263-2.6743-15.752-1.0672-23.39-2.3116,0.16419-4.3028,0.41265-6.002,0.81565-1.6543-0.67373-4.0581-1.2134-6.0818-1.4274-2.9342,8.4013-2.831,16.496-1.2454,24.471" fill-rule="evenodd" stroke-miterlimit="8.82926846" stroke-dasharray="none" stroke-width="1" fill="#FFF"/>
  <path id="path3131" d="m419.71,477.98,0.67742-0.16878c11.298-2.8295,22.597-6.7383,33.896-10.781-1.699-4.5506-2.2719-9.4539-1.8531-13.65-15.174,1.0453-26.103,0.67741-33.657,1.201l-0.13117,0.009c-1.6071,7.638-0.91545,15.763,1.0672,23.39" fill-rule="evenodd" stroke-miterlimit="8.82926846" stroke-dasharray="none" stroke-width="1" fill="#e6e6e6"/>
  <path id="path3133" stroke-linejoin="miter" d="m363.8,442.77-3.5279-15.109,19.076-2.418c0.0656,1.4807,0.69095,3.2989-0.41598,4.4946-0.94136,1.8825,1.8201,5.1357,2.4076,7.2871,0.25295,0.92564,0.57927,2.198-0.75652,2.6258-0.73979,0.23675-2.2148-0.23193-3.6714,0.11849l-3.8567,4.9541-9.2554-1.9535z" fill-rule="evenodd" stroke="#000" stroke-linecap="butt" stroke-miterlimit="7.83148575" stroke-dasharray="none" stroke-width="1" fill="#edc480"/>
  <path id="path3151" d="m359.34,403.3c-14.512,2.4527-11.58,18.676-12.385,28.727,10.608-2.6017,22.394-4.8039,33.897-5.551-2.29-9.849-9.14-25.27-21.52-23.176z" fill-rule="evenodd" stroke="#000" stroke-miterlimit="7.83148575" stroke-dasharray="none" stroke-width="1" fill="url(#radialGradient3194)"/>
  <path id="path3173" d="m378.19,418.23-0.009-0.0207c-10.472,0.36695-20.923,2.2084-30.995,5.3621l-0.00069,0.0262c-0.067,2.9923-0.033,5.9109-0.23525,8.4388,10.608-2.6021,22.394-4.8042,33.897-5.5514-0.58092-2.5165-1.4624-5.3961-2.6572-8.255z" fill-rule="evenodd" stroke="#000" stroke-miterlimit="7.83148575" stroke-dasharray="none" stroke-width="1" fill="url(#linearGradient3191)"/>
  <path id="path3177" stroke-linejoin="miter" d="m380.32,439.71c0.0115,2.2853-0.8705,3.4589-1.8077,4.1841l0.0206,1.2159c0.0241,1.3358,4.2546,2.1004,6.0382,4.2043,0.91338,1.3461,0.91338,2.8068,0,4.382l-15.551,0.91003-5.6424-6.9916,1.5557-8.9177c3.99-0.43492,4.5495-0.30977,5.8211,2.0901,1.1427,2.1572,2.066,2.6688,3.0974,0.19128,0.29835-0.71667,0.75607-1.3433,1.6876-1.4742,0.35155,0.28314,0.82304,0.40232,1.3768,0.26959,1.2975-0.31184,2.6092,0.026,3.4029-0.0638z" fill-rule="evenodd" stroke="#000" stroke-linecap="butt" stroke-miterlimit="7.83148575" stroke-dasharray="none" stroke-width="1" fill="#bf7019"/>
  <path id="path3179" stroke-linejoin="miter" d="m326.41,424.07,9.551,15.807m-1.2812,0.77638-9.5562-15.804m17.177,28.398-8.1099-13.389-4.9508-1.2198-4.3539-7.2038,4.9721,1.2251-0.7696-1.2738-4.9721-1.2244-3.9622-6.5562,6.0078,1.4795,1.4782-6.0159,3.9457,6.5296-1.2227,4.9789,0.76914,1.2738,1.2234-4.9789,4.3539,7.2038-1.2285,5.0004,8.0904,13.401-1.2709,0.76995z" fill-rule="evenodd" stroke="#000" stroke-linecap="butt" stroke-miterlimit="7.83148575" stroke-dasharray="none" stroke-width="1" fill="#e6e6e6"/>
  <path id="path3181" stroke-linejoin="miter" d="m322.92,426.18,9.5512,15.808m-1.2812,0.77661-9.5562-15.804m17.177,28.398-8.1099-13.389-4.9506-1.2198-4.3534-7.2038,4.9721,1.2244-0.77029-1.2733-4.9721-1.2249-3.9613-6.5562,6.0071,1.4802,1.4782-6.0159,3.9464,6.5296-1.2234,4.9789,0.7696,1.2738,1.2227-4.9796,4.3541,7.2044-1.2287,5.0004,8.0911,13.4-1.2716,0.77065z" fill-rule="evenodd" stroke="#000" stroke-linecap="butt" stroke-miterlimit="7.83148575" stroke-dasharray="none" stroke-width="1" fill="#e6e6e6"/>
  <path id="path3183" stroke-linejoin="miter" d="m319.44,428.29,9.5503,15.808m-1.2812,0.77661-9.5556-15.804m17.176,28.398-8.1099-13.389-4.9508-1.2198-4.3532-7.2038,4.9721,1.2244-0.77029-1.2733-4.9717-1.2251-3.962-6.556,6.0077,1.4802,1.4775-6.0159,3.9464,6.5293-1.2234,4.9789,0.76983,1.274,1.2227-4.9796,4.3539,7.2044-1.2285,5.0002,8.0909,13.4-1.2714,0.77087z" fill-rule="evenodd" stroke="#000" stroke-linecap="butt" stroke-miterlimit="7.83148575" stroke-dasharray="none" stroke-width="1" fill="#e6e6e6"/>
  <path id="path3185" stroke-linejoin="miter" d="m315.96,430.39,9.5505,15.807m-1.2805,0.77661-9.5562-15.804m17.176,28.398-8.1099-13.389-4.9506-1.2198-4.3534-7.2038,4.9721,1.2248-0.77029-1.2738-4.9714-1.2244-3.962-6.5562,6.0075,1.4797,1.4777-6.0159,3.9464,6.5293-1.2234,4.9789,0.7696,1.274,1.2227-4.9789,4.3541,7.2038-1.2287,5.0002,8.0911,13.401-1.2716,0.77019z" fill-rule="evenodd" stroke="#000" stroke-linecap="butt" stroke-miterlimit="8.39024448" stroke-dasharray="none" stroke-width="1" fill="#e6e6e6"/>
  <path id="path3187" stroke-linejoin="miter" d="m312.48,432.5,9.551,15.808m-1.2812,0.77638-9.5562-15.804m17.176,28.398-8.1092-13.389-4.9508-1.22-4.3541-7.2038,4.9724,1.2244-0.76983-1.2731-4.9721-1.2251-3.962-6.5562,6.0077,1.4802,1.4782-6.0156,3.9457,6.5293-1.2234,4.9789,0.76983,1.274,1.2232-4.9798,4.3534,7.2044-1.228,5.0004,8.0904,13.4-1.2714,0.77064z" fill-rule="evenodd" stroke="#000" stroke-linecap="butt" stroke-miterlimit="8.39024448" stroke-dasharray="none" stroke-width="1" fill="#e6e6e6"/>
  <path id="path3189" stroke-linejoin="miter" d="m309,434.61,9.5512,15.808m-1.2812,0.77661-9.5565-15.804m17.176,28.398-8.1092-13.389-4.9508-1.2198-4.3539-7.2038,4.9721,1.2244-0.7696-1.2731-4.9721-1.2251-3.962-6.5562,6.0075,1.4802,1.4777-6.0159,3.9464,6.5296-1.2234,4.9789,0.7696,1.2738,1.2234-4.9796,4.3534,7.2044-1.228,5.0004,8.0904,13.4-1.2716,0.77065z" fill-rule="evenodd" stroke="#000" stroke-linecap="butt" stroke-miterlimit="8.39024448" stroke-dasharray="none" stroke-width="1" fill="#e6e6e6"/>
  <path id="path3191" stroke-linejoin="miter" d="m352.94,465.77-21.45,11.708-13.156-21.769,21.45-11.708,13.156,21.769z" fill-rule="evenodd" stroke="#000" stroke-linecap="butt" stroke-miterlimit="8.39024448" stroke-dasharray="none" stroke-width="1" fill="#bf7019"/>
  <path id="path3193" d="m312.39,471.39c-1.5516,0.59498-3.0747,1.2823-4.5399,2.1317l-14.607-6.0191v-5.2131l10.375-8.2695c-6.0747,0.56834-12.181,3.0934-18.168,9.5152-2.5503,2.7358-2.3026,4.9192-0.18024,7.0217,3.4712,3.438,6.9048,6.0749,9.7097,8.822,2.7399,2.6837,7.144,3.2865,11.763,3.4693,1.874,0.0436,4.0186,0.14444,5.9018,0.0873,0.37104-3.7928,0.29193-7.7647-0.25546-11.545" fill-rule="evenodd" stroke-miterlimit="8.39024448" stroke-dasharray="none" stroke-width="1" fill="#FFF"/>
  <path id="path3195" d="m309.19,453.99c6.7384,0.49991,13.305-0.49256,19.958-1.4398-0.47722,4.179,0.78129,8.061,1.7979,12.063-6.2962,3.858-13.628,4.5577-20.212,7.4529-4.3945-1.1801-8.9499-2.9544-13.115-5.1538-2.6535-1.4008-2.8816-2.5569-0.5616-4.8638,3.4061-3.3861,7.025-4.8572,11.179-8.0982-0.68315-0.0909,0.88013,0.0347,0.95351,0.0397" fill-rule="evenodd" stroke-miterlimit="8.39024448" stroke-dasharray="none" stroke-width="1" fill="#e6e6e6"/>
  <path id="path3197" d="m310.81,472.09c-4.4176-1.1808-9.0018-2.9622-13.191-5.1747-2.6535-1.4008-2.8816-2.5569-0.5616-4.8638,3.4061-3.3861,7.025-4.8572,11.179-8.0982-3.1286-0.44067-6.3437-0.1782-9.3666,0.88155-3.4958,2.1303-6.3352,4.6266-9.354,7.5604-2.4799,2.4098-2.5287,3.5678,0.45749,5.4919,4.5759,2.948,10.204,5.3376,15.606,7.2382,1.4319-1.1697,3.2385-2.1324,5.2301-3.0353" fill-rule="evenodd" stroke-miterlimit="8.39024448" stroke-dasharray="none" stroke-width="1" fill="#e6e6e6"/>
  <path id="path3215" d="m299.75,481.94c-0.79047-0.21815-1.5426-0.4921-2.2428-0.82805l0.23803,0.11068,0.007,0.005,0.23207,0.10149,0.0161,0.007c0.55634,0.23698,1.1413,0.43607,1.7493,0.60485" fill-rule="evenodd" stroke-miterlimit="8.39024448" stroke-dasharray="none" stroke-width="1" fill="url(#radialGradient3177)"/>
  <path id="path3233" d="m306.86,482.83c-0.33481-0.0115-0.66824-0.0255-1.0003-0.0422,0.33206,0.0161,0.66618,0.0305,1.0003,0.0422" fill-rule="evenodd" stroke-miterlimit="8.39024448" stroke-dasharray="none" stroke-width="1" fill="url(#radialGradient3174)"/>
  <path id="path3251" d="m312.83,474.97,0.03,0.69968c-0.009-0.23422-0.0183-0.46592-0.03-0.69968" fill-rule="evenodd" stroke-miterlimit="8.39024448" stroke-dasharray="none" stroke-width="1" fill="url(#radialGradient3171)"/>
  <path id="path3269" d="m312.5,471.4,0.0161,0.12745,0.007,0.0586,0.0241,0.18761,0.0138,0.11321,0.009,0.0742,0.0115,0.10494-0.0115-0.10494-0.009-0.0742-0.0138-0.11321-0.0241-0.18761-0.007-0.0586-0.0161-0.12745-0.007-0.0521,0.007,0.0521z" fill-rule="evenodd" stroke-miterlimit="8.39024448" stroke-dasharray="none" stroke-width="1" fill="url(#radialGradient3168)"/>
  <path id="path3287" d="m312.59,472.06c0.083,0.71599,0.14746,1.4327,0.19561,2.1544-0.0482-0.72104-0.11259-1.4398-0.19561-2.1544" fill-rule="evenodd" stroke-miterlimit="8.39024448" stroke-dasharray="none" stroke-width="1" fill="url(#radialGradient3165)"/>
  <path id="path3305" d="m312.59,472.06c0.0837,0.71599,0.14746,1.4327,0.19561,2.1544l0.00069,0.007,0.0337,0.54491,0.00069,0.0138,0.009,0.16534,0.001,0.0241v0.00069c0.0115,0.23376,0.0206,0.46546,0.03,0.69968l0.002,0.0553,0.005,0.1263,0.002,0.0632,0.005,0.11849,0.001,0.071,0.002,0.11068,0.002,0.0788,0.002,0.10219,0.002,0.0873v0.009l0.007,0.56053,0.00069,0.0677,0.001,0.12171,0.00069,0.0611v0.50845l-0.00069,0.0365-0.00069,0.15294v0.0287l-0.002,0.16074v0.0207l-0.005,0.28635-0.001,0.0735-0.00068,0.002-0.002,0.18164v0.005l-0.005,0.17704v0.0115l-0.002,0.0533-0.005,0.13617-0.005,0.16143-0.00069,0.0287-0.005,0.15293-0.001,0.0363-0.005,0.14536-0.002,0.0441-0.005,0.13732-0.002,0.0521-0.005,0.12952-0.002,0.0613-0.005,0.12032-0.002,0.0691-0.005,0.11252-0.005,0.0769-0.005,0.10471-0.005,0.0845-0.005,0.0971-0.005,0.0923-0.005,0.0893-0.005,0.10012-0.005,0.0815-0.007,0.10793-0.005,0.0735-0.007,0.11597-0.005,0.0645-0.007,0.12492-0.005,0.0565-0.009,0.13296-0.002,0.0487-0.009,0.14076-0.002,0.0409-0.0115,0.14719-0.002,0.0326-0.0115,0.15684-0.002,0.0246-0.0138,0.16418-0.001,0.0161-0.0138,0.17383-0.00069,0.007-0.0161,0.17957-0.24767-0.005-0.0566-0.00069-0.19171-0.005-0.11444-0.001-0.13507-0.002-0.32059-0.005-0.4302-0.005-0.0385-0.00046-0.31004-0.005-0.15525-0.002-1.009-0.0115-0.078-0.001-0.17428-0.002-0.13714-0.002-0.11626-0.002-0.19561-0.002-0.058-0.00069-0.25202-0.005-0.001-0.00069-0.25156-0.005-0.0592-0.001-0.19446-0.005-0.11627-0.002-0.3887-0.009-0.23276-0.007h-0.0183l-0.25226-0.007-0.039-0.001-0.21258-0.007,0.21258,0.007,0.039,0.001,0.25226,0.007h0.0183l0.23276,0.007,0.3887,0.009,0.11627,0.002,0.19446,0.005,0.0592,0.001,0.25156,0.005,0.001,0.00069,0.25202,0.005,0.058,0.00069,0.19561,0.002,0.11626,0.002,0.13714,0.002,0.17428,0.002,0.078,0.001,1.009,0.0115,0.15525,0.002,0.31004,0.005,0.0385,0.00046,0.4302,0.005,0.32059,0.005,0.13507,0.002,0.11444,0.001,0.19171,0.005,0.0566,0.00069,0.24767,0.005,0.0161-0.17957,0.00069-0.007,0.0138-0.17383,0.001-0.0161,0.0138-0.16418,0.002-0.0246,0.0115-0.15684,0.002-0.0326,0.0115-0.14719,0.002-0.0409,0.009-0.14076,0.002-0.0487,0.009-0.13296,0.005-0.0565,0.007-0.12492,0.005-0.0645,0.007-0.11597,0.005-0.0735,0.007-0.10793,0.005-0.0815,0.005-0.10012,0.005-0.0893,0.005-0.0923,0.005-0.0971,0.005-0.0845,0.005-0.10471,0.005-0.0769,0.005-0.11252,0.002-0.0691,0.005-0.12032,0.002-0.0613,0.005-0.12952,0.002-0.0521,0.005-0.13732,0.002-0.0441,0.005-0.14536,0.001-0.0363,0.005-0.15293,0.00069-0.0287,0.005-0.16143,0.005-0.13617,0.002-0.0533v-0.0115l0.005-0.17704v-0.005l0.002-0.18164,0.00068-0.002,0.001-0.0735,0.005-0.28635v-0.0207l0.002-0.16074v-0.0287l0.00069-0.15294,0.00069-0.0365v-0.50845l-0.00069-0.0611-0.001-0.12171-0.00069-0.0677-0.007-0.56053v-0.009l-0.002-0.0873-0.002-0.10219-0.002-0.0788-0.002-0.11068-0.001-0.071-0.005-0.11849-0.002-0.0632-0.005-0.1263-0.002-0.0553c-0.009-0.23422-0.0183-0.46592-0.03-0.69968v-0.00069l-0.001-0.0241-0.009-0.16534-0.00069-0.0138-0.0337-0.54491-0.00069-0.007c-0.0482-0.72104-0.11259-1.4398-0.19561-2.1544" fill-rule="evenodd" stroke-miterlimit="8.39024448" stroke-dasharray="none" stroke-width="1" fill="url(#radialGradient3162)"/>
  <path id="path3323" d="m305.11,482.75c-0.31211-0.0207-0.62215-0.0436-0.93013-0.0703,0.30798,0.0266,0.61802,0.0501,0.93013,0.0703" fill-rule="evenodd" stroke-miterlimit="8.39024448" stroke-dasharray="none" stroke-width="1" fill="url(#radialGradient3159)"/>
  <path id="path3341" d="m328.91,486.79c4.4931,13.578,10.096,26.728,16.326,29.188l16.707-0.76421-4.6405-55.193-27.729-0.56673,1.3651,5.1598c-5.7399,3.5168-12.463,4.464-18.572,6.7872,0.56665,3.824,0.65311,7.6906,0.27748,11.532-1.8832,0.0572-4.0278-0.0436-5.9018-0.0873,0.90811,3.1903,2.8303,6.1031,5.1379,8.7738,3.416-0.57201,6.6462-3.5976,10.249-3.6008,2.2953-0.002,4.5575-0.39634,6.7812-1.229" fill-rule="evenodd" fill="url(#radialGradient3156)"/>
  <path id="path3345" stroke-linejoin="miter" d="m312.49,472.3,1.477-1.4791m-1.228,3.9251,5.134-5.141m-10.991,13.701,0.44855-0.44915m5.5312-5.5387,8.8249-8.8369m8.1248-8.1361,0.87371-0.87466m-23.052,25.778,2.3173-2.3204m2.8881-2.892,12.905-12.923m4.6309-4.6372,2.9472-2.9512m-24.772,27.501,4.0927-4.0982m0.001-0.001,18.292-18.316m0.002-0.002,5.021-5.0278m-26.366,29.098,29.005-29.044m-27.863,30.596,30.501-30.543m-29.156,31.892,31.795-31.838m-27.315,30.046,29.951-29.992m-25.601,28.331,28.239-28.277m-25.365,28.095,28.003-28.041m-24.75,27.48,27.388-27.426m-25.163,27.891,27.8-27.837m-27.115,29.847,27.544-27.582m-26.842,29.574,27.051-27.088m-26.332,29.064,26.542-26.578m-25.802,28.532,26.01-26.045m-25.248,27.975,25.457-25.492m-24.669,27.398,24.879-24.912m-24.061,26.79,24.271-24.303m-23.42,26.148,23.629-23.661m-22.741,25.467,22.95-22.981m-22.018,24.742,22.226-22.256m-21.24,23.965,21.45-21.479m-20.398,23.122,20.607-20.635m-19.474,22.196,19.684-19.71m-18.445,21.164,18.654-18.679m-17.266,19.987,17.476-17.499m-15.862,18.579,16.071-16.093m-13.611,16.325,13.82-13.838m-10.999,13.71,11.209-11.224m-8.3883,11.094,8.597-8.6084m-5.7764,8.4796,5.9855-5.9938m-3.1651,5.8648,3.3744-3.3788m-0.55381,3.25,0.76249-0.76352m-4.4247-52.625-1.8754-1.8779m2.123,4.8216-4.8708-4.8774m5.1184,7.8208-7.8668-7.8775m8.1138,10.82-10.862-10.876m11.109,13.821-13.858-13.877m14.106,16.819-16.853-16.876m17.101,19.819-19.848-19.875m20.095,22.818-22.843-22.874m23.091,25.818-25.84-25.875m26.088,28.817-28.834-28.873m29.081,31.816-29.839-29.879m30.087,32.823-29.455-29.495m29.703,32.439-31.442-31.484m31.69,34.428-33.529-33.574m33.775,36.514-35.703-35.751m35.951,38.695-37.952-38.003m38.199,40.947-40.253-40.308m40.501,43.251-42.582-42.639m42.829,45.583-44.913-44.974m42.697,45.45-44.754-44.814m42.179,44.932-28.017-28.055m-0.48364-0.48406-15.685-15.706m41.611,44.363-24.028-24.06m-3.9764-3.9818-13.908-13.926m39.337,42.086-19.868-19.895m-7.8597-7.8704-11.409-11.424m36.564,39.307-15.439-15.46m-12.274-12.291-8.8256-8.8376m33.963,36.706-10.472-10.486m-16.886-16.908-6.7253-6.7344m4.824,7.5259-6.3426-6.3509m4.5362,7.2375-7.2818-7.2917m5.4298,8.1326-6.6508-6.6595" stroke="#000" stroke-linecap="butt" stroke-miterlimit="10" stroke-dasharray="none" stroke-width="0.40000001" fill="none"/>
  <path id="path3343" stroke-linejoin="miter" d="m312.42,471.63c1.031,6.9799,0.18666,13.492-0.71824,19.986m33.082,24.018c-6.1169-2.6869-11.329-15.122-15.823-28.7m13.666-3.7813c-1.3787-0.59956-2.758-1.4997-4.1356-3.0587-5.1989,5.5049-10.679,7.9147-16.362,7.9204-3.6038,0.002-6.8326,3.0282-10.249,3.6015-2.3063-2.6706-4.1647-5.4919-5.0338-8.6429m5.7516,0c-6.4588-0.17704-13.723,0.2154-17.619-3.6015-2.8037-2.7457-6.2373-5.3839-9.7099-8.8208-2.1217-2.103-2.3693-4.2856,0.18093-7.0221,7.8198-8.3884,15.843-10.127,23.733-9.5419,6.7404,0.49876,13.305-0.49394,19.959-1.4405-0.47768,4.179,0.77946,8.061,1.7974,12.063-8.5702,5.2517-19.059,4.6514-26.969,11.702m20.044-22.962c0.24697,4.5488,0.89435,9.0277,2.9706,13.273m-21.412,8.4966c-5.4032-1.9013-11.032-4.2923-15.606-7.2389-2.9855-1.9241-2.9367-3.0821-0.45566-5.4919,3.0176-2.9338,5.8571-5.4287,9.3522-7.5599,3.0229-1.0602,6.2373-1.3227,9.3659-0.88201-4.1544,3.2417-7.7712,4.712-11.179,8.0982-2.3194,2.3076-2.0905,3.4631,0.56298,4.8631,4.1895,2.2125,8.73,3.9106,13.149,5.0909" stroke="#000" stroke-linecap="butt" stroke-miterlimit="8.82926846" stroke-dasharray="none" stroke-width="1" fill="none"/>
  <path id="path3365" d="m351.85,465.67c5.3388,15.925,7.4066,33.161,8.9043,50.624l32.747-1.294c-0.26464-21.836-1.3904-43.241-6.1754-59.973l-36.05,0.86319,0.57467,9.7795z" fill-rule="evenodd" stroke="#000" stroke-miterlimit="8.82999992" stroke-dasharray="none" stroke-width="1" fill="url(#linearGradient3151)"/>
  <path id="path3369" stroke-linejoin="miter" d="m359.57,504.63,26.412-1.2988,7.1922-0.73482m-35.081-9.4293,26.955-1.15,7.757-1.2538m-37.112-10.538,28.07-0.77524,7.9331-1.8127m-22.525-10.723,13.154-0.0397,7.341-1.809m-9.9704-9.9837c4.2922,19.793,5.8068,39.984,6.6468,60.272m-11.263,0.55456c-1.2305-20.214-3.3841-40.428-7.5696-60.642" stroke="#000" stroke-linecap="butt" stroke-miterlimit="8.82926846" stroke-dasharray="none" stroke-width="1" fill="none"/>
  <path id="path3389" d="m346.97,432c-0.76593,7.9889-3.1937,14.44-5.9089,19.722-2.1719,4.2257-1.919,9.3049-0.75745,14.564,9.7468,0.81565,19.494,1.3084,29.24,0.91003-2.6383-7.9464-3.5726-15.845-3.8175-24.195-0.14516-4.9306-1.5635-9.681-3.7606-14.207-5.1522,0.93207-10.197,2.0394-14.996,3.2052z" fill-rule="evenodd" stroke="#000" stroke-miterlimit="8.82926846" stroke-dasharray="none" stroke-width="1" fill="url(#linearGradient3147)"/>
  <path id="path3393" stroke-linejoin="miter" d="m346.95,432.16,0.19882-0.19909m-0.59807,3.2943,4.1207-4.1262m-4.7634,7.4648,8.2255-8.2369m-9.2006,11.909,12.601-12.618m-14.059,16.773,17.398-17.421m-19.622,22.344,21.283-21.312m-22.781,25.507,23.58-23.612m-23.904,26.632,24.621-24.654m-24.551,27.279,25.171-25.205m-24.884,27.613,25.388-25.422m-24.968,27.698,25.33-25.365m-23.226,25.951,23.41-23.442m-20.906,23.63,21.005-21.034m-18.486,21.206,18.635-18.661m-16.094,18.812,16.299-16.321m-13.739,16.452,14.001-14.02m-11.416,14.127,11.74-11.756m-9.1254,11.833,9.507-9.5198m-6.8613,9.5667,7.3066-7.3165m-4.6259,7.3275,5.1315-5.1384m-2.415,5.1111,2.9786-2.9824m-0.21579,2.9115,0.83794-0.83907m-6.7521-36.387-1.1136-1.1149m2.794,5.4905-5.0561-5.0629m5.9954,8.6989-8.2406-8.2518m8.7034,11.412-10.931-10.945m11.075,13.785-13.285-13.303m13.419,16.132-15.612-15.633m15.821,18.536-18-18.024m18.303,21.024-19.56-19.587m19.987,22.71-20.321-20.349m20.907,23.63-21.33-21.359m22.125,24.85-22.635-22.666m23.718,26.447-24.306-24.339m22.45,25.176-23.109-23.14m20.471,23.194-21.195-21.224m18.519,21.24-19.304-19.33m16.589,19.306-17.428-17.452m14.676,17.391-15.566-15.587m12.778,15.491-13.584-13.603m10.763,13.473-11.319-11.335m8.4668,11.173-8.7431-8.7549m5.8603,8.5634-5.8316-5.8393m2.9245,5.6232-2.5656-2.5691" stroke="#000" stroke-linecap="butt" stroke-miterlimit="10" stroke-dasharray="none" stroke-width="0.40000001" fill="none"/>
  <path id="path3395" stroke-linejoin="miter" d="m356.52,454.61,18.431-0.83655m0.0676,1.4979-18.431,0.84274m119-6.8788,2.5356-2.4697,10.847,2.5446-10.572,3.5189-2.7491-2.2295-101.57,4.7219-3.4382,3.7701-8.3998,0.38211,3.4524-3.7864-1.4853,0.0677-3.4524,3.7864-7.6446,0.34766,4.1713-4.5747-4.5685-4.1777,7.6141-0.34628,3.7813,3.4578,1.4853-0.0677-3.782-3.4578,8.4005-0.38211,3.7976,3.4727,101.57-4.5779z" fill-rule="evenodd" stroke="#000" stroke-linecap="butt" stroke-miterlimit="8.82926846" stroke-dasharray="none" stroke-width="1" fill="#e6e6e6"/>
  <path id="path3397" stroke-linejoin="miter" d="m335.7,462.12c1.9488,1.113,4.0269,1.6136,6.2345,0.91967,1.1012-0.22183,6.449-1.5114,8.6468-4.0596,2.7622,2.1916,4.8584,0.68866,8.7314-3.3811,1.2092-1.2699,1.1239-3.108-0.002-4.292-1.1668-1.2265-2.8479-1.8286-4.2915-2.7117-1.6798-1.0278-4.2-2.1578-5.8525-1.2708-4.0828,2.1918-7.3011,5.005-11.744,5.5036l-8.3746,0.94011c-0.12934,3.3887,0.7813,6.606,1.6378,9.8796z" fill-rule="evenodd" stroke="#000" stroke-linecap="butt" stroke-miterlimit="8.82926846" stroke-dasharray="none" stroke-width="1" fill="#edc480"/>
  <path id="path3399" stroke-linejoin="miter" d="m352.83,449.19,3.6038,1.1939c1.8502,0.61173,0.88862,4.5993-0.15731,5.6331l-2.3661,2.3374c-1.1565,1.1424-2.3565,0.89832-3.4783,0.27349" stroke="#000" stroke-linecap="butt" stroke-miterlimit="8.82926846" stroke-dasharray="none" stroke-width="1" fill="none"/>
  <path id="path3401" stroke-linejoin="miter" d="m351.33,450.54,2.5253,0.66317c1.819,0.47718,0.41599,3.9928-0.47652,4.8064l-2.9998,2.7365c-1.819,0.95366-3.671-0.6014-2.0394-2.3836,0.65724-0.71805,1.0381-1.2382,1.9639-2.1291-0.30179-0.0115-0.76777-0.11527-0.97829-0.30931-1.3892,1.9978-4.1943,3.6856-6.4251,4.6978-2.8901,1.3121-5.8179,0.94953-8.5975,0.16006" stroke="#000" stroke-linecap="butt" stroke-miterlimit="8.39024448" stroke-dasharray="none" stroke-width="1" fill="none"/>
  <path id="path3403" stroke-linejoin="miter" d="m415.62,582.44c-14.987-0.37682-29.769,3.8073-45.063,6.3004-16.965,2.7664-34.924,4.5811-48.363-2.756m94.684-0.10104c-15.418-0.65468-30.599,3.6948-46.321,6.2581-17.539,2.8594-35.973,4.7986-49.563-3.4481" stroke="#de212b" stroke-linecap="butt" stroke-miterlimit="10" stroke-dasharray="none" stroke-width="1.62629497" fill="none"/>
  <path id="path3405" stroke-linejoin="miter" d="m405.32,478.45c1.6025,0.81037,3.6396,1.5544,5.0327,1.5682,14.646-2.7319,29.292-7.7466,43.938-12.987-1.699-4.5506-2.2719-9.4539-1.8531-13.65-19.929,1.3727-32.534,0.30518-39.79,2.0256-1.6543-0.67373-4.0581-1.2134-6.0818-1.4274-2.9342,8.4013-2.831,16.496-1.2454,24.471z" stroke="#000" stroke-linecap="butt" stroke-miterlimit="8.82926846" stroke-dasharray="none" stroke-width="1" fill="none"/>
  <path id="path3407" stroke-linejoin="miter" d="m449.91,468.49c-2.1609-4.7784-3.2151-9.6675-2.6542-14.719m-21.742,22.589c-2.1953-7.2915-3.1137-14.787-1.2255-22.079m-11.534,1.0218c-0.59531,1.4653-0.96979,3.4422-0.40819,5.3155m-24.862-5.3688c1.9522,0.8416,3.416,2.1721,4.3906,3.9914m27.82,18.652c-2.0632-7.8364-2.7686-15.57-1.0207-23.407m-11.898-1.1084c-4.3071,11.772-2.5982,22.935,0.86844,34.001" stroke="#000" stroke-linecap="butt" stroke-miterlimit="8.82926846" stroke-dasharray="none" stroke-width="1" fill="none"/>
  <path id="path3409" stroke-linejoin="miter" d="m376.92,439.77c-1.4186,0.34031-2.2921-0.97387-2.0192-2.4515" stroke="#000" stroke-linecap="butt" stroke-miterlimit="7.83148575" stroke-dasharray="none" stroke-width="1" fill="none"/>
  <path id="path3411" stroke-linejoin="miter" d="m380.26,439.78c0.0248,5.0434-4.0321,4.3272-4.3527,6.5045" stroke="#000" stroke-linecap="butt" stroke-miterlimit="7.83148575" stroke-dasharray="none" stroke-width="1" fill="none"/>
  <path id="path3413" stroke-linejoin="miter" d="m345.96,515.72c12.561-18.298,24.063-39.465,33.751-61.411h-5.314c-9.3171,20.824-20.334,40.939-32.603,59.16l2.8984,2.2717,1.2677-0.0207z" fill-rule="evenodd" stroke="#000" stroke-linecap="butt" stroke-miterlimit="8.82926846" stroke-dasharray="none" stroke-width="1" fill="#de212b"/>
  <path id="path3415" stroke-linejoin="miter" d="m344.78,515.63,48.681-1.7378,0,4.6066-48.681,1.7378,0-4.6066z" fill-rule="evenodd" stroke="#000" stroke-linecap="butt" stroke-miterlimit="8.82926846" stroke-dasharray="none" stroke-width="1" fill="#de212b"/>
  <path id="path3417" stroke-linejoin="miter" d="m375.47,514.49,0.1736,4.5272m4.9767-4.6429,0.1736,4.5272m0.98356-4.5853,0.17359,4.5272" stroke="#000" stroke-linecap="butt" stroke-miterlimit="8.82926846" stroke-dasharray="none" stroke-width="1" fill="none"/>
  <path id="path3419" stroke-linejoin="miter" d="m391.83,370.68,5.5585-4.4679,0.39328,1.1197-5.4617,4.4849-34.344,78.422c-0.15594-0.099-0.31463-0.19404-0.47584-0.28635l34.33-79.273zm12.479,177.44,5.5104,3.7565,0.24331-1.3038-5.2636-3.5898-47.309-89.548c-0.13989,0.13204-0.27633,0.25902-0.41163,0.38211l47.231,90.303z" stroke="#000" stroke-linecap="butt" stroke-miterlimit="8.82926846" stroke-dasharray="none" stroke-width="1" fill="none"/>
  <path id="path3421" stroke-linejoin="miter" d="m372.21,429.12c2.5936-1.0352,4.7206-1.8513,6.451-0.71944" stroke="#000" stroke-linecap="butt" stroke-miterlimit="7.83148575" stroke-dasharray="none" stroke-width="1" fill="none"/>
  <path id="path3423" stroke-linejoin="miter" d="m473.19,455.02-2.7743,0.66478m-3.8457,0.92105-0.49855,0.11964-3.5304-0.13916c-0.8439,1.4249-0.67603,2.9108,1.0414,3.6938m6.6452-8.7131-1.9618,0.40162m4.0837,7.4678-5.7431,0.95114-3.1041-0.18738c-1.655,1.2777-0.92118,2.9643,0.84046,3.7336m6.4049-0.48177-3.6813,0.53573-2.6436-0.0937c-1.0941,0.86962-0.84046,2.6897,0.64026,3.1719m-5.994-7.1886c1.6848-0.51047,2.8913-2.4261,3.0032-4.306,0.83977-0.1341,1.6798-0.54078,2.5202-1.223,1.7818,2.1937,3.1591,3.9563,5.4005,3.2474,1.0127-0.32079,0.93792-1.2329,0.32632-1.9819-0.94136-1.1523-1.846-3.1336-2.2694-4.3256-0.14676-0.41333-0.31073-0.7107-0.51024-0.92541" stroke="#000" stroke-linecap="butt" stroke-miterlimit="8.82926846" stroke-dasharray="none" stroke-width="1" fill="none"/>
  <path id="path3425" d="m371.7,431.89,4.059-2.683,1.4548,2.6068-5.5138,0.0762z" fill-rule="evenodd" stroke-miterlimit="7.83148575" stroke-dasharray="none" stroke-width="1" fill="#000"/>
  <path id="path3427" d="m355.18,677.61,0.44076,1.2896c-11.237,6.8384-22.453,3.7992-33.791-3.3816l-1.3087,4.9086-12.362-3.7136,1.6525-5.846-0.0378-0.17635,12.284,3.1459c11.112,7.0391,22.084,10.044,33.122,3.7733" fill-rule="evenodd" fill="#f5ed2b"/>
  <path id="path3429" d="m321.3,624.19c8.1177-1.1925,15.536-1.2634,24.933-5.4071l3.5648,7.0474c-5.3849,13.128-11.226,22.716-15.179,36.372,3.4614,3.1232,3.0057,10.681,11.076,13.864,2.3363,0.92173,5.387,1.4788,9.4549,1.4529l0.0326,0.0937c-11.038,6.2703-22.01,3.2658-33.122-3.7733l-12.284-3.1459-0.00069-0.002c-0.79758-3.8371,0.93609-8.8537,3.6026-10.973-0.77235-3.5469,0.0229-5.7158,2.4962-7.528-1.6167-3.3749-0.0942-6.0425,1.8513-11.368,1.5511-5.3752,3.2288-11.22,3.5746-16.632" fill-rule="evenodd" fill="#de212b"/>
  <path id="path3431" d="m444.98,668.77c-8.2782,9.7458-21.057,9.4176-33.997,6.6161l-12.678,1.2829,0.002,0.002,0.0727,0.15294,0.38686,6.3973,12.97-0.77593-0.38664-5.3922c13.202,2.8575,26.236,3.1432,34.494-7.2175l-0.86317-1.0669z" fill-rule="evenodd" fill="#f5ed2b"/>
  <path id="path3433" d="m389.56,629.08c7.0654-4.4817,14.145-10.22,21.595-17.397l5.8075,5.428c-0.54991,14.28-0.40498,28.56,0.5811,42.84,4.6965,1.6051,11.636,9.9605,21.992,9.6518,1.7-0.0507,3.4926-0.3325,5.3817-0.91829l0.0624,0.0767c-8.2782,9.7458-21.057,9.4176-33.997,6.6161l-12.678,1.2829c-1.447-3.0803-2.0639-6.277-0.8932-9.7302-1.733-2.5868-2.3141-5.3656-1.7426-8.3356-2.6945-2.6304-3.5753-7.6667-3.5786-13.376-0.3926-5.6202-0.98539-10.904-2.5294-16.14" fill-rule="evenodd" fill="#de212b"/>
  <path id="path3435" stroke-linejoin="miter" d="m320.27,630.1c7.8013-1.2049,14.755-0.96399,22.985-4.4528l4.2408,5.0622m43.52,4.9495c6.9587-3.8449,13.351-8.8433,19.926-14.995l5.7594,3.3159" stroke="#f5ed2b" stroke-linecap="butt" stroke-miterlimit="10" stroke-dasharray="none" stroke-width="1.62629497" fill="none"/>
  <path id="path3437" stroke-linejoin="miter" d="m309.76,670.69,12.293,3.148c11.161,7.069,22.178,10.072,33.265,3.6938m-42.085-17.86,5.6665,1.164m2.3941-36.647c8.1177-1.1925,15.536-1.2634,24.933-5.4071l3.5648,7.0474c-5.3849,13.128-11.226,22.716-15.179,36.372,4.4637,4.0273,2.4111,15.432,20.531,15.317l0.47332,1.3833c-11.237,6.8384-22.453,3.7992-33.791-3.3816l-1.3087,4.9086-12.362-3.7136,1.6525-5.846c-0.89-3.858,0.85605-8.999,3.5641-11.152-0.77235-3.5469,0.0229-5.7158,2.4962-7.528-1.6167-3.3749-0.0942-6.0425,1.8513-11.368,1.5511-5.3752,3.2288-11.22,3.5746-16.632zm5.5408,36.738c2.6535,0.94309,5.3076,1.5119,7.9611,1.2581m-18.91-10.011,4.0264,1.0246" stroke="#000" stroke-linecap="butt" stroke-miterlimit="8.82926846" stroke-dasharray="none" stroke-width="1" fill="none"/>
  <path id="path3439" stroke-linejoin="miter" d="m398.27,676.67,12.71-1.2862c12.996,2.8132,25.828,3.134,34.103-6.7392m-47.821-1.7006,5.7587-0.86525m-7.3428-7.4972,7.1991-0.57683m4.3195,3.7487c3.5038,0.25972,7.0069-0.14053,10.511-1.8747m-28.15-30.793c7.0654-4.4817,14.145-10.22,21.595-17.397l5.8075,5.428c-0.54991,14.28-0.40498,28.56,0.5811,42.84,5.4675,1.869,13.976,12.889,27.373,8.7336l0.92554,1.1436c-8.2581,10.361-21.292,10.075-34.494,7.2175l0.38664,5.3922-12.97,0.77593-0.38686-6.3973c-1.4991-3.1278-2.1581-6.3752-0.96796-9.8863-1.733-2.5868-2.3141-5.3656-1.7426-8.3356-2.6945-2.6304-3.5753-7.6667-3.5786-13.376-0.3926-5.6202-0.98539-10.904-2.5294-16.14z" stroke="#000" stroke-linecap="butt" stroke-miterlimit="8.82926846" stroke-dasharray="none" stroke-width="1" fill="none"/>
  <path id="path3441" stroke-linejoin="miter" d="m418.1,470.47,34.907-8.4068" stroke="#000" stroke-linecap="butt" stroke-miterlimit="8.82926846" stroke-dasharray="none" stroke-width="1" fill="none"/>
  <path id="path3443" stroke-linejoin="miter" d="m427.4,465.55,2.634-0.58441,1.0251,4.6273-2.634,0.5851-1.0251-4.628z" fill-rule="evenodd" stroke="#000" stroke-linecap="butt" stroke-miterlimit="8.82926846" stroke-dasharray="none" stroke-width="1" fill="#e6e6e6"/>
  <path id="path3445" stroke-linejoin="miter" d="m440.64,462.4,2.634-0.58464,1.0251,4.6275-2.634,0.5851-1.0251-4.628z" fill-rule="evenodd" stroke="#000" stroke-linecap="butt" stroke-miterlimit="8.82926846" stroke-dasharray="none" stroke-width="1" fill="#e6e6e6"/>
  <path id="path3113" stroke-linejoin="miter" d="m302.89,474.01c6.0641-4.8535,20.951-6.718,27.605-10.897" stroke="#000" stroke-linecap="butt" stroke-miterlimit="8.39024448" stroke-dasharray="none" stroke-width="1" fill="none"/>
  <path id="path3443-1-8-7-0-5" stroke-linejoin="miter" d="m320.28,465.26,2.5487-0.88528,2.3155,2.9298-2.5486,0.88597z" fill-rule="evenodd" stroke="#000" stroke-linecap="butt" stroke-miterlimit="8.39024448" stroke-dasharray="none" stroke-width="1" fill="#e6e6e6"/>
  <path id="path3443-1-8-7-0-5-6" stroke-linejoin="miter" d="m310.3,468.4,2.5487-0.88528,2.3155,2.9298-2.5486,0.88597z" fill-rule="evenodd" stroke="#000" stroke-linecap="butt" stroke-miterlimit="8.39024448" stroke-dasharray="none" stroke-width="1" fill="#e6e6e6"/>
 </g>
</svg>
