<?xml version="1.0" encoding="UTF-8" standalone="no"?>
<!-- Creator: CorelDRAW -->

<svg
   xmlns:dc="http://purl.org/dc/elements/1.1/"
   xmlns:cc="http://creativecommons.org/ns#"
   xmlns:rdf="http://www.w3.org/1999/02/22-rdf-syntax-ns#"
   xmlns:svg="http://www.w3.org/2000/svg"
   xmlns="http://www.w3.org/2000/svg"
   xmlns:sodipodi="http://sodipodi.sourceforge.net/DTD/sodipodi-0.dtd"
   xmlns:inkscape="http://www.inkscape.org/namespaces/inkscape"
   xml:space="preserve"
   width="300"
   height="359"
   style="fill-rule:evenodd"
   viewBox="0 0 84.666667 101.31778"
   id="svg2"
   version="1.1"
   inkscape:version="0.48.1 "
   sodipodi:docname="калинковичи.svg"><metadata
   id="metadata20"><rdf:RDF><cc:Work
       rdf:about=""><dc:format>image/svg+xml</dc:format><dc:type
         rdf:resource="http://purl.org/dc/dcmitype/StillImage" /></cc:Work></rdf:RDF></metadata><sodipodi:namedview
   pagecolor="#ffffff"
   bordercolor="#666666"
   borderopacity="1"
   objecttolerance="10"
   gridtolerance="10"
   guidetolerance="10"
   inkscape:pageopacity="0"
   inkscape:pageshadow="2"
   inkscape:window-width="640"
   inkscape:window-height="480"
   id="namedview18"
   showgrid="false"
   fit-margin-top="0"
   fit-margin-left="0"
   fit-margin-right="0"
   fit-margin-bottom="0"
   inkscape:zoom="0.7270195"
   inkscape:cx="150"
   inkscape:cy="179.5"
   inkscape:window-x="0"
   inkscape:window-y="0"
   inkscape:window-maximized="0"
   inkscape:current-layer="svg2" />
 <defs
   id="defs4"><style
     type="text/css"
     id="style6">
   
    .fil0 {fill:black}
    .fil2 {fill:#006BFF}
    .fil1 {fill:#D40028}
    .fil3 {fill:white}
   
  </style></defs>
 <path
   id="path3003"
   d="m 62.583289,48.409231 c 0.828322,0 1.500011,0.671689 1.500011,1.500012 l 0,1.499658 c 0,0.828322 -0.671689,1.500011 -1.500011,1.500011 l -1.500011,0 0,-4.499681 1.500011,0 z m 0,5.999692 c 1.656644,0 3.000022,-1.343378 3.000022,-3.000022 l 0,-1.499658 c 0,-1.656645 -1.343378,-3.000023 -3.000022,-3.000023 l -3.000022,0 0,7.499703 3.000022,0 z m -6.000044,-7.499703 1.500011,0 0,7.499703 -1.500011,0 0,-7.499703 z m -3.000022,0 1.500011,0 0,7.499703 -1.500011,0 -3.000023,-4.708525 0,4.708525 -1.500011,0 0,-7.499703 1.500011,0 3.000023,4.708525 0,-4.708525 z m -22.499884,0 4.499998,0 0,1.500011 -2.999987,0 0,1.500012 2.999987,0 0,1.500011 -2.999987,0 0,1.499658 2.999987,0 0,1.500011 -4.499998,0 0,-7.499703 z m -5.999974,-3.52e-4 1.499976,0 0,6.000044 3.000022,0 0,1.500011 -4.499998,0 0,-7.500055 z m 15.750398,6.000044 1.499588,0 c 1.242272,0 2.250158,-1.007533 2.250158,-2.250017 0,-1.24213 -1.026583,-2.24543 -2.250158,-2.250016 l -1.499588,0 0,1.500011 1.499588,0 c 0.414091,0 0.750147,0.336197 0.750147,0.750005 0,0.414161 -0.336056,0.750006 -0.750147,0.750006 l -1.499588,0 0,1.500011 z m 1.499588,-7.500055 c 2.898916,0 5.249827,2.351263 5.249827,5.250038 0,2.899128 -2.350911,5.250039 -5.249827,5.250039 -2.899022,0 -5.250003,-2.350911 -5.250003,-5.250039 0,-2.898775 2.350981,-5.250038 5.250003,-5.250038 z m 0,1.500011 c 2.070594,0 3.750169,1.679575 3.750169,3.750027 0,2.070806 -1.679575,3.750028 -3.750169,3.750028 -2.0707,0 -3.749992,-1.679222 -3.749992,-3.750028 0,-2.070452 1.679292,-3.750027 3.749992,-3.750027 z"
   style="fill:#a90000;stroke:none"
   inkscape:connector-curvature="0" /><path
   style="fill:#000000"
   inkscape:connector-curvature="0"
   id="path10"
   d="M -9.6161e-7,66.569864 C 0.09945415,67.417241 0.22645416,68.257121 0.38432927,69.087363 3.8660485,87.394174 21.325501,101.31778 42.333334,101.31778 c 21.007381,0 38.466551,-13.922986 41.948778,-32.229233 0.157988,-0.830637 0.285044,-1.670855 0.384556,-2.518683 l 0,-66.56986382203 -84.66666896161,0 0,66.56986382203 z"
   class="fil0" /><path
   style="fill:#d40028"
   inkscape:connector-curvature="0"
   id="path12"
   d="m 81.610484,76.262222 c 1.30206,-3.071163 2.184287,-6.333062 2.584478,-9.726909 l 0,-66.06935139 -41.861572,0 0,100.38207839 1.13e-4,0 c 17.890914,0 33.178666,-10.202112 39.276981,-24.585818 z"
   class="fil1" /><path
   style="fill:#006bff"
   inkscape:connector-curvature="0"
   id="path14"
   d="m 42.333221,0.46573615 -41.86134639,0 0,66.06935085 C 0.87212217,69.929329 1.7545182,73.19151 3.0568609,76.263011 9.155514,90.646041 24.442815,100.84765 42.333221,100.8477 l 0,-100.38207658 z"
   class="fil2" /><polygon
   style="fill:#ffffff"
   id="polygon16"
   points="80.3555,172.039 98.8965,232.915 117.437,172.039 117.437,54.8193 80.3555,54.8193 "
   class="fil3"
   transform="matrix(0.56444446,0,0,0.56364029,-13.488248,-30.43263)" />
</svg>