<?xml version="1.0" encoding="UTF-8" standalone="no"?>
<!-- Creator: CorelDRAW -->

<svg
   xmlns:dc="http://purl.org/dc/elements/1.1/"
   xmlns:cc="http://creativecommons.org/ns#"
   xmlns:rdf="http://www.w3.org/1999/02/22-rdf-syntax-ns#"
   xmlns:svg="http://www.w3.org/2000/svg"
   xmlns="http://www.w3.org/2000/svg"
   xmlns:sodipodi="http://sodipodi.sourceforge.net/DTD/sodipodi-0.dtd"
   xmlns:inkscape="http://www.inkscape.org/namespaces/inkscape"
   xml:space="preserve"
   width="300"
   height="360"
   style="fill-rule:evenodd"
   viewBox="0 0 84.666667 101.6"
   id="svg2"
   version="1.1"
   inkscape:version="0.48.1 "
   sodipodi:docname="каменец.svg"><metadata
   id="metadata28"><rdf:RDF><cc:Work
       rdf:about=""><dc:format>image/svg+xml</dc:format><dc:type
         rdf:resource="http://purl.org/dc/dcmitype/StillImage" /></cc:Work></rdf:RDF></metadata><sodipodi:namedview
   pagecolor="#ffffff"
   bordercolor="#666666"
   borderopacity="1"
   objecttolerance="10"
   gridtolerance="10"
   guidetolerance="10"
   inkscape:pageopacity="0"
   inkscape:pageshadow="2"
   inkscape:window-width="1280"
   inkscape:window-height="750"
   id="namedview26"
   showgrid="false"
   fit-margin-top="0"
   fit-margin-left="0"
   fit-margin-right="0"
   fit-margin-bottom="0"
   inkscape:zoom="1.475"
   inkscape:cx="150"
   inkscape:cy="180.00001"
   inkscape:window-x="-8"
   inkscape:window-y="-8"
   inkscape:window-maximized="1"
   inkscape:current-layer="svg2" />
 <defs
   id="defs4"><style
     type="text/css"
     id="style6">
   
    .fil0 {fill:black}
    .fil1 {fill:#3C82C2}
    .fil2 {fill:#41A147}
    .fil5 {fill:white}
    .fil4 {fill:#DF212C;fill-rule:nonzero}
    .fil3 {fill:white;fill-rule:nonzero}
   
  </style></defs>
 <g
   id="Слой_x0020_1"
   transform="matrix(1.4383903,0,0,1.4411348,-108.69772,-163.20852)">
  <metadata
   id="CorelCorpID_0Corel-Layer" />
  <path
   class="fil0"
   d="m 105,113.25 c 10.258,0 19.5492,1.7722 26.2794,4.6364 1.107,0.4712 2.1456,0.9728 3.1088,1.5011 l 0,14.417 c -2.1909,1.6839 -3.6034,4.3304 -3.6034,7.3065 0,2.976 1.4125,5.6222 3.6034,7.3061 0,5.9719 0.5896,12.2696 -2.6029,17.6641 -3.2229,5.4458 -9.3937,8.1113 -14.9523,10.5121 -4.2382,1.8306 -8.7364,3.568 -11.833,7.1567 -3.0965,-3.5887 -7.5948,-5.3261 -11.833,-7.1567 -5.5585,-2.4008 -11.7294,-5.0663 -14.9522,-10.5121 -3.1925,-5.3945 -2.6029,-11.6922 -2.6029,-17.6641 2.1909,-1.6839 3.6033,-4.3301 3.6033,-7.3061 0,-2.9761 -1.4124,-5.6226 -3.6033,-7.3065 l 0,-14.417 c 0.9631,-0.5283 2.0017,-1.0299 3.1088,-1.5011 C 85.4509,115.0222 94.7421,113.25 105,113.25 z"
   id="path10"
   inkscape:connector-curvature="0"
   style="fill:#000000" />
  <path
   class="fil1"
   d="m 105,113.706 c -9.5043,2e-4 -20.3648,1.345 -28.9303,5.9531 l 0,13.9256 c 2.2702,1.8314 3.6014,4.6 3.6015,7.5265 0,2.9198 -1.347,5.7081 -3.6019,7.5267 -0.0188,5.7999 -0.5548,11.9841 2.5389,17.2114 3.1773,5.369 9.2738,7.9639 14.7397,10.3246 4.1453,1.7903 8.5101,3.4872 11.6521,6.8919 3.142,-3.4047 7.5068,-5.1016 11.6521,-6.8919 5.4659,-2.3607 11.5624,-4.9556 14.7398,-10.3246 3.0936,-5.2273 2.5576,-11.4115 2.5388,-17.2114 -2.2549,-1.8186 -3.6019,-4.6069 -3.6019,-7.5267 1e-4,-2.9265 1.3314,-5.6951 3.6016,-7.5265 l 0,-13.9256 C 125.3648,115.051 114.5044,113.7062 105,113.706 z"
   id="path12"
   inkscape:connector-curvature="0"
   style="fill:#3c82c2" />
  <path
   class="fil2"
   d="m 125.88,171.49 c -5.3511,-1.6284 -4.6221,-10.7633 -11.2402,-10.7633 l -19.3774,0 c -6.5902,0 -5.8948,9.0587 -11.1724,10.743 2.8574,1.9518 6.159,3.3657 9.2579,4.7041 4.1453,1.7903 8.5101,3.4872 11.6521,6.8919 3.142,-3.4047 7.5068,-5.1016 11.6521,-6.8919 3.0882,-1.3338 6.3774,-2.7424 9.2279,-4.6838 z"
   id="path14"
   inkscape:connector-curvature="0"
   style="fill:#41a147" />
  <path
   class="fil3"
   d="m 83.3122,170.916 c 2.528,-0.5167 3.6957,-2.7695 4.8605,-5.0191 1.5212,-2.938 3.0397,-5.8705 7.0893,-5.8705 l 19.3774,0 c 4.0496,0 5.5681,2.9325 7.0893,5.8705 1.1766,2.2725 2.3557,4.5483 4.9375,5.0343 -0.5053,0.374 -1.0271,0.7288 -1.5618,1.0671 -2.2745,-0.939 -3.4468,-3.2014 -4.6171,-5.4616 -1.3242,-2.5574 -2.6462,-5.1103 -5.8479,-5.1103 l -19.3774,0 c -3.2017,0 -4.5237,2.5529 -5.8479,5.1103 -1.1601,2.2405 -2.3229,4.4833 -4.5587,5.4369 -0.5283,-0.3354 -1.0438,-0.6871 -1.5432,-1.0576 z"
   id="path16"
   inkscape:connector-curvature="0"
   style="fill:#ffffff;fill-rule:nonzero" />
  <polygon
   class="fil3"
   points="102.195,122.193 102.195,124.757 103.294,124.757 103.294,122.195 106.608,122.195 106.608,124.757 107.706,124.757 107.706,122.193 111.02,122.193 111.02,124.757 112.119,124.757 112.119,122.193 115.431,122.193 115.431,161.101 94.4707,161.101 94.4707,122.193 97.7828,122.193 97.7828,124.757 98.8816,124.757 98.8816,122.193 "
   id="polygon18"
   style="fill:#ffffff;fill-rule:nonzero" />
  <path
   class="fil4"
   d="m 114.684,127.577 -19.466,0 0,32.49553 19.466,0 z m -19.466,-0.75 19.466,0 0,-3.8842 -1.8151,0 0,2.5636 -2.5987,0 0,-2.5636 -1.8136,0 0,2.5636 -2.5988,0 0,-2.5651 -1.8135,0 0,2.5651 -2.5988,0 0,-2.5636 -1.8136,0 0,2.5636 -2.5988,0 0,-2.5636 -1.8151,0 z"
   id="path20"
   inkscape:connector-curvature="0"
   style="fill:#df212c;fill-rule:nonzero"
   sodipodi:nodetypes="cccccccccccccccccccccccccc" />
  <path
   class="fil5"
   d="m 108.116,136.123 -4e-4,8.4346 0,0.75 -6.3292,0 -4e-4,-9.1846 c 0,-1.7477 1.4173,-3.165 3.165,-3.165 1.7477,0 3.165,1.4173 3.165,3.165 z"
   id="path22"
   inkscape:connector-curvature="0"
   style="fill:#ffffff" />
  <path
   class="fil0"
   d="m 107.366,136.123 0,8.435 -4.83,0 0,-8.435 c 0,-1.3335 1.0815,-2.415 2.415,-2.415 1.3335,0 2.415,1.0816 2.415,2.415 z"
   id="path24"
   inkscape:connector-curvature="0"
   style="fill:#000000" />
 </g>
</svg>