<svg xmlns="http://www.w3.org/2000/svg" width="300" height="360" viewBox="0 0 84.666667 101.6" fill-rule="evenodd"><path d="m62.58 48.55c.828 0 1.5.672 1.5 1.5v1.5c0 .828-.672 1.5-1.5 1.5h-1.5v-4.5h1.5m0 6c1.657 0 3-1.343 3-3v-1.5c0-1.657-1.343-3-3-3h-3v7.5h3m-6-7.5h1.5v7.5h-1.5v-7.5m-3 0h1.5v7.5h-1.5l-3-4.709v4.709h-1.5v-7.5h1.5l3 4.709v-4.709m-22.5 0h4.5v1.5h-3v1.5h3v1.5h-3v1.5h3v1.5h-4.5v-7.5m-6 0h1.5v6h3v1.5h-4.5v-7.5m15.75 6h1.5c1.242 0 2.25-1.01 2.25-2.25 0-1.242-1.026-2.246-2.25-2.25h-1.5v1.5h1.5c.414 0 .75.336.75.75 0 .414-.336.75-.75.75h-1.5v1.5m1.5-7.5c2.899 0 5.25 2.351 5.25 5.25 0 2.899-2.351 5.25-5.25 5.25-2.899 0-5.25-2.351-5.25-5.25 0-2.899 2.351-5.25 5.25-5.25m0 1.5c2.071 0 3.75 1.679 3.75 3.75 0 2.071-1.679 3.75-3.75 3.75-2.071 0-3.75-1.679-3.75-3.75 0-2.071 1.679-3.75 3.75-3.75" fill="#a90000"/><g transform="matrix(1.43712 0 0 1.43907-108.56-162.9)"><path d="m75.54 159.59c.069.59.158 1.176.267 1.754 2.423 12.757 14.572 22.459 29.19 22.459 14.618 0 26.766-9.702 29.19-22.458.11-.579.198-1.164.268-1.755v-46.39h-58.914v46.39"/><path d="m132.33 166.34c.906-2.14 1.52-4.413 1.798-6.778v-46.04h-58.26v46.04c.279 2.365.892 4.638 1.799 6.779 4.244 10.02 14.881 17.13 27.33 17.13 12.449 0 23.09-7.109 27.33-17.13" fill="#3c82c2"/><g fill-rule="nonzero"><path d="m102.61 116.44h5.41l-1.28 4.34 4.35-1.28v5.41l-4.35-1.28 1.28 4.35h-5.41l1.28-4.35-4.34 1.28v-5.41l4.34 1.28z"/><path fill="#f8e73d" d="m106.3 121.22l1.32-4.49h-4.6l1.32 4.49-4.49-1.32v4.61l4.49-1.32-1.32 4.49h4.6l-1.32-4.49 4.49 1.32v-4.61z"/><path d="m98.17 142.04c-1.626 1-2.669 2.391-3.305 4.046-1.278 3.321-.936 7.717-.496 11.179.403 3.168 1.106 6.257 2.177 9.262 1.186 3.328 2.741 6.519 4.681 9.474h-11.309l-4.505-6.332h6.21c-1.164-1.509-2.2-3.281-3.228-5.207-1.221-2.286-2.489-4.629-3.352-7.08-1.869-5.308-2.438-11.783-.94-17.274 2.434-8.928 12.264-12.678 20.851-12.678 6.404 0 12.81 2.045 17.06 6.133.161.155.319.313.474.474 4.774 4.962 4.787 13.949 3.258 20.348-.091.382-.189.759-.293 1.129-.876 3.129-2.355 5.965-3.87 8.813-1.052 1.978-2.109 3.797-3.3 5.341h6.21l-4.505 6.332h-11.312l.157-.235c1.85-2.819 3.325-5.907 4.468-9.07.473-1.31.876-2.614 1.194-3.874l.003-.012c.167-.662.315-1.312.445-1.945.61-2.977.971-6.04.971-9.08 0-2.092-.231-4.03-.872-5.696-.636-1.654-1.679-3.042-3.303-4.044h-.0001l-.002-.0001c-.546-.337-1.129-.627-1.738-.87-3.729-1.489-8.381-1.255-11.826.871"/><path d="m112.31 169.96c-.881 1.985-1.903 3.911-3.076 5.732h10.602l4.079-5.732h-11.604m-14.705 0h-11.609l4.079 5.732h10.602c-1.132-1.755-2.173-3.714-3.071-5.732m-4.492-.3c-1.646-2.264-3.096-4.893-4.249-7.688-.253-.613-.488-1.223-.704-1.829-1.353-3.786-2.147-7.793-2.147-11.552h-.0001v-.0001c0-2.179.166-4.409.697-6.508.535-2.114 1.439-4.091 2.912-5.742 1.515-1.697 3.528-3.121 5.884-4.163.45-.199.921-.387 1.409-.562v-.0001c.661-.237 1.511-.561 2.247-.609 1.189-.077 2.042.681 2.951 1.306h5.688c1.204-.827 2.131-1.614 3.717-1.169 2.595.728 4.908 1.88 6.785 3.345 2.499 1.951 4.1 4.427 4.901 7.595.531 2.098.697 4.329.697 6.508h-.0001c0 5.407-1.646 11.333-4.236 16.383-.505.985-1.045 1.935-1.613 2.838-.402.639-.82 1.257-1.251 1.85h1.105c1.303-1.688 2.369-3.511 3.373-5.394 1.523-2.856 3.01-5.704 3.892-8.841.104-.371.201-.744.29-1.118 1.503-6.293 1.512-15.191-3.183-20.07-.152-.158-.308-.313-.466-.466-4.191-4.03-10.521-6.05-16.853-6.05-8.444 0-18.17 3.662-20.563 12.456-1.481 5.43-.914 11.848.934 17.1.853 2.421 2.104 4.733 3.309 6.992 1.01 1.892 2.081 3.688 3.374 5.394h1.104m23.334-33.87l1.117-1.113c-1.746-1.284-3.857-2.3-6.21-2.96-1.379-.387-2.332.487-3.375 1.192h-6.05c-.823-.557-1.665-1.359-2.746-1.301-.677.036-1.471.354-2.071.569v-.0001c-.461.165-.918.348-1.369.548-1.24.549-2.381 1.206-3.398 1.954l1.116 1.112-3.088 3.102-1.124-1.12c-.934 1.34-1.557 2.855-1.962 4.454-.513 2.029-.676 4.198-.678 6.323l1.576-.091.254 4.37-1.499.087c.349 2.349.96 4.727 1.782 7.03.077.215.155.428.235.64l1.247-.596 1.89 3.948-1.371.657c.93 1.827 1.985 3.541 3.132 5.071h3.616c-.44-1.01-.844-2.026-1.206-3.042-1.078-3.02-1.786-6.134-2.191-9.324-.448-3.521-.785-7.948.513-11.323.659-1.714 1.741-3.153 3.427-4.193 3.524-2.174 8.277-2.418 12.09-.894.624.249 1.222.547 1.783.893h.0001l.002.0001c1.686 1.041 2.768 2.479 3.427 4.193.656 1.704.893 3.678.893 5.802 0 3.059-.363 6.142-.978 9.138-.132.645-.281 1.3-.447 1.958l-.003.012c-.321 1.268-.726 2.582-1.202 3.901-.349.968-.73 1.929-1.142 2.876h3.612c.515-.688 1.013-1.413 1.488-2.168.562-.894 1.093-1.828 1.588-2.791l.056-.111-1.371-.657 1.89-3.948 1.248.597c.939-2.494 1.635-5.097 2.02-7.666l-1.499-.087.254-4.37 1.576.091c-.002-2.125-.165-4.293-.678-6.323-.404-1.599-1.027-3.113-1.962-4.454l-1.124 1.12-3.088-3.102" fill="#fff"/></g></g></svg>