<svg xmlns="http://www.w3.org/2000/svg" width="300" height="355" viewBox="0 0 84.666667 100.18889" fill-rule="evenodd"><path d="m62.58 47.845c.828 0 1.5.672 1.5 1.5v1.5c0 .828-.672 1.5-1.5 1.5h-1.5v-4.5h1.5m0 6c1.657 0 3-1.343 3-3v-1.5c0-1.657-1.343-3-3-3h-3v7.5h3m-6-7.5h1.5v7.5h-1.5v-7.5m-3 0h1.5v7.5h-1.5l-3-4.709v4.709h-1.5v-7.5h1.5l3 4.709v-4.709m-22.5 0h4.5v1.5h-3v1.5h3v1.5h-3v1.5h3v1.5h-4.5v-7.5m-6 0h1.5v6h3v1.5h-4.5v-7.5m15.75 6h1.5c1.242 0 2.25-1.01 2.25-2.25 0-1.242-1.027-2.245-2.25-2.25h-1.5v1.5h1.5c.414 0 .75.336.75.75 0 .414-.336.75-.75.75h-1.5v1.5m1.5-7.5c2.899 0 5.25 2.351 5.25 5.25 0 2.899-2.351 5.25-5.25 5.25-2.899 0-5.25-2.351-5.25-5.25 0-2.899 2.351-5.25 5.25-5.25m0 1.5c2.071 0 3.75 1.68 3.75 3.75 0 2.071-1.68 3.75-3.75 3.75-2.071 0-3.75-1.679-3.75-3.75 0-2.07 1.679-3.75 3.75-3.75" fill="#a90000"/><path d="m84.67 57.911c0 23.346-18.957 42.28-42.33 42.28-23.376 0-42.33-18.933-42.33-42.28v-57.911h84.67v57.911"/><path d="m84.1 57.911v-57.34h-83.53v57.34c0 23.03 18.703 41.71 41.764 41.71 23.06 0 41.764-18.678 41.764-41.71" fill="#f00"/><path d="m84.1 57.911v-57.34h-41.764v99.05c23.06 0 41.764-18.678 41.764-41.71" fill="#006bff"/><path d="m55.887 34.19h-2.812-.003c-4.514-.002-8.227-3.711-8.228-8.219-.0001-3.989 2.948-7.437 6.829-8.101.762-4.351 4.635-7.507 8.955-7.51h.006c4.404 0 8.213 3.239 8.96 7.511 3.954.677 6.826 4.181 6.829 8.094v.006.0001c-.002 4.508-3.716 8.217-8.23 8.217h-2.814c-.292.795-.778 1.496-1.402 2.047.73.343 1.337.801 1.91 1.36l-.2.18c-.839.813-1.92 1.355-3.048 1.641v23.713h4.01v1.935h-2.474v1.522h2.474v1.531h2.028v-1.531h2.474v-1.522h-2.474v-1.935h6.533v8.05h-1.495v-2.521h-1.524v2.521h-1.613v1.512h1.613v2.521h1.524v-2.521h1.495v7.539h-6.533v-1.514h2.474v-1.522h-2.474v-1.531h-2.028v1.531h-2.474v1.522h2.474v1.514h-4.01v.169.251h-.251-3.512-.251v-.251-40.979c-1.248-.315-2.325-.937-3.249-1.836l.2-.18c.498-.482 1.083-.87 1.71-1.165-.623-.55-1.11-1.252-1.402-2.047m4.748-6.784c2.323 0 4.28 1.565 4.871 3.697h2.689.0001c2.816 0 5.138-2.319 5.138-5.132v-.002c0-2.823-2.311-5.131-5.138-5.132h-1.554v-1.392-.0001c0-3.287-2.714-5.997-6.01-5.998h-.002c-3.292 0-6.01 2.71-6.01 5.998v1.393h-1.553-.0001c-1.417-.0001-2.702.574-3.632 1.503-.93.93-1.506 2.213-1.506 3.629v.002c0 2.812 2.323 5.131 5.138 5.132h2.689c.592-2.132 2.548-3.697 4.871-3.697m2.01 43.77h2.058v1.512h-2.058v-1.512" fill="#7f7f7f"/><path d="m65.54 33.688h2.658c4.237.0001 7.729-3.486 7.73-7.717v-.003-.006c0-3.841-2.893-7.083-6.765-7.655l-.029-.189c-.637-4.111-4.27-7.26-8.495-7.26h-.006c-4.251 0-7.856 3.177-8.517 7.448-3.805.568-6.766 3.691-6.766 7.662-.0001 4.232 3.49 7.719 7.727 7.72h.003 2.658c-.1-.395-.153-.809-.153-1.235 0-.29.025-.574.072-.85h-2.577c-3.094-.0001-5.639-2.543-5.64-5.632v-.003c.0001-1.557.633-2.965 1.653-3.984 1.021-1.018 2.43-1.648 3.986-1.649h.003 1.051v-.891c.0001-3.565 2.937-6.498 6.506-6.499h.003c3.57.0001 6.507 2.933 6.508 6.498v.003.891h1.051c3.105.0001 5.639 2.531 5.64 5.632v.0001c-.0001 3.09-2.546 5.632-5.639 5.633h-.0001-2.577c.047.276.072.56.072.85 0 .426-.053.84-.153 1.235zm-2.075 2.329c1.052-.833 1.727-2.12 1.727-3.564 0-2.511-2.04-4.548-4.554-4.548-2.515 0-4.554 2.037-4.554 4.548 0 1.444.675 2.731 1.727 3.564.855-.323 1.814-.504 2.827-.504h.003c1.014.0001 1.973.182 2.825.504m-2.825-.003h-.003c-1.612 0-3.297.496-4.521 1.573 1.224 1.076 2.91 1.575 4.519 1.575h.003c1.613 0 3.296-.497 4.52-1.574-1.226-1.076-2.905-1.575-4.518-1.575m1.503 3.513c-.483.09-.987.137-1.505.137h-.003c-.518-.0001-1.021-.048-1.503-.138v40.618h3.01v-40.618m.502 24.11v7.04h2.56v2.515h-2.56v6.536h3.507v-.512h-2.474v-2.525h2.474v-1.531h3.03v1.531h2.474v2.525h-2.474v.512h5.529v-6.536h-.491v2.521h-2.528v-2.521h-1.613v-2.515h1.613v-2.521h2.528v2.521h.491v-7.04h-5.529v.932h2.474v2.525h-2.474v1.531h-3.03v-1.531h-2.474v-2.525h2.474v-.932h-3.507" fill="#fff"/><path d="m29.485 57.34h2.812.002c4.514.002 8.227 3.711 8.228 8.219.0001 3.989-2.948 7.437-6.829 8.101-.762 4.351-4.635 7.507-8.955 7.51h-.006c-4.404 0-8.213-3.239-8.96-7.511-3.954-.677-6.826-4.181-6.829-8.094v-.006-.0001c.002-4.508 3.716-8.217 8.23-8.217h2.814c.292-.795.778-1.496 1.402-2.047-.73-.343-1.337-.801-1.91-1.36l.2-.18c.839-.813 1.92-1.355 3.048-1.641v-23.713h-4.01v-1.935h2.474v-1.522h-2.474v-1.531h-2.028v1.531h-2.474v1.522h2.474v1.935h-6.533v-8.05h1.495v2.521h1.524v-2.521h1.613v-1.512h-1.613v-2.521h-1.524v2.521h-1.495v-7.539h6.533v1.514h-2.474v1.522h2.474v1.531h2.028v-1.531h2.474v-1.522h-2.474v-1.514h4.01v-.169-.251h.251 3.512.251v.251 40.979c1.248.315 2.325.937 3.249 1.836l-.2.18c-.498.482-1.083.87-1.71 1.165.623.55 1.11 1.252 1.402 2.047m-4.747 6.784c-2.323 0-4.28-1.565-4.871-3.697h-2.689-.002c-2.816 0-5.138 2.319-5.138 5.132v.002c0 2.823 2.311 5.131 5.138 5.132h1.554v1.392.0001c0 3.287 2.714 5.997 6.01 5.998h.003c3.292 0 6.01-2.71 6.01-5.998v-1.393h1.553.002c1.417.0001 2.702-.574 3.632-1.503.93-.93 1.506-2.213 1.506-3.629v-.004c0-2.812-2.323-5.131-5.138-5.132h-2.689c-.592 2.132-2.548 3.697-4.871 3.697zm-2.01-43.771h-2.058v-1.512h2.058v1.512" fill="#7f7f7f"/><path d="m19.836 57.844h-2.658c-4.237-.0001-7.729 3.486-7.73 7.717v.003.006c.0001 3.841 2.893 7.083 6.765 7.655l.029.189c.637 4.111 4.27 7.26 8.495 7.26h.006c4.251 0 7.856-3.177 8.517-7.448 3.805-.568 6.766-3.691 6.766-7.662.0001-4.232-3.49-7.719-7.727-7.72h-.002-2.658c.1.395.153.809.153 1.235 0 .29-.025.574-.072.85h2.577c3.094.0001 5.639 2.543 5.64 5.632v.0001c-.0001 1.557-.633 2.965-1.653 3.984-1.021 1.018-2.43 1.648-3.986 1.649h-.002-1.051v.891c-.0001 3.565-2.937 6.498-6.506 6.499h-.002c-3.57-.0001-6.507-2.933-6.508-6.498v-.0001-.891h-1.051c-3.105-.0001-5.639-2.531-5.64-5.632v-.0001c.0001-3.09 2.546-5.632 5.639-5.633h.002 2.577c-.047-.276-.072-.56-.072-.85 0-.426.053-.84.153-1.235zm2.075-2.329c-1.052.833-1.727 2.12-1.727 3.564 0 2.511 2.04 4.548 4.554 4.548 2.515 0 4.554-2.037 4.554-4.548 0-1.444-.675-2.731-1.727-3.564-.855.323-1.814.504-2.827.504h-.002c-1.014-.0001-1.973-.182-2.825-.504m2.825.003h.002c1.612 0 3.297-.496 4.521-1.573-1.224-1.076-2.91-1.575-4.519-1.575h-.002c-1.613 0-3.296.497-4.52 1.574 1.226 1.076 2.905 1.575 4.518 1.575m-1.503-3.513c.483-.09.987-.137 1.505-.137h.002c.518.0001 1.021.048 1.503.138v-40.618h-3.01v40.618m-.502-24.11v-7.04h-2.56v-2.515h2.56v-6.536h-3.507v.512h2.474v2.525h-2.474v1.531h-3.03v-1.531h-2.474v-2.525h2.474v-.512h-5.529v6.536h.491v-2.521h2.528v2.521h1.613v2.515h-1.613v2.521h-2.528v-2.521h-.491v7.04h5.529v-.932h-2.474v-2.525h2.474v-1.531h3.03v1.531h2.474v2.525h-2.474v.932h3.507" fill="#ff0"/></svg>