<svg xmlns="http://www.w3.org/2000/svg" viewBox="0 0 300 360" xmlns:xlink="http://www.w3.org/1999/xlink"><defs><linearGradient id="Q" gradientUnits="userSpaceOnUse" x2=".71" gradientTransform="matrix(37.50493 15.1616 10.61864-26.2672 230.39 384.08)" x1=".29" xlink:href="#0"/><linearGradient id="P" gradientUnits="userSpaceOnUse" x2=".72" gradientTransform="matrix(31.7717 17.0206 13.5389-25.2726 234.39 376.26)" x1=".28" xlink:href="#0"/><linearGradient id="b" gradientUnits="userSpaceOnUse" x2=".58" gradientTransform="matrix(3.97187-73.4798-26.3627-1.42501 346.62 530.66)" x1=".42"><stop stop-color="#999"/><stop offset="1"/></linearGradient><linearGradient id="O" gradientUnits="userSpaceOnUse" x2=".71" gradientTransform="matrix(29.47379 18.97628 16.86556-26.1955 238.32 370.41)" y1="-.013" x1=".279" xlink:href="#0"/><linearGradient id="N" gradientUnits="userSpaceOnUse" x2=".72" gradientTransform="matrix(23.72231 19.95686 19.085-22.686 244.78 362.66)" x1=".28" xlink:href="#0"/><linearGradient id="K" gradientUnits="userSpaceOnUse" x2=".72" gradientTransform="matrix(4.75096 21.1814 23.82842-5.34467 269.39 345.42)" x1=".28" xlink:href="#0"/><linearGradient id="M" gradientUnits="userSpaceOnUse" x2=".69" gradientTransform="matrix(15.49413 23.67158 25.71484-16.83152 251.65 354.15)" x1=".31" xlink:href="#0"/><linearGradient id="L" gradientUnits="userSpaceOnUse" x2=".69" gradientTransform="matrix(12.45784 23.136 24.3792-13.1273 259.02 350.54)" x1=".31" xlink:href="#0"/><linearGradient id="R" gradientUnits="userSpaceOnUse" x2=".73" gradientTransform="matrix(42.0077 9.69409 5.47126-23.70877 227.88 393.55)" x1=".27" xlink:href="#0"/><linearGradient id="S" gradientUnits="userSpaceOnUse" x2=".74" gradientTransform="matrix(44.2011 1.02794.66036-28.39582 227.57 409.61)" x1=".26" xlink:href="#0"/><linearGradient id="Y" gradientUnits="userSpaceOnUse" x2=".68" gradientTransform="matrix(43.0154-69.91521-60.74844-37.3756 296.57 507.89)" x1=".32" xlink:href="#0"/><linearGradient id="a" gradientUnits="userSpaceOnUse" x2=".71" gradientTransform="matrix(11.18709-78.3096-43.0212-6.14589 336.29 507.62)" x1=".29" xlink:href="#0"/><linearGradient id="Z" gradientUnits="userSpaceOnUse" x2=".69" gradientTransform="matrix(27.30784-76.9415-54.2428-19.25167 316.45 508.87)" x1=".31" xlink:href="#0"/><linearGradient id="X" gradientUnits="userSpaceOnUse" x2=".69" gradientTransform="matrix(45.99612-66.013-60.92887-42.4537 281.83 500.97)" x1=".31" xlink:href="#0"/><linearGradient id="W" gradientUnits="userSpaceOnUse" x2=".69" gradientTransform="matrix(55.79037-53.4047-53.70899-56.1083 263.2 492.06)" x1=".31" xlink:href="#0"/><linearGradient id="T" gradientUnits="userSpaceOnUse" x2=".76" gradientTransform="matrix(47.64685-6.71532-5.79125-41.0903 228.43 429.54)" x1=".24" xlink:href="#0"/><linearGradient id="V" gradientUnits="userSpaceOnUse" x2=".7" gradientTransform="matrix(57.86203-34.2282-35.48781-59.99131 245.21 474.83)" x1=".3" xlink:href="#0"/><linearGradient id="U" gradientUnits="userSpaceOnUse" x2=".72" gradientTransform="matrix(55.5772-17.0437-16.94468-55.2544 233.03 452.87)" x1=".28" xlink:href="#0"/><linearGradient id="J" gradientUnits="userSpaceOnUse" x2=".73" gradientTransform="matrix(2.86267 19.60665 22.25974-3.25004 277.98 344.37)" x1=".27" xlink:href="#0"/><linearGradient id="I" gradientUnits="userSpaceOnUse" x2=".76" gradientTransform="matrix(1.35849 16.81134 18.71992-1.51273 286.58 344.68)" x1=".24" xlink:href="#0"/><linearGradient id="5" gradientUnits="userSpaceOnUse" x2=".76" gradientTransform="matrix(-6.58794 2.9164 2.77641 6.27171 339.87 372.81)" x1=".24" xlink:href="#0"/><linearGradient id="7" gradientUnits="userSpaceOnUse" x2=".74" gradientTransform="matrix(-6.9114 6.17729 6.2807 7.0271 336.64 365.64)" x1=".26" xlink:href="#0"/><linearGradient id="6" gradientUnits="userSpaceOnUse" x2=".76" gradientTransform="matrix(-6.93733 4.30761 4.33135 6.97555 338.53 369.24)" x1=".24" xlink:href="#0"/><linearGradient id="4" gradientUnits="userSpaceOnUse" x2=".76" gradientTransform="matrix(-6.72733 1.55246 1.38211 5.98916 340.74 376.08)" x1=".24" xlink:href="#0"/><linearGradient id="3" gradientUnits="userSpaceOnUse" x2=".72" gradientTransform="matrix(-6.69516 1.2173 1.07228 5.89752 340.71 378.78)" x1=".28" xlink:href="#0"/><linearGradient id="0" gradientUnits="userSpaceOnUse" x2=".72" gradientTransform="matrix(-4.5859-1.79448-1.45439 3.71676 339.26 387.36)" x1=".28"><stop/><stop stop-color="#4c4c4c" offset=".48"/><stop stop-color="#191919" offset="1"/></linearGradient><linearGradient id="2" gradientUnits="userSpaceOnUse" x2=".77" gradientTransform="matrix(-5.481.33219.26545 4.38 340.42 382.25)" x1=".23" xlink:href="#0"/><linearGradient id="1" gradientUnits="userSpaceOnUse" x2=".7" gradientTransform="matrix(-5.48698-1.75584-1.33671 4.17724 340.52 385.58)" x1=".3" xlink:href="#0"/><linearGradient id="8" gradientUnits="userSpaceOnUse" x2=".72" gradientTransform="matrix(-7.17061 7.6244 7.52606 7.07813 334.79 362.14)" x1=".28" xlink:href="#0"/><linearGradient id="9" gradientUnits="userSpaceOnUse" x2=".72" gradientTransform="matrix(-7.0151 8.93636 8.39927 6.5935 332.31 359.26)" x1=".28" xlink:href="#0"/><linearGradient id="F" gradientUnits="userSpaceOnUse" x2=".75" gradientTransform="matrix(-1.71766 14.90906 11.9892 1.38128 307.83 347)" x1=".25" xlink:href="#0"/><linearGradient id="H" gradientUnits="userSpaceOnUse" x2=".77" gradientTransform="matrix(.82968 15.75545 16.98646-.8945 293.87 345.34)" x1=".23" xlink:href="#0"/><linearGradient id="G" gradientUnits="userSpaceOnUse" x2=".75" gradientTransform="matrix(-.99238 15.49645 13.62658.87262 301.94 345.73)" x1=".25" xlink:href="#0"/><linearGradient id="E" gradientUnits="userSpaceOnUse" x2=".71" gradientTransform="matrix(-3.42756 15.46254 11.92364 2.6431 313.86 347.7)" x1=".29" xlink:href="#0"/><linearGradient id="D" gradientUnits="userSpaceOnUse" x2=".7" gradientTransform="matrix(-5.65134 14.65069 12.084 4.66126 318.69 348.71)" x1=".3" xlink:href="#0"/><linearGradient id="A" gradientUnits="userSpaceOnUse" x2=".72" gradientTransform="matrix(-7.67125 10.52301 9.69525 7.0678 329.53 355.77)" x1=".28" xlink:href="#0"/><linearGradient id="C" gradientUnits="userSpaceOnUse" x2=".71" gradientTransform="matrix(-6.81128 13.21813 11.29994 5.82284 322.82 350.5)" x1=".29" xlink:href="#0"/><linearGradient id="B" gradientUnits="userSpaceOnUse" x2=".71" gradientTransform="matrix(-7.23559 12.39766 10.91529 6.37044 326.07 352.9)" x1=".29" xlink:href="#0"/></defs><g transform="translate(-209.85-170.31)"><path d="m431.61 342.34c2.935 0 5.315 2.38 5.315 5.315v5.314c0 2.935-2.38 5.315-5.315 5.315h-5.315v-15.944h5.315m0 21.259c5.87 0 10.63-4.76 10.63-10.63v-5.314c0-5.87-4.76-10.63-10.63-10.63h-10.63v26.574h10.63m-21.26-26.574h5.315v26.574h-5.315v-26.574m-10.63 0h5.315v26.574h-5.315l-10.63-16.684v16.684h-5.315v-26.574h5.315l10.63 16.684v-16.684m-79.72 0h15.945v5.315h-10.63v5.315h10.63v5.315h-10.63v5.315h10.63v5.315h-15.945v-26.574m-21.26-.0001h5.315v21.26h10.63v5.315h-15.945v-26.575m55.808 21.26h5.314c4.402 0 7.972-3.57 7.972-7.972s-3.637-7.957-7.972-7.972h-5.314v5.315h5.314c1.467 0 2.658 1.19 2.658 2.658s-1.19 2.658-2.658 2.658h-5.314v5.315m5.314-26.575c10.272 0 18.602 8.33 18.602 18.602s-8.33 18.602-18.602 18.602-18.602-8.33-18.602-18.602 8.33-18.602 18.602-18.602m0 5.315c7.337 0 13.287 5.95 13.287 13.287 0 7.337-5.95 13.287-13.287 13.287-7.337 0-13.287-5.95-13.287-13.287 0-7.337 5.95-13.287 13.287-13.287" fill-rule="evenodd" fill="#a90000"/><g transform="matrix(1.83882 0 0 1.83769-176.03-444.24)"><g fill-rule="evenodd"><path d="m291.24 530.31c-5.406-10.09-16.05-16.953-28.29-16.953h-35.604c-9.656 0-17.486-7.83-17.486-17.486v-161.46h163.15v161.46c0 9.656-7.831 17.486-17.486 17.486h-35.604c-12.244 0-22.888 6.864-28.3 16.953h-.379z"/><path fill="#f7e336" d="m291.43 528.83c-3.348-5.728-8.421-10.382-14.41-13.214-4.266-2.02-9.04-3.146-14.07-3.146v-.004h-.002v.004h-35.604v-.004h-.002v.004c-9.09-.0001-16.594-7.5-16.594-16.595h.004v-160.57h161.36v160.57h.004c0 9.1-7.499 16.594-16.594 16.595v-.004h-.002v.004h-35.604v-.004h-.002v.004c-5.04 0-9.806 1.129-14.07 3.146-5.99 2.832-11.06 7.486-14.41 13.214"/><g stroke="#999" stroke-width=".886"><path d="m336.41 387.02c-.48.048-1.039.608-1.348 1.215-.383.757.764.888 1.295 1.195.399.226.85.196 1.31-.154.401-.306.919-1.132.612-1.887l-1.869-.368z" fill="url(#0)"/><path d="m337.08 385.31c-.579.137-1.158.858-1.424 1.591-.329.914 1.099.869 1.806 1.119.528.187 1.076.078 1.572-.394.434-.41.916-1.427.399-2.221l-2.354-.095z" fill="url(#1)"/><path d="m337.15 383.25c-.557.318-.854 1.18-.81 1.953.054.959 1.553.451 2.414.455.646.0001 1.18-.281 1.499-.881.279-.528.341-1.633-.561-2.205l-2.542.679z" fill="url(#2)"/><path d="m336.92 380.99c-.567.445-.703 1.466-.472 2.332.289 1.08 1.885.279 2.879.153.738-.092 1.285-.495 1.512-1.224.197-.637.009-1.9-1.159-2.413l-2.759 1.151z" fill="url(#3)"/><path d="m337.11 378.53c-.726.578-1 2.055-.418 2.976.424-.455 1.692-.562 2.258-.578.998-.026 1.75-.239 2.025-1.138.194-.636.001-1.899-1.144-2.413l-2.72 1.153z" fill="url(#4)"/><path d="m336.56 376.37c-.688.673-.499 2.306.232 3.206.382-.518 1.418-.817 2.01-.889 1.042-.127 1.806-.422 1.979-1.384.123-.683-.233-1.979-1.51-2.401l-2.708 1.468z" fill="url(#5)"/><path d="m335.59 373.71c-.623.781-.179 2.462.724 3.321.329-.587 1.37-1.013 1.979-1.156 1.082-.25 1.841-.646 1.877-1.667.027-.727-.543-2.038-1.948-2.335l-2.632 1.836z" fill="url(#6)"/><path d="m334.43 370.95c-.507.999.21 2.903 1.259 3.782.238-.728 1.222-1.373 1.814-1.623 1.051-.442 1.755-1.01 1.629-2.207-.086-.853-.872-2.307-2.34-2.461l-2.362 2.509z" fill="url(#7)"/><path d="m332.56 368.45c-.429 1.179.624 3.204 1.911 4.04.168-.842 1.178-1.694 1.804-2.053 1.111-.633 1.819-1.359 1.519-2.679-.215-.939-1.361-2.756-3.02-2.728l-2.219 3.416z" fill="url(#8)"/><path d="m330.36 366.09c-.278 1.3 1.121 3.27 2.593 3.962.052-.906.988-1.945 1.592-2.413 1.074-.827 1.71-1.69 1.203-3.03-.361-.954-1.854-2.765-3.586-2.495l-1.803 3.976z" fill="url(#9)"/><path d="m327.32 363.18c-.326 1.525 1.317 3.836 3.043 4.649.06-1.063 1.158-2.285 1.868-2.831 1.26-.971 2-1.983 1.411-3.557-.423-1.117-1.998-2.798-4.03-2.482l-2.293 4.221z" fill="url(#A)"/><path d="m324.17 361.17c-.108 1.675 2 3.878 3.971 4.471-.102-1.141 1.183-2.459 1.853-3.152 1.19-1.23 1.515-2.581.636-4.163-.626-1.124-2.718-2.668-4.832-2.01l-1.629 4.856z" fill="url(#B)"/><path d="m321.2 359.24c-.006 1.722 2.292 3.847 4.342 4.335-.175-1.163.734-2.731 1.379-3.481 1.141-1.335 1.719-2.598.72-4.163-.708-1.114-3.245-2.876-5.369-2.074l-1.072 5.383z" fill="url(#C)"/><path d="m317.56 357.89c.242 1.83 2.992 3.755 5.24 3.974-.356-1.21.23-3.01.806-3.898 1.018-1.581 1.448-3.01.162-4.524-.918-1.079-3.64-2.553-5.78-1.395l-.428 5.843z" fill="url(#D)"/><path d="m313.72 356.59c.449 1.867 3.505 3.56 5.858 3.543-.498-1.215-.237-3.154.263-4.141.882-1.749 1.171-3.272-.327-4.703-1.067-1.018-4.01-2.425-6.098-.991l.305 6.291z" fill="url(#E)"/><path d="m308.91 356.08c.783 1.872 4.255 3.121 6.705 2.706-.726-1.18-.457-3.302-.106-4.412.627-1.973.671-3.925-1.132-5.164-1.282-.882-4.744-1.78-6.68.067l1.214 6.803z" fill="url(#F)"/><path d="m304.46 355.8c.899 1.197 4.495 2.335 5.93 1.809-.614-1.411-.119-3.308.234-4.423.628-1.977.333-4.07-1.475-5.311-1.286-.882-5.318-2.266-7.258-.415l2.569 8.34z" fill="url(#G)"/><path d="m298.89 355.74c1.186 1.189 5.288 1.86 6.713 1-.923-1.482-.76-3.714-.596-5.04.292-2.347-.425-4.655-2.589-5.731-1.539-.764-6.05-1.397-7.757 1.043l4.23 8.72z" fill="url(#H)"/><path d="m292.93 355.29c1.282 1.152 5.518 1.622 7.721.894-1.038-1.243-1.564-3.889-1.469-5.25.166-2.414-.939-4.844-3.214-5.825-1.618-.696-6.534-1.12-8.149 1.473l5.111 8.709z" fill="url(#I)"/><path d="m286.25 355.84c2.437 1.761 5.998 1.38 7.736.144-1.186-1.723-1.301-3.98-1.397-5.468-.171-2.641-1.659-4.918-4.149-6.1-1.808-.858-6.732-.505-8.02 2.532l5.833 8.893z" fill="url(#J)"/><path d="m280.42 357.62c1.552 1.104 5.597.767 6.947-.557-1.259-1.8-1.408-4.182-1.529-5.753-.215-2.786-1.799-5.166-4.41-6.377-1.899-.882-6.992-.194-8.297 3.03l7.289 9.653z" fill="url(#K)"/><path d="m275.46 360.09c1.737.62 5.47-.613 6.783-2.01-1.531-1.788-2.072-3.181-2.339-4.842-.476-2.941-2.184-5.587-5.136-6.611-2.146-.745-7.02.979-8.161 4.543l8.852 8.918z" fill="url(#L)"/><path d="m271.24 362.76c1.899.225 4.895-1.059 5.824-2.671-1.803-1.641-2.53-3.218-2.967-4.852-.776-2.903-2.845-5.39-6.104-6.13-2.368-.538-7.607 1.717-8.509 5.399l11.757 8.254z" fill="url(#M)"/><path d="m267.62 367.82c2.206-.827 4.848-2.535 5.424-4.627-2.517-1.326-3.801-2.892-4.774-4.61-1.725-3.051-4.825-5.375-8.721-5.257-2.831.088-7.131 3.482-6.905 6.03l14.975 8.467z" fill="url(#N)"/><path d="m263.16 373.78c2.125-1.245 5.351-4.109 5.534-6.549-2.941-.987-4.664-2.716-6.05-4.441-2.454-3.06-6.447-5.412-10.552-4.522-2.984.648-6.49 5.072-5.729 7.861l16.794 7.65z" fill="url(#O)"/><path d="m260.73 379.46c2.042-1.996 4.04-4.388 3.892-7.02-3.277-.639-5.361-2.24-7.082-3.887-3.05-2.921-7.921-4.865-12.179-3.334-3.096 1.113-5.677 6.127-4.472 8.994l19.841 5.244z" fill="url(#P)"/><path d="m258.94 386.25c1.986-2.453 3.727-5.158 3.256-8.07-3.63-.337-6.081-1.884-8.14-3.52-3.653-2.901-8.966-4.688-13.409-2.499-3.226 1.591-6.05 7.932-4.41 10.985l22.703 3.099z" fill="url(#Q)"/><path d="m258.15 394.33c1.897-3.053 3.487-6.357 2.548-9.581-4.156.131-7.144-1.272-9.704-2.833-4.539-2.769-10.501-3.733-15.217-.631-3.429 2.254-5.874 9.567-3.585 12.789l25.959.256z" fill="url(#R)"/><path d="m257.8 404.25c2.02-3.336 3.591-7.883 1.382-11.446-4.427.875-8.347-.303-11.382-1.661-5.383-2.408-11.953-2.486-16.422 1.923-3.249 3.202-4.468 13.228-1.409 16.555l27.832-5.371z" fill="url(#S)"/><path d="m260.51 411.97c.605-4.611 1.715-9.376-.971-12.865-4.626 2.097-9.461 1.783-13.14 1.077-6.52-1.253-13.737.355-17.5 6.335-2.732 4.348-1.028 14.15 3.18 17l28.427-11.551z" fill="url(#T)"/><path d="m265.21 422.67c.028-5.09-.483-10.286-3.879-13.708-4.74 2.914-9.217 3.131-13.308 2.866-7.256-.466-15.166 2.142-18.15 9.282-2.506 6.01.808 16.15 5.772 18.681l29.56-17.12z" fill="url(#U)"/><path d="m271.87 432.04c-1.046-5.498-2.692-10.996-7.081-13.974-4.5 4.146-9.284 4.955-13.752 5.535-7.926 1.03-15.573 5.961-17.618 14.218-1.486 6 3.708 14.971 9.597 16.65l28.854-22.428z" fill="url(#V)"/><path d="m280.45 438.18c-2.098-5.682-4.838-11.256-10.05-13.651-4.061 5.78-8.958 7.341-13.621 8.758-8.279 2.514-15.626 8.746-16.335 17.925-.515 6.67 7.424 16.31 14.01 17.05l26-30.08z" fill="url(#W)"/><path d="m271.2 480.67c-7.06.929-16.954-6.325-18.14-13.411-1.63-9.75 4.421-19.07 12.399-23.826 4.498-2.68 9.608-4.253 11.942-11.713 6.05 1.15 10.348 6.254 14 11.635l-20.2 37.31z" fill="url(#X)"/><path d="m289.87 489.91c-7.126 1.997-18.551-3.179-20.699-10.332-3.392-11.31 1.178-19.739 8.69-25.813 4.233-3.423 9.242-6.285 11.11-14.362 6.4.289 11.576 4.908 16.13 9.906l-15.231 40.601z" fill="url(#Y)"/><path d="m311.24 497.93c-3.226-2.395-17.718-1.168-21.69-7.11-6.606-9.881-4.309-22.443 2.805-28.952 4.03-3.69 7.502-6.562 8.148-17.55 6.611-.971 12.823 2.73 18.476 6.945l-7.74 46.666z" fill="url(#Z)"/><path d="m333.08 502.97c-11.789-4.095-18.991-.089-23.472-5.417-7.889-9.375-6.073-21.671.108-30.86 3.265-4.857 5.921-10.584 5.734-18.526 6.664-1.727 15.281-.429 21.506 2.94l-3.877 51.862z" fill="url(#a)"/></g></g><g stroke="#000" stroke-width=".625" stroke-miterlimit="10"><path d="m337.89 451.45c8.587 7.995 13.462 17.398 12.412 29.29-.675 7.673-5.296 24.15-15.742 22.668-9.889-1.407-11.907-15.671-9.42-23.339 1.629-5.02 5.371-9.01 7.315-13.901 1.707-4.291 2.949-9.207 2.632-13.389-.084-2.48.96-3.049 2.803-1.329z" fill="#999"/><path d="m336.65 466.43c-.961 2.918-2.222 5.691-3.873 8.378-2.719 4.427-4.807 8.18-3.982 13.735.566 3.794 1.381 8.2 5.377 9.764 3.948 1.544 7.02-1.243 8.777-4.654 4.736-9.22 5.03-20.362.55-29.484-.454-.924-1.894-3.822-3.274-5.575-1.389-1.764-2.28-2.584-2.222.117.057 2.626-.529 5.218-1.354 7.719" fill="url(#b)"/></g></g></g></svg>