<svg xmlns="http://www.w3.org/2000/svg" xmlns:xlink="http://www.w3.org/1999/xlink" viewBox="0 0 420 506"><defs><linearGradient id="V" gradientUnits="userSpaceOnUse" gradientTransform="matrix(-8.0063-55.73615 20.34967-2.92316 255.21 483.98)" x1=".22" x2=".78" xlink:href="#2"/><linearGradient id="N" gradientUnits="userSpaceOnUse" gradientTransform="matrix(-79.3584 73.93214-74.7104-80.1938 254.33 559.39)" x1=".32" x2=".68"><stop stop-color="#b2b2b2"/><stop offset=".71" stop-color="#fff"/><stop offset="1" stop-color="#ccc"/></linearGradient><linearGradient id="W" gradientUnits="userSpaceOnUse" gradientTransform="matrix(-46.7967 63.0201-62.6653-46.53324 351.89 485.96)" x1=".42" x2=".58" xlink:href="#2"/><linearGradient id="Y" gradientUnits="userSpaceOnUse" gradientTransform="matrix(.8081 8.081-24.30548 2.43055 279.72 631.89)" x1=".18" x2=".82" xlink:href="#C"/><linearGradient id="X" gradientUnits="userSpaceOnUse" gradientTransform="matrix(-35.39814 10.41122-10.57534-35.95617 298.27 491.39)" x1=".29" x2=".71" xlink:href="#2"/><linearGradient id="U" gradientUnits="userSpaceOnUse" gradientTransform="matrix(5.57735-20.91505 14.84529 3.95875 249.99 428.74)" x1=".13" x2=".87" xlink:href="#C"/><linearGradient id="P" gradientUnits="userSpaceOnUse" gradientTransform="matrix(-37.62593-33.59924 33.2728-37.2604 177.06 625.08)" x1=".28" x2=".72" xlink:href="#C"/><linearGradient id="T" gradientUnits="userSpaceOnUse" gradientTransform="matrix(-48.1016 10.83979-18.81388-83.4866 309.53 489.87)" x1=".37" x2=".63" xlink:href="#2"/><linearGradient id="Q" gradientUnits="userSpaceOnUse" gradientTransform="matrix(-86.0519-.53615.12867-20.65084 273.5 537.69)" x1=".11" x2=".89" xlink:href="#C"/><linearGradient id="S" gradientUnits="userSpaceOnUse" gradientTransform="matrix(-9.93668 27.94692-28.0949-9.98929 266.82 406.45)" x1=".36" x2=".64" xlink:href="#2"/><linearGradient id="R" gradientUnits="userSpaceOnUse" gradientTransform="matrix(-11.51858 31.99018-48.0996-17.31902 324.52 520.08)" x1=".35" x2=".65" xlink:href="#2"/><linearGradient id="Z" gradientUnits="userSpaceOnUse" gradientTransform="matrix(-.95671 11.95886-19.1433-1.53146 284.84 637.11)" x1=".23" x2=".77" xlink:href="#2"/><linearGradient id="i" gradientUnits="userSpaceOnUse" gradientTransform="matrix(-9.31029-30.89227-22.34908 6.73555 239.23 723.95)" x1=".18" x2=".82"><stop stop-color="#fff"/><stop offset=".49" stop-color="#b2b2b2"/><stop offset="1" stop-color="#fff"/></linearGradient><linearGradient id="a" gradientUnits="userSpaceOnUse" gradientTransform="matrix(.67672 38.91125-21.152.36786 288.82 606.26)" x1=".12" x2=".88"><stop stop-color="#fff"/><stop offset=".51" stop-color="#b2b2b2"/><stop offset="1" stop-color="#fff"/></linearGradient><linearGradient id="j" gradientUnits="userSpaceOnUse" x1="234.82" y1="695.67" x2="241.81" y2="712.31" xlink:href="#i"/><linearGradient id="l" gradientUnits="userSpaceOnUse" x1="267.96" y1="745.76" x2="287.78" y2="778.59" xlink:href="#2"/><linearGradient id="k" gradientUnits="userSpaceOnUse" x1="217.79" y1="667.56" x2="235.19" y2="672.2" xlink:href="#2"/><linearGradient id="h" gradientUnits="userSpaceOnUse" gradientTransform="matrix(-7.26666 33.42663-21.85822-4.75179 302.5 625.63)" x1=".21" x2=".79"><stop stop-color="#fff"/><stop offset=".46" stop-color="#b2b2b2"/><stop offset="1" stop-color="#fff"/></linearGradient><linearGradient id="b" gradientUnits="userSpaceOnUse" gradientTransform="matrix(57.97217 34.7833-34.74699 57.91164 263.43 551.39)" x1=".39" x2=".61"><stop stop-color="#b2b2b2"/><stop offset="1" stop-color="#ededed"/></linearGradient><linearGradient id="g" gradientUnits="userSpaceOnUse" gradientTransform="matrix(-11.6432 65.6115-169.5096-30.0806 383.63 622.97)" x1=".44" x2=".56" xlink:href="#2"/><linearGradient id="c" gradientUnits="userSpaceOnUse" gradientTransform="matrix(-7.79679.4873-.50822-8.13147 261.07 433.26)" x1=".17" x2=".83" xlink:href="#C"/><linearGradient id="f" gradientUnits="userSpaceOnUse" gradientTransform="matrix(-.00953 11.0812-9.88441-.0085 313.31 603.3)" x1=".2" x2=".8" xlink:href="#C"/><linearGradient id="e" gradientUnits="userSpaceOnUse" gradientTransform="matrix(-6.25337 9.18725-8.99088-6.11971 291.41 473.78)" x1=".27" x2=".73" xlink:href="#C"/><linearGradient id="O" gradientUnits="userSpaceOnUse" gradientTransform="matrix(-114.4595 95.383-93.8194-112.5833 345.54 576.71)" x1="0" y1="0" x2="1.022" y2="-.002"><stop stop-color="#ccc"/><stop offset=".4" stop-color="#fff"/><stop offset="1" stop-color="#ccc"/></linearGradient><linearGradient id="C" gradientUnits="userSpaceOnUse" gradientTransform="matrix(14.36062-1.30551 1.23558 13.59135 328.73 524.28)" x1=".18" x2=".82"><stop stop-color="#ccc"/><stop offset="1" stop-color="#fff"/></linearGradient><linearGradient id="8" gradientUnits="userSpaceOnUse" gradientTransform="matrix(-8.6475 28.41321-16.49526-5.0203 340.39 486.15)" x1=".32" x2=".68"><stop stop-color="#ff0"/><stop offset="1" stop-color="#ffcf00"/></linearGradient><linearGradient id="B" gradientUnits="userSpaceOnUse" gradientTransform="matrix(33.9016.91626-1.10008 40.70284 311.11 500.59)" x1=".05" x2=".95" xlink:href="#2"/><linearGradient id="9" gradientUnits="userSpaceOnUse" gradientTransform="matrix(-31.97436 110.4569-131.9579-38.1983 377.86 392.99)" x1=".26" x2=".74" xlink:href="#8"/><linearGradient id="7" gradientUnits="userSpaceOnUse" gradientTransform="matrix(51.5565-103.1131 98.0872 49.0436 308.29 420.73)" x1=".07" x2=".93" xlink:href="#2"/><linearGradient x2="1" x1="0" gradientTransform="matrix(417.912 0 0-943.4812.937 504)" gradientUnits="userSpaceOnUse" id="m"><stop stop-color="#e5e5e5"/><stop offset=".49" stop-color="#fff"/><stop offset="1" stop-color="#e5e5e5"/></linearGradient><linearGradient id="6" gradientUnits="userSpaceOnUse" gradientTransform="matrix(-126.1984 176.7203-166.9915-119.2508 528.68 409.68)" x1=".03" x2=".97"><stop stop-color="#ccc"/><stop offset=".66" stop-color="#fff"/><stop offset="1" stop-color="#e5e5e5"/></linearGradient><linearGradient id="2" gradientUnits="userSpaceOnUse" gradientTransform="matrix(-31.3294 22.2338-21.75934-30.66089 328.45 619.67)" x1=".33" x2=".67"><stop stop-color="#b2b2b2"/><stop offset="1" stop-color="#fff"/></linearGradient><linearGradient id="5" gradientUnits="userSpaceOnUse" gradientTransform="matrix(-.3758 31.1916-18.22602-.21959 458.83 332.21)" x1=".22" x2=".78" xlink:href="#2"/><linearGradient id="4" gradientUnits="userSpaceOnUse" gradientTransform="matrix(-.37835 31.50056-18.34422-.22033 419.99 331.72)" x1=".22" x2=".78" xlink:href="#2"/><linearGradient id="A" gradientUnits="userSpaceOnUse" gradientTransform="matrix(32.0723 30.42759-30.55206 32.2035 285.23 481.34)" x1=".23" x2=".77" xlink:href="#8"/><linearGradient id="D" gradientUnits="userSpaceOnUse" gradientTransform="matrix(0-31.42658 4.28882 0 320.34 532.86)" x1=".32" x2=".68" xlink:href="#C"/><linearGradient id="I" gradientUnits="userSpaceOnUse" gradientTransform="matrix(-161.0219 241.5329-256.2938-170.8625 376.08 396.57)" x1=".25" x2=".75"><stop stop-color="#b2b2b2"/><stop offset=".56" stop-color="#fff"/><stop offset="1" stop-color="#ccc"/></linearGradient><linearGradient id="K" gradientUnits="userSpaceOnUse" gradientTransform="matrix(-26.35976 39.6685-37.3366-24.81022 224.59 588.75)" x1=".28" x2=".72" xlink:href="#C"/><linearGradient id="M" gradientUnits="userSpaceOnUse" gradientTransform="matrix(-60.82698 39.3586-41.83976-64.6615 236.72 568.98)" x1=".4" x2=".6" xlink:href="#C"/><linearGradient id="L" gradientUnits="userSpaceOnUse" gradientTransform="matrix(-6.80526 18.84532-14.67069-5.29775 192.02 597.98)" x1=".14" x2=".86" xlink:href="#C"/><linearGradient id="J" gradientUnits="userSpaceOnUse" gradientTransform="matrix(118.0123 102.7377-105.6815 121.3937 222.48 420.61)" x1=".35" x2=".65" xlink:href="#C"/><linearGradient id="E" gradientUnits="userSpaceOnUse" gradientTransform="matrix(89.0864 49.2995-58.399 105.5297 315.02 395.44)" x1=".46" x2=".54" xlink:href="#2"/><linearGradient id="F" gradientUnits="userSpaceOnUse" gradientTransform="matrix(0 26.5595-27.2784 0 219.64 372.59)" x1=".13" x2=".87" xlink:href="#2"/><linearGradient id="G" gradientUnits="userSpaceOnUse" gradientTransform="matrix(-31.39564-6.52978 5.53335-26.60472 144.91 432.06)" x1=".29" x2=".71" xlink:href="#2"/><linearGradient id="H" gradientUnits="userSpaceOnUse" gradientTransform="matrix(-131.9516 0 0-59.5576 254.92 480.7)" x1=".28" x2=".72" xlink:href="#C"/><radialGradient id="1" gradientUnits="userSpaceOnUse" r="28.603" cy="623.01" cx="308.57"><stop stop-color="#fff"/><stop offset="1" stop-color="#b2b2b2"/></radialGradient><radialGradient id="0" gradientUnits="userSpaceOnUse" r="6.456" cy="637.3" cx="262.95"><stop stop-color="#fff"/><stop offset="1" stop-color="#ccc"/></radialGradient><radialGradient xlink:href="#1" id="3" gradientUnits="userSpaceOnUse" cx="308.57" cy="623.01" r="28.603"/><radialGradient xlink:href="#0" id="d" gradientUnits="userSpaceOnUse" cx="262.95" cy="637.3" r="6.456"/></defs><path d="m282.25 244.43c2.935 0 5.315 2.38 5.315 5.315v5.314c0 2.935-2.38 5.315-5.315 5.315h-5.315v-15.944zm0 21.259c5.87 0 10.63-4.76 10.63-10.63v-5.314c0-5.87-4.76-10.63-10.63-10.63h-10.63v26.574zm-21.26-26.574h5.315v26.574h-5.315zm-10.63 0h5.315v26.574h-5.315l-10.63-16.684v16.684h-5.315v-26.574h5.315l10.63 16.684zm-79.72 0h15.945v5.315h-10.63v5.315h10.63v5.315h-10.63v5.315h10.63v5.315h-15.945zm-21.26-.0001h5.315v21.26h10.63v5.315h-15.945zm55.809 21.26h5.314c4.402 0 7.972-3.57 7.972-7.972 0-4.402-3.636-7.957-7.972-7.972h-5.314v5.315h5.314c1.467 0 2.657 1.19 2.657 2.657 0 1.467-1.19 2.657-2.657 2.657h-5.314zm5.314-26.575c10.272 0 18.602 8.33 18.602 18.602 0 10.272-8.33 18.602-18.602 18.602-10.272 0-18.602-8.33-18.602-18.602 0-10.272 8.33-18.602 18.602-18.602m-13.287 18.602c0 7.337 5.95 13.287 13.287 13.287 7.337 0 13.287-5.95 13.287-13.287 0-7.337-5.95-13.287-13.287-13.287-7.337 0-13.287 5.95-13.287 13.287" fill="#a90000"/><g fill-rule="evenodd" stroke="#000"><path d="m210 504c12.829-21.946 32.829-35.18 56.92-44.07 47.01-17.335 98.84-21.1 129.48-67.17 17.9-26.916 23.863-60.672 22.19-98.81-15.57-16.391-25.614-42.19-25.614-71.2 0-28.982 10.02-54.752 25.559-71.15v-119.55c-69.51-19.858-139.02-29.964-208.53-30.06-69.51.1-139.02 10.206-208.53 30.06v119.55c15.539 16.394 25.559 42.16 25.559 71.15 0 29.02-10.04 54.814-25.614 71.2-1.676 38.13 4.287 71.891 22.19 98.81 30.636 46.07 82.47 49.83 129.48 67.17 24.09 8.884 44.09 22.12 56.919 44.07" fill="url(#m)" stroke-width="1.3"/><g transform="translate(0-546.36)" stroke-width=".917" stroke-miterlimit="10"><g fill="#8f3d87"><path d="m257.97 869.67c42.43 10.794 77.969 28.05 61.25 59.36 1.387-.07 3.03-1.81 4.307-2.854 9.697-7.917 17.757-16.358 17.433-30.734-.659-29.27-58.13-30.17-82.991-25.768z"/><path d="m361.13 770.66c2.042 7.782-6.597 13.14-13.654 10.491l-32.915-35.555c21.13-1.122 37.4 5.969 46.569 25.06z"/></g><path d="m68.796 888.24c65.28-11.466 140.41-20.908 205.47-17.249 21.749 1.223 52.972 4.877 60.52 19.336 4.881 9.354.501 22.01-15.681 38.798 3.269-.098 6.71-1.779 10.397-4.336 22.806-15.814 36.796-42.953 40.633-64.18 7.091-39.22-13.763-78.935-51.55-112.63 14.909 1.534 30.694 7.542 39.499 19.723 1.09 1.509 2.979 3.811 3.223 5.394l.163-.741c1.333-19.567 1.284-39.18-1.213-58.751-3.767-29.522-20.232-65.38-58.739-83.88-34.24-16.457-77.83-15.13-123.91-10.59-36.27 3.574-72.54 10.251-108.8 16.11v253z" fill="#9c5291"/><path d="m66.73 595.89c1.88 7.214 4.389 13.905 5.107 21.11.41 4.112-1.778 8.137-1.778 12.269v324.33c0 2.1-6.301 2.1-6.301 0v-323.97c0-4.25-2.151-8.391-1.778-12.624.633-7.184 2.811-13.895 4.751-21.11z" fill="#d1802b"/><path d="m124.69 613.62l2.667-7.468-65.742 23.12v6.24l66.28-18.335-3.201-3.556z" fill="#2487c2"/></g></g><g transform="translate(0-546.36)"><g stroke="#000" stroke-width=".825" stroke-miterlimit="10"><path d="m272.23 750.13c2.762-2.498 5.401.787 6.893 2.973 1.976 2.895 3.506 6.447 4.943 9.488 5.993 12.684 12.261 22.878 19.11 27.499-.703-3.109-1.334-6.219-1.464-9.328 6.843 11.221 15.256 14 24.384 12.945-5.621-3.864-8.514-7.961-11.797-12.846-5.749-8.557-10.363-17.14-17.249-25.26-8.781-10.352-19.645-14.914-28.64-8.963l-.565.5 3.777 3.521.612-.531z" fill="url(#l)"/><path d="m221.63 666.65c2.926-3.092 8.07 1.114 9.79 2.389 6.29 4.653 11.269 6.764 15.32 4.03-6.484-1.144-6.496-6.708-12.731-8.1 1.556-.289 3.303-.792 4.279-1.785-2.402.151-4.109-.935-6.834-1.659-7.948-2.113-12.444.882-13.18 4.668l-.067.619 3.184.605.238-.768z" fill="url(#k)"/></g><path d="m306.01 609.99h.041v-.018l.011-.005 1.795 2.542-.872 1.855-9.91 13.851c-4.075-4.211-7.289-9.168-9.666-14.515 6.337-.043 12.768-1.155 18.602-3.711" fill="url(#2)" transform="matrix(.64667 0 0-.64667 18.277 1072.89)"/><path d="m298.65 626.39l8.517-11.905.005-.007.004-.009.903-1.921.027-.057-.036-.051-1.881-2.665-.05-.072-.081.035-.008.003-.03-4.096v-.005l-.697-14.628.008-.038-.009-.002c4.966.624 9.931 1.659 14.896 3.293-.527 2.11-.517 4.106-.112 6.03.411 1.948 1.228 3.817 2.304 5.649 3.08 5.245 3.113 10.74.162 15.333-.574.894-1.262 1.755-2.062 2.572-4.304 4.397-10.519 6.238-16.633 4.767-1.849-.445-3.627-1.19-5.226-2.223" fill="url(#3)" transform="matrix(.64667 0 0-.64667 18.277 1072.89)"/><path d="m215.59 690.61l.447-9.376.02-2.706c-3.03-1.325-6.302-1.983-9.593-2.257.094.462.293.871.487 1.267.331.677.642 1.314.397 2.116-.428 1.403-1.012 2.753-1.527 4.125l-.0001.005c-.141.376-.153.651-.044.847.309.562 1.431.487 1.956.471l.249.133c-.279.596.019 1.797.697 2.038-.057.853-.148 1.944.214 2.755.198.443.538.752 1.093.894l.092.008-.0001.013c.212.046.453.069.728.068 1.604.022 3.212-.095 4.787-.4" fill="#fc9"/><path d="m212.66 679.49l-2.055 1.083c-.424-.386-.575-1.212-.384-1.859l2.406.323.034.453" fill="#fff" fill-rule="evenodd"/><path d="m210.56 680.96c-.769-.678-.871-1.583-.57-2.604l2.94.395.166.876-2.536 1.334m.479-1.752l.142.608.948-.475-1.09-.133"/><path d="m214.3 684.62c.498.931.453 2.32-.515 2.925-.627.392-1.484.442-2.39.223-.381-.099-.8-.288-1.245-.325-.37-.03-.749.207-1.104.115-1-.262-1.38-1.458-1.141-2.373l1.296-.011c-.075.291-.122.689.011.97.107.226.878.053 1.163.094.493.071.923.282 1.324.379.506.122 1.129.188 1.456-.066.339-.264.349-.917.173-1.267-.305-.604-1.202-.842-2.027-.628.508-1.622 2.424-1.113 3-.037"/><path d="m405.83 363c.175-4.554-.09-9.179-1.432-13.56 3.655-2.735 7.215-5.676 10.295-9.06 2.056-2.259 4.905-2.079 4.916 1.418.028 8.604-1.963 15.238-6.621 18.671-2.084 1.536-4.596 2.315-7.158 2.531" fill="url(#4)" transform="matrix(.64667 0 0-.64667 18.277 1072.89)"/><path d="m443.35 349.74c3.537-2.942 7.05-6.03 10.564-9.274 2.846-2.629 4.804-.867 4.515 2.57-.336 5.596-1.224 11.02-3.293 14.832-2.048 3.77-5.239 5.959-10.237 5.158.409-4.224.245-9.382-1.549-13.286" fill="url(#5)" transform="matrix(.64667 0 0-.64667 18.277 1072.89)"/><path d="m350.89 439.09c4.26-4.398 9.416-8.772 17.649-13.223 8.356-4.518 19.883-9.118 36.863-13.909l.02-.005.017-.013c3.518-2.714 6.858-5.795 9.752-9.982 2.893-4.186 5.339-9.477 7.07-16.611l.002-.008c.837-3.452 1.77-6.911 2.687-10.316 1.019-3.781 2.02-7.496 2.861-11.09.259-1.107.441-1.816.789-2.408.347-.59.866-1.079 1.802-1.75 4.376-3.141 8.637-6.446 12.779-9.889 1.837 3.874 2.01 8.938 1.515 13.06v.105c-3.14.936-4.152 2.681-1.706 5.175 1.228 1.254 1.227 1.658.626 2.247-.465.457-.985.855-1.447 1.318-3.817 3.826-6.827 8.811-8.873 15.177-2.045 6.36-3.129 14.1-3.099 23.44.003.991-.03 1.773-.158 2.536-.128.763-.351 1.51-.729 2.433l-1.412 3.451c-.865 2.114-1.368 2.125-3.284 2.165l-.541.013c-5.316.153-10.142 1.968-14.649 4.86-4.5 2.887-8.683 6.851-12.719 11.307l-.041.045.017.058c5.111 17.06 6.549 30.15 5.273 40.37-1.275 10.208-5.259 17.557-10.992 23.15l-.007.007c-1.507 1.47-3.146 2.798-4.908 3.984-1.763 1.186-3.651 2.231-5.659 3.137-10.326 4.658-23.819 5.635-39.779 3.245-.393-1.668-2.268-3.418-4.762-4.983-1.335-.837-2.849-1.624-4.409-2.316l.071-.001c-.496-3.423-.651-6.846-.573-10.269.078-3.424.389-6.85.823-10.275l-.052-.007 15.356-31.429c1.956-4 3.426-8.332 3.825-12.793" fill="url(#6)" transform="matrix(.64667 0 0-.64667 18.277 1072.89)"/><path d="m344.34 438.53c.877-2.253 1.887-4.653 2.947-7.122 4.17-2.703 8.553-5.01 12.958-7.295 3.888-2.02 7.751-4.03 11.439-6.341 3.215-2.02 5.861-4.397 8.02-7.08 2.157-2.68 3.827-5.662 5.091-8.892 1.141-2.917 1.845-5.93 2.316-8.988.471-3.054.71-6.156.922-9.252.064-.931.134-1.877.205-2.82.285-3.838.568-7.644.476-11.322l-.002-.065c-.043-3.213.534-5.805 1.562-7.944 1.026-2.136 2.503-3.824 4.261-5.231 3.079-1.95 6.435-4.18 9.687-6.597 1.318 4.346 1.573 8.93 1.398 13.443-1.074.107-2.722.484-2.891 1.797-.048.373.04.767.231 1.149.336.671.997 1.311 1.798 1.733.764.402.699 1.098.296 1.863-.399.759-1.126 1.588-1.735 2.282-.366.417-.69.787-.882 1.071l-.002.003c-4.453 6.626-5.87 16.553-5.209 27.507.128 2.13.336 4.302.615 6.496.279 2.195.63 4.411 1.044 6.629l.015.081c-13.54 4.121-23.2 8.11-30.462 12.04-8.141 4.402-13.283 8.728-17.522 13.08.1-1.481.062-2.976-.173-4.444l-.002-.001-.021-.13c-2.49.922-4.582 2.419-6.379 4.359" fill="url(#7)" transform="matrix(.64667 0 0-.64667 18.277 1072.89)"/><path d="m331.49 483.76c-.82 6.645-1.157 13.389-.204 20.04-2.584-1.134-5.354-2.111-8.156-2.546l-.034-.154 8.394-17.341" fill="url(#8)" transform="matrix(.64667 0 0-.64667 18.277 1072.89)"/><path d="m200.39 763.54l1.234 3.65.0001.006c.787 4.423.543 8.965-.902 13.227 3.438 8.374 7.122 16.651 11.632 24.511.849-4.76 1.751-9.534 3.143-14.17 3.546 4.169 7.201 8.07 11.09 11.762-.296-5.066-.284-10.164-.048-15.233 4.728 3.819 9.545 7.553 14.573 10.972-4.25-9.706-10.887-19.973-11.945-30.831h.007l-8.05-16.14c-6.617 4.586-13.575 8.566-20.729 12.244" fill="#2487c2"/><path d="m301.52 400.76c2.217 8.09 3.593 16.462 6.457 24.19l.002.006.063.161c5.957-6.507 12.02-12.928 18.332-19.09.361 8.213.464 16.454 1.577 24.614 8.842-6.579 17.514-13.525 27.08-19.05-3.02 9.384-7.572 18.19-11.1 27.378-2.276 2.589-3.994 5.678-5.525 8.746l-12.04 24.14c.973-11.489 7.508-24.783 13.911-37.81 1.631-3.319 3.274-6.636 4.83-9.991-7.893 5.343-15.456 11.168-22.869 17.15-.473-7.885-.449-15.792.14-23.671-6.06 5.81-11.771 11.983-17.302 18.298-2.145-7.233-3.528-14.677-4.848-22.1-7.06 12.248-12.835 25.16-18.202 38.22-.613-1.698-1.335-3.36-2.1-4.963l-.005-.011c-.052-.104-.32-.546-.446-.812 6.208-15.649 12.552-31.25 22.05-45.41" fill="url(#9)" transform="matrix(.64667 0 0-.64667 18.277 1072.89)"/><path d="m291.54 521.95c-7.514-7.787-15.43-16.04-19.651-26.18 9.207 7.996 20.437 16.698 28.556 26.28-.849-.469-8.909-.564-8.905-.101" fill="url(#A)" transform="matrix(.64667 0 0-.64667 18.277 1072.89)"/><path d="m323.18 501.48c4.36.698 8.841 2.557 12.554 4.885 2.915 1.828 4.966 3.896 4.717 5.74-.647 3.968-2.352 8.564-3.376 12.467-2.596-.441-5.536-.607-7.737-.614-1.441-.584-2.953-.992-4.493-1.212-.147-7.07-.155-14.317-1.666-21.267m-12.09 24.04l9.301-19.04c.77 5.302 1.058 10.746.858 16.09-3.565.15-7.03 1.252-10.159 2.946" fill="url(#B)" transform="matrix(.64667 0 0-.64667 18.277 1072.89)"/><path d="m329.86 524.18c2.503.035 5.778.268 8.433.85 1.489.326 5.573 1.306 4.444 3.66l-2.567 5.354c-2.457-4.478-5.959-7.95-10.31-9.864" fill="url(#C)" transform="matrix(.64667 0 0-.64667 18.277 1072.89)"/><path d="m320.55 506.14l2.3-4.707.097.014c1.524 6.949 1.529 14.197 1.678 21.272-1.049-.138-2.11-.186-3.168-.155.204-5.45-.086-11.02-.907-16.424" fill="url(#D)" transform="matrix(.64667 0 0-.64667 18.277 1072.89)"/><path d="m310.58 525.79c-2.917-1.754-5.957-2.925-9.111-3.553 12.392-24.84 24.672-49.46 37.13-74.42 2.548-5.106 6.082-11.129 11.945-13.358.899 5.872-1.133 12.11-3.678 17.324-12.08 24.717-24.07 49.27-36.11 73.913l-.172.096" fill="url(#E)" transform="matrix(.64667 0 0-.64667 18.277 1072.89)"/><path d="m193.21 399.02c.544-4.562.439-9.79-.82-14.262l-.032-.087c3.537-2.056 7.095-4.231 10.635-6.712 3.149-2.205 5.056-1.266 4.586 2.643-.62 5.159-1.918 8.894-3.559 11.684-1.638 2.786-3.619 4.632-5.607 6.01-1.591 1.104-3.403.895-5.203.722" fill="url(#F)" transform="matrix(.64667 0 0-.64667 18.277 1072.89)"/><path d="m122.91 420.94c-.939-3.461-2.234-6.728-3.762-9.826-.596-1.207-1.203-2.963-1.264-4.372-.112-2.569 1.795-2.523 3.708-1.678 8.418 3.722 12.996 7.277 14.804 10.661 1.791 3.353.847 6.548-1.776 9.573-3.395-2.39-7.452-4.454-11.708-4.358" fill="url(#G)" transform="matrix(.64667 0 0-.64667 18.277 1072.89)"/><path d="m122.97 421.16c4.047-.219 8.417 2.152 11.573 4.35-.289 1.021-.338 2.187.18 3.147.508.942 1.471 1.42 2.496 1.529 1.861.199 2.464 1.277 2.368 3.02-.247 4.405 1.339 8.091 4.927 10.695 5.575 4.047 11.592 7.563 16.77 12.13l.002.003c2.246 1.981 5.01 2.14 7.858 2.053 2.296-.069 4.679.339 6.899-.434 2.231-.777 4.221-2.127 6.456-2.906l.006-.002-.007-.02c6.391.142 12.75.457 19.02 1.253 6.869.873 13.633 2.325 20.22 4.768-4.603 1.167-8.08 4.907-10.371 8.909-3.129-.028-6.244-.258-9.334-.486-8.648-.638-17.12-1.263-25.421 2.563-4.645 2.14-11.221 3.589-15.566.002l-.011-.001c-2.931-2.43-5.734-4.973-8.497-7.481-5.597-5.08-11.07-9.598-17.11-14.164-2.755-2.083-5.491-4.152-8.16-6.337-2.731-2.235-2.784-6.04-2.708-9.261.107-4.493-.432-8.976-1.587-13.317" fill="url(#H)" transform="matrix(.64667 0 0-.64667 18.277 1072.89)"/><path d="m270.79 523.78c-10.565-3.962-21.528-5.869-32.6-6.546-6.842-1.85-13.68-4.544-20.21-7.874-1.283-.654-2.553-1.332-3.805-2.031-1.24-.692-2.462-1.404-3.661-2.132-1.208-2.468-2.096-5.095-2.69-7.793-1.586-7.209-1.071-14.913 1.012-21.402 1.975-6.151 6.457-13.594 13.258-15.12l.051-.211c-6.706-2.526-13.6-4.02-20.601-4.906-7.375-.937-14.871-1.206-22.397-1.315-3.66-.052-8.284-.387-10.857-3.382-2.858-3.326-6.144-8.03-6.241-12.699-.051-2.429.841-4.647 1.581-6.915 2.421-7.412 4.765-14.589 6.154-22.06.605-3.256 1.274-6.564 2.808-9.65 1.531-3.081 3.926-5.946 7.985-8.329 3.841-2.254 7.75-4.392 11.602-6.627l.014.043c1.421 4.445 1.457 9.641.81 14.176-1.598-.146-3.26-.262-4.01 1.582-.54 1.33-.18 2.833-.478 4.214-.152.704-.439 1.242-.983 1.462-4.23 1.707-6.862 4.893-8.688 8.831-1.82 3.926-2.838 8.597-3.843 13.297-.471 2.207-.198 4.285 1.39 5.992 1.432 1.54 2.979 2.971 4.541 4.377 1.31 1.179 2.987 2.033 4.778 1.88l.019-.002c5.19-.47 10.368-1.113 15.549-1.757 5.367-.667 10.738-1.334 16.11-1.808 6.582-.581 14.359-1.548 20.613 1.128 2.168.927 4.361 2.3 6.595 4.292 2.865-2.751 7.602-4.48 11.21-5.378l7.675 34.31c-1.272 2.02-2.473 4.573-2.896 7.271-.115.731-.172 1.472-.159 2.215.013.744.097 1.492.266 2.234l.002.007c.277 1.214.777 2.32 1.439 3.358l.003.006c1.602 2.507 4.156 4.611 6.849 6.827.709.584 1.429 1.176 2.156 1.797l.006.005.492.42-.061.025c1.967 4.821 4.83 9.288 8.247 13.632 3.384 4.302 7.314 8.486 11.455 12.78-1.099.147-2.209.348-3.33.599-.747-1.114-1.592-2.183-2.556-3.208-.651-.692-1.257-1.021-1.909-1.106-.647-.085-1.332.073-2.147.354-1.248.429-2.399.984-3.473 1.608-1.033.601-1.995 1.267-2.904 1.949l-.772-1.405c-.258-.469-.642-.777-1.061-.917-.306-.103-.632-.116-.939-.038-.308.078-.599.247-.837.508-.341.375-.573.94-.589 1.699-.012.589-.004 1.17.025 1.742" fill="url(#I)" transform="matrix(.64667 0 0-.64667 18.277 1072.89)"/><g fill-rule="evenodd"><path d="m210.55 505.52l1.181 12.216c9.06-.615 18.15-.827 27.22-.246l.006-.215c-11.279-2.461-20.778-7.611-28.41-11.755m-12.252 94.88c4.475-4.328 7.02-11.461 6.127-17.623 6.345-6.691 7.01-16.809 4.249-25.327-.125-5.494-.367-11.01-.015-16.499.299-4.66 1.05-8.876 2.729-12.33 19.798-3.043 39.967-2.416 59.895-1.308.399 1.613 1.064 3.178 2.117 4.477-2.456 2.78-4.598 6.757-6.712 11.08-2.199 4.496-4.3 9.01-6.779 13.368-9.581 16.854-23.07 32.02-40.37 39.431-6.723 2.896-13.931 4.52-21.247 4.732" fill="url(#J)" transform="matrix(.64667 0 0-.64667 18.277 1072.89)"/><path d="m200.13 585.24c-7.185 3.536-14.37 5.977-21.555 6.832 2.074 2.935 4.524 5.271 7.95 7.093l-4.406 16.185c7.727-.529 11.04-6.385 11.09-14.803 4.103-3.957 6.981-11.369 6.925-15.307" fill="url(#K)" transform="matrix(.64667 0 0-.64667 18.277 1072.89)"/></g><path d="m180.75 597.8c.912-.058 1.847-.197 2.807-.425.881.68 1.827 1.301 2.846 1.848l-2.17 7.97c-1.857 2.664-4.23 5.218-7.345 6.371 1.154-5.286 2.42-10.549 3.863-15.765" fill="url(#L)" transform="matrix(.64667 0 0-.64667 18.277 1072.89)"/><path d="m191.99 542.98l.032.029 16.484 14.929.027.024c.138 6.369-.115 14.693-5.614 19.03l-14.965-30.464c1.512-.975 2.878-2.168 4.04-3.546m-3.495-3.673c-.006-2.357.185-4.782-.214-7.092-.663-4.667-3.972-7.639-8.507-6.528-1.776.351-2.917 1.139-3.627 2.81-2.504-1.664-5.998-1.826-7.986.763l-4.895 6.375c-1.181 1.538-1.355 2.494-.559 4.284 1.328 2.986 2.605 5.932 3.752 8.825 7.614-2.038 15.826-4.389 22.04-9.436m-20.13 14.563c5.237-1.388 10.359-3.199 15.347-5.308 5.102 10.335 10.05 20.75 14.649 31.32-6.845 4.111-14.603 6.61-22.568 7.324-1.94-3.703-3.241-7.701-5.181-11.389 1.959-7.27.126-15-2.247-21.947" fill="url(#M)" transform="matrix(.64667 0 0-.64667 18.277 1072.89)"/><path d="m198.17 600.48c4.03-3.856 7.303-11.176 6.144-17.732 5.926-6.212 7.311-15.857 4.32-25.08.206 8.275-.699 15.591-5.753 19.483l-15.07-30.668c1.648-1.052 3.077-2.323 4.283-3.685l.918-10.139-4.426 1.826.012 4.817c-5.709 4.729-13.717 7.364-22.2 9.564l1.656 4.97c5.353-1.403 10.603-3.255 15.704-5.416 5.131 10.39 10.11 20.86 14.733 31.504-7.31 4.411-15.16 6.679-22.82 7.337l2.9 4.812c7.184-.855 14.369-3.296 21.555-6.832.076 5.355-3.628 11.543-6.947 15.202 1.71.096 3.394.12 4.988.037" fill="url(#N)" fill-rule="evenodd" transform="matrix(.64667 0 0-.64667 18.277 1072.89)"/><path d="m192.67 606.26c.422-1.719.631-3.632.643-5.697 4.769.258 9.34-.052 13.713-.852 4.406-.806 8.609-2.111 12.608-3.834 20.555-8.856 35.742-28.777 45.4-49.03l.084-.177c2.701-5.669 5.319-11.163 8.431-14.697.416.487.882.927 1.402 1.31 1.444 1.062 3.301 1.695 5.632 1.744 2.344.049 5.168-.492 8.536-1.777l7.213 2.895c-4.346 1.633-7.148 3.837-9.581 5.75-.825.649-1.608 1.265-2.396 1.814-1.732 1.209-3.777 2.067-5.831 2.928-2.356.989-4.727 1.983-6.674 3.525h-.002l-.006.005-.392.321.489-.133c1.938-.527 3.999-1.081 6.06-1.251 1.981-.164 3.963.028 5.83.944-2.181 1.145-3.302 2.668-4.522 4.324-2.119 2.876-4.541 6.164-13.441 8.555l-.994.267 1.027-.055c.411-.022.824-.05 1.248-.079 3.318-.224 7.292-.492 10.06 1.93-2.149.506-3.466 1.791-4.958 3.246-2.093 2.041-4.54 4.427-10.161 5.441l-1.186.214h1.205c1.839 0 3.937.094 5.758.571 1.743.456 3.232 1.263 3.991 2.673-2.942.11-4.493 1.248-6.285 2.561-2.119 1.553-4.582 3.358-10.143 3.97l-.414.045.384.161c1.528.64 3.042 1.321 4.169 2.324 1.093.974 1.826 2.257 1.856 4.116-3.144-.396-5.91.256-8.734.922-3.03.714-6.129 1.445-9.829.905l-.509-.074.436.273c2.363 1.476 4.03 3.594 4.382 5.747.069.415.088.833.055 1.249-.03.371-.102.74-.221 1.104-3.436-2.229-7.382-1.585-11.44-.921-3.061.5-6.187 1.01-9.186.294l-.63-.151.548.346c1.835 1.159 3.655 2.626 4.671 4.276.196.319.363.645.493.977.111.281.196.567.252.855-3.256-.856-7.02-.592-10.935-.319-4.159.29-8.481.592-12.491-.435l-.007-.002-.066.205c1.787.653 3.688 1.616 5.153 2.827.285.236.554.48.799.732.183.187.355.379.514.576-2.562-.361-5.105-.104-7.606.149-5.02.508-9.881 1-14.351-3.621l-.038.036" fill="url(#O)" transform="matrix(.64667 0 0-.64667 18.277 1072.89)"/><path d="m170.39 575.85c.656 1.265 1.311 2.815 2.039 4.541 2.61 6.18 5.511 12.552 10.901 16.817-5.469 1.329-10.135-.421-14.13-3.947-3.496-3.086-7.415-5.793-11.83-7.379 2.479-3.154 7.04-3.36 10.706-3.2-2.041-1.161-4.155-2.052-6.521-2.262-1.995-.177-3.991.136-5.986.984.134-4.738 3.06-8.07 7.874-7.995 2.371.039 4.886.899 6.945 2.441" fill="url(#P)" transform="matrix(.64667 0 0-.64667 18.277 1072.89)"/><path d="m271.87 527.24c-28.13-1.579-56.08-2.131-82.45 6.406l1.312-14.1c26.309-2.779 54.47-5.336 80.24 4.408l2.524 1.792v1.148l-1.633.342" fill="url(#Q)" fill-rule="evenodd" transform="matrix(.64667 0 0-.64667 18.277 1072.89)"/><path d="m194.09 731.93c-18.19 1.021-36.26 1.378-53.32-4.143l.848 9.116c17.01 1.797 35.23 3.45 51.89-2.85l1.633-1.159v-.742l-1.056-.221z" fill="none" stroke="#000" stroke-width=".825" stroke-miterlimit="10"/><path d="m271.02 523.86l-.009-.003c-.033-.596-.043-1.204-.029-1.82.015-.702.225-1.219.533-1.558.208-.229.462-.377.729-.444.268-.068.552-.056.818.033.37.124.711.398.941.817l.795 1.601c.911-.685 2.144-1.461 3.177-2.062 1.062-.617 2.201-1.166 3.435-1.59.787-.27 1.442-.423 2.049-.344.602.078 1.167.388 1.78 1.04 1.01 1.074 1.888 2.197 2.657 3.367l.183-.114c4.02-.894 7.906-1.122 11.633-.619 3.653.495 7.408 1.811 10.663 3.751-4.294 2.489-8.259 6.266-11.48 11.02l-9.735-3.907-.039-.016-.039.015c-3.358 1.286-6.169 1.827-8.495 1.778-2.283-.048-4.099-.666-5.509-1.702-1.409-1.036-2.415-2.495-3.077-4.225-.423-1.106-.905-3.48-.99-4.993l.008-.021" fill="url(#R)" transform="matrix(.64667 0 0-.64667 18.277 1072.89)"/><path d="m256.54 412.73c.209 4.637-.142 9.293-.583 13.907l-.218.368-.27-.118-.006-.004c-5.764-3.702-11.673-7.172-17.624-10.564-2.317-1.32-2.497-4.418.492-4.889 6.03-.952 12.288.144 18.21 1.3" fill="url(#S)" transform="matrix(.64667 0 0-.64667 18.277 1072.89)"/><path d="m196.37 792.74c.276.025.559.048.846.068.32.024.634.044.942.06 1.515.082 2.961.087 4.282.0001-1.192-2.746-2.353-5.523-3.501-8.303-1.289 2.742-2.098 5.462-2.57 8.174" fill="#ccc"/><path d="m277.17 441c.694 2.02 1.538 4.045 2.557 6.079l.005.011c.546 1.091 1.043 2.199 1.488 3.321.451 1.14.835 2.249 1.177 3.408 1.747 5.913 2.1 12.205.918 18.856l-.825 2.99-17.348-6.313c-.165-7.575-.366-15.256-.978-22.09-.614-6.848-1.643-12.839-3.462-17.01l-.002-.005-.837-1.681c1.505-2.912 2.735-5.892 3.706-9.02.633-2.042 1.167-4.118 1.64-6.215.604.024 1.214.022 1.825.02 3.473-.008 7.621.094 7.403 4.536-.396 7.974.158 15.615 2.735 23.11" fill="url(#T)" transform="matrix(.64667 0 0-.64667 18.277 1072.89)"/><path d="m256.17 426.68c.514-5.361.924-10.812.436-16.191l8.936.265c-1.264 6.489-2.926 12.389-5.996 18.12l-3.687-1.779.311-.414" fill="url(#U)" transform="matrix(.64667 0 0-.64667 18.277 1072.89)"/><path d="m254.95 432.31l.543-5.183c1.315.605 2.91 1.23 4.345 1.887l.665 1.335c1.808 4.144 2.832 10.111 3.443 16.934.611 6.821.813 14.502.977 22.08-.414.526-.851 1.13-1.284 1.798-2.915-13.03-5.92-26.469-8.689-38.847" fill="url(#V)" transform="matrix(.64667 0 0-.64667 18.277 1072.89)"/><g fill-rule="evenodd"><path d="m300.94 522.71c-4.223-5.386-9.685-10.249-14.936-14.807-5.423-4.708-10.817-9.592-16.279-14.1l11.493-15.285c10.1 5.207 22.724 12.152 32.572 19.1l-12.85 25.09" fill="url(#W)" transform="matrix(.64667 0 0-.64667 18.277 1072.89)"/><path d="m264.94 469.39l18.542 6.799-13.756 17.613c-4.045-3.34-7.932-6.332-8.926-10.686-1.199-5.251 1.796-10.763 4.14-13.726" fill="url(#X)" transform="matrix(.64667 0 0-.64667 18.277 1072.89)"/></g><path d="m225.36 688.74c-4.394 1.356-8.575 2.11-13.08 2.4-1.742 2.162-3.093 4.542-3.548 7.371 1.846-3.697 4.741-6.437 8.445-7.542h.004.004c3.414-1.017 7.01-.496 10.349 1.222-.184-.213-.363-.43-.533-.654-.662-.874-1.208-1.835-1.635-2.794" fill="#ccc"/><path d="m275.19 635.59c.194.347.418.659.674.932.806.859 1.913 1.337 3.289 1.371.258.006.526-.004.803-.029l-.196 2.071c-.438-.224-.877-.423-1.314-.596-.465-.185-.928-.341-1.386-.468-2.354-.655-4.61-.57-6.631.117-.545.185-.961.418-1.269.683-.132.114-.243.233-.338.359l-3.233-1.713-.443-2.112 1.471-1.831c1.466-.082 2.886-.031 4.306.169 1.407.198 2.815.543 4.269 1.05" fill="url(#Y)" transform="matrix(.64667 0 0-.64667 18.277 1072.89)"/><path d="m284 643.93c-.362 1.157-.767 2.288-1.219 3.393l-5.812.27c-3.192.147-7.109-2.292-8.162-5.392-.514-1.515.264-2.53 1.692-3.02 3.1-1.054 6.404-.497 9.241.975-.145 1.537-.515 3.415.709 4.633 1.211 1.204 2.794.442 3.552-.863" fill="url(#Z)" transform="matrix(.64667 0 0-.64667 18.277 1072.89)"/><path d="m286.15 632.25c-.202 2.751-.589 5.414-1.163 7.969-.344 1.531-.795 4.187-2.506 4.845-.333.128-.675.151-.997.078-1.43-.326-1.804-2.108-1.687-3.353l.394-4.174c-1.944.214-3.853-.352-4.849-2.198l.003-.007-.008-.003c-1.797-.623-3.644-1.056-5.542-1.218.069-1.173.202-2.332.439-3.468.239-1.145.583-2.269 1.071-3.363v-.003c.219-.522.371-1.046.468-1.568.097-.522.14-1.044.14-1.566-.0001-1.862-.666-3.698-1.451-5.524-.765-1.778-1.646-3.553-2.132-5.315 4.548-1.134 9.715-1.118 14.351-.861-.331 2.348-.685 4.694-.992 7.05-.254 1.944-.062 3.913.439 5.803.276 1.044.848 1.76 1.521 2.603.793.994 1.733 2.17 2.501 4.278" fill="url(#a)" transform="matrix(.64667 0 0-.64667 18.277 1072.89)"/><path d="m294.19 578.3c.293 2.214.895 4.245 1.826 6.228.911 1.94 2.139 3.834 3.702 5.808-1.061-.037-2.279-.14-3.319.121-2.291.244-4.784 1.558-7.214 3.276-2.445 1.728-4.83 3.866-6.884 5.734l-.206.154c.132 2.055.209 4.11.203 6.16-.007 2.158-.107 4.317-.335 6.476-2.961-.184-6.745-.157-9.977.228-.693.082-1.363.181-1.994.299-.186.035-.368.07-.547.108-.568-2.491-1.042-5.01-1.404-7.586-.373-2.647-.629-5.348-.751-8.12-.064-1.455.717-3.089 1.688-4.182l.028-.031c3.706-4.104 7.578-7.713 11.528-10.985 3.88-3.215 7.834-6.103 11.779-8.817.222.807.47 1.597.744 2.367.34.953.72 1.876 1.138 2.765h-.005" fill="url(#b)" transform="matrix(.64667 0 0-.64667 18.277 1072.89)"/><g fill="none" stroke="#000" stroke-width=".825" stroke-miterlimit="10"><path d="m128.57 700.53c-3.661 2.747-9.663 2.315-9.761-3.727 2.625 1.153 5.25.858 7.875-.636-3.197.141-5.509-.532-6.752-2.185 2.573-.909 5.093-2.472 7.718-4.79 2.682-2.368 5.818-3.443 9.529-2.488"/><path d="m140.27 727.05c-.136 4.251-2.01 5.969-4.449 6.06-1.471.055-3.24-.454-3.653-1.892-1.926 1.142-4.08.909-5.196-.545l-3.166-4.122c-.835-1.088-.935-1.57-.37-2.841 3.779-8.499 6.916-16.505 5.099-23.19 1.934-3.659 3.921-11.666 10.366-15.09l-2.85-10.466c5.33.365 7.409 4.649 7.148 10.683"/><path d="m128.55 723.62c.833 0 1.509.676 1.509 1.509 0 .833-.676 1.509-1.509 1.509-.833 0-1.509-.676-1.509-1.509 0-.833.676-1.509 1.509-1.509z"/><path d="m126.05 726.45c.022-1.268 1.029-2.517 1.845-2.687"/><path d="m132.84 704.62c-.274-3.357 2.444-3.425 5.921-2.692"/><path d="m125.88 717.95c5.488 1.423 10.666 3.126 14.358 6.185l-.008 3.115m-13.279-12.513c3.461.907 6.856 2.105 10.155 3.503 3.318-6.719 6.535-13.49 9.528-20.373-4.727-2.853-9.849-4.362-14.8-4.788m14.549-8.482c2.648 2.47 4.764 7.204 4.01 11.443 3.832 4.02 4.728 10.254 2.794 16.218.133-5.351-.452-10.08-3.72-12.599l-9.742 19.832c1.066.68 1.99 1.502 2.773 2.466m-8.749-31.947c4.646.553 9.292 2.131 13.939 4.418.049-3.463-1.876-7.359-4.02-9.725m-.577 43.728l-.596-6.639 10.66-9.654c-.155 7.138-.558 14.11 1.764 18.947"/><path d="m143.2 684.6c22.17-1.249 37.733 16.512 46.4 34.696 1.777 3.729 3.494 7.353 5.547 9.669"/><path d="m135.1 686.35c-.93-3.36-1.764-6.817-2.531-10.34 1.795.627 3.461 2.045 5.093 4.466"/><path d="m142.85 680.81c4.405-4.553 9.367-1.494 14.41-2.291-.944 1.263-2.703 2.243-4.319 2.834 5.086-1.305 10.916.681 15.259-.518-.247 1.616-1.89 3.055-3.552 4.104 4.551-1.088 9.507 2.157 13.391-.446.684 1.907-.579 4.063-2.726 5.404 4.665-.681 7.844 1.741 12.08 1.172 0 2.537-1.951 3.476-3.94 4.309 6.689.736 6.48 4.126 10.728 4.226-.968 1.987-4.03 2.235-6.417 2.234 6.311 1.139 6.467 4.933 9.912 5.648-2.041 1.895-5.131 1.431-7.461 1.306 9.163 2.462 7.755 6.393 11.751 8.396-2.513 1.305-5.345.552-7.857-.131 2.348 1.862 5.671 2.489 8.09 4.174 2.01 1.403 3.989 3.488 7.77 4.899" stroke-linejoin="round"/><path d="m137.11 701.64c.102.237.158.498.158.772 0 .075-.005.149-.013.222-.111.975-.937 1.733-1.942 1.733-.395 0-.763-.118-1.07-.32-.532-.349-.884-.951-.884-1.635v-.014c.711-.842 2.071-.97 3.751-.758z"/><path d="m132.17 731.4c1.174-3.414 2.693-6.598 4.716-9.446"/></g><path d="m161.92 774.93c-8.533-1.877-13.02-17.927-7.484-28.951l.843-7.518" fill="none" stroke="#000" stroke-width=".825" stroke-miterlimit="10" id="n"/><g fill="none" stroke="#000" stroke-width=".825" stroke-miterlimit="10"><path d="m179.32 783.79c-4.887 6.083-9.41 7.06-13.962 6.929-9.01-.266-18.01-1.891-26.983-2.704-1.171-.106-2.22.449-3.05 1.197-1.01.908-2.01 1.832-2.932 2.826-1.136 1.221-1.15 2.558-.882 3.813 1.299 6.071 2.628 12.07 8.06 14.259.756.305.787 1.461.794 2.664.006 1.161.571 2.025 1.595 2.069 1.558.067 3.193-.601 4.667.422 2.586 1.795 5.152 4.801 5.957 11.493.399 3.32-1.493 2.882-3.075 1.774-4.866-3.409-9.799-5.937-14.497-8.694-5.277-3.097-6.228-7.451-7.01-11.673-1.02-5.49-2.839-10.735-4.622-16.238-.491-1.516-.617-3.357.279-5.498.768-1.837 1.988-3.638 3.393-5.273 1.508-1.754 4.167-2.17 7.07-2.212 9.729-.141 19.38-.696 28.48-4.288-1.751-3.21-3.041-6.823-3.224-10.66"/><path d="m142.62 824.09c.84-2.592.935-6.545.521-9.333"/><path d="m154.33 746.16c5.662-3.442 11.863-6.182 18.07-7.847"/><path d="m136.27 778.89c-1.403-.489-2.947-1.452-4.179-1.881-1.399-.487-2.986-.233-4.441-.277-1.776-.054-3.521-.024-5.03 1.31-3.128 2.759-7.14 5.156-10.851 7.85-2.084 1.513-3.34 3.601-3.157 6.856.05.896-.066 1.86-1.594 2.024-1.632.175-2.097 1.582-1.641 3.038 3.44 3.961 2.475 8.373-8.444 13.2-3.507 1.55-2.568-2.187-1.671-4.01 2.186-4.429 3.626-9.39 3.49-15.07-.058-2.407.074-4.651 1.776-6.04 3.645-2.983 7.489-5.638 11.225-8.744 3.509-2.917 6.902-6.278 10.61-9.351 2.507-2.077 6.459-1.714 10.147-.015 7.37 3.396 14.959 1.351 22.768 1.334"/><path d="m97.81 800.61c2.542.072 5.273-1.229 7.629-2.915"/><path d="m186.44 796.12c1.833 3.529 2.849 7.33 3.637 11.208l-5.939.176c.308-3.292.07-6.94-.275-10.536"/><path d="m204.45 734.87c5.29 1.196 10.207.625 14.677-2.078"/></g><path d="m257.2 433.29c1.875 0 3.396-1.521 3.396-3.396 0-1.875-1.521-3.396-3.396-3.396-1.875 0-3.396 1.521-3.396 3.396 0 1.875 1.521 3.396 3.396 3.396" fill="url(#c)" fill-rule="evenodd" transform="matrix(.64667 0 0-.64667 18.277 1072.89)"/><g stroke="#000" stroke-width=".825" stroke-miterlimit="10"><path d="m184.6 792.69c1.212 0 2.196.983 2.196 2.196 0 1.212-.983 2.196-2.196 2.196-1.212 0-2.196-.983-2.196-2.196 0-1.212.983-2.196 2.196-2.196z" fill="none"/><g fill="#fff" fill-rule="evenodd"><path d="m198.81 755.19c.645 0 1.167.523 1.167 1.168 0 .644-.523 1.167-1.167 1.167-.645 0-1.167-.523-1.167-1.167 0-.645.523-1.168 1.167-1.168z"/><path d="m203.94 751.38c.645 0 1.167.523 1.167 1.168 0 .645-.523 1.167-1.167 1.167-.645 0-1.167-.523-1.167-1.167 0-.645.523-1.168 1.167-1.168z"/><path d="m209.32 747.76c.644 0 1.167.523 1.167 1.168 0 .644-.523 1.167-1.167 1.167-.645 0-1.167-.523-1.167-1.167 0-.645.523-1.168 1.167-1.168z"/><path d="m214.37 744.1c.644 0 1.167.523 1.167 1.168 0 .645-.523 1.167-1.167 1.167-.645 0-1.167-.523-1.167-1.167 0-.645.523-1.168 1.167-1.168z"/></g></g><path d="m263.46 639.72c2.025 0 3.668-1.643 3.668-3.669 0-2.025-1.643-3.668-3.668-3.668-2.026 0-3.669 1.643-3.669 3.668 0 2.026 1.643 3.669 3.669 3.669" fill="url(#d)" fill-rule="evenodd" transform="matrix(.64667 0 0-.64667 18.277 1072.89)"/><g fill="none" stroke="#000" stroke-width=".825" stroke-miterlimit="10"><path d="m188.65 659.2c1.31 0 2.372 1.062 2.372 2.372 0 1.31-1.062 2.372-2.372 2.372-1.31 0-2.372-1.062-2.372-2.372 0-1.31 1.062-2.372 2.372-2.372z"/><path d="m176.46 786.86c1.514 1.288 4.241 2.512 7.502 3.523m12.249 2.413c2.303.213 4.507.27 6.433.131"/><path d="m183.44 796.78c-3.798 2.439-7.605 4.669-11.394 6.83-1.766 1.01-1.512 2.998.342 3.291 3.716.587 7.847-.067 11.869-.854"/><path d="m212.81 735.11c-2.652 3.238-6.185 6.383-9.58 9.331-1.915 1.662-5.789 5.088-9.562 8.311-2.935 2.507-6.02 4.557-6.737 7.718-.775 3.396 1.225 6.958 2.741 8.874-.213 9.814-.519 19.906-2.866 25.281"/></g><path d="m283.44 479.5c1.87 0 3.386-1.516 3.386-3.386 0-1.87-1.516-3.386-3.386-3.386-1.87 0-3.386 1.516-3.386 3.386 0 1.87 1.516 3.386 3.386 3.386" fill="url(#e)" fill-rule="evenodd" transform="matrix(.64667 0 0-.64667 18.277 1072.89)"/><g fill="none" stroke="#000" stroke-width=".825" stroke-miterlimit="10"><path d="m201.57 762.81c1.209 0 2.19.981 2.19 2.19 0 1.209-.981 2.19-2.19 2.19-1.209 0-2.19-.981-2.19-2.19 0-1.209.981-2.19 2.19-2.19z"/><path d="m197.7 749.23l4.287 6.06c1.459 2.063 6.641-2.054 5.198-3.898"/><path d="m192.6 753.57l7.685 9.697"/><path d="m187.76 758.34l11.758 5.772"/><path d="m189.6 769.35l9.914-3.617"/><path d="m186.99 764.11l12.372.77"/><path d="m205.82 732.41c-.755 1.651-1.723 3.171-3.034 4.566-.818.87-1.514.825-2.55.468-1.606-.552-2.96-1.425-4.171-2.341"/><path d="m197.67 732.17l-2.147 3.906c-.555 1.01-2.051.79-2.084-.777-.124-5.868 2.848-10.6 11.8-7.172l6.417-2.575"/><path d="m183.08 793.32l5.696-25.463"/><path d="m189.69 805.67c1.525-.072 3.093.13 4.574-.383 1.299-.45 1.614-1.456 1.556-2.641-.312-6.275.235-12.492 3.415-18.841 2.535-5.061 3.392-10.606 2.326-16.598"/><path d="m207.24 740.78l5.371 7.254c1.26 1.702 5.13-1.402 5.388-3.106"/><path d="m202.47 744.89l4.937 6.821c1.482 2.047 6.541-1.978 5.098-3.823"/><path d="m196.79 758.84c1.501 2.033 6.616-1.787 5.173-3.631"/><path d="m201.76 762.76c6.534-3.367 13.07-7.173 19.493-11.639"/><path d="m213.14 735.13l24.04 48.2c2.112 4.233 4.34 7.406 7.843 8.702.593-3.675-.714-7.92-2.371-11.329l-23.387-48.1"/><path d="m219.88 748.59l5.768-2.965"/><path d="m221.19 751.67l5.768-2.965"/><path d="m216.36 741.46l5.768-2.965"/><path d="m225.48 745.74c.44-2.8.752-7.228.607-10.87"/><path d="m227.12 748.92c1-4.347 1.051-9.329 1.157-14.274"/><path d="m231.19 733.99c3.477-.004 9.94-.626 8.793-3.02l-1.817-3.789"/><path d="m193.96 752.44c2.539-6.223 7.392-11.529 12.796-17.13"/><path d="m227.01 748.7c4.183-.565 12.238-4.301 11.453-7.184l-2.171-7.968"/><path d="m240.57 788.51c2.07 5.511 5.6 12.626 7.418 18.362-5.801-3.326-11.778-8.02-17.579-12.34-.705 5.2-.777 10.75-1.01 15.95-3.965-3.862-7.929-8.05-11.893-12.374-1.778 4.403-2.933 10.4-4.212 15.799-5.65-8.881-10.05-19.1-14.298-29.386" stroke-linejoin="round"/><path d="m232.75 760.35c-.562-4.435-.805-8.869-.162-13.303"/><path d="m200.61 780.33c3.393 8.266 7.02 16.533 11.779 24.8.875-4.915 1.808-9.772 3.139-14.23 3.713 4.242 7.425 8.238 11.137 11.798-.375-5.03-.377-10.237-.069-15.27 4.78 3.863 9.901 7.796 14.682 11.03-4.894-10.437-11.384-21.678-12.05-31.04" stroke-linejoin="round"/><path d="m245.02 788.87c5.565 5.78 13.429 11.486 35.4 17.686 4.541 3.503 8.619 7.95 10.854 17.16 1.149 4.736 2.556 9.432 3.589 13.848.337 1.444.476 1.85 1.703 2.73 5.195 3.728 10.184 7.852 15.199 12.478 1.263 1.165 3.228 1.47 3.037-1.718-.436-7.255-2.304-14.07-8.888-12.985-2.226-.655-2.598-1.738-1.118-3.248 1.268-1.294.6-1.271-.531-2.403-4.922-4.933-7.761-12.858-7.722-24.924.005-1.29-.086-2.035-.579-3.24-.304-.744-.609-1.488-.913-2.231-.626-1.531-.967-1.408-2.536-1.452-6.847-.197-12.436-4.677-17.648-10.432 6.617-22.09 3.721-33.891-3.717-41.15-6.987-6.819-18.27-8.878-32.637-6.724"/><path d="m276.3 805.41c-1.924 10.254-1.721 20.334 2.275 26.28.54.804 2.829 2.763 1.476 3.475-1.46.768-2.172 2.672.634 2.904 6.433.531 9.04 5.879 9.01 13.783-.007 2.036-1.622 2.807-3.3.964-3.496-3.839-8.687-7.453-13.03-10.203-2.292-1.833-3.85-4.399-3.794-8.578.078-2.968-.225-6.07-.439-9.181-.275-4-.618-8.01-2.09-11.774-1.63-4.164-4.304-7.69-8.45-10.292-5.03-3.16-10.585-5.435-15.708-8.773"/><path d="m279.72 846.92c.864-2.805 1.051-5.781.929-8.834"/><path d="m304.9 846.74c1.081-2.204 1.329-5.982 1.022-8.556"/><path d="m195.75 664.61c-.068-2.802 1.253-4.393 3.644-4.132l-.247-2.614c-.235-2.491 2.17-3.219 3-.727"/><path d="m190.66 662.73c1.927.112 3.73-.13 5.658-.809"/><path d="m199.23 658.96c-2.155 1.124-4.249 1.26-6.05.647-2.083-.708-1.125-2.468-.276-3.451.738-.855 2.401-2.218 4.485-2.121l3.857.179"/><path d="m192.68 662.76c.089 1.534.348 3.034.984 4.46.279.667.387 1.333.387 2-.0001 2.382-1.708 4.719-2.333 7.06 2.467.718 6.684.795 9.445.572-.217-1.543-.45-3.085-.652-4.629-.152-1.164-.07-2.398.282-3.726.385-1.453 1.688-1.921 2.591-4.447"/><path d="m190.37 659.86l1.813-.973"/><path d="m207.41 702.39c-5.198-3.568-10.421-7.596-15.222-12.911-.644-.713-1.167-1.897-1.128-2.774.158-3.591.663-6.993 1.427-10.308"/><path d="m200.76 685.35c.188-2.803.225-5.607-.072-8.411"/><path d="m210.07 691c-2.994-.25-6.564-3.434-9.244-5.873-1.201.948-2.4 1.47-3.6 1.93"/><path d="m227.91 692.5c-1.087-1.133-1.931-2.518-2.533-3.894"/><path d="m215.71 690.65c-1.638.327-3.276.447-4.914.424-2.193.005-2.342-1.484-2.199-3.76-.678-.243-.935-1.606-.683-2.125"/></g><path d="m135.32 701.56c.472 0 .855.383.855.855 0 .472-.383.855-.855.855-.472 0-.855-.383-.855-.855 0-.472.383-.855.855-.855" fill-rule="evenodd"/><use xlink:href="#n"/><g fill="none" stroke="#000" stroke-width=".825" stroke-miterlimit="10"><path d="m208.59 698.93c.377-2.849 1.547-5.225 3.626-7.832"/><path d="m209.05 683.11c.717.425.843 2.081-.779 2.055-.61-.001-1.229.077-1.84-.064-.722-.167-.984-.545-.685-1.34.519-1.382 1.123-2.802 1.527-4.125.397-1.298-.723-2.172-.914-3.513"/><path d="m211.27 667.83c3.768-2.496 8.991-2.427 12.537.078 4.767 3.367 5.813 8.429 3.03 13.175-1.384 2.357-2.103 4.807-1.394 7.563-3.265.922-6.531 1.658-9.795 2.268l.461-9.676"/><path d="m214.44 677.74c-3.47-1.01-6.94-1.639-10.408-1.65 1.625-3.684 3.747-6.872 6.366-9.564l6.461 9.03"/></g><path d="m308.12 614.37c2.591 0 4.693-2.102 4.693-4.693 0-2.591-2.102-4.693-4.693-4.693-2.591 0-4.693 2.102-4.693 4.693 0 2.591 2.102 4.693 4.693 4.693" fill="url(#f)" fill-rule="evenodd" transform="matrix(.64667 0 0-.64667 18.277 1072.89)"/><g fill="none" stroke="#000" stroke-width=".825" stroke-miterlimit="10"><path d="m217.53 675.59c1.676 0 3.035 1.359 3.035 3.035 0 1.676-1.359 3.035-3.035 3.035-1.676 0-3.035-1.359-3.035-3.035 0-1.676 1.359-3.035 3.035-3.035z"/><path d="m211.87 677.57c-.795.813-3.074.563-4.611.516"/></g><path d="m290.27 636.71l64.716 12.817c6.921 1.371 15.593 5.05 22.14 9.426-7.921.954-16.839 1.056-23.76-.412l-64.889-13.759 1.794-8.07" fill="url(#g)" fill-rule="evenodd" transform="matrix(.64667 0 0-.64667 18.277 1072.89)"/><path d="m205.99 661.15l41.85-8.289c4.475-.886 10.08-3.265 14.317-6.096-5.122-.617-10.889-.683-15.365.266l-41.962 8.898 1.16 5.22z" fill="none" stroke="#000" stroke-width=".825" stroke-miterlimit="10"/><path d="m279.92 653.17l9.85 2.548c-.464-10.616 1.71-19.912 5.692-28.31l-8.991-2.243c.206 10.664-1.68 20.2-6.551 28" fill="url(#h)" fill-rule="evenodd" transform="matrix(.64667 0 0-.64667 18.277 1072.89)"/><g stroke="#000" stroke-width=".825"><g stroke-miterlimit="10"><g fill="none"><path d="m199.29 650.5l6.37-1.648c-.3 6.865 1.106 12.877 3.681 18.305l-5.814 1.451c.133-6.896-1.086-13.06-4.236-18.11z"/><path d="m206.39 658.4l54.899-11.409"/></g><path d="m217.19 691.03c8.77-2.615 18.776 4.971 22.344 16.941 3.568 11.969-.651 23.795-9.421 26.41-8.77 2.614-18.776-4.971-22.344-16.941-3.568-11.969.651-23.796 9.42-26.41z" fill="url(#j)"/><path d="m218.35 694.91c6.632-1.977 14.387 4.389 17.317 14.217 2.93 9.828-.073 19.401-6.705 21.378-6.632 1.977-14.387-4.389-17.317-14.217-2.93-9.828.073-19.401 6.705-21.378z" fill="#db3630" fill-rule="evenodd"/></g><path d="m216.64 708.62l-1.065-3.573 3.535-1.054-1.275-4.278 3.573-1.065 1.275 4.278 3.535-1.054 1.065 3.573-3.535 1.054 2.373 7.96 3.535-1.054 1.065 3.574-3.535 1.054 2.165 7.261-3.573 1.065-2.165-7.261-3.535 1.054-1.065-3.574 3.535-1.054-2.373-7.96-3.535 1.054z" fill="url(#i)" fill-rule="evenodd"/></g></g></svg>