<svg xmlns="http://www.w3.org/2000/svg" width="300" height="355" viewBox="0 0 84.666667 100.18889" fill-rule="evenodd"><path d="m62.58 47.845c.828 0 1.5.672 1.5 1.5v1.5c0 .828-.672 1.5-1.5 1.5h-1.5v-4.5h1.5m0 6c1.657 0 3-1.343 3-3v-1.5c0-1.657-1.343-3-3-3h-3v7.5h3m-6-7.5h1.5v7.5h-1.5v-7.5m-3 0h1.5v7.5h-1.5l-3-4.709v4.709h-1.5v-7.5h1.5l3 4.709v-4.709m-22.5 0h4.5v1.5h-3v1.5h3v1.5h-3v1.5h3v1.5h-4.5v-7.5m-6 0h1.5v6h3v1.5h-4.5v-7.5m15.75 6h1.5c1.242 0 2.25-1.01 2.25-2.25 0-1.242-1.027-2.245-2.25-2.25h-1.5v1.5h1.5c.414 0 .75.336.75.75 0 .414-.336.75-.75.75h-1.5v1.5m1.5-7.5c2.899 0 5.25 2.351 5.25 5.25 0 2.899-2.351 5.25-5.25 5.25-2.899 0-5.25-2.351-5.25-5.25 0-2.899 2.351-5.25 5.25-5.25m0 1.5c2.071 0 3.75 1.68 3.75 3.75 0 2.071-1.68 3.75-3.75 3.75-2.071 0-3.75-1.679-3.75-3.75 0-2.07 1.679-3.75 3.75-3.75" fill="#a90000"/><path d="m84.67 57.911c0 23.346-18.957 42.28-42.33 42.28-23.376 0-42.33-18.933-42.33-42.28v-57.911h84.67v57.911"/><path d="m84.1 57.911v-57.34h-83.53v57.34c0 23.03 18.703 41.71 41.764 41.71 23.06 0 41.764-18.678 41.764-41.71" fill="#3c82c2"/><path d="m40.637 5.204h3.392v13.536l5.403-2.459.974 2.133-6.22 2.831.472 12.785 10.08-4.59c.379.83.757 1.659 1.136 2.489l-11.11 5.057.457 12.361 14.827-6.748c.433.948.865 1.896 1.298 2.845l-16 7.282.441 11.939 19.572-8.907c.487 1.067.973 2.134 1.46 3.2l-20.891 9.508.425 11.518 24.316-11.07 1.622 3.556-25.508 11.61v8.361h-8.905v-8.361l-25.508-11.61 1.622-3.556 24.316 11.07.425-11.517-20.891-9.508c.487-1.067.973-2.134 1.46-3.2l19.572 8.907.441-11.939-16-7.282c.433-.948.865-1.896 1.298-2.845l14.827 6.748.457-12.361-11.11-5.057c.379-.83.757-1.659 1.136-2.489l10.08 4.59.472-12.785-6.22-2.831.974-2.133 5.403 2.459v-13.536" fill="#fff"/></svg>