<svg xmlns="http://www.w3.org/2000/svg" width="300" height="360" viewBox="0 0 84.666667 101.6" fill-rule="evenodd"><defs><filter id="1" width="1.5" height="1.5" x="-.25" y="-.25"><feGaussianBlur in="SourceAlpha" stdDeviation="2" result="blur"/><feColorMatrix result="bluralpha" type="matrix" values="1 0 0 0 0 0 1 0 0 0 0 0 1 0 0 0 0 0 0.5 0 "/><feOffset in="bluralpha" dx="2" dy="2" result="offsetBlur"/><feMerge><feMergeNode in="offsetBlur"/><feMergeNode in="SourceGraphic"/></feMerge></filter><linearGradient id="0" gradientUnits="userSpaceOnUse" x1="127.85" y1="121.02" x2="112.53" y2="137.09" gradientTransform="matrix(1.83882 0 0 1.84131-150.74-222.52)"><stop stop-color="#f2f2f2"/><stop offset="1" stop-color="#fff"/></linearGradient></defs><path d="m62.58 48.55c.828 0 1.5.672 1.5 1.5v1.5c0 .828-.672 1.5-1.5 1.5h-1.5v-4.5h1.5m0 6c1.657 0 3-1.343 3-3v-1.5c0-1.657-1.343-3-3-3h-3v7.5h3m-6-7.5h1.5v7.5h-1.5v-7.5m-3 0h1.5v7.5h-1.5l-3-4.709v4.709h-1.5v-7.5h1.5l3 4.709v-4.709m-22.5 0h4.5v1.5h-3v1.5h3v1.5h-3v1.5h3v1.5h-4.5v-7.5m-6 0h1.5v6h3v1.5h-4.5v-7.5m15.75 6h1.5c1.242 0 2.25-1.01 2.25-2.25 0-1.242-1.026-2.246-2.25-2.25h-1.5v1.5h1.5c.414 0 .75.336.75.75 0 .414-.336.75-.75.75h-1.5v1.5m1.5-7.5c2.899 0 5.25 2.351 5.25 5.25 0 2.899-2.351 5.25-5.25 5.25-2.899 0-5.25-2.351-5.25-5.25 0-2.899 2.351-5.25 5.25-5.25m0 1.5c2.071 0 3.75 1.679 3.75 3.75 0 2.071-1.679 3.75-3.75 3.75-2.071 0-3.75-1.679-3.75-3.75 0-2.071 1.679-3.75 3.75-3.75" fill="#a90000"/><path d="m0 66.755c.099.85.226 1.692.384 2.524 3.482 18.358 20.941 32.32 41.949 32.32 21.01 0 38.466-13.962 41.949-32.32.158-.833.285-1.676.384-2.526v-66.755h-84.67v66.755"/><path d="m81.61 76.48c1.302-3.08 2.184-6.351 2.584-9.754v-66.25h-83.72v66.25c.4 3.404 1.283 6.675 2.585 9.755 6.099 14.423 21.386 24.653 39.28 24.653 17.891 0 33.18-10.231 39.28-24.654" fill="url(#0)"/><g stroke="#000" stroke-width=".325"><path d="m73.65 61.716c-.286 8.75-6.498 16-14.746 17.856 7.731 2.228 17.938-.275 23.985-5.872-.169.518-.35 1.033-.542 1.543-.164.435-.339.872-.525 1.312v.002l-.004.009c-3.669 8.675-10.64 15.841-19.498 20.2-6.196 3.049-13.08 4.591-19.987 4.592-14.333.0001-28.513-6.86-36.39-18.961-1.202-1.848-2.243-3.797-3.102-5.83l-.0001-.002c-1.323-3.13-2.211-6.451-2.602-9.827l-.0001-66.5h16.258c-1.692 6.96-7.223 12.416-14.22 13.989 8.628 2.487 18.14-.22 24.18-6.966-.286 8.75-6.498 16-14.746 17.857 8.627 2.487 18.14-.221 24.18-6.966-.286 8.75-6.498 16-14.746 17.857 8.627 2.487 18.14-.221 24.18-6.966-.286 8.75-6.497 16-14.746 17.857 8.627 2.487 18.14-.221 24.18-6.966-.286 8.75-6.498 16-14.746 17.857 8.627 2.487 18.14-.221 24.18-6.966-.286 8.75-6.498 16-14.747 17.856 8.628 2.487 18.14-.219 24.18-6.965z" fill="#41a147"/><path d="m21.958 55.971v2.231h.256v1.05h.538v.617 7.964h-1.199v-.838h-1.12v.838h-.697v-1.191h.538v-1.05h.265v-2.231h-.564v.908h-.882v-.908h-1.12v.908h-.891v-.908h-1.12v.908h-.882v-.908h-1.12v.908h-.891v-.908h-.617v2.231h.256v1.05h.538v.617 8.784h-.379v.67h-.432v2.893h8.114v-.3h10.901v.3h8.114v-2.893h-.432v-.67h-.379v-9.402h.538v-1.05h.265v-2.231h-.591v.908h-.891v-.908h-1.12v.908h-.882v-.908h-1.12v.908h-.891v-.908h-1.12v.908h-.882v-.908h-.591v2.231h.256v1.05h.538v.617.573h-.688v-.838h-1.129v.838h-1.199v-8.581h.538v-1.05h.265v-2.231h-.564v.908h-.882v-.908h-1.12v.908h-.891v-.908h-1.12v.908h-.882v-.908h-1.12v.908h-.891v-.908h-.617z" filter="url(#1)"/></g><g transform="matrix(1.83882 0 0 1.84131-150.74-222.52)"><g stroke="#000" stroke-width=".176"><path fill="#feed01" d="m98.17 152.46h-4.11v.57h.29v5.1h3.53v-5.1h.29z"/><path fill="#ffd700" d="m98.17 152.46h-4.11v.57h.29v.33h3.53v-.33h.29z"/><path fill="#feed01" d="m96.92 151.74v-.5h.61v.5h.48v-.5h.3v1.22h-4.39v-1.22h.34v.5h.48v-.5h.61v.5h.48v-.5h.61v.5z"/></g><path d="m95.58 155.78v-1.92h1.07v1.92z"/></g><g transform="matrix(1.83882 0 0 1.84131-150.74-222.52)"><g stroke="#000"><g stroke-width=".176"><path fill="#ffd700" d="m96.42 157.68h.75v-.45h.61v.45h.76v-.45h.6v.45h.72v6.24h-7.48v-6.24h.71v-.45h.61v.45h.75v-.45h.61v.45h.75v-.45h.61z"/><g fill="none"><path d="m92.38 162.51h6.932v1.408h-6.932z"/><path d="m99.86 158.09h-7.48"/></g></g><path d="m97.69 159.25h.215v-.208h.381v.208h.215v1.354h-.812v-1.354zm-3.967 0h.215v-.208h.381v.208h.215v1.354h-.812v-1.354z" stroke-width=".076"/><g stroke-width=".176"><path d="m96.53 160.89v.27h.39v2.76h-1.61v-2.76h.39v-.27z"/><path fill="#ffd700" d="m99.08 162.51h4.41v1.572h-4.41z"/><path fill="#feed01" d="m103.26 162.15h-.21v-5.11h.29v-.57h-4.11v.57h.29v5.11h-.21v.36h3.95z"/><path fill="#ffd700" d="m99.23 157.04h.29v.33h3.53v-.33h.29v-.57h-4.11z"/><path fill="none" d="m99.52 161.73h3.53"/></g></g><path d="m101.82 157.88v1.91h-1.07v-1.91z"/><g stroke="#000" stroke-width=".176"><path fill="#feed01" d="m102.68 155.26v.49h.48v-.49h.32v1.21h-4.39v-1.21h.32v.49h.48v-.49h.61v.49h.48v-.49h.61v.49h.48v-.49z"/><path fill="#ffd700" d="m88.74 162.51h4.41v1.572h-4.41z"/><path fill="#feed01" d="m88.974 162.51h3.946v-.36h-.21v-5.11h.29v-.57h-4.11v.57h.29v5.11h-.206z"/><path fill="#ffd700" d="m93 156.47h-4.11v.57h.29v.33h3.53v-.33h.29z"/><path fill="none" d="m89.18 161.73h3.53"/></g><path d="m90.41 159.79v-1.91h1.07v1.91z"/><path fill="#feed01" stroke="#000" stroke-width=".176" d="m91.75 155.75v-.49h.61v.49h.48v-.49h.3v1.21h-4.39v-1.21h.33v.49h.49v-.49h.61v.49h.48v-.49h.61v.49z"/></g></svg>