<svg xmlns="http://www.w3.org/2000/svg" width="300" height="355" viewBox="0 0 84.666667 100.18889" fill-rule="evenodd"><path d="m62.58 47.845c.828 0 1.5.672 1.5 1.5v1.5c0 .828-.672 1.5-1.5 1.5h-1.5v-4.5h1.5m0 6c1.657 0 3-1.343 3-3v-1.5c0-1.657-1.343-3-3-3h-3v7.5h3m-6-7.5h1.5v7.5h-1.5v-7.5m-3 0h1.5v7.5h-1.5l-3-4.709v4.709h-1.5v-7.5h1.5l3 4.709v-4.709m-22.5 0h4.5v1.5h-3v1.5h3v1.5h-3v1.5h3v1.5h-4.5v-7.5m-6 0h1.5v6h3v1.5h-4.5v-7.5m15.75 6h1.5c1.242 0 2.25-1.01 2.25-2.25 0-1.242-1.027-2.245-2.25-2.25h-1.5v1.5h1.5c.414 0 .75.336.75.75 0 .414-.336.75-.75.75h-1.5v1.5m1.5-7.5c2.899 0 5.25 2.351 5.25 5.25 0 2.899-2.351 5.25-5.25 5.25-2.899 0-5.25-2.351-5.25-5.25 0-2.899 2.351-5.25 5.25-5.25m0 1.5c2.071 0 3.75 1.68 3.75 3.75 0 2.071-1.68 3.75-3.75 3.75-2.071 0-3.75-1.679-3.75-3.75 0-2.07 1.679-3.75 3.75-3.75" fill="#a90000"/><path d="m84.67 57.911c0 23.346-18.957 42.28-42.33 42.28-23.376 0-42.33-18.933-42.33-42.28v-57.911h84.67v57.911"/><path d="m84.1 56.08v-55.51h-83.53v57.12l3.621-3.81 4 3.791 4.688-4.934-4-3.791c2.781-2.931 5.567-5.86 8.351-8.789l4 3.791 4.688-4.934-4-3.791 8.351-8.788 4 3.791 4.689-4.934-4-3.791c2.711-2.857 5.425-5.71 8.138-8.565 2.713 2.854 5.427 5.708 8.138 8.565l-4 3.791 4.689 4.934 4-3.791 8.351 8.788-4 3.791 4.688 4.934 4-3.791c2.785 2.928 5.57 5.857 8.351 8.789l-4 3.791 4.688 4.934 4-3.791 2.094 2.203m-77.878 22.786c7.237 12.41 20.701 20.756 36.11 20.756 15.827 0 29.6-8.798 36.685-21.762l-35.921-37.8-36.878 38.807" fill="#da251d"/><path d="m84.1 56.784l-2.112-2.222-4 3.791c-1.785-1.879-3.572-3.758-5.357-5.637l4-3.791-7.683-8.09-4 3.791c-1.785-1.88-3.571-3.758-5.357-5.637l4-3.791-7.683-8.08-4 3.791c-1.785-1.88-3.571-3.758-5.357-5.637l4-3.791-7.452-7.842-7.452 7.842 4 3.791c-1.786 1.879-3.572 3.757-5.357 5.637l-4-3.791-7.683 8.08 4 3.791c-1.786 1.879-3.572 3.757-5.357 5.637l-4-3.791-7.683 8.09 4 3.791c-1.785 1.88-3.571 3.758-5.357 5.637l-4-3.791-3.633 3.823c.081 7.28 2.03 14.11 5.392 20.04l37.13-39.07 36.16 38.05c3.088-5.819 4.839-12.454 4.839-19.497v-1.127" fill="#fff" fill-rule="nonzero"/></svg>