<svg xmlns="http://www.w3.org/2000/svg" viewBox="0 0 350 467" xmlns:xlink="http://www.w3.org/1999/xlink"><defs><linearGradient id="G" gradientTransform="matrix(60.5115-46.81082 44.90762 58.0513 172.33 516.68)" gradientUnits="userSpaceOnUse" x2=".86" x1=".14" xlink:href="#0"/><linearGradient id="O" gradientTransform="matrix(335.2643 0 0 436.8234 129.23 354.1)" gradientUnits="userSpaceOnUse" x2="1" x1="0"><stop stop-color="#e5e5e5"/><stop offset=".49" stop-color="#fff"/><stop offset="1" stop-color="#e5e5e5"/></linearGradient><linearGradient id="F" gradientTransform="matrix(45.1246-126.6542 86.6995 30.88944 192.13 589.99)" gradientUnits="userSpaceOnUse" x2=".69" x1=".31" xlink:href="#0"/><linearGradient id="D" gradientTransform="matrix(-68.3216-79.3018 78.443-67.5817 362.34 591.82)" gradientUnits="userSpaceOnUse" x2=".83" x1=".17" xlink:href="#0"/><linearGradient id="E" gradientTransform="matrix(-57.4763-101.2082 95.2027-54.0658 311.39 617.63)" gradientUnits="userSpaceOnUse" x2=".83" x1=".17" xlink:href="#0"/><linearGradient id="H" gradientTransform="matrix(-62.73595-23.26619 24.0628-64.88395 410.45 332.05)" gradientUnits="userSpaceOnUse" x2=".78" x1=".22"><stop stop-color="#ccc"/><stop offset="1" stop-color="#fff"/></linearGradient><linearGradient id="N" gradientTransform="matrix(324.779 0 0 257.9136 135.65 195.76)" gradientUnits="userSpaceOnUse" x2="1" x1="0"><stop stop-color="#00a0cd"/><stop offset=".5" stop-color="#00afe1"/><stop offset="1" stop-color="#00a0cd"/></linearGradient><linearGradient id="I" gradientTransform="matrix(-23.4692-140.8152 200.3395-33.38992 192.44 372.35)" gradientUnits="userSpaceOnUse" x2=".6" x1=".4" xlink:href="#H"/><linearGradient id="M" gradientTransform="matrix(334.5171 0 0 60.332 130.04 324.22)" gradientUnits="userSpaceOnUse" x2="1" x1="0"><stop stop-color="#00824b"/><stop offset=".5" stop-color="#40aa50"/><stop offset="1" stop-color="#00824b"/></linearGradient><linearGradient id="J" gradientTransform="matrix(-27.71373-1.38569.35229-7.0458 366.31 290.93)" gradientUnits="userSpaceOnUse" x2=".62" x1=".38"><stop stop-color="#e5e5e5"/><stop offset="1" stop-color="#fff"/></linearGradient><linearGradient id="K" gradientTransform="matrix(-56.91995-10.54073 5.52264-29.82225 334.24 319.26)" gradientUnits="userSpaceOnUse" x2=".58" x1=".42" xlink:href="#J"/><linearGradient id="C" gradientTransform="matrix(-3.81445-4.68137 4.96243-4.0435 182.44 567.09)" gradientUnits="userSpaceOnUse" x2=".67" x1=".33" xlink:href="#0"/><linearGradient id="3" gradientTransform="matrix(67.0882-9.58402 12.60754 88.2528 323.95 535.3)" gradientUnits="userSpaceOnUse" x2=".71" x1=".29" xlink:href="#0"/><linearGradient id="B" gradientTransform="matrix(-43.64709-53.5669 54.83001-44.67631 194.21 602.66)" gradientUnits="userSpaceOnUse" x2=".68" x1=".32" xlink:href="#0"/><linearGradient id="2" gradientTransform="matrix(74.287 138.5351-124.5795 66.80349 342.43 457.41)" gradientUnits="userSpaceOnUse" x2=".7" x1=".3" xlink:href="#0"/><linearGradient id="0" gradientTransform="matrix(127.0789 79.4243-80.1498 128.2397 357.52 393.68)" gradientUnits="userSpaceOnUse" x2=".73" x1=".27"><stop stop-color="#00824b"/><stop offset="1" stop-color="#40aa50"/></linearGradient><linearGradient id="1" gradientTransform="matrix(83.8296-101.7931 108.5083 89.3598 318.4 498.53)" gradientUnits="userSpaceOnUse" x2=".64" x1=".36" xlink:href="#0"/><linearGradient id="4" gradientTransform="matrix(80.3899 16.55087-16.40785 79.6953 350.84 507.97)" gradientUnits="userSpaceOnUse" x2=".67" x1=".33" xlink:href="#0"/><linearGradient id="A" gradientTransform="matrix(-77.8344-90.124 91.8191-79.2983 187.94 565)" gradientUnits="userSpaceOnUse" x2=".7" x1=".3" xlink:href="#0"/><linearGradient id="9" gradientTransform="matrix(-128.8854 76.6346-77.7215-130.7135 314.23 524.97)" gradientUnits="userSpaceOnUse" x2=".73" x1=".27" xlink:href="#0"/><linearGradient id="5" gradientTransform="matrix(-97.0425 59.71848-66.3974-107.8958 376.55 606.05)" gradientUnits="userSpaceOnUse" x2=".67" x1=".33" xlink:href="#0"/><linearGradient id="7" gradientTransform="matrix(2.84006 106.5023-61.1593 1.63091 249.14 504.12)" gradientUnits="userSpaceOnUse" x2=".71" x1=".29" xlink:href="#0"/><linearGradient id="6" gradientTransform="matrix(-63.7855 1.55574-2.48213-101.7675 302.43 629.89)" gradientUnits="userSpaceOnUse" x2=".76" x1=".24" xlink:href="#0"/><linearGradient id="8" gradientTransform="matrix(-83.2913-11.48845 11.71933-84.96515 244.28 600.27)" gradientUnits="userSpaceOnUse" x2=".64" x1=".36" xlink:href="#0"/><radialGradient id="L" gradientUnits="userSpaceOnUse" r="113.44" cy="455.88" cx="296.15"><stop stop-color="#ae6b37"/><stop offset="1" stop-color="#963"/></radialGradient></defs><g transform="translate(-141.93-363.28)"><path d="m388.68 588.8c2.935 0 5.315 2.38 5.315 5.315v5.314c0 2.935-2.38 5.315-5.315 5.315h-5.315v-15.944zm0 21.259c5.87 0 10.63-4.76 10.63-10.63v-5.314c0-5.87-4.76-10.63-10.63-10.63h-10.63v26.574zm-21.26-26.574h5.315v26.574h-5.315zm-10.63 0h5.315v26.574h-5.315l-10.63-16.684v16.684h-5.315v-26.574h5.315l10.63 16.684zm-79.72 0h15.945v5.315h-10.63v5.315h10.63v5.315h-10.63v5.315h10.63v5.315h-15.945zm-21.26-.0001h5.315v21.26h10.63v5.315h-15.945zm55.808 21.26h5.314c4.402 0 7.972-3.57 7.972-7.972 0-4.402-3.636-7.957-7.972-7.972h-5.314v5.315h5.314c1.467 0 2.657 1.19 2.657 2.657 0 1.467-1.19 2.657-2.657 2.657h-5.314zm5.314-26.575c10.272 0 18.602 8.33 18.602 18.602 0 10.272-8.33 18.602-18.602 18.602-10.272 0-18.602-8.33-18.602-18.602 0-10.272 8.33-18.602 18.602-18.602m-13.287 18.602c0 7.337 5.95 13.287 13.287 13.287 7.337 0 13.287-5.95 13.287-13.287 0-7.337-5.95-13.287-13.287-13.287-7.337 0-13.287 5.95-13.287 13.287" fill="#a90000"/><g transform="matrix(1.0091 0 0-1.0091 17.4 1021.43)"><path d="m470.22 358.44c-6.756-43.718-23.797-76.19-52.32-102.65-33.771-31.33-78.57-50.51-121.07-66.36-42.5 15.847-87.3 35.03-121.07 66.36-28.519 26.462-45.56 58.931-52.32 102.65l-.046.301v.152 293.31h346.86v-293.31-.152l-.046-.301"/><path d="m463.59 354.65c.255 1.452.499 2.917.729 4.396v287.19h-334.95v-287.19c.228-1.466.47-2.917.722-4.357 19.09 2.221 22.706 9.873 48.04 9.873 29.63 0 29.545-10.471 59.27-10.471 29.726 0 29.641 10.471 59.27 10.471 29.63 0 29.545-10.471 59.27-10.471 29.726 0 29.641 10.471 59.27 10.471 25.482 0 28.989-7.744 48.38-9.912" fill="url(#O)"/><path d="m413.86 260.13c19.755 18.331 33.805 39.676 42.578 65.913-13.27 3-19.01 8.642-40.757 8.642-29.63 0-29.545-10.471-59.27-10.471-29.726 0-29.641 10.471-59.27 10.471-29.63 0-29.545-10.471-59.27-10.471-29.726 0-29.641 10.471-59.27 10.471-22.05 0-27.645-5.799-41.31-8.766 8.775-26.18 22.812-47.49 42.537-65.789 27.515-25.531 66.16-45.33 117.02-64.38 50.866 19.05 89.51 38.846 117.02 64.38" fill="url(#N)"/><path d="m456.44 326.05c2.99 8.943 5.367 18.454 7.148 28.607-19.391 2.168-22.897 9.912-48.38 9.912-29.63 0-29.545-10.471-59.27-10.471-29.726 0-29.641 10.471-59.27 10.471-29.63 0-29.545-10.471-59.27-10.471-29.726 0-29.641 10.471-59.27 10.471-25.331 0-28.947-7.652-48.04-9.873 1.79-10.214 4.183-19.78 7.196-28.77 13.67 2.967 19.265 8.766 41.31 8.766 29.63 0 29.545-10.471 59.27-10.471 29.726 0 29.641 10.471 59.27 10.471 29.63 0 29.545-10.471 59.27-10.471 29.726 0 29.641 10.471 59.27 10.471 21.748 0 27.488-5.642 40.757-8.642" fill="url(#M)"/><path d="m133.29 325.19c16.77 2.592 21.23 9.505 45.3 9.505 29.63 0 29.545-10.471 59.27-10.471 29.726 0 29.641 10.471 59.27 10.471 29.63 0 29.545-10.471 59.27-10.471 29.726 0 29.641 10.471 59.27 10.471 23.15 0 28.16-6.391 43.42-9.187m-332.63 28.852c22.348 1.613 24.796 10.212 51.648 10.212 29.63 0 29.545-10.471 59.27-10.471 29.726 0 29.641 10.471 59.27 10.471 29.63 0 29.545-10.471 59.27-10.471 29.726 0 29.641 10.471 59.27 10.471 26.852 0 29.3-8.599 51.648-10.212" fill="none" stroke="#000" stroke-width="1.276" stroke-miterlimit="10"/><path d="m370.57 465.01c-27.358 3.441-31.04-25.604-19.77-37.686 5.802-6.221 15.95-8.344 23.704-10.982 11.554-3.932 28.08-8.157 39.15-12.669 9.8-3.992 16.14-10.44 17.521-21.496.2-1.599-1.01-2.919-2.619-2.919-1.611 0-2.345 1.331-2.619 2.919-1.936 11.215-21.03 18.02-30.823 18.699-3.215.223-5.635-1.116-5.537-4.338.051-1.687 1.334-3.02 3.531-3.85 4.051-1.526 12.154-3.814 16.675-4.731 7.701-1.563 11.15-6.157 11.591-11.629.129-1.606-1.307-2.918-2.919-2.918-1.611 0-2.55 1.35-2.918 2.918-1.11 4.724-15.14 3.904-19.09 4.315-6.483.675-15.15.602-20.488 4.748-3.627 2.817-4.91 6.744-7.342 10.123-1.493 2.074-4.084 3.627-6.981 3.416-3.535-.259-5.564-2.602-6.388-5.671-.917-3.418 1.308-7.087 3.684-9.404 4.995-4.872 13.474-5.306 13.736-12.16.062-1.61-1.157-2.919-2.769-2.919-1.611 0-2.387 1.309-3.068 2.769-2.105 4.509-11.621 4.143-18.71 4.329-7.911.207-10.65 2.949-12.01 7.684-.948 3.311-.582 7.03-2.298 10.09-1.708 3.039-5.256 5.129-9.354 5.129-5.764 0-10.439-4.134-10.439-9.231 0-3.504 2.21-6.554 5.464-8.117 5.578-2.679 13.87-2.744 16.1-9.733.381-1.193.559-2.307.056-3.291-.391-.765-1.217-1.56-2.542-1.56-1.208 0-2.246.736-2.689 1.783-1.231 2.909-6.03 3.844-8.892 4.498-5.269 1.205-10.54 1.154-15.811 1.348-8.84.325-16.737 2.287-17.06 16.394-.105 4.585-3.72 8.307-8.307 8.307-4.587 0-8.439-3.722-8.307-8.307.236-8.201-.775-15.579-12.43-15.785-10.784-.19-24.332 2.53-28.43-3.972-.859-1.363-1.307-2.918-2.918-2.918-1.612 0-2.948 1.308-2.919 2.918.061 3.346 4.431 8.567 10.01 12.293 4.618 3.084 12.441 2.808 12.441 10.05 0 4.277-3.77 7.745-8.419 7.745-2.905 0-5.468-1.355-6.981-3.415-6.877-9.367-8.769-21.263-25.704-18.735-7.02 1.047-14.01 1.924-20.987 2.708-3.95.444-6.704-.099-7.282-2.559-.368-1.569-1.307-2.918-2.918-2.918-1.612 0-3.048 1.312-2.919 2.918.441 5.472 3.339 9.941 11.142 10.879 6.208.747 12.471.971 18.717 1.244 3.22.141 5.837 2.614 5.837 5.837 0 3.223-2.638 6.228-5.837 5.837-8.6-1.051-17.06-4.145-25.634-7.908-7.627-3.346-9.94-9.02-9.838-15.89.024-1.611-1.307-2.918-2.918-2.918-1.612 0-2.844 1.309-2.919 2.918-.412 8.872 2.644 17.945 11.899 22.675 11.958 6.112 31.751 12.776 45.975 17.638 7.75 2.649 16.383 4.642 22.05 10.982 12.445 13.911 11.857 38.719-17.491 36.04v93.89h146.99v-95.4" fill="url(#L)" fill-rule="evenodd"/><path d="m370.57 465.01c-27.358 3.441-31.04-25.604-19.77-37.686 5.802-6.221 15.95-8.344 23.704-10.982 11.554-3.932 28.08-8.157 39.15-12.669 9.8-3.992 16.14-10.44 17.521-21.496.2-1.599-1.01-2.919-2.619-2.919-1.611 0-2.345 1.331-2.619 2.919-1.936 11.215-21.03 18.02-30.823 18.699-3.215.223-5.635-1.116-5.537-4.338.051-1.687 1.334-3.02 3.531-3.85 4.051-1.526 12.154-3.814 16.675-4.731 7.701-1.563 11.15-6.157 11.591-11.629.129-1.606-1.307-2.918-2.919-2.918-1.611 0-2.55 1.35-2.918 2.918-1.11 4.724-15.14 3.904-19.09 4.315-6.483.675-15.15.602-20.488 4.748-3.627 2.817-4.91 6.744-7.342 10.123-1.493 2.074-4.084 3.627-6.981 3.416-3.535-.259-5.564-2.602-6.388-5.671-.917-3.418 1.308-7.087 3.684-9.404 4.995-4.872 13.474-5.306 13.736-12.16.062-1.61-1.157-2.919-2.769-2.919-1.611 0-2.387 1.309-3.068 2.769-2.105 4.509-11.621 4.143-18.71 4.329-7.911.207-10.65 2.949-12.01 7.684-.948 3.311-.582 7.03-2.298 10.09-1.708 3.039-5.256 5.129-9.354 5.129-5.764 0-10.439-4.134-10.439-9.231 0-3.504 2.21-6.554 5.464-8.117 5.578-2.679 13.87-2.744 16.1-9.733.381-1.193.559-2.307.056-3.291-.391-.765-1.217-1.56-2.542-1.56-1.208 0-2.246.736-2.689 1.783-1.231 2.909-6.03 3.844-8.892 4.498-5.269 1.205-10.54 1.154-15.811 1.348-8.84.325-16.737 2.287-17.06 16.394-.105 4.585-3.72 8.307-8.307 8.307-4.587 0-8.439-3.722-8.307-8.307.236-8.201-.775-15.579-12.43-15.785-10.784-.19-24.332 2.53-28.43-3.972-.859-1.363-1.307-2.918-2.918-2.918-1.612 0-2.948 1.308-2.919 2.918.061 3.346 4.431 8.567 10.01 12.293 4.618 3.084 12.441 2.808 12.441 10.05 0 4.277-3.77 7.745-8.419 7.745-2.905 0-5.468-1.355-6.981-3.415-6.877-9.367-8.769-21.263-25.704-18.735-7.02 1.047-14.01 1.924-20.987 2.708-3.95.444-6.704-.099-7.282-2.559-.368-1.569-1.307-2.918-2.918-2.918-1.612 0-3.048 1.312-2.919 2.918.441 5.472 3.339 9.941 11.142 10.879 6.208.747 12.471.971 18.717 1.244 3.22.141 5.837 2.614 5.837 5.837 0 3.223-2.638 6.228-5.837 5.837-8.6-1.051-17.06-4.145-25.634-7.908-7.627-3.346-9.94-9.02-9.838-15.89.024-1.611-1.307-2.918-2.918-2.918-1.612 0-2.844 1.309-2.919 2.918-.412 8.872 2.644 17.945 11.899 22.675 11.958 6.112 31.751 12.776 45.975 17.638 7.75 2.649 16.383 4.642 22.05 10.982 12.445 13.911 11.857 38.719-17.491 36.04v93.89h146.99v-95.4z" fill="none" stroke="#000" stroke-width="1.134" stroke-miterlimit="10"/><path d="m281.02 299.54c11.288-3.03 22.545-6.151 33.812-9.284.04.807.055 2.103-.128 3.313-.036.241-.08.477-.133.704-.16.688-.402 1.303-.764 1.716l-.025.028-.025.028-.002.037c-.041.654-.07 1.343-.118 1.976-.096 1.269-.276 2.409-.803 2.998-.058.065-.122.124-.19.175l-.039.03-.003.049c-.025.344-.039.693-.052 1.034-.044 1.13-.085 2.173-.55 2.97l-.015.025v.029l.029 4.03c-6.01-.837-13.692-2.703-21.708-5.78-1.565-.601-3.149-1.251-4.739-1.95-1.519-.668-3.037-1.377-4.547-2.131" fill="url(#K)"/><g fill="#fff"><path d="m345.97 257.63c-3.494-1.459-6.991-2.778-10.494-3.931-2.447-.805-4.897-1.53-7.35-2.166 2.445-1.47 5.091-2.886 7.76-3.956 2.722-1.091 5.467-1.821 8.05-1.88.139.937.02 1.45-.173 2.276-.036.156-.075.323-.118.518l-.006.025.007.024c.021.083.04.164.056.242.149.736.146 1.556.143 2.375 0 .184-.0001.37 0 .553v.037l.023.029c1.411 1.798 1.756 3.811 2.102 5.831l.004.022"/><path d="m309.06 248.52l-.298-.036c-3-.359-6-.719-8.629-1.442l-.009-.003h-.008l-.062-.007-.101-.001.364-.306c3.294-2.78 4.92-4.15 5.955-3.972.991.171 1.519 1.816 2.557 5.06l.23.716"/></g><path d="m338.88 284.27c3.076 1.631 10.339 5.656 14.11 5.258 2.428-.256 3.346-3.171 3.904-5.255-5.94-.445-12.534-.634-18.02-.003" fill="url(#J)"/><path d="m191.67 296.18l-.178.278c-.862 1.346-1.216 2.446-.987 3.353.23.913 1.044 1.619 2.515 2.169 8.193 3.064 16.663 3.397 25.11 3.729l.8.031c4.937.196 9.879.179 14.822.054 4.945-.124 9.885-.357 14.819-.59l1.751-.08c5.693-.257 11.417-.516 17.04-1.979 16.838-4.378 33.575-9.03 50.34-13.692 15.12-4.048 36.3-9.224 47.911-1.663 6.509-.846 10.258-8.137 8.18-15.981-4.379-1.77-8.183-4.704-12.357-6.882-8.628-4.503-17.277-8.376-25.957-11.233-8.683-2.858-17.402-4.704-26.17-5.153l-.552-.066c-3-.359-6-.719-8.629-1.442l-.009-.003h-.008l-.062-.007c-.195-.022-.404-.043-.62-.063-.231-.022-.442-.041-.637-.056-.996-.081-2.031-.133-2.993-.163.187-.53.407-1.059.628-1.589.723-1.731 1.453-3.482 1.067-5.395l.05-.327c.306-1.999.613-3.998.268-5.364v-.0001c.031-.35.053-.685.065-1 .013-.322.017-.634.012-.932-.023-1.54-.277-2.75-.736-3.562l-.06-.107-.098.073-.002.002c-3.26 2.467-7.169 6.967-11.11 11.506-2.563 2.951-5.141 5.921-7.561 8.353l-.842.117c-10.356 1.433-20.18 2.793-28.95 5.205l-.006.002c-.594.164-1.167.325-1.718.482-.575.165-1.138.331-1.689.496-2.787.836-5.455 1.728-7.986 2.67.071-.313.123-.643.157-.984.033-.332.048-.677.046-1.029-.003-.353-.023-.717-.061-1.086l-.0001-.012c-.027-.401-.051-.799-.074-1.195-.117-1.979-.235-3.958-.753-5.547l-.02-.059c-.004-.337-.006-.675-.007-1.012-.005-1.683-.011-3.368-.405-4.864l-.029-.106-.011-.243c-.065-1.447-.13-2.895-.621-3.933l-.022-.044-.038-.078-.084.02c-5.839 1.392-7.624 10.697-9.426 20.1-.38 1.983-.761 3.973-1.181 5.889l-.022-.036h-.002c-.368.213-.745.436-1.125.668-.377.229-.753.464-1.12.7-1.841 1.182-3.578 2.464-4.785 3.658-1.484.242-2.959.729-4.436 1.573-5.362 3.061-10.184 6.342-14.291 10-4.111 3.663-7.508 7.708-10.02 12.296-.431.788-.529 1.544-.401 2.193.101.516.346.967.678 1.317.332.35.754.6 1.208.713.443.111.92.094 1.378-.083" fill="url(#I)"/><path d="m365.61 287.79c.424.251.839.512 1.244.782 2.842 1.894 5.233 4.22 7.341 6.607 1.379 1.561 2.67 3.133 3.938 4.677 5.696 6.936 10.934 13.315 21.513 15.536l.107.023.021-.108c.197-1.01.26-2.01.239-3.02-.021-.999-.126-1.996-.267-2.992.437-1.605.04-2.991-.358-4.375-.077-.269-.155-.539-.224-.803.142-.782.092-1.604-.099-2.45-.19-.842-.519-1.712-.936-2.598.046-.865-.054-1.731-.238-2.594-.183-.862-.452-1.726-.741-2.588-.003-.972-.105-1.944-.262-2.915-.154-.95-.361-1.894-.58-2.836.591-.254 1.135-.459 1.641-.651 1.493-.563 2.669-1.01 4.128-2.362.927.657 2.591-.046 4.233-.739.879-.371 1.753-.74 2.485-.888l.033-.007.023-.024c.617-.625 1.452-.775 2.335-.933.768-.137 1.572-.281 2.323-.742.504.0001.983-.081 1.432-.246.459-.168.889-.424 1.289-.766l.067-.057-.043-.077c-2.746-4.888-6.601-7.738-11.169-9.27-4.56-1.529-9.829-1.746-15.415-1.372-2.172.145-4.317.54-6.456.933-3.08.566-6.149 1.13-9.266.94l-.159-.063c2.078 7.844-1.67 15.13-8.18 15.981" fill="url(#H)"/><path d="m196.68 292.5c2.196-3.373 3.976-5.302 5.497-8.581 1.317-2.839-1.922-3.956-2.95-1.743-2.249 4.841-4.662 9.691-7.643 14.346-1.69 2.64-1.397 4.289 1.475 5.363 8.435 3.155 17.17 3.409 25.877 3.754 9.87.391 19.759-.068 29.631-.536 6.263-.297 12.58-.446 18.771-2.056 18.71-4.865 37.28-10.07 55.911-15.24 5.38-1.495 10.931-2.642 16.23-3.277m17.35-.072c7.865 1.327 13.224 5.87 17.453 10.656 7.555 8.552 12.496 17.471 25.392 20.18.391-2 .253-4-.032-6 .526-1.903-.148-3.505-.583-5.168.289-1.549-.197-3.255-1.034-5.03.098-1.729-.398-3.457-.978-5.186-.004-1.944-.404-3.888-.86-5.833 2.441-1.06 3.897-1.215 5.888-3.091 1.319 1.093 4.567-1.159 6.704-1.591 1.188-1.203 3.094-.7 4.705-1.707 1.01.001 1.899-.318 2.681-.985-5.464-9.725-15.333-11.334-26.483-10.587-5.308.355-10.453 2.199-15.752 1.872-4.03-1.586-8.357-4.772-12.543-6.956-17.243-9-34.57-15.477-52.08-16.374-3.188-.383-6.399-.742-9.199-1.512-1.448-.162-3.099-.257-4.547-.297m-17.03 1.634c-10.732 1.487-20.914 2.855-29.964 5.344-4.121 1.134-8.01 2.379-11.604 3.727m-12.319 5.688c-2.664 1.54-5.466 3.436-7.138 5.136m12.696 29.08c1.806-1.913 3.344-3.794 4.148-6.835 1.446-2.072 2.761-6.05 2.02-8.853-1.927-7.276-4.69-11.937-10.458-13.01-4.436-.828-8.573-1.298-12.738 1.08-10.711 6.116-19.26 13.1-24.268 22.257-1.454 2.657 1 4.893 2.95 3.888" fill="none" stroke="#000" stroke-width="1.134" stroke-miterlimit="10"/><g fill-rule="evenodd"><path d="m213.7 302.33c1.17 0 2.118-.949 2.118-2.118 0-1.17-.948-2.118-2.118-2.118-1.17 0-2.118.949-2.118 2.118 0 1.17.948 2.118 2.118 2.118"/><path d="m219.87 291.92c1.17 0 2.118-.949 2.118-2.118 0-1.17-.948-2.118-2.118-2.118-1.17 0-2.118.949-2.118 2.118 0 1.17.948 2.118 2.118 2.118"/><path d="m228.58 294.58c1.17 0 2.118-.949 2.118-2.118 0-1.17-.948-2.118-2.118-2.118-1.17 0-2.118.949-2.118 2.118 0 1.17.948 2.118 2.118 2.118"/><path d="m217.39 283.69c1.07 0 1.937-.867 1.937-1.937 0-1.07-.867-1.937-1.937-1.937-1.07 0-1.937.867-1.937 1.937 0 1.07.867 1.937 1.937 1.937"/><path d="m243.84 277.39c1.17 0 2.118-.949 2.118-2.118 0-1.17-.948-2.118-2.118-2.118-1.17 0-2.118.949-2.118 2.118 0 1.17.948 2.118 2.118 2.118"/><path d="m269.98 271.95c1.17 0 2.118-.949 2.118-2.118 0-1.17-.949-2.118-2.118-2.118-1.17 0-2.118.949-2.118 2.118 0 1.17.949 2.118 2.118 2.118"/><path d="m273.85 300.75c1.17 0 2.118-.949 2.118-2.118 0-1.17-.948-2.118-2.118-2.118-1.17 0-2.118.949-2.118 2.118 0 1.17.948 2.118 2.118 2.118"/><path d="m250.01 304.99c1.17 0 2.118-.949 2.118-2.118 0-1.17-.948-2.118-2.118-2.118-1.17 0-2.118.949-2.118 2.118 0 1.17.948 2.118 2.118 2.118"/><path d="m256.24 271.58c1.07 0 1.937-.867 1.937-1.937 0-1.07-.867-1.937-1.937-1.937-1.07 0-1.937.867-1.937 1.937 0 1.07.867 1.937 1.937 1.937"/><path d="m288.08 267.47c1.07 0 1.937-.867 1.937-1.937 0-1.07-.867-1.937-1.937-1.937-1.07 0-1.937.867-1.937 1.937 0 1.07.867 1.937 1.937 1.937"/><path d="m318.09 266.26c1.07 0 1.937-.867 1.937-1.937 0-1.07-.867-1.937-1.937-1.937-1.07 0-1.937.867-1.937 1.937 0 1.07.867 1.937 1.937 1.937"/><path d="m334.55 267.47c1.07 0 1.937-.867 1.937-1.937 0-1.07-.867-1.937-1.937-1.937-1.07 0-1.937.867-1.937 1.937 0 1.07.867 1.937 1.937 1.937"/><path d="m281.66 292.28c1.671 0 3.03-1.355 3.03-3.03 0-1.671-1.355-3.03-3.03-3.03-1.671 0-3.03 1.355-3.03 3.03 0 1.671 1.355 3.03 3.03 3.03"/><path d="m267.5 285.38c1.671 0 3.03-1.355 3.03-3.03 0-1.671-1.355-3.03-3.03-3.03-1.671 0-3.03 1.355-3.03 3.03 0 1.671 1.355 3.03 3.03 3.03"/><path d="m295.58 281.87c1.671 0 3.03-1.355 3.03-3.03 0-1.671-1.355-3.03-3.03-3.03-1.671 0-3.03 1.355-3.03 3.03 0 1.671 1.355 3.03 3.03 3.03"/><path d="m313.25 286.25c1.598 0 2.894-1.296 2.894-2.894 0-1.598-1.296-2.894-2.894-2.894-1.598 0-2.894 1.296-2.894 2.894 0 1.598 1.296 2.894 2.894 2.894"/><path d="m323.24 276.53c1.671 0 3.03-1.355 3.03-3.03 0-1.671-1.355-3.03-3.03-3.03-1.671 0-3.03 1.355-3.03 3.03 0 1.671 1.355 3.03 3.03 3.03"/><path d="m261.21 299.94c1.671 0 3.03-1.355 3.03-3.03 0-1.671-1.355-3.03-3.03-3.03-1.671 0-3.03 1.355-3.03 3.03 0 1.671 1.355 3.03 3.03 3.03"/><path d="m246.43 299.94c1.671 0 3.03-1.355 3.03-3.03 0-1.671-1.355-3.03-3.03-3.03-1.671 0-3.03 1.355-3.03 3.03 0 1.671 1.355 3.03 3.03 3.03"/><path d="m242.69 289.79c1.17 0 2.118-.949 2.118-2.118 0-1.17-.948-2.118-2.118-2.118-1.17 0-2.118.949-2.118 2.118 0 1.17.948 2.118 2.118 2.118"/><path d="m255.15 283.76c1.17 0 2.118-.949 2.118-2.118 0-1.17-.949-2.118-2.118-2.118-1.17 0-2.118.949-2.118 2.118 0 1.17.948 2.118 2.118 2.118"/><path d="m310.1 275.64c1.17 0 2.118-.949 2.118-2.118 0-1.17-.949-2.118-2.118-2.118-1.17 0-2.118.949-2.118 2.118 0 1.17.949 2.118 2.118 2.118"/><path d="m370.06 281.26c1.17 0 2.118-.948 2.118-2.118 0-1.17-.949-2.118-2.118-2.118-1.17 0-2.118.949-2.118 2.118 0 1.17.949 2.118 2.118 2.118"/><path d="m353.63 275.64c1.17 0 2.118-.949 2.118-2.118 0-1.17-.949-2.118-2.118-2.118-1.17 0-2.118.949-2.118 2.118 0 1.17.949 2.118 2.118 2.118"/><path d="m361.53 273.35c1.07 0 1.937-.867 1.937-1.937 0-1.07-.867-1.937-1.937-1.937-1.07 0-1.937.867-1.937 1.937 0 1.07.867 1.937 1.937 1.937"/><path d="m351.75 283.19c1.17 0 2.118-.949 2.118-2.118 0-1.17-.949-2.118-2.118-2.118-1.17 0-2.118.949-2.118 2.118 0 1.17.949 2.118 2.118 2.118"/><path d="m328.56 285.47c1.17 0 2.118-.949 2.118-2.118 0-1.17-.949-2.118-2.118-2.118-1.17 0-2.118.949-2.118 2.118 0 1.17.949 2.118 2.118 2.118"/><path d="m339.79 280.35c1.598 0 2.894-1.296 2.894-2.894 0-1.598-1.296-2.894-2.894-2.894-1.598 0-2.894 1.296-2.894 2.894 0 1.598 1.296 2.894 2.894 2.894"/><path d="m301.94 267.87c.954 0 1.727-.773 1.727-1.727 0-.954-.773-1.727-1.727-1.727-.954 0-1.727.773-1.727 1.727 0 .954.773 1.727 1.727 1.727"/><path d="m233.01 304.37c1.17 0 2.118-.948 2.118-2.118 0-1.17-.948-2.118-2.118-2.118-1.17 0-2.118.949-2.118 2.118 0 1.17.948 2.118 2.118 2.118"/><path d="m222.15 301.45c1.408 0 2.55-1.142 2.55-2.55 0-1.408-1.142-2.55-2.55-2.55-1.408 0-2.55 1.142-2.55 2.55 0 1.408 1.142 2.55 2.55 2.55"/><path d="m227.51 287.1c1.408 0 2.55-1.142 2.55-2.55 0-1.408-1.142-2.55-2.55-2.55-1.408 0-2.55 1.142-2.55 2.55 0 1.408 1.142 2.55 2.55 2.55"/><path d="m254.86 291.79c1.408 0 2.55-1.142 2.55-2.55 0-1.408-1.142-2.55-2.55-2.55-1.408 0-2.55 1.142-2.55 2.55 0 1.408 1.142 2.55 2.55 2.55"/><path d="m281.55 279.46c1.408 0 2.55-1.142 2.55-2.55 0-1.408-1.142-2.55-2.55-2.55-1.408 0-2.55 1.142-2.55 2.55 0 1.408 1.142 2.55 2.55 2.55"/><path d="m297.1 294.21c1.408 0 2.55-1.142 2.55-2.55 0-1.408-1.142-2.55-2.55-2.55-1.408 0-2.55 1.142-2.55 2.55 0 1.408 1.142 2.55 2.55 2.55"/><path d="m361.19 284.69c1.408 0 2.55-1.142 2.55-2.55 0-1.408-1.142-2.55-2.55-2.55-1.408 0-2.55 1.142-2.55 2.55 0 1.408 1.142 2.55 2.55 2.55"/></g><g stroke="#000" stroke-width="1.134" stroke-miterlimit="10"><g fill="none"><path d="m210.49 274.81c3.671-1.732 8.477-1.944 14.749 1.865 2.399 1.457 4.895 3.502 7.106 5.899 2.595 2.813 2.458 5.654 1.929 8.241m-32.23-7.705c1.561.208 3.01.044 4.683-.623 1.224-.487 2.787-.708 3.725.299 1.05 1.128 1.989 1.767 3.44 2 1.625.264 1.903 1.61 1.816 3.522"/><path d="m224.03 266.08c2.93-11.387 3.589-26.965 11.209-28.782.53 1.081.573 2.649.643 4.189.507 1.815.414 3.929.44 5.982.643 1.905.685 4.408.848 6.792.274 2.62-.352 4.875-1.877 5.919-2.145 2.279-4.426 4.83-6.571 7.109m54.04-16.445c4.353-4.645 7.868-3.471 12.893-3.99.784-2.309 2.26-4.57 1.74-7.097.322-2.11.685-4.262.318-5.683.221-2.466-.016-4.347-.642-5.455-5.707 4.318-13.424 14.904-19.807 20.969m61.63 34.68c3.076 1.631 10.339 5.656 14.11 5.258 2.428-.256 3.346-3.171 3.904-5.255-5.94-.445-12.534-.634-18.02-.003zm-11.06-32.679c5.04-3.056 10.964-5.918 16.208-6.01.195 1.205-.014 1.722-.279 2.927.25.974.195 2.1.202 3.196 1.561 1.989 1.831 4.226 2.222 6.448m-65.43 41.36c11.313 5.683 22.988 8.85 31.377 10-.001-1.386-.021-2.772-.03-4.156.619-1.062.506-2.517.616-4.05 1.029-.776 1.021-3.107 1.154-5.229 1.15-1.265 1.15-4.409 1.076-5.871m-87.15-31.911c2.332-6.629 4.305-14.278 8.08-16.825m-6.06 16.825c1.998-3.929 4.335-8.502 6.501-10.488m-5.696 13.304c2.191-3.375 4.381-6.109 6.57-7.911m150.97 19.978c9.45-1.296 18.12.863 25.545 8.595m-32.11-6.718c9.887.017 19.596 1.63 27.22 8.243m-27.08-4.623c7.143.816 13.422 1.496 20.339 6.394m-17.926-3.042c4.279 1.519 8.551 3.094 12.603 6.436m-12.335-2.816c4.199 3.03 8.398 6.554 12.598 8.292m-12.732-3.465c4.525 3.423 8.989 7.388 13.755 8.645m-14.693-4.22c5.202 3.924 10.366 8.286 15.801 9.4m-22.907-11.143c7.522 7.812 15.03 15.737 23.464 16.224m-114.26-64.1c4.089-4.505 7.93-8.75 12.358-11.389m-9.252 11.531c2.934-2.346 5.866-5 8.801-6.075m38.539 12.1c2.592-1.336 5.441-2.654 8.03-3.074m-4.237 5.05c1.451-.874 2.637-1.44 4.204-1.743m-30.16 44.43c-3.524.304-7.05.345-10.57 0m9.632 5.282c-5.241-.434-10.373-1.489-15.397-3m-2.279 2.548c5.109 3.214 10.576 3.935 16.858 4.477m-2.645-56.5c-2.61-8.06-2.119-8.135-9.777-1.685m66.28 40.497c6.58-1.077 9.846-8.163 8.095-15.764"/></g><path d="m205.77 300.15c2.874 0 5.205-2.331 5.205-5.205 0-2.874-2.331-5.205-5.205-5.205-2.874 0-5.205 2.331-5.205 5.205 0 2.874 2.331 5.205 5.205 5.205z" fill="#fff" fill-rule="evenodd"/></g><path d="m205.28 297.61c1.471 0 2.663-1.192 2.663-2.663 0-1.471-1.192-2.663-2.663-2.663-1.471 0-2.663 1.192-2.663 2.663 0 .578.185 1.114.498 1.55l1.352-.36-.002 1.346c.257.082.53.126.814.126" fill-rule="evenodd"/><path d="m233.62 502.25c4.696-3.629 18.45.092 12.496 11.805-4.787 9.416-12.601 16.12-19.498 20.723-15.816 18.523-43.945 9.994-27.796-16.827 7.01-11.645 17.804-17.989 34.799-15.701" fill="url(#G)"/><path d="m233.62 502.25c4.696-3.629 18.45.092 12.496 11.805-4.787 9.416-12.601 16.12-19.498 20.723-15.816 18.523-43.945 9.994-27.796-16.827 7.01-11.645 17.804-17.989 34.799-15.701z" fill="none" stroke="#000" stroke-width="1.134" stroke-miterlimit="10"/><path d="m263.51 545.54c3.531-5.867 11.465-16.5 8.656-23.482-2.934-7.296-17.07-7.698-19.521 3.94-.962 4.57-2.03 10.05-3.649 15.02-7.997 8.49-12.594 17.275-15.06 26.441-2.035 7.565-6.363 31.692 3.418 35.995 8.69 3.821 22.08-16.764 26.03-22.566 8.537-12.527 11.607-23.948.125-35.34" fill="url(#F)"/><path d="m263.51 545.54c3.531-5.867 11.465-16.5 8.656-23.482-2.934-7.296-17.07-7.698-19.521 3.94-.962 4.57-2.03 10.05-3.649 15.02-7.997 8.49-12.594 17.275-15.06 26.441-2.035 7.565-6.363 31.692 3.418 35.995 8.69 3.821 22.08-16.764 26.03-22.566 8.537-12.527 11.607-23.948.125-35.34z" fill="none" stroke="#000" stroke-width="1.134" stroke-miterlimit="10"/><path d="m314.6 538.14c-3.616-6.841-6.567-14.14-7.529-20.445-1.749-11.466 11.329-14.425 21.539-6.788 12.06 9.02 15.683 25.14 17.556 41.24 9.47 1.664 22.2 12.598 20.805 23.254-2.679 20.45-26.1 6.413-34.18-1.354-9.192-8.841-15.377-20.69-18.19-35.907" fill="url(#E)"/><path d="m314.6 538.14c-3.616-6.841-6.567-14.14-7.529-20.445-1.749-11.466 11.329-14.425 21.539-6.788 12.06 9.02 15.683 25.14 17.556 41.24 9.47 1.664 22.2 12.598 20.805 23.254-2.679 20.45-26.1 6.413-34.18-1.354-9.192-8.841-15.377-20.69-18.19-35.907z" fill="none" stroke="#000" stroke-width="1.134" stroke-miterlimit="10"/><path d="m365.11 532.41c-8.456-5.499-15.14-11.822-19.808-19.09-3.345-5.214-8.305-14.78-3.503-20.568 5.498-6.625 16.364 1.181 16.997 6.12 14.06 1.666 31.565 3.758 42.814 47.2-1.986 3.972-3.973 7.945-5.958 11.917-16.886-2.714-25.577-12.53-30.543-25.574" fill="url(#D)"/><path d="m365.11 532.41c-8.456-5.499-15.14-11.822-19.808-19.09-3.345-5.214-8.305-14.78-3.503-20.568 5.498-6.625 16.364 1.181 16.997 6.12 14.06 1.666 31.565 3.758 42.814 47.2-1.986 3.972-3.973 7.945-5.958 11.917-16.886-2.714-25.577-12.53-30.543-25.574z" fill="none" stroke="#000" stroke-width="1.134" stroke-miterlimit="10"/><path d="m180.17 564.31c1.474-1.474 3.368-2.527 5.684-3.158l-5.684 3.158" fill="url(#C)"/><path d="m180.17 564.31c1.474-1.474 3.368-2.527 5.684-3.158l-5.684 3.158z" fill="none" stroke="#000" stroke-width="1.134" stroke-miterlimit="10"/><path d="m225.17 535.73c-2.789-4.474-9.765-4.833-9.473-.158.235 3.766-1.157 4.746-4.579 2.21-6.246-4.629-10.658-2.474-12.789 2.369-9.579-3.186-17.847.48-24.473 8.21-1.793 2.092-1.787 4.92-.789 7.263.804 1.887.499 3.567-.158 5.368-1.292 3.543-1.546 7.151 3.631 8.684 1.878.556 3.269 1.261 3.947 3.158 1.11 3.103 3.764 3.35 8.368 1.737 27.12-9.503 39.39-22.1 36.31-38.841" fill="url(#B)"/><g fill="none" stroke="#000" stroke-width="1.134" stroke-miterlimit="10"><path d="m225.17 535.73c-2.789-4.474-9.765-4.833-9.473-.158.235 3.766-1.157 4.746-4.579 2.21-6.246-4.629-10.658-2.474-12.789 2.369-9.579-3.186-17.847.48-24.473 8.21-1.793 2.092-1.787 4.92-.789 7.263.804 1.887.499 3.567-.158 5.368-1.292 3.543-1.546 7.151 3.631 8.684 1.878.556 3.269 1.261 3.947 3.158 1.11 3.103 3.764 3.35 8.368 1.737 27.12-9.503 39.39-22.1 36.31-38.841z"/><path d="m180.17 564.31c1.474-1.474 3.368-2.527 5.684-3.158"/></g><path d="m233.91 468.49c-4.838-.036-8.08-4.434-12.95-6.06-6.148-2.048-13.01-3.204-11.464 2.07 1.065 3.629-2.061 6.661-8.566.921-4.704-4.151-11.08-6.513-18-5.01-3.186.693-3.869 2.725-1.917 5.397 1.871 2.562-1.671 5.969-5.851 2.508-5.363-4.439-11.769-3.683-17.299-1.484-2.504.996-3.41 2.812-2.53 5.749.66 2.2-.975 4.425-3.876 4.743-3.789.415-5.03 4.214-3.047 7.403 1.536 2.468-.289 4.762-.92 7.099-2.502 9.26 3.617 12.687 6.227 13.956 3.059 1.486 2.483 8.04 6.816 9.737 5.787 2.271 11.802 2.678 17.1.603 4.429-1.732 6.991-7.771 9.08-13.404.742-2 1.756-6.842 4.479-6.325 1.6.304 2.419 1.953 2.563 3.49.252 2.688 2.01 3.926 4.632 2.984 4.611-1.659 9.428-9.244 10.849-14.15.573-1.978 1.52-3.167 2.533-3.564 1.302-.51 2.712.29 3.573 2.407 1.34 3.298 5.497 3.383 9.401.074 3.957-3.354 6.883-4.864 13.775-9.83 6.705-4.831 2.02-9.273-4.608-9.321" fill="url(#A)"/><g fill="none" stroke="#000" stroke-width="1.134" stroke-miterlimit="10"><path d="m233.91 468.49c-4.838-.036-8.08-4.434-12.95-6.06-6.148-2.048-13.01-3.204-11.464 2.07 1.065 3.629-2.061 6.661-8.566.921-4.704-4.151-11.08-6.513-18-5.01-3.186.693-3.869 2.725-1.917 5.397 1.871 2.562-1.671 5.969-5.851 2.508-5.363-4.439-11.769-3.683-17.299-1.484-2.504.996-3.41 2.812-2.53 5.749.66 2.2-.975 4.425-3.876 4.743-3.789.415-5.03 4.214-3.047 7.403 1.536 2.468-.289 4.762-.92 7.099-2.502 9.26 3.617 12.687 6.227 13.956 3.059 1.486 2.483 8.04 6.816 9.737 5.787 2.271 11.802 2.678 17.1.603 4.429-1.732 6.991-7.771 9.08-13.404.742-2 1.756-6.842 4.479-6.325 1.6.304 2.419 1.953 2.563 3.49.252 2.688 2.01 3.926 4.632 2.984 4.611-1.659 9.428-9.244 10.849-14.15.573-1.978 1.52-3.167 2.533-3.564 1.302-.51 2.712.29 3.573 2.407 1.34 3.298 5.497 3.383 9.401.074 3.957-3.354 6.883-4.864 13.775-9.83 6.705-4.831 2.02-9.273-4.608-9.321z"/><path d="m215.29 478.21c-24.47 3.03-46.36 9.06-59.965 19.02m61.48-31.854c1.086 3.9 5.448 10.923 11.172 13.416m-59.45-5.378c3.614 6.06 8.01 9.384 12.754 11.471-3.273 5.01-3.428 9.161-.466 12.466m12.815-29.378c1.98 4.911 5.058 9.113 9.872 11.758-2 4.318-2.588 8.92-1.757 13.806"/></g><path d="m235.87 476.05c-3.557 1.131-7.764.656-12.08-.353-9.614-2.249-19.281 1.231-16.688 9.62 1.027 3.322-.392 7.05-8.522 4.233-6.107-2.114-12.282-.381-18.1 4.225-2.58 2.041-2.73 4.065.102 5.617 2.834 1.554 1.919 5.978-3.614 5.134-8.567-1.308-11.93 2.689-16.265 7.136-1.963 2.01-1.451 5.15.634 7.418 1.562 1.699 1.443 3.887-1.252 5.347-3.797 2.058-3.463 7.318.063 9.325 2.565 1.46.901 5.04 1.291 7.443 1.546 9.497 10.482 9.332 15.12 8.722 3.516-.463 2.718 1.67 3.142 3.099.892 3.01 5.242 1.125 5.487-1.624.443-4.973 3.481-2.783 4.625-.136.546 1.265 1.785 1.622 3.514 1.251 1.728-.37 3.689-1.385 4.902-2.616 3.483-3.535 2.833-9.381 2.431-15.409-.143-2.142-1.231-6.975 1.582-7.716 1.653-.435 3 1.187 3.56 2.628.898 2.321 4.793 3.02 6.888 1.01 3.689-3.55 6.469-12.842 5.78-18.355-.288-2.307.588-5.48 1.384-6.289 1.023-1.039 2.707-.942 4.426.593 2.677 2.39 6.673 1.469 8.987-3.261 2.346-4.795 2.01-10.05 8.526-15.924 5.511-4.967-.547-12.821-5.912-11.12" fill="url(#9)"/><g fill="none" stroke="#000" stroke-width="1.134" stroke-miterlimit="10"><path d="m235.87 476.05c-3.557 1.131-7.764.656-12.08-.353-9.614-2.249-19.281 1.231-16.688 9.62 1.027 3.322-.392 7.05-8.522 4.233-6.107-2.114-12.282-.381-18.1 4.225-2.58 2.041-2.73 4.065.102 5.617 2.834 1.554 1.919 5.978-3.614 5.134-8.567-1.308-11.93 2.689-16.265 7.136-1.963 2.01-1.451 5.15.634 7.418 1.562 1.699 1.443 3.887-1.252 5.347-3.797 2.058-3.463 7.318.063 9.325 2.565 1.46.901 5.04 1.291 7.443 1.546 9.497 10.482 9.332 15.12 8.722 3.516-.463 2.718 1.67 3.142 3.099.892 3.01 5.242 1.125 5.487-1.624.443-4.973 3.481-2.783 4.625-.136.546 1.265 1.785 1.622 3.514 1.251 1.728-.37 3.689-1.385 4.902-2.616 3.483-3.535 2.833-9.381 2.431-15.409-.143-2.142-1.231-6.975 1.582-7.716 1.653-.435 3 1.187 3.56 2.628.898 2.321 4.793 3.02 6.888 1.01 3.689-3.55 6.469-12.842 5.78-18.355-.288-2.307.588-5.48 1.384-6.289 1.023-1.039 2.707-.942 4.426.593 2.677 2.39 6.673 1.469 8.987-3.261 2.346-4.795 2.01-10.05 8.526-15.924 5.511-4.967-.547-12.821-5.912-11.12z"/><path d="m242.14 478.07c-31.06 14.767-64.53 43.43-70.47 63.45m42.642-61.945c2.891 3.553 8.253 6.716 14.516 5.373-3.336 2.94-4.94 10.03-1.478 16.723m-58.11 10.144c3.76 4.966 14.16 5.757 21.17 2.716-2.09 7.078-1.792 19.926 2.334 25.636m-2.876-45.942c4.02 3.256 11.485 5.27 20.48 2.769-2.312 6.676-3.02 16.01.837 23.309"/></g><path d="m236.24 533.05c-1.731.581-3.568.92-5.257.4-4.227-1.301-7.661-.635-9.01 1.597-1.259 2.079-.494 4.02.541 5.794 1.427 2.448-.115 3.966-2.404 4.064-3.139.134-6.575-2.857-9.629-3.124-3.202-.281-5.962 1.385-9.144 3.895-1.953 1.541-1.703 3.621.348 4.819 1.966 1.148.871 4.774-2.896 3.773-3.926-1.044-8.355.852-11.734 4.779-1.359 1.579-1.904 2.972-.501 4.71 1.051 1.303.878 2.88-.988 4.067-2.436 1.55-2.288 4.442-.071 5.986 1.715 1.195.884 3.875 1.104 5.703.872 7.241 5.33 7.757 8.51 6.903 2.634-.707 3.169.802 3.835 1.656 1.412 1.811 3.966 2.915 4.609.823.684-2.225 3.963-.785 4.631.775 1.243 2.903 7.88-6.593 7.656-13.447-.053-1.632-.706-5.32 1.269-5.869 1.161-.323 2.428.92 2.949 1.935.911 1.776 2.44 2.045 3.942.521 2.646-2.684 5.193-11.124 4.796-14.991-.16-1.559.15-2.699.722-3.311.735-.787 1.906-.703 3.07.475 1.812 1.834 4.634.508 6.349-3.083 1.738-3.641 1.498-7.264 5.838-12.09 1.547-1.719.903-4.279-.47-6.123-2.694-3.619-4.785-1.74-8.06-.641" fill="url(#8)"/><g fill="none" stroke="#000" stroke-width="1.134" stroke-miterlimit="10"><path d="m236.24 533.05c-1.731.581-3.568.92-5.257.4-4.227-1.301-7.661-.635-9.01 1.597-1.259 2.079-.494 4.02.541 5.794 1.427 2.448-.115 3.966-2.404 4.064-3.139.134-6.575-2.857-9.629-3.124-3.202-.281-5.962 1.385-9.144 3.895-1.953 1.541-1.703 3.621.348 4.819 1.966 1.148.871 4.774-2.896 3.773-3.926-1.044-8.355.852-11.734 4.779-1.359 1.579-1.904 2.972-.501 4.71 1.051 1.303.878 2.88-.988 4.067-2.436 1.55-2.288 4.442-.071 5.986 1.715 1.195.884 3.875 1.104 5.703.872 7.241 5.33 7.757 8.51 6.903 2.634-.707 3.169.802 3.835 1.656 1.412 1.811 3.966 2.915 4.609.823.684-2.225 3.963-.785 4.631.775 1.243 2.903 7.88-6.593 7.656-13.447-.053-1.632-.706-5.32 1.269-5.869 1.161-.323 2.428.92 2.949 1.935.911 1.776 2.44 2.045 3.942.521 2.646-2.684 5.193-11.124 4.796-14.991-.16-1.559.15-2.699.722-3.311.735-.787 1.906-.703 3.07.475 1.812 1.834 4.634.508 6.349-3.083 1.738-3.641 1.498-7.264 5.838-12.09 1.547-1.719.903-4.279-.47-6.123-2.694-3.619-4.785-1.74-8.06-.641z"/><path d="m225.14 549.03c-13.982 9.598-24.651 19.59-30.446 31.465m31.35-43.819c2.273 2.442 7.189 5.139 11.529 5m-42.894 18.9c4.781 2.407 9.561 2.833 14.342 1.279-1.048 4.935.083 8.286 3.393 10.05m-3.02-25c2.357 2.482 8.729 4.804 14.07 3.261-1.379 3.887-1.642 8.02.545 12.699"/></g><path d="m241.7 536.7c-2.094 1.949-4.929 4.734-8.03 5.874-6.569 2.418-12.364 6.996-9.27 11.357 1.552 2.188 4.04 5.406-3.03 5.77-5.71.295-8.703 3.904-11.308 9.03-1.199 2.36-.353 3.793 2.195 3.874 2.443.077 3.171 4.178-.962 5.119-4.305.981-7.534 4.596-9.03 9.823-.602 2.101-.071 3.758 2.092 4.647 1.621.667 2.173 2.184.898 4.179-1.666 2.604-.207 5.5 2.661 5.814 2.219.244 2.643 2.742 3.694 4.294 4.163 6.148 8.746 4.426 11.455 2.088 2.244-1.936 3.456-.829 4.497-.38 2.206.951 4.358-.972 4.03-3.189-.351-2.357 1.579-2.875 2.945-1.786 1.649 1.314 3.376-1.141 4.224-3.689 1.216-3.658.178-6.513-2.07-10.61-.799-1.456-3.122-4.484-1.448-5.953.984-.864 2.788-.357 3.76.309 1.701 1.165 3.314.659 4.081-1.464 1.352-3.737-.027-12.652-2.183-15.968-.87-1.337-1.089-2.524-.811-3.361.357-1.076 1.536-1.575 3.21-1.077 2.606.775 4.75-1.815 4.779-5.918.029-4.159-1.61-7.588.819-13.95 1.685-4.413-4.419-7.412-7.195-4.829" fill="url(#7)"/><g fill="none" stroke="#000" stroke-width="1.134" stroke-miterlimit="10"><path d="m241.7 536.7c-2.094 1.949-4.929 4.734-8.03 5.874-6.569 2.418-12.364 6.996-9.27 11.357 1.552 2.188 4.04 5.406-3.03 5.77-5.71.295-8.703 3.904-11.308 9.03-1.199 2.36-.353 3.793 2.195 3.874 2.443.077 3.171 4.178-.962 5.119-4.305.981-7.534 4.596-9.03 9.823-.602 2.101-.071 3.758 2.092 4.647 1.621.667 2.173 2.184.898 4.179-1.666 2.604-.207 5.5 2.661 5.814 2.219.244 2.643 2.742 3.694 4.294 4.163 6.148 8.746 4.426 11.455 2.088 2.244-1.936 3.456-.829 4.497-.38 2.206.951 4.358-.972 4.03-3.189-.351-2.357 1.579-2.875 2.945-1.786 1.649 1.314 3.376-1.141 4.224-3.689 1.216-3.658.178-6.513-2.07-10.61-.799-1.456-3.122-4.484-1.448-5.953.984-.864 2.788-.357 3.76.309 1.701 1.165 3.314.659 4.081-1.464 1.352-3.737-.027-12.652-2.183-15.968-.87-1.337-1.089-2.524-.811-3.361.357-1.076 1.536-1.575 3.21-1.077 2.606.775 4.75-1.815 4.779-5.918.029-4.159-1.61-7.588.819-13.95 1.685-4.413-4.419-7.412-7.195-4.829z"/><path d="m246.62 536.34c-15.547 22.578-27.605 49.28-27.9 67.839m9.764-53.799c3.564.477 7.685-.388 11.09-3.444-.004 4.049 1.568 8.609 3.969 11.361m-34.427 29.735c5.061.352 9.97-1.792 14.219-6.216 2.29 5.691 5.02 11.626 9.73 14.324m-17.608-26.529c4.313.257 10.178-1.519 15.345-6.555 1.189 6.334 3.453 11.499 8.108 14.772"/></g><path d="m280.44 532.6c-4.819 6.279-12.09 6.303-17.08 12.891-2.48 3.273-3.09 6.528.873 8.05 4.645 1.789 5.211 9.402-4.174 9.144-8.305-.229-10.505 5.588-13.254 13.152-1.265 3.482.186 5.685 3.606 5.392 3.279-.282 4.756 4.508-.123 7.67-5.467 3.543-10.161 7.202-11.506 13.84-.609 3.01.414 4.958 3.437 5.854 2.265.672 3.222 2.701 1.801 5.687-1.855 3.899-.11 6.824 3.771 6.806 3-.014 4.706 2.768 6.203 4.88 4.095 5.776 10.892 4.228 12.807 1.811 1.695-2.14 5.763-.619 7.219-.159 3.088.976 5.691-2.051 4.931-5.091-.809-3.233 4.395-8.09 6.379-6.785 2.395 1.571 4.353-2.129 5.121-5.821 1.101-5.298-1.359-9.935-4.955-15.295-1.278-1.905-4.822-5.757-2.793-8.08 1.192-1.362 3.079-1.171 4.476-.397 2.444 1.354 4.528.392 5.25-2.692 1.271-5.431-2.402-14.58-5.764-18.864-1.356-1.727-1.82-3.348-1.568-4.56.323-1.558 1.829-2.442 4.14-2.01 3.599.667 6.095-3.289 5.543-9.02-.559-5.808-3.435-2.406-1.334-11.733 1.634-7.255-10.604-7.807-13.01-4.678" fill="url(#6)"/><g fill="none" stroke="#000" stroke-width="1.134" stroke-miterlimit="10"><path d="m280.44 532.6c-4.819 6.279-12.09 6.303-17.08 12.891-2.48 3.273-3.09 6.528.873 8.05 4.645 1.789 5.211 9.402-4.174 9.144-8.305-.229-10.505 5.588-13.254 13.152-1.265 3.482.186 5.685 3.606 5.392 3.279-.282 4.756 4.508-.123 7.67-5.467 3.543-10.161 7.202-11.506 13.84-.609 3.01.414 4.958 3.437 5.854 2.265.672 3.222 2.701 1.801 5.687-1.855 3.899-.11 6.824 3.771 6.806 3-.014 4.706 2.768 6.203 4.88 4.095 5.776 10.892 4.228 12.807 1.811 1.695-2.14 5.763-.619 7.219-.159 3.088.976 5.691-2.051 4.931-5.091-.809-3.233 4.395-8.09 6.379-6.785 2.395 1.571 4.353-2.129 5.121-5.821 1.101-5.298-1.359-9.935-4.955-15.295-1.278-1.905-4.822-5.757-2.793-8.08 1.192-1.362 3.079-1.171 4.476-.397 2.444 1.354 4.528.392 5.25-2.692 1.271-5.431-2.402-14.58-5.764-18.864-1.356-1.727-1.82-3.348-1.568-4.56.323-1.558 1.829-2.442 4.14-2.01 3.599.667 6.095-3.289 5.543-9.02-.559-5.808-3.435-2.406-1.334-11.733 1.634-7.255-10.604-7.807-13.01-4.678z"/><path d="m278.39 555.86c-9.431 9.853-15.174 40.476-15.89 65.773m4.254-74.39c1.899 2.36 6.299 3.366 15.417.312m-36.16 55.05c7.337-1.605 13.771-6.818 19.795-13.672 1.364 9.819 6.623 16.13 14.548 20.05m-27.674-34.09c6.747 1.102 13.329 1.053 18.758-7.07.163 6.814 3.035 10.919 7.136 13.796"/></g><path d="m286.39 536.42c-.663 3.842-2.532 6.499-4.638 10.528-3.584 6.854-10.779 16.433-4.01 19.03 3.394 1.301 6.495 2.531 1.113 10.529-3.77 5.604-6.152 11.563-5.448 19.29.325 3.558 2.35 4.537 5.367 2.717 2.893-1.746 6.142 1.626 3.01 6.567-3.51 5.536-6.55 9.287-4.951 15.577.724 2.849 2.497 4.047 5.656 3.427 2.368-.466 4.113.83 4.083 4.03-.039 4.183 3.736 6.616 7.294 4.819 2.753-1.39 4.92.841 7.259 1.826 5.393 2.273 10.284-1.816 11.611-5.34 1.306-3.467 3.01-3.606 4.543-3.881 3.252-.582 6.428-3.587 5.642-7.132-.692-3.122.865-7.275 3.244-7.07 2.87.244 3.09-3.818 2.219-7.324-1.25-5.03-5.49-7.868-11.08-10.799-1.987-1.042-6.888-2.708-6.01-5.62.514-1.711 2.328-2.414 3.942-2.393 2.823.036 4.327-1.743 3.673-4.709-1.151-5.224-6.395-12.264-11.312-14.383-1.982-.854-3.101-2.027-3.387-3.177-.369-1.479.637-2.927 2.943-3.621 3.59-1.081 4.194-5.607 1.242-10.251-2.993-4.707-7.56-4.66-9.162-13.687-1.296-7.298-11.874-4.514-12.834 1.049" fill="url(#5)"/><g fill="none" stroke="#000" stroke-width="1.134" stroke-miterlimit="10"><path d="m286.39 536.42c-.663 3.842-2.532 6.499-4.638 10.528-3.584 6.854-10.779 16.433-4.01 19.03 3.394 1.301 6.495 2.531 1.113 10.529-3.77 5.604-6.152 11.563-5.448 19.29.325 3.558 2.35 4.537 5.367 2.717 2.893-1.746 6.142 1.626 3.01 6.567-3.51 5.536-6.55 9.287-4.951 15.577.724 2.849 2.497 4.047 5.656 3.427 2.368-.466 4.113.83 4.083 4.03-.039 4.183 3.736 6.616 7.294 4.819 2.753-1.39 4.92.841 7.259 1.826 5.393 2.273 10.284-1.816 11.611-5.34 1.306-3.467 3.01-3.606 4.543-3.881 3.252-.582 6.428-3.587 5.642-7.132-.692-3.122.865-7.275 3.244-7.07 2.87.244 3.09-3.818 2.219-7.324-1.25-5.03-5.49-7.868-11.08-10.799-1.987-1.042-6.888-2.708-6.01-5.62.514-1.711 2.328-2.414 3.942-2.393 2.823.036 4.327-1.743 3.673-4.709-1.151-5.224-6.395-12.264-11.312-14.383-1.982-.854-3.101-2.027-3.387-3.177-.369-1.479.637-2.927 2.943-3.621 3.59-1.081 4.194-5.607 1.242-10.251-2.993-4.707-7.56-4.66-9.162-13.687-1.296-7.298-11.874-4.514-12.834 1.049z"/><path d="m293.41 531.04c-3.406 30.88.976 64.16 12.947 97.16m-25.681-71.03c4.555-1.373 8.507-5.46 11.855-12.261 2.662 3.963 5.815 7.436 9.684 10.194m-17.925 61.26c7.256-2.284 12.06-7.755 13.285-17.88 3.973 3.488 10.568 11.62 22.366 8.745m-40.07-19.01c7.211-2.692 11.1-8.701 13.486-16.218 5.45 5.488 11.276 9.279 17.933 9.336"/></g><path d="m353.72 531.23c2.499 1.191 4.917 3.193 9.102 1.929 4.287-1.294 10.209-.48 11.577 1.781 1.274 2.105.562 3.295-.548 5.05-2.24 3.542.393 4.713 3.298 3.511 2.365-.978 3.445-2.964 4.749-3.446 2.87-1.061 4.953.754 10.952 5.486 1.977 1.559 1.725 3.667-.352 4.88-1.991 1.162-.882 4.836 2.933 3.821 3.976-1.057 8.298.863 11.721 4.84 1.376 1.599 1.602 3.338.181 5.098-1.065 1.319-.889 2.917 1 4.119 2.467 1.57 2.807 4.172.562 5.736-1.736 1.211-1.223 3.904-1.118 5.776.342 6.107-4.446 6.902-8.619 6.992-2.73.059-3.21.811-3.885 1.677-1.43 1.834-5.813 2.952-6.464.833-.244-.795-11.163 2.956-10.648-12.835.054-1.653.715-5.388-1.285-5.944-1.175-.327-2.459.932-2.987 1.96-.923 1.798-2.471 2.071-3.992.527-2.68-2.719-5.259-11.266-4.858-15.182.162-1.579-.151-2.734-.731-3.353-.744-.797-1.93-.713-3.109.48-1.835 1.858-4.693.514-6.43-3.122-1.76-3.687-1.279-7.04-5.691-11.907-3.191-3.518 1.392-10.254 4.638-8.708" fill="url(#4)"/><g fill="none" stroke="#000" stroke-width="1.134" stroke-miterlimit="10"><path d="m353.72 531.23c2.499 1.191 4.917 3.193 9.102 1.929 4.287-1.294 10.209-.48 11.577 1.781 1.274 2.105.562 3.295-.548 5.05-2.24 3.542.393 4.713 3.298 3.511 2.365-.978 3.445-2.964 4.749-3.446 2.87-1.061 4.953.754 10.952 5.486 1.977 1.559 1.725 3.667-.352 4.88-1.991 1.162-.882 4.836 2.933 3.821 3.976-1.057 8.298.863 11.721 4.84 1.376 1.599 1.602 3.338.181 5.098-1.065 1.319-.889 2.917 1 4.119 2.467 1.57 2.807 4.172.562 5.736-1.736 1.211-1.223 3.904-1.118 5.776.342 6.107-4.446 6.902-8.619 6.992-2.73.059-3.21.811-3.885 1.677-1.43 1.834-5.813 2.952-6.464.833-.244-.795-11.163 2.956-10.648-12.835.054-1.653.715-5.388-1.285-5.944-1.175-.327-2.459.932-2.987 1.96-.923 1.798-2.471 2.071-3.992.527-2.68-2.719-5.259-11.266-4.858-15.182.162-1.579-.151-2.734-.731-3.353-.744-.797-1.93-.713-3.109.48-1.835 1.858-4.693.514-6.43-3.122-1.76-3.687-1.279-7.04-5.691-11.907-3.191-3.518 1.392-10.254 4.638-8.708z"/><path d="m368.74 548.93c13.736 7.623 23.579 18.846 31.653 31.705m-29.792-42.09c-3.402 4.305-6.805 6.211-10.207 7.03m42.627 16.69c-4.951 3.605-9.902 2.996-14.852 1.785 1 4.838 1.057 9.268-.987 12.799m1.594-29.25c-4.205 3.504-8.409 6.352-12.613 5.919.742 5.078.667 9.475-1.204 12.372"/></g><path d="m353.4 534.58c2.046 2.033 4.816 7.259 7.843 8.449 6.419 2.522 12.08 4.975 9.06 9.523-1.516 2.282-3.95 5.638 2.962 6.02 5.579.307 8.504 4.072 11.05 9.416 1.172 2.46.344 4.826-2.145 4.475-2.368-.334-3.098 3.922.939 4.903 4.207 1.023 7.361 4.794 8.825 10.246.589 2.192.19 4.372-2.044 4.847-2.358.502-2.898 2.084-.877 4.359 2.068 2.326.181 6.562-2.6 6.06-2.654-.475-1.881 1.9-2.739 3.898-2.602 6.06-9.355 4.883-11.338 2.033-1.666-2.396-4.103.006-5.12.474-2.154.992-5.274-1.305-4.951-3.616.343-2.458-3.285-2.853-4.62-1.718-1.61 1.37-2.863-1.046-3.692-3.703-1.188-3.815.406-5.777 2.603-10.05.78-1.518 3.051-4.677 1.415-6.209-.961-.9-2.724-.372-3.674.322-1.662 1.215-3.238.687-3.988-1.526-1.321-3.898 2.493-13.777 4.6-17.236.964-1.582.675-3.584.355-4.169-.705-1.288-3.235.371-4.731.846-2.546.809-4.642-1.892-4.67-6.172-.029-4.339 3.097-9.917.723-16.553-1.588-4.439 4.275-7.442 6.813-4.921" fill="url(#3)"/><g fill="none" stroke="#000" stroke-width="1.134" stroke-miterlimit="10"><path d="m353.4 534.58c2.046 2.033 4.816 7.259 7.843 8.449 6.419 2.522 12.08 4.975 9.06 9.523-1.516 2.282-3.95 5.638 2.962 6.02 5.579.307 8.504 4.072 11.05 9.416 1.172 2.46.344 4.826-2.145 4.475-2.368-.334-3.098 3.922.939 4.903 4.207 1.023 7.361 4.794 8.825 10.246.589 2.192.19 4.372-2.044 4.847-2.358.502-2.898 2.084-.877 4.359 2.068 2.326.181 6.562-2.6 6.06-2.654-.475-1.881 1.9-2.739 3.898-2.602 6.06-9.355 4.883-11.338 2.033-1.666-2.396-4.103.006-5.12.474-2.154.992-5.274-1.305-4.951-3.616.343-2.458-3.285-2.853-4.62-1.718-1.61 1.37-2.863-1.046-3.692-3.703-1.188-3.815.406-5.777 2.603-10.05.78-1.518 3.051-4.677 1.415-6.209-.961-.9-2.724-.372-3.674.322-1.662 1.215-3.238.687-3.988-1.526-1.321-3.898 2.493-13.777 4.6-17.236.964-1.582.675-3.584.355-4.169-.705-1.288-3.235.371-4.731.846-2.546.809-4.642-1.892-4.67-6.172-.029-4.339 3.097-9.917.723-16.553-1.588-4.439 4.275-7.442 6.813-4.921z"/><path d="m348.8 534.13c7.177 20.955 24.713 29.501 28.357 70.972m-11.137-57.13c-3.773.255-9.541-.937-12.865-3.737.73 3.618.355 9.97-1.555 12.866m34.8 31.01c-4.074.513-10.03-1.87-13.458-5.758-.206 6.37-2.292 12.996-7.475 16.391m14.447-31.01c-4.504.704-10.815-.278-15.864-5.821 1.161 6.171-.907 11.849-5.455 14.972"/></g><path d="m298.94 536.03c.359 3.797.092 7.699-.462 12.11-.942 7.503-4.263 18.734 2.82 18.8 3.553.033 6.814.101 4.615 9.266-1.54 6.421-1.688 12.694 1.596 19.531 1.512 3.148 3.702 3.354 5.844.656 2.054-2.587 6.182-.607 5 4.988-1.325 6.271-2.041 11.893 1.572 17.11 1.637 2.363 3.67 2.855 6.352 1.207 2.01-1.234 4.051-.643 5.117 2.302 1.393 3.846 4.893 3.636 7.538.775 2.048-2.213 4.793-.883 7.273-.806 9.825.307 11.406-8.685 11.701-13.45.224-3.616 1.524-4.331 2.836-5.107 2.781-1.645 2.497-5.484-.1-6.862-2.762-1.466-1.747-3.963.501-4.59 2.713-.757 1.527-4.552-.468-7.467-2.864-4.184-7.716-5.333-13.839-6.109-2.176-.276-7.234-.129-7.428-3.095-.114-1.743 1.309-3.01 2.794-3.538 2.598-.931 3.369-3.074 1.757-5.569-2.838-4.393-11.602-7.527-16.829-7.788-2.108-.106-3.533-.797-4.188-1.754-.843-1.23-.416-2.899 1.46-4.322 2.92-2.216 1.928-6.569-2.362-9.815-4.349-3.29-9.573-4.046-14.299-11.663-.973-1.567-1.867-2.433-2.786-2.681-3.329-.9-6.261 5.282-6.02 7.872" fill="url(#2)"/><g fill="none" stroke="#000" stroke-width="1.134" stroke-miterlimit="10"><path d="m298.94 536.03c.359 3.797.092 7.699-.462 12.11-.942 7.503-4.263 18.734 2.82 18.8 3.553.033 6.814.101 4.615 9.266-1.54 6.421-1.688 12.694 1.596 19.531 1.512 3.148 3.702 3.354 5.844.656 2.054-2.587 6.182-.607 5 4.988-1.325 6.271-2.041 11.893 1.572 17.11 1.637 2.363 3.67 2.855 6.352 1.207 2.01-1.234 4.051-.643 5.117 2.302 1.393 3.846 4.893 3.636 7.538.775 2.048-2.213 4.793-.883 7.273-.806 9.825.307 11.406-8.685 11.701-13.45.224-3.616 1.524-4.331 2.836-5.107 2.781-1.645 2.497-5.484-.1-6.862-2.762-1.466-1.747-3.963.501-4.59 2.713-.757 1.527-4.552-.468-7.467-2.864-4.184-7.716-5.333-13.839-6.109-2.176-.276-7.234-.129-7.428-3.095-.114-1.743 1.309-3.01 2.794-3.538 2.598-.931 3.369-3.074 1.757-5.569-2.838-4.393-11.602-7.527-16.829-7.788-2.108-.106-3.533-.797-4.188-1.754-.843-1.23-.416-2.899 1.46-4.322 2.92-2.216 1.928-6.569-2.362-9.815-4.349-3.29-9.573-4.046-14.299-11.663-.973-1.567-1.867-2.433-2.786-2.681-3.329-.9-6.261 5.282-6.02 7.872z"/><path d="m301.24 530.38c10.409 34.2 27.458 66.846 48.3 82.08m-47.552-51.895c2.932-3.821 4.337-9 4.215-15.544 4.602 2.242 9.204 3.74 13.807 3.602m7.6 62.968c2.445-6.706 2.643-14.474 1.355-21.52 7.31 1.588 15 1.646 22.312-.845m-40.39.651c3.805-4.073 5.436-12.03 4.829-22.261 7.911 2.817 16.25 3.424 23.398.547"/></g><path d="m358.29 469.9c4.706-.751 7.785-4.517 12.522-6.308 5.977-2.259 14.292-3.422 12.95 1.903-.923 3.663 2.857 7 8.455.395 5.402-6.374 9.533-6.663 16.389-5.399 3.156.582 5.04 3.278 3.215 6.02-1.753 2.624 1.847 5.219 5.839 1.617 5.123-4.622 9.845-4.317 15.358-2.309 2.497.909 3.908 2.693 3.142 5.657-.574 2.222.651 4.39 3.515 4.607 3.74.284 4.403 4.727 2.56 7.981-1.426 2.519.446 5.437 1.146 7.751 2.775 9.168-2.655 13.829-6.775 15.379-3.125 1.176-2.048 3.969-2.396 5.411-.738 3.058-4.191 3.816-6.067 1.74-1.995-2.208-5.31-1.961-5.289.322.026 2.756-3.618 2.654-6.693 1.555-4.414-1.579-8.06-7.983-10.301-13.541-.797-1.975-1.959-6.777-4.619-6.166-1.563.358-2.313 2.035-2.402 3.576-.157 2.695-1.847 3.993-4.454 3.142-4.591-1.499-9.586-8.913-11.15-13.765-.631-1.957-1.603-3.113-2.613-3.475-1.297-.465-2.657.384-3.432 2.53-1.206 3.341-5.291 3.571-9.243.398-4.01-3.216-6-6.552-13.915-8.966-5.124-1.565-4.444-7.02-1.73-8.895 1.628-1.122 4.343-.892 5.986-1.154" fill="url(#1)"/><g fill="none" stroke="#000" stroke-width="1.134" stroke-miterlimit="10"><path d="m358.29 469.9c4.706-.751 7.785-4.517 12.522-6.308 5.977-2.259 14.292-3.422 12.95 1.903-.923 3.663 2.857 7 8.455.395 5.402-6.374 9.533-6.663 16.389-5.399 3.156.582 5.04 3.278 3.215 6.02-1.753 2.624 1.847 5.219 5.839 1.617 5.123-4.622 9.845-4.317 15.358-2.309 2.497.909 3.908 2.693 3.142 5.657-.574 2.222.651 4.39 3.515 4.607 3.74.284 4.403 4.727 2.56 7.981-1.426 2.519.446 5.437 1.146 7.751 2.775 9.168-2.655 13.829-6.775 15.379-3.125 1.176-2.048 3.969-2.396 5.411-.738 3.058-4.191 3.816-6.067 1.74-1.995-2.208-5.31-1.961-5.289.322.026 2.756-3.618 2.654-6.693 1.555-4.414-1.579-8.06-7.983-10.301-13.541-.797-1.975-1.959-6.777-4.619-6.166-1.563.358-2.313 2.035-2.402 3.576-.157 2.695-1.847 3.993-4.454 3.142-4.591-1.499-9.586-8.913-11.15-13.765-.631-1.957-1.603-3.113-2.613-3.475-1.297-.465-2.657.384-3.432 2.53-1.206 3.341-5.291 3.571-9.243.398-4.01-3.216-6-6.552-13.915-8.966-5.124-1.565-4.444-7.02-1.73-8.895 1.628-1.122 4.343-.892 5.986-1.154z"/><path d="m358.21 476.92c25.15-2.598 55.54 6.804 78.8 21.249m-62-31.777c-.988 3.986-3.505 7.36-7.55 10.123 3.067 2.42 2.874 4.84 3.334 7.26m55.642-8.954c-4.587 8.423-10.548 10.471-15.822 10.529 6.509 5.503 7.757 12.67 7.532 20.469m-14.06-37.861c-2.491 5.521-6.512 9.705-13.896 10.945 3.873 3.58 5.061 9.307 5.866 15.343"/></g><path d="m370.59 479.73c4.365-.627 8.673-2.682 12-1.902 3.743.877 4.851 4.272 3.367 7.76-1.207 2.836 1.2 8.516 8.322 2.298 4.755-4.151 11.996 1.465 17.681 5.963 2.519 1.993 2.951 4.484-.099 5.282-6.428 1.68-2.128 6.727 3.53 5.625 8.307-1.617 11.652 2.218 15.885 6.562 1.917 1.967 1.416 5.03-.62 7.244-1.525 1.66-1.409 3.796 1.223 5.223 3.708 2.01 3.382 7.148-.062 9.107-2.505 1.426-.88 4.928-1.261 7.269-1.227 7.536-7.218 9.455-11.849 8.749-3.587-.548-3.642-.205-5.465 2.732-.519.837-1.321 1.534-2.902 1.579-1.379.039-4.062-2.926-6.593-2.883-1.266.021-2.494.796-3.503 1.543-2.541 1.883-3.87 1.285-5.878-1.594-2.235-3.202-3.253-8.73-2.721-16.681.14-2.091 1.202-5.384-1.545-6.107-1.614-.425-3.342.343-3.885 1.749-.876 2.267-3.661 2.34-5.706.373-3.602-3.466-7.338-12.95-6.665-18.335.281-2.253-.574-5.352-1.352-6.141-1-1.016-3.403-1.475-4.322.579-1.593 3.559-6.926 4.291-9.186-2.981-1.547-4.978 2.649-10.336-6.49-16.572-3.219-2.196-2.995-5.857-1.016-7.859 1.539-1.558 4.306-1.786 6.286-1.653 3.89.262 7.999 3.766 12.827 3.073" fill="url(#0)"/><g fill="none" stroke="#000" stroke-width="1.134" stroke-miterlimit="10"><path d="m370.59 479.73c4.365-.627 8.673-2.682 12-1.902 3.743.877 4.851 4.272 3.367 7.76-1.207 2.836 1.2 8.516 8.322 2.298 4.755-4.151 11.996 1.465 17.681 5.963 2.519 1.993 2.951 4.484-.099 5.282-6.428 1.68-2.128 6.727 3.53 5.625 8.307-1.617 11.652 2.218 15.885 6.562 1.917 1.967 1.416 5.03-.62 7.244-1.525 1.66-1.409 3.796 1.223 5.223 3.708 2.01 3.382 7.148-.062 9.107-2.505 1.426-.88 4.928-1.261 7.269-1.227 7.536-7.218 9.455-11.849 8.749-3.587-.548-3.642-.205-5.465 2.732-.519.837-1.321 1.534-2.902 1.579-1.379.039-4.062-2.926-6.593-2.883-1.266.021-2.494.796-3.503 1.543-2.541 1.883-3.87 1.285-5.878-1.594-2.235-3.202-3.253-8.73-2.721-16.681.14-2.091 1.202-5.384-1.545-6.107-1.614-.425-3.342.343-3.885 1.749-.876 2.267-3.661 2.34-5.706.373-3.602-3.466-7.338-12.95-6.665-18.335.281-2.253-.574-5.352-1.352-6.141-1-1.016-3.403-1.475-4.322.579-1.593 3.559-6.926 4.291-9.186-2.981-1.547-4.978 2.649-10.336-6.49-16.572-3.219-2.196-2.995-5.857-1.016-7.859 1.539-1.558 4.306-1.786 6.286-1.653 3.89.262 7.999 3.766 12.827 3.073z"/><path d="m351.32 478.62c32.23 14.847 53.55 37.852 69.845 61.64m2.168-28.398c-5.05 6.753-15.278 5.997-22.11 3.265 3.39 9.196 3.788 19.583-1.259 24.833m1.584-43.848c-7.143 5.086-14.287 3.811-21.43-.358 3.605 8.404 4.217 16.809 1.836 25.21"/></g></g></g></svg>