<svg xmlns="http://www.w3.org/2000/svg" xmlns:xlink="http://www.w3.org/1999/xlink" viewBox="0 0 300 387"><defs><linearGradient id="K" gradientUnits="userSpaceOnUse" gradientTransform="matrix(-17.09 43.2134-29.938-11.83989 357.27 458.66)" x1=".21" x2=".79" xlink:href="#9"/><linearGradient id="D" gradientUnits="userSpaceOnUse" gradientTransform="matrix(-75.227-1.13123 2.46397-163.8538 394.6 556.29)" x1=".05" x2=".95"><stop stop-color="#ffcf00"/><stop offset=".54" stop-color="#ff0"/><stop offset="1" stop-color="#fb0"/></linearGradient><linearGradient id="B" gradientUnits="userSpaceOnUse" gradientTransform="matrix(-20.31364 0 0-9.48019 350.15 547.28)" x1="0" x2="1" xlink:href="#9"/><linearGradient id="C" gradientUnits="userSpaceOnUse" gradientTransform="matrix(-56.94537 9.0595-24.62617-154.7931 417.7 534.45)" x1=".3" x2=".7"><stop stop-color="#ffcf00"/><stop offset="1" stop-color="#ff0"/></linearGradient><linearGradient id="Q" gradientUnits="userSpaceOnUse" gradientTransform="matrix(-13.91868 0 0-88.5033 246.45 543.55)" x1=".001" x2=".99" xlink:href="#P"/><linearGradient id="P" gradientUnits="userSpaceOnUse" gradientTransform="matrix(-10.28976 0 0-11.31477 244.61 497.23)" x1=".001" x2=".99"><stop stop-color="#ffcf00"/><stop offset=".17" stop-color="#fb0"/><stop offset=".33" stop-color="#ffcf00"/><stop offset=".64" stop-color="#ff0"/><stop offset="1" stop-color="#ffcf00"/></linearGradient><linearGradient id="L" gradientUnits="userSpaceOnUse" gradientTransform="matrix(-20.42237-.61267 1.13731-37.91022 340.45 496.44)" x1=".05" x2=".95"><stop stop-color="#ffcf00"/><stop offset=".65" stop-color="#ff0"/><stop offset="1" stop-color="#fb0"/></linearGradient><linearGradient id="N" gradientUnits="userSpaceOnUse" gradientTransform="matrix(-19.0511 0 0-19.47005 249.55 557.84)" x1=".08" x2=".92"><stop stop-color="#fb0"/><stop offset=".39" stop-color="#fd0"/><stop offset="1" stop-color="#ff0"/></linearGradient><linearGradient id="M" gradientUnits="userSpaceOnUse" gradientTransform="matrix(0-13.1233 35.45631 0 311.08 483.83)" x1="0" x2="1"><stop stop-color="#fb0"/><stop offset=".47" stop-color="#ff0"/><stop offset="1" stop-color="#fb0"/></linearGradient><linearGradient id="A" gradientUnits="userSpaceOnUse" gradientTransform="matrix(-29.72182.01428-.00504-10.48989 287.28 439.21)" x1=".06" x2=".94" xlink:href="#9"/><linearGradient id="9" gradientUnits="userSpaceOnUse" gradientTransform="matrix(-30.1924.0145-.00512-10.65515 221.97 362.95)" x1=".06" x2=".94"><stop stop-color="#fb0"/><stop offset="1" stop-color="#ff0"/></linearGradient><linearGradient id="V" gradientUnits="userSpaceOnUse" gradientTransform="matrix(-15.99817 0 0-14.20271 247.5 442.76)" x1=".001" x2=".99" xlink:href="#P"/><linearGradient id="X" gradientUnits="userSpaceOnUse" gradientTransform="matrix(29.3153 0 0 7.0078 192.64 359.3)" x1=".02" x2=".735" xlink:href="#9"/><linearGradient id="W" gradientUnits="userSpaceOnUse" gradientTransform="matrix(28.85783 0 0 6.89896 258.41 435.62)" x1=".02" x2=".747" xlink:href="#9"/><linearGradient id="U" gradientUnits="userSpaceOnUse" gradientTransform="matrix(-11.31364 0 0-23.29002 245.13 430.74)" x1=".001" x2=".99" xlink:href="#P"/><linearGradient id="8" gradientUnits="userSpaceOnUse" gradientTransform="matrix(86.4075 93.6949-93.3653 86.1035 242.81 381.38)" x1=".02" x2=".98"><stop stop-color="#fb0"/><stop offset=".26" stop-color="#ff0"/><stop offset=".5" stop-color="#fb0"/><stop offset=".74" stop-color="#ff0"/><stop offset="1" stop-color="#fb0"/></linearGradient><linearGradient id="T" gradientUnits="userSpaceOnUse" gradientTransform="matrix(-10.0414 0 0-17.63603 244.48 436.02)" x1=".001" x2=".99" xlink:href="#P"/><linearGradient id="7" gradientUnits="userSpaceOnUse" gradientTransform="matrix(222.3184 0 0 233.9609 186.73 200.75)" x1="0" x2="1"><stop stop-color="#ededed"/><stop offset=".49" stop-color="#fff"/><stop offset="1" stop-color="#ededed"/></linearGradient><linearGradient id="R" gradientUnits="userSpaceOnUse" gradientTransform="matrix(-6.55087 0 0-10.33569 242.72 447.66)" x1=".001" x2=".99" xlink:href="#P"/><linearGradient id="S" gradientUnits="userSpaceOnUse" gradientTransform="matrix(-13.19641 0 0-83.96561 242.88 492.12)" x1=".001" x2=".99" xlink:href="#P"/><radialGradient xlink:href="#0" id="O" gradientUnits="userSpaceOnUse" cx="238.69" cy="546.81" r="6.254"/><radialGradient xlink:href="#3" id="H" gradientUnits="userSpaceOnUse" cx="333.73" cy="534.53" r="3.413"/><radialGradient id="4" gradientUnits="userSpaceOnUse" r="3.413" cy="530.28" cx="364.36" xlink:href="#0"/><radialGradient xlink:href="#1" id="J" gradientUnits="userSpaceOnUse" cx="380.44" cy="496.92" r="3.413"/><radialGradient id="3" gradientUnits="userSpaceOnUse" r="3.413" cy="534.53" cx="333.73" xlink:href="#0"/><radialGradient id="1" gradientUnits="userSpaceOnUse" r="3.413" cy="496.92" cx="380.44" xlink:href="#0"/><radialGradient id="2" gradientUnits="userSpaceOnUse" r="3.413" cy="463.55" cx="379.83" xlink:href="#0"/><radialGradient id="5" gradientUnits="userSpaceOnUse" r="3.413" cy="433.83" cx="366.18" xlink:href="#0"/><radialGradient xlink:href="#2" id="I" gradientUnits="userSpaceOnUse" cx="379.83" cy="463.55" r="3.413"/><radialGradient id="6" gradientUnits="userSpaceOnUse" r="3.413" cy="403.8" cx="361.33" xlink:href="#0"/><radialGradient id="0" gradientUnits="userSpaceOnUse" r="6.254" cy="546.81" cx="238.69"><stop stop-color="#ff0"/><stop offset="1" stop-color="#fb0"/></radialGradient><radialGradient xlink:href="#5" id="F" gradientUnits="userSpaceOnUse" cx="366.18" cy="433.83" r="3.413"/><radialGradient xlink:href="#6" id="E" gradientUnits="userSpaceOnUse" cx="361.33" cy="403.8" r="3.413"/><radialGradient xlink:href="#4" id="G" gradientUnits="userSpaceOnUse" cx="364.36" cy="530.28" r="3.413"/></defs><g transform="translate(-88.35-511.93)"><path d="m310.11 697.45c2.935 0 5.315 2.38 5.315 5.315v5.314c0 2.935-2.38 5.315-5.315 5.315h-5.315v-15.944zm0 21.259c5.87 0 10.63-4.76 10.63-10.63v-5.314c0-5.87-4.76-10.63-10.63-10.63h-10.63v26.574zm-21.26-26.574h5.315v26.574h-5.315zm-10.63 0h5.315v26.574h-5.315l-10.63-16.684v16.684h-5.315v-26.574h5.315l10.63 16.684zm-79.72 0h15.945v5.315h-10.63v5.315h10.63v5.315h-10.63v5.315h10.63v5.315h-15.945zm-21.26-.0001h5.315v21.26h10.63v5.315h-15.945zm55.809 21.26h5.314c4.402 0 7.972-3.57 7.972-7.972 0-4.402-3.636-7.957-7.972-7.972h-5.314v5.315h5.314c1.467 0 2.657 1.19 2.657 2.657 0 1.467-1.19 2.657-2.657 2.657h-5.314zm5.314-26.575c10.272 0 18.602 8.33 18.602 18.602 0 10.272-8.33 18.602-18.602 18.602-10.272 0-18.602-8.33-18.602-18.602 0-10.272 8.33-18.602 18.602-18.602m-13.287 18.602c0 7.337 5.95 13.287 13.287 13.287 7.337 0 13.287-5.95 13.287-13.287 0-7.337-5.95-13.287-13.287-13.287-7.337 0-13.287 5.95-13.287 13.287" fill="#a90000"/><g fill-rule="evenodd" stroke="#000"><g stroke-miterlimit="10"><g stroke-width=".9"><path d="m238.35 512.73h.358 148.84v320.15c0 4.558-.942 8.894-2.635 12.825h-146.5-.059v-332.98z" fill="#3b87cc"/><path d="m89.16 512.73h149.2v332.98h-146.56c-1.694-3.931-2.634-8.267-2.634-12.825v-320.15z" fill="#de212b"/></g><path d="m297.33 275.79c-7.396 13.908-21.954 24.677-38.701 24.677h-48.697c-11.198 0-20.601 7.762-23.2 18.238l110.86 116.01 110.86-116.01c-2.601-10.476-12-18.239-23.2-18.239h-48.698c-16.747 0-31.31-10.769-38.701-24.677h-.518z" fill="url(#7)" stroke-width=".673" transform="matrix(1.33721 0 0-1.33743-159.59 1266.97)"/></g><path d="m206.31 426.99c-3.244-3.583-7.229-3.338-8.927-.745-2.531 3.866-.643 10.448 4.799 10.735-.902-2.104.648-4.599 3.033-4.599 1.822 0 3.241 1.479 3.299 3.3.05 1.543-.083 3.081-.574 4.621l59.6 65.55c1.426-.303 2.818-.283 4.199-.1 1.629.216 2.829 1.623 2.665 3.258-.214 2.141-2.593 3.308-4.401 2.31-.231 4.91 5.508 7.197 9.205 5.272 2.887-1.503 1.665-5.68.405-7.864-1.164-2.02-2.779-3.833-4.332-5.548l-68.97-76.19z" fill="url(#8)" stroke-width=".673" transform="matrix(1.33721 0 0-1.33743-159.59 1266.97)" stroke-miterlimit="4"/></g><path d="m175.54 772.92c.036-.135.072-.264.106-.386.028-.1.053-.187.085-.311l.003-.009c.088-.338.15-.68.185-1.021.035-.342.043-.687.024-1.031-.095-1.757-.896-3.462-2.412-4.629l-.218-.169.263-.083c.727-.23 1.48-.341 2.229-.341 1.534 0 3.053.461 4.306 1.294.805.535 1.502 1.221 2.022 2.037 2.029-.98 4.061-2.02 6.096-3.088 2.112-1.113 4.229-2.268 6.348-3.442 2.969-1.646 6.428-3.403 9.908-4.78 3.488-1.38 7-2.38 10.08-2.507 3.555-.147 7.123.179 10.701.744 3.578.565 7.159 1.368 10.748 2.175 3.535.795 7.163 1.516 10.873 2.108 3.617.576 7.32 1.031 11.1 1.314-.642-1.156-1.27-2.334-1.901-3.519-2.637-4.954-5.321-9.999-9.285-13.73-1.672-1.573-3.557-2.797-5.791-3.243-2.234-.445-4.825-.114-7.912 1.42-3.476 1.728-6.666 2.89-9.491 3.072-2.848.184-5.324-.624-7.348-2.842l-.267-.292.392.052.017.003c.497.066.998.106 1.499.117.503.011 1.01-.005 1.511-.052 2.588-.24 5.191-1.27 7.624-3.322 1.569-1.323 3.151-2.344 4.872-3.152 1.609-.756 3.339-1.326 5.291-1.784-1.678-.775-3.293-.962-4.906-.812-1.739.162-3.486.719-5.314 1.357l-.47.164.31-.39.034-.043c1.763-2.194 4.902-4.393 8.772-5.109 3.87-.716 8.472.047 13.159 3.775l.092.074c.587.472 1.131 1.025 1.612 1.624.967 1.204 1.683 2.598 1.989 3.902.311 1.324.201 2.562-.494 3.427-.097.121-.206.234-.327.34 1.295 2.712 2.703 5.459 4.206 8.198 1.522 2.773 3.146 5.545 4.852 8.273.576.92 1.162 1.835 1.756 2.744l.104.004.772.025.775.02c1.291.028 2.596.034 3.891.017 5.873-.08 11.679.68 17.429 2.179 5.744 1.498 11.434 3.733 17.08 6.603 1.98.63 5.667 1.886 9.319 4.051 3.668 2.175 7.303 5.269 9.148 9.571.464 1.083.807 2.165 1.028 3.229.576 2.773.326 5.422-.73 7.661-1.058 2.243-2.922 4.075-5.571 5.211-.857.368-1.799.663-2.821.876l-.011.002c-.915.19-1.869.314-2.849.381.852 1.566 1.899 2.959 3.189 4.079 1.338 1.162 2.939 2.035 4.853 2.509 1.649.409 2.665.986 3.365 1.895.696.903 1.07 2.125 1.445 3.831l.002.001c.187.85.403 1.689.648 2.516.245.827.519 1.644.823 2.449 1.558 4.139 3.886 7.98 6.961 11.497 1.229 1.405 1.378 2.547.806 3.605-.547 1.012-1.763 1.929-3.317 2.927.934 5.485-.491 8.208-3.137 9.493-2.635 1.279-6.468 1.108-10.374.836-1.726-.12-2.954-.452-3.685-.993-.292-.216-.507-.467-.642-.75-.136-.285-.193-.601-.169-.947.048-.688.417-1.502 1.106-2.434l.002-.004.004-.005c.206-.278.425-.56.654-.844.228-.282.47-.569.722-.857 1.273-1.454 2.769-2.882 4.13-3.87.309-.981.556-1.934.741-2.855.904-4.502.367-8.361-1.515-11.446-1.882-3.085-5.115-5.405-9.598-6.826-1.01-.319-2.075-.593-3.199-.819l-.027-.004c-.818-.164-1.597-.311-2.371-.458-3.091-.584-6.119-1.157-8.869-2.24-.132.691-.133 1.367-.015 2.052.141.815.45 1.649.905 2.547.579 1.145.53 2.078.015 2.906-.503.808-1.451 1.504-2.689 2.198-4.735 2.653-5.341 6.822-5.908 10.729l-.068.465c-.142.968-.37 1.711-.745 2.244-.384.546-.919.871-1.663.989-.656.104-1.305.263-1.954.421-.29.071-.581.142-.866.207.048 4.898-1.282 7.515-3.965 8.856-2.68 1.34-6.699 1.384-12.04 1.162-.602-.025-1.099-.145-1.489-.343-.473-.242-.789-.599-.943-1.045-.151-.439-.142-.96.032-1.534.205-.677.641-1.435 1.315-2.228 1.204-1.418 2.497-2.509 3.803-3.61.957-.807 1.921-1.623 2.857-2.57-.221-1.501.066-3.153.905-4.622.166-.291.355-.576.564-.849.209-.273.441-.538.695-.79l.012-.012c1.395-1.38 2.693-2.923 3.908-4.594 1.217-1.673 2.352-3.473 3.424-5.364.589-1.041.971-2.277.74-3.505-.044-.238-.112-.477-.205-.711-.093-.236-.213-.471-.36-.701l-.006-.001v-.002c-.779-1.209-1.424-2.555-1.963-4.02-.514-1.394-.932-2.897-1.277-4.486-.822.189-1.631.425-2.426.707-.706.25-1.402.537-2.083.86-.683.323-1.354.684-2.01 1.081l-.012.006c-1.592.961-3.113 1.962-4.612 2.95-1.877 1.236-3.724 2.452-5.614 3.528l-.118.067-.074-.113-1.808-2.772c-5.158 2.162-10.252 3.558-15.29 4.304-5.058.75-10.06.847-15.02.414-2.4 1.563-4.599 3.865-6.495 6.467-.403.552-.792 1.118-1.166 1.693-.37.568-.73 1.153-1.078 1.75l-.002.004c-.132.226-.264.441-.397.647 1.213.265 2.561.315 3.852.361 2.896.104 5.516.198 5.86 2.647.597-.182 1.194-.378 1.793-.588.501-.175.957-.184 1.344-.062.387.123.704.377.925.724.218.341.345.774.358 1.261.02.75-.228 1.638-.826 2.529-1.803 2.689-6.07 5.552-11.02 5.402-.964-.029-1.956-.173-2.96-.453-1-.28-2.02-.698-3.038-1.276h-.0001l-.005-.002c-1.069-.609-2.116-1.475-3.214-2.385-.453-.375-.916-.76-1.398-1.139-1.486 1.631-1.949 3.491-2.409 5.346-.142.571-.284 1.142-.451 1.697-1.272 4.208-4.199 6.366-7.703 7.367-3.482.994-7.532.843-11.09.432-1.017-.117-1.827-.375-2.381-.732-.39-.251-.657-.554-.784-.893-.13-.345-.116-.724.058-1.122.179-.41.531-.841 1.072-1.275.942-.756 2.242-1.751 3.736-2.875 1.483-1.115 3.179-2.373 4.913-3.655 1.952-1.443 3.928-2.928 5.487-4.392 1.334-1.253 2.364-2.49 2.81-3.671-1.581-.696-3.099-1.37-4.346-2.204h-.0001-.002c-2.024-1.355-1.713-4.22-.79-6.73.177-.482.377-.952.586-1.394.21-.443.43-.86.647-1.235h.0001l.0001-.003c1-1.731.974-4.749.221-7.251-.147-.489-.321-.958-.52-1.389-.174-.379-.367-.733-.578-1.052-.176.037-.352.071-.527.102-1.443.254-2.885.314-4.329.182.136.823.373 1.671.728 2.552.308.764.431 1.564.348 2.297-.063.555-.246 1.074-.556 1.512-.151.213-.331.406-.544.576-1.216 2.688-3.728 4.196-6.484 4.494-.537.058-1.084.07-1.631.036-.546-.034-1.094-.114-1.635-.24-.462.323-.962.452-1.468.445-.594-.009-1.196-.204-1.755-.486-1.013-.512-1.891-1.316-2.327-1.8l-.02-.023c-.124-.139-.239-.285-.345-.434-.107-.151-.206-.307-.296-.466-.459-.816-.713-1.759-.785-2.761-.069-.968-.127-1.59-.33-2.129-.203-.538-.557-1.012-1.221-1.693-.929-.953-1.857-1.935-2.784-2.967-.928-1.034-1.861-2.124-2.801-3.294-.555-.691-1.524-.822-2.539-.959-1.054-.142-2.155-.292-2.962-1.045-.93 2.452-2.561 3.9-4.63 4.138-.411.047-.84.046-1.283-.004-.441-.05-.898-.15-1.368-.301l-.006-.003c-.611-.197-1.052-.447-1.335-.736-.194-.198-.316-.413-.369-.643-.053-.23-.038-.472.042-.72.121-.373.389-.765.79-1.159 1.074-1.056 1.828-2.427 2.369-3.905.52-1.422.845-2.948 1.067-4.385-.103-.018-.205-.037-.306-.059-1.13-.256-2.153-.836-2.983-1.631-.829-.792-1.468-1.8-1.833-2.91-.37-1.126-.46-2.361-.183-3.588l.05-.221.179.138c2.992 2.306 5.157 1.686 8.07.838.264-1.466.703-2.752 1.382-3.684l.004-.006c.474-.65.965-1.291 1.472-1.915.507-.624 1.036-1.239 1.584-1.838 2.789-3.048 6.03-5.61 9.559-6.916" fill="#de212b" stroke="none"/><path d="m182.99 771.74c0 3.835-3.43 5.543-6.378 4.453-1.827-.676-1.025-2.835-.736-3.93.647-2.453-.094-5.177-2.252-6.84 4.237-1.344 9.366 1.491 9.366 6.317zm-21.34 15.662c-2.991.869-5.194 1.525-8.267-.843-1.046 4.628 3.246 9.367 8.05 7.787m30.848-19.963c-3.352 2.226-5.89 3.258-9.07 4.169 2.817 4.385 8.09 3.901 11.212.611 1.754-1.845 3.229-4.648 2.43-7.82-.436-1.731-1.898-2.08-3.135-1.28-4.338 2.806-8.216 4.498-11.893 4.886m4.752 6.395c1.4 1 1.945 1.556 4.738 4.159 4.814 4.487 5.272 9.761 2.689 15.324-1.603 3.451-2.307 6.691-.733 10.596.999 2.479.004 5.328-3.83 4.891-2.946-.336-4.595.408-5.542 2.282-1.837 3.633-5.403.663-6.438-.489-.863-.961-1.31-2.221-1.409-3.598-.14-1.962-.234-2.52-1.592-3.913-1.852-1.9-3.702-3.918-5.575-6.251-1.482-1.846-5.506.092-6.465-3.774-.981-3.954-2.043-13.224.623-16.888 3.356-4.612 7.717-8.861 12.625-10.652m7.253 46.868c3.823.897 7.965-.542 9.617-4.238m-33.821-21.11c-.446 2.998-1.323 6.413-3.505 8.558-1.25 1.228-1.141 2.386.815 3.02 3.289 1.06 5.922-.435 7.172-3.913m18.75-33.686c4.234-2.037 8.469-4.307 12.702-6.655 5.928-3.286 13.806-7.02 19.922-7.269 7.093-.294 14.233 1.3 21.412 2.915 7.08 1.591 14.517 2.884 22.278 3.446m4.14.228c1.847.068 3.739.093 5.612.067 11.72-.161 23.17 3.037 34.453 8.772 3.944 1.256 14.726 5.01 18.389 13.545 3.25 7.579.457 15.02-7.991 16.78-7.528 1.564-17.698-1.246-24.31-4.98-11.938-6.741-21.23-19.523-28.772-31.779-4.091-6.647-7.147-14.756-12.881-20.15-3.381-3.182-7.628-4.948-13.866-1.848-6.92 3.44-12.688 4.626-16.668.263 3.587.482 7.342-.403 10.762-3.287 3.119-2.63 6.287-4.055 10.5-4.996-3.675-1.875-7.02-.924-10.698.36 3.475-4.371 12.491-8.802 21.854-1.28 3.101 2.491 4.993 7.293 2.692 9.142 9.332 19.579 24.692 41.17 39.439 49.24 2.189 1.197 10.348 4.054 16.857 4.01 5.226-.035 9.388-1.942 8.545-8.08-.486-3.533-7.964-6.486-9.783-7.504m3.269 21.297c1.756 3.316 4.361 5.886 8.236 6.847 3.23.801 3.963 2.242 4.704 5.617 1.337 6.094 4.175 11.63 8.466 16.535 2.364 2.702.59 4.354-2.56 6.368 1.906 10.94-5.569 10.796-13.344 10.255-4.364-.303-5.456-1.957-3.28-4.899 1.455-1.968 3.621-4.207 5.515-5.571 3.7-11.676-1.327-19.694-13.667-22.17-7.623-1.532-15.211-2.18-19.519-9.682-2.252-3.922-4.946-7.276-7.745-10.258m-84.29 14.838c3.106.355 6.211-.191 9.318-1.638 3.103 4.595 6.208 8.203 10.625 6.223m-3.106-40.12c-3.08 15.612-3.03 29.31 3.923 38.812m1.144-13.756c.658 4.641 1.213 9.34-.981 13.429-1.748 3.259-4.339 5.848-6.388 8.891-1.809 2.689-3.538 5.6-4.237 8.795-.604 2.757-4.607 5.812-8.519 8.704-3.452 2.552-6.766 5.02-8.645 6.526-2.211 1.775-1.108 3.412 1.962 3.766 7.079.818 16.12.607 18.635-7.697.937-3.102.998-6.414 5.068-8.843 2.407-1.436 4.533-2.461 6.538-5.896 2.468-4.228 5.726-8.187 9.437-10.363 4.587-2.689 8.583-3.736 11.812-9.944m-12.423 10.317c9.931.874 20.04-.381 30.404-4.749l1.873 2.873c3.408-1.94 6.665-4.329 10.223-6.475 4.74-2.859 10.11-3.82 15.856-2.948m-9.154.164c.706 3.332 1.724 6.279 3.27 8.679 1.103 1.714.678 3.591-.164 5.077-2.15 3.793-4.552 7.218-7.356 9.99-1.787 1.766-2.455 4.148-2.125 6.223-2.235 2.278-4.608 3.759-6.702 6.223-2.218 2.61-1.795 4.798.981 4.913 10.645.442 15.995-.17 15.856-9.989.981-.218 1.95-.497 2.942-.655 1.408-.224 2.01-1.219 2.289-3.111.598-4.072 1.061-8.506 6.05-11.3 2.437-1.365 3.723-2.725 2.615-4.913-.923-1.823-1.254-3.385-.817-5.077m-94.97-2.456c1.8 2.566 2.402 7.532.981 9.989-1.54 2.661-3.201 7.354-.49 9.171 1.285.861 2.867 1.552 4.509 2.275m6.418 3.577c1.698 1.319 3.216 2.763 4.766 3.646 7.19 4.092 14.359.069 16.836-3.624 1.694-2.526.497-4.984-1.633-4.237-3.383 1.187-6.757 1.965-10.135 1.965m-1.634-4.422c3.978.955 9.481-.574 9.808 3.111m-31.822 11.171c-3.318 2.01-6.272 4.39-8.864 7.104m84.47-10.113c-2.687 1.94-5.29 5.16-6.631 7.894m55.736-7.255c-3.235 2.596-4.668 4.593-5.75 7.541m-127.47-39.12c.815 1.123.711 2.275-.578 2.788-1.368.545-1.461 3.02.946 2.735" fill="none" stroke="#000" stroke-width=".9" stroke-miterlimit="10"/><g stroke="none"><path d="m178.87 793.27c.182-1.62 1.801-2.362 2.713-3.517l.561.063.001.018c.633 1.318 2.032 2.407 1.851 4.01-.182 1.619-1.801 2.363-2.713 3.52l-.562-.06-.009-.018-.0001-.003c-.633-1.32-2.033-2.407-1.851-4.02"/><g fill-rule="evenodd"><path d="m168.41 803.92c-.406.501-1.026.822-1.721.822-1.067 0-1.958-.755-2.169-1.76 1.311.447 2.884.286 3.89.938"/><path d="m181.79 790.55c.454.365.746.925.746 1.552 0 1.097-.889 1.986-1.987 1.986-.377 0-.728-.107-1.028-.291.0001-.077.005-.154.014-.234.154-1.373 1.341-2.116 2.255-3.01" fill="#fff"/></g></g><g stroke-miterlimit="10"><g fill-rule="evenodd" stroke-width=".673"><path d="m192.65 362.95l.006.003c4.358 2.142 9.346 3.358 14.648 3.358 5.301 0 10.29-1.216 14.648-3.358l.006-.003c-4.359-2.144-9.35-3.363-14.654-3.363-5.303 0-10.294 1.218-14.653 3.362" fill="url(#X)" transform="matrix(1.33721 0 0-1.33743-159.59 1266.97)"/><path d="m221.96 362.94c-1.094-5.757-7.241-10.168-14.659-10.168-7.417 0-13.564 4.41-14.658 10.168l.005.002c4.359-2.144 9.35-3.362 14.653-3.362 5.304 0 10.294 1.218 14.654 3.363l.005-.003" fill="url(#9)" transform="matrix(1.33721 0 0-1.33743-159.59 1266.97)"/></g><g fill="none" stroke="#000" stroke-width=".9"><path d="m137.23 781.55c-5.831 2.87-12.507 4.501-19.603 4.501-7.095 0-13.771-1.631-19.602-4.5m39.2.006c-1.463 7.7-9.683 13.599-19.601 13.599-9.918 0-18.14-5.899-19.601-13.599 5.831-2.87 12.506-4.498 19.601-4.498 7.095 0 13.771 1.629 19.602 4.498z"/><path d="m117.62 776.88v-89.17m-19.48 93.82l19.48-93.25 19.392 93.3"/><path d="m205.3 675.24v-85.11m-19.11 89.55l19.11-88.55 19.02 88.6"/></g><g fill-rule="evenodd" stroke-width=".673"><path d="m258.42 439.21l.006.003c4.29 2.109 9.201 3.306 14.419 3.306 5.218 0 10.129-1.197 14.419-3.305l.006-.003c-4.291-2.111-9.204-3.31-14.425-3.31-5.221 0-10.134 1.199-14.425 3.31" fill="url(#W)" transform="matrix(1.33721 0 0-1.33743-159.59 1266.97)"/><path d="m287.27 439.2c-1.077-5.668-7.129-10.01-14.43-10.01-7.301 0-13.353 4.342-14.43 10.01l.005.002c4.291-2.111 9.204-3.31 14.425-3.31 5.221 0 10.134 1.199 14.425 3.31l.005-.002" fill="url(#A)" transform="matrix(1.33721 0 0-1.33743-159.59 1266.97)"/></g><path d="m224.56 679.56c-5.74 2.825-12.313 4.431-19.297 4.431-6.984 0-13.556-1.605-19.296-4.43m38.593.006c-1.44 7.58-9.532 13.387-19.296 13.387-9.763 0-17.855-5.807-19.295-13.387 5.74-2.825 12.312-4.428 19.295-4.428 6.984 0 13.556 1.603 19.296 4.428z" fill="none" stroke="#000" stroke-width=".9"/></g><g stroke="#000"><g stroke-miterlimit="4.923"><g stroke-width=".673"><path d="m350.15 537.89v8.345c-4.474-.173-8.966-.601-13.444-1.773-3.165-.827-5.355-1.842-5.348-2.74v-3.925l18.792.093z" fill="url(#B)" fill-rule="evenodd" transform="matrix(1.33721 0 0-1.33743-159.59 1266.97)"/><path d="m370.04 538l3.148.232c.731-14.992 6.302-27.354 17.531-36.669-.26-14.435-.489-28.861.008-43.29-13.472-19.716-20.685-42.18-19.964-65.845l-3.157-.09c-10.275 55.34-11.01 91.86 2.434 145.67" fill="url(#C)" transform="matrix(1.33721 0 0-1.33743-159.59 1266.97)"/><g fill-rule="evenodd"><path d="m331.35 541.72c-21.51-62.02-5.465-120.15 36.31-149.32-.539 24.06 6.103 46.32 19.928 66.784-.472 13.644-.247 27.29 0 40.932-10.896 9.03-16.711 21.71-17.504 37.97-12.351-.48-24.373-.644-33.695 1.23-3.642.732-5.02 1.508-5.02 2.406h-.012z" fill="url(#D)" transform="matrix(1.33721 0 0-1.33743-159.59 1266.97)"/><path d="m361.96 405.43c1.45 0 2.625-1.176 2.625-2.625 0-1.45-1.176-2.625-2.625-2.625-1.45 0-2.625 1.176-2.625 2.625 0 1.45 1.176 2.625 2.625 2.625" fill="url(#E)" transform="matrix(1.33721 0 0-1.33743-159.59 1266.97)"/><path d="m366.81 435.46c1.45 0 2.625-1.176 2.625-2.625 0-1.45-1.176-2.625-2.625-2.625-1.45 0-2.625 1.176-2.625 2.625 0 1.45 1.176 2.625 2.625 2.625" fill="url(#F)" transform="matrix(1.33721 0 0-1.33743-159.59 1266.97)"/><path d="m364.99 531.91c1.45 0 2.625-1.176 2.625-2.625 0-1.45-1.176-2.625-2.625-2.625-1.45 0-2.625 1.176-2.625 2.625 0 1.45 1.176 2.625 2.625 2.625" fill="url(#G)" transform="matrix(1.33721 0 0-1.33743-159.59 1266.97)"/><path d="m334.36 536.16c1.45 0 2.625-1.176 2.625-2.625 0-1.45-1.176-2.625-2.625-2.625-1.45 0-2.625 1.176-2.625 2.625 0 1.45 1.176 2.625 2.625 2.625" fill="url(#H)" transform="matrix(1.33721 0 0-1.33743-159.59 1266.97)"/><path d="m380.46 465.18c1.45 0 2.625-1.176 2.625-2.625 0-1.45-1.176-2.625-2.625-2.625-1.45 0-2.625 1.176-2.625 2.625 0 1.45 1.176 2.625 2.625 2.625" fill="url(#I)" transform="matrix(1.33721 0 0-1.33743-159.59 1266.97)"/><path d="m381.07 498.55c1.45 0 2.625-1.176 2.625-2.625 0-1.45-1.176-2.625-2.625-2.625-1.45 0-2.625 1.176-2.625 2.625 0 1.45 1.176 2.625 2.625 2.625" fill="url(#J)" transform="matrix(1.33721 0 0-1.33743-159.59 1266.97)"/><path d="m330.16 458.53h2.441c5.496 0 9.953 8.357 9.953 18.662 0 10.305-4.457 18.662-9.953 18.662h-2.441v-37.32z" fill="url(#K)" transform="matrix(1.33721 0 0-1.33743-159.59 1266.97)"/><path d="m330.38 458.53c5.494 0 9.952 8.355 9.952 18.662 0 10.307-4.459 18.664-9.952 18.664-5.493 0-9.228-7.632-9.228-17.938 0-10.307 3.734-19.388 9.228-19.388" fill="url(#L)" transform="matrix(1.33721 0 0-1.33743-159.59 1266.97)"/><path d="m328.76 483.81c2.02 0 3.656-2.869 3.656-6.407 0-3.538-1.637-6.407-3.656-6.407-1.721 4.111-13.144 5.1-17.683 5.9v.974c4.6.623 16.589 3.108 17.683 5.94" fill="url(#M)" transform="matrix(1.33721 0 0-1.33743-159.59 1266.97)"/></g></g><path d="m278.57 558.34c-.098 6.143 24.888 7.875 40.05 6.58 4.416 17.505 12.266 29.514 21.678 39.03-.285 14.04.213 28.08.929 42.12-15.693 22.23-24.896 49.33-24.61 83.55" fill="none" stroke-width=".9"/></g><g stroke-width=".673" stroke-miterlimit="4"><path d="m243.56 544.01c4.637 0 6.222 4.759 3.179 7.899l-4.222 4.357c-2.032 2.097-4.197 2.097-6.23 0l-4.222-4.357c-3.043-3.14-1.458-7.899 3.179-7.899h8.315zm0 2.835h-8.315c-1.943 0-2.447 1.758-1.153 3.093l3.984 4.111c1.075 1.11 1.579 1.11 2.654 0l3.984-4.111c1.294-1.335.79-3.093-1.153-3.093" fill="url(#N)" transform="matrix(1.33721 0 0-1.33743-159.59 1266.97)"/><g fill-rule="evenodd"><path d="m243.33 540.82l-7.855.002v4.878c0 2.169 1.759 3.928 3.927 3.928 2.169 0 3.928-1.759 3.928-3.928v-4.88z" fill="url(#O)" transform="matrix(1.33721 0 0-1.33743-159.59 1266.97)"/><path d="m244.48 491.15h-10.159v.951c.542 1.191.69 2.899.363 4.203v.926h9.432v-.926c-.327-1.304-.178-3.01.363-4.203v-.951z" fill="url(#P)" transform="matrix(1.33721 0 0-1.33743-159.59 1266.97)"/><path d="m235.22 496.23c-3.166.345-2.882 2-2.382 4.41 2.712 13.01 2.979 26.1-.104 39.04-.652 2.736 1.08 3.874 3.422 3.874h6.49c2.342 0 4.074-1.137 3.422-3.874-3.083-12.934-2.816-26.02-.104-39.04.5-2.405.784-4.065-2.382-4.41-2.832-.308-5.53-.308-8.362 0" fill="url(#Q)" transform="matrix(1.33721 0 0-1.33743-159.59 1266.97)"/><path d="m242.63 442.11v5.553h-6.467v-5.553h6.467z" fill="url(#R)" transform="matrix(1.33721 0 0-1.33743-159.59 1266.97)"/><path d="m231.31 492.12h9.772c.896 0 1.629-.733 1.629-1.628v-41.857c0-.896-.733-1.628-1.629-1.628h-9.772c-.896 0-1.629.733-1.629 1.628v41.857c0 .896.733 1.628 1.629 1.628" fill="url(#S)" transform="matrix(1.33721 0 0-1.33743-155.31 1266.97)"/><path d="m237.27 436.02v-.738c-.073-2.24-1.056-3.813-2.825-4.533v-1.736l5.03-2.469 4.886 2.469v1.736c-1.769.72-2.752 2.293-2.825 4.533v.738h-4.264z" fill="url(#T)" transform="matrix(1.33721 0 0-1.33743-159.59 1266.97)"/><path d="m239.4 418.23c1.79 0 2.741 2.685 3.817 5.383 1.384 3.47 2.525 7.162 1.139 7.131 0-1.01-2.22-1.83-4.957-1.83-2.737 0-4.957.82-4.957 1.83-1.385.031-.244-3.661 1.139-7.131 1.076-2.698 2.027-5.383 3.817-5.383" fill="url(#U)" transform="matrix(1.33721 0 0-1.33743-159.59 1266.97)"/><path d="m242.63 442.76c2.749-.624 4.664-2.02 4.664-3.641 0-2.203-3.536-3.99-7.897-3.99-4.361 0-7.897 1.786-7.897 3.99 0 1.621 1.915 3.02 4.663 3.641h6.467z" fill="url(#V)" transform="matrix(1.33721 0 0-1.33743-159.59 1266.97)"/></g></g></g><path d="m154.89 591.17c-.501 1.493-1.195 2.936-1.785 4.396-.675 1.669-1.309 3.238-2 4.501l-.0001.003-.002.004c-1.772 3.223-4.573 2.653-4.97-.996-.235-2.156.277-4.967 1.013-7.45.26-.88.559-1.748.895-2.601-1.887-1.16-3.878-2.833-5.47-4.621-.318-.357-.619-.717-.898-1.075-.267-.344-.516-.687-.743-1.028-6.603-.24-12.13-2.629-16.665-6.484-1.78-1.513-3.382-3.231-4.813-5.076-1.99 1.703-3.838 3.122-5.892 4.361-4.754 2.866-10.129 4.684-15.03 7.489-3.284 1.83-6.399 3.964-9.514 6.07v-34.572c7.867-1.527 15.571-3.693 23.276-5.869 2.98-.841 5.847-1.135 8.938-.793 2.646.293 5.219.961 7.715 1.673 2.795.797 5.812 1.635 8.899 2.442 3.093.809 6.263 1.59 9.362 2.274l.887.195c6.723 1.478 13.05 2.869 17.496 7.289 1.835 1.825 3.899 3.414 5.681 5.292l.002.002.002.003c1.578 1.664 2.393 3.101 2.678 4.654.283 1.548.037 3.202-.507 5.305-.583 2.253-1.488 4.621-2.382 6.555-.317.688-.655 1.368-1.02 2.031l-.002.007c-.3.54-.687.998-1.117 1.292-.794.542-1.672.446-2.346-.24-.357-.364-.694-.91-.989-1.678-1.155 1.027-2.649 1.641-4.134 2.01-.566 1.755-2.418 3.056-4.268 3.869-.738.323-1.506.59-2.29.776" fill="#fad699" stroke="none"/><g fill="none" stroke="#000" stroke-miterlimit="10"><path d="m154.71 591.06c2.524-.567 6.612-2.451 6.76-5.478.069-1.423-.525-3.144-1.628-5.178-1.623-2.992-3.498-6.186-5.293-9.09m6.829 15.08c3.057-.747 5.195-2.333 5.759-4.667.386-1.597-.114-3.694-.972-5.522-1.388-2.957-2.874-6.04-4.188-8.901m3.604 16.802c1.224 3.645 3.296 2.826 4.322.971 1.157-2.094 2.583-5.437 3.392-8.559 1.079-4.168.98-6.539-2.135-9.823-1.642-1.731-3.735-3.358-5.683-5.294-4.608-4.583-11.283-5.893-18.312-7.445-6.203-1.37-12.685-3.125-18.269-4.718-4.98-1.42-10.263-2.661-15.802-1.097-8.096 2.286-15.966 4.532-23.943 6.067m0 34.18c4.802-3.237 9.683-6.236 14.78-8.585 6.233-2.87 10.439-4.389 15.528-9.274 5.248 6.825 12.345 11.323 21.542 11.634 1.69 2.561 4.561 5.201 7.209 6.805-1.15 2.877-2.267 7.122-1.942 10.1.402 3.685 2.976 4.084 4.702.938 1.068-1.945 2-4.645 3.165-7.304 1.644-3.764 1.554-6.159-.219-8.434-1.609-2.065-4.162-5.056-5.699-7.177" stroke-width=".9"/><path d="m238.01 898.12c-9.889-18.601-29.357-33-51.751-33h-65.12c-17.658 0-31.982-14.437-31.982-32.24v-320.15h298.4v320.15c0 17.801-14.324 32.24-31.982 32.24h-65.12c-22.394 0-41.861 14.403-51.751 33h-.692z" stroke-width="1.605"/></g></g></svg>