<svg xmlns="http://www.w3.org/2000/svg" width="300" height="360" viewBox="0 0 84.666667 101.6" fill-rule="evenodd"><path d="m62.58 48.55c.828 0 1.5.672 1.5 1.5v1.5c0 .828-.672 1.5-1.5 1.5h-1.5v-4.5h1.5m0 6c1.657 0 3-1.343 3-3v-1.5c0-1.657-1.343-3-3-3h-3v7.5h3m-6-7.5h1.5v7.5h-1.5v-7.5m-3 0h1.5v7.5h-1.5l-3-4.709v4.709h-1.5v-7.5h1.5l3 4.709v-4.709m-22.5 0h4.5v1.5h-3v1.5h3v1.5h-3v1.5h3v1.5h-4.5v-7.5m-6 0h1.5v6h3v1.5h-4.5v-7.5m15.75 6h1.5c1.242 0 2.25-1.01 2.25-2.25 0-1.242-1.026-2.246-2.25-2.25h-1.5v1.5h1.5c.414 0 .75.336.75.75 0 .414-.336.75-.75.75h-1.5v1.5m1.5-7.5c2.899 0 5.25 2.351 5.25 5.25 0 2.899-2.351 5.25-5.25 5.25-2.899 0-5.25-2.351-5.25-5.25 0-2.899 2.351-5.25 5.25-5.25m0 1.5c2.071 0 3.75 1.679 3.75 3.75 0 2.071-1.679 3.75-3.75 3.75-2.071 0-3.75-1.679-3.75-3.75 0-2.071 1.679-3.75 3.75-3.75" fill="#a90000"/><path d="m42.33 0c14.755 0 28.12 2.554 37.8 6.682 1.593.679 3.086 1.402 4.472 2.163v20.777c-3.151 2.427-5.183 6.241-5.183 10.53 0 4.289 2.032 8.102 5.183 10.529 0 8.606.848 17.682-3.744 25.456-4.636 7.848-13.512 11.689-21.507 15.15-6.096 2.638-12.566 5.142-17.02 10.314-4.454-5.172-10.924-7.676-17.02-10.314-7.995-3.46-16.872-7.301-21.507-15.15-4.592-7.774-3.744-16.85-3.744-25.456 3.151-2.427 5.183-6.24 5.183-10.529 0-4.289-2.032-8.103-5.183-10.53v-20.777c1.385-.761 2.879-1.484 4.472-2.163 9.681-4.128 23.05-6.682 37.8-6.682"/><path d="m42.33.657c-13.671 0-29.29 1.938-41.613 8.579v20.07c3.266 2.639 5.18 6.629 5.18 10.847 0 4.208-1.937 8.226-5.181 10.847-.027 8.358-.798 17.271 3.652 24.804 4.57 7.737 13.34 11.477 21.2 14.879 5.963 2.58 12.241 5.03 16.76 9.932 4.52-4.907 10.798-7.352 16.761-9.932 7.862-3.402 16.631-7.142 21.2-14.879 4.45-7.533 3.679-16.446 3.652-24.804-3.243-2.621-5.181-6.639-5.181-10.847 0-4.217 1.915-8.207 5.18-10.847v-20.07c-12.321-6.641-27.942-8.579-41.613-8.579" fill="#3c82c2"/><g fill="#fff"><path d="m52.42 24.507l-.852-1.673-.75 1.742 1.602-.068zm-1.352-2.614l-.737 1.727-.866-1.687 1.603-.041zm2.795.102l-.737 1.727-.866-1.687 1.603-.041z" stroke="#3c82c2" stroke-width=".36"/><path d="m32.939 18.533l4.646-.767c-.004-.118-.007-.24-.007-.366.0001-.129.006-.26.013-.392.041-.68.179-1.424.476-2.119l.043-.101.055.095c.291.504.582.981.872 1.372.241.325.482.591.721.763l.004-.039c.084-.698.226-1.383.451-2.01l.037-.102.06.091.043.064c.561.848 1.131 1.708 1.742 2.314l-.032-.077c.702-.287 1.442-.521 2.175-.674 1.142-.237 2.269-.276 3.212-.007.95.27 1.714.85 2.121 1.849.082.201.15.419.201.653.891-.141 1.909-.001 2.845.11.663.085 1.285.165 1.787.138h.015c.459-.027.792.044 1.018.175.129.074.224.169.288.276.065.107.099.226.106.351.012.208-.05.43-.169.636-.254.441-.552.789-.921 1.026-.371.237-.813.362-1.354.356-.539-.007-1.077-.023-1.614-.038-.788-.023-1.576-.046-2.362-.041-.711.004-1.306.167-1.811.424-.483.246-.885.579-1.226.942.166.093.348.176.542.264.08.036.163.074.256.118.417.196.734.336 1.065.432.331.095.678.147 1.156.165 1.052.039 2.107-.014 3.161-.068l.57-.028.023-.0001.058-.003-.0001.058c-.006.313-.043.604-.121.861-.016.053-.034.104-.053.152-.02.05-.041.098-.063.143l-.019.036c-.444.836-2.055.813-3.201.796-.261-.003-.498-.007-.689 0h-.02c-.356.015-.714.02-1.068.026-2.054.03-4.01.059-5.422 2.069l-.041.058-.046-.055c-.301-.362-.55-.734-.77-1.133-.061-.111-.12-.224-.176-.339-.537.633-1.096 1.522-1.487 2.297-.079.156-.151.308-.215.453-.064.145-.119.281-.164.406v.003l-.028.079-.061-.057c-.172-.161-.373-.336-.587-.522-.114-.1-.232-.202-.352-.309-.338.665-.621 1.317-.832 2.02 1.167.936 2.38 1.657 3.647 2.215 1.288.568 2.633.968 4.044 1.256 1.349.275 2.657.487 3.964.578 1.305.091 2.611.062 3.958-.146.185-.029.292-.046.408-.064 1.492-.239 3.174-.509 4.627.323.608.348 1.197.64 1.792.897.594.257 1.193.48 1.82.69 1.507.272 3 .603 4.282 1.856 1.279 1.251 2.342 3.419 2.984 7.364v.004.003c.04 1.114.314 2.09.719 2.986.406.898.947 1.717 1.52 2.516l.054.075-.092.012h-.007c-.141.017-.281.029-.42.034-.138.006-.275.004-.41-.003-.647-.032-1.258-.2-1.833-.478.343.903.946 1.718 1.67 2.461.76.779 1.656 1.48 2.525 2.121l.1.074-.122.024c-.906.181-1.812.171-2.718-.03.509.554 1.124.975 1.83 1.282.762.331 1.632.529 2.587.62l.209.02-.192.085-2.14.946c.508.062 1.01.074 1.503.085 1.04.024 2.057.047 3.076.53l.003.002c.339.161.654.352.942.571.288.22.55.469.784.748 1.199 1.432 1.671 3.657 1.25 6.774l-.028.209-.077-.196c-.83-2.122-1.654-3.595-2.451-4.101-.773-.491-1.53-.038-2.253 1.667l-.049.117-.051-.116-.0001-.003c-.11-.24-.226-.484-.346-.728-.119-.242-.243-.482-.369-.716-.628-1.163-1.327-2.169-1.985-2.497-.032.102-.059.209-.079.32-.024.13-.041.267-.051.406-.051.717.081 1.511.308 2.059l.048.116-.117-.043c-.547-.201-.993-.412-1.38-.642-.388-.23-.717-.479-1.029-.758-.751-.67-1.122-1.387-1.48-2.077-.421-.813-.823-1.59-1.815-2.201l-.074-.046c-.717-.441-1.491-.919-2.046-1.772.08 1.054.268 1.879.552 2.537.294.682.691 1.185 1.176 1.574.504.355.848.694 1.04 1.069.194.379.233.791.124 1.288-.171.778-.497 1.365-.824 1.954-.406.732-.815 1.468-.92 2.578v.003.0001c-.135.715-.223 1.362-.284 1.982-.061.62-.096 1.215-.124 1.823l-.003.063-.062-.012c-.385-.074-.84-.355-1.236-.695-.076-.065-.151-.134-.223-.204-.058-.056-.113-.113-.166-.17-.189.225-.383.487-.545.78-.172.311-.307.658-.361 1.032-.094.656-.198 1.049-.447 1.286-.249.237-.632.308-1.284.32l-.204.004c-.873.016-1.747.032-2.618-.017-.271-.015-.487-.076-.643-.172-.082-.05-.148-.111-.196-.18-.451.1-.748.162-1.134.156-.979-.014-1.592-.157-1.928-.382-.243-.163-.345-.368-.337-.598.009-.223.122-.467.313-.717.488-.64 1.488-1.328 2.471-1.782.22-.102.451-.205.683-.308.62-.276 1.243-.554 1.837-.898.949-.551 1.658-1.529 1.898-3.115.047-.311.076-.645.086-1 .001-.358-.0001-.741-.033-1.151v-.012c-.096-1.23-.462-2.644-1.021-3.909-.109-.247-.225-.488-.348-.72-.106-.201-.217-.397-.334-.584-.691-.505-1.42-.918-2.137-1.325-.396-.225-.789-.447-1.168-.681-3.14-1.936-3.35-3.848-3.533-5.507l-.004-.044c-.034-.306-.078-.607-.133-.898-2.632.333-3.986 1.496-5.286 2.613-.796.684-1.573 1.351-2.612 1.806-.557.244-1.127.44-1.714.58-.588.14-1.196.225-1.83.246-.763.026-1.529-.099-2.293-.224-1.065-.174-2.128-.348-3.165-.104-.31.073-.587.181-.833.325-.245.143-.46.322-.644.537l-.055-.047c.022.085.045.171.069.256.411 1.456 1.129 2.888 2.278 4.327l.067.084-.107.006c-.358.017-.715-.006-1.071-.05-.321-.04-.643-.099-.966-.164.245.585.513 1.125.802 1.625.304.527.63 1.01.973 1.455l.051.067-.082.02c-.379.092-.758.117-1.137.074-.34-.038-.68-.131-1.019-.278.156.439.361.879.603 1.319.264.48.573.961.91 1.441l.054.077-.094.009c-.782.075-1.564-.104-2.345-.536-.255 2.426.389 5.471 1.01 7.549.122.409.243.781.356 1.102.113.321.218.593.308.804l.0001.003.035.081-.088-.004c-.41-.019-.898-.166-1.281-.351-.076-.037-.147-.075-.213-.114-.038-.022-.073-.045-.107-.068-.006 1.361-.072 2.558-.276 3.446-.213.928-.579 1.525-1.187 1.63-.578.1-2.617.246-3.804-.028-.235-.054-.438-.125-.592-.217-.159-.094-.266-.211-.304-.353-.843.092-1.466.061-1.908-.061-.373-.103-.621-.271-.764-.484-.145-.215-.183-.473-.139-.755.047-.3.188-.628.392-.957.428-.688 1.141-1.26 1.738-1.737.204-.163.394-.315.554-.458l.002-.002c.414-.368.682-.704.845-1.143.164-.442.225-.993.224-1.789-.002-1.769-.468-2.991-1.063-4.537-.075-.194-.152-.396-.216-.563-.865-2.279-1.637-4.517-2.323-6.744-.674-2.188-1.264-4.363-1.778-6.553-.296.336-.585.724-.853 1.168-.134.221-.262.456-.384.705-.122.25-.239.515-.347.795l-.0001.003-.048.125-.053-.123c-.267-.62-.422-1.32-.487-2.072-.06-.702-.042-1.452.038-2.229-.324.348-.594.753-.822 1.181-.253.477-.453.985-.615 1.48l-.037.114-.062-.103c-.749-1.256-1.224-3.01-1.037-4.802.036-.348.098-.699.188-1.047.06-.233.133-.466.219-.696-.529.521-1.03 1.11-1.5 1.772l-.076.107-.023-.129c-.328-1.862-.126-4.239.471-6.147.116-.372.248-.726.392-1.055.096-.218.199-.426.308-.62-.717.443-1.413.932-2.037 1.372l-.216.151-.077.055-.008-.095c-.181-2.041.523-3.862 1.724-5.442.233-.307.486-.605.754-.894.178-.192.365-.38.558-.565l-.134.069c-.848.444-1.655.976-2.452 1.528l-.086.06v-.105c.018-2.487.96-4.584 2.408-6.126.285-.303.589-.585.91-.844.282-.228.578-.438.883-.63-.273.056-.547.115-.82.175-.896.195-1.793.39-2.69.462l-.075.006-.117.009.068-.096c.842-1.178 1.933-2.159 3.308-2.926 1.327-.74 2.919-1.281 4.806-1.605-.684-.254-1.479-.363-2.238-.466-.434-.059-.857-.116-1.244-.199l-.044-.001-.119-.026.099-.072c1.09-.795 2.936-1.969 5.062-2.676.415-.138.84-.258 1.271-.354.309-.069.623-.125.939-.167-.514-.053-1.028-.115-1.542-.18l-.157-.02.135-.082c1.153-.694 2.898-1.499 4.72-2.079.355-.113.713-.218 1.069-.311.327-.086.653-.162.974-.227l-.73-.805-.068-.075.099-.016z" fill-rule="nonzero"/></g><path d="m39.709 17.472c-2.253.372-4.507.744-6.76 1.116.265.292.53.584.795.877-2.503.492-5.241 1.668-6.84 2.63 1.856.234 3.712.425 5.567.319-.152.77-.629 1.668-1.01 2.438 1.168-.128 2.337-.457 3.505-.924-.078.692-.223 1.361-.641 1.939 1.264-.05 2.527-.53 3.791-1.147.058.736-.117 1.473-.398 2.21 1.142-.11 2.283-.361 3.425-.924.371.945.761 1.701 1.358 2.419 1.676-2.379 4.084-2.01 6.533-2.117 1.015-.043 3.334.231 3.864-.768.167-.315.242-.718.249-1.167-1.253.06-2.506.144-3.758.097-.968-.036-1.404-.207-2.243-.601-.316-.148-.607-.267-.862-.418.711-.774 1.684-1.425 3.125-1.434 1.325-.009 2.651.063 3.977.08 1.06.013 1.727-.488 2.227-1.355.366-.635.175-1.435-1.193-1.355-1.228.072-3.163-.501-4.693-.239-.688-3.33-4.543-3.103-7.646-1.833m-13.256 5.03c-3.149.294-6.117 2.127-7.63 3.23 1.127.248 2.591.271 3.716.749-3.931.639-6.596 2.198-8.272 4.542 2.01-.146 4.03-.933 6.04-.956-.067.983-.367 1.888-.774 2.757 1.803-.31 3.902-1.038 5.705-1.801.011.616-.039 1.445-.212 2.231 1.167-.245 2.545-.737 3.711-1.434m-3.181-5.259c1.034.09 2.068.001 3.102-.239-.472.94-1.177 1.802-1.988 2.63 1.343.214 2.885-.169 4.454-.637.035.797-.033 1.593-.239 2.391 1.432-.408 2.863-1.42 4.295-2.311.673.75 1.479 1.377 2.036 1.896.326-.905 1.163-2.361 1.941-3.251m-7.317 5.02c1.034 1.087 2.068 1.777 3.102 2.072.054-1.886.536-3.259 1.267-4.691m-18.12.914c-2.51 1.484-4.359 4.198-4.385 7.682 1.596-1.106 3.234-2.127 5.17-2.55.127.983.099 1.965 0 2.948 1.166-.539 2.333-1.24 3.5-2.231.174.936.146 1.918.08 2.869 1.167-.595 2.333-1.296 3.5-2.231.534.823 1.01 1.647 1.432 2.47.552-1.456 1.337-2.756 2.227-3.984.712.435 1.389.977 1.988 1.753.17-.971.605-1.853 1.113-2.709m-16.06 1.875c-2.117 1.92-3.567 4.316-3.317 7.134 1.278-.899 2.897-2.07 4.405-2.611-.101.883-.044 1.938.256 2.821.875-.66 1.965-1.463 2.84-1.663m16.487-22.698c-.006-1.352.109-2.836.557-4.075.753 1.138 1.52 2.31 2.386 2.879m-5.01-.08c-.039-.853.064-1.912.477-2.879.584 1.01 1.167 1.914 1.75 2.242m-21.644 24.322c-1.222 1.93-1.789 5.498-1.335 8.07 1.155-1.629 2.498-2.818 3.996-3.642m-2.264 1.581c-1.053 2.412-.545 5.104.489 6.837.325-.996.805-2.042 1.56-2.797-.187 1.66-.102 3.202.428 4.432.78-2.02 1.945-3.224 2.999-3.911m-2.197-3.818c.388 1.537 1.626 4.506 4.05 4.462m12.646-3.427c.135 1.737.3 3.563-.96 5.621m3.346-7.454c.545 3.062.539 5.756-.888 7.83m3.274-7.91c.771 2.773.646 5.449-.382 7.86m2.927-7.541c.378 2.231.307 4.314-.276 6.471m-22.878-.967c1.04 4.46 2.397 8.853 4.127 13.41.695 1.833 1.279 3.131 1.282 5.119.002 1.605-.246 2.225-1.088 2.974-.626.556-1.714 1.268-2.283 2.183-.801 1.289-.599 2.515 2.425 2.167m-2.863-31.12c.735 1.201 1.238 2.473 1.511 3.905.475 4.298 2.037 9.147 3.442 14.01.584 2.02 1.216 3.962 1.202 6.089-.011 1.644-.11 2.76-1.26 3.912-.747.748-1.341 1.469-1.693 2.074-.274.471-.41.875-.342 1.164.222.935 3.84.709 4.641.569 1.164-.202 1.411-2.325 1.418-5.127.372.283 1.091.557 1.659.584-.645-1.504-2.059-6.166-1.67-9.568.795.455 1.591.645 2.386.569-.675-.964-1.24-1.929-1.562-2.893.746.35 1.491.434 2.236.252-.69-.896-1.308-1.936-1.821-3.187.708.145 1.417.267 2.125.233-2.308-2.89-2.884-5.753-2.728-8.841m10.203-31.817c1.067-1.021 2.649-1.522 3.811-.945m-1.029-.213c.269 1.195-1.42 1.641-1.824.455m-10.724 36.755c.376-.44.876-.731 1.506-.88 1.792-.422 3.643.389 5.469.327 1.259-.043 2.416-.336 3.524-.822 2.749-1.205 3.668-3.922 8-4.434m-2.054-3.718c1.056.474 1.909 2.409 2.158 4.676.183 1.658.367 3.572 3.512 5.511 2.434 1.501 5.327 2.494 6.601 6.717 1.133 3.754-.193 6.04-2.045 7.172-1.01.616-2.046 1.201-2.931 1.981-.869.765-.656 1.446.341 1.503.938.053 1.878.03 2.818.013 1.274-.023 1.492-.27 1.677-1.558.109-.762.551-1.411.958-1.886.453.501 1.115.997 1.637 1.098.056-1.217.139-2.382.409-3.813.19-2.01 1.362-2.798 1.745-4.539.213-.968-.149-1.601-1.143-2.301-.986-.791-1.612-2.037-1.761-4.293-.132-2-.587-4.01-1.159-6.01 1.494-3.688 3.22-7.403 1.023-10.655m-26.928-8.629c2.378 1.923 4.942 2.952 7.772 3.528 2.705.551 5.239.85 7.941.433 1.578-.243 3.43-.647 5 .252 1.221.699 2.363 1.168 3.625 1.593 3 .542 5.946 1.313 7.226 9.176.082 2.245 1.099 3.929 2.25 5.533-1 .126-1.921-.068-2.762-.501.673 1.927 2.52 3.452 4.262 4.736-.954.19-1.909.168-2.863-.068 1.07 1.249 2.646 1.866 4.568 2.049-.773.342-1.545.683-2.318 1.025 1.641.243 3.201-.101 4.756.636 2.401 1.14 3.531 3.729 2.948 8.04-1.668-4.265-3.323-5.93-4.805-2.436-.795-1.735-1.83-3.576-2.785-3.998-.295.854-.161 2.108.16 2.882-1.088-.401-1.772-.835-2.392-1.389-1.633-1.457-1.457-3.146-3.302-4.284-.792-.488-1.668-1.01-2.239-2.025m-2.361-.088c.461 2.302 1.339 3.974 2.659 4.986 1.063.815.833 2.172.409 3.62m-5.725-6.565c.977 1.536 1.637 3.614 1.771 5.336.23 2.94-.638 4.552-1.977 5.33-.813.472-1.682.818-2.524 1.208-2.256 1.043-4.597 3.318-.542 3.375.417.006.73-.067 1.255-.184m-.984-1.669c-.446.384-.778 1.253-.682 1.776m3.583-1.404c-.368.455-.701 1.154-.515 1.609m1.841-1.571c-.482.489-.641 1.151-.546 1.64m-33.886 2.866c-.744.614-1.13 1.619-1.11 2.214m3.979-1.324c-.523.524-.859 1.089-.928 1.84m2.7-1.772c-.523.501-.769 1.198-.837 1.881" fill="none" stroke="#3c82c2" stroke-width=".36"/></svg>