<svg xmlns="http://www.w3.org/2000/svg" viewBox="0 0 197 232"><g stroke="#000"><path d="m13.694 26.706v50c5 10 10 15 10 30 0 15-5 20-10 30 0 15 0 30 15.879 45.39 19.12 24.609 61.12 14.609 71.71 39.609 15.406-25 52.41-15 72.41-40 15-15 15-30 15-45-5-10-10-15-10-30 0-15 5-20 10-30v-50c-27.411-11.731-60-15-87.5-15-31.551.26-60.57 3-87.5 15z" fill="#2d73b2"/><g fill="#fff"><path d="m101.13 148.87l-.145 17.365 5.933-.011.064-17.59c-1.877-.177-3.976-1.697-5.853.236z"/><path d="m83.35 179.57l.026 12.145 5.547.026-.239-12.224c-1.055-.198-3.681-.137-5.334-.071z"/><path d="m124.63 172.61l.075 18.835-6.418 5.591v-21.11c1.611-.228 6.793 3.916 6.454-2.985z"/><path d="m118.36 149.47l-.119 8.399 6.5.205.103-9.125.017-1.981c-.392-2.14-1.471-4.075-3.03-5.33-1.779 1.41-2.973 3.265-3.469 5.193z"/></g></g><g stroke="#40372d"><path d="m43.2 137.78l22.04-.356c1.374.562 3.915-6.169 6.05-5.876 3.2.098 7.261-.33 10.738-1.344l13.891-6.325c4.353-1.541 11.373-1.02 16.765-1.337 1.245.282 6.796-2.058 12.783-6.404 1.52-.322 2.813-1.437 4.845.036.995 2.963 2.208 5.708 4.03 7.842 2.514 2.967 5.621 5.457 9.38 7.23 3.291 1.049 6.235 2.376 10.05 3.163 2.733.435 5.18-.093 7.364.787 2.254 1.135 6.944 7.972 8.844 11.963.115 3.668.156 5.521.018 8.683.123 2.119 1.124 5.723 4.118 7.845l3.44-5.574c.07-1.549-.73-2.889-1.369-4.334-.58-.834-.0001-1.746-.122-3.224.19-1.264.029-2.645-.615-4.187l-2.8-5.998-3.986-6.05c-2.333-4.216 1.843-2.467 2.563-.715 2.124 2.209 3.197 4.692 4.075 7.791.238 2.528-.132 6.569 1.412 8.574 1.531 2.084 2.973 5.563 5.254 5.668l1.204-8.747c.099-.66-3.01-2.968-3.01-4.611 1.446-1.513 2.332-3.475 1.689-4.309-3.704-6.01-7.985-12.28-9.28-13.215-2.335-1.13-5.394-.812-8.244-.912-3.618-.792-4.774-2.091-6.379-4.428-1.777-2.6-1.981-4.01-2.835-5.574-1.063-4.073-.958-7.998-4.42-12.377l-1.237-1.237c-4.165-3.132.939-.496 2.438-.427 3.425.058-5.849-7.666-9.06-7.393-4.317-.113-8.93-.008-13.852.503l-11.74.899c-4.745.598-10.548.835-14.735.295l-13.11-1.749c-3.979-.735-6.431-1.372-11.238-.826-2.815.171-9.03 5.413-8.803 2.567 1.826-2.599 3.683-5.182 3.978-8.546.465-3.379.257-6.737-1.031-11.05 1.481.16 3.452 1.567 3.45-.661-.455-3.052-1.232-4.474-3.698-6.477-4.049-4.667 5.549 3.189 8.931 5.197 4.788 4.695 9.04 9.37 13.548 13.789l3.587 2.695c2.899-.017-.487-4.684 1.261-3.526 1.481 1.327 2.134 3.276 4.6 3.864 2.161.467 4.322 1.178 6.483.589 2.399-.627 4.945-1.166 6.282-2.944.885-.96 2.343-3.01-1.509-1.735l-2.858.406c-2.063.105-4.126-.013-6.189-.737-1.228-.442-1.805-1.209-2.505-1.915.214-.743 1.327-1.915 2.913-2.852 2.835-1.24 2.458-.362 6.762-1.056.321-.732-3.657-2.734-6.904-1.637-2.499.915-3.504 1.831-4.981 2.746-.407.379-1.101.471-2.063.295-2.891-.539-4.428-2.049-6.483-3.978-2.026-1.315 3.621-.772 7.07-2.358.501-1.551-1.299-3.125-2.592-3.202-2.556-.178-6.08.146-7.191.888-1.502 1.167-7.915-4.184-5.653-4.377l2.24-1.221c4.22-.132 4.374-2.766-1.544-3.762-1.891-.264-3.819 1.441-5.888 1.832-2.678-.279-3.229-.697-5.294-1.511-1.336-.672-3.03-1.465-3.536-2.634-.576-.965-.731-2.518-.485-3.209.364-1.267 1.825-2.803 4.748-4.316 1.734-.869 2.962-1.306 5.772-1.1l11.605.874c4.588-.042 7.777-1.87 10.986-3.02l6.915-.633c2.765-.652 3.991-1.675 5.927-3.986 2.352-2.801 2.737-9.83.14-5.928-1.114.836-2.984 2.779-3.97 3.65-1.999 1.457-2.473 1.379-5.065.871-3.981-2.124 7.07-6.826 3.623-7.392-2.124.2-3.542.876-4.893 1.603-2.513.72-4.482 3.234-5.308 5.33.109 1.863-1.475 3.973-2.893 3.978l-3.655-.381c-1.377-.28-.152-4.232 3.706-6.387 1.5-.648.999-2.071-1.082-1.925-1.774.583-3.348 1.367-4.568 2.505l-4.715 5.894c-.343.355-.892.64-2.063.719l-4.841-1.247c-2.386-1.077.25-2.372 1.717-4.304 1.593-1.629-.691-1.882-2.539-1.01-1.36 1.531-3.34 2.067-4.719 3.698-1.214.616-1.318 2.386-3.044 3.259-1.703.59-2.558 1.566-3.429 2.433-1.704 1.422-2.099 2.517-2.749 3.676-1.094 1.518-2.421-3.887-5.468-4.487-4.487-.852-4.109.325-3.12 1.663l1.296 1.508c.995 1.142 2.069 2.617-.991 3.521l-3.02.942c-2.472 1.19-2.548 2.77-4.01 4.212-1.7 1.059-3.21 2.307-5.157 3.12l-4.399 1.88c-2.402.919-.363 3.698 2.852 3.841 2.99-.246 3.047-.258.752.508-2.806 1.13-.083 2.02 1.68 2.365.97.198 2.298-.632 2.843-.879 2.066-.686 3.523-.282 4.758-.104 2.04.438 4.941.555 2.954 2.325l-2.972 3.975c-1.931 2.846-1.432 5.692-1.542 8.539-1.326 2.777-3.915 4.113-5.423 6.157-2.267 2.216-4.486 12.357-1.84 18.01.666 2.208 3.938 6.406 2.616 6.727-2.231.814-4.673 1.417-6.389 2.746-1.617 1.02-2.818 1.736-4.435 1.933-1.77.356-3.851.402-5.121 1.258-2.941 1.349-3.452 2.698-3.59 3.943-.487 4.127-1.167 8.19-2.487 12.04-.982 1.583-1.965 3.113-2.947 4.42-1.763 4.468-1.369 10.204-1.473 12.966.561.986 1.701.986 2.817-.528l4.176-5.434c1.026-.701-.075-3.106.158-4.266.653-1.421 1.35-1.92 2.573-3.033l1.031-7.425c.116-1.424.986-4.412 2.21-5.836 1.827-1.413 4.558-2.567 8.329-3.425 11.198-3.674 16.972-.895 12.314.539l-6.351 1.707c-1.333.422-3.514.843-5.657 1.265l-3.785.51c-4.652 1-4.105 3.897-4.653 6.199-.267 2.511-.997 4.244-1.524 6.318l-3.536 9.577-1.959 4.809c-.806 2.288-.374 4.167 1.829 3.978 1.01.173 2.237-.325 3.518-.978 2.031-1.064 2.506-1.833 3.181-3.44-.558-5.642 1.875-2.987 1.412-6.03.307-2.799.739-7.16 1.024-8.604-.132-1.818 2.788-5.199 5.056-5.142z" fill="#d49e63"/><path d="m128.82 115.33c.675-1.496 3.01-.295 3.748.295l3.629 3.781c2.422 2.207 5.122 4.08 7.741 5.896 2.689 1.217 4.985 2.645 8.646 3.339 2.342.53 5.735 1.685 8.271 1.055 2.663.016 6.06.291 7.476 1.814" fill="#fff" fill-opacity="0"/></g><g fill="#fff"><path d="m88.35 166.69l.095 4.375c10.08-.266 19.777-.618 29.838-.883l.409-4.168c-4.665-.043-9.535-.125-14.595.007-5.282.138-10.486.45-15.746.669z" stroke="#000"/><g stroke="#40372d" fill-opacity="0"><path d="m65.26 101.77c-.54 1.471-1.663 3.141-1.347 6.35"/><path d="m67.941 101.86c-.686 1.63-1.981 4.241-1.555 6.18"/><path d="m118.91 115.49c-.114-1.081 1.57-1.543.991-3.237"/><path d="m121.84 113.9c-.308-1.107 1.414-1.61.895-2.795"/><path d="m124.82 112.88c-.261-1.053 1.344-1.756.956-2.6"/><path d="m127.51 112.72c.044-1.398 2.079-1.491 1.753-2.858"/><path d="m141.61 123.62c2.494-.332 6.988.137 7.479-.996"/><path d="m144.92 125.54c2.662-.228 5.35-.442 7.247-1.052"/><path d="m149.53 127.86c2.099-1.183 3.87-2.266 6.34-2.465"/><path d="m154.26 129.29c-.483-.833 3.834-1.332 3.947-3.03"/><path d="m67.62 65.12c.421 2.34-.326 4.913 1.852 6.902 1.118 1.186 2.387 2.073 3.7 2.869"/><path d="m66.07 91.97c1.64-1.857 3.346-3.484 4.61-6.658.614-2.398.758-5.399-.442-7.257"/><path d="m66.752 91.28c.858-1.911 2.294-3.691 1.01-6.352"/><path d="m61.2 57.57c1.493 1.399 3.084 3.586 3.6 4.841"/><path d="m60.15 59.23c.985.924 2.678 3.02 2.779 3.943"/><path d="m58.699 70.69c.02-1.185 1.234-1.955 1.766-2.882"/><path d="m63.59 70.27c-.457-1.03.354-2.06 1.042-3.09"/><path d="m60.955 70.823c.392-1.144.207-1.728 1.619-3.065"/><path d="m65.908 69.844c-.862-1.351.356-2.451 1.01-3.372"/><path d="m56.23 71.55c.119-1.306 1.059-2.515 2.356-3.477"/><path d="m81.897 127.67c-.225-1.818 2.924-1.766 2.384-5.4"/><path d="m85.34 126.88c-.206-1.875 2.06-2.293 2.041-5.497"/><path d="m88.2 125.64c.636-1.997 2.431-2.177 2.236-4.546"/><path d="m92.17 123.27c-.067-1.484 1.237-2.305 1.532-4.01"/><path d="m57.964 101.46c-.772 2.404-.834 4.651.16 6.663"/><path d="m59.683 101.05c.043 1.012.249 2.498.564 4.054"/><path d="m64.902 94.09c-1.561 1.927-5.636 4.56-5.204 7"/><path d="m63.52 95.46c-.729 2.085-2.03 3.694-1.687 6.673"/><path d="m47.546 116.98l7.502 8.596"/><path d="m94.93 122.1c-.41-1.179 1.916-1.915 1.842-3.831"/><path d="m98.17 121.21c-.415-1.181 1.521-2.02 1.547-3.61"/><path d="m74.843 96.72c.049-1.57 2.044-1.675 2.396-3.699"/><path d="m78.13 96.15c-.023-1.216.381-2.01 2.136-3.02"/><path d="m83.96 96.46c.066-1.259.806-2.06 1.719-2.188"/><path d="m80.73 96.15c.267-.938.698-2.292 1.771-2.813"/><path d="m55.1 127.45c3.02-.851 1.663-.032 7.137-.781"/><path d="m58.954 122.77c-.417 1.327-.761 2.735-.417 4.168"/><path d="m61.19 119.07c-.51 2.466-.429 4.827-.208 7.241"/><path d="m70.03 129.09c.522-.683 2.127-1.915 1.86-3.491-1.947-4.37-1.658-4.219-1.786-6.16"/></g></g><path d="m102.31 57.37l.355-5.353 5.124.371-.355 5.353c2.391.173-10.149-.735 5.124.371l-.355 5.353-5.124-.371-.355 5.353-5.124-.371.355-5.353-29.509-2.101c-2.766-.27-2.423-5.244-.37-5.057" fill="#fff500"/><g fill="#fff"><g stroke="#000"><path d="m71.58 175.19l-10.885 5.197c9.259-.462 38.25-1.826 47.533-1.764l3.06-4.368c-10.184-.124-30.04-.165-39.709.935z"/><path d="m71.43 196.38c7.977-.008 23.606-.087 38.811-.09l-9.244-4.676c-10.374-.213-20.2-.046-29.738.185.046 1.191-.092 3.056.171 4.58z"/><path d="m106.99 157.42l-.037 4.758c9.764.126 19.817.312 29.978.976l.198-4.412c-11.07-.727-20.387-1.114-30.14-1.322z"/><path d="m137.13 155.76l-.012 10.09 5.1.011-.082-10.02z"/><path d="m107.09 191.74l.108 4.638 29.978-.313-.0001-4.33z"/><path d="m137.2 187.98l.088 13.08 5.04-1.414v-11.844z"/><path d="m137.01 170.36l.13 14.922 4.905-.043.157-14.849z"/><path d="m124.85 170.25c8.459.086 18.678.155 27.597.192l.129 4.145c-9.12-.287-12.544-.028-14.295-.128l-3.651 4.436c4.834.002 15.07-.029 17.879.259v4.345c-14.87.079-18.624-.033-27.718-.066l.047 4.595c6.336.203 18.632-.087 27.825.468l.108 3.17c-1.023.025-.388.025-1.782-.001-3.58-.091-6.077-.035-7.347-.064-2.829-.064-1.466.625-1.584 4.692l9.687-.161c3.178-.434 3.425-.751 6.092-1.995.547-6.669-.33-30.731-.879-41.979-.178-3.636-.321-5.933-.371-5.869-2.126.636-3.252 3.188-4.01 5.362-10.513-.699-18.206-1.124-27.662-1.631l.029 5.356c9.09.432 17.661.903 27.381 1.753l-.004 2.511-10.09-.541.037 4.287 10.1.41.02 2.47c-9.577-.337-35.15-.347-37.09-.189.003 1.565-10.174 2.827-10.163 4.392z" color="#000"/><path d="m118.15 162.42l.135 16.535 6.549-4.842-.067-11.501z" stroke-width=".992"/><path d="m100.95 181.89l.17 22.853 5.952-4.798-.026-11.791z"/><path d="m106.9 175.86l.119 3.03c9.657-.254 20.472.008 30.25-.043l-.018-4.397c-8.842-.239-21.654-.467-30.27-.213z"/><path d="m100.95 170.76v12.688h6.06l-.05-12.851c-2.02-.042-3.991.071-6.01.163z"/><path d="m88.84 183.35l.055 4.696 29.352.099.059-4.838z"/><path d="m65.2 188.19l-.177 12.356 6.377 2.178-.215-20.867z"/><path d="m65.19 172.46l.172 11.06 5.89-.079-.209-19.13c-2.322-.054-3.805 7.931-5.854 8.148z"/><path d="m70.977 158.88v-2.124c2.728-.301 7.877-1.42 12.09-1.6l-.02-4.479c-3.995.336-8.604 1.325-12.599 1.895-.411-1.687-1.289-4.137-3.457-5.155-2.01 1.804-2.264 4.264-2.293 6.53-4.087.23-8.399 1.201-12.634 2.073-.176-1.679-1.022-3.551-2.36-4.89-1.733 1.245-2.897 3.684-3.082 5.134l-.455 37.996 6.787 2.857 11.979-.515.067-4.655-13.05.188.037-3.221c9.442-.732 21.411-.695 31.38-.993l-.04-4.598c-10.37.183-21.18.194-31.547 1.01l.022-2.793c4.48-.57 9.132-1.052 13.473-1.412l-.02-4.368c-4.488.183-8.976.641-13.463 1.295l.037-2.86c1.84-.94 26.29-2.947 36.566-3.24l-.395-4.149c-10.301.524-26.16.898-36.12 3.047l.052-2.841c4.176-1.093 8.797-1.7 12.938-2.335l.063-4.323c-4.669.721-8.424 1.311-12.866 2.713l.037-3.105c4.04-1.204 8.429-1.701 12.788-2.261l.129 10.353 6.05-.369z"/><path d="m83.21 158.25l-.198-9.998c.061-2.065.325-4.345 2-5.813 2.228 1.193 3.03 3.344 3 5.625l.063 10.134"/><path d="m83.3 162.82l-.022 11.602 5.04-.104-.161-12.395z"/><path d="m87.05 207.78c3.889-.233 10.257.017 14.165.106l-.137 3.02-8.499-.141z"/><path d="m67.74 201.11c6.089-.939 10.857-1.085 15.818-1.347-.073 1.617 9.06 3.242 8.877 4.084-1.507.044-9.09-.026-14.174.169-1.966.075-3.537-.433-4.465-.717-4-1.222-8.529-2.118-6.06-2.189z"/><path d="m80.963 200.18l.873 3.667c9.78-.231 27.01.18 36.37.804l-.226-4.201c-28.472-1.702-34.404-.641-37.02-.27z"/><path d="m83.73 196.36l-.104 9.78 5.912 2.814-.302-12.543z"/><path d="m101.15 149.44l6.05-.052-.011-4.178c.062-2.578-.748-5.27-2.952-7.127-1.636 1.66-3.251 3.481-3.246 7.386z"/><path d="m88.17 149.8l-.096 4.816c16.02-.77 15.04-.68 30.2.049l-.007-4.906c-10.02-.825-20.07-.795-30.09.04z"/><path d="m71.09 159.46l.119 4.325c7.699-.565 11.151-1.415 29.776-1.63l.026-4.615c-5.382-.078-11.517.213-16.273.597-4.154.451-11.175.817-13.647 1.323z"/><path d="m136.74 150.64l5.534.256c.036-2.831-.531-5.591-2.618-8.06-1.873 2.383-2.759 4.915-2.916 7.806z"/><path d="m125.02 196.38l.058 8.152-7.02 2.97.145-11.08c2.263-.047 4.452-.387 6.813-.041z"/><path d="m101.05 203.94l.044 10.668 6.06-.211-.043-10.207z"/><path d="m107.26 207.91l.063 3.23 4.189.052 5.171-2.86z"/><path d="m96.51 214.58l2.957 3.662 3.668.067 4.405-4.03z"/><path d="m125.16 204.51l11.07-2.948c-3.93.241-7.683-.434-10.994-.515-.178 1.367-.063 2.837-.073 3.463z"/></g><g stroke="#40372d" fill-opacity="0"><path d="m52.688 63.68c.601-.546 1.512-.746 2.851-1.2 1.125-.382 2.199-.918 2.862-.704.57.14 1.37 1.727-.414 2.525-.678.374-1.209.241-2.252.011-1.316-.291-3.384-.084-3.047-.632z"/><path d="m54.905 63.01c-.995.203-1.453 1.175.079.85 1.616-.319.865-1.084-.079-.85z"/><path d="m71.04 123.99c-.736 1.447-1.773 2.657-2.886 3.652"/><path d="m130.82 116.98c-.4-1.644-1.733-1.585-2.608-1.739" stroke-width=".6"/></g><g stroke="#fff"><path d="m93.4 192.54l6.653.048.0001 2.653c-1.41-.093-4.661.088-6.238-.012z"/><path d="m99.95 175.5h-5.291l-.613 2.465c1.251-.044 4.405-.205 5.964-.166-.015-.819-.044-1.549-.059-2.299z" stroke-width=".976"/><path d="m135.86 175.6l5.4-.011-.665 2.124c-1.427-.028-2.864.02-4.652.047z"/><path d="m110.2 167.47c2.036-.666 4.407-.498 5.517-.461l-1.252 2.183c-1.488.044-9.05.396-10.784.419z"/></g><g stroke="#000"><path d="m137.03 170.39l.091 13.12 4.944-.004-.078-13.13z"/><path d="m137.14 188.13l.049 13.199 5.04-1.414c-.032-3.902.126-7.843-.022-11.727z"/></g><path d="m78.923 201.09c.741-.104 1.274-.17 2.01-.187.506-.012 1.205-.035 1.752-.062l-.0001 2.069c-.481-.002-1 .013-1.501.001-.88-.006-1.776-.217-2.596-.417z" stroke="#fff"/></g><g fill="none"><path d="m128.92 193.45c1.318-.008 2.716.029 4.075.044" stroke="#fff" stroke-width="1.349"/><path d="m131.06 191.98h1.626" stroke="#000" stroke-width=".5"/></g></svg>