<svg xmlns="http://www.w3.org/2000/svg" xmlns:xlink="http://www.w3.org/1999/xlink" viewBox="0 0 350 467"><defs><linearGradient x1=".08" gradientTransform="matrix(37.97802-.87649-.30427-13.18632 322.86 599.91)" x2=".92" gradientUnits="userSpaceOnUse" id="9"><stop/><stop offset=".5" stop-color="#333"/><stop offset=".79"/><stop offset="1"/></linearGradient><linearGradient x1=".35" gradientTransform="matrix(3.64646 122.875 75.93098-2.25371 164.84 495.54)" x2=".65" gradientUnits="userSpaceOnUse" id="G" xlink:href="#E"/><linearGradient x1=".24" gradientTransform="matrix(-20.1565-7.0115-7.82095 22.48709 426.25 588.72)" x2=".76" gradientUnits="userSpaceOnUse" id="A" xlink:href="#4"/><linearGradient x1=".35" gradientTransform="matrix(3.64645 122.8747 75.93156-2.25373 386.04 495.54)" x2=".65" gradientUnits="userSpaceOnUse" id="E"><stop/><stop offset="1" stop-color="#4c4c4c"/></linearGradient><linearGradient x1="214.32" x2="250.26" gradientUnits="userSpaceOnUse" xlink:href="#0" id="I"/><linearGradient x1="210.71" x2="256.04" gradientUnits="userSpaceOnUse" xlink:href="#0" id="J"/><linearGradient x1="432.44" x2="478.75" gradientUnits="userSpaceOnUse" xlink:href="#0" id="M"/><linearGradient x1="215.9" x2="250.09" gradientUnits="userSpaceOnUse" xlink:href="#0" id="K"/><linearGradient x1="435.82" x2="472.55" gradientUnits="userSpaceOnUse" xlink:href="#0" id="L"/><linearGradient x1="438.39" x2="473.31" gradientUnits="userSpaceOnUse" xlink:href="#0" id="N"/><linearGradient x1=".2" gradientTransform="matrix(65.5878-46.4964-45.2389-63.82435 254.32 656.1)" x2=".8" gradientUnits="userSpaceOnUse" id="4"><stop stop-color="#ccc"/><stop offset=".33" stop-color="#e5e5e5"/><stop offset=".58" stop-color="#fff"/><stop offset="1" stop-color="#e5e5e5"/></linearGradient><linearGradient x1=".27" gradientTransform="matrix(-21.5778-27.87171-27.90821 21.60961 406.72 640.14)" x2=".73" gradientUnits="userSpaceOnUse" id="5" xlink:href="#4"/><linearGradient x1=".15" gradientTransform="matrix(47.2547-34.96588-33.8165-45.70887 272.23 661.95)" x2=".85" gradientUnits="userSpaceOnUse" id="3"><stop/><stop offset=".63" stop-color="#4c4c4c"/><stop offset="1"/></linearGradient><linearGradient x1=".22" gradientTransform="matrix(47.53337-24.39413-19.87471-38.73338 244.72 630.44)" x2=".78" gradientUnits="userSpaceOnUse" id="1"><stop stop-color="#ccc"/><stop offset="1" stop-color="#fff"/></linearGradient><linearGradient id="0"><stop stop-color="#df212c"/><stop offset="1" stop-color="#a00"/></linearGradient><linearGradient x1=".06" gradientTransform="matrix(-49.225 24.61453 20.2146 40.4326 277.79 564.83)" x2=".94" gradientUnits="userSpaceOnUse" id="2" xlink:href="#1"/><linearGradient x1=".06" gradientTransform="matrix(47.99519-37.177-36.50095-47.1302 337.05 647.68)" x2=".94" gradientUnits="userSpaceOnUse" id="8"><stop stop-color="#4c4c4c"/><stop offset=".48"/><stop offset=".83" stop-color="#4c4c4c"/><stop offset="1" stop-color="#4c4c4c"/></linearGradient><linearGradient x1=".08" gradientTransform="matrix(55.4681 33.86753 31.5286-51.64592 300.84 614.17)" x2=".92" gradientUnits="userSpaceOnUse" id="7"><stop stop-color="#4c4c4c"/><stop offset=".15" stop-color="#333"/><stop offset=".38" stop-color="#4c4c4c"/><stop offset=".84"/><stop offset="1" stop-color="#191919"/></linearGradient><linearGradient x1=".22" gradientTransform="matrix(44.1757-50.5385-50.93701-44.53138 296.18 683.56)" x2=".78" gradientUnits="userSpaceOnUse" id="6" xlink:href="#4"/><radialGradient r=".29" gradientTransform="matrix(180.0625 0 0-180.0773 335.16 625.23)" cx="0" cy="0" gradientUnits="userSpaceOnUse" id="B"><stop stop-color="#666"/><stop offset=".79"/><stop offset="1"/></radialGradient><radialGradient r=".62" gradientTransform="matrix(143.2928 0 0-143.3046 369.97 514.11)" cx="0" cy="0" gradientUnits="userSpaceOnUse" id="C"><stop stop-color="#333"/><stop offset="1"/></radialGradient><radialGradient r=".62" gradientTransform="matrix(143.2928 0 0-143.3046 294.5 514.11)" cx="0" cy="0" gradientUnits="userSpaceOnUse" id="D" xlink:href="#C"/><radialGradient r=".58" gradientTransform="matrix(77.85075 0 0-77.85715 223.16 539.92)" cx="0" cy="0" gradientUnits="userSpaceOnUse" id="H" xlink:href="#C"/><radialGradient r=".58" gradientTransform="matrix(77.85075 0 0-77.85715 444.35 539.92)" cx="0" cy="0" gradientUnits="userSpaceOnUse" id="F" xlink:href="#C"/></defs><g transform="translate(-157.29-234.08)"><path fill="#a90000" d="m404.04 459.61c2.935 0 5.315 2.38 5.315 5.315v5.314c0 2.935-2.38 5.315-5.315 5.315h-5.315v-15.944zm0 21.259c5.87 0 10.63-4.76 10.63-10.63v-5.314c0-5.87-4.76-10.63-10.63-10.63h-10.63v26.574zm-21.26-26.574h5.315v26.574h-5.315zm-10.63 0h5.315v26.574h-5.315l-10.63-16.684v16.684h-5.315v-26.574h5.315l10.63 16.684zm-79.72 0h15.945v5.315h-10.63v5.315h10.63v5.315h-10.63v5.315h10.63v5.315h-15.945zm-21.26-.0001h5.315v21.26h10.63v5.315h-15.945zm55.808 21.26h5.313c4.402 0 7.972-3.57 7.972-7.972s-3.637-7.957-7.972-7.972h-5.313v5.315h5.313c1.467 0 2.658 1.19 2.658 2.658s-1.19 2.658-2.658 2.658h-5.313zm5.313-26.575c10.272 0 18.602 8.33 18.602 18.602s-8.33 18.602-18.602 18.602-18.602-8.33-18.602-18.602 8.33-18.602 18.602-18.602m-13.287 18.602c0 7.337 5.95 13.287 13.287 13.287 7.337 0 13.287-5.95 13.287-13.287 0-7.337-5.95-13.287-13.287-13.287-7.337 0-13.287 5.95-13.287 13.287"/><path d="m507.24 530.53c-6.817 44.12-24.01 76.884-52.789 103.59-34.08 31.621-79.28 50.974-122.16 66.967-42.885-15.992-88.09-35.35-122.16-66.967-28.777-26.704-45.972-59.47-52.789-103.59l-.047-.304v-.154-295.99h350v295.99.154l-.047.304z"/><path d="m488.78 575.3c5.752-13.642 9.896-28.668 12.501-45.39v-289.82h-337.99v289.82c2.605 16.718 6.749 31.744 12.501 45.39h312.98z" fill="#fff"/><path d="m176.25 576.31c8.86 20.617 21.43 38.08 37.969 53.42 27.765 25.765 66.747 45.745 118.07 64.968 51.33-19.223 90.31-39.2 118.07-64.968 16.539-15.348 29.11-32.807 37.969-53.42h-312.08z" fill="#3c82c2"/><g stroke="#000" stroke-width="1.167"><g fill-rule="evenodd"><path fill="url(#I)" stroke-miterlimit="10" d="m184.89 342.86h73.37v232.87h-73.37v-232.87z"/><path fill="url(#J)" d="m182.8 342.86h77.56v-1.748c0-1.585 1.285-2.87 2.87-2.87h1.748v-9.937h-86.79v9.937h1.748c1.585 0 2.87 1.285 2.87 2.87v1.748z"/><path fill="url(#K)" d="m223.66 275.25c9.139 21.12 21.896 40.4 36.12 53.06h-76.41c14.227-12.654 26.984-31.941 36.12-53.06h4.164z"/></g><path fill="none" stroke-miterlimit="10" d="m192.39 357.41v14.556m58.37-14.556v14.556m-29.19-14.556v14.556m-14.593-29.11v14.556m29.19-14.556v14.556m-51.28-.0001h73.37m-73.37 14.554h73.37m-73.37 14.555h11.04m51.34 0h10.99m-73.37 14.554h73.37m-73.37 14.554h73.37m-73.37 14.554h73.37m-73.37 14.555h73.37m-73.37 14.554h73.37m-73.37 14.554h73.37m-73.37 14.555h73.37m-73.37 14.554h23.05m27.505 0h22.807m-73.37 29.11h17.668m38.28 0h17.42m-73.37 14.555h17.668m38.28 0h17.42m-73.37 14.554h17.668m38.28 0h17.42m-45.25-160.1v-29.11m17.12 29.11v-29.11m-34.25 29.11v-29.11m51.37 29.11v-29.11m-54.871 43.664v14.556m58.37-14.556v14.556m-58.37 14.553v14.556m58.37-14.556v14.556m-29.19-14.556v14.556m-14.593-29.11v14.556m29.19-14.556v14.556m-43.78 29.11v14.556m58.37-14.556v14.556m-29.19-14.556v14.556m-14.593-29.11v14.556m29.19-14.556v14.556m-43.78 29.11v14.556m58.37-14.556v14.556m-43.78-29.11v14.556m29.19-14.556v14.556m-43.78 29.11v14.556m58.37-14.556v14.556m-58.37 14.554v14.556m58.37-14.556v14.556m-65.869-58.22h17.668m38.28 0h17.42m-65.869-189.21v14.556m58.37-14.556v14.556m-29.19-14.556v14.556m-23.99-30.04h47.98m-37.28-15.707h26.571m-14.16-21.49c-3 18.929-7.197 37.626-15.529 52.679m17.279-52.679c3 18.929 7.197 37.626 15.529 52.679"/></g><g fill-rule="evenodd"><path d="m208.33 393.01c0-3.599-1.634-6.817-4.202-8.95-2.567 2.134-4.203 5.351-4.203 8.95v36.997h8.404v-36.997"/><path d="m242.85 393.01c0-3.599-1.634-6.817-4.202-8.95-2.567 2.134-4.203 5.351-4.203 8.95v36.997h8.404v-36.997"/><path d="m225.59 393.01c0-3.599-1.634-6.817-4.202-8.95-2.567 2.134-4.203 5.351-4.203 8.95v36.997h8.404v-36.997"/></g><path fill="#fff" d="m237.23 519.02l-.003 56.27h-27.969v-56.28c.003-8.429 5.534-17.418 13.987-19.599 8.428 2.202 13.986 11.11 13.986 19.606"/><g stroke="#000"><g fill-rule="evenodd"><path fill="url(#H)" d="m222.38 497.87h2.189v17.466c1 .34 1.792 1.132 2.132 2.133h.955c.339-1 1.132-1.794 2.134-2.134v-13.654h2.189v13.654c1 .34 1.792 1.132 2.132 2.133h5.109v2.19h-5.11c-.339 1-1.131 1.792-2.131 2.132v15.446c1 .34 1.792 1.132 2.132 2.133h5.109v2.19h-5.11c-.339 1-1.131 1.792-2.131 2.132v15.446c1 .34 1.792 1.132 2.132 2.133h5.109v2.19h-5.11c-.339 1-1.131 1.792-2.131 2.131v9.09h7.242v1.046h-7.242-2.189-5.221-2.189-5.22-2.189-7.242v-1.046h7.242v-9.09c-1-.34-1.792-1.131-2.131-2.132h-5.11v-2.19h5.109c.339-1 1.131-1.794 2.132-2.133v-15.445c-1-.34-1.792-1.131-2.131-2.132h-5.11v-2.19h5.109c.339-1 1.131-1.793 2.132-2.133v-15.445c-1-.34-1.792-1.131-2.131-2.132h-5.11v-2.19h5.109c.339-1 1.131-1.793 2.132-2.133v-14.457h2.189v14.456c1 .339 1.794 1.132 2.133 2.134h.955c.339-1 1.131-1.794 2.132-2.133v-17.465zm7.41 76.81v-9.09c-1-.339-1.793-1.132-2.133-2.132h-.957c-.339 1-1.131 1.792-2.131 2.131v9.09h5.221zm-7.41 0v-9.09c-1-.339-1.792-1.132-2.131-2.132h-.956c-.34 1-1.131 1.793-2.132 2.132v9.09h5.22zm5.276-13.413c.339-1 1.132-1.794 2.134-2.134v-15.444c-1-.339-1.793-1.132-2.133-2.132h-.957c-.34 1-1.131 1.792-2.131 2.132v15.446c1 .34 1.792 1.132 2.132 2.133h.955zm-7.409 0c.339-1 1.131-1.794 2.132-2.133v-15.445c-1-.339-1.792-1.132-2.131-2.132h-.956c-.34 1-1.131 1.793-2.132 2.132v15.444c1 .339 1.794 1.132 2.133 2.134h.955zm7.409-21.9c.339-1 1.132-1.794 2.134-2.134v-15.444c-1-.339-1.793-1.132-2.133-2.132h-.957c-.34 1-1.131 1.792-2.131 2.132v15.446c1 .34 1.792 1.132 2.132 2.133h.955zm-7.409 0c.339-1 1.131-1.793 2.132-2.133v-15.445c-1-.339-1.792-1.132-2.131-2.132h-.956c-.34 1-1.131 1.793-2.132 2.132v15.444c1 .339 1.794 1.132 2.133 2.134h.955z"/><g stroke-miterlimit="10"><path fill="url(#G)" d="m240.84 575.73v-58.22c0-11.152-8.352-20.733-19.14-22.08-10.787 1.344-19.14 10.925-19.14 22.08v58.22h7.417v-56.714c0-8.367 5.643-16.9 13.266-18.863 7.623 1.963 13.267 10.497 13.267 18.863v56.714h4.328z"/><g stroke-width="1.167"><path fill="#df212c" d="m222.75 268.43c1.321.589 2.243 1.914 2.243 3.453 0 2.086-1.691 3.778-3.778 3.778-2.085 0-3.777-1.692-3.777-3.778 0-1.539.922-2.864 2.243-3.453v-24.525h28.948l-7.732 7.732 7.731 7.732h-25.878v9.06z"/><path fill="url(#M)" d="m404.12 415.63h77.56v-1.748c0-1.585 1.285-2.87 2.87-2.87h1.748v-9.937h-86.79v9.937h1.747c1.585 0 2.87 1.285 2.87 2.87v1.748z"/></g></g><g stroke-width="1.167"><path fill="url(#N)" d="m444.98 348.02c9.139 21.12 21.896 40.4 36.12 53.06h-76.41c14.227-12.654 26.984-31.941 36.12-53.06h4.164z"/><path fill="url(#L)" d="m406.21 415.63h73.37v160.1h-73.37v-160.1z"/></g></g><path fill="none" stroke-width="1.167" stroke-miterlimit="10" d="m406.21 430.18h73.37m-73.37 14.554h73.37m-73.37 14.554h73.37m-73.37 14.555h73.37m-73.37 14.554h73.37m-73.37 29.11h17.544m38.4 0h17.42m-73.37 14.555h17.544m38.4 0h17.42m-73.37 14.554h17.544m38.4 0h17.42m-65.87-116.44v14.556m58.37-14.556v14.556m-29.19-14.556v14.556m-14.593-29.11v14.556m29.19-14.556v14.556m-43.78 29.11v14.556m58.37-14.556v14.556m-29.19-14.556v14.556m-14.593-29.11v14.556m29.19-14.556v14.556m-43.78 29.11v14.556m58.37-14.556v14.556m-43.78-29.11v14.556m29.19-14.556v14.556m-43.78 29.11v14.556m58.37-14.556v14.556m-58.37 14.554v14.556m58.37-14.556v14.556m-65.869-58.22h22.93m27.505 0h22.931m-73.37 58.22h17.545m38.28 0h17.545m-36.683-72.932v7.303m-29.19-94.47v14.556m58.37-14.556v14.556m-29.19-14.556v14.556m-23.99-30.04h47.98m-37.27-15.707h26.571m-14.16-21.49c-3 18.929-7.197 37.626-15.529 52.679m17.279-52.679c3 18.929 7.197 37.626 15.529 52.679"/></g><g fill-rule="evenodd"><path d="m431.99 430.05h-8.404v34.776h8.404v-34.776"/><path d="m461.99 430.05h-8.404v34.776h8.404v-34.776"/></g><path fill="#fff" d="m458.43 519.02l-.003 56.27h-27.969v-56.28c.003-8.429 5.534-17.418 13.987-19.599 8.428 2.202 13.986 11.11 13.986 19.606"/><g fill-rule="evenodd"><g stroke="#000"><path fill="url(#F)" d="m443.57 497.87h2.189v17.466c1 .34 1.793 1.132 2.132 2.133h.955c.339-1 1.132-1.794 2.134-2.134v-13.654h2.189v13.654c1 .34 1.793 1.132 2.132 2.133h5.109v2.19h-5.11c-.339 1-1.131 1.792-2.131 2.132v15.446c1 .34 1.793 1.132 2.132 2.133h5.109v2.19h-5.11c-.339 1-1.131 1.792-2.131 2.132v15.446c1 .34 1.793 1.132 2.132 2.133h5.109v2.19h-5.11c-.339 1-1.131 1.792-2.131 2.131v9.09h7.242v1.046h-7.242-2.189-5.221-2.189-5.22-2.189-7.242v-1.046h7.242v-9.09c-1-.34-1.792-1.131-2.131-2.132h-5.11v-2.19h5.109c.339-1 1.131-1.794 2.132-2.133v-15.445c-1-.34-1.792-1.131-2.131-2.132h-5.11v-2.19h5.109c.339-1 1.131-1.793 2.132-2.133v-15.445c-1-.34-1.792-1.131-2.131-2.132h-5.11v-2.19h5.109c.339-1 1.131-1.793 2.132-2.133v-14.457h2.189v14.456c1 .339 1.794 1.132 2.133 2.134h.955c.339-1 1.131-1.794 2.132-2.133v-17.465zm7.41 76.81v-9.09c-1-.339-1.793-1.132-2.133-2.132h-.957c-.339 1-1.131 1.792-2.131 2.131v9.09h5.221zm-7.41 0v-9.09c-1-.339-1.792-1.132-2.131-2.132h-.956c-.34 1-1.131 1.793-2.132 2.132v9.09h5.22zm5.276-13.413c.339-1 1.132-1.794 2.134-2.134v-15.444c-1-.339-1.793-1.132-2.133-2.132h-.957c-.34 1-1.131 1.792-2.131 2.132v15.446c1 .34 1.793 1.132 2.132 2.133h.955zm-7.409 0c.339-1 1.131-1.794 2.132-2.133v-15.445c-1-.339-1.792-1.132-2.131-2.132h-.956c-.34 1-1.131 1.793-2.132 2.132v15.444c1 .339 1.794 1.132 2.133 2.134h.955zm7.409-21.9c.339-1 1.132-1.794 2.134-2.134v-15.444c-1-.339-1.793-1.132-2.133-2.132h-.957c-.34 1-1.131 1.792-2.131 2.132v15.446c1 .34 1.793 1.132 2.132 2.133h.955zm-7.409 0c.339-1 1.131-1.793 2.132-2.133v-15.445c-1-.339-1.792-1.132-2.131-2.132h-.956c-.34 1-1.131 1.793-2.132 2.132v15.444c1 .339 1.794 1.132 2.133 2.134h.955z"/><path fill="url(#E)" d="m462.04 575.73v-58.22c0-11.152-8.352-20.733-19.14-22.08-10.787 1.344-19.14 10.925-19.14 22.08v58.22h7.417v-56.714c0-8.367 5.643-16.9 13.266-18.863 7.623 1.963 13.267 10.497 13.267 18.863v56.714h4.328z"/><path fill="#df212c" stroke-width="1.167" stroke-miterlimit="10" d="m444.07 341.2c1.321.589 2.243 1.913 2.243 3.453 0 2.086-1.692 3.778-3.778 3.778-2.085 0-3.777-1.692-3.777-3.778 0-1.539.922-2.864 2.243-3.453v-24.525h28.948l-7.732 7.732 7.731 7.732h-25.878v9.06z"/><path fill="url(#D)" d="m262.55 571.44h8.918v-18.404c-1-.339-1.795-1.131-2.134-2.134h-6.784v20.538zm56.06-50.34c1 .34 1.791 1.131 2.131 2.131h5.716v-23.286h-5.715c-.339 1-1.131 1.793-2.132 2.133v19.02zm2.132 4.321c-.339 1-1.131 1.793-2.132 2.133v19.02c1 .34 1.791 1.131 2.131 2.131h5.716v-23.286h-5.715zm-4.321 2.134c-1-.339-1.795-1.131-2.134-2.134h-4.783c-.339 1-1.131 1.793-2.132 2.133v19.02c1 .34 1.792 1.131 2.131 2.132h4.784c.34-1 1.132-1.793 2.133-2.132v-19.02zm-2.133-4.323c.34-1 1.132-1.793 2.133-2.132v-19.02c-1-.339-1.794-1.132-2.134-2.134h-4.783c-.339 1-1.131 1.793-2.132 2.133v19.02c1 .34 1.791 1.131 2.131 2.131h4.785zm-9.105 4.323c-1-.339-1.795-1.131-2.134-2.134h-4.783c-.339 1-1.131 1.793-2.132 2.133v19.02c1 .34 1.792 1.131 2.131 2.132h4.784c.34-1 1.132-1.793 2.133-2.132v-19.02zm-2.133-4.323c.34-1 1.132-1.793 2.133-2.132v-19.02c-1-.339-1.794-1.132-2.134-2.134h-4.783c-.339 1-1.131 1.793-2.132 2.133v19.02c1 .34 1.791 1.131 2.131 2.131h4.785zm-9.106 4.323c-1-.339-1.795-1.131-2.134-2.134h-4.783c-.339 1-1.131 1.793-2.132 2.133v19.02c1 .34 1.792 1.131 2.131 2.132h4.784c.34-1 1.132-1.793 2.133-2.132v-19.02zm-2.133-4.323c.34-1 1.132-1.793 2.133-2.132v-19.02c-1-.339-1.794-1.132-2.134-2.134h-4.783c-.339 1-1.131 1.793-2.132 2.133v19.02c1 .34 1.791 1.131 2.131 2.131h4.785zm-9.106 4.323c-1-.339-1.795-1.131-2.134-2.134h-4.784c-.339 1-1.131 1.793-2.132 2.133v19.02c1 .34 1.791 1.131 2.131 2.131h4.785c.34-1 1.132-1.793 2.133-2.132v-19.02zm-2.133-4.323c.34-1 1.132-1.793 2.133-2.132v-19.02c-1-.339-1.794-1.132-2.134-2.134h-4.784c-.339 1-1.131 1.793-2.132 2.133v19.02c1 .34 1.791 1.131 2.131 2.131h4.786zm-9.106 4.323c-1-.339-1.795-1.131-2.134-2.134h-6.784v23.286h6.785c.34-1 1.132-1.793 2.133-2.132v-19.02zm-2.133-4.323c.34-1 1.132-1.793 2.133-2.132v-19.02c-1-.339-1.794-1.132-2.134-2.134h-6.784v23.286h6.785zm6.454 27.665c-.339 1-1.131 1.793-2.132 2.133v18.405h9.05v-18.405c-1-.339-1.794-1.132-2.134-2.134h-4.784zm11.239 0c-.339 1-1.131 1.793-2.132 2.133v18.406h9.05v-18.405c-1-.339-1.794-1.132-2.134-2.134h-4.783zm11.238 0c-.339 1-1.131 1.793-2.132 2.133v18.406h9.05v-18.405c-1-.339-1.794-1.132-2.134-2.134h-4.783zm11.238 0c-.339 1-1.131 1.793-2.132 2.133v18.406h9.05v-18.404c-1-.339-1.794-1.132-2.134-2.134h-4.783zm11.238 0c-.339 1-1.131 1.793-2.132 2.133v18.405h7.847v-20.538h-5.715zm-47.08-55.27c1 .34 1.791 1.131 2.131 2.131h4.785c.34-1 1.132-1.793 2.133-2.132v-19.286l-.092-.033c-2.387 2.035-4.693 4.171-6.911 6.398.171.406.266.852.266 1.32 0 1.498-.968 2.772-2.312 3.228v8.374zm-4.322 2.131c.34-1 1.132-1.793 2.133-2.132v-8.373l-.045-.016c-2.982 3.333-5.779 6.845-8.371 10.521h6.283zm15.561-2.132c1 .34 1.792 1.131 2.131 2.132h4.784c.34-1 1.132-1.793 2.133-2.132v-26.798c-.318-.108-.614-.261-.882-.452-2.01 1.351-3.972 2.765-5.891 4.241.024.162.036.326.036.494 0 1.498-.968 2.771-2.312 3.228v19.288zm11.238 0c1 .34 1.792 1.131 2.131 2.132h4.784c.34-1 1.132-1.793 2.133-2.132v-33.19c-.403-.137-.771-.346-1.091-.614-1.93 1-3.831 2.064-5.7 3.176.034.195.053.395.053.599 0 1.498-.968 2.772-2.312 3.228v26.8zm11.238 0c1 .34 1.792 1.131 2.131 2.132h4.784c.34-1 1.132-1.793 2.133-2.132v-37.05c-.789-.267-1.449-.815-1.859-1.526-1.644.65-3.271 1.339-4.88 2.066l.002.098c0 1.498-.968 2.772-2.312 3.228v33.19zm11.238 0c1 .34 1.791 1.131 2.131 2.131h5.716v-44.653c-1.878.505-3.741 1.06-5.584 1.662.032.188.05.38.05.576 0 1.498-.968 2.771-2.312 3.228v37.06zm-44.953-14.828c.208.071.407.161.595.269 2.138-2.141 4.356-4.198 6.648-6.166-.322-.52-.507-1.134-.507-1.79 0-1.499.967-2.771 2.312-3.227v-13.57c-3.166 2.704-6.185 5.61-9.05 8.664v15.821zm-3.952 5.084c-.348-.535-.55-1.173-.55-1.859 0-1.499.967-2.771 2.312-3.227v-13.423c-3.18 3.572-6.156 7.318-8.918 11.165v16.179c2.247-3.062 4.635-6.01 7.156-8.835zm15.19-15.998c.474.161.902.423 1.257.762 1.836-1.402 3.714-2.751 5.63-4.04-.098-.318-.15-.656-.15-1.01 0-1.499.967-2.771 2.312-3.227v-14.355c-3.13 1.963-6.148 4.135-9.05 6.478v15.39zm11.238-7.512c.451.153.859.398 1.203.712 1.841-1.094 3.714-2.139 5.615-3.13-.053-.24-.081-.49-.081-.746 0-1.499.967-2.771 2.312-3.227v-13.855c-3.107 1.317-6.124 2.848-9.05 4.562v15.684zm11.238-6.39c.613.208 1.147.586 1.547 1.077 1.72-.774 3.462-1.507 5.222-2.196.182-1.286 1.08-2.341 2.279-2.748v-13.681c-3.091.727-6.108 1.669-9.05 2.804v14.743zm11.238-3.866c.447.152.853.393 1.195.705 2.191-.725 4.409-1.385 6.651-1.976v-13.967c-2.663.201-5.279.568-7.847 1.081v14.157zm-60.35 123.61v-98.54c16.759-23.86 41.788-44.506 72.48-44.768v143.3h-72.48z"/><path fill="url(#C)" d="m401.93 571.44h-8.918v-18.404c1-.339 1.795-1.131 2.134-2.134h6.784v20.538zm-56.06-50.34c-1 .34-1.791 1.131-2.131 2.131h-5.716v-23.286h5.715c.339 1 1.131 1.793 2.132 2.133v19.02zm-2.132 4.321c.339 1 1.131 1.793 2.132 2.133v19.02c-1 .34-1.791 1.131-2.131 2.131h-5.716v-23.286h5.715zm4.321 2.134c1-.339 1.795-1.131 2.134-2.134h4.783c.339 1 1.131 1.793 2.132 2.133v19.02c-1 .34-1.792 1.131-2.131 2.132h-4.784c-.34-1-1.132-1.793-2.133-2.132v-19.02zm2.133-4.323c-.34-1-1.132-1.793-2.133-2.132v-19.02c1-.339 1.794-1.132 2.134-2.134h4.783c.339 1 1.131 1.793 2.132 2.133v19.02c-1 .34-1.791 1.131-2.131 2.131h-4.785zm9.105 4.323c1-.339 1.795-1.131 2.134-2.134h4.783c.339 1 1.131 1.793 2.132 2.133v19.02c-1 .34-1.792 1.131-2.131 2.132h-4.785c-.34-1-1.132-1.793-2.133-2.132v-19.02zm2.133-4.323c-.34-1-1.132-1.793-2.133-2.132v-19.02c1-.339 1.794-1.132 2.134-2.134h4.783c.339 1 1.131 1.793 2.132 2.133v19.02c-1 .34-1.791 1.131-2.131 2.131h-4.785zm9.106 4.323c1-.339 1.795-1.131 2.134-2.134h4.783c.339 1 1.131 1.793 2.132 2.133v19.02c-1 .34-1.792 1.131-2.131 2.132h-4.784c-.34-1-1.132-1.793-2.133-2.132v-19.02zm2.133-4.323c-.34-1-1.132-1.793-2.133-2.132v-19.02c1-.339 1.794-1.132 2.134-2.134h4.783c.339 1 1.131 1.793 2.132 2.133v19.02c-1 .34-1.791 1.131-2.131 2.131h-4.785zm9.106 4.323c1-.339 1.795-1.131 2.134-2.134h4.784c.339 1 1.131 1.793 2.132 2.133v19.02c-1 .34-1.791 1.131-2.131 2.131h-4.785c-.34-1-1.132-1.793-2.133-2.132v-19.02zm2.133-4.323c-.34-1-1.132-1.793-2.133-2.132v-19.02c1-.339 1.794-1.132 2.134-2.134h4.784c.339 1 1.131 1.793 2.132 2.133v19.02c-1 .34-1.791 1.131-2.131 2.131h-4.785zm9.106 4.323c1-.339 1.795-1.131 2.134-2.134h6.784v23.286h-6.785c-.34-1-1.132-1.793-2.133-2.132v-19.02zm2.133-4.323c-.34-1-1.132-1.793-2.133-2.132v-19.02c1-.339 1.794-1.132 2.134-2.134h6.784v23.286h-6.785zm-6.454 27.665c.339 1 1.131 1.793 2.132 2.133v18.405h-9.05v-18.405c1-.339 1.794-1.132 2.134-2.134h4.784zm-11.239 0c.339 1 1.131 1.793 2.132 2.133v18.406h-9.05v-18.405c1-.339 1.794-1.132 2.134-2.134h4.783zm-11.238 0c.339 1 1.131 1.793 2.132 2.133v18.406h-9.05v-18.405c1-.339 1.794-1.132 2.134-2.134h4.783zm-11.238 0c.339 1 1.131 1.793 2.132 2.133v18.406h-9.05v-18.404c1-.339 1.794-1.132 2.134-2.134h4.783zm-11.238 0c.339 1 1.131 1.793 2.132 2.133v18.405h-7.847v-20.538h5.715zm47.08-55.27c-1 .34-1.791 1.131-2.131 2.131h-4.785c-.34-1-1.132-1.793-2.133-2.132v-19.286l.092-.033c2.386 2.035 4.693 4.171 6.911 6.398-.171.406-.266.852-.266 1.32 0 1.498.968 2.772 2.312 3.228v8.374zm4.322 2.131c-.34-1-1.132-1.793-2.133-2.132v-8.373l.045-.016c2.982 3.333 5.779 6.845 8.371 10.521h-6.283zm-15.561-2.132c-1 .34-1.792 1.131-2.131 2.132h-4.784c-.34-1-1.132-1.793-2.133-2.132v-26.798c.318-.108.614-.261.882-.452 2.01 1.351 3.972 2.765 5.891 4.241-.024.162-.036.326-.036.494 0 1.498.968 2.771 2.312 3.228v19.288zm-11.238 0c-1 .34-1.792 1.131-2.131 2.132h-4.785c-.34-1-1.132-1.793-2.133-2.132v-33.19c.403-.137.771-.346 1.091-.614 1.93 1 3.831 2.064 5.7 3.176-.034.195-.053.395-.053.599 0 1.498.968 2.772 2.312 3.228v26.8zm-11.238 0c-1 .34-1.792 1.131-2.131 2.132h-4.784c-.34-1-1.132-1.793-2.133-2.132v-37.05c.789-.267 1.449-.815 1.859-1.526 1.644.65 3.271 1.339 4.88 2.066l-.002.098c0 1.498.968 2.772 2.312 3.228v33.19zm-11.238 0c-1 .34-1.791 1.131-2.131 2.131h-5.716v-44.653c1.878.505 3.741 1.06 5.584 1.662-.032.188-.05.38-.05.576 0 1.498.968 2.771 2.312 3.228v37.06zm44.953-14.828c-.208.071-.407.161-.595.269-2.138-2.141-4.356-4.198-6.648-6.166.322-.52.507-1.134.507-1.79 0-1.499-.967-2.771-2.312-3.227v-13.57c3.166 2.704 6.185 5.61 9.05 8.664v15.821zm3.952 5.084c.348-.535.55-1.173.55-1.859 0-1.499-.967-2.771-2.312-3.227v-13.423c3.18 3.572 6.156 7.318 8.918 11.165v16.179c-2.247-3.062-4.635-6.01-7.156-8.835zm-15.19-15.998c-.474.161-.902.423-1.257.762-1.836-1.402-3.714-2.751-5.63-4.04.098-.318.15-.656.15-1.01 0-1.499-.967-2.771-2.312-3.227v-14.355c3.13 1.963 6.148 4.135 9.05 6.478v15.39zm-11.238-7.512c-.451.153-.859.398-1.203.712-1.841-1.094-3.714-2.139-5.615-3.13.053-.24.082-.49.082-.746 0-1.499-.967-2.771-2.312-3.227v-13.855c3.107 1.317 6.124 2.848 9.05 4.562v15.684zm-11.238-6.39c-.613.208-1.147.586-1.547 1.077-1.72-.774-3.462-1.507-5.222-2.196-.182-1.286-1.08-2.341-2.279-2.748v-13.681c3.091.727 6.108 1.669 9.05 2.804v14.743zm-11.238-3.866c-.447.152-.853.393-1.195.705-2.191-.725-4.409-1.385-6.651-1.976v-13.967c2.663.201 5.279.568 7.847 1.081v14.157zm60.35 123.61v-98.54c-16.759-23.86-41.788-44.506-72.48-44.768v143.3h72.48z"/></g><path d="m419.79 591.58l-1.844 4.918c-3.077 7.199-6.515 13.716-10.182 19.672-9.174 14.9-21.433 29.837-35.607 40.28-14.14 10.416-31.504 14.865-49.01 12.833-15.898-1.845-30.787-8.479-43.08-18.506-5.814-4.74-10.932-10.261-15.864-15.895-8.04-9.177-16.06-18.354-24.47-26.677l45.819-20.908c3.726 9.09 7.769 18.12 12.901 26.518 1.911 3.127 3.969 6.161 6.194 9.04 8.375 10.856 20.21 16.727 33.96 17.647 23.48 1.572 53.26-13 67.54-42.42 1.206-2.489.781-4.619 1.265-7.201l12.386.693" fill="url(#B)"/><path d="m419.79 591.58l-1.844 4.918c-1.464 3.425-3.01 6.695-4.623 9.824-3.357-.781-7.03-2.653-8.926-4.863.603-1.102 1.185-2.224 1.742-3.371 1.206-2.489.781-4.619 1.265-7.201l12.386.693" fill="url(#A)"/><g stroke="#000"><path fill="url(#9)" d="m336.74 597.71c-2.647-.967-4.167-1.863-6.957-.333l-6.421-8.612c.725-.4 1.395-.927 2.176-1.199 3.661-1.274 6.944.002 10.299 1.398 5.885 2.448 6.512 3.086 12.382.218 3.265-1.595 6.465-3.176 10.196-2.125.796.224 1.388.602 2.136.957l-5.781 8.547c-2.876-1.36-4.372-.445-6.924.752-4.238 1.986-6.733 1.996-11.11.397"/><path fill="url(#8)" d="m319.93 615.46c16.287-4.543 28.859-13.541 39.29-28.14 2.496 1.014 4.618 2.452 6.57 4.081-10.476 17.945-24.86 28.823-42.881 34.03l-.369-5.324z"/><path fill="url(#7)" d="m368.53 615.14c-17.786-1.755-32.13-12.197-44.07-27.03-2.43 1.163-4.461 2.726-6.312 4.47 12.01 17.983 28.15 28.404 47.45 32.16l.719-5.192z"/><g fill="#fff" stroke-width=".866" stroke-miterlimit="10"><path d="m373.46 613.2c4.854 0 8.79 3.936 8.79 8.79 0 4.854-3.936 8.79-8.79 8.79s-8.79-3.936-8.79-8.79c0-4.854 3.936-8.79 8.79-8.79zm0 2.619c3.408 0 6.172 2.764 6.172 6.172 0 3.409-2.763 6.172-6.172 6.172s-6.172-2.764-6.172-6.172 2.763-6.172 6.172-6.172z"/><path d="m315.68 613.02c-4.854 0-8.79 3.936-8.79 8.79 0 4.854 3.936 8.79 8.79 8.79s8.79-3.936 8.79-8.79c0-4.854-3.936-8.79-8.79-8.79zm0 2.619c-3.408 0-6.172 2.764-6.172 6.172 0 3.408 2.764 6.172 6.172 6.172 3.408 0 6.172-2.764 6.172-6.172 0-3.408-2.764-6.172-6.172-6.172z"/></g></g><path d="m291.17 658.49c-3.888-2.274-7.604-4.855-11.11-7.712-4.04-3.296-7.749-6.971-11.29-10.797 12.39-.588 31.29-10.771 33.16-20.825.876 1.258 1.779 2.495 2.712 3.705 3.814 4.944 8.347 8.852 13.451 11.732.193 9.39-15.706 21.604-26.924 23.897" fill="url(#6)"/><path d="m394.62 634.68c-3.745 4.575-7.763 8.954-12.01 12.983-.578-5.323-5.586-13.202-10.245-14.833 4.406-2.28 8.697-5.057 12.752-8.318 3.683.824 8.151 6.03 9.505 10.168" fill="url(#5)"/><path d="m257.01 626.71c-5.663-6.392-11.379-12.658-17.287-18.503l45.819-20.908c2.909 7.098 6.01 14.158 9.675 20.909-2.504 11.08-26.395 21.04-38.21 18.502" fill="url(#4)"/><path d="m257.01 626.71c11.812 2.538 35.7-7.426 38.21-18.5 2.042 3.763 4.261 7.436 6.708 10.95-1.876 10.05-20.769 20.234-33.16 20.822-3.911-4.234-7.848-8.853-11.757-13.272" fill="url(#3)"/></g><g stroke="#000"><g stroke-miterlimit="10"><path fill="none" d="m279.39 650.23c11.77-1.34 29.27-12.486 29.9-22.18m8.8 6.546c.193 9.39-15.706 21.604-26.924 23.897m-22.398-18.509c12.39-.588 31.29-10.771 33.16-20.825m-6.708-10.949c-2.504 11.08-26.395 21.04-38.21 18.502m162.78-35.13l-1.844 4.918c-3.077 7.199-6.515 13.716-10.182 19.672-9.174 14.9-21.433 29.837-35.607 40.28-14.14 10.416-31.504 14.865-49.01 12.833-15.898-1.845-30.787-8.479-43.08-18.506-5.814-4.74-10.932-10.261-15.864-15.895-8.04-9.177-16.06-18.354-24.47-26.677m45.819-20.908c3.726 9.09 7.769 18.12 12.901 26.518 1.911 3.127 3.969 6.161 6.194 9.04 8.375 10.856 20.21 16.727 33.96 17.647 23.48 1.572 53.26-13 67.54-42.42 1.206-2.489.781-4.619 1.265-7.201m5.919 15.436c-3.357-.781-7.03-2.653-8.926-4.863m-19.3 23.05c3.683.824 8.151 6.03 9.505 10.168m-12.01 12.983c-.57-4.87-5.58-12.75-10.24-14.83m16.438 8.549c-.67-4.563-5.776-11.368-10-12.295"/><g fill-rule="evenodd"><path fill="#fff" d="m413.6 587.88c3.434 0 6.218 1.549 6.218 3.46 0 1.911-2.784 3.46-6.218 3.46-3.434 0-6.218-1.549-6.218-3.46 0-1.911 2.784-3.46 6.218-3.46z"/><path fill="#e6e6e6" d="m413.6 589.66c1.988 0 3.6.754 3.6 1.683 0 .929-1.612 1.683-3.6 1.683-1.988 0-3.6-.754-3.6-1.683 0-.929 1.612-1.683 3.6-1.683z"/></g></g><g fill-rule="evenodd"><path fill="url(#2)" d="m258.8 589.25c12.723-5.665 24.67-6.598 26.68-2.085 2.01 4.513-6.678 12.768-19.402 18.433-12.723 5.665-24.67 6.599-26.679 2.085-2.01-4.514 6.678-12.768 19.401-18.433"/><path fill="url(#1)" d="m260.46 591.07c10.525-4.687 20.21-5.895 21.637-2.698 1.423 3.196-5.958 9.589-16.483 14.275-10.525 4.687-20.21 5.895-21.637 2.698-1.423-3.197 5.958-9.589 16.483-14.276"/></g></g></g></svg>