<svg xmlns="http://www.w3.org/2000/svg" fill-rule="evenodd" height="362" width="300" viewBox="0 0 84.666667 102.16445" xmlns:xlink="http://www.w3.org/1999/xlink"><defs><linearGradient id="P" gradientUnits="userSpaceOnUse" x2=".89" gradientTransform="matrix(0 5.22425-87.6529 0 343.74 393.55)" x1=".11" xlink:href="#1"/><linearGradient id="O" gradientUnits="userSpaceOnUse" x2=".89" gradientTransform="matrix(0 5.22425-87.6529 0 343.74 387.92)" x1=".11" xlink:href="#1"/><linearGradient id="Z" gradientUnits="userSpaceOnUse" x2=".89" gradientTransform="matrix(0 5.22425-87.6529 0 343.74 382.29)" x1=".11" xlink:href="#1"/><linearGradient id="N" gradientUnits="userSpaceOnUse" x2=".89" gradientTransform="matrix(0 5.22539-87.6506 0 343.74 421.72)" x1=".11" xlink:href="#1"/><linearGradient id="M" gradientUnits="userSpaceOnUse" x2=".89" gradientTransform="matrix(0 5.22539-87.6506 0 343.74 432.99)" x1=".11" xlink:href="#1"/><linearGradient id="J" gradientUnits="userSpaceOnUse" x2=".89" gradientTransform="matrix(0 5.21405-87.6506 0 343.74 449.89)" x1=".11" xlink:href="#1"/><linearGradient id="L" gradientUnits="userSpaceOnUse" x2=".89" gradientTransform="matrix(0 5.22539-87.6506 0 343.74 438.62)" x1=".11" xlink:href="#1"/><linearGradient id="K" gradientUnits="userSpaceOnUse" x2=".89" gradientTransform="matrix(0 5.22539-87.6506 0 343.74 444.25)" x1=".11" xlink:href="#1"/><linearGradient id="Q" gradientUnits="userSpaceOnUse" x2=".89" gradientTransform="matrix(0 5.22425-87.6529 0 343.74 410.45)" x1=".11" xlink:href="#1"/><linearGradient id="Y" gradientUnits="userSpaceOnUse" x2=".89" gradientTransform="matrix(0 5.22425-87.6529 0 343.74 376.65)" x1=".11" xlink:href="#1"/><linearGradient id="X" gradientUnits="userSpaceOnUse" x2=".89" gradientTransform="matrix(0 5.22425-87.6529 0 343.74 371.02)" x1=".11" xlink:href="#1"/><linearGradient id="R" gradientUnits="userSpaceOnUse" x2=".89" gradientTransform="matrix(0 5.22425-87.6529 0 343.74 416.09)" x1=".11" xlink:href="#1"/><linearGradient id="W" gradientUnits="userSpaceOnUse" x2=".89" gradientTransform="matrix(0 5.22425-87.6529 0 343.74 365.38)" x1=".11" xlink:href="#1"/><linearGradient id="V" gradientUnits="userSpaceOnUse" x2=".89" gradientTransform="matrix(0 5.22425-87.6529 0 343.74 359.75)" x1=".11" xlink:href="#1"/><linearGradient id="S" gradientUnits="userSpaceOnUse" x2=".89" gradientTransform="matrix(0 5.22425-87.6529 0 343.74 404.82)" x1=".11" xlink:href="#1"/><linearGradient id="U" gradientUnits="userSpaceOnUse" x2=".89" gradientTransform="matrix(0 4.38917-82.1503 0 340.75 354.95)" x1=".11" xlink:href="#1"/><linearGradient id="T" gradientUnits="userSpaceOnUse" x2=".89" gradientTransform="matrix(0 5.22425-87.6529 0 343.74 399.19)" x1=".11" xlink:href="#1"/><linearGradient id="I" gradientUnits="userSpaceOnUse" x2=".89" gradientTransform="matrix(0 5.22539-87.6506 0 343.74 427.35)" x1=".11" xlink:href="#1"/><linearGradient id="6" gradientUnits="userSpaceOnUse" x2=".95" gradientTransform="matrix(-4.76391 0 0-32.35805 216.82 416.58)" x1=".05"><stop stop-color="#ffe600"/><stop stop-color="#fff500" offset="1"/></linearGradient><linearGradient id="5" gradientUnits="userSpaceOnUse" x2=".95" gradientTransform="matrix(-7.7142 0 0-49.1873 224.95 416.69)" x1=".05" xlink:href="#1"/><linearGradient id="H" gradientUnits="userSpaceOnUse" x2=".65" gradientTransform="matrix(0 21.47698-99.3379 0 347.08 455.67)" x1=".35" xlink:href="#C"/><linearGradient id="4" gradientUnits="userSpaceOnUse" x2=".95" gradientTransform="matrix(-7.7142 0 0-58.87446 232.98 416.74)" x1=".05" xlink:href="#1"/><linearGradient id="3" gradientUnits="userSpaceOnUse" x2=".95" gradientTransform="matrix(-7.7142 0 0-58.4765 241.01 416.74)" x1=".05" xlink:href="#1"/><linearGradient id="0" gradientUnits="userSpaceOnUse" x2=".77" gradientTransform="matrix(19.99049 0 0 42.1274 287.46 411.28)" x1=".23"><stop stop-color="#fff500"/><stop stop-color="#ffd900" offset=".5"/><stop stop-color="#fff500" offset="1"/></linearGradient><linearGradient id="2" gradientUnits="userSpaceOnUse" x2=".95" gradientTransform="matrix(-7.7142 0 0-57.083 249.04 416.73)" x1=".05" xlink:href="#1"/><linearGradient id="1" gradientUnits="userSpaceOnUse" x2=".95" gradientTransform="matrix(-7.62803 0 0-57.1493 256.99 416.73)" x1=".05"><stop stop-color="#ffe600"/><stop stop-color="#fff500" offset=".5"/><stop stop-color="#ffcf00" offset="1"/></linearGradient><linearGradient id="7" gradientUnits="userSpaceOnUse" x2=".95" gradientTransform="matrix(-7.62746 0 0-57.1493 346.16 416.73)" x1=".05" xlink:href="#1"/><linearGradient id="8" gradientUnits="userSpaceOnUse" x2=".95" gradientTransform="matrix(-7.71307 0 0-49.1873 378.29 416.69)" x1=".05" xlink:href="#1"/><linearGradient id="E" gradientUnits="userSpaceOnUse" x2=".89" gradientTransform="matrix(0 5.07685-29.02 0 312.9 489.32)" x1=".11" xlink:href="#1"/><linearGradient id="G" gradientUnits="userSpaceOnUse" x2=".65" gradientTransform="matrix(0 21.33241-33.65745 0 314.39 498.24)" x1=".35" xlink:href="#C"/><linearGradient id="F" gradientUnits="userSpaceOnUse" x2=".89" gradientTransform="matrix(0 5.22482-29.0188 0 312.9 483.68)" x1=".11" xlink:href="#1"/><linearGradient id="D" gradientUnits="userSpaceOnUse" x2=".65" gradientTransform="matrix(0 20.90665-61.378 0 328.18 469.94)" x1=".35" xlink:href="#C"/><linearGradient id="C" gradientUnits="userSpaceOnUse" x2=".77" gradientTransform="matrix(-5.69083 0 0-32.35748 383.22 416.58)" x1=".23"><stop stop-color="#fff500"/><stop stop-color="#ffcf00" offset="1"/></linearGradient><linearGradient id="9" gradientUnits="userSpaceOnUse" x2=".95" gradientTransform="matrix(-7.71307 0 0-58.87559 370.26 416.75)" x1=".05" xlink:href="#1"/><linearGradient id="B" gradientUnits="userSpaceOnUse" x2=".95" gradientTransform="matrix(-7.71307 0 0-57.0835 354.2 416.73)" x1=".05" xlink:href="#1"/><linearGradient id="A" gradientUnits="userSpaceOnUse" x2=".95" gradientTransform="matrix(-7.71307 0 0-58.4776 362.23 416.74)" x1=".05" xlink:href="#1"/></defs><path d="m62.58 48.832c.828 0 1.5.672 1.5 1.5v1.5c0 .828-.672 1.5-1.5 1.5h-1.5v-4.5h1.5m0 6c1.657 0 3-1.343 3-3v-1.5c0-1.657-1.343-3-3-3h-3v7.5h3m-6-7.5h1.5v7.5h-1.5v-7.5m-3 0h1.5v7.5h-1.5l-3-4.709v4.709h-1.5v-7.5h1.5l3 4.709v-4.709m-22.5 0h4.5v1.5h-3v1.5h3v1.5h-3v1.5h3v1.5h-4.5v-7.5m-6 0h1.5v6h3v1.5h-4.5v-7.5m15.75 6h1.5c1.242 0 2.25-1.01 2.25-2.25s-1.026-2.246-2.25-2.25h-1.5v1.5h1.5c.414 0 .75.336.75.75s-.336.75-.75.75h-1.5v1.5m1.5-7.5c2.899 0 5.25 2.351 5.25 5.25s-2.351 5.25-5.25 5.25-5.25-2.351-5.25-5.25 2.351-5.25 5.25-5.25m0 1.5c2.071 0 3.75 1.679 3.75 3.75s-1.679 3.75-3.75 3.75-3.75-1.679-3.75-3.75 1.679-3.75 3.75-3.75" fill="#a90000"/><g transform="matrix(.48659 0 0-.48613-102.5 256.22)"><path d="m210.64 527.06v-124.26c7.25-47.49 39.466-68.952 87-85.9 47.533 16.946 79.75 38.41 87 85.9v124.26h-174"/><g fill-rule="nonzero"><path fill="#0094de" d="m212.06 525.65v-122.74c3.583-23.333 13.285-40.27 27.923-53.45 14.645-13.189 34.26-22.671 57.659-31.04 23.395 8.373 43.01 17.855 57.659 31.04 14.638 13.182 24.339 30.12 27.923 53.45v122.74h-171.16z"/><path d="m316.96 353.71v28.389l-4.723 5.412h-29.2l-4.723-5.412v-28.389h-21.236l-.08.062c-.923.727-1.479 1.855-1.479 3.038 0 1.069.453 2.094 1.222 2.817-.768.723-1.221 1.747-1.221 2.816 0 1.069.453 2.093 1.221 2.816-.768.723-1.221 1.748-1.221 2.817 0 1.069.453 2.094 1.221 2.817-.768.723-1.221 1.747-1.221 2.816 0 1.069.453 2.094 1.221 2.817-.768.723-1.221 1.747-1.221 2.816 0 1.069.453 2.093 1.221 2.816-.768.723-1.221 1.748-1.221 2.817 0 1.069.453 2.093 1.221 2.816-.768.723-1.221 1.748-1.221 2.817s.453 2.094 1.221 2.817c-.768.723-1.221 1.747-1.221 2.816 0 1.069.453 2.093 1.221 2.816-.768.723-1.221 1.748-1.221 2.817 0 1.069.453 2.094 1.221 2.817-.768.723-1.221 1.747-1.221 2.816 0 1.069.453 2.094 1.221 2.817-.768.723-1.221 1.747-1.221 2.816s.453 2.093 1.221 2.816c-.768.723-1.221 1.748-1.221 2.817 0 1.069.454 2.094 1.222 2.817-.768.723-1.221 1.748-1.221 2.817 0 1.069.453 2.094 1.221 2.817-.768.723-1.221 1.747-1.221 2.816 0 1.069.453 2.093 1.221 2.816-.768.723-1.221 1.748-1.221 2.817s.453 2.094 1.221 2.817c-.768.723-1.221 1.747-1.221 2.816 0 1.069.453 2.094 1.221 2.817-.768.723-1.221 1.747-1.221 2.816 0 1.069.453 2.093 1.221 2.816-.768.723-1.221 1.748-1.221 2.817 0 .931.345 1.829.941 2.523h-9.952l37.877 28.604c-.683.714-1.071 1.677-1.071 2.669.0001 1.075.445 2.084 1.223 2.813-.774.724-1.224 1.753-1.224 2.82.0001 1.151.514 2.234 1.394 2.966v2.698h-5.396l18.323 15.14 18.323-15.14h-5.396v-2.697c.874-.727 1.394-1.824 1.394-2.971-.0001-1.072-.445-2.088-1.222-2.815.773-.728 1.222-1.747 1.222-2.818-.0001-.998-.386-1.95-1.071-2.665l37.877-28.605h-9.952c.596-.694.941-1.592.941-2.523 0-1.069-.453-2.094-1.221-2.817.768-.723 1.221-1.747 1.221-2.816 0-1.069-.453-2.093-1.221-2.816.768-.723 1.221-1.748 1.221-2.817 0-1.069-.453-2.093-1.221-2.816.768-.723 1.221-1.748 1.221-2.817s-.453-2.094-1.221-2.817c.768-.723 1.221-1.747 1.221-2.816 0-1.069-.453-2.093-1.221-2.816.768-.723 1.221-1.748 1.221-2.817 0-1.069-.453-2.093-1.221-2.817.769-.723 1.222-1.748 1.222-2.817 0-1.069-.453-2.094-1.221-2.817.768-.723 1.221-1.747 1.221-2.816s-.453-2.093-1.221-2.816c.768-.723 1.221-1.748 1.221-2.817 0-1.069-.453-2.093-1.221-2.816.768-.723 1.221-1.748 1.221-2.817 0-1.069-.453-2.094-1.221-2.817.768-.723 1.221-1.747 1.221-2.816 0-1.069-.453-2.093-1.221-2.816.768-.723 1.221-1.748 1.221-2.817s-.453-2.094-1.221-2.817c.768-.723 1.221-1.747 1.221-2.816 0-1.069-.453-2.094-1.221-2.817.768-.723 1.221-1.747 1.221-2.816 0-1.069-.453-2.093-1.221-2.816.768-.723 1.221-1.748 1.221-2.817 0-1.069-.453-2.093-1.221-2.816.768-.723 1.221-1.748 1.221-2.817 0-1.069-.453-2.094-1.221-2.817.768-.723 1.221-1.747 1.221-2.816 0-1.069-.453-2.093-1.221-2.816.768-.723 1.221-1.748 1.221-2.817 0-1.183-.555-2.311-1.478-3.037l-.081-.063h-21.236zm-24.761 143.96v-2.709h10.878v2.709h-10.878m-11.752-42.571v-20.398c0-9.492 7.698-17.191 17.191-17.191 9.492 0 17.191 7.698 17.191 17.191v20.398h-34.381m23.555-55.758v5.271l-3.284 5.429h-6.161l-3.284-5.429v-5.271h12.73"/><path d="m342 339.29h-88.72c-4.797 3.141-9.239 6.511-13.297 10.166-14.638 13.183-24.34 30.12-27.923 53.45v13.374c.328.329.732.729.88.86l.187-.172c1.66-1.464 2.935-3.349 3.827-5.365.961 2.173 2.289 3.957 4.01 5.538 1.734-1.53 3.083-3.427 4.02-5.537.961 2.173 2.289 3.957 4.01 5.537 1.734-1.53 3.083-3.427 4.02-5.537.961 2.173 2.289 3.957 4.01 5.537 1.734-1.53 3.083-3.427 4.02-5.537.961 2.173 2.289 3.957 4.01 5.537 1.731-1.526 3.089-3.429 4.02-5.537.962 2.173 2.289 3.957 4.01 5.537 1.655-1.46 2.945-3.224 3.874-5.219.145-.31.28-.623.405-.938l.002-.004.021-.053v-.053-51.37c5.459-.69 10.871-2.085 15.758-4.416 7.549 3.601 16.197 4.952 24.492 4.952 8.203-.0001 16.995-1.379 24.483-4.952 4.92 2.346 10.308 3.738 15.758 4.423v51.37.053l.021.053.002.004c.126.315.261.628.406.938.929 1.995 2.219 3.759 3.874 5.219 1.723-1.58 3.05-3.364 4.01-5.537.931 2.108 2.289 4.01 4.02 5.537 1.723-1.58 3.051-3.365 4.01-5.537.937 2.11 2.286 4.01 4.02 5.537 1.723-1.58 3.051-3.365 4.01-5.537.937 2.11 2.286 4.01 4.02 5.537 1.723-1.58 3.051-3.365 4.01-5.537.937 2.11 2.286 4.01 4.02 5.537 1.723-1.58 3.051-3.365 4.01-5.538.892 2.02 2.167 3.902 3.827 5.366l.187.172c.18-.159.575-.56.88-.87v-13.363c-3.584-23.333-13.285-40.27-27.923-53.45-4.058-3.655-8.499-7.02-13.296-10.166"/><path d="m297.39 424.36c1.539 0 3.073.39 4.404 1.154 2.169 1.247 3.127 3.057 3.761 5.354.942-3.243.628-6.287-2.034-8.792-1.57-1.476-3.737-2.39-6.133-2.392-2.397 0-4.567.915-6.136 2.393-1.856 1.747-2.812 4.305-2.483 6.803v.002l.022.154v.003c.093.616.276 1.22.433 1.822l.279-1.025c.499-1.802 1.764-3.303 3.359-4.255 1.292-.771 2.849-1.221 4.528-1.222m1.31 7.9h2.627l-1.313-2.275 1.313-2.275h-2.627l-1.313-2.275-1.313 2.275h-2.627l1.313 2.275-1.313 2.275h2.627l1.313 2.275 1.313-2.275m-5.668 3.13c-1.201-1.052-1.892-2.409-2.182-3.963h-4.04c.314 2.523 1.308 4.77 3.137 6.566.651.64 1.385 1.197 2.183 1.653 1.056.604 2.217 1.022 3.415 1.233v5.485l-2.982-2.982h-5.993l10.82 10.821 10.821-10.821h-5.994l-2.981 2.981v-5.485c1.983-.348 3.778-1.245 5.22-2.531 2.059-1.834 3.18-4.224 3.515-6.921h-4.04c-.265 1.408-.892 2.669-1.843 3.642-2.423 2.476-6.43 2.617-9.05.322"/></g><path fill="url(#0)" d="m302.45 435.51c.951-.946 1.638-2.158 1.942-3.514h2.933c-.356 2.264-1.497 4.359-3.202 5.895-1.552 1.399-3.4 2.197-5.454 2.508v7.337l3.783-3.783h4.391l-9.452 9.452-9.452-9.452h4.39l3.783 3.783v-7.339c-1.305-.19-2.55-.581-3.701-1.239-.772-.44-1.479-.98-2.105-1.601-1.483-1.472-2.51-3.403-2.849-5.562h2.932c.338 1.515 1.174 2.89 2.357 3.896 2.846 2.42 7.08 2.23 9.704-.382m-5.056-11.71c-1.833 0-3.531.507-4.931 1.371-1.361.841-2.494 2.062-3.145 3.529-.262-2.286.63-4.61 2.324-6.205 1.47-1.383 3.502-2.24 5.749-2.24 2.245.0001 4.276.857 5.745 2.239 1.466 1.379 2.373 3.283 2.373 5.382v.002c0 .278-.017.552-.047.821-.694-1.561-1.929-2.841-3.404-3.682-1.411-.805-3.034-1.215-4.664-1.217m-.004 9.612l-.988-1.711h-1.974l.988-1.71-.988-1.71h1.974l.988-1.711.988 1.711h1.974l-.988 1.71.988 1.71h-1.974l-.988 1.711"/><path fill="url(#1)" d="m255.53 413.4c-.678 1.097-1.489 2.11-2.436 2.98-1.655-1.522-2.899-3.483-3.733-5.561v-50.785c2.474-.024 4.886-.177 7.214-.446.041.003.083.003.125-.002l.043.041c-.768.723-1.221 1.747-1.221 2.816 0 1.069.453 2.093 1.221 2.816-.768.723-1.221 1.748-1.221 2.817 0 1.069.453 2.094 1.221 2.817-.768.723-1.221 1.747-1.221 2.816 0 1.069.453 2.094 1.221 2.817-.768.723-1.221 1.747-1.221 2.816 0 1.069.453 2.093 1.221 2.816-.768.723-1.221 1.748-1.221 2.817 0 1.069.453 2.093 1.221 2.816-.768.723-1.221 1.748-1.221 2.817s.453 2.094 1.221 2.817c-.768.723-1.221 1.747-1.221 2.816 0 1.069.453 2.093 1.221 2.816-.768.723-1.221 1.748-1.221 2.817 0 1.069.453 2.094 1.221 2.817-.768.723-1.221 1.747-1.221 2.816 0 1.069.453 2.094 1.221 2.817-.768.723-1.221 1.747-1.221 2.816 0 .086.003.17.008.255"/><path fill="url(#2)" d="m248.79 360.04v50.788c-.835 2.078-2.078 4.04-3.732 5.555-1.655-1.522-2.9-3.483-3.733-5.561v-51.17c2.366.253 4.816.385 7.326.385h.008.008.123"/><path fill="url(#3)" d="m240.76 359.59v51.24c-.835 2.078-2.078 4.04-3.732 5.555-1.655-1.522-2.9-3.483-3.733-5.561v-52.55c2.36.575 4.86 1.021 7.465 1.322"/><path fill="url(#4)" d="m225.26 366.61c1.983-3.073 4.153-5.979 6.503-8.738.318.087.639.172.962.254v52.7c-.835 2.078-2.078 4.04-3.732 5.555-1.655-1.522-2.899-3.483-3.733-5.561v-44.21"/><path fill="url(#5)" d="m217.23 382.66c2.048-5.47 4.544-10.505 7.465-15.16v43.33c-.835 2.078-2.078 4.04-3.732 5.555-1.655-1.522-2.9-3.483-3.733-5.561v-28.16"/><path fill="url(#6)" d="m216.66 384.22v26.602c-.835 2.078-2.078 4.04-3.732 5.555-.181-.166-.583-.577-.877-.887v-12.586c1.035-6.74 2.582-12.947 4.609-18.683"/><path fill="url(#7)" d="m339.75 413.4c.678 1.097 1.489 2.11 2.436 2.98 1.654-1.522 2.899-3.483 3.733-5.561v-50.785c-2.474-.024-4.886-.177-7.214-.446-.041.003-.083.003-.124-.002l-.043.041c.768.723 1.221 1.747 1.221 2.816 0 1.069-.453 2.093-1.221 2.816.768.723 1.221 1.748 1.221 2.817 0 1.069-.453 2.094-1.221 2.817.768.723 1.221 1.747 1.221 2.816 0 1.069-.453 2.094-1.221 2.817.768.723 1.221 1.747 1.221 2.816 0 1.069-.453 2.093-1.221 2.816.768.723 1.221 1.748 1.221 2.817 0 1.069-.453 2.093-1.221 2.816.768.723 1.221 1.748 1.221 2.817s-.453 2.094-1.221 2.817c.768.723 1.221 1.747 1.221 2.816 0 1.069-.453 2.093-1.221 2.816.768.723 1.221 1.748 1.221 2.817 0 1.069-.453 2.094-1.221 2.817.768.723 1.221 1.747 1.221 2.816 0 1.069-.453 2.094-1.221 2.817.768.723 1.221 1.747 1.221 2.816 0 .086-.003.17-.008.255"/><path fill="url(#8)" d="m370.58 367.5c2.921 4.659 5.417 9.694 7.465 15.16v28.16c-.833 2.078-2.078 4.04-3.733 5.561-1.654-1.52-2.897-3.477-3.732-5.555v-43.33"/><path fill="url(#9)" d="m363.51 357.87c2.35 2.758 4.52 5.665 6.503 8.738v44.21c-.833 2.078-2.078 4.04-3.733 5.561-1.654-1.52-2.897-3.477-3.732-5.555v-52.7c.324-.082.644-.168.962-.255"/><path fill="url(#A)" d="m361.98 358.27v52.55c-.833 2.078-2.078 4.04-3.733 5.561-1.654-1.52-2.897-3.477-3.732-5.555v-51.24c2.605-.301 5.105-.748 7.465-1.322"/><path fill="url(#B)" d="m353.95 359.65v51.17c-.833 2.078-2.078 4.04-3.733 5.561-1.654-1.52-2.897-3.477-3.732-5.555v-50.788h.131.004c2.511-.0001 4.963-.134 7.33-.386"/><path fill="url(#C)" d="m378.61 384.22v26.601c.835 2.078 2.078 4.04 3.732 5.555.184-.169.585-.595.877-.909v-12.565c-1.035-6.74-2.582-12.946-4.609-18.682"/><path fill="url(#D)" d="m322.8 469.94h5.388l-5.388 4.069v-4.069m-7.107 0h6.54v4.497l-6.54 4.939v-9.436m-7.108 0h6.541v9.864l-4.6 3.474h-1.941v-13.338m-7.107 0h6.542v13.338h-6.542v-13.338m-7.107 0h6.542v13.338h-6.542v-13.338m-7.107 0h6.542v13.338h-6.542v-13.338m-7.106 0h6.541v13.338h-1.942l-4.599-3.474v-9.865m-7.107 0h6.54v9.437l-6.54-4.939v-4.497m-5.955 0h5.389v4.069l-5.389-4.069"/><path fill="url(#E)" d="m311.39 492c0 .916-.381 1.762-1.029 2.392h-25.456c-.652-.618-1.028-1.484-1.029-2.389 0-.979.444-1.915 1.19-2.535h25.14c.747.622 1.187 1.554 1.187 2.531"/><path fill="url(#F)" d="m311.39 486.37c0 .981-.443 1.914-1.192 2.535h-25.13c-.751-.624-1.192-1.549-1.192-2.531 0-.979.444-1.915 1.19-2.535h25.14c.747.622 1.187 1.554 1.187 2.531"/><path fill-rule="nonzero" fill="#ffde00" d="m303.64 497.67v-2.709h6.357v2.709h-6.357m-18.368 0v-2.709h6.357v2.709h-6.357"/><path fill="url(#G)" d="m314.39 498.24l-2.253 1.862v-1.862h2.253m-2.82 2.331l-6.54 5.406v-7.736h6.54v2.331m-7.107 5.874l-6.54 5.405v-13.61h6.54v8.205m-7.106 5.405l-6.54-5.405v-8.205h6.54v13.61m-13.647-11.279v-2.331h6.54v7.736l-6.54-5.405m-.567-2.331v1.862l-2.253-1.862h2.253"/><path fill="url(#H)" d="m340.56 460.59v-4.918h6.512l-6.512 4.918m-7.107 5.367v-10.285h6.54v5.346l-6.54 4.939m-4.525 3.417h-2.582v-13.702h6.54v10.713l-3.958 2.989m-3.149 0h-6.54v-13.702h6.54v13.702m-7.107 0h-6.54v-13.702h6.54v13.702m-7.107 0h-6.54v-13.702h6.54v13.702m-7.107 0h-6.54v-13.702h6.54v13.702m-7.107 0h-6.54v-13.702h6.54v13.702m-7.107 0h-6.54v-13.702h6.54v13.702m-7.107 0h-6.54v-13.702h6.54v13.702m-7.107 0h-6.54v-13.702h6.54v13.702m-7.107 0h-2.583l-3.957-2.988v-10.714h6.54v13.702m-7.107-13.702v10.285l-6.54-4.939v-5.346h6.54m-7.107 0v4.918l-6.512-4.918h6.512"/><path fill="url(#I)" d="m280.01 432.58h-22.73c-.747-.619-1.192-1.555-1.192-2.533s.445-1.914 1.192-2.533h24.12c-.702 1.581-1.179 3.283-1.392 5.067m33.868-5.067h24.12c.747.619 1.192 1.555 1.192 2.533s-.445 1.914-1.192 2.533h-22.73c-.214-1.783-.69-3.486-1.392-5.067"/><path fill="url(#J)" d="m315.4 450.05h22.602c.747.619 1.192 1.555 1.192 2.533 0 .973-.44 1.904-1.179 2.523h-22.615v-5.056m-58.13 5.056c-.739-.619-1.179-1.55-1.179-2.523 0-.978.445-1.914 1.192-2.533h22.602v5.056h-22.615"/><path fill="url(#K)" d="m315.4 444.41h22.602c.747.619 1.192 1.555 1.192 2.533 0 .978-.445 1.914-1.192 2.533h-22.602v-5.067m-35.515 5.067h-22.602c-.747-.619-1.192-1.555-1.192-2.533 0-.979.445-1.914 1.192-2.533h22.602v5.067"/><path fill="url(#L)" d="m315.4 438.78h22.602c.747.619 1.192 1.555 1.192 2.533s-.445 1.914-1.192 2.533h-22.602v-5.067m-35.515 5.067h-22.602c-.747-.619-1.192-1.555-1.192-2.533s.445-1.914 1.192-2.533h22.602v5.067"/><path fill="url(#M)" d="m315.33 433.15h22.672c.747.619 1.192 1.555 1.192 2.533s-.445 1.914-1.192 2.533h-22.602v-3.508c0-.526-.025-1.045-.069-1.559m-35.447 5.067h-22.602c-.747-.619-1.192-1.555-1.192-2.533s.445-1.914 1.192-2.533h22.672c-.045.514-.069 1.034-.069 1.559v3.508"/><path fill="url(#N)" d="m309.92 421.88h28.08c.747.619 1.192 1.555 1.192 2.533 0 .978-.445 1.914-1.192 2.533h-24.384c-.927-1.904-2.184-3.618-3.697-5.067m-28.25 5.067h-24.384c-.747-.619-1.192-1.555-1.192-2.533 0-.979.445-1.914 1.192-2.533h28.08c-1.513 1.449-2.77 3.162-3.697 5.067"/><path fill="url(#O)" d="m257.28 393.14c-.747-.619-1.192-1.555-1.192-2.533s.445-1.914 1.192-2.533h80.72c.747.619 1.192 1.555 1.192 2.533s-.445 1.914-1.192 2.533h-80.72"/><path fill="url(#P)" d="m257.28 398.78c-.747-.619-1.192-1.555-1.192-2.533s.445-1.914 1.192-2.533h80.72c.747.619 1.192 1.555 1.192 2.533s-.445 1.914-1.192 2.533h-80.72"/><path fill="url(#Q)" d="m257.28 415.68c-.747-.619-1.192-1.555-1.192-2.533s.445-1.914 1.192-2.533h80.72c.747.619 1.192 1.555 1.192 2.533s-.445 1.914-1.192 2.533h-80.72"/><path fill="url(#R)" d="m338 416.24c.747.619 1.192 1.555 1.192 2.533s-.445 1.914-1.192 2.533h-28.701c-3.12-2.718-7.198-4.365-11.66-4.365-4.462 0-8.539 1.646-11.658 4.365h-28.702c-.747-.619-1.192-1.555-1.192-2.533s.445-1.914 1.192-2.533h80.72"/><path fill="url(#S)" d="m290.83 404.98l3.065 5.067h-36.619c-.747-.619-1.192-1.555-1.192-2.533s.445-1.914 1.192-2.533h33.554m10.549 5.067l3.065-5.067h33.554c.747.619 1.192 1.555 1.192 2.533s-.445 1.914-1.192 2.533h-36.618"/><path fill="url(#T)" d="m290.71 399.34v5.067h-33.429c-.747-.619-1.192-1.555-1.192-2.533 0-.979.445-1.914 1.192-2.533h33.429m13.863 5.067v-5.067h33.429c.747.619 1.192 1.555 1.192 2.533 0 .978-.445 1.914-1.192 2.533h-33.429"/><path fill="url(#U)" d="m317.52 359.34v-2.384c1.564-.541 3.099-1.163 4.596-1.872 4.486 2.197 9.386 3.534 14.37 4.256h-18.967m-39.773-2.338v2.338h-19.15c5.03-.735 9.959-2.091 14.544-4.257 1.492.732 3.03 1.369 4.603 1.92"/><path fill="url(#V)" d="m317.52 364.98v-5.067h20.474c.747.619 1.192 1.555 1.192 2.533 0 .979-.445 1.914-1.192 2.533h-20.474m-39.774-5.067v5.067h-20.474c-.747-.619-1.192-1.555-1.192-2.533 0-.978.445-1.914 1.192-2.533h20.474"/><path fill="url(#W)" d="m317.52 370.61v-5.067h20.474c.747.619 1.192 1.555 1.192 2.533s-.445 1.914-1.192 2.533h-20.474m-39.774-5.067v5.067h-20.474c-.747-.619-1.192-1.555-1.192-2.533s.445-1.914 1.192-2.533h20.474"/><path fill="url(#X)" d="m317.52 376.24v-5.067h20.474c.747.619 1.192 1.555 1.192 2.533s-.445 1.914-1.192 2.533h-20.474m-39.774-5.067v5.067h-20.474c-.747-.619-1.192-1.555-1.192-2.533s.445-1.914 1.192-2.533h20.474"/><path fill="url(#Y)" d="m317.52 381.88v-5.067h20.474c.747.619 1.192 1.555 1.192 2.533 0 .978-.445 1.914-1.192 2.533h-20.474m-39.774-5.067v5.067h-20.474c-.747-.619-1.192-1.555-1.192-2.533 0-.979.445-1.914 1.192-2.533h20.474"/><path fill="url(#Z)" d="m313.03 387.51l4.493-5.067h20.474c.747.619 1.192 1.555 1.192 2.533s-.445 1.914-1.192 2.533h-24.967m-35.28-5.067l4.493 5.067h-24.967c-.747-.619-1.192-1.555-1.192-2.533s.445-1.914 1.192-2.533h20.474"/><path d="m326.57 362.18c2.098 0 3.798-1.701 3.798-3.798 0-2.098-1.701-3.799-3.798-3.799-2.097 0-3.798 1.701-3.798 3.799 0 2.097 1.701 3.798 3.798 3.798"/><path fill="#fff500" d="m326.57 361.61c1.785 0 3.232-1.447 3.232-3.231 0-.15-.011-.297-.031-.442-.593-.163-1.175-.335-1.748-.514-1.048-.329-2.063-.685-3.038-1.067-.231-.09-.46-.181-.686-.274-.592.586-.96 1.399-.96 2.298 0 1.784 1.447 3.231 3.231 3.231"/><path d="m326.57 367.81c2.098 0 3.798-1.701 3.798-3.798 0-2.098-1.701-3.799-3.798-3.799-2.097 0-3.798 1.701-3.798 3.799 0 2.097 1.701 3.798 3.798 3.798"/><path fill="#fff500" d="m326.57 367.24c1.785 0 3.232-1.447 3.232-3.231 0-1.785-1.447-3.232-3.232-3.232-1.784 0-3.231 1.447-3.231 3.232 0 1.784 1.447 3.231 3.231 3.231"/><path d="m326.57 373.44c2.098 0 3.798-1.701 3.798-3.798 0-2.098-1.701-3.799-3.798-3.799-2.097 0-3.798 1.701-3.798 3.799 0 2.097 1.701 3.798 3.798 3.798"/><path fill="#fff500" d="m326.57 372.88c1.785 0 3.232-1.447 3.232-3.231 0-1.785-1.447-3.232-3.232-3.232-1.784 0-3.231 1.447-3.231 3.232 0 1.784 1.447 3.231 3.231 3.231"/><path d="m326.57 379.08c2.098 0 3.798-1.701 3.798-3.798 0-2.098-1.701-3.799-3.798-3.799-2.097 0-3.798 1.701-3.798 3.799 0 2.097 1.701 3.798 3.798 3.798"/><path fill="#fff500" d="m326.57 378.51c1.785 0 3.232-1.447 3.232-3.231 0-1.785-1.447-3.232-3.232-3.232-1.784 0-3.231 1.447-3.231 3.232 0 1.784 1.447 3.231 3.231 3.231"/><path d="m326.57 384.71c2.098 0 3.798-1.701 3.798-3.798 0-2.098-1.701-3.799-3.798-3.799-2.097 0-3.798 1.701-3.798 3.799 0 2.097 1.701 3.798 3.798 3.798"/><path fill="#fff500" d="m326.57 384.14c1.785 0 3.232-1.447 3.232-3.231 0-1.785-1.447-3.232-3.232-3.232-1.784 0-3.231 1.447-3.231 3.232 0 1.784 1.447 3.231 3.231 3.231"/><path d="m326.57 390.34c2.098 0 3.798-1.701 3.798-3.798 0-2.098-1.701-3.799-3.798-3.799-2.097 0-3.798 1.701-3.798 3.799 0 2.097 1.701 3.798 3.798 3.798"/><path fill="#fff500" d="m326.57 389.77c1.785 0 3.232-1.447 3.232-3.231 0-1.785-1.447-3.232-3.232-3.232-1.784 0-3.231 1.447-3.231 3.232 0 1.784 1.447 3.231 3.231 3.231"/><path d="m326.57 395.97c2.098 0 3.798-1.701 3.798-3.798 0-2.098-1.701-3.799-3.798-3.799-2.097 0-3.798 1.701-3.798 3.799 0 2.097 1.701 3.798 3.798 3.798"/><path fill="#fff500" d="m326.57 395.41c1.785 0 3.232-1.447 3.232-3.231 0-1.785-1.447-3.232-3.232-3.232-1.784 0-3.231 1.447-3.231 3.232 0 1.784 1.447 3.231 3.231 3.231"/><path d="m326.57 401.61c2.098 0 3.798-1.701 3.798-3.798 0-2.098-1.701-3.799-3.798-3.799-2.097 0-3.798 1.701-3.798 3.799 0 2.097 1.701 3.798 3.798 3.798"/><path fill="#fff500" d="m326.57 401.04c1.785 0 3.232-1.447 3.232-3.231 0-1.785-1.447-3.232-3.232-3.232-1.784 0-3.231 1.447-3.231 3.232 0 1.784 1.447 3.231 3.231 3.231"/><path d="m326.57 407.24c2.098 0 3.798-1.701 3.798-3.798 0-2.098-1.701-3.799-3.798-3.799-2.097 0-3.798 1.701-3.798 3.799 0 2.097 1.701 3.798 3.798 3.798"/><path fill="#fff500" d="m326.57 406.67c1.785 0 3.232-1.447 3.232-3.231 0-1.785-1.447-3.232-3.232-3.232-1.784 0-3.231 1.447-3.231 3.232 0 1.784 1.447 3.231 3.231 3.231"/><path d="m326.57 412.87c2.098 0 3.798-1.701 3.798-3.798 0-2.098-1.701-3.799-3.798-3.799-2.097 0-3.798 1.701-3.798 3.799 0 2.097 1.701 3.798 3.798 3.798"/><path fill="#fff500" d="m326.57 412.31c1.785 0 3.232-1.447 3.232-3.231 0-1.785-1.447-3.232-3.232-3.232-1.784 0-3.231 1.447-3.231 3.232 0 1.784 1.447 3.231 3.231 3.231"/><path d="m326.57 418.51c2.098 0 3.798-1.701 3.798-3.798 0-2.098-1.701-3.799-3.798-3.799-2.097 0-3.798 1.701-3.798 3.799 0 2.097 1.701 3.798 3.798 3.798"/><path fill="#fff500" d="m326.57 417.94c1.785 0 3.232-1.447 3.232-3.231 0-1.785-1.447-3.232-3.232-3.232-1.784 0-3.231 1.447-3.231 3.232 0 1.784 1.447 3.231 3.231 3.231"/><path d="m326.57 424.14c2.098 0 3.798-1.701 3.798-3.798 0-2.098-1.701-3.799-3.798-3.799-2.097 0-3.798 1.701-3.798 3.799 0 2.097 1.701 3.798 3.798 3.798"/><path fill="#fff500" d="m326.57 423.57c1.785 0 3.232-1.447 3.232-3.231 0-1.785-1.447-3.232-3.232-3.232-1.784 0-3.231 1.447-3.231 3.232 0 1.784 1.447 3.231 3.231 3.231"/><path d="m326.57 429.77c2.098 0 3.798-1.701 3.798-3.798 0-2.098-1.701-3.799-3.798-3.799-2.097 0-3.798 1.701-3.798 3.799 0 2.097 1.701 3.798 3.798 3.798"/><path fill="#fff500" d="m326.57 429.21c1.785 0 3.232-1.447 3.232-3.231 0-1.785-1.447-3.232-3.232-3.232-1.784 0-3.231 1.447-3.231 3.232 0 1.784 1.447 3.231 3.231 3.231"/><path d="m326.57 435.4c2.098 0 3.798-1.701 3.798-3.798 0-2.098-1.701-3.799-3.798-3.799-2.097 0-3.798 1.701-3.798 3.799 0 2.097 1.701 3.798 3.798 3.798"/><path fill="#fff500" d="m326.57 434.84c1.785 0 3.232-1.447 3.232-3.231 0-1.785-1.447-3.232-3.232-3.232-1.784 0-3.231 1.447-3.231 3.232 0 1.784 1.447 3.231 3.231 3.231"/><path d="m326.57 441.04c2.098 0 3.798-1.701 3.798-3.798 0-2.098-1.701-3.799-3.798-3.799-2.097 0-3.798 1.701-3.798 3.799 0 2.097 1.701 3.798 3.798 3.798"/><path fill="#fff500" d="m326.57 440.47c1.785 0 3.232-1.447 3.232-3.231 0-1.785-1.447-3.232-3.232-3.232-1.784 0-3.231 1.447-3.231 3.232 0 1.784 1.447 3.231 3.231 3.231"/><path d="m326.57 446.67c2.098 0 3.798-1.701 3.798-3.798 0-2.098-1.701-3.799-3.798-3.799-2.097 0-3.798 1.701-3.798 3.799 0 2.097 1.701 3.798 3.798 3.798"/><path fill="#fff500" d="m326.57 446.1c1.785 0 3.232-1.447 3.232-3.231 0-1.785-1.447-3.232-3.232-3.232-1.784 0-3.231 1.447-3.231 3.232 0 1.784 1.447 3.231 3.231 3.231"/><path d="m326.57 452.3c2.098 0 3.798-1.701 3.798-3.798 0-2.098-1.701-3.799-3.798-3.799-2.097 0-3.798 1.701-3.798 3.799 0 2.097 1.701 3.798 3.798 3.798"/><path fill="#fff500" d="m326.57 451.74c1.785 0 3.232-1.447 3.232-3.231 0-1.785-1.447-3.232-3.232-3.232-1.784 0-3.231 1.447-3.231 3.232 0 1.784 1.447 3.231 3.231 3.231"/><path d="m330.04 455.67c.206-.468.322-.986.322-1.53 0-2.098-1.701-3.799-3.798-3.799-2.097 0-3.798 1.701-3.798 3.799 0 .544.115 1.062.322 1.53h6.954"/><path fill="#fff500" d="m329.65 455.1c.095-.304.147-.628.147-.964 0-1.785-1.447-3.232-3.232-3.232-1.784 0-3.231 1.447-3.231 3.232 0 .335.051.659.147.964h6.17"/><path d="m268.71 362.18c2.098 0 3.798-1.701 3.798-3.798 0-2.098-1.701-3.799-3.798-3.799-2.097 0-3.798 1.701-3.798 3.799 0 2.097 1.701 3.798 3.798 3.798"/><path fill="#fff500" d="m268.71 361.61c1.785 0 3.232-1.447 3.232-3.231 0-.911-.377-1.733-.983-2.32-1.697.695-3.517 1.312-5.444 1.841-.023.157-.036.316-.036.479 0 1.784 1.447 3.231 3.231 3.231"/><path d="m268.71 367.81c2.098 0 3.798-1.701 3.798-3.798 0-2.098-1.701-3.799-3.798-3.799-2.097 0-3.798 1.701-3.798 3.799 0 2.097 1.701 3.798 3.798 3.798"/><path fill="#fff500" d="m268.71 367.24c1.785 0 3.232-1.447 3.232-3.231 0-1.785-1.447-3.232-3.232-3.232-1.784 0-3.231 1.447-3.231 3.232 0 1.784 1.447 3.231 3.231 3.231"/><path d="m268.71 373.44c2.098 0 3.798-1.701 3.798-3.798 0-2.098-1.701-3.799-3.798-3.799-2.097 0-3.798 1.701-3.798 3.799 0 2.097 1.701 3.798 3.798 3.798"/><path fill="#fff500" d="m268.71 372.88c1.785 0 3.232-1.447 3.232-3.231 0-1.785-1.447-3.232-3.232-3.232-1.784 0-3.231 1.447-3.231 3.232 0 1.784 1.447 3.231 3.231 3.231"/><path d="m268.71 379.08c2.098 0 3.798-1.701 3.798-3.798 0-2.098-1.701-3.799-3.798-3.799-2.097 0-3.798 1.701-3.798 3.799 0 2.097 1.701 3.798 3.798 3.798"/><path fill="#fff500" d="m268.71 378.51c1.785 0 3.232-1.447 3.232-3.231 0-1.785-1.447-3.232-3.232-3.232-1.784 0-3.231 1.447-3.231 3.232 0 1.784 1.447 3.231 3.231 3.231"/><path d="m268.71 384.71c2.098 0 3.798-1.701 3.798-3.798 0-2.098-1.701-3.799-3.798-3.799-2.097 0-3.798 1.701-3.798 3.799 0 2.097 1.701 3.798 3.798 3.798"/><path fill="#fff500" d="m268.71 384.14c1.785 0 3.232-1.447 3.232-3.231 0-1.785-1.447-3.232-3.232-3.232-1.784 0-3.231 1.447-3.231 3.232 0 1.784 1.447 3.231 3.231 3.231"/><path d="m268.71 390.34c2.098 0 3.798-1.701 3.798-3.798 0-2.098-1.701-3.799-3.798-3.799-2.097 0-3.798 1.701-3.798 3.799 0 2.097 1.701 3.798 3.798 3.798"/><path fill="#fff500" d="m268.71 389.77c1.785 0 3.232-1.447 3.232-3.231 0-1.785-1.447-3.232-3.232-3.232-1.784 0-3.231 1.447-3.231 3.232 0 1.784 1.447 3.231 3.231 3.231"/><path d="m268.71 395.97c2.098 0 3.798-1.701 3.798-3.798 0-2.098-1.701-3.799-3.798-3.799-2.097 0-3.798 1.701-3.798 3.799 0 2.097 1.701 3.798 3.798 3.798"/><path fill="#fff500" d="m268.71 395.41c1.785 0 3.232-1.447 3.232-3.231 0-1.785-1.447-3.232-3.232-3.232-1.784 0-3.231 1.447-3.231 3.232 0 1.784 1.447 3.231 3.231 3.231"/><path d="m268.71 401.61c2.098 0 3.798-1.701 3.798-3.798 0-2.098-1.701-3.799-3.798-3.799-2.097 0-3.798 1.701-3.798 3.799 0 2.097 1.701 3.798 3.798 3.798"/><path fill="#fff500" d="m268.71 401.04c1.785 0 3.232-1.447 3.232-3.231 0-1.785-1.447-3.232-3.232-3.232-1.784 0-3.231 1.447-3.231 3.232 0 1.784 1.447 3.231 3.231 3.231"/><path d="m268.71 407.24c2.098 0 3.798-1.701 3.798-3.798 0-2.098-1.701-3.799-3.798-3.799-2.097 0-3.798 1.701-3.798 3.799 0 2.097 1.701 3.798 3.798 3.798"/><path fill="#fff500" d="m268.71 406.67c1.785 0 3.232-1.447 3.232-3.231 0-1.785-1.447-3.232-3.232-3.232-1.784 0-3.231 1.447-3.231 3.232 0 1.784 1.447 3.231 3.231 3.231"/><path d="m268.71 412.87c2.098 0 3.798-1.701 3.798-3.798 0-2.098-1.701-3.799-3.798-3.799-2.097 0-3.798 1.701-3.798 3.799 0 2.097 1.701 3.798 3.798 3.798"/><path fill="#fff500" d="m268.71 412.31c1.785 0 3.232-1.447 3.232-3.231 0-1.785-1.447-3.232-3.232-3.232-1.784 0-3.231 1.447-3.231 3.232 0 1.784 1.447 3.231 3.231 3.231"/><path d="m268.71 418.51c2.098 0 3.798-1.701 3.798-3.798 0-2.098-1.701-3.799-3.798-3.799-2.097 0-3.798 1.701-3.798 3.799 0 2.097 1.701 3.798 3.798 3.798"/><path fill="#fff500" d="m268.71 417.94c1.785 0 3.232-1.447 3.232-3.231 0-1.785-1.447-3.232-3.232-3.232-1.784 0-3.231 1.447-3.231 3.232 0 1.784 1.447 3.231 3.231 3.231"/><path d="m268.71 424.14c2.098 0 3.798-1.701 3.798-3.798 0-2.098-1.701-3.799-3.798-3.799-2.097 0-3.798 1.701-3.798 3.799 0 2.097 1.701 3.798 3.798 3.798"/><path fill="#fff500" d="m268.71 423.57c1.785 0 3.232-1.447 3.232-3.231 0-1.785-1.447-3.232-3.232-3.232-1.784 0-3.231 1.447-3.231 3.232 0 1.784 1.447 3.231 3.231 3.231"/><path d="m268.71 429.77c2.098 0 3.798-1.701 3.798-3.798 0-2.098-1.701-3.799-3.798-3.799-2.097 0-3.798 1.701-3.798 3.799 0 2.097 1.701 3.798 3.798 3.798"/><path fill="#fff500" d="m268.71 429.21c1.785 0 3.232-1.447 3.232-3.231 0-1.785-1.447-3.232-3.232-3.232-1.784 0-3.231 1.447-3.231 3.232 0 1.784 1.447 3.231 3.231 3.231"/><path d="m268.71 435.4c2.098 0 3.798-1.701 3.798-3.798 0-2.098-1.701-3.799-3.798-3.799-2.097 0-3.798 1.701-3.798 3.799 0 2.097 1.701 3.798 3.798 3.798"/><path fill="#fff500" d="m268.71 434.84c1.785 0 3.232-1.447 3.232-3.231 0-1.785-1.447-3.232-3.232-3.232-1.784 0-3.231 1.447-3.231 3.232 0 1.784 1.447 3.231 3.231 3.231"/><path d="m268.71 441.04c2.098 0 3.798-1.701 3.798-3.798 0-2.098-1.701-3.799-3.798-3.799-2.097 0-3.798 1.701-3.798 3.799 0 2.097 1.701 3.798 3.798 3.798"/><path fill="#fff500" d="m268.71 440.47c1.785 0 3.232-1.447 3.232-3.231 0-1.785-1.447-3.232-3.232-3.232-1.784 0-3.231 1.447-3.231 3.232 0 1.784 1.447 3.231 3.231 3.231"/><path d="m268.71 446.67c2.098 0 3.798-1.701 3.798-3.798 0-2.098-1.701-3.799-3.798-3.799-2.097 0-3.798 1.701-3.798 3.799 0 2.097 1.701 3.798 3.798 3.798"/><path fill="#fff500" d="m268.71 446.1c1.785 0 3.232-1.447 3.232-3.231 0-1.785-1.447-3.232-3.232-3.232-1.784 0-3.231 1.447-3.231 3.232 0 1.784 1.447 3.231 3.231 3.231"/><path d="m268.71 452.3c2.098 0 3.798-1.701 3.798-3.798 0-2.098-1.701-3.799-3.798-3.799-2.097 0-3.798 1.701-3.798 3.799 0 2.097 1.701 3.798 3.798 3.798"/><path fill="#fff500" d="m268.71 451.74c1.785 0 3.232-1.447 3.232-3.231 0-1.785-1.447-3.232-3.232-3.232-1.784 0-3.231 1.447-3.231 3.232 0 1.784 1.447 3.231 3.231 3.231"/><path d="m272.19 455.67c.206-.468.322-.986.322-1.53 0-2.098-1.701-3.799-3.798-3.799-2.097 0-3.798 1.701-3.798 3.799 0 .544.115 1.062.322 1.53h6.954"/><path fill="#fff500" d="m271.79 455.1c.095-.304.147-.628.147-.964 0-1.785-1.447-3.232-3.232-3.232-1.784 0-3.231 1.447-3.231 3.232 0 .335.052.659.147.964h6.17"/><path fill="#fff" d="m342 339.29c-12.512-8.193-27.448-14.826-44.36-20.878-16.91 6.05-31.848 12.685-44.36 20.878h88.72"/><path fill-rule="nonzero" fill="#009140" d="m248.67 359.47h-.008-.008c-5.944 0-11.547-.749-16.478-2.076 2.418-2.796 5.02-5.438 7.803-7.944 3.816-3.436 7.969-6.619 12.439-9.599h90.44c4.47 2.979 8.624 6.163 12.44 9.599 2.783 2.506 5.386 5.148 7.803 7.944-4.933 1.327-10.537 2.077-16.483 2.077h-.004c-6.778.0001-13.12-.975-18.519-2.668-1.049-.329-2.063-.685-3.038-1.067-.979-.382-1.914-.788-2.799-1.214l-.006-.003-.124-.062-.125.06c-2.67 1.285-5.721 2.362-9.06 3.18-.65.159-1.31.309-1.98.448-4.118.856-8.614 1.327-13.32 1.328h-.008c-6.777.0001-13.12-.975-18.519-2.669-1.049-.329-2.063-.685-3.038-1.066-.979-.383-1.914-.788-2.799-1.214l-.006-.003-.124-.062-.125.06c-2.67 1.285-5.721 2.362-9.06 3.18-.644.158-1.305.308-1.98.448-4.118.856-8.614 1.327-13.321 1.327"/></g></svg>