<svg xmlns="http://www.w3.org/2000/svg" xmlns:xlink="http://www.w3.org/1999/xlink" viewBox="0 0 420 564"><defs><path id="1a" d="m26.26 1.915c-6.152 0-11.142 4.101-11.142 9.159 0 5.057 4.989 9.158 11.142 9.158 6.152 0 11.142-4.101 11.142-9.158 0-5.057-4.989-9.159-11.142-9.159"/><path id="1b" d="m26.484 13.673c-4.697 0-8.507 3.679-8.507 8.216 0 4.537 3.81 8.216 8.507 8.216 4.697 0 8.507-3.679 8.507-8.216 0-4.537-3.81-8.216-8.507-8.216"/><path id="1c" d="m281.39 517.24c-.604-.139-1.436 1.231-1.858 3.059-.422 1.829-.275 3.425.329 3.564.604.14 1.436-1.23 1.858-3.059.422-1.829.275-3.425-.329-3.564"/><linearGradient id="k" gradientUnits="userSpaceOnUse" gradientTransform="matrix(-71.0823-36.2973 34.1842-66.94401 236.8 528.55)" x1=".4" x2=".6" xlink:href="#W"/><linearGradient id="l" gradientUnits="userSpaceOnUse" gradientTransform="matrix(-112.5464 137.2141-134.0862-109.9808 379.48 397.51)" x1=".423" y1=".473" x2=".62" y2=".47" xlink:href="#W"/><linearGradient id="Y" gradientUnits="userSpaceOnUse" gradientTransform="matrix(66.6093.4792-.19642 27.3026 265.67 466.7)" x1="0" x2="1"><stop stop-color="#ffcf00"/><stop offset=".5" stop-color="#ff0"/><stop offset="1" stop-color="#ffcf00"/></linearGradient><linearGradient id="m" gradientUnits="userSpaceOnUse" gradientTransform="matrix(117.0007.84173-.28129 39.0987 238.86 549.62)" x1="0" x2="1" xlink:href="#Y"/><linearGradient id="1G" y1="486.6" x2="0" y2="524.98" gradientUnits="userSpaceOnUse" xlink:href="#a"/><linearGradient xlink:href="#13" id="1H" gradientUnits="userSpaceOnUse" x1="279.85" y1="523.75" x2="280.52" y2="521.16"/><linearGradient id="13"><stop stop-color="#f95"/><stop offset="1" stop-color="#ffe600"/></linearGradient><linearGradient id="j" gradientUnits="userSpaceOnUse" gradientTransform="matrix(143.7341 65.83241-64.2495 140.2781 164.24 347.68)" x1=".4" x2=".6" xlink:href="#W"/><linearGradient id="Z" gradientUnits="userSpaceOnUse" gradientTransform="matrix(42.3432 21.77648-20.79016 40.4253 359.46 477.19)" x1=".15" x2=".85" xlink:href="#Y"/><linearGradient id="a" gradientUnits="userSpaceOnUse" gradientTransform="matrix(4.91732 324.5436-193.0405 2.92485 388.77 86.37)" x1=".336" y1="-.001" x2=".605" y2="-.002"><stop stop-color="#d40000"/><stop offset="1" stop-color="#f00"/></linearGradient><linearGradient id="i" gradientUnits="userSpaceOnUse" gradientTransform="matrix(-12.0518 8.0345-7.4526-11.1789 272.25 389.32)" x1=".07" x2=".93" xlink:href="#g"/><linearGradient id="c" gradientUnits="userSpaceOnUse" gradientTransform="matrix(1.34497 97.7075-239.7931 3.30081 411.61 415.84)" x1=".176" y1="0" x2=".584" y2="-.0001" xlink:href="#a"/><linearGradient id="d" gradientUnits="userSpaceOnUse" gradientTransform="matrix(39.45363-23.35011 22.71053 38.373 198.78 507.11)" x1=".15" x2=".85" xlink:href="#Y"/><linearGradient id="h" gradientUnits="userSpaceOnUse" gradientTransform="matrix(-74.6955 57.64084-55.87825-72.4114 286.26 427.87)" x1=".001" x2=".99" xlink:href="#g"/><linearGradient id="f" gradientUnits="userSpaceOnUse" gradientTransform="matrix(28.93146-23.2863 23.43098 29.1112 343.68 438.11)" x1=".17" x2=".83" xlink:href="#Y"/><linearGradient id="g" gradientUnits="userSpaceOnUse" gradientTransform="matrix(96.6899-4.16003.46705 10.85544 269.01 379.36)" x1=".001" x2=".99"><stop stop-color="#8f4900"/><stop offset="1" stop-color="#c93"/></linearGradient><linearGradient xlink:href="#13" id="1I" gradientUnits="userSpaceOnUse" x1="279.85" y1="523.75" x2="280.52" y2="521.16"/><linearGradient id="1T" gradientUnits="userSpaceOnUse" gradientTransform="matrix(1.19938 0 0 1.2-44.44-169.1)" x1="296.25" y1="533.04" x2="299.42" y2="535.45"><stop stop-color="#f0f" stop-opacity="0"/><stop offset=".509" stop-color="#f0f" stop-opacity=".768"/><stop offset="1" stop-color="#f0f" stop-opacity="0"/></linearGradient><linearGradient xlink:href="#0" id="1U" gradientUnits="userSpaceOnUse" gradientTransform="matrix(-1.19938 0 0 1.2 644.99-169.1)" x1="273.43" x2="279.02"/><linearGradient xlink:href="#13" id="1J" gradientUnits="userSpaceOnUse" x1="279.85" y1="523.75" x2="280.52" y2="521.16"/><linearGradient xlink:href="#0" id="1V" gradientUnits="userSpaceOnUse" gradientTransform="matrix(1.19938 0 0-1.2-20.455 1115.28)" x1="273.43" x2="279.02"/><linearGradient xlink:href="#0" id="1X" gradientUnits="userSpaceOnUse" y1="530.09" x2="0" y2="535.17" gradientTransform="matrix(1.19938 0 0 1.2-20.455-169.1)"/><linearGradient y2="20.231" x2="0" y1="1.915" gradientUnits="userSpaceOnUse" id="1Y"><stop stop-color="#fff" stop-opacity=".8"/><stop offset=".5" stop-color="#fff" stop-opacity=".4"/><stop offset="1" stop-color="#fff" stop-opacity="0"/></linearGradient><linearGradient xlink:href="#0" id="1W" gradientUnits="userSpaceOnUse" gradientTransform="matrix(-1.19938 0 0-1.2 644.99 1115.28)" y1="530.09" x2="0" y2="535.17"/><linearGradient xlink:href="#13" id="1S" gradientUnits="userSpaceOnUse" x1="279.85" y1="523.75" x2="280.52" y2="521.16"/><linearGradient xlink:href="#13" id="1K" gradientUnits="userSpaceOnUse" x1="279.85" y1="523.75" x2="280.52" y2="521.16"/><linearGradient xlink:href="#13" id="1L" gradientUnits="userSpaceOnUse" x1="279.85" y1="523.75" x2="280.52" y2="521.16"/><linearGradient xlink:href="#13" id="1R" gradientUnits="userSpaceOnUse" x1="279.85" y1="523.75" x2="280.52" y2="521.16"/><linearGradient xlink:href="#13" id="1M" gradientUnits="userSpaceOnUse" x1="279.85" y1="523.75" x2="280.52" y2="521.16"/><linearGradient xlink:href="#13" id="1N" gradientUnits="userSpaceOnUse" x1="279.85" y1="523.75" x2="280.52" y2="521.16"/><linearGradient xlink:href="#13" id="1Q" gradientUnits="userSpaceOnUse" x1="279.85" y1="523.75" x2="280.52" y2="521.16"/><linearGradient xlink:href="#13" id="1O" gradientUnits="userSpaceOnUse" x1="279.85" y1="523.75" x2="280.52" y2="521.16"/><linearGradient xlink:href="#13" id="1P" gradientUnits="userSpaceOnUse" x1="279.85" y1="523.75" x2="280.52" y2="521.16"/><linearGradient y2="30" x2="0" y1="20" gradientUnits="userSpaceOnUse" id="1Z"><stop stop-color="#fff" stop-opacity="0"/><stop offset=".5" stop-color="#fff" stop-opacity=".4"/><stop offset="1" stop-color="#fff" stop-opacity=".8"/></linearGradient><linearGradient id="0"><stop stop-color="#f0f"/><stop offset="1" stop-color="#f0f" stop-opacity="0"/></linearGradient><linearGradient id="S" gradientUnits="userSpaceOnUse" gradientTransform="matrix(420.9454 0 0 878.2033 89.14 141.02)" x1="0" x2="1"><stop stop-color="#e5e5e5"/><stop offset=".495" stop-color="#fff"/><stop offset="1" stop-color="#e5e5e5"/></linearGradient><linearGradient id="T" gradientUnits="userSpaceOnUse" gradientTransform="matrix(0 95.5712-54.0726 0 322.53 547.49)" x1=".38" x2=".62"><stop stop-color="#ccc"/><stop offset=".39" stop-color="#e5e5e5"/><stop offset="1" stop-color="#fff"/></linearGradient><linearGradient id="X" gradientUnits="userSpaceOnUse" gradientTransform="matrix(12.90553-9.16972 8.62643 12.1409 339.92 399.38)" x1=".06" x2=".94" xlink:href="#W"/><linearGradient id="U" gradientUnits="userSpaceOnUse" gradientTransform="matrix(-57.84135-1.4664.83045-32.75656 325.75 675.11)" x1=".001" y1="0" x2=".677" y2="-.03"><stop stop-color="#d40000"/><stop offset=".38" stop-color="#e70000"/><stop offset="1" stop-color="#f00"/></linearGradient><linearGradient id="W" gradientUnits="userSpaceOnUse" gradientTransform="matrix(62.5443 9.3151-3.58234 24.0528 269.75 388.88)" x1=".3" x2=".7"><stop stop-color="#ccc"/><stop offset="1" stop-color="#fff"/></linearGradient><mask id="1D"><path fill="url(#1Y)" d="m15 1.807h22.5v18.532h-22.5z"/></mask><mask id="1E"><path fill="url(#1Y)" d="m15 1.807h22.5v18.532h-22.5z"/></mask><mask id="1F"><path fill="url(#1Y)" d="m15 1.807h22.5v18.532h-22.5z"/></mask><mask id="I"><path fill="url(#1Y)" d="m15 1.807h22.5v18.532h-22.5z"/></mask><mask id="1C"><path fill="url(#1Y)" d="m15 1.807h22.5v18.532h-22.5z"/></mask><mask id="1B"><path fill="url(#1Y)" d="m15 1.807h22.5v18.532h-22.5z"/></mask><mask id="15"><path fill="url(#1Y)" d="m15 1.807h22.5v18.532h-22.5z"/></mask><mask id="H"><path fill="url(#1Z)" d="m17.869 15h17.23v15h-17.23z"/></mask><mask id="17"><path fill="url(#1Y)" d="m15 1.807h22.5v18.532h-22.5z"/></mask><mask id="19"><path fill="url(#1Y)" d="m15 1.807h22.5v18.532h-22.5z"/></mask><mask id="1A"><path fill="url(#1Y)" d="m15 1.807h22.5v18.532h-22.5z"/></mask><mask id="18"><path fill="url(#1Y)" d="m15 1.807h22.5v18.532h-22.5z"/></mask><mask id="G"><path fill="url(#1Y)" d="m15 1.807h22.5v18.532h-22.5z"/></mask><mask id="8"><path fill="url(#1Y)" d="m15 1.807h22.5v18.532h-22.5z"/></mask><mask id="14"><path fill="url(#1Y)" d="m15 1.807h22.5v18.532h-22.5z"/></mask><mask id="7"><path fill="url(#1Z)" d="m17.869 15h17.23v15h-17.23z"/></mask><mask id="5"><path fill="url(#1Z)" d="m17.869 15h17.23v15h-17.23z"/></mask><mask id="4"><path fill="url(#1Y)" d="m15 1.807h22.5v18.532h-22.5z"/></mask><mask id="6"><path fill="url(#1Y)" d="m15 1.807h22.5v18.532h-22.5z"/></mask><mask id="9"><path fill="url(#1Z)" d="m17.869 15h17.23v15h-17.23z"/></mask><mask id="F"><path fill="url(#1Z)" d="m17.869 15h17.23v15h-17.23z"/></mask><mask id="A"><path fill="url(#1Y)" d="m15 1.807h22.5v18.532h-22.5z"/></mask><mask id="E"><path fill="url(#1Y)" d="m15 1.807h22.5v18.532h-22.5z"/></mask><mask id="C"><path fill="url(#1Y)" d="m15 1.807h22.5v18.532h-22.5z"/></mask><mask id="B"><path fill="url(#1Z)" d="m17.869 15h17.23v15h-17.23z"/></mask><mask id="D"><path fill="url(#1Z)" d="m17.869 15h17.23v15h-17.23z"/></mask><mask id="16"><path fill="url(#1Y)" d="m15 1.807h22.5v18.532h-22.5z"/></mask><mask id="K"><path fill="url(#1Y)" d="m15 1.807h22.5v18.532h-22.5z"/></mask><mask id="q"><path fill="url(#1Z)" d="m17.869 15h17.23v15h-17.23z"/></mask><mask id="n"><path fill="url(#1Y)" d="m15 1.807h22.5v18.532h-22.5z"/></mask><mask id="p"><path fill="url(#1Y)" d="m15 1.807h22.5v18.532h-22.5z"/></mask><mask id="J"><path fill="url(#1Z)" d="m17.869 15h17.23v15h-17.23z"/></mask><mask id="L"><path fill="url(#1Z)" d="m17.869 15h17.23v15h-17.23z"/></mask><mask id="R"><path fill="url(#1Z)" d="m17.869 15h17.23v15h-17.23z"/></mask><mask id="M"><path fill="url(#1Y)" d="m15 1.807h22.5v18.532h-22.5z"/></mask><mask id="Q"><path fill="url(#1Y)" d="m15 1.807h22.5v18.532h-22.5z"/></mask><mask id="O"><path fill="url(#1Y)" d="m15 1.807h22.5v18.532h-22.5z"/></mask><mask id="N"><path fill="url(#1Z)" d="m17.869 15h17.23v15h-17.23z"/></mask><mask id="P"><path fill="url(#1Z)" d="m17.869 15h17.23v15h-17.23z"/></mask><mask id="o"><path fill="url(#1Z)" d="m17.869 15h17.23v15h-17.23z"/></mask><mask id="z"><path fill="url(#1Y)" d="m15 1.807h22.5v18.532h-22.5z"/></mask><mask id="y"><path fill="url(#1Z)" d="m17.869 15h17.23v15h-17.23z"/></mask><mask id="10"><path fill="url(#1Z)" d="m17.869 15h17.23v15h-17.23z"/></mask><mask id="12"><path fill="url(#1Z)" d="m17.869 15h17.23v15h-17.23z"/></mask><mask id="r"><path fill="url(#1Y)" d="m15 1.807h22.5v18.532h-22.5z"/></mask><mask id="11"><path fill="url(#1Y)" d="m15 1.807h22.5v18.532h-22.5z"/></mask><mask id="s"><path fill="url(#1Z)" d="m17.869 15h17.23v15h-17.23z"/></mask><mask id="t"><path fill="url(#1Y)" d="m15 1.807h22.5v18.532h-22.5z"/></mask><mask id="x"><path fill="url(#1Y)" d="m15 1.807h22.5v18.532h-22.5z"/></mask><mask id="w"><path fill="url(#1Z)" d="m17.869 15h17.23v15h-17.23z"/></mask><mask id="u"><path fill="url(#1Z)" d="m17.869 15h17.23v15h-17.23z"/></mask><mask id="v"><path fill="url(#1Y)" d="m15 1.807h22.5v18.532h-22.5z"/></mask><radialGradient xlink:href="#3" id="V" gradientUnits="userSpaceOnUse" cx="192.63" cy="417.38" r="17.491"/><radialGradient id="1" gradientUnits="userSpaceOnUse" r="21.269" cy="420.91" cx="398.57"><stop stop-color="#c93"/><stop offset="1" stop-color="#8f4900"/></radialGradient><radialGradient id="2" gradientUnits="userSpaceOnUse" r="59.57" cy="465" cx="298.57"><stop stop-color="#f00"/><stop offset="1" stop-color="#d40000"/></radialGradient><radialGradient id="3" gradientUnits="userSpaceOnUse" r="17.491" cy="417.38" cx="192.63" xlink:href="#1"/><radialGradient xlink:href="#1" id="e" gradientUnits="userSpaceOnUse" cx="398.57" cy="420.91" r="21.269"/><radialGradient xlink:href="#2" id="b" gradientUnits="userSpaceOnUse" cx="298.57" cy="465" r="59.57"/></defs><g transform="translate(-102.59-281.52)"><path d="m398.65 553.89c3.52 0 6.375 2.856 6.375 6.378v6.377c0 3.522-2.855 6.378-6.375 6.378h-6.375v-19.13zm0 25.511c7.04 0 12.749-5.712 12.749-12.756v-6.377c0-7.04-5.709-12.756-12.749-12.756h-12.749v31.889zm-25.499-31.889h6.375v31.889h-6.375zm-12.749 0h6.375v31.889h-6.375l-12.749-20.02v20.02h-6.375v-31.889h6.375l12.749 20.02zm-95.62 0h19.12v6.378h-12.749v6.378h12.749v6.378h-12.749v6.378h12.749v6.378h-19.12zm-25.499-.0001h6.375v25.512h12.749v6.378h-19.12zm66.936 25.512h6.373c5.28 0 9.562-4.284 9.562-9.567 0-5.283-4.362-9.549-9.562-9.567h-6.373v6.378h6.373c1.76 0 3.187 1.428 3.187 3.189 0 1.761-1.427 3.189-3.187 3.189h-6.373zm6.373-31.89c12.32 0 22.311 9.996 22.311 22.323 0 12.326-9.991 22.323-22.311 22.323-12.32 0-22.311-9.996-22.311-22.323 0-12.326 9.991-22.323 22.311-22.323m-15.937 22.323c0 8.805 7.137 15.945 15.937 15.945 8.8 0 15.937-7.14 15.937-15.945 0-8.805-7.137-15.945-15.937-15.945-8.8 0-15.937 7.14-15.937 15.945" fill="#a90000"/><path d="m102.59 281.52v356.55c17.501 114.69 95.26 166.52 210 207.45 114.74-40.925 192.5-92.76 210-207.45v-356.55h-420" fill-rule="evenodd"/><path d="m89.14 701.94v-355.07c8.713-56.869 32.35-98.16 68.04-130.29 35.694-32.14 83.48-55.21 140.46-75.57 56.98 20.36 104.77 43.42 140.46 75.57 35.684 32.13 59.32 73.42 68.04 130.29v355.07h-417" fill="url(#S)" transform="matrix(.99763 0 0-.99815 15.659 984.16)"/><path d="m337.69 367.31c.727 3.684.863 7.518.157 11.214-.116.605-.257 1.216-.426 1.832l-.042.154c-1.261 4.486-3.674 8-6.794 10.624 2.102 3.48 4.552 8.526 8.884 9.248 1.152.941 2.41 1.788 3.727 2.48 2.997 1.574 6.171 2.396 9.381 3.226 6.097 1.572 12.307 3.175 17.701 9.833.625.051 1.292.058 1.981.064 3.112.03 6.679.065 9.611 3.877l.005.006c2.178 2.834 2.838 6.462 3.058 10.09 1.071.854 2.084 1.787 3.03 2.803.983 1.06 1.89 2.214 2.712 3.463 4.18 6.361 6.04 15.16 4.106 26.95l.272.487 2.257 4.04 2.922 5.233 1.886 3.379c8.088 1.998 15.241 8.58 19.26 17.384.798 1.748 1.472 3.581 2 5.48.534 1.903.928 3.875 1.165 5.895v.014c.38 3.253.825 7.27.679 11.248-.143 3.897-.856 7.744-2.752 10.779 1.633 2.853 2.959 5.96 3.813 9.464 1.346 5.524 1.511 12.02-.165 20.01.225.287.444.579.654.874 2.676 3.755 4.261 8.226 4.43 12.697.011.278.016.525.016.744 0 5.266-2.123 10.06-5.562 13.588-3.437 3.526-8.192 5.786-13.455 5.985-.281.011-.534.016-.759.016h-.004v-.002c-4.296 0-8.568-1.504-11.767-4.155-.206-.17-.408-.346-.604-.526-.961.827-1.875 1.794-2.74 2.875-.957 1.195-1.854 2.53-2.69 3.97-4.327 7.452-7.02 17.689-8.115 26.18l-.022-.006c.204 3.887.236 7.732.063 11.508 1.334 1.823 2.501 3.667 3.503 5.517 1.049 1.938 1.919 3.882 2.611 5.817 3.558 9.943 2.509 19.735-2.665 27.365.491 1.358.978 2.726 1.312 4.133l.005.024c.469 1.978.855 3.953 1.155 5.924.299 1.964.515 3.928.647 5.888.672 10.02-.873 19.876-4.634 29.575 3.44 10.418 7.303 20.504 11.684 30.19l.023.053c.493 1.077 1.233 2.288 1.999 3.541 1.648 2.697 3.417 5.592 3.341 8.142v.058.004c-.013.304-.056.599-.128.881-.074.288-.178.561-.313.817-.655 1.243-2.028 2.139-4.253 2.597-17.778 22.354-26.512 22.13-34.25 19.237-1.504-.563-2.967-1.227-4.449-1.842-.845.452-1.704.887-2.583 1.299-9.719 4.551-18.947 7.65-27.533 8.849-8.535 1.192-16.437.509-23.559-2.484-8.476 4.489-16.917 2.77-25.347-.756-4.382-1.833-8.322-4.438-12.247-7.07-4.294.629-8.847.903-13.403.947-4.634.044-9.255-.148-13.601-.444l-.169-.012-.126-.109c-4.15-3.618-7.849-7.546-11.229-11.691-3.374-4.137-6.426-8.484-9.29-12.95-1.37-2.135-1.099-2.881-.374-4.874.051-.141.1-.274.199-.552 1.8-5.071 3.691-9.978 5.628-14.799 1.899-4.726 3.867-9.423 5.84-14.12-.464-1.864-.699-3.73-.745-5.619-.098-4.03.662-8.141 1.881-12.527-.132-2.467-.345-5.387-.621-7.757-.306-2.629-.723-5.26-1.229-7.891-.955-4.971-2.433-9.785-3.906-14.585-1.359-4.431-2.716-8.85-3.662-13.378-2.493-11.926 3.481-19.649 8.544-26.2 1.302-1.683 2.543-3.287 3.553-4.857l.004-.004.075-.114c.219-2.634.479-5.265.779-7.895-1.112-8.462-3.794-18.617-8.094-26.02-.836-1.44-1.733-2.775-2.69-3.97-.865-1.081-1.779-2.048-2.74-2.875-.197.18-.398.356-.604.526-3.199 2.651-7.471 4.154-11.767 4.155v.002h-.0001c-.225 0-.479-.006-.759-.016-5.264-.199-10.02-2.46-13.456-5.985-3.439-3.528-5.562-8.322-5.562-13.589 0-.218.005-.466.016-.743.1-2.65.698-5.301 1.725-7.801.199-.485.416-.967.65-1.445.222-.454.452-.892.688-1.308-1.11-1.445-2.138-3.01-3.147-4.604-1.698-2.684-1.998-4.642-2.448-7.58l-.118-.765h.0001l-.0001-.014c-.15-.958-.33-2.02-.51-3.081-.35-2.064-.701-4.129-.941-6.204-1.381-11.899 2.733-16.686 6.829-21.452 1.169-1.361 2.145-2.458 3.141-3.52-.0001-2.472-.025-4.957-.036-7.469-.012-2.534-.012-5.069.036-7.529.065-3.371 1.162-5.651 2.86-7.235 1.678-1.566 3.928-2.427 6.338-2.987l.018-.004c.66-.153 1.315-.3 1.963-.439.671-.144 1.33-.279 1.974-.405 1.385-.271 2.78-.516 4.179-.732.949-4.442 2.394-7.917 4.336-10.42 1.769-2.281 3.945-3.757 6.525-4.426l.111-.19 2.153-3.682 3.03-5.174 2.072-3.542c-1.994-5.392-1.787-9.567-.163-12.909 1.632-3.358 4.682-5.839 8.357-7.854.08-2.052.176-4.215.336-6.41.03-.418.055-.787.08-1.169.293-4.416.683-10.268 3.987-13.375 1.111-1.045 2.353-1.447 3.653-1.47.995-.018 2.01.191 3.03.5 5.131-5.729 10.901-7.359 17.07-9.1 3.445-.972 7.02-1.981 10.65-3.773 1.483-.732 2.924-1.581 4.294-2.508 4.359-.702 6.831-5.859 8.938-9.332-1.955-1.695-3.637-3.725-4.938-6.089-1.935-3.519-2.837-7.494-2.908-11.494-.0001-.132-.004-.269-.005-.408v-.004l.134-29.894c-.012-.029-.022-.061-.028-.093l-3.604-18.78c-.043-.227.077-.462.298-.554 1.214-.504 2.43-.974 3.645-1.413 1.486-4.118 5.779-7.148 11.299-9.02 4.354-1.478 9.488-2.245 14.601-2.262 5.113-.017 10.212.714 14.496 2.232 5.213 1.846 9.239 4.861 10.681 9.113l-.014.005c1.208.42 2.418.867 3.627 1.344.217.086.351.315.308.554l-3.451 18.762c-.004.017-.005.033-.008.05-.014.058-.039.111-.071.158.201 4.391.367 8.765.338 12.993-.027 3.957-.227 7.778-.729 11.353zm-81.985 115.81c4.301 5.428 6.06 11.15 5.909 17.03-.147 5.857-2.184 11.854-5.47 17.854 2.758 2.214 5.617 4.18 8.587 5.925.865.508 1.743 1 2.631 1.479.462-.707.928-1.404 1.399-2.079.538-.773 1.095-1.543 1.668-2.299 2.853-3.768 6.05-7.132 9.286-8.964l.656-17.452c-4-5.647-7.04-12.04-9.535-18.317-1.774 1.609-3.724 2.526-5.804 2.924-2.18.417-4.493.262-6.891-.264l-2.25 3.847-.186.319m100.32-11.218c-2.748 9.423-5.454 18.1-9.245 22.508l.527 17.562c3.442 2.647 6.909 5.956 9.824 10.137 2.843 4.078 5.157 8.98 6.4 14.897 1.819-.57 3.55-1.293 5.172-2.207.156-2.489.057-4.464 1.939-6.455 1.952-2.064 3.892-4.111 5.723-6.01l.584-.601c-.326-.993-.421-2.054-.298-3.091-5.133-4.582-7.227-11.58-6.04-19.841.471-3.266 1.41-6.458 2.641-9.516l-3.621-6.486c-4.69.191-7.924-1.096-10.118-3.397-1.817-1.906-2.899-4.494-3.492-7.503"/><path d="m329.8 391.77c-2.565 1.964-5.553 3.373-8.74 4.26-4.625 1.288-9.619 1.522-14.339.655-4.366-.802-8.516-2.563-11.93-5.277-2.143 3.531-4.667 8.469-8.898 9.541.383.401.777.789 1.191 1.162 5.995 5.41 15.385 8.351 24.872 8.518 9.486.167 19.05-2.436 25.396-8.112.456-.408.89-.834 1.311-1.274-4.208-1.061-6.728-5.946-8.863-9.473" fill="#f00"/><path d="m272.28 642.29l-.134-29.762c.008-3.975.875-7.951 2.799-11.447 3.52-6.398 9.97-10.248 17.01-11.535 4.574-.835 9.426-.606 13.908.642 7.237 2.01 13.399 6.805 15.661 14.849l.043.151c.156.57.292 1.158.407 1.759.499 2.61.563 5.293.287 7.938-.223-1.058-.484-2.091-.786-3.093-.492-1.637-1.093-3.203-1.809-4.679-3.695-7.619-10.433-12.833-21.19-13.317-.744.071-.524 1-.043.996 10.331.465 16.796 5.459 20.334 12.755.691 1.426 1.273 2.942 1.75 4.53.48 1.597.855 3.261 1.13 4.975l.005.032c.613 3.832.848 7.978.878 12.29.029 4.186-.135 8.542-.336 12.922-.662.164-1.324.321-1.985.472.25-6.826.045-13.02-.772-18.484-.854-5.707-2.377-10.621-4.745-14.622-4.855-8.203-12.878-12.264-21.925-11.684-1.75.112-3.541.4-5.357.866-1.813.465-3.645 1.108-5.481 1.931h-.003c-.543.342-.298 1.212.399.914l.007-.003.004-.002c1.789-.802 3.568-1.426 5.32-1.876 1.749-.449 3.479-.726 5.174-.835.28-.018.559-.03.836-.039-.636.162-1.26.358-1.869.587-4.48 1.688-8.277 5.162-11.04 9.826-2.368 4-3.839 8.995-4.64 14.782-.778 5.619-.926 11.994-.656 18.94-1.061-.242-2.121-.501-3.182-.78" fill="url(#T)" transform="matrix(.99763 0 0-.99815 15.659 984.16)"/><path d="m322.38 643.27l3.292 17.887c-9.598 3.732-19.14 5.658-28.636 5.688-9.49.03-18.936-1.835-28.334-5.679l3.435-17.889c8.372 2.193 16.747 3.225 25.13 3.191 8.377-.034 16.75-1.133 25.12-3.197m-.808 20.425c-1.538 3.559-5.175 6.14-9.814 7.782-4.189 1.483-9.184 2.198-14.198 2.182-5.01-.017-10.05-.768-14.315-2.216-4.893-1.66-8.757-4.232-10.38-7.65 8.02 2.741 16.08 4.073 24.17 4.048 8.147-.026 16.327-1.426 24.535-4.146" fill="url(#U)" transform="matrix(.99763 0 0-.99815 15.659 984.16)"/><path d="m297.69 549.38l.018.131-.051.125-14.979 36.475c.109-.134.219-.269.33-.401 1.083-1.296 2.253-2.502 3.509-3.619 6.445-5.731 15.167-9.111 26.17-10.139l.029-.004c4.732-.44 9.513-.477 14.294-.513 3.679-.028 7.36-.056 11.03-.271 6.434-.377 12.447-.971 17.705-1.953 5.09-.951 9.469-2.266 12.829-4.1-.241-4.936-.453-9.874-.5-14.833-.045-4.757.06-9.507.438-14.245-3.383 1.771-7.186 2.784-11.241 3.343-4.352.6-8.994.673-13.716.601h-.11c-2.022-.033-4.03-.104-6.03-.174-5.576-.197-11.164-.395-16.694.238h-.015c-1.367.157-2.69.354-3.967.591-1.279.237-2.525.516-3.735.837-6.06 1.605-11.165 4.243-15.312 7.911" fill="#fff"/><path d="m202.19 540.47c-1.094 1.781-1.718 3.418-1.684 4.837.03 1.25.592 2.351 1.824 3.252.203-1.937 1.309-3.433 2.553-4.501.308-.265.635-.509.972-.736l-3.665-2.853" fill="#ffe600"/><path d="m191.29 418.21c-.082-.128-.159-.256-.231-.383-.121-.212-.232-.426-.332-.638-.521-1.11-.816-2.329-.816-3.607h-.002v-.104c.007-.674.081-1.346.215-2 .134-.651.331-1.289.584-1.9 1.281-3.086 4.02-5.432 7.55-5.486.125-.002.252-.0001.38.003 1.921.056 3.601.768 4.817 1.883 1.154 1.057 1.893 2.481 2.024 4.05-1.022.117-1.828.478-2.54.952-.097-1.031-.581-1.904-1.272-2.546-.749-.696-1.746-1.123-2.758-1.191-.114-.008-.237-.001-.366-.008h-.006l-.09.002h-.004c-1.365.052-2.565.644-3.42 1.562-.852.914-1.362 2.153-1.354 3.503v.006l.0001.089v.004c.022.915.261 1.751.66 2.478.054.099.113.197.173.291-.468.232-.883.538-1.214.967-.412.534-.586 1.19-.606 1.988-.478.008-.942.037-1.394.087m4.172-3.408l-.045-.065c-.075-.111-.146-.226-.209-.342-.326-.594-.521-1.276-.54-2.02l-.0001-.082c-.006-1.086.405-2.082 1.089-2.816.682-.731 1.638-1.204 2.725-1.245l.086-.002c.085-.0001.178.0001.278.008.787.053 1.563.385 2.145.926.572.532.956 1.267.972 2.135.0001.075 0 .159-.005.25l-.001.072-.019.141c-.218.187-.432.379-.647.573-.465.419-.935.842-1.427 1.191h-.002l-.004.002c-.716.504-1.752.708-2.78.909-.547.107-1.092.215-1.606.366m-14.584 9.677c-.166-.304-.323-.605-.468-.901-.222-.454-.431-.918-.625-1.389-.986-2.398-1.559-4.937-1.655-7.472-.008-.208-.012-.446-.012-.709 0-5.01 2.02-9.565 5.29-12.919 3.273-3.355 7.798-5.506 12.808-5.696.212-.008.453-.012.726-.012h.002v-.002c4.075 0 8.127 1.425 11.158 3.936 3.01 2.493 5.01 6.06 5.01 10.37h-.002v.004.034h.002c0 .171-.004.349-.012.531-2.02-.516-4.151-.412-6.607-.292h-.018c-.147-1.832-1.01-3.492-2.348-4.722-1.386-1.271-3.292-2.082-5.462-2.145-.136-.004-.276-.005-.419-.003-3.973.06-7.04 2.669-8.46 6.099-.276.665-.492 1.364-.639 2.084-.147.715-.227 1.451-.235 2.193v.002.108l-.002.002c0 1.424.33 2.786.914 4.03.115.245.238.482.367.709l.029.05c-2.65.5-4.837 1.724-6.741 3.39-.93.814-1.79 1.732-2.603 2.72m42.471-54.66c.113.876.23 1.751.352 2.626 1.737 12.433 4.415 24.818 8.169 37.15l-9.49 7.376c-.117-.266-.283-.539-.491-.815-.545-.721-1.393-1.49-2.332-2.218-2.064-1.602-4.614-3.038-5.244-3.289-.076-.03-.152-.059-.228-.087v-.011-.002l.006-.113v-.002c.012-.225.018-.463.019-.709h.002v-.034-.004h-.002c-.0001-3.968-1.572-7.348-4.048-9.915.99-.859 1.925-1.851 2.808-2.953.992-1.239 1.921-2.618 2.783-4.103 3.79-6.524 6.345-15.13 7.696-22.895m-3.793 49.35l-2.659 2.069-.1-.168v-.002l-.001-.016-.009-.014-.026-.033c-1.385-1.732-2.923-3.329-4.6-4.779 2.404.188 4.302 1.385 6.361 2.493.256.138.504.252.74.343.103.04.204.076.303.107" fill="url(#V)" transform="matrix(.99763 0 0-.99815 15.659 984.16)"/><path d="m325.76 397.86c.075.103.149.201.217.291-.442-.089-.916-.12-1.352.017-.123.038-.239.092-.348.156l-.006.002-.016.001-.004.002c-1.255.78-.832 2.469-.236 3.771.107.236.216.45.317.638.108.201.206.371.288.507l.002.002c1.267 2.099 2.464 4.192 3.564 6.274.658 1.245 1.282 2.49 1.869 3.735-2.219-.203-4.508-.368-6.852-.505-3.676-.215-7.394-.243-11.11-.272-4.769-.036-9.537-.073-14.24-.51l-.029-.003h-.002c-10.804-1.01-19.356-4.314-25.656-9.913-1.223-1.087-2.362-2.261-3.415-3.52-.112-.134-.223-.269-.332-.404 2.097 1.702 4.373 3 6.815 3.923 3.929 1.48 8.282 1.975 13.01 1.577l.02-.002c3.94-.333 7.906-1.165 11.868-1.996 2.746-.576 5.491-1.152 8.224-1.558 3-.446 5.961-.859 8.875-1.232 2.827-.361 5.668-.694 8.524-.99" fill="url(#W)" transform="matrix(.99763 0 0-.99815 15.659 984.16)"/><path d="m357.11 396.39l-1.603 8.766c-.538-.359-1.083-.709-1.63-1.06-1.456-.934-2.926-1.877-4.251-2.992l-5.443-4.583c2.028-.077 4.051-.129 6.067-.154 2.286-.028 4.573-.021 6.861.022" fill="url(#X)" transform="matrix(.99763 0 0-.99815 15.659 984.16)"/><path d="m376.95 602.06c-1.903-4.188-3.505-8.378-4.806-12.571-2.355.047-4.712.055-7.07.026-2.398-.029-4.789-.096-7.17-.197l-.06.047c-.522.412-1.266.852-2.02 1.037-.846.206-1.702.103-2.334-.647l-.006-.006-.04-.049-.006-.006c-.14-.178-.228-.388-.278-.623l-.122-.007-.197-.012c-.387.355-.769.705-1.145 1.047l-.005.005-.235.215c-1.407 1.288-2.749 2.517-5 1.99l-.032-.007-.004-.002c-.623-.155-1.104-.505-1.37-1.096-.113-.252-.183-.545-.202-.884-.841.624-2.11 1.292-3.242 1.26-.569-.015-1.109-.213-1.525-.609l-.001-.008h-.002c-.909-.878-.582-2.02-.034-2.99-2.658-.28-5.33-.596-8.01-.939-3-.384-5.957-.796-8.873-1.23-2.742-.407-5.502-.987-8.263-1.567-3.917-.822-7.837-1.645-11.719-1.973h-.02c-4.578-.385-8.777.089-12.551 1.511-3.668 1.382-6.947 3.666-9.798 6.933.199.098.393.205.581.321.778.483 1.452 1.136 1.972 1.947.803 1.254 1.232 2.883 1.096 4.839l92.51 4.249z" fill="#fff"/><path d="m328.46 471.51c1.076.39 2.075.799 2.991 1.225l-.094 3.135c-.835-.371-1.733-.728-2.688-1.071-1.212-.435-2.514-.843-3.897-1.222-7.083-1.943-16.274-3.118-26.306-3.118h-.001v.002c-6.904.0001-13.401.555-19.08 1.532-.911.157-1.817.328-2.714.512-4.219.867-7.906 1.978-10.871 3.272l-.118-3.13c2.953-1.351 6.711-2.511 11.05-3.411.861-.178 1.761-.349 2.695-.511 5.666-.982 12.15-1.541 19.04-1.541v.002h.001c10.01 0 19.15 1.174 26.17 3.113 1.359.376 2.638.781 3.828 1.212m-62.28 14.743l-.353-9.402c2.962-1.336 6.71-2.481 11.03-3.369.857-.176 1.752-.345 2.682-.505 5.636-.969 12.08-1.52 18.914-1.52v.002h.001c9.952 0 19.05 1.16 26.04 3.079 1.356.372 2.633.773 3.822 1.199 1.067.383 2.067.788 2.992 1.214l-.283 9.428c-.844-.365-1.745-.715-2.696-1.048-1.216-.426-2.513-.824-3.879-1.192-7.04-1.893-16.11-3.03-26-3.03h-.011v.002c-6.779 0-13.167.535-18.775 1.479-.899.151-1.794.317-2.681.495-4.174.839-7.84 1.916-10.816 3.171m.158 4.207l-.118-3.14c2.976-1.295 6.7-2.404 10.971-3.262.846-.17 1.73-.333 2.65-.488 5.563-.937 11.896-1.467 18.611-1.467v.002h.011c9.806 0 18.786 1.127 25.742 2.998 1.356.364 2.629.755 3.809 1.168 1.07.375 2.07.769 2.992 1.181l-.094 3.143c-2.968-1.27-6.643-2.361-10.836-3.211-.891-.181-1.79-.348-2.695-.502-5.64-.958-12.07-1.501-18.906-1.502v-.002h-.011c-9.686 0-18.585 1.094-25.561 2.918-1.368.357-2.656.741-3.855 1.147-.956.324-1.859.663-2.709 1.017" fill="url(#Y)" transform="matrix(.99763 0 0-.99815 15.659 984.16)"/><path d="m386.42 508.44l-1.595 2.855c-3.043-1.226-6.204-2.668-9.416-4.316-.647-.332-1.303-.675-1.964-1.03-.641-.343-1.299-.704-1.973-1.079l-.005-.003h-.002c-3.394-1.896-6.584-3.88-9.516-5.894v-.002c-.58-.398-1.142-.792-1.684-1.18-.432-.309-.858-.619-1.275-.927l1.594-2.853c2.63 1.937 5.508 3.864 8.586 5.729 4.502 2.728 9.173 5.19 13.986 7.321 1.079.478 2.168.938 3.263 1.38m-4.737 8.481l-2.048 3.667c-3.044-1.225-6.205-2.668-9.417-4.315-.647-.332-1.302-.676-1.964-1.03-.641-.343-1.299-.703-1.973-1.079l-.005-.004h-.002c-3.394-1.896-6.584-3.88-9.515-5.895-.534-.367-1.095-.761-1.684-1.182-.432-.309-.858-.618-1.275-.927l4.701-8.416c.391.288.788.576 1.187.862.566.404 1.133.803 1.7 1.192 2.969 2.038 6.185 4.04 9.593 5.943l.005.003h.002c.65.363 1.314.726 1.989 1.088.656.351 1.316.698 1.98 1.038 3.199 1.641 6.346 3.08 9.38 4.306l-2.653 4.75m-28.692-6.107c-.432-.309-.858-.618-1.275-.927l1.594-2.853c.391.288.788.576 1.187.862.519.371 1.086.769 1.7 1.19 2.968 2.039 6.184 4.04 9.592 5.945l.005.003h.002c.65.363 1.314.726 1.989 1.088.656.351 1.317.698 1.98 1.038 3.199 1.64 6.347 3.079 9.381 4.304l-1.595 2.855c-3.044-1.225-6.205-2.668-9.417-4.315-.647-.332-1.303-.676-1.964-1.03-.642-.344-1.3-.704-1.973-1.08l-.004-.004h-.002c-3.393-1.895-6.583-3.88-9.513-5.894-.566-.391-1.129-.785-1.686-1.183" fill="url(#Z)" transform="matrix(.99763 0 0-.99815 15.659 984.16)"/><path d="m370.7 352.87c-.555-8.989-2.311-17.567-5.737-25.376-.579-1.323-1.522-.983-.947.323 5.267 11.961 6.555 25.79 5.589 40.15-.96 14.252-4.143 29.03-7.866 43.02-.905-1.19-1.874-2.3-2.917-3.277-.755-.708-1.566-1.338-2.407-1.932l1.807-9.88c1.348-4.377 3.03-8.758 5.05-13.14l1.062-.049.109-.005.092-.046c.401-.2.703-.504.898-.86.164-.3.252-.639.258-.983.006-.343-.069-.689-.227-1.01-.197-.395-.522-.749-.981-1l-.122-.067-.14.006-31.999 1.471c2.336-1.604 4.568-3.341 6.598-5.262 2.31-2.186 4.35-4.607 5.972-7.334.367-.619-.423-1.253-.735-.718-1.592 2.733-3.618 5.15-5.921 7.329-2.367 2.24-5.04 4.237-7.843 6.074l-61.3 2.818c-.63-.121-1.255-.192-1.873-.219-2.847-.491-5.543-1.334-8.107-2.535-2.826-1.324-5.499-3.087-8.05-5.295-.651-.566-.86.588-.226 1.122 2.483 2.093 5.092 3.784 7.849 5.075 1.699.795 3.453 1.439 5.268 1.932-4.161.966-7.02 3.383-7.738 7.549l-23.405 18.19c-3.68-12.156-6.312-24.368-8.02-36.629-1.727-12.367-2.521-24.782-2.514-37.24 0-.893-.996-.911-.996-.097-.006 7.095.247 14.177.782 21.242-.824-1.165-1.742-2.351-2.691-3.577-4.946-6.391-10.782-13.933-8.377-25.432.94-4.497 2.292-8.9 3.647-13.313 1.487-4.842 2.977-9.698 3.943-14.717.511-2.659.933-5.319 1.243-7.98.197-1.696.35-3.396.45-5.101.146.472.295.946.449 1.425 1.231 3.837 2.527 7.696 3.828 11.572 7.07 21.07 14.334 42.689 11.08 60.22-.182.987.717 1.536.899.609 3.497-17.861-3.865-39.785-11.04-61.14-1.306-3.89-2.606-7.763-3.825-11.56-1.9-5.923-3.234-11.272-3.108-16.431.125-5.127 1.696-10.1 5.596-15.307h.002l.017-.022c.425-.568.829-1.134 1.209-1.696.372-.55.725-1.104 1.056-1.658 1.378-2.312 2.246-4.481 2.398-6.382.122-1.531-1.01-1.607-.977-.796.07 1.881-.787 4.167-2.276 6.666-.309.519-.653 1.057-1.028 1.612-.367.542-.762 1.096-1.182 1.657l-.017.022h.0001c-2.21 2.953-3.698 5.836-4.613 8.714-1.795-4.272-3.588-8.563-5.363-12.977-1.932-4.804-3.821-9.704-5.626-14.787-.041-.116-.127-.353-.203-.561-.603-1.659-.829-2.28.277-4 2.856-4.45 5.894-8.776 9.246-12.884 3.312-4.059 6.941-7.914 11.01-11.477 4.302-.29 8.852-.478 13.389-.434 4.125.039 8.254.27 12.194.787-2.575 1.714-5.193 3.394-8.08 4.833-2.615 1.305-5.1 2.237-7.483 2.87-2.235.594-4.382.928-6.462 1.065-.726.047-.649 1.047.278.981 2.076-.149 4.216-.49 6.437-1.08 2.452-.651 5-1.606 7.675-2.94 7.487-3.738 13.776-9.483 21.538-12.727 8.274-3.46 16.537-5.143 24.763-.689l.211.114.221-.095c7.02-3 14.841-3.693 23.308-2.511 8.504 1.187 17.66 4.262 27.313 8.78 5.609 2.625 10.603 6.35 16.15 9.1 1.996.988 4.134 1.758 6.353 2.02 1.214.14 1.416-.877.546-.947-2.258-.185-4.438-.962-6.457-1.962-4.302-2.131-8.269-4.857-12.458-7.191 1.262-.539 2.522-1.092 3.812-1.563 7.412-2.71 15.872-2.672 33.19 19.14l.115.145.182.035c2.01.385 3.221 1.118 3.75 2.123.101.192.178.392.231.6.055.213.087.439.097.675l.002.053c.067 2.259-1.627 5.03-3.204 7.609-.781 1.278-1.536 2.513-2.058 3.653l-.025.054-.002.002c-6.567 14.517-11.973 29.914-16.543 45.979-4.567 16.05-8.299 32.782-11.521 49.967v.004c-.807 4.505-.828 7.978-.279 10.699.489 2.424 1.429 4.257 2.671 5.692.714.825 1.473.13.998-.38-1.256-1.35-2.209-3.111-2.692-5.507-.525-2.604-.5-5.953.283-10.324 3.216-17.15 6.942-33.847 11.502-49.878 1.353-4.755 2.778-9.451 4.286-14.08 3.399 9.208 4.78 18.559 4.143 28.05-.129 1.928-.343 3.868-.641 5.817-.296 1.942-.677 3.893-1.142 5.853v.002l-.005.023c-.344 1.449-.852 2.85-1.356 4.243-1.035 2.858-2.059 5.688-1.723 8.86.181 1.71.666 3.455 1.452 5.233.15.339.314.686.493 1.04.807 1.6 1.681 1.118.891-.449-.164-.326-.321-.657-.47-.994-.745-1.685-1.204-3.331-1.374-4.936-.276-2.601.461-5.03 1.322-7.453 4.652 7.287 5.512 16.519 2.151 25.906-.68 1.898-1.53 3.801-2.554 5.691-.799 1.475-1.706 2.946-2.719 4.404" fill="url(#a)" transform="matrix(.99763 0 0-.99815 15.659 984.16)"/><path d="m264.86 471.92c-3-1.796-5.993-4.975-8.688-8.533-.561-.74-1.112-1.502-1.649-2.272-.466-.669-.912-1.332-1.338-1.982 1.09-.571 2.195-1.12 3.311-1.649 2.333-1.106 4.711-2.123 7.102-3.06l1.072-.418c7.798-3.037 15.806-6.157 17.843-17.27 4.19 3.568 9.284 6.147 15.281 7.735 1.231.326 2.504.611 3.818.854 1.316.244 2.664.445 4.04.603l.015.002c5.604.641 11.25.442 16.882.243 2.02-.071 4.04-.143 6.03-.175l.108-.002c4.69-.072 9.296.0001 13.604.594 1.878.259 3.7.616 5.447 1.105-1.213 5.823-3.482 10.64-6.272 14.639-2.748 3.94-6.01 7.096-9.268 9.647-1.116-.518-2.243-.996-3.401-1.415-1.212-.438-2.516-.852-3.902-1.235-7.099-1.964-16.339-3.152-26.432-3.152h-.001v.002c-6.954.0001-13.495.563-19.2 1.553-.917.159-1.827.332-2.727.519-3.997.829-7.949 1.947-11.661 3.667" fill="url(#b)" transform="matrix(.99763 0 0-.99815 15.659 984.16)"/><path d="m355.34 568.3c-19.529-12.171-38.972-18.666-58.49-18.83-19.566-.165-39.19 6.03-59.02 19.248l-.077.051c-.95.294-1.895.494-2.793.479-1.065-.019-2.083-.349-2.994-1.204-3.03-2.843-3.402-8.481-3.685-12.735-.028-.428-.056-.844-.081-1.179-.202-2.769-.302-5.409-.394-7.856-.206-5.464-.376-9.991-1.536-12.566-.399-.888-1.245-.345-.892.451 1.064 2.393 1.231 6.814 1.431 12.151l.012.301c-3.282-1.873-5.98-4.145-7.434-7.135-1.434-2.95-1.668-6.633-.074-11.37l1.764 3.01.221.376.403-.169c3.175-1.337 6.474-2.914 9.816-4.713.666-.358 1.319-.717 1.959-1.077.614-.345 1.272-.722 1.968-1.129l.004-.002.004-.003c3.385-1.981 6.559-4.045 9.469-6.132.566-.406 1.125-.815 1.675-1.226.55-.41 1.09-.821 1.616-1.23l.017-.014c.447-.096.851-.084 1.243.045.455.159.916.532 1.422.965.413.351 1.158-.341.472-.946-.539-.475-1.053-.793-1.582-.967h-.002c-.537-.176-1.076-.204-1.657-.093l-1.946-3.325-1.488-2.543-1.102-1.883c2.165-.445 4.243-.564 6.188-.192 2.02.386 3.905 1.305 5.613 2.946-1.623 4.166-3.02 8.264-4.302 12.04-2.031 5.976-3.791 11.155-5.745 14.494-.409.699.463 1.198.948.353 1.972-3.432 3.725-8.588 5.743-14.527 3.207-9.436 7.092-20.864 13.535-30.3l.493-.211.006-.002.006-.002c1.012-.446 2.113-.87 3.293-1.27 1.191-.403 2.456-.781 3.784-1.128 6.892-1.802 15.702-2.883 25.311-2.883h.011v-.002c6.768 0 13.147.539 18.742 1.49 4.989.846 9.919 2.117 14.545 4.203 3.645 4.85 6.312 14.03 9.116 23.692 2.162 7.448 4.408 15.179 7.26 21.48.437.969 1.353.556 1.046-.116-2.896-6.308-5.165-14.12-7.349-21.642l-.005-.017c.448-3.725 1.495-6.913 3.567-9.09 1.924-2.02 4.763-3.179 8.87-3.108l-3.526 6.311c-.945-.168-1.837.007-2.683.44-.838.428-1.622 1.109-2.365 1.957-.719.82.029 1.511.583.854.718-.853 1.461-1.529 2.235-1.925.83-.425 1.714-.528 2.666-.178.406.3.817.599 1.233.896.551.394 1.118.791 1.698 1.191h.002c2.968 2.039 6.183 4.04 9.592 5.945l.004.004h.002c.65.363 1.313.726 1.989 1.088.656.351 1.317.698 1.98 1.038 3.385 1.736 6.714 3.246 9.908 4.516l.406.161.214-.382 1.021-1.827c1.57 10.913-.247 19.09-4.156 25.04-.787 1.198-1.664 2.309-2.617 3.337-.705.76-1.453 1.474-2.238 2.143.036-1.032.048-2.055.059-3.053.031-2.828.06-5.443.663-7.355l-.953-.301c-.644 2.043-.674 4.736-.706 7.648-.052 4.783-.111 10.177-2.98 13.91l-.005.006c-2.645 3.437-5.96 3.469-8.853 3.497-.727.007-1.431.013-2.097.069" fill="url(#1G)" transform="matrix(.99763 0 0-.99815 15.659 984.16)"/><path d="m359.08 494.66c-.479-1.251-.891-2.484-1.238-3.697-.474-1.662-.825-3.283-1.051-4.85-1.111-7.692.723-14.224 5.286-18.588.271.998.752 2.028 1.483 3.06l.0001.004.001.012c.551.775 1.223 1.595 1.987 2.441.763.845 1.609 1.706 2.51 2.569 4.652 4.455 10.96 9.144 15.231 11.921 3.528 2.293 7.137.282 10.704-1.706.53-.296 1.06-.592 1.589-.871 1.097-.58.988-1.628.034-1.142-.698.356-1.402.749-2.108 1.142-3.306 1.843-6.652 3.707-9.677 1.741-4.231-2.751-10.478-7.394-15.08-11.803-.899-.861-1.73-1.706-2.463-2.518-.728-.806-1.372-1.591-1.904-2.339l-.0001-.003-.001-.012c-1.223-1.721-1.665-3.42-1.57-4.92.018-.292.057-.575.113-.847.001-.051.021-.103.033-.154 1.949 1.974 3.931 3.913 5.866 5.899 2.964 3.047 6.64 6.825 10.843 6.85 3.501.018 7.236-1.854 10.351-3.252 4.188-1.88 8.34-3.76 12.44-5.816 1.031-.517.751-1.496-.038-1.097-4.22 2.13-8.494 4.067-12.809 6-2.974 1.335-6.599 3.177-9.941 3.167-3.782-.022-7.297-3.636-10.132-6.549-.459-.471-.9-.924-1.337-1.357l-.002-.002-.19-.187-.002-.002c-1.906-1.86-3.814-3.796-5.723-5.77-1.987-2.056-3.867-4.04-5.732-6.01-1.897-2-1.575-4.521-1.747-7.04-.177-2.579-.445-5.17-.511-7.837l10.27 13.945c2.897.857 5.998.767 8.86-.16.177 2.799 1.09 5.474 2.647 7.797.31.463 1.234.052.828-.553-1.514-2.257-2.373-4.876-2.496-7.597 3.849-1.534 6.971-4.607 8.166-8.644.343-1.161.512-2.343.543-3.53l.455-.111c2.457-.604 4.915-1.209 7.311-.443.656.208.626-.877-.063-1.061-2.529-.684-5.01-.073-7.486.535l-.224.054c-.028-.726-.103-1.453-.219-2.178l-5.58-5.285c4.257 2.525 9.173 3.992 14.174 3.992h.005v-.002c3.269-.0001 6.391-.592 9.251-1.676.464-.175.924-.366 1.378-.57 2.324-1.041 4.455-2.417 6.325-4.072l.035-.031c.679-.603 1.322-1.245 1.928-1.921.073-.082.145-.164.218-.247 1.475 7.495 1.286 13.609.015 18.824-1.284 5.267-3.679 9.634-6.578 13.59-.523.713.372 1.194 1.037.274.74-1.026 1.447-2.08 2.11-3.17 1.595 2.8 2.21 6.3 2.341 9.856.143 3.901-.299 7.889-.677 11.12l-.002.014c-.231 1.972-.615 3.896-1.136 5.75-.522 1.858-1.179 3.646-1.955 5.346-3.864 8.46-10.683 14.802-18.393 16.802-1.282-.516-2.555-1.045-3.819-1.604-3.264-1.445-6.627-3.121-10.01-5.01l-.003-.002c-1.299-.726-2.587-1.475-3.86-2.246-3.244-1.966-6.377-4.088-9.418-6.355l-1.19 2.131m-146.8 18.901c-2.699-.51-4.95-1.926-6.75-4.246-1.8-2.318-3.159-5.544-4.078-9.672 1.673.241 3.352.441 5.03.594 3.779.343 5.519-1.366 7.45-3.263.762-.749 1.557-1.53 2.528-2.205.912-.634 1.924-1.074 2.934-1.512 1.798-.781 3.589-1.558 4.923-3.36.755-1.021-.082-1.671-.558-.942-1.203 1.844-2.977 2.614-4.759 3.388-1.064.462-2.132.926-3.109 1.606-1.03.717-1.86 1.532-2.657 2.314-1.758 1.727-3.342 3.283-6.661 2.982-3.391-.308-6.8-.813-10.178-1.473-.671-.131-1.326-.266-1.964-.402-.661-.141-1.312-.287-1.952-.435l-.018-.004c-2.264-.526-4.365-1.323-5.896-2.751-1.513-1.411-2.49-3.466-2.55-6.533-.048-2.462-.048-4.993-.036-7.523.001-2.158.029-4.337.035-6.444.781.804 1.613 1.63 2.591 2.576 4.363 4.218 7.519 8.413 6.948 12.532-.105.76.937.884 1.037-.278.375-4.334-2.803-8.6-7.162-12.842-2.454-2.389-4.567-4.609-6.8-7.205-3.964-4.61-7.945-9.241-6.611-20.73.24-2.068.588-4.117.936-6.165.169-.997.339-1.995.511-3.098l.002-.014h.002l.118-.767v-.002c.432-2.822.72-4.703 2.309-7.213 1.236-1.952 2.499-3.858 3.9-5.534 1.677-.371 3.171-.354 4.484.053 1.314.408 2.459 1.215 3.434 2.418-.077.367-.155.737-.244 1.109-.36 1.509-.83 3.01-1.396 4.455-.297.76-.669 1.49-.965 2.248-1.59.96-2.451 2.162-2.72 3.553-2.252-.074-4.214.724-5.883 2.39-.344.344-.679.729-1 1.153-.272.358-.533.739-.78 1.14-.427.694.675.775 1.094.14.158-.24.318-.466.48-.679.29-.382.594-.731.911-1.048 1.448-1.446 3.144-2.147 5.086-2.102-.003 1.622.694 3.432 1.893 5.36l-2.991 2.327-.109.085-.051.134c-.185.489-.202.968-.096 1.395v.002c.086.346.255.658.482.914.228.257.514.458.835.579.339.128.717.169 1.103.099l20.432 20.53c-2.913.23-5.763.35-8.412.152-2.717-.204-5.227-.743-7.385-1.846-.839-.428-1.15.572.005 1.112 2.18 1.02 4.655 1.531 7.306 1.73 2.972.223 6.163.055 9.409-.221l7.246 7.281.135.135.189.011c2.02.119 4.04.336 6.05.707 1.913.353 3.829.847 5.747 1.533l.031.031.015-.015.235.086.345.127.224-.295c2.783-3.667 5.672-6.947 8.682-9.878 3.348 6.672 2.243 13.419-2.131 18.939-.875 1.104-1.883 2.162-3.01 3.161-.991.877-2.075 1.708-3.244 2.486-.962.639-.337 1.434.811.654 1.111-.754 2.144-1.554 3.093-2.394 1.172-1.037 2.22-2.137 3.133-3.29 4.677-5.902 5.809-13.14 2.1-20.278.454-.431.911-.854 1.371-1.27.837-.756 1.685-1.488 2.541-2.195 3.17 5.825 5.132 11.628 5.274 17.271.139 5.55-1.488 10.963-5.468 16.11l-.723-1.236-.707-1.208-.287-.491-.449.349c-2.692 2.091-5.658 4.175-8.841 6.193-.645.409-1.274.8-1.883 1.171-.652.397-1.297.783-1.931 1.154l-.004.002-.003.002c-3.348 1.959-6.675 3.702-9.903 5.209-.64.298-1.264.583-1.871.853-.399.177-.798.351-1.2.523m-29.422-89.81c.414-.435.841-.849 1.284-1.237 2.302-2.01 5.04-3.338 8.59-3.391.073.765.231 1.635.422 2.635-.655.373-1.257.915-1.836 1.626-.712.873-1.07 1.829-1.327 2.826-.989-1.045-2.129-1.768-3.415-2.168-1.132-.351-2.37-.448-3.718-.291" fill="url(#c)" transform="matrix(.99763 0 0-.99815 15.659 984.16)"/><path d="m214.18 517.36l-1.652-2.822c.442-.189.89-.384 1.345-.586.638-.284 1.269-.571 1.89-.861 3.257-1.521 6.612-3.278 9.989-5.254l.004-.002.003-.002c.672-.393 1.319-.78 1.943-1.16.667-.406 1.301-.8 1.899-1.179 3.037-1.925 5.876-3.909 8.47-5.901l.421.719 1.229 2.101c-.413.319-.834.637-1.258.952-.542.404-1.096.809-1.661 1.214-2.906 2.083-6.06 4.132-9.395 6.086l-.004.002-.004.002c-.611.358-1.26.73-1.948 1.115-.664.373-1.313.73-1.944 1.069-3.184 1.715-6.315 3.221-9.327 4.505m5.376 9.188l-2.122-3.626-2.747-4.694c3.01-1.288 6.133-2.791 9.293-4.492.666-.358 1.32-.718 1.959-1.077.614-.345 1.272-.723 1.968-1.129l.004-.002.004-.002c3.385-1.981 6.559-4.044 9.47-6.131.566-.406 1.126-.815 1.676-1.225.395-.295.786-.59 1.169-.884l3.601 6.155 1.266 2.164c-.414.319-.834.637-1.258.952-.542.404-1.096.809-1.661 1.214-2.905 2.083-6.06 4.133-9.395 6.087l-.004.002-.004.003c-.611.358-1.26.73-1.948 1.115-.664.373-1.313.729-1.944 1.069-3.185 1.714-6.316 3.22-9.328 4.503zm27.699-11.258c-.413.319-.834.637-1.258.952-.542.404-1.096.81-1.66 1.214-2.905 2.083-6.05 4.133-9.395 6.087l-.004.002-.004.003c-.611.358-1.26.73-1.948 1.115-.664.373-1.313.73-1.944 1.069-3.185 1.715-6.316 3.221-9.328 4.504l-1.652-2.823c3.01-1.288 6.135-2.789 9.294-4.491.666-.358 1.32-.717 1.959-1.077.614-.345 1.272-.723 1.968-1.129l.004-.002.004-.003c3.385-1.981 6.559-4.045 9.469-6.132.567-.406 1.126-.815 1.676-1.226.395-.295.786-.59 1.169-.884l1.649 2.819" fill="url(#d)" transform="matrix(.99763 0 0-.99815 15.659 984.16)"/><path d="m362.49 412.02c3.618-13.503 6.764-27.765 7.925-41.623 1.375 7.613 3.897 15.957 7.594 22.321.862 1.485 1.79 2.864 2.783 4.103.882 1.101 1.818 2.094 2.808 2.953-2.476 2.567-4.047 5.947-4.048 9.915h-.002v.004l.002.002v.134.002c.001 1.087.144 2.147.387 3.163.244 1.023.597 1.999 1.044 2.914 2.296 4.704 7.114 7.974 12.683 8.04h.004.134.002c2.812-.002 5.524-1.147 7.541-2.991 2.025-1.852 3.357-4.412 3.4-7.238v-.002-.134-.006-.108-.002c-.007-.742-.088-1.478-.235-2.193-.148-.719-.363-1.419-.639-2.084-1.424-3.43-4.487-6.04-8.46-6.099-1.416-.022-2.73.274-3.873.809-1.302.609-2.384 1.531-3.146 2.652-.765 1.126-1.208 2.453-1.23 3.868-.016 1.093.219 2.236.753 3.377l.002.006.087.18.004.006c.167.332.354.646.558.937.207.294.435.573.682.832 1.241 1.3 2.954 2.098 4.917 2.082.094 0 .179-.003.253-.006.419-.02.828-.081 1.22-.18.398-.1.781-.238 1.142-.41 1.825-.869 3.152-2.623 3.207-4.848v-.004-.089-.006c.008-1.35-.503-2.589-1.354-3.503-.855-.917-2.055-1.509-3.42-1.562h-.004l-.09-.002h-.006c-.165-.003-.33.004-.492.019-.99.096-1.956.532-2.679 1.225-.732.7-1.219 1.663-1.241 2.803-.003.16.003.323.019.488l.992-.094c-.012-.129-.017-.254-.015-.375v-.002c.016-.85.384-1.573.937-2.102.562-.538 1.312-.877 2.081-.951.126-.012.253-.017.377-.015l.086.002c1.087.042 2.043.514 2.725 1.245.684.734 1.095 1.73 1.089 2.816v.082c-.045 1.817-1.138 3.253-2.64 3.969-.305.145-.625.261-.954.344-.335.084-.679.136-1.025.153-.08.004-.152.006-.212.007h-.002c-1.671.013-3.13-.667-4.187-1.774-.212-.222-.409-.463-.588-.718-.181-.257-.342-.526-.481-.802l-.086-.181c-.466-.996-.672-1.991-.657-2.937.018-1.213.4-2.353 1.058-3.321.661-.973 1.605-1.776 2.743-2.308 1.011-.473 2.178-.734 3.44-.715 3.533.054 6.269 2.4 7.55 5.486.253.611.45 1.248.584 1.9.135.656.209 1.328.215 2v.103.13c-.039 2.534-1.243 4.841-3.075 6.516-1.84 1.682-4.31 2.727-6.868 2.729h-.129c-5.179-.066-9.66-3.109-11.797-7.486-.42-.86-.749-1.767-.973-2.707-.226-.945-.35-1.929-.36-2.939v-.002-.13h.002v-.004h-.002c.0001-4.308 2-7.877 5.01-10.37 3.03-2.511 7.083-3.935 11.158-3.936v.002h.003c.272 0 .514.004.726.012 5.01.19 9.535 2.341 12.808 5.696 3.271 3.353 5.29 7.911 5.29 12.918 0 .264-.004.502-.012.71-.162 4.283-1.684 8.571-4.257 12.178-.503.706-1.045 1.385-1.621 2.027-.577.644-1.194 1.259-1.846 1.839l-.035.031c-1.794 1.587-3.839 2.909-6.071 3.908-.431.193-.873.376-1.323.546-2.753 1.043-5.757 1.613-8.9 1.613v-.002h-.005c-6.393 0-12.645-2.489-17.463-6.543-1.298-1.092-2.5-2.306-3.573-3.62-.565-1.059-1.177-2.322-1.844-3.699-1.642-3.387-3.615-7.452-6.102-10.979" fill="url(#e)" transform="matrix(.99763 0 0-.99815 15.659 984.16)"/><path d="m356.99 443.08c.255.006.509.006.76-.002 3.545-.108 6.777-1.533 9.211-3.801 2.435-2.269 4.074-5.384 4.432-8.87.024-.235.041-.474.053-.713l1.872 1.773c-.212 6.02-3.348 10.348-8.272 12.415-.988.415-2.043.739-3.156.968-1.05.216-2.155.349-3.305.396l-1.595-2.166m17.274-10.717l4.803 4.55c.13 2.087-.033 3.964-.447 5.619-.67 2.678-1.998 4.777-3.798 6.248-1.803 1.473-4.091 2.327-6.677 2.513-1.717.123-3.567-.048-5.495-.527l-3.359-4.561c.968-.067 1.903-.194 2.798-.378 1.187-.244 2.305-.587 3.343-1.023 5.05-2.119 8.347-6.445 8.831-12.441m5.843 5.534l1.841 1.744c.33 2.214.177 4.207-.342 5.96-.741 2.505-2.234 4.53-4.13 6.02-1.906 1.5-4.216 2.464-6.58 2.84-1.941.309-3.918.222-5.735-.288l-1.614-2.191c1.623.311 3.19.41 4.668.304 2.791-.2 5.27-1.13 7.235-2.736 1.968-1.608 3.414-3.885 4.139-6.779.367-1.469.548-3.098.517-4.877" fill="url(#f)" transform="matrix(.99763 0 0-.99815 15.659 984.16)"/><path d="m283.44 597.85c.142-1.775-.226-3.232-.932-4.336-.437-.683-1-1.232-1.659-1.639-.656-.408-1.402-.672-2.193-.784-1.423-.2-2.994.093-4.466.935l.027.095c.978 4.331 4.964 6.497 9.223 5.728" fill="#8f4a00"/><path d="m269.3 384.1l94.81-4.358c.21.139.362.313.457.503.088.176.129.364.126.546-.003.18-.05.359-.137.519-.087.158-.217.298-.386.401l-94.77 4.351-.098-1.961" fill="url(#g)" transform="matrix(.99763 0 0-.99815 15.659 984.16)"/><path d="m222.53 418.12l34.32-26.662 1.211 1.512-39.78 30.95c-.088-.185-.175-.365-.259-.538-.241-.493-.456-.916-.635-1.258l3.572-2.779c.454-.045.812-.202 1.06-.413.149-.126.267-.267.355-.418.074-.127.125-.258.157-.393m-17.679 16.247l-19.593 15.244-.847-.077c-.09-.057-.173-.126-.244-.206-.121-.137-.212-.307-.259-.496-.051-.205-.049-.435.019-.677l19.625-15.269c.349.146.653.379.899.665.104.269.239.543.401.815" fill="url(#h)" transform="matrix(.99763 0 0-.99815 15.659 984.16)"/><path d="m257.23 390.35c1.023-4.799 6.281-7.091 11.147-6.374l.099 1.973c-4.162-.413-8.591 1.227-10.04 5.892l-1.205-1.49" fill="url(#i)" transform="matrix(.99763 0 0-.99815 15.659 984.16)"/><path d="m351.89 570.86c-1.869.268-3.811.497-5.814.694-.665 1.435-1.378 2.868-2.134 4.301-1.115 2.112-2.317 4.217-3.583 6.314l-.002.0001c-.081.135-.173.294-.264.463-.098.182-.198.379-.289.578-.306.669-.578 1.465-.468 2.01.143.713 1 .737 1.575.584.438-.118.885-.303 1.161-.672 1.728-2.314 3.438-4.669 5.101-7.07 1.614-2.333 3.193-4.727 4.716-7.198zm17.18-25.25c-.022 1.559-.023 3.116-.008 4.673.048 5.02.269 10.06.516 15.1l.015.307-.268.151c-3.492 1.967-8.07 3.361-13.406 4.357-.894.167-1.81.323-2.745.469-1.663 2.73-3.4 5.376-5.183 7.955-2.053 2.969-4.153 5.83-6.258 8.621l-.022.029c-.384.51-1 1.325-1.165 2.028-.183.782.341 1.27 1.078 1.29 1.421.04 2.681-1.068 3.693-1.97 2.834-2.532 5.525-5.774 8.179-8.973 2.672-3.22 5.309-6.398 8.03-8.795.611-.535 1.515.005.843.588-2.742 2.369-5.409 5.584-8.113 8.843-2.703 3.258-5.445 6.561-8.352 9.145-.123.616-.097 1.066.042 1.376.126.281.371.452.695.534l.031.006c1.743.407 2.895-.648 4.102-1.753l.234-.215.005-.005c1.56-1.419 3.189-2.924 4.831-4.441 5.268-4.866 10.672-9.858 13.88-12.12.623-.439 1.39.249.781.668-3.103 2.137-8.616 7.229-13.986 12.19-.808.746-1.614 1.49-2.405 2.218-.02.274-.033.532-.02.747.012.203.046.366.117.458l.034.043c.335.392.831.435 1.334.313.596-.145 1.204-.51 1.64-.853.052-.04.093-.073.128-.102l6.467-5.449c1.384-1.166 2.869-2.119 4.342-3.064 1.687-1.083 3.358-2.155 4.782-3.49 4.185-3.924 7.201-10.147 9.539-14.971 1.033-2.132 1.935-3.994 2.765-5.299.001-.528-.013-1.051-.066-1.565-.331-3.231-1.852-6.12-4.11-8.225-2.259-2.106-5.255-3.43-8.538-3.529-.49-.015-.99-.0001-1.494.04l-1.966 2.671m-155.82 3.48l.07.068h.0001l.223.218h.004.0001c.203.202.426.409.64.608.207.192.406.378.611.581h.0001.0001c.202.203.4.464.581.764.385.643.642 1.324.792 2.091.04.207.07.415.088.622.089 1.034-.119 2.057-.825 2.769-.231.233-.501.395-.78.562l-.26-.165c-.869-.553-1.681-1.038-2.513-1.492-.819-.446-1.663-.864-2.607-1.29-.361-.163-.718-.34-1.064-.541-.352-.205-.688-.434-.999-.698-.691-.587-1.144-1.273-1.341-2.108-.191-.807-.133-1.741.19-2.85.305-1.047.787-2.176 1.356-2.791.132-.143.271-.262.416-.352.054-.034.11-.062.166-.088l-1.324-1.03c-.406.251-.794.534-1.156.845-1.254 1.077-2.348 2.645-2.227 4.705.142.301.292.636.451 1 .168.388.32.757.455 1.102.559 1.43 1.026 2.908 1.391 4.396.414 1.695.538 3.505 1.686 4.915.763.937 1.55 1.519 2.464 1.753.927.238 2.02.129 3.377-.318h.004.0001c.341-.112.689-.234 1.036-.364.333-.125.703-.272 1.108-.442 1.946-.818 4.084-1.946 5.809-3.284.626-.486 1.167-1.017 1.671-1.58.51-.57.994-1.185 1.492-1.821.843-1.076 2.036-2.626 3.187-4.311 1.326-1.942 2.631-4.02 3.336-6.292.119-.381.226-.802.302-1.265-.953-.454-1.888-.233-2.724.29-1.203.75-2.175 2.049-2.866 3.182-.189.31-.364.626-.525.95l-.148.074h-.005-.0001c-.222.11-.454.241-.689.39-.243.154-.487.323-.725.504-1.239.942-2.441 2.254-2.866 3.434l-.027.074c-.43.535-.961.948-1.615 1.168-.111.037-.223.069-.335.094-1.779-1.342-3.53-2.72-5.292-4.091zm1.4 7.109c.03-.026.057-.053.084-.08.469-.473.603-1.213.537-1.982-.069-.793-.33-1.605-.74-2.288-.139-.231-.285-.426-.43-.57h-.002-.0001c-.17-.17-.375-.36-.586-.557-.208-.193-.425-.395-.663-.63h-.004-.0001l-.217-.214c-.517-.505-1.194-1.165-1.79-1.923h-.0001l-.244-.314c-.685-.887-1.351-1.748-2.077-1.742h-.033c-.036.005-.077.021-.121.048-.067.042-.138.103-.209.18-.454.49-.86 1.467-1.13 2.393-.273.936-.326 1.705-.174 2.347.145.614.488 1.126 1.014 1.573.264.224.552.421.854.597.308.179.637.342.975.494.951.43 1.817.859 2.673 1.326.753.411 1.498.851 2.287 1.348zm-5.372 7.402c-.206 1.082-.365 1.998-.4 2.746-.038.803.06 1.415.392 1.846.637.826 1.9 1.075 3.172 1.325 1.128.222 2.266.445 3.155 1.072h.0001l.006.004c.562.399 1.041.831 1.515 1.259 1.121 1.011 2.218 2 3.981 2.084l.601.029c2.83.139 5.211.255 7.386-.613.587-.234 3-1.601 4.99-3.147.87-.676 1.651-1.381 2.139-2.027.394-.522.583-.968.418-1.252-.03-.052-.076-.105-.136-.156-.271-.23-.861-.309-1.758.037-.193.074-.402.171-.625.291-2.082 1.122-3.849 2.268-6.334 2.566-.544.065-1.105.089-1.651.021-.952.771-1.969 1.542-3.088 2.362-.731-.115-.927-.382-.588-.803 1.795-1.315 3.319-2.495 4.711-3.743 1.381-1.239 2.642-2.554 3.919-4.149l.0001-.004.007-.001c.112-.182.276-.475.479-.858.218-.41.454-.873.689-1.352 1.202-2.46 2.782-6.135 3.052-8.236-.309-.08-.631-.106-.949-.084-1.084.075-2.094.685-2.534 1.441-.566 1.076-1.191 2.186-1.824 3.311l-.196.348-.307.547c-.782 1.405-1.478 2.655-2.644 3.847-1.207 1.233-2.374 2.425-3.845 3.534-1.48 1.117-3.258 2.144-5.67 3.036-.725-.236-.839-.548-.343-.936 2.308-.853 4-1.833 5.413-2.896 1.418-1.069 2.556-2.231 3.732-3.434v-.002c1.081-1.105 1.743-2.295 2.488-3.633l.307-.549.196-.349c.613-1.089 1.218-2.162 1.766-3.199h-.004c.022-.042.045-.083.07-.124 1.135-2.161 2.01-4.154 2.175-5.764-.476-.203-1.125-.147-1.757.064-.915.304-1.531.752-2.089 1.485-.337.538-.691 1.075-1.048 1.597-1.156 1.693-2.368 3.267-3.226 4.362-.506.645-.997 1.27-1.535 1.871-.544.607-1.128 1.181-1.803 1.706-1.805 1.4-4.02 2.572-6.03 3.417-.364.153-.75.306-1.147.454-.383.144-.743.27-1.075.38h-.004-.0001c-.907.431-3.227.732-4.151.274" fill="#fcd180"/><path d="m230.98 546.47c-.123.27-.257.545-.399.823.163-.073.328-.139.496-.194.158-.053.319-.098.48-.134-.193-.164-.385-.329-.576-.495" fill="#e6e6e6"/><path d="m186.69 449.76l18.726-14.57c.618.798 1.409 1.557 2.21 2.166.27.205.538.392.797.556.217.137.431.26.638.368.103.195.243.448.414.728.547.896 1.436 2.143 2.54 3.042-4.362 4.341-8.246 9.252-11.618 14.644-1.97-2.13-4.161-3.726-6.542-4.866-2.234-1.07-4.631-1.738-7.164-2.068m71.998-56.02c1.664.941 3.448 1.268 5.073 1.039.318-.045.631-.11.935-.197.138 1.435.162 2.817.083 4.146-.089 1.503-.311 2.942-.649 4.315-1.739 7.07-6.573 12.444-12.369 16.239-3.853 2.522-8.112 4.104-12.382 5.689-3.143 1.167-6.292 2.337-9.314 3.888l-.003.002-.004.002c-1.738.893-3.424 1.849-5.057 2.865-1.637 1.019-3.234 2.106-4.789 3.257-.454.336-.904.679-1.35 1.026-.216-.998-.619-2.083-1.139-3.226.452.194.943.321 1.445.356.589.04 1.185-.045 1.733-.267l.335-.127-.019-.363c-.096-1.808-1.332-4.976-2.504-7.544l39.976-31.1" fill="url(#j)" transform="matrix(.99763 0 0-.99815 15.659 984.16)"/><path d="m200.24 458.02l-.003.004.018.014c.33.252.66.506.988.762 3.804 2.97 7.684 6.393 11.64 10.1 3.791 3.55 7.676 7.383 11.633 11.333-1.335-.395-2.671-.707-4.01-.954-1.996-.368-3.99-.587-5.98-.711l-27.638-27.771c2.309.33 4.493.957 6.531 1.934 2.212 1.06 4.257 2.537 6.104 4.499.244.259.48.526.714.794" fill="url(#k)" transform="matrix(.99763 0 0-.99815 15.659 984.16)"/><path d="m265.77 398.79c.036-.608.052-1.225.046-1.852l15.875 38.635c-1.643 11.371-9.621 14.479-17.384 17.501h-.002l-1.072.418c-2.409.945-4.809 1.97-7.164 3.087-2.353 1.115-4.667 2.326-6.911 3.643-4.245 2.492-8.269 5.432-12.1 8.892-3.717 3.358-7.252 7.207-10.631 11.615-4.361-4.361-8.646-8.609-12.868-12.563-4.245-3.976-8.399-7.625-12.452-10.735 3.395-5.465 7.32-10.432 11.734-14.805 1.077.625 2.297.847 3.581.202.107-.053.208-.109.304-.168l.276-.168-.04-.318c-.082-.655-.225-1.245-.389-1.773v-.002c-.105-.338-.219-.651-.331-.939.55-.48 1.106-.952 1.669-1.415.313-.062.605-.175.863-.351l.004-.004.034-.024.226-.158-.013-.274-.004-.084c.587-.464 1.18-.917 1.78-1.362 1.526-1.13 3.101-2.202 4.723-3.211 1.625-1.012 3.286-1.954 4.979-2.824l.003-.002.004-.002c2.968-1.524 6.094-2.685 9.212-3.843 4.329-1.607 8.646-3.211 12.582-5.787 5.987-3.92 10.984-9.489 12.791-16.837.352-1.431.583-2.93.676-4.495" fill="url(#l)" transform="matrix(.99763 0 0-.99815 15.659 984.16)"/><path d="m351.23 656.39c1.42 9.476 1.114 21.461.792 34.08-.56 21.91-1.168 45.733 7.159 61.34 1.646 3.085 4.458 5.413 6.658 8.094-2.717 2.853-5.68 5.395-9.08 7.399-2.61 1.537-5.22 2.625-7.829 3.412-1.197.361-1.679-.547-.688-.833 2.671-.774 5.343-1.863 8.01-3.436 2.748-1.619 5.499-3.754 8.254-6.591-2.111-2.49-4.646-4.658-6.203-7.577-8.452-15.839-7.84-39.797-7.277-61.832.321-12.569.626-24.51-.781-33.903-.167-1.12.815-1.277.983-.15m-78.929-.039c-2.259 10.41-3.603 21.37-4.425 32.643-.825 11.303-1.128 22.899-1.304 34.564v.113c-.023 1.749.033 3.619.091 5.541.226 7.581.477 15.968-3.931 21.808l-.004.005c-.649.859-1.437 1.639-2.329 2.332-.887.69-1.879 1.298-2.942 1.815-5.443 2.652-12.799 2.962-17.466.043-2.596-1.623-4.29-4.245-5.081-7.862-.177-.812.825-.926.918-.472.707 3.479 2.271 5.976 4.689 7.488 4.381 2.739 11.334 2.425 16.504-.094 1-.488 1.935-1.059 2.766-1.706.827-.643 1.552-1.36 2.145-2.145l.004-.005c4.199-5.563 3.954-13.766 3.733-21.18-.058-1.928-.114-3.804-.09-5.58v-.113c.176-11.706.479-23.333 1.304-34.623.826-11.32 2.176-22.328 4.445-32.784l.974.211"/><path d="m351.78 571.7c-18.316-11.188-36.563-17.15-54.876-17.32-18.322-.168-36.693 5.467-55.25 17.473-.952-.761-1.884-1.626-2.792-2.623 19.502-12.883 38.779-18.927 57.984-18.766 19.21.161 38.36 6.529 57.62 18.465-.874 1.05-1.772 1.966-2.688 2.771m-109.28.796c18.285-11.764 36.37-17.285 54.4-17.12 18.03.165 36.01 6.02 54.08 17-4.271 3.419-8.917 4.619-13.499 5.8-3.059.788-6.092 1.569-8.984 2.981-.365-.378-.739-.746-1.12-1.105-7.876-7.406-19.18-10.814-30.39-10.598-11.204.216-22.321 4.054-29.818 11.139-.373.353-.739.714-1.094 1.082-3.67-1.793-7.254-2.804-10.714-3.78-4.55-1.284-8.88-2.507-12.858-5.4m24.505 9.652c.276-.281.558-.556.845-.827 7.315-6.913 18.18-10.659 29.15-10.87 10.964-.211 22.01 3.11 29.69 10.328.297.28.589.565.876.856-.979.532-1.94 1.146-2.88 1.867-.492-.524-1.012-1.03-1.558-1.518-6.557-5.864-16.398-8.553-26.14-8.381-9.737.172-19.394 3.205-25.583 8.788-.517.467-1.013.955-1.488 1.466-.977-.637-1.95-1.202-2.918-1.708" fill="url(#m)" transform="matrix(.99763 0 0-.99815 15.659 984.16)"/><g fill-rule="evenodd"><path d="m288.74 397.44c1.549 0 2.805 1.257 2.805 2.807 0 1.55-1.256 2.807-2.805 2.807-1.549 0-2.805-1.257-2.805-2.807 0-1.55 1.256-2.807 2.805-2.807"/><path d="m288.74 398c1.238 0 2.243 1 2.243 2.244 0 1.239-1 2.244-2.243 2.244-1.238 0-2.242-1-2.242-2.244 0-1.239 1-2.244 2.242-2.244" fill="#fff"/><path d="m336.09 397.7c1.549 0 2.805 1.257 2.805 2.807 0 1.55-1.256 2.807-2.805 2.807-1.549 0-2.805-1.257-2.805-2.807 0-1.55 1.256-2.807 2.805-2.807"/><path d="m336.09 398.26c1.238 0 2.243 1 2.243 2.244 0 1.239-1 2.244-2.243 2.244-1.238 0-2.243-1-2.243-2.244 0-1.239 1-2.244 2.243-2.244" fill="#fff"/><path d="m331.86 400.49c1.549 0 2.805 1.257 2.805 2.807 0 1.55-1.256 2.807-2.805 2.807-1.549 0-2.805-1.257-2.805-2.807 0-1.55 1.256-2.807 2.805-2.807"/><path d="m331.86 401.05c1.238 0 2.243 1 2.243 2.244 0 1.239-1 2.244-2.243 2.244-1.238 0-2.243-1-2.243-2.244 0-1.239 1-2.244 2.243-2.244" fill="#fff"/><path d="m327.26 402.62c1.549 0 2.805 1.257 2.805 2.807 0 1.55-1.256 2.807-2.805 2.807-1.549 0-2.805-1.257-2.805-2.807 0-1.55 1.256-2.807 2.805-2.807"/><path d="m327.26 403.19c1.238 0 2.243 1 2.243 2.244 0 1.239-1 2.244-2.243 2.244-1.238 0-2.242-1-2.242-2.244 0-1.239 1-2.244 2.242-2.244" fill="#fff"/><path d="m322.42 404.11c1.549 0 2.805 1.257 2.805 2.807 0 1.55-1.256 2.807-2.805 2.807-1.549 0-2.805-1.257-2.805-2.807 0-1.55 1.256-2.807 2.805-2.807"/><path d="m322.42 404.68c1.238 0 2.243 1 2.243 2.244 0 1.239-1 2.244-2.243 2.244-1.238 0-2.242-1-2.242-2.244 0-1.239 1-2.244 2.242-2.244" fill="#fff"/><path d="m317.43 404.98c1.549 0 2.805 1.257 2.805 2.807 0 1.55-1.256 2.807-2.805 2.807-1.549 0-2.805-1.257-2.805-2.807 0-1.55 1.256-2.807 2.805-2.807"/><path d="m317.43 405.54c1.238 0 2.243 1 2.243 2.244 0 1.239-1 2.244-2.243 2.244-1.238 0-2.242-1-2.242-2.244 0-1.239 1-2.244 2.242-2.244" fill="#fff"/><path d="m312.36 405.25c1.549 0 2.805 1.257 2.805 2.807 0 1.55-1.256 2.807-2.805 2.807-1.549 0-2.805-1.257-2.805-2.807 0-1.55 1.256-2.807 2.805-2.807"/><path d="m312.36 405.81c1.238 0 2.243 1 2.243 2.244 0 1.239-1 2.244-2.243 2.244-1.238 0-2.243-1-2.243-2.244 0-1.239 1-2.244 2.243-2.244" fill="#fff"/><path d="m307.3 404.93c1.549 0 2.805 1.257 2.805 2.807 0 1.55-1.256 2.807-2.805 2.807-1.549 0-2.805-1.257-2.805-2.807 0-1.55 1.256-2.807 2.805-2.807"/><path d="m307.3 405.49c1.238 0 2.243 1 2.243 2.244 0 1.239-1 2.244-2.243 2.244-1.238 0-2.243-1-2.243-2.244 0-1.239 1-2.244 2.243-2.244" fill="#fff"/><path d="m302.32 404.02c1.549 0 2.805 1.257 2.805 2.807 0 1.55-1.256 2.807-2.805 2.807-1.549 0-2.805-1.257-2.805-2.807 0-1.55 1.256-2.807 2.805-2.807"/><path d="m302.32 404.58c1.238 0 2.243 1 2.243 2.244 0 1.239-1 2.244-2.243 2.244-1.238 0-2.242-1-2.242-2.244 0-1.239 1-2.244 2.242-2.244" fill="#fff"/><path d="m297.48 402.49c1.549 0 2.805 1.257 2.805 2.807 0 1.55-1.256 2.807-2.805 2.807-1.549 0-2.805-1.257-2.805-2.807 0-1.55 1.256-2.807 2.805-2.807"/><path d="m297.48 403.06c1.238 0 2.242 1 2.242 2.244 0 1.239-1 2.244-2.242 2.244-1.238 0-2.243-1-2.243-2.244 0-1.239 1-2.244 2.243-2.244" fill="#fff"/><path d="m292.91 400.31c1.549 0 2.805 1.257 2.805 2.807 0 1.55-1.256 2.807-2.805 2.807-1.549 0-2.805-1.257-2.805-2.807 0-1.55 1.256-2.807 2.805-2.807"/><path d="m292.91 400.88c1.238 0 2.243 1 2.243 2.244 0 1.239-1 2.244-2.243 2.244-1.238 0-2.242-1-2.242-2.244 0-1.239 1-2.244 2.242-2.244" fill="#fff"/><path d="m291.33 393.84c1.35 0 2.445 1.096 2.445 2.446 0 1.35-1.095 2.446-2.445 2.446-1.35 0-2.445-1.096-2.445-2.446 0-1.35 1.095-2.446 2.445-2.446"/><path d="m291.33 394.41c1.04 0 1.882.843 1.882 1.883 0 1.04-.843 1.883-1.882 1.883-1.039 0-1.882-.843-1.882-1.883 0-1.04.842-1.883 1.882-1.883" fill="#fff"/><path d="m333.21 394.32c1.35 0 2.445 1.095 2.445 2.446 0 1.35-1.095 2.446-2.445 2.446-1.35 0-2.445-1.096-2.445-2.446 0-1.35 1.095-2.446 2.445-2.446"/><path d="m333.21 394.88c1.04 0 1.882.843 1.882 1.883 0 1.04-.843 1.883-1.882 1.883-1.039 0-1.882-.843-1.882-1.883 0-1.04.842-1.883 1.882-1.883" fill="#fff"/><path d="m329.46 396.77c1.35 0 2.445 1.096 2.445 2.446 0 1.35-1.095 2.446-2.445 2.446-1.35 0-2.445-1.096-2.445-2.446 0-1.35 1.095-2.446 2.445-2.446"/><path d="m329.46 397.33c1.04 0 1.882.843 1.882 1.883 0 1.04-.843 1.883-1.882 1.883-1.039 0-1.882-.843-1.882-1.883 0-1.04.842-1.883 1.882-1.883" fill="#fff"/><path d="m325.39 398.61c1.35 0 2.445 1.096 2.445 2.446 0 1.35-1.095 2.446-2.445 2.446-1.35 0-2.445-1.096-2.445-2.446 0-1.35 1.095-2.446 2.445-2.446"/><path d="m325.39 399.18c1.04 0 1.882.843 1.882 1.883 0 1.04-.843 1.883-1.882 1.883-1.039 0-1.882-.843-1.882-1.883 0-1.04.842-1.883 1.882-1.883" fill="#fff"/><path d="m321.09 399.88c1.35 0 2.445 1.096 2.445 2.446 0 1.35-1.095 2.446-2.445 2.446-1.35 0-2.445-1.095-2.445-2.446 0-1.35 1.095-2.446 2.445-2.446"/><path d="m321.09 400.45c1.04 0 1.882.843 1.882 1.883 0 1.04-.843 1.883-1.882 1.883-1.039 0-1.882-.843-1.882-1.883 0-1.04.842-1.883 1.882-1.883" fill="#fff"/><path d="m316.68 400.6c1.35 0 2.445 1.096 2.445 2.446 0 1.35-1.095 2.446-2.445 2.446-1.35 0-2.445-1.096-2.445-2.446 0-1.35 1.095-2.446 2.445-2.446"/><path d="m316.68 401.16c1.04 0 1.882.843 1.882 1.883 0 1.04-.843 1.883-1.882 1.883-1.039 0-1.882-.843-1.882-1.883 0-1.04.843-1.883 1.882-1.883" fill="#fff"/><path d="m312.2 400.79c1.35 0 2.445 1.096 2.445 2.446 0 1.35-1.095 2.446-2.445 2.446-1.35 0-2.445-1.095-2.445-2.446 0-1.35 1.095-2.446 2.445-2.446"/><path d="m312.2 401.36c1.04 0 1.882.843 1.882 1.883 0 1.04-.843 1.883-1.882 1.883-1.039 0-1.882-.843-1.882-1.883 0-1.04.842-1.883 1.882-1.883" fill="#fff"/><path d="m307.74 400.47c1.35 0 2.445 1.096 2.445 2.446 0 1.351-1.095 2.446-2.445 2.446-1.35 0-2.445-1.095-2.445-2.446 0-1.35 1.095-2.446 2.445-2.446"/><path d="m307.74 401.04c1.04 0 1.882.843 1.882 1.883 0 1.04-.843 1.883-1.882 1.883-1.039 0-1.882-.843-1.882-1.883 0-1.04.842-1.883 1.882-1.883" fill="#fff"/><path d="m303.34 399.65c1.35 0 2.445 1.096 2.445 2.446 0 1.35-1.095 2.446-2.445 2.446-1.35 0-2.445-1.096-2.445-2.446 0-1.351 1.095-2.446 2.445-2.446"/><path d="m303.34 400.21c1.04 0 1.882.843 1.882 1.883 0 1.04-.843 1.883-1.882 1.883-1.039 0-1.882-.843-1.882-1.883 0-1.04.842-1.883 1.882-1.883" fill="#fff"/><path d="m299.07 398.29c1.35 0 2.445 1.096 2.445 2.446 0 1.35-1.095 2.446-2.445 2.446-1.35 0-2.445-1.095-2.445-2.446 0-1.351 1.095-2.446 2.445-2.446"/><path d="m299.07 398.85c1.04 0 1.882.843 1.882 1.883 0 1.04-.843 1.883-1.882 1.883-1.039 0-1.882-.843-1.882-1.883 0-1.04.842-1.883 1.882-1.883" fill="#fff"/><path d="m295.03 396.37c1.35 0 2.445 1.096 2.445 2.446 0 1.35-1.095 2.446-2.445 2.446-1.35 0-2.445-1.096-2.445-2.446 0-1.35 1.095-2.446 2.445-2.446"/><path d="m295.02 396.94c1.04 0 1.882.843 1.882 1.883 0 1.04-.843 1.883-1.882 1.883-1.039 0-1.882-.843-1.882-1.883 0-1.04.842-1.883 1.882-1.883" fill="#fff"/><path d="m293.27 390.74c1.152 0 2.086.934 2.086 2.086 0 1.152-.934 2.087-2.086 2.087-1.152 0-2.086-.935-2.086-2.087 0-1.152.934-2.086 2.086-2.086"/><path d="m293.27 391.3c.839 0 1.52.681 1.52 1.521 0 .84-.681 1.521-1.52 1.521-.839 0-1.52-.681-1.52-1.521 0-.84.681-1.521 1.52-1.521" fill="#fff"/><path d="m331.3 391.09c1.152 0 2.086.934 2.086 2.086 0 1.152-.934 2.087-2.086 2.087-1.151 0-2.086-.935-2.086-2.087 0-1.152.934-2.086 2.086-2.086"/><path d="m331.3 391.66c.839 0 1.52.681 1.52 1.521 0 .84-.681 1.521-1.52 1.521-.839 0-1.52-.681-1.52-1.521 0-.84.681-1.521 1.52-1.521" fill="#fff"/><path d="m327.99 393.45c1.152 0 2.086.934 2.086 2.086 0 1.152-.934 2.087-2.086 2.087-1.151 0-2.086-.934-2.086-2.087 0-1.152.934-2.086 2.086-2.086"/><path d="m327.99 394.02c.839 0 1.52.681 1.52 1.521 0 .84-.681 1.521-1.52 1.521-.839 0-1.52-.681-1.52-1.521 0-.84.681-1.521 1.52-1.521" fill="#fff"/><path d="m324.29 395.13c1.152 0 2.086.934 2.086 2.086 0 1.152-.934 2.087-2.086 2.087-1.151 0-2.086-.935-2.086-2.087 0-1.152.934-2.086 2.086-2.086"/><path d="m324.29 395.7c.839 0 1.52.681 1.52 1.521 0 .84-.681 1.521-1.52 1.521-.839 0-1.52-.681-1.52-1.521 0-.84.681-1.521 1.52-1.521" fill="#fff"/><path d="m320.38 396.24c1.152 0 2.086.934 2.086 2.086 0 1.152-.934 2.087-2.086 2.087-1.152 0-2.086-.934-2.086-2.087 0-1.152.934-2.086 2.086-2.086"/><path d="m320.38 396.81c.839 0 1.52.681 1.52 1.521 0 .84-.681 1.521-1.52 1.521-.839 0-1.52-.681-1.52-1.521 0-.84.681-1.521 1.52-1.521" fill="#fff"/><path d="m316.36 396.85c1.152 0 2.086.934 2.086 2.086 0 1.152-.934 2.087-2.086 2.087-1.152 0-2.086-.935-2.086-2.087 0-1.152.934-2.086 2.086-2.086"/><path d="m316.36 397.42c.839 0 1.52.681 1.52 1.521 0 .84-.681 1.521-1.52 1.521-.839 0-1.52-.681-1.52-1.521 0-.84.681-1.521 1.52-1.521" fill="#fff"/><path d="m312.29 396.99c1.152 0 2.086.934 2.086 2.086 0 1.152-.934 2.087-2.086 2.087-1.152 0-2.086-.935-2.086-2.087 0-1.152.934-2.086 2.086-2.086"/><path d="m312.29 397.56c.839 0 1.52.681 1.52 1.521 0 .84-.681 1.521-1.52 1.521-.839 0-1.52-.681-1.52-1.521 0-.84.681-1.521 1.52-1.521" fill="#fff"/><path d="m308.23 396.68c1.152 0 2.086.934 2.086 2.086 0 1.152-.934 2.087-2.086 2.087-1.152 0-2.086-.935-2.086-2.087 0-1.152.934-2.086 2.086-2.086"/><path d="m308.23 397.24c.839 0 1.52.681 1.52 1.521 0 .84-.681 1.521-1.52 1.521-.839 0-1.52-.681-1.52-1.521 0-.84.681-1.521 1.52-1.521" fill="#fff"/><path d="m304.24 395.91c1.152 0 2.086.934 2.086 2.086 0 1.152-.934 2.087-2.086 2.087-1.152 0-2.086-.934-2.086-2.087 0-1.152.934-2.086 2.086-2.086"/><path d="m304.24 396.48c.839 0 1.52.681 1.52 1.521 0 .84-.681 1.521-1.52 1.521-.839 0-1.52-.681-1.52-1.521 0-.84.681-1.521 1.52-1.521" fill="#fff"/><path d="m300.36 394.68c1.152 0 2.086.934 2.086 2.086 0 1.152-.934 2.087-2.086 2.087-1.152 0-2.086-.935-2.086-2.087 0-1.152.934-2.086 2.086-2.086"/><path d="m300.36 395.25c.839 0 1.52.681 1.52 1.521 0 .84-.681 1.521-1.52 1.521-.839 0-1.52-.681-1.52-1.521 0-.84.681-1.521 1.52-1.521" fill="#fff"/><path d="m296.68 392.96c1.152 0 2.086.934 2.086 2.086 0 1.152-.934 2.087-2.086 2.087-1.151 0-2.086-.935-2.086-2.087 0-1.152.934-2.086 2.086-2.086"/><path d="m296.68 393.53c.839 0 1.52.681 1.52 1.521 0 .84-.681 1.521-1.52 1.521-.839 0-1.52-.681-1.52-1.521 0-.84.681-1.521 1.52-1.521" fill="#fff"/></g><path d="m334.11 342.36c-7.301-1.602-14.599-2.452-21.892-2.481-6.911-.028-13.825.681-20.741 2.181-.281 6.978-.141 13.372.636 18.991.782 5.648 2.208 10.509 4.501 14.384 2.516 4.253 5.918 7.468 9.912 9.146 4.318 1.818 7.873 1.752 12.132-.176 4.055-1.836 7.535-4.958 10.09-9.283 2.294-3.877 3.772-8.661 4.605-14.232.817-5.464 1.015-11.677.753-18.53" fill="#fcd180"/><path d="m293.12 344.44c1.299-.574 2.707-.886 4.118-1.022 4.153-.397 8.855.751 11.617 3.03.184.151.231.405.129.608-.162.321-.382.448-.761.402-1.299-.157-2.588-.413-3.822-.849-.634-.224-1.247-.503-1.856-.785-1.396-.647-2.729-1.153-4.275-1.277-1.662-.133-3.288.151-4.804.834-1.01.453-1.267-.528-.345-.936"/><path d="m303.7 373.17c.561-.041 1.235-.613 1.959-1.227.376-.318.763-.647 1.176-.938 1.097-.774 2.424-1.215 3.732-.688 1.049.423 1.668.535 2.731.074 1.494-.647 2.801.083 3.959 1l.004.004c.199.158.4.328.601.497.781.657 1.562 1.316 2.328 1.356.401.106.351 1.01-.051.993-.702-.037-.601-.231-1.132.28-1.372 1.32-2.953 2.192-4.605 2.626.533.19 1.056.436 1.564.737.313.185-.017.796-.319.66-2.449-1.106-5.178-1.16-7.579-.014-.374.178-.766-.405-.303-.692.484-.299.981-.539 1.488-.721-1.645-.448-3.222-1.319-4.595-2.603-.43-.401-.337-.393-.887-.353-.417-.104-.533-.837-.07-.993m14.408.83c-.754-.0001-1.465-.051-2.212-.181-.689-.12-1.376-.239-2.068-.107-1.165.222-2.281.238-3.449.026-1.202-.218-2.307-.046-3.505.141-.433.068-.855.122-1.296.129 3.694 3.269 8.861 3.343 12.53-.008m-.372-.915c-.174-.141-.346-.286-.519-.431-.191-.161-.383-.322-.578-.478l-.004-.004c-.845-.671-1.83-1.353-2.943-.871-1.313.569-2.2.46-3.496-.062-.981-.395-1.975.007-2.787.579-.548.386-1.043.84-1.56 1.265.298-.016.591-.062.886-.108 1.276-.199 2.454-.383 3.806-.137 1.06.192 2.061.175 3.118-.026.856-.163 1.622-.03 2.391.104.565.098 1.112.167 1.685.169"/><path d="m318.06 363.94c-.304.527-.948.479-1.42.207-.143-.082-.273-.145-.392-.192-.956-.376-1.852-.018-2.354.853-.364.632.619.917.863.495.258-.447.631-.615 1.125-.422.091.036.179.079.263.127 1 .574 2.176.473 2.779-.574.498-.864-.506-1.113-.863-.495"/><path d="m306.38 350.81c-.813-1.498-3.397-1.848-4.874-1.935-1.965-.115-5.07.1-6.534 1.701-.035.038-.07.077-.103.117-.515.585-1.267.49-.87-.152 1.392-2.252 5.211-2.599 7.554-2.461 1.806.106 4.656.585 5.57 2.432.39.788-.313 1.09-.743.297m-6.02-1.06c2.063.001 4.872.43 5.753 2.61.13.322.39.972-.089 1.138-.498.172-.682-.362-.794-.718-.308-.976-.919-1.449-1.776-1.752-.077.761-.409 1.446-.907 1.959-.574.591-1.368.957-2.247.957-.88 0-1.675-.366-2.248-.958-.509-.525-.846-1.228-.912-2.01-.608.117-1.235.334-1.631.684.654.831 1.246 1.546 1.589 2.529.073.207-.037.434-.245.506-.057.02-.116.026-.173.02-1.228-.134-1.503-1.076-1.797-2.082-.127-.435-.521-.913-.216-1.259 1.198-1.351 4.02-1.633 5.694-1.626m2.194 1.028c-.266-.059-.537-.105-.812-.142v.026.007c-.0001.412-.169.784-.439 1.053-.272.272-.647.44-1.062.44-.416 0-.792-.168-1.064-.44-.262-.263-.428-.623-.438-1.023l-.005-.048c-.232.031-.462.068-.689.112.019.619.269 1.177.665 1.584.408.421.971.682 1.59.682.62 0 1.182-.261 1.591-.682.393-.405.643-.958.664-1.571"/><path d="m307.65 363.95c.304.527.948.479 1.42.207.143-.082.273-.145.392-.192.956-.376 1.852-.018 2.354.853.364.631-.619.917-.863.494-.258-.447-.632-.615-1.125-.421-.091.036-.179.078-.263.126-1 .574-2.176.473-2.779-.574-.498-.865.506-1.114.863-.495"/><path d="m327.01 345.1c-1.562-.209-2.893-.133-4.323.654-.478.263-.902.466-1.416.615-.735.213-1.465.409-2.218.553-.694.132-1.407.215-2.163.209-.551-.004-1.166-.716-.55-1.12 4.2-2.756 10.295-3.13 14.763-.795.688.36 1.348.765 1.92 1.272.399.353.4.612.244.762-.41.397-.869-.095-1.21-.313-1.64-1.047-3.058-1.569-5.05-1.836"/><path d="m318.4 350.81c.813-1.498 3.397-1.848 4.874-1.935 1.965-.115 5.07.1 6.534 1.701.035.038.07.077.103.117.515.585 1.267.49.87-.152-1.392-2.252-5.211-2.599-7.554-2.461-1.806.106-4.656.585-5.57 2.432-.39.788.313 1.09.743.297m6.02-1.06c-2.063.001-4.872.43-5.753 2.61-.13.322-.391.972.089 1.138.498.172.682-.362.794-.718.308-.976.919-1.449 1.776-1.752.077.761.409 1.446.908 1.959.574.591 1.368.957 2.247.957.88 0 1.675-.366 2.248-.958.509-.525.846-1.228.912-2.01.608.117 1.235.334 1.631.684-.654.831-1.246 1.546-1.589 2.529-.073.207.037.434.245.506.058.02.117.026.173.02 1.228-.134 1.503-1.076 1.797-2.082.127-.435.522-.913.215-1.259-1.198-1.351-4.02-1.633-5.694-1.626m-2.194 1.028c.266-.059.537-.105.812-.142v.026.007c.0001.412.169.784.439 1.053.272.272.647.44 1.062.44.416 0 .792-.168 1.064-.44.262-.263.428-.623.438-1.023l.005-.048c.232.031.462.068.689.112-.019.619-.269 1.177-.665 1.584-.408.421-.971.682-1.59.682-.62 0-1.182-.261-1.591-.682-.393-.405-.642-.958-.664-1.571"/><path d="m301.35 415.87c-1.104.255-1.517 2.55-.923 5.124.594 2.574 1.971 4.455 3.075 4.2 1.104-.255 1.517-2.55.923-5.124-.594-2.574-1.971-4.455-3.075-4.2" fill-rule="evenodd"/><path d="m320.48 466.24v13.685l-3.108 3.109h-10.211l-3.108-3.109v-13.685l3.108-3.109h10.211l3.108 3.109"/><path d="m319.48 466.66l-2.523-2.524h-9.385l-2.523 2.524v12.859l2.523 2.524h9.385l2.523-2.524v-12.859" fill="#ffe600"/><path d="m317.89 466.19v13.797h-11.245v-13.797h11.245" fill="#800000"/><g fill="#e60000"><path d="m315.41 468.67h-6.289v8.838h6.289v-8.838"/><g fill-rule="evenodd"><path d="m307.14 467.04v12.09l1.48-1.481v-9.13l-1.48-1.482"/><path d="m317.04 466.69l-1.48 1.481h-6.581l-1.48-1.481h9.541"/><path d="m317.39 467.04v12.09l-1.48-1.481v-9.13l1.48-1.482"/><path d="m317.04 479.49l-1.48-1.481h-6.581l-1.48 1.481h9.541"/></g></g><g fill-rule="evenodd"><path d="m312.2 417.6c2.154 0 3.901 2.495 3.901 5.572 0 3.077-1.747 5.572-3.901 5.572-2.154 0-3.901-2.495-3.901-5.572 0-3.077 1.747-5.572 3.901-5.572"/><path d="m297.63 502.12c2.154 0 3.901 2.495 3.901 5.572 0 3.077-1.747 5.572-3.901 5.572-2.154 0-3.901-2.495-3.901-5.572 0-3.077 1.747-5.572 3.901-5.572"/><path d="m285.28 499.5c2.154 0 3.901 2.495 3.901 5.573 0 3.077-1.747 5.572-3.901 5.572-2.154 0-3.901-2.495-3.901-5.572 0-3.077 1.747-5.573 3.901-5.573"/><path d="m341.93 499.41c2.154 0 3.901 2.495 3.901 5.572 0 3.077-1.747 5.573-3.901 5.573-2.154 0-3.901-2.495-3.901-5.573 0-3.077 1.747-5.572 3.901-5.572"/><path d="m327.73 502.37c2.154 0 3.901 2.495 3.901 5.573 0 3.077-1.747 5.572-3.901 5.572-2.154 0-3.901-2.495-3.901-5.572 0-3.077 1.747-5.573 3.901-5.573"/><path d="m312.59 503.22c2.154 0 3.901 2.495 3.901 5.572 0 3.077-1.747 5.573-3.901 5.573-2.154 0-3.901-2.495-3.901-5.573 0-3.077 1.747-5.572 3.901-5.572"/></g><g transform="matrix(.7981 0 0 .79852 299.54 405.04)"><ellipse transform="matrix(3.54331 0 0 3.54331-355.69-327.12)" ry="1.618" rx="1.028" cy="98.73" cx="104.86" fill="#e60000"/><g fill="#f0f"><use transform="matrix(.22455 0 0 .34201 9.971 16.533)" mask="url(#4)" xlink:href="#1a"/><path transform="matrix(.30283 0 0 .37713 7.847 16.891)" mask="url(#5)" d="m26.484 13.673c-4.697 0-8.507 3.679-8.507 8.216 0 4.537 3.81 8.216 8.507 8.216 4.697 0 8.507-3.679 8.507-8.216 0-4.537-3.81-8.216-8.507-8.216"/></g></g><g transform="matrix(.7981 0 0 .79852 299.93 490.65)"><ellipse transform="matrix(3.54331 0 0 3.54331-355.69-327.12)" ry="1.618" rx="1.028" cy="98.73" cx="104.86" fill="#e60000"/><g fill="#f0f"><use transform="matrix(.22455 0 0 .34201 9.971 16.533)" mask="url(#6)" xlink:href="#1a"/><use transform="matrix(.30283 0 0 .37713 7.847 16.891)" mask="url(#7)" xlink:href="#1b"/></g></g><g transform="matrix(.7981 0 0 .79852 272.62 486.93)"><ellipse transform="matrix(3.54331 0 0 3.54331-355.69-327.12)" ry="1.618" rx="1.028" cy="98.73" cx="104.86" fill="#e60000"/><g fill="#f0f"><use transform="matrix(.22455 0 0 .34201 9.971 16.533)" mask="url(#8)" xlink:href="#1a"/><use transform="matrix(.30283 0 0 .37713 7.847 16.891)" mask="url(#9)" xlink:href="#1b"/></g></g><g transform="matrix(.7981 0 0 .79852 315.06 489.81)"><ellipse transform="matrix(3.54331 0 0 3.54331-355.69-327.12)" ry="1.618" rx="1.028" cy="98.73" cx="104.86" fill="#e60000"/><g fill="#f0f"><use transform="matrix(.22455 0 0 .34201 9.971 16.533)" mask="url(#A)" xlink:href="#1a"/><use transform="matrix(.30283 0 0 .37713 7.847 16.891)" mask="url(#B)" xlink:href="#1b"/></g></g><g transform="matrix(.7981 0 0 .79852 329.27 486.84)"><ellipse transform="matrix(3.54331 0 0 3.54331-355.69-327.12)" ry="1.618" rx="1.028" cy="98.73" cx="104.86" fill="#e60000"/><g fill="#f0f"><use transform="matrix(.22455 0 0 .34201 9.971 16.533)" mask="url(#C)" xlink:href="#1a"/><use transform="matrix(.30283 0 0 .37713 7.847 16.891)" mask="url(#D)" xlink:href="#1b"/></g></g><g transform="matrix(.7981 0 0 .79852 284.96 489.55)"><ellipse transform="matrix(3.54331 0 0 3.54331-355.69-327.12)" ry="1.618" rx="1.028" cy="98.73" cx="104.86" fill="#e60000"/><g fill="#f0f"><use transform="matrix(.22455 0 0 .34201 9.971 16.533)" mask="url(#E)" xlink:href="#1a"/><use transform="matrix(.30283 0 0 .37713 7.847 16.891)" mask="url(#F)" xlink:href="#1b"/></g></g><path d="m298.74 416.37c2.068.604 3.046 3.489 2.183 6.443-.862 2.954-3.238 4.859-5.306 4.255-2.068-.604-3.046-3.489-2.183-6.443.862-2.954 3.238-4.859 5.306-4.255" fill-rule="evenodd"/><g transform="matrix(.7661.22386-.22375.7665 290.1 400.75)"><ellipse transform="matrix(3.54331 0 0 3.54331-355.69-327.12)" ry="1.618" rx="1.028" cy="98.73" cx="104.86" fill="#e60000"/><g fill="#f0f"><use transform="matrix(.22455 0 0 .34201 9.971 16.533)" mask="url(#G)" xlink:href="#1a"/><use transform="matrix(.30283 0 0 .37713 7.847 16.891)" mask="url(#H)" xlink:href="#1b"/></g></g><path d="m275.88 407.66c1.518 1.529.98 4.528-1.202 6.696-2.182 2.169-5.182 2.687-6.701 1.158-1.518-1.529-.98-4.528 1.202-6.696 2.182-2.169 5.182-2.688 6.701-1.158" fill-rule="evenodd"/><g transform="matrix(.56249.56648-.56619.56278 275.86 389.81)"><ellipse transform="matrix(3.54331 0 0 3.54331-355.69-327.12)" ry="1.618" rx="1.028" cy="98.73" cx="104.86" fill="#e60000"/><g fill="#f0f"><use transform="matrix(.22455 0 0 .34201 9.971 16.533)" mask="url(#I)" xlink:href="#1a"/><use transform="matrix(.30283 0 0 .37713 7.847 16.891)" mask="url(#J)" xlink:href="#1b"/></g></g><path d="m286.24 412.22c1.977.856 2.589 3.84 1.367 6.664-1.222 2.824-3.816 4.419-5.793 3.563-1.977-.856-2.589-3.841-1.367-6.664 1.222-2.824 3.816-4.42 5.793-3.563" fill-rule="evenodd"/><g transform="matrix(.73242.31724-.31708.73279 279.61 395.65)"><ellipse transform="matrix(3.54331 0 0 3.54331-355.69-327.12)" ry="1.618" rx="1.028" cy="98.73" cx="104.86" fill="#e60000"/><g fill="#f0f"><use transform="matrix(.22455 0 0 .34201 9.971 16.533)" mask="url(#K)" xlink:href="#1a"/><use transform="matrix(.30283 0 0 .37713 7.847 16.891)" mask="url(#L)" xlink:href="#1b"/></g></g><path d="m325.98 416.47c-2.068.604-3.046 3.489-2.183 6.443.862 2.954 3.238 4.859 5.306 4.255 2.068-.604 3.046-3.489 2.183-6.443-.862-2.954-3.238-4.859-5.306-4.255" fill-rule="evenodd"/><g transform="matrix(-.7661.22386.22375.7665 334.62 400.85)"><ellipse transform="matrix(3.54331 0 0 3.54331-355.69-327.12)" ry="1.618" rx="1.028" cy="98.73" cx="104.86" fill="#e60000"/><g fill="#f0f"><use transform="matrix(.22455 0 0 .34201 9.971 16.533)" mask="url(#M)" xlink:href="#1a"/><use transform="matrix(.30283 0 0 .37713 7.847 16.891)" mask="url(#N)" xlink:href="#1b"/></g></g><g fill-rule="evenodd"><path d="m338.79 412.22c-1.977.856-2.589 3.84-1.367 6.664 1.222 2.824 3.816 4.419 5.793 3.563 1.977-.856 2.589-3.841 1.367-6.664-1.222-2.824-3.816-4.42-5.793-3.563"/><path d="m349.78 408.08c-1.518 1.529-.98 4.528 1.202 6.696 2.182 2.169 5.182 2.687 6.701 1.158 1.518-1.529.98-4.528-1.202-6.696-2.182-2.169-5.182-2.688-6.701-1.158"/></g><g transform="matrix(-.73242.31724.31708.73279 345.42 395.65)"><ellipse transform="matrix(3.54331 0 0 3.54331-355.69-327.12)" ry="1.618" rx="1.028" cy="98.73" cx="104.86" fill="#e60000"/><g fill="#f0f"><use transform="matrix(.22455 0 0 .34201 9.971 16.533)" mask="url(#O)" xlink:href="#1a"/><use transform="matrix(.30283 0 0 .37713 7.847 16.891)" mask="url(#P)" xlink:href="#1b"/></g></g><g transform="matrix(-.56249.56648.56619.56278 349.8 390.23)"><ellipse transform="matrix(3.54331 0 0 3.54331-355.69-327.12)" ry="1.618" rx="1.028" cy="98.73" cx="104.86" fill="#e60000"/><g fill="#f0f"><use transform="matrix(.22455 0 0 .34201 9.971 16.533)" mask="url(#Q)" xlink:href="#1a"/><use transform="matrix(.30283 0 0 .37713 7.847 16.891)" mask="url(#R)" xlink:href="#1b"/></g></g><path d="m248.25 464.78c1.931.955 2.391 3.967 1.028 6.725-1.363 2.758-4.03 4.22-5.966 3.265-1.931-.955-2.391-3.967-1.028-6.725 1.363-2.758 4.03-4.22 5.966-3.265" fill-rule="evenodd"/><g transform="matrix(.7154.35397-.35379.71577 242.46 447.89)"><ellipse transform="matrix(3.54331 0 0 3.54331-355.69-327.12)" ry="1.618" rx="1.028" cy="98.73" cx="104.86" fill="#e60000"/><g fill="#f0f"><use transform="matrix(.22455 0 0 .34201 9.971 16.533)" mask="url(#n)" xlink:href="#1a"/><use transform="matrix(.30283 0 0 .37713 7.847 16.891)" mask="url(#o)" xlink:href="#1b"/></g></g><path d="m238.23 459.45c1.931.955 2.391 3.967 1.028 6.725-1.363 2.758-4.03 4.22-5.966 3.265-1.931-.955-2.391-3.967-1.028-6.725 1.363-2.758 4.03-4.22 5.966-3.265" fill-rule="evenodd"/><g transform="matrix(.7154.35397-.35379.71577 232.44 442.57)"><ellipse transform="matrix(3.54331 0 0 3.54331-355.69-327.12)" ry="1.618" rx="1.028" cy="98.73" cx="104.86" fill="#e60000"/><g fill="#f0f"><use transform="matrix(.22455 0 0 .34201 9.971 16.533)" mask="url(#p)" xlink:href="#1a"/><use transform="matrix(.30283 0 0 .37713 7.847 16.891)" mask="url(#q)" xlink:href="#1b"/></g></g><path d="m257.72 470.86c1.931.955 2.391 3.967 1.028 6.725-1.363 2.758-4.03 4.22-5.966 3.265-1.931-.955-2.391-3.967-1.028-6.725 1.363-2.758 4.03-4.22 5.966-3.265" fill-rule="evenodd"/><g transform="matrix(.7154.35397-.35379.71577 251.94 453.98)"><ellipse transform="matrix(3.54331 0 0 3.54331-355.69-327.12)" ry="1.618" rx="1.028" cy="98.73" cx="104.86" fill="#e60000"/><g fill="#f0f"><use transform="matrix(.22455 0 0 .34201 9.971 16.533)" mask="url(#r)" xlink:href="#1a"/><use transform="matrix(.30283 0 0 .37713 7.847 16.891)" mask="url(#s)" xlink:href="#1b"/></g></g><g transform="matrix(-1.0751.53194.53167 1.07566 363.13-269.65)"><path d="m260.11 559.38c1.796 0 3.253 2.079 3.253 4.644 0 2.564-1.456 4.644-3.253 4.644-1.796 0-3.253-2.079-3.253-4.644 0-2.564 1.456-4.644 3.253-4.644" fill-rule="evenodd"/><g transform="matrix(.66543 0 0 .66543 249.55 548.91)"><ellipse cx="104.86" cy="98.73" rx="1.028" ry="1.618" transform="matrix(3.54331 0 0 3.54331-355.69-327.12)" fill="#e60000"/><g fill="#f0f"><use mask="url(#t)" transform="matrix(.22455 0 0 .34201 9.971 16.533)" xlink:href="#1a"/><use mask="url(#u)" transform="matrix(.30283 0 0 .37713 7.847 16.891)" xlink:href="#1b"/></g></g></g><g transform="matrix(-1.0751.53194.53167 1.07566 353.66-263.56)"><path d="m260.11 559.38c1.796 0 3.253 2.079 3.253 4.644 0 2.564-1.456 4.644-3.253 4.644-1.796 0-3.253-2.079-3.253-4.644 0-2.564 1.456-4.644 3.253-4.644" fill-rule="evenodd" id="1d"/><g transform="matrix(.66543 0 0 .66543 249.55 548.91)"><ellipse cx="104.86" cy="98.73" rx="1.028" ry="1.618" transform="matrix(3.54331 0 0 3.54331-355.69-327.12)" fill="#e60000"/><g fill="#f0f"><use mask="url(#v)" transform="matrix(.22455 0 0 .34201 9.971 16.533)" xlink:href="#1a"/><use mask="url(#w)" transform="matrix(.30283 0 0 .37713 7.847 16.891)" xlink:href="#1b"/></g></g></g><g transform="matrix(-1.0751.53194.53167 1.07566 373.15-274.97)"><use xlink:href="#1d"/><g transform="matrix(.66543 0 0 .66543 249.55 548.91)"><ellipse cx="104.86" cy="98.73" rx="1.028" ry="1.618" transform="matrix(3.54331 0 0 3.54331-355.69-327.12)" fill="#e60000"/><g fill="#f0f"><use mask="url(#x)" transform="matrix(.22455 0 0 .34201 9.971 16.533)" xlink:href="#1a"/><use mask="url(#y)" transform="matrix(.30283 0 0 .37713 7.847 16.891)" xlink:href="#1b"/></g></g></g><path d="m384.78 533.21c-1.521-.942-3.844.057-5.188 2.229-1.344 2.173-1.2 4.698.321 5.64 1.521.942 3.844-.057 5.188-2.229 1.344-2.173 1.2-4.698-.321-5.64" fill-rule="evenodd"/><g transform="matrix(-.56352-.34884-.34866.56381 399.21 529.87)"><ellipse transform="matrix(3.54331 0 0 3.54331-355.69-327.12)" ry="1.618" rx="1.028" cy="98.73" cx="104.86" fill="#e60000"/><g fill="#f0f"><use transform="matrix(.22455 0 0 .34201 9.971 16.533)" mask="url(#z)" xlink:href="#1a"/><use transform="matrix(.30283 0 0 .37713 7.847 16.891)" mask="url(#10)" xlink:href="#1b"/></g></g><path d="m393.23 539.99c-1.162-1.36-3.679-1.117-5.62.543-1.941 1.66-2.573 4.109-1.411 5.47 1.162 1.36 3.679 1.117 5.62-.543 1.941-1.66 2.573-4.109 1.411-5.47" fill-rule="evenodd"/><g transform="matrix(-.43055-.504-.50374.43077 407.99 541.2)"><ellipse transform="matrix(3.54331 0 0 3.54331-355.69-327.12)" ry="1.618" rx="1.028" cy="98.73" cx="104.86" fill="#e60000"/><g fill="#f0f"><use transform="matrix(.22455 0 0 .34201 9.971 16.533)" mask="url(#11)" xlink:href="#1a"/><use transform="matrix(.30283 0 0 .37713 7.847 16.891)" mask="url(#12)" xlink:href="#1b"/></g></g><g fill-rule="evenodd"><path d="m317.39 467.04v12.09l-1.48-1.481v-9.13l1.48-1.482" fill="url(#1X)"/><path d="m307.14 479.13v-12.09l1.48 1.481v9.13l-1.48 1.482" fill="url(#1W)"/><path d="m317.04 466.69l-1.48 1.481h-6.581l-1.48-1.481h9.541" fill="url(#1V)"/><path d="m307.49 479.49l1.48-1.481h6.581l1.48 1.481h-9.541" fill="#e60000"/><path d="m307.49 479.49l1.48-1.481h6.581l1.48 1.481h-9.541" fill="url(#1U)"/></g><path d="m315.41 468.67h-6.289v8.838h6.289v-8.838" fill="url(#1T)"/><g fill-rule="evenodd"><path d="m303.42 424.63c-1.104.255-1.517 2.55-.923 5.124.594 2.574 1.971 4.455 3.075 4.2 1.104-.255 1.517-2.55.923-5.124-.594-2.574-1.971-4.455-3.075-4.2"/><path d="m299.27 407.12c-1.104.255-1.517 2.55-.923 5.124.594 2.574 1.971 4.455 3.075 4.2 1.104-.255 1.517-2.55.923-5.124-.594-2.574-1.971-4.455-3.075-4.2"/><path d="m321.01 424.63c1.104.255 1.517 2.55.923 5.124-.594 2.574-1.971 4.455-3.075 4.2-1.104-.255-1.517-2.55-.923-5.124.594-2.574 1.971-4.455 3.075-4.2"/><path d="m325.16 407.12c1.104.255 1.517 2.55.923 5.124-.594 2.574-1.971 4.455-3.075 4.2-1.104-.255-1.517-2.55-.923-5.124.594-2.574 1.971-4.455 3.075-4.2"/><path d="m323.08 415.87c1.104.255 1.517 2.55.923 5.124-.594 2.574-1.971 4.455-3.075 4.2-1.104-.255-1.517-2.55-.923-5.124.594-2.574 1.971-4.455 3.075-4.2"/><path d="m309.64 450.9c-1.104.255-1.517 2.55-.923 5.124.594 2.574 1.971 4.455 3.075 4.2 1.104-.255 1.517-2.55.923-5.124-.594-2.574-1.971-4.455-3.075-4.2"/><path d="m307.56 442.14c-1.104.255-1.517 2.55-.923 5.124.594 2.574 1.971 4.455 3.075 4.2 1.104-.255 1.517-2.55.923-5.124-.594-2.574-1.971-4.455-3.075-4.2"/><path d="m305.49 433.38c-1.104.255-1.517 2.55-.923 5.124.594 2.574 1.971 4.455 3.075 4.2 1.104-.255 1.517-2.55.923-5.124-.594-2.574-1.971-4.455-3.075-4.2"/><path d="m316.87 442.14c1.104.255 1.517 2.55.923 5.124-.594 2.574-1.971 4.455-3.075 4.2-1.104-.255-1.517-2.55-.923-5.124.594-2.574 1.971-4.455 3.075-4.2"/><path d="m318.94 433.38c1.104.255 1.517 2.55.923 5.124-.594 2.574-1.971 4.455-3.075 4.2-1.104-.255-1.517-2.55-.923-5.124.594-2.574 1.971-4.455 3.075-4.2"/></g><g transform="matrix(-1.19938 0 0 1.2 647.28-169.1)"><use fill="url(#1H)" fill-rule="evenodd" xlink:href="#1c"/><use transform="matrix(.06745.01557-.04562.19762 279.68 516.57)" mask="url(#15)" fill="#fff" xlink:href="#1a"/></g><path d="m314.79 450.9c1.104.255 1.517 2.55.923 5.124-.594 2.574-1.971 4.455-3.075 4.2-1.104-.255-1.517-2.55-.923-5.124.594-2.574 1.971-4.455 3.075-4.2" fill-rule="evenodd"/><g transform="matrix(1.19938 0 0 1.2-22.853-169.1)"><use fill="url(#1I)" fill-rule="evenodd" xlink:href="#1c"/><use transform="matrix(.06745.01557-.04562.19762 279.68 516.57)" mask="url(#14)" fill="#fff" xlink:href="#1a"/></g><g fill-rule="evenodd"><path d="m312.11 459.26c1.649 0 2.986 1.338 2.986 2.988 0 1.65-1.337 2.988-2.986 2.988-1.649 0-2.986-1.338-2.986-2.988 0-1.649 1.337-2.988 2.986-2.988"/><path d="m312.11 460.11c1.181 0 2.139.959 2.139 2.14 0 1.182-.958 2.14-2.139 2.14-1.181 0-2.139-.959-2.139-2.14 0-1.182.958-2.14 2.139-2.14" fill="#fff"/><path d="m302.96 470.1c1.649 0 2.986 1.338 2.986 2.988 0 1.65-1.337 2.988-2.986 2.988-1.649 0-2.986-1.338-2.986-2.988 0-1.649 1.337-2.988 2.986-2.988"/><path d="m302.96 470.95c1.181 0 2.139.959 2.139 2.14 0 1.182-.958 2.14-2.139 2.14-1.181 0-2.139-.959-2.139-2.14 0-1.182.958-2.14 2.139-2.14" fill="#fff"/><path d="m321.43 470.4c1.649 0 2.986 1.338 2.986 2.988 0 1.65-1.337 2.988-2.986 2.988-1.649 0-2.986-1.338-2.986-2.988 0-1.649 1.337-2.988 2.986-2.988"/><path d="m321.43 471.25c1.181 0 2.139.959 2.139 2.14 0 1.182-.958 2.14-2.139 2.14-1.181 0-2.139-.959-2.139-2.14 0-1.182.958-2.14 2.139-2.14" fill="#fff"/><path d="m312.11 481.36c1.649 0 2.986 1.338 2.986 2.988 0 1.65-1.337 2.988-2.986 2.988-1.649 0-2.986-1.338-2.986-2.988 0-1.649 1.337-2.988 2.986-2.988"/><path d="m312.11 482.21c1.181 0 2.139.959 2.139 2.14 0 1.182-.958 2.14-2.139 2.14-1.181 0-2.139-.959-2.139-2.14 0-1.182.958-2.14 2.139-2.14" fill="#fff"/></g><g transform="matrix(1.19938 0 0 1.2-12.492-212.88)"><use fill="url(#1J)" fill-rule="evenodd" xlink:href="#1c"/><use transform="matrix(.06745.01557-.04562.19762 279.68 516.57)" mask="url(#16)" fill="#fff" xlink:href="#1a"/></g><g transform="matrix(1.19938 0 0 1.2-14.564-204.13)"><use fill="url(#1K)" fill-rule="evenodd" xlink:href="#1c"/><use transform="matrix(.06745.01557-.04562.19762 279.68 516.57)" mask="url(#17)" fill="#fff" xlink:href="#1a"/></g><g transform="matrix(1.19938 0 0 1.2-16.637-195.37)"><use fill="url(#1L)" fill-rule="evenodd" xlink:href="#1c"/><use transform="matrix(.06745.01557-.04562.19762 279.68 516.57)" mask="url(#18)" fill="#fff" xlink:href="#1a"/></g><g transform="matrix(1.19938 0 0 1.2-18.709-186.62)"><use fill="url(#1M)" fill-rule="evenodd" xlink:href="#1c"/><use transform="matrix(.06745.01557-.04562.19762 279.68 516.57)" mask="url(#19)" fill="#fff" xlink:href="#1a"/></g><g transform="matrix(1.19938 0 0 1.2-20.781-177.86)"><use fill="url(#1N)" fill-rule="evenodd" xlink:href="#1c"/><use transform="matrix(.06745.01557-.04562.19762 279.68 516.57)" mask="url(#1A)" fill="#fff" xlink:href="#1a"/></g><g transform="matrix(-1.19938 0 0 1.2 645.21-177.86)"><use fill="url(#1O)" fill-rule="evenodd" xlink:href="#1c"/><use transform="matrix(.06745.01557-.04562.19762 279.68 516.57)" mask="url(#1B)" fill="#fff" xlink:href="#1a"/></g><g transform="matrix(-1.19938 0 0 1.2 636.92-212.88)"><use fill="url(#1P)" fill-rule="evenodd" xlink:href="#1c"/><use transform="matrix(.06745.01557-.04562.19762 279.68 516.57)" mask="url(#1C)" fill="#fff" xlink:href="#1a"/></g><g transform="matrix(-1.19938 0 0 1.2 639-204.13)"><use fill="url(#1Q)" fill-rule="evenodd" xlink:href="#1c"/><use transform="matrix(.06745.01557-.04562.19762 279.68 516.57)" mask="url(#1D)" fill="#fff" xlink:href="#1a"/></g><g transform="matrix(-1.19938 0 0 1.2 641.07-195.37)"><use fill="url(#1R)" fill-rule="evenodd" xlink:href="#1c"/><use transform="matrix(.06745.01557-.04562.19762 279.68 516.57)" mask="url(#1E)" fill="#fff" xlink:href="#1a"/></g><g transform="matrix(-1.19938 0 0 1.2 643.14-186.62)"><use fill="url(#1S)" fill-rule="evenodd" xlink:href="#1c"/><use transform="matrix(.06745.01557-.04562.19762 279.68 516.57)" mask="url(#1F)" fill="#fff" xlink:href="#1a"/></g></g></svg>