<svg xmlns="http://www.w3.org/2000/svg" viewBox="0 0 300.05 360"><g transform="translate(-262.13-298.06)"><path d="m483.91 470.09c2.935 0 5.315 2.38 5.315 5.315v5.314c0 2.935-2.38 5.315-5.315 5.315h-5.315v-15.944zm0 21.259c5.87 0 10.63-4.76 10.63-10.63v-5.314c0-5.87-4.76-10.63-10.63-10.63h-10.63v26.574zm-21.26-26.574h5.315v26.574h-5.315zm-10.63 0h5.315v26.574h-5.315l-10.63-16.684v16.684h-5.315v-26.574h5.315l10.63 16.684zm-79.72 0h15.945v5.315h-10.63v5.315h10.63v5.315h-10.63v5.315h10.63v5.315h-15.945zm-21.26-.0001h5.315v21.26h10.63v5.315h-15.945zm55.808 21.26h5.313c4.402 0 7.972-3.57 7.972-7.972s-3.637-7.957-7.972-7.972h-5.313v5.315h5.313c1.467 0 2.658 1.19 2.658 2.658s-1.19 2.658-2.658 2.658h-5.313zm5.313-26.575c10.272 0 18.602 8.33 18.602 18.602s-8.33 18.602-18.602 18.602-18.602-8.33-18.602-18.602 8.33-18.602 18.602-18.602m-13.287 18.602c0 7.337 5.95 13.287 13.287 13.287 7.337 0 13.287-5.95 13.287-13.287 0-7.337-5.95-13.287-13.287-13.287-7.337 0-13.287 5.95-13.287 13.287" stroke-width="1.5" fill="#a90000"/><path d="m262.13 298.06v181.09h-.003c0 81.81 72.47 154.9 150.03 178.91 77.56-24 150.02-97.1 150.02-178.91h-.003v-181.09h-300.04z"/><path fill="#3a82c2" d="m264.56 300.49v178.66h.007v.005h-.007v.807c.079 13.11 2.054 26 5.639 38.516 2.981 10.402 7.07 20.52 12.1 30.25 25.863 50.03 76.59 90.08 129.86 106.78 10.486-3.289 20.88-7.486 31.01-12.492 10.348-5.113 20.433-11.08 30.07-17.786 49.31-34.32 86.38-87.86 86.51-145.77v-.307-178.66h-295.19z"/><g stroke="#000" stroke-width="1.5"><path d="m343.28 466.02l32.852-13.594-4.074 9.283h71.62l8.398-8.398h33.374l-12.707 12.707 12.707 12.709h-33.374l-8.399-8.399h-71.62l4.076 9.283-32.852-13.591z" fill="#fff"/><path d="m460.42 478.72l-9.945-9.945m0-5.526l9.945-9.945m8.343 25.416l-9.943-9.945m-.0001-5.526l9.947-9.945m8.343 25.416l-9.945-9.945m-.0001-5.526l9.947-9.945" fill="none"/><path d="m414.37 399.47l-13.594 32.852 9.283-4.074v63.35l-8.399 8.399v33.374l12.709-12.709 12.707 12.707v-33.374l-8.398-8.398v-63.35l9.283 4.076-13.591-32.852z" fill="#fff"/><path d="m427.07 508.34l-9.945-9.945m-5.526 0l-9.945 9.945m25.416 8.343l-9.945-9.945m-5.526 0l-9.945 9.945m25.416 8.343l-9.945-9.945m-5.526 0l-9.945 9.945" fill="none"/><g fill="#fff"><path d="m424.78 553.86c-1.536-7.567-5.01-15.379-9.698-21.726-4.687 6.347-8.162 14.159-9.698 21.726l9.698 18.07 9.698-18.07z"/><path d="m432.49 593.22c2.945-15.463 10.286-27.772 29.445-31.366-4.01-5.736-18.11-9.403-27.341-3.042-.662-7.862 1.829-14.14 5.842-20.598-11.452.856-20.955 8.04-25.355 20.13-4.4-12.1-13.903-19.274-25.355-20.13 4.01 6.456 6.504 12.736 5.842 20.598-9.23-6.361-23.328-2.694-27.341 3.042 19.16 3.593 26.498 15.903 29.445 31.366l17.409 20.13 17.409-20.13z"/><path d="m415.08 629.74c7.645 0 12.624-4.455 14.03-14.04 1.696-11.58 6.393-20.989 13.429-28.324-7.115-.788-14.468 3.341-21.342 10.767-1.179-5.891-2.627-12.06-6.116-17.321-3.489 5.265-4.938 11.429-6.115 17.321-6.876-7.427-14.229-11.556-21.344-10.767 7.04 7.335 11.733 16.744 13.429 28.324 1.406 9.59 6.384 14.04 14.03 14.04z"/></g></g><path fill="#fff" d="m375.07 329.68c-2.306.029-4.417.168-6.185.555-.106.029-12.642 2.148-12.583 13.478.097 10.607 10.658 25.06 17.36 32.03h78.1c4.206-4.181 16.04-21.67 16.12-31.777.099-11.375-12.464-13.45-12.583-13.478-8.558-1.829-25.1 1.027-32.587 2.772-6.797.884-13.857.845-21.2-.171-5.918-1.403-17.556-3.526-26.445-3.412"/><g stroke-width="1.5"><g stroke="#000"><path d="m412.39 330.81c-2.421.068-11.07-.514-11.07-.514s7.532 7.312 9.566 31.29c.675-.116 1.414-.194 2.166-.221.803-.04 1.529.048 2.255.136.985-24.03 8.157-31.691 8.157-31.691s-8.688.998-11.07 1z" fill="none"/><g fill="#fff" stroke-linejoin="round"><path d="m390.49 325.61c.001-1.899 1.51-3.469 3.344-3.498 1.848.022 3.367 1.535 3.37 3.485-.001 1.899-1.51 3.469-3.344 3.498-1.848-.022-3.367-1.535-3.37-3.485z"/><path d="m382.77 324.63c-.004-1.949 1.51-3.469 3.344-3.498 1.848.022 3.367 1.535 3.37 3.485.004 1.949-1.51 3.469-3.344 3.498-1.848-.022-3.367-1.535-3.37-3.485z"/><path d="m374.67 324.07c.001-1.899 1.51-3.469 3.344-3.498 1.848.022 3.367 1.535 3.37 3.485.004 1.949-1.51 3.469-3.344 3.498-1.848-.022-3.367-1.535-3.37-3.485z"/><path d="m366.37 324.48c.001-1.899 1.51-3.469 3.344-3.498 1.848.022 3.367 1.535 3.37 3.485.004 1.949-1.51 3.469-3.344 3.498-1.848-.022-3.367-1.535-3.37-3.485z"/><path d="m358.22 326.75c-.004-1.949 1.51-3.469 3.344-3.498 1.848.022 3.367 1.535 3.37 3.485-.001 1.899-1.51 3.469-3.344 3.498-1.848-.022-3.367-1.535-3.37-3.485z"/><path d="m351.86 331.82c-.004-1.949 1.51-3.469 3.344-3.498 1.848.022 3.367 1.535 3.37 3.485-.001 1.899-1.51 3.469-3.344 3.498-1.848-.022-3.367-1.535-3.37-3.485z"/><path d="m347.86 338.73c.001-1.899 1.51-3.469 3.344-3.498 1.848.022 3.367 1.535 3.37 3.485-.001 1.899-1.51 3.469-3.344 3.498-1.848-.022-3.367-1.535-3.37-3.485z"/><path d="m347.18 346.33c-.004-1.949 1.51-3.469 3.344-3.498 1.848.022 3.367 1.535 3.37 3.485.004 1.949-1.51 3.469-3.344 3.498-1.848-.022-3.367-1.535-3.37-3.485z"/><path d="m348.94 353.96c.001-1.899 1.51-3.469 3.344-3.498 1.848.022 3.367 1.535 3.37 3.485-.001 1.899-1.51 3.469-3.344 3.498-1.848-.022-3.38-1.586-3.37-3.485z"/><path d="m352.4 361.27c.001-1.899 1.51-3.469 3.344-3.498 1.848.022 3.367 1.535 3.37 3.485-.001 1.899-1.51 3.469-3.344 3.498-1.848-.022-3.367-1.535-3.37-3.485z"/><path d="m356.88 368.05c.001-1.899 1.51-3.469 3.344-3.498 1.848.022 3.367 1.535 3.37 3.485-.001 1.899-1.51 3.469-3.357 3.447-1.848-.022-3.367-1.535-3.37-3.485z"/><path d="m433.84 325.62c.001-1.899-1.523-3.463-3.37-3.485-1.848-.022-3.348 1.548-3.344 3.498-.001 1.899 1.523 3.463 3.37 3.485 1.848.022 3.348-1.548 3.344-3.498z"/><path d="m441.5 324.61c-.004-1.949-1.523-3.463-3.37-3.485-1.848-.022-3.348 1.548-3.344 3.498.004 1.949 1.523 3.463 3.37 3.485 1.848.022 3.348-1.548 3.344-3.498z"/><path d="m449.6 324.09c-.004-1.949-1.523-3.463-3.37-3.485-1.848-.022-3.348 1.548-3.344 3.498-.001 1.899 1.523 3.463 3.37 3.485 1.848.022 3.399-1.561 3.344-3.498z"/><path d="m457.93 324.48c.001-1.899-1.523-3.463-3.37-3.485-1.848-.022-3.348 1.548-3.344 3.498-.001 1.899 1.523 3.463 3.37 3.485 1.848.022 3.348-1.548 3.344-3.498z"/><path d="m466.08 326.71c.001-1.899-1.472-3.476-3.37-3.485-1.848-.022-3.348 1.548-3.344 3.498-.001 1.899 1.523 3.463 3.37 3.485 1.848.022 3.348-1.548 3.344-3.498z"/><path d="m472.46 331.82c.001-1.899-1.523-3.463-3.37-3.485-1.848-.022-3.348 1.548-3.344 3.498-.001 1.899 1.472 3.476 3.37 3.485 1.848.022 3.348-1.548 3.344-3.498z"/><path d="m476.47 338.72c.001-1.899-1.523-3.463-3.37-3.485-1.848-.022-3.348 1.548-3.344 3.498.004 1.949 1.523 3.463 3.37 3.485 1.848.022 3.348-1.548 3.344-3.498z"/><path d="m477.14 346.29c.001-1.899-1.523-3.463-3.37-3.485-1.848-.022-3.399 1.561-3.344 3.498.004 1.949 1.523 3.463 3.37 3.485 1.848.022 3.348-1.548 3.344-3.498z"/><path d="m475.38 353.94c.001-1.899-1.523-3.463-3.37-3.485-1.848-.022-3.348 1.548-3.344 3.498-.001 1.899 1.523 3.463 3.37 3.485 1.848.022 3.348-1.548 3.344-3.498z"/><path d="m471.92 361.26c-.004-1.949-1.523-3.463-3.37-3.485-1.848-.022-3.348 1.548-3.344 3.498-.001 1.899 1.523 3.463 3.37 3.485 1.848.022 3.348-1.548 3.344-3.498z"/><path d="m467.44 368.02c.001-1.899-1.523-3.463-3.37-3.485-1.848-.022-3.348 1.548-3.344 3.498.004 1.949 1.523 3.463 3.37 3.485 1.848.022 3.348-1.548 3.344-3.498z"/><path d="m412.12 323.51c-4.765.001-14.82-1.195-14.82-1.195.064.038 2.439 3.01 4.986 8.82.397.929.819 1.961 1.255 3.043.141.344.231.7.372 1.044 2.075 5.653 3.95 13.09 4.618 22.403.458-.116.879-.167 1.35-.232.739-.078 1.427-.143 2.229-.183.815.011 1.593.086 2.319.174.446.05.905.151 1.364.252.645-9.264 2.516-16.671 4.518-22.268.545-1.492 1.065-2.869 1.623-4.093 2.575-5.904 5.02-8.903 5.05-8.967 0 0-10.05 1.179-14.816 1.188z"/><path d="m368.22 366.22c-.805-1.043-9.759-12.71-9.854-22.11-.058-9.9 11.992-11.745 12.09-11.771 9.08-1.801 27.626 1.488 33.401 2.904-.141-.344-.231-.7-.372-1.044-.435-1.082-.858-2.113-1.255-3.043-6.922-1.668-24.12-4.107-33.25-2.293-3.974.785-14.15 4.704-14.292 14.871-.159 10.117 9.332 22.623 10.814 24.417.407-.536.839-.97 1.399-1.328.42-.268.853-.486 1.311-.601z"/><path d="m455.23 329.01c-9.177-1.804-26.437.65-33.33 2.333-.558 1.224-1.078 2.601-1.623 4.093 5.718-1.387 24.34-4.672 33.453-2.906.115.025 12.223 1.849 12.13 11.788-.084 9.123-8.51 20.403-9.73 22.01 1.071.38 1.952 1.079 2.667 1.983 1.525-1.901 10.917-14.291 10.757-24.382-.134-10.206-10.322-14.08-14.312-14.867z"/><path d="m458.78 368.26c-.664-.916-1.545-1.615-2.667-1.983-2.869-1.065-7.05-.012-11.777 4.648-2.469-11.947-12.12-14.769-18.609-3.328 0 0-1.914-8.02-9.983-9.944-.408-.114-.905-.151-1.364-.252-.726-.088-1.504-.163-2.319-.174-.815-.011-1.554.067-2.229.183-.471.065-.943.129-1.35.232-8.138 1.889-10.06 9.958-10.06 9.958-6.52-11.467-16.11-8.671-18.609 3.336-4.672-4.565-8.79-5.64-11.642-4.704-.446.167-.942.346-1.311.601-.509.345-.992.792-1.399 1.328-.076.128-.216.217-.292.345-1.067 1.569-1.483 3.787-1.084 6.233.68 2.267 6.278 17.813 6.278 17.813s20.606-5.086 41.665-6.01c21.02.877 41.65 5.971 41.65 5.971s5.614-15.555 6.285-17.837c.441-2.549-.086-4.854-1.248-6.457z"/></g></g><path d="m408.01 339.45c1.117 4.432 2.058 10.1 2.569 17.07.688-.065 1.49-.105 1.49-.105s.879.049 1.606.137c1.314-18.643 5.91-27.494 8.12-30.761-2.764.209-7.86.627-9.695.656-1.835.029-6.881-.433-9.647-.657 1.38 2.036 3.733 6.211 5.607 13.648z" fill="#fff"/><path d="m400.63 324.78s.37.394 1.035 1.31c.089.14.192.331.332.458 1.342 2.1 3.516 6.211 5.262 13.14 1.156 4.585 2.135 10.406 2.608 17.654.522-.077 1.057-.104 1.643-.143.217 0 .382.012.599.011.217 0 .433-.0001.65-.0001.548.024 1.109.1 1.67.175.024-.548.1-1.109.124-1.657 1.292-17.229 5.518-25.825 7.754-29.2.114-.191.241-.332.318-.459.635-.919 1.03-1.289 1.03-1.289s-9.01.807-11.504.787c-2.497-.021-11.418-.806-11.418-.806zm10.737 30.775c-1.203-15.95-4.928-24.709-7.331-28.87 2.816.211 6.575.51 8.04.52 1.516-.003 5.287-.303 8.103-.525-2.413 4.184-6.116 12.919-7.36 28.835-.268.014-.548-.024-.765-.024-.217 0-.484.014-.701.014z"/><g fill="#fff" stroke="#000" stroke-linejoin="round"><path d="m408.15 330.31c.03 2.268 1.792 4.099 4.06 4.069 2.217-.017 4.04-1.83 4.056-4.111-.03-2.268-1.792-4.099-4.06-4.069-2.217.017-4.04 1.83-4.056 4.111z"/><path d="m408.74 338.45c.004 1.949 1.536 3.514 3.434 3.523 1.899.001 3.45-1.574 3.459-3.472-.004-1.949-1.536-3.514-3.485-3.51-1.899-.001-3.45 1.574-3.459 3.472z"/><path d="m409.32 344.86c.016 1.567 1.267 2.877 2.847 2.912 1.567-.016 2.864-1.318 2.848-2.885s-1.267-2.877-2.847-2.912c-1.567.016-2.864 1.318-2.849 2.885z"/><path d="m409.77 350.06c.015 1.351 1.101 2.432 2.413 2.48 1.351-.015 2.431-1.101 2.416-2.451-.015-1.351-1.05-2.444-2.413-2.48-1.351.015-2.431 1.101-2.416 2.451z"/><path d="m410.34 354.68c-.011 1.032.844 1.846 1.826 1.869 1.032.011 1.846-.844 1.857-1.877.011-1.032-.845-1.846-1.826-1.869-1.032-.011-1.846.844-1.857 1.877z"/></g><path d="m375.96 387.45c-1.901-1.092-13.564-16.843-4.825-17.637 6.841-.587 5.674 15.419 4.825 17.637m16.405-3.051c-1.85-1.105-12.619-15.673-4.202-18.17 8.468-2.514 5.05 15.955 4.202 18.17m19.72-1.72c-1.545-1.615-8.739-18.764-.024-18.793 8.728.021 1.345 16.943.024 18.793m19.931 1.694c-.871-2.164-4.296-20.696 4.195-18.18 8.44 2.532-2.311 17.05-4.195 18.18m15.971 3.18c-.871-2.164-2.406-18.572 5.215-17.784 8.729.888-3.37 16.723-5.215 17.784"/><path stroke-linejoin="round" d="m403.61 316.61c-1.015-4.457 1.767-8.897 6.224-9.912s8.897 1.767 9.912 6.224c1.015 4.457-1.767 8.897-6.224 9.912-4.457 1.015-8.897-1.767-9.912-6.224z" stroke="#2b2a29" fill="#fff"/></g></g></svg>