<svg xmlns="http://www.w3.org/2000/svg" xmlns:xlink="http://www.w3.org/1999/xlink" viewBox="0 0 322.58 390.01"><defs><linearGradient id="4" gradientUnits="userSpaceOnUse" gradientTransform="matrix(-25.6161-46.0222-40.2923 22.47034 406.6 544.95)" x1=".23" x2=".77" xlink:href="#2"/><linearGradient id="7" gradientUnits="userSpaceOnUse" gradientTransform="matrix(-62.3664 0 0 18.052 394.28 346.46)" x1=".411" x2=".546"><stop stop-color="#f1f1f1"/><stop offset="1" stop-color="#fff"/></linearGradient><linearGradient id="9" gradientUnits="userSpaceOnUse" gradientTransform="matrix(0 14.0951 29.55102 0 337.95 441.49)" x1=".21" x2=".79" xlink:href="#2"/><linearGradient id="8" gradientUnits="userSpaceOnUse" gradientTransform="matrix(0-41.3587-12.81634 0 359.37 460.61)" x1=".31" x2=".69"><stop stop-color="#e6e6e6"/><stop offset="1" stop-color="#fff"/></linearGradient><linearGradient id="5" gradientUnits="userSpaceOnUse" gradientTransform="matrix(-55.99129-103.4244-89.262 48.4179 406.77 491.54)" x1=".28" x2=".72" xlink:href="#2"/><linearGradient id="A" gradientUnits="userSpaceOnUse" gradientTransform="matrix(371.1214 0 0 181.482 111.7 166.7)" x1="0" x2="1"><stop stop-color="#fb0"/><stop offset=".369" stop-color="#ffcf00"/><stop offset=".63" stop-color="#ffcf00"/><stop offset="1" stop-color="#fb0"/></linearGradient><linearGradient id="2" gradientUnits="userSpaceOnUse" gradientTransform="matrix(31.84458-70.83439-54.69095-24.6348 333.33 621.5)" x1=".29" x2=".71"><stop stop-color="#e5e5e5"/><stop offset="1" stop-color="#fff"/></linearGradient><linearGradient id="1" gradientUnits="userSpaceOnUse" gradientTransform="matrix(-186.9823 0 0 159.44 337.92 386.57)" x1=".25" x2=".621"><stop stop-color="#f2f2f2"/><stop offset="1" stop-color="#fff"/></linearGradient><linearGradient id="3" gradientUnits="userSpaceOnUse" gradientTransform="matrix(77.2017-173.5333-134.8946-60.1285 385.29 612.25)" x1=".22" x2=".78" xlink:href="#2"/><radialGradient id="0" gradientUnits="userSpaceOnUse" r="88.78" cy="592.74" cx="346.79"><stop stop-color="#fff"/><stop offset=".64" stop-color="#fff"/><stop offset="1" stop-color="#e6e6e6"/></radialGradient><radialGradient xlink:href="#0" id="6" gradientUnits="userSpaceOnUse" gradientTransform="matrix(28.242 0 0-58.4626 326.85 378.13)" cx=".829" cy=".104" r="1.04"/></defs><g transform="translate(-129.4-311.76)"><path d="m363.77 498.79c2.935 0 5.315 2.38 5.315 5.315v5.314c0 2.935-2.38 5.315-5.315 5.315h-5.315v-15.944zm0 21.259c5.87 0 10.63-4.76 10.63-10.63v-5.314c0-5.87-4.76-10.63-10.63-10.63h-10.63v26.574zm-21.26-26.574h5.315v26.574h-5.315zm-10.63 0h5.315v26.574h-5.315l-10.63-16.684v16.684h-5.315v-26.574h5.315l10.63 16.684zm-79.72 0h15.945v5.315h-10.63v5.315h10.63v5.315h-10.63v5.315h10.63v5.315h-15.945zm-21.26-.0001h5.315v21.26h10.63v5.315h-15.945zm55.808 21.26h5.314c4.402 0 7.972-3.57 7.972-7.972 0-4.402-3.636-7.957-7.972-7.972h-5.314v5.315h5.314c1.467 0 2.657 1.19 2.657 2.657 0 1.467-1.19 2.657-2.657 2.657h-5.314zm5.314-26.575c10.272 0 18.602 8.33 18.602 18.602 0 10.272-8.33 18.602-18.602 18.602-10.272 0-18.602-8.33-18.602-18.602 0-10.272 8.33-18.602 18.602-18.602m-13.287 18.602c0 7.337 5.95 13.287 13.287 13.287 7.337 0 13.287-5.95 13.287-13.287 0-7.337-5.95-13.287-13.287-13.287-7.337 0-13.287 5.95-13.287 13.287" fill="#a90000"/><g fill-rule="evenodd"><path d="m287.54 643.91c-83.58-28.98-130.71-89.25-136.61-168.06v-163h136.61v331.06" fill="#3d82c2"/><path d="m164.65 535.4c-3.092-7.541-5.691-15.354-7.791-23.42 8.01-4.058 15.08-8.923 27.686-8.923 21.626 0 21.564 9.1 43.26 9.1 21.695 0 21.632-9.1 43.26-9.1 9.281 0 14.995 2.389 20.21 5.116v27.465c-5.216-2.727-10.93-5.115-20.21-5.115-21.624 0-21.561 9.1-43.26 9.1-21.693 0-21.632-9.1-43.26-9.1-8.479 0-14.454 2.202-19.894 4.878zm-13.205-53.821c-.193-1.902-.369-3.813-.513-5.737v-21.476c8.547-4.165 15.686-9.553 28.953-9.553 21.624 0 21.562 9.1 43.26 9.1 21.694 0 21.632-9.1 43.26-9.1 12.08 0 18.11 4.04 24.872 7.614v27.466c-6.757-3.571-12.796-7.615-24.872-7.615-21.624 0-21.562 9.1-43.26 9.1-21.694 0-21.632-9.1-43.26-9.1-13 0-20.12 5.174-28.44 9.3zm-.513-58.32v-27.466c8.254-4.113 15.362-9.221 28.28-9.221 21.624 0 21.562 9.1 43.26 9.1 21.694 0 21.632-9.1 43.26-9.1 12.476 0 18.508 4.316 25.546 7.968v27.466c-7.04-3.652-13.07-7.968-25.546-7.968-21.624 0-21.562 9.1-43.26 9.1-21.694 0-21.632-9.1-43.26-9.1-12.917 0-20.02 5.108-28.28 9.221" fill="url(#1)" stroke="#000" stroke-width="1.3"/></g><g stroke="#000" stroke-miterlimit="10"><path d="m287.54 643.91c-83.58-28.98-130.71-89.25-136.61-168.06v-163h273.21v163c-5.9 78.82-53.03 139.08-136.61 168.06z" fill="none" stroke-width="2.17"/><path d="m287.54 643.91c83.58-28.98 130.71-89.25 136.61-168.06v-163h-136.61v331.06z" fill="#de212b" fill-rule="evenodd" stroke-width="1.3"/></g><g><g fill="#ffe600"><path d="m389.6 625.32c7.724-6.599 14.593-14.05 18.586-21.443 1.565-2.896 2.432-7.128 1.747-10.395-.819-3.903-4.843-5.149-8.486-3.359-4.046 1.988-6.996 6.524-9.408 10.127-1.83 2.734-3.662 5.526-6.076 7.814-2.297 2.176-5.583 4.119-8.871 3.381 5.108 3.982 9.128 8.317 12.508 13.875"/><path d="m204.33 614.39c-1.758.473-4.138.151-7.01-1.378-1.294-.689-2.495-1.546-3.608-2.528-2.168-1.913-3.952-4.244-5.454-6.706-2.118-3.472-4.935-7.36-8.876-8.896-3.993-1.555-8.193-.026-8.623 4.663-.285 3.115 1.031 6.775 2.611 9.336l.002.003c2.265 3.669 5.03 7.02 7.989 10.15 3.338 3.526 7.135 6.949 11.136 10.191 2.743-6.157 6.37-10.856 11.829-14.835"/></g><g fill-rule="evenodd"><path d="m453.17 309.79c2.367-4.438.308-12.404-1.583-15.899-8.976-16.595-28.796-33.432-46.905-44.45-36.751-22.358-72.847-36.3-109.15-37.19-34.1-.83-68.38 10-103.54 32.1-17.948 11.277-38.17 26.931-48.09 42.982-1.123 1.817-2.379 4.615-3.058 7.526-.73 3.125-.587 6.394.825 8.647-7.78-11.942-17.62-25.14-26.938-37.422-4.197-5.53-2.41-12.898 1.05-18.283 9.499-14.783 42.02-37.706 63.27-49.859 38.76-22.16 78.76-32.565 118.66-31.12 41.17 1.496 82.24 15.533 121.73 37.33 22.16 12.234 42.2 26.752 56.798 42.33 6.553 6.993 9.483 19.541 2.726 27.616-9.595 11.464-17.641 24.568-25.803 35.68" fill="url(#A)" transform="matrix(.76345 0 0-.76419 63.44 828.5)"/><path d="m413.04 596.89c4.209-3.438 7.977-8.665 12.863-13.991 8.144-8.877 18.835-18.759 24.12-28.962-8.753 6.866-20.455 9.06-29.22 16.222 3.629-11.487 8.509-24.587 7.441-35.3-8.183 14.989-17.998 24.994-28.785 36.24-4.558 4.754-9.257 9.37-13.701 14.161-4.072 4.39-8.531 9.08-11.35 14.431-5.28 10.02 3.418 16.02 11.563 8.302 4.616-4.373 7.103-10.401 11.541-14.908 2.527-2.567 5.01-4.327 8.622-3.698 1.599.279 2.642 1.14 3.277 2.359 1.218 1.66 2.432 3.379 3.634 5.137m-241.46-.293c.824-1.36 2.229-2.284 4.36-2.384 5.598-.263 9.809 5.283 12.392 9.518 2.319 3.802 5.281 7.208 9.03 9.205 9.208 4.904 13.29-2.673 7.907-9.08-2.518-3-4.949-6.074-7.479-9.06-4.681-5.529-9.73-10.745-14.827-15.888-5.649-5.699-11.363-11.327-16.703-17.335-5.518-6.208-10.577-12.562-15.05-19.242-.495 9.981 2.966 21.09 6.993 32.366-8.959-5.228-17.919-8.524-26.879-9.887 4.03 3.889 7.817 7.893 11.511 12 5.093 5.669 9.891 11.371 15.654 16.413 3.125 2.734 6.552 5.454 9.954 8.08 1.087-1.593 2.137-3.163 3.14-4.705" fill="#ffe600"/></g><path d="m168.43 601.3c-3.4-2.624-6.827-5.344-9.953-8.08-5.764-5.04-10.562-10.744-15.654-16.413-3.694-4.111-7.483-8.115-11.511-12 8.96 1.364 17.92 4.66 26.879 9.887-4.03-11.274-7.488-22.385-6.993-32.366 4.477 6.681 9.536 13.03 15.05 19.242 5.341 6.01 11.05 11.637 16.703 17.335 5.097 5.142 10.146 10.358 14.827 15.888 2.53 2.989 4.961 6.06 7.479 9.06 5.383 6.411 1.301 13.988-7.907 9.08-3.749-1.997-6.711-5.403-9.03-9.205-2.583-4.235-6.794-9.781-12.392-9.518-4.872.229-5.947 4.764-4.969 8.956.519 2.224 1.478 4.363 2.335 5.751 7.571 12.266 23.01 24.23 36.712 32.847 26.848 16.886 53.02 25.16 79.05 24.531 27.712-.675 55.27-11.332 83.33-28.418 13.825-8.419 28.957-21.286 35.81-33.967 1.948-3.605 4.132-13.435-2.073-14.518-3.608-.63-6.095 1.131-8.622 3.698-4.438 4.507-6.925 10.535-11.541 14.908-8.145 7.718-16.843 1.718-11.563-8.302 2.819-5.35 7.278-10.04 11.35-14.431 4.444-4.791 9.143-9.407 13.701-14.161 10.786-11.25 20.601-21.255 28.785-36.24 1.068 10.71-3.812 23.811-7.441 35.3 8.767-7.165 20.469-9.356 29.22-16.222-5.281 10.203-15.971 20.08-24.12 28.962-4.886 5.326-8.653 10.553-12.881 13.994m-3.613-5.107c6.232 8.467 12.375 18.481 19.7 27.24 5.158 6.171 2.922 15.76-2.081 21.1-11.147 11.904-26.443 22.998-43.36 32.35-30.15 16.66-61.5 27.388-92.94 28.531-30.464 1.108-61-6.842-90.59-23.778-16.226-9.287-41.05-26.805-48.3-38.1-2.642-4.115-4.01-9.746-.802-13.972 7.114-9.383 14.626-19.471 20.546-28.568m20.948 32.773c2.934-6.617 5.992-10.731 12.301-15.235m171.87-2.888c5.149 3.987 8.685 7.279 12.883 14.203" fill="none" stroke="#000" stroke-width="1.3" stroke-miterlimit="10"/><g fill-rule="evenodd"><path d="m167.11 585.01c.841 2.121 2.315.925 3.433 1.78.905.692 1.292 2.609.692 3.357-.599.749-2.473.928-3.573.004-1.213-1.018-1.828-3.382-.552-5.142m-.485-6.06c.84 2.121 2.314.925 3.433 1.78.906.692 1.292 2.609.692 3.357-.599.749-2.472.928-3.573.004-1.213-1.018-1.828-3.382-.552-5.142m-6.674-.71c.841 2.121 2.315.925 3.433 1.78.905.692 1.292 2.609.692 3.357-.599.749-2.473.928-3.573.004-1.213-1.018-1.828-3.382-.552-5.142m1.156 6.28c.841 2.121 2.315.925 3.433 1.78.905.692 1.292 2.609.692 3.357-.599.749-2.473.928-3.573.004-1.213-1.018-1.828-3.382-.552-5.142"/><path d="m407.06 579.62c-.841 2.121-2.315.925-3.433 1.78-.905.692-1.292 2.609-.692 3.357.599.749 2.473.928 3.573.005 1.213-1.018 1.828-3.382.552-5.142m.485-6.06c-.841 2.121-2.315.925-3.433 1.78-.905.692-1.292 2.609-.692 3.357.599.749 2.473.928 3.573.005 1.213-1.018 1.828-3.382.552-5.142m6.674-.711c-.841 2.121-2.314.925-3.433 1.78-.905.692-1.292 2.609-.692 3.357.599.749 2.473.928 3.573.005 1.213-1.018 1.828-3.382.552-5.142m-1.156 6.279c-.841 2.121-2.314.925-3.433 1.78-.905.692-1.292 2.609-.692 3.357.599.749 2.473.928 3.573.005 1.213-1.018 1.828-3.382.552-5.142"/></g><path d="m162.58 617.2l6.145 5.94c.911.881 1.532 1.795 1.859 2.732.401 1.174.422 2.506.059 3.993-.363 1.487-1.17 2.879-2.424 4.179-1.034 1.072-2.132 1.88-3.295 2.414-.886.418-1.83.621-2.832.609-.999-.001-1.994-.254-2.983-.737-.741-.36-1.578-.994-2.517-1.901l-5.503-5.319.583-.605 1.126 1.088c.286.276.526.423.726.436.197.015.39-.074.576-.267l9.252-9.59c.162-.168.229-.358.206-.571-.023-.213-.137-.419-.348-.624l-1.214-1.173.583-.605m3.728 4.772c-.239-.231-.465-.354-.679-.364-.213-.001-.419.088-.615.292l-9.167 9.502c-.188.195-.263.404-.224.633.039.229.219.499.541.809l1.013.98c.906.876 1.925 1.41 3.057 1.6.745.119 1.504.009 2.278-.332 1.056-.456 2.225-1.355 3.522-2.699 1.915-1.984 2.974-3.775 3.17-5.365.162-1.351-.353-2.599-1.542-3.748l-1.354-1.308m7.375 6.579l5.756 5.01-.551.634-.988-.86c-.438-.381-.765-.569-.976-.56-.21.009-.468.19-.779.547l-8.217 9.462c-.328.378-.482.659-.463.842.023.247.212.524.567.832l1.106.963-.551.634-5.756-5.01.551-.635 1.089.948c.38.331.675.492.886.477.21-.015.481-.21.808-.587l8.217-9.462c.313-.36.456-.631.428-.802-.043-.265-.279-.582-.699-.948l-.98-.852.551-.634m6.92 5.811l10.6 8.29-3.347 4.655-.611-.478c.945-1.763 1.356-3.071 1.232-3.924-.131-.98-.714-1.877-1.746-2.684l-2.091-1.635c-.205-.16-.393-.229-.561-.206-.169.023-.332.133-.482.326l-3.683 4.718 1.119.875c.623.487 1.279.67 1.971.547.69-.12 1.387-.598 2.084-1.435l.635.496-4.592 5.883-.635-.496c.725-1.01 1.066-1.862 1.035-2.561-.034-.695-.366-1.294-1-1.791l-1.119-.875-3.885 4.977c-.228.292-.321.554-.274.785.047.231.244.482.59.752l1.359 1.063-.517.663-6.266-4.9.517-.663 1.339 1.047c.27.212.505.308.704.289.199-.019.394-.152.587-.399l8.096-10.373c.186-.238.255-.45.212-.644-.041-.196-.214-.409-.514-.644l-1.275-.998.517-.662m11.212 8.762l11.408 7.135-2.843 4.98-.657-.411c.755-1.852 1.028-3.196.815-4.03-.233-.961-.906-1.792-2.02-2.487l-2.25-1.407c-.22-.138-.415-.187-.58-.146-.165.041-.316.167-.445.375l-3.17 5.078 1.204.753c.67.419 1.342.533 2.02.338.673-.192 1.317-.74 1.923-1.645l.683.427-3.953 6.331-.683-.427c.615-1.079.866-1.964.762-2.655-.106-.688-.499-1.249-1.182-1.676l-1.204-.753-3.344 5.356c-.196.314-.261.584-.19.809.071.225.293.454.665.686l1.463.915-.445.713-6.743-4.218.445-.713 1.44.901c.291.182.535.254.731.214.196-.04.377-.193.543-.458l6.969-11.163c.16-.256.206-.475.144-.663-.061-.191-.255-.385-.579-.587l-1.373-.858.445-.713m11.844 7.9l11.778 5.75-2.165 5.158-.673-.328c.504-1.714.617-3.03.345-3.942-.274-.912-.874-1.596-1.804-2.05l-2.916-1.424c-.233-.114-.442-.139-.624-.07-.182.068-.339.234-.466.495l-2.584 5.303 1.276.623c.683.333 1.358.361 2.022.078.663-.28 1.26-.92 1.788-1.916l.693.338-3.358 6.892-.693-.338c.521-1.157.686-2.088.493-2.791-.191-.706-.657-1.239-1.402-1.603l-1.166-.569-2.883 5.917c-.104.213-.112.413-.023.597.087.187.301.359.637.523l2.299 1.122c2.501 1.221 4.72.328 6.656-2.677l.724.354-2.951 5.42-12.252-5.981.368-.756 1.012.494c.398.194.709.261.937.203.228-.058.404-.219.532-.48l5.746-11.793c.127-.261.151-.492.072-.687-.079-.196-.268-.365-.57-.513l-1.214-.593.368-.755m13.365 7l7.867 3.343c1.521.647 2.558 1.498 3.104 2.548.546 1.05.581 2.14.104 3.265-.286.675-.709 1.201-1.261 1.585-.557.386-1.216.6-1.975.647-.762.046-1.845-.149-3.249-.583.87.685 1.433 1.236 1.693 1.649.264.415.417.874.469 1.378.048.502-.048 1.445-.294 2.826-.173.985-.216 1.693-.121 2.124.068.328.208.537.415.625.211.09.473.018.789-.217.316-.235.662-.74 1.035-1.511l.703.298c-1.124 2.279-2.48 3.081-4.072 2.404-.499-.212-.881-.524-1.139-.932-.26-.414-.379-.904-.352-1.478.012-.431.264-1.473.752-3.122.286-.958.395-1.675.338-2.156-.062-.479-.279-.936-.651-1.368-.374-.437-.891-.794-1.551-1.074l-1.244-.528-2.538 5.986c-.109.257-.12.459-.035.62.11.2.34.372.691.522l1.462.621-.328.774-7.07-3.01.328-.774 1.493.635c.331.14.6.18.809.116.211-.068.363-.211.46-.439l5.165-12.18c.11-.26.113-.492.001-.689-.103-.197-.315-.362-.638-.5l-1.493-.634.328-.774m1.675 8.98l1.799.764c1.208.514 2.251.687 3.126.519.879-.166 1.563-.83 2.06-2 .34-.802.48-1.494.422-2.071-.06-.573-.261-1.037-.606-1.387-.349-.351-1.135-.785-2.365-1.308-.808-.343-1.334-.501-1.572-.469-.241.031-.419.187-.536.461l-2.328 5.49m13.254-2.024l12.532 3.835-1.332 5.434-.716-.219c.23-1.772.137-3.087-.275-3.948-.413-.858-1.113-1.439-2.102-1.742l-3.103-.949c-.248-.076-.458-.068-.627.028-.169.096-.298.284-.383.562l-1.723 5.642 1.358.415c.726.222 1.397.144 2.01-.24.611-.38 1.1-1.106 1.466-2.172l.738.226-2.24 7.334-.738-.225c.334-1.224.351-2.17.051-2.833-.299-.667-.843-1.121-1.635-1.363l-1.241-.38-1.923 6.296c-.069.227-.046.426.07.593.115.171.353.308.711.417l2.446.749c2.661.814 4.713-.415 6.155-3.686l.77.236-2.068 5.816-13.04-3.989.246-.804 1.077.33c.424.13.741.147.958.053.216-.094.365-.28.45-.558l3.833-12.548c.085-.277.072-.509-.037-.69-.109-.181-.322-.318-.643-.417l-1.292-.395.246-.804m14.428 4.438l3.861.821 7.06 14.799 1.956-9.209c.197-.927.129-1.656-.198-2.19-.301-.494-.832-.825-1.594-1l.175-.822 5.653 1.203-.175.822c-.575-.122-1.021-.135-1.339-.035-.318.101-.63.339-.933.719-.299.378-.502.819-.609 1.324l-2.732 12.864-1.031-.219-7.285-15.386-2.074 9.766c-.188.886-.104 1.591.249 2.119.352.528.992.899 1.922 1.112l-.175.822-6.168-1.313.175-.822c.779.134 1.445.015 1.998-.368.554-.382.906-.92 1.053-1.616l2.332-10.981-.145-.238c-.283-.47-.49-.761-.628-.864-.191-.15-.453-.257-.789-.328l-.732-.156.175-.822m17.07 3.536l13.344 1.404-.331 6.258-.767-.081c-.121-3.712-1.245-5.683-3.383-5.907-.429-.045-.733 0-.908.131-.175.131-.28.366-.316.708l-1.382 13.159c-.028.266.031.472.174.614.142.146.39.233.747.271l1.655.174-.088.836-7.638-.804.088-.836 1.891.199c.25.026.451-.014.597-.129.146-.112.232-.272.254-.477l1.402-13.35c.029-.281-.036-.503-.191-.669-.152-.162-.422-.263-.797-.303-1.078-.113-2.028.302-2.852 1.244-.684.773-1.248 2.051-1.696 3.829l-.812-.085 1.01-6.187m14.75 1.247l7.616.399-.044.839-1.307-.069c-.58-.03-.953.023-1.113.16-.16.137-.252.438-.277.911l-.656 12.519c-.026.5.026.816.153.949.17.181.49.282.959.307l1.464.077-.044.839-7.616-.399.044-.84 1.441.076c.503.027.835-.029.991-.17.156-.141.25-.461.276-.961l.656-12.519c.025-.477-.028-.778-.156-.896-.197-.182-.577-.287-1.134-.316l-1.296-.068.044-.839m15.501.004l.748-.026 6.464 14.93c.258.603.757.891 1.493.865l.515-.018.029.84-6.592.23-.029-.84.523-.018c.687-.024 1.169-.113 1.446-.272.191-.114.28-.277.273-.491-.004-.13-.032-.263-.091-.402l-1.496-3.465-6.527.228-.7 2.043c-.184.542-.272.973-.261 1.286.013.363.195.67.544.922.349.248.845.36 1.494.338l.557-.019.029.84-5.99.209-.029-.84c.641-.022 1.144-.177 1.508-.473.36-.292.685-.834.971-1.628l5.122-14.237m-.213 3.2l-2.707 7.478 5.848-.205-3.141-7.273m24.1-3.802l.797-1.57.809-.114.907 5.965-.733.103c-.715-1.767-1.579-3.01-2.593-3.725-1.018-.717-2.109-.992-3.273-.828-.975.137-1.732.541-2.27 1.211-.538.67-.748 1.429-.629 2.272.073.522.255.967.549 1.327.29.364.687.636 1.19.816.504.184 1.425.324 2.765.421 1.878.141 3.216.365 4.01.667.79.302 1.414.739 1.86 1.305.45.566.732 1.263.849 2.092.207 1.476-.12 2.772-.973 3.884-.858 1.112-2.071 1.777-3.644 1.998-1.693.238-3.237-.104-4.638-1.022l-1.036 1.709-.798.112-.892-6.353.798-.112c.556 1.708 1.441 2.992 2.661 3.854 1.223.858 2.508 1.195 3.857 1 1.093-.154 1.94-.601 2.54-1.345.597-.744.834-1.58.705-2.503-.073-.522-.267-.966-.583-1.326-.312-.357-.771-.633-1.368-.822-.598-.194-1.747-.364-3.45-.518-1.871-.173-3.17-.48-3.903-.917-1.029-.627-1.64-1.629-1.834-3.01-.203-1.441.093-2.687.882-3.736.79-1.049 1.9-1.676 3.333-1.877.688-.097 1.359-.068 2.01.091.654.155 1.354.473 2.095.948m3.65-2.403l7.911-1.975c1.789-.446 3.253-.383 4.396.195 1.143.577 1.874 1.521 2.201 2.833.326 1.309.142 2.418-.554 3.32-.956 1.247-2.312 2.089-4.06 2.526l-2.867.715 1.366 5.483c.079.319.214.529.4.628.244.124.539.141.876.057l1.826-.456.203.816-7.697 1.921-.203-.816 1.608-.401c.319-.08.536-.201.653-.364.117-.163.147-.356.094-.571l-3.19-12.806c-.081-.326-.233-.541-.458-.638-.225-.097-.598-.079-1.116.05l-1.186.296-.203-.816m6.829 6.821l2.181-.545c1.382-.345 2.306-.883 2.774-1.61.468-.727.538-1.757.209-3.08-.231-.927-.545-1.605-.947-2.032-.397-.425-.893-.695-1.482-.8-.593-.104-1.497-.008-2.712.295-.804.201-1.292.405-1.465.61-.177.206-.219.496-.124.874l1.566 6.288m7.753-10.939l12.532-3.835 1.931 5.25-.716.219c-.799-1.598-1.611-2.635-2.434-3.119-.821-.48-1.727-.57-2.716-.267l-3.103.949c-.248.076-.418.2-.504.374-.087.174-.089.403-.004.68l1.723 5.642 1.358-.416c.727-.222 1.239-.663 1.532-1.324.294-.657.294-1.533.0001-2.622l.737-.226 2.24 7.333-.737.226c-.407-1.202-.921-1.996-1.541-2.377-.62-.386-1.325-.458-2.117-.215l-1.241.38 1.923 6.296c.069.227.199.379.39.452.191.077.465.057.822-.052l2.446-.748c2.661-.814 3.675-2.983 3.044-6.501l.77-.236 1.535 5.979-13.04 3.989-.246-.804 1.077-.33c.424-.13.697-.293.824-.492.127-.199.146-.436.061-.714l-3.832-12.548c-.085-.277-.225-.462-.416-.552-.191-.089-.445-.084-.766.014l-1.292.395-.246-.804m25.983-8.01l.085-1.775.647-.275 2.87 6.02-.692.294c-1.184-1.531-2.292-2.559-3.325-3.087-1.284-.662-2.516-.741-3.697-.239-1.279.543-2.074 1.554-2.395 3.035-.318 1.48.097 3.583 1.25 6.302.971 2.29 2.171 3.839 3.602 4.65 1.215.683 2.526.724 3.938.124 1.237-.526 2.106-1.36 2.605-2.51.499-1.15.54-2.579.115-4.287l.731-.311c.555 1.906.527 3.561-.089 4.973-.615 1.415-1.706 2.451-3.273 3.117-1.268.539-2.569.718-3.899.527-1.333-.189-2.569-.747-3.713-1.677-1.145-.929-2.02-2.107-2.623-3.534-.644-1.52-.922-3.083-.83-4.695.088-1.611.503-2.97 1.242-4.072.738-1.106 1.699-1.909 2.88-2.411.657-.279 1.344-.438 2.056-.471.714-.038 1.554.066 2.514.306m2.471-3.123l6.855-3.347.368.756-1.177.575c-.522.254-.822.482-.896.68-.074.197-.008.506.199.931l5.49 11.268c.219.45.418.701.594.756.237.076.565.009.987-.197l1.317-.643.368.756-6.855 3.347-.368-.756 1.297-.633c.453-.221.716-.43.785-.63.068-.199-.005-.525-.224-.974l-5.49-11.268c-.209-.429-.402-.667-.57-.708-.261-.064-.644.029-1.145.274l-1.167.57-.368-.755m7.854-4l11.408-7.135 3.225 4.741-.657.411c-1.332-1.492-2.419-2.325-3.263-2.501-.965-.212-2.01.03-3.117.724l-2.25 1.407c-.22.138-.349.291-.385.457-.036.167.012.358.141.565l3.17 5.078 1.204-.753c.67-.419 1.067-.974 1.188-1.667.123-.69-.087-1.509-.634-2.451l.683-.427 3.953 6.332-.683.427c-.699-1.027-1.384-1.64-2.05-1.849-.664-.206-1.34-.099-2.023.328l-1.204.753 3.344 5.356c.196.314.41.491.643.526.233.034.536-.065.908-.298l1.463-.915.445.713-6.743 4.218-.445-.713 1.44-.901c.291-.182.462-.37.512-.564.05-.193-.008-.423-.174-.689l-6.969-11.163c-.16-.256-.336-.393-.532-.42-.198-.029-.457.061-.781.263l-1.373.858-.445-.713m12.214-7.863l6.248-4.379.482.688-1.073.752c-.475.333-.737.605-.779.812-.042.206.071.501.342.889l7.184 10.27c.287.41.523.627.704.654.245.038.559-.08.944-.349l1.201-.842.482.689-6.248 4.379-.482-.689 1.182-.829c.413-.289.64-.537.676-.745.037-.208-.087-.517-.373-.927l-7.184-10.269c-.274-.391-.501-.596-.674-.61-.267-.022-.631.13-1.088.45l-1.063.745-.482-.688m18.18-10.713l-.347-1.743.561-.423 4.239 5.142-.601.453c-1.519-1.199-2.842-1.928-3.972-2.19-1.406-.332-2.62-.11-3.645.663-1.11.837-1.637 2.01-1.591 3.525.049 1.513.96 3.453 2.736 5.812 1.495 1.987 3.034 3.199 4.619 3.64 1.344.369 2.626.091 3.851-.833 1.073-.81 1.715-1.83 1.922-3.066.206-1.237-.099-2.633-.925-4.187l.634-.478c.999 1.715 1.372 3.328 1.116 4.847-.254 1.522-1.063 2.792-2.422 3.817-1.1.83-2.319 1.319-3.655 1.456-1.339.139-2.673-.103-4.01-.728-1.335-.624-2.466-1.556-3.399-2.794-.992-1.318-1.639-2.768-1.94-4.355-.304-1.584-.23-3 .221-4.252.448-1.252 1.187-2.264 2.212-3.037.57-.43 1.198-.751 1.881-.955.683-.209 1.524-.312 2.513-.312m6.733-8l.547-.511 14.664 7.02c.591.283 1.155.176 1.694-.327l.377-.352.573.615-4.824 4.503-.573-.615.382-.357c.502-.469.81-.852.913-1.155.071-.21.03-.394-.116-.55-.089-.095-.196-.179-.332-.244l-3.4-1.633-4.777 4.459.811 2c.215.53.433.913.646 1.142.247.265.587.379 1.014.338.426-.04.874-.283 1.349-.726l.407-.38.573.615-4.383 4.091-.573-.615c.469-.438.746-.885.828-1.347.08-.457-.03-1.08-.335-1.866l-5.466-14.11m1.936 2.555l2.858 7.421 4.28-3.995-7.138-3.426"/></g><g stroke="#000" transform="translate(1.334)"><g stroke-width="1.1"><path d="m364.61 512.53l-46.686-86.69c-2.28-4.234-3.292-7.66-1.453-11.745-6.242-1.776-11.734 2.099-12.796 7.533 3.416.211 8.08 3.085 10.02 6.615l47.51 86.16 3.403-1.879z" fill="url(#5)" fill-rule="evenodd"/><path d="m306.46 422.42c1.324-4.223 4.792-6.44 9.261-5.691" fill="none" stroke-miterlimit="10"/><g fill-rule="evenodd"><path d="m365.66 522.4l13.08 23.919 3.087-1.95-12.911-23.906c-1.32-2.436-.743-5.01-1.854-7.28-.995-2.031-3.216-2.988-5.246-1.991-2.03.997-2.633 3.453-1.637 5.486 1.137 2.321 4.102 3.205 5.484 5.722" fill="url(#4)"/><path d="m379.95 544.68c.941-.477 2.033-.214 2.438.586.405.8-.03 1.837-.971 2.313-.94.478-2.032.215-2.438-.586-.405-.8.03-1.837.971-2.313z" fill="#e6e6e6" stroke-miterlimit="10"/></g><g stroke-miterlimit="10"><path d="m337.91 542.3l52.39-116.52c1.587-3.529 5.193-5.994 9.255-7.935-2.204-4.885-9-8.07-14.999-6.963 1.088 3.73 2.132 8.748.274 13.04l-50.5 116.58 3.574 1.797z" fill="url(#3)" fill-rule="evenodd"/><path d="m385.43 413.91c4.784-.531 8.904 1.027 11.213 5.349" fill="none"/><g fill-rule="evenodd"><path d="m331.03 547.86l-16.959 38.88 3.47 1.679 17.307-38.816c.971-2.181 2.973-3.363 3.929-5.506.817-1.832.202-4.085-1.629-4.903-1.83-.819-3.954.406-4.592 1.835-.927 2.077-.567 4.63-1.527 6.831" fill="url(#2)"/><path d="m316.4 586.25c-1.01-.466-2.143-.15-2.539.706-.396.856.099 1.928 1.106 2.395 1.01.466 2.143.15 2.539-.706.396-.856-.099-1.928-1.105-2.395z" fill="#e6e6e6"/></g></g><path d="m352.76 444.35c8.143 0 14.747 2.516 14.747 5.617 0 3.102-6.604 5.618-14.747 5.618-8.143 0-14.746-2.516-14.746-5.618 0-3.101 6.604-5.617 14.746-5.617" fill="url(#9)" fill-rule="evenodd"/></g><path d="m364.7 446.67c-.424.996-1.488 1.353-2.987.651l-3.036-1.423m-.242.385l2.954 1.712c2.427 1.406-.658 4.419-2.677 1.99l-2.042-2.457m-.4.139l1 2.212c1.278 2.827-2.703 3.881-3.11 1.412l-.508-3.076m-3.155-.237l-.937 2.788c-.838 2.495 3.134 3.01 3.351.613l.282-3.117m-5.346-1.258l-2.142 2.01c-2.247 2.107 1.384 4.645 2.966 1.617l1.432-2.743m-3.427-2.598l-3.567.977c-3.158.865-1.288 4.739 1.654 2.47l2.628-2.028" fill="none" stroke-width=".76" stroke-miterlimit="10"/><g fill-rule="evenodd" stroke-width="1.1"><path d="m356.75 420.93l1.77 3.173v2.562l-2.748 3.196 1.082 1.411v1.133l-1.102 1.055.295.871c-2.805 8.973 2.911 9.994 2.915 11.37 0 1.369-2.607 2.479-6.205 2.479-3.597 0-6.204-1.11-6.204-2.479.004-1.376 5.72-2.397 2.915-11.37l.295-.871-1.102-1.055v-1.133l1.082-1.411-2.748-3.196v-2.562l1.77-3.173 1.866-1.678h4.259l1.861 1.678z" fill="url(#8)"/><path d="m358.72 347.7c5.6 2.1 10.52 5.334 14.879 9.712v2.669l-41.679.144v-2.813c4.358-4.378 9.279-7.612 14.879-9.712l5.793-1.239 6.129 1.239z" fill="url(#7)"/><path d="m330.19 357.7l-1.395 3.671-1.627 2.797v7.07l.896 1.928c6.762 5.064 8.095 13.809 7.154 22.49-.573 5.306-.488 10.569 1.981 15.854 2.884 6.171 8.223 9.685 15.555 9.685 7.333 0 12.671-3.514 15.555-9.685 2.47-5.285 2.554-10.548 1.981-15.854-.942-8.681.392-17.427 7.154-22.49l.896-1.928v-7.07l-1.627-2.797-1.395-3.671c-14.749-2.315-30.38-2.315-45.13 0" fill="url(#6)"/><g fill="#fff" stroke-miterlimit="10"><path d="m355.91 344.18c.129-1.942.878-4.075 2.247-5.81l-.233-2.875c-.989-2.875-2.577-6.06-4.262-8.547l-.905-.384-.905.384c-1.685 2.487-3.274 5.672-4.262 8.547l-.233 2.875c1.369 1.736 2.118 3.868 2.247 5.81l2.985 2.066 3.321-2.066z"/><path d="m358.8 347v.913c-4.03-.33-8.06-.292-12.1 0v-.913c0-4.181 12.09-4.329 12.1 0z"/></g></g><g stroke-miterlimit="10"><g fill="none"><g stroke-width=".76"><path d="m354.34 333.57c0-1.516 2.452-1.532 2.452 0v1.901m-4.905-.15v-1.767c0-1.516 2.452-1.532 2.452 0v1.767m-4.905.178v-1.945c0-1.516 2.452-1.532 2.452 0m1.228-1.15v-1.602c0-1.516 2.452-1.532 2.452 0v1.644m-4.905-.028v-1.615c0-1.516 2.452-1.532 2.452 0m-5.426 7.355c.308-.416.681-.734 1.119-.954.804.474 1.519 1.187 2.01 2.138v4.513m3.745-4.558c.453-1.062 1.211-1.854 2.14-2.32.451.255.838.543 1.16.865m-7.089 1.456c.488-.953 1.071-1.756 1.917-2.231.802.565 1.427 1.309 1.872 2.231v4.452m-6.643-8.2c3.331-.294 6.715-.301 10.165 0m-6.198-5.842v-1.478c0-1.516 2.452-1.532 2.452 0v1.478"/><path d="m341.61 353.45l6.01-5.594m-1.53 5.672l3-5.75m.829 5.361l.954-5.516m2.325 5.439l-.62-5.516m4.208 5.75l-2.426-5.672m5.603 5.75l-3.744-5.75m7.564 5.793l-5.627-5.56"/></g><path d="m334.07 370.23c-.074-1.931-1.191-3.614-3.312-3.241-2.121.373-2.048 2.652-1.526 3.987m10.646-8.01c.149 1.782-.596 3.465-2.494 3.54-1.898.075-2.643-1.46-2.568-3.242m11.539 6.148c0-1.857-.819-3.689-2.866-3.539-2.047.149-2.568 2.205-2.419 3.838m12.283-7.04c.149 1.857-.596 3.54-2.494 3.54-1.898 0-2.643-1.684-2.568-3.465m6.402 6.644c0-2.01.776-3.85 2.974-3.763 2.198.087 2.665 2.165 2.51 3.937m7.02-6.52c.149 1.739-.745 3.465-2.643 3.391-1.898-.074-2.643-1.875-2.568-3.544m6.849 7.17c0-2.01 1.294-3.481 3.492-3.095 2.198.385 2.296 2.393 1.992 3.717m4.163-3.32c-1.646-.265-2.296-1.946-2.226-3.511" stroke-width=".87"/><path d="m375.34 357.84l-1.541 1.635-2.928-2.342-1.485 1.921-2.983-2.416-1.552 2.07-2.917-2.424-1.622 2.208-2.846-2.278-1.764 2.151-2.476-2.293-2.204 2.284-1.976-2.143-2.627 2.239-1.842-2.169-2.846 2.416-1.623-2.062-2.987 2.444-1.482-1.949-3.069 2.507-1.4-1.8" stroke-width=".76"/><path d="m349.57 429.82c2.066.207 4.133.207 6.2 0m-6.04 3.496c1.964.375 3.927.272 5.892 0" stroke-width=".764"/><path d="m378.38 371.14c-16.774-2.322-34.36-2.322-51.14 0m51.14-6.993c-16.767-2.328-34.37-2.328-51.14 0m49.44-2.797c-15.624-2.324-32.12-2.324-47.747 0" stroke-width="1.1"/><g stroke-width=".76"><path d="m348.27 422.81l1.353 2.246-1.353 2.245m1.293-2.245l1.353-2.246 1.353 2.246-1.353 2.245-1.353-2.245zm2.821 0l1.353-2.246 1.353 2.246-1.353 2.245-1.353-2.245zm2.633 0l1.353-2.246 1.353 2.246-1.353 2.245-1.353-2.245z"/><path d="m376.4 371.2l-1.02 1.856-2.159-2.401-1.104 2.196-2.234-2.622-1.097 2.349-2.235-2.482-1.437 2.21-1.922-2.496-1.614 2.36-2.091-2.529-1.631 2.461-1.689-2.571-1.86 2.614-1.933-2.58-1.933 2.58-1.479-2.537-2.121 2.426-1.504-2.392-2.168 2.529-1.385-2.36-2.15 2.496-1.208-2.21-2.464 2.482-1.021-2.197-2.31 2.469-1.028-2.196-2.236 2.401-1.02-1.856"/></g><path d="m329.51 372.47l1.243 3.204m1.942-3.359l1.309 3.432m2.109-3.922l1.043 3.647m2.531-3.831l.91 3.59m2.587-3.683l.667 3.51m3.062-3.602l.377 3.479m3.197-3.571v3.509m3.807-3.325v3.318m3.574-3.41l-.219 3.464m4.03-3.372l-.227 3.502m3.724-3.226l-.368 3.4m3.942-3.308l-.439 3.552m3.78-3.368l-.702 3.635m4.04-3.251l-1.012 3.296" stroke-width="1.3"/><g stroke-width="1.7"><path d="m347.23 398l3.21-4m-5.316 2l3.044-3.798m-5.05 1.933l2.989-3.729m-4.889 1.916l3.03-3.78m-1.721-1.519l-2.617 2.952-2.537-2.49m1.542 4.746l-3.245-3.183m.283 7.464l-.696-.698m2.074-1.719l-1.798-1.733"/><path d="m357.33 398.07l-3.21-4m5.316 2l-3.044-3.798m5.05 1.933l-2.989-3.729m4.889 1.916l-3.03-3.78m1.721-1.519l2.617 2.952 2.537-2.49m-1.542 4.746l3.244-3.183m-.283 7.464l1.661-1.803m-3.038-.614l2.762-2.562"/></g></g><g stroke-width=".76"><path d="m354.06 400.25c.709-.729 1.164-1.848 1.164-3.103 0-2.196-1.389-3.977-3.102-3.977-1.713 0-3.102 1.781-3.102 3.977 0 1.255.455 2.374 1.164 3.103h3.877z" fill="#fff" fill-rule="evenodd"/><path d="m352.12 394.21l.61 1.778 1.895.729-1.817.651-.689 1.857-.65-1.857-1.856-.651 1.816-.69.689-1.818z" fill="none"/><path d="m352.12 399.54c2.026 0 3.669 2.106 3.669 4.702 0 2.597-1.643 4.703-3.669 4.703-2.025 0-3.668-2.106-3.668-4.703 0-2.596 1.643-4.702 3.668-4.702z" fill="#fff" fill-rule="evenodd"/><path d="m349.33 405.89l2.165-.356.609 2.668h.024l.609-2.668 2.164.356v-.002l-1.543-1.645 1.543-1.645v-.003l-2.164.356-.615-2.69h-.013l-.615 2.69-2.165-.356v.002l1.544 1.646-1.544 1.646v.002z" fill="none"/></g><g fill="none"><g stroke-width="1.1"><path d="m365.89 386.61l-1.171-3.679-1.166 3.626"/><path d="m338.91 386.61l1.171-3.679 1.166 3.626"/></g><g stroke-width=".76"><path d="m339.15 380.03l.82-1.796.91 1.726-.82 1.796-.91-1.726z"/><path d="m363.89 380.01l.909-1.769.895 1.754-.909 1.769-.894-1.754z"/></g></g></g></g></g></svg>