<svg xmlns="http://www.w3.org/2000/svg" viewBox="0 0 184 224"><g fill="#fff" stroke="#000" stroke-width="1.044"><path d="m91.36 219v-211.56c-31.27 0-61.29 9.07-87.35 19.605l.022 42.953c9.382 4.722 13.1 13.04 13.08 21.501 0 10.418-3.985 18.525-13.08 22.499-.006 30.621-1.679 48.903 13.223 62.707 6.467 6.215 16.368 11.515 24.776 15.293 3.638 1.6 7.914 2.758 11 4 9.62 3.87 19.745 7.81 26 12 8.183 5.481 10.886 9 12.326 11z"/><path d="m92.4 219.13l-.041-211.68c31.27 0 61.35 9.02 87.41 19.559l-.023 42.953c-9.382 4.722-13.1 13.04-13.08 21.501 0 10.418 3.985 18.525 13.08 22.499-.12 30.667 1.679 48.903-13.223 62.707-6.467 6.215-16.368 11.515-24.776 15.293-3.638 1.6-7.914 2.758-11 4-9.62 3.87-19.745 7.81-26 12-4.423 2.883-9.428 7.538-12.343 11.173z"/></g><path d="m92.35 213.95l.029-202.82c30 0 58.22 8.197 83.22 18.266l.263 38.13c-9 4.512-13.14 14.01-13.263 24.01 0 10 4 20.783 13 24.783-.044 20.423 2.092 44.27-12.204 57.46-6.204 5.94-15.397 11.193-23.463 14.804-3.49 1.529-8.447 3.055-11.408 4.241-8.177 3.277-21.17 8.178-27.17 12.178-6.46 4.306-7.622 6.948-9.01 8.948z" fill="#007bc4" stroke="#007bc5"/><path d="m91.36 214l.023-202.87c-30 0-58.27 8.197-83.27 18.266l-.264 38.13c9 4.512 13.14 14.01 13.264 24.01 0 10-4 20.783-13 24.783.044 20.423-2.092 44.27 12.204 57.46 6.204 5.94 15.397 11.193 23.463 14.804 3.49 1.529 8.447 3.055 11.408 4.241 8.177 3.277 21.17 8.178 27.17 12.178 6.46 4.306 7.555 7 9 9z" fill="#de2119" stroke="#de2119"/><g stroke="#000"><g fill="#f7c500"><g stroke-width=".8"><path d="m68.38 51.23c1.649 1.57 1.801 4.258.128 5.337"/><path d="m56.25 59.839c2.456-1.086 4.677-.036 6.855-.291-2.531-1.537-5.684-5.985-3.614-5.785 2.347.49 4.635.681 7.251 2.518 1.119.33.787.305 1.395.379 2.112-.002-2.356-3.649-4.834-4-2.991-.615-5.667-.524-7.832-1.288-3.52-1.612-4.267-4.388-3.93-8.577.539-3.03.973-2.968 1.565-.279.423 1.683.551 4.089 3.265 5.305 1.403.767 2.18 1.255 4.265 1.471 3.937.447 7.56 2.923 8.294 3.442 1.191.842-.677-2.963-4.45-4.09-3.047-.911-5.933-1.335-6.181-4.275-.064-2.973 1.289-3.825 3.302-4.495.871-.106.425-3.075 1.698-3.48 2.267-.722 3.828 2.132 3.828 2.132 1.833 3.369 1.402-.596 2.677-2.038 1.446-1.517 5.218-1.369 6.776-.037.95 1.217 1.364 2.839 2.305 2.775.971-.066 2.09-2.034 3.422-1.919 2.378.085 4.334 2.783 4.427 4.302.715 1.272 1.6-.122 1.978 1.349.208 1.082-.566 7.695-.814 9.23-.158.976 1.034 2.205 1.831 3.782.951 1.882.274 4.379.056 4.499-.047 1.39-2.208-3.97-2.286-2.8-.099 1.484.87 6.909-.679 5.125-.272-.313-1.342-2.48-1.439-2.533-.671-.361 1.531 4.646.829 5.786-2.227 5.444-1.993.016-2.501-1.083-1.597-.799.554 7.438-.531 10.615-.942 1.661-2.442 2.905-3.294 2.871-.577.324-.672-2.102-1.07-3.707-.461-1.858-1.204-2.817-1.552-.324.011 1.707-.292 3.6-1.104 4.969-1.22 2.13-5.146 3.416-7.429 6.872-.783 1.671-.259 3.02-.331 4.508.534 4.844-1.615.685-2.778-.375-2.611-2.112 1.221 10.947 3.454 16.216 3.074 6.392 5.394 12.251 9.91 17.568.926.773 4.184 2.034 4.359-1.013.288-1.376-.034-2.29-.605-4.768l-8.559-18.394c-.619-2.181-1.909-8.16 0-11.562.823-2.044 2.842-4.361 5.405-5.856 2.203-.453 3.755.022 5.255 1.351 2.664 3.504 2.773 7.866 2.478 10.736-.034.667 1.717 2.818 1.426 4.655-.909 2.028-2.483 3.02-2.327 5.931-.077 1.62 2.467 3.643 2.027 4.505-1.702.247-3.857-.913-5.18-3.378-.556-.825-.517-3.294-1.68-4-1.152-.703-1.258-1.484-1.248-2.302.174-1.796.381-3.575 2.29-4.58 1.093-.401 1.72-4.158.788-7.06-.811-1.36-2.672-2.508-4.054-1.652-1.426.941-1.819 2.324-2.252 4.655-.64 3.593.272 6.077.976 8.709l4.505 9.46c2.561 4.388 3.35 7.591 4.354 11.261.395 2.909.287 6.652-2.478 8.859-.947 1.173-3.287 1-5.133.265-2.01-.926-5.506-5.817-5.724-6.301-.082-.181 1.691 2.492 1.345 3.646-.063 1.148-4.954 4.137-5.416 6.06-.333 1.382 1.176 2.945 5.393 4.592 5.556 1.493 10.708 5.365 12.387 8.748-.54.875-1.762 1.145-2.866 1.144-.58.046-4.505-1.555-4.305-1.454.726.367 1.397.3 2.724 1.197.502.34.871 1.196 1.174 1.687.453 1.229 3.03 3.665 1.188 3.821-2.142.003-2.433-.939-4.229-1.852-.198-.101 2.105 1.2 2.272 1.553 1.48 3.132-.373 9.547.278 9.913 2.274.624 3.293 1.729 3.613 3.32.822 2.772-.628 7.697-1.632 7.998-.45.135.451-2.668-1.146-3.493-3.103-1.201-4.286-6.176-5.931-2.553l-1.502 4.73c-.465 1.68-2.631 1.079-4.047 1.618-1.555.592-1.492 2.61-2.17 2.719-1.388.404-.947-1.157-.976-2.854-.024-1.341.859-2.571-.008-2.578-1.605.079-3.24-.235-4.633-.067-2.396.554-3.885 1.893-3.723 1.279.173-.653 1.454-3.742 4.114-4.294.849-.176 1.268-1.498 2.25-1.785.205-.208-2.259.274-2.592-.545-.895-2.2-3.081-3.227-4.553-3.566-.804-.546 5.404-2.062 7.98-1.817 2.196.209 3.171 1.586 6.155 1.954 1.727-.526 3.381-2.502 3.931-4.554.063-1.981-.25-3.979-1.175-5.631-1.538-2.51-3.231-4.787-5.05-6.872-3.17-4.204-1.363-1.488-1.461 1.267-2.39 7.12-3.19-2.324-3.422-.176l-.751 2.402c-3.817 6.158-1.587-3.391-3.03-6.797-1.553-3.541-4.955-8.557-5.167-10.112-.672-1.464-.577-2.861.406-4.695-2.086-1.408-4.717-2.682-7.601-2.496-1.51.019-3.165.443-4.054 1.126-1.565.732-1.903 2.077-1.877 3.604-.036 1.101.991 2.202 2.177 3.303l5.931 6.757c2.167 2.84 2.707 4.633 3.078 6.757.08 1.471.61 3.474-1.126 1.802-1.146-.506-3.914-3.443-2.928-.751 2.178 3.677.736 2.864-1.502 1.877-2.34-.108-2.282-.308-4.805.976-1.385.891-3.562.902-2.424 1.987 1.961 1.191 4.149 2.189 3.873 4.752-.179.472-.969.332-1.239.824-.296.538-.085 1.708-.585 2.197-.903 1.521-2.931 1.947-3.249 1.139-.245-.622 2.224-2.396.938-3.313-.677-.483-2.048-1.077-2.083-2.123-.051-1.513-.39-2.819-.867-3.03-.574-.249-1.43.184-2.02 1.091l-3.617 3.611c-.902.807-2.446.714-3.741.818-2.54.209-3.98.087 1.295-4.739.798-.799-1.314-.733-1.781-1.289-.352-.419-.529-1.081-1.315-1.105-1.653-.308-2.953 1.431-3.204.963-.521-.969.648-3.663 3.955-3.441.988-.454-.67-1.483-1.113-3.418-.218-.951-1.982-1.04-1.965-1.612-.084-.631 1.345-.536 3.541-.104.986.194 2.379.037 3.366.405 1.768.695 2.843 4.237 5.706 4.73 1.823.162 2.87-1.326 3.904-2.402 1.994-1.764 1.986-3.75 2.252-5.706-.114-2.072-2.545-3.812-3.904-5.706-1.837-1.798-1.371-4.347-1.711-5.414-.121-.382-1.885 1.719-2.944 2.561-1.313 1.029-2.037 1.012-3.529.526-1.901-.892-2.978-1.85-2.765-2.315.298-.649 2.966-.277 3.741-1.438 1.104-.783.612-1.185.296-1.331-.808-.373-4.152.901-5.357-1.05-3.979-2.556.844-1.062 2.102-2.853 2.47-3.053 4.421-7.404 6.863-9.181 1.09-1.016 2.973-1.85 4.655-1.577 1.626.011 8.738 4.468 10.886 4.279 2.53.137 4.108-.567 4.885-1.241 1.945-1.023-8.01-12.923-8.564-14.07-2.835-.936-4.196-3.347-4.182-6.362.005-1.031-.913-.931-1.299-1.972-.292-1.783-.839-.732-1.727 1.652-1.731 3.785-2.545 4.513-1.877.3-.104-2.786-5.612-4.575-5.105-2.252.003 2.238 1.018 3.257 1.201 4.805-.052 3.01-.885 4.261-1.703 5.31-.766.482.16-1.96-.619-2.567-1.245-.97-1.259-2.345-1.049-4.35.159-1.514-1.061-2.398-1.36-1.171-.472.781-.476 2.325-1.644 3.464-.947.923-1.802.797-2.203 1.742-1.495 3.523-1.328 4.915-2.91.876-.021-1.788-1.07-3.552.45-4.955l3.078-2.628c1.735-1.327.684-1.903-.957-1.442-1.406.395-2.927 2.242-3.737 1.906-4.326-1.335-1.607-4.923 4.02-4.668 1.321-.647-4.145-4.121-3.118-7.265.312-.956-.97-1.19-1.162-2.195-.008-1.218 4.01-.826 5.931 2.402 1.328 1.676 1.126 4.088 1.666 5.949-.202 2.27 1.724-1.667 3.566-2.39 1.335-.632 3-.851 4.902-.777 2.943.087 2.766-4.655 1.878-6.01-1.849-2.579-2.6-4.186.128-6.213.522-.421 1.448-.86 1.657-1.282.802-1.614-.055-2.058-.681-1.751l-1.426.418c-3.271 2.159 2.69-7.982.848-6.488l-2.027 1.773c-4.03 3.189-.866-.975 0-3.425.703-1.702.447-4.98-.601-3.829l-4.051 1.962c-6.69 3.107.516-2.44 3.03-6.05 1.621-1.216-2.74-1.159-4.289-2.242-1.847-1.413-1.423-2.944-3.02-3.801-3.932-1.239.129-2.376 2.219-1.897l3.701 2.505c2.244 1.494 2.945.372 2.113-.308-3.103-1.419-2.926-3.406-2.853-4.805-.125-.655-1.251-1.308-3.061-1.644-.501-.093.122-1.199 1.399-1.359 1.702-.075 3.03.209 4.73 1.802 1.952 2.782-.387 6.111 2.038 5.03.587-1.273.489-2.82-.526-5.03-2.222-1.82-4.999-5.277 3.404-.326 1.137.754 1.853 1.927 1.776 3.104-.131 1.931-2.287 4.164-2.327 5.631l.976 5.706c3.067 9.537 4.49 9.189 5.423 9.04 2.568-2.739 2.373-4.165 5.03-6.111z"/><path d="m43.705 90.08c.21 1.768-.842 3.127-.119 4.357"/><path d="m53.91 82.992c-4.093 4.243-7.979 8.196-7.432 12.536"/><path d="m49.49 101.3c.332-.34 1.451-.651 1.832-2.272.387-1.645.73-3.751 1.294-4.831 1.084-2.076.817-4.534 1.334-3.567.284.407.18 2.384.698 3.327 1.203 2.191 3.124 3.426 2.168-.46-.381-1.611.023-4.14 1.88-5.587 1.42-1.375 1.41 6.747 3.529 6.821.594.121.627-.815.727-2.477.16-2.672 1.81-6.089 1.999-5.66-.174 2.875-.344 4.849.132 7.129" fill-opacity="0"/><path d="m56.39 65.42c-1.384.732-2.293 2.066-2.548 3.504-.126 1.411-.013 2.971-2.283 3.451-1.952.343-1.786.198-3.344 1.327-1.94 1.484-4.83 3.575-3.132 3.982.773-.142 2.107-.495 3.398-.637.467-.075.933-.125 1.327.956.035.627 3.499-2.031 4.141-3.61-1.889 3.778-9.24 5.482-11.245 10"/><path d="m44.39 71.787c3.01.031 6.803-4.226 6.689-5.84"/><path d="m32.5 153.54c1.533-.647 2.657-1.703 4.915-1.624"/><path d="m30.04 148.93c2.105-.325 4.267-.514 5.976.941"/><path d="m77.57 63.56c-1.722 1.816-.539 14.466-3.504 8.441-.642-.921-1.467-4.328-1.728-5.539-.31-1.436.151-1.135-.024.124.592 2.698.719 5.383.478 7.804-.26.961-1.01 1.859-2.355.353-.418-.469.109 2.604-.299 3.31-2.46 4.476-2.341-2.972-3.185-1.646-1.219 4.091-2.354 6.3-2.867 4.459-.413-3.411-1.543-5.03-1.54-2.495-.104 1.556.737 3.623 0 4.672-3.073 4.438-.945-3.802-2.92-4.353"/><path d="m62.6 59.47l5.999.265c2.402-.054 2.579-1.25 3.238-2.973"/><path d="m78.61 39.01c-.539.594-.182 1.455.476 2.147"/><path d="m83.91 41.3c.921.64 1.723.541 2.643.287"/><path d="m85.04 45.47c1.184.687 2.312.644 3.557.194"/></g><path d="m69.997 171.84c1.519-.14 2.623-4.54 5.43-5.251"/><path d="m76.61 67.01c.348 1.947.383 4.03 1.274 5.84" stroke-width=".8"/><path d="m113.57 118.15c-.607 1.904.644 3.731 3.113 4.61l4.115 1.464c2.469.879 4.5.255 5.03-1.411.624-1.96-.637-3.755-3.106-4.633l-4.115-1.464c-3.292-1.171-4.49-.288-5.04 1.435z" stroke-width="1.053"/><path d="m139.31 122.56c-.607-1.904.644-3.731 3.113-4.609l4.115-1.464c2.469-.879 4.5-.255 5.03 1.411.624 1.96-.637 3.755-3.106 4.633l-4.115 1.464c-3.292 1.171-4.49.288-5.04-1.435z" stroke-width="1.052"/><path d="m162.58 163.07c4.226-1.684 8.131-5.393 6.329-12.21-.6-1.914-1.341-3.772-3.939-4.889 3.904-3.709 7.62-5.19 4.592-12.443-2.895-7.61-11.183-8.125-15.712-4.656.189-2.228 1.015-4.285-1.292-5.944-1.489-1.034-3.05-.938-5.848.178-3.253 1.296-4.044 2.01-4.37 3.894-.546 2.804 1.481 3.716 3.15 5.204-5.637.602-11.336 6.67-8.375 14.1 2.961 7.432 6.677 5.951 12.06 6.073-1.116 2.483-.375 4.341.365 6.199 3.52 6.133 8.905 6.14 13.04 4.492z"/><path d="m102.76 163.4c4.232 1.67 9.617 1.645 12.977-4.555.874-1.805 1.608-3.665.482-6.26 5.385-.025 9.106 1.443 11.872-5.914 3.107-7.526-2.575-13.581-8.251-14.158 1.664-1.493 3.676-2.425 3.133-5.214-.375-1.774-1.578-2.773-4.381-3.879-3.257-1.285-4.323-1.307-5.852-.159-2.319 1.668-1.468 3.721-1.272 5.948-4.518-3.425-12.827-2.912-15.763 4.53-2.937 7.442.784 8.91 4.621 12.688-2.514 1.044-3.248 2.904-3.983 4.765-1.639 6.878 2.278 10.574 6.417 12.208z"/><path d="m117.52 116.31l6 2 9-22 9 22 6-2-12-28 8-18 17 7 10-25-23-9-15 36-15-36-23 9 11 25 16-7 8 18z"/></g><g fill="#007bc5"><path d="m101.62 56.58l1.954 4.603 4.603-1.954-1.954-4.603z"/><path d="m108.18 59.22l1.954 4.603 4.603-1.954-1.954-4.603z"/><path d="m152.94 138.69c-2.148-1.269-6.073-2.878-8.841-1.72-2.767 1.158-3.454 4.698-2.526 6.914 1 2.396 2.175 3.357 4.929 4.01 2.405.566 5.118-.019 7.229-.858-.837 5.771.557 14.28 7.28 11.05 6.964-2.915 2.03-9.522-2.668-12.976 1.845-.772 4.386-2.472 5.685-4.548 1.545-2.815 1.609-3.926.625-6.278-.946-2.26-3.949-4.256-6.717-3.097-3.69 1.544-4.376 5.084-4.996 7.512z"/><path d="m110.82 52.668l1.954 4.603 4.603-1.954-1.954-4.603z"/><path d="m112.12 138.84c-.641-2.411-2.311-6.311-5.096-7.426-2.785-1.115-5.757.927-6.65 3.157-.965 2.411-.804 3.919.705 6.311 1.318 2.09 3.663 3.576 5.755 4.458-4.643 3.527-9.617 10.57-2.557 12.98 7.01 2.806 8.125-5.364 7.198-11.121 1.857.743 4.86 1.313 7.242.745 3.075-.923 3.9-1.67 4.848-4.04.911-2.275.169-5.803-2.616-6.918-3.713-1.487-6.685.555-8.829 1.851z"/><path d="m105.53 65.781l1.954 4.603 4.603-1.954-1.954-4.603z"/><path d="m114.73 61.873l1.954 4.603 4.603-1.954-1.954-4.603z"/><path d="m149.63 50.862l-1.829 4.653 4.653 1.829 1.829-4.653z"/><path d="m152.45 57.34l-1.829 4.653 4.653 1.829 1.829-4.653z"/><path d="m158.94 54.52l-1.829 4.653 4.653 1.829 1.829-4.653z"/><path d="m145.97 60.17l-1.829 4.653 4.653 1.829 1.829-4.653z"/><path d="m155.28 63.827l-1.829 4.653 4.653 1.829 1.829-4.653z"/></g><path d="m66.6 167.55c1.742-1.271 3.807-1.152 5.932-1.466" fill="#f7c500" stroke-width=".8"/></g><g fill="none" stroke="#ffffe8"><path d="m88.75 8.516c2.24-.075 4.053-.067 5.863 0"/><path d="m89.16 10.144c2.527-.019 2.666.0001 5.863 0"/></g><g stroke="#fff"><path d="m90.69 8.814c-.008.023-.206 1.389-.206 1.389l2.981.017-.091-1.534z" fill="#fff" stroke-width=".84"/><g fill="none"><path d="m89.18 212.69c.913 1.264 1.781 2.484 2.651 3.705 1.084-1.325 1.957-3.075 3.491-4.677"/><path d="m89.29 214.54c.913 1.264 1.781 2.484 2.651 3.705 1.084-1.325 1.957-3.075 3.491-4.677"/><path d="m89.29 213.86c.913 1.264 1.781 2.484 2.651 3.705 1.084-1.325 1.957-3.075 3.491-4.677"/></g></g><g stroke="#000"><path d="m7.951 29.404c27.661-11.721 55.996-18.559 84.35-18.779 30.07.452 57.58 8.101 83.7 18.375l-.147 38.708c-7.653 3.069-13.08 13.03-13.27 24.526.841 11.354 5.658 21.05 13.493 24.302-.099 10.865.676 23.854-1.32 35.739-1.744 10.385-6.58 19.953-17.234 27.01-13.569 9.323-33.36 14.467-45.806 20.837-8.716 3.873-15.716 8.873-19.883 15.05-3.833-6.175-10.833-11.175-19.531-14.868-15.297-7.493-29.829-10.512-44.18-19.947-6.383-3.891-13.583-10.704-16.816-19.272-4.715-12.494-3.647-28.532-3.467-44.773 7.668-3.76 11.951-10.53 13.264-23.355-.274-8.401-1.658-18.811-13.256-25.414z" fill="none"/><g stroke-width=".8"><path d="m58.778 127.79c3.544-2.025 3.565-10.715.319-13.378" fill="#f7c500" fill-opacity="0"/><path d="m68.07 39.786c.432 2.078 1.127 2.938 1.949 4.096.788.985 2.645 3.266 4.84 3.803.773.189-.015-1.725-.609-3.324-1.442-4.126-3.796-2.159-5.03-2.216-.463 0-.975-1.233-1.149-2.359z" fill="#fff"/></g><path d="m72.57 42.28c-.495-.249-.744.246-.993.741-.249.495-.498.991-.003 1.24.495.249.744-.246.993-.741.249-.495.498-.991.003-1.24z" stroke-width=".554"/></g></svg>