<svg xmlns="http://www.w3.org/2000/svg" width="300" height="359.94" viewBox="0 0 84.666667 101.58304" fill-rule="evenodd"><g transform="matrix(1.23077 0 0 1.23077-86.9-131.53)" fill-rule="nonzero"><path d="m139.4 106.87v41.519c.0001 18.755-16.614 35.513-34.395 41.02-17.782-5.504-34.396-22.262-34.396-41.02v-41.519h68.791"/><path d="m139.04 107.22v41.17.002.168c-.03 5.542-1.555 10.972-4.09 15.877-5.964 11.536-17.671 20.768-29.953 24.601-12.282-3.833-23.989-13.06-29.953-24.601-2.535-4.905-4.06-10.335-4.09-15.877v-.168-.002-41.17h68.09" fill="#1e85c7"/><path d="m139.04 140.16h-13.406v8.191h-13.759v-8.191h-13.758v8.191h-13.759v-8.191h-13.406v8.226.002.168c.03 5.542 1.555 10.972 4.09 15.877 5.964 11.536 17.671 20.768 29.953 24.601 12.282-3.833 23.989-13.06 29.953-24.601 2.536-4.905 4.06-10.335 4.09-15.877v-.168-.002-8.226" fill="#df242e"/><path d="m104.44 133.34c-.19-.065-.383-.159-.578-.277-1.096-.771-1.394-2.247-1.634-3.475-.284-1.453-.612-2.678-2.137-3.231.536-.323 1.123-.474 1.754-.448-.255-1.269-.8-2.423-1.639-3.413-1.01-1.19-2.374-2.079-3.886-2.492.729-.66 1.669-1.027 2.663-.975.849.045 1.574.381 2.276.833-.182-.672-.287-1.322-.299-2.02-.014-.73-.139-1.401-.508-2.039 1.128-.029 2.01.35 2.846 1.097.223-1.187.85-2.138 1.705-2.972.855.833 1.482 1.785 1.705 2.972.833-.747 1.718-1.125 2.846-1.097-.369.638-.495 1.308-.508 2.039-.013.695-.118 1.345-.299 2.02.702-.452 1.427-.788 2.276-.833.994-.052 1.934.315 2.663.975-1.513.413-2.878 1.302-3.886 2.492-.839.99-1.385 2.144-1.639 3.413.631-.026 1.218.125 1.754.448-1.526.553-1.853 1.778-2.137 3.231-.24 1.228-.539 2.704-1.634 3.475-.195.117-.388.212-.578.277-.375.127-.746.127-1.121 0"/><path d="m105.98 132.85c1.025-.718 1.307-2.172 1.53-3.314.259-1.322.498-2.545 1.777-3.193-1.369-.47-2.584.062-3.369 1.27-.021-1.104.069-2.239-.922-3.281-.991 1.042-.901 2.177-.922 3.281-.785-1.208-2-1.741-3.369-1.27 1.28.648 1.519 1.87 1.777 3.193.223 1.142.505 2.595 1.53 3.314.58.406 1.385.406 1.965 0m-.983-13.499c.402-.799.857-1.56 1.47-2.214-.077-.504-.194-.957-.426-1.416-.267-.528-.635-1.01-1.044-1.422-.409.412-.778.894-1.044 1.422-.232.459-.349.912-.426 1.416.613.654 1.068 1.415 1.47 2.214m0 4.613c.39.366.677.77.867 1.215.244.571.293 1.154.29 1.766.488-.529 1.03-.875 1.716-1 .315-1.341.792-2.491 1.682-3.568.942-1.14 2.191-2.03 3.576-2.486-1.712-1.15-3.43-.469-4.739.473.203-.862.383-1.696.388-2.53.003-.598.066-1.158.339-1.759-2.138.136-3.334 2.203-4.118 3.895-.784-1.692-1.979-3.759-4.118-3.895.273.601.335 1.161.339 1.759.005.834.185 1.668.388 2.53-1.31-.942-3.03-1.624-4.739-.473 1.384.456 2.634 1.346 3.576 2.486.89 1.078 1.367 2.228 1.682 3.568.686.126 1.228.471 1.716 1-.003-.611.046-1.195.29-1.766.19-.445.477-.85.867-1.215" fill="#fff"/><path d="m115.93 166.95h6.03.088c.579-.0001.806-.707.405-1.084l-.066-.062-2.16-2.027 2.169-2.035.057-.054c.399-.373.18-1.083-.406-1.083h-.088-6.03l-2.227 2.091h-20.598l.705-2-6.085 3.087 6.085 3.086-.705-2h20.598l2.227 2.091"/><path d="m122.37 166.18c-.022-.046-.055-.088-.097-.127l-2.432-2.281 2.431-2.281c.042-.039.076-.082.098-.127.108-.224-.069-.501-.323-.501h-.18l-1.976 1.855h-.853l1.975-1.855h-1.249l-1.976 1.855h-.854l1.976-1.855h-1.249l-1.975 1.855h-.853l1.975-1.855h-.775l-2.228 2.091h-21.08l.611-1.736-5.03 2.554 5.03 2.553-.611-1.735h21.08l2.228 2.091h.775l-1.975-1.855h.853l1.975 1.855h1.249l-1.976-1.855h.854l1.976 1.855h1.249l-1.975-1.855h.853l1.976 1.855h.18.0001c.254 0 .43-.276.322-.5" fill="#fff"/></g></svg>