<svg xmlns="http://www.w3.org/2000/svg" xmlns:xlink="http://www.w3.org/1999/xlink" width="300" height="402" viewBox="0 0 84.666693 113.45331" fill-rule="evenodd"><defs><linearGradient xlink:href="#0" id="7" gradientUnits="userSpaceOnUse" x1="49.18" y1="90.9" x2="58.72" y2="89.62"/><linearGradient xlink:href="#0" id="B" gradientUnits="userSpaceOnUse" x1="18.509" y1="88.88" x2="27.429" y2="91.8"/><linearGradient xlink:href="#0" id="8" gradientUnits="userSpaceOnUse" x1="56.68" y1="90.69" x2="67.21" y2="87.94"/><linearGradient xlink:href="#0" id="A" gradientUnits="userSpaceOnUse" x1="26.653" y1="88.36" x2="34.94" y2="90.03"/><linearGradient xlink:href="#0" id="9" gradientUnits="userSpaceOnUse" x1="34.1" y1="90.91" x2="42.752" y2="91.66"/><linearGradient xlink:href="#0" id="6" gradientUnits="userSpaceOnUse" x1="42.1" y1="87.84" x2="50.1" y2="87.64"/><linearGradient id="0"><stop stop-color="#b2b2b2"/><stop offset=".1" stop-color="#e6e6e6"/><stop offset=".314" stop-color="#fff"/><stop offset=".561" stop-color="#ccc"/><stop offset=".693" stop-color="#b2b2b2"/><stop offset=".836" stop-color="#b2b2b2"/><stop offset="1" stop-color="#ccc"/></linearGradient><linearGradient id="5" gradientUnits="userSpaceOnUse" gradientTransform="matrix(1.62911 0 0 1.60634-128.42-181.88)" x1="93.13" x2="116.49"><stop stop-color="#fff"/><stop offset=".49" stop-color="#ccc"/><stop offset="1" stop-color="#fff"/></linearGradient><linearGradient id="1" gradientUnits="userSpaceOnUse" y1="173.04" x2="0" y2="170.31"><stop stop-color="#ccc"/><stop offset="1" stop-color="#fff"/></linearGradient><linearGradient xlink:href="#1" id="3" gradientUnits="userSpaceOnUse" y1="173.04" x2="0" y2="170.31"/><linearGradient xlink:href="#1" id="4" gradientUnits="userSpaceOnUse" y1="173.07" x2="0" y2="170.38"/><linearGradient id="2" gradientUnits="userSpaceOnUse" x1="78.74" x2="131.1" gradientTransform="matrix(1.60618 0 0 1.60634-126.18-181.88)"><stop stop-color="#ffcf00"/><stop offset=".49" stop-color="#ff0"/><stop offset="1" stop-color="#ffcf00"/></linearGradient></defs><path d="m62.58 54.48c.828 0 1.5.672 1.5 1.5v1.5c0 .828-.672 1.5-1.5 1.5h-1.5v-4.5h1.5m0 6c1.657 0 3-1.343 3-3v-1.5c0-1.657-1.343-3-3-3h-3v7.5h3m-6-7.5h1.5v7.5h-1.5v-7.5m-3 0h1.5v7.5h-1.5l-3-4.709v4.709h-1.5v-7.5h1.5l3 4.709v-4.709m-22.5 0h4.5v1.5h-3v1.5h3v1.5h-3v1.5h3v1.5h-4.5v-7.5m-6 0h1.5v6h3v1.5h-4.5v-7.5m15.75 6h1.5c1.242 0 2.25-1.01 2.25-2.25 0-1.242-1.026-2.246-2.25-2.25h-1.5v1.5h1.5c.414 0 .75.336.75.75 0 .414-.336.75-.75.75h-1.5v1.5m1.5-7.5c2.899 0 5.25 2.351 5.25 5.25 0 2.899-2.351 5.25-5.25 5.25-2.899 0-5.25-2.351-5.25-5.25 0-2.899 2.351-5.25 5.25-5.25m0 1.5c2.071 0 3.75 1.679 3.75 3.75 0 2.071-1.679 3.75-3.75 3.75-2.071 0-3.75-1.679-3.75-3.75 0-2.071 1.679-3.75 3.75-3.75" fill="#a90000"/><path d="m.283 53.16v18.487c3.504 22.955 19.08 33.33 42.05 41.521 22.974-8.191 38.546-18.566 42.05-41.521v-18.487h-84.1" fill="#2aa5e0"/><path transform="matrix(1.60618 0 0 1.60634-126.18-181.88)" fill="#ed2124" d="m78.74 146.31v.001h52.36v-.1-32.82h-52.36z"/><g fill="none" stroke="#000"><path stroke-width=".402" d="m84.38 53.16h-84.1"/><path d="m.283.283v71.37c3.504 22.955 19.08 33.33 42.05 41.521 22.974-8.191 38.546-18.566 42.05-41.521v-71.37h-84.1z" stroke-width=".567"/></g><path d="m84.38 43.02h-5.178v-.052c0-3.903-3.165-7.07-7.07-7.07-3.903 0-7.07 3.165-7.07 7.07v.052h-7.094c-1.323-7.44-7.826-13.09-15.645-13.09-7.819 0-14.32 5.651-15.644 13.09h-7.094v-.052c0-3.903-3.165-7.07-7.07-7.07-3.902 0-7.07 3.165-7.07 7.07v.052h-5.179v-19.957c12.05-8 26.505-12.667 42.05-12.667 15.545 0 30 4.665 42.05 12.668v19.957m-4.364-14.429c-2.526-1.461-5.155-2.78-7.874-3.945v-5.03c2.716 1.213 5.345 2.586 7.874 4.108v4.867m-12.238-5.653c-3.02-1.074-6.143-1.963-9.344-2.651v-5.221c3.199.718 6.318 1.646 9.344 2.769v5.103m-13.707-3.455c-3.123-.482-6.314-.775-9.559-.866v-5.297c3.244.095 6.434.401 9.559.905v5.258m-13.922-.866c-3.244.091-6.435.383-9.557.865v-5.257c3.124-.504 6.314-.81 9.557-.905v5.297m-13.921 1.67c-3.201.688-6.321 1.577-9.344 2.651v-5.104c3.03-1.122 6.145-2.051 9.344-2.769v5.222m-13.708 4.359c-2.72 1.165-5.349 2.484-7.875 3.945v-4.867c2.53-1.522 5.159-2.896 7.875-4.109v5.03m46.762 3.266c0-.621.503-1.124 1.124-1.124.621 0 1.124.504 1.124 1.124v6.907h-2.249v-6.907m-33.901 0v6.907h-2.249v-6.907c0-.621.504-1.124 1.124-1.124.621 0 1.124.504 1.124 1.124" fill="url(#2)"/><g fill="none" stroke-width=".402"><path d="m40.656 27.596h-15.317m-2.159 0h-9.515m57.34 0h-9.516m-2.159 0h-15.318m40.37 15.423h-5.178v-.052c0-3.903-3.165-7.07-7.07-7.07-3.903 0-7.07 3.165-7.07 7.07v.052h-7.094c-1.323-7.44-7.826-13.09-15.645-13.09-7.819 0-14.32 5.651-15.644 13.09h-7.094v-.052c0-3.903-3.165-7.07-7.07-7.07-3.902 0-7.07 3.165-7.07 7.07v.052h-5.179v-19.957c12.05-8 26.505-12.667 42.05-12.667 15.545 0 30 4.665 42.05 12.668v19.957zm-84.1-16.456c11.902-8.363 26.402-13.277 42.05-13.277 15.648 0 30.15 4.914 42.05 13.277m-2.769 16.456v-.052c0-5.233-4.244-9.477-9.476-9.477-5.233 0-9.476 4.244-9.476 9.477v.052m-38.43 0c1.337-8.796 8.933-15.538 18.1-15.538 9.168 0 16.765 6.742 18.1 15.538m-57.38 0v-.052c0-5.233 4.244-9.477 9.476-9.477 5.233 0 9.477 4.244 9.477 9.477v.052m55.3-8l-1.312 2.02m-9.01-2.02l1.312 2.02m-11.332-2.267l-1.924 1.45m-4.528-6.819l-1.075 2.157m-7.096-4.079v2.409m-8.171-.487l1.075 2.156m-7.527 3.213l1.924 1.45m-22.267-1.205l1.312 2.02m9.01-2.02l-1.312 2.02m59.34-10.744l-1.537 2.773m-11.427-7.714l-.94 3m-12.614-5.461l-.316 3.114m-13.424-3.114l.316 3.114m-13.871-.654l.94 3m-13.904 1.94l1.537 2.773m-10.199 6.163v-3.903c11.839-8.02 26.359-12.743 42.05-12.743 15.691 0 30.21 4.725 42.05 12.743v3.903c-11.63-8.472-26.22-13.518-42.05-13.518-15.835 0-30.419 5.05-42.05 13.518zm71.855-7.136v5.394m-59.61-5.394v5.394m40.12-11.05v5.157m-20.639-5.158v5.158m51.798 7.221h-6.834m-9.678 0h-10.343m-29.25 0h-10.343m-9.678 0h-6.836m79.17-6.225v-4.872m-12.238-5.888v5.108m4.364 1.704v-5.03m-18.07-5.387v5.259m4.364.801v-5.221m-13.922-1.747v5.298m-4.364 0v-5.298m-9.557.906v5.259m-4.364.801v-5.221m-9.344 2.766v5.109m-4.364 1.704v-5.03m-7.875 4.107v4.872m20.736-.682v6.907h-2.249v-6.907c0-.621.504-1.124 1.124-1.124.621 0 1.124.504 1.124 1.124zm33.901 0v6.907h2.249v-6.907c0-.621-.504-1.124-1.124-1.124-.621 0-1.124.504-1.124 1.124z" stroke="#000"/><path d="m25.383 27.911v6.907h-2.249v-6.907c0-.621.504-1.124 1.124-1.124.621 0 1.124.504 1.124 1.124zm33.901 0v6.907h2.249v-6.907c0-.621-.504-1.124-1.124-1.124-.621 0-1.124.504-1.124 1.124z" stroke="#1f1a17"/></g><path d="m26.13 93.04l7.453-32.634c-.103-1.11-1.038-1.98-2.175-1.98-.967 0-1.787.629-2.075 1.5l-11.138 32.701 7.935.413" fill="url(#B)"/><path d="m37.965 60.61c0-1.207-1.068-2.185-2.185-2.185-1.117 0-1.904.708-2.123 1.666l-7.526 32.949 8.105.423 3.728-32.853" fill="url(#A)"/><path d="m42.33 93.89v-33.28c0-1.207-1.039-2.185-2.185-2.185-1.146 0-2.038.785-2.156 1.828l-3.757 33.21 8.097.423" fill="url(#9)"/><path d="m58.54 93.04l-7.453-32.634c.103-1.11 1.038-1.98 2.175-1.98.967 0 1.787.629 2.075 1.5l11.138 32.701-7.935.413" fill="url(#8)"/><path d="m46.703 60.61c0-1.207 1.068-2.185 2.185-2.185 1.117 0 1.904.708 2.123 1.666l7.526 32.949-8.105.423-3.728-32.853" fill="url(#7)"/><path d="m42.33 93.89v-33.28c0-1.207 1.039-2.185 2.185-2.185 1.146 0 2.038.785 2.156 1.828l3.757 33.21-8.097.423" fill="url(#6)"/><g transform="matrix(1.60618 0 0 1.60634-126.01-181.88)" stroke="#000" stroke-width=".25"><g fill="url(#3)"><circle r="2.526" cy="171.67" cx="92.18"/><circle r="2.526" cy="171.67" cx="117.44"/><circle r="2.526" cy="171.67" cx="107.34"/><circle r="2.526" cy="171.67" cx="102.29"/></g><circle r="2.526" cy="171.67" cx="97.24" fill="url(#4)"/><circle r="2.526" cy="171.67" cx="112.39" fill="url(#3)"/></g><g stroke="#000"><path d="m18.2 92.63l11.138-32.701c.288-.871 1.107-1.5 2.075-1.5 1.137 0 2.072.87 2.175 1.98m8.75.205v33.28m-4.369-33.28c0-1.207-1.068-2.185-2.185-2.185-1.117 0-1.904.708-2.123 1.666l-7.526 32.949m16.203-32.43c0-1.207-1.039-2.185-2.185-2.185-1.146 0-2.038.785-2.156 1.828l-3.757 33.21m32.24-.836l-11.138-32.701c-.288-.871-1.107-1.5-2.075-1.5-1.137 0-2.072.87-2.175 1.98m-4.381.205c0-1.207 1.068-2.185 2.185-2.185 1.117 0 1.904.708 2.123 1.666l7.526 32.949m-16.203-32.43c0-1.207 1.039-2.185 2.185-2.185 1.146 0 2.038.785 2.156 1.828l3.757 33.21" fill="none" stroke-width=".402"/><path d="m20.837 83.988h42.993l.628 1.818h-44.25l.628-1.818zm7.417-21.471h28.16l.554 1.603h-29.27l.554-1.603z" fill="url(#5)" stroke-width=".404"/></g></svg>