<svg xmlns="http://www.w3.org/2000/svg" viewBox="0 0 350 419"><path d="m443.8 518.21c2.935 0 5.315 2.38 5.315 5.315v5.314c0 2.935-2.38 5.315-5.315 5.315h-5.315v-15.944zm0 21.259c5.87 0 10.63-4.76 10.63-10.63v-5.314c0-5.87-4.76-10.63-10.63-10.63h-10.63v26.574zm-21.26-26.574h5.315v26.574h-5.315zm-10.63 0h5.315v26.574h-5.315l-10.63-16.684v16.684h-5.315v-26.574h5.315l10.63 16.684zm-79.72 0h15.945v5.315h-10.63v5.315h10.63v5.315h-10.63v5.315h10.63v5.315h-15.945zm-21.26-.0001h5.315v21.26h10.63v5.315h-15.945zm55.808 21.26h5.314c4.402 0 7.972-3.57 7.972-7.972 0-4.402-3.636-7.957-7.972-7.972h-5.314v5.315h5.314c1.467 0 2.657 1.19 2.657 2.657 0 1.467-1.19 2.657-2.657 2.657h-5.314zm5.314-26.575c10.272 0 18.602 8.33 18.602 18.602 0 10.272-8.33 18.602-18.602 18.602-10.272 0-18.602-8.33-18.602-18.602 0-10.272 8.33-18.602 18.602-18.602m-13.287 18.602c0 7.337 5.95 13.287 13.287 13.287 7.337 0 13.287-5.95 13.287-13.287 0-7.337-5.95-13.287-13.287-13.287-7.337 0-13.287 5.95-13.287 13.287" fill="#a90000" transform="translate(-197.05-316.68)"/><g transform="matrix(.79856 0 0 .79818-62.68-132.1)"><path d="m297.64 165.5c76.38 0 145.56 13.196 195.68 34.522 8.244 3.509 15.977 7.244 23.15 11.178v107.35c-16.312 12.538-26.83 32.24-26.83 54.4 0 22.16 10.518 41.863 26.83 54.4 0 44.47 4.391 91.36-19.381 131.53-23.997 40.549-69.945 60.4-111.33 78.27-31.557 13.63-65.05 26.568-88.11 53.29-23.06-26.721-56.55-39.659-88.11-53.29-41.39-17.877-87.34-37.724-111.33-78.27-23.772-40.17-19.381-87.06-19.381-131.53 16.313-12.538 26.831-32.24 26.831-54.4 0-22.16-10.518-41.866-26.831-54.4v-107.35c7.171-3.934 14.904-7.669 23.15-11.178 50.11-21.326 119.3-34.522 195.68-34.522"/><path d="m297.63 168.89c-70.77.002-151.64 10.02-215.42 44.33v103.69c16.904 13.637 26.816 34.25 26.817 56.04 0 21.74-10.03 42.503-26.82 56.04-.139 43.19-4.131 89.23 18.905 128.16 23.658 39.976 69.05 59.3 109.75 76.876 30.866 13.33 63.37 25.966 86.76 51.32 23.396-25.351 55.896-37.987 86.76-51.32 40.698-17.578 86.09-36.9 109.75-76.876 23.04-38.924 19.04-84.971 18.904-128.16-16.79-13.54-26.819-34.3-26.819-56.04.0001-21.791 9.912-42.41 26.817-56.04v-103.69c-63.78-34.31-144.65-44.32-215.42-44.33" fill="#df1f2c"/><path d="m145.02 601.06c20.549 13.479 43.884 23.478 65.853 32.967 30.866 13.33 63.37 25.966 86.76 51.32 23.396-25.351 55.896-37.987 86.76-51.32 21.969-9.489 45.3-19.488 65.852-32.967-36.07-20.924-91.04-34.3-152.62-34.3-61.58 0-116.55 13.372-152.62 34.3" fill="#419f46"/><g><path d="m271.58 317.3l-32.642 30.486c-11.228-.004-22.08 1.138-32.977 4.498.462-4.511.984-9.01 1.966-13.44-5.106 5.077-10.729 9.304-17.09 12.728l-3.146-5.617c-9.424 7.116-18.691 14.527-27.09 22.85l-.412.408c-2.949-.205-4.943-1.513-6.598-3.863-5.338 2.772-11.09 3.926-16.978 4.87 5.493-9.472 9.663-19.282 13.324-29.59 5.718-16.1 12.295-30.12 19.733-42.06 11.896-19.1 26.607-32.08 44.626-44.738 6.575-4.619 13.195-8.668 19.977-11.731 12.01-5.423 28.789-.533 29.382 14.342.183 4.574-1.401 9.717-5.367 14.932-2.144 2.817-5.784 5.188-5.03 9.251.735 3.976 4.745 6.314 8.05 8.02 3.054 1.581 6.109 2.594 9.151 3.056l1.12 25.593m68.54-30.63c5.369-.775 10.986-1.107 15.846-3.748 13.271-7.212 3.393-21.861-2.663-30.36-3.079-4.321-4.315-8.738-4.03-12.618.939-12.766 14.916-13.926 24.443-9.847 4.895 2.096 9.81 4.946 14.608 8.092 19.641 12.877 35.821 28.13 47.968 48.578 9.775 16.455 17.968 36.722 24.5 61.52 2.842 10.792 4.949 21.623 8.872 32.14-5.03-.107-9.195-1.233-13.423-4.115.301 2.209.251 4.424.141 6.646-13.548-3.617-22.21-14.684-30.923-24.757l-.572 2.881c-10-5.628-16.757-13.855-25.26-21.927-1.743 4.078-3.03 8.434-3.923 12.911l-48.843-26.561-6.736-38.835"/><path d="m239.32 345.24l30.24-28.777-.554-22.422c-2.963-.564-5.923-1.601-8.869-3.126-4.08-2.112-8.472-4.911-9.381-9.826-.968-5.234 2.714-7.605 5.441-11.163 3.628-4.734 5.08-9.335 4.918-13.379-.52-13.06-15.468-16.783-25.794-12.12-6.621 2.99-13.11 6.959-19.559 11.492-17.526 12.309-32.464 25.598-43.929 44-7.341 11.783-13.838 25.638-19.493 41.559-3.073 8.651-6.444 17.255-10.845 25.33 3.78-.773 7.334-1.989 10.757-3.681-1.124-10.221 6.474-17.07 12.18-24.26 5.246-6.609 9.468-14.582 9.385-22.936l.508-.04c.063 8.682-2.779 17.11-7.69 24.07-4.925 6.99-12.692 12.905-11.885 22.512 1.099 1.761 2.319 3.693 4.5 4.091 9.07-8.924 19.08-16.765 29.24-24.395l3.338 5.961c3.872-2.191 7.336-4.825 10.579-7.71 4.093-8.881 10.583-16.853 16.861-24.24 5.782-6.802 12.26-13.01 13.856-22.06l.483-.036c-1.118 9.264-5.676 17.328-11.33 24.93-3.48 4.68-7.147 8.942-10.08 13.905-1.481 5.209-2.68 10.382-3.311 15.819 9.886-2.778 20.19-3.562 30.426-3.505m158.31-7.759c-7.191-7.63-10.658-20.302-19.09-26.26l1.596-.504c9.161 6.743 12.35 18.327 20.362 26.05 7.566 6.611 13.686 14.576 22.596 20.306l.246-1.239c-4.876-6.909-8.736-14.688-12.464-22.2-4.664-9.402-9.475-19.445-15.398-25.571l1.398-.357c6.194 5.84 11.527 15.218 16.282 24.802 3.828 7.715 7.65 16.271 13.217 22.906 7.587 9.05 16.625 20.28 27.577 24.2-.035-2.044-.382-4.01-.834-5.963-6.69-7.934-13.816-22.729-20.655-36.93-6.829-14.181-13.369-28.327-18.678-33.477l1.705-.201c5.63 5.472 12.342 18.2 19.265 32.571 6.7 13.912 13.678 28.401 20.09 36.12 2.512 3.02 7.266 5.39 11.11 5.959-3.345-9.403-5.083-19.13-7.614-28.747-6.469-24.563-14.572-44.617-24.23-60.876-11.951-20.12-27.851-35.07-47.17-47.741-4.697-3.08-9.487-5.859-14.209-7.882-7.82-3.348-20.1-3.223-20.906 7.684-.244 3.324.849 7.157 3.562 10.964 7.092 9.953 16.872 25.88 1.806 34.07-4.674 2.54-9.917 3.112-15.09 3.813l6.07 34.688 45.3 25.57c.997-4.106 2.37-8.07 4.165-11.746" fill="#2e5fcc"/><path d="m151.49 363.5c-.761-6.885 1.485-15.02 5.05-23.345 16.587-38.705 42.511-66.63 66.871-82.83 7.431-4.942 15.14-10.598 24.566-8.374 7.997 1.887 14.277 9 1.553 25.377-10.05 12.927-.397 21.64 13.81 25.319l4-5.968c-2.406-.603-4.809-1.521-7.202-2.76-4.08-2.112-8.472-4.911-9.381-9.826-.968-5.234 2.714-7.605 5.441-11.163 3.628-4.734 5.08-9.335 4.918-13.379-.52-13.06-15.468-16.783-25.794-12.12-6.621 2.99-13.11 6.959-19.559 11.492-17.526 12.309-32.464 25.598-43.929 44-7.341 11.783-13.838 25.638-19.493 41.559-3.073 8.651-6.444 17.255-10.845 25.33 3.499-.715 6.805-1.81 9.991-3.311m303.86-25.16c-21.652-41.34-47.37-77.07-80.11-96.56-9.04-5.384-22.901-4.083-11.258 16.288 12.65 22.13 5.229 33.954-14.611 35.21l-4.433-4.692c4.227-.592 8.421-1.354 12.237-3.428 15.07-8.187 5.286-24.11-1.806-34.07-2.713-3.807-3.806-7.64-3.562-10.964.802-10.907 13.09-11.03 20.906-7.684 4.722 2.023 9.512 4.802 14.209 7.882 19.319 12.666 35.22 27.624 47.17 47.741 8.23 13.854 15.331 30.464 21.254 50.27" fill="#fff"/><path d="m209.71 269.22c6.42-6.713 13.704-13.273 22.06-17.494 4.326-2.184 9.402-4.02 14.332-3.63 3.506.277 6.741 1.64 8.856 4.062 3.175 3.639 2.985 8.607 1.321 12.84-2.493 6.349-8.132 10.947-9.929 17.689-1.256 4.708.045 8.744 6.173 11.871-8.306-2.052-9.362-7.281-8.101-12.276 1.758-6.96 7.53-11.742 10.02-18.453 1.251-3.37 1.321-7.356-1.036-10.269-1.693-2.091-4.383-3.232-7.367-3.479-4.607-.381-9.396 1.408-13.426 3.45-8.676 4.397-15.463 9.998-23.67 17.999l.761-2.31m159.62 5.469c1.506-5.646-2.803-10.857-5.69-14.978-3.185-4.545-8.585-13.336-3.921-18.68 3.566-4.085 11.77-2.792 16.15-.099 24.718 15.18 43.39 37.549 58.769 61.899l-.207 1.078c-15.208-24.09-35.15-45.522-59.6-60.54-3.589-2.164-11.197-3.839-13.884-.08-3.223 4.51 1.612 11.352 4.106 14.972 3.128 4.54 7.561 10.129 5.33 17.13l-1.056-.701"/></g><g><path d="m346.94 336.55c-5.605 18.461-11.497 40.567-18.09 51.12l-.989 12.527c12.732 19.943 23.21 46.45 26.777 89.34 3.186 1.784 6.373 4.146 9.56 8.571-.003 5.329-.66 11.153-3.297 16.483 5.791 10.578 11.06 31.757 15.476 67.894.4 3.275.412 6.225 3.627 8.901 11.1 9.242 13.869 19.831 12.509 29.27-7.896 2.251-15.07-4.431-19.01-10.513-5.338-8.234-10.202-11.548-15.15-13.846.33-10.988-1.193-22.992-4.945-28.351-18.928-27.04-20.779-40.24-19.469-56.01l-1.978-5.605c-12.762-20.48-22.771-41.17-29.377-64.29l-2.967.659c-4.174 19.441-6.814 39.79-7.912 60.33l-2.681 8.04c4.994 7.587 8.688 20.249 3.285 44.674-2.644 11.951-2.071 24.342 1.996 35.27-.959.628-1.918 1.255-2.877 1.883-4.253 3.364-8.404 6.61-11.404 12.557-3.852 7.634-9.285 14.558-19.373 15.779-2.176-5.767-2.43-15.951-.732-20.308 1.697-4.356 6.261-6.979 9.762-9.517 9-6.526 7.258-15.844 4.3-25.1-3.818-11.954-15.09-37.37-11.926-50.678-3.42-2.113-5.902-5.535-8.01-8.953 1.554-5.483 5.116-10.873 8.259-14.04-8.923-40.454-4.28-69.4 8.924-92.93l1.221-10.444c-4.068-11.731-4.405-25.814-3.361-38.32-5.633 5.857-10.853 12.331-19.808 18.19l-5.536 5.411c-9.446 15.861-34.814 24.292-47.892 32.07l-16.455-3.02c14.584-15.735 26.966-38.781 47.577-46.584l5.379-3.839c6.964-10.378 16.09-21.09 25.22-30.75-1.793-21.23 4.568-33.05 28.26-38.28-.826-7.39 3.162-13.689 9.835-15.371 7.682-.968 15.363-.817 23.05 1.104 4.272 1.298 8.705 4.792 10.573 12.961 17.12-.306 28.02 10.708 26.817 31.878-.675 8.494-4.938 14.759-9.153 21.833"/><path d="m264.94 494.37c7.447 5.05 15.774 7.53 24.442 9.588-7.941 5.194-16.01 8.859-25.622 9.252l-6.875-7.563 8.06-11.277m.461 2.515l-6.158 8.622 5.299 5.83c7.227-.378 14.07-2.884 20.222-6.603-6.74-1.727-13.487-4.049-19.363-7.849m88.33-3.341l8.232 5.717-1.914 12.921c-7.524-4.752-15.14-4.722-23.7-4.113 5.13-6.146 10.251-10.81 17.382-14.525m-13.181 12.408c6.158-.279 12.573.195 18.08 3.216l1.34-9.05-6.378-4.43c-5.02 2.668-9.284 6.01-13.05 10.26m-50.856 18.206c1.752 6.425 2.203 14.05 1.617 22.454-.606 8.675-2.426 17.17-2.519 25.898-.063 5.869.566 11.616 2.01 17.31-5.615 3.839-9.761 9.08-13.183 14.892-3.71 6.304-8.672 9.822-15.247 12.686-1.855-7.781-.153-14.298 4.868-19.548 2.029-2.123 4.517-3.636 6.584-5.708 12.498-12.53 2.02-30.08-2.11-44.04-2.865-9.684-5.246-19.43-5.824-29.494l-.061-1.061c6.786.6 13.341-.192 19.55-3.415 1.719 3.326 3.324 6.384 4.316 10.02m-14.869 68.981c-2.039 2.044-4.503 3.549-6.509 5.632-4.283 4.446-6.281 10.04-4.945 16.645 5.611-2.528 9.87-6.05 13.03-11.418 3.322-5.644 7.393-10.976 12.79-14.785-1.385-5.669-1.869-11.224-1.81-16.714.094-8.751 1.905-17.255 2.517-25.947.581-8.264.146-15.75-1.565-22.02-.771-2.829-1.853-5.595-3.359-8.117-5.352 2.524-11.305 3.496-17.18 3.145.66 9.411 2.907 18.606 5.607 27.759 4.265 14.467 14.321 32.898 1.426 45.823m84.925-74.36c3.06 9.998 6.04 20.03 8.425 30.21 2.098 8.96 3.771 18.15 4.691 27.739.517 5.4.087 11.944 4.357 15.918 7.483 6.967 14.17 14.816 12.602 25.778-7.417-.518-10.941-5.403-14.903-10.953-3.852-5.398-7.663-10.147-13.588-13.444-.072-7.45-.86-14.949-3.305-22.03-2.741-7.937-8.645-15.02-12.606-22.515-5.925-11.2-9.788-23.24-8.08-36.27 8.225-1.017 15.798.264 22.406 5.567m-21.557-4.705c-1.465 12.329 2.761 24.22 8.581 35.01 4.11 7.617 9.735 14.195 12.59 22.461 1.988 5.758 3.248 12.748 3.372 21.654 6.324 3.633 10.02 8.813 13.338 13.458 3.649 5.112 6.816 9.548 12.527 10.249 1.047-9.681-5.789-17.12-12.342-23.22-4.654-4.332-4.244-11-4.802-16.822-.914-9.512-2.576-18.645-4.661-27.549-2.374-10.139-5.184-19.442-8.164-29.18-5.895-4.666-13.11-6.883-20.439-6.05m-1.792-171.82c-3 17.814-10.358 26.2-12 40.722l1.736-.638c1.389-9.216 10.947-18.87 10.265-40.08m-59.658 49.39l-.999 8.258c8.445 2.42 15.16 8.848 20.395 15.671 7.499-7.224 16.483-12.842 26.358-16.13l.682-8.322c-4.618 3.617-9.597 5.622-14.403 7.716-5.134 2.235-10 4.356-13.571 8.173-4.137-6.322-12.583-10.348-18.462-15.364m18.556 12.898c3.612-3.259 8.098-5.215 12.799-7.262 5.491-2.391 10.707-4.927 15.1-9.05l1.57-.211-.95 12.473c-10.639 3.469-19.87 9.131-27.84 16.983-5.652-7.547-12.432-14.07-21.786-16.531l1.503-12.434c5.852 6.243 13.951 9.667 19.604 16.03m.954 18.604c7.564-8.225 16.213-15.47 27.02-18.918 10.355 20 18.71 40.949 22.88 63.16-7.522 4.457-14.558 5.24-19.421-2.971-4.663-7.873-5.102-17.386-8.529-25.729-3.527-8.585-9.693-15.602-19.852-13.285-10.679 2.435-14.251 16.58-16.217 25.67l-.002.006c-1.667 7.764-1.19 15.797-4.341 23.328-2.801 6.698-9.834 7.66-13.273.995-1.86-23.883-.345-48.3 8.938-70.7 9.893 3.232 17.06 9.923 22.792 18.444m-21.745-16.15c-8.711 21.509-9.938 45.01-8.179 67.897 2.736 5.089 7.701 3.758 9.769-1.187 3.096-7.402 2.599-15.364 4.239-23l.002-.009v-.004c1.973-9.12 5.273-21.784 14.677-26.08-5.074-7.667-11.68-14.475-20.508-17.611m23.91 16.518c10.877-2.247 17.698 5.253 21.489 14.48 3.386 8.245 3.818 17.733 8.413 25.492 3.037 5.127 7.665 7.559 15.791 2.972-4.03-21.01-11.993-41.03-21.752-59.998-9.4 3.212-17.245 9.914-23.941 17.05m-.969-114.7c6.05 7.703 3.526 23.323 1.066 40.15-2.038 13.944-4.03 28.718-1.066 40.506-6.992-10.429-5.19-25.556-2.749-41.508 2.023-13.218 4.485-27 2.749-39.15m-20.459 74.952l-1.724-1.388c-6.662-18.1-3.363-31.788-1.621-50.15 2.362 18.951-1.047 27.477 3.345 51.54m-8.363-57.669c-1.979 6.175-2.43 12.939-1.89 19.371-3.646 6.157-8.926 11.253-14.13 16.09-7.496 3.153-16.638-.367-15.181-9.919 6.937-9.384 14.425-18.393 22.657-26.674-.263-3.289.051-6.26.737-9.493 1.732 4.233 3.532 8.331 7.806 10.621m-7.221-5.582c-.099 1.662.0001 3.329.145 4.985-8.277 8.286-15.8 17.292-22.773 26.694-1.087 8.02 6.544 10.853 13.05 8.166 4.933-4.58 9.644-9.411 13.12-15.223-.486-6.073-.135-12.187 1.649-18.04-2.365-1.218-3.987-3.933-5.187-6.582m-32.35 39.12c-3.743 7.413 6.152 12 15.07 8.895l1.541-1.544c-8.688 1.887-15.583-3.549-13.819-8.968l-2.793 1.617m-4.491 2.09c-.698 10.839 6.519 12.134 15.85 11.426l-.858 1.226-.008.014c-5.35 7.282-15.381 12.946-24.639 17.879-4.914 2.62-9.948 5.088-14.557 8.231l-12.637-1c10.113-14.676 22.322-27.422 36.849-37.773m-33.833 36.12l9.576.958c4.636-3.115 9.747-5.534 14.668-8.168 8.383-4.485 17.272-9.581 22.485-15.867-7.115.26-14.272-1.879-14.437-10.197-12.652 9.219-23.325 20.469-32.29 33.27m83.87-102.88c-7.01 2.66-10.992 8.362-11.563 14.853l2.648 1.503c-.147-6.808 4.03-12.849 8.915-16.356m64.35-6.411c8.499 1.338 11.457 6.846 11.41 16.13l-1.569-.188c.156-7.093-4.376-13.394-9.841-15.944m-35.841 18.436c9.689-5.288 22.642-15.469 19.808-28.331l1.37-.36c3.466 13.881-10.249 26.407-21.906 32.31-5.291-8.822-15.921-17.949-14.94-29.13.473-5.391 4.253-9.17 8.809-11.523-16.48 11.907-.513 26.03 6.859 37.03m15.02-22.735v2.253c-1.665 8.207-6.787 12.288-11.757 12.141-4.668-.139-9.203-4.01-10.611-11.695v-2.627c1.7 8.05 6.197 11.898 10.756 12.06 5.01.176 10.09-4.096 11.612-12.13" fill="#fff"/></g><path d="m201.01 403.14l-2.053 17.07-53.45-6.511 2.054-17.07 53.45 6.511"/><path d="m168.14 452.78c4.667 0 8.455 3.788 8.455 8.455 0 4.667-3.788 8.455-8.455 8.455-4.667 0-8.456-3.788-8.456-8.455 0-4.667 3.789-8.455 8.456-8.455"/><path d="m179.8 417.22c-.306 9.168-2.545 28.764-6.742 39.447l-7.547-1.208c-1.045-5.487 2.888-34.496 4.83-39.35l9.459 1.107"/><g fill="#fff"><path d="m176.93 414.57l20.04 3.981 1.563-14.05-20.762-.867 17.944 2.742-1.143 9.503-17.645-1.311m-27.13-16.06l-1.725 13.851 23.295 1.55-20.466-3.796 1.143-8.878 22.949 2.144-25.2-4.871m27.389 28.47c-.327 10.36-1.886 18.821-4.327 27.472-2.18-1.376-4.059-1.644-6.239-1.309v-1.308c1.141-.604 3.154-.638 4.226-.503l6.34-24.352"/><path d="m168.14 455.79c3.01 0 5.453 2.441 5.453 5.453 0 3.01-2.442 5.454-5.453 5.454-3.01 0-5.454-2.442-5.454-5.454 0-3.01 2.442-5.453 5.454-5.453m.136.522c2.319 0 4.201 1.881 4.201 4.2 0 2.319-1.882 4.201-4.201 4.201-2.319 0-4.2-1.882-4.2-4.201 0-2.319 1.881-4.2 4.2-4.2"/></g><path d="m194.78 221.84l13.587-18.403 7.44 21.534-30.02 177.18-9.773 3.969-8.496-5.809 27.26-178.47"/><path d="m210.63 222.03l-28.557 179.47 1.928-.783 29.752-175.59-5.285-15.295-7.698 50.984-2.274 1.669 8.03-53.21-9.85 13.341-27 176.75 5.872 4.01 4.082-25.886 1.969.305-4.03 25.52 2.338-.949 29.332-184.34 1.383 4" fill="#808080"/><g><g><path d="m316.49 596.64c-10.884-.0001-20.723-7.02-24.366-17.18-.229-.541-.251-1.146-.07-1.705.403-1.238 1.731-2.135 2.826-2.69 13.61-6.871 30.25-7.575 44.53-2.304 1.288.474 2.885 1.511 2.425 3.114-2.422 11.936-13.08 20.765-25.345 20.767"/><g fill="#808080"><path d="m338.81 576.98c.503-.277 1.716-.966 1.685-1.678-.028-.617-1.19-1.065-1.576-1.207-13.91-5.135-30.14-4.459-43.41 2.238-.777.394-2.233 1.183-2.168 2.258.062 1.016 1.632 1.617 2.401 1.872 13.979 4.628 30.09 3.653 43.06-3.483"/><path d="m316.49 595.23c10.674-.002 20.18-7.108 23.336-17.207-.112.067-.224.131-.331.191-13.312 7.321-29.845 8.336-44.19 3.587-.245-.081-.503-.178-.762-.289 4.067 8.282 12.629 13.717 21.945 13.718"/></g><path d="m336.61 575.85c-11.805 6.072-27.29 6.688-39.927 2.81-.77-.294-.73-.784-.067-1.117 11.803-6.072 27.29-6.687 39.926-2.81 1 .264 1.307.605.068 1.117"/></g><g><path d="m413.31 514.23c.04-1.382 1.417-2.208 2.55-2.662 7.588-3.036 15.947-4.424 24.25-4.061 7.775.338 15.504 2.219 22.484 5.68h.003l.08.041c1.415.703 3.16 1.974 3.082 3.76-.014.331-.09.641-.224.943-3.927 10.52-14.312 17.653-25.586 17.654v.003h-.004-.002v-.003c-12.222 0-23.31-8.391-26.418-20.2-.099-.38-.231-.761-.22-1.159"/><g fill="#808080"><path d="m415.57 517.17c3.682 10.1 13.578 16.999 24.38 16.999v-.003h.002.004v.003c9.69-.0001 18.703-5.539 23.1-14.1-6.758 3.065-15.783 4.02-23.12 3.728-8.257-.326-17.16-2.418-24.359-6.629"/><path d="m416.54 516.1l.034.019.002-.002c7.259 3.935 15.448 5.999 23.682 6.287 7.364.258 14.76-.895 21.582-3.354.854-.309 2.468-1 2.517-2.121.05-1.132-1.465-2.02-2.301-2.432l-.08-.04c-6.808-3.375-14.335-5.203-21.918-5.535-8.109-.355-16.265.998-23.666 3.96-.509.204-1.645.695-1.665 1.389-.022.798 1.249 1.524 1.813 1.829"/></g><path d="m418.67 514.94c12.493 6.288 28.697 6.583 41.807 2.081.798-.337.744-.865.043-1.21-12.493-6.289-28.699-6.583-41.808-2.081-1.043.309-1.351.686-.042 1.21"/></g><path d="m292.09 577.82l18.404-76.48 2.08-.888 29.24 74.46-2.643-1.268-26.15-66.59 4.694 76.975-1.992.117-4.673-76.63-16.583 68.911-2.381 1.382"/><path d="m413.7 513.33l26.27-80.16 1.728-.606 23.547 82.83-2.544-1.641-20.769-73.06.192 82.42h-1.992l-.194-83.43-23.702 72.33-2.533 1.318"/><path d="m343.81 406.73l-.968-14.517 30.351 59.16 2.591 12.959-5.378 3.586-26.596-61.19"/><path d="m346.05 406.39l25.342 58.15 1.866-1.244-2.238-11.192-25.2-49.12.227 3.405" fill="#999"/><path d="m305.86 496.26l133.97-70.31c6.092-3.301 10.616 5.697 4.676 8.848l-133.51 70.834c-6.628 3.517-11.45-6.06-5.135-9.375"/><path d="m305.88 503.41l138.93-74.59c-1.165-1.917-2.856-1.729-4.223-1.013l-133.81 70.22c-2.112 1.108-2.585 3.462-.897 5.379" fill="#999"/><path d="m373.74 475.64l-25.608-146.61-.173-.991.998-.165 4.966-.82.958-.158.183.958 27.847 146.1c1.29 6.777-8.03 8.237-9.171 1.687"/><path d="m380.25 477.18l-28.478-147.74-1.494.247 25.435 145.62c.474 2.713 3.175 3.213 4.537 1.88" fill="#999"/></g><g><path d="m177.57 421.4c-1.202-.366-2.282-1.191-3.01-2.207l-.442.037c-1.287.112-2.688.234-3.915-.003-3.883-.75-4.739-6.114-.336-6.139 2.695-.015 5.547-.473 8.219-.208 3.892.386 7.699 3.493 7.975 7.501.288 4.259-2.964 7.556-7.214 7.472l-.211-.263h-.0001c-1.276-1.592-1.384-4.292-1.063-6.191"/><path d="m167.86 415.13c.846 3.245 2.463 6.376 5.098 8.511 1.094.886 2.094 1.72 2.261 3.298.212 2.01-1.294 3.391-3.255 3.34.648 1.85.203 3.963-1.758 4.569-.214.064-.441.108-.679.134.614 1.38-.05 2.809-1.346 3.444-2.166 1.061-5-.092-6.769-1.466-1.397-1.086-2.604-2.732-3.147-4.429-.575-1.796-.411-4.688 1.674-5.415-.644-2.188-.126-5.532 2.785-5.601-.747-3.804 1.165-6.536 5.136-6.385"/><path d="m160.54 428.43c-1.326.045-1.229 2.379-.922 3.605.071.283.154.507.232.63h-.002l.002.003.003.003c.536 1.244 1.35 2.34 2.426 3.174 1.313 1.019 3.642 2.113 5.278 1.313 1.158-.568.898-1.688.024-2.405-3.184-.619-5.2-3.952-7.04-6.324m2.569-5.48c-2.49-.33-2.182 3.086-1.551 4.486 1.609 2.059 3.404 5.21 6.06 5.917 2.614.696 4.278-.499 2.61-3.43-1.415-.421-2.685-1.402-3.859-2.668-1.16-1.25-2.23-2.778-3.261-4.305m3.662-6.419c-3.143.247-3.03 3.637-2.384 5.789.964 1.422 1.961 2.833 3.02 3.971 1.108 1.194 2.743 2.449 4.397 2.599 1.112.101 2.149-.425 2.01-1.807-.127-1.203-.935-1.685-1.73-2.333-2.562-2.082-4.38-5.07-5.308-8.219m12.543 3.741c-.553 1.956-.886 4.337.24 6.174 3.166-.117 5.309-2.982 5.095-5.987-.24-3.311-3.516-5.855-6.703-6.171-2.597-.257-5.446.199-8.07.214-2.729.014-1.505 2.932.596 3.337 1.55.299 3.247-.007 4.831-.119 1.084 1.808 2.209 2.311 4.02 2.552" fill="#fc9"/><path d="m361.58 347.77l-5.578-8.367c-5.266-.331-7.105-2.317-10.121-6.356-1.194-.221-2.37-.328-3.573-.257-2.905.167-3.95-3.235-2.685-5.498-1.228-1.291-1.457-4.04-.456-5.512-1.394-1.539-1.288-4.03-.143-5.656-1.501-1.859-1.325-5.449 1.333-6.172 1.863-.506 5.443-.609 8.227-.336 1.178.115 2.403.164 3.434.779 3.994 2.382 9.02 10.01 10.999 13.935l6.02 4.787-.006.018 1.595 1.595.898 10.335-8.176 7.472-1.766-.767"/><path d="m361.53 325.75c-1.881-4.128-6.107-11.441-10.1-14.05-.827-.539-2.01-.577-2.975-.671-2.645-.259-6-.246-7.723.188-1.892.478-1.634 4.22-.205 4.086 3.281-.308 5.918-.334 9.152.425l-.101 1.525c-3.095-.726-5.678-.846-8.827-.539-1.486.145-1.438 4.492.104 4.311 2.998-.353 5.635-.362 8.629.117l-.039 1.578c-2.943-.471-5.72-.617-8.681-.264-1.224.146-.841 4.04.31 3.914 2.765-.308 5.608-.218 8.359.231l.029 1.541c-2.685-.544-5.772-.752-8.475-.345-1.177 1.124-.41 3.669 1.356 3.584 1.466-.071 2.907.103 4.353.387 2.666 3.689 6.06 5.262 10.538 5.469l5.851 8.875 1.023.41 6.05-5.544-.747-8.63-7.882-6.599" fill="#fc9"/></g><path d="m367.37 326.7c16.509 10.01 36.13 15.12 34.02 41.27-11.234 5.679-23.11.286-31.27-8.151-3.959-4.094-7.163-8.138-10.744-11.129 6.352-3.876 9.465-13.13 7.995-21.994"/><path d="m369.43 334.28c.034 7.04-2.574 11.04-7.521 14.7 3.386 3.14 6.118 6.292 9.136 9.48 8.242 8.705 17.11 11.708 25.16 9.83 1.563-.364 2.674-.763 3.949-1.462 1.113-19.375-11.691-28.725-28.373-35.867 14.01 9.03 26.03 14.805 26.25 35.983-8.465 2.995-16.679.02-24.64-8.926-2.825-3.171-5.869-5.643-9.256-8.355 5.123-3.193 6.86-7.408 6.259-14.606l-.96-.777" fill="#fff"/><g><path d="m325.83 245.98c-.086 1.49-.46 2.939-.731 4.401.236 1.81.256 3.646.078 5.462-.471 4.791-2.331 9.655-5.457 14.207-.557.812-1.155 1.593-1.728 2.394l.149 9.445c-.813 4.216-2.628 8.933-6.287 11.531-3.08 2.186-6.869 2.147-9.909-.094-3.622-2.671-5.397-7.468-6.128-11.715l-.089-11.59c-1.175-1.492-2.299-3.235-3.539-5.446-3.537-.963-5.929-4.422-6.745-7.852-.458-1.923-.248-3.846-.296-5.792-.032-1.318-.221-2.588-.51-3.851l-.743.371-3.677-13.205c2.167-1.771 4.396-3.457 6.737-4.993-.229-3.632-.262-6.641-.078-9.268.406-5.807 2.234-10.144 5.279-15.06 2.038-3.29 3.945-6.624 5.717-10.07 2.61 2.203 5.349 4.189 8.148 6.144 5.49 3.836 11.1 7.757 16.216 14.799 2.721 3.747 4.912 7.921 5.567 12.557v.001c1.966 1.468 3.782 3.114 5.515 4.85l-2.096 9.06-2.529 1.012c-.44 1.306-1.306 2.305-2.865 2.682"/><path d="m284.75 245.28c6.633-4.132 14.07-9.09 21.924-10.357 8.196-1.321 15.282 2.275 21.663 6.994l1.668-.668 1.753-7.58c-15.833-15.62-33.9-11.859-49.938 1.09l2.93 10.521m3.563-16.897c12.08-7.49 25.558-9.424 37.848-1.164-.817-3.882-2.764-7.398-5.076-10.583-4.981-6.858-10.49-10.707-15.88-14.472-2.337-1.634-4.653-3.251-6.894-5.084-1.98 3.779-3.617 6.422-4.961 8.59-2.922 4.718-4.678 8.835-5.068 14.41-.167 2.377-.15 5.083.031 8.303"/><path d="m283.9 234.29l1.927 6.926c12.648-8.396 24.994-14.383 38.594-4.286l.025.691c-13.636-10.22-28.372-1.991-39.29 6.541l-2.631-8.887 1.371-.985m7.05-3.603c11.568-7.44 22.489-8.122 34.395-.734v.563c-11.38-6.478-23.344-5.832-34.395.775v-.604m32.493-6.481c-5.525-11.533-16.229-16.537-24.479-23.753-5.804 8.747-9.06 14.291-6.767 25.583l-3.354 1.892c-1.444-12.943 4.236-20 9.836-29.465 9.758 9.343 19.798 12.647 25.957 26.391l-1.193-.648" fill="#fff"/><path d="m291.62 262.87c-.926-5.881-.702-11.988.243-17.847l.371-.149.004-.0001c.651-.261 1.278-.594 1.853-.995v-.003c1.434-.998 2.588-2.433 3.269-4.304-3.499 1.756-7.247 4.051-11.468 6.662.725 2.79.687 4.701.653 6.424-.024 1.259-.047 2.41.27 3.739.628 2.641 2.27 5.306 4.805 6.474m6.845-23.839l.082.07.009.008c1.098.939 2.357 1.679 3.695 2.218 3.464 1.396 7.462 1.482 10.801.489h.003l.006-.0001v-.0001c.684-.203 1.367-.36 2.042-.47 3.801-.617 7.788.287 10.5 3.187.775-.226 1.421-.671 1.748-1.588-7.952-5.909-14.191-7.74-20.456-6.73-2.74.442-5.504 1.428-8.43 2.818"/><g fill="#fc9"><path d="m316.61 274.52c-1.285 1.985-2.536 3.69-5.294 4.273-5.094 1.078-10.973-3.69-14.165-7.105l.074 9.769c.86 4.809 3.719 12.14 9.671 12.197 5.917.055 8.887-7.134 9.829-11.906l-.115-7.228"/><path d="m324.42 245.34c-2.393-2.425-5.839-3.044-9.08-2.503-.618.104-1.244.25-1.874.436l-.005.003-.001.003v-.0001c-3.624 1.076-7.965.93-11.726-.616-.736-.302-1.45-.658-2.131-1.068h-.003c-.407-.245-.806-.511-1.192-.798-1.05 2.356-2.925 4.209-5.259 5.242-.87 5.647-.994 11.723.003 17.36 1.426 2.563 2.958 5.083 4.963 7.243 2.757 2.971 8.352 7.736 12.916 6.77 2.805-.593 3.708-2.603 5.058-4.677.775-1.191 1.666-2.302 2.47-3.473 3.787-5.515 6.04-12.193 5.117-18.901.423-1.59.7-3.286.752-5.02"/></g><path d="m313.15 273.53c-1.303-.559-3.165-.52-4.47.012v-.84c.824-1.173 3.684-1.332 4.47-.053v.881m-10.186-27.543c7.845.149 7.342 7.484 6.744 13.173l-.292.093c-.185-3.928.719-10.966-5.851-11.563l-.601-1.703m-4.411 4.545c2.517-1.495 6.99-1.901 8.541 1.7l-1.01-.234c-1.353 3.077-5.832 2.614-6.395-.469l-1.16.544.025-1.541m8.944 18.694l-1.502.051v-.88l3.117-.683c.971-.124 1.372.388 2.271.401.815.011 1.167-.513 2-.349l2.533.726-.072.916-1.131-.09c-1.934 1.808-5.848 1.853-7.217-.092m15.975-18.683c-2.313-1.394-6.425-1.772-7.85 1.586l.929-.218c1.244 2.87 5.361 2.438 5.878-.437l1.066.507-.023-1.438m-.258-2.842c-2.281-.472-7.181-.425-8.145 2.22-.87 2.384-.622 7.768-.432 10.464.577.031 1.027.173 1.369.486 1.028.941.93 2.913-.341 3.626-.619.348-1.33.321-2.025.287-1.361 1.113-2.877 1.154-4.195.034-.993.343-2.619.392-2.922-1.471l1.018-1.316c-.431 1.356.934 2.145 2.095 1.389 1.101 1.074 2.527 1.21 3.741.085.548.131 1.207.197 1.71-.085.523-.294.615-1.409.175-1.819-.376-.349-1.16-.384-1.65-.294-.027-3.625-.781-8.389.218-11.838 1.01-3.481 6.618-3.795 9-3.274l.384 1.506"/></g></g></svg>