<svg xmlns="http://www.w3.org/2000/svg" xmlns:xlink="http://www.w3.org/1999/xlink" width="350" height="466.96" viewBox="0 0 98.777779 131.78744" fill-rule="evenodd"><defs><linearGradient xlink:href="#2" id="A" gradientUnits="userSpaceOnUse" x1="33.704" x2="27.907"/><linearGradient id="M" gradientUnits="userSpaceOnUse" y1="158.08" x2="0" y2="159.08"><stop stop-color="#f1bc38"/><stop offset="1" stop-color="#f1bc38" stop-opacity="0"/></linearGradient><linearGradient xlink:href="#2" id="9" gradientUnits="userSpaceOnUse" x1="21.274" x2="15.476"/><linearGradient xlink:href="#2" id="C" gradientUnits="userSpaceOnUse" x1="58.57" x2="52.768"/><linearGradient xlink:href="#2" id="D" gradientUnits="userSpaceOnUse" x1="70.996" x2="65.2"/><linearGradient id="G" gradientUnits="userSpaceOnUse" y1="69.39" x2="0" y2="142.91"><stop stop-color="#478347"/><stop offset="1" stop-color="#53b256"/></linearGradient><linearGradient xlink:href="#2" id="E" gradientUnits="userSpaceOnUse" x1="83.43" x2="77.63"/><linearGradient id="F" gradientUnits="userSpaceOnUse" y1="79.57" x2="0" y2="102.59"><stop stop-color="#f1bc38"/><stop offset="1" stop-color="#fceb39"/></linearGradient><linearGradient xlink:href="#2" id="B" gradientUnits="userSpaceOnUse" x1="46.13" x2="40.34"/><linearGradient xlink:href="#1" id="3" gradientUnits="userSpaceOnUse" x1="20.12" x2="16.63"/><linearGradient id="2" gradientUnits="userSpaceOnUse" x1="69.908" x2="62.727"><stop stop-color="#fff"/><stop offset=".129" stop-color="#dfdfdf"/><stop offset=".451" stop-color="#fff"/><stop offset="1" stop-color="#fff"/></linearGradient><linearGradient xlink:href="#1" id="8" gradientUnits="userSpaceOnUse" x1="82.27" x2="78.78"/><linearGradient id="1" gradientUnits="userSpaceOnUse" x1="68.48" x2="64.16"><stop stop-color="#fff"/><stop offset=".231" stop-color="#dfdfdf"/><stop offset=".451" stop-color="#fff"/><stop offset="1" stop-color="#fff"/></linearGradient><linearGradient id="0"><stop stop-color="#fceb39"/><stop offset="1" stop-color="#fceb39" stop-opacity="0"/></linearGradient><linearGradient xlink:href="#1" id="7" gradientUnits="userSpaceOnUse" x1="69.843" x2="66.35"/><linearGradient xlink:href="#1" id="4" gradientUnits="userSpaceOnUse" x1="32.551" x2="29.06"/><linearGradient xlink:href="#1" id="6" gradientUnits="userSpaceOnUse" x1="57.41" x2="53.922"/><linearGradient xlink:href="#1" id="5" gradientUnits="userSpaceOnUse" x1="44.981" x2="41.491"/><radialGradient xlink:href="#0" id="L" gradientUnits="userSpaceOnUse" gradientTransform="matrix(2.1416 0 0 2.53497-137.81-196.23)" cx="121.78" cy="129.2" r="5.828"/><radialGradient id="H" gradientUnits="userSpaceOnUse" gradientTransform="matrix(.67915-.01076.01236.77998 29.18 39.784)" cx="95.49" cy="65.47" r="43.986"><stop stop-color="#fceb39"/><stop offset=".289" stop-color="#fceb39"/><stop offset="1" stop-color="#f1bc38"/></radialGradient><radialGradient xlink:href="#0" id="K" gradientUnits="userSpaceOnUse" gradientTransform="matrix(2.95854-.00918.00484 1.55999-183.7-71.5)" cx="93.47" cy="131.24" r="6.301"/><radialGradient id="I" gradientUnits="userSpaceOnUse" gradientTransform="matrix(-.95706-.01481.0139-.89853 252.86 192.82)" cx="126.45" cy="103.25" r="13.734"><stop stop-color="#fceb39"/><stop offset=".305" stop-color="#fceb39"/><stop offset="1" stop-color="#fceb39" stop-opacity="0"/></radialGradient><radialGradient id="J" gradientUnits="userSpaceOnUse" gradientTransform="matrix(1.73831.03759-.03879 1.79401-45.16-80.27)" cx="65.66" cy="96.63" r="9.682"><stop stop-color="#fceb39"/><stop offset=".323" stop-color="#fceb39"/><stop offset="1" stop-color="#fceb39" stop-opacity="0"/></radialGradient></defs><path d="m69.64 58.958c.828 0 1.5.672 1.5 1.5v1.5c0 .828-.672 1.5-1.5 1.5h-1.5v-4.5h1.5m0 6c1.657 0 3-1.343 3-3v-1.5c0-1.657-1.343-3-3-3h-3v7.5h3m-6-7.5h1.5v7.5h-1.5v-7.5m-3 0h1.5v7.5h-1.5l-3-4.709v4.709h-1.5v-7.5h1.5l3 4.709v-4.709m-22.5 0h4.5v1.5h-3v1.5h3v1.5h-3v1.5h3v1.5h-4.5v-7.5m-6 0h1.5v6h3v1.5h-4.5v-7.5m15.75 6h1.5c1.242 0 2.25-1.01 2.25-2.25 0-1.242-1.026-2.246-2.25-2.25h-1.5v1.5h1.5c.414 0 .75.336.75.75 0 .414-.336.75-.75.75h-1.5v1.5m1.5-7.5c2.899 0 5.25 2.351 5.25 5.25 0 2.899-2.351 5.25-5.25 5.25-2.899 0-5.25-2.351-5.25-5.25 0-2.899 2.351-5.25 5.25-5.25m0 1.5c2.071 0 3.75 1.679 3.75 3.75 0 2.071-1.679 3.75-3.75 3.75-2.071 0-3.75-1.679-3.75-3.75 0-2.071 1.679-3.75 3.75-3.75" fill="#a90000"/><g fill-rule="nonzero"><path d="m98.76 83.66c-1.924 12.45-6.777 21.696-14.898 29.23-9.617 8.923-22.374 14.385-34.477 18.898-12.1-4.513-24.86-9.975-34.477-18.898-8.122-7.536-12.974-16.782-14.898-29.23l-.013-.086v-.043-83.53h98.78v83.53.043l-.013.086"/><path transform="matrix(.80725 0 0 .80725-35.16-54.32)" fill="url(#G)" d="m45.655 69.39v73.52h118.16v-73.52z"/><path d="m82.71 111.65c7.818-7.254 12.498-16.17 14.369-28.17v-22.11h-95.39v22.11c1.87 12 6.551 20.915 14.369 28.17 7.836 7.271 18.84 12.909 33.33 18.333 14.485-5.425 25.489-11.06 33.33-18.333" fill="#f00"/><g transform="matrix(.80725 0 0 .80725-35.16-54.32)"><path d="m138.29 109.91c-.015.528-.016 1.088.0001 1.664.017.599.054 1.216.114 1.834.304 3.127 1.199 6.264 3.23 7.121.501.212.996.508 1.305.953.319.459.438 1.059.166 1.857-.559 1.638-.884 3.396-1.044 5.227-.16 1.839-.154 3.749-.052 5.685l.017.329-.313-.105c-.514-.173-.998-.286-1.36-.161-.338.116-.596.464-.715 1.215.017.108.033.216.047.325.014.111.027.221.037.331.052.556.049 1.059-.009 1.507l-.025.196h-.197-7.04-.476l.303-.367c.594-.721 1.238-1.409 1.963-2.043.71-.622 1.497-1.192 2.389-1.693 1.329-2.699 1.601-5.34.903-7.928-.701-2.602-2.379-5.157-4.943-7.671-.941-.104-1.813-.322-2.615-.637-.579.987-.889 1.906-1.017 2.811-.132.935-.07 1.863.09 2.843.054.329.215.618.374.9.302.538.593 1.058.301 1.867-.249.691-.84 1.089-1.487 1.524-.084.056-.17.115-.261.177l-.002.0001h-.002c-.399.275-.811.574-1.213.919-.399.342-.79.729-1.151 1.179-1.283 1.599-2.115 3.759-2.632 5.102l-.03.078-.108.281-.238-.184c-.291-.225-.55-.409-.778-.516-.194-.09-.362-.123-.505-.072-.271.097-.55.514-.816 1.083-.054.115-.108.239-.161.369-.04.098-.082.204-.124.316l-.02.055c-.008.222-.037.432-.076.624-.042.204-.095.387-.148.543l-.052.153h-.161-7.147-.369l.169-.328c.767-1.483 2.153-2.945 3.509-3.646.271-.14.541-.251.807-.326.25-.071.496-.11.735-.114 1.648-1.411 2.928-2.74 3.865-4.115.942-1.383 1.54-2.815 1.82-4.428.219-1.256.216-2.568-.031-3.941-.239-1.33-.707-2.721-1.425-4.177-1.677 1.056-3.402 1.832-5.117 2.328-.346.1-.693.189-1.04.266-.348.078-.693.144-1.034.198h-.005l-.392.062.15-.368c.18-.443.273-1.032.278-1.677.0001-.125-.002-.255-.007-.389-.002-.041-.004-.082-.007-.123-.677.197-1.352.386-2.038.549-1.144.273-2.294.498-3.455.639-1.135.137-2.28.193-3.439.13-.068.08-.137.161-.208.243l-.374.433-.02-.572c-.006-.179-.036-.364-.08-.556-.037.122-.077.236-.12.345-.132.336-.293.622-.498.919-.205.297-.453.558-.716.834-.196.206-.401.421-.594.658l-.416.51.018-.657c.007-.27.003-.504-.019-.727-.004-.04-.008-.079-.014-.118-.31.464-.651.85-1.014 1.181-.414.377-.855.681-1.312.948-.076 1.563-.328 3.03-1.18 4.083-.279 2.538-.313 5.131-.346 7.683-.005.386-.001.772-.016 1.156l-.003.173-.004.228-.228-.007c-.429-.014-.857-.071-1.281-.172-.072-.017-.151-.038-.241-.062-.015.182-.041.367-.066.552-.037.271-.075.542-.075.787v.002.012c-.043.792-.201 1.257-.438 1.532-.261.302-.59.371-.964.371h-5.683-.34l.132-.307h-3.375-.377l.179-.331c.359-.665 1.387-2.151 2.766-3.102.271-.187.557-.354.855-.49.267-.123.545-.22.831-.287.607-1.181.797-2.425.661-3.719-.139-1.322-.62-2.699-1.346-4.116-.227-.069-.443-.173-.645-.31-.086-.058-.168-.121-.245-.187-.079-.067-.155-.14-.228-.217l-.006-.006c-.613-.648-.943-1.76-1.298-2.96-.119-.403-.242-.816-.378-1.222l-.138.246-.154-.501c-.243-.789-.723-1.224-1.269-1.719-.2-.182-.409-.371-.626-.595-.301-.311-.552-.741-.757-1.092l-.067-.115v-.0001-.002c-.276-.471-.526-.956-.756-1.451-.026.052-.053.105-.081.157-.324.617-.73 1.237-1.219 1.732l-.364.368-.02-.518v-.017c-.002-.039-.005-.082-.001-.127-.004-.041-.001-.09-.018-.143l-.006-.039c-.046.1-.096.2-.148.298-.413.788-.95 1.446-1.413 1.83l-.428.355.061-.552v-.005c.005-.043.008-.09.001-.137.002-.053.002-.109.0001-.165-.002-.134-.012-.282-.029-.43-.277.392-.555.709-.834.967-.388.359-.777.604-1.165.777l-.349.155.033-.379c.142-1.625-.084-3.2-.499-4.75-.4-1.494-.978-2.968-1.575-4.441-.336.95-1.242 1.7-3.502 1.401-.209.068-.408.124-.596.168-.207.048-.406.084-.596.107-1 .123-1.793-.088-2.364-.551l-.008-.007c-.106-.088-.205-.189-.295-.302-.09-.112-.17-.232-.24-.356-.316-.563-.477-1.279-.484-1.873-.466-.064-.889-.36-1.258-.768-.923-1.022-1.489-2.262-1.82-3.626-.282-1.163-.393-2.417-.41-3.702 0-.023 0-.099-.007-.142-.918-.796-1.516-1.785-1.878-2.912-.358-1.114-.485-2.363-.464-3.695.003-.187.014-.369.032-.549-.71-.445-1.324-1.105-1.639-2.058-.064-.194-.115-.401-.153-.623-.036-.217-.059-.448-.066-.695v-.028c-.026-1.209.262-2.107.728-2.807.465-.697 1.102-1.189 1.782-1.591l.598-.353-.278.636c-.404.927-.618 1.779-.532 2.504.072.607.364 1.132.942 1.542.167-.234.343-.456.53-.664 1.218-1.358 2.835-2.131 4.765-2.229-.388-.346-.87-.661-1.398-.951-.688-.377-1.448-.709-2.185-1.01l-.83-.339.891-.091.012-.0001c.23-.023.469-.041.712-.053.24-.012.49-.019.747-.019 1.305-.003 2.701.159 3.809.576l.002.002c.335.126.654.286.955.476.077.049.153.1.228.152.318-.178.794-.463 1.392-.82 2.41-1.439 6.805-4.064 11.15-5.909l.004-.002c2.407-1.022 4.824-1.715 6.926-2.051.411-.066.81-.118 1.194-.156.384-.038.756-.063 1.111-.073h.021c1.848-.052 3.887.194 5.933.806.402.12.802.254 1.197.4.392.145.79.308 1.191.488l.023.001c1.506.677 2.984 1.494 4.354 2.33 1.369.835 2.628 1.689 3.699 2.444l.323.228c.881.625 1.806 1.28 2.756 1.728h.0001l.505.233-.299.104c1.473.305 3.362.901 5.365 1.534 2.582.816 5.355 1.692 7.635 2.07 1.055-.258 2.311-.244 3.904.228l.013.004c2.798 1.013 5.63 2.044 8.251 3.596 2.633 1.559 5.05 3.64 6.993 6.748 1.062 1.696 1.443 3.475 1.35 5.298-.092 1.808-.652 3.659-1.477 5.516v.002l-.002.005c-.118.266-.222.527-.311.78-.091.257-.167.505-.227.74-.307 1.195-.259 2.185.199 2.746.153.188.37.313.637.391.286.083.63.112 1.014.103l.331-.008-.116.31v.002c-.034.09-.07.178-.108.263-.038.085-.083.176-.134.272-.155.289-.355.585-.604.858.274-.05.551-.124.827-.226.504-.187 1.01-.47 1.508-.883l.319-.264.048.412c.037.32.04.649.018.977-.013.197-.035.395-.064.589.298-.141.584-.374.86-.667.396-.419.771-.957 1.142-1.525l.419-.642-.006.766c-.003.368-.03.737-.083 1.097-.151 1.023-.52 2-1.191 2.73-.678.734-1.657 1.204-3.02 1.192-.291-.002-.597-.026-.917-.074-.172-.025-.343-.066-.51-.12-1.035-.336-1.94-1.209-2.514-2.454-.565-1.224-.812-2.812-.547-4.601.086-.58.226-1.183.427-1.801.165-.508.349-1.01.534-1.515.854-2.331 1.72-4.694.53-7.295l-.008-.017c-.111-.239-.233-.458-.364-.655-.13-.196-.269-.373-.416-.53-.675-.725-1.505-1.045-2.294-1.067.093 1.504.064 3-.122 4.475-.208 1.647-.613 3.268-1.267 4.848"/><path d="m99.78 121.33l-.007-.012.007-.004c.021-.558.022-1.127.023-1.692.0001-.382.002-.762.008-1.132l.448.007c-.007.371-.008.748-.008 1.125-.0001.474-.002.951-.014 1.422.343-.216.675-.458.99-.743.451-.411.866-.913 1.224-1.558l.264-.476.148.525c.072.254.116.489.141.736.006.062.011.124.015.188.076-.081.151-.16.225-.238.251-.264.488-.513.672-.779.185-.269.331-.526.449-.828.119-.304.212-.657.291-1.116l.157-.913.278.884.006.019c.107.338.206.651.268.958.667-.809 1.152-1.537 1.479-2.316.377-.899.546-1.876.546-3.14h.448c.0001 1.327-.179 2.358-.579 3.312-.307.732-.741 1.415-1.32 2.148 1.017.035 2.028-.021 3.03-.142 1.14-.138 2.274-.361 3.404-.63.952-.227 1.865-.497 2.791-.77.919-.272 1.851-.547 2.841-.787l.105.436c-.974.236-1.903.511-2.82.782l-.335.099c.006.079.011.156.014.233.006.136.009.273.008.41-.004.539-.066 1.046-.186 1.476.215-.039.43-.083.644-.131.335-.075.673-.162 1.012-.26 1.739-.503 3.49-1.302 5.194-2.399.162-.104.295-.192.409-.268.433-.287.646-.429.899-.437.251-.008.446.114.829.352.124.077.271.169.45.274l.004.002c.123.073.252.137.384.192.133.055.27.1.41.134.638.153 1.376.074 2.211-.389-.164-.143-.324-.293-.479-.448l-.007-.007c-.539-.542-1.048-1.155-1.503-1.851-.454-.696-.853-1.476-1.172-2.353-.334-.919-.495-1.787-.567-2.634-.071-.835-.056-1.657-.038-2.491.015-.678.028-1.611-.021-2.6-.048-.98-.158-2.01-.386-2.894-.213-.822-.497-1.513-.754-2.139-.698-1.7-1.21-2.946.221-5.071.053-.079.11-.155.169-.228.624-.763 1.616-1.237 2.632-1.397 1.017-.16 2.066-.006 2.8.489.068.046.13.092.186.138l-.285.348c-.052-.043-.103-.08-.152-.113-.639-.43-1.569-.562-2.48-.418-.913.144-1.801.564-2.352 1.238-.052.063-.1.128-.145.194-1.297 1.926-.824 3.078-.179 4.649.263.64.553 1.346.773 2.197.237.917.35 1.98.4 2.986.049.997.037 1.942.021 2.63-.018.816-.033 1.619.038 2.445.069.813.223 1.643.54 2.518.306.843.69 1.593 1.126 2.262.436.668.925 1.257 1.444 1.778l.008.007c.212.214.438.419.677.614.24.197.487.379.738.545 1.32.87 2.917 1.412 4.775 1.511l-.021.417c2.429 2.461 4.03 4.971 4.719 7.533.712 2.643.456 5.336-.856 8.08.476.159.911.349 1.299.577.325.191.615.409.868.656.182-.677.51-1.023.928-1.167.397-.136.855-.074 1.337.064-.087-1.849-.084-3.671.069-5.425.162-1.864.494-3.656 1.066-5.332.218-.64.132-1.108-.109-1.456-.252-.363-.675-.613-1.109-.796-2.22-.937-3.186-4.226-3.503-7.492-.061-.627-.098-1.254-.116-1.863-.007-.222-.001-.442-.012-.659-.161.328-.333.655-.517.98l-.39-.221c.35-.616.655-1.24.92-1.871v-.002c.657-1.565 1.062-3.173 1.268-4.807.29-2.298.188-4.653-.159-7.02l.445-.065c.108.74.193 1.478.25 2.216.913.014 1.876.374 2.654 1.21.163.175.317.371.461.588.143.216.276.454.397.715l.008.019c1.267 2.769.369 5.22-.516 7.636-.183.501-.367 1-.528 1.498-.193.594-.327 1.172-.41 1.729-.251 1.698-.02 3.198.51 4.348.521 1.129 1.329 1.917 2.245 2.214.142.046.288.081.436.103.306.045.591.068.856.07 1.221.001 2.09-.403 2.687-1.048.604-.653.937-1.549 1.076-2.49.011-.077.021-.154.03-.231-.236.332-.478.641-.729.907-.435.461-.902.796-1.423.912l-.333.074.064-.335c.057-.298.101-.605.121-.909.011-.163.015-.326.011-.488-.43.309-.865.535-1.301.696-.549.203-1.099.302-1.639.331l-.751.041.607-.446c.454-.334.785-.77 1.01-1.191.031-.059.062-.119.091-.182-.293-.011-.564-.048-.806-.118-.353-.102-.645-.275-.86-.538-.553-.678-.627-1.808-.285-3.14.066-.256.145-.517.238-.779.094-.266.202-.538.324-.812v-.002l.003-.007c.804-1.809 1.35-3.607 1.439-5.356.088-1.734-.274-3.425-1.283-5.04-1.901-3.038-4.264-5.073-6.84-6.599-2.586-1.531-5.393-2.553-8.168-3.558-1.592-.471-2.818-.462-3.833-.177-1.016.284-1.834.847-2.601 1.48l-.285-.346c.627-.517 1.289-.991 2.065-1.32-2.142-.434-4.591-1.208-6.888-1.934-2.394-.757-4.624-1.461-6.137-1.665-.42.12-.776.186-1.119.192-.361.007-.701-.05-1.076-.178.162.252.367.45.543.62.047.046.093.09.137.135h.002l.404.404-.571-.021c-.376-.013-.776.026-1.173.066-.711.071-1.415.141-2.039-.075.018.046.037.092.057.136.084.182.199.349.372.475l.54.393-.668.013c-.362.007-.681.025-.965.041-.409.023-.748.042-1.092.021-.511-.032-.889-.133-1.198-.343-.309-.21-.533-.521-.735-.972l.41-.183c.167.373.344.624.579.784.235.16.543.238.973.265.319.02.645.002 1.039-.021.149-.008.308-.017.482-.025-.056-.083-.103-.171-.145-.261-.107-.231-.171-.472-.231-.699l-.153-.582.497.339c.598.408 1.409.327 2.232.245.229-.023.459-.046.688-.059-.252-.264-.507-.595-.636-1.056l-.131-.466.44.202c.54.248.959.36 1.407.351.313-.006.647-.07 1.051-.189l.002-.018h.005l.037.005.056-.017c-.809-.438-1.589-.991-2.338-1.522l-.323-.228c-1.066-.751-2.318-1.601-3.674-2.428-1.354-.827-2.816-1.634-4.304-2.304l-.022-.001c-.38-.171-.769-.329-1.164-.476-.392-.145-.782-.276-1.169-.392-2-.599-3.991-.84-5.792-.789h-.021c-.343.001-.703.034-1.079.072-.376.037-.766.088-1.168.153-2.067.331-4.447 1.013-6.82 2.02l-.004.002c-4.319 1.834-8.695 4.448-11.1 5.881-.505.302-.923.552-1.238.732.077.065.152.131.225.2.576.541 1.036 1.202 1.341 1.93.574-.254 1.163-.53 1.758-.82.676-.33 1.347-.674 2.01-1.022h.0001c.051-.027.127-.073.214-.124.47-.279 1.222-.726 1.654-.389l.0001.002.002.002c.087.069.151.16.196.267.04.094.066.2.081.315.069.529-.096 1.27-.177 1.588-.222.869-.634 1.506-1.113 2.063 1.372.619 1.806 1.445 2.209 2.213.185.353.364.692.628.978l.283.306-.411.068c-.189.031-.373.032-.555.022.689.856 1.028 1.95 1.282 2.77.141.457.255.822.37.966l.227.283-.355.077c-.263.057-.517.069-.763.029-.249-.04-.486-.133-.709-.283l.251-.373c.168.113.344.183.528.212.094.015.192.02.292.016-.091-.212-.176-.485-.272-.796-.285-.919-.682-2.2-1.563-3.01l-.005-.004-.474-.438.643.048c.059.004.157.014.252.023.124.012.246.024.368.029-.158-.23-.285-.473-.415-.721-.38-.724-.789-1.504-2.131-2.069-.161.169-.326.333-.49.497-.075.075-.15.15-.225.225l-.009.009-.001.008c-.074.06-.147.112-.219.157-.336.209-.659.274-.966.208-.302-.065-.576-.254-.817-.553-.061-.076-.122-.163-.183-.259-.181-.266-.285-.494-.332-.698-.051-.221-.037-.412.019-.588.178-.57.558-.703.983-.852.112-.039.228-.08.338-.13.212-.097.422-.21.631-.333.205-.121.415-.256.628-.4l.251.373c-.211.142-.427.282-.653.414-.221.13-.444.25-.671.354-.13.06-.256.104-.377.146-.312.109-.591.207-.702.562-.033.105-.041.22-.001.355.035.151.118.329.265.545l.004.008c.049.079.102.153.158.223.175.217.364.353.561.395.192.041.405-.005.635-.149.055-.035.11-.074.165-.118.072-.073.145-.146.218-.218.746-.744 1.492-1.489 1.803-2.705.075-.293.227-.969.169-1.419-.001-.076-.026-.143-.049-.198-.017-.04-.037-.071-.059-.089l-.002-.002c-.193-.15-.783.201-1.151.42-.088.053-.165.099-.234.136h-.0001c-.672.356-1.35.702-2.02 1.029-.6.293-1.202.575-1.799.838.27.834.339 1.737.147 2.635l-.002.012c-.047.219-.118.433-.208.638-.089.203-.199.398-.325.584-.643.947-1.726 1.618-2.846 1.675h-.012-.002c-.207.001-.407-.0001-.599-.03-.193-.03-.382-.079-.563-.147-.924-.344-1.604-1.154-1.728-2.229-.016-.142-.022-.29-.016-.441.019-.486.164-.986.467-1.385.309-.407.776-.707 1.435-.783.078-.009.159-.014.244-.017-.004-.094-.011-.187-.02-.276v-.006c-.009-.081-.021-.159-.037-.235-.016-.077-.036-.154-.059-.229-.101-.328-.271-.634-.502-.917-1.985 0-3.637.732-4.855 2.091-.243.271-.47.569-.679.891-.208.32-.4.667-.573 1.04l-.018.037c-.169.366-.305.75-.401 1.154-.096.405-.152.828-.159 1.271-.021 1.286.101 2.487.443 3.551.3.934.773 1.765 1.471 2.456.056-.184.127-.368.21-.551.139-.306.312-.608.505-.908l.2-.311.184.322c.236.413.472.761.707 1.054.233.29.464.523.694.712l-.285.346c-.254-.209-.507-.464-.759-.777-.185-.23-.37-.492-.555-.79-.106.181-.202.361-.283.54-.073.16-.135.321-.185.48-.012 1.469.082 2.905.399 4.216.314 1.296.848 2.47 1.716 3.431.4.442.862.723 1.346.605.093-.022.189-.06.288-.115.103-.056.208-.13.314-.223l.002-.002.294.339h-.0001c-.132.115-.263.208-.392.279-.133.073-.267.125-.399.157-.026.006-.052.012-.078.017.005.528.147 1.165.428 1.665.061.109.127.21.197.297.07.087.146.166.228.233l.008.007c.476.386 1.152.559 2.026.452.176-.022.359-.054.548-.098.144-.033.289-.073.436-.118.039-.062.076-.123.11-.183l-.005-.0001c.381-1.283-.237-1.695-.674-1.986-.066-.044-.129-.086-.181-.124-.157-.115-.266-.236-.316-.344-.039-.086-.048-.171-.025-.251.027-.091.087-.162.182-.206.092-.043.224-.06.399-.042.317.033.616.124.865.279.226.141.41.334.53.584.117.244.169.538.134.885-.04.384-.189.836-.48 1.359 2.175.224 2.789-.688 2.92-1.636.069-.504.012-1.028-.029-1.41-.011-.1-.021-.191-.025-.244l.448-.039c.008.089.016.16.024.235.044.405.104.96.028 1.518-.004.028-.008.056-.012.083.69.005 1.126-.16 1.38-.438.284-.309.357-.777.313-1.31-.035-.427-.181-.72-.349-1.054-.217-.434-.467-.933-.592-1.837-.319.318-.651.617-.996.897-.468.38-.961.725-1.476 1.033l-.23-.385c.497-.298.972-.63 1.424-.996.451-.366.88-.767 1.287-1.204l.35-.375.039.511c.086 1.136.362 1.687.596 2.155.084.168.164.327.23.497.396-.314.779-.661 1.144-1.055.429-.464.836-.997 1.212-1.625l.385.23c-.392.655-.818 1.212-1.269 1.699-.43.465-.878.862-1.339 1.217.015.081.026.166.033.257.053.649-.049 1.234-.431 1.65-.29.316-.734.523-1.383.572.587 1.453 1.155 2.911 1.553 4.397.394 1.469.622 2.965.541 4.506.234-.135.467-.305.7-.521.353-.327.708-.761 1.065-1.343l.271-.441.137.499c.073.268.119.589.136.879.323-.349.655-.81.93-1.335.073-.14.144-.288.21-.441.063-.148.122-.302.175-.462l.002-.002.213-.638.213.637c.056.168.113.394.155.617.316-.387.589-.826.819-1.265.06-.114.117-.229.171-.342.022-.047.045-.094.067-.143-.495-1.143-.898-2.323-1.289-3.469-.156-.455-.309-.905-.466-1.345v-.002l.056-.02.366-.134v.002.003c.158.442.312.895.469 1.353.406 1.188.825 2.413 1.342 3.587l.021.009v.0001.002l-.007.016c.267.602.559 1.191.891 1.755v.0001.002l.069.118c.193.33.428.734.691 1.01.201.207.408.395.606.576.485.441.923.838 1.219 1.464.254-.448.439-.823.494-1.422l.096-1.04.34.987c.337.977.803 1.596 1.191 2.112.225.298.425.564.569.85.047-.129.088-.261.123-.397.082-.32.133-.661.158-1.019l.047-.677.366.571c.462.72.891 1.222 1.293 1.552.28.23.546.375.8.453-.076-.302-.15-.614-.228-.934-.346-1.436-.732-3.04-1.369-4.624l-.005-.013.417-.165.005.011c.647 1.609 1.039 3.233 1.389 4.687.42 1.744.78 3.237 1.444 4.113.252.332.462.559.712.739.251.18.553.317.987.47l-.149.424c-.219-.077-.407-.151-.576-.229.033.216.06.433.082.649.038.384.058.767.059 1.148.006 1.868-.439 3.653-1.338 5.319.089.029.18.064.274.105.165.073.339.166.517.274.662.404 1.369 1.032 1.835 1.677.012-.096.025-.193.039-.289.037-.268.074-.535.074-.787v-.307l.293.093.019.006c.074.024.153.047.235.07.069.019.147.039.235.06.323.076.644.127.964.149.005-.364.001-.729.015-1.095.034-2.59.068-5.221.355-7.793l.007-.067.044-.053c.846-1 1.069-2.503 1.13-4.1z" fill="url(#H)"/><path d="m122.73 93.14l.008-.001c.626-.739 1.601-1.2 2.599-1.357 1.017-.16 2.066-.006 2.8.489.068.046.13.092.186.138l-.285.348c-.052-.043-.103-.08-.152-.113-.639-.43-1.569-.562-2.48-.418-.913.144-1.801.564-2.352 1.238-.052.063-.1.128-.145.194-1.297 1.926-.824 3.078-.179 4.649.263.64.553 1.346.773 2.197.237.917.35 1.98.4 2.986.049.997.037 1.942.021 2.63-.018.816-.033 1.619.038 2.445.069.813.223 1.643.54 2.518.306.843.69 1.593 1.126 2.262.436.668.925 1.257 1.444 1.778l.008.007c.212.214.438.419.677.614.24.197.487.379.738.545 1.32.87 2.917 1.412 4.775 1.511l-.021.417c2.429 2.461 4.03 4.971 4.719 7.533.712 2.643.456 5.336-.856 8.08.476.159.911.349 1.299.577.325.191.615.409.868.656.182-.677.51-1.023.928-1.167.397-.136.855-.074 1.337.064-.087-1.849-.084-3.671.069-5.425.162-1.864.494-3.656 1.066-5.332.218-.64.132-1.108-.109-1.456-.252-.363-.675-.613-1.109-.796-2.22-.937-3.186-4.226-3.503-7.492-.061-.627-.098-1.254-.116-1.863-.006-.222-.001-.442-.012-.659-.161.328-.333.655-.517.98l-.39-.221c.35-.616.655-1.24.92-1.871v-.0001c.657-1.565 1.062-3.173 1.268-4.807.29-2.298.188-4.653-.159-7.02l.445-.065c.108.74.193 1.478.25 2.216.913.014 1.876.374 2.654 1.21.163.175.317.371.461.588.143.216.276.454.397.715l.008.019c1.267 2.769.369 5.22-.516 7.636-.183.501-.367 1-.528 1.498-.193.594-.327 1.172-.41 1.729-.251 1.698-.02 3.198.51 4.348.521 1.129 1.329 1.917 2.245 2.214.142.046.288.081.436.103.306.045.591.068.856.07 1.221.001 2.09-.403 2.687-1.048.604-.653.937-1.549 1.076-2.49.011-.077.021-.154.03-.231-.236.332-.478.641-.729.907-.435.461-.902.796-1.423.912l-.333.074.064-.335c.057-.298.101-.605.121-.909.011-.163.015-.326.011-.488-.43.309-.865.535-1.301.696-.549.203-1.099.302-1.639.331l-.751.041.607-.446c.454-.334.785-.77 1.01-1.191.031-.059.062-.119.091-.182-.293-.011-.564-.048-.806-.118-.353-.102-.645-.275-.86-.538-.553-.678-.627-1.808-.285-3.14.066-.256.145-.517.238-.779.094-.266.202-.538.324-.812v-.002l.003-.007c.804-1.809 1.35-3.607 1.439-5.356.088-1.734-.274-3.425-1.283-5.04-1.901-3.038-4.264-5.073-6.84-6.599-2.586-1.531-5.393-2.553-8.168-3.558-1.592-.471-2.818-.462-3.833-.177-.972.272-1.763.799-2.502 1.399l-.092.075.114 1.884" fill="url(#I)"/><path d="m80.86 97.96c-.02.003-.04.005-.06.008-.179.02-.354.017-.524-.001-.249-.04-.486-.133-.709-.283l.251-.373c.168.113.344.183.528.212.094.015.192.02.292.016-.09-.213-.175-.485-.272-.796-.285-.919-.682-2.2-1.563-3.01l-.005-.004-.474-.438.643.048c.059.004.157.014.252.023.124.012.246.024.368.029-.158-.23-.285-.473-.415-.721-.38-.724-.789-1.504-2.131-2.069-.161.169-.326.333-.49.497-.075.075-.15.15-.225.225l-.009.009-.001.008c-.074.06-.147.112-.219.157-.336.209-.659.274-.966.208-.302-.065-.576-.254-.817-.553-.061-.076-.122-.163-.183-.259-.181-.266-.285-.494-.332-.698-.051-.221-.037-.412.019-.588.178-.57.558-.703.983-.852.112-.039.228-.08.338-.13.212-.097.422-.21.631-.333.205-.121.415-.256.628-.4l.251.373c-.211.142-.427.282-.653.414-.221.13-.444.25-.671.354-.13.06-.256.104-.377.146-.312.109-.591.207-.702.562-.033.105-.041.22-.001.355.035.151.118.329.265.545l.004.008c.049.079.102.153.158.223.175.217.364.353.561.395.192.041.405-.005.635-.149.055-.035.11-.074.165-.118.072-.073.145-.146.218-.218.746-.744 1.492-1.489 1.803-2.705.075-.293.227-.969.169-1.419-.001-.076-.026-.143-.049-.198-.017-.04-.037-.071-.059-.089l-.002-.002c-.193-.15-.783.201-1.151.42-.088.053-.165.099-.234.136h-.0001c-.672.356-1.35.702-2.02 1.029-.6.293-1.202.575-1.799.838.27.834.339 1.737.147 2.635l-.002.012c-.047.219-.118.433-.208.638-.089.203-.199.398-.325.584-.643.947-1.726 1.618-2.846 1.675h-.012-.002c-.207.001-.407-.0001-.599-.03-.193-.03-.382-.079-.563-.147-.924-.344-1.604-1.154-1.728-2.229-.016-.142-.022-.29-.016-.441.019-.486.164-.986.467-1.385.309-.407.776-.707 1.435-.783.078-.009.159-.014.244-.017-.004-.094-.011-.187-.02-.276v-.006c-.009-.081-.021-.159-.037-.235-.016-.077-.036-.154-.059-.229-.101-.328-.271-.634-.502-.917-1.985 0-3.637.732-4.855 2.091-.243.271-.47.569-.679.891-.208.32-.4.667-.573 1.04l-.018.037c-.169.366-.305.75-.401 1.154-.096.405-.152.828-.159 1.271-.021 1.286.101 2.487.443 3.551.3.934.773 1.765 1.471 2.456.056-.184.127-.368.21-.551.139-.306.312-.608.505-.908l.2-.311.184.322c.236.413.472.761.707 1.054.233.29.464.523.694.712l-.285.346c-.254-.209-.507-.464-.759-.777-.185-.23-.37-.492-.555-.79-.106.181-.202.361-.283.54-.073.16-.135.321-.185.48-.012 1.469.082 2.905.399 4.216.314 1.296.848 2.47 1.716 3.431.4.442.862.723 1.346.605.093-.022.189-.06.288-.115.103-.056.208-.13.314-.223l.002-.002.294.339h-.0001c-.132.115-.263.208-.392.279-.133.073-.267.125-.399.157-.026.006-.052.012-.078.017.005.528.147 1.165.428 1.665.061.109.127.21.197.297.07.087.146.166.228.233l.008.007c.476.386 1.152.559 2.026.452.176-.022.359-.054.548-.098.144-.033.289-.073.436-.118.039-.062.076-.123.11-.183l-.005-.0001c.381-1.283-.237-1.695-.674-1.986-.066-.044-.129-.086-.181-.124-.157-.115-.266-.236-.316-.344-.039-.086-.048-.171-.025-.251.027-.091.087-.162.182-.206.092-.043.224-.06.399-.042.317.033.616.124.865.279.226.141.41.334.53.584.117.244.169.538.134.885-.04.384-.189.836-.48 1.359 2.175.224 2.789-.688 2.92-1.636.069-.504.012-1.028-.029-1.41-.011-.1-.021-.191-.025-.244l.448-.039c.008.089.016.16.024.235.044.405.104.96.028 1.518-.004.028-.008.056-.012.083.69.005 1.126-.16 1.38-.438.284-.309.357-.777.313-1.31-.035-.427-.181-.72-.349-1.054-.217-.434-.467-.933-.592-1.837-.319.318-.651.617-.996.897-.468.38-.961.725-1.476 1.033l-.23-.385c.497-.298.972-.63 1.424-.996.451-.366.88-.767 1.287-1.204l.35-.375.039.511c.086 1.136.362 1.687.596 2.155.084.168.164.327.23.497.396-.314.779-.661 1.144-1.055.429-.464.836-.997 1.212-1.625l.191.114.008.005c1.119-1.808 1.396-4.661 1.147-6.834z" fill="url(#J)"/><g fill="#f1bc38"><path d="m122.07 116.28c.748 1.51 1.237 2.955 1.486 4.342.257 1.428.26 2.792.033 4.096-.292 1.679-.913 3.168-1.893 4.606-.932 1.368-2.189 2.687-3.796 4.076.07.057.141.115.212.176.147.125.286.25.414.372.549.523 1.031 1.108 1.41 1.756.05-.12.102-.239.156-.353.313-.67.672-1.172 1.071-1.315.268-.096.546-.052.846.088.196.092.402.225.623.386.531-1.377 1.361-3.45 2.623-5.02.381-.474.791-.88 1.21-1.239.415-.355.838-.664 1.248-.946l.002-.0001h.002c.086-.059.177-.121.268-.181.584-.393 1.116-.751 1.315-1.303.222-.616-.02-1.048-.271-1.496-.177-.316-.358-.639-.425-1.048-.167-1.022-.231-1.991-.092-2.977.133-.946.453-1.902 1.045-2.925-.462-.207-.898-.448-1.31-.718-.223-.147-.436-.301-.639-.461-1.01.601-1.904.705-2.684.519-.165-.04-.324-.092-.477-.155-.152-.063-.299-.137-.441-.22l-.005-.003c-.182-.107-.332-.2-.459-.28-.308-.191-.464-.289-.578-.285-.124.004-.303.122-.666.363-.07.047-.147.097-.229.151"/><path d="m92.44 122.29c-.389-.068-.791-.254-1.211-.599-.334-.274-.681-.65-1.043-1.15-.027.166-.061.329-.102.489-.091.353-.218.687-.387.996l-.301.552-.116-.618c-.08-.425-.352-.786-.68-1.222-.308-.409-.663-.88-.973-1.535-.111.338-.269.621-.457.949.195.535.358 1.084.515 1.615.339 1.147.654 2.209 1.193 2.778l.006.006c.063.066.128.128.194.184.068.058.137.111.204.157.352.238.753.356 1.194.319l.035.448c-.097.008-.193.001-.287.006.667 1.36 1.109 2.69 1.244 3.978.141 1.339-.048 2.631-.654 3.862.059.022.127.048.204.079.411.164.833.363 1.159.571.19-.168.377-.324.559-.462.182-.137.358-.257.525-.356.922-1.645 1.378-3.413 1.372-5.265-.0001-.363-.02-.731-.058-1.104-.032-.322-.078-.648-.138-.979l-.019-.013c-.291-.208-.529-.464-.809-.833-.521-.688-.859-1.68-1.17-2.855"/></g><path d="m68.43 90.83c.226-.254.35-.558.41-.867.014-.072.025-.144.032-.217-.061.002-.121.007-.179.014-.524.06-.891.293-1.129.607-.244.321-.36.73-.376 1.132-.005.124 0 .25.014.372.103.898.67 1.574 1.438 1.86.149.055.307.097.473.122.167.026.338.035.511.027h.012c.979-.05 1.93-.642 2.498-1.478.11-.162.205-.333.284-.513.078-.178.139-.363.18-.552l.003-.011c.362-1.7-.297-3.424-1.513-4.566-.237-.223-.495-.423-.769-.596-.274-.173-.567-.32-.874-.436l-.002-.002c-1.055-.397-2.395-.551-3.652-.548-.164 0-.328.004-.492.001.469.207.931.427 1.362.663.712.39 1.348.829 1.811 1.332.341.371.588.783.727 1.235.027.088.05.178.069.269.019.093.034.186.044.279v.006c.035.33.041.704-.031 1.074-.074.381-.23.758-.515 1.08l-.336-.297m-7.196 2.241c.02-.111.043-.22.068-.327.103-.432.249-.844.431-1.239l.018-.038c.164-.354.347-.688.546-1-.698-.49-1.05-1.123-1.138-1.862-.075-.628.046-1.326.306-2.072-.404.296-.77.642-1.057 1.073-.418.627-.676 1.441-.652 2.546v.028c.006.221.027.431.06.632.033.195.079.381.137.556.252.764.724 1.317 1.28 1.707m26.1 44.09c.054-.086.111-.175.17-.264.08-.119.157-.232.231-.334.416-.581.94-1.21 1.5-1.739l.308.325c-.531.503-1.037 1.11-1.442 1.675-.086.12-.161.228-.224.322l-.009.014h1.823v.02c.482-.893 1.31-1.914 2.144-2.716-.285-.169-.636-.333-.983-.471-.066-.026-.146-.057-.237-.09-.059-.022-.117-.042-.173-.062-.247.059-.49.145-.725.254-.272.125-.535.279-.786.452-1.112.766-1.984 1.903-2.43 2.614h.834m8.977-.944c-.34-.747-1.209-1.58-2.01-2.07-.159-.097-.315-.18-.464-.246-.144-.064-.279-.11-.399-.135h-.0001l.004-.017c-.138.084-.283.185-.433.298-.188.142-.384.305-.581.483-.919.827-1.878 1.976-2.378 2.939h.581c.286-.554.641-1.085 1.04-1.545.085-.097.172-.192.261-.282.087-.089.178-.177.273-.263l.0001-.002.301.334h-.0001c-.083.075-.168.156-.252.243-.083.085-.164.173-.243.264-.329.379-.624.805-.871 1.251h4.238c.255 0 .474-.04.624-.214.154-.178.263-.495.313-1.037m42.926-.31c-.011-.09-.025-.183-.04-.28-.273-.329-.615-.608-1.016-.845-.401-.236-.862-.43-1.371-.589-.849.48-1.599 1.025-2.277 1.619-.582.509-1.111 1.054-1.602 1.623h1.019c.369-.569.835-1.115 1.309-1.559.108-.101.21-.192.305-.271.101-.085.204-.165.305-.239l.08.109.188.251-.003.003c-.092.067-.187.142-.282.222-.102.085-.199.17-.287.254-.38.355-.754.781-1.073 1.232h4.795c.032-.366.028-.77-.014-1.213-.001-.101-.021-.207-.035-.315m-23.1-.828c-.415.349-.782.735-1.106 1.152-.228.293-.434.6-.619.918h5.183c.031-.104.061-.217.085-.336.034-.164.058-.341.066-.526-.378-.752-.907-1.424-1.526-2.01-.133-.127-.265-.246-.395-.356-.109-.093-.226-.188-.349-.283-.2.003-.41.037-.626.099-.236.067-.478.166-.722.292-1.179.609-2.384 1.834-3.135 3.125h.907c.228-.42.487-.82.778-1.195.34-.437.729-.846 1.173-1.219l.288.343" fill="#fff"/><path d="m69.13 100.69c.127.055.251.096.372.124.415.095.793.031 1.108-.157.324-.193.589-.518.77-.935.072-.166.131-.347.176-.541l.438.1c-.05.22-.118.428-.202.62-.219.504-.546.899-.951 1.141-.414.247-.904.332-1.438.21-.147-.034-.298-.083-.451-.15l.179-.411"/><path d="m70.7 97.58c-.092.049-.177.106-.256.17.079.467.107.872.089 1.22-.021.395-.101.721-.236.985-.155.303-.358.565-.644.734-.259.154-.577.228-.975.182-.09.096-.19.177-.303.241l-.223-.39c.366-.21.588-.772.829-1.381.325-.821.68-1.719 1.509-2.159l.211.397"/><path d="m92.44 122.29c-.389-.068-.791-.254-1.211-.599-.334-.274-.681-.65-1.043-1.15-.027.166-.061.329-.102.489-.091.353-.218.687-.387.996l-.301.552-.116-.618c-.08-.425-.352-.786-.68-1.222-.308-.409-.663-.88-.973-1.535-.111.338-.269.621-.457.949.195.535.358 1.084.515 1.615.339 1.147.654 2.209 1.193 2.778l.006.006c.063.066.128.128.194.184.068.058.137.111.204.157.352.238.753.356 1.194.319l.035.448c-.097.008-.193.001-.287.006.667 1.36 1.109 2.69 1.244 3.978.141 1.339-.048 2.631-.654 3.862.059.022.127.048.204.079.411.164.833.363 1.159.571.19-.168.377-.324.559-.462.182-.137.358-.257.525-.356.922-1.645 1.378-3.413 1.372-5.265-.0001-.363-.02-.731-.058-1.104-.032-.322-.078-.648-.138-.979l-.019-.013c-.291-.208-.529-.464-.809-.833-.521-.688-.859-1.68-1.17-2.855m.416-.183c.302 1.156.625 2.127 1.111 2.767.252.332.462.559.712.739.251.18.553.317.987.47l-.149.424c-.219-.077-.407-.151-.576-.229.033.216.06.433.082.649.038.384.058.767.059 1.148.006 1.868-.439 3.653-1.338 5.319.089.029.18.064.274.105.165.073.339.166.517.274.662.404 1.369 1.032 1.835 1.677.012-.096.025-.193.039-.289.037-.268.074-.535.074-.787v-.307l.293.093.019.006c.074.024.153.047.235.07.069.019.147.039.235.06.323.076.644.127.964.149.005-.364.001-.729.015-1.095.034-2.59.068-5.221.355-7.793l.007-.067.044-.053c.816-.97 1.053-2.4 1.123-3.935-2.01.884-4.871 1.028-6.916.605" fill="url(#K)"/><path d="m122.07 116.28c.748 1.51 1.237 2.955 1.486 4.342.257 1.428.26 2.792.033 4.096-.292 1.679-.913 3.168-1.893 4.606-.932 1.368-2.189 2.687-3.796 4.076.07.057.141.115.212.176.147.125.286.25.414.372.549.523 1.031 1.108 1.41 1.756.05-.12.102-.239.156-.353.313-.67.672-1.172 1.071-1.315.268-.096.546-.052.846.088.196.092.402.225.623.386.531-1.377 1.36-3.45 2.623-5.02.381-.474.791-.88 1.21-1.239.415-.355.838-.664 1.248-.946l.002-.0001h.002c.086-.059.178-.121.268-.181.584-.393 1.116-.751 1.315-1.303.222-.616-.02-1.048-.271-1.496-.177-.316-.358-.639-.425-1.048-.167-1.022-.231-1.991-.092-2.977.133-.946.453-1.902 1.045-2.925-.462-.207-.898-.448-1.31-.718-.223-.147-.436-.301-.639-.461-1.01.601-1.904.705-2.684.519-.165-.04-.324-.092-.477-.155-.152-.063-.299-.137-.441-.22l-.005-.003c-.182-.107-.332-.2-.459-.28-.307-.191-.464-.289-.578-.285-.124.004-.303.122-.666.363-.07.047-.147.097-.229.151" fill="url(#L)"/><path d="m127.85 124.15v.016c.011.221.117.463.219.699.199.459.391.901.065 1.33-.182.239-.414.511-.676.732-.278.234-.591.414-.923.451-.259.029-.455.054-.631.112-.167.054-.326.14-.52.29l-.767.895-.303-.259.78-.91.012-.014.017-.013c.243-.189.443-.298.658-.368.211-.069.427-.097.71-.129.242-.027.486-.171.709-.359.239-.201.451-.45.617-.668.185-.244.039-.581-.113-.932-.117-.269-.237-.546-.252-.837v-.002-.019l.398-.016m12.257-2.518h.0001c.195.075.421.101.642.127.535.062 1.044.122 1.319.758.272.629-.161 1.259-.547 1.822-.171.25-.333.485-.396.672l-.004.012c-.223.671-.187 1.508-.151 2.344l.001.225-.398.016-.001-.225c-.037-.872-.075-1.745.172-2.486l.004-.013c.082-.242.258-.498.445-.771.327-.477.694-1.011.51-1.439-.183-.424-.58-.471-.997-.519-.245-.029-.497-.058-.743-.153h-.002-.002l.124-.31.023-.061"/></g><path d="m82.68 80.35c.122.035.232.101.319.189.133.133.216.318.217.521v.0001c-.0001.204-.084.389-.218.523-.133.134-.318.217-.522.217h-.176l.296 19.926h.304c.25.0001.471.144.628.346.116.149.197.334.228.517h.666.161v.161 1.593.161h-.161-69.939-.161v-.161-1.593-.161h.161.666c.031-.183.112-.368.228-.517.157-.202.378-.345.627-.345h.305l.296-19.926h-.175-.0001c-.204-.0001-.389-.084-.522-.217-.134-.134-.217-.319-.217-.523v-.0001c.0001-.203.084-.388.217-.521.088-.088.197-.154.319-.189v-.779h-.08-.161v-.161-2.322-.161-.921-.161-2.615l-1.599-2.249h25.541l9.452-4.817.022-.011.051-.056.051.056.022.011 9.452 4.817h25.541l-1.599 2.249v2.615.161.921.161 2.322.161h-.161-.08v.779"/><g transform="matrix(.80725 0 0 .80725-35.16-54.32)"><path fill="#fceb39" d="m99.32 155.22l4.67-5.15-10.09 5.15z"/><path fill="#f7d439" d="m109.84 155.22l-5.03-5.53-5.02 5.53z"/><path fill="#f1bc38" d="m105.64 150.07l4.67 5.15h5.42z"/></g><path d="m20.514 80.35c.122.035.231.101.318.188.134.134.218.319.218.523v.0001c-.0001.203-.084.388-.217.521-.134.134-.319.218-.523.218h-.165l.296 19.926h.304c.25.0001.471.144.627.345.116.149.197.334.228.518h5.978c.031-.183.112-.368.228-.517.157-.202.378-.345.627-.345h.305l.296-19.926h-.175-.0001c-.204-.0001-.389-.084-.522-.217-.134-.134-.217-.319-.217-.523v-.0001c.0001-.203.084-.388.217-.521.088-.088.197-.154.319-.189v-.779h-8.142v.779m20.952 1.452h-.175-.0001c-.204-.0001-.389-.084-.522-.217-.134-.134-.217-.319-.217-.523v-.0001c.0001-.203.084-.388.217-.521.088-.088.197-.154.319-.189v-.779h-8.142v.779c.122.035.231.101.318.188.134.134.218.319.218.523v.0001c-.0001.203-.084.388-.217.521-.134.134-.319.218-.523.218h-.165l.296 19.926h.304c.25.0001.471.144.627.345.116.149.197.334.228.518h5.978c.031-.183.112-.368.228-.517.157-.202.378-.345.627-.345h.305l.296-19.926m3.91-1.452c.122.035.231.101.318.188.134.134.218.319.218.523v.0001c-.0001.203-.084.388-.217.521-.134.134-.319.218-.523.218h-.165l.296 19.926h.304c.25.0001.471.144.627.345.116.149.197.334.228.518h5.978c.031-.183.112-.368.228-.517.157-.202.378-.345.627-.345h.305l.296-19.926h-.175c-.204-.0001-.389-.084-.522-.217-.134-.134-.218-.319-.218-.523v-.0001c.0001-.203.084-.388.217-.521.088-.088.197-.154.319-.189v-.779h-8.142v.779m12.43 0c.122.035.231.101.318.188.134.134.218.319.218.523v.0001c-.0001.204-.084.389-.217.522-.134.134-.319.217-.523.217h-.165l.296 19.926h.304c.25.0001.471.144.627.345.116.149.197.334.228.518h5.978c.031-.183.112-.368.228-.517.157-.202.378-.345.627-.345h.305l.296-19.926h-.175-.002c-.203-.0001-.388-.084-.521-.217-.134-.134-.218-.319-.218-.523v-.0001c.0001-.203.084-.388.217-.521.088-.088.197-.154.319-.189v-.779h-8.142v.779m12.432 0c.122.035.231.101.318.188.134.134.218.319.218.523v.0001c-.0001.204-.084.389-.217.522-.134.134-.319.217-.523.217h-.165l.296 19.926h.304c.25.0001.471.144.627.345.116.149.197.334.228.518h5.978c.031-.183.113-.368.228-.518.156-.202.378-.344.626-.345h.305l.296-19.926h-.165c-.204-.0001-.389-.084-.524-.218-.133-.133-.216-.318-.217-.521v-.0001c.0001-.204.084-.389.218-.523.087-.087.196-.153.318-.188v-.779h-8.152v.779" fill="url(#F)"/><path transform="matrix(.80725 0 0 .80725-35.16-54.32)" fill="#fceb39" d="m147.94 194.77h-86.24v1.58h86.24z"/><path d="m24.548 83.15l4 3.412h-8l4-3.412m0 1.217l-1.25 1.066h2.501l-1.25-1.066"/><path d="m24.548 83.52l-3.23 2.754h6.46l-3.23-2.754m0 .47l2.022 1.724h-4.045l2.022-1.724" fill="#fff"/><path d="m37 83.15l4 3.412h-8l4-3.412m0 1.217l-1.25 1.066h2.501l-1.25-1.066"/><path d="m37 83.52l-3.23 2.754h6.46l-3.23-2.754m0 .47l2.022 1.724h-4.045l2.022-1.724" fill="#fff"/><path d="m49.45 83.15l4 3.412h-8l4-3.412m0 1.217l-1.25 1.066h2.501l-1.25-1.066"/><path d="m49.45 83.52l-3.23 2.754h6.46l-3.23-2.754m0 .47l2.022 1.724h-4.045l2.022-1.724" fill="#fff"/><path d="m61.904 83.15l4 3.412h-8l4-3.412m0 1.217l-1.25 1.066h2.501l-1.25-1.066"/><path d="m61.904 83.52l-3.23 2.754h6.46l-3.23-2.754m0 .47l2.022 1.724h-4.045l2.022-1.724" fill="#fff"/><path d="m74.36 83.15l4 3.412h-8l4-3.412m0 1.217l-1.25 1.066h2.501l-1.25-1.066"/><g fill="#fff"><path d="m74.36 83.52l-3.23 2.754h6.46l-3.23-2.754m0 .47l2.022 1.724h-4.045l2.022-1.724"/><g transform="matrix(.80725 0 0 .80725-35.16-54.32)"><path d="m62.752 156.46h84.13l.6-.85h-85.33z"/><path d="m146.59 156.86h-83.55l.62.88h82.31z"/></g></g><g fill="#fceb39" transform="matrix(.80725 0 0 .80725-35.16-54.32)"><path d="m145.87 161.64h-82.11v.74h82.11z"/><path d="m145.87 162.78h-82.11v2.68h82.11z"/><path d="m63.756 161.24h82.11v-3.1h-82.11z"/></g></g><path d="m34.478 87.66h5.01v9.115h-5.01z"/><g fill="#ff7f00"><path d="m34.763 93.83h2.077v2.658h-2.077z"/><path d="m37.12 93.83h2.077v2.658h-2.077z"/></g><g fill="#f60"><path d="m34.763 90.89h2.077v2.658h-2.077z"/><path d="m37.12 90.89h2.077v2.658h-2.077z"/></g><g fill="#f40"><path d="m34.763 87.95h2.077v2.658h-2.077z"/><path d="m37.12 87.95h2.077v2.658h-2.077z"/></g><path d="m22.01 87.66h5.01v9.115h-5.01z"/><g fill="#ff7f00"><path d="m22.293 93.83h2.077v2.658h-2.077z"/><path d="m24.655 93.83h2.077v2.658h-2.077z"/></g><g fill="#f60"><path d="m22.293 90.89h2.077v2.658h-2.077z"/><path d="m24.655 90.89h2.077v2.658h-2.077z"/></g><g fill="#f40"><path d="m22.293 87.95h2.077v2.658h-2.077z"/><path d="m24.655 87.95h2.077v2.658h-2.077z"/></g><path d="m46.948 87.66h5.01v9.115h-5.01z"/><g fill="#ff7f00"><path d="m47.23 93.83h2.077v2.658h-2.077z"/><path d="m49.594 93.83h2.077v2.658h-2.077z"/></g><g fill="#f60"><path d="m47.23 90.89h2.077v2.658h-2.077z"/><path d="m49.594 90.89h2.077v2.658h-2.077z"/></g><g fill="#f40"><path d="m47.23 87.95h2.077v2.658h-2.077z"/><path d="m49.594 87.95h2.077v2.658h-2.077z"/></g><path d="m59.42 87.66h5.01v9.115h-5.01z"/><g fill="#ff7f00"><path d="m59.702 93.83h2.077v2.658h-2.077z"/><path d="m62.06 93.83h2.077v2.658h-2.077z"/></g><g fill="#f60"><path d="m59.702 90.89h2.077v2.658h-2.077z"/><path d="m62.06 90.89h2.077v2.658h-2.077z"/></g><g fill="#f40"><path d="m59.702 87.95h2.077v2.658h-2.077z"/><path d="m62.06 87.95h2.077v2.658h-2.077z"/></g><path d="m71.887 87.66h5.01v9.115h-5.01z"/><g fill="#ff7f00"><path d="m72.17 93.83h2.077v2.658h-2.077z"/><path d="m74.53 93.83h2.077v2.658h-2.077z"/></g><g fill="#f60"><path d="m72.17 90.89h2.077v2.658h-2.077z"/><path d="m74.53 90.89h2.077v2.658h-2.077z"/></g><g fill="#f40"><path d="m72.17 87.95h2.077v2.658h-2.077z"/><path d="m74.53 87.95h2.077v2.658h-2.077z"/></g><g fill-rule="nonzero"><g fill="url(#E)"><path d="m83.43 102.59c-.027-.113-.082-.226-.155-.321-.1-.129-.232-.22-.372-.22h-4.742c-.14 0-.273.091-.373.22-.073.095-.128.208-.155.32h5.797"/><path d="m82.46 80.64h-3.88c-.115-.0001-.22.047-.295.122-.076.076-.123.18-.123.294v.0001c-.0001.115.047.219.122.295.077.076.181.123.294.123h.002 3.88c.115.0001.22-.047.295-.122.076-.076.123-.18.123-.294v-.0001c.0001-.114-.047-.219-.122-.295-.076-.076-.18-.123-.294-.123h-.002"/></g><g fill="url(#D)"><path d="m70.996 102.59c-.027-.113-.082-.226-.155-.321-.1-.129-.232-.22-.372-.22h-4.742c-.14 0-.273.091-.373.22-.073.095-.128.208-.155.32h5.797"/><path d="m70.03 80.64h-3.88c-.115-.0001-.22.047-.295.122-.076.076-.123.18-.123.294v.0001c-.0001.115.047.219.122.295.077.076.181.123.294.123h.002 3.88c.115.0001.22-.047.295-.122.076-.076.123-.18.123-.294v-.0001c.0001-.114-.047-.219-.122-.295-.076-.076-.18-.123-.294-.123h-.002"/></g><g fill="url(#C)"><path d="m58.57 102.59c-.027-.113-.082-.226-.155-.321-.1-.129-.232-.22-.372-.22h-4.742c-.14 0-.273.091-.373.22-.074.095-.128.208-.155.32h5.797"/><path d="m57.6 80.64h-3.88c-.115-.0001-.22.047-.295.122-.076.076-.123.18-.123.294v.0001c-.0001.115.047.219.122.295.077.076.181.123.294.123h.002 3.88c.115.0001.22-.047.295-.122.076-.076.123-.18.123-.294v-.0001c.0001-.114-.047-.219-.122-.295-.076-.076-.18-.123-.294-.123"/></g><g fill="url(#B)"><path d="m46.13 102.59c-.027-.113-.082-.226-.155-.321-.1-.129-.232-.22-.372-.22h-4.742c-.14 0-.273.091-.373.22-.074.095-.128.208-.155.32h5.797"/><path d="m45.17 80.64h-3.88c-.115-.0001-.22.047-.295.122-.076.076-.123.18-.123.294v.0001c-.0001.115.047.219.122.295.077.076.181.123.294.123h.0001 3.88c.115.0001.22-.047.295-.122.076-.076.123-.18.123-.294v-.0001c.0001-.114-.047-.219-.122-.295-.076-.076-.18-.123-.294-.123h-.0001"/></g><g fill="url(#A)"><path d="m33.704 102.59c-.027-.113-.082-.226-.155-.321-.1-.129-.232-.22-.372-.22h-4.742c-.14 0-.273.091-.373.22-.074.095-.128.208-.155.32h5.797"/><path d="m32.74 80.64h-3.88c-.115-.0001-.22.047-.295.122-.076.076-.123.18-.123.294v.0001c-.0001.115.047.219.122.295.077.076.181.123.294.123h.0001 3.88c.115.0001.22-.047.295-.122.076-.076.123-.18.123-.294v-.0001c.0001-.114-.047-.219-.122-.295-.076-.076-.18-.123-.294-.123h-.002"/></g><g fill="url(#9)"><path d="m21.273 102.59c-.027-.113-.082-.226-.155-.321-.1-.129-.232-.22-.372-.22h-4.742c-.14 0-.273.091-.373.22-.074.095-.128.208-.155.32h5.797"/><path d="m20.31 80.64h-3.88c-.115-.0001-.22.047-.295.122-.076.076-.123.18-.123.294v.0001c-.0001.115.047.219.122.295.077.076.181.123.294.123h.0001 3.88c.115.0001.22-.047.295-.122.076-.076.123-.18.123-.294v-.0001c.0001-.114-.047-.219-.122-.295-.076-.076-.18-.123-.294-.123h-.0001"/></g><path d="m78.78 101.72h3.49l-.016-1.088h-3.457l-.016 1.088m3.469-1.411l-.257-17.276h-2.934l-.257 17.276h3.448m-.275-18.515h-2.897l-.014.916h2.924l-.014-.916" fill="url(#8)"/><path d="m66.35 101.72h3.49l-.016-1.088h-3.457l-.016 1.088m3.469-1.411l-.257-17.276h-2.934l-.257 17.276h3.448m-.275-18.515h-2.897l-.014.916h2.924l-.014-.916" fill="url(#7)"/><path d="m53.922 101.73h3.49l-.016-1.088h-3.457l-.016 1.088m3.469-1.411l-.257-17.276h-2.934l-.257 17.276h3.448m-.275-18.515h-2.897l-.014.916h2.924l-.014-.916" fill="url(#6)"/><path d="m41.491 101.72h3.49l-.016-1.088h-3.457l-.016 1.088m3.469-1.411l-.257-17.276h-2.934l-.257 17.276h3.448m-.275-18.515h-2.897l-.014.916h2.924l-.014-.916" fill="url(#5)"/><path d="m29.06 101.72h3.49l-.016-1.088h-3.457l-.016 1.088m3.469-1.411l-.257-17.276h-2.934l-.257 17.276h3.448m-.275-18.515h-2.897l-.014.916h2.924l-.014-.916" fill="url(#4)"/><path d="m16.63 101.72h3.49l-.016-1.088h-3.457l-.016 1.088m3.469-1.411l-.257-17.276h-2.934l-.257 17.276h3.448m-.275-18.515h-2.897l-.014.916h2.924l-.014-.916" fill="url(#3)"/><g transform="matrix(.80725 0 0 .80725-35.16-54.32)"><g fill="#fff"><path d="m141.06 166.79h4.51v-.93h-4.51z"/><path d="m125.65 166.79h4.51v-.93h-4.51z"/><path d="m110.25 166.79h4.52v-.93h-4.52z"/><path d="m94.85 166.79h4.52v-.93h-4.52z"/><path d="m79.45 166.79h4.517v-.93h-4.517z"/><path d="m64.06 166.79h4.51v-.93h-4.51z"/></g><path fill="url(#M)" d="m63.756 158.14v3.1h82.11v-3.1z"/></g></g></svg>