<svg xmlns="http://www.w3.org/2000/svg" width="300.03" height="368.38" viewBox="0 0 84.675461 103.96476" fill-rule="evenodd"><path d="m62.59 49.669c.828 0 1.5.672 1.5 1.5v1.5c0 .828-.672 1.5-1.5 1.5h-1.5v-4.5h1.5m0 6c1.657 0 3-1.343 3-3v-1.5c0-1.657-1.343-3-3-3h-3v7.5h3m-6-7.5h1.5v7.5h-1.5v-7.5m-3 0h1.5v7.5h-1.5l-3-4.709v4.709h-1.5v-7.5h1.5l3 4.709v-4.709m-22.5 0h4.5v1.5h-3v1.5h3v1.5h-3v1.5h3v1.5h-4.5v-7.5m-6 0h1.5v6h3v1.5h-4.5v-7.5m15.75 6h1.5c1.242 0 2.25-1.01 2.25-2.25 0-1.242-1.026-2.246-2.25-2.25h-1.5v1.5h1.5c.414 0 .75.336.75.75 0 .414-.336.75-.75.75h-1.5v1.5m1.5-7.5c2.899 0 5.25 2.351 5.25 5.25 0 2.899-2.351 5.25-5.25 5.25-2.899 0-5.25-2.351-5.25-5.25 0-2.899 2.351-5.25 5.25-5.25m0 1.5c2.071 0 3.75 1.679 3.75 3.75 0 2.071-1.679 3.75-3.75 3.75-2.071 0-3.75-1.679-3.75-3.75 0-2.071 1.679-3.75 3.75-3.75" fill="#a90000"/><g transform="matrix(1.20001 0 0 1.19844-83.66-125.95)"><g stroke="#000" stroke-width=".353"><path d="m105 105.26c-14.23 0-26.843 1.849-35.1 4.741v16.58c2.25 2.193 3.648 5.255 3.648 8.645 0 3.389-1.398 6.452-3.648 8.644.02 13.901 4.688 24.1 12.992 31.902 6.782 6.368 16.705 8.998 22.11 15.797 5.404-6.798 15.328-9.429 22.11-15.797 8.304-7.797 12.972-18 12.992-31.902-2.25-2.192-3.648-5.255-3.648-8.644 0-3.389 1.398-6.452 3.648-8.645v-16.58c-8.258-2.891-20.872-4.741-35.1-4.741z" fill="#fff"/><path d="m105 107.51c-13.699 0-25.722 1.778-32.98 4.495v13.419c2.39 2.57 3.852 6.01 3.852 9.799 0 3.785-1.463 7.229-3.852 9.799.275 12.589 4.59 22.313 12.679 29.361 6.284 5.475 15.826 8.53 20.301 13.983 4.475-5.453 14.02-8.508 20.301-13.983 8.089-7.05 12.404-16.772 12.679-29.361-2.39-2.57-3.852-6.01-3.852-9.799 0-3.785 1.463-7.229 3.852-9.799v-13.419c-7.258-2.717-19.281-4.495-32.98-4.495z" fill="#0493dd"/><path fill="#fff" d="m91.53 117.03h-2.8l-.8-.99v3.2h2.55v2.33h-2.55v1.59h2.55v2.32h-2.55v2.89h-1.7v-2.89h-2.55v-2.32h2.55v-1.59h-2.55v-2.33h2.55v-3.2l-.79.99h-2.81l4.45-5.58z"/></g><path d="m84.18 169.13c.211-.781 1.043-1.066 1.804-1l-.045 1.137c-.506-.313-1.137-.262-1.759-.136"/><path d="m84.931 167.19c.395-.707 1.271-.78 1.994-.532l-.321 1.092c-.415-.427-1.039-.531-1.673-.56"/><path d="m89.09 173.21c-.334-.737.128-1.485.757-1.92l.688.907c-.59.08-1.044.52-1.445 1.013"/><path d="m96.22 173.68c.783-.204 1.075-1.033 1.017-1.796l-1.138.035c.308.509.252 1.139.12 1.76"/><path d="m121.79 172.95c.101-.803-.562-1.381-1.291-1.61l-.388 1.07c.587-.098 1.151.187 1.68.54"/><path d="m108.57 170.94c.11-.802.899-1.189 1.663-1.222l.099 1.134c-.541-.246-1.161-.116-1.762.088"/><path d="m108.85 173.08c-.031-.809.678-1.328 1.424-1.493l.295 1.099c-.576-.148-1.163.088-1.72.394"/><path d="m111.41 175.37c-.393-.708.006-1.491.598-1.975l.76.848c-.581.128-.999.603-1.357 1.128"/><path d="m88.2 137.45c.77-.25 1.462.292 1.824.966l-.978.583c-.014-.595-.4-1.096-.846-1.548"/><path d="m85.04 141.53c.414-.696 1.291-.745 2.01-.478l-.35 1.083c-.403-.438-1.024-.559-1.657-.605"/><path d="m86.47 145.71c-.084-.805.59-1.369 1.324-1.583l.366 1.078c-.585-.11-1.155.163-1.691.505"/><path d="m90.93 146.98c.785.196 1.438-.394 1.752-1.091l-1.016-.513c.028.594-.323 1.121-.736 1.604"/><g fill="#fcf504"><path d="m100.01 121.77c1.073 1.414 3.175 1.282 5.487 1.292 1.051.004 2.169-.011 3.283.164-.801.053-2.086.163-3.459.343-2.447.321-5.309.997-5.311-1.799z" stroke="#000" stroke-width=".4"/><path d="m84.82 130.83c.052-.152.168-.287.351-.361.169-.068.574-.131 1-.167l-.018-.068c-.341.011-.682-.006-1.026-.022-.095-.005-.19-.009-.283-.013-.312-.013-.504-.19-.582-.408-.06-.167-.053-.36.022-.521.094-.204.293-.356.59-.341.173.009.339.019.505.029.215.013.429.027.642.036-.097-.025-.193-.056-.288-.091-.315-.116-.506-.38-.572-.652-.029-.12-.034-.242-.015-.353.02-.114.064-.218.134-.301.112-.133.287-.209.524-.18.478.058.949.102 1.416.116.465.013.929-.003 1.395-.066.335-.143.645-.214.924-.214.295 0 .555.078.775.231.218.152.395.378.522.674.146.34.228.773.234 1.295 1.621-.405 3.172-.566 4.651-.45 1.49.118 2.908.518 4.254 1.237.639-.691 1.527-1.258 2.736-1.665.109-.29.237-.555.382-.796.148-.246.315-.467.499-.665.943-1.013 2.335-1.392 4.03-1.247.029.003.057.003.084.003.264-.005.486-.142.647-.33.161-.189.26-.427.278-.633-1.113.43-2.042.664-2.679.588-.673-.08-1.026-.495-.941-1.368l.002-.019.013-.013.012-.011c.029-.027.06-.054.092-.079.033-.026.068-.051.107-.076.192-.123.448-.22.769-.213l.058.0001-.001.057c-.055.324.11.475.404.524.444.075 1.17-.067 1.896-.21.153-.03.305-.06.466-.09.044-.778-.284-1.186-.84-1.396-.578-.218-1.402-.227-2.309-.211h-.033c-.189.004-.38.013-.566.021-.544.025-1.042.048-1.368-.057-.338-.109-.493-.346-.336-.832l.025-.077c.1-.302.191-.579.011-.847l-.0001-.002c-.032-.049-.063-.099-.09-.15-.027-.051-.052-.104-.072-.157-.106-.281-.096-.574.172-.803l.013-.001c.084-.071.176-.137.273-.198.098-.061.203-.117.314-.169.528-.245 1.193-.379 1.897-.378l-.045-.019c.454-1.041 1.28-1.599 2.352-1.838 1.057-.236 2.353-.16 3.765.067.12-.128.221-.285.309-.463.093-.188.171-.4.239-.627l.022-.073.058.049c.245.206.414.416.527.65.106.219.162.459.187.737.124-.025.248-.069.359-.141.126-.081.236-.201.311-.374l.026-.059.051.039c.187.144.319.312.41.495.086.172.136.359.162.554.047.014.101.036.16.065.066.033.138.075.212.126.377.259.82.748.83 1.377h-.016c.315.363.52.874.528 1.478h-.037c.415.454.593 1.033.377 1.7.191.382.291.786.382 1.152l.023.094.014.056-.058.005h-.006c-.029.002-.059.003-.09.002-.031-.0001-.061-.004-.09-.008-.105-.015-.209-.05-.302-.099.046.177.072.356.081.537.025.502-.084 1.018-.27 1.522-.052.141-.118.315-.183.489-.351.934-.704 1.875-.892 2.889l-.024.132-.068-.115c-.377-.644-.753-1.113-1.128-1.406l.017.183c.125 1.337.25 2.684-.707 3.745-.428.475-.733 1.01-.904 1.604-.172.598-.211 1.262-.109 1.998l.012.084-.079-.031c-.202-.079-.404-.202-.606-.395-.183-.175-.366-.408-.548-.718-.102.263-.159.526-.189.79-.034.297-.034.594-.025.891l.003.092-.006-.004c-.016 1.014-.073 2.047-.156 3.092-.087 1.088-.202 2.19-.33 3.299.42.705.729 1.336.979 1.984.251.652.443 1.321.627 2.102.422 1.792 1.096 3.403 1.907 4.188.156.151.317.272.482.356.163.083.33.132.5.141h.015c.147.006.282-.005.406-.03.495-.1.823-.435 1.033-.887.213-.459.305-1.04.328-1.624.032-.827-.076-1.659-.178-2.165-.229-1.129-.598-2.199-.965-3.264-.579-1.68-1.155-3.35-1.177-5.242-.017-1.433.364-3.34 1.496-4.369.223-.203.476-.373.761-.497.284-.125.601-.205.951-.231l.064-.004c1.286-.068 2.102.578 2.634 1.495.522.899.768 2.059.915 3.054.464.152.846.506 1.067 1.01.044.099.081.205.112.316.031.111.055.227.071.348v.005c.09.677-.142 1.29-.558 1.647-.081.07-.17.13-.265.179-.014.008-.029.015-.044.022-.043.435.008 1.014.084 1.503.015.096.031.191.048.28.017.089.034.172.05.247l.0001.005.029.128-.106-.077c-.245-.177-.438-.423-.591-.72-.147-.286-.258-.619-.344-.984-.571-.052-1.093-.451-1.393-1.036-.06-.117-.111-.241-.151-.37-.04-.129-.071-.265-.091-.406l-.002-.012c-.09-.677.13-1.27.507-1.662.074-.077.153-.146.237-.206.074-.053.152-.099.233-.138-.089-.355-.203-.737-.325-1.083-.025-.071-.05-.139-.075-.205-.026-.068-.051-.132-.076-.192v-.002c-.139-.336-.346-.598-.59-.777-.198-.144-.42-.234-.651-.263-.231-.03-.47.0001-.701.096-.278.115-.545.324-.772.636-1.477 2.025-.461 5.105.543 8.149l.045.135c.08.243.167.495.255.752.62 1.803 1.346 3.917.788 5.683v.002c-.198.625-.523 1.141-.932 1.539-.465.453-1.038.754-1.653.892-.614.137-1.27.111-1.902-.089-.579-.183-1.139-.513-1.628-.997l-.12.329c-.253.692-.52 1.421-.708 2.132-.51 1.922-.449 3.727 2 4.377 1.031.273 1.976.588 2.776.986.804.399 1.463.884 1.919 1.495l.078.105-.128-.026c-.51-.105-1.012-.177-1.499-.206-.403-.024-.797-.019-1.177.023.471.151.898.356 1.26.636.42.326.751.756.96 1.328l.036.099-.099-.034c-.519-.18-1.037-.334-1.553-.31.534 1.309.993 2.623 1.311 3.952.318 1.328.494 2.67.463 4.03l.055-.021c.428-.162.857-.324 1.352-.31.562.015 1.08.242 1.336.69.051.089.092.188.12.294.028.106.044.221.047.345v.052c-.0001.052-.006.104-.016.155-.06.313-.285.642-.564.891-.281.25-.62.421-.908.418-.04 0-.079-.004-.117-.011-.46-.089-.919-.377-1.285-.705-.072-.064-.139-.13-.202-.195-.049-.05-.094-.101-.138-.151-.596.829-1.174 1.577-1.881 2.06-.726.496-1.586.714-2.735.455-.533-.098-.891-.34-1.082-.638-.114-.179-.168-.378-.164-.579.002-.114.024-.229.064-.341-.635.21-1.204.025-1.57-.313-.145-.134-.259-.292-.332-.458-.074-.168-.108-.345-.094-.517.016-.187.089-.366.23-.518l-.001.005c-.192-.356-.272-.673-.261-.946.012-.286.125-.522.313-.702.186-.178.446-.301.757-.361.467-.091 1.051-.041 1.671.17l.478.163c1.064.364 2.196.751 3.273 1.066-.556-2.053-1.302-3.836-2.279-5.286-.974-1.446-2.179-2.561-3.657-3.285-.031.418-.268.815-.634 1.132-.077.066-.159.129-.247.188-.088.059-.18.113-.276.163l-.047.024-.093.047.022-.102c.125-.577.135-1.214.029-1.907-.477 1.158-1.086 1.746-1.826 1.763l-.078.002.032-.072c.359-.808.661-1.603.716-2.37.055-.761-.135-1.497-.759-2.194-1.487-1.662-2.539-3.364-2.983-5.133-.066-.265-.119-.531-.158-.799-.513.178-.987.263-1.461.286-.477.024-.954-.015-1.473-.083h-.005c-.138-.018-.269-.027-.392-.028-.123 0-.24.007-.351.023-.563.079-.959.361-1.232.753-.841 1.207-.519 2.294-.149 3.536l.006.021c.229.77.4 1.54.522 2.311.12.76.191 1.52.22 2.28.779.386 1.243.936 1.486 1.605.245.673.264 1.465.156 2.332l-.016.13-.075-.108c-.246-.356-.458-.619-.693-.845-.192-.185-.4-.347-.655-.515.038.068.073.136.107.204.063.129.118.261.165.394.242.684.266 1.412.036 2.185l-.037.124-.056-.117c-.18-.376-.361-.698-.556-.976-.301.135-.603.207-.906.215-.063.002-.126 0-.188-.003-.055-.003-.11-.009-.164-.016-.392.479-.783.912-1.175 1.312-.38.388-.759.744-1.138 1.079.693.37 1.169.79 1.414 1.245.05.092.09.186.121.282.031.095.052.192.064.29v.005c.048.424-.027.789-.184 1.071-.132.238-.323.418-.547.527-.224.109-.483.148-.751.103-.313-.052-.638-.218-.938-.518-.438-.438-.629-1.068-.649-1.627-.004-.109-.0001-.216.007-.316.003-.04.008-.081.013-.119-.492.547-.985 1.063-1.479 1.491-.534.463-1.07.824-1.607 1.01h-.002c-.565.169-1.05.148-1.403-.014-.069-.032-.134-.069-.193-.112-.059-.042-.112-.09-.159-.142l-.002-.002c-.225-.25-.331-.503-.347-.748-.02-.307.103-.601.313-.86.197-.243.471-.458.776-.626-.748.105-1.526.168-2.289.191-.175.005-.351.009-.525.001-.174.0001-.346 0-.516-.003h-.032c-.091-.002-.177-.007-.26-.017-.439-.05-.788-.206-1.025-.427-.24-.224-.368-.515-.362-.834.0001-.037.003-.075.007-.111.008-.073.02-.143.036-.208.1-.432.345-.705.667-.867l-.034-.009c.104-.376.362-.791.726-1.145.32-.312.724-.578 1.177-.729.455-.152.96-.19 1.483-.045.483.134.98.423 1.466.921.266.216.511.41.741.588.231.179.442.339.64.487l.002.0001c.379.305.758.563 1.132.633.368.07.736-.043 1.107-.473l.0001-.002.003-.002c.4-.365.796-.744 1.176-1.175.378-.429.739-.909 1.07-1.477.541-1.509.827-2.969.688-4.308-.137-1.318-.686-2.522-1.809-3.542-.464.834-1.305 1.447-2.157 1.528-.171.016-.342.011-.51-.017-.169-.029-.336-.081-.497-.159l-.002-.0001-.074-.037.067-.048c.106-.075.21-.147.314-.218.718-.492 1.428-.978 1.823-2.249-.416.379-.824.665-1.218.81-.444.163-.872.15-1.275-.108l-.066-.042.066-.042c.852-.544 1.488-1.24 1.759-2.118.053-.171.092-.35.116-.535.024-.185.033-.378.026-.578v-.015c-.008-.202-.023-.409-.037-.615-.083-1.166-.165-2.314.934-3.205.584-.474 1.351-.615 2.169-.574.813.04 1.677.258 2.463.505.079.025.167.055.255.086.602.208 1.239.429 1.687-.42.304-.577.626-1.1.961-1.591.33-.483.674-.934 1.028-1.372-.937-1.371-1.863-2.887-2.474-4.506-.246-.287-.454-.586-.619-.898-.301-.568-.46-1.179-.456-1.839-.181-.068-.362-.12-.543-.156-.151-.031-.303-.051-.454-.063.341.407.612.827.799 1.26.201.467.305.951.293 1.455l-.002.075-.068-.03c-2.243-.986-5.183.143-6.554.67l-.169.065c.007.079.016.17.026.268.053.527.127 1.253.087 1.922-.06.994-.37 1.863-1.358 1.803-.055-.003-.106-.012-.153-.026-.255-.075-.407-.292-.49-.573-.08-.272-.096-.605-.076-.925.017-.275.059-.541.107-.751-.419.401-1.075.959-1.749 1.303-.348.177-.701.298-1.031.312-.336.014-.647-.082-.902-.339-.105-.106-.201-.239-.284-.402-.087-.17-.137-.328-.155-.476-.051-.415.15-.738.489-.987.331-.243.796-.415 1.287-.535l.099-.023c-.203.004-.419.001-.636.016-.502.015-1 .03-1.322.009l-.021-.0001c-.423-.03-.685-.267-.802-.578-.056-.149-.079-.316-.07-.484.009-.168.05-.338.121-.495.175-.389.532-.701 1.042-.711.638-.013 1.289.026 1.947.1.316.036.635.08.954.13-.599-.275-1.265-.59-1.591-1.067v-.0001c-.213-.312-.248-.644-.162-.943.061-.213.182-.409.343-.569.16-.16.36-.284.578-.354.339-.109.722-.088 1.069.133.554.353 1.062.965 1.524 1.762.089.154.177.315.264.483.079.154.157.314.234.478 1.957-.895 3.523-1.88 4.677-2.959 1.16-1.084 1.905-2.264 2.215-3.542l.001.002c.022-.24.048-.456.078-.637-.05.03-.1.061-.149.095-.325.224-.656.551-.916.953l-.089.138-.003-.164c-.006-.345.003-.682.031-1.01-.235-.158-.497-.315-.78-.465-.29-.153-.602-.3-.932-.436-1.695-.701-3.852-1.121-5.781-.707-.416.089-.731.269-1.046.449-.265.151-.53.303-.858.403l-.009.003c-.068.02-.138.038-.208.051-.07.013-.139.022-.207.026-.355.022-.69-.079-.933-.371l.006-.005-.25.032c-.309.04-.685.089-.958.113-.314.028-.548-.097-.677-.269-.053-.071-.088-.15-.104-.23-.016-.082-.012-.165.013-.242.05-.154.183-.283.412-.333.077-.017.16-.033.246-.049l-.015-.056c-.339.038-.665.061-1.051.057-.234-.002-.41-.093-.522-.224-.07-.082-.116-.179-.136-.28-.019-.101-.013-.207.02-.305z" fill-rule="nonzero"/></g><path d="m92.23 169.53c-1.226-.263-3.645 1.156-2.424 2.514.321.357.936.487 1.706.256 1.06-.367 2.12-1.428 3.181-2.616-.139.633-.001 1.594.585 2.19 1.085 1.085 2.505.367 2.334-1.142-.077-.678-.635-1.297-1.637-1.817.793-.698 1.586-1.482 2.379-2.454.438.066.876-.005 1.315-.213m4.412-13.492c-1.026.359-1.893.341-2.924.205-1-.132-1.636.208-2.027.769-.86 1.234-.525 2.336-.15 3.6.457 1.536.684 3.073.74 4.609 1.565.761 1.855 2.18 1.642 3.899-.496-.718-.855-1.06-1.539-1.488.556.889.727 1.864.41 2.924-.393-.821-.787-1.385-1.334-1.796m-6.925 3.181c-1.385-.216-2.645-.863-3.737-1.104-1.108-.245-2.521-.249-2.676 1.104-.082.715.525 1.314 1.59 1.334 1.215.023 2.531-.06 3.745-.256m12.774-23.444c-.718.889-1.394 1.825-2 2.975-.532 1.01-1.31.576-2 .359-1.566-.492-3.439-.87-4.586.06-1.271 1.031-.932 2.424-.879 3.78.058 1.455-.721 2.523-1.923 3.291.778.496 1.65.052 2.565-.821-.441 1.615-1.349 2.055-2.206 2.668 1.119.546 2.505-.206 3.129-1.385 2.33 2.078 2.27 4.916 1.18 7.952-.667 1.147-1.453 1.933-2.257 2.668-.769.893-1.539.464-2.308-.154-.402-.299-.846-.641-1.385-1.077-2.101-2.159-4.406-.343-4.771.975m22.316-39.45c-.159 1.687.76 2.143 1.063 3.778 1.164-1.516 2.47-3.31 2.05-5.28-.163-.766-.349-1.398-.215-1.994.372.813.868 1.178 1.655 1.258.487.049.978.241 1.468.669.123-.71.079-1.497-.274-2.108-.364-.631-.628-1.285-.771-2.02m-3.847 9.285c-.205 2.138.205 3.523 1.231 4.155-.018-.599-.0001-1.197.257-1.796.393.701.787 1.026 1.18 1.18-.205-1.488.159-2.681 1.026-3.642 1.012-1.122.793-2.58.667-4 .41.291.821.787 1.231 1.488.222-1.197.672-2.288 1.077-3.386.368-.996.43-2.035-.257-2.924m-15.08 13.441c-2.13 3.634-.214 6.05 3.54 7.9-.549-3.202-.498-6.135 1.693-8.105.632.908 1.349 1.695 2.668 1.642-.718-1.231-.752-2.531-.103-3.899m-2.052-4.822c.12.855-.171 1.864-.564 2.719 1.351-.239 1.881-1.248 2.822-1.488m-2.103-2.822c-2.02 0-3.42.684-4.207 2.052 1.026-.094 1.898-.06 2.924.256-2.575.947-5.01 1.772-5.87 3.887 1.94-.595 2.956.435 4.588-1.168m-3.181 9.285c.891 2.408 2.49 4.592 3.796 6.412-1.882 3.839-.655 7.306 2.308 10.619 1.268 1.417.772 2.992.051 4.617.752-.017 1.368-.65 1.847-1.898.137.769.137 1.47 0 2.103.692-.341 1.171-.923 1.18-1.539 3.035 1.453 4.933 4.531 6.05 8.721-1.267-.367-2.613-.838-3.838-1.255-1.807-.616-3.291.16-2.421 1.768m5.797.154c-1.89-.714-3.668-.928-5.284-.41-1.59.53-.329 2.673 1.333 1.986m4.259-.806c-.607-.06-1.971-.215-3.02-.024-1.719.313-1.863 2.124-.159 2.435 2.267.511 3.389-.855 4.602-2.547.385.46 1.01.961 1.638 1.082.597.115 1.538-.729 1.546-1.403.001-.878-.677-1.311-1.454-1.333-.533-.015-.992.18-1.457.353.078-2.773-.706-5.449-1.796-8.105.547-.043 1.094.118 1.642.308-.411-1.125-1.302-1.69-2.411-2 .909-.137 1.898-.057 2.924.154-.902-1.21-2.612-1.917-4.668-2.462-3.581-.949-2.142-4.317-1.18-6.977 1.994 2.045 5.235 1.425 6.087-1.269.634-2-.404-4.469-1.043-6.406-1.022-3.101-2.095-6.254-.581-8.33.864-1.184 2.29-.922 2.801.318.183.444.362 1.017.488 1.529-.645.293-1.108 1.053-.986 1.972.131.987.834 1.733 1.627 1.784.172.75.448 1.367.924 1.71-.121-.543-.249-1.458-.182-2.073m-.225.071c.728-.172 1.211-.965 1.09-1.885-.113-.851-.601-1.448-1.246-1.646-.293-1.995-.976-4.671-3.501-4.538-2.496.132-3.248 3.054-3.225 5.05.036 3.08 1.549 5.579 2.141 8.497.268 1.323.569 4.852-1.639 4.766-1.268-.049-2.358-2.211-2.95-4.724-.367-1.558-.763-2.668-1.609-4.086.258-2.227.465-4.429.489-6.54m-10.983-2.334c-.436.198-.943.617-1.309 1.185-.05-2.72.877-4.972 4.141-6.06.781-2.097 2.531-2.898 4.872-2.698.644.055 1.07-.624 1.066-1.084-2.275.89-3.788.977-3.623-.701.189-.182.503-.376.944-.366-.166.98 1.47.531 2.862.274.118-1.661-1.371-1.732-3.197-1.698-1.298.024-2.604.28-2.253-.802.111-.343.239-.654.031-.966-.226-.338-.345-.751 0-1.046.581-.497 1.557-.771 2.609-.742 1.192.033 2.551.546 3.846 1.962m-3.989-2.01c.893-2.049 3.256-2.197 6.09-1.738.263-.27.44-.67.579-1.128.48.403.658.817.7 1.407.295-.049.603-.187.761-.553.361.279.508.645.557 1.049.328.076 1.183.669 1.198 1.53m-1.01-.528c.813.106 1.507.894 1.522 2.01m-1.218-.732c1.138.432 1.924 1.296 1.56 2.417m-4.01-3.24c1.285.811 2.757 1.737 3.635 2.716.485.54.636 1.225.78 1.798-.196.019-.418-.053-.574-.17m-16.351 15.1c-.672-1.25-.549-4.124-.337-5.181m-8.339 9.23c-.946-.043-4.852.245-3.871 2.169.896 1.756 3.167-.17 4.02-1.012-.191.649-.377 2.332.522 2.386 1.74.105 1.292-2.833 1.189-3.977 1.269-.482 4.416-1.793 6.796-.747.024-.992-.41-1.908-1.157-2.772.386.02.771.093 1.157.241m-8.604 2.097c-1.333-.253-2.659-.437-3.928-.41-1.293.027-1.558 2.078-.289 2.169.574.041 1.774-.041 2.482-.024m9.905-8.531c-.624 2.577-2.998 4.75-6.965 6.555-.591-1.281-1.265-2.262-2.024-2.747-1.063-.679-2.481.606-1.759 1.663.38.556 1.245.892 1.904 1.205m-2.226-10.293c-.537-.695-.537-1.346-.098-1.976-.895.37-1.877.471-2.757.146-.765-.282-.759-1.489.049-1.391.957.116 1.887.177 2.83.049 1.431-.616 2.391.128 2.391 2 3.278-.829 6.263-.667 8.955.781m-2.855 1.537c.569.049 1.106.455 1.61 1.22m-.098.586c-1.717-1.165-4.853-2.206-7.548-1.627-.775.166-1.196.635-1.908.853-.483.148-.98.114-1.305-.275m-.561-1.025c1.031-.144.977.945.537 1-.327.041-.857.114-1.22.146-.77.068-1.021-.829-.342-.976.295-.064.659-.12 1.025-.171zm-2.123-1.049c-.564.226-.43 1.066.268 1.074.629.007 1.1-.059 1.732-.146.81-.112.497-1.11-.22-1.122-.603-.011-1.509.086-1.781.195zm-.317-1.537c-.77-.039-.819 1.138-.024 1.171.658.028 1.304.081 1.952-.024.628-.102.53-1.09-.073-1.074-.622.017-1.225-.042-1.854-.073z" fill="none" stroke="#000" stroke-width=".4"/><path d="m107.94 118.48c.422 0 .763.342.763.763 0 .137-.037.266-.1.377-.464-.306-.926-.517-1.376-.651.11-.287.388-.49.713-.49"/></g></svg>