<svg xmlns="http://www.w3.org/2000/svg" xmlns:xlink="http://www.w3.org/1999/xlink" width="300.01" height="359.07" viewBox="0 0 84.670646 101.33719" fill-rule="evenodd"><defs><linearGradient id="A" gradientTransform="matrix(-7.94098-1.85723 1.91146-8.17284 186.7 536.15)" gradientUnits="userSpaceOnUse" x2=".84" x1=".16" xlink:href="#2"/><linearGradient id="D" gradientTransform="matrix(-11.89087-4.97729 5.8657-14.0133 185.77 543.48)" gradientUnits="userSpaceOnUse" x2=".71" x1=".29" xlink:href="#5"/><linearGradient id="B" gradientTransform="matrix(-7.98586-5.79969 5.72957-7.8893 181.58 546.41)" gradientUnits="userSpaceOnUse" x2=".72" x1=".28" xlink:href="#2"/><linearGradient id="O" gradientUnits="userSpaceOnUse" x1="143.17" y1="97.1" x2="130.27" y2="99.31"><stop stop-color="#f3c70d"/><stop offset=".628" stop-color="#ffe600"/><stop offset="1" stop-color="#ffe600"/></linearGradient><linearGradient id="G" gradientTransform="matrix(14.3527 19.37185-18.97805 14.0609 211.09 536.28)" gradientUnits="userSpaceOnUse" x2=".92" x1=".08" xlink:href="#0"/><linearGradient id="L" gradientTransform="matrix(1.31601 11.16948-14.40665 1.69741 202.44 515.86)" gradientUnits="userSpaceOnUse" x2=".74" x1=".26" xlink:href="#5"/><linearGradient id="H" gradientTransform="matrix(-17.69997-23.68273 23.0837-17.25231 206.79 573.8)" gradientUnits="userSpaceOnUse" x2=".9" x1=".1" xlink:href="#1"/><linearGradient id="K" gradientTransform="matrix(-18.0227-1.59653 1.95623-22.0833 225.62 550.33)" gradientUnits="userSpaceOnUse" x2=".86" x1=".14" xlink:href="#2"/><linearGradient id="I" gradientTransform="matrix(2.89333 9.91418-9.27526 2.70687 196.15 516.57)" gradientUnits="userSpaceOnUse" x2=".77" x1=".23" xlink:href="#2"/><linearGradient id="J" gradientTransform="matrix(-.80136 6.97297-6.55872-.75376 205.57 518.45)" gradientUnits="userSpaceOnUse" x2=".81" x1=".19" xlink:href="#2"/><linearGradient id="C" gradientTransform="matrix(15.1481-22.0445 23.66867 16.26413 138.58 547.8)" gradientUnits="userSpaceOnUse" x2=".75" x1=".25" xlink:href="#2"/><linearGradient id="9" gradientTransform="matrix(27.1779-3.50121 2.29938 17.84881 134.3 523.39)" gradientUnits="userSpaceOnUse" x2=".93" x1=".07" xlink:href="#1"/><linearGradient id="4" gradientTransform="matrix(18.45344 19.69878-19.41557 18.1881 174.41 473.22)" gradientUnits="userSpaceOnUse" x2=".75" x1=".25" xlink:href="#2"/><linearGradient id="2" gradientTransform="matrix(4.3253-9.0527 8.92611 4.26481 175.26 522.61)" gradientUnits="userSpaceOnUse" x2=".78" x1=".22"><stop stop-color="#fb0"/><stop offset=".22" stop-color="#e69900"/><stop offset=".46" stop-color="#ffe600"/><stop offset=".71" stop-color="#ff0"/><stop offset="1" stop-color="#ffe600"/></linearGradient><linearGradient id="0" gradientTransform="matrix(2.06212-22.34638 13.20042 1.21813 182.53 497.78)" gradientUnits="userSpaceOnUse" x2=".95" x1=".05"><stop stop-color="#a90000"/><stop offset=".39" stop-color="#c20000"/><stop offset="1" stop-color="#f00"/></linearGradient><linearGradient id="1" gradientTransform="matrix(-2.36143 26.81031-17.0442-1.50124 199.56 473.85)" gradientUnits="userSpaceOnUse" x2=".94" x1=".06"><stop stop-color="#ffcf00"/><stop offset="1" stop-color="#ffe600"/></linearGradient><linearGradient id="3" gradientTransform="matrix(7.2047-6.40492 6.43374 7.23712 167.52 514.84)" gradientUnits="userSpaceOnUse" x2=".72" x1=".28" xlink:href="#2"/><linearGradient id="8" gradientTransform="matrix(-22.43539 2.79527-1.74325-13.99163 161.77 535.71)" gradientUnits="userSpaceOnUse" x2=".95" x1=".05" xlink:href="#0"/><linearGradient id="5" gradientTransform="matrix(9.14568-13.019 13.38641 9.40378 168.02 520.51)" gradientUnits="userSpaceOnUse" x2=".67" x1=".33"><stop/><stop offset=".45" stop-color="#4c4c4c"/><stop offset="1" stop-color="#191919"/></linearGradient><radialGradient id="N" gradientUnits="userSpaceOnUse" r="31.739" cy="536.51" cx="201.21" xlink:href="#6"/><radialGradient id="M" gradientUnits="userSpaceOnUse" r="27.305" cy="535.26" cx="201.63" xlink:href="#6"/><radialGradient id="F" gradientUnits="userSpaceOnUse" r="32.518" cy="531.76" cx="167.68" xlink:href="#6"/><radialGradient id="7" gradientUnits="userSpaceOnUse" r="31.06" cy="504.54" cx="184.7" xlink:href="#6"/><radialGradient id="6" gradientUnits="userSpaceOnUse" r="27.398" cy="505.27" cx="183.59"><stop/><stop offset=".44" stop-color="#4c4c4c"/><stop offset=".44" stop-color="#4c4c4c"/><stop offset=".65"/><stop offset="1"/></radialGradient><radialGradient id="E" gradientUnits="userSpaceOnUse" r="26.03" cy="532.61" cx="168.78" xlink:href="#6"/></defs><path d="m62.59 48.41c.828 0 1.5.672 1.5 1.5v1.5c0 .828-.672 1.5-1.5 1.5h-1.5v-4.5h1.5m0 6c1.657 0 3-1.343 3-3v-1.5c0-1.657-1.343-3-3-3h-3v7.5h3m-6-7.5h1.5v7.5h-1.5v-7.5m-3 0h1.5v7.5h-1.5l-3-4.709v4.709h-1.5v-7.5h1.5l3 4.709v-4.709m-22.5 0h4.5v1.5h-3v1.5h3v1.5h-3v1.5h3v1.5h-4.5v-7.5m-6 0h1.5v6h3v1.5h-4.5v-7.5m15.75 6h1.5c1.242 0 2.25-1.01 2.25-2.25 0-1.242-1.026-2.246-2.25-2.25h-1.5v1.5h1.5c.414 0 .75.336.75.75 0 .414-.336.75-.75.75h-1.5v1.5m1.5-7.5c2.899 0 5.25 2.351 5.25 5.25 0 2.899-2.351 5.25-5.25 5.25-2.899 0-5.25-2.351-5.25-5.25 0-2.899 2.351-5.25 5.25-5.25m0 1.5c2.071 0 3.75 1.679 3.75 3.75 0 2.071-1.679 3.75-3.75 3.75-2.071 0-3.75-1.679-3.75-3.75 0-2.071 1.679-3.75 3.75-3.75" fill="#a90000"/><g transform="matrix(.61162 0 0 .61162-21.731-39.602)"><g stroke="#000"><path d="m36.04 173.45c.161 1.377.368 2.743.624 4.092 5.651 29.758 33.992 52.39 68.09 52.39 34.1 0 62.44-22.632 68.09-52.39.256-1.35.463-2.716.624-4.094v-108.21h-137.43v108.21z" fill="#fff" stroke-width=".706"/><g stroke-width=".535"><path d="m46.597 119.9c.04.319.091.634.154.947 1.396 6.883 8.397 12.12 16.821 12.12 8.424 0 15.424-5.235 16.82-12.12.063-.312.114-.628.154-.947v-25.03h-33.949v25.03z" fill="#3a88cd"/><g fill="#df212c"><path d="m43.37 195.74c.37.653.754 1.298 1.147 1.937h1.911l2.641 2.463-1.783 1.663c.383.523.776 1.04 1.175 1.552l2.028-1.891 7.665 7.148-2.625 2.447c.474.441.955.875 1.443 1.302l2.601-2.426 7.665 7.148-1.757 1.638c.565.358 1.133.711 1.71 1.054l1.467-1.368 5.227 4.874c1.745.8 3.532 1.534 5.358 2.199l7.585-7.07 7.665 7.148-3.374 3.146c.798.147 1.601.281 2.409.402l2.385-2.224 3.039 2.834c1 .076 2.01.133 3.02.17l-4.641-4.328 7.665-7.147 7.665 7.147-4.622 4.31c1.021-.044 2.036-.107 3.044-.191l2.998-2.796 2.315 2.159c.805-.125 1.606-.26 2.4-.41l-3.296-3.073 7.665-7.148 7.448 6.945c2.045-.757 4.04-1.601 5.984-2.527l4.738-4.418 1.276 1.19c.574-.345 1.142-.698 1.704-1.059l-1.561-1.456 7.665-7.148 2.368 2.208c.486-.43.962-.869 1.434-1.311l-2.382-2.221 7.665-7.148 1.748 1.63c.397-.515.785-1.035 1.166-1.561l-1.494-1.393 2.641-2.463h1.428c.394-.639.777-1.284 1.147-1.937h-122.77zm117.36 1.937h-2.442l1.221 1.139 1.221-1.139zm-5.282 0h-10.05l-2.641 2.463 7.665 7.148 7.665-7.148-2.641-2.463zm-12.887 0h-2.442l1.221 1.139 1.221-1.139zm-5.282 0h-10.05l-2.641 2.463 7.665 7.148 7.665-7.148-2.641-2.463zm-12.887 0h-2.442l1.221 1.139 1.221-1.139zm-5.282 0h-10.05l-2.641 2.463 7.665 7.148 7.665-7.148-2.641-2.463zm-12.887 0h-2.442l1.221 1.139 1.221-1.139zm-5.282 0h-10.05l-2.641 2.463 7.665 7.148 7.665-7.148-2.641-2.463zm-12.887 0h-2.442l1.221 1.139 1.221-1.139zm-5.282 0h-10.05l-2.641 2.463 7.665 7.148 7.665-7.148-2.641-2.463zm-12.887 0h-2.442l1.221 1.139 1.221-1.139zm-5.282 0h-10.05l-2.641 2.463 7.665 7.148 7.665-7.148-2.641-2.463zm-12.887 0h-2.442l1.221 1.139 1.221-1.139zm89.63 3.787l7.665 7.147-7.665 7.148-7.665-7.147 7.665-7.148zm-72.68 0l-7.665 7.147 7.665 7.148 7.665-7.147-7.665-7.148zm18.17 0l-7.665 7.147 7.665 7.148 7.665-7.148-7.665-7.148zm-9.08 8.471l-7.665 7.148 7.665 7.148 7.665-7.147-7.665-7.148zm27.25-8.472l-7.665 7.148 7.665 7.148 7.665-7.148-7.665-7.148zm-9.08 8.472l-7.665 7.148 7.665 7.148 7.665-7.147-7.665-7.148zm27.25-8.471l-7.665 7.148 7.665 7.148 7.665-7.148-7.665-7.147zm-9.08 8.471l-7.665 7.148 7.665 7.147 7.665-7.148-7.665-7.148zm18.17 0l-7.665 7.148 7.665 7.147 7.665-7.148-7.665-7.147z"/><path d="m108.01 216.11h-2.04v-1.798h-1.937v1.798h-2.04v1.937h2.04v1.798h1.937v-1.798h2.04v-1.937zm0-16.943h-2.04v-1.798h-1.937v1.798h-2.04v1.937h2.04v1.798h1.937v-1.798h2.04v-1.937zm-18.17 16.943h-2.04v-1.798h-1.937v1.798h-2.04v1.937h2.04v1.798h1.937v-1.798h2.04v-1.937zm36.34 0h-2.04v-1.798h-1.937v1.798h-2.04v1.937h2.04v1.798h1.937v-1.798h2.04v-1.937zm18.17 0h-2.04v-1.798h-1.937v1.798h-2.04v1.937h2.04v1.798h1.824l.113-.066v-1.732h2.04v-1.937zm-54.51-16.943h-2.04v-1.798h-1.937v1.798h-2.04v1.937h2.04v1.798h1.937v-1.798h2.04v-1.937zm36.34 0h-2.04v-1.798h-1.937v1.798h-2.04v1.937h2.04v1.798h1.937v-1.798h2.04v-1.937zm18.17 0h-2.04v-1.798h-1.937v1.798h-2.04v1.937h2.04v1.798h1.937v-1.798h2.04v-1.937zm-72.68 0h-2.04v-1.798h-1.937v1.798h-2.04v1.937h2.04v1.798h1.937v-1.798h2.04v-1.937zm-18.17 0h-2.04v-1.798h-1.937v1.798h-2.04v1.937h2.04v1.798h1.937v-1.798h2.04v-1.937zm109.02 0h-2.04v-1.798h-1.937v1.798h-2.04v1.937h2.04v1.798h1.937v-1.798h2.04v-1.937zm-90.85 16.943h-2.04v-1.798h-1.937v1.798h-2.04v1.937h2.04v1.798h1.937v-1.798h2.04v-1.937zm-9.08-8.472h-2.04v-1.798h-1.937v1.798h-2.04v1.937h2.04v1.798h1.937v-1.798h2.04v-1.937zm18.17 0h-2.04v-1.798h-1.937v1.798h-2.04v1.937h2.04v1.798h1.937v-1.798h2.04v-1.937zm18.17 0h-2.04v-1.798h-1.937v1.798h-2.04v1.937h2.04v1.798h1.937v-1.798h2.04v-1.937zm18.17 0h-2.04v-1.798h-1.937v1.798h-2.04v1.937h2.04v1.798h1.937v-1.798h2.04v-1.937zm18.17 0h-2.04v-1.798h-1.937v1.798h-2.04v1.937h2.04v1.798h1.937v-1.798h2.04v-1.937zm18.17 0h-2.04v-1.798h-1.937v1.798h-2.04v1.937h2.04v1.798h1.937v-1.798h2.04v-1.937zm-72.68 16.943h-2.04v-1.798h-1.937v1.741c1.305.53 2.631 1.024 3.976 1.481v-1.423zm18.17 0h-2.04v-1.798h-1.937v1.798h-2.04v1.937h2.04v1.798h1.937v-1.798h2.04v-1.937zm18.17 0h-2.04v-1.798h-1.937v1.798h-2.04v1.937h2.04v1.798h1.937v-1.798h2.04v-1.937zm16.13-.254v-1.545h-1.937v1.798h-2.04v1.26c1.346-.468 2.672-.973 3.976-1.513z"/></g></g></g><path d="m116.11 93.79l-.086-.024h-.015c-4.373.15-8.844.022-13.225-.104l-.657-.019c-.539.087-.95.045-1.287-.07-.338-.116-.602-.305-.846-.512-1.987-1.205-3.049-3.125-4.178-5.167l-.109-.198c-.704-.273-1.094-.736-1.198-1.212-.049-.226-.035-.454.041-.668.075-.213.212-.41.405-.572.469-.394 1.277-.588 2.376-.314 1.049-.532 2.095-1.027 3.141-1.52 2.974-1.403 5.947-2.806 8.919-5.073-.017-.354-.011-.686.015-.996.026-.312.074-.603.141-.871.345-1.383 1.206-2.175 2.363-2.387l.229-.041c.716-.128 1.238-.221 1.98-.68l.002-.0001c.237-.146.546-.285.915-.412.368-.127.797-.244 1.274-.346.942-.202 2.078-.35 3.322-.42-.042-1.25.561-2.198 1.434-2.755.449-.287.969-.47 1.51-.538.54-.068 1.101-.021 1.63.153 1.107.364 2.079 1.282 2.448 2.862 1.134-1.106 2.472-1.624 3.694-1.622.696.0001 1.355.17 1.917.496.563.326 1.029.808 1.339 1.433.587 1.184.614 2.882-.321 5.01.791.721 1.331 1.55 1.618 2.487.288.939.323 1.987.105 3.141 1.467 1.386 2.331 3.159 2.687 5.258.357 2.102.204 4.53-.362 7.224l.3 6.901c.776 3.943.96 7.769.417 11.449-.543 3.679-1.814 7.212-3.948 10.573-.225 2.217-.286 4.387-.199 6.515.087 2.13.322 4.218.691 6.268.649 3.609 1.778 7.079 3.217 10.468 1.44 3.389 3.19 6.696 5.082 9.976v.0001c.11.19.228.428.358.689.322.647.716 1.438 1.19 1.943.511.543 1.119.752 1.839.074l.052-.049.012.07c.272 1.625-.233 2.539-1.184 3.047-.935.5-2.301.602-3.777.602v.0001c-.042.325-.079.654-.116.983-.191 1.707-.383 3.415-1.387 4.856-.617 1.097-1.125 2.193-1.196 3.286-.071 1.091.292 2.182 1.416 3.275l.003.002.0001.002 5.782 7.885c1.273 1.563 1.952 3.06 1.68 4.45-.272 1.39-1.495 2.669-4.02 3.793l-.003.0001c-1.704.611-3.408 1.109-5.112 1.459-1.704.35-3.41.552-5.114.571-1.41.016-2.817.347-4.226.855-1.411.508-2.824 1.195-4.243 1.92-1.014.518-2.029.708-3.048.683-1.017-.025-2.037-.265-3.065-.606-1.981-.658-3.642-1.472-4.89-2.477-1.251-1.01-2.088-2.207-2.42-3.633-.051-.219-.069-.42-.059-.602.021-.381.168-.684.406-.914.236-.229.563-.385.947-.475.344-.08.736-.106 1.15-.083l.111.006c2.862.161 5.774.325 8.591-.231 2.532-.5 4.276-1.299 5.216-2.168.43-.398.692-.81.782-1.213.089-.4.001-.793-.239-1.156-.33-.481-.958-.911-1.886-1.241-6.547-2.324-10.197-5.364-12.09-9.362-1.275-2.686-1.757-5.804-1.794-9.426-1.993 1.099-3.719 2.433-4.848 4.291-1.148 1.89-1.679 4.326-1.247 7.613.239 1.136.221 2.209-.385 3.137-.605.925-1.794 1.704-3.896 2.252-1.296.469-2.593.903-3.888 1.283-1.298.38-2.594.706-3.889.959l-.001.002c-1.068.208-2.351.322-3.687.441-2.593.231-5.384.481-7.174 1.466-1.421.782-2.502 1.334-3.576 1.66-1.076.326-2.144.425-3.539.301-2.942-.262-4.804-1.63-5.559-3.034-.283-.526-.41-1.057-.382-1.537.029-.483.215-.916.561-1.241.621-.585 1.757-.821 3.414-.376.558-.33 1.116-.651 1.673-.964.563-.316 1.127-.624 1.69-.923 2.899-1.54 5.806-2.857 8.631-3.89.981-.359 1.86-.922 2.546-1.613.636-.641 1.108-1.392 1.343-2.193.235-.8.234-1.65-.073-2.49-.227-.621-.622-1.237-1.212-1.823l-.003-.003c-.319-.318-.584-.705-.798-1.146-.213-.44-.376-.933-.489-1.462-.584-2.714.104-6.396 1.693-8.798l.002-.003c.309-.467.661-.918 1.054-1.349.393-.431.828-.842 1.304-1.231 2.438-1.991 5.961-3.396 10.529-3.853-.4-.52-.777-1.048-1.132-1.582-2.575-3.88-3.973-8.117-4.411-12.644-.352-.138-.709-.281-1.072-.43-1.225.097-2.359.094-3.438-.018-1.082-.112-2.108-.334-3.114-.674-1.073-.363-2.061-.408-2.968-.261-.907.147-1.733.486-2.479.892-1.649.896-3.342 1.49-5.02 2.08-.363.127-.726.255-1.071.379-3.945 1.419-7.04 1.812-9.06 1.494-.87-.137-1.54-.407-1.991-.783-.455-.38-.689-.868-.682-1.439.007-.576.259-1.234.776-1.949 1.361-1.881 3.658-2.675 5.793-3.412.605-.209 1.197-.414 1.751-.637 3.092-1.248 6.182-2.612 9.273-4.086 2.768-1.321 5.535-2.729 8.302-4.223-1.741-1.755-2.752-4.483-3.29-7.828-.539-3.348-.604-7.315-.453-11.541.136-2.288.069-4.212-.326-5.553-.388-1.322-1.095-2.074-2.238-2.045-.037.038-.074.075-.11.11-.942.919-1.973 1.28-2.933 1.252-.961-.028-1.853-.447-2.515-1.087-.028-.028-.057-.056-.085-.084-.129-.132-.249-.274-.359-.423-.468-.636-.749-1.415-.731-2.213.018-.799.336-1.616 1.066-2.328.15-.146.316-.288.501-.423.393-.289.799-.541 1.213-.756 1.826-.946 3.817-1.166 5.697-.68 1.879.485 3.647 1.676 5.02 3.55.36.489.693 1.026.995 1.609 1 1.937 2.069 3.72 3.144 5.519 1.736 2.904 3.496 5.851 5.064 9.555.165-.193.337-.384.513-.573 2.839-3.03 7.132-5.397 13.15-6.989.805-1.304 1.552-3.334 1.478-5.405-.014-.404-.06-.809-.143-1.211-.079-.387-.193-.77-.346-1.146z" fill="#2c2825" fill-rule="nonzero"/><g stroke="#000"><g fill="none" stroke-width=".706"><path d="m127.68 88.34c.504 3.361-1.453 8.293-11.648 5.391-4.598.159-9.306.009-13.904-.122-1.067.173-1.624-.164-2.108-.575-2.048-1.241-3.112-3.248-4.284-5.365-2.157-.826-1.332-3.434 1.602-2.696 4.03-2.049 8.06-3.536 12.09-6.615-.126-2.541.896-3.943 2.487-4.234.843-.154 1.396-.216 2.221-.726 1.675-1.036 6.993-1.682 11.956-.813 3.551-4.456 10.1-2.02 7.143 4.647 1.594 1.441 2.17 3.319 1.727 5.633 2.94 2.765 3.461 7.084 2.328 12.467.1 2.303.2 4.606.3 6.909 1.551 7.88.738 15.288-3.53 22-.451 4.445-.247 8.699.491 12.802 1.3 7.224 4.518 13.893 8.304 20.456.668 1.157 1.756 4.304 3.446 2.715.538 3.21-1.99 3.608-4.957 3.605-.268 2.03-.303 4.138-1.502 5.858-1.239 2.203-2.04 4.406.225 6.609 1.928 2.629 3.855 5.257 5.783 7.886 2.534 3.111 2.704 5.948-2.328 8.186-3.405 1.221-6.809 1.989-10.214 2.028-2.829.032-5.646 1.327-8.486 2.779-2.02 1.03-4.03.755-6.083.075-3.955-1.314-6.625-3.248-7.285-6.083-.351-1.51.865-2.114 2.403-2.028 2.9.163 5.853.339 8.712-.225 6.419-1.266 7.794-4.461 3.878-5.851-13.07-4.64-14.573-12.134-13.641-24.415 2.398-4.247 3.977-8.858 3.755-14.269m-.437-50.638c1.164 2.8.145 6.04-.982 7.855-12.04 3.182-17.16 9.473-17.565 17.892m-5.782 2.946c-3.485-3.497-4.01-10.862-3.709-19.311.273-4.583-.272-7.711-2.618-7.637-1.932 2-4.272 1.563-5.6.203-1.328-1.361-1.708-3.727.472-5.33 4.301-3.162 10.01-1.819 12.874 3.709 2.654 5.122 5.737 9.164 8.292 15.274m-4.691 26.07c.846 9.146 5.591 17.11 16.04 23.347m-.218 5.455c-4.085 2.225-7.086 5.406-6.219 12 .475 2.255-.069 4.256-4.255 5.346-2.591.938-5.186 1.735-7.773 2.241-3.145.614-8.159.414-10.881 1.913-2.837 1.562-4.314 2.203-7.093 1.956-7.089-.63-7.87-7.707-1.964-6.11 4-2.366 8.08-4.349 12-5.782 3.494-1.278 5.693-5.129 2.618-8.183-2.26-2.245-1.793-8.03.408-11.361 2.201-3.327 6.538-5.796 12.902-6.423m17.29-77.58c-.178-3.882 5.9-4.852 6.95-.297"/><path d="m128.64 76.74c-.343-5.05 2.6-5.524 3.386-2.851m-11.152 52.24c7.094-.961 10.192 2.269 11.372 12.526m4.174 13.658c4.255 10.292 1.346 17.747-5.455 20.293m10.583 10.146c.148 2.203 1.721 2.405.3 5.416-.99 2.097-4.479 1.37-6.628 2.658m-34.15-19.965c.145 2.513 2.168 2.709 1.519 4.993-.898 3.16-5.592 2.32-9.374 4.171m9.601-48c8.314.72 10.834-3.01 7.65-7.772m6.315 2.426c-.073 1.273-.063 2.553-.218 3.819-.931 7.602-6.732 10.374-20.838 4.582-2.454.195-4.538-.001-6.546-.689-2.159-.73-3.977-.182-5.477.633-1.996 1.084-4.06 1.727-6.088 2.457-9.04 3.251-13.605 1.108-10.91-2.618 1.739-2.404 5.02-3.03 7.528-4.04 6.187-2.498 12.365-5.455 18.547-8.837 2.255-1.237 7.346-3.602 9.601-4.255 1.346-3.218 3.492-5.182 5.891-6.655" stroke-linecap="round"/></g><g fill="#df212c" stroke-width=".53"><path d="m68.955 185.89c.515-1.079 1.195-1.589 1.888-1.739 1.168.286 1.817-2.424-.267-1.938-1.515.354-2.029 1.838-1.621 3.676z"/><path d="m71.09 188.97c.035-1.195.452-1.936 1.025-2.353 1.184-.211.683-2.952-1.028-1.665-1.243.936-1.114 2.501.002 4.02z"/><path d="m73.825 190.3c-.299-1.157-.106-1.985.328-2.546 1.078-.533-.168-3.02-1.451-1.312-.933 1.245-.372 2.712 1.123 3.858z"/><path d="m76.18 190.54c-.592-1.039-.622-1.888-.35-2.543.901-.796-.954-2.876-1.744-.886-.574 1.446.351 2.715 2.093 3.429z"/><path d="m80.907 190.14c-.811-.878-1.032-1.7-.914-2.399.699-.979-1.577-2.586-1.899-.47-.233 1.538.954 2.566 2.813 2.869z"/></g><g stroke-width=".535"><g fill="#df212c"><path d="m109.4 193.33c.647-1 1.387-1.424 2.094-1.485 1.123.431 2.109-2.175-.02-1.956-1.548.159-2.246 1.566-2.074 3.441z"/><path d="m111.17 196.57c.248-1.169.79-1.825 1.428-2.133 1.203.004 1.198-2.783-.714-1.821-1.39.699-1.542 2.262-.714 3.954z"/><path d="m113.82 198.05c-.179-1.182.099-1.986.589-2.498 1.128-.419.145-3.03-1.308-1.454-1.056 1.143-.65 2.66.719 3.953z"/><path d="m116.78 198.88c-.554-1.059-.554-1.91-.258-2.554.93-.763-.849-2.908-1.711-.949-.626 1.424.253 2.726 1.969 3.502z"/><path d="m119.97 199.21c-.489-1.091-.437-1.94-.103-2.565.974-.706-.672-2.954-1.65-1.05-.711 1.384.088 2.736 1.753 3.615z"/><path d="m64.768 135.87c.657.794 1.334 1.077 1.944 1.057.917-.484 2.029 1.645.184 1.676-1.341.023-2.083-1.11-2.128-2.733z"/><path d="m65.52 133.27c.389.954.95 1.427 1.539 1.591 1.02-.187 1.443 2.177-.327 1.655-1.286-.38-1.654-1.683-1.212-3.245z"/><path d="m66.8 131.64c.262.997.757 1.538 1.319 1.777 1.035-.054 1.148 2.346-.539 1.598-1.226-.544-1.422-1.883-.781-3.375z"/><path d="m68.23 130.5c.093 1.026.49 1.642 1.01 1.971 1.03.119.742 2.504-.797 1.486-1.119-.74-1.089-2.094-.208-3.458z"/><path d="m71.13 129.31c.184 1.014.635 1.592 1.178 1.873 1.037.027.963 2.428-.661 1.552-1.18-.637-1.272-1.988-.517-3.425z"/><path d="m78.4 95.89c.184-1.014.635-1.592 1.178-1.873 1.037-.027.963-2.428-.661-1.552-1.18.637-1.272 1.988-.517 3.425z"/><path d="m81.34 98.33c-.349-.97-.249-1.696.079-2.212.883-.543-.385-2.583-1.35-1.01-.701 1.143-.103 2.358 1.271 3.222z"/><path d="m83.54 98.56c-.594-.842-.691-1.569-.511-2.153.707-.758-1.057-2.388-1.57-.616-.373 1.289.527 2.301 2.081 2.769z"/><path d="m85.76 98.52c-.687-.768-.866-1.479-.754-2.08.616-.834-1.324-2.252-1.63-.432-.223 1.323.787 2.225 2.385 2.512z"/><path d="m89.14 96.67c-.934-.435-1.379-1.018-1.514-1.614.237-1.01-2.104-1.547-1.668.246.317 1.303 1.6 1.735 3.182 1.368z"/></g><path d="m138.33 101.67c-3.346 2.463-21.538 2.253-23.87.13-.213-2.64.373-4.941 2.127-6.423 6.574 1.931 13.575 2.382 20.962-.26l1.083-.25c.45-.228.959-.357 1.499-.357 1.833 0 3.32 1.487 3.32 3.32 0 1.833-1.487 3.32-3.32 3.32l-1.1.032-.701.489z" fill="url(#O)"/></g></g><circle cx="140.13" cy="97.83" r="1.28" fill="#fff" stroke="#1f1a17" stroke-width=".5"/><g fill="#df212c" stroke="#000"><path d="m94.19 88.39c.648 2.648 2.491 2.567 5.448 1.532 2.726-.954 5.842-1.307 8.712-1.113 3.534.239 3.318 1.889-.133 1.979-2.458.064-4.926.768-7.375 1.66-1.264.46-2.579.926-3.854 1.067-1.37.152-2.951-.324-3.586-1.628-.489-1-.251-2.278.788-3.496z" stroke-width=".553"/><path d="m115.8 76.74c1.749 0 3.287.746 4.166 1.871-.773 1.337-2.38 2.257-4.238 2.257-1.808 0-3.378-.871-4.174-2.15.863-1.184 2.442-1.978 4.246-1.978z" stroke-width=".535"/></g><path d="m116.98 76.856c.044.154.068.316.068.484 0 .967-.785 1.752-1.752 1.752-.967 0-1.752-.785-1.752-1.752 0-.053.002-.105.007-.157.675-.283 1.439-.443 2.249-.443.407 0 .802.04 1.18.116"/><circle cx="114.69" cy="77.896" r=".742" fill="#fff"/></g><g transform="matrix(.21576 0 0-.21576-21.731 142.05)"><g fill-rule="nonzero"><path d="m191.16 533.34c-3.408 1.833-4.91 4.16-5.078 6.188-.166 2 .973 3.761 2.806 4.539 1.96.832 4.823.615 7.855-1.489 2.01-1.394 3.811-4.03 5.01-7.08 3.19.693 6.307 2.176 8.109 4.676l.132-.095c-.58-.881-.376-2.07.481-2.707.167-.123.346-.217.532-.282-2.201-2.214-5.266-3.608-8.374-4.335.668-2.645.896-5.55.257-8.239l-.038.029c-.887.658-2.139.47-2.799-.415-.025-.036-.049-.071-.072-.108l-.219.081.006.019.002.006c.943 2.559.69 5.555.024 8.144-2.74-.3-6.119-.271-8.63 1.065m1.368 2.542c1.799-.958 4.341-.948 6.312-.803-.96 2.242-2.287 4.124-3.747 5.137-2.109 1.463-3.927 1.687-5.075 1.201-.688-.292-1.127-.895-1.063-1.655.095-1.148 1.145-2.572 3.573-3.879"/><path d="m191.35 533.71c-3.271 1.751-4.705 3.956-4.863 5.859-.152 1.826.887 3.417 2.557 4.126 1.845.783 4.558.564 7.458-1.448 1.263-.876 2.441-2.26 3.431-3.934 1.258-2.128 2.124-4.525 2.58-6.953.408-2.171.485-4.459-.0001-6.605-.737.351-1.621.217-2.22-.341.665 2.113.603 4.472.183 6.671-.417 2.179-1.164 4.289-2.3 6.202-.831 1.399-1.808 2.547-2.853 3.271-2.24 1.555-4.206 1.779-5.472 1.242-.85-.361-1.39-1.128-1.312-2.066.106-1.274 1.219-2.832 3.789-4.209 1.864-.998 4.559-1.014 6.675-.837.294-.66.518-1.33.686-2.01-2.659-.284-5.958-.246-8.338 1.028m10.574 1.415c2.953.662 5.878 2.01 7.756 4.18-.112-.713.166-1.464.786-1.923.046-.033.092-.064.139-.094-2.121-2.084-5.079-3.418-8.05-4.12-.174.654-.401 1.275-.633 1.957" fill="#ffcf00"/></g><path d="m199.81 524.31c.753 1.017 2.189 1.231 3.205.477 1.017-.752 1.232-2.189.477-3.205-.754-1.017-2.189-1.23-3.205-.476-1.018.753-1.23 2.189-.477 3.205m.467-.347c.562.76 1.633.918 2.392.356.758-.562.918-1.632.355-2.39-.561-.759-1.632-.919-2.391-.356-.759.561-.918 1.632-.356 2.39"/><path d="m209.82 540.35c.753 1.017 2.189 1.231 3.205.477 1.017-.753 1.231-2.189.478-3.205-.754-1.017-2.189-1.231-3.206-.478-1.017.753-1.229 2.189-.477 3.206m.468-.347c.561.759 1.633.918 2.391.357.759-.563.919-1.633.356-2.391-.562-.76-1.633-.919-2.391-.356-.759.561-.918 1.633-.356 2.39"/><path d="m191.35 527.73c1.935-1.303 4-3.5 5.924-3.749 8.518-1.103 16.718 8.146 12.912 15.02-.965 1.742-2.595 2.56-4.796 2.582-1.404-.126-2.682.16-3.703.917-3.376 2.501-2.667 9.182 1.584 14.919 4.251 5.737 10.436 8.362 13.811 5.861 1.195-.886 1.876-2.294 2.072-4 .386-1.21.842-2.243 1.386-3.269 1.867-3.525 2.959-5.832 3.462-9.902 1.788-14.499-11.617-29.849-26.826-26-.987.25-2.111.155-3.125.233-1.908.147-3.892.405-5.631.782l2.93 6.608"/><path d="m210.95 537.96c-.139.389-.308.775-.516 1.152-.072.13-.147.256-.226.378-.851 1.31-2.102 2.064-3.747 2.27 3 .674 6.392 3.038 9.04 6.608 2.579 3.479 3.854 7.306 3.705 10.337.342-1 .739-1.891 1.203-2.772 1.843-3.492 2.92-5.777 3.408-9.813.017-.134.029-.269.043-.402.07-.69.105-1.384.109-2.075-3.381-3.606-7.816-5.413-13.01-5.683" fill="url(#N)"/><path d="m201.17 523.93c1 .224 1.978.573 2.899 1.025 5.109 2.503 8.607 8.151 6.882 13.01 5.198.27 9.633 2.077 13.01 5.683.045-11.01-8.25-21.865-18.951-23.685-1.043-.177-2.11-.27-3.193-.267-.385 1.368-.598 2.784-.651 4.238" fill="url(#M)"/><path d="m191.87 527.16c1.778-1.338 3.611-3.208 5.364-3.43 1.335-.169 2.663-.087 3.942.197.053-1.454.267-2.87.651-4.238-1.515.004-3.064.191-4.632.585-.976.245-2.09.149-3.096.226-1.618.12-3.375.361-4.926.66.871.249 1.818 1.169 2.42 2.463.626 1.346.701 2.718.276 3.537" fill="url(#L)"/><path d="m211.34 536.35c-.186 1.477-.809 3.048-1.91 4.088 4.136-1.448 12.886 4.066 13.9 8.465.788-3.294.843-6.723.145-10.04-2.24-2.849-8.97-5-12.135-2.511" fill="url(#K)"/><path d="m199.36 523.67c1.487.097 2.934.482 4.28 1.084.066-1.724.459-3.351 1.197-4.823-1.591-.256-3.236-.313-4.914-.138-.444 1.086-.619 2.502-.562 3.877" fill="url(#J)"/><path d="m191.87 527.16c1.542-1.16 3.125-2.72 4.66-3.259-.042-.991-.38-2.411-.901-3.449-.516.014-1.036.009-1.53.048-1.618.12-3.375.361-4.926.66.871.249 1.818 1.169 2.42 2.463.626 1.346.701 2.718.276 3.537" fill="url(#I)"/><path d="m203.62 557.16c4.106 5.544 10.02 8.128 13.2 5.77 3.182-2.358 2.432-8.765-1.675-14.308-4.108-5.544-10.02-8.127-13.201-5.769-3.182 2.357-2.431 8.765 1.676 14.308" fill="url(#H)"/><path d="m204.76 556.32c3.446 4.651 8.191 6.979 10.595 5.197 2.405-1.782 1.56-6.999-1.886-11.65-3.446-4.653-8.191-6.98-10.597-5.198-2.404 1.781-1.559 6.998 1.888 11.651" fill="url(#G)"/><path d="m187.82 525.37c.846 1.818 2.375 2.9 3.415 2.415 1.041-.483 1.199-2.35.355-4.168-.845-1.818-2.375-2.899-3.416-2.415-1.04.484-1.199 2.351-.354 4.168"/><path d="m188.22 525.19c.743 1.599 2.01 2.587 2.835 2.204.821-.382.885-1.989.142-3.588-.744-1.599-2.01-2.586-2.835-2.204-.822.382-.885 1.989-.142 3.588" fill="#ffcf00"/><path d="m188.77 524.95c.455.978 1.223 1.586 1.715 1.357.49-.229.522-1.207.067-2.184-.455-.978-1.221-1.586-1.713-1.357-.492.229-.521 1.206-.069 2.184"/><path d="m189.16 524.76c.353.76.861 1.272 1.133 1.145.274-.127.209-.846-.144-1.604-.354-.759-.86-1.271-1.133-1.145-.274.127-.208.846.143 1.604" fill="#e6a800"/><g fill-rule="nonzero"><path d="m175.46 524.42c.078-3.868-1.21-6.319-2.894-7.464-1.665-1.13-3.753-1-5.332.214-1.689 1.3-2.905 3.899-2.563 7.574.227 2.435 1.636 5.297 3.703 7.837-2.17 2.436-4.995 4.423-8.06 4.763l.019.163c1.051-.072 1.988.69 2.12 1.748.026.206.019.409-.016.604 3.01-.83 5.73-2.815 7.889-5.164 1.978 1.879 4.395 3.506 7.05 4.272l-.007-.047c-.136-1.096.642-2.095 1.738-2.232.042-.006.085-.009.128-.011l.038-.232-.019-.003h-.006c-2.691-.436-5.177-2.13-7.105-3.982 1.608-2.24 3.242-5.196 3.314-8.04m-2.887-.059c-.051 2.039-1.307 4.248-2.403 5.891-1.481-1.937-2.466-4.02-2.631-5.786-.239-2.556.458-4.25 1.448-5.01.592-.456 1.332-.542 1.964-.113.954.647 1.677 2.262 1.622 5.02"/><path d="m175.05 524.42c.082-3.709-1.133-6.04-2.712-7.114-1.517-1.029-3.413-.907-4.851.199-1.589 1.222-2.732 3.692-2.404 7.207.142 1.529.769 3.235 1.739 4.92 1.234 2.141 2.899 4.074 4.789 5.663 1.69 1.423 3.644 2.614 5.752 3.246.057-.815.609-1.52 1.387-1.767-2.167-.457-4.191-1.672-5.899-3.119-1.694-1.434-3.164-3.122-4.272-5.05-.811-1.412-1.331-2.828-1.448-4.091-.254-2.717.518-4.539 1.607-5.377.734-.563 1.666-.656 2.446-.128 1.056.719 1.868 2.453 1.803 5.369-.047 2.114-1.358 4.469-2.551 6.224.428.581.903 1.106 1.41 1.585 1.554-2.177 3.143-5.069 3.203-7.767m-6.429 8.514c-2.029 2.246-4.636 4.134-7.452 4.702.677.251 1.193.862 1.289 1.627.007.057.012.112.014.168 2.858-.823 5.473-2.743 7.544-4.985-.486-.473-.914-.976-1.394-1.513" fill="#ffcf00"/></g><path d="m179.07 536.4c-1.256.157-2.148 1.302-1.991 2.557.157 1.256 1.302 2.148 2.557 1.99 1.255-.156 2.147-1.301 1.991-2.557-.157-1.255-1.302-2.147-2.557-1.99m.072.578c-.936.116-1.602.971-1.485 1.907.116.937.971 1.602 1.908 1.485.936-.117 1.601-.97 1.485-1.908-.117-.937-.971-1.602-1.908-1.485"/><path d="m160.19 537.23c-1.255.157-2.146 1.303-1.99 2.558.156 1.255 1.302 2.147 2.558 1.99 1.255-.156 2.146-1.302 1.99-2.558-.156-1.254-1.301-2.146-2.558-1.99m.072.578c-.937.116-1.602.971-1.484 1.909.117.936.97 1.601 1.908 1.485.937-.117 1.601-.971 1.485-1.908-.117-.937-.97-1.602-1.908-1.486"/><path d="m180.25 527.35c.182 2.325 1.08 5.207.354 7-3.226 7.961-15.311 10.557-19.429 3.863-1.044-1.695-.956-3.517.107-5.445.8-1.161 1.178-2.416 1.02-3.677-.52-4.169-6.685-6.834-13.772-5.952-7.085.884-12.41 4.98-11.891 9.15.183 1.475 1.076 2.761 2.465 3.769.865.932 1.539 1.836 2.167 2.815 2.151 3.358 3.624 5.442 6.922 7.88 11.75 8.682 31.706 4.55 35.831-10.586.267-.981.903-1.913 1.333-2.836.809-1.734 1.56-3.588 2.085-5.286l-7.193-.697"/><path d="m161.71 539.4c-.271-.312-.523-.649-.749-1.015-.078-.127-.152-.255-.219-.382-.721-1.385-.764-2.845-.134-4.38-2.061 2.283-5.788 4.074-10.196 4.624-4.298.535-8.257-.235-10.824-1.854.706.791 1.285 1.572 1.823 2.41 2.135 3.32 3.596 5.381 6.872 7.79.109.081.219.157.33.235.567.401 1.152.772 1.753 1.114 4.803-1.171 8.556-4.147 11.344-8.541" fill="url(#F)"/><path d="m178.74 537.78c-.689.765-1.472 1.442-2.317 2.02-4.691 3.22-11.328 3.49-14.71-.398-2.789 4.394-6.541 7.37-11.344 8.541 9.568 5.45 23.1 3.56 29.941-4.865.667-.821 1.271-1.705 1.8-2.65-1-1.01-2.129-1.888-3.37-2.65" fill="url(#E)"/><path d="m180.5 528.08c.292 2.206 1.02 4.721.35 6.357-.507 1.245-1.232 2.362-2.108 3.335 1.242.762 2.368 1.642 3.37 2.65.741-1.321 1.34-2.761 1.768-4.321.266-.971.897-1.893 1.326-2.806.688-1.469 1.343-3.119 1.846-4.618-.645.637-1.913 1.01-3.336.899-1.479-.116-2.711-.725-3.216-1.497" fill="url(#D)"/><path d="m162.93 540.53c-1.194-.888-2.257-2.203-2.621-3.673-.771 4.314-9.874 9.227-14.202 7.947 2.481 2.306 5.441 4.04 8.674 5.062 3.583-.552 8.766-5.354 8.149-9.336" fill="url(#C)"/><path d="m179.85 536.33c-.814 1.248-1.86 2.319-3.048 3.196 1.47.904 2.694 2.045 3.613 3.414 1.01-1.262 1.863-2.667 2.536-4.214-.728-.921-1.875-1.768-3.102-2.396" fill="url(#B)"/><path d="m180.5 528.08c.253 1.913.834 4.058.548 5.661.885.451 2.287.854 3.448.91.241-.458.5-.907.71-1.355.688-1.469 1.343-3.119 1.846-4.618-.645.637-1.913 1.01-3.336.899-1.479-.116-2.711-.725-3.216-1.497" fill="url(#A)"/><path d="m148.59 523.58c-6.846.854-12 4.731-11.511 8.662.488 3.93 6.439 6.425 13.285 5.572 6.845-.852 12-4.731 11.511-8.661-.491-3.93-6.439-6.425-13.285-5.572" fill="url(#9)"/><path d="m148.76 524.98c-5.745.716-10.1 3.704-9.734 6.674.37 2.97 5.329 4.798 11.07 4.082 5.745-.716 10.1-3.705 9.734-6.675-.37-2.969-5.329-4.797-11.07-4.082" fill="url(#8)"/><path d="m184.04 525.44c-1.999-.157-3.693.643-3.783 1.788-.09 1.144 1.457 2.2 3.456 2.357 2 .158 3.693-.644 3.782-1.788.09-1.143-1.457-2.199-3.456-2.356"/><path d="m184 525.87c-1.758-.138-3.241.483-3.313 1.386-.071.904 1.298 1.749 3.055 1.886 1.759.139 3.243-.481 3.313-1.385.071-.904-1.297-1.749-3.055-1.887" fill="#ffcf00"/><path d="m183.94 526.47c-1.075-.084-1.981.285-2.024.826-.042.541.794 1.048 1.87 1.133 1.075.085 1.98-.286 2.023-.826.042-.54-.794-1.048-1.869-1.133"/><path d="m183.91 526.91c-.834-.066-1.53.124-1.554.424-.024.302.634.597 1.469.663.834.065 1.53-.125 1.554-.424.024-.301-.634-.598-1.468-.663" fill="#e6a800"/><g fill-rule="nonzero"><path d="m190.2 513.62c3.761.906 6.432.172 7.91-1.229 1.46-1.384 1.782-3.45.933-5.253-.908-1.927-3.185-3.673-6.847-4.126-2.428-.301-5.527.463-8.45 1.938-1.913-2.642-3.249-5.825-2.926-8.891l-.163-.015c-.155 1.042-1.1 1.794-2.162 1.695-.208-.018-.404-.069-.585-.145.165 3.12 1.52 6.201 3.352 8.815-2.26 1.526-4.367 3.54-5.683 5.968l.046.005c1.101.102 1.911 1.077 1.809 2.176-.003.043-.009.086-.015.128l.217.087.007-.019v-.007c1-2.534 3.19-4.599 5.411-6.085 1.845 2.052 4.381 4.281 7.144 4.96m.676-2.807c-1.98-.487-3.87-2.188-5.239-3.608 2.208-1.033 4.452-1.55 6.214-1.331 2.549.314 4.052 1.359 4.586 2.488.317.675.243 1.417-.312 1.944-.835.79-2.568 1.152-5.248.508"/><path d="m190.29 513.22c3.606.876 6.143.189 7.53-1.124 1.331-1.26 1.617-3.139.845-4.781-.853-1.814-3.02-3.459-6.523-3.892-1.526-.189-3.326.057-5.18.645-2.355.748-4.601 1.958-6.558 3.463-1.752 1.347-3.334 3-4.404 4.924.785.229 1.353.919 1.428 1.734.912-2.02 2.532-3.737 4.31-5.095 1.764-1.347 3.727-2.422 5.85-3.09 1.553-.49 3.046-.694 4.307-.538 2.707.336 4.322 1.479 4.907 2.722.394.837.284 1.768-.399 2.417-.929.879-2.798 1.299-5.632.612-2.054-.499-4.073-2.283-5.532-3.827-.66.297-1.274.646-1.85 1.04 1.793 1.985 4.277 4.155 6.9 4.791m-6.938-8.103c-1.759-2.463-3.042-5.415-2.995-8.287-.392.607-1.098.98-1.867.91-.056-.005-.112-.012-.166-.022.191 2.967 1.507 5.933 3.253 8.437.567-.372 1.149-.683 1.776-1.038" fill="#ffcf00"/></g><path d="m177.72 514.58c.116-1.26-.811-2.377-2.071-2.493-1.26-.117-2.376.811-2.493 2.072-.116 1.26.812 2.375 2.072 2.491 1.259.117 2.376-.81 2.492-2.07m-.58-.055c.087-.938-.605-1.772-1.545-1.858-.94-.086-1.773.605-1.86 1.545-.085.94.606 1.773 1.546 1.86.94.087 1.773-.606 1.859-1.547"/><path d="m180.96 495.96c.117-1.259-.811-2.376-2.071-2.493-1.26-.116-2.376.812-2.492 2.072-.115 1.259.811 2.377 2.072 2.491 1.259.117 2.375-.81 2.491-2.07m-.579-.053c.087-.94-.605-1.772-1.545-1.859-.94-.088-1.772.606-1.858 1.545-.089.94.604 1.772 1.543 1.86.939.086 1.773-.606 1.859-1.545"/><path d="m186.31 517.67c-2.31-.319-5.318-.06-6.914-1.155-7.086-4.856-7.03-17.216.388-19.804 1.881-.656 3.641-.179 5.297 1.271.963 1.031 2.107 1.667 3.373 1.786 4.183.386 8.108-5.067 8.764-12.177.655-7.11-2.204-13.189-6.389-13.575-1.48-.137-2.929.459-4.209 1.6-1.097.646-2.125 1.111-3.214 1.514-3.741 1.382-6.093 2.373-9.181 5.073-10.998 9.617-11.239 29.995 2.66 37.27.902.47 1.676 1.291 2.486 1.908 1.52 1.163 3.169 2.293 4.716 3.171l2.222-6.877"/><path d="m178.52 496.98c.363-.197.745-.371 1.151-.514.141-.049.281-.093.421-.131 1.506-.408 2.943-.136 4.306.808-1.786-2.503-2.74-6.527-2.331-10.95.398-4.312 1.999-8.01 4.131-10.175-.925.52-1.812.918-2.745 1.265-3.701 1.373-6.03 2.359-9.08 5.04-.101.089-.201.18-.3.272-.512.469-1 .96-1.465 1.473.116 4.943 2.218 9.245 5.914 12.912" fill="url(#7)"/><path d="m176.45 513.96c-.6-.837-1.093-1.746-1.481-2.695-2.138-5.272-.98-11.814 3.544-14.284-3.695-3.667-5.798-7.968-5.914-12.912-7.374 8.178-8.426 21.798-1.663 30.29.66.828 1.393 1.607 2.202 2.328 1.199-.764 2.302-1.675 3.311-2.725" fill="url(#6)"/><path d="m185.54 517.76c-2.217-.189-4.83-.016-6.284-1.02-1.108-.764-2.043-1.712-2.806-2.775-1.01 1.05-2.112 1.961-3.311 2.725 1.132 1.01 2.411 1.901 3.842 2.652.892.469 1.656 1.284 2.456 1.896 1.287.987 2.759 1.979 4.115 2.792-.484-.767-.577-2.085-.163-3.45.431-1.42 1.29-2.494 2.151-2.821" fill="url(#5)"/><path d="m177.15 497.93c1.123-.976 2.635-1.733 4.149-1.773-4.048-1.679-6.896-11.623-4.718-15.577-2.784 1.93-5.11 4.45-6.803 7.389-.229 3.617 3.351 9.709 7.373 9.961" fill="url(#4)"/><path d="m177.63 515.36c-1.044-1.063-1.867-2.315-2.468-3.661-1.199 1.241-2.576 2.192-4.108 2.798 1.016 1.251 2.204 2.39 3.572 3.379 1.056-.514 2.127-1.454 3-2.515" fill="url(#3)"/><path d="m185.54 517.76c-1.922-.163-4.142-.056-5.647-.678-.629.767-1.323 2.05-1.627 3.172.394.333.778.683 1.169.984 1.287.987 2.759 1.979 4.115 2.792-.484-.767-.577-2.085-.163-3.45.431-1.42 1.29-2.494 2.153-2.82" fill="url(#2)"/><path d="m196.78 487.56c.634-6.87-2.05-12.737-5.993-13.1-3.942-.364-7.655 4.912-8.289 11.781-.634 6.87 2.05 12.736 5.993 13.1 3.943.363 7.656-4.913 8.29-11.782" fill="url(#1)"/><path d="m195.38 487.42c.533-5.764-1.454-10.663-4.435-10.938-2.979-.274-5.828 4.178-6.36 9.943-.531 5.765 1.454 10.663 4.434 10.938 2.981.275 5.829-4.177 6.361-9.942" fill="url(#0)"/><path d="m187.37 521.78c.583-1.919.163-3.745-.934-4.077-1.099-.334-2.462.952-3.044 2.871-.582 1.918-.163 3.743.935 4.077 1.099.333 2.461-.953 3.043-2.871"/><path d="m186.95 521.66c.513-1.687.223-3.269-.643-3.531-.867-.264-1.985.891-2.497 2.579-.512 1.688-.224 3.27.644 3.532.867.264 1.986-.891 2.497-2.58" fill="#ffcf00"/><path d="m186.38 521.47c.314-1.032.146-1.996-.372-2.152-.52-.158-1.194.551-1.507 1.582-.313 1.032-.147 1.997.374 2.154.52.156 1.193-.553 1.505-1.584"/><path d="m185.96 521.34c.243-.801.207-1.521-.082-1.609-.289-.087-.719.491-.962 1.293-.244.801-.206 1.521.082 1.609.288.086.719-.492.962-1.293" fill="#e6a800"/></g></svg>