<svg xmlns="http://www.w3.org/2000/svg" xmlns:xlink="http://www.w3.org/1999/xlink" width="400.01" height="480" viewBox="0 0 400.01306 479.92136" fill-rule="evenodd"><defs><path id="C" d="m0 0h67.749v67.749h-67.749z"/><linearGradient id="4" gradientUnits="userSpaceOnUse" gradientTransform="matrix(.22625 0 0 .22614-80.64-156.9)" y1="1520.12" x2="0" y2="2167.25"><stop stop-color="#fff"/><stop offset=".502" stop-color="#ccc"/><stop offset="1" stop-color="#fff"/></linearGradient><linearGradient id="9" gradientUnits="userSpaceOnUse" gradientTransform="matrix(.22625 0 0 .22614-80.64-156.9)" x1="1693.35" x2="793.39"><stop stop-color="#ffe600"/><stop offset=".259" stop-color="#ff0"/><stop offset=".749" stop-color="#ff0"/><stop offset="1" stop-color="#ffe600"/></linearGradient><linearGradient id="B" gradientUnits="userSpaceOnUse" gradientTransform="matrix(.22625 0 0 .22614-80.64-156.9)" x1="908.31" x2="1578.53"><stop stop-color="#fb0"/><stop offset=".49" stop-color="#ff0"/><stop offset="1" stop-color="#fb0"/></linearGradient><linearGradient id="A" gradientUnits="userSpaceOnUse" gradientTransform="matrix(.22625 0 0 .22614-80.64-156.9)" x1="1109.31" x2="1377.44"><stop stop-color="#ffcf00"/><stop offset=".361" stop-color="#ff0"/><stop offset=".58" stop-color="#ff0"/><stop offset="1" stop-color="#ffcf00"/></linearGradient><radialGradient xlink:href="#0" id="8" gradientUnits="userSpaceOnUse" gradientTransform="matrix(1.14286 0 0 1.39554.006-12.68)" cx="252.02" cy="49.4" r="3.392"/><radialGradient xlink:href="#0" id="7" gradientUnits="userSpaceOnUse" gradientTransform="matrix(1.14286 0 0 1.39554.006-12.68)" cx="98.86" cy="49.642" r="3.392"/><radialGradient id="6" gradientUnits="userSpaceOnUse" gradientTransform="matrix(1.29147 0 0 1.24871-27.568-58.959)" cx="185.41" cy="343.61" r="90.91"><stop stop-color="#ccc"/><stop offset=".215" stop-color="#ccc"/><stop offset="1" stop-color="#fff"/></radialGradient><radialGradient xlink:href="#0" id="1" gradientUnits="userSpaceOnUse" cx="1044.89" cy="951.81" r="45.755"/><radialGradient id="0" gradientUnits="userSpaceOnUse" cx="1043.23" cy="950.3" r="37.583"><stop stop-color="#ff0"/><stop offset="1" stop-color="#fb0"/></radialGradient><radialGradient xlink:href="#0" id="2" gradientUnits="userSpaceOnUse" cx="1421.29" cy="951.81" r="45.755"/><radialGradient id="5" gradientUnits="userSpaceOnUse" gradientTransform="matrix(1.18037 0 0 1.16503-3.634 19.861)" cx="146.85" cy="120.75" r="89.42"><stop stop-color="#ccc"/><stop offset="1" stop-color="#fff"/></radialGradient><radialGradient xlink:href="#0" id="3" gradientUnits="userSpaceOnUse" cx="1237.23" cy="913.25" r="24.876"/></defs><g stroke="#000"><path d="m200.01 478.63c-15.446-28.681-39.453-40.17-63.61-47.593-38.506-11.828-82.12-19.596-108.47-53.56-17.824-22.971-27.29-55.784-26.538-100.49 15.523-15.822 25.498-40.41 25.498-68.03 0-27.01-9.542-51.12-24.482-66.966l.231-111.64c52.07-18.04 129.87-29.05 197.38-29.05 67.5 0 145.3 11.01 197.38 29.05l.231 111.64c-14.94 15.848-24.482 39.961-24.482 66.966 0 27.613 9.974 52.2 25.498 68.03.754 44.709-8.714 77.52-26.538 100.49-26.355 33.967-69.965 41.735-108.47 53.56-24.16 7.422-48.17 18.912-63.61 47.593z" fill="#2aa5e0" stroke-width="2.671"/><g stroke-width="1.143"><path fill="url(#B)" d="m124.87 93.69h151.64v19.12h-151.64z"/><path d="m276.22 93.26l3.447-14.782c-7.96 10.04-25.05 17.16-37.428 2.705-18.01 15.295-36.501 5.943-41.563-12.778-5.062 18.721-23.549 28.07-41.563 12.778-12.379 14.46-29.468 7.336-37.428-2.705l3.447 14.782h151.09z" fill="#fb0"/><path d="m124.43 114.5h152.51c.738 0 1.336-.598 1.336-1.335 0-.737-.598-1.335-1.336-1.335h-152.51c-.738 0-1.336.598-1.336 1.335 0 .738.598 1.335 1.336 1.335zm0-19.831h152.51c.738 0 1.336-.598 1.336-1.335 0-.737-.598-1.335-1.336-1.335h-152.51c-.738 0-1.336.598-1.336 1.335 0 .738.598 1.335 1.336 1.335z" fill="#ff0"/></g></g><g transform="matrix(.22625 0 0 .22614-80.64-156.9)" stroke-width="5.05"><use transform="matrix(.81339-.33451.81339.33451 1188 1146.6)" fill="#ff0" stroke-width="6.849" xlink:href="#C"/><g stroke-width="5.05"><path fill="#ffcf00" d="m1243.1 1146.6v-22.66l55.11 22.66z"/><path fill="#fb0" d="m1243.1 1146.6v22.66l55.11-22.66z"/><path fill="#ffe600" d="m1243.1 1146.6v22.66l-55.1-22.66z"/></g><g fill="none" stroke="#000"><use transform="matrix(.81339-.33451.81339.33451 1188 1146.6)" stroke-width="6.849" xlink:href="#C"/><g stroke-width="5.05"><path d="m1188 1146.6h110.2"/><path d="m1243.1 1123.94v45.32"/></g></g></g><g stroke-width="5.05" transform="matrix(.22625 0 0 .22614-80.64-156.9)"><use transform="matrix(.81339-.33451.81339.33451 1007.13 1146.6)" fill="#ff0" stroke-width="6.849" xlink:href="#C"/><g stroke-width="5.05"><path fill="#ffcf00" d="m1062.23 1146.6v-22.66l55.11 22.66z"/><path fill="#fb0" d="m1062.23 1146.6v22.66l55.11-22.66z"/><path fill="#ffe600" d="m1062.23 1146.6v22.66l-55.1-22.66z"/></g><g fill="none" stroke="#000"><use transform="matrix(.81339-.33451.81339.33451 1007.13 1146.6)" stroke-width="6.849" xlink:href="#C"/><g stroke-width="5.05"><path d="m1007.13 1146.6h110.21"/><path d="m1062.23 1123.94v45.32"/></g></g><use transform="matrix(.81339-.33451.81339.33451 1369.5 1146.6)" fill="#ff0" stroke-width="6.849" xlink:href="#C"/><g stroke-width="5.05"><path fill="#ffcf00" d="m1424.61 1146.6v-22.66l55.1 22.66z"/><path fill="#fb0" d="m1424.61 1146.6v22.66l55.1-22.66z"/><path fill="#ffe600" d="m1424.61 1146.6v22.66l-55.11-22.66z"/></g><g fill="none" stroke="#000"><use transform="matrix(.81339-.33451.81339.33451 1369.5 1146.6)" stroke-width="6.849" xlink:href="#C"/><g stroke-width="5.05"><path d="m1369.51 1146.6h110.2"/><path d="m1424.61 1123.94v45.32"/></g></g><use transform="matrix(.33901-.33451.33901.33451 885.34 1146.6)" fill="#ff0" stroke-width="10.609" xlink:href="#C"/><path fill="#fb0" stroke-width="5.05" d="m885.35 1146.6l22.96 22.66 22.97-22.66z"/><g fill="none" stroke="#000"><use transform="matrix(.33901-.33451.33901.33451 885.34 1146.6)" stroke-width="10.609" xlink:href="#C"/><path stroke-width="5.05" d="m885.35 1146.6h45.932"/></g><use transform="matrix(.33901-.33451.33901.33451 1555.56 1146.6)" fill="#ff0" stroke-width="10.609" xlink:href="#C"/><path fill="#fb0" stroke-width="5.05" d="m1555.56 1146.6l22.97 22.66 22.97-22.66z"/><g fill="none" stroke="#000"><use transform="matrix(.33901-.33451.33901.33451 1555.56 1146.6)" stroke-width="10.609" xlink:href="#C"/><path stroke-width="5.05" d="m1555.56 1146.6h45.94"/></g><g stroke="#000"><circle r="42.802" cy="966.57" cx="1055.22" fill="url(#1)"/><circle r="42.802" cy="966.57" cx="1431.62" fill="url(#2)"/></g></g><g stroke="#000"><g stroke-width="1.143"><path d="m201.28 59.914c1.409 1.682 3.982 2.445 6.091 1.687.212-1.688 1.653-2.992 3.398-2.992 3.068 0 4.491 3.738 2.443 5.822 3.947 1.428 8.221-2.378 6.873-6.607 4.767 3.247 11.543-2.165 8.501-7.712-.715 2.455-3.209 4.248-5.669 4.248-2.46 0-4.179-1.241-5.182-3.07.369-1.269 1.154-2.359 2.196-3.119-3.908-1.547-8.738-1.111-12.149 1.416.286-2.933 3.046-5.01 5.911-4.547-.773-1.851-2.563-3.172-4.673-3.263 2.782-.945 4.248-4.03 3.318-6.752-1.407 2.748-4.907 3.704-7.5 2.121v-2.301c-.739-1.871-2.462-3.79-4.161-4.874-1.699 1.083-3.423 3-4.161 4.874v2.301c-2.592 1.584-6.092.627-7.5-2.121-.93 2.721.536 5.807 3.318 6.752-2.109.091-3.9 1.412-4.673 3.263 2.865-.461 5.625 1.614 5.911 4.547-3.411-2.527-8.241-2.963-12.149-1.416 1.042.759 1.826 1.85 2.196 3.119-1 1.829-2.722 3.07-5.182 3.07-2.46 0-4.954-1.794-5.669-4.248-3.042 5.547 3.734 10.959 8.501 7.712-1.347 4.229 2.926 8.04 6.873 6.607-2.048-2.084-.625-5.822 2.443-5.822 1.746 0 3.187 1.305 3.398 2.992 2.01.722 4.438.064 5.882-1.453l1.415-.234z" fill="url(#A)"/><path d="m202.83 53.76c.628 6.902 1.488 13.771 3.613 19.837l.003-.002.077.214h-.003c.384 1.057.856 2.063 1.404 3.01 3.239 5.601 9.246 9.01 15.71 9.306 3.748.173 7.487-.693 10.743-2.524 7.264-4.084 2.883-12.447-4.839-10.297 1.604-1.825 3.955-2.976 6.576-2.976 2.939 0 5.539 1.448 7.126 3.67 3.03-4.237 9.05-5.143 12.447-.833-7.823-1.297-12.764 7.129-5.248 11.323 6.554 3.658 16.486 1.93 21.03-2.46 3.284-3.169 5.24-8.03 6.459-12.451-1.146.234-2.36-.063-3.27-.806.703-.721 1.239-1.669 1.529-2.517-.688-1.142-1.941-1.905-3.371-1.905-2.172 0-3.933 1.761-3.933 3.931 0 .475.085.93.239 1.351-1.728-.821-2.924-2.581-2.924-4.62 0-1.74.871-3.277 2.2-4.201-3.773-2.144-3.283-7.88.88-9.292-.815 2.469 1.04 5.165 3.735 5.165 2.76 0 4.617-2.82 3.685-5.309 2.245-.569 4.679.17 6.228 1.914.002-.058.002-.115.002-.174 0-2.813-1.858-5.193-4.414-5.98 2.308-1.534 5.265-1.875 7.857-.919.136-2.63-.937-5.203-2.901-6.961 3.907-.473 7.535 1.761 9.05 5.16 3.066-2.395 7.6-1.81 9.957 1.323-7.421-1.833-12.248 6.726-15.16 12.13-4.04 7.51-5.274 18.03-9.787 25.15-7.089 11.176-27.437 12.381-35.561 2.255-11.543 10.62-31.09 8.38-39.12-5.513-.869-1.502-1.6-3.085-2.178-4.724-.578 1.639-1.31 3.221-2.178 4.724-8.03 13.893-27.581 16.13-39.12 5.513-8.124 10.126-28.472 8.921-35.561-2.255-4.513-7.115-5.744-17.637-9.787-25.15-2.909-5.402-7.735-13.961-15.16-12.13 2.357-3.133 6.891-3.718 9.957-1.323 1.515-3.399 5.143-5.632 9.05-5.16-1.965 1.758-3.038 4.331-2.901 6.961 2.592-.956 5.549-.615 7.857.919-2.556.787-4.414 3.167-4.414 5.98 0 .058.0001.116.002.174 1.549-1.744 3.983-2.483 6.228-1.914-.932 2.488.925 5.309 3.685 5.309 2.695 0 4.55-2.696 3.735-5.165 4.163 1.411 4.653 7.147.88 9.292 1.329.924 2.2 2.461 2.2 4.201 0 2.039-1.195 3.799-2.924 4.62.154-.421.239-.876.239-1.351 0-2.17-1.762-3.931-3.933-3.931-1.43 0-2.683.763-3.371 1.905.29.848.826 1.796 1.529 2.517-.91.743-2.124 1.04-3.27.806 1.218 4.425 3.174 9.281 6.459 12.451 4.549 4.391 14.481 6.118 21.03 2.46 7.515-4.194 2.574-12.621-5.248-11.323 3.399-4.31 9.42-3.404 12.447.833 1.587-2.222 4.187-3.67 7.127-3.67 2.621 0 4.971 1.152 6.576 2.976-7.722-2.151-12.1 6.213-4.839 10.297 3.255 1.831 6.995 2.697 10.743 2.524 6.463-.298 12.47-3.705 15.71-9.306.548-.947 1.019-1.953 1.404-3.01h-.003l.077-.214.003.002c2.125-6.07 2.985-12.935 3.613-19.837h4.318z" fill="url(#9)"/></g><circle r="21.923" cy="920.63" cx="1243.13" transform="matrix(.22625 0 0 .22614-80.64-156.9)" fill="url(#3)" stroke-width="5.05"/><g stroke-width="1.143"><path d="m288.53 54.869c-2.738-.046-4.996 2.137-5.04 4.874-.021 1.232.412 2.367 1.142 3.247.077.005.154.009.232.001 2.738.046 4.996-2.137 5.04-4.874.021-1.232-.412-2.367-1.142-3.247-.077-.005-.154-.008-.232-.009z" fill="url(#8)"/><path d="m112.82 54.869c2.738-.046 4.996 2.137 5.04 4.874.021 1.232-.412 2.367-1.142 3.247-.077.005-.154.009-.232.001-2.738.046-4.996-2.137-5.04-4.874-.021-1.232.412-2.367 1.142-3.247.077-.005.154-.008.232-.009z" fill="url(#7)"/></g></g><path d="m118.85 302.46c11.1 18.491 29.621 32.633 49.21 40.67 21.481 8.815 45.712 9.296 67.953 3.191 15.543-4.268 32.577-13.724 32.593-31.858.022-24.04-26.838-35.07-46.44-39.31-15.202-3.282-30.716-4.337-45.928-7.455-33.18-6.801-75.943-27.01-76.3-66.63-.296-32.458 30.04-54.785 58.36-63.15 28.554-8.43 52.87-6.06 81.4-.563 17.835 3.437 38.565 5.922 64.64-1.429-12.936 23.356-19.265 49.902-18.421 76.56-13.587-21.52-32.727-33.22-51.967-39.632-20.565-6.856-44.45-8.199-65.42-2.364-17.583 4.892-33.523 15.221-33.625 33.989-.122 22.295 22.605 35.05 41.489 39.54 16.633 3.953 33.79 4.122 50.48 7.776 33.843 7.41 76.38 28.911 76.61 69.16.198 33.693-30.909 50.86-59.47 58.49-28.317 7.567-55.794 7.122-84.31.906-20.227-4.409-41.16-8.741-64.03-3.21 13.868-21.706 22.24-47.26 23.17-74.69" fill="#fff"/><path d="m199.79 247.78v23.643c7.479 1.037 14.956 2.152 22.357 3.75 19.6 4.231 46.49 15.242 46.46 39.29-.016 18.13-17.06 27.589-32.607 31.857-22.24 6.106-46.48 5.636-67.964-3.179-19.586-8.04-38.08-22.19-49.18-40.679-.93 27.433-9.31 52.972-23.18 74.68 22.87-5.531 43.809-1.195 64.04 3.214 28.517 6.216 55.969 6.674 84.29-.893 28.557-7.634 59.663-24.807 59.46-58.5-.237-40.25-42.764-61.732-76.61-69.14-8.946-1.959-18.01-2.96-27.07-4.04" fill="url(#6)"/><path d="m199.01 132.43c-13.215-.226-26.438 1.285-40.714 5.5-28.324 8.362-58.654 30.684-58.36 63.14.361 39.622 43.11 59.842 76.29 66.64 7.805 1.6 15.69 2.621 23.571 3.714v-23.643c-7.845-.931-15.674-1.915-23.393-3.75-18.884-4.488-41.622-17.241-41.5-39.536.102-18.767 16.06-29.11 33.643-34 20.974-5.835 44.828-4.499 65.39 2.357 19.24 6.415 38.38 18.12 51.964 39.643-.845-26.662 5.493-53.22 18.429-76.57-26.08 7.351-46.808 4.865-64.64 1.429-14.267-2.749-27.464-4.703-40.679-4.929" fill="url(#5)"/><g stroke="#000" stroke-width="1.143"><path d="m118.85 302.46c11.1 18.491 29.621 32.633 49.21 40.67 21.481 8.815 45.712 9.296 67.953 3.191 15.543-4.268 32.577-13.724 32.593-31.858.022-24.04-26.838-35.07-46.44-39.31-15.202-3.282-30.716-4.337-45.928-7.455-33.18-6.801-75.943-27.01-76.3-66.63-.296-32.458 30.04-54.785 58.36-63.15 28.554-8.43 52.87-6.06 81.4-.563 17.835 3.437 38.565 5.922 64.64-1.429-12.936 23.356-19.265 49.902-18.421 76.56-13.587-21.52-32.727-33.22-51.967-39.632-20.565-6.856-44.45-8.199-65.42-2.364-17.583 4.892-33.523 15.221-33.625 33.989-.122 22.295 22.605 35.05 41.489 39.54 16.633 3.953 33.79 4.122 50.48 7.776 33.843 7.41 76.38 28.911 76.61 69.16.198 33.693-30.909 50.86-59.47 58.49-28.317 7.567-55.794 7.122-84.31.906-20.227-4.409-41.16-8.741-64.03-3.21 13.868-21.706 22.24-47.26 23.17-74.69z" fill="none"/><path d="m160.98 122.59c13.986 28.738 23.432 70.49 24.531 123.27 9.594 1.61 19.3 2.416 28.934 3.775.717-54.57 10.277-97.62 24.595-127.04-11.546 3.84-24.857 6.03-39.03 6.03-14.174 0-27.484-2.193-39.03-6.03zm24.468 146.79c-1.366 53.05-10.891 103.53-24.856 131.72 10.903-6.509 24.575-10.383 39.42-10.383 14.842 0 28.514 3.874 39.42 10.382-13.583-27.426-22.967-75.928-24.727-127.38-9.718-1.697-19.521-2.778-29.25-4.342z" fill="url(#4)"/></g></svg>