<svg xmlns="http://www.w3.org/2000/svg" xmlns:xlink="http://www.w3.org/1999/xlink" viewBox="-0.6792 0 552 715" enable-background="new -0.6792 0 552 715"><defs><path id="D" d="m9.791 13.418c0 0 0 567.44 0 575.69 0 20.39 19.538 33.613 38.704 38.864 20.02 5.49 48.988 5.262 81.18 5.262 36.462 0 63.03.221 84.5 8.151 35.44 13.1 53.19 34.888 61.14 58.24 7.938-23.398 24.451-45.24 59.961-58.36 21.476-7.934 48.03-8.149 84.5-8.149 32.19 0 61.16.225 81.18-5.264 19.242-5.276 38.803-18.349 38.803-39.08 0-8.639 0-575.35 0-575.35h-529.97"/><clipPath id="0"><use xlink:href="#D"/></clipPath><linearGradient id="8" gradientUnits="userSpaceOnUse" x1="264.32" x2="285.32"><stop offset=".005" stop-color="#a95502"/><stop offset=".039" stop-color="#c0752b"/><stop offset=".078" stop-color="#d59351"/><stop offset=".116" stop-color="#e6ab70"/><stop offset=".153" stop-color="#f2bc86"/><stop offset=".189" stop-color="#fac793"/><stop offset=".222" stop-color="#fcca97"/><stop offset=".312" stop-color="#e8ae74"/><stop offset=".481" stop-color="#c57e37"/><stop offset=".605" stop-color="#af6010"/><stop offset=".67" stop-color="#a75502"/><stop offset=".777" stop-color="#ab5b0c"/><stop offset="1" stop-color="#b3661d"/></linearGradient><linearGradient id="7" gradientUnits="userSpaceOnUse" x1="112.39" y1="643.06" x2="248.51" y2="69.72" xlink:href="#2"/><linearGradient id="9" gradientUnits="userSpaceOnUse" x1="255.32" x2="296.32" xlink:href="#8"/><linearGradient id="B" gradientUnits="userSpaceOnUse" x1="300.09" y1="395.42" x2="338.09" y2="363.42" xlink:href="#8"/><linearGradient id="A" gradientUnits="userSpaceOnUse" x1="229.71" x2="320.93" xlink:href="#8"/><linearGradient id="6" gradientUnits="userSpaceOnUse" x1="136.71" y1="638.86" x2="270.72" y2="74.38" xlink:href="#2"/><linearGradient id="1" gradientUnits="userSpaceOnUse" x1="-76.28" y1="642.49" x2="571.72" y2="32.485"><stop offset=".005" stop-color="#d1d1d1"/><stop offset=".159" stop-color="#e3e3e3"/><stop offset=".385" stop-color="#f8f8f8"/><stop offset=".536" stop-color="#fff"/><stop offset=".676" stop-color="#f6f6f6"/><stop offset=".906" stop-color="#ddd"/><stop offset="1" stop-color="#d1d1d1"/></linearGradient><linearGradient id="C" gradientUnits="userSpaceOnUse" x1="208.28" y1="358.76" x2="253.28" y2="396.76" xlink:href="#8"/><linearGradient id="2" gradientUnits="userSpaceOnUse" x1="389.04" y1="637.16" x2="257.04" y2="81.16"><stop offset=".005" stop-color="#a95502"/><stop offset=".048" stop-color="#c0752b"/><stop offset=".097" stop-color="#d59351"/><stop offset=".145" stop-color="#e6ab70"/><stop offset=".191" stop-color="#f2bc86"/><stop offset=".237" stop-color="#fac793"/><stop offset=".278" stop-color="#fcca97"/><stop offset=".794" stop-color="#f7c38e"/><stop offset="1" stop-color="#b3661d"/></linearGradient><linearGradient id="4" gradientUnits="userSpaceOnUse" x1="317.78" y1="605.15" x2="434.99" y2="111.45" xlink:href="#2"/><linearGradient id="5" gradientUnits="userSpaceOnUse" x1="161.43" y1="638.26" x2="293.43" y2="82.26" xlink:href="#2"/><linearGradient id="3" gradientUnits="userSpaceOnUse" x1="413.76" y1="637.76" x2="279.74" y2="73.27" xlink:href="#2"/></defs><path clip-path="url(#0)" fill="url(#1)" d="m0 0l1.321 623 273.93 91.86 275.39-91.86v-623z"/><g clip-path="url(#0)" stroke="#8d4024" stroke-linejoin="round" stroke-linecap="round" stroke-width="1.691"><path fill="url(#2)" d="m278.59 103.37h4.43l95.77 539.5h-9.1z"/><path fill="url(#3)" d="m281.32 100.64h4.42l133.43 539.17h-9.1z"/><path fill="url(#4)" d="m285.74 100.64l5.64.98 170 538.19h-9.9z"/></g><g stroke="#8d4024" stroke-linejoin="round" stroke-linecap="round"><g clip-path="url(#0)" stroke-width="1.691"><path fill="url(#5)" d="m271.87 104.47h-4.42l-95.78 539.51h9.1z"/><path fill="url(#6)" d="m269.15 101.75h-4.43l-133.42 539.16h9.09z"/><path fill="url(#7)" d="m264.72 101.75l-5.46-.06-170.17 539.22h9.89z"/></g><g clip-path="url(#0)"><g stroke-width="1.691"><path fill="url(#8)" d="m283.07 35.46v70.2h-15.5v-70.27l1.54-1.886h12.46z"/><path fill="url(#9)" d="m290.55 93.75v124.58h-30.46v-124.58l3.02-1.7h24.51z"/></g><path fill="url(#A)" stroke-width="1.607" d="m311.78 189.89l9.15 523.86h-91.22l9.15-523.86 2.33-1.89h68.51z"/></g><g clip-path="url(#0)" stroke-width="1.691"><path fill="url(#B)" d="m99.06 148.62c0 0 3.775-7.214 14.489-16.12 11.268-9.371 17.601-11.829 17.601-11.829l4.167.833 412.85 484.57-40.988 34.968-408.19-488.18.079-4.237z"/><path fill="url(#C)" d="m419.16 120.27c0 0 7.712 2.549 18.329 11.573 11.167 9.492 14.5 15.492 14.5 15.492l-.333 4.333-407.98 488.19-41.36-34.529 412.65-484.42 4.19-.634z"/></g></g><use xlink:href="#D" fill="none" stroke="#848484" stroke-width="4"/></svg>