<svg xmlns="http://www.w3.org/2000/svg" viewBox="0 0 300 365" xmlns:xlink="http://www.w3.org/1999/xlink"><defs><linearGradient id="4" x1=".42" gradientUnits="userSpaceOnUse" gradientTransform="matrix(117.7039 136.311-136.8395 118.1602 303.22 304.3)" x2=".58" xlink:href="#0"/><linearGradient id="3" x1=".37" gradientUnits="userSpaceOnUse" gradientTransform="matrix(118.5449 135.7546-136.4641 119.1645 307.22 298.67)" x2=".63" xlink:href="#0"/><linearGradient id="0" x1=".37" gradientUnits="userSpaceOnUse" gradientTransform="matrix(127.8324-128.9046 128.9066 127.8344 168.25 429.16)" x2=".63"><stop/><stop stop-color="#a5dcdc" offset=".52"/><stop offset="1"/></linearGradient><linearGradient id="1" x1=".42" gradientUnits="userSpaceOnUse" gradientTransform="matrix(128.2733-127.9213 127.9149 128.2669 174.25 432.67)" x2=".58" xlink:href="#0"/><radialGradient id="2" cx="238.54" gradientUnits="userSpaceOnUse" cy="372.96" r="6.332"><stop stop-color="#a5dcdc"/><stop stop-color="#333" offset="1"/></radialGradient><radialGradient id="5" cx="357.99" gradientUnits="userSpaceOnUse" cy="376.52" r="6.234" xlink:href="#2"/></defs><g transform="translate(-110.8-412.69)"><path d="m332.56 587.22c2.935 0 5.315 2.38 5.315 5.315v5.314c0 2.935-2.38 5.315-5.315 5.315h-5.315v-15.944zm0 21.259c5.87 0 10.63-4.76 10.63-10.63v-5.314c0-5.87-4.76-10.63-10.63-10.63h-10.63v26.574zm-21.26-26.574h5.315v26.574h-5.315zm-10.63 0h5.315v26.574h-5.315l-10.63-16.684v16.684h-5.315v-26.574h5.315l10.63 16.684zm-79.72 0h15.945v5.315h-10.63v5.315h10.63v5.315h-10.63v5.315h10.63v5.315h-15.945zm-21.26-.0001h5.315v21.26h10.63v5.315h-15.945zm55.808 21.26h5.313c4.402 0 7.972-3.57 7.972-7.972s-3.637-7.957-7.972-7.972h-5.314v5.315h5.314c1.467 0 2.658 1.19 2.658 2.658s-1.19 2.658-2.658 2.658h-5.314zm5.313-26.575c10.272 0 18.602 8.33 18.602 18.602s-8.33 18.602-18.602 18.602-18.602-8.33-18.602-18.602 8.33-18.602 18.602-18.602m-13.287 18.602c0 7.337 5.95 13.287 13.287 13.287 7.337 0 13.287-5.95 13.287-13.287 0-7.337-5.95-13.287-13.287-13.287-7.337 0-13.287 5.95-13.287 13.287" fill="#a90000"/><g transform="matrix(1.86336 0 0-1.86272-293.8 1383.06)"><g fill-rule="evenodd"><path d="m378.14 520.94v-166.21c0-9.298-7.607-16.905-16.905-16.905h-46.754c-7.87-.03-14.512-5.508-16.34-12.839h-1c-1.827 7.331-8.472 12.809-16.342 12.839h-46.754c-9.298 0-16.905 7.607-16.905 16.905v166.21h161"/><path fill="#fff" d="m377.43 520.24v-165.5c0-8.933-7.267-16.2-16.2-16.2h-46.754c-7.981-.03-14.719-5.415-16.84-12.725-2.122 7.311-8.86 12.695-16.838 12.725h-46.756c-8.933 0-16.201 7.267-16.201 16.2v165.5h159.59"/></g><path fill="#de212b" d="m297.64 329.2c3.059 6.228 9.387 10.318 16.254 10.554.179.006.375.001.587.011v.005h46.754.005v-.005c8.189.002 14.966 6.78 14.966 14.969h-.005v.003h.005v164.27h-157.13v-164.27h.005v-.003h-.005c0-8.189 6.777-14.967 14.966-14.969v.005h.005 46.754v-.005c.212-.0001.409-.005.587-.011 6.866-.236 13.194-4.326 16.254-10.554"/><g fill-rule="evenodd"><path d="m353.79 378.45c2.252 2.646 6.221 2.966 8.866.714 2.645-2.25 2.966-6.22.715-8.866-2.25-2.645-6.22-2.964-8.865-.714-2.645 2.25-2.966 6.22-.716 8.865"/><path fill="url(#5)" d="m354.87 371.22c1.743-2.049 4.818-2.297 6.866-.554 2.049 1.743 2.297 4.817.554 6.866-1.743 2.048-4.817 2.296-6.866.553-2.049-1.743-2.297-4.817-.554-6.866"/></g><path d="m228.67 489.45c2.824 3.318 6.702 4.746 9.06 3.466l10.689-9.19c3.819.998 6.439-1.335 6.02-5.22 10.662-9.239 22.05-19.05 33.735-28.649 4.055.97 7.05-1.385 6.838-5.563 5.757-4.635 11.567-9.187 17.382-13.564 3.146.628 5.471-.892 5.628-4.129 5.281-3.759 10.688-7.31 16.16-10.798 3.131 1.519 6.736.409 6.272-3.981 1.7-1.082 3.436-2.192 5.223-3.355 1.638.492 3.699.498 5.05-.654.964-.82 1.45-2.101 1.505-3.703 2.275-1.544 4.654-3.196 7.167-4.992 2.127.517 3.907.33 5.104-.687 3.778-3.214.326-13.48-7.71-22.925-8.03-9.445-17.614-14.496-21.392-11.283-.988.84-1.482 2.167-1.527 3.833-2.405 2.703-4.574 5.265-6.574 7.719-1.208-.016-2.237.291-3.02.954-1.161.989-1.631 2.648-1.485 4.732-1.441 1.871-2.806 3.69-4.13 5.473-3.882-.675-4.909 2.37-4.195 5.655-4.04 5.407-8.03 10.587-12.416 15.587-3.227-.217-4.823 2.092-4.658 5.075-5.117 5.391-10.354 10.665-15.678 15.854-3.992-.629-6.463 2.02-6.162 5.938-10.733 10.232-21.743 20.19-32.724 30.14-1.575-.364-3.01-.21-4.082.548-1.531 1.081-1.865 2.958-1.689 4.69l-10.266 9.401-.117.108.016.019c-1.64 2.125-.854 6.181 1.969 9.501"/><path fill="url(#4)" d="m328.97 375.97c1.647-2.01 3.334-3.976 5.04-5.932v.009c.029-.027.055-.052.082-.076 2.955-2.514 10.742 1.784 17.39 9.598 6.647 7.813 9.64 16.188 6.686 18.703-1.801 1.532-4.051 2.843-6.01 4.182-.527-4.301-3.449-10.181-8.152-15.709-5.02-5.903-10.769-9.868-15.03-10.775m11.216 34.35c-.416-1.702-1.131-3.336-1.938-4.885-3.264-6.26-9.34-13.247-15.341-16.782-.969-.572-1.899-1.017-2.765-1.32 1.284-1.726 2.608-3.486 4-5.294 2.296-1.897 8.967 2.127 14.814 9 5.61 6.595 8.517 13.435 6.764 15.712-1.9 1.242-3.739 2.424-5.539 3.57m-24.785-16.583l.202-.095.007-.003c1.636-.765 4.276.81 5.572 1.649 4.692 3.035 9.08 8.267 11.458 13.368.935 2 1.711 4.492.644 6.05-5.19 3.312-10.323 6.68-15.346 10.23-.067-.457-.166-.931-.297-1.416-1.529-5.658-6.943-12.02-12.283-14.436-.572-.259-1.134-.464-1.676-.617 4.117-4.742 7.956-9.684 11.718-14.728m-16.323 19.806c.745-.252 1.902.033 3.251.743 3.964 2.085 8.268 7.144 9.69 11.39.523 1.565.594 2.829.111 3.489-5.802 4.355-11.593 8.882-17.334 13.493-.613-2.919-2.246-5.648-4.164-7.878-1.931-2.237-4.461-4.303-7.294-5.271 5.346-5.224 10.602-10.536 15.74-15.967zm-10.254 33.96c-11.98 9.804-23.671 19.862-34.689 29.408-.546-2-1.708-4.212-3.407-6.267-1.701-2.048-3.855-3.915-6.344-4.952 11.209-10.158 22.438-20.319 33.372-30.784 2.603-1.695 6.796 1.923 8.319 3.665 1.627 1.869 4.535 6.357 2.749 8.93m-49.17 41.95c.086-2.101-.893-4.698-2.813-6.954-1.982-2.33-4.483-3.727-6.615-3.911 2.848-2.62 5.773-5.287 8.76-8 2.346-1.512 6.199 2.12 7.485 3.688 1.028 1.258 3.712 5.416 2.117 7.44-3.04 2.638-6.02 5.224-8.934 7.739"/><path fill="url(#3)" d="m289.69 448.67c2.789-3.046-.37-8.499-2.478-10.944-2.07-2.398-6.861-6.214-10.235-4 .311-3.335 3.405-3.829 6.166-2.785 2.126.805 4.429 2.453 6.421 4.76 1.78 2.068 3.311 4.613 3.863 7.327.594 2.894-.345 5.867-3.737 5.641m70.52-50.68c1.684-3.929-1.348-11.931-7.602-19.282-6.07-7.136-13.233-11.372-17.442-10.671.071-1.19.446-2.131 1.157-2.736 3.184-2.707 11.87 2.272 19.401 11.122 7.527 8.849 11.05 18.223 7.869 20.931-.809.688-1.974.879-3.384.637m-13.232 9.411c1.791-3.05-1.08-10.405-6.933-17.283-5.85-6.879-12.65-10.892-15.948-9.612.068-1.16.436-2.079 1.134-2.673 2.994-2.547 10.923 1.854 17.706 9.826 6.783 7.974 9.857 16.504 6.861 19.05-.696.594-1.662.809-2.82.691m-12.04 7.177c.526-1.575.103-3.944-1.1-6.621-2.353-5.229-6.933-10.565-11.654-13.703-1.734-1.153-4.172-2.532-6.361-2.146-.533-1.493-.147-2.721.403-3.3 1.045-1.102 3.403-.456 5.967 1.056 5.746 3.386 11.659 10.189 14.792 16.191.671 1.287 1.765 3.602 2.045 5.592.2 1.422-.003 2.668-.958 3.161-.655.337-2.02.48-3.134-.231m-21.369 14.881c.451-1.062.358-2.545-.207-4.233-1.539-4.597-6.08-9.936-10.371-12.193-1.575-.829-3.03-1.159-4.148-.885.359-3.1 3.351-2.95 5.934-1.779 4.953 2.239 10.08 8.268 11.501 13.516.598 2.214.659 5.73-2.71 5.574m-63.824 53.08c.598-.79.811-1.877.671-3.116h.0001c-.253-2.248-1.497-4.416-2.913-6.127-1.821-2.189-5.926-5.688-9.05-4.03.175-3.02 2.869-3.281 5.23-2.341 2.343.932 4.372 2.696 5.96 4.612 1.706 2.063 2.821 4.278 3.249 6.213.547 2.474-.131 5.098-3.145 4.789"/><g fill-rule="evenodd"><path d="m229.75 488.53c2.567 3.02 5.995 4.318 7.656 2.904 1.661-1.413.928-5.01-1.639-8.02-2.566-3.02-5.995-4.317-7.656-2.904-1.661 1.412-.928 5.01 1.639 8.02z" stroke="#000" stroke-miterlimit="10" stroke-width=".216" fill="#abbfbf"/><path d="m230.87 487.58c2.029 2.385 4.523 3.599 5.568 2.709 1.045-.889.248-3.545-1.782-5.931-2.03-2.385-4.522-3.598-5.569-2.709-1.043.889-.248 3.545 1.783 5.93"/><path d="m245.09 376.66c2.477-2.435 2.512-6.417.078-8.894-2.435-2.477-6.417-2.512-8.894-.078-2.477 2.434-2.512 6.417-.078 8.895 2.434 2.477 6.417 2.512 8.894.078"/><path fill="url(#2)" d="m244.09 375.65c1.918-1.886 1.945-4.97.06-6.889-1.886-1.918-4.97-1.945-6.889-.06-1.918 1.885-1.945 4.97-.06 6.889 1.885 1.918 4.97 1.944 6.889.06"/></g><path d="m364.77 493.5c3.108-3.054 4.253-7.02 2.809-9.288l-9.933-10c.721-3.882-1.793-6.327-5.637-5.63-9.981-9.973-20.578-20.626-30.995-31.596.677-4.114-1.886-6.934-6.04-6.421-5.04-5.409-9.992-10.879-14.775-16.365.401-3.183-1.281-5.393-4.522-5.317-4.129-4.998-8.06-10.137-11.929-15.341 1.29-3.23-.074-6.748-4.42-5.971-1.201-1.618-2.433-3.27-3.721-4.969.373-1.67.232-3.726-1.015-4.993-.887-.903-2.199-1.295-3.8-1.235-1.703-2.159-3.522-4.413-5.494-6.791.364-2.158.049-3.921-1.052-5.04-3.477-3.538-13.469.641-22.314 9.333-8.844 8.691-13.196 18.609-9.72 22.15.91.926 2.268 1.322 3.932 1.248 2.869 2.205 5.58 4.185 8.17 6 .072 1.205.451 2.21 1.169 2.94 1.069 1.088 2.759 1.437 4.827 1.142 1.97 1.303 3.882 2.534 5.755 3.727-.395 3.92 2.717 4.726 5.942 3.779 5.682 3.646 11.135 7.246 16.436 11.265.015 3.235 2.433 4.663 5.396 4.282 5.745 4.719 11.38 9.564 16.937 14.501-.341 4.03 2.476 6.303 6.365 5.721 10.976 9.973 21.692 20.24 32.409 30.48-.251 1.597.006 3.01.839 4.03 1.187 1.449 3.084 1.648 4.798 1.348l10.113 9.566.116.108.017-.017c2.237 1.484 6.227.408 9.334-2.646"/><path fill="url(#1)" d="m244.39 401.59c-2.118-1.499-4.204-3.04-6.277-4.601l.008-.002c-.028-.026-.055-.05-.081-.077-2.719-2.767 1.01-10.842 8.326-18.03 7.316-7.19 15.456-10.777 18.18-8.01 1.658 1.687 3.127 3.837 4.603 5.697-4.252.834-9.908 4.17-15.08 9.257-5.529 5.433-9.07 11.449-9.669 15.768m33.454-13.65c-1.668.537-3.246 1.367-4.733 2.284-6.01 3.704-12.543 10.266-15.64 16.503-.501 1.01-.877 1.966-1.119 2.853-1.813-1.156-3.663-2.351-5.567-3.614-2.057-2.154 1.479-9.1 7.916-15.422 6.175-6.069 12.789-9.458 15.186-7.873 1.376 1.807 2.686 3.557 3.958 5.269m-14.764 25.912l-.109-.195-.003-.006c-.88-1.578.501-4.323 1.245-5.678 2.69-4.897 7.595-9.644 12.512-12.386 1.931-1.077 4.358-2.028 5.986-1.075 3.676 4.939 7.403 9.819 11.304 14.574-.451.099-.916.232-1.39.397-5.534 1.931-11.492 7.786-13.519 13.286-.217.589-.382 1.164-.494 1.716-5.03-3.768-10.231-7.241-15.531-10.632m20.925 14.859c-.305-.724-.104-1.899.508-3.296 1.795-4.103 6.533-8.759 10.666-10.481 1.524-.635 2.78-.796 3.473-.361 4.76 5.475 9.689 10.927 14.701 16.322-2.867.822-5.474 2.646-7.56 4.718-2.094 2.087-3.973 4.759-4.735 7.654-5.594-4.957-11.269-9.82-17.05-14.556m34.609 7.794c10.636 11.247 21.508 22.19 31.818 32.492-1.956.687-4.079 2.01-6.01 3.848-1.92 1.842-3.629 4.124-4.485 6.68-10.935-10.45-21.876-20.923-33.1-31.08-1.877-2.475 1.431-6.916 3.059-8.561 1.748-1.757 6.02-4.978 8.711-3.382m45.37 46.03c-2.101.065-4.621 1.228-6.734 3.304-2.182 2.144-3.397 4.739-3.426 6.878-2.817-2.653-5.688-5.379-8.609-8.164-1.677-2.231 1.67-6.334 3.14-7.73 1.181-1.116 5.137-4.091 7.27-2.645 2.849 2.845 5.642 5.633 8.359 8.357"/><path fill="url(#0)" d="m319.72 435.56c-3.238-2.563-8.45.978-10.737 3.257-2.243 2.236-5.706 7.288-3.256 10.495-3.349-.071-4.063-3.122-3.22-5.95.649-2.178 2.128-4.594 4.288-6.746 1.935-1.924 4.363-3.633 7.03-4.378 2.844-.799 5.877-.077 5.895 3.322m-55.605-66.7c-4.04-1.398-11.804 2.199-18.688 8.964-6.682 6.567-10.394 14.01-9.393 18.16-1.193.014-2.158-.293-2.813-.959-2.929-2.981 1.416-12 9.703-20.15 8.287-8.144 17.384-12.331 20.313-9.35.744.757 1.018 1.906.878 3.329m10.336 12.524c-3.171-1.567-10.3 1.823-16.742 8.153-6.441 6.33-9.956 13.399-8.444 16.597-1.162.015-2.106-.286-2.748-.939-2.756-2.804 1.065-11.03 8.532-18.365 7.466-7.337 15.755-11.01 18.51-8.21.642.653.926 1.602.891 2.764m8.02 11.493c-1.608-.412-3.94.179-6.525 1.572-5.05 2.721-10.04 7.672-12.831 12.606-1.026 1.812-2.226 4.343-1.685 6.499-1.452.639-2.705.34-3.32-.165-1.174-.964-.699-3.363.625-6.03 2.966-5.974 9.328-12.359 15.09-15.915 1.235-.762 3.466-2.02 5.431-2.441 1.404-.301 2.661-.188 3.221.73.383.628.624 1.982-.006 3.142m16.373 20.246c-1.092-.372-2.565-.174-4.207.511-4.474 1.865-9.474 6.777-11.417 11.219-.714 1.631-.939 3.101-.585 4.2-3.118-.135-3.183-3.13-2.202-5.791 1.88-5.101 7.525-10.649 12.658-12.44 2.165-.755 5.666-1.068 5.753 2.302m57.52 59.853c-.831-.539-1.93-.673-3.156-.445-2.224.413-4.298 1.809-5.902 3.343-2.054 1.973-5.249 6.319-3.371 9.32-3.03.042-3.476-2.627-2.709-5.05.761-2.404 2.375-4.554 4.172-6.275 1.935-1.85 4.064-3.121 5.963-3.687 2.429-.723 5.095-.234 5 2.792"/><g fill-rule="evenodd"><path d="m363.78 492.49c2.825-2.776 3.876-6.289 2.348-7.845-1.529-1.556-5.06-.566-7.885 2.21-2.825 2.776-3.876 6.289-2.347 7.845 1.529 1.555 5.06.566 7.885-2.21z" stroke="#000" stroke-miterlimit="10" stroke-width=".216" fill="#abbfbf"/><path d="m362.75 491.44c2.234-2.195 3.265-4.769 2.303-5.748s-3.553.007-5.787 2.202c-2.234 2.195-3.265 4.769-2.303 5.748s3.554-.007 5.787-2.202"/></g></g></g></svg>