<svg xmlns="http://www.w3.org/2000/svg" xmlns:xlink="http://www.w3.org/1999/xlink" width="300" height="378" viewBox="0 0 84.666659 106.68001" fill-rule="evenodd"><defs><radialGradient xlink:href="#1" id="Q" gradientUnits="userSpaceOnUse" gradientTransform="matrix(1.02008 0 0 .80644-64.776-67.759)" cx="104.7" cy="139.54" r="11.838"/><radialGradient xlink:href="#0" id="P" gradientUnits="userSpaceOnUse" gradientTransform="matrix(1.02008 0 0 2.02535-64.776-220.14)" cx="78.978" cy="121.94" r="1.529"/><radialGradient xlink:href="#0" id="b" gradientUnits="userSpaceOnUse" gradientTransform="matrix(1.02008 0 0 2.02535-64.776-208.39)" cx="105.08" cy="110.26" r="1.529"/><radialGradient xlink:href="#0" id="O" gradientUnits="userSpaceOnUse" gradientTransform="matrix(1.02008 0 0 1.27804-64.776-133.82)" cx="81" cy="140.51" r="1.885"/><radialGradient xlink:href="#0" id="N" gradientUnits="userSpaceOnUse" gradientTransform="matrix(1.02008 0 0 1.27802-64.776-133.82)" cx="76.941" cy="140.52" r="1.885"/><radialGradient xlink:href="#0" id="K" gradientUnits="userSpaceOnUse" gradientTransform="matrix(1.02008 0 0 1.27802-64.776-130.83)" cx="76.941" cy="128.98" r="1.885"/><radialGradient xlink:href="#0" id="M" gradientUnits="userSpaceOnUse" gradientTransform="matrix(1.02008 0 0 1.27804-64.776-129.84)" cx="76.941" cy="125.14" r="1.885"/><radialGradient xlink:href="#0" id="L" gradientUnits="userSpaceOnUse" gradientTransform="matrix(1.02008 0 0 1.27804-64.776-129.84)" cx="81" cy="125.14" r="1.885"/><radialGradient xlink:href="#0" id="R" gradientUnits="userSpaceOnUse" gradientTransform="matrix(1.02008 0 0 1.27801-64.776-129.8)" cx="107.1" cy="124.99" r="1.885"/><radialGradient xlink:href="#0" id="S" gradientUnits="userSpaceOnUse" gradientTransform="matrix(1.02008 0 0 1.27802-64.776-129.8)" cx="103.04" cy="124.99" r="1.885"/><radialGradient xlink:href="#0" id="Y" gradientUnits="userSpaceOnUse" gradientTransform="matrix(1.02008 0 0 1.27804-64.776-126.81)" cx="103.04" cy="113.46" r="1.885"/><radialGradient xlink:href="#0" id="a" gradientUnits="userSpaceOnUse" gradientTransform="matrix(1.02008 0 0 1.27804-64.776-130.79)" cx="107.1" cy="128.83" r="1.885"/><radialGradient xlink:href="#0" id="Z" gradientUnits="userSpaceOnUse" gradientTransform="matrix(1.02008 0 0 1.27802-64.776-130.79)" cx="103.04" cy="128.84" r="1.885"/><radialGradient xlink:href="#0" id="X" gradientUnits="userSpaceOnUse" gradientTransform="matrix(1.02008 0 0 1.27804-64.776-126.81)" cx="107.1" cy="113.46" r="1.885"/><radialGradient xlink:href="#0" id="W" gradientUnits="userSpaceOnUse" gradientTransform="matrix(1.02008 0 0 1.27802-64.776-127.81)" cx="103.04" cy="117.3" r="1.885"/><radialGradient xlink:href="#0" id="T" gradientUnits="userSpaceOnUse" gradientTransform="matrix(1.02008 0 0 1.27804-64.776-128.8)" cx="107.1" cy="121.15" r="1.885"/><radialGradient xlink:href="#0" id="V" gradientUnits="userSpaceOnUse" gradientTransform="matrix(1.02008 0 0 1.27801-64.776-127.81)" cx="107.1" cy="117.3" r="1.885"/><radialGradient xlink:href="#0" id="U" gradientUnits="userSpaceOnUse" gradientTransform="matrix(1.02008 0 0 1.27804-64.776-128.81)" cx="103.04" cy="121.15" r="1.885"/><radialGradient xlink:href="#0" id="J" gradientUnits="userSpaceOnUse" gradientTransform="matrix(1.02008 0 0 1.27801-64.776-130.83)" cx="81" cy="128.98" r="1.885"/><radialGradient xlink:href="#0" id="I" gradientUnits="userSpaceOnUse" gradientTransform="matrix(1.02008 0 0 1.27804-64.776-131.83)" cx="76.941" cy="132.83" r="1.885"/><radialGradient xlink:href="#0" id="5" gradientUnits="userSpaceOnUse" gradientTransform="matrix(1.02008 0 0 1.27804-64.776-131.78)" cx="134.48" cy="132.65" r="1.885"/><radialGradient xlink:href="#0" id="7" gradientUnits="userSpaceOnUse" gradientTransform="matrix(1.02008 0 0 1.27801-64.776-130.78)" cx="134.48" cy="128.8" r="1.885"/><radialGradient xlink:href="#0" id="6" gradientUnits="userSpaceOnUse" gradientTransform="matrix(1.02008 0 0 1.27804-64.776-131.78)" cx="130.41" cy="132.65" r="1.885"/><radialGradient xlink:href="#0" id="4" gradientUnits="userSpaceOnUse" gradientTransform="matrix(1.02008 0 0 1.27802-64.776-132.77)" cx="130.41" cy="136.49" r="1.885"/><radialGradient xlink:href="#0" id="3" gradientUnits="userSpaceOnUse" gradientTransform="matrix(1.02008 0 0 1.27801-64.776-132.77)" cx="134.48" cy="136.49" r="1.885"/><radialGradient id="0" gradientUnits="userSpaceOnUse" cx="107.17" cy="128.83" r="5.03"><stop stop-color="#3c3"/><stop offset=".659" stop-color="#199933"/><stop offset="1" stop-color="#063"/></radialGradient><radialGradient xlink:href="#1" id="2" gradientUnits="userSpaceOnUse" gradientTransform="matrix(1.02008 0 0 .80644-64.776-65.31)" cx="132.08" cy="151.04" r="11.838"/><radialGradient id="1" gradientUnits="userSpaceOnUse" cx="105.18" cy="139.53" r="18.06"><stop stop-color="#3c3"/><stop offset=".412" stop-color="#199933"/><stop offset="1" stop-color="#063"/></radialGradient><radialGradient xlink:href="#0" id="8" gradientUnits="userSpaceOnUse" gradientTransform="matrix(1.02008 0 0 1.27802-64.776-130.78)" cx="130.41" cy="128.8" r="1.885"/><radialGradient xlink:href="#0" id="9" gradientUnits="userSpaceOnUse" gradientTransform="matrix(1.02008 0 0 1.27804-64.776-129.79)" cx="134.48" cy="124.95" r="1.885"/><radialGradient xlink:href="#0" id="F" gradientUnits="userSpaceOnUse" gradientTransform="matrix(1.02008 0 0 1.27801-64.776-132.82)" cx="81" cy="136.67" r="1.885"/><radialGradient xlink:href="#0" id="H" gradientUnits="userSpaceOnUse" gradientTransform="matrix(1.02008 0 0 1.27804-64.776-131.83)" cx="81" cy="132.83" r="1.885"/><radialGradient xlink:href="#0" id="G" gradientUnits="userSpaceOnUse" gradientTransform="matrix(1.02008 0 0 1.27802-64.776-132.82)" cx="76.941" cy="136.67" r="1.885"/><radialGradient xlink:href="#1" id="E" gradientUnits="userSpaceOnUse" gradientTransform="matrix(1.02008 0 0 .80644-64.776-65.27)" cx="78.61" cy="151.22" r="11.838"/><radialGradient xlink:href="#0" id="D" gradientUnits="userSpaceOnUse" gradientTransform="matrix(1.02008 0 0 2.02535-64.776-219.96)" cx="132.45" cy="121.76" r="1.529"/><radialGradient xlink:href="#0" id="A" gradientUnits="userSpaceOnUse" gradientTransform="matrix(1.02008 0 0 1.27804-64.776-129.79)" cx="130.41" cy="124.95" r="1.885"/><radialGradient xlink:href="#0" id="C" gradientUnits="userSpaceOnUse" gradientTransform="matrix(1.02008 0 0 1.27804-64.776-133.77)" cx="134.48" cy="140.33" r="1.885"/><radialGradient xlink:href="#0" id="B" gradientUnits="userSpaceOnUse" gradientTransform="matrix(1.02008 0 0 1.27802-64.776-133.77)" cx="130.41" cy="140.34" r="1.885"/></defs><path d="m62.58 51.09c.828 0 1.5.672 1.5 1.5v1.5c0 .828-.672 1.5-1.5 1.5h-1.5v-4.5h1.5m0 6c1.657 0 3-1.343 3-3v-1.5c0-1.657-1.343-3-3-3h-3v7.5h3m-6-7.5h1.5v7.5h-1.5v-7.5m-3 0h1.5v7.5h-1.5l-3-4.709v4.709h-1.5v-7.5h1.5l3 4.709v-4.709m-22.5 0h4.5v1.5h-3v1.5h3v1.5h-3v1.5h3v1.5h-4.5v-7.5m-6 0h1.5v6h3v1.5h-4.5v-7.5m15.75 6h1.5c1.242 0 2.25-1.01 2.25-2.25 0-1.242-1.027-2.245-2.25-2.25h-1.5v1.5h1.5c.414 0 .75.336.75.75 0 .414-.336.75-.75.75h-1.5v1.5m1.5-7.5c2.899 0 5.25 2.351 5.25 5.25 0 2.899-2.351 5.25-5.25 5.25-2.899 0-5.25-2.351-5.25-5.25 0-2.899 2.351-5.25 5.25-5.25m0 1.5c2.071 0 3.75 1.68 3.75 3.75 0 2.071-1.68 3.75-3.75 3.75-2.071 0-3.75-1.679-3.75-3.75 0-2.07 1.679-3.75 3.75-3.75" fill="#a90000"/><path d="m42.23 106.68c-2.806-5.231-8.329-8.79-14.684-8.79h-18.477c-5.01 0-9.07-4.06-9.07-9.07v-88.82h84.67v88.82c0 5.01-4.064 9.07-9.07 9.07h-18.477c-6.355 0-11.878 3.559-14.684 8.79h-.197"/><path d="m42.33 105.91c-1.737-2.97-4.37-5.383-7.478-6.851-2.214-1.046-4.689-1.631-7.302-1.631v-.002h-.0001v.002h-18.477v-.002h-.0001v.002c-4.72-.0001-8.611-3.889-8.612-8.604h.002v-88.36h83.74v88.36h.002c0 4.716-3.891 8.604-8.612 8.604v-.002h-.0001v.002h-18.477v-.002.002c-2.613 0-5.089.585-7.302 1.631-3.108 1.468-5.741 3.881-7.478 6.851" fill="#fcdb00"/><g fill-rule="nonzero"><path d="m38.961 45.47c.917.312 1.792.847 2.561 1.606l-.025-2.63v-.004c.021-1.377-.315-2.502-.838-3.296-.1-.152-.208-.292-.321-.42-.112-.126-.23-.24-.352-.34l-.008-.006c-.501-.407-1.109-.6-1.701-.503-.116.019-.23.048-.342.089-.11.04-.222.092-.335.158h-.0001c-.525.307-1.023.92-1.398 1.817-.076.181-.145.37-.207.565-.062.195-.12.406-.173.633l-.243 1.051-.169-1.065c-.183-1.148-.068-2.213.241-3.061.06-.165.129-.324.204-.474.077-.154.159-.295.246-.423l.002-.002c.365-.553.853-.932 1.396-1.127-.272-.563-.832-.67-1.378-.454l-.002.0001c-.306.117-.636.32-.974.583-.07.054-.137.109-.202.163-.057.048-.125.108-.202.177-.649.585-1.303 1.354-1.858 2.152-.11.159-.215.316-.312.469-.096.151-.191.307-.284.468l-.002.002-.582.968.194-1.111c.277-1.59.704-2.865 1.234-3.847.105-.194.213-.376.323-.545.111-.17.227-.33.347-.48.876-1.097 2.038-1.659 3.288-1.561.242.019.488.063.735.133.246.07.493.165.74.287.806.398 1.461.964 2.026 1.616.391.452.739.943 1.062 1.448l-.035-2.448h1.167l.029 2.416c.334-.491.691-.971 1.089-1.415.557-.621 1.193-1.166 1.956-1.56.621-.32 1.247-.484 1.859-.482.123 0 .243.007.358.02.117.013.235.033.354.059h.002.002c.599.136 1.175.443 1.706.932.102.094.203.195.302.303.099.109.196.223.29.343l.0001.002c.551.703 1.037 1.638 1.431 2.819.077.231.15.469.218.712.07.249.135.504.196.767l.392 1.695-.784-1.553c-.448-.888-.925-1.632-1.42-2.237-.097-.119-.194-.231-.288-.334-.098-.108-.196-.209-.292-.302h-.002c-.591-.578-1.2-.966-1.812-1.171-.114-.038-.232-.071-.354-.097-.121-.026-.238-.046-.353-.058h-.002c-.552-.058-1.1.029-1.635.255-.107.046-.212.095-.313.149-.101.054-.205.115-.311.183l-.002.002c-.327.21-.699.503-1.052.839.058-.037.117-.072.179-.105.421-.224.922-.336 1.534-.286.742.06 1.38.411 1.854.936.092.102.177.209.256.322.078.112.15.231.216.356v.003c.198.375.342.807.422 1.283.015.092.028.186.039.283.001.094.018.191.024.292v.005l.052.971-.448-.864c-.32-.617-.68-1.056-1.057-1.343-.072-.055-.145-.104-.216-.147-.071-.043-.144-.081-.218-.114-.623-.281-1.267-.177-1.817.145-.107.063-.213.136-.317.217-.101.079-.198.166-.291.261v.002c-.521.531-.93 1.293-1.125 2.168-.038.171-.068.349-.09.534-.021.185-.033.371-.035.555v.068.002l-.021 3.18c.25-.389.518-.761.817-1.108.465-.539 1-1.01 1.673-1.38.662-.366 1.373-.583 2.097-.617.142-.007.284-.006.426.0001.141.007.284.022.428.044h.002c.733.114 1.466.425 2.166.966.137.106.271.219.402.339.132.122.263.252.392.392l.002.002c.738.799 1.42 1.896 1.998 3.333.112.28.221.571.324.874.104.306.204.623.298.951l.285.997-.651-.807c-.854-1.059-1.72-1.963-2.572-2.655-.16-.13-.324-.255-.493-.376-.168-.12-.329-.228-.484-.324l-.003-.002c-.657-.405-1.298-.664-1.912-.749-.12-.017-.237-.026-.35-.03-.116-.003-.23 0-.343.011h-.003c-.584.054-1.137.29-1.647.736-.099.087-.198.183-.296.289-.098.105-.194.219-.287.341l-.002.003c-.459.598-.873 1.403-1.231 2.438-.067.194-.135.406-.203.636-.065.219-.129.449-.191.691-.077.303-.128.604-.158.898-.017.168-.029.334-.035.496h-1.886c-.035-.997-.358-2.073-.859-3.03-.11-.209-.229-.413-.356-.609-.128-.198-.261-.385-.399-.559l-.005-.006c-.574-.724-1.293-1.3-2.146-1.507-.163-.04-.332-.066-.508-.077-.175-.011-.355-.007-.54.014h-.002c-.653.074-1.324.339-1.992.76-.133.084-.265.173-.394.266-.13.094-.262.195-.393.301l-.002.002c-1.073.872-2.121 2.116-3.062 3.583-.184.287-.363.581-.537.882-.172.297-.342.607-.509.927l-.428.853.031-.956c.075-2.3.623-4.172 1.467-5.61.165-.281.341-.546.528-.794.188-.25.384-.482.588-.696l.004-.004c.659-.69 1.408-1.208 2.204-1.553.156-.068.313-.129.47-.183.16-.055.319-.102.477-.142.823-.209 1.673-.244 2.507-.105.163.027.325.061.485.101.16.04.32.087.479.141l.007.002z"/><path d="m42.41 18.295c-1.121-.832-1.808-2.087-1.769-3.474.039-1.36.721-2.462 1.768-3.245 1.096.813 1.783 2.037 1.77 3.399v.02c-.021 1.379-.709 2.507-1.769 3.299"/><path d="m43.568 32.578c-1.018 1.048-1.379 2.482-1.141 3.924 1.382-.159 2.627-.764 3.441-1.965.666-.981.847-2.159.654-3.327-1.125.13-2.138.526-2.955 1.368"/><path d="m41.24 32.59c1.018 1.048 1.379 2.482 1.141 3.924-1.382-.159-2.627-.764-3.441-1.965-.666-.981-.847-2.159-.654-3.327 1.125.13 2.138.526 2.955 1.368"/><path d="m41.24 16.909c1.018 1.048 1.379 2.482 1.141 3.924-1.382-.159-2.627-.764-3.441-1.965-.666-.981-.847-2.159-.654-3.327 1.125.13 2.138.526 2.955 1.368"/><path d="m43.568 16.909c-1.018 1.048-1.379 2.482-1.141 3.924 1.382-.159 2.627-.764 3.441-1.965.666-.981.847-2.159.654-3.327-1.125.13-2.138.526-2.955 1.368"/><path d="m41.24 20.83c1.018 1.048 1.379 2.482 1.141 3.924-1.382-.159-2.627-.764-3.441-1.965-.666-.981-.847-2.159-.654-3.327 1.125.13 2.138.526 2.955 1.368"/><path d="m43.568 20.83c-1.018 1.048-1.379 2.482-1.141 3.924 1.382-.159 2.627-.764 3.441-1.965.666-.981.847-2.159.654-3.327-1.125.13-2.138.526-2.955 1.368"/><path d="m41.24 24.749c1.018 1.048 1.379 2.482 1.141 3.924-1.382-.159-2.627-.764-3.441-1.965-.666-.981-.847-2.159-.654-3.327 1.125.13 2.138.526 2.955 1.368"/><path d="m43.568 24.749c-1.018 1.048-1.379 2.482-1.141 3.924 1.382-.159 2.627-.764 3.441-1.965.666-.981.847-2.159.654-3.327-1.125.13-2.138.526-2.955 1.368"/><path d="m41.24 28.67c1.018 1.048 1.379 2.482 1.141 3.924-1.382-.159-2.627-.764-3.441-1.965-.666-.981-.847-2.159-.654-3.327 1.125.13 2.138.526 2.955 1.368"/><path d="m43.568 28.67c-1.018 1.048-1.379 2.482-1.141 3.924 1.382-.159 2.627-.764 3.441-1.965.666-.981.847-2.159.654-3.327-1.125.13-2.138.526-2.955 1.368"/><path d="m38.28 31.489l-1.517-10.892.326-.045 1.517 10.892-.326.045m-.002-7.824l-.988-7.169.326-.044.988 7.169-.326.044m-.044-7.882l-.509-4.724.328-.035.509 4.724-.328.035m1.183.284l-.795-6.448.328-.04.795 6.448-.328.04m1.028.465l-.778-8.361.328-.03.777 8.361-.328.03m.804-3.735l-.387-5.974.329-.021.387 5.974-.329.021m1.102-.917v-5.914h.33v5.914h-.33m.891 1.035l.409-6.06.329.022-.409 6.06-.329-.022m.883 3.594l.571-8.662.329.021-.571 8.662-.329-.021m1.066-.51l.801-7.313.328.035-.801 7.313-.328-.035m1.072-.262l.925-5.964.325.05-.925 5.964-.325-.05m-.029 15.678l1.615-10.962.326.048-1.615 10.962-.326-.048m.006-7.756l.921-7.413.328.04-.921 7.413-.328-.04"/><path d="m42.41 18.03c.962-.714 1.542-1.84 1.56-3.04.018-1.227-.572-2.422-1.56-3.155-.993.737-1.578 1.921-1.559 3.154.018 1.197.605 2.331 1.559 3.04" fill="url(#b)"/><path d="m46.34 31.448c-1.036.119-2.02.61-2.718 1.383-.831.918-1.224 2.202-1.02 3.435 1.177-.135 2.278-.755 2.981-1.703.664-.893.937-2.024.756-3.114" fill="url(#a)"/><path d="m38.464 31.459c1.036.119 2.02.61 2.718 1.383.831.918 1.224 2.202 1.02 3.435-1.177-.135-2.278-.755-2.981-1.703-.663-.893-.937-2.024-.756-3.114" fill="url(#Z)"/><path d="m38.464 15.779c1.036.119 2.02.61 2.718 1.383.831.918 1.224 2.202 1.02 3.435-1.177-.135-2.278-.755-2.981-1.703-.663-.893-.937-2.024-.756-3.114" fill="url(#Y)"/><path d="m46.34 15.779c-1.036.119-2.02.61-2.718 1.383-.831.918-1.224 2.202-1.02 3.435 1.177-.135 2.278-.755 2.981-1.703.664-.893.937-2.024.756-3.114" fill="url(#X)"/><path d="m38.464 19.698c1.036.119 2.02.61 2.718 1.383.831.918 1.224 2.202 1.02 3.435-1.177-.135-2.278-.755-2.981-1.703-.663-.893-.937-2.024-.756-3.114" fill="url(#W)"/><path d="m46.34 19.698c-1.036.119-2.02.61-2.718 1.383-.831.918-1.224 2.202-1.02 3.435 1.177-.135 2.278-.755 2.981-1.703.664-.893.937-2.024.756-3.114" fill="url(#V)"/><path d="m38.464 23.618c1.036.119 2.02.61 2.718 1.383.831.917 1.224 2.202 1.02 3.435-1.177-.135-2.278-.755-2.981-1.703-.663-.893-.937-2.024-.756-3.114" fill="url(#U)"/><path d="m46.34 23.618c-1.036.119-2.02.61-2.718 1.383-.831.917-1.224 2.202-1.02 3.435 1.177-.135 2.278-.755 2.981-1.703.664-.893.937-2.024.756-3.114" fill="url(#T)"/><path d="m38.464 27.539c1.036.119 2.02.61 2.718 1.383.831.918 1.224 2.202 1.02 3.435-1.177-.135-2.278-.755-2.981-1.703-.663-.893-.937-2.024-.756-3.114" fill="url(#S)"/><path d="m46.34 27.539c-1.036.119-2.02.61-2.718 1.383-.831.918-1.224 2.202-1.02 3.435 1.177-.135 2.278-.755 2.981-1.703.664-.893.937-2.024.756-3.114" fill="url(#R)"/><path d="m42.923 49.38c-.98-1.937-2.44-3.171-4.03-3.712-1.094-.372-2.252-.416-3.357-.135-1.107.281-2.163.889-3.051 1.819-1.428 1.494-2.427 3.82-2.529 6.966 1.186-2.273 2.647-4.228 4.163-5.459.957-.777 1.938-1.268 2.892-1.376 1.412-.159 2.549.597 3.384 1.65.908 1.145 1.556 2.705 1.654 4.141h1.485c.025-.408.082-.834.19-1.256.443-1.73 1.01-2.987 1.662-3.842.701-.913 1.507-1.37 2.381-1.45.865-.08 1.789.213 2.737.798 1.182.73 2.407 1.918 3.605 3.403-.672-2.337-1.569-3.989-2.572-5.075-.893-.967-1.868-1.483-2.839-1.634-.969-.151-1.938.06-2.82.548-1.287.712-2.085 1.827-2.805 3.06l.025-3.936c-.005-1.408.534-2.682 1.311-3.475.7-.713 1.7-1.101 2.66-.668.574.259 1.127.802 1.593 1.7-.036-.679-.199-1.279-.46-1.775-.436-.829-1.205-1.428-2.157-1.505-1.14-.092-1.975.379-2.506 1.122-.174.243-.333.537-.461.839l-.101-.271c.391-.947 1.492-1.998 2.311-2.524.77-.496 1.581-.708 2.397-.621.896.095 1.794.55 2.649 1.386.718.702 1.407 1.674 2.04 2.929-.434-1.872-1.06-3.265-1.806-4.217-.654-.835-1.398-1.327-2.182-1.504-.782-.176-1.609-.039-2.43.384-1.477.761-2.465 2.115-3.343 3.474l-.032-2.682c-.139.019-.407.013-.747-.059l.041 2.844c-.863-1.439-1.847-2.865-3.401-3.633-1.681-.831-3.353-.362-4.506 1.082-.822 1.029-1.483 2.601-1.862 4.777.651-1.125 1.579-2.314 2.495-3.14.496-.447.992-.791 1.445-.965.625-.241 1.277-.173 1.672.577.641-.194 1.321-.119 1.933.142-.414-.612-.918-1.228-1.562-1.613-.932-.557-1.629-.258-2.133.008.508-.561 1.309-.745 2.241-.188.768.459 1.357 1.218 1.819 1.972.81.453 1.63 1.28 2.372 2.553l-.075.293c-.796-1.429-2.239-3.249-4.095-3.055-.771.08-1.51.552-1.94 1.205-.596.881-.904 2.265-.659 3.809.378-1.622 1.095-2.693 1.877-3.15.866-.506 1.859-.343 2.619.275.935.761 1.627 2.244 1.596 4.227l.025 2.826c.503.52.945 1.156 1.335 1.871l-.144.24m-.647 1.015c-.55-1.449-1.422-2.471-2.375-3.117-1.656-1.123-3.834-1.14-5.52-.045-.532.345-.886.726-1.243 1.101.807-1.575 2.862-2.296 4.536-2.106.802.091 1.607.376 2.345.877.918.622 1.816 1.602 2.38 2.932l-.123.358m1.244-1.913c.568-1.151 1.322-1.958 2.141-2.474 1.775-1.119 4.293-.945 5.701.925-1.569-1.522-3.711-1.931-5.589-.747-.788.497-1.61 1.314-2.16 2.6l-.093-.303" fill="url(#Q)"/><path d="m12.339 57.38c.917.312 1.792.847 2.561 1.606l-.024-2.63v-.004c.021-1.377-.315-2.502-.838-3.296-.1-.152-.208-.292-.321-.42-.112-.126-.23-.24-.352-.34l-.008-.006c-.501-.407-1.109-.6-1.701-.503-.116.019-.23.048-.342.089-.11.04-.222.092-.335.158h-.0001c-.525.307-1.023.92-1.398 1.817-.076.181-.145.37-.207.565-.062.195-.12.406-.173.633l-.243 1.051-.169-1.065c-.183-1.148-.068-2.213.241-3.061.06-.165.129-.324.204-.474.077-.154.159-.295.246-.423l.002-.002c.365-.553.853-.932 1.396-1.127-.272-.563-.832-.67-1.378-.454l-.002.0001c-.306.117-.636.32-.974.583-.07.054-.137.109-.202.163-.057.048-.125.108-.202.177-.649.585-1.303 1.354-1.858 2.152-.11.159-.215.316-.312.469-.096.151-.191.307-.284.468l-.002.002-.582.968.194-1.111c.277-1.59.704-2.865 1.234-3.847.105-.194.213-.376.323-.545.111-.17.227-.33.347-.48.876-1.097 2.038-1.659 3.288-1.561.242.019.488.063.735.133.246.07.493.165.74.287.806.398 1.461.964 2.026 1.616.391.452.739.943 1.062 1.448l-.035-2.448h1.167l.028 2.416c.334-.491.691-.971 1.089-1.415.557-.621 1.193-1.166 1.956-1.56.621-.32 1.247-.484 1.859-.482.123 0 .243.007.358.02.117.013.235.033.354.059h.002.002c.599.136 1.175.443 1.706.932.102.094.203.195.302.303.099.109.196.223.29.343h.0001c.551.704 1.037 1.639 1.431 2.819.077.231.15.469.218.712.07.249.135.504.196.767l.392 1.695-.784-1.553c-.448-.888-.925-1.632-1.42-2.237-.098-.119-.194-.231-.288-.334-.098-.108-.196-.209-.292-.302h-.002c-.591-.578-1.2-.966-1.812-1.171-.114-.038-.232-.071-.354-.097-.121-.026-.238-.046-.353-.058h-.002c-.552-.058-1.1.029-1.635.255-.107.046-.212.095-.313.149-.101.054-.205.115-.311.183l-.002.002c-.327.21-.699.503-1.052.839.058-.037.117-.072.179-.105.421-.224.922-.336 1.534-.286.742.06 1.38.411 1.854.936.092.102.177.209.256.322.078.112.15.231.216.356l.0001.003c.198.375.342.807.422 1.283.015.092.028.186.039.283.001.094.018.191.024.292v.005l.052.971-.448-.864c-.32-.617-.68-1.056-1.057-1.343-.072-.055-.145-.104-.216-.147-.071-.043-.144-.081-.218-.114-.623-.281-1.267-.177-1.817.145-.107.063-.213.136-.317.217-.101.079-.198.166-.291.261v.002c-.521.531-.93 1.293-1.125 2.168-.038.171-.068.349-.09.534-.021.185-.033.371-.035.555v.068.002l-.021 3.18c.25-.389.518-.761.817-1.108.465-.539 1-1.01 1.673-1.38.662-.366 1.373-.583 2.097-.617.142-.007.284-.006.426.0001.141.007.284.022.428.044h.002c.733.114 1.466.425 2.166.966.137.106.271.219.402.339.132.122.263.252.392.392l.002.002c.738.799 1.42 1.896 1.998 3.333.112.28.221.571.324.874.104.306.204.623.298.951l.285.997-.651-.807c-.854-1.059-1.72-1.963-2.572-2.655-.16-.13-.324-.255-.493-.376-.168-.12-.329-.228-.484-.324l-.003-.002c-.657-.405-1.298-.664-1.912-.749-.12-.017-.237-.026-.35-.03-.116-.003-.23 0-.343.011h-.003c-.584.054-1.137.29-1.647.736-.099.087-.198.183-.296.289-.098.105-.194.219-.287.341l-.002.003c-.459.598-.873 1.403-1.231 2.438-.067.194-.135.406-.203.636-.065.219-.129.449-.191.691-.077.303-.128.604-.158.898-.017.168-.029.334-.035.496h-1.886c-.035-.997-.358-2.073-.859-3.03-.11-.209-.229-.413-.356-.609-.128-.198-.261-.385-.399-.559l-.005-.006c-.574-.724-1.293-1.3-2.146-1.507-.163-.04-.332-.066-.508-.077-.175-.011-.355-.007-.54.014h-.002c-.653.074-1.324.339-1.992.76-.133.084-.265.173-.394.266-.13.094-.262.195-.393.301l-.002.002c-1.073.872-2.121 2.116-3.062 3.583-.184.287-.363.581-.537.882-.172.297-.342.607-.509.927l-.428.853.031-.956c.075-2.3.623-4.172 1.467-5.61.165-.281.341-.546.528-.794.188-.25.384-.482.588-.696l.004-.004c.659-.69 1.408-1.208 2.204-1.553.156-.068.313-.129.47-.183.16-.055.319-.102.477-.142.823-.209 1.673-.244 2.507-.105.163.027.325.061.485.101.16.04.32.087.479.141l.007.002z"/><path d="m15.788 30.2c-1.121-.832-1.808-2.087-1.769-3.474.039-1.36.722-2.462 1.768-3.245 1.096.813 1.783 2.037 1.77 3.399v.02c-.021 1.379-.709 2.507-1.769 3.299"/><path d="m16.947 44.48c-1.018 1.048-1.379 2.482-1.141 3.924 1.382-.159 2.627-.764 3.441-1.965.666-.981.847-2.159.654-3.327-1.125.13-2.138.526-2.955 1.368"/><path d="m14.619 44.493c1.018 1.048 1.379 2.482 1.141 3.924-1.382-.159-2.627-.764-3.441-1.965-.666-.981-.847-2.159-.654-3.327 1.125.13 2.138.526 2.955 1.368"/><path d="m14.619 28.813c1.018 1.048 1.379 2.482 1.141 3.924-1.382-.159-2.627-.764-3.441-1.965-.666-.981-.847-2.159-.654-3.327 1.125.13 2.138.526 2.955 1.368"/><path d="m16.947 28.813c-1.018 1.048-1.379 2.482-1.141 3.924 1.382-.159 2.627-.764 3.441-1.965.666-.981.847-2.159.654-3.327-1.125.13-2.138.526-2.955 1.368"/><path d="m14.619 32.733c1.018 1.048 1.379 2.482 1.141 3.924-1.382-.159-2.627-.764-3.441-1.965-.666-.981-.847-2.159-.654-3.327 1.125.13 2.138.526 2.955 1.368"/><path d="m16.947 32.733c-1.018 1.048-1.379 2.482-1.141 3.924 1.382-.159 2.627-.764 3.441-1.965.666-.981.847-2.159.654-3.327-1.125.13-2.138.526-2.955 1.368"/><path d="m14.619 36.653c1.018 1.048 1.379 2.482 1.141 3.924-1.382-.159-2.627-.764-3.441-1.965-.666-.981-.847-2.159-.654-3.327 1.125.13 2.138.526 2.955 1.368"/><path d="m16.947 36.653c-1.018 1.048-1.379 2.482-1.141 3.924 1.382-.159 2.627-.764 3.441-1.965.666-.981.847-2.159.654-3.327-1.125.13-2.138.526-2.955 1.368"/><path d="m14.619 40.574c1.018 1.048 1.379 2.482 1.141 3.924-1.382-.159-2.627-.764-3.441-1.965-.666-.981-.847-2.159-.654-3.327 1.125.13 2.138.526 2.955 1.368"/><path d="m16.947 40.574c-1.018 1.048-1.379 2.482-1.141 3.924 1.382-.159 2.627-.764 3.441-1.965.666-.981.847-2.159.654-3.327-1.125.13-2.138.526-2.955 1.368"/><path d="m11.661 43.39l-1.517-10.892.326-.045 1.517 10.892-.326.045m-.002-7.825l-.988-7.169.326-.044.988 7.169-.326.044m-.044-7.882l-.509-4.724.328-.035.509 4.724-.328.035m1.183.284l-.795-6.448.328-.04.795 6.448-.328.04m1.028.465l-.778-8.361.328-.03.777 8.361-.328.03m.804-3.735l-.387-5.974.329-.021.387 5.974-.329.021m1.102-.917v-5.914h.33v5.914h-.33m.891 1.035l.409-6.06.329.022-.409 6.06-.329-.022m.883 3.594l.571-8.662.329.021-.571 8.662-.329-.021m1.066-.51l.801-7.313.328.035-.801 7.313-.328-.035m1.072-.262l.925-5.964.325.05-.925 5.964-.325-.05m-.029 15.678l1.615-10.962.326.048-1.615 10.962-.326-.048m.006-7.756l.921-7.413.328.04-.921 7.413-.328-.04"/><path d="m15.788 29.937c.962-.714 1.542-1.84 1.56-3.04.018-1.227-.572-2.422-1.56-3.155-.993.737-1.578 1.921-1.559 3.154.018 1.197.604 2.331 1.559 3.04" fill="url(#P)"/><path d="m19.723 43.35c-1.036.119-2.02.61-2.718 1.383-.831.918-1.224 2.202-1.02 3.435 1.177-.135 2.278-.755 2.981-1.703.664-.893.937-2.024.756-3.114" fill="url(#O)"/><path d="m11.842 43.36c1.036.119 2.02.61 2.718 1.383.831.918 1.224 2.202 1.02 3.435-1.177-.135-2.278-.755-2.981-1.703-.663-.893-.937-2.024-.756-3.114" fill="url(#N)"/><path d="m11.842 27.682c1.036.119 2.02.61 2.718 1.383.831.918 1.224 2.202 1.02 3.435-1.177-.135-2.278-.755-2.981-1.703-.663-.893-.937-2.024-.756-3.114" fill="url(#M)"/><path d="m19.723 27.682c-1.036.119-2.02.61-2.718 1.383-.831.918-1.224 2.202-1.02 3.435 1.177-.135 2.278-.755 2.981-1.703.664-.893.937-2.024.756-3.114" fill="url(#L)"/><path d="m11.842 31.602c1.036.119 2.02.61 2.718 1.383.831.918 1.224 2.202 1.02 3.435-1.177-.135-2.278-.755-2.981-1.703-.663-.893-.937-2.024-.756-3.114" fill="url(#K)"/><path d="m19.723 31.602c-1.036.119-2.02.61-2.718 1.383-.831.918-1.224 2.202-1.02 3.435 1.177-.135 2.278-.755 2.981-1.703.664-.893.937-2.024.756-3.114" fill="url(#J)"/><path d="m11.842 35.522c1.036.119 2.02.61 2.718 1.383.831.917 1.224 2.202 1.02 3.435-1.177-.135-2.278-.755-2.981-1.703-.663-.893-.937-2.024-.756-3.114" fill="url(#I)"/><path d="m19.723 35.522c-1.036.119-2.02.61-2.718 1.383-.831.917-1.224 2.202-1.02 3.435 1.177-.135 2.278-.755 2.981-1.703.664-.893.937-2.024.756-3.114" fill="url(#H)"/><path d="m11.842 39.442c1.036.119 2.02.61 2.718 1.383.831.918 1.224 2.202 1.02 3.435-1.177-.135-2.278-.755-2.981-1.703-.663-.893-.937-2.024-.756-3.114" fill="url(#G)"/><path d="m19.723 39.442c-1.036.119-2.02.61-2.718 1.383-.831.918-1.224 2.202-1.02 3.435 1.177-.135 2.278-.755 2.981-1.703.664-.893.937-2.024.756-3.114" fill="url(#F)"/><path d="m16.301 61.29c-.98-1.937-2.44-3.171-4.03-3.712-1.094-.372-2.252-.416-3.357-.135-1.107.281-2.163.889-3.051 1.819-1.428 1.494-2.427 3.82-2.529 6.966 1.186-2.273 2.647-4.228 4.163-5.459.957-.777 1.938-1.268 2.892-1.376 1.412-.159 2.549.597 3.384 1.65.908 1.145 1.556 2.705 1.654 4.141h1.485c.025-.408.082-.834.19-1.256.443-1.73 1.01-2.987 1.662-3.842.701-.913 1.507-1.37 2.381-1.45.865-.08 1.789.213 2.737.798 1.182.73 2.407 1.918 3.605 3.403-.672-2.337-1.569-3.989-2.572-5.075-.893-.967-1.868-1.483-2.839-1.634-.969-.151-1.938.06-2.82.548-1.287.712-2.085 1.827-2.805 3.06l.025-3.936c-.006-1.408.534-2.682 1.311-3.475.7-.713 1.7-1.101 2.66-.668.574.259 1.127.802 1.593 1.7-.036-.679-.199-1.279-.46-1.775-.436-.829-1.205-1.428-2.157-1.505-1.14-.092-1.975.379-2.506 1.122-.174.243-.333.537-.461.839l-.101-.271c.391-.947 1.492-1.998 2.311-2.524.77-.496 1.581-.708 2.397-.621.896.095 1.794.55 2.649 1.386.718.702 1.407 1.674 2.04 2.929-.434-1.872-1.06-3.265-1.806-4.217-.654-.835-1.398-1.327-2.182-1.504-.782-.176-1.609-.039-2.43.384-1.477.761-2.465 2.115-3.343 3.474l-.032-2.682c-.139.019-.407.013-.747-.059l.041 2.844c-.863-1.439-1.847-2.865-3.401-3.633-1.681-.831-3.353-.362-4.506 1.082-.822 1.029-1.483 2.601-1.862 4.777.651-1.125 1.579-2.314 2.495-3.14.496-.447.992-.791 1.445-.965.625-.241 1.277-.173 1.672.577.641-.194 1.321-.119 1.933.142-.414-.612-.918-1.228-1.562-1.613-.932-.557-1.629-.258-2.133.008.508-.561 1.309-.745 2.241-.188.768.459 1.357 1.218 1.819 1.972.81.453 1.63 1.28 2.372 2.553l-.075.293c-.796-1.429-2.239-3.249-4.095-3.055-.771.08-1.51.552-1.94 1.205-.596.881-.904 2.265-.659 3.809.378-1.622 1.095-2.693 1.877-3.15.866-.506 1.859-.343 2.619.275.935.761 1.627 2.244 1.596 4.227l.025 2.826c.503.52.945 1.156 1.335 1.871l-.144.24m-.647 1.015c-.55-1.449-1.422-2.471-2.375-3.117-1.656-1.123-3.834-1.14-5.52-.045-.532.346-.886.726-1.243 1.101.807-1.575 2.862-2.296 4.536-2.106.802.091 1.607.376 2.345.877.918.622 1.816 1.602 2.38 2.932l-.123.358m1.244-1.913c.568-1.151 1.322-1.958 2.141-2.474 1.775-1.119 4.293-.945 5.701.925-1.569-1.522-3.711-1.931-5.589-.747-.788.497-1.61 1.314-2.16 2.6l-.093-.303" fill="url(#E)"/><path d="m66.885 57.19c.917.312 1.792.847 2.561 1.606l-.025-2.63v-.004c.021-1.377-.315-2.502-.838-3.296-.1-.152-.208-.292-.321-.42-.112-.126-.23-.24-.352-.34l-.007-.006c-.501-.407-1.109-.6-1.701-.503-.116.019-.23.048-.342.089-.11.04-.222.092-.335.158h-.0001c-.525.307-1.023.92-1.398 1.817-.076.181-.145.37-.207.565-.062.195-.12.406-.173.633l-.243 1.051-.169-1.065c-.183-1.148-.068-2.213.241-3.061.06-.165.129-.324.204-.474.077-.154.159-.295.246-.423l.002-.002c.365-.553.853-.932 1.396-1.127-.272-.563-.832-.67-1.378-.454l-.0001.0001c-.306.117-.636.32-.974.583-.07.054-.137.109-.202.163-.057.048-.125.108-.202.177-.649.585-1.303 1.354-1.858 2.152-.11.159-.215.316-.312.469-.096.151-.191.307-.284.468l-.002.002-.582.968.194-1.111c.277-1.59.704-2.865 1.234-3.847.105-.194.213-.376.323-.545.111-.17.227-.33.347-.48.876-1.097 2.038-1.659 3.288-1.561.242.019.488.063.735.133.246.07.493.165.74.287.806.398 1.461.964 2.026 1.616.391.452.739.943 1.062 1.448l-.035-2.448h1.167l.028 2.416c.334-.491.691-.971 1.089-1.415.557-.621 1.193-1.166 1.956-1.56.621-.32 1.247-.484 1.859-.482.123 0 .243.007.358.02.117.013.235.033.354.059h.002.002c.599.136 1.175.443 1.706.932.102.094.203.195.302.303.1.109.196.223.29.343h.0001c.551.704 1.037 1.639 1.431 2.819.077.231.15.469.218.712.07.249.135.504.196.767l.392 1.695-.784-1.553c-.448-.888-.925-1.632-1.42-2.237-.097-.119-.194-.231-.288-.334-.098-.108-.196-.209-.292-.302h-.002c-.591-.578-1.2-.966-1.812-1.171-.114-.038-.232-.071-.354-.097-.121-.026-.238-.046-.353-.058h-.002c-.552-.058-1.1.029-1.635.255-.107.045-.212.095-.313.149-.101.054-.205.115-.311.183l-.002.002c-.327.21-.699.503-1.052.839.058-.037.117-.072.179-.105.421-.224.922-.336 1.534-.286.742.06 1.38.411 1.854.936.092.102.177.209.256.322.078.112.15.231.216.356l.0001.003c.198.375.342.807.422 1.283.015.092.028.186.039.283.001.094.018.191.024.292v.005l.052.971-.448-.864c-.32-.617-.68-1.056-1.057-1.343-.072-.055-.145-.104-.216-.147-.071-.043-.144-.081-.218-.114-.623-.281-1.267-.177-1.817.145-.107.063-.213.136-.317.217-.101.079-.198.166-.291.261v.002c-.521.531-.93 1.293-1.125 2.168-.038.171-.068.349-.09.534-.021.185-.034.371-.035.555v.068.002l-.021 3.18c.25-.389.518-.761.817-1.108.465-.539 1-1.01 1.673-1.38.662-.366 1.373-.583 2.097-.617.142-.007.284-.006.426.0001.141.007.284.022.428.044h.002c.733.114 1.466.425 2.166.966.137.106.271.219.402.339.132.122.263.252.392.392l.002.002c.738.799 1.42 1.896 1.998 3.333.112.28.221.571.324.874.104.306.204.623.298.951l.285.997-.651-.807c-.854-1.059-1.72-1.963-2.572-2.655-.16-.13-.324-.255-.493-.376-.168-.12-.329-.228-.484-.324l-.003-.002c-.657-.405-1.298-.664-1.912-.749-.12-.017-.237-.026-.35-.03-.116-.003-.23 0-.343.011h-.003c-.584.054-1.137.29-1.647.736-.099.087-.198.183-.296.289-.098.105-.194.219-.287.341l-.002.003c-.459.598-.873 1.403-1.231 2.438-.067.194-.135.406-.203.636-.065.219-.129.449-.191.691-.077.303-.128.604-.158.898-.017.168-.029.334-.035.496h-1.886c-.035-.997-.358-2.073-.859-3.03-.11-.209-.229-.413-.356-.609-.128-.198-.261-.385-.399-.558l-.005-.006c-.574-.724-1.293-1.3-2.146-1.507-.163-.04-.332-.066-.508-.077-.175-.011-.355-.007-.54.014h-.002c-.653.074-1.324.339-1.992.76-.133.084-.264.173-.394.266-.13.094-.262.195-.393.301l-.002.002c-1.073.872-2.121 2.116-3.062 3.583-.184.287-.363.581-.537.882-.172.297-.342.607-.509.927l-.428.853.031-.956c.075-2.3.623-4.172 1.467-5.61.165-.281.341-.546.528-.794.188-.25.384-.482.588-.696l.004-.004c.659-.69 1.408-1.208 2.204-1.553.156-.068.313-.129.47-.183.16-.055.319-.102.477-.142.823-.209 1.673-.244 2.507-.105.163.027.325.061.485.101.16.04.32.087.479.141l.007.002z"/><path d="m70.34 30.01c-1.121-.832-1.808-2.087-1.769-3.474.039-1.36.722-2.462 1.768-3.245 1.096.813 1.783 2.037 1.77 3.399v.02c-.021 1.379-.709 2.507-1.769 3.299"/><path d="m71.49 44.3c-1.018 1.048-1.379 2.482-1.141 3.924 1.382-.159 2.627-.764 3.441-1.965.666-.981.847-2.159.654-3.327-1.125.13-2.138.526-2.955 1.368"/><path d="m69.17 44.31c1.018 1.048 1.379 2.482 1.141 3.924-1.382-.159-2.627-.764-3.441-1.965-.666-.981-.847-2.159-.654-3.327 1.125.13 2.138.526 2.955 1.368"/><path d="m69.17 28.627c1.018 1.048 1.379 2.482 1.141 3.924-1.382-.159-2.627-.764-3.441-1.965-.666-.981-.847-2.159-.654-3.327 1.125.13 2.138.526 2.955 1.368"/><path d="m71.49 28.627c-1.018 1.048-1.379 2.482-1.141 3.924 1.382-.159 2.627-.764 3.441-1.965.666-.981.847-2.159.654-3.327-1.125.13-2.138.526-2.955 1.368"/><path d="m69.17 32.547c1.018 1.048 1.379 2.482 1.141 3.924-1.382-.159-2.627-.764-3.441-1.965-.666-.981-.847-2.159-.654-3.327 1.125.13 2.138.526 2.955 1.368"/><path d="m71.49 32.547c-1.018 1.048-1.379 2.482-1.141 3.924 1.382-.159 2.627-.764 3.441-1.965.666-.981.847-2.159.654-3.327-1.125.13-2.138.526-2.955 1.368"/><path d="m69.17 36.467c1.018 1.048 1.379 2.482 1.141 3.924-1.382-.159-2.627-.764-3.441-1.965-.666-.981-.847-2.159-.654-3.327 1.125.13 2.138.526 2.955 1.368"/><path d="m71.49 36.467c-1.018 1.048-1.379 2.482-1.141 3.924 1.382-.159 2.627-.764 3.441-1.965.666-.981.847-2.159.654-3.327-1.125.13-2.138.526-2.955 1.368"/><path d="m69.17 40.39c1.018 1.048 1.379 2.482 1.141 3.924-1.382-.159-2.627-.764-3.441-1.965-.666-.981-.847-2.159-.654-3.327 1.125.13 2.138.526 2.955 1.368"/><path d="m71.49 40.39c-1.018 1.048-1.379 2.482-1.141 3.924 1.382-.159 2.627-.764 3.441-1.965.666-.981.847-2.159.654-3.327-1.125.13-2.138.526-2.955 1.368"/><path d="m66.21 43.21l-1.517-10.892.326-.045 1.517 10.892-.326.045m-.002-7.825l-.988-7.169.326-.044.988 7.169-.326.044m-.044-7.882l-.509-4.724.328-.035.509 4.724-.328.035m1.183.284l-.795-6.448.328-.04.795 6.448-.328.04m1.028.465l-.778-8.361.328-.03.777 8.361-.328.03m.804-3.735l-.387-5.974.329-.021.387 5.974-.329.021m1.102-.917v-5.914h.33v5.914h-.33m.891 1.035l.409-6.06.329.022-.409 6.06-.329-.022m.883 3.594l.571-8.662.329.021-.571 8.662-.329-.021m1.066-.51l.801-7.313.328.035-.801 7.313-.328-.035m1.072-.262l.925-5.964.325.05-.925 5.964-.325-.05m-.029 15.678l1.615-10.962.326.048-1.615 10.962-.326-.048m.006-7.756l.921-7.413.328.04-.921 7.413-.328-.04"/><path d="m70.33 29.75c.962-.714 1.542-1.84 1.56-3.04.018-1.227-.572-2.422-1.56-3.155-.993.737-1.578 1.921-1.559 3.154.018 1.197.605 2.331 1.559 3.04" fill="url(#D)"/><path d="m74.27 43.17c-1.036.119-2.02.61-2.718 1.383-.831.918-1.224 2.202-1.02 3.435 1.177-.135 2.278-.755 2.981-1.703.664-.893.937-2.024.756-3.114" fill="url(#C)"/><path d="m66.39 43.18c1.036.119 2.02.61 2.718 1.383.831.918 1.224 2.202 1.02 3.435-1.177-.135-2.278-.755-2.981-1.703-.663-.893-.937-2.024-.756-3.114" fill="url(#B)"/><path d="m66.39 27.496c1.036.119 2.02.61 2.718 1.383.831.918 1.224 2.202 1.02 3.435-1.177-.135-2.278-.755-2.981-1.703-.663-.893-.937-2.024-.756-3.114" fill="url(#A)"/><path d="m74.27 27.496c-1.036.119-2.02.61-2.718 1.383-.831.918-1.224 2.202-1.02 3.435 1.177-.135 2.278-.755 2.981-1.703.664-.893.937-2.024.756-3.114" fill="url(#9)"/><path d="m66.39 31.417c1.036.119 2.02.61 2.718 1.383.831.918 1.224 2.202 1.02 3.435-1.177-.135-2.278-.755-2.981-1.703-.663-.893-.937-2.024-.756-3.114" fill="url(#8)"/><path d="m74.27 31.417c-1.036.119-2.02.61-2.718 1.383-.831.918-1.224 2.202-1.02 3.435 1.177-.135 2.278-.755 2.981-1.703.664-.893.937-2.024.756-3.114" fill="url(#7)"/><path d="m66.39 35.34c1.036.119 2.02.61 2.718 1.383.831.917 1.224 2.202 1.02 3.435-1.177-.135-2.278-.755-2.981-1.703-.663-.893-.937-2.024-.756-3.114" fill="url(#6)"/><path d="m74.27 35.34c-1.036.119-2.02.61-2.718 1.383-.831.917-1.224 2.202-1.02 3.435 1.177-.135 2.278-.755 2.981-1.703.664-.893.937-2.024.756-3.114" fill="url(#5)"/><path d="m66.39 39.26c1.036.119 2.02.61 2.718 1.383.831.918 1.224 2.202 1.02 3.435-1.177-.135-2.278-.755-2.981-1.703-.663-.893-.937-2.024-.756-3.114" fill="url(#4)"/><path d="m74.27 39.26c-1.036.119-2.02.61-2.718 1.383-.831.918-1.224 2.202-1.02 3.435 1.177-.135 2.278-.755 2.981-1.703.664-.893.937-2.024.756-3.114" fill="url(#3)"/><path d="m70.847 61.1c-.98-1.937-2.44-3.171-4.03-3.712-1.094-.372-2.252-.416-3.357-.135-1.107.281-2.163.889-3.051 1.819-1.428 1.494-2.427 3.82-2.529 6.966 1.186-2.273 2.647-4.228 4.163-5.459.957-.777 1.938-1.268 2.892-1.376 1.412-.159 2.549.597 3.384 1.65.908 1.145 1.556 2.705 1.654 4.141h1.485c.025-.408.082-.834.19-1.256.443-1.73 1.01-2.987 1.662-3.841.701-.913 1.507-1.37 2.381-1.45.865-.08 1.789.213 2.737.798 1.182.73 2.407 1.918 3.605 3.403-.672-2.337-1.569-3.989-2.572-5.075-.893-.967-1.868-1.483-2.839-1.634-.969-.151-1.938.06-2.82.548-1.287.712-2.085 1.827-2.805 3.06l.025-3.936c-.005-1.408.534-2.682 1.311-3.475.7-.713 1.7-1.101 2.66-.668.574.259 1.127.802 1.593 1.7-.036-.679-.199-1.279-.46-1.775-.436-.829-1.205-1.428-2.157-1.505-1.14-.092-1.975.379-2.506 1.122-.174.243-.333.537-.461.839l-.101-.271c.391-.947 1.492-1.998 2.311-2.524.77-.496 1.581-.708 2.397-.621.896.095 1.794.55 2.649 1.386.718.702 1.407 1.674 2.04 2.929-.434-1.872-1.06-3.265-1.806-4.217-.654-.835-1.398-1.327-2.182-1.504-.782-.176-1.609-.039-2.43.384-1.477.761-2.465 2.115-3.343 3.474l-.031-2.682c-.139.019-.407.013-.747-.059l.041 2.844c-.863-1.439-1.847-2.865-3.401-3.633-1.681-.831-3.353-.362-4.506 1.082-.822 1.029-1.483 2.601-1.862 4.777.651-1.125 1.579-2.314 2.495-3.14.496-.447.992-.791 1.445-.965.625-.241 1.277-.173 1.672.577.641-.194 1.321-.119 1.933.142-.414-.612-.918-1.228-1.562-1.613-.932-.557-1.629-.258-2.133.008.508-.561 1.309-.745 2.241-.188.768.459 1.357 1.218 1.819 1.972.81.453 1.63 1.28 2.372 2.553l-.075.293c-.796-1.429-2.239-3.249-4.095-3.055-.771.08-1.51.552-1.94 1.205-.596.881-.904 2.265-.659 3.809.378-1.622 1.095-2.693 1.877-3.15.866-.506 1.859-.343 2.619.275.935.761 1.627 2.244 1.596 4.227l.025 2.826c.503.52.945 1.156 1.335 1.871l-.144.24m-.647 1.015c-.55-1.449-1.422-2.471-2.375-3.117-1.656-1.123-3.834-1.14-5.52-.045-.532.345-.886.726-1.243 1.101.807-1.575 2.862-2.296 4.536-2.106.802.091 1.607.376 2.345.877.918.622 1.816 1.602 2.38 2.932l-.123.358m1.244-1.913c.568-1.151 1.322-1.958 2.141-2.474 1.775-1.119 4.293-.945 5.701.925-1.569-1.522-3.711-1.931-5.589-.747-.788.497-1.61 1.314-2.16 2.6l-.093-.303" fill="url(#2)"/></g><path d="m.463 85.21c.46-.829.938-1.693 1.421-2.567 1.891-3.418 3.873-7 5.281-9.415 2.876-4.93 5.314-7.962 7.812-8.393 2.519-.435 5.04 1.753 8.06 7.27v.0001c1.559 2.85 3.112 5.777 4.634 8.646l.2.377c.907-5.072 1.798-10.07 2.582-14.588 1.04-5.99 3.292-10.153 6.03-12.432 1.548-1.287 3.253-1.976 4.986-2.057 1.733-.081 3.49.447 5.143 1.592 2.898 2.01 5.478 5.922 7.04 11.789v.003c.918 3.453 1.882 7.105 2.865 10.826l.99 3.749.2-.38c1.606-3.048 3.886-7.374 6.405-10.655 2.404-3.13 4.58-4.558 6.75-4.431 2.164.127 4.29 1.804 6.604 4.884l.0001.002v.0001c2.158 2.874 4.845 7.726 6.729 11.225v8.164h.002c0 4.716-3.891 8.604-8.612 8.604v-.002h-.0001v.002h-18.477v-.002.002c-2.613 0-5.089.585-7.302 1.631-3.108 1.468-5.741 3.881-7.478 6.851-1.737-2.97-4.37-5.383-7.478-6.851-2.214-1.046-4.689-1.631-7.302-1.631v-.002h-.0001v.002h-18.477v-.002h-.0001v.002c-4.72-.0001-8.611-3.889-8.612-8.604h.002v-3.612"/><path d="m.463 85.954c.557-1 1.142-2.061 1.736-3.136 1.893-3.422 3.877-7.01 5.277-9.408 2.823-4.839 5.191-7.81 7.562-8.219 2.349-.405 4.755 1.728 7.686 7.087v.0001c1.546 2.827 3.104 5.763 4.632 8.642l.415.783-.52 2.904c-.791 4.416-1.578 8.814-2.286 12.82h-15.893v-.002h-.0001v.002c-4.72-.0001-8.611-3.889-8.612-8.604h.002v-2.87m24.869 11.474c.722-4.09 1.496-8.415 2.274-12.757 1.13-6.308 2.266-12.654 3.206-18.07 1.024-5.901 3.229-9.99 5.908-12.217 1.486-1.236 3.118-1.897 4.773-1.974 1.655-.077 3.337.43 4.924 1.529 2.832 1.962 5.358 5.807 6.894 11.585v.002c.917 3.454 1.882 7.106 2.865 10.827 1.869 7.079 3.805 14.409 5.602 21.07h-4.662v-.002.002c-2.613 0-5.089.585-7.302 1.631-3.108 1.468-5.741 3.881-7.478 6.851-1.737-2.97-4.37-5.383-7.478-6.851-2.214-1.046-4.689-1.631-7.302-1.631v-.002h-.0001v.002h-2.219m36.817 0c-1.454-5.386-2.987-11.17-4.502-16.902l.383-.725c1.6-3.037 3.872-7.346 6.373-10.604 2.325-3.03 4.402-4.41 6.443-4.29 2.047.12 4.091 1.748 6.339 4.742v.0001l.0001.002c2.267 3.02 5.13 8.252 7.01 11.766v7.406h.002c0 4.716-3.891 8.604-8.612 8.604v-.002h-.0001v.002h-13.442" fill="#391d23"/></svg>