<svg xmlns="http://www.w3.org/2000/svg" viewBox="0 0 300 365"><path d="m221.75 174.53c2.935 0 5.315 2.38 5.315 5.315v5.314c0 2.935-2.38 5.315-5.315 5.315h-5.315v-15.944h5.315m0 21.259c5.87 0 10.63-4.76 10.63-10.63v-5.314c0-5.87-4.76-10.63-10.63-10.63h-10.63v26.574h10.63m-21.26-26.574h5.315v26.574h-5.315v-26.574m-10.63 0h5.315v26.574h-5.315l-10.63-16.684v16.684h-5.315v-26.574h5.315l10.63 16.684v-16.684m-79.72 0h15.945v5.315h-10.63v5.315h10.63v5.315h-10.63v5.315h10.63v5.315h-15.945v-26.574m-21.26-.0001h5.315v21.26h10.63v5.315h-15.945v-26.575m55.809 21.26h5.314c4.402 0 7.972-3.57 7.972-7.972s-3.637-7.957-7.972-7.972h-5.314v5.315h5.314c1.467 0 2.657 1.19 2.657 2.657s-1.19 2.657-2.657 2.657h-5.314v5.315m5.31-26.58c10.272 0 18.602 8.33 18.602 18.602s-8.33 18.602-18.602 18.602-18.602-8.33-18.602-18.602 8.33-18.602 18.602-18.602m0 5.315c7.337 0 13.287 5.95 13.287 13.287 0 7.337-5.95 13.287-13.287 13.287-7.337 0-13.287-5.95-13.287-13.287 0-7.337 5.95-13.287 13.287-13.287" fill-rule="evenodd" fill="#a90000"/><g transform="matrix(2.25178 0 0 2.251-520.21-767.5)"><path d="m364.25 340.96v137.54c0 7.693-6.295 13.989-13.989 13.989h-38.69c-6.512.024-12.01 4.557-13.52 10.624h-.828c-1.512-6.067-7.01-10.6-13.523-10.624h-38.689c-7.694 0-13.989-6.295-13.989-13.989v-137.54h133.23z"/><path fill="#f8e73b" d="m363.67 341.54v136.95c0 7.392-6.01 13.406-13.406 13.406h-38.69c-6.604.025-12.18 4.48-13.935 10.53-1.756-6.05-7.332-10.505-13.934-10.53h-38.692c-7.391 0-13.405-6.01-13.405-13.406v-136.95h132.06z"/><path fill="#3a82c2" d="m297.64 499.63c2.531-5.154 7.768-8.538 13.45-8.734.147-.004.31-.008.485-.008v-.004h38.69.004v.004c6.777-.002 12.385-5.611 12.385-12.387h-.004v-.002h.004v-135.93h-130.03v135.93h.004v.002h-.004c0 6.776 5.608 12.385 12.385 12.387v-.004h.004 38.69v.004c.175 0 .338.004.485.008 5.682.196 10.919 3.58 13.451 8.734"/><g stroke="#000" stroke-width=".709"><g fill="#f8e73b"><path d="m306.86 383.11c0 4.944-4.128 8.953-9.219 8.953s-9.22-4.01-9.22-8.953c0-8.896 9.642-6.844 3.571-18.332 1.459.657 2.769 2.291 3.684 4.37.739-4.868.702-9.628-.03-14.602.951 1.634 1.639 3.659 1.995 5.862.356-2.203.932-4.228 1.883-5.862-.732 4.868-.769 9.841-.03 14.708.915-2.078 2.337-3.819 3.796-4.476-5.972 11.299 3.57 9.589 3.57 18.332z"/><path d="m294.86 471c.091 2.17-.141 4.894-1.287 6.651 1.132-.584 2.368-2.269 2.934-3.609-.011 2.492.354 4.984 1.132 7.475.778-2.491 1.142-4.983 1.132-7.475.566 1.34 1.801 3.02 2.934 3.609-1.146-1.757-1.378-4.481-1.287-6.651h-5.558z"/><path d="m302.32 415.88c6.762 7.208 10.645 17.705 10.852 28.01.219 10.954-3.195 21.911-12.54 28.1h-5.987c-9.345-6.185-12.76-17.14-12.541-28.1.207-10.307 4.09-20.804 10.851-28.01h9.365z"/><path d="m291.09 414.82c-7.128 2.509-13.907 5.813-19.984 10.792-.933.764-4.215-1.688-3.069-2.52 6.92-5.02 13.905-8.095 22.387-9.87l.666 1.598z"/><path d="m258.71 430.54c1.115.263 3.322-.14 5.068-1.867 1.48-1.465 2.945-2.893 4.448-4.254.468.538 1.235 1.053 1.892 1.251-1.582 1.484-3.139 2.952-4.475 4.715-1.364 1.8-1.314 4.171-.805 5.127-2.331-.162-3.01-1.079-2.374-3.292-1.968 1.164-3.379.361-3.754-1.68z"/><path d="m266.6 457.87c1-.125 2-.408 3-1.801 2.673-3.062 2.913-9.09 3-15.21.036-2.475.938-3.332 1.902-4.102.753-.603.841-1.408.2-2-2.056-1.901-2.218-3.225-.701-4.703 5.923-5.768 11.54-10.726 17.311-15.81.401.533.801 1.067 1.201 1.601-7.84 5.942-14.361 15.834-15.12 22.609-.504 4.534-2.106 9.04-3.797 13.513-.559 1.48-.991 3.041-1.201 4.703-.238 1.127.028 2.412.801 3.286-1.41.294-2.438-.174-2.802-1.59-1.743 1.134-2.82.399-3.802-.495z"/><path d="m266.53 375.21c.403-1.988 2.02-2.91 4.841-3.112-.144-1.21.404-2.594 1.989-3.113-.414 1.054-.435 1.878-.272 2.681.177.875.5 1.861.822 2.698.809 2.094 2.344 3.607 5.243 3.699.952.031 1.599.278 1.729.951.952 4.933 4.97 9.28 10.634 13.315-.346.49-.692 1.152-1.038 1.642-5.01-2.521-9.131-5.926-11.498-10.461-.518-.992-1.271-1.652-2.162-1.729-1.094-.095-1.735-.506-2.161-1.124-1.044-1.514-1.944-3.088-2.421-4.755-.865-3.02-3.987-2.427-5.706-.692z"/><path d="m304.19 414.82c7.128 2.509 13.908 5.813 19.984 10.792.934.764 4.215-1.688 3.07-2.52-6.921-5.02-13.906-8.095-22.388-9.87l-.666 1.598z"/><path d="m336.56 430.54c-1.114.263-3.321-.14-5.067-1.867-1.481-1.465-2.945-2.893-4.449-4.254-.467.538-1.234 1.053-1.891 1.251 1.581 1.484 3.139 2.952 4.475 4.715 1.363 1.8 1.314 4.171.805 5.127 2.331-.162 3.01-1.079 2.373-3.292 1.969 1.164 3.379.361 3.754-1.68z"/><path d="m328.68 457.87c-1-.125-2-.408-3-1.801-2.673-3.062-2.914-9.09-3-15.21-.036-2.475-.938-3.332-1.901-4.102-.754-.603-.842-1.408-.2-2 2.055-1.901 2.218-3.225.7-4.703-5.922-5.768-11.54-10.726-17.311-15.81-.4.533-.8 1.067-1.2 1.601 7.839 5.942 14.361 15.834 15.11 22.609.505 4.534 2.106 9.04 3.797 13.513.559 1.48.991 3.041 1.201 4.703.239 1.127-.028 2.412-.8 3.286 1.409.294 2.437-.174 2.801-1.59 1.744 1.134 2.821.399 3.803-.495z"/><path d="m328.75 375.21c-.403-1.988-2.02-2.91-4.842-3.112.144-1.21-.403-2.594-1.988-3.113.414 1.054.434 1.878.272 2.681-.177.875-.5 1.861-.823 2.698-.808 2.094-2.344 3.607-5.242 3.699-.952.031-1.599.278-1.729.951-.953 4.933-4.97 9.28-10.634 13.315.346.49.691 1.152 1.037 1.642 5.01-2.521 9.131-5.926 11.499-10.461.518-.992 1.271-1.652 2.161-1.729 1.095-.095 1.736-.506 2.162-1.124 1.043-1.514 1.944-3.088 2.421-4.755.864-3.02 3.987-2.427 5.706-.692z"/><path d="m246.12 406.76c-5.534 7.465.536 15.332 7.686 15.527 11.804.321 23.828-1.701 36.38-8.622l-.369-4.933-43.698-1.972z"/><path d="m289.33 393.94c-11.444-.011-21.48-2.842-30.336-8.03-10.947-6.417-19.12-.726-19.419 10.05-.506 18.295 27.778 19.918 48.969 14.01l.786-16.03z"/><path d="m349.15 406.76c5.533 7.465-.536 15.332-7.687 15.527-11.803.321-23.827-1.701-36.38-8.622l.37-4.933 43.698-1.972z"/><path d="m305.95 393.94c11.445-.011 21.481-2.842 30.337-8.03 10.947-6.417 19.12-.726 19.418 10.05.506 18.295-27.778 19.918-48.968 14.01l-.787-16.03z"/></g><g fill="none"><path d="m285.16 428.24c8.264 1.685 16.528 1.685 24.793 0m-27.22 9.04c9.95 2.204 19.899 2.204 29.849 0m-30.432 6.32c10.37 3.241 20.741 3.241 31.11 0m-30.627 8.459c10.05 2.982 20.09 2.981 30.14 0m-28.488 6.223c8.977 3.111 17.954 3.111 26.932 0m-23.724 6.417c6.903 2.852 13.806 2.852 20.71 0"/><path d="m252.36 383.34c-5.584 4.477-1.878 13.476 10.826 12.406 3.562-.301 7.125.38 11.02 1.172 4.535.922 9.166 1.369 13.75.683m-34.13 13.969c.829 4.46.146 8.01-2.145 10.648m16.774-9.182c.488 3.082-.456 6.542-2.243 8.791m-13.459-28.23c-3.795 5.73-3.648 11.753-.682 17.485m3.511.879c8.01-4.195 19.18-4.507 31.11-1.661m-36.864-7.912c12.19-2.422 24.38-1.16 36.571 2.149m-20.382-8.889c-.521 1.79-.261 4.33 1.072 5.568m4.194.391c-2.098 1.416-1.74 5.258.293 6.935"/><path d="m342.92 383.34c5.584 4.477 1.878 13.476-10.825 12.406-3.562-.301-7.126.38-11.02 1.172-4.535.922-9.166 1.369-13.751.683m34.13 13.969c-.829 4.46-.146 8.01 2.146 10.648m-16.774-9.182c-.488 3.082.456 6.542 2.243 8.791m13.458-28.23c3.795 5.73 3.648 11.753.683 17.485m-3.511.879c-8.01-4.195-19.18-4.507-31.11-1.661m36.864-7.912c-12.19-2.422-24.38-1.16-36.571 2.149m20.382-8.889c.52 1.79.26 4.33-1.073 5.568m-4.193.391c2.097 1.416 1.74 5.258-.293 6.935"/><path d="m305.58 387.66c-1.687-1.212-2.817-3.417-2.817-5.938 0-1.916.654-3.651 1.709-4.906m-1.367-1.585c-1.523 1.632-2.473 3.937-2.473 6.491 0 2.197.736 4.402 2.121 6.088l-1.717 1.599m-8.859-14.178c1.523 1.632 2.473 3.937 2.473 6.491 0 2.197-.736 4.402-2.121 6.088l1.717 1.599m-4.544-1.749c1.687-1.212 2.816-3.417 2.816-5.938 0-1.916-.653-3.651-1.708-4.906"/></g><path d="m308.98 403.16c0 9.958-5.672 14.937-11.344 14.937s-11.345-4.979-11.345-14.937c0-9.781 5.673-14.671 11.345-14.671s11.344 4.89 11.344 14.671z" fill="#f8e73b"/></g></g></svg>