<svg xmlns="http://www.w3.org/2000/svg" viewBox="0 0 300 360" xmlns:xlink="http://www.w3.org/1999/xlink"><defs><linearGradient id="3" y2="579.67" gradientUnits="userSpaceOnUse" x2="0" y1="646.14" xlink:href="#0"/><linearGradient id="2" y2="523.56" gradientUnits="userSpaceOnUse" x2="0" y1="473.33" xlink:href="#0"/><linearGradient id="0" y2="730.05" gradientUnits="userSpaceOnUse" x2="-37.22" y1="751.88" x1="-37.36"><stop stop-color="#e6e6e6"/><stop stop-color="#fff" offset="1"/></linearGradient><linearGradient id="1" y2="375.69" gradientUnits="userSpaceOnUse" x2="-695.67" y1="392.74" x1="-695.56" xlink:href="#0"/></defs><g transform="translate(-150-520.26)"><path d="m371.75 692.29c2.935 0 5.315 2.38 5.315 5.315v5.314c0 2.935-2.38 5.315-5.315 5.315h-5.315v-15.944zm0 21.259c5.87 0 10.63-4.76 10.63-10.63v-5.314c0-5.87-4.76-10.63-10.63-10.63h-10.63v26.574zm-21.26-26.574h5.315v26.574h-5.315zm-10.63 0h5.315v26.574h-5.315l-10.63-16.684v16.684h-5.315v-26.574h5.315l10.63 16.684zm-79.72 0h15.945v5.315h-10.63v5.315h10.63v5.315h-10.63v5.315h10.63v5.315h-15.945zm-21.26-.0001h5.315v21.26h10.63v5.315h-15.945zm55.808 21.26h5.313c4.402 0 7.972-3.57 7.972-7.972s-3.637-7.957-7.972-7.972h-5.313v5.315h5.313c1.467 0 2.658 1.19 2.658 2.658s-1.19 2.658-2.658 2.658h-5.313zm5.31-26.58c10.272 0 18.602 8.33 18.602 18.602s-8.33 18.602-18.602 18.602-18.602-8.33-18.602-18.602 8.33-18.602 18.602-18.602m-13.287 18.602c0 7.337 5.95 13.287 13.287 13.287 7.337 0 13.287-5.95 13.287-13.287 0-7.337-5.95-13.287-13.287-13.287-7.337 0-13.287 5.95-13.287 13.287" fill="#a90000"/><g transform="matrix(1 0 0 1.0014-75 167.18)"><g fill-rule="evenodd"><path d="m225 588.82c.352 3.01.803 5.987 1.362 8.933 12.34 64.96 74.2 114.37 148.64 114.37 74.44 0 136.3-49.4 148.64-114.36.56-2.948 1.01-5.929 1.363-8.938v-236.21h-300v236.21z"/><path d="m514.17 623.21c4.614-10.897 7.74-22.472 9.158-34.514v-234.44h-296.66v234.44c1.418 12.04 4.545 23.62 9.159 34.518 21.609 51.04 75.78 87.24 139.17 87.24s117.56-36.2 139.17-87.24z" fill="#fff"/><path d="m382.63 365.93h12.418l-7.393 16.893 18.409 1.059-7.07 17.412 18.41 1.06-7.07 17.411 18.41 1.06-7.07 17.411 18.41 1.06-7.07 17.411 18.41 1.06-7.07 17.411 18.411 1.06-7.07 17.411 18.411 1.061-7.07 17.411 18.41 1.06-7.07 17.411 18.411 1.06-7.07 17.411 18.41 1.06-7.07 17.412 18.411 1.061-7.393 16.893 11.302.65v2.556c-1.418 12.04-4.544 23.617-9.158 34.514-21.608 51.04-75.78 87.24-139.17 87.24-63.39 0-117.56-36.2-139.17-87.24-4.615-10.899-7.741-22.474-9.159-34.518v-2.556l11.3-.65-7.39-16.891 18.414-1.062-7.07-17.414 18.407-1.059-7.07-17.409 18.408-1.063-7.07-17.412 18.41-1.059-7.08-17.412 18.413-1.057-7.07-17.414 18.41-1.058-7.08-17.41 18.413-1.059-7.078-17.415 18.414-1.058-7.07-17.41 18.408-1.062-7.08-17.411 18.412-1.059-7.07-17.412 18.409-1.061-7.392-16.891h12.413l7.628-11.677 7.628 11.677z" fill="#41a147"/><g stroke="#000"><g fill="#ffe600" stroke-width=".25" transform="matrix(4.88735 0 0 4.88735-138.17-193.41)"><path d="m113.42 163.48v-7.96l-6.2 1.76 1.76-6.21h-7.96l1.76 6.21-6.2-1.76v7.96l6.2-1.76-1.76 6.2h7.96l-1.76-6.2z"/><path d="m111.61 133.11v-6.24l-4.87 1.37 1.38-4.86h-6.24l1.38 4.86-4.87-1.37v6.24l4.87-1.38-1.38 4.87h6.24l-1.38-4.87z"/></g><g stroke-width="1.181"><path transform="matrix(.87807-.47854.47854.87807 0 0)" fill="url(#0)" d="m-37.22 730.07h21.736v21.736h-21.736z"/><path transform="matrix(-.87807-.47854-.47854.87807 0 0)" fill="url(#1)" d="m-695.77 371.16h21.736v21.736h-21.736z"/></g></g><path d="m430.13 657.12l3.188 1.737c18.787-31.31 31.21-65.946 30.808-96.62-.603-45.631-39.09-88.93-89.12-88.93s-88.52 43.3-89.12 88.93c-.405 30.672 12.02 65.31 30.808 96.62l3.188-1.737c-39.1-74.24-39.12-131.73 13.638-165.53 6.467-4.144 14.524-3.695 23.37 0 5.787 3.612 11.843 5.538 18.12 5.538 6.275 0 12.333-1.925 18.12-5.538 8.846-3.695 16.903-4.144 23.37 0 52.762 33.803 52.74 91.29 13.638 165.53" fill="url(#2)"/><path d="m375 520.13c49.5 0 68.854 49.49 39.23 128.32l15.897 8.664c39.1-74.24 39.12-131.73-13.638-165.53-6.467-4.144-14.524-3.695-23.37 0-5.788 3.613-11.845 5.538-18.12 5.538-6.275 0-12.331-1.926-18.12-5.538-8.846-3.695-16.903-4.144-23.37 0-52.762 33.803-52.74 91.29-13.638 165.53l15.897-8.664c-29.62-78.83-10.27-128.32 39.23-128.32zm78.879 44.945c-.865-.076-1.612.383-1.665 1.018l-1.458 17.06c-.054.635.607 1.213 1.467 1.287l4.14.355c1.052-6.687 1.584-13.147 1.579-19.372l-4.062-.349m-22.292-56.61c-.698.516-.954 1.354-.574 1.865l10.196 13.756c.38.512 1.257.508 1.952-.005l3.391-2.512c-3.246-5.444-7.211-10.569-11.905-15.368l-3.06 2.265m11.662 109.58c-.805-.325-1.653-.104-1.889.488l-6.373 15.893c-.237.591.226 1.337 1.027 1.659l3.674 1.475c2.753-6.128 5.205-12.13 7.353-17.992l-3.793-1.523m-147.13-52.98c.867-.076 1.612.383 1.664 1.017l1.462 17.06c.051.633-.608 1.211-1.468 1.286l-4.141.356c-1.052-6.687-1.583-13.147-1.579-19.371l4.062-.349m22.295-56.61c.695.514.952 1.352.573 1.863l-10.197 13.758c-.382.511-1.257.506-1.951-.005l-3.392-2.514c3.246-5.444 7.21-10.569 11.904-15.368l3.063 2.268zm-11.67 109.58c.804-.325 1.654-.103 1.89.489l6.372 15.896c.235.59-.227 1.33-1.028 1.654l-3.675 1.477c-2.753-6.128-5.204-12.12-7.351-17.991l3.792-1.526" fill="url(#3)"/></g><g fill="none" stroke="#000" stroke-width="1.222"><path d="m375 520.13c49.5 0 68.854 49.49 39.23 128.32l19.08 10.401c18.787-31.31 31.21-65.946 30.808-96.62-.603-45.631-39.09-88.93-89.12-88.93s-88.52 43.3-89.12 88.93c-.405 30.672 12.02 65.31 30.808 96.62l19.07-10.4c-29.62-78.83-10.27-128.32 39.23-128.32zm78.879 44.945c-.865-.076-1.612.383-1.665 1.018l-1.458 17.06c-.054.635.607 1.213 1.467 1.287l4.14.355c1.052-6.687 1.584-13.147 1.579-19.372l-4.062-.349zm-22.292-56.61c-.698.516-.954 1.354-.574 1.865l10.196 13.756c.38.512 1.257.508 1.952-.005l3.391-2.512c-3.246-5.444-7.211-10.569-11.905-15.368l-3.06 2.265zm11.662 109.58c-.805-.325-1.653-.104-1.889.488l-6.373 15.893c-.237.591.226 1.337 1.027 1.659l3.674 1.475c2.753-6.128 5.205-12.13 7.353-17.992l-3.793-1.523zm-147.13-52.98c.867-.076 1.612.383 1.664 1.017l1.462 17.06c.051.633-.608 1.211-1.468 1.286l-4.141.356c-1.052-6.687-1.583-13.147-1.579-19.371l4.062-.349zm22.295-56.61c.695.514.952 1.352.573 1.863l-10.197 13.758c-.382.511-1.257.506-1.951-.005l-3.392-2.514c3.246-5.444 7.21-10.569 11.904-15.368l3.063 2.268zm-11.67 109.58c.804-.325 1.654-.103 1.89.489l6.372 15.896c.235.59-.227 1.33-1.028 1.654l-3.675 1.477c-2.753-6.128-5.204-12.12-7.351-17.991l3.792-1.526z"/><path d="m429.95 657.46c39.28-74.41 39.38-132.02-13.46-165.87-6.467-4.144-14.524-3.695-23.37 0-5.788 3.613-11.845 5.538-18.12 5.538-6.275 0-12.331-1.926-18.12-5.538-8.846-3.695-16.903-4.144-23.37 0-52.843 33.855-52.742 91.46-13.46 165.87"/></g></g></g></svg>