<svg xmlns="http://www.w3.org/2000/svg" viewBox="0 0 500 590"><g stroke="#000" stroke-width="2"><path d="m30 70v120c40 20 40 100 0 120v110c0 90 170 120 170 120 25.5 4.5 40 20 50 30 10-10 24.5-25.5 50-30 0 0 170-30 170-120v-110c-40-20-40-100 0-120v-120c-70-70-370-70-440 0z" fill="none"/><path d="m36 75v111c40 26 40 104 0 128v103c0 88 165 117 165 117 24 3 39 18 49 28 10-10 24-25 50-28-1 0 164-29 164-117v-103c-40-24-40-102 0-128v-111c-67-65-361-65-428 0z" fill="#f00"/><path d="m77 180c12 49 12 97 0 146 24-24 64-37 97-49-12 33-25 73-49 97 49-12 97-12 146 0-24-24-36-64-49-97 33 12 73 24.51 97 49-11-49-11-97 0-146-24 24-64 36-97 49 13-33 25-73 49-97-49 11-97 11-146 0 24 24 37 64 49 97-33-13-73-25-97-49z" fill="#ffc000"/><g fill="#fff"><path d="m365 370v-220c0-25 0-40 12-65 12 25 12 40 12 65v220l-4 80h-16z"/><ellipse cx="377" cy="460" rx="12" ry="12"/><path d="m337 375h80v12h-80z"/><ellipse cx="330" cy="381" rx="11" ry="11"/><ellipse cx="424" cy="381" rx="11" ry="11"/></g><g fill="none"><path d="m377 117v258"/><path d="m367 401h20"/><path d="m368 417h18"/><path d="m369 433h16"/></g></g></svg>