<svg xmlns="http://www.w3.org/2000/svg" viewBox="0 0 300 360" xmlns:xlink="http://www.w3.org/1999/xlink"><defs><linearGradient id="8" gradientUnits="userSpaceOnUse" x2=".62" gradientTransform="matrix(0 34.2401 45.2062 0 339.05 720.29)" x1=".38" xlink:href="#0"/><linearGradient id="9" gradientUnits="userSpaceOnUse" x2=".94" gradientTransform="matrix(42.1606 36.5217 36.92135-42.73752 332.19 829.68)" x1=".06"><stop stop-color="#c93"/><stop stop-color="#f0e824" offset=".46"/><stop stop-color="#c93" offset="1"/></linearGradient><linearGradient id="E" y2=".479" gradientUnits="userSpaceOnUse" x2=".568" gradientTransform="matrix(-39.97489-154.6137-173.1741 44.89496 443.17 834.08)" y1=".488" x1=".532" xlink:href="#0"/><linearGradient id="A" gradientUnits="userSpaceOnUse" x2=".62" gradientTransform="matrix(0 43.1917 131.9884 0 277.16 815.35)" x1=".38" xlink:href="#0"/><linearGradient id="C" gradientUnits="userSpaceOnUse" x2=".65" gradientTransform="matrix(-14.41375 43.3707 82.1383 27.37169 318.73 812.85)" x1=".35" xlink:href="#0"/><linearGradient id="D" gradientUnits="userSpaceOnUse" x2=".57" gradientTransform="matrix(-82.0963-66.90374-68.3018 84.0389 436.56 794.68)" x1=".43" xlink:href="#0"/><linearGradient id="B" y2=".502" gradientUnits="userSpaceOnUse" x2=".552" gradientTransform="matrix(-66.95478-181.0227-273.2225 101.3305 482.36 817.13)" y1=".522" x1=".516" xlink:href="#0"/><linearGradient id="7" gradientUnits="userSpaceOnUse" x2=".69" gradientTransform="matrix(-24.2301-12.57144-12.8102 24.75716 388.73 724.73)" x1=".31" xlink:href="#0"/><linearGradient id="0" gradientUnits="userSpaceOnUse" x2=".64" gradientTransform="matrix(-43.63292 1.10742.35957 14.20558 387.39 689.15)" x1=".36"><stop stop-color="#f0e824"/><stop stop-color="#c93" offset="1"/></linearGradient><linearGradient id="1" gradientUnits="userSpaceOnUse" x2=".65" gradientTransform="matrix(-44.1009-7.92627-8.71141 48.60069 394.96 656.51)" x1=".35" xlink:href="#0"/><linearGradient id="6" gradientUnits="userSpaceOnUse" x2=".67" gradientTransform="matrix(36.3449-6.86921-6.042-32.0546 359.87 649.55)" x1=".33" xlink:href="#0"/><linearGradient id="2" gradientUnits="userSpaceOnUse" x2=".59" gradientTransform="matrix(-42.4444 0 0 11.96815 366.68 689.72)" x1=".41" xlink:href="#0"/><linearGradient id="4" gradientUnits="userSpaceOnUse" x2=".57" gradientTransform="matrix(-40.0406 20.0831 21.45988 42.90142 396.1 642.72)" x1=".43" xlink:href="#0"/><linearGradient id="5" gradientUnits="userSpaceOnUse" x2=".56" gradientTransform="matrix(-44.2365-22.1833-21.96435 43.91869 385.8 662.44)" x1=".44" xlink:href="#0"/><linearGradient id="3" gradientUnits="userSpaceOnUse" x2=".63" gradientTransform="matrix(-21.38883 0 0 13.48153 402.03 688.21)" x1=".37" xlink:href="#0"/></defs><g transform="translate(-218.55-577.36)"><g fill-rule="evenodd"><path d="m440.3 749.39c2.935 0 5.315 2.38 5.315 5.315v5.314c0 2.935-2.38 5.315-5.315 5.315h-5.315v-15.944h5.315m0 21.259c5.87 0 10.63-4.76 10.63-10.63v-5.314c0-5.87-4.76-10.63-10.63-10.63h-10.63v26.574h10.63m-21.26-26.574h5.315v26.574h-5.315v-26.574m-10.63 0h5.315v26.574h-5.315l-10.63-16.684v16.684h-5.315v-26.574h5.315l10.63 16.684v-16.684m-79.72 0h15.945v5.315h-10.63v5.315h10.63v5.315h-10.63v5.315h10.63v5.315h-15.945v-26.574m-21.26-.0001h5.315v21.26h10.63v5.315h-15.945v-26.575m55.808 21.26h5.314c4.402 0 7.972-3.57 7.972-7.972s-3.637-7.957-7.972-7.972h-5.314v5.315h5.314c1.467 0 2.658 1.19 2.658 2.658s-1.19 2.658-2.658 2.658h-5.314v5.315m5.314-26.575c10.272 0 18.602 8.33 18.602 18.602s-8.33 18.602-18.602 18.602-18.602-8.33-18.602-18.602 8.33-18.602 18.602-18.602m0 5.315c7.337 0 13.287 5.95 13.287 13.287 0 7.337-5.95 13.287-13.287 13.287-7.337 0-13.287-5.95-13.287-13.287 0-7.337 5.95-13.287 13.287-13.287" fill="#a90000"/><path d="m218.55 813.9c.352 3.01.802 5.995 1.362 8.945 12.337 65.05 74.2 114.52 148.64 114.52 74.44 0 136.3-49.47 148.64-114.52.56-2.952 1.01-5.937 1.363-8.949v-236.53h-300v236.53z"/><path d="m507.72 848.33c4.614-10.913 7.74-22.502 9.158-34.561v-234.76h-296.66v234.76c1.418 12.06 4.545 23.652 9.159 34.565 21.609 51.11 75.78 87.35 139.17 87.35 63.39 0 117.56-36.25 139.17-87.36" fill="#3d82c2"/><g stroke="#000" stroke-width="1.275" stroke-miterlimit="7.632"><path d="m448.2 784.46h-153.8v73.75h153.8v-73.75z" fill="#f0e824"/><path d="m412.77 841.96v-74.25h-82.944v74.25h82.944z" fill="url(#E)"/><path d="m408.88 845.43v-26.576c0-16.647-15.75-32.775-37.582-32.775s-37.581 16.13-37.581 32.775v26.576h75.16z" fill="#f0e824"/><path d="m395.31 845.43v-27.659c0-11.44-9.677-22.262-24.02-22.262s-24.02 10.823-24.02 22.262v27.659h48.04z" fill="url(#D)"/></g></g><g stroke="#000" stroke-width="1.275" stroke-miterlimit="7.632"><path d="m395.31 845.43v-27.659c0-11.44-9.677-22.262-24.02-22.262s-24.02 10.823-24.02 22.262v27.659h48.04z" fill="none"/><g fill-rule="evenodd"><g fill="#f0e824"><path d="m261.93 841.96h218.74l4.359 16.251h-227.46l4.359-16.251z"/><path d="m300.99 741.39h140.61v12.722l-6.571 13.597h-127.47l-6.571-13.597v-12.722z"/></g><path d="m394.89 858.21v-16.251h-47.19v16.251h47.19z" fill="url(#C)"/></g><path d="m347.7 854.15h47.19m-47.19-4.062h47.19m-47.19-4.063h47.19" fill="none"/><path d="m300.99 741.39h140.61v12.722h-140.61v-12.722z" fill-rule="evenodd" fill="#f0e824"/><path d="m320.94 758.4v6.838m7.193-6.838v6.838m7.193-6.838v6.838m7.193-6.838v6.838m7.193-6.838v6.838m7.193-6.838v6.838m7.193-6.838v6.838m7.193-6.838v6.838m7.193-6.838v6.838m7.193-6.838v6.838m7.193-6.838v6.838m7.193-6.838v6.838m7.193-6.838v6.838m7.193-6.838v6.838m7.193-6.838v6.838m7.193-6.837v6.838m-115.09-6.838v6.838" fill="none"/><g fill-rule="evenodd"><g fill="#f0e824"><path d="m328.1 701.69h86.4l-4.618 12.722h-77.16l-4.618-12.722z"/><path d="m328.1 718.54h86.4v22.846h-86.4v-22.846z"/><path d="m332.72 714.41h77.16l4.618 26.977h-86.4l4.618-26.977z"/></g><path d="m344.81 773.39h3.369v9.674h-3.369v-9.674z"/><path d="m397.79 773.39h-3.369v9.674h3.369v-9.674z"/><path d="m435.03 767.7h-22.263v62.09h35.429l-13.166-62.09zm-105.21 0h-22.263l-13.166 62.09h35.429v-62.09z" fill="url(#B)"/></g><path d="m326.77 745.02h9.289v5.449h-9.289v-5.449zm13.294 0h9.289v5.449h-9.289v-5.449zm13.295 0h9.289v5.449h-9.289v-5.449zm13.293 0h9.289v5.449h-9.289v-5.449zm13.293 0h9.29v5.449h-9.29v-5.449zm13.295 0h9.289v5.449h-9.289v-5.449zm13.294 0h9.289v5.449h-9.289v-5.449zm13.293 0h9.29v5.449h-9.29v-5.449zm-106.35 0h9.289v5.449h-9.289v-5.449z" fill="none"/><g fill-rule="evenodd"><path d="m402.06 815.35l-7.088 6.665v19.942h14.176v-19.942l-7.088-6.665zm-61.53 0l7.088 6.665v19.942h-14.176v-19.942l7.088-6.665z" fill="url(#A)"/><path d="m371.3 804.98c7.999 0 14.485 4.17 14.485 9.311v27.671h-28.97v-27.671c0-5.142 6.487-9.311 14.485-9.311" fill="url(#9)"/></g><g fill="none"><path d="m320.85 824.31h-12.534v-3.742c0-3.466 2.806-6.275 6.267-6.275 3.461 0 6.268 2.809 6.268 6.275v3.742zm-6.267 3.581v-8.222"/><path d="m428.01 827.89v-8.222m-6.267 4.641h12.534v-3.742c0-3.466-2.805-6.275-6.267-6.275s-6.268 2.809-6.268 6.275v3.742z"/></g><g fill-rule="evenodd"><path d="m364.81 720.29h12.964c3.566 0 6.482 2.92 6.482 6.491v14.601h-25.929v-14.601c0-3.571 2.917-6.491 6.482-6.491" fill="url(#8)"/><path d="m371.3 723.5c4.865 0 8.811 2.656 8.811 5.932l.004 11.957h-17.598l-.026-11.957c0-3.275 3.945-5.932 8.81-5.932" fill="url(#7)"/></g><path d="m362.48 736.13h17.633m-17.633-5.662h17.633m-8.817-6.969v18.11m-.002 100.37v-36.998m-14.586 9.243h29.17" fill="none"/><g fill-rule="evenodd"><g fill="#f0e824"><path d="m363.08 655.16h16.426v-12.501h-16.426v12.501z"/><path d="m380.14 601.63v-2.382h-7.653v-3.979h4.592v-2.382h-4.592v-4.62h-2.379v4.62h-4.592v2.382h4.592v3.979h-7.653v2.382h7.653v4.915l-3.229-2.161-1.321 1.979 4.55 3.046v6.713h2.379v-5.12l3.229 2.161 1.321-1.979-4.55-3.046v-6.508h7.653z"/></g><path d="m372.29 616.56c.731 10.629 5.138 11.732 8.983 15.09 2.902 2.535 4.537 8.445-1.768 11.01h-16.426c-6.305-2.563-4.67-8.472-1.768-11.01 3.845-3.359 8.252-4.462 8.983-15.09h1.995z" fill="url(#6)"/><g fill="#f0e824"><path d="m371.3 613.71c1.27 0 2.3 1.031 2.3 2.303 0 1.271-1.03 2.303-2.3 2.303-1.27 0-2.3-1.031-2.3-2.303 0-1.271 1.03-2.303 2.3-2.303z"/><path d="m394.6 681.92h-46.601v-16.668h46.601v16.668z"/></g><path d="m340.56 690.25c5.066-12.959 12.28-25.2 22.522-35.09h8.213v35.09h-30.735z" fill="url(#5)"/><path d="m371.3 655.16h8.213c10.241 9.886 17.456 22.13 22.522 35.09h-30.606-.129v-35.09z" fill="url(#4)"/><path d="m381.2 701.69h20.827v-11.439h-20.827v11.439z" fill="url(#3)"/><path d="m340.56 701.69h26.12v-11.439h-26.12v11.439z" fill="url(#2)"/><path d="m387.42 690.25v-.115l-.007-.036c-2.309-12.219-6.318-23.867-12.02-34.941h-8.187c-5.683 11.03-9.681 22.621-11.995 34.782l-.038.195v.115h32.25z" fill="url(#1)"/><path d="m387.42 701.78v-11.528h-32.25v11.527h32.25z" fill="url(#0)"/><g fill="#f0e824"><path d="m367.46 681.92h7.68v-8.934h-7.68v8.934z"/><path d="m365.44 672.98l5.859-7.734 5.859 7.734h-11.719z"/></g></g></g></g></svg>