<svg xmlns="http://www.w3.org/2000/svg" width="340" height="416.54" viewBox="0 0 95.955479 117.55796" fill-rule="evenodd"><g transform="matrix(.80117 0 0 .80117-36.14-60.14)"><g fill-rule="nonzero"><path d="m164.78 88.5l.002.0001.1.048v.111 32.982c-1.748 1.272-3.236 2.849-4.378 4.687-.218.35-.423.711-.616 1.081-1.179 2.266-1.847 4.84-1.847 7.569v.0001c0 3.932 1.382 7.54 3.686 10.367.447.549.931 1.069 1.446 1.557.542.513 1.121.974 1.707 1.416v14.82c.0001 11.355-4.634 21.606-12.09 29.04-1.45 1.444-3.01 2.782-4.659 4-1.651 1.219-3.396 2.319-5.221 3.286h-.0001c-5.735 3.04-11.595 5.86-17.454 8.678-2.821 1.357-5.642 2.715-8.492 4.118-3.266 1.662-6.257 3.785-8.895 6.29-.513.487-1.013.989-1.499 1.505-.533.566-1.061 1.145-1.547 1.753-2.414-2.858-5.174-5.345-8.289-7.396-.594-.391-1.199-.768-1.814-1.126-.613-.357-1.241-.699-1.881-1.025-2.85-1.404-5.671-2.761-8.493-4.119-5.859-2.819-11.719-5.638-17.454-8.678-6.548-3.471-12.06-8.641-15.929-14.924-.75-1.219-1.44-2.483-2.064-3.789-2.551-5.332-3.982-11.3-3.982-17.608v-.0001-14.822c1.749-1.256 3.233-2.837 4.378-4.686.217-.351.423-.711.616-1.081 1.179-2.266 1.847-4.84 1.847-7.569v-.0001c0-3.932-1.382-7.54-3.686-10.367-.447-.549-.931-1.069-1.446-1.558-.541-.513-1.12-.985-1.707-1.416v-32.979-.111l.1-.048c7.586-3.602 15.548-6.541 23.811-8.742 1.604-.427 3.223-.827 4.854-1.199 10-2.281 20.419-3.487 31.12-3.487h.003c15.401 0 30.22 2.5 44.08 7.112 2.697.898 5.355 1.874 7.971 2.927 2.619 1.054 5.199 2.184 7.735 3.389"/><path d="m164.53 88.77c-2.5-1.185-5.04-2.297-7.617-3.334-2.615-1.052-5.266-2.026-7.95-2.92-13.819-4.599-28.6-7.092-43.965-7.092h-.003c-10.668-.0001-21.06 1.202-31.04 3.478-1.622.37-3.237.769-4.841 1.196-8.205 2.185-16.11 5.101-23.65 8.672v32.692c.562.414 1.096.86 1.599 1.336.525.497 1.018 1.028 1.476 1.591 2.354 2.888 3.766 6.574 3.766 10.589v.0001c-.0001 2.789-.682 5.419-1.886 7.732-.195.375-.405.744-.63 1.104-1.131 1.821-2.603 3.41-4.325 4.679v14.644.0001c-.0001 6.254 1.418 12.171 3.947 17.457.616 1.287 1.3 2.541 2.047 3.756 3.834 6.231 9.302 11.356 15.793 14.798 5.743 3.044 11.593 5.859 17.442 8.673 2.851 1.372 5.702 2.744 8.498 4.12l.002.0001h.0001c.641.326 1.273.671 1.897 1.035.623.363 1.233.742 1.832 1.137 3.02 1.995 5.743 4.406 8.091 7.142.422-.496.855-.978 1.295-1.446.49-.52.995-1.027 1.512-1.519 2.663-2.53 5.682-4.673 8.978-6.349l.006-.003h.0001c2.794-1.376 5.643-2.747 8.492-4.117 5.849-2.814 11.699-5.629 17.442-8.673h.0001c1.809-.959 3.539-2.049 5.175-3.257 1.637-1.208 3.182-2.535 4.62-3.968 7.396-7.365 11.991-17.528 11.991-28.786v-14.644c-.562-.414-1.096-.861-1.599-1.337-.524-.497-1.018-1.028-1.476-1.591-2.354-2.888-3.766-6.574-3.766-10.589v-.0001c.0001-2.789.682-5.419 1.886-7.732.195-.375.405-.744.63-1.104 1.131-1.821 2.603-3.41 4.325-4.679v-32.692" fill="#0093dd"/><path d="m105 215.92c-2.61-2.491-5.512-4.67-8.658-6.436-3.247-1.822-6.698-3.334-10.05-4.945-5.852-2.809-11.704-5.618-17.431-8.675-5.884-3.141-10.839-7.803-14.313-13.465-.677-1.103-1.297-2.242-1.855-3.412-2.291-4.802-3.577-10.175-3.577-15.854v-.0001-12.831-.079l.058-.052c1.743-1.565 3.215-3.426 4.337-5.502.219-.406.425-.818.615-1.236 1.175-2.577 1.83-5.442 1.83-8.459v-.0001c.0001-4.344-1.357-8.372-3.67-11.683-.45-.643-.936-1.26-1.455-1.847-.518-.585-1.071-1.142-1.655-1.667l-.059-.053v-28.629c7.211-3.27 14.713-5.902 22.387-7.854 1.499-.381 3.01-.738 4.529-1.069 9.33-2.033 19.02-3.105 28.965-3.105h.003c14.314 0 28.11 2.223 41.07 6.339 2.525.802 5.01 1.674 7.459 2.613 2.48.952 4.945 1.97 7.359 3.078v28.628c-1.772 1.591-3.262 3.458-4.395 5.554-.22.406-.425.818-.615 1.236-1.175 2.577-1.83 5.442-1.83 8.458v.0001c0 4.345 1.357 8.373 3.67 11.683.45.643.936 1.26 1.455 1.847.518.585 1.071 1.142 1.655 1.667h.0001l.058.052v12.91c.0001 10.222-4.163 19.452-10.867 26.15-1.303 1.303-2.702 2.51-4.186 3.61-1.482 1.1-3.05 2.093-4.69 2.968l-.002.0001c-5.726 3.057-11.579 5.866-17.431 8.675-2.83 1.358-5.66 2.717-8.512 4.122l-.004.002h-.0001c-3.676 1.865-7.252 4.323-10.187 7.256z"/><path d="m105 215.44c.383-.363.771-.717 1.162-1.061.43-.378.874-.753 1.331-1.124 2.322-1.883 4.85-3.532 7.545-4.899l.005-.003h.0001c2.802-1.38 5.657-2.751 8.512-4.121 5.848-2.807 11.696-5.615 17.416-8.667l.002-.0001c1.624-.867 3.177-1.851 4.647-2.942 1.47-1.09 2.856-2.286 4.147-3.577 6.639-6.637 10.763-15.779 10.763-25.904v-12.752c-.57-.516-1.113-1.065-1.626-1.644-.528-.596-1.022-1.224-1.48-1.879-2.354-3.368-3.735-7.466-3.735-11.884v-.0001c.0001-3.069.667-5.983 1.862-8.604.196-.429.404-.848.625-1.256 1.13-2.09 2.607-3.964 4.354-5.544v-28.24c-2.343-1.057-4.721-2.05-7.133-2.976-2.453-.941-4.934-1.811-7.439-2.608-12.918-4.105-26.679-6.321-40.959-6.321h-.003c-9.914-.0001-19.581 1.069-28.89 3.098-1.514.33-3.02.686-4.517 1.067-7.656 1.948-15.05 4.549-22.12 7.74v28.24c.57.516 1.113 1.065 1.626 1.644.528.596 1.022 1.224 1.48 1.879 2.353 3.368 3.734 7.465 3.734 11.884v.0001c-.0001 3.069-.667 5.983-1.863 8.605-.196.429-.404.848-.625 1.256-1.13 2.09-2.607 3.964-4.354 5.545v12.753.0001c-.0001 5.623 1.273 10.945 3.543 15.703.555 1.164 1.169 2.292 1.837 3.381 3.442 5.609 8.35 10.227 14.178 13.338 5.719 3.053 11.569 5.861 17.417 8.668 2.857 1.371 5.714 2.743 8.518 4.124l.002.0001c.528.268 1.046.544 1.554.829.504.283 1.01.581 1.513.892 2.511 1.55 4.847 3.352 6.97 5.362z" fill="#dfdfdf"/></g><g><path d="m97.23 186.62c-1.465-1.492-1.994-3.606-1.753-6.281.411-4.566 4.183-5.945 8.242-6.16 3.569-.189 14.269 1.947 15.244-1.65.689-2.543-.824-3.796-4.54-3.745-2.342.036-5.834.655-10.189 1.856-3.901.975-9.487.892-13.179-.91-2.787-1.356-4.478-3.626-5.01-6.821-.598-3.625.826-6.925 3.36-8.885 4.062-3.142 12.593-1.651 17.212-.758 3.535.707 7.511 1.498 11.1.716 1.898-.391 5.871-1.672 5.242-4.332-.503-4.674-6.254-3.758-10.02-2.572-4 1.298-7.183 2.135-9.525 2.524-4.065.691-7.765.643-11.1-.17-9.413-2.47-12.37-7.809-9.367-16.493 1.666-4.818 6.152-7.079 10.992-7.664 5.986-.688 11.948.204 18.513 1.385 3.337.728 5.79.908 7.209.702 3.293-.41 4.702-3.221 3.166-5.938-1.328-2.348-3.844-3.288-6.888-3.373-2.172 0-5.511.563-10.716 2.225-7.195 2.342-11.842 2.815-13.953 1.395-2.645.874-5.29 3.142-7.935 6.819-2.536 3.458-4.975 5.63-7.316 6.54l-1.177-.133c-.121-.328-.316-.631-.582-.91-.279-.267-.279-.595 0-.983l.085-.049h.364v-.631c-.789-.158-1.128-.485-1.031-.995 2.135-.789 3.858-1.82 5.181-3.118 1.747-1.65 2.487-3.47 2.22-5.46-3.167 2.172-5.763 2.147-7.814-.049-2.01-2.16-2.026-4.283-.049-6.358 1.031-1.056 2.621-1.395 4.793-1.043 1.953.303 2.997.728 3.155 1.274-.364-1.808-2.123-3.846-5.278-6.103-2.111-1.504-3.227-2.645-3.337-3.421l.17-.182.364-.364c-.251-.476.23-1.572.752-1.847 1.184-.622 2.734.193 4.649 2.541.57.699 1.439 1.279 2.279 2.06 2.099 2.317 3.531 3.567 4.283 3.749l.085.4.049.449.946-.036.449-.049h.498c.892-3.839 6.416-3.765 9.658-5.144-.121-1.201-.874-2.572-2.257-4.113-.959-1.055-1.31-1.82-1.031-2.293.505-.093 4.476.795 5.79 1.579.481-1.061 1.05-4.075 2.557-4.04.843.228 1.482 2.463 1.99 4.09 1.684-.542 3.146-2.426 5.86-1.771.047 1.24-2.775 3.745-3.172 6.367 6.078.119 10.38.64 13.672 1.427 4.623 1.106 8.559 3.097 10.855 7.469 1.752 3.344 1.999 8.098.027 11.435-2.196 3.714-5.34 5.86-9.236 6.571-2.948.546-7.68.085-14.171-1.359-8.311-1.832-13.504-1.407-15.579 1.274-.51 3.397.352 5.363 2.584 5.909 1.286.328 3.926.234 7.505-.603 7.467-1.458 21.698-6.117 27.377 1.55 4.931 6.476 1.277 16.226-6.54 18.321-2.657.716-7.159.546-13.504-.534-5.85-1.029-10.184-1.305-12.993-.819-2.258.39-4.111 3.305-1.323 4.864 1.666.932 3.714 1.31 6.15 1.136 6.401-.553 12.913-3.649 19.397-1.526 2.85.933 4.831 2.981 5.099 6.696.677 9.397-10.166 9.899-16.73 8.734-3.54-.463-7.313-1.811-8.214 2.487-.323.966-.129 1.713.67 2.296 2.972 2.17 8.104 1.84 10.964-.215 1.448-1.04 2.277-.866 3.706-.748 0 .834-.323 1.559-.616 2.158-.457.935-1.118 1.645-2.493 2.599-4.078 3.089-10.911 3.038-15.846-.946" fill="#0a0b0c"/><path d="m97.68 108.18c-.339-1.6-1.215-3.356-2.258-4.602 1.344.289 3.356 1.256 4.373 1.627.158-.934.676-2.704 1.817-3.662.987.905 1.177 2.25 1.802 3.608 1.55-.665 3.072-2.113 4.861-2.113-2.01 1.467-2.538 4.109-2.695 5.275-3.094-1.122-6.798-.494-7.899-.133" fill="#f8c300"/><path d="m101.4 188.04c-1.989-.723-3.999-2.064-4.664-3.914-1.235-3.434-.052-6.875 2.528-8.261 1.711-.837 5.266-1.068 10.653-.667 3.215.231 5.508.291 6.855.17l.182.097.133.133.267.133.049-.267.049-.267.133-.498.049.085c.388.667.91.934 1.577.813-.158-.388-.352-.692-.594-.898h1.771l.133-.728h-.861v-.449h1.759l-.085-.449-.097-.449v-.097l-.182.049-.4.133-.412.133.097-.315.049-.182.036-.133c.4-.061.74-.182 1.043-.364.473-.231.51-.485.085-.764l-.946.449-.498.231-.449.218.133-.898.097.085.085.097.085.085c.158-.085.267-.279.328-.582l1.48-.267-.133-.364-.133-.315-.049-.231c-.425.206-.874.473-1.347.776-.328.206-.558.328-.679.352l-.049-.267-.049-.231.097-.085c.328-.364.801-.607 1.395-.728l.133-.036-.036-.449-.049-.461c-.182.182-.425.303-.728.364l-.133-.134-.049-.097c.182-.303.243-.595.182-.898l-.036-.267c-.206.206-.485.425-.813.631-.4.267-.679.57-.861.898l-.133-.036h-.412c.061-.218.206-.534.412-.959.267-.51.388-.874.364-1.08-.097.036-.291.243-.594.631-.328.449-.607.764-.813.946l-.036-.133-.049-.133v-.133c.243-.279.316-.716.218-1.31l-.036-.182c-.328.243-.57.534-.728.861l-.133.315-.231.049-.218.036-.412.133-.267-.267.231-.716.218-.728h-.631l-.267 1.492c-2.075.036-4.261.354-6.36.803-3.236.868-5.615 1.598-8.726 1.782-3.904.231-9.466-.472-11.661-4.074-1.43-2.347-1.78-4.817-1.042-7.41 1.23-4.32 4.896-5.849 9.16-5.938 6.252-.288 18.12 4.111 24.14 1.247l.085.048.267.048.279.085.036-.182.049-.133.133-.267.412.036.4.048.813.133c.158-.146.255-.461.316-.946l-.182-.049h-.582c.303-.473.837-.716 1.626-.716.449 0 .813-.036 1.08-.097v-.17l.049-.231.049-.315c-.485-.061-.776-.158-.861-.315.303-.243.74-.473 1.31-.679l.133-.946-.582.182c-.522.182-.983.267-1.407.267l-.036-.085-.049-.182v-.182h.231c1.177 0 1.893-.437 2.16-1.31-.959.631-1.929.692-2.888.182 0-.691-.049-1.165-.133-1.395h-.498l-.182.036-.182-.582-.218-.546-.182.097-.133.048c-.667-.57-.922-1.165-.776-1.771.085-.352.133-.667.133-.946-.449.206-.728.619-.849 1.226-.036.243-.073.437-.133.582-3.899-.496-6.139.579-11.233 2.232-5.592 1.949-15.15 2.83-20.512-.26-3.078-1.773-4.759-3.702-5.266-6.211-.415-2.056-.169-5.601 1.317-8.531 2.075-4.091 5.919-5.479 10.825-6.251 4.426-.696 9.203.277 13.536 1.064 3.455.628 10.912 2.743 13.808-.498l.097.582.085.582.728.231.716.231c-.061-.485-.316-1.068-.764-1.759-.158-.279-.255-.473-.315-.594.352-.206.607-.594.764-1.165.388.51 1.141.813 2.257.898l-.085-.316-.097-.316v-.133l-.582-.133v-.412l.813-.182.813-.133c.085-.206.085-.497 0-.861-1.055.121-1.832.51-2.354 1.177h-.582c.319-.219.352-1.288-.277-2.891.206-.024 1.15-.046 1.356-.228.279-.206.546-.34.813-.4l-.133-.946c-.182 0-.388.061-.631.182-.158.085-1.554.629-1.639.666 0-.158 1.312-.836 1.372-1.078.085-.328.133-.667.133-.995-.328.097-.74.328-1.225.679-.473.364-.898.57-1.262.631-.024-.388.036-.704.182-.946l.364-.049.218-.037h.182l-.085-.631-.097-.679c-.57.51-1.104 1.056-1.614 1.626l-.146-.594.279-.036.133-.049h.133l-.085-.316-.097-.315-.049-.316c-.449.206-.716.51-.813.898l-.036.279c-.425-.061-.68-.17-.764-.328.085-.109.218-.231.4-.352l.049-.049c-.4-.51-.801-.582-1.225-.231-.206.182-.089.216-.234.24-.805-.836-2.577-1.287-5.541-1.09l-.716-.049c-.243-.303-.498-.898-.776-1.808-.182.206-.255.57-.218 1.08 0 .279 0 .498 0 .68h-1.08c.146-.328.206-.716.17-1.165v-.182h-.4c-.182.206-.243.437-.182.667.061.279.061.546 0 .813h-.449l-.133.049c-.085-.243-.133-.607-.133-1.08 0-.328-.012-.619-.049-.861-.546.4-.619 1.08-.231 2.038-.546.267-1.553.57-3.02.898h-.049c.485-1.019.582-1.699.279-2.026-.643.473-.886 1.286-.728 2.427-4.139 2.225-11.946 3.47-12.813 2.402-.097-.328.413-1.043 1.529-2.123.995-.995 1.723-1.614 2.172-1.856-.097-.57-2.111-1.359-6.05-2.39-1.541-.425-2.427-.692-2.657-.813.553-1.863 4.791-2.053 6.491-2.305 0-.959 1.298-1.699 3.883-2.208 2.701-.565 4.367-.596 6.999.029.351.083 4.02.264 4.418.286 3.332.21 10.506.724 14.847 2.988 3.402 1.774 6.167 5.532 6.556 9.521.171 3.219-.628 5.505-1.878 7.268-2.01 2.831-5.229 5.067-9.137 5.399-3.088.262-7.286-.313-12.476-1.398-6.115-1.485-10.885-1.883-13.928-.762-.206-.303-.388-.595-.546-.898-.085-.243-.303-.388-.631-.449 0 .182.061.449.182.813.243.595.267 1.08.085 1.444l-.133-.048h-.267c.085-.206-.049-.886-.4-2.026l-.097-.364c-.243.121-.412.231-.498.315.036.243.109.57.231.995.243.813.194 1.529-.133 2.16l-.498.048-.546.049v-.449h-.546c-.085-.449-.267-.813-.534-1.092l-.097-.085-.133.085-.085.048-.049.315c-.085.631-.012 1.153.231 1.577.352.036.801-.012 1.347-.133l-.267 1.893h.449v.995h-.582l-.133.182-.145.315-.17.267-.862-.182-.861-.133c.061.303.218.643.449.995.158.279.255.485.316.631.328-.303.704-.582 1.128-.849.643.109.922.619.861 1.529-.364.121-.607.231-.716.315.109-.388.17-.776.17-1.177-.085-.061-.328-.061-.716 0l-.582.097v.946l.085.085.133.048c.121-.121.267-.231.449-.315.061.206.024.546-.133.995.51.061 1.056-.085 1.626-.412.364-.231.655-.328.861-.267l-.133.267-.145.315-.036.145-.364.085-.182.048v1.031c.182-.024.376-.133.582-.315.4-.352.861-.485 1.407-.4-.158.303-.194.595-.133.898h.582c.085-.182.194-.328.315-.449 6.816.29 12.991-2.434 19.583-3.229 3.229-.389 6.242-.326 8.858.177 4.778.919 8.01 4.336 8.17 8.922.109 3.098-1.643 7.237-4.973 9.729-4.53 3.39-12.631 1.765-18.04.863.121-.473.117-.543.081-.931l-.449.133v1.08c-.279.036-.667-.024-1.177-.182.061-.388.024-.789-.133-1.213h-.315l-.085.036v1.043c-.607-.158-.959-.655-1.043-1.492-.061-.388-.146-.631-.267-.716v.036c-.158.425-.158.959 0 1.589l-.231-.049h-.679l-.133-.364-.085-.4-.231-.813-.267.133-.097.315-.085.315-.133.582h-.182l-.133.049-.231.049-.133-.728-.049-.364-.036-.352h-.546l-.133 1.213c-.57.036-.91-.218-.995-.764-.061-.243-.121-.388-.182-.449l-.133.182-.097.133c-.085.121-.097.425-.036.898l-.279.049-.315.048-.267-1.274-.231-.036h-.218v1.31h-.728v-1.177c-.51.061-.752.315-.716.764v.546c-.061-.036-.158-.218-.279-.546-.182-.449-.34-.752-.485-.898l-.146 1.893c-.425-.667-.704-1.25-.849-1.759-.279.206-.316.607-.133 1.177.109.352.158.631.133.813h-.182l-.231.036-.364.049c-.109-.388-.437-.825-.983-1.31 0 .061.049.255.133.582.267 1.056.316 1.65.133 1.771-.303-.303-.57-.764-.813-1.359h-.631c.388.995.679 1.577.862 1.759l-.412.048-.449.036-.231-.315-.218-.352c-.121.146-.158.364-.097.667l.049.364c.267.182.716.34 1.359.449-.061.4-.388.522-.959.364-.182-.061-.291-.085-.352-.085v-.449l-.279.085-.267.085-.133.995h.085l.91-.036.898-.048v.679l-.182-.049-.133-.097c-.328.206-.667.291-.995.231l-.036.085-.049.182v.231c.267.061.534.024.813-.085.303-.121.582-.182.849-.182l.279.534c-.449.243-.849.352-1.177.315l-.049.231v.764c.158.121.412.121.776 0v-.449h1.08c-.121.158-.485.255-1.08.315v.449l-.049.412c.692 0 1.25-.315 1.674-.946l.267.085.267.133v.182l.049.182.049.085h-.461l-.036.231-.049.267-.085.546.315-.048.133-.049h.182l.085-.17c.182-.364.328-.619.449-.776h.449c.097.182.109.582.049 1.177l.097.097.133.036c.449-.388.692-.728.716-1.031l.764.133c-.146.303-.206.595-.17.898h.218l.279.049.085.048c.473-.789 3.64-1.541 9.476-2.257 4.158-.526 8.535-1.719 12.547-.291 2.251.801 3.994 2.759 4.192 4.666.762 3.171 0 6.34-2.87 8.07-2.139 1.287-4.951 1.846-6.781 1.816-2.026 0-3.436-.014-4.067-.318l-.4-1.395c-.085.243-.194.667-.316 1.262-.449 0-.789-.073-.995-.231l-.085-.582-.097-.498v-.133l-.133.182-.085.085c-.097.121-.109.425-.049.91l-1.08-.146-.182-.315-.231-.315-.133.182-.097.182-.218-.048h-.68c.182-.303.243-.595.182-.898l-.049-.267-.315.631-.182.4h-.498l-.133.048-.049-.315-.036-.267-.097-.631c-.267.267-.4.546-.4.849v.449h-.679l-.231.048-.352-.582v.364l-.049.485-1.893.146-.097.218-.085.182h-.546c.061.182.036.582-.085 1.226l-.133.036-.097.048-.133-.546h-.764l.049.231.036.267c.158.546.231 1.043.231 1.492-.206-.158-.546-.255-.995-.316-.085.036-.146.097-.182.182l.133.133c.328.303.546.692.631 1.177l-.534.134v.182l.036.182.049.315.182-.049.582-.085.546-.097v.449c-.473.121-.752.388-.813.813l-.049.231c.158 0 .316-.061.498-.182.303-.206.607-.315.91-.315-.182.206-.279.497-.279.861v.352l.097-.133.085-.133c.182-.303.473-.4.862-.315-.158.388-.194.704-.133.946.121-.036.267-.097.449-.182.243-.085.473-.146.679-.182l.036.097.049.267.097.267c1.85.081 5.307.986 9.405-1.094.572-.291 1.106-.685 1.649-1.114.613-.195 1.115-.216 1.759-.085-.511 1.499-2.128 3.163-3.47 3.919-3.558 1.931-6.813 1.948-10.592.575" fill="#0093dd"/><path d="m75.39 134.26c-.036-.364-.036-.776 0-1.225 0-.51-.049-.934-.133-1.262.716-.243 1.577-.704 2.572-1.395 1.104-.752 1.735-1.395 1.893-1.941l.582-.315.631-.279c-.145-.631.049-1.65.595-3.058.351-.41 1.084-2.77-.049-4.344-.57 1.116-1.383 1.88-2.439 2.305l-.133.449c-3.894 1.234-6.198-1.473-6.097-3.664.167-3.622 3.442-3.994 6.093-2.716l-.044.92.631.097v1.577l-.133-.91h-.582c0 .158-.012.364-.049.643-.085.51.17.995.764 1.444l-.133.133-.182.085h.91l-.049-.085-.085-.133.631-1.31-.279-.728c-.231-.667-.352-1.201-.352-1.626l.133.182c.388.51 1.019.764 1.893.764.813-.934.279-2.548-1.577-4.865-.96-1.165-1.695-1.709-2.936-2.487-.388-.789-1.213-1.42-2.487-1.893-.57-.206-.959-.413-1.165-.595l.267-1.444.631-.267c.102-.688.222-1.405.412-.182l.667-.036.631-.049c.279.388.522.849.728 1.395.303.837 1.128 1.492 2.487 1.941l.316.728.218-.182.861.716c0 .472-.319.687.049 1.177l.4-.728c2.05 1.711 3.312 3.24 3.798 4.562l.316-.582 2.79-.133c2.4.557 4.579 1.24 6.367 2.147-.618.808-1.799 2.182-1.987 3.18-.303-.097-.51-.218-.631-.364-.279.061-1.068.522-2.39 1.395-1.595 1.135-4.357 2.388-5.386 4.198-1.698 2.987-2.944 4.385-4.865 6.379-.701.728-1.54 1.415-2.477 2.15h-.594c-.303-.036-.643.048-1.031.231" fill="#ee9ba0"/><g fill="#0a0b0c"><path d="m124.04 148.39l.133-1.177-.582-.133h.449l.182.048.218-.813.231-.813c-.425.085-.776.303-1.08.631l-.049.049v-.049l-.497-.085-.497-.097c-.182-1.42.158-1.869.995-1.347 0 1.019.049 1.553.133 1.614 0-.303.194-.558.582-.764.243-.121.412-.231.498-.315.061.303-.049.946-.352 1.941.061.061.231.036.534-.085.279-.121.497-.194.679-.231-.085.425-.485.874-1.177 1.359l-.4.267m-2.354-2.936c.158-.667.413-1.335.776-2.026.231.206.158.825-.231 1.844l-.085.182h-.461m-2.609-.813c0-.716.085-1.262.267-1.626l.182-.315v.133c.036 1.42-.121 2.01-.449 1.808m-27.494-10.786c-.631-.267-.959-.716-.995-1.347v-.279l.546-.133c.061.206.206.497.412.861.182.352.328.692.449.995l-.133-.048-.146-.048h-.133m-9.925-5.775c-.425-.303-.631-.522-.631-.679.085-.024.267-.036.534-.036.522 0 .898-.049 1.128-.146-.231.279-.473.558-.716.861h-.316m43.38-5.411l-.049-.279v-.218c.716-.328 1.141-.57 1.262-.728l.133.097.182.036v.595c-.716.328-1.225.497-1.529.497m-45.548-.364l-.4-.085c-.206-.061-.425-.049-.631.036l-.133.049-.097-.267-.049-.146c.485-.109.862-.303 1.128-.582.218.303.328.643.328 1.043l-.049-.049h-.097m-2.791 0c-.279-.91-.4-1.674-.364-2.305v-.449c-.716-.716-.837-1.395-.364-2.026l.316.315c.036-.121.121-.231.279-.315.231.231.328.716.267 1.444v.316l.4-.133.279-.097c.231-.085.425-.121.582-.085l.049.352.036.364c-.57.036-.995.109-1.298.231.267.206.437.607.497 1.177.061.655-.17 1.056-.679 1.213m31.18-5.096c-.061-.279-.012-.801.133-1.589h.412l.036.049.049.097.097.133c-.061.121-.158.376-.279.764-.121.388-.231.631-.315.716l-.036-.085-.097-.085m-24.594-2.888l-.449-.146-.049-.267-.049-.133v-.133l-.315.036-.316.049c.158-.206.303-.4.449-.582.085.328.57.728 1.444 1.177h-.716"/><path d="m97.37 113.52c1.662-1.478 4.864-2.401 6.957-1.354-.597 2.481-5.372 2.404-6.957 1.354"/></g></g></g></svg>