<svg xmlns="http://www.w3.org/2000/svg" width="300" height="393" viewBox="0 0 84.666667 110.91334" fill-rule="evenodd"><path d="m62.58 53.21c.828 0 1.5.672 1.5 1.5v1.5c0 .828-.672 1.5-1.5 1.5h-1.5v-4.5h1.5m0 6c1.657 0 3-1.343 3-3v-1.5c0-1.657-1.343-3-3-3h-3v7.5h3m-6-7.5h1.5v7.5h-1.5v-7.5m-3 0h1.5v7.5h-1.5l-3-4.709v4.709h-1.5v-7.5h1.5l3 4.709v-4.709m-22.5 0h4.5v1.5h-3v1.5h3v1.5h-3v1.5h3v1.5h-4.5v-7.5m-6 0h1.5v6h3v1.5h-4.5v-7.5m15.75 6h1.5c1.242 0 2.25-1.01 2.25-2.25 0-1.242-1.027-2.245-2.25-2.25h-1.5v1.5h1.5c.414 0 .75.336.75.75 0 .414-.336.75-.75.75h-1.5v1.5m1.5-7.5c2.899 0 5.25 2.351 5.25 5.25 0 2.899-2.351 5.25-5.25 5.25-2.899 0-5.25-2.351-5.25-5.25 0-2.899 2.351-5.25 5.25-5.25m0 1.5c2.071 0 3.75 1.68 3.75 3.75 0 2.071-1.68 3.75-3.75 3.75-2.071 0-3.75-1.679-3.75-3.75 0-2.07 1.679-3.75 3.75-3.75" fill="#a90000"/><g fill-rule="nonzero"><path d="m42.33 110.91c-11.883-5.545-42.32-21.43-42.33-48.976h-.003v-.015-61.923h84.67v61.923.015h-.002c-.011 27.546-30.449 43.43-42.33 48.976"/><path d="m42.08 109.38c-12.259-5.815-40.776-21.356-40.786-47.44h.003v-.015-60.62h22.422v20.993l2.279 1.917v-22.911h2.436v24.829l2.279 1.729v-26.557h2.436v28.371l2.278 1.76v-30.13h2.437v32.22l2.278 2.244v-34.462h1.939v38.928c-.387-.64-.817-1.249-1.283-1.83-.642-.8-1.356-1.552-2.117-2.263-2.185-2.047-4.595-3.83-6.993-5.615l-.62-.462c-2.473-1.843-5-3.62-7.346-5.627v8.885c-.004 3 .454 5.945 2.091 8.567 1.285 2.058 3.201 3.614 5.09 5.091 2.355 1.84 4.841 3.508 7.155 5.4 1.465 1.198 2.797 2.425 4.02 3.832v2.064c-.387-.64-.817-1.249-1.283-1.829-.642-.8-1.356-1.552-2.117-2.263-2.185-2.047-4.595-3.83-6.993-5.615-.207-.154-.413-.308-.62-.462-2.473-1.843-5-3.62-7.346-5.627 0 2.962 0 5.924 0 8.885-.004 3 .454 5.945 2.091 8.567 1.285 2.058 3.201 3.614 5.09 5.091 2.355 1.84 4.841 3.508 7.155 5.4 1.465 1.198 2.797 2.425 4.02 3.832v2.064c-.387-.64-.817-1.249-1.283-1.83-.642-.8-1.356-1.552-2.117-2.263-2.185-2.047-4.595-3.83-6.993-5.615l-.62-.462c-2.473-1.843-5-3.62-7.346-5.627v8.885c-.004 3 .454 5.945 2.091 8.567 1.285 2.058 3.201 3.614 5.09 5.091 2.355 1.84 4.841 3.508 7.155 5.4 1.465 1.198 2.797 2.425 4.02 3.832v17.09" fill="#1599d3"/><path d="m76.77 82.74c2.565-3.856 4.562-8.101 5.659-12.745l-39.845 30.436v8.423l34.19-26.11m6.596-23.13v-8.423l-40.783 31.15v8.423l40.783-31.15m0-18.1v-8.423l-40.783 31.15v8.423l40.783-31.15m0-18.1v-8.423l-40.783 31.15v8.423l40.783-31.15m0-18.1v-4.01h-5.774l-35.01 26.741v8.423l40.783-31.15m-18.438-4.01h-11.03l-11.317 8.645v8.424l22.345-17.07" fill="#fff"/><path d="m42.913 109.23c8.356-3.988 23.748-12.295 32.948-25.17l-32.948 25.17m39.683-39.985c.498-2.335.771-4.768.772-7.302h-.002v-.015-1.695l-40.783 31.15v8.423l40.01-30.564m.768-18.683v-8.424l-40.783 31.15v8.424l40.783-31.15m0-18.1v-8.423l-40.783 31.15v8.423l40.783-31.15m0-18.1v-8.423l-40.783 31.15v8.423l40.783-31.15m-6.592-13.06h-11.03l-23.16 17.693v8.423l34.19-26.12m-23.692 0h-10.499v8.02l10.499-8.02" fill="#dd232d"/><path d="m38.37 1.301h1.283v33.28l-1.283-1.264v-32.01m-4.715 0h1.283v29.12l-1.283-.991v-28.13m-4.715 0h1.282v25.557l-1.282-.973v-24.584m-4.715 0h1.282v21.844l-1.282-1.079v-20.765m17.863 54.19c-2.29-2.572-5.01-4.566-7.75-6.568-2.095-1.533-4.197-3.071-6.108-4.876-2.802-2.645-4.01-6.192-4.01-10.01v-.004-8.518c2.117 1.814 4.318 3.281 6.553 4.946l.622.462c2.516 1.872 4.832 3.595 6.949 5.578 1.482 1.385 2.79 2.938 3.739 4.741v14.25m0 18.04c-2.29-2.573-5.01-4.566-7.75-6.568-2.095-1.533-4.197-3.071-6.108-4.876-2.802-2.645-4.01-6.192-4.01-10.01.0001-.0001.0001-.002.0001-.004 0-2.839 0-5.679 0-8.518 2.117 1.814 4.318 3.281 6.553 4.946.208.154.415.308.622.462 2.516 1.872 4.832 3.595 6.949 5.578 1.482 1.385 2.79 2.938 3.739 4.741 0 4.75 0 9.5 0 14.25m0 18.04c-2.29-2.573-5.01-4.566-7.75-6.568-2.095-1.533-4.197-3.071-6.108-4.876-2.802-2.645-4.01-6.192-4.01-10.01v-.004-8.518c2.117 1.814 4.318 3.281 6.553 4.946l.622.462c2.516 1.872 4.832 3.595 6.949 5.578 1.482 1.385 2.79 2.938 3.739 4.741v14.25" fill="#f8e73d"/></g></svg>