<svg xmlns="http://www.w3.org/2000/svg" viewBox="0 0 350 420" xmlns:xlink="http://www.w3.org/1999/xlink"><defs><rect id="0" width=".275" rx=".069" height=".275"/></defs><g transform="translate(-200-322.36)"><g fill-rule="evenodd"><path d="m446.75 524.39c2.935 0 5.315 2.38 5.315 5.315v5.314c0 2.935-2.38 5.315-5.315 5.315h-5.315v-15.944h5.315m0 21.259c5.87 0 10.63-4.76 10.63-10.63v-5.314c0-5.87-4.76-10.63-10.63-10.63h-10.63v26.574h10.63m-21.26-26.574h5.315v26.574h-5.315v-26.574m-10.63 0h5.315v26.574h-5.315l-10.63-16.684v16.684h-5.315v-26.574h5.315l10.63 16.684v-16.684m-79.72 0h15.945v5.315h-10.63v5.315h10.63v5.315h-10.63v5.315h10.63v5.315h-15.945v-26.574m-21.26-.0001h5.315v21.26h10.63v5.315h-15.945v-26.575m55.809 21.26h5.313c4.402 0 7.972-3.57 7.972-7.972s-3.637-7.957-7.972-7.972h-5.313v5.315h5.313c1.467 0 2.658 1.19 2.658 2.658s-1.19 2.658-2.658 2.658h-5.313v5.315m5.31-26.58c10.272 0 18.602 8.33 18.602 18.602s-8.33 18.602-18.602 18.602-18.602-8.33-18.602-18.602 8.33-18.602 18.602-18.602m0 5.315c7.337 0 13.287 5.95 13.287 13.287 0 7.337-5.95 13.287-13.287 13.287-7.337 0-13.287-5.95-13.287-13.287 0-7.337 5.95-13.287 13.287-13.287" fill="#a90000"/><path d="m200 598.32c.411 3.513.936 6.994 1.589 10.436 14.393 75.888 86.57 133.61 173.41 133.61 86.84 0 159.02-57.716 173.41-133.6.653-3.443 1.178-6.926 1.59-10.441v-275.96h-350v275.96z"/><path d="m537.37 638.5c5.383-12.731 9.03-26.25 10.684-40.32v-273.88h-346.1v273.88c1.655 14.07 5.302 27.593 10.686 40.33 25.21 59.62 88.41 101.91 162.36 101.91 73.958 0 137.16-42.29 162.37-101.92z" fill="#3c82c2"/><path d="m472.05 442.95c17.17 9.876 30.904 44.742 36.31 71.53 4.477 22.2 8.07 46.04 12.07 66.29-6.5 1.958-15.848-.385-25.418-2.113-.315-31.354-7.27-57.08-15.471-80.21-6.209-17.514-15.296-31.02-26.903-45.619l-3.147-13.353c7.38-1.074 14.859.086 22.558 3.476zm-182.33 28.71c-15.03 32.469-27.24 65.68-33.66 100.95-10.616.514-21.07 1.666-27.883-1.093 6.901-19.596 13.814-42.812 21.479-64.28 9.25-25.914 18.81-50.06 27.14-65.766l3.867-3.268 7.627 11.02 3.569 17.403-2.137 5.03z" stroke="#000" fill="#ffe600"/><g transform="matrix(3.67906 0 0 3.68404-7.06 30.561)" stroke-width=".272"><path d="m77.52 108.65c.017-.323-.143-.792-.168-1.028-.05-.464.329-.737.551-.331.275.504.534.998.875 1.431.251.32.334.814.395 1.519.092 1.055.642.827 1.206.487l.414.351-1.21 2.344-.582-.201c-.19-.556-.528-.967-.925-1.323-.286-.229-.649-.398-1.143-.359-1.04-.033-1.607-.679-2.221-1.197-.318-.284-.669-.396-.786-.816-.232-.839-.163-1.626-.071-2.459.033-.296.1-.864.58-.508.511.855 1.064 1.133 1.478 1.378.491.294 1.039.182 1.607.71" fill="#fc9"/><path d="m75.36 109.98c-.622-.328-1.048-.692-1.572-1.283m1.759.55c-.554-.273-1.225-.837-1.78-1.448m1.924.813c-.519-.366-1.275-.887-1.795-1.725m5.109 6.329c-.19-.556-.528-.967-.925-1.323-.286-.229-.649-.398-1.143-.359-1.04-.033-1.607-.679-2.221-1.197-.318-.284-.669-.396-.786-.816-.232-.839-.163-1.626-.071-2.459.033-.296.1-.864.58-.508.511.855 1.064 1.133 1.478 1.378.491.294 1.039.182 1.607.71m2.858 2.079c-.564.34-1.114.569-1.206-.487-.061-.705-.144-1.2-.395-1.519-.341-.433-.6-.927-.875-1.431-.222-.406-.601-.133-.551.331.026.236.086.476.145.724.118.495-.275.779.143 1.601" stroke="#000" stroke-linecap="round" fill="none"/></g><g stroke-width=".272" transform="matrix(3.67906 0 0 3.68404-7.06 30.561)"><path d="m128.05 110.21c-.133-.515.205-1.057.289-1.615.059-.392-.318-.54-.525-.255-.388.534-.735 1.196-1.108 1.885-.29.535-.636 1.106-.939 1.595-.384.621-.682.749-1.076.689l-.593-.092.316 2 .618.051c.481-.332.962-.663 1.444-.995.554.0001 1.107-.002 1.661-.233.728-.303 1.396-.81 2.04-1.247.206-.272.448-.538.678-.806.421-.49.682-.857.729-1.428.03-.366.044-.896-.278-1.337-.568-.272-1.148.049-1.785.865-.526.646-1.016.953-1.47.918" fill="#fc9"/><g stroke="#000"><path d="m124.7 112.51c.394.06.692-.068 1.076-.689.303-.489.649-1.06.939-1.595.374-.689.72-1.352 1.108-1.885.207-.285.584-.137.525.255-.084.559-.422 1.078-.289 1.592.192.739-.035 1.267-.42 1.786m-2.598 2.5c.481-.332.962-.663 1.444-.995.554.0001 1.107-.002 1.661-.233.728-.303 1.396-.81 2.04-1.247.206-.272.448-.538.678-.806.421-.49.682-.857.729-1.428.03-.366.044-.896-.278-1.337-.568-.272-1.148.049-1.785.865-.526.646-1.016.953-1.47.918m1.68-.166l1.481-1.642m-1.277 2.235l1.609-1.667m-1.398 2.227l1.418-1.421" stroke-linecap="round" fill="none"/><ellipse cx="102.27" cy="95.62" rx="10.66" ry="13.33" fill="#ffe600"/></g></g></g><g stroke="#000"><ellipse cx="102.27" cy="95.62" rx="9.783" ry="12.214" transform="matrix(3.67906 0 0 3.68404-7.06 30.561)" stroke-width=".272" fill="none"/><g fill-rule="evenodd"><g stroke-width="1"><path d="m372.85 353.98c.301-2.065-2.969-3.462-1.721-6.785 5.221-.021 8.205 1.138 7.918 4.02-.089 1.483-.518 2.515-1.291 3.099-.633.616-.948 1.342-.43 2.178.577 1.509-.429 3.212-1.635 4.942l1.381 1.026 2.204-1.613c.317-.725.891-1.535 1.205-2.262 1.207-1.059 1.608-2.456 1.206-4.188-.255-.974-.286-1.954-.086-2.932-.129-6.209-4.139-7.417-9.553-6.701-1.921-.36-2.465-1.087-1.635-2.345 4.707-.242 9.04.329 12.823 2.095 3.601 2.682 3.257 5.892 1.12 7.287v2.681c.916 1.256 1.405 2.596 1.635 3.853l.636 3.255-4.529 3.609-23.513-.062-3.47-2.531c-.961-2.903-2.853-5.192-1.463-8.46v-2.428c-2.138-1.396-2.481-4.606 1.118-7.288 3.787-1.766 8.116-2.337 12.824-2.095.831 1.258.286 1.985-1.635 2.346-5.414-.717-9.424.491-9.553 6.7.199.978.083 1.957-.173 2.932-.403 1.733-.002 3.128 1.206 4.188.314.726.631 1.452.946 2.178l1.442 1.407 2.088-.653c-1.034-1.731-1.867-3.433-1.291-4.942.518-.836.461-1.561-.172-2.178-.773-.584-1.202-1.616-1.291-3.099-.286-2.883 2.696-4.04 7.918-4.02 1.248 3.323-2.02 4.72-1.721 6.785l3.892 2.086 3.604-2.086z" fill="#df212c"/><g fill="#ffe600"><path d="m383.75 374.17c.784-6.383 2.995-11.825 8.07-15.802l-5.664-.723c-.372 2.217-1.376 4.927-3.759 5.456-2.808.623-3.296-2.182-3.486-4.882-2.141 2.082-4.455 5.109-6.604 3.794-1.592-.974-.596-5.234 1.064-7.381l-4.087-6.132-4.213 6.158c1.371 2.798 2.548 5.648 1.06 7.239-2.656 2.837-5.268-2.277-7.647-3.624.33 3.253-.869 5.219-2.809 4.576-1.327-.44-2.963-2.996-4.776-4.792l-4.745.76c3.986 3.405 7.69 7.358 9.06 15.08l28.538.275z"/><path d="m389.31 410.68c4.048-13.932-.555-32.18-6.636-38.07-4.88-4.721-12.256-5.154-18.506-3.914-9.325 1.849-13.224 9.663-14.164 19.12-.978 9.839 1.166 21.511 5.931 28.775 11.432 17.391 27.64 10.732 33.375-5.916z"/><path d="m453.08 639.58c13.572-18.622 13.373-26.26 16.395-34.383 2.725-7.322 9.372-15.822 7.345-41.08l-199.88.527c-2.534 6.649-1.826 22.648 1.39 27.366l16.561 25.07c1.206 13.68 9.06 25.14 18.402 31l139.79-8.5z"/><path d="m452.35 453.63c9.355 15.516 14.11 31.21 18.299 47.11 4.991 18.936 7.681 39.27 12.778 57.56-12.04 10.647-25.902 21.632-17.794 32.707 6.881 9.398 6.231 17.269-6.868 25.805-5.623 3.664-7.375 12.04-9.365 20.1l-133.83 14.74c-3.377-2.451-3.02-8.09-3.928-12.12-2.323-10.277-7.4-17.645-14.887-21.464-17.221-8.785-25.35-16.319-18.08-26.474 4.593-6.414 7.712-10.77 7.383-15.24-.452-6.125-5.861-11.08-16.717-15.363 5.24-29.967 12.893-59.49 20.697-88.82l30.485-28.997c4.503-2.865 9.192-6.541 12.745-10.514 4.884-5.462 10.834-7.02 17.245-10.516 1.055-.576 2.125-1.01 3.243-1.465l8.424-.749 5.01-.626c2.226 3.497 9.507 2.65 13.744-1.18l7.463-1.078c3.178-.36 7.134 1.872 11.648 3.921 4.846 2.197 9.105 5.235 13.487 8.194 5.312 3.587 10.735 7.298 16.05 11.04l22.775 13.429z"/></g><path d="m445.57 634.5c.644-9.252 3.2-17.654 11.146-22.06 8.74-4.844 10.738-10.701 5.464-18.907-11.828-18.403 6.399-25.854 16.611-35.923-4.515-18.323-7.794-36.645-12.327-54.967-3.567-14.422-8.156-31.787-16.474-44.19l-65.57.519c-3.937-3.194-7.638-5.865-10.148-6.443l-2.927-1.59-2.325 1.387c-1.634 2.952-4.377 4.917-7.905 6.646l-68.7 17.376c-7 26.36-13.523 53.798-18.612 83.9 9.485 1.966 18.1 8.758 18.18 16.06.063 6.087-6.641 10.909-9.671 15.867-5.26 8.606.521 14.833 12.374 19.742 9.382 4.065 17.556 12.553 19.905 23.696.677 3.209.222 7.799 1.805 10.09l129.18-11.199z" fill="#df212c"/></g><path d="m346.29 631.21c-19.966-1.782-31.522 4.517-30.789 22.631-14.319 11.357-12.508 23.625-3.364 36.31-.517 13.1 5.175 20.89 17.08 23.377 11.385 14.184 23.803 10.856 34.67 6.715 11.47 11.692 27.684 13.35 43.21-5.471 15.637 2.676 31.531 3.541 38.81-20.393 36.926-22.316 11.965-71.77-26.13-64.66-24.494.497-48.987.995-73.48 1.492z" stroke-width="1.2" fill="#fff"/><g stroke-width="1"><path d="m371.93 685.51c-.825 5.63-2.955 11.09-9.907 14.06-4.101 1.75-6.382-.471-5.661-3.854.617-2.892 1.338-5.745 1.415-8.616-.755-11.804 12.09-11.08 14.15-1.587zm41.04-2.494c.826 4.233 3.22 7.37 3.774 10.656.931 5.519-3.802 8.05-9.435 4.534-6.449-4.03-9-9.844-12.03-14.964-2.233-7.486 11.482-11.32 17.691-.227z" fill="#ffe600"/><path d="m411.8 595.28c2.476 8.426 3.696 18.17 6.841 28.794 5.082 17.17 14.702 30.17 27.834 41.491-1.715 2.826-1.971 5.793-9.671 7.03-4.01.643-7.863 2.267-11.794 3.854-3.46 2.418-6.723 4.559-8.492 7.255-6.762-1.285-13.524-1.808-20.286-.68-3.227.538-6.14.687-6.841-1.814-4.484.227-8.414-.075-12.266-.454-2.041 3.03-4.404 5.638-8.964 4.988-2.6-.371-5.11-1.168-7.784.226-2.444 1.275-5.03 1.897-7.548 0-5.426-1.512-9.278-4.837-11.558-9.976 8.768-15.982 6.964-45.822-.944-72.1-1.724-5.729-3.42-9.901-2.831-15.191l43.698-8.02 30.606 14.597z" fill="#3c82c2"/><g fill="#ffe600"><path d="m436.48 655.82c3.052 3.409 6.39 6.642 9.992 9.746-1.715 2.826-1.971 5.793-9.671 7.03-4.01.643-7.863 2.267-11.794 3.854-3.46 2.418-6.723 4.559-8.492 7.255-6.762-1.285-13.524-1.808-20.286-.68-3.227.538-6.14.687-6.841-1.814-4.484.227-8.414-.075-12.266-.453-2.041 3.03-4.404 5.638-8.964 4.988-2.6-.371-5.11-1.168-7.784.226-2.444 1.275-5.03 1.897-7.548 0-5.426-1.512-9.278-4.837-11.558-9.976 1.49-2.715 2.674-5.832 3.575-9.261 4.211 3.942 8.092 9.301 13.644 7.447 6.565-.643 12.305-.567 16.984 1.814 1.336-.529 2.359-1.663 3.067-3.401 4.885 2.127 10.41-5.351 15.332 1.36 7.155.831 10.263-3.03 14.62-3.562 1.277 3.807 3.563 4.727 5.414 6.807 1.235-1.947 4.457-4.12 7.254-5.257-.764-2.274-1.322-4.747-1.671-7.42 3.672-6.924 13.09-4 16.993-8.703z"/><path d="m451.08 441.43l2.025 11.09-2.961 4.254.158 1.215-.158 14.13c-5.222 9.809-9.691 15.608-16.183 17.865-8.09 2.81-17.561-.404-28.695-7.839l-4.565-1.627-1.086 4.627c2.441 11.239 5.192 22.406 8.287 33.485 3.54 12.671 6.808 26.392 11.642 38.646 3.269 8.288 7.784 15.977 13.397 23.14-2.969 5.912-7.684 9.415-13.599 11.268-20.853 10.649-41.2 12.591-41.588-2.284-12.653-3.144-4.587 6.804-12.808 6.547-8.909-.609-14.02-5.482-21.03-5.939-12.655-1.583-17.923-6.188-18.468-18.54-.51-11.536 4.01-25.14 8.02-38.38 5.806-19.13 14.323-40.575 13.153-47.573l-2.397-4.464-5.536.483c-19.466 8.988-33.893 11.717-44.11-2.119-4.876-6.603-8.03-13.147-8.475-19.702-.307-4.464-.457-9.398-2.607-12.08 3.697-2.368 5.942-5.263 4.998-9.322l.41-.115 13.831 2.781c49.49 32.985 92.67 29.461 131.55-.033l14.916-.96 1.876 1.439z"/></g><path d="m433.94 477.13l16.513-19.14-4.05-15.648c-4.491 1.777-8.729 3.43-12.758 4.963l-.176 10.532.471 19.288zm-128.86-31.07c-2.406-.846-4.877-1.72-7.436-2.629-3.398 4.094-7.582 7.738-11.572 11.37 1.388 2.832 5.672 10.811 10.612 13.844 4.069 2.497 8.957 3.971 14.525 4.594-.0001-5.236-.767-11.05-2.543-17.472l-3.584-9.706z" fill="#3c82c2"/><path d="m288.46 438.57c3.327-.879 7.239 2.708 10.591 6.526 4.203 4.788 8.575 9.456 12.918 14.13 4.883 5.25 10.9 11.47 17.586 16.492 38.739 29.1 80.905 14.13 107.55-22.613 2.023-2.791 3.641-6.83 6.16-8.98 2.865-2.445 6.676-2.605 13.422-3.047l1.304-2.33c-12.83-.605-21.646-.229-28.309 1.382-6.881 1.664-13.901 5.137-20.437 7.972-11.712 5.087-22.322 11.986-33.782 12.542-14.496.703-29.31-7.712-42.36-13.211-3.549-1.495-7.152-3.055-10.157-3.914-3.56-1.015-6.745-.217-10.333-.509-2.842-.231-5.233-1.344-7.171-2.78-2.779-2.059-5.846-3.311-8.257-2.953l-8.723 1.296z" fill="#ffe600"/><g fill="#3c82c2"><path d="m310.24 444.62c2.219 4.32 4.267 8.575 6.927 12.404 11.856 17.06 33.654 30.09 55.07 30.419 24.726.382 44.26-16.345 57.14-35.28l6.921-9.623c-9.901 3.02-19.805 7.4-29.704 12.625-11.269 5.943-21.1 11.06-34.517 10.308-11.303-.637-20.333-5.266-30.25-9.904-11.771-5.505-22.909-10.361-31.592-10.945z"/><path d="m274.64 455.41c-2.891 17.907-4.101 35.27-4.842 52.48-5.52 24.481-11.09 35.809-14.542 48.04h-16.696c11.13-35.557 22.791-70.823 36.07-100.52l.007.002z"/><path d="m467.79 445.87c7.509 10.546 14.355 31.736 14.385 50.971 7.115 16.11 14.22 48.671 15.497 62.51 5.05.638 10.1 1.277 15.14 1.915-2.643-20.667-6.925-46.679-13.826-68.754-5.246-16.782-16.04-37.79-30.03-47.45l-1.171.811z"/></g></g></g><g stroke-width="1"><g fill="none"><path d="m515.1 570.99c.437 3.518.875 7.04 1.312 10.554m-5.073-10.693c.351 3.525.702 7.05 1.053 10.576m-5-10.853c.271 3.484.542 6.968.813 10.452m-4.974-11.08c.215 3.495.43 6.989.646 10.484m-4.807-11.11c.175 3.35.351 6.701.526 10.05"/><path d="m252.78 563.26l-.91 9.462m-3.715-9.166l-1.061 9.609m-3.03-9.757l-1.442 9.905m-2.729-10.126l-1.971 10.126m-2.199-10.569l-2.654 10.126"/></g><g fill="#ffe600" fill-rule="evenodd"><path d="m370.16 471.84c.092 1.01-.773 1.614-1.668 1.162-1.241-.627-2.158-1.743-3.335-2.478-.817-.509-1.532-.12-1.668.929-.289 2.233-.164 4.499.159 6.737.18 1.253.809 1.488 1.748.93.838-.5 1.737-.901 2.621-1.317.705-.332 1.322.004 1.191.93-.166 1.179-.68 2.367-1.429 3.407-.643.893-.579 1.213.476 1.703 1.814.841 3.464.963 5.243.62.96-.185 1.558-.68 1.43-1.549-.212-1.427-.652-2.843-.636-4.259.007-.907.536-1.288 1.192-.851.866.577 1.569 1.342 2.381 1.779 1.148.619 1.864.259 1.907-1.01.074-2.181-.026-4.235-.319-6.195-.193-1.291-.46-1.621-1.668-1.162-.996.378-1.921.894-3.02 1.627-.843.564-1.265.102-.953-.774.458-1.287.855-2.598 1.351-3.872.219-.559-.015-.81-.795-1.01-1.369-.347-2.689-.403-4.05-.31-.925.062-1.366.32-1.191 1.085.298 1.301.91 2.545 1.032 3.872z"/><path d="m257.82 515.34c-.481-1.549-.812-3.359-.907-4.918-.051-.842.386-1.224 1.564-.98 1.765.366 3.499.677 5.247 1.742.857.522 1.087 1.358.335 2.231-.821.953-1.657 1.911-2.554 2.795-.706.696-1.094 1.543.335 1.524 1.277-.017 2.297-.586 3.56-.781.837-.13 1.099.134.948.87-.384 1.884-.747 3.944-1.62 6.096-.295.732-.648.621-1.171.109-.6-.588-1.367-1.2-1.912-1.597-.572-.417-.875-.285-.783.435.193 1.494.628 3.217.908 4.699.142.749-.253.964-1.285.926-1.798-.068-3.504-.458-5.135-1.197-1.219-.554-1.039-1.461-.335-2.504.551-.815 1.014-1.774 1.773-2.522.642-.634.34-1.145-.727-1.198-1.114-.055-2 .36-3.113.672-.823.231-1.319-.144-1.339-1.197-.039-2.048.145-4.092.559-6.15.163-.808.572-.931 1.451-.49 1.054.529 2.271 1.5 3.475 2.251.673.42.971-.025.726-.816z"/><path d="m499.85 517.83c.614-1.482 1.295-3.033 1.56-4.57.144-.831-.209-1.26-1.306-1.152-1.643.161-3.252.271-4.96 1.128-.838.42-1.142 1.224-.561 2.177.635 1.04 1.113 1.879 1.825 2.859.56.771.813 1.658-.48 1.475-1.156-.164-1.846-.637-2.968-.976-.745-.225-1.012.008-.961.755.131 1.914.223 4 .766 6.238.184.76.516.691 1.05.242.612-.514 1.549-.688 2.089-1.02.567-.348.827-.182.659.522-.346 1.461-1.111 2.776-1.536 4.216-.215.728.118.986 1.059 1.066 1.638.139 3.231-.052 4.795-.6 1.17-.41 1.111-1.332.593-2.448-.405-.873-.545-1.532-1.147-2.361-.51-.703-.177-1.175.797-1.105 1.017.073 1.602.24 2.575.678.72.324 1.213.008 1.353-1.034.272-2.029.34-4.079.202-6.17-.054-.821-.411-.99-1.259-.652-1.017.404-2.403 1.02-3.582 1.628-.659.341-.878-.138-.565-.894z"/></g></g><g fill="none"><g stroke-width=".272" transform="matrix(3.67906 0 0 3.68404-7.06 30.561)"><path d="m96.7 86.04l-.38 1.954.36.536-1.38.08.27 1.36-1.06.14.67 1.71-1.37.52 1.18 1.18-1.64.82 1.4 1.14-1.23 1.07 1.6.69-1.32 1.45 1.84.86-1.45 1.65 1.85.22-.58 1.92 2.33-.32"/><path d="m108.16 86.61l-.39 1.78 1.1.1-.11 1.13 1.04.001-.69 1.45 1.26-.19-.68 1.79 1.44.41-.71 1.37 1.24.88-1.31 1.08.96 1.45-1.91.55 1.55 1.61-1.79.39.7 1.57-1.85-.06"/></g><g stroke-width="1"><path d="m450.15 471.51c2.5 10.768 2.891 23.05 2.792 34.22-.25 27.953-2.992 61.993 5.44 75.66m-162.65-100.69c1.617 33.18 2.544 69.56-3.875 97.55"/><path d="m438.69 662.61c-5.897 6.05-12.738-.832-17.691 9.296"/><path d="m387.42 490.16c6.799 10.769 10.486 27.12 12.582 42.555.78 5.747 1.721 11.556 2.733 17.344 2.645 15.264 4.03 30.08 16.452 41.649m-45.87-100.62c.232 10.1.1 20.19.19 30.29.206 22.826 1.492 45.31 4.218 68.01m-11.652-98.67c-1.623 18.644-2.38 37.29-1.906 55.936.414 16.413-.905 32.824.622 49.24m-9.582-107.22c-1.792 6.33-4.175 12.489-5.853 18.843-6.297 23.85-8.752 57.56-5.366 82.43"/><path d="m433.47 457.84l.78 31.902m-125.58-33.982c3.768 13.62 2.991 24.523 0 32.929"/><path d="m358.49 640.17c1.824 19.363 2.384 37.36-5.897 45.799m37.03-43.532c1.08 10.505 1.824 21.01 4.246 31.515-1.256 3.253-3.066 5.443-4.954 7.482m-15.1-42.4c4.563 6.512 5.191 19.17 4.718 33.556m-3.067 3.401c.865 1.133 1.415 2.871 1.651 5.215m32.32-48.29c2.353 10.814 8.631 20.758 10.05 31.605m1.671 7.42c2.072 1.123 3.039 2.776 3.848 4.506m-11.06.736c1.187 1.333 2.177 3.148 2.567 6.519m-14.39-48.53c1.885 16.271 5.186 23.02 6.364 35.21"/></g></g></g><g fill-rule="evenodd" transform="matrix(3.67906 0 0 3.68404-7.06 30.561)" stroke-width=".272"><path d="m105.46 105.2c.077-.35.131-.703.158-1.056.093-1.249.0001-2.484-.188-3.708-.269 1.466-1.169 2.403-2.521 2.942-.183.073-.386.066-.568-.025-.287-.144-.548-.325-.787-.535.216.807.193 1.847.07 2.706l-.0001.007.104-.013c.605.948 2.582.72 3.734-.318m-1.226-10.1c.429 1.766.918 3.541 1.196 5.34-.269 1.466-1.169 2.403-2.521 2.941-.183.073-.386.066-.568-.025-1.124-.562-1.875-1.766-2.453-2.828-.125-.231-.15-.404-.201-.662-.028-.141-.062-.283-.1-.424-.078-.284-.044-.352.004-.64.086-.522.004-1.069-.115-1.603-.1-.449-.068-.955-.026-1.382v-.038c1.56-.525 3.209-.832 4.784-.679" fill="#fc9"/><g fill="none" stroke="#000"><path d="m101.54 102.77c.231.814.209 1.879.084 2.756.605.949 2.687.713 3.838-.326m-.023-4.811c-.257 1.494-1.163 2.446-2.53 2.99-.183.073-.386.066-.568-.025-1.098-.549-1.809-1.644-2.453-2.828-.125-.231-.15-.404-.201-.662-.028-.141-.062-.283-.1-.424-.078-.284-.044-.352.004-.64.086-.522.004-1.069-.115-1.603-.1-.449-.068-.955-.026-1.382m-.33.079c1.685-.59 3.397-.96 5.112-.805"/><path d="m101.36 101.21c.255-.097.326-.16.508-.074.188.089.228.088.358-.048.091-.095.171-.059.306-.061.197-.003.462-.04.7-.088.248-.05.203-.034.066.144-.205.268-.496.582-.862.695-.633.195-.929-.183-1.077-.568zm.483-4.441c.585-.511 1.446-.527 2.581-.1m-4.878.503c.372-.179.755-.328 1.161-.402.189-.034.403.106.491.4.294.992-.179 2.425-.126 2.643.086.356.718.392 1.171.163"/></g><path d="m100.71 97.83c.011.032.019.067.019.104.0001.175-.139.302-.31.302-.171 0-.31-.135-.31-.302 0-.013.002-.027.004-.04-.13.056-.258.141-.383.251l-.037-.266c.429-.288 1.051-.318 1.443-.073v.2c-.145-.088-.287-.147-.426-.175m-.899.496c.454.091.964.116 1.25-.164.041.404-.558.456-1.083.339l-.168-.175m3.477-.782c.025.044.041.095.041.149 0 .167-.139.301-.31.301-.171 0-.309-.135-.309-.301 0-.042.009-.083.025-.119-.187.042-.367.119-.531.237l-.24-.164c.169-.489.881-.71 1.164-.673-.268.112-.735.327-.822.515.448-.248 1.324-.353 1.817.295l-.165-.064c.016.062-.007.131-.059.198-.357.463-1.432.482-1.784.008.613.251 1.136.279 1.796-.226-.203-.08-.413-.135-.622-.156"/></g><g fill-rule="evenodd"><g stroke="#000"><g fill="#df212c" stroke-width="1"><path d="m376.4 380.88c1.932.174 3.866.533 5.797 1.102 1.848.546 1.381 1.865.785 2.966-.355.655-.605 1.366-.982 2.01-1.063 1.813-.919 3.196.589 4.211.813.546 1.689 1.015 2.454 1.626 1.233.986 1.363 2.302.491 3.637-.567.867-.953 1.846-1.571 2.678-1.432 1.929-1.145 3.447.196 5.071 2.044 2.474 4.057 4.976 6.086 7.464-2.733 8.338-5.353 17.802-16.656 28.344l-2.846-1.627c4.999-6.971 10.117-15.492 10.755-24.12.841-11.377-2.447-22.424-5.098-33.36z"/><path d="m357.59 383.84c.464 3.515.709 7.104.655 10.863-.068 4.736-.177 9.916 1.053 15.511 1.797 8.175 6.084 18.203 11.964 28.319l-2.258 1.818c-4.271-3.288-11.555-12.856-15.273-19.622 1.67-3.2 3.231-5.99 4.359-8.89 1.603-4.119-.527-6.554-3.378-9.386-1-.995-1.157-2.03-.393-3.253.511-.817.937-1.687 1.473-2.489.808-1.212.708-2.01-.198-2.774-.579-.488-.983-1.146-1.471-1.722-2.028-2.391-1.906-6.339.49-7.272.989-.385 1.983-.755 2.977-1.103z"/></g><g transform="matrix(3.67906 0 0 3.68404-7.06 30.561)" fill="#ffe600"><ellipse cx="102.88" cy="112.95" rx=".743" ry=".722" stroke-width=".272"/><g stroke-width=".08"><circle transform="matrix(3.46112-.16789.17274 3.36408 102.81 111.51)" r=".214"/><circle transform="matrix(3.46112-.16789.17274 3.36408 102.95 114.39)" r=".214"/><circle transform="matrix(1.58097-2.99733 3.08379 1.53664 101.56 112.29)" r=".214"/><circle transform="matrix(1.58097-2.99733 3.08379 1.53664 104.2 113.61)" r=".214"/><circle transform="matrix(-1.88016-2.82943-2.91105 1.82744 104.13 112.17)" r=".214"/><circle transform="matrix(-1.88016-2.82943-2.91105 1.82744 101.63 113.73)" r=".214"/></g></g><g fill="#000"><path d="m257.8 563.19c-9.22.074-19.841.948-26.367-1.257l1.44-4.064c8.832 2.071 17.496 1.163 25.988 1.035l-1.061 4.286z"/><path d="m518.5 570.47c-6.173 1.441-15.392-.688-23.747-1.82l-.351-4.945c7.688 1.102 14.875 2.261 23.12 1.217l.973 5.547z"/></g></g><g transform="matrix(3.67906 0 0 3.68404-7.06 30.561)" fill="#ffe600" stroke-width=".101"><use transform="matrix(2.73109.02586-.02661 2.65451 71 143.62)" xlink:href="#0"/><use transform="matrix(2.59137.83857-.86276 2.51871 65.37 143.39)" xlink:href="#0"/><use transform="matrix(2.70071.39565-.40707 2.62499 66.4 143.57)" xlink:href="#0"/><use transform="matrix(2.72989.08273-.08512 2.65335 67.41 143.67)" xlink:href="#0"/><use transform="matrix(2.73006.07727-.0795 2.65352 68.51 143.71)" xlink:href="#0"/><use transform="matrix(2.73006.07727-.0795 2.65352 69.73 143.69)" xlink:href="#0"/></g><g transform="matrix(3.67906 0 0 3.68404-7.06 30.561)" fill="#ffe600" stroke-width=".106"><use transform="matrix(-2.48021-.28711-.28219 2.63857 137.34 145.12)" xlink:href="#0"/><use transform="matrix(-2.44726.53578.49191 2.59951 142.48 145.53)" xlink:href="#0"/><use transform="matrix(-2.49533.08351.06631 2.65283 141.52 145.6)" xlink:href="#0"/><use transform="matrix(-2.48569-.23052-.22899 2.64412 140.59 145.58)" xlink:href="#0"/><use transform="matrix(-2.48521-.23596-.2341 2.64364 139.59 145.5)" xlink:href="#0"/><use transform="matrix(-2.48521-.23596-.2341 2.64364 138.49 145.34)" xlink:href="#0"/></g></g></g></svg>