<svg xmlns="http://www.w3.org/2000/svg" xmlns:xlink="http://www.w3.org/1999/xlink" width="681.24" height="816.84" viewBox="0 0 19226.189 23053.102" fill-rule="evenodd"><defs><linearGradient x1="11662.8" y1="12631.5" x2="11805.4" y2="12713.9" id="X" xlink:href="#4" gradientUnits="userSpaceOnUse"/><linearGradient x1="9489.89" y1="11923" x2="10504.1" y2="12508.5" id="o" xlink:href="#4" gradientUnits="userSpaceOnUse"/><linearGradient x1="11685.6" y1="12487.9" x2="11828.1" y2="12570.1" id="Y" xlink:href="#4" gradientUnits="userSpaceOnUse"/><linearGradient x1="9642.65" y1="13741.1" x2="11434.8" y2="14775.8" id="a" xlink:href="#4" gradientUnits="userSpaceOnUse"/><linearGradient x1="7107.28" y1="5879.1" x2="8652.49" y2="5389.15" id="Z" gradientUnits="userSpaceOnUse"><stop stop-color="#fefefe"/><stop offset=".439" stop-color="#f0f0f0"/><stop offset=".871" stop-color="#e1e2e2"/><stop offset="1" stop-color="#e1e2e2"/></linearGradient><linearGradient x1="11644.1" y1="12341.9" x2="11786.6" y2="12424.2" id="W" xlink:href="#4" gradientUnits="userSpaceOnUse"/><linearGradient x1="11258" y1="12092.9" x2="11400.5" y2="12175.2" id="Q" xlink:href="#4" gradientUnits="userSpaceOnUse"/><linearGradient x1="11594.9" y1="12763.8" x2="11737.4" y2="12846.1" id="V" xlink:href="#4" gradientUnits="userSpaceOnUse"/><linearGradient x1="11383" y1="12987.3" x2="11525.5" y2="13069.6" id="R" xlink:href="#4" gradientUnits="userSpaceOnUse"/><linearGradient x1="11496.6" y1="12882.7" x2="11639" y2="12965" id="T" xlink:href="#4" gradientUnits="userSpaceOnUse"/><linearGradient x1="11549.7" y1="12218.6" x2="11692.3" y2="12300.9" id="U" xlink:href="#4" gradientUnits="userSpaceOnUse"/><linearGradient x1="11409.7" y1="12139.2" x2="11552.2" y2="12221.5" id="S" xlink:href="#4" gradientUnits="userSpaceOnUse"/><linearGradient x1="14820.4" y1="8822.42" x2="9806.04" y2="5222.36" id="b" gradientUnits="userSpaceOnUse"><stop stop-color="#c6c7c7"/><stop offset=".329" stop-color="#e3e3e3"/><stop offset=".651" stop-color="#fefefe"/><stop offset="1" stop-color="#fefefe"/></linearGradient><linearGradient x1="9661.89" y1="6688.55" x2="9915.98" y2="9314.32" id="k" xlink:href="#Z" gradientUnits="userSpaceOnUse"/><linearGradient x1="10429.9" y1="12083" x2="10984.6" y2="12403.3" id="c" xlink:href="#4" gradientUnits="userSpaceOnUse"/><linearGradient x1="7107.28" y1="5879.1" x2="8652.49" y2="5389.15" id="l" xlink:href="#Z" gradientUnits="userSpaceOnUse"/><linearGradient x1="14472.6" x2="15607.7" id="n" xlink:href="#2" gradientUnits="userSpaceOnUse"/><linearGradient x1="11557.1" x2="14455.9" id="m" xlink:href="#1" gradientUnits="userSpaceOnUse"/><linearGradient x1="5145.83" y1="11940.8" x2="3147.65" y2="11598.3" id="j" xlink:href="#1" gradientUnits="userSpaceOnUse"/><linearGradient x1="2389.66" x2="3154.63" id="d" xlink:href="#2" gradientUnits="userSpaceOnUse"/><linearGradient x1="13735.9" y1="19936.8" x2="12982.7" y2="19802.9" id="i" xlink:href="#2" gradientUnits="userSpaceOnUse"/><linearGradient x1="3757.36" y1="15279.9" x2="3008.52" y2="15337.5" id="e" xlink:href="#2" gradientUnits="userSpaceOnUse"/><linearGradient x1="6450.03" y1="5715.64" x2="8152.78" y2="8152.33" id="g" xlink:href="#Z" gradientUnits="userSpaceOnUse"/><linearGradient x1="10509.1" y1="12166.3" x2="10873.6" y2="12376.8" id="h" xlink:href="#4" gradientUnits="userSpaceOnUse"/><linearGradient x1="6690.14" y1="6241.06" x2="9255.06" y2="10634.9" id="f" gradientUnits="userSpaceOnUse"><stop stop-color="#fefefe"/><stop offset=".11" stop-color="#fefefe"/><stop offset=".239" stop-color="#f0f0f0"/><stop offset=".471" stop-color="#e1e2e2"/><stop offset=".929" stop-color="#fefefe"/><stop offset=".961" stop-color="#fefefe"/><stop offset="1" stop-color="#fefefe"/></linearGradient><linearGradient x1="11106" y1="12065.1" x2="11248.6" y2="12147.4" id="P" xlink:href="#4" gradientUnits="userSpaceOnUse"/><linearGradient x1="10518.8" y1="12517.4" x2="10598.1" y2="12563.2" id="7" xlink:href="#4" gradientUnits="userSpaceOnUse"/><linearGradient x1="10959.3" y1="12047.9" x2="11101.8" y2="12130.1" id="O" xlink:href="#4" gradientUnits="userSpaceOnUse"/><linearGradient x1="10527.5" y1="12425.5" x2="10632" y2="12485.8" id="8" xlink:href="#4" gradientUnits="userSpaceOnUse"/><linearGradient x1="10559.7" y1="12197.9" x2="10708.2" y2="12283.6" id="A" xlink:href="#4" gradientUnits="userSpaceOnUse"/><linearGradient x1="10542.6" y1="12323.9" x2="10665.4" y2="12394.8" id="9" xlink:href="#4" gradientUnits="userSpaceOnUse"/><linearGradient x1="10790.4" y1="12313.1" x2="11718.5" y2="12849" id="6" xlink:href="#4" gradientUnits="userSpaceOnUse"/><linearGradient x1="2845.85" x2="18953.4" id="0" gradientUnits="userSpaceOnUse"><stop stop-color="#fff"/><stop offset=".231" stop-color="#f0f0f0"/><stop offset=".471" stop-color="#e1e2e2"/><stop offset=".788" stop-color="#fefefe"/><stop offset="1" stop-color="#e1e2e2"/></linearGradient><linearGradient x1="9629.59" y1="12465.7" x2="11317.9" y2="13440.4" id="5" xlink:href="#4" gradientUnits="userSpaceOnUse"/><linearGradient x1="11557.1" x2="14455.9" id="1" gradientUnits="userSpaceOnUse"><stop stop-color="#e1e2e2"/><stop offset=".522" stop-color="#e1e2e2"/><stop offset=".929" stop-color="#fefefe"/><stop offset=".961" stop-color="#fefefe"/><stop offset="1" stop-color="#fefefe"/></linearGradient><linearGradient y1="4400.52" x2="0" y2="11693.5" id="3" gradientUnits="userSpaceOnUse"><stop stop-color="#fefefe"/><stop offset=".349" stop-color="#f0f0f0"/><stop offset=".69" stop-color="#e1e2e2"/><stop offset=".769" stop-color="#f0f0f0"/><stop offset=".98" stop-color="#fefefe"/><stop offset="1" stop-color="#fefefe"/></linearGradient><linearGradient x1="9489.89" y1="11923" x2="10504.1" y2="12508.5" id="4" gradientUnits="userSpaceOnUse"><stop stop-color="#fdc400"/><stop offset=".012" stop-color="#fdc400"/><stop offset=".31" stop-color="#ffd900"/><stop offset=".522" stop-color="#ffed00"/><stop offset="1" stop-color="#fdc400"/></linearGradient><linearGradient x1="14472.6" x2="15607.7" id="2" gradientUnits="userSpaceOnUse"><stop stop-color="#e1e2e2"/><stop offset=".161" stop-color="#e1e2e2"/><stop offset=".31" stop-color="#f0f0f0"/><stop offset=".51" stop-color="#fefefe"/><stop offset=".71" stop-color="#f0f0f0"/><stop offset=".82" stop-color="#e1e2e2"/><stop offset="1" stop-color="#e1e2e2"/></linearGradient><linearGradient x1="10572.1" y1="11707.7" x2="10896.5" y2="11895" id="B" xlink:href="#4" gradientUnits="userSpaceOnUse"/><linearGradient x1="9843.69" y1="11744.9" x2="9986.21" y2="11827.2" id="K" xlink:href="#4" gradientUnits="userSpaceOnUse"/><linearGradient x1="10584.8" y1="12040.6" x2="10758.4" y2="12140.8" id="C" xlink:href="#4" gradientUnits="userSpaceOnUse"/><linearGradient x1="9999.35" y1="11776" x2="10141.8" y2="11858.2" id="L" xlink:href="#4" gradientUnits="userSpaceOnUse"/><linearGradient x1="10283.7" y1="11877.7" x2="10426.2" y2="11960" id="N" xlink:href="#4" gradientUnits="userSpaceOnUse"/><linearGradient x1="10146.3" y1="11823.4" x2="10288.8" y2="11905.7" id="M" xlink:href="#4" gradientUnits="userSpaceOnUse"/><linearGradient x1="9682.8" y1="11748.4" x2="9825.31" y2="11830.7" id="J" xlink:href="#4" gradientUnits="userSpaceOnUse"/><linearGradient x1="9384.8" y1="12207.3" x2="9527.26" y2="12289.5" id="D" xlink:href="#4" gradientUnits="userSpaceOnUse"/><linearGradient x1="9541.36" y1="11812.4" x2="9683.87" y2="11894.7" id="I" xlink:href="#4" gradientUnits="userSpaceOnUse"/><linearGradient x1="9387.53" y1="12058.5" x2="9530.12" y2="12140.9" id="E" xlink:href="#4" gradientUnits="userSpaceOnUse"/><linearGradient x1="9435.6" y1="11921.2" x2="9578.11" y2="12003.5" id="G" xlink:href="#4" gradientUnits="userSpaceOnUse"/><linearGradient x1="9465.52" y1="12504.4" x2="9608.06" y2="12586.7" id="H" xlink:href="#4" gradientUnits="userSpaceOnUse"/><linearGradient x1="9415" y1="12358.5" x2="9557.53" y2="12440.8" id="F" xlink:href="#4" gradientUnits="userSpaceOnUse"/></defs><g transform="translate(-919.91-934.32)"><g stroke="#2b2a29" stroke-width="88.19"><path d="m20102 7610v-4633c0 0-3767-2038-9569-1998-5801-40-9569 1998-9569 1998v4633c0 0 1192 1045 1192 2453 0 1408-1192 2453-1192 2453v2316c47 6880 7184 6148 9569 9107 2385-2959 9522-2227 9569-9107v-2316c0 0-1192-1045-1192-2453 0-1408 1192-2453 1192-2453z" fill="#006cb5"/><path d="m10557 19088c-3400 0-6091 1205-6412 1354 2241 1340 5086 1837 6427 3501 1312-1628 4062-2139 6278-3414 45-46 69-72 69-72 0 0-2739-1369-6363-1369z" fill="#009845" fill-rule="nonzero"/></g><g stroke="#363130"><g fill-rule="nonzero" stroke-width="70.56"><path d="m8323 5196c3-4-2 3 0 0 24-54-346-288-330-592 6-113-36-101-36-101-161 215-292 501-46 786 154-58 288-93 411-92z" fill="#fefefe"/><path d="m8323 5196c-123 0-258 34-411 92-776-119-921 533-838 796 4 6 10 11 16 16 24-40 46-75 68-100 84-95 358-334 513-310 128 20 149 23 322 6 44-4 98-10 167-18l394-113c79-91 143-113 215-209-153-106-292-159-446-160z" fill="url(#l)"/><path d="m8637 5721c-4-9-79-149-83-156l-394 113c-69 7-123 13-167 18-173 18-194 14-322-6-155-24-430 215-513 310-22 25-44 60-68 100-69 115-155 273-302 366-19 12-43 27-70 44-89 57-257 165-381 248-209 139-372 255-409 292-96 96-374 521-263 716 48 84 309 162 363 151 85-18 340-231 449-246 66-9 254 9 263 72 17 119-183 85-418 334-41 43-134 113-48 167 96 60 296 43 415 31 85-18 311-208 447-333 60-55 101-96 105-104 191 0 615-148 615-148 393 9 893-123 1044-520 148-391-50-1020-263-1449z" fill="url(#g)"/><path d="m14752 4574c-573-296-1262-131-1262-131 0 0 722-245 1110-871-66-113-723-68-865-42-1182 215-3259 1838-3199 2674 60 835 338 904 376 1898 30 788-686 1504-1021 1719-7 4-13 11-18 18 25 131 25 295 15 502 0 9-7 125-8 134-2 32-4 65-7 99 53 15 186-16 202-21 7-2 122-43 131-47 529-229 1245-987 1415-1796 143-680-119-1611-36-1874 84-263 193-523 382-716 843-866 2549-1466 2784-1546z" fill="url(#b)"/><path d="m10607 8137c-208-173-601-296-625-304 21 6 338 96 554-215-412-161-743-510-743-510 0 0 340 233 654 36-269-349-546-528-546-528 0 0 170-18 251 36-45-474-618-707-618-707 0 0 188-9 278 9-116-304-698-519-698-519l-8-3c-64 118-134 192-133 235 24 728 609 1158 764 2077 155 919-346 1480-358 1814 0 0-43 346 88 561 0 0 185 230 408 455 6-84 11-161 14-234 10-206 9-370-15-501-32-173-106-289-251-367 9-36 251 72 510-125-331-304-466-564-466-564 0 0 278 510 779 0-134-161-501-412-501-412 0 0 358 224 662-233z" fill="url(#k)"/><path d="m16170 4448c-704-48-1418 125-1418 125-235 80-1940 680-2784 1546-188 193-298 454-382 716-84 263 179 1194 36 1874-170 809-886 1567-1415 1796-124 54-238 78-333 67 115 115 239 228 355 307 7 5 13 9 20 14 9 23 4 130-3 230 203 57 531 388 743 474 203 84 465 95 501 36 32-53 88-273-135-528-17-19-35-39-56-59-9-9-1-1 3 2 55 43 122 69 192 95 437 161 771 0 771 0 0 0 107-310-227-585 537 298 1015-95 1015-95 0 0 48-310-621-645 895 298 1241-418 1158-597 72 12 788 48 1110-657-382-119-1325-227-1611-215 51-90 1707 60 2077-668-215-239-967-287-967-287 0 0 991 0 1289-692-167-131-883-227-883-227 0 0 907-24 1194-716-394-179-1253-203-1253-203 0 0 1265-155 1623-1110z" fill="url(#3)"/><path d="m5738 11042c-475-103-565-255-968-497-403-242-779-89-868 107-90 197-304 555-967 1155-594 538-584 944-576 1140 1 23 2 42 2 57 197 233 745-221 750-286-18-54-42-195 21-266 63-72 191-30 269-98 152-134 448-779 761-949 92-50 260-107 421 0 161 107 850 1092 1298 1173 72-186-139-992-142-1535z" fill="url(#j)"/><path d="m14403 18724c53-158-382-1194-239-1647 125-395 69-654 52-714-60-47-123-91-189-133-528-161-1719-430-1934-1558-69 26-221 81-536 57 23 247 84 450 145 601 65 96 122 193 159 279 215 513 676 476 1086 859 549 513 883 1337 573 2184-86 236-467 565-443 791 239-60 777 56 777 56 0 0-19-54-22-128-5-126 38-310 309-385 84-48 215-119 263-263z" fill="url(#m)"/><path d="m18208 13374c-850-197-940 501-1065 555-115 49-154-69-161-134-45-412 93-738 680-1325 734-734 45-1419-304-1535-162-54-262-519-1101-452-1012 81-904 1065-904 1182 0 116-81 492-448 600-427 125-680-480-1307-752-516-223-1021-305-1343-81-63-9-859-304-859-304l-39-20c223 254 166 475 135 528-36 60-269 60-501-36-211-87-539-418-743-474 7-100 12-207 3-230-121-80-254-200-375-321-224-224-408-455-408-455-131-215-88-561-88-561 12-334 513-895 358-1814-155-919-740-1349-764-2077-1-44 69-118 133-235 92-169 172-428 11-815-358 191-275 645-346 740-72 96-136 118-215 209 4 8 79 147 83 156 213 429 411 1058 263 1449-150 398-651 530-1044 520-108 272-551 636-830 984-214 267-418 525-477 1038-84 143-158 251-203 304-340 242-480 456-564 698-32 93-45 191-44 327 4 544 214 1349 142 1535-233-27-734-134-806-179-72-45-224-179-304-179-81 0-269-36-367 54-98 90-403 833-779 1289-376 457-358 412-519 573-260 295-232 892-179 913 242 99 667-302 680-421 9-81 65-188 116-197 54-9 152-15 260-98 92-72 251-707 680-1182 27 81 1012 636 1987 627 322 152 752 233 859 206 140-35 151-175 151-175 0 0 616 589 1574 679 558 52 1417 135 2059 214 79 10 156 18 227 25 341 32 501-27 573-54 215 1128 1405 1397 1934 1558 66 42 129 86 189 133 521 403 833 961 921 1210 98 278 125 722 54 1110-71 387-511 697-475 1019 510-189 761-9 826-12 6 0 10-2 13-5 36-42-96-286 57-439 152-152 307-33 412-322 27-331-295-788-331-1710-6-143 179-492 54-716-125-224-1092-859-985-1200 107-340 277-483 322-1182 45-698-249-904-197-1164 18-89 63-125 143-143 743 54 895-582 895-582 0 0-72 591 394 457-1173 904-680 2381 197 2471 877 90 1047-546 1271-591 188-38 403 251 340 555 663-358 826-1573 81-1746z" fill="url(#0)"/></g><path d="m7857 7690c-9-3 3 1 0 0z" fill="none" stroke-width="35.28"/><g stroke-linejoin="round" stroke-width="70.56"><path d="m7857 7690c-3-1-4-1 0 0z" fill="#fff" fill-rule="nonzero"/><path d="m8596 5640c0 0 0 0 0-1 0 0 0 0 0 1" fill="none"/><path d="m7857 7690c17-3-19 3 0 0z" fill="#fff" fill-rule="nonzero"/><g fill="none"><path d="m8637 5721c-14-28-28-55-41-81 14 26 28 53 41 81"/><path d="m8595 5639c-14-26-27-51-41-75 14 24 27 49 41 75"/></g></g><g fill="none"><g stroke-width="35.28"><path d="m8624 5695c4 9 9 17 13 26-3-6-8-15-13-26z"/><path d="m8554 5564c4 8 9 16 13 24-6-10-11-19-13-24z"/></g><g stroke-linejoin="round" stroke-width="70.56"><path d="m7778 5427c-6-48 133-139 133-139"/><path d="m7993 5695c44-4 98-10 167-18-69 7-123 13-167 18"/></g><g stroke-width="35.28"><path d="m9466 10118c-40-35-74-64-114-95l114 95z"/><path d="m7857 7690c0 0 629-144 525-795-212 119-1122 656-1122 656 0 0 108 403-269 854-322 385-520 537-627 656-278 310 9 642 185 650 60-513 263-771 477-1038 279-348 722-712 830-984z"/></g><g stroke-linejoin="round"><g stroke-width="70.56"><path d="m6337 6758c6-8-6 8 0 0"/><path d="m8554 5564c3 5 80 151 83 156-4-9-79-149-83-156"/><path d="m9982 7833c-1 0-1 0-1 0s0 0 1 0"/></g><path d="m7264 6395c269 107 537-58 537-58" stroke-width="56.44"/></g></g></g><path d="m6113 7385l-116 143c125-112 94-224 148-251 54-27 107-18 103 36-11 135-134 72-134 72z" fill="#363130" fill-rule="nonzero"/><g stroke="#363130"><g stroke-linejoin="round"><g stroke-width="56.44"><path d="m5997 7528c125-112 94-224 148-251 54-27 107-18 103 36-11 135-134 72-134 72" fill="none"/><path d="m7367 6422c0 0-98-161 0-197 98-36 322 118 331 143-69 61-331 54-331 54z" fill="#363130" fill-rule="nonzero"/></g><path d="m11300 11047c-15-15 17 15 0 0" fill="none" stroke-width="70.56"/></g><g fill="none"><path d="m11300 11047c-15-15 17 15 0 0z" stroke-width="35.28"/><g stroke-linejoin="round" stroke-width="70.56"><path d="m11300 11047c1 1 2 2 3 2-4-4-13-11-3-2"/><path d="m11303 11050c-1-1-2-2-3-2 7 6 6 5 3 2"/></g></g></g><path d="m11300 11047c-17-14 15 16 0 0" fill="none" stroke="#363130" stroke-linejoin="round" stroke-width="70.56" id="p"/><path d="m11729 13603c275 12 275 835 364 1068" fill="none" stroke="#363130" stroke-linejoin="round" stroke-width="70.56"/><use xlink:href="#p"/><g stroke="#363130"><g stroke-linejoin="round"><g stroke-width="70.56"><path d="m10249 10894c-140-93-270-216-375-321-224-224-408-455-408-455l-114-95c-1068-815-2262-299-2802-311-176-9-346-274-149-615 105-182 277-318 591-692 377-450 269-854 269-854 0 0 910-537 1122-656 104 651-525 795-525 795 393 9 893-123 1044-520 148-391-50-1020-263-1449-3-6-80-151-83-156l-394 113c-69 7-123 13-167 18-16 106 273 397 275 764-48 125-1146 719-1179 697-33-22-270-492-371-646-1-1-1-2-2-3-175 70-311 167-379 251 152 331 495 659 552 925 57 266-199 592-199 592-71 71-406 435-624 811-379 654 66 994 388 961 152-16 1459-175 1826-128 367 46 707 289 752 337 31 33 486 480 770 756 124 121 217 174 226 181 33 24 203 119 203 119 0 0 9-91 15-188 7-100 12-207 3-230z" fill="url(#f)" fill-rule="nonzero"/><path d="m5881 12577c0 0 653 54 770-331" fill="none"/><g fill-rule="nonzero"><path d="m11861 15632c0 0-80-108-158-303-61-151-122-355-145-601-32-341 9-764 220-1244 525-1194 298-1910-251-2304-10-13-21-24-31-36-71-22-137-52-192-95-4-4-13-11-3-2 21 20 39 39 56 59 182 200 153 450 135 528-78 24-275 60-501-36-210-89-539-418-743-474-7 97-15 188-15 188 0 0-170-95-203-119-10-7-102-60-226-181-2 1-4 1-6 2-794 658-877 2446-585 3390 74 241 546 1405 274 1969 292-66 322-179 346-263 66-227-12-478-12-501 0-24-6-119 60-107 136 25 66 382 72 537 6 155 167 310 191 310 224-370-18-812 137-794 72 8-54 609 197 782 233-310 36-782 131-764 95 18-6 567 239 788 245-173 54-716 131-704 155 30-36 573 227 728 227-155 66-621 131-621 155 0-60 549 263 668 215 48 18-639 143-621 125 18-83 537 454 752 167-72-334-931-334-931z" fill="#e32e2d"/><path d="m3698 14768c-50-76-91-141-91-141-13 119-439 519-680 421 30 155 54 597 36 841 101 101 842-304 877-913-35-47-93-133-141-208z" fill="url(#e)"/><path d="m2362 13003c0 158-43 602-106 839 81 119 884-140 1034-731-52-107-178-393-178-393-5 64-553 518-750 286z" fill="url(#d)"/><path d="m13077 19444c-34 154-188 561-301 779 53 133 893 53 1167-492-22-89-89-231-89-231 0 0-538-116-777-56z" fill="url(#i)"/><path d="m14716 19701c-25 156-143 578-243 802 61 130 895-1 1135-561-30-97-35-116-66-253-65 2-316-178-826 12z" fill="url(#n)"/></g></g><g fill="none"><g stroke-width="56.44"><path d="m9282 7331c161 483 197 1638-457 2390"/><path d="m9041 6051c206 367 451 301 555 466"/></g><g stroke-width="59.97"><path d="m11347 5725c668-776 2143-1283 2143-1283"/><path d="m14546 5558c-454 60-1981 573-2244 1003-263 430 489 967-95 2483"/><path d="m14606 6477c-1886 72-2244 776-2244 776"/><path d="m12445 7934c0 0 549-549 1755-537"/><path d="m12338 8626c394-251 752-275 752-275"/><path d="m12720 9068c334 167 871 155 871 155"/><path d="m12171 9378c-107 370 263 442 263 442"/><path d="m11741 10393l299 167"/><path d="m11037 10882l263 165"/><path d="m16659 10921c152-81 439-112 698 13"/><path d="m17026 12147c-537-483-1030-197-1101 98"/><path d="m16749 12505c-224 9-430 179-430 179"/></g><g stroke-width="56.44"><path d="m14600 15459c143-99 161-161 161-161"/><path d="m12708 11896c-812 155-72 1038-382 1492"/></g><path d="m8363 12374c12 310-406 645-418 740-25 202-285 694-285 694" stroke-width="59.97"/><g stroke-width="56.44"><path d="m8542 13305c-537 537-824 406-824 406"/><path d="m4860 13060c-90-9-197 90-197 90"/><path d="m6659 11144c-591 412-295 1361-295 1361"/><path d="m7510 9936c0 0-358 134-421 322"/></g></g></g><path d="m10673 12101c-45-10-202-61-202-61 0 0 105 170 31 622 13 1 27 3 41 6 15 3 28 8 41 13 130-439 298-547 298-547 0 0-165-22-209-33z" fill="none" stroke-width="35.28"/></g><g fill-rule="nonzero"><path d="m7552 6276c0 14-14 25-31 25-17 0-31-11-31-25 0-14 14-25 31-25 17 0 31 11 31 25" fill="#fefefe"/><g stroke-linejoin="round"><path d="m10886 14926c174-67 539-852 56-1285-483-433-1286-311-1286-311l-5 267c0 0 195-31 245 99 66 174 100 950 51 994-49 44-224 27-224 27l-15 372 1500 221 1-319c0 0-239-18-323-65zm-666-139c0-36 19-324 17-350 24 11 75 18 110-2 123 136 264 262 305 298-87 145-342 140-432 54zm17-599c-5-72 10-447 10-447 0 0 332-58 365 160 23 154-282 280-374 287zm549 391c-48-107-220-240-220-240 0 0 158-88 247-290 144 152 89 429-27 530z" fill="url(#a)" stroke="#363130" stroke-width="56.44"/><g stroke="#2b2a29"><g stroke-width="24.69"><path d="m10293 11903c9-35 44-57 78-49 34 9 55 44 46 80-9 35-44 57-78 49-34-9-55-44-46-80z" fill="url(#N)"/><path d="m10155 11849c9-36 44-57 78-49 34 9 55 44 46 80-9 36-44 57-78 49-34-9-55-44-46-80z" fill="url(#M)"/><path d="m10008 11801c9-35 44-57 78-49 34 9 55 44 46 80-9 36-44 57-78 49-34-9-55-44-46-80z" fill="url(#L)"/><path d="m9853 11770c9-35 44-57 78-49 34 9 55 44 46 80-9 36-44 57-78 49-34-9-55-44-46-80z" fill="url(#K)"/><path d="m9692 11774c9-36 44-57 78-49 34 9 55 44 46 80-9 35-44 57-78 49-34-9-55-44-46-80z" fill="url(#J)"/><path d="m9551 11838c9-36 44-57 78-49 34 9 55 44 46 80-9 35-44 57-78 49-34-9-55-44-46-80z" fill="url(#I)"/><path d="m9445 11947c9-35 44-57 78-49 34 9 55 44 46 80-9 35-44 57-78 49-34-9-55-44-46-80z" fill="url(#G)"/><path d="m9397 12084c9-36 44-57 78-49 34 9 55 44 46 80-9 36-44 57-78 49-34-9-55-44-46-80z" fill="url(#E)"/><path d="m9394 12233c9-35 44-57 78-49 34 9 55 44 46 80-9 35-44 57-78 49-34-9-55-45-46-80z" fill="url(#D)"/><path d="m9424 12384c9-35 44-57 78-49 34 9 55 44 46 80-9 35-44 57-78 49-34-9-55-44-46-80z" fill="url(#F)"/><path d="m9475 12530c9-35 44-57 78-49 34 9 55 44 46 80-9 35-44 57-78 48-34-9-55-44-46-80z" fill="url(#H)"/><path d="m11093 12105c9-35-12-71-46-80-34-9-69 13-78 49-9 35 12 71 46 80 34 9 69-13 78-49z" fill="url(#O)"/><path d="m11239 12122c9-36-12-71-46-80-34-9-69 13-78 49-9 36 12 71 46 80 34 9 69-13 78-49z" fill="url(#P)"/><path d="m11391 12150c9-36-12-71-46-80-34-9-69 13-78 49-9 35 12 71 46 80 34 9 70-13 78-49z" fill="url(#Q)"/><path d="m11543 12196c9-35-12-71-46-80-34-9-69 13-78 49-9 35 12 71 46 80 34 9 69-13 78-49z" fill="url(#S)"/><path d="m11683 12275c9-35-11-71-46-80-34-9-69 13-78 49-9 35 12 71 46 80 34 9 69-13 78-49z" fill="url(#U)"/><path d="m11777 12399c9-35-12-71-46-80-34-9-69 13-78 49-9 35 11 71 46 80 34 9 69-13 78-49z" fill="url(#W)"/><path d="m11819 12545c9-35-12-71-46-80-34-9-69 13-78 49-9 36 12 71 46 80 34 9 69-13 78-49z" fill="url(#Y)"/><path d="m11796 12688c9-35-12-71-46-80-34-9-70 13-78 49-9 36 12 71 46 80 34 9 69-13 78-49z" fill="url(#X)"/><path d="m11728 12821c9-35-12-71-46-80-34-9-69 13-78 49-9 35 12 71 46 80 34 9 69-13 78-49z" fill="url(#V)"/><path d="m11630 12940c9-36-12-71-46-80-34-9-69 13-78 49-9 35 12 71 46 80 34 9 69-13 78-49z" fill="url(#T)"/><path d="m11516 13044c9-35-12-71-46-80-34-9-69 13-78 49-9 36 12 71 46 80 34 9 69-13 78-49z" fill="url(#R)"/><path d="m10702 11965c-88-22-268-91-268-91 1 1 31 67 51 186 3 19 6 40 9 62 1 7 1 14 2 21 12 114 12 260-19 435 9 0 17 1 26 2 14 2 27 4 42 7 15 4 29 9 42 14 8 3 16 7 24 11 55-168 124-296 187-390 17-25 33-48 49-68 75-97 134-141 135-142 0 0-191-25-279-47z" fill="url(#c)"/><path d="m9693 12549c-10-23-121-280-79-454 45-183 276-161 278-161 176 9 503 156 603 209-1-7-1-14-2-21-3-22-6-43-9-62-120-63-426-188-603-197-77-4-283 21-333 208-50 186 67 461 86 501 10-8 20-14 32-18 9-3 18-5 27-5z" fill="url(#o)"/><path d="m11472 12267c-161-76-491-111-626-112-16 20-32 43-49 68 112 1 471 27 631 102 2 1 217 91 169 274-44 168-252 337-282 361 18 12 31 29 40 49 37-28 268-213 312-400 45-189-125-308-195-341z" fill="url(#6)"/></g><path d="m11355 13008c-8-20-21-37-40-49-48-33-130-33-239 31 10-232-155-329-328-148 0 0 2-157-138-230-7-4-16-7-24-11-13-5-27-10-42-14-15-4-29-6-42-7-9-1-18-2-26-2-159-3-232 137-232 137-67-242-257-235-359-25-65-106-136-145-193-141-9 1-19 2-27 5-11 4-22 10-32 18-2 2-5 3-7 5-27 24-45 63-49 110 2 45 33 358 33 358 0 0 404 2 797 83 384 114 741 304 741 304 0 0 176-261 199-300 20-45 21-90 7-125z" fill="url(#5)" stroke-width="31.75"/></g></g><path d="m10552 12240c0 87-9 196-32 327 13 2 28 5 28 5 0 0 16 5 29 10 111-338 237-480 293-530-52-9-148-25-182-33-34-8-125-40-175-57 16 44 40 132 40 278z" fill="url(#h)"/><path d="m10484 11935c0 0 5 9 13 29 1 3 2 7 4 10 15 45 36 131 36 267 0 90-9 202-34 338 10 1 20 3 31 5 4 1 7 2 11 3 4 1 8 2 12 3 10 3 20 7 30 11 3-10 7-20 10-30 104-312 222-451 279-503 3-3 6-5 8-7 16-14 25-19 25-19 0 0-170-27-216-39-46-12-207-68-207-68zm55 618c52-300 24-479-1-567 51 17 119 40 146 47 28 7 99 19 152 28-64 66-173 210-270 498-5-1-10-3-14-4-4-1-9-2-13-3z" fill="#363130"/><g stroke="#2b2a29" stroke-linejoin="round" stroke-width="24.69"><path d="m10597 12072c-10 42 14 84 56 94 41 10 83-15 94-57 10-42-14-84-56-94-41-10-83 15-94 57z" fill="url(#C)"/><path d="m10570 12225c-9 36 12 72 47 81 35 9 71-13 80-48 9-36-12-72-48-81-35-9-71 13-80 48z" fill="url(#A)"/><path d="m10551 12346c-7 29 10 59 39 67 29 7 59-11 66-40 7-29-10-59-39-67-29-7-59 11-66 40z" fill="url(#9)"/><path d="m10535 12444c-6 25 9 50 33 57 25 6 50-9 56-34 6-25-8-50-33-57-25-6-50 9-56 34z" fill="url(#8)"/><path d="m10524 12532c-5 19 7 38 25 43 19 5 38-7 43-26 5-19-7-38-25-43-19-5-38 7-43 26z" fill="url(#7)"/></g><path d="m9737 12977c-30-29-172-374-7-348 129 21 33 311 7 348m317 20c-29-29-160-348 7-355 168-7 19 318-7 355m372 60c-21-37-74-387 87-347 161 41-54 319-87 347m360 124c-6-44 17-402 162-316 144 86-122 304-162 316m280 133c-6-44 42-354 179-304 157 57-140 293-179 304" fill="#2b2a29"/><path d="m10577 11798c2-87 74-156 161-154 87 2 156 74 154 161-2 87-74 156-161 154-87-2-156-74-154-161z" fill="url(#B)" stroke="#2b2a29" stroke-linejoin="round" stroke-width="31.75"/></g></g></svg>