<svg xmlns="http://www.w3.org/2000/svg" width="300" height="360" viewBox="0 0 84.666667 101.6" fill-rule="evenodd"><defs><linearGradient id="3" gradientUnits="userSpaceOnUse" x1="62.781" y1="158.04" x2="140.5" y2="145.08"><stop stop-color="#fff"/><stop offset=".2" stop-color="#ccc"/><stop offset=".464" stop-color="#fff"/><stop offset=".651" stop-color="#fff"/><stop offset=".795" stop-color="#ccc"/><stop offset="1" stop-color="#fff"/></linearGradient><linearGradient id="2" gradientUnits="userSpaceOnUse" x1="76.74" y1="143.52" x2="136.65" y2="137.04"><stop stop-color="#fff"/><stop offset=".173" stop-color="#fff"/><stop offset=".402" stop-color="#ccc"/><stop offset=".691" stop-color="#fff"/><stop offset=".852" stop-color="#ccc"/><stop offset="1" stop-color="#ccc"/></linearGradient><linearGradient id="0" gradientUnits="userSpaceOnUse" x1="109.01" y1="112.81" x2="130.32" y2="112.25"><stop stop-color="#fff"/><stop offset=".588" stop-color="#ccc"/><stop offset="1" stop-color="#fff"/></linearGradient><radialGradient id="1" gradientUnits="userSpaceOnUse" cx="99.25" cy="78.06" r="7.916" gradientTransform="matrix(1.25242 0 0 1.33656-25.05-26.27)"><stop stop-color="#ccc"/><stop offset="1" stop-color="#fff"/></radialGradient></defs><path d="m62.58 48.55c.828 0 1.5.672 1.5 1.5v1.5c0 .828-.672 1.5-1.5 1.5h-1.5v-4.5h1.5m0 6c1.657 0 3-1.343 3-3v-1.5c0-1.657-1.343-3-3-3h-3v7.5h3m-6-7.5h1.5v7.5h-1.5v-7.5m-3 0h1.5v7.5h-1.5l-3-4.709v4.709h-1.5v-7.5h1.5l3 4.709v-4.709m-22.5 0h4.5v1.5h-3v1.5h3v1.5h-3v1.5h3v1.5h-4.5v-7.5m-6 0h1.5v6h3v1.5h-4.5v-7.5m15.75 6h1.5c1.242 0 2.25-1.01 2.25-2.25 0-1.242-1.026-2.246-2.25-2.25h-1.5v1.5h1.5c.414 0 .75.336.75.75 0 .414-.336.75-.75.75h-1.5v1.5m1.5-7.5c2.899 0 5.25 2.351 5.25 5.25 0 2.899-2.351 5.25-5.25 5.25-2.899 0-5.25-2.351-5.25-5.25 0-2.899 2.351-5.25 5.25-5.25m0 1.5c2.071 0 3.75 1.679 3.75 3.75 0 2.071-1.679 3.75-3.75 3.75-2.071 0-3.75-1.679-3.75-3.75 0-2.071 1.679-3.75 3.75-3.75" fill="#a90000"/><g transform="matrix(.57399 0 0 .57452-17.936-34.34)"><g fill-rule="nonzero"><path d="m31.25 59.766v88.96h-.0001c0 40.19 35.625 76.09 73.75 87.88 38.13-11.793 73.75-47.699 73.75-87.88h-.002v-88.96h-147.5"/><path d="m31.998 60.53v88.19h-.002c0 39.837 35.26 75.43 73 87.12 37.74-11.691 73-47.29 73-87.12h-.0001v-88.19h-146" fill="#df212c"/></g><circle cx="99.25" cy="78.06" r="9.705"/><path d="m99.25 68.853c5.083 0 9.205 4.122 9.205 9.205 0 5.083-4.122 9.205-9.205 9.205-5.083 0-9.205-4.122-9.205-9.205 0-5.083 4.122-9.205 9.205-9.205" fill="url(#1)"/><path d="m123.32 94.1h11.618v22.708h-.0001c0 1.419-.217 2.768-.617 4.03l.883 2.153c.257.352.452.752.621 1.152.507 1.198.93 2.9.946 4.472.013 1.319-.294 2.33-.908 3.114-.373.477-.857.865-1.447 1.184-3.01 4.747-4.892 7.06-6.808 7.597-1.954.545-3.844-.741-6.89-3.19-.388-.312-.773-.657-1.166-1.027-.925.67-1.857.959-2.792.979.046 1.081.157 2.159.346 3.224.525 2.959 1.654 5.796 3.686 8.05.205.227.38.402.534.555.568.564.87.864 1.01 1.975.159 1.281.309 2.563.404 3.855.095 1.288.133 2.578.065 3.869-.073 1.403.228 2.597.816 3.665.594 1.077 1.482 2.031 2.575 2.942l.004.004c.817.681 1.526 1.383 2.133 2.102.611.724 1.119 1.468 1.531 2.23 2.119 3.923 1.667 8.307-.731 12.922-1.299 2.5-1.394 3.715-.818 4.184.591.481 1.92.262 3.405-.15l.005-.0001c.309-.086.648-.163 1.01-.229 2.835-.515 5.959-.28 8.584.959 1.418.669 2.882 1.718 3.348 3.293.59 1.995.243 3.099-.115 4.236-.218.691-.439 1.395-.433 2.327v.038c.059 2.41 4.175 4.075 6.315 4.94.53.214 1.058.435 1.586.654l-14.505.462c-.487.645-1.042 1.24-1.664 1.756-1.675 1.389-3.826 2.205-6.501 2.031-.968-.063-1.841.302-2.426 1.093-.529.715-.84 1.745-.921 2.99-.031.474-.019.948-.013 1.423l-6.526-6.526c.78-.434 1.484-1.38 2.038-2.067.571-.709 1.101-1.509 1.589-2.426.643-1.208.877-2.246.791-3.093-.095-.94-.624-1.695-1.454-2.137-.713-.379-1.643-.549-2.704-.486l.988 7.486h-5.313l.615 4.815h-34.486l.615-4.815h-5.49l5.781-43.8c-.712-2.713-1.945-5.355-3.547-7.957-1.662-2.7-3.723-5.357-6.01-8-.559-.645-1.01-1.329-1.074-2.032-.07-.731.261-1.452 1.277-2.123 1.349-.892 2.27-1.98 2.889-3.164.621-1.189.942-2.479 1.087-3.769.1-.888.026-1.967-.755-2.547-.957-.71-2.431-.404-3.459-.064-3.425 1.134-6.01 1.045-7.881.232-.943-.409-1.705-.999-2.304-1.709-.598-.708-1.034-1.534-1.326-2.415-.701-2.117-.569-4.568.144-6.483-.573.075-1.163.133-1.763.175-3.613.249-7.63-.138-10.892-1.576-3.297-1.453-5.824-3.973-6.408-7.981-.31-2.13.154-4.191 1.36-5.993.194-.29.403-.566.624-.826 1.537-1.807 3.496-2.405 5.959-2.446.248-.004.504-.008.776-.016.59-.017 1.338-.092 1.908-.358.514-.24.88-.65.804-1.348-.047-.429-.16-.784-.324-1.075-.282-.497-.724-.811-1.249-.985-.545-.181-1.181-.213-1.824-.143-1.121.122-2.105.527-3.073 1.077.085-2.18.427-4.362 1.705-6.194.756-1.083 1.728-1.867 2.847-2.367 1.114-.498 2.373-.713 3.707-.661 2.413.094 5.08 1.063 7.588 2.813 3.202 2.234 6.5 2.79 9.787 1.823.641-.189 1.283-.435 1.924-.739 1.052-.498 1.956-1.104 2.898-1.766 1.704-1.293 3.796-2.121 6.251-2.278 1.017-.065 2.096-.015 3.237.166 1.094.173 2.244.467 3.446.893l3.111-10.358v-.0001c.226-.752.391-1.528.742-2.237.232-.468.535-.899.897-1.274.868-.902 2.066-1.484 3.399-1.553.939-.049 1.885.164 2.709.615.915.501 1.66 1.275 2.124 2.213v.0001c.35.708.516 1.485.742 2.237l3.106 10.34c.991-.349 1.944-.607 2.86-.782.975-.186 1.91-.279 2.804-.286.517-.004 1.018.021 1.505.073l.069-.013.012-.002.005.025c3.757.424 6.615 2.459 8.473 5.314" fill-rule="nonzero"/><path d="m119.67 130.46c7.664 0 14.774-5.712 14.774-13.713v-22.15h-29.547v22.15c0 8 7.109 13.713 14.773 13.713" fill="url(#0)"/><g fill-rule="nonzero"><path d="m123.41 107.09c-.144-.095-.176-.294-.064-.421.03-.034.068-.061.111-.078.096-.037.204-.017.284.049.031.025.057.057.08.091.083.128.105.263.091.406v.002c-.02.208-.101.436-.221.64-.115.196-.281.386-.46.526l.332.513c.39-.267.679-.693.841-1.133.018-.049.034-.099.049-.149.032-.111.056-.222.067-.338.023-.242-.012-.504-.131-.716-.181-.321-.51-.54-.88-.518h-.004c-.248.016-.466.131-.617.305-.152.174-.231.406-.218.639.011.195.088.375.211.517.178.206.448.33.72.336.116-.194.21-.422.226-.65-.139.05-.287.061-.415-.023m1.174.273c.348-.248.796-.785.882-1.302l-.607-.076c-.048.207-.198.414-.335.58.082.202.104.424.083.64-.005.053-.013.105-.022.157m4.811-4.791c-.146.553-.422.942-.416 1.502.005.48.034.938-.023 1.464-.837.753-2.506.736-3.282-.013.011-.523-.13-.973-.51-1.361-.138-.141-.304-.272-.461-.407.206.142.447.245.692.307.573.144 1.192.123 1.765 0 .646-.138 1.304-.42 1.79-.875.186-.175.347-.385.446-.617m-.548 4.03c-.403 1.794-1.717 3.377-3.02 3.947-.907-.383-1.388-1.088-1.55-2.081.476-.448 1.01-1.251 1.242-1.917.928.71 2.538.702 3.33.051m-8.505 2.837c.139.078.266.209.33.325.986.02 2.086-.264 2.959-.799.141.762.613 1.481 1.287 1.887-1.291.315-2.85.222-4.415-.288-.091.089-.229.158-.367.18.067-.029.129-.076.184-.137.119-.133.184-.307.21-.481.027-.195-.0001-.379-.069-.52-.032-.066-.072-.122-.12-.166m-.756.553c-.042.296.051.566.216.681.251.175.49-.077.587-.309.076-.182.104-.397.061-.591-.04-.178-.18-.411-.388-.394-.223.019-.428.275-.475.612m7.907-9.277c.735.023 1.711.292 1.892 1.122v.002l.002.006c.179.853-.641 1.504-1.321 1.821-.616.287-1.335.433-2.01.401-.721-.034-1.659-.31-1.835-1.12v-.002l-.002-.006c-.175-.832.606-1.475 1.269-1.796.612-.296 1.329-.449 2.01-.427m-1.474 1.115c-.295.123-1.06.522-.974.934.086.395.887.461 1.201.46.507-.002 1.067-.129 1.519-.353.267-.132.867-.493.792-.852-.086-.395-.888-.461-1.201-.46-.444.002-.926.1-1.337.271m-6.193 8.202c.021-.152.121-.263.223-.249.101.014.166.149.145.3-.021.152-.121.263-.222.249-.101-.014-.166-.149-.145-.3"/><path d="m114.78 107.71c-.001.173-.166.299-.332.266-.044-.009-.087-.029-.122-.057-.08-.064-.117-.168-.1-.27.007-.039.021-.078.039-.115.069-.136.175-.222.306-.282h.002c.191-.087.428-.13.665-.129.227.002.475.05.685.135l.278-.544c-.426-.204-.94-.242-1.402-.161-.051.009-.103.02-.153.032-.112.028-.221.063-.326.111-.221.101-.431.262-.554.472-.188.317-.213.711-.008 1.021l.002.004c.137.207.347.338.573.382.227.044.467-.003.662-.131.163-.108.28-.264.343-.441.09-.257.062-.552-.069-.792-.226-.004-.471.029-.675.129.113.095.196.218.187.371m-.351-1.154c-.389-.177-1.078-.297-1.568-.113l.238.564c.204-.062.458-.035.67 0 .134-.172.315-.302.513-.392.048-.022.097-.041.147-.059m-6.555-1.77c.552-.15 1.026-.106 1.509-.391.413-.245.796-.498 1.279-.712 1.071.348 1.891 1.802 1.63 2.849-.459.252-.778.599-.924 1.121-.053.19-.083.399-.122.603.02-.249-.011-.509-.08-.752-.162-.568-.49-1.094-.882-1.528-.442-.49-1.016-.92-1.653-1.112-.245-.074-.507-.109-.758-.078m3.767-1.543c1.755-.548 3.783-.202 4.93.644.122.978-.248 1.746-1.027 2.383-.626-.188-1.588-.248-2.281-.117.151-1.159-.661-2.549-1.621-2.909m6.71 5.947c-.003-.159.047-.335.116-.448-.476-.864-1.271-1.674-2.172-2.163.589-.504.976-1.272.99-2.058.918.96 1.617 2.357 1.958 3.968.123.035.251.119.339.228-.058-.043-.13-.074-.211-.091-.175-.037-.357-.006-.522.059-.183.074-.328.191-.415.32-.041.06-.07.123-.084.186m.857.378c.277-.112.465-.327.481-.528.026-.305-.311-.386-.561-.354-.196.025-.396.109-.542.243-.135.124-.266.362-.147.533.128.184.452.233.768.106m-11.987-2.209c-.347-.648-.603-1.628.026-2.199l.002-.0001.004-.005c.649-.582 1.623-.197 2.237.233.557.39 1.042.939 1.354 1.544.331.641.561 1.592-.052 2.149l-.002.0001-.004.005c-.633.568-1.581.213-2.19-.201-.563-.381-1.054-.926-1.375-1.526m1.703.719c.254.194.983.657 1.296.376.3-.272-.044-.999-.202-1.27-.255-.438-.646-.859-1.065-1.139-.248-.165-.861-.504-1.133-.26-.3.272.044.999.202 1.27.223.384.55.752.903 1.022m10.2 1.263c-.142.057-.288.027-.327-.068-.038-.095.046-.218.187-.276.142-.057.288-.027.327.068.038.095-.046.218-.187.276"/><path d="m119.66 114.9c.155-.078.343-.006.396.155.014.043.019.09.012.134-.016.101-.087.185-.184.221-.037.014-.078.021-.119.023-.152.008-.28-.041-.398-.124h-.002c-.17-.122-.327-.305-.444-.511-.112-.198-.194-.436-.225-.661l-.61.031c.037.471.26.935.561 1.295.033.04.069.079.105.117.08.084.165.16.259.227.198.141.443.242.686.244.368.004.722-.171.889-.503l.002-.004c.111-.223.119-.469.044-.687-.075-.219-.236-.403-.444-.508-.175-.088-.368-.111-.553-.076-.268.051-.51.222-.651.455.109.197.261.393.45.52.026-.145.091-.279.227-.348m-.824.881c.041.426.282 1.082.686 1.414l.369-.488c-.155-.145-.26-.379-.335-.58-.216-.03-.419-.122-.596-.248-.043-.031-.084-.064-.125-.098m1.744 6.562c-.406-.403-.605-.836-1.093-1.111-.418-.235-.829-.44-1.256-.752-.234-1.101.615-2.538 1.653-2.836.447.271.908.374 1.433.239.191-.049.387-.128.583-.196-.226.108-.436.264-.611.446-.411.424-.702.971-.882 1.528-.203.629-.288 1.34-.137 1.987.058.249.159.493.311.695m-3.22-2.491c-1.352-1.246-2.067-3.175-1.907-4.591.786-.594 1.636-.658 2.577-.302.15.636.579 1.499 1.04 2.034-1.079.449-1.877 1.847-1.709 2.859m1.796-8.784c-.137.082-.314.126-.446.123-.51.844-.814 1.938-.787 2.962-.731-.258-1.589-.209-2.278.171.372-1.275 1.232-2.579 2.457-3.679-.031-.123-.023-.277.028-.407-.008.072.0001.15.027.228.056.17.174.312.312.422.155.121.329.189.484.2.073.005.142-.002.203-.021m-.101-.931c-.236-.184-.516-.239-.698-.153-.277.13-.179.463-.026.663.12.157.292.288.481.348.174.055.446.049.535-.14.095-.203-.024-.508-.292-.718m4.081 11.486c-.388.624-1.109 1.336-1.917 1.077h-.002l-.006-.0001c-.829-.271-.982-1.307-.917-2.054.059-.677.293-1.372.66-1.945.39-.607 1.098-1.281 1.887-1.029h.002l.006.0001c.808.265.974 1.263.921 1.997-.049.678-.275 1.376-.634 1.954m-.228-1.834c.041-.317.078-1.179-.323-1.31-.385-.124-.843.538-.999.81-.252.44-.421.989-.454 1.492-.019.297-.006.997.342 1.111.385.124.843-.538.999-.81.221-.385.376-.852.434-1.293m-4.01-9.465c.121.094.167.237.104.317-.063.08-.212.07-.332-.024-.121-.094-.167-.237-.104-.317.063-.08.212-.07.332.024"/></g><g><path d="m104.39 103.77v-6.16l1.272-.756c.379-.225.924-.268 1.18.151.053.086.086.185.096.291l.201-.122c.332-.201.663-.186.899-.044.214.129.341.362.342.611.0001.154-.046.323-.152.49.27.096.451.34.454.628.002.226-.104.488-.359.737.173.126.263.33.267.542.005.278-.138.599-.47.831l-2.382 1.853c-.284.221-.591.43-.907.645-.145.099-.292.199-.441.303m20.677 17.756c-.075-.181-.081-.384-.016-.569.155-.439.583-.598 1.012-.61l5.327-.153c.692-.02 1.3-.113 1.802-.359.487-.239.883-.63 1.171-1.251l.219-.471.232.464c.477.956.726 1.986.72 2.953-.004.757-.165 1.475-.494 2.091-.334.624-.838 1.141-1.526 1.484-.586.292-1.304.457-2.162.452l-5.055-.028c-.421-.002-.772-.269-.883-.672-.046-.168-.048-.352.008-.518-.168-.056-.306-.139-.413-.238-.131-.121-.215-.267-.251-.421-.047-.201-.007-.41.101-.584-.283-.152-.484-.452-.494-.775-.014-.422.301-.717.703-.796"/><path d="m125.66 121.5l4.943-.083.008.498-5.256.088c-.2.003-.491.056-.483.307.007.232.255.424.478.421l5.254-.078.006.498-5.183.077c-.111.077-.208.201-.174.343.051.219.324.315.518.343l4.836.018v.498l-4.64-.017c-.094.065-.09.222-.064.318.052.188.209.304.404.305l5.055.028c.774.004 1.417-.142 1.938-.401.591-.295 1.024-.738 1.309-1.272.29-.543.431-1.182.435-1.859.004-.741-.157-1.526-.468-2.283-.311.481-.7.813-1.158 1.037-.575.282-1.249.388-2.01.41l-5.32.153c-.218.006-.477.04-.561.278-.05.143.022.279.129.372m-32.68-15.459l-.736 3.116c1.23-.398 2.561-.763 3.879-1.124 1.472-.403 2.927-.803 4.216-1.243.641-.219 1.132-.702 1.51-1.248.837-1.209 1.81-1.872 2.707-2.483.305-.208.601-.41.882-.628l2.265-1.761c.163-.127.511-.368.37-.624-.056-.102-.193-.078-.284-.045l-.36.241c-.897.599-1.921 1.282-2.721 1.876l-.297-.4c.808-.601 1.837-1.288 2.74-1.89.218-.146.394-.263.615-.411.02-.013.038-.026.056-.039.13-.094.483-.396.342-.605-.139-.206-.522-.015-.659.08l-.007-.001c-.199.12-.397.242-.593.366-.935.589-1.841 1.223-2.723 1.889l-.301-.398c.898-.678 1.823-1.322 2.775-1.923.295-.186.593-.368.895-.546.154-.11.435-.372.309-.594-.093-.165-.325-.113-.457-.032l-.252.153c-.26.158-.532.323-.783.477-.989.605-2.026 1.261-2.884 1.916l-.0001.0001-.111-.146-.194-.249.002-.0001c.916-.7 2.02-1.392 3.053-2.023.118-.094.289-.299.19-.462-.103-.17-.379-.053-.501.019l-4.077 2.425c-.624.371-.803.9-1.01 1.502-.396 1.172-.987 2.249-2 3-1 .745-2.393 1.111-3.559 1.382-.77.179-1.541.315-2.299.443" fill="#fff" fill-rule="nonzero"/></g><g fill-rule="nonzero"><path d="m82.6 158.39l.998-7.559c-.147-1.438-.379-2.882-.765-4.276-.29-1.047-.62-1.858-.965-2.491-.385-.706-.764-1.253-1.102-1.741-.923-1.333-1.557-2.248-1.335-4.756.143-1.617.876-2.867 1.616-4.128.584-.996 1.173-1.999 1.451-3.183.18-.766.24-1.475.192-2.116-.075-1.01-.417-1.856-.972-2.501-.556-.645-1.329-1.096-2.266-1.316-.594-.139-1.253-.187-1.965-.135-1.374.102-2.379.686-3.433 1.298-1 .582-2.046 1.189-3.497 1.466-1.079.206-2.163.202-3.02-.102-.429-.152-.803-.38-1.096-.694-.295-.316-.504-.717-.598-1.212-.128-.671-.043-1.518.329-2.565l.08-.226.228.071c1.261.391 2.444.321 3.42-.183.19-.098.371-.212.543-.341.172-.129.337-.276.493-.44l.0001-.0001c.603-.631 1.01-1.341 1.238-2.079.311-1 .3-2.058.019-3.049-.282-.993-.836-1.92-1.609-2.658-.639-.61-1.427-1.091-2.336-1.373-1.087-.338-2.377-.413-3.889-.198-1.527.216-3.279.728-5.273 1.559l-.016.006c-2.539.864-4.412.646-5.598-.123-.571-.371-.984-.868-1.235-1.435-.25-.564-.34-1.196-.269-1.84.151-1.369 1.035-2.793 2.661-3.715l.013-.007c1.108-.548 1.977-1.464 2.545-2.568.474-.922.739-1.973.759-3.049.02-1.076-.206-2.178-.712-3.201-.829-1.677-2.197-2.705-3.818-3.538 1.555-.682 3.121-1.2 4.851-.967 1.464.197 2.924.906 4.378 2.32l.012.013c3.209 3.589 6.417 3.688 9.622.298l.363.342c-3.451 3.65-6.899 3.551-10.346-.296-1.371-1.332-2.735-1.999-4.096-2.182-1.205-.162-2.415.054-3.629.523 1.469.863 2.487 2.01 3.11 3.268.542 1.096.784 2.276.763 3.43-.021 1.154-.305 2.281-.813 3.269-.614 1.193-1.556 2.186-2.761 2.784-1.472.836-2.27 2.112-2.405 3.332-.061.556.016 1.1.23 1.584.213.481.563.903 1.05 1.218 1.067.692 2.787.876 5.159.071 2.03-.845 3.819-1.367 5.387-1.589 1.586-.225 2.948-.144 4.106.216.984.306 1.839.828 2.532 1.489.838.8 1.439 1.806 1.746 2.884.307 1.081.319 2.236-.023 3.332-.252.809-.695 1.585-1.353 2.275l-.0001.0001c-.173.182-.359.347-.555.494-.196.148-.401.277-.613.386-1.032.533-2.259.636-3.562.284-.276.855-.337 1.543-.234 2.085.076.397.24.715.473.964.235.252.541.436.897.563.771.274 1.764.273 2.763.083 1.367-.26 2.373-.845 3.339-1.407 1.104-.642 2.158-1.254 3.648-1.365.763-.056 1.472-.005 2.114.146 1.041.245 1.904.75 2.53 1.476.626.727 1.01 1.67 1.093 2.792.051.69-.012 1.448-.204 2.265-.295 1.255-.904 2.292-1.508 3.322-.71 1.211-1.415 2.411-1.548 3.919-.206 2.331.386 3.185 1.248 4.43.344.497.73 1.054 1.129 1.786.362.664.707 1.51 1.01 2.596.2.722.382 1.55.536 2.502l3.45-26.14c-1.766-.516-3.338-1.256-4.755-2.175-3.084-2-5.423-4.845-7.43-8.07-2.136-3.427-2.938-7.522-2.547-11.338.076-.743.197-1.475.362-2.188.165-.713.374-1.411.627-2.085v-.0001l.0001-.004c.571-1.519 1.362-2.914 2.365-4.108-.883.48-1.812.879-2.776 1.163-3.436 1.01-6.877.434-10.213-1.893-2.429-1.695-5-2.633-7.32-2.723-1.259-.049-2.443.152-3.486.618-1.038.464-1.94 1.191-2.642 2.197-.869 1.245-1.433 2.918-1.575 5.05.723-.347 1.607-.617 2.482-.712.71-.077 1.416-.04 2.033.165.637.211 1.176.597 1.526 1.213.198.348.333.768.387 1.268.105.966-.39 1.528-1.089 1.854-.644.3-1.463.383-2.105.402-.265.008-.528.012-.782.016-2.312.038-4.144.575-5.586 2.27-.211.248-.409.51-.59.781-1.139 1.7-1.573 3.636-1.28 5.645.555 3.808 2.967 6.207 6.115 7.595 3.182 1.403 7.114 1.779 10.658 1.535.87-.06 1.731-.168 2.594-.294-.956 2.203-1.234 4.626-.467 6.944.273.824.678 1.593 1.232 2.248.553.655 1.254 1.198 2.12 1.574 1.768.767 4.229.842 7.527-.25.95-.315 1.827-.441 2.567-.357.521.059.976.221 1.345.495.374.277.655.664.821 1.167.164.496.216 1.106.133 1.836-.152 1.344-.488 2.693-1.142 3.945-.656 1.256-1.63 2.408-3.055 3.35-.834.551-1.108 1.11-1.056 1.66.055.577.455 1.175.955 1.753 2.306 2.664 4.382 5.342 6.06 8.07 1.409 2.288 2.537 4.61 3.286 6.985m29.14-22.975l7.923 60.03c1.169-.075 2.204.114 3 .54.977.519 1.604 1.425 1.716 2.529.096.942-.155 2.077-.846 3.376-.502.943-1.05 1.768-1.642 2.504-.531.661-1.097 1.247-1.695 1.779l5.296 5.296c.003-.084.008-.168.013-.25.087-1.341.431-2.462 1.018-3.256.687-.929 1.718-1.368 2.858-1.294 2.535.165 4.569-.606 6.151-1.918 1.874-1.555 2.497-3.439 2.308-5.954-.178-2.373-1.47-4.282-3.717-5.153-1.252-.485-2.862-.705-4.89-.553-2.374.178-4.272.017-5.704-.447-2.641-.855-3.782-2.93-3.251-5.63.308-1.565 1.134-3.392 2.464-5.436 1.017-1.564 1.819-3.405 2.09-5.04.156-.939.136-1.801-.122-2.49-.248-.662-.724-1.167-1.487-1.423-.588-.197-1.346-.252-2.3-.124-.218.029-.462.095-.704.161-.812.221-1.604.436-2.116-.434-.722-1.226-1.108-2.535-1.101-3.978.007-1.434.402-2.994 1.242-4.732 1.429-2.956 2.085-6.419.931-8.821-.219-.457-.506-.876-.866-1.246-.36-.37-.795-.691-1.313-.951l-.0001-.0001h-.0001c-2.493-1.254-3.033-7.01-3.53-12.298-.026-.277-.051-.539-.087-.917l.496-.047c.022.23.055.58.087.919.485 5.159 1.012 10.767 3.259 11.898h.0001.0001c.568.286 1.047.64 1.446 1.049.398.409.715.873.958 1.379 1.225 2.553.555 6.179-.931 9.253-.807 1.67-1.187 3.159-1.193 4.517-.007 1.349.355 2.574 1.032 3.724.318.54.929.374 1.555.203.252-.069.507-.138.77-.173 1.034-.138 1.866-.075 2.523.146.92.309 1.495.92 1.795 1.722.291.775.317 1.724.148 2.744-.282 1.7-1.112 3.611-2.164 5.228-1.294 1.989-2.096 3.757-2.392 5.26-.482 2.452.511 4.282 2.913 5.059 1.371.444 3.205.597 5.515.423 2.105-.158 3.788.075 5.107.586 2.426.939 3.843 3.02 4.04 5.58.102 1.361-.127 2.792-.59 4.114l11.928-.38c-2.332-.959-5.994-2.638-6.06-5.159v-.002-.04-.003c-.0001-.197.006-.384.021-.563-.422.125-.746.32-.973.558-.233.244-.365.534-.395.841-.031.312.043.646.221.97.243.441.679.862 1.311 1.191l-.231.443c-.724-.377-1.23-.871-1.518-1.394-.227-.413-.32-.846-.28-1.259.041-.417.218-.81.53-1.136.324-.34.793-.606 1.403-.75.087-.504.227-.946.364-1.382.335-1.065.66-2.098.113-3.947-.423-1.432-1.797-2.377-3.083-2.983-2.531-1.194-5.549-1.416-8.283-.92-.343.062-.666.136-.965.219l-.005.0001c-1.622.451-3.099.67-3.852.057-.768-.625-.748-2.037.689-4.801 2.321-4.466 2.766-8.694.734-12.455-.395-.732-.885-1.447-1.473-2.144-.591-.701-1.28-1.382-2.071-2.042l-.004-.004c-1.139-.95-2.068-1.949-2.694-3.085-.632-1.146-.955-2.427-.877-3.93.066-1.265.028-2.536-.065-3.809-.093-1.269-.244-2.549-.402-3.829-.117-.941-.376-1.198-.863-1.682-.162-.161-.348-.346-.554-.574-2.102-2.336-3.267-5.258-3.807-8.302-.104-.585-.184-1.18-.245-1.781-.051-.513-.087-1.028-.109-1.543-.326-.025-.651-.081-.977-.161-1.194-.296-2.378-.934-3.548-1.676m-.938-7.108l.853 6.461c1.248.813 2.506 1.53 3.752 1.839 1.266.314 2.532.204 3.782-.67-.274-.265-.554-.542-.844-.829-.808-.798-1.694-1.675-2.741-2.584l.326-.377c1.061.921 1.952 1.802 2.765 2.605.834.825 1.584 1.566 2.34 2.174 2.917 2.345 4.712 3.581 6.445 3.098 1.683-.47 3.402-2.536 6.106-6.738-.138.053-.28.103-.426.15-.491.16-.979.262-1.461.312-.372.038-.74.046-1.102.024-.97 1.371-1.911 2.161-2.947 2.423-2.264.573-4.864-1.376-9.105-5.279-2.796-.197-5.48-1.12-7.742-2.609m14.351 1.689c1.195 1.737 3.063 3.03 5.18 3.253l.026.003c1.065-1.577 2.193-3.916 3.562-7.096l.459.197c-1.305 3.03-2.405 5.32-3.454 6.932.238.003.478-.008.721-.033.446-.046.899-.141 1.356-.29 1.098-.358 1.926-.849 2.471-1.545.543-.694.815-1.603.803-2.804-.015-1.504-.421-3.134-.907-4.282-.093-.219-.19-.422-.288-.605-.016-.029-.031-.057-.047-.084-.334.615-.834 1.123-1.514 1.462-.511.255-1.123.413-1.84.446-.436.509-.908.987-1.412 1.433-1.476 1.306-3.221 2.331-5.116 3.01m-5.831.956c3.85 3.514 6.239 5.257 8.206 4.759.865-.219 1.671-.872 2.505-1.997-2.212-.321-4.145-1.712-5.368-3.551-1.592.516-3.28.793-4.995.793v.0001h-.0001v-.0001c-.116 0-.232-.002-.347-.004" fill="url(#3)"/><g fill="#fff"><path d="m96.05 79.85l-.355 1.175c.453 2.531 1.341 4.179 2.347 4.934.673.505 1.347.596 2.087.134.685-.427 1.331-1.271 1.837-2.528.148-.368.284-.771.405-1.208.115-.415.216-.865.302-1.347l-.35-1.159c-.296.072-.593.091-.882.066-.843-.075-1.614-.539-2.137-1.192-.04-.05-.079-.102-.117-.155-.524.734-1.319 1.24-2.184 1.339-.317.036-.641.016-.952-.058"/><path d="m101.05 85.984c-.217.219-.442.4-.672.543-.932.577-1.76.49-2.635-.166-.144-.108-.286-.233-.425-.373l-.445 4.312c.769.094 1.538.134 2.306.125h.006c.77.009 1.54-.03 2.31-.125l-.445-4.315"/></g><path d="m109.61 94.1c.041-2.1 1.218-3.643 2.939-4.555.239-.127.489-.241.748-.343h-.034c-.859.007-1.763.097-2.712.278-.95.182-1.942.455-2.974.828l-5.615 2.229 1.467 4.158-.471.166-1.627-4.609 4.187-1.662-.914-.457c-1.806.575-3.613.816-5.42.794-1.807.022-3.614-.219-5.42-.794l-.939.469 4.156 1.65-1.627 4.609-.471-.166 1.467-4.158-5.612-2.228h-.0001-.003c-1.224-.443-2.389-.745-3.494-.92-1.101-.174-2.144-.223-3.127-.16-5.03.322-8.474 3.59-10.09 7.884v.0001l-.0001.004c-.244.651-.447 1.327-.608 2.02-.161.695-.278 1.406-.352 2.127-.38 3.711.399 7.694 2.475 11.02 1.973 3.165 4.266 5.957 7.278 7.911 2.888 1.874 6.448 2.983 11.03 2.922l-4.141-4.613c-1.01-.192-1.99-.525-2.911-.98-2.427-1.199-4.457-3.246-5.609-5.794l.455-.205c1.104 2.442 3.049 4.403 5.375 5.552.832.411 1.716.719 2.625.906l2.813-11.917c-3.469.297-7.708-.522-9.969-3.421-.35-.449-.644-.942-.871-1.479v-.002l.459-.193v.002c.21.496.481.951.805 1.366.61.782 1.4 1.409 2.265 1.888.441-.313.852-.675 1.201-1.089.892-1.059 1.223-2.283.747-3.383l.457-.197c.558 1.289.19 2.698-.823 3.901-.321.382-.689.722-1.086 1.024.716.343 1.495.607 2.313.795.511-.329.963-.705 1.33-1.154.394-.482.69-1.051.852-1.741l.486.113c-.181.77-.511 1.405-.951 1.944-.299.366-.65.687-1.039.975 1.33.232 2.739.271 4.121.121.802-.087 1.608-.244 2.411-.43 1.092-.254 2.426-.593 3.373-1.296.933-.692 1.465-1.686 1.828-2.761.235-.695.442-1.307 1.225-1.773l2.805-1.668v-3.513h5.212m-4.236-4.139l-2.398-7.943c-.141.592-.318 1.176-.546 1.741-.272.677-.588 1.246-.931 1.707l.492 4.77c.903-.139 1.784-.357 2.652-.639l.731.366m17.352 4.139c-.728-1.058-1.604-1.99-2.623-2.749-.221.052-.433.117-.634.195-.211.082-.412.179-.601.289-.871.508-1.471 1.299-1.715 2.265h5.572m-6.085 0c.255-1.153.95-2.098 1.978-2.696.209-.122.433-.23.671-.322.093-.036.188-.07.284-.1-.571-.374-1.183-.697-1.834-.961-.327.05-.632.126-.915.226-.292.103-.564.231-.816.382-1.213.73-1.915 1.995-2.092 3.472h2.724m-3.227 0c.183-1.652.968-3.075 2.337-3.899.278-.167.581-.31.909-.425.067-.023.134-.045.202-.066-.656-.201-1.347-.346-2.074-.428-.338.07-.668.159-.985.267-.359.122-.701.269-1.022.439-1.562.827-2.631 2.222-2.673 4.114h3.306m-22.18-4.13l.972.386.183-.091 3.331-11.03c.412.136.791.239 1.228.189 1.117-.128 1.743-.919 2.238-1.826.513.914 1.104 1.722 2.268 1.812.386.03.788-.035 1.203-.177l3.334 11.04.149.075.991-.394-3.117-10.376c-.218-.725-.374-1.477-.711-2.159v-.0001c-.419-.846-1.09-1.544-1.915-1.996-.743-.407-1.597-.599-2.444-.555-1.202.063-2.283.588-3.066 1.402-.326.339-.6.728-.809 1.149-.338.683-.494 1.435-.712 2.159v.0001l-3.122 10.396m4.163-7.938l-2.393 7.925.722-.361c.869.283 1.752.501 2.656.64l.492-4.766c-.603-.809-1.122-1.957-1.477-3.438m-13.182 120.9l.581-4.546h-4.966l-.6 4.546h4.985m32.546-4.545l.581 4.545h4.808l-.6-4.545h-4.789m-22.542-69.802l-10.118 79.16h33.35l-10.118-79.16.494-.063 8.866 69.37h4.787l-8.291-62.819-.105-.07.08-.121-.916-6.944c-.409-.295-.802-.609-1.178-.942-2.832-2.507-4.673-6.05-4.673-10.18h-.0001v-13.04c-.731.512-1.487 1.111-2.138 2.051-.44.636-1.016 1.184-1.76 1.438-1.286.439-2.758.843-4.246 1.251-1.412.387-2.84.779-4.144 1.212l-2 8.479 4.123 4.593 1.155-12.803.496.043-1.223 13.563c-2.319.078-4.621-.079-6.872-.672l-9.893 74.957h4.964l8.866-69.37.494.063" fill="url(#2)"/><path d="m128.04 196.56c.911-.506 1.899-.642 2.808-.48 1.551.276 2.84 1.421 3.199 2.969.367 1.577-.291 3.529-1.505 4.63-1.106 1-2.608 1.326-4.099 1.202-.901-.075-1.703-.063-2.399.143-.679.201-1.268.594-1.767 1.283l-.404-.293c.57-.786 1.248-1.236 2.031-1.468.766-.227 1.625-.242 2.581-.163 1.366.113 2.733-.174 3.724-1.073 1.082-.981 1.678-2.75 1.353-4.15-.314-1.353-1.446-2.348-2.799-2.588-.804-.143-1.676-.024-2.48.423l-.242-.435m-43.579 5.852h6.298l6.297-92.85.498.033-6.295 92.82h14.809l-4.948-92.82.498-.025 4.95 92.85h6.529v.5h-28.635v-.5" fill="#1f1a17"/></g><path d="m101.9 81.51c-.486-.216-1.368-.277-1.838 0 .387.944 1.601.543 1.838 0m-3.139 3.521l.394.085.385-.09.091.389-.472.11-.481-.104.084-.391m-.639-.382l.687-.068.341.063.339-.069.665.073-.042.397-.607-.067-.352.071-.36-.067-.631.062-.039-.397m1-3.725l-.128 2.807-.398-.017.128-2.807.398.017m.559-.578l.007-.006c.695-.613 1.653-.675 2.383-.008l-.269.295c-.578-.528-1.306-.467-1.85.012l-.007.005-.264-.298m-1.181.339l-.004-.004c-.554-.489-1.365-.564-1.948-.032l-.269-.295c.735-.671 1.777-.593 2.48.028l.004.004-.264.298m-2.133.825c.486-.216 1.368-.277 1.838 0-.388.944-1.601.543-1.838 0"/></g></svg>