<svg xmlns="http://www.w3.org/2000/svg" width="300" height="359" viewBox="0 0 84.666667 101.31778" fill-rule="evenodd"><path d="m62.58 48.41c.828 0 1.5.672 1.5 1.5v1.5c0 .828-.672 1.5-1.5 1.5h-1.5v-4.5h1.5m0 6c1.657 0 3-1.343 3-3v-1.5c0-1.657-1.343-3-3-3h-3v7.5h3m-6-7.5h1.5v7.5h-1.5v-7.5m-3 0h1.5v7.5h-1.5l-3-4.709v4.709h-1.5v-7.5h1.5l3 4.709v-4.709m-22.5 0h4.5v1.5h-3v1.5h3v1.5h-3v1.5h3v1.5h-4.5v-7.5m-6 0h1.5v6h3v1.5h-4.5v-7.5m15.75 6h1.5c1.242 0 2.25-1.01 2.25-2.25 0-1.242-1.027-2.245-2.25-2.25h-1.5v1.5h1.5c.414 0 .75.336.75.75 0 .414-.336.75-.75.75h-1.5v1.5m1.5-7.5c2.899 0 5.25 2.351 5.25 5.25 0 2.899-2.351 5.25-5.25 5.25-2.899 0-5.25-2.351-5.25-5.25 0-2.899 2.351-5.25 5.25-5.25m0 1.5c2.071 0 3.75 1.68 3.75 3.75 0 2.071-1.68 3.75-3.75 3.75-2.071 0-3.75-1.679-3.75-3.75 0-2.07 1.679-3.75 3.75-3.75" fill="#a90000"/><path d="m0 66.57c.099.847.226 1.687.384 2.517 3.482 18.307 20.941 32.23 41.949 32.23 21.01 0 38.467-13.923 41.949-32.23.158-.831.285-1.671.385-2.519v-66.57h-84.67v66.57"/><path d="m81.61 76.26c1.302-3.071 2.184-6.333 2.584-9.727v-66.07h-83.72v66.07c.4 3.394 1.283 6.656 2.585 9.728 6.099 14.383 21.386 24.585 39.28 24.585 17.891 0 33.18-10.202 39.28-24.586" fill="#d40028"/><path d="m38.16 53.1h7.961c-.879 3.44-1.448 6.924-1.808 10.454 2.205-2.893 4.637-5.598 7.239-8.14-2.397-7.128-5.728-13.917-9.411-20.462-3.684 6.545-7.01 13.334-9.411 20.462 2.601 2.542 5.03 5.248 7.239 8.14-.36-3.53-.929-7.01-1.808-10.454m-14.99 8.985c.302-1.446.649-2.883 1.035-4.309-1.088.011-1.984.866-2.139 1.918-.133.901.254 1.766.982 2.308h.0001c.039.028.08.055.12.082m12.653 15.543h-6.182c1.175 4.03 4.999 6.302 8.874 7.113l-5.614-3.308 2.922-3.805m4.822 0h-4.81l4.818 4.612c.007-1.537.006-3.075-.007-4.612m1.495 14.742c-3.504.009-7.04-.637-10.244-2.085-5.081-2.298-8.995-6.498-9.89-12.657h-4.766c-4.577 0-7.8-2.728-7.66-6.978v-56.646c9.463 4.533 18.866 9.01 26.588 16.33.761-1.335 1.536-2.661 2.324-3.98v-10.402h-7.162v-6.34h7.163v-6.107h7.291v6.107h7.163v6.34h-7.162v10.402c.787 1.319 1.563 2.646 2.324 3.98 7.722-7.318 17.13-11.797 26.588-16.33v56.646c.14 4.251-3.083 6.978-7.66 6.978h-4.766c-.894 6.158-4.809 10.359-9.89 12.657-3.203 1.448-6.74 2.094-10.244 2.085m-25.08-66.32v30.476c1.599-3.49 5.304-5.343 8.921-4.49 1.788-5.118 4.01-10.07 6.49-14.895-4.48-4.523-9.821-8.089-15.411-11.09m.909 44.676h4.02c.058-.852.111-1.705.197-2.555-2.25-.876-4.089-2.299-5.126-4.561v6.05c0 .82.109 1.019.909 1.061m12.614-7.613c-.532 2.507-.879 5.06-1.106 7.613h9.107c-2.575-2.625-5.15-5.281-8-7.613m15.1 7.613h9.107c-.227-2.553-.574-5.106-1.106-7.613-2.851 2.332-5.426 4.989-8 7.613m20.616 0c.801-.042.909-.241.909-1.061v-6.05c-1.037 2.262-2.875 3.685-5.126 4.561.086.849.139 1.703.197 2.555h4.02m.909-44.676c-5.59 3-10.931 6.568-15.411 11.09 2.476 4.821 4.702 9.778 6.49 14.895 3.617-.853 7.322 1 8.921 4.49v-30.476m-23.58 51.58c-.014 1.537-.015 3.075-.007 4.612l4.818-4.612h-4.81m4.821 0l2.922 3.805-5.614 3.308c3.876-.811 7.699-3.081 8.874-7.113h-6.182m12.653-15.543c.041-.027.081-.054.12-.082h.0001c.728-.542 1.115-1.407.982-2.308-.155-1.052-1.05-1.906-2.139-1.918.386 1.426.733 2.863 1.035 4.309" fill-rule="nonzero"/><path d="m42.14 92.01c-9.305.041-18.556-4.793-19.821-14.742h-5.078c-3.851 0-7.284-2.117-7.287-6.316h-.013v-.003-56.37c5.632 2.752 11.322 5.407 16.607 8.801 3.221 2.068 6.56 4.546 9.707 7.528.848-1.495 1.715-2.981 2.597-4.457v-10.857h-7.162v-5.622h7.162v-6.107h6.575v6.107h7.162v5.622h-7.162v10.857c.882 1.476 1.749 2.962 2.597 4.457 3.147-2.982 6.486-5.46 9.707-7.528 5.285-3.394 10.976-6.05 16.607-8.801v56.37.003h-.013c-.003 4.199-3.436 6.316-7.287 6.316h-5.078c-1.265 9.949-10.516 14.783-19.821 14.742m-3.518-38.552c.887 3.471 1.461 7.286 1.823 11.333-2.71-3.69-5.419-6.644-8.128-9.278.413-1.242.858-2.481 1.332-3.718 2.279-5.943 5.226-11.817 8.49-17.574 3.265 5.757 6.212 11.632 8.49 17.574.474 1.237.919 2.476 1.332 3.718-2.709 2.635-5.419 5.588-8.128 9.278.362-4.047.936-7.863 1.823-11.333h-7.04m-8.26 9.01c3.119 2.481 6.164 5.644 9.08 8.616h-10.355c.228-2.696.663-5.931 1.272-8.616m-8.03 8.616h-4.353c-1.087 0-1.269-.207-1.269-1.42v-8.654c.232 1.985 1.185 3.879 2.807 5.219l.02.021.005.004.006-.007c.894.733 1.956 1.296 3.035 1.687-.102.868-.186 2.28-.25 3.151m-5.622-11.967v-33.668c1.932 1.024 4.03 2.213 6.197 3.603 3.362 2.159 6.851 4.795 10.01 8.02-2.088 4.049-3.982 8.159-5.579 12.323-.391 1.02-.764 2.044-1.118 3.07-.94-.269-1.912-.343-2.863-.228-1.924.232-3.762 1.226-5.06 2.926l-.02.021-.004.006.007.006c-.893 1.18-1.411 2.539-1.573 3.922m12.469 18.15h11.825c.02 1.916.02 3.854.007 5.807l-5.137-4.918-2.436 3.173 6.873 4.049c-5.195-.527-9.974-3.219-11.131-8.11m-5.754-14.62c.349-1.739.766-3.47 1.243-5.193-.244-.043-.493-.049-.739-.02-.635.077-1.243.402-1.678.959l.002.0001-.004.006-.02.02-.005.007-.005-.004c-.427.566-.594 1.268-.518 1.946.074.661.387 1.293.922 1.745l.002-.0001.005.004.003.007.011.001-.004.006c.229.189.495.359.784.509zm37.439 0c.288-.15.554-.32.784-.509l-.004-.006.012-.001.003-.007.006-.004.0001.0001c.535-.452.848-1.084.922-1.745.076-.678-.091-1.38-.518-1.946l-.004.004-.006-.007-.02-.02-.004-.006.003-.0001c-.434-.557-1.042-.882-1.678-.959-.246-.03-.495-.023-.739.02.477 1.723.894 3.454 1.243 5.193zm-5.753 14.62c-1.157 4.891-5.936 7.583-11.131 8.11l6.873-4.049-2.436-3.173-5.137 4.918c-.013-1.952-.014-3.891.007-5.807h11.825m12.469-18.15c-.161-1.383-.68-2.742-1.573-3.922l.007-.006-.004-.006-.02-.021c-1.298-1.7-3.136-2.694-5.06-2.926-.95-.115-1.923-.041-2.863.228-.354-1.026-.727-2.05-1.118-3.07-1.597-4.165-3.491-8.275-5.579-12.323 3.16-3.225 6.649-5.861 10.01-8.02 2.164-1.39 4.265-2.579 6.197-3.603v33.668m-5.622 11.966c-.064-.871-.148-2.283-.25-3.151 1.079-.391 2.141-.954 3.035-1.687l.006.007.006-.004.02-.021c1.622-1.34 2.575-3.234 2.807-5.219v8.654c0 1.214-.182 1.42-1.269 1.42h-4.353m-8.04-8.615c.61 2.685 1.044 5.92 1.272 8.616h-10.355c2.918-2.972 5.964-6.134 9.08-8.616" fill="#fcdb00"/></svg>