<svg xmlns="http://www.w3.org/2000/svg" width="300" height="360" viewBox="0 0 84.666667 101.6" fill-rule="evenodd"><path d="m62.58 48.55c.828 0 1.5.672 1.5 1.5v1.5c0 .828-.672 1.5-1.5 1.5h-1.5v-4.5h1.5m0 6c1.657 0 3-1.343 3-3v-1.5c0-1.657-1.343-3-3-3h-3v7.5h3m-6-7.5h1.5v7.5h-1.5v-7.5m-3 0h1.5v7.5h-1.5l-3-4.709v4.709h-1.5v-7.5h1.5l3 4.709v-4.709m-22.5 0h4.5v1.5h-3v1.5h3v1.5h-3v1.5h3v1.5h-4.5v-7.5m-6 0h1.5v6h3v1.5h-4.5v-7.5m15.75 6h1.5c1.242 0 2.25-1.01 2.25-2.25 0-1.242-1.027-2.245-2.25-2.25h-1.5v1.5h1.5c.414 0 .75.336.75.75 0 .414-.336.75-.75.75h-1.5v1.5m1.5-7.5c2.899 0 5.25 2.351 5.25 5.25 0 2.899-2.351 5.25-5.25 5.25-2.899 0-5.25-2.351-5.25-5.25 0-2.899 2.351-5.25 5.25-5.25m0 1.5c2.071 0 3.75 1.68 3.75 3.75 0 2.071-1.68 3.75-3.75 3.75-2.071 0-3.75-1.679-3.75-3.75 0-2.07 1.679-3.75 3.75-3.75" fill="#a90000"/><g fill-rule="nonzero"><path d="m.0001 0v51.11c-.0001 17.08 10.792 32.706 25.03 42.35 5.293 3.585 11.146 6.414 17.307 8.146 6.161-1.732 12.01-4.561 17.307-8.146 14.233-9.639 25.03-25.27 25.03-42.35v-51.11h-84.66"/><path d="m84.22.455v50.662h-.0001c0 16.92-10.708 32.414-24.829 41.977-5.22 3.535-10.986 6.328-17.06 8.05-6.072-1.722-11.837-4.515-17.06-8.05-14.12-9.563-24.829-25.06-24.829-41.977v-50.662h83.78" fill="#ce2123"/><g transform="matrix(.53592 0 0 .53601-13.607-27.969)"><path d="m160.08 93.49v53.17l-28.23 26.83-27.87-26.5-27.87 26.5-28.22-26.83v-53.17l28.22 26.84 27.87-26.5 27.87 26.5z"/><path fill="#efea44" d="m48.59 146.35l27.52 26.17 27.87-26.5 27.87 26.5 27.52-26.17.001-51.22-27.53 26.17-27.87-26.5-27.87 26.5-27.521-26.17z"/></g><path d="m70.07 41.897l-10.419 9.908-.663-.697 10.419-9.908.663.697m0-5.834l-10.419 9.908-.663-.697 10.419-9.908.663.697m0-5.834l-10.419 9.908-.663-.697 10.419-9.908.663.697m0 17.501l-10.419 9.909-.663-.697 10.419-9.909.663.697m-25.356-6.531l10.419 9.908-.663.697-10.419-9.908.663-.697m0-5.834l10.419 9.908-.663.697-10.419-9.908.663-.697m0-5.834l10.419 9.908-.663.697-10.419-9.908.663-.697m0 17.501l10.419 9.909-.663.697-10.419-9.909.663-.697m-4.518-5.137l-10.419 9.908-.663-.697 10.419-9.908.663.697m0-5.834l-10.419 9.908-.663-.697 10.419-9.908.663.697m0-5.834l-10.419 9.908-.663-.697 10.419-9.908.663.697m0 17.501l-10.419 9.909-.663-.697 10.419-9.909.663.697m-25.356-6.531l10.419 9.908-.663.697-10.419-9.908.663-.697m0-5.834l10.419 9.908-.663.697-10.419-9.908.663-.697m0-5.834l10.419 9.908-.663.697-10.419-9.908.663-.697m0 17.501l10.419 9.909-.663.697-10.419-9.909.663-.697"/></g></svg>