<svg xmlns="http://www.w3.org/2000/svg" width="350" height="420" viewBox="0 0 98.777779 118.53334" fill-rule="evenodd"><path d="m69.64 57.02c.828 0 1.5.672 1.5 1.5v1.5c0 .828-.672 1.5-1.5 1.5h-1.5v-4.5h1.5m0 6c1.657 0 3-1.343 3-3v-1.5c0-1.657-1.343-3-3-3h-3v7.5h3m-6-7.5h1.5v7.5h-1.5v-7.5m-3 0h1.5v7.5h-1.5l-3-4.709v4.709h-1.5v-7.5h1.5l3 4.709v-4.709m-22.5 0h4.5v1.5h-3v1.5h3v1.5h-3v1.5h3v1.5h-4.5v-7.5m-6 0h1.5v6h3v1.5h-4.5v-7.5m15.75 6h1.5c1.242 0 2.25-1.01 2.25-2.25 0-1.242-1.026-2.246-2.25-2.25h-1.5v1.5h1.5c.414 0 .75.336.75.75 0 .414-.336.75-.75.75h-1.5v1.5m1.5-7.5c2.899 0 5.25 2.351 5.25 5.25 0 2.899-2.351 5.25-5.25 5.25-2.899 0-5.25-2.351-5.25-5.25 0-2.899 2.351-5.25 5.25-5.25m0 1.5c2.071 0 3.75 1.679 3.75 3.75 0 2.071-1.679 3.75-3.75 3.75-2.071 0-3.75-1.679-3.75-3.75 0-2.071 1.679-3.75 3.75-3.75" fill="#a90000"/><g transform="matrix(1.11322 0 0 1.11473-67.53-106.31)"><path d="m60.66 165.23c.104.889.237 1.771.403 2.642 3.649 19.213 21.947 33.826 43.963 33.826 22.02 0 40.31-14.612 43.963-33.825.166-.872.299-1.754.403-2.643v-69.865h-88.73v69.865"/><path d="m146.06 175.33c1.365-3.223 2.289-6.647 2.709-10.208v-69.34h-87.74v69.34c.419 3.562 1.344 6.986 2.709 10.209 6.391 15.1 22.413 25.802 41.16 25.802 18.75 0 34.771-10.707 41.16-25.803" fill="#027dc3"/><path d="m81.57 177.28c.227.628.329 1.39.336 1.994.013 1.18-.65.432-1.119-.376-.358-.617-.683-1.512-.791-2.218-.069-.445 0-.821.5-.716.546.114.9.832 1.075 1.316m32.836-37.609c3.2-.213 6.445-.076 9.612.375l-.07.494c-2.526-.36-5.103-.518-7.666-.456.637.261 1.234.634 1.807 1.093.839.673 1.78 1.264 2.793 1.637.99.365 2.152.577 3.658.598 3.733.05 5.463 2.229 4.939 5.607-1.586-2.072-3.243-3.278-4.883-3.069-3.46.44-5.295-1.488-7.303-3.44-.106-.103-.214-.201-.323-.292-1.937-.173-3.884-.2-5.828-.072l-.031-.497-.359-.254c.243-.701.901-1.765.579-2.441-.842-1.76-2.01-3.44-3.061-4.902-.995-1.381-1.466-3 .216-4.931 1.331-1.527 3.415-2.44 5.44-4.758-.729 3.513-2.654 4.314-3.202 6.722-.55 2.419.269 4.682 1.285 6.962 1.091-2.665 2.403-5.268 4.05-7.553-.388-1.217-.322-2.509-.101-3.752l.519.093c-.183 1.03-.261 2.099-.021 3.122.828-1.087 1.738-2.094 2.742-2.991.48-2.456.901-4.934.297-7.354-.474-1.9-.745-3.824-.379-5.896.47-2.663 2.541-4.156 4.068-6.34-.132 3.134.658 5.801.29 8.823-.529 4.353-2.55 7.557-3.28 9.939.745-.575 1.537-1.092 2.383-1.541.234-2.362 2.036-3.191 3.067-5.057.379-.687.62-1.418.749-2.214.455-2.81 1.795-3.35 3.454-5.224 2.818-3.183 5.04-3.699 6.656-3.944-2.812 1.759-5.141 3.977-5.724 7.451-.275 1.641-1.055 3.103-2.775 4.507-1.17.956-4.231 2.346-4.311 4.083 1.323-.4 2.56-1.041 3.71-1.801l.052.079c.373-.208.749-.421 1.128-.635 1.782-1 3.429-2.103 4.35-3.223.602-.732 1.614-1.409 2.801-1.95.831-.379 1.416-.788 1.898-1.046 1.547-.828 3.191-.615 4.787-.668-1.709.454-3.156 1.171-4.306 2.184-2.17 1.911-3.331 3.659-6.128 5.111-2.791 1.449-5.583 2.18-8.374 2.85 4.327-.364 6.853-1.18 9.731-2.166 1.698-.582 3.064-.625 3.821.105.94.906.38 2.707.028 4.679-.425 2.38-.766 5.01-.648 6.61-1.111-2.163-1.612-5.555-2.16-7.989-.366-1.623-1.355-2.362-3.339-1.737-3.257 1.026-6.214 1.044-9.236 1.365-.166.114-.329.231-.49.35 2.075.084 4.148-.013 6.21-.273l.067.524-.089.001-.001.0001c-2.256.261-4.544.389-6.813.229-2.136 1.728-3.866 3.9-5.301 6.284 2.455-1.694 5.12-2.895 7.966-3.358 2.171-.353 4.406-.362 6.902.501 1.657.573 2.713 1.603 3.171 3.505.818 3.394.607 6.5-.062 9.472-1.981-12.545-8.87-14.08-18.563-9.107-.23.413-.451.832-.666 1.255 2.117-1.012 7.669-4.62 11.773-2.462-6.485-.462-8.433 2.296-12.378 3.707-.201.431-.395.866-.582 1.302.784-.213 1.538-.55 2.32-.9l.003-.0001c.925-.414 1.891-.846 3.01-1.127 1.322-.332 2.65-.377 4-.206l-.066.523c-1.29-.164-2.558-.119-3.821.2-1.073.271-2.01.69-2.906 1.091l-.003.0001c-.93.416-1.82.814-2.791 1.023-.187.451-.367.92-.542 1.372.661-.084 1.314-.22 1.983-.22.093-.0001.184.0001.275.005m3.112 8.155l-.077.523c-2.387-.359-4.86-.29-7.195.35l-.159.045-.142-.508c.139-.039.278-.076.417-.111l.057-1.961c2.076-.791 4.153-2.02 6.23-3.446-1.01 2.355-3.133 3.981-5.265 5.184 2.02-.376 4.096-.379 6.135-.075m-6.01-6.232c1.537-.083 3.074-.074 4.606.027-1.396-.794-2.931-.852-4.388-.633-.074.202-.147.404-.218.606m-20.696 23.21c.853-.077 1.705-.215 2.558-.422 3.041-.737 5.04-2.307 8.245-2.523 2.579-.174 5.127-.121 8.06-.753-1.631-.41-2.611-.755-3.458-.99-2.066-.571-4.796-.513-6.829.076-2.773.804-4.615 2.51-7.835 3.485 1.287-.944 2.568-1.849 3.848-2.725 2.565-1.755 4.156-3.139 6.585-4.93l3.312-2.442-.416-.568-3.292 2.428c-2.283 1.683-4.313 2.925-6.671 4.562-1.486 1.032-2.968 2.07-4.445 3.132 1.221-1.971 1.353-4.413-.321-6.02-1.09-1.048-2.066-2.042-2.692-3.47-.459 1.403-.431 2.655 1.034 4.366 1.164 1.36 1.58 2.948.954 4.4-.504 1.17-.654 1.928-1.646 2.706-1.379 1.08-2.6 2.19-3.799 3.67-1.842 2.276-3.055 4.458-3.67 6.911 1.366.178 1.708 1.852 1.877 3.676l.063.028c.217-2.351.668-5.326 2.02-7.829.38-.706.757-1.418 1.156-2.114 1.964.146 3.715-.419 5.566.236 1.099.388 2.156.619 3.234.584 2.571-.082 3.641-.56 6.305.466-1.106-1.664-3.109-3.051-7.207-3.173-2.514-.075-4.851.724-7.252.868.588-.834 1.273-1.565 2.155-2.255.877-.686 1.454-1.275 2.567-1.375" fill="#633"/><path d="m90.8 164.63c.853-.077 1.7-.216 2.531-.417 1.221-.296 2.278-.729 3.313-1.154 1.54-.631 3.03-1.244 4.962-1.374.644-.044 1.302-.073 1.963-.103 1.702-.077 3.435-.156 5.316-.498-.706-.191-1.279-.366-1.776-.518-.34-.104-.644-.196-.941-.279l-.02-.006c-.281-.077-.578-.143-.888-.197-.311-.055-.627-.097-.945-.128-1.651-.158-3.443-.001-4.879.406-1.334.387-2.459.99-3.629 1.618-1.244.668-2.54 1.363-4.204 1.867l-.985.298.83-.609c.63-.462 1.274-.925 1.93-1.389.66-.467 1.301-.913 1.924-1.339 1.57-1.074 2.773-2.01 4.03-2.982.796-.618 1.612-1.251 2.552-1.945l3.17-2.338-.208-.284-3.15 2.323c-1.389 1.024-2.681 1.883-4.01 2.766-.858.57-1.731 1.151-2.665 1.799-.757.525-1.502 1.045-2.225 1.554-.756.532-1.498 1.059-2.218 1.576l-.707.508c.481-.786.957-1.541 1.19-2.442.381-1.474.123-2.997-1.028-4.105-.548-.527-1.068-1.041-1.534-1.608-.375-.457-.712-.945-.996-1.496-.128.517-.171 1.02-.072 1.542.127.672.489 1.386 1.199 2.216l.002.003c.696.814 1.218 1.817 1.279 2.903.047.846-.245 1.526-.548 2.283-.347.867-.604 1.506-1.45 2.17-.684.536-1.33 1.08-1.954 1.674-.623.593-1.223 1.235-1.817 1.969-.914 1.129-1.671 2.234-2.277 3.361-.573 1.067-1.01 2.154-1.312 3.3.644.154 1.058.631 1.332 1.292.157.378.267.818.349 1.292.105-.845.248-1.737.454-2.638.312-1.364.767-2.749 1.45-4.02l.211-.393c.328-.611.657-1.221 1-1.822.738.055 1.466.022 2.203-.024 1.18-.074 2.323-.145 3.519.278 1.018.36 2.084.609 3.17.575 1.122-.036 2.246-.21 3.368-.181.731.019 1.489.135 2.46.461-.506-.629-1.173-1.198-2.078-1.646-.936-.463-2.126-.797-3.656-.933-1.018-.09-2.027-.073-3.042.05-1.277.154-2.537.43-3.813.602-.606.082-1.206.147-1.744.18.694-.984 1.451-1.847 2.402-2.59.827-.647 1.55-1.312 2.66-1.412m23.3-24.787c-.733.008-1.495.138-2.221.236.222-.576.448-1.151.685-1.72.988-.2 1.896-.606 2.846-1.031l.003-.0001c.904-.404 1.847-.826 2.934-1.101 1.068-.27 2.273-.397 3.711-.225l.022-.174c-1.462-.175-2.682-.048-3.761.224-1.103.277-2.061.706-2.978 1.116l-.003.0001c-.903.404-1.768.791-2.692.994.241-.57.492-1.136.753-1.697 1.13-.405 2.176-.952 3.228-1.522 2.178-1.181 4.34-2.353 8.279-2.267-3.322-1.036-7.345 1.088-9.656 2.308-.326.172-.739.334-1.043.536h-.0001l-.459.212c.307-.606.595-1.208.971-1.813 4.893-2.509 9.09-3.343 12.321-1.991 3.08 1.288 5.269 4.572 6.338 10.341.225-1.187.37-2.396.397-3.638.034-1.558-.117-3.169-.522-4.851-.221-.919-.586-1.626-1.094-2.171-.508-.545-1.162-.931-1.964-1.208-1.231-.426-2.398-.637-3.525-.697-1.129-.061-2.218.029-3.292.203-2.028.33-3.963 1.039-5.796 2.036-.358.195-.712.4-1.059.615-.348.214-.693.44-1.036.677l-.003.002-.67.461.419-.696c.844-1.401 1.79-2.732 2.862-3.945.778-.881 1.623-1.695 2.536-2.428 2.252.163 4.525.042 6.767-.214l-.022-.173c-2.17.271-4.364.348-6.547.23.298-.233.604-.458.916-.674.715-.076 1.431-.137 2.148-.196 2.302-.192 4.617-.385 7.098-1.167 1.042-.328 1.832-.294 2.416.04.588.336.953.966 1.147 1.826.12.534.239 1.117.362 1.723.37 1.82.783 3.852 1.428 5.444.012-1.066.148-2.383.342-3.733.098-.68.209-1.358.329-2.034l.003-.012c.055-.309.114-.609.172-.901.308-1.558.577-2.922-.148-3.621-.498-.48-1.3-.592-2.309-.418-1.087.188-2.155.643-3.199.974-.797.253-1.605.489-2.473.699-1.542.375-3.264.672-5.436.854l-.304-.112.249-.234c1.391-.334 2.782-.683 4.174-1.129 1.387-.445 2.774-.987 4.16-1.706 1.921-.997 3.066-2.141 4.309-3.383.552-.552 1.124-1.123 1.784-1.704.944-.831 2.06-1.439 3.238-1.866-1.192.0001-2.391.033-3.519.637-.642.344-1.241.747-1.908 1.051-.887.404-1.78.913-2.472 1.609-.097.097-.185.195-.265.292l-.003.004c-1.132 1.374-3.321 2.708-5.523 3.875l.15.227-.074.05h-.0001c-1.273.841-2.658 1.512-4.132 1.915l.007-.181c1.411-.388 2.735-1.036 3.957-1.834l-.097-.147c-1.189.777-2.483 1.414-3.853 1.796.014-.378.087-.772.278-1.118.549-.993 1.853-1.834 2.937-2.532 1.228-.792 2.294-1.629 3.067-2.927.432-.725.689-1.482.823-2.282.297-1.77 1.039-3.221 2.065-4.452.842-1.01 1.873-1.871 3-2.64-.594.131-1.251.335-1.972.697-1.091.548-2.332 1.461-3.724 3.033-.413.466-.803.848-1.165 1.202-1.084 1.061-1.913 1.872-2.247 3.933-.129.795-.379 1.565-.769 2.272-.386.699-.874 1.251-1.35 1.79-.906 1.01-1.596 1.898-1.706 3.293-1.029.545-1.96 1.197-2.878 1.907.326-1.063.734-2.076 1.175-3.097.859-1.987 1.901-4.4 2.259-7.334v-.006c.201-1.652.052-3.201-.1-4.78-.108-1.122-.217-2.26-.206-3.463-.376.495-.77.955-1.159 1.409-1.139 1.328-2.226 2.597-2.545 4.403-.18 1.02-.204 2-.124 2.968.08.967.265 1.914.5 2.855.307 1.23.354 2.473.263 3.718-.093 1.269-.325 2.523-.569 3.769-1.11.991-2.097 2.103-2.979 3.295-.338-1.088-.299-2.262-.109-3.374l-.173-.031c-.202 1.181-.234 2.431.154 3.579-.376.517-.733 1.048-1.072 1.591-1.264 2.023-2.265 4.174-3.167 6.377-.555-1.246-1.103-2.501-1.408-3.837-.268-1.177-.337-2.373-.055-3.61.253-1.111.784-1.881 1.36-2.717.606-.878 1.264-1.833 1.683-3.345-.976 1.018-1.948 1.748-2.832 2.41-.819.614-1.56 1.17-2.145 1.841-.808.926-1.099 1.772-1.069 2.549.03.778.383 1.498.863 2.163.53.735 1.087 1.524 1.615 2.347.531.827 1.036 1.693 1.461 2.582.368.77-.246 1.732-.525 2.45l.364.257c.09-.252.181-.504.273-.756 1.01-.153 2.025-.193 3.03.032.687.154 1.287.422 1.838.782.763.058 1.525.138 2.284.241-.258-.178-.512-.368-.767-.568-1.12-.904-2.529-1.596-3.881-1.471zm3.15 2.396c.128.111.254.227.379.349 1.897 1.848 3.693 3.598 6.945 3.185 1.237-.157 2.473.442 3.675 1.587.398.379.764.791 1.109 1.218.125-1.221-.056-2.523-.879-3.49-.622-.73-1.561-1.219-2.802-1.411-.355-.055-.735-.086-1.14-.091-1.579-.021-2.787-.251-3.816-.645-.369-.141-.714-.303-1.046-.483l-.015.093c-.802-.129-1.606-.232-2.412-.311m-3.63 2.59c-1.01.568-2.02 1.062-3.03 1.454l-.054 1.875c1.131-.591 2.299-1.294 3.33-2.153.939-.783 1.763-1.698 2.341-2.779-.863.578-1.725 1.118-2.588 1.603m-33.34 31.3c-.23.058-.109.539-.075.712.089.45.255.956.454 1.407.047.106.092.203.136.291.047.092.095.181.143.265l.0001.003c.077.131.157.26.239.378.048.069.429.592.512.504.091-.097.042-.465.036-.612-.016-.36-.064-.763-.151-1.151-.108-.486-.301-1.071-.63-1.459-.131-.155-.417-.403-.666-.34m32.12-34.403c-.365.012-.733.03-1.103.053l.011.176c1.979-.125 3.958-.091 5.938.102.391.038.782.083 1.173.133.366.047.733.101 1.099.159l.028-.174c-1.989-.316-3.978-.473-5.967-.47-.392.0001-.785.008-1.178.021m-2.236 6.629l.047.169c2.293-.626 4.735-.715 7.084-.377l.025-.174c-2.37-.341-4.84-.25-7.156.383m5.672-8.436c2.66-.092 5.328.054 7.965.42l.021-.146c-2.8-.388-5.638-.529-8.462-.402.162.036.32.078.477.127" fill="#fc0" fill-rule="nonzero"/><g><g><ellipse transform="matrix(.97308.12047-.12654 1.02211 125.16 140.54)" rx="1.934" ry="1.363" cx="0" cy="0" fill="#1a0018"/><path d="m125.66 139.78c-.229.002-.225-.258.003-.26.437-.003.95.406 1.025.817.041.226-.318.291-.346.063-.029-.241-.403-.623-.683-.621" fill="#fff" fill-rule="nonzero"/></g><g><ellipse transform="matrix(.77971-.41536.4363.819 128.52 121.97)" rx="1.934" ry="1.363" cx="0" cy="0" fill="#1a0018"/><path d="m128.5 121.15c-.168.12-.3-.073-.132-.193.32-.229.911-.193 1.179.071.147.145-.084.379-.222.226-.146-.162-.62-.251-.825-.104" fill="#fff" fill-rule="nonzero"/></g><g><ellipse transform="matrix(.86823-.16326.17148.91198 128.26 126.14)" rx="1.934" ry="1.363" cx="0" cy="0" fill="#1a0018"/><path d="m128.49 125.36c-.196.064-.264-.16-.068-.224.374-.123.927.088 1.104.42.097.182-.193.337-.28.149-.091-.199-.516-.424-.756-.346" fill="#fff" fill-rule="nonzero"/></g><g><ellipse transform="matrix(.82088.32654-.343.86225 122.94 136.48)" rx="1.934" ry="1.363" cx="0" cy="0" fill="#1a0018"/><path d="m123.55 135.94c-.2-.051-.138-.276.062-.226.381.097.736.57.708.946-.015.206-.344.181-.316-.024.029-.217-.209-.635-.454-.697" fill="#fff" fill-rule="nonzero"/></g><g><ellipse transform="matrix(.83013.30226-.31749.87196 120.33 142.66)" rx="1.934" ry="1.363" cx="0" cy="0" fill="#1a0018"/><path d="m120.92 142.09c-.202-.045-.146-.272.055-.227.384.085.752.548.735.924-.009.206-.338.191-.317-.014.023-.217-.228-.628-.474-.683" fill="#fff" fill-rule="nonzero"/></g><g><ellipse transform="matrix(.95616.21715-.22809 1.0043 118.72 148.44)" rx="1.934" ry="1.363" cx="0" cy="0" fill="#1a0018"/><path d="m119.3 147.73c-.228-.021-.198-.279.029-.258.435.041.905.499.939.916.018.228-.346.258-.351.029-.005-.243-.338-.66-.617-.686" fill="#fff" fill-rule="nonzero"/></g><g><ellipse transform="matrix(.20131-.7714.81028.21145 116.38 126.15)" rx="1.934" ry="1.363" cx="0" cy="0" fill="#1a0018"/><path d="m115.82 125.67c-.023.185-.232.154-.209-.03.044-.352.429-.722.768-.739.186-.009.2.288.014.286-.197-.002-.545.258-.573.484" fill="#fff" fill-rule="nonzero"/></g></g><g fill-rule="nonzero"><path d="m108.3 149.58c.262-1.071.71-1.989 1.222-2.609.526-.636 1.124-.962 1.67-.83h.002c.546.134.927.7 1.1 1.507.169.786.143 1.806-.119 2.877-.093.38-.208.738-.342 1.072.132.419.168.839.061 1.28-.297 1.214-1.54 1.97-2.755 1.674-1.215-.297-1.97-1.541-1.674-2.756.108-.44.33-.801.645-1.108.035-.357.097-.727.19-1.107"/><path d="m111.79 152.28c-.004-.169-.028-.337-.072-.5l-.251.152.242.398.082-.05m-.327-.631c-.056.0001-.111.002-.167.0001l.044.073.123-.074m-.457-.007c-.125-.007-.25-.017-.374-.032l-.138.084.242.398.398-.242-.127-.208m-.901-.117c-.167-.034-.332-.076-.495-.124l-.091.055.242.398.398-.241-.053-.088m-1.013-.303c-.109-.043-.218-.09-.324-.139l-.223.135.242.398.398-.242-.092-.152m-.583-.267c-.062-.033-.124-.067-.186-.102l.095.157.091-.055m-.416-.011c-.113.129-.209.271-.287.423l.007.011.398-.242-.117-.193m-.442.817c-.053.191-.08.391-.077.59v.0001l.398-.242-.241-.398-.079.048m.039 1.251c.009.027.019.054.03.081l.014-.008-.044-.072m.132.303c.073.137.161.267.262.385l.017-.011-.242-.398-.038.023m1.109.985c.08.03.163.057.248.078h.002c.063.016.126.028.189.037l-.169-.279-.27.164m1.237.078l.008-.002-.0001-.002-.007.004m.248-.077c.146-.055.286-.126.416-.211l-.051-.084-.398.242.033.054m.613-.356c.088-.073.169-.152.245-.239l-.285.173.04.066m.556-.713c.06-.126.108-.259.142-.399l-.103-.17-.398.242.242.398.117-.071m-.727-.933l.242.398.398-.242-.242-.398-.398.242m.401 1.13l-.242-.398-.398.242.242.398.398-.242m-.368-.606l-.242-.398-.398.242.242.398.398-.241m-.368-.606l-.242-.398-.398.242.242.398.398-.242m-1.847 1.951l.398-.242-.242-.398-.398.242.242.398m.606-.368l.398-.241-.242-.398-.398.242.242.398m.606-.368l.398-.242-.242-.398-.398.241.242.398m.524-.033l-.398.242.242.398.398-.242-.242-.398m-.606.368l-.398.242.242.398.398-.242-.242-.398m-1.498-.205l.398-.242-.242-.398-.398.242.242.398m.606-.368l.398-.242-.242-.398-.398.242.242.398m.606-.368l.398-.242-.242-.398-.398.242.242.398m-1.58.13l.398-.242-.242-.398-.398.242.242.398m.606-.368l.398-.242-.242-.398-.398.242.242.398m.606-.368l.398-.242-.242-.398-.398.242.242.398m-.974-.238l.398-.242-.242-.398-.398.242.242.398m3.831-1.504l.0001-.004c.254-1.043.28-2.036.117-2.798-.159-.742-.496-1.26-.974-1.376-.478-.116-1.015.187-1.499.772-.497.601-.932 1.495-1.188 2.541-.085.349-.144.69-.18 1.019 1.06.62 2.186.9 3.413.834.121-.309.225-.639.31-.987" fill="#fc0"/><path d="m94.8 153.63c-.985.367-1.948.505-2.711.432-.782-.074-1.36-.371-1.547-.873v-.002c-.186-.502.056-1.105.599-1.673.53-.554 1.347-1.079 2.331-1.446.349-.13.694-.231 1.028-.304.26-.328.571-.582.977-.733 1.116-.416 2.377.161 2.793 1.277.416 1.117-.16 2.377-1.277 2.794-.404.15-.808.169-1.219.085-.3.163-.626.313-.974.442"/><path d="m95.07 149.43c-.131.093-.251.203-.356.325l.254.116.184-.403-.083-.038m-.322.595c.031.043.061.087.091.131l.034-.074-.124-.057m.239.364c.062.102.12.206.175.312l.141.064.184-.403-.403-.184-.097.211m.39.773c.062.15.118.302.167.457l.092.042.184-.403-.403-.184-.04.089m.303.96c.024.109.046.22.064.33l.226.103.184-.403-.403-.184-.07.154m.101.603c.008.067.014.134.019.201l.073-.159-.092-.042m.214.334c.162.02.326.02.487 0l.005-.011-.403-.184-.089.195m.88-.089c.179-.06.351-.146.507-.255l-.403-.185-.184.403.081.037m.965-.7c.016-.022.032-.044.048-.067l-.014-.006-.034.073m.168-.267c.069-.131.124-.269.163-.413l-.018-.008-.184.403.038.018m.183-1.402c-.019-.079-.042-.159-.072-.237v-.0001c-.021-.058-.046-.114-.072-.169l-.129.283.274.125m-.6-1.017l-.006-.006-.0001.002.007.003zm-.193-.155c-.122-.086-.252-.158-.389-.215l-.039.085.403.184.025-.055m-.609-.292c-.104-.03-.211-.052-.319-.065l.288.132.031-.066m-.859-.057c-.131.02-.262.054-.391.101l-.079.172.403.184.184-.403-.118-.054m-.347 1.072l.184-.403-.403-.184-.184.403.403.184m.676-.921l-.184.403.403.184.184-.403-.403-.184m-.281.614l-.184.403.403.184.184-.403-.403-.184m-.281.614l-.184.403.403.184.184-.403-.403-.184m2.527.412l-.403-.184-.184.403.403.184.184-.403m-.614-.281l-.403-.184-.184.403.403.184.184-.403m-.614-.281l-.403-.184-.184.403.403.184.184-.403m-.307-.395l.403.184.184-.403-.403-.184-.184.403m.614.281l.403.184.184-.403-.403-.184-.184.403m.64 1.29l-.403-.184-.184.403.403.184.184-.403m-.614-.281l-.403-.184-.184.403.403.184.184-.403m-.614-.281l-.403-.184-.184.403.403.184.184-.403m.948 1.176l-.403-.184-.184.403.403.184.184-.403m-.614-.281l-.403-.184-.184.403.403.184.184-.403m-.614-.281l-.403-.184-.184.403.403.184.184-.403m.333.895l-.403-.184-.184.403.403.184.184-.403m-3.234-2.215l-.004.0001c-.958.357-1.755.868-2.268 1.405-.5.523-.727 1.065-.564 1.504.164.439.691.7 1.41.768.74.07 1.677-.065 2.638-.423.32-.119.621-.256.899-.404-.078-1.167-.46-2.205-1.168-3.136-.308.07-.624.165-.944.284" fill="#fc0"/><path d="m84.76 129.75c-1.134-.044-2.152-.306-2.883-.695-.749-.399-1.202-.935-1.18-1.513v-.002c.023-.578.515-1.079 1.293-1.42.758-.332 1.792-.516 2.926-.473.402.015.788.058 1.151.124.396-.219.811-.343 1.278-.325 1.286.049 2.303 1.148 2.255 2.434-.05 1.286-1.148 2.304-2.435 2.255-.465-.018-.876-.167-1.251-.422-.367.038-.754.052-1.155.036"/><path d="m86.77 125.68c-.169.039-.334.098-.49.176l.205.222.351-.325-.067-.072m-.569.46c.013.056.025.112.036.168l.064-.06-.1-.108m.087.463c.019.128.034.256.045.384l.113.122.351-.325-.326-.352-.184.171m.068.932c0 .175-.008.35-.023.525l.075.08.351-.326-.325-.351-.077.072m-.096 1.084c-.021.119-.046.238-.074.356l.182.197.351-.326-.325-.351-.134.124m-.15.643c-.02.07-.042.139-.064.208l.138-.128-.074-.08m.074.422c.153.087.317.155.486.203l.001-.009-.326-.351-.17.158m.915.277c.203.015.411 0 .611-.044l-.325-.352-.351.325.065.07m1.254-.297c.025-.015.05-.031.075-.047l-.011-.012-.064.059m.279-.196c.124-.102.236-.217.335-.344l-.014-.015-.351.326.031.033m.765-1.322c.014-.087.024-.176.027-.266v-.003c.003-.067.002-.133-.002-.199l-.246.228.221.239m-.176-1.263l-.004-.008-.002.002.006.006m-.128-.234c-.086-.136-.186-.262-.299-.376l-.075.069.325.351.048-.044m-.486-.545c-.091-.073-.189-.14-.291-.198l.233.251.058-.054m-.833-.414c-.139-.034-.283-.055-.432-.061l-.15.139.326.351.351-.326-.096-.103m-.791.925l.351-.326-.326-.351-.351.325.326.352m1.057-.638l-.351.326.326.351.352-.326-.326-.351m-.535.496l-.351.326.326.351.351-.325-.325-.351m-.535.496l-.351.325.325.351.351-.326-.326-.351m2.348 1.461l-.326-.351-.351.326.325.351.351-.326m-.496-.535l-.325-.351-.351.326.326.351.351-.325m-.496-.535l-.326-.351-.351.326.325.351.351-.326m-.142-.522l.326.351.351-.326-.325-.351-.352.326m.496.535l.325.351.352-.326-.326-.351-.351.326m.102 1.553l-.326-.351-.351.326.326.351.351-.326m-.496-.535l-.326-.351-.351.325.325.351.351-.326m-.496-.535l-.325-.351-.351.326.326.351.351-.325m.456 1.566l-.326-.351-.351.326.325.351.351-.325m-.496-.535l-.325-.351-.351.326.326.351.351-.326m-.496-.535l-.326-.351-.351.325.325.351.351-.326m-.039 1.031l-.326-.351-.351.326.325.351.351-.325m-2.305-3.553h-.005c-1.104-.042-2.111.136-2.846.459-.715.313-1.168.76-1.187 1.266-.019.506.398.985 1.087 1.352.709.378 1.7.632 2.807.675.369.014.725.003 1.064-.029.407-1.196.458-2.389.138-3.613-.336-.058-.691-.095-1.059-.109" fill="#fc0"/><path d="m99.06 133.79c.491-1.023 1.137-1.853 1.784-2.369.664-.529 1.336-.731 1.858-.481h.002c.522.251.785.901.789 1.751.003.828-.239 1.849-.729 2.873-.174.363-.367.7-.572 1.01.044.45-.008.88-.21 1.302-.556 1.16-1.969 1.657-3.13 1.101-1.161-.557-1.658-1.969-1.102-3.131.202-.42.502-.737.884-.98.111-.352.252-.712.426-1.074"/><path d="m102 137.26c.032-.171.043-.345.033-.519l-.285.1.159.452.093-.033m-.196-.704c-.056-.011-.112-.022-.168-.034l.029.083.139-.049m-.459-.105c-.125-.033-.248-.071-.37-.112l-.157.055.159.452.452-.159-.083-.237m-.882-.309c-.161-.07-.318-.147-.472-.23l-.103.036.159.452.452-.159-.035-.099m-.956-.519c-.101-.067-.2-.137-.297-.209l-.253.089.159.452.452-.159-.061-.173m-.53-.393c-.056-.046-.111-.094-.165-.142l.063.178.103-.036m-.416-.1c-.141.106-.268.229-.379.365l.004.012.452-.159-.077-.219m-.618.729c-.094.181-.163.377-.203.578v.0001l.452-.159-.159-.452-.09.032m-.226 1.268c.004.029.008.059.013.088l.016-.006-.029-.082m.069.334c.044.154.106.303.182.444l.02-.007-.159-.452-.043.015m.909 1.227c.074.048.152.092.233.131h.002c.06.029.121.055.183.078l-.112-.317-.307.108m1.229.341h.009v-.002l-.008.003m.266-.025c.159-.025.314-.066.464-.125l-.034-.096-.452.159.022.061m.693-.229c.104-.054.203-.118.297-.188l-.323.114.026.075m.712-.6c.087-.114.164-.238.228-.372l-.068-.193-.452.159.159.452.133-.047m-.534-1.093l.159.452.452-.159-.159-.452-.452.159m.165 1.223l-.159-.452-.452.159.159.452.452-.159m-.242-.688l-.159-.452-.452.159.159.452.452-.159m-.242-.688l-.159-.452-.452.159.159.452.452-.159m-2.274 1.573l.452-.159-.159-.452-.452.159.159.452m.688-.242l.452-.159-.159-.452-.452.159.159.452m.688-.242l.452-.159-.159-.452-.452.159.159.452m.535.077l-.452.159.159.452.452-.159-.159-.452m-.688.242l-.452.159.159.452.452-.159-.159-.452m-1.465-.524l.452-.159-.159-.452-.452.159.159.452m.688-.242l.452-.159-.159-.452-.452.159.159.452m.688-.242l.452-.159-.159-.452-.452.159.159.452m-1.619-.204l.452-.159-.159-.452-.452.159.159.452m.688-.242l.452-.159-.159-.452-.452.159.159.452m.688-.242l.452-.159-.159-.452-.452.159.159.452m-.93-.446l.452-.159-.159-.452-.452.159.159.452m4.177-.702l.002-.004c.477-.996.714-1.991.711-2.793-.003-.781-.233-1.374-.689-1.593-.456-.218-1.062-.027-1.673.459-.628.5-1.256 1.308-1.735 2.307-.16.333-.291.664-.397.988.936.849 2.01 1.37 3.26 1.564.187-.286.362-.596.521-.928" fill="#fc0"/><path d="m105.07 137.24c1.086-.331 2.134-.416 2.951-.288.839.131 1.442.49 1.611 1.043v.002c.168.554-.133 1.188-.756 1.765-.608.562-1.524 1.075-2.609 1.405-.385.117-.763.203-1.129.26-.302.337-.654.589-1.101.726-1.231.375-2.552-.329-2.928-1.56-.375-1.232.329-2.553 1.561-2.929.445-.135.882-.129 1.32-.011.334-.156.695-.296 1.079-.413"/><path d="m104.51 141.75c.147-.092.284-.202.405-.327l-.266-.142-.225.423.087.046m.387-.621c-.03-.048-.06-.098-.089-.147l-.041.078.13.069m-.233-.409c-.06-.114-.116-.23-.168-.348l-.147-.078-.225.423.423.225.118-.221m-.369-.859c-.057-.166-.107-.334-.15-.504l-.097-.052-.225.423.423.225.05-.093m-.264-1.055c-.019-.119-.035-.24-.047-.36l-.237-.126-.225.423.423.225.086-.161m-.069-.656c-.004-.072-.006-.145-.008-.218l-.089.167.096.051m-.208-.374c-.174-.032-.35-.043-.525-.032l-.006.012.423.225.109-.205m-.956.038c-.197.053-.388.135-.563.241v.0001l.422.225.225-.423-.085-.045m-1.087.691c-.019.023-.038.046-.056.069l.015.008.041-.077m-.199.276c-.083.137-.152.282-.203.434l.018.001.225-.423-.04-.021m-.289 1.499c.015.087.035.174.061.26l.0001.002c.019.064.042.126.067.187l.158-.297-.287-.153m.58 1.136l.006.006.0001-.002-.008-.004m.199.179c.126.1.262.187.406.257l.048-.089-.423-.225-.031.058m.637.356c.11.039.224.07.34.091l-.302-.161-.037.07m.923.118c.143-.013.286-.04.428-.083l.096-.18-.423-.225-.225.423.124.066m.444-1.133l-.225.423.423.225.225-.423-.423-.225m-.79.949l.225-.423-.423-.225-.225.423.423.225m.343-.644l.225-.423-.423-.225-.225.423.423.225m.343-.644l.225-.423-.423-.225-.225.423.423.225m-2.697-.611l.423.225.225-.423-.423-.225-.225.423m.644.343l.423.225.225-.423-.423-.225-.225.423m.644.343l.423.225.225-.423-.423-.225-.225.423m.305.446l-.423-.225-.225.423.423.225.225-.423m-.644-.343l-.423-.225-.225.423.423.225.225-.423m-.605-1.434l.423.225.225-.423-.423-.225-.225.423m.644.343l.423.225.225-.423-.423-.225-.225.423m.644.343l.423.225.225-.423-.423-.225-.225.423m-.945-1.33l.423.225.225-.423-.422-.225-.225.423m.644.343l.423.225.225-.423-.423-.225-.225.423m.644.343l.423.225.225-.423-.423-.225-.225.423m-.301-.987l.423.225.225-.423-.423-.225-.225.423m3.342 2.601l.004-.0001c1.057-.322 1.95-.821 2.538-1.366.573-.531.854-1.101.707-1.585-.148-.484-.699-.8-1.47-.921-.793-.125-1.813-.04-2.873.282-.353.108-.686.235-.996.376.007 1.264.35 2.408 1.053 3.459.337-.055.684-.137 1.036-.244" fill="#fc0"/><path d="m96.81 158.2c-1.073.523-2.148.786-3.02.788-.893.002-1.579-.27-1.847-.817v-.002c-.266-.548-.059-1.257.493-1.959.538-.685 1.406-1.369 2.478-1.893.381-.186.759-.338 1.13-.457.258-.4.582-.721 1.024-.937 1.217-.593 2.707-.08 3.301 1.136.593 1.218.081 2.707-1.137 3.302-.441.214-.895.28-1.369.23-.322.217-.673.422-1.053.608"/><path d="m96.65 153.42c-.138.12-.261.257-.367.407l.3.103.164-.476-.098-.034m-.299.709c.04.045.079.091.117.138l.03-.087-.147-.051m.31.386c.081.109.159.22.233.334l.166.057.164-.476-.477-.164-.086.25m.526.831c.087.163.167.329.24.498l.109.037.164-.476-.477-.164-.036.105m.449 1.053c.04.121.076.243.108.367l.267.092.164-.476-.476-.164-.063.182m.181.67c.016.075.031.15.044.225l.065-.188-.108-.037m.278.354c.186.005.371-.013.551-.054l.004-.013-.476-.164-.08.231m.986-.197c.196-.088.381-.204.545-.344v-.0001l-.476-.164-.164.476.095.033m1.015-.899c.016-.027.032-.054.047-.081l-.017-.006-.03.087m.161-.32c.064-.156.111-.319.139-.485l-.021-.007-.164.476.045.016m.052-1.606c-.03-.088-.065-.175-.107-.26l-.0001-.0001c-.031-.063-.064-.124-.1-.183l-.115.334.324.111m-.791-1.085l-.008-.006v.003l.008.003m-.236-.154c-.147-.083-.303-.151-.464-.2l-.035.101.477.164.022-.065m-.721-.264c-.121-.023-.244-.036-.368-.039l.341.117.027-.079m-.979.03c-.146.037-.29.089-.431.158l-.07.203.477.164.164-.476-.14-.048m-.274 1.251l.164-.476-.477-.164-.164.476.477.164m.663-1.117l-.164.476.476.164.164-.477-.477-.164m-.25.726l-.164.477.477.164.164-.476-.477-.164m-.25.726l-.164.476.476.164.164-.477-.476-.164m2.904.188l-.477-.164-.164.476.477.164.164-.476m-.726-.25l-.477-.164-.164.476.477.164.164-.476m-.726-.25l-.477-.164-.164.476.476.164.164-.476m-.391-.413l.477.164.164-.476-.477-.164-.164.477m.726.25l.476.164.164-.477-.477-.164-.164.476m.866 1.389l-.476-.164-.164.476.477.164.164-.476m-.726-.25l-.476-.164-.164.476.476.164.164-.477m-.726-.25l-.476-.164-.164.476.477.164.164-.476m1.202 1.226l-.477-.164-.164.476.476.164.164-.476m-.726-.25l-.477-.164-.164.476.477.164.164-.476m-.726-.25l-.477-.164-.164.476.477.164.164-.476m.476.976l-.477-.164-.164.476.476.164.164-.476m-3.904-2.149l-.004.002c-1.045.51-1.89 1.176-2.411 1.84-.508.646-.705 1.285-.472 1.764.234.478.859.716 1.68.714.845-.002 1.891-.258 2.939-.769.35-.17.674-.357.973-.555-.217-1.312-.763-2.444-1.667-3.42-.341.113-.688.255-1.036.425" fill="#fc0"/><path d="m113.93 151.79c.966-.532 1.945-.824 2.748-.865.824-.043 1.469.176 1.741.669l.0001.002c.271.493.112 1.156-.365 1.83-.465.656-1.233 1.327-2.199 1.859-.343.189-.685.346-1.021.473-.22.381-.504.692-.902.911-1.095.603-2.493.198-3.097-.896-.603-1.096-.199-2.493.897-3.097.397-.218.813-.299 1.252-.275.287-.215.602-.421.943-.609"/><path d="m114.3 156.19c.121-.117.229-.249.32-.392l-.282-.082-.129.447.092.027m.243-.667c-.038-.04-.077-.081-.114-.122l-.024.082.138.04m-.304-.342c-.08-.097-.156-.196-.23-.297l-.156-.045-.129.447.447.13.068-.234m-.523-.742c-.088-.146-.169-.296-.244-.449l-.102-.03-.129.447.447.13.028-.098m-.463-.951c-.042-.11-.081-.221-.117-.333l-.25-.072-.129.447.447.13.049-.171m-.198-.61c-.018-.068-.035-.137-.051-.206l-.051.176.102.029m-.273-.314c-.171.004-.341.029-.506.075l-.004.012.447.129.063-.216m-.9.227c-.177.09-.342.206-.487.342v.0001l.447.129.129-.447-.089-.026m-.895.876c-.014.025-.027.051-.039.077l.016.005.023-.081m-.134.302c-.052.147-.088.299-.106.454l.019.006.129-.447-.042-.012m.025 1.483c.032.08.068.158.111.235l.0001.0001c.031.057.065.112.101.165l.091-.314-.304-.088m.779.964l.007.005v-.002l-.008-.002m.225.13c.139.07.286.125.437.163l.028-.095-.447-.13-.018.061m.677.21c.113.015.227.022.341.019l-.32-.093-.021.074m.901-.072c.133-.041.264-.096.39-.165l.055-.19-.447-.129-.129.447.131.038m.195-1.166l-.129.447.447.129.129-.447-.447-.13m-.561 1.06l.129-.447-.447-.13-.129.447.447.129m.197-.681l.129-.447-.447-.129-.129.447.447.13m.197-.681l.129-.447-.447-.13-.129.447.447.129m-2.687-.04l.447.129.129-.447-.447-.13-.129.447m.681.197l.447.13.129-.447-.447-.129-.129.447m.681.197l.447.129.129-.447-.447-.13-.129.447m.379.363l-.447-.129-.129.447.447.13.129-.447m-.681-.197l-.447-.13-.129.447.447.129.129-.447m-.863-1.241l.447.13.129-.447-.447-.129-.129.447m.681.197l.447.129.129-.447-.447-.13-.129.447m.681.197l.447.13.129-.447-.447-.129-.129.447m-1.165-1.075l.447.13.129-.447-.447-.129-.129.447m.681.197l.447.13.129-.447-.447-.13-.129.447m.681.197l.447.129.129-.447-.447-.13-.129.447m-.484-.878l.447.13.129-.447-.447-.13-.129.447m3.699 1.803l.004-.002c.94-.518 1.689-1.171 2.139-1.808.439-.619.591-1.218.354-1.648-.238-.43-.825-.621-1.582-.581-.779.041-1.732.325-2.675.845-.314.173-.605.361-.872.557.26 1.2.816 2.219 1.695 3.077.309-.12.623-.267.936-.44" fill="#fc0"/><path d="m100.6 149.01c-.425-.227-.829-.495-1.184-.732l-.042-.027c-.912-.609-1.299-.867-2.218-.276l-.002.0001-.003.0001c-.139.09-.271.18-.395.265-.591.404-1.015.694-1.48.434-.358-.201-.65-.269-.915-.225-.268.044-.524.205-.806.461-.615.558-1.044.563-1.826.465-.071.26-.152.506-.247.719-.279.625-.754.858-1.382 1.072-.46.157-.886.302-1.044.869l-.002.008c-.237.836-1.132 1.183-1.957.974-.326-.083-.651-.253-.864.127-.476.851-1 1.139-1.524 1.146-.509.007-.992-.26-1.425-.526-.63-.388-1.31-.709-2.062-.509-.706.187-1.251-.116-1.584-.612-.29-.433-.408-.993-.333-1.507.091-.621.463-1.165 1.177-1.297l.008-.0001c.051-.009.111-.019.174-.029.433-.07.992-.161 1.081-.674.102-.59.494-.905 1.043-1.063.419-.121.929-.146 1.465-.135-.237-.154-.558-.251-.941-.305-.776-.109-1.268-.559-1.486-1.085-.183-.44-.18-.963.051-1.386.487-.891 1.269-.526 2.01-.796.377-.137.63-.447.866-.754.531-.693 1.133-1.478 2.818-.68.528.25.998.258 1.448-.14.32-.284.73-.624 1.26-.728.535-.105 1.174.032 1.925.712.465.421.824.795 1.46.397.224-.14.625-.377 1.09-.305.459.071.955.441 1.342 1.501.149.406.314.739.747.891.075.027.144.06.207.1.273.171.441.45.618.742.206.342.426.706.839.86.498.186.938.479 1.377.772.654.436 1.26.817 2.061.903l.241.885c-.573-.08-1.072-.239-1.586-.514m4.951 5.02v-.007c.027-.254.05-.482.073-.706.058-.577.116-1.154.196-1.725.042-.299.077-.6.031-.866-.042-.246-.157-.469-.411-.642-.337-.231-.535-.423-.604-.652-.073-.239 0-.484.205-.81.224-.357-.097-.665-.366-.924l-.053-.051c-.289-.28-.504-.564-.646-.843-.168-.328-.236-.648-.206-.946.031-.305.162-.583.39-.819.138-.142.311-.268.52-.375.218-.112.374-.213.461-.337.08-.114.107-.262.08-.477-.038-.301-.042-.56-.017-.78.045-.395.182-.679.379-.875.199-.198.455-.303.737-.339.165-.021.338-.019.511.0001.288.033.591.039.822-.048.203-.076.355-.237.39-.54.075-.651.275-1.087.634-1.351.355-.26.85-.339 1.523-.282.075.006.148.016.219.029.574.102.999.398 1.269.806.266.402.379.911.334 1.445-.007.084-.019.17-.034.256-.04.227-.095.403-.14.549-.078.252-.122.392.054.584l.002.002c.088.096.168.203.239.318.071.114.13.235.177.363.242.656.146 1.46-.599 2.184-.252.245-.44.432-.523.622-.076.177-.068.382.056.689.287.71.037 1.188-.467 1.52-.459.303-1.133.47-1.778.584-.323.057-.61.153-.871.278-.262.125-.501.282-.725.46-.414.329-.632.561-.752.829-.122.27-.155.602-.199 1.122-.032.391-.059.781-.082 1.152-.023.387-.043.752-.059 1.078l-.02.415-.284-.303-.418-.447-.056-.06.009-.08m-2.697 2.204l.004-.002h.0001c.197-.101.403-.184.614-.25.21-.066.429-.116.652-.153 1.131-.185 2.361-.006 3.246.307l.074.026.03.072.24.577.164.394-.394-.164-.007-.003c-.144-.06-.287-.115-.428-.165-.14-.049-.283-.095-.429-.137-.731-.209-1.455-.292-2.116-.226-.428.043-.875.118-1.229.291-.33.161-.581.412-.656.813-.033.177-.032.353.019.53.052.18.157.366.329.557l.0001.0001.038.043v.0001c.09.104.167.208.231.313.066.107.119.213.158.317.206.545.078 1.067-.336 1.544-.276.318-.184.644-.058 1.088.043.153.09.318.129.5.022.103.037.204.047.304.046.508-.087.906-.333 1.2-.245.292-.598.476-.996.562-.094.02-.193.035-.296.044-.118.011-.237.033-.315.107-.084.079-.14.228-.14.505 0 .527-.143.908-.433 1.159-.284.246-.699.354-1.246.342-.334-.007-.56.041-.736.178-.185.144-.333.394-.503.783-.107.246-.346.408-.639.492-.248.071-.54.086-.82.047-.283-.04-.556-.136-.764-.286-.216-.157-.364-.371-.387-.641v-.007-.0001c-.011-.13-.004-.267.002-.404.014-.305.029-.616-.197-.802-.443-.362-.655-.767-.598-1.223.054-.435.359-.901.95-1.405l.036-.031c.587-.501 1.185-1.013.638-1.876-.175-.276-.332-.594-.398-.908-.047-.227-.048-.452.024-.662.073-.214.219-.407.462-.561.18-.114.416-.207.717-.27h.004c.155-.032.308-.053.457-.073.54-.072 1.037-.14 1.216-.791.024-.087.023-.194.023-.301-.002-.503-.004-1.02 1.519-1.154l.024-.002c.425-.037.848-.074 1.26-.134.454-.065.552-.125.762-.251.093-.056.207-.125.382-.215zm13.12 8.695v-.007c.015-.175.042-.364.07-.556.084-.583.174-1.204-.07-1.671v-.002-.0001c-.166-.318-.368-.615-.548-.882-.44-.65-.77-1.138-.351-1.536.36-.343.323-.389.043-.737-.022-.027-.045-.055-.106-.133-.188-.238-.32-.459-.405-.664-.147-.355-.155-.664-.07-.931.084-.265.259-.482.478-.656.177-.141.384-.253.596-.341.207-.086.369-.208.472-.376.104-.169.152-.391.131-.673-.04-.555.035-.98.246-1.274.22-.307.573-.464 1.077-.467.28-.002.44-.215.663-.511.086-.114.179-.238.287-.365.408-.478.888-.691 1.348-.71.218-.009.43.026.629.098.198.071.382.179.541.315.355.303.594.749.614 1.255l.007.2c.014.436.021.635.221.655.221.022.398.154.522.349.105.165.171.377.191.601.019.22-.007.456-.086.673-.117.319-.347.597-.716.729-.099.035-.093.148-.048.273.084.234.284.502.379.629l.025.034c.163.221.258.451.293.683.055.366-.036.733-.235 1.076-.192.33-.485.64-.843.904-.557.411-1.274.718-2.01.829-.448.068-.838.366-1.258.687-.224.171-.456.349-.716.508-.071.043-.135.077-.195.108-.166.088-.289.152-.344.375l-.003.012c-.082.351-.078.878-.076 1.277.0001.183.002.341-.004.445l-.017.264-.237-.118-.398-.198-.108-.054.001-.119m.475 2.392c-.634.011-1.257.213-1.681.6.19.532.104.988.045 1.303l-.011.059c-.269 1.475.07 1.997.29 2.336.025.038.048.074.068.107.65 1.062.749 1.823.581 2.37-.173.565-.621.892-1.053 1.088-.494.225-.453.448-.367.915l.026.146c.094.529.11 1.026.035 1.458-.068.395-.213.737-.441 1-.233.268-.55.452-.959.525-.277.049-.597.047-.962-.017-.466-.081-.796-.126-1.033-.088-.205.033-.347.138-.472.357-.165.29-.38.459-.616.539-.259.087-.536.065-.799-.024-.251-.085-.491-.231-.685-.397-.282-.242-.476-.539-.489-.772-.018-.334-.093-.593-.223-.806-.13-.213-.32-.386-.567-.547-.225-.148-.406-.313-.544-.491-.222-.286-.333-.602-.341-.92-.008-.317.086-.633.274-.921.124-.189.288-.367.49-.524l.003-.002c.073-.057.174-.133.266-.203.267-.203.458-.348.526-.454.028-.044-.009-.096-.141-.18-.249-.159-.429-.337-.543-.525-.111-.182-.161-.374-.152-.568.008-.19.073-.381.191-.565.161-.252.422-.493.774-.707.359-.218.74-.392 1.143-.576.362-.165.742-.339 1.139-.562h.002c.06-.034.136-.072.214-.111.33-.166.684-.344.684-.83 0-.396.124-.698.374-.905.239-.199.588-.299 1.044-.301.83-.004 1.323-.371 1.817-.739.554-.413 1.098-.75 1.806-.799.224-.015.451-.004.683.027l-.302-.093c-.45-.139-.936-.253-1.441-.308-.474-.051-.965-.05-1.458.035-.315.587-.64.986-.987 1.223-.38.26-.78.326-1.212.229h-.002c-.108-.024-.219-.029-.328-.004-.265.063-.49.32-.612.842-.141.601-.417.982-.781 1.204-.36.219-.799.275-1.274.228-.285-.028-.482-.034-.634.057-.163.097-.31.313-.499.732l-.002.004c-.075.163-.163.301-.263.416-.101.117-.214.21-.335.284-.601.365-1.389.212-1.991-.05-.556-.241-.891-.008-1.282.265-.127.089-.259.181-.396.261-.395.231-.782.271-1.112.181-.233-.063-.438-.192-.597-.365-.158-.171-.271-.385-.324-.62-.079-.353-.022-.754.224-1.128.2-.303.345-.53.409-.711.05-.14.043-.252-.036-.362-.085-.117-.151-.234-.2-.351-.171-.404-.138-.79.039-1.146.168-.339.466-.647.838-.915.323-.233.704-.438 1.103-.607.059-.025.099-.042.123-.051.155-.061.301-.11.431-.153.357-.12.567-.19.566-.43-.007-.945.709-1.349 1.68-1.472.903-.115 2.032.019 2.963.169.3.048.538.173.753.287.246.129.456.24.654.143.326-.158.634-.151.933-.03.279.113.544.327.804.598.635.661.88.636 1.493.574l.079-.008.009-.0001c.234-.023.468-.034.703-.035.63-.002 1.26.07 1.87.23l.713.929.461.827c-.394-.091-.767-.184-1.178-.177m-40.06-47.735c.461.196.985.545 1.566 1.047.876.757 2.039 1.106 3.198 1.175.229.014.456.016.679.001.222-.007.445-.024.666-.05h.004c1.029-.122 2.066-.083 3.082.111.2.038.397.082.592.13.195.049.391.104.585.165l.005.002.076.024.032.072.248.548.186.412-.416-.178c-.934-.4-2.029-.623-3.043-.65-.196-.005-.391-.003-.582.006-.188.009-.371.026-.549.051h-.004c-.464.065-.858.429-1.248.789-.548.507-1.089 1.01-1.878.827-.507-.115-.741.378-1.04 1.01l-.023.048c-.469.987-1.068 1.507-1.661 1.689-.118.036-.237.059-.356.07-.119.011-.236.009-.347-.005h-.006l-.038-.005c-.952-.117-1.695-.209-2.203.425-.308.385-.612.656-.905.833-.344.207-.675.286-.982.264-.31-.022-.592-.146-.837-.342-.2-.16-.375-.369-.519-.609-.548-.909-1.284-.762-1.985-.622-.203.04-.404.08-.604.099h-.007c-.599.054-1.165-.172-1.536-.539-.189-.188-.329-.413-.398-.659-.07-.25-.067-.519.031-.788.167-.46.613-.918 1.449-1.271l.205-.087c.849-.355 1.544-.645 1.494-1.313-.095-1.252.358-1.798 1.088-1.969.678-.159 1.59.037 2.507.274.42.108.732.17.956.134.189-.031.323-.147.429-.394.083-.194.182-.359.298-.492.212-.245.474-.387.784-.425.296-.036.632.025 1 .183m4.955-3.527c-1.669.493-1.84.374-3.14-.528l-.049-.034c-.373-.259-.741-.35-1.112-.351-.383-.002-.783.092-1.2.197-1.01.254-1.54.119-1.811-.166-.282-.296-.271-.725-.224-1.064l.023-.166c.045-.317.067-.471.05-.487-.018-.016-.163 0-.443.031-.068.007-.141.016-.26.028-.816.082-1.388-.001-1.775-.202-.231-.115-.399-.265-.514-.435-.116-.172-.177-.363-.197-.56-.032-.322.05-.656.188-.935.107-.215.147-.411.112-.606-.036-.202-.154-.413-.364-.653-.471-.538-.609-1.159-.512-1.697.052-.287.17-.551.34-.767.172-.219.398-.39.664-.489.434-.163.968-.131 1.532.204.379.225.679.356.968.38.283.023.57-.056.931-.251l.004-.002c.195-.106.385-.179.57-.224.187-.046.367-.061.539-.05.874.054 1.544.768 2.032 1.657l.001.018c.299.545.55 1 .868.861.382-.171.73-.235 1.028-.199.203.024.383.094.535.207.151.112.272.265.358.456.133.295.181.682.125 1.149v.005c-.014.117-.031.231-.047.34-.077.531-.132.908.24 1.126l.014.009h.003c.667.411.649 1.611.636 2.486-.003.203-.006.388.0001.538l.006.138-.132.039m10.113 10.291l-.348-.205-.106-.062.022-.121c.11-.602-.005-.729-.399-1.158l-.011-.012c-.21-.229-.403-.466-.559-.718-.161-.26-.285-.535-.351-.835-.104-.466-.213-.724-.347-.883-.125-.149-.29-.222-.504-.31-.462-.191-.777-.421-.976-.664-.159-.194-.244-.398-.271-.601-.027-.203.005-.402.082-.587.094-.228.256-.433.454-.595.26-.213.369-.346.313-.447-.089-.16-.416-.346-1-.626-.593-.284-.939-.635-1.099-.982-.104-.225-.13-.449-.096-.654.035-.208.132-.395.274-.544.194-.204.473-.338.795-.356.254-.015.442-.051.559-.109.052-.025.083-.052.093-.079.001-.027.003-.067-.021-.12-.053-.117-.177-.264-.374-.441-.449-.404-.704-.823-.805-1.22-.069-.272-.067-.534-.005-.774.061-.24.182-.459.348-.644.233-.259.557-.452.933-.548h.003c.125-.031.238-.037.337-.041.053-.002.101-.005.137-.011.091-.017.116-.137-.006-.794-.163-.877.072-1.725.506-2.341.229-.325.515-.588.827-.757.322-.174.671-.251 1.02-.2.422.061.836.306 1.185.789.26.358.453.594.634.692.149.08.31.057.535-.079.179-.108.353-.163.519-.17.287-.011.538.118.743.359.186.219.333.535.43.921.176.702.192 1.653-.016 2.692l-.033.161c-.043.213-.081.396-.098.55-.039.357.066.531.618.592.355.039.632.158.836.332.241.206.375.485.413.799.036.301-.019.634-.155.965-.205.499-.597.996-1.143 1.365-.588.397-.626.639-.506.817.07.103.185.201.293.291.053.044.104.087.152.132.354.333.58.673.695 1 .104.3.116.593.049.867-.067.273-.211.526-.421.749-.282.3-.686.548-1.18.719-.103.036-.193.065-.277.092-.603.194-.927.298-1.135 1.388-.053.276-.176.499-.34.68-.158.176-.352.312-.553.423-.314.173-.332.413-.354.731-.001.137-.02.287-.052.457l-.045.248-.217-.128m2.106 9.261l2.06.495.162.039c.149-.341.228-.723.231-1.094.003-.386-.061-.494-.217-.647-.076-.073-.209-.198-.293-.284-.257-.265-.434-.532-.54-.8-.108-.274-.143-.549-.114-.822.021-.204-.007-.343-.08-.461-.079-.129-.218-.25-.401-.402-.021-.018-.048-.04-.08-.069-.378-.334-.646-.731-.709-1.185-.063-.455.08-.956.524-1.492.019-.023.044-.052.075-.087.176-.199.329-.411.39-.632.056-.203.031-.424-.133-.663-.257-.374-.426-.727-.502-1.046-.066-.276-.062-.531.013-.757.077-.231.228-.427.454-.583.182-.125.412-.222.692-.289.385-.092.614-.169.688-.278.06-.089.011-.249-.144-.526-.092-.164-.158-.323-.199-.475-.075-.278-.065-.534.028-.758.093-.226.268-.414.521-.556.133-.075.289-.137.467-.185.197-.053.353-.128.492-.286.151-.173.291-.449.446-.897.102-.294.421-.66.821-.913.25-.159.535-.277.823-.311.3-.035.601.022.867.217.242.178.45.47.594.91.056.172.078.303.096.41.028.17.042.253.294.371.095.045.186.095.27.152.333.222.578.534.682.915.102.378.066.82-.163 1.307-.064.137-.144.278-.24.421-.159.239-.232.413-.216.575.016.168.128.351.336.601.298.359.561.776.716 1.208.133.369.187.749.119 1.113-.069.37-.262.72-.623 1.02-.241.201-.558.378-.964.524-.47.169-.76.284-.881.441-.107.139-.088.356.039.747.09.277.175.599.065.935-.109.332-.403.655-1.062.915-.05.02-.106.04-.162.059-.258.091-.513.18-.633.573-.106.347-.281.612-.498.829-.211.212-.458.376-.714.528-.292.174-.278.318-.254.543l.004.035v.006c.011.114.013.23.007.345-.006.115-.02.231-.042.347-.109.587-.408 1.168-.789 1.588l-.141.155-.129-.165-.227-.292-.091-.117.022-.024c-.144-.049-.302-.107-.469-.167-.941-.344-2.199-.805-2.463-.148v.0001c-.021.053-.043.101-.064.145-.023.047-.047.092-.073.137-.132.228-.292.421-.437.548-.196.172-.389.154-.607.132-.149-.014-.315-.03-.485.049-.144.067-.186.3-.231.552-.037.209-.077.428-.179.628-.053.103-.111.195-.172.276-.257.342-.574.495-.902.525-.317.029-.64-.062-.923-.208-.123-.063-.239-.138-.346-.218-.326-.245-.56-.363-.769-.328-.217.036-.448.234-.766.619-.207.25-.414.445-.619.593-.423.305-.837.406-1.221.369-.383-.036-.731-.21-1.027-.454-.192-.159-.362-.348-.507-.548-.538-.748-.781-.855-1.026-.678-.123.089-.261.237-.424.414l-.001.011c-.085.091-.169.17-.251.236-.328.263-.655.357-.975.317-.312-.038-.609-.205-.888-.463-.116-.107-.228-.23-.336-.364-.229-.285-.463-.477-.71-.59-.243-.112-.504-.149-.791-.127-.68.052-1.119-.189-1.357-.554-.118-.181-.184-.392-.204-.612-.019-.215.005-.438.069-.651.16-.535.566-1.01 1.133-1.115.385-.072.719-.192.972-.378.242-.178.412-.419.484-.739.012-.052.025-.105.04-.157.111-.381.296-.674.572-.85.277-.176.635-.228 1.09-.126.052.012.106.026.161.042.342.099.663.13.952.049.283-.079.544-.269.776-.613l.0001-.0001.033-.048.0001-.002c.386-.54.897-.757 1.464-.736.544.02 1.133.264 1.706.65.038.026.082.056.132.092.078.056.153.111.223.163.374.276.609.45.891.334.499-.204 1.035-.375 1.567-.34.549.036 1.08.286 1.54.929l.002.003c.065.09.125.18.181.263.2.298.338.504.511.465.329-.074.646.022.956.214.288.178.567.438.846.717.337.336.437.357.783.427.105.021.23.047.388.084" fill="#963"/></g><path d="m91.49 149.55c-.132.427-.296.792-.512.978-.74.64-1.798.387-2.097 1.46-.256.921-1.225.991-1.747.858-.562-.142-.79-.271-1.06.212-.878 1.569-1.88 1.063-2.703.556-.878-.541-1.499-.716-2.2-.53-1.817.482-2.43-2.746-.662-3.074.496-.092 1.28-.13 1.404-.848.159-.917 1.146-1.07 2.279-1.053l.029.022c.186.144.296.348.31.627.019.409.149.828.455 1.115-1.033.84-2.182.909-3.476.671-.096-.018-.187.046-.205.141-.017.095.046.187.141.205.713.131 1.45.207 2.167.049.029.442-.124.901-.409 1.24-.062.075-.052.186.022.248.075.062.186.053.248-.022.359-.427.537-1 .484-1.56.444-.144.887-.387 1.329-.765.341.167.732.167 1.097.093-.026.401-.116.871-.432 1.122-.076.06-.089.171-.029.247.06.076.171.089.247.029.436-.345.55-.955.572-1.493.23-.076.534-.253.773-.187.094.026.193.13.326.282.406.465.966.692 1.632.483.273-.086.523-.235.746-.411l.004-.004.003-.003c.31-.246.604-.452.883-.576.129-.058.256-.097.379-.112m-13.649-28.792c-1.693-1.464-2.863-1.582-3.375-.378-.265.622-.707.588-1.59.361-1.79-.461-3.549-.769-3.376 1.512.064.853-.804 1.15-1.807 1.574-2.534 1.071-1.211 3.063.369 2.92.917-.083 1.987-.679 2.762.606.597.99 1.719 1.378 2.956-.165.577-.72 1.375-.612 2.399-.485.728.09 1.57-.348 2.19-1.653.344-.724.601-1.301 1.26-1.151 1.255.286 1.893-1.455 3.063-1.618 1.301-.182 2.945.037 4.271.605l-.248-.548c-1.363-.428-2.785-.569-4.192-.402-1.592.188-3.419-.084-4.683-1.177m15.682 15.02l2.06.495-.092.433c-.975-.307-2.868-1.238-3.266-.251-.131.324-.344.604-.527.764-.273.24-.615-.049-1.051.155-.376.176-.264.816-.492 1.258-.53 1.029-1.487.763-2.082.316-.732-.55-1.084-.519-1.776.32-1.246 1.509-2.446.871-3.095-.031-.872-1.211-1.125-.926-1.732-.27-.782.845-1.536.542-2.184-.264-.493-.614-1.02-.831-1.651-.783-1.961.149-1.609-2.341-.313-2.583.82-.153 1.43-.521 1.595-1.251.184-.819.677-1.241 1.642-.961.745.216 1.409.129 1.924-.634.719-1.066 1.939-.823 3.09 0 .559.4.848.694 1.282.517.96-.392 2.048-.658 2.898.529.35.488.519.881.876.8.556-.125 1.097.341 1.639.883.474.474.528.383 1.254.558m2.01 1.09c.429-.472.658-1.161.664-1.82.006-.636-.153-.636-.559-1.055-.48-.495-.657-.99-.605-1.482.052-.495-.15-.69-.543-1.017-.771-.639-1.107-1.521-.17-2.58.383-.434.667-.933.27-1.511-.814-1.186-.697-2.107.553-2.404.856-.204 1.039-.379.657-1.062-.462-.825-.213-1.469.708-1.718.458-.124.732-.353 1.058-1.296.255-.736 2.137-2.037 2.771-.099.172.527.0001.659.483.885.855.401 1.279 1.338.477 2.538-.366.547-.332.83.13 1.386.927 1.116 1.493 2.808-.675 3.587-1 .36-1.245.501-.95 1.408.163.501.307 1.157-.894 1.631-.349.138-.729.184-.899.745-.192.633-.641.964-1.133 1.257-.404.241-.368.434-.336.747.076.746-.276 1.596-.779 2.15l-.227-.292m-3.981-10.674l-.348-.205c.127-.694-.005-.831-.453-1.32-.404-.441-.744-.915-.868-1.472-.222-.993-.483-1.123-.955-1.318-1.506-.624-1.306-1.626-.667-2.147.675-.552.514-.776-.724-1.368-1.695-.811-1.188-2.145-.192-2.202.925-.053 1.102-.393.364-1.056-1.379-1.24-.788-2.582.397-2.883.501-.127.838.223.601-1.05-.413-2.216 1.874-4.233 3.222-2.374.549.757.832 1.01 1.402.66 1.145-.695 1.894 1.208 1.411 3.618-.198.986-.343 1.404.64 1.513 1.624.179 1.345 2.145-.128 3.141-1.186.802-.44 1.179-.083 1.515 1.321 1.243.726 2.519-.794 3.045-.847.293-1.271.267-1.528 1.614-.092.483-.433.776-.804.981-.542.298-.384.71-.494 1.311m25.732 41.04c-.962-.237-2.083-.018-2.718.638.24.565.125 1.06.067 1.375-.31 1.697.159 2.202.382 2.567 1.238 2.023.395 2.847-.395 3.207-.671.305-.558.592-.44 1.252.307 1.728-.251 3.086-2.124 2.762-.965-.167-1.379-.187-1.687.356-.672 1.181-2.229-.002-2.26-.576-.039-.731-.334-1.142-.869-1.492-1.084-.709-1.03-1.852-.109-2.568.783-.608 1.16-.794.64-1.127-.94-.601-.764-1.439.267-2.065.676-.411 1.447-.667 2.277-1.134.418-.235.989-.388.989-1.096 0-.683.413-1.027 1.243-1.031 1.352-.006 1.841-.892 2.785-1.323.566-.258 1.121-.263 1.726-.153l.227.408m-3.75-1.142c-.627 1.205-1.279 1.61-2.044 1.438-.504-.113-.956.138-1.152.969-.259 1.1-.988 1.383-1.866 1.297-.641-.063-.9-.017-1.312.892-.477 1.054-1.579.905-2.36.566-.825-.358-1.203.164-1.837.535-1.214.709-2.285-.601-1.573-1.683.414-.629.606-.943.369-1.272-.828-1.149.323-2.168 1.705-2.754.755-.32 1.231-.297 1.228-.797-.013-1.657 2.602-1.425 4.439-1.128.655.106 1.037.645 1.511.415.552-.268 1.045.023 1.534.532.722.75.984.692 1.716.619.799-.08 1.677-.024 2.441.168h.002l.004.0001.26.464c-.921-.284-1.988-.468-3.066-.262m2.62-1.152c.064-.747.335-1.652-.02-2.331-.548-1.047-1.389-1.779-.935-2.211.52-.494.415-.523-.047-1.107-1.01-1.272-.278-1.987.528-2.32.485-.2.758-.581.712-1.224-.074-1.027.262-1.547 1.149-1.554.487-.004.648-.428 1.083-.938 1.113-1.304 2.77-.449 2.823.851.027.681-.008.984.387 1.022.678.066.855 1.658-.132 2.01-.521.186.123 1 .273 1.207.966 1.308-.79 2.927-2.68 3.214-.741.112-1.287.759-2.039 1.22-.301.184-.523.208-.618.591-.13.526-.066 1.421-.088 1.765l-.398-.198m-10.429-10.894c.087-.811.155-1.626.269-2.433.088-.626.144-1.267-.455-1.677-.608-.416-.702-.662-.349-1.223.318-.505-.121-.881-.446-1.196-1.097-1.064-1.055-2.151.016-2.7.486-.249.702-.466.635-.993-.198-1.544.569-1.892 1.416-1.796.621.071 1.318.022 1.406-.743.138-1.2.708-1.584 1.968-1.477 1.274.108 1.832 1.183 1.629 2.329-.125.706-.395.896-.043 1.282.582.638.781 1.696-.174 2.622-.533.517-.795.792-.507 1.504.495 1.222-.859 1.642-2.112 1.864-.677.12-1.209.403-1.676.774-.876.696-.928.998-1.017 2.074-.064.765-.108 1.572-.141 2.236l-.418-.447m-2.791 2.341c1.33-.685 3.178-.512 4.377-.088l.24.577c-1.038-.435-2.111-.638-3.064-.542-.892.089-1.866.315-2.041 1.246-.076.405.008.813.39 1.238.629.699.619 1.379.092 1.988-.44.508-.133.971.033 1.74.262 1.217-.497 1.814-1.423 1.899-.299.027-.616.12-.615.786.0001.946-.494 1.348-1.5 1.325-.753-.017-1.039.233-1.403 1.066-.314.718-2.195.568-2.273-.334-.039-.452.147-1-.26-1.335-.789-.645-.755-1.409.355-2.358.655-.56 1.349-1.124.709-2.135-.479-.757-.811-1.821.692-2.135.754-.157 1.549-.037 1.811-.99.137-.5-.359-1.172 1.388-1.325.433-.038.864-.075 1.294-.137.687-.099.622-.187 1.199-.484m-21.634-40.501c-1.609.475-1.755.353-3.039-.538-.812-.563-1.601-.395-2.455-.181-1.87.47-1.901-.435-1.818-1.035.138-.991.187-.895-.82-.794-2.403.241-2.525-1.065-2.122-1.879.247-.498.186-.923-.277-1.453-1.264-1.446.078-3.505 1.802-2.482.804.477 1.287.558 2.075.131 1.304-.706 2.263.142 2.903 1.311.346.631.634 1.166 1.105.954 1.172-.527 1.966.052 1.799 1.432-.094.781-.281 1.315.279 1.643.743.436.532 2.12.566 2.889m20.646 33.428c-.83-.116-1.728-.712-2.433-1.181-1.01-.674-1.423-.968-2.455-.303-.759.489-1.24.949-1.696.694-.791-.442-1.313-.296-1.926.26-.546.496-.977.59-1.546.447-.607-.153-1.214.213-1.88.739-.792.626-1.46.48-1.9-.024-.349-.399-.54-.554-1.304-.258-1.291.5-1.877-.067-1.919-.941-.037-.783-.635-1.158-1.552-1.286-1.92-.269-1.911-2.804-.216-2.822.588-.006 1.066-.019 1.653-.762.526-.666 1.039-1.58 2.723-.783.693.328 1.176.242 1.639-.168.607-.538 1.549-1.286 2.951-.017.617.558.939.875 1.671.417.408-.255 1.454-.862 2.174 1.107.175.478.344.818.853.997.721.254.763 1.365 1.66 1.7 1.17.437 2.07 1.534 3.362 1.673l.14.512" fill="#fff700"/><path d="m111.95 174.23c.455 1.045.621 2.092.497 3.139-.011.097-.099.166-.196.154-.097-.011-.166-.099-.154-.196.107-.901-.016-1.804-.368-2.708-.111.166-.233.31-.369.435-.821.748-1.31 1.732-1.642 2.776-.029.092-.128.144-.221.114-.092-.029-.144-.128-.114-.22.351-1.105.872-2.14 1.74-2.931.299-.272.523-.667.706-1.209.189-.558.332-1.268.464-2.154.057-.381.145-.737.263-1.075-.967.411-1.857.99-2.592 1.744-.068.07-.179.071-.249.003-.07-.068-.071-.179-.003-.249.849-.87 1.892-1.516 3.02-1.951.079-.178.167-.351.263-.52.347-.612.769-1.192 1.308-1.747l.252.245c-.519.535-.923 1.092-1.254 1.675-.328.578-.555 1.205-.662 1.925-.135.905-.282 1.634-.479 2.215-.065.193-.136.37-.213.532m-37.16-63.986c-.945.16-1.852.097-2.777-.163-.094-.026-.148-.123-.122-.217.026-.094.123-.148.217-.122.765.215 1.515.289 2.289.203-.761-.559-1.506-.972-2.222-1.135-.095-.021-.154-.115-.133-.21.021-.095.115-.154.21-.133 1.312.298 2.677 1.356 4.059 2.622.16-.633.151-1.288-.033-1.921-.027-.093.027-.191.12-.218.093-.027.191.027.218.12.219.753.213 1.54-.013 2.288.415.388.832.79 1.249 1.194.152.147.304.294.456.441.036.008.072.016.107.024.093.021.152.114.133.207l-.239-.229c.023-.656-.024-1.325-.162-1.967-.02-.095.041-.189.136-.209.095-.02.189.041.209.136.165.769.213 1.577.153 2.362.908.866 1.814 1.688 2.702 2.306l-.006.078-.008.226-.208.041c-.995-.692-1.99-1.669-2.995-2.652-.963-.196-1.951-.203-2.918-.016-.096.018-.188-.044-.206-.14-.018-.096.044-.188.14-.206.84-.162 1.698-.185 2.541-.07l-.08-.078c-.948-.917-1.894-1.832-2.817-2.561m-.529 12.517c-1-.628-2.167-.769-3.322-.849-.097-.006-.17-.09-.164-.187.006-.097.09-.17.187-.164 1.324.092 2.621.276 3.729 1.066.767-.202 1.589-.212 2.566.183.211.085.435.137.67.162-.657-.73-1.376-1.419-2.275-1.844-.088-.041-.126-.146-.084-.234.041-.088.146-.126.234-.084 1.047.496 1.855 1.323 2.611 2.178 1.335-.046 2.56-.66 3.823-1.02l.078.405c-1.428.373-3.039 1.085-4.56.933-.243.79-.685 1.499-1.223 2.121-.064.073-.175.081-.248.018-.073-.064-.081-.175-.018-.248.499-.576.913-1.234 1.144-1.964-.602-.167-1.107-.397-1.757-.384-.763.015-1.447.284-2.134.616.048 1.023-.294 1.996-.833 2.847l-.005.007c-.052.082-.16.107-.243.055-.082-.052-.107-.16-.055-.243l.005-.008c.473-.747.788-1.589.782-2.486l-.202.102c-1.287.652-2.658 1.347-4.629.972-.096-.018-.158-.11-.141-.205.018-.096.11-.158.205-.141 1.854.353 3.17-.314 4.405-.94.487-.247.962-.487 1.452-.662m18.886-11.95c.052-.082.161-.106.243-.054.082.052.106.161.054.243-.504.79-1.111 1.475-1.829 2.073.066.288.058.582.002.88-.078.416-.248.835-.439 1.258-.25.553-.277 1.139-.133 1.719.028.114.063.229.104.342.041.113.089.227.143.341l.002.005c.048.101.086.203.114.305.621-.814 1.553-1.331 2.511-1.653h.002c.092-.03.192.02.222.112.03.092-.02.192-.112.222h-.0001c-1.01.339-2 .912-2.559 1.853-.006.379-.115.751-.266 1.096-.34.772-.133 1.813.101 2.796.512-.768 1.134-1.385 1.996-1.814.087-.043.193-.008.236.079.043.087.008.193-.079.236-.91.454-1.526 1.126-2.039 1.977.029.12.056.239.083.359v.003c.142.639.188 1.397.153 2.05l-.395-.019c.034-.621.034-1.347-.101-1.955v-.003c-.04-.178-.086-.37-.133-.565-.194-.805-.402-1.666-.344-2.441-.58-.749-1.271-1.405-2.047-1.949-.079-.055-.099-.165-.043-.245.055-.079.165-.099.245-.043.715.501 1.361 1.096 1.918 1.766.1-.407.313-.757.355-1.187.027-.274-.006-.556-.135-.828l-.003-.007c-.058-.122-.11-.246-.155-.371-.046-.126-.084-.252-.115-.378-.143-.577-.135-1.161.063-1.722-.624-.443-1.355-.734-2.08-.962-.093-.029-.145-.128-.116-.221.029-.093.128-.145.221-.116.736.231 1.474.526 2.114.966.162-.366.302-.726.367-1.072.068-.362.053-.713-.11-1.047-.079-.162-.122-.248-.162-.329-.309-.618-.581-1.16-.6-1.772-.003-.097.073-.178.17-.181.097-.003.178.073.181.17.017.535.272 1.045.563 1.626.067.133.134.268.165.332l.014.029c.645-.553 1.197-1.185 1.656-1.905m7.121 13.73c.083-.05.191-.023.241.061.05.083.023.191-.061.241-.642.384-1.363.789-2.13.814-.123.297-.317.577-.574.84-.283.29-.437.604-.496.947-.028.163-.035.333-.025.512.73-.452 1.66-.186 2.363-.606.083-.05.191-.023.241.061.05.083.023.191-.061.241-.76.454-1.791.13-2.497.702.133.768.215 1.415.007 2.191.522-.228 1.317-.389 1.661-.85l.0001-.0001.0001-.002c.059-.077.169-.092.247-.033.077.059.092.169.033.247-.456.612-1.444.755-2.101 1.105-.132.336-.293.65-.453.956-.4.761-.346 1.79-.143 2.601l-.342.02c-.189-.759-.249-1.627.004-2.384-.445-.652-.91-1.389-.986-2.194-.009-.097.062-.182.159-.191.097-.009.182.062.192.159.063.668.437 1.291.8 1.839l.007-.013c.233-.442.465-.904.599-1.413.132-.502.172-1.056.025-1.696-.09-.39-.132-.754-.105-1.097-.47-.446-.88-.954-1.363-1.386-.072-.065-.078-.176-.014-.248.065-.072.176-.078.248-.014.427.382.798.822 1.201 1.228.092-.331.264-.638.543-.923.419-.428.642-.9.634-1.419-.0001-.101-.012-.204-.031-.31-.019-.104-.048-.213-.086-.325v-.002c-.282-.825-.126-1.596.531-2.187.072-.065.184-.059.249.013.065.072.059.184-.013.249-.552.497-.67 1.121-.433 1.813v.002c.043.125.076.251.098.376.05.277.05.562-.001.837.657-.061 1.287-.428 1.837-.757m-16.901 9.445c-.057-.078-.04-.188.038-.245.078-.057.188-.04.245.038.449.615 1.082 1.134 1.8 1.405 1.122-.415 2.269-.513 3.426-.424 1.294.1 2.597.472 3.889.862l-.016.362c-1.272-.384-2.638-.775-3.9-.873-.167-.013-.334-.022-.5-.026-.141.745-.391 1.557-.936 2.095-.069.068-.181.067-.249-.002-.068-.069-.067-.181.002-.249.474-.467.698-1.19.826-1.846-.855.012-1.701.15-2.529.472-.223.937-.696 1.782-1.366 2.473-.068.07-.179.071-.249.003-.07-.068-.071-.179-.003-.249.565-.582.979-1.28 1.208-2.054-1.985.858-3.711.841-5.55.822l-.214-.002c-.097-.0001-.175-.08-.174-.177.0001-.097.08-.175.177-.174l.214.002c1.825.018 3.538.035 5.49-.831-.656-.309-1.202-.798-1.63-1.384m9.176 11.09c-.62 1.415-1.581 2.723-3.036 3.367-.089.039-.193-.0001-.232-.09-.039-.089.0001-.193.09-.232 1.324-.586 2.206-1.763 2.791-3.042-.722.036-1.369.248-1.94.641-.579.397-1.163.61-1.743.683-.171.022-.339.029-.506.024-.36.852-.938 1.624-1.838 1.949-.091.033-.192-.015-.225-.106-.033-.091.015-.192.106-.225.765-.276 1.262-.928 1.585-1.645-.835-.095-1.637-.404-2.497-.431-.513-.016-.999.046-1.478.193-.093.028-.191-.024-.219-.117-.028-.093.024-.191.117-.219.517-.158 1.039-.225 1.591-.208.419.013.828.096 1.235.188-.39-.386-.674-.874-.869-1.402-.033-.091.013-.193.105-.226.091-.033.193.013.226.105.261.707.695 1.343 1.364 1.703.414.077.831.121 1.259.067.439-.055.881-.199 1.321-.455-.636-.314-1.055-.949-1.46-1.511-.057-.079-.039-.189.04-.245.079-.057.189-.039.245.04.399.553.842 1.257 1.534 1.484.969-.628 2.122-.795 3.458-.518 1.355.281 2.899 1.02 4.63 2.2l-.135.354c-1.693-1.154-3.258-1.939-4.566-2.209-.331-.069-.649-.108-.955-.118m17.531 2.02c.064-.073.175-.079.248-.015.073.064.079.175.015.248-1 1.13-2.365 1.727-3.757 2.225-.052.553-.087 1.11-.157 1.661l-.367-.035c.152-1.199.152-2.466.53-3.619-.735-.639-1.11-1.44-1.144-2.422-.003-.097.073-.178.17-.181.097-.003.178.073.181.17.002.048.004.096.008.143.054.768.353 1.427.915 1.94.18-.429.43-.822.784-1.15.207-.192.331-.351.48-.599.37-.618.642-1.256.837-1.909.245-.815.372-1.654.425-2.509.006-.097.09-.171.187-.165.097.006.171.09.165.187-.055.88-.187 1.745-.439 2.587-.053.178-.112.354-.176.529.648-.187 1.184-.726 1.591-1.233.061-.076.172-.088.247-.027.076.061.088.172.027.247-.509.634-1.187 1.274-2.02 1.407-.167.395-.367.785-.603 1.167.995-.338 1.911-.89 2.737-1.534.076-.06.187-.046.247.03.06.076.046.187-.03.247-.991.773-2.105 1.413-3.326 1.737-.856.71-1.103 1.85-1.226 2.941 1.281-.467 2.532-1.027 3.454-2.069m-12.34 16.517c-.659.021-1.347 1.11-1.638 1.526-.056.079-.166.099-.245.043-.079-.056-.099-.166-.043-.245.418-.596 1.196-1.796 2.078-1.666.169-.357.374-.716.617-1.08l.007-.001.004-.004c.514-.621.872-1.359 1.088-2.133-.775-.19-1.507.398-2.024.897-.07.067-.181.065-.249-.005-.067-.07-.065-.181.005-.249.613-.592 1.451-1.214 2.358-.985.207-.817.361-1.548 1.195-2.158.484-.354.979-.598 1.583-.843l.23.287c-.583.237-1.153.508-1.606.839-.219.16-.387.335-.52.522.12.839.347 2.346 1.252 2.736.089.038.131.142.092.232-.038.089-.142.131-.231.092-.927-.399-1.227-1.662-1.388-2.554-.352.858-.441 1.773-.887 2.607.071.56.185 1.188.384 1.564.192.364.489.603.965.623.097.004.173.086.169.183-.004.097-.086.173-.183.169-.625-.026-1.012-.337-1.263-.81-.184-.347-.288-.779-.361-1.246-.103.154-.214.304-.335.452-.46.69-.775 1.362-.971 2.032-.197.673-.274 1.347-.259 2.038.002.097-.075.177-.172.179-.097.002-.177-.075-.179-.172-.016-.726.065-1.435.272-2.143.07-.239.154-.478.254-.717m19.272-4.438c-.417-.586-.601-1.331-.463-2.047.018-.095.111-.158.206-.14.096.018.158.111.14.206-.11.575.019 1.168.324 1.656.22-.314.489-.608.813-.879.585-.487 1.01-.912 1.268-1.414.26-.497.368-1.081.33-1.892-.004-.097.071-.179.168-.183.097-.004.179.071.183.168.041.876-.08 1.515-.37 2.07-.099.19-.217.368-.355.542.608-.118 1.185-.304 1.638-.79.066-.071.178-.075.249-.009.071.066.075.178.009.249-.624.669-1.424.836-2.276.973-.183.183-.389.366-.619.557-.711.592-1.128 1.312-1.358 2.095 1.188-.083 2.308-.433 3.311-1.1.081-.054.19-.031.244.05.054.081.031.19-.05.244-1.085.721-2.305 1.091-3.596 1.164-.168.785-.175 1.69-.121 2.503l-.351.023c-.062-.933-.045-1.984.192-2.864.111-.412.268-.808.484-1.183m-7.07 6.844c.058.935-.119 1.89-.612 2.698-.05.083-.159.109-.242.059-.083-.05-.109-.159-.059-.242.457-.749.619-1.641.561-2.507-.754.029-1.462.13-2.141.394-.26.101-.502.235-.733.392.054 1.114-.18 2.213-.679 3.211-.043.087-.149.122-.236.078-.087-.043-.122-.149-.079-.236.435-.87.66-1.824.649-2.796-.481.392-.913.875-1.339 1.351-.593.663-1.175 1.314-1.881 1.721-.084.048-.192.019-.24-.065-.048-.084-.019-.191.065-.24.714-.411 1.27-1.067 1.812-1.67-.601-.11-1.22-.122-1.818.014-.095.021-.189-.038-.21-.133-.021-.095.038-.189.133-.21.715-.162 1.456-.13 2.169.025.658-.724 1.354-1.418 2.26-1.77.766-.298 1.554-.4 2.391-.422 1.292-.034 2.583.112 3.876.075l.001.331c-1.221.035-2.437-.071-3.657-.058" fill="#963" fill-rule="nonzero"/><path d="m103.11 149.88c1.868 2.126 3.544 4.605 5.409 6.984.03-.81.138-1.662.386-2.438.158.06.316.1.483.123-.295.91-.409 1.908-.373 2.877.31-.836 1.02-1.425 1.792-1.807.079.15.171.288.282.418-.799.382-1.503.993-1.705 1.903.619.749 1.264 1.481 1.946 2.181.785.805 1.955.81 2.705 2.068.766 1.285 1.938 1.851 2.76 2.684 2.326 2.355 4.708 4.559 6.963 6.573 1.96 1.75 3.698 3.408 6.122 3.815-1.252.506-1.529 3.186-.924 4.602-.916-.929-1.717-1.93-2.635-2.9-1.561-1.649-3.27-3.18-4.803-4.854-3.471-3.788-6.642-7.162-9.579-9.775-1.106-.984-2.056-2.183-3.133-3.447-1.874-2.2-3.083-4.282-4.722-6.231l-.156-.187c-1.281.234-2.596.799-3.566 1.689-.073-.153-.16-.298-.263-.433.931-.825 2.143-1.388 3.342-1.665-.765-.112-1.633-.379-2.482-.639-.89-.273-1.948-.54-2.598-.604-.028-.171-.08-.343-.148-.503.752.031 1.905.327 2.892.63.694.213 1.402.431 2.039.558-.882-1.125-1.569-2.146-2.164-3.265-1.397-2.626-2.114-5.699-3.85-8.104-1.194-1.655-1.92-3.353-2.682-5.173-.79-1.885-1.785-3.734-2.402-5.711-.636-.848-1.57-1.063-2.539-1.046.029-.164.041-.334.035-.501.774-.011 1.592.112 2.237.582-.063-.263-.118-.529-.163-.798-.17-1.01-.339-1.114-1.071-1.579-1.731-1.099-3.406-1.951-4.377-3.849l-1.23-2.407c-.767-1.5-2.624-2.561-3.913-3.574l.37-.471c1.375 1.082 3.256 2.173 4.074 3.773l1.23 2.407c.911 1.782 2.537 2.582 4.166 3.615.915.581 1.126.715 1.341 1.987.467 2.768 1.931 5.01 2.961 7.473.714 1.705 1.411 3.308 2.532 4.861.206.286.397.577.576.871.083-.561.229-1.216.472-1.763.152.089.313.161.483.214-.267.695-.627 1.945-.503 2.349.562-.746 1.467-1.162 2.371-1.301.002.164.021.33.059.495-.859.137-1.696.556-2.173 1.31 1.32 2.69 2.02 5.586 4.125 7.981m25.937 28.27c.026.649.165 1.61.551 2.165.231.332.547.322 1.064-.29.76-.902.948-2.715.517-3.8-.264-.663-.668-.992-1.061-.847-.854.316-1.1 2.024-1.07 2.773"/></g></svg>