<svg xmlns="http://www.w3.org/2000/svg" width="300" height="360" viewBox="0 0 84.666667 101.6" fill-rule="evenodd"><defs><radialGradient id="0" gradientUnits="userSpaceOnUse" cx="97.52" cy="134.29" r="7.563"><stop stop-color="#fff"/><stop offset="1" stop-color="#fc0"/></radialGradient></defs><g transform="matrix(1.37948 0 0 1.38134-102.51-154.33)"><path d="m74.31 160.05c.072.615.164 1.225.279 1.828 2.524 13.29 15.18 23.398 30.409 23.398 15.228 0 27.885-10.11 30.409-23.397.115-.603.207-1.213.279-1.828v-48.33h-61.38v48.33"/><path d="m76.53 167.09c-.944-2.23-1.583-4.597-1.874-7.06v-47.963h60.692v47.963c-.29 2.464-.93 4.832-1.874 7.06-4.421 10.441-15.503 17.847-28.472 17.847-12.969 0-24.05-7.406-28.472-17.848" fill="#fff"/><path fill="#49a348" d="M135.35 112.06 105 184.93 74.65 112.06z"/><path d="m104.82 123.67c.71-1.878 2.106-3.372 3.813-4.388 1.95.244 3.209 1.851 3.442 3.575-4.242.749-6.174 4.124-6.458 8.18-.741-1.205-1.27-2.746-1.429-4.184-5.109 1.843-9.742-1.849-9.962-6.186 4.419-.93 8.467-.558 10.594 3" fill-rule="nonzero"/><path d="m104.79 124.76c.484-2.132 1.897-3.958 3.839-5.114 1.265.159 2.279 1.032 2.53 2.155-1.047-.21-1.999-.649-2.787-1.257.462.65 1.063 1.212 1.764 1.652-2.815 1.18-4.835 3.653-5.132 6.577-.313-.916-.558-1.804-.499-2.761-1.086-2.282-3.451-3.858-6.255-3.936 2.291.561 4.117 2.149 4.837 4.185-3.953.875-8.05-1.623-8.599-5.361 3.959-1.072 9.128-.148 10.303 3.86" fill="#fc0"/><path d="m112.33 128.03v.0001c2.111 0 4.02.821 5.409 2.147 1.388 1.329 2.247 3.167 2.248 5.199h.0001v.0001c0 1.366-.421 2.686-1.069 3.969-.635 1.258-1.487 2.479-2.369 3.674l-.004.007v.0001l-.0001-.0001c-.32.435-.644.965-.977 1.508-.718 1.174-1.471 2.405-2.476 3.131-.035.025-.067.048-.093.066-.145.102-.302.201-.468.295-.159.091-.325.176-.498.255-.853.389-1.835.605-2.951.6-.05 0-.096-.0001-.138-.002-.198-.005-.39-.017-.576-.037-.192-.02-.38-.048-.564-.082-.841-.157-1.626-.463-2.323-.887-.121.073-.246.144-.376.212-.165.086-.329.165-.493.235-.835.357-1.76.557-2.734.561-.047 0-.093 0-.138 0-.22-.003-.435-.014-.644-.034-.211-.02-.416-.048-.616-.084-.999-.18-1.864-.56-2.601-1.09l-.013-.009c-1-.725-1.755-1.957-2.474-3.131-.332-.542-.656-1.072-.983-1.515-.882-1.195-1.734-2.416-2.369-3.674-.648-1.284-1.069-2.603-1.069-3.969h.0001c0-2.032.859-3.871 2.248-5.2 1.385-1.326 3.297-2.146 5.408-2.147v-.0001h.0001.002v.0001c2.314 0 4.621.564 6.542 1.88 2.023-1.331 4.76-1.882 7.156-1.882z" fill-rule="nonzero"/><path d="m104.73 130.66c1.634-1.296 3.836-2.073 6.468-2.073 3.801 0 6.883 2.951 6.883 6.59 0 2.46-1.531 4.78-3.177 7.01-.988 1.339-1.871 3.36-3.19 4.313-.949.686-2.138 1.09-3.581 1.083-1.262-.006-2.434-.38-3.403-1.015-.968.636-2.14 1.01-3.403 1.015-1.443.007-2.633-.397-3.581-1.083-1.319-.953-2.202-2.974-3.19-4.313-1.646-2.23-3.177-4.55-3.177-7.01 0-3.639 3.082-6.59 6.883-6.59 2.632 0 4.834.778 6.468 2.073" fill="url(#0)"/></g></svg>