<svg xmlns="http://www.w3.org/2000/svg" width="300" height="360" viewBox="0 0 84.666667 101.6" fill-rule="evenodd"><path d="m62.58 48.55c.828 0 1.5.672 1.5 1.5v1.5c0 .828-.672 1.5-1.5 1.5h-1.5v-4.5h1.5m0 6c1.657 0 3-1.343 3-3v-1.5c0-1.657-1.343-3-3-3h-3v7.5h3m-6-7.5h1.5v7.5h-1.5v-7.5m-3 0h1.5v7.5h-1.5l-3-4.709v4.709h-1.5v-7.5h1.5l3 4.709v-4.709m-22.5 0h4.5v1.5h-3v1.5h3v1.5h-3v1.5h3v1.5h-4.5v-7.5m-6 0h1.5v6h3v1.5h-4.5v-7.5m15.75 6h1.5c1.242 0 2.25-1.01 2.25-2.25 0-1.242-1.026-2.246-2.25-2.25h-1.5v1.5h1.5c.414 0 .75.336.75.75 0 .414-.336.75-.75.75h-1.5v1.5m1.5-7.5c2.899 0 5.25 2.351 5.25 5.25 0 2.899-2.351 5.25-5.25 5.25-2.899 0-5.25-2.351-5.25-5.25 0-2.899 2.351-5.25 5.25-5.25m0 1.5c2.071 0 3.75 1.679 3.75 3.75 0 2.071-1.679 3.75-3.75 3.75-2.071 0-3.75-1.679-3.75-3.75 0-2.071 1.679-3.75 3.75-3.75" fill="#a90000"/><path d="m42.33 0c14.755 0 28.12 2.554 37.8 6.682 1.593.679 3.086 1.402 4.472 2.163v20.777c-3.151 2.427-5.183 6.241-5.183 10.53 0 4.289 2.032 8.102 5.183 10.529 0 8.606.848 17.682-3.744 25.457-4.636 7.848-13.512 11.689-21.507 15.15-6.096 2.638-12.566 5.142-17.02 10.314-4.454-5.172-10.924-7.676-17.02-10.314-7.995-3.46-16.872-7.301-21.507-15.15-4.592-7.774-3.744-16.85-3.744-25.457 3.151-2.427 5.183-6.24 5.183-10.529 0-4.289-2.032-8.103-5.183-10.53v-20.777c1.385-.762 2.879-1.484 4.472-2.163 9.68-4.128 23.04-6.682 37.8-6.682"/><path d="m42.33.657c-13.671 0-29.29 1.938-41.613 8.579v20.07c3.266 2.639 5.18 6.629 5.18 10.847 0 4.208-1.938 8.226-5.181 10.847-.027 8.358-.798 17.271 3.652 24.804 4.57 7.737 13.339 11.477 21.2 14.879 5.963 2.58 12.241 5.03 16.76 9.932 4.519-4.907 10.798-7.352 16.76-9.932 7.862-3.402 16.631-7.142 21.2-14.879 4.45-7.533 3.679-16.446 3.652-24.804-3.243-2.621-5.181-6.639-5.181-10.847 0-4.217 1.915-8.207 5.18-10.847v-20.07c-12.321-6.641-27.942-8.579-41.613-8.579" fill="#feed01"/><g stroke="#000"><g stroke-width=".316"><path d="m52.06 37.09l-2.549 3.663c-3.087-1.406-6.377-1.518-9.108-.64-.873-1.199-1.566-2.624-2.191-4.078 4.364-1.465 9.624-1.134 13.848 1.055z"/><path d="m61.2 52.33c-8.279-.21-19.938-6.517-23.624-16.08-1.483.567-2.844 1.35-4 2.346 3.649 8.505 14.721 17.45 25.574 17.41l.752-2.215 1.299-1.457z"/><path d="m32.813 50.3c2.933-.328 5.695-1.238 8.236-2.73 1.159 1.062 2.41 2.06 3.729 2.97-2.789 1.839-6.085 3.086-10.08 3.458l-.423-2.159-1.462-1.539zm11.915-5.439c2.372-2.14 4.485-4.898 6.285-8.273 1.352.583 2.618 1.341 3.741 2.278-1.792 3.192-3.827 6.205-6.337 8.697-1.288-.804-2.53-1.707-3.69-2.702z"/></g><g fill="#feed01" stroke-width=".447"><path d="m31.759 49.841c1.798 0 3.255 1.461 3.255 3.262 0 1.801-1.458 3.261-3.255 3.261-1.798 0-3.255-1.46-3.255-3.261 0-1.801 1.458-3.262 3.255-3.262zm0 .932c1.284 0 2.325 1.043 2.325 2.33 0 1.287-1.041 2.33-2.325 2.33-1.284 0-2.325-1.043-2.325-2.33 0-1.287 1.041-2.33 2.325-2.33z"/><path d="m62.32 51.95c1.797 0 3.255 1.461 3.255 3.262 0 1.801-1.458 3.261-3.255 3.261-1.798 0-3.255-1.46-3.255-3.261 0-1.801 1.458-3.262 3.255-3.262zm0 .932c1.284 0 2.325 1.043 2.325 2.33 0 1.287-1.041 2.33-2.325 2.33-1.284 0-2.325-1.043-2.325-2.33 0-1.287 1.041-2.33 2.325-2.33z"/></g></g><g fill-rule="nonzero"><path d="m29.961 49.37c-1.046-1.548-2.01-3.174-2.699-4.917-1.051 1.923-3.391 3.235-5.167 4.402-2.458 1.615-5.42 2.581-7.325 2.693l3.988 4.802c4.463-.642 8.31-3.682 11.202-6.98m43.866-3.234c-.388-.511-.976-.856-1.614-.935-.998 1.247-2.01 2.403-3.064 3.478-1.02 1.041-2.08 2.01-3.204 2.911 1.484.536 2.967 2.293 3.424 3.769.85-1.274 1.665-2.634 2.419-4.152.75-1.511 1.439-3.179 2.04-5.073m-14.96 10.848c-6.934 4.141-15.676 4.888-22.621.063-2.204 3.636-5.159 6.584-9.04 8.396 11.298 9.416 26.984 7.818 36.521-2.576-.874-2.352-2.592-4.692-4.861-5.882"/><path d="m36.15 56.937c-.575-.742-1.27-1.53-2.14-1.927-.554-.985-1.253-2.194-2.27-2.751-.346-1.041-.916-1.999-1.681-2.785-2.901 3.304-6.746 6.336-11.211 7 .215 1.497 1.349 2.532 2.6 3.241.419 1.556 1.246 2.721 2.886 3.101.271 1.444 1.378 2.27 2.777 2.512 3.887-1.805 6.839-4.754 9.04-8.395m33.14-1.353c-.324-1.4-1.964-3.436-3.472-3.89-.78.343-1.624.859-1.928 1.703-.799.281-1.854.682-2.147 1.57-1.134.402-1.991 1-2.748 1.921 2.266 1.214 3.984 3.55 4.865 5.913.96-.353 1.822-1.623 2.135-2.548.912-.545 1.446-1.524 1.835-2.479.795-.554 1.203-1.275 1.461-2.189" fill="#feed01"/></g><g fill="none" stroke="#000"><g stroke-width=".447"><path d="m65.805 51.617c1.175.331 3.197 2.429 3.548 3.951m-5.54-2.231c1.303.23 3.561 3.136 4.073 4.51m-6.22-2.914c1.487.761 3.569 3.303 4.435 5.339m-7.245-3.377c2.2 1.133 4.066 3.567 4.953 5.98m8.379-17.755c-2.01 2.517-4.077 4.66-6.433 6.531-.829.377-1.624.875-1.922 1.69-.794.285-1.862.715-2.149 1.571-1.587.593-2.228 1.326-2.779 1.967-6.913 4.058-15.524 4.951-22.645.089-.737-.964-1.475-1.679-2.202-2.01-.703-1.271-1.457-2.303-2.262-2.745-.342-1.036-.97-2.069-1.755-2.853-1.012-1.495-2.065-3.248-2.76-5.059m46.642 1.771c-1.216 3.868-2.798 6.793-4.523 9.372-.246.912-.54 1.698-1.516 2.378-.518 1.289-1.138 2.065-1.834 2.481-.404 1.104-1.11 2.221-2.253 2.597-10.01 10.823-25.493 11.826-36.677 2.562-1.363-.348-2.542-.962-2.849-2.579-1.764-.417-2.475-1.624-2.885-3.112-1.411-.808-2.413-1.853-2.613-3.299l-4.115-5.01m4.093 4.959c3.681-.524 7.615-2.827 11.307-7.05m-8.724 10.45c3.662-.956 7.149-3.586 10.492-7.61m-7.616 10.682c3.946-1.269 7.154-4.113 9.813-7.98m-6.883 10.489c4.332-2.01 7.06-5.088 9.106-8.483"/><path d="m77.62 40.674l-3.733 5.426c-.427-.568-1.066-.918-1.745-.98l2.065-6.501"/></g><ellipse transform="matrix(1.19532.7196-.76837 1.28123 75.917 39.646)" rx="1.427" ry=".543" cx="0" cy="0" stroke-width=".31"/><ellipse transform="matrix(.90055.54214-.37126.61905 75.917 39.646)" rx="1.427" ry=".543" cx="0" cy="0" stroke-width=".12"/><path d="m23.61 33.07l3.705 11.12c-1.416 3.03-9.08 7.269-12.735 7.335l-7.325-10.462" stroke-width=".447"/><ellipse transform="matrix(.64434-.31487.39255.80639 15.432 37.07)" rx="12.691" ry="3.371" cx="0" cy="0" stroke-width=".558"/><ellipse transform="matrix(.49182-.24034.20327.41756 15.385 36.97)" rx="12.691" ry="3.371" cx="0" cy="0" stroke-width="1.774"/></g></svg>