<svg xmlns="http://www.w3.org/2000/svg" viewBox="0 0 300 360"><defs><linearGradient id="0" gradientUnits="userSpaceOnUse" x2="89.92" x1="119.74"><stop stop-color="#e5e5e5"/><stop stop-color="#fff" offset="1"/></linearGradient></defs><g transform="translate(-167.14-552.36)" fill-rule="evenodd"><path fill="#a90000" d="m388.89 724.39c2.935 0 5.315 2.38 5.315 5.315v5.314c0 2.935-2.38 5.315-5.315 5.315h-5.315v-15.944h5.315m0 21.259c5.87 0 10.63-4.76 10.63-10.63v-5.314c0-5.87-4.76-10.63-10.63-10.63h-10.63v26.574h10.63m-21.26-26.574h5.315v26.574h-5.315v-26.574m-10.63 0h5.315v26.574h-5.315l-10.63-16.684v16.684h-5.315v-26.574h5.315l10.63 16.684v-16.684m-79.72 0h15.945v5.315h-10.63v5.315h10.63v5.315h-10.63v5.315h10.63v5.315h-15.945v-26.574m-21.26-.0001h5.315v21.26h10.63v5.315h-15.945v-26.575m55.808 21.26h5.314c4.402 0 7.972-3.57 7.972-7.972s-3.637-7.957-7.972-7.972h-5.314v5.315h5.314c1.467 0 2.658 1.19 2.658 2.658s-1.19 2.658-2.658 2.658h-5.314v5.315m5.314-26.575c10.272 0 18.602 8.33 18.602 18.602s-8.33 18.602-18.602 18.602-18.602-8.33-18.602-18.602 8.33-18.602 18.602-18.602m0 5.315c7.337 0 13.287 5.95 13.287 13.287 0 7.337-5.95 13.287-13.287 13.287-7.337 0-13.287-5.95-13.287-13.287 0-7.337 5.95-13.287 13.287-13.287"/><path d="m317.14 552.36c52.28 0 99.64 9.05 133.94 23.675 5.643 2.406 10.936 4.967 15.845 7.665v73.62c-11.166 8.599-18.365 22.11-18.365 37.31s7.199 28.709 18.365 37.31c0 30.495 3.01 62.65-13.266 90.2-16.425 27.809-47.876 41.42-76.21 53.679-21.6 9.348-44.526 18.22-60.31 36.545-15.782-18.325-38.709-27.2-60.31-36.545-28.33-12.259-59.781-25.87-76.21-53.679-16.272-27.546-13.266-59.705-13.266-90.2 11.166-8.598 18.365-22.11 18.365-37.31 0-15.196-7.199-28.711-18.365-37.31v-73.62c4.908-2.698 10.202-5.259 15.845-7.665 34.3-14.625 81.66-23.675 133.94-23.675z"/><path fill="#feed01" d="m317.14 554.69c-48.44.0001-103.79 6.868-147.45 30.399v71.11c11.571 9.352 18.355 23.489 18.356 38.433 0 14.91-6.865 29.15-18.358 38.435-.095 29.616-2.827 61.2 12.94 87.89 16.194 27.415 47.27 40.666 75.12 52.721 21.13 9.142 43.37 17.807 59.39 35.19 16.01-17.386 38.26-26.05 59.39-35.19 27.857-12.05 58.929-25.305 75.12-52.721 15.767-26.693 13.04-58.27 12.94-87.89-11.492-9.286-18.358-23.525-18.358-38.435.0001-14.944 6.785-29.08 18.356-38.433v-71.11c-43.65-23.52-99.01-30.39-147.45-30.39z"/><g transform="matrix(3.07684 0 0 3.07684 185.84 628.48)"><g stroke="#000"><g stroke-width=".316"><path d="m52.06 37.09l-2.549 3.663c-3.087-1.407-6.377-1.518-9.108-.64-.873-1.199-1.566-2.624-2.191-4.078 4.364-1.465 9.624-1.133 13.848 1.055z"/><path d="m61.2 52.33c-8.28-.211-19.939-6.517-23.625-16.08-1.483.567-2.843 1.35-4 2.346 3.649 8.505 14.721 17.45 25.574 17.41l.752-2.215 1.299-1.457z"/><path d="m32.813 50.3c2.933-.328 5.695-1.238 8.236-2.73 1.159 1.062 2.41 2.06 3.729 2.97-2.789 1.839-6.085 3.086-10.08 3.458l-.423-2.159-1.462-1.539zm11.915-5.439c2.372-2.14 4.485-4.898 6.285-8.273 1.352.583 2.618 1.341 3.741 2.278-1.791 3.192-3.827 6.205-6.337 8.697-1.288-.804-2.53-1.707-3.69-2.702z"/></g><g fill="#feed01" stroke-width=".447"><path d="m31.759 49.841c1.798 0 3.255 1.461 3.255 3.262 0 1.801-1.458 3.261-3.255 3.261s-3.255-1.46-3.255-3.261 1.458-3.262 3.255-3.262zm0 .932c1.284 0 2.325 1.043 2.325 2.33s-1.041 2.33-2.325 2.33-2.325-1.043-2.325-2.33 1.041-2.33 2.325-2.33z"/><path d="m62.32 51.95c1.797 0 3.255 1.461 3.255 3.262 0 1.801-1.458 3.261-3.255 3.261-1.798 0-3.255-1.46-3.255-3.261s1.458-3.262 3.255-3.262zm0 .932c1.284 0 2.325 1.043 2.325 2.33s-1.041 2.33-2.325 2.33-2.325-1.043-2.325-2.33 1.041-2.33 2.325-2.33z"/></g></g><g fill-rule="nonzero"><path d="m29.961 49.37c-1.046-1.548-2.01-3.174-2.699-4.917-1.052 1.923-3.391 3.235-5.167 4.402-2.458 1.615-5.42 2.581-7.325 2.693l3.988 4.802c4.463-.642 8.31-3.682 11.202-6.98m43.866-3.234c-.388-.511-.976-.856-1.614-.935-.998 1.247-2.01 2.403-3.064 3.478-1.02 1.041-2.08 2.01-3.204 2.912 1.484.536 2.967 2.293 3.424 3.769.85-1.274 1.665-2.634 2.419-4.152.75-1.511 1.439-3.179 2.04-5.073m-14.96 10.848c-6.934 4.141-15.676 4.888-22.621.063-2.204 3.636-5.159 6.584-9.04 8.396 11.298 9.416 26.984 7.818 36.521-2.576-.874-2.352-2.592-4.692-4.861-5.882"/><path fill="#feed01" d="m36.15 56.937c-.575-.742-1.27-1.53-2.14-1.927-.554-.985-1.254-2.194-2.27-2.751-.346-1.041-.916-1.999-1.681-2.785-2.901 3.304-6.746 6.336-11.211 7 .215 1.497 1.349 2.532 2.6 3.241.419 1.556 1.247 2.721 2.886 3.101.271 1.445 1.378 2.27 2.777 2.512 3.887-1.805 6.839-4.754 9.04-8.395m33.14-1.353c-.324-1.4-1.964-3.436-3.472-3.891-.78.343-1.624.859-1.928 1.703-.799.281-1.854.682-2.147 1.57-1.134.402-1.991 1-2.748 1.921 2.266 1.214 3.984 3.55 4.865 5.913.96-.353 1.822-1.623 2.135-2.548.912-.545 1.446-1.524 1.835-2.48.795-.554 1.203-1.275 1.461-2.189"/></g><g fill="none" stroke="#000"><g stroke-width=".447"><path d="m65.805 51.617c1.175.331 3.197 2.429 3.548 3.951m-5.54-2.23c1.303.23 3.561 3.136 4.073 4.51m-6.22-2.914c1.487.761 3.569 3.303 4.435 5.339m-7.245-3.377c2.2 1.133 4.066 3.567 4.953 5.98m8.379-17.755c-2.01 2.517-4.077 4.66-6.433 6.531-.829.377-1.624.875-1.922 1.69-.794.285-1.862.715-2.148 1.571-1.587.593-2.228 1.326-2.779 1.966-6.913 4.058-15.524 4.952-22.645.089-.737-.964-1.475-1.678-2.202-2.01-.703-1.271-1.456-2.303-2.262-2.745-.342-1.036-.97-2.069-1.755-2.853-1.012-1.495-2.065-3.248-2.76-5.059m46.642 1.771c-1.216 3.868-2.798 6.793-4.523 9.372-.246.912-.54 1.698-1.516 2.378-.518 1.289-1.138 2.065-1.834 2.481-.404 1.104-1.11 2.221-2.253 2.597-10.02 10.823-25.493 11.826-36.677 2.562-1.363-.348-2.542-.962-2.849-2.579-1.764-.417-2.475-1.624-2.885-3.112-1.411-.808-2.413-1.853-2.613-3.298l-4.115-5.01m4.093 4.959c3.681-.524 7.615-2.827 11.307-7.05m-8.724 10.45c3.662-.956 7.149-3.586 10.492-7.61m-7.619 10.678c3.946-1.269 7.154-4.113 9.813-7.98m-6.883 10.489c4.332-2.01 7.06-5.088 9.106-8.483"/><path d="m77.62 40.674l-3.733 5.426c-.427-.568-1.066-.917-1.745-.979l2.065-6.501"/></g><ellipse ry=".543" rx="1.427" transform="matrix(1.19532.7196-.76837 1.28123 75.917 39.646)" cy="0" cx="0" stroke-width=".31"/><ellipse ry=".543" rx="1.427" transform="matrix(.90055.54214-.37126.61905 75.917 39.646)" cy="0" cx="0" stroke-width=".12"/><path d="m23.61 33.07l3.705 11.12c-1.416 3.03-9.08 7.269-12.735 7.335l-7.325-10.462" stroke-width=".447"/><ellipse ry="3.371" rx="12.691" transform="matrix(.64434-.31487.39255.80639 15.432 37.07)" cy="0" cx="0" stroke-width=".558"/><ellipse ry="3.371" rx="12.691" transform="matrix(.49182-.24034.20327.41756 15.385 36.97)" cy="0" cx="0" stroke-width="1.774"/></g></g><g transform="matrix(1.77907 0 0 1.77907 130.78 386.55)"><g><g><circle cy="133.49" cx="99.71" r="1.539"/><circle cy="152.9" cx="71.16" r="1.539"/><circle cy="133.02" cx="96.94" r="1.696"/><circle cy="147.28" cx="69.95" r="1.774"/><circle cy="150.15" cx="70.42" r="1.696"/><circle cy="132.48" cx="94.14" r="1.774"/><circle cy="144.12" cx="69.868" r="1.853"/><circle cy="132" cx="91.11" r="1.853"/><circle cy="140.78" cx="70.21" r="1.931"/><circle cy="131.57" cx="87.92" r="1.931"/><circle cy="137.57" cx="71.63" r="2.01"/><circle cy="131.42" cx="84.51" r="2.01"/><circle cy="134.69" cx="73.982" r="2.088"/><circle cy="131.69" cx="80.924" r="2.088"/><circle cy="132.65" cx="77.18" r="2.088"/></g><g fill="#fff"><circle cy="133.49" cx="99.71" r=".94"/><circle cy="152.9" cx="71.16" r=".94"/><circle cy="133.02" cx="96.94" r="1.097"/><circle cy="147.28" cx="69.95" r="1.175"/><circle cy="150.15" cx="70.42" r="1.097"/><circle cy="132.48" cx="94.14" r="1.175"/><circle cy="144.12" cx="69.868" r="1.254"/><circle cy="132" cx="91.11" r="1.254"/><circle cy="140.78" cx="70.21" r="1.333"/><circle cy="131.57" cx="87.92" r="1.333"/><circle cy="137.57" cx="71.63" r="1.411"/><circle cy="131.42" cx="84.51" r="1.411"/><circle cy="134.69" cx="73.982" r="1.489"/><circle cy="131.69" cx="80.924" r="1.489"/><circle cy="132.65" cx="77.18" r="1.489"/></g></g><g><g><circle cy="133.49" cx="109.79" r="1.539"/><circle cy="152.9" cx="138.34" r="1.539"/><circle cy="133.02" cx="112.55" r="1.696"/><circle cy="147.28" cx="139.55" r="1.774"/><circle cy="150.15" cx="139.07" r="1.696"/><circle cy="132.48" cx="115.36" r="1.774"/><circle cy="144.12" cx="139.63" r="1.853"/><circle cy="132" cx="118.39" r="1.853"/><circle cy="140.78" cx="139.29" r="1.931"/><circle cy="131.57" cx="121.58" r="1.931"/><circle cy="137.57" cx="137.86" r="2.01"/><circle cy="131.42" cx="124.99" r="2.01"/><circle cy="134.69" cx="135.51" r="2.088"/><circle cy="131.69" cx="128.57" r="2.088"/><circle cy="132.65" cx="132.31" r="2.088"/></g><g fill="#fff"><circle cy="133.49" cx="109.79" r=".94"/><circle cy="152.9" cx="138.34" r=".94"/><circle cy="133.02" cx="112.55" r="1.097"/><circle cy="147.28" cx="139.55" r="1.175"/><circle cy="150.15" cx="139.07" r="1.097"/><circle cy="132.48" cx="115.36" r="1.175"/><circle cy="144.12" cx="139.63" r="1.254"/><circle cy="132" cx="118.39" r="1.254"/><circle cy="140.78" cx="139.29" r="1.333"/><circle cy="131.57" cx="121.58" r="1.333"/><circle cy="137.57" cx="137.86" r="1.411"/><circle cy="131.42" cx="124.99" r="1.411"/><circle cy="134.69" cx="135.51" r="1.489"/><circle cy="131.69" cx="128.57" r="1.489"/><circle cy="132.65" cx="132.31" r="1.489"/></g></g><g fill-rule="nonzero"><path fill="#000" d="m77.5 180.74c-3.474-.115-5.94-1.989-5.918-5.641.037-6.413-.225-12.369-4.118-17.789l-.013-.019-.012-.02c-1.089-1.852-.212-4.128 1.9-4.731 1.089-.311 2.089-.277 2.997-.0001-1.557-5.525-2-11.278 1.697-15.39 5.04-5.607 13.651-4.223 20.11-3.183 3.479.56 6.982.94 10.509.95 3.592.011 7.159-.38 10.702-.95 6.463-1.04 15.07-2.424 20.11 3.183 3.711 4.126 3.251 9.903 1.681 15.445.845-.255 1.725-.31 2.586-.117 2.241.504 3.569 2.683 2.327 4.795l-.012.02-.013.019c-3.925 5.466-4.154 11.367-4.118 17.789.022 3.652-2.444 5.526-5.918 5.641-9 .297-18.224-.148-27.25-.145-9.03.003-18.247.442-27.25.145"/><path fill="#feed01" d="m136.32 152.92c1.631-5.515 2.224-11.289-1.377-15.293-4.788-5.323-13.179-3.974-19.481-2.96-2.597.418-5.207.74-7.831.881.051.597.109 1.194.172 1.79 2.861-.163 5.702-.538 8.536-1 5.491-.9 13.247-2.172 17.362 2.593 3.494 4.046 2.154 10.324.183 15.89.692-.818 1.53-1.473 2.435-1.899m-34.466-17.376c-2.62-.142-5.228-.46-7.821-.877-6.301-1.013-14.692-2.363-19.481 2.96-3.591 3.993-3.01 9.747-1.39 15.248.942.463 1.769 1.184 2.475 2.02-1.986-5.585-3.354-11.903.156-15.967 4.115-4.766 11.871-3.494 17.362-2.593 2.826.463 5.661.834 8.514.998.068-.596.129-1.192.184-1.79"/><g fill="#e12713"><path d="m112.6 154.63c1.838 1.239 3.197 3.359 3.828 6.751.828-4.169 4.181-8.815 8.733-9.02 2.897-.129 6.297 1.69 7 5.02 2.357-5.973 4.845-13.554 1.01-17.999-3.858-4.468-11.387-3.233-16.717-2.359-2.845.466-5.699.842-8.571 1.01.264 2.272.632 4.529 1.161 6.764.816 3.446 2.01 6.692 3.558 9.831"/><path d="m101.59 138.03c-2.863-.167-5.707-.539-8.543-1-5.33-.874-12.86-2.109-16.717 2.359-3.899 4.515-1.271 12.265 1.117 18.28.502-4.189 4.465-5.913 8.389-4.947 3.956.973 6.232 4.319 7.362 8.08.764-2.934 2.02-4.931 3.657-6.094 1.509-3.092 2.657-6.301 3.477-9.68.56-2.308.966-4.642 1.258-6.991"/></g><g fill="#feed01"><path d="m101.01 145.18c-.742 3.055-1.738 6.03-3.055 8.88.266-.12.539-.222.82-.307.141-.042.292-.081.452-.116 1.112-2.83 1.973-5.725 2.589-8.729.679-3.309 1.068-6.658 1.321-10.02-.171-.006-.343-.012-.514-.019-.287 3.484-.795 6.945-1.612 10.313m5.347-10.291c.253 3.363.642 6.711 1.321 10.02.61 2.973 1.46 5.839 2.554 8.64.438.122.861.274 1.266.459-1.418-3.01-2.424-6.02-3.143-9.06-.781-3.298-1.224-6.638-1.49-10.08-.17.007-.339.013-.509.018"/><path d="m109.38 153.36c-1.045-2.732-1.818-5.496-2.393-8.303-.681-3.318-1.085-6.692-1.339-10.143-.333.006-.666.008-.999.007-.269-.0001-.537-.004-.806-.008-.254 3.452-.659 6.826-1.339 10.144-.586 2.857-1.376 5.669-2.449 8.45 1.258-.163 2.843-.19 4.407-.226 1.792-.042 3.555-.159 4.763.051.052.009.104.019.156.029"/></g><path fill="url(#0)" d="m77.53 179.75c8.992.297 18.206-.373 27.22-.376 9.02-.003 18.231.673 27.22.376 2.936-.097 5.318-1.534 5.299-4.641-.043-6.637-.099-12.711 3.944-18.354.882-1.522-.123-2.947-1.696-3.301-3.993-.898-6.286 3.444-7.416 6.458-.409-4.714-3.243-6.55-7.08-6.273-5.617.407-7.635 5.882-8.789 10.702-.96-6.112-2.335-8.979-7.375-9.744-1.28-.194-2.884-.202-4.493-.186-1.824.018-3.654.095-5.03.464-3.948 1.062-5.138 3.641-6.078 8.74-.857-4.734-2.829-8.59-7.63-9.779-4.526-1.121-7.449 1.338-8.235 5.744-.878-3.1-4.262-7.199-7.921-5.982-1.398.465-1.913 1.912-1.192 3.157 4.15 5.793 4.118 11.566 4.074 18.354-.019 3.107 2.233 4.544 5.169 4.641"/><g fill="#000"><path d="m85.56 167.27c.662 2.417 1.638.964 2.126-.27.559-1.414 1.125-3.949 1.231-6.4.746 2.075.342 5.03-.091 6.666-.693 2.631-1.269 4.904-1.342 7.66-1.552-2.29-2.475-4.51-3.105-7.276-.522-2.292-1.199-4.911-2.692-6.416 2.409.659 3.376 4.227 3.872 6.04"/><path d="m104.36 167.01c.55 2.445 1.592 1.038 2.136-.172.623-1.387 1.306-3.893 1.525-6.337.649 2.107.11 5.04-.398 6.654-.814 2.596-1.493 4.84-1.694 7.59-1.445-2.359-2.265-4.619-2.766-7.412-.416-2.314-.971-4.961-2.393-6.534 2.376.769 3.178 4.379 3.59 6.209"/><path d="m72.32 166.58c.345 2.393 1.393 1.11 1.971-.019.662-1.293 1.452-3.661 1.813-6 .458 2.074-.228 4.861-.799 6.383-.916 2.445-1.686 4.56-2.049 7.196-1.172-2.372-1.776-4.606-2.054-7.33-.23-2.258-.567-4.846-1.769-6.458 2.13.904 2.63 4.436 2.888 6.228"/><path d="m123.94 167.27c-.662 2.417-1.638.964-2.126-.27-.559-1.414-1.125-3.949-1.231-6.4-.746 2.075-.342 5.03.091 6.666.693 2.631 1.269 4.904 1.342 7.66 1.552-2.29 2.475-4.51 3.105-7.276.522-2.292 1.199-4.911 2.692-6.416-2.409.659-3.376 4.227-3.872 6.04"/><path d="m137.18 166.58c-.345 2.393-1.393 1.11-1.971-.019-.662-1.293-1.452-3.661-1.813-6-.458 2.074.228 4.861.799 6.383.916 2.445 1.686 4.56 2.049 7.196 1.172-2.372 1.776-4.606 2.054-7.33.23-2.258.567-4.846 1.769-6.458-2.13.904-2.63 4.436-2.888 6.228"/><path d="m67.768 156.94c2.07-2.761 6.132-.274 7.359 2.093-1.92-1.835-5.01-3.237-6.403-1.376l-.956-.717m10.452 7.964c.014-2.949.164-6.776 3.265-8.274 3.228-1.561 7.01-.255 8.994 2.707-2.538-2.234-5.452-3.235-8.663-1.53h-.002c-2.792 1.549-2.874 3.628-3.594 7.097m30.76-6.889c-3.386-.804-8.483-.741-10.515 1.061l-.009.008c-1.228 1.104-1.964 2.046-2.895 5.244.106-1.909.544-4.742 2.101-6.137l.002-.002.009-.008c2.333-2.068 7.921-2.203 11.584-1.333 3.756.892 4.895 3.341 4.93 7.163-.844-3.068-2.02-5.239-5.206-5.996m8.446 6.254c.973-4.505 2.912-8.396 7.865-8.582 4.418-.166 5.899 2.788 5.896 6.83-.692-3.357-1.951-5.672-5.792-5.622-4.352.056-6.436 3.664-7.969 7.374m16.353-4.697c1.207-3.431 5.214-5.654 7.942-2.359l-.923.764c-2.324-2.715-5.452-.667-7.02 1.595"/></g></g><g><circle cy="151.87" cx="104.75" r="1.96"/><circle cy="148.42" cx="104.75" r="1.852"/><circle cy="145.18" cx="104.75" r="1.744"/><circle cy="142.15" cx="104.75" r="1.635"/><circle cy="139.35" cx="104.75" r="1.528"/><circle cy="136.76" cx="104.75" r="1.419"/><g fill="#fff"><circle cy="151.87" cx="104.75" r="1.361"/><circle cy="136.76" cx="104.75" r=".82"/><circle cy="148.42" cx="104.75" r="1.253"/><circle cy="145.18" cx="104.75" r="1.145"/><circle cy="139.35" cx="104.75" r=".928"/><circle cy="142.15" cx="104.75" r="1.037"/></g></g><g><g fill-rule="nonzero"><path d="m102.77 117.82l-1.11-3.94h6.18l-1.12 3.94 3.94-1.12v6.18l-3.94-1.11 1.12 3.93h-6.18l1.11-3.93-3.93 1.11v-6.18z"/><path fill="#feed01" d="m99.54 117.64v4.31l4.25-1.2-1.2 4.25h4.32l-1.21-4.25 4.25 1.2v-4.31l-4.25 1.2 1.21-4.25h-4.32l1.2 4.25z"/></g><circle cy="129.88" cx="104.75" r="5.597"/><g fill="#feed01"><path d="m104.8 124.99h.014.014.002c.028 0 .056.0001.084.002h.014.014c.029.0001.057.002.086.004h.014.014.014c.033.002.067.005.1.007l.014.0001.014.0001.014.0001.071.007.014.002.014.0001.014.002.029.004v4.407h4.266v.001c.037.415.021.836-.048 1.247h-9.65c-.014-.082-.025-.165-.035-.246v-.0001c-.038-.334-.042-.673-.011-1.01h4.219v-4.4c.029-.004.059-.008.088-.011h.0001c.087-.001.171-.018.25-.022h.0001c.119-.008.239-.011.359-.001"/><path d="m106.06 125.17c1.699.472 3.03 1.839 3.444 3.561h-3.444v-3.561m3.341 6.229c-.638 1.96-2.48 3.378-4.653 3.378s-4.02-1.418-4.653-3.378h9.306m-9.408-2.668c.413-1.707 1.72-3.064 3.398-3.548v3.548h-3.398"/></g><circle cy="119.79" cx="104.75" r="1.983"/><circle cy="119.79" cx="104.75" r="1.384" fill="#fff"/></g></g></g></svg>