<svg xmlns="http://www.w3.org/2000/svg" width="300" height="360" viewBox="0 0 84.666667 101.6" fill-rule="evenodd"><g transform="matrix(1.3647 0 0 1.36493-100.96-151.89)" fill-rule="nonzero"><path d="m73.98 111.28v37.444c-.0001 16.915 14.983 32.03 31.02 36.992 16.04-4.964 31.02-20.08 31.02-36.992v-37.444h-62.04"/><path d="m74.48 111.79v36.941h.0001-.0001v.167c.016 2.71.425 5.377 1.166 7.964.616 2.151 1.462 4.243 2.502 6.256 5.348 10.344 15.837 18.625 26.851 22.08 2.168-.68 4.317-1.548 6.412-2.583 2.14-1.057 4.225-2.291 6.217-3.678 10.195-7.097 17.86-18.17 17.887-30.14v-.063-36.941h-61.04" fill="#3c82c2"/><path d="m77.27 161.29l8.88-5.06c.667-.38 1.329-.753 2.04-.951.742-.207 1.513-.22 2.35.149.528.233 1.032.522 1.534.803l4.469 2.426-6.99 5.302.377.523 11.42-8.631c1.243-.935 2.719-2.036 4.356-1.941 1.744.101 3.299 1.311 4.689 2.285l3.887 2.721c-2.383 1.808-4.718 3.675-7.05 5.549l-.007.006-.0001.0001c-.888.714-1.778 1.428-2.669 2.138l.452.45c.874-.667 1.716-1.375 2.573-2.063l.004-.004.003-.002c3.281-2.632 6.634-5.323 10-7.725.681-.485 1.312-.901 1.919-1.217 1.844-.959 3.534-.864 5.268.28 1.516 1 2.926 2.155 4.464 3.124.964.608 1.953 1.182 2.97 1.698h.0001c.157.08.315.158.473.237-3.125 6.929-8.58 13.04-15.06 17.549-1.992 1.387-4.077 2.62-6.217 3.678-2.095 1.035-4.244 1.903-6.412 2.583-11.01-3.453-21.503-11.734-26.851-22.08-.311-.602-.605-1.212-.881-1.828"/><path d="m132.54 161.7c-1.156-.56-2.327-1.226-3.486-1.957-1.545-.974-2.953-2.127-4.471-3.128-1.173-.774-2.184-1.01-3.173-.865-1.146.168-2.284.846-3.615 1.795-3.364 2.398-6.715 5.088-9.995 7.72-.944.757-1.856 1.527-2.825 2.253l-.949-.944c3.215-2.557 6.385-5.171 9.659-7.653l-3.728-2.61c-.978-.66-1.781-1.173-2.481-1.523-1.245-.623-2.328-.75-3.608-.144-.662.313-1.407.804-2.309 1.482l-11.706 8.848-.787-1.094 6.83-5.18-3.992-2.167h-.002c-.593-.331-1.076-.599-1.505-.788-1.503-.662-2.777.047-4.074.785l-8.908 5.076c.233.507.478 1.01.735 1.506 5.348 10.344 15.837 18.625 26.851 22.08 2.168-.68 4.317-1.548 6.412-2.583 2.14-1.057 4.225-2.291 6.217-3.678 6.377-4.439 11.764-10.432 14.911-17.229" fill="#f8e73d"/><path d="m112.51 120.61l-3.79 3.65.92 5.18-4.64-2.48-4.64 2.48.92-5.18-3.79-3.65 5.21-.72 2.3-4.74 2.3 4.74z"/><path fill="#f8e73d" d="m101.66 124.13l-.83 4.65 4.17-2.22 4.17 2.22-.83-4.65 3.4-3.27-4.68-.65-2.06-4.25-2.06 4.25-4.68.65z"/><path d="m105 133.87c6.336 0 12.671-2.151 17.444-6.35 1.05-.924 1.978-1.94 2.866-3.02-.243 3.235-.981 6.314-2.474 9.207-3.456 6.696-10.148 11.236-17.837 11.236h-.008c-7.542-.004-14.344-4.508-17.814-11.208-1.502-2.9-2.244-5.96-2.486-9.202.776.875 1.527 1.753 2.387 2.552 4.811 4.473 11.38 6.781 17.922 6.781"/><path d="m105 134.22c-6.632 0-13.286-2.341-18.16-6.875-.603-.561-1.173-1.15-1.708-1.767.284 2.866 1.103 5.562 2.348 7.973 3.405 6.594 10.09 11.04 17.514 11.04h.008c7.552 0 14.13-4.463 17.524-11.04 1.279-2.479 2.071-5.196 2.346-7.971-.632.728-1.315 1.42-2.044 2.073-4.851 4.342-11.338 6.57-17.826 6.57" fill="#f8e73d"/></g></svg>