<svg xmlns="http://www.w3.org/2000/svg" width="300" height="360" viewBox="0 0 84.666667 101.6" fill-rule="evenodd"><path d="m62.58 48.55c.828 0 1.5.672 1.5 1.5v1.5c0 .828-.672 1.5-1.5 1.5h-1.5v-4.5h1.5m0 6c1.657 0 3-1.343 3-3v-1.5c0-1.657-1.343-3-3-3h-3v7.5h3m-6-7.5h1.5v7.5h-1.5v-7.5m-3 0h1.5v7.5h-1.5l-3-4.709v4.709h-1.5v-7.5h1.5l3 4.709v-4.709m-22.5 0h4.5v1.5h-3v1.5h3v1.5h-3v1.5h3v1.5h-4.5v-7.5m-6 0h1.5v6h3v1.5h-4.5v-7.5m15.75 6h1.5c1.242 0 2.25-1.01 2.25-2.25 0-1.242-1.026-2.246-2.25-2.25h-1.5v1.5h1.5c.414 0 .75.336.75.75 0 .414-.336.75-.75.75h-1.5v1.5m1.5-7.5c2.899 0 5.25 2.351 5.25 5.25 0 2.899-2.351 5.25-5.25 5.25-2.899 0-5.25-2.351-5.25-5.25 0-2.899 2.351-5.25 5.25-5.25m0 1.5c2.071 0 3.75 1.679 3.75 3.75 0 2.071-1.679 3.75-3.75 3.75-2.071 0-3.75-1.679-3.75-3.75 0-2.071 1.679-3.75 3.75-3.75" fill="#a90000"/><g transform="matrix(1.84058 0 0 1.84089-150.93-222.27)" fill-rule="nonzero"><path d="m82 120.74v27.763c-.0001 12.541 11.11 23.747 23 27.428 11.89-3.68 23-14.886 23-27.428v-27.763h-45.999"/><path d="m82.37 121.11v27.39h.0001-.0001v.124c.012 2.01.315 3.987.865 5.905.457 1.595 1.084 3.146 1.855 4.638 3.965 7.669 11.742 13.809 19.909 16.37 1.608-.504 3.201-1.148 4.755-1.915 1.587-.784 3.132-1.698 4.61-2.727 7.559-5.262 13.243-13.469 13.263-22.348v-.047-27.39h-45.26" fill="#3c82c2"/></g><g transform="matrix(2.15326 0 0 1.84089-184.37-222.54)" stroke="#000" stroke-width=".114"><path d="m92.76 149.63c.506.051.999.131 1.493-.062.232-.09.578.005.342.311-.172.223-.085.4.295.264.297-.106.571-.23.855-.327.642-.219.631.315.385.475-.468.305.092.428.346.293.196-.105.377-.206.575-.276.639-.228.873.238.591.472-.573.476-.192.685.124.606.243-.06.485-.082.731-.054.753.086.626.518.404.691-.246.193-.26.275-.093.404.293.228.317.402.155.606-.148.188-.302.361-.389.544-.206.436-1.216.154-1.365-.171-.25-.545-.458-.405-.594-.249-.4.459-.658.14-.746-.093-.089-.233-.182-.482-.218-.746-.086-.638-.407-.378-.423-.093-.026.453-.472.495-.634-.016-.076-.239-.166-.474-.233-.715-.077-.277-.17-.359-.311-.233-.271.243-.421-.029-.498-.28-.26-.848-.498-.964-.793-.995-.362-.039-.734.095-1.091.011-.053.149-.021.33.082.505.206.317.421.629.618.951.152.248.317.477.499.69.305.355.493.802.571 1.261.098.579.214.97.547 1.189.162.106.12.105.283.161.09.031.18.085.246.211.085.162.225.264.452.383.345.18.656.346 1.026.383.502.05.564.294.522.487-.075.337.057.446.47.365.35-.068.652-.094.957-.087.65.014.885.623.557.8-.39.211-.469.386.052.522.239.062.621.27.806.448.356.343.228.844-.11.856-.805.029-.724.434-.174.644.208.079.24.2.383.296.376.251.435.477.122.696-.157.11-.126.184-.052.331.121.24.095.531-.122.522-.208-.009-.274.072-.191.348.091.307-.112.677-.4.487-.209-.138-.246-.111-.278.104-.041.269-.279.198-.383-.087-.042-.115-.095-.228-.122-.348-.054-.241-.195-.328-.47-.313-.247.014-.488-.039-.515-.262-.041-.335.172-.37.306-.556.281-.389.045-.565-.539-.331-.49.197-.919.38-.591-.522.198-.545.065-.819-.383-.731-.552.109-.693-.161-.452-.904.09-.277.074-.561.122-.835.076-.436.005-.642-.243-.644-.41-.003-.393-.355-.435-.817-.033-.361-.155-.56-.267-.714-.092-.125-.273-.212-.403-.236.002.127-.065.231-.171.235-.344.013-.236.178 0 .416.415.419.124.636-.071.666-.295.046-.163.558.143.809.322.264.808 1.077.095 1.07-.523-.005-.547.269-.285.69.29.467.172.697-.166.737-.327.039-.372.286-.357.499.048.658-1.175.697-1.165-.381.006-.65-.076-.648-.452-.428-.421.246-.676-.102-.214-.833.322-.509.443-.962-.19-.642-.563.284-.68-.167-.143-.809.3-.358.504-.594 0-.714-.319-.076-.475-.262.119-.69.173-.125.344-.105.523-.095.506.029.5-.244.095-.381-.373-.126-.331-.446.143-.663.288-.131.681-.172.761-.717.129-.875-.189-1.5-.571-1.974-.475-.589-.924-1.163-1.308-1.784-.119-.198-.111-.396.024-.595.05-.132.094-.245.066-.383-.153-.742-.968-1.642-1.385-2.955-.237-.746-.367-1.888-.592-2.701-.08-.29-.177-.476-.276-.754-.078-.219-.08-.395-.192-.604-.373-.695-.802-1.314-1.317-1.819.045-.186.228-.224.56-.498.088.228.116.478.264.684.418.581.765 1.175 1.025 1.787.112.264.294.594.65.506.286-.07.571.023.774-.124.135-.098.222-.265.329-.377.176-.441.733-.638 1.089-.303.079.015.159.033.241.054.786.209 1.345.673 1.248 1.036-.097.363-.812.488-1.598.279-.081-.022-.16-.046-.236-.073-.312.075-.621-.098-.744-.394-.476.011-.337.317-.028.594.166.148.381.22.575.297.363-.21.845-.082.984.322.063.049.126.103.188.16.6.549.88 1.22.626 1.497-.254.277-.946.056-1.546-.493-.062-.057-.12-.115-.175-.174-.397-.1-.575-.536-.425-.911-.15-.254-.284-.294-.493-.427-.166-.106-.128-.32-.276-.421-.206-.14-.572-.169-.883-.18.089.308.147.571.189.889.112.85.247 1.625.482 2.332.173.52.459 1.01.678 1.508.399.915.992 1.501 1.99 1.601z" fill="#f8c300"/><path d="m103.86 170.56c.096-2.294.312-4.777.019-7.05-.164-1.272-.252-2.552-.413-3.824-.102-.806-.109-1.068-.033-1.404.051-.227.227-1.15.391-2.051.35-1.922.326-1.83.908-3.432.323-.888.543-1.647.434-2.59-.112-.976-1.071-1.727-1.901-2.13-.746-.362-1.657-.524-3.312-.624-.487-.029-1.021-.048-1.508.032-.313.051-.62.113-.926.196-.445.121-1.025.198-1.453.046-.349-.125-.416-.345-.837-.33l-8.24-.172c-.43-.009-.462-.287-.008-.295l8.237-.139c.409-.008.538-.304.884-.402.386-.109.926-.053 1.307.003.396.058.65.241 1.028.301.472.076 1.01.123 1.527.118.907-.001 2.347-.265 3.172-.686.499-.255 1.183-.992 1.48-1.596.321-.651.399-1.557.201-2.324-.245-.95-.411-1.913-.677-2.861-.942-3.354-1.117-4.199-.956-5.728.125-1.186.198-2.372.29-3.564.206-2.649.347-4.982-.126-7.544-.031-.165-.239-.79-.029-.79.186 0 1.255 1.505 1.379 1.706.358.581.355.663.377 1.342l-.236 3.698c-.021.326.295 1.1.377.571l.627-4.053c.332.335.76.868.657 1.493l-.483 2.933c-.058.352.191 1.102.287.734l.834-3.223c.35.453.721.997.475 1.774l-.55 1.736c-.178.561.046 1.099.15.852l1.027-2.45c.329.404.465 1.034.249 1.571l-.572 1.425c-.135.336-.06 1.087.084.804l1.044-2.042c.239.368.505 1.01.199 1.67l-.537 1.16c-.115.247-.185 1.22.066.784l.933-1.621c.261.546.475 1.212.116 1.953l-.434.895c-.109.226-.189 1.188-.003.88l.882-1.466c.224.63.5 1.802.12 2.497l-.44.806c-.118.216-.272 1.238-.065.929l.889-1.325c.181 1.174.394 2.361.863 3.403.405.9.938 1.208.127 2.056-.115.161-.824.99-.719 1.169.041.071.166.072.351-.05l.908-.816c.355.368.75.694.5 1.05l-.517.803c-.258.4-.0001.472.267.235l.87-.769c.244.464.469.94.588 1.403 2.086.172 4.289.279 6.362.297.084-.252.11-.392.476-.353.799.086 1.41.31 2.496.367.251.013.251.38 0 .393-1.085.057-1.697.281-2.495.367-.368.039-.42-.11-.476-.353-2.045.018-4.218.126-6.279.294-.047.617-.249 1.126-.541 1.66l-.893-.79c-.177-.156-.331.045-.223.212l.537.834c.282.378-.24.745-.444 1.02l-.943-.708c-.169-.112-.275-.105-.311-.036-.121.235.659.99.802 1.161.54.647.006 1.333-.213 2.01-.256.749-.617 1.943-.826 3.221l-.844-1.226c-.164-.239-.038.707.084.924l.472.842c.4.714.131 1.766-.114 2.442l-.932-1.509c-.114-.184-.106.623.007.851l.433.872c.405.815.337 1.295.024 2.161l-1.047-1.77c-.168-.284-.176.496-.068.724l.624 1.319c.347.732.204 1.234-.132 1.757l-1.18-2.252c-.115-.219-.261.357-.11.724l.671 1.629c.305.739.258 1.044-.18 1.684l-1.227-2.854c-.067-.156-.321.264-.19.668l.681 2.096c.311.959.116 1.395-.393 2.065l-.999-3.765c-.103-.388-.321.415-.265.751l.516 3.05c.155.918-.06 1.262-.595 1.846l-.752-4.734c-.044-.28-.366.249-.347.539l.249 3.805c.049.748-.054 1.559-.508 2.176-.521.707-.889 1.136-.958 1.073-.137 0-.142-.063-.097-1.15z" fill="#fff"/><g fill="#f8c300"><path d="m95.92 147.66c-.238-.124-.34-.281-.697-.269l-8.24-.172c-.43-.009-.462-.287-.008-.295l8.237-.139c.346-.006.491-.219.736-.343-.239.367-.218.909-.028 1.219z"/><path d="m103.86 170.56c.096-2.294.312-4.777.019-7.05l-.011-.085c5.333-3.977 6.42-8.791 6.05-14.851 1.282.017 1.971-.599 1.971-1.52 0-.921-.898-1.451-1.941-1.384-.166-6.398-1.685-11.976-6.501-15.185.011-.144.022-.287.033-.431.206-2.649.347-4.982-.126-7.544-.031-.165-.239-.79-.029-.79.186 0 1.255 1.505 1.379 1.706.358.581.355.663.377 1.342l-.236 3.698c-.021.326.295 1.1.377.571l.627-4.053c.332.335.76.868.657 1.493l-.483 2.933c-.058.352.191 1.102.287.734l.834-3.223c.35.453.721.997.475 1.774l-.55 1.736c-.178.561.046 1.099.15.852l1.027-2.45c.329.404.465 1.034.249 1.571l-.572 1.425c-.135.336-.06 1.087.084.804l1.044-2.042c.239.368.505 1.01.199 1.67l-.537 1.16c-.115.247-.185 1.22.066.784l.933-1.621c.261.546.475 1.212.116 1.953l-.434.895c-.109.226-.189 1.188-.003.88l.882-1.466c.224.63.5 1.802.12 2.497l-.44.806c-.118.216-.272 1.238-.065.929l.889-1.325c.181 1.174.394 2.361.863 3.403.405.9.938 1.208.127 2.056-.115.161-.824.99-.719 1.169.041.071.166.072.351-.05l.908-.816c.355.368.75.694.5 1.05l-.517.803c-.258.4-.0001.472.267.235l.87-.769c.244.464.469.94.588 1.403 2.086.172 4.289.279 6.362.297.084-.252.11-.392.476-.353.799.086 1.41.31 2.496.367.251.013.251.38 0 .393-1.085.057-1.697.281-2.495.367-.368.039-.42-.11-.476-.353-2.045.018-4.218.126-6.279.294-.047.617-.249 1.126-.541 1.66l-.893-.79c-.177-.156-.331.045-.223.212l.537.834c.282.378-.24.745-.444 1.02l-.943-.708c-.169-.112-.275-.105-.311-.036-.121.235.659.99.802 1.161.54.647.006 1.333-.213 2.01-.256.749-.617 1.943-.826 3.221l-.844-1.226c-.164-.239-.038.707.084.924l.472.842c.4.714.131 1.766-.114 2.442l-.932-1.509c-.114-.184-.106.623.007.851l.433.872c.405.815.337 1.295.024 2.161l-1.047-1.77c-.168-.284-.176.496-.068.724l.624 1.319c.347.732.204 1.234-.132 1.757l-1.18-2.252c-.115-.219-.261.357-.11.724l.671 1.629c.305.739.258 1.044-.18 1.684l-1.227-2.854c-.067-.156-.321.264-.19.668l.681 2.096c.311.959.116 1.395-.393 2.065l-.999-3.765c-.103-.388-.321.415-.265.751l.516 3.05c.155.918-.06 1.262-.595 1.846l-.752-4.734c-.044-.28-.366.249-.347.539l.249 3.805c.049.748-.054 1.559-.508 2.176-.521.707-.889 1.136-.958 1.073-.137 0-.142-.063-.097-1.15z"/></g></g></svg>