<svg xmlns="http://www.w3.org/2000/svg" viewBox="0 0 300 360"><g transform="translate(-289.48-265.25)"><path d="m511.23 437.28c2.935 0 5.315 2.38 5.315 5.315v5.314c0 2.935-2.38 5.315-5.315 5.315h-5.315v-15.944zm0 21.259c5.87 0 10.63-4.76 10.63-10.63v-5.314c0-5.87-4.76-10.63-10.63-10.63h-10.63v26.574zm-21.26-26.574h5.315v26.574h-5.315zm-10.63 0h5.315v26.574h-5.315l-10.63-16.684v16.684h-5.315v-26.574h5.315l10.63 16.684zm-79.72 0h15.945v5.315h-10.63v5.315h10.63v5.315h-10.63v5.315h10.63v5.315h-15.945zm-21.26-.0001h5.315v21.26h10.63v5.315h-15.945zm55.808 21.26h5.313c4.402 0 7.972-3.57 7.972-7.972s-3.637-7.957-7.972-7.972h-5.313v5.315h5.313c1.467 0 2.658 1.19 2.658 2.658s-1.19 2.658-2.658 2.658h-5.313zm5.313-26.575c10.272 0 18.602 8.33 18.602 18.602s-8.33 18.602-18.602 18.602-18.602-8.33-18.602-18.602 8.33-18.602 18.602-18.602m-13.287 18.602c0 7.337 5.95 13.287 13.287 13.287 7.337 0 13.287-5.95 13.287-13.287 0-7.337-5.95-13.287-13.287-13.287-7.337 0-13.287 5.95-13.287 13.287" fill="#a90000"/><path d="m289.48 265.25v181.1h-.002c0 81.8 72.45 154.9 150 178.9 77.54-24.01 150-97.1 150-178.9h-.002v-181.1h-300z"/><path fill="#3a82c2" d="m291.9 267.69v178.66h.007v.005h-.007v.806c.079 13.11 2.055 26 5.638 38.516 2.981 10.402 7.07 20.52 12.1 30.25 25.857 50.03 76.58 90.08 129.84 106.78 10.484-3.289 20.877-7.486 31.01-12.491 10.348-5.115 20.43-11.08 30.06-17.788 49.3-34.32 86.37-87.85 86.5-145.77v-.307-178.66h-295.14z"/><path fill="#eee942" d="m301.93 498.77c2.239 5.835 4.821 11.562 7.716 17.16 25.857 50.03 76.58 90.08 129.84 106.78 10.484-3.289 20.877-7.486 31.01-12.494 10.348-5.112 20.43-11.08 30.06-17.785 34.03-23.692 62.23-56.54 76.47-93.66h-275.1z"/><path fill="#df1f2c" d="m327.92 544.58c27.93 36.429 68.936 64.761 111.57 78.13 10.484-3.289 20.877-7.486 31.01-12.494 10.348-5.112 20.43-11.08 30.06-17.785 19.16-13.338 36.466-29.579 50.48-47.851h-223.11z"/><path fill="#eee942" d="m337.1 366.96c-13.572 8.119-27.09 16.225-39.566 26.684 1.719 1.067 4.276 1.858 6.617 1.349-1.217 1.07-2.387 2.303-3.581 3.918-2.173 2.932-3.252 5.889-2.897 9.652 3.206-2.067 7.11-4.113 10.514-5.03-2.882 4.354-3.679 9.04-1.869 14.231 9.319-13.665 19.822-25.612 31.371-33.33-3.206 6.555-7.389 11.715-10.736 18.966 2.65-.048 5.577-1.349 8.288-3.634-.064 1.644.416 3.121 1.583 4.433-.002 4.17-1.124 7.888-2.888 10.915-1.363 2.335-1.78 4.467-.743 6.35l10.307-5.607c-1.714-4.122-1.962-9.346-1.372-14.742.248-.177.497-.318.749-.416 1.996 3.075 5.218 3.216 8.336 2.56-6.515-4.844-4.469-13.05-.279-16.734.345-.154.686-.311 1.026-.468 1.485 5.242 1.589 10.568-1.306 15.807 1.823-.043 3.647-.302 5.468-1.015.002 4.842-.906 9.221-2.725 12.203l12.698-.824c-2.518-1.549-4.214-5.812-5.668-10.565.043-1.095.218-2.189.822-3.284 1.905-.139 3.813-.836 5.718-2.092-6.388-3.561-8.095-8.551-7.55-14.299 2.318-1.578 4.383-3.425 6.156-5.78.511 2.905 1.764 5.09 3.765 6.134.806-4.926 3.365-6.275 4.88-10.179 1.394 1.86 2.788 2.743 5.02 3.068.077-9.491 6.067-12.06 12.01-14.222 6.331-2.305 14.349-1.944 22.424.277-1.244-5.403-7.496-11.283-13.663-13.945-1.074-8.503-11.842-10.404-22.449-8.926-3.511.491-6.971.42-10.457-.418-.023 2.628 1.185 4.997 3.486 7.252-3.486 1.07-6.553 1.535-10.178 1.533 1.045 1.999 2.114 3.627 3.903 4.881-1.142.291-2.287.334-3.44.37-2.064-1.858-2.913-4.583-3.177-6.868-.747-6.48 3.274-12.141 3.379-18.721.064-3.895-.659-7.324-1.96-10.411-2.943-6.97-10.318-9.814-16.74-17.781-1.767-2.189-3.259-4.56-5.073-6.723-2.702-3.214-6.585-5.882-9.637-12.737-3.054 3.598-2.132 9.643.238 12.589-1.701 3.327-1.544 6.813.238 9.237-3.349-3.02-6.583-6.084-9.846-9.09-4.498-4.147-7.541-4.726-14.1-11.753-1.421 4.074-.504 8.678 3.511 11.821-1.24 4.492 1.635 10.01 5.906 12.777-3.545-1.726-7.811-3.693-13.11-7.295-1.135 4.501.502 8.496 4.267 11.349.997 5.36 6.517 9.325 12.12 11.483-6.422.334-10.968-1.029-16.62-2.703.395 5.728 3.903 9.366 8.89 10.27 2.852 4.813 7.796 8.326 12.614 8.333-5.323 2.437-12.739 2.382-19.05 2.9 2.4 4.522 5.979 7.872 10.514 7.785 3.522 4.742 8.443 6.082 14.821 3.993-5.525 4.361-11.953 6.445-17.837 8.81 3.175 4.165 7.689 4.579 12.462 3.548 4.346 3.915 9.819 2.907 15.02-.709.318.452.722.765 1.194 1.074-.47 1.367-1.101 2.623-1.803 3.745z"/><path d="m326.11 317.98c-5.02-3.139-7.221-9.169-3.956-15.448-2.259-1.381-4.521-3.266-6.781-5.653m9.982 32.22c-4.464-3.325-8.3-7.088-7.723-13.942-2.512-1.49-4.962-2.714-6.969-4.71m19.59 33.16c-5.777-3.359-9.356-7.504-8.1-13.375-2.7-.754-4.962-1.946-7.158-3.205m21.286 28.26c-5.486-.745-8.815-3.368-9.419-8.592-2.512.436-5.02.123-7.534-.64m26.561 17.897c-4.321.452-8.288.25-9.796-4.52-2.198 1.104-4.846 1.806-7.04 2.11m34.734-.981c-9.955-4.744-11.52-14.842-10.418-24.544 1.533-13.491-3.492-21.544-12.691-26.595-8.57-4.708-15.403-11.381-22.381-17.887-4.476-4.172-7.541-4.726-14.1-11.753-1.421 4.074-.504 8.678 3.511 11.821-1.24 4.492 1.635 10.197 5.813 12.732m7.244 5.462c-4.48-5.467-10.843-6.309-20.258-12.712-1.135 4.501.502 8.496 4.267 11.349.997 5.36 6.517 9.325 11.915 11.485m36.553 41.962c-4.214 1.894-6.22.257-7.911-1.885m-.377-7.159c-3.767 1.067-6.279-.125-7.534-3.579m2.448-5.464c-3.767-.752-6.279-3.266-7.534-7.536m4.71-3.579c-3.422-1.506-5.747-3.643-5.652-7.159m5.464-1.697c-4.144-1.694-5.777-5.401-4.898-11.12m-10.1 22.97c-4.896.132-9.839-3.382-12.691-8.194-4.987-.904-8.495-4.542-8.89-10.27 5.884 1.742 10.566 3.146 17.648 2.653m10.08 30.66c-6.322 2.058-11.243.718-14.765-4.02-4.535.086-8.113-3.264-10.514-7.785 6.735-.552 14.721-.454 19.996-3.252m15.03 26.611c-5.245 3.684-10.718 4.692-15.06.777-4.773 1.031-9.287.618-12.462-3.548 5.884-2.364 12.312-4.449 17.896-8.841m19.871 23.336c-2.237.627-4.428.977-6.292-.622-3.942 3.37-7.375 3.186-10.58 1.385 3.279-3.464 6.195-7.088 7.814-11.29m14.864 12.466c-2.3 2.01-4.784 2.416-7.466.763 1.015-1.628 2.055-3.243 2.695-5.058m11.833-19.396c-2.053-1.865-2.902-4.59-3.165-6.875-.747-6.48 3.274-12.141 3.379-18.721.064-3.895-.659-7.324-1.96-10.411-2.943-6.97-10.318-9.814-16.74-17.781-1.767-2.189-3.259-4.56-5.073-6.723-2.702-3.214-6.585-5.882-9.637-12.737-3.054 3.598-2.132 9.643.238 12.589-1.701 3.327-1.544 6.813.195 9.362m-24.02 94.29c-2.275.463-4.832-.327-6.551-1.394 12.48-10.459 25.993-18.564 39.595-26.774m-29 36.674c-3.347.906-7.251 2.952-10.457 5.02-.354-3.763.724-6.72 2.897-9.652 2.389-3.227 4.784-4.797 7.952-7.197l13.829-10.481m12.828 18.546c-2.65 2.278-5.577 3.579-8.227 3.627 3.347-7.252 7.53-12.412 10.736-18.966-11.213 8.05-21.19 20.522-31.371 33.33-2.01-5.755-.808-10.89 2.959-15.648 1.526-1.926 2.82-3.091 4.205-4.306l14.447-12.677m27.606-32.21c2.927-1.394 5.856-.511 8.783-1.256-1.789-1.254-2.859-2.882-3.903-4.881 3.624.002 6.692-.463 10.178-1.533-2.3-2.255-3.508-4.624-3.486-7.252 3.486.838 6.946.908 10.457.418 10.607-1.478 21.375.422 22.449 8.926 6.167 2.662 12.419 8.542 13.663 13.945-8.07-2.221-16.09-2.582-22.424-.277-5.947 2.167-11.937 4.731-12.01 14.222-2.23-.325-3.624-1.208-5.02-3.068-1.515 3.904-4.074 5.253-4.88 10.179-2-1.045-3.254-3.23-3.765-6.134-3.713 4.931-8.688 7.627-14.64 10.318-4.19 3.684-6.236 11.889.279 16.734-3.118.656-6.34.516-8.336-2.56-1.674.647-3.195 3.214-4.333 4.983-4.108-2.796-4.04-6.514-1.415-11.208m14.78-8.505c1.533 5.299 1.674 10.597-1.256 15.896 1.905-.045 3.81-.325 5.716-1.115 1.349.697 2.695 1.349 4.044 1.674-.002-1.349.091-2.696.836-4.045 1.905-.139 3.813-.836 5.718-2.092-6.463-3.602-8.134-8.669-7.53-14.501m38.621-22.312l-4.462-5.439 6.415-6.832m13.245 13.804c-5.393-3.761-12.875-6.087-18.822-5.857m7.557-4.64l-2.693-.967m-13.152-5.128c-2.046 0-3.835.92-4.819 2.296.897 1.608 2.839 2.723 5.091 2.723 2.044 0 3.835-.922 4.819-2.296-.899-1.61-2.841-2.723-5.091-2.723zm4.941 2.51c-.511-1.953-2.975-4.324-4.88-4.742m-44.03 58.829c-.656 5.555-.443 10.608 1.319 14.846l-10.307 5.607c-1.038-1.883-.62-4.02.743-6.35 1.808-3.102 2.941-6.841 2.886-11.135m23.502-2.392c1.478 4.887 3.195 9.06 5.772 10.64l-12.698.824c1.896-3.107 2.802-7.204 2.72-12.289" stroke="#000" stroke-width="1.2" fill="none"/><path fill="#eee942" d="m538.48 366.96c13.572 8.119 27.09 16.225 39.566 26.684-1.719 1.067-4.276 1.858-6.617 1.349 1.215 1.07 2.387 2.303 3.581 3.918 2.173 2.932 3.252 5.889 2.898 9.652-3.206-2.067-7.112-4.113-10.514-5.03 2.882 4.354 3.676 9.04 1.869 14.231-9.319-13.665-19.822-25.612-31.371-33.33 3.206 6.555 7.389 11.715 10.736 18.966-2.65-.048-5.577-1.349-8.288-3.634.064 1.644-.416 3.121-1.583 4.433.002 4.17 1.124 7.888 2.888 10.915 1.36 2.335 1.78 4.467.743 6.35l-10.309-5.607c1.717-4.122 1.964-9.346 1.371-14.742-.245-.177-.495-.318-.749-.416-1.994 3.075-5.218 3.216-8.334 2.56 6.515-4.844 4.467-13.05.279-16.734-.345-.154-.688-.311-1.026-.468-1.485 5.242-1.592 10.568 1.306 15.807-1.823-.043-3.647-.302-5.47-1.015-.002 4.842.908 9.221 2.727 12.203l-12.7-.824c2.518-1.549 4.217-5.812 5.67-10.565-.043-1.095-.218-2.189-.824-3.284-1.905-.139-3.81-.836-5.716-2.092 6.385-3.561 8.095-8.551 7.548-14.299-2.318-1.578-4.38-3.425-6.154-5.78-.511 2.905-1.764 5.09-3.765 6.134-.806-4.926-3.365-6.275-4.88-10.179-1.394 1.86-2.788 2.743-5.02 3.068-.077-9.491-6.067-12.06-12.01-14.222-6.331-2.305-14.351-1.944-22.424.277 1.244-5.403 7.493-11.283 13.663-13.945 1.072-8.503 11.842-10.404 22.449-8.926 3.511.491 6.971.42 10.457-.418.023 2.628-1.185 4.997-3.486 7.252 3.486 1.07 6.551 1.535 10.178 1.533-1.047 1.999-2.114 3.627-3.903 4.881 1.142.291 2.287.334 3.44.37 2.064-1.858 2.911-4.583 3.177-6.868.747-6.48-3.274-12.141-3.381-18.721-.061-3.895.659-7.324 1.962-10.411 2.941-6.97 10.318-9.814 16.74-17.781 1.764-2.189 3.259-4.56 5.073-6.723 2.7-3.214 6.585-5.882 9.635-12.737 3.056 3.598 2.135 9.643-.236 12.589 1.701 3.327 1.542 6.813-.238 9.237 3.349-3.02 6.583-6.084 9.846-9.09 4.498-4.147 7.541-4.726 14.1-11.753 1.422 4.074.504 8.678-3.511 11.821 1.24 4.492-1.637 10.01-5.906 12.777 3.545-1.726 7.811-3.693 13.11-7.295 1.133 4.501-.502 8.496-4.267 11.349-.997 5.36-6.519 9.325-12.13 11.483 6.424.334 10.97-1.029 16.622-2.703-.395 5.728-3.906 9.366-8.89 10.27-2.852 4.813-7.795 8.326-12.616 8.333 5.325 2.437 12.741 2.382 19.05 2.9-2.398 4.522-5.977 7.872-10.511 7.785-3.522 4.742-8.443 6.082-14.824 3.993 5.527 4.361 11.953 6.445 17.837 8.81-3.172 4.165-7.689 4.579-12.46 3.548-4.346 3.915-9.819 2.907-15.02-.709-.318.452-.722.765-1.197 1.074.47 1.367 1.104 2.623 1.805 3.745z"/><g stroke="#000" stroke-width="1.2"><path d="m560.2 296.88c-2.259 2.387-4.521 4.272-6.78 5.653 3.265 6.28 1.067 12.31-3.956 15.448m15.446-7.536c-2.01 1.996-4.457 3.221-6.969 4.71.577 6.854-3.259 10.618-7.725 13.942m10.362-2.074c-2.198 1.258-4.457 2.451-7.157 3.205 1.256 5.871-2.323 10.02-8.1 13.375m10.925 2.451c-2.511.763-5.02 1.077-7.534.64-.604 5.224-3.935 7.847-9.419 8.592m7.232 6.255c-2.198-.304-4.846-1.01-7.04-2.11-1.508 4.769-5.477 4.971-9.796 4.52m32.374-59.62c4.176-2.535 7.05-8.24 5.813-12.732 4.01-3.143 4.932-7.747 3.511-11.821-6.56 7.03-9.628 7.581-14.1 11.753-6.978 6.507-13.811 13.179-22.383 17.887-9.197 5.05-14.222 13.1-12.689 26.595 1.101 9.702-.463 19.8-10.418 24.544m47.1-40.642c5.395-2.16 10.918-6.125 11.915-11.485 3.765-2.853 5.4-6.848 4.267-11.349-9.415 6.402-15.78 7.245-20.258 12.712m-24.565 50.2c-1.692 2.142-3.697 3.779-7.911 1.885m15.823-12.623c-1.256 3.454-3.767 4.647-7.534 3.579m12.621-16.579c-1.256 4.27-3.767 6.784-7.534 7.536m8.477-18.274c.095 3.516-2.23 5.653-5.652 7.159m5.087-19.97c.879 5.714-.754 9.421-4.898 11.12m18.925-3.956c7.085.493 11.767-.911 17.651-2.653-.395 5.728-3.906 9.366-8.89 10.27-2.852 4.813-7.795 8.326-12.691 8.194m-.867-.213c5.273 2.798 13.261 2.7 19.994 3.252-2.398 4.522-5.977 7.872-10.511 7.785-3.522 4.742-8.443 6.082-14.765 4.02m-.116-.064c5.584 4.392 12.01 6.477 17.894 8.841-3.172 4.165-7.689 4.579-12.46 3.548-4.346 3.915-9.819 2.907-15.06-.777m-1.183 1.197c1.617 4.202 4.535 7.826 7.811 11.29-3.202 1.801-6.635 1.985-10.577-1.385-1.867 1.599-4.056 1.249-6.292.622m-1.035-2.355c.64 1.815 1.68 3.429 2.695 5.058-2.684 1.653-5.166 1.242-7.466-.763m25.701-74.986c1.737-2.548 1.896-6.03.195-9.362 2.371-2.946 3.293-8.991.236-12.589-3.05 6.854-6.935 9.523-9.635 12.737-1.814 2.162-3.306 4.533-5.073 6.723-6.422 7.967-13.797 10.811-16.74 17.781-1.303 3.087-2.023 6.516-1.962 10.411.107 6.579 4.128 12.241 3.381 18.721-.266 2.285-1.113 5.01-3.165 6.875m23.736 14.824c13.602 8.21 27.12 16.316 39.595 26.774-1.719 1.067-4.276 1.858-6.553 1.394m-18.264-13.806l13.829 10.481c3.168 2.401 5.563 3.97 7.952 7.197 2.173 2.932 3.252 5.889 2.898 9.652-3.206-2.067-7.112-4.113-10.457-5.02m-19.799-18.408l14.447 12.677c1.385 1.215 2.677 2.38 4.203 4.306 3.769 4.758 4.966 9.893 2.961 15.648-10.175-12.807-20.16-25.27-31.371-33.33 3.206 6.555 7.389 11.715 10.736 18.966-2.65-.048-5.577-1.349-8.227-3.627m-1.951-5.299c2.625 4.694 2.693 8.412-1.415 11.208-1.138-1.769-2.661-4.336-4.335-4.983-1.994 3.075-5.218 3.216-8.334 2.56 6.515-4.844 4.469-13.05.279-16.734-5.952-2.691-10.927-5.387-14.64-10.318-.511 2.905-1.764 5.09-3.765 6.134-.806-4.926-3.365-6.275-4.88-10.179-1.394 1.86-2.788 2.743-5.02 3.068-.077-9.491-6.067-12.06-12.01-14.222-6.331-2.305-14.351-1.944-22.424.277 1.244-5.403 7.493-11.283 13.663-13.945 1.072-8.503 11.842-10.404 22.449-8.926 3.511.491 6.971.42 10.457-.418.023 2.628-1.185 4.997-3.486 7.252 3.486 1.07 6.553 1.535 10.178 1.533-1.047 1.999-2.114 3.627-3.903 4.881 2.927.745 5.856-.139 8.783 1.256m-3.903 28.866c.604 5.832-1.069 10.899-7.53 14.501 1.905 1.256 3.81 1.953 5.716 2.092.747 1.349.838 2.696.838 4.045 1.347-.325 2.695-.977 4.04-1.674 1.907.79 3.813 1.07 5.718 1.115-2.929-5.299-2.788-10.597-1.256-15.896m-48.1-38.766l6.415 6.832-4.462 5.439m3.624-4.324c-5.947-.229-13.429 2.096-18.822 5.857m13.958-11.465l-2.693.967m10.754-3.373c.983 1.374 2.773 2.296 4.819 2.296 2.25 0 4.192-1.115 5.091-2.723-.983-1.376-2.775-2.296-4.819-2.296-2.25 0-4.192 1.113-5.091 2.723zm5.03-4.956c-1.905.418-4.369 2.789-4.88 4.742m54.27 57.06c-.054 4.295 1.079 8.03 2.886 11.135 1.36 2.335 1.78 4.467.743 6.35l-10.309-5.607c1.764-4.238 1.978-9.291 1.319-14.846m-13.936-.248c-.082 5.085.824 9.182 2.72 12.289l-12.7-.824c2.58-1.585 4.296-5.753 5.775-10.64" fill="none"/><path d="m420.91 316.54c0-31 33.769-31 33.769 0v28.65c0 13.824-6.097 21.851-13.11 23.988v26.4c3.851-5.944 7.371-10.486 10.773-13.62 9.144-8.421 22.08-5.919 27.801 5.526 3.549 7.097 2.961 16.232-5.175 22.614-.629-10.411-6.308-15.814-15.609-15.696-6.969.086-11.676 4.604-13.89 10.08l-3.899 9.652v55.25c20.22-35.27 49.42-69.46 89.44-55.47 28.53 9.97 29.554 40.4 1.079 52.41-5.08 2.144-5.993 5.694-3.052 9.334 3.501 4.333 7.448 4.608 11.665 3.95-8.609 12.216-33.848 5.987-33.13-7.954.481-9.414 8.179-10.193 9.192-20.742 1.496-15.612-17.605-20.347-37.797-3.793-15.859 13.322-29.2 29.507-33.56 51.52h-15.237c-4.358-22.01-17.701-38.19-33.557-51.52-20.19-16.554-39.29-11.819-37.797 3.793 1.013 10.549 8.711 11.328 9.192 20.742.715 13.94-24.524 20.17-33.13 7.954 4.219.659 8.166.384 11.667-3.95 2.941-3.641 2.026-7.19-3.052-9.334-28.475-12.01-27.451-42.44 1.076-52.41 40.03-13.99 69.23 20.2 89.45 55.47v-55.25l-3.901-9.652c-2.212-5.478-6.919-9.995-13.888-10.08-9.301-.118-14.98 5.285-15.609 15.696-8.136-6.382-8.727-15.516-5.175-22.614 5.722-11.444 18.657-13.947 27.799-5.526 3.404 3.134 6.924 7.676 10.775 13.622v-26.354c-7.01-2.046-13.11-10.02-13.11-24.04v-28.65z" fill="#eee942"/><path d="m540.3 479.98c-9.628 6.675-20.06 2.68-22.64-1.985-2.01-3.629-1.721-8.442.629-12.984 2.616-5.058 6.98-7.42 10.763-11.263 16.499-16.761-2.325-40.12-31.595-27.26-26.661 11.71-46.4 34.383-59.664 67.13-13.264-32.752-33-55.43-59.662-67.13-29.27-12.855-48.1 10.504-31.598 27.26 3.785 3.843 8.15 6.205 10.766 11.263 2.35 4.542 2.639 9.355.629 12.984-2.584 4.665-13.01 8.66-22.64 1.985m65.39-70.2c-8.901-22.346 18.289-32.24 28.555-7.29m45.67 7.29c8.901-22.346-18.289-32.24-28.555-7.29m-3.081-103.05c4.185 1.781 7.162 9.525 7.162 18.11v26.727c0 9.248-2.945 16.854-7.496 19.371" fill="none"/><path d="m437.79 283.71c3.247 0 5.881 2.635 5.881 5.882 0 3.245-2.634 5.882-5.881 5.882-3.245 0-5.879-2.637-5.879-5.882 0-3.248 2.634-5.882 5.879-5.882z" fill="#eee942"/></g><path d="m386.28 344.7c1.228 0 2.225.997 2.225 2.226s-.997 2.226-2.225 2.226-2.225-.997-2.225-2.226.997-2.226 2.225-2.226"/><path d="m489.3 344.7c1.228 0 2.225.997 2.225 2.226s-.997 2.226-2.225 2.226-2.225-.997-2.225-2.226.997-2.226 2.225-2.226"/></g></svg>