<svg xmlns="http://www.w3.org/2000/svg" viewBox="0 0 300 360"><g transform="translate(-225-352.36)"><g fill-rule="evenodd"><path fill="#a90000" d="m446.75 524.39c2.935 0 5.315 2.38 5.315 5.315v5.314c0 2.935-2.38 5.315-5.315 5.315h-5.315v-15.944h5.315m0 21.259c5.87 0 10.63-4.76 10.63-10.63v-5.314c0-5.87-4.76-10.63-10.63-10.63h-10.63v26.574h10.63m-21.26-26.574h5.315v26.574h-5.315v-26.574m-10.63 0h5.315v26.574h-5.315l-10.63-16.684v16.684h-5.315v-26.574h5.315l10.63 16.684v-16.684m-79.72 0h15.945v5.315h-10.63v5.315h10.63v5.315h-10.63v5.315h10.63v5.315h-15.945v-26.574m-21.26-.0001h5.315v21.26h10.63v5.315h-15.945v-26.575m55.808 21.26h5.314c4.402 0 7.972-3.57 7.972-7.972s-3.637-7.957-7.972-7.972h-5.314v5.315h5.314c1.467 0 2.658 1.19 2.658 2.658s-1.19 2.658-2.658 2.658h-5.314v5.315m5.31-26.58c10.272 0 18.602 8.33 18.602 18.602s-8.33 18.602-18.602 18.602-18.602-8.33-18.602-18.602 8.33-18.602 18.602-18.602m0 5.315c7.337 0 13.287 5.95 13.287 13.287 0 7.337-5.95 13.287-13.287 13.287-7.337 0-13.287-5.95-13.287-13.287 0-7.337 5.95-13.287 13.287-13.287"/><path d="m225 588.9c.352 3.01.802 5.995 1.362 8.945 12.337 65.05 74.2 114.52 148.64 114.52 74.44 0 136.3-49.47 148.64-114.52.56-2.951 1.01-5.937 1.363-8.949v-236.53h-300v236.53z"/><path fill="#3c82c2" d="m518.37 611.91c2.349-7.469 4.02-15.2 4.956-23.13v-234.76h-296.66v234.76c.916 7.789 2.547 15.384 4.828 22.726l.127.408h286.74z"/><path fill="#41a147" d="m514.17 623.34c1.578-3.733 2.981-7.544 4.202-11.427h-286.74c1.222 3.885 2.625 7.697 4.204 11.431 21.61 51.11 75.78 87.35 139.17 87.35s117.56-36.25 139.17-87.36z"/><g stroke="#000"><g stroke-width="1.5"><path fill="#fff" d="m403.75 520.41h50.03v37h-50.03z"/><path d="m403.75 511.57h50.03v11.46h-50.03z"/></g><g stroke-width=".367" transform="matrix(4.08744 0 0 4.09299-54.865-76.27)"><g fill="#fff"><path d="m88.16 153.46v-1.81h1.84v1.81h1.95v-1.81h1.84v1.81h1.94v-1.81h1.85v1.81h1.9v14.68h-13.22v-14.68z"/><path d="m123.1 153.46v-1.81h-1.84v1.81h-1.94v-1.81h-1.84v1.81h-1.95v-1.81h-1.84v1.81h-1.9v14.68h13.22v-14.68z"/><path d="m75.33 168.14h14.83l-2.39-25.6h-10.05z"/><path d="m116.1 168.14l-3.44-29.71h-13.63l-3.44 29.71z"/></g><path d="m114.09 132.49l-8.25-8.2-8.24 8.2v2.31h16.49z"/><g fill="#fff"><path d="m113.27 133.72v-2.42h1.66v4.59l-2.27 2.54h-13.63l-2.27-2.54v-4.59h1.66v2.42h2.46v-2.42h1.67v2.42h2.46v-2.42h1.67v2.42h2.46v-2.42h1.66v2.42z"/><path d="m136.03 168.14h-14.83l2.39-25.6h10.05z"/></g><path d="m121.47 142.54l5.72-6.57h2.85l5.72 6.57z"/><path d="m75.6 142.54l5.72-6.57h2.85l5.72 6.57z"/><g fill="#fff"><path d="m127.22 135.97l1.4-9.63 1.4 9.63z"/><path d="m84.14 135.97l-1.39-9.63-1.41 9.63z"/><circle r=".802" cy="126.23" cx="82.75"/><circle r=".802" cy="124.18" cx="105.84"/><circle r=".802" cy="126.23" cx="128.62"/></g></g></g></g><g stroke="#000"><g stroke-width="1.5"><g fill="none"><path d="m230.73 611.91h288.54"/><path d="m283.35 406.77v30.35"/><path d="m377.77 389.11v39.6"/><path d="m470.84 406.77v30.35"/><path d="m441.4 602.44h58.879m-57.996-9.463h57.11m-56.23-9.463h55.35m-54.46-9.463h53.58m-52.699-9.463h51.817m-50.934-9.463h50.05m-49.17-9.463h48.29m-53.918 60.38v5.858m12.455-9.465v9.465m12.454-9.465v9.465m12.455-9.465v9.465m12.455-9.465v9.465m-43.592-18.928v9.467m12.455-9.467v9.467m12.454-9.467v9.467m12.455-9.467v9.467m12.455-9.467v9.467m-43.591-18.93v9.467m12.454-9.467v9.467m12.455-9.467v9.467m12.455-9.467v9.467m-43.592-18.93v9.467m12.455-9.467v9.467m12.454-9.467v9.467m12.455-9.467v9.467m12.455-9.467v9.467m-43.591-18.93v9.467m12.454-9.467v9.467m12.455-9.467v9.467m12.455-9.467v9.467m-43.592-18.93v9.467m12.455-9.467v9.467m12.454-9.467v9.467m12.455-9.467v9.467m-31.14-18.93v9.467m12.454-9.467v9.467m12.455-9.467v9.467m12.455-9.467v9.467"/><path d="m253.91 602.44h58.879m-57.996-9.463h57.11m-56.23-9.463h55.35m-54.46-9.463h53.58m-52.699-9.463h51.817m-50.934-9.463h50.05m-49.17-9.463h48.29m-42.35 56.775v9.465m12.455-9.465v9.465m12.454-9.465v9.465m12.455-9.465v9.465m-43.593-18.927v9.467m12.455-9.467v9.467m12.455-9.467v9.467m12.454-9.467v9.467m12.455-9.467v9.467m-43.591-18.93v9.467m12.455-9.467v9.467m12.454-9.467v9.467m12.455-9.467v9.467m-43.593-18.929v9.467m12.455-9.467v9.467m12.455-9.467v9.467m12.454-9.467v9.467m12.455-9.467v9.467m-43.591-18.93v9.467m12.455-9.467v9.467m12.454-9.467v9.467m12.455-9.467v9.467m-43.593-18.929v9.467m12.455-9.467v9.467m12.455-9.467v9.467m12.454-9.467v9.467m12.455-5.632v5.632m-43.591-18.93v9.467m12.455-9.467v9.467m12.454-9.467v9.467m12.455-9.467v9.467"/><path d="m336.95 602.44h81.64m-80.55-9.463h79.45m-78.36-9.463h77.26m-76.17-9.463h75.07m-73.98-9.463h72.885m-71.791-9.463h70.7m-69.6-9.463h68.51m-75.66 61.807v4.434m12.454-9.465v9.465m12.455-9.465v9.465m12.455-9.465v9.465m12.454-9.465v9.465m12.455-9.465v9.465m12.455-9.465v9.465m-68.5-18.927v9.467m12.454-9.467v9.467m12.455-9.467v9.467m12.455-9.467v9.467m12.454-9.467v9.467m12.455-9.467v9.467m12.455-9.467v9.467m-68.5-18.93v9.467m12.455-9.467v9.467m12.455-9.467v9.467m12.454-9.467v9.467m12.455-9.467v9.467m12.455-9.467v9.467m-68.5-18.93v9.467m12.454-9.467v9.467m12.455-9.467v9.467m12.455-9.467v9.467m12.454-9.467v9.467m12.455-9.467v9.467m-56.05-18.93v9.467m12.455-9.467v9.467m12.455-9.467v9.467m12.454-9.467v9.467m12.455-9.467v9.467m12.455-9.467v9.467m-68.5-18.93v9.467m12.454-9.467v9.467m12.455-9.467v9.467m12.455-9.467v9.467m12.454-9.467v9.467m12.455-9.467v9.467m-56.05-18.929v9.467m12.455-9.467v9.467m12.455-9.467v9.467m12.454-9.467v9.467m12.455-9.467v9.467m12.455-9.467v9.467"/></g><g fill-rule="evenodd"><path d="m357.18 499.58c2.02 0 3.661 1.679 3.661 3.75l.671 15.527h-8.665l.671-15.527c0-2.071 1.639-3.75 3.661-3.75z"/><path d="m293.06 521.39c2.02 0 3.661 1.679 3.661 3.75l.671 15.527h-8.665l.671-15.527c0-2.071 1.639-3.75 3.661-3.75z"/><path d="m431.19 526.52c-.682 0-1.235.567-1.235 1.266l-.226 5.24h2.924l-.226-5.24c0-.699-.553-1.266-1.236-1.266z"/><path d="m426.53 526.52c-.682 0-1.232.566-1.232 1.265l-.229 5.242h2.924l-.229-5.242c0-.699-.551-1.265-1.234-1.265z"/><path d="m419.98 526.52c-.682 0-1.235.567-1.235 1.266l-.226 5.24h2.924l-.226-5.24c0-.699-.553-1.266-1.236-1.266z"/><path d="m415.33 526.52c-.682 0-1.232.566-1.232 1.265l-.229 5.242h2.924l-.229-5.242c0-.699-.551-1.265-1.234-1.265z"/><path d="m461.13 521.39c-2.02 0-3.661 1.679-3.661 3.75l-.671 15.527h8.665l-.671-15.527c0-2.071-1.639-3.75-3.661-3.75z"/><path d="m442.4 526.52c-.682 0-1.235.567-1.235 1.266l-.226 5.24h2.924l-.226-5.24c0-.699-.553-1.266-1.236-1.266z"/><path d="m437.74 526.52c-.682 0-1.232.566-1.232 1.265l-.229 5.242h2.924l-.229-5.242c0-.699-.551-1.265-1.234-1.265z"/><path d="m369.99 499.58c2.02 0 3.661 1.679 3.661 3.75l.671 15.527h-8.665l.671-15.527c0-2.071 1.639-3.75 3.661-3.75z"/></g></g><g fill-rule="evenodd" stroke-width=".367" transform="matrix(4.08744 0 0 4.09299-54.865-76.27)"><path fill="#fff" d="m82.75 123.59l-12.31-2.59 12.31-2.6z"/><path fill="#df212c" d="m82.75 120.44v1.11h-1.39v1.75l-1.56-.33v-1.42h-6.73l-2.63-.55 2.63-.56h6.73v-1.42l1.56-.33v1.75z"/><path fill="#fff" d="m105.89 119.92l-13.32-2.89 13.32-2.88z"/><path fill="#df212c" d="m105.89 116.42v1.23h-1.51v1.94l-1.68-.36v-1.58h-7.29l-2.84-.62 2.84-.61h7.29v-1.58l1.68-.37v1.95z"/><path fill="#fff" d="m128.62 123.59l-12.3-2.59 12.3-2.6z"/><path fill="#df212c" d="m128.62 120.44v1.11h-1.39v1.75l-1.56-.33v-1.42h-6.73l-2.62-.55 2.62-.56h6.73v-1.42l1.56-.33v1.75z"/></g></g></g></svg>