<svg xmlns="http://www.w3.org/2000/svg" width="250" height="290" viewBox="0 0 70.555555 81.844447" fill-rule="evenodd"><path d="m0 67.996c9.256 8.591 21.653 13.848 35.28 13.848 13.625 0 26.02-5.257 35.28-13.848v-67.996h-70.56v67.996" fill="#1d518b"/><g fill="#fff" fill-rule="nonzero"><path d="m0 50.54l.095-.002.045-.002c.865-.044 2.064-.742 3.424-1.535 2.194-1.279 4.751-2.769 7.853-2.749 2.704.018 4.511 1.161 6.323 2.308 1.59 1.01 3.187 2.02 5.382 1.977 2.103-.038 3.439-.954 4.799-1.886 1.691-1.159 3.413-2.34 6.474-2.4 3.062-.06 4.978 1.157 6.87 2.359 1.55.985 3.081 1.958 5.228 1.927 2.139-.031 3.487-.928 4.862-1.843 1.712-1.139 3.461-2.302 6.591-2.353 3.269-.053 5.339 1.234 7.288 2.448 1.435.893 2.793 1.738 4.462 1.748.306.002.592-.009.859-.032v4.276c-.146.006-.297.008-.453.007-1.669-.001-3.03-.856-4.462-1.748-1.95-1.213-4.02-2.501-7.288-2.448-3.131.051-4.879 1.214-6.591 2.353-1.375.915-2.723 1.812-4.862 1.843-2.147.031-3.678-.942-5.228-1.927-1.891-1.202-3.807-2.419-6.87-2.359-3.061.06-4.783 1.241-6.474 2.4-1.36.932-2.696 1.848-4.799 1.886-2.196.039-3.792-.971-5.382-1.977-1.813-1.147-3.62-2.291-6.323-2.308-3.101-.02-5.659 1.47-7.853 2.749-1.36.792-2.558 1.491-3.424 1.534l-.045.002c-.174.005-.34.005-.5.0001v-4.25"/><path d="m0 67.996c.068.063.137.126.206.189l.028-.0001h.013c1.428-.071 2.853-.902 4.47-1.844 1.945-1.134 4.213-2.455 6.69-2.439 2.04.014 3.571.982 5.107 1.954 1.879 1.189 3.766 2.383 6.644 2.331 2.801-.05 4.416-1.157 6.06-2.284 1.413-.969 2.852-1.955 5.222-2 2.362-.046 3.987.986 5.59 2 1.839 1.168 3.655 2.322 6.49 2.281 2.825-.041 4.449-1.121 6.105-2.223 1.437-.956 2.905-1.933 5.357-1.973 2.59-.042 4.364 1.062 6.04 2.103 1.716 1.068 3.342 2.08 5.67 2.094.234.0001.458-.003.675-.013.064-.059.129-.118.193-.177v-3.662c-.146.006-.297.008-.453.008-1.669-.001-3.03-.855-4.462-1.748-1.95-1.213-4.02-2.501-7.288-2.448-3.131.051-4.879 1.214-6.591 2.353-1.375.915-2.723 1.812-4.862 1.843-2.147.031-3.678-.942-5.228-1.927-1.891-1.202-3.807-2.419-6.87-2.359-3.061.06-4.783 1.24-6.474 2.4-1.36.932-2.696 1.848-4.799 1.886-2.196.039-3.792-.971-5.382-1.977-1.813-1.147-3.62-2.29-6.323-2.308-3.101-.02-5.659 1.47-7.853 2.749-1.36.792-2.558 1.491-3.424 1.534l-.045.002c-.174.005-.34.005-.5.0001v3.653"/><path d="m70.56 61.749v-4.416c-.15.004-.304.006-.462.005-2.328-.014-3.954-1.025-5.67-2.093-1.672-1.041-3.446-2.145-6.04-2.103-2.452.04-3.92 1.016-5.357 1.973-1.656 1.102-3.28 2.183-6.105 2.224-2.835.041-4.651-1.113-6.49-2.281-1.604-1.019-3.228-2.051-5.59-2-2.37.047-3.808 1.033-5.222 2-1.644 1.127-3.259 2.234-6.06 2.284-2.878.052-4.765-1.142-6.644-2.331-1.536-.972-3.067-1.941-5.107-1.954-2.477-.016-4.744 1.305-6.69 2.439-1.617.942-3.042 1.773-4.47 1.844h-.013l-.059.002h-.009c-.196.006-.387.006-.571.002v4.417c.16.004.326.004.5-.0001l.045-.002c.865-.044 2.064-.742 3.424-1.535 2.194-1.279 4.751-2.769 7.853-2.749 2.704.018 4.511 1.161 6.323 2.308 1.59 1.01 3.187 2.02 5.382 1.977 2.103-.038 3.439-.954 4.799-1.886 1.691-1.159 3.413-2.34 6.474-2.4 3.062-.06 4.978 1.157 6.87 2.359 1.55.985 3.081 1.958 5.228 1.927 2.139-.031 3.487-.928 4.862-1.843 1.712-1.139 3.461-2.302 6.591-2.353 3.269-.053 5.339 1.234 7.288 2.448 1.435.893 2.793 1.738 4.462 1.748.157.0001.308-.002.453-.007"/></g><g fill="#ffcb05"><path d="m62.799 38.41h-55.04c5.075 3.683 10.665 6.343 17.14 5.832 5.658-.446 8.869-2.584 10.379-5.499 1.51 2.916 4.72 5.05 10.379 5.499 6.477.511 12.07-2.149 17.14-5.832"/><path d="m35.28 27.828c.334-1.158.787-2.327 1.316-3.491-.338-1.296-.791-2.604-1.316-3.907-.524 1.303-.977 2.611-1.316 3.907.529 1.165.982 2.333 1.316 3.491"/></g><g fill="#fff"><path d="m34.958 19.69c-.576-1.547-1.287-3.03-1.966-4.365-.612 1.328-1.304 2.792-1.813 4.318.862 1.277 1.759 2.588 2.442 3.908.34-1.279.828-2.573 1.337-3.861"/><path d="m25.733 32.01c-2.277-5.741-2.574-13.19-1.784-19.626 2.105 2.045 4.281 4.498 6.196 7.137-1.15 3.261-1.809 6.61-1.54 9.63.289 3.247 2.361 5.695 5.288 4.957-.466.439-.076.498-1.665 1.076-1.589.578-5.508-.493-6.496-3.175"/><path d="m32.836 13.489c-.824-1.371-1.685-2.674-2.548-3.87-.587 2.072-1.092 4.353-1.451 6.701.575.718 1.137 1.456 1.676 2.208.669-1.739 1.466-3.441 2.324-5.04m5.63 15.714c.053-.407.059-.83.016-1.26.0001.425-.005.845-.016 1.26"/><path d="m22.596 22.08c-1.582-1.268-3.566-2.744-5.947-4.217 1.3 8.823 3.469 13.568 7.204 16.632 1.772 1.454 4.767 2.11 6.744 1.253-2.176.115-4.535-1.298-5.631-3.343-1.514-2.825-2.158-6.529-2.37-10.326"/><path d="m30.779 20.517c1.581 2.304 2.937 4.723 3.856 7.115.161.419.429 1.043.558 1.47-.164.871-.222 1.811-.072 2.761-.263 1.599-2.13 2.216-3.566 1.359-1.254-.748-2.104-2.455-2.106-4.318-.004-2.667.534-5.557 1.33-8.387"/><path d="m35.597 19.69c.576-1.547 1.287-3.03 1.966-4.365.612 1.328 1.304 2.792 1.813 4.318-.862 1.277-1.759 2.588-2.442 3.908-.34-1.279-.828-2.573-1.337-3.861"/><path d="m44.823 32.01c2.277-5.741 2.574-13.19 1.784-19.626-2.105 2.045-4.281 4.498-6.196 7.137 1.15 3.261 1.809 6.61 1.54 9.63-.289 3.247-2.361 5.695-5.288 4.957.466.439.076.498 1.665 1.076 1.589.578 5.508-.493 6.496-3.175"/><path d="m35.28 18.651c.646-1.674 1.36-3.327 2.244-4.91-.708-1.995-1.406-3.905-2.244-5.64-.838 1.734-1.536 3.645-2.244 5.64.884 1.583 1.598 3.236 2.244 4.91"/><path d="m37.72 13.489c.824-1.371 1.685-2.674 2.548-3.87.587 2.072 1.092 4.353 1.451 6.701-.575.718-1.137 1.456-1.676 2.208-.669-1.739-1.466-3.441-2.324-5.04"/><path d="m47.96 22.08c1.582-1.268 3.566-2.744 5.947-4.217-1.3 8.823-3.469 13.568-7.204 16.632-1.772 1.454-4.767 2.11-6.744 1.253 2.176.115 4.535-1.298 5.631-3.343 1.514-2.825 2.158-6.529 2.37-10.326"/><path d="m35.28 33.19c.286 1.752 1.447 3.263 3.181 3.895l.047.016h-6.457l.047-.016c1.735-.631 2.895-2.143 3.181-3.895"/><path d="m39.776 20.517c-1.581 2.304-2.937 4.723-3.856 7.115-.161.419-.429 1.043-.558 1.47.164.871.222 1.811.072 2.761.263 1.599 2.13 2.216 3.566 1.359 1.254-.748 2.104-2.455 2.106-4.318.004-2.667-.534-5.557-1.33-8.387"/></g></svg>