<svg xmlns="http://www.w3.org/2000/svg" viewBox="0 0 500 590"><g stroke="#000" stroke-width="2"><path d="m30 70v120c40 20 40 100 0 120v110c0 90 170 120 170 120 25.5 4.5 40 20 50 30 10-10 24.5-25.5 50-30 0 0 170-30 170-120v-110c-40-20-40-100 0-120v-120c-70-70-370-70-440 0z" fill="none"/><path d="m36 75v111c40 26 40 104 0 128v103c0 88 165 117 165 117 24 3 39 18 49 28 10-10 24-25 50-28-1 0 164-29 164-117v-103c-40-24-40-102 0-128v-111c-67-65-361-65-428 0z" fill="#6060ff"/><path d="m143 160c11 42 11 84 0 126 21-21 56-32 84-42-10 28-21 63-42 84 42-11 84-11 126 0-21-21-31-56-42-84 28 10 63 21 84 42-10-42-10-84 0-126-21 21-56 31-84 42 11-28 21-63 42-84-42 10-84 10-126 0 21 21 32 56 42 84-28-11-63-21-84-42z" fill="#fff"/><path d="m113 225c-11 16-14 43-14 67 0 86 66 149 150 149 78 0 151-65 150-149 2-24-7-50-14-67 0 195-272 195-272 0z" fill="#ffc000"/></g></svg>