<svg xmlns="http://www.w3.org/2000/svg" viewBox="0 0 200 241"><path d="m82.11 130.86c-.715-1.83-2.088-7.571-2.633-11.01-.912-5.748-1.133-13.503-.543-19.03.459-4.302 1.602-10.112 2.496-12.688 1.497-4.313 4.472-9.535 7.585-13.315l.611-.741 2.041.451c1.123.248 2.615.58 3.317.738l1.276.287-.246 2.919c-.803 9.521-2.927 20.625-5.972 31.22-2.11 7.344-3.858 12.573-5.29 15.834-2.146 4.883-2.522 5.643-2.643 5.334" fill="#fff"/><path d="m6.228 121.83c11.98-14.239 12.248-29.374.757-42.823l-4.593-5.376.267-25.22.267-25.22 10.5-3.948c34.13-12.833 56.61-16.501 94.5-15.425 31.783.902 45.917 3.451 73.61 13.275l15.607 5.537.637 8.183c.35 4.501.64 15.995.643 25.542l.006 17.358-4.856 6.142c-6.483 8.201-7.121 9.59-7.815 17.02-.813 8.702 1.461 15.506 8 23.952l5.166 6.668-.771 16.251c3.607 9.909-.758 16.98-3.055 25.467.241.279-2.412-1.1-7.954.64-3.786 1.132-7.652.807-11.471 1.661-3.691.826-10.835-2.542-12.133-3.253-4.455.051-109.91.535-122.25.525-.35.092-2.726-.058-4.922.763-3.676 1.374-8.08 3.877-10.675 3.142-3.631-1.03-7.189-2.506-10.921-3.683-2.768-.873-5.498 1.721-8.456 1.404-1.178-12.493-10.575-36.07-.086-48.576" fill="#0065b3"/><g fill="#fff"><path d="m57.831 132.25c-.343-.562-1.217-2.01-1.942-3.224l-1.936-2.822c7.827-10.735 10.05-22.737 12.725-35.19.035-.036 4.077 1.404 4.321 1.568.029.019-.3 1.484-.731 3.256-.431 1.772-1.17 5.058-1.644 7.303-2.759 13.08-4.398 18.32-8.557 27.354-.707 1.535-1.358 2.787-1.448 2.782-.09-.005-.445-.469-.788-1.03"/><path d="m60.42 134.27l-1.532-.895.855-1.89c4.546-10.05 6.498-16.477 9.449-31.08.697-3.448 1.332-6.533 1.412-6.857.171-.694.179 15.07.015 27.699l.017 9.555-1.086.449c-2.171.567-3.763 1.841-6.417 3.335l-1.136.889-1.576-1.204"/><path d="m82.68 132.45c0-.347 1.27-3.315 2.517-6.252 6.359-16.802 9.386-35.936 11.991-51.1.291-.075 3.152.324 3.252.711.218.844-.119.351-.314 7.94-.204 7.957-.954 14.12-2.183 20.13-.859 4.203-4.354 17.501-6.03 22.955-1.962 6.384-5.487 15.612-6.087 15.612-1.204-3.175-1.825-6.871-3.145-9.998"/><path d="m87.58 138.72c2.819-6.378 9.546-27.619 11.296-37.37 1.099-6.122 1.627-11.62 1.787-19.273.064-3.051.013-5.931-.048-5.985-.214-.19.853-.344 1.329.439.228.376.008 1.136.034 1.894.165 4.82-.214 15.637-.214 25.969l-.188 28.489c-5.762.619-9.817 3.33-13.716 7.07.105-.532-.087-.565-.28-1.225"/><path d="m119.83 134.52c-2.47-.98-7.27-1.792-10.687-1.808l-3.096-.015.035-18.342c.033-17.24.071-18.18.631-15.617 2.479 11.339 5.592 21.77 9.786 28 .993 1.475 4.854 6.365 5.888 8.331.249.473-.772.157-2.557-.55"/></g><path d="m93.06 236.32c-9.882-7.125-23.432-14.186-40.37-21.04-27.17-10.989-37.18-17.763-43.36-29.357-5.613-10.531-7.295-19.246-7.879-40.824l-.52-19.21 4.116-4.916c11.995-14.327 12.07-28.613.212-41.475l-4.072-4.417v-26.519-26.519l13.25-5.03c29.651-11.253 44.545-14.13 77.25-14.901 34.961-.829 55.14 1.498 78.5 9.05 12.667 4.096 27.03 9.542 28.75 10.897.943.745 1.25 7.385 1.25 27.01v26.02l-4.557 4.872c-6.196 6.624-8.396 11.813-8.411 19.836-.015 7.856 2.662 14.208 8.988 21.33l4.29 4.83-.641 18.408c-1.513 43.47-8.84 53.758-50.17 70.43-17.765 7.166-29.322 13.08-40.13 20.535l-9.126 6.297-7.374-5.317m15.436-1.844c9.429-6.765 21.442-12.95 39.19-20.18 20.705-8.43 29.14-13.07 35.798-19.674 10.565-10.486 14.11-22.2 15.266-50.42l.7-17.1-4.617-5.669c-5.692-6.988-7.101-9.695-8.507-16.34-1.207-5.704-.27-13.203 2.263-18.1.8-1.547 3.512-5.101 6.03-7.898l4.571-5.084-.112-16.353c-.062-8.994-.399-20.58-.75-25.747l-.638-9.394-11.5-4.442c-26.916-10.397-44.42-13.887-74.57-14.867-40.876-1.328-64.71 2.473-99.11 15.806l-10.318 3.999v25.733 25.733l4.128 4.339c12.01 12.627 11.93 29.29-.208 42.46l-4.224 4.582.596 18.723c.855 26.844 4.275 38.501 14.506 49.44 6.299 6.734 14.558 11.378 35.2 19.794 19.525 7.96 30.13 13.419 40.5 20.856 3.85 2.76 7.31 5.04 7.689 5.076.379.032 4.03-2.341 8.121-5.274"/><g fill="#fff"><path d="m111.59 116.23c-1.709-3.898-3.315-11.303-4.512-16.761-.932-4.248-.785-6.13-.934-13.743-.164-8.379-.734-7.859-.048-8.092.614-.209.696.062 2.473-.257.605 2.677 1.857 12.364 2.782 15.798 1.578 5.855 1.655 6.384 1.238 8.507-.754 3.842-.43 9.453.832 14.399.656 2.572 4.19 12.171 2.92 9.274l-4.75-9.125"/><path d="m75.25 110.61c-.031-11.03-.044-20.09-.03-20.12.035-.071 4.449.792 4.565.892.051.044-.141 1.171-.426 2.505-1.733 8.11-1.848 17.228-.321 25.42.637 3.418 2.208 9.07 3.096 11.136.075.175-.683.225-3.366.225h-3.463l-.056-20.06"/><path d="m91.59 2.969c-27.27.226-54.34 5.93-79.56 16.281-3.287 1.271-6.588 2.541-9.875 3.813 0 17.16 0 34.31 0 51.47 8.125 7.489 14.979 17.952 12.781 29.5-1.179 8.806-7.123 15.715-13.06 21.875.622 14.268.295 28.672 2.785 42.781.036.203.647 2.922.684 3.125 1.236-.62 1.663-.724 2.844-1.094 3.644-1.421 3.301-1.281 8.781-.938 3.593 1.308 6.449 3.657 10.719 3.469h.031.031c1.99-.383 3.741-1.367 5.469-2.188 1.728-.821 3.421-1.488 5.281-1.406h.031.031c2.998-.308 4.064.345 6.219.969l.281-.938c-2.152-.872-4.296-1.113-6.594-1.031-2.085-.066-3.92.675-5.656 1.5-1.732.823-3.406 1.736-5.156 2.094-3.897.172-6.582-2.094-10.406-3.469h-.094-.063c-4.893-.31-7.634.475-10.379 1.489-3.167-14.04-2.979-30.01-3.358-44.35 6.509-6.924 12.837-14.866 12.852-24.64 1.197-10.631-5.384-20.18-12.638-27.16-.009-16.448-.318-32.24-.007-49.745 61.46-29.927 143.36-24.05 192.77-.634 1.228 16.292 1.543 33.777 1.37 50.07-11.611 13.13-12.612 17.984-12.838 26.863-.223 8.669 3.121 13.85 13.367 27.25-.409 14.383-.425 29.612-3.123 41.42-.838-.088-3.385-.451-4.14-.439-3.832.061-8.176 1.248-12.5 1.844-4.324.596-8.603.609-12.375-1.531-.032-.018-.239-.119-.625-.281-.386-.162-.973-.384-1.938-.688l-.313.938c.943.296 1.528.511 1.875.656.347.146.42.204.5.25 4.056 2.302 8.59 2.264 13 1.656 4.41-.607 8.74-1.786 12.375-1.844 1.555-.025 3.803.212 5.063.695 1.281-5.68 1.718-11.558 2.281-17.32.498-8.714.753-17.409 1.125-26.12-6.413-7.717-13.784-15.855-13.625-26.563-.779-9.156 6.03-19.17 10.699-23.375 2.131-2.665 3.01-5.06 2.614-8.344-.044-15.454-.194-30.903-1.469-46.31-22.15-8.937-45.02-16.926-69.06-18.375-10.493-.861-21.04-1.155-31.563-1.188-1.819-.034-3.62-.046-5.438-.031"/><path d="m137.15 95.78c-6.211-2.363-9.395-4.076-11.371-6.115-.892-.921-1.819-2.292-1.55-2.292.043 0 2.789.722 6.102 1.604 3.314.882 6.382 1.69 6.818 1.796l.793.192.056 2.538c.031 1.396-.014 2.531-.099 2.521-.085-.009-.423-.119-.75-.243"/><path d="m82.37 129.43c-.14-.471-.392-1.314-.559-1.873-1.348-4.509-2.252-9.626-2.694-15.247-.146-1.863-.147-7.883-.0001-9.767.299-3.857.889-7.8 1.75-11.685.969-4.374 3.193-9.07 6.589-13.904 1.524-2.17 2.134-2.92 2.35-2.89.357.05 6.311 1.325 6.344 1.359.048.048-.274 4.15-.483 6.151-.693 6.648-2.188 14.94-3.993 22.16-1.56 6.241-4.77 16.87-5.839 19.335-1.84 4.244-3.097 7.1-3.15 7.154-.033.034-.174-.324-.315-.796"/><path d="m53.1 124.18c-.997-1.464-2.794-7.448-3.358-11.181-.241-1.599-.286-2.825-.209-5.745.128-4.818.696-8.346 1.81-11.247l4.795-9.214c5.109 1.31 8.1 2.892 11.354 4.498-3.548 17.397-7.461 25.24-12.984 34.35-.04 0-1.159-1.094-1.407-1.458"/></g><path d="m83.19 190.9c-10.802-3.902-24.742-.108-33.08-9.746-8.182-8.538-4.959-21.06-5.245-31.581-.441-4.886 1.34-8.574-2.01-11.796-4.03-3.367-7.971-7.914-10.648-12.11-4.767-4.66-7.332-21.362 3.931-11.534 9.994 9.51 19.75 19.993 32.964 25 15.472 6.143 32.566 6.728 48.964 5.506.585-.188 1.84-.015 2.244-.383 5.244-4.782 2.425-16.521 10.556-19.82 9.252-3.507 22.21 3.591 30.22-4.248 3.32-7.995 15.937-8.767 12.656.644-2.965 8.205-10.165 15.343-9.691 24.627-1.421 11.158.103 22.937-.253 34.14-2.644.266-3.949-.036-6.074.68-4.934 1.663-10.211 5.533-17.77 9.558-1.411.751-2.618-.991-4.56-.941-9.574.418-20.297 4.954-29.35-.432-7.784-2.131-15.07 3.448-22.849 2.436m-25-57.703c-10.845-6.472-17.478-22.39-23.18-32.825l.639-4.46 22.543 37.28m79.72-9.585c.015-3.515.502-17.377.051-32.853-2.045-.509-16.05-3.753-13.326-4.599 2.078-2.226 10.254.373 13.259 1.108-.053-1.83-.15-2.768-.223-4.578-.433-.364-6.661-5.327-7.423-7.161-2.128-.772-3.367-1.192-3.098-4.375 3.264-.264 6.842-.153 8.535-.118-.324-8.518.325-18.17.307-20.603 2.376-.21.742-.037 3.941-.434.189 3.182-.325 11.03.09 20.646 2.644.332 10.401-.854 9.934 1.769-.583.81-.264 2.259-2.333 2.939-1.604 2.549-4.402 5.52-6.02 7.241.075 1.905-.07 3.228.0001 5.137.022.603 8.812 1.895 13.428 3.434.013.361 1 2.041.149 3.061-2.856-.426-13.448-2.951-13.436-2.624.514 14.532.818 27.547.499 32.11-2.578.133-2.109-.005-4.339-.097m-36.628-94.11c1.195-.14 1.445-.129 3.489-.395-.001.495.324 21.22.347 26.641 1.526.109 5.59.24 6.741.286.185 3.045.086 2.842.065 3.772-2.059-1.031-5.13 5.784-5.841 6.744.316 29.368-.226 66.72-.149 78.2-1.543-1.058-4.069 1.195-4.03-.384.148-6.286.119-16.02.229-21.353.39-8.412-.168-53-.562-56.629-.164-.163-4.878-5.642-7.545-6.968-.027-.895-.186-1.269.057-3.556 3.694.019 7.142.9 7.129.034-.14-9.808-.154-23.21.074-26.393m-30.19 110.05c.188-18.17.747-36.531-.299-54.927 1.322.026 2.604-.04 4.159.02.172 16.03-.189 39.594-.207 55.713-.481-.151-3.172-.655-3.653-.806m-11.05-66.22c3.28-.015 19.822.424 23.979.249.026.362-.13 1.325-.242 2.631-1.901.067-7.407 7.078-8.421 8.239-1.756.066-3.595.046-5.085-.034-1-.867-8.423-8.167-10.206-8.155-.048-1.553.006-1.777-.025-2.93m64.34 7.366c-10.442-2.45-27.398-4.699-37.34-7.907-.079-1.834-.237-2.441 2.906-2.82 9.573 1.351 28.578 4.943 36.22 8.159-.525 1.875-.657 1.324-1.785 2.568m-53.49 11.583c-2.206-.776-15.408-6.445-17.651-7.236.101-1.028.893-1.466 1.845-2.035 2.368.722 13.366 4.378 15.849 5.341-.149 1.493.032.721-.042 3.931m-1.694-19.15c.014-7.551-.151-14.439-.611-17.673 5.275-.358.162.061 5.35-.375.116 7.092.025 10.86.139 18.08-2.646.059-2.696-.055-4.878-.035" fill="#f58220"/><g fill-rule="evenodd"><g fill="#0066b3"><path d="m45.19 177.7c-5.27-.197-7.882.54-10.125 1.34-2.243.8-4.06 1.642-7.969 1.824-4.093.19-6.357-1.375-12.25-2.866-.155-.039-.236-.028-.406-.037-.17-.009-.374-.03-.625-.037-.503-.015-1.144-.024-1.781-.037-.638-.013-1.282-.022-1.781-.037-.25-.007-.465-.029-.625-.037-.16-.009-.298-.011-.25 0 0 0-.294.288-.329.465-.041.207.142.689.142.689.143.033.234.028.406.037.172.009.372.03.625.037.506.015 1.144.024 1.781.037.638.013 1.286.022 1.781.037.248.007.468.029.625.037.157.009.286.017.219 0 5.802 1.468 8.18 3.104 12.5 2.904 4.02-.187 6.02-1.115 8.219-1.899 2.186-.78 4.619-1.45 9.75-1.266h.063l3.766 1.024.047-1.21-3.688-.968-.031-.037h-.063"/><path d="m191.32 177.69c-8.05 2.795-17.11 5.631-24.875.592.027.018-.19-.13-.469-.185-.279-.055-.731-.095-1.57-.074l-.016 1.184c.817-.021 1.296.001 1.43.037.134.027-.065-.049.125.074 8.194 5.315 17.596 2.283 25.656-.518 0 0 .129-.475.077-.668-.048-.175-.358-.443-.358-.443"/><path d="m101.35 229.44c-2.545.032-5.066 1.107-7.125 3.306 0 0 .016.521.103.697.099.2.491.434.491.434 3.734-3.989 9.316-3.883 13.219-.348 0 0 .417-.153.51-.353.096-.207.021-.821.021-.821-2.128-1.927-4.674-2.947-7.219-2.915"/></g><path d="m158.98 137.53c-.759.041-1.603.001-2.825.115-4.872 1.619-9.702 4.251-14.237 5.135-5.63 1.098-11.599 1.713-15.344 1.75v1c3.841-.038 9.839-.671 15.531-1.781 5.249-1.024 12.1-3.353 17.219-5.281 0 0 .158-.434.089-.604-.061-.152-.433-.334-.433-.334"/><g fill="none" stroke="#000"><path d="m71.07 139.54c-.292-17.646.19-36.75-.102-54.4"/><path d="m74.964 84.21c-.0001.537-.0001 1.076-.0001 1.616-.013 17.763.091 37.31.071 54.959"/><path d="m101.95 76.39c-.104 22 .112 46.23.008 68.23"/><path d="m105.95 145.05c-.125-22.17.125-45.802 0-67.969"/><path d="m58.6 132.8c-.219-.336-.708-.725-.937-1.079-6.209-9.623-15.771-25.862-21.674-35.38-.094-.152-1.064-1.19-1.031-.865"/><path d="m34.959 95.45c.003 1.297-.038 3.154.006 4.492.446 1.883 1.492 3.913 3.02 7.04 3.457 5.838 9.566 17.16 14.923 22.552"/><path d="m60.07 73.34c7.958 0 15.917 0 23.875 0 0 .875 0 1.75 0 2.625"/><path d="m84.45 76.32c-8.04 0-16.337-.138-24.379-.138.006-.886-.016-2.457-.004-3.338"/><path d="m61.31 76.24c.33.267.743.616 1.083.911 2.79 2.426 5.861 5.697 8.573 7.889"/><path d="m82.37 76.28c-2.42 2.595-4.156 4.953-6.396 7.466-.317.355-.644.716-.987 1.083" stroke-width="1.033"/><path d="m70.6 84.74c2-.125 2.586.059 4.586-.066"/></g></g><path d="m82.08 129.44c-.578-1.519-1.404-6.576-2.087-10.25-.48-2.586-.626-5.27-.635-11.667-.009-7.182.098-8.884.791-12.551 1.018-5.387 1.967-8.415 3.699-11.802 1.398-2.734 5.04-8.377 5.644-8.752.183-.113 1.754.071 3.491.408l3.159.614-.207 2.342c-.989 11.172-3.131 22.16-6.705 34.391-2.208 7.558-3.096 11.121-5.066 15.554-1.354 3.046-1.642 3.572-1.995 2.642l-.088-.928" fill="#fff"/><path d="m87.33 72.967c12.542 2.625 24.575 5.25 37.12 7.875 1.195-1.163 2-1.609 1.254-2.882-.355-.605-5-2.318-8.715-3.03-7.941-1.518-16.872-3.803-24.09-4.921-3.314-.514-4.582-.185-5 .417-.419.597-.656 2.578-.567 2.54z" fill="none" fill-rule="evenodd" stroke="#000"/><path d="m66.08 54.957c-1.38-.297-4.377-.548-6.66-.559-2.283-.001-4.151-.187-4.151-.392 0-.205.455-.94 1.011-1.633 1.986-2.473 5.05-3.116 12.657-2.656l4.865.294v2.536 2.536l-1.448.251c-1.966.34-3.317.259-6.274-.376" fill="#fff"/><g fill="none" fill-rule="evenodd" stroke="#000"><path d="m73.99 72.969c-.125-7.375.136-16.03.011-23.404-8.41.346-15.95-2.563-18.679 4.969"/><path d="m69.07 73.09c.042-5.667-.248-11.576-.206-17.243-1.846-.392-3.1-.539-5.095-.949-2.967-.28-5.861.126-8.912-.16"/></g><path d="m82.78 29.897l-1.3-.499 2.583-2.076c1.421-1.142 2.855-2.081 3.187-2.088.332-.007 2.982-.273 5.889-.593 2.907-.32 6.686-.585 8.399-.589l3.114-.008v2.605c0 1.433-.042 2.609-.094 2.614-3.131.29-17.257 1.166-18.591 1.152-1.038-.011-2.472-.244-3.187-.518" fill="#fff"/><g fill-rule="evenodd"><path d="m80.74 29.717c2.742-2.322 3.543-2.634 5.605-4.44.421-.393 5.934-.796 8.439-1.083 2.649-.208 5.04-.474 10.1-.324 0 10.372.044 22.03.044 32.398" fill="none" stroke="#000"/><path d="m100.47 29.517c0 9.04.009 17.472.009 26.513h1c0-9.04-.031-17.522-.031-26.563l-.323.007-.655.043"/><g fill="none" stroke="#000"><path d="m95.74 59.922c2.417 2.625 4.04 5.05 6.455 7.676"/><path d="m105.92 67.21c1.625-2.583 2.491-4.543 4.116-7.126"/><path d="m102.07 66.54c-.167 1.292.053 4.285-.113 5.576"/><path d="m105.95 72.967c.083-1.917-.043-4.518.04-6.435"/><path d="m98.7 56.842c0 0 0 0 0 0z"/><path d="m141.45 123.59c0 0 0 0 0 0z"/></g></g><path d="m142.8 96.04l-.507-.015v-1.99-1.99l.143.027c.079.015 2.425.499 5.213 1.076 2.789.577 5.614 1.161 6.28 1.296 1.394.284 1.377.225.169.584-1.849.549-3.835.865-6.292 1-.78.043-3.755.05-5.01.013" fill="#fff"/><g fill="none" fill-rule="evenodd" stroke="#000"><path d="m142.01 123.37c0-9.821-.035-16.667-.031-26.286 0-.339 0-4.993 0-5.339"/><path d="m138.04 123.75c-.083-10.167.021-23.21-.063-33.375"/><path d="m154.45 94.84c0 0 0 0 0 0z"/><path d="m149.23 75.25c.371-2.593.39-2.865.42-4.401-2.02-.018-5.385.08-6.955.045-5.406.085-10.343-.142-15.749-.056.07 1.564.066 1.016.044 3.08.638.907 1.657 1.323 3.581 1.67"/><path d="m136.2 70.09c.037.019-.083 0 0 0z"/></g><path d="m122.65 49.09c0-1.518.977-2.875 2.558-3.551.478-.204 3.982-.372 7.787-.372h6.918v2.412 2.743c-3.337.109-6.91.171-10.373.192h-6.891v-1.423" fill="#fff"/><g fill-rule="evenodd"><g fill="none" stroke="#000"><path d="m135.98 50.41c.208 6.417-.06 13.779.148 20.2"/><path d="m139.9 70.56c.042-8.125.061-17.532.103-25.657-13.399.086.064-.013-13.392.079-1.919.535-1.86.37-3.357 1.746-1.439 1.323-.958 2.109-.968 4.187 3.666-.33 9.429-.077 14.06-.012"/><path d="m71.21 92.78c-5.708-2.417-12.477-5.275-18.19-7.692"/><path d="m36.929 98.03c6.291 1.602 15.612-5.775 19.232-11.212"/><path d="m52.697 123.77c-4.448-11.748-3.357-18.276-2.02-25.871.03-.167 2.225-7.01 4.508-9.741"/><path d="m54.3 125.74c4.269-5.986 6.815-12.396 8.84-19.385 1.156-4.832 2.44-10.445 3.212-15.217"/><path d="m58.809 133.2c2.611-5.483 4.688-10.222 6.533-16.526 2.563-8.76 3.099-14.769 5.45-23.771"/><path d="m62.58 135.39c2.58-2.985 7.268-4.83 8.586-4.405"/><path d="m85.81 143.3c2.929-6.904 13.672-10.603 16.02-10.378"/><path d="m85.64 143c4.03-7.095 6.776-16.731 8.777-24.23 4.143-14.832 6.224-23.855 5.996-43.09"/><path d="m96.73 75.34c-.366 5.782-.818 9.507-1.703 14.831-1.81 11.457-4.74 21.14-8.04 31.597-1.201 2.858-2.922 6.698-4.157 9.542"/></g><path d="m82.48 130.78c-.582 3.997-3.291 7.05-4.5 10.813l.938.25c1.62-4.111 3.992-7.697 5.1-12.04l-1.538.98"/><g fill="none" stroke="#000"><path d="m98.24 144.75c-1.502-2.807-2.677-6.555-4.18-9.361"/><path d="m112.66 144.87c2.348-3.09 3.413-7.275 4.688-10.625"/></g></g><path d="m113.02 98.11c-.208-.345-2.775-11.973-3.883-17.593-.254-1.289-.363-2.443-.242-2.566.188-.191 14.46 2.646 14.877 2.957.082.062-.664 1.029-1.658 2.149-3.192 3.598-6.363 8.998-8.484 14.451-.21.539-.484.811-.61.603" fill="#fff"/><g fill-rule="evenodd"><g fill="none" stroke="#000"><path d="m119.46 129.81c4.431-11.793 8.276-23.934 11.236-36.17"/><path d="m105.88 132.75c8.504-.168 14.09 1.537 18.338 4.223-5.551-6.512-10.705-17.841-11.07-24.906-2.264-12.978 3.702-23.536 11.355-31.385"/><path d="m108.68 77.73c1.367 8.21 3.909 19.362 6.533 27.875.338 1.17 5.306 17.13 10.158 25.603"/><path d="m127.86 125.92c2.373-2.553 6.277-20.583 7.235-30.426"/><path d="m118.45 128.14c-7.442-9.103-11.253-25.299-12.472-37.544"/><path d="m85.72 142.98c-2.142-6.02-3.621-12.666-3.685-12.856-3.879-11.616-4.705-25.05-2.166-36.998.994-7.219 4.924-13.889 9.448-19.611"/><path d="m74.856 90.11c5.135 1.173 1.659.39 5.578 1.266"/><path d="m75.05 130.88c2.162.07 6.834-.044 7.96-.05"/><path d="m73.77 69.93c11.663-8.825 19.336-23.21 27.3-35.16"/><path d="m110.92 55.82c-1.553-.896-4.182-5.067-6.197-10.08" stroke-width=".884"/><path d="m135.75 70.32c-14.09-7.389-22.282-19.964-30.22-33.405-.139-.236-.498-.886-.637-1.123"/><path d="m158.73 121.44c-6.231-6.87-9.57-15.919-11.719-24.844"/><path d="m144.7 96.59c.383 10.221 2.683 18.12 5.75 27.437"/></g><g fill="#0066b3"><path d="m161.63 198.35c-2.617-.138-5.123.657-7.594 1.503-3.295 1.128-6.524 2.334-9.781 1.812-6.84-2.85-14.52-4.217-21.57-1.079-4.913 3.153-9.302 1.696-13.305-.27v.039c-5.68-2.769-12-2.242-17.531.732h-.031c-2.611 1.625-5.284 1.535-8.06.81-2.759-.72-5.58-2.068-8.344-2.814-.02-.008-.042.008-.063 0-4.02-1.541-7.876-.122-11.594 1.234-3.737 1.363-7.349 2.62-11.03 1.079v.039c-6.827-4.655-15-3.121-21.781.424 0 0-.054.527.017.726.06.169.358.43.358.43 6.641-3.472 14.57-4.928 21.03-.463h.031l.031.039c4.03 1.685 7.885.284 11.625-1.079 3.74-1.364 7.37-2.716 11.06-1.272l.031.039h.031c2.673.713 5.488 2.06 8.375 2.814 2.878.751 5.85.887 8.719-.887.009-.005.022.005.031 0 5.316-2.851 11.35-3.376 16.75-.732l.031.039c4.372 1.816 9.531 3.284 13.969.193.03-.021.064-.017.094-.039 6.747-2.96 14.194-1.617 20.906 1.195l.063.039h.031c3.535.567 6.882-.729 10.156-1.85 3.274-1.121 6.468-2.088 9.75-1.041v.039h.031c2.14.518 4.258 1.408 6.469 2 0 0 .324-.322.358-.522.037-.218-.171-.711-.171-.711-2.126-.574-4.22-1.464-6.438-2-.001-.003-.021.003-.031 0-.883-.279-1.763-.417-2.625-.463"/><path d="m73.01 219.12c-.37.28-.459.602-.164.865.949.846 3.876 1.485 5.819 2.441 2.99 1.228 6.132 2.277 9.311 1.846 3.308.177 6.05-2.653 9.289-3.04 3.59-.669 7.339-1.183 10.843.343 2.211.612 4.101 2.437 6.343 2.797 3.511.606 6.977-.696 10.15-2.433.905-.612 4.512-1.583 1.998-2.255-1.892.707-3.602 2.01-5.534 2.648-3.095 1.218-6.673 1.596-9.598-.46-3.799-2.296-8.185-3.106-12.36-2.156-2.766.23-5.439 1.224-7.954 2.613-4.385 1.784-9.02.268-13.248-1.444-1.625-.617-3.248-1.244-4.895-1.766"/><path d="m130.48 208.79c-3.398-.12-6.544 1.504-9.438 3.223-.009.005-.023-.005-.031 0-4.989 1.839-10.06-.952-15.09-2.563-3.922-1.302-8.08-.801-11.75 1.32-.009.005-.022-.005-.031 0-4.432 2.11-9.385 2.136-13.938.544v.039c-4.456-1.999-9.61-4.03-14.375-1.242h-.031c-3.792 2.513-8.476 3.524-12.281.815l-.063-.039-.148.097c-.481.314-.245.951-.227 1.068 4.189 2.936 9.209 1.822 13.188-.815 4.353-2.545 9.195-.708 13.625 1.281h.031c4.749 1.661 9.956 1.651 14.625-.582v-.039h.031c3.471-2.01 7.393-2.471 11.09-1.242h.031c4.926 1.575 10.191 4.548 15.625 2.524h.031l.031-.039c2.898-1.727 5.944-3.239 9.125-3.106h.031c2.609-.211 5.145.904 7.75 1.903 2.605.999 5.315 1.898 8.219 1.048 0 0 .15-.529.1-.745-.041-.177-.35-.498-.35-.498-2.615.766-5.109-.021-7.688-1.01-2.559-.981-5.184-2.151-8.03-1.941-.021.002-.041-.002-.063 0"/></g><g fill="none" stroke="#000"><path d="m141.6 96.51c4.567.184 8.831.285 12.994-1.697.921-1.754.507-3.643-.309-4.054-5.254-1.105-7.717-1.895-12.216-2.851"/><path d="m124.38 87.28c1.063.625 30.665 7.323 30.665 7.323"/><path d="m127.76 84.92l10.188 2.203-.031-4.219"/><path d="m141.98 88.4l-.063-5.766"/><path d="m144.38 79.44c.048 2.149.05 4.423 1.065 9.05"/><path d="m141.82 82.936l6-7.969"/><path d="m129.95 75.47l8.02 7.656"/><path d="m137.79 96.06c-4.425-1.621-13.166-4.01-13.739-8.989.906-1.35 2.391-1.95 3.895-2.134"/><path d="m128.41 74.967l21.281-.148"/><path d="m93.97 59.883l18.407-.004"/><path d="m111.92 60.38l-.011-4.231"/><path d="m112.41 55.861l-18.441.088-.006 4.434"/></g><path d="m100.83 44.905c-1.599 5.465-3.845 7.579-6.404 10.697l.667.678c2.62-3.125 4.798-5.02 6.425-10.709l-.688-.666"/><path d="m81.32 28.655l-1.5 1c1.31.589 3.671 1.143 4.813 1.656l.125.031h.094c6 .026 11.617-.808 16.344-.906l-.031-.967c-4.791.1-10.326.886-16.188.873-1.269-.551-3.45-.875-3.656-1.688"/><g fill="none" stroke="#000"><path d="m53.33 85.54v-1.679l1.724-.884 16.219 5.127"/><path d="m102.01 67.06l4-.063"/><path d="m137.9 82.89l3.734-.047"/></g><path d="m50.694 170.43c0 0-.587.015-.713.198-.099.145.056.583.056.583 4.549 3.864 9.321 6.336 14.969 8.03 11.85 4.251 24.635 6.195 37.19 5.875 11.61-.091 24.86-1.629 35.813-3.281 2.255-.34 4.372-.908 6.344-1.438 3.612-.97 6.671-2.324 9.03-4.156 0 0 .052-.531-.063-.684-.115-.153-.71-.035-.71-.035-2.221 1.727-4.993 2.963-8.504 3.906-1.973.53-4.04 1.108-6.219 1.438-10.923 1.648-24.19 3.16-35.719 3.25-12.432.317-25.12-1.637-36.844-5.844-5.541-1.663-10.178-4.066-14.625-7.844"/><path d="m50.41 163.62c0 0-.43.068-.553.211-.133.155-.072.571-.072.571 1.907 1.518 3.978 3.02 6.25 4.125 6.385 2.729 12.916 5.375 19.75 6.938.001.002.022-.002.031 0 7.892 2.229 16.09 2.408 24.16 2.5h.031c14.832-.55 36.01-1.108 52.06-9 0 0 .103-.454.013-.616-.081-.148-.482-.29-.482-.29-15.756 7.746-36.784 8.388-51.625 8.938v-.031c-8.07-.092-16.17-.278-23.906-2.469h-.031c-6.731-1.536-13.189-4.152-19.563-6.875-.008-.004-.023.004-.031 0-2.153-1.047-4.153-2.505-6.03-4"/><path d="m50.29 155.47c0 0-.394.081-.509.24-.121.167-.053.573-.053.573 14.11 9.965 31.551 13.967 48.5 14.875h.031.031c15.14-.354 39.08-1.062 52.44-8.094.402-.211.805-.432 1.188-.656 0 0 .214-.424.134-.586-.093-.188-.634-.289-.634-.289-.368.215-.768.452-1.156.656-12.901 6.769-36.747 7.496-51.969 7.969-.021-.0001-.042.0001-.063 0-16.809-.908-34.06-4.886-47.938-14.688"/><path d="m49.26 147.25c0 0-.436.09-.51.185-.114.148-.115.627-.115.627.018.014.044.017.063.031 8.41 6.576 18.494 10.541 28.688 13.219 9.728 2.849 19.882 4.02 30 3.688.001 0 .021 0 .031 0 9.321.216 18.415-1.732 27.469-3.219 5.994-.744 11.486-2.421 16.594-5.625 0 0 .033-.443-.083-.571-.126-.138-.604-.147-.604-.147-6.44 3.735-11.249 4.536-16.06 5.344-9.1 1.494-18.17 3.436-27.344 3.219-10.03.329-20.12-.836-29.75-3.656-10.115-2.657-20.05-6.575-28.313-13.03-.018-.014-.045-.049-.063-.063"/><path d="m34.633 120.69c0 0-.469-.092-.617.055-.154.154-.071.663-.071.663.813.756 1.629 1.52 2.438 2.281 6.495 6.913 13.98 12.849 22.22 17.563 13.504 8.545 29.6 11.938 45.38 12.12 16.932.361 33.472-3.254 49.969-6.094l-.156-1c-16.526 2.845-33.04 6.452-49.813 6.094-15.64-.185-31.574-3.552-44.875-11.969v-.031c-8.157-4.667-15.6-10.527-22.03-17.375v-.031c-.81-.763-1.623-1.524-2.438-2.281"/></g><path d="m155.44 127.93c-2.111 0-2.5.467-2.5 3 0 2.533.389 3 2.5 3 2.111 0 2.5-.467 2.5-3 0-2.533-.389-3-2.5-3"/><path d="m134.44 131.49c-2.111 0-2.5.467-2.5 3 0 2.533.389 3 2.5 3 2.111 0 2.5-.467 2.5-3 0-2.533-.389-3-2.5-3"/><path d="m87.57 154.51c-2.175-.017-2.194.006-2.208 2.39-.012 1.915-.008 1.985 2.267 1.985 2.15 0 2.136-.075 2.141-2.093.005-2.238-.063-2.282-2.2-2.282"/><path d="m103.17 156.01c-2.191-.018-2.209.006-2.224 2.441-.012 1.956-.008 2.027 2.283 2.027 2.165 0 2.151-.076 2.156-2.137.005-2.286-.063-2.331-2.216-2.331"/><path d="m117.1 155.99c-2.113-.048-2.131-.026-2.179 2.306-.039 1.873-.036 1.942 2.174 1.974 2.088.031 2.076-.042 2.109-2.02.037-2.19-.028-2.233-2.105-2.264"/><path d="m130.67 154.49c-2.206-.018-2.225.006-2.239 2.441-.012 1.956-.008 2.027 2.299 2.027 2.18 0 2.166-.076 2.171-2.137.006-2.286-.064-2.331-2.231-2.331"/><path d="m145.21 151.52c-2.129-.016-2.147.005-2.161 2.168-.011 1.737-.008 2.02 2.219 2.02 2.104 0 2.091-.289 2.095-2.119.005-2.031-.061-2.07-2.153-2.07"/><g fill="none" fill-rule="evenodd" stroke="#000"><path d="m165.19 139.59c-2.631 12.882-1.241 26.854-1.252 39.897"/><path d="m98.27 144.83c.596-.016 16.464.078 21.435.037.611-.005.919-.838 1.317-1.379 2.049-2.786 3.897-7.3 4.499-13.778.961-2.689 3.43-5.778 5.976-5.807 2.266-.026 18.297-.077 20.07-.072 7.232-.455 11.746-5.829 12.925-8.03 1.492-2.785 11.78-2.832 9.743 4.803-4.922 8.331-7.426 11.851-9.04 19.422"/></g><path d="m144.9 130.57c-2.111 0-2.5.467-2.5 3 0 2.533.389 3 2.5 3 2.111 0 2.5-.467 2.5-3 0-2.533-.389-3-2.5-3"/><path d="m43.899 139.18c-.0001.134.264.709.264.842-.023 7.422.106 13.328.064 20.412-.32 6.354.02 12.633 3.344 18.09h.031c3.311 4.734 7.247 7.514 11.656 9.06 2.278.8 4.684 1.256 7.188 1.531v.031c2.133.298 4.309.434 6.5.281.268.0001.511.032.781.031v-.094c.395-.046.792-.017 1.188-.094.001 0 .021 0 .031 0 1.651.038 3.257.649 4.906 1.25 1.632.595 3.334 1.172 5.219 1.094.032-.0001.062.002.094 0 4.311.462 8.419-.907 12.313-2.219 3.12-.938 6.494-.876 9.469.438l.031.031h.031c5.377 1.725 11.448 2.879 17 .625.001-.003.022.003.031 0 3.664-1.214 7.606-1.756 11.313-.75h.031.031c1.496.215 2.976.562 4.5.844v-.063l.094.125 10.531-6.469.031-.031 9.03-4.125c.008.021-.011.044 0 .063.095.171.199.215.281.25.082.035.15.049.219.063.137.026.274.024.438.031.653.029 1.636-.023 2.469 0 .56.016 1.01-.261 1.25-.531.243-.27.15-.475.172-.492l-.391-.789c-.306.242-.401.481-.531.625-.13.144-.194.195-.469.188-.707-.02-1.366.0001-1.938 0-1.792-4.94-3.756-11.747-3.938-19.656-.119-5.2.515-11.654 3.129-17.433l-1.192.402c-2.701 5.97-3.058 11.8-2.938 17.06.175 7.62 1.991 14.07 3.719 19l-.344.156-9.438 4.313h-.031v.031l-10.188 6.25c-1.428-.269-2.869-.6-4.344-.813v.031c-3.96-1.058-8.07-.472-11.844.781h-.031c-5.475 1.85-10.848 1.271-16.16-.875-3.212-1.409-7.28-1.434-10.594-.438-3.92 1.321-7.656 2.835-11.719 2.375h-.063-.031c-1.68.09-3.258-.43-4.906-1.031-2.907-.873-4.956-1.222-7.438-1.156-4.77-.037-9.228-.391-13.188-1.781-4.23-1.485-7.956-4.09-11.156-8.656-.005-.008.005-.023 0-.031-3.148-5.19-3.503-11.225-3.188-17.5.064-6.671-.12-13.07.067-20.438-.049-.872-.784-1.966-1.395-.848" fill-rule="evenodd"/><path d="m59.64 145.54c-2.222-.017-2.24.006-2.255 2.322-.012 1.861-.009 1.928 2.315 1.928 2.196 0 2.181-.072 2.186-2.033.006-2.175-.064-2.217-2.247-2.217"/><path d="m72.78 151.55c-2.314-.016-2.333.006-2.349 2.253-.012 1.806-.009 2.309 2.412 2.309 2.287 0 2.272-.508 2.277-2.411.006-2.111-.067-2.152-2.34-2.152"/><g fill-rule="evenodd"><g fill="none" stroke="#000"><path d="m44.561 139.31c-12.164-8.61-24.709-34.499-10.759-26.967 8.627 6.247 16.929 16.394 22.315 19.51 11.793 8.148 26.833 11.799 41.13 12.89.355.027.731.064 1.085.087"/><path d="m77.66 81.59c.49 2.503 1.081 5.071 2.719 8.313"/><path d="m132.85 85.967c.789-2.398 1.269-4.271 1.651-6.02"/></g><path d="m101.41 187.28c-4.737.211-12.471 6.124-19.26 3.221-6.732-2.758-13.997-3.458-21.481-.05-8.122 3.698-16.97-6.279-25.13-1.04-6.427 2.54-13.514 1.855-19.714-1.365.84 3.836 7.756 3.653 11.15 4.19 4.544.477 8.765-1.932 13.06-3.106 7.753-.51 15.376 6.628 22.928 1.664 5.473-2.856 11.408-2.449 17.838.211 6.43 2.66 13.06-.366 19.19-2.367 6.808-.89 13.02 5.281 19.943 3.375 6.69-2.723 14.11-4.287 20.821-.554 8.85 4.91 17.947-7.116 26.631-.984 4.918 3.039 15.808 4.639 17.665-1.875-6.281 6.075-14.304 2.246-20.827-.88-8.04-2.204-16.429 7.616-24.25 2.495-6.416-3.117-12.11-1.679-19.669.491-8.361 2.054-14.15-3.64-18.888-3.429" fill="#0066b3"/></g></svg>