<svg xmlns="http://www.w3.org/2000/svg" width="300" height="356" viewBox="0 0 84.666667 100.47111" fill-rule="evenodd"><path d="m62.58 47.986c.828 0 1.5.672 1.5 1.5v1.5c0 .828-.672 1.5-1.5 1.5h-1.5v-4.5h1.5m0 6c1.657 0 3-1.343 3-3v-1.5c0-1.657-1.343-3-3-3h-3v7.5h3m-6-7.5h1.5v7.5h-1.5v-7.5m-3 0h1.5v7.5h-1.5l-3-4.709v4.709h-1.5v-7.5h1.5l3 4.709v-4.709m-22.5 0h4.5v1.5h-3v1.5h3v1.5h-3v1.5h3v1.5h-4.5v-7.5m-6 0h1.5v6h3v1.5h-4.5v-7.5m15.75 6h1.5c1.242 0 2.25-1.01 2.25-2.25 0-1.242-1.026-2.246-2.25-2.25h-1.5v1.5h1.5c.414 0 .75.336.75.75 0 .414-.336.75-.75.75h-1.5v1.5m1.5-7.5c2.899 0 5.25 2.351 5.25 5.25 0 2.899-2.351 5.25-5.25 5.25-2.899 0-5.25-2.351-5.25-5.25 0-2.899 2.351-5.25 5.25-5.25m0 1.5c2.071 0 3.75 1.679 3.75 3.75 0 2.071-1.679 3.75-3.75 3.75-2.071 0-3.75-1.679-3.75-3.75 0-2.071 1.679-3.75 3.75-3.75" fill="#a90000"/><g transform="matrix(1.8141 0 0 1.81684-148.15-219.57)"><path d="m128.34 152.81c0 12.886-10.45 23.336-23.336 23.336-12.886 0-23.336-10.45-23.336-23.336v-31.964h46.671v31.964"/><path d="m128.02 152.81v-31.65h-46.04v31.65c0 12.712 10.309 23.02 23.02 23.02 12.712 0 23.02-10.31 23.02-23.02" fill="#3c82c2"/><g fill-rule="nonzero"><path d="m112.27 161.46v13.199c-2.285.76-4.728 1.173-7.268 1.173-2.54 0-4.983-.413-7.268-1.173v-13.198l-15.754-9.1v-16.785l23.02 13.292 23.02-13.292v16.784l-15.754 9.1"/><path d="m112.02 174.75v-13.424l16-9.24v-16.209l-23.02 13.292-23.02-13.292v16.209l16 9.24v13.424c2.213.708 4.571 1.091 7.02 1.091 2.448 0 4.805-.383 7.02-1.091" fill="#f8e73d"/><path d="m102.91 135.76c-2.638.019-6.05.615-7.963 2.685l-.0001.0001-.002.0001c-.033.036-.085.051-.133.034-.065-.022-.1-.093-.077-.158.515-1.486.739-3.083.739-4.651v-.004c0-1.57-.221-3.161-.737-4.649-.019-.047-.008-.102.031-.139.051-.047.13-.043.176.007 1.888 2.051 5.319 2.67 7.966 2.689-.019-2.638-.616-6.05-2.685-7.963l-.002-.002c-.035-.033-.051-.085-.034-.133.022-.065.093-.1.158-.077 1.436.498 2.975.723 4.491.738 1.624.015 3.273-.203 4.812-.736.047-.019.103-.008.139.031.047.051.043.13-.007.176-2.037 1.874-2.67 5.384-2.689 7.967 2.638-.019 6.05-.616 7.963-2.686l.002-.002c.033-.035.085-.051.133-.034.065.022.1.093.077.158-.515 1.486-.739 3.083-.739 4.651v.004c0 1.571.222 3.163.738 4.652v.0001.002c.015.046.003.097-.033.132-.051.047-.13.043-.176-.007-1.853-2.01-5.36-2.67-7.966-2.689.019 2.636.615 6.06 2.685 7.964l.002.002c.035.033.051.085.034.133-.022.065-.093.1-.158.077-1.486-.515-3.083-.739-4.651-.739h-.004c-1.569 0-3.158.221-4.643.735-.048.022-.106.011-.144-.029-.047-.051-.043-.13.007-.176 2.037-1.875 2.67-5.383 2.689-7.966"/><path d="m103.16 135.63v.002.001c-.002 2.605-.585 5.855-2.409 7.897 1.376-.411 2.815-.597 4.251-.597h.004c1.431.0001 2.874.184 4.247.597-1.845-2.062-2.41-5.253-2.41-7.909 0-.069.056-.125.125-.125h.002.007c2.602.0001 5.886.611 7.9 2.41-.404-1.381-.596-2.812-.596-4.251v-.004c.0001-1.43.184-2.875.597-4.247-2.063 1.845-5.251 2.41-7.909 2.41-.069 0-.124-.056-.124-.125v-.002-.0001c0-2.608.583-5.862 2.409-7.906-1.433.422-2.923.609-4.417.595-1.377-.014-2.764-.198-4.085-.595 1.845 2.063 2.41 5.251 2.41 7.909 0 .069-.056.125-.125.125h-.002-.001c-2.651-.002-5.847-.578-7.897-2.409.406 1.38.596 2.813.596 4.251v.004c-.0001 1.43-.184 2.875-.597 4.248 2.064-1.845 5.25-2.411 7.909-2.411.069 0 .125.056.125.125" fill="#fff"/></g><path d="m99.88 152.5c.269 1.229 1.101 1.818 2.164 2.496 2.658 1.696 4.755 1.472 7.208-.452 1.433-1.124 2.938-1.862 4.587-1.83l.17-.355c.978.148 1.089 1.731.063 2.02l-.181-.332c-1.597.072-2.838 1.558-3.961 2.657-3.544 3.468-7.359 3.7-10.86 1.286-.817-.564-1.673-1.282-2.741-1.214-1.396.337-2.156-.605-1.859-1.981.327-1.513 1.757-3.137 3.241-3.632.68-.226 1.306-.184 1.72.18h.0001l.002.002c.12.107.216.235.288.381.117.239.161.506.16.77"/><g fill-rule="nonzero"><path d="m112.95 153.99c.276-.1.564-.164.865-.184-.078-.273-.092-.561-.041-.841-.324-.003-.642.026-.955.082-.022.136-.027.274-.014.411.017.183.066.363.145.531m-2.894 2.236l.14-.141.183-.185c-.094-.338-.275-.64-.516-.881-.122-.122-.26-.229-.411-.317l-.052.041c-.108.085-.216.166-.323.244.155.094.297.207.424.334.25.25.442.559.553.905m.522-.524c.108-.107.217-.213.328-.318-.097-.322-.273-.61-.505-.842-.105-.105-.222-.199-.347-.278-.13.089-.26.182-.388.278.135.088.261.189.375.303.239.239.425.532.538.858m-11.718 1.845c.142.101.284.201.429.299 1.215-.472 2.079-1.606 2.224-2.892-.149-.099-.292-.199-.428-.301-.193 1.269-1.043 2.38-2.225 2.894m.68.464c.157.1.314.194.472.283 1.197-.494 2.037-1.632 2.162-2.919-.089-.053-.178-.108-.269-.166l-.161-.104c-.02.138-.048.274-.083.407-.287 1.097-1.061 2.028-2.122 2.499m-4.832-3.158c-.293 1.358.507 2.065 1.818 1.609 1.371-.477 2.714-1.989 3.034-3.404.267-1.177-.305-2.053-1.606-1.706-1.477.393-2.931 2.037-3.247 3.502" fill="#fff"/><path d="m97.65 152.04c1.034-.467 1.658.081 1.32 1.168-.32 1.028-1.35 2.191-2.331 2.635-.47.212-1.142.288-1.353-.256-.037-.096-.057-.204-.06-.322-.033-1.206 1.357-2.743 2.425-3.225"/><path d="m98.73 153.13c.274-.879-.144-1.243-.979-.866-.934.422-1.938 1.554-2.214 2.542-.205.732.149 1.189.998.805.954-.431 1.884-1.481 2.195-2.481m1.565 5.312c2.119 1.102 4.328 1.216 6.494.208.498-.231.993-.521 1.485-.871.495-.352.986-.765 1.474-1.241l.008-.008.105-.103c-.09-.358-.276-.678-.529-.93-.138-.138-.297-.257-.471-.351-1.063.74-2.077 1.157-3.117 1.232-1.067.077-2.15-.206-3.328-.868-.076.592-.291 1.151-.617 1.635-.371.55-.887 1-1.504 1.297m-.486-5.334c-.156.689-.558 1.458-1.17 2.151l-.0001.002v.0001c-.526.594-1.125 1.04-1.703 1.305.624.115 1.172.45 1.69.809 1.224-.47 2.095-1.609 2.24-2.902-.453-.372-.831-.818-1.054-1.365m11.304 2.088c.496-.451 1.027-.858 1.612-1.115-.088-.191-.141-.394-.161-.6-.012-.127-.011-.255.003-.381-.328.075-.651.181-.969.313-.446.185-.883.422-1.313.7.107.075.207.16.299.252.233.233.415.516.528.832m3.101-1.109c.237-.159.346-.489.33-.767-.015-.252-.152-.533-.379-.661-.121.216-.171.428-.165.676.006.26.073.531.213.752" fill="#383431"/></g><path d="m109.05 153.59c.164 0 .296.133.296.296 0 .164-.133.297-.296.297-.164 0-.296-.133-.296-.297 0-.164.133-.296.296-.296m0-.529c.456 0 .826.37.826.826 0 .456-.37.826-.826.826-.456 0-.826-.37-.826-.826 0-.456.37-.826.826-.826"/><path d="m109.05 153.42c.261 0 .474.212.474.474 0 .262-.212.474-.474.474-.261 0-.474-.212-.474-.474 0-.261.212-.474.474-.474m0-.175c.358 0 .649.291.649.649 0 .358-.291.649-.649.649-.358 0-.649-.291-.649-.649 0-.358.291-.649.649-.649" fill="#fff"/><path d="m102.1 153.93c.164 0 .296.133.296.296 0 .164-.133.297-.296.297-.164 0-.296-.133-.296-.297 0-.164.133-.296.296-.296m0-.529c.456 0 .826.37.826.826 0 .456-.37.826-.826.826-.456 0-.826-.37-.826-.826 0-.456.37-.826.826-.826"/><path d="m102.1 153.75c.261 0 .474.212.474.474 0 .262-.212.474-.474.474-.261 0-.474-.212-.474-.474 0-.261.212-.474.474-.474m0-.175c.358 0 .649.291.649.649 0 .358-.291.649-.649.649-.358 0-.649-.291-.649-.649 0-.358.291-.649.649-.649" fill="#fff"/><g fill-rule="nonzero"><path d="m107.82 154.6h-.003c-.432-.0001-.865-.061-1.287-.155-.316-.071-.637-.166-.942-.286-.693.302-1.463.51-2.216.549-.434.023-.876.013-1.309-.008l.045-.952c.41.02.828.032 1.239.008.388-.023.773-.101 1.145-.208-.084-.066-.165-.136-.241-.211-.54-.534-.746-1.224-.555-1.919.015-.053.032-.106.051-.157.281-.76 1.026-1.266 1.816-1.266h.002c.764-.0001 1.484.47 1.786 1.185.022.052.041.104.058.155.261.804-.082 1.633-.722 2.167.37.087.753.142 1.133.142h.018c.382 0 .72-.084 1.076-.216l.329.896c-.462.171-.932.275-1.423.275m-2.244-1.489c.558-.311 1.204-.848.895-1.564-.155-.36-.51-.596-.906-.595h-.003c-.42 0-.803.275-.936.676-.223.675.358 1.186.949 1.484"/><path d="m104.38 151.59c.156-.524.655-.883 1.183-.882.489-.0001.941.294 1.136.748.278.644-.061 1.193-.527 1.567-.356.286-.792.493-1.213.645l.003.002c-.519.173-1.045.314-1.596.344-.031.002-.063.003-.095.004h-.0001c-.309.007-.618.011-.926-.0001l-.021.454c.358.013.722.018 1.08-.005.921-.059 2.272-.436 3.01-1.077.632-.547 1.049-1.279.703-2.102-.262-.621-.884-1.03-1.555-1.031h-.0001c-.699 0-1.338.437-1.584 1.101-.017.044-.032.09-.045.137-.169.613.023 1.214.49 1.675.062.061.126.118.191.171.055.044.111.086.168.126.178-.061.355-.131.524-.21-.626-.363-1.152-.915-.929-1.664m4.541 2.592l-.157-.427c-.299.099-.612.145-.927.146h-.019c-.472 0-.927-.085-1.379-.2-.162.116-.335.223-.517.32.216.074.437.137.661.187.403.09.819.149 1.233.149h.003c.372 0 .751-.056 1.102-.175" fill="#963"/></g></g></svg>