<svg xmlns="http://www.w3.org/2000/svg" fill-rule="evenodd" height="360" width="300" viewBox="0 0 84.666667 101.6"><g transform="matrix(.73096 0 0 .73236-34.418-57.955)"><path d="m105 79.14c20.19 0 38.469 3.487 51.712 9.123 2.179.927 4.222 1.914 6.118 2.954v28.37c-4.311 3.314-7.091 8.521-7.091 14.378 0 5.856 2.78 11.06 7.091 14.377 0 11.752 1.16 24.14-5.122 34.76-6.342 10.716-18.485 15.961-29.423 20.686-8.34 3.602-17.192 7.02-23.285 14.08-6.093-7.06-14.945-10.481-23.285-14.08-10.938-4.724-23.08-9.969-29.423-20.686-6.282-10.615-5.122-23.01-5.122-34.76 4.311-3.314 7.091-8.521 7.091-14.377 0-5.856-2.78-11.06-7.091-14.378v-28.37c1.895-1.04 3.939-2.027 6.117-2.954 13.243-5.634 31.526-9.121 51.712-9.121z"/><path d="m105 80.03c-18.703 0-40.07 2.647-56.929 11.714v27.403c4.467 3.604 7.087 9.05 7.087 14.811 0 5.745-2.651 11.232-7.088 14.811-.037 11.413-1.092 23.582 4.996 33.869 6.252 10.565 18.249 15.671 29 20.316 8.157 3.523 16.746 6.862 22.929 13.562 6.183-6.7 14.772-10.04 22.929-13.562 10.756-4.645 22.752-9.752 29.01-20.316 6.088-10.286 5.03-22.456 4.996-33.869-4.437-3.578-7.088-9.07-7.088-14.811 0-5.759 2.62-11.207 7.087-14.811v-27.403c-16.87-9.07-38.24-11.715-56.94-11.715z" fill-rule="nonzero" fill="#ffe600"/><g fill="#1e85c7"><path d="m117.91 207.42c3.281-1.619 6.684-3.03 10.02-4.465 10.756-4.645 22.752-9.752 29.01-20.316 3.518-5.945 4.651-12.518 4.973-19.212l-43.98 43.99z"/><path d="m155.6 139.25l-50.603 50.603v-16.299l56.929-56.929v2.521c-4.467 3.604-7.087 9.05-7.087 14.811 0 1.808.263 3.589.761 5.294"/><path d="m105 143.08l53.2-53.2c-3.78-1.765-7.747-3.243-11.829-4.47l-41.37 41.37v16.299"/><path d="m105 80.03c5.057 0 10.31.194 15.615.656l-15.615 15.615v-16.271"/></g><g fill="#df212c"><path d="m105 189.15v15.592l56.41-56.41c-2.917-2.533-4.994-5.917-5.959-9.633l-50.45 50.45"/><path d="m105 142.37v15.592l56.929-56.929v-9.29c-1.375-.74-2.78-1.436-4.211-2.092l-52.72 52.722z"/><path d="m105 95.6l14.963-14.963c4.589.381 9.221.96 13.806 1.787l-28.769 28.769v-15.592"/></g><path fill="#231f20" d="m105.22 211.92c-1.288-2.025-2.479-2.987-4.01-3.478-1.37-.438-2.829-.473-4.247-.553.25-1.131.949-2.724.571-3.908-.421-1.312-2.349-1.125-3.415-1.116 1.686-.866 3.074-2.048 3.482-4.082.244-1.244.004-2.633-.98-3.469-.749-.638-1.902-.943-3.489-.649-2.059.384-2.886 2.315-2.522 4.289.248 1.323.918 2.44 1.718 3.471-1.78-.124-4.658-.191-5.647-2.169-.643-1.282-.467-3.209-.061-6.084-.805.608-1.303 1.148-1.601 1.779-.479 1.016-.423 2.207-.423 3.31-.689-1.295-1.352-2.641-1.179-4.179.275-2.442 2.599-4.423 4.127-6.01-1.313-.721-2.136-1.196-2.735-1.85-.897-.982-1.304-2.301-1.538-3.622 1.257 1.247 2.659 2.341 4.409 2.701 1.214.251 2.457.062 3.483-.959.978-.974 1.204-2.363.784-3.699-.222-.708-.627-1.358-1.184-1.816-1.395-1.144-2.824-.455-2.702 1.458.071 1.15.714 2.037 1.436 2.845-1.185.026-2.407-.269-3.351-1.096-1.932-1.693-1-4.653.471-6.319.77-.872 1.656-1.328 2.443-1.733 2.499-1.283 2.277-2.786 1.327-5.435 1.434.412 3.03.766 4.511.371 1-.269 1.694-.841 2.253-1.542 1.239-1.551 1.434-3.639 1.08-5-.265-.987-.954-1.881-1.849-.845-.793.918-.618 1.64-.379 2.622.094.4.179.8.26 1.203-.424-.434-.846-.912-1.438-1.086-.32-.096-.644-.086-.966.034-.485 3.18-3.694 2.793-6.467 2.458-.394-.046-.781-.094-1.127-.124-1.567-.066-2.742-.057-3.823.219-1 .255-1.938.742-3.05 1.608l.732.164.011.002.976.365.58 1.273.877.547.016.009.011.012c1.06 1.057 1.567 1.734 1.599 2.476.056 1.226-1.068 2.496-1.719 3.471.245-.976.659-2.147.14-3.095-.297-.54-.876-.966-1.737-1.433l-.107.046c-1.318.601-1.648.75-2.86-.139-1.034.896-1.5.605-2.464-.176-.243.631-.683 1.239-1.413 1.182-.057.836-.12 1.289-.351 1.647-.242.376-.645.613-1.406 1.045-.878 1.184-1.125 2.574-1.382 4.01-.107.578-.218 1.155-.333 1.731-.216-1.22-.479-2.453-.496-3.697-.001-.886.111-1.77.455-2.822-.141-.248-.236-.503-.267-.77-.022-.212-.002-.43.071-.652l-.494.082-.519-.519c-.419.439-.836.831-1.302 1.022-.525.216-1.093.182-1.76-.308l-.642-.321c-.877.004-1.456.148-1.957.449-.786.466-1.398 1.265-2.02 1.945.33-1.076.641-2.214 1.412-3.05.551-.599 1.297-1 2.408-1.234.815-.809 1.333-1.212 1.948-1.371.403-.105.837-.102 1.42-.043-.386-.25-.662-.643-.693-1.13l-1.2.2-.04.007-.038-.014-.917-.342-.007-.004-.013-.007c-.994-.542-1.662-.822-2.321-.841-.975-.026-1.898.506-2.756.93.164-.328.324-.655.523-.963.591-.891 1.411-1.535 2.312-1.84.92-.317 1.916-.271 2.795.164.11.054.217.114.324.182.347-.194.58-.299.829-.349.269-.054.543-.039.992-.002 1.067.089 1.829.15 2.368-.03.893-.296 1.082-1.286 1.198-2.125.312 1.108.993 1.487 2.096 1.724 1.483.323 3.52.189 5.55-.253 2.031-.442 4.051-1.194 5.491-2.109 1.076-.683 1.823-1.449 1.991-2.237.037-.171-.25-.282-.682-.374-1.087-.235-2.337-.196-3.277-.866.583-2 1.129-4.122 1.907-6.121.656-1.687 1.479-3.257 2.616-4.647 1.64.282 3.665-.947 4.807-2.063.284-.28.507-.553.639-.795.26-.482.104-.76-.428-.795-.52-.035-1.111.533-1.649 1.055-.343.337-.678.63-1.084.877l-.062-3.205c-.061-1.239-.208-2.025-.4-2.384-.123-.228-.225-.208-.372-.009-.265.355-.552 1.162-.813 2.383-.489 2.294-1.802 3.874-3.512 5.04-1.921 1.313-4.162 2.042-6.343 2.715.757-.911 1.486-1.84 2.07-2.886.458-.818.832-1.69 1.248-2.801.351-.935.53-1.643.517-2.01-.003-.188-.028-.19-.17-.085-.23.168-.566.561-1.016 1.223-.814 1.196-1.501 2.336-2.704 3.239-2.547 1.92-5.578 1.694-8.435.825.967-.482 1.994-.934 2.838-1.634.614-.508 1.12-1.15 1.802-2.243.592-.943 1.546-2.461-.204-1.397-1.621.979-3.302 1.981-5.177 2.294-3.904.651-7.346-1.454-9.931-3.957.498.004.996.016 1.494.023 3.186.064 5.659.114 8.29-1.902.835-.642 1.585-1.367 1.895-1.856.335-.513-.073-.383-.46-.264h-.002l-.011.004c-.725.224-1.34.744-2.086.907-5.562 1.303-8.858-1.212-10.847-6.582.948.34 1.904.613 2.896.783 2.509.43 5.693.423 8.732-.599.421-.144.761-.305.913-.454.041-.04.063-.073.063-.093-.002-.014-.027-.036-.079-.066v-.002c-.194-.107-.609-.193-1.327-.234-3.275-.179-6.904-1.646-8.587-4.793-1.02-1.912-1.01-4.069-.802-6.18 1.511 2.101 3.752 3.236 6.223 3.64.16.026 1.087.118 1.281-.039-.147-.24-.51-.399-.741-.508-2.204-1.041-4.125-2.5-5.219-4.841-1.232-2.627-1.47-5.69-.938-8.531 1.68 2.621 3.364 5.557 6.547 6.355.602.152.996.198 1.205.153.162-.035.1-.135.029-.253-.195-.316-.71-.79-1.47-1.371-2.561-1.949-3.782-4.369-4.246-7.05-.519-2.981-.179-6.271.346-9.03 2.102 4.338 3.956 8.21 8.441 10.357.743.195 1.207.23 1.458.164.282-.074.178-.327.071-.524-.261-.48-.9-1.109-1.5-1.585l-.032-.023h-.002c-1.372-1.092-2.504-2.48-3.223-4.125-1.877-4.303-.551-9.02 1.671-12.828.192.635.383 1.27.571 1.906 1.468 4.973 2.169 7.344 7.613 9.505 1.98.788 4.239 1.513 6.05 2.733 2.443 1.632 4.652 4.898 3.605 8.05-.399 1.2-1.246 2.324-2.477 3.49-1.38 1.308-3.098 3.137-3.415 5.143-.492 3.13 2.448 3.535 4.532 3.15 1.109-1.858 2.027-3.471 3.727-4.827 1.896.363 3.759-.688 4.869-2.244 1.439-2.031 1.108-4.177-1.592-4.708.902-.881 1.582-1.903 1.685-3.228.126-1.601-.664-3.172-2.01-3.954-.954-.552-1.96-.587-3.01-.382.218-.874.641-2.292-.07-3.064-.484-.524-1.454-.749-2.958-.984l-.043-.007-.032-.027c-.965-.826-1.653-1.31-2.412-1.57-.978-.335-2.061-.276-3.071-.212.194-.777.453-1.508 1.091-2.01l-.532-.048c-1.704.508-3.465.813-5 .533-2.041-.371-3.184-1.628-3.92-3.576 1.341 1.01 2.723 1.897 4.452 1.756 1.228-.098 2.482-.667 3.963-1.53l-.257-.226-.018-.029c-.633-1.03-1.377-1.476-2.199-1.515-1.102-.054-2.145.547-3.067 1.102.306-1.693.795-3.394 2.128-4.53 1.049-.896 2.491-1.337 4.423-1.429l.749-.72v-.002c1.988-1.86 3.891-2.774 5.836-2.824 1.945-.052 3.918.759 6.05 2.355l.006.002c1.359 1.1 2.385 1.826 3.514 2.207 1.448.493 2.961.341 4.439.123-.425.908-.895 1.738-1.603 2.442-.523.524-1.134.963-1.895 1.474 1.134.592 2.405.347 3.698.098.601-.115 1.201-.21 1.807-.294-.774.499-1.466.974-1.939 1.829-.317.574-.521 1.25-.622 2.01l3.086 2.396v111.2z"/><path fill="#fff" d="m82.53 98.79c.432-.234.944-.396 1.555-.578l-2.726-1.836c-1.572.925-2.899 1.54-4.214 1.646-1.205.094-2.39-.234-3.73-1.138.768 1.419 1.909 2.118 3.227 2.357 1.49.273 3.218-.03 4.891-.531l.025-.007h.031l.942.085v.002m5.376 4.02c-.172-2.505-2.01-7.109-4.427-7.98l-.752-.31c.15-.377.333-.712.516-1.054.512-.962.623-.916-.141-1.618-.57-.52-.938-1.029-1.12-1.924-1.8.104-3.141.521-4.115 1.351-.944.806-1.553 2.01-1.904 3.703.946-.528 1.839-.845 2.663-.806.915.046 1.734.522 2.425 1.629l3.735 2.519-.306.093-.102.028c-1.558.456-2.491.731-2.95 2.296 1.193-.059 2.02-.007 2.774.251.791.269 1.501.765 2.479 1.597.453.074.862.143 1.225.223m5.634 62.54l-.231-.116-.557.041-.996.239-.836.039-.32-.439c-.876-2.225-1.022-2.592-3.505-1.549l-.256.082c-.356.385-.822.754-1.363 1.098-1.47.93-3.524 1.699-5.589 2.148-2.069.451-4.151.587-5.677.255-.831-.18-1.502-.501-1.923-.982-.278.786-.654 1.187-1.211 1.373-.598.2-1.384.136-2.488.046-.422-.036-.675-.048-.908-.002-.231.046-.456.155-.816.36l-.031.018c-.313.806-.535 1.241-.113 2.023l.197.075 1.336-.221.184-.032-.009.187c-.018.383.122.678.369.906.267.241.1.346.57.478l.027.228c-1.153-.166-1.356-.121-1.92.021-.394.104-.754.327-1.213.731.486.767.516 1.214.194 2.057l.02.292c.544.386 1 .412 1.419.241.451-.185.874-.603 1.305-1.061l.11-.112.109.109.518.517.611-.102.295-.049-.136.264c-.134.262-.175.512-.15.75.023.201.095.399.199.595.627-.626 1.212-.091 1.603.597.573-.33.894-.537 1.073-.816.206-.319.256-.774.313-1.66l.013-.169.167.03c.288.052.535-.025.745-.212.225-.2.415-.526.575-.95l.073-.192.426.332c.867.685 1.093.859 2.067.027l.091-.079.099.072c1.15.863 1.431.734 2.65.18l.174-.081.07-.032.02.011.145-.601.313-.531.215-.242-.131-.082-.02-.041-.546-1.2-.847-.319-1.023-.225-.061-.266c1.258-1.02 2.291-1.578 3.412-1.861 1.115-.285 2.314-.298 3.907-.232l.009.002c.38.036.757.082 1.143.126 2.6.315 5.611.677 6.112-2.096m-6.93-72.01c-.124-.186-.243-.426-.336-.694-.104-.297-.158-.57-.16-.78-.697.326-1.214.82-1.182 1.729.578-.104 1.146-.168 1.678-.255m-.004-1.674c.168.192.346.508.476.873.086.25.14.483.156.677 1.27-.306 2.206-.941 2.332-2.954-.263.847-1.744.978-2.964 1.403"/></g></svg>