<svg xmlns="http://www.w3.org/2000/svg" viewBox="0 0 300 360"><g transform="translate(-225-352.36)" fill-rule="evenodd"><path d="m446.75 524.39c2.935 0 5.315 2.38 5.315 5.315v5.314c0 2.935-2.38 5.315-5.315 5.315h-5.315v-15.944h5.315m0 21.259c5.87 0 10.63-4.76 10.63-10.63v-5.314c0-5.87-4.76-10.63-10.63-10.63h-10.63v26.574h10.63m-21.26-26.574h5.315v26.574h-5.315v-26.574m-10.63 0h5.315v26.574h-5.315l-10.63-16.684v16.684h-5.315v-26.574h5.315l10.63 16.684v-16.684m-79.72 0h15.945v5.315h-10.63v5.315h10.63v5.315h-10.63v5.315h10.63v5.315h-15.945v-26.574m-21.26-.0001h5.315v21.26h10.63v5.315h-15.945v-26.575m55.808 21.26h5.314c4.402 0 7.972-3.57 7.972-7.972 0-4.402-3.637-7.957-7.972-7.972h-5.314v5.315h5.314c1.467 0 2.657 1.19 2.657 2.657 0 1.467-1.19 2.657-2.657 2.657h-5.314v5.315m5.314-26.575c10.272 0 18.602 8.33 18.602 18.602 0 10.272-8.33 18.602-18.602 18.602-10.272 0-18.602-8.33-18.602-18.602 0-10.272 8.33-18.602 18.602-18.602m0 5.315c7.337 0 13.287 5.95 13.287 13.287 0 7.337-5.95 13.287-13.287 13.287-7.337 0-13.287-5.95-13.287-13.287 0-7.337 5.95-13.287 13.287-13.287" fill="#a90000"/><g transform="matrix(4.68485 0 0 4.68563-116.91-202.94)"><g fill-rule="nonzero"><path d="m72.982 118.51v38.649c-.0001 17.459 15.465 33.06 32.02 38.18 16.552-5.124 32.02-20.723 32.02-38.18v-38.649h-64.03"/><path d="m73.5 119.03v38.13h.0001-.0001v.172c.017 2.797.439 5.55 1.204 8.22.636 2.22 1.509 4.38 2.583 6.457 5.52 10.676 16.346 19.224 27.715 22.788 2.238-.702 4.456-1.598 6.619-2.666 2.209-1.091 4.361-2.364 6.417-3.796 10.523-7.326 18.435-18.75 18.463-31.11v-.065-38.13h-62.999" fill="#df212c"/><path d="m105 194.8c2.238-.702 4.456-1.598 6.619-2.666 2.209-1.091 4.361-2.364 6.417-3.796 10.523-7.326 18.435-18.75 18.463-31.11v-.065-38.13h-31.499v75.77" fill="#3c82c2"/><path d="m120.18 137.6h.003c1.983.0001 3.78.169 5.081.44 1.19.248 1.981.599 2.156 1.01.845.858 1.595 2.143 2.184 3.716.117.313.228.638.332.972.637 2.053 1.016 4.501 1.017 7.094v.002c0 3.734-.717 7.07-1.849 9.459-.221.466-.458.896-.708 1.285-.054.084-.793 1.046-.793 1.046l-.017.019c-2.288 1.144-4.88 1.495-7.407 1.495-2.459 0-5.223-.186-7.394-1.489l-.016-.009c-.981-1.081-1.641-2.463-2.121-3.827-.108-.308-.211-.628-.307-.959-.59-2.024-.935-4.425-.935-7.02v-.002c0-3.734.787-7.17 1.999-9.561.237-.468.49-.896.756-1.277.247-.355.507-.672.777-.946.175-.407.967-.757 2.158-1.01 1.3-.271 3.095-.439 5.076-.44h.007"/><g fill="#fff000"><path d="m112.94 139.4c-.533.588-.96 1.273-1.317 1.979-1.195 2.359-1.972 5.753-1.972 9.449v.002c0 2.568.342 4.946.925 6.948.483 1.658 1.182 3.364 2.348 4.66.51.303 1.063.543 1.641.734-.41-.625-.718-1.322-.975-2.02-.883-2.403-1.436-5.846-1.436-9.668v-.003c.0001-2.646.266-5.111.722-7.173.305-1.378.707-2.863 1.42-4.115-.734-.22-1.217-.491-1.357-.794m2.01 23.892c.558.161 1.136.28 1.719.367-.313-.7-.518-1.457-.69-2.201-.555-2.403-.903-5.845-.903-9.667v-.005c.0001-2.647.168-5.112.454-7.173.183-1.319.401-2.727.852-4.01-.618-.08-1.237-.183-1.839-.343-.721 1.241-1.121 2.727-1.424 4.099-.453 2.046-.716 4.492-.716 7.119v.003c0 3.793.548 7.206 1.421 9.582.285.776.635 1.555 1.126 2.225m1.935.398c.647.088 1.298.138 1.933.165-.123-.739-.195-1.488-.258-2.233-.202-2.398-.329-5.834-.329-9.648v-.013c.0001-2.644.062-5.104.166-7.16.067-1.319.136-2.678.309-3.999-.738-.032-1.435-.088-2.071-.163-.458 1.277-.675 2.69-.858 4.01-.285 2.052-.452 4.505-.452 7.139v.005c0 3.804.345 7.227.896 9.611.177.766.389 1.543.722 2.258v.0001l-.059.028m2.188.174c.375.012.743.017 1.1.017.367 0 .734-.007 1.101-.024.263-1.55.345-3.139.425-4.708.105-2.059.166-4.521.167-7.163v-.013c0-3.799-.126-7.219-.326-9.609-.042-.508-.09-1.035-.154-1.553-.392.014-.794.021-1.204.022h-.007-.004c-.413-.0001-.818-.008-1.213-.022-.175 1.321-.244 2.682-.311 4-.105 2.056-.166 4.512-.166 7.148v.013c0 3.809.126 7.237.328 9.627.064.756.137 1.515.264 2.264m2.456-.019c.629-.035 1.255-.096 1.875-.19.332-.713.544-1.489.72-2.253.551-2.384.896-5.807.896-9.611v-.005c0-2.634-.166-5.087-.451-7.139-.183-1.32-.4-2.732-.859-4.01-.638.075-1.336.131-2.075.163.064.515.111 1.038.153 1.542.201 2.397.327 5.825.327 9.63v.013c-.0001 2.651-.062 5.117-.167 7.176-.079 1.561-.162 3.141-.419 4.683m2.171-.238c.596-.102 1.185-.236 1.763-.408.456-.648.788-1.391 1.06-2.131.873-2.377 1.421-5.789 1.421-9.582v-.003c0-2.628-.263-5.074-.715-7.119-.303-1.372-.704-2.858-1.425-4.099-.603.16-1.222.263-1.84.343.451 1.28.669 2.687.852 4.01.287 2.061.454 4.526.454 7.173v.005c0 3.821-.348 7.264-.903 9.667-.167.726-.368 1.464-.668 2.149m2.142-.528c.539-.178 1.068-.391 1.585-.645.598-.665 1.064-1.449 1.446-2.254 1.117-2.355 1.825-5.657 1.825-9.352v-.002c0-2.567-.375-4.989-1.01-7.02-.486-1.569-1.172-3.176-2.284-4.405-.141.303-.624.573-1.358.794.713 1.252 1.116 2.737 1.421 4.115.456 2.062.722 4.527.722 7.173v.003c0 3.822-.554 7.265-1.436 9.668-.243.663-.534 1.326-.915 1.926"/><path d="m120.18 137.85h-.004-.007c-.401 0-.794.007-1.178.02.017.123.036.246.055.368.366-.011.743-.017 1.129-.017.386 0 .763.005 1.129.016.019-.122.037-.244.053-.368-.384-.013-.777-.02-1.179-.02m3.265.522c.005.551-.858.931-.953-.078-.301-.02-.613-.035-.935-.047.019-.121.036-.243.053-.366.72.031 1.4.084 2.022.156-.045.114-.092.225-.141.341l-.046-.005m-4.649-.126c-.019-.122-.037-.244-.055-.366-.719.031-1.399.084-2.02.156.044.115.091.229.139.341.586-.06 1.238-.105 1.936-.131m-2.195.159c-.047-.112-.092-.224-.135-.338-.481.062-.925.135-1.322.218-.168.035-.327.071-.477.109.066.107.135.211.207.313.441-.119 1.029-.222 1.726-.302m-1.977.376c-.072-.105-.141-.212-.207-.321-.798.225-1.268.487-1.268.757v.002c0 .271.475.534 1.28.76.067-.109.136-.216.208-.32-.406-.133-.635-.282-.635-.44 0-.156.224-.304.622-.436m.266.951c-.072.102-.142.206-.208.313.145.036.3.072.463.106.399.083.846.157 1.331.219.043-.114.089-.227.136-.338-.693-.079-1.281-.181-1.722-.299m1.981.327c-.049.112-.096.226-.141.341.621.072 1.298.125 2.02.156.017-.123.036-.245.055-.367-.695-.026-1.346-.07-1.93-.13m2.181.138c-.02.122-.039.245-.056.368.383.013.777.021 1.178.021h.003.007c.399 0 .791-.007 1.172-.02-.017-.124-.035-.246-.054-.368-.365.011-.741.017-1.125.017-.384 0-.76-.006-1.125-.017m2.502-.008c.019.121.037.244.053.367.718-.03 1.396-.084 2.02-.156-.045-.115-.092-.229-.141-.341-.584.06-1.235.104-1.93.13m2.19-.158c.047.111.093.224.136.338.484-.062.931-.135 1.33-.218.163-.034.318-.07.464-.106-.067-.107-.136-.211-.208-.313-.441.118-1.028.22-1.722.299m1.974-.373c.072.105.141.212.208.321.805-.225 1.28-.488 1.281-.76v-.002c0-.27-.47-.532-1.268-.757-.066.109-.135.216-.207.321.398.132.622.28.622.436 0 .158-.229.307-.635.44m-.238-.951c.072-.102.141-.207.207-.313-.149-.037-.308-.074-.476-.109-.397-.083-.841-.156-1.323-.218-.043.114-.088.226-.135.338.697.08 1.286.183 1.726.302"/></g></g><path d="m120.23 139.65c-.053 2.047-.135 4.03 1.071 3.093.222-.173.241.039.209.181-.456 1.985.885 3.19 1.301 1.836.251-.815.678-.667.759.101.311 2.947.243 5.79-.304 8.501-.322 1.598 1.927 2.482 2.084.506.238-3.01.145-6.04-.363-9.06-.069-.411.183-.458.354-.152.283.508.909.459.86-.101-.025-.287-.176-.475-.239-.762-.135-.614.522-.81.745-.25.78 1.958 1.033 4 .906 6.123-.105 1.768 2.115 1.747 1.927.101-.361-3.171-1.291-5.625-2.394-7.844-.209-.421-.028-.864.234-.888.556-.05.671-.53-.183-1.075-.404-.258-.797-.45-.844-.872l-3.796-.687-2.328 1.245"/><ellipse cx="120.18" cy="139.22" rx="6.175" ry=".997"/><path d="m110.45 144.07c-.182.622-.34 1.278-.472 1.961.575.371 1.274.7 2.075.979 4.596 1.603 11.655 1.603 16.251 0 .802-.28 1.5-.609 2.076-.98-.132-.683-.29-1.339-.471-1.961-.428.399-1.203.795-2.228 1.152-4.183 1.459-10.822 1.459-15 0-1.024-.357-1.799-.753-2.227-1.152m-.785 9.511c.088.886.216 1.737.382 2.544.442.234.934.449 1.469.643 4.888 1.772 12.425 1.772 17.313 0 .542-.196 1.038-.414 1.485-.651.166-.81.294-1.665.382-2.554-.441.502-1.322.992-2.513 1.424-4.463 1.617-11.559 1.617-16.02 0-1.176-.426-2.05-.911-2.496-1.406"/><g fill="#fff"><path d="m79.15 163.83l10.04-13.823-7.98-10.983h8.243v-2.851h-2.548v-2.232h2.548v-2.548h2.232v2.548h2.548v2.232h-2.548v2.851h8.243l-7.98 10.983 10.04 13.823h-2.758l-8.663-11.924-8.663 11.924h-2.758m6.443-22.574l4.979 6.853 4.979-6.853h-9.958"/><path d="m86.28 148.43c-.033 2.18-1.811 3.938-3.999 3.938-2.188 0-3.966-1.758-3.999-3.938.84 1.116 2.317 1.858 3.999 1.858 1.682 0 3.159-.741 3.999-1.858"/></g></g></g></svg>