<svg xmlns="http://www.w3.org/2000/svg" xmlns:xlink="http://www.w3.org/1999/xlink" width="300" height="360" viewBox="0 0 84.666667 101.6" fill-rule="evenodd"><defs><linearGradient xlink:href="#1" id="9" gradientUnits="userSpaceOnUse" x1="167.6" y1="163.04" x2="173.49" y2="159.28" gradientTransform="matrix(.47733 0 0 .47741-7.786-20.1)"/><linearGradient xlink:href="#0" id="O" x1="15.865" y1="48.747" x2="25.665" y2="44.4" gradientUnits="userSpaceOnUse"/><linearGradient xlink:href="#1" id="A" gradientUnits="userSpaceOnUse" x1="149.31" y1="163.34" x2="154.85" y2="160.67" gradientTransform="matrix(.47733 0 0 .47741-7.786-20.1)"/><linearGradient xlink:href="#1" id="B" gradientUnits="userSpaceOnUse" x1="152.26" y1="159.33" x2="121.74" y2="129.28" gradientTransform="matrix(.47733 0 0 .47741-7.786-20.1)"/><linearGradient xlink:href="#3" id="D" gradientUnits="userSpaceOnUse" x1="156.82" y1="68.69" x2="142.96" y2="107.38" gradientTransform="matrix(.47733 0 0 .47741-7.786-20.1)"/><linearGradient xlink:href="#1" id="E" gradientUnits="userSpaceOnUse" x1="105.73" x2="74.31" gradientTransform="matrix(.47733 0 0 .47741-7.786-20.1)"/><linearGradient xlink:href="#0" id="N" x1="74.14" y1="56.59" x2="62.21" y2="41.19" gradientUnits="userSpaceOnUse"/><linearGradient id="G" gradientUnits="userSpaceOnUse" x1="60.866" x2="66.15" gradientTransform="matrix(.47733 0 0 .47741-7.786-20.1)"><stop stop-color="#efea44"/><stop offset="1" stop-color="#e9cf35"/></linearGradient><linearGradient xlink:href="#2" id="H" gradientUnits="userSpaceOnUse" x1="73.69" x2="120.05" gradientTransform="matrix(.47733 0 0 .47741-7.786-20.1)"/><linearGradient xlink:href="#1" id="C" gradientUnits="userSpaceOnUse" x1="68.41" x2="38.478" gradientTransform="matrix(.47733 0 0 .47741-7.786-20.1)"/><linearGradient y2="176.84" x2="164.24" y1="218.57" x1="60.05" gradientUnits="userSpaceOnUse" id="3"><stop stop-color="#e9cf1a"/><stop offset=".478" stop-color="#efea44"/><stop offset="1" stop-color="#e9cf1a"/></linearGradient><linearGradient y2="194.55" x2="98.67" y1="197.47" x1="94.66" gradientUnits="userSpaceOnUse" id="2"><stop stop-color="#efea44"/><stop offset=".5" stop-color="#e9cf1a"/><stop offset="1" stop-color="#efea44"/></linearGradient><linearGradient id="0"><stop stop-color="#efea44"/><stop offset="1" stop-color="#efea44" stop-opacity="0"/></linearGradient><linearGradient id="8" gradientUnits="userSpaceOnUse" x1="29.625" x2="59.895" gradientTransform="matrix(.47733 0 0 .47741-7.786-20.1)"><stop stop-color="#efea44"/><stop offset="1" stop-color="#edc735"/></linearGradient><linearGradient y2="145.17" x2="38.49" y1="151.65" x1="30.1" gradientUnits="userSpaceOnUse" id="1"><stop stop-color="#efea44"/><stop offset="1" stop-color="#e9cf1a"/></linearGradient><linearGradient xlink:href="#2" id="6" gradientUnits="userSpaceOnUse" x1="77.42" y1="186.25" x2="132.74" y2="209.38" gradientTransform="matrix(.47733 0 0 .47741-7.786-20.1)"/><linearGradient xlink:href="#1" id="7" gradientUnits="userSpaceOnUse" x1="40.923" y1="166.29" x2="45.892" y2="161.29" gradientTransform="matrix(.47733 0 0 .47741-7.786-20.1)"/><linearGradient xlink:href="#3" id="5" gradientUnits="userSpaceOnUse" x1="60.05" y1="218.57" x2="164.24" y2="176.84" gradientTransform="matrix(.47733 0 0 .47741-7.786-20.1)"/><linearGradient xlink:href="#1" id="4" gradientUnits="userSpaceOnUse" x1="30.1" y1="151.65" x2="36.22" y2="146.96" gradientTransform="matrix(.47733 0 0 .47741-7.786-20.1)"/><radialGradient xlink:href="#0" id="M" cx="57.14" cy="32.917" r="15.216" gradientTransform="matrix(-.0153-.93101.57165-.0094 39.2 87.32)" gradientUnits="userSpaceOnUse"/><radialGradient xlink:href="#0" id="L" cx="42.895" cy="35.934" r="11.487" gradientTransform="matrix(0 .91336-.61112 0 62.61-3.067)" gradientUnits="userSpaceOnUse"/><radialGradient xlink:href="#0" id="K" cx="25.44" cy="35.622" r="11.529" gradientTransform="matrix(.71877.15457-.12951.60225 11.09 9.508)" gradientUnits="userSpaceOnUse"/><radialGradient xlink:href="#0" id="J" cx="24.21" cy="19.18" r="7.02" gradientTransform="matrix(.23439.87477-.97671.26171 37.27-6.746)" gradientUnits="userSpaceOnUse"/><radialGradient xlink:href="#1" id="I" gradientUnits="userSpaceOnUse" gradientTransform="matrix(1.08064 0 0 1.16565-48.888-63.4)" cx="68.13" cy="62.921" r="6.222"/><radialGradient id="F" gradientUnits="userSpaceOnUse" gradientTransform="matrix(.24693 0 0 .23571 7.085-5.903)" cx="65.16" cy="64.727" r="9.447"><stop stop-color="#e9cf1a"/><stop offset="1" stop-color="#efea44"/></radialGradient></defs><g fill-rule="nonzero"><path d="m62.58 48.55c.828 0 1.5.672 1.5 1.5v1.5c0 .828-.672 1.5-1.5 1.5h-1.5v-4.5h1.5m0 6c1.657 0 3-1.343 3-3v-1.5c0-1.657-1.343-3-3-3h-3v7.5h3m-6-7.5h1.5v7.5h-1.5v-7.5m-3 0h1.5v7.5h-1.5l-3-4.709v4.709h-1.5v-7.5h1.5l3 4.709v-4.709m-22.5 0h4.5v1.5h-3v1.5h3v1.5h-3v1.5h3v1.5h-4.5v-7.5m-6 0h1.5v6h3v1.5h-4.5v-7.5m15.75 6h1.5c1.242 0 2.25-1.01 2.25-2.25 0-1.242-1.026-2.246-2.25-2.25h-1.5v1.5h1.5c.414 0 .75.336.75.75 0 .414-.336.75-.75.75h-1.5v1.5m1.5-7.5c2.899 0 5.25 2.351 5.25 5.25 0 2.899-2.351 5.25-5.25 5.25-2.899 0-5.25-2.351-5.25-5.25 0-2.899 2.351-5.25 5.25-5.25m0 1.5c2.071 0 3.75 1.679 3.75 3.75 0 2.071-1.679 3.75-3.75 3.75-2.071 0-3.75-1.679-3.75-3.75 0-2.071 1.679-3.75 3.75-3.75" fill="#a90000"/><path d="m.0001 0v51.11c-.0001 23.09 20.448 43.716 42.33 50.49 21.885-6.775 42.33-27.404 42.33-50.49v-51.11h-84.66"/><path d="m.685.687v50.42h.002-.002v.228c.022 3.699.58 7.339 1.591 10.87.841 2.936 1.995 5.791 3.415 8.538 7.298 14.12 21.613 25.421 36.643 30.14 2.959-.928 5.892-2.113 8.751-3.526 2.92-1.443 5.766-3.127 8.484-5.02 13.913-9.687 24.374-24.795 24.411-41.14v-.087-50.42h-83.3" fill="#ce2123"/><path d="m27.637 7.22c.034.475-.074.93-.387 1.297.256.457.798 1.285.734 1.809-.027.218-.162.382-.495.438.048.265-.016.523-.181.736.377.376.584.906.185 1.356-.32.36-.789.457-1.241.518.106.005.214.012.325.022.237.02.474.049.712.085l10.245-8.254c-.165-.527-.203-1.112-.105-1.627.234-1.223 1.332-2.187 2.593-2.058.726.074 1.441.5 1.738 1.187.174.403.2.915.009 1.321-.252.537-.766.736-1.292.899.116-.439.207-.959-.372-1.112-.065-.017-.134-.026-.203-.026h-.017c-.197.005-.398.093-.551.229-.089.079-.153.168-.195.262.167.135.225.408.005.604.006.018.013.036.021.054.154.345.493.542.839.649.931.289 2.35.153 3.393.053.718-.069 1.424-.117 2.145-.046 1.212.119 2.297.528 3.072 1.358.847.909 1.457 2.513 1.06 3.697-.15.448-.439.841-.509 1.316l-.0001.011c-.035.244-.05.516-.054.797l1.31-.077-.434-1.01 4.466 1.196-4.178 1.666c.02.169-.018.346-.133.503.231.351.086.869-.303 1.024.034.066.058.138.069.212.039.269-.087.54-.338.657.192.392.059.88-.418.949l-.023.003c-.017.516-.023 1.106.033 1.501l.0001.011c.07.475.359.868.509 1.316.396 1.184-.213 2.789-1.06 3.696v.0001c-.775.83-1.861 1.239-3.072 1.358-.722.071-1.428.023-2.145-.046-1.043-.1-2.462-.235-3.393.053-.277.086-.55.23-.727.462.16.228.018.499-.197.575.003.194.082.38.253.532.153.137.354.225.551.229h.017c.069-.0001.138-.009.203-.026.579-.153.487-.673.372-1.112.526.163 1.04.362 1.292.899.191.406.165.918-.009 1.321-.297.687-1.011 1.113-1.738 1.187-1.261.129-2.359-.836-2.593-2.058-.124-.647-.032-1.405.258-2.02l-6.445-6.097c-.821 1.35-1.689 2.681-2.697 3.9l.196 3.561c1.827.027 3.988.619 5.074 2.055 1.78.637 3.793.869 5.941.861 2.207-.008 4.558-.269 6.947-.601.544-.807 1.615-1.392 2.758-1.71 2.116-.588 4.471-.196 6.493.512.875.306 1.718.696 2.529 1.143.752.13 1.718.24 2.368.252.782.015 1.559-.06 2.307-.255.477-.124.804-.497.923-.972.2-.798-.152-1.369-.627-1.955 1.083.222 2.143.813 2.245 2.116.786-.486 1.544-1.209 1.792-2.122-1.068.443-2.319.384-3.243-.384h-.002l-.04-.035c-.17-.145-.322-.312-.454-.49l-.0001-.002c-.187-.253-.336-.535-.437-.833-.259-.762-.217-1.626.188-2.396.009-.017.016-.03.022-.04.386-.707 1.034-1.212 1.773-1.441.739-.229 1.57-.181 2.323.215l.042.023c.482.264.837.608 1.092 1 .174.268.301.559.391.863.32-.901.332-2.115-.513-2.749l-.002-.002c-.109-.081-.227-.152-.349-.213-.124-.061-.256-.112-.392-.153-.699-.208-1.51-.134-2.1.282l-.4.283.186-.454v-.002-.002c.048-.113.104-.221.167-.324.062-.102.133-.2.21-.293.249-.301.567-.541.924-.7-.065 0-.129.003-.194.009-.699.063-1.352.454-1.723 1.076l-.222.372-.043-.432c-.043-.436.022-.835.166-1.186.183-.444.492-.81.87-1.076.377-.265.823-.431 1.28-.476.252-.025.508-.013.757.039-.394-.498-.854-.876-1.38-1.145-.584-.299-1.251-.465-1.998-.515.162.088.369.111.545.148-.692.545-1.167.631-2.02.393-.465-.128-.962-.265-1.597.019-.14.161-.284.318-.456.446-.215.16-.464.273-.721.266-.324-.008-.566-.174-.695-.46-.111-.246-.164-.596-.136-.893-.712.113-1.226.339-1.827.886.433-1.455 1.082-1.815 2.387-1.894-.123-.002-.25-.012-.38-.033-.099-.016-.213-.081-.329-.177-.203-.169-.433-.452-.603-.741-.178-.301-.294-.618-.257-.843.012-.076.04-.143.087-.199l.0001-.002.009-.001.002-.002c.37-.41 1.607-.329 2.488-.271.239.016.451.03.604.032.267-.397.799-.571 1.402-.632.608-.062 1.291-.009 1.832.04h.003c.195.018.386.053.576.088.464.085.925.171 1.36-.023.339-.151.624-.421.901-.682l.032-.03.135-.128.088.164c.04.074.075.149.104.225.146.372.174.768.077 1.119-.079.287-.24.545-.486.735.074.0001.149-.004.226-.018.216-.038.454-.142.731-.338l.223-.158.0001.274v.025c0 .267-.045.517-.135.737-.03.073-.065.143-.105.209-.153.252-.376.448-.67.56.208.094.45.137.666.101l.227-.038-.067.22v.0001c-.019.061-.041.119-.068.172-.027.055-.059.107-.095.157-.135.187-.329.335-.571.43.031.027.061.054.091.082.097.089.194.184.288.284.41.43.781.939 1.043 1.439.233-.407.586-.714.992-.907.3-.143.63-.224.963-.238.333-.014.669.039.982.163.493.196.927.57 1.197 1.139l.186.392-.383-.205h-.0001c-.113-.06-.231-.109-.352-.146-.12-.037-.243-.062-.367-.077-.43-.049-.87.039-1.249.252.562-.058 1.14.09 1.608.429l.26.189-.314.067c-1.716.366-1.714 1.419-1.712 2.514 0 .239.0001.481-.014.714-.041.635-.107 1.201-.264 1.73-.268.9-.96 1.719-1.616 2.366-.037.492-.146.977-.323 1.438-.462 1.196-1.359 2.177-2.464 2.869.458.297.787.753.942 1.262.248.814.002 1.457-.398 2.125l-.078-.348c-.013-.057-.027-.112-.042-.166-.202-.727-.603-1.158-1.111-1.371-.518-.217-1.151-.212-1.801-.066-.335.075-.661.171-1 .231-.547.096-1.146.152-1.743.172.512.595.951 1.293 1.373 2.169.347.721.668 1.518.946 2.435.272.893.503 1.898.679 3.052.269.088.564.193.866.321.335.142.68.314 1.01.522.134.086.257.185.379.284.21.17.42.34.663.413.401.12.879.059 1.349-.002.478-.062 1.019-.113 1.503-.031.557.094 1.011.437 1.256 1.781.312 1.716.925 3.08 1.867 3.863.18.15.373.278.579.384.204.105.422.188.652.246 1.257.317 2.094.886 2.402 1.599.167.386.137.748.069 1.154-.366-.284-.854-.676-1.362-.531.607.314 1.113.788 1.437 1.324.199.329.33.682.377 1.039.139 1.07-.515 1.766-1.379 2.288.052-.463.149-1.109-.278-1.428-.297-.222-.704-.07-.753.305-.042.322.15.802.8 1.393.666.505 1.037 1.238.95 1.979-.091.775-.704 1.429-1.3 1.865-.457.334-.96.566-1.471.802-.439.202-1.157.534-1.54.339h-.0001c-.373-.19-.396-1.613-.36-2.732.022-.704.047-1.411.131-2.111.057-.471-.124-1.044-.315-1.651-.182-.578-.323-1.148-.442-1.745-.063-.315-.122-.611-.19-.854-.564-2.028-1.587-3.397-2.867-4.324-1.284-.931-2.83-1.42-4.429-1.684-.392-.065-.763-.11-1.119-.142.346 1.467.943 2.569 1.812 3.216.172.128.355.239.549.331.194.092.4.166.616.221 1.259.318 2.097.968 2.404 1.723.161.397.137.764.068 1.18-.371-.282-.858-.658-1.362-.531.892.461 1.681 1.337 1.813 2.362.139 1.07-.515 1.766-1.379 2.288.052-.463.149-1.109-.278-1.428-.297-.222-.704-.07-.753.305-.165 1.267 1.938 1.761 1.749 3.372-.091.775-.704 1.429-1.3 1.865-.574.42-1.278.745-1.945 1.01-.766.303-1.182.365-1.339-.441-.172-.884-.078-2.518-.037-3.215.006-.103.011-.185.013-.232.013-.276.035-.551.068-.825.057-.471-.124-1.044-.315-1.651-.057-.182-.116-.368-.168-.549v-.003c-.115-.402-.197-.812-.273-1.193-.063-.315-.122-.611-.19-.854-.564-2.028-1.587-3.397-2.867-4.324-1.284-.931-2.83-1.42-4.429-1.684-1.407-.232-2.563-.234-3.605-.235-.808-.0001-1.549-.002-2.289-.108-.59-.084-1.217-.337-1.853-.721-.118-.071-.242-.151-.369-.237-.078-.053-.155-.107-.232-.163-2.246.872-4.415 1.669-6.621 2.067-1.857.336-3.826.253-5.688.174-1.471-.062-2.875-.121-4.094.033.002.064.005.128.008.19.031.632.056 1.141-1.066 1.207-.642.037-1.283-.066-1.906-.214-.598-.143-1.199-.03-1.809.083-.151.028-.302.056-.45.08h-.002c-1.456.237-2.991.008-4.445-.491-.525-.181-1.04-.397-1.539-.64-.433.572-.957.894-1.625 1.14-.446.774-.666 1.636-.199 2.46.402.708.546 1.339.464 1.874-.046.297-.169.531-.315.783-.247-.323-.499-.646-.844-.871.211.496.371.987.389 1.454.031.787-.357 1.282-.959 1.725-.128-.397-.273-.795-.663-1.01-.162-.09-.337-.127-.505-.119-.534.027-.822.502-.811 1.047.005.266.06.531.135.785.311.022.562.107.759.237.429.283.592.781.579 1.276-.025.963-.704 1.973-1.327 2.667-.34.379-.726.727-1.14 1.055l-.003.003c-.71.526-1.204.457-1.483-.207-.307-.732-.322-1.586-.269-2.368-.277-.299-.42-.597-.464-.919-.045-.332.018-.682.152-1.079.261-.774.14-1.636.024-2.464-.018-.131-.037-.261-.057-.417v-.002c-.177-1.39.345-1.986.91-2.63.737-.84 1.397-1.742 1.933-2.725.488-.894.876-1.851 1.179-2.914.389-1.366 1.453-2.123 2.661-2.358.652-.127 1.233-.004 1.871-.021.244-.006.48-.041.717-.087-1.493-.379-2.925-1.098-4.147-2.029-.41.437-.983.744-1.584.791-.572.641-1.233 1.49-.931 2.416.169.518.273 1.11.159 1.653-.085.407-.284.686-.541.982-.178-.366-.36-.734-.654-1.024.108.528.167 1.041.092 1.502-.126.779-.607 1.186-1.286 1.501-.04-.402-.075-.852-.343-1.173-.193-.231-.491-.275-.754-.176-.265.1-.486.353-.572.819-.048.263-.047.534-.025.799.3.084.529.217.696.384.758.756.21 2.032-.42 2.668-.643.808-1.513 1.391-2.425 1.854l-.004.002c-.438.205-.783.236-1.033.093-.253-.144-.393-.454-.419-.927-.031-.332-.016-.676.033-1.027.046-.331.121-.669.215-1.01-.423-.695-.298-1.347.092-2.02.41-.707.463-1.575.514-2.409.008-.136.017-.273.025-.392l.002-.031c.103-1.398.734-1.878 1.416-2.397.889-.676 1.716-1.43 2.437-2.285.656-.779 1.227-1.639 1.735-2.62.653-1.262 1.846-1.792 3.077-1.781.239.002.478.024.713.065.236.041.47.101.699.178h.002c.681.231 1.074.207 1.765.164.396-.024.792-.034 1.188-.026.022-.563.071-1.129.143-1.692.088-.694.282-1.318.506-1.918-.206-.991-.476-1.805-.798-2.513-.329-.722-.713-1.334-1.14-1.908-.594-.799-.822-1.833-.994-2.794-.2-1.124-.12-2.266-.127-3.4-.612-.452-.87-.974-.897-1.547-.025-.529.151-1.092.426-1.679-1.961-.062-3.4-1.042-4.975-2.121-.573-.392-.756-.732-1.057-1.293-.028-.053-.058-.107-.088-.164v-.0001c-.141-.261-.252-.541-.3-.835-.111-.682.16-1.194.601-1.485.476-.315 1.088-.275 1.612-.465 2.279-.827 3.519-.311 5.518.521.74.308 1.379.495 2.191.564.119.001.239.018.362.025l.023-.666c-.239-.026-.426-.104-.56-.224-.161-.144-.235-.342-.241-.555-.162-.008-.315-.053-.445-.128-.567-.324-.482-.926-.255-1.442.1.098.2.217.332.271.164.067.295-.004.373-.144-.254-.371-.445-.779-.611-1.196-.147-.372-.3-.755-.404-1.149-.106-.403-.163-.817-.114-1.238.125-1.089.974-1.942 1.846-2.516.144-.095.287-.181.426-.257h.0001c2.095-1.157 4.152-.39 6.145.353.464.173.945.403 1.111.915.095.292.033.639-.152.884-.03.04-.063.076-.099.109-.198.183-.454.25-.721.241m39.38 15.05c-.122-.064-.247-.112-.374-.146-.127-.034-.255-.053-.38-.058-.65-.026-1.275.313-1.585.901l-.0001.002c-.044.084-.081.171-.11.258-.029.087-.05.175-.065.264-.073.457.043.924.316 1.291l.003.004c.089.118.186.219.289.302.103.083.214.15.328.202.602.269 1.352.125 2-.281.037-.023.064-.04.082-.052.023-.015.05-.034.081-.056.125-.087.244-.18.357-.278l.003-.038c.003-.035.005-.065.007-.086.009-.145.011-.29.005-.43v-.006c-.005-.104-.014-.208-.029-.311-.015-.102-.034-.202-.059-.298-.127-.487-.397-.91-.872-1.185m-6.806-8.07c.066-.002.134-.003.203-.004.507-.007 1.03-.052 1.512-.184-.031-.005-.065-.009-.103-.011-.33-.019-.651.041-.975.101-.209.039-.419.078-.637.098m-9.98.18l.24-.811-1.341.079.002.058c.4.087.933.256 1.099.673m-18.427 4.804l6.309 5.968c.886-.949 2.418-1 3.852-1.048.583-.02 1.15-.039 1.642-.12h.002c.582-.097 1.141-.259 1.638-.525.894-.479 1.53-1.319 1.773-2.299.179-.722.103-1.465.067-2.199-.016-.322-.032-.644-.045-.966-.274-.0001-.516-.05-.74-.129-.273-.096-.513-.234-.75-.382-.187-.117-.386-.151-.596-.142-.223.001-.466.068-.721.132h-.002c-.705.176-1.417.326-2.133.444-1.821.301-3.574.376-4.571.008-1.855.575-3.78 1.12-5.724 1.258m-3.206-5.784l2.068-.126.413.583 15.988-.946c.007-.155.015-.309.023-.464.036-.734.112-1.477-.067-2.199-.243-.981-.88-1.821-1.773-2.299-.497-.266-1.057-.429-1.638-.525h-.002c-.492-.082-1.058-.101-1.642-.12-1.522-.051-3.155-.106-4.01-1.234-.033-.044-.065-.089-.095-.136l-9.267 7.466m7.43 1.023c.49.013.979.025 1.469.033.07-.047.14-.091.21-.133l-1.679.099m5.627-.333c.141.031.282.062.424.094.658.148 1.346.33 2.025.297.301-.015.604-.059.911-.119.275-.053.426-.164.608-.4.029-.037.059-.075.089-.113l-4.058.24"/><g fill="#efea44"><path d="m48.2 15.12c-.107-.079-.204-.171-.285-.262-.052.002-.111.008-.169.015l-.067.007c-.005.087.007.155.036.222.162.001.324.016.485.018"/><path d="m47.739 16.828c.524.039 1.052.029 1.569-.073.182-.041.358-.122.317-.404-.009-.064-.033-.124-.07-.171-.588.095-1.212.096-1.808.062-.285-.016-.303.565-.008.587"/><path d="m49.29 17.05c-.544.099-1.098.103-1.647.058-.268.203-.135.48.171.524.431.062.867.064 1.297.002.309-.045.304-.364.179-.584"/><path d="m49.14 14.01c.007.155.014.306.019.449.076.065.149.133.21.213.104.138.114.265.068.371.149-.022.298-.048.446-.079.448-.53-.367-.859-.744-.954"/><path d="m47.726 15.954c.564.035 1.31.058 1.844-.072.265-.064.538-.314.358-.635-.705.147-1.428.188-2.146.149-.292-.016-.349.541-.055.559"/></g><path d="m26.383 10.131c-.023.133-.017.319.145.301.111-.012.217-.001.318 0 .178.018.337.077.516.062.148-.013.318-.051.336-.201.051-.414-.449-1.224-.703-1.656-.345.023-.808-.017-1.079.372l-.377-.174-.183-.805c-.073-.107-.124-.231-.145-.375v-.0001-.003l.283-.038v.002c.091.668 1.01.8 1.533.722.275-.326.359-.726.318-1.152-.35-.074-.691-.252-.92-.444-.481.733-1.227.977-2.079.851-.185.299-.553.33-.697.552-.113.175-.12.344-.024.516.111.2.351.409.711.637.169.107.285.235.35.371.182.382-.069.738-.418.904-.039.018-.08.033-.123.043-.244.057-.574-.008-.865-.142-.293-.134-.556-.341-.663-.566-.018-.039-.032-.077-.041-.116-.026-.111-.033-.234-.039-.359-.008-.157-.017-.321-.077-.447-.119-.249-.394-.274-.579-.095-.211.203-.091.405-.026.659.062.245.118.457.122.707.003.19.011.389.22.466.169.062.324.012.478-.053.3.235.535.543.522.938.253.589.569 1.031 1.055 1.285.242.004.499.051.685.217.43.067.957.047 1.613-.071.275-.049.556-.18.726-.371.319-.359.054-.759-.241-1.024-.262-.065-.527-.018-.747.148-.233.175-.459.304-.682.365-.306.084-.645.035-.894-.167-.454-.369-.351-1.045.006-1.393.224.369.547.448.988.159.163-.107.312-.182.451-.234-.104-.1-.117-.275-.051-.44l.275.049m.819.657c-.384-.088-.758-.171-1.337.207-.373.244-.733.33-1.097.036-.098.242-.092.56.126.737.177.144.421.173.638.114.187-.051.382-.164.587-.318.271-.204.608-.278.936-.205.141-.164.191-.359.147-.57" fill="url(#I)"/><path d="m46.04 13.55c.325-.194.801-.171 1.163-.176.299-.004.665-.046.961.051l2.69-.159-.257.868 2.948-1.176-3.065-.821.362.843-19.909 1.177-.413-.583-2.69.162c.099.129.147.297.135.473-.011.159-.07.326-.184.44.123.157.137.376.08.561l-.003.001 2.74-.176.358-.603 15.08-.892" fill="#efea44"/><path d="m37.777 5.03l.884-.712c.066-.054.135-.083.2-.093.056-.144.149-.28.282-.398.201-.179.469-.295.735-.301h.002.02.0001c.092 0 .185.012.276.036.441.116.715.498.684.956.329-.145.537-.352.648-.588.156-.332.128-.762-.013-1.087-.256-.591-.882-.952-1.505-1.016-1.116-.114-2.077.751-2.283 1.828-.083.436-.059.926.068 1.376m.32.721c.026.04.053.079.082.117.792 1.055 2.347 1.107 3.797 1.156.594.02 1.171.039 1.679.124h.002c.609.101 1.198.273 1.726.555.965.516 1.654 1.424 1.916 2.483.186.751.112 1.518.074 2.281-.007.145-.014.289-.021.433l1.475-.087c.003-.301.019-.593.056-.854l.0001-.011c.073-.501.364-.898.521-1.366.363-1.084-.222-2.579-.998-3.411-.723-.774-1.745-1.156-2.891-1.269-.703-.069-1.392-.021-2.092.046-1.069.102-2.523.241-3.51-.066-.418-.13-.811-.377-1-.787l-.816.657m.694 21.07c-.035-.018-.07-.043-.103-.074l-.78-.738c-.238.54-.31 1.191-.203 1.752.206 1.077 1.168 1.942 2.283 1.828.623-.064 1.25-.424 1.505-1.016.14-.325.168-.755.013-1.087-.111-.236-.32-.443-.648-.588.031.458-.243.84-.684.956-.091.024-.184.036-.276.036h-.0001-.02-.002c-.266-.006-.534-.122-.735-.301-.241-.215-.351-.486-.348-.767m.28-.758c.211-.26.518-.429.84-.529.986-.307 2.441-.168 3.51-.066.7.067 1.388.115 2.092.046 1.145-.112 2.167-.495 2.89-1.267.778-.833 1.362-2.328.999-3.412-.156-.468-.448-.865-.521-1.366l-.0001-.012c-.057-.405-.053-.992-.037-1.511-.356.028-.715.015-1.068-.036-.192-.027-.359-.129-.462-.266.015.435.037.869.058 1.304.038.763.112 1.529-.074 2.281-.262 1.059-.952 1.967-1.916 2.483-.527.282-1.116.454-1.726.555h-.002c-.508.084-1.085.104-1.68.124-1.36.046-2.812.094-3.641.971l.74.7m-11.489-10.476c-.022.014-.046.026-.07.037l-.004.002c-.039.016-.079.028-.121.038l11.497 10.877c.104.099.235-.038.131-.137l-11.432-10.816m.193-2.134l.328-.02 10.856-8.747c.1-.097-.0001-.244-.119-.149l-11.07 8.915m21.08.5l-.011-.0001c-.05-.005-.099-.009-.145-.011.05.089.097.173.167.25l-.011-.237m-1.563 2.304c.023-.053.053-.103.091-.149l.007-.009c-.041-.049-.071-.103-.092-.16-.003.106-.005.212-.006.318m.004.796c.026-.037.057-.074.095-.11-.041-.053-.074-.111-.099-.172.0001.094.002.188.004.282" fill="url(#H)"/><path d="m23.787 12.928c-.29-.23-.515-.532-.703-.896-.112.207-.305.382-.542.411-.242.489-.697.831-1.251.86l-.023.671c.315.011.641.013.976.009.231-.405.461-.642.741-.795.217-.118.508-.211.803-.259" fill="url(#G)"/><path d="m20.489 12.494c-.0001.136.041.271.146.364.216.193.659.199.936.106.366-.122.625-.442.788-.812.258.018.426-.104.514-.347.109-.302-.013-.604-.245-.811-.169.054-.359.057-.527-.005-.339-.126-.402-.415-.407-.731-.004-.224-.058-.421-.114-.641-.093-.366-.202-.64.105-.936.316-.305.859-.255 1.047.179.072.166.082.363.092.555.006.111.011.219.032.307.005.02.012.04.021.06.077.162.285.32.523.429.239.109.5.165.681.123.025-.006.047-.014.067-.023.202-.096.393-.29.281-.523-.042-.088-.122-.174-.243-.251-.401-.254-.672-.496-.808-.74-.152-.272-.143-.538.034-.81.072-.111.177-.164.298-.224.236-.119.365-.256.483-.489 1.035.183 1.734-.081 2.177-1 .346.398 1.28.97 1.795.495.036-.034.069-.074.097-.12.102-.169.137-.386.075-.575-.137-.421-.561-.595-.939-.736-1.932-.72-3.927-1.464-5.907-.37h-.0001c-.138.076-.274.158-.407.246-.799.526-1.604 1.31-1.719 2.31-.044.382.008.761.107 1.133.101.381.249.755.392 1.116.178.449.39.873.672 1.267-.058.112-.099.233-.189.325-.201.205-.492.201-.723.063-.104.431.18.792.617.804.261.007.558-.115.804-.412l.22.182c-.232.28-.506.436-.773.491" fill="url(#F)"/><path d="m46.18 13.803c-.137.092-.235.218-.329.339-.233.301-.447.442-.8.509-.313.06-.622.105-.932.12-.708.035-1.415-.149-2.101-.303-.526-.118-1.059-.237-1.588-.3l-1.873.111c-.331.099-.655.25-.97.47-1.585-.028-3.17-.085-4.754-.131l-1.701.101-.357.602-.049.005-2.816.179 3.611 3.416c2.171-.102 4.342-.757 6.403-1.412l.099.268c.983.214 2.477.122 4.03-.135.708-.117 1.412-.265 2.108-.44h.002c.27-.067.527-.129.779-.14.265-.011.518.033.759.184.223.139.447.269.693.355.191.067.399.11.635.112-.022-.598-.032-1.197-.016-1.8-.281.213-.663.29-1.197.249l.021-.285c1.05.079 1.295-.338 1.538-1.28.23.014.454-.033.683-.018.188.23.461.497.782.504.081.002.426-.08.305-.241-.179-.236-.482-.358-.625-.631-.147-.282-.237-.427-.374-.491-.267-.125-.637-.067-.934-.062-.431.006-.824.012-1.034.145" fill="url(#E)"/><path d="m67.8 26.368c-.254 1.157-1.142 2.072-2.174 2.61h-.002l-.22.121c.036-.948-.333-1.713-1.229-2.094.233.459.303 1.01.178 1.51-.144.577-.552 1.029-1.129 1.179-.774.202-1.576.279-2.383.264-.574-.011-1.149-.068-1.717-.161.66.407 1.282.876 1.818 1.439.659-.011 1.335-.067 1.946-.174.336-.059.657-.154.988-.228.705-.158 1.398-.16 1.974.081.539.226.973.659 1.217 1.367.152-.414.152-.857.029-1.26-.206-.674-.666-1.041-1.253-1.332 1.222-.71 2.259-1.633 2.781-2.985.137-.355.23-.726.279-1.103-.338.301-.702.558-1.104.764m-.211-1.117c-.679.425-1.482.653-2.269.301-.998-.447-1.414-1.731-.899-2.714v-.002c.485-.922 1.64-1.299 2.575-.889.945.414 1.266 1.397 1.262 2.359.233-.245.527-.635.678-.936-.086-.387-.204-.76-.429-1.109-.231-.356-.552-.668-.988-.906l-.039-.021c-.384-.202-.79-.304-1.192-.318-1.026-.035-2.023.518-2.52 1.427l-.02.037c-.492.936-.396 2.088.226 2.926l.0001.002c.087.118.183.228.287.33.019.019.04.038.061.058.007.006.014.013.023.021.658.565 1.469.771 2.319.618 1.358-.246 3.203-1.806 3.746-3.102.259-.617.347-1.289.398-2.074.015-.233.015-.465.014-.696-.002-1.139-.003-2.236 1.602-2.709-.352-.176-.749-.246-1.138-.204-.096.001-.192.028-.287.052-.094.024-.187.055-.279.094h-.002l-.601.254.44-.482c.514-.562 1.265-.823 1.99-.74.138.016.276.044.412.086-.225-.302-.514-.512-.83-.638-.275-.109-.572-.156-.866-.143-.294.013-.586.084-.852.211-.431.205-.792.554-.981 1.028l-.125.314-.138-.309c-.247-.554-.657-1.141-1.12-1.627-.09-.094-.181-.185-.275-.27-.094-.086-.187-.166-.278-.239l-.252-.189.309-.065c.294-.062.522-.203.663-.397.011-.015.022-.031.032-.047-.215-.008-.434-.066-.624-.16-.051-.025-.101-.054-.149-.085-.048-.031-.093-.065-.134-.1l-.002-.002-.0001-.0001-.23-.203.303-.045c.371-.055.637-.243.8-.511.032-.053.06-.11.085-.17.048-.117.081-.245.098-.382-.217.124-.416.197-.605.231-.261.047-.5.019-.737-.052l-.397-.119.385-.151c.049-.019.095-.041.139-.064.286-.154.466-.402.544-.687.08-.292.056-.624-.068-.94l-.009-.022c-.26.243-.533.481-.869.63-.516.23-1.021.137-1.528.044-.185-.034-.37-.068-.55-.085h-.003c-.528-.048-1.194-.1-1.779-.04-.439.044-.83.15-1.07.367.364.049.735.045 1.095.125.156.035.383.099.447.269.055.147-.066.368-.206.431-.14.062-.333.005-.562-.096-.757-.334-1.389-.478-2.224-.523-.742-.04-1.561-.046-1.788.206l-.006.006c-.012.015-.02.035-.024.06-.025.153.074.402.221.652.155.262.361.517.54.667.078.066.145.108.19.115.448.072.859-.004 1.263-.079.342-.063.679-.126 1.042-.105.213.012.363.068.457.147.142.118.148.237.022.382-.661.759-1.567.837-2.46.914-.089.008-.174.016-.257.025-.041.26.003.589.104.815.084.187.192.257.404.272.201.014.405-.068.581-.19.387-.288.633-.731 1.02-1.03.246-.19.532-.332.888-.37l.03.284c-.365.039-.676.226-.933.478.492-.094.903.019 1.294.127.424.117.822.227 1.277-.004-.251-.128-.333-.327-.427-.569.615-.008 1.116-.018 1.518-.54-.423.037-.701-.099-1.066-.26.529-.183 1.069-.355 1.277-.925-.466.225-.934.22-1.403-.014l.128-.255c.659.329 1.17.028 1.701-.343-.064.596-.249 1.179-.863 1.515.295.019.559-.082.835-.169-.226.455-.509.861-.944 1.086.541.088 1.039.245 1.492.476.683.35 1.262.869 1.733 1.58l.257.388-.43-.177c-.332-.136-.689-.181-1.04-.146-.408.04-.807.189-1.144.426-.335.236-.609.56-.77.951-.08.194-.132.406-.15.632.43-.493 1.039-.798 1.683-.855.153-.014.309-.014.464.0001.156.015.312.045.465.09l.621.186-.64.093c-.549.08-1.047.367-1.396.787-.035.042-.069.086-.101.131.591-.245 1.285-.259 1.898-.077.151.045.297.102.437.17.141.069.274.15.395.24l.003.003c.774.581.938 1.587.765 2.504-.24 1.268-1.012 2.155-1.971 2.755m-5.773-10.923c-.459.089-.936.152-1.4.158-.962.013-1.865.012-2.33.875.521-.349 1.13-.43 1.746-.483.707-.061 1.424-.122 1.984-.55" fill="url(#D)"/><path d="m18.221 17.279c-1.661.138-3.389.308-5.02-.142l.075-.275c1.517.418 3.173.279 4.841.139 1.035-.087 2.065-.116 3.099-.18.396-.024.786-.049 1.177-.039.259.006.486.126.706.242.143.075.283.15.414.179l.011.002c.561.118 1.117.09 1.739.059.341-.017.702.053.914-.276.076-.118.115-.267.081-.405l-.351-.074.118-.262c.247.043.525.146.668-.157.058-.123.054-.264.034-.395l-.509-.073.123-.263c.321.04.745.14 1.06.008l.003-.002c.095-.041.162-.134.193-.237.037-.122.031-.307-.11-.358l-1.101-.04.009-.285 1.126.041c.113-.023.161-.2.167-.295.012-.18-.07-.35-.257-.398-.29-.048-.581-.085-.874-.11-.605-.051-1.605-.098-2.146.264l-.101-.259.003-.003.002-.002c.124-.127.37-.179.536-.215-.081-.191-.283-.264-.475-.283-.398-.038-.924.076-1.251.254-.333.182-.532.504-.708.827-.606.001-1.212.007-1.816-.044-.937-.079-1.462-.246-2.278-.585-1.936-.806-3.137-1.306-5.311-.517-.493.179-1.111.144-1.551.435-.352.233-.567.646-.477 1.201.043.261.144.513.27.745v.0001c.031.057.06.112.088.164.28.523.451.84.966 1.192 1.556 1.066 2.99 2.055 4.953 2.074.294-.566.661-1.092.963-1.654" fill="url(#C)"/><path d="m53.57 40.88c-2.09.6-4.054 1.368-5.954 2.11l-.521.203c.025.017.049.034.074.051.115.078.234.154.357.229.604.365 1.196.604 1.746.683.725.103 1.454.104 2.249.105 1.055.0001 2.224.003 3.651.238 1.64.27 3.227.774 4.551 1.734 1.329.963 2.391 2.382 2.974 4.478.073.264.133.56.196.875.075.376.156.781.268 1.171v.003c.053.187.11.366.165.542.201.637.39 1.239.326 1.77-.026.219-.046.438-.059.658 1.077.127 2.106-.205 3.01-.775-.6-.6-.776-1.116-.728-1.487.077-.59.737-.849 1.207-.498.251.187.444.545.442 1.104.545-.41.85-1.012.761-1.699-.143-1.106-1.081-1.904-2.053-2.321.136-.167.24-.298.464-.357.293-.078.721-.017 1.198.29 0-.189-.039-.376-.11-.552-.273-.673-1.042-1.259-2.207-1.552-.236-.06-.459-.14-.67-.24-.211-.1-.41-.221-.598-.36-.943-.703-1.582-1.893-1.94-3.469-.297-.021-.584-.033-.86-.039.007.081.015.163.025.245.016.128.035.252.058.37.116.607.324 1.121.613 1.399l-.198.206c-.334-.321-.57-.891-.696-1.551-.025-.129-.045-.259-.061-.389-.011-.092-.021-.187-.028-.284-.358-.004-.7 0-1.031.004-.811.001-1.555.019-2.299-.087-1.249-.178-2.673-1.118-3.995-2.462-.112-.113-.221-.229-.329-.346" fill="url(#B)"/><path d="m66.828 55.16c-.971.628-2.084.994-3.246.862-.061 1.035-.181 2.18-.015 3.207.097.602.407.492.943.283.66-.257 1.369-.582 1.934-.995.526-.384 1.104-.975 1.185-1.667.073-.625-.239-1.249-.801-1.691" fill="url(#A)"/><path d="m75.49 54.35c-.969.628-2.084.996-3.246.862-.021.375-.042.75-.057 1.126-.04 1.051-.043 2.357.205 2.485.261.132.901-.163 1.292-.344.494-.228.98-.449 1.422-.772.526-.384 1.104-.975 1.185-1.667.073-.625-.239-1.248-.801-1.691" fill="url(#9)"/><path d="m6.524 49.975c1.089-.308 2.059-.866 2.898-1.624-.036-.337-.046-.681.015-1.016.113-.612.424-.934.796-1.052.367-.117.767-.037 1.029.277.174.208.299.516.363.922.472-.274.693-.661.765-1.111.114-.702-.092-1.428-.253-2.108l.289.174c.383.219.657.596.865.976.379-.598.261-1.387.054-2.023-.354-1.087.394-2.034 1.068-2.783.682-.034 1.236-.376 1.679-.902 1.419 1.075 2.962 1.896 4.712 2.246-.42-1.054-.659-2.162-.76-3.296-.05-.562-.065-1.13-.052-1.7-.388-.008-.775.002-1.162.026-.727.045-1.139.07-1.874-.179h-.002c-.214-.072-.433-.129-.654-.167-.223-.039-.446-.06-.667-.062-1.13-.001-2.225.474-2.821 1.627-.517.999-1.1 1.876-1.771 2.673-.735.873-1.576 1.639-2.482 2.329-.628.478-1.209.92-1.303 2.19l-.002.031c-.001.139-.018.263-.025.388-.053.867-.108 1.77-.552 2.535-.311.536-.458 1.06-.151 1.632" fill="url(#8)"/><path d="m30.384 45.3c1.23-.15 2.631-.091 4.098-.029 1.848.078 3.801.16 5.627-.17 2.448-.442 4.87-1.389 7.406-2.38 1.866-.729 3.794-1.483 5.844-2.08-.325-.366-.635-.746-.928-1.137l-.002-.003c-.821-1.095-1.409-1.849-1.944-2.454-.532-.601-1.015-1.059-1.632-1.565l.181-.222c.627.513 1.119.98 1.664 1.597.542.613 1.133 1.372 1.959 2.472l.002.002c.445.593.927 1.16 1.447 1.689 1.28 1.301 2.647 2.21 3.831 2.379.726.104 1.458.095 2.255.085 1.053-.013 2.22-.027 3.645.208 1.64.27 3.227.774 4.551 1.734 1.329.963 2.391 2.382 2.974 4.478.073.264.133.56.196.875.117.587.255 1.148.434 1.716.201.637.39 1.239.326 1.77-.026.219-.046.438-.059.658 1.076.128 2.108-.204 3.01-.775-.601-.6-.776-1.116-.728-1.487.077-.59.737-.849 1.207-.498.251.187.444.545.442 1.104.545-.41.85-1.012.761-1.699-.041-.315-.159-.63-.338-.927-.405-.669-1.01-1.092-1.715-1.395.136-.167.24-.298.464-.357.293-.078.721-.017 1.198.29 0-.179-.037-.356-.108-.52-.272-.629-1.041-1.139-2.209-1.434-.252-.064-.49-.154-.715-.27-.223-.115-.433-.255-.63-.419-.997-.828-1.642-2.251-1.965-4.03-.204-1.122-.566-1.443-1.011-1.54-.446-.097-.992-.034-1.431.023-.5.064-1.01.13-1.466-.007-.296-.089-.529-.277-.761-.466-.117-.095-.234-.189-.353-.265-.311-.198-.642-.362-.966-.5-.325-.138-.643-.249-.926-.34l-.085-.027-.013-.088c-.176-1.18-.408-2.198-.682-3.098-.273-.899-.589-1.683-.931-2.393-1.288-2.676-3.755-4.316-6.455-5.261-1.967-.689-4.263-1.079-6.323-.507-1.424.395-2.726 1.215-2.902 2.346l-.282-.044c.03-.194.089-.379.171-.555-2.323.32-4.61.566-6.769.574-2.039.007-3.961-.199-5.687-.758.078.139.147.284.206.436l-.266.103c-.83-2.147-3.861-2.827-5.974-2.676l-.024-.285h.004c.143-.001.29-.017.44-.019l-.198-3.601-.003-.056c1.042-1.253 1.931-2.615 2.776-4.01l-4.01-3.796c.022.177.005.354-.065.505-.074.158-.204.285-.406.354.034.2-.018.409-.128.578-.281.436-.689.385-1.142.407-.642.032-1.216.061-1.812-.065h-.0001l-.011-.002h-.0001c-.168-.038-.325-.121-.485-.205-.192-.101-.389-.205-.58-.209-.374-.009-.76.015-1.153.039-.892.055-1.78.085-2.671.148-.337.661-.776 1.264-1.105 1.929-.299.606-.498 1.18-.474 1.699.023.491.251.943.793 1.339.73-.121 1.3-.555 1.761-1.098 1.58 1.085 4.051 1.289 5.717.229l.003-.002.156.239-.003.002h-.0001c-1.669 1.063-4.199.949-5.821-.09-.449.49-1.05.866-1.707.991.005 1.101-.071 2.21.123 3.3.119.67.265 1.385.557 2.02.302-1.102 1.196-1.889 2.332-2.03 1.257-.155 2.491.507 3.01 1.675l-.261.116c-.471-1.056-1.582-1.648-2.716-1.508-1.152.142-1.973 1-2.16 2.137.055.09.113.178.176.263.438.589.832 1.217 1.171 1.96.284.623.528 1.326.724 2.153.04-.099.08-.198.119-.297.154-.382.308-.763.439-1.151.3-.89.209-1.802-.141-2.622-.068-.161-.147-.318-.234-.47-.087-.152-.183-.3-.288-.445l.231-.168c.11.151.212.309.305.472.093.162.176.329.249.499.376.881.473 1.863.149 2.825-.134.398-.289.781-.444 1.166-.334.829-.672 1.665-.794 2.624-.154 1.212-.204 2.43-.098 3.617.101 1.143.347 2.26.783 3.319 1.016-.201 2.01-.325 3.01-.382.605-.035 1.209-.045 1.813-.032.423-.672 1.331-.905 2.078-.755l-.056.28c-.583-.117-1.272.024-1.674.485.32.012.64.029.961.053.522.039.893.29 1.119.636.545.835.212 2.142-.798 2.425l-.077-.275c.823-.231 1.075-1.321.635-1.993-.18-.275-.478-.476-.9-.507-1.033-.076-2.057-.09-3.086-.031-1.029.059-2.064.191-3.117.407-.532.109-1.023.239-1.555.238-.587-.0001-1.12-.1-1.719.016-1.109.216-2.084.908-2.44 2.156-.308 1.082-.705 2.057-1.204 2.972-.546 1-1.218 1.92-1.969 2.776-.521.594-1 1.143-.841 2.406v.002c.015.119.036.266.057.414.121.86.246 1.755-.036 2.594-.12.357-.178.667-.14.951.032.234.131.455.317.679 1.01-.518 1.845-1.26 2.516-2.17l-.012-.035v-.002c-.097-.309-.169-.634-.175-.959-.014-.737.429-1.337 1.14-1.338.2 0 .406.049.598.155.268.148.508.405.668.791.41-.363.55-.787.532-1.244-.028-.708-.371-1.376-.664-2.01.567.189.931.385 1.356.888.254-.659-.022-1.414-.35-1.993-.543-.958-.272-1.943.253-2.835.764-.276 1.251-.608 1.73-1.269.562.273 1.129.528 1.721.731 1.413.486 2.901.709 4.306.48h.002c.152-.025.298-.052.444-.079.64-.119 1.271-.237 1.927-.081.596.142 1.21.243 1.824.207.838-.049.819-.432.796-.908-.021-.431-.013-.811.218-1.195 1.225-.759 2.475-1.897 2.894-3.313l.274.081c-.436 1.471-1.696 2.635-2.958 3.438-.089.16-.129.329-.144.498" fill="#e9cf1a"/><path d="m14.302 55.37c-.703.979-1.589 1.778-2.66 2.334-.053.727-.061 1.558.226 2.24.2.473.555.521 1.067.141.401-.318.774-.654 1.101-1.019.532-.592 1.233-1.651 1.255-2.484.001-.393-.107-.803-.451-1.031-.14-.093-.318-.157-.537-.183" fill="url(#7)"/><path d="m18.353 65.876l45.93 19.03c1.542.639 2.65-2.074 1.075-2.724l-46.566-19.218c-1.189-.49-2.565-1.05-3.809-1.193-2.207-.253-3.359 1.127-3.566 3.143-.064.627-.048 1.289-.0001 1.954v.004c.023.324.087.745.157 1.211.198 1.312.451 2.993.002 3.672-.19.287-.481.338-.765.15-.445-.294-.668-.877-.904-1.338.022 1.423.115 2.847 1.209 3.947.568.571 1.377.952 2.193.783.914-.189 1.408-.962 1.627-1.808.346-1.336.292-2.841.179-4.22-.075-.919-.152-1.871.071-2.681.024-.089.053-.172.086-.251.531-1.283 2.09-.875 3.081-.464"/><path d="m64.39 84.64l-45.93-19.03c-1.152-.477-2.849-.841-3.454.618-.036.087-.069.182-.097.284-.237.86-.158 1.837-.081 2.78.11 1.349.168 2.82-.17 4.127-.191.738-.604 1.434-1.408 1.6-.72.149-1.434-.203-1.933-.705-.682-.685-.993-1.639-1.086-2.581.139.184.281.32.42.412.414.273.885.186 1.161-.231.51-.771.247-2.513.042-3.872-.07-.462-.133-.88-.155-1.189v-.004c-.047-.652-.063-1.298 0-1.905.19-1.855 1.208-3.121 3.249-2.888 1.207.138 2.562.69 3.733 1.173l46.566 19.218c1.227.506.334 2.689-.858 2.196" fill="url(#6)"/><path d="m65.745 66.69l-45.93 19.03c-1.542.639-2.65-2.074-1.075-2.724l46.566-19.218c1.189-.49 2.565-1.05 3.809-1.193 2.207-.253 3.359 1.127 3.566 3.143.064.627.048 1.289 0 1.954v.004c-.023.324-.087.745-.157 1.211-.198 1.312-.451 2.993-.002 3.672.189.287.481.338.765.15.445-.294.668-.877.904-1.338-.022 1.423-.115 2.847-1.209 3.947-.568.571-1.377.952-2.193.783-.914-.189-1.408-.962-1.627-1.808-.346-1.336-.292-2.841-.179-4.22.075-.919.152-1.871-.071-2.681-.024-.089-.053-.172-.086-.251-.531-1.283-2.09-.875-3.081-.464"/><path d="m19.707 85.45l45.93-19.03c1.152-.477 2.849-.841 3.454.618.036.087.069.182.097.284.237.86.158 1.837.081 2.78-.11 1.349-.168 2.82.17 4.127.191.738.604 1.434 1.408 1.6.72.149 1.434-.203 1.933-.705.682-.685.993-1.639 1.086-2.581-.139.184-.281.32-.42.412-.414.273-.885.186-1.161-.231-.51-.771-.247-2.513-.042-3.872.07-.462.133-.88.155-1.189v-.004c.047-.652.063-1.298 0-1.905-.19-1.855-1.208-3.121-3.249-2.888-1.207.138-2.562.69-3.733 1.173l-46.566 19.218c-1.227.506-.334 2.689.858 2.196" fill="url(#5)"/><path d="m9.697 48.49c-.884.819-1.911 1.426-3.072 1.758-.098.35-.176.694-.223 1.028-.046.333-.06.657-.031.968v.006c.02.369.112.6.275.693.165.094.421.06.768-.101.878-.445 1.716-1 2.334-1.782l.004-.005.006-.007c.51-.512 1.066-1.635.428-2.271-.119-.119-.28-.217-.49-.286" fill="url(#4)"/><path d="m63.985 39.41l-6.103 3.986c.018.003.035.006.053.009.726.104 1.46.098 2.258.088 1.053-.013 2.218-.023 3.642.212 1.64.27 3.226.769 4.551 1.729 1.329.963 2.389 2.384 2.972 4.48h.009c.073.263.131.558.194.873.117.587.253 1.151.432 1.72.201.637.39 1.241.326 1.773-.026.219-.049.433-.062.653 1.076.128 2.113-.205 3.02-.776-.601-.6-.78-1.111-.732-1.482.077-.59.738-.854 1.208-.503.251.187.443.544.441 1.102.545-.41.848-1.01.758-1.693-.041-.315-.156-.629-.335-.926-.405-.669-1.01-1.091-1.711-1.393.136-.167.235-.302.459-.362.293-.078.723-.016 1.199.291 0-.179-.035-.356-.106-.52-.272-.629-1.047-1.143-2.214-1.438-.251-.063-.49-.149-.714-.265-.223-.115-.429-.26-.626-.423-.997-.828-1.643-2.25-1.967-4.03-.204-1.122-.569-1.438-1.014-1.535-.446-.097-.99-.039-1.429.018-.5.064-1.01.128-1.464-.009-.296-.089-.535-.271-.767-.459-.117-.095-.225-.189-.344-.265-.311-.198-.646-.365-.97-.503-.325-.138-.643-.253-.926-.344l-.035-.009" fill="url(#N)"/><path d="m67.995 42.1l.15-.028c.254-.047.51-.095.752-.11.667-.041 1.207.152 1.269 1.171.028.46.104.829.224 1.132.118.297.28.531.483.726l-.198.206c-.231-.222-.416-.489-.55-.827-.132-.332-.215-.73-.245-1.221-.048-.785-.459-.934-.967-.903-.226.014-.472.06-.717.105-.039.007-.077.014-.151.028l-.05-.281" fill="#1f1a17"/><path d="m28.03 27.446l-.003-.037-.019-.226h.004c.143-.001.29-.017.44-.019l-.198-3.601-.003-.056c1.042-1.253 1.931-2.615 2.776-4.01l-4.01-3.796c.022.177.005.354-.065.505-.074.158-.204.285-.406.354.034.2-.018.409-.128.578-.281.436-.689.385-1.142.407-.642.032-1.216.061-1.812-.065h-.0001l-.011-.002h-.0001c-.168-.038-.325-.121-.485-.205-.192-.101-.389-.205-.58-.209-.374-.009-.76.015-1.153.039-.892.055-1.78.085-2.671.148-.337.661-.776 1.264-1.105 1.929-.299.606-.498 1.18-.474 1.699.023.491.251.943.793 1.339.73-.121 1.3-.555 1.761-1.098 1.58 1.085 4.051 1.289 5.717.229l.003-.002.156.239-.003.002h-.0001c-1.669 1.063-4.199.949-5.821-.09-.449.49-1.05.866-1.707.991.005 1.101-.071 2.21.123 3.3.119.67.265 1.385.557 2.02.302-1.102 1.196-1.889 2.332-2.03 1.231-.152 2.44.48 2.979 1.605.011.023.022.047.033.07l-.135.06.357.923 3.907-.994" fill="url(#J)"/><path d="m34.06 30.12l-.004.0001-.049.019c-.83-2.148-3.861-2.828-5.973-2.677l-.002-.022-3.907.994-.357-.923-.126.056c-.471-1.056-1.582-1.648-2.716-1.508-1.152.142-1.973 1-2.16 2.137.055.09.113.178.176.263.438.589.832 1.217 1.171 1.96.284.623.528 1.326.724 2.153.04-.099.08-.198.119-.297.154-.382.308-.763.439-1.151.3-.89.209-1.802-.141-2.622-.068-.161-.147-.318-.234-.47-.087-.152-.183-.3-.288-.445l.231-.168c.11.151.212.309.305.472.093.162.176.329.249.499.376.881.473 1.863.149 2.825-.134.398-.289.781-.444 1.166-.334.829-.672 1.665-.794 2.624-.154 1.212-.204 2.43-.098 3.617.101 1.143.347 2.26.783 3.319 1.016-.201 2.01-.325 3.01-.382.605-.035 1.209-.045 1.813-.032.423-.672 1.331-.905 2.078-.755l-.056.28c-.583-.117-1.272.024-1.674.485.32.012.64.029.961.053.522.039.893.29 1.119.636.545.835.212 2.142-.798 2.425l-.077-.275c.823-.231 1.075-1.321.635-1.993-.18-.275-.478-.476-.9-.507-1.033-.076-2.057-.09-3.086-.031-1.029.059-2.064.191-3.117.407-.532.109-1.023.239-1.555.238-.587-.0001-1.12-.1-1.719.016-1.109.216-2.084.908-2.44 2.156-.308 1.082-.705 2.057-1.204 2.972-.546 1-1.218 1.92-1.969 2.776-.521.594-1 1.143-.841 2.406v.002c.015.119.036.266.057.414.121.86.246 1.755-.036 2.594-.12.357-.178.667-.14.951.032.234.131.455.317.679 1.01-.518 1.845-1.26 2.516-2.17l-.012-.035v-.002c-.097-.309-.169-.634-.175-.959-.014-.737.429-1.337 1.14-1.338.2 0 .406.049.598.155.268.148.508.405.668.791.41-.363.55-.787.532-1.244-.028-.708-.371-1.376-.664-2.01.567.189.931.385 1.356.888.254-.659-.022-1.414-.35-1.993-.543-.958-.272-1.943.253-2.835.764-.276 1.251-.608 1.73-1.269.562.273 1.129.528 1.721.731 1.413.486 2.901.709 4.306.48h.002c.152-.025.298-.052.444-.079.64-.119 1.271-.237 1.927-.081.596.142 1.21.243 1.824.207.838-.049.819-.432.796-.908-.021-.431-.013-.811.218-1.195 1.225-.759 2.475-1.897 2.894-3.313l.105.031.025.007c.81-3.562 1.084-7.285.715-11.201" fill="url(#K)"/><path d="m48.937 35.38l.032-.039.064-.079c.627.513 1.119.98 1.664 1.597.542.613 1.133 1.372 1.959 2.472l.002.002c.445.593.927 1.16 1.447 1.689 1.28 1.301 2.647 2.21 3.831 2.379.726.104 1.458.095 2.255.085 1.053-.013 2.22-.027 3.645.208 1.64.27 3.227.774 4.551 1.734 1.329.963 2.391 2.382 2.974 4.478.073.264.133.56.196.875.117.587.255 1.148.434 1.716.201.637.39 1.239.326 1.77-.026.219-.046.438-.059.658 1.076.128 2.108-.204 3.01-.775-.601-.6-.776-1.116-.728-1.487.077-.59.737-.849 1.207-.498.251.187.444.545.442 1.104.545-.41.85-1.012.761-1.699-.041-.315-.159-.63-.338-.927-.405-.669-1.01-1.092-1.715-1.395.136-.167.24-.298.464-.357.293-.078.721-.017 1.198.29 0-.179-.037-.356-.108-.52-.272-.629-1.041-1.139-2.209-1.434-.252-.064-.49-.154-.715-.27-.223-.115-.433-.255-.63-.419-.997-.828-1.642-2.251-1.965-4.03-.204-1.122-.566-1.443-1.011-1.54-.446-.097-.992-.034-1.431.023-.5.064-1.01.13-1.466-.007-.296-.089-.529-.277-.761-.466-.117-.095-.234-.189-.353-.265-.311-.198-.642-.362-.966-.5-.325-.138-.643-.249-.926-.34l-.085-.027-.013-.088c-.176-1.18-.408-2.198-.682-3.098-.273-.899-.589-1.683-.931-2.393-1.288-2.676-3.755-4.316-6.455-5.261-1.967-.689-4.263-1.079-6.323-.507-1.424.395-2.726 1.215-2.902 2.346h-.003l-.09-.014c.414 2.056 1.295 3.644 2.401 5.01" fill="url(#M)"/><path d="m30.384 45.3c1.23-.15 2.631-.091 4.098-.029 1.848.078 3.801.16 5.627-.17 2.448-.442 4.87-1.389 7.406-2.38 1.866-.729 3.794-1.483 5.844-2.08-.325-.366-.635-.746-.928-1.137l-.002-.003c-.821-1.095-1.409-1.849-1.944-2.454-.532-.601-1.015-1.059-1.632-1.565l.085-.104c-1.105-1.364-1.987-2.952-2.401-5.01l-.188-.029c.03-.194.089-.379.171-.555-2.323.32-4.61.566-6.769.574-2.039.007-3.961-.199-5.687-.758.078.139.147.284.206.436l-.214.083c.369 3.916.096 7.639-.715 11.201l.144.042c-.436 1.471-1.696 2.635-2.958 3.438-.089.16-.129.329-.144.498" fill="url(#L)"/><path d="m24.904 41.814c-.257.006-.519.021-.776.035-1.029.059-2.06.19-3.113.406-.532.109-1.02.24-1.552.238-.587-.0001-1.121-.107-1.72.009-1.109.216-2.088.913-2.443 2.161-.308 1.082-.7 2.057-1.199 2.972-.546 1-1.225 1.922-1.976 2.778-.521.594-.999 1.136-.838 2.399v.009c.015.119.032.267.053.415.121.86.247 1.755-.035 2.593-.12.357-.171.669-.132.953.032.234.123.455.309.679 1.01-.518 1.852-1.26 2.522-2.17l-.018-.035v-.009c-.097-.309-.161-.627-.168-.953-.014-.737.427-1.339 1.138-1.341.2 0 .407.052.6.159v-.009c.268.148.502.408.661.794.41-.363.556-.786.538-1.244-.028-.708-.378-1.371-.67-2 .567.189.934.379 1.358.882.254-.659-.025-1.415-.353-1.993-.543-.958-.269-1.939.256-2.831.764-.276 1.25-.609 1.729-1.27.562.273 1.127.528 1.72.732 1.413.486 2.908.705 4.313.476.152-.025.295-.052.441-.079.64-.119 1.276-.235 1.931-.079.099.024.2.041.3.062l-.176-1.914c-.015.005-.029.013-.044.018l-.079-.273c.823-.231 1.075-1.321.635-1.993-.18-.275-.478-.48-.9-.512-.775-.057-1.54-.079-2.311-.062" fill="url(#O)"/></g></svg>