<svg xmlns="http://www.w3.org/2000/svg" width="300" height="356" viewBox="0 0 84.666667 100.47111" fill-rule="evenodd"><path d="m62.61 47.979c.829 0 1.502.674 1.502 1.504v1.504c0 .831-.673 1.504-1.502 1.504h-1.502v-4.512h1.502m0 6.02c1.659 0 3-1.347 3-3.01v-1.504c0-1.661-1.345-3.01-3-3.01h-3v7.521h3m-6.01-7.521h1.502v7.521h-1.502v-7.521m-3 0h1.502v7.521h-1.502l-3-4.722v4.722h-1.502v-7.521h1.502l3 4.722v-4.722m-22.529 0h4.506v1.504h-3v1.504h3v1.504h-3v1.504h3v1.504h-4.506v-7.521m-6.01 0h1.502v6.02h3v1.504h-4.506v-7.521m15.771 6.02h1.502c1.244 0 2.253-1.01 2.253-2.256 0-1.246-1.028-2.252-2.253-2.256h-1.502v1.504h1.502c.415 0 .751.337.751.752 0 .415-.336.752-.751.752h-1.502v1.504m1.502-7.521c2.903 0 5.257 2.358 5.257 5.265 0 2.907-2.354 5.265-5.257 5.265-2.903 0-5.257-2.358-5.257-5.265 0-2.907 2.354-5.265 5.257-5.265m0 1.504c2.073 0 3.755 1.684 3.755 3.76 0 2.076-1.681 3.76-3.755 3.76-2.073 0-3.755-1.684-3.755-3.76 0-2.076 1.681-3.76 3.755-3.76" fill="#a90000"/><path d="m84.67 58.07c0 23.411-18.958 42.4-42.33 42.4-23.376 0-42.33-18.986-42.33-42.4v-58.07h84.67v58.07"/><path d="m84.1 58.07v-57.5h-83.53v57.5c0 23.1 18.703 41.827 41.764 41.827 23.06 0 41.764-18.731 41.764-41.827" fill="#f8e335"/><path d="m17.02.567v90.77c7.03 5.373 15.798 8.57 25.318 8.57 9.52 0 18.293-3.197 25.318-8.57v-90.77h-50.635" fill="#3c82c2"/><g transform="matrix(1.07799 0 0 1.07817-71.05-109.79)" fill-rule="nonzero"><path d="m85.06 154.03l8.778-32.24.032-1.115c-.555-.158-1.133-.216-1.709-.168.001.285-.016.553-.32.668-.397.149-.897.157-1.311.175-1.129.051-2.073-.283-3.134-.552-.548-.139-1.117-.191-1.676-.266.575-.103 1.151-.224 1.733-.279 1.146-.108 2.304-.027 3.444-.211v-.282c0-.254.135-.445.377-.524.851-.278 1.755-.321 2.643-.266l.023-.789h.329l.02 4.061.022.015c2.576 1.742 5.246 2.824 7.968 3.549 2.649.705 5.35 1.073 8.06 1.379l1.383-2.145.28.174-.003.004-.002.003-1.272 2.114.002.031v.003c.073 1.181.189 2.421.344 3.701.155 1.278.349 2.592.577 3.925 1.165 6.817 3.218 14.13 5.517 19.535h5.317v1.014h-.685v1.322h3.384v.952c.449.086.812.201 1.156.323l-.11.311c-.334-.119-.686-.231-1.115-.312-.433-.082-.947-.135-1.605-.135-1.502 0-2.253.275-3 .55-.78.286-1.561.572-3.13.572-1.568 0-2.349-.286-3.13-.572-.752-.275-1.503-.55-3-.55-1.502 0-2.253.275-3 .55-.78.286-1.561.572-3.13.572-1.568 0-2.349-.286-3.13-.572-.752-.275-1.503-.55-3-.55-1.503.0001-2.254.275-3 .55-.78.286-1.561.572-3.13.572-1.568 0-2.349-.286-3.129-.572-.752-.275-1.503-.55-3-.55-1.501 0-2.253.275-3 .55h-.002l-.114-.31h.002c.495-.181.991-.363 1.688-.47l-.66-2.19c-.014-.048-.029-.094-.045-.141-.066-.201-.139-.427-.139-.638 0-.22.089-.419.233-.563.106-.106.242-.182.394-.215m8.739-30.829l-8.396 30.831c.354.08.622.399.622.776 0 .192-.069.376-.193.52l.102.338 6.933.085.931-32.55m.499.098l.144 28.556.799-1.24c.115-1.158.217-2.311.304-3.457.117-1.539.207-3.055.266-4.542.291-7.233-.109-13.924-1.513-19.318m23.19 32.754c-.078-.168-.155-.337-.231-.507h-3.517v-1.014h3.076c-.075-.177-.149-.355-.223-.536-.96-.208-1.926-.399-2.897-.572-1-.179-2-.339-2.996-.478-4.974-.699-9.99-.942-14.914-.767l-1.328 2.206.007 1.386 23.02.282m2.788-.507v1.322h1.2v-1.322h-1.2m-2.657 0c.077.171.156.341.235.511l.726.009-1.563 2.727c.117.004.238.006.365.006.633 0 1.132-.048 1.555-.125v-1.806h1.01v-1.322h-2.326"/><path d="m110.15 127.5c-2.669-.304-5.329-.673-7.945-1.37-2.625-.699-5.203-1.726-7.697-3.347 1.506 5.5 1.939 12.389 1.639 19.849-.061 1.503-.15 3.02-.266 4.553-.071.935-.152 1.878-.242 2.826l14.512-22.512m3.606 25.601c.897.16 1.793.336 2.689.528-2.134-5.303-4.01-12.158-5.111-18.573-.229-1.34-.424-2.66-.579-3.942-.136-1.123-.243-2.22-.317-3.278l-14.448 24.01c4.875-.162 9.836.085 14.757.777 1.012.142 2.02.302 3.01.48m-19.299.652l11.767-19.554-11.774 18.263.007 1.291m-1.253 2l.934.011-.007-1.427-.132-26.353-.794 27.769m-2.298-35.37c-.669.104-1.336.121-2 .138-.376.001-.752.019-1.124.045.358.102.713.217 1.076.302.633.149 1.368.259 2.388.091.234-.039.13-.283-.038-.322-.138-.031-.301.013-.301-.254m2.982-.04l.03-1.036c-.85-.053-1.717-.016-2.531.25-.106.034-.15.1-.15.21v.223.346c.88-.217 1.779-.227 2.651.006m22.762 38.435l1.367-2.386-31.976-.392.507 1.683c.054-.0001.11-.0001.166-.0001 1.562 0 2.34.285 3.118.57.752.275 1.505.551 3.02.551 1.511 0 2.264-.276 3.02-.551.779-.285 1.558-.57 3.118-.57 1.562.0001 2.34.285 3.118.57.752.275 1.505.551 3.02.551 1.511 0 2.264-.276 3.02-.551.778-.285 1.556-.57 3.118-.57 1.563 0 2.34.285 3.118.57.619.227 1.239.453 2.28.527m-30.443-1.086l-.742-2.461c.131-.115.238-.229.238-.419 0-.256-.211-.467-.466-.467-.129 0-.245.053-.33.137-.084.084-.136.201-.136.329 0 .158.065.359.124.537.017.052.034.103.047.148l.676 2.241c.182-.02.378-.035.59-.045m35.957-2.828h-8.09v.355h8.09v-.355m-2.216 2.655v-.318h-.677v1.406c.428-.101.779-.229 1.13-.357.778-.285 1.556-.57 3.118-.57.527 0 .965.033 1.343.087v-.566h-3.054v.318h-.331v-.318h-1.2v.318h-.331" fill="#fff"/></g></svg>