<svg xmlns="http://www.w3.org/2000/svg" width="300" height="360" viewBox="0 0 84.666667 101.6" fill-rule="evenodd"><path d="m62.58 48.55c.828 0 1.5.672 1.5 1.5v1.5c0 .828-.672 1.5-1.5 1.5h-1.5v-4.5h1.5m0 6c1.657 0 3-1.343 3-3v-1.5c0-1.657-1.343-3-3-3h-3v7.5h3m-6-7.5h1.5v7.5h-1.5v-7.5m-3 0h1.5v7.5h-1.5l-3-4.709v4.709h-1.5v-7.5h1.5l3 4.709v-4.709m-22.5 0h4.5v1.5h-3v1.5h3v1.5h-3v1.5h3v1.5h-4.5v-7.5m-6 0h1.5v6h3v1.5h-4.5v-7.5m15.75 6h1.5c1.242 0 2.25-1.01 2.25-2.25 0-1.242-1.026-2.246-2.25-2.25h-1.5v1.5h1.5c.414 0 .75.336.75.75 0 .414-.336.75-.75.75h-1.5v1.5m1.5-7.5c2.899 0 5.25 2.351 5.25 5.25 0 2.899-2.351 5.25-5.25 5.25-2.899 0-5.25-2.351-5.25-5.25 0-2.899 2.351-5.25 5.25-5.25m0 1.5c2.071 0 3.75 1.679 3.75 3.75 0 2.071-1.679 3.75-3.75 3.75-2.071 0-3.75-1.679-3.75-3.75 0-2.071 1.679-3.75 3.75-3.75" fill="#a90000"/><g transform="matrix(.90221 0 0 .90394-51.729-84.39)"><g><path d="m104.26 93.36c16.354 0 31.17 2.825 41.897 7.392 1.765.751 3.421 1.551 4.956 2.393v22.985c-3.493 2.685-5.745 6.904-5.745 11.649 0 4.745 2.252 8.963 5.745 11.648 0 9.521.94 19.561-4.15 28.16-5.138 8.682-14.976 12.932-23.838 16.759-6.757 2.918-13.928 5.689-18.865 11.41-4.937-5.721-12.11-8.491-18.865-11.41-8.862-3.828-18.7-8.08-23.838-16.759-5.09-8.6-4.15-18.641-4.15-28.16 3.493-2.685 5.745-6.903 5.745-11.648 0-4.745-2.252-8.964-5.745-11.649v-22.985c1.535-.842 3.191-1.642 4.956-2.393 10.73-4.566 25.543-7.392 41.897-7.392"/><path d="m104.26 94.09c-15.15 0-32.468 2.144-46.12 9.491v22.2c3.62 2.92 5.742 7.334 5.742 12 0 4.655-2.147 9.1-5.742 12-.03 9.247-.884 19.11 4.048 27.44 5.066 8.56 14.785 12.697 23.499 16.46 6.609 2.854 13.568 5.56 18.577 10.988 5.01-5.428 11.968-8.133 18.577-10.988 8.714-3.764 18.434-7.901 23.499-16.46 4.932-8.334 4.077-18.19 4.048-27.44-3.595-2.899-5.742-7.345-5.742-12 0-4.666 2.123-9.08 5.742-11.999v-22.2c-13.656-7.347-30.971-9.491-46.12-9.491" fill="#3c82c2" fill-rule="nonzero"/></g><g fill-rule="nonzero"><path d="m106.31 173.79c-.544 2.651-1.603 4.78-3.34 6.151l-.334.264.05-.422c.32-2.677-.013-5.05-.332-7.335-.314-2.247-.616-4.409-.287-6.701-1.012 2.045-1.683 4.58-2.338 7.06l-.13.491-.127.481-.203-.454c-.576-1.289-.884-2.76-.996-4.349-.1-1.425-.043-2.946.118-4.516-.721.835-1.033 1.766-1.371 2.775-.458 1.366-.962 2.872-2.555 4.507l-.256.263-.045-.364c-.178-1.451-.211-2.916-.065-4.397.124-1.254.376-2.519.777-3.795-.848.836-1.689 1.703-2.508 2.65-.986 1.14-1.942 2.398-2.845 3.861l-.257.416-.067-.484c-.214-1.542-.1-3.075.314-4.608.261-.967.643-1.934 1.136-2.901-.686.758-1.378 1.44-2.075 2.047-1.128.982-2.273 1.771-3.435 2.374l-.559.29.328-.538c.709-1.164 1.162-2.421 1.631-3.722.363-1.01.735-2.042 1.243-3.084-1.551 1.725-3.1 3.076-4.655 4.114-1.95 1.301-3.909 2.108-5.894 2.541l-.6.131.441-.429c1.424-1.387 2.402-2.926 3.379-4.463 1.311-2.062 2.621-4.123 5.01-5.846-1.096.308-2.216.684-3.336 1.103-1.465.548-2.935 1.172-4.356 1.816l-.483.219.257-.464c1.341-2.428 3.825-4.208 6.424-6.07l.154-.111c-1.707-.021-3.119.38-4.486.768-1.338.38-2.634.748-4.136.711l-.388-.001.263-.285c1.019-1.106 2.166-2.085 3.462-2.945.973-.645 2.031-1.224 3.181-1.737-1.149.127-2.283.223-3.4.262-1.527.053-3.02.002-4.492-.215l-.488-.072.423-.253c.337-.201.68-.414 1.038-.637 1.621-1.01 3.567-2.213 5.765-2.928-1.857.068-3.673.026-5.407-.193-2.305-.291-4.461-.896-6.371-1.971l-.438-.246.496-.081c1.087-.177 2.202-.392 3.325-.608 2.819-.543 5.685-1.095 8.489-1.12-.927-.273-1.823-.62-2.694-1.034-1.378-.656-2.693-1.481-3.966-2.453l-.599-.457.739.144c1.426.278 2.811.204 4.198.129 1.221-.065 2.445-.131 3.711.038-.434-.27-.865-.554-1.293-.837-1.779-1.174-3.538-2.335-5.504-2.444l-.393-.022.279-.279c1.466-1.465 3.534-1.763 6.096-1.074.49.132 1 .301 1.531.506l.139.055c-1.11-.859-2.112-1.77-2.997-2.735-1.229-1.34-2.234-2.784-2.993-4.342l-.257-.527.505.298c1.014.6 2.046 1.015 3.115 1.446 1.406.566 2.879 1.16 4.482 2.231-.742-.849-1.428-1.712-2.04-2.594-.95-1.37-1.721-2.786-2.245-4.264l-.208-.587.485.391c.996.804 2.02 1.345 3.09 1.915 1.133.601 2.327 1.235 3.629 2.244-.971-1.324-1.814-2.632-2.635-3.907-1.47-2.283-2.873-4.462-4.825-6.429l-.482-.486.656.193c3.323.976 6.435 2.762 8.927 5.58.485.548.946 1.135 1.381 1.762.115.166.229.336.341.509-.191-.615-.361-1.217-.528-1.811-.472-1.675-.924-3.279-1.775-4.873l-.264-.494.499.254c1.327.677 2.534 1.53 3.599 2.596.686.687 1.313 1.463 1.872 2.336-.266-.999-.429-1.984-.499-2.956-.108-1.511.009-2.992.307-4.449l.13-.633.209.612c.461 1.347 1.204 2.486 1.977 3.672.715 1.097 1.457 2.234 2.036 3.621.725-2.609.444-5.066.164-7.508-.038-.335-.077-.67-.117-1.047l-.063-.59.374.461c.827 1.021 1.56 2.188 2.188 3.578.42.929.793 1.959 1.115 3.112-.08-3.103.236-5.828.837-8.159.14-.544.295-1.066.463-1.563.169-.5.352-.979.547-1.435l.002-.005.221-.525.114.558c.2.975.466 1.995.742 3.052.756 2.896 1.583 6.06 1.337 9.386.421-.645.826-1.737 1.254-2.893.718-1.939 1.502-4.056 2.632-4.735l.002-.0001h.0001l.309-.18-.046.355c-.152 1.162-.139 2.323-.126 3.485.016 1.415.031 2.833-.246 4.274.439-.726.864-1.551 1.297-2.39.938-1.818 1.913-3.708 3.17-4.89l.384-.384-.085.535c-.191 1.204-.192 2.319-.193 3.423-.0001 1.701-.003 3.379-.683 5.343.799-.844 1.574-1.76 2.339-2.724.958-1.206 1.898-2.484 2.858-3.79l.425-.579-.109.709c-.065.421-.119.798-.172 1.164-.329 2.279-.611 4.229-1.739 6.517 1.808-1.882 3.586-3.01 5.507-4.229 1.716-1.089 3.547-2.251 5.613-4.092l.598-.533-.319.735c-.222.512-.433 1.023-.645 1.537-1.344 3.263-2.724 6.616-6.881 9.632.653-.253 1.309-.486 1.967-.72 1.856-.658 3.73-1.323 5.581-2.474l.571-.355-.324.59c-1.03 1.875-2.705 3.626-4.673 5.204-.377.303-.77.602-1.176.899-.152.111-.305.221-.458.329 1.089-.334 2.21-.936 3.337-1.541 1.472-.791 2.956-1.587 4.434-1.828h.003.004l.62-.093-.482.402c-1.3 1.086-2.094 2.023-2.855 2.922-.945 1.116-1.842 2.175-3.583 3.392 1.28-.17 2.572-.403 3.863-.729 1.535-.388 3.07-.908 4.585-1.612l.435-.202-.202.436c-.668 1.446-1.824 2.566-3.25 3.517-1.109.739-2.381 1.375-3.714 1.983 2.159-.25 4.318-.315 6.452-.185.497.03.994.071 1.491.123.499.052.993.114 1.481.186l.129.019 1.1.166-1.098.182c-1.962.326-3.156 1.034-4.365 1.751-1.082.642-2.177 1.291-3.831 1.692 1.395.059 2.791.183 4.187.415 2.02.335 4.04.894 6.05 1.803l.546.246-.593.089c-1.591.238-3 .621-4.318.976-2.218.6-4.16 1.125-6.238.781.868.419 1.746.787 2.65 1.112 1.419.511 2.902.916 4.508 1.244l.543.111-.508.223c-1.583.693-3.157.936-4.73.95-1.396.012-2.785-.155-4.178-.347.901.837 2.082 1.374 3.278 1.917 1.775.807 3.584 1.629 4.65 3.473l.178.307-.351-.044c-.666-.083-1.272-.149-1.855-.212-2.254-.243-4.163-.45-6.196-1.277 1.14.924 2.126 1.871 3 2.833 1.209 1.327 2.208 2.684 3.116 4.052l.425.641-.662-.392c-1.349-.8-2.724-1.432-4.106-2.067-1.181-.543-2.368-1.089-3.549-1.743 1.693 1.656 3.168 3.584 4.67 5.548 1.385 1.81 2.793 3.651 4.411 5.329l.331.331-.466-.03c-2.436-.154-4.731-1.12-6.904-2.714-1.844-1.353-3.6-3.161-5.279-5.311.773 1.544 2.032 3.38 3.291 5.216.377.549.754 1.099 1.135 1.667l.003.002.25.374-.438-.106c-2.698-.652-5.083-2.91-7.248-5.05.726 1.554 1.313 3.033 1.67 4.388.432 1.638.531 3.101.14 4.304l-.129.398-.194-.371c-.821-1.571-1.874-2.871-2.917-4.16-.682-.841-1.359-1.678-1.97-2.586.204 1.15.247 2.332.289 3.494.061 1.672.121 3.304.661 4.716l.157.41-.397-.188c-1.139-.54-2.082-1.598-2.9-2.986-.556-.944-1.055-2.042-1.517-3.232.485 3.33.713 6.482-.962 8.323l-.254.279-.051-.374c-.477-3.524-1.15-4.987-1.755-6.301-.205-.445-.403-.874-.582-1.359.157 2.756.058 5.29-.389 7.468"/><path d="m103.09 179.38c1.472-1.319 2.391-3.27 2.882-5.667.53-2.583.564-5.681.258-9.06.119-.011.237-.022.355-.034.261 1.258.627 2.053 1.022 2.912.592 1.286 1.248 2.711 1.728 6 1.519-2.071.952-5.688.386-9.306l-.027-.17c.114-.029.226-.061.339-.092.627 1.819 1.304 3.494 2.096 4.84.686 1.165 1.457 2.083 2.357 2.634-.422-1.355-.477-2.859-.533-4.396-.053-1.459-.108-2.949-.483-4.348.11-.052.219-.104.328-.157.718 1.214 1.585 2.284 2.459 3.363.967 1.195 1.943 2.399 2.745 3.829.229-1.053.109-2.302-.257-3.69-.418-1.585-1.157-3.346-2.066-5.202.099-.069.197-.139.294-.209l.332.329c2.103 2.085 4.416 4.379 6.986 5.187-.281-.414-.574-.842-.868-1.271-1.608-2.345-3.214-4.688-3.839-6.467.092-.092.183-.185.274-.279 1.913 2.618 3.925 4.797 6.05 6.358 1.982 1.454 4.064 2.372 6.259 2.607-1.5-1.601-2.821-3.327-4.12-5.03-1.868-2.443-3.694-4.829-5.936-6.684.068-.098.135-.196.202-.295 1.662 1.087 3.356 1.866 5.04 2.64 1.169.537 2.332 1.072 3.479 1.707-.786-1.143-1.65-2.274-2.66-3.383-1.181-1.297-2.564-2.566-4.26-3.788.051-.108.102-.217.152-.326 2.586 1.431 4.829 1.673 7.601 1.972.486.052.987.106 1.494.167-1.031-1.536-2.679-2.285-4.298-3.02-1.353-.615-2.688-1.221-3.663-2.271.035-.127.069-.254.102-.382 1.541.216 3.076.423 4.603.41 1.354-.012 2.707-.197 4.064-.706-1.407-.309-2.725-.682-3.993-1.138-1.411-.508-2.761-1.12-4.103-1.86.012-.125.023-.249.033-.374l.044.017c2.62 1.012 4.919.39 7.642-.347 1.158-.313 2.392-.647 3.763-.888-1.806-.757-3.612-1.239-5.417-1.539-1.994-.331-3.988-.441-5.982-.454h-.036c-.008-.115-.017-.231-.027-.346l.046-.005c2.687-.273 4.113-1.119 5.519-1.953 1.02-.605 2.03-1.203 3.491-1.584-.199-.024-.397-.047-.594-.068-.489-.051-.981-.091-1.476-.121-2.495-.152-5.02-.036-7.548.336-.029-.117-.059-.233-.09-.349 1.701-.75 3.347-1.512 4.725-2.43 1.225-.817 2.241-1.758 2.899-2.929-1.387.61-2.787 1.073-4.187 1.426-1.516.383-3.03.638-4.529.815-.052-.118-.105-.236-.158-.353 2.065-1.345 3.03-2.486 4.054-3.694.663-.783 1.35-1.595 2.372-2.51-1.208.329-2.439.989-3.661 1.645-1.449.778-2.888 1.55-4.3 1.781-.065-.099-.129-.199-.195-.297l.033-.02h.0001c.413-.277.817-.559 1.209-.845.392-.286.781-.583 1.162-.889 1.726-1.385 3.221-2.9 4.237-4.512-1.687.959-3.379 1.559-5.055 2.154-1.247.442-2.485.882-3.7 1.462-.083-.089-.167-.178-.252-.266l.02-.012c5.383-3.227 6.916-6.95 8.403-10.561.115-.28.23-.559.347-.838-1.852 1.575-3.513 2.629-5.079 3.622-2.264 1.437-4.327 2.746-6.468 5.328l-.015.018c-.094-.069-.187-.138-.281-.205l.001-.017c1.741-2.857 2.062-5.076 2.449-7.759l.067-.464c-.819 1.113-1.627 2.198-2.445 3.228-.943 1.188-1.902 2.306-2.908 3.311-.11-.055-.22-.111-.331-.164.953-2.245.954-4.101.956-5.985.0001-.956.0001-1.919.124-2.947-1.046 1.15-1.906 2.816-2.736 4.425-.598 1.159-1.181 2.289-1.814 3.191-.121-.034-.242-.066-.364-.099.501-1.726.482-3.432.463-5.135-.011-1.038-.023-2.076.082-3.121-.87.804-1.546 2.63-2.17 4.317-.525 1.418-1.015 2.741-1.585 3.344-.134-.014-.268-.027-.403-.039v-.004-.005c.384-3.462-.485-6.792-1.276-9.82-.225-.863-.444-1.701-.626-2.513-.114.289-.222.587-.326.892-.167.494-.32 1.01-.456 1.538-.706 2.743-1.014 6.04-.735 9.875-.119.008-.237.016-.355.026-.399-1.866-.91-3.44-1.522-4.796-.517-1.145-1.106-2.135-1.76-3.01l.048.425c.295 2.576.592 5.168-.269 7.964-.138.035-.276.072-.413.109-.584-1.535-1.388-2.769-2.162-3.955-.671-1.029-1.32-2.024-1.79-3.157-.206 1.227-.277 2.472-.186 3.74.105 1.467.426 2.964 1 4.494-.108.048-.215.098-.322.149-.732-1.479-1.625-2.717-2.656-3.75-.904-.905-1.916-1.653-3.02-2.269.709 1.462 1.121 2.923 1.549 4.442.304 1.078.616 2.186 1.048 3.338-.1.069-.201.138-.3.208-.368-.689-.766-1.338-1.189-1.949-.427-.616-.879-1.192-1.355-1.729-2.281-2.579-5.094-4.277-8.112-5.272 1.735 1.86 3.037 3.881 4.395 5.99 1.085 1.685 2.207 3.427 3.612 5.181-.084.082-.167.165-.249.249l-.002-.002c-1.774-1.649-3.347-2.483-4.816-3.263-.915-.485-1.789-.949-2.652-1.575.5 1.242 1.176 2.442 1.985 3.608.929 1.34 2.031 2.636 3.243 3.905-.069.097-.136.195-.203.293l-.007-.006c-2.16-1.796-4.084-2.572-5.895-3.301-.906-.365-1.784-.719-2.653-1.183.708 1.333 1.604 2.578 2.672 3.743 1.196 1.304 2.609 2.508 4.218 3.62-.052.108-.102.216-.152.325-.55-.267-1.082-.5-1.594-.699-.515-.199-1.014-.364-1.496-.494-2.269-.611-4.121-.416-5.469.719 1.895.233 3.577 1.343 5.276 2.465.685.452 1.374.907 2.079 1.304-.032.115-.064.23-.094.346-1.568-.368-3.075-.287-4.579-.206-1.179.063-2.356.127-3.568-.022 1.075.774 2.18 1.442 3.329 1.988 1.348.642 2.758 1.118 4.25 1.406-.012.117-.022.234-.032.352h-.006c-3.29-.248-6.724.413-10.09 1.062-.946.182-1.886.364-2.826.525 1.756.902 3.711 1.424 5.793 1.687 2.248.284 4.646.266 7.096.096.008.12.017.24.027.359-2.837.519-5.34 2.072-7.34 3.313-.211.131-.417.259-.615.381 1.29.158 2.603.193 3.938.146 1.498-.052 3.03-.207 4.583-.403.029.116.059.232.089.347-1.574.614-2.983 1.337-4.248 2.176-1.156.767-2.191 1.63-3.119 2.595 1.283-.032 2.44-.36 3.63-.698 1.477-.419 3.01-.853 4.911-.772.061.136.124.27.188.404l-.467.335c-2.392 1.714-4.683 3.356-6.04 5.479 1.262-.563 2.563-1.107 3.868-1.595 1.441-.539 2.883-1.01 4.277-1.354.071.104.143.208.216.311-2.869 1.784-4.305 4.04-5.742 6.304-.886 1.395-1.774 2.791-2.999 4.088 1.743-.448 3.466-1.203 5.181-2.347 1.915-1.278 3.824-3.042 5.743-5.41v-.0001c.084.086.167.172.252.257-.974 1.524-1.526 3.059-2.058 4.536-.404 1.121-.795 2.21-1.35 3.243.95-.544 1.891-1.22 2.823-2.031 1.107-.964 2.199-2.117 3.277-3.467.096.069.192.136.289.203-.959 1.497-1.653 2.987-2.055 4.475-.358 1.325-.486 2.649-.363 3.976.835-1.303 1.711-2.442 2.611-3.482.98-1.134 1.988-2.15 3-3.136.11.051.22.102.331.151-.526 1.482-.844 2.946-.987 4.394-.131 1.325-.115 2.639.022 3.944 1.336-1.473 1.796-2.846 2.216-4.098.388-1.158.743-2.217 1.7-3.175.134.037.268.074.403.109-.195 1.707-.273 3.359-.165 4.895.096 1.356.336 2.621.768 3.752.761-2.877 1.545-5.832 2.869-8.04.121.011.243.022.365.031l-.001.044c-.616 2.645-.272 5.101.087 7.669.305 2.183.622 4.447.38 6.988" fill="#f8e73d"/></g><path fill="#3c82c2" d="m122.5 153.55l-18.32-31.73-18.31 31.73z"/><g fill-rule="nonzero"><path d="m104.18 121.33l18.75 32.47h-37.5z"/><path fill="#3c82c2" d="m86.04 153.45h36.29l-18.14-31.42z"/></g><g><path d="m92.92 143.93c1.558-.511 3.217-1.338 4.606-2.085 2.161-1.162 4.291-2.307 7.04-2.658 3.128-.398 6.457.384 8.61 2.835.119.135.233.275.341.419l.016.021c.628.829.986 1 1.01 2.084.016.922-.167 1.387-1.132 1.476-.772.071-1.436.298-2.108 1.019-2.477 2.657-6.203 3.864-9.791 3.406-3.374-.43-5.856-2.137-7.589-4.744-.796-.155-1.176-.988-1-1.773m15.602-2.529c.215.543.334 1.134.334 1.753 0 2.631-2.133 4.764-4.764 4.764-2.631 0-4.764-2.133-4.764-4.764v-.009c-.286.151-.571.304-.857.458-.866.466-1.738.935-2.662 1.357 1.313 2.02 3.593 3.209 5.952 3.51 2.952.376 6.04-.599 8.08-2.789.682-.732 1.487-1.308 2.466-1.546-.294-.359-.549-.733-.876-1.065-.808-.821-1.818-1.361-2.908-1.669m-4.43.095c.916 0 1.659.743 1.659 1.659 0 .916-.743 1.659-1.659 1.659-.916 0-1.659-.743-1.659-1.659 0-.916.743-1.659 1.659-1.659"/><g fill="#fdd07f"><path d="m104.92 141.16c.785.323 1.339 1.096 1.339 1.997 0 1.192-.967 2.159-2.159 2.159-1.192 0-2.158-.967-2.158-2.159 0-.546.204-1.046.539-1.426-.919.314-1.785.717-2.635 1.153-.006.09-.009.182-.009.274 0 2.355 1.909 4.264 4.264 4.264 2.355 0 4.264-1.909 4.264-4.264 0-.683-.16-1.328-.446-1.9-.984-.196-2.01-.218-2.999-.097"/><path d="m98.48 143.04c1.935-.954 3.864-2.045 6.262-2.369 1.776-.237 3.694-.035 5.305.779.316.159.622.344.915.555.937.674 1.5 1.518 2.239 2.421l-.772.188c-.876.213-1.612.751-2.218 1.402-1.112 1.193-2.517 2.045-4.04 2.535-1.013.325-2.081.491-3.153.491-.436 0-.873-.027-1.307-.082h-.005c-1.791-.228-3.542-.946-4.902-2.125-.578-.501-1.028-1.07-1.448-1.683-.308.135-.619.264-.931.39 1.082 1.586 2.458 2.812 4.163 3.581 1.299.585 2.732.881 4.156.915 2.095.05 4.182-.478 5.964-1.539.823-.49 1.58-1.097 2.233-1.797l.003-.004c.216-.232.434-.421.654-.573.53-.366 1.131-.543 1.774-.602.656-.06.689-.369.679-.972-.012-.691-.206-.927-.551-1.347-.426-.518-.762-.984-1.262-1.441-1.396-1.276-3.191-1.947-5.059-2.127-1.333-.128-2.679-.007-3.978.312-2 .492-3.705 1.407-5.427 2.333l-.004.002c-.701.377-1.472.775-2.267 1.144-.618.287-1.371.606-1.996.835-.085.39.07.761.518.903 1.501-.593 3.02-1.41 4.457-2.121" fill-rule="nonzero"/></g></g></g></svg>