<svg xmlns="http://www.w3.org/2000/svg" viewBox="0 0 300 360"><defs><linearGradient id="0" gradientUnits="userSpaceOnUse" y1="154.78" gradientTransform="matrix(8.89731 0 0 8.91431-559.89-800.59)" x2="0" y2="142.63"><stop stop-color="#f5ef37"/><stop stop-color="#fb0" offset=".502"/><stop stop-color="#f5ef37" offset="1"/></linearGradient></defs><g transform="translate(-225-352.36)"><g fill-rule="evenodd"><path fill="#a90000" d="m446.75 524.39c2.935 0 5.315 2.38 5.315 5.315v5.314c0 2.935-2.38 5.315-5.315 5.315h-5.315v-15.944h5.315m0 21.259c5.87 0 10.63-4.76 10.63-10.63v-5.314c0-5.87-4.76-10.63-10.63-10.63h-10.63v26.574h10.63m-21.26-26.574h5.315v26.574h-5.315v-26.574m-10.63 0h5.315v26.574h-5.315l-10.63-16.684v16.684h-5.315v-26.574h5.315l10.63 16.684v-16.684m-79.72 0h15.945v5.315h-10.63v5.315h10.63v5.315h-10.63v5.315h10.63v5.315h-15.945v-26.574m-21.26-.0001h5.315v21.26h10.63v5.315h-15.945v-26.575m55.808 21.26h5.313c4.402 0 7.972-3.57 7.972-7.972s-3.637-7.957-7.972-7.972h-5.313v5.315h5.313c1.467 0 2.658 1.19 2.658 2.658s-1.19 2.658-2.658 2.658h-5.313v5.315m5.313-26.575c10.272 0 18.602 8.33 18.602 18.602s-8.33 18.602-18.602 18.602-18.602-8.33-18.602-18.602 8.33-18.602 18.602-18.602m0 5.315c7.337 0 13.287 5.95 13.287 13.287 0 7.337-5.95 13.287-13.287 13.287-7.337 0-13.287-5.95-13.287-13.287 0-7.337 5.95-13.287 13.287-13.287"/><g stroke-width=".339"><path d="m375 352.36c52.28 0 99.64 9.05 133.94 23.676 5.643 2.406 10.936 4.967 15.844 7.665v73.62c-11.166 8.599-18.365 22.11-18.365 37.31 0 15.196 7.199 28.709 18.365 37.31 0 30.496 3.01 62.65-13.266 90.2-16.425 27.808-47.876 41.42-76.21 53.678-21.601 9.348-44.527 18.22-60.31 36.545-15.781-18.325-38.708-27.2-60.31-36.545-28.331-12.259-59.781-25.87-76.21-53.678-16.271-27.546-13.267-59.704-13.267-90.2 11.166-8.599 18.365-22.11 18.365-37.31 0-15.197-7.199-28.711-18.365-37.31v-73.62c4.909-2.698 10.202-5.259 15.845-7.665 34.3-14.626 81.66-23.676 133.94-23.676z"/><path d="m375 354.69c-48.44.0001-103.79 6.868-147.45 30.399v71.11c11.571 9.352 18.355 23.49 18.356 38.433 0 14.909-6.865 29.15-18.358 38.434-.095 29.617-2.827 61.2 12.94 87.89 16.194 27.415 47.27 40.665 75.12 52.72 21.13 9.143 43.37 17.807 59.39 35.19 16.01-17.386 38.26-26.05 59.39-35.19 27.858-12.05 58.93-25.305 75.12-52.72 15.767-26.693 13.03-58.27 12.939-87.89-11.493-9.286-18.358-23.525-18.358-38.434.0001-14.943 6.785-29.08 18.356-38.433v-71.11c-43.656-23.53-99.01-30.398-147.45-30.399z" fill="#df212c"/></g><g stroke="#000" stroke-width="1.888"><path d="m376.49 366.3c6.428-.579 11.57 1.484 15.251 7.539 5.468 8.995 7.33 18.842 6.474 28.545l77.79 117.67v9.957l-77.79 117.66c.856 9.702-1.01 19.55-6.474 28.545-3.681 6.06-8.823 8.118-15.251 7.54-5.952-.537-10.864-5.394-10.864-11.227 0-7.108 6.999-12.1 13.577-10.118.256-.349.504-.695.746-1.038-3.791-2.646-4.856-6.269-1.099-9.877 1.791-1.721 7.714-5.984 7.577-8.363-1.758-30.746-59.903-38.731-60.21-74.34-.098-11.399 7.948-20.813 23.615-28.46v-30.616c-15.667-7.647-23.713-17.06-23.615-28.46.305-35.605 58.45-43.59 60.21-74.34.137-2.379-5.786-6.643-7.577-8.363-3.757-3.608-2.692-7.231 1.099-9.877-.242-.344-.489-.69-.746-1.038-6.579 1.978-13.577-3.01-13.577-10.119 0-5.832 4.911-10.69 10.864-11.226zm96.22 158.73l-75.81-114.67c-2.463 10.263-7.589 20.439-14.683 28.478-10.557 11.963-27.335 25.466-29.686 39.04-1.438 8.304 2.483 16.11 14.498 21.296v51.704c-12.01 5.189-15.936 12.993-14.498 21.297 2.351 13.574 19.329 27.28 29.886 39.24 7.094 8.04 12.02 18.01 14.483 28.28l75.81-114.67z" fill="url(#0)"/><path d="m410.28 526.5c2.909 31.2 74.74 35.31 74.69 14.625-.017-6.919-5.851-11.663-11.916-14.849v-3.127c6.07-3.187 11.898-7.93 11.916-14.849.056-20.682-71.78-16.578-74.69 14.625v3.576z" fill="#f5ef37"/></g></g><g stroke="#000"><g stroke-width="1.888"><path d="m464.9 495.83l-9.66 28.89 9.66 28.892m-9.103-58.03l-9.743 29.14 9.743 29.14m-9.499-57.34l-9.429 28.2 9.429 28.2m-9.944-54.14l-8.671 25.934 8.671 25.936m-10.633-47.543l-7.224 21.606 7.225 21.607m47.828-48.897l-9.125 27.29 9.125 27.29" fill="none"/><path fill-rule="evenodd" fill="#f5ef37" d="m324.39 520.34h153.23v8.751h-153.23z"/></g><g fill="#f2f2f2" fill-rule="evenodd" stroke-width=".212" transform="matrix(8.89731 0 0 8.91431-559.89-800.59)"><path d="m99.64 149.48l-2.64-.07v-1.43l2.64-.11z"/><path d="m97.44 148.67l1.58 3.85-6.58-3.85 6.58-3.84z"/></g><path stroke-width="1.888" fill="none" d="m263.04 524.72h44.52"/></g></g></svg>