<svg xmlns="http://www.w3.org/2000/svg" xmlns:xlink="http://www.w3.org/1999/xlink" width="350" height="420" viewBox="0 0 98.777776 118.53334" fill-rule="evenodd"><defs><linearGradient xlink:href="#0" id="L" gradientUnits="userSpaceOnUse" x1="28.924" y1="25.749" x2="35.47" y2="26.476"/><linearGradient id="E" gradientUnits="userSpaceOnUse" x1="41.845" y1="58.894" x2="40.557" y2="57.3"><stop stop-color="#ccc"/><stop offset="1" stop-color="#fff"/></linearGradient><linearGradient xlink:href="#0" id="J" gradientUnits="userSpaceOnUse" x1="27.995" y1="23.19" x2="33.834" y2="25.302"/><linearGradient xlink:href="#0" id="H" gradientUnits="userSpaceOnUse" x1="35.977" x2="59.64"/><linearGradient xlink:href="#0" id="V" gradientUnits="userSpaceOnUse" x1="73.06" y1="50.617" x2="90.96" y2="69.24"/><linearGradient xlink:href="#0" id="I" gradientUnits="userSpaceOnUse" x1="33.1" y1="18.06" x2="36.593" y2="25.655"/><linearGradient id="M" gradientUnits="userSpaceOnUse" x1="29.759" y1="31.92" x2="33.22" y2="32.06"><stop stop-color="#ccc"/><stop offset=".495" stop-color="#f3f3f3"/><stop offset="1" stop-color="#ccc"/></linearGradient><linearGradient id="U" gradientUnits="userSpaceOnUse" gradientTransform="matrix(1.01795 0 0 1.01733-57.5-91.84)" x1="100.11" y1="141.47" x2="114.14" y2="164.5"><stop stop-color="#fff"/><stop offset=".626" stop-color="#ccc"/><stop offset="1" stop-color="#fff"/></linearGradient><linearGradient id="N" gradientUnits="userSpaceOnUse" x1="36.404" y1="32.689" x2="35.581" y2="37.995"><stop stop-color="#ccc"/><stop offset=".485" stop-color="#f3f3f3"/><stop offset="1" stop-color="#ccc"/></linearGradient><linearGradient id="T" gradientUnits="userSpaceOnUse" x1="45.84" y1="45.17" x2="46.37" y2="49.07"><stop stop-color="#ccc"/><stop offset=".447" stop-color="#f3f3f3"/><stop offset="1" stop-color="#ccc"/></linearGradient><linearGradient xlink:href="#0" id="Q" gradientUnits="userSpaceOnUse" x1="45.927" x2="71.23"/><linearGradient xlink:href="#0" id="P" gradientUnits="userSpaceOnUse" x1="38.734" y1="33.08" x2="45.28" y2="34.16"/><linearGradient xlink:href="#0" id="S" gradientUnits="userSpaceOnUse" x1="38.2" y1="25.923" x2="47.1" y2="26.352"/><linearGradient xlink:href="#0" id="G" gradientUnits="userSpaceOnUse" x1="46.878" y1="51.18" x2="90.46" y2="97.26"/><linearGradient id="7" gradientUnits="userSpaceOnUse" x1="10.156" y1="40.3" x2="21.13" y2="44.807"><stop stop-color="#ccc"/><stop offset=".465" stop-color="#f3f3f3"/><stop offset="1" stop-color="#ccc"/></linearGradient><linearGradient xlink:href="#0" id="8" gradientUnits="userSpaceOnUse" x1="14.237" x2="43.04"/><linearGradient id="4" gradientUnits="userSpaceOnUse" x1="42.07" y1="44.06" x2="42.37" y2="49.48"><stop stop-color="#ccc"/><stop offset=".449" stop-color="#f3f3f3"/><stop offset="1" stop-color="#ccc"/></linearGradient><linearGradient id="0" gradientUnits="userSpaceOnUse" x1="76.62" y1="128.05" x2="93.36" y2="151.33"><stop stop-color="#ccc"/><stop offset=".522" stop-color="#f3f3f3"/><stop offset="1" stop-color="#ccc"/></linearGradient><linearGradient id="3" gradientUnits="userSpaceOnUse" x1="39.502" y1="49.872" x2="51.25" y2="52.819"><stop stop-color="#ccc"/><stop offset=".487" stop-color="#f3f3f3"/><stop offset="1" stop-color="#ccc"/></linearGradient><linearGradient xlink:href="#0" id="D" gradientUnits="userSpaceOnUse" x1="36.29" y1="54.02" x2="40.26" y2="57.61"/><linearGradient xlink:href="#0" id="B" gradientUnits="userSpaceOnUse" x1="34.37" x2="40.06"/><linearGradient xlink:href="#0" id="C" gradientUnits="userSpaceOnUse" x1="32.379" y1="75.875" x2="32.31" y2="79.66"/><linearGradient xlink:href="#0" id="9" gradientUnits="userSpaceOnUse" gradientTransform="matrix(1.01795 0 0 1.01733-57.5-91.84)" x1="74.45" y1="125.64" x2="93.36" y2="151.33"/><linearGradient id="A" gradientUnits="userSpaceOnUse" x1=".834" y1="86.61" x2="34.718" y2="67.25"><stop stop-color="#ccc"/><stop offset=".36" stop-color="#f3f3f3"/><stop offset="1" stop-color="#ccc"/></linearGradient><radialGradient id="1" gradientUnits="userSpaceOnUse" cx="96.58" cy="128.81" r="4.616"><stop stop-color="#fff"/><stop offset=".22" stop-color="#f2f2f2"/><stop offset=".561" stop-color="#ccc"/><stop offset=".722" stop-color="#ccc"/><stop offset="1" stop-color="#ededed"/></radialGradient><radialGradient xlink:href="#1" id="R" gradientUnits="userSpaceOnUse" gradientTransform="matrix(1.5984 0 0 1.78718-27.09-20.508)" cx="45.27" cy="26.07" r="4.496"/><radialGradient xlink:href="#1" id="2" gradientUnits="userSpaceOnUse" gradientTransform="matrix(1 0 0 2.67236 0-69.18)" cx="53.44" cy="41.36" r="2.93"/><radialGradient xlink:href="#1" id="F" gradientUnits="userSpaceOnUse" gradientTransform="matrix(1.67154 0 0 1.90616-23.67-54.909)" cx="35.09" cy="60.52" r="3.075"/><radialGradient id="K" gradientUnits="userSpaceOnUse" gradientTransform="matrix(1.41303 0 0 1.41242-11.02-10.819)" cx="26.68" cy="26.23" r="1.361"><stop stop-color="#fff"/><stop offset="1" stop-color="#ccc"/></radialGradient><radialGradient xlink:href="#1" id="6" gradientUnits="userSpaceOnUse" gradientTransform="matrix(2.50248 0 0 2.46298-71.44-52.23)" cx="47.545" cy="35.33" r="2.131"/><radialGradient xlink:href="#1" id="O" gradientUnits="userSpaceOnUse" gradientTransform="matrix(1.54084 0 0 1.64861-16.311-22.346)" cx="30.973" cy="34.21" r="2.359"/><radialGradient xlink:href="#1" id="5" gradientUnits="userSpaceOnUse" gradientTransform="matrix(1.78365 0 0 1.77962-131.45-190.04)" cx="96.58" cy="128.81" r="4.616"/></defs><g><path d="m69.64 57.02c.828 0 1.5.672 1.5 1.5v1.5c0 .828-.672 1.5-1.5 1.5h-1.5v-4.5h1.5m0 6c1.657 0 3-1.343 3-3v-1.5c0-1.657-1.343-3-3-3h-3v7.5h3m-6-7.5h1.5v7.5h-1.5v-7.5m-3 0h1.5v7.5h-1.5l-3-4.709v4.709h-1.5v-7.5h1.5l3 4.709v-4.709m-22.5 0h4.5v1.5h-3v1.5h3v1.5h-3v1.5h3v1.5h-4.5v-7.5m-6 0h1.5v6h3v1.5h-4.5v-7.5m15.75 6h1.5c1.242 0 2.25-1.01 2.25-2.25 0-1.242-1.026-2.246-2.25-2.25h-1.5v1.5h1.5c.414 0 .75.336.75.75 0 .414-.336.75-.75.75h-1.5v1.5m1.5-7.5c2.899 0 5.25 2.351 5.25 5.25 0 2.899-2.351 5.25-5.25 5.25-2.899 0-5.25-2.351-5.25-5.25 0-2.899 2.351-5.25 5.25-5.25m0 1.5c2.071 0 3.75 1.679 3.75 3.75 0 2.071-1.679 3.75-3.75 3.75-2.071 0-3.75-1.679-3.75-3.75 0-2.071 1.679-3.75 3.75-3.75" fill="#a90000"/><path d="m49.27 118.53c-3.274-6.105-9.717-10.258-17.13-10.258h-21.556c-5.846 0-10.587-4.738-10.587-10.58v-97.7h98.78v97.7c0 5.843-4.741 10.58-10.587 10.58h-21.556c-7.414 0-13.857 4.153-17.13 10.258h-.229"/><g fill-rule="nonzero"><path d="m49.39 117.64c-2.027-3.466-5.098-6.282-8.725-7.995-2.583-1.221-5.471-1.903-8.52-1.904v-.002h-.0001v.002h-21.556v-.002h-.002v.002c-5.507 0-10.05-4.538-10.05-10.04h.002v-97.16h97.7v97.15h.002c0 5.503-4.54 10.04-10.05 10.04v-.002h-.0001v.002h-21.556v-.002h-.0001v.002c-3.049 0-5.937.683-8.52 1.904-3.626 1.714-6.697 4.53-8.725 7.995" fill="#f8e335"/><path d="m57.716 33.389c.16.223.313.458.46.706 1.158 1.957 1.874 4.656 1.874 7.634v.002c-.0001 2.979-.717 5.679-1.875 7.637-1.179 1.993-2.82 3.226-4.644 3.227h-.002c-.973-.0001-1.894-.352-2.72-.982-.199 1.045-.588 1.871-1.062 2.477 1.326.191 2.679.134 4.01-.194.288-.071.577-.156.865-.255.285-.097.57-.209.854-.334h.002l.005-.002c.885-.392 1.655-.691 2.461-.903.808-.212 1.646-.334 2.664-.369 1.856-.065 3.698.254 5.387.878.228.084.455.175.681.272 1.202.139 2.37-.171 3.371-.857.388-.265.724-.587 1.059-.907.422-.402.841-.804 1.373-1.115.441-.259.904-.461 1.379-.611 1.764-.558 3.73-.407 5.482.272 1.752.679 3.293 1.89 4.211 3.454.248.424.451.871.599 1.339.26.821.624 1.35 1.106 1.717.489.372 1.112.589 1.875.777.105.026.206.054.304.085 1.379.432 2.483 1.421 3.171 2.586.691 1.17.965 2.524.68 3.679-.018.073-.038.144-.059.212v.002c-.062.2-.11.391-.141.573-.032.183-.048.354-.049.513-.006.798.366 1.384 1.126 1.689l.002.0001c.169.067.321.154.458.258.138.105.258.226.36.361.507.671.602 1.716.35 3.01-.104.536-.178 1.015-.183 1.415-.005.373.05.676.196.892.107.158.309.266.548.393.611.325 1.097.721 1.483 1.3.218.327.384.687.439 1.033.07.441-.055.867-.411 1.146-.113.776-.309 1.314-.553 1.713-.317.519-.776.832-1.261 1.168.012-.567.126-1.41-.293-1.843-.216-.224-.588-.287-1.117-.295h-.002-.038c-.218-.006-.428-.036-.628-.086-.202-.051-.398-.124-.584-.218-.935-.471-1.628-1.458-1.822-2.786-.083-.571-.174-.967-.333-1.225-.14-.228-.349-.353-.683-.413-.583-.104-1.028-.402-1.351-.877-.283-.416-.469-.965-.57-1.635-.106-.009-.209-.023-.308-.043-.153-.031-.297-.076-.429-.134-.685-.302-1.114-.953-1.208-2.028l-.002-.036c-.036-.39-.128-.67-.277-.839-.129-.148-.316-.213-.56-.193l-.014.0001c-1.105.118-1.42-.536-1.514-1.403-.031-.289-.036-.606-.04-.923-.0001-.098-.003-.196-.005-.293-.357.142-.715.133-1.074-.028-.096.115-.216.195-.354.244-.148.052-.312.067-.482.049-.16-.017-.327-.063-.487-.133-.382-.167-.744-.475-.932-.857-.793-.029-1.43-.294-1.973-.697-.541-.401-.985-.937-1.4-1.51-.601-.128-1.033-.446-1.329-.918-.299-.474-.452-1.1-.496-1.837-.012-.204-.016-.432-.021-.661-.022-1.113-.069-2.288-1.588-2.289-.421 0-.711.266-1.093.393.56.581 1.06 1.261 1.488 2.077.645 1.232 1.045 2.714 1.245 4.432.199 1.705.201 3.647.052 5.809-.034.492-.047.965-.008 1.388.038.408.125.771.291 1.059.152.264.574.623 1.074 1.048.365.31.769.654 1.144 1.025h.002v.0001c.346.342.704.719 1.045 1.079.751.792 1.422 1.5 1.866 1.706h.0001c.273.126.56.237.862.328.3.091.618.165.955.218.409.028.775.102 1.095.294.326.196.594.51.796 1.015.649 1.627 1.337 3.135 2.126 4.564.786 1.424 1.67 2.765 2.711 4.06.507.63.676 1.266.824 1.825.104.393.198.745.396.996l.187.237-.28.115c-.24.099-.55.136-.836.131h-.011c.14.358.125.672.11.978-.012.244-.023.482.07.715l.132.332-.357-.02c-.269-.015-.564-.084-.836-.199.047.342.02.678-.043.983-.019.093-.04.179-.063.26-.023.082-.049.162-.076.239l-.0001.002-.024.07c.0001.006.012.002.039.022.377.278.666.91.728 1.429.012.103.016.204.001.299-.006.101-.024.196-.053.28v.003c-.203.571-1.596 1.029-2.107 1.197l-.056.019c-.298.098-.604.183-.915.258-.306.074-.611.137-.915.194-.923.174-1.426.052-1.665-.259-.245-.318-.186-.783-.004-1.311l.039-.112c-.494.391-1.407.691-1.8.82l-.056.019c-.298.098-.604.183-.915.258-.306.074-.611.137-.915.194-.923.174-1.426.052-1.665-.259-.245-.318-.186-.783-.004-1.311.219-.636.502-1.221.843-1.772.34-.55.738-1.063 1.187-1.558.032-.035.062-.073.09-.114.096-.137.156-.291.167-.43.009-.109-.014-.206-.078-.263-.008-.007-.016-.014-.024-.019-.401-.277-.57-.947-.516-1.573.001-.115.028-.232.055-.348.026-.115.06-.226.102-.329l.002-.005v-.002l.083-.201c.179-.435.268-.649.246-.882-.023-.245-.162-.569-.434-1.209l-.165-.389c-.869-2.058-2.096-3.508-3.585-4.504-1.493-.998-3.255-1.544-5.186-1.787-1.662-.209-4.674-.923-7.191-2.479-.491-.304-.966-.641-1.408-1.013-.227-.191-.445-.391-.653-.6.027.134.053.269.079.403.094.489.116.869.056 1.123-.043.181-.127.313-.254.391-.13.079-.287.093-.472.036-.233-.071-.53-.267-.898-.599l-.219-.198c-1.154-1.042-2.313-2.088-3.306-3.729l-.088-.145c-.511.183-1.023.35-1.535.502-.492.146-.983.278-1.473.397.996 2.647 2.327 5.313 3.923 7.94.15-.071.318-.111.495-.111h.002c.634.0001 1.155.521 1.156 1.154v.0001c-.0001.634-.522 1.154-1.155 1.155h-.002c-.633-.0001-1.154-.522-1.155-1.154v-.002c.0001-.237.073-.458.195-.641-1.807-.89-3.305-2.161-4.639-3.634-1.11-1.227-2.102-2.588-3.064-3.983l-.056.006c.322 1.313.724 2.612 1.19 3.898.589 1.629 1.281 3.241 2.038 4.844.123-.044.255-.068.393-.069h.002c.633.0001 1.154.521 1.155 1.154v.002c-.0001.633-.522 1.154-1.155 1.154h-.002c-.634-.0001-1.155-.522-1.156-1.154v-.0001c.0001-.294.111-.563.292-.766-.337-.271-.669-.553-.996-.846-.396-.356-.786-.73-1.17-1.121-1.716-1.753-3.254-3.825-4.613-6.215.209 1.427.568 2.803 1.049 4.137.556 1.542 1.278 3.03 2.122 4.483.151-.073.32-.113.499-.113h.002c.636.0001 1.154.518 1.155 1.154v.002c-.0001.634-.522 1.154-1.155 1.155h-.002c-.634-.0001-1.155-.522-1.156-1.154v-.0001c.0001-.24.074-.463.199-.647-.699-.637-1.365-1.323-2-2.048-.748-.849-1.465-1.755-2.16-2.701l-.002-.002c-.565-.77-1.059-1.597-1.557-2.43-.548-.918-1.101-1.843-1.754-2.696-.658 1.444-1.149 2.948-1.282 4.537-.024.291-.036.576-.036.852 0 .281.013.562.039.84v.006c.094 1.01-.121 1.547-.564 1.747-.42.189-1.015.031-1.725-.351l-.879-.325c-.413-.093-.824-.196-1.234-.307-.033.299-.076.599-.126.899l-2.604-1.138c-.518-.397-1.031-.788-1.506-1.238-.118-.051-.237-.102-.355-.153-.718-.313-1.425-.649-2.122-1-.269-.137-.508-.304-.644-.48-.199-.26-.174-.567.09-.772.16-.124.432-.231.847-.308.687-.127 1.379-.186 2.072-.197.177-.003.354-.002.531.0001l.984-1.244.385-1.773.258-.365c-1.049.861-2.316 1.769-3.433.837-.194-.162-.317-.242-.445-.279-.136-.039-.31-.042-.59-.047-.581-.009-1.173.026-1.766.061-.547.032-1.094.065-1.656.062-.55-.002-1.106-.078-1.679-.227-.525-.137-1.064-.336-1.626-.596-.671.602-1.305.87-1.905.962-.571.087-1.101.012-1.604-.087-.405.561-1.026 1.133-1.641 1.626-.548.44-1.093.82-1.474 1.074.355.565.304 1.147.256 1.677-.033.372-.064.714.081.948l.15.242-.269.094c-.27.094-.678.008-1.022-.178-.005.064-.013.124-.021.181-.021.153-.039.289.048.5l.127.307-.333.008c-.631.015-1.232-.427-1.693-1.021.029.226.071.447.133.659.133.463.355.888.707 1.252.667.689.964 1.445.729 2.203-.046.149-.112.296-.199.44-.086.142-.193.282-.321.421l-.002.002c-.475.511-1.01.891-1.544 1.181-.532.287-1.072.487-1.572.638-.627.19-1.101.233-1.427.084-.367-.167-.53-.53-.492-1.136.021-.338.071-.666.121-.992.023-.154.047-.309.061-.415l.0001-.001c.062-.457.128-.916.214-1.355.077-.394.17-.778.29-1.137-.196.153-.397.29-.599.414-.409.25-.824.446-1.213.605-.599.245-.98.314-1.245.171-.284-.153-.379-.492-.397-1.057-.001-.322.008-.642.026-.959.008-.136.015-.272.02-.389v-.019c.025-.635.084-1.299.188-1.905.02-.114.042-.232.067-.352.025-.12.051-.233.077-.337l.003-.014.009-.034c.193-.75.544-2.119.439-2.882v-.004l-.002-.012v-.019c-.0001-.495.047-.961.174-1.381.132-.434.347-.819.675-1.137l.008-.007c1.142-1.013 2.057-1.837 2.863-2.686.796-.838 1.486-1.699 2.186-2.791.192-.545 1.071-1.372 2.202-1.672.223-.059.458-.099.7-.113.243-.014.493-.0001.745.043h.003.002c.167.029.343.071.514.112.413.099.804.192 1.234.108.479-.093 1.01-.065 1.531-.037.368.02.731.04 1.057.012h.007c.184-.016.381-.033.606-.051.108-.008.221-.018.339-.026-.278-1.11-.427-2.253-.421-3.296.003-.529.045-1.032.129-1.493.086-.468.215-.893.392-1.258.312-.645.673-1.546 1.014-2.595.066-.202.131-.412.196-.629l.047-.157c-.057-.08-.113-.162-.169-.245-.213-.032-.421-.106-.606-.213-.211-.122-.385-.285-.512-.496-.318-.53-.313-1.279-.307-2.02.002-.281.004-.56-.013-.826-.029-.466-.123-.877-.405-1.131-.035.175-.043.381-.015.654.068.67.024 1.271-.183 1.772-.197.48-.535.867-1.059 1.123-.238.116-.524.175-.762.215-.197.032-.348.034-.516.016-.333-.036-.633-.18-.883-.491-.119.09-.24.163-.359.217l-.005.002c-.355.158-.703.281-1.053.341-.361.062-.724.059-1.099-.037-.704-.178-.882-.781-1.036-1.303-.066-.226-.128-.434-.217-.531l-.003-.003c-.27-.292-.395-.634-.423-1.032-.026-.373.034-.792.136-1.265.037-.173.085-.379.133-.586.267-1.152.541-2.334.209-3.438-.104-.345-.169-.678-.192-1.028-.019-.294-.009-.599.033-.932-.14-.076-.279-.193-.392-.34-.106-.138-.193-.304-.241-.49-.048-.188-.056-.393-.004-.606.072-.289.254-.588.597-.869.099-.335.144-.685.126-1.034-.923.225-1.562-.016-2.337-.588.494-.15.866-.438 1.205-.815-.67.026-1.225-.293-1.776-.638.54-.176 1.024-.481 1.38-.99.288-.411.427-.784 1.203-1.033.271-.087.552-.115.841-.101-.194-.71-.005-1.238.176-1.741.131-.363.256-.711.182-1.09l-.075-.39.375.131c.962.336 1.108 1.029 1.235 1.631.036.171.07.332.123.462.518-.768 1.196-.858 1.898-.952.431-.057.872-.116 1.261-.367l.285-.184.063.334c.05.267.044.509-.015.735.025-.021.051-.042.078-.062.064-.049.125-.099.18-.151.059-.055.12-.118.181-.187.316-.357.62-.871.862-1.561l.145-.413.256.354.0001.002.002.002c.113.16.217.331.308.511.091.179.171.37.238.57.032.097.061.196.087.296.452-.264 1.068-.239 1.714-.211.463.02.943.04 1.354-.055l.315-.073-.036.321v.005c-.008.067-.018.134-.03.199-.012.065-.027.129-.043.19-.046.172-.106.335-.178.486.226-.05.473-.166.74-.291.278-.13.577-.27.911-.369.439-.13.899-.059 1.424.023.236.037.487.076.764.098l.302.024-.106.283v.002.003c-.034.087-.07.168-.108.243-.039.076-.083.152-.131.226-.125.194-.274.369-.442.522.2-.004.382-.031.563-.058.349-.051.694-.102 1.151-.016.537.102.943.323 1.351.545.185.101.37.202.565.289-.29-.204-.525-.472-.701-.777-.178-.309-.296-.655-.349-1.01-.102-.681.028-1.402.415-1.965l.065-.094.114-.005h.017l.05-1.619c-.112-.006-.225-.013-.337-.02l-.279-.017.072-.27c.301-1.125.679-2.224 1.074-3.371l.162-.473c-.178-.134-.326-.303-.45-.494-.201.091-.402.174-.603.247-.046.422-.237.8-.521 1.084-.329.328-.782.531-1.284.531h-.002c-.502-.0001-.957-.205-1.286-.533-.328-.328-.531-.781-.531-1.282v-.002c.0001-.502.205-.956.534-1.285.328-.328.781-.531 1.283-.531h.002c.298.0001.58.073.827.199l.104-.103c.081-.08.159-.155.233-.225.182-.173.368-.345.558-.516-.009-.087-.017-.171-.023-.249-.007-.089-.012-.186-.016-.288-.017-.433.009-.814.083-1.019.032-.113.091-.216.17-.303.086-.095.198-.171.324-.216.096-.035.2-.051.306-.045.026-.126.08-.238.155-.333.062-.08.139-.147.226-.2.085-.052.179-.089.276-.108.098-.02.199-.023.298-.007.015-.06.036-.118.062-.171.073-.149.189-.269.329-.346.14-.078.304-.113.476-.095.066.007.134.023.202.047.026-.063.061-.124.102-.181.06-.081.135-.155.219-.215.086-.061.183-.108.286-.135.201-.052.418-.029.613.115l.026.019.02.026.081.104c.022-.02.045-.039.069-.056.021-.015.044-.028.066-.041-.209-.217-.376-.475-.49-.752-.135-.329-.196-.687-.163-1.039.036-.394.19-.78.485-1.107l.371-.41.027.552c.002.038.004.072.007.103.015.164.047.324.094.479.047.153.109.302.185.443.374.696 1.071 1.189 1.869 1.195l18.935-11.371c.923-.554 1.864-.991 2.838-1.341.974-.349 1.977-.611 3.03-.815l.592-.115-.367.478c-.615.801-1.297 1.595-2.061 2.333-.767.74-1.618 1.422-2.569 1.997l-18.907 11.426c-.045.119-.081.239-.107.36-.035.162-.053.322-.055.479-.012.809.387 1.576 1.121 1.942l.51.255-.545.168c-.375.116-.736.111-1.062.015-.338-.1-.639-.298-.881-.56-.238-.257-.421-.579-.53-.932-.087-.28-.126-.581-.11-.886l-.485.291c.001.639.011 1.259-.328 1.757-.261.382-.506.63-.88 1.01l-.173.176c.089.676.139 1.353.163 2.032.025.711.02 1.422-.0001 2.133l-.005.18-.175.037-.075.016.143 1.088.084.073c.229.2.402.452.521.757.146.016.297.03.451.043.206.017.404.031.593.042.987.055 2.01.047 2.951-.008.295-.244.634-.402 1.019-.474.162-.031.333-.045.513-.044.117.0001.236.008.358.023.031-.307-.015-.624-.15-.956l-.217-.068.121-.134c-.24.021-.486.002-.705-.071-.27-.09-.497-.26-.621-.535-.039-.087-.067-.183-.083-.289-.02-.137-.005-.265.059-.416.051-.121.134-.255.257-.423-.116-.368-.154-.78-.112-1.165-.157-.039-.272-.099-.352-.174-.119-.111-.169-.266-.147-.426.038-.271.262-.536.48-.774.309-.336.59-.695.894-1.034.049-.055.072-.136.07-.228-.0001-.019-.002-.039-.005-.061-.003-.02-.007-.041-.012-.063v-.003c-.062-.241-.084-.496-.068-.742.003-.046.008-.096.014-.149.002-.022.005-.044.008-.067-.09-.02-.18-.039-.271-.055.077-.551.188-.946.507-1.43l-.317-.35-.084-.093.033-.12c.098-.353.37-.682.701-.921.074-.053.148-.1.22-.141.075-.042.153-.08.233-.113.207-.086.422-.135.623-.135h.126l.067.106.18.285c.06-.028.12-.055.178-.079.116-.049.242-.096.376-.141.656-.219 1.405-.332 2.224-.303.631.022 1.284.009 1.917-.151.571-.144 1.128-.41 1.643-.879-.037-.545.03-1.022.17-1.432.241-.709.7-1.22 1.222-1.565.519-.341 1.101-.517 1.597-.557.222-.018.43-.008.61.025.199-.419.474-.734.795-.951.415-.281.902-.397 1.397-.36.487.036.984.219 1.426.535.469.335.878.82 1.153 1.438.211-.108.423-.194.633-.26.288-.09.575-.144.857-.165 1.445-.109 2.757.632 3.487 1.581.017.022.031.042.044.06.271.396.444 1.099.413 1.801-.023.512-.153 1.029-.429 1.439.194-.006.384.002.568.026.511.066.976.251 1.345.577.37.326.638.79.753 1.411.075.402.084.872.014 1.414-.062.477-.044.719.071.812.125.102.417.099.874.07.423-.027.773.032 1.056.157.302.134.526.341.68.598.15.25.231.545.251.864.033.509-.09 1.084-.332 1.631-.328.741-.386 1.157-.264 1.376.109.194.412.256.812.278.768.043 1.155.287 1.295.678.131.366.013.832-.221 1.363-.111.253-.136.428-.085.557.052.131.195.243.415.362l.002.0001c.091.049.173.104.246.164.074.061.138.127.194.197.284.359.325.81.199 1.235l-.122.413-.273-.333c-.209-.254-.413-.391-.612-.452-.197-.06-.4-.048-.603-.004-.792.172-1.343.114-1.706-.123-.384-.251-.543-.678-.539-1.227.0001-.201-.043-.346-.115-.445-.074-.102-.185-.162-.31-.19-.141-.032-.3-.024-.45.009-.216.049-.403.145-.486.252-.097.125-.199.227-.305.304-.181.133-.375.198-.571.195-.196-.003-.388-.074-.567-.212-.108-.083-.211-.191-.307-.322-.17-.232-.351-.299-.523-.29-.198.011-.41.115-.588.205-.672.338-1.305.481-1.875.48-.575-.002-1.086-.15-1.511-.394zm25.588 55.19l-.168.069c-.24.099-.55.136-.836.131h-.011c.14.358.125.672.11.978-.012.244-.023.482.07.715l.132.332-.357-.02c-.269-.015-.564-.084-.836-.199.047.342.02.678-.043.983-.019.093-.04.179-.063.26-.023.082-.049.162-.076.239l-.0001.002c-.017.051-.03.067-.029.073.003.012.012-.004.044.02.377.278.666.91.728 1.429.004.035.007.069.009.103.134-.277.283-.544.444-.804.34-.55.738-1.063 1.187-1.558.099-.109.175-.238.219-.367.009-.029.017-.053.022-.073.005-.022.001-.045.013-.069v-.003c.013-.101.002-.192-.041-.256-.007-.001-.015-.02-.024-.029-.001-.001-.02-.019-.029-.026l-.004-.0001c-.402-.278-.571-.948-.517-1.574.001-.115.028-.232.055-.348l.0001-.005m-5.02-9.01c.422 1.01.913 1.952 1.462 2.841.67 1.085 1.43 2.095 2.26 3.058.54.627.704 1.277.848 1.849.097.387.185.734.377.978l.112.142c.019-.063.04-.124.064-.182l.002-.005v-.002l.083-.202c.179-.434.267-.649.245-.881-.023-.244-.162-.569-.434-1.209-.032-.075-.06-.14-.165-.39-1.076-2.547-2.863-4.565-4.854-5.998m-38.06-29.897c-.212.206-.439.389-.723.511.224.098.458.143.678.125zm-.677-.946c.219.252.426.427.705.554l.04-.567c-.283-.081-.554-.114-.745.014m-9.259-11.783l-.106.177c-.171.284-.379.533-.623.744-.093.08-.19.155-.293.225.177.024.356.037.535.05.506.037 1.01.074 1.509.333.279.145.524.322.772.501.266.192.537.387.845.535l.244.117-.155.22c-.172.244-.384.433-.623.591-.107.071-.22.136-.336.196.248.101.505.15.763.199.322.062.644.124.975.279.273.128.49.287.713.451.261.191.531.39.893.529l.259.1-.148.234c-.173.275-.409.479-.682.643-.141.085-.291.159-.448.226.494.299.931.369 1.352.436.624.1 1.214.194 1.897.891.098-.004.196-.004.293-.0001.117.004.229.012.337.024.112.013.224.032.335.056h.003l.038.009c-.837-1.712-1.281-3.444-1.222-5.187.008-.246.026-.491.055-.737-1.011-.127-1.997-.326-2.969-.602-1.021-.29-2.028-.666-3.035-1.134-.441.058-.835.015-1.18-.105m1.724 38.31c.115.217.222.441.319.671.104.247.196.497.276.75l.208.032.229.036c.264-.26.608-.459.962-.57.198-.697.332-1.692.407-2.851l-1.76-.107-.291.566zm21.519-44.39c1.092.0001 2.118.443 3.02 1.225-.128-.301-.196-.62-.195-.937.003-.8-.062-1.323-.248-1.578-.148-.202-.428-.211-.89-.035-1.773.674-2.442-.201-2.756-1.026-.076-.2-.13-.399-.173-.567-.066.003-.131.003-.195.0001-.554-.016-.986-.196-1.293-.484-.309-.29-.487-.687-.532-1.133-.009-.096-.013-.195-.001-.296.021-.735.399-1.285.767-1.819.41-.596.805-1.17.533-1.931-.049-.136-.114-.265-.192-.385-.23-.351-.574-.632-.952-.793-.368-.156-.765-.196-1.115-.071-.087.031-.172.073-.252.125l-.041.027c-.242.363-.371.757-.405 1.18-.041.503.049 1.052.242 1.644.468 1.442.511 2.679.232 3.742-.281 1.068-.886 1.956-1.714 2.697-.087.078-.152.133-.214.185-.261.22-.473.4-.637.787-.026.062-.037.136-.033.215.006.139.057.29.144.422.086.131.204.241.347.301.073.031.153.049.24.05.741-.218 1.641-.19 2.643.34 1.045-1.19 2.312-1.886 3.681-1.886m-34.553 18.343c1.133.626 1.171 1.776 1.202 2.729.001.3.019.578.066.8.266-.076.534-.046.784.069.248-1.745.239-3.01.039-3.917-.184-.841-.532-1.375-.988-1.716-.121.079-.244.174-.364.296l-.002.002c-.139.143-.226.451-.307.739-.057.202-.111.396-.188.552-.086.174-.167.319-.242.447m-11.514 27.65c.044.034.087.07.128.106.178-.413.432-.772.788-1.057l.007-.006c1.29-.942 2.461-1.897 3.518-2.886 1.05-.982 1.994-2 2.837-3.075.148-.327.515-.708 1.029-.995-.132-.066-.266-.137-.401-.211-.22-.122-.448-.258-.683-.403-.899.777-1.579.811-2.422.853-.102.005-.207.001-.325.018-.575.707-1.513 1.654-2.249 2.398-.318.321-.597.603-.793.812.232.475.135.956.045 1.406-.073.36-.14.696.023.911l.244.321-.401.044c-.308.033-.578.004-.826-.091-.059-.023-.116-.049-.172-.079.006.103.007.203.009.3.003.201.006.394.061.595l.077.281-.293.006c-.282.006-.486.004-.665-.038-.016-.004-.031-.008-.046-.012.066.274.19.554.51.804"/><path d="m39.799 28.26c.003.001.007.019.011.029.056.139.163.246.307.311.152.068.347.091.572.059.132-.019.273-.057.422-.117l.243-.098-.114.236c-.153.317-.404.529-.689.644-.236.095-.496.124-.742.089-.248-.035-.484-.133-.671-.291-.054-.045-.104-.095-.148-.15.016.16.046.319.089.469.015.0001.031.0001.047.0001.118.0001.236-.022.328-.079l.16.259c-.145.089-.319.125-.488.125-.023.0001-.047 0-.071-.0001-.114.154-.188.272-.229.37-.04.095-.05.173-.038.255.011.078.031.147.059.208.085.188.245.307.438.371.208.069.453.077.689.043.087-.013.173-.031.254-.054l2.688-2.974c-.142-.165-.227-.38-.228-.615v-.0001-.0001c.0001-.145.034-.281.091-.403.014-.03.03-.059.047-.087.038-.062.083-.12.134-.172l-.7-.772c-.74-.527-1.533-.916-2.39-1.147l-.004.03c-.006.039-.001.083-.013.131-.014.217.005.44.059.647l.0001.004c.008.031.014.063.019.096.004.03.007.062.008.094.004.168-.044.324-.148.439-.329.367-.646.745-.974 1.113-.109.122-.429.477-.245.647.162.15.671.266.879.187.076-.029.14-.103.185-.188l.27.142c-.032.06-.068.11-.108.153" fill="#f3b760"/><path d="m39.437 63.21l.097 1.119c.384 1.566.513 3.129.363 4.701-.134 1.398-.49 2.802-1.085 4.221.738.929 1.34 1.937 1.937 2.937 1.377 2.306 2.994 4.477 4.9 6.374-.647-1.195-1.209-2.42-1.664-3.682-.773-2.143-1.114-4.287-1.31-6.538 1.559 2.954 3.275 5.738 5.629 8.142.503.514 1.028 1.01 1.575 1.473-.636-1.384-1.221-2.78-1.732-4.194-.755-2.087-1.284-4.201-1.722-6.371 1.389 2.053 2.752 4.146 4.419 5.988 1.198 1.324 2.53 2.479 4.104 3.326-2.482-4.171-4.298-8.437-5.169-12.573-.181-.857-.321-1.707-.417-2.548-.097-.84-.151-1.676-.159-2.506v-.074l-3.381-5.586c-1.336 1.119-2.791 2.241-4.2 3.189-.289.194-.575.381-.858.558-.248.155-.497.306-.746.451-.043.265-.099.533-.192.803-.09.263-.213.527-.39.79m16.67 18.05h-.003c-.382 0-.698.315-.698.697v.002c0 .382.316.697.698.698h.002c.382 0 .698-.316.698-.697v-.002c0-.382-.316-.697-.698-.697zm-5.097 1.576h-.003c-.382 0-.698.315-.698.697v.002c0 .382.316.697.698.698h.002c.382 0 .698-.316.698-.697v-.002c0-.382-.316-.697-.698-.697zm-3.973.713h-.002c-.382 0-.698.316-.698.697v.002c0 .382.316.697.698.698h.003c.382 0 .698-.316.698-.697v-.003c0-.383-.315-.697-.698-.697z" fill="#1084c4"/><path d="m70.2 55.39c.512-.139.926-.475 1.476-.475 1.96.0001 2.02 1.405 2.044 2.736.004.216.008.428.021.643.04.663.171 1.216.426 1.62.199.316.478.543.856.665-.059-.392-.001-.803.031-1.194.011-.103.018-.162.025-.224.069-.593.11-.948-.36-1.448l-.008-.009c-.195-.208-.394-.42-.489-.69v-.002l.287-.101v.002c.074.21.251.398.424.582l.008.009c.567.604.52 1.01.441 1.691-.009.079-.02.168-.025.22-.037.351-.157 1 .071 1.319.408.568.838 1.099 1.355 1.483.504.374 1.1.612 1.854.611h.162l.054.151c.117.326.42.598.746.74.119.052.239.085.352.097.103.011.2.003.282-.026.072-.026.133-.071.179-.137-.137-.139-.282-.338-.445-.563-.272-.374-.599-.824-.981-1.136l-.005-.004c-.291-.236-.689-.309-1.039-.373-.25-.046-.478-.088-.655-.181h-.002l-.003-.002c-.511-.274-.824-.649-.953-1.131-.126-.469-.075-1.033.137-1.699.314-.988-.291-1.628-.901-2.272-.392-.414-.786-.83-.975-1.349l.286-.104c.168.461.54.854.91 1.245.672.709 1.339 1.415.97 2.572-.194.609-.243 1.118-.132 1.529.107.398.37.71.803.942l.002.0001c.137.072.343.11.568.151.387.071.825.151 1.176.436h.0001l.004.003c.412.336.752.803 1.035 1.192.219.301.279.398.563.571.358.218.718.215 1.078-.008-.101-.63-.643-.914-1.184-1.197-.128-.067-.256-.134-.362-.195l-.004-.003c-.651-.322-1.089-.755-1.391-1.246-.299-.488-.461-1.029-.564-1.572l-.002-.001v-.005c-.122-1.472-.55-1.893-.948-2.284-.302-.296-.588-.578-.743-1.212l.296-.072c.134.549.391.801.661 1.067.437.43.906.891 1.038 2.47.096.508.247 1.012.522 1.46.274.446.674.84 1.271 1.134l.009.005.006.004c.126.072.239.131.352.19.263.137.525.274.748.448.0001-.091.007-.181.012-.271.025-.416.049-.81-.544-.983-.305-.089-.52-.256-.659-.503-.132-.234-.192-.537-.194-.91-.002-.379-.011-.715-.081-.982-.063-.241-.18-.426-.397-.536l.137-.272c.307.155.469.406.554.73.078.299.088.657.09 1.058.002.322.049.576.155.762.099.174.254.294.479.359.827.241.797.752.764 1.293-.012.201-.025.408.021.59.146.197.245.436.272.742.395.499.866.759 1.356 1.03.477.264.973.538 1.451 1.041.558.587.951 1.205 1.203 1.879.191.512.299 1.054.335 1.64.043.7.209 1.57.604 2.15.252.37.599.603 1.054.684.472.084.777.274.993.626.197.321.304.768.396 1.399.097.662.329 1.227.659 1.665-.006-.289 0-.573.02-.855.031-.433.098-.859.212-1.277.224-.821.066-1.56-.367-2.17-.085-.12-.181-.235-.286-.345-.107-.112-.223-.217-.347-.316l-.002-.0001h-.002l-.023-.019c-.502-.399-.89-.708-.986-2.366-.044-.768-.339-1.409-.78-1.955-.447-.555-1.046-1.015-1.689-1.413-.923-.572-1.648-1.205-2.124-1.922-.482-.727-.708-1.537-.626-2.455l.303.026c-.076.844.133 1.591.577 2.26.451.679 1.144 1.283 2.03 1.832.67.415 1.295.896 1.767 1.481.478.593.798 1.29.847 2.129.088 1.521.43 1.793.871 2.145l.025.021.002.0001h.002c.136.109.261.223.375.341.116.121.221.248.315.379.485.684.663 1.51.413 2.426-.109.4-.172.806-.202 1.219-.02.277-.025.558-.019.842.005.257.007.361.221.525.261.2.561.347.88.427.543.137 1.12.017 1.642.256-.039-.088-.092-.175-.157-.261-.178-.235-.448-.465-.787-.698-.389-.267-.675-.601-.825-1.03-.148-.423-.161-.935-.008-1.56.181-.745.092-1.497-.32-2.147-.082-.128-.174-.252-.278-.369-.106-.119-.225-.233-.356-.342l-.002-.002c-.275-.228-.543-.61-.767-1.235-.218-.606-.398-1.448-.508-2.611-.055-.579-.167-1.114-.38-1.56-.207-.433-.511-.783-.953-1-.294-.148-.609-.322-.878-.551-.278-.237-.505-.53-.607-.909l.295-.079c.084.311.275.556.51.757.245.208.54.371.817.51.509.256.856.654 1.091 1.146.229.48.349 1.049.407 1.663.108 1.136.282 1.953.491 2.537.203.565.437.905.674 1.101l.002.002c.145.12.275.246.39.376.118.133.22.269.308.408.459.724.559 1.558.358 2.382-.138.565-.129 1.019 0 1.388.126.363.372.648.709.879.363.249.657.501.858.766.175.23.279.469.298.723.237.261.367.647.4 1.227.148-.136.288-.296.412-.499.22-.359.396-.854.498-1.585-.324-.686-.723-.82-1.105-.949-.533-.179-1.04-.35-1.337-1.576l.296-.072c.258 1.063.687 1.207 1.138 1.359.416.14.848.285 1.209.957.197-.177.245-.43.205-.684-.044-.276-.184-.574-.369-.852-.344-.516-.772-.859-1.316-1.148-.293-.156-.542-.288-.713-.541-.203-.3-.279-.69-.273-1.153.005-.437.082-.939.19-1.495.226-1.165.157-2.087-.266-2.647-.079-.105-.169-.196-.271-.273-.103-.078-.22-.144-.352-.197h-.002c-.954-.383-1.42-1.116-1.412-2.115.0001-.19.02-.387.055-.588.035-.202.087-.413.155-.631v-.002c.02-.064.037-.125.052-.186.256-1.037.002-2.266-.63-3.337-.635-1.075-1.65-1.987-2.913-2.382-.093-.029-.185-.055-.277-.078-.667-.164-1.238-.352-1.724-.642-.641.094-1.179.02-1.638-.186-.498-.223-.898-.598-1.234-1.081-.292-.42-.522-.854-.751-1.286-.322-.609-.644-1.217-1.138-1.766-1.239-1.379-2.872-2.332-4.114-2.739-.241-.079-.466-.137-.668-.173l-.022-.004c-.592.031-1.176.132-1.738.31-.447.141-.878.33-1.286.568-.489.286-.888.668-1.288 1.05-.349.334-.699.67-1.117.956-.825.565-1.701.884-2.628.956.073.038.146.078.218.117l.014.008c.829.455 1.599.969 2.291 1.607m14.713 1.395c-.524-.421-.92-1.01-1.199-1.89-.139-.439-.327-.855-.556-1.246-.864-1.473-2.322-2.615-3.982-3.259-.73-.283-1.498-.469-2.27-.544 1.222.478 2.707 1.403 3.859 2.685.518.577.849 1.201 1.181 1.828.224.423.448.847.731 1.254.305.439.665.779 1.107.977.325.145.697.216 1.128.196m-2.643 7.306c.0001.059.003.123.004.204.004.302.008.604.039.88.067.613.279 1.076 1.016.996h.004l.014-.0001c.397-.033.712.083.943.348.213.243.342.61.387 1.099l.003.038c.079.888.411 1.417.937 1.649.105.046.218.082.336.106.086.018.175.03.268.037-.012-.673-.116-1.285-.328-1.853-.237-.635-.609-1.218-1.139-1.775-.447-.471-.921-.733-1.377-.985-.387-.214-.763-.422-1.108-.74" fill="url(#V)"/><path d="m46.19 50.899l-2.783 1.648 11.766 19.443c.78 1.289 1.672 2.205 2.584 3.048.37.342.737.729 1.136 1.034.799.611.657-.14.533-.784-.176-.911-.364-1.822-.613-2.715-.229-.825-.49-1.545-.796-2.052l-11.827-19.622" fill="url(#U)"/><path d="m46.13 48.974h1.296c-.459-.788-.815-1.923-1.09-3.311h-1.325c.175.592.351 1.166.54 1.731.179.536.369 1.061.579 1.58" fill="url(#T)"/><path d="m44.548 26.05c-.096.0001-.185.028-.259.074-.017.011-.031.02-.042.029-.012.009-.023.02-.036.031v.0001l-.202.202-.153-.242-2.757-4.349c-.105.014-.217.046-.328.093-.061.025-.123.056-.184.09-.064.036-.123.074-.178.113-.215.155-.395.353-.487.56l3.543 3.911.196.216-.257.138c-.077.042-.142.103-.188.178-.009.014-.017.029-.024.045-.03.064-.047.134-.047.208v.0001.002c-.0001.134.055.257.143.345.088.089.211.144.346.144.082-.0001.158-.02.224-.054.011-.007.024-.013.038-.022.014-.008.026-.016.036-.024v-.0001l.258-.198.099.309c.041.128.134.234.253.292.024.012.049.021.073.028.045.014.092.021.139.021h.002.002c.134.0001.257-.055.346-.143.089-.089.144-.211.144-.346-.0001-.143-.061-.271-.158-.36-.02-.018-.04-.034-.06-.048-.023-.015-.045-.028-.067-.038l-.297-.137.23-.232c.036-.036.067-.079.09-.127.005-.009.001-.018.014-.028.024-.058.038-.122.038-.189v-.002-.0001c.0001-.134-.055-.256-.143-.344-.089-.09-.211-.145-.346-.145m-.649 2.207c-.084.025-.173.038-.264.038-.122-.0001-.3-.036-.407-.078l-2.698 2.985c.176.049.419.107.604.149l2.765-3.094" fill="url(#S)"/><path d="m41.29 24.841l-1.164-1.285c-.15.248-.264.518-.328.801.489.111.996.307 1.492.484m7.435-4.047c0-.028-.003-.059-.001-.089-.013-.055-.038-.11-.075-.156-.035-.044-.081-.081-.138-.104-.048-.021-.107-.03-.174-.027-.602.581-1.259.901-1.932 1.071-.682.172-1.376.187-2.044.164-.762-.027-1.456.077-2.063.28-.113.038-.228.081-.344.13-.037.015-.073.031-.108.047l2.274 3.587c.131-.068.278-.106.435-.106.262.0001.499.107.67.278.171.17.277.406.277.668v.002.0001c-.0001.13-.028.253-.075.366-.007.018-.016.036-.025.054l-.013.026.019.017c.186.173.303.42.303.694-.0001.262-.108.499-.279.67-.171.17-.407.276-.668.276h-.002-.002c-.095-.0001-.186-.015-.27-.04-.049-.015-.159-.033-.204-.055-.022-.011-.043-.022-.065-.035l-2.627 2.94c.994.178 2.122.234 3.095.072.278-.046.55-.111.81-.195.242-.079.474-.175.69-.289.187-.35.405-.535.665-.754.071-.06.147-.124.205-.176.762-.682 1.319-1.497 1.576-2.473.258-.981.215-2.133-.225-3.486-.21-.648-.309-1.254-.263-1.819.045-.558.229-1.071.582-1.541" fill="url(#R)"/><path d="m53.12 27.09c.123-.118.245-.234.372-.325.382-.269.781-.314 1.288.406.169.24.37.37.604.405.247.037.539-.025.876-.167.255-.108.48-.162.673-.163.168-.0001.312.038.432.115.122.079.215.195.279.346.067.159.102.36.103.601.0001.288-.02.559-.041.823-.066.851-.128 1.638.62 2.379l.003.002c.061.061.125.115.192.162.067.047.138.087.211.12.38.168.858.132 1.427-.254.109-.075.211-.173.308-.267.12-.116.234-.225.36-.294.306-.167.612-.104.995.598.139.256.297.34.473.323.207-.02.459-.162.743-.341.449-.284.863-.41 1.222-.397.211.008.401.063.569.162.167.099.31.241.424.423.205.324.32.776.325 1.337.126.174.202.408.2.712-.002.393.096.688.333.843.26.17.696.203 1.359.058.27-.059.547-.072.832.015.161.049.321.13.479.251-.017-.143-.068-.278-.161-.395-.035-.045-.077-.087-.126-.127-.049-.04-.106-.079-.172-.114l-.002-.0001c-.314-.168-.525-.349-.624-.596-.1-.249-.074-.537.09-.909.19-.431.292-.791.208-1.025-.075-.21-.338-.345-.889-.375-.388-.022-.718-.083-.951-.25-.107.013-.222.012-.335-.005-.037-.005-.076-.013-.115-.023-.039-.009-.077-.021-.112-.033h-.0001l-.017-.006h-.0001c-.302-.112-.377-.285-.47-.503-.019-.045-.04-.093-.064-.141-.322-.649-.844-.956-1.441-1.03-.121-.015-.243-.021-.364-.018-.123.002-.25.014-.38.032h-.004c-.735.106-1.43.08-1.948-.212-.532-.3-.869-.866-.864-1.831.004-.901-.067-1.516-.313-1.884-.233-.348-.648-.483-1.343-.448-.877.044-1.527-.229-2.02-.71-.481-.473-.8-1.144-1.028-1.909-.37-1.245-.909-1.802-1.454-2.02-.424-.171-.862-.14-1.226-.072.145.134.28.285.403.455.329.451.582 1.024.768 1.711.18.664.126 1.253.074 1.819l-.013.146c.542-.124 1.07-.174 1.559.002.554.199 1.041.68 1.408 1.654l-.285.107c-.331-.878-.753-1.305-1.226-1.475-.477-.171-1.023-.089-1.587.057l-.205.053.015-.211c.007-.103.019-.231.031-.361.049-.538.101-1.099-.066-1.712-.176-.651-.413-1.192-.719-1.61-.3-.411-.667-.706-1.11-.876l-.008-.003c-.511-.195-.949-.234-1.295-.119-.254.085-.463.256-.618.513.272.007.547.071.807.181.459.195.876.536 1.155.963.099.152.18.313.24.481.35.98-.111 1.649-.589 2.344-.33.479-.669.972-.686 1.572-.002.081.0001.161.008.239.034.337.165.633.391.845.228.214.559.349.993.361.525.015.618-.019 1.017-.401m12.141 5.719c-.032-.373-.124-.676-.265-.9-.088-.14-.197-.249-.322-.323-.124-.074-.267-.115-.424-.121-.298-.011-.653.101-1.049.351-.317.2-.606.36-.876.386-.301.029-.559-.096-.769-.48-.266-.489-.435-.557-.582-.477-.09.049-.19.145-.295.247-.106.102-.218.21-.345.297-.672.457-1.253.492-1.724.284-.092-.041-.18-.091-.263-.149-.083-.058-.16-.124-.232-.195l-.003-.002c-.847-.841-.78-1.695-.708-2.618.021-.264.042-.533.041-.799-.0001-.2-.028-.362-.079-.484-.04-.094-.095-.164-.163-.208-.071-.045-.16-.068-.267-.067-.152.0001-.338.047-.556.139-.389.165-.734.235-1.039.189-.318-.048-.587-.218-.808-.531-.363-.515-.623-.501-.863-.332-.11.078-.223.185-.337.295-.19.183-.387.37-.617.474.042.163.094.363.172.568.24.63.759 1.294 2.167.759.683-.26 1.129-.203 1.42.193.252.343.339.951.336 1.848-.0001.297.075.599.216.879.18.358.468.679.84.912.375.234.836.379 1.36.381.502.002 1.065-.127 1.669-.431.218-.11.479-.237.769-.253.315-.017.636.092.917.476.071.097.144.174.217.231.1.077.199.116.294.118.096.0001.195-.034.295-.107.072-.053.144-.125.214-.214.145-.187.433-.348.747-.419.211-.047.44-.057.65-.009.092.021.181.052.264.095m-15.836-12.28c.197-.423.496-.699.88-.827.414-.138.921-.098 1.499.122l.008.003c.192.074.37.168.537.282.443-.105 1.044-.209 1.647.034.622.25 1.231.865 1.633 2.218.214.719.51 1.346.949 1.778.43.423 1.01.663 1.789.623.814-.041 1.311.135 1.61.583.286.428.369 1.094.364 2.054-.004.837.273 1.319.709 1.565.45.254 1.08.273 1.756.175h.004c.139-.02.278-.032.417-.035.14-.003.277.003.407.019.542.067 1.031.299 1.398.756-.0001-.096-.0001-.189-.0001-.279-.0001-.356-.0001-.66-.09-.878-.181-.445-.491-.692-.834-.795-.07-.021-.14-.037-.209-.046-.069-.001-.142-.015-.215-.015h-.031c-.642.012-1.224-.11-1.675-.462-.452-.353-.764-.928-.861-1.82-.111-1.016-.558-1.703-1.161-2.029-.116-.063-.238-.112-.365-.149-.127-.036-.259-.059-.394-.068h-.008c-1.799-.113-2.15-1.072-2.604-2.311l-.026-.072c-.47-1.28-1.835-2.61-3.273-3.361-.279-.145-.56-.269-.839-.366-.477-.166-.988-.204-1.493-.163-.43.035-.934.187-1.383.482-.444.293-.834.728-1.04 1.33-.106.312-.163.671-.154 1.08.108.003.207.025.296.061.134.053.242.14.324.243.08.101.135.218.163.337.088-.029.177-.052.267-.067m2.54-3.755c.19.042.384.097.579.165.291.102.587.231.88.384 1.499.782 2.924 2.176 3.419 3.525l.027.073c.415 1.133.736 2.01 2.336 2.111h.009c.158.011.311.037.458.079.148.042.29.1.426.174.688.372 1.197 1.14 1.319 2.265.087.8.357 1.309.745 1.612.389.303.906.409 1.483.398h.034c.085-.0001.171.005.258.018.088.012.174.031.255.056.425.128.808.431 1.028.973.11.271.111.603.112.993 0 .259.0001.545.037.853l.011.025c.065.151.116.27.295.337l.015.006h.0001c.027.009.055.018.082.024.027.006.057.012.089.017l.035.004c-.169-.348-.115-.886.265-1.742.214-.483.322-.983.294-1.418-.016-.249-.076-.474-.187-.659-.106-.177-.262-.321-.472-.414-.218-.097-.497-.142-.843-.12-.569.036-.944.029-1.191-.172-.257-.209-.32-.571-.235-1.223.064-.494.056-.916-.001-1.274-.095-.513-.311-.89-.607-1.151-.645-.57-1.631-.543-2.427-.577.456-.55.756-1.046.79-1.825.027-.607-.113-1.201-.334-1.524-.011-.016-.02-.029-.028-.039-.648-.842-1.812-1.5-3.092-1.404-.248.019-.501.066-.755.146-.247.078-.495.186-.741.328-.013.343.06.567.222.704.203.173.558.235 1.062.239.033 0 .063.0001.088.003.146.009.283.041.411.091.128.05.248.12.359.207.532.417.869 1.244 1.028 2.312l-.302.044c-.148-.992-.449-1.751-.915-2.117-.088-.069-.182-.124-.282-.163-.1-.039-.207-.063-.32-.071-.027-.002-.05-.003-.07-.003-.575-.004-.992-.085-1.258-.311-.358-.304-.244-.658-.383-1.037-.236-.644-.63-1.141-1.088-1.467-.373-.267-.789-.421-1.193-.451-.397-.029-.784.061-1.109.281-.241.163-.452.401-.611.716" fill="url(#Q)"/><path d="m44.959 34.783c-1.433.209-2.929.157-4.09-.111-.249-.057-.481-.124-.692-.2-.149-.053-.291-.111-.422-.175-.298.421-.558.843-.782 1.264.816.423 1.695.662 2.644.747.99.089 2.062.011 3.224-.199-.018-.482.029-.935.119-1.327m-4.932-.863c.095.043.197.083.304.122.199.071.413.133.64.185 1.166.27 2.691.309 4.132.071.047-.126.099-.242.154-.345.011-.02.026-.046.045-.079l.034-.056c-1.161.252-2.349.305-3.504.103-.275-.048-.548-.111-.818-.188-.245-.072-.487-.154-.724-.248-.075.145-.163.29-.263.435m.444-.854c.222.088.445.164.668.228.255.072.512.132.772.177 1.287.225 2.622.115 3.911-.244.213-.205.469-.399.762-.556-.074-.051-.142-.11-.202-.174-1.536.614-3.237.685-4.616.443-.274-.048-.54-.11-.793-.184-.136-.04-.267-.082-.392-.128-.003.022-.007.043-.011.065-.023.125-.056.249-.098.372m.132-.917c.156.062.322.118.496.169.229.067.479.124.745.171 1.281.224 2.854.166 4.281-.383-.062-.145-.099-.298-.106-.446v-.034c-.125.052-.252.099-.381.141-.281.091-.575.161-.878.211-1.382.229-2.933.045-4.234-.309.043.162.069.322.078.48" fill="url(#P)"/><path d="m31.478 33.04c-.683.119-1.367.196-2.054.23-.272.45-.36 1.01-.279 1.545.045.302.144.594.292.85.146.254.342.475.584.641.349.24.8.363 1.345.3.445-.562.87-1.143 1.279-1.735.406-.587.801-1.193 1.189-1.811-.076-.196-.179-.364-.31-.502-.684.203-1.366.363-2.045.481" fill="url(#O)"/><path d="m40.04 32.914c-.09-.009-.176-.014-.26-.015-.148-.0001-.291.011-.427.037-.686.129-1.203.613-1.549 1.454l-.002.005c-.075.182-.148.371-.218.564-.069.191-.135.386-.196.583-.289.933-.465 1.9-.383 2.722.175.027.35.051.527.073.254-1.514.904-3.03 2.02-4.542.221-.299.385-.59.485-.88m-2.657 1.302c.121-.295.262-.553.423-.774-.585.024-1.195.03-1.802.014-.084.107-.169.226-.253.355-.112.173-.223.363-.328.564-.522.996-.942 2.312-.838 3.361l.039.011c.632.179 1.27.326 1.916.44-.061-.86.121-1.84.412-2.779.063-.203.131-.405.203-.604.071-.197.147-.391.225-.582l.002-.005m-3.186-.877c-.379.604-.77 1.201-1.177 1.79-.378.547-.767 1.082-1.17 1.599.751.34 1.505.629 2.266.868-.051-1.11.377-2.428.902-3.432.114-.218.232-.421.35-.602.028-.043.057-.086.085-.127l-.178-.009c-.214-.012-.417-.026-.605-.042-.157-.013-.314-.028-.473-.045" fill="url(#N)"/><path d="m33.21 32.17l-.147-1.123c-.589.097-1.179.15-1.768.171-.496.018-.99.014-1.483-.004l-.048 1.572c.546-.04 1.093-.108 1.642-.203.603-.105 1.205-.243 1.805-.413" fill="url(#M)"/><path d="m31.2 27.354c-.284.024-.532-.009-.75-.087l-.138.401c-.361 1.048-.707 2.056-.991 3.071.652.036 1.303.051 1.95.028.679-.025 1.359-.092 2.039-.226.016-.642.018-1.284-.004-1.925-.024-.697-.078-1.395-.175-2.095l-.015-.111.078-.08c.101-.104.179-.182.253-.257.359-.363.593-.6.828-.944.266-.392.258-.957.249-1.539-.005-.381-.012-.763-.064-1.141-.048-.347-.145-.663-.311-.966-.128-.234-.246-.451-.384-.593-.087-.09-.211-.107-.313-.035-.178.125-.153.382-.08.559.127.308.222.595.269.885.06.361.028.7-.043 1.055-.273.073-.501.177-.728.344-.514.378-.962.937-1.114 1.566-.478.342-.968.664-1.484.946-.088.048-.177.095-.265.141.105.152.227.281.373.375.202.131.458.198.783.17l.038.456m1.676-6.384l-.176-.228c-.061-.036-.248-.02-.313.019-.1.06-.203.176-.214.297l.77.998.008.006c.056.044.12.079.193.09-.046-.181-.113-.368-.194-.565-.094-.229-.11-.439-.073-.618m-.449 1.757c.143-.117.144-.329.073-.486l-.692-.896c-.134-.114-.322-.185-.488-.095-.126.068-.185.204-.184.343l.742 1.05c.146.105.386.219.55.084m-1.653-.845c-.118-.092-.284-.083-.408-.008-.129.078-.194.22-.171.373l.543.742.003-.002c.067.092.124.192.186.288.111.15.308.205.47.111.181-.105.175-.322.095-.495l-.718-1.01m-.966.61c-.127-.045-.262-.003-.351.095-.089.097-.107.227-.025.336l.559.747c.074.098.225.039.304-.02.11-.082.171-.217.104-.35l-.591-.808m-.38 1.188l-.107-.143c.002.075.007.15.012.224l.095-.081" fill="url(#L)"/><path d="m27.19 25.24h-.002c-.375-.0001-.714.152-.961.398-.246.246-.398.586-.399.96v.003c-.0001.374.152.714.398.96.246.246.586.398.961.398h.002c.374.0001.714-.151.96-.397.246-.247.399-.587.399-.961v-.002c.0001-.374-.152-.713-.398-.959-.247-.246-.587-.399-.961-.399z" fill="url(#K)"/><path d="m33.22 22.613c-.073.003-.148-.006-.224-.026-.008.05-.02.099-.036.146-.048.139-.131.261-.241.35-.113.091-.254.149-.414.16-.094.006-.194-.003-.299-.033-.013.115-.051.219-.107.31-.067.11-.16.198-.269.261-.106.062-.227.099-.351.107-.164.011-.333-.027-.484-.123-.007.012-.014.023-.021.034-.053.082-.123.155-.202.215-.078.059-.166.104-.256.132-.209.064-.431.041-.6-.109-.363.312-.714.628-1.049.948-.082.078-.158.152-.229.221l-.039.039c.026.023.05.046.074.07.265.266.449.613.509 1 .359-.139.717-.308 1.075-.504.43-.235.865-.511 1.302-.822.171-.573.677-1.241 1.244-1.658.116-.085.237-.162.36-.226.08-.042.16-.078.239-.107.018-.132.024-.259.017-.385m2.275.177l-.994-1.619.052.095.051.092.004.005c.165.3.257.651.309 1.025.032.231.048.472.057.715l.522-.313" fill="url(#J)"/><path d="m37.12 25.277c.074.022.15.038.229.046-.554-.498-.848-1.231-.837-1.993.003-.191.024-.382.064-.569.033-.152.078-.302.136-.451l-1.195-1.954c-.921-.055-1.715-.631-2.145-1.431-.089-.166-.163-.342-.219-.527l-.017-.058c-.04.114-.065.231-.076.35-.026.277.023.561.131.824.109.265.277.508.489.7.253.228.568.383.917.415l.115.011.06.097 1.209 1.97.053.086-.029.097c-.12.405-.105.823.011 1.198.089.287.237.548.43.757.188.203.418.356.674.431" fill="url(#I)"/><path d="m59.64 7.289l-23.07 13.923.484.792 18.74-11.325c.921-.556 1.745-1.218 2.488-1.934.483-.466.932-.955 1.353-1.456m-23.22 13.663l22.994-13.88c-.63.155-1.242.336-1.841.55-.945.339-1.86.764-2.758 1.303l-18.834 11.31.438.717" fill="url(#H)"/><path d="m59.61 73.918c.341.412.722.789 1.13 1.133.423.356.879.68 1.354.974 2.451 1.515 5.387 2.21 7.01 2.414 1.999.252 3.826.819 5.383 1.861 1.561 1.044 2.845 2.559 3.751 4.704l.166.389c.291.682.438 1.028.468 1.345.033.345-.07.594-.278 1.098l-.082.199-.002.005c-.033.081-.06.169-.08.259-.02.09-.035.187-.044.287-.042.482.061.98.319 1.158.027.018.051.038.072.057.179.163.247.393.226.639-.018.217-.107.449-.248.652-.038.056-.081.11-.128.161-.434.477-.814.968-1.137 1.49-.233.376-.437.77-.612 1.189.056.026.121.046.192.063.161.037.354.05.569.045 1.09-.029 2.672-.544 3.673-1.05-.093-.191-.212-.356-.345-.454-.125-.092-.191-.169-.218-.283-.026-.107-.004-.198.042-.33l.0001-.002c.023-.066.046-.136.067-.212.022-.076.041-.152.056-.226.081-.393.092-.843-.079-1.273l-.305-.768.656.503.008.006c.043.032.086.062.129.088.046.028.094.055.142.079.153.076.317.133.479.17-.025-.187-.017-.365-.008-.546.016-.339.033-.69-.245-1.097l-.315-.461.548.108c.029.006.059.011.087.015.043.006.09.011.139.015.056.004.106.007.149.007.129.002.262-.006.385-.026-.131-.259-.205-.553-.284-.869-.132-.524-.282-1.119-.75-1.661-.844-.98-1.618-2.01-2.302-3.117-.677-1.095-1.265-2.266-1.748-3.539-.115-.074-.231-.146-.347-.216-.466-.281-.936-.531-1.405-.748-.473-.219-.943-.406-1.404-.559h-.002c-1.408-.468-2.934-.64-4.454-.811-.472-.053-.943-.106-1.431-.171-.4-.053-.799-.113-1.196-.185-1.937-.353-3.534-.976-4.829-1.891-1.301-.919-2.297-2.131-3.03-3.657-.176-.368-.505-.484-.832-.453-.055.005-.113.015-.171.029.286.527.532 1.221.749 1.999.129.465.248.96.359 1.466m12.562-14.687c-.571.811-1.236 1.48-1.964 2.055-.783.618-1.637 1.126-2.523 1.582.262.685.78 1.493 1.529 1.929.158.092.325.167.501.221.176.054.363.087.559.094.036.0001.07.002.102.002l.243-.0001-.07.232c-.038.125-.087.243-.145.353-.229.431-.597.725-1.011.88-.412.154-.871.17-1.284.045l-.03-.009c.046.568-.035 1.155-.233 1.668-.046.118-.098.234-.157.345-.058.111-.124.217-.195.317l-.002.002-.002.003-.083.111-.128-.052c-.588-.237-1.105-.664-1.524-1.203-.08-.104-.158-.212-.231-.324-.025-.038-.05-.077-.074-.116-.095.104-.199.193-.311.267-.292.194-.632.285-.97.282-.338-.004-.674-.102-.959-.289-.187-.122-.352-.283-.483-.479l-.132-.198.227-.072c.52-.165.929-.46 1.165-.995.236-.533.31-1.307.171-2.424-2.233.245-4.349-.081-6.372-.692-1.793-.542-3.512-1.307-5.173-2.097l5.652 9.376c.029-.009.059-.018.089-.026.09-.024.184-.041.28-.05.503-.047 1.01.135 1.285.711.697 1.453 1.645 2.606 2.881 3.48 1.242.877 2.778 1.476 4.647 1.816.385.07.778.129 1.174.182.458.061.94.115 1.422.169 1.542.174 3.09.348 4.547.833h.002c.483.161.97.353 1.452.577.487.226.973.483 1.45.771 2.462 1.486 4.761 3.813 6.06 6.887l.165.388c.291.682.438 1.028.468 1.345.033.345-.07.594-.277 1.098l-.082.2-.002.005c-.033.081-.06.169-.08.259-.02.09-.035.187-.044.287-.042.482.061.978.318 1.157l.004.002.003.003c.036.025.067.052.095.08.029.029.055.062.078.096.109.162.142.362.114.569v.005.002c-.005.036-.012.074-.022.114-.001.041-.021.079-.032.113-.064.186-.172.371-.314.527-.434.477-.814.968-1.137 1.49-.233.376-.437.77-.612 1.189.056.026.121.046.192.063.161.037.354.05.569.045 1.09-.029 2.672-.544 3.673-1.05-.093-.191-.212-.356-.345-.454-.115-.085-.182-.163-.211-.275-.027-.105-.012-.205.035-.338l.0001-.002c.023-.066.046-.136.067-.212.022-.076.041-.152.056-.226.081-.393.092-.843-.079-1.273l-.305-.768.656.503.008.006c.043.032.086.062.129.088.046.028.094.055.142.079.153.076.317.133.479.17-.025-.187-.017-.365-.008-.546.016-.339.033-.69-.245-1.097l-.315-.461.548.108c.029.006.059.011.087.015.043.006.09.011.139.015.056.004.106.007.149.007.128.002.26-.006.383-.025-.135-.263-.214-.56-.299-.882-.137-.515-.292-1.1-.738-1.655-1.06-1.318-1.958-2.681-2.756-4.126-.795-1.44-1.491-2.967-2.149-4.616-.16-.401-.364-.645-.608-.791-.248-.15-.551-.207-.896-.231h-.005l-.015-.002c-.364-.057-.706-.136-1.03-.234-.326-.099-.633-.216-.921-.35h-.0001c-.524-.243-1.223-.98-2.01-1.806-.327-.345-.67-.707-1.036-1.069l-.003-.003c-.373-.37-.764-.702-1.117-1-.532-.453-.982-.836-1.174-1.168-.202-.35-.306-.775-.35-1.244-.042-.455-.029-.951.006-1.46.147-2.136.145-4.05-.05-5.727-.133-1.145-.357-2.179-.684-3.096zm-22.496 4.561c.025.575.071 1.156.139 1.743.095.83.233 1.667.41 2.507.313 1.488.751 2.994 1.3 4.507.504-.121 1.01-.255 1.504-.403.475-.141.95-.295 1.423-.463l-4.775-7.891m12.972-11.216c.81.832 1.61 1.748 2.324 2.857.803 1.246 1.496 2.733 1.971 4.61.145-.08.291-.165.437-.257.213-.133.425-.279.635-.434 1.017-.753 1.972-1.745 2.646-2.807-.235-.283-.483-.545-.743-.787-.67-.623-1.421-1.125-2.233-1.571l-.014-.008c-.297-.162-.597-.313-.9-.451-.303-.138-.616-.267-.938-.386-1.016-.375-2.088-.636-3.184-.766m-13.265 1.921l-.057.054c.391.429.81.845 1.257 1.246.506.453 1.048.887 1.626 1.295 2.927 2.069 6.795 3.505 11.637 3.629-.884-3.819-3.054-5.837-4.874-7.529-.163-.152-.324-.301-.484-.452-.146.032-.291.066-.434.104-.776.204-1.527.496-2.393.879h-.002l-.005.002c-.293.13-.591.246-.891.349-.298.102-.599.19-.902.265-1.485.368-3 .409-4.477.156m32.649 40.25l-.023.066c-.135.393-.195.719-.067.884.133.173.495.226 1.22.089.301-.057.599-.118.892-.189.289-.069.581-.15.879-.249l.056-.018c.454-.149 1.691-.555 1.819-.914v-.002c.015-.043.025-.097.028-.156.004-.066.0001-.14-.008-.219-.009-.074-.023-.151-.042-.228-1.053.522-2.682 1.043-3.818 1.074-.251.007-.482-.001-.68-.056-.092-.021-.177-.048-.255-.081m-5.316-.39l-.023.066c-.135.393-.195.719-.067.884.133.173.495.226 1.22.089.301-.057.599-.118.892-.189.289-.069.581-.15.879-.249l.056-.018c.454-.149 1.691-.555 1.819-.914v-.002c.015-.043.025-.097.028-.156.004-.066.0001-.14-.008-.219-.009-.074-.023-.151-.042-.228-1.053.522-2.682 1.043-3.818 1.074-.251.006-.482-.001-.68-.056-.092-.021-.177-.048-.255-.081" fill="url(#G)"/><path d="m34.892 58.46c-.064.039-.127.082-.188.128-.091.069-.183.149-.274.239-.467.462-.869 1.162-.967 2.02-.064.557-.064 1.054.03 1.484.083.377.24.704.493.975.81-.083 1.624-.16 2.454-.216.833-.056 1.69-.093 2.587-.094.17-.243.285-.485.367-.727.082-.241.133-.486.173-.732-.727-.741-1.459-1.344-2.227-1.845-.767-.5-1.572-.899-2.448-1.234" fill="url(#F)"/><path d="m38.16 59.707c.579.425 1.141.912 1.7 1.477.216-.127.438-.262.665-.404.28-.176.563-.36.847-.551 1.411-.949 2.873-2.079 4.215-3.205l-1.398-2.311c-.98.907-2.01 1.823-3.036 2.682-1.01.844-2.022 1.634-2.992 2.312" fill="url(#E)"/><path d="m35.21 58.1c.848.334 1.632.73 2.382 1.218.057.037.113.074.169.112.291-.201.588-.413.887-.634-.499-.733-1.198-1.342-1.917-1.682-.149-.071-.299-.129-.447-.175-.092-.028-.184-.052-.274-.07-.122.179-.242.358-.358.536-.158.241-.305.473-.442.694m3.798-2.063c-.514-.398-1.075-.714-1.676-.964-.362.455-.706.917-1.03 1.376l-.012.017c.043.011.086.024.128.037.17.052.34.119.508.198.783.37 1.543 1.029 2.087 1.821.449-.341.903-.7 1.359-1.073-.406-.558-.863-1.025-1.364-1.412m.419-2.756c-.128-.062-.254-.116-.379-.163-.495.505-.969 1.04-1.418 1.586.59.256 1.145.576 1.657.972.529.409 1.01.899 1.438 1.482l.132-.11c.51-.426 1.02-.866 1.524-1.312-.737-.862-1.593-1.651-2.442-2.173-.17-.105-.341-.199-.512-.282m4.518 1.037l-.682-1.127c-.429-.26-.928-.504-1.44-.726-.489-.212-.994-.403-1.464-.57-.327.276-.647.568-.959.873.075.032.151.066.226.103.182.088.367.19.553.305.887.546 1.778 1.365 2.543 2.258.414-.371.823-.744 1.223-1.115" fill="url(#D)"/><path d="m36.817 80.995c-.083-.228-.173-.46-.27-.691-.11-.263-.225-.521-.344-.769-.593-1.234-1.339-2.369-2.085-2.914-.234.079-.538.17-.729.327 1.03.889 1.12 2.446 1.059 3.703.302.111.67.239.954.383.516.26.923.371 1.172.259.106-.048.188-.145.242-.298m-4.075-3.832c.256 1.028.305 2.061.227 3.102.367.101.785.195 1.156.282.044-1.131-.02-2.582-.976-3.339l-.405-.044h-.0001m-2.234-.249c-.834-.094-1.637-.16-2.446-.124-.565.025-1.123.076-1.674.201-.597.136-.668.34.031.695 1.328.674 2.706 1.303 4.104 1.819.169-.853.135-1.737-.016-2.592" fill="url(#C)"/><path d="m38.16 64.65c.11 1.302.185 2.616.078 3.93-.113 1.395-.431 2.786-1.126 4.152l-.016.032c-.126.248-.242.491-.347.728-.588 1.324-1.045 2.785-1.032 4.245.325.486.629 1.033.9 1.598.087.18.168.359.246.536-.02-.251-.03-.504-.03-.758-.0001-.301.012-.598.036-.889.127-1.525.58-3.081 1.289-4.617.721-1.56 1.141-3.097 1.288-4.623.139-1.449.03-2.892-.303-4.339l-.984.007m-2.878 12.486c.099-1.326.513-2.62 1.051-3.83.115-.259.234-.509.356-.751l.016-.032c.664-1.306.968-2.64 1.078-3.981.105-1.292.029-2.597-.081-3.891h-.099l-2.924 1.168c.054.514.1 1.04.138 1.569.04.562.071 1.141.092 1.725.106 2.865-.033 5.672-.458 7.178.282.217.562.506.832.844m2.475-12.94l1.309-.009-.064-.736c-.425.0001-.843.001-1.256.026l.011.719m-3.206 1.184l2.751-1.099-.012-.784c-.275.014-.547.03-.817.048-.805.055-1.586.128-2.36.207.036.283.088.557.158.821.074.28.167.549.279.808" fill="url(#B)"/><path d="m34.24 66.05c-.055-.029-.113-.06-.174-.093-.325-.176-.744-.404-.978-.374h-.004c-.199.028-.513.35-.772.614-.116.119-.222.228-.319.309l-.002.003-.003.003c-.045.038-.102.09-.165.148-.262.242-.625.576-.954.625h-.003-.005c-.446.06-.891-.174-1.339-.409-.118-.062-.238-.125-.338-.173-.239-.115-.472-.203-.681-.203-.284 0-.735.457-1.1.827-.121.123-.234.237-.331.326-.339.308-.72.59-1.094.867-.08.059-.157.116-.274.204l-.007.087c-.87-.071-1.443.03-1.977.125-.395.07-.77.136-1.236.132l-.229-.002c-.747-.007-1.494-.015-2.246.06-.096.009-.213.023-.321.036-.498.057-.791.091-1.376-.072h-.004c-.224-.062-.443-.097-.654-.111-.211-.013-.415-.004-.609.023-.986.136-1.712.714-1.893 1.152l-.012.029-.019.025c-.86 1.1-1.826 2.143-2.903 3.149-1.077 1.01-2.261 1.974-3.56 2.921-.303.243-.517.558-.666.922-.154.375-.24.805-.284 1.269.019.433.02.85-.019 1.258-.04.418-.121.825-.267 1.23-.133.37-.235.779-.319 1.208-.085.435-.15.884-.21 1.33l-.0001.001c-.017.123-.031.222-.045.315.321.193.933.082 1.615-.204.758-.319 1.579-.855 2.196-1.447.155-.148.296-.3.419-.451-.091-.128-.198-.255-.319-.381-.409-.422-.665-.913-.819-1.445-.151-.519-.201-1.078-.199-1.653l.003-.948.429.845.014.027c.061.118.125.231.192.338.069.11.144.217.222.318.3.388.659.699 1.026.81-.015-.137.0001-.253.018-.377.02-.146.042-.307-.013-.552l-.181-.809.57.604.002.002c.036.038.077.075.12.109.043.034.092.067.145.098.148.089.308.153.448.18-.066-.276-.039-.577-.011-.895.045-.507.095-1.069-.302-1.553l-.162-.197.214-.139c.363-.236.997-.666 1.636-1.179.631-.507 1.264-1.094 1.634-1.649l.085-.128.151.031c.504.103 1.036.196 1.593.111.55-.084 1.138-.344 1.773-.946l.114-.108.142.068c.585.28 1.144.491 1.685.632.537.14 1.056.211 1.566.213.535.002 1.082-.03 1.627-.062.596-.035 1.192-.071 1.8-.061.317.005.514.008.708.065.202.058.369.163.613.366.92.768 2.144-.251 3.11-1.054.194-.161.378-.315.551-.447l2.987-5.815-.008-.081zm-13.215 2.56c-.747-.944-1.344-2.249-1.739-3.638-.139.001-.281.021-.423.033-.192.015-.397.033-.603.051h-.007c-.35.029-.732.009-1.119-.012-.492-.027-.994-.054-1.42.029-.524.102-.963-.003-1.427-.114-.153-.036-.308-.074-.487-.106h-.003-.002c-.219-.038-.433-.049-.641-.037-.209.012-.413.046-.609.098-1 .265-1.76.961-1.893 1.395l-.009.03-.017.026c-.725 1.132-1.435 2.02-2.255 2.884-.813.855-1.734 1.686-2.885 2.706-.269.26-.446.579-.555.941-.112.372-.155.789-.155 1.232.112.85-.252 2.268-.451 3.047l-.008.032-.003.014c-.027.108-.052.215-.074.319-.022.104-.043.217-.063.336-.101.591-.159 1.233-.183 1.844v.019c-.004.105-.009.2-.014.293.053.028.111.049.175.064.121.027.259.033.41.02.816-.073 1.932-.683 2.694-1.499-.002-.049-.004-.097-.006-.146v-.014l.002-.016c.032-.351.088-.686.175-.999l-.007-.008c-.073-.073-.152-.144-.236-.21-.594-.464-.672-.967-.742-1.423-.009-.057-.017-.113-.025-.154l-.126-.723.514.524c.098.1.188.153.299.179.078.018.17.026.281.029-.017-.145-.02-.282-.022-.423-.003-.238-.007-.488-.102-.79l-.309-.981.695.759c.157.172.32.292.499.36.089.034.185.056.287.067-.065-.285-.003-.592.062-.914.083-.411.172-.853-.07-1.223l-.094-.143.112-.13.004-.005c.191-.212.527-.551.92-.948.755-.763 1.724-1.742 2.278-2.439l.062-.079.1-.007c.138-.001.289-.018.435-.025.79-.039 1.42-.07 2.263-.848l.128-.118.148.093c.273.171.542.332.81.481.248.138.492.26.731.363.206-.071.426-.126.658-.158.223-.031.457-.041.699-.026.242.015.493.056.749.127l.004.0001c.498.138.759.109 1.203.057.088-.001.186-.021.328-.036.355-.035.708-.053 1.06-.061m-17.07 11.904c-.008.184-.012.366-.006.543.012.392.051.612.157.669.125.067.392-.0001.855-.191.369-.151.762-.336 1.149-.573.369-.226.732-.499 1.066-.837.027-.147.047-.295.061-.444.013-.141.022-.285.026-.43-.808.726-1.857 1.247-2.658 1.319-.198.018-.383.009-.55-.029-.034-.008-.068-.017-.101-.028m2.824 3.77c-.028.2-.052.399-.064.591-.025.393.051.614.226.693.215.098.585.052 1.105-.106.472-.143.983-.332 1.487-.604.498-.269.988-.62 1.425-1.089l.002-.002c.106-.115.194-.231.264-.347.069-.114.12-.227.155-.338.097-.312.069-.63-.062-.946-.105.12-.22.24-.341.356-.656.629-1.529 1.199-2.336 1.539-.716.301-1.395.421-1.862.252m27.695-14.431l-1.579 2.928 1.547.094c.046-.94.057-1.969.033-3.02" fill="url(#A)"/><path d="m38.882 52.63c-.418-.235-.835-.553-1.251-.989-.358-.375-.715-.838-1.071-1.412-.883 2.992-2.79 5.639-5.109 7.2-.932.627-1.932 1.08-2.961 1.312-1.034.233-2.096.242-3.145-.021-1.572-.394-3.113-1.398-4.486-3.17-.048.158-.098.314-.148.468-.347 1.068-.717 1.99-1.037 2.651-.159.329-.276.715-.355 1.143-.08.435-.119.911-.122 1.412-.004.707.066 1.462.199 2.219 1.299.081 2.35.197 3.142.395.681.17 1.179.405 1.487.734 1.406-.632 2.864-1.158 4.392-1.535 1.469-.363 3-.589 4.619-.641-.098-.473-.098-1.01-.03-1.597.111-.972.569-1.767 1.1-2.292.103-.102.211-.195.321-.278.093-.071.186-.133.276-.186.184-.303.372-.601.562-.891.207-.317.427-.641.659-.969.859-1.216 1.858-2.455 2.957-3.553m-3.893-3.51c-1.579 2.839-3.436 4.983-5.566 6.173-.471.263-.956.48-1.454.647-.165.055-.33.105-.497.15.364-.015.729-.06 1.091-.133 1.371-.279 2.715-.979 3.909-2.115 1.074-1.021 2.028-2.397 2.775-4.136-.055-.048-.103-.107-.142-.172-.056-.094-.095-.206-.11-.319-.004-.031-.006-.062-.007-.093m-.808-3.107c-2.358-3.758-4.847-6.219-7.328-7.766-2.437-1.52-4.869-2.16-7.163-2.286-.093.394-.262.787-.526 1.163 1.419 1.252 2.57 2.319 2.858 4.746.087.734.174 1.681.059 2.574-.118.925-.453 1.786-1.218 2.296-.112.074-.229.134-.353.197.464.403.815.992 1 1.859.219.998.223 2.45-.063 4.358.097.126.169.272.205.427l.006-.006c.086.09.173.178.261.263.497.239 1.01.41 1.536.511.551.107 1.117.138 1.692.093 2.975-.233 6.206-2.507 9.104-6.916-.005-.026-.001-.052-.012-.078-.019-.189.025-.381.143-.526l-.02-.016c-.094-.078-.168-.179-.214-.293-.046-.114-.064-.241-.045-.37.011-.078.036-.155.075-.231" fill="url(#9)"/><path d="m19.764 35.507c2.35.137 4.839.797 7.331 2.351 2.514 1.568 5.03 4.044 7.409 7.809.011-.007.022-.014.034-.021.291-.176.557-.323.827-.448.275-.127.558-.235.877-.331.251-.075.51-.137.773-.18-.467-.361-.9-.43-1.354-.503-.571-.091-1.17-.187-1.901-.765l-.32-.253.384-.14c.274-.1.539-.208.77-.346.136-.082.259-.174.365-.283-.28-.141-.504-.305-.721-.464-.207-.152-.408-.299-.637-.406-.276-.13-.572-.186-.868-.243-.439-.084-.877-.168-1.313-.476l-.331-.234.372-.162c.244-.106.475-.218.679-.353.121-.08.234-.169.334-.271-.237-.137-.449-.29-.659-.441-.233-.168-.464-.335-.715-.465-.415-.216-.873-.249-1.332-.283-.402-.029-.806-.059-1.213-.202l-.548-.193.532-.232c.272-.119.513-.268.721-.449.139-.121.265-.255.377-.405-.242-.102-.46-.221-.677-.34-.376-.205-.749-.409-1.217-.497-.38-.072-.689-.027-1 .019-.379.056-.763.113-1.294-.004l-.581-.128.517-.294c.313-.178.587-.428.787-.738.023-.036.046-.073.068-.112-.162-.021-.32-.046-.473-.069-.471-.073-.883-.137-1.226-.036-.304.09-.585.222-.847.344-.485.227-.913.427-1.372.341l-.339-.064.191-.287c.137-.205.252-.448.323-.715l.006-.024c-.372.042-.762.025-1.14.009-.658-.028-1.281-.054-1.605.256.027.238.031.481.009.726m16.881 13.967c.44.791.879 1.393 1.317 1.852.422.442.842.751 1.262.969.284-.271.574-.531.869-.779l.052-.736c-.702.042-1.246-.411-1.785-.831.504-.065.951-.095 1.361-.427-.2-.139-.368-.317-.526-.501-.111.073-.223.127-.34.166-.213.07-.433.087-.665.071-.599-.04-1.052.049-1.545.215" fill="url(#8)"/><path d="m21.09 40.12c-.022.464-.071.933-.181 1.386.272.357.5.783.695 1.261.02.048.039.096.058.145-.021-.351-.057-.687-.093-.987-.084-.71-.25-1.297-.48-1.805m-3.069 10.411c-.108.112-.246.181-.392.202-.126.018-.257.0001-.379-.053.084.599.121 1.215.048 1.747-.047.338-.137.644-.285.894.437-.208.718-.518.878-.907.175-.426.212-.954.15-1.552-.012-.121-.019-.231-.02-.332m-.084-2.236c.043.036.082.077.117.124l.0001.002.012.017.003.004.002.002c.031.045.057.094.078.145.02.048.035.1.045.154.011.058.014.116.011.174.126.032.243.068.354.108.081-.134.166-.284.253-.461.058-.117.107-.291.157-.473.096-.341.198-.706.418-.932l.002-.003.002-.002c.317-.322.629-.479.902-.617.119-.06.23-.116.319-.176.18-.12.331-.265.457-.429-.111-.662-.282-1.353-.506-1.963-.021-.057-.042-.113-.064-.168-.282.796-.674 1.578-1.128 2.343-.436.735-.928 1.453-1.436 2.151zm-1.806 2.673l-.019-.011c-.045-.029-.086-.063-.123-.1-.183-.185-.266-.463-.198-.727-.061-.006-.12-.016-.177-.036-.049-.017-.096-.04-.14-.067-.212-.129-.357-.369-.36-.64-.0001-.157.044-.312.137-.44-.36-.232-.781-.362-1.24-.427-.681-.096-1.448-.047-2.22.043-.055.266-.117.531-.178.794-.043.184-.085.367-.131.58-.094.435-.15.814-.128 1.136.021.297.11.549.303.756l.002.002.002.002c.161.177.237.432.318.709.12.406.257.874.709.989.309.078.61.081.91.029.31-.053.622-.163.943-.306l.005-.002c.103-.046.207-.112.31-.193.106-.084.213-.186.319-.304.416-.462.777-1.127.956-1.786m-5.535-12.385c.399-.535.826-1.059 2.028-1.422l.132.438c-1.11.335-1.476.828-1.845 1.325-.265.357-.532.717-1.03 1.038.529.263 1.048.2 1.601.031 2.054.245 4.243-.265 5.568-1.966.928.555 1.798 1.189 2.506 2.02.073-.645.087-1.316-.009-1.959-.251-.237-.516-.471-.791-.713l-.05-.044-.162-.143.135-.17c.731-.924.768-1.988.468-2.885-.058-.174-.13-.344-.213-.507-.014-.027-.027-.053-.041-.079-.231.538-.502.961-.782 1.278-.068.077-.139.15-.212.218-.076.071-.148.132-.215.183-.307.232-.508.512-.647.824-.144.323-.226.687-.29 1.068l-.451-.075c.049-.291.109-.573.197-.844-.469.113-.935.262-1.399.451-.126.051-.244.102-.354.151-.114.051-.231.106-.352.166h-.002l-.003.002-.199-.411h.0001.002c.118-.058.241-.116.366-.172.13-.059.253-.111.368-.158.591-.24 1.187-.421 1.788-.544.04-.075.083-.148.131-.219-.04-.295-.03-.373.044-.643.019-.072.031-.146.035-.224-.372.161-.752.212-1.125.261-.664.089-1.304.174-1.729 1.014l-.123.243-.218-.163c-.301-.225-.376-.576-.457-.963-.084-.399-.179-.847-.61-1.133-.018.321-.123.612-.231.911-.18.501-.371 1.032-.062 1.763l.161.38-.407-.066c-.353-.057-.689-.054-.999.045-.528.169-.756.545-1.027.917-.205.281-.43.52-.727.703.394.166.818.198 1.231.076m5.536.928c-1.274.821-2.879 1.095-4.372.97.026.457-.049.904-.187 1.34-.239.184-.473.403-.548.707-.062.25.007.506.162.708.154.2.311.247.539.304-.063.406-.112.807-.085 1.219.021.312.08.612.174.926.126.42.175.842.173 1.266 1.353-.077 3.147-.107 4.24.809 1.261-1.751 2.318-3.672 3.062-5.698-.813-1.113-1.865-2.039-3.157-2.551" fill="url(#7)"/><path d="m16.826 50.982l-.023.013c-.071.037-.148.06-.229.07-.198.736-.6 1.479-1.062 1.993-.026.029-.053.058-.08.086.17.219.372.317.593.343.121.014.229-.044.32-.112.287-.2.435-.567.496-1.01.057-.417.04-.899-.016-1.382" fill="#ccc"/><path d="m39.27 28.964c.157.132.357.215.568.245.212.03.436.006.638-.076.164-.066.315-.17.435-.315-.066.017-.13.029-.193.038-.263.038-.497.009-.683-.075-.186-.084-.326-.199-.404-.377-.135.091-.521.081-.639.037-.02.195.136.403.278.522" fill="#633"/><path d="m47.13 39.662c.248-2.15.874-4.075 1.757-5.567.208-.351.43-.679.665-.98-.944-.473-1.772-.444-2.428-.192-.681.262-1.179.76-1.428 1.182-.009.016-.021.038-.036.064-.443.824-.626 2.559.236 4.086.167.296.375.584.63.858.179.192.379.376.604.548" fill="url(#6)"/><path d="m47.21 44.4c-.129-.854-.197-1.748-.197-2.668v-.002c.0001-.525.023-1.04.066-1.544-.341-.235-.634-.491-.886-.762-.278-.298-.506-.617-.692-.946-.353-.625-.545-1.283-.622-1.912-1.182.211-2.278.287-3.3.195-1.01-.091-1.941-.344-2.81-.794-.57 1.193-.856 2.384-.896 3.57-.06 1.795.44 3.586 1.372 5.358l.095.036c.309.119.576.222 1.09.18.994-.082 2.02-.136 3.034-.146.196-.002.393-.002.587-.0001.197.0001.392.005.581.001h.021l.167.005.046.16.018.064h1.499c.1-.212.232-.376.385-.51.137-.12.286-.213.442-.294z" fill="url(#5)"/><path d="m49.15 49.787c-.09-.136-.177-.275-.262-.419-.732-1.238-1.288-2.773-1.597-4.487-.079.047-.153.099-.221.158-.122.107-.226.243-.3.425.281 1.453.645 2.618 1.119 3.379.355.571.772.904 1.262.943m-12.325-1.4l-1.35.635-.014.006c-.014.034-.017.079-.011.126.007.051.025.102.051.146.021.036.046.063.071.077.012.006.025.008.039.002l.11-.043c.906-.359 1.513-.6 2.5-.534.176.012.339 0 .492-.05.15-.049.295-.139.437-.283.486-.492 1.15-.248 1.739-.032.157.058.308.113.441.147.827.211 1.64.414 2.434.561.683.126 1.363.213 2.044.232-.251-.604-.475-1.214-.684-1.839-.228-.681-.439-1.381-.651-2.11-.143-.003-.286-.006-.427-.007-.192-.0001-.386-.0001-.58.0001-.987.001-2.01.064-3 .146-.615.05-.927-.07-1.29-.21-.189-.073-.393-.152-.667-.208h-.002-.004c-.098-.021-.195-.037-.293-.049-.103-.012-.202-.02-.297-.023-.515-.016-1.042.078-1.536.227-.299.09-.562.19-.817.308-.26.12-.511.258-.783.423-.136.083-.202.18-.215.272-.007.047 0 .094.017.136.017.042.045.081.082.111.053.044.125.069.204.063l1.141-.602.213.404-1.429.754c-.073.038-.099.132-.09.229.005.046.017.091.036.131.019.038.042.071.07.096.056.049.142.064.254.001l1.33-.636.197.413-1.33.635c-.062.029-.122.05-.179.063-.04.061-.049.141-.037.221.001.06.031.118.06.167.026.043.057.079.091.1.027.017.058.022.088.008l1.35-.635.195.413" fill="url(#4)"/><path d="m50.41 51.28c-.333-.302-.647-.651-.941-1.041-.682.088-1.25-.202-1.723-.802h-1.414l.037.086.138.317-.346.002c-.83.006-1.651-.091-2.473-.242-.827-.152-1.64-.356-2.465-.566-.149-.038-.31-.097-.478-.159l-.184 2.607c.463.165.959.355 1.447.566.269.116.534.238.789.366l-.012-.019.199-.118 3.177-1.882.195-.116.117.194 2.359 3.914c.048-.038.095-.079.142-.121.11-.1.218-.21.321-.331.516-.607.938-1.491 1.116-2.655" fill="url(#3)"/></g><path d="m40.43 26.932c-.197-.282-.205-.468-.092-.874l1.032.583-.941.292m-.347-1.491c.074-.023.151-.039.23-.049.296-.038.603.023.858.169.259.148.467.383.563.694.021.069.037.141.046.215l-.303.037c-.007-.058-.019-.112-.034-.162-.071-.23-.228-.407-.423-.518-.199-.113-.438-.161-.67-.132-.059.006-.118.02-.177.038l-.089-.291"/><ellipse transform="matrix(1.01795 0 0 1.01733-57.5-91.84)" cx="109.07" cy="131.3" rx="5.956" ry="10.23" fill="#ea2331"/><g fill-rule="nonzero"><path d="m18.13 43.629c-.369.649-1.089 1.31-1.892 1.142l-.003-.315c.697.21 1.351-.463 1.656-1.025l.239.198m-.612-2.587c.269.41.319.987-.038 1.362.086.363-.032.744-.249 1.032-.417.555-1.165.696-1.565.051-.299.125-.424.49-.445.795l-.292-.134c.046-.333.191-.648.434-.834.06-.046.126-.084.197-.113.057-.022.116-.039.179-.049l.49-.751c.549.071 1.275-.034 1.196-.753-.014-.127-.057-.257-.126-.38l.218-.226m-.316 1.562c-.253.123-.544.145-.821.12l-.126.193c.019.322.326.505.627.456.017-.017.034-.035.05-.053.173-.195.286-.458.271-.716m-1.165.647l-.081.123c.113.158.278.263.476.24-.057-.025-.111-.055-.16-.091-.098-.072-.179-.164-.235-.273m-1.758 8.549c.087-.088.111-.24.089-.366-.02-.118-.087-.196-.155-.277-.157-.186-.302-.477-.286-.873l.441-.177c-.073.382.089.631.194.757.119.141.233.277.267.485.05.308-.057.675-.323.855-.233.158-.648.162-.85-.06l.077-.395c.152.098.377.223.546.051"/><path d="m50.38 44.782l2.348.699v-8.233l-2.336.695c-.02.007-.041.011-.063.011-.099 0-.18-.08-.18-.179v-2.606-.007c0-.017.003-.034.008-.051.028-.095.128-.149.223-.121l2.256.674-.673-2.243c-.008-.02-.012-.042-.012-.065 0-.099.08-.179.18-.179h2.615c.017.0001.034.003.051.008.095.028.149.128.121.223l-.677 2.257 2.25-.672c.018-.006.037-.009.057-.009.099 0 .18.08.18.179v2.613c0 .017-.002.034-.008.051-.028.095-.128.149-.223.121l-2.348-.699v8.233l2.342-.697c.018-.006.037-.009.057-.009.099 0 .18.08.18.179v2.613c0 .017-.002.034-.008.051-.028.095-.128.149-.223.121l-2.256-.674.676 2.254v.003c.005.016.008.033.008.051 0 .099-.08.179-.18.179h-2.609-.006c-.017 0-.034-.003-.051-.008-.095-.028-.149-.128-.121-.223l.677-2.257-2.244.67c-.02.007-.041.011-.063.011-.099 0-.18-.08-.18-.179v-2.606-.007c0-.017.003-.034.008-.051.028-.095.128-.149.223-.121z"/><path d="m52.847 45.889l-2.334-.695v2.132l2.343-.7c.095-.028.195.026.223.121.001.035.009.07 0 .102l-.703 2.345h2.133l-.703-2.345c-.028-.095.026-.195.121-.223.035-.001.07-.009.102 0l2.343.7v-2.132l-2.348.699c-.095.028-.195-.026-.223-.121-.005-.017-.008-.034-.008-.051v-.006-8.707c0-.099.08-.179.18-.179.018 0 .035.003.051.008h.003l2.345.698v-2.132l-2.343.7c-.095.028-.195-.026-.223-.121-.011-.037-.001-.075.002-.109l.701-2.338h-2.133l.703 2.345c.028.095-.026.195-.121.223-.039.012-.078.001-.113-.003l-2.332-.697v2.132l2.348-.699c.095-.028.195.026.223.121.005.017.007.034.007.051v8.714c0 .099-.08.179-.18.179-.023 0-.045-.004-.065-.012" fill="url(#2)"/><g transform="matrix(1.01795 0 0 1.01733-57.5-91.84)"><path d="m95 166.76l.72-.89.12 1.14 1.14-.12-.72.89.89.72-1.14.12.12 1.14-.89-.72-.72.89-.12-1.14-.44.05-.95.59-.06-.84.95-.48.08-.09-.88-.72 1.13-.12-.12-1.14z"/><path d="m94.43 166.62l.083.788-.788.083.616.499-.499.616.788-.083.083.788.499-.616.616.499-.083-.788.788-.083-.615-.499.499-.616-.788.083-.083-.788-.499.615-.616-.499m-1.263 2.426l.232-.143-.13.014.266-.328-.389.197c.008.087.016.174.021.261" fill="#e5e5e5"/><path d="m95.12 167.19c.197.0001.375.08.504.209.128.128.208.305.208.502v.002c-.0001.197-.081.375-.209.504-.128.128-.306.208-.501.208h-.0001c-.197-.0001-.375-.081-.504-.209-.128-.128-.207-.305-.208-.501v-.0001c.0001-.197.08-.375.209-.504.129-.128.306-.207.502-.208h.0001zm.0001.25h-.002c-.127 0-.242.052-.325.135-.084.084-.136.2-.136.327v.002c0 .127.052.242.135.326.083.083.199.136.326.136h.002c.127 0 .242-.052.326-.135.084-.083.135-.199.136-.326v-.003c0-.126-.052-.241-.135-.325-.084-.084-.199-.136-.326-.136"/></g><g fill="#f8e335"><path d="m36.24 49.68l-.026-.047c-.104.04-.211.083-.324.128l-.11.044c-.03.013-.059.021-.088.027-.776 1.823-1.775 3.266-2.903 4.34-1.258 1.197-2.679 1.935-4.133 2.231-1.059.215-2.135.196-3.178-.053h-.017v-.004c-.387-.093-.77-.218-1.146-.373-.943-.391-1.841-.978-2.655-1.756l-.011-.005-.002-.002.002-.004-.033-.033c-.094.254-.281.474-.526.588-.023.083-.045.164-.067.242 1.356 1.851 2.883 2.883 4.436 3.273.978.245 1.969.237 2.934.02.971-.219 1.918-.649 2.805-1.246 2.342-1.577 4.249-4.307 5.04-7.37m22.687 2.977c.519-.09 1.072-.145 1.695-.167.494-.017.986-.006 1.475.031.897.898 1.792 1.884 2.578 3.104.815 1.265 1.515 2.785 1.98 4.724l.053.219.201-.101h.0001c.223-.115.445-.241.665-.379.22-.138.44-.289.657-.449 1.016-.753 1.974-1.738 2.667-2.798.277.367.533.769.766 1.214.129.246.247.503.356.77-.579.872-1.269 1.58-2.031 2.181-.801.633-1.685 1.149-2.604 1.615l-.139.07.05.147c.263.775.852 1.751 1.741 2.269.179.104.371.19.577.253.163.05.332.084.51.1-.011.024-.023.048-.035.071-.185.348-.483.586-.819.712-.338.127-.716.14-1.055.037-.093-.028-.182-.064-.266-.109l-.32-.169.06.357c.1.6.037 1.245-.175 1.794-.041.107-.088.209-.139.306-.03.055-.061.108-.093.159-.471-.221-.892-.583-1.242-1.033-.076-.097-.148-.197-.216-.301-.068-.103-.133-.211-.195-.322v-.003l-.145-.257-.162.247c-.106.161-.235.289-.379.385-.231.153-.501.226-.769.223-.269-.003-.537-.082-.765-.232-.084-.055-.163-.12-.235-.195.501-.208.898-.547 1.144-1.105.274-.62.354-1.509.174-2.792l-.025-.175-.175.021c-2.242.275-4.368-.046-6.401-.659-1.95-.589-3.815-1.447-5.612-2.31l-3.191-5.295c.392.428.812.845 1.26 1.247.515.462 1.068.905 1.658 1.322 3.03 2.139 7.04 3.613 12.07 3.699l.225.004-.047-.22c-.875-4.073-3.138-6.178-5.03-7.938-.1-.092-.198-.184-.295-.274m-25.789 10.09c-1.619.046-3.157.27-4.63.634-1.48.366-2.896.873-4.264 1.485l.003.005c.226.431.219.976.049 1.656-.139.555-.386 1.203-.705 1.958l.053-.009c.504-.089 1.041-.185 1.817-.148l.248-.183c.363-.269.733-.542 1.058-.838.095-.087.201-.193.314-.308.425-.431.949-.963 1.425-.963.293 0 .586.108.878.248.13.062.242.121.354.18.383.202.763.402 1.065.361h.002c.19-.028.493-.307.711-.509.069-.063.131-.12.183-.164l.002-.002.003-.003c.074-.061.174-.164.284-.276.308-.315.682-.699 1.035-.749h.004.003c.315-.042.708.135 1.052.315-.099-.242-.182-.491-.25-.747-.093-.351-.157-.716-.194-1.093-.227-.249-.39-.533-.498-.85m-11.249 5.85c.463-.979.721-1.822.77-2.401.001-.114.011-.216.005-.305-.006-.084-.019-.156-.039-.213l-.0001-.002c-.077-.221-.39-.387-.906-.516-.496-.123-1.162-.203-1.976-.255.42 1.451 1.066 2.796 1.877 3.689.09 0 .18 0 .27.0001m12.621-20.627c-2.948 4.406-6.253 6.684-9.319 6.924-.615.048-1.222.015-1.813-.1-.137-.027-.273-.057-.408-.092.488.345.998.627 1.522.844.343.142.692.257 1.045.343.282-.003.564-.023.845-.058.496-.062.978-.173 1.446-.33.471-.158.93-.363 1.377-.613 2.098-1.171 3.931-3.323 5.492-6.184-.051-.093-.088-.197-.105-.303-.019-.12-.014-.243.02-.359-.036-.021-.07-.046-.102-.074m-14.869 16.572c.891.053 1.62.137 2.162.272.638.158 1.037.396 1.159.744v.002c.031.09.05.191.059.304.008.109.006.23-.005.361-.05.586-.296 1.417-.735 2.375l.208.002c.242.002.464-.019.682-.05.355-.829.63-1.531.776-2.113.149-.595.161-1.059-.019-1.405-.204-.393-.701-.661-1.472-.854-.751-.188-1.751-.3-2.986-.38.05.248.108.495.171.739m-2.895-16.725c.163.081.298.224.367.41.117-.075.249-.11.381-.107.527-.721 1.038-1.461 1.485-2.214.546-.92.997-1.861 1.266-2.813l.154-.546.267.501.002.003.003.004c.059.115.115.237.169.363.054.127.106.257.154.387.171.466.312.978.421 1.49.107-.284.176-.594.217-.913l.006-.044c-.131-.505-.28-.978-.454-1.403-.198-.483-.443-.921-.772-1.327.193-.749.251-1.513.231-2.287-.177-.258-.372-.496-.583-.725.05.871-.07 1.719-.219 2.581-.735-1.022-1.607-1.893-2.682-2.555-.179.208-.377.4-.592.573.543.242 1.053.555 1.533.939.594.476 1.138 1.062 1.633 1.756l.069.097-.041.112c-.607 1.684-1.425 3.264-2.293 4.636-.171.27-.342.53-.511.777-.071.103-.141.205-.211.306m-1.083.854c.032-.007.064-.011.098-.013h.011c-.011-.041-.019-.084-.023-.127-.005-.055-.005-.109.002-.16.014-.116.055-.226.118-.32-.424-.34-1.01-.527-1.642-.619-.737-.107-1.541-.085-2.258-.026-.019.227-.049.455-.088.682.756-.083 1.507-.122 2.194-.025.593.084 1.135.267 1.589.609m15.371 24.708l.957.106 2.452-4.547c-.02-.499-.049-1.01-.085-1.513-.011-.151-.022-.301-.034-.45l-3.291 6.405m-.51 1.984c.403 1.657.537 3.067.193 4.699l-.303-.118-1.033-.47.968.662 2.103.929c.212-1.482.121-2.95-.263-4.2-.08-.26-.172-.514-.276-.76-.09-.213-.191-.425-.303-.635zm-12.424-26.1c-.039.065-.089.124-.15.173.036.03.068.063.097.098.007.008.014.017.02.026.921.148 1.152.852 1.206 1.708.017.269.015.56.013.851-.005.7-.011 1.407.271 1.855.093.149.218.262.369.349.546.315 1.508.2 1.393-.607-.045-.317-.288-.553-.577-.63-.27-.072-.477.021-.71.136-.163-.416-.195-.82-.209-1.272-.033-1.01-.075-2.259-1.724-2.687m13.759 24.669l-1.016-.113-.243 1.118 1 .076zm-2.179 2.424c.228.011.535.075.762.094-.041-.242-.09-.483-.146-.725z"/><path d="m16.424 49.652c.101.153.287.229.46.175.019-.006.037-.013.054-.022.212-.108.268-.375.17-.575-.088-.183-.304-.295-.5-.225-.262.094-.331.425-.184.647m.431.492c-.217.029-.439-.055-.593-.21-.109.121-.19.213-.192.377-.002.189.117.373.296.433.202.068.414-.039.486-.238.041-.135.02-.226.002-.362m.595-.591c-.035.218-.165.411-.359.515.107.202.218.401.493.361.135-.019.232-.103.285-.212.059-.123.061-.279-.006-.409-.091-.176-.235-.216-.412-.255m-.377-.784c.2.111.339.315.376.538.156-.028.279-.048.371-.176.098-.136.105-.327.025-.473-.08-.147-.238-.246-.407-.228-.204.021-.279.168-.365.339m-.951.966c-.101-.205-.108-.451-.008-.66-.104-.053-.201-.114-.323-.11-.222.008-.376.201-.374.416.002.163.089.307.215.385.025.016.051.029.08.038.029.001.058.016.087.019.013.0001.024.002.033.002.109.002.193-.047.291-.09m.716-1.047c.001-.087.027-.177.012-.265l-.008-.035-.006-.022-.002-.007c-.006-.021-.014-.04-.024-.059-.099-.205-.344-.309-.545-.208-.152.077-.231.249-.216.413.003.031.001.064.021.098v.002.002c.036.11.11.182.184.268.153-.152.371-.222.583-.188"/></g></g></g></svg>