<svg xmlns="http://www.w3.org/2000/svg" viewBox="0 0 300 360" xmlns:xlink="http://www.w3.org/1999/xlink"><defs><linearGradient id="9" gradientUnits="userSpaceOnUse" x2=".98" gradientTransform="matrix(-2.55748 0 0 10.84688 37.36 15.05)" x1=".02" xlink:href="#0"/><linearGradient id="A" gradientUnits="userSpaceOnUse" x2=".98" gradientTransform="matrix(-2.53294 0 0 10.84688 47.774 15.05)" x1=".02" xlink:href="#0"/><linearGradient id="G" gradientUnits="userSpaceOnUse" x2=".77" gradientTransform="matrix(5.39767-3.78971-3.44786-4.92409 65.23 20.633)" x1=".23" xlink:href="#0"/><linearGradient id="B" gradientUnits="userSpaceOnUse" gradientTransform="matrix(0-5.62044-3.12862 0 68.35 25.692)" xlink:href="#0"/><linearGradient id="C" gradientUnits="userSpaceOnUse" x2=".86" gradientTransform="matrix(0-4.60391-44.13 0 55.23 31.752)" x1=".14" xlink:href="#0"/><linearGradient id="F" gradientUnits="userSpaceOnUse" x2=".81" gradientTransform="matrix(4.98952-3.69347-3.36834-4.56265 14.743 20.222)" x1=".19" xlink:href="#0"/><linearGradient id="D" gradientUnits="userSpaceOnUse" x2=".99" gradientTransform="matrix(-56.4657 0 0 1.51727 69.909 31.14)" x1=".001" xlink:href="#0"/><linearGradient id="E" gradientUnits="userSpaceOnUse" x2=".98" gradientTransform="matrix(-4.48081 0 0 1.17244 18.19 18.975)" x1=".02" xlink:href="#0"/><linearGradient id="8" gradientUnits="userSpaceOnUse" x2=".91" gradientTransform="matrix(-9.59833 0 0 10.88467 46.3 14.393)" x1=".09" xlink:href="#0"/><linearGradient id="0" gradientUnits="userSpaceOnUse" x2=".77" gradientTransform="matrix(-370.7256 0 0 174.1806 601.38 536.51)" x1=".23"><stop stop-color="#e5e5e5"/><stop stop-color="#fff" offset="1"/></linearGradient><linearGradient id="1" gradientUnits="userSpaceOnUse" x2=".98" gradientTransform="matrix(-10.96519 0 0 49.71781 68.825 25.736)" x1=".02" xlink:href="#0"/><linearGradient id="7" gradientUnits="userSpaceOnUse" x2=".8" gradientTransform="matrix(0-12.89571-51.6189 0 66.914 27.409)" x1=".2" xlink:href="#0"/><linearGradient id="2" gradientUnits="userSpaceOnUse" x2=".98" gradientTransform="matrix(-10.96519 0 0 49.71781 24.572 25.736)" x1=".02" xlink:href="#0"/><linearGradient id="3" gradientUnits="userSpaceOnUse" x2=".91" gradientTransform="matrix(0-13.99882-92.9592 0 65.877 50.31)" x1=".09"><stop stop-color="#ccc"/><stop stop-color="#fff" offset="1"/></linearGradient><linearGradient id="6" gradientUnits="userSpaceOnUse" x2=".72" gradientTransform="matrix(0-6.54782-9.50675 0 46.12 14.514)" x1=".28" xlink:href="#0"/><linearGradient id="4" gradientUnits="userSpaceOnUse" x2=".9" gradientTransform="matrix(0-32.3187-50.72391 0 54.59 64.19)" x1=".1" xlink:href="#3"/><linearGradient id="5" gradientUnits="userSpaceOnUse" x2=".9" gradientTransform="matrix(-13.19478 0 0 12.22255 47.991 7.952)" x1=".1" xlink:href="#0"/></defs><g transform="translate(-225-352.36)"><g fill-rule="evenodd"><path d="m446.75 524.39c2.935 0 5.315 2.38 5.315 5.315v5.314c0 2.935-2.38 5.315-5.315 5.315h-5.315v-15.944h5.315m0 21.259c5.87 0 10.63-4.76 10.63-10.63v-5.314c0-5.87-4.76-10.63-10.63-10.63h-10.63v26.574h10.63m-21.26-26.574h5.315v26.574h-5.315v-26.574m-10.63 0h5.315v26.574h-5.315l-10.63-16.684v16.684h-5.315v-26.574h5.315l10.63 16.684v-16.684m-79.72 0h15.945v5.315h-10.63v5.315h10.63v5.315h-10.63v5.315h10.63v5.315h-15.945v-26.574m-21.26-.0001h5.315v21.26h10.63v5.315h-15.945v-26.575m55.809 21.26h5.313c4.402 0 7.972-3.57 7.972-7.972s-3.637-7.957-7.972-7.972h-5.313v5.315h5.313c1.467 0 2.658 1.19 2.658 2.658s-1.19 2.658-2.658 2.658h-5.313v5.315m5.31-26.58c10.272 0 18.602 8.33 18.602 18.602s-8.33 18.602-18.602 18.602-18.602-8.33-18.602-18.602 8.33-18.602 18.602-18.602m0 5.315c7.337 0 13.287 5.95 13.287 13.287 0 7.337-5.95 13.287-13.287 13.287-7.337 0-13.287-5.95-13.287-13.287 0-7.337 5.95-13.287 13.287-13.287" fill="#a90000"/><path d="m225 588.9c.352 3.01.802 5.995 1.362 8.946 12.337 65.05 74.2 114.52 148.64 114.52 74.44 0 136.3-49.47 148.64-114.52.56-2.951 1.01-5.937 1.362-8.949v-236.54h-300v236.53z"/><path d="m514.17 623.33c4.614-10.912 7.74-22.502 9.158-34.562v-234.76h-296.66v234.76c1.418 12.06 4.545 23.651 9.159 34.565 21.609 51.11 75.78 87.35 139.17 87.35 63.39 0 117.56-36.25 139.17-87.36" fill="#3d82c2"/><g transform="matrix(3.54331 0 0 3.54331 228.49 352.36)" stroke="#000" stroke-miterlimit="9.778" stroke-width=".423"><path d="m68.825 25.736h-10.699v34.942h10.699v-34.942zm-5.466 3.035c.745 0 1.376.218 1.589.519v1.848h-3.177v-1.848c.213-.301.844-.519 1.589-.519" fill="url(#1)"/><path d="m13.872 25.736h10.699v34.942h-10.699v-34.942zm5.466 3.035c.745 0 1.376.218 1.589.519v1.848h-3.177v-1.848c.213-.301.844-.519 1.589-.519" fill="url(#2)"/><path d="m16.82 38.805v10.302h4.971v-10.302c0-1.374-1.113-2.489-2.486-2.489-1.372 0-2.486 1.115-2.486 2.489zm44.09 0v10.302h4.971v-10.302c0-1.374-1.113-2.489-2.486-2.489-1.373 0-2.486 1.115-2.486 2.489" fill="url(#3)"/><path d="m28.11 31.872h26.481v28.807h-2.092v-15.531c-1.495-4.74-5.922-8.178-11.149-8.178-5.227 0-9.653 3.437-11.148 8.178v15.531h-2.092v-28.807z" fill="url(#4)"/><path d="m41.35 7.952c3.618 0 6.553 2.938 6.553 6.562h-13.11c0-3.623 2.934-6.562 6.553-6.562" fill="url(#5)"/><path d="m41.35 9.77c2.616 0 4.737 2.124 4.737 4.743h-9.474c0-2.619 2.121-4.743 4.737-4.743" fill="url(#6)"/><path d="m15.783 25.632v-3.71c7.122-.814 13.695-3.44 19.247-7.408h12.638c5.552 3.968 12.12 6.594 19.247 7.408v3.71h-51.13z" fill="#e6e6e6"/><path d="m15.783 25.632v-2.499c7.954-.883 15.245-3.962 21.259-8.619h8.613c6.01 4.657 13.305 7.736 21.259 8.619v2.499h-51.13z" fill="url(#7)"/><path d="m36.703 14.393h9.164v10.856h-9.164v-10.856z" fill="url(#8)"/><path d="m36.703 14.393h9.164v10.856h-9.164v-10.856z" fill="none"/><path d="m34.923 24.928h2.439v-9.878h-2.439v9.878z" fill="url(#9)"/><path d="m47.774 24.928h-2.439v-9.878h2.439v9.878z" fill="url(#A)"/><path d="m48.899 13.639h-15.1v1.411h15.1v-1.411z" fill="#e6e6e6"/><path d="m68.22 25.587h-3v-5.462h3v5.462z" fill="url(#B)"/><path d="m55.23 27.3h-27.762v4.457h27.762v-4.457zm-13.881 1.139c1.496 0 2.761.439 3.189 1.041v1.661h-6.378v-1.661c.428-.602 1.694-1.041 3.189-1.041" fill="url(#C)"/><g fill="url(#B)"><path d="m24.572 27.3h3.537v33.383h-3.537v-33.383z"/><path d="m58.12 27.3h-3.537v33.383h3.537v-33.383z"/><path d="m13.872 26.433h54.952v1.694h-54.952v-1.694z"/></g><path d="m13.444 31.14h55.81v1.505h-55.81v-1.505z" fill="url(#D)"/><path d="m17.477 18.975v-2.608h-3v2.608h3z" fill="#e6e6e6"/><path d="m14.476 25.587h3v-5.462h-3v5.462z" fill="url(#B)"/><path d="m13.758 20.12h4.436v-1.15h-4.436v1.15z" fill="url(#E)"/><path d="m13.634 17.554h4.684c-.176-1.113-.524-2.111-1.121-2.942h-2.521c-.594.875-.942 1.856-1.042 2.942" fill="url(#F)"/><path d="m65.22 18.975v-2.608h3v2.608h-3z" fill="#e6e6e6"/><path d="m68.939 20.12h-4.436v-1.15h4.436v1.15z" fill="url(#B)"/><path d="m69.06 17.554h-4.684c.176-1.113.524-2.111 1.121-2.942h2.521c.594.875.942 1.856 1.042 2.942" fill="url(#G)"/><path d="m69.816 24.928h-56.935v1.505h56.935v-1.505z" fill="url(#B)"/></g><path fill="url(#0)" d="m505.96 639.51c-6.687-3.07-13.483-5.47-20.655-5.47-19.944 0-36.955 18.536-56.898 18.536-19.944 0-36.952-18.536-56.897-18.536-19.944 0-36.955 18.536-56.899 18.536s-36.955-18.536-56.9-18.536c-5.181 0-10.163 1.254-15.05 3.105 24.9 43.704 74.822 73.54 132.34 73.54 56.47 0 105.63-28.766 130.96-71.18m8.208-16.179c1.609-3.805 3.038-7.69 4.275-11.651-10.824-5.262-21.481-11.596-33.14-11.596-19.944 0-36.955 18.536-56.898 18.536-19.944 0-36.952-18.536-56.897-18.536-19.944 0-36.955 18.536-56.899 18.536s-36.955-18.536-56.9-18.536c-9.473 0-18.282 4.182-27.06 8.573 1.411 4.943 3.115 9.776 5.097 14.485 7.111-3.358 14.321-6.081 21.962-6.081 19.944 0 36.955 18.536 56.9 18.536 19.944 0 36.955-18.536 56.899-18.536s36.953 18.536 56.897 18.536 36.954-18.536 56.898-18.536c9.707 0 18.721 4.392 27.715 8.9.392-.873.776-1.75 1.148-2.631"/></g><path d="m241.87 637.15c4.934-1.851 9.965-3.106 15.195-3.106 20.13 0 37.3 18.537 57.43 18.537s37.3-18.537 57.43-18.537 37.3 18.537 57.43 18.537 37.3-18.537 57.43-18.537c6.999 0 13.638 2.241 20.17 5.165m-272.05-16.06c7.177-3.357 14.457-6.08 22.17-6.08 20.13 0 37.3 18.537 57.43 18.537s37.3-18.537 57.43-18.537 37.3 18.537 57.43 18.537 37.3-18.537 57.43-18.537c9.55 0 18.433 4.172 27.28 8.558m-284.32-16.96c8.859-4.391 17.755-8.574 27.317-8.574 20.13 0 37.3 18.537 57.43 18.537s37.3-18.537 57.43-18.537 37.3 18.537 57.43 18.537 37.3-18.537 57.43-18.537c11.445 0 21.931 5.993 32.55 11.163" stroke="#000" stroke-miterlimit="10" stroke-width="1.507" fill="none"/></g></svg>