<svg xmlns="http://www.w3.org/2000/svg" width="300" height="360" viewBox="0 0 84.666667 101.6" fill-rule="evenodd"><path d="m62.58 48.55c.828 0 1.5.672 1.5 1.5v1.5c0 .828-.672 1.5-1.5 1.5h-1.5v-4.5h1.5m0 6c1.657 0 3-1.343 3-3v-1.5c0-1.657-1.343-3-3-3h-3v7.5h3m-6-7.5h1.5v7.5h-1.5v-7.5m-3 0h1.5v7.5h-1.5l-3-4.709v4.709h-1.5v-7.5h1.5l3 4.709v-4.709m-22.5 0h4.5v1.5h-3v1.5h3v1.5h-3v1.5h3v1.5h-4.5v-7.5m-6 0h1.5v6h3v1.5h-4.5v-7.5m15.75 6h1.5c1.242 0 2.25-1.01 2.25-2.25 0-1.242-1.027-2.245-2.25-2.25h-1.5v1.5h1.5c.414 0 .75.336.75.75 0 .414-.336.75-.75.75h-1.5v1.5m1.5-7.5c2.899 0 5.25 2.351 5.25 5.25 0 2.899-2.351 5.25-5.25 5.25-2.899 0-5.25-2.351-5.25-5.25 0-2.899 2.351-5.25 5.25-5.25m0 1.5c2.071 0 3.75 1.68 3.75 3.75 0 2.071-1.68 3.75-3.75 3.75-2.071 0-3.75-1.679-3.75-3.75 0-2.07 1.679-3.75 3.75-3.75" fill="#a90000"/><path d="m42.33 0c14.755 0 28.12 2.554 37.8 6.682 1.593.679 3.086 1.402 4.472 2.163v20.777c-3.151 2.427-5.183 6.241-5.183 10.53 0 4.289 2.032 8.102 5.183 10.529 0 8.606.848 17.682-3.744 25.456-4.636 7.848-13.512 11.689-21.507 15.15-6.096 2.638-12.566 5.142-17.02 10.314-4.454-5.172-10.924-7.676-17.02-10.314-7.995-3.46-16.872-7.301-21.507-15.15-4.592-7.774-3.744-16.85-3.744-25.456 3.151-2.427 5.183-6.24 5.183-10.529 0-4.289-2.032-8.103-5.183-10.53v-20.777c1.385-.761 2.879-1.484 4.472-2.163 9.681-4.128 23.04-6.682 37.8-6.682"/><g fill-rule="nonzero"><path d="m42.33.657c-13.671 0-29.29 1.938-41.613 8.579v20.07c3.266 2.639 5.18 6.629 5.18 10.847 0 4.208-1.937 8.226-5.181 10.847-.027 8.358-.798 17.271 3.652 24.804 4.57 7.737 13.339 11.477 21.2 14.879 5.963 2.58 12.241 5.03 16.76 9.932 4.52-4.907 10.798-7.352 16.76-9.932 7.862-3.402 16.631-7.142 21.2-14.879 4.45-7.533 3.679-16.446 3.652-24.804-3.243-2.621-5.181-6.639-5.181-10.847 0-4.217 1.915-8.207 5.18-10.847v-20.07c-12.321-6.641-27.942-8.579-41.613-8.579" fill="#f0e824"/><path d="m12.145 19.17c.051-.065.105-.124.159-.178-.058-.032-.112-.07-.163-.113-.208-.175-.347-.43-.412-.766-.02-.105-.034-.219-.039-.342-.115-.023-.222-.057-.32-.1-.338-.147-.577-.402-.722-.7-.143-.293-.196-.628-.163-.944.012-.118.036-.233.072-.343-.199-.145-.373-.297-.524-.456-.18-.19-.327-.389-.442-.595-.592-1.058-.373-2.297.331-3.526 1.068-1.864 1.902-1.987 2.602-1.584.334.192.62.505.886.797l.024.027c.147.16.287.325.424.493-.002-.18.029-.354.129-.48l.133-.172.146.16c.192.21.384.39.575.541.022.017.044.034.066.05-.164-.413-.289-.883-.308-1.365-.005-.141-.002-.282.012-.423.014-.143.039-.286.077-.427l.1-.385.226.327c.282.407.664.845 1.047 1.163.04.033.079.065.118.094-.0001-.146.015-.293.05-.431.013-.053.03-.106.05-.157.021-.053.044-.103.07-.15l.002-.003.116-.212.172.169c.996.982 1.985 1.209 2.966.681l.014-.007.009-.004c1.505-.56 3.709-.717 5.602-.472.371.048.729.111 1.065.189.342.079.664.173.957.282l.015.006.009.005c.981.528 1.97.3 2.966-.681l.172-.169.116.212c.12.22.172.482.171.743.27-.206.547-.483.795-.776.069-.082.134-.163.195-.241.061-.08.119-.159.173-.237l.224-.338.104.392c.191.719.06 1.467-.175 2.1-.013.038-.028.077-.044.115.022-.016.043-.033.065-.05.192-.15.383-.331.575-.541l.144-.158.133.167c.101.127.133.301.13.483.137-.168.277-.332.424-.492l.024-.027c.267-.292.552-.605.886-.797.7-.403 1.533-.28 2.602 1.584l.005.008c.133.233.25.469.347.707.097.237.174.473.228.706.274 1.183-.032 2.295-1.214 3.155.036.11.059.226.072.344.032.316-.02.651-.163.944-.146.298-.385.553-.722.7-.099.043-.205.077-.32.1-.004.074-.001.145-.019.213.856.636 1.096 1.43 1.31 2.141.112.373.217.721.401.987l.145.21-.246.07c-.23.065-.481.072-.731.046-.056-.006-.111-.013-.165-.022.268.289.541.497.812.704.506.386 1.01.768 1.484 1.629l.083.15-.144.092c-.236.151-.467.203-.697.207.262.549.6.914.945 1.286.09.098.006.006.11.119l.214.232-.308.069c-.408.092-.884.008-1.322-.144l-.047-.017c.182.303.43.518.707.757.352.305.746.647 1.126 1.242.1.157.182.291.261.422.322.53.617 1.016 1.198 1.528l.18.159-.202.132c-.188.123-.39.197-.598.233.384.478.745.963 1.063 2.057.069.239.174.416.298.549.122.131.267.222.416.286l.186.08-.099.177c-.113.202-.353.337-.63.429-.141.047-.293.083-.442.112.241.268.483.545.704.831 4.137 2.893 9.251 2.386 13.914 1.923.393-.039.783-.078 1.207-.118 4.617-.434 8.401.069 11.392 1.641.618.325 1.201.695 1.751 1.111.804-.144 1.485-.369 2.041-.674.109-.06.215-.124.318-.193.101-.067.197-.138.288-.211.22-.178.408-.38.565-.599.499-.697.694-1.58.63-2.457-.065-.882-.392-1.758-.938-2.436-.202-.25-.434-.474-.694-.662-2.21-1.588-4.338-.881-6.52-.155-.598.199-1.2.399-1.812.556h-.0001c-3.292.845-7.07.886-9.515-1.184-.479-.405-.907-.891-1.27-1.468-.362-.575-.659-1.238-.876-1.999v-.004c-.699-2.446-.273-4.765 1.078-6.574.263-.352.56-.684.89-.993.329-.308.691-.594 1.085-.855l.005-.003c1.869-1.237 4.03-1.936 6.341-2.157.448-.043.904-.068 1.365-.075.405-.007.812 0 1.22.02.097-1.035.421-1.787 1.103-2.332.704-.563 1.782-.889 3.382-1.067h.003c1.458-.142 2.483-.479 3.063-1.088.568-.596.715-1.475.435-2.714l-.069-.306.3.092c.331.101.713.233 1.054.49.298.225.559.54.719 1 .273-.171.547-.298.822-.379.351-.103.702-.133 1.052-.089l.389.049-.287.267c-.361.335-.635.713-.823 1.134-.144.324-.238.675-.28 1.052.283-.165.572-.304.877-.395.424-.127.873-.163 1.372-.053.53.117.951.062 1.308-.083.363-.147.67-.392.959-.647l.315-.278-.012.42c-.025.85-.217 1.61-.648 2.254-.31.463-.741.864-1.321 1.191 1.034.075 1.832.41 2.506.693.307.129.588.247.846.32h.0001c.38.107.696.086.999-.131.329-.236.656-.698 1.037-1.463l.302-.606.044.676c.061.937-.013 1.698-.316 2.326-.28.582-.75 1.041-1.482 1.408l.277.343.265.328-.42-.031c-.701-.052-1.225.131-1.74.31-.612.214-1.213.423-2.066.279.11.153.192.309.272.46.219.413.414.779 1.235.85l.479.042-.387.287c-.829.616-1.66.85-2.493.701.057.059.112.118.164.177.23.265.4.538.471.835.075.309.21.517.393.665.191.155.44.252.729.331l.474.129-.443.212c-.64.306-1.245.47-1.817.503-.577.034-1.118-.065-1.63-.284-.484-.207-.832-.635-1.191-1.078-.305-.376-.619-.762-1.02-.999.128.417.147.834.057 1.253l-.056.26-.222-.146c-.501-.328-1.041-.596-1.645-.756-.605-.16-1.277-.214-2.042-.115-1.918.249-3.204.009-4.03-.592-.803-.585-1.162-1.496-1.235-2.623-1.01-.13-1.914-.156-2.73-.097-.852.062-1.606.217-2.286.445-1.975.663-3.395 1.934-3.789 3.723-.077.348-.115.716-.111 1.103.004.388.05.797.142 1.227.282 1.315 1.239 2.278 2.832 2.717.314.086.656.153 1.026.198.372.045.765.069 1.18.068h.044c.708-.004 1.27-.211 1.89-.441.632-.234 1.322-.489 2.292-.588-.529-.35-.973-.837-1.243-1.416-.071-.153-.131-.312-.176-.476-.045-.164-.078-.335-.094-.51v-.002l-.033-.345.303.168c.587.327 1.176.462 1.765.488.501.022 1.01-.035 1.511-.121-.088-.141-.163-.306-.213-.483-.017-.06-.031-.119-.041-.177-.001-.059-.018-.12-.023-.185v-.004l-.033-.49.345.349c1.093 1.109 2.527 1.123 3.83 1.135.779.008 1.514.015 2.133.244.001-.202.042-.421.095-.625.015-.058.033-.117.054-.178.019-.058.041-.114.066-.169l.0001-.003.161-.357.169.353c.659 1.376 1.209 1.82 1.672 2.195.464.375.849.686 1.172 1.658.011-.024.022-.049.033-.073.243-.53.558-.976.956-1.246.415-.281.91-.373 1.495-.176.081.027.164.06.249.099l.299.137-.275.181c-.368.242-.686.53-.873.878-.155.289-.22.624-.146 1.016.269-.097.539-.128.81-.093.068.009.135.021.199.037.067.017.133.037.198.061l.004.002.316.119-.271.2c-.64.47-1.106 1.121-1.242 1.944-.027.162-.041.329-.042.502-.0001.173.013.355.041.546v.002c.334 2.244.094 4.099-.754 5.563-.817 1.412-2.192 2.452-4.153 3.119.736 1.097 1.366 2.349 1.892 3.765l.006.016.003.014v.002c.023.124.053.246.091.365.037.117.08.231.13.34.256.566.673 1.03 1.178 1.391l.201.144-.196.15c-.367.281-.762.393-1.156.407-.241.009-.481-.019-.712-.066.212.532.166 1.045.119 1.565-.045.499-.091 1 .123 1.514l.136.324-.343-.074c-.657-.143-.985-.51-1.381-1.105-.184 1.234-.25 2.454-.109 3.649.053.241.12.475.201.701.089.249.197.49.321.721.634 1.175 1.708 2.047 3.151 2.403h.003c.241.059.47.14.685.24.215.099.417.218.606.353.964.691 1.577 1.813 1.822 3.066l.132.675-.449-.52c-.4-.463-.799-.691-1.198-.811.287.501.547.991.737 1.507.239.649.367 1.336.302 2.13l-.036.433-.284-.329c-.418-.484-.834-.848-1.247-1.09.177.545.315 1.091.396 1.637.102.692.113 1.385-.0001 2.08l-.073.445-.257-.37c-.352-.507-.701-.871-1.049-1.13-.204-.152-.409-.269-.613-.358.024.051.047.102.069.153.083.19.155.383.218.58.322 1.01.381 2.089.163 3.243v.0001c-.029.154-.047.307-.056.459-.008.151-.007.301.003.45.052.758.334 1.444.71 1.929l.159.206-.245.078c-.08.028-.164.049-.249.064-.082.014-.167.021-.253.022-.319.004-.638-.083-.904-.244-.013.094-.026.192-.04.29-.02.146-.04.293-.064.482.097.057.187.118.271.183.368.283.604.626.706.998.076.275.078.563.007.852.724.816.874 1.952.043 2.649-.088-.531-.38-1.104-.823-1.439-.296.24-.625.372-.951.414-.317.04-.63-.005-.907-.119-.057-.023-.112-.05-.166-.079-.021.075-.044.148-.069.218-.194.541-.514.963-.916 1.226-.221.145-.467.241-.728.282-.089.509.039 1.08.281 1.514-.977-.022-1.553-.821-1.616-1.778-.137-.088-.255-.196-.353-.32-.039-.049-.074-.1-.107-.153-.304.278-.598.453-.875.548-.384.133-.735.117-1.04.02-.13-.041-.251-.097-.362-.163-.334.441-.462 1.069-.406 1.602-1.02-.464-1.155-1.662-.614-2.664h-.003c-.578.162-1.095.114-1.51-.072-.352-.157-.629-.413-.809-.724-.592.039-1.181.424-1.538.88-.402-1.029.305-1.969 1.363-2.323.116-.38.365-.699.694-.964.114-.092.238-.178.369-.257.002-.066.006-.13.011-.192-.464.026-.937.22-1.29.489-.13-1.096.789-1.826 1.9-1.902.175-.165.383-.295.62-.394.71-.297 1.677-.304 2.777-.17.215-.41.357-.884.396-1.449.089-1.269-.329-2.996-1.567-5.467-.055.134-.116.262-.188.382-.149.249-.339.458-.604.597l-.21.111-.053-.232c-.09-.396-.201-.765-.345-1.062-.09-.186-.193-.341-.31-.454-.269.817-.697 1.424-1.276 1.832-.125.088-.256.166-.393.235-.135.068-.279.127-.431.178l-.309.103.073-.317c.358-1.553-.203-2.148-1.013-3.01-.169-.179-.348-.369-.538-.587-1.708-1.963-2.514-4.404-3.02-7.07-.154.079-.297.182-.428.307-.568.54-.915 1.468-1.039 2.503-.026.22-.042.444-.048.67.252.918.82 1.487 1.443 2.111.895.897 1.899 1.904 2.329 4.17l.068.358-.327-.16c-.349-.171-.649-.28-.9-.325-.073-.013-.141-.021-.205-.023.941.85.84 1.664.719 2.644-.049.393-.101.814-.083 1.266l.001.259-.247-.077c-.392-.123-.778-.467-1.156-1.03-.009.597-.135 1.138-.261 1.679-.22.944-.44 1.885.025 3.102l.082.216-.229.03c-.315.041-.626-.017-.934-.132-.213-.079-.423-.185-.631-.301-.044.255-.133.487-.267.697.04.024.078.048.116.072.62.399.918.854 1.015 1.301.059.27.043.535-.02.782.664.809.778 1.894-.026 2.568-.084-.507-.355-1.052-.764-1.392-.251.188-.543.327-.838.401-.293.073-.592.083-.864.016-.072-.018-.143-.041-.21-.07-.199.438-.445.77-.716 1.012-.32.285-.675.445-1.03.502-.045.007-.09.013-.134.017-.096.513.033 1.093.277 1.533-1.025-.023-1.609-.902-1.621-1.92-.105-.078-.201-.167-.287-.264-.037-.041-.072-.085-.106-.131-.231.262-.492.444-.765.557-.321.133-.656.17-.97.13-.221-.028-.433-.093-.625-.189-.318.439-.439 1.052-.384 1.574-1.027-.467-1.157-1.678-.602-2.685-.391.128-.786.179-1.149.083-.382-.102-.719-.361-.962-.855-.664-.058-1.358.366-1.76.878-.429-1.098.405-2.094 1.58-2.386.048-.215.13-.408.241-.583.162-.254.384-.464.656-.639.008-.044.017-.088.026-.131-.485.001-.986.21-1.355.491-.138-1.164.906-1.914 2.107-1.909.147-.127.313-.23.499-.314.64-.29 1.504-.335 2.632-.302l.008-.016.116-.226c.158-.304.326-.624.5-.94.171-.31.344-.609.511-.874.231-.367.399-.684.519-1.017.12-.334.196-.693.243-1.141.12-1.128-.049-2.209-.468-3.248-.387-.96-.988-1.887-1.771-2.784l-.549 1.793-.206.672-.147-.687c-.093-.437-.351-.744-.627-1.074-.441-.526-.925-1.105-.984-2.32-.329.273-.661.45-.996.532-.45.11-.899.046-1.345-.191l-.232-.124.197-.175c.619-.551.934-1.336.852-2.327-.016-.198-.048-.403-.095-.613-.048-.212-.112-.434-.194-.665v-.002-.002c-.434-1.223-.502-2.431-.237-3.635.226-1.027.694-2.047 1.385-3.07-.504.239-1.01.531-1.517.88-.712.49-1.426 1.089-2.14 1.805l-.002.002c-.377.377-.711.727-1.03 1.061-1.126 1.179-2.078 2.176-3.111 2.604.06.283.148.545.26.801l.128.294-.317-.039h-.002c-.077-.001-.157-.026-.24-.048-.079-.022-.158-.049-.237-.082-.164-.069-.328-.164-.491-.285.269.785.333 1.533.39 2.202.063.736.117 1.37.436 1.806l.148.202-.238.079c-.057.019-.113.033-.169.042-.056.009-.112.013-.169.013-.116-.002-.23-.022-.344-.063.056.164.105.333.141.512.077.376.1.787.03 1.259l-.061.405-.261-.315c-.15-.182-.297-.31-.439-.383-.008.762-.139 1.455-.265 2.127-.172.913-.337 1.785-.156 2.703l.056.284-.281-.073c-.286-.074-.567-.239-.845-.496-.117-.108-.234-.232-.35-.373.091.816.045 1.42.005 1.957-.052.702-.096 1.282.21 2.071l.084.217-.231.029c-.228.029-.455-.0001-.68-.088-.11-.043-.219-.1-.328-.17.002.019.003.037.005.056.012.122.029.243.05.363.108.596.34 1.163.695 1.604l.16.199-.24.087-.004.002c-.079.027-.161.047-.245.06-.082.013-.166.02-.251.02-.312-.0001-.628-.094-.901-.28l-.002.017c-.032.252-.096.518-.189.758.253.048.472.17.652.344.168.162.3.369.392.6.09.226.142.476.149.73.006.191-.013.384-.059.571.689.813.818 1.919.003 2.602-.088-.53-.38-1.102-.82-1.437-.326.248-.643.377-.94.416-.35.046-.669-.03-.939-.18-.021-.012-.042-.024-.063-.037-.032.108-.067.211-.107.308-.217.527-.553.895-.963 1.107-.216.112-.452.179-.7.202-.137.538-.008 1.169.254 1.638-1.023-.023-1.607-.899-1.621-1.916-.174-.097-.324-.229-.447-.386-.167.219-.375.373-.607.471-.261.11-.548.148-.833.124-.268-.022-.536-.099-.78-.219-.383.442-.531 1.116-.471 1.683-1.079-.491-1.168-1.802-.514-2.835-.003-.012-.006-.024-.009-.036-.203.071-.404.113-.598.128-.425.033-.821-.062-1.148-.249-.212-.121-.395-.281-.538-.47-.635-.014-1.284.394-1.667.883-.403-1.032.309-1.973 1.371-2.325.112-.485.425-.927.912-1.284.058-.042.118-.083.181-.123v-.004c-.472.02-.957.216-1.316.49-.125-1.059.727-1.775 1.787-1.892.208-.235.483-.42.825-.556.394-.157.855-.158 1.401-.158.384-.0001.813-.0001 1.284-.059 1.017-1.985.367-4.624-.283-7.263-.167-.679-.335-1.358-.475-2.029-.313-.704-.585-1.426-.827-2.161-.232-.707-.436-1.426-.622-2.151-.158-.098-.297-.211-.417-.335.041.566-.011 1.097-.061 1.609-.089.91-.171 1.758.324 2.605l.122.208-.233.061c-.23.06-.564-.016-.862-.196.055.432 0 .82-.053 1.196-.038.271-.076.535-.065.792l.015.36-.299-.201c-.12-.081-.237-.209-.352-.386-.11.78-.323 1.364-.526 1.923-.282.776-.547 1.503-.468 2.654l.02.299-.275-.119c-.452-.195-.822-.646-1.112-1.206-.028.6-.126 1.131-.22 1.643-.151.821-.293 1.593-.105 2.511l.064.315-.303-.106c-.225-.079-.428-.179-.611-.3-.08-.053-.155-.11-.227-.171-.053.491-.004.982.148 1.473.037.119.079.237.127.355.047.115.102.235.165.357v.002l.133.26-.292.005c-.307.006-.572-.057-.795-.188-.113-.066-.213-.149-.302-.248-.086.269-.184.499-.294.69-.017.029-.035.058-.053.087.182.086.336.211.464.361.215.254.352.582.414.928.061.341.049.701-.033 1.024l-.004.016c.62.905.625 2.056-.291 2.642-.019-.532-.231-1.131-.619-1.521-.28.154-.565.237-.839.26-.365.03-.712-.047-1.01-.207-.119-.065-.229-.144-.327-.234-.051.244-.143.459-.266.644-.187.284-.444.497-.732.638-.238.117-.496.185-.753.205-.208.517-.161 1.162.039 1.664-1-.153-1.47-1.083-1.364-2.083-.184-.16-.324-.345-.422-.544-.132.125-.277.228-.429.309-.299.16-.628.234-.947.215-.312-.019-.616-.125-.878-.325-.413.392-.633 1.021-.647 1.574-.959-.596-.931-1.814-.252-2.74-.606.107-1.133.007-1.537-.225-.286-.164-.509-.395-.656-.665-.032-.059-.06-.119-.084-.181-.574-.013-1.177.286-1.575.677-.268-1.08.567-1.924 1.673-2.132.15-.294.382-.583.708-.847l.003-.002c.108-.087.224-.167.35-.241.05-.029.101-.058.153-.085.003-.028.007-.056.011-.083-.464-.034-.958.097-1.343.318.012-1.095 1-1.699 2.102-1.643.675-.427 1.715-.375 2.885-.317.16.008.323.016.481.023.295-.449.543-1 .719-1.699.403-1.596.427-3.928-.225-7.425l-.0001-.007c-.093-.499-.202-1.045-.31-1.59-.446-2.243-.885-4.449-.823-6.697.009-.343-.003-.686-.075-1.027-.062-.296-.17-.593-.348-.89-.186.111-.379.194-.576.255l-.321.1.091-.324c.124-.442.235-.876.296-1.274.04-.265.058-.513.042-.736-.126.123-.246.285-.36.474-.189.312-.364.694-.535 1.093l-.158.37-.174-.363c-.201-.419-.376-.901-.46-1.433-.084-.535-.074-1.119.096-1.738.047-.169.093-.327.138-.482.194-.662.374-1.275.337-1.898-.059.028-.121.071-.185.125-.143.122-.291.297-.44.484l-.186.235-.123-.274c-.211-.47-.263-1.028-.225-1.636.027-.437.102-.902.198-1.379-.055.057-.111.119-.167.186-.193.23-.385.509-.577.819l-.462.745.126-.867c.055-.377.092-.77.088-1.194-.004-.424-.049-.885-.157-1.4-.251-1.189.179-1.886.654-2.441-.132.062-.265.148-.398.258-.062.051-.124.108-.187.17-.062.061-.123.128-.185.201l-.006.007-.45.532.131-.684c.096-.501.21-1.035.439-1.591.231-.56.577-1.135 1.134-1.711.243-.25.385-.4.447-.564.039-.105.052-.229.044-.404-.017.014-.033.027-.05.041-.232.187-.465.343-.702.445l-.34.146.092-.359c.117-.459.206-.916.25-1.368.035-.359.043-.718.014-1.076-.256.201-.527.549-.798.898-.032.041-.068.088-.173.221l-.305.387-.02-.493c-.09-2.207.514-2.97 1.197-3.833.501-.633 1.048-1.324 1.366-2.758-.105.081-.215.158-.328.229-.053.033-.106.065-.159.096-.051.029-.105.058-.162.087l-.43.216.179-.446c.21-.522.341-1.136.377-1.71.007-.115.011-.225.001-.329 0-.035-.0001-.071-.002-.106-.11.033-.222.083-.334.146-.185.104-.374.244-.565.404l-.252.211-.046-.326c-.081-.579.059-1.203.326-1.839.227-.54.544-1.087.892-1.622-.185-.041-.367-.111-.526-.211-.05-.031-.097-.065-.141-.101-.042-.035-.084-.075-.126-.12l-.004-.004-.163-.181.219-.106c.432-.209.879-.618 1.197-1.237.063-.123.121-.252.171-.389.048-.129.091-.266.128-.411-.049-.688.16-1.287.479-1.692"/><path d="m23.2 28.842c-.192-.025-.376-.082-.529-.169-.333-.191-.393-.494-.455-.804-.023-.117-.047-.236-.086-.334-.174-.439-.466-.69-.842-.822-.396-.139-.892-.151-1.443-.108h-.002c-.117.009-.235.035-.352.073-.12.039-.239.093-.354.157-.611.34-1.142.981-1.356 1.575l-.001-.004c-.126.74-.002 1.362.29 1.846.263.437.662.765 1.137.969.482.207 1.041.288 1.614.228.857-.09 1.745-.495 2.456-1.263-.007-.107-.014-.214-.02-.318-.024-.372-.047-.722-.048-1.024m5.884-.432v-.002c-.041-.113-.094-.23-.158-.346-.064-.117-.139-.234-.222-.346-.424-.576-1.064-1.063-1.684-1.111-.551-.043-1.047-.031-1.443.108-.375.131-.667.382-.841.819v.002.002c-.04.101-.063.218-.086.333-.062.31-.122.613-.455.804-.145.083-.316.138-.494.165-.043.007-.088.012-.135.015.0001.286.024.628.047.991.008.126.017.254.024.383.704.742 1.575 1.134 2.417 1.222.573.06 1.132-.021 1.614-.228.475-.204.875-.532 1.137-.969.291-.484.415-1.105.29-1.846l-.001.004m-3.627-2.042c.406-.142.884-.169 1.407-.14-.0001-.014-.0001-.028-.002-.041-.005-.073-.014-.144-.029-.212-.074-.335-.283-.62-.662-.7h-.0001c-.237-.05-.482-.093-.733-.129-.248-.036-.504-.065-.765-.087-1.333-.113-2.748-.042-3.973.216h-.003c-.074.016-.142.04-.204.07-.061.03-.115.065-.162.105-.214.183-.315.474-.326.778.523-.029 1-.002 1.406.14.474.166.843.482 1.06 1.032.053.134.08.267.106.398.045.227.089.449.278.557.178.102.419.147.655.135.044-.002.09-.007.138-.014.136-.021.263-.061.367-.121.189-.109.233-.33.278-.557.026-.132.053-.266.104-.397l.0001-.0001c.218-.55.586-.866 1.06-1.032m-9.972-7.524l.002-.005c.148-.234.315-.449.498-.643.183-.194.381-.368.591-.518.832-.595 1.853-.832 2.868-.605-.204-.134-.419-.241-.64-.325-.6-.226-1.257-.287-1.92-.274l-.007-.365c.705-.014 1.407.052 2.055.297.657.248 1.256.677 1.741 1.386.096.141.231.286.385.394.115.081.239.14.36.157.11.015.221-.004.327-.077.064-.044.128-.108.189-.196l.051-.073c.187-.771.117-1.627-.086-2.29-.043-.14-.092-.271-.146-.392-.053-.118-.11-.224-.171-.315l-.003-.004.175-.11.132-.087.002.004c.071.108.137.23.197.363.059.133.114.279.162.435.231.754.301 1.74.058 2.613.056.093.125.161.201.204.061.034.127.053.194.056.068.003.14-.001.209-.039.135-.056.264-.172.363-.349l.158-.281.158.281c.099.176.228.292.363.349.07.029.141.042.209.039.068-.003.134-.022.194-.056.076-.043.145-.111.201-.204-.244-.873-.173-1.859.058-2.613.048-.156.102-.302.162-.435.06-.133.126-.255.196-.363l.003-.004.132.087.176.11-.003.005c-.06.091-.118.197-.171.315-.054.121-.103.252-.146.392-.203.663-.272 1.519-.086 2.29l.051.073c.061.088.125.152.19.196.105.072.217.092.326.077.122-.017.245-.076.361-.157.153-.108.288-.253.384-.394.485-.71 1.084-1.138 1.741-1.386.649-.245 1.351-.311 2.055-.297l-.007.365c-.663-.013-1.32.048-1.92.274-.222.084-.436.19-.64.325 1.015-.227 2.036.001 2.868.605.211.151.409.324.592.518.183.195.35.41.498.643l.002.004-.177.107-.133.085c-.137-.215-.29-.412-.456-.589-.166-.177-.347-.335-.537-.471-.967-.691-2.216-.846-3.372-.259-.073.088-.144.182-.213.282-.119.173-.285.353-.476.487-.159.112-.336.194-.52.22-.105.015-.211.011-.316-.015.014.034.028.07.043.106.094.24.185.52.271.829.427 1.519.76 3.75.832 5.312.491.136.762.517.86.959.02.089.032.178.038.267.002.034.004.067.004.101.671.125 1.329.638 1.768 1.235.078.106.15.215.213.325.252-.732.697-1.389 1.199-1.793.12-.097.245-.18.371-.247.128-.068.259-.119.391-.152 1.889-.462 1.984-2.83 2.081-5.255.02-.497.04-.997.074-1.471v-.003l.015-.206.202.039c.138.027.264.04.378.04.241 0 .433-.06.574-.179.142-.119.239-.305.288-.557.025-.129.038-.272.037-.43v-.165l.164-.017c.139-.014.262-.047.371-.095.252-.11.431-.301.541-.526.112-.23.153-.495.127-.746-.014-.133-.046-.261-.096-.376l-.06-.139.125-.085c1.133-.771 1.43-1.781 1.181-2.855-.049-.214-.12-.431-.21-.649-.09-.218-.199-.44-.327-.664l-.005-.008c-.922-1.609-1.577-1.752-2.103-1.449-.285.164-.551.455-.799.726l-.024.027c-.443.485-.84 1.024-1.25 1.581-.071.096-.145.196-.244.33l-.293-.218c.064-.087.152-.206.242-.328.13-.176.259-.351.388-.523l.008-.035c.037-.156.093-.39.095-.576-.132.13-.265.247-.397.351-.21.165-.421.297-.631.397l-.495.234.256-.484.0001-.002c.052-.096.102-.196.148-.297.045-.099.09-.208.134-.326.168-.453.279-.968.234-1.477-.045.056-.09.111-.135.165-.369.436-.807.844-1.208 1.064l-.35.191.084-.39v-.004c.001-.045.017-.088.022-.129.005-.043.009-.087.011-.133.006-.135-.005-.271-.037-.396-1.053.942-2.113 1.13-3.18.563-.28-.104-.584-.193-.904-.267-.329-.076-.674-.137-1.029-.183-1.836-.238-3.967-.088-5.421.45-1.066.566-2.126.379-3.179-.563-.053.211-.049.447-.003.662l.082.388-.348-.19c-.08-.044-.161-.095-.243-.152-.084-.059-.165-.121-.242-.185-.301-.249-.601-.568-.858-.892-.001.114-.012.229-.008.343.025.648.267 1.28.524 1.759l.262.488-.5-.236c-.211-.099-.421-.232-.631-.397-.132-.104-.265-.221-.397-.351.003.186.058.421.095.576.002.007.004.014.008.035.129.172.258.347.388.523.09.122.178.241.242.328l-.293.217c-.099-.133-.173-.234-.244-.33-.41-.557-.807-1.096-1.25-1.581l-.024-.027c-.248-.272-.514-.563-.799-.727-.526-.303-1.182-.159-2.104 1.45-.642 1.12-.85 2.236-.33 3.165.101.181.23.355.388.522.16.169.351.33.574.483l.007.005.125.085-.06.139c-.05.116-.083.244-.096.376-.026.251.015.516.127.746.11.224.289.415.541.526.109.048.233.08.372.095l.164.017v.165c0 .158.012.301.037.43.049.252.146.438.288.557.141.119.333.178.574.179.114 0 .24-.013.378-.04l.202-.04.015.206c.034.475.054.976.074 1.474.097 2.425.193 4.792 2.08 5.255.651.159 1.305.803 1.722 1.625.079.156.151.32.213.491.009.025.018.051.027.076.3-.519.776-1.016 1.304-1.31.137-.076.277-.139.418-.185.085-.028.172-.05.258-.066.005-.415.145-.826.455-1.091.072-.061.151-.114.239-.157.064-.031.134-.058.208-.078.072-1.563.405-3.794.832-5.312.087-.308.178-.588.271-.829.014-.036.028-.072.043-.106-.105.026-.211.03-.316.015-.184-.026-.361-.108-.52-.22-.191-.134-.357-.314-.476-.487-.068-.1-.139-.194-.212-.282-1.156-.587-2.405-.432-3.372.259-.191.136-.371.294-.537.471-.166.177-.319.374-.456.589l-.133-.085-.177-.106m6.649-.26c-.051.1-.102.216-.152.345-.089.229-.176.497-.26.794-.413 1.466-.735 3.605-.815 5.137 1.192-.219 2.529-.275 3.793-.167.264.022.527.052.787.09.159.023.317.049.473.077-.08-1.532-.403-3.671-.815-5.137-.084-.297-.171-.566-.26-.794-.05-.129-.101-.245-.152-.345-.06.061-.126.112-.195.151-.111.063-.232.098-.355.103-.123.006-.247-.016-.366-.066-.137-.057-.268-.151-.382-.282-.114.131-.245.225-.382.282-.119.05-.244.072-.366.066-.123-.006-.244-.04-.356-.103-.07-.04-.135-.09-.195-.151m-9.427.541c-.039.028-.079.059-.117.094-.059.053-.114.112-.164.175-.271.344-.447.864-.399 1.466l.002.029-.007.029c-.041.167-.091.327-.148.479-.057.153-.12.296-.188.429-.3.583-.707 1-1.122 1.265l.008.005c.192.12.43.186.654.198l.322.017-.18.268c-.401.596-.771 1.209-1.02 1.802-.191.454-.311.898-.32 1.313.114-.083.228-.159.343-.223.218-.122.438-.205.662-.231l.187-.021.015.189v.003c.008.105.012.218.013.339 0 .119-.003.236-.001.352-.028.443-.109.909-.237 1.345.201-.138.389-.294.546-.45l.399-.396-.091.554c-.309 1.885-.953 2.7-1.539 3.44-.583.736-1.103 1.395-1.126 3.078.331-.421.664-.811 1.021-.957l.219-.09.031.235c.063.48.063.959.016 1.437-.033.342-.09.682-.163 1.02.09-.06.181-.129.273-.202.214-.173.43-.377.646-.589l.167-.164.117.203v.002c.171.299.259.625.344.941.026.095.051.189.078.28.161-.119.306-.321.445-.515.28-.389.589-.626.962-.918l-.249.626c-.348.875-.658 1.771-.698 2.658-.035.771.134 1.543.661 2.3l.008-.029c.039-.134.079-.261.121-.381.229-.652.546-1.204.953-1.501l.3-.218-.011.372c-.057 1.964.506 2.523 1.105 3.119.255.254.516.514.748.878.068-.269.094-.541.119-.8.028-.288.054-.56.13-.809l.156-.509.188.498c.336.888.683 1.183 1.042 1.489.302.257.612.521.931 1.091.009-.019.017-.038.025-.057.145-.353.231-.858.259-1.32l.018-.298.256.151c.218.129.403.29.555.485.094.121.176.254.244.399.025-.039.05-.082.073-.129.078-.159.143-.362.195-.609l.074-.353.24.268c.347.387.662.834.946 1.343.234.419.447.881.639 1.383.186-.271.322-.553.414-.868.123-.423.167-.91.142-1.508l-.035-.849.379.76c.237.475.474.877.737 1.191.186.222.386.4.609.527.005-.096.015-.196.037-.298.049-.227.151-.455.361-.645l.159-.144.116.181c.32.498.669.755.985.987.333.245.633.466.845.883.039-.124.069-.256.09-.392.123-.787-.011-1.75-.242-2.308l.331-.152.0001.002c.112.224.227.43.343.619.117.19.239.368.364.535.517.687 1.067 1.129 1.544 1.316-.015-.062-.03-.125-.045-.188-.039-.168-.075-.339-.108-.513-.168-.895-.241-1.834-.115-2.679l.032-.213.204.065c.292.093.527.321.725.599.124.174.233.369.331.558.012-.018.023-.036.034-.054.066-.106.129-.218.187-.334.308-.614.526-1.384.654-2.11l.057-.325.245.22.003.002c.057.052.113.113.167.182.053.067.102.139.148.213.15.247.272.547.346.837.07-.119.135-.248.194-.384.32-.739.471-1.702.418-2.759l-.048-.97.397.887c.224.502.483.93.796 1.238.237.234.507.399.82.477l-.005-.017c-.138-.512-.277-1.024-.049-1.565l.103-.245.191.184c.336.324.669.531 1 .652.252.091.505.134.758.142-.198-.735-.105-1.285-.017-1.803.07-.413.137-.805.029-1.247-.059-.241-.132-.482-.222-.723-.09-.242-.196-.483-.319-.724l-.159-.311.346.047c.329.045.656.154.981.326.241.127.481.289.72.486.097-.823-.359-1.674-.816-2.525l-.093-.174-.294-.549.543.304c.26.146.526.272.803.354.179.053.364.088.557.098-.155-.315-.187-.623-.22-.941-.028-.266-.056-.54-.169-.818-.067-.164-.133-.334-.196-.512-.063-.178-.12-.362-.168-.551l-.097-.386.356.178h.002c.064.032.133.062.207.09.073.027.145.049.217.067.29.07.596.069.873-.039-.496-.481-.774-.939-1.074-1.433-.086-.142-.174-.287-.257-.416-.35-.549-.724-.873-1.058-1.162-.426-.369-.791-.686-.995-1.323l-.13-.405.382.184c.072.034.144.066.215.096.076.031.151.06.225.086.258.09.527.153.777.162-.371-.405-.724-.832-.99-1.515l-.111-.285.303.038c.205.026.409.028.609-.052-.413-.683-.85-1.017-1.292-1.353-.406-.309-.815-.621-1.219-1.188l-.31-.434.51.153c.197.059.415.111.63.134.12.013.239.017.353.008-.132-.259-.219-.548-.31-.851-.186-.619-.394-1.306-1.053-1.856-.076.21-.191.378-.34.504-.209.176-.479.264-.808.265-.079 0-.16-.004-.244-.014-.027.423-.044.844-.061 1.264-.103 2.564-.204 5.067-2.359 5.595-.102.025-.205.066-.308.12-.105.056-.21.126-.312.208-.535.431-1 1.185-1.19 1.997.151.848.008 1.565-.331 2.128-.218.362-.515.658-.867.883-.165.478-.252.951-.272 1.425-.021.494.03.993.14 1.503.051.238.087.467.107.687.02.22.023.426.011.619-.064 1.034-.558 1.728-1.393 2.048-.567.218-1.136.371-1.707.466-.567.094-1.135.13-1.704.113-.568.017-1.136-.019-1.703-.113-.571-.095-1.14-.248-1.708-.466-.835-.321-1.329-1.014-1.393-2.048-.012-.193-.008-.4.011-.619.02-.22.055-.449.106-.686v-.0001c.11-.51.161-1.01.14-1.503-.02-.474-.107-.946-.272-1.425-.352-.225-.649-.522-.867-.883-.338-.563-.482-1.28-.331-2.128-.035-.148-.079-.296-.131-.44-.056-.153-.121-.304-.196-.45-.372-.733-.936-1.303-1.482-1.436-2.155-.528-2.256-3.03-2.359-5.595-.017-.42-.034-.841-.061-1.264-.084.001-.166.014-.244.014-.083 0-.162-.006-.237-.017m10.727 18.695c.551.017 1.098-.018 1.644-.108.544-.09 1.09-.238 1.636-.447.693-.266 1.104-.851 1.159-1.728.011-.178.008-.367-.001-.566-.018-.198-.051-.412-.101-.641-.117-.538-.17-1.067-.148-1.595.017-.391.075-.781.18-1.171-.236.1-.487.173-.749.218-.42 1.01-.252 1.722-.084 2.431.098.415.195.828.188 1.308l-.004.228-.221-.054-.073-.018c-.331-.08-.673-.147-1.022-.202-.316-.05-.638-.09-.964-.119-1.656-.151-3.402-.04-4.922.34l-.222.055-.004-.23c-.008-.479.09-.893.188-1.308.167-.709.335-1.422-.084-2.431-.262-.045-.513-.118-.749-.218.105.39.164.78.18 1.171.022.528-.031 1.057-.148 1.594v.0001c-.049.228-.083.442-.101.641-.018.199-.021.388-.001.566.054.877.465 1.462 1.159 1.728.546.21 1.092.357 1.636.447.547.091 1.094.125 1.645.108m48.772 4.351c1.927-.636 3.269-1.633 4.054-2.989.804-1.389 1.03-3.166.708-5.327v-.002c-.03-.205-.045-.405-.044-.599.0001-.195.016-.382.046-.561.132-.795.533-1.445 1.095-1.944-.263-.031-.527.019-.794.149l-.193.094-.061-.207c-.173-.583-.099-1.075.125-1.493.167-.31.416-.576.709-.805-.422-.117-.78-.042-1.079.161-.338.229-.613.623-.829 1.096-.08.174-.152.359-.216.551l-.198.59-.152-.604c-.323-1.281-.712-1.596-1.198-1.989-.444-.359-.962-.778-1.57-1.921-.051.238-.069.487-.055.687l.023.324-.289-.149c-.592-.305-1.386-.313-2.236-.321-1.206-.012-2.518-.024-3.631-.848.064.134.143.25.227.335l.237.244-.334.063c-.626.118-1.254.207-1.887.179-.533-.023-1.067-.13-1.601-.37.008.037.018.073.028.11.04.145.092.285.155.419.324.696.931 1.243 1.628 1.546l.758.329-.826.02c-1.258.031-2.077.334-2.814.607-.65.241-1.238.458-2.01.462h-.045c-.436 0-.844-.023-1.224-.07-.382-.047-.741-.117-1.077-.21-1.736-.478-2.781-1.54-3.093-2.992-.097-.452-.145-.885-.149-1.3-.004-.415.037-.811.12-1.185.424-1.926 1.933-3.287 4.03-3.99.709-.238 1.494-.4 2.376-.464.878-.064 1.855-.031 2.954.12l.151.021.007.153c.045 1.088.357 1.959 1.094 2.496.751.547 1.952.762 3.769.526.816-.106 1.534-.048 2.181.123.551.146 1.05.374 1.513.653.033-.39-.045-.781-.236-1.173l-.18-.37.395.114c.705.204 1.153.755 1.584 1.286.33.407.65.8 1.051.972.461.197.948.286 1.468.255.397-.023.814-.117 1.253-.285-.148-.065-.284-.143-.404-.241-.244-.198-.423-.469-.519-.864-.056-.232-.198-.456-.393-.681-.206-.237-.469-.472-.754-.715l-1.074-.914 1.27.61c.854.41 1.71.362 2.569-.143-.633-.17-.834-.548-1.056-.965-.149-.28-.308-.58-.654-.823l-1.033-.724 1.195.401c1.107.372 1.789.134 2.487-.11.451-.157.909-.317 1.485-.338l-.176-.218-.149-.184.216-.097c.77-.345 1.247-.778 1.515-1.335.198-.411.286-.896.298-1.468-.282.473-.549.793-.825.991-.407.292-.82.323-1.309.185h-.0001c-.28-.079-.57-.201-.887-.334-.809-.34-1.804-.757-3.169-.668l-1.196.079 1.12-.431c.897-.345 1.507-.821 1.897-1.405.319-.477.494-1.029.559-1.643-.221.171-.46.325-.733.436-.42.171-.911.236-1.522.101-.433-.095-.823-.064-1.191.046-.376.113-.733.309-1.088.54l-.291.189.001-.347c.016-.559.128-1.072.335-1.537.153-.343.357-.66.614-.951-.17.001-.339.04-.509.09-.307.09-.615.246-.924.467l-.219.157-.063-.263c-.122-.506-.368-.828-.656-1.045-.202-.152-.429-.256-.648-.336.216 1.209.017 2.098-.59 2.735-.645.677-1.744 1.048-3.29 1.2-1.53.17-2.549.473-3.195.99-.63.503-.912 1.227-.98 2.249l-.012.181-.18-.001h-.004c-.463-.027-.919-.037-1.368-.029-.45.007-.896.032-1.336.074-2.255.216-4.354.895-6.172 2.097l-.003.002c-.378.25-.726.525-1.042.82-.316.295-.599.611-.848.944-1.282 1.716-1.685 3.922-1.018 6.255v.003c.208.728.491 1.36.834 1.905.342.543.745 1 1.197 1.383 2.341 1.979 5.994 1.93 9.189 1.11h.0001c.6-.154 1.196-.352 1.788-.549 2.272-.755 4.488-1.492 6.847.204.287.206.543.453.766.73.593.736.948 1.685 1.018 2.639.07.959-.146 1.926-.697 2.696-.177.246-.387.472-.633.67-.101.081-.206.158-.316.232-.108.072-.223.141-.346.209-.516.283-1.129.501-1.837.652.889.729 1.684 1.587 2.388 2.579m-60.897-6.207c-.034.032-.067.064-.101.095.042.385.037.621-.044.834-.088.233-.251.405-.527.69-.522.538-.844 1.074-1.059 1.595-.13.315-.221.627-.293.931.373-.302.763-.456 1.131-.442l.39.014-.261.29-.118.129c-.498.545-1.086 1.188-.827 2.413.113.538.16 1.022.165 1.472.002.176-.003.346-.013.511.065-.087.129-.17.194-.247.21-.251.423-.45.64-.576l.359-.209-.09.406c-.141.635-.261 1.258-.296 1.828-.027.429-.006.827.091 1.175.093-.107.188-.205.283-.287.189-.16.384-.258.592-.246l.151.009.02.15c.102.768-.105 1.473-.33 2.243-.046.158-.094.32-.137.477-.156.565-.164 1.097-.088 1.585.053.341.149.661.265.956.124-.273.253-.531.391-.758.211-.346.444-.622.717-.773l.207-.114.058.23c.085.339.074.735.009 1.163-.047.307-.122.632-.21.966.397-.193.767-.52 1.091-1.085.427-.745.772-1.895.989-3.676l.363.041v.003l-.002.017c-.061.569-.091 1.125-.072 1.663.011.32.04.634.089.941.2-.535.412-.999.633-1.408.304-.562.626-1.021.958-1.414l.607-.717-.294.893c-.345 1.049-.599 2.045-.699 2.953-.099.895-.05 1.704.205 2.394.23.622.423 1.267.549 1.949.101.549.159 1.12.156 1.72.025-.025.049-.05.072-.076.118-.125.227-.255.327-.389.512-.682.79-1.464.832-2.349l.051-1.068.305 1.024c.096.322.205.586.327.792.029.049.059.095.089.137.012-.277.049-.552.106-.828.086-.422.212-.84.354-1.27.263-.802.07-1.554-.115-2.269l-.014-.056-.171-.666.478.493c.313.323.563.715.75 1.201.184.479.305 1.045.364 1.722.036.417.079.824.164 1.205.059.265.139.522.253.768.321-.648.585-1.145.839-1.359l.28-.236.019.366c.065 1.228.277 2.247.635 3.116.307.743.722 1.378 1.247 1.942l.006-.038c.023-.148.052-.298.087-.449.179-.782.519-1.675.996-2.608l.389-.761-.045.854c-.023.442.005.869.112 1.248l.006-.002c.022.07.043.139.061.208l.005.012c.105.273.259.517.474.719-.137-.741.072-1.278.288-1.832.242-.621.492-1.264.181-2.28l-.388-1.267.716 1.114.933 1.452c.263-.858.377-1.705.313-2.537-.073-.944-.377-1.874-.954-2.785l-.564-.89.83.648c.462.361.958.829 1.392 1.497.432.666.802 1.529 1.014 2.678.175.95.344 1.847.716 2.585.296.589.727 1.084 1.403 1.434-.221-.408-.413-.825-.543-1.263-.184-.619-.244-1.276-.085-1.996l.111-.502.23.46c.198.396.411.709.638.939.129.131.263.234.401.31-.001-.059-.019-.117-.028-.176-.025-.172-.044-.346-.057-.523-.068-.907.013-1.891.244-2.839l.112-.457.225.413c.199.365.393.616.583.751.1.071.198.108.294.111-.003-.001-.005-.021-.008-.031-.013-.056-.023-.112-.029-.169-.031-.263 0-.555.091-.875.031-.265.051-.529.061-.792.001-.27.009-.542-.003-.815-.063-1.4-.421-2.819-1.121-4.079l-.636-1.144.924.926c.092.087.189.182.289.285.099.102.203.214.311.336.543.614 1.132 1.424 1.614 2.371.245.423.494.824.757 1.139.178.214.362.388.554.5-.013-.444-.02-.888.238-1.35l.085-.152.156.078c.327.164.652.416.974.755.212.223.424.485.635.785.008-.276.007-.545-.013-.8-.032-.411-.114-.786-.287-1.093l-.0001-.0001c-.087-.154-.164-.311-.232-.468-.067-.157-.127-.319-.178-.483-.261-.846-.267-1.711.051-2.283l.266-.478.074.543c.047.348.103.657.19.931.034.106.073.208.118.305.006-.026.012-.053.018-.079.116-.478.328-.901.61-1.259.411-.522.255-1.246.09-2.01-.09-.417-.183-.845-.195-1.279l-.028-1.01.379.933c.174.427.357.811.555 1.126.102.162.208.306.318.427.005-.401.068-.773.132-1.15.051-.3.102-.603.122-.919v-.004c.008-.134.006-.27-.006-.409-.012-.14-.033-.28-.061-.417-.152-.727-.521-1.447-.908-2.027l-.681-1.02.948.776c.289.237.558.392.808.467.151.045.295.061.431.047-.052-.106-.099-.229-.138-.367-.069-.239-.12-.528-.154-.867-.05-.329-.184-.633-.365-.922-.188-.3-.427-.585-.679-.866l-.167-.186.228-.102c.22-.099.439-.129.656-.12.09.004.179.014.267.029-.336-.717-.934-1.376-1.497-1.998l-.019-.021-.232-.257.342-.047c.222-.031.486-.077.713-.153.107-.036.205-.077.281-.124-.108-.068-.212-.15-.307-.253-.16-.172-.294-.397-.381-.697-.314-1.079-.675-1.529-1.058-2.01-.03-.038-.06-.075-.108-.135-.108-.009-.216-.027-.322-.052-.048-.012-.095-.025-.141-.039.018.055.036.11.055.164.059.168.124.333.19.496.132.324.163.625.194.918.038.362.074.71.325 1.045l.197.263-.327.029c-.355.031-.684-.013-.998-.106-.123-.036-.243-.08-.36-.13.478.909.883 1.821.61 2.764l-.082.283-.217-.199c-.295-.272-.59-.486-.882-.64-.171-.09-.341-.161-.511-.211.063.141.121.282.173.423.095.255.173.51.235.765.126.516.053.943-.023 1.393-.09.529-.186 1.094.075 1.864l.077.229-.242.012c-.378.019-.756-.023-1.136-.161-.304-.111-.607-.282-.909-.533-.056.347.042.708.14 1.07.024.09.049.181.076.293l.059.247-.251-.021c-.52-.044-.947-.269-1.308-.624-.192-.19-.364-.416-.521-.672-.033.815-.189 1.556-.452 2.161-.067.155-.142.303-.224.44-.082.137-.171.265-.267.383l-.002.002-.295.365-.028-.47c-.021-.349-.165-.793-.369-1.129-.008-.013-.016-.025-.024-.038-.137.638-.342 1.286-.613 1.827-.065.13-.133.252-.204.366-.072.115-.149.224-.23.324l-.18.221-.125-.255c-.124-.253-.266-.538-.436-.776-.101-.143-.212-.268-.334-.356-.073.736-.002 1.536.143 2.305.031.167.067.334.105.499.037.161.078.323.122.484l.076.28-.284-.052c-.618-.113-1.377-.632-2.059-1.539-.044-.058-.088-.119-.131-.181.049.437.051.902-.014 1.32-.027.171-.064.334-.113.482-.051.154-.115.297-.194.423l-.002.002-.218.348-.112-.396c-.167-.593-.495-.834-.872-1.112-.298-.219-.623-.458-.938-.883-.056.091-.091.188-.112.285-.037.175-.034.356-.03.505l.007.271-.253-.096c-.389-.148-.713-.402-1.01-.751-.155-.185-.302-.398-.443-.636-.021.333-.071.632-.151.909-.136.469-.359.871-.679 1.26l-.205.249-.107-.305c-.214-.607-.457-1.154-.729-1.642-.208-.372-.433-.709-.674-1.012-.04.129-.085.244-.136.346-.099.2-.218.35-.358.45l-.201.144-.078-.236c-.071-.217-.169-.406-.294-.565-.062-.079-.131-.152-.206-.218-.046.401-.132.806-.258 1.114-.033.081-.069.155-.107.221-.041.071-.086.133-.133.186l-.002.002-.182.2-.117-.244c-.337-.705-.667-.985-.987-1.258-.309-.263-.61-.519-.902-1.082-.006.055-.011.112-.017.169-.039.41-.082.852-.274 1.288l-.16.363-.171-.358c-.246-.515-.568-.836-.881-1.146-.609-.606-1.182-1.177-1.214-2.946-.21.266-.387.628-.531 1.037-.043.121-.081.242-.116.361-.034.118-.067.245-.098.378l-.083.361-.235-.285c-.77-.931-1.01-1.886-.967-2.842.027-.59.163-1.176.35-1.755-.142.159-.301.291-.496.354l-.168.054-.06-.165c-.06-.165-.106-.335-.153-.508-.058-.215-.118-.435-.203-.639m28.356 15.566l-.032.575-.04-.065c-.003.092-.003.184 0 .276.001.299.053.599.128.901l.039.156-.15.058c-.248.096-.493.106-.737.062.148.16.286.324.405.496.284.409.464.858.436 1.376-.018.344-.001.65.024.931.936-.419 1.842-1.367 2.909-2.485.335-.351.685-.717 1.035-1.068l.002-.002c.731-.732 1.462-1.346 2.192-1.848.732-.503 1.465-.895 2.197-1.181 3.634-1.418 7.207-.221 10.592 2.815l-.053-.418c-.042-.328-.084-.658-.132-1.03-.322-2.462-.988-4.166-1.855-5.331-.856-1.151-1.911-1.775-3.02-2.084l.097-.352c1.182.329 2.305.993 3.216 2.218.901 1.212 1.593 2.972 1.923 5.502.041.317.087.675.132 1.031.536 4.208 1.047 8.218 3.558 11.1.179.206.359.397.529.577.83.88 1.421 1.508 1.169 3 .028-.013.055-.026.083-.04.122-.061.238-.13.346-.206.566-.398.973-1.02 1.209-1.878l.059-.216.199.102c.276.142.489.409.656.752.125.256.225.558.309.882.103-.091.188-.2.262-.323.123-.206.215-.453.299-.709l.135-.414.2.386c1.42 2.738 1.895 4.638 1.797 6.03-.1 1.427-.787 2.323-1.675 3.036l-.042.034-.054.005c-.412.042-.944.13-1.481.28-.61.171-1.224.423-1.666.78-.417.337-.679.772-.623 1.327.001.095.029.195.058.299.016.056.034.11.056.162.132.313.382.574.717.724.342.153.774.191 1.264.053.075-.021.15-.046.227-.075-.014-.319.024-.707.173-1.079.197-.491.584-.953 1.294-1.199.174-.06.369-.107.587-.138l.05.362c-.191.027-.364.069-.519.122-.592.205-.913.585-1.074.988-.165.412-.169.85-.126 1.155.015.109.037.2.059.264.041.118.15.29.317.453.157.154.362.296.603.372.237.075.511.087.812-.017.259-.089.538-.263.833-.552-.048-.147-.079-.303-.093-.465-.03-.356.025-.743.161-1.121.187-.522.529-1.028 1.017-1.416l.227.286c-.433.344-.736.793-.901 1.253-.117.328-.165.662-.139.968.025.296.118.564.282.771.125.158.292.282.503.358.094.034.186.06.276.078.427.086.824.004 1.153-.211.336-.219.605-.579.771-1.043.036-.102.068-.208.094-.319-.079-.071-.151-.15-.213-.236-.227-.31-.336-.707-.258-1.154l.36.063c-.06.342.022.642.192.875.134.184.324.327.542.417.221.091.47.127.723.095.379-.048.767-.251 1.075-.654.11-.144.197-.291.261-.439.136-.316.163-.632.083-.925-.081-.295-.273-.571-.576-.804-.157-.12-.344-.229-.561-.323l.144-.336.023.001c.015-.114.032-.234.048-.354.024-.175.048-.35.079-.598l.045-.36.262.25c.234.223.574.35.915.346.047-.0001.095-.004.143-.001-.334-.514-.575-1.179-.624-1.9-.011-.161-.012-.326-.003-.494.009-.167.03-.336.062-.506v-.0001c.207-1.093.152-2.115-.151-3.064-.059-.184-.127-.366-.205-.545-.078-.18-.165-.356-.261-.53v-.0001l-.21-.377.417.112c.384.103.768.277 1.151.563.287.214.572.49.857.845.043-.507.019-1.015-.056-1.524-.098-.662-.283-1.326-.523-1.989l-.139-.386.379.154c.491.2.98.55 1.466 1.049-.008-.555-.119-1.057-.296-1.536-.226-.613-.559-1.196-.918-1.808l-.194-.332.379.059c.447.07.894.212 1.341.564-.285-.913-.795-1.708-1.521-2.228-.17-.122-.353-.229-.547-.319-.194-.09-.4-.162-.617-.216h-.003c-1.364-.335-2.422-1.103-3.122-2.144.481 1.362 1.318 2.687 2.659 3.962l.151.144-.163.131c-.072.059-.152.112-.238.16-.084.046-.174.088-.269.123-.35.132-.762.186-1.145.148.482.917.382 1.342.243 1.937-.085.365-.187.8-.153 1.486l.015.296-.27-.12c-.465-.207-.821-.535-1.093-.936-.153-.226-.279-.474-.384-.736-.087.323-.185.633-.305.918-.2.475-.459.878-.821 1.154l-.301.229.009-.378v-.008c.0001-.08-.002-.161-.013-.243-.001-.081-.027-.165-.051-.254-.123-.454-.419-.947-.889-1.479l.273-.242c.509.575.832 1.117.969 1.626.018.068.034.138.046.207.177-.208.322-.465.443-.755.183-.434.316-.944.436-1.473l.162-.709.192.702c.123.451.294.877.536 1.233.182.267.404.496.677.667.003-.561.092-.942.169-1.271.136-.58.228-.975-.399-2.02l-.249-.414.46.145c.404.127.909.096 1.317-.058.078-.029.152-.063.222-.102l.012-.007c-1.597-1.569-2.471-3.215-2.873-4.912-.09-.379-.156-.76-.202-1.143-.004-.02-.008-.039-.012-.059l.005-.002c-.155-1.366-.048-2.758.193-4.165l.079-.464.254.396.017.027c.384.598.643 1 1.069 1.206-.111-.459-.071-.896-.032-1.329.052-.578.104-1.146-.256-1.709l-.262-.41.466.136c.317.093.659.164.995.152.251-.009.503-.066.743-.198-.461-.372-.842-.832-1.089-1.379-.055-.123-.104-.25-.146-.382-.039-.125-.072-.256-.098-.393-1.397-3.749-3.533-6.325-6.446-7.856-2.926-1.538-6.644-2.028-11.19-1.601-.372.035-.786.076-1.204.118-4.462.443-9.333.927-13.437-1.52.11.198.204.401.277.611l.115.326-.333-.088c-.181-.048-.361-.088-.535-.095-.082-.004-.163 0-.244.014.194.227.376.458.529.701.207.33.36.679.418 1.063v.001c.031.321.079.59.142.81.06.208.133.366.219.476l.155.198-.236.086c-.278.101-.572.105-.884.012-.086-.026-.174-.059-.263-.1.245.461.45.967.557 1.478.032.155.056.31.069.462.013.154.015.308.006.462v.004c-.022.335-.074.647-.127.956-.082.486-.163.964-.11 1.489l.038.384-.321-.215c-.268-.179-.507-.455-.725-.801-.019-.03-.037-.06-.056-.091l.001.046c.183.849.357 1.653-.162 2.312-.25.318-.439.693-.542 1.119-.02.084-.037.169-.051.255-.013.084-.023.173-.03.267v.003l-.033.462-.291-.36c-.2-.248-.335-.522-.433-.83-.021-.065-.04-.131-.057-.199-.025.387.036.828.172 1.269.046.147.101.297.165.446.064.149.135.293.213.431l.0001.0001c.204.361.298.786.335 1.245.035.444.015.923-.012 1.407m-25.68.045c-.229.401-.482.696-.751.915.209.341.334.684.406 1.026.078.372.092.742.082 1.111-.061 2.201.375 4.389.818 6.615.102.512.204 1.026.31 1.594l.002.009c.663 3.555.635 5.939.221 7.58-.422 1.673-1.243 2.584-2.151 3.176l-.05.032-.059-.003c-1.057-.057-1.912.053-2.567.33-.125.053-.242.112-.353.177-.108.064-.211.135-.306.212l-.003.002c-.508.411-.749.881-.78 1.315-.018.254.036.497.15.707.115.212.292.393.518.523.387.223.92.297 1.544.126l.0001-.022c.024-.36.147-.71.349-1.014.2-.303.478-.562.812-.74.349-.187.759-.285 1.204-.256l-.024.365c-.374-.025-.717.057-1.01.213-.279.149-.512.366-.68.62-.167.253-.269.542-.289.837-.018.275.035.557.175.819.1.189.226.339.368.453.208.166.451.254.701.269.254.015.515-.044.755-.172.168-.09.325-.214.462-.37-.002-.001-.005-.02-.007-.03-.065-.296-.06-.605.004-.903.063-.296.184-.583.35-.834.277-.419.682-.741 1.158-.846l.079.356c-.378.084-.704.347-.932.692-.141.213-.243.456-.297.708-.053.25-.058.507-.005.749.075.34.268.654.609.88.218.145.49.217.771.217.254 0 .514-.058.749-.173.232-.115.439-.286.589-.513.149-.226.243-.508.251-.847-.013-.024-.026-.048-.038-.073-.151-.309-.21-.676-.138-1.076l.36.063c-.057.321-.012.612.106.853.116.236.302.427.532.552.231.127.508.187.801.163.346-.029.715-.176 1.063-.473.176-.149.298-.382.366-.648.069-.273.079-.58.027-.87-.051-.286-.161-.554-.333-.756-.134-.158-.308-.277-.521-.331l-.295-.075.204-.225c.029-.034.056-.069.082-.106.027-.038.054-.082.082-.13.142-.245.263-.572.364-.979l.12-.484.221.447c.099.2.23.348.392.443.092.054.195.092.31.114-.014-.032-.027-.064-.041-.097-.053-.129-.099-.258-.139-.387-.205-.665-.239-1.331-.102-1.997l.075-.364.242.282c.12.139.258.261.414.365.074.049.153.094.235.136-.112-.839.02-1.558.159-2.317.137-.748.282-1.538.195-2.516l-.131-1.463.485 1.387.0001.003c.041.122.086.243.133.363.048.121.099.236.151.345.203.425.448.787.733 1.01-.015-1.032.236-1.724.504-2.46.245-.673.503-1.384.566-2.437l.046-.77.304.708c.082.192.163.35.242.476.013-.13.031-.26.05-.392.07-.494.143-1.013-.068-1.603l-.415-1.16.733.99v.002c.035.047.075.091.118.134.043.042.09.081.138.116.138.101.287.172.42.207-.391-.848-.311-1.668-.226-2.543.072-.744.149-1.53-.079-2.39-.093-.251-.15-.522-.179-.804-.292.655-.508 1.277-.636 1.838-.034.148-.062.289-.082.423-.021.133-.036.264-.045.393v.003l-.028.39-.28-.271c-.687-.664-1.219-1.422-1.596-2.335-.327-.793-.537-1.702-.63-2.766-.182.292-.392.72-.636 1.218v.002l-.0001.002-.147.295-.171-.282c-.227-.374-.366-.77-.459-1.184-.091-.41-.136-.827-.173-1.252-.056-.646-.169-1.18-.339-1.624-.048-.125-.1-.242-.157-.353.089.515.107 1.055-.083 1.634-.139.423-.263.831-.344 1.228-.08.394-.12.785-.094 1.181l.024.36-.304-.194c-.184-.118-.348-.299-.492-.542-.033-.056-.065-.115-.096-.178-.133.663-.405 1.267-.815 1.812-.108.143-.225.283-.353.419-.126.135-.263.265-.409.392l-.004.003-.323.281.022-.428c.038-.735-.017-1.423-.138-2.078-.121-.654-.308-1.28-.533-1.888-.276-.747-.331-1.612-.225-2.562.07-.631.21-1.3.402-1.997-.098.156-.195.321-.29.496-.292.541-.569 1.183-.822 1.964l-.188.581-.161-.589c-.101-.37-.167-.752-.204-1.142-.181.674-.393 1.2-.63 1.614m12.931 6.945l.16.446-.108-.058c.161.608.335 1.208.528 1.796.241.733.51 1.45.82 2.144l.008.018.004.02c.139.669.308 1.352.476 2.034.857 3.478 1.714 6.956-1.096 9.112l-.046.035-.059.0001c-.119.004-.242.001-.368.02-1.054.081-1.887.369-2.45.78-.538.394-.824.901-.808 1.443.0001.017.002.04.004.07.012.153.049.297.107.43.118.268.323.491.585.641.265.152.589.228.941.201.186-.014.379-.058.576-.134-.015-.413.098-.847.33-1.228.237-.39.599-.725 1.076-.927.261-.11.556-.181.882-.197l.019.365c-.283.014-.537.075-.76.169-.402.17-.706.452-.906.781-.199.328-.294.7-.276 1.051.009.174.045.342.11.495.126.299.386.547.699.708.21.108.444.177.678.196.23.019.458-.001.661-.095.214-.091.403-.247.541-.48-.089-.198-.146-.417-.165-.647-.029-.341.023-.708.169-1.063.173-.422.479-.826.938-1.15l.21.299c-.398.281-.662.629-.811.99-.123.299-.167.607-.142.895.024.282.114.542.26.749.123.175.286.313.482.394.156.065.311.113.463.144.42.086.816.045 1.15-.127.334-.172.611-.478.793-.921.052-.127.097-.265.132-.414-.102-.1-.19-.211-.264-.326-.201-.315-.293-.675-.239-.97l.358.064c-.037.206.035.47.188.71.123.192.296.366.507.483.207.115.451.174.717.138.331-.044.703-.233 1.092-.638.294-.306.42-.73.408-1.143-.006-.211-.049-.418-.124-.606-.073-.183-.176-.345-.306-.471-.176-.17-.402-.272-.669-.264l-.315.001.149-.278c.135-.252.225-.576.263-.878.007-.056.013-.115.016-.174.004-.059.005-.114.005-.163v-.012l-.007-.484.324.359c.251.277.593.417.927.417.042 0 .084-.002.126-.007-.299-.448-.498-.982-.599-1.536-.024-.131-.042-.262-.054-.393-.013-.13-.02-.262-.022-.395 0-.026-.0001-.052 0-.079l.0001-.41.303.274c.18.163.359.28.535.348.09.035.18.058.269.068-.24-.743-.197-1.31-.147-1.984.05-.669.108-1.447-.115-2.62l-.179-.944.512.813c.247.392.492.7.737.926.139.128.277.229.414.302-.106-.863.047-1.674.207-2.519.137-.728.28-1.483.258-2.306l-.006-.216.214.031c.202.029.4.125.594.289.001-.271-.014-.519-.062-.75-.07-.34-.19-.651-.322-.955l-.334-.766.623.557c.198.177.39.269.576.277-.247-.481-.298-1.074-.355-1.746-.075-.873-.161-1.887-.723-2.913l-.883-1.611 1.182 1.405c.347.413.691.691 1.031.835.02.008.04.016.06.024-.078-.221-.139-.45-.182-.694-.064-.367-.087-.77-.061-1.239.023-.425-.13-.801-.372-1.149-.254-.366-.604-.702-.953-1.03l-.892-.836 1.096.539c.22.108.44.204.656.251.149.032.296.041.442.012-.057-.268-.09-.537-.099-.807-.009-.267.006-.533.044-.8-.283-.444-.565-.814-.845-1.109-.239-.251-.475-.448-.71-.59-.133.334-.123.68-.113 1.026.002.07.004.141.005.217v.044l.002.245-.235-.068c-.359-.105-.677-.367-.971-.72-.281-.337-.541-.758-.797-1.199l-.005-.009c-.408-.802-.894-1.501-1.359-2.059.403 1.023.62 2.108.668 3.182.013.282.014.563.003.843-.001.284-.032.561-.064.832v.002l-.002.013-.005.017c-.081.279-.109.528-.083.749.005.045.013.088.022.129.009.041.021.082.035.121.008.024.016.043.022.058l.072.171-.172.069c-.274.11-.545.07-.811-.121-.152-.109-.302-.269-.45-.481-.148.771-.194 1.555-.139 2.288.013.17.031.337.054.499.024.166.053.324.086.475l.002.009.065.294-.29-.078c-.306-.082-.591-.257-.855-.525-.153-.155-.299-.342-.439-.561-.031.456.031.885.154 1.298.171.574.46 1.12.779 1.659l.258.436-.477-.171c-1.07-.383-1.693-1.027-2.095-1.827-.394-.783-.569-1.707-.749-2.684-.202-1.096-.552-1.915-.961-2.545-.17-.262-.35-.49-.534-.693.286.657.448 1.322.5 1.997.077 1-.088 2.02-.451 3.045l-.124.352-.202-.314-.649-1.01c.023.641-.167 1.129-.352 1.605-.236.606-.463 1.191-.145 2.08m21.326-8.479c-.855 1.149-1.423 2.287-1.673 3.425-.25 1.137-.184 2.278.227 3.436v.002.002c.085.241.153.476.205.705.052.231.086.452.104.663.082 1-.202 1.825-.777 2.437.286.105.571.123.855.054.372-.09.749-.33 1.13-.718l.325-.331-.013.464c-.04 1.368.457 1.96.903 2.493.19.227.372.444.509.701l.486-1.586.093-.305.215.235c.918 1 1.616 2.046 2.055 3.133.441 1.094.619 2.233.492 3.423-.051.477-.132.861-.263 1.226-.131.365-.309.704-.553 1.089-.161.254-.331.548-.5.855-.166.301-.335.622-.496.933-.081.156-.097.188-.116.224-.373.726-.692 1.345-1.144 1.556-.422.196-.855.24-1.287.284-.359.036-.719.073-1.051.202-.494.192-.881.451-1.107.808-.223.351-.297.807-.174 1.403.199.608.506.899.861.994.336.089.726.013 1.113-.137 0-.34.086-.702.272-1.043.254-.467.694-.894 1.353-1.167.208-.086.438-.157.693-.209l.071.358c-.229.047-.437.111-.626.188-.575.238-.955.605-1.172 1-.214.394-.27.818-.197 1.179.017.085.042.166.074.243.086.209.24.39.436.527.198.138.438.232.695.264.257.032.528.003.787-.104.253-.105.497-.285.708-.554-.144-.316-.212-.686-.163-1.065.058-.446.275-.902.717-1.296.144-.129.314-.251.512-.366l.181.316c-.172.099-.322.208-.451.323-.37.33-.551.706-.598 1.069-.047.363.038.716.2.998.05.088.109.17.176.244.164.184.372.33.603.422.257.103.544.141.832.095.288-.046.579-.178.844-.415.244-.217.466-.523.646-.931-.071-.06-.137-.129-.196-.209-.228-.306-.351-.755-.299-1.373l.364.03c-.044.521.051.887.228 1.124.132.177.311.285.514.335.213.053.452.044.69-.016.446-.111.879-.396 1.125-.78.03-.047.059-.096.086-.147.155-.294.245-.645.167-1-.078-.36-.328-.732-.855-1.071-.084-.054-.174-.107-.271-.158l-.196-.104.14-.173c.214-.264.328-.58.342-.947l.011-.307.263.156c.275.164.55.316.817.415.177.066.354.11.528.12-.391-1.204-.173-2.139.045-3.077.172-.737.344-1.476.194-2.34l-.203-1.166.545 1.051c.377.727.745 1.203 1.106 1.427.006-.371.048-.71.087-1.031.119-.961.216-1.743-.883-2.559l-.242-.18.271-.131c.204-.099.46-.121.766-.066.198.036.419.104.663.206-.442-1.914-1.345-2.818-2.155-3.63-.431-.431-.836-.837-1.142-1.348.056.512.165 1.014.327 1.475.199.566.478 1.068.836 1.446l.181.191-.241.103c-.476.204-.911.195-1.313.046-.221-.082-.429-.207-.626-.361.091.468.151.95.129 1.422-.032.685-.233 1.344-.751 1.898l-.236.252-.075-.338v-.0001c-.025-.114-.053-.22-.083-.318-.03-.099-.065-.194-.102-.285-.187-.45-.455-.769-.805-.959l.173-.322c.427.231.75.612.97 1.141.04.097.078.201.111.31.29-.421.412-.898.435-1.393.029-.623-.098-1.279-.245-1.89l-.161-.666.47.497c.288.305.595.549.924.672.247.092.512.115.799.043-.308-.384-.551-.851-.732-1.365-.359-1.02-.471-2.23-.34-3.331.133-1.114.517-2.123 1.15-2.725.183-.174.386-.315.61-.414-.168-.938-.303-1.902-.431-2.88-1.016-.95-2.05-1.73-3.095-2.319.178 2.323-.945 3.355-1.92 4.251-.473.434-.908.835-1.11 1.327l-.184.448-.158-.458c-.102-.297-.175-.602-.206-.955-.117.709-.038 1.346.033 1.917.127 1.024.231 1.856-.725 2.579l-.22-.292c.787-.595.695-1.334.582-2.243-.115-.927-.251-2.02.393-3.332l.489-.998-.144 1.101c-.063.477-.075.865-.047 1.203.014.169.038.326.071.477.252-.377.604-.701.978-1.045.945-.869 2.039-1.875 1.78-4.191-2.293-1.182-4.644-1.435-7.01-.523m-34.742 22.335c-1.604-.08-2.938-.146-3.238 1.184.669-.248 1.506-.348 2.51-.299.344-.23.673-.511.968-.874l-.239-.012m14.03 1.33c.404-.317.724-.668.974-1.046-.383.032-.735.033-1.057.034-.509.0001-.938.0001-1.267.133-.377.15-.654.367-.829.65-.133.215-.21.471-.231.769.559-.272 1.261-.457 2.085-.521.101-.008.21-.014.324-.018m22.622.118c.272-.127.515-.519.777-1.015-.989-.021-1.748.028-2.295.276-.493.223-.82.622-1 1.301.065-.029.133-.057.202-.084.378-.147.762-.186 1.147-.225.401-.041.802-.081 1.17-.252m16.234-.771c-.561.235-.925.687-1 1.459.332-.159.693-.286 1.05-.387.535-.15 1.066-.24 1.488-.286.342-.279.649-.587.896-.95-.974-.108-1.82-.092-2.431.164" fill="#693f2b"/><path d="m25.319 31.674c-.578-.167-1.146-.468-1.652-.916.008.222.001.443.003.658-.016.525-.044.927-.21 1.252-.174.34-.481.572-1.048.729l-.097-.352c.456-.126.696-.299.821-.543.133-.259.156-.621.17-1.096.007-.235.003-.481-.007-.73-.528.493-1.13.821-1.743.998-.016.226-.061.45-.131.671-.003.025-.006.05-.009.075-.028.249-.039.48-.035.693.021 1.023.395 1.656 1 1.844.697-.045 1.404-.044 2.101.002.611-.187.986-.82 1.01-1.845.004-.212-.007-.443-.035-.693-.003-.025-.006-.05-.009-.075-.07-.221-.115-.445-.131-.672m.536 1.541c-.008.198-.029.384-.061.556.097-.108.196-.215.297-.321.17.186.325.374.459.578-.075-.335-.135-.677-.129-1.056-.131.168-.273.327-.42.485-.049-.081-.098-.161-.145-.243m-5.399-.249c.007.381-.054.726-.13 1.063.134-.204.289-.392.459-.578.101.106.199.213.297.321-.033-.172-.053-.358-.062-.557-.047.081-.096.162-.145.242-.148-.16-.29-.321-.42-.492" fill="#df1e20"/><path d="m26.688 35.26c-.057-.214-.127-.421-.215-.619-.103-.231-.231-.45-.392-.652-.26.284-.458.529-.634.745-.081.1-.158.195-.233.285.227.025.452.056.675.091.271.043.538.093.799.15m-5.03-.242c-.075-.089-.151-.183-.232-.283-.176-.217-.374-.462-.634-.745-.161.202-.289.421-.392.652-.088.197-.158.404-.214.617.475-.105.968-.185 1.472-.241m-.465-3.384h-1.01c.097.288.202.535.326.757.089.16.189.308.302.449.094-.175.173-.35.234-.525.079-.226.129-.453.144-.682m5.502.009h-1.014c.016.225.065.449.143.672.061.176.141.351.235.526.113-.138.212-.281.302-.436.127-.22.235-.466.333-.763" fill="#fff"/><path d="m32.06 16.946h.006c.043-.002.089-.008.138-.019.051-.011.101-.026.15-.044.194-.071.391-.194.562-.348-.068-.03-.134-.063-.198-.1-.151-.088-.293-.202-.425-.356l-.195-.228.292-.069c.578-.136 1.063-.404 1.443-.829.334-.373.59-.87.761-1.51l-.034.008c-.301.073-.601.093-.901.061l-.159-.017-.004-.161c-.02-.852.188-1.465.526-1.933.336-.466.795-.78 1.284-1.042l.171.322c-.447.239-.864.523-1.16.933-.272.378-.447.87-.458 1.547.205.007.41-.014.615-.064.05-.012.101-.026.153-.042.05-.016.101-.033.153-.053h.003l.31-.117-.068.325c-.18.855-.491 1.508-.92 1.987-.361.403-.8.681-1.312.852.036.026.072.049.109.071.122.071.254.123.394.167l.262.082-.177.21c-.243.288-.575.528-.903.648-.067.025-.133.044-.197.058-.066.014-.133.023-.199.026h-.006l-.016-.365m-6.03-3.735c.274-.699.849-.906 1.476-1.131.53-.19 1.103-.396 1.505-.963l.188-.265.128.299c.029.066.054.139.075.219.021.075.037.154.05.234.05.326.035.69-.047.997.104.002.209-.011.314-.034.188-.04.377-.11.567-.188l.312-.128-.065.332c-.086.439-.224.784-.415 1.032-.203.265-.462.42-.777.466l-.053-.362c.218-.032.398-.141.541-.328.108-.14.196-.324.265-.552-.1.034-.2.062-.3.084-.223.048-.447.06-.674.011l-.217-.047.087-.204c.121-.282.154-.676.1-1.024-.003-.019-.006-.038-.001-.057-.434.454-.96.643-1.454.82-.546.196-1.046.375-1.26.92l-.34-.133m-4.222.176c.041-.299.095-.595.199-.88.107-.293.265-.569.512-.816l.2-.2.099.265v.0001c.001.027.021.056.034.085.013.03.027.063.043.098.026.058.056.119.086.177l.008-.018c.054-.117.111-.231.172-.339.323-.578.756-1.042 1.303-1.209l.287-.088-.055.296v.004c-.011.061-.021.126-.029.192-.008.066-.014.128-.016.184-.011.216.008.416.055.6.053-.028.107-.051.161-.07.329-.113.687-.067.961.02l.231.073-.133.202c-.191.289-.34.565-.423.826-.079.245-.099.478-.04.698l-.353.094c-.079-.291-.054-.592.046-.904.073-.227.186-.458.328-.695-.163-.025-.338-.023-.498.033-.045.015-.088.035-.13.059-.042.025-.083.054-.12.087l-.002.002-.192.174-.1-.239c-.122-.292-.174-.618-.156-.977.002-.033.004-.066.007-.099-.321.19-.592.521-.813.915-.057.102-.11.206-.159.313-.049.106-.095.218-.139.332l-.115.306-.2-.258c-.085-.109-.188-.296-.271-.472-.107.148-.186.306-.246.47-.093.254-.142.527-.18.805l-.361-.05m-1.304-.043c-.214-.545-.714-.725-1.26-.92-.493-.177-1.02-.366-1.454-.82-.003.019-.007.038-.001.057-.054.348-.02.742.1 1.024l.087.204-.217.047c-.227.049-.451.037-.674-.011-.1-.021-.2-.05-.3-.084.069.228.157.411.265.552.143.186.323.296.541.328l-.053.362c-.315-.046-.573-.202-.777-.466-.191-.249-.329-.593-.415-1.033l-.064-.331.312.128c.189.077.378.147.567.188.105.022.21.035.314.034-.082-.307-.097-.671-.047-.997.012-.08.029-.159.049-.234.022-.079.047-.153.075-.219l.128-.299.188.265c.402.567.975.772 1.505.963.627.225 1.202.432 1.476 1.131l-.34.133m-5.707 3.966h-.006c-.066-.003-.133-.012-.198-.026-.065-.014-.131-.033-.198-.058-.328-.12-.66-.36-.903-.648l-.177-.21.262-.082c.14-.044.272-.096.394-.167.037-.022.074-.045.109-.071-.512-.17-.952-.448-1.312-.852-.428-.479-.74-1.131-.92-1.987l-.068-.325.31.117h.002c.053.02.104.037.154.053.052.016.103.03.153.042.205.05.41.071.615.064-.011-.677-.186-1.169-.458-1.547-.296-.41-.713-.694-1.16-.933l.171-.322c.489.262.948.576 1.284 1.042.338.468.546 1.081.526 1.933l-.004.161-.159.017c-.3.032-.601.012-.901-.061-.011-.003-.023-.005-.034-.008.171.639.427 1.137.761 1.51.38.425.866.693 1.444.829l.292.069-.195.228c-.132.154-.274.268-.425.356-.064.038-.13.071-.198.1.171.154.368.277.562.348.049.018.099.033.15.044.048.011.095.017.138.019h.006l-.016.365m51.846-.305c.054-.067.11-.129.168-.189.059-.06.119-.116.181-.169.321-.272.698-.463 1.106-.586.353-.107.709-.141 1.065-.175.307-.029.615-.059.912-.138.267-.071.543-.175.829-.324.289-.152.588-.349.9-.607l.289-.239.009.376c.007.271-.052.538-.147.804-.02.055-.041.111-.064.165.333-.195.663-.345.99-.437.524-.148 1.039-.147 1.54.059l.35.144-.33.184c-.112.065-.216.131-.314.2-.099.07-.192.142-.279.217-.342.293-.598.623-.785.963.917-.154 1.758-.18 2.527-.085.874.109 1.654.375 2.347.791l.566.34h-.66c-1.154-.0001-2.036.247-2.929.498-.904.254-1.819.511-3.036.528.256.146.492.312.704.5.43.381.76.849.947 1.427l.158.487-.43-.277c-.348-.224-.697-.412-1.044-.551-.344-.138-.686-.23-1.026-.265-.401-.041-.798.021-1.195.084-.472.074-.945.148-1.455.066-.37-.059-.698-.176-.998-.342-.298-.165-.566-.377-.819-.629l.257-.259c.229.228.471.42.737.567.265.147.554.25.879.302.455.073.899.003 1.342-.066.422-.066.842-.132 1.288-.086.374.038.75.139 1.124.289.206.083.411.18.615.291-.163-.291-.374-.545-.623-.765-.389-.343-.872-.609-1.412-.815l-1.191-.453 1.269.1c1.628.128 2.725-.18 3.808-.484.731-.205 1.455-.409 2.331-.482-.491-.214-1.024-.358-1.602-.43-.83-.103-1.751-.057-2.769.146l-.338.067.135-.318c.211-.497.544-.991 1.037-1.414.096-.082.197-.161.303-.236-.304-.054-.616-.028-.935.062-.465.131-.944.396-1.433.745l-.633.452.367-.686c.128-.24.248-.478.332-.713.033-.09.06-.18.081-.27-.212.152-.418.278-.621.384-.313.163-.614.276-.905.353-.323.086-.647.117-.971.148-.336.032-.672.064-.996.162-.362.109-.694.277-.975.515-.055.047-.107.095-.157.146-.05.051-.099.106-.145.162l-.283-.23m-5.873 30.769c.392.466.67 1.01.894 1.621.219.598.387 1.263.564 1.984v.002c.046.19.099.375.158.552.059.176.124.349.197.515.303.698.712 1.261 1.195 1.56-.026-.444.043-.888.205-1.331l.077-.209.19.116c.58.355.96.739 1.194 1.145.183.317.276.645.304.98.107-.109.214-.289.32-.516.192-.41.369-.965.542-1.557l.27-.923.086.959v.002c.014.155.034.311.061.466.026.151.057.297.094.435.141.531.36.967.648 1.239.025-.331.151-.661.299-1.049.326-.858.77-2.024.378-4.101l-.203-1.08.541.956c.214.378.436.738.687 1.024.155.175.321.324.505.433-.007-.028-.014-.057-.021-.085-.038-.159-.071-.314-.098-.467-.142-.806-.159-1.657-.045-2.525v-.002c.033-.25.044-.496.037-.738-.007-.242-.033-.479-.075-.711-.218-1.196-.873-2.245-1.645-3l.256-.26c.82.805 1.516 1.922 1.748 3.2.045.249.073.505.081.765.007.261-.005.526-.04.795v.002c-.109.829-.092 1.642.044 2.414.027.154.058.303.092.444.035.145.075.29.119.433v.002l.102.325-.326-.095c-.397-.116-.722-.363-1.01-.686-.094-.107-.184-.222-.27-.343.158 1.65-.226 2.66-.52 3.432-.186.489-.332.875-.259 1.248l.071.364-.332-.166c-.529-.265-.91-.882-1.121-1.673-.015-.057-.03-.115-.043-.174-.105.316-.213.606-.328.852-.223.477-.48.796-.798.84l-.211.029.004-.213c.008-.377-.064-.742-.265-1.09-.178-.308-.458-.606-.873-.89-.122.424-.148.847-.078 1.269l.052.315-.297-.114c-.706-.27-1.285-.981-1.683-1.898-.075-.173-.145-.356-.208-.547-.063-.189-.118-.383-.167-.579v-.002c-.173-.707-.338-1.359-.553-1.945-.21-.574-.468-1.081-.83-1.51l.278-.236m-44.06 13.439c.323.587.206 1.315.067 2.176-.172 1.065-.378 2.346.234 3.747.012-.044.025-.088.038-.132.161-.533.395-1.014.668-1.409l.231-.333.096.395c.069.285.156.538.269.748.081.15.175.276.288.375.059-.06.117-.125.172-.194.088-.109.168-.228.242-.354.39-.664.605-1.557.646-2.519l.059-1.388.301 1.356c.071.322.143.622.245.893.051.135.11.262.181.382.091-.36.228-.724.37-1.101.444-1.182.935-2.486.053-4l.315-.183c.968 1.664.446 3.054-.028 4.313-.188.5-.368.978-.432 1.432v.0001l-.054.378-.26-.279c-.223-.239-.373-.512-.487-.813l-.002-.006c-.112.646-.31 1.236-.593 1.719-.084.143-.174.276-.272.398-.098.123-.205.236-.32.338l-.003.002-.104.093-.116-.076c-.217-.142-.387-.344-.522-.594-.071-.132-.132-.277-.186-.434-.162.29-.302.615-.407.965-.029.095-.055.194-.079.295-.024.102-.045.203-.062.304v.0001l-.087.509-.252-.45c-.693-1.24-.745-2.386-.645-3.397-.822-.709-1.091-1.766-.964-2.793.025-.202.066-.404.121-.604.055-.199.124-.393.206-.579l.002-.004.334.147-.002.004c-.076.172-.139.349-.189.528-.05.179-.087.364-.11.551-.102.831.082 1.681.656 2.295.028-.202.06-.397.09-.586.128-.794.236-1.464-.027-1.943l.32-.176m13.415.048c.396.54.374 1.277.348 2.149-.033 1.078-.072 2.376.716 3.685.006-.047.014-.094.021-.14.09-.548.26-1.054.48-1.48l.186-.36.146.378c.106.275.224.515.363.707.099.138.21.251.334.335.051-.067.099-.138.145-.213.072-.119.137-.247.195-.382.301-.709.399-1.623.315-2.583l-.121-1.386.474 1.308c.113.311.223.601.358.854.068.127.143.246.229.356.044-.37.133-.749.224-1.14.288-1.23.606-2.587-.464-3.974l.288-.223c1.175 1.525.837 2.971.531 4.28-.12.515-.236 1.01-.244 1.459v.019l-.006.38-.292-.241c-.252-.208-.436-.459-.588-.743l-.003-.005c-.028.655-.148 1.267-.367 1.784-.064.151-.137.295-.219.43-.082.135-.173.261-.273.376l-.0001.0001-.092.106-.125-.061c-.233-.113-.428-.291-.594-.522-.088-.122-.168-.258-.241-.407-.123.307-.219.647-.278 1.01-.016.1-.03.201-.041.303-.011.103-.018.207-.023.31v.005l-.021.515-.307-.413c-.848-1.139-1.047-2.269-1.079-3.284-.907-.597-1.31-1.612-1.316-2.648-.0001-.207.013-.412.042-.614.029-.202.072-.403.13-.599v-.0001l.056.017.294.084-.0001.002c-.052.178-.092.362-.119.549-.027.188-.04.376-.039.561.005.838.298 1.658.948 2.193.002-.204.008-.402.014-.593.024-.804.045-1.483-.278-1.923l.294-.216m19.797-16.469c.326 1.01.294 1.907-.096 2.688l-.325-.163c.345-.692.37-1.497.074-2.413l.347-.112m-2.555-.957c.734 1.56.647 3.119-.262 4.677l-.314-.185c.844-1.446.927-2.892.247-4.336l.33-.156m-2.708-2.277c.506 1.473.755 2.902.688 4.277-.067 1.38-.452 2.702-1.215 3.955l-.311-.19c.73-1.199 1.098-2.463 1.162-3.782.064-1.325-.178-2.709-.67-4.141l.346-.119"/><path d="m15.86 19.79c.529-.959 1.293-1.535 2.074-1.747.318-.086.639-.112.949-.078.312.034.612.127.886.279.55.305.995.843 1.215 1.604.138.111.213.219.244.317.027.087.022.168-.006.239-.028.071-.078.127-.142.168-.06.039-.134.062-.213.068-.451.552-.931.889-1.408 1.065-.496.182-.987.191-1.442.084-.45-.106-.864-.324-1.21-.598-.459-.362-.803-.824-.959-1.251l-.029-.078.04-.073m13.08-1.747c.782.212 1.546.788 2.074 1.747l.04.073-.029.078c-.156.426-.5.888-.959 1.251-.346.273-.76.492-1.21.598-.455.107-.946.099-1.442-.084-.478-.176-.957-.513-1.408-1.065-.078-.006-.152-.03-.213-.068-.064-.041-.114-.097-.142-.168-.029-.071-.034-.152-.006-.239.031-.098.106-.207.244-.317.22-.761.664-1.299 1.215-1.604.274-.152.574-.245.886-.279.31-.033.632-.008.949.078"/><path d="m29.688 18.803c-.27-.193-.555-.328-.842-.406-.275-.074-.551-.097-.816-.068-.264.028-.518.107-.749.236-.131.072-.255.161-.369.265-.003.001-.007.019-.001.029-.006.019-.013.042-.02.07-.032.12-.049.247-.049.379-.0001.407.164.776.431 1.043.267.267.635.432 1.041.433.407 0 .775-.166 1.041-.433.267-.267.432-.636.432-1.042v-.002c.0001-.096-.009-.191-.027-.285-.004-.019-.007-.034-.009-.045-.014-.06-.031-.118-.051-.174m-11.659-.405c-.287.078-.572.213-.842.406-.021.056-.038.115-.052.174-.002.001-.006.026-.009.045-.018.094-.028.189-.028.285v.002c-.0001.407.164.775.431 1.043.267.267.635.433 1.041.433.407 0 .775-.165 1.041-.432.266-.268.432-.636.432-1.043-.0001-.132-.018-.259-.049-.379-.007-.028-.014-.051-.02-.07-.003-.009-.006-.019-.009-.029-.115-.104-.239-.193-.37-.265-.232-.128-.486-.207-.749-.236-.265-.029-.542-.006-.816.068" fill="#df1e20"/><path d="m30.653 19.892c-.154-.266-.328-.498-.515-.696.002.036.003.073.003.11v.002c-.0001.509-.206.969-.538 1.302-.332.333-.791.539-1.299.539-.508 0-.967-.206-1.299-.538-.314-.315-.515-.742-.536-1.217-.101.181-.183.385-.244.611l-.017.062-.053.038c-.095.069-.143.123-.159.164.018.009.044.012.072.008l.104-.015.065.082c.422.537.866.858 1.304 1.019.423.156.844.163 1.234.071.395-.093.76-.286 1.067-.529.377-.298.665-.667.811-1.012m-13.916-.697c-.187.198-.361.43-.515.696.146.345.434.714.811 1.012.307.243.672.436 1.067.529.39.092.81.085 1.234-.071.438-.161.882-.482 1.304-1.019l.065-.082.104.015c.028.004.054.0001.072-.008-.016-.041-.064-.095-.159-.164l-.053-.038-.017-.062c-.061-.226-.144-.43-.244-.611-.021.475-.222.903-.536 1.217-.333.332-.792.538-1.299.538-.509 0-.968-.206-1.3-.539-.332-.333-.537-.792-.537-1.301v-.002c.0001-.037.002-.074.004-.11" fill="#fff"/></g><g transform="matrix(.73096 0 0 .73236-34.01-57.45)"><ellipse ry="1.455" rx="1.455" cy="104.8" cx="71.929"/><ellipse ry=".356" rx=".356" cy="104.21" cx="71.51" fill="#fff"/><ellipse ry="1.455" rx="1.455" cy="104.8" cx="85.25"/><ellipse ry=".356" rx=".356" cy="104.21" cx="85.66" fill="#fff"/></g></svg>