<svg xmlns="http://www.w3.org/2000/svg" width="300" height="360" viewBox="0 0 84.666667 101.6" fill-rule="evenodd"><path d="m62.58 48.55c.828 0 1.5.672 1.5 1.5v1.5c0 .828-.672 1.5-1.5 1.5h-1.5v-4.5h1.5m0 6c1.657 0 3-1.343 3-3v-1.5c0-1.657-1.343-3-3-3h-3v7.5h3m-6-7.5h1.5v7.5h-1.5v-7.5m-3 0h1.5v7.5h-1.5l-3-4.709v4.709h-1.5v-7.5h1.5l3 4.709v-4.709m-22.5 0h4.5v1.5h-3v1.5h3v1.5h-3v1.5h3v1.5h-4.5v-7.5m-6 0h1.5v6h3v1.5h-4.5v-7.5m15.75 6h1.5c1.242 0 2.25-1.01 2.25-2.25 0-1.242-1.027-2.245-2.25-2.25h-1.5v1.5h1.5c.414 0 .75.336.75.75 0 .414-.336.75-.75.75h-1.5v1.5m1.5-7.5c2.899 0 5.25 2.351 5.25 5.25 0 2.899-2.351 5.25-5.25 5.25-2.899 0-5.25-2.351-5.25-5.25 0-2.899 2.351-5.25 5.25-5.25m0 1.5c2.071 0 3.75 1.68 3.75 3.75 0 2.071-1.68 3.75-3.75 3.75-2.071 0-3.75-1.679-3.75-3.75 0-2.07 1.679-3.75 3.75-3.75" fill="#a90000"/><path d="m0 66.755c.099.85.226 1.692.384 2.524 3.482 18.358 20.941 32.32 41.949 32.32 21.01 0 38.466-13.962 41.949-32.32.158-.833.285-1.675.385-2.526v-66.755h-84.67v66.755"/><path transform="matrix(1.80013 0 0 1.80257-146.68-216.88)" fill="#fff" d="m95.02 133.79h6.52v-3.99h6.92v3.99h6.52v-3.99h6.92v3.99h6.35v-13.21h-46.5v13.22h6.35v-4h6.92z"/><path d="m81.61 76.47c1.302-3.08 2.184-6.351 2.585-9.754v-28.745-13.267-.055h-11.803v-7.209h-11.736v7.21h-12.455v-7.21h-11.736v7.21h-12.455v-7.21h-11.736v7.21h-11.803v.052 13.269 28.744c.4 3.404 1.283 6.675 2.585 9.755 6.099 14.423 21.386 24.653 39.28 24.653 17.891 0 33.18-10.23 39.28-24.654" fill="#3c82c2"/><g transform="matrix(1.80013 0 0 1.80257-146.68-216.88)"><circle r="4.02" cy="151.7" cx="121.38"/><circle r="3.82" cy="151.7" cx="121.38" fill="#f8e73d"/><circle r="4.02" cy="142.97" cx="105"/><circle r="4.02" cy="151.7" cx="88.62"/><g fill="#f8e73d"><circle r="3.82" cy="151.7" cx="88.62"/><circle r="3.82" cy="142.97" cx="105"/></g></g><g fill-rule="nonzero"><path d="m72.21 84.37c-.419-.385-.834-.798-1.226-1.216.298-.362.577-.73.834-1.096l.004-.009.002-.004-1.77-1.231c-.164.233-.337.468-.519.7-3.31-3.73-7.114-7.105-11.164-9.91 1.27-1.923 2.45-3.904 3.533-5.925l.0001-.002.003-.006-1.893-1.024-.0001.002-.004.009c-1.07 1.998-2.241 3.945-3.501 5.834-16.946-11.342-31.938-24.81-42.725-42.17-1.978 1.683-1.406 4.312-.147 6.165 10.745 15.834 24.873 28.3 40.804 38.952-1.318 1.786-2.712 3.513-4.17 5.176 3.677 2.76 7.67 7.186 12.153 8.392 1.979.532 3.841.0001 5.465-1.035.273.443.537.898.792 1.368l3.526-2.968m-15.958-9.716c4.1 2.81 7.637 5.672 10.43 9.514-1.113.666-2.369 1-3.74.719-3.448-.718-6.979-3.848-9.874-6.195 1.104-1.304 2.166-2.653 3.183-4.04"/><path d="m71.67 84.35l-2.882 2.427c-.189-.338-.388-.671-.591-1l-.009-.014c.949-.649 1.811-1.466 2.562-2.338.298.317.604.627.919.926m-16.202-11.717l-3.491-2.451.6-.854 3.491 2.452c1.368-1.976 2.641-4.02 3.802-6.114v-.0001c.108-.195.205-.374.293-.534l1.257.68-.009.016.004.002c-2.435 4.492-5.322 8.727-8.618 12.625l-.243.278c3.439 2.632 6.217 5.534 10.09 6.452 3.211.757 5.78-1.503 7.5-3.875l1.181.821c-2.023 2.763-5.277 5.562-9.02 4.461-4.515-1.33-7.864-5.231-11.502-8.04 1.646-1.894 3.21-3.871 4.672-5.922m2.707-.733c4.071 2.82 7.805 6.142 11.09 9.848l.044.049c-.673.826-1.452 1.597-2.325 2.172l-.014-.019c-2.828-3.89-6.572-6.896-10.508-9.593.586-.807 1.156-1.627 1.71-2.457" fill="#f8e73d"/><path d="m54.657 73.15l-.014-.009c-7.949-5.316-15.449-11.08-22.302-17.498-6.849-6.41-13.05-13.465-18.405-21.356-1.074-1.582-1.643-3.88-.222-5.4 5.362 8.555 11.744 16.16 18.876 23.04 7.23 6.969 15.231 13.185 23.722 18.868-.109.162-.22.325-.334.491l-3.488-2.45-1.013 1.442 3.488 2.45c-.102.142-.204.284-.307.425" fill="#fff"/><path d="m12.457 84.37c.419-.385.834-.798 1.226-1.216-.298-.362-.577-.73-.834-1.096l-.004-.009-.002-.004 1.77-1.231c.164.233.337.468.519.7 3.31-3.73 7.114-7.105 11.164-9.91-1.27-1.923-2.45-3.904-3.533-5.925l-.0001-.002-.003-.006 1.893-1.024.0001.002.004.009c1.07 1.998 2.241 3.945 3.501 5.834 16.946-11.342 31.938-24.81 42.725-42.17 1.978 1.683 1.406 4.312.147 6.165-10.745 15.834-24.873 28.3-40.804 38.952 1.318 1.786 2.712 3.513 4.17 5.176-3.677 2.76-7.67 7.186-12.153 8.392-1.979.532-3.841.0001-5.465-1.035-.273.443-.537.898-.792 1.368l-3.526-2.968m15.959-9.716c-4.1 2.81-7.637 5.672-10.43 9.514 1.113.666 2.369 1 3.74.719 3.448-.718 6.979-3.848 9.874-6.195-1.104-1.304-2.166-2.653-3.183-4.04"/><path d="m12.998 84.35l2.882 2.427c.189-.338.388-.671.591-1l.009-.014c-.949-.649-1.811-1.466-2.562-2.338-.298.317-.604.627-.919.926m16.203-11.717l3.491-2.451-.6-.854-3.491 2.452c-1.368-1.976-2.641-4.02-3.802-6.114v-.0001c-.108-.195-.205-.374-.293-.534l-1.257.68.009.016-.004.002c2.435 4.492 5.322 8.727 8.618 12.625l.243.278c-3.439 2.632-6.217 5.534-10.09 6.452-3.211.757-5.78-1.503-7.5-3.875l-1.181.821c2.023 2.763 5.277 5.562 9.02 4.461 4.515-1.33 7.864-5.231 11.502-8.04-1.646-1.894-3.21-3.871-4.672-5.922m-2.707-.733c-4.071 2.82-7.805 6.142-11.09 9.848l-.044.049c.673.826 1.452 1.597 2.325 2.172l.014-.019c2.828-3.89 6.572-6.896 10.508-9.593-.586-.807-1.156-1.627-1.71-2.457" fill="#f8e73d"/><path d="m30.01 73.15l.014-.009c7.949-5.316 15.449-11.08 22.302-17.498 6.849-6.41 13.05-13.465 18.405-21.356 1.074-1.582 1.643-3.88.222-5.4-5.362 8.555-11.744 16.16-18.876 23.04-7.23 6.969-15.231 13.185-23.722 18.868.109.162.22.325.334.491l3.488-2.45 1.013 1.442-3.488 2.45c.102.142.204.284.307.425" fill="#fff"/></g></svg>