<svg xmlns="http://www.w3.org/2000/svg" width="300" height="360" viewBox="0 0 84.666667 101.6" fill-rule="evenodd"><path d="m62.58 34.1c.828 0 1.5.672 1.5 1.5v1.5c0 .828-.672 1.5-1.5 1.5h-1.5v-4.5h1.5m0 6c1.657 0 3-1.343 3-3v-1.5c0-1.657-1.343-3-3-3h-3v7.5h3m-6-7.5h1.5v7.5h-1.5v-7.5m-3 0h1.5v7.5h-1.5l-3-4.709v4.709h-1.5v-7.5h1.5l3 4.709v-4.709m-22.5 0h4.5v1.5h-3v1.5h3v1.5h-3v1.5h3v1.5h-4.5v-7.5m-6 0h1.5v6h3v1.5h-4.5v-7.5m15.75 6h1.5c1.242 0 2.25-1.01 2.25-2.25 0-1.242-1.027-2.245-2.25-2.25h-1.5v1.5h1.5c.414 0 .75.336.75.75 0 .414-.336.75-.75.75h-1.5v1.5m1.5-7.5c2.899 0 5.25 2.351 5.25 5.25 0 2.899-2.351 5.25-5.25 5.25-2.899 0-5.25-2.351-5.25-5.25 0-2.899 2.351-5.25 5.25-5.25m0 1.5c2.071 0 3.75 1.68 3.75 3.75 0 2.071-1.68 3.75-3.75 3.75-2.071 0-3.75-1.679-3.75-3.75 0-2.07 1.679-3.75 3.75-3.75" fill="#a90000"/><path d="m42.24 101.6c-2.806-5.233-8.329-8.792-14.684-8.792h-18.477c-5.01 0-9.07-4.061-9.07-9.07v-83.74h84.67v83.74c0 5.01-4.064 9.07-9.07 9.07h-18.477c-6.355 0-11.878 3.56-14.684 8.792h-.197"/><g fill-rule="nonzero"><path d="m31.994 65.29c.238-.133.46-.292.666-.473.846-.747 1.404-1.884 1.621-3.274.213-1.36.101-2.967-.384-4.687-.655-2.321-1.993-4.858-4.137-7.283-1.373-1.553-3.141-2.791-5.04-3.822-1.884-1.022-3.906-1.841-5.802-2.561-.79-.3-1.575-.633-2.365-.967-1.734-.734-3.49-1.479-5.255-1.877h-.0001c-2.681-.605-5.325-1.524-7.49-2.942-1.27-.832-2.374-1.838-3.223-3.055v-2.578c1.595 2.01 3.582 3.58 5.883 4.867 2.884 1.613 6.258 2.785 9.971 3.848h.002c.788.226 1.573.483 2.348.77.78.288 1.546.604 2.291.944 3.855 1.758 7.308 4.214 9.568 7.01l.398-.32c-2.31-2.859-5.83-5.365-9.754-7.154-.767-.35-1.545-.671-2.327-.96-.787-.291-1.584-.553-2.384-.782h-.002c-3.679-1.054-7.02-2.213-9.861-3.803-2.443-1.366-4.52-3.052-6.133-5.266v-10.558c2.228 2.532 5.788 4.177 9.602 5.213v-.0001h.0001v.0001c.376.102.762.226 1.152.37.394.145.795.31 1.197.492 2.062.935 4.136 2.315 5.422 3.735l.007.007c.882.975 3.085 2.521 5.474 4.197 1.819 1.277 3.748 2.63 5.259 3.845 4.192 3.371 7.229 6.768 9.04 10.618 1.806 3.842 2.397 8.15 1.701 13.351-.359 2.683-1.425 4.659-2.775 5.963-.777.75-1.647 1.279-2.529 1.591-.876.31-1.763.408-2.579.299-.513-.068-.998-.219-1.435-.449.141-.167.277-.341.405-.521.044.015.087.03.131.044 1.167.374 2.504.383 3.781-.13 1.27-.51 2.479-1.534 3.4-3.225.316-.581.599-1.24.837-1.984l-.486-.156c-.229.713-.498 1.344-.799 1.896-.858 1.576-1.974 2.527-3.142 2.995-1.158.465-2.369.458-3.429.12.116-.186.224-.376.325-.57.202.026.401.043.594.051 1.432.064 2.634-.329 3.582-1.162.937-.823 1.616-2.075 2.02-3.737.214-.889.348-1.896.398-3.02.536-11.966-5.754-16.94-11.969-21.854l-.422-.334c-1.113-.881-2.267-1.676-3.42-2.471-1.333-.919-2.665-1.836-3.904-2.866-.962-.799-1.755-1.57-2.402-2.316-.644-.741-1.142-1.456-1.52-2.146l-.448.244c.396.723.915 1.467 1.582 2.236.664.764 1.476 1.555 2.462 2.374 1.262 1.048 2.6 1.971 3.94 2.894 1.15.793 2.302 1.586 3.394 2.451l.422.334c6.113 4.833 12.299 9.726 11.775 21.433-.049 1.091-.178 2.067-.384 2.923-.374 1.555-1 2.717-1.858 3.471-.846.744-1.928 1.094-3.222 1.036-.126-.006-.253-.015-.383-.028.123-.278.23-.562.32-.849 1.01-.086 1.888-.65 2.574-1.4.796-.871 1.335-2 1.517-2.919.025-.126.044-.254.055-.381.519-5.553-.867-10.235-3.832-14.307-2.953-4.056-7.47-7.5-13.228-10.595-2.01-1.078-4.01-1.906-6.06-2.752-.609-.252-1.221-.505-1.821-.759-1.914-.811-3.624-1.717-5.02-2.757-1.383-1.029-2.458-2.19-3.116-3.52l-.458.226c.697 1.407 1.824 2.628 3.27 3.704 1.431 1.065 3.177 1.991 5.128 2.817.625.265 1.227.514 1.825.761 2.032.84 4.02 1.662 6.01 2.73 5.693 3.06 10.153 6.456 13.06 10.445 2.892 3.973 4.244 8.541 3.738 13.962-.009.1-.026.21-.049.329-.166.839-.661 1.874-1.392 2.673-.562.614-1.261 1.086-2.051 1.212.072-.304.124-.609.155-.914m52.09-34.36c-1.613 2.214-3.69 3.899-6.133 5.266-2.842 1.59-6.182 2.749-9.861 3.803h-.0001c-.8.229-1.596.49-2.384.782-.782.289-1.56.61-2.327.96-3.924 1.789-7.444 4.295-9.754 7.154l.398.32c2.26-2.797 5.713-5.253 9.568-7.01.746-.34 1.511-.655 2.291-.944.775-.286 1.559-.544 2.348-.77h.0001c3.713-1.063 7.087-2.235 9.971-3.848 2.301-1.287 4.288-2.854 5.883-4.867v2.578c-.848 1.217-1.953 2.223-3.223 3.055-2.165 1.419-4.809 2.337-7.489 2.942h-.002c-1.765.398-3.522 1.143-5.255 1.877-.79.334-1.574.667-2.365.967-1.896.72-3.917 1.539-5.802 2.56-1.902 1.031-3.67 2.269-5.04 3.822-2.144 2.424-3.482 4.962-4.137 7.283-.486 1.721-.597 3.328-.384 4.687.218 1.39.775 2.527 1.621 3.274.206.182.428.34.666.473.031.305.084.61.155.914-.791-.127-1.489-.599-2.05-1.212-.732-.799-1.227-1.834-1.393-2.673-.024-.119-.04-.229-.049-.329-.506-5.42.846-9.989 3.738-13.962 2.904-3.989 7.363-7.385 13.06-10.445 1.988-1.069 3.977-1.891 6.01-2.73.598-.247 1.2-.496 1.825-.761 1.95-.826 3.696-1.752 5.128-2.817 1.446-1.076 2.573-2.297 3.27-3.704l-.458-.226c-.659 1.33-1.733 2.491-3.116 3.52-1.398 1.04-3.108 1.946-5.02 2.757-.6.254-1.213.507-1.821.759-2.048.846-4.052 1.675-6.06 2.752-5.759 3.095-10.276 6.539-13.228 10.595-2.965 4.072-4.35 8.754-3.832 14.307.012.127.03.255.055.381.182.918.721 2.047 1.517 2.918.686.751 1.564 1.315 2.574 1.401.09.287.197.571.32.849-.13.013-.258.022-.383.028-1.295.058-2.376-.292-3.222-1.036-.858-.754-1.484-1.916-1.858-3.471-.206-.856-.335-1.831-.384-2.923-.524-11.707 5.662-16.6 11.775-21.433l.422-.334c1.092-.865 2.244-1.658 3.394-2.451 1.34-.923 2.678-1.845 3.94-2.894.986-.819 1.798-1.609 2.462-2.374.667-.769 1.187-1.513 1.582-2.236l-.448-.244c-.378.69-.877 1.405-1.52 2.146-.647.746-1.44 1.517-2.402 2.316-1.24 1.03-2.571 1.947-3.904 2.866-1.153.794-2.308 1.59-3.42 2.471l-.422.334c-6.215 4.914-12.504 9.888-11.969 21.854.05 1.123.184 2.13.398 3.02.4 1.663 1.079 2.914 2.02 3.737.948.834 2.15 1.226 3.582 1.162.194-.009.392-.026.594-.051.101.194.209.385.325.57-1.059.338-2.271.345-3.429-.12-1.167-.469-2.284-1.419-3.142-2.995-.301-.553-.57-1.183-.799-1.896l-.486.156c.239.744.521 1.403.837 1.984.921 1.691 2.13 2.715 3.4 3.225 1.277.513 2.613.505 3.781.13.044-.014.088-.029.131-.044.128.18.263.354.405.521-.437.23-.922.38-1.435.449-.816.109-1.703.012-2.579-.299-.882-.312-1.753-.841-2.529-1.591-1.35-1.305-2.416-3.28-2.775-5.963-.696-5.201-.105-9.508 1.701-13.351 1.81-3.85 4.847-7.247 9.04-10.618 1.511-1.215 3.44-2.569 5.259-3.845 2.389-1.677 4.592-3.222 5.474-4.197l.007-.006c1.287-1.42 3.36-2.8 5.422-3.736.401-.182.802-.347 1.197-.492.39-.143.776-.268 1.152-.37v-.0001h.0001v.0001c3.814-1.036 7.374-2.681 9.602-5.213v10.558" fill="#fff"/><path d="m47.16 95.4c.074-.595.133-1.197.173-1.806.109-1.646.08-3.348-.177-5.141-.355-2.486-.13-4.628.493-6.562.625-1.94 1.654-3.68 2.9-5.353 1.169-1.569 1.967-3.184 2.503-4.79.12-.361.228-.721.323-1.08.583-.098 1.133-.29 1.628-.575.295.294.612.56.946.791.151.105.296.165.431.187.349.058.653-.138.802-.449.182-.381.099-.811.21-1.21.179-.639.656-1.095 1.309-1.298.531-.165 1.099-.165 1.626-.096.332.043.639.123.991.056.488-.094.851-.39 1.074-.771 1.182.792 2.604 1.255 4.134 1.255 4.104 0 7.432-3.326 7.432-7.428 0-.16-.006-.319-.016-.476.868-.516 1.845-.722 2.838-.629.045.085.103.161.179.227.52.45 2.175.146 2.622-.367.237-.272.276-.605.239-1.041-.19-2.738-1.398-5.218-3.398-7.03.074-.225.155-.448.244-.667.323-.799.747-1.552 1.322-2.181.621-.679 1.27-1.248 1.904-1.803.93-.814 1.826-1.6 2.57-2.662.668-.953 1.191-2.112 1.621-3.353v42.593h.002c0 4.653-3.84 8.491-8.496 8.491h-18.479c-2.631 0-5.124.589-7.352 1.643-.911.43-1.781.941-2.601 1.523m-46.582-54.25c.43 1.241.953 2.401 1.621 3.354.745 1.062 1.641 1.847 2.57 2.662.634.555 1.283 1.124 1.904 1.803.575.629.999 1.381 1.322 2.181.089.219.17.442.244.667-2 1.813-3.208 4.292-3.398 7.03-.037.436.002.769.239 1.041.447.514 2.102.817 2.622.367.076-.066.135-.142.179-.227.993-.093 1.971.113 2.838.629-.001.158-.016.316-.016.476 0 4.102 3.328 7.428 7.432 7.428 1.53 0 2.952-.463 4.134-1.255.223.381.586.678 1.074.771.352.067.659-.012.991-.056.527-.069 1.096-.069 1.626.096.653.203 1.13.66 1.309 1.298.111.399.028.829.21 1.21.148.31.452.506.802.449.135-.022.279-.082.431-.187.334-.231.651-.497.947-.791.494.285 1.045.477 1.628.575.095.359.202.719.323 1.08.536 1.606 1.334 3.221 2.503 4.79 1.246 1.673 2.275 3.413 2.9 5.353.623 1.934.848 4.075.493 6.562-.256 1.793-.286 3.495-.177 5.141.04.609.1 1.21.174 1.806-.819-.582-1.69-1.093-2.601-1.523-2.229-1.053-4.721-1.643-7.352-1.643h-18.479c-4.656 0-8.496-3.838-8.496-8.491h.002v-42.595" fill="#482b34"/><path d="m38.24 95.94c-.111-.788-.199-1.585-.253-2.395-.106-1.605-.078-3.263.172-5.01.37-2.591.134-4.828-.518-6.852-.65-2.02-1.712-3.817-2.997-5.541-1.125-1.51-1.893-3.064-2.409-4.609-.089-.268-.171-.535-.246-.802.767.03 1.57-.093 2.363-.374.967-.342 1.918-.919 2.764-1.736 1.447-1.398 2.588-3.504 2.969-6.348.713-5.329.103-9.753-1.757-13.71-1.857-3.949-4.953-7.419-9.22-10.85-1.533-1.233-3.467-2.59-5.292-3.871-2.356-1.653-4.528-3.178-5.361-4.094l-.007-.007c-1.347-1.49-3.505-2.93-5.642-3.9-.416-.189-.831-.36-1.24-.51-.413-.152-.817-.282-1.205-.388v.0001h-.0001v-.0001c-3.714-1.01-7.168-2.598-9.298-5.03-.167-.19-.325-.386-.476-.587v-18.755h83.51v18.756c-.15.201-.309.397-.475.587-2.13 2.429-5.583 4.02-9.298 5.03v.0001h-.0001v-.0001c-.389.106-.793.236-1.205.388-.409.15-.824.321-1.24.51-2.137.969-4.295 2.41-5.642 3.9l-.007.006c-.833.917-3.01 2.441-5.361 4.095-1.825 1.281-3.759 2.638-5.292 3.871-4.267 3.431-7.364 6.901-9.22 10.85-1.86 3.957-2.47 8.381-1.757 13.71.38 2.844 1.521 4.95 2.969 6.348.846.817 1.797 1.394 2.764 1.736.792.281 1.596.404 2.363.374-.075.267-.156.535-.246.802-.516 1.545-1.284 3.099-2.409 4.609-1.285 1.724-2.346 3.523-2.997 5.541-.652 2.024-.889 4.261-.518 6.852.249 1.745.278 3.403.172 5.01-.054.81-.142 1.607-.253 2.394-1.628 1.29-3.03 2.872-4.099 4.659-1.073-1.787-2.47-3.369-4.099-4.659m-6.258-31.415c-.008-.024-.016-.048-.025-.07-.136-.327-.464-.48-.806-.442-.42.047-.74.346-1.138.463-.637.187-1.277.025-1.795-.421-.421-.362-.722-.844-.943-1.328-.139-.304-.234-.606-.478-.869-.338-.364-.782-.515-1.224-.502.003-.077.004-.154.004-.232 0-4.101-3.328-7.428-7.432-7.428-1.618 0-3.115.517-4.335 1.394-.898-.462-1.59-1.181-2.037-2.072.048-.083.082-.172.097-.272.106-.679-1.029-1.921-1.701-2.028-.357-.056-.659.087-1.01.349-.129.093-.255.19-.379.288-.054-.153-.112-.306-.173-.457-.35-.867-.813-1.686-1.444-2.377-.639-.7-1.307-1.284-1.957-1.854-.9-.789-1.768-1.549-2.466-2.545-.978-1.395-1.639-3.297-2.154-5.24v-3.463c.808.977 1.78 1.811 2.866 2.523 2.235 1.465 4.953 2.411 7.703 3.03h.0001c1.711.387 3.44 1.119 5.147 1.842.806.341 1.607.681 2.388.977 1.868.71 3.86 1.517 5.72 2.525h.0001c1.843.998 3.55 2.192 4.866 3.68 2.073 2.345 3.366 4.793 3.997 7.03.46 1.631.568 3.143.369 4.412-.194 1.239-.679 2.242-1.41 2.887-.081.071-.165.139-.252.201m52.11-25.642c-.515 1.943-1.176 3.845-2.154 5.24-.698.996-1.566 1.756-2.466 2.545-.651.57-1.318 1.154-1.957 1.854-.631.691-1.094 1.51-1.444 2.377-.061.151-.119.304-.173.457-.124-.098-.25-.194-.379-.288-.351-.262-.654-.405-1.01-.349-.673.107-1.807 1.349-1.701 2.028.016.1.049.189.097.272-.447.891-1.14 1.61-2.037 2.072-1.22-.877-2.717-1.394-4.335-1.394-4.104 0-7.432 3.326-7.432 7.428 0 .078.002.155.004.232-.442-.013-.886.138-1.224.502-.244.263-.339.565-.478.869-.221.483-.522.966-.943 1.328-.518.446-1.159.608-1.795.421-.397-.117-.718-.415-1.138-.463-.342-.039-.669.115-.806.442-.009.022-.018.045-.025.07-.087-.063-.171-.13-.252-.201-.731-.645-1.216-1.648-1.41-2.887-.199-1.269-.091-2.781.369-4.412.631-2.235 1.923-4.683 3.997-7.03 1.316-1.488 3.02-2.681 4.866-3.68h.0001c1.86-1.01 3.852-1.815 5.72-2.525.78-.297 1.582-.636 2.388-.977 1.707-.723 3.435-1.455 5.146-1.841h.002c2.75-.62 5.468-1.566 7.703-3.03 1.086-.712 2.058-1.546 2.866-2.523v3.463" fill="#41a147"/></g><g transform="matrix(.72507 0 0 .72462-33.798-56.806)" fill="#f8e73d"><path d="m71.63 153.21c5.271 0 9.546 4.275 9.546 9.546 0 5.271-4.275 9.546-9.546 9.546-5.271 0-9.546-4.275-9.546-9.546 0-5.271 4.275-9.546 9.546-9.546m6.245 17.673c2.19-1.685 3.68-4.235 3.958-7.139.446-.042.897.083 1.224.435.281.303.401.737.572 1.099.349.739.823 1.46 1.471 2.01.907.773 2.052 1.049 3.157.724.323-.095.651-.24.982-.439.45-.271.868-.289.84.331-.138 2.95-1.875 6.084-4.304 7.764-.511.353-.717-.012-.726-.537-.007-.386-.058-.741-.148-1.065-.31-1.109-1.152-1.934-2.287-2.294-.812-.257-1.674-.277-2.486-.181-.397.047-.829.174-1.235.097-.472-.091-.818-.407-1.018-.808m-15.539-18.779c.636 1.165 1.567 2.121 2.725 2.783-1.912 1.598-3.232 3.879-3.586 6.468-1.174-.631-2.478-.914-3.804-.836.156-3.642 1.658-6.352 4.664-8.414m-2.657-2.671c.338-.253.607-.394.862-.354.522.083 1.818 1.438 1.733 1.986-.034.22-.288.423-.635.67h-.0001c-2.847 1.949-4.505 4.939-4.649 8.386v.0001c-.026.425-.064.748-.232.894-.42.363-2.255-.019-2.602-.417-.169-.195-.192-.498-.156-.918.283-4.125 2.333-7.822 5.681-10.248"/><path d="m138.37 153.21c-5.271 0-9.546 4.275-9.546 9.546 0 5.271 4.275 9.546 9.546 9.546 5.271 0 9.546-4.275 9.546-9.546 0-5.271-4.275-9.546-9.546-9.546m-6.245 17.673c-2.19-1.685-3.68-4.235-3.958-7.139-.446-.042-.897.083-1.224.435-.281.303-.401.737-.572 1.099-.349.739-.823 1.46-1.471 2.01-.907.773-2.052 1.049-3.157.724-.323-.095-.651-.24-.982-.439-.45-.271-.868-.289-.84.331.138 2.95 1.875 6.084 4.304 7.764.511.353.717-.012.726-.537.007-.386.058-.741.148-1.065.31-1.109 1.152-1.934 2.287-2.294.812-.257 1.674-.277 2.486-.181.397.047.829.174 1.235.097.472-.091.818-.407 1.018-.808m15.539-18.779c-.636 1.165-1.567 2.121-2.726 2.783 1.912 1.598 3.232 3.879 3.586 6.468 1.174-.631 2.478-.914 3.804-.836-.156-3.642-1.658-6.352-4.664-8.414m2.657-2.671c-.338-.253-.607-.394-.862-.354-.522.083-1.818 1.438-1.733 1.986.034.22.288.423.635.67h.0001c2.847 1.949 4.505 4.939 4.649 8.386v.0001c.026.425.064.748.232.894.42.363 2.256-.019 2.602-.417.169-.195.192-.498.156-.918-.283-4.125-2.333-7.822-5.681-10.248"/></g></svg>