<svg xmlns="http://www.w3.org/2000/svg" width="300" height="360" viewBox="0 0 84.666667 101.6" fill-rule="evenodd"><path d="m62.58 48.55c.828 0 1.5.672 1.5 1.5v1.5c0 .828-.672 1.5-1.5 1.5h-1.5v-4.5h1.5m0 6c1.657 0 3-1.343 3-3v-1.5c0-1.657-1.343-3-3-3h-3v7.5h3m-6-7.5h1.5v7.5h-1.5v-7.5m-3 0h1.5v7.5h-1.5l-3-4.709v4.709h-1.5v-7.5h1.5l3 4.709v-4.709m-22.5 0h4.5v1.5h-3v1.5h3v1.5h-3v1.5h3v1.5h-4.5v-7.5m-6 0h1.5v6h3v1.5h-4.5v-7.5m15.75 6h1.5c1.242 0 2.25-1.01 2.25-2.25 0-1.242-1.027-2.245-2.25-2.25h-1.5v1.5h1.5c.414 0 .75.336.75.75 0 .414-.336.75-.75.75h-1.5v1.5m1.5-7.5c2.899 0 5.25 2.351 5.25 5.25 0 2.899-2.351 5.25-5.25 5.25-2.899 0-5.25-2.351-5.25-5.25 0-2.899 2.351-5.25 5.25-5.25m0 1.5c2.071 0 3.75 1.68 3.75 3.75 0 2.071-1.68 3.75-3.75 3.75-2.071 0-3.75-1.679-3.75-3.75 0-2.07 1.679-3.75 3.75-3.75" fill="#a90000"/><g fill-rule="nonzero"><path d="m.0001 0v51.11c-.0001 23.09 20.448 43.716 42.33 50.49 21.885-6.775 42.33-27.404 42.33-50.49v-51.11h-84.66"/><path d="m.685.687v50.42h.002v.0001h-.002v.228c.022 3.699.58 7.339 1.591 10.87.841 2.936 1.995 5.791 3.415 8.538 7.298 14.12 21.613 25.422 36.643 30.14 2.959-.928 5.892-2.113 8.751-3.526 2.92-1.443 5.766-3.127 8.484-5.02 13.913-9.687 24.374-24.795 24.411-41.14v-.087-50.42h-83.3" fill="#3a88cd"/><path d="m4.565 4.583v46.526h.017v.0001h-.017v.208c.021 3.307.53 6.598 1.454 9.824.773 2.699 1.829 5.315 3.126 7.823 6.639 12.843 19.513 23.2 33.19 27.831 2.368-.802 4.722-1.783 7.03-2.926 2.722-1.345 5.399-2.931 7.982-4.73 12.966-9.03 22.716-22.98 22.752-37.947v-.084-46.526h-75.54"/><path d="m5.248 5.269v6.969h13.6v-6.969h-13.6m14.287 6.969h14.74v-6.969h-14.74v6.969m15.428 0h14.74v-6.969h-14.74v6.969m15.428 0h14.741v-6.969h-14.741v6.969m15.428 0h13.6v-6.969h-13.6v6.969m-60.57.685v6.969h5.886v-6.969h-5.886m6.573 6.969h14.741v-6.969h-14.741v6.969m15.428 0h14.74v-6.969h-14.74v6.969m15.428 0h14.74v-6.969h-14.74v6.969m15.428 0h14.741v-6.969h-14.741v6.969m15.428 0h5.886v-6.969h-5.886v6.969m-68.28.685v6.969h13.6v-6.969h-13.6m14.287 6.969h14.74v-6.969h-14.74v6.969m15.428 0h.755c.242-.432.712-.615 1.467-.615h9.857c.755 0 1.225.183 1.467.615h1.194v-6.969h-14.741v6.969m15.428 0h14.741v-6.969h-14.741v6.969m15.428 0h13.6v-6.969h-13.6v6.969m-60.57.685v6.97h5.886v-6.97h-5.886m6.573 6.97h13.843l.897-1.358v-5.612h-14.741v6.97m23.707-6.97h-8.279v4.572l.869-1.316c.889-1.345 2.846-1.269 3.866-.129l.974 1.088c.287-1.044 1.54-1.982 2.631-1.878-.048-.192-.073-.393-.073-.591h-.0001v-.0001-1.427c0-.113.004-.219.014-.318m21.889 5.237v-5.237h-8.719c.009.1.014.206.014.318v1.427.0001h-.0001c0 .198-.025.398-.073.591 1.091-.103 2.344.834 2.631 1.878l.974-1.088c1.02-1.14 2.977-1.216 3.866.129l1.309 1.981m1.145 1.733h14.283v-6.97h-14.741v6.278l.457.692m14.97 0h5.886v-6.97h-5.886v6.97m-68.28.685v6.969h13.6v-6.969h-13.6m14.287 6.969h6.642c-.218-.845-.171-1.847.298-2.457l-.536-.157c-1.365-.399-2.091-2.29-1.299-3.49l.572-.866h-5.677v6.969m38.515 0h7.081v-6.969h-6.117l.572.866c.792 1.199.066 3.091-1.299 3.49l-.536.157c.47.61.516 1.612.298 2.457m7.769 0h13.6v-6.969h-13.6v6.969m-60.57.685v6.969h5.886v-6.969h-5.886m6.573 6.969h14.741v-.319c-.917-.132-1.52-.953-1.791-1.971-.215-.809-.225-1.711-.007-2.521.263-.977.853-1.751 1.798-1.872v-.057c-.046-.072-.09-.148-.131-.229h-14.609v6.969m15.428 0h.621c.046-.106.096-.207.151-.301h-.772v.301m29.11 0h1.06v-.301h-.016-1.196c.055.094.105.194.151.301m1.748 0h14.741v-6.969h-14.741v.397c.691.271 1.139.945 1.358 1.76.218.81.208 1.712-.007 2.521-.225.845-.679 1.554-1.351 1.846v.444m15.428 0h5.886v-6.969h-5.886v6.969m-68.28.685v.122c.014 2.292.27 4.58.74 6.846h12.86v-6.969h-13.6m14.287 6.969h7.535c-.02-.588.015-1.18.109-1.752.149-.909.459-1.671.944-2.026-.602-.771-.718-2.108-.473-3.191h-8.115v6.969m37.621 0h7.975v-6.969h-8.555c.245 1.083.13 2.42-.472 3.191.485.355.795 1.117.944 2.026.094.572.129 1.164.108 1.752m8.663 0h12.873c.469-2.287.721-4.615.727-6.968v-.0001h-13.6v6.969m-59.682.685c.16.706.341 1.409.542 2.11.474 1.654 1.055 3.275 1.734 4.859h2.722v-6.969h-4.997m5.685 6.969h14.741v-6.969h-14.741v6.969m15.428 0h.763c-.089-.221-.16-.468-.212-.73-.146-.739-.154-1.536-.016-2.278.093-.498.256-.94.494-1.254-.496-.284-.84-.998-1.029-1.881v6.143m28.965 0h1.204v-6.969h-.31c-.017.161-.039.322-.065.481-.169 1.04-.535 1.906-1.094 2.226.238.314.402.756.494 1.254.137.741.13 1.538-.016 2.278-.052.262-.123.509-.212.73m1.891 0h14.741v-6.969h-14.741v6.969m15.428 0h2.735c.974-2.265 1.742-4.594 2.276-6.969h-5.01v6.969m-64.82.685c.327.726.674 1.445 1.04 2.154.852 1.649 1.81 3.256 2.858 4.815h6.236v-6.969h-10.135m10.822 6.969h14.74v-6.634h-5.101c-.289 0-.536-.123-.74-.334h-8.899v6.969m15.428 0h14.74v-6.645c-.167-.034-.306-.149-.419-.323h-14.321v6.969m15.428 0h14.741v-6.969h-9.339c-.205.211-.451.334-.74.334h-4.661v6.634m15.428 0h6.241c1.508-2.234 2.823-4.564 3.907-6.969h-10.148v6.969m-52.739.685c1.712 2.458 3.652 4.79 5.774 6.969h7.707v-6.969h-13.482m14.169 6.969h14.74v-6.969h-14.74v6.969m15.428 0h14.741v-6.969h-14.74v6.969m15.428 0h7.685c2.134-2.182 4.084-4.515 5.799-6.969h-13.484v6.969m-38.57.686c2.58 2.562 5.412 4.9 8.415 6.967h6.326v-6.969h-14.74v.0001m15.428 6.968h14.74v-6.969h-14.74v6.969m15.428 0h6.283c.095-.065.189-.131.284-.196 2.905-2.023 5.647-4.296 8.15-6.772h-14.717v6.969m-21.426.685c4.112 2.712 8.52 4.917 13.02 6.495v-6.495h-13.02m13.712 6.495c2.148-.755 4.285-1.658 6.387-2.697 2.235-1.104 4.442-2.376 6.595-3.798h-12.982v6.495m6.343-30.14h-13.813c.043-.185.075-.388.097-.605.074-.716.061-1.452-.012-2.168-.06-.586-.176-1.115-.347-1.481.269-.35.388-2.01.388-3.637h-.0001c0-.838-.027-1.669-.077-2.302-.045-.571-.125-1.021-.242-1.248.574-1.038.707-3.501.116-4.459.237-.478.325-1.482.342-2.569.02-1.348-.03-2.831-.051-3.413v-.009c.005-3.699 3.03-6.685 6.693-6.685 3.666 0 6.688 2.986 6.693 6.685v.008c-.021.583-.072 2.066-.051 3.414.016 1.087.104 2.092.342 2.569-.591.958-.458 3.421.116 4.459-.117.227-.196.677-.242 1.248-.05.634-.077 1.464-.077 2.302h-.0001c0 1.629.119 3.287.388 3.637-.17.366-.287.895-.347 1.481-.073.716-.085 1.451-.012 2.168.022.216.055.419.097.605" fill="#3a88cd"/><path d="m28.769 61.06h5.44c.258 0 .299.062.35-.236.1-.58.146-1.733.146-2.896h.0001c0-.807-.027-1.619-.077-2.253-.044-.55.067-.874-.625-.874l-5.243.0001c-.483.009-.804.752-.961 1.712-.146.889-.139 1.827.005 2.716.166 1.023.498 1.829.964 1.829v.0001m5.399.628h-4.989v.007c-.389.006-.648.54-.776 1.229-.124.666-.115 1.379.016 2.044.138.699.399 1.242.756 1.242h5.24c.111 0 .202-.454.265-1.06.07-.675.057-1.367-.012-2.042-.051-.502-.114-.944-.179-1.2-.063-.247-.087-.22-.321-.22m.191-11.477h-5.514c-.855.477-.822 2.957-.245 3.764.116.158.219.199.4.199.008-.002.016-.003.023-.006l.002.006h5.239c.688 0 .994-3.962.096-3.962m-.208-5.77h-6.443v.008c-.069.003-.136.0001-.201-.008h-.682v-.0001c-.758 0-1.238.621-1.453 1.423-.19.708-.181 1.492.007 2.199.226.849.718 1.519 1.446 1.519h7.192c.747 0 .702-.244.777-.991.119-1.192.068-2.38-.012-3.628-.025-.388-.286-.52-.63-.52m.643-.63c.005-.324.032-.643.078-.955l-7.665-2.24c-.921.319-.528 3.01.348 3.195h7.239m3.092-5.853c.556-.394 1.169-.712 1.825-.939l-3.745-5.642c-.853-.695-2.914.811-2.334 1.828l4.253 4.753m-.497.385l-4.01-4.478-.007.008c-.112-.102-.202-.209-.273-.321l-1.586-1.772c-.748-.836-2.212-.944-2.874.058l-3.479 5.265c-.559.847-.012 2.258.95 2.539l1.118.327c.012-.0001.024-.002.036-.003l.0001.014 7.722 2.257c.36-1.515 1.211-2.891 2.398-3.894m18.07 22.718h-5.44c-.258 0-.299.062-.35-.236-.1-.58-.146-1.733-.146-2.896h-.0001c0-.807.027-1.619.077-2.253.044-.55-.067-.874.625-.874l5.243.0001c.483.009.804.752.961 1.712.146.889.139 1.827-.005 2.716-.166 1.023-.498 1.829-.964 1.829v.0001m-5.399.628h4.989v.007c.389.006.648.54.776 1.229.124.666.115 1.379-.016 2.044-.138.699-.399 1.242-.756 1.242h-5.24c-.111 0-.202-.454-.265-1.06-.07-.675-.057-1.367.012-2.042.051-.502.114-.944.179-1.2.063-.247.087-.22.321-.22m-.191-11.477h5.514c.855.477.822 2.957.245 3.764-.116.158-.219.199-.4.199-.008-.002-.016-.003-.023-.006l-.002.006h-5.239c-.688 0-.994-3.962-.096-3.962m.208-5.77h6.443v.008c.069.003.136.0001.201-.008h.682v-.0001c.758 0 1.238.621 1.453 1.423.19.708.181 1.492-.007 2.199-.226.849-.718 1.519-1.446 1.519h-7.192c-.747 0-.702-.244-.777-.991-.119-1.192-.068-2.38.012-3.628.025-.388.286-.52.63-.52m-.643-.63c-.006-.324-.032-.643-.078-.955l7.665-2.24c.921.319.528 3.01-.348 3.195h-7.239m-3.092-5.853c-.556-.394-1.169-.712-1.825-.939l3.745-5.642c.853-.695 2.914.811 2.334 1.828l-4.253 4.753m.497.385l4.01-4.478.007.008c.112-.102.202-.21.273-.321l1.586-1.772c.748-.836 2.212-.944 2.874.058l3.479 5.265c.559.847.012 2.258-.95 2.539l-1.118.327c-.012-.0001-.024-.002-.036-.003l-.0001.014-7.722 2.257c-.36-1.515-1.211-2.891-2.398-3.894m-4.724-1.728c.611 0 1.204.075 1.771.216l3.805-5.732-.02-.017c.161-.193.272-.359.344-.612.046-.162.07-.329.07-.489h-.0001v-.0001-1.427c0-.818-.2-.988-1.04-.988h-9.857c-.84 0-1.04.17-1.04.988v1.427.0001h-.0001c0 .16.024.327.07.489.072.253.184.419.344.612l-.02.017 3.805 5.732c.567-.141 1.16-.216 1.771-.216" fill="#fff"/><path d="m9.173 58.35c.386-1.491 2.209-1.964 3.553-2.01.783-.025 1.568.076 2.326.27.548-.262 1.158-.385 1.765-.336.865.07 1.63.477 2.194 1.09-.002-.05.004-.1.016-.148.078-.332.367-.538.628-.763.604-.522.487-.883-.278-1.054-1.304-.291-2.072-.77-2.448-1.273-.341-.456-.413-1.046-.083-1.53.224-.328.608-.57 1.077-.649.618-.104.7-.32.185-.692-.64-.463-.774-.992-.641-1.476.064-.235.193-.455.357-.647.16-.187.355-.35.555-.474.47-.293.994-.38 1.254-.131.411.393.754.328.966-.204.317-.797 1.1-1.086 1.858-1.053.462.02.952.157 1.326.436.378.283.571.673.407 1.109-.186.495-.269 1.045.409 1.011.999-.049 1.491.647 1.195 1.576-.164.514-.546 1.046-1.024 1.367-.673.451-.538 1.044.312.765 1.602-.525 1.756.701 1.344 1.942-.238.718-.67 1.169-1.258 1.614-.584.442.064.564.483.51 1.206-.156 1.622.117 1.679.563.046.355-.179.782-.387 1.175-.266.504-.765 1.162-.577 1.72.509.029 1.27.061 1.885.075.127.17.271.305.429.396-.238.314-.402.756-.494 1.254-.014.076-.027.153-.038.23-.517-.109-1.127-.218-1.529-.31-.425.173-.825.706-1.036 1.063-.249.421-.386.955-.476 1.556-.068.454-.171.776-.296.996-.225.395-.605.546-1.023.352-.198-.092-.39-.248-.559-.419-.178-.179-.373-.283-.452.015-.115.437.067.947.21 1.356.355 1.012.639 1.825.278 2.56-.24.489-.62.973-1.148 1.165-.586.212-.991-.039-1.28-.518-.077-.128-.154-.256-.281-.334-.161-.099-.258-.089-.267.109-.001.23.092.608.383 1.176.197.384.121.791-.114 1.121-.252.355-.665.596-1.095.655-.477.065-.994-.09-1.386-.602-.252-.329-.371-.043-.604.207-.858.922-1.6.632-2.245.031-.761-.709-2.052-2.262-1.692-3.304.189-.547.673-.934 1.143-1.214.706-.421.73-.443.039-.908-.765-.515-1.01-1.371-.069-1.827.512-.249 1.324-.333 2.242-.122.385.089 1.493.144.697-.458-.357-.27-.753-.748-.325-1.154.293-.278.786-.364 1.172-.411.578-.07 1.248-.05 1.762.055.384.078.802.074 1.089.001.41-.091.02-.338-.025-.667-.049-.361.151-.636.498-.73.2-.055.463-.059.783-.006.352.058.694.074 1.019.027.098-.014.39-.173.485-.198-1.401-.244-2.927-.424-4.338-.578-.137.302-.39.716-.595.979-.897 1.15-2.329 1.733-3.721 1.373h-.0001c-.118-.03-.231-.067-.34-.108-.635-.24-1.183-.678-1.576-1.231-.73-.189-1.438-.468-2.091-.847-1.605-.932-2.528-2.294-2.21-3.524m10.317-.332c.138.238.251.493.337.761.153.481.218 1 .183 1.536.931.148 1.867.287 2.807.408-.156-.132-.281-.267-.374-.408-.194-.297-.246-.612-.141-.976.066-.229.128-.298-.133-.399-.408-.16-.866-.224-1.287-.347-.655-.191-1.1-.384-1.392-.573"/><path d="m17.12 56.724c-.368-.074-.738-.074-1.096-.009l.876 1.024 1.292-.562c-.323-.22-.69-.376-1.073-.452m-1.531.103c-.11.037-.218.08-.324.129.025.475.009.979-.051 1.501l.001.012 1.29-.561-.925-1.08m-.452 2.161c-.023.135-.049.271-.078.406-.085.402-.194.799-.326 1.19l.003.004 1.29-.561-.889-1.038m-.6 2.125c-.196.488-.432.961-.711 1.407.07.095.144.187.224.273l1.489-.648-.915-1.069-.086.037m-.17 1.981c.351.289.768.495 1.211.595.431.098.867.093 1.283.0001l-1.049-1.225-1.445.629m2.917.47c.419-.158.81-.406 1.148-.727l-.943-1.101-1.29.561 1.085 1.268m1.425-1.023c.196-.233.362-.49.497-.763.077-.156.145-.32.202-.49l-.243-.283-1.29.561.834.974m.89-2.163c.044-.489-.006-.967-.136-1.408l-1.101.479.915 1.069.321-.14m-.272-1.788c-.183-.432-.448-.818-.78-1.128l-1.374.598.916 1.069 1.238-.539m-2.113 2.826l-.915-1.069-1.29.561.915 1.069 1.29-.561m-1.718-2.627l.915 1.069 1.29-.561-.916-1.069-1.29.561m1.189 1.389l.916 1.069 1.29-.561-.915-1.069-1.29.561m-7.124-1.729c-.27 1.043.573 2.233 2.02 3.074.594.345 1.239.603 1.901.783.493-.788.846-1.666 1.078-2.564.232-.898.348-1.835.298-2.762-.768-.191-1.597-.285-2.403-.223-1.085.083-2.586.494-2.896 1.693m18.639 3.056c-2.682-.09-5.594-.44-8.224-.796-.036.246-.071.393-.154.621 2.586.358 5.457.695 8 1.263.097-.41.246-.772.449-1.041-.026-.015-.051-.031-.076-.047m-2.068 1.124c-.259-.056-.519-.11-.779-.162-.314.26-.868.72-1.218.993-.052.495-.051 1-.018 1.499l-.373.383c-.049-.513-.066-1.031-.04-1.546-.801.624-1.671 1.312-2.536 2.122-.057 1.025-.068 2.072.205 3.067l-.267.498c-.358-1.015-.403-2.094-.361-3.158-.716.708-1.419 1.506-2.065 2.428.117.972.218 1.954.261 2.934l-.389.372c-.028-.932-.118-1.865-.219-2.791-.373.577-.722 1.2-1.039 1.876l-.213-.485c.496-1 1.06-1.886 1.662-2.676-.645-.164-1.328-.33-1.996-.324l.391-.389c.634.047 1.268.209 1.876.367.477-.594.974-1.134 1.477-1.629-.48-.046-.944-.198-1.389-.379l.448-.26c.433.157.888.27 1.351.246.95-.889 1.905-1.632 2.769-2.304.333-.259.871-.704 1.168-.943l-.047-.009c-.303.176-.842.477-1.176.524-.367.052-.75.036-1.14-.029-.262-.043-.467-.043-.612-.003-.152.041-.226.128-.204.288.033.242.254.42.263.647.006.138-.066.249-.197.333-.088.057-.21.102-.354.134-.336.074-.818.081-1.256-.008-.474-.096-1.09-.116-1.619-.052-.491.059-1.467.242-.667.846 1.164.881-.086 1.391-1.031 1.174-.824-.19-1.539-.121-1.977.092-.647.315-.383.792.118 1.129.948.638.905 1.015-.057 1.589-.404.241-.818.566-.968 1-.293.85.978 2.313 1.585 2.878.485.451 1.04.672 1.675-.011.184-.198.44-.531.749-.514.158.009.301.116.471.337.29.379.666.494 1.012.447.319-.043.633-.225.821-.489.152-.214.204-.47.084-.704-.326-.637-.44-1.085-.427-1.376.022-.51.462-.692.881-.434.211.13.313.3.415.468.191.316.399.492.797.348.424-.153.732-.571.924-.962.287-.584.027-1.326-.297-2.25-.17-.488-.356-1.072-.219-1.591.161-.612.729-.598 1.128-.197.14.141.293.268.442.337.228.105.383.028.504-.185.102-.178.187-.454.247-.855.097-.648.248-1.23.528-1.703.173-.293.613-.739.897-.934m-2.452-1.803c.328.037.656.072.984.103-1.551-1.59-2.926-3.349-3.372-5.514-.587-.359-1.353-.913-1.851-1.414l-.029-.632.002.0001c.491.599 1.149 1.086 1.787 1.509-.077-.578-.087-1.14-.05-1.692-.433-.545-.816-1.125-1.165-1.726l.161-.532c.32.577.666 1.139 1.06 1.669.081-.655.217-1.297.37-1.936l.442-.224c-.526 2.101-.749 4.249.099 6.288.279-.675.784-1.473 1.354-1.949l.089.462c-.526.51-.998 1.337-1.205 2.01.36.724.857 1.479 1.529 2.273.218-.634.703-.864 1.261-.899l.257.369c-.487.033-1.124.166-1.158.94.312.344.656.694 1.036 1.053.22.018.44.035.661.05-.128-.657.339-1.304.644-1.882.179-.339.374-.708.344-.937-.027-.213-.328-.331-1.229-.214-.87.112-1.704-.53-.777-1.231.52-.393.908-.782 1.119-1.418.311-.937.406-1.839-.838-1.432-1.276.418-1.733-.766-.661-1.484.404-.271.726-.72.865-1.153.212-.666-.073-1.087-.792-1.052-.996.049-1.095-.785-.805-1.556.09-.239-.036-.467-.271-.643-.309-.231-.721-.341-1.102-.357-.605-.026-1.225.193-1.466.798-.317.797-1 .938-1.618.348-.118-.112-.441-.019-.763.182-.168.104-.33.239-.462.394-.128.15-.228.317-.275.49-.09.329.015.7.489 1.043.809.585.602 1.255-.356 1.416-.357.06-.646.239-.81.479-.234.342-.165.742.073 1.061.325.435 1.015.854 2.211 1.122 1.18.264 1.223 1.075.42 1.77-.206.178-.427.373-.464.532-.054.232.243.519 1.501.877.446.127.919.201 1.354.36.494.181.55.419.415.9-.069.245-.035.453.09.645.161.247.468.481.902.734" fill="#f6e726"/><path d="m75.05 58.35c-.386-1.491-2.209-1.964-3.553-2.01-.783-.025-1.568.076-2.326.27-.548-.262-1.158-.385-1.765-.336-.865.07-1.63.477-2.194 1.09.002-.05-.004-.1-.016-.148-.078-.332-.367-.538-.628-.763-.604-.522-.487-.883.278-1.054 1.304-.291 2.072-.77 2.448-1.273.341-.456.413-1.046.083-1.53-.224-.328-.608-.57-1.077-.649-.618-.104-.7-.32-.185-.692.64-.463.774-.992.641-1.476-.064-.235-.193-.455-.357-.647-.16-.187-.355-.35-.555-.474-.47-.293-.994-.38-1.254-.131-.411.393-.754.328-.966-.204-.317-.797-1.1-1.086-1.858-1.053-.462.02-.952.157-1.326.436-.378.283-.571.673-.407 1.109.186.495.269 1.045-.409 1.011-.999-.049-1.491.647-1.195 1.576.164.514.546 1.046 1.024 1.367.673.451.538 1.044-.312.765-1.602-.525-1.756.701-1.344 1.942.238.718.67 1.169 1.258 1.614.584.442-.064.564-.483.51-1.206-.156-1.622.117-1.679.563-.046.355.179.782.387 1.175.266.504.765 1.162.577 1.72-.509.029-1.27.061-1.885.075-.127.17-.271.305-.429.396.238.314.402.756.494 1.254.014.076.027.153.038.23.517-.109 1.127-.218 1.529-.31.425.173.825.706 1.036 1.063.249.421.386.955.476 1.556.068.454.171.776.296.996.225.395.605.546 1.023.352.198-.092.39-.248.559-.419.178-.179.373-.283.452.015.115.437-.067.947-.21 1.356-.355 1.012-.639 1.825-.278 2.56.24.489.62.973 1.148 1.165.586.212.991-.039 1.28-.518.077-.128.154-.256.281-.334.161-.099.258-.089.267.109.001.23-.092.608-.383 1.176-.197.384-.121.791.114 1.121.252.355.665.596 1.095.655.477.065.994-.09 1.386-.602.252-.329.371-.043.604.207.858.922 1.6.632 2.245.031.761-.709 2.052-2.262 1.692-3.304-.189-.547-.673-.934-1.143-1.214-.706-.421-.73-.443-.039-.908.765-.515 1.01-1.371.069-1.827-.512-.249-1.324-.333-2.242-.122-.385.089-1.493.144-.697-.458.357-.27.753-.748.325-1.154-.293-.278-.786-.364-1.172-.411-.578-.07-1.248-.05-1.762.055-.384.078-.802.074-1.089.001-.41-.091-.02-.338.025-.667.049-.361-.151-.636-.498-.73-.2-.055-.463-.059-.783-.006-.352.058-.694.074-1.019.027-.098-.014-.39-.173-.485-.198 1.401-.244 2.927-.424 4.338-.578.137.302.39.716.595.979.897 1.15 2.329 1.733 3.721 1.373h.0001c.118-.03.231-.067.34-.108.635-.24 1.183-.678 1.576-1.231.73-.189 1.438-.468 2.091-.847 1.605-.932 2.528-2.294 2.21-3.524m-10.317-.332c-.138.238-.251.493-.337.761-.153.481-.218 1-.183 1.536-.931.148-1.867.287-2.807.408.156-.132.281-.267.374-.408.194-.297.246-.612.141-.976-.066-.229-.128-.298.133-.399.408-.16.866-.224 1.287-.347.655-.191 1.1-.384 1.392-.573"/><path d="m67.11 56.724c.368-.074.738-.074 1.096-.009l-.876 1.024-1.292-.562c.323-.22.69-.376 1.073-.452m1.531.103c.11.037.218.08.324.129-.025.475-.009.979.051 1.501l-.001.012-1.29-.561.925-1.08m.452 2.161c.023.135.049.271.078.406.085.402.194.799.326 1.19l-.003.004-1.29-.561.889-1.038m.6 2.125c.196.488.432.961.711 1.407-.07.095-.144.187-.224.273l-1.489-.648.915-1.069.086.037m.17 1.981c-.351.289-.768.495-1.211.595-.431.098-.867.093-1.283.0001l1.049-1.225 1.445.629m-2.917.47c-.419-.158-.81-.406-1.148-.727l.943-1.101 1.29.561-1.085 1.268m-1.425-1.023c-.196-.233-.362-.49-.497-.763-.077-.156-.145-.32-.202-.49l.243-.283 1.29.561-.834.974m-.89-2.163c-.044-.489.006-.967.136-1.408l1.101.479-.915 1.069-.321-.14m.272-1.788c.183-.432.448-.818.78-1.128l1.374.598-.916 1.069-1.238-.539m2.113 2.826l.915-1.069 1.29.561-.915 1.069-1.29-.561m1.718-2.627l-.915 1.069-1.29-.561.916-1.069 1.29.561m-1.189 1.389l-.916 1.069-1.29-.561.915-1.069 1.29.561m7.124-1.729c.27 1.043-.573 2.233-2.02 3.074-.594.345-1.239.603-1.901.783-.493-.788-.846-1.666-1.078-2.564-.232-.898-.348-1.835-.298-2.762.768-.191 1.597-.285 2.403-.223 1.085.083 2.586.494 2.896 1.693m-18.639 3.056c2.682-.09 5.594-.44 8.224-.796.036.246.071.393.154.621-2.586.358-5.457.695-8 1.263-.097-.41-.246-.772-.449-1.041.026-.015.051-.031.076-.047m2.068 1.124c.259-.056.519-.11.779-.162.314.26.868.72 1.218.993.052.495.051 1 .018 1.499l.373.383c.049-.513.066-1.031.04-1.546.801.624 1.671 1.312 2.536 2.122.057 1.025.068 2.072-.205 3.067l.267.498c.358-1.015.403-2.094.361-3.158.716.708 1.419 1.506 2.065 2.428-.117.972-.218 1.954-.261 2.934l.389.372c.028-.932.118-1.865.219-2.791.373.577.722 1.2 1.039 1.876l.213-.485c-.496-1-1.06-1.886-1.662-2.676.645-.164 1.328-.33 1.996-.324l-.391-.389c-.634.047-1.268.209-1.876.367-.477-.594-.974-1.134-1.477-1.629.48-.046.944-.198 1.389-.379l-.448-.26c-.433.157-.888.27-1.351.246-.95-.889-1.905-1.632-2.769-2.304-.333-.259-.871-.704-1.168-.943l.047-.009c.303.176.842.477 1.176.524.367.052.75.036 1.14-.029.262-.043.467-.043.612-.003.152.041.226.128.204.288-.033.242-.254.42-.263.647-.006.138.066.249.197.333.088.057.21.102.354.134.336.074.818.081 1.256-.008.474-.096 1.09-.116 1.619-.052.491.059 1.467.242.667.846-1.164.881.086 1.391 1.031 1.174.824-.19 1.539-.121 1.977.092.647.315.383.792-.118 1.129-.948.638-.905 1.015.057 1.589.404.241.818.566.968 1 .293.85-.978 2.313-1.585 2.878-.485.451-1.04.672-1.675-.011-.184-.198-.44-.531-.749-.514-.158.009-.301.116-.471.337-.29.379-.666.494-1.012.447-.319-.043-.633-.225-.821-.489-.152-.214-.204-.47-.084-.704.326-.637.44-1.085.427-1.376-.022-.51-.462-.692-.881-.434-.211.13-.313.3-.415.468-.191.316-.399.492-.797.348-.424-.153-.732-.571-.924-.962-.287-.584-.027-1.326.297-2.25.17-.488.356-1.072.219-1.591-.161-.612-.729-.598-1.128-.197-.14.141-.293.268-.442.337-.228.105-.383.028-.504-.185-.102-.178-.187-.454-.247-.855-.097-.648-.248-1.23-.528-1.703-.173-.293-.613-.739-.897-.934m2.452-1.803c-.328.037-.656.072-.984.103 1.551-1.59 2.926-3.349 3.372-5.514.587-.359 1.353-.913 1.851-1.414l.029-.632-.002.0001c-.491.599-1.149 1.086-1.787 1.509.077-.578.087-1.14.05-1.692.433-.545.816-1.125 1.165-1.726l-.161-.532c-.32.577-.666 1.139-1.06 1.669-.081-.655-.217-1.297-.37-1.936l-.442-.224c.526 2.101.749 4.249-.099 6.288-.279-.675-.784-1.473-1.354-1.949l-.002-.0001-.087.463c.526.51.998 1.337 1.205 2.01-.36.724-.857 1.479-1.529 2.273-.218-.634-.703-.864-1.261-.899l-.257.369c.487.033 1.124.166 1.158.94-.312.344-.656.694-1.036 1.053-.22.018-.44.035-.661.05.128-.657-.339-1.304-.644-1.882-.179-.339-.374-.708-.344-.937.027-.213.328-.331 1.229-.214.87.112 1.704-.53.777-1.231-.52-.393-.908-.782-1.119-1.418-.311-.937-.406-1.839.838-1.432 1.276.418 1.733-.766.661-1.484-.404-.271-.726-.72-.865-1.153-.212-.666.073-1.087.792-1.052.996.049 1.095-.785.805-1.556-.09-.239.036-.467.271-.643.309-.231.721-.341 1.102-.357.605-.026 1.225.193 1.466.798.317.797 1 .938 1.618.348.118-.112.441-.019.763.182.168.104.33.239.462.394.128.15.228.317.275.49.09.329-.015.7-.489 1.043-.809.585-.602 1.255.356 1.416.357.06.646.239.81.479.234.342.165.742-.073 1.061-.325.435-1.015.854-2.211 1.122-1.18.264-1.223 1.075-.42 1.77.206.178.427.373.464.532.054.232-.243.519-1.501.877-.446.127-.919.201-1.354.36-.494.181-.55.419-.415.9.069.245.035.453-.09.645-.161.247-.468.481-.902.734" fill="#f6e726"/><path d="m41.839 7.779c-1.534.132-2.304 1.851-2.57 3.169-.155.768-.187 1.559-.121 2.339-.35.496-.573 1.077-.626 1.685-.075.865.198 1.687.709 2.345-.049-.001-.099-.013-.149-.009-.341.021-.592.272-.857.492-.615.509-.952.333-.993-.45-.07-1.334-.413-2.171-.847-2.626-.393-.412-.963-.582-1.495-.337-.361.166-.664.504-.819.954-.206.593-.432.637-.713.068-.35-.708-.849-.928-1.348-.878-.243.024-.481.115-.697.245-.211.127-.404.292-.56.469-.367.415-.54.917-.338 1.215.319.471.198.798-.362.918-.838.18-1.254.904-1.347 1.656-.057.459-.004.965.209 1.38.216.42.568.676 1.025.586.519-.101 1.075-.091.929.572-.215.977.389 1.578 1.355 1.441.534-.076 1.122-.364 1.518-.782.557-.589 1.119-.357.703.435-.784 1.492.398 1.849 1.69 1.65.747-.115 1.265-.466 1.801-.972.533-.503.545.157.422.562-.354 1.163-.154 1.619.276 1.75.343.104.801-.047 1.223-.186.541-.178 1.273-.561 1.792-.282-.056.507-.151 1.263-.241 1.872.065.069.123.139.173.211h1.694c-.019-.517-.025-1.167-.048-1.559.241-.39.834-.696 1.221-.845.456-.176 1.01-.221 1.613-.21.459.009.793-.039 1.031-.126.426-.156.639-.505.518-.95-.057-.21-.18-.425-.32-.621-.147-.205-.217-.415.09-.443.45-.041.922.224 1.302.433.939.518 1.692.934 2.477.701.522-.156 1.063-.449 1.339-.938.307-.542.127-.984-.298-1.349-.113-.097-.227-.195-.283-.333-.071-.175-.045-.27.152-.245.228.029.584.192 1.095.573.346.258.76.251 1.124.075.392-.19.699-.557.828-.971.144-.46.077-.995-.362-1.467-.283-.304.019-.373.305-.561 1.052-.692.89-1.473.405-2.209-.572-.869-1.888-2.4-2.975-2.22-.571.095-1.033.508-1.388.925-.533.626-.558.646-.902-.113-.38-.84-1.184-1.221-1.789-.373-.33.463-.549 1.25-.494 2.191.023.394-.107 1.497-.568.611-.207-.397-.612-.867-1.084-.513-.323.243-.49.715-.601 1.088-.166.558-.257 1.223-.24 1.747.013.392-.061.803-.172 1.076-.158.389-.336-.037-.654-.136-.348-.109-.652.043-.803.369-.087.189-.136.447-.137.771-.0001.357-.043.696-.143 1.01-.03.094-.235.356-.276.446-.007-1.422.069-2.957.153-4.374.321-.085.771-.266 1.064-.424 1.283-.693 2.097-2.01 1.974-3.441v-.0001c-.001-.121-.027-.239-.05-.354-.131-.667-.471-1.279-.951-1.76-.065-.751-.222-1.496-.487-2.203-.651-1.738-1.84-2.876-3.106-2.766m-2.046 10.119c.212.176.444.33.694.459.449.231.951.382 1.484.436-.001.943-.028 1.89-.066 2.836-.104-.176-.216-.322-.34-.437-.26-.241-.562-.345-.939-.301-.237.027-.315.077-.372-.198-.089-.429-.077-.891-.128-1.328-.079-.678-.195-1.149-.333-1.468"/><path d="m38.914 15.345c-.011-.376.05-.74.174-1.082l.863 1.035-.77 1.181c-.163-.355-.256-.743-.267-1.134m.356-1.493c.055-.102.116-.202.181-.298.464.104.964.172 1.488.199l.001.012-.768 1.178-.911-1.092m2.205-.085c.137 0 .275-.003.413-.009.411-.017.82-.058 1.227-.124l.003.004-.768 1.178-.875-1.05m2.195-.238c.514-.112 1.019-.265 1.505-.467.082.085.16.173.232.266l-.887 1.36-.902-1.081.051-.079m1.981.162c.226.394.36.84.385 1.293.024.442-.053.87-.213 1.266l-1.033-1.238.861-1.321m-.023 2.955c-.225.387-.535.731-.908 1.01l-.929-1.114.768-1.178 1.069 1.281m-1.246 1.235c-.262.154-.543.276-.835.363-.167.05-.339.089-.516.117l-.239-.286.768-1.178.821.985m-2.281.517c-.489-.038-.952-.167-1.366-.369l.656-1.01.902 1.081-.191.293m-1.718-.566c-.396-.252-.732-.578-.982-.958l.818-1.255.902 1.081-.738 1.132m3.138-1.613l-.902-1.081.768-1.178.901 1.081-.768 1.178m-2.303-2.132l.902 1.081-.768 1.179-.902-1.081.768-1.178m1.171 1.404l.902 1.081-.768 1.178-.901-1.081.768-1.179m-.517-7.314c1.073-.092 2.106.938 2.693 2.506.241.643.388 1.322.455 2-.859.355-1.783.557-2.708.636-.924.079-1.867.037-2.772-.166-.06-.789-.015-1.622.18-2.407.263-1.056.918-2.468 2.152-2.574m-.075 18.75c.344-2.622.482-5.495.567-8.102.248.005.4-.004.638-.048-.077 2.574-.221 5.568-.094 8.15h-1.111m1.434-1.711c-.012-.265-.022-.53-.03-.796.309-.267.854-.736 1.182-1.036.497.031.994.116 1.48.232l.439-.304c-.498-.134-1.01-.237-1.518-.297.748-.686 1.572-1.429 2.515-2.147 1.02.115 2.054.279 2.989.713l.536-.18c-.941-.522-1.997-.746-3.053-.883.817-.588 1.721-1.148 2.737-1.632.939.278 1.89.541 2.849.747l.432-.322c-.914-.183-1.819-.427-2.715-.681.631-.271 1.303-.512 2.022-.712l-.443-.291c-1.07.322-2.036.731-2.915 1.193-.054-.664-.104-1.364.013-2.023l-.449.321c-.059.633-.005 1.285.049 1.912-.665.372-1.28.772-1.852 1.185.035-.481-.038-.964-.143-1.433l-.331.399c.082.454.118.921.017 1.373-1.034.789-1.926 1.607-2.733 2.347-.311.285-.839.742-1.125.995l-.0001-.048c.224-.269.611-.751.713-1.072.113-.354.16-.733.162-1.129.0001-.266.036-.468.099-.604.066-.143.163-.201.318-.153.233.073.371.32.594.368.135.029.256-.024.361-.139.071-.078.136-.19.191-.326.129-.319.216-.793.201-1.24-.016-.484.067-1.094.218-1.605.14-.474.483-1.406.946-.517.675 1.295 1.386.147 1.329-.821-.05-.845.137-1.538.42-1.934.418-.586.844-.245 1.093.305.471 1.042.849 1.062 1.575.209.305-.358.694-.712 1.147-.787.887-.147 2.117 1.35 2.573 2.043.364.553.489 1.138-.29 1.65-.226.149-.597.345-.632.653-.018.157.064.316.254.52.325.349.376.74.272 1.072-.096.308-.328.587-.619.728-.236.114-.497.123-.708-.035-.573-.428-.996-.614-1.286-.651-.506-.063-.759.34-.575.797.093.23.243.359.393.487.28.241.418.475.21.844-.222.393-.685.627-1.103.751-.623.186-1.311-.194-2.169-.668-.453-.249-.997-.53-1.532-.482-.63.057-.711.619-.382 1.079.116.161.215.334.258.492.066.242-.036.382-.266.466-.193.071-.478.109-.885.101-.655-.012-1.254.04-1.767.237-.318.122-.83.482-1.07.729m-1.368-2.719c-.018.33-.038.659-.062.988-1.309-1.795-2.814-3.443-4.874-4.245-.256-.639-.674-1.486-1.086-2.061l-.619-.134.0001.002c.509.584.879 1.314 1.189 2.01-.557-.173-1.11-.276-1.66-.331-.466-.518-.973-.992-1.507-1.436l-.551.071c.516.412 1.011.847 1.469 1.323-.659-.03-1.315-.003-1.97.042l-.295.398c2.159-.169 4.313-.031 6.183 1.146-.712.163-1.583.527-2.147 1.01l.44.164c.591-.434 1.485-.761 2.182-.853.654.475 1.315 1.092 1.986 1.886-.661.109-.969.549-1.097 1.094l.321.315c.113-.475.351-1.081 1.12-.986.287.365.575.762.865 1.197-.019.22-.039.44-.061.66-.626-.235-1.342.117-1.962.322-.365.12-.76.251-.981.183-.206-.063-.272-.378-.007-1.248.256-.839-.238-1.769-1.084-.972-.474.447-.923.765-1.585.867-.976.151-1.881.094-1.272-1.065.625-1.189-.466-1.837-1.353-.899-.334.353-.83.596-1.281.66-.692.098-1.06-.253-.905-.956.214-.974-.592-1.211-1.4-1.053-.25.049-.455-.113-.589-.375-.176-.343-.216-.768-.168-1.146.075-.601.394-1.176 1.031-1.313.839-.18 1.092-.829.613-1.538-.091-.135.055-.438.306-.723.131-.148.291-.285.465-.39.169-.102.35-.172.529-.19.34-.034.688.131.947.657.442.896 1.137.803 1.456-.115.119-.343.343-.597.607-.719.376-.174.759-.039 1.034.249.375.393.673 1.144.737 2.368.063 1.207.856 1.385 1.675.709.21-.174.439-.358.602-.369.238-.015.471.326.615 1.626.051.461.045.94.13 1.395.096.518.322.612.818.559.253-.027.453.041.621.196.216.2.396.542.573 1.012" fill="#f6e726"/></g></svg>