<svg xmlns="http://www.w3.org/2000/svg" width="300" height="360" viewBox="0 0 84.666667 101.6" fill-rule="evenodd"><path d="m62.58 48.55c.828 0 1.5.672 1.5 1.5v1.5c0 .828-.672 1.5-1.5 1.5h-1.5v-4.5h1.5m0 6c1.657 0 3-1.343 3-3v-1.5c0-1.657-1.343-3-3-3h-3v7.5h3m-6-7.5h1.5v7.5h-1.5v-7.5m-3 0h1.5v7.5h-1.5l-3-4.709v4.709h-1.5v-7.5h1.5l3 4.709v-4.709m-22.5 0h4.5v1.5h-3v1.5h3v1.5h-3v1.5h3v1.5h-4.5v-7.5m-6 0h1.5v6h3v1.5h-4.5v-7.5m15.75 6h1.5c1.242 0 2.25-1.01 2.25-2.25 0-1.242-1.026-2.246-2.25-2.25h-1.5v1.5h1.5c.414 0 .75.336.75.75 0 .414-.336.75-.75.75h-1.5v1.5m1.5-7.5c2.899 0 5.25 2.351 5.25 5.25 0 2.899-2.351 5.25-5.25 5.25-2.899 0-5.25-2.351-5.25-5.25 0-2.899 2.351-5.25 5.25-5.25m0 1.5c2.071 0 3.75 1.679 3.75 3.75 0 2.071-1.679 3.75-3.75 3.75-2.071 0-3.75-1.679-3.75-3.75 0-2.071 1.679-3.75 3.75-3.75" fill="#a90000"/><g fill-rule="nonzero"><path d="m.0001 0v51.11c-.0001 23.09 20.448 43.716 42.33 50.49 21.885-6.775 42.33-27.404 42.33-50.49v-51.11h-84.67"/><path d="m.685.688v50.42h.002v.0001h-.002v.228c.022 3.699.58 7.339 1.591 10.87.841 2.936 1.995 5.791 3.415 8.538 7.298 14.12 21.613 25.422 36.643 30.14 2.959-.928 5.892-2.113 8.751-3.526 2.92-1.443 5.766-3.127 8.484-5.02 13.913-9.687 24.374-24.795 24.411-41.14v-.087-50.42h-83.3" fill="#3c82c2"/><g fill="#fff" stroke="#000" stroke-width=".226"><path d="m70.32 70.51c2.113-.744 3.863-.553 5.867.063l.035-.352c-.826-.687-2.76-2.535-2.089-3.496-3.808-1.636-7.766-3.424-11.312-5.656-.966-.609-2.249-1.793-1.168-2.98.154-.168.231-.298.222-.388-.012-.118-.143-.201-.309-.344-1.285-1.112-3.38-3.386-3.901-5.097-.456-1.5-.33-2.343.185-3.344.124-1.612.336-4.574.464-6.322 1.018-.968 2.157-1.798 3.247-2.679 2.566-2.072 4.949-4.474 4.076-8.619l-3.603 1.197c1.022-.977 2.044-1.942 3.03-2.964h.0001l.004-.004c.701-.733 2.811-3.117 2.741-4.217-.046-.716-1.258-.395-1.663-.351 2.331-1.451 2.365-3.459 2.597-6.328-2.777 2.982-6.562 6.887-10.05 9.117-1.514.967-2.981 1.46-4.678 1.921-1.799.491-3.834 1.237-3.903 3.422-.05 1.588.465 3.01.632 4.555.587 5.473-6.336 9.925-10.864 6.382-3.345-2.746-6.386-5.689-9.139-9.04-.31-.357-.518-.823-.754-1.234-.08-.137-.161-.274-.242-.403-.315-.501-.655-1.01-1.102-1.403h-.0001c-.459-.408-1.01-.634-1.622-.685-.385-.004-.842-.022-1.162-.131-1.324-.447-2.126-.964-3.058-1.671-1.253-.951-2.431-2-3.68-2.955-.228-.174-.413-.324-.558-.397-.838-.422-1.083.245-.713.799.329.495.794.929 1.231 1.325 2.688 2.431 6.03 5.149 9.04 7.489.182.155 2.736 2.957 5.476 5.963 1.462 1.577 2.875 3.202 4.335 4.791 3.224 3.511 7.183 7.235 11.415 9.468 1.127.595 2.441 1.257 3.743 1.912 1.234.619 2.46 1.237 3.501 1.784.322.169.624.33.899.481 1.448.792 2.785 1.783 4.159 2.697 1.817 1.212 4.02 2.694 5.64 3.971 1.091.858 3.213 2.689 3.043 3.718z"/><path d="m37.567 69.04c-.557-.416-1.09-.807-1.626-1.193-1.43-1.026-3.456-2.416-4.768-3.036-.827-.391-1.66-.591-1.321.619.016.053.032.106.05.161.844 2.594 1.636 3.728 3.501 7.683-.394.184-.567.38-.584.583-.06.224.143.741.473 1.388.581 1.14 1.273 2.224 1.846 3.368.209.417.533.842-.064.577-.608-.27-1.166-.742-1.707-1.126 1.629 2.365 2.279 3.506 2.943 6.165.221.885.229.794-.423.228-.429-.372-.854-.753-1.288-1.118-2.603-2.188-4.925-4.575-7.226-7.06-1.61-1.738-3.311-3.449-4.83-5.275-2-2.408-4.01-5.273-5.447-8.109-.987-1.954-1.881-4.095-2.138-6.297-.469-3.125 1.105-4.49 4.073-3.964 2.644.464 5.095 1.7 7.723 2.225 1.162.233 2.071.206 2.451-.341.334-.48.15-1.289-.495-2.272-1.75-2.671-4.448-5.19-6.801-7.627-1.501-1.46-3.126-2.983-4.71-4.459-1.03-.959-2.026-1.921-2.956-2.842-.92-.911-1.783-1.791-2.558-2.594-1.537-1.586-3.084-3.186-4.492-4.891-.449-.543-.891-1.111-1.064-1.439-.269-.51.338-.775.747-.421l6.626 5.725c1.594-.341 3.251.666 4.277 1.823.169.191.311.378.418.551l.0001.0001c.29.475.597.942.923 1.392 2.773 3.831 6.431 7.288 10.199 10.315 2.61 2.097 5.296 3.874 7.625 5.061 1.688.861 3.405 2.057 5.121 3.382 3.531 2.727 6.738 5.892 10.362 8.607 2.875 2.061 6.905 4.302 9.2 5.543.236 1.862 1.243 3.643 3.195 4.861l-.026.056c-.703-.191-3.37-.741-3.539.317-2.444-2.636-5.056-5.199-7.804-7-2.296-1.549-4.845-2.067-7.55-2.309-3.086-.271-5.414-.151-8.489-1.46l.154 4.204z"/></g></g><g fill="#f0e824" stroke="#000"><path transform="matrix(1.37307 0 0 1.3733-101.84-153.07)" stroke-width=".164" d="m83.01 115.61l2.8.39-2.04 1.96.5 2.79-2.49-1.34-2.5 1.34.5-2.79-2.04-1.96 2.8-.39 1.24-2.54z"/><path d="m17.918 11.707c.172.642.265 1.316.265 2.01 0 4.279-3.47 7.75-7.749 7.75-4.279 0-7.749-3.471-7.749-7.75 0-.696.093-1.37.265-2.01 1.263 2.746 4.139 4.666 7.484 4.666 3.345 0 6.221-1.919 7.484-4.666z" stroke-width=".226"/></g></svg>