<svg xmlns="http://www.w3.org/2000/svg" xmlns:xlink="http://www.w3.org/1999/xlink" width="400" height="676" viewBox="0 0 112.88889 190.78223" fill-rule="evenodd"><defs><linearGradient xlink:href="#Q" id="U" x1="73.991" y1="154.06" x2="74.45" y2="158.25" gradientUnits="userSpaceOnUse"/><linearGradient id="k" gradientUnits="userSpaceOnUse" x1="115.24" y1="149.77" x2="108.38" y2="130.46" xlink:href="#P"/><linearGradient xlink:href="#Q" id="V" x1="57.61" y1="153.69" x2="56.55" y2="150.3" gradientUnits="userSpaceOnUse"/><linearGradient xlink:href="#1" id="X" x1="47.781" y1="222.15" x2="43.37" y2="221.81" gradientUnits="userSpaceOnUse"/><linearGradient xlink:href="#Q" id="W" x1="62.725" y1="143.8" x2="67.29" y2="139.71" gradientUnits="userSpaceOnUse"/><linearGradient xlink:href="#Q" id="T" x1="72.34" y1="148.12" x2="70.31" y2="144.13" gradientUnits="userSpaceOnUse"/><linearGradient id="O" gradientUnits="userSpaceOnUse" x1="151.85" y1="59.2" x2="166.12" y2="64.09" xlink:href="#H"/><linearGradient id="S" gradientUnits="userSpaceOnUse" x1="67.59" y1="198" x2="103.55" y2="189.63" xlink:href="#2"/><linearGradient id="P" gradientUnits="userSpaceOnUse" x1="119.27" y1="131.06" x2="116.81" y2="144.4"><stop stop-color="#ccc"/><stop offset=".439" stop-color="#fff"/><stop offset="1" stop-color="#ccc"/></linearGradient><linearGradient xlink:href="#Q" id="R" gradientUnits="userSpaceOnUse" x1="75.75" y1="149.48" x2="79.86" y2="146.04"/><linearGradient y2="146.04" x2="79.86" y1="149.48" x1="75.75" gradientUnits="userSpaceOnUse" id="Q" xlink:href="#1"/><linearGradient xlink:href="#1" id="Y" x1="146.67" y1="249.53" x2="142.49" y2="247.44" gradientUnits="userSpaceOnUse"/><linearGradient y2="168.58" x2="106.92" y1="173.66" x1="110.36" gradientUnits="userSpaceOnUse" id="g" xlink:href="#1"/><linearGradient xlink:href="#1" id="Z" x1="158.42" y1="248.58" x2="154.53" y2="247.74" gradientUnits="userSpaceOnUse"/><linearGradient y2="124.78" x2="96.3" y1="131.78" x1="98.72" gradientUnits="userSpaceOnUse" id="h" xlink:href="#1"/><linearGradient y2="189.44" x2="101.46" y1="190.96" x1="105.07" gradientUnits="userSpaceOnUse" id="j" xlink:href="#1"/><linearGradient y2="216.51" x2="133" y1="198.92" x1="121.77" gradientUnits="userSpaceOnUse" id="i" xlink:href="#1"/><linearGradient id="f" gradientUnits="userSpaceOnUse" x1="118.67" y1="121.86" x2="136.37" y2="116.22" xlink:href="#1"/><linearGradient y2="150.21" x2="130.67" y1="162.56" x1="119.36" gradientUnits="userSpaceOnUse" id="a" xlink:href="#M"/><linearGradient id="e" gradientUnits="userSpaceOnUse" x1="106.06" y1="129.42" x2="103.86" y2="122.26" xlink:href="#M"/><linearGradient y2="144.37" x2="133.38" y1="168.41" x1="116.65" gradientUnits="userSpaceOnUse" id="b"><stop stop-color="#ccc"/><stop offset=".451" stop-color="#fff"/><stop offset="1" stop-color="#ccc"/></linearGradient><linearGradient id="d" gradientUnits="userSpaceOnUse" x1="114.39" y1="136.77" x2="109.41" y2="132.24" xlink:href="#1"/><linearGradient y2="137.84" x2="98.65" y1="149.3" x1="111.06" gradientUnits="userSpaceOnUse" id="c" xlink:href="#P"/><linearGradient id="N" gradientUnits="userSpaceOnUse" x1="116.52" y1="58.52" x2="150.59" y2="65.01" xlink:href="#H"/><linearGradient id="6" gradientUnits="userSpaceOnUse" x1="93.68" y1="176.16" x2="60.783" y2="163.6"><stop stop-color="#fff"/><stop offset=".502" stop-color="#ccc"/><stop offset="1" stop-color="#fff"/></linearGradient><linearGradient id="M" gradientUnits="userSpaceOnUse" x1="66.37" y1="158.25" x2="53.906" y2="147.96"><stop stop-color="#fff"/><stop offset=".471" stop-color="#ccc"/><stop offset="1" stop-color="#fff"/></linearGradient><linearGradient id="7" gradientUnits="userSpaceOnUse" x1="75.16" y1="157.53" x2="89.59" y2="152.72"><stop stop-color="#fff"/><stop offset=".522" stop-color="#ccc"/><stop offset="1" stop-color="#fff"/></linearGradient><linearGradient id="9" gradientUnits="userSpaceOnUse" x1="105.9" y1="176.3" x2="78.1" y2="138.84" xlink:href="#1"/><linearGradient id="8" gradientUnits="userSpaceOnUse" x1="60.39" y1="156.69" x2="71.918" y2="152.04"><stop stop-color="#ccc"/><stop offset=".38" stop-color="#fff"/><stop offset="1" stop-color="#ccc"/></linearGradient><linearGradient id="5" gradientUnits="userSpaceOnUse" x1="71.17" y1="186.13" x2="107.38" y2="178.77"><stop stop-color="#fff"/><stop offset=".569" stop-color="#ccc"/><stop offset="1" stop-color="#fff"/></linearGradient><linearGradient id="0" gradientUnits="userSpaceOnUse" x1="94.96" y1="217" x2="98.24" y2="199.81"><stop stop-color="#fff"/><stop offset=".478" stop-color="#ccc"/><stop offset="1" stop-color="#fff"/></linearGradient><linearGradient xlink:href="#1" id="4" gradientUnits="userSpaceOnUse" x1="42.24" y1="207.17" x2="37.779" y2="208.28"/><linearGradient id="1" gradientUnits="userSpaceOnUse" x1="42.24" y1="207.17" x2="37.53" y2="210.77"><stop stop-color="#ccc"/><stop offset="1" stop-color="#fff"/></linearGradient><linearGradient id="3" gradientUnits="userSpaceOnUse" x1="92.68" y1="196.93" x2="42.988" y2="210.41"><stop stop-color="#ccc"/><stop offset=".459" stop-color="#e5e5e5"/><stop offset="1" stop-color="#fff"/></linearGradient><linearGradient id="2" gradientUnits="userSpaceOnUse" x1="118.83" y1="165.67" x2="131.2" y2="147.1"><stop stop-color="#ccc"/><stop offset=".478" stop-color="#fff"/><stop offset="1" stop-color="#ccc"/></linearGradient><linearGradient id="A" gradientUnits="userSpaceOnUse" x1="113.6" y1="175.38" x2="144.52" y2="197.53"><stop stop-color="#fff"/><stop offset=".529" stop-color="#ccc"/><stop offset="1" stop-color="#fff"/></linearGradient><linearGradient id="I" gradientUnits="userSpaceOnUse" x1="43.841" y1="64.18" x2="58.19" y2="59.11" xlink:href="#H"/><linearGradient id="B" gradientUnits="userSpaceOnUse" x1="126.01" y1="186.75" x2="162.63" y2="239.37"><stop stop-color="#fff"/><stop offset=".369" stop-color="#ccc"/><stop offset="1" stop-color="#fff"/></linearGradient><linearGradient id="J" gradientUnits="userSpaceOnUse" x1="152.3" y1="184.96" x2="168.87" y2="212.27" xlink:href="#1"/><linearGradient id="L" gradientUnits="userSpaceOnUse" x1="124.89" y1="132.26" x2="141.56" y2="135.59" xlink:href="#1"/><linearGradient id="K" gradientUnits="userSpaceOnUse" x1="59.702" y1="65.11" x2="92.92" y2="58.43" xlink:href="#H"/><linearGradient id="H" gradientUnits="userSpaceOnUse" x1="94" x2="115.73"><stop stop-color="#e1b342"/><stop offset=".51" stop-color="#f9ea42"/><stop offset="1" stop-color="#e1b342"/></linearGradient><linearGradient id="C" gradientUnits="userSpaceOnUse" x1="130.6" y1="209.16" x2="117.34" y2="188.67"><stop stop-color="#fff"/><stop offset=".412" stop-color="#ccc"/><stop offset="1" stop-color="#fff"/></linearGradient><linearGradient id="G" gradientUnits="userSpaceOnUse" x1="137.22" y1="181.95" x2="148.08" y2="190"><stop stop-color="#fff"/><stop offset=".51" stop-color="#ccc"/><stop offset="1" stop-color="#fff"/></linearGradient><linearGradient id="D" gradientUnits="userSpaceOnUse" x1="113.71" y1="190.85" x2="106.57" y2="181.51"><stop stop-color="#ccc"/><stop offset=".49" stop-color="#fff"/><stop offset="1" stop-color="#ccc"/></linearGradient><linearGradient id="F" gradientUnits="userSpaceOnUse" x1="125.56" y1="176.92" x2="112.52" y2="149.41"><stop stop-color="#ccc"/><stop offset=".341" stop-color="#e5e5e5"/><stop offset="1" stop-color="#fff"/></linearGradient><linearGradient id="E" gradientUnits="userSpaceOnUse" x1="92.95" y1="206.41" x2="103.14" y2="207.37"><stop stop-color="#ccc"/><stop offset=".58" stop-color="#fff"/><stop offset="1" stop-color="#ccc"/></linearGradient></defs><path d="m76.69 93.14c.828 0 1.5.672 1.5 1.5v1.5c0 .828-.672 1.5-1.5 1.5h-1.5v-4.5h1.5m0 6c1.657 0 3-1.343 3-3v-1.5c0-1.657-1.343-3-3-3h-3v7.5h3m-6-7.5h1.5v7.5h-1.5v-7.5m-3 0h1.5v7.5h-1.5l-3-4.709v4.709h-1.5v-7.5h1.5l3 4.709v-4.709m-22.5 0h4.5v1.5h-3v1.5h3v1.5h-3v1.5h3v1.5h-4.5v-7.5m-6 0h1.5v6h3v1.5h-4.5v-7.5m15.75 6h1.5c1.242 0 2.25-1.01 2.25-2.25 0-1.242-1.026-2.246-2.25-2.25h-1.5v1.5h1.5c.414 0 .75.336.75.75 0 .414-.336.75-.75.75h-1.5v1.5m1.5-7.5c2.899 0 5.25 2.351 5.25 5.25 0 2.899-2.351 5.25-5.25 5.25-2.899 0-5.25-2.351-5.25-5.25 0-2.899 2.351-5.25 5.25-5.25m0 1.5c2.071 0 3.75 1.679 3.75 3.75 0 2.071-1.679 3.75-3.75 3.75-2.071 0-3.75-1.679-3.75-3.75 0-2.071 1.679-3.75 3.75-3.75" fill="#a90000"/><g transform="matrix(.74592 0 0 .74612-21.877-15.569)"><g fill-rule="nonzero"><path d="m104.82 276.57c-5.02-9.35-14.888-15.712-26.25-15.712h-33.03c-8.957 0-16.221-7.257-16.221-16.206v-149.64h151.34v149.64c0 8.949-7.264 16.206-16.221 16.206h-33.03c-11.359 0-21.232 6.361-26.25 15.712h-.351"/><path d="m105 274.42c-3.078-5.266-7.742-9.544-13.248-12.148-3.922-1.855-8.307-2.892-12.936-2.892v-.003h-.002v.003h-32.732v-.003h-.002v.003c-8.362-.0001-15.255-6.895-15.255-15.257h.003v-.0001-147.61h148.35v147.61.0001h.003c0 8.362-6.894 15.256-15.256 15.257v-.003h-.002v.003h-32.732v-.003h-.002v.003c-4.629 0-9.01 1.038-12.936 2.892-5.506 2.604-10.17 6.882-13.248 12.148" fill="#df212c"/><path d="m101.61 118.42h3.313.457l-.034.455v.008c-.045.607-.063 1.214-.053 1.814.001.6.049 1.207.118 1.817.015.133.031.265.049.397l38.528-12.212.012-.004.024-.007c.046-.014.095-.028.146-.042.059-.016.117-.029.173-.041.293-.063.597-.091.899-.077l5.435.254c.234.001.415.208.405.442-.006.132-.072.248-.17.321l-4.356 3.254-.002.0001c-.036.027-.085.061-.146.102-.042.028-.091.059-.149.094-.261.158-.541.285-.825.374l-38.637 12.12c.563 1.156 1.296 2.207 2.216 3.088l.352.337-.383.302-2.666 2.101-.303.239-.266-.28-.006-.006v-.002c-.476-.503-.912-1.038-1.308-1.6-.125-.177-.247-.359-.365-.543-.075.572-.227 1.019-.45 1.355-.089.133-.186.249-.293.347.522 3.03.918 6.166 1.21 9.263.063.665.117 1.279.164 1.844.038.463.075.937.11 1.419l.099.135c.328.45.672.714 1.079 1.026v.002l.101.078.186.143-.019.095c1.121.107 2.235.153 3.345.147.147-.0001.295-.003.442-.006-.039-.047-.073-.097-.103-.15-.242-.419-.167-.686-.103-.911.0001-.004.002-.008-.044-.038l-.005-.002-.0001-.0001c-.058-.039-.111-.078-.157-.115-.047-.038-.097-.086-.152-.144-.213-.226-.358-.513-.349-.874-.46-.37-.463-.904-.466-1.385-.0001-.093-.002-.183-.005-.256-.897.002-1.303-.337-1.353-.927-.043-.503.284-1.174.822-1.948.047-.067.085-.155.115-.26.033-.119.055-.256.065-.407.052-.787-.193-1.853-.565-2.696-.194-.024-.389-.044-.584-.06l-.509-.042.132-.491c.755-2.818 2.623-5.212 5.231-6.491l.003-.002.002-.0001.392-.187c.151.335.302.669.475.994 1.821-1.254 3.725-1.682 5.404-1.464.18.023.358.054.532.092.113-.278.252-.538.412-.779.216-.325.47-.616.753-.873 1.376-1.25 3.457-1.719 5.112-1.536.392-.667 1.26-1.412 2.356-1.875.597-.252 1.265-.426 1.966-.463.708-.038 1.448.063 2.179.359 1.404.57 2.769 1.858 3.792 4.279.648 1.534 1.25 2.715 1.939 3.127.591.353 1.347.057 2.439-1.237.466-.553 1.057-.974 1.709-1.25.795-.337 1.683-.458 2.552-.343.873.115 1.727.468 2.45 1.078.579.488 1.072 1.141 1.423 1.968.091.215-.001.464-.226.554-.061.026-.124.036-.186.033h-.013-.001c-.324-.016-.627-.007-.909.026-.276.032-.529.086-.759.161-1.13.37-1.715 1.28-1.787 2.487-.082 1.372-.204 2.702-.522 3.905-.326 1.239-.857 2.339-1.753 3.207l-.004.003-.002.002c-.296.286-.601.541-.913.763-.314.224-.635.416-.96.577-1.682.833-3.481.843-5.13.198-1.756-.687-2.876-1.695-3.53-2.896-.652-1.197-.831-2.569-.712-3.997.086-1.029.018-1.888-.188-2.644-.174-.639-.449-1.212-.812-1.755-.096.046-.196.1-.299.163-.597.366-1.43.785-2.301.85-.93.07-1.874-.246-2.592-1.39-.323-.516-.732-1.036-1.165-1.588v-.002l-.004-.004c-.008-.008-.015-.017-.022-.026-.18-.229-.385-.349-.583-.381-.146-.024-.292-.003-.423.053-.134.058-.252.151-.338.271-.085.119-.141.266-.152.431.704.667 1.24 1.521 1.542 2.522.512 1.697.346 3.816-.831 6.151h-.0001v.002c-.082.163-.155.32-.218.47-.064.152-.123.306-.175.46-.199.593-.283 1.154-.213 1.645 3.049-.62 6.175.094 8.863 1.812 2.97 1.899 5.406 5.03 6.601 8.937v.002.002c1.194 3.908.925 7.863-.475 11.1-1.41 3.258-3.966 5.788-7.334 6.819l-.002.002h-.002-.002v-.0001c-.359.11-.72.2-1.082.272.053.297.102.594.145.892.064.434.118.88.161 1.335.196 2.067.132 4.099-.262 5.977.405-.029.817-.052 1.238-.072 1.82-.083 3.791-.081 5.888-.018h.02.002c.679.021 1.358.08 2.032.175.68.096 1.357.228 2.025.396 3.062.767 5.997 2.282 8.337 4.449.524-.164 1.041-.349 1.551-.551 1.541-.611 3.105-1.415 4.669-2.404l.043-.027c.669-.42 1.352-.781 2.042-1.08.693-.3 1.389-.537 2.085-.708 3.602-.884 7.248-.05 10.382 2.781 2.638 2.382 3.623 4.923 3.683 7.381.059 2.435-.797 4.766-1.849 6.765-.614 1.167-.806 2.182-.686 3.114.12.936.558 1.811 1.2 2.685.929 1.265 1.347 2.65 1.42 4.1.071 1.422-.192 2.9-.631 4.383-.414 1.402-.513 2.634-.214 3.754.298 1.114.998 2.138 2.183 3.13.18.15.203.418.053.598-.051.06-.115.103-.184.127-.665.235-1.314.391-1.943.477-2.565.35-4.767-.471-6.488-1.837-1.703-1.352-2.933-3.241-3.571-5.05-.195-.553-.336-1.101-.418-1.627-1.034-.185-1.967-.574-2.776-1.114-1.158-.772-2.061-1.851-2.647-3.085-.585-1.231-.855-2.617-.747-4 .155-1.994 1.086-3.989 2.976-5.53 1.13-.921 2.689-1.733 3.429-3 .374-1.267.465-2.778-.211-3.966-.263-.464-.633-.844-1.105-1.11v-.002c-.588-.331-1.343-.489-2.261-.416-1.562.124-3.12.122-4.622-.148-.997-.179-1.965-.477-2.887-.934.138.172.272.345.401.519l.052.003-.003.063c1.13 1.536 1.934 3.183 2.23 5.299.449 3.21-.295 7.47-2.889 14.05l-.0001.002c-.189.479-.335.942-.439 1.389-.104.444-.166.867-.188 1.27-.11 2.045.815 3.66 2.641 4.738l.119.07c1.305.77 2.406 1.42 3.558 1.945h.002l.008.004c.213.099.414.212.6.339.19.129.363.269.52.419.807.772 1.239 1.837 1.319 2.97l.002.034c.031.432.069.907.106 1.382.098 1.229.196 2.458.217 3.727.037 2.18.553 4.183 1.366 6.088.821 1.924 1.944 3.747 3.183 5.55.096.14.18.27.25.388.501.848.774 1.745.755 2.553v.002c-.02.861-.363 1.62-1.099 2.125v.002c-.051.035-.103.069-.157.101-1.04.615-1.839 1.174-2.171 1.926-.329.745-.227 1.749.511 3.298h-.0001c.117.224.199.454.247.687.134.647.013 1.308-.303 1.889-.307.567-.803 1.062-1.427 1.395-.306.163-.642.287-1 .362-1.149.237-2.32.361-3.496.411-1.169.05-2.341.027-3.501-.027-1.209-.057-1.577-.406-1.549-.987.015-.32.192-.641.4-1.018.053-.096.108-.196.154-.283.56-1.064 1.124-1.937 1.703-2.694.572-.747 1.16-1.379 1.775-1.966.511-.661.875-1.317 1.094-1.966.217-.647.292-1.292.227-1.937-.051-.509-.083-1.02-.05-1.535.035-.531.138-1.064.358-1.602.187-.456.283-.909.297-1.362.014-.457-.055-.918-.197-1.383l-.002-.002v-.002h.0001c-.147-.481-.306-.975-.474-1.477-.165-.493-.338-.988-.519-1.483-.74-2.032-1.594-4.05-2.537-5.977-.344 3.422-.319 6.709.081 9.847.088.688.194 1.373.319 2.054.124.677.267 1.347.428 2.01l.003.013v.002c.232.956.076 1.655-.291 2.168-.363.507-.918.807-1.5.986-.757.232-1.357.631-1.79 1.208-.397.53-.662 1.217-.788 2.073.295.152.537.342.699.637.205.374.246.873.049 1.612-.205.768-.466 1.487-.888 2.055-.45.606-1.066 1.026-1.953 1.136-1.098.135-2.204.197-3.312.211-1.099.014-2.185-.018-3.258-.07l-.029-.0001c-.313-.015-.618-.03-.882-.135-.541-.216-.804-.651-.405-1.65.468-1.173 1.089-2.206 1.795-3.131.7-.916 1.488-1.729 2.294-2.467l.022-.02c.743-.592 1.32-1.179 1.707-1.759.366-.55.56-1.091.556-1.622-.004-.63.107-1.212.307-1.811.196-.587.472-1.178.807-1.85.393-.788.598-2.223.661-3.929.013-.345.02-.695.022-1.047.002-.355-.002-.721-.001-1.093v-.025c-.027-1.157-.083-2.358-.307-3.511-.219-1.124-.601-2.202-1.281-3.144-.4-.555-.919-1.029-1.522-1.447-.617-.428-1.322-.798-2.077-1.137-3.305-1.482-6.697-3.223-9.812-5.33-2.947-1.994-5.651-4.316-7.806-7.06-.451 2.51-.981 5.05-1.587 7.232-.695 2.506-1.498 4.552-2.406 5.573-.2.257-.627.199-.737-.124-1.511-4.459-3.495-8.919-5.978-13.304-1.9.397-4.099.484-6.499.394-.909-.034-1.844-.094-2.802-.171-.182.524-.302 1.035-.359 1.536-.192 1.535.326 2.681.826 3.973l2.586-.176.265-.198-1.992-3.419 3.419 1.992 1.056-1.416 1.055 1.415 3.313-1.884-1.884 3.313 1.415 1.055-1.416 1.056 1.992 3.419-3.419-1.992-1.056 1.416-1.055-1.415-3.313 1.884 1.884-3.313-.333-.248-2.438.799c-.392.988-1.049 1.115-1.942 1.286l-.071.014c-.791.153-1.587.286-2.385.4-.687.099-1.383.185-2.084.259l-.006.062-.035.361-.36.023-4.798.303-.595.037.117-.419c-.628.018-1.255.029-1.879.035-.818.007-1.626.006-2.421-.003-.349-.004-.641-.062-.846-.17-.18-.095-.309-.23-.374-.401-.067-.177-.061-.37.031-.575.091-.204.278-.428.579-.665.977-.77 2.05-1.427 3.171-2.01 1.051-.55 2.131-1.032 3.209-1.484l1.607-5.77c-.372-.044-.744-.087-1.116-.13-.048.208-.11.412-.19.609l-.0001.003-.002.005c-.498 1.221-2.245 1.528-3.446 1.739-.16.028-.312.055-.373.066-1.346.256-2.687.309-4.03.243-1.333-.066-2.659-.25-3.985-.471-1.725-.287-3.462-.449-5.189-.426-1.721.023-3.438.23-5.13.678-.566.15-1.117.313-1.661.474-1.427.423-2.815.834-4.27.961-1.645.143-2.937.584-4.057 1.218-1.13.639-2.1 1.482-3.084 2.415l-.008.008c-.586.556-1.207 1.085-1.835 1.621-.912.778-1.841 1.569-2.674 2.455-.107.114-.219.214-.333.299-.252.187-.518.293-.785.304-.291.011-.567-.089-.81-.318-.064-.06-.126-.13-.185-.21-.239-.324-.483-.538-.723-.658-.195-.098-.388-.131-.573-.109-.191.023-.378.104-.554.234-.249.184-.475.462-.659.81-.032.271-.036.536-.039.798-.005.366-.009.729-.081 1.129-.081.451-.198.914-.445 1.352-.256.453-.641.863-1.249 1.175h-.002l-.003.002c-.331.171-.662.332-.99.484-.323.149-.655.294-.995.434-1.714.703-3.448 1.186-5.196 1.422-.263.036-.488.023-.678-.03-.24-.066-.423-.193-.557-.366-.126-.163-.2-.36-.23-.581-.04-.297.002-.642.101-1 .193-.7.396-1.43.643-2.17.249-.748.543-1.501.915-2.234.289-.568.618-1.019 1-1.38.39-.366.831-.635 1.34-.834.616-.242 1.214-.606 1.792-1.057.587-.458 1.159-1.01 1.714-1.621.949-1.043 1.962-2.054 3.277-2.984 1.315-.929 2.925-1.771 5.065-2.471l.053-.017c2.936-.961 5.971-1.955 7.797-4.39.604-.806 1.436-1.479 2.567-2.01.901-.419 1.997-.747 3.327-.975-1.757-.682-3.507-1.653-5.255-2.824-1.893-1.269-3.783-2.771-5.677-4.393l-.019-.018c-.232-.197-.469-.37-.709-.517-.231-.142-.464-.257-.697-.346-1.163-.444-2.344-.202-3.485.725-1.126.915-2.166 1.912-3.141 3-.977 1.094-1.893 2.288-2.772 3.596-.084.125-.175.234-.27.325h-.002c-.282.27-.608.403-.948.413-.326.001-.655-.096-.962-.302-.139-.094-.274-.208-.4-.34v-.002c-.162-.169-.306-.273-.434-.32-.103-.037-.194-.029-.272.018-.119.072-.235.222-.344.435-.223.438-.379 1.092-.452 1.879.072.174.157.359.244.548.632 1.378 1.352 2.946-.345 4.678-.808.826-1.613 1.525-2.469 2.17-.855.645-1.76 1.236-2.77 1.846-.605.365-1.123.528-1.533.431-.493-.116-.782-.521-.828-1.276-.051-.84-.041-1.685-.031-2.528.008-.676.016-1.352-.009-2.031v-.016-.002c-.049-1.488.665-2.801 1.275-3.923.273-.502.524-.963.655-1.356.081-.244.173-.537.265-.829.741-2.36 1.476-4.7 5.139-6.421l.002-.002h.0001c.326-.153.66-.326 1-.519.345-.195.687-.405 1.025-.627 1.777-1.169 3.615-2.79 5.423-4.761 1.364-1.487 2.882-2.448 4.576-2.752 1.693-.305 3.539.051 5.552 1.199 1.238.706 2.467 1.206 3.693 1.583 1.056.325 2.117.559 3.184.756-.061-1.621.114-3.056.549-4.283.313-.883.758-1.657 1.343-2.314-.356-1.948-.139-4.155.026-6.183l-3.231 1.154-.51.182-.055-.541-.404-4-4.766.646-.563.076.087-.561.791-5.124-4.407.066-.595.009.187-.565c.594-1.8 1-3.596 1.246-5.388.055-.404.102-.807.142-1.21-.219.188-.45.35-.688.487-1.465.845-3.18.714-4.442.087-.248-.124-.432-.264-.56-.414-.201-.238-.27-.493-.239-.749.028-.232.14-.45.309-.644.188-.217.452-.411.742-.559 1.243-.639 2.411-1.5 3.593-2.37l.171-.125c-.391-.024-.782-.04-1.171-.049-.731-.016-1.465-.006-2.201.026-.387.017-.793.041-1.215.072-.42.031-.825.066-1.216.105l-.18.018c-1.568.161-1.963.202-2.593-1.629-.48-1.395.344-2.279 1.378-3.388.509-.546 1.076-1.155 1.53-1.905l.002-.002c1.046-1.733 2.603-2.233 4.346-2.794.458-.147.931-.299 1.414-.483l.028-.001.337-.098c1.079-.314 2.187-.637 3.07-1.888.511-.725 1.097-1.398 1.917-1.907.235-.145.487-.276.762-.39-.372-4.832 1.974-6 4.487-6.255.813-.081 1.636-.059 2.38-.039.224.006.441.012.647.015-.106-.286-.215-.572-.322-.855-.067-.175-.132-.347-.272-.722h-.002l-.008-.023-.307-.827.838.276c.934.307 2.699 1.159 4.084 2.518.124-.157.25-.303.378-.437.228-.237.464-.44.708-.609 1.279-.886 2.707-.827 4.231.021.627.349 1.183.885 1.829 1.508.501.483 1.061 1.023 1.739 1.553.567.204 1.07.458 1.54.769.496.328.951.717 1.4 1.174l.003.003c.112.114.213.22.312.325.359.38.715.756 1.138 1 .305.041.618.108.933.2.364.107.732.249 1.092.423 1.804.874 3.469 2.589 3.844 5.03.386.188.767.439 1.14.752l.002.002c.264.221.519.452.764.693.241.237.471.481.689.732 1.088 1.256 1.855 2.668 2.278 4.177.275.178.547.38.811.606.311.266.615.565.904.895 1.43 1.63 2.494 3.986 2.51 6.67.267.213.514.443.741.69 1.18 1.281 1.832 2.983 2.237 4.882.388-.204.781-.406 1.177-.608.498-.253 1-.502 1.505-.748 1.243-.604 2.497-1.181 3.738-1.72-.466-1.167-.847-2.341-1.143-3.504-.687-2.694-.927-5.342-.733-7.714-.931.027-1.853.007-2.747-.045-.963-.057-1.897-.152-2.778-.267l-.079.172-.218.018h-.007c-.282.022-.594.034-.924.035-.325.0001-.654-.009-.976-.028-1.729-.102-3.506-.489-4.04-1.021h-.0001l-.0001-.0001c-.126-.126-.24-.277-.342-.448-.097-.163-.184-.347-.26-.55-.372-.986-.486-2.415-.264-3.802l.041-.254.08-.017c-.03-2.345.013-4.716.109-7.136.098-2.484.25-5.01.431-7.597-.109-.049-.215-.106-.316-.171-.129-.083-.251-.18-.362-.29-.11-.108-.21-.229-.297-.362h-.0001l-.0001-.0001-.0001-.004c-.37-.568-.699-1.319-.963-2.054-.088.125-.188.242-.296.35-.488.488-1.163.79-1.909.79v.002h-.0001v-.002c-.746 0-1.422-.303-1.912-.792-.488-.488-.79-1.163-.79-1.909h-.002v-.002h.002c0-.746.303-1.422.792-1.912.488-.488 1.163-.79 1.909-.79v-.002h.0001v.002c.356 0 .697.069 1.01.194.068-.357.23-.647.474-.876.34-.32.79-.469 1.239-.541.09-.328.253-.603.519-.802.271-.203.634-.313 1.116-.3.31-.808.923-1.098 1.838-.872.344-.59.941-.79 1.586-.642-.132-1.276-.157-2.581-.074-3.891l.025-.398h.398zm-39.51 43.16c1.983 3.349 4.882 6.02 8.363 7.947 1.019-2.629 1.432-5.534 1.611-8.356l-.09.02c-1.668.357-3.61.544-5.356.13-.346-.082-.684-.188-1.013-.321-.233-.095-.462-.204-.685-.329-.737.601-1.629.933-2.563.922h-.002c-.089-.0001-.178-.005-.265-.012m46.19 12.12c.581.353 1.169.776 1.707 1.234.15.128.308.269.47.422l2.425-2.526c-.479.105-.961.205-1.445.301-.729.145-1.476.284-2.236.415-.307.053-.614.105-.921.155"/><path d="m104.97 216.47l1.682-.552-.495-.369.264-.197-1.532.105c.074.331.112.674.08 1.013m4.192-2.617l-1.921-1.119 1.119 1.921-1.2.895 1.194.89-1.07 1.882 1.882-1.07.89 1.194.534-.717.36-.483 1.921 1.119-1.119-1.921.483-.36.717-.534-1.194-.89 1.07-1.882-1.882 1.07-.89-1.194-.895 1.2" fill="#e5e5e5"/><path d="m150.28 188.04c-1.634-.079-3.265-.134-4.886-.113-1.767.022-3.538.134-5.316.404l-.412.062-.069-.413c-.233-1.393-.5-2.786-.901-4.179-.368-1.28-.851-2.558-1.526-3.835-.582-.076-1.162-.123-1.736-.141h-.018c-.751-.023-1.486-.037-2.203-.043.705 1.27 1.229 2.546 1.631 3.821.45 1.425.748 2.854.977 4.274l4.666 3.518c.214.162.427.326.638.492 2.696-.114 5.497-.085 8.248.077.564.033 1.108.07 1.628.111.349.027.71.058 1.082.093-.304-1.586-.939-2.897-1.803-4.128" fill="url(#G)"/><path d="m127.43 171c-.311.037-.623.06-.935.07-.784.026-1.564-.031-2.332-.165-.056 1.981-.368 3.964-.839 5.59-.101.349-.208.679-.321.987-.073.2-.147.39-.223.569l1.922 1.449c.855-.152 1.765-.269 2.725-.357.424-1.861.5-3.895.303-5.969-.04-.418-.092-.849-.157-1.292-.043-.293-.091-.588-.144-.883m-4.109-.274c-.211-.053-.422-.112-.631-.176-.18 1.034-.482 2.031-.861 2.99-.379.96-.841 1.89-1.34 2.783l1.592 1.2c.043-.108.085-.218.126-.329.108-.297.21-.609.304-.934.464-1.605.769-3.575.81-5.534m-1.583-.512c-2.01.807-4.244 1.5-6.581 2.089l4.65 3.506c.455-.822.878-1.683 1.232-2.581.377-.954.672-1.943.838-2.959-.047-.018-.093-.036-.14-.055m-9.476-4.688c.89-.377 1.77-.732 2.631-1.063-.851-1.303-1.544-2.766-2.031-4.359v-.002c-1.194-3.908-.925-7.863.475-11.1.331-.765.725-1.49 1.178-2.165-1.84.986-3.077 2.951-3.687 5.466-.678 2.799-.578 6.269.334 9.842.287 1.124.653 2.256 1.1 3.378" fill="url(#F)"/><path d="m103.91 195.69c.003 3.359-.704 6.525-1.4 9.641-.652 2.922-1.294 5.798-1.314 8.711.684-.076 1.391-.218 2.131-.433-.294-.932-.383-1.855-.276-2.802.139-1.234.613-2.495 1.403-3.859.034-.059.138-.236.254-.434 1.284-2.188 3.405-5.804 3.389-11.411-.061.001-.125.018-.189.025-1.372.15-2.686.354-3.999.561m-3.561 18.413c.001-3.02.667-5.965 1.334-8.954.676-3.03 1.363-6.107 1.38-9.326-.832.13-1.665.257-2.501.367l-1.748 17.855c.506.055 1.016.075 1.535.058m3.277.302c-.897.265-1.751.429-2.579.504-.793.072-1.56.061-2.315-.019l-.33 3.369c.622-.068 1.248-.147 1.88-.237.636-.091 1.272-.195 1.906-.311.71-.13 1.591-.171 1.865-.976.102-.301.096-.638.026-.997-.077-.391-.231-.81-.411-1.238l-.041-.095m-9.807.849c-.859.371-1.709.762-2.525 1.189-1.071.56-2.099 1.191-3.039 1.931-.13.102-.22.188-.276.257.091.025.215.039.368.04.791.008 1.595.001 2.408.003.697-.006 1.406-.02 2.124-.042l.941-3.378" fill="url(#E)"/><path d="m108.18 200.85c-.756 2.7-1.918 4.681-2.744 6.089-.06.103-.126.215-.251.431-.231.399-.433.787-.604 1.167.857.067 1.692.119 2.502.149 2.219.084 4.255.012 6.02-.324-.404-.695-.82-1.388-1.249-2.078-.641-1.033-1.31-2.059-2.01-3.076-.544-.795-1.1-1.581-1.671-2.358" fill="#e5e5e5"/><path fill="url(#0)" d="m93.66 218.98l3.84-.24 2.05-20.91z"/><path d="m116.98 181.46c-1.69 1.289-3.419 2.69-5.08 4.04-1.348 1.094-2.653 2.151-3.847 3.077.5.707 1 1.477 1.514 2.33.094.156.177.311.25.464l10.28-7.54-3.118-2.367m-12.436 3.02c.849.822 1.645 1.681 2.424 2.652.197.245.392.497.587.758 1.186-.92 2.477-1.967 3.811-3.048 1.617-1.311 3.298-2.674 4.913-3.912l-5.202-3.949c-1.945 1.702-3.996 4.127-5.831 6.557-.245.324-.478.638-.702.942m-1.433 2.01c.817 1 1.617 1.966 2.405 2.89.9 1.055 1.772 2.041 2.62 2.947.159.171.151.438-.02.598-.07.066-.157.102-.246.112v.0001c-1.303.135-2.609.317-3.919.538-1.225.207-2.441.445-3.649.709-.026.24-.05.45-.073.66l-.048.433c1.16-.146 2.271-.321 3.38-.496 1.406-.222 2.811-.443 4.25-.601.377-.041.686-.139.924-.283.23-.138.396-.322.495-.539.103-.224.138-.494.105-.796-.044-.398-.207-.848-.494-1.326-.862-1.433-1.69-2.625-2.534-3.677-.735-.916-1.479-1.724-2.265-2.492-.314.436-.62.871-.916 1.298h.0001l-.016.023" fill="url(#D)"/><path d="m120.81 184.36l-10.688 7.84c.029.127.051.251.064.373.05.453-.011.871-.178 1.237-.171.373-.449.685-.83.914-.049.03-.1.058-.153.085 2.435 3.833 5.495 9.211 8.398 14.315.863 1.517 1.714 3.01 2.473 4.338.19-.573.37-1.15.539-1.73.681-2.339 1.255-4.914 1.667-7.376.038-.231.257-.387.488-.349.042.007.081.02.117.037 3.054 1.49 6.144 3.295 9.197 5.077l.431.252c-.222-2.556-.875-5.345-1.531-8.145-.14-.596-.279-1.191-.451-1.947-.051-.228.092-.455.32-.506.105-.024.208-.006.296.041l.048.023c.447.214.909.429 1.382.641.465.208.932.409 1.397.6 1.825.749 3.622 1.343 5.132 1.582-.095-.089-.19-.179-.285-.27-.427-.408-.865-.848-1.305-1.309-2.168-2.269-4.396-5.08-5.537-7.378l-10.992-8.344" fill="url(#C)"/><path d="m139.82 250.13c1.401.103 2.989.195 4.488.142 1.566-.055 3.046-.266 4.121-.78.151-.34.272-.72.378-1.119.135-.504.129-.804.028-.988-.197-.361-1.878-1.035-2.142-1.134-1.138-.428-2.377-.701-3.55-.696-.622.598-1.226 1.249-1.775 1.967-.599.784-1.131 1.647-1.549 2.609" fill="url(#Y)"/><path d="m144.06 244.76c1.389.137 2.804.58 4.04 1.177.163-.867.465-1.587.9-2.167.545-.727 1.289-1.225 2.219-1.51.426-.131.822-.336 1.058-.667.232-.324.324-.795.159-1.476l-.003-.013v-.002c-.165-.679-.311-1.364-.438-2.056-.127-.689-.235-1.389-.326-2.101-.458-3.595-.435-7.378.063-11.329l-.029-.055c-.709-1.352-1.544-2.236-2.438-2.88-.9-.649-1.876-1.067-2.844-1.474v.0001c-1.961-.75-4-1.612-5.875-2.642-1.567-.861-3.02-1.842-4.217-2.976-.018.3-.044.601-.077.902-.008.066-.03.131-.07.189-.13.194-.393.246-.588.116-2.779-1.863-5.649-3.63-8.474-5.138-.551-.294-1.099-.578-1.641-.849l-.144-.072c2.027 2.453 4.512 4.556 7.21 6.381 3.076 2.08 6.423 3.798 9.682 5.26.799.358 1.549.753 2.213 1.213.678.47 1.267 1.01 1.728 1.649.762 1.056 1.186 2.247 1.427 3.48.235 1.204.292 2.45.32 3.651v.025.002c.009.375.012.747.001 1.114-.002.371-.009.731-.022 1.073-.068 1.822-.298 3.378-.748 4.278-.324.648-.588 1.212-.764 1.74-.172.515-.267 1.01-.264 1.539.005.708-.237 1.406-.695 2.094-.341.511-.802 1.018-1.371 1.523m8.158-51.725c-.406-.038-.832-.075-1.278-.11-.554-.043-1.091-.081-1.612-.111-2.403-.141-4.841-.18-7.208-.111.121.103.241.207.36.31 1.704 1.488 3.142 3.03 4.063 4.324 1.014 1.425 1.416 2.626.926 3.275h-.0001c-.016.021-.03.038-.042.053l-.003.004c-.21.239-.522.371-.917.406-.329.029-.723-.007-1.167-.102-.929-.199-2.128-.663-3.427-1.307 1.024 1.124 2.216 2.23 3.463 3.244.35.285.715.57 1.092.854.344.26.706.522 1.085.786l.008.005.007.005c.077.053.137.132.165.228.067.225-.061.461-.286.528-3.979 1.185-8.37-.339-12.612-1.859.07.324.146.669.221 1.013.649 2.97 1.303 5.962 1.304 8.953 1.224 1.312 2.828 2.429 4.591 3.398 1.832 1.01 3.837 1.853 5.769 2.593l.013.007c1.018.428 2.045.866 3.02 1.572.99.714 1.913 1.689 2.693 3.175 1.251 2.383 2.372 4.938 3.308 7.511.182.499.357 1 .525 1.503.165.492.326.993.482 1.503l.002.002v.002h-.0001c.169.551.25 1.101.233 1.65-.017.555-.133 1.108-.36 1.661-.181.441-.266.886-.295 1.333-.03.463 0 .93.047 1.399.077.764-.011 1.527-.267 2.289-.182.543-.449 1.083-.8 1.62 1.665.18 3.3.804 4.725 1.697-.464-1.289-.457-2.242-.109-3.03.427-.968 1.34-1.619 2.517-2.314.038-.023.076-.047.111-.071v.0001c.488-.335.715-.853.729-1.447.015-.648-.216-1.388-.639-2.103-.075-.127-.147-.241-.217-.342-1.27-1.849-2.422-3.719-3.266-5.696-.852-1.996-1.393-4.103-1.432-6.406-.02-1.202-.119-2.438-.217-3.674-.036-.449-.072-.898-.106-1.389v-.002l-.002-.036c-.065-.93-.413-1.796-1.06-2.415-.126-.121-.262-.231-.407-.33-.147-.1-.307-.19-.479-.269h-.002l-.008-.004c-1.203-.549-2.316-1.206-3.636-1.985l-.119-.07c-2.114-1.248-3.185-3.126-3.056-5.512.025-.459.094-.933.207-1.42.113-.484.272-.987.476-1.505l.0001-.002c2.443-6.195 3.212-10.252 2.88-13.284m-17.381-5.899c-.2-1.086-.453-2.179-.799-3.274v-.002c-.43-1.364-1-2.726-1.798-4.077-.914.004-1.797.024-2.648.062-1.413.064-2.732.181-3.947.36l9.192 6.93m3.373-7c.559 1.147.977 2.293 1.307 3.439.37 1.287.629 2.574.851 3.862 1.669-.231 3.343-.329 5.02-.35 1.416-.018 2.826.02 4.233.081-.468-.582-.984-1.156-1.536-1.744-2.342-2.495-5.477-4.219-8.769-5.04-.368-.092-.737-.173-1.106-.242" fill="url(#B)"/><path d="m146.78 200.11l.003-.003.008-.001v-.002c.236-.313-.147-1.159-.94-2.272-.885-1.244-2.276-2.733-3.93-4.178-.609-.532-1.261-1.062-1.941-1.576l-25.749-19.414-3.134 3.265 26.12 19.827c2.843 2.158 6.266 3.955 8.299 4.389.367.078.678.11.918.089.171-.015.29-.054.349-.117z" fill="url(#A)"/><path d="m160.64 247.79c-1.661-1.315-3.8-2.257-5.944-2.349-.544.528-1.064 1.095-1.571 1.757-.552.72-1.09 1.555-1.627 2.574-.06.114-.112.207-.161.296l-.04.073c2.965.09 5.957.09 8.854-.623.104-.125.195-.259.271-.398.224-.412.311-.873.22-1.315l-.003-.016" fill="url(#Z)"/><path d="m80.933 139.47c-.187-.176-.365-.347-.536-.513-.605-.583-1.125-1.085-1.654-1.379-1.227-.683-2.355-.745-3.338-.064-.196.136-.389.302-.578.499-.138.144-.274.304-.407.481.121.146.237.298.347.453.279.397.518.825.699 1.284.053.134.101.27.143.409.096-.062.196-.124.3-.183.268-.154.555-.297.855-.423 1.16-.484 2.603-.761 4.168-.565m5.173 4.02c-.265-.228-.505-.481-.745-.735-.101-.107-.203-.214-.296-.309l-.003-.003c-.409-.416-.821-.769-1.267-1.064-.441-.292-.918-.528-1.461-.714l-.019-.006c-1.967-.668-3.826-.421-5.224.163-.276.115-.53.241-.759.373-.146.084-.285.173-.417.264 1.649.599 3.217 1.498 4.704 2.672 1 .123 2.01.148 3.02.019.823-.105 1.647-.314 2.466-.658m5.951 5.01c-.451-1.887-1.815-3.227-3.284-3.939-.319-.155-.643-.28-.963-.374-.276-.081-.55-.14-.815-.174-1.071.528-2.159.832-3.249.971-.675.086-1.348.109-2.02.082.95.861 1.865 1.838 2.746 2.923 1.901.14 3.77.247 5.637.354l1.379.079h.001.002c.13.008.258.023.382.044.056.001.113.021.171.034m4.871 6.54c-.406-1.249-1.074-2.422-1.989-3.478-.201-.232-.416-.46-.642-.683-.223-.219-.461-.434-.714-.646l-.002-.002c-.513-.43-1.031-.72-1.544-.862-.094-.026-.192-.048-.294-.065-.1-.017-.196-.028-.289-.034h-.009l-1.379-.079c-1.635-.094-3.271-.187-4.885-.299.385.51.762 1.041 1.133 1.593.013.011.025.023.037.037.641.713 1.758.67 2.786.631 1.153-.044 2.215-.085 2.794.782.13.194.078.458-.116.588-.194.13-.458.078-.588-.116-.316-.474-1.152-.441-2.06-.406-.64.025-1.309.05-1.931-.077.237.387.472.782.703 1.186.425.208.843.396 1.254.564.437.179.885.343 1.343.493 2.131.697 4.271.982 6.392.877m4.286 7.73c-.153-2.217-1.074-4.154-2.279-5.527-.26-.296-.534-.566-.818-.809-.251-.214-.508-.405-.768-.569-2.346.165-4.717-.124-7.08-.895-.457-.149-.924-.321-1.399-.516-.082-.034-.164-.068-.246-.102.495.924.975 1.888 1.442 2.891l.012.011c.827.76 1.89.705 2.911.652 1.153-.059 2.262-.116 3.162.782.166.165.167.433.002.599-.165.166-.433.167-.599.002-.635-.634-1.559-.586-2.521-.537-.787.04-1.595.082-2.365-.179.093.211.184.422.276.636.197.461.391.929.582 1.404.182.105.368.202.557.292.223.106.451.201.683.285 1.21.439 2.59.616 4.14.53h.035c1.769.052 3.163.427 4.27 1.051m2.989 6.207c-.378-1.714-.969-3.235-2-4.358-1.113-1.208-2.764-1.976-5.258-2.053-1.659.091-3.146-.103-4.461-.58-.166-.06-.328-.124-.487-.193.401 1.042.789 2.117 1.166 3.222.877.775 2.276.728 3.616.683 1.62-.054 3.165-.106 4.01 1.144.131.193.081.457-.113.588-.193.131-.457.081-.588-.113-.584-.863-1.902-.819-3.284-.773-1.11.037-2.257.076-3.234-.306.574 1.758 1.118 3.583 1.632 5.469.398-.114.795-.234 1.191-.361.227-.073.455-.149.683-.227.021-.121.065-.244.135-.366.389-.683 1.383-1.146 2.05-1.523.281-.466.674-.703 1.131-.803.445-.098.933-.056 1.424.019.385.059.706.153 1.032.249.395.116.799.234 1.356.282m-3.596 8.788c.026.018.052.035.078.052h.002c.639.401 1.668.476 3.123-.291 1.01-.532 2.063-1.02 3.192-1.363.821-.249 1.677-.42 2.576-.472-.044-.038-.088-.076-.134-.115-.736-.626-1.567-1.18-2.328-1.56-.723.837-1.344 1.505-1.94 1.966-.628.487-1.228.744-1.875.729-.837.477-1.744.872-2.695 1.053" fill="url(#9)"/><path d="m63.14 143.51c.233-.058.478-.105.739-.139.529-.222.862-.906 1.217-1.632.657-1.345 1.372-2.81 3.494-2.712.234.001.415.208.405.442-.001.234-.208.415-.442.405-1.566-.073-2.154 1.132-2.694 2.237-.202.413-.398.815-.632 1.159 1.148-.14 2.156-.727 3.112-1.285.78-.455 1.53-.891 2.339-1.095-.035-.791-.262-1.66-.556-2.539-.301.002-.626-.007-.967-.016-.718-.019-1.511-.041-2.277.036-2.054.205-3.972 1.175-3.739 5.141" fill="url(#W)"/><path d="m108.71 137.01c.306.858.49 1.835.439 2.6-.014.207-.045.402-.094.579-.054.191-.131.364-.233.512v.0001.002c-.431.62-.697 1.114-.673 1.393.001.124.237.179.769.135.317-.025.386.217.744.017.113-.063.19-.169.202-.329l.0001-.019.598.035-.0001.023v.004c-.028.388-.223.649-.509.809-.138.077-.295.126-.464.153.016.134.017.276.018.422.002.283.004.598.194.752l1.482-.064.026.598-1.225.053c-.02.147.03.259.109.344v.002c.015.016.04.039.073.065.032.026.061.048.086.064l.005.002.002.0001v.0001c.566.37.491.637.395.975-.019.068-.042.149.02.257.09.155.34.247.749.245.091 0 .196-.007.314-.02.122-.014.245-.033.367-.058v-.002h.004.005c1.965-.368 2.995-2.101 3.274-4.286.056-.442.083-.902.08-1.373-.002-.434-.03-.887-.083-1.349-.061-.114-.109-.235-.144-.362-1.332-.567-2.661-1.102-3.976-1.523-.85-.272-1.7-.498-2.55-.657z" fill="url(#k)"/><path d="m75.02 151.88c-.106.25-.259.475-.448.664-.376.376-.897.609-1.472.61v.0001h-.0001v-.0001c-.172 0-.339-.021-.499-.06l.001.06.002.001v.0001c.048.301.09.599.125.892.037.311.07.63.099.953.132 1.519.17 3.244.099 5.02 1.248-.47 2.16-1.22 2.807-2.187.036-1.228-.073-2.824-.345-4.335-.053-.297-.116-.601-.188-.91-.058-.247-.12-.488-.187-.723" fill="url(#U)"/><path d="m60.31 157.66l.043.129c.422-.112.853-.232 1.291-.358.562-.163 1.142-.341 1.737-.536 2.988-.977 6.04-2.28 8.648-3.99l.03-.02c-.162-.093-.311-.207-.442-.338-.376-.376-.609-.897-.61-1.472h-.0001v-.002h.0001c0-.042.0001-.084.004-.126-1.814.888-3.621 1.722-5.421 2.517-1.782.786-3.563 1.536-5.343 2.262.176.3.277.649.278 1.023h.002v.0001h-.002c0 .327-.077.636-.215.909" fill="url(#8)"/><path d="m71.21 169.93c1.017.52 2.08.978 3.18 1.373 5.974 2.148 13.05 2.444 19.991.632-.604-2.22-1.246-4.342-1.925-6.355-.718-2.126-1.481-4.141-2.289-6.04-2.318-5.43-5-9.834-8.06-12.939-.187.223-.373.437-.558.643-.308.342-.626.675-.952.998-.857.849-1.747 1.6-2.635 2.236.12 2.601-.102 4.955-.955 6.815-.779 1.697-2.068 2.972-4.075 3.637-.176 3.036-.607 6.166-1.722 8.995m7.534-26.11c-1.419-.922-2.906-1.591-4.463-1.983-.233-.274-.164-.549.206-.823.124.031.248.065.371.099-.049-.197-.111-.389-.184-.575-.155-.392-.361-.761-.603-1.105-.989-1.406-2.56-2.395-3.713-2.932.6 1.577 1.213 3.24 1.171 4.735l-.006.213c.849 1.637 1.56 3.328 2.124 5.04.114.347.228.715.342 1.106.059.202.115.401.168.596.854-.6 1.641-1.246 2.385-1.954.773-.736 1.499-1.537 2.202-2.421m-1.61 7.217c-.459.292-.915.551-1.362.775.056.201.108.407.156.617.069.298.134.616.194.948.182 1.01.293 2.056.339 3.01.555-1.506.728-3.338.672-5.354" fill="url(#7)"/><path d="m97.32 171.94c-.221.076-.443.149-.666.221-7.747 2.494-15.823 2.36-22.546-.057-6.707-2.411-12.07-7.092-14.436-13.701-.329.233-.732.37-1.167.371v.0001h-.002v-.0001c-.097 0-.192-.007-.286-.02.021 1.654-.073 3.308-.299 4.961-.227 1.661-.587 3.32-1.099 4.976l4.319-.065.502-.008-.077.496-.781 5.058 4.637-.628.434-.059.044.437.393 3.901 4.446-1.588.41-.147.136.415 1.221 3.729 3.79-2.04.335-.18.216.315 2.086 3.038 3.072-2.856.255-.237.282.206 2.726 1.986 2.164-2.836.242-.317.331.222 2.61 1.752 1.771-2.899.217-.356.359.209 2.599 1.517.329-2.771.053-.447.442.078.1.018c-.162-.101-.292-.248-.369-.43-.211-.498-.079-1.147.427-1.399.376-.186.749-.386 1.102-.615-.129-.07-.238-.155-.326-.252" fill="url(#6)"/><path d="m70.17 177.34c-.147 1.864-.384 3.926-.154 5.78.897-.729 2.033-1.26 3.429-1.576h.002.0001c.072-.017.148-.038.226-.063.076-.025.149-.053.218-.082.346-.151.641-.378.792-.666.25-.278.893-.031.75.392-.248.473-.694.828-1.204 1.051-.098.043-.197.08-.294.112-.096.031-.197.059-.302.083h-.002-.0001c-2.357.534-3.881 1.742-4.691 3.526.525-.695 1.136-1.253 1.802-1.654 1.139-.687 2.437-.914 3.746-.596.321.078.639.188.953.329.223.443.106.701-.349.774-.27-.122-.539-.215-.803-.28-1.083-.263-2.16-.073-3.109.499h-.002c-.971.584-1.815 1.568-2.407 2.876-.213.47-.392.978-.533 1.523 5.04-1.666 10.546-2.861 16.388-3.658 5.987-.817 12.333-1.217 18.91-1.28.35-.483.697-.954 1.036-1.403 1.795-2.377 3.802-4.756 5.739-6.494-1.082-.018-2.098.157-3.063.45-1.061.322-2.07.79-3.042 1.303-1.777.937-3.105.801-3.97.258-.176-.112-.332-.237-.465-.373-.095-.096-.18-.197-.257-.303-.508-.048-1.012-.308-1.016-.909-.569-.023-.992-.398-.993-.982-.249-.064-.461-.21-.605-.405l-.221-.039-.353 2.968-.076.643-.559-.326-2.8-1.634-1.785 2.921-.231.377-.367-.246-2.646-1.776-2.173 2.848-.251.329-.335-.244-2.779-2.024-3.177 2.953-.36.335-.279-.406-2.149-3.129-3.901 2.1-.446.24-.158-.482-1.243-3.796-.439.157" fill="url(#5)"/><path d="m36.446 211.92c2.59-1.359 4.897-3.124 6.904-5.262-.099-.52-.329-1.021-.547-1.495-.041-.089-.081-.179-.121-.267-2.201-.11-4.353.631-6.094 1.951-.107.394-.167.798-.154 1.208v.016c.026.689.017 1.38.009 2.071-.007.591-.014 1.183.002 1.778m6.797-3.937c-1.986 1.962-4.242 3.595-6.741 4.862.03.163.08.248.147.264.177.042.487-.081.903-.332.988-.596 1.87-1.172 2.697-1.796.827-.624 1.602-1.296 2.376-2.087.3-.306.498-.611.618-.912" fill="url(#4)"/><path d="m46.777 224.47c-.659.264-1.313.482-1.964.653-1.456.383-2.904.538-4.381.464-.022.139-.028.265-.014.372.001.076.03.136.061.175.023.03.06.053.112.067.083.023.194.026.34.007 1.675-.226 3.34-.69 4.987-1.365.28-.115.567-.24.859-.374m-6.129.277c1.331.049 2.636-.099 3.949-.444 1.443-.38 2.897-.998 4.403-1.853.036-.139.065-.279.09-.419.06-.331.064-.66.068-.989.0001-.085.002-.171.004-.257-1.276-.681-2.995-.996-4.556-1.049-.324-.011-.641-.011-.946 0-.24.008-.475.024-.703.046-.047.039-.093.08-.138.122-.312.293-.583.667-.826 1.144-.353.694-.631 1.41-.869 2.121-.177.53-.331 1.06-.477 1.579" fill="url(#X)"/><path d="m73.09 148.98v.0001c.177 0 .348.022.512.064l-.037-.149v-.002c-.095-.376-.193-.738-.294-1.085-.099-.34-.211-.7-.336-1.08-.562-1.706-1.27-3.385-2.115-5.01-.672.185-1.35.579-2.054.99-.171.1-.344.201-.518.3.609 1.174 1.162 2.345 1.679 3.514.503 1.136.97 2.268 1.42 3.397.079-.119.169-.231.269-.331.376-.376.897-.609 1.472-.61v-.0001h.0001" fill="url(#T)"/><path d="m59.14 154.83c-.285-1.01-.589-2.041-.915-3.02-.37-1.113-.772-2.173-1.212-3.088l-.211.061c-.056.016-.084.024-.321.095-.484.183-.968.339-1.436.489l-.125.04c.088.172.176.35.265.535.145.302.288.612.426.93.604 1.386 1.121 2.877 1.512 4.403.361-.337.846-.544 1.379-.544v-.0001h.002v.0001c.222 0 .436.036.636.103" fill="url(#V)"/><path d="m98.54 198.3l-1.421-.917-2.271 2.806-.244.302-.322-.217-2.984-2.02-2.616 2.864-.252.276-.305-.215-2.91-2.048-2.592 3.035-.251.294-.316-.225-.085-.06c-1.468-.131-2.302.156-3.173.457-.478.165-.967.334-1.582.451-.221.042-.437.079-.651.11l-.216.245-.263-.181c-.986.119-1.915.148-2.853.176-.975.03-1.962.06-3.03.196-1.659.212-2.97.563-3.999 1.043-1 .466-1.729 1.051-2.248 1.743-1.989 2.651-5.152 3.686-8.212 4.688l-.053.017c-2.05.671-3.587 1.474-4.839 2.359-1.251.884-2.223 1.856-3.138 2.861-.581.638-1.187 1.223-1.82 1.717-.406.317-.822.596-1.249.827 1.559.054 3.276.357 4.635 1 .246-.475.562-.863.922-1.129.295-.219.62-.357.959-.397.346-.041.702.018 1.054.196.353.178.699.475 1.022.911.028.037.056.07.086.097.067.063.135.091.2.089.089-.003.195-.052.311-.138.071-.053.145-.12.22-.199.864-.919 1.81-1.726 2.74-2.518.617-.526 1.227-1.047 1.794-1.584l.008-.008c1.029-.976 2.048-1.861 3.257-2.545 1.223-.692 2.626-1.173 4.402-1.327 1.379-.12 2.722-.518 4.104-.927.555-.164 1.116-.331 1.684-.481 1.758-.466 3.544-.681 5.336-.705 1.786-.024 3.572.141 5.338.436 1.303.217 2.599.397 3.885.461 1.279.063 2.555.013 3.832-.23.172-.033.275-.051.383-.07 1.013-.178 2.486-.437 2.805-1.221l.0001-.002c.409-1.013.258-2.346.108-3.663-.102-.899-.204-1.792-.138-2.619v-.007c.027-.334.093-.615.222-.848.148-.268.367-.455.681-.561l.269.804c-.098.033-.165.09-.209.169-.063.114-.098.284-.116.503v.007c-.06.75.037 1.601.135 2.459.101.886.202 1.778.146 2.619.409.047.818.095 1.227.143l2.592-9.308m-61.4 7.165c1.617-.95 3.474-1.472 5.364-1.423.089-.83.27-1.537.526-2.04.178-.35.4-.615.663-.774.303-.184.639-.223.999-.091.246.09.499.263.755.531.087.089.174.164.262.222.16.108.321.163.467.159.132-.004.264-.061.386-.177.053-.052.105-.114.153-.186.899-1.338 1.839-2.562 2.846-3.689 1.01-1.128 2.079-2.156 3.237-3.097 1.393-1.132 2.859-1.42 4.322-.861.279.107.558.245.837.416.27.166.542.365.815.597l.021.018h.002c1.873 1.605 3.738 3.088 5.597 4.334 1.631 1.093 3.258 2 4.882 2.657-.132-1.051-.269-2.082-.425-3.068-.208-1.315-.456-2.609-.781-3.877l-.003-.008c-.317-1.352-.529-2.623-.629-3.803-1.159-.209-2.318-.459-3.486-.818-1.282-.394-2.567-.917-3.862-1.656-1.831-1.044-3.487-1.373-4.984-1.103-1.497.269-2.86 1.141-4.101 2.493-1.85 2.02-3.742 3.683-5.582 4.894-.365.24-.723.46-1.071.657-.353.2-.707.383-1.061.55l-.002.002h-.0001c-3.322 1.56-4 3.723-4.686 5.904-.084.266-.167.532-.272.846-.154.46-.422.954-.715 1.492-.156.287-.319.587-.472.898m43.613-4.152l-1.554-1.105-1.718 1.95c.373-.095.71-.212 1.042-.326.674-.232 1.327-.458 2.23-.519m-5.755 1.2l-2.276-1.565-1.706 1.751c.759-.063 1.48-.085 2.194-.107.594-.018 1.184-.037 1.787-.079" fill="url(#3)"/></g><g fill="#fff"><circle cx="73.09" cy="151.07" r="1.339"/><circle cx="58.5" cy="156.75" r="1.276"/><circle cx="116.98" cy="138.71" r=".966"/></g><circle cx="110.05" cy="215.55" r="1.596" fill-rule="nonzero"/><circle cx="110.05" cy="215.55" r=".997" fill="#fff"/><g fill-rule="nonzero"><circle cx="110.5" cy="139.54" r=".731"/><path d="m109.08 138.84l.011-.001c.119-.11.249-.206.388-.287.138-.08.283-.145.434-.194.766-.249 1.673-.094 2.355.533l-.507.551c-.471-.433-1.094-.541-1.617-.371-.102.033-.199.076-.29.129-.09.052-.175.115-.253.187l-.011.001-.51-.548"/><path d="m54.4 95.62l-1.286.581-17.13-49.599-2.309-.787v-.002c-.199-.068-.365-.223-.439-.437l-3.273-9.479c-.126-.367.069-.767.435-.893l4.898-1.691c.367-.126.767.069.893.435l1.594 4.615 2.043-.706-1.594-4.617c-.126-.367.069-.767.435-.893l5.28-1.823c.367-.126.767.069.893.435l1.594 4.616 2.044-.706-1.594-4.617c-.126-.367.069-.767.435-.893l4.962-1.713c.367-.126.767.069.893.435l3.256 9.43c.093.217.074.475-.071.682l-1.499 2.125 2.314 6.701c.195-.069.395-.139.597-.211.18-.063.361-.125.542-.188l-1.465-4.417c-.12-.364.074-.756.433-.883v-.002c.801-.283 1.587-.552 2.358-.807.742-.245 1.543-.5 2.397-.764.371-.114.765.094.879.466l.007.023 1.481 4.465c.526-.151 1.073-.305 1.64-.46.581-.159 1.123-.304 1.625-.435l-1.275-4.589c-.103-.374.116-.762.491-.865l.006-.002v-.0001c.811-.216 1.65-.432 2.522-.648.832-.205 1.684-.407 2.558-.604.377-.085.752.151.84.527l1.22 4.688c.152-.032.362-.075.657-.136.885-.182 1.783-.356 2.692-.524l-1.02-4.738c-.081-.38.162-.755.543-.835.013-.003.027-.005.041-.007.122-.023.37-.069.707-.13l.727-.133c1.25-.221 2.508-.427 3.774-.617.385-.058.744.208.802.593v.003l1.01 4.803.011-.002c.168-.023.387-.053.658-.089.899-.119 1.789-.229 2.672-.331l-.761-4.835c-.059-.383.204-.743.587-.802l.028-.004v-.002c.79-.091 1.629-.181 2.52-.269.904-.089 1.753-.167 2.545-.231.388-.03.728.26.758.648l.002.022.623 4.885c.187-.013.38-.027.579-.041.256-.017.524-.035.806-.052v-5.48l-2.129-1.656c-.179-.139-.272-.346-.272-.557v-10.03c0-.39.316-.706.706-.706h5.182c.39 0 .706.316.706.706v4.88h2.156v-4.88c0-.39.316-.706.706-.706h5.586c.39 0 .706.316.706.706v4.88h2.156v-4.88c0-.39.316-.706.706-.706h5.249c.39 0 .706.316.706.706v10.03c0 .258-.139.484-.346.607l-2.056 1.48v5.59c.38.023.739.046 1.075.069.199.014.392.028.579.041l.623-4.885.002-.022c.03-.388.37-.678.758-.648.792.065 1.641.142 2.545.231.891.088 1.73.178 2.52.269v.002l.028.004c.383.059.646.419.587.802l-.761 4.835c.883.101 1.774.211 2.672.331.27.036.49.065.658.089l.011.002 1.01-4.803v-.003c.058-.385.417-.65.802-.593 1.266.19 2.524.396 3.774.617l.727.133c.338.062.585.107.707.13.013.002.027.004.041.007.381.081.624.455.543.835l-1.02 4.738c.909.168 1.807.343 2.692.524.295.06.505.104.656.136l1.221-4.687c.087-.376.462-.612.839-.527.873.197 1.725.399 2.558.604.872.215 1.712.431 2.522.648v.0001l.006.002c.374.103.594.491.491.865l-1.275 4.589c.502.132 1.044.276 1.625.435.567.155 1.114.309 1.64.46l1.481-4.465.007-.023c.114-.371.508-.58.879-.466.855.264 1.655.519 2.397.764.771.255 1.557.523 2.358.807v.002c.36.127.554.519.433.883l-1.465 4.417c.182.063.363.125.542.188.203.071.402.141.597.211l2.314-6.701-1.499-2.125c-.146-.207-.164-.465-.071-.682l3.256-9.43c.126-.367.526-.562.893-.435l4.962 1.713c.367.126.562.526.435.893l-1.594 4.617 2.044.706 1.594-4.616c.126-.367.526-.562.893-.435l5.28 1.823c.367.126.562.526.435.893l-1.594 4.617 2.043.706 1.594-4.615c.126-.367.526-.562.893-.435l4.898 1.691c.367.126.562.526.435.893l-3.273 9.479c-.074.214-.24.369-.439.437v.002l-2.309.787-17.13 49.599-1.286-.581c-7.892-3.498-16.206-6.02-24.699-7.668-25.03-4.856-53.43-2.561-76.51 7.668"/><path d="m104.36 54.06v-4.04c-2.115.007-4.195.062-6.239.161-.419.02-.852.043-1.298.069-.269.016-.55.032-.841.051v4.04c.253-.016.515-.031.787-.047.42-.024.855-.047 1.306-.069 2.093-.101 4.19-.157 6.286-.165m5.115-9.01v4.047l.13.004c.264.009.519.018.764.028h.002c1.141.045 2.263.102 3.367.172v-4.04c-1.143-.073-2.278-.132-3.406-.176-.262-.001-.515-.02-.759-.028l-.099-.003m-8.232-.028v4.045c1.205-.031 2.411-.047 3.617-.047h.018v.002c1.208 0 2.407.016 3.597.046v-4.047c-1.196-.031-2.396-.047-3.597-.047v.002h-.018c-1.217 0-2.423.015-3.617.046m-.996 4.074v-4.045c-.713.023-1.422.052-2.126.086-.419.02-.852.043-1.298.069-.269.016-.55.032-.841.051v4.04c.253-.016.515-.031.787-.047.42-.024.855-.047 1.306-.069.724-.035 1.448-.065 2.173-.089m13.492-4.839v-7.457c-.114-.016-.22-.031-.317-.044-.079-.011-.165-.022-.258-.034l-.126 3.513c-.001.275-.241.49-.516.48-.014-.0001-.027-.0001-.041-.003-.369-.043-.704-.081-1.01-.112-.288-.03-.626-.061-1.015-.095-.275-.024-.479-.266-.455-.541l.0001-.016.128-3.549c-.241-.019-.497-.039-.768-.058-.252-.018-.499-.033-.739-.048l-.064 3.554c-.004.275-.231.495-.506.49h-.016c-.349-.017-.685-.031-1.01-.041-.347-.011-.686-.02-1.017-.026-.275-.004-.495-.231-.49-.506v-.013l.064-3.564-.114-.002c-.088-.0001-.29-.002-.615-.002-.337 0-.527.0001-.615.002l-.114.002.064 3.577c.004.275-.215.502-.49.506h-.032l-.284.006-.286.007c-.464.012-.939.03-1.425.054-.275.013-.508-.2-.521-.475-.0001-.011-.0001-.021 0-.032l-.064-3.538c-.241.014-.488.03-.74.048-.271.019-.527.038-.768.058l.129 3.59c.009.267-.192.492-.455.514v.002h-.007c-.015.0001-.03.002-.044.002l-.241.021-.284.027c-.449.043-.931.096-1.445.157-.274.032-.522-.164-.555-.438-.003-.025-.004-.049-.003-.073l-.125-3.482c-.091.012-.176.023-.255.033-.098.013-.205.028-.32.044v7.457c.253-.016.515-.031.787-.047.42-.024.855-.047 1.306-.069 2.26-.109 4.523-.165 6.786-.165h.018v.002c1.591 0 3.167.027 4.728.08.265.009.519.018.764.028h.002c1.141.045 2.263.102 3.367.172m0-8.464v-2.741l-.111-.016-.114-.016-.033-.005-.04-.006-.117-.016-.051-.007-.023-.003-.044-.006c-1.064-.145-2.132-.261-3.202-.351l-.029-.002-.226-.018-.029-.002-.182-.014-.071-.005-.194-.014-.046-.003-.03-.002-.056-.004-.029-.002-.145-.001c-.139-.009-.278-.018-.417-.026h-.005c-3.908-.231-7.844-.093-11.723.414l-.03.004c-.135.018-.269.036-.403.054h-.003l-.138.019-.102.014-.039.006-.125.018v2.741l.187-.025c.316-.043.587-.078.808-.105v.002c.014-.002.027-.003.041-.003.275-.001.506.205.516.48l.127 3.52c.296-.032.606-.065.931-.096h.002l.11-.001-.129-3.593c-.009-.263.19-.491.455-.514.457-.041.878-.075 1.26-.102.403-.028.826-.054 1.271-.076h.016c.275-.004.501.215.506.49l.064 3.56c.306-.012.618-.023.936-.031l.111-.003-.064-3.58c-.004-.275.215-.502.49-.506.202-.004.408-.007.621-.009.323-.003.546-.005.623-.005.088 0 .299.002.623.005.212.002.419.005.621.009.275.004.495.231.49.506l-.064 3.58c.18.004.358.009.533.015.174.006.346.012.513.019l.064-3.534c0-.014 0-.028.0001-.041.013-.275.246-.487.521-.475.446.022.868.048 1.271.076.377.026.794.06 1.245.1.27.016.479.244.469.515l-.129 3.592c.174.017.36.035.558.056.169.017.33.035.485.052l.125-3.481c-.0001-.026 0-.053.003-.079.032-.274.281-.47.555-.438.222.027.493.062.81.105l.184.025m-17.758 48.605c2.781-.176 5.578-.271 8.379-.284v-3.833c-2.115.007-4.195.062-6.239.161-.419.02-.852.043-1.298.069-.269.016-.55.032-.841.051v3.836m9.379-.285c2.794.007 5.591.096 8.379.268v-3.819c-1.143-.073-2.278-.132-3.406-.176-.261-.001-.515-.02-.758-.028-1.401-.047-2.806-.074-4.214-.079v3.834m4.115-8.802v4.046l.13.004c.264.009.519.018.764.028h.002c1.141.045 2.263.102 3.367.172v-4.04c-1.143-.073-2.278-.132-3.406-.176-.261-.001-.515-.02-.758-.028l-.099-.003m-8.23-.029v4.045c1.205-.031 2.41-.047 3.615-.047h.018v.002c1.208 0 2.407.016 3.597.046v-4.047c-1.196-.031-2.396-.047-3.597-.047v.002h-.018c-1.216 0-2.422.015-3.615.046m-1 4.074v-4.045c-.712.023-1.42.052-2.124.086-.419.02-.852.043-1.298.069-.269.016-.55.032-.841.051v4.04c.253-.016.515-.031.787-.047.42-.024.855-.047 1.306-.069.724-.035 1.447-.065 2.171-.089m4.115-5.119v-4.04c-2.115.007-4.195.062-6.239.161-.419.02-.852.043-1.298.069-.269.016-.55.032-.841.051v4.04c.253-.016.515-.031.787-.047.42-.024.855-.047 1.306-.069 2.093-.101 4.19-.157 6.286-.165m1-4.046v4.047c1.427.005 2.843.032 4.246.079.264.009.519.018.764.028h.002c1.141.045 2.263.102 3.367.172v-4.04c-1.143-.073-2.278-.132-3.406-.176-.261-.001-.515-.02-.758-.028-1.401-.047-2.806-.074-4.214-.079m4.115-4.968v4.047l.13.004c.264.009.519.018.764.028h.002c1.141.045 2.263.102 3.367.172v-4.04c-1.143-.073-2.278-.132-3.406-.176-.261-.001-.515-.02-.758-.028l-.099-.003m-8.232-.029v4.045c1.205-.031 2.411-.047 3.617-.047h.018v.002c1.208 0 2.407.016 3.597.046v-4.047c-1.196-.031-2.396-.047-3.597-.047v.002h-.018c-1.217 0-2.423.015-3.617.046m-.996 4.074v-4.045c-.713.023-1.422.052-2.126.086-.419.02-.852.043-1.298.069-.269.016-.55.032-.841.051v4.04c.253-.016.515-.031.787-.047.42-.024.855-.047 1.306-.069.724-.035 1.448-.065 2.173-.089m4.113-5.119v-4.04c-2.115.007-4.195.062-6.239.161-.419.02-.852.043-1.298.069-.269.016-.55.032-.841.051v4.04c.253-.016.515-.031.787-.047.42-.024.855-.047 1.306-.069 2.093-.101 4.19-.157 6.286-.165m1-4.046v4.047c1.427.005 2.843.032 4.246.079.264.009.519.018.764.028h.002c1.141.045 2.263.102 3.367.172v-4.04c-1.143-.073-2.278-.132-3.406-.176-.261-.001-.515-.02-.758-.028-1.401-.047-2.806-.074-4.214-.079m4.115-4.968v4.047l.13.004c.264.009.519.018.764.028h.002c1.141.045 2.263.102 3.367.172v-1.062-2.982c-1.143-.073-2.278-.132-3.406-.176-.261-.001-.515-.02-.758-.028l-.099-.003m-8.232-.028v4.045c1.205-.031 2.411-.047 3.617-.047h.018v.002c1.208 0 2.407.016 3.597.046v-4.047c-1.196-.031-2.396-.047-3.597-.047v.002h-.018c-1.217 0-2.423.015-3.617.046m-.996 4.074v-4.045c-.713.023-1.422.052-2.126.086-.419.02-.852.043-1.298.069-.269.016-.55.032-.841.051v2.959 1.085c.253-.016.515-.031.787-.047.42-.024.855-.047 1.306-.069.724-.035 1.448-.065 2.173-.089m5.113-9.165v4.047c1.427.005 2.843.032 4.246.079.264.009.519.018.764.028h.002c1.141.045 2.263.102 3.367.172v-4.04c-1.143-.073-2.278-.132-3.406-.176-.261-.001-.515-.02-.758-.028-1.401-.047-2.806-.074-4.214-.079m9.105-17.868l1.265-.91v-8.964h-3.838v4.88c0 .39-.316.706-.706.706h-3.567c-.39 0-.706-.316-.706-.706v-4.88h-4.175v4.88c0 .39-.316.706-.706.706h-3.567c-.39 0-.706-.316-.706-.706v-4.88h-3.771v8.978l1.17.91.246-.038h.004l.031-.005.115-.017.059-.009c.164-.024.329-.048.493-.071l.109-.015.152-.021.023-.003c4.176-.566 8.422-.711 12.636-.432l.03.002.031.002.201.014.04.003.069.005h.005l.138.001.063.005h.012l.048.004.048.004.13.001.024.002c1.318.104 2.631.25 3.936.437l.038.005c.154.022.307.045.461.068l.007.0001h.004l.152.023" fill="url(#H)"/><path d="m106.73 53.611v-7.254c-.303-.732-1.024-1.247-1.865-1.247-.841 0-1.562.515-1.865 1.247v7.255h3.731"/><path d="m153.37 186.8c1.413.254 2.903.255 4.406.135 1.091-.087 2.01.112 2.742.525v-.0001c.611.344 1.088.835 1.427 1.432 1.01 1.773.65 4.01-.147 5.785-.124.276-.263.553-.418.827h.0001c-1.466 2.601-1.628 4.397-1.081 5.654.541 1.244 1.797 2 3.168 2.502.22.08.334.323.254.543-.08.22-.323.334-.543.254-1.561-.569-3-1.458-3.656-2.96-.616-1.418-.511-3.346.896-6-.629.485-1.28.941-1.896 1.444-1.693 1.381-2.526 3.161-2.664 4.936-.096 1.24.145 2.478.667 3.578.521 1.097 1.323 2.056 2.349 2.74 1.427.951 3.294 1.372 5.456.896.866-.19 1.651-.263 2.373-.171.748.096 1.416.367 2.01.862.181.149.206.417.056.598-.149.181-.417.206-.598.056-.47-.389-.993-.601-1.579-.676-.613-.079-1.307-.011-2.087.161-.859.189-1.677.249-2.448.2.077.4.191.817.34 1.239.59 1.674 1.726 3.421 3.298 4.669 1.555 1.234 3.54 1.975 5.848 1.661.351-.048.709-.12 1.077-.22-.989-.957-1.601-1.961-1.893-3.053-.342-1.281-.237-2.662.22-4.213.414-1.401.663-2.788.597-4.104-.065-1.289-.435-2.518-1.257-3.638-.721-.982-1.214-1.981-1.356-3.08-.142-1.103.075-2.284.776-3.616.997-1.894 1.808-4.088 1.753-6.35-.054-2.24-.965-4.568-3.404-6.77-2.91-2.627-6.285-3.404-9.612-2.588-.656.161-1.308.382-1.952.661-.646.28-1.289.621-1.926 1.021l-.043.027c-1.606 1.015-3.216 1.843-4.809 2.474-.389.154-.783.3-1.18.433.967 1 3.477 1.884 4.829 2.127" fill="url(#J)"/><path d="m54.1 38.76l.903-1.281-2.925-8.472-3.634 1.255 1.594 4.617c.126.367-.069.767-.435.893l-3.372 1.164c-.367.126-.767-.069-.893-.435l-1.594-4.616-3.952 1.364 1.594 4.617c.126.367-.069.767-.435.893l-3.371 1.164c-.367.126-.767-.069-.893-.435l-1.594-4.615-3.57 1.233 2.931 8.488 1.376.469c5.747-2.989 11.905-5.123 18.271-6.301m6.078 32.889l1.32 3.824c1.376-.425 2.743-.825 4.101-1.2l-1.319-3.821c-1.373.378-2.741.776-4.102 1.196m-7.789 2.658l1.321 3.825c1.119-.419 2.251-.826 3.397-1.221l.002-.0001.008-.002c.463-.16.884-.303 1.261-.429.418-.14.839-.279 1.263-.416.303-.098.605-.195.907-.291l-1.321-3.825c-.31.098-.619.198-.928.298-.414.134-.831.272-1.251.412-.457.153-.872.294-1.246.423l-.002.0001-.008.002c-1.142.394-2.277.803-3.404 1.225m.389 4.177l-1.32-3.825c-.667.256-1.332.516-1.994.781-.426.171-.828.334-1.205.489-.203.083-.401.165-.595.246l1.325 3.822c.182-.076.362-.15.538-.222.426-.175.831-.34 1.213-.493.675-.27 1.355-.536 2.04-.798m5.512 3.354l-1.321-3.826c-1.976.69-3.929 1.424-5.859 2.196-.426.171-.828.334-1.205.489-.201.083-.398.164-.59.244l1.325 3.822c.181-.075.358-.148.532-.22.426-.175.83-.339 1.213-.493 1.926-.771 3.895-1.51 5.905-2.212m-.38-4.151l1.321 3.826c.282-.097.547-.186.793-.268.418-.14.839-.279 1.263-.416 2-.65 3.992-1.246 5.959-1.789l-1.319-3.821c-2.01.552-4 1.149-5.982 1.791-.414.134-.831.272-1.251.412-.277.093-.538.18-.784.264m5.56 3.496l1.32 3.824c1.376-.425 2.743-.825 4.101-1.2l-1.319-3.821c-1.373.378-2.741.776-4.102 1.196m-7.789 2.658l1.321 3.825c1.119-.419 2.251-.826 3.397-1.221l.002-.0001.008-.002c.462-.159.883-.303 1.261-.429.418-.14.839-.279 1.263-.416.303-.098.605-.195.907-.291l-1.321-3.825c-.31.098-.619.198-.928.298-.414.134-.831.272-1.251.412-.457.153-.872.294-1.246.423l-.002.0001-.008.002c-1.142.394-2.277.803-3.404 1.225m.389 4.177l-1.321-3.825c-.668.256-1.332.516-1.994.781-.426.171-.828.334-1.205.489-.199.082-.394.162-.584.241l1.325 3.822c.179-.074.355-.147.527-.218.426-.175.83-.339 1.213-.493.675-.27 1.355-.537 2.04-.798m5.475 3.248l-1.284-3.72c-1.976.69-3.929 1.424-5.859 2.196-.426.171-.828.334-1.205.489-.197.081-.39.161-.579.239l1.322 3.813c2.495-1.103 5.03-2.107 7.606-3.02m-.343-4.044l1.283 3.716c2.645-.91 5.324-1.722 8.03-2.441l-1.292-3.743c-2.01.552-4 1.149-5.982 1.791-.414.134-.831.272-1.251.412-.277.093-.538.18-.785.264m-23.268-39.12l.016-.008c.281-.142.525-.263.728-.362v.0001c.013-.006.025-.012.038-.017.257-.099.545.028.645.285l1.269 3.287c.267-.126.541-.254.824-.383.001-.005.02-.011.031-.016l.096-.044-1.294-3.353c-.095-.246.018-.526.262-.635.397-.178.783-.347 1.157-.506.385-.164.777-.327 1.178-.487l.016-.006c.259-.094.545.04.639.299l1.222 3.344c.167-.066.327-.128.478-.186.155-.059.322-.122.499-.188l-1.22-3.339-.009-.022c-.095-.259.038-.546.297-.641.228-.083.428-.156.584-.212.192-.069.388-.138.59-.207v.002c.191-.066.38-.13.567-.192l.022-.008c.186-.062.376-.124.566-.186.008-.003.016-.006.024-.009.262-.085.544.058.629.32l1.107 3.403c.165-.052.335-.106.51-.16.159-.049.322-.099.489-.149l-1.102-3.387-.004-.016c-.077-.264.076-.541.34-.617.446-.13.854-.243 1.227-.344.391-.105.799-.21 1.224-.316.256-.062.519.085.596.34l1.05 3.437c.183-.044.365-.088.547-.131.16-.038.319-.074.475-.109l-1.02-3.338c-.009-.023-.016-.048-.021-.073-.057-.27.115-.535.385-.592.208-.045.475-.1.798-.164l.201-.04-.875-2.535c-5.785 1.103-11.415 3.04-16.656 5.727l.877 2.529m2.798 8.07c.192-.08.38-.158.565-.234.426-.175.83-.339 1.213-.492 2.074-.83 4.197-1.622 6.368-2.372l.002-.002.008-.002c.463-.16.884-.303 1.261-.429.418-.14.839-.279 1.263-.416 2-.65 3.992-1.246 5.959-1.789l-2.453-7.106c-.12.023-.231.045-.334.066-.077.015-.161.033-.254.052l1.028 3.364c.08.263-.069.541-.332.621-.013.004-.026.008-.039.011v.0001c-.338.073-.667.147-.988.222-.33.077-.661.157-.991.24-.267.067-.539-.096-.605-.363l-.002-.008-1.039-3.402c-.242.062-.492.127-.748.196-.248.067-.485.132-.711.195l1.1 3.382c.085.262-.058.544-.32.629-.014.005-.029.009-.044.012-.297.087-.612.181-.94.283-.303.094-.627.197-.969.308-.262.085-.544-.058-.629-.32l-1.106-3.401-.108.036-.021.007c-.189.063-.376.126-.562.19v.002c-.189.065-.382.133-.578.203l-.107.039 1.228 3.359c.094.259-.04.545-.299.639-.284.104-.601.223-.952.357-.345.132-.66.255-.941.367-.256.102-.546-.022-.648-.277l-.006-.016-1.22-3.339c-.227.093-.454.189-.682.285-.243.103-.479.206-.709.307l1.294 3.351c.095.247-.019.523-.256.632-.011.006-.022.011-.033.015l-.236.106-.262.12c-.009.004-.018.008-.028.012-.419.191-.849.394-1.291.608-.248.12-.546.016-.666-.232-.008-.018-.016-.035-.022-.054l-1.26-3.264c-.082.041-.158.078-.23.114l-.136.069 2.467 7.12m12.863-3.593l1.32 3.824c1.376-.425 2.743-.825 4.102-1.2l-1.319-3.821c-1.373.378-2.741.776-4.103 1.196m-7.789 2.658l1.32 3.825c1.119-.419 2.251-.826 3.397-1.221l.002-.002.008-.002c.463-.16.884-.303 1.261-.429.418-.14.839-.279 1.263-.416.303-.098.605-.195.907-.291l-1.32-3.825c-.31.098-.619.197-.928.298-.414.134-.831.272-1.251.412-.457.153-.872.294-1.246.423l-.002.0001-.008.002c-1.142.394-2.276.802-3.403 1.225m.389 4.178l-1.32-3.825c-.668.256-1.332.516-1.994.781-.426.171-.828.334-1.205.489-.21.087-.416.171-.617.255l1.325 3.822c.19-.079.377-.156.559-.231.426-.175.83-.339 1.213-.492.675-.27 1.354-.536 2.039-.798m5.511 3.354l-1.321-3.826c-1.976.69-3.929 1.423-5.859 2.196-.426.171-.828.334-1.205.489-.208.086-.412.17-.611.253l1.325 3.822c.188-.078.373-.155.554-.229.426-.175.83-.339 1.213-.493 1.926-.771 3.894-1.51 5.905-2.211m-.38-4.151l1.321 3.826c.282-.096.547-.186.793-.268.418-.14.839-.279 1.263-.416 2-.65 3.991-1.246 5.959-1.789l-1.319-3.821c-2.01.552-4 1.149-5.982 1.791-.414.134-.831.272-1.251.412-.277.093-.538.181-.785.264m5.561 3.496l1.32 3.824c1.376-.425 2.743-.825 4.101-1.2l-1.319-3.821c-1.373.378-2.741.776-4.102 1.196m-7.789 2.658l1.321 3.825c1.119-.418 2.252-.826 3.397-1.222l.002-.0001.008-.002c.462-.159.883-.303 1.261-.429.418-.14.839-.279 1.263-.416.303-.098.605-.195.907-.291l-1.321-3.825c-.31.098-.619.197-.928.298-.414.134-.831.272-1.251.412-.457.153-.872.294-1.246.423l-.002.0001-.008.002c-1.142.394-2.277.802-3.404 1.225m.389 4.178l-1.32-3.825c-.667.256-1.332.516-1.994.781-.426.171-.828.334-1.205.489-.206.085-.409.168-.606.251l1.325 3.822c.186-.078.369-.153.549-.227.426-.175.831-.34 1.213-.493.675-.27 1.354-.536 2.039-.798m5.512 3.354l-1.321-3.826c-1.976.69-3.929 1.424-5.859 2.196-.426.171-.828.334-1.205.489-.205.084-.405.167-.601.248l1.324 3.822c.184-.077.366-.152.543-.225.426-.175.83-.339 1.213-.493 1.926-.771 3.895-1.51 5.905-2.212m-.38-4.151l1.321 3.826c.282-.097.547-.186.793-.268.418-.14.839-.279 1.263-.416 2-.65 3.992-1.246 5.959-1.789l-1.319-3.82c-2.01.552-4 1.149-5.982 1.791-.414.134-.831.272-1.251.412-.277.093-.538.18-.785.264" fill="url(#I)"/><path d="m81.915 83.961c-1.653.27-3.287.568-4.901.894-1.135.229-2.283.477-3.443.743-.942.217-1.87.44-2.781.671l.683 1.977c3.48-.896 7.06-1.656 10.739-2.271l-.297-2.01m-5.81-4.332l-.294.061c-1.198.249-2.409.52-3.63.811-1.054.251-2.092.512-3.113.783l1.395 4.04c.963-.245 1.925-.478 2.885-.698 1.124-.258 2.281-.508 3.47-.748l.135-.027-.848-4.222m10.348-1.711c-3.186.402-6.313.909-9.372 1.514l.849 4.227c2.912-.561 5.883-1.034 8.905-1.414l-.382-4.327m-6.09-4.49c-2 .338-3.978.719-5.924 1.139-1.319.285-2.609.585-3.871.898-1.078.268-2.151.549-3.216.845l1.39 4.03c1.067-.284 2.138-.553 3.21-.808 1.184-.282 2.403-.554 3.657-.815 1.772-.369 3.568-.705 5.385-1.01l-.63-4.279m5.15-6.152c-3.587.456-7.098 1.045-10.52 1.757l.848 4.219c3.276-.665 6.631-1.218 10.06-1.65l-.382-4.326m-11.495 1.964c-.282.061-.564.123-.844.186-1.381.308-2.745.636-4.089.983-1.147.296-2.296.61-3.446.942l1.386 4.01c1.087-.301 2.189-.591 3.304-.868 1.301-.323 2.601-.626 3.898-.906.212-.046.425-.091.638-.136l-.847-4.214m4.793-6.344c-2.313.404-4.59.865-6.826 1.379-1.449.333-2.881.688-4.295 1.065-1.279.341-2.532.696-3.759 1.065l1.382 4c1.149-.332 2.325-.653 3.526-.963 1.361-.351 2.734-.681 4.12-.991 2.127-.475 4.289-.902 6.483-1.278l-.63-4.278m-6.877-4.03c-.413.094-.825.189-1.236.287-1.545.366-3.05.752-4.512 1.157-1.318.364-2.638.754-3.957 1.167l1.376 3.987c1.273-.384 2.55-.746 3.83-1.088 1.424-.38 2.867-.738 4.326-1.073.338-.078.677-.154 1.017-.23l-.845-4.207m12.638-2.231c-3.987.511-7.881 1.187-11.666 2.01l.846 4.212c3.639-.776 7.378-1.413 11.202-1.9l-.382-4.326m10.413-.944c-3.188.172-6.331.447-9.42.82l.382 4.327c2.965-.356 5.981-.622 9.04-.794v-1.738-2.615m0 5.352c-5.199.294-10.274.864-15.189 1.686l.631 4.281c4.72-.775 9.583-1.319 14.559-1.613v-4.354m0 5.353c-2.867.17-5.696.424-8.48.758l.382 4.327c2.661-.317 5.362-.561 8.098-.73v-4.355m0 5.354c-4.654.29-9.209.8-13.637 1.515l.631 4.282c4.229-.67 8.572-1.156 13.01-1.442v-4.356m0 5.355c-2.545.166-5.06.397-7.54.692l.382 4.328c2.356-.279 4.743-.5 7.157-.663v-4.356m0 5.357c-4.117.279-8.151.731-12.08 1.343l.296 2.01c3.472-.553 7.02-.977 10.638-1.262.383-.03.766-.059 1.15-.086v-2.01m0-41.756c-.229.015-.466.03-.712.047-.381.026-.791.056-1.233.09v-.002c-.371.028-.702-.24-.75-.613l-.629-4.933c-.652.056-1.269.112-1.85.17-.567.056-1.157.119-1.769.187l.754 4.789c.006.026.001.052.013.079.041.386-.239.733-.626.774-1.151.126-2.276.262-3.373.408-.167.022-.384.052-.652.089-.104.014-.325.046-.627.089l-.018.003h-.005c-.366.053-.715-.187-.791-.554l-1.016-4.834c-1.036.16-2.065.331-3.085.511l-.721.128-.009.002 1.02 4.74h-.0001l.004.022c.068.382-.186.747-.568.816-1.124.202-2.25.419-3.376.65-.141.029-.368.076-.651.136-.131.028-.354.075-.649.139h-.003c-.366.077-.732-.147-.827-.513l-1.222-4.695c-.618.143-1.24.292-1.867.447-.592.146-1.195.3-1.808.461l1.262 4.542c.007.021.014.042.02.065.096.377-.132.761-.51.857-.861.219-1.629.421-2.299.605-.725.198-1.48.413-2.265.644-.362.105-.746-.094-.865-.455l-1.489-4.489c-.549.173-1.12.358-1.714.554-.574.19-1.134.38-1.679.568l1.454 4.385.012.033c.123.368-.075.767-.444.89-.395.133-.792.27-1.189.409-.197.069-.398.139-.601.212l.642 1.859c1.457-.539 2.928-1.051 4.41-1.533 1.624-.528 3.284-1.03 4.979-1.502 8.52-2.376 17.704-3.962 27.324-4.61v-1.663m0 2.663c-9.529.647-18.624 2.218-27.06 4.571-1.663.464-3.309.961-4.936 1.49-1.499.488-2.965.997-4.393 1.526l.705 2.041.046-.014c.248-.078.595-.184 1.022-.314.261-.079.536.066.619.324l1.37 4.27c.168-.051.303-.092.409-.124.105-.031.239-.07.401-.118l-1.305-4.27c-.08-.263.069-.541.332-.621l.008-.002v-.002c.351-.101.769-.219 1.269-.358.443-.123.871-.239 1.281-.348.264-.069.534.086.607.348l1.206 4.303.412-.108.403-.105-1.142-4.301c-.07-.266.089-.539.355-.609l.006-.0001c.334-.084.756-.188 1.298-.318.463-.112.901-.216 1.309-.309.269-.061.536.106.598.375l.005.027 1.031 4.292.414-.095.409-.093-.976-4.322c-.06-.269.108-.535.377-.596l.006-.0001c.38-.083.817-.174 1.32-.278.484-.1.93-.19 1.33-.268.271-.052.532.126.584.396.002.001.004.02.005.03l.864 4.299c.174-.035.314-.063.415-.082l.415-.08-.808-4.333c-.049-.271.13-.53.4-.58l.015-.002c.536-.097.985-.177 1.321-.235.388-.067.831-.141 1.344-.223.272-.043.527.142.57.414l.701 4.329.413-.068c.127-.021.268-.043.422-.068l-.64-4.332c-.04-.273.149-.526.422-.566.402-.059.848-.124 1.34-.192.398-.055.844-.115 1.349-.181.273-.035.522.159.557.432v.002h.002l.533 4.317c.129-.017.265-.036.411-.055l.428-.056-.473-4.322c-.029-.273.168-.517.44-.548.412-.048.857-.098 1.339-.15.408-.044.855-.09 1.347-.138.274-.026.517.175.543.449v.006h.0001l.368 4.29.409-.043c.139-.014.284-.029.435-.044l-.308-4.299c-.019-.273.185-.51.457-.533.419-.036.861-.072 1.33-.108.424-.032.869-.065 1.335-.096.275-.018.513.19.531.465.0001.012.0001.024.0001.036l.204 4.229.411-.03h.007l.435-.03-.147-4.273c-.008-.271.201-.498.471-.513.239-.014.504-.028.799-.043l.261-.013v-3.448m.0001 4.446l-.214.011-.304.016.146 4.236.0001.015c.017.275-.192.512-.467.529-.287.019-.592.039-.912.062h-.006c-.292.021-.597.043-.918.068h-.014c-.275.013-.508-.2-.521-.475l-.206-4.258c-.266.019-.54.039-.821.061-.267.02-.543.043-.83.066l.308 4.291c.018.269-.181.506-.451.531-.273.026-.583.057-.913.091-.244.025-.558.059-.882.093-.014.002-.028.004-.042.005-.275.023-.516-.182-.539-.457l-.368-4.293c-.264.027-.542.056-.834.087-.265.029-.545.06-.838.093l.469 4.281.004.026c.033.274-.162.523-.436.557-.438.054-.717.09-.909.116-.25.033-.549.074-.87.118-.014.003-.029.005-.044.007-.274.033-.523-.162-.557-.436l-.533-4.319c-.262.035-.543.073-.841.115-.261.036-.54.077-.838.12l.639 4.326h-.0001c.04.27-.146.523-.417.564-.247.038-.55.087-.904.145-.264.043-.568.094-.903.15h-.004c-.272.043-.527-.142-.57-.414l-.701-4.33c-.26.043-.541.091-.842.142-.314.054-.589.102-.832.145l.803 4.306.004.02c.051.271-.128.531-.398.582-.265.05-.566.107-.901.172-.418.081-.711.139-.895.176-.27.054-.532-.121-.586-.391l-.87-4.333c-.297.059-.575.115-.835.169-.246.051-.52.109-.818.172l.966 4.277c.004.014.008.027.011.041.059.27-.111.536-.381.596-.445.098-.74.164-.894.199-.211.048-.507.117-.888.206v-.0001c-.267.062-.534-.103-.597-.37l-1.039-4.322c-.285.067-.558.131-.818.194h-.002c-.216.052-.485.118-.797.196l1.132 4.264c.004.012.008.025.011.038.068.267-.094.539-.361.607-.427.109-.719.183-.888.228-.2.052-.499.132-.881.235-.264.07-.536-.084-.609-.348l-1.206-4.302c-.273.074-.538.146-.795.217-.226.063-.484.136-.773.218l1.298 4.247.008.025c.077.264-.076.541-.34.617-.195.057-.489.143-.878.259-.384.114-.678.203-.859.258l-.008.003c-.262.084-.543-.06-.627-.322l-1.369-4.269c-.161.05-.343.106-.545.169l-.017.005 2.275 6.59c1.304-.409 2.644-.803 4.02-1.183 1.517-.419 3.034-.809 4.547-1.168 7.734-1.834 15.959-3.03 24.517-3.488v-6.877" fill="url(#K)"/><path d="m119.63 129.45c.442.163.859.376 1.242.635.05-.123.115-.239.191-.344.178-.247.418-.439.69-.556.275-.118.584-.161.895-.11.398.066.793.284 1.115.694.005.007.001.014.015.021l.009.012c.444.564.862 1.097 1.215 1.66.512.817 1.17 1.043 1.811.995.701-.053 1.409-.412 1.923-.727.218-.133.427-.237.629-.315.074-.055.159-.081.244-.083.58-.169 1.094-.12 1.547.062.645.26 1.136.786 1.518 1.328.135.192.089.456-.103.591-.192.135-.456.089-.591-.103-.304-.431-.681-.844-1.14-1.029-.151-.061-.316-.097-.495-.101.332.541.587 1.112.759 1.743.233.856.312 1.811.218 2.936-.107 1.275.046 2.488.609 3.522.561 1.031 1.542 1.903 3.095 2.511 1.432.56 2.991.553 4.446-.168.286-.141.567-.31.843-.507.278-.198.551-.425.817-.684l.002-.002c.771-.747 1.234-1.715 1.524-2.815.299-1.135.416-2.414.495-3.739.093-1.566.869-2.752 2.371-3.244.283-.093.592-.16.925-.198.117-.013.237-.023.361-.029-.252-.424-.555-.776-.892-1.061-.594-.501-1.296-.79-2.01-.885-.72-.095-1.456.005-2.113.283-.531.225-1.01.567-1.391 1.018-1.426 1.691-2.536 2.01-3.521 1.417-.887-.53-1.573-1.842-2.284-3.525-.922-2.182-2.116-3.328-3.33-3.821-.609-.247-1.226-.331-1.817-.3-.597.032-1.169.18-1.681.396-.8.338-1.443.83-1.797 1.288.532.184.95.459 1.332.712.581.384 1.057.698 1.758.29.203-.117.462-.048.579.154.117.203.048.462-.154.579-1.154.672-1.828.227-2.651-.316-.463-.306-.986-.651-1.694-.751-1.47-.207-3.368.186-4.598 1.302-.233.212-.442.45-.617.714-.114.171-.214.355-.299.55" fill="url(#L)"/><path d="m53.787 61.57l-2.367-6.857c-.525-.593-1.375-.845-2.17-.57-.795.275-1.309.997-1.356 1.788l2.367 6.857 3.527-1.218"/><path d="m128.08 83.96c1.653.27 3.287.568 4.901.894 1.135.229 2.283.477 3.443.743.942.217 1.87.44 2.781.671l-.683 1.977c-3.48-.896-7.06-1.656-10.739-2.271l.297-2.01m5.81-4.332l.294.061c1.198.249 2.409.52 3.63.811 1.054.251 2.092.512 3.113.783l-1.395 4.04c-.963-.245-1.925-.478-2.885-.698-1.124-.258-2.281-.508-3.47-.748l-.135-.027.848-4.222m-10.348-1.711c3.186.402 6.313.909 9.372 1.514l-.849 4.227c-2.912-.561-5.883-1.034-8.905-1.414l.382-4.327m-8.802 3.525c2.505.164 4.983.392 7.426.681l.382-4.328c-2.567-.305-5.172-.542-7.809-.709v4.356m0 3.01c4.055.279 8.09.733 12.06 1.366l.296-2.01c-4.02-.626-8.144-1.083-12.354-1.361v2.01m0-42.1c9.718.637 18.994 2.23 27.594 4.628 1.695.473 3.355.974 4.979 1.502 1.482.482 2.953.993 4.41 1.533l.642-1.859c-.204-.073-.404-.143-.601-.212-.397-.139-.794-.275-1.189-.409-.368-.123-.567-.522-.444-.89l.012-.033 1.454-4.385c-.545-.189-1.105-.379-1.679-.568-.594-.196-1.165-.381-1.714-.554l-1.489 4.489c-.119.361-.503.56-.865.454-.786-.23-1.541-.444-2.265-.643-.67-.183-1.438-.385-2.299-.605-.377-.096-.606-.48-.51-.857.006-.022.012-.044.02-.065l1.262-4.542c-.613-.16-1.216-.315-1.808-.461-.627-.155-1.25-.304-1.867-.447l-1.222 4.695c-.095.366-.461.59-.827.512h-.003c-.295-.063-.518-.111-.649-.139-.284-.059-.51-.107-.651-.136-1.126-.231-2.252-.448-3.376-.65-.382-.068-.636-.434-.568-.816l.004-.022h-.0001l1.02-4.74-.009-.002-.721-.128c-1.02-.181-2.048-.351-3.085-.511l-1.016 4.834c-.076.367-.425.607-.791.553h-.005l-.018-.003c-.302-.043-.523-.075-.627-.089-.268-.037-.486-.066-.652-.089-1.097-.146-2.222-.282-3.373-.408-.386-.041-.667-.388-.626-.774.003-.027.007-.053.013-.079l.754-4.789c-.612-.068-1.203-.131-1.769-.187-.581-.057-1.198-.114-1.85-.17l-.629 4.933c-.047.373-.379.641-.75.613v.002c-.442-.034-.852-.064-1.233-.09-.344-.023-.671-.045-.981-.064v1.662m-.0001 4.454c.182.008.358.017.53.026.295.015.56.029.799.042.269.015.479.243.471.514l-.147 4.273.435.03h.007l.411.03.204-4.229c0-.012.0001-.024.0001-.036.018-.275.256-.483.531-.465.466.031.911.063 1.335.096.469.036.911.072 1.33.107.272.023.476.26.457.533l-.308 4.299c.152.015.296.03.435.044l.409.043.368-4.29h.0001v-.006c.026-.274.269-.475.543-.449.492.048.939.094 1.347.138.482.052.927.102 1.339.15.272.032.468.276.439.549l-.473 4.322.428.056c.146.019.282.038.411.055l.533-4.317h.002v-.002c.034-.273.284-.466.557-.432.505.065.951.125 1.349.181.492.069.938.133 1.34.192.273.04.462.294.422.566l-.64 4.332c.154.025.295.047.422.068l.413.068.701-4.329c.043-.272.298-.457.57-.414.513.083.956.157 1.344.223.337.058.785.138 1.321.235l.015.002c.271.05.45.309.4.58l-.808 4.333.415.08c.101.02.24.047.415.082l.863-4.299c.0001-.001.003-.02.005-.03.052-.271.313-.448.584-.396.401.078.847.168 1.33.268.503.103.939.195 1.32.277l.006.002c.268.06.437.327.377.596l-.976 4.322.409.093.414.095 1.031-4.292.005-.027c.061-.269.329-.436.598-.375.408.094.846.197 1.31.309.542.131.964.235 1.298.318l.006.002c.266.07.425.343.355.609l-1.142 4.301.404.105.412.108 1.206-4.303c.073-.262.344-.417.608-.348.41.109.838.225 1.281.348.5.139.918.257 1.269.358v.002l.008.002c.263.08.412.358.332.621l-1.305 4.27c.162.047.295.086.401.118.106.032.241.073.409.124l1.37-4.27c.083-.258.359-.403.619-.324.427.13.774.236 1.022.314l.046.014.705-2.041c-1.429-.529-2.894-1.038-4.393-1.526-1.627-.529-3.273-1.027-4.936-1.49-8.514-2.375-17.701-3.954-27.328-4.589v3.453zm0 7.873c8.655.447 16.971 1.649 24.787 3.502 1.513.359 3.03.749 4.548 1.168 1.374.38 2.713.774 4.02 1.183l2.275-6.59-.017-.005c-.203-.063-.384-.12-.545-.169l-1.369 4.269c-.084.262-.365.406-.627.322l-.008-.003c-.181-.055-.475-.144-.859-.258-.389-.116-.683-.203-.878-.259-.264-.077-.416-.353-.34-.617l.008-.025 1.298-4.247c-.289-.082-.548-.156-.773-.218-.257-.071-.522-.144-.795-.217l-1.206 4.302c-.074.263-.346.418-.609.347-.382-.102-.681-.182-.881-.235-.169-.044-.46-.119-.888-.228-.268-.068-.429-.34-.361-.607.003-.013.007-.025.011-.038l1.132-4.264c-.312-.078-.582-.144-.797-.196h-.002c-.26-.062-.533-.127-.818-.193l-1.039 4.322c-.063.267-.331.432-.597.37v.0001c-.381-.089-.678-.158-.888-.206-.154-.035-.449-.101-.894-.199-.27-.059-.44-.326-.381-.596.003-.014.007-.028.011-.041l.966-4.277c-.298-.063-.572-.121-.818-.172-.26-.054-.538-.11-.835-.169l-.87 4.333c-.054.27-.316.444-.586.391-.184-.037-.477-.095-.895-.176-.334-.065-.636-.123-.901-.172-.271-.051-.449-.311-.398-.582l.004-.02.803-4.306c-.243-.043-.519-.091-.832-.145-.3-.052-.582-.099-.842-.142l-.701 4.33c-.043.272-.298.457-.57.414h-.004c-.335-.056-.639-.107-.903-.15-.354-.058-.657-.106-.904-.145-.27-.042-.456-.294-.417-.564h-.0001l.639-4.326c-.298-.043-.577-.084-.838-.12-.297-.041-.579-.08-.841-.115l-.533 4.319c-.033.274-.283.469-.557.436-.015-.002-.029-.004-.044-.007-.321-.044-.62-.085-.87-.118-.192-.025-.471-.061-.909-.116-.274-.033-.469-.283-.436-.557l.004-.026.469-4.281c-.293-.033-.573-.065-.838-.093-.292-.031-.57-.06-.834-.087l-.368 4.293c-.023.275-.264.48-.539.457-.014-.0001-.028-.003-.042-.005-.324-.035-.638-.068-.882-.093-.33-.034-.64-.066-.913-.091-.27-.026-.469-.262-.45-.531l.307-4.292c-.286-.024-.563-.046-.83-.066-.281-.022-.555-.042-.821-.061l-.206 4.258c-.013.275-.246.487-.521.475h-.014c-.321-.024-.626-.046-.918-.067h-.006c-.32-.023-.625-.043-.912-.062-.275-.017-.484-.254-.467-.529l.0001-.015.146-4.236-.304-.016c-.165-.008-.326-.016-.483-.023v6.875m23.32 4.188c.413.094.825.189 1.236.287 1.545.366 3.05.752 4.512 1.157 1.318.364 2.638.754 3.957 1.167l-1.376 3.987c-1.273-.384-2.55-.746-3.831-1.088-1.424-.38-2.867-.738-4.326-1.073-.338-.078-.677-.154-1.017-.23l.845-4.207m-12.638-2.231c3.986.511 7.881 1.187 11.666 2.01l-.846 4.212c-3.639-.776-7.378-1.413-11.202-1.9l.382-4.326m-10.682 3.394c3.15.171 6.255.442 9.308.809l.382-4.327c-3.176-.384-6.409-.664-9.69-.834v2.653 1.7m16.443 2.868c2.313.404 4.59.865 6.826 1.378 1.449.333 2.881.688 4.295 1.065 1.279.341 2.532.696 3.759 1.065l-1.382 4c-1.149-.332-2.325-.653-3.526-.963-1.361-.351-2.734-.681-4.12-.991-2.127-.475-4.289-.902-6.483-1.278l.63-4.278m-16.443 2.484c5.07.29 10.02.839 14.828 1.629l.631-4.281c-5-.836-10.166-1.411-15.459-1.701v4.353m21.237 3.859c.282.061.564.123.845.186 1.381.308 2.745.636 4.089.983 1.147.296 2.296.61 3.446.942l-1.386 4.01c-1.087-.301-2.189-.591-3.304-.868-1.301-.323-2.601-.626-3.898-.906-.212-.046-.425-.091-.637-.136l.847-4.214m-11.495-1.964c3.587.456 7.098 1.045 10.52 1.757l-.848 4.219c-3.276-.665-6.631-1.218-10.06-1.65l.382-4.326m-9.742 3.458c2.828.17 5.619.419 8.367.747l.382-4.327c-2.871-.344-5.79-.603-8.749-.773v4.354m14.892 2.694c2 .338 3.978.719 5.924 1.139 1.319.285 2.609.585 3.871.898 1.078.268 2.151.549 3.216.845l-1.39 4.03c-1.067-.284-2.138-.553-3.209-.808-1.184-.282-2.404-.554-3.657-.815-1.772-.369-3.568-.705-5.386-1.01l.631-4.279m-14.892 2.66c4.528.284 8.962.775 13.276 1.459l.631-4.282c-4.513-.729-9.159-1.245-13.907-1.532v4.355" fill="url(#N)"/><path d="m57.32 161.03c.047-.869.06-1.738.041-2.607-.044-.03-.087-.062-.129-.096-.262.19-.531.388-.799.585-1.208.89-2.402 1.769-3.706 2.44-.2.103-.375.228-.489.36-.061.07-.1.136-.106.19-.004.029.009.063.041.101h.002c.055.065.149.132.288.202 1.041.517 2.45.629 3.645-.06.23-.132.454-.297.669-.496.192-.179.375-.384.544-.618m3.285-2.536c.281.738.6 1.45.958 2.135.11.031.219.056.328.075.166.029.325.044.477.046h.002c.814.001 1.593-.319 2.216-.905l.239-.225.278.175.007.005c.257.162.531.301.818.417.285.116.584.209.89.282 1.603.381 3.418.203 4.984-.133.124-.027.246-.055.365-.087.084-1.836.05-3.627-.087-5.2-.028-.323-.06-.634-.096-.93-.013-.104-.025-.206-.038-.304-2.557 1.595-5.475 2.826-8.335 3.761-.578.189-1.167.37-1.761.542-.415.12-.831.236-1.245.346m6.985-15.12c-.826.419-1.721.749-2.759.773-1.237.029-2.138.312-2.837.746-.699.433-1.213 1.029-1.668 1.674-.786 1.115-1.685 1.601-2.598 1.924.438.924.836 1.979 1.203 3.082.379 1.14.722 2.321 1.039 3.457 1.773-.723 3.546-1.47 5.318-2.251 1.804-.796 3.602-1.626 5.392-2.502-.458-1.151-.931-2.299-1.437-3.442-.511-1.156-1.056-2.31-1.652-3.46m-11.03 12.786c-.395-1.729-.961-3.428-1.643-4.991-.133-.304-.271-.606-.414-.903-.098-.204-.202-.411-.311-.621-1.234.429-2.312.95-3.034 2.146l-.002.002c-.497.824-1.097 1.467-1.636 2.045-.84.901-1.509 1.62-1.195 2.535.41 1.194.67 1.167 1.703 1.061h.002l.181-.018c.427-.043.841-.079 1.239-.109.397-.029.81-.053 1.241-.072.747-.032 1.498-.042 2.251-.026.535.012 1.069.037 1.601.077-.046-.17-.071-.348-.071-.533v-.0001c.0001-.206.032-.404.089-.591" fill="url(#M)"/><path d="m65.881 148.03c.021.67-.519 1.538-1.137 1.778-.041.016-.078.029-.109.038v-.0001c-1.214.35-2.061.196-2.546-.199-.73-.595-.739-.468-.433-1.531.201-.698.864-1.417 1.951-1.767l.035-.011.037-.004c1.487-.155 2.584 1.093 3.986 1.237.15.233.126.466-.072.7-.615.018-1.151-.024-1.712-.239m-.817.284c.138-1.059-.443-1.224-1.278-1.154-.2.691.231 1.348 1.278 1.154m-12.204 4.515c-.249.025-.85.292-.885.585-.015.125.105.229.274.169.283-.1.541-.481.611-.755m-1.358-.2c.55-.519.943-.635 1.513-.739-.036-.227-.092-.485-.16-.781.206-.342.481-.405.827-.189.171.739.269 1.275.21 1.77-.063.531-.294.972-.782 1.475-.467.482-.959.601-1.347.504-.182-.046-.341-.14-.466-.268-.123-.126-.212-.283-.257-.46-.101-.394.014-.889.462-1.312"/><path d="m120.92 142.99c6.263-1.915 13.176 2.53 15.438 9.927 2.261 7.396-.984 14.947-7.247 16.862-6.263 1.915-13.176-2.53-15.437-9.927-2.261-7.396.984-14.947 7.247-16.862" fill="url(#b)"/><path d="m120.88 142.12c-.11-.65-.014-1.371.236-2.116.057-.169.123-.343.198-.52.076-.179.156-.353.242-.523h.0001v-.002c1.069-2.123 1.228-4.02.775-5.527-.291-.965-.836-1.768-1.554-2.362-.721-.596-1.615-.983-2.601-1.111-1.502-.195-3.223.205-4.882 1.368 1.113 1.914 2.365 3.76 3.646 5.569h.038v-.002h.0001v.002c.501 0 .954.203 1.282.531.327.327.529.779.529 1.279h.002v.0001h-.002c0 .501-.203.954-.531 1.282-.327.327-.779.529-1.279.529v.002h-.002v-.002c-.242 0-.473-.048-.684-.134.008.172.012.345.013.517.003.508-.026 1-.087 1.483-.163 1.279-.559 2.426-1.216 3.308.17-.061.343-.115.519-.163 1.37-1.552 3.111-2.725 5.15-3.349l.002-.002h.002.002v.0001c.066-.02.132-.04.199-.059" fill="url(#P)"/><ellipse transform="matrix(2.6711-.81664.29793.9745 125.01 156.38)" rx="3.724" ry="12.859" cx="0" cy="0"/><path d="m148.46 91.27l1.284-3.72c1.976.69 3.929 1.424 5.859 2.196.426.171.828.334 1.205.489.197.081.39.161.579.239l-1.321 3.813c-2.495-1.103-5.03-2.107-7.606-3.02m12.06-22.317l1.32-3.825c.667.256 1.332.516 1.994.781.426.171.828.334 1.205.489.207.085.409.168.606.251l-1.325 3.822c-.186-.078-.369-.153-.549-.227-.427-.175-.831-.34-1.213-.493-.675-.27-1.354-.536-2.039-.798m.389-4.178l-1.321 3.825c-1.119-.418-2.251-.826-3.397-1.222l-.002-.0001-.008-.002c-.462-.159-.883-.303-1.261-.429-.418-.14-.839-.279-1.263-.416-.303-.098-.605-.195-.907-.291l1.321-3.825c.31.098.619.197.928.298.414.134.831.272 1.251.412.457.153.872.294 1.246.423l.002.0001.008.002c1.142.394 2.277.802 3.404 1.225m-7.789-2.658l-1.32 3.824c-1.376-.425-2.743-.825-4.101-1.2l1.319-3.821c1.373.378 2.741.776 4.102 1.196m1.889 10.19l1.321-3.826c1.976.69 3.929 1.424 5.859 2.196.427.171.828.334 1.205.489.205.084.405.167.601.248l-1.324 3.822c-.184-.077-.366-.152-.543-.225-.426-.175-.83-.339-1.213-.493-1.926-.771-3.895-1.51-5.905-2.212m.38-4.151l-1.321 3.826c-.282-.097-.547-.186-.793-.268-.418-.14-.839-.279-1.263-.416-2-.65-3.992-1.246-5.959-1.789l1.319-3.82c2.01.552 4 1.149 5.982 1.791.414.134.831.272 1.251.412.277.093.538.18.785.264m1.84 10.332l1.32-3.825c.667.256 1.332.516 1.994.781.426.171.828.334 1.205.489.203.083.401.165.595.246l-1.325 3.822c-.182-.076-.362-.15-.538-.222-.427-.175-.831-.34-1.213-.493-.675-.27-1.355-.536-2.04-.798m.389-4.177l-1.321 3.825c-1.119-.419-2.251-.826-3.397-1.221l-.002-.0001-.008-.002c-.463-.16-.884-.303-1.261-.429-.418-.14-.839-.279-1.263-.416-.303-.098-.605-.195-.907-.291l1.321-3.825c.31.098.619.198.928.298.414.134.831.272 1.251.412.457.153.872.294 1.246.423l.002.0001.008.002c1.142.394 2.277.803 3.404 1.225m-7.789-2.658l-1.32 3.824c-1.376-.425-2.743-.825-4.101-1.2l1.319-3.821c1.373.378 2.741.776 4.102 1.196m1.889 10.19l1.321-3.826c1.976.69 3.929 1.424 5.859 2.196.427.171.828.334 1.205.489.201.083.398.164.59.244l-1.325 3.822c-.18-.075-.358-.148-.532-.22-.426-.175-.83-.339-1.213-.493-1.926-.771-3.894-1.51-5.905-2.212m.38-4.151l-1.321 3.826c-.282-.097-.547-.186-.793-.268-.418-.14-.839-.279-1.263-.416-2-.65-3.992-1.246-5.959-1.789l1.319-3.82c2.01.552 4 1.149 5.982 1.791.414.134.831.272 1.251.412.277.093.538.18.784.264m1.84 10.332l1.321-3.825c.668.256 1.332.516 1.994.781.426.171.828.334 1.205.489.199.082.394.162.584.241l-1.325 3.822c-.179-.074-.355-.147-.527-.218-.426-.175-.83-.339-1.213-.493-.675-.27-1.355-.537-2.04-.798m.389-4.177l-1.321 3.825c-1.119-.419-2.251-.826-3.397-1.221l-.002-.0001-.008-.002c-.462-.159-.883-.303-1.261-.429-.418-.14-.839-.279-1.263-.416-.303-.098-.605-.195-.907-.291l1.321-3.825c.31.098.619.198.928.298.414.134.831.272 1.251.412.457.153.872.294 1.246.423l.002.0001.008.002c1.142.394 2.277.803 3.404 1.225m-7.789-2.658l-1.32 3.824c-1.376-.425-2.743-.825-4.101-1.2l1.319-3.821c1.373.378 2.741.776 4.102 1.196m2.269 6.04l-1.283 3.716c-2.645-.91-5.324-1.722-8.03-2.441l1.292-3.743c2.01.552 4 1.149 5.982 1.791.414.134.831.272 1.251.412.277.093.538.18.785.264m9.496-24.453l1.321-3.826c1.976.69 3.929 1.423 5.859 2.196.426.171.828.334 1.205.489.208.086.412.17.612.253l-1.325 3.822c-.188-.078-.373-.155-.554-.229-.426-.175-.83-.339-1.213-.493-1.926-.771-3.894-1.51-5.905-2.211m5.9-7.532l-1.32 3.825c-1.119-.419-2.251-.826-3.397-1.221l-.002-.002-.008-.002c-.463-.16-.884-.303-1.261-.429-.418-.14-.839-.279-1.263-.416-.303-.098-.605-.195-.907-.291l1.32-3.825c.31.098.619.197.928.298.414.134.831.272 1.251.412.457.153.872.294 1.246.423l.002.0001.008.002c1.142.394 2.276.802 3.403 1.225m-7.789-2.658l-1.32 3.824c-1.376-.425-2.743-.825-4.101-1.2l1.319-3.821c1.373.378 2.741.776 4.103 1.196m2.269 6.04l-1.321 3.826c-.282-.096-.547-.186-.793-.268-.418-.14-.839-.279-1.263-.416-2-.65-3.991-1.246-5.959-1.789l1.319-3.821c2.01.552 4 1.149 5.982 1.791.414.134.831.272 1.251.412.277.093.538.181.785.264m10.595-2.446c-.192-.08-.38-.158-.565-.234-.426-.175-.83-.339-1.213-.492-2.073-.83-4.197-1.622-6.368-2.372l-.002-.002-.008-.002c-.463-.16-.884-.303-1.261-.429-.418-.14-.839-.279-1.263-.416-2-.65-3.992-1.246-5.959-1.789l2.453-7.106c.12.023.231.045.334.066.077.015.161.033.254.052l-1.028 3.364c-.08.263.069.541.332.621.013.004.026.008.039.011v.0001c.338.073.667.147.988.222.33.077.661.157.991.24.268.067.539-.096.606-.363l.002-.008 1.039-3.402c.242.062.492.127.748.196.248.067.485.132.711.195l-1.1 3.382c-.085.262.058.544.32.629.014.005.029.009.043.012.297.087.612.181.94.283.303.094.627.197.969.308.262.085.544-.058.629-.32l1.106-3.401.108.036.021.007c.189.063.376.126.561.19v.002c.189.065.382.133.578.203l.107.039-1.228 3.359c-.094.259.04.545.299.639.284.104.601.223.952.357.345.132.66.255.941.367.256.102.546-.022.648-.277l.006-.016 1.22-3.339c.227.093.454.189.682.285.243.103.479.206.709.307l-1.293 3.351c-.095.247.019.523.256.632.011.006.022.011.033.015l.236.106.262.12c.009.004.018.008.028.012.419.191.849.394 1.291.608.248.12.546.016.666-.232.008-.018.016-.035.022-.054l1.26-3.264c.082.041.159.078.23.114l.136.069-2.467 7.12m2.797-8.07l-.016-.008c-.281-.142-.525-.263-.728-.362v.0001c-.012-.006-.025-.012-.038-.017-.257-.099-.545.028-.644.285l-1.269 3.287c-.267-.126-.542-.254-.824-.383-.001-.005-.02-.011-.031-.016l-.096-.044 1.294-3.353c.095-.246-.018-.526-.262-.635-.397-.178-.783-.347-1.157-.506-.385-.164-.777-.327-1.178-.487l-.016-.006c-.259-.094-.545.04-.639.299l-1.222 3.344c-.167-.066-.327-.128-.478-.186-.155-.059-.322-.122-.499-.188l1.22-3.339.009-.022c.095-.259-.038-.546-.297-.641-.228-.083-.428-.156-.584-.212-.192-.069-.388-.138-.59-.207v.002c-.191-.066-.38-.13-.567-.192l-.022-.008c-.186-.062-.375-.124-.566-.186-.008-.003-.016-.006-.024-.009-.262-.085-.544.058-.629.32l-1.107 3.403c-.165-.052-.335-.106-.51-.16-.159-.049-.322-.099-.489-.149l1.102-3.387.004-.016c.077-.264-.076-.541-.34-.617-.446-.13-.854-.243-1.227-.344-.391-.105-.799-.21-1.224-.316-.256-.062-.519.085-.596.34l-1.05 3.437c-.183-.044-.365-.088-.547-.131-.16-.038-.319-.074-.475-.109l1.02-3.338c.009-.023.016-.048.021-.073.057-.27-.115-.535-.385-.592-.208-.045-.475-.1-.798-.164l-.201-.04.875-2.535c5.785 1.103 11.415 3.04 16.656 5.727l-.876 2.529m-16.17-9.342l-.903-1.281 2.925-8.472 3.634 1.255-1.594 4.617c-.126.367.069.767.435.893l3.372 1.164c.367.126.767-.069.893-.435l1.594-4.616 3.952 1.364-1.594 4.617c-.126.367.069.767.435.893l3.371 1.164c.367.126.767-.069.893-.435l1.594-4.615 3.57 1.233-2.931 8.488-1.376.469c-5.747-2.989-11.905-5.123-18.271-6.301m7.906 20.655l1.32-3.825c.668.256 1.332.516 1.994.781.426.171.828.334 1.205.489.21.087.416.171.617.255l-1.325 3.822c-.19-.079-.377-.156-.559-.231-.426-.175-.83-.339-1.213-.492-.675-.27-1.354-.536-2.04-.798" fill="url(#O)"/><path d="m69.895 200.31c.095.683.181 1.362.266 2.042l2.197-2.256.249-.256.295.203 3.301 2.27 2.605-2.957.252-.287.312.222 2.853 2.028 2.591-3.034.251-.293.315.222 2.92 2.056 2.611-2.859.248-.272.303.205 2.966 2 2.266-2.8.239-.295.319.206 1.519.981.384-1.377-2.411-1.603-2.268 2.802-.244.302-.322-.217-2.984-2.02-2.616 2.864-.252.276-.305-.215-2.91-2.048-2.592 3.035-.251.294-.316-.225-2.857-2.031-2.601 2.952-.248.282-.311-.214-3.329-2.29-2.443 2.299m33.03-15.03c-6.317.082-12.418.479-18.19 1.267-5.899.805-11.448 2.02-16.521 3.719.041 1.396.269 2.95.666 4.647h-.0001c.332 1.295.585 2.612.796 3.948.022.143.045.285.066.426l2.26-2.126.249-.234.282.194 3.301 2.27 2.605-2.957.252-.287.312.222 2.853 2.028 2.591-3.034.251-.293.315.222 2.92 2.056 2.611-2.859.248-.272.303.205 2.966 2 2.266-2.8.242-.299.32.213 2.459 1.635.036-.323c.033-.294.067-.588.095-.863-.536-1.415-.8-2.823-.426-4.194.377-1.383 1.395-2.694 3.423-3.881.145-.209.293-.42.445-.635" fill="url(#S)"/><path d="m75.19 151.27c1.581-.748 3.29-1.976 4.887-3.556.309-.306.617-.629.923-.969.2-.222.394-.444.58-.667-.716-.683-1.453-1.295-2.21-1.833-.735.929-1.495 1.77-2.306 2.541-.897.854-1.859 1.623-2.92 2.331l-.107.071c.775.388 1.234 1.224 1.152 2.083" fill="url(#R)"/><path d="m121.4 144.57c5.098-1.559 10.849 2.469 12.844 8.994 1.995 6.525-.522 13.08-5.619 14.638-5.097 1.559-10.849-2.469-12.844-8.994-1.995-6.525.522-13.08 5.619-14.638" fill="url(#a)"/><path d="m128.65 163.12c.437.794.994 1.479 1.572 2.169l-4.551 1.391c.094-.895.173-1.775.092-2.678-.077-.849-.268-1.678-.517-2.492-.833.266-1.52.564-2.119.893-.794.437-1.479.994-2.169 1.573l-1.391-4.551c.895.094 1.775.173 2.678.092.678-.061 1.414-.2 2.256-.446l-1.418-4.637c-.833.266-1.52.564-2.119.893-.794.437-1.479.994-2.169 1.572l-1.391-4.55c.895.094 1.775.173 2.678.092.678-.061 1.414-.2 2.256-.446-.25-.814-.555-1.607-.966-2.354-.437-.794-.994-1.479-1.573-2.169l4.551-1.391c-.094.895-.173 1.775-.091 2.678.077.849.268 1.678.517 2.492.833-.266 1.521-.563 2.12-.893.794-.437 1.479-.994 2.169-1.573l1.391 4.55c-.902-.144-1.762-.174-2.678-.091-.678.061-1.414.199-2.256.446l1.418 4.637c.833-.266 1.521-.563 2.119-.893.794-.437 1.479-.994 2.169-1.573l1.391 4.55c-.895-.094-1.775-.173-2.678-.091-.678.061-1.414.199-2.256.446.249.814.555 1.608.966 2.355"/><path d="m127.91 163.53c-.377-.685-.716-1.482-1.016-2.464l-.264-.863.628-.192c.978-.299 1.827-.463 2.609-.534.554-.05 1.071-.054 1.575-.026l-.652-2.133c-.403.305-.834.592-1.32.86-.685.377-1.481.716-2.463 1.016l-.626.191-1.914-6.259.628-.192c.978-.299 1.827-.463 2.609-.534.554-.05 1.071-.054 1.575-.026l-.652-2.133c-.403.305-.833.592-1.32.86-.685.377-1.481.716-2.463 1.016l-.626.191-.264-.864c-.299-.978-.463-1.827-.534-2.609-.05-.554-.054-1.071-.026-1.575l-2.133.652c.305.403.592.834.86 1.32.377.685.716 1.481 1.016 2.464l.264.863-.628.192c-.978.299-1.827.463-2.609.534-.554.05-1.071.054-1.575.026l.652 2.132c.403-.305.834-.591 1.32-.859.686-.377 1.481-.716 2.463-1.016l.626-.191 1.913 6.259-.628.192c-.978.299-1.827.463-2.609.534-.554.05-1.071.054-1.575.026l.652 2.132c.403-.305.834-.591 1.32-.859.686-.377 1.481-.716 2.463-1.016l.626-.191.264.864c.299.978.463 1.827.534 2.609.05.554.054 1.071.026 1.575l2.133-.652c-.305-.403-.592-.834-.859-1.32" fill="url(#2)"/><path d="m99.61 133.66c-.399.199-.831.271-1.247.232-.178 2.556-.326 5.03-.421 7.434l-.015.403c.84-.316 1.68-.76 2.521-1.348.95-.665 1.903-1.516 2.858-2.579-.196-1.538-.421-3.072-.677-4.584-.258.073-.544.094-.858.068-.496-.04-1.041-.007-1.564.143-.111.032-.211.065-.3.099v.0001c-.101.039-.199.081-.29.127l-.006.002v.0001m-1.779 14.601c1.899-.5 3.818-1.471 5.737-2.443.149-.076.288-.145.502-.253-.036-.505-.077-1.027-.121-1.565-.054-.655-.108-1.268-.161-1.833-.106-1.127-.227-2.26-.362-3.393-.848.89-1.699 1.625-2.55 2.22-.992.694-1.984 1.198-2.977 1.54-.063 1.938-.089 3.843-.068 5.726m6.991-1.73c-.109-.104-.216-.217-.324-.345l-.593.299c-2.071 1.048-4.141 2.096-6.237 2.585-.151 1.179-.046 2.355.262 3.171.057.151.122.29.193.412 1.162-.84 2.306-1.762 3.427-2.781 1.116-1.014 2.208-2.123 3.271-3.343m.622.52l-.05-.038c-1.087 1.249-2.201 2.382-3.339 3.416-1.103 1-2.23 1.913-3.378 2.749.644.303 1.943.525 3.245.602.321.019.635.029.932.028.219 0 .439-.007.654-.02.44-.992.797-2.069 1.107-3.195.313-1.138.578-2.332.828-3.541m6.753.575c-.865.064-1.73.101-2.598.107-1.168.007-2.334-.042-3.501-.157-.23 1.092-.475 2.17-.761 3.212-.271.985-.578 1.934-.943 2.827.799.1 1.642.183 2.511.234.907.054 1.841.072 2.78.042.077-.618.185-1.215.323-1.786.432-1.783 1.164-3.319 2.189-4.48" fill="url(#c)"/><path d="m104.47 119.27h-2.459c-.168 3.666.536 7.264 2.082 10.217.308.588.652 1.154 1.032 1.694.305.433.629.844.972 1.228l1.985-1.564c-2.066-2.168-3.167-5.148-3.517-8.239-.07-.623-.11-1.257-.121-1.897-.008-.486.0001-.967.025-1.44" fill="url(#e)"/><path d="m116.07 137.14c-1.461-2.056-2.935-4.168-4.071-6.403-2.05 1.129-3.548 3.04-4.265 5.273 2.598.305 5.085 1.246 7.485 2.26.081-.324.249-.614.478-.843.111-.111.236-.208.373-.287" fill="url(#d)"/><path d="m105.59 123.76c.19 1.02.472 2.01.854 2.951l38.733-12.149c.225-.07.441-.168.639-.288.032-.019.071-.044.115-.075.026-.017.062-.044.109-.079l.002-.0001 3.408-2.545-4.251-.199c-.226-.001-.459.011-.686.06-.047.001-.091.02-.133.031-.037.001-.077.022-.119.035l-.011.004-.012.004-38.648 12.25" fill="url(#f)"/><path d="m115.33 165.09c-.362.138-.727.28-1.095.426l.057.042c.254.19.519.425.783.692 1.197 1.204 2.447 3.118 2.684 4.551 1.046-.316 2.056-.656 3.02-1.021-2.082-1.029-3.968-2.637-5.45-4.689m-.942 6.624c.901-.218 1.786-.452 2.65-.701-.14-1.254-1.345-3.079-2.494-4.236-.243-.244-.48-.455-.701-.621-.167-.125-.323-.225-.464-.293-.871.358-1.755.739-2.644 1.139.05.038.102.077.153.118.242.191.501.416.764.665 1.118 1.059 2.273 2.551 2.53 3.775l.205.155m-7.124 1.21c.011.058.022.115.031.173.597-.091 1.194-.188 1.787-.291.729-.126 1.469-.263 2.216-.412.736-.147 1.468-.303 2.19-.468-.054-1.034-1.228-2.536-2.351-3.6-.241-.229-.483-.438-.712-.618-.171-.134-.333-.251-.482-.346-.624.287-1.249.583-1.872.886-.499.243-.998.49-1.494.742-.343.174-.686.35-1.029.529.7.76 1.242 1.764 1.543 2.73.071.229.129.456.172.675m-.672.561c-.014-.134-.035-.273-.063-.417-.039-.196-.09-.396-.152-.596-.31-.998-.9-2.033-1.655-2.722-.948-.002-1.521-.17-2.08-.333-.295-.086-.586-.172-.935-.225-.416-.064-.822-.101-1.155-.028-.095.021-.186.052-.27.096.674.31.991 1.026.651 1.707.315.487.365 1.035.203 1.586.346.384.558.835.546 1.36.445.234.802.591.904 1.104.281.11.486.266.635.454.12.15.2.316.251.491.409-.033.814-.23 1.25-.568.556-.43 1.159-1.084 1.87-1.91m-4.244 2.243c-.99.466-2.02.883-3.088 1.126-.077.291.286.278.493.268 1.061-.055 2.075-.449 2.997-.954-.065-.214-.194-.35-.403-.44m-1.088-1.186c-.951.551-1.95 1.074-3.01 1.39-.019.345.33.32.591.269 1.04-.203 2.039-.623 2.998-1.065-.076-.297-.321-.476-.584-.594m-.587-1.376c-.929.572-1.912 1.047-2.916 1.472-.178.076-.399.212-.285.445.089.182.326.202.5.152 1.042-.299 2.025-.824 2.961-1.368-.002-.266-.099-.495-.26-.702m-.331-1.691c-.41.127-.809.287-1.199.464-.649.658-1.446 1.129-2.268 1.536-.373.211-.041.754.363.548l.014-.001.004.006c1-.227 2.251-1.01 3.119-1.548.149-.412.117-.707-.032-.996m-.703-1.592c-.466.262-1.065.51-1.481.827-.192.147-.327.393-.348.562-.05.402.355.309.567.204.279-.138.555-.267.829-.381.333-.139.666-.261 1-.361.257-.392-.081-1-.566-.851" fill="url(#g)"/><path d="m103.36 129.92l-.023-.044c-.761-1.453-1.327-3.053-1.695-4.737-.027-.013-.056-.024-.086-.035-.334-.116-.829-.121-1.185-.073-.537.072-.807.593-.092.688.33.044.662.063.989.129.042.722.085 1.445.127 2.167-.17.029-.344.051-.51.096v-.0001c-.563.154-.92.557-1.117 1.047-.194.484-.237 1.052-.169 1.566.019.148.048.289.084.422l-.721.196c-.045-.167-.081-.342-.104-.521-.045-.341-.049-.704-.005-1.061-.269.12-.546.137-.828.074-.295.605-.978.856-1.619.788.241.663.537 1.331.862 1.832h.002l.0001.004c.057.087.123.167.197.24.073.072.155.137.242.193.45.29 1.047.347 1.562.09v.0001l.007-.003.0001-.0001c.12-.06.238-.112.355-.156v.0001c.129-.05.25-.09.361-.122.616-.177 1.252-.216 1.828-.169.52.042.916-.097 1.163-.467.278-.417.41-1.114.373-2.145m-9.885-2.527v.002h-.002v-.002c-.511 0-.975.209-1.311.545-.336.335-.543.799-.543 1.31h.002v.003h-.002c0 .511.209.975.545 1.311.335.336.799.543 1.311.543v-.002h.002v.002c.511 0 .975-.208 1.311-.545.335-.335.543-.799.543-1.311h-.002v-.002h.002c0-.511-.209-.975-.545-1.311-.335-.335-.799-.543-1.311-.543m2.65 2.383c.342.257 1.105.135 1.181-.342.077-.476-.096-1.341-.378-2.095-.109-.292-.236-.562-.372-.782-.554-.898-1.5-.183-1.399.576.08.064.156.132.228.204.488.488.79 1.163.79 1.909h.002v.0001h-.002c0 .18-.018.357-.051.527m.749-4.04c.112.12.219.263.319.425.162.262.31.578.436.914.241.645.399 1.385.414 1.996.494.221 1.047-.099 1.03-.632-.013-.396-.126-.973-.293-1.551-.123-.427-.296-.836-.449-1.188-.212-.487-.529-1.015-1.168-.586-.2.134-.255.397-.288.622m1.616-1.137c.184.19.356.456.512.767.192.385.364.848.499 1.317.116.405.203.82.25 1.203.236-.209.52-.374.859-.478l-.056-.949c-.507-.112-.992-.16-1.304-.652-.195-.308-.219-.696-.007-1 .147-.213.408-.389.811-.48-.406-.469-1.347-.369-1.565.274m2.99-.288c-.047-.264-.089-.53-.126-.797-.327-.127-.716-.203-.964.1.19.156.368.378.528.64.189.005.382.022.562.056" fill="url(#h)"/><path d="m108.92 196.24c-.061 1.292-.231 2.472-.47 3.55.735.983 1.436 1.964 2.105 2.942.706 1.032 1.381 2.067 2.026 3.106 3.172 5.107 5.654 10.337 7.492 15.574.644-1.034 1.242-2.682 1.785-4.641.679-2.448 1.266-5.372 1.751-8.198.039-.231.259-.386.49-.347.044.008.086.022.124.041.521.242 1.066.505 1.632.787.554.277 1.108.564 1.661.859 2.654 1.417 5.341 3.055 7.952 4.785.228-3.315-.51-6.695-1.242-10.05-.119-.547-.239-1.092-.379-1.761-.048-.229.1-.454.329-.501.079-.017.158-.001.229.016l.469.167c.012.004.024.009.035.014 3.857 1.383 7.849 2.807 11.416 2.131-.121-.089-.244-.18-.368-.274h-.0001c-.365-.274-.737-.565-1.116-.873-1.886-1.534-3.657-3.279-4.934-4.994-1.086-.642-2.182-1.372-3.202-2.147l-3.164-2.402c1.176 1.821 2.811 3.797 4.415 5.475.432.452.862.883 1.279 1.282.411.394.811.758 1.191 1.085l.021.018.0001.0001c.085.079.139.193.138.319-.003.234-.195.421-.428.418-1.825-.021-4.238-.756-6.679-1.758-.474-.194-.949-.399-1.42-.61-.225-.101-.451-.204-.679-.31.081.348.168.721.255 1.092.731 3.122 1.459 6.228 1.605 9.08v.012c.004.079-.014.161-.056.234-.117.203-.377.272-.579.154l-1.126-.656c-2.872-1.677-5.777-3.373-8.634-4.798-.408 2.314-.953 4.71-1.594 6.91-.136.468-.275.922-.416 1.359-.137.425-.281.847-.431 1.265-.002.009-.005.018-.008.026l-.0001.003h-.0001c-.116.328-.583.387-.766.07-1.01-1.754-1.965-3.434-2.94-5.147-2.659-4.673-5.448-9.577-7.767-13.307" fill="url(#i)"/><path d="m100.19 193.44c1.217-.266 2.427-.503 3.628-.705 1.043-.176 2.088-.328 3.135-.452-.689-.754-1.379-1.54-2.075-2.356-.803-.941-1.626-1.935-2.473-2.974-1.477.97-2.238 1.998-2.528 3.06-.298 1.091-.106 2.247.312 3.427" fill="url(#j)"/><path d="m156.21 61.57l2.367-6.857c.525-.593 1.375-.845 2.17-.57.795.275 1.309.997 1.356 1.788l-2.368 6.857-3.527-1.218"/></g></g></svg>