<svg xmlns="http://www.w3.org/2000/svg" width="300" height="358" viewBox="0 0 84.666668 101.03555" fill-rule="evenodd"><defs><linearGradient id="0" gradientUnits="userSpaceOnUse" gradientTransform="matrix(.9543 0 0 .95302-99.06-50.696)" x1="107.98" y1="130.67" x2="188.36" y2="129.86"><stop stop-color="#e5e5e5"/><stop offset=".497" stop-color="#fff"/><stop offset="1" stop-color="#e5e5e5"/></linearGradient><linearGradient id="1" gradientUnits="userSpaceOnUse" gradientTransform="matrix(.9543 0 0 .95302-99.06-50.696)" x1="132.64" y1="109.17" x2="150.35" y2="75.22"><stop stop-color="#e5e5e5"/><stop offset=".49" stop-color="#fff"/><stop offset="1" stop-color="#e5e5e5"/></linearGradient></defs><path d="m62.61 48.27c.829 0 1.502.672 1.502 1.5v1.5c0 .828-.673 1.5-1.502 1.5h-1.502v-4.5h1.502m0 6c1.659 0 3-1.343 3-3v-1.5c0-1.657-1.345-3-3-3h-3v7.5h3m-6.01-7.5h1.502v7.5h-1.502v-7.5m-3 0h1.502v7.5h-1.502l-3-4.709v4.709h-1.502v-7.5h1.502l3 4.709v-4.709m-22.53 0h4.506v1.5h-3v1.5h3v1.5h-3v1.5h3v1.5h-4.506v-7.5m-6.01 0h1.502v6h3v1.5h-4.506v-7.5m15.772 6h1.502c1.244 0 2.253-1.01 2.253-2.25 0-1.242-1.028-2.245-2.253-2.25h-1.502v1.5h1.502c.415 0 .751.336.751.75 0 .414-.337.75-.751.75h-1.502v1.5m1.502-7.5c2.903 0 5.257 2.351 5.257 5.25 0 2.899-2.354 5.25-5.257 5.25-2.903 0-5.257-2.351-5.257-5.25 0-2.899 2.354-5.25 5.257-5.25m0 1.5c2.073 0 3.755 1.68 3.755 3.75 0 2.071-1.682 3.75-3.755 3.75-2.073 0-3.755-1.679-3.755-3.75 0-2.07 1.682-3.75 3.755-3.75" fill="#a90000"/><path d="m84.51 8.798v20.661c-3.144 2.413-5.171 6.206-5.171 10.471 0 4.265 2.027 8.06 5.171 10.47v.23c.218 3.125.173 5.898.102 8.466-.156 5.717-.872 11.614-3.838 16.619-4.625 7.804-13.48 11.624-21.457 15.06-3.683 1.589-7.507 3.122-10.965 5.249-2.207 1.358-4.246 2.959-6.02 5.01-1.769-2.048-3.809-3.649-6.02-5.01-3.458-2.127-7.282-3.661-10.965-5.249-7.977-3.441-16.832-7.26-21.457-15.06-2.966-5-3.682-10.903-3.838-16.619-.07-2.568-.116-5.341.102-8.466v-.229c3.144-2.413 5.171-6.205 5.171-10.47 0-4.265-2.027-8.06-5.171-10.471v-20.661c1.382-.757 2.872-1.476 4.461-2.151 9.658-4.105 22.991-6.644 37.708-6.644v-.002h.004.002v.002c14.718 0 28.05 2.54 37.71 6.645 1.589.675 3.079 1.394 4.461 2.151z"/><path d="m1.111 9.364v19.632c3.159 2.596 5.175 6.53 5.175 10.934 0 4.409-2.02 8.348-5.187 10.944-.203 3.035-.158 5.721-.09 8.2.063 2.322.218 4.678.588 6.989.102.637.22 1.27.357 1.899.338.134.734.216 1.221.216 1.262 0 1.906-.556 2.55-1.11.751-.648 1.502-1.295 3.038-1.295 1.536 0 2.286.647 3.038 1.295.644.555 1.288 1.11 2.55 1.11 1.262 0 1.906-.556 2.55-1.11.751-.648 1.502-1.295 3.038-1.295 1.536 0 2.286.647 3.037 1.295.644.555 1.288 1.11 2.55 1.11 1.262 0 1.906-.556 2.55-1.11.751-.648 1.502-1.295 3.038-1.295 1.536 0 2.286.647 3.038 1.295.644.555 1.288 1.11 2.55 1.11 1.262 0 1.906-.556 2.55-1.11.751-.648 1.502-1.295 3.038-1.295 1.536 0 2.286.647 3.038 1.295.644.555 1.288 1.11 2.55 1.11 1.262 0 1.906-.556 2.55-1.11.751-.648 1.502-1.295 3.038-1.295 1.536 0 2.286.647 3.038 1.295.644.555 1.288 1.11 2.55 1.11 1.262 0 1.906-.556 2.55-1.11.751-.648 1.502-1.295 3.038-1.295 1.536 0 2.286.647 3.038 1.295.644.555 1.288 1.11 2.55 1.11 1.262 0 1.906-.556 2.55-1.11.751-.648 1.502-1.295 3.038-1.295 1.536 0 2.286.647 3.038 1.295.644.555 1.288 1.11 2.55 1.11.538 0 .964-.101 1.325-.26.127-.586.238-1.175.334-1.768.38-2.339.538-4.725.603-7.08.068-2.479.113-5.165-.09-8.2-3.166-2.596-5.187-6.534-5.187-10.944 0-4.404 2.02-8.338 5.175-10.934v-19.632c-1.213-.643-2.51-1.258-3.883-1.842-9.55-4.059-22.751-6.57-37.34-6.57v.002h-.002-.004v-.002c-14.585 0-27.786 2.511-37.34 6.57-1.373.584-2.67 1.199-3.884 1.842z" fill="#3c82c2"/><g fill-rule="nonzero"><path d="m20.01 50.869c1.157.432 2.147 1.077 3.137 1.723 2.656 1.73 5.242 2.621 8.414 3.296 2.705.576 5.696.948 8.716 1.166v-.112c-2.621-1.078-5.03-2.653-7.07-4.639-4.131-4.02-6.696-9.624-6.696-15.825v-.0001h.002c0-6.101 2.488-11.731 6.836-15.96l7.129 1.581.058-10.171c-.156.043-.31.098-.463.167-.706.317-1.38.602-2.082.677-.735.078-1.47-.074-2.243-.652l-.001-.007c-.683-.507-1.505-.459-2.247-.035-.652.373-1.285.468-1.896.354-.999-.187-1.732-.905-2.48-1.532 1.194.0001 1.835-.019 2.817-.786.54-.421 1.067-.78 1.679-.922.635-.148 1.328-.061 2.155.427l.002.002c.103.061.219.111.343.15.926.293 2.074.023 2.847-.533.826-.594 1.516-1.029 2.239-1.334.295-.124.593-.225.905-.307l.035-.086.752-.079.443 15.3 12.752 2.828-.819.491-.003.002c-2.145 1.26-4.21 2.67-6.124 4.261-2.035 1.691-3.911 3.6-5.42 5.718l.605 20.879c.115.12.232.24.351.358 2.094.055 4.143.046 6.05-.012 1.161-.035 1.982-.519 2.656-1.449l17.273-1.407-.249.58c-.274.639-.567 1.298-.878 1.972-.303.658-.621 1.327-.952 1.999-1.692 3.44-3.663 6.881-5.649 9.705l-.012.016-.958 1.219-.113.144h-.185l-32.948.139h-.152l-.11-.103-1.013-.949c-1.875-1.315-3.475-2.949-4.843-4.87-1.368-1.922-2.506-4.133-3.455-6.601v-.003-.002c-.14-.363-.297-.728-.472-1.095-1.217-2.557-3.105-4.667-5.152-6.595 2.246-.039 4.361.114 6.496.912m20.311-1.609l.031-5.524c-.162.918-.249 1.861-.249 2.829h-.002c0 .947.074 1.843.219 2.694"/><path d="m15.403 50.712c1.592 1.616 2.977 3.462 3.953 5.514.176.37.341.754.494 1.151v.003.002c.925 2.405 2.033 4.558 3.364 6.428 1.1 1.546 2.353 2.897 3.783 4.03.333-.169.612-.388.881-.615-.374-.3-.727-.619-1.059-.953-2.04-2.051-3.307-4.685-3.752-7.23v-.003c-.171-.974-.414-1.936-.74-2.87-.717-2.053-1.724-3.659-2.775-4.664-1.332-.474-2.74-.731-4.151-.797m12.809 16.233c.708-.605 1.458-1.175 2.898-1.175 1.536 0 2.286.647 3.038 1.295.644.555 1.288 1.11 2.55 1.11 1.262 0 1.906-.556 2.55-1.11.457-.394.913-.788 1.545-1.036-5.01-.251-10.01-.771-14.983-1.609.394.545.833 1.066 1.317 1.553.34.342.702.667 1.086.971m15.847-.79c.492.245.877.577 1.263.91.644.555 1.288 1.11 2.55 1.11 1.262 0 1.906-.556 2.55-1.11.379-.327.757-.653 1.236-.897-2.536.057-5.069.055-7.599-.013m10.962-.097c.597.249 1.036.628 1.476 1.01.644.555 1.288 1.11 2.55 1.11.694 0 1.201-.168 1.624-.412.443-.67.89-1.392 1.33-2.145-2.328.191-4.655.339-6.979.439m6.64.951c.598-.515 1.21-1.017 2.231-1.182 1.415-2.248 2.784-4.731 4-7.212.323-.657.639-1.319.943-1.981.21-.455.416-.914.617-1.375l-2.618.213c-.083.426-.2.889-.346 1.379-.186.621-.421 1.293-.695 1.997-1.018 2.612-2.57 5.644-4.136 8.161m4.734-11.501l-12.604 1.027c-.758.965-1.822 1.441-3.042 1.477-6.02.181-13.367-.11-19.345-1.382-3.265-.695-5.936-1.62-8.671-3.403-.727-.474-1.455-.948-2.234-1.325.854 1.032 1.643 2.436 2.234 4.13.057.163.112.329.165.497 5.643 2.095 12.466 3.03 19.781 3.192 7.365.16 15.23-.468 22.897-1.498.193-.52.363-1.021.505-1.495.13-.435.236-.844.314-1.221m-.992 3.171c-7.612 1.014-15.415 1.63-22.732 1.47-7.232-.158-13.989-1.073-19.619-3.108.18.634.326 1.278.44 1.927v.003c.079.452.185.907.317 1.361 6.659 1.414 13.318 2.177 19.975 2.431 6.696.256 13.392-.003 20.09-.631.554-1.128 1.082-2.279 1.531-3.453m-3.143 6.489c.48-.84.948-1.712 1.388-2.586-6.626.612-13.253.862-19.879.609-6.606-.252-13.21-1-19.814-2.39.358 1.075.864 2.136 1.514 3.129 6.089 1.046 12.208 1.615 18.35 1.792 6.121.176 12.271-.037 18.441-.554" fill="#a3723d"/><path d="m42.23 11.06l-.078-2.69c-1.014.289-1.904.874-2.752 1.484-.965.694-2.37 1.01-3.521.64-.178-.057-.345-.129-.496-.217l-.004-.002-.003-.0001c-.634-.374-1.143-.446-1.595-.341-.474.11-.92.417-1.384.779-.388.303-1.046.612-1.509.736.2.1.639.198.842.236h.002c.435.081.894.009 1.377-.268 2.403-1.375 2.839.806 4.797.598.588-.063 1.201-.323 1.849-.615.781-.351 1.633-.417 2.474-.34" fill="#fff"/><path d="m39.34 46.564h-.002c0-6.903 4.162-12.56 9.311-16.837 1.701-1.414 3.519-2.687 5.405-3.841l-20.472-4.539c-4.03 3.997-6.314 9.445-6.314 15.13h.002v.0001c0 5.988 2.477 11.402 6.466 15.282 2.688 2.615 6.05 4.501 9.683 5.425-2.692-2.84-4.079-6.727-4.079-10.62" fill="url(#1)"/><path d="m43.538 56.03l-.549-18.916c-.749 1.188-1.38 2.438-1.858 3.746l-.063 11.09c.58 1.48 1.412 2.822 2.47 4.077m-.971-33.473l-.311-10.735c-.155-.016-.309-.028-.461-.033-.167-.006-.333-.004-.498.007l-.06 10.466 1.33.295" fill="#a3723d"/></g><path d="m2.156 68.829c.295 1.187.663 2.352 1.121 3.485 1.241-.029 1.886-.585 2.53-1.141.733-.632 1.465-1.264 2.954-1.264 1.488 0 2.221.631 2.954 1.264.662.571 1.325 1.142 2.634 1.142 1.309 0 1.972-.571 2.634-1.142.733-.632 1.465-1.264 2.954-1.264 1.488 0 2.221.631 2.953 1.264.662.571 1.325 1.142 2.634 1.142 1.309 0 1.972-.571 2.634-1.142.733-.632 1.465-1.264 2.954-1.264 1.488 0 2.221.631 2.954 1.264.662.571 1.325 1.142 2.634 1.142 1.309 0 1.972-.571 2.634-1.142.733-.632 1.465-1.264 2.954-1.264 1.488 0 2.221.631 2.954 1.264.662.571 1.324 1.142 2.634 1.142 1.309 0 1.972-.571 2.634-1.142.733-.632 1.465-1.264 2.954-1.264 1.488 0 2.221.631 2.954 1.264.662.571 1.324 1.142 2.634 1.142 1.309 0 1.972-.571 2.634-1.142.733-.632 1.465-1.264 2.954-1.264 1.488 0 2.221.632 2.954 1.264.662.571 1.324 1.142 2.634 1.142 1.309 0 1.972-.571 2.634-1.142.733-.632 1.465-1.264 2.954-1.264 1.488 0 2.221.631 2.954 1.264.66.569 1.322 1.14 2.625 1.142.462-1.142.832-2.316 1.129-3.512-.324.086-.691.137-1.12.137-1.542 0-2.295-.649-3.048-1.298-.642-.554-1.284-1.108-2.54-1.108-1.255 0-1.897.554-2.54 1.108-.752.649-1.505 1.298-3.048 1.298-1.542 0-2.295-.649-3.048-1.298-.642-.554-1.284-1.108-2.54-1.108-1.255 0-1.897.554-2.54 1.108-.752.649-1.505 1.298-3.048 1.298-1.542 0-2.295-.649-3.048-1.298-.642-.554-1.284-1.108-2.54-1.108-1.255 0-1.897.554-2.54 1.108-.752.649-1.505 1.298-3.048 1.298-1.542 0-2.295-.649-3.048-1.298-.642-.554-1.284-1.108-2.54-1.108-1.255 0-1.897.554-2.54 1.108-.752.649-1.505 1.298-3.048 1.298-1.542 0-2.295-.649-3.048-1.298-.642-.554-1.284-1.108-2.54-1.108-1.255 0-1.897.554-2.54 1.108-.752.649-1.505 1.298-3.048 1.298-1.542 0-2.295-.649-3.048-1.298-.642-.554-1.284-1.108-2.539-1.108-1.255 0-1.897.554-2.54 1.108-.752.649-1.505 1.298-3.048 1.298-1.542 0-2.295-.649-3.048-1.298-.642-.554-1.284-1.108-2.54-1.108-1.255 0-1.897.554-2.54 1.108-.752.649-1.505 1.298-3.048 1.298-.384 0-.719-.04-1.018-.111m1.329 3.981c.357.827.765 1.635 1.23 2.42.118.199.24.395.364.59.262-.176.495-.377.728-.578.733-.632 1.465-1.264 2.954-1.264 1.488 0 2.221.631 2.954 1.264.662.571 1.325 1.142 2.634 1.142 1.309 0 1.972-.571 2.634-1.142.733-.632 1.465-1.264 2.954-1.264 1.488 0 2.221.631 2.953 1.264.662.571 1.325 1.142 2.634 1.142 1.309 0 1.972-.571 2.634-1.142.733-.632 1.465-1.264 2.954-1.264 1.488 0 2.221.631 2.954 1.264.662.571 1.325 1.142 2.634 1.142 1.309 0 1.972-.571 2.634-1.142.733-.632 1.465-1.264 2.954-1.264 1.488 0 2.221.631 2.953 1.264.662.571 1.324 1.142 2.634 1.142 1.309 0 1.972-.571 2.634-1.142.733-.632 1.465-1.264 2.954-1.264 1.488 0 2.221.631 2.954 1.264.662.571 1.324 1.142 2.634 1.142 1.309 0 1.972-.571 2.634-1.142.733-.632 1.465-1.264 2.954-1.264 1.488 0 2.221.632 2.954 1.264.662.571 1.324 1.142 2.634 1.142 1.309 0 1.972-.571 2.634-1.142.733-.632 1.465-1.264 2.954-1.264 1.488 0 2.221.631 2.954 1.264.253.218.506.437.796.623.134-.209.265-.42.392-.635.464-.783.871-1.59 1.227-2.415-1.351-.058-2.048-.66-2.746-1.262-.661-.57-1.321-1.139-2.624-1.139-1.303 0-1.963.569-2.624 1.139-.734.633-1.469 1.266-2.964 1.266-1.495 0-2.23-.634-2.964-1.266-.661-.57-1.321-1.139-2.624-1.139-1.303 0-1.963.569-2.624 1.139-.734.633-1.469 1.266-2.964 1.266-1.495 0-2.23-.634-2.964-1.266-.661-.57-1.321-1.139-2.624-1.139-1.303 0-1.963.569-2.624 1.139-.734.633-1.469 1.266-2.964 1.266-1.495 0-2.23-.634-2.964-1.266-.661-.57-1.321-1.139-2.624-1.139-1.303 0-1.963.569-2.624 1.139-.734.633-1.469 1.266-2.964 1.266-1.495 0-2.23-.634-2.964-1.266-.661-.57-1.321-1.139-2.624-1.139-1.303 0-1.963.569-2.624 1.139-.734.633-1.469 1.266-2.964 1.266-1.495 0-2.23-.634-2.964-1.266-.661-.57-1.321-1.139-2.623-1.139-1.303 0-1.963.569-2.624 1.139-.734.633-1.469 1.266-2.964 1.266-1.495 0-2.23-.634-2.964-1.266-.661-.57-1.321-1.139-2.624-1.139-1.303 0-1.963.569-2.624 1.139-.681.587-1.363 1.175-2.652 1.257m1.872 3.434c.516.767 1.077 1.493 1.676 2.181.454-.228 1-.378 1.728-.378 1.488 0 2.221.631 2.954 1.264.662.571 1.325 1.142 2.634 1.142 1.309 0 1.972-.571 2.634-1.142.733-.632 1.465-1.264 2.954-1.264 1.488 0 2.221.631 2.953 1.264.662.571 1.325 1.142 2.634 1.142 1.309 0 1.972-.571 2.634-1.142.733-.632 1.465-1.264 2.954-1.264 1.488 0 2.221.631 2.954 1.264.662.571 1.325 1.142 2.634 1.142 1.309 0 1.972-.571 2.634-1.142.733-.632 1.465-1.264 2.954-1.264 1.488 0 2.221.631 2.953 1.264.662.571 1.324 1.142 2.634 1.142 1.309 0 1.972-.571 2.634-1.142.733-.632 1.465-1.264 2.954-1.264 1.488 0 2.221.631 2.954 1.264.662.571 1.324 1.142 2.634 1.142 1.309 0 1.972-.571 2.634-1.142.733-.632 1.465-1.264 2.954-1.264 1.488 0 2.221.632 2.954 1.264.662.571 1.324 1.142 2.634 1.142 1.309 0 1.972-.571 2.634-1.142.733-.632 1.465-1.264 2.954-1.264.763 0 1.327.166 1.795.413.599-.685 1.16-1.407 1.676-2.171-.308-.201-.577-.434-.847-.666-.661-.57-1.321-1.139-2.624-1.139-1.303 0-1.963.569-2.624 1.139-.734.633-1.469 1.266-2.964 1.266-1.495 0-2.23-.634-2.964-1.266-.661-.57-1.321-1.139-2.624-1.139-1.303 0-1.963.569-2.624 1.139-.734.633-1.469 1.266-2.964 1.266-1.495 0-2.23-.634-2.964-1.266-.661-.57-1.321-1.139-2.624-1.139-1.303 0-1.963.569-2.624 1.139-.734.633-1.469 1.266-2.964 1.266-1.495 0-2.23-.634-2.964-1.266-.661-.57-1.321-1.139-2.623-1.139-1.303 0-1.963.569-2.624 1.139-.734.633-1.469 1.266-2.964 1.266-1.495 0-2.23-.634-2.964-1.266-.661-.57-1.321-1.139-2.624-1.139-1.303 0-1.963.569-2.624 1.139-.734.633-1.469 1.266-2.964 1.266-1.495 0-2.23-.634-2.964-1.266-.661-.57-1.321-1.139-2.623-1.139-1.303 0-1.963.569-2.624 1.139-.734.633-1.469 1.266-2.964 1.266-1.495 0-2.23-.634-2.964-1.266-.661-.57-1.321-1.139-2.624-1.139-1.303 0-1.963.569-2.624 1.139-.25.216-.501.431-.781.622m2.029 2.578c2.057 2.258 4.532 4.103 7.195 5.693 1.158-.064 1.78-.6 2.401-1.136.733-.632 1.465-1.264 2.954-1.264 1.488 0 2.221.631 2.953 1.264.662.571 1.325 1.142 2.634 1.142 1.309 0 1.972-.571 2.634-1.142.733-.632 1.465-1.264 2.954-1.264 1.488 0 2.221.631 2.954 1.264.662.571 1.325 1.142 2.634 1.142 1.309 0 1.972-.571 2.634-1.142.733-.632 1.465-1.264 2.954-1.264 1.488 0 2.221.631 2.953 1.264.662.571 1.324 1.142 2.634 1.142 1.309 0 1.972-.571 2.634-1.142.733-.632 1.465-1.264 2.954-1.264 1.488 0 2.221.631 2.954 1.264.662.571 1.324 1.142 2.634 1.142 1.309 0 1.972-.571 2.634-1.142.733-.632 1.465-1.264 2.954-1.264 1.488 0 2.221.632 2.954 1.264.637.55 1.275 1.1 2.491 1.14 2.653-1.583 5.12-3.42 7.173-5.666-.388-.183-.848-.301-1.443-.301-1.303 0-1.963.569-2.624 1.139-.734.633-1.469 1.266-2.964 1.266-1.495 0-2.23-.634-2.964-1.266-.661-.57-1.321-1.139-2.624-1.139-1.303 0-1.963.569-2.624 1.139-.734.633-1.469 1.266-2.964 1.266-1.495 0-2.23-.634-2.964-1.266-.661-.57-1.321-1.139-2.624-1.139-1.303 0-1.963.569-2.624 1.139-.734.633-1.469 1.266-2.964 1.266-1.495 0-2.23-.634-2.964-1.266-.661-.57-1.321-1.139-2.623-1.139-1.303 0-1.963.569-2.624 1.139-.734.633-1.469 1.266-2.964 1.266-1.495 0-2.23-.634-2.964-1.266-.661-.57-1.321-1.139-2.624-1.139-1.303 0-1.963.569-2.624 1.139-.734.633-1.469 1.266-2.964 1.266-1.495 0-2.23-.634-2.964-1.266-.661-.57-1.321-1.139-2.623-1.139-1.303 0-1.963.569-2.624 1.139-.734.633-1.469 1.266-2.964 1.266-1.495 0-2.23-.634-2.964-1.266-.661-.57-1.321-1.139-2.624-1.139-.56 0-1 .105-1.375.27m7.902 6.107c.979.562 1.981 1.092 2.993 1.598.44-.208.966-.343 1.655-.343 1.488 0 2.221.631 2.953 1.264.662.571 1.325 1.142 2.634 1.142 1.309 0 1.972-.571 2.634-1.142.733-.632 1.465-1.264 2.954-1.264 1.488 0 2.221.631 2.954 1.264.662.571 1.325 1.142 2.634 1.142 1.309 0 1.972-.571 2.634-1.142.733-.632 1.465-1.264 2.954-1.264 1.488 0 2.221.631 2.953 1.264.662.571 1.324 1.142 2.634 1.142 1.309 0 1.972-.571 2.634-1.142.733-.632 1.465-1.264 2.954-1.264 1.488 0 2.221.631 2.954 1.264.662.571 1.324 1.142 2.634 1.142 1.309 0 1.972-.571 2.634-1.142.733-.632 1.465-1.264 2.954-1.264.714 0 1.253.145 1.703.366 1.02-.508 2.028-1.041 3.01-1.607-.943-.191-1.519-.688-2.094-1.184-.661-.57-1.321-1.139-2.624-1.139-1.303 0-1.963.569-2.624 1.139-.734.633-1.469 1.266-2.964 1.266-1.495 0-2.23-.634-2.964-1.266-.661-.57-1.321-1.139-2.624-1.139-1.303 0-1.963.569-2.624 1.139-.734.633-1.469 1.266-2.964 1.266-1.495 0-2.23-.634-2.964-1.266-.661-.57-1.321-1.139-2.623-1.139-1.303 0-1.963.569-2.624 1.139-.734.633-1.469 1.266-2.964 1.266-1.495 0-2.23-.634-2.964-1.266-.661-.57-1.321-1.139-2.624-1.139-1.303 0-1.963.569-2.624 1.139-.734.633-1.469 1.266-2.964 1.266-1.495 0-2.23-.634-2.964-1.266-.661-.57-1.321-1.139-2.623-1.139-1.303 0-1.963.569-2.624 1.139-.561.484-1.123.968-2.024 1.169m3.613 1.904c2.241 1.094 4.524 2.077 6.73 3.03.97.418 1.967.84 2.977 1.276.609-.483 1.315-.884 2.502-.884 1.488 0 2.221.631 2.954 1.264.662.571 1.325 1.142 2.634 1.142 1.309 0 1.972-.571 2.634-1.142.733-.632 1.465-1.264 2.954-1.264 1.488 0 2.221.631 2.953 1.264.662.571 1.324 1.142 2.634 1.142 1.309 0 1.972-.571 2.634-1.142.733-.632 1.465-1.264 2.954-1.264 1.209 0 1.918.416 2.535.911 1.031-.445 2.05-.876 3.04-1.303 2.194-.947 4.463-1.924 6.692-3.01-.311-.102-.667-.162-1.092-.162-1.303 0-1.963.569-2.624 1.139-.734.633-1.469 1.266-2.964 1.266-1.495 0-2.23-.634-2.964-1.266-.661-.57-1.321-1.139-2.624-1.139-1.303 0-1.963.569-2.624 1.139-.734.633-1.469 1.266-2.964 1.266-1.495 0-2.23-.634-2.964-1.266-.661-.57-1.321-1.139-2.623-1.139-1.303 0-1.963.569-2.624 1.139-.734.633-1.469 1.266-2.964 1.266-1.495 0-2.23-.634-2.964-1.266-.661-.57-1.321-1.139-2.624-1.139-1.303 0-1.963.569-2.624 1.139-.734.633-1.469 1.266-2.964 1.266-1.495 0-2.23-.634-2.964-1.266-.661-.57-1.321-1.139-2.623-1.139-.399 0-.737.053-1.034.144m10.241 4.536c2.593 1.128 5.242 2.356 7.674 3.851.547.337 1.084.688 1.61 1.056.336-.2.62-.445.905-.69.733-.632 1.465-1.264 2.954-1.264 1.488 0 2.221.631 2.954 1.264.299.258.598.516.957.721.54-.38 1.092-.741 1.654-1.087 2.413-1.484 5.04-2.705 7.614-3.825-.501-.36-1.097-.636-2-.636-1.303 0-1.963.569-2.624 1.139-.734.633-1.469 1.266-2.964 1.266-1.495 0-2.23-.634-2.964-1.266-.661-.57-1.321-1.139-2.623-1.139-1.303 0-1.963.569-2.624 1.139-.734.633-1.469 1.266-2.964 1.266-1.495 0-2.23-.634-2.964-1.266-.661-.57-1.321-1.139-2.624-1.139-.885 0-1.474.263-1.968.61m9.729 5.226c1.225.893 2.385 1.889 3.461 3.02 1.063-1.121 2.207-2.106 3.415-2.991-.305-.2-.572-.431-.839-.661-.661-.57-1.321-1.139-2.624-1.139-1.303 0-1.963.569-2.624 1.139-.253.218-.506.436-.79.628" fill="url(#0)"/></svg>