<svg xmlns="http://www.w3.org/2000/svg" width="300" height="360" viewBox="0 0 84.666667 101.6" fill-rule="evenodd"><defs><linearGradient id="1" gradientUnits="userSpaceOnUse" x1="84.49" y1="80.13" x2="109.65" y2="55.69" gradientTransform="matrix(.42206 0 0 .42263-2.096-11.764)"><stop stop-color="#f5e535"/><stop offset="1" stop-color="#dbc935"/></linearGradient><radialGradient id="0" gradientUnits="userSpaceOnUse" cx="94.39" cy="61.57" r="1.077"><stop stop-color="#7f7f7f"/><stop offset="1"/></radialGradient></defs><path d="m62.58 48.55c.828 0 1.5.672 1.5 1.5v1.5c0 .828-.672 1.5-1.5 1.5h-1.5v-4.5h1.5m0 6c1.657 0 3-1.343 3-3v-1.5c0-1.657-1.343-3-3-3h-3v7.5h3m-6-7.5h1.5v7.5h-1.5v-7.5m-3 0h1.5v7.5h-1.5l-3-4.709v4.709h-1.5v-7.5h1.5l3 4.709v-4.709m-22.5 0h4.5v1.5h-3v1.5h3v1.5h-3v1.5h3v1.5h-4.5v-7.5m-6 0h1.5v6h3v1.5h-4.5v-7.5m15.75 6h1.5c1.242 0 2.25-1.01 2.25-2.25 0-1.242-1.027-2.245-2.25-2.25h-1.5v1.5h1.5c.414 0 .75.336.75.75 0 .414-.336.75-.75.75h-1.5v1.5m1.5-7.5c2.899 0 5.25 2.351 5.25 5.25 0 2.899-2.351 5.25-5.25 5.25-2.899 0-5.25-2.351-5.25-5.25 0-2.899 2.351-5.25 5.25-5.25m0 1.5c2.071 0 3.75 1.68 3.75 3.75 0 2.071-1.68 3.75-3.75 3.75-2.071 0-3.75-1.679-3.75-3.75 0-2.07 1.679-3.75 3.75-3.75" fill="#a90000"/><path d="m0 66.755c.099.85.226 1.692.384 2.525 3.482 18.358 20.941 32.32 41.949 32.32 21.01 0 38.467-13.962 41.949-32.32.158-.833.285-1.676.385-2.526v-66.755h-84.67v66.755"/><path d="m84.2 66.63v-66.17h-83.73v66.17c.112-.043.224-.087.335-.13 2.093-.811 4.184-1.622 8.38-1.622v-.0001c4.193 0 6.286.811 8.38 1.623 2.044.792 4.089 1.585 8.196 1.585 4.107 0 6.152-.793 8.196-1.585 2.093-.811 4.184-1.622 8.38-1.622 4.196 0 6.287.811 8.38 1.622 2.044.792 4.089 1.585 8.196 1.585 4.107 0 6.152-.793 8.196-1.585 2.093-.811 4.184-1.622 8.38-1.622 4.196 0 6.287.811 8.38 1.622.112.043.223.087.335.13m-67.33 26.65c7.07 4.93 15.897 7.858 25.467 7.858 9.57 0 18.395-2.928 25.467-7.858-.161.062-.321.124-.481.186-2.098.813-4.197 1.627-8.41 1.627-4.213 0-6.312-.814-8.41-1.627-2.042-.791-4.082-1.582-8.166-1.582-4.084 0-6.124.791-8.166 1.582-2.098.813-4.197 1.627-8.41 1.627-4.213 0-6.312-.814-8.41-1.627-.16-.062-.32-.124-.481-.186m-11.314-11.933c1.098 1.8 2.348 3.512 3.736 5.12 4.122.014 6.197.818 8.274 1.623 2.044.792 4.089 1.585 8.196 1.585 4.107 0 6.152-.793 8.196-1.585 2.093-.811 4.184-1.622 8.38-1.622 4.196 0 6.287.811 8.38 1.622 2.044.792 4.089 1.585 8.196 1.585 4.107 0 6.152-.793 8.196-1.585 2.075-.804 4.149-1.608 8.273-1.621 1.388-1.608 2.638-3.32 3.737-5.121-1.018-.16-2.198-.258-3.63-.258-4.084 0-6.124.791-8.166 1.582-2.098.813-4.197 1.627-8.41 1.627-4.213 0-6.312-.814-8.41-1.627-2.042-.791-4.082-1.582-8.166-1.582-4.084 0-6.124.791-8.166 1.582-2.098.813-4.197 1.627-8.41 1.627-4.213 0-6.312-.814-8.41-1.627-2.04-.791-4.079-1.581-8.166-1.581v-.0001c-1.432 0-2.612.097-3.63.258m76.06-4.866c.652-1.541 1.198-3.13 1.631-4.759-1.915-.736-3.947-1.426-7.762-1.426-4.084 0-6.124.791-8.166 1.582-2.098.813-4.197 1.627-8.41 1.627-4.213 0-6.312-.814-8.41-1.627-2.042-.791-4.082-1.582-8.166-1.582-4.084 0-6.124.791-8.166 1.582-2.098.813-4.197 1.627-8.41 1.627-4.213 0-6.312-.814-8.41-1.627-2.04-.791-4.079-1.581-8.166-1.581v-.0001c-3.815 0-5.846.69-7.762 1.426.434 1.63.98 3.219 1.632 4.76l.003.007c1.534-.468 3.379-.815 6.127-.815v-.0001c4.193 0 6.286.811 8.38 1.623 2.044.792 4.089 1.585 8.196 1.585 4.107 0 6.152-.793 8.196-1.585 2.093-.811 4.184-1.622 8.38-1.622 4.196 0 6.287.811 8.38 1.622 2.044.792 4.089 1.585 8.196 1.585 4.107 0 6.152-.793 8.196-1.585 2.093-.811 4.184-1.622 8.38-1.622 2.748 0 4.593.348 6.127.815l.003-.008" fill="#367fc1"/><path d="m83.4 71.14c.317-1.277.565-2.578.74-3.9-.162-.062-.323-.125-.485-.187-2.042-.791-4.082-1.582-8.166-1.582-4.084 0-6.124.791-8.166 1.582-2.098.813-4.197 1.627-8.41 1.627-4.213 0-6.312-.814-8.41-1.627-2.042-.791-4.082-1.582-8.166-1.582-4.084 0-6.124.791-8.166 1.582-2.098.813-4.197 1.627-8.41 1.627-4.213 0-6.312-.814-8.41-1.627-2.04-.791-4.079-1.581-8.166-1.581v-.0001c-4.084 0-6.124.791-8.166 1.582-.161.063-.322.125-.485.187.175 1.322.423 2.623.74 3.9 1.947-.746 4.03-1.441 7.911-1.441v-.0001c4.193 0 6.286.811 8.38 1.623 2.044.792 4.089 1.585 8.196 1.585 4.107 0 6.152-.793 8.196-1.585 2.093-.811 4.184-1.622 8.38-1.622 4.196 0 6.287.811 8.38 1.622 2.044.792 4.089 1.585 8.196 1.585 4.107 0 6.152-.793 8.196-1.585 2.093-.811 4.184-1.622 8.38-1.622 3.883 0 5.963.694 7.911 1.441m-73.58 15.928c1.634 1.817 3.446 3.496 5.411 5.01.84.252 1.585.541 2.33.83 2.044.792 4.089 1.585 8.196 1.585 4.107 0 6.152-.793 8.196-1.585 2.093-.811 4.184-1.622 8.38-1.622 4.196 0 6.287.811 8.38 1.622 2.044.792 4.089 1.585 8.196 1.585 4.107 0 6.152-.793 8.196-1.585.745-.289 1.49-.578 2.33-.83 1.966-1.517 3.778-3.196 5.413-5.01-3.665.078-5.596.826-7.529 1.575-2.098.813-4.197 1.627-8.41 1.627-4.213 0-6.312-.814-8.41-1.627-2.042-.791-4.082-1.582-8.166-1.582-4.084 0-6.124.791-8.166 1.582-2.098.813-4.197 1.627-8.41 1.627-4.213 0-6.312-.814-8.41-1.627-1.931-.748-3.861-1.496-7.528-1.574m-6.526-10.03c.571 1.289 1.216 2.543 1.929 3.759 1.096-.187 2.378-.302 3.959-.302v-.0001c4.193 0 6.286.811 8.38 1.623 2.044.792 4.089 1.585 8.196 1.585 4.107 0 6.152-.793 8.196-1.585 2.093-.811 4.184-1.622 8.38-1.622 4.196 0 6.287.811 8.38 1.622 2.044.792 4.089 1.585 8.196 1.585 4.107 0 6.152-.793 8.196-1.585 2.093-.811 4.184-1.622 8.38-1.622 1.581 0 2.863.115 3.959.302.713-1.216 1.359-2.47 1.929-3.759-1.48-.444-3.261-.771-5.888-.771-4.084 0-6.124.791-8.166 1.582-2.098.813-4.197 1.627-8.41 1.627-4.213 0-6.312-.814-8.41-1.627-2.042-.791-4.082-1.582-8.166-1.582-4.084 0-6.124.791-8.166 1.582-2.098.813-4.197 1.627-8.41 1.627-4.213 0-6.312-.814-8.41-1.627-2.04-.791-4.079-1.581-8.166-1.581v-.0001c-2.627 0-4.408.327-5.888.771" fill="#fff"/><g fill-rule="nonzero"><path d="m18.686 32.848c.291.944.707 1.858 1.359 2.703.734.951 1.241 1.983 1.576 3.137.34 1.173.848 2.199 1.41 2.871.378.452 1.032 1.036 1.656.667.182-.108.359-.29.526-.557l.005.003c.101-.438.23-.852.387-1.242.453-1.129 1.175-2.123 2.13-2.877 1.143-2.295 2.624-4.381 4.574-6.085 1.966-1.718 4.405-3.048 7.45-3.811 1.092-.274 2.213-.646 3.319-1.064 1.106-.418 2.203-.884 3.243-1.344 1.978-.874 4.03-1.916 5.768-3.276 1.727-1.351 3.151-3.02 3.896-5.153.46-1.319.522-2.469.288-3.417-.454-1.832-2.062-2.887-3.88-3.01-1.231-.082-2.618.233-3.976 1.01-1.287.734-2.646 1.875-4.04 3.19l-.015.022-.005-.003c-.999.946-2.01 1.981-3.03 3.02-.753.768-1.507 1.537-2.259 2.273l-.005.006c-.877.964-2.47 2.925-3.905 3.124-.363.05-.68-.082-.864-.401-.435.255-1 .554-1.515.483-.301-.042-.524-.252-.524-.566-.002-.684.787-1.182 1.213-1.641.906-.973 1.697-2.089 2.403-3.265.385-.641.744-1.299 1.084-1.962-.312-.242-.513-.621-.513-1.047 0-.455.229-.856.578-1.094-.773-.929-.749-2.064-.083-3.038.274-.401.652-.783 1.113-1.129 2.03-1.528 4.874-2.329 7.818-3.157.823-.231 1.653-.465 2.446-.708 1.971-.604 4.048-.722 5.974-.358 1.674.317 3.234.999 4.512 2.046 1.281 1.049 2.278 2.463 2.821 4.243.511 1.673.619 3.665.182 5.976v.0001c-.673 3.559-3.287 6.41-5.236 8.537-.704.768-1.484 1.626-2.02 2.53-.242-.108-.424-.196-.628-.355-.497.854-1.076 1.403-1.627 1.924-.613.581-1.099 1.142-1.498 1.886-.157-.18-.323-.347-.46-.544-.297.757-.777 1.342-1.224 1.885-.339.412-.656.791-.884 1.275-.168-.109-.34-.212-.484-.354-.539 1.563-1.122 2.893-.906 4.575.179 1.396 1.24 2.32 1.544 3.643.66.371 1.349.549 2.068.523.758-.027 1.556-.28 2.397-.77.785-.457 1.603-.703 2.427-.828 2.471-.375 3.741.438 5.821-1.666.7-.709 1.482-1.333 2.172-2.05.919-.954 1.353-2.152 1.316-3.476v-.009c-.016-.588.039-1.177.154-1.753.283-1.413.917-2.707 1.649-3.796-.421-2.191-.777-4.381-1.026-6.587-.25-2.213-.392-4.443-.382-6.705-1.186-1.932-1.452-4.149-1.806-6.335v-.002c-.035-.218-.059-.427-.072-.625-.013-.199-.016-.392-.009-.578.038-.981.361-1.708.869-2.043l.002-.0001c.106-.069.219-.122.337-.158.118-.036.241-.056.367-.06.611-.021 1.322.324 1.963.959.722.714 1.124 1.42 1.566 2.197.563.989 1.195 2.097 2.666 3.479 1.421 1.335 2.416 2.821 3.197 4.435.775 1.603 1.337 3.332 1.898 5.165 1.112 3.637 1.926 7.486 2.329 11.537.403 4.053.396 8.307-.137 12.751-.317 2.641-.793 4.152-1.325 5.05-.522.885-1.096 1.198-1.633 1.398-.104.293-.228.534-.371.724-.131.173-.278.305-.442.394.071 1.444-.053 2.744-.345 3.958-.302 1.258-.784 2.42-1.414 3.55-.22.394-.473.669-.715.826-.163.106-.326.162-.475.169-.163.008-.309-.04-.427-.141-.343.487-.7.94-1.102 1.363-.482.506-1.027.968-1.689 1.391-.482.308-.854.481-1.115.528-.158.029-.289.016-.395-.037-.13-.065-.207-.177-.233-.332-.022-.133.0001-.301.069-.501l.002-.003c.504-1.497.68-3.182.849-4.805.043-.409.085-.813.127-1.178.134-1.146.258-2.295.37-3.444-.115-.028-.231-.068-.346-.119.244 1.421.152 2.37-.137 2.923-.179.342-.432.545-.731.623-.29.076-.614.03-.948-.122-.547-.249-1.139-.8-1.647-1.573.056.509.161 1.059.337 1.571.058.17.124.334.196.488.072.154.154.302.245.441v.002c.182.279.269.466.196.666-.069.189-.26.304-.627.429-1.349.461-2.518-.254-3.309-1.215-.074-.09-.144-.181-.211-.274.062.295.159.602.293.914.057.134.12.265.188.394.072.137.148.269.227.396l.003.004c.067.107.112.216.131.323.024.133.011.261-.044.378-.053.114-.141.213-.267.292-.12.076-.278.134-.474.17-1.244.228-2.319-.076-3.146-.84-.098-.091-.194-.189-.285-.293.002.04.004.079.005.118.009.287-.011.562-.078.809 1.613.955 3.424 1.245 5.432.868.407-.076.822-.18 1.244-.31.425-.131.858-.29 1.297-.475l.013-.005.28-.118.039.303c.083.645-.034 1.288-.351 1.929-.298.601-.772 1.199-1.423 1.793-.037.577-.876 1.53-1.898 2.28-.209.154-.427.3-.647.435-.175.107-.351.205-.525.294l-.074.023c-.592.043-1.234.066-1.937.066-4.107 0-6.152-.793-8.196-1.585-2.093-.811-4.184-1.622-8.38-1.622-4.196 0-6.287.811-8.38 1.622l-.087.033c-1.05-2.447-2.376-4.834-3.621-7.08-.443-.798-.876-1.578-1.284-2.337-.132.788-.654 2.122-1.658 2.096-.036-.0001-.066-.003-.09-.007-.555-.086-.718-.771-.898-1.21-.283.447-.69 1.01-1.235 1.153-.086.023-.173.034-.26.032h-.002-.008c-.615-.021-.807-.576-1.017-1.181-.078-.225-.159-.459-.265-.659-.138.322-.373.654-.714.778-.073.027-.147.042-.222.046h-.003-.009-.002c-.556.016-1.13-.711-1.731-1.471-.153-.194-.308-.391-.467-.578-.465.677-1.039.411-1.484-.07.635 2.307 1.388 4.534 2.319 6.609.707 1.577.968 2.605.909 3.191-.042.414-.229.648-.529.726-.257.067-.585-.004-.962-.191-.92-.456-2.239-1.653-3.514-3.202-.009.012-.019.023-.029.034-.451.506-1.163.108-1.589-.208-.533-.395-1.13-1.03-1.673-1.739l-.006.009c-.289.409-.784.287-1.151.074-.395-.229-.851-.653-1.293-1.177-3.205-3.801-4.967-7.991-5.584-12.492-.616-4.49-.09-9.286 1.277-14.314.218-.804.492-1.581.767-2.358.19-.537.379-1.074.55-1.618.551-1.762 1.145-3.382 1.856-4.955.712-1.574 1.543-3.102 2.571-4.679v-.003c.347-.531.707-1.063 1.078-1.594.379-.542.758-1.067 1.136-1.573 1.991-2.671 4.205-5.228 6.473-7.608.937-.984 1.818-1.678 2.451-1.895.363-.124.667-.104.887.087.206.179.312.495.29.97-.046 1.016-.677 2.911-2.193 5.974-.068.282-.139.558-.211.828-.078.293-.161.59-.247.889-.446 1.553-1 3.231-1.569 4.82v.0001c-.219.615-.477 1.306-.736 2-.735 1.973-1.483 3.979-1.969 6.03-.054.228-.104.457-.152.686.116 1.015.331 2.061.63 3.034"/><path d="m60.37 57.757c-.573-1.212-.98-2.471-.966-3.838-.676-1.386-.654-2.46-.635-3.346.011-.529.021-.987-.132-1.387l.315-.12c.175.459.165.948.153 1.513-.025 1.182.101 2.179.636 3.262-.025 1.697.526 2.694 1.068 3.87.082.176.178.354.288.529.112.178.236.352.373.518.683.83 1.679 1.453 2.803 1.07.224-.076.331-.12.341-.148.006-.016-.048-.102-.148-.255-.103-.156-.195-.323-.277-.498-.082-.174-.154-.354-.216-.536-.32-.932-.418-1.976-.418-2.714v-.029c-.193-.41-.351-.864-.477-1.363-.153-.606-.259-1.28-.322-2.02-.848-1.16-.654-2.382-.49-3.408.085-.533.161-1.01.064-1.363l.324-.089c.116.425.035.935-.056 1.505-.184 1.159-.272 2.225.486 3.231.057.694.15 1.386.32 2.062.142.561.292.738.592 1.375.537 1.142 1.269 1.947 1.917 2.243.237.108.456.143.64.095.173-.045.324-.172.438-.389.466-.891.161-2.334-.026-3.229-.35-.728-.565-1.475-.689-2.223-.139-.832-.165-1.664-.14-2.468-.618-.845-.596-1.54-.572-2.29.015-.463.031-.949-.121-1.499l.324-.09c.165.599.148 1.111.133 1.599-.027.846.044 1.467.576 2.171-.029.843-.007 1.686.132 2.521.117.7.316 1.401.638 2.083.215.154.423.292.683.367.181-1.919.328-3.84.432-5.757.164-3.01.222-6.02.142-8.986l-.005.006c-.446.499-.857.798-1.211.935-.404.157-.746.114-.999-.076-.024-.018-.043-.033-.057-.046l-.0001-.002c-.053-.047-.1-.104-.14-.171-.037-.062-.067-.132-.091-.212-.105-.35-.078-.904.134-1.711.118-.448.159-.909.201-1.374.013-.15.027-.301.039-.415.163-1.579.266-2.911.28-4.18.012-1.064-.039-2.089-.168-3.184-.578.944-1.061 2.023-1.293 3.183-.054.272-.095.544-.119.814-.025.274-.034.553-.027.835v.009c.025.904-.139 1.651-.408 2.276-.269.625-.643 1.125-1.037 1.535-.312.324-.659.638-1.028.973-.363.329-.749.678-1.149 1.083-.753.762-1.63 1.322-2.575 1.564-.189.048-.377.084-.565.106-.188.022-.38.031-.577.026h-.001c-.776-.022-1.57-.016-2.354.103-.772.117-1.536.346-2.264.77-.907.529-1.777.802-2.613.832-.896.032-1.711-.226-2.477-.678-1.361-.473-2.467-.634-3.382-.52-.974.122-1.735.56-2.361 1.272l-.253-.223c.681-.773 1.51-1.251 2.573-1.384.309-.039.638-.048.989-.026-.093-.555-.285-1.07-.586-1.547-.658-1.042-.588-2.02-.511-3.178l.336.022c-.072 1.072-.151 2.01.459 2.976.341.54.552 1.126.648 1.757.596.068 1.252.219 1.978.458-.139-.464-.374-.857-.617-1.26-.372-.62-.759-1.265-.884-2.24-.069-.538-.074-1.027-.032-1.477.042-.453.131-.865.249-1.246.307-.985.681-1.824.991-2.93.141.22.273.472.455.662.011.013.023.025.035.036.193-.303.43-.593.678-.894.754-.917 1.174-1.726 1.455-2.862.155.338.292.702.507 1.01.36-.564.8-.981 1.259-1.416.774-.733 1.363-1.46 1.855-2.407.152.204.289.438.529.548.406-.628 1.082-1.365 1.864-2.218 3.63-3.961 6.643-8.528 4.952-14.07-.514-1.684-1.459-3.02-2.672-4.02-1.217-.996-2.705-1.647-4.304-1.949-1.854-.351-3.855-.237-5.754.345-.835.256-1.649.485-2.455.711-2.902.816-5.707 1.605-7.665 3.08-.42.316-.762.661-1.01 1.021-.266.389-.419.795-.43 1.195-.011.396.114.795.403 1.18.052.069.109.137.171.205.097-.023.198-.034.301-.034.1 0 .198.011.292.032.101-.414.494-.824.885-1.231.068-.071.137-.143.208-.218l.008-.008c.057-.061.111-.122.172-.191.301-.34.756-.854 1.246-1.15.597-.36 1.226-.42 1.707.38.141.235.19.471.173.703.202-.064.45-.178.704-.295.726-.335 1.507-.695 1.973-.224l.004.004c.072.074.133.164.18.271.044.1.077.216.095.347.053.379-.019.905-.3 1.564 1.05-.928 2.079-1.726 3.075-2.293 1.439-.82 2.917-1.153 4.233-1.066 1.049.07 1.997.405 2.746.974.754.573 1.306 1.379 1.555 2.386.255 1.031.191 2.271-.3 3.68-.778 2.229-2.257 3.964-4.048 5.365-1.779 1.392-3.862 2.45-5.866 3.336-1.042.46-2.144.929-3.266 1.353-1.123.424-2.261.802-3.37 1.08-2.97.745-5.346 2.038-7.258 3.709-1.914 1.673-3.366 3.727-4.488 5.991-.044.7-.173 2 .342 2.476.137-.34.332-.653.561-.939l.262.21c-.253.316-.461.673-.584 1.06-.242.766-.107 1.537.317 2.267l.0001.002c.13.224.296.45.458.67.174.237.345.469.471.699.345-.316.415-.696.48-1.051.098-.535.19-.914.635-1.192.079.664.42.643.637 1.088.701-.575 1.04-1.36 1.111-2.254l.336.026c-.095 1.19-.578 2.061-1.537 2.764-.096-.471-.558-.559-.688-.99-.075.162-.128.424-.164.618-.128.699-.357 1.098-.942 1.508-.162-.373-.372-.688-.613-1.017-.167-.228-.339-.461-.479-.701l-.0001-.002c-.452-.778-.606-1.602-.378-2.429-.658-.424-.633-1.639-.584-2.491-.333.291-.631.613-.894.964-.337.452-.619.955-.842 1.511-1.163 2.896-.742 7.184 1.483 12.877.729 1.864 1.89 3.955 3.131 6.19 1.19 2.143 2.453 4.416 3.485 6.757 1.474-.57 2.978-1.129 5.245-1.393-.648-2.792-1.887-5.759-4.48-7.234l.166-.293c2.692 1.531 3.983 4.592 4.651 7.491.776-.078 1.639-.122 2.617-.122 3.992 0 6.079.734 8.07 1.503.297-.75.007-1.332-.258-1.864-.227-.454-.345-.825-.368-1.326.4.2.801.372 1.261.29-.117-.358-.099-.672-.081-.994.021-.388.044-.789-.215-1.292-.516-.266-.94-.624-1.267-1.077-1.222.242-2.27-.011-3.053-.916-.338-.391-.584-.853-.771-1.333-.627-.376-1.036-.809-1.312-1.278-1.606.114-2.791-1.128-2.818-2.7-1.087-.896-1.05-2.94-1.018-4.637.014-.767.027-1.46-.067-1.916v-.0001l.33-.067v.0001c.102.491.088 1.202.074 1.988-.024 1.317-.214 3.542 1.018 4.465-.001 1.371.864 2.564 2.311 2.536-.301-.669-.385-1.401-.469-2.144-.007-.064-.015-.131-.026-.222-.138-.698-.145-1.446-.089-2.175.054-.703.168-1.391.281-2-.247-.516-.363-1.115-.337-1.687-.428-.238-.679-.558-.819-.93-.282-.752-.129-1.621-.056-2.397l.335.032c-.067.713-.213 1.516.048 2.206.186.494.592.88 1.408 1.065.112-.29.342-.587.581-.897.32-.414.537-.853.827-1.278.33.834.314 1.727.991 2.415.39.396.904.572 1.543.528.115-.439.332-.762.549-1.084.241-.358.413-.712.581-1.106.229.724.456 1.538 1.072 2.033.344.277.754.374 1.23.291.083-.334.246-.664.419-1.013.264-.533.451-1.047.598-1.619.356.686.719 1.429 1.364 1.89.386.276.815.379 1.298.264.074-.272.221-.485.387-.728.423-.616.608-1.205.73-1.934.567.507 1.068 1.099 1.72 1.503.423.262.842.386 1.277.274.055-.322.16-.647.271-.988.268-.825.359-1.541.357-2.395.28.384.526.803.896 1.11.491.408 1.065.515 1.676.275-.032-.323.009-.646.05-.968.053-.42.045-.826.058-1.246.333.259.674.591 1.105.658.314.049.543-.107.65-.401.154-.423.057-.89-.027-1.316.228.011.454.029.677-.035.464-.131.711-.575.581-1.036l.324-.091c.18.638-.173 1.271-.815 1.452-.109.031-.229.051-.36.058.064.442.036.807-.064 1.083-.162.445-.545.693-1.018.619-.22-.034-.464-.135-.719-.308-.008.201-.033.403-.059.605-.049.387-.077.744-.012 1.13-.8.368-1.561.364-2.263-.218-.13-.108-.248-.229-.358-.358-.051.535-.21 1.025-.36 1.487-.118.364-.239.758-.288 1.14-.644.217-1.186.11-1.758-.244-.439-.272-.871-.672-1.322-1.117-.16.703-.438 1.108-.675 1.453-.18.262-.316.492-.377.806-.645.189-1.222.14-1.78-.259-.396-.283-.751-.718-1.073-1.269-.114.311-.256.598-.392.873-.185.373-.357.738-.436 1.148-.627.14-1.206.106-1.726-.313-.368-.296-.673-.758-.915-1.385-.079.133-.163.258-.248.384-.262.389-.457.743-.553 1.207-.354.038-.701.051-1.051-.032.037.376.151.727.307 1.069-.179.758-.244 1.523-.165 2.299.081.794.305 1.555.625 2.284-.013.239-.035.477-.058.714-.112 1.168-.15 2.192.819 3.046.108.499.277.975.569 1.399.666.967 1.824 1.479 3.411 1.562.318.016.798-.136.737-.546-.109-.096-.218-.2-.329-.315-.86-.893-1.433-2.095-1.626-3.572-.037-.285-.06-.582-.069-.889-.008-.291-.002-.59.017-.895-.509-.812-.481-1.835-.455-2.763.02-.726.038-1.389-.213-1.785l-.002-.003.123-.079.159-.106.002.004c.308.483.289 1.197.267 1.977-.025.905-.061 1.872.463 2.665l-.004.057v.004c-.022.317-.028.623-.02.916.008.294.03.578.066.853.183 1.403.725 2.54 1.535 3.382.75.778 1.585 1.092 2.635 1.252.694.106.684-.324.664-.936-.012-.378-.076-.752-.144-1.123-.478-.877-.793-1.908-.924-2.997-.055-.457-.076-.918-.065-1.378-.765-.893-.769-2.232-.771-3.376-.002-.699-.003-1.322-.182-1.675l.291-.147.009-.005c.214.423.215 1.084.217 1.827.002 1.1-.022 2.374.775 3.251-.015.489.002.977.06 1.463.083.698.245 1.371.48 1.99.383.696.715 1.441 1.308 1.989.718.664 1.657.926 2.751.726.291-.053.526-.17.344-.46l-.002-.004c-.171-.274-.323-.558-.45-.853-.317-.735-.446-1.492-.399-2.119m6.496-29.12l.001.054-.002.004c.182 1.322.254 2.526.24 3.787-.014 1.291-.117 2.635-.282 4.224-.064.622-.092 1.251-.252 1.86-.122.464-.547 2.089.539 1.667.58-.225 1.043-.785 1.41-1.275.724-.965 1.034-1.858.992-3.443 1.07-1.243 1.208-2.57.518-4.048.73-.932.855-2.183.69-3.372-.159-1.149-.565-2.439-1.345-3.331.444-.983.483-2.16-.017-3.136-.09-.177-.199-.343-.324-.494-.125-.15-.268-.285-.428-.401l-.002-.0001h-.0001l.169-.228.031-.043.002.0001c.183.133.346.287.488.458.142.17.263.357.365.556.5.978.518 2.247.111 3.232.732.901 1.117 2.201 1.269 3.324.17 1.261.044 2.571-.618 3.482.65 1.46.46 2.901-.569 4.125.026 1.252-.198 2.493-.912 3.531.103 3.159.048 6.358-.126 9.566-.176 3.238-.472 6.482-.849 9.698-.048.407-.087.788-.127 1.172-.172 1.648-.35 3.358-.87 4.904l-.002.003c-.042.126-.059.218-.051.276.018.002.048 0 .089-.008.203-.037.519-.188.949-.463.626-.401 1.144-.839 1.602-1.321.459-.483.86-1.012 1.253-1.593l.052-.078c.489-1.578.451-3.246.387-4.882.591-1.028 1.016-2.144 1.111-3.335.086-1.078-.113-2.113-.51-3.112.568-1.118.977-2.314 1.033-3.577.052-1.167-.212-2.272-.724-3.316.307-.799.601-1.692.57-2.563-.02-.568-.2-1.011-.585-1.421.712-1.638 1.174-3.445.295-5.141l.299-.155c.889 1.717.523 3.534-.199 5.228.308.363.503.835.526 1.476.023.653-.135 1.484-.54 2.559.514 1.075.746 2.191.694 3.347-.051 1.156-.385 2.35-1 3.581.388 1 .563 2.042.477 3.12-.087 1.088-.44 2.216-1.107 3.391.059 1.552.083 3.125-.327 4.629-.179.657.332.51.664.126.833-.965 1.358-2.627 1.649-3.84.329-1.37.396-2.752.313-4.154 1.147-.642 1.581-3.254 1.462-4.476-.051-.523-.156-1.037-.293-1.544.527-.894.837-1.85.907-2.887.069-1.022-.09-2.038-.348-3.02.335-.834.543-1.706.533-2.609-.001-.873-.228-1.7-.597-2.487.363-1.272.652-2.838.264-4.146-.107-.361-.279-.713-.555-.976l-.014-.013c-.885-.822-.912-2.049-.604-3.124l.003-.009.323.094-.002.007c-.272.951-.278 2.053.51 2.784l.016.015c.32.304.523.707.647 1.125.33 1.113.204 2.668-.228 4.214.373.816.564 1.653.575 2.51.001.86-.162 1.739-.515 2.636.262 1.022.397 2.032.331 3.02-.067.994-.336 1.967-.881 2.913.395 1.509.435 3.104-.095 4.591 1.848-.921 2.15-4.235 2.355-5.942.529-4.412.537-8.632.137-12.651-.4-4.02-1.208-7.84-2.311-11.448-.554-1.812-1.109-3.52-1.872-5.098-.757-1.567-1.721-3.01-3.097-4.299-1.521-1.428-2.171-2.57-2.751-3.588-.426-.747-.813-1.426-1.488-2.095-.551-.545-1.139-.842-1.624-.826-.087.003-.169.016-.248.04-.076.023-.149.057-.217.101l-.002.0001c-.384.253-.63.848-.662 1.674-.006.166-.003.343.009.531.013.189.035.384.067.583v.002c.031.193.069.432.106.668.314 1.995.604 3.839 1.671 5.55l.035.056v.068c-.012 2.261.129 4.496.38 6.719.251 2.221.612 4.431 1.038 6.642h.002l.006.043m-23 19.545c.0001.521.12 1.019.354 1.484-.128.687-.243 1.377-.296 2.075-.054.705-.047 1.424.086 2.092l.002.013c.103.878.17 1.79.631 2.571.311.528.76.91 1.284 1.216l.022.058c.175.461.407.911.732 1.286.666.769 1.557 1 2.601.83-.208-.362-.352-.758-.444-1.166-.566-.516-.801-1.08-.88-1.667-.099-.736.041-1.475.084-2.21-.335-.77-.541-1.541-.62-2.313-.078-.767-.029-1.534.146-2.299-.169-.385-.276-.795-.298-1.216-.246-.106-.466-.258-.662-.457-.398-.404-.685-1-.863-1.787-.133.212-.292.418-.448.62-.266.345-.506.658-.604 1.082-.28-.052-.557-.11-.825-.212m16.235 19.872c-.76-.353-1.447-.854-2.051-1.433l.232-.244.034.032.002.002c.713.676 1.545 1.239 2.478 1.561.135-.071.271-.148.407-.231.208-.127.414-.266.614-.413.864-.634 1.593-1.376 1.701-1.795-1.118.177-2.281.134-3.35-.267l.12-.316c.016.006.033.012.049.019h.002c1.039.378 2.145.385 3.218.201l.039-.021c.649-.579 1.115-1.155 1.398-1.726.225-.455.335-.908.329-1.359-.358.143-.71.268-1.056.375-.44.136-.872.244-1.295.323-2.156.404-4.1.081-5.833-.972-.208.158-.497.167-.784.123-.781-.119-1.534-.317-2.181-.784-.123.464-.634.652-1.071.63-.72-.038-1.359-.16-1.911-.37.139.418.12.769.101 1.111-.025.443.019.785.197 1.189-.45.159-.824.2-1.315.044.059.202.163.411.272.628.303.607.633 1.271.277 2.139 2.038.79 4.084 1.579 8.181 1.579.419 0 .817-.008 1.194-.025m-41.859-35.07c-.183-.593-.318-1.196-.431-1.8-.058.365-.11.728-.157 1.089-.08.621-.148 1.255-.201 1.902-.269 3.269-.15 6.59.373 9.799.18 1.104.548 2.108.829 2.877.06.163.115.315.175.487.14.402.234.768.15 1.051-.081.272-.289.445-.699.469-.054.474.035.927.22 1.363-.006.131-.007.262.0001.393.048.832.37 1.64.861 2.308.052.564.156 1.119.342 1.656.354 1.021.863 1.46 1.503 2.271.211.267.991 1.604 1.545 1.224.203-.139.38-.443.461-.838l.015-.075c-.121-.193-.279-.371-.438-.55-.12-.134-.239-.269-.348-.414-.673-.897-1.027-2.157-1.053-3.273-.638-.798-.781-1.832-.747-2.823-.281-.625-.414-1.393-.443-2.17-.012-.304-.008-.61.001-.913v-.005l.336.02v.004c-.017.294-.021.588-.001.882.027.721.141 1.453.446 2.113-.038.996.084 1.979.742 2.768.014 1.082.327 2.304.979 3.18.104.139.222.273.34.406.484.546.95 1.225 1.185 1.906.155.448.297.859.594.869h.007c.64.011 1.106-.968 1.362-1.431.055-.504-.277-.887-.612-1.272-.99-1.14-1.371-2.568-1.462-4.083-.597-.703-.922-1.726-.737-2.643-.266-.491-.254-1.095-.174-1.632l.334.049c-.078.522-.083 1.06.198 1.526l-.015.067v.0001c-.202.878.14 1.838.725 2.498.081 1.481.418 2.88 1.387 3.996.4.46.796.916.693 1.57l.014.025.0001.002c.114.207.2.428.283.637.144.366.271.69.456.719.015.002.025.003.031.003.157.004.388-.096.614-.348.25-.279.479-.733.585-1.421.029-.187.048-.387.057-.601-.581-1.111-1.093-2.172-1.483-3.171-1.789-4.576-2.428-8.28-2.028-11.11-.045.034-.09.064-.136.091-.377.223-.776.235-1.174.078-.369-.146-.733-.44-1.073-.846-.601-.718-1.141-1.805-1.499-3.04-.189-.651-.402-1.188-.649-1.666-.246-.478-.526-.898-.849-1.316-.691-.895-1.129-1.858-1.435-2.85m-.298 15.863c-.166-.017-.35-.059-.553-.134-.082-.03-.167-.065-.257-.107.429 2.296.904 4.592 1.48 6.827.292.334.58.839.975 1.036.155.078.324.008.521-.366-.638-.896-.966-1.97-1.073-3.057-.501-.697-.821-1.553-.871-2.413-.007-.119-.008-.237-.004-.353-.195-.477-.268-.955-.218-1.433m6.159-40.883c-.562.192-1.377.843-2.264 1.775-2.253 2.365-4.455 4.908-6.437 7.566-.395.53-.772 1.05-1.129 1.561-.364.521-.721 1.049-1.07 1.584v.003c-1.013 1.553-1.832 3.06-2.536 4.615-.704 1.556-1.291 3.158-1.837 4.902-.173.553-.364 1.094-.555 1.635-.27.765-.541 1.53-.757 2.326-1.353 4.969-1.872 9.705-1.266 14.13.605 4.414 2.334 8.524 5.479 12.254.41.486.823.874 1.171 1.076.387.224.712.132.641-.262-2.351-4.072-4.482-8.635-4.62-13.408-.346-.733-.515-1.494-.553-2.277-.038-.769.05-1.557.218-2.356-.432-.801-.6-1.603-.575-2.404.024-.796.239-1.589.573-2.378-.156-.491-.233-1.01-.184-1.567.05-.58.235-1.203.606-1.887.108-.199.177-.398.207-.595.029-.195.02-.389-.028-.584l.327-.082c.06.239.071.478.035.716-.036.235-.118.471-.246.706-.346.638-.518 1.218-.565 1.755-.046.535.032 1.028.187 1.494l.02.061-.025.058c-.334.774-.548 1.545-.572 2.312-.026.839.189 1.612.595 2.343-.169.786-.277 1.586-.237 2.392.038.772.216 1.513.551 2.211.118 4.517 2.042 8.84 4.242 12.736.221.391.452.74.726 1.095.509.659 1.06 1.244 1.55 1.606.244.18.466.301.652.342.225.049.433-.018.416-.255-1.992-3.02-3.181-6.457-3.472-10.07-.746-.814-.899-2.054-.784-3.119-.376-.526-.538-1.053-.577-1.58-.038-.518.045-1.032.16-1.544-.289-.724-.435-1.495-.439-2.289-.004-.915.185-1.853.236-2.762.034-.601.045-1.2.032-1.799l.336-.007c.013.611.002 1.218-.032 1.824-.051.901-.24 1.834-.236 2.742.004.783.158 1.539.455 2.262-.117.507-.215 1.025-.176 1.548.042.57.253 1.056.591 1.512l-.008.066v.002c-.125 1.039.002 2.207.768 2.997.257 3.307 1.254 6.453 2.951 9.275.383.637.877 1.191 1.371 1.747 1.05 1.183 2.076 2.073 2.815 2.44.32.158.774.343.826-.165.051-.51-.199-1.459-.871-2.956-1.024-2.282-1.834-4.741-2.508-7.285-.685-2.584-1.219-5.205-1.702-7.833-.514-.555-.901-1.219-1.172-1.924-.316-.822-.504-1.782-.511-2.855-.27-.294-.466-.631-.586-1.012-.037.02-.071.041-.102.063-.182.133-.287.338-.315.616-.057.553-.104.612-.343.915-.238.301-.475.614-.556.997l-.33-.07c.093-.438.351-.793.622-1.136.188-.237.225-.284.272-.74.039-.377.19-.662.452-.854.052-.038.106-.071.164-.1.018-.008.035-.016.052-.024-.085-.44-.081-.931.001-1.474-.463-.609-.653-1.318-.673-2.09-.019-.78.138-1.621.363-2.486l.326.085c-.219.839-.371 1.651-.353 2.393.019.752.222 1.415.694 2.01-.184 1.01-.112 1.998.638 2.774-.0001.98.137 1.952.489 2.87.268.699.568 1.299 1.07 1.721.33.277.778.504 1.213.544.348.033.496-.023.529-.133.048-.162-.031-.444-.143-.766-.044-.125-.106-.296-.173-.48-.288-.786-.664-1.812-.851-2.961-.53-3.25-.651-6.61-.379-9.913.052-.633.12-1.274.204-1.922.084-.648.181-1.283.292-1.903l.004-.022c.453-2.529 1.361-4.965 2.251-7.354.24-.644.479-1.285.733-1.997v-.0001c.564-1.583 1.118-3.252 1.56-4.791.087-.302.169-.597.245-.882.083-.309.149-.536.22-.739-.129.084-.256.155-.382.226-.248.139-.488.274-.709.499l-.24-.236c.256-.26.517-.406.785-.557.264-.148.536-.301.809-.579.074-.163.161-.348.27-.579 1.12-2.384 1.599-3.896 1.637-4.735.014-.321-.033-.515-.131-.6-.083-.072-.234-.067-.436.002" fill="#fff"/><path d="m43.729 13.08l-.003.0001c-.595.232-1.263 1.17-1.878 2.035l-.07.099c-.504.707-1.037 1.34-1.609 1.949-.568.605-1.172 1.185-1.822 1.792l-.006.006c-.371.346-.731.713-1.09 1.079-.256.261-.512.522-.77.774l-.096.094c-.539.526-1.075 1.05-1.695 1.478.013.025.028.048.043.068.079.106.203.146.367.123.219-.031.499-.159.835-.38.719-.473 1.66-1.354 2.797-2.605l.007-.008.002-.0001c.751-.736 1.506-1.506 2.26-2.275 1.016-1.035 2.029-2.068 3.03-3.02.787-1.158.998-1.995.927-2.497-.012-.086-.033-.161-.061-.224-.025-.056-.054-.1-.087-.134l-.0001-.0001c-.238-.24-.866.049-1.45.319-.374.172-.733.338-1.034.38-.008.019-.017.037-.026.056-.177.364-.477.696-.755.965-.637.616-1.324.985-1.996 1.109-.133.025-.265.04-.396.045-.034.0001-.067.002-.1.002.026.104.04.212.04.324 0 .731-.592 1.324-1.323 1.324-.139 0-.274-.022-.4-.062-.343.671-.707 1.337-1.096 1.984-.723 1.203-1.532 2.346-2.461 3.343-.119.128-.247.249-.376.37-.201.189-.404.38-.555.587-.106.145-.159.273-.159.368 0 .029.007.052.02.066.018.019.053.033.106.041.172.024.447-.036.832-.219.922-.438 1.651-1.149 2.383-1.864l.096-.094c.256-.249.509-.508.763-.766.363-.37.727-.74 1.099-1.088l.006-.006c.646-.603 1.246-1.179 1.806-1.776.558-.595 1.079-1.212 1.569-1.9l.07-.099c.653-.918 1.362-1.913 2.086-2.197l.003-.0001.063.164.107.267" fill="url(#1)"/><path d="m14.586 43.878c.14.814-.297 1.425-.7 1.988-.276.386-.534.746-.532 1.097l-.336.0001c-.002-.462.286-.864.594-1.295.363-.508.758-1.06.642-1.734l.332-.057m.605-1.964c.077-.382.276-.596.481-.816.201-.215.408-.438.465-.856l.334.045c-.071.526-.315.788-.552 1.041-.173.185-.341.365-.398.652l-.33-.066m-1.783 7.141c-.037-.563.238-.947.552-1.384.333-.464.715-.995.747-1.884l.336.012c-.036.991-.449 1.567-.81 2.069-.276.385-.518.722-.489 1.166l-.336.021m1.496-8.82c.064-.368.3-.592.56-.839.28-.266.592-.562.674-1.109l.334.05c-.099.661-.456 1-.776 1.303-.217.206-.415.394-.459.651l-.332-.057m1.763 2.056c-.015.338-.179.576-.342.814-.101.147-.201.293-.25.451l-.322-.098c.064-.21.179-.377.295-.545.136-.198.272-.396.283-.637l.336.015m-.52-6.074c.085 1.025-.324 1.481-.689 1.887-.22.245-.422.469-.442.8l-.336-.02c.027-.449.266-.715.527-1.01.319-.355.676-.753.603-1.633l.336-.028m-7.202 17.913c.128.181.28.248.435.316.211.092.426.187.632.488l-.278.19c-.151-.221-.322-.296-.488-.369-.199-.087-.394-.173-.576-.431l.276-.194m-1.512-4.947c.288.803.737 1.357 1.346 1.662l-.15.301c-.69-.345-1.194-.962-1.512-1.85l.317-.114m-.381-3.087c.143 1.085.521 1.755 1.133 2.01l-.131.312c-.73-.307-1.176-1.067-1.336-2.28l.334-.044m1.17 5.87c.009.238.123.421.329.591.229.188.57.362 1 .563l-.141.306c-.455-.212-.817-.397-1.075-.609-.282-.232-.438-.492-.451-.839l.336-.012m-.716-12.974l-.036.204c-.346 1.939-.825 4.626.526 6.499l-.273.197c-1.435-1.99-.942-4.758-.586-6.754l.036-.203.332.058m8.06 8.951c-.151 5.389 1.422 10.953 4.719 16.693l-.291.168c-1.457-2.537-2.581-5.04-3.371-7.513-.149.284-.19.622-.212.937l-.336-.024c.032-.457.111-.963.421-1.321-.319-1.046-.579-2.087-.778-3.121-.246.427-.417.901-.546 1.376l-.325-.088v-.0001c.168-.618.402-1.253.783-1.768-.177-1.01-.296-2.01-.358-3.01-.201.203-.406.453-.592.752-.054.086-.105.175-.154.267-.05.095-.097.192-.142.292l-.31-.133v-.003c.049-.11.1-.215.152-.314.054-.101.109-.197.165-.288.266-.428.57-.765.855-1.014-.029-.635-.035-1.268-.017-1.898l.336.009m-3.771-13.299c-.756 3.173-1.166 6.474-1.06 9.937.105 3.462.726 7.089 2.03 10.914l-.319.108c-.645-1.892-1.124-3.736-1.457-5.537-.225.252-.34.6-.358.935v.004l-.336-.017v-.005c.027-.487.229-1.01.624-1.309-.128-.735-.232-1.462-.312-2.183-.449.331-.561.901-.56 1.424h-.336c-.0001-.7.197-1.427.856-1.799-.077-.761-.129-1.514-.157-2.259-.499.241-.658.937-.756 1.424l-.33-.066c.13-.65.365-1.483 1.074-1.717-.022-.785-.018-1.562.011-2.332-.454.365-.736.83-.887 1.393l-.326-.087c.198-.738.602-1.306 1.231-1.739.033-.665.083-1.325.151-1.979-.52.281-.908.804-1.203 1.308v.0001l-.266-.158-.024-.014v-.0001c.36-.616.858-1.26 1.535-1.528.068-.602.167-1.299.278-1.891-.537.336-.998.959-1.418 1.542l-.243-.234c.455-.694.982-1.315 1.689-1.756l.042-.052c.143-.811.311-1.613.5-2.407l.328.078m13.945 19.68c.281.453.66.7 1 .924.569.371 1.053.686 1.01 1.658l-.336-.016c.037-.779-.373-1.046-.854-1.36-.374-.244-.786-.512-1.106-1.028l.286-.178m-.413-2.309c.172.748.654 1.267 1.444 1.557l-.115.317c-.905-.332-1.458-.931-1.658-1.798l.328-.075m-7.548-31.364c-.067.34-.018.539.037.759.069.277.145.584.059 1.175l-.334-.048c.077-.527.009-.8-.053-1.047-.064-.259-.122-.492-.041-.904l.331.065m.664-1.951c-.234.415-.135.761-.02 1.167.107.374.226.794.158 1.361l-.335-.04c.06-.5-.05-.885-.147-1.229-.136-.479-.252-.886.05-1.424l.294.165m1.332-2.622c-.667.773-.577 1.425-.482 2.118.074.539.151 1.101-.073 1.77l-.319-.107c.199-.594.128-1.116.059-1.618-.106-.77-.205-1.495.561-2.384l.255.221m-2.584 1.102c-1.104.525-1.479 1.378-1.265 2.564-.639.531-.842 1.165-.756 1.976l-.335.036c-.088-.821.093-1.578.726-2.144-.196-1.254.348-2.195 1.486-2.736l.144.305m.024 5.814c-1.272.891-1.616 2.398-1.633 3.867l-.336-.003c.018-1.583.41-3.182 1.777-4.14l.193.276m-3.082-1.091c-.552.679-.483 1.34-.409 2.056.065.63.135 1.3-.164 2.078l-.314-.12c.269-.702.204-1.331.143-1.923-.082-.788-.157-1.515.483-2.303l.261.213m.94 5.888c-.709.862-.947 1.794-.649 2.882-.777.841-.798 1.757-.383 2.776l-.313.127c-.425-1.044-.454-2.101.324-2.993-.278-1.118.043-2.133.761-3.01l.26.214m-3.222-.075c-.518.808-.268 1.503-.018 2.198.221.614.442 1.228.213 1.943l-.321-.103c.194-.606-.007-1.166-.209-1.726-.278-.773-.556-1.545.051-2.493l.284.182m61.63 22.701c.604.663.652 1.514.507 2.357l-.332-.057c.127-.738.108-1.49-.424-2.073l.249-.227m.208-8.66c-.104 1.084.344 1.678.756 2.223.393.521.756 1 .661 1.792l-.335-.04c.079-.656-.245-1.085-.595-1.549-.449-.595-.939-1.243-.822-2.458l.335.032m.303 5.766c-.199.75.069 1.261.353 1.801.281.535.576 1.096.515 1.932l-.336-.024c.053-.741-.218-1.258-.477-1.751-.315-.6-.613-1.168-.38-2.044l.326.086m.002-7.907c-.175.862.202 1.416.594 1.992.394.578.801 1.177.765 2.115l-.336-.012c.032-.827-.344-1.379-.707-1.912-.433-.636-.849-1.248-.646-2.249l.33.067m-3.324-.353c.096 1.407.158 2.814.182 4.221.685.493 1.223 1.15 1.478 1.965l-.322.1c-.205-.658-.618-1.209-1.15-1.637.001.803.007 1.606-.009 2.409.739.352 1.153.87 1.177 1.71l-.336.009c-.018-.642-.292-1.051-.848-1.347-.033 1.372-.104 2.743-.216 4.114.312.259.597.537.794.875.219.376.325.818.235 1.377l-.332-.053c.076-.471-.012-.842-.194-1.155-.135-.232-.324-.437-.537-.63-.073.836-.161 1.672-.264 2.508.373.402.503.867.467 1.412l-.336-.021c.021-.322-.016-.645-.191-.922-.154 1.176-.339 2.352-.557 3.528.398.24.651.752.524 1.213l-.324-.09c.076-.273-.06-.58-.268-.758-.12.629-.25 1.257-.389 1.886.377.282.494.751.494 1.201h-.336c0-.285-.048-.601-.243-.823-.183.803-.382 1.606-.597 2.409l-.326-.087c1.045-3.898 1.7-7.796 2.028-11.694.328-3.9.328-7.8.062-11.699l.336-.022m-2.554-15.7c.101.504.194 1.01.279 1.517.635.597 1.183 1.327 1.606 2.083l-.294.165c-.336-.6-.755-1.168-1.22-1.674.085.551.158 1.103.218 1.659.528.382.902.973 1.183 1.548l-.302.148c-.214-.437-.482-.873-.833-1.214.094 1.013.14 2.03.126 3.047.547.571.901 1.441 1.077 2.186l-.328.077c-.143-.604-.413-1.222-.761-1.736-.022.631-.068 1.266-.141 1.906.443.397.671 1.021.7 1.604l-.336.016c-.021-.418-.158-.853-.417-1.186-.072.537-.164 1.078-.277 1.623.231.329.4.752.483 1.14l-.33.07c-.045-.209-.15-.488-.261-.719-.165.711-.367 1.429-.611 2.154l-.319-.107c.843-2.499 1.178-4.914 1.19-7.275.011-2.362-.303-4.675-.76-6.966l.331-.066m2.89-6.952c1.336 1.299 2.477 2.96 1.757 4.894.793 1.212 1.126 2.574.271 3.859.231.681.277 1.227.181 1.592-.303 1.143-1.551.332-1.958-.192l.243-.234c.679.62 1.123.696 1.305.45.206-.279.073-.969-.145-1.665.908-1.298.55-2.54-.273-3.768.747-1.882-.299-3.414-1.615-4.694l.235-.242m-20.829 34.417c.101.41.058.794.001 1.218-.078.683-.085 1.288.115 1.959-.015.188-.026.376-.029.565-.003.179 0 .364.008.55.042.951.231 1.93.555 2.679l-.309.133c-.218-.505-.378-1.107-.476-1.734-.159.157-.302.333-.42.523l-.0001.002-.288-.175.002-.003c.176-.284.397-.539.653-.755-.025-.219-.042-.439-.052-.657-.008-.19-.011-.381-.008-.57.0001-.052.002-.103.004-.154-.279.322-.508.686-.732 1.048l-.286-.177c.296-.477.6-.959 1.01-1.35-.143-.539-.155-.993-.129-1.398-.295.317-.541.696-.723 1.09l-.308-.137.002-.004c.246-.536.613-1.093 1.077-1.452l.002-.021c.045-.393.085-.749-.002-1.1l.327-.081m3.545.03c.162.576.183 1.136.203 1.693.023.643.047 1.28.299 1.907l.012.029v.033.058c.013 1.472.258 2.987.814 4.35l-.311.127c-.253-.621-.451-1.312-.591-2.027-.19.225-.348.476-.469.744l-.308-.14c.172-.378.411-.726.702-1.023-.093-.574-.149-1.155-.167-1.736-.351.447-.677.981-.865 1.525l-.318-.111c.233-.671.651-1.358 1.128-1.867-.217-.624-.239-1.238-.261-1.857l-.003-.09c-.256.32-.495.745-.689 1.189-.051.116-.099.234-.143.353-.043.116-.084.233-.12.349l-.322-.1c.038-.12.08-.243.127-.368.046-.122.096-.246.15-.368.262-.6.608-1.172.975-1.531-.023-.348-.066-.697-.165-1.047l.324-.091m3.748.038v.002c.189.407.272.971.359 1.563.099.673.185 1.416.542 2.01.023.841.12 1.676.342 2.489.207.759.515 1.474.939 2.157l-.286.178c-.393-.633-.69-1.294-.903-1.991-.177.327-.295.687-.38 1.049l-.329-.075v-.0001c.115-.495.292-.998.585-1.414-.148-.593-.24-1.212-.282-1.865-.326.509-.578 1.062-.833 1.609l-.305-.143c.315-.675.627-1.371 1.076-1.97-.228-.435-.344-.982-.433-1.534-.339.483-.606 1.029-.825 1.577l-.313-.125c.269-.672.603-1.363 1.068-1.915-.083-.563-.163-1.099-.33-1.459l-.0001-.003.306-.14m6.677-3.521c.231.407.29.902.354 1.446.083.697.185 1.355.528 1.981-.011.527.015 1.053.085 1.575.169 1.266.574 2.425 1.148 3.148l-.264.21c-.404-.51-.729-1.215-.954-2.02-.105.181-.201.379-.285.571-.053.122-.102.245-.147.369l-.317-.116c.163-.442.364-.888.636-1.271-.143-.635-.221-1.286-.239-1.936-.325.494-.612 1.03-.826 1.584v.002l-.313-.123v-.0001c.272-.702.647-1.387 1.097-1.986-.269-.537-.373-1.08-.441-1.59-.391.518-.729 1.097-.949 1.711l-.019-.006-.299-.106.0001-.002c.27-.753.7-1.455 1.208-2.068-.056-.466-.116-.887-.299-1.208l.293-.166m-7.258-40.29l.002.002c.218.174.475.333.741.497.954.589 2.01 1.244 1.984 2.878 1.312.833 1.439 2.796.836 4.104.504 1.046.388 2.78-.452 3.559.079 1.259-.409 2.46-1.482 3.201l-.191-.277c1-.691 1.426-1.812 1.332-2.979v-.003l-.007-.089c.908-.719.969-2.371.467-3.327l-.043-.078c.633-1.274.592-3.121-.801-3.921.065-1.447-.703-2.093-1.817-2.78-.277-.171-.545-.336-.774-.52l-.002-.002.21-.264m-10.715 42.2c.091.372.069.799.044 1.271-.034.653-.046 1.281.122 1.92-.173.549-.226 1.102-.163 1.674.061.549.222 1.1.445 1.653l-.313.127c-.224-.554-.388-1.11-.459-1.667-.164.2-.315.419-.426.654l-.306-.141.0001-.0001c.168-.359.416-.695.694-.973-.013-.445.039-.89.175-1.335l-.007-.028c-.364.315-.676.705-.957 1.097l-.002.003-.275-.194.002-.003c.332-.462.705-.936 1.16-1.277-.062-.424-.059-.832-.043-1.215-.41.294-.741.74-.97 1.19l-.0001.0001-.299-.155c.285-.561.732-1.154 1.291-1.444.021-.407.033-.774-.04-1.073l.327-.083m14.995.323v.004c.083.396.129.835.176 1.277.077.737.124 1.636.568 2.267.021.868.079 1.74.256 2.592.164.79.425 1.518.834 2.148l-.282.184c-.357-.55-.607-1.167-.78-1.829-.121.242-.212.509-.263.776v.0001l-.331-.063v-.0001c.077-.401.229-.859.487-1.171-.135-.658-.205-1.356-.239-2.072-.321.496-.616 1.031-.774 1.603l-.324-.09c.203-.733.61-1.412 1.042-2.031-.238-.396-.356-.92-.435-1.481-.344.405-.64.927-.772 1.45l-.327-.081c.165-.656.56-1.348 1.045-1.801-.014-.121-.026-.243-.039-.365-.045-.433-.091-.862-.17-1.241v-.004l.33-.07"/></g><circle r=".451" cy="56.09" cx="99.91" transform="matrix(.42206 0 0 .42263-2.096-11.764)" fill="#b2b2b2"/><path d="m38.822 13.835c.102.001.206.013.309.009.109-.005.22-.017.331-.038.583-.108 1.188-.436 1.758-.987.247-.239.51-.529.659-.834.131-.269.17-.553.008-.821-.296-.493-.692-.451-1.071-.222-.131.079-.262.178-.388.287.245.178.404.467.404.793 0 .541-.438.98-.979.98-.311 0-.587-.145-.767-.371-.313.333-.584.654-.591.899.125.083.235.186.325.306" fill="#e5e5e5" fill-rule="nonzero"/><circle r="2.972" cy="62.46" cx="94.45" transform="matrix(.42206 0 0 .42263-2.096-11.764)" fill="url(#0)"/></svg>