<svg xmlns="http://www.w3.org/2000/svg" width="300" height="365" viewBox="0 0 84.666667 103.01111" fill-rule="evenodd"><path d="m62.58 49.26c.828 0 1.5.672 1.5 1.5v1.5c0 .828-.672 1.5-1.5 1.5h-1.5v-4.5h1.5m0 6c1.657 0 3-1.343 3-3v-1.5c0-1.657-1.343-3-3-3h-3v7.5h3m-6-7.5h1.5v7.5h-1.5v-7.5m-3 0h1.5v7.5h-1.5l-3-4.709v4.709h-1.5v-7.5h1.5l3 4.709v-4.709m-22.5 0h4.5v1.5h-3v1.5h3v1.5h-3v1.5h3v1.5h-4.5v-7.5m-6 0h1.5v6h3v1.5h-4.5v-7.5m15.75 6h1.5c1.242 0 2.25-1.01 2.25-2.25 0-1.242-1.027-2.245-2.25-2.25h-1.5v1.5h1.5c.414 0 .75.336.75.75 0 .414-.336.75-.75.75h-1.5v1.5m1.5-7.5c2.899 0 5.25 2.351 5.25 5.25 0 2.899-2.351 5.25-5.25 5.25-2.899 0-5.25-2.351-5.25-5.25 0-2.899 2.351-5.25 5.25-5.25m0 1.5c2.071 0 3.75 1.68 3.75 3.75 0 2.071-1.68 3.75-3.75 3.75-2.071 0-3.75-1.679-3.75-3.75 0-2.07 1.679-3.75 3.75-3.75" fill="#a90000"/><path d="m84.67 0v87.37c0 4.888-4 8.887-8.89 8.887h-24.587c-4.138.015-7.632 2.896-8.592 6.749h-.526c-.961-3.854-4.455-6.734-8.594-6.749h-24.587c-4.889 0-8.89-3.999-8.89-8.887v-87.37c28.22 0 56.44 0 84.67 0"/><path d="m84.3.371c0 .735 0 87 0 87 0 4.696-3.822 8.516-8.519 8.516h-24.587c-4.197.017-7.741 2.846-8.856 6.69-1.115-3.843-4.659-6.674-8.855-6.69h-24.589c-4.698 0-8.519-3.82-8.519-8.516 0 0 0-86.27 0-87 .732 0 83.19 0 83.925 0" fill="#fff"/><g fill-rule="nonzero"><path d="m42.33 100.8c1.609-3.274 4.937-5.424 8.548-5.548.094-.004.197-.005.309-.005v-.002h24.587.002v.002c4.306-.0001 7.87-3.564 7.871-7.869h-.002v-.0001h.002v-86.36h-82.63v86.36h.003v.0001h-.003c0 4.305 3.564 7.868 7.871 7.869v-.002h.003 24.587v.002c.111 0 .215.002.309.005 3.611.124 6.939 2.274 8.548 5.548" fill="#3c82c2"/><path d="m63.23 86.63c-11.853 1.787-23.848 2.093-35.871.778l-.001-.0001c-6.691-.731-13.33-1.937-19.858-3.572l.05-.166c1.154-3.887 2.533-7.709 4.162-11.422 4.16-9.483 9.88-18.12 17.449-25.472l.0001-.002.002-.0001c.561-.545 1.127-1.079 1.696-1.602 3.551-3.258 7.391-6.207 11.483-8.756l.086.055.002.0001c3.334 2.128 6.518 4.491 9.51 7.08 7.635 6.597 13.915 14.538 18.635 23.666 2.746 5.31 4.891 10.902 6.603 16.624-4.589 1.166-9.259 2.088-13.941 2.794m13.533-3.03c-1.685-5.589-3.8-11.06-6.483-16.244-4.701-9.09-10.956-17-18.559-23.57-2.956-2.553-6.098-4.889-9.388-6.995-4.665 2.924-9 6.37-12.951 10.205l-.0001.002-.002.0001c-7.539 7.325-13.236 15.925-17.38 25.371-1.601 3.651-2.961 7.407-4.101 11.227 6.407 1.594 12.921 2.764 19.485 3.482l.001.0001c11.994 1.313 23.961 1.01 35.788-.776 4.566-.688 9.1-1.595 13.581-2.705"/><path d="m76.969 83.72c-16.276 4.049-32.907 5.352-49.591 3.526-6.633-.726-13.209-1.909-19.682-3.528 4.146-13.975 11.08-26.634 21.571-36.83 3.971-3.858 8.37-7.349 13.07-10.284 12 7.661 21.547 18.03 28.09 30.682 2.72 5.26 4.844 10.768 6.544 16.434m-58.47-21.326l1.331-1.33-.296-.296c-.351.537-.696 1.079-1.035 1.626m1.399-2.179l.39.39 1.991-1.99-.753-.753c-.556.773-1.099 1.557-1.628 2.353m2.01-2.884l.826.826 1.99-1.989-1.096-1.096c-.586.741-1.16 1.494-1.72 2.26m2.127-2.769l1.148 1.147 1.991-1.99-1.326-1.326c-.617.711-1.221 1.434-1.812 2.169m2.24-2.658l1.357 1.356 1.991-1.99-1.443-1.443c-.647.68-1.282 1.372-1.904 2.077m2.353-2.544l1.453 1.452 1.991-1.99-1.449-1.449c-.153.147-.306.294-.458.442-.52.507-1.032 1.022-1.536 1.544m2.464-2.433l1.438 1.437 1.991-1.99-1.342-1.342c-.707.619-1.402 1.25-2.086 1.895m2.577-2.321l1.31 1.309 1.991-1.99-1.125-1.124c-.736.588-1.461 1.19-2.176 1.805m2.688-2.21l1.071 1.071 1.991-1.99-.796-.796c-.766.558-1.521 1.129-2.266 1.714m2.798-2.099l.722.722 1.991-1.99-.357-.357c-.795.528-1.581 1.069-2.356 1.625m2.91-1.988l.262.262.261-.261-.262-.171-.261.17m1.077.365l-.356.356 1.991 1.99.722-.722c-.773-.553-1.559-1.094-2.357-1.624m2.89 2.01l-.796.796 1.991 1.99 1.071-1.071c-.743-.584-1.498-1.155-2.266-1.715m2.778 2.12l-1.125 1.124 1.991 1.99 1.31-1.31c-.713-.613-1.439-1.215-2.176-1.804m2.667 2.23l-1.343 1.342 1.991 1.99 1.437-1.437c-.683-.644-1.377-1.276-2.085-1.896m2.555 2.343l-1.449 1.448 1.991 1.99 1.453-1.453c-.652-.674-1.318-1.335-1.995-1.985m2.444 2.453l-1.444 1.443 1.991 1.99 1.357-1.356c-.622-.704-1.256-1.397-1.904-2.077m2.332 2.566l-1.326 1.326 1.991 1.99 1.148-1.148c-.591-.735-1.196-1.457-1.813-2.168m2.22 2.678l-1.096 1.096 1.99 1.989.826-.826c-.56-.765-1.134-1.518-1.72-2.26m2.106 2.791l-.753.753 1.991 1.99.391-.391c-.53-.796-1.073-1.58-1.629-2.352m1.993 2.905l-.297.297 1.333 1.333c-.34-.549-.685-1.092-1.036-1.63m3.64 6.155l-1.487 1.487 1.991 1.99.844-.843c-.275-.562-.556-1.121-.844-1.677-.166-.321-.334-.639-.503-.957m1.646 3.252l-.684.684 1.848 1.847c-.374-.85-.762-1.694-1.164-2.531m1.852 4.136l-.545-.545-1.991 1.99 1.991 1.99 1.375-1.375c-.268-.69-.545-1.377-.83-2.06m1.085 2.723l-1.171 1.171 1.991 1.99.237-.237c-.336-.98-.688-1.955-1.056-2.924m1.288 3.609l-.009.009.02.02-.011-.031m.453 1.391l-.922-.922-1.991 1.99.337.337c.938-.207 1.875-.423 2.813-.649-.078-.253-.157-.505-.237-.757m-3.329 1.569l-.043-.043-.066.066.109-.024m-1.268.266l.767-.767-1.991-1.99-1.991 1.99 1.172 1.171c.681-.13 1.362-.265 2.043-.405m-2.815.55l-.858-.858-1.228 1.228c.695-.118 1.391-.242 2.087-.37m-4.188.71l-1.569-1.568-1.991 1.99.071.071c1.163-.15 2.326-.314 3.488-.493m-4.699.644l.222-.222-1.991-1.99-1.991 1.99.568.568c1.064-.103 2.128-.218 3.191-.346m-4.03.424l-.188-.188-.225.225.413-.037m-1.414.121l.767-.767-1.991-1.99-1.99 1.989.932.932c.76-.049 1.521-.103 2.281-.164m-3.146.217l-.526-.526-.585.585c.371-.018.741-.038 1.111-.059m-2.072.103l1.088-1.087-1.991-1.99-1.991 1.99 1.15 1.15c.581-.017 1.162-.038 1.744-.063m-2.637.086l-.715-.715-.741.741c.486-.005.971-.015 1.456-.026m-2.382.034l1.208-1.207-1.991-1.99-1.991 1.99 1.208 1.208c.522.004 1.044.002 1.566 0m-2.492-.009l-.741-.74-.715.715c.485.011.971.019 1.456.026m-2.349-.049l1.15-1.15-1.991-1.99-1.991 1.99 1.088 1.088c.581.024 1.162.045 1.743.062m-2.704-.106l-.585-.585-.526.526c.371.021.741.041 1.111.059m-1.977-.111l.933-.932-1.99-1.989-1.991 1.99.768.767c.76.061 1.52.116 2.281.164m-3.282-.248l-.225-.225-.188.188.413.037m-1.252-.115l.569-.568-1.991-1.99-1.991 1.99.223.223c.548.066 1.096.129 1.645.188.515.056 1.03.108 1.545.158m-4.402-.496l.072-.072-1.991-1.99-1.569 1.568c1.16.179 2.323.344 3.487.494m-5.589-.835l-1.228-1.227-.857.857c.694.128 1.389.252 2.085.37m-2.858-.515l1.172-1.171-1.991-1.99-1.991 1.99.767.766c.68.14 1.361.275 2.043.405m-3.203-.647l-.066-.066-.042.042.108.023m-.861-.187l.337-.337-1.991-1.99-.922.921c-.08.252-.16.504-.238.757.935.225 1.873.442 2.813.649m-2.132-2.766l.019-.019-.001-.009-.001.029m.242-.714l.236.236 1.991-1.99-1.171-1.171c-.366.963-.718 1.938-1.056 2.924m1.311-3.586l1.375 1.374 1.991-1.99-1.991-1.99-.543.543c-.284.682-.562 1.369-.832 2.063m1.519-3.667l1.847-1.846-.683-.683c-.399.833-.788 1.676-1.163 2.529m1.463-3.146l.842.842 1.991-1.99-1.487-1.487c-.462.866-.911 1.745-1.346 2.635m3.292-1.607l1.991-1.99-1.991-1.99-.697.696c-.315.548-.624 1.101-.928 1.659l1.625 1.624m2.449-2.448l1.991-1.99-1.991-1.99-1.991 1.99 1.991 1.99m2.449-2.448l1.991-1.99-1.991-1.99-1.991 1.99 1.991 1.99m2.449-2.448l1.99-1.989-1.991-1.99-1.99 1.989 1.991 1.99m2.449-2.448l1.991-1.99-1.991-1.99-1.991 1.99 1.991 1.99m2.449-2.449l1.991-1.99-1.991-1.99-1.991 1.99 1.991 1.99m2.449-2.448l1.991-1.99-1.991-1.99-1.991 1.99 1.991 1.99m2.449-2.448l1.991-1.99-1.991-1.99-1.991 1.99 1.991 1.99m2.449-2.449l1.991-1.99-1.991-1.99-1.991 1.99 1.991 1.99m2.449-2.448l1.991-1.99-1.991-1.99-1.991 1.99 1.991 1.99m2.449-2.448l1.991-1.99-1.991-1.99-1.991 1.99 1.991 1.99m2.449-1.532l-1.991 1.99 1.991 1.99 1.991-1.99-1.991-1.99m-2.449 2.448l-1.991 1.99 1.991 1.99 1.991-1.99-1.991-1.989m-2.449 2.448l-1.991 1.99 1.991 1.99 1.991-1.99-1.991-1.99m-2.449 2.448l-1.991 1.99 1.991 1.99 1.991-1.99-1.991-1.99m-2.449 2.449l-1.991 1.99 1.991 1.99 1.991-1.99-1.991-1.99m-2.449 2.448l-1.991 1.99 1.991 1.99 1.991-1.99-1.991-1.99m-2.449 2.448l-1.991 1.99 1.991 1.99 1.991-1.99-1.991-1.99m-2.449 2.449l-1.99 1.989 1.991 1.99 1.99-1.989-1.991-1.99m-2.449 2.448l-1.991 1.99 1.991 1.99 1.991-1.99-1.991-1.99m-2.449 2.448l-1.991 1.99 1.991 1.99 1.991-1.99-1.991-1.99m-2.449 2.448l-1.991 1.99 1.991 1.99 1.991-1.99-1.991-1.99m-2.449 2.448l-1.991 1.99 1.991 1.99 1.991-1.99-1.991-1.99m-2.449 2.449l-1.991 1.99 1.991 1.99 1.991-1.99-1.991-1.99m55.875 1.99l-1.991-1.99-1.991 1.99 1.991 1.99 1.991-1.99m-2.449-2.448l-1.991-1.99-1.991 1.99 1.991 1.99 1.991-1.99m-2.449-2.449l-1.991-1.99-1.991 1.99 1.991 1.99 1.991-1.99m-2.449-2.448l-1.991-1.99-1.991 1.99 1.991 1.99 1.991-1.99m-2.449-2.448l-1.991-1.99-1.991 1.99 1.991 1.99 1.991-1.99m-2.449-2.449l-1.99-1.989-1.991 1.99 1.99 1.989 1.991-1.99m-2.449-2.448l-1.991-1.99-1.991 1.99 1.991 1.99 1.991-1.99m-2.449-2.448l-1.991-1.99-1.991 1.99 1.991 1.99 1.991-1.99m-2.449-2.449l-1.991-1.99-1.991 1.99 1.991 1.99 1.991-1.99m-2.449-2.448l-1.991-1.99-1.991 1.99 1.991 1.99 1.991-1.99m-2.449-2.449l-1.991-1.99-1.991 1.99 1.991 1.99 1.991-1.99m-1.532-2.448l1.991 1.99 1.991-1.99-1.991-1.99-1.991 1.99m2.449 2.448l1.991 1.99 1.991-1.99-1.991-1.99-1.991 1.99m2.449 2.449l1.991 1.99 1.991-1.99-1.991-1.99-1.991 1.99m2.449 2.448l1.991 1.99 1.991-1.99-1.991-1.99-1.991 1.99m2.449 2.448l1.991 1.99 1.991-1.99-1.991-1.99-1.991 1.99m2.449 2.449l1.99 1.989 1.991-1.99-1.99-1.989-1.991 1.99m2.449 2.448l1.991 1.99 1.991-1.99-1.991-1.99-1.991 1.99m2.449 2.448l1.991 1.99 1.991-1.99-1.991-1.99-1.991 1.99m2.449 2.448l1.991 1.99 1.625-1.624c-.303-.558-.613-1.11-.927-1.658l-.698-.697-1.991 1.99m8.88 14.691l-1.991-1.99-1.991 1.99 1.991 1.99 1.991-1.99m-2.449-2.448l-1.991-1.99-1.991 1.99 1.991 1.99 1.991-1.99m-2.449-2.448l-1.991-1.99-1.991 1.99 1.991 1.99 1.991-1.99m-2.449-2.448l-1.991-1.99-1.991 1.99 1.991 1.99 1.991-1.99m-2.449-2.449l-1.991-1.99-1.991 1.99 1.991 1.99 1.991-1.99m-2.449-2.448l-1.991-1.99-1.991 1.99 1.991 1.99 1.991-1.99m-2.449-2.448l-1.991-1.99-1.991 1.99 1.991 1.99 1.991-1.99m-2.449-2.448l-1.99-1.989-1.991 1.99 1.99 1.989 1.991-1.99m-2.449-2.448l-1.991-1.99-1.991 1.99 1.991 1.99 1.991-1.99m-2.449-2.449l-1.991-1.99-1.991 1.99 1.991 1.99 1.991-1.99m-2.449-2.448l-1.991-1.99-1.991 1.99 1.991 1.99 1.991-1.99m-2.449-2.448l-1.991-1.99-1.991 1.99 1.991 1.99 1.991-1.99m-2.449-2.449l-1.991-1.99-1.991 1.99 1.991 1.99 1.991-1.99m24.493 29.381l-1.991-1.99-1.991 1.99 1.991 1.99 1.991-1.99m-2.449-2.448l-1.991-1.99-1.991 1.99 1.991 1.99 1.991-1.99m-2.449-2.448l-1.991-1.99-1.991 1.99 1.991 1.99 1.991-1.99m-2.449-2.449l-1.991-1.99-1.991 1.99 1.991 1.99 1.991-1.99m-2.449-2.448l-1.991-1.99-1.991 1.99 1.991 1.99 1.991-1.99m-2.449-2.448l-1.991-1.99-1.991 1.99 1.991 1.99 1.991-1.99m-2.449-2.448l-1.99-1.989-1.991 1.99 1.99 1.989 1.991-1.99m-2.449-2.448l-1.991-1.99-1.991 1.99 1.991 1.99 1.991-1.99m-2.449-2.449l-1.991-1.99-1.991 1.99 1.991 1.99 1.991-1.99m-2.449-2.448l-1.991-1.99-1.991 1.99 1.991 1.99 1.991-1.99m-2.449-2.448l-1.991-1.99-1.991 1.99 1.991 1.99 1.991-1.99m-2.449-2.449l-1.991-1.99-1.991 1.99 1.991 1.99 1.991-1.99m24.493 29.381l-1.991-1.99-1.991 1.99 1.903 1.902.21-.034 1.868-1.868m-2.449-2.448l-1.991-1.99-1.991 1.99 1.991 1.99 1.991-1.99m-2.449-2.448l-1.991-1.99-1.991 1.99 1.991 1.99 1.991-1.99m-2.449-2.449l-1.991-1.99-1.991 1.99 1.991 1.99 1.991-1.99m-2.449-2.448l-1.991-1.99-1.991 1.99 1.991 1.99 1.991-1.99m-2.449-2.448l-1.991-1.99-1.991 1.99 1.991 1.99 1.991-1.99m-2.449-2.448l-1.99-1.989-1.991 1.99 1.99 1.989 1.991-1.99m-2.449-2.448l-1.991-1.99-1.991 1.99 1.991 1.99 1.991-1.99m-2.449-2.449l-1.991-1.99-1.991 1.99 1.991 1.99 1.991-1.99m-2.449-2.448l-1.991-1.99-1.991 1.99 1.991 1.99 1.991-1.99m-2.449-2.448l-1.991-1.99-1.991 1.99 1.991 1.99 1.991-1.99m-2.449-2.449l-1.991-1.99-1.991 1.99 1.991 1.99 1.991-1.99m22.04 26.933l-1.991-1.99-1.991 1.99 1.991 1.99 1.991-1.99m-2.449-2.448l-1.991-1.99-1.991 1.99 1.991 1.99 1.991-1.99m-2.449-2.449l-1.991-1.99-1.991 1.99 1.991 1.99 1.991-1.99m-2.449-2.448l-1.991-1.99-1.991 1.99 1.991 1.99 1.991-1.99m-2.449-2.448l-1.991-1.99-1.991 1.99 1.991 1.99 1.991-1.99m-2.449-2.448l-1.99-1.989-1.991 1.99 1.99 1.989 1.991-1.99m-2.449-2.448l-1.991-1.99-1.991 1.99 1.991 1.99 1.991-1.99m-2.449-2.449l-1.991-1.99-1.991 1.99 1.991 1.99 1.991-1.99m-2.449-2.448l-1.991-1.99-1.991 1.99 1.991 1.99 1.991-1.99m-2.449-2.448l-1.991-1.99-1.991 1.99 1.991 1.99 1.991-1.99m-2.449-2.449l-1.991-1.99-1.991 1.99 1.991 1.99 1.991-1.99m19.594 24.484l-1.991-1.99-1.991 1.99 1.991 1.99 1.991-1.99m-2.449-2.449l-1.991-1.99-1.991 1.99 1.991 1.99 1.991-1.99m-2.449-2.448l-1.991-1.99-1.991 1.99 1.991 1.99 1.991-1.99m-2.449-2.448l-1.991-1.99-1.991 1.99 1.991 1.99 1.991-1.99m-2.449-2.448l-1.99-1.989-1.991 1.99 1.99 1.989 1.991-1.99m-2.449-2.447l-1.991-1.99-1.991 1.99 1.991 1.99 1.991-1.99m-2.449-2.449l-1.991-1.99-1.991 1.99 1.991 1.99 1.991-1.99m-2.449-2.448l-1.991-1.99-1.991 1.99 1.991 1.99 1.991-1.99m-2.449-2.448l-1.991-1.99-1.991 1.99 1.991 1.99 1.991-1.99m-2.449-2.449l-1.991-1.99-1.991 1.99 1.991 1.99 1.991-1.99m17.14 22.04l-1.991-1.99-1.99 1.989 1.991 1.99 1.99-1.989m-2.449-2.448l-1.991-1.99-1.99 1.989 1.991 1.99 1.99-1.989m-2.449-2.448l-1.991-1.99-1.99 1.989 1.991 1.99 1.99-1.989m-2.449-2.449l-1.99-1.989-1.99 1.989 1.99 1.989 1.99-1.989m-2.449-2.448l-1.991-1.99-1.99 1.989 1.991 1.99 1.99-1.989m-2.449-2.448l-1.991-1.99-1.99 1.989 1.991 1.99 1.99-1.989m-2.449-2.448l-1.991-1.99-1.99 1.989 1.991 1.99 1.99-1.989m-2.449-2.448l-1.991-1.99-1.99 1.989 1.991 1.99 1.99-1.989m-2.449-2.449l-1.991-1.99-1.99 1.989 1.991 1.99 1.99-1.989m14.696 19.587l-1.991-1.99-1.991 1.99 1.991 1.99 1.991-1.99m-2.449-2.448l-1.991-1.99-1.991 1.99 1.991 1.99 1.991-1.99m-2.449-2.449l-1.99-1.989-1.991 1.99 1.99 1.989 1.991-1.99m-2.449-2.448l-1.991-1.99-1.991 1.99 1.991 1.99 1.991-1.99m-2.449-2.448l-1.991-1.99-1.991 1.99 1.991 1.99 1.991-1.99m-2.449-2.448l-1.991-1.99-1.991 1.99 1.991 1.99 1.991-1.99m-2.449-2.448l-1.991-1.99-1.991 1.99 1.991 1.99 1.991-1.99m-2.449-2.449l-1.991-1.99-1.991 1.99 1.991 1.99 1.991-1.99m12.246 17.14l-1.991-1.99-1.991 1.99 1.991 1.99 1.991-1.99m-2.449-2.448l-1.99-1.989-1.991 1.99 1.99 1.989 1.991-1.99m-2.449-2.448l-1.991-1.99-1.991 1.99 1.991 1.99 1.991-1.99m-2.449-2.449l-1.991-1.99-1.991 1.99 1.991 1.99 1.991-1.99m-2.449-2.448l-1.991-1.99-1.991 1.99 1.991 1.99 1.991-1.99m-2.449-2.448l-1.991-1.99-1.991 1.99 1.991 1.99 1.991-1.99m-2.449-2.449l-1.991-1.99-1.991 1.99 1.991 1.99 1.991-1.99m9.797 14.69l-1.99-1.989-1.991 1.99 1.99 1.989 1.991-1.99m-2.449-2.448l-1.991-1.99-1.991 1.99 1.991 1.99 1.991-1.99m-2.449-2.449l-1.991-1.99-1.991 1.99 1.991 1.99 1.991-1.99m-2.449-2.448l-1.991-1.99-1.991 1.99 1.991 1.99 1.991-1.99m-2.449-2.448l-1.991-1.99-1.991 1.99 1.991 1.99 1.991-1.99m-2.449-2.449l-1.991-1.99-1.991 1.99 1.991 1.99 1.991-1.99m7.348 12.242l-1.991-1.99-1.991 1.99 1.991 1.99 1.991-1.99m-2.449-2.449l-1.991-1.99-1.991 1.99 1.991 1.99 1.991-1.99m-2.449-2.448l-1.991-1.99-1.991 1.99 1.991 1.99 1.991-1.99m-2.449-2.448l-1.991-1.99-1.991 1.99 1.991 1.99 1.991-1.99m-2.449-2.449l-1.991-1.99-1.991 1.99 1.991 1.99 1.991-1.99m4.898 9.794l-1.991-1.99-1.991 1.99 1.991 1.99 1.991-1.99m-2.449-2.448l-1.991-1.99-1.991 1.99 1.991 1.99 1.991-1.99m-2.449-2.448l-1.991-1.99-1.991 1.99 1.991 1.99 1.991-1.99m-2.449-2.449l-1.991-1.99-1.991 1.99 1.991 1.99 1.991-1.99m2.449 7.345l-1.991-1.99-1.991 1.99 1.869 1.868.21.034 1.903-1.902m-2.449-2.448l-1.991-1.99-1.991 1.99 1.991 1.99 1.991-1.99m-2.449-2.449l-1.991-1.99-1.991 1.99 1.991 1.99 1.991-1.99m-2.449 2.448l-1.991-1.99-1.991 1.99 1.991 1.99 1.991-1.99" fill="#fff"/></g><g transform="matrix(1.83882 0 0 1.83819-150.74-220.91)"><g fill-rule="nonzero"><path d="m115.09 136.13c.16.036.42-.065.547-.103.087-.026.161-.016.211.017.144.093.05.268-.055.347.055.127-.039.279-.144.347.044.143-.058.295-.181.361.091.326-.225.672-.516.743-.385.093-.808-.001-1.199-.052-.333.341-.687.656-1.061.946-.325.252-.667.486-1.024.7-.119.071-1.234.82-1.48.59-.156-.146.138-.433-.058-.302-.017.001-.034.02-.046.029-.093.072-.223.117-.323.035-.114-.093-.107-.273-.069-.4.078-.264.063-.538.081-.809.043-.674.152-1.301.325-1.883.091-.309.201-.605.33-.89-.385-.51-.501-1.558.037-2.01.035-.029.072-.053.111-.072-.009-.106.037-.217.108-.295.049-.054.117-.097.192-.1.014-.142.09-.278.241-.306.025-.112.176-.257.304-.213.045.016.075.052.077.112.009.352.046.711.177 1.04.103-.107.21-.212.322-.314.013-.012.027-.024.04-.036l-.001-.109c-.039-.417-.082-.875.02-1.176.057-.168.208-.375.409-.35.04-.125.153-.258.298-.236.043-.134.129-.285.291-.276.057-.11.191-.183.303-.105.037.026.059.065.056.106-.015.207-.029.413-.028.611.0001.162.013.319.043.466.1-.069.2-.137.3-.205-.001-.376-.063-.817.113-1.156.087-.168.229-.279.462-.243.051-.165.228-.315.407-.248.055-.13.183-.268.338-.224.015.004.03.011.043.018.058-.074.15-.139.247-.102.028.011.051.028.068.05.054.069.029.13.014.204-.027.131-.016.275-.002.413.106-.105.204-.214.293-.325l.004-.005c.2-.251.376-.514.527-.791.266-.487.448-1.024.586-1.561.06-.233.108-.476.135-.738.011-.105.069-.202.186-.19.059.006.122.041.171.08.148.121.197.309.198.492.022-.0001.044.002.065.008.17.046.246.255.202.413.231.094.28.381.157.575.142.094.189.258.162.401.189-.094.419-.107.59.027.182-.191.524-.191.715-.014.172-.181.404-.191.603-.044.181-.145.487-.259.673-.057.202.22-.015.388-.224.487-.218.104-.45.189-.674.275-.379.146-.826.319-1.238.541-.654.353-1.198 1.018-1.588 1.72.157-.024.308-.072.453-.139.123-.057.231-.107.345.018.007.008.015.017.023.027.077.101.04.238-.002.344.147.237.071.513-.114.698-.383.383-1.065.65-1.514.917-.312.689-.663 1.329-1.056 1.92"/><path d="m110.61 135.77c.475-.034.956.052 1.389.25.312-.216.613-.447.905-.688.148-.122.33-.037.388.132.084.245.108.505.129.761.012.141-.063.243-.188.3-.086.04-.175.07-.265.099-.028.009-.057.017-.085.026.303.317.53.704.661 1.124.158-.157.312-.32.461-.489.944-1.067 1.666-2.314 2.208-3.629.166-.404.323-.824.525-1.223.385-.763.839-1.344 1.456-1.773.461-.321 1.01-.52 1.529-.722.052-.02.079-.03.105-.04.187-.072.378-.144.558-.23l.015-.007c.053-.025.119-.056.16-.094.04-.037.056-.083.002-.142-.018-.02-.038-.034-.059-.043-.174-.078-.377.089-.498.201-.22-.241-.443-.185-.603.093-.178-.281-.544-.322-.693.006-.254-.316-.515-.166-.803.013.031-.262.112-.493-.202-.625.163-.259.196-.463-.154-.534.173-.197.017-.509-.21-.282.013-.205.052-.468-.128-.614-.057-.045-.097-.087-.106.006-.13 1.054-.502 2.079-1.091 2.916-.303.431-.672.786-1.089 1.112-.335.262-.693.503-1.031.732-.622.42-1.24.851-1.796 1.358-.621.567-1.129 1.245-1.488 2.01m.934-1.708c-.135-.318-.185-.664-.201-1.01-.004-.094.005-.161-.067-.02-.021.041-.026.09-.036.137-.225-.027-.231.171-.248.332-.23-.089-.305.18-.25.314-.231.071-.375.288-.441.513-.121.412-.023.945.182 1.284.276-.566.634-1.09 1.06-1.554m1.729-1.448c-.058-.256-.061-.522-.049-.783.003-.081.009-.165.014-.25.0001-.012.003-.024.004-.037.004-.029.009-.061.003-.07-.0001-.0001-.001.004-.036.021-.046.031-.074.086-.101.133-.18-.056-.242.195-.282.322-.185-.136-.233.072-.287.213-.138-.073-.24-.013-.309.118-.016.03-.03.063-.042.098-.088.262-.052.686-.015 1.078.35-.302.721-.578 1.099-.843m1.99-1.46c-.016-.181-.043-.364-.006-.545.008-.038.049-.103-.017-.075-.068.029-.116.093-.154.154-.15-.202-.285.071-.358.209-.151-.192-.313.056-.338.224-.084-.02-.173-.04-.258-.015-.065.019-.121.065-.164.149-.148.286-.115.645-.1.954.483-.326.969-.657 1.397-1.054m1.018 2.8c.323-.172.657-.328.963-.531.189-.126.497-.34.454-.613-.011-.071-.047-.139-.107-.199.046-.066.141-.246.022-.298-.062-.027-.248.078-.304.098-.135.048-.274.081-.418.096-.241.464-.404.968-.61 1.447m-2.368 3.697c.328.045.671.116.999.037.279-.067.544-.389.365-.666.139-.067.27-.155.188-.339.137-.075.251-.174.127-.328.059-.034.194-.12.171-.182-.012-.032-.13.007-.19.027-.013.004-.024.008-.033.001-.159.042-.354.101-.518.058-.334.488-.703.952-1.108 1.383m-1.733-1.54c.2.109.385.242.554.395.143-.04.288-.081.423-.143.056-.026.089-.058.084-.123-.02-.241-.041-.487-.12-.717-.017-.051-.054-.094-.105-.052-.271.224-.549.439-.837.641m1.217 1.805c-.128-.47-.386-.899-.738-1.235-.556-.53-1.357-.807-2.135-.723-.064.147-.122.296-.175.447.649.019 1.255.296 1.723.739.36.341.652.76.809 1.234.177-.148.349-.302.516-.462m-3.089 1.606c.15.112-.076.333-.018.387.086.073.677-.25 1.037-.458.49-.283.963-.594 1.405-.951-.135-.45-.402-.852-.736-1.18l-.002-.002c-.009-.009-.018-.018-.025-.025-.001-.009-.019-.018-.025-.024-.45-.425-1.018-.682-1.655-.686-.109.341-.193.69-.254 1.043-.053.308-.091.627-.112.959-.004.069-.007.14-.001.21-.008.213-.015.424-.077.633l-.0001.004c-.003.001-.005.02-.008.032-.002.012-.005.024-.006.037-.008.061-.006.13.034.163.036.029.098-.012.127-.034l.004-.003c.083-.064.242-.165.322-.106" fill="#f0e043"/></g><g><circle transform="matrix(.05845-.07482.07482.05845 111.05 137.62)" r="5.36"/><circle transform="matrix(.04068-.05207.05207.04068 111.05 137.62)" r="5.36" fill="#f0e043"/><g fill-rule="nonzero"><path d="m110.05 138.84h.0001c.019-.011.038-.019.057-.026.019-.007.039-.012.058-.015.108-.019.21.017.257.101.009.018.016.036.02.055.004.019.005.038.003.056-.007.087-.07.18-.169.235h-.0001c-.068.038-.142.052-.207.044-.071-.008-.132-.043-.165-.102v-.0001c-.033-.06-.031-.13 0-.196.027-.058.078-.113.146-.151"/><path d="m110.06 139.13c.071.033.174-.024.213-.082.001-.015.017-.03.019-.045.005-.033-.017-.05-.048-.054-.011-.0001-.021-.002-.032-.0001-.061.005-.124.041-.158.092-.018.027-.033.072.006.09" fill="#f0e043"/></g></g></g><g transform="matrix(1.83882 0 0 1.83819-150.74-220.91)"><g fill-rule="nonzero"><path d="m94.85 136.2c-.16.034-.42-.069-.546-.108-.087-.027-.161-.017-.211.015-.145.092-.052.268.052.348-.056.126.037.28.141.348-.045.143.055.295.178.362-.093.325.219.674.509.747.384.096.808-.003 1.2-.042.33.343.681.662 1.052.955.323.255.662.492 1.018.709.118.072 1.226.83 1.474.603.158-.144-.135-.434.06-.301.017.001.034.02.046.029.092.072.222.119.323.038.115-.092.109-.272.073-.399-.076-.265-.058-.539-.073-.81-.037-.675-.141-1.303-.308-1.886-.089-.309-.196-.607-.322-.893.39-.507.514-1.553-.019-2.01-.035-.03-.072-.054-.111-.073.001-.106-.035-.217-.105-.296-.049-.055-.116-.098-.191-.102-.013-.143-.088-.279-.238-.309-.024-.112-.174-.258-.302-.215-.046.015-.076.051-.078.112-.012.352-.052.71-.187 1.038-.102-.108-.209-.214-.319-.316-.013-.012-.027-.025-.04-.037l.011-.109c.043-.417.09-.874-.009-1.176-.055-.168-.205-.377-.406-.353-.038-.125-.15-.26-.296-.239-.041-.135-.126-.286-.289-.279-.056-.111-.19-.184-.302-.107-.037.026-.06.064-.057.105.013.207.026.414.023.611-.002.162-.015.319-.047.466-.099-.07-.199-.139-.298-.208.013-.376.07-.817-.103-1.157-.085-.168-.226-.281-.46-.247-.05-.166-.225-.317-.405-.252-.054-.131-.181-.27-.337-.227-.015.004-.03.001-.043.018-.057-.074-.149-.14-.246-.104-.028.001-.051.028-.068.049-.055.068-.03.13-.016.204.026.131.013.275-.0001.413-.105-.106-.202-.215-.29-.328l-.004-.005c-.198-.253-.371-.517-.52-.795-.262-.49-.439-1.028-.572-1.566-.058-.234-.104-.477-.129-.74-.001-.106-.067-.203-.185-.192-.059.006-.122.04-.171.079-.15.119-.2.307-.203.49-.022-.0001-.044.002-.065.007-.171.044-.248.253-.206.411-.232.092-.284.379-.162.574-.143.093-.192.256-.166.399-.188-.095-.418-.11-.59.022-.18-.193-.523-.196-.715-.02-.17-.183-.402-.195-.603-.05-.18-.146-.485-.263-.672-.063-.204.218.012.388.219.489.217.106.448.192.672.281.377.149.824.326 1.233.552.651.359 1.189 1.028 1.573 1.733-.157-.026-.308-.074-.452-.143-.122-.058-.231-.109-.345.015-.008.008-.015.017-.023.027-.078.1-.042.237-.0001.344-.15.236-.075.512.108.699.379.387 1.059.659 1.506.93.306.691.652 1.335 1.039 1.929"/><path d="m99.33 135.88c-.474-.038-.956.044-1.391.238-.31-.218-.609-.452-.899-.696-.147-.123-.33-.04-.389.129-.086.244-.112.504-.136.76-.013.141.061.244.185.302.086.04.175.072.265.101.028.009.057.018.085.026-.305.315-.537.7-.671 1.118-.156-.159-.309-.323-.457-.493-.935-1.075-1.646-2.329-2.176-3.649-.163-.405-.316-.827-.514-1.228-.378-.767-.828-1.351-1.44-1.786-.458-.325-1-.529-1.523-.735-.052-.02-.078-.031-.105-.041-.187-.073-.376-.148-.556-.235l-.015-.007c-.053-.025-.118-.057-.159-.095-.04-.037-.055-.084-.0001-.142.019-.02.039-.033.06-.043.175-.077.376.093.496.205.222-.239.444-.181.602.099.18-.28.547-.317.693.012.257-.314.517-.161.803.02-.028-.262-.108-.494.207-.623-.16-.261-.192-.465.158-.533-.171-.198-.013-.509.213-.28-.011-.206-.048-.468.133-.613.057-.045.098-.086.106.007.12 1.055.484 2.083 1.066 2.926.3.434.666.792 1.08 1.121.333.265.689.509 1.025.74.618.425 1.233.862 1.784 1.374.616.572 1.118 1.255 1.47 2.02m-.92-1.717c.138-.317.191-.662.21-1.01.005-.094-.004-.161.067-.019.02.041.025.091.035.137.225-.025.229.173.245.335.231-.087.303.183.247.317.231.072.373.292.437.517.117.413.014.945-.193 1.283-.271-.569-.624-1.095-1.046-1.563m-1.716-1.463c.061-.255.065-.521.056-.782-.003-.081-.007-.165-.012-.25-.0001-.012-.002-.024-.004-.037-.004-.029-.008-.061-.002-.07.0001-.0001.001.004.036.022.045.032.074.087.1.134.181-.054.24.197.279.324.186-.134.232.075.285.215.139-.072.24-.011.308.12.016.03.029.063.041.098.086.263.046.686.006 1.078-.347-.305-.716-.584-1.092-.852m-1.977-1.477c.017-.181.046-.364.011-.545-.007-.038-.048-.104.018-.075.068.029.115.094.153.155.151-.201.284.074.356.212.153-.191.312.059.336.227.084-.02.173-.038.258-.012.065.02.12.066.163.15.145.288.109.646.092.955-.48-.33-.963-.665-1.387-1.066m-1.043 2.791c-.322-.175-.654-.334-.958-.54-.188-.127-.494-.344-.449-.617.012-.071.048-.138.109-.198-.046-.066-.139-.247-.02-.298.063-.027.247.08.303.1.134.049.273.083.417.1.237.466.395.971.598 1.453m2.335 3.718c-.328.042-.672.11-.999.028-.278-.069-.541-.394-.359-.669-.139-.068-.269-.157-.185-.34-.136-.076-.25-.176-.124-.329-.058-.035-.193-.122-.169-.184.012-.032.13.008.19.029.013.005.024.008.032.011.159.044.353.104.518.062.329.491.695.958 1.096 1.393m1.746-1.524c-.201.108-.387.238-.557.39-.143-.041-.287-.084-.422-.147-.056-.026-.089-.058-.083-.124.022-.241.045-.486.126-.716.018-.05.055-.094.105-.052.269.226.545.444.831.649m-1.232 1.794c.132-.469.394-.896.749-1.228.561-.525 1.364-.795 2.141-.705.062.148.119.297.171.449-.649.014-1.258.285-1.73.724-.363.338-.659.755-.82 1.227-.176-.149-.347-.305-.512-.466m3.075 1.633c-.151.11.073.333.015.387-.087.072-.675-.256-1.033-.467-.488-.287-.957-.602-1.396-.963.139-.448.409-.848.746-1.174l.002-.002c.009-.009.018-.017.025-.024.001-.009.019-.018.026-.024.454-.421 1.024-.673 1.66-.672.106.342.187.692.245 1.045.051.308.085.628.103.96.004.07.006.14.008.211.006.213.011.424.071.633l.0001.004c.003.001.005.021.008.032.002.012.004.024.006.037.008.061.004.13-.035.162-.036.029-.098-.013-.127-.035l-.004-.003c-.082-.065-.24-.167-.321-.108" fill="#f0e043"/></g><g><circle transform="matrix(-.0578-.07532-.07532.0578 98.88 137.72)" r="5.36"/><circle transform="matrix(-.04023-.05242-.05242.04022 98.88 137.72)" r="5.36" fill="#f0e043"/><g fill-rule="nonzero"><path d="m99.87 138.95h-.0001c-.019-.011-.038-.019-.057-.026-.019-.007-.039-.012-.058-.016-.108-.02-.21.015-.258.098-.001.018-.017.036-.021.055-.004.019-.005.038-.004.056.007.088.069.181.167.237h.0001c.068.038.142.053.206.046.072-.008.132-.042.166-.101v-.0001c.034-.059.032-.13.0001-.196-.027-.058-.077-.114-.145-.152"/><path d="m99.86 139.24c-.071.033-.174-.026-.213-.084-.001-.015-.016-.03-.018-.045-.005-.033.017-.049.049-.054.011-.0001.021-.0001.032-.0001.061.005.124.042.157.093.018.028.032.072-.007.09" fill="#f0e043"/></g></g><g fill-rule="nonzero"><path d="m103.05 132.5c-.146-.065-.29-.294-.368-.397-.053-.071-.116-.106-.174-.109-.166-.011-.194.181-.158.303-.116.067-.131.241-.088.354-.117.087-.126.263-.067.386-.259.202-.213.655-.027.878.246.295.637.459.967.653.063.459.157.91.281 1.352.108.385.24.765.395 1.139.052.124.489 1.353.814 1.317.207-.023.142-.418.219-.202.008.017.015.035.019.049.031.11.106.22.232.214.143-.007.241-.151.285-.272.092-.251.262-.457.405-.679.356-.551.633-1.104.835-1.658.107-.294.193-.589.257-.886.596-.176 1.292-.927 1.131-1.587-.001-.043-.025-.083-.045-.12.068-.078.097-.191.086-.293-.007-.071-.036-.143-.092-.189.071-.12.09-.269-.011-.379.045-.102.011-.302-.114-.342-.045-.014-.089-.003-.125.043-.21.27-.447.529-.74.709-.019-.143-.042-.287-.07-.431-.003-.017-.007-.035-.001-.052l.071-.079c.272-.303.57-.636.665-.929.053-.164.054-.413-.118-.51.041-.12.03-.29-.096-.357.045-.13.064-.297-.067-.384.019-.119-.044-.253-.177-.257-.044-.0001-.084.016-.105.05-.108.17-.216.34-.331.493-.094.126-.194.242-.303.339-.038-.112-.077-.223-.116-.334.225-.288.522-.602.581-.968.029-.181-.017-.35-.22-.457.056-.159.004-.378-.175-.429.032-.134.012-.315-.135-.37-.015-.005-.029-.009-.044-.011-.002-.091-.037-.195-.134-.223-.028-.008-.056-.008-.082-.0001-.082.022-.098.085-.128.151-.054.118-.147.224-.237.324-.022-.143-.036-.285-.041-.423v-.007c-.011-.311.004-.618.046-.922.074-.535.242-1.059.445-1.558.088-.217.191-.434.321-.655.052-.089.063-.198-.036-.256-.05-.029-.119-.038-.18-.036-.186.008-.332.127-.439.269-.017-.013-.036-.024-.055-.032-.159-.063-.34.057-.397.206-.235-.06-.439.135-.456.358-.165-.009-.297.092-.358.219-.094-.183-.266-.326-.476-.32-.031-.254-.299-.453-.55-.424-.029-.241-.205-.383-.445-.383-.058-.218-.231-.484-.492-.434-.285.055-.213.312-.107.51.11.207.242.407.368.605.211.333.461.727.654 1.138.306.654.347 1.487.246 2.261-.108-.11-.199-.234-.274-.37-.063-.115-.119-.217-.279-.186-.011.002-.022.005-.034.008-.118.034-.169.162-.197.27-.252.1-.352.36-.315.611.077.521.456 1.123.652 1.591-.155.718-.251 1.422-.286 2.11"/><path d="m106.75 134.81c-.351-.301-.776-.512-1.23-.608-.119-.349-.22-.703-.309-1.061-.045-.181-.237-.22-.38-.121-.207.143-.376.332-.541.52-.091.103-.091.226-.027.343.044.081.096.156.15.231.017.023.034.046.052.069-.42.073-.821.243-1.166.495-.032-.214-.058-.43-.077-.649-.12-1.379.037-2.771.375-4.111.104-.412.224-.83.298-1.259.141-.819.122-1.535-.111-2.226-.174-.517-.486-.989-.777-1.448-.029-.046-.044-.069-.059-.093-.105-.164-.211-.331-.302-.502l-.008-.014c-.027-.05-.06-.112-.07-.166-.001-.052.005-.097.08-.112.026-.005.049-.004.071.0001.181.04.242.288.272.445.311-.061.453.112.417.422.302-.117.611.063.537.406.381-.1.498.168.619.475.128-.222.197-.45.519-.371.023-.297.115-.475.429-.328-.021-.253.281-.407.327-.098.109-.168.23-.395.455-.406.07-.003.126-.012.08.066-.508.898-.81 1.914-.834 2.908-.012.512.07 1 .208 1.498.11.398.25.794.382 1.168.243.688.477 1.382.617 2.099.157.802.162 1.625.002 2.427m.258-1.874c.289-.17.528-.412.739-.67.058-.071.089-.129.064.023-.007.044-.032.086-.051.128.191.109.081.267.0001.403.231.064.134.317.013.39.14.189.126.442.048.656-.144.392-.529.751-.885.898.112-.602.135-1.218.071-1.826m-.513-2.131c.194-.166.349-.373.491-.583.044-.065.089-.134.133-.203.006-.009.012-.02.018-.032.013-.025.029-.053.038-.056.0001 0 .006.009.016.038.017.051.009.11.002.162.173.06.076.292.034.414.223.0001.14.191.101.332.151.023.195.128.173.27-.005.033-.013.066-.024.101-.083.256-.356.566-.612.851-.099-.438-.229-.868-.371-1.294m-.709-2.291c.117-.132.244-.259.32-.422.016-.034.022-.109.057-.049.036.062.037.14.031.209.234-.071.181.22.159.37.229-.063.212.225.135.37.077.032.158.069.21.138.04.053.057.12.042.211-.05.309-.284.57-.473.803-.188-.534-.377-1.073-.481-1.631m-2.415 1.598c-.153-.321-.323-.636-.444-.972-.075-.207-.192-.553 0-.741.05-.049.117-.081.199-.094.002-.078.032-.274.155-.245.064.015.149.204.181.252.077.116.167.222.27.317-.08.501-.244.989-.36 1.483m-.289 4.257c-.282-.154-.591-.298-.802-.549-.179-.213-.2-.619.1-.731-.07-.133-.121-.277.049-.373-.064-.138-.096-.281.09-.33-.026-.06-.082-.206-.028-.241.028-.018.097.081.133.131.008.011.014.02.019.027.1.125.218.283.371.345-.022.574-.002 1.15.066 1.721m2.243-.201c-.219-.03-.441-.034-.66-.012-.089-.114-.178-.23-.248-.357-.029-.053-.036-.097.006-.145.155-.177.313-.356.508-.491.043-.03.097-.042.112.019.082.331.175.661.282.985m-1.994.706c.372-.293.821-.479 1.29-.538.741-.092 1.527.155 2.086.67-.035.151-.076.302-.122.45-.518-.36-1.151-.495-1.773-.419-.478.058-.949.217-1.345.496-.053-.218-.098-.438-.136-.659m1.484 3.041c-.182 0-.133.304-.21.312-.109.007-.384-.587-.545-.957-.219-.505-.408-1.02-.547-1.554.365-.273.807-.433 1.257-.496h.003c.013-.002.024-.003.034-.005.013-.002.025-.003.034-.004.597-.072 1.19.056 1.689.421-.112.329-.248.651-.404.961-.136.271-.292.542-.467.814-.037.057-.076.113-.114.17-.117.17-.234.34-.306.539l-.0001.004c-.003.009-.008.019-.013.03-.005.011-.001.022-.016.032-.029.052-.071.105-.12.107-.045.002-.07-.066-.08-.1v-.0001l-.0001-.004c-.028-.098-.093-.269-.191-.269z" fill="#f0e043"/></g><g><circle transform="matrix(-.00238-.09223-.09223.00238 105.34 136)" r="5.36"/><circle transform="matrix(-.00166-.06419-.06419.00166 105.34 136)" r="5.36" fill="#f0e043"/><g fill-rule="nonzero"><path d="m105.42 137.53v-.002c-.009-.019-.019-.037-.03-.053-.011-.017-.023-.032-.037-.046-.074-.077-.174-.108-.258-.07-.018.008-.034.018-.048.031-.014.012-.025.027-.035.042-.045.073-.049.181-.004.282v.0001c.031.069.081.123.136.154.061.035.128.043.188.016h.0001c.06-.028.099-.084.113-.153.012-.061.004-.133-.027-.202"/><path d="m105.25 137.75c-.075-.015-.122-.119-.119-.187.0001-.017.005-.033.011-.046.015-.029.042-.029.069-.014.001.005.018.011.026.018.045.039.073.104.07.163-.002.032-.016.075-.057.067" fill="#f0e043"/></g></g></g></svg>