<svg xmlns="http://www.w3.org/2000/svg" width="300" height="360" viewBox="0 0 84.666667 101.6" fill-rule="evenodd"><path d="m62.58 48.55c.828 0 1.5.672 1.5 1.5v1.5c0 .828-.672 1.5-1.5 1.5h-1.5v-4.5h1.5m0 6c1.657 0 3-1.343 3-3v-1.5c0-1.657-1.343-3-3-3h-3v7.5h3m-6-7.5h1.5v7.5h-1.5v-7.5m-3 0h1.5v7.5h-1.5l-3-4.709v4.709h-1.5v-7.5h1.5l3 4.709v-4.709m-22.5 0h4.5v1.5h-3v1.5h3v1.5h-3v1.5h3v1.5h-4.5v-7.5m-6 0h1.5v6h3v1.5h-4.5v-7.5m15.75 6h1.5c1.242 0 2.25-1.01 2.25-2.25 0-1.242-1.027-2.245-2.25-2.25h-1.5v1.5h1.5c.414 0 .75.336.75.75 0 .414-.336.75-.75.75h-1.5v1.5m1.5-7.5c2.899 0 5.25 2.351 5.25 5.25 0 2.899-2.351 5.25-5.25 5.25-2.899 0-5.25-2.351-5.25-5.25 0-2.899 2.351-5.25 5.25-5.25m0 1.5c2.071 0 3.75 1.68 3.75 3.75 0 2.071-1.68 3.75-3.75 3.75-2.071 0-3.75-1.679-3.75-3.75 0-2.07 1.679-3.75 3.75-3.75" fill="#a90000"/><path d="m42.23 101.6c-2.806-5.233-8.329-8.792-14.684-8.792h-18.477c-5.01 0-9.07-4.061-9.07-9.07v-83.74h84.67v83.74c0 5.01-4.064 9.07-9.07 9.07h-18.477c-6.354 0-11.878 3.56-14.684 8.792h-.197"/><g fill-rule="nonzero"><path d="m42.33 100.83c-1.737-2.971-4.37-5.384-7.478-6.853-2.214-1.046-4.689-1.632-7.302-1.632v-.002h-.0001v.002h-18.477v-.002h-.0001v.002c-4.72 0-8.611-3.89-8.611-8.607h.002v-83.28h83.74v83.28h.002c0 4.717-3.891 8.606-8.611 8.607v-.002h-.002v.002h-18.477v-.002.002c-2.613 0-5.089.585-7.302 1.632-3.108 1.469-5.741 3.883-7.478 6.853" fill="#5a9844"/><path d="m72.25 64.39l.59.516c.079 2.336-1.777 2.675-3.608 1.982-1.66 4.769-4.986 8.453-8.962 11.445-4.913 3.697-10.561 6.292-16.202 8.655 6.379.236 12.461-2.051 18.04-4.945 3.137-1.627 6.159-3.531 8.785-5.518 1.474-1.116 2.825-2.26 4-3.397 1.114-1.076 2.182-2.235 3.067-3.51.952-1.372 1.406-3.084.288-4.504v-.002c-.534-.692-1.269-1.405-2.061-1.931-.299-.198-.615-.376-.942-.523-.044-.049-.092-.096-.144-.143l-.683-.598c.341-.549.258-1.302-.258-1.754l-.581-.509-.006-.005c-.507-.439-1.263-.434-1.768-.019l-35.913-31.43c.419-2.634-1.805-4.676-4.429-3.876l-20.338-17.799c-.588-.515-1.26-.514-1.798-.238-.202.104-.384.248-.535.418-.151.171-.271.369-.347.581-.195.546-.106 1.178.467 1.675l19.638 17.19c-1.475 1.044-3.03 2.073-4.434 3.205-.101.081-.201.158-.286.256-.479.555-.339 1.359.118 1.922.476.592 1.327.93 1.966.333.315-.294.65-.599 1-.912.28-.249.559-.491.836-.728.547.816 1.236 1.538 1.986 2.169-.705.709-1.426 1.402-2.145 2.096-.585.565-.3 1.379.19 1.879.498.506 1.367.853 1.963.277 1.016-.982 1.978-2.11 2.904-3.307.549-.71 1.086-1.445 1.614-2.188l35.37 30.958c-.337.553-.24 1.295.258 1.738l.007.006.581.509.006.005c.504.436 1.254.434 1.759.027m-39.868-34.891c-.408.504-.839.988-1.278 1.466-.704-.571-1.353-1.221-1.889-1.954.454-.365.912-.726 1.374-1.081l1.793 1.569"/><path d="m75.58 63.29c.13.074.258.153.382.235.753.5 1.452 1.178 1.961 1.837v.002c1 1.267.542 2.797-.308 4.02-.869 1.247-1.915 2.382-3.01 3.436-1.164 1.125-2.502 2.257-3.965 3.365-6.479 4.904-15.376 9.29-22.39 10.236 6.678-1.858 11.938-4.253 16.236-6.958 4.771-3 8.343-6.396 11.379-9.838 1.166-1.322 2.02-2.897.866-4.546-.335-.479-.741-.873-1.152-1.277.029-.169.03-.341-.003-.51m-2.27-3.325l.58.508c.396.346.423.951.092 1.334l-.004.005-1.871 2.136-.005.006c-.341.382-.942.421-1.329.086l-.005-.004-.58-.508-.006-.005c-.383-.34-.421-.941-.086-1.328l.004-.005 1.871-2.136.005-.006c.34-.382.942-.421 1.329-.086l.005.004m2.129 4.281c.34.335.671.671.95 1.068 1.03 1.468.198 2.861-.834 4.03-3.01 3.417-6.556 6.782-11.287 9.76-4.659 2.932-10.461 5.498-17.999 7.406 5.384-2.314 10.286-4.86 14.26-7.85 4.21-3.168 7.377-6.835 8.97-11.255 1.967.631 3.686-.105 3.769-2.195.441.223.934.151 1.355-.09.349-.201.642-.512.817-.876m-2.181.457l-.71-.622 1.614-1.843.67.586c.382.335.42.771.265 1.156-.129.322-.384.606-.684.778-.369.212-.809.247-1.155-.056m-1.736-4.775l-1.615 1.843-35.392-30.974c.471-.669 1.042-1.342 1.278-2.138l35.728 31.27m-43.664-30.346c-.756.64-1.499 1.293-2.222 1.969-.446.417-1.032.104-1.352-.291-.39-.481-.463-1.13.042-1.535 1.9-1.522 3.313-2.415 4.56-3.298l1.387 1.214c-.546.421-1.087.85-1.623 1.285.701 1.01 1.545 1.856 2.506 2.603.771-.836 1.527-1.681 2.195-2.604.639-.884.885-2.187-.008-2.969l-1.492-1.305c2.354-.557 4.129 1.465 3.582 3.732-.216.894-.902 1.666-1.422 2.401-.551.779-1.111 1.548-1.685 2.289-.914 1.182-1.863 2.294-2.863 3.261-.413.399-1.042.068-1.372-.269-.32-.326-.599-.894-.198-1.281.832-.804 1.664-1.609 2.477-2.432-.985-.797-1.861-1.688-2.511-2.771m5.228-3.292c.189.166.32.358.381.604.149.602-.126 1.33-.457 1.787-.12.165-.24.326-.361.483l-23.453-20.525c-.42-.366-.487-.824-.347-1.217.058-.162.149-.314.265-.444.116-.131.257-.243.414-.323.395-.203.891-.202 1.328.181l22.23 19.455" fill="#f8e73d"/><path d="m12.392 64.39l-.59.516c-.079 2.336 1.777 2.675 3.608 1.982 1.66 4.769 4.986 8.453 8.962 11.445 4.913 3.697 10.561 6.292 16.202 8.655-6.379.236-12.461-2.051-18.04-4.945-3.137-1.627-6.159-3.531-8.785-5.518-1.474-1.116-2.825-2.26-4-3.397-1.114-1.076-2.182-2.235-3.067-3.51-.952-1.372-1.406-3.084-.288-4.504l.0001-.002c.534-.692 1.269-1.405 2.061-1.931.299-.198.615-.376.942-.523.044-.049.092-.096.144-.143l.683-.598c-.341-.549-.258-1.302.258-1.754l.581-.509.006-.005c.507-.439 1.263-.434 1.768-.019l35.913-31.43c-.419-2.634 1.805-4.676 4.429-3.876l20.338-17.799c.588-.515 1.26-.514 1.798-.238.202.104.384.248.535.418.151.171.271.369.347.581.195.546.106 1.178-.467 1.675l-19.638 17.19c1.475 1.044 3.03 2.073 4.434 3.205.101.081.201.158.286.256.479.555.339 1.359-.118 1.922-.476.592-1.327.93-1.966.333-.315-.294-.65-.599-1-.912-.28-.249-.559-.491-.836-.728-.547.816-1.236 1.538-1.986 2.169.705.709 1.426 1.402 2.145 2.096.585.565.3 1.379-.19 1.879-.498.506-1.367.853-1.963.277-1.016-.982-1.978-2.11-2.904-3.307-.549-.71-1.086-1.445-1.614-2.188l-35.37 30.958c.337.553.24 1.295-.258 1.738l-.007.006-.581.509-.006.005c-.504.436-1.254.434-1.759.027m39.868-34.891c.408.504.839.988 1.278 1.466.704-.571 1.353-1.221 1.889-1.954-.454-.365-.912-.726-1.374-1.081l-1.793 1.569"/><path d="m9.07 63.29c-.13.074-.258.153-.382.235-.753.5-1.452 1.178-1.961 1.837l-.0001.002c-1 1.267-.542 2.797.308 4.02.869 1.247 1.915 2.382 3.01 3.436 1.164 1.125 2.502 2.257 3.965 3.365 6.479 4.904 15.376 9.29 22.39 10.236-6.678-1.858-11.938-4.253-16.236-6.958-4.771-3-8.343-6.396-11.379-9.838-1.166-1.322-2.02-2.897-.866-4.546.335-.479.741-.873 1.152-1.277-.029-.169-.03-.341.004-.51m2.27-3.325l-.58.508c-.396.346-.423.951-.092 1.334l.004.005 1.871 2.136.005.006c.341.382.942.421 1.329.086l.005-.004.58-.508.006-.005c.383-.34.421-.941.086-1.328l-.004-.005-1.871-2.136-.005-.006c-.34-.382-.942-.421-1.329-.086l-.005.004m-2.129 4.281c-.34.335-.671.671-.95 1.068-1.03 1.468-.198 2.861.834 4.03 3.01 3.417 6.556 6.782 11.287 9.76 4.659 2.932 10.461 5.498 17.999 7.406-5.384-2.314-10.286-4.86-14.26-7.85-4.21-3.168-7.377-6.835-8.97-11.255-1.967.631-3.686-.105-3.769-2.195-.441.223-.934.151-1.355-.09-.349-.201-.642-.512-.817-.876m2.181.457l.71-.622-1.614-1.843-.67.586c-.382.335-.42.771-.265 1.156.129.322.384.606.684.778.369.212.809.247 1.155-.056m1.736-4.775l1.615 1.843 35.392-30.974c-.471-.669-1.042-1.342-1.278-2.138l-35.728 31.27m43.664-30.346c.756.64 1.499 1.293 2.222 1.969.446.417 1.032.104 1.352-.291.39-.481.463-1.13-.042-1.535-1.9-1.522-3.313-2.415-4.56-3.298l-1.387 1.214c.546.421 1.087.85 1.623 1.285-.701 1.01-1.545 1.856-2.506 2.603-.771-.836-1.527-1.681-2.195-2.604-.639-.884-.885-2.187.008-2.969l1.492-1.305c-2.354-.557-4.129 1.465-3.582 3.732.216.894.902 1.666 1.422 2.401.551.779 1.111 1.548 1.685 2.289.914 1.182 1.863 2.294 2.863 3.261.413.399 1.042.068 1.372-.269.32-.326.599-.894.198-1.281-.832-.804-1.664-1.609-2.477-2.432.985-.797 1.861-1.688 2.511-2.771m-5.228-3.292c-.189.166-.32.358-.381.604-.149.602.126 1.33.457 1.787.12.165.24.326.361.483l23.453-20.525c.42-.366.487-.824.347-1.217-.058-.162-.149-.314-.265-.444-.116-.131-.257-.243-.414-.323-.395-.203-.891-.202-1.328.181l-22.23 19.455" fill="#f8e73d"/></g></svg>