<svg xmlns="http://www.w3.org/2000/svg" width="300" height="360" viewBox="0 0 84.666668 101.6" fill-rule="evenodd"><path d="m62.58 48.55c.828 0 1.5.672 1.5 1.5v1.5c0 .828-.672 1.5-1.5 1.5h-1.5v-4.5h1.5m0 6c1.657 0 3-1.343 3-3v-1.5c0-1.657-1.343-3-3-3h-3v7.5h3m-6-7.5h1.5v7.5h-1.5v-7.5m-3 0h1.5v7.5h-1.5l-3-4.709v4.709h-1.5v-7.5h1.5l3 4.709v-4.709m-22.5 0h4.5v1.5h-3v1.5h3v1.5h-3v1.5h3v1.5h-4.5v-7.5m-6 0h1.5v6h3v1.5h-4.5v-7.5m15.75 6h1.5c1.242 0 2.25-1.01 2.25-2.25 0-1.242-1.027-2.245-2.25-2.25h-1.5v1.5h1.5c.414 0 .75.336.75.75 0 .414-.336.75-.75.75h-1.5v1.5m1.5-7.5c2.899 0 5.25 2.351 5.25 5.25 0 2.899-2.351 5.25-5.25 5.25-2.899 0-5.25-2.351-5.25-5.25 0-2.899 2.351-5.25 5.25-5.25m0 1.5c2.071 0 3.75 1.68 3.75 3.75 0 2.071-1.68 3.75-3.75 3.75-2.071 0-3.75-1.679-3.75-3.75 0-2.07 1.679-3.75 3.75-3.75" fill="#a90000"/><path d="m0 66.755c.099.85.226 1.692.384 2.525 3.482 18.358 20.941 32.32 41.949 32.32 21.01 0 38.467-13.962 41.949-32.32.158-.833.285-1.676.385-2.526v-66.755h-84.67v66.755"/><path d="m81.6 76.47c1.302-3.079 2.184-6.349 2.584-9.752v-66.24h-83.7v66.24c.4 3.403 1.282 6.673 2.584 9.753 6.097 14.42 21.381 24.647 39.27 24.647 17.887 0 33.17-10.228 39.27-24.648" fill="#df242e"/><g fill-rule="nonzero"><path d="m38.934 24.19c0-.777.218-1.429.58-1.981-.397-.526-.58-1.221-.58-1.869 0-.768.213-1.413.567-1.961-.388-.523-.567-1.211-.567-1.851 0-.766.212-1.41.565-1.958-.387-.523-.565-1.209-.565-1.848 0-.424.065-.81.183-1.164-.331-.556-.521-1.206-.521-1.9 0-1.548.946-2.874 2.29-3.433v-.303c0-.799.636-1.446 1.421-1.446.785 0 1.421.648 1.421 1.446v.303c1.344.558 2.29 1.885 2.29 3.433 0 .973-.374 1.859-.986 2.521.336.419.524.959.524 1.508 0 .877-.403 1.479-.962 1.927.607.429.962 1.167.962 1.922 0 .86-.388 1.455-.93 1.901.587.432.93 1.157.93 1.899 0 .866-.393 1.463-.94 1.91.593.431.94 1.161.94 1.906 0 .337-.06.62-.165.882h.677l7.694-1.092v7.265l-7.489-1.155-.59 47.27c-.017 1.311-.107 2.615-.252 3.918-.37 3.321-1.101 7.02-1.865 9.553l-.034.112c-.185.624-.502 1.691-1.226 1.857-.724-.166-1.04-1.233-1.225-1.857l-.034-.112c-.764-2.532-1.495-6.232-1.865-9.553-.145-1.303-.236-2.607-.252-3.918l-.59-47.27-7.489 1.155v-7.265l7.694 1.092h.953c-.385-.523-.563-1.208-.563-1.845"/><path d="m38.28 26.621l-6.929-1.095v6.104l6.929-1.069v-3.94m8.06 0l6.929-1.095v6.104l-6.929-1.069v-3.94m-4.03 5.934l3.532-1.927v-3.971h-7.06v3.971l3.532 1.927m-2.477-10.759c.079-.091.161-.18.248-.265 1.03-1.018 2.294-1.358 3.509-2.01.788-.422 1.472-1 1.472-1.983 0-.655-.332-1.302-.907-1.613-.119.073-.241.141-.365.206-1.161.605-2.388.942-3.361 1.903-.595.589-.993 1.336-.994 2.308 0 .49.123 1.029.398 1.453m4.363-2.046c-.132.083-.269.159-.407.232-1.161.605-2.388.942-3.361 1.903-.595.589-.993 1.336-.994 2.308 0 .479.118 1 .38 1.424.084-.099.173-.194.266-.286 1.03-1.018 2.294-1.358 3.509-2.01.788-.422 1.472-1 1.472-1.983 0-.639-.316-1.271-.865-1.59m.57 6.412c.184-.281.296-.611.296-1.01 0-.644-.321-1.281-.879-1.597-.128.08-.26.153-.394.223-1.161.605-2.388.942-3.361 1.903-.15.149-.288.307-.41.477h4.748m-1.523-20.1v-.139c0-.524-.418-.95-.933-.95-.515 0-.933.425-.933.95v.139c.298-.077.611-.119.933-.119.322 0 .635.041.933.119m-.933.378c1.775 0 3.214 1.441 3.214 3.218 0 1.777-1.439 3.218-3.214 3.218-1.775 0-3.214-1.441-3.214-3.218 0-1.777 1.439-3.218 3.214-3.218m-2.813 5.641c-.04.202-.062.416-.062.642 0 .481.119 1.01.382 1.428.083-.098.171-.192.264-.283.293-.29.605-.524.93-.727-.591-.221-1.11-.589-1.514-1.059m5.177.441c-.642.532-1.466.852-2.364.852-.216 0-.427-.018-.633-.054-.443.24-.866.521-1.249.901-.595.589-.993 1.336-.994 2.308 0 .482.119 1.01.385 1.431.083-.097.17-.191.261-.281 1.03-1.018 2.294-1.358 3.509-2.01.788-.422 1.472-1 1.472-1.983 0-.421-.137-.838-.388-1.166" fill="#f8e73d"/><g transform="matrix(.70457 0 0 .70552-62.3-24.07)"><path d="m148.46 79.24l4.11-2.241v-4.197h-8.22v4.197z"/><path fill="#f8e73d" d="m148.46 78.44l3.41-1.86v-3.08h-6.82v3.08z"/></g><path d="m42.552 32.984l3.221-1.757-.587 47.07c-.016 1.302-.106 2.598-.251 3.893-.367 3.29-1.091 6.955-1.847 9.463l-.034.114c-.105.356-.264.892-.502 1.225v-60.01m-.495 60.01c-.238-.332-.397-.869-.502-1.224l-.034-.114c-.757-2.509-1.481-6.174-1.847-9.464-.144-1.295-.234-2.59-.251-3.893l-.587-47.07 3.221 1.757v60.01" fill="#fff"/><path d="m20.437 43.69c3.233 0 6.1 1.913 7.858 4.85.713 1.191 1.216 2.505 1.51 3.86l.18.838c.68-1.84 1.128-3.533 1.129-5.515v-.002-.0001c-.0001-5.994-4.235-12.159-10.677-12.159-6.441 0-10.676 6.165-10.676 12.159v.0001.002c.0001 1.982.449 3.675 1.129 5.515l.179-.838c.294-1.356.797-2.669 1.51-3.86 1.758-2.937 4.625-4.85 7.858-4.85"/><path d="m20.437 43.19c-3.416 0-6.437 2.01-8.283 5.093-.593.991-1.048 2.064-1.362 3.175-.358-1.211-.535-2.474-.535-3.737v-.002-.0001c0-5.718 4.02-11.663 10.18-11.663 6.165 0 10.181 5.945 10.181 11.663v.0001.002c.0001 1.263-.177 2.526-.535 3.737-.314-1.111-.769-2.184-1.362-3.175-1.846-3.084-4.868-5.093-8.283-5.093" fill="#f4e855"/><path d="m64.17 43.69c-3.233 0-6.1 1.913-7.858 4.85-.713 1.191-1.216 2.505-1.51 3.86l-.18.838c-.68-1.84-1.128-3.533-1.129-5.515v-.002-.0001c.0001-5.994 4.235-12.159 10.677-12.159 6.441 0 10.676 6.165 10.676 12.159v.0001.002c-.0001 1.982-.449 3.675-1.129 5.515l-.179-.838c-.294-1.356-.797-2.669-1.51-3.86-1.758-2.937-4.625-4.85-7.858-4.85"/><path d="m64.17 43.19c3.416 0 6.437 2.01 8.283 5.093.593.991 1.048 2.064 1.362 3.175.358-1.211.535-2.474.535-3.737v-.002-.0001c0-5.718-4.02-11.663-10.18-11.663-6.165 0-10.181 5.945-10.181 11.663v.0001.002c-.0001 1.263.177 2.526.535 3.737.314-1.111.769-2.184 1.362-3.175 1.846-3.084 4.868-5.093 8.283-5.093" fill="#f4e855"/><path d="m20.437 72.67c3.233 0 6.1-1.913 7.858-4.85.713-1.191 1.216-2.505 1.51-3.86l.18-.838c.68 1.84 1.128 3.533 1.129 5.515v.002.0001c-.0001 5.994-4.235 12.159-10.677 12.159-6.441 0-10.676-6.165-10.676-12.159v-.0001-.002c.0001-1.982.449-3.675 1.129-5.515l.179.838c.294 1.356.797 2.669 1.51 3.86 1.758 2.937 4.625 4.85 7.858 4.85"/><path d="m20.437 73.16c-3.416 0-6.437-2.01-8.283-5.093-.593-.991-1.048-2.064-1.362-3.175-.358 1.211-.535 2.474-.535 3.737v.002.0001c0 5.718 4.02 11.663 10.18 11.663 6.165 0 10.181-5.945 10.181-11.663v-.0001-.002c.0001-1.263-.177-2.526-.535-3.737-.314 1.111-.769 2.184-1.362 3.175-1.846 3.084-4.868 5.093-8.283 5.093" fill="#f4e855"/><path d="m64.17 72.67c-3.233 0-6.1-1.913-7.858-4.85-.713-1.191-1.216-2.505-1.51-3.86l-.18-.838c-.68 1.84-1.128 3.533-1.129 5.515v.002.0001c.0001 5.994 4.235 12.159 10.677 12.159 6.441 0 10.676-6.165 10.676-12.159v-.0001-.002c-.0001-1.982-.449-3.675-1.129-5.515l-.179.838c-.294 1.356-.797 2.669-1.51 3.86-1.758 2.937-4.625 4.85-7.858 4.85"/><path d="m64.17 73.16c3.416 0 6.437-2.01 8.283-5.093.593-.991 1.048-2.064 1.362-3.175.358 1.211.535 2.474.535 3.737v.002.0001c0 5.718-4.02 11.663-10.18 11.663-6.165 0-10.181-5.945-10.181-11.663v-.0001-.002c-.0001-1.263.177-2.526.535-3.737.314 1.111.769 2.184 1.362 3.175 1.846 3.084 4.868 5.093 8.283 5.093" fill="#f4e855"/></g></svg>