<svg xmlns="http://www.w3.org/2000/svg" xmlns:xlink="http://www.w3.org/1999/xlink" width="300.05" height="360" viewBox="0 0 84.681318 101.6" fill-rule="evenodd"><defs><linearGradient xlink:href="#0" id="K" x1="44.04" y1="68.1" x2="42.28" y2="68.08" gradientUnits="userSpaceOnUse"/><linearGradient xlink:href="#1" id="D" x1="104.99" y1="108.82" x2="104.81" y2="121.19" gradientUnits="userSpaceOnUse"/><linearGradient xlink:href="#0" id="B" x1="105.07" y1="176.89" x2="105.01" y2="172.98" gradientUnits="userSpaceOnUse"/><linearGradient xlink:href="#0" id="C" x1="105.17" y1="157.48" x2="105.08" y2="141.91" gradientUnits="userSpaceOnUse"/><linearGradient xlink:href="#1" id="E" x1="105.21" y1="141.47" x2="105.31" y2="153.72" gradientUnits="userSpaceOnUse"/><linearGradient xlink:href="#0" id="J" x1="44.07" x2="42.09" gradientUnits="userSpaceOnUse"/><linearGradient xlink:href="#0" id="F" x1="112.72" x2="101.48" gradientUnits="userSpaceOnUse"/><linearGradient xlink:href="#1" id="I" x1="42.792" y1="54.07" x2="42.745" y2="55.896" gradientUnits="userSpaceOnUse"/><linearGradient xlink:href="#0" id="G" x1="113.82" y1="138.52" x2="101.83" y2="138.37" gradientUnits="userSpaceOnUse"/><linearGradient xlink:href="#1" id="H" x1="104.95" y1="126.29" x2="104.85" y2="135.1" gradientUnits="userSpaceOnUse"/><linearGradient xlink:href="#0" id="A" x1="42.02" y1="41.864" x2="42.2" y2="34.19" gradientUnits="userSpaceOnUse"/><linearGradient id="0" gradientUnits="userSpaceOnUse" y1="178.16" x2="0" y2="165.61"><stop stop-color="#b8b8b8"/><stop offset="1" stop-color="#fff"/></linearGradient><linearGradient id="1" gradientUnits="userSpaceOnUse" x1="104.93" y1="167.42" x2="105.07" y2="179.15"><stop stop-color="#bababa"/><stop offset="1" stop-color="#fff"/></linearGradient><linearGradient id="4" gradientUnits="userSpaceOnUse" y1="91.12" x2="0" y2="55.974"><stop stop-color="#ffcf00"/><stop offset="1" stop-color="#ffe600"/></linearGradient><linearGradient id="3" gradientUnits="userSpaceOnUse" x1="19.05" y1="72.42" x2="65.63" y2="71.921"><stop stop-color="#ffcf00"/><stop offset=".502" stop-color="#ff0"/><stop offset="1" stop-color="#ffcf00"/></linearGradient><linearGradient xlink:href="#1" id="9" x1="104.73" y1="124.62" x2="104.86" y2="115.46" gradientUnits="userSpaceOnUse"/><linearGradient xlink:href="#0" id="7" gradientUnits="userSpaceOnUse" y1="75.861" x2="0" y2="65.29"/><linearGradient xlink:href="#1" id="5" gradientUnits="userSpaceOnUse" x1="42.28" y1="60.35" x2="42.4" y2="76.69"/><radialGradient xlink:href="#2" id="8" cx="42.614" cy="67.63" r=".979" gradientTransform="matrix(1.16098-.00432.00465 1.24831-7.205-16.651)" gradientUnits="userSpaceOnUse"/><radialGradient id="2" gradientUnits="userSpaceOnUse" cx="105.55" cy="101.89" r="2.186"><stop stop-color="#fff"/><stop offset=".302" stop-color="#fff"/><stop offset="1" stop-color="#ccc"/></radialGradient><radialGradient xlink:href="#2" id="6" gradientUnits="userSpaceOnUse" cx="42.802" cy="11.569" r="1.842"/></defs><path d="m62.59 48.55c.828 0 1.5.672 1.5 1.5v1.5c0 .828-.672 1.5-1.5 1.5h-1.5v-4.5h1.5m0 6c1.657 0 3-1.343 3-3v-1.5c0-1.657-1.343-3-3-3h-3v7.5h3m-6-7.5h1.5v7.5h-1.5v-7.5m-3 0h1.5v7.5h-1.5l-3-4.709v4.709h-1.5v-7.5h1.5l3 4.709v-4.709m-22.5 0h4.5v1.5h-3v1.5h3v1.5h-3v1.5h3v1.5h-4.5v-7.5m-6 0h1.5v6h3v1.5h-4.5v-7.5m15.75 6h1.5c1.242 0 2.25-1.01 2.25-2.25 0-1.242-1.027-2.245-2.25-2.25h-1.5v1.5h1.5c.414 0 .75.336.75.75 0 .414-.336.75-.75.75h-1.5v1.5m1.5-7.5c2.899 0 5.25 2.351 5.25 5.25 0 2.899-2.351 5.25-5.25 5.25-2.899 0-5.25-2.351-5.25-5.25 0-2.899 2.351-5.25 5.25-5.25m0 1.5c2.071 0 3.75 1.68 3.75 3.75 0 2.071-1.68 3.75-3.75 3.75-2.071 0-3.75-1.679-3.75-3.75 0-2.07 1.679-3.75 3.75-3.75" fill="#a90000"/><g fill-rule="nonzero"><path d="m.0001 0v51.11c-.0001 17.08 10.794 32.706 25.03 42.35 5.294 3.585 11.148 6.414 17.31 8.146 6.162-1.732 12.02-4.561 17.31-8.146 14.236-9.639 25.03-25.27 25.03-42.35v-51.11h-84.68"/><path d="m84.24.455v50.662c-.0001 16.92-10.711 32.414-24.834 41.977-5.221 3.535-10.988 6.328-17.06 8.05-6.073-1.722-11.839-4.515-17.06-8.05-14.12-9.563-24.833-25.06-24.833-41.977v-50.662h83.79" fill="#1eb1dd"/><path d="m50.06 93.15c1.576-.525 3.079-1.205 4.491-2.02 7.266-4.204 12.153-12.04 12.153-21.02v-.002c-.0001-2.312-.325-4.547-.93-6.663-.584-2.045-1.443-4.01-2.542-5.832l2.612-2.194-2.573-3.18-1.167.357-6.102 3.536c1.376 1.609 2.497 3.423 3.246 5.405.73 1.932 1.13 4.02 1.13 6.204v.002c0 4.588-1.763 8.77-4.657 11.925v-23.299l-6.607-2.163v-9.993l.732-1.102-2.125-1.291v-8.914l.78-.845-1.016-1.293-3.654-13.08v-1.416h-.589v-1.855h.63v-.767c.521-1.16.041-1.83-.482-2.558-.322-.449-.663-.923-.748-1.554.167-.102.278-.286.278-.496 0-.221-.124-.413-.306-.511v-1.207l.481.329.308-.452-.789-.54v-1.213h1.543v-.548h-1.543v-.563h.412v-.546h-.412v-.425h-.548v.425h-.412v.546h.412v.563h-1.543v.548h1.543v.838l-.481-.329-.308.452.789.54v1.582c-.182.098-.306.29-.306.511 0 .21.111.394.278.496-.085.632-.425 1.105-.748 1.554-.522.728-1 1.398-.482 2.558v.767h.63v1.855h-.589v1.416l-3.654 13.08-1.016 1.293.78.845v8.914l-2.125 1.291.732 1.102v9.993l-6.607 2.163v23.299c-2.894-3.155-4.657-7.337-4.657-11.925v-.002c-.0001-2.181.399-4.272 1.129-6.204.749-1.982 1.87-3.796 3.246-5.405l-6.102-3.536-1.167-.357-2.573 3.18 2.612 2.194c-1.099 1.821-1.957 3.788-2.542 5.832-.605 2.116-.929 4.352-.929 6.663v.002c0 8.975 4.887 16.815 12.153 21.02 1.412.817 2.915 1.497 4.491 2.02 4.977 1.657 10.448 1.662 15.441 0m-25.578-33.19c-.586 1.071-1.344 1.784-1.693 1.593-.349-.191-.156-1.214.43-2.285.586-1.071 1.344-1.784 1.693-1.593.349.191.156 1.214-.43 2.285m-1.356 12.306c.295 1.184.222 2.223-.164 2.319-.386.096-.938-.786-1.234-1.971-.295-1.184-.222-2.223.164-2.319.386-.096.938.786 1.234 1.971m19.213 14.652c1.221 0 2.211.323 2.211.72 0 .398-.99.72-2.211.72-1.221 0-2.211-.323-2.211-.72 0-.398.99-.72 2.211-.72m17.858-26.958c-.586-1.071-.779-2.094-.43-2.285.349-.191 1.107.522 1.693 1.593.586 1.071.779 2.094.43 2.285-.349.191-1.107-.522-1.693-1.593m1.356 12.306c.295-1.184.848-2.067 1.234-1.971.386.096.459 1.135.164 2.319-.295 1.184-.848 2.067-1.234 1.971-.386-.096-.459-1.135-.164-2.319m-32.12 10.299c.921.801 1.457 1.694 1.196 1.994-.261.3-1.22-.106-2.141-.907-.921-.801-1.457-1.694-1.196-1.994.261-.3 1.22.106 2.141.907m25.804 0c.921-.801 1.88-1.207 2.141-.907.261.3-.275 1.193-1.196 1.994-.921.801-1.88 1.207-2.141.907-.261-.3.274-1.193 1.196-1.994"/><path d="m49.11 56.32h5.383l-5.383-1.762v1.762m-13.548 0v-1.762l-5.383 1.762h5.383" fill="url(#I)"/><path transform="matrix(.84292 0 0 .84292-46.17-74.31)" d="m103.62 109.23l-4.281 15.322h2.502l2.293-15.322zm4.537 15.322h2.502l-4.281-15.322h-.514z" fill="url(#D)"/><path d="m39.29 41.741v-9.52h-2.505l.512.554v8.966h1.993m6.101 0h1.993v-8.966l.512-.554h-2.505v9.52" fill="url(#A)"/><path d="m41.859 69.41v1.116h.964v-1.116h-.964m-.372-.565v.227h.191 1.326.191v-.227h-1.709m.854-3.2c-.054 0-.099.044-.099.099 0 .054.044.099.099.099.054 0 .099-.044.099-.099 0-.054-.044-.099-.099-.099" fill="url(#K)"/><path d="m29.3 56.657v12.413h1.907v-11.255h4.04v15.852l1.016-.505v-15.347h12.161v15.347l1.016.505v-15.852h4.04v11.255h1.907v-12.413h-26.09m26.09 23.366v-10.617h-1.907v12.324m-22.275 0v-12.324h-1.907v10.616c.464.478.954.932 1.469 1.357.146.12.291.237.438.351zm5.057 2.759v-10.382h-1.016v9.989c.138.058.291.12.461.187.172.067.329.126.469.176h.002l.0001.002.084.03m13.177-.394v-9.988h-1.016v10.382l.082-.029.002-.002h.002c.314-.112.625-.233.931-.363" fill="url(#7)"/><path transform="matrix(.84292 0 0 .84292-46.17-74.31)" fill="url(#E)" d="m110.67 141.23h-11.33v13.75h11.33z"/><path transform="matrix(.84292 0 0 .84292-46.17-74.31)" fill="url(#C)" d="m112.64 154.98v-14.49l.61-.93h-16.5l.61.93v14.49h1.58v-14.15h12.12v14.15z"/><path transform="matrix(.84292 0 0 .84292-46.17-74.31)" fill="url(#G)" d="m111.12 138.08h-12.24l-1.79 1.09h15.82z"/><path transform="matrix(.84292 0 0 .84292-46.17-74.31)" fill="url(#H)" d="m108.22 126.39h-6.44v11.29h6.44z"/><path transform="matrix(.84292 0 0 .84292-46.17-74.31)" fill="url(#F)" d="m110.83 124.95h-11.66l-.81 1.04h13.28z"/><path transform="matrix(.84292 0 0 .84292-46.17-74.31)" fill="url(#9)" d="m105.46 109.23h-.92l-2.29 15.33h5.5z"/><path d="m41.777 14.419v1.855h1.128v-1.855h-1.128m-.63-.633v.296h2.389v-.296h-2.389m1.194-4.985c-.135 0-.244.109-.244.244 0 .135.109.244.244.244.135 0 .244-.109.244-.244 0-.135-.109-.244-.244-.244m1.154 7.81h-2.307v.815h2.307z" fill="url(#J)"/><path d="m42.34 9.764c-.127.621-.46 1.085-.778 1.527-.452.63-.869 1.212-.476 2.158h2.506c.393-.946-.023-1.528-.476-2.158-.317-.442-.65-.906-.777-1.527" fill="url(#6)"/><path d="m53.14 81.986v-23.833h-3.367v25.796c.366-.164.726-.339 1.079-.526.164-.086.309-.166.436-.237.132-.074.275-.158.428-.25h.002c.49-.295.965-.612 1.423-.95m-18.234 1.963v-25.796h-3.367v23.833c.097.072.195.142.292.211.362.256.739.502 1.13.737.626.376 1.275.715 1.945 1.014m7.753-17.913c.043.334.252.598.461.862.375.474.75.948.412 1.806v.366h4.552v-10.917h-11.486v10.917h4.552v-.366c-.338-.858.036-1.332.412-1.806.209-.264.418-.528.461-.862-.072-.078-.116-.181-.116-.295 0-.18.11-.335.266-.401v-.781l-.456-.295.183-.282.273.176v-.426h-.896v-.337h.896v-.278h-.233v-.337h.233v-.222h.337v.222h.233v.337h-.233v.278h.896v.337h-.896v.644l.456.295-.183.282-.273-.176v.563c.157.066.266.221.266.401 0 .114-.044.218-.116.295m-1.138 3.371h-4.924v3.589l4.924-2.446v-1.142m6.562 15.197v-10.497h-11.486v10.497c1.045.346 2.119.594 3.204.745v-8.226c.647-.656 1.545-1.062 2.539-1.062.994 0 1.892.406 2.539 1.062v8.225c.07-.001.141-.02.211-.03.581-.088 1.157-.203 1.725-.346.43-.108.853-.231 1.268-.368m-4.924-15.197v1.142l4.924 2.446v-3.589h-4.924" fill="url(#5)"/><path d="m49.956 92.83c1.551-.516 3.034-1.187 4.428-1.994 7.165-4.146 11.985-11.877 11.985-20.728v-.002c.0001-2.277-.319-4.482-.917-6.571-.603-2.111-1.51-4.124-2.656-5.996l2.58-2.166-2.223-2.747-.674.203 2.102 2.598-2.508 2.107c.636.966 1.198 1.981 1.678 3.034 1.293 2.833 2.01 5.969 2.01 9.267v.002c-.0001 2.753-.501 5.392-1.418 7.836-.373.995-.815 1.958-1.32 2.882-2.598 4.753-6.87 8.506-12.05 10.51-1.774.686-2.345.439-3.902-.235l-.21-.09-.002-.0001c-.172-.074-.349-.143-.531-.207-2.47-.873-5.515-.873-7.985 0-.182.064-.359.134-.531.208h-.0001l-.21.091c-1.556.673-2.128.92-3.902.234-5.178-2-9.45-5.757-12.05-10.51-.505-.924-.947-1.887-1.32-2.882-.916-2.444-1.417-5.083-1.417-7.836v-.002c0-3.298.719-6.434 2.01-9.267.48-1.052 1.042-2.067 1.678-3.034l-2.508-2.107 2.102-2.598-.674-.203-2.223 2.747 2.58 2.166c-1.146 1.872-2.052 3.886-2.656 5.996-.597 2.089-.917 4.294-.917 6.571v.002c0 8.851 4.82 16.582 11.985 20.728 1.394.807 2.876 1.478 4.428 1.994 4.907 1.634 10.309 1.639 15.23 0" fill="url(#4)"/><path transform="matrix(.84292 0 0 .84292-46.17-74.31)" fill="url(#B)" d="m105.82 172.22h-1.64l-6.95 3.46h15.54z"/><path d="m46.44 90.21c.192.068.376.14.552.215h.002l.21.091c1.464.634 2 .867 3.648.23 5.104-1.976 9.314-5.674 11.874-10.358.498-.911.933-1.859 1.301-2.838.903-2.407 1.396-5.01 1.396-7.718v-.002c0-3.25-.708-6.339-1.981-9.127-.493-1.081-1.075-2.122-1.734-3.111l-.085-.127 2.485-2.087-1.961-2.424-5.629 3.261c1.294 1.548 2.33 3.311 3.043 5.198.744 1.968 1.151 4.098 1.151 6.322v.002c0 6.557-3.534 12.301-8.826 15.483-1.028.618-2.123 1.14-3.273 1.552-4.04 1.447-8.518 1.447-12.555 0-1.149-.412-2.245-.934-3.273-1.552-5.292-3.182-8.826-8.926-8.826-15.483v-.002c.0001-2.224.408-4.354 1.152-6.322.713-1.887 1.749-3.65 3.043-5.198l-5.629-3.261-1.961 2.424 2.485 2.087-.084.127c-.66.989-1.241 2.03-1.735 3.111-1.273 2.788-1.981 5.877-1.981 9.127v.002c-.0001 2.711.492 5.311 1.395 7.718.367.979.803 1.927 1.301 2.838 2.56 4.684 6.77 8.382 11.874 10.358 1.646.636 2.184.404 3.648-.23l.21-.091h.0001c.176-.076.36-.148.552-.216 2.543-.899 5.666-.899 8.209 0m-21.667-30.09c-.676 1.234-1.638 2.01-2.15 1.727-.512-.28-.379-1.508.296-2.741.675-1.234 1.638-2.01 2.15-1.727.512.28.379 1.508-.296 2.741m-1.324 12.06c.34 1.365.157 2.586-.409 2.727-.566.141-1.301-.851-1.641-2.216-.34-1.365-.157-2.586.409-2.727.566-.141 1.301.851 1.641 2.216m6.206 10.126c1.061.923 1.612 2.028 1.229 2.468-.383.44-1.554.049-2.615-.874-1.061-.923-1.612-2.028-1.229-2.468.383-.44 1.554-.049 2.615.874m12.681 4.271c1.406 0 2.547.473 2.547 1.057 0 .583-1.14 1.057-2.547 1.057-1.406 0-2.547-.473-2.547-1.057 0-.584 1.14-1.057 2.547-1.057m12.681-4.271c1.061-.923 2.233-1.314 2.615-.873.383.44-.167 1.546-1.229 2.468-1.061.923-2.233 1.314-2.615.874-.383-.44.168-1.546 1.229-2.468m4.882-22.19c-.675-1.234-.808-2.461-.296-2.741.512-.28 1.474.493 2.15 1.727.675 1.234.808 2.461.296 2.741-.512.28-1.475-.493-2.15-1.727m1.324 12.06c.34-1.365 1.075-2.357 1.641-2.216.566.141.749 1.362.409 2.727-.34 1.365-1.075 2.357-1.641 2.216-.566-.141-.749-1.362-.409-2.727" fill="url(#3)"/></g><path d="m40.29 61.943v6.02h-2.289v-6.02c.16-.479.612-.824 1.144-.824.533 0 .985.345 1.145.824"/><path d="m46.677 61.943v6.02h-2.289v-6.02c.16-.479.612-.824 1.144-.824.533 0 .985.345 1.145.824"/><path d="m44.23 47.5v5.376h-3.778v-5.377c.264-.79 1.01-1.359 1.889-1.359.879 0 1.625.57 1.889 1.36"/><path d="m43.485 35.389v5.845h-2.289v-5.846c.16-.479.612-.824 1.144-.824.533 0 .985.345 1.145.824"/><path d="m43.25 68.51c.215-.634-.087-1.016-.39-1.399-.222-.28-.443-.56-.516-.93-.074.37-.295.65-.517.93-.303.383-.605.764-.39 1.399h1.813" fill="url(#8)" fill-rule="nonzero"/></svg>