<svg xmlns="http://www.w3.org/2000/svg" width="300" height="355" viewBox="0 0 84.666667 100.18889" fill-rule="evenodd"><path d="m62.58 47.845c.828 0 1.5.672 1.5 1.5v1.5c0 .828-.672 1.5-1.5 1.5h-1.5v-4.5h1.5m0 6c1.657 0 3-1.343 3-3v-1.5c0-1.657-1.343-3-3-3h-3v7.5h3m-6-7.5h1.5v7.5h-1.5v-7.5m-3 0h1.5v7.5h-1.5l-3-4.709v4.709h-1.5v-7.5h1.5l3 4.709v-4.709m-22.5 0h4.5v1.5h-3v1.5h3v1.5h-3v1.5h3v1.5h-4.5v-7.5m-6 0h1.5v6h3v1.5h-4.5v-7.5m15.75 6h1.5c1.242 0 2.25-1.01 2.25-2.25 0-1.242-1.027-2.245-2.25-2.25h-1.5v1.5h1.5c.414 0 .75.336.75.75 0 .414-.336.75-.75.75h-1.5v1.5m1.5-7.5c2.899 0 5.25 2.351 5.25 5.25 0 2.899-2.351 5.25-5.25 5.25-2.899 0-5.25-2.351-5.25-5.25 0-2.899 2.351-5.25 5.25-5.25m0 1.5c2.071 0 3.75 1.68 3.75 3.75 0 2.071-1.68 3.75-3.75 3.75-2.071 0-3.75-1.679-3.75-3.75 0-2.07 1.679-3.75 3.75-3.75" fill="#a90000"/><path d="m84.67 57.911c0 23.346-18.957 42.28-42.33 42.28-23.376 0-42.33-18.933-42.33-42.28v-57.911h84.67v57.911"/><g fill="#0c76bc"><path d="m84.1 57.911v-57.34h-83.53v57.34c0 23.03 18.703 41.71 41.764 41.71 23.06 0 41.764-18.678 41.764-41.71"/><path d="m78.958.568h-7.246v86.982c2.851-2.819 5.298-6.05 7.246-9.585v-77.4m-14.492 0h-7.246v96.32c2.544-.97 4.968-2.181 7.246-3.605v-92.71m-14.492 0h-7.246v99.05c2.472-.023 4.894-.26 7.246-.694v-98.35"/></g><g fill-rule="nonzero"><path d="m34.999 45.85l2.493.864-5.36 3.912 1.972 1.751-6.451 1.565 1.151 2.371-6.56-1.02.155 2.631-5.67-3.449-.865 2.49-3.917-5.354-1.753 1.97-1.567-6.443-2.374 1.15 1.021-6.552-2.634.154 3.454-5.663-2.493-.864 5.361-3.911-1.972-1.751 6.451-1.565-1.151-2.372 6.56 1.02-.155-2.631 5.67 3.449.865-2.49 3.917 5.354 1.753-1.97 1.567 6.443 2.375-1.15-1.021 6.552 2.634-.154-3.454 5.662m-13.454-8.702c-2.151 0-3.896 1.742-3.896 3.891 0 2.149 1.745 3.891 3.896 3.891 2.151 0 3.896-1.742 3.896-3.891 0-2.149-1.745-3.891-3.896-3.891"/><path d="m19.433 46.691l-2.528 7.277 4.911 2.987-.58-9.856.524-.032.453 7.69 5.682.883-4.312-8.884.472-.23 3.365 6.932 5.588-1.355-7.388-6.559.348-.393 5.765 5.118 4.643-3.388-9.34-3.236.171-.496 7.287 2.525 2.991-4.904-9.869.579-.032-.523 7.7-.452.884-5.674-8.896 4.307-.23-.471 6.941-3.36-1.357-5.58-6.568 7.379-.393-.347 5.125-5.757-3.392-4.637-3.241 9.327-.496-.171 2.529-7.277-4.911-2.987.58 9.856-.524.032-.452-7.69-5.682-.883 4.312 8.884-.472.23-3.365-6.932-5.588 1.355 7.388 6.559-.348.393-5.765-5.118-4.643 3.388 9.34 3.236-.171.496-7.287-2.525-2.991 4.904 9.869-.579.032.523-7.7.452-.884 5.674 8.896-4.307.23.471-6.941 3.36 1.357 5.58 6.568-7.379.393.347-5.125 5.757 3.392 4.637 3.241-9.327.496.171m2.112-10.07c2.442 0 4.422 1.978 4.422 4.416 0 2.438-1.98 4.416-4.422 4.416-2.442 0-4.422-1.978-4.422-4.416 0-2.438 1.98-4.416 4.422-4.416" fill="#fff"/></g><path d="m49.973.568v98.35c-2.352.435-4.773.671-7.246.695v-99.05h7.246m28.984 0h-7.246v86.982c2.852-2.819 5.298-6.05 7.246-9.585v-77.4m-14.492 0h-7.246v96.32c2.544-.97 4.968-2.181 7.246-3.606v-92.71" fill="#f7e846"/></svg>