<svg xmlns="http://www.w3.org/2000/svg" width="300" height="353" viewBox="0 0 84.66667 99.624445" fill-rule="evenodd"><path d="m62.58 47.562c.828 0 1.5.672 1.5 1.5v1.5c0 .828-.672 1.5-1.5 1.5h-1.5v-4.5h1.5m0 6c1.657 0 3-1.343 3-3v-1.5c0-1.657-1.343-3-3-3h-3v7.5h3m-6-7.5h1.5v7.5h-1.5v-7.5m-3 0h1.5v7.5h-1.5l-3-4.709v4.709h-1.5v-7.5h1.5l3 4.709v-4.709m-22.5 0h4.5v1.5h-3v1.5h3v1.5h-3v1.5h3v1.5h-4.5v-7.5m-6 0h1.5v6h3v1.5h-4.5v-7.5m15.75 6h1.5c1.242 0 2.25-1.01 2.25-2.25 0-1.242-1.026-2.246-2.25-2.25h-1.5v1.5h1.5c.414 0 .75.336.75.75 0 .414-.336.75-.75.75h-1.5v1.5m1.5-7.5c2.899 0 5.25 2.351 5.25 5.25 0 2.899-2.351 5.25-5.25 5.25-2.899 0-5.25-2.351-5.25-5.25 0-2.899 2.351-5.25 5.25-5.25m0 1.5c2.071 0 3.75 1.679 3.75 3.75 0 2.071-1.679 3.75-3.75 3.75-2.071 0-3.75-1.679-3.75-3.75 0-2.071 1.679-3.75 3.75-3.75" fill="#a90000"/><g transform="matrix(1.56125 0 0 1.56307-44.08-119.52)"><path d="m82.46 76.47v43.92c-2.149 11.239-13.472 19.816-27.11 19.816-13.643 0-24.966-8.576-27.11-19.816v-43.921h54.23"/><path d="m81.966 76.963v43.38c-2.127 10.986-13.235 19.365-26.617 19.365-13.382 0-24.49-8.378-26.617-19.364v-43.38h53.23" fill="#e4212b"/><path d="m36.993 123c-2.177 1.061-3.986 2.758-5.187 4.85 4.622 7.08 13.433 11.859 23.543 11.859 10.11 0 18.921-4.783 23.543-11.859-1.201-2.091-3.01-3.788-5.187-4.849v-25.978l.799-1.124v-1.478h-1.284v1.01h-.815v-1.01h-.174c-.245-.712-.83-1.249-1.451-1.819-.602-.553-1.241-1.139-1.612-1.937.093-.119.147-.268.147-.43 0-.289-.176-.538-.426-.644.079-.272.198-.512.378-.739-.051-.303-.126-.598-.216-.891-.128-.416-.282-.823-.436-1.229-.154.407-.308.813-.436 1.229-.09.293-.165.589-.217.891.181.227.3.468.379.739-.251.107-.426.355-.426.644 0 .162.055.311.148.43-.372.798-1.01 1.384-1.613 1.937-.621.57-1.206 1.107-1.451 1.819h-.174v1.01h-.815v-1.01h-1.284v1.478l.799 1.124v3.525h-.657v.824h-1.041v-.824h-1.292v.824h-1.041v-.824h-1.292v.824h-1.041v-.824h-1.292v.824h-1.041v-.824h-1.292v.824h-1.041v-.824h-1.292v.824h-1.041v-.824h-1.292v.824h-1.041v-.824h-.657v-3.525l.799-1.124v-1.478h-1.284v1.01h-.815v-1.01h-.174c-.245-.712-.83-1.249-1.451-1.819-.602-.553-1.241-1.139-1.613-1.937.092-.119.148-.268.148-.43 0-.289-.176-.538-.426-.644.079-.272.197-.512.379-.739-.051-.303-.127-.598-.217-.891-.128-.416-.282-.823-.436-1.229-.154.407-.308.813-.436 1.229-.09.293-.166.589-.217.891.181.227.3.468.378.739-.25.107-.426.355-.426.644 0 .162.055.311.148.43-.372.798-1.01 1.384-1.612 1.937-.621.57-1.206 1.107-1.451 1.819h-.173v1.01h-.815v-1.01h-1.284v1.478l.799 1.124v25.978"/><path d="m42.27 122.02c4.409 0 8.255 2.415 10.288 5.994-4.57 1.059-8.145 4.716-9.08 9.331-4.83-2.039-8.848-5.283-11.523-9.275 2.025-3.609 5.887-6.05 10.319-6.05m36.479 6.05c-2.696 4.02-6.755 7.287-11.635 9.323-.917-4.601-4.453-8.258-8.987-9.352 2.029-3.593 5.883-6.02 10.303-6.02 4.432 0 8.294 2.44 10.319 6.05m-11.855 9.414c-3.5 1.427-7.413 2.226-11.544 2.226-4.175 0-8.128-.816-11.656-2.271 1.08-5.417 5.862-9.501 11.596-9.501 5.75 0 10.542 4.107 11.604 9.546" fill="#8cbc43"/><g fill-rule="nonzero"><path d="m40.28 118.65h3.614v-21.544h-3.614v21.544m1.854-29.12c.076-.269.188-.522.358-.748-.086-.475-.241-.94-.405-1.393-.164.453-.319.918-.405 1.392.171.226.282.479.358.748.031-.002.062-.002.093 0m.172 1.364c-.069.022-.142.035-.218.035-.076 0-.15-.012-.218-.035-.29.937-.72 1.504-1.109 2.02-.355.467-.673.886-.801 1.505h.671v1.01h.815v-1.01h1.283v1.01h.815v-1.01h.671c-.128-.619-.446-1.038-.801-1.505-.388-.512-.819-1.079-1.109-2.02m-2.584 3.521c.132-.695.472-1.144.854-1.646.328-.432.686-.904.957-1.613-.393.64-.935 1.138-1.452 1.612-.575.528-1.118 1.026-1.361 1.647h1m2.366-4.653c-.258 0-.467.209-.467.467 0 .258.209.466.467.466.258 0 .467-.209.467-.466 0-.258-.209-.467-.467-.467m3.367 4.653c-.243-.621-.785-1.119-1.36-1.647-.517-.474-1.059-.972-1.451-1.612.271.71.63 1.182.957 1.614.381.502.722.951.853 1.646h1m-9.02 1.245h.815v-1.011h-.815v1.011m.799 2.028h.899 1.016.899v-.582h-2.815v.582m2.815 20.961v-20.727h-.899v1.12h-1.016v-1.12h-.899v20.727h.899v-1.221h1.016v1.221h.899m-1.133-20.727h-.548v.886h.548v-.886m5.216 0v20.727h.899v-1.221h1.016v1.221h.899v-20.727h-.899v1.12h-1.016v-1.12h-.899m1.681 0h-.548v.886h.548v-.886m-1.681-.234h2.815v-.582h-2.815v.582m-4.159-.816l-.514-.978h-2.97l.695.978h2.789m-.623-1.212v-1.011h-.815v1.011h.815m.234-1.011v.983l.015.028h.8v-1.011h-.815m2.099 1.011h.815v-1.011h-.815v1.011m2.899 0l.015-.028v-.983h-.815v1.011h.8m.249-1.011v1.011h.815v-1.011h-.815m2.099 1.011h.815v-1.011h-.815v1.011m-2.207.234l-.515.978h2.785.004l.695-.978h-2.97m-.779.978l.515-.978h-4.736l.514.978h3.708m3 25.848v-2.357h-9.711v2.522c1.534-.707 3.242-1.103 5.04-1.103 1.656 0 3.233.334 4.669.938m-9.711-2.591h9.711v-.506h-9.711v.506m9.711-1.245h-9.711v.506h9.711v-.506m-1.133-.234v-.987h-.548v.987h.548m-6.897 0v-.987h-.548v.987h.548m13.887 9.307c.804-.169 1.638-.258 2.493-.258.893 0 1.763.098 2.6.282.137-.246.282-.487.436-.722h-5.952c.148.227.289.46.422.697m5.685-.931c.118-.172.24-.341.367-.506h-6.998c.127.165.249.334.367.506h6.264m.551-.74c.139-.173.283-.341.431-.506h-8.227c.148.165.292.333.431.506h7.365m.646-.739c1.084-1.143 2.389-2.074 3.848-2.725v-18.97h-1.86v1.644h-1.016v-1.644h-2.857v1.644h-1.015v-1.644h-2.857v1.644h-1.016v-1.644h-2.857v1.644h-1.016v-1.644h-1.86v18.97c1.458.65 2.763 1.581 3.847 2.725h8.658m5.215-6.897h.548v-.987h-.548v.987m5.53 0v-21.544h-3.614v21.544h3.614m-6.663.234v.506h9.711v-.506h-9.712m9.712 1.245v-.506h-9.712v.506h9.712m-9.712 2.591c1.436-.604 3.01-.938 4.67-.938 1.8 0 3.508.395 5.04 1.103v-2.522h-9.712v2.357m2.814-24.798h-.899v1.12h-1.016v-1.12h-.899v20.727h.899v-1.221h1.016v1.221h.899v-20.727m4.082 20.727h.899v-1.221h1.016v1.221h.899v-20.727h-.899v1.12h-1.016v-1.12h-.899v20.727m1.133 0h.548v-.987h-.548v.987m-10.907-14.797v1.409h.549v-1.409h-.549m-3.872 0v1.409h.549v-1.409h-.549m-3.872 0v1.409h.549v-1.409h-.549m-3.872 0v1.409h.549v-1.409h-.549m15.627-5.93v.886h.548v-.886h-.548m.355-3.507h1c.132-.695.472-1.144.853-1.646.328-.432.686-.904.957-1.614-.393.64-.935 1.138-1.451 1.612-.575.528-1.118 1.026-1.36 1.647m3.367-4.653c-.258 0-.467.209-.467.467 0 .258.209.466.467.466.258 0 .466-.209.466-.466 0-.258-.209-.467-.466-.467m0-.234c.016 0 .031.0001.047.002.076-.269.187-.522.358-.748-.042-.232-.108-.488-.192-.76-.062-.203-.134-.415-.213-.632-.079.218-.15.43-.213.632-.084.272-.15.528-.192.76.171.226.282.479.358.748.015-.0001.031-.002.046-.002m2.366 4.886h1c-.243-.621-.785-1.119-1.36-1.647-.516-.474-1.059-.972-1.452-1.612.271.71.63 1.182.957 1.613.381.502.722.951.853 1.646m-2.584-3.521c-.29.937-.72 1.504-1.109 2.02-.355.467-.673.886-.801 1.505h.554.117v.117.894h.815v-1.01h1.284v1.01h.815v-1.01h.671c-.128-.619-.447-1.038-.801-1.505-.388-.512-.819-1.079-1.109-2.02-.069.022-.142.035-.218.035-.076 0-.15-.012-.218-.035m-4.872 12.723v-.506h-16.352v.506h16.352m0-.74v-.506h-16.352v.506h16.352m0-.74v-1.362h-.423v.824h-1.509v-.824h-.824v.824h-1.509v-.824h-.824v.824h-1.509v-.824h-.824v.824h-1.509v-.824h-.824v.824h-1.509v-.824h-.824v.824h-1.509v-.824h-.824v.824h-1.509v-.824h-.423v1.362h16.352m9.946-4.45v-.582h-2.814v.582h.899 1.016.493.406m-6.897 0v-.582h-2.815v.582h2.815m4.159-.816h2.789l.695-.978h-2.97l-.514.978m-3.971 0h3.707l.514-.978h-4.737l.515.978m-.779-.978h-2.97l.695.978h.005 2.785l-.515-.978m8.287-.234v-1.011h-.815v1.011h.815m-2.914 0h.815v-1.011h-.815v1.011m-.234-1.011h-.815v1.011h.8l.015-.028v-.983m-2.099 1.011v-1.011h-.815v1.011h.815m-2.899 0h.8v-1.011h-.815v.983l.015.028m-.249-1.011h-.815v1.011h.815v-1.011m-2.099 1.011v-1.011h-.815v1.011h.815m8.01 2.263v.886h.548v-.886h-.548" fill="#fff"/><path d="m43.11 103.77h-2.053v-2.472c.075-.499.507-.885 1.027-.885h.0001c.502.0001.949.372 1.025.882v2.475"/><path d="m51.765 110.84h-2.053v-2.472c.075-.499.507-.885 1.027-.885h.0001c.502.0001.949.372 1.025.883v2.475"/><path d="m56.33 110.84h-2.053v-2.472c.075-.499.507-.885 1.027-.885h.0001c.502.0001.949.372 1.025.883v2.475"/><path d="m60.898 110.84h-2.053v-2.472c.075-.499.507-.885 1.027-.885h.0001c.502.0001.949.372 1.025.883v2.475"/><path d="m67.59 103.77h2.053v-2.472c-.075-.499-.507-.885-1.026-.885h-.0001c-.502.0001-.949.372-1.025.882v2.475"/><path d="m41.575 97.69h1.017v1.35h-1.017v-1.35"/><path d="m69.12 97.69h-1.01v1.35h1.01v-1.35"/><g fill="#fff"><path d="m42.876 103.53v-2.22c-.061-.389-.408-.671-.791-.671h-.0001c-.392 0-.732.288-.792.668v2.222h1.585"/><path d="m51.53 110.61v-2.22c-.061-.389-.408-.67-.791-.671h-.0001c-.392 0-.732.288-.792.668v2.222h1.585"/><path d="m56.1 110.61v-2.22c-.061-.389-.408-.67-.791-.671h-.0001c-.392 0-.732.288-.792.668v2.222h1.585"/><path d="m60.665 110.61v-2.22c-.061-.389-.408-.67-.791-.671h-.0001c-.392 0-.732.288-.792.668v2.222h1.585"/><path d="m67.822 103.53v-2.22c.061-.389.408-.671.791-.671h.0001c.392 0 .732.288.792.668v2.222h-1.585"/><path d="m42.36 98.81v-.89h-.551v.89z"/><path d="m68.34 98.81v-.89h.549v.89z"/></g><path d="m56.38 79.908l-.599.662v.366h.369l.659-.596h.431v2.15h-.431l-.659-.6h-.369v.36l.599.666v.434h-2.15v-.434l.6-.666v-.36h-.37l-.658.6h-.432v-2.15h.432l.658.596h.37v-.366l-.6-.662v-.428h2.15z"/></g><path d="m58.38 88.68c-.159.124-.262.318-.262.536 0 .147.047.283.126.394l-.507 1.055.371.208-.019.069.49.127.036-.131.315.006.013.071.409-.087.037.087.465-.203-.512-1.19c.085-.114.136-.255.136-.408 0-.218-.102-.412-.262-.536v-1.086h.534v-3.311l.854-.51v-.603h-10.596v.603l.854.51v3.311h.534v1.086c-.159.124-.262.318-.262.536 0 .153.051.294.136.408l-.512 1.19.465.203.037-.087.409.087.013-.071.314-.006.036.131.49-.127-.019-.069.371-.208-.507-1.055c.079-.111.126-.247.126-.394 0-.218-.102-.412-.262-.536v-1.086h.534v-3.272h1.586v3.272h.534v1.438c-.16.124-.264.319-.264.538 0 .156.053.3.141.414l-.517 1.31.465.221.037-.095.409.094.013-.078.314-.007.036.143.49-.138-.019-.076.371-.227-.511-1.162c.082-.112.131-.251.131-.401 0-.217-.102-.41-.259-.534v-1.442h.534v-3.272h1.586v3.272h.534v1.086"/><g fill="#f8e335"><path fill-rule="nonzero" d="m56.876 82.31h.184v-1.8h-.184l-.666.6h-.605v-.61l.605-.66v-.19h-1.81v.19l.61.66v.61h-.61l-.665-.6h-.185v1.8h.185l.665-.6h.61v.61l-.61.662v.188h1.81v-.188l-.605-.662v-.61h.605z"/><path d="m55.3 88.89c.086 0 .169.016.245.045v-1.341h-.485v1.34c.075-.028.156-.044.24-.044"/><path d="m58.797 88.53c-.085 0-.167.016-.242.044v-.986h.485v.986c-.075-.029-.157-.045-.242-.045"/><path d="m51.814 88.53c.085 0 .167.016.242.044v-.986h-.485v.986c.075-.029.157-.045.242-.045"/><g fill-rule="nonzero"><path d="m59.21 89.76l.415.965-.141.062-.131-.253-.141.038.025.205-.153.032-.051-.205-.15.014-.02.152-.155-.003-.008-.154-.153-.024-.089.269-.151-.039.05-.233-.132-.056-.11.147-.136-.076.414-.837c.114.085.254.135.407.135.154 0 .297-.052.411-.138"/><path d="m51.4 89.76l-.415.965.142.062.131-.253.141.038-.025.205.153.032.051-.205.15.014.02.152.155-.003.008-.154.153-.024.089.269.151-.039-.05-.233.132-.056.11.147.136-.076-.414-.837c-.114.085-.254.135-.407.135-.154 0-.297-.052-.411-.138"/><path d="m54.903 90.12l-.425 1.076.141.067.131-.276.141.041-.025.224.153.035.051-.224.15.016.02.166.155-.003.008-.168.153-.027.089.294.151-.043-.05-.254.132-.061.11.16.136-.083-.422-.939c-.112.081-.25.13-.399.13-.15 0-.288-.049-.401-.131"/><path d="m54.53 87.42h1.55v-3.28h1.94v3.28h1.55v-3.24l.86-.51v-.32h-10.25v.32l.86.51v3.24h1.551v-3.27h1.939z"/></g><circle r=".504" cy="89.21" cx="51.814"/><circle r=".504" cy="89.57" cx="55.3"/><circle r=".504" cy="89.21" cx="58.797"/></g></g></svg>