<svg xmlns="http://www.w3.org/2000/svg" width="300" height="347" viewBox="0 0 84.666667 97.931113" fill-rule="evenodd"><path d="m62.58 46.716c.828 0 1.5.672 1.5 1.5v1.5c0 .828-.672 1.5-1.5 1.5h-1.5v-4.5h1.5m0 6c1.657 0 3-1.343 3-3v-1.5c0-1.657-1.343-3-3-3h-3v7.5h3m-6-7.5h1.5v7.5h-1.5v-7.5m-3 0h1.5v7.5h-1.5l-3-4.709v4.709h-1.5v-7.5h1.5l3 4.709v-4.709m-22.5 0h4.5v1.5h-3v1.5h3v1.5h-3v1.5h3v1.5h-4.5v-7.5m-6 0h1.5v6h3v1.5h-4.5v-7.5m15.75 6h1.5c1.242 0 2.25-1.01 2.25-2.25 0-1.242-1.026-2.246-2.25-2.25h-1.5v1.5h1.5c.414 0 .75.336.75.75 0 .414-.336.75-.75.75h-1.5v1.5m1.5-7.5c2.899 0 5.25 2.351 5.25 5.25 0 2.899-2.351 5.25-5.25 5.25-2.899 0-5.25-2.351-5.25-5.25 0-2.899 2.351-5.25 5.25-5.25m0 1.5c2.071 0 3.75 1.679 3.75 3.75 0 2.071-1.679 3.75-3.75 3.75-2.071 0-3.75-1.679-3.75-3.75 0-2.071 1.679-3.75 3.75-3.75" fill="#a90000"/><g transform="matrix(.38647 0 0 .38665 1.858-8.722)"><path d="m104.47 275.84c-7.26-13.04-21.552-21.919-37.994-21.919h-47.809c-12.965 0-23.48-10.124-23.48-22.608v-208.75h219.07v208.75c0 12.484-10.515 22.608-23.48 22.608h-47.809c-16.442 0-30.734 8.875-37.994 21.919h-.509"/><g fill-rule="nonzero"><path d="m104.73 273.92c-4.496-7.405-11.307-13.423-19.35-17.08-5.728-2.608-12.134-4.067-18.895-4.068v-.004h-.003v.004h-47.809v-.004h-.003v.004c-12.213-.0001-22.282-9.697-22.282-21.456h.005v-.0001-207.6h216.68v207.6.0001h.005c0 11.759-10.07 21.455-22.282 21.456v-.004h-.003v.004h-47.809v-.004h-.003v.004c-6.761 0-13.167 1.46-18.895 4.068-8.04 3.662-14.854 9.679-19.35 17.08" fill="#3c82c2"/><path d="m51.855 79.86c.057-1.056.161-2.098.308-3.134.407-2.867 1.2-5.929 2.115-7.973l-2.476-5.6 1.01-.443.327.739-.189-.816 1.07-.245.172.747-.029-.729 1.096-.043.253 6.309c.692.571 1.245 1.341 1.754 2.074.316-.861.658-1.742 1.184-2.649l-2.501-5.761 1.01-.434.325.749-.181-.787 1.07-.245.176.766-.032-.772 1.096-.043.272 6.454c1.992 2.437 3.441 5.35 5.349 7.873v.0001c2.05 2.71 4.634 4.92 7.13 7.197 2.872 1.975 5.22 4.476 7.431 7.142l-2.491.586c1.499 1.52 2.562 3.166 3.434 5.097-.721-.001-1.458-.055-2.172.07 1.365 1.744 1.936 3.746 2.379 5.866-.806-.329-1.594-.667-2.457-.825 1.094 2.531 1.791 5 2.039 7.746-.962-.357-1.855-.61-2.894-.677-.445 2.425-.81 4.859-.905 7.329-.095 2.476.082 4.997.722 7.593 1.202-.055 2.383.167 3.57.635 1.302.513 2.612 1.324 3.963 2.391 1.751 1.383 3.628 2.273 5.567 2.815 1.952.546 3.97.74 5.986.728 2.134-.013 4.262.088 6.38.314 2.124.226 4.245.578 6.358 1.067 3.829.885 7.579 1.295 11.281 1.298 3.706.002 7.369-.403 11.02-1.148h.003c1.569-.32 3.146-.492 4.728-.517h.002c1.583-.025 3.166.097 4.748.365 8.114 1.371 16.26 6.557 24.15 15.367 4.542 5.073 8.74 9.287 13.239 12.08 4.455 2.766 9.219 4.14 14.936 3.574 2.01-.199 3.777-.066 5.05.456.598.246 1.092.581 1.457 1.01.377.443.61.976.673 1.604.066.671-.065 1.446-.429 2.331-.799 1.942-1.858 3.473-3.181 4.615-1.331 1.149-2.92 1.898-4.768 2.268h-.003c-.869.174-1.779.301-2.717.384-.921.081-1.883.118-2.873.115-4.77-.018-9.907-1.028-13.887-2.736-.237 1.665-1.052 3.431-2.659 4.174.546 1.351.989 2.7 1.214 4.149.225 1.45.247 2.896.038 4.216-.213 1.35-.666 2.571-1.387 3.538-.838 1.121-2.024 1.9-3.602 2.145-3.03.47-6.666.172-9.944-.097-.887-.073-1.749-.143-2.513-.193h-.009c-2.582-.168-5.164-.406-7.746-.686-2.558-.277-5.143-.6-7.737-.937-.859-.112-1.964-.351-3.16-.611-2.483-.539-5.371-1.166-6.851-.849h-.004c-.36.078-.661.29-.935.572-1.112 1.15-1.381 2.441-3.376 2.683-.661.08-1.327-.069-1.896-.411-.931 1.118-2.067 1.667-3.097 1.882-1.02.213-2.1.133-3.046-.33-.418-.204-.789-.472-1.11-.788-.618.527-1.475.663-2.262.544-1.443-.219-2.685-1.211-3.42-2.441-1.091-1.825-1.913-3.766-2.102-5.746-4.471-.405-8.968-.453-13.451-.248.602 3.477-.505 5.064-2.471 5.78-2.665.97-5.881.356-8.689.422-3.247.077-6.501.135-9.763.168-3.254.033-6.508.041-9.762.018-2.722-.019-5.426-.146-8.118-.347-2.705-.202-5.406-.479-8.105-.799-2.058-.244-3.949-.683-5.858-1.127h-.002c-1.136-.264-2.279-.53-3.439-.751-.679-.129-1.37-.222-2.061-.255-1.483-.073-1.779.196-2.41.769-2.081 1.891-4.181 2.139-6.891 2.481-1.262 1.464-2.696 2.195-4.109 2.395-.917.13-1.82.034-2.66-.232-.907-.287-1.75-.775-2.459-1.408-.834.368-1.672.635-2.515.569-1.01-.079-1.962-.61-2.828-1.954-1.121-1.741-1.959-3.791-1.963-5.889-.002-1.237.292-2.53.746-3.666-.386-.396-.656-.894-.826-1.417-.503-1.553-.22-3.649.838-5.15.74-1.049 1.533-2.065 2.43-3.02.901-.964 1.906-1.87 3.064-2.696l.005-.004c.251-.179.506-.335.762-.468.26-.136.526-.252.796-.348 1.385-.495 2.87-.476 4.214-.005 1.817.636 3.581.883 5.342.72 1.764-.164 3.534-.74 5.357-1.749 2.092-1.158 4.477-1.492 6.832-1.576.348-.694.209-1.415.03-2.34-.241-1.248-.545-2.819-.014-5.145l-1.61 1.025c-.132-2.281-.044-4.504.213-6.776l-2.063.86c-.037-3.816.557-7.383 1.858-10.976 1.157-3.195 2.728-6.195 4.37-9.06 1.871-3.263 3.514-6.574 4.729-9.892 1.146-3.132 1.912-6.269 2.127-9.379-.382.159-.734.339-1.055.54v.002l-.008.005c-1.302.816-2.683 1.07-4.03.659-.552-.169-1.068-.444-1.531-.786l-.022-.017h-.002c-1.415-1.057-2.315-3.115-1.879-4.867-.345-.046-.684-.122-1.016-.229-1.918-.619-3.559-2.266-4.817-5.322-.464-.331-.852-.692-1.157-1.071-1.216-1.508-.996-3.312.49-4.51.258-.208.471-.382.69-.561 1.107-.907 2.333-1.908 3.602-2.687h.0001c2.154-1.321 3.547-2.441 4.586-4.803.522-1.185 1.263-2.409 2.229-3.452 1.907-2.06 4.616-3.453 7.241-4.421"/><path d="m49.549 111.04c-.181 3.352-.983 6.72-2.21 10.07-1.236 3.377-2.904 6.737-4.8 10.04-1.621 2.827-3.17 5.782-4.3 8.902-1.045 2.885-1.736 5.921-1.802 9.142l2.27-.946c-.273 2.188-.537 4.386-.498 6.594l2.426-1.544c-.805 2.476-1.243 4.621-.737 7.239.217 1.287.152 1.964.279 2.546.164.748.578 1.337 1.603 2.86.979 1.512 2.118 3.268 4.02 4.166 1.336-.07 2.673-.118 4.01-.15-.188-1.777.428-3.622 1.901-4.729-.863 1.362-1.127 3.123-.824 4.707 1.106-.02 2.213-.03 3.319-.034.036-2.608 1.662-5.337 4.24-5.638-2.291 1.042-3.462 4.103-3.044 6.489l-.106.143c-6.996.012-14.04-.007-20.879 1.614-2.225.528-4.439 1.464-6.7 1.77-.904.123-1.81.121-3.075.009-3.337-.296-6.704-.291-9.334.721-3.101 1.193-4.988 4.174-4.982 7.439.004 1.901.793 3.775 1.807 5.35.667 1.036 1.359 1.442 2.062 1.497.539.042 1.113-.11 1.701-.344-.673-.823-1.13-1.786-1.271-2.779-.095-.668-.144-1.325-.085-1.939.031-.327.093-.64.194-.935.417-1.218 1.351-.529 1.061.044-.147.291-.228.624-.262.985-.05.521-.004 1.104.081 1.708.162 1.148.858 2.261 1.85 3.081.564.466 1.222.835 1.932 1.06.705.223 1.46.304 2.222.197 1.556-.22 2.752-1.164 3.726-2.343 2.618-.364 4.698-.429 6.739-2.284.84-.763 1.233-1.12 3.129-1.027.739.036 1.471.132 2.198.271 1.212.231 2.351.496 3.482.759 1.877.437 3.736.869 5.751 1.108 2.69.318 5.378.594 8.06.795 2.697.202 5.381.328 8.05.347 3.249.023 6.5.015 9.75-.018 3.243-.033 6.493-.091 9.747-.168 2.676-.063 5.847.556 8.372-.363 3.593-1.308 1.399-6.651.552-8.98l2.195.278c-.343-3.139-1.845-6.316-3.81-8.759 1.08-.738 2.168-1.066 3.524-1.366-2.117-2.522-4.502-4.617-7.221-6.43 1.108-.767 2.272-1.47 3.553-1.902-1.644-1.469-4.045-3.499-5.688-4.653 3.212.756 5.302 2.936 7.675 5.116-.65.177-1.299.343-1.932.578h-.002c-.641.238-1.247.526-1.817.865 2.778 1.967 5.077 4.377 7.194 7.02-1.27.174-2.715.371-3.884 1.019 2.047 2.952 3.267 6.05 3.492 9.652l-1.795-.227c.236.704.425 1.355.569 1.957 4.537-.214 9.09-.172 13.617.232.033-1.918.709-3.843 2.348-5.7 2.486-2.817 5.421-4.26 8.59-4.789 2.335-.39 4.79-.28 7.28.143-5.468-3.837-8.468-7.812-9.406-12.05-1.339-6.04 1.341-12.408 5.456-16.354-3.529 5.02-5.478 11.652-4.484 16.14 1.546 6.975 8.18 11.01 13.798 14.512-4.097-1.01-8.218-2.121-12.48-1.41-2.954.493-5.69 1.839-8.01 4.465-1.628 1.845-2.192 3.755-2.085 5.639.109 1.917.907 3.83 1.987 5.638.583.975 1.565 1.79 2.713 1.964.505.077 1.09.022 1.486-.332-.075-.116-.144-.236-.209-.358-.427-.812-.635-1.765-.59-2.742.024-.528.123-1.064.3-1.59.348-1.03 1.269-.484 1.079-.038-.233.546-.358 1.114-.383 1.671-.037.801.131 1.577.476 2.234.339.644.849 1.173 1.502 1.492.746.364 1.603.415 2.405.248.841-.175 1.771-.627 2.538-1.546-.138-.157-.264-.329-.376-.515v-.002c-.425-.706-.65-1.614-.563-2.645.088-1.047 1.114-.842 1.019-.128-.12.901.049 1.678.398 2.26.235.388.548.689.906.877.349.184.746.262 1.156.212 1.435-.174 1.901-1.478 2.774-2.382.402-.416.863-.732 1.446-.858h.004c1.689-.362 4.69.289 7.269.849 1.19.258 2.29.497 3.078.599 2.556.333 5.121.652 7.713.933 2.568.279 5.136.515 7.704.682h.009c.84.055 1.672.123 2.529.193 3.23.265 6.81.559 9.714.108 1.296-.201 2.269-.838 2.953-1.756v-.002c.622-.835 1.016-1.904 1.204-3.093.193-1.219.171-2.561-.038-3.912-.545-3.514-2.324-6.728-4.231-9.183-.543-.699.161-.862.724-.309 1.126 1.107 2.177 2.881 2.84 4.293l.02-.009c2.992-1.77 2.44-6.135 1.161-8.05-.57-.851.502-.584.845-.095.691.986 1.157 2.776 1.15 3.818 3.903 1.742 9.04 2.777 13.808 2.795.935.003 1.869-.034 2.787-.115.901-.079 1.775-.201 2.608-.368h.003c1.68-.337 3.117-1.011 4.311-2.042 1.204-1.039 2.173-2.446 2.911-4.24.299-.727.409-1.343.359-1.855-.042-.418-.193-.77-.438-1.057-.257-.302-.623-.545-1.078-.732-1.113-.458-2.717-.569-4.569-.386-5.961.591-10.924-.839-15.561-3.718-4.593-2.852-8.853-7.126-13.454-12.264-7.732-8.636-15.684-13.713-23.57-15.05-1.529-.258-3.053-.376-4.57-.353-1.518.024-3.034.189-4.544.497h-.003c-3.711.757-7.441 1.169-11.218 1.167-3.781-.003-7.606-.42-11.504-1.321-2.075-.48-4.156-.825-6.241-1.047-2.091-.223-4.182-.322-6.27-.31-2.102.012-4.21-.191-6.255-.763-2.059-.576-4.055-1.523-5.919-2.995-1.273-1-2.499-1.766-3.709-2.243-1.184-.467-2.354-.66-3.539-.541l-.422.042-.109-.411c-.752-2.84-.959-5.588-.856-8.283.108-2.808.564-5.575 1.08-8.332.862.038 1.726.074 2.568.277-.365-2.631-1.416-5.05-2.492-7.457.912.057 1.792.121 2.677.382-.524-1.89-1.441-3.337-2.752-4.752.781-.297 1.511-.544 2.355-.588-.965-1.829-2.387-3.236-3.864-4.656l2.686-.632c-1.839-2.143-3.884-4.137-6.219-5.738l-.03-.021-.025-.022c-2.55-2.327-5.183-4.586-7.278-7.356v-.0001c-1.839-2.432-3.273-5.142-5.105-7.565-1.532 2.879-.891 6.168-.15 9.213.62 2.55 1.724 4.672 4.335 5.46 1.72.519 1.53 2.316.321 3.421-2.439 2.227-9.202 1.103-5.666-2.245.954-.903.855-1.977.428-3.314-.215-.671-.389-1.354-.529-2.047-1.885.272-3.787.683-5.69 1.385-2.379.877-5.04 2.218-6.829 4.15-.88.95-1.561 2.079-2.045 3.179-1.124 2.553-2.653 3.825-4.981 5.252h-.0001c-1.199.736-2.402 1.719-3.49 2.608h-.002c-.254.207-.504.412-.695.566-1.061.855-1.21 2.026-.338 3.108.235.291.535.573.897.838.041.0001.081 0 .12-.002.09-.005.181-.016.27-.035.274-.057.544-.184.759-.409.587-.61 1.6-.48.925.451-.383.528-.921.816-1.471.932 1.1 2.46 2.456 3.794 4 4.293 1.462.472 3.129.213 4.935-.537.958-.398 1.564.39.923.683-1.44.66-2.821 1.055-4.122 1.086-.48 1.406.32 3.166 1.453 4.01l.02.017c.372.275.783.498 1.227.634 1.053.322 2.154.111 3.208-.551l.002-.002.008-.005v.0001c.397-.249.819-.464 1.263-.645.448-.182.926-.333 1.434-.453 2.554-.603 5.859-.395 9.861.74 2.714.77 5.61 1.788 8.425.788-.614-.668-1.01-1.384-1.382-2.203.873-.116 1.722-.239 2.57-.5l-.022-.018-.0001.0001c-.653-.542-1.126-1.144-1.495-1.897.5-.571 1.089-1.041 1.618-1.582-1.677-.465-3.045-1.213-4.83-1.421l.318-.635c.498-1.01 1.111-1.956 1.789-2.848-1.442-.149-2.895-.121-4.349-.093h-.002l-1.273.024c.552-1.214 1.164-2.272 2.077-3.259-.089-.038-.18-.074-.272-.108h-.002c-1.953-.724-4.931-.991-6.935-.57 2.238-1.101 4.945-1.234 7.283-.368.336.125.669.278.997.463l.008.004.578.326c-.758.744-1.56 1.567-2.114 2.484 1.997-.037 3.915.048 5.886.36-.899 1.082-1.77 2.19-2.458 3.422 1.745.356 3.249 1.245 5.05 1.538-.622.931-1.356 1.651-2.151 2.418.207.303.519.642.916.972v.002c.456.378.992.694 1.487 1.016-1.02.444-2.054.849-3.152 1.053.443.654 1.035 1.194 1.596 1.745-3.692 1.726-6.707.911-10.426-.155-3.03-.858-6.573-1.499-9.687-.647m-10.645 53.03l-.003-.0001c-2.183.079-4.424.376-6.364 1.45-1.947 1.077-3.846 1.694-5.748 1.87-1.907.177-3.809-.087-5.76-.77-1.131-.396-2.382-.412-3.55.005-.227.081-.452.179-.671.293-.224.117-.44.248-.645.394l-.005.004c-1.099.783-2.054 1.645-2.912 2.563-.862.922-1.627 1.903-2.344 2.919-.882 1.251-1.121 2.989-.706 4.271.083.256.195.505.347.727 1.01-1.826 2.55-2.993 4.407-3.708 2.809-1.081 6.318-1.094 9.775-.787 1.197.106 2.04.109 2.856-.0001 2.224-.301 4.413-1.235 6.602-1.754 3.236-.768 6.561-1.1 9.873-1.324-1.376-1.047-2.296-2.466-3.113-3.728-.705-1.089-1.327-2.049-2.041-2.423m18.414-91.43c-.683-1.051-1.373-2.213-2.301-3.074-.805 1.951-1.497 4.703-1.865 7.301-.124.876-.215 1.759-.26 2.643 1.607-.509 3.207-.836 4.795-1.067-.295-1.877-.372-3.821-.369-5.803" fill="#f8e73d"/><path d="m163.39 180.64c.359 1.967-.361 3.092-1.534 3.56-1.461.583-2.931.332-4.37.084-1.352-.232-2.707-.58-4.088-.574 1.132-.542 3.193-.665 4.701-.536 1.267.108 2.619.312 3.625-.417 1.279-.927.219-3.61-.246-5.314.875.948 1.67 1.874 1.912 3.197"/><path d="m43.665 93.33c.322-1.05 1.407-1.746 2.463-1.68 1.218.076 2.444.114 3.662.016.787-.063 1.63-.186 2.287-.38-.152.582-.636 1.054-1.182 1.235.155.89-.14 1.831-.786 2.477h-.002c-.462.462-1.085.764-1.778.817-.786.059-1.586-.224-2.168-.779-.691-.659-.849-1.413-.909-2.278-.586-.022-1.11.245-1.588.571m2.579-.673c-.014.572.161 1.131.5 1.538.39.469 1 .691 1.588.62 1.052-.128 1.771-1.15 1.574-2.169-1.214.112-2.446.084-3.662.011"/></g><circle cx="42.765" cy="102.86" r=".696"/><circle cx="41.33" cy="101.05" r=".696"/><circle cx="42.997" cy="99.43" r=".696"/><circle cx="39.25" cy="101.98" r=".696"/><ellipse cx="79.38" cy="146.19" rx="1.407" ry="1.182"/><ellipse cx="43.915" cy="158.01" rx="1.407" ry="1.182"/><ellipse cx="74.2" cy="151.26" rx="1.407" ry="1.182"/><ellipse cx="84.23" cy="150.92" rx="1.407" ry="1.182"/><ellipse cx="56.3" cy="158.01" rx="1.407" ry="1.182"/><ellipse cx="52.923" cy="161.84" rx="1.407" ry="1.182"/><ellipse cx="64.63" cy="154.3" rx="1.407" ry="1.182"/><ellipse cx="100.1" cy="156.89" rx="1.407" ry="1.182"/><ellipse cx="107.76" cy="157" rx="1.407" ry="1.182"/><ellipse cx="123.41" cy="159.25" rx="1.407" ry="1.182"/><ellipse cx="150.1" cy="148.11" rx="1.407" ry="1.182"/><ellipse cx="160.68" cy="151.37" rx="1.407" ry="1.182"/><ellipse cx="154.71" cy="151.37" rx="1.407" ry="1.182"/><ellipse cx="146.94" cy="153.62" rx="1.407" ry="1.182"/><ellipse cx="140.86" cy="155.43" rx="1.407" ry="1.182"/><ellipse cx="128.81" cy="161.84" rx="1.407" ry="1.182"/><ellipse cx="135.46" cy="160.04" rx="1.407" ry="1.182"/><ellipse cx="128.76" cy="180.65" rx="1.914" ry="1.608"/><ellipse cx="130.56" cy="168.04" rx="1.914" ry="1.608"/><ellipse cx="90.7" cy="153.74" rx="1.914" ry="1.608"/><ellipse cx="103.99" cy="152.73" rx="1.914" ry="1.608"/><ellipse cx="95.2" cy="160.72" rx="1.914" ry="1.608"/><ellipse cx="104.89" cy="162.52" rx="1.914" ry="1.608"/><ellipse cx="111.64" cy="166.8" rx="1.914" ry="1.608"/><ellipse cx="104.89" cy="169.73" rx="1.914" ry="1.608"/><ellipse cx="98.24" cy="167.48" rx="1.914" ry="1.608"/><ellipse cx="99.26" cy="174.69" rx="1.914" ry="1.608"/><ellipse cx="139.57" cy="181.1" rx="1.914" ry="1.608"/><ellipse cx="147.11" cy="183.92" rx="1.914" ry="1.608"/><ellipse cx="139.12" cy="174.69" rx="1.914" ry="1.608"/><ellipse cx="147.9" cy="175.81" rx="1.914" ry="1.608"/><ellipse cx="158.56" cy="172.87" rx="2.067" ry="1.736"/><ellipse cx="165.09" cy="161.27" rx="2.067" ry="1.736"/><ellipse cx="139.64" cy="167.58" rx="2.067" ry="1.736"/><ellipse cx="151.24" cy="167.69" rx="2.067" ry="1.736"/><ellipse cx="155.97" cy="162.62" rx="2.067" ry="1.736"/><ellipse cx="150.15" cy="159.37" rx="1.914" ry="1.608"/><ellipse cx="158.82" cy="156.9" rx="1.914" ry="1.608"/><ellipse cx="161.19" cy="166.69" rx="1.914" ry="1.608"/><ellipse cx="121.72" cy="152.72" rx="1.407" ry="1.182"/><ellipse cx="127.8" cy="152.84" rx="1.407" ry="1.182"/><ellipse cx="83.34" cy="173.32" rx="2.067" ry="1.736"/><ellipse cx="67.914" cy="161.95" rx="2.067" ry="1.736"/><ellipse cx="49.22" cy="180.98" rx="2.067" ry="1.736"/><ellipse cx="62.06" cy="182.22" rx="2.067" ry="1.736"/><ellipse cx="74.67" cy="182.1" rx="2.067" ry="1.736"/><ellipse cx="81.31" cy="165.32" rx="2.067" ry="1.736"/><ellipse cx="44.759" cy="164.1" rx="1.914" ry="1.608"/><ellipse cx="77.53" cy="155.32" rx="1.914" ry="1.608"/><ellipse cx="63.788" cy="167.93" rx="1.914" ry="1.608"/><ellipse cx="75.837" cy="170.86" rx="1.914" ry="1.608"/><ellipse cx="83.27" cy="180.65" rx="1.914" ry="1.608"/><ellipse cx="67.39" cy="176.15" rx="1.914" ry="1.608"/><ellipse cx="54.893" cy="175.81" rx="1.914" ry="1.608"/><ellipse cx="43.3" cy="176.94" rx="1.914" ry="1.608"/><ellipse cx="143.62" cy="161.76" rx="1.914" ry="1.608"/></g></svg>