<svg xmlns="http://www.w3.org/2000/svg" xmlns:xlink="http://www.w3.org/1999/xlink" viewBox="0 0 300 360"><defs><linearGradient id="3" y2="129.13" gradientUnits="userSpaceOnUse" x2="101.14" y1="130.2" x1="101.7" xlink:href="#0"/><linearGradient id="2" y2="434.89" xlink:href="#3" gradientUnits="userSpaceOnUse" x2="351.89" y1="440.63" x1="356.41"/><linearGradient id="4" y2="452.7" xlink:href="#3" gradientUnits="userSpaceOnUse" x2="357.7" y1="448.52" x1="362.17"/><radialGradient id="0" gradientUnits="userSpaceOnUse" cy="593.31" cx="324.42" r="30.13"><stop stop-color="#ff0"/><stop stop-color="#fb0" offset="1"/></radialGradient><radialGradient id="1" gradientUnits="userSpaceOnUse" cx="94.6" cy="161.22" r="10.87" gradientTransform="matrix(-2.77184 0 0 2.77184 687.81 146.43)" xlink:href="#0"/></defs><g transform="translate(-224.99-353.06)"><g fill-rule="evenodd"><path d="m446.74 524.78c2.935 0 5.315 2.38 5.315 5.315v5.314c0 2.935-2.38 5.315-5.315 5.315h-5.315v-15.944zm0 21.259c5.87 0 10.63-4.76 10.63-10.63v-5.314c0-5.87-4.76-10.63-10.63-10.63h-10.63v26.574zm-21.26-26.574h5.315v26.574h-5.315zm-10.63 0h5.315v26.574h-5.315l-10.63-16.684v16.684h-5.315v-26.574h5.315l10.63 16.684zm-79.72 0h15.945v5.315h-10.63v5.315h10.63v5.315h-10.63v5.315h10.63v5.315h-15.945zm-21.26-.0001h5.315v21.26h10.63v5.315h-15.945zm55.809 21.26h5.313c4.402 0 7.972-3.57 7.972-7.972s-3.637-7.957-7.972-7.972h-5.313v5.315h5.313c1.467 0 2.658 1.19 2.658 2.658s-1.19 2.658-2.658 2.658h-5.313zm5.313-26.575c10.272 0 18.602 8.33 18.602 18.602s-8.33 18.602-18.602 18.602-18.602-8.33-18.602-18.602 8.33-18.602 18.602-18.602m-13.287 18.602c0 7.337 5.95 13.287 13.287 13.287 7.337 0 13.287-5.95 13.287-13.287 0-7.337-5.95-13.287-13.287-13.287-7.337 0-13.287 5.95-13.287 13.287" fill="#a90000"/><path d="m374.99 712.33c9.169-15.674 23.464-25.13 40.682-31.474 33.595-12.381 70.64-15.07 92.54-47.971 12.793-19.224 17.05-43.33 15.857-70.57-11.128-11.707-18.307-30.13-18.307-50.856 0-20.7 7.162-39.11 18.268-50.814v-85.38c-49.68-14.184-99.36-21.401-149.04-21.473-49.679.072-99.36 7.289-149.04 21.473v85.38c11.11 11.709 18.268 30.12 18.268 50.814 0 20.724-7.179 39.15-18.307 50.856-1.198 27.24 3.064 51.35 15.857 70.57 21.897 32.903 58.944 35.59 92.54 47.971 17.218 6.345 31.512 15.8 40.681 31.474z" stroke="#000" stroke-width="1.459" fill="#3c82c2"/></g><path d="m359.89 443.17l4.6 2.474c-3.749 4.131-13.481 6.479-16.862.403 4.545 1.734 8.192.42 12.262-2.877"/><path d="m349.07 447.1c3.317 3.528 11.346 1.827 14.282-1.439l-3.734-1.506c-2.891 2.642-6.768 3.772-10.548 2.945" fill="#e60000"/><path d="m352.76 450.06c3.286.156 8.865-.505 11.462-3.81l3.286-.802 1.978 3.602c-5.02 5.117-11.706 6.786-16.725 1.01"/><path d="m368.46 448.91l-1.395-2.541-2.133.162c-1.9 3.33-7.623 3.975-10.24 4.269 4.457 3.916 10.02 1.95 13.768-1.89" fill="url(#4)"/><path d="m360.75 433.12l7.377 13.11c-4.405.831-7.823.348-10.851-2.191-2.747-2.303-5.867-2.335-9.01.059-1.691-9.568 5.743-12.498 12.482-10.98"/><path d="m348.79 442.86c3.212-2.111 6.57-1.428 9.224.866 2.43 2.099 5.577 2.409 8.673 2.088l-6.472-11.934c-1.441-.24-2.793-.429-4.266-.273-5.06.537-7.452 4.456-7.159 9.253" fill="url(#2)"/><path d="m441.74 597.82c.981.641 1.526 1.615 1.663 2.707 3.768 2.595 3 6.767.642 9.896l-.251-.92c-.546-1.886-1.572-3.999-3.416-4.868-.093.202-.183.414-.27.634-2.807 1.084-5.306-.261-6.278-3.088-1.281-.592-2.565-1.176-3.774-1.908.188.24.383.476.584.707 1.034 1.188 1.841 1.689 2.063 3.553.1.841.063 1.707-.288 2.45 1.908 3.545.371 6.556-3.451 8.492.452-2.267.695-4.574-1.339-6.072-.06.063-.12.128-.18.193-1.644.255-3.157-.47-4.085-1.825-.956-1.393-1.101-3.194-.347-4.717l-2.213-3.511c-1.469-2.331-2.728-3.05-5-1.078-.146 4.04-5.811 5.314-7.608 2.298-2.28.402-4.063 2.145-5.529 3.86-1.192-3.681-.455-6.794 2.787-8.66.651-3.434 3.721-3.744 6.862-3.831 1.647-.049 3.313-.961 2.212-2.733l-7.922-12.749 7.451-3.501 9.753 14.543c2.232 3.327 6.555 2.581 9.938 2.092 2.58-.373 7.121-1.39 9.268.902 5.06-.084 6.938 3.215 6.962 7.689-1.82-1.997-3.648-2.827-6.456-2.449-.276.882-.859 1.542-1.777 1.894"/><path d="m442.68 595.84c-.851-1.215-.722-3.326-.296-4.638-1.411-1.622-5.142-1.082-8.524-.594-3.761.543-8.29 1.211-10.749-2.455l-9.355-13.948-5.953 2.798 7.427 11.953c1.46 2.35-.595 3.943-2.898 4.01-2.353.066-5.413.278-6.03 3.07 1.68.647 2.827 2.647 2.736 4.414 2.124 2.207 5.976.756 5.928-2.364 2.753-2.521 4.616-2.038 6.54 1.013l2.474 3.924c-.775 1.388-.843 2.946.071 4.278.666.972 1.779 1.634 2.983 1.509 1.177-1.281 2.773-2.27 4.592-2.067.265-.479.344-1.294.248-2.111-.215-1.814-1.548-2.635-2.585-3.987-1.188-1.548-1.996-2.986-2.625-4.881l.791-.261c.322.969.761 1.935 1.312 2.876 1.768 1.361 3.738 2.271 5.747 3.199.712 2.287 2.53 3.878 4.958 3.03.676-1.662 1.548-2.87 3.144-3.719-.017-1.232-.884-2.431-2.092-2.761-.87-.236-1.61-.483-2.477-.849-1.687-.713-3.954-1.857-5.596-2.918l.866-.465c1.605 1.036 3.411 1.92 5.05 2.615 1.376.582 3.595 1.375 4.312-.67" fill="url(#1)"/><path d="m443.17 591.52c-.333 1.106-.467 2.558.071 3.602 1.977-.287 4.095-.08 5.735 1.139-.577-3.295-2.671-4.746-5.806-4.741m.117 9.966c-1.173.624-1.938 1.391-2.529 2.408 1.773.853 2.876 2.672 3.538 4.474 1.338-2.575 1.103-5.18-1.01-6.882m-11.488 6.133c-1.439-.191-2.568.327-3.568 1.199 1.549 1.199 2.099 2.929 1.881 4.949 2.317-1.68 2.783-3.891 1.687-6.149m-23.619-7.699c-.127-1.445-1.017-2.657-2.427-3.159-2.108 1.323-3.1 3.68-2.671 6.118 1.366-1.432 3.118-2.65 5.098-2.959" fill="#fb0"/><path d="m308.26 597.82c-.982.641-1.527 1.615-1.663 2.707-3.767 2.595-3 6.767-.642 9.896l.251-.92c.546-1.886 1.572-3.999 3.417-4.868.093.202.182.414.269.634 2.808 1.084 5.307-.261 6.279-3.088 1.281-.592 2.565-1.176 3.774-1.908-.188.24-.383.476-.584.707-1.035 1.188-1.841 1.689-2.063 3.553-.099.841-.063 1.707.289 2.45-1.908 3.545-.371 6.556 3.45 8.492-.452-2.267-.695-4.574 1.339-6.072.06.063.12.128.18.193 1.644.255 3.156-.47 4.085-1.825.956-1.393 1.101-3.194.347-4.717l2.213-3.511c1.469-2.331 2.727-3.05 5-1.078.146 4.04 5.811 5.314 7.609 2.298 2.28.402 4.063 2.145 5.529 3.86 1.192-3.681.455-6.794-2.787-8.66-.652-3.434-3.722-3.744-6.862-3.831-1.647-.049-3.313-.961-2.212-2.733l7.921-12.749-7.45-3.501-9.754 14.543c-2.232 3.327-6.555 2.581-9.938 2.092-2.579-.373-7.12-1.39-9.267.902-5.055-.084-6.938 3.215-6.962 7.689 1.82-1.997 3.647-2.827 6.456-2.449.276.882.86 1.542 1.778 1.894"/><path d="m306.83 591.52c.332 1.106.467 2.558-.072 3.602-1.977-.287-4.095-.08-5.735 1.139.578-3.295 2.671-4.746 5.807-4.741m-.117 9.966c1.173.624 1.938 1.391 2.529 2.408-1.773.853-2.875 2.672-3.538 4.474-1.339-2.575-1.103-5.18 1.01-6.882m11.488 6.133c1.438-.191 2.568.327 3.568 1.199-1.549 1.199-2.1 2.929-1.882 4.949-2.317-1.68-2.783-3.891-1.686-6.149m23.619-7.699c.128-1.445 1.017-2.657 2.427-3.159 2.109 1.323 3.1 3.68 2.671 6.118-1.366-1.432-3.117-2.65-5.098-2.959" fill="#fb0"/><path d="m307.32 595.84c.851-1.215.722-3.326.296-4.638 1.411-1.622 5.142-1.082 8.524-.594 3.761.543 8.29 1.211 10.749-2.455l9.355-13.948 5.953 2.798-7.427 11.953c-1.46 2.35.595 3.943 2.898 4.01 2.353.066 5.413.278 6.03 3.07-1.68.647-2.827 2.647-2.736 4.414-2.124 2.207-5.976.756-5.928-2.364-2.753-2.521-4.616-2.038-6.54 1.013l-2.474 3.924c.775 1.388.843 2.946-.071 4.278-.666.972-1.779 1.634-2.983 1.509-1.177-1.281-2.773-2.27-4.592-2.067-.265-.479-.344-1.294-.248-2.111.215-1.814 1.548-2.635 2.585-3.987 1.188-1.548 1.996-2.986 2.625-4.881l-.791-.261c-.322.969-.761 1.935-1.312 2.876-1.768 1.361-3.738 2.271-5.747 3.199-.712 2.287-2.53 3.878-4.958 3.03-.676-1.662-1.548-2.87-3.144-3.719.017-1.232.884-2.431 2.092-2.761.87-.236 1.61-.483 2.477-.849 1.687-.713 3.954-1.857 5.596-2.918l-.866-.465c-1.605 1.036-3.411 1.92-5.05 2.615-1.376.582-3.595 1.375-4.312-.67" fill="url(#0)"/><g fill-rule="evenodd"><path d="m359.6 460.44c.396.956 1.557 1.557 2.337 1.697-1.809 3.334-2.768 7.308-5.56 8.296.45 1.037 1.31 1.63 2.625 1.957-3.655 3.401-6.385 9.973-11.517 9.463-3.782-.375-6.41-2.333-2.464-5.545 4.444-3.618 6.493-9.738 2.464-14.787-4.142-5.191-9.281-9.215-14.171-12.323-3.297-2.095-6.498-5.074-5.833-9.915-2.51.944-2.995 2.955-3.442 4.456-11.325-6.645-20.932-16.333-20.523-22.24-2.069 1.325-2.959 3.613-3.074 5.624-13.622-11.1-25.06-22.962-30.599-33.68-1.948-3.77-3.168-3.144-4.425-.308-2.986 6.738-.162 14.653 3.237 21.357 3.7 7.297 8.962 14.875 15.494 22.07-6.29-1.855-13.187-7.439-18.09-14.59-2.569-3.749-4.389-2.195-4.191 1.349.63 11.285 9.267 23.672 22.01 36.31-4.384-1.489-11.246-6.05-13.615-8.454-3.497-3.555-5-1.764-3.699 2.558 4.092 13.554 15.967 21.984 26.308 30.29-4.383-.793-10.856-3.208-14.876-5.836-2.122-1.388-3.87-1.77-2.259 2.726 3.91 10.908 15.696 17 28.85 21.696-3.437.783-6.902.87-10.312.351-2.5-.381-4.063-.439-1.228 3.36 6.168 8.266 19.307 9.93 32.28 12.185-5.117 1.01-10.215.325-15.354-.315-1.548-.193-1.76.847-.427 2.532 6.797 8.593 18.15 6.852 28.2 7.835-1.335 2.899-4.154 4.25-5.268 6.575 7.865 1.134 15.472-3.115 23.595.738 4.391 2.082 2.778 11.135-3.063 8.145-6.276-3.212-10.886-2.098-14.272 3.609-4.102 6.914-7.283 15.341-11 16.332.89.582 1.779 1.163 2.669 1.745-1.146 2.285-3.753 4.481-6.361 5.499 1.79 1.716 4.201 2.188 6.701 2.482.096 2.157-.23 4-.843 5.806 2.864-.028 5.485-.746 7.995-1.487 1.113 3.816 3.471 6.389 6.01 8.782.274-2.11.992-4.22 2.684-6.33 1.227 2.358 2.985 4.01 5.276 4.947-.151-2.422.028-4.844.943-7.266.744.637 1.488 1.274 2.232 1.911.357-3.24 1.115-6.9 3.142-9.17 3.212-3.596 5.223-1.377 5.23 1.667.025 10.57-1.129 19.797-6.711 26.412 1.395.827 4.4 1.314 6.727 1.209-4.135 7.948-10.405 14.213-17.518 17.539 2.288 1.57 5.708 2.831 8.626 3.573-6.813 4.384-18.355 3.989-28.636 2.156 3.385 11.394 15.77 17.297 35.19 17.591-3.086 4.807-9.418 7.983-15.15 9.233 3.467 5.458 14.303 7.03 23.631 4.088-1.731 2.907-5.03 5.532-8.116 7.309 7.472 6.996 12.219 15.641 13.55 26.338 1.331-10.697 6.079-19.342 13.55-26.338-3.083-1.777-6.386-4.402-8.117-7.309 9.328 2.944 20.16 1.37 23.631-4.088-5.917-1.251-12.261-4.426-15.15-9.233 19.42-.294 31.805-6.197 35.19-17.591-10.281 1.833-21.823 2.228-28.636-2.156 2.918-.742 6.337-2 8.626-3.573-7.113-3.325-13.384-9.59-17.518-17.539 2.327.105 5.331-.382 6.727-1.209-5.582-6.616-6.733-15.842-6.711-26.412.004-3.045 2.02-5.264 5.23-1.667 2.028 2.27 2.785 5.93 3.142 9.17.744-.637 1.488-1.274 2.232-1.911.913 2.422 1.094 4.844.943 7.266 2.29-.94 4.049-2.589 5.276-4.947 1.692 2.11 2.409 4.22 2.684 6.33 2.536-2.394 4.894-4.966 6.01-8.782 2.51.741 5.131 1.458 7.995 1.487-.613-1.802-.939-3.649-.843-5.806 2.501-.294 4.912-.766 6.702-2.482-2.608-1.018-5.215-3.214-6.361-5.499.889-.582 1.779-1.163 2.669-1.745-3.719-.992-6.899-9.418-11-16.332-3.386-5.707-7.996-6.82-14.272-3.609-5.841 2.99-7.454-6.06-3.063-8.145 8.123-3.852 15.731.397 23.596-.738-1.114-2.325-3.933-3.676-5.268-6.575 10.05-.983 21.403.758 28.2-7.835 1.333-1.685 1.121-2.725-.427-2.532-5.139.64-10.237 1.325-15.354.315 12.969-2.254 26.11-3.918 32.28-12.185 2.834-3.798 1.272-3.74-1.228-3.36-3.409.519-6.875.433-10.311-.351 13.154-4.692 24.941-10.788 28.85-21.696 1.611-4.495-.136-4.113-2.259-2.726-4.02 2.628-10.493 5.04-14.876 5.836 10.341-8.305 22.22-16.735 26.308-30.29 1.305-4.322-.201-6.114-3.698-2.558-2.369 2.408-9.232 6.965-13.615 8.454 12.738-12.634 21.375-25.02 22-36.31.198-3.544-1.622-5.097-4.191-1.349-4.901 7.151-11.798 12.735-18.09 14.59 6.533-7.195 11.795-14.773 15.494-22.07 3.399-6.705 6.223-14.62 3.237-21.357-1.257-2.836-2.477-3.462-4.425.308-5.538 10.719-16.977 22.585-30.599 33.68-.114-2.01-1-4.298-3.074-5.624.41 5.908-9.197 15.596-20.522 22.24-.447-1.501-.932-3.511-3.443-4.456.665 4.842-2.536 7.82-5.833 9.915-4.89 3.108-10.03 7.132-14.171 12.323-4.03 5.05-1.98 11.17 2.465 14.787 3.946 3.211 1.329 5.766-2.465 5.545-6.845-.398-9.02-5.03-9.323-9.575 1.352.108 2.355-.181 3.111-1.021-2.333-1.825-1.977-5.898-2.631-9.635.784.117 2.075-.085 2.756-.864-1.377-.884-1.855-2.714-2.406-4.507-2.185-7.107-1.178-14.161-5.879-20.08 4.102-2.557 6.819-5.859 6.232-10.547-4.794 1.564-9.318 1.975-14.383.799-11.532-2.677-17.875 1.701-21.414 6.872 3.169 2.542 2.399 5.05 3.685 8.382.824 2.135 2.16 5.186 6.861 7.599-4.28 2.577-6.712 10.455-9.529 11.165"/><circle cx="103.14" cy="128.95" transform="matrix(4.86525 0 0 4.86525-135.85-191.07)" r=".48" fill="#e60000"/><path d="m375 654.4c-1.055 3.17-3.978 7.108-7.05 8.501 3.554 2.745 5.629 7.511 7.05 12.01 1.419-4.503 3.494-9.269 7.05-12.01-3.069-1.393-5.992-5.331-7.05-8.501m0-22.775c-4.84 8.531-11.228 15.888-20.349 18.314 5.783 3.428 15.575.55 20.349-6 5.123 6.203 13.698 9.08 20.35 6-9.361-2.545-15.51-9.783-20.35-18.314m0-6.375c-11.693 10.836-30.595 14.274-41.818 2.603 16.189 1.512 30.872-2.365 41.818-17.439 10.947 15.07 25.63 18.952 41.819 17.439-11.223 11.671-30.12 8.233-41.819-2.603m0-18.361c-5.988 6.905-11.795 10.592-19.337 9.108 7.542-5.03 15.561-14.08 19.337-25.13 3.895 11.176 11.796 20.1 19.337 25.13-7.541 1.484-13.349-2.202-19.337-9.108" fill="#fff"/></g><path d="m363.22 433.73c2.648-1.683 5.99-1.381 7.981.55l-.579 1.594c-1.586-1.965-4.922-2.209-6.868-.901l-.534-1.244" fill="#fff"/><path d="m300.77 433.64c1.223 4.538 3.843 7.68 6.661 10.622-3.425.136-6.917.105-9.26 1.331-.489 5.386 4.56 10.265 8.03 15.09-3.139 1.6-7.04 2.743-9.08 5.993 3.488 7.02 8.773 7.741 13.511 10.381-2.311 2.606-5.05 4.787-5.661 9.09 3.338 3.872 8.09 4.212 12.556 5.259-1.418 3.369-3.402 6.596-2.56 10.529 4.724 2.282 8.343 1.057 11.999 1.012-.089 3.01-.46 6.01.581 9.02 3.379.956 7.333.189 11.252-.476-.057 3.285.018 6.504 1.026 9.259 3.95 1.331 8.694.011 11.85-2.693m-27.512-70.34c.072 1.975.675 3.42 1.807 4.335-3.171.738-5.811 2.204-7.922 4 .425 3.238 2.843 6.406 4.865 9.111-2.593 1.384-5.317 2.238-5.783 4.154.839 2.93 4.269 5.342 7.782 7.736-1.352 2.219-2.174 4.439-2.466 6.659 3.01 2.911 6.03 2.292 9.04 2.379-1.089 3.496-1.978 6.06-1.471 8.494 1.899 1.468 5.123 1.645 8.08 1.527-.035 3.203-.137 5.943.887 8.617 2.991.637 5.584-.331 8.575-1.811.379 2.185.823 5.363 1.735 7.548 2.912-.238 5.823-2.33 6.948-5.68m-1.087-21.564c2.84-.267 5.681-1.049 8.521-2.963.947 2.696 2.305 5.084 4.569 6.792 2.635-.494 5.269-3.183 7.904-5.433 2.223 2.202 4.651 4.096 7.533 5.31 1.605-1.153 3.211-3.128 4.816-5.927 1.77 1.481 3.54 2.14 5.31 1.976m-30.874-12.812c1.657.434 3.313-.339 4.97-1.266 1.152 1.4 2.51 3.129 4.324 4.199 1.789-.959 3.454-1.774 5.244-3.804 1.356 1.627 2.938 2.945 4.623 3.584 1.494-.685 2.987-2.236 4.481-3.909 1.134.818 2.309 1.512 3.774 1.338m-25.56-10.16c1.822.072 3.643-.268 5.465-1.514 1.565 1.688 2.965 2.882 4.201 3.582 1.922-.658 3.294-2.221 4.873-3.557 1.582 1.565 3.041 2.635 4.623 3.213 1.577-.684 2.906-2.234 4.481-3.909.641.94 1.61 1.386 2.909 1.338m-19.603-7.459c.534.555 1.315.863 1.973 1.048 1.131-.256 2.262-1.669 3.394-3.247 1.664 1.196 3.328 2.268 4.993 2.473 1.619-.93 2.371-2.728 2.999-4.65m40.751.239c-.073 1.975-.675 3.42-1.807 4.335 3.171.738 5.811 2.204 7.922 4-.425 3.238-2.843 6.406-4.865 9.111 2.593 1.384 5.317 2.238 5.783 4.154-.839 2.93-4.269 5.342-7.782 7.736 1.352 2.219 2.174 4.439 2.466 6.659-3.01 2.911-6.03 2.292-9.04 2.379 1.089 3.496 1.978 6.06 1.471 8.494-1.899 1.468-5.123 1.645-8.08 1.527.035 3.203.137 5.943-.887 8.617-2.991.637-5.584-.331-8.575-1.811-.379 2.185-.823 5.363-1.734 7.548-2.912-.238-5.823-2.33-6.948-5.68m55.47-71.14c-1.223 4.538-3.843 7.68-6.661 10.622 3.425.136 6.917.105 9.26 1.331.489 5.386-4.56 10.265-8.03 15.09 3.139 1.6 7.04 2.743 9.08 5.993-3.488 7.02-8.773 7.741-13.511 10.381 2.311 2.606 5.05 4.787 5.661 9.09-3.338 3.872-8.09 4.212-12.556 5.259 1.418 3.369 3.402 6.596 2.56 10.529-4.724 2.282-8.343 1.057-11.999 1.012.089 3.01.46 6.01-.581 9.02-3.379.956-7.333.189-11.252-.476.057 3.285-.018 6.504-1.026 9.259-3.95 1.331-8.694.011-11.85-2.693m17.82 46.23c-1.564.201-3.382.18-4.947-.127-.543 2.601-1.051 4.841-2.791 7.103-2.494.3-4.989.142-7.484-.571-.486 1.543-1.332 3.107-2.156 4.313m-38.933-23.531c1.512 2.087 2.992 4.206 5.02 5.778.799-.388 1.673-.945 2.557-2.178 2.075 2.328 4.459 4.554 7.293 6.63 2.368-1.658 5.114-4.12 7.482-7.293.978.979 1.831 1.926 3.315 2.463 1.516-1.104 2.81-2.872 4.073-4.736m-55.729 12.15c1.564.201 3.382.18 4.947-.127.543 2.601 1.051 4.841 2.791 7.103 2.494.3 4.989.142 7.484-.571.486 1.543 1.332 3.107 2.156 4.313" stroke="#fff" stroke-width="1.216" fill="none"/></g></svg>