<svg xmlns="http://www.w3.org/2000/svg" viewBox="0 0 300 360"><g transform="translate(-225-352.36)"><path d="m446.75 524.39c2.935 0 5.315 2.38 5.315 5.315v5.314c0 2.935-2.38 5.315-5.315 5.315h-5.315v-15.944h5.315m0 21.259c5.87 0 10.63-4.76 10.63-10.63v-5.314c0-5.87-4.76-10.63-10.63-10.63h-10.63v26.574h10.63m-21.26-26.574h5.315v26.574h-5.315v-26.574m-10.63 0h5.315v26.574h-5.315l-10.63-16.684v16.684h-5.315v-26.574h5.315l10.63 16.684v-16.684m-79.72 0h15.945v5.315h-10.63v5.315h10.63v5.315h-10.63v5.315h10.63v5.315h-15.945v-26.574m-21.26-.0001h5.315v21.26h10.63v5.315h-15.945v-26.575m55.808 21.26h5.314c4.402 0 7.972-3.57 7.972-7.972s-3.637-7.957-7.972-7.972h-5.314v5.315h5.314c1.467 0 2.658 1.19 2.658 2.658s-1.19 2.658-2.658 2.658h-5.314v5.315m5.314-26.575c10.272 0 18.602 8.33 18.602 18.602s-8.33 18.602-18.602 18.602-18.602-8.33-18.602-18.602 8.33-18.602 18.602-18.602m0 5.315c7.337 0 13.287 5.95 13.287 13.287 0 7.337-5.95 13.287-13.287 13.287-7.337 0-13.287-5.95-13.287-13.287 0-7.337 5.95-13.287 13.287-13.287" fill-rule="evenodd" fill="#a90000"/><path d="m225 352.36v181.09h-.003c0 81.81 72.45 154.9 150 178.91 77.55-24.01 150-97.1 150-178.91h-.003v-181.09h-299.99z"/><path d="m227.43 354.8v178.66h.006v.004h-.006v.808c.078 13.11 2.054 26 5.638 38.515 2.98 10.403 7.07 20.521 12.1 30.25 25.858 50.03 76.58 90.08 129.84 106.78 10.485-3.288 20.878-7.486 31.01-12.492 10.347-5.113 20.429-11.08 30.06-17.786 49.3-34.33 86.36-87.86 86.49-145.77v-.307-178.66h-295.14z" fill="#f8e73d"/><path d="m227.43 354.8v178.66h.006v.004h-.006v.808c.078 13.11 2.054 26 5.638 38.515 2.98 10.403 7.07 20.521 12.1 30.25 3.246 6.28 6.883 12.401 10.869 18.34l266.54-266.58h-295.14z" fill="#41a147"/><g fill-rule="evenodd"><g fill="#fff"><path d="m303.15 447.4l9.383-29.363c4.219-11.987 3.367-23.457-7.363-33.3-3.546-3.253-6.597-6.928-8.256-11.81v74.48h6.236m0 17.845l9.383 29.363c4.219 11.987 3.367 23.457-7.363 33.3-3.546 3.253-6.597 6.928-8.256 11.81v-74.48h6.236"/><path d="m310.44 465.25c1.149 6.177 9.6 18.374 19.466 17.655 4.933-.36 4.899-5.337 3.589-9.34-1.296-3.957-1.088-8.604 5.551-9.701-4.089 4.805-2.01 9.803 1.146 15.51 3.127 5.657 1.354 15.16-9.482 15.306-9.615.131-23.274-15.13-24.896-29.429h4.625"/><path d="m283.39 465.25c-1.149 6.177-9.6 18.374-19.466 17.655-4.933-.36-4.899-5.337-3.589-9.34 1.296-3.957 1.088-8.604-5.551-9.701 4.089 4.805 2.01 9.803-1.146 15.51-3.127 5.657-1.354 15.16 9.482 15.306 9.615.131 23.274-15.13 24.896-29.429h-4.625"/></g><g fill="#e5e5e5"><path d="m296.91 372.93c-1.659 4.881-4.71 8.557-8.256 11.81-10.731 9.846-11.582 21.316-7.363 33.3l9.383 29.363h6.236v-74.48m0 166.8c-1.659-4.881-4.71-8.557-8.256-11.81-10.731-9.846-11.582-21.316-7.363-33.3l9.383-29.363h6.236v74.48"/><path d="m310.44 447.4c1.149-6.177 9.6-18.374 19.466-17.655 4.933.36 4.899 5.337 3.589 9.34-1.296 3.957-1.088 8.604 5.551 9.701-4.089-4.805-2.01-9.803 1.146-15.51 3.127-5.657 1.354-15.16-9.482-15.306-9.615-.131-23.274 15.13-24.896 29.429h4.625"/><path d="m283.39 447.4c-1.149-6.177-9.6-18.374-19.466-17.655-4.933.36-4.899 5.337-3.589 9.34 1.296 3.957 1.088 8.604-5.551 9.701 4.089-4.805 2.01-9.803-1.146-15.51-3.127-5.657-1.354-15.16 9.482-15.306 9.615-.131 23.274 15.13 24.896 29.429h-4.625"/></g></g><path d="m303.15 447.4l9.383-29.363c4.219-11.987 3.367-23.457-7.363-33.3-3.546-3.253-6.597-6.928-8.256-11.81-1.659 4.881-4.71 8.557-8.256 11.81-10.731 9.846-11.582 21.316-7.363 33.3l9.383 29.363h12.473zm-6.236-73.53v73.53" stroke="#000" fill="none"/><g fill="#fff" fill-rule="evenodd"><path d="m339.04 448.79l.08.015c-1.263-4.247 1.827-8.05 5.087-11.178 13.338-12.78 1.428-29.595-14.426-29.11-19.403.589-27.12 22.689-27.397 38.892h3.424c1.622-14.303 15.281-29.56 24.896-29.429 10.836.148 12.61 9.649 9.482 15.306-3.156 5.707-5.236 10.706-1.146 15.51z"/><path d="m254.78 448.79l-.08.015c1.263-4.247-1.827-8.05-5.087-11.178-13.338-12.78-1.428-29.595 14.426-29.11 19.403.589 27.12 22.689 27.397 38.892h-3.424c-1.622-14.303-15.281-29.56-24.896-29.429-10.836.148-12.61 9.649-9.482 15.306 3.156 5.707 5.236 10.706 1.146 15.51z"/></g><path d="m296.91 538.78v-73.53m6.236 0l9.383 29.363c4.219 11.987 3.367 23.457-7.363 33.3-3.546 3.253-6.597 6.928-8.256 11.81-1.659-4.881-4.71-8.557-8.256-11.81-10.731-9.846-11.582-21.316-7.363-33.3l9.383-29.363h12.473z" stroke="#000" fill="none"/><g fill="#e5e5e5" fill-rule="evenodd"><path d="m339.04 463.87l.08-.015c-1.263 4.247 1.827 8.05 5.087 11.178 13.338 12.78 1.428 29.595-14.426 29.11-19.403-.589-27.12-22.689-27.397-38.892h3.424c1.622 14.303 15.281 29.56 24.896 29.429 10.836-.148 12.61-9.649 9.482-15.306-3.156-5.707-5.236-10.706-1.146-15.51z"/><path d="m254.78 463.87l-.08-.015c1.263 4.247-1.827 8.05-5.087 11.178-13.338 12.78-1.428 29.595 14.426 29.11 19.403-.589 27.12-22.689 27.397-38.892h-3.424c-1.622 14.303-15.281 29.56-24.896 29.429-10.836-.148-12.61-9.649-9.482-15.306 3.156-5.707 5.236-10.706 1.146-15.51z"/></g><g stroke="#000"><g fill="none"><path d="m254.81 448.73c4.22-4.84 2.01-9.696-1.175-15.448-3.128-5.657-1.354-15.16 9.482-15.306 9.635-.132 23.331 15.1 24.906 29.429m-4.636 0c-1.149-6.177-9.6-18.374-19.466-17.655-4.933.36-4.899 5.337-3.589 9.34 1.301 3.974 1.087 8.642-5.631 9.715 1.263-4.247-1.827-8.05-5.087-11.178-13.338-12.78-1.428-29.595 14.426-29.11 19.403.589 27.12 22.689 27.397 38.892h-8.05z"/><path d="m339.01 448.73c-4.22-4.84-2.01-9.696 1.175-15.448 3.128-5.657 1.354-15.16-9.482-15.306-9.635-.132-23.331 15.1-24.906 29.429m4.636 0c1.149-6.177 9.6-18.374 19.466-17.655 4.933.36 4.899 5.337 3.589 9.34-1.301 3.974-1.087 8.642 5.631 9.715-1.263-4.247 1.827-8.05 5.087-11.178 13.338-12.78 1.428-29.595-14.426-29.11-19.403.589-27.12 22.689-27.397 38.892h8.05z"/><path d="m283.39 465.25c-1.149 6.177-9.6 18.374-19.466 17.655-4.933-.36-4.899-5.337-3.589-9.34 1.301-3.974 1.087-8.642-5.631-9.715 1.263 4.247-1.827 8.05-5.087 11.178-13.338 12.78-1.428 29.595 14.426 29.11 19.403-.589 27.12-22.689 27.397-38.892h-8.05zm-28.577-1.325c4.22 4.84 2.01 9.696-1.175 15.448-3.128 5.657-1.354 15.16 9.482 15.306 9.635.132 23.331-15.1 24.906-29.429"/><path d="m339.01 463.93c-4.22 4.84-2.01 9.696 1.175 15.448 3.128 5.657 1.354 15.16-9.482 15.306-9.635.132-23.331-15.1-24.906-29.429m4.636 0c1.149 6.177 9.6 18.374 19.466 17.655 4.933-.36 4.899-5.337 3.589-9.34-1.301-3.974-1.087-8.642 5.631-9.715-1.263 4.247 1.827 8.05 5.087 11.178 13.338 12.78 1.428 29.595-14.426 29.11-19.403-.589-27.12-22.689-27.397-38.892h8.05z"/></g><g fill="#f8e73d" fill-rule="evenodd"><path d="m282.7 461.44h28.428c3.633 0 3.993-10.231 0-10.231h-28.428c-4.211 0-3.913 10.231 0 10.231z"/><path d="m283.18 445.96h27.455c1.984 0 1.982 5.259 0 5.259h-27.455c-1.982 0-1.984-5.259 0-5.259z"/><path d="m283.18 461.44h27.455c1.984 0 1.982 5.259 0 5.259h-27.455c-1.982 0-1.984-5.259 0-5.259z"/></g></g></g></svg>