<svg xmlns="http://www.w3.org/2000/svg" viewBox="0 0 300 360"><g fill-rule="evenodd" transform="translate(-225-352.36)"><path d="m446.75 524.39c2.935 0 5.315 2.38 5.315 5.315v5.314c0 2.935-2.38 5.315-5.315 5.315h-5.315v-15.944h5.315m0 21.259c5.87 0 10.63-4.76 10.63-10.63v-5.314c0-5.87-4.76-10.63-10.63-10.63h-10.63v26.574h10.63m-21.26-26.574h5.315v26.574h-5.315v-26.574m-10.63 0h5.315v26.574h-5.315l-10.63-16.684v16.684h-5.315v-26.574h5.315l10.63 16.684v-16.684m-79.72 0h15.945v5.315h-10.63v5.315h10.63v5.315h-10.63v5.315h10.63v5.315h-15.945v-26.574m-21.26-.0001h5.315v21.26h10.63v5.315h-15.945v-26.575m55.808 21.26h5.314c4.402 0 7.972-3.57 7.972-7.972s-3.637-7.957-7.972-7.972h-5.314v5.315h5.314c1.467 0 2.658 1.19 2.658 2.658s-1.19 2.658-2.658 2.658h-5.314v5.315m5.314-26.575c10.272 0 18.602 8.33 18.602 18.602s-8.33 18.602-18.602 18.602-18.602-8.33-18.602-18.602 8.33-18.602 18.602-18.602m0 5.315c7.337 0 13.287 5.95 13.287 13.287 0 7.337-5.95 13.287-13.287 13.287-7.337 0-13.287-5.95-13.287-13.287 0-7.337 5.95-13.287 13.287-13.287" fill="#a90000"/><g transform="matrix(6.49042 0 0 6.49922-307.07-433.46)"><path d="m81.978 157.3c.054.463.124.923.21 1.376 1.901 10.01 11.432 17.621 22.901 17.621 11.468 0 21-7.612 22.901-17.62.086-.454.156-.913.21-1.377v-36.39h-46.22v36.39"/><path fill="#41a147" d="m126.53 162.6c.711-1.679 1.192-3.462 1.411-5.318v-36.12h-45.707v36.12c.219 1.856.7 3.639 1.411 5.318 3.329 7.863 11.675 13.441 21.442 13.441 9.767 0 18.11-5.578 21.442-13.441"/><path d="m113.18 174.7l-30.942-30.942v9.758l22.522 22.522c.111.0001.221.003.332.003 2.847 0 5.573-.474 8.089-1.34"/><path d="m127.49 159.74c.202-.803.353-1.623.452-2.457v-6.849l-29.27-29.27h-9.758l38.578 38.578"/><path d="m127.94 140.68v-9.758l-9.755-9.755h-9.758l19.513 19.513"/><path d="m82.24 124.25v9.758l37.34 37.34c1.879-1.397 3.512-3.061 4.831-4.927l-42.16-42.17z"/><g stroke="#000" stroke-width=".25"><g fill="#fcdb00"><path d="m104.45 122.82c1.713 0 3.103 1.389 3.103 3.103s-1.389 3.103-3.103 3.103-3.103-1.389-3.103-3.103 1.389-3.103 3.103-3.103zm0 2.141c.531 0 .961.43.961.961s-.43.961-.961.961-.961-.43-.961-.961.43-.961.961-.961z"/><path d="m103.39 128.83h2.117v2.01h-2.117z"/><path d="m121.88 159.61v-.78c-.032-.893-2.847-2.819-4.537-6.3-1.653-3.403-1.484-7.776-1.623-11.442-.229-6.02-5.187-10.84-11.268-10.84-6.081 0-11.04 4.816-11.268 10.84-.139 3.665.029 8.04-1.623 11.442-1.691 3.481-4.505 5.408-4.537 6.3v.78h34.857z"/></g><path d="m104.45 155.63c9.624 0 17.429 1.512 17.429 3.376v4.811h-34.857v-4.811c0-1.864 7.805-3.376 17.429-3.376z" fill="#f8c300"/><ellipse rx="17.429" ry="3.376" cy="163.82" cx="104.45" fill="#c4bf66"/><path d="m106.7 160.47v1.938h-4.503v-1.938c1.501-.037 3-.037 4.503 0z" fill="#f8c300"/></g><path fill="#fffb9c" d="m103.09 160.61v1.801h-.743v-1.787c.246-.006.493-.001.743-.014"/><g fill="#f8c300"><circle stroke-width=".25" cx="104.45" stroke="#000" cy="166.75" r="5.381"/><path d="m110.83 133.99c-1.578-1.066-3.48-1.69-5.527-1.69-5.331 0-9.678 4.222-9.878 9.503-.122 3.213.026 7.05-1.423 10.03-.974 2.01-2.469 3.868-3.322 4.826 1.853-.453 4.615-.873 6.653-1.01 2.032-4.553.72-9.487 1.317-14.14.689-5.372 5.894-8.589 12.181-7.522"/></g><g fill="#fffb9c"><circle cx="102.19" cy="163.5" r=".726"/><circle cx="100.98" cy="165.39" r=".327"/><circle cx="102.72" cy="124.32" r=".165"/><circle cx="95.89" cy="138.25" r=".726"/><circle cx="88.39" cy="160.11" r=".29"/><path d="m96.39 135.77l1.022-1.23c.256-.309.71-.36 1.021-.108s.364.713.108 1.021l-1.022 1.23c-.256.308-.71.359-1.022.107-.311-.252-.364-.713-.107-1.022"/><path d="m103.07 123.76l.292-.208c.073-.052.174-.037.227.035.053.073.038.175-.035.227l-.292.208c-.073.052-.174.037-.228-.035-.053-.073-.038-.175.035-.228"/><path d="m88.07 159l.008-.629c.002-.158.128-.286.286-.286s.288.128.286.286l-.008.63c-.002.158-.128.286-.286.286-.158 0-.288-.128-.286-.286"/></g></g></g></svg>