<svg xmlns="http://www.w3.org/2000/svg" width="300" height="356" viewBox="0 0 84.666667 100.47111" fill-rule="evenodd"><path d="m62.58 47.986c.828 0 1.5.672 1.5 1.5v1.5c0 .828-.672 1.5-1.5 1.5h-1.5v-4.5h1.5m0 6c1.657 0 3-1.343 3-3v-1.5c0-1.657-1.343-3-3-3h-3v7.5h3m-6-7.5h1.5v7.5h-1.5v-7.5m-3 0h1.5v7.5h-1.5l-3-4.709v4.709h-1.5v-7.5h1.5l3 4.709v-4.709m-22.5 0h4.5v1.5h-3v1.5h3v1.5h-3v1.5h3v1.5h-4.5v-7.5m-6 0h1.5v6h3v1.5h-4.5v-7.5m15.75 6h1.5c1.242 0 2.25-1.01 2.25-2.25 0-1.242-1.027-2.245-2.25-2.25h-1.5v1.5h1.5c.414 0 .75.336.75.75 0 .414-.336.75-.75.75h-1.5v1.5m1.5-7.5c2.899 0 5.25 2.351 5.25 5.25 0 2.899-2.351 5.25-5.25 5.25-2.899 0-5.25-2.351-5.25-5.25 0-2.899 2.351-5.25 5.25-5.25m0 1.5c2.071 0 3.75 1.68 3.75 3.75 0 2.071-1.68 3.75-3.75 3.75-2.071 0-3.75-1.679-3.75-3.75 0-2.07 1.679-3.75 3.75-3.75" fill="#a90000"/><path d="m84.67 58.07c0 23.411-18.957 42.4-42.33 42.4-23.376 0-42.33-18.986-42.33-42.4v-58.07h84.67v58.07"/><path d="m.633 60.38c1.195 22.03 19.41 39.524 41.7 39.524 22.18 0 40.33-17.334 41.681-39.21-.825.186-1.488.431-2.151.677-1.375.51-2.752 1.021-5.516 1.021-2.764 0-4.141-.511-5.516-1.021-1.339-.497-2.678-.993-5.358-.993-2.68 0-4.02.497-5.358.993-1.375.51-2.752 1.021-5.516 1.021-2.765 0-4.141-.511-5.516-1.021-1.339-.497-2.678-.993-5.358-.993-2.68 0-4.02.497-5.358.993-1.375.51-2.752 1.021-5.516 1.021-2.764 0-4.141-.511-5.516-1.021-1.339-.497-2.678-.993-5.358-.993-2.68 0-4.02.496-5.358.993-1.375.51-2.752 1.021-5.516 1.021-2.765 0-4.141-.511-5.516-1.021-1.27-.471-2.539-.942-4.952-.989m83.46-18.853v-40.954h-83.53v40.669c2.525.04 3.84.528 5.155 1.016 1.341.498 2.684.996 5.378.996 2.694 0 4.04-.498 5.378-.996 1.373-.509 2.745-1.018 5.497-1.018 2.751 0 4.124.509 5.497 1.018 1.341.498 2.684.996 5.377.996 2.694 0 4.04-.498 5.378-.996 1.373-.509 2.746-1.018 5.497-1.018 2.751 0 4.124.509 5.497 1.018 1.341.498 2.684.996 5.378.996 2.694 0 4.04-.498 5.377-.996 1.373-.509 2.746-1.018 5.497-1.018 2.751 0 4.124.509 5.497 1.018 1.341.498 2.684.996 5.377.996 2.694 0 4.04-.498 5.378-.996.724-.269 1.448-.537 2.373-.73" fill="#dd232d"/><path d="m84.1 58.07v-16.13c-.864.188-1.549.441-2.234.695-1.375.51-2.752 1.021-5.516 1.021-2.764 0-4.141-.511-5.516-1.021-1.339-.497-2.678-.993-5.358-.993-2.68 0-4.02.497-5.358.993-1.375.51-2.752 1.021-5.516 1.021-2.765 0-4.141-.511-5.516-1.021-1.339-.497-2.678-.993-5.358-.993-2.68 0-4.02.497-5.358.993-1.375.51-2.752 1.021-5.516 1.021-2.764 0-4.141-.511-5.516-1.021-1.339-.497-2.678-.993-5.358-.993-2.68 0-4.02.496-5.358.993-1.375.51-2.752 1.021-5.516 1.021-2.765 0-4.141-.511-5.516-1.021-1.281-.475-2.561-.95-5.02-.99v16.429c0 .636.017 1.269.045 1.898 2.496.045 3.803.53 5.11 1.015 1.341.498 2.684.996 5.378.996 2.694 0 4.04-.498 5.378-.996 1.373-.509 2.745-1.018 5.497-1.018 2.751 0 4.124.509 5.497 1.018 1.341.498 2.684.996 5.377.996 2.694 0 4.04-.498 5.378-.996 1.373-.509 2.746-1.018 5.497-1.018 2.751 0 4.124.509 5.497 1.018 1.341.498 2.684.996 5.378.996 2.694 0 4.04-.498 5.377-.996 1.373-.509 2.746-1.018 5.497-1.018 2.751 0 4.124.509 5.497 1.018 1.341.498 2.684.996 5.377.996 2.694 0 4.04-.498 5.378-.996.709-.263 1.418-.526 2.316-.719.038-.727.057-1.458.057-2.195" fill="#fff"/><g fill-rule="nonzero"><path d="m43.762 27.26v-5.02h2.355v2.856h3.532v-2.856h2.53v-3.537h-2.53v-2.856h-3.532v2.856h-2.355v-7.828l2.576 3.074h5.11l-9.452-11.281-9.452 11.281h5.111l2.575-3.073v7.828h-7.865v3.537h7.865v5.02c0 1.72-1.393 3.114-3.11 3.114-1.717 0-3.11-1.395-3.11-3.114h-3.532c0 3.673 2.974 6.651 6.641 6.651 1.927 0 3.662-.823 4.875-2.137 1.213 1.313 2.949 2.137 4.876 2.137 3.667 0 6.641-2.979 6.641-6.651h-3.532c0 1.72-1.393 3.114-3.11 3.114-1.717 0-3.11-1.395-3.11-3.114"/><path d="m43.35 27.24l.002-5.398h3.168v2.856h2.723v-2.856h2.53v-2.728h-2.53v-2.856h-2.723v2.856h-3.167l.003-9.345 3.168 3.781h4.057l-8.586-10.248-8.586 10.248h4.058l3.167-3.78.003 9.344h-7.868v2.728h7.869l.002 5.397v.024.023c.024 1.935-1.648 3.501-3.519 3.501-1.871 0-3.295-1.364-3.496-3.12h-2.722c.209 3.258 2.913 5.837 6.218 5.837 1.974 0 3.734-.92 4.876-2.355 1.142 1.435 2.901 2.355 4.875 2.355 3.305 0 6.01-2.579 6.218-5.837h-2.722c-.201 1.756-1.624 3.12-3.496 3.12-1.871 0-3.544-1.567-3.519-3.503v-.022-.022" fill="#fff"/></g></svg>