<svg xmlns="http://www.w3.org/2000/svg" viewBox="0 0 300 360" xmlns:xlink="http://www.w3.org/1999/xlink"><defs><linearGradient id="C" gradientUnits="userSpaceOnUse" x2=".99" x1=".001" gradientTransform="matrix(0-34.74885-30.0151 0 416.45 487.55)"><stop stop-color="#999"/><stop stop-color="#e5e5e5" offset=".73"/><stop stop-color="#999" offset="1"/></linearGradient><linearGradient id="D" gradientUnits="userSpaceOnUse" x2=".96" x1=".04" gradientTransform="matrix(92.9594-5.95144-6.71607-105.1866 324.4 623.97)"><stop stop-color="#999"/><stop stop-color="#e5e5e5" offset=".62"/><stop stop-color="#999" offset="1"/></linearGradient><linearGradient id="A" gradientUnits="userSpaceOnUse" x2=".95" x1=".05" gradientTransform="matrix(-36.75948 6.86709 3.84144 20.61894 379.66 411.83)"><stop stop-color="#f4c815"/><stop stop-color="#f4ec2c" offset=".51"/><stop stop-color="#f2c117" offset="1"/></linearGradient><linearGradient id="E" gradientUnits="userSpaceOnUse" x2=".97" x1=".03" gradientTransform="matrix(101.1889 2.02314.7142-35.8177 318.46 602.03)"><stop stop-color="#ededed"/><stop stop-color="#fff" offset=".27"/><stop stop-color="#ededed" offset="1"/></linearGradient><linearGradient id="F" gradientUnits="userSpaceOnUse" x2=".72" x1=".28" gradientTransform="matrix(-52.1829-39.8784-37 48.54752 395.35 611.19)"><stop stop-color="#e5e5e5"/><stop stop-color="#fff" offset="1"/></linearGradient><linearGradient id="0" gradientUnits="userSpaceOnUse" x2=".9" x1=".1" gradientTransform="matrix(35.86896-.59663-.86016-51.85251 334.52 480.67)"><stop stop-color="#999"/><stop stop-color="#bfbfbf" offset=".62"/><stop stop-color="#e5e5e5" offset="1"/></linearGradient><linearGradient id="G" gradientUnits="userSpaceOnUse" x2=".67" x1=".33" gradientTransform="matrix(-75.2131-19.7243-17.38544 66.4741 459.68 578.21)" xlink:href="#F"/><linearGradient id="1" gradientUnits="userSpaceOnUse" x2=".95" x1=".05" gradientTransform="matrix(-55.4106 4.62381 6.35803 76.3996 394.78 439.39)"><stop stop-color="#e69423"/><stop stop-color="#f4ec2c" offset=".24"/><stop stop-color="#e69423" offset="1"/></linearGradient><radialGradient id="B" gradientUnits="userSpaceOnUse" cy="0" cx="0" gradientTransform="matrix(33.89907 0 0-33.94496 358.81 408.9)" r=".94"><stop stop-color="#fff"/><stop stop-color="#b2b2b2" offset="1"/></radialGradient><radialGradient id="9" gradientUnits="userSpaceOnUse" cy="0" cx="0" gradientTransform="matrix(2.24264 0 0-2.24568 299.36 481.38)" r=".66" xlink:href="#3"/><radialGradient id="2" gradientUnits="userSpaceOnUse" cy="0" cx="0" gradientTransform="matrix(56.4478 0 0-56.5242 347.59 474.71)" r="1.03"><stop stop-color="#e5e5e5"/><stop stop-color="#999" offset="1"/></radialGradient><radialGradient id="3" gradientUnits="userSpaceOnUse" cy="0" cx="0" gradientTransform="matrix(.93022 0 0-.93148 304.96 482.7)" r=".63"><stop stop-color="#fff"/><stop stop-color="#ccc" offset="1"/></radialGradient><radialGradient id="H" gradientUnits="userSpaceOnUse" cy="0" cx="0" gradientTransform="matrix(10.83687 0 0-10.85154 357.6 396.6)" r=".91"><stop stop-color="#f4ec2c"/><stop stop-color="#f4c815" offset="1"/></radialGradient><radialGradient id="4" gradientUnits="userSpaceOnUse" cy="0" cx="0" gradientTransform="matrix(10.85246 0 0-10.86715 311.86 475.65)" r=".62" xlink:href="#3"/><radialGradient id="5" gradientUnits="userSpaceOnUse" cy="0" cx="0" gradientTransform="matrix(2.15165 0 0-2.15456 312.75 472.78)" r=".51" xlink:href="#3"/><radialGradient id="8" gradientUnits="userSpaceOnUse" cy="0" cx="0" gradientTransform="matrix(1.0004 0 0-1.0018 306.69 482.8)" r=".63" xlink:href="#3"/><radialGradient id="6" gradientUnits="userSpaceOnUse" cy="0" cx="0" gradientTransform="matrix(.71699 0 0-.71796 312.57 471.58)" r=".51" xlink:href="#3"/><radialGradient id="7" gradientUnits="userSpaceOnUse" cy="0" cx="0" gradientTransform="matrix(.69879 0 0-.69973 312.85 475.21)" r=".51" xlink:href="#3"/></defs><g transform="translate(-225-352.36)"><path d="m446.75 524.39c2.935 0 5.315 2.38 5.315 5.315v5.314c0 2.935-2.38 5.315-5.315 5.315h-5.315v-15.944zm0 21.259c5.87 0 10.63-4.76 10.63-10.63v-5.314c0-5.87-4.76-10.63-10.63-10.63h-10.63v26.574zm-21.26-26.574h5.315v26.574h-5.315zm-10.63 0h5.315v26.574h-5.315l-10.63-16.684v16.684h-5.315v-26.574h5.315l10.63 16.684zm-79.72 0h15.945v5.315h-10.63v5.315h10.63v5.315h-10.63v5.315h10.63v5.315h-15.945zm-21.26-.0001h5.315v21.26h10.63v5.315h-15.945zm55.808 21.26h5.313c4.402 0 7.972-3.57 7.972-7.972s-3.637-7.957-7.972-7.972h-5.313v5.315h5.313c1.467 0 2.658 1.19 2.658 2.658s-1.19 2.658-2.658 2.658h-5.313zm5.313-26.575c10.272 0 18.602 8.33 18.602 18.602s-8.33 18.602-18.602 18.602-18.602-8.33-18.602-18.602 8.33-18.602 18.602-18.602m-13.287 18.602c0 7.337 5.95 13.287 13.287 13.287 7.337 0 13.287-5.95 13.287-13.287 0-7.337-5.95-13.287-13.287-13.287-7.337 0-13.287 5.95-13.287 13.287" fill="#a90000"/><g fill-rule="evenodd"><path d="m225 588.89c.352 3.01.802 5.995 1.362 8.945 12.337 65.05 74.2 114.52 148.64 114.52 74.44 0 136.3-49.47 148.64-114.52.56-2.951 1.01-5.936 1.363-8.949v-236.52h-300v236.53z"/><path d="m514.17 623.34c4.614-10.913 7.739-22.502 9.158-34.562v-234.76h-296.66v234.76c1.418 12.06 4.545 23.652 9.16 34.565 21.609 51.11 75.78 87.35 139.17 87.35s117.56-36.25 139.17-87.36" fill="#3d82c2"/><path d="m363.03 403.14l-3.733-7.489c-1.277-2.562-3.935-2.043-4.146.855l-.606 8.344 8.484-1.711z" stroke="#000" stroke-miterlimit="7.831" fill="url(#H)"/><path d="m380.21 596.88c2.162 5.152 5.258 10.728 8.671 15.441-.753 4.991-2.753 5.04-3.657 6.917-1.491 3.092 1.548 6.582 5.392 9.162 6.717-4.377 13.46-9.897 20.537-16.714l5.693 5.32c4.763-1.705.972-15.506 1.103-24.589-12.609-.729-25.05 1.991-37.74 4.462" fill="url(#G)"/><path d="m365.28 599.45c-4.904 11.963-9.786 24.781-15.988 25.403l-3.058-6.071c-8.191 3.612-14.879 4.13-21.856 4.996-3.198-6.853-3.187-10.903.101-11.712 1.484-.569 2.728-1.381 3.86-2.304.106-3.03.495-7.595 1.739-10.665 10.617 3.072 22.963 2.148 35.2.353" fill="url(#F)"/></g><g stroke="#000"><g stroke-miterlimit="8.829"><path d="m416.91 616.99c4.764-1.704.906-15.485 1.036-24.567m-27.474 35.832c-3.856-2.583-6.746-5.911-5.25-9.01.948-1.966 3.104-1.927 3.75-7.698.253-2.258 1.249-3.567 2.756-4.646m-11.39-9.62c2.157 5.142 5.118 10.336 8.539 15.06m-60.53-2.696c.108-3.076.485-7.611 1.779-10.687m-5.822 24.613c-3.18-6.855-3.126-10.687.162-11.496 2.923-1.121 4.91-3.179 6.954-5.182m17.788 17.974c6.244-.545 11.08-13.261 16.01-25.26" fill="none"/><g fill-rule="evenodd"><path d="m418.75 592.47c-16.06-1.114-31.833 3.486-48.19 6.154-18.403 3-37.668 5.04-51.42-4.696 2.184-7.84 6.166-14.241 8.456-21.704 15.833 10.217 50.25-5.744 81.64-3.842 3.707 7.246 7.541 15.979 9.521 24.09z" fill="url(#E)"/><path d="m404.17 553.8c1.7 5.36 5.67 10.1 6.823 15.428-13.451 1.697-26.939 3.354-40.35 6.02-19.05 3.788-36.83 5.64-45.05-3.697 2.986-9.892 13.457-21.896 13.848-38.641.134-5.746 1.473-9.643 5.289-12.817l48.689-1.719c4.099 5.961 6.548 22.18 10.75 35.426z" fill="url(#D)"/></g></g><path d="m388.93 518.56l7.633 7.633m-5.03-7.715l3.567 3.567m-55.47 7.974l10.09-10.1m-10.281 12.99l13.07-13.09m-13.24 15.953l16.03-16.05m-16.429 19.15l19.219-19.245m-19.922 22.644l22.713-22.743m-23.8 26.528l26.59-26.626m-28.19 30.919l30.975-31.02m-33.2 35.937l35.987-36.04m-38.772 41.52l41.562-41.618m-44.31 47.07l47.1-47.17m-48.996 51.76l51.788-51.858m-50.958 53.721l53.747-53.82m-52.28 55.04l55.07-55.14m-53.44 56.22l56.23-56.31m-54.45 57.22l57.24-57.32m-55.31 58.08l58.1-58.18m-56.02 58.792l58.23-58.3m-56.01 58.781l56.944-57.02m-54.59 57.36l55.39-55.47m-52.911 55.678l53.63-53.702m-51.02 53.786l51.68-51.75m-48.955 51.716l49.568-49.635m-46.733 49.49l47.31-47.38m-44.37 47.13l44.934-44.995m-41.904 44.656l42.45-42.507m-39.33 42.08l39.868-39.922m-36.671 39.42l37.2-37.25m-33.943 36.684l34.48-34.526m-31.16 33.897l31.704-31.747m-28.361 31.09l28.914-28.953m-25.612 28.343l26.18-26.22m-22.922 25.649l23.51-23.542m-20.288 23.01l20.9-20.929m-17.711 20.431l18.354-18.379m-15.192 17.908l15.947-15.969m-12.807 15.52l13.667-13.686m-10.546 13.256l11.465-11.48m-8.359 11.07l9.3-9.313m-6.207 8.911l7.133-7.143m-4.047 6.748l4.923-4.929m-1.842 4.539l2.617-2.62m-70.03-40.38l6.613-6.623m51.96 13.884l-15.16-15.183m16.06 18.777l-18.66-18.685m19.549 22.27l-22.15-22.18m23.06 25.789l-25.662-25.697m26.639 29.371l-29.24-29.28m30.33 33.06l-32.928-32.972m34.403 37.14l-37-37.05m39.82 42.569l-42.42-42.477m44.78 47.536l-47.38-47.44m47.13 49.893l-49.734-49.801m47.34 50.1l-49.944-50.01m47.555 50.31l-50.15-50.22m47.765 50.52l-50.37-50.43m47.981 50.741l-50.581-50.65m48.2 50.961l-50.8-50.869m48.43 51.19l-51.02-51.09m48.655 51.42l-50.05-50.11m47.684 50.45l-48.894-48.961m46.54 49.3l-47.541-47.606m45.2 47.955l-45.966-46.03m43.635 46.39l-44.16-44.22m41.844 44.596l-42.14-42.2m39.836 42.586l-39.95-40m37.656 40.4l-37.836-37.888m35.555 38.3l-35.866-35.915m33.601 36.34l-34.02-34.07m31.771 34.51l-32.29-32.33m30.03 32.768l-30.63-30.671m28.358 31.09l-29.02-29.06m26.735 29.465l-27.463-27.5m25.1 27.85l-25.92-25.96m23.581 26.308l-24.403-24.436m22.02 24.75l-22.882-22.913m20.461 23.18l-21.347-21.375m18.876 21.596l-19.781-19.808m17.246 19.965l-18.16-18.19m15.546 18.262l-16.466-16.489m13.739 16.453l-14.652-14.673m11.771 14.482l-12.667-12.684m9.546 12.255l-10.407-10.421m6.848 9.552l-7.65-7.66m71.5-38.909l-11.608-11.623" stroke-width=".4" fill="none"/><path d="m386.44 455.84l4.71 28.812c4.676.406 11.821 3.6 16.532 2.752 6.331-7.654 3.118-27.08-.903-34.02-7.268-.226-14.837.099-20.339 2.46z" fill-rule="evenodd" stroke-miterlimit="8.829" fill="url(#C)"/><path d="m386.53 456.4l.981-.983m-.603 3.299l4.355-4.361m-3.977 6.678l7.214-7.224m-6.835 9.54l9.824-9.837m-9.445 12.155l12.283-12.3m-11.905 14.615l14.638-14.658m-14.259 16.974l16.92-16.943m-16.542 19.259l18.15-18.18m-17.774 20.494l18.59-18.615m-18.212 20.93l18.913-18.939m-18.534 21.255l19.14-19.17m-18.767 21.488l19.292-19.318m-18.89 21.64l19.36-19.38m-17.398 20.12l17.76-17.784m-15.563 18.277l15.832-15.853m-13.692 16.406l13.85-13.868m-11.711 14.422l11.733-11.749m-9.545 12.253l9.372-9.385m-7.07 9.772l6.573-6.582m-3.992 6.691l2.686-2.689m-1.398-29.21l-2.278-2.282m3.685 6.383l-6.401-6.41m7.264 9.97l-9.911-9.924m10.481 13.191l-13.04-13.06m13.398 16.11l-15.866-15.887m16.03 18.751l-18.394-18.418m18.393 21.11l-20.635-20.664m20.468 23.19l-22.58-22.61m22.247 24.973l-24.22-24.25m23.708 26.436l-23.282-23.314m22.589 25.314l-22.06-22.09m21.16 23.889l-20.637-20.665m19.357 22.08l-18.83-18.855m16.17 18.889l-15.645-15.666m12.456 15.168l-11.928-11.944m8.372 11.08l-7.845-7.856m4.236 6.937l-3.709-3.713" stroke-miterlimit="10" stroke-width=".4" fill="none"/><g fill-rule="evenodd" stroke-miterlimit="8.829"><path d="m395.94 362.08c-1.643-1.323-5.03-1.115-5.89 1.053 2.401 16.855 17.764 28.507 37.875 39.07 16.01 8.408 26.694 17.201 32.31 35.675 3.343 10.999 5.077 22.05 3.401 33.416-3.01 20.412-12.24 32.43-29.02 43.37-17.56 11.446-29.599 23.21-31.565 40.24 2.09 1.57 4.634 1.09 6.125-.403 3.669-24.01 20.657-30.72 37.896-43.34 13.685-10.02 20.448-23.24 22.586-38.897 1.583-11.596-.108-24.03-3.389-35.27-4.522-15.496-14.227-27.526-30.07-35.07-20-9.521-34.488-18.18-40.25-39.835z" fill="#e6e6e6"/><path d="m467.54 450.37c-.438-.474-1.048-.552-2.02-.603-5.268-.281-10.114 1.278-11.985 4.01l-3.83.442 2.099 13.14 3.779-.59c1.01.526 1.707.834 2.834 1.017 1.758.287 3.603.398 5.558.324l.102-1.448.785.491 5.168-.307.044.53c1.335-.65 1.398-2.461.685-3.9 1.534-.619 2.126-2.078 1.47-4.066 1.468-1.04 1.82-2.889.815-4.453 1.572-1.3 1.424-4.631-1.696-4.677-.645-.009-1.303-.016-1.945-.005l.152 1.152-1.355.334-.657-1.391z" fill="#edc480"/></g></g><g fill-rule="evenodd"><g stroke-miterlimit="8.829"><path d="m405.32 478.45c1.603.81 3.64 1.554 5.03 1.568 3.122-.583 6.242-1.267 9.364-2.037-1.983-7.626-2.674-15.752-1.067-23.39-2.312.164-4.303.413-6 .816-1.654-.674-4.058-1.213-6.082-1.427-2.934 8.401-2.831 16.496-1.245 24.471" fill="#fff"/><path d="m419.71 477.98l.677-.169c11.298-2.829 22.597-6.738 33.896-10.781-1.699-4.551-2.272-9.454-1.853-13.65-15.174 1.045-26.1.677-33.657 1.201l-.131.009c-1.607 7.638-.915 15.763 1.067 23.39" fill="#e6e6e6"/></g><g stroke="#000"><g stroke-miterlimit="7.831"><path d="m363.8 442.77l-3.528-15.11 19.08-2.418c.066 1.481.691 3.299-.416 4.495-.941 1.882 1.82 5.136 2.408 7.287.253.926.579 2.198-.757 2.626-.74.237-2.215-.232-3.671.118l-3.857 4.954-9.255-1.954z" fill="#edc480"/><path d="m359.34 403.3c-14.512 2.453-11.58 18.676-12.385 28.727 10.608-2.602 22.394-4.804 33.897-5.551-2.29-9.849-9.14-25.27-21.52-23.18z" fill="url(#B)"/><path d="m378.19 418.23l-.009-.021c-10.472.367-20.923 2.208-30.995 5.362v.026c-.067 2.992-.033 5.911-.235 8.439 10.608-2.602 22.394-4.804 33.897-5.551-.581-2.517-1.462-5.396-2.657-8.255z" fill="url(#A)"/><path d="m380.32 439.71c.012 2.285-.87 3.459-1.808 4.184l.021 1.216c.024 1.336 4.255 2.1 6.04 4.204.913 1.346.913 2.807 0 4.382l-15.551.91-5.642-6.992 1.556-8.918c3.99-.435 4.55-.31 5.821 2.09 1.143 2.157 2.066 2.669 3.097.191.298-.717.756-1.343 1.688-1.474.352.283.823.402 1.377.27 1.298-.312 2.609.026 3.403-.064z" fill="#bf7019"/><g fill="#e6e6e6"><path d="m326.41 424.07l9.551 15.807m-1.281.776l-9.556-15.804m17.18 28.398l-8.11-13.389-4.951-1.22-4.354-7.204 4.972 1.225-.77-1.274-4.972-1.224-3.962-6.556 6.01 1.479 1.478-6.02 3.946 6.53-1.223 4.979.769 1.274 1.223-4.979 4.354 7.204-1.228 5 8.09 13.401-1.271.77z"/><path d="m322.92 426.18l9.551 15.808m-1.281.777l-9.556-15.804m17.18 28.398l-8.11-13.389-4.951-1.22-4.353-7.204 4.972 1.224-.77-1.273-4.972-1.225-3.961-6.556 6.01 1.48 1.478-6.02 3.946 6.53-1.223 4.979.77 1.274 1.223-4.98 4.354 7.204-1.229 5 8.091 13.4-1.272.771z"/><path d="m319.44 428.29l9.55 15.808m-1.281.777l-9.556-15.804m17.18 28.398l-8.11-13.389-4.951-1.22-4.353-7.204 4.972 1.224-.77-1.273-4.972-1.225-3.962-6.556 6.01 1.48 1.478-6.02 3.946 6.529-1.223 4.979.77 1.274 1.223-4.98 4.354 7.204-1.228 5 8.091 13.4-1.271.771z"/></g></g><g stroke-miterlimit="8.39"><g fill="#e6e6e6"><path d="m315.96 430.39l9.55 15.807m-1.281.777l-9.556-15.804m17.18 28.398l-8.11-13.389-4.951-1.22-4.353-7.204 4.972 1.225-.77-1.274-4.971-1.224-3.962-6.556 6.01 1.48 1.478-6.02 3.946 6.529-1.223 4.979.77 1.274 1.223-4.979 4.354 7.204-1.229 5 8.091 13.401-1.272.77z"/><path d="m312.48 432.5l9.551 15.808m-1.281.776l-9.556-15.804m17.18 28.398l-8.109-13.389-4.951-1.22-4.354-7.204 4.972 1.224-.77-1.273-4.972-1.225-3.962-6.556 6.01 1.48 1.478-6.02 3.946 6.529-1.223 4.979.77 1.274 1.223-4.98 4.353 7.204-1.228 5 8.09 13.4-1.271.771z"/><path d="m309 434.61l9.551 15.808m-1.281.777l-9.557-15.804m17.18 28.398l-8.109-13.389-4.951-1.22-4.354-7.204 4.972 1.224-.77-1.273-4.972-1.225-3.962-6.556 6.01 1.48 1.478-6.02 3.946 6.53-1.223 4.979.77 1.274 1.223-4.98 4.353 7.204-1.228 5 8.09 13.4-1.272.771z"/></g><path d="m352.94,465.77-21.45,11.708-13.156-21.769,21.45-11.708,13.156,21.769z" fill="#bf7019"/></g></g><g stroke-miterlimit="8.39"><path d="m312.39 471.39c-1.552.595-3.075 1.282-4.54 2.132l-14.607-6.02v-5.213l10.375-8.269c-6.075.568-12.181 3.093-18.17 9.515-2.55 2.736-2.303 4.919-.18 7.02 3.471 3.438 6.905 6.075 9.71 8.822 2.74 2.684 7.144 3.286 11.763 3.469 1.874.044 4.02.144 5.902.087.371-3.793.292-7.765-.255-11.545" fill="#fff"/><g fill="#e6e6e6"><path d="m309.19 453.99c6.738.5 13.305-.493 19.958-1.44-.477 4.179.781 8.06 1.798 12.06-6.296 3.858-13.628 4.558-20.21 7.453-4.394-1.18-8.95-2.954-13.12-5.154-2.654-1.401-2.882-2.557-.562-4.864 3.406-3.386 7.02-4.857 11.179-8.098-.683-.091.88.035.954.04"/><path d="m310.81 472.09c-4.418-1.181-9-2.962-13.191-5.175-2.654-1.401-2.882-2.557-.562-4.864 3.406-3.386 7.02-4.857 11.179-8.098-3.129-.441-6.344-.178-9.367.882-3.496 2.13-6.335 4.627-9.354 7.56-2.48 2.41-2.529 3.568.457 5.492 4.576 2.948 10.204 5.338 15.606 7.238 1.432-1.17 3.238-2.132 5.23-3.035"/></g><path d="m299.75 481.94c-.79-.218-1.543-.492-2.243-.828l.238.111.007.005.232.101.016.007c.556.237 1.141.436 1.749.605" fill="url(#9)"/><path d="m306.86 482.83c-.335-.012-.668-.026-1-.042.332.016.666.031 1 .042" fill="url(#8)"/><path d="m312.83 474.97l.03.7c-.009-.234-.018-.466-.03-.7" fill="url(#7)"/><path d="m312.5 471.4l.016.127.007.059.024.188.014.113.009.074.012.105-.012-.105-.009-.074-.014-.113-.024-.188-.007-.059-.016-.127-.007-.052.007.052" fill="url(#6)"/><path d="m312.59 472.06c.083.716.147 1.433.196 2.154-.048-.721-.113-1.44-.196-2.154" fill="url(#5)"/><path d="m312.59 472.06c.084.716.147 1.433.196 2.154v.007l.034.545v.014l.009.165v.024c.012.234.021.466.03.7l.002.055.005.126.002.063.005.118v.071l.002.111.002.079.002.102.002.087v.009l.007.561v.068.122.061.508.036.153.029l-.002.161v.021l-.005.286v.074.002l-.002.182v.005l-.005.177v.012l-.002.053-.005.136-.005.161v.029l-.005.153v.036l-.005.145-.002.044-.005.137-.002.052-.005.13-.002.061-.005.12-.002.069-.005.113-.005.077-.005.105-.005.084-.005.097-.005.092-.005.089-.005.1-.005.082-.007.108-.005.074-.007.116-.005.065-.007.125-.005.057-.009.133-.002.049-.009.141-.002.041-.012.147-.002.033-.012.157-.002.025-.014.164v.016l-.014.174v.007l-.016.18-.248-.005h-.057l-.192-.005h-.114l-.135-.002-.321-.005-.43-.005h-.038l-.31-.005-.155-.002-1.01-.012h-.078l-.174-.002-.137-.002-.116-.002-.196-.002h-.058l-.252-.005-.253-.006h-.059l-.194-.005-.116-.002-.389-.009-.233-.007h-.018l-.252-.007h-.039l-.213-.007.213.007h.039l.252.007h.018l.233.007.389.009.116.002.194.005h.059l.252.005.253.006h.058l.196.002.116.002.137.002.174.002h.078l1.01.012.155.002.31.005h.038l.43.005.321.005.135.002h.114l.192.005h.057l.248.005.016-.18v-.007l.014-.174v-.016l.014-.164.002-.025.012-.157.002-.033.012-.147.002-.041.009-.141.002-.049.009-.133.005-.057.007-.125.005-.065.007-.116.005-.074.007-.108.005-.082.005-.1.005-.089.005-.092.005-.097.005-.084.005-.105.005-.077.005-.113.002-.069.005-.12.002-.061.005-.13.002-.052.005-.137.002-.044.005-.145v-.036l.005-.153v-.029l.005-.161.005-.136.002-.053v-.012l.005-.177v-.005l.002-.182v-.002-.074l.005-.286v-.021l.002-.161v-.029-.153-.036-.508-.061-.122-.068l-.007-.561v-.009l-.002-.087-.002-.102-.002-.079-.002-.111v-.071l-.005-.118-.002-.063-.005-.126-.002-.055c-.009-.234-.018-.466-.03-.7v-.025l-.009-.165v-.014l-.034-.545v-.007c-.048-.721-.113-1.44-.196-2.154" fill="url(#4)"/><path d="m305.11 482.75c-.312-.021-.622-.044-.93-.07.308.027.618.05.93.07" fill="url(#3)"/></g><path d="m328.91 486.79c4.493 13.578 10.1 26.728 16.326 29.19l16.707-.764-4.64-55.19-27.729-.567 1.365 5.16c-5.74 3.517-12.463 4.464-18.572 6.787.567 3.824.653 7.691.277 11.532-1.883.057-4.03-.044-5.902-.087.908 3.19 2.83 6.103 5.138 8.774 3.416-.572 6.646-3.598 10.249-3.601 2.295-.002 4.558-.396 6.781-1.229" fill="url(#2)"/></g><g stroke="#000"><g fill="none"><path d="m312.49 472.3l1.477-1.479m-1.228 3.925l5.134-5.141m-10.991 13.701l.449-.449m5.531-5.539l8.825-8.837m8.125-8.136l.874-.875m-23.05 25.778l2.317-2.32m2.888-2.892l12.905-12.923m4.631-4.637l2.947-2.951m-24.772 27.501l4.093-4.098m.0001-.0001l18.292-18.316m.002-.002l5.02-5.03m-26.366 29.1l29-29.04m-27.863 30.596l30.501-30.543m-29.16 31.892l31.795-31.838m-27.315 30.05l29.951-29.992m-25.601 28.331l28.24-28.28m-25.365 28.09l28-28.04m-24.75 27.48l27.388-27.426m-25.16 27.891l27.8-27.837m-27.12 29.847l27.544-27.582m-26.842 29.574l27.05-27.09m-26.332 29.06l26.542-26.578m-25.802 28.532l26.01-26.05m-25.25 27.975l25.457-25.492m-24.669 27.398l24.879-24.912m-24.06 26.79l24.271-24.303m-23.42 26.15l23.629-23.661m-22.741 25.467l22.95-22.981m-22.02 24.742l22.23-22.256m-21.24 23.965l21.45-21.479m-20.398 23.12l20.607-20.635m-19.474 22.2l19.684-19.71m-18.445 21.16l18.654-18.679m-17.266 19.987l17.476-17.499m-15.862 18.579l16.07-16.09m-13.611 16.325l13.82-13.838m-10.999 13.71l11.209-11.224m-8.388 11.09l8.597-8.608m-5.776 8.48l5.986-5.994m-3.165 5.865l3.374-3.379m-.554 3.25l.762-.764m-4.425-52.625l-1.875-1.878m2.123 4.822l-4.871-4.877m5.118 7.821l-7.867-7.877m8.114 10.82l-10.862-10.876m11.11 13.821l-13.858-13.877m14.11 16.819l-16.853-16.876m17.1 19.819l-19.848-19.875m20.1 22.818l-22.843-22.874m23.09 25.818l-25.84-25.875m26.09 28.817l-28.834-28.873m29.08 31.816l-29.839-29.879m30.09 32.823l-29.455-29.495m29.703 32.439l-31.442-31.484m31.69 34.428l-33.529-33.574m33.775 36.514l-35.703-35.751m35.951 38.695l-37.952-38m38.2 40.947l-40.25-40.31m40.501 43.25l-42.582-42.639m42.829 45.583l-44.913-44.974m42.697 45.45l-44.754-44.814m42.18 44.932l-28.02-28.06m-.484-.484l-15.685-15.706m41.611 44.36l-24.03-24.06m-3.976-3.982l-13.908-13.926m39.34 42.09l-19.868-19.895m-7.86-7.87l-11.409-11.424m36.564 39.31l-15.439-15.46m-12.274-12.291l-8.826-8.838m33.963 36.706l-10.472-10.486m-16.886-16.908l-6.725-6.734m4.824 7.526l-6.343-6.351m4.536 7.238l-7.282-7.292m5.43 8.133l-6.651-6.659" stroke-miterlimit="10" stroke-width=".4"/><path d="m312.42 471.63c1.031 6.98.187 13.492-.718 19.986m33.08 24.02c-6.117-2.687-11.329-15.12-15.823-28.7m13.666-3.781c-1.379-.6-2.758-1.5-4.136-3.059-5.199 5.505-10.679 7.915-16.362 7.92-3.604.002-6.833 3.03-10.249 3.601-2.306-2.671-4.165-5.492-5.03-8.643m5.752 0c-6.459-.177-13.723.215-17.619-3.601-2.804-2.746-6.237-5.384-9.71-8.821-2.122-2.103-2.369-4.286.181-7.02 7.82-8.388 15.843-10.127 23.733-9.542 6.74.499 13.305-.494 19.959-1.44-.478 4.179.779 8.06 1.797 12.06-8.57 5.252-19.06 4.651-26.969 11.702m20.04-22.962c.247 4.549.894 9.03 2.971 13.273m-21.412 8.497c-5.403-1.901-11.03-4.292-15.606-7.239-2.986-1.924-2.937-3.082-.456-5.492 3.02-2.934 5.857-5.429 9.352-7.56 3.02-1.06 6.237-1.323 9.366-.882-4.154 3.242-7.771 4.712-11.179 8.098-2.319 2.308-2.091 3.463.563 4.863 4.19 2.212 8.73 3.911 13.149 5.091" stroke-miterlimit="8.829"/></g><path d="m351.85 465.67c5.339 15.925 7.407 33.16 8.904 50.624l32.747-1.294c-.265-21.836-1.39-43.24-6.175-59.973l-36.05.863.575 9.779z" fill-rule="evenodd" stroke-miterlimit="8.83" fill="url(#1)"/><g stroke-miterlimit="8.829"><path d="m359.57 504.63l26.412-1.299 7.192-.735m-35.08-9.429l26.955-1.15 7.757-1.254m-37.11-10.538l28.07-.775 7.933-1.813m-22.525-10.723l13.154-.04 7.341-1.809m-9.97-9.984c4.292 19.793 5.807 39.984 6.647 60.27m-11.263.555c-1.231-20.21-3.384-40.43-7.57-60.64" fill="none"/><path d="m346.97 432c-.766 7.989-3.194 14.44-5.909 19.722-2.172 4.226-1.919 9.305-.757 14.564 9.747.816 19.494 1.308 29.24.91-2.638-7.946-3.573-15.845-3.817-24.19-.145-4.931-1.563-9.681-3.761-14.207-5.152.932-10.197 2.039-14.996 3.205z" fill-rule="evenodd" fill="url(#0)"/></g><path d="m346.95 432.16l.199-.199m-.598 3.294l4.121-4.126m-4.763 7.465l8.226-8.237m-9.201 11.909l12.601-12.618m-14.06 16.773l17.398-17.421m-19.622 22.344l21.283-21.312m-22.781 25.507l23.58-23.612m-23.904 26.632l24.621-24.654m-24.551 27.28l25.17-25.2m-24.884 27.613l25.388-25.422m-24.968 27.698l25.33-25.365m-23.23 25.951l23.41-23.442m-20.906 23.63l21-21.03m-18.486 21.21l18.635-18.661m-16.09 18.812l16.299-16.321m-13.739 16.452l14-14.02m-11.416 14.13l11.74-11.756m-9.125 11.833l9.507-9.52m-6.861 9.567l7.307-7.317m-4.626 7.327l5.132-5.138m-2.415 5.111l2.979-2.982m-.216 2.911l.838-.839m-6.752-36.39l-1.114-1.115m2.794 5.49l-5.056-5.063m5.995 8.699l-8.241-8.252m8.703 11.412l-10.931-10.945m11.07 13.785l-13.285-13.303m13.419 16.13l-15.612-15.633m15.821 18.536l-18-18.02m18.303 21.02l-19.56-19.587m19.987 22.71l-20.321-20.349m20.907 23.63l-21.33-21.359m22.12 24.85l-22.635-22.666m23.718 26.447l-24.306-24.339m22.45 25.18l-23.11-23.14m20.471 23.19l-21.19-21.22m18.519 21.24l-19.304-19.33m16.589 19.306l-17.428-17.452m14.676 17.391l-15.566-15.587m12.778 15.491l-13.584-13.603m10.763 13.473l-11.319-11.335m8.467 11.173l-8.743-8.755m5.86 8.563l-5.832-5.839m2.925 5.623l-2.566-2.569" stroke-miterlimit="10" stroke-width=".4" fill="none"/><g stroke-miterlimit="8.829"><g fill-rule="evenodd"><path d="m356.52 454.61l18.431-.837m.068 1.498l-18.431.843m119-6.879l2.536-2.47 10.847 2.545-10.572 3.519-2.749-2.229-101.57 4.722-3.438 3.77-8.4.382 3.452-3.786-1.485.068-3.452 3.786-7.645.348 4.171-4.575-4.568-4.178 7.614-.346 3.781 3.458 1.485-.068-3.782-3.458 8.401-.382 3.798 3.473 101.57-4.578z" fill="#e6e6e6"/><path d="m335.7 462.12c1.949 1.113 4.03 1.614 6.235.92 1.101-.222 6.449-1.511 8.647-4.06 2.762 2.192 4.858.689 8.731-3.381 1.209-1.27 1.124-3.108-.002-4.292-1.167-1.226-2.848-1.829-4.291-2.712-1.68-1.028-4.2-2.158-5.853-1.271-4.083 2.192-7.301 5-11.744 5.504l-8.375.94c-.129 3.389.781 6.606 1.638 9.88z" fill="#edc480"/></g><path d="m352.83 449.19l3.604 1.194c1.85.612.889 4.599-.157 5.633l-2.366 2.337c-1.156 1.142-2.356.898-3.478.273" fill="none"/></g><path d="m351.33 450.54l2.525.663c1.819.477.416 3.993-.477 4.806l-3 2.736c-1.819.954-3.671-.601-2.039-2.384.657-.718 1.038-1.238 1.964-2.129-.302-.012-.768-.115-.978-.309-1.389 1.998-4.194 3.686-6.425 4.698-2.89 1.312-5.818.95-8.598.16" stroke-miterlimit="8.39" fill="none"/></g><g fill="none"><path d="m415.62 582.44c-14.987-.377-29.769 3.807-45.06 6.3-16.965 2.766-34.924 4.581-48.36-2.756m94.68-.101c-15.418-.655-30.599 3.695-46.32 6.258-17.539 2.859-35.973 4.799-49.563-3.448" stroke="#de212b" stroke-miterlimit="10" stroke-width="1.626"/><g stroke="#000"><g stroke-miterlimit="8.829"><path d="m405.32 478.45c1.603.81 3.64 1.554 5.03 1.568 14.646-2.732 29.29-7.747 43.938-12.987-1.699-4.551-2.272-9.454-1.853-13.65-19.929 1.373-32.534.305-39.79 2.026-1.654-.674-4.058-1.213-6.082-1.427-2.934 8.401-2.831 16.496-1.245 24.471z"/><path d="m449.91 468.49c-2.161-4.778-3.215-9.668-2.654-14.719m-21.742 22.589c-2.195-7.291-3.114-14.787-1.226-22.08m-11.534 1.022c-.595 1.465-.97 3.442-.408 5.315m-24.862-5.369c1.952.842 3.416 2.172 4.391 3.991m27.82 18.652c-2.063-7.836-2.769-15.57-1.021-23.407m-11.898-1.108c-4.307 11.772-2.598 22.935.868 34"/></g><g stroke-miterlimit="7.831"><path d="m376.92 439.77c-1.419.34-2.292-.974-2.02-2.452"/><path d="m380.26 439.78c.025 5.04-4.03 4.327-4.353 6.505"/></g></g></g><g stroke="#000"><g stroke-miterlimit="8.829"><g fill="#de212b" fill-rule="evenodd"><path d="m345.96 515.72c12.561-18.298 24.06-39.465 33.751-61.41h-5.314c-9.317 20.824-20.334 40.939-32.603 59.16l2.898 2.272 1.268-.021z"/><path d="m344.78 515.63l48.681-1.738v4.607l-48.681 1.738v-4.607z"/></g><g fill="none"><path d="m375.47 514.49l.174 4.527m4.977-4.643l.174 4.527m.984-4.585l.174 4.527"/><path d="m391.83 370.68l5.558-4.468.393 1.12-5.462 4.485-34.34 78.42c-.156-.099-.315-.194-.476-.286l34.33-79.27zm12.479 177.44l5.51 3.756.243-1.304-5.264-3.59-47.31-89.55c-.14.132-.276.259-.412.382l47.23 90.3z"/></g></g><g fill="none"><path d="m372.21 429.12c2.594-1.035 4.721-1.851 6.451-.719" stroke-miterlimit="7.831"/><path d="m473.19 455.02l-2.774.665m-3.846.921l-.499.12-3.53-.139c-.844 1.425-.676 2.911 1.041 3.694m6.645-8.713l-1.962.402m4.084 7.468l-5.743.951-3.104-.187c-1.655 1.278-.921 2.964.84 3.734m6.405-.482l-3.681.536-2.644-.094c-1.094.87-.84 2.69.64 3.172m-5.994-7.189c1.685-.51 2.891-2.426 3-4.306.84-.134 1.68-.541 2.52-1.223 1.782 2.194 3.159 3.956 5.401 3.247 1.013-.321.938-1.233.326-1.982-.941-1.152-1.846-3.134-2.269-4.326-.147-.413-.311-.711-.51-.925" stroke-miterlimit="8.829"/></g></g><g fill-rule="evenodd"><path d="m371.7 431.89l4.059-2.683 1.455 2.607-5.514.076" stroke-miterlimit="7.831"/><path d="m355.18 677.61l.441 1.29c-11.237 6.838-22.453 3.799-33.791-3.382l-1.309 4.909-12.362-3.714 1.652-5.846-.038-.176 12.284 3.146c11.11 7.04 22.08 10.04 33.12 3.773" fill="#f5ed2b"/><path d="m321.3 624.19c8.118-1.192 15.536-1.263 24.933-5.407l3.565 7.05c-5.385 13.13-11.226 22.716-15.179 36.37 3.461 3.123 3.01 10.681 11.08 13.864 2.336.922 5.387 1.479 9.455 1.453l.033.094c-11.04 6.27-22.01 3.266-33.12-3.773l-12.284-3.146v-.002c-.798-3.837.936-8.854 3.603-10.973-.772-3.547.023-5.716 2.496-7.528-1.617-3.375-.094-6.04 1.851-11.368 1.551-5.375 3.229-11.22 3.575-16.632" fill="#de212b"/><path d="m444.98 668.77c-8.278 9.746-21.06 9.418-33.997 6.616l-12.678 1.283.002.002.073.153.387 6.397 12.97-.776-.387-5.392c13.202 2.857 26.24 3.143 34.494-7.217l-.863-1.067z" fill="#f5ed2b"/><path d="m389.56 629.08c7.07-4.482 14.14-10.22 21.595-17.397l5.808 5.428c-.55 14.28-.405 28.56.581 42.84 4.697 1.605 11.636 9.961 21.992 9.652 1.7-.051 3.493-.332 5.382-.918l.062.077c-8.278 9.746-21.06 9.418-33.997 6.616l-12.678 1.283c-1.447-3.08-2.064-6.277-.893-9.73-1.733-2.587-2.314-5.366-1.743-8.336-2.695-2.63-3.575-7.667-3.579-13.376-.393-5.62-.985-10.904-2.529-16.14" fill="#de212b"/></g><g fill="none"><path d="m320.27 630.1c7.801-1.205 14.755-.964 22.985-4.453l4.241 5.062m43.52 4.949c6.959-3.845 13.351-8.843 19.926-14.995l5.759 3.316" stroke="#f5ed2b" stroke-miterlimit="10" stroke-width="1.626"/><g stroke="#000" stroke-miterlimit="8.829"><path d="m309.76 670.69l12.293 3.148c11.161 7.07 22.18 10.07 33.26 3.694m-42.08-17.86l5.666 1.164m2.394-36.647c8.118-1.192 15.536-1.263 24.933-5.407l3.565 7.05c-5.385 13.13-11.226 22.716-15.179 36.37 4.464 4.03 2.411 15.432 20.531 15.317l.473 1.383c-11.237 6.838-22.453 3.799-33.791-3.382l-1.309 4.909-12.362-3.714 1.652-5.846c-.89-3.858.856-8.999 3.564-11.152-.772-3.547.023-5.716 2.496-7.528-1.617-3.375-.094-6.04 1.851-11.368 1.551-5.375 3.229-11.22 3.575-16.632zm5.541 36.738c2.654.943 5.308 1.512 7.961 1.258m-18.91-10.01l4.03 1.025"/><path d="m398.27 676.67l12.71-1.286c12.996 2.813 25.828 3.134 34.1-6.739m-47.821-1.701l5.759-.865m-7.343-7.497l7.199-.577m4.32 3.749c3.504.26 7.01-.141 10.511-1.875m-28.15-30.793c7.07-4.482 14.14-10.22 21.595-17.397l5.808 5.428c-.55 14.28-.405 28.56.581 42.84 5.467 1.869 13.976 12.889 27.373 8.734l.926 1.144c-8.258 10.361-21.292 10.08-34.494 7.217l.387 5.392-12.97.776-.387-6.397c-1.499-3.128-2.158-6.375-.968-9.886-1.733-2.587-2.314-5.366-1.743-8.336-2.695-2.63-3.575-7.667-3.579-13.376-.393-5.62-.985-10.904-2.529-16.14z"/><path d="m418.1 470.47l34.907-8.407"/></g></g><g stroke="#000"><g fill="#e6e6e6" fill-rule="evenodd" stroke-miterlimit="8.829"><path d="m427.4 465.55l2.634-.584 1.025 4.627-2.634.585-1.025-4.628z"/><path d="m440.64 462.4l2.634-.585 1.025 4.627-2.634.585-1.025-4.628z"/></g><g stroke-miterlimit="8.39"><path d="m302.89 474.01c6.06-4.853 20.951-6.718 27.605-10.897" fill="none"/><g fill="#e6e6e6" fill-rule="evenodd"><path d="m320.28 465.26l2.549-.885 2.315 2.93-2.549.886z"/><path d="m310.3 468.4l2.549-.885 2.315 2.93-2.549.886z"/></g></g></g></g></svg>