<svg xmlns="http://www.w3.org/2000/svg" width="300" height="359" viewBox="0 0 84.666667 101.31778" fill-rule="evenodd"><path d="m62.58 48.41c.828 0 1.5.672 1.5 1.5v1.5c0 .828-.672 1.5-1.5 1.5h-1.5v-4.5h1.5m0 6c1.657 0 3-1.343 3-3v-1.5c0-1.657-1.343-3-3-3h-3v7.5h3m-6-7.5h1.5v7.5h-1.5v-7.5m-3 0h1.5v7.5h-1.5l-3-4.709v4.709h-1.5v-7.5h1.5l3 4.709v-4.709m-22.5 0h4.5v1.5h-3v1.5h3v1.5h-3v1.5h3v1.5h-4.5v-7.5m-6 0h1.5v6h3v1.5h-4.5v-7.5m15.75 6h1.5c1.242 0 2.25-1.01 2.25-2.25 0-1.242-1.027-2.245-2.25-2.25h-1.5v1.5h1.5c.414 0 .75.336.75.75 0 .414-.336.75-.75.75h-1.5v1.5m1.5-7.5c2.899 0 5.25 2.351 5.25 5.25 0 2.899-2.351 5.25-5.25 5.25-2.899 0-5.25-2.351-5.25-5.25 0-2.899 2.351-5.25 5.25-5.25m0 1.5c2.071 0 3.75 1.68 3.75 3.75 0 2.071-1.68 3.75-3.75 3.75-2.071 0-3.75-1.679-3.75-3.75 0-2.07 1.679-3.75 3.75-3.75" fill="#a90000"/><path d="m0 66.57c.099.847.226 1.687.384 2.517 3.482 18.307 20.941 32.23 41.949 32.23 21.01 0 38.467-13.923 41.949-32.23.158-.831.285-1.671.385-2.519v-66.57h-84.67v66.57"/><path d="m81.61 76.26c1.302-3.071 2.184-6.333 2.584-9.727v-66.07h-41.862v100.38c17.891 0 33.18-10.202 39.28-24.586" fill="#d40028"/><path d="m42.33.466h-41.861v66.07c.4 3.394 1.283 6.656 2.585 9.728 6.099 14.383 21.386 24.585 39.28 24.585v-100.38" fill="#006bff"/><path transform="matrix(.56444 0 0 .56364-13.488-30.433)" fill="#fff" d="m80.36 172.04l18.54 60.87 18.54-60.87v-117.22h-37.08z"/></svg>