<svg xmlns="http://www.w3.org/2000/svg" width="300" height="360" viewBox="0 0 84.666667 101.6" fill-rule="evenodd"><g transform="matrix(1.43839 0 0 1.44113-108.7-163.21)"><path d="m105 113.25c10.258 0 19.549 1.772 26.28 4.636 1.107.471 2.146.973 3.109 1.501v14.417c-2.191 1.684-3.603 4.33-3.603 7.306 0 2.976 1.412 5.622 3.603 7.306 0 5.972.59 12.27-2.603 17.664-3.223 5.446-9.394 8.111-14.952 10.512-4.238 1.831-8.736 3.568-11.833 7.157-3.097-3.589-7.595-5.326-11.833-7.157-5.558-2.401-11.729-5.066-14.952-10.512-3.192-5.394-2.603-11.692-2.603-17.664 2.191-1.684 3.603-4.33 3.603-7.306 0-2.976-1.412-5.623-3.603-7.306v-14.417c.963-.528 2-1.03 3.109-1.501 6.73-2.864 16.02-4.636 26.28-4.636"/><path d="m105 113.71c-9.504 0-20.365 1.345-28.93 5.953v13.926c2.27 1.831 3.601 4.6 3.602 7.526 0 2.92-1.347 5.708-3.602 7.527-.019 5.8-.555 11.984 2.539 17.211 3.177 5.369 9.274 7.964 14.74 10.325 4.145 1.79 8.51 3.487 11.652 6.892 3.142-3.405 7.507-5.102 11.652-6.892 5.466-2.361 11.562-4.956 14.74-10.325 3.094-5.227 2.558-11.411 2.539-17.211-2.255-1.819-3.602-4.607-3.602-7.527 0-2.927 1.331-5.695 3.602-7.526v-13.926c-8.566-4.608-19.426-5.953-28.93-5.953" fill="#3c82c2"/><path d="m125.88 171.49c-5.351-1.628-4.622-10.763-11.24-10.763h-19.377c-6.59 0-5.895 9.06-11.172 10.743 2.857 1.952 6.159 3.366 9.258 4.704 4.145 1.79 8.51 3.487 11.652 6.892 3.142-3.405 7.507-5.102 11.652-6.892 3.088-1.334 6.377-2.742 9.228-4.684" fill="#41a147"/><g fill-rule="nonzero"><g fill="#fff"><path d="m83.31 170.92c2.528-.517 3.696-2.769 4.861-5.02 1.521-2.938 3.04-5.87 7.089-5.87h19.377c4.05 0 5.568 2.933 7.089 5.87 1.177 2.273 2.356 4.548 4.938 5.03-.505.374-1.027.729-1.562 1.067-2.275-.939-3.447-3.201-4.617-5.462-1.324-2.557-2.646-5.11-5.848-5.11h-19.377c-3.202 0-4.524 2.553-5.848 5.11-1.16 2.24-2.323 4.483-4.559 5.437-.528-.335-1.044-.687-1.543-1.058"/><path d="m102.19 122.19v2.57h1.1v-2.57h3.32v2.57h1.1v-2.57h3.31v2.57h1.1v-2.57h3.31v38.91h-20.96v-38.91h3.31v2.57h1.1v-2.57z"/></g><path d="m114.68 127.58h-19.466v32.496h19.466zm-19.466-.75h19.466v-3.884h-1.815v2.564h-2.599v-2.564h-1.814v2.564h-2.599v-2.565h-1.814v2.565h-2.599v-2.564h-1.814v2.564h-2.599v-2.564h-1.815z" fill="#df212c"/></g><path d="m108.12 136.12v8.435.75h-6.329v-9.185c0-1.748 1.417-3.165 3.165-3.165 1.748 0 3.165 1.417 3.165 3.165" fill="#fff"/><path d="m107.37 136.12v8.435h-4.83v-8.435c0-1.333 1.082-2.415 2.415-2.415 1.334 0 2.415 1.082 2.415 2.415"/></g></svg>