<?xml version="1.0" encoding="UTF-8" standalone="no"?>
<!-- Created with Inkscape (http://www.inkscape.org/) -->
<svg
   xmlns:dc="http://purl.org/dc/elements/1.1/"
   xmlns:cc="http://creativecommons.org/ns#"
   xmlns:rdf="http://www.w3.org/1999/02/22-rdf-syntax-ns#"
   xmlns:svg="http://www.w3.org/2000/svg"
   xmlns="http://www.w3.org/2000/svg"
   xmlns:sodipodi="http://sodipodi.sourceforge.net/DTD/sodipodi-0.dtd"
   xmlns:inkscape="http://www.inkscape.org/namespaces/inkscape"
   id="svg2"
   sodipodi:version="0.32"
   inkscape:version="0.46"
   width="1235.4683"
   height="1175.0001"
   version="1.0"
   sodipodi:docbase="C:\Documents and Settings\xy\Bureau"
   sodipodi:docname="Red_star.svg"
   inkscape:output_extension="org.inkscape.output.svg.inkscape">
  <metadata
     id="metadata7">
    <rdf:RDF>
      <cc:Work
         rdf:about="">
        <dc:format>image/svg+xml</dc:format>
        <dc:type
           rdf:resource="http://purl.org/dc/dcmitype/StillImage" />
      </cc:Work>
    </rdf:RDF>
  </metadata>
  <defs
     id="defs5">
    <inkscape:perspective
       sodipodi:type="inkscape:persp3d"
       inkscape:vp_x="0 : 587.50006 : 1"
       inkscape:vp_y="0 : 1000 : 0"
       inkscape:vp_z="1235.4683 : 587.50006 : 1"
       inkscape:persp3d-origin="617.73413 : 391.66671 : 1"
       id="perspective12" />
    <clipPath
       id="clip0">
      <rect
         id="rect2451"
         height="331"
         width="331" />
    </clipPath>
    <inkscape:perspective
       id="perspective2465"
       inkscape:persp3d-origin="206.875 : 137.91667 : 1"
       inkscape:vp_z="413.75 : 206.875 : 1"
       inkscape:vp_y="0 : 1000 : 0"
       inkscape:vp_x="0 : 206.875 : 1"
       sodipodi:type="inkscape:persp3d" />
  </defs>
  <sodipodi:namedview
     inkscape:window-height="968"
     inkscape:window-width="1280"
     inkscape:pageshadow="2"
     inkscape:pageopacity="0.0"
     borderopacity="1.0"
     bordercolor="#666666"
     pagecolor="#ffffff"
     id="base"
     inkscape:zoom="0.14375"
     inkscape:cx="181.6379"
     inkscape:cy="6.5313996"
     inkscape:window-x="-4"
     inkscape:window-y="-4"
     inkscape:current-layer="svg2"
     width="1919.04px"
     height="1825.46px"
     showgrid="false"
     inkscape:showpageshadow="false" />
  <g
     transform="matrix(0.3817807,-1.1750001,1.1750001,0.3817807,-3062.767,-459.1341)"
     id="g3069"
     style="fill:#cc0000;fill-opacity:1">
    <path
       sodipodi:nodetypes="cccc"
       id="path3071"
       d="M 376.15009,3535.8536 L -432.86689,2948.0683 L 59.809394,3120.6084 L 376.15009,3535.8536 z"
       style="fill:#cc0000;fill-opacity:1;fill-rule:nonzero;stroke:none;stroke-width:2;stroke-linecap:round;stroke-linejoin:round;stroke-miterlimit:4;stroke-dasharray:none;stroke-dashoffset:0;stroke-opacity:1" />
    <path
       style="fill:#cc0000;fill-opacity:1;fill-rule:nonzero;stroke:none;stroke-width:2;stroke-linecap:round;stroke-linejoin:round;stroke-miterlimit:4;stroke-dasharray:none;stroke-dashoffset:0;stroke-opacity:1"
       d="M 567.13309,2948.0683 L -432.86689,2948.0683 L 59.754594,3133.7311 L 567.13309,2948.0683 z"
       id="path3073"
       sodipodi:nodetypes="cccc" />
    <path
       style="fill:#cc0000;fill-opacity:1;fill-rule:nonzero;stroke:none;stroke-width:2;stroke-linecap:round;stroke-linejoin:round;stroke-miterlimit:4;stroke-dasharray:none;stroke-dashoffset:0;stroke-opacity:1"
       d="M -241.88386,3535.8536 L 567.13309,2948.0683 L 58.470094,3089.8646 L -241.88386,3535.8536 z"
       id="path3075"
       sodipodi:nodetypes="cccc" />
    <path
       sodipodi:nodetypes="cccc"
       id="path3077"
       d="M 376.15009,3535.8536 L 67.133094,2584.7971 L 15.036094,3128.8134 L 376.15009,3535.8536 z"
       style="fill:#cc0000;fill-opacity:1;fill-rule:nonzero;stroke:none;stroke-width:2;stroke-linecap:round;stroke-linejoin:round;stroke-miterlimit:4;stroke-dasharray:none;stroke-dashoffset:0;stroke-opacity:1" />
    <path
       style="fill:#cc0000;fill-opacity:1;fill-rule:nonzero;stroke:none;stroke-width:2;stroke-linecap:round;stroke-linejoin:round;stroke-miterlimit:4;stroke-dasharray:none;stroke-dashoffset:0;stroke-opacity:1"
       d="M -241.88389,3535.8536 L 67.133094,2584.7971 L 99.554094,3123.8944 L -241.88389,3535.8536 z"
       id="path3079"
       sodipodi:nodetypes="cccc" />
  </g>
  <path
     style="fill:none;stroke:#cc0000;stroke-width:0.1;stroke-linecap:butt;stroke-linejoin:miter;stroke-miterlimit:10"
     d="M 446.67391,508.63055 L 777.67391,508.63055 L 777.67391,839.63055 L 446.67391,839.63055 L 446.67391,508.63055 z"
     id="path2454" />
  <path
     style="fill:none;stroke:#ffd700;stroke-width:0.1;stroke-linecap:butt;stroke-linejoin:miter;stroke-miterlimit:10"
     d="M -516.02764,861.73216 C -485.74727,872.51877 -457.72017,889.52829 -434.07985,911.2986 C -411.4046,932.43013 -392.16489,958.31764 -383.0082,988.22844 C -376.802,1007.4619 -378.07901,1028.2458 -382.18157,1047.7712 C -386.27979,1065.9605 -394.28285,1083.299 -405.93636,1097.89 C -392.71948,1110.8125 -379.62924,1123.8643 -366.37804,1136.7528 C -368.14281,1143.3557 -370.84735,1150.1038 -376.27675,1154.555 C -380.81662,1158.4737 -386.62886,1160.3683 -392.34876,1161.7928 C -405.28981,1148.3477 -418.2965,1134.9701 -431.24483,1121.5317 C -447.37419,1132.5503 -466.83849,1138.3588 -486.27545,1139.2172 C -510.75676,1140.2993 -535.22924,1132.408 -555.20421,1118.391 C -565.97551,1110.9882 -575.68424,1102.1367 -584.59073,1092.5967 C -586.11618,1094.0973 -587.78105,1095.4437 -589.49297,1096.7262 C -589.06845,1099.9275 -588.60849,1103.1247 -588.16709,1106.3267 C -591.50971,1106.519 -594.84683,1107.3364 -597.65544,1109.2199 C -606.32115,1114.7117 -612.33888,1123.2369 -618.48966,1131.2403 C -626.11672,1141.1419 -632.97187,1152.1325 -643.60105,1159.146 C -650.04248,1163.1252 -659.57401,1161.4433 -663.51883,1154.7548 C -667.6447,1148.1926 -665.26467,1139.7228 -660.82076,1133.9663 C -649.9596,1118.0032 -630.56752,1111.1807 -618.42656,1096.4738 C -615.26882,1092.5225 -612.88089,1087.9428 -611.69628,1083.0127 C -608.59528,1083.2109 -605.49396,1083.4125 -602.39189,1083.6145 C -599.76447,1080.9496 -597.12424,1078.2982 -594.50684,1075.6247 C -591.58858,1075.5493 -588.6145,1075.8612 -585.73326,1075.2986 C -582.72571,1072.6459 -580.32802,1069.3845 -577.61188,1066.4464 C -574.6368,1067.2799 -572.94617,1070.0705 -570.79318,1072.0633 C -557.48581,1084.183 -542.26816,1094.745 -524.92371,1100.1312 C -502.74433,1107.2365 -478.03461,1104.9792 -457.22962,1094.6404 C -498.90166,1051.7359 -540.43418,1008.693 -582.04621,965.72912 C -591.37787,975.55438 -600.6732,985.41733 -610.13802,995.11439 C -621.69722,983.32228 -633.36927,971.64145 -644.98708,959.90741 C -623.08876,937.9873 -600.94553,916.31329 -578.92648,894.51449 C -559.88988,899.69699 -540.87769,904.97061 -521.82314,910.09125 C -534.84403,921.91247 -548.08009,933.4938 -561.14655,945.26431 C -517.72795,987.83072 -474.52416,1030.622 -431.03595,1073.1202 C -420.53774,1060.3471 -414.62944,1044.0828 -413.82567,1027.6163 C -412.34474,1005.8281 -417.38648,984.15332 -424.56854,963.71496 C -434.72089,936.74176 -454.13083,914.53549 -475.22701,895.43339 C -488.41234,883.71374 -502.00135,872.43164 -516.02764,861.73216 z"
     id="path2458" />
  <path
     style="fill:#ffd700;fill-rule:nonzero;stroke:none"
     d="M 611.07013,451.29737 C 652.58268,466.08516 691.00614,489.40418 723.41559,519.24996 C 754.50198,548.22001 780.87846,583.71022 793.43173,624.71611 C 801.94005,651.08402 800.18935,679.57744 794.56499,706.34565 C 788.94658,731.28209 777.97486,755.05201 761.99861,775.05553 C 780.11815,792.77149 798.06408,810.66472 816.23067,828.33394 C 813.81128,837.38625 810.10352,846.63735 802.66014,852.73981 C 796.43625,858.11198 788.46802,860.7095 780.62639,862.6624 C 762.88499,844.22984 745.0536,825.8901 727.30223,807.46687 C 705.18985,822.5727 678.50547,830.53567 651.85858,831.71262 C 618.29618,833.19611 584.7459,822.37762 557.36142,803.16102 C 542.59462,793.01237 529.28454,780.8775 517.07428,767.79874 C 514.98298,769.85583 512.70055,771.7018 510.35361,773.46003 C 510.9356,777.84882 511.56618,782.23185 512.17131,786.62173 C 507.58878,786.88537 503.01379,788.00584 499.16336,790.588 C 487.28319,798.11692 479.03325,809.8046 470.6009,820.77677 C 460.14466,834.35127 450.74667,849.41858 436.17471,859.03366 C 427.34389,864.48904 414.27674,862.18326 408.86863,853.01373 C 403.21232,844.01735 406.47519,832.40577 412.56753,824.51382 C 427.45752,802.62951 454.04289,793.27627 470.68741,773.11387 C 475.01648,767.69701 478.29018,761.41852 479.91421,754.65965 C 484.1655,754.93124 488.41722,755.20762 492.66997,755.48455 C 496.272,751.83113 499.8916,748.19636 503.4799,744.53107 C 507.48065,744.42769 511.55794,744.85531 515.50794,744.08405 C 519.63111,740.44741 522.9182,735.9762 526.64186,731.94815 C 530.72052,733.09083 533.03827,736.9166 535.98989,739.64866 C 554.23349,756.26406 575.09596,770.74393 598.87415,778.12794 C 629.28074,787.86902 663.15627,784.77439 691.67865,770.60052 C 634.54881,711.78104 577.61024,652.77177 520.56266,593.87091 C 507.76952,607.34075 495.02619,620.86225 482.05049,634.15634 C 466.20353,617.99007 450.20186,601.97636 434.27454,585.8897 C 464.29581,555.83855 494.65284,526.1248 524.83963,496.23996 C 550.93765,503.34486 577.00221,510.57467 603.12485,517.59476 C 585.274,533.80093 567.12816,549.67824 549.21483,565.81489 C 608.73911,624.17086 667.96889,682.83509 727.58859,741.09752 C 741.981,723.58647 750.08092,701.28907 751.18284,678.71451 C 753.21311,648.84425 746.30119,619.12937 736.45502,591.10962 C 722.53676,554.13099 695.92691,523.68754 667.00532,497.49972 C 648.92903,481.43279 630.29932,465.96571 611.07013,451.29737 z"
     id="path2460" />
</svg>
