<?xml version="1.0" encoding="UTF-8" standalone="no"?>
<svg xmlns:rdf="http://www.w3.org/1999/02/22-rdf-syntax-ns#" xmlns="http://www.w3.org/2000/svg" version="1.0" xmlns:cc="http://creativecommons.org/ns#" xmlns:dc="http://purl.org/dc/elements/1.1/" viewBox="0 0 1235.5 1175">
<g transform="matrix(.38178 -1.175 1.175 .38178 -3062.8 -459.13)" fill="#c00">
<path d="m376.15 3535.9l-809.02-587.8 492.68 172.5 316.34 415.3z"/>
<path d="m567.13 2948.1h-1e3l492.62 185.6 507.38-185.6z"/>
<path d="m-241.88 3535.9l809.01-587.8-508.66 141.8-300.35 446z"/>
<path d="m376.15 3535.9l-309.02-951.1-52.094 544 361.11 407.1z"/>
<path d="m-241.88 3535.9l309.01-951.1 32.424 539.1-341.43 412z"/>
</g>
<path d="m446.67 508.63h331v331h-331v-331z" stroke="#c00" stroke-miterlimit="10" stroke-width=".1" fill="none"/>
<path d="m-516.03 861.73c30.28 10.79 58.31 27.8 81.95 49.57 22.68 21.13 41.92 47.02 51.07 76.93 6.21 19.27 4.93 39.97 0.83 59.57-4.1 18.2-12.1 35.5-23.76 50.1 13.22 12.9 26.31 26 39.56 38.9-1.76 6.6-4.47 13.3-9.9 17.8-4.54 3.9-10.35 5.8-16.07 7.2-12.94-13.5-25.95-26.8-38.89-40.3-16.13 11.1-35.6 16.9-55.04 17.7-24.48 1.1-48.95-6.8-68.92-20.8-10.78-7.4-20.48-16.3-29.39-25.8-1.53 1.5-3.19 2.8-4.9 4.1 0.42 3.2 0.88 6.4 1.32 9.6-3.34 0.2-6.68 1-9.49 2.9-8.66 5.5-14.68 14-20.83 22-7.63 9.9-14.48 20.9-25.11 27.9-6.44 4-15.97 2.3-19.92-4.3-4.12-6.6-1.74-15.1 2.7-20.8 10.86-16 30.25-22.8 42.39-37.5 3.16-4 5.55-8.6 6.73-13.5 3.1 0.2 6.21 0.4 9.31 0.6 2.63-2.7 5.27-5.3 7.88-8 2.92-0.1 5.9 0.3 8.78-0.3 3-2.7 5.4-5.9 8.12-8.9 2.97 0.9 4.66 3.7 6.82 5.7 13.3 12.1 28.52 22.6 45.87 28 22.18 7.1 46.89 4.9 67.69-5.5-41.67-42.9-83.2-85.9-124.82-128.87-9.33 9.82-18.62 19.69-28.09 29.38-11.56-11.79-23.23-23.47-34.85-35.2 21.9-21.92 44.04-43.6 66.06-65.4 19.04 5.19 38.05 10.46 57.11 15.58-13.02 11.82-26.26 23.4-39.33 35.17 43.42 42.57 86.63 85.34 130.11 127.84 10.5-12.8 16.41-29 17.21-45.5 1.49-21.8-3.56-43.45-10.74-63.89-10.15-26.97-29.56-49.17-50.66-68.28-13.18-11.72-26.77-23-40.8-33.7z" stroke="#ffd700" stroke-miterlimit="10" stroke-width=".1" fill="none"/>
<path fill="#ffd700" d="m611.07 451.3c41.51 14.79 79.94 38.1 112.35 67.95 31.08 28.97 57.46 64.46 70.01 105.47 8.51 26.36 6.76 54.86 1.13 81.63-5.61 24.93-16.59 48.7-32.56 68.71 18.12 17.71 36.06 35.6 54.23 53.27-2.42 9.06-6.13 18.31-13.57 24.41-6.22 5.37-14.19 7.97-22.03 9.92-17.75-18.43-35.58-36.77-53.33-55.19-22.11 15.1-48.79 23.07-75.44 24.24-33.56 1.49-67.11-9.33-94.5-28.55-14.77-10.15-28.08-22.28-40.29-35.36-2.09 2.06-4.37 3.9-6.72 5.66 0.59 4.39 1.22 8.77 1.82 13.16-4.58 0.27-9.16 1.39-13.01 3.97-11.88 7.53-20.13 19.21-28.56 30.19-10.46 13.57-19.85 28.64-34.43 38.25-8.83 5.46-21.89 3.15-27.3-6.02-5.66-8.99-2.39-20.6 3.7-28.5 14.89-21.88 41.47-31.23 58.12-51.4 4.33-5.41 7.6-11.69 9.22-18.45 4.26 0.27 8.51 0.55 12.76 0.82 3.6-3.65 7.22-7.28 10.81-10.95 4-0.1 8.08 0.33 12.03-0.45 4.12-3.63 7.41-8.1 11.13-12.13 4.08 1.14 6.4 4.97 9.35 7.7 18.24 16.61 39.11 31.09 62.88 38.48 30.41 9.74 64.29 6.64 92.81-7.53-57.13-58.82-114.07-117.83-171.12-176.73-12.79 13.47-25.53 26.99-38.51 40.29-15.85-16.17-31.85-32.18-47.78-48.27 30.03-30.05 60.38-59.77 90.57-89.65 26.1 7.1 52.16 14.33 78.28 21.35-17.85 16.21-35.99 32.09-53.91 48.22 59.53 58.36 118.76 117.03 178.38 175.29 14.39-17.51 22.49-39.81 23.59-62.39 2.03-29.87-4.88-59.58-14.72-87.6-13.92-36.98-40.53-67.42-69.45-93.61-18.08-16.07-36.71-31.53-55.94-46.2z"/>
</svg>
