<?xml version="1.0" encoding="UTF-8" standalone="no"?>
<!-- Created with Inkscape (http://www.inkscape.org/) -->

<svg
   xmlns:dc="http://purl.org/dc/elements/1.1/"
   xmlns:cc="http://creativecommons.org/ns#"
   xmlns:rdf="http://www.w3.org/1999/02/22-rdf-syntax-ns#"
   xmlns:svg="http://www.w3.org/2000/svg"
   xmlns="http://www.w3.org/2000/svg"
   version="1.1"
   width="102.552mm"
   height="62.9972mm"
   viewBox="0 0 7370 4527"
   id="svg2"
   xml:space="preserve"
   style="fill-rule:evenodd"><metadata
   id="metadata39"><rdf:RDF><cc:Work
       rdf:about=""><dc:format>image/svg+xml</dc:format><dc:type
         rdf:resource="http://purl.org/dc/dcmitype/StillImage" /><dc:title></dc:title></cc:Work></rdf:RDF></metadata>
 <defs
   id="defs4">
  <style
   type="text/css"
   id="style6" />
 </defs>
 <g
   id="Слой_x0020_1">
  <metadata
   id="CorelCorpID_0Corel-Layer" />
  <polygon
   points="4320,1103 7370,0 143,0 143,4527 4320,4527 "
   id="polygon10"
   style="fill:#e81b18" />
  <polygon
   points="124,0 124,4527 143,4527 143,0 "
   id="polygon12"
   style="fill:#b26a51" />
  <polygon
   points="2,0 0,4527 124,4527 124,0 "
   id="polygon14"
   style="fill:#d35435" />
  <g
   id="_265443576">
   <polygon
   points="2062,687 2094,531 3207,787 3338,860 3208,883 "
   id="polygon17"
   style="fill:#fefefe" />
   <path
   d="m 1609,576 c -37,-7 -60,-43 -53,-80 7,-37 43,-60 80,-53 27,6 47,27 53,52 l 318,65 77,-177 41,11 -88,422 -48,-5 -1,-194 -312,-64 c -15,19 -41,29 -66,24 z"
   id="path19"
   style="fill:#fefefe" />
   <path
   d="m 1971,1376 -16,3 c -39,6 -107,-47 -138,-68 -5,-5 -42,-9 -66,-41 -28,-37 -39,-16 -70,-65 -21,-34 -87,-117 -96,-130 -6,0 -87,-47 -43,-111 4,-6 35,-79 35,-87 4,-2 35,-64 45,-87 8,-19 47,-56 61,-68 14,-5 53,-55 77,-68 0,-6 5,-54 8,-55 2,-23 39,-10 44,-12 -4,-17 -34,-79 -17,-87 -6,-18 89,-36 109,-53 17,-6 45,6 67,10 10,2 33,9 37,19 18,48 -12,67 3,89 11,-1 22,10 21,22 0,0 -14,13 -20,18 1,8 3,10 -4,16 -45,34 -61,39 -103,78 -4,24 -69,97 -76,130 -13,59 -14,41 -60,101 -56,73 108,152 212,243 4,4 3,2 8,2 23,35 29,-14 50,101 1,4 9,43 9,45 -6,3 -62,53 -78,55 z"
   id="path21"
   style="fill:#fefefe" />
   <path
   d="m 1966,1153 c 0,0 -64,-73 -182,-145 -4,-24 -14,-44 -14,-44 0,0 27,-44 42,-83 7,0 18,1 26,1 7,-106 70,-169 98,-194 7,-3 31,-14 40,-22 l -2,153 73,15 28,-139 c 129,22 1108,194 1121,194 29,0 172,-23 172,-23 0,0 -117,-78 -151,-90 -22,-8 -994,-227 -1107,-253 l 29,-142 -68,-15 c 0,0 -32,75 -47,108 -1,-5 -9,-27 -28,-31 -32,-7 -39,10 -40,11 -2,-2 -6,-16 -33,-13 -25,2 -27,12 -27,12 0,0 -10,-12 -36,0 -18,8 -20,17 -20,17 0,0 -15,-7 -35,2 -8,3 -19,12 -24,24 l -72,-15 c -1,-2 -5,-12 -6,-14 -12,-24 -33,-43 -61,-49 -48,-10 -95,23 -105,73 -10,50 20,99 68,108 28,6 56,-3 76,-22 2,-1 7,-7 8,-8 l 61,12 c -2,12 -6,32 6,49 -28,25 -95,93 -161,164 3,5 8,10 14,15 -13,14 -54,69 -68,140 -10,20 -15,30 -22,45 l 2,34 90,98 c 52,57 47,78 92,124 34,36 69,44 100,74 279,278 392,-215 164,-170 z m 120,-556 1106,234 -1110,-217 -11,56 c 0,0 1107,193 1128,195 22,2 118,-11 118,-11 0,0 -82,-47 -107,-57 -21,-8 -1113,-255 -1113,-255 l 0,0 -11,53 z m -476,-21 c -34,-7 -56,-42 -48,-79 7,-36 41,-60 75,-53 34,7 55,42 48,79 -7,36 -41,60 -75,53 z m 411,596 c 4,0 7,0 11,0 10,12 19,28 27,43 3,7 6,13 9,18 -30,-1 -61,-2 -90,-3 4,-7 10,-16 16,-25 9,-12 19,-24 27,-33 z m -56,6 c 8,-2 21,-3 34,-5 -6,7 -12,15 -18,23 -9,13 -17,25 -21,33 -13,0 -25,-1 -36,-1 6,-11 16,-23 25,-33 6,-7 12,-13 16,-17 z m -196,-149 c 72,36 149,107 182,141 -14,13 -35,36 -44,58 -3,0 -20,65 -48,82 -22,13 -57,-21 -57,-14 -22,-16 -67,-40 -109,-83 -8,-8 -39,-56 -56,-80 10,-25 42,-53 75,-73 18,-11 35,-20 48,-27 4,-2 7,-3 9,-5 z m 256,-496 61,-139 26,6 -83,407 -31,-6 2,-157 c 64,-50 47,-68 16,-88 2,-6 6,-17 8,-22 z m -47,-70 c 6,-1 16,1 20,4 14,10 5,58 1,76 -12,-11 -30,-37 -35,-38 0,-14 -4,-40 14,-42 z m -13,60 c 8,2 13,25 56,54 13,9 5,29 -34,59 -7,6 -39,45 -87,34 -69,-16 -37,-60 -17,-66 43,-13 55,6 60,12 4,4 7,5 10,7 8,5 15,5 8,-1 -8,-7 -9,-15 5,-16 8,-1 15,-1 19,-3 5,-2 9,-6 7,-9 -3,-3 -17,-2 -21,-7 -38,-43 -17,-66 -6,-64 z m -56,-54 c 6,-14 38,-9 39,8 2,12 3,28 2,34 -11,9 -19,35 -4,61 6,15 -4,16 -14,15 -6,-1 -13,-10 -18,-22 -11,-27 -19,-68 -6,-96 z m -18,5 c -5,72 9,89 16,104 9,13 -24,12 -34,0 -14,-16 -25,-60 -20,-85 6,-28 33,-28 38,-20 z m -54,18 c 1,60 21,87 21,87 0,0 14,18 -13,15 -9,-1 -32,-13 -45,-63 -9,-37 24,-49 38,-39 z m -141,56 c 2,-6 6,-14 7,-21 1,-7 2,-14 2,-21 l 4,1 72,15 c 0,10 8,33 13,45 l -98,-20 z m 84,95 c 0,0 15,2 25,3 25,2 -13,-7 -20,-13 -10,-8 -18,-22 -11,-45 l 41,8 c 8,7 19,12 26,15 -10,27 2,62 58,73 2,0 8,2 10,2 -21,18 -76,78 -90,172 -20,-2 -39,-5 -59,-9 -19,-4 -37,-8 -54,-13 -28,-8 -66,-30 -78,-40 107,-116 152,-153 152,-153 z m -151,180 4,-4 c 18,12 45,25 69,32 17,5 36,10 55,14 12,2 23,4 35,6 l -1,1 c -11,33 -36,74 -45,88 -58,19 -102,17 -133,11 -16,-3 -29,-8 -37,-12 -4,-2 -7,-4 -9,-5 -1,0 -1,-1 -1,-1 16,-73 39,-99 63,-131 z m -70,145 c 7,4 24,13 51,19 l 0,0 c 33,7 80,8 139,-11 7,13 11,29 12,40 -14,6 -36,17 -59,32 -31,19 -63,44 -78,73 -27,-36 -54,-66 -87,-102 1,-8 13,-34 21,-50 z"
   id="path14"
   style="fill:#e81b18" />
   <path
   d="m 3290,2244 c -131,146 -280,-57 -516,-80 -237,-23 -327,22 -327,22 l -11,-97 c 0,0 45,18 70,16 365,-379 152,-743 30,-1083 -104,40 -258,91 -258,91 l -11,-310 -39,-69 -61,-64 c 0,0 -166,43 -212,96 -46,53 -53,159 -53,159 l 23,22 2,5 -28,84 16,16 23,56 1,50 -86,46 -6,16 -14,66 -86,39 19,76 157,334 -49,25 -121,-231 -117,-147 c -80,-62 -171,-114 -278,-151 l -98,-17 -17,-96 -45,64 -16,-49 -61,78 -134,70 -1,71 c 0,0 -190,293 -229,579 16,39 102,83 102,83 l 75,-143 34,22 -44,93 c 0,0 52,22 110,-16 18,-12 1,-59 1,-59 l 40,-46 33,132 c 0,0 -61,158 -62,266 -76,100 -76,207 -84,247 -245,15 -276,-112 -377,66 -24,227 -50,314 -114,419 49,141 -47,307 157,407 53,-59 58,-87 57,-93 -1,-2 0,-2 0,0 8,22 84,200 254,158 5,-11 21,-260 -146,-273 31,-103 -94,-64 125,-335 236,141 336,128 434,150 107,26 151,46 155,-43 33,-9 77,17 77,17 l -16,59 c 0,0 -46,8 -57,35 -12,29 6,61 6,61 0,0 -79,14 -131,69 -55,59 -69,140 -69,140 l 127,-41 165,14 14,-28 144,0 -26,-123 43,-19 c 0,0 253,762 691,727 -236,-313 -347,-533 -347,-533 l 40,-8 c 0,0 217,539 571,515 -115,-158 -362,-571 -362,-571 l 39,-7 c 0,0 257,437 355,510 120,-259 -215,-705 -215,-705 l 61,-24 c 0,0 26,104 265,250 252,118 377,130 118,533 -167,71 -198,120 -199,233 30,46 177,16 177,16 0,0 -19,36 26,39 95,7 292,-22 252,-190 18,-10 23,-29 23,-29 0,0 55,18 133,-2 -35,-540 146,-563 97,-669 -7,-15 -299,-145 -299,-145 0,0 51,-133 73,-135 140,321 338,14 338,14 0,0 -140,75 -134,-35 5,-91 438,-216 393,-636 -46,-433 -452,-199 -587,-48 z M 661,2963 c -26,-101 63,-272 63,-272 l 56,4 c 0,0 -80,243 -120,267 z m 482,-1028 -26,-114 41,-36 94,-26 -109,176 z m 2013,1916 c 0,0 88,-240 140,-320 33,301 -138,320 -140,320 z m 189,-1237 -95,-224 c 0,0 112,45 190,-37 36,30 74,57 74,57 l -168,205 z"
   id="bielaje"
   style="fill:#fefefe" />
   <path
   d="m 1924,1953 -1,2 c 0,1 -3,46 -4,53 -1,8 -4,20 -13,24 -1,2 -2,2 -3,2 0,0 -13,27 -16,33 -8,14 -22,35 -27,49 -5,13 -4,15 -10,29 -1,2 -3,6 -3,8 -1,0 -17,32 -16,40 0,8 -6,33 -6,49 0,13 -2,6 2,25 0,2 1,4 1,7 4,0 8,-9 9,-10 0,0 68,-97 71,-102 6,-10 17,-25 26,-34 16,-16 29,-29 33,-50 l 0,-2 c 3,-16 4,-10 11,-21 3,-19 -9,-21 4,-30 1,-1 17,-9 17,-10 0,-1 5,-7 6,-10 l 0,-1 c 1,-3 10,-29 11,-30 1,-8 6,-18 7,-27 -2,-11 -83,5 -94,7 -2,0 -3,1 -3,-1 -1,0 -3,0 -3,0 z m 696,-697 c 21,58 37,116 51,176 68,211 23,533 -165,658 -35,-2 -72,-8 -110,-17 2,3 12,10 14,11 32,16 22,-20 30,40 3,22 7,76 -1,94 -13,31 -10,55 -31,86 -4,5 -8,19 -13,23 -11,10 -13,35 -18,37 0,20 5,49 3,68 -6,41 5,45 5,75 0,21 3,12 -3,35 -3,12 11,64 5,65 -2,-2 -33,-113 -35,-118 -10,-33 -27,-49 -34,-74 -7,-13 -30,-88 -33,-102 -5,-25 -20,-49 -3,-59 0,-1 0,-2 1,-2 16,-13 8,-44 46,-58 1,-5 14,-23 18,-28 19,-24 16,-34 27,-56 8,-17 2,-22 3,-41 l 1,2 c 2,-1 3,-1 4,-1 -141,-36 -290,-114 -365,-223 -62,-72 -108,-171 -148,-257 -35,-76 -96,-181 -111,-262 72,-36 211,-80 294,-114 40,-16 81,-33 122,-49 113,-46 247,-110 360,-143 11,32 73,196 88,236 z m -225,816 -8,-2 c 2,2 5,2 8,2 z m -9,-2 -3,-1 c 1,1 1,1 3,1 z m -268,337 c 7,11 5,6 7,14 -2,1 -44,48 -50,55 -31,35 -33,23 -63,69 -14,21 -54,63 -59,83 -5,6 2,45 -15,54 -14,7 16,92 13,123 -3,36 -13,77 -37,105 -1,2 -42,34 -55,46 -3,3 -24,28 -24,29 -6,21 -45,58 -47,76 -7,3 -14,64 -1,98 35,88 282,772 686,714 0,0 -120,-146 -218,-314 l -129,-219 c 17,-8 26,-11 43,-19 142,405 370,518 567,526 -122,-191 -243,-382 -365,-573 17,-4 34,-8 51,-11 118,227 233,388 347,517 58,-214 46,-296 -215,-705 -4,57 -7,113 -11,170 -160,-134 -119,-191 -217,-377 -32,-60 -34,-84 -55,-139 -9,-25 -63,-127 -77,-149 -17,-25 -29,-111 -44,-133 -3,-11 -26,-29 -32,-38 z"
   id="path25"
   style="fill:#2160a9" />
   <path
   d="m 2391,2525 c -1,-33 -3,-66 -4,-99 69,31 139,63 208,94 24,-101 18,-228 -11,-369 26,-2 52,-4 78,-6 24,143 34,281 17,408 69,22 139,44 208,66 29,-144 24,-286 1,-428 28,10 56,19 83,29 14,140 14,279 1,418 86,58 353,-10 367,-61 3,24 10,56 13,81 -97,69 -234,84 -393,67 -23,96 -11,90 -80,159 -23,-91 -22,-85 -5,-177 -74,-23 -138,-51 -213,-74 -5,107 -14,100 -77,178 -27,-98 -18,-101 -1,-201 -64,-28 -128,-57 -193,-85 z m -267,-818 147,-60 -51,-126 -149,61 -47,-115 149,-61 -59,-146 116,-47 59,146 154,-62 47,115 -154,62 51,126 143,-58 47,115 -143,58 59,146 -116,47 -59,-146 -147,60 -47,-115 z M 828,1668 c -7,19 -14,38 -21,57 67,32 133,64 200,96 10,8 18,22 28,31 14,11 30,17 44,29 15,101 40,195 55,297 260,-32 507,-131 772,-256 1,-8 -11,-1 -10,-9 -251,53 -466,104 -717,157 -15,-93 -52,-209 -67,-302 41,-91 85,-172 120,-269 34,59 55,130 62,206 12,-18 19,-43 31,-61 -7,-72 -33,-131 -59,-192 -2,-4 -6,-28 -7,-33 7,-47 18,-92 25,-139 -19,-9 -33,-7 -53,-16 -1,43 -5,83 -25,114 -50,-22 -99,-52 -149,-74 -14,12 -27,20 -41,32 55,27 108,60 157,93 3,7 4,19 7,25 3,8 7,16 10,24 -46,91 -91,188 -138,280 -79,-17 -153,-54 -223,-90 z m 996,541 c -248,156 -528,250 -857,256 -1,29 -2,59 -3,88 310,12 593,-83 854,-235 2,-15 12,-20 14,-35 2,-20 -10,-54 -8,-75 z m 123,744 c 0,20 1,32 5,51 4,16 1,15 9,33 5,12 4,20 14,31 7,8 35,38 38,46 1,2 16,12 18,12 2,4 8,6 11,10 5,-11 -9,-62 -11,-77 0,0 12,-6 14,-9 9,-9 49,-31 50,-36 0,0 11,-17 11,-18 1,-3 3,-7 5,-9 -17,0 -62,11 -81,10 -4,0 -17,4 -21,4 -2,0 -5,-2 -7,-1 -9,3 -31,-36 -40,-37 -7,-4 -3,2 -13,-7 0,0 -4,-3 -4,-2 z m -31,126 -306,117 7,39 300,-156 z m 1007,-447 c 21,-4 41,9 45,30 4,21 -9,41 -30,45 -21,4 -41,-9 -45,-30 -4,-21 9,-41 30,-45 z m -296,-88 c 21,-4 41,9 45,30 4,21 -9,41 -30,45 -21,4 -41,-9 -45,-30 -4,-21 9,-41 30,-45 z"
   id="path27"
   style="fill:#fefefe" />
   <path
   d="m 3817,2091 c -61,-64 -166,-90 -304,-27 -153,69 -224,217 -326,222 -85,5 -254,-131 -471,-143 -72,-4 -183,9 -259,28 0,-22 -2,-52 -4,-69 18,4 41,9 63,13 363,-409 171,-696 31,-1122 -17,7 -170,68 -247,98 -54,-81 74,-289 -122,-438 -193,42 -255,89 -279,235 -1,8 -3,27 -4,39 -1,15 11,21 31,20 -7,19 -21,53 -27,73 -5,15 -10,34 16,32 -1,10 -4,34 -3,38 1,3 1,3 14,0 2,1 4,6 6,14 3,9 2,23 2,28 0,4 2,13 4,17 -53,17 -86,39 -86,39 -1,0 -1,0 -2,0 l -7,20 c -7,17 -18,47 -17,70 -55,22 -96,38 -98,39 8,18 19,44 29,66 l 12,27 c 42,104 90,225 145,320 1,1 2,3 3,4 -10,4 -24,9 -37,15 -29,-98 -71,-181 -114,-242 -30,-43 -71,-94 -108,-123 -89,-85 -262,-178 -388,-188 2,-18 0,-46 -11,-88 -6,-22 -8,-21 -15,-12 -8,10 -26,28 -37,43 -1,-6 -8,-26 -11,-32 -30,15 -65,37 -80,96 -63,12 -124,45 -151,80 2,18 12,44 15,64 -61,76 -238,411 -226,588 1,15 40,65 80,78 24,8 53,1 60,-44 6,-38 20,-69 44,-89 l 15,14 c -20,25 -34,43 -37,70 -1,12 4,41 36,42 35,1 76,-14 93,-27 22,-17 18,-44 15,-51 -2,-6 -6,-13 -9,-17 2,-3 8,-10 16,-18 12,44 19,85 24,125 -36,75 -55,148 -55,240 -63,70 -84,160 -85,231 -147,-6 -198,-23 -238,-31 -25,-5 -58,9 -76,24 -47,41 -79,77 -80,117 -3,291 -104,334 -96,403 20,161 8,226 19,264 9,33 59,128 156,153 29,-35 46,-60 53,-77 2,5 5,11 7,16 44,117 170,125 246,121 60,-194 -87,-306 -122,-303 -9,4 -21,13 -24,8 -2,-4 2,-4 12,-13 25,-21 -27,-75 -23,-94 8,-36 97,-200 129,-207 30,-7 179,98 297,125 37,9 80,-7 242,44 33,10 54,-15 59,-41 1,-7 2,-13 4,-18 10,-2 27,-1 57,9 l -18,39 c -3,0 -6,1 -9,1 -36,8 -59,43 -51,79 1,5 2,9 4,13 -14,5 -37,16 -64,30 -20,11 -53,37 -79,64 -29,32 -52,74 -58,128 -1,9 -1,16 -1,26 6,-2 11,-5 18,-8 47,-23 111,-42 142,-50 -1,6 -2,11 -2,15 7,0 146,2 175,4 0,-6 0,-17 -1,-32 27,4 87,13 153,6 -2,-20 -22,-94 -29,-134 l 17,-11 c 64,188 309,756 719,728 -38,-122 -200,-221 -346,-543 0,0 17,-3 17,-3 0,0 200,548 592,522 0,-73 -251,-341 -353,-574 10,-2 21,-4 21,-4 0,0 159,344 356,519 122,-238 -70,-523 -196,-720 3,-5 6,-11 9,-14 2,-1 19,-2 22,-3 8,29 44,101 119,134 88,89 169,127 265,157 25,12 119,88 135,122 15,33 -31,142 -72,240 -18,41 -41,84 -67,106 -40,33 -218,27 -199,264 29,18 109,34 178,6 1,8 2,22 2,30 27,16 95,17 158,4 83,-17 184,-91 142,-188 16,-15 15,-24 84,-19 67,4 77,-20 72,-53 -9,-62 -11,-110 -5,-175 17,-187 83,-341 107,-421 10,-33 -6,-56 -27,-65 -62,-26 -213,-93 -263,-121 -16,-9 -18,-13 -8,-30 14,-26 38,-69 50,-94 13,38 37,75 58,96 79,78 224,66 319,-133 -15,9 -26,17 -45,27 -89,51 -123,5 -100,-60 51,-33 126,-75 193,-143 61,-62 152,-181 186,-294 32,-108 5,-281 -77,-367 z m -914,116 c 25,9 45,17 59,23 6,57 11,155 7,270 -1,43 -5,87 -10,132 -11,-10 -27,-14 -42,-11 -3,1 -5,1 -7,2 -2,0 -3,-1 -5,-1 5,-43 8,-85 10,-126 4,-131 -4,-237 -9,-274 0,-2 -2,-10 -2,-14 z m 372,199 c 67,22 118,14 165,-28 3,-2 8,-6 10,-8 27,8 53,27 66,42 -65,59 -123,134 -159,188 -10,-55 -50,-135 -83,-194 z m -1666,735 c 14,-15 21,-37 16,-59 -1,-3 -1,-6 -2,-9 l 121,-381 c 25,-11 81,-22 111,-19 3,105 -38,195 -94,284 -36,57 -66,125 -69,194 l -74,29 c -2,-15 -5,-29 -8,-39 z m 162,-177 c 56,-89 98,-180 96,-288 24,4 41,13 54,23 22,82 35,196 -78,253 -11,9 -112,184 -113,186 l -26,10 c 4,-64 33,-129 67,-183 z m -43,-281 c 0,0 -34,-52 -31,-89 24,-39 82,-57 82,-57 0,0 65,70 188,42 -15,26 -39,75 -47,100 -68,-47 -192,3 -192,3 z m -642,-799 c 0,0 -1,-4 -2,-8 9,-9 19,-18 29,-28 2,6 5,15 5,17 26,87 40,184 42,196 -1,1 -33,6 -38,7 -7,-53 -17,-117 -36,-184 z m 68,-557 c 1,5 5,12 6,9 9,-21 32,-38 53,-59 2,0 3,0 5,1 2,22 -5,58 -16,99 -34,-27 -70,-47 -98,-61 5,-1 11,-3 22,-10 8,-6 14,-15 17,-25 1,0 3,0 3,-1 -1,16 3,29 7,46 z m 647,598 c -219,52 -531,127 -624,133 -2,-10 -10,-55 -21,-106 0,-1 1,-1 1,-2 98,-171 243,-345 184,-470 -3,-7 -10,-9 -6,2 10,25 20,62 -10,135 -1,-10 -3,-23 -6,-36 -9,-44 -28,-99 -55,-141 0,-4 0,-8 -1,-12 -1,-3 -1,-5 -2,-7 17,-54 27,-102 24,-133 130,30 257,109 347,218 72,87 127,223 152,345 2,11 4,22 6,32 1,4 1,8 3,14 2,8 4,17 7,28 z m -685,-142 c 6,1 18,3 28,5 -7,7 -15,15 -21,20 0,-3 -1,-6 -1,-8 -1,-6 -4,-12 -6,-17 z m 114,-302 c 11,-4 21,-10 28,-20 22,38 38,86 46,124 5,22 9,44 10,58 -6,12 -13,26 -21,40 -2,-15 -5,-34 -9,-54 -10,-49 -28,-106 -53,-149 z m -50,-34 c -8,-40 61,-55 69,-15 8,40 -61,55 -69,15 z m 49,66 c 17,37 31,81 39,120 5,25 9,49 10,65 -4,22 -27,49 -39,57 -10,6 -47,18 -83,21 0,0 0,0 0,0 -11,-1 -28,-4 -42,-7 33,-62 78,-158 113,-249 1,-2 2,-5 3,-7 z m 5,268 c -14,21 -57,90 -79,127 -1,-3 -15,-54 -23,-77 19,-18 35,-32 35,-32 13,-2 54,-10 67,-17 z m 15,-375 c -7,-6 -17,-10 -26,-11 -3,-2 -5,-4 -8,-7 13,-43 20,-81 18,-108 12,1 23,3 35,6 4,24 -4,68 -20,120 z m -160,-97 c -6,-3 -12,-6 -17,-8 18,-8 36,-14 58,-18 -6,13 -21,23 -41,25 z m 20,28 c 28,15 62,36 93,61 -12,3 -22,10 -29,20 -60,-49 -128,-77 -151,-85 13,-12 24,-19 30,-23 9,4 30,13 56,26 z m 78,141 c 8,5 18,7 27,7 2,3 4,7 6,10 -3,7 -5,14 -8,21 -36,92 -81,189 -113,250 -11,-7 -23,-10 -36,-9 33,-62 77,-157 112,-249 4,-10 8,-20 11,-30 z m 705,440 c 0,0 1,0 1,0 0,0 0,0 0,0 0,0 0,0 0,0 -5,2 -496,235 -758,249 -2,-9 -9,-71 -10,-81 196,-29 485,-93 767,-168 z m 88,-37 c 7,16 15,31 26,44 1,2 3,5 6,8 -5,1 -10,1 -16,2 -7,1 -12,2 -18,-3 -4,-3 -9,-7 -12,-12 -7,-8 -13,-18 -17,-28 -12,-26 -18,-55 -23,-83 -3,-19 -7,-42 -4,-62 10,16 22,35 36,54 4,27 10,54 21,80 z m 58,271 -48,-118 158,-54 13,8 34,100 -156,64 z m 162,-49 17,48 -153,63 -19,-47 156,-64 z m -173,-107 6,-11 c 3,-12 5,-26 4,-38 16,-1 34,-5 49,-10 1,1 2,1 3,2 8,7 16,13 25,20 l 7,4 -95,33 z m 36,-70 c -8,2 -16,3 -24,4 -8,1 -10,-1 -15,-8 -8,-9 -15,-19 -21,-30 -11,-19 -19,-43 -25,-65 26,33 56,67 91,96 -2,1 -5,1 -7,2 z m -151,-5 c 2,-3 18,-9 27,-12 1,1 1,3 2,4 5,9 11,17 19,24 0,0 1,1 1,1 -7,1 -11,2 -17,3 -15,3 -20,4 -24,3 -6,-1 -10,-5 -12,-12 -1,-4 0,-9 3,-12 z m -26,-14 c -4,0 -13,-2 -15,-13 -2,-8 2,-15 10,-18 15,-5 33,-10 41,-12 3,11 7,21 11,31 -6,2 -14,5 -21,6 -7,2 -20,5 -26,4 z m 19,-150 c 0,7 1,16 2,19 0,6 1,13 2,19 -10,3 -30,9 -34,10 -8,2 -15,1 -18,-5 -2,-5 -1,-13 0,-17 2,-4 7,-8 20,-14 12,-5 20,-9 28,-12 z m -37,67 c 6,-2 29,-9 42,-13 2,13 5,26 8,38 -12,3 -30,9 -44,13 -6,2 -16,-1 -19,-14 -3,-14 11,-23 14,-24 z m 24,107 c 0,2 0,4 1,5 3,12 12,20 22,24 0,0 1,0 1,0 0,0 0,1 0,1 -2,17 -7,43 -20,72 -1,2 -2,4 -3,6 -30,-18 -50,-49 -63,-80 29,-13 50,-23 61,-29 z m 26,92 c 7,-20 13,-40 14,-61 0,0 0,0 0,0 4,-1 8,-1 12,-2 9,-2 21,-4 35,-7 0,0 1,0 1,0 11,0 22,-2 33,-3 1,10 0,22 -2,29 l -17,30 -12,4 -24,8 10,23 3,7 -6,10 c -35,58 -90,124 -129,196 -7,-24 8,-74 25,-111 19,-42 42,-79 57,-122 z m 58,65 6,-11 81,197 c -57,76 -154,259 -174,297 -31,-4 -65,-15 -94,-39 2,-240 110,-328 182,-444 z m -75,484 c 11,-20 35,-66 63,-117 34,-60 74,-128 103,-169 l 49,121 -5,6 c -57,61 -112,119 -136,152 -15,4 -42,9 -74,7 z m 221,-135 5,-6 22,53 c -26,7 -55,11 -84,13 15,-16 39,-42 57,-60 z m -52,-209 152,-62 284,823 c 0,0 46,135 23,215 -75,-55 -128,-167 -128,-167 l -331,-808 z m 212,39 c 38,-42 69,-78 87,-116 9,-20 16,-49 17,-67 9,3 40,12 44,13 3,19 5,52 4,75 -1,78 -28,171 -105,232 l -47,-137 c 0,0 0,0 0,0 z m -9,-25 0,0 -55,-158 c 3,1 6,1 7,1 14,3 28,10 39,19 32,28 35,77 28,116 -7,8 -13,15 -19,21 z m 81,-118 c -8,25 -26,52 -44,76 3,-32 -1,-66 -21,-92 -18,-24 -47,-38 -76,-40 l -20,-59 0,0 c 47,25 108,51 169,70 -1,13 -3,32 -7,45 z m -20,296 c 14,-9 26,-19 37,-31 0,53 2,108 8,160 l -44,-129 z m 53,21 c 23,11 79,38 114,53 31,14 65,29 101,43 -15,11 -24,31 -19,50 0,1 0,2 1,2 -79,-32 -148,-64 -194,-86 -1,-22 -2,-43 -3,-63 z m 212,173 c 9,8 22,13 35,13 6,2 12,5 18,7 -5,28 -10,57 -17,88 -6,26 -24,49 -43,64 -12,-30 -16,-56 -11,-77 7,-33 13,-64 18,-94 z m 40,-4 c -18,4 -36,-8 -40,-26 -4,-18 8,-36 26,-40 18,-4 36,8 40,26 4,18 -8,36 -26,40 z m 42,-42 c 41,16 84,30 126,43 29,9 57,17 85,23 -11,12 -16,28 -13,44 1,4 2,7 4,11 -29,-7 -60,-16 -91,-25 -44,-13 -88,-29 -132,-45 16,-11 26,-31 22,-51 z m 210,140 c 3,1 6,1 9,2 10,6 22,9 34,7 4,1 8,1 11,2 -4,25 -9,50 -15,75 -6,26 -24,49 -43,64 -12,-30 -16,-56 -11,-77 5,-25 10,-49 14,-74 z m 42,-6 c -18,4 -36,-8 -40,-26 -4,-18 8,-36 26,-40 18,-4 36,8 40,26 4,18 -8,36 -26,40 z m 41,-43 c 0,-2 -1,-4 -2,-7 86,15 160,17 223,3 51,-11 96,-31 136,-63 5,21 7,43 8,63 -40,26 -84,44 -132,55 l 0,0 c -74,15 -156,13 -248,-4 13,-12 20,-30 16,-47 z m -248,-491 c 59,5 115,20 159,34 1,5 2,13 3,22 6,44 13,150 9,272 -1,37 -4,78 -9,122 -25,-6 -51,-13 -77,-21 -43,-13 -88,-28 -131,-45 21,-183 5,-317 -8,-386 18,0 37,0 55,2 z m -71,-2 c 12,63 29,194 10,376 -11,-10 -26,-15 -41,-12 -4,-2 -8,-3 -13,-5 17,-169 1,-296 -11,-354 18,-2 36,-3 55,-4 z m -72,6 c 11,55 29,175 12,346 -31,-13 -61,-26 -87,-38 -36,-16 -98,-46 -121,-57 0,-21 0,-40 1,-56 41,-57 59,-131 60,-168 12,-4 67,-19 135,-27 z m -52,-1146 c 43,127 90,241 123,351 72,235 81,448 -149,713 -363,-70 -510,-239 -610,-441 -50,-101 -88,-210 -137,-318 19,-7 212,-84 401,-159 180,-71 356,-140 371,-146 z M 1917,914 c 13,-138 64,-196 253,-235 171,141 54,331 105,421 -24,10 -51,20 -76,30 -13,0 -27,-3 -38,-5 -39,-10 -69,-30 -73,-37 -20,-62 52,-211 -118,-169 -51,13 -54,9 -53,-5 z m -2,104 c 7,-23 19,-56 26,-73 1,0 2,0 3,-1 2,1 5,2 10,3 -1,7 0,20 10,23 10,2 26,-7 25,-17 9,-4 16,-18 15,-20 -8,-1 -29,2 -37,3 110,-26 107,10 104,76 -1,34 -8,72 10,90 -37,25 -70,41 -93,48 -28,9 -47,-5 -39,-38 2,-8 -3,-13 -6,-18 -3,-6 -1,-7 2,-8 22,-4 30,-3 54,4 11,3 17,2 20,-3 2,-2 1,-10 -6,-18 -9,-10 -21,-21 -39,-34 -6,-5 -13,-6 -16,-6 -4,0 -31,7 -37,6 -5,0 -8,-8 -5,-18 z m 46,-63 c -1,-3 2,-7 4,-7 3,-1 5,2 6,5 1,3 -1,7 -4,7 -3,1 -6,-2 -7,-5 z m -35,112 c 0,-14 2,-15 3,-17 2,-2 30,-6 35,-7 3,0 6,2 9,4 14,9 27,21 33,29 5,6 2,8 -3,7 -8,-1 -27,-9 -36,-9 -4,0 -16,1 -28,3 -12,2 -13,2 -13,-9 z m 30,99 c 10,3 24,3 41,-3 34,-12 82,-39 97,-51 24,16 60,28 75,30 -21,9 -96,38 -178,71 -10,-9 -31,-28 -54,-42 7,-2 13,-4 19,-5 z m -48,16 c 3,-1 7,-3 10,-4 14,7 29,18 42,28 6,5 11,9 15,13 -28,11 -56,22 -84,33 1,-8 2,-18 5,-29 3,-14 7,-30 12,-41 z m -49,28 c 7,-5 18,-12 29,-18 -3,9 -5,19 -7,28 -3,16 -6,29 -6,39 -12,5 -23,9 -34,13 1,-12 5,-27 10,-41 3,-9 6,-16 8,-22 z m -527,23 c 159,47 341,143 461,369 19,36 42,92 62,159 -7,5 -11,9 -14,14 -5,8 -5,23 0,34 4,7 9,10 9,10 0,0 -17,11 -12,31 3,14 9,20 21,24 -5,4 -7,15 -5,23 2,6 5,11 9,14 -15,4 -31,7 -48,11 -3,-10 -5,-20 -7,-27 -1,-5 -2,-10 -3,-13 -2,-11 -4,-22 -6,-33 -26,-123 -81,-261 -156,-351 -106,-128 -262,-217 -417,-234 11,-12 21,-26 29,-44 24,1 48,4 76,13 z m -93,-101 c 29,110 -48,136 -74,173 -9,-69 40,-135 74,-173 z m -57,11 c 3,7 5,19 5,31 -4,6 -10,16 -14,23 -11,1 -22,2 -33,4 7,-28 31,-51 42,-58 z m -192,147 c 30,-35 94,-60 170,-69 -5,12 -10,31 -12,44 -60,5 -112,28 -150,66 -2,-7 -9,-39 -7,-42 z m -106,267 c 35,-76 81,-155 115,-199 3,-4 6,-8 10,-12 2,1 8,3 18,7 29,12 89,39 139,81 -1,5 -1,11 0,17 1,6 3,11 6,15 -4,12 -9,24 -14,36 -36,93 -81,189 -113,250 -48,-13 -94,-31 -131,-48 -40,-18 -69,-34 -77,-39 14,-35 29,-71 47,-108 z m -52,123 c 21,12 106,58 200,85 -14,8 -26,21 -28,39 -30,-10 -60,-21 -85,-33 -30,-13 -56,-27 -74,-37 -13,-7 -22,-12 -26,-15 4,-13 9,-26 14,-39 z m 178,162 c -11,7 -30,23 -43,37 l -14,-13 c 19,-13 44,-22 57,-26 l 1,2 z m -145,134 c -13,54 -89,-28 -90,-43 -5,-47 10,-117 37,-200 21,12 101,58 191,86 0,2 0,4 1,5 0,1 0,1 1,2 -14,4 -41,14 -53,20 -75,39 -81,101 -87,129 z m 163,-75 c -11,-2 -25,-3 -32,0 -10,3 60,24 34,59 -10,14 -87,39 -92,16 -7,-30 39,-87 80,-124 10,11 24,17 39,18 -10,13 -25,29 -28,31 z m -9,-79 c -11,-54 74,-72 85,-18 11,54 -74,72 -85,18 z m 38,448 c -2,-56 10,-139 45,-221 5,46 9,91 17,135 209,-7 540,-146 695,-217 14,33 37,68 71,88 -14,29 -30,58 -43,86 -7,15 -17,40 -23,67 -72,41 -276,149 -496,207 -24,6 -47,12 -72,17 -91,19 -186,30 -278,25 9,-88 44,-144 83,-187 z m -84,203 c 95,5 191,-6 283,-25 24,-5 49,-11 72,-17 230,-60 424,-165 489,-203 -2,17 -1,35 6,49 -4,8 -10,23 -15,38 -79,44 -257,136 -465,190 -24,6 -47,12 -72,17 -97,20 -198,31 -297,24 -2,-26 -3,-50 -1,-73 z m -479,643 c -4,-59 -12,-116 -11,-122 8,-63 86,-111 96,-379 1,-14 1,-24 5,-34 9,-21 27,-39 47,-59 32,-32 55,-40 79,-35 18,4 39,10 73,16 37,6 102,12 165,15 2,36 10,87 16,119 -18,-6 -55,-19 -65,-20 -29,-3 -62,11 -70,16 -21,13 -44,36 -58,64 -6,-1 -22,-3 -34,-8 -7,-3 19,-31 22,-37 1,-2 -13,4 -27,13 -11,7 -22,23 -28,34 -30,54 -62,181 -63,223 -2,24 2,45 4,56 -14,26 -29,60 -48,85 -5,2 -20,6 -26,5 -6,0 -13,-3 -15,-2 -5,3 11,8 17,9 3,0 15,-1 18,-1 -1,1 -3,4 -4,4 -6,8 -5,27 -1,49 -9,2 -14,5 -20,9 -4,3 -15,11 2,7 6,-1 12,-4 19,-4 4,27 12,47 18,64 -43,48 -89,67 -101,71 -14,-23 -7,-86 -12,-158 z m 265,-397 c -25,62 -57,147 -96,229 -1,-15 2,-30 3,-41 2,-33 25,-119 43,-161 4,-10 16,-38 21,-35 5,2 15,5 29,8 z m -134,676 c -33,-6 -89,-53 -114,-106 8,-3 28,-13 42,-23 19,-12 40,-30 58,-52 6,14 56,90 61,101 -9,26 -22,50 -48,80 z m 186,-186 c 2,-1 9,-4 12,-5 28,8 139,95 99,255 -62,2 -125,-9 -167,-47 25,-19 47,-47 56,-71 20,-52 8,-108 0,-132 z m 710,-255 c 14,-72 13,-73 34,-100 11,-14 -2,-17 -33,16 -19,21 -26,149 -52,151 -21,1 -101,-39 -237,-42 -74,-2 -247,-109 -299,-127 -7,-3 -29,-7 -54,15 -22,19 -87,123 -114,191 -4,11 -12,25 -4,42 8,18 21,39 23,47 3,9 6,30 -40,42 -32,9 -34,13 -4,12 16,-1 29,-9 34,10 3,12 -26,67 -11,50 5,-6 13,-30 32,-44 11,31 28,126 -55,183 -15,-14 -29,-56 -37,-71 -23,-46 -47,-79 -75,-130 -15,-26 -26,-105 -21,-113 169,-265 150,-372 226,-429 19,-15 52,-19 66,-16 13,3 46,17 67,23 167,46 311,5 345,19 39,16 61,44 73,52 33,21 -44,-69 -67,-74 -51,-11 -177,17 -330,-17 -7,-29 -11,-55 -14,-80 100,7 202,-4 299,-25 24,-5 49,-11 72,-17 197,-52 367,-136 453,-183 -7,19 -12,34 -12,34 -12,43 -16,92 -20,147 -24,8 -75,33 -96,71 -2,50 24,93 34,110 l -122,266 c -13,-2 -48,-11 -63,-11 z m 177,-199 -94,294 c -1,-1 -9,-6 -10,-7 -7,-4 -14,-7 -22,-9 l 126,-278 z m -241,414 c 18,-9 41,-17 45,-18 -4,7 -16,36 -25,66 -1,4 -3,9 -4,13 -8,-9 -14,-19 -19,-29 -1,-2 -6,-18 -8,-25 4,-2 7,-4 11,-6 z m -135,164 c 5,-25 14,-47 26,-66 5,17 14,33 25,47 -17,6 -35,13 -51,20 z m 68,-25 c -9,-9 -17,-21 -22,-33 -4,-8 -6,-17 -7,-26 9,-11 18,-22 28,-31 0,0 0,1 0,1 6,29 20,56 41,77 -12,3 -25,8 -40,12 z m 68,-20 -10,3 c -3,-3 -6,-5 -9,-8 -11,-12 -20,-26 -26,-41 -5,-11 -8,-23 -10,-35 0,-1 0,-1 0,-2 1,-1 2,-1 3,-2 3,-3 14,-10 27,-19 0,0 0,0 0,0 5,24 18,47 36,63 -6,22 -10,40 -10,40 z m 145,20 c 0,0 -80,-2 -123,-2 5,-53 33,-121 46,-148 13,7 29,10 45,7 3,-1 9,-3 14,-5 16,67 17,148 17,148 z m -36,-165 c -24,5 -48,-10 -53,-34 -5,-24 10,-48 34,-53 24,-5 48,10 53,34 5,24 -10,47 -34,53 z m 184,142 c -32,4 -97,-1 -126,-8 -1,-9 -2,-27 -3,-37 l 107,-56 c 6,34 20,84 22,101 z m -131,-64 c -1,-6 -1,-12 -2,-18 l 235,-98 -233,115 z m 1082,118 c 69,132 117,285 65,428 -194,-192 -336,-505 -336,-505 0,0 -62,13 -66,13 105,243 306,462 354,568 -250,2 -440,-283 -514,-448 -14,-31 -25,-57 -30,-77 0,-1 -54,12 -63,14 127,304 289,431 344,537 -358,11 -603,-527 -665,-719 l 168,-87 c 5,9 32,58 90,93 4,-53 -10,-88 -10,-88 0,0 54,-32 86,-85 -60,-8 -120,11 -120,11 0,0 -30,-38 -67,-61 -6,59 13,113 16,120 l -173,67 c -2,-4 -4,-11 -5,-15 30,-53 75,-128 80,-132 124,-69 108,-193 84,-277 11,-37 33,-77 50,-110 7,-13 32,-42 57,-69 33,-1 73,-7 105,-15 l 224,546 0,1 0,1 c 2,5 57,118 135,176 l 27,20 10,-33 c 11,-37 8,-84 2,-126 24,37 111,172 151,252 z m -668,-212 c -28,-18 -55,-65 -58,-71 l 35,-18 -3,-5 -37,14 c -1,-3 -18,-44 -18,-78 10,3 46,46 46,46 0,0 56,-22 95,-17 -25,35 -78,64 -78,64 0,0 11,28 17,65 z m 568,-87 c -8,2 -21,4 -30,7 -4,5 -12,13 -12,13 0,0 -10,-9 -18,-20 -2,-7 -3,-14 -5,-20 20,-3 41,-9 59,-19 3,18 5,32 7,39 z m 334,838 c 80,-27 104,-55 151,-170 64,-155 84,-207 57,-250 -13,-20 -51,-50 -83,-76 116,26 227,46 235,97 1,7 0,19 0,28 -41,87 -112,211 -146,350 -25,10 -45,15 -64,25 -20,-1 -31,-8 -31,-8 0,0 -11,-5 -3,7 4,6 10,10 16,12 -37,23 -60,46 -74,78 -37,4 -103,4 -146,-33 20,-26 45,-46 88,-60 z m 360,-313 c -9,75 -33,186 -72,249 -13,20 -27,27 -46,33 27,-110 93,-231 118,-282 z m -478,513 c -7,-15 -7,-75 20,-124 55,41 123,34 152,30 -11,25 -18,56 -20,91 -40,24 -145,20 -153,4 z m 324,29 c -18,6 -148,25 -151,3 -5,-40 -1,-89 26,-135 86,38 191,39 240,15 -1,33 -15,81 -115,116 z m 66,-1050 c -7,13 -14,40 21,58 48,25 252,116 267,123 8,4 16,18 13,30 -17,57 -53,146 -79,254 -22,91 -39,196 -32,308 1,20 12,50 8,61 -9,25 -108,14 -153,-10 -9,-5 -9,-1 -5,2 10,8 22,19 23,30 1,7 -4,13 -16,15 -11,2 -28,-3 -34,-4 -27,-5 -28,0 -15,2 16,3 47,21 52,53 -83,31 -202,-4 -228,-20 7,-12 18,-21 26,-27 58,-45 106,-43 172,-82 30,-18 106,-226 89,-365 -16,-128 -371,-75 -574,-300 -176,-82 -78,-268 -204,-343 -15,-9 -21,-4 -12,4 38,30 57,94 68,142 -12,7 -25,12 -39,15 -7,2 -14,3 -21,4 -3,-11 -6,-19 -6,-20 l -126,-366 c -4,-29 -7,-61 -10,-93 47,22 116,54 193,85 -5,31 -11,64 -18,98 -7,34 5,72 20,103 29,-15 58,-48 66,-84 6,-29 12,-58 16,-85 39,14 79,28 118,40 31,9 61,18 90,25 -4,24 -9,49 -14,74 -7,34 5,72 20,103 29,-15 58,-48 65,-84 6,-26 10,-51 15,-75 92,16 174,18 249,3 l 1,0 c 46,-10 90,-27 129,-51 0,28 -2,48 -2,50 -17,145 -87,251 -129,329 z m 89,-120 c 48,-100 73,-195 64,-300 36,-59 97,-136 163,-198 19,56 -22,135 -74,220 -47,75 -102,155 -113,238 -8,57 9,133 56,176 -41,-19 -79,-67 -97,-136 z m 310,48 c -18,17 -34,36 -43,45 -30,30 -60,47 -92,53 -38,-30 -49,-61 -45,-85 4,-24 27,-52 58,-75 -10,55 38,106 122,62 z m 262,-528 c -47,150 -180,306 -291,373 -86,52 -150,90 -169,138 -13,33 -6,88 43,116 -14,0 -27,-2 -40,-6 -113,-131 -45,-267 50,-409 88,-132 146,-266 3,-312 38,-39 95,-78 137,-76 87,5 114,120 75,197 -31,60 -86,130 -182,201 0,0 123,-42 225,-156 62,-69 94,-158 32,-254 -5,-8 -15,-19 -13,-16 17,42 72,135 -19,245 -66,79 -126,114 -126,114 0,0 5,-3 11,-8 26,-23 75,-83 94,-128 56,-126 -18,-240 -128,-212 -42,11 -74,30 -130,86 -75,76 -140,49 -220,14 27,29 74,119 103,201 1,4 3,8 4,12 -40,33 -84,54 -135,64 -60,13 -133,11 -218,-4 6,-49 9,-94 11,-136 4,-112 -1,-206 -6,-263 2,1 3,1 3,1 92,39 162,77 215,70 121,-18 177,-164 341,-230 112,-44 201,-30 253,20 90,88 109,259 79,353 z M 807,1871 c -2,2 -7,9 -5,12 7,-9 18,-13 23,-14 3,-1 8,2 9,8 -3,-1 -6,0 -10,1 -13,6 -30,21 -34,34 -4,9 -2,24 8,29 9,4 29,1 42,-28 11,-24 11,-47 -1,-54 -9,-5 -20,0 -32,11 z m 17,46 c -6,8 -13,11 -17,8 -7,-6 -3,-19 7,-29 8,-8 18,-13 20,-11 5,6 -4,23 -10,31 z m 921,213 c -148,-40 -343,48 -443,126 166,-86 318,-131 443,-126 z m 1285,969 c 161,-37 147,-140 203,-209 -54,10 -48,143 -203,209 z M 1320,2912 c -58,1 -84,11 -201,-40 -23,-10 -55,-19 -59,-19 -25,2 26,16 121,61 37,17 121,15 130,15 9,0 23,-17 9,-17 z m 2064,380 c 54,-1 56,20 68,25 3,-4 -7,-38 -56,-42 -33,-37 -83,-61 -125,-75 2,10 95,54 113,92 z M 969,1556 c 1,-4 0,-14 3,-15 2,-1 14,8 33,4 19,-4 27,-14 31,-18 4,-6 7,-15 7,-23 6,0 16,-3 22,-5 14,-6 19,-15 15,-14 -1,0 -2,1 -6,1 -8,1 -20,4 -29,3 -8,0 -17,-5 -26,-6 -10,-1 -22,0 -30,3 2,-8 8,-21 9,-25 1,-4 4,-15 -4,-5 -5,6 -12,16 -20,28 -8,12 -13,20 -15,31 0,4 2,11 3,20 2,11 4,26 4,27 1,1 4,-5 4,-8 z m 30,-56 c 12,-3 24,0 26,8 2,8 -5,19 -17,22 -12,3 -24,-1 -27,-9 -2,-8 6,-17 18,-21 z"
   id="path14_0"
   style="fill:#e81b18" />
   <polygon
   points="2271,1646 2220,1520 2071,1581 2024,1466 2173,1405 2114,1259 2230,1212 2289,1358 2443,1296 2489,1411 2336,1473 2387,1599 2530,1541 2576,1656 2434,1714 2493,1860 2377,1907 2318,1761 2171,1821 2124,1706 "
   id="polygon30"
   style="fill:#f9c406;stroke:#2b2a29;stroke-width:14.37339973" />
   <path
   d="m 2512,1073 c 39,116 83,221 113,322 66,216 74,412 -137,655 -334,-64 -468,-220 -560,-405 -46,-93 -81,-192 -125,-292 17,-7 195,-77 368,-146 166,-65 327,-128 341,-134 z"
   id="path32"
   style="fill:#2160a9" />
   <path
   d="m 2538,1030 c 18,53 36,103 54,152 25,67 48,132 67,194 36,117 56,229 38,344 -17,116 -72,235 -187,367 l -3,4 -5,-1 c -181,-35 -308,-94 -402,-170 -94,-76 -156,-168 -206,-269 -30,-60 -56,-124 -82,-188 -17,-41 -34,-83 -53,-126 l -4,-8 8,-3 37,-15 c 67,-27 212,-84 358,-142 75,-30 149,-59 211,-83 85,-33 146,-57 155,-61 l 8,-4 3,9 z m 38,158 c -17,-46 -35,-94 -52,-144 -21,8 -76,30 -147,58 -62,24 -136,53 -211,83 -142,56 -290,115 -358,142 l -29,12 c 17,39 33,79 49,118 26,64 52,127 82,187 49,98 109,189 201,263 91,74 215,132 390,166 110,-128 163,-243 180,-354 17,-113 -3,-222 -38,-337 -19,-62 -43,-126 -67,-193 z"
   id="path34"
   style="fill:#fefefe;fill-rule:nonzero;stroke:#fefefe;stroke-width:5.4115901" />
   <path
   d="m 2280,1628 -43,-105 -2,-5 c -42,17 -101,43 -159,94 0,0 -10,-29 -23,-62 -14,-33 -27,-60 -27,-60 77,-5 137,-28 179,-45 -31,-69 -87,-149 -87,-149 0,0 43,-14 60,-21 17,-7 57,-27 57,-27 0,0 16,96 42,167 42,-17 100,-43 159,-94 0,0 10,29 23,62 14,33 27,60 27,60 -77,5 -137,28 -179,45 l 2,5 43,105 2,5 c 42,-17 101,-43 159,-94 0,0 10,29 23,62 14,33 27,60 27,60 -77,5 -137,28 -179,45 31,69 87,149 87,149 0,0 -43,14 -60,21 -17,7 -57,27 -57,27 0,0 -16,-96 -42,-167 -42,17 -100,43 -159,94 0,0 -10,-29 -23,-62 -14,-33 -27,-60 -27,-60 77,-5 137,-28 179,-45 l -2,-5 z"
   id="path2838"
   style="fill:#fbd415;fill-rule:nonzero" />
  </g>
 </g>
</svg>