<?xml version="1.0" encoding="UTF-8" standalone="no"?>
<svg
   xmlns:dc="http://purl.org/dc/elements/1.1/"
   xmlns:cc="http://creativecommons.org/ns#"
   xmlns:rdf="http://www.w3.org/1999/02/22-rdf-syntax-ns#"
   xmlns:svg="http://www.w3.org/2000/svg"
   xmlns="http://www.w3.org/2000/svg"
   xmlns:sodipodi="http://sodipodi.sourceforge.net/DTD/sodipodi-0.dtd"
   xmlns:inkscape="http://www.inkscape.org/namespaces/inkscape"
   id="svg2"
   version="1.1"
   width="135.96968"
   height="179.07248"
   inkscape:version="0.91 r13725"
   sodipodi:docname="ma.svg">
  <sodipodi:namedview
     pagecolor="#ffffff"
     bordercolor="#666666"
     borderopacity="1"
     objecttolerance="10"
     gridtolerance="10"
     guidetolerance="10"
     inkscape:pageopacity="0"
     inkscape:pageshadow="2"
     inkscape:window-width="1148"
     inkscape:window-height="762"
     id="namedview69"
     showgrid="false"
     fit-margin-top="0"
     fit-margin-left="0"
     fit-margin-right="0"
     fit-margin-bottom="0"
     inkscape:zoom="0.8964542"
     inkscape:cx="-18.193372"
     inkscape:cy="-14.619955"
     inkscape:window-x="284"
     inkscape:window-y="161"
     inkscape:window-maximized="0"
     inkscape:current-layer="svg2" />
  <metadata
     id="metadata71">
    <rdf:RDF>
      <cc:Work
         rdf:about="">
        <dc:format>image/svg+xml</dc:format>
        <dc:type
           rdf:resource="http://purl.org/dc/dcmitype/StillImage" />
        <dc:title></dc:title>
      </cc:Work>
    </rdf:RDF>
  </metadata>
  <defs
     id="defs69" />
  <path
     style="fill:#ffffff;fill-opacity:1;fill-rule:evenodd;stroke:none"
     d="m 128.64367,291.793 -1.8776,-0.19558 -1.91672,-0.19558 -1.8776,-0.19558 -1.8776,-0.19558 -1.91672,-0.19558 -1.8776,-0.19558 -1.8776,-0.19558 -1.91672,-0.19558 -1.8776,-0.19558 -1.87761,-0.19558 -1.8776,-0.19558 -1.91672,-0.19558 -1.8776,-0.19558 -1.8776,-0.19557 -1.91672,-0.19558 0,-7.82318 0,-7.8623 0,-7.86229 0,-7.8623 0,-7.82318 0,-7.86229 0,-7.8623 0,-7.82318 0,-7.86229 0,-7.8623 0,-7.82318 0,-7.86229 0,-7.82318 0,-7.8623 0,-7.82318 0,-7.86229 1.25174,0 1.29085,0 1.25173,0 1.25174,0 1.29085,0 1.25173,0 1.29085,0 1.29085,0 0,0.82143 0,0.82143 0,0.82144 0,0.82143 0,0.82144 0,0.82143 0,0.82143 0,0.82144 1.32997,0 1.36909,0 1.36908,0 1.36909,0 1.36908,0 1.36909,0 1.36908,0 1.4082,0 0,-0.82144 0,-0.82143 0,-0.82143 0,-0.82144 0,-0.82143 0,-0.82144 0,-0.82143 0,-0.82143 1.60379,0 1.60378,0 1.6429,0 1.64291,0 1.60378,0 1.6429,0 1.64291,0 1.6429,0 0,0.82143 0,0.82143 0,0.82144 0,0.82143 0,0.82144 0,0.82143 0,0.82143 0,0.82144 1.36908,0 1.32997,0 1.36908,0 1.36909,0 1.36908,0 1.36909,0 1.4082,0 1.36909,0 0,-0.82144 0,-0.82143 0,-0.82143 0,-0.82144 0,-0.82143 0,-0.82144 0,-0.82143 0,-0.82143 1.56466,0 1.60379,0 1.56467,0 1.60377,0 1.60379,0 1.56467,0 1.60378,0 1.60379,0 0,0.78232 0,0.78231 0,0.78232 0,0.78232 0,0.78232 0,0.78231 0,0.78232 0,0.78232 1.4082,0 1.36908,0 1.4082,0 1.36909,0 1.4082,0 1.4082,0 1.40821,0 1.4082,0 0,-0.78232 0,-0.78232 0,-0.78231 0,-0.78232 0,-0.78232 0,-0.78232 0,-0.78231 0,-0.78232 1.25174,0 1.25173,0 1.29085,0 1.25173,0 1.29085,0 1.25174,0 1.29085,0 1.29085,0 -0.0391,7.82318 0,7.86229 0,7.82318 -0.0391,7.82318 0,7.82318 -0.0391,7.82318 0,7.82318 0,7.86229 -0.0391,7.82318 0,7.82318 0,7.8623 -0.0391,7.82318 0,7.82318 -0.0391,7.86229 0,7.82318 0,7.82318 -3.05111,0.31293 -3.0511,0.27381 -3.01198,0.23469 -3.05111,0.27382 -3.0511,0.23469 -3.0511,0.19558 -3.05111,0.2347 -3.0511,0.19558 -3.0511,0.19557 -3.05111,0.19558 -3.0511,0.19558 -3.0511,0.15647 -3.05111,0.19558 -3.01198,0.15646 -3.01199,0.15646 -3.0511,0.15647 z"
     id="path2611"
     inkscape:connector-curvature="0" />
  <path
     inkscape:connector-curvature="0"
     style="fill:#da251d;fill-opacity:1;fill-rule:evenodd;stroke:none"
     d="m 43.486599,272.82179 -0.15647,-0.11735 -0.0782,-0.0782 0,-0.15647 0.31293,0 0.31294,0 0.35205,0 0.35204,0 0,0.2347 0,0.31293 -0.43029,0 -0.35205,0 z"
     id="path2617" />
  <path
     inkscape:connector-curvature="0"
     style="fill:#da251d;fill-opacity:1;fill-rule:evenodd;stroke:none"
     d="m 234.92377,272.27417 0,-0.35205 0.46939,0 0.46941,0 0.4694,0 0.4694,0 0,0.11735 0,0.19558 -0.4694,0.11735 -0.4694,0.11734 -0.46941,0.11735 -0.46939,0.11735 z"
     id="path2619" />
  <g
     id="g3457">
    <path
       id="path2699"
       d="m 39.077592,177.19491 0,-1.91667 0,-1.91668 0,-1.9558 0,-1.91668 0,-1.91668 0,-1.95579 0,-1.91668 3.598737,0 3.598736,0 3.55962,0 3.59874,0 3.59874,0 3.59873,0 3.59874,0 3.59874,0 3.59873,0 3.59874,0 3.59874,0 3.63785,0 3.59874,0 3.59874,0 3.59873,0 3.59874,0 0,1.91668 0,1.91668 0,1.91668 0,1.91668 0,1.91667 0,1.9558 0,1.91668 0,1.91668 -3.59874,0 -3.59873,0 -3.55962,0 -3.59874,0 -3.59874,0 -3.59873,0 -3.59874,0 -3.59874,0 -3.59874,0 -3.59873,0 -3.59874,0 -3.63785,0 -3.59874,0 -3.59874,0 -3.598736,0 -3.598737,0 z"
       style="fill:#da251d;fill-opacity:1;fill-rule:evenodd;stroke:none"
       inkscape:connector-curvature="0" />
    <path
       id="path2709"
       d="m 0,153.41245 0,-2.50342 0,-2.4643 0,-2.4643 0,-2.4643 0,-2.4643 0,-2.46431 0,-2.4643 0.84839465,0 0.84839435,0 0.8483946,0 0.8483947,0 0.8483946,0 0.8600163,0 0.8483947,0 0.8483943,0 0,1.09525 0,1.13436 0,1.13436 0,1.13436 0,1.13436 0,1.13436 0,1.13436 0,1.17348 0.5462269,0 0.5462265,0 0.5462266,0 0.5462268,0 0.5462266,0 0.5462264,0 0.546227,0 0.546227,0 0.546226,0 0.546227,0 0.557848,0 0.546227,0 0.546228,0 0.546225,0 0.546228,0 0.557848,0 0,-1.17348 0,-1.13436 0,-1.13436 0,-1.13436 0,-1.13436 0,-1.13436 0,-1.13436 0,-1.09525 0.569471,0 0.58109,0 0.581094,0 0.58109,0 0.581094,0 0.569471,0 0.58109,0 0.581094,0 0.58109,0 0.581094,0 0.58109,0 0.581094,0 0.58109,0 0.581094,0 0.581093,0 0.592714,0 0,1.09525 0,1.13436 0,1.13436 0,1.13436 0,1.13436 0,1.13436 0,1.13436 0,1.17348 0.546225,0 0.546228,0 0.546225,0 0.557851,0 0.546225,0 0.546228,0 0.557848,0 0.546225,0 0.557852,0 0.546225,0 0.557848,0 0.546228,0 0.557848,0 0.546228,0 0.557848,0 0.557848,0 0,-1.17348 0,-1.13436 0,-1.13436 0,-1.13436 0,-1.13436 0,-1.13436 0,-1.13436 0,-1.09525 0.569471,0 0.58109,0 0.581094,0 0.58109,0 0.581094,0 0.56947,0 0.581091,0 0.581094,0 0.58109,0 0.581094,0 0.581093,0 0.581091,0 0.581093,0 0.581091,0 0.581093,0 0.592711,0 0,1.09525 0,1.13436 0,1.13436 0,1.13436 0,1.13436 0,1.13436 0,1.13436 0,1.17348 0.534605,0 0.546228,0 0.546228,0 0.546225,0 0.546228,0 0.546225,0 0.546228,0 0.546228,0 0.546225,0 0.557848,0 0.546228,0 0.546225,0 0.546228,0 0.546225,0 0.546228,0 0.557848,0 0,-1.17348 0,-1.13436 0,-1.13436 0,-1.13436 0,-1.13436 0,-1.13436 0,-1.13436 0,-1.09525 0.581094,0 0.58109,0 0.581094,0 0.58109,0 0.592714,0 0.581093,0 0.581094,0 0.58109,0 0.592714,0 0.581093,0 0.581088,0 0.592716,0 0.581091,0 0.581093,0 0.592714,0 0.592716,0 0,1.09525 0,1.13436 0,1.13436 0,1.13436 0,1.13436 0,1.13436 0,1.13436 0,1.17348 0.650825,0 0.662441,0 0.662444,0 0.662445,0 0.66245,0 0.662444,0 0.662442,0 0.662444,0 0.66245,0 0.662445,0 0.662441,0 0.662445,0 0.67407,0 0.662441,0 0.66245,0 0.662445,0 0,-1.17348 0,-1.13436 0,-1.13436 0,-1.13436 0,-1.13436 0,-1.13436 0,-1.13436 0,-1.09525 0.58109,0 0.581094,0 0.581093,0 0.581091,0 0.569471,0 0.581093,0 0.581091,0 0.581093,0 0.581091,0 0.581093,0 0.581091,0 0.581093,0 0.581091,0 0.581094,0 0.58109,0 0.581094,0 0,1.09525 0,1.13436 0,1.13436 0,1.13436 0,1.13436 0,1.13436 0,1.13436 0,1.17348 0.546225,0 0.546228,0 0.546228,0 0.546225,0 0.534605,0 0.546225,0 0.546228,0 0.546228,0 0.546225,0 0.546228,0 0.546225,0 0.546228,0 0.546225,0 0.546226,0 0.546228,0 0.546225,0 0,-1.17348 0,-1.13436 0,-1.13436 0,-1.13436 0,-1.13436 0,-1.13436 0,-1.13436 0,-1.09525 0.592713,0 0.581096,0 0.581091,0 0.581094,0 0.592713,0 0.581091,0 0.592716,0 0.58109,0 0.592714,0 0.581093,0 0.592714,0 0.581093,0 0.592714,0 0.58109,0 0.592717,0 0.58109,0 0,1.09525 0,1.13436 0,1.13436 0,1.13436 0,1.13436 0,1.13436 0,1.13436 0,1.17348 0.546228,0 0.54623,0 0.54622,0 0.54623,0 0.5346,0 0.54623,0 0.54623,0 0.54622,0 0.54623,0 0.54623,0 0.54622,0 0.54623,0 0.54623,0 0.54622,0 0.54623,0 0.54623,0 0,-1.17348 0,-1.13436 0,-1.13436 0,-1.13436 0,-1.13436 0,-1.13436 0,-1.13436 0,-1.09525 0.58109,0 0.58109,0 0.58109,0 0.5811,0 0.58109,0 0.56947,0 0.58109,0 0.58109,0 0.58109,0 0.5811,0 0.58109,0 0.58109,0 0.58109,0 0.5811,0 0.58109,0 0.58109,0 0,1.09525 0,1.13436 0,1.13436 0,1.13436 0,1.13436 0,1.13436 0,1.13436 0,1.17348 0.55785,0 0.54623,0 0.54622,0 0.54623,0 0.55785,0 0.54622,0 0.55785,0 0.54623,0 0.55785,0 0.54622,0 0.55785,0 0.54623,0 0.55784,0 0.54623,0 0.55785,0 0.54623,0 0,-1.17348 0,-1.13436 0,-1.13436 0,-1.13436 0,-1.13436 0,-1.13436 0,-1.13436 0,-1.09525 0.76704,0 0.76704,0 0.76704,0 0.76704,0 0.76705,0 0.76704,0 0.76704,0 0.76704,0 0,2.4643 0,2.46431 0,2.4643 0,2.4643 0,2.4643 0,2.4643 0,2.50342 0,2.4643 -8.25151,0 -8.2515,0 -8.26314,0 -8.251509,0 -8.251505,0 -8.251508,0 -8.251508,0 -8.251511,0 -8.251508,0 -8.251508,0 -8.25151,0 -8.251508,0 -8.23989,0 -8.251508,0 -8.2515082,0 -8.2515088,0 z"
       style="fill:#da251d;fill-opacity:1;fill-rule:evenodd;stroke:none"
       inkscape:connector-curvature="0" />
    <path
       id="path2713"
       d="m 30.471916,136.51438 0,-1.17348 0,-1.17347 0,-1.17348 0,-1.17348 0,-1.17347 0,-1.17348 0,-1.17348 -2.699053,0 -2.73817,0 -2.699052,0 -2.699053,0 -2.699053,0 -2.699053,0 -2.699053,0 -2.699053,0 0,-1.91668 0,-1.87756 0,-1.91668 0,-1.87756 0,-1.91668 0,-1.87756 0,-1.87757 0,-1.87756 3.559621,0 3.598737,0 3.55962,0 3.598737,0 3.559621,0 3.598737,0 3.598737,0 3.559621,0 3.598737,0 3.598737,0 3.559624,0 3.59873,0 3.59874,0 3.59874,0 3.55962,0 3.59874,0 0,1.87756 0,1.87757 0,1.87756 0,1.91668 0,1.87756 0,1.91668 0,1.87756 0,1.91668 -2.73817,0 -2.69906,0 -2.69905,0 -2.69905,0 -2.69906,0 -2.69905,0 -2.69905,0 -2.699054,0 0,1.17348 0,1.17348 0,1.17347 0,1.17348 0,1.17348 0,1.17347 0,1.17348 0,1.17348 -1.760252,0 -1.760252,0 -1.760252,0 -1.760252,0 -1.760251,0 -1.760252,0 -1.760252,0 -1.760252,0 z"
       style="fill:#da251d;fill-opacity:1;fill-rule:evenodd;stroke:none"
       inkscape:connector-curvature="0" />
    <path
       id="path2715"
       d="m 91.415745,136.51438 0,-1.17348 0,-1.17347 0,-1.17348 0,-1.17348 0,-1.17347 0,-1.17348 0,-1.17348 -2.19053,0 -2.19054,0 -2.19053,0 -2.15142,0 -2.19054,0 -2.15142,0 -2.19053,0 -2.15142,0 0,-1.91668 0,-1.87756 0,-1.91668 0,-1.87756 0,-1.91668 0,-1.87756 0,-1.87757 0,-1.87756 3.2858,0 3.32492,0 3.32492,0 3.32492,0 3.32492,0 3.28581,0 3.32492,0 3.324915,0 3.32492,0 3.32492,0 3.32492,0 3.32492,0 3.32492,0 3.32492,0 3.32492,0 3.32492,0 0,1.87756 0,1.87757 0,1.87756 0,1.91668 0,1.87756 0,1.91668 0,1.87756 0,1.91668 -2.73817,0 -2.73817,0 -2.73817,0 -2.73817,0 -2.73817,0 -2.73817,0 -2.73817,0 -2.69905,0 0,1.17348 0,1.17348 0,1.17347 0,1.17348 0,1.17348 0,1.17347 0,1.17348 0,1.17348 -1.72114,0 -1.76025,0 -1.72113,0 -1.721135,0 -1.72114,0 -1.72113,0 -1.76025,0 -1.72114,0 z"
       style="fill:#da251d;fill-opacity:1;fill-rule:evenodd;stroke:none"
       inkscape:connector-curvature="0" />
    <path
       id="path2731"
       d="m 8.840376,102.87471 0,-2.4643 0,-2.4643 0,-2.4643 0,-2.46431 0,-2.50341 0,-2.4643 0,-2.50342 2.816403,0 2.816403,0 2.816403,0 2.85552,0 2.816403,0 2.85552,0 2.855519,0 2.816403,0 0,2.4643 0,2.4643 0,2.4643 0,2.4643 0,2.50342 0,2.4643 0,2.4643 0,2.50342 -2.816403,0 -2.816403,0 -2.816403,0 -2.855519,0 -2.816403,0 -2.85552,0 -2.816403,0 -2.85552,0 z"
       style="fill:#da251d;fill-opacity:1;fill-rule:evenodd;stroke:none"
       inkscape:connector-curvature="0" />
    <path
       id="path2733"
       d="m 39.077592,102.87471 0,-2.4643 0,-2.4643 0,-2.4643 0,-2.46431 0,-2.50341 0,-2.4643 0,-2.50342 3.598737,0 3.598736,0 3.55962,0 3.59874,0 3.59874,0 3.59873,0 3.59874,0 3.59874,0 3.59873,0 3.59874,0 3.59874,0 3.63785,0 3.59874,0 3.59874,0 3.59873,0 3.59874,0 0,2.4643 0,2.4643 0,2.4643 0,2.4643 0,2.50342 0,2.4643 0,2.4643 0,2.50342 -3.59874,0 -3.59873,0 -3.55962,0 -3.59874,0 -3.59874,0 -3.59873,0 -3.59874,0 -3.59874,0 -3.59874,0 -3.59873,0 -3.59874,0 -3.63785,0 -3.59874,0 -3.59874,0 -3.598736,0 -3.598737,0 z"
       style="fill:#da251d;fill-opacity:1;fill-rule:evenodd;stroke:none"
       inkscape:connector-curvature="0" />
    <path
       id="path2735"
       d="m 104.48073,102.87471 0,-2.4643 0,-2.4643 0,-2.4643 0,-2.46431 0,-2.50341 0,-2.4643 0,-2.50342 2.81641,0 2.8164,0 2.8164,0 2.85552,0 2.81641,0 2.85551,0 2.81641,0 2.85552,0 0,2.4643 0,2.4643 0,2.4643 0,2.4643 0,2.50342 0,2.4643 0,2.4643 0,2.50342 -2.81641,0 -2.8164,0 -2.8164,0 -2.85552,0 -2.8164,0 -2.85552,0 -2.85552,0 -2.81641,0 z"
       style="fill:#da251d;fill-opacity:1;fill-rule:evenodd;stroke:none"
       inkscape:connector-curvature="0" />
    <path
       id="path2739"
       d="m 0,75.25889 0,-2.4643 0,-2.50342 0,-2.4643 0,-2.4643 0,-2.46431 0,-2.4643 0,-2.4643 2.85552,0 2.855519,0 2.85552,0 2.85552,0 2.85552,0 2.894636,0 2.85552,0 2.855519,0 0,1.13436 0,1.13436 0,1.13436 0,1.09525 0,1.17348 0,1.13436 0,1.13436 0,1.13436 1.838486,0 1.838485,0 1.838485,0 1.838486,0 1.838485,0 1.838485,0 1.838486,0 1.838485,0 1.838485,0 1.838485,0 1.877602,0 1.838486,0 1.83849,0 1.83848,0 1.83849,0 1.8776,0 0,-1.13436 0,-1.13436 0,-1.13436 0,-1.17348 0,-1.09525 0,-1.13436 0,-1.13436 0,-1.13436 1.91672,0 1.95583,0 1.95584,0 1.95583,0 1.95584,0 1.91672,0 1.95583,0 1.95584,0 1.95583,0 1.95584,0 1.95583,0 1.95584,0 1.95583,0 1.95584,0 1.95584,0 1.99495,0 0,1.13436 0,1.13436 0,1.13436 0,1.09525 0,1.17348 0,1.13436 0,1.13436 0,1.13436 1.83848,0 1.83849,0 1.83848,0 1.87761,0 1.83848,0 1.83849,0 1.8776,0 1.83848,0 1.877615,0 1.83848,0 1.8776,0 1.83849,0 1.8776,0 1.83849,0 1.8776,0 1.8776,0 0,-1.13436 0,-1.13436 0,-1.13436 0,-1.17348 0,-1.09525 0,-1.13436 0,-1.13436 0,-1.13436 2.8164,0 2.81641,0 2.8164,0 2.8164,0 2.85552,0 2.85552,0 2.8164,0 2.85552,0 0,2.4643 0,2.4643 0,2.46431 0,2.4643 0,2.4643 0,2.50342 0,2.4643 0,2.50341 -8.48832,0 -8.52744,0 -8.48833,0 -8.48833,0 -8.488325,0 -8.52744,0 -8.48833,0 -8.48833,0 -8.48832,0 -8.48833,0 -8.52744,0 -8.488325,0 -8.488326,0 -8.488326,0 -8.527442,0 -8.488326,0 z"
       style="fill:#da251d;fill-opacity:1;fill-rule:evenodd;stroke:none"
       inkscape:connector-curvature="0" />
    <path
       id="path2743"
       d="m 30.471916,58.08701 0,-1.13436 0,-1.13436 0,-1.13436 0,-1.13437 0,-1.13436 0,-1.13436 0,-1.09524 -1.056151,-0.0391 -1.017035,-0.0391 -1.056151,-0.0391 -1.017034,0 -1.056151,-0.0391 -1.017035,-0.0391 -1.017034,-0.0391 -1.017035,0 2.816403,-3.12927 2.816403,-3.12927 2.85552,-3.12927 2.816403,-3.09016 2.816403,-3.12927 2.85552,-3.12927 2.816403,-3.12927 2.85552,-3.12928 2.85552,-3.09015 2.8164,-3.12927 2.85552,-3.12928 2.81641,-3.12927 2.85551,-3.09015 2.85552,-3.12927 2.81641,-3.12928 L 67.593675,0 l 0.2347,0 0.2347,0 2.8164,3.09016 2.85552,3.09015 2.8164,3.09016 2.81641,3.09016 2.8164,3.09015 2.85552,3.09016 2.8164,3.09015 2.85552,3.09016 2.8164,3.09015 2.81641,3.09016 2.85552,3.12927 2.816395,3.09016 2.85552,3.09015 2.8164,3.09016 2.85552,3.09016 2.85553,3.09015 0,0.2347 0,0.23469 -1.01703,0 -0.97793,0.0391 -0.97792,0.0391 -0.97791,0.0391 -0.97792,0 -0.97792,0.0391 -0.9388,0.0391 -0.97792,0.0391 -0.0782,1.09524 -0.0391,1.13436 -0.0391,1.13436 -0.0391,1.13437 -0.0391,1.13436 -0.0391,1.13436 0,1.13436 -0.0391,1.13436 -1.72113,0 -1.76026,0 -1.72112,0 -1.721145,0 -1.72114,0 -1.72113,0 -1.76025,0 -1.72114,0 0,-1.13436 -0.0391,-1.13436 0,-1.13436 0,-1.13436 -0.0391,-1.13437 0,-1.13436 0,-1.13436 0,-1.09524 -2.93375,0 -2.89464,0 -2.93375,0 -2.93376,0 -2.93375,0 -2.89464,0 -2.93375,0 -2.93375,0 -2.89464,0 -2.93375,0 -2.93376,0 -2.89463,0 -2.93375,0 -2.89464,0 -2.93375,0 -2.894641,0 -0.03912,1.09524 0,1.13436 -0.03912,1.13436 0,1.13437 0,1.13436 0,1.13436 0,1.13436 0,1.13436 -1.760252,0 -1.760252,0 -1.760252,0 -1.760252,0 -1.760251,0 -1.760252,0 -1.760252,0 -1.760252,0 z"
       style="fill:#da251d;fill-opacity:1;fill-rule:evenodd;stroke:none"
       inkscape:connector-curvature="0" />
  </g>
  <!-- EMR_SELECTPALETTE -->
  <!-- EMR_EXTSELECTCLIPRGN -->
</svg>
