<?xml version="1.0" encoding="UTF-8" standalone="no"?>
<svg
   xmlns:dc="http://purl.org/dc/elements/1.1/"
   xmlns:cc="http://creativecommons.org/ns#"
   xmlns:rdf="http://www.w3.org/1999/02/22-rdf-syntax-ns#"
   xmlns:svg="http://www.w3.org/2000/svg"
   xmlns="http://www.w3.org/2000/svg"
   id="svg2"
   version="1.1"
   width="444.36581"
   height="372.30502">
  <metadata
     id="metadata71">
    <rdf:RDF>
      <cc:Work
         rdf:about="">
        <dc:format>image/svg+xml</dc:format>
        <dc:type
           rdf:resource="http://purl.org/dc/dcmitype/StillImage" />
        <dc:title></dc:title>
      </cc:Work>
    </rdf:RDF>
  </metadata>
  <defs
     id="defs69" />
  <path
     style="fill:#ffffff;fill-opacity:1;fill-rule:evenodd;stroke:none"
     d="m 211.19111,372.10943 -1.8776,-0.19558 -1.91672,-0.19558 -1.8776,-0.19558 -1.8776,-0.19558 -1.91672,-0.19558 -1.8776,-0.19558 -1.8776,-0.19558 -1.91672,-0.19558 -1.8776,-0.19558 -1.87761,-0.19558 -1.8776,-0.19558 -1.91672,-0.19558 -1.8776,-0.19558 -1.8776,-0.19557 -1.91672,-0.19558 0,-7.82318 0,-7.8623 0,-7.86229 0,-7.8623 0,-7.82318 0,-7.86229 0,-7.8623 0,-7.82318 0,-7.86229 0,-7.8623 0,-7.82318 0,-7.86229 0,-7.82318 0,-7.8623 0,-7.82318 0,-7.86229 1.25174,0 1.29085,0 1.25173,0 1.25174,0 1.29085,0 1.25173,0 1.29085,0 1.29085,0 0,0.82143 0,0.82143 0,0.82144 0,0.82143 0,0.82144 0,0.82143 0,0.82143 0,0.82144 1.32997,0 1.36909,0 1.36908,0 1.36909,0 1.36908,0 1.36909,0 1.36908,0 1.4082,0 0,-0.82144 0,-0.82143 0,-0.82143 0,-0.82144 0,-0.82143 0,-0.82144 0,-0.82143 0,-0.82143 1.60379,0 1.60378,0 1.6429,0 1.64291,0 1.60378,0 1.6429,0 1.64291,0 1.6429,0 0,0.82143 0,0.82143 0,0.82144 0,0.82143 0,0.82144 0,0.82143 0,0.82143 0,0.82144 1.36908,0 1.32997,0 1.36908,0 1.36909,0 1.36908,0 1.36909,0 1.4082,0 1.36909,0 0,-0.82144 0,-0.82143 0,-0.82143 0,-0.82144 0,-0.82143 0,-0.82144 0,-0.82143 0,-0.82143 1.56466,0 1.60379,0 1.56467,0 1.60377,0 1.60379,0 1.56467,0 1.60378,0 1.60379,0 0,0.78232 0,0.78231 0,0.78232 0,0.78232 0,0.78232 0,0.78231 0,0.78232 0,0.78232 1.4082,0 1.36908,0 1.4082,0 1.36909,0 1.4082,0 1.4082,0 1.40821,0 1.4082,0 0,-0.78232 0,-0.78232 0,-0.78231 0,-0.78232 0,-0.78232 0,-0.78232 0,-0.78231 0,-0.78232 1.25174,0 1.25173,0 1.29085,0 1.25173,0 1.29085,0 1.25174,0 1.29085,0 1.29085,0 -0.0391,7.82318 0,7.86229 0,7.82318 -0.0391,7.82318 0,7.82318 -0.0391,7.82318 0,7.82318 0,7.86229 -0.0391,7.82318 0,7.82318 0,7.8623 -0.0391,7.82318 0,7.82318 -0.0391,7.86229 0,7.82318 0,7.82318 -3.05111,0.31293 -3.0511,0.27381 -3.01198,0.23469 -3.05111,0.27382 -3.0511,0.23469 -3.0511,0.19558 -3.05111,0.2347 -3.0511,0.19558 -3.0511,0.19557 -3.05111,0.19558 -3.0511,0.19558 -3.0511,0.15647 -3.05111,0.19558 -3.01198,0.15646 -3.01199,0.15646 -3.0511,0.15647 z"
     id="path2611" />
  <path
     style="fill:#fcdb00;fill-opacity:1;fill-rule:evenodd;stroke:none"
     d="m 171.76147,367.25906 -2.46435,-0.62586 -2.50347,-0.62585 -2.50347,-0.66497 -2.46435,-0.66497 -2.50347,-0.66497 -2.46435,-0.70409 -2.46436,-0.66497 -2.46435,-0.70409 -2.42524,-0.7432 -2.46435,-0.7432 -2.38612,-0.70409 -2.42523,-0.78231 -2.38612,-0.74321 -2.347,-0.7432 -2.30789,-0.78232 0,-10.6004 0,-10.60041 0,-10.56129 0,-10.60041 0,-10.60041 0,-10.56129 0,-10.60041 0,-10.56129 0,-10.60041 0,-10.56129 0,-10.60041 0,-10.56129 0,-10.60041 0,-10.56129 0,-10.56129 0,-10.60041 1.99495,0.66497 1.52555,0.5085 1.13439,0.35205 0.89968,0.31292 0.7041,0.27382 0.62587,0.23469 0.66498,0.27381 0.82146,0.35205 1.4082,0.86055 1.4082,0.89966 1.36908,0.93878 1.36909,0.93878 1.32997,1.01702 1.29085,1.01701 1.29085,1.05613 1.25173,1.09525 1.21262,1.13436 1.21262,1.13436 1.1735,1.17347 1.13438,1.2126 1.09527,1.25171 1.09527,1.29082 1.05615,1.29082 1.01704,1.32995 0.97791,1.32994 0.9388,1.40817 0.89969,1.40817 0.89968,1.44729 0.82145,1.44729 0.82146,1.4864 0.74321,1.52552 0.74322,1.52552 0.7041,1.56464 0.62587,1.60375 0.62587,1.60375 0.54763,1.60375 0.54763,1.68199 0.4694,1.64286 0.43029,1.7211 0.43028,1.7211 -1.48643,0 -1.44732,0 -1.48644,0 -1.44731,0 -1.48644,0 -1.44732,0 -1.48643,0 -1.44732,0 0,-0.82143 0,-0.82144 0,-0.82143 0,-0.82143 0,-0.82144 0,-0.78232 0,-0.82143 0,-0.78232 -1.44732,0 -1.4082,0 -1.44732,0 -1.44732,0 -1.4082,0 -1.4082,0 -1.44732,0 -1.4082,0 0,0.78232 0,0.82143 0,0.78232 0,0.82144 0,0.82143 0,0.82143 0,0.82144 0,0.82143 -1.44732,0 -1.44732,0 -1.44731,0 -1.44732,0 0,1.32994 0,1.36906 0,1.36906 0,1.36905 0,1.36906 0,1.36905 0,1.36906 0,1.36906 1.44732,0 1.44731,0 1.44732,0 1.44732,0 0,0.82143 0,0.82143 0,0.82144 0,0.82143 0,0.82144 0,0.82143 0,0.82143 0,0.82144 1.4082,0 1.44732,0 1.4082,0 1.4082,0 1.44732,0 1.44732,0 1.4082,0 1.44732,0 0,-0.82144 0,-0.82143 0,-0.82143 0,-0.82144 0,-0.82143 0,-0.82144 0,-0.82143 0,-0.82143 1.52555,0 1.52555,0 1.52555,0 1.52556,0 1.52555,0 1.52555,0 1.56467,0 1.56467,0 0,4.49833 0,4.49832 0,4.45922 0,4.49832 0,4.49833 0,4.49833 0,4.49833 0,4.49833 0,4.45921 0,4.49833 0,4.49832 0,4.49833 0,4.49833 0,4.49833 0,4.49833 0,4.49833 -1.56467,0 -1.56467,0 -1.52555,0 -1.52555,0 -1.52556,0 -1.52555,0 -1.52555,0 -1.52555,0 0,-0.82144 0,-0.82143 0,-0.82144 0,-0.82143 0,-0.78232 0,-0.82143 0,-0.78232 0,-0.82143 -1.44732,0 -1.4082,0 -1.44732,0 -1.44732,0 -1.4082,0 -1.4082,0 -1.44732,0 -1.4082,0 0,0.82143 0,0.78232 0,0.82143 0,0.78232 0,0.82143 0,0.82144 0,0.82143 0,0.82144 -1.44732,0 -1.44732,0 -1.44731,0 -1.44732,0 0,1.40817 0,1.40817 0,1.40817 0,1.40817 0,1.40818 0,1.40817 0,1.40817 0,1.40817 1.44732,0 1.44731,0 1.44732,0 1.44732,0 0,0.74321 0,0.78231 0,0.78232 0,0.78232 0,0.78232 0,0.78232 0,0.78231 0,0.82144 1.4082,0 1.44732,0 1.4082,0 1.4082,0 1.44732,0 1.44732,0 1.4082,0 1.44732,0 0,-0.82144 0,-0.78231 0,-0.78232 0,-0.78232 0,-0.78232 0,-0.78232 0,-0.78231 0,-0.74321 1.52555,0 1.52555,0 1.52555,0 1.52556,0 1.52555,0 1.52555,0 1.56467,0 1.56467,0 0,2.54254 0,2.58165 0,2.54253 0,2.58165 0,2.58165 0,2.54253 0,2.58165 0,2.54253 0,2.58165 0,2.58165 0,2.54254 0,2.58164 0,2.58165 0,2.58165 0,2.58165 0,2.54254 -0.43029,0 -0.35205,0 z"
     id="path2613" />
  <path
     style="fill:#fcdb00;fill-opacity:1;fill-rule:evenodd;stroke:none"
     d="m 269.78794,365.06857 0,-2.58165 0,-2.54254 0,-2.54253 0,-2.58165 0,-2.54253 0,-2.54254 0,-2.58164 0,-2.54254 0,-2.54253 0,-2.54253 0,-2.58165 0,-2.54254 0,-2.54253 0,-2.54253 0,-2.54254 1.52555,0 1.52556,0 1.52554,0 1.52556,0 1.56467,0 1.52554,0 1.52556,0 1.56467,0 0,0.74321 0,0.78231 0,0.78232 0,0.78232 0,0.78232 0,0.78232 0,0.78231 0,0.82144 1.36907,0 1.32997,0 1.3691,0 1.36907,0 1.36909,0 1.36908,0 1.36909,0 1.4082,0 0,-0.82144 0,-0.78231 0,-0.78232 0,-0.78232 0,-0.78232 0,-0.78232 0,-0.78231 0,-0.74321 1.21262,0 1.25173,0 1.21263,0 1.25172,0 0,-1.40817 0,-1.40817 0,-1.40817 0,-1.40818 0,-1.40817 0,-1.40817 0,-1.40817 0,-1.40817 -1.25172,0 -1.21263,0 -1.25173,0 -1.21262,0 0,-0.82144 0,-0.82143 0,-0.82144 0,-0.82143 0,-0.78232 0,-0.82143 0,-0.78232 0,-0.82143 -1.4082,0 -1.36909,0 -1.36908,0 -1.36909,0 -1.36908,0 -1.36909,0 -1.32997,0 -1.36908,0 0,0.82143 0,0.78232 0,0.82143 0,0.78232 0,0.82143 0,0.82144 0,0.82143 0,0.82144 -1.56467,0 -1.52555,0 -1.52555,0 -1.56467,0 -1.52555,0 -1.52555,0 -1.52555,0 -1.52556,0 0,-4.49833 0,-4.49833 0,-4.49833 0,-4.49833 0,-4.49833 0,-4.49832 0,-4.49833 0,-4.45921 0,-4.49833 0,-4.49833 0,-4.49833 0,-4.49833 0,-4.49832 0,-4.45922 0,-4.49832 0,-4.49833 1.52556,0 1.52555,0 1.52555,0 1.52555,0 1.56467,0 1.52555,0 1.52555,0 1.56467,0 0,0.82143 0,0.82143 0,0.82144 0,0.82143 0,0.82144 0,0.82143 0,0.82143 0,0.82144 1.36908,0 1.32997,0 1.3691,0 1.36907,0 1.36909,0 1.36908,0 1.36909,0 1.4082,0 0,-0.82144 0,-0.82143 0,-0.82143 0,-0.82144 0,-0.82143 0,-0.82144 0,-0.82143 0,-0.82143 1.32997,0 1.36908,0 1.36909,0 1.4082,0 0,-1.36906 0,-1.36906 0,-1.36905 0,-1.36906 0,-1.36905 0,-1.36906 0,-1.36906 0,-1.32994 -1.4082,0 -1.36909,0 -1.36908,0 -1.32997,0 0,-0.82143 0,-0.82144 0,-0.82143 0,-0.82143 0,-0.82144 0,-0.78232 0,-0.82143 0,-0.78232 -1.4082,0 -1.36909,0 -1.36908,0 -1.36909,0 -1.36908,0 -1.36909,0 -1.32997,0 -1.36908,0 0,0.78232 0,0.82143 0,0.78232 0,0.82144 0,0.82143 0,0.82143 0,0.82144 0,0.82143 -1.48644,0 -1.48643,0 -1.52555,0 -1.48644,0 -1.48643,0 -1.48644,0 -1.48643,0 -1.52555,0 0.2347,-1.17347 0.2347,-1.13437 0.27381,-1.13436 0.31294,-1.09524 0.35205,-1.13436 0.35206,-1.09525 0.39116,-1.09524 0.39117,-1.09525 0.46939,-1.05613 0.43029,-1.09524 0.50851,-1.05613 0.50852,-1.05613 0.50852,-1.05613 0.54763,-1.01701 0.58675,-1.01702 0.58675,-1.01701 1.21262,-1.99491 1.29085,-1.99491 1.32997,-1.91668 1.36909,-1.87756 1.4082,-1.83845 1.44732,-1.79933 1.44731,-1.76022 1.48644,-1.68198 1.32997,-1.21259 1.29085,-1.17348 1.25173,-1.05613 1.25174,-1.01701 1.21262,-0.93878 1.25174,-0.89967 1.25173,-0.82143 1.25173,-0.78232 1.29085,-0.78232 1.29085,-0.70409 1.36909,-0.66497 1.44732,-0.66497 1.48643,-0.62585 1.52555,-0.58674 1.6429,-0.62585 1.72114,-0.58674 0,10.56129 -0.0391,10.56129 0,10.56129 0,10.5613 -0.0391,10.56129 0,10.60041 -0.0391,10.56129 0,10.56129 0,10.56129 -0.0391,10.56129 0,10.5613 0,10.6004 -0.0391,10.5613 0,10.56129 0,10.56129 -0.0391,10.60041 -2.50347,0.82143 -2.50347,0.82144 -2.46435,0.78231 -2.50347,0.78232 -2.46435,0.7432 -2.46436,0.74321 -2.50347,0.7432 -2.46435,0.70409 -2.46435,0.70408 -2.46435,0.66497 -2.46436,0.66497 -2.46435,0.62586 -2.46435,0.62585 -2.46435,0.58674 -2.46436,0.58674 -2.50347,0.54762 z"
     id="path2615" />
  <g
     id="g3396">
    <path
       id="path2617"
       d="m 126.03404,353.13822 -0.15647,-0.11735 -0.0782,-0.0782 0,-0.15647 0.31293,0 0.31294,0 0.35205,0 0.35204,0 0,0.2347 0,0.31293 -0.43029,0 -0.35205,0 z"
       style="fill:#da251d;fill-opacity:1;fill-rule:evenodd;stroke:none" />
    <path
       id="path2619"
       d="m 317.47121,352.5906 0,-0.35205 0.46939,0 0.46941,0 0.4694,0 0.4694,0 0,0.11735 0,0.19558 -0.4694,0.11735 -0.4694,0.11734 -0.46941,0.11735 -0.46939,0.11735 z"
       style="fill:#da251d;fill-opacity:1;fill-rule:evenodd;stroke:none" />
    <path
       id="path2621"
       d="m 107.2189,344.4936 -0.86056,-0.46939 -0.82146,-0.43027 -0.82145,-0.43028 -0.0391,-2.26872 -0.0391,-2.30784 0,-2.26872 -0.0391,-2.26872 -0.0391,-2.30784 -0.0391,-2.26872 0,-2.30784 -0.0391,-2.26872 2.81641,0 2.8164,0 2.8164,0 2.85552,0 2.81641,0 2.85551,0 2.81641,0 2.85552,0 0,2.50342 0,2.50342 0,2.50341 0,2.50342 0,2.50342 0,2.50341 0,2.54254 0,2.50342 -2.38612,0 -2.38612,0 -2.38612,0 -2.38612,0 -2.38612,0 -2.38612,0 -2.38612,0 -2.347,0 z"
       style="fill:#da251d;fill-opacity:1;fill-rule:evenodd;stroke:none" />
    <path
       id="path2623"
       d="m 317.47121,342.42046 0,-2.54253 0,-2.54253 0,-2.54254 0,-2.54253 0,-2.54253 0,-2.54254 0,-2.50341 2.81639,0 2.81641,0 2.81641,0 2.85551,0 2.81641,0 2.85551,0 2.81642,0 2.85552,0 -0.0391,2.2296 0,2.22961 -0.0391,2.2296 -0.0391,2.26873 -0.0391,2.2296 0,2.26872 -0.0391,2.26873 -0.0391,2.2296 -1.05615,0.54762 -1.05615,0.50851 -1.01703,0.58674 -1.01704,0.54762 -2.26877,0 -2.30788,0.0391 -2.26877,0 -2.26877,0 -2.30788,0.0391 -2.26877,0.0391 -2.30789,0 -2.26877,0.0391 z"
       style="fill:#da251d;fill-opacity:1;fill-rule:evenodd;stroke:none" />
    <path
       id="path2625"
       d="m 93.410695,337.1007 -2.77728,-1.68198 -2.73817,-1.68199 -2.73817,-1.68198 -2.69905,-1.7211 -2.62082,-1.68198 -2.54259,-1.64287 -2.42523,-1.64287 2.69905,-0.0782 2.73817,-0.0391 2.73817,-0.0782 2.69905,-0.0391 2.73817,-0.0782 2.73817,-0.0391 2.69905,-0.0782 2.73817,-0.0391 0,1.7211 0,1.7211 0,1.7211 0,1.76021 0,1.7211 0,1.7211 0,1.7211 0,1.7211 -0.31293,0 -0.2347,0 z"
       style="fill:#da251d;fill-opacity:1;fill-rule:evenodd;stroke:none" />
    <path
       id="path2627"
       d="m 347.70843,336.74866 0,-1.7211 0,-1.7211 0,-1.7211 0,-1.76022 0,-1.7211 0,-1.7211 0,-1.72109 2.73817,0.0391 2.73817,0 2.73817,0.0391 2.73817,0.0391 2.73816,0.0391 2.73817,0 2.77729,0.0391 2.73817,0.0391 -2.69905,1.76022 -2.73817,1.76021 -2.77729,1.7211 -2.73817,1.7211 -2.77728,1.7211 -2.77729,1.64287 -2.73817,1.64286 -2.69905,1.60376 z"
       style="fill:#da251d;fill-opacity:1;fill-rule:evenodd;stroke:none" />
    <path
       id="path2629"
       d="m 60.474435,315.00022 -3.01199,-2.42519 -3.01199,-2.4643 -2.97287,-2.50342 -2.89463,-2.50341 -2.81641,-2.4643 -2.699049,-2.46431 -2.581703,-2.38607 3.20757,-0.0782 3.207572,-0.0391 3.20757,-0.0782 3.20757,-0.0391 3.20757,-0.0782 3.20757,-0.0391 3.24669,-0.0782 3.20757,-0.0391 0,2.4643 0,2.50342 0,2.50342 0,2.54253 0,2.50342 0,2.50342 0,2.54253 0,2.50342 -0.7041,0 -0.66499,0 -0.62587,0 -0.66498,0 z"
       style="fill:#da251d;fill-opacity:1;fill-rule:evenodd;stroke:none" />
    <path
       id="path2631"
       d="m 74.008815,314.88287 0,-2.50342 0,-2.50341 0,-2.50342 0,-2.50342 0,-2.50342 0,-2.54253 0,-2.50342 3.2858,0 3.32492,0 3.32492,0 3.32492,0 3.32492,0 3.28581,0 3.32492,0 3.324915,0 3.32492,0 3.32492,0 3.32492,0 3.32492,0 3.32492,0 3.32492,0 3.32492,0 3.32492,0 0,2.4643 0,2.50342 0,2.50342 0,2.54253 0,2.50342 0,2.50342 0,2.54253 0,2.50342 -3.32492,0 -3.28581,0 -3.32492,0 -3.32492,0 -3.32492,0 -3.32492,0 -3.2858,0 -3.32492,0 -3.324915,0 -3.32492,0 -3.32492,0 -3.32492,0 -3.32492,0 -3.32492,0 -3.32492,0 -3.32492,0 z"
       style="fill:#da251d;fill-opacity:1;fill-rule:evenodd;stroke:none" />
    <path
       id="path2633"
       d="m 317.47121,314.88287 0,-2.54253 0,-2.54254 0,-2.54253 0,-2.54253 0,-2.54254 0,-2.54253 0,-2.54253 3.55962,0 3.59874,0 3.55962,0 3.59874,0 3.55962,0 3.59873,0 3.59874,0 3.55962,0 3.59874,0 3.59874,0 3.55962,0 3.59873,0 3.59874,0 3.55962,0 3.59874,0 3.59874,0 0,2.50342 0,2.54253 0,2.54253 0,2.54254 0,2.54253 0,2.54253 0,2.54254 0,2.54253 -3.55962,0 -3.59874,0 -3.55962,0 -3.59874,0 -3.55962,0 -3.59874,0 -3.59873,0 -3.55962,0 -3.59874,0 -3.59874,0 -3.55962,0 -3.59874,0 -3.59873,0 -3.59874,0 -3.55962,0 -3.59874,0 z"
       style="fill:#da251d;fill-opacity:1;fill-rule:evenodd;stroke:none" />
    <path
       id="path2635"
       d="m 382.63965,313.20089 0,-2.30784 0,-2.30784 0,-2.30784 0,-2.30783 0,-2.30784 0,-2.30784 0,-2.26872 2.62082,0 2.65992,0 2.62082,0 2.62082,0 2.65994,0 2.62082,0 2.65993,0 2.62082,0 -1.1735,1.21259 -1.1735,1.25171 -1.25173,1.21259 -1.29086,1.17348 -1.29085,1.21259 -1.32996,1.17348 -1.32997,1.17348 -1.36909,1.13436 -2.73817,2.30783 -2.73817,2.22961 -2.73817,2.19049 -2.65993,2.15138 z"
       style="fill:#da251d;fill-opacity:1;fill-rule:evenodd;stroke:none" />
    <path
       id="path2637"
       d="m 39.077592,287.22793 0,-2.4643 0,-2.50342 0,-2.50341 0,-2.50342 0,-2.50342 0,-2.50342 0,-2.50341 3.598737,0 3.598736,0 3.55962,0 3.59874,0 3.59874,0 3.59873,0 3.59874,0 3.59874,0 3.59873,0 3.59874,0 3.59874,0 3.63785,0 3.59874,0 3.59874,0 3.59873,0 3.59874,0 0,2.4643 0,2.50342 0,2.50341 0,2.50342 0,2.4643 0,2.50342 0,2.54253 0,2.50342 -3.59874,0 -3.59873,0 -3.55962,0 -3.59874,0 -3.59874,0 -3.59873,0 -3.59874,0 -3.59874,0 -3.59874,0 -3.59873,0 -3.59874,0 -3.63785,0 -3.59874,0 -3.59874,0 -3.598736,0 -3.598737,0 z"
       style="fill:#da251d;fill-opacity:1;fill-rule:evenodd;stroke:none" />
    <path
       id="path2639"
       d="m 104.48073,287.22793 0,-2.4643 0,-2.50342 0,-2.50341 0,-2.50342 0,-2.50342 0,-2.50342 0,-2.50341 2.81641,0 2.8164,0 2.8164,0 2.85552,0 2.81641,0 2.85551,0 2.81641,0 2.85552,0 0,2.4643 0,2.50342 0,2.50341 0,2.50342 0,2.4643 0,2.50342 0,2.54253 0,2.50342 -2.81641,0 -2.8164,0 -2.8164,0 -2.85552,0 -2.8164,0 -2.85552,0 -2.85552,0 -2.81641,0 z"
       style="fill:#da251d;fill-opacity:1;fill-rule:evenodd;stroke:none" />
    <path
       id="path2641"
       d="m 317.47121,287.18882 0,-2.50342 0,-2.54253 0,-2.54254 0,-2.54253 0,-2.54253 0,-2.54254 0,-2.54253 2.81639,0 2.81641,0 2.81641,0 2.85551,0 2.81641,0 2.85551,0 2.81642,0 2.85552,0 0,2.50342 0,2.54253 0,2.54253 0,2.54254 0,2.54253 0,2.54253 0,2.54254 0,2.54253 -2.81641,0 -2.8164,0 -2.8164,0 -2.85552,0 -2.81642,0 -2.85551,0 -2.81641,0 -2.85551,0 z"
       style="fill:#da251d;fill-opacity:1;fill-rule:evenodd;stroke:none" />
    <path
       id="path2643"
       d="m 347.70843,287.18882 0,-2.50342 0,-2.54253 0,-2.54254 0,-2.54253 0,-2.54253 0,-2.54254 0,-2.54253 3.59873,0 3.59874,0 3.55962,0 3.59874,0 3.59874,0 3.59873,0 3.59874,0 3.59874,0 3.59873,0 3.59874,0 3.59874,0 3.63785,0 3.59874,0 3.59874,0 3.59873,0 3.59874,0 0,2.50342 0,2.54253 0,2.54253 0,2.54254 0,2.54253 0,2.54253 0,2.54254 0,2.54253 -3.59874,0 -3.59873,0 -3.55962,0 -3.59874,0 -3.59874,0 -3.59873,0 -3.59874,0 -3.59874,0 -3.59874,0 -3.59873,0 -3.63786,0 -3.59873,0 -3.59874,0 -3.59874,0 -3.59874,0 -3.59873,0 z"
       style="fill:#da251d;fill-opacity:1;fill-rule:evenodd;stroke:none" />
    <path
       id="path2645"
       d="m 28.985481,286.52385 -2.268769,-2.42519 -2.190536,-2.38607 -2.190535,-2.42519 -2.112303,-2.38606 -2.034069,-2.34696 -1.994952,-2.34695 -1.877602,-2.30784 2.112303,-0.0391 2.151419,-0.0391 2.151419,-0.0391 2.151418,0 2.151419,-0.0391 2.151419,0 2.151419,0 2.151419,0 -0.03912,2.38607 0,2.38607 -0.03912,2.42518 -0.03912,2.38607 -0.03912,2.42519 0,2.38607 -0.03912,2.42518 -0.03912,2.38607 z"
       style="fill:#da251d;fill-opacity:1;fill-rule:evenodd;stroke:none" />
    <path
       id="path2647"
       d="m 413.11156,285.81976 0,-2.34695 0,-2.34696 0,-2.34695 0,-2.34696 0,-2.34695 0,-2.30784 0,-2.34695 2.03406,0 2.0732,0.0391 2.03406,0.0391 2.07318,0.0391 2.03408,0 2.07318,0.0391 2.07318,0.0391 2.0732,0.0391 -1.95585,2.34696 -2.03407,2.34695 -1.99495,2.34696 -2.07318,2.30783 -2.07319,2.26873 -2.1123,2.26872 -2.1123,2.30784 -2.11231,2.30783 z"
       style="fill:#da251d;fill-opacity:1;fill-rule:evenodd;stroke:none" />
    <path
       id="path2649"
       d="m 8.840376,259.45565 0,-2.46431 0,-2.50341 0,-2.46431 0,-2.50341 0,-2.4643 0,-2.50342 0,-2.50342 3.559621,0 3.598737,0 3.55962,0 3.598737,0 3.559621,0 3.598737,0 3.598737,0 3.559621,0 3.598737,0 3.598737,0 3.559624,0 3.59873,0 3.59874,0 3.59874,0 3.55962,0 3.59874,0 0,2.4643 0,2.50342 0,2.4643 0,2.4643 0,2.50342 0,2.50342 0,2.4643 0,2.50342 -3.55962,0 -3.59874,0 -3.55962,0 -3.59874,0 -3.55962,0 -3.598737,0 -3.598737,0 -3.559621,0 -3.598737,0 -3.598737,0 -3.559621,0 -3.598737,0 -3.598737,0 -3.598737,0 -3.559621,0 -3.598737,0 z"
       style="fill:#da251d;fill-opacity:1;fill-rule:evenodd;stroke:none" />
    <path
       id="path2651"
       d="m 74.008815,259.45565 0,-2.46431 0,-2.50341 0,-2.46431 0,-2.50341 0,-2.4643 0,-2.50342 0,-2.50342 3.2858,0 3.32492,0 3.32492,0 3.32492,0 3.32492,0 3.28581,0 3.32492,0 3.324915,0 3.32492,0 3.32492,0 3.32492,0 3.32492,0 3.32492,0 3.32492,0 3.32492,0 3.32492,0 0,2.4643 0,2.50342 0,2.4643 0,2.4643 0,2.50342 0,2.50342 0,2.4643 0,2.50342 -3.32492,0 -3.28581,0 -3.32492,0 -3.32492,0 -3.32492,0 -3.32492,0 -3.2858,0 -3.32492,0 -3.324915,0 -3.32492,0 -3.32492,0 -3.32492,0 -3.32492,0 -3.32492,0 -3.32492,0 -3.32492,0 z"
       style="fill:#da251d;fill-opacity:1;fill-rule:evenodd;stroke:none" />
    <path
       id="path2653"
       d="m 317.47121,259.41653 0,-2.50342 0,-2.50342 0,-2.50341 0,-2.50342 0,-2.54253 0,-2.50342 0,-2.54253 3.55962,0 3.59874,0 3.55962,0 3.59874,0 3.55962,0 3.59873,0 3.59874,0 3.55962,0 3.59874,0 3.59874,0 3.55962,0 3.59873,0 3.59874,0 3.55962,0 3.59874,0 3.59874,0 0,2.50341 0,2.50342 0,2.50342 0,2.50342 0,2.54253 0,2.50342 0,2.50341 0,2.54254 -3.55962,0 -3.59874,0 -3.55962,0 -3.59874,0 -3.55962,0 -3.59874,0 -3.59873,0 -3.55962,0 -3.59874,0 -3.59874,0 -3.55962,0 -3.59874,0 -3.59873,0 -3.59874,0 -3.55962,0 -3.59874,0 z"
       style="fill:#da251d;fill-opacity:1;fill-rule:evenodd;stroke:none" />
    <path
       id="path2655"
       d="m 382.63965,259.41653 0,-2.50342 0,-2.50342 0,-2.50341 0,-2.50342 0,-2.54253 0,-2.50342 0,-2.54253 3.2858,0 3.32492,0 3.32492,0 3.32492,0 3.28581,0 3.32492,0 3.32492,0 3.32492,0 3.32492,0 3.32492,0 3.32492,0 3.32492,0 3.32492,0 3.32492,0 3.32492,0 3.32492,0 0,2.50341 0,2.50342 0,2.50342 0,2.50342 0,2.54253 0,2.50342 0,2.50341 0,2.54254 -3.32492,0 -3.28581,0 -3.32492,0 -3.32492,0 -3.32492,0 -3.32492,0 -3.2858,0 -3.32492,0 -3.32492,0 -3.32492,0 -3.32492,0 -3.32492,0 -3.32492,0 -3.32492,0 -3.32492,0 -3.32492,0 z"
       style="fill:#da251d;fill-opacity:1;fill-rule:evenodd;stroke:none" />
    <path
       id="path2659"
       d="m 8.840376,231.76159 0,-2.50342 0,-2.4643 0,-2.50342 0,-2.50341 0,-2.50342 0,-2.50342 0,-2.54253 2.816403,0 2.816403,0 2.816403,0 2.85552,0 2.816403,0 2.85552,0 2.855519,0 2.816403,0 0,2.50342 0,2.50341 0,2.4643 0,2.50342 0,2.50342 0,2.50342 0,2.50341 0,2.54254 -2.816403,0 -2.816403,0 -2.816403,0 -2.855519,0 -2.816403,0 -2.85552,0 -2.816403,0 -2.85552,0 z"
       style="fill:#da251d;fill-opacity:1;fill-rule:evenodd;stroke:none" />
    <path
       id="path2661"
       d="m 39.077592,231.76159 0,-2.50342 0,-2.4643 0,-2.50342 0,-2.50341 0,-2.50342 0,-2.50342 0,-2.54253 3.598737,0 3.598736,0 3.55962,0 3.59874,0 3.59874,0 3.59873,0 3.59874,0 3.59874,0 3.59873,0 3.59874,0 3.59874,0 3.63785,0 3.59874,0 3.59874,0 3.59873,0 3.59874,0 0,2.50342 0,2.50341 0,2.4643 0,2.50342 0,2.50342 0,2.50342 0,2.50341 0,2.54254 -3.59874,0 -3.59873,0 -3.55962,0 -3.59874,0 -3.59874,0 -3.59873,0 -3.59874,0 -3.59874,0 -3.59874,0 -3.59873,0 -3.59874,0 -3.63785,0 -3.59874,0 -3.59874,0 -3.598736,0 -3.598737,0 z"
       style="fill:#da251d;fill-opacity:1;fill-rule:evenodd;stroke:none" />
    <path
       id="path2663"
       d="m 104.48073,231.76159 0,-2.50342 0,-2.4643 0,-2.50342 0,-2.50341 0,-2.50342 0,-2.50342 0,-2.54253 2.81641,0 2.8164,0 2.8164,0 2.85552,0 2.81641,0 2.85551,0 2.81641,0 2.85552,0 0,2.50342 0,2.50341 0,2.4643 0,2.50342 0,2.50342 0,2.50342 0,2.50341 0,2.54254 -2.81641,0 -2.8164,0 -2.8164,0 -2.85552,0 -2.8164,0 -2.85552,0 -2.85552,0 -2.81641,0 z"
       style="fill:#da251d;fill-opacity:1;fill-rule:evenodd;stroke:none" />
    <path
       id="path2665"
       d="m 317.47121,231.76159 0,-2.50342 0,-2.4643 0,-2.50342 0,-2.50341 0,-2.50342 0,-2.50342 0,-2.54253 2.81639,0 2.81641,0 2.81641,0 2.85551,0 2.81641,0 2.85551,0 2.81642,0 2.85552,0 0,2.50342 0,2.50341 0,2.4643 0,2.50342 0,2.50342 0,2.50342 0,2.50341 0,2.54254 -2.81641,0 -2.8164,0 -2.8164,0 -2.85552,0 -2.81642,0 -2.85551,0 -2.81641,0 -2.85551,0 z"
       style="fill:#da251d;fill-opacity:1;fill-rule:evenodd;stroke:none" />
    <path
       id="path2667"
       d="m 347.70843,231.76159 0,-2.50342 0,-2.4643 0,-2.50342 0,-2.50341 0,-2.50342 0,-2.50342 0,-2.54253 3.59873,0 3.59874,0 3.55962,0 3.59874,0 3.59874,0 3.59873,0 3.59874,0 3.59874,0 3.59873,0 3.59874,0 3.59874,0 3.63785,0 3.59874,0 3.59874,0 3.59873,0 3.59874,0 0,2.50342 0,2.50341 0,2.4643 0,2.50342 0,2.50342 0,2.50342 0,2.50341 0,2.54254 -3.59874,0 -3.59873,0 -3.55962,0 -3.59874,0 -3.59874,0 -3.59873,0 -3.59874,0 -3.59874,0 -3.59874,0 -3.59873,0 -3.63786,0 -3.59873,0 -3.59874,0 -3.59874,0 -3.59874,0 -3.59873,0 z"
       style="fill:#da251d;fill-opacity:1;fill-rule:evenodd;stroke:none" />
    <path
       id="path2669"
       d="m 413.11156,231.76159 0,-2.50342 0,-2.4643 0,-2.50342 0,-2.50341 0,-2.50342 0,-2.50342 0,-2.54253 2.81641,0 2.8164,0 2.8164,0 2.85552,0 2.81641,0 2.85551,0 2.81641,0 2.85552,0 0,2.50342 0,2.50341 0,2.4643 0,2.50342 0,2.50342 0,2.50342 0,2.50341 0,2.54254 -2.81641,0 -2.8164,0 -2.8164,0 -2.85552,0 -2.8164,0 -2.85552,0 -2.85552,0 -2.81641,0 z"
       style="fill:#da251d;fill-opacity:1;fill-rule:evenodd;stroke:none" />
    <path
       id="path2671"
       d="m 183.45737,230.94016 0.39116,-1.68199 0.39117,-1.60375 0.43029,-1.52552 0.43028,-1.4864 0.43028,-1.40818 0.50852,-1.40817 0.50852,-1.36905 0.54763,-1.36906 0.58675,-1.32994 0.62587,-1.32994 0.66498,-1.36906 0.7041,-1.36905 0.78234,-1.40818 0.86057,-1.44728 0.89968,-1.48641 0.11735,1.44729 0.11735,1.32994 0.0782,1.44729 0.0391,1.87756 0.0782,2.54253 0.0391,3.52044 0.0782,4.73302 0.0782,6.21943 -1.25174,0.0391 -1.21261,0 -1.21262,0.0391 -1.25174,0.0391 -1.21262,0.0391 -1.21261,0 -1.21262,0.0391 -1.21262,0.0391 z"
       style="fill:#ffffff;fill-opacity:1;fill-rule:evenodd;stroke:none" />
    <path
       id="path2673"
       d="m 203.95452,230.62723 0,-2.07314 0,-2.07315 0,-2.03402 0,-2.07314 0,-2.07315 0,-2.07314 0,-2.07314 0,-2.03403 0,-2.07314 0,-2.07314 0,-2.07315 0,-2.07314 0,-2.07314 0,-2.03403 0,-2.07314 1.56467,-0.50851 1.60379,-0.46939 1.56466,-0.46939 1.56466,-0.43027 1.60379,-0.39116 1.6429,-0.31293 1.72114,-0.31293 1.76025,-0.23469 0,2.26872 0,2.22961 0,2.26872 0,2.26872 0,2.22961 0,2.26872 0,2.26872 0,2.26872 0,2.22961 0,2.26872 0,2.26872 0,2.26872 0,2.26873 0,2.26872 0,2.26872 0,2.26872 -1.6429,0 -1.6429,0 -1.6429,0 -1.60378,0 -1.64291,0 -1.6429,0 -1.60378,0 -1.60379,0 z"
       style="fill:#ffffff;fill-opacity:1;fill-rule:evenodd;stroke:none" />
    <path
       id="path2675"
       d="m 227.93307,230.43165 0,-2.26872 0,-2.26872 0,-2.26873 0,-2.26872 0,-2.26872 0,-2.26872 0,-2.22961 0,-2.26872 0,-2.26872 0,-2.26872 0,-2.22961 0,-2.26872 0,-2.26872 0,-2.22961 0,-2.26872 1.48642,0.19558 1.48645,0.27381 1.48642,0.27381 1.52556,0.39116 1.52555,0.39116 1.60379,0.46939 1.6429,0.54762 1.72114,0.58674 0.0391,2.07314 0,2.03403 0.0391,2.07314 0,2.07314 0,2.07315 0.0391,2.07314 0,2.07314 0,2.03403 0.0391,2.07314 0,2.07314 0.0391,2.07315 0,2.07314 0,2.03402 0.0391,2.07315 0,2.07314 0,2.07314 -1.60379,0 -1.60378,0 -1.56467,0 -1.60379,0 -1.60378,0 -1.56467,0 -1.60379,0 -1.56466,0 z"
       style="fill:#ffffff;fill-opacity:1;fill-rule:evenodd;stroke:none" />
    <path
       id="path2677"
       d="m 251.83337,229.72756 0,-2.9728 0,-2.9337 0,-2.9728 0,-2.9337 0,-2.97281 0,-2.9728 0,-2.9337 0.15647,0 0.19558,0.11735 0.19559,0.19558 0.19558,0.2347 0.4694,0.66497 0.50852,0.86055 0.58675,1.01701 0.58675,1.17348 0.58675,1.25171 0.62587,1.32994 1.1735,2.69899 1.05615,2.54254 0.82145,2.11225 0.50852,1.40818 0.19558,1.01701 0.19559,0.9779 0.2347,1.01701 0.19557,0.9779 0.19559,1.01701 0.2347,1.01702 0.23469,1.01701 0.2347,1.01701 -1.1735,0 -1.1735,0 -1.1735,0 -1.1735,0 -1.1735,0 -1.1735,0 -1.1735,0 -1.17351,0 z"
       style="fill:#ffffff;fill-opacity:1;fill-rule:evenodd;stroke:none" />
    <path
       id="path2679"
       d="m 265.05482,217.05401 -0.9388,-2.07314 -0.97792,-2.07314 -1.05615,-1.9558 -1.09528,-1.91668 -1.13437,-1.87756 -1.1735,-1.76021 -1.21262,-1.68199 0.0391,-0.23469 0.0782,-0.31293 0.11734,-0.35204 0.19558,-0.39116 0.46941,-0.89967 0.66498,-1.01701 0.78234,-1.17348 0.86056,-1.25171 0.9388,-1.29082 1.01705,-1.32994 2.03405,-2.65988 1.91673,-2.42519 1.60379,-2.03403 1.05615,-1.36905 2.93374,0 2.89464,0 2.93375,0 2.89464,0 2.93375,0.0391 2.93375,0 2.93376,0.0391 2.93375,0 -1.99495,1.68198 -1.95584,1.68199 -1.8776,1.64287 -1.8776,1.72109 -1.83849,1.7211 -1.83848,1.76022 -1.83849,1.79933 -1.8776,1.83845 -1.52555,2.2296 -1.52555,2.22961 -1.48644,2.26872 -1.44731,2.30784 -1.44732,2.26872 -1.4082,2.30784 -1.40821,2.30784 -1.36908,2.34695 z"
       style="fill:#da251d;fill-opacity:1;fill-rule:evenodd;stroke:none" />
    <path
       id="path2681"
       d="m 177.62898,217.36694 -0.78234,-1.52552 -0.78233,-1.4864 -0.82145,-1.44729 -0.78234,-1.40817 -0.82145,-1.36906 -0.82145,-1.29083 -0.86056,-1.32994 -0.86057,-1.2517 -0.86057,-1.25171 -0.9388,-1.25171 -0.89968,-1.21259 -0.97792,-1.2126 -1.01704,-1.21259 -1.01703,-1.21259 -1.05615,-1.2126 -1.52555,-1.32994 -1.52557,-1.36905 -1.52555,-1.32994 -1.52555,-1.32994 -1.48643,-1.32994 -1.52556,-1.29083 -1.48643,-1.32994 -1.52555,-1.32994 2.42523,0 2.46436,-0.0391 2.42523,0 2.42524,-0.0391 2.46435,0 2.42524,0 2.46435,0 2.46435,0 1.6429,2.30784 1.64291,2.34695 1.6429,2.30784 1.68202,2.30784 1.6429,2.34695 1.68202,2.30784 1.68201,2.34695 1.64291,2.34696 -0.86057,1.64286 -0.86057,1.64287 -0.78233,1.64287 -0.82145,1.64287 -0.78234,1.64286 -0.82145,1.68199 -0.82145,1.7211 -0.89968,1.7211 z"
       style="fill:#da251d;fill-opacity:1;fill-rule:evenodd;stroke:none" />
    <path
       id="path2683"
       d="m 8.840376,204.38046 0,-2.54253 0,-2.50342 0,-2.54253 0,-2.54253 0,-2.54254 0,-2.58165 0,-2.54253 3.559621,0 3.598737,0 3.55962,0 3.598737,0 3.559621,0 3.598737,0 3.598737,0 3.559621,0 3.598737,0 3.598737,0 3.559624,0 3.59873,0 3.59874,0 3.59874,0 3.55962,0 3.59874,0 0,2.54253 0,2.50342 0,2.54253 0,2.54254 0,2.54253 0,2.54253 0,2.54254 0,2.58165 -3.55962,0 -3.59874,0 -3.55962,0 -3.59874,0 -3.55962,0 -3.598737,0 -3.598737,0 -3.559621,0 -3.598737,0 -3.598737,0 -3.559621,0 -3.598737,0 -3.598737,0 -3.598737,0 -3.559621,0 -3.598737,0 z"
       style="fill:#da251d;fill-opacity:1;fill-rule:evenodd;stroke:none" />
    <path
       id="path2685"
       d="m 74.008815,204.38046 0,-2.54253 0,-2.50342 0,-2.54253 0,-2.54253 0,-2.54254 0,-2.58165 0,-2.54253 3.2858,0 3.32492,0 3.32492,0 3.32492,0 3.32492,0 3.28581,0 3.32492,0 3.324915,0 3.32492,0 3.32492,0 3.32492,0 3.32492,0 3.32492,0 3.32492,0 3.32492,0 3.32492,0 0,2.54253 0,2.50342 0,2.54253 0,2.54254 0,2.54253 0,2.54253 0,2.54254 0,2.58165 -3.32492,0 -3.28581,0 -3.32492,0 -3.32492,0 -3.32492,0 -3.32492,0 -3.2858,0 -3.32492,0 -3.324915,0 -3.32492,0 -3.32492,0 -3.32492,0 -3.32492,0 -3.32492,0 -3.32492,0 -3.32492,0 z"
       style="fill:#da251d;fill-opacity:1;fill-rule:evenodd;stroke:none" />
    <path
       id="path2687"
       d="m 317.47121,204.38046 0,-2.54253 0,-2.50342 0,-2.54253 0,-2.54253 0,-2.54254 0,-2.58165 0,-2.54253 3.55962,0 3.59874,0 3.55962,0 3.59874,0 3.55962,0 3.59873,0 3.59874,0 3.55962,0 3.59874,0 3.59874,0 3.55962,0 3.59873,0 3.59874,0 3.55962,0 3.59874,0 3.59874,0 0,2.54253 0,2.50342 0,2.54253 0,2.54254 0,2.54253 0,2.54253 0,2.54254 0,2.58165 -3.55962,0 -3.59874,0 -3.55962,0 -3.59874,0 -3.55962,0 -3.59874,0 -3.59873,0 -3.55962,0 -3.59874,0 -3.59874,0 -3.55962,0 -3.59874,0 -3.59873,0 -3.59874,0 -3.55962,0 -3.59874,0 z"
       style="fill:#da251d;fill-opacity:1;fill-rule:evenodd;stroke:none" />
    <path
       id="path2689"
       d="m 382.63965,204.38046 0,-2.54253 0,-2.50342 0,-2.54253 0,-2.54253 0,-2.54254 0,-2.58165 0,-2.54253 3.2858,0 3.32492,0 3.32492,0 3.32492,0 3.28581,0 3.32492,0 3.32492,0 3.32492,0 3.32492,0 3.32492,0 3.32492,0 3.32492,0 3.32492,0 3.32492,0 3.32492,0 3.32492,0 0,2.54253 0,2.50342 0,2.54253 0,2.54254 0,2.54253 0,2.54253 0,2.54254 0,2.58165 -3.32492,0 -3.28581,0 -3.32492,0 -3.32492,0 -3.32492,0 -3.32492,0 -3.2858,0 -3.32492,0 -3.32492,0 -3.32492,0 -3.32492,0 -3.32492,0 -3.32492,0 -3.32492,0 -3.32492,0 -3.32492,0 z"
       style="fill:#da251d;fill-opacity:1;fill-rule:evenodd;stroke:none" />
    <path
       id="path2691"
       d="m 188.26872,197.26137 -1.83848,-2.58165 -1.83849,-2.58165 -1.79937,-2.62076 -1.83848,-2.58165 -1.8385,-2.58165 -1.79937,-2.58165 -1.79936,-2.58165 -1.52556,0 -1.52555,-0.0391 -1.52555,0 -1.52555,0 -1.52555,0 -1.52555,0 -1.52556,-0.0391 -1.52555,0 0,-1.91668 0,-1.91668 0,-1.9558 0,-1.91667 0,-1.91668 0,-1.91668 0,-1.91668 0,-1.91668 4.85047,0 4.26373,0.0391 3.71608,0 3.20757,0 2.73817,0.0391 2.34701,0 1.99495,0 1.68202,0.0391 1.4082,0 1.21262,0.0391 1.05615,0.0391 0.89968,0 0.86057,0.0391 0.86057,0.0391 0.86056,0.0782 0.9388,0.0391 1.21262,3.2075 1.25174,3.24662 1.25173,3.24662 1.25174,3.24662 1.25173,3.24662 1.25174,3.24662 1.25173,3.24662 1.29085,3.24662 -0.15646,0.19558 -0.31294,0.23469 -0.43028,0.27381 -0.50852,0.31293 -1.32997,0.7432 -1.48643,0.82144 -1.52555,0.78232 -1.36909,0.70408 -1.13438,0.58674 -0.66499,0.35204 -0.89968,0.58674 -0.9388,0.58674 -0.89969,0.62585 -0.89968,0.58674 -0.89969,0.62586 -0.89968,0.58674 -0.86057,0.62585 -0.89968,0.62585 z"
       style="fill:#da251d;fill-opacity:1;fill-rule:evenodd;stroke:none" />
    <path
       id="path2693"
       d="m 250.15136,197.18314 -0.86057,-0.62586 -0.89969,-0.58674 -0.86056,-0.54762 -0.86057,-0.54762 -0.86057,-0.46939 -0.86057,-0.46939 -0.86057,-0.46939 -1.72113,-0.82144 -1.68203,-0.78231 -1.68202,-0.70409 -1.68201,-0.66497 0.39116,-1.68198 0.43029,-1.68199 0.50851,-1.68198 0.50852,-1.68198 0.58675,-1.64287 0.58675,-1.68199 0.62587,-1.64286 0.66498,-1.64287 1.32997,-3.24662 1.32998,-3.24662 1.36907,-3.2075 1.25174,-3.20751 2.26877,-0.0391 2.26878,-0.0391 2.30788,-0.0391 2.26877,-0.0391 2.26877,-0.0391 2.26877,-0.0391 2.30789,-0.0391 2.26877,-0.0391 2.26876,-0.0391 2.30789,0 2.26877,-0.0391 2.26877,-0.0391 2.30788,-0.0391 2.26877,-0.0391 2.30789,0 2.26877,-0.0391 0,1.91668 0,1.91668 0,1.91668 0,1.91668 0,1.91667 0,1.9558 0,1.91668 0,1.91668 -2.22965,0 -2.22966,0 -2.19053,0 -2.19054,0 -2.22965,0 -2.19054,0 -2.19053,0 -2.19054,0 -3.0511,3.98982 -2.347,3.09015 -1.83849,2.38607 -1.48643,1.91668 -1.29085,1.68199 -1.32997,1.64286 -1.52555,1.83845 -1.83849,2.22961 z"
       style="fill:#da251d;fill-opacity:1;fill-rule:evenodd;stroke:none" />
    <path
       id="path2695"
       d="m 210.79995,180.75446 -2.30789,-5.98473 -1.68202,-4.26363 -1.13438,-2.9337 -0.7041,-1.79933 -0.43029,-0.93878 -0.2347,-0.46939 -0.11735,-0.19558 3.05111,-0.0782 2.69905,-0.0391 2.42524,-0.0782 2.15141,-0.0391 1.95584,-0.0391 1.79937,0 1.68202,-0.0391 1.6429,-0.0391 1.6429,0 1.68202,0 1.76025,0 1.95584,0 2.15142,0 2.38611,0 2.69906,0.0391 3.0511,0 -1.13438,3.01193 -1.13439,3.01192 -1.13438,3.05104 -1.13439,3.01193 -1.1735,3.01192 -1.13438,3.05104 -1.13439,3.01192 -1.13439,3.05104 -2.19054,0.15647 -1.76024,0.11734 -1.52556,0.0782 -1.44731,0.0782 -1.60379,0.0782 -1.91672,0.0391 -2.38612,0.0391 -3.12934,0.0391 z"
       style="fill:#da251d;fill-opacity:1;fill-rule:evenodd;stroke:none" />
    <path
       id="path2697"
       d="m 8.840376,177.19491 0,-1.91667 0,-1.91668 0,-1.9558 0,-1.91668 0,-1.91668 0,-1.95579 0,-1.91668 2.816403,0 2.816403,0 2.816403,0 2.85552,0 2.816403,0 2.85552,0 2.855519,0 2.816403,0 0,1.91668 0,1.91668 0,1.91668 0,1.91668 0,1.91667 0,1.9558 0,1.91668 0,1.91668 -2.816403,0 -2.816403,0 -2.816403,0 -2.855519,0 -2.816403,0 -2.85552,0 -2.816403,0 -2.85552,0 z"
       style="fill:#da251d;fill-opacity:1;fill-rule:evenodd;stroke:none" />
    <path
       id="path2699"
       d="m 39.077592,177.19491 0,-1.91667 0,-1.91668 0,-1.9558 0,-1.91668 0,-1.91668 0,-1.95579 0,-1.91668 3.598737,0 3.598736,0 3.55962,0 3.59874,0 3.59874,0 3.59873,0 3.59874,0 3.59874,0 3.59873,0 3.59874,0 3.59874,0 3.63785,0 3.59874,0 3.59874,0 3.59873,0 3.59874,0 0,1.91668 0,1.91668 0,1.91668 0,1.91668 0,1.91667 0,1.9558 0,1.91668 0,1.91668 -3.59874,0 -3.59873,0 -3.55962,0 -3.59874,0 -3.59874,0 -3.59873,0 -3.59874,0 -3.59874,0 -3.59874,0 -3.59873,0 -3.59874,0 -3.63785,0 -3.59874,0 -3.59874,0 -3.598736,0 -3.598737,0 z"
       style="fill:#da251d;fill-opacity:1;fill-rule:evenodd;stroke:none" />
    <path
       id="path2701"
       d="m 104.48073,177.19491 0,-1.91667 0,-1.91668 0,-1.9558 0,-1.91668 0,-1.91668 0,-1.95579 0,-1.91668 3.16846,0 3.16845,0 3.20757,0 3.16845,0 3.20757,0 3.16846,0 3.20757,0 3.16845,0 3.20757,0 3.16845,0 3.20757,0 3.20757,0 3.16846,0 3.20757,0 3.20757,0 3.16845,0 0,1.91668 0,1.91668 0,1.91668 0,1.91668 0,1.91667 0,1.9558 0,1.91668 0,1.91668 -3.16845,0 -3.16846,0 -3.20757,0 -3.16845,0 -3.20757,0 -3.16845,0 -3.20757,0 -3.16846,0 -3.20757,0 -3.16845,0 -3.20757,0 -3.20757,0 -3.16845,0 -3.20757,0 -3.20757,0 -3.16846,0 z"
       style="fill:#da251d;fill-opacity:1;fill-rule:evenodd;stroke:none" />
    <path
       id="path2703"
       d="m 291.2239,177.19491 0,-1.91667 0,-1.91668 0,-1.9558 0,-1.91668 0,-1.91668 0,-1.95579 0,-1.91668 3.0511,0 3.05111,0 3.0511,0 3.0511,0 3.05111,0 3.0511,0 3.0511,0 3.05111,0 3.0511,0 3.09022,0 3.0511,0 3.05111,0 3.0511,0 3.09022,0 3.0511,0 3.05111,0 0,1.91668 0,1.91668 0,1.91668 0,1.91668 0,1.91667 0,1.9558 0,1.91668 0,1.91668 -3.05111,0 -3.0511,0 -3.0511,0 -3.05111,0 -3.0511,0 -3.0511,0 -3.05111,0 -3.0511,0 -3.09022,0 -3.0511,0 -3.05111,0 -3.0511,0 -3.0511,0 -3.09022,0 -3.05111,0 -3.0511,0 z"
       style="fill:#da251d;fill-opacity:1;fill-rule:evenodd;stroke:none" />
    <path
       id="path2705"
       d="m 347.70843,177.19491 0,-1.91667 0,-1.91668 0,-1.9558 0,-1.91668 0,-1.91668 0,-1.95579 0,-1.91668 3.59873,0 3.59874,0 3.55962,0 3.59874,0 3.59874,0 3.59873,0 3.59874,0 3.59874,0 3.59873,0 3.59874,0 3.59874,0 3.63785,0 3.59874,0 3.59874,0 3.59873,0 3.59874,0 0,1.91668 0,1.91668 0,1.91668 0,1.91668 0,1.91667 0,1.9558 0,1.91668 0,1.91668 -3.59874,0 -3.59873,0 -3.55962,0 -3.59874,0 -3.59874,0 -3.59873,0 -3.59874,0 -3.59874,0 -3.59874,0 -3.59873,0 -3.63786,0 -3.59873,0 -3.59874,0 -3.59874,0 -3.59874,0 -3.59873,0 z"
       style="fill:#da251d;fill-opacity:1;fill-rule:evenodd;stroke:none" />
    <path
       id="path2707"
       d="m 413.11156,177.19491 0,-1.91667 0,-1.91668 0,-1.9558 0,-1.91668 0,-1.91668 0,-1.95579 0,-1.91668 2.81641,0 2.8164,0 2.8164,0 2.85552,0 2.81641,0 2.85551,0 2.81641,0 2.85552,0 0,1.91668 0,1.91668 0,1.91668 0,1.91668 0,1.91667 0,1.9558 0,1.91668 0,1.91668 -2.81641,0 -2.8164,0 -2.8164,0 -2.85552,0 -2.8164,0 -2.85552,0 -2.85552,0 -2.81641,0 z"
       style="fill:#da251d;fill-opacity:1;fill-rule:evenodd;stroke:none" />
    <path
       id="path2709"
       d="m 0,153.41245 0,-2.50342 0,-2.4643 0,-2.4643 0,-2.4643 0,-2.4643 0,-2.46431 0,-2.4643 2.85552,0 2.855519,0 2.85552,0 2.85552,0 2.85552,0 2.894636,0 2.85552,0 2.855519,0 0,1.09525 0,1.13436 0,1.13436 0,1.13436 0,1.13436 0,1.13436 0,1.13436 0,1.17348 1.838486,0 1.838485,0 1.838485,0 1.838486,0 1.838485,0 1.838485,0 1.838486,0 1.838485,0 1.838485,0 1.838485,0 1.877602,0 1.838486,0 1.83849,0 1.83848,0 1.83849,0 1.8776,0 0,-1.17348 0,-1.13436 0,-1.13436 0,-1.13436 0,-1.13436 0,-1.13436 0,-1.13436 0,-1.09525 1.91672,0 1.95583,0 1.95584,0 1.95583,0 1.95584,0 1.91672,0 1.95583,0 1.95584,0 1.95583,0 1.95584,0 1.95583,0 1.95584,0 1.95583,0 1.95584,0 1.95584,0 1.99495,0 0,1.09525 0,1.13436 0,1.13436 0,1.13436 0,1.13436 0,1.13436 0,1.13436 0,1.17348 1.83848,0 1.83849,0 1.83848,0 1.87761,0 1.83848,0 1.83849,0 1.8776,0 1.83848,0 1.877615,0 1.83848,0 1.8776,0 1.83849,0 1.8776,0 1.83849,0 1.8776,0 1.8776,0 0,-1.17348 0,-1.13436 0,-1.13436 0,-1.13436 0,-1.13436 0,-1.13436 0,-1.13436 0,-1.09525 1.91672,0 1.95583,0 1.95584,0 1.95583,0 1.95584,0 1.91672,0 1.95583,0 1.95584,0 1.95583,0 1.95584,0 1.95584,0 1.95583,0 1.95584,0 1.95583,0 1.95584,0 1.99494,0 0,1.09525 0,1.13436 0,1.13436 0,1.13436 0,1.13436 0,1.13436 0,1.13436 0,1.17348 1.79937,0 1.83849,0 1.83849,0 1.83848,0 1.83849,0 1.83848,0 1.83849,0 1.83849,0 1.83848,0 1.8776,0 1.83849,0 1.83848,0 1.83849,0 1.83848,0 1.83849,0 1.8776,0 0,-1.17348 0,-1.13436 0,-1.13436 0,-1.13436 0,-1.13436 0,-1.13436 0,-1.13436 0,-1.09525 1.95584,0 1.95583,0 1.95584,0 1.95583,0 1.99495,0 1.95584,0 1.95584,0 1.95583,0 1.99495,0 1.95584,0 1.95582,0 1.99496,0 1.95583,0 1.95584,0 1.99495,0 1.99496,0 0,1.09525 0,1.13436 0,1.13436 0,1.13436 0,1.13436 0,1.13436 0,1.13436 0,1.17348 2.19054,0 2.22964,0 2.22965,0 2.22965,0 2.22967,0 2.22965,0 2.22964,0 2.22965,0 2.22967,0 2.22965,0 2.22964,0 2.22965,0 2.26878,0 2.22964,0 2.22967,0 2.22965,0 0,-1.17348 0,-1.13436 0,-1.13436 0,-1.13436 0,-1.13436 0,-1.13436 0,-1.13436 0,-1.09525 1.95583,0 1.95584,0 1.95584,0 1.95583,0 1.91672,0 1.95584,0 1.95583,0 1.95584,0 1.95583,0 1.95584,0 1.95583,0 1.95584,0 1.95583,0 1.95584,0 1.95583,0 1.95584,0 0,1.09525 0,1.13436 0,1.13436 0,1.13436 0,1.13436 0,1.13436 0,1.13436 0,1.17348 1.83848,0 1.83849,0 1.83849,0 1.83848,0 1.79937,0 1.83848,0 1.83849,0 1.83849,0 1.83848,0 1.83849,0 1.83848,0 1.83849,0 1.83848,0 1.83848,0 1.83849,0 1.83848,0 0,-1.17348 0,-1.13436 0,-1.13436 0,-1.13436 0,-1.13436 0,-1.13436 0,-1.13436 0,-1.09525 1.99495,0 1.95585,0 1.95583,0 1.95584,0 1.99495,0 1.95583,0 1.99496,0 1.95583,0 1.99495,0 1.95584,0 1.99495,0 1.95584,0 1.99495,0 1.95583,0 1.99496,0 1.95583,0 0,1.09525 0,1.13436 0,1.13436 0,1.13436 0,1.13436 0,1.13436 0,1.13436 0,1.17348 1.83849,0 1.83848,0 1.83849,0 1.83848,0 1.79937,0 1.83849,0 1.83848,0 1.83849,0 1.83848,0 1.83849,0 1.83848,0 1.83849,0 1.83848,0 1.83849,0 1.83848,0 1.83849,0 0,-1.17348 0,-1.13436 0,-1.13436 0,-1.13436 0,-1.13436 0,-1.13436 0,-1.13436 0,-1.09525 1.95583,0 1.95583,0 1.95585,0 1.95583,0 1.95584,0 1.91672,0 1.95583,0 1.95584,0 1.95583,0 1.95584,0 1.95583,0 1.95584,0 1.95583,0 1.95584,0 1.95583,0 1.95584,0 0,1.09525 0,1.13436 0,1.13436 0,1.13436 0,1.13436 0,1.13436 0,1.13436 0,1.17348 1.8776,0 1.83849,0 1.83848,0 1.83849,0 1.8776,0 1.83848,0 1.87761,0 1.83848,0 1.8776,0 1.83849,0 1.87759,0 1.83849,0 1.8776,0 1.83848,0 1.87761,0 1.83848,0 0,-1.17348 0,-1.13436 0,-1.13436 0,-1.13436 0,-1.13436 0,-1.13436 0,-1.13436 0,-1.09525 2.5817,0 2.58171,0 2.5817,0 2.5817,0 2.58171,0 2.5817,0 2.5817,0 2.58171,0 0,2.4643 0,2.46431 0,2.4643 0,2.4643 0,2.4643 0,2.4643 0,2.50342 0,2.4643 -27.77287,0 -27.77285,0 -27.81199,0 -27.77287,0 -27.77285,0 -27.77286,0 -27.77286,0 -27.77287,0 -27.77286,0 -27.77286,0 -27.77287,0 -27.77286,0 -27.733755,0 -27.77286,0 -27.772862,0 -27.772863,0 z"
       style="fill:#da251d;fill-opacity:1;fill-rule:evenodd;stroke:none" />
    <path
       id="path2713"
       d="m 30.471916,136.51438 0,-1.17348 0,-1.17347 0,-1.17348 0,-1.17348 0,-1.17347 0,-1.17348 0,-1.17348 -2.699053,0 -2.73817,0 -2.699052,0 -2.699053,0 -2.699053,0 -2.699053,0 -2.699053,0 -2.699053,0 0,-1.91668 0,-1.87756 0,-1.91668 0,-1.87756 0,-1.91668 0,-1.87756 0,-1.87757 0,-1.87756 3.559621,0 3.598737,0 3.55962,0 3.598737,0 3.559621,0 3.598737,0 3.598737,0 3.559621,0 3.598737,0 3.598737,0 3.559624,0 3.59873,0 3.59874,0 3.59874,0 3.55962,0 3.59874,0 0,1.87756 0,1.87757 0,1.87756 0,1.91668 0,1.87756 0,1.91668 0,1.87756 0,1.91668 -2.73817,0 -2.69906,0 -2.69905,0 -2.69905,0 -2.69906,0 -2.69905,0 -2.69905,0 -2.699054,0 0,1.17348 0,1.17348 0,1.17347 0,1.17348 0,1.17348 0,1.17347 0,1.17348 0,1.17348 -1.760252,0 -1.760252,0 -1.760252,0 -1.760252,0 -1.760251,0 -1.760252,0 -1.760252,0 -1.760252,0 z"
       style="fill:#da251d;fill-opacity:1;fill-rule:evenodd;stroke:none" />
    <path
       id="path2715"
       d="m 91.415745,136.51438 0,-1.17348 0,-1.17347 0,-1.17348 0,-1.17348 0,-1.17347 0,-1.17348 0,-1.17348 -2.19053,0 -2.19054,0 -2.19053,0 -2.15142,0 -2.19054,0 -2.15142,0 -2.19053,0 -2.15142,0 0,-1.91668 0,-1.87756 0,-1.91668 0,-1.87756 0,-1.91668 0,-1.87756 0,-1.87757 0,-1.87756 3.2858,0 3.32492,0 3.32492,0 3.32492,0 3.32492,0 3.28581,0 3.32492,0 3.324915,0 3.32492,0 3.32492,0 3.32492,0 3.32492,0 3.32492,0 3.32492,0 3.32492,0 3.32492,0 0,1.87756 0,1.87757 0,1.87756 0,1.91668 0,1.87756 0,1.91668 0,1.87756 0,1.91668 -2.73817,0 -2.73817,0 -2.73817,0 -2.73817,0 -2.73817,0 -2.73817,0 -2.73817,0 -2.69905,0 0,1.17348 0,1.17348 0,1.17347 0,1.17348 0,1.17348 0,1.17347 0,1.17348 0,1.17348 -1.72114,0 -1.76025,0 -1.72113,0 -1.721135,0 -1.72114,0 -1.72113,0 -1.76025,0 -1.72114,0 z"
       style="fill:#da251d;fill-opacity:1;fill-rule:evenodd;stroke:none" />
    <path
       id="path2717"
       d="m 340.90212,136.51438 0,-1.17348 0,-1.17347 0,-1.17348 0,-1.17348 0,-1.17347 0,-1.17348 0,-1.17348 -2.97287,0 -2.93375,0 -2.97287,0 -2.93376,0 -2.97287,0 -2.97287,0 -2.93375,0 -2.97287,0 0,-1.87756 0,-1.83845 0,-1.87756 0,-1.83845 0,-1.87756 0,-1.83845 0,-1.83844 0,-1.83845 3.55962,0 3.59874,0 3.55962,0 3.55962,0 3.59874,0 3.55962,0 3.59873,0 3.55962,0 3.59874,0 3.55962,0 3.59874,0 3.55962,0 3.59874,0 3.59873,0 3.55962,0 3.59874,0 0,1.83845 0,1.83844 0,1.83845 0,1.87756 0,1.83845 0,1.87756 0,1.83845 0,1.87756 -2.46435,0 -2.42524,0 -2.46435,0 -2.42524,0 -2.46435,0 -2.42523,0 -2.42524,0 -2.42524,0 0,1.17348 0,1.17348 0,1.17347 0,1.17348 0,1.17348 0,1.17347 0,1.17348 0,1.17348 -1.76025,0 -1.76025,0 -1.76025,0 -1.76025,0 -1.76025,0 -1.76026,0 -1.76025,0 -1.76025,0 z"
       style="fill:#da251d;fill-opacity:1;fill-rule:evenodd;stroke:none" />
    <path
       id="path2719"
       d="m 401.84595,136.51438 0,-1.17348 0,-1.17347 0,-1.17348 0,-1.17348 0,-1.17347 0,-1.17348 0,-1.17348 -2.46435,0 -2.42524,0 -2.46435,0 -2.42524,0 -2.46435,0 -2.42524,0 -2.42523,0 -2.42524,0 0,-1.87756 0,-1.83845 0,-1.87756 0,-1.83845 0,-1.87756 0,-1.83845 0,-1.83844 0,-1.83845 3.28581,0 3.32492,0 3.32492,0 3.32492,0 3.2858,0 3.32492,0 3.32492,0 3.32492,0 3.32492,0 3.32492,0 3.32492,0 3.32492,0 3.32492,0 3.32492,0 3.32492,0 3.32492,0 0,1.83845 0,1.83844 0,1.83845 0,1.87756 0,1.83845 0,1.87756 0,1.83845 0,1.87756 -2.46435,0 -2.42523,0 -2.46436,0 -2.42523,0 -2.46436,0 -2.42523,0 -2.42524,0 -2.42523,0 0,1.17348 0,1.17348 0,1.17347 0,1.17348 0,1.17348 0,1.17347 0,1.17348 0,1.17348 -1.76026,0 -1.76025,0 -1.76025,0 -1.76025,0 -1.76025,0 -1.76026,0 -1.76025,0 -1.76025,0 z"
       style="fill:#da251d;fill-opacity:1;fill-rule:evenodd;stroke:none" />
    <path
       id="path2725"
       d="m 317.23651,103.18764 0,-2.4643 0,-2.50342 0,-2.4643 0,-2.50342 0,-2.4643 0,-2.50342 0,-2.50342 2.81639,0 2.81642,0 2.8164,0 2.85552,0 2.8164,0 2.85552,0 2.81641,0 2.85551,0 0,2.46431 0,2.50341 0,2.4643 0,2.46431 0,2.50341 0,2.50342 0,2.4643 0,2.50342 -2.8164,0 -2.8164,0 -2.8164,0 -2.85552,0 -2.81641,0 -2.85552,0 -2.8164,0 -2.85552,0 z"
       style="fill:#da251d;fill-opacity:1;fill-rule:evenodd;stroke:none" />
    <path
       id="path2727"
       d="m 347.47373,103.18764 0,-2.4643 0,-2.50342 0,-2.4643 0,-2.50342 0,-2.4643 0,-2.50342 0,-2.50342 3.59872,0 3.55962,0 3.59874,0 3.59875,0 3.59874,0 3.59873,0 3.55962,0 3.59874,0 3.59874,0 3.59873,0 3.59874,0 3.59874,0 3.59874,0 3.59873,0 3.59874,0 3.59874,0 0,2.46431 0,2.50341 0,2.4643 0,2.46431 0,2.50341 0,2.50342 0,2.4643 0,2.50342 -3.59874,0 -3.55962,0 -3.59874,0 -3.59873,0 -3.59874,0 -3.59874,0 -3.55962,0 -3.59874,0 -3.59873,0 -3.59874,0 -3.59874,0 -3.59873,0 -3.59874,0 -3.59875,0 -3.59874,0 -3.59872,0 z"
       style="fill:#da251d;fill-opacity:1;fill-rule:evenodd;stroke:none" />
    <path
       id="path2729"
       d="m 412.79863,103.18764 0,-2.4643 0,-2.50342 0,-2.4643 0,-2.50342 0,-2.4643 0,-2.50342 0,-2.50342 2.8164,0 2.81641,0 2.81639,0 2.85553,0 2.81639,0 2.85553,0 2.81639,0 2.85553,0 0,2.46431 0,2.50341 0,2.4643 0,2.46431 0,2.50341 0,2.50342 0,2.4643 0,2.50342 -2.8164,0 -2.8164,0 -2.81641,0 -2.85551,0 -2.81641,0 -2.85552,0 -2.85552,0 -2.8164,0 z"
       style="fill:#da251d;fill-opacity:1;fill-rule:evenodd;stroke:none" />
    <path
       id="path2731"
       d="m 8.840376,102.87471 0,-2.4643 0,-2.4643 0,-2.4643 0,-2.46431 0,-2.50341 0,-2.4643 0,-2.50342 2.816403,0 2.816403,0 2.816403,0 2.85552,0 2.816403,0 2.85552,0 2.855519,0 2.816403,0 0,2.4643 0,2.4643 0,2.4643 0,2.4643 0,2.50342 0,2.4643 0,2.4643 0,2.50342 -2.816403,0 -2.816403,0 -2.816403,0 -2.855519,0 -2.816403,0 -2.85552,0 -2.816403,0 -2.85552,0 z"
       style="fill:#da251d;fill-opacity:1;fill-rule:evenodd;stroke:none" />
    <path
       id="path2733"
       d="m 39.077592,102.87471 0,-2.4643 0,-2.4643 0,-2.4643 0,-2.46431 0,-2.50341 0,-2.4643 0,-2.50342 3.598737,0 3.598736,0 3.55962,0 3.59874,0 3.59874,0 3.59873,0 3.59874,0 3.59874,0 3.59873,0 3.59874,0 3.59874,0 3.63785,0 3.59874,0 3.59874,0 3.59873,0 3.59874,0 0,2.4643 0,2.4643 0,2.4643 0,2.4643 0,2.50342 0,2.4643 0,2.4643 0,2.50342 -3.59874,0 -3.59873,0 -3.55962,0 -3.59874,0 -3.59874,0 -3.59873,0 -3.59874,0 -3.59874,0 -3.59874,0 -3.59873,0 -3.59874,0 -3.63785,0 -3.59874,0 -3.59874,0 -3.598736,0 -3.598737,0 z"
       style="fill:#da251d;fill-opacity:1;fill-rule:evenodd;stroke:none" />
    <path
       id="path2735"
       d="m 104.48073,102.87471 0,-2.4643 0,-2.4643 0,-2.4643 0,-2.46431 0,-2.50341 0,-2.4643 0,-2.50342 2.81641,0 2.8164,0 2.8164,0 2.85552,0 2.81641,0 2.85551,0 2.81641,0 2.85552,0 0,2.4643 0,2.4643 0,2.4643 0,2.4643 0,2.50342 0,2.4643 0,2.4643 0,2.50342 -2.81641,0 -2.8164,0 -2.8164,0 -2.85552,0 -2.8164,0 -2.85552,0 -2.85552,0 -2.81641,0 z"
       style="fill:#da251d;fill-opacity:1;fill-rule:evenodd;stroke:none" />
    <path
       id="path2737"
       d="m 308.39612,75.49358 0,-2.4643 0,-2.50342 0,-2.4643 0,-2.4643 0,-2.4643 0,-2.4643 0,-2.4643 2.85553,0 2.85551,0 2.85553,0 2.85552,0 2.85552,0 2.89464,0 2.85552,0 2.85552,0 0,1.17347 0,1.13436 0,1.13437 0,1.13436 0,1.13436 0,1.17347 0,1.13437 0,1.13436 1.83848,0 1.83849,0 1.83849,0 1.83848,0 1.83849,0 1.83848,0 1.83849,0 1.83848,0 1.83849,0 1.83848,0 1.87759,0 1.83849,0 1.83848,0 1.83849,0 1.83849,0 1.83848,0 0,-1.13436 0,-1.13437 0,-1.17347 0,-1.13436 0,-1.13436 0,-1.13437 0,-1.13436 0,-1.17347 1.95584,0 1.95583,0 1.95584,0 1.95583,0 1.95584,0 1.91672,0 1.95583,0 1.95584,0 1.95583,0 1.95584,0 1.95583,0 1.95585,0 1.95583,0 1.95583,0 1.95585,0 1.95583,0 0,1.17347 0,1.13436 0,1.13437 0,1.13436 0,1.13436 0,1.17347 0,1.13437 0,1.13436 1.83849,0 1.83848,0 1.83849,0 1.83848,0 1.83849,0 1.79936,0 1.83848,0 1.83849,0 1.83848,0 1.83849,0 1.83848,0 1.83849,0 1.83848,0 1.83849,0 1.83848,0 1.87761,0 0,-1.13436 0,-1.13437 0,-1.17347 0,-1.13436 0,-1.13436 0,-1.13437 0,-1.13436 0,-1.17347 2.77728,0 2.85552,0 2.8164,0 2.81641,0 2.85553,0 2.81639,0 2.85553,0 2.85551,0 0,2.4643 0,2.4643 0,2.4643 0,2.4643 0,2.4643 0,2.50342 0,2.4643 0,2.50342 -8.48833,0 -8.48831,0 -8.48834,0 -8.48832,0 -8.44921,0 -8.48833,0 -8.48831,0 -8.48834,0 -8.48833,0 -8.4492,0 -8.48833,0 -8.48833,0 -8.4492,0 -8.48833,0 -8.44921,0 -8.48833,0 z"
       style="fill:#da251d;fill-opacity:1;fill-rule:evenodd;stroke:none" />
    <path
       id="path2739"
       d="m 0,75.25889 0,-2.4643 0,-2.50342 0,-2.4643 0,-2.4643 0,-2.46431 0,-2.4643 0,-2.4643 2.85552,0 2.855519,0 2.85552,0 2.85552,0 2.85552,0 2.894636,0 2.85552,0 2.855519,0 0,1.13436 0,1.13436 0,1.13436 0,1.09525 0,1.17348 0,1.13436 0,1.13436 0,1.13436 1.838486,0 1.838485,0 1.838485,0 1.838486,0 1.838485,0 1.838485,0 1.838486,0 1.838485,0 1.838485,0 1.838485,0 1.877602,0 1.838486,0 1.83849,0 1.83848,0 1.83849,0 1.8776,0 0,-1.13436 0,-1.13436 0,-1.13436 0,-1.17348 0,-1.09525 0,-1.13436 0,-1.13436 0,-1.13436 1.91672,0 1.95583,0 1.95584,0 1.95583,0 1.95584,0 1.91672,0 1.95583,0 1.95584,0 1.95583,0 1.95584,0 1.95583,0 1.95584,0 1.95583,0 1.95584,0 1.95584,0 1.99495,0 0,1.13436 0,1.13436 0,1.13436 0,1.09525 0,1.17348 0,1.13436 0,1.13436 0,1.13436 1.83848,0 1.83849,0 1.83848,0 1.87761,0 1.83848,0 1.83849,0 1.8776,0 1.83848,0 1.877615,0 1.83848,0 1.8776,0 1.83849,0 1.8776,0 1.83849,0 1.8776,0 1.8776,0 0,-1.13436 0,-1.13436 0,-1.13436 0,-1.17348 0,-1.09525 0,-1.13436 0,-1.13436 0,-1.13436 2.8164,0 2.81641,0 2.8164,0 2.8164,0 2.85552,0 2.85552,0 2.8164,0 2.85552,0 0,2.4643 0,2.4643 0,2.46431 0,2.4643 0,2.4643 0,2.50342 0,2.4643 0,2.50341 -8.48832,0 -8.52744,0 -8.48833,0 -8.48833,0 -8.488325,0 -8.52744,0 -8.48833,0 -8.48833,0 -8.48832,0 -8.48833,0 -8.52744,0 -8.488325,0 -8.488326,0 -8.488326,0 -8.527442,0 -8.488326,0 z"
       style="fill:#da251d;fill-opacity:1;fill-rule:evenodd;stroke:none" />
    <path
       id="path2741"
       d="m 338.86805,58.39994 0,-1.13437 0,-1.13436 0,-1.17347 0,-1.13436 0,-1.13436 0,-1.13437 0,-1.13436 -1.64291,-0.0782 -1.29084,-0.0391 -1.01704,-0.0391 -0.82145,-0.0391 -0.74323,-0.0782 -0.78233,-0.0782 -0.89968,-0.0782 -1.09527,-0.11735 2.85553,-3.09016 2.81639,-3.05104 2.85553,-3.09015 2.85551,-3.09016 2.85553,-3.09015 2.85551,-3.12927 2.85553,-3.09016 2.85552,-3.09016 2.85552,-3.12927 2.85552,-3.09015 2.85552,-3.12928 2.85552,-3.12927 2.8164,-3.09015 2.8164,-3.12927 2.81641,-3.09016 2.8164,-3.12927 2.85552,3.09015 2.85552,3.09016 2.85552,3.09016 2.85552,3.12927 2.85552,3.09015 2.85552,3.09016 2.85552,3.09015 2.85552,3.12928 2.85552,3.09015 2.85552,3.09016 2.85552,3.12927 2.85552,3.09016 2.85552,3.09015 2.85552,3.12927 2.85552,3.09016 2.85552,3.12927 -0.54764,0.2347 -0.54763,0.19558 -0.50852,0.11734 -0.54763,0.11735 -0.50852,0.0391 -0.50852,0.0391 -0.50851,0 -0.46941,-0.0391 -0.97791,-0.0391 -0.9388,-0.0391 -0.4694,0 -0.43029,0.0391 -0.4694,0.0782 -0.43028,0.11735 -0.0782,1.05613 -0.0391,1.09524 -0.0391,1.09525 -0.0391,1.13436 -0.0391,1.09525 -0.0391,1.09524 0,1.13436 -0.0391,1.09525 -1.72113,0 -1.76025,0 -1.72114,0 -1.72113,0 -1.72114,0 -1.72113,0 -1.68202,0 -1.72114,0 -0.0391,-1.09525 -0.0782,-1.13436 -0.0391,-1.09524 -0.0782,-1.09525 -0.0391,-1.13436 -0.0391,-1.09525 -0.0391,-1.09524 -0.0391,-1.05613 -2.89464,0 -2.93375,0 -2.89464,0 -2.93375,0 -2.89464,0 -2.89464,0 -2.93375,0 -2.89464,0 -2.89463,0 -2.89464,0 -2.89464,0 -2.93375,0 -2.89464,0 -2.89463,0 -2.89464,0 -2.89463,0 -0.0782,1.05613 -0.0391,1.09524 -0.0391,1.09525 -0.0391,1.13436 -0.0391,1.09525 -0.0391,1.09524 -0.0391,1.13436 0,1.09525 -1.72113,0 -1.76026,0 -1.72113,0 -1.72114,0 -1.72113,0 -1.72114,0 -1.68201,0 -1.72114,0 z"
       style="fill:#da251d;fill-opacity:1;fill-rule:evenodd;stroke:none" />
    <path
       id="path2743"
       d="m 30.471916,58.08701 0,-1.13436 0,-1.13436 0,-1.13436 0,-1.13437 0,-1.13436 0,-1.13436 0,-1.09524 -1.056151,-0.0391 -1.017035,-0.0391 -1.056151,-0.0391 -1.017034,0 -1.056151,-0.0391 -1.017035,-0.0391 -1.017034,-0.0391 -1.017035,0 2.816403,-3.12927 2.816403,-3.12927 2.85552,-3.12927 2.816403,-3.09016 2.816403,-3.12927 2.85552,-3.12927 2.816403,-3.12927 2.85552,-3.12928 2.85552,-3.09015 2.8164,-3.12927 2.85552,-3.12928 2.81641,-3.12927 2.85551,-3.09015 2.85552,-3.12927 2.81641,-3.12928 L 67.593675,0 l 0.2347,0 0.2347,0 2.8164,3.09016 2.85552,3.09015 2.8164,3.09016 2.81641,3.09016 2.8164,3.09015 2.85552,3.09016 2.8164,3.09015 2.85552,3.09016 2.8164,3.09015 2.81641,3.09016 2.85552,3.12927 2.816395,3.09016 2.85552,3.09015 2.8164,3.09016 2.85552,3.09016 2.85553,3.09015 0,0.2347 0,0.23469 -1.01703,0 -0.97793,0.0391 -0.97792,0.0391 -0.97791,0.0391 -0.97792,0 -0.97792,0.0391 -0.9388,0.0391 -0.97792,0.0391 -0.0782,1.09524 -0.0391,1.13436 -0.0391,1.13436 -0.0391,1.13437 -0.0391,1.13436 -0.0391,1.13436 0,1.13436 -0.0391,1.13436 -1.72113,0 -1.76026,0 -1.72112,0 -1.721145,0 -1.72114,0 -1.72113,0 -1.76025,0 -1.72114,0 0,-1.13436 -0.0391,-1.13436 0,-1.13436 0,-1.13436 -0.0391,-1.13437 0,-1.13436 0,-1.13436 0,-1.09524 -2.93375,0 -2.89464,0 -2.93375,0 -2.93376,0 -2.93375,0 -2.89464,0 -2.93375,0 -2.93375,0 -2.89464,0 -2.93375,0 -2.93376,0 -2.89463,0 -2.93375,0 -2.89464,0 -2.93375,0 -2.894641,0 -0.03912,1.09524 0,1.13436 -0.03912,1.13436 0,1.13437 0,1.13436 0,1.13436 0,1.13436 0,1.13436 -1.760252,0 -1.760252,0 -1.760252,0 -1.760252,0 -1.760251,0 -1.760252,0 -1.760252,0 -1.760252,0 z"
       style="fill:#da251d;fill-opacity:1;fill-rule:evenodd;stroke:none" />
  </g>
  <!-- EMR_SELECTPALETTE -->
  <!-- EMR_EXTSELECTCLIPRGN -->
</svg>
