<?xml version="1.0" encoding="utf-8"?>
<!-- Generator: Adobe Illustrator 18.1.1, SVG Export Plug-In . SVG Version: 6.00 Build 0)  -->
<svg version="1.1"
	 id="svg2" xmlns:svg="http://www.w3.org/2000/svg" xmlns:cc="http://creativecommons.org/ns#" xmlns:rdf="http://www.w3.org/1999/02/22-rdf-syntax-ns#" xmlns:dc="http://purl.org/dc/elements/1.1/"
	 xmlns="http://www.w3.org/2000/svg" xmlns:xlink="http://www.w3.org/1999/xlink" x="0px" y="0px" viewBox="0 0 1000 1000"
	 enable-background="new 0 0 1000 1000" xml:space="preserve">
<path id="path2617" fill="#DA251D" d="M363.2,1523.5l-0.9-0.7l-0.4-0.4v-0.9h1.7h1.7h2h2v1.3v1.7h-2.4h-2L363.2,1523.5z"/>
<path id="path2619" fill="#DA251D" d="M1432.2,1520.5v-2h2.6h2.6h2.6h2.6v0.7v1.1l-2.6,0.7l-2.6,0.7l-2.6,0.7l-2.6,0.7V1520.5z"/>
<g id="g3457">
	<path id="path2699" fill="#890017" d="M338.6,989.5v-10.7v-10.7v-10.9v-10.7v-10.7v-10.9v-10.7h20.1h20.1h19.9h20.1h20.1h20.1H479
		h20.1h20.1h20.1h20.1h20.3h20.1h20.1H640h20.1v10.7v10.7v10.7V957v10.7v10.9v10.7v10.7H640h-20.1H600h-20.1h-20.1h-20.1h-20.1
		h-20.1h-20.1h-20.1h-20.1H419h-20.1h-20.1h-20.1h-20.1L338.6,989.5z"/>
	<path id="path2709" fill="#890017" d="M120.4,856.7v-14V829v-13.8v-13.8v-13.8v-13.8v-13.8h4.7h4.7h4.7h4.7h4.7h4.8h4.7h4.7v6.1
		v6.3v6.3v6.3v6.3v6.3v6.3v6.6h3.1h3.1h3.1h3.1h3.1h3.1h3.1h3.1h3.1h3.1h3.1h3.1h3.1h3.1h3.1h3.1v-6.6v-6.3v-6.3v-6.3v-6.3v-6.3
		v-6.3v-6.1h3.2h3.2h3.2h3.2h3.2h3.2h3.2h3.2h3.2h3.2h3.2h3.2h3.2h3.2h3.2h3.3v6.1v6.3v6.3v6.3v6.3v6.3v6.3v6.6h3.1h3.1h3.1h3.1h3.1
		h3.1h3.1h3.1h3.1h3.1h3.1h3.1h3.1h3.1h3.1h3.1v-6.6v-6.3v-6.3v-6.3v-6.3v-6.3v-6.3v-6.1h3.2h3.2h3.2h3.2h3.2h3.2h3.2h3.2h3.2h3.2
		h3.2h3.2h3.2h3.2h3.2h3.3v6.1v6.3v6.3v6.3v6.3v6.3v6.3v6.6h3h3.1h3.1h3.1h3.1h3.1h3.1h3.1h3.1h3.1h3.1h3.1h3.1h3.1h3.1h3.1v-6.6
		v-6.3v-6.3v-6.3v-6.3v-6.3v-6.3v-6.1h3.2h3.2h3.2h3.2h3.3h3.2h3.2h3.2h3.3h3.2h3.2h3.3h3.2h3.2h3.3h3.3v6.1v6.3v6.3v6.3v6.3v6.3
		v6.3v6.6h3.6h3.7h3.7h3.7h3.7h3.7h3.7h3.7h3.7h3.7h3.7h3.7h3.8h3.7h3.7h3.7v-6.6v-6.3v-6.3v-6.3v-6.3v-6.3v-6.3v-6.1h3.2h3.2h3.2
		h3.2h3.2h3.2h3.2h3.2h3.2h3.2h3.2h3.2h3.2h3.2h3.2h3.2v6.1v6.3v6.3v6.3v6.3v6.3v6.3v6.6h3.1h3.1h3.1h3.1h3h3.1h3.1h3.1h3.1h3.1h3.1
		h3.1h3.1h3.1h3.1h3.1v-6.6v-6.3v-6.3v-6.3v-6.3v-6.3v-6.3v-6.1h3.3h3.2h3.2h3.2h3.3h3.2h3.3h3.2h3.3h3.2h3.3h3.2h3.3h3.2h3.3h3.2
		v6.1v6.3v6.3v6.3v6.3v6.3v6.3v6.6h3.1h3.1h3.1h3.1h3h3.1h3.1h3.1h3.1h3.1h3.1h3.1h3.1h3.1h3.1h3.1v-6.6v-6.3v-6.3v-6.3v-6.3v-6.3
		v-6.3v-6.1h3.2h3.2h3.2h3.2h3.2h3.2h3.2h3.2h3.2h3.2h3.2h3.2h3.2h3.2h3.2h3.2v6.1v6.3v6.3v6.3v6.3v6.3v6.3v6.6h3.1h3.1h3.1h3.1h3.1
		h3.1h3.1h3.1h3.1h3.1h3.1h3.1h3.1h3.1h3.1h3.1v-6.6v-6.3v-6.3v-6.3v-6.3v-6.3v-6.3v-6.1h4.3h4.3h4.3h4.3h4.3h4.3h4.3h4.3v13.8v13.8
		v13.8v13.8V829v13.8v14v13.8h-46.1h-46.1h-46.1h-46.1h-46.1h-46.1H535h-46.1h-46.1h-46.1h-46.1h-46.1h-46h-46.1h-46.1h-46.1
		L120.4,856.7z"/>
	<path id="path2713" fill="#890017" d="M290.5,762.3v-6.6v-6.6v-6.6v-6.6v-6.6V723v-6.6h-15.1h-15.3h-15.1H230h-15.1h-15.1h-15.1
		h-15.1v-10.7v-10.5v-10.7v-10.5v-10.7v-10.5v-10.5v-10.5h19.9h20.1h19.9h20.1h19.9h20.1h20.1h19.9h20.1h20.1h19.9h20.1h20.1H450
		h19.9H490v10.5v10.5v10.5v10.7v10.5v10.7v10.5v10.7h-15.3h-15.1h-15.1h-15.1h-15.1h-15.1h-15.1h-15.1v6.6v6.6v6.6v6.6v6.6v6.6v6.6
		v6.6h-9.8h-9.8h-9.8h-9.8H320h-9.8h-9.8h-9.8L290.5,762.3z"/>
	<path id="path2715" fill="#890017" d="M630.8,762.3v-6.6v-6.6v-6.6v-6.6v-6.6V723v-6.6h-12.2h-12.2h-12.2h-12h-12.2h-12h-12.2h-12
		v-10.7v-10.5v-10.7v-10.5v-10.7v-10.5v-10.5v-10.5H552h18.6h18.6h18.6h18.6h18.3h18.6h18.6h18.6h18.6h18.6H756h18.6h18.6h18.6h18.6
		v10.5v10.5v10.5v10.7v10.5v10.7v10.5v10.7H815h-15.3h-15.3h-15.3h-15.3h-15.3h-15.3h-15.1v6.6v6.6v6.6v6.6v6.6v6.6v6.6v6.6h-9.6
		h-9.8h-9.6h-9.6h-9.6h-9.6h-9.8h-9.6L630.8,762.3z"/>
	<path id="path2731" fill="#890017" d="M169.7,574.5v-13.8V547v-13.8v-13.8v-14v-13.8v-14h15.7h15.7h15.7h15.9h15.7h15.9h15.9h15.7
		v13.8v13.8V519v13.8v14v13.8v13.8v14h-15.7h-15.7H249h-15.9h-15.7h-15.9h-15.7h-15.9V574.5z"/>
	<path id="path2733" fill="#890017" d="M338.6,574.5v-13.8V547v-13.8v-13.8v-14v-13.8v-14h20.1h20.1h19.9h20.1h20.1h20.1H479h20.1
		h20.1h20.1h20.1h20.3h20.1h20.1H640h20.1v13.8v13.8V519v13.8v14v13.8v13.8v14H640h-20.1H600h-20.1h-20.1h-20.1h-20.1h-20.1h-20.1
		h-20.1h-20.1H419h-20.1h-20.1h-20.1h-20.1L338.6,574.5z"/>
	<path id="path2735" fill="#890017" d="M703.8,574.5v-13.8V547v-13.8v-13.8v-14v-13.8v-14h15.7h15.7H751h15.9h15.7h15.9h15.7h15.9
		v13.8v13.8V519v13.8v14v13.8v13.8v14h-15.7h-15.7h-15.7h-15.9h-15.7h-15.9h-15.9h-15.7V574.5z"/>
	<path id="path2739" fill="#890017" d="M120.4,420.3v-13.8v-14v-13.8V365v-13.8v-13.8v-13.8h15.9h15.9h15.9h15.9h15.9h16.2h15.9
		h15.9v6.3v6.3v6.3v6.1v6.6v6.3v6.3v6.3h10.3h10.3h10.3h10.3h10.3h10.3H320h10.3h10.3h10.3h10.5h10.3h10.3h10.3h10.3h10.5v-6.3v-6.3
		v-6.3v-6.6v-6.1v-6.3v-6.3v-6.3h10.7h10.9h10.9h10.9h10.9h10.7h10.9h10.9h10.9h10.9h10.9h10.9h10.9h10.9h10.9h11.1v6.3v6.3v6.3v6.1
		v6.6v6.3v6.3v6.3h10.3h10.3h10.3h10.5h10.3h10.3h10.5h10.3h10.5h10.3h10.5h10.3h10.5h10.3h10.5h10.5v-6.3v-6.3v-6.3v-6.6v-6.1v-6.3
		v-6.3v-6.3h15.7h15.7h15.7h15.7H832H848h15.7h15.9v13.8v13.8V365v13.8v13.8v14v13.8v14h-47.4h-47.6h-47.4h-47.4h-47.4h-47.6h-47.4
		H500h-47.4h-47.4h-47.6h-47.4h-47.4h-47.4h-47.6h-47.4L120.4,420.3z"/>
	<path id="path2743" fill="#890017" d="M290.5,324.4V318v-6.3v-6.3V299v-6.3v-6.3v-6.1l-5.9-0.2l-5.7-0.2l-5.9-0.2h-5.7l-5.9-0.2
		l-5.7-0.2l-5.7-0.2h-5.7l15.7-17.5l15.7-17.5l15.9-17.5l15.7-17.3l15.7-17.5l15.9-17.5l15.7-17.5l15.9-17.5l15.9-17.3l15.7-17.5
		l15.9-17.5l15.7-17.5l15.9-17.3l15.9-17.5l15.7-17.5L497.8,0h1.3h1.3l15.7,17.3l15.9,17.3l15.7,17.3L563.6,69l15.7,17.3l15.9,17.3
		l15.7,17.3l15.9,17.3l15.7,17.3l15.7,17.3l15.9,17.5l15.7,17.3l15.9,17.3l15.7,17.3l15.9,17.3l15.9,17.3v1.3v1.3h-5.7l-5.5,0.2
		l-5.5,0.2l-5.5,0.2h-5.5l-5.5,0.2l-5.2,0.2l-5.5,0.2l-0.4,6.1l-0.2,6.3L709,299l-0.2,6.3l-0.2,6.3l-0.2,6.3v6.3l-0.2,6.3h-9.6h-9.8
		h-9.6h-9.6h-9.6h-9.6h-9.8h-9.6v-6.3l-0.2-6.3v-6.3v-6.3l-0.2-6.3v-6.3v-6.3v-6.1H614h-16.2h-16.4h-16.4h-16.4h-16.2h-16.4h-16.4
		h-16.2h-16.4h-16.4h-16.2h-16.4h-16.2h-16.4h-16.2l-0.2,6.1v6.3l-0.2,6.3v6.3v6.3v6.3v6.3v6.3h-9.8h-9.8h-9.8h-9.8H320h-9.8h-9.8
		h-9.8L290.5,324.4z"/>
</g>
</svg>
