<svg xmlns="http://www.w3.org/2000/svg" viewBox="0 0 500 300.04"><g transform="matrix(0-1 1 0 0 200.5)"><path d="m92 500l8-500h-99.04l7.04 500 25-200 17 200 17-200 25 200" fill="#306111"/><path d="m88 428l8-424h-91.04l7.04 424 23-166 15 170 17-170 21 166" fill="#ec0000"/><path d="m50.31 9.281c-1.096 1.657-2.998 4.03-1.625 6.06.782 2.443-.073 3.845-1.469 5.219-.593 1.46-.593 3.198.094 4.625.971 1.209 2.094 2.711 2.094 3.281 0 .938 1.206-.666.875-2.094-.046-.086-.068-.165-.125-.25-.782-2.443.073-3.849 1.469-5.219.751-1.851.651-4.172-.844-5.719-1.05-1.488-.818-3.645-.469-5.906m-15.906.5c-.771 1.838-2.234 4.581-.156 5.781 1.541 1.779.962 3.315-.219 5.03-.33 1.872.411 3.796 2.5 4.531 1.58.862 1.895 2.808 2.125 4.875.771-1.838 2.238-4.612.156-5.813-1.537-1.779-.966-3.284.219-5 .334-1.872-.411-3.831-2.5-4.563-1.572-.866-1.895-2.777-2.125-4.844zm32.875 1.438c-1.606.854-4.231 1.93-3.406 4.094.096 2.244-1.167 2.997-3 3.5-1.307 1.15-1.905 3.01-.813 4.844.652 1.61-.238 3.204-1.25 4.844 1.606-.854 4.258-1.93 3.438-4.094-.1-2.248 1.167-2.997 3-3.5 1.307-1.15 1.905-3.01.813-4.844-.648-1.606.203-3.204 1.219-4.844m13.719 5.188c-1.089 1.86-2.199 3.559-4.063 3.656-2.3-.258-3.841 1.252-4.313 3.188.406 2.177.31 3.922-1.906 4.906-2.492.186-2.239 3.489-2.281 5.594 1.089-1.86 2.199-3.586 4.063-3.688 2.3.258 3.814-1.248 4.281-3.188-.403-2.181-.306-3.886 1.906-4.875 2.496-.186 2.27-3.489 2.313-5.594m-64 1.375c.038 2.01-.186 5.162 2.188 5.344 2.112.938 2.2 2.585 1.813 4.656.449 1.843 1.901 3.276 4.094 3.03 1.779.093 2.836 1.698 3.875 3.469-.038-2 .186-5.135-2.188-5.313-2.109-.938-2.2-2.581-1.813-4.656-.449-1.847-1.901-3.281-4.094-3.03-1.775-.093-2.836-1.721-3.875-3.5zm32.75 12.844c-1.41 2.669-3.978 6.522-1.406 9.09 1.43 2.749.752 4.784-.625 6.719-.492-2.785-2.116-5.512-5.188-6.25-2.571-1.056-3.927-3.997-5.188-7.125-.227 2.959-.989 7.446 2.438 8.938 2.398 2.01 2.642 4.056 2.188 6.281-1.455-2.407-3.956-4.37-7.03-4.156-2.807-.23-5.05-2.596-7.344-5.188.823 2.87 1.605 7.359 5.375 7.75 2.766 1.101 3.782 2.804 4.188 4.844-2.121-1.854-5.02-3.046-7.844-2.063-2.766.512-5.672-1.141-8.656-3.03 1.662 2.54 3.857 6.577 7.594 5.969 3.162.359 4.612 1.891 5.625 3.906-2.629-1.286-5.822-1.686-8.281.031-2.493 1.205-5.811.344-9.25-.688 2.369 2 5.669 5.345 9.06 3.781 2.77-.419 4.56.393 6.03 1.719-2.679-.318-5.459.24-7.125 2.313-.76.679-1.754 1.078-2.844 1.344h.406c-1.645.36-3.566.436-5.531.469 2.947 1.177 7.284 3.382 9.938.875 3.076-1.54 5.339-.862 7.625.469 0 .02.058.015.063.031-3.22.411-6.521 2.034-7.281 5.094-1.067 2.411-4.179 3.746-7.531 5 3.208.121 8.08.686 9.594-2.531 2.323-2.507 4.811-2.559 7.531-2.031-2.691 1.379-4.931 3.749-4.625 6.688-.19 2.6-2.716 4.769-5.469 6.938 3.088-.814 7.911-1.665 8.25-5.156 1.269-2.866 3.372-3.786 5.906-4.125.186.141.399.3.594.438-2.026 2.189-3.255 5.198-1.813 7.875.827 2.491-.643 5.347-2.375 8.281 2.563-1.782 6.721-4.192 5.688-7.563.066-2.991 1.54-4.515 3.656-5.656-.761 2.814-.331 6.05 2.281 7.844 1.959 1.878 1.978 5.03 1.875 8.375 1.41-2.669 3.978-6.553 1.406-9.125-1.43-2.749-.752-4.753.625-6.688.492 2.785 2.116 5.481 5.188 6.219 2.571 1.056 3.927 4.03 5.188 7.156.227-2.959.989-7.446-2.438-8.938-2.398-2.01-2.642-4.056-2.188-6.281 1.455 2.407 3.956 4.37 7.03 4.156 2.807.23 5.05 2.564 7.344 5.156-.823-2.87-1.605-7.359-5.375-7.75-2.766-1.101-3.782-2.773-4.188-4.813 2.121 1.854 5.02 3.01 7.844 2.031 2.766-.512 5.672 1.172 8.656 3.063-1.662-2.54-3.857-6.609-7.594-6-3.162-.359-4.612-1.859-5.625-3.875 2.629 1.286 5.822 1.655 8.281-.063 2.493-1.205 5.811-.344 9.25.688-2.369-2-5.669-5.314-9.06-3.75-2.77.419-4.56-.393-6.03-1.719 2.679.318 5.459-.24 7.125-2.313l2.438-1.375c1.645-.36 3.566-.436 5.531-.469-2.947-1.177-7.284-3.351-9.938-.844-3.076 1.54-5.339.862-7.625-.469 0-.02-.058-.046-.063-.063 3.22-.411 6.521-2 7.281-5.063 1.067-2.411 4.179-3.778 7.531-5.03-3.208-.121-8.08-.686-9.594 2.531-2.323 2.507-4.811 2.591-7.531 2.063 2.691-1.379 4.931-3.78 4.625-6.719.19-2.6 2.716-4.769 5.469-6.938-3.088.814-7.911 1.697-8.25 5.188-1.269 2.866-3.372 3.755-5.906 4.094-.186-.141-.399-.269-.594-.406 2.026-2.189 3.255-5.198 1.813-7.875-.827-2.491.643-5.378 2.375-8.313-2.563 1.782-6.721 4.224-5.688 7.594-.066 2.991-1.54 4.484-3.656 5.625.761-2.814.331-6.02-2.281-7.813-1.959-1.878-1.978-5.03-1.875-8.375m38.625 3.719c-1.181 1.319-2.349 2.495-3.875 2.25-1.813-.609-3.279.329-3.969 1.813-.023 1.83-.392 3.215-2.344 3.625-2.043-.283-2.378 2.43-2.75 4.125 1.177-1.314 2.353-2.495 3.875-2.25 1.821.613 3.31-.356 4-1.844.023-1.834.365-3.188 2.313-3.594 2.043.283 2.374-2.426 2.75-4.125zm-76.44.156c.372 1.699.707 4.412 2.75 4.125 1.955.414 2.289 1.791 2.313 3.625.686 1.488 2.179 2.457 4 1.844.352-.057.68-.048 1 .031.031.008.063.022.094.031.623.179 1.201.582 1.75 1.094l.938.594c-.343-1.684-.786-3.884-2.656-3.625-1.951-.41-2.289-1.786-2.313-3.625-.694-1.483-2.183-2.452-4-1.844-1.53.249-2.694-.931-3.875-2.25m63.62 9.406v.031c.021-.011.041-.02.063-.031-.019.0001-.043-.0001-.063 0m1.75 31.06c1.491.828 2.869 1.669 3.156 3.094.073 1.762 1.368 2.93 2.844 3.281 1.549-.321 2.835-.253 3.813 1.438.426 1.91 2.822 1.698 4.375 1.719-1.495-.828-2.9-1.669-3.188-3.094-.073-1.762-1.336-2.926-2.813-3.281-1.553.321-2.835.253-3.813-1.438-.422-1.91-2.826-1.693-4.375-1.719m-54.47 3.875c-.946-.007-1.855.293-2.25 1.656-1.066 1.86-2.133 1.789-3.375 1.219-1.277.228-2.522 1.415-2.844 3.469-.445 1.636-1.733 2.437-3.094 3.219 1.296.169 3.274.712 3.906-1.469 1.066-1.86 2.102-1.789 3.344-1.219 1.277-.228 2.526-1.415 2.844-3.469.449-1.636 1.733-2.437 3.094-3.219-.486-.063-1.057-.183-1.625-.188m10.844 7.75c-1.035 1.767-2.1 3.411-3.875 3.5-2.185-.245-3.649 1.193-4.094 3.03.387 2.067.296 3.691-1.813 4.625-2.367.177-2.15 3.332-2.188 5.344 1.035-1.775 2.1-3.403 3.875-3.5 2.185.245 3.649-1.189 4.094-3.03-.387-2.067-.296-3.687 1.813-4.625 2.369-.177 2.149-3.34 2.188-5.344m33.5 3.063c1.752 1.543 3.355 3.085 3.344 5.063-.387 2.35.988 4.279 2.844 5.188 2.143.046 3.789.531 4.625 3.063.034 2.654 3.269 3.095 5.313 3.594-1.744-1.543-3.324-3.058-3.313-5.03.387-2.358-.988-4.283-2.844-5.188-2.143-.042-3.824-.527-4.656-3.063-.038-2.654-3.261-3.126-5.313-3.625m-7.344 13.875c.882 3.491 1.599 6.801.219 9.219-2.055 2.54-1.598 6.123-.156 8.938l-.469.094c2.358 2 4.102 4.066 3.281 7.938-1.787 3.288 1.498 6.773 3.438 9.25-.886-3.487-1.595-6.806-.219-9.219 2.051-2.54 1.594-6.127.156-8.938l.469-.094c-2.354-2.01-4.102-4.062-3.281-7.938 1.787-3.288-1.501-6.769-3.438-9.25m-26.28 2.25c-.199 3.592-.539 7.01-2.594 9.156-2.737 2.155-3.353 5.764-2.813 8.781h-.5c1.66 2.384 2.737 4.702.781 8.375-2.711 2.942-.616 6.973.5 9.75.199-3.592.539-7.01 2.594-9.156 2.737-2.16 3.353-5.759 2.813-8.781h.5c-1.66-2.384-2.737-4.694-.781-8.375 2.711-2.937.616-6.978-.5-9.75m41.28 6.313c.104 1.728.026 4.414 2 4.781 1.779 1.01 1.8 2.532 1.563 4.281l.25-.188c.441 1.631 1.569 3.106 3.375 3.094 1.476.245 2.42 1.721 3.344 3.344-.107-1.729-.061-4.409-2.031-4.781-1.783-1-1.808-2.505-1.563-4.25l-.219.188c-.437-1.631-1.573-3.102-3.375-3.094-1.476-.245-2.424-1.752-3.344-3.375m-28.22 8c-1.526 3.411-4.215 8.328-1.938 11.938 1.415 4.514.013 7.361-2 10.281l.5.031c-.981 3.702-.892 8.104 1.531 10.75 1.737 2.629 1.548 6.842 1.219 11.25 1.53-3.406 4.215-8.332 1.938-11.938-1.415-4.518.018-7.388 2.031-10.313h-.5c.978-3.702.892-8.136-1.531-10.781-1.741-2.633-1.576-6.811-1.25-11.219m27.12 14.5c.33 3.736.487 7.268-1.25 9.5-2.419 2.24-2.513 5.985-1.531 9.125l-.5.031c2.01 2.472 3.422 4.894 2 8.719-2.277 3.056.447 7.238 1.969 10.125-.326-3.732-.518-7.291 1.219-9.531 2.419-2.236 2.517-5.981 1.531-9.125h.5c-2.01-2.472-3.446-4.894-2.031-8.719 2.281-3.056-.38-7.238-1.906-10.125m-52.688 11.5c.326 3.597.514 7.01-1.219 9.156-2.423 2.16-2.548 5.791-1.563 8.813h-.469c2.01 2.388 3.419 4.721 2 8.406-2.277 2.946.412 6.969 1.938 9.75-.326-3.601-.487-7 1.25-9.156 2.419-2.155 2.517-5.782 1.531-8.813h.5c-2.01-2.384-3.446-4.721-2.031-8.406 2.281-2.946-.415-6.973-1.938-9.75m63.906 3.219c.242 4.763.378 9.249-.906 12.09-1.787 2.857-1.881 7.654-1.156 11.656h-.344c1.484 3.153 2.515 6.221 1.469 11.09-1.683 3.893.31 9.234 1.438 12.906-.245-4.755-.378-9.281.906-12.12 1.787-2.853 1.853-7.627 1.125-11.625l.375-.031c-1.488-3.153-2.547-6.221-1.5-11.09 1.683-3.892-.279-9.198-1.406-12.875m-34.06 28.22c.33 5.22.518 10.158-1.219 13.281-2.423 3.132-2.548 8.363-1.563 12.75l-.469.031c2.01 3.461 3.422 6.841 2 12.188-2.273 4.273.412 10.124 1.938 14.156-.326-5.219-.518-10.189 1.219-13.313 2.423-3.132 2.54-8.363 1.563-12.75l.469-.031c-2.01-3.466-3.415-6.841-2-12.188 2.277-4.273-.412-10.09-1.938-14.12m-31.03 19.719c-1.522 2.781-4.215 6.808-1.938 9.75 1.419 3.69.005 6.02-2 8.406h.469c-.985 3.03-.857 6.657 1.563 8.813 1.737 2.155 1.548 5.555 1.219 9.156 1.53-2.785 4.215-6.809 1.938-9.75-1.415-3.685-.009-5.987 2-8.375l-.469-.031c.981-3.02.86-6.622-1.563-8.781-1.737-2.151-1.541-5.587-1.219-9.188m60.62 7.344c-1.123 3.677-3.121 8.982-1.438 12.875 1.043 4.873.015 7.968-1.469 11.125h.344c-.721 3.998-.63 8.772 1.156 11.625 1.284 2.84 1.148 7.366.906 12.12 1.127-3.677 3.121-9.01 1.438-12.906-1.043-4.873-.015-7.941 1.469-11.09h-.344c.721-3.998.634-8.803-1.156-11.656-1.284-2.849-1.144-7.331-.906-12.09zm-30.844 31.31c-1.53 2.781-4.215 6.804-1.938 9.75 1.415 3.685.009 6.02-2 8.406h.469c-.981 3.02-.86 6.653 1.563 8.813 1.741 2.147 1.548 5.56 1.219 9.156 1.526-2.781 4.215-6.808 1.938-9.75-1.415-3.69-.009-6.02 2-8.406h-.469c.981-3.03.892-6.653-1.531-8.813-1.737-2.151-1.58-5.56-1.25-9.156m-30.12 7.5c.33 3.601.522 7.04-1.219 9.188-2.423 2.16-2.544 5.755-1.563 8.781h-.469c2.01 2.384 3.419 4.725 2 8.406-2.273 2.95.415 6.969 1.938 9.75-.326-3.601-.518-7.01 1.219-9.156 2.427-2.16 2.54-5.786 1.563-8.813h.469c-2.01-2.388-3.415-4.721-2-8.406 2.281-2.95-.408-6.969-1.938-9.75m62.5 31.12c-1.53 2.781-4.219 6.835-1.938 9.781 1.415 3.681-.018 5.987-2.031 8.375l.5.031c-.981 3.03-.892 6.622 1.531 8.781 1.737 2.151 1.576 5.555 1.25 9.156 1.522-2.781 4.215-6.804 1.938-9.75-1.419-3.685-.009-5.991 2-8.375l-.5-.031c.985-3.03.892-6.622-1.531-8.781-1.741-2.151-1.548-5.587-1.219-9.188m-31.31 11.781c-1.127 2.054-3.121 5.05-1.438 7.219 1.047 2.722.011 4.425-1.469 6.188h.344c-.728 2.236-.634 4.898 1.156 6.5 1.28 1.585 1.148 4.123.906 6.781 1.127-2.054 3.089-5.04 1.406-7.219-1.047-2.722.012-4.429 1.5-6.188h-.375c.725-2.236.662-4.902-1.125-6.5-1.284-1.589-1.152-4.123-.906-6.781m-32.34 4.281c-1.131 2.054-3.121 5.04-1.438 7.219 1.047 2.718-.016 4.425-1.5 6.188l.375.031c-.728 2.236-.665 4.902 1.125 6.5 1.281 1.589 1.152 4.092.906 6.75 1.131-2.054 3.121-5.01 1.438-7.188-1.047-2.718.012-4.461 1.5-6.219h-.375c.725-2.236.662-4.907-1.125-6.5-1.284-1.589-1.152-4.123-.906-6.781" fill="#ffe500"/></g></svg>